# https://github.com/mikedh/trimesh
v 0.00629699 -0.04499983 0.10734290
v 0.00544798 -0.04499983 0.10837100
v 0.00544798 -0.05449986 0.10837100
v 0.00629699 -0.05449986 0.10734290
v 0.00695598 -0.04499983 0.10618400
v 0.00695598 -0.05449986 0.10618400
v 0.00740296 -0.04499983 0.10492800
v 0.00740296 -0.05449986 0.10492800
v 0.00762498 -0.04499983 0.10361300
v 0.00762498 -0.05449986 0.10361300
v 0.00761598 -0.04499983 0.10227890
v 0.00761598 -0.05449986 0.10227890
v 0.00737494 -0.04499983 0.10096800
v 0.00737494 -0.05449986 0.10096800
v 0.00690997 -0.04499983 0.09971797
v 0.00690997 -0.05449986 0.09971797
v 0.00623494 -0.04499983 0.09856796
v 0.00623494 -0.05449986 0.09856796
v 0.00537097 -0.04499983 0.09755194
v 0.00537097 -0.05449986 0.09755194
v 0.00434297 -0.04499983 0.09670293
v 0.00434297 -0.05449986 0.09670293
v 0.00318396 -0.04499983 0.09604394
v 0.00318396 -0.05449986 0.09604394
v 0.00192797 -0.04499983 0.09559690
v 0.00192797 -0.05449986 0.09559690
v 0.00061300 -0.04499983 0.09537494
v 0.00061300 -0.05449986 0.09537494
v -0.00072100 -0.04499983 0.09538400
v -0.00072100 -0.05449986 0.09538400
v -0.00203198 -0.04499983 0.09562492
v -0.00203198 -0.05449986 0.09562492
v -0.00328195 -0.04499983 0.09608995
v -0.00328195 -0.05449986 0.09608995
v -0.00443196 -0.04499983 0.09676492
v -0.00443196 -0.05449986 0.09676492
v -0.00544798 -0.04499983 0.09762895
v -0.00544798 -0.05449986 0.09762895
v -0.00629699 -0.04499983 0.09865701
v -0.00629699 -0.05449986 0.09865701
v -0.00695598 -0.04499983 0.09981596
v -0.00695598 -0.05449986 0.09981596
v -0.00740296 -0.04499983 0.10107190
v -0.00740296 -0.05449986 0.10107190
v -0.00762498 -0.04499983 0.10238690
v -0.00762498 -0.05449986 0.10238690
v -0.00761598 -0.04499983 0.10372090
v -0.00761598 -0.05449986 0.10372090
v -0.00737494 -0.04499983 0.10503190
v -0.00737494 -0.05449986 0.10503190
v -0.00690997 -0.04499983 0.10628190
v -0.00690997 -0.05449986 0.10628190
v -0.00623494 -0.04499983 0.10743200
v -0.00623494 -0.05449986 0.10743200
v -0.00537097 -0.04499983 0.10844690
v -0.00537097 -0.05449986 0.10844690
v -0.00434297 -0.04499983 0.10929690
v -0.00434297 -0.05449986 0.10929690
v -0.00318396 -0.04499983 0.10995590
v -0.00318396 -0.05449986 0.10995590
v -0.00192797 -0.04499983 0.11040290
v -0.00192797 -0.05449986 0.11040290
v -0.00061300 -0.04499983 0.11062490
v -0.00061300 -0.05449986 0.11062490
v 0.00072100 -0.04499983 0.11061590
v 0.00072100 -0.05449986 0.11061590
v 0.00203198 -0.04499983 0.11037490
v 0.00203198 -0.05449986 0.11037490
v 0.00328195 -0.04499983 0.10991000
v 0.00328195 -0.05449986 0.10991000
v 0.00443196 -0.04499983 0.10923490
v 0.00443196 -0.05449986 0.10923490
v 0.00544798 -0.04499983 0.10837100
v 0.00544798 -0.05449986 0.10837100
f 1 2 3
f 1 3 4
f 5 4 6
f 5 1 4
f 7 6 8
f 7 5 6
f 9 8 10
f 9 7 8
f 11 10 12
f 11 9 10
f 13 11 12
f 13 12 14
f 15 13 14
f 15 14 16
f 17 15 16
f 17 16 18
f 19 17 18
f 19 18 20
f 21 19 20
f 21 20 22
f 23 21 22
f 23 22 24
f 25 23 24
f 25 24 26
f 27 25 26
f 27 26 28
f 29 27 28
f 29 28 30
f 31 29 30
f 31 30 32
f 33 31 32
f 33 32 34
f 35 33 34
f 35 34 36
f 37 35 36
f 37 36 38
f 39 38 40
f 39 37 38
f 41 40 42
f 41 39 40
f 43 42 44
f 43 41 42
f 45 44 46
f 45 43 44
f 47 46 48
f 47 45 46
f 49 48 50
f 49 47 48
f 51 50 52
f 51 49 50
f 53 52 54
f 53 51 52
f 55 54 56
f 55 53 54
f 57 56 58
f 57 55 56
f 59 58 60
f 59 57 58
f 61 60 62
f 61 59 60
f 63 62 64
f 63 61 62
f 65 63 64
f 65 64 66
f 67 65 66
f 67 66 68
f 69 67 68
f 69 68 70
f 71 69 70
f 71 70 72
f 73 71 72
f 73 72 74

