# https://github.com/mikedh/trimesh
v -0.03398597 -0.07934397 0.59932798
v -0.03399598 -0.07926297 0.59934998
v -0.03398597 -0.07934296 0.59931701
v -0.03399598 -0.07926297 0.59935999
v -0.03395998 -0.07942193 0.59929502
v -0.03395998 -0.07941997 0.59928399
v -0.03392100 -0.07949393 0.59926403
v -0.03391999 -0.07949197 0.59925300
v -0.03386795 -0.07955795 0.59923500
v -0.03386795 -0.07955497 0.59922397
v -0.03380399 -0.07961297 0.59920901
v -0.03380399 -0.07960897 0.59919798
v -0.03372997 -0.07965493 0.59918803
v -0.03373098 -0.07965093 0.59917599
v -0.00128096 -0.06944292 0.67820001
v -0.00128096 -0.06864696 0.67885202
v -0.00128096 -0.06893396 0.67913902
v -0.00128096 -0.06915694 0.67791402
v -0.00128096 -0.06994593 0.67725801
v -0.00128096 -0.06966096 0.67697299
v -0.00128096 -0.07044196 0.67631298
v -0.00128096 -0.07015794 0.67602801
f 1 2 3
f 1 4 2
f 5 3 6
f 5 1 3
f 7 6 8
f 7 5 6
f 9 8 10
f 9 7 8
f 11 10 12
f 11 9 10
f 13 12 14
f 13 11 12
f 15 16 17
f 18 16 15
f 19 18 15
f 20 18 19
f 21 20 19
f 22 20 21

