# https://github.com/mikedh/trimesh
v -0.00547695 -0.06566894 0.68365699
v 0.00000000 -0.06672394 0.68305302
v 0.00000000 -0.06663596 0.68316001
v 0.00000000 -0.06650894 0.68325299
v 0.00000000 -0.06609696 0.68344003
v 0.00000000 -0.06598097 0.68349999
v 0.00000000 -0.06588995 0.68356103
v 0.00000100 -0.06576395 0.68370098
v -0.01079398 -0.06638997 0.68283200
v -0.01021796 -0.06542694 0.68355602
v -0.01064294 -0.06540697 0.68352997
v -0.01098698 -0.06541192 0.68347198
v -0.01129198 -0.06544095 0.68337899
v -0.01156896 -0.06549197 0.68324900
v -0.01095098 -0.06639897 0.68279397
v -0.01181399 -0.06556594 0.68308598
v -0.01107394 -0.06641697 0.68274403
v -0.01197195 -0.06563192 0.68294901
v -0.01122397 -0.06646096 0.68264699
v -0.01211094 -0.06570798 0.68279898
v -0.01134699 -0.06652694 0.68251503
v -0.01139897 -0.06656992 0.68243402
v -0.01228696 -0.06583797 0.68254799
v -0.01148694 -0.06667995 0.68223101
v -0.01144295 -0.06661593 0.68234903
v -0.01151496 -0.06675195 0.68210298
v -0.01242095 -0.06599092 0.68226600
v -0.01154696 -0.06696695 0.68172598
v -0.01152396 -0.06844395 0.67910999
v -0.01153099 -0.07042396 0.67539901
v -0.01252996 -0.07286298 0.66908801
v -0.01153099 -0.07364398 0.66877800
v -0.01252597 -0.07425093 0.66599798
v -0.01153099 -0.07525795 0.66512400
v -0.01253098 -0.07550394 0.66303903
v -0.01151996 -0.07604694 0.66324300
v -0.01251196 -0.07564598 0.66269702
v -0.01243698 -0.07578194 0.66237903
v -0.01234096 -0.07588797 0.66213697
v -0.01150095 -0.07614994 0.66299599
v -0.01221400 -0.07598996 0.66190898
v -0.01146596 -0.07621794 0.66283500
v -0.01138895 -0.07630693 0.66263098
v -0.01205796 -0.07608896 0.66169602
v -0.01129299 -0.07637596 0.66247898
v -0.01067298 -0.07656395 0.66202998
v -0.01054894 -0.07654893 0.66219002
v -0.01076698 -0.07652896 0.66219902
v -0.01073396 -0.07654798 0.66192901
v -0.01095700 -0.07649695 0.66224301
v -0.01187294 -0.07617998 0.66150498
v -0.01120495 -0.07642096 0.66238600
v -0.01111996 -0.07645297 0.66232198
v -0.01079797 -0.07651692 0.66180801
v -0.01166498 -0.07626092 0.66134399
v -0.01101100 -0.07638692 0.66138297
v -0.01143795 -0.07632994 0.66121697
v -0.01110094 -0.07636892 0.66123998
v -0.01119399 -0.07638496 0.66112602
v -0.01095497 -0.07642096 0.66108203
v -0.01110094 -0.07636892 0.66123998
v -0.01119399 -0.07638496 0.66112602
v -0.01101100 -0.07638692 0.66138297
v -0.01063197 -0.07645297 0.66106099
v -0.01079797 -0.07651692 0.66180801
v -0.01073396 -0.07654798 0.66192901
v -0.00996900 -0.07649797 0.66106498
v -0.01067298 -0.07656395 0.66202998
v -0.01054894 -0.07654893 0.66219002
v 0.00000000 -0.07686996 0.66234398
v 0.00000000 -0.07690197 0.66221100
v 0.00000000 -0.07689696 0.66205400
v 0.00000000 -0.07678896 0.66161698
v 0.00000000 -0.07676595 0.66149998
v 0.00000000 -0.07675594 0.66140097
v 0.00000000 -0.07676196 0.66129202
v 0.00000000 -0.07678896 0.66119498
v -0.00576496 -0.07151597 0.67313302
v -0.00576496 -0.07504194 0.66643900
v -0.00572896 -0.07171094 0.67359102
v -0.00576496 -0.07475697 0.66615403
v -0.00574398 -0.07145196 0.67326403
v -0.00569195 -0.07139194 0.67338902
v -0.00561196 -0.07133996 0.67350000
v -0.00567698 -0.07166093 0.67369598
v -0.00561798 -0.07162398 0.67377502
v -0.00551200 -0.07129997 0.67358798
v -0.00553298 -0.07158797 0.67385399
v -0.00541997 -0.07127696 0.67364103
v -0.00543195 -0.07156097 0.67391700
v -0.00528198 -0.07125693 0.67369097
v -0.00531697 -0.07154297 0.67396301
v -0.00519496 -0.07153397 0.67398900
v -0.00513297 -0.07125192 0.67371202
v -0.00374097 -0.07157093 0.67401201
v -0.00323796 -0.07129794 0.67373401
v -0.00128096 -0.07160693 0.67403001
v -0.00128096 -0.07132393 0.67374700
v -0.00661999 -0.07500994 0.66642499
v -0.00576496 -0.07504194 0.66643900
v -0.00576496 -0.07475697 0.66615403
v -0.00661999 -0.07472592 0.66614002
v -0.00747395 -0.07497495 0.66640800
v -0.00747395 -0.07468992 0.66612297
v -0.00832796 -0.07493692 0.66638798
v -0.00832796 -0.07465195 0.66610301
v -0.00521499 -0.07036596 0.67627501
v -0.00128096 -0.07015794 0.67602801
v -0.00128096 -0.07044196 0.67631298
v -0.00558496 -0.07008695 0.67595798
v -0.00572300 -0.07037496 0.67621797
v -0.00604695 -0.07011795 0.67585999
v -0.00612098 -0.07040792 0.67611998
v -0.00646800 -0.07017594 0.67571199
v -0.00656295 -0.07047498 0.67594999
v -0.00681895 -0.07024997 0.67553598
v -0.00688696 -0.07054793 0.67577702
v -0.00722098 -0.07064998 0.67554498
v -0.00716597 -0.07035094 0.67530799
v -0.00755095 -0.07078695 0.67524397
v -0.00749499 -0.07047992 0.67502099
v -0.00775295 -0.07089596 0.67500901
v -0.00780797 -0.07064998 0.67465502
v -0.00794697 -0.07102996 0.67472303
v -0.00804800 -0.07083797 0.67425799
v -0.00812799 -0.07120293 0.67435998
v -0.00821298 -0.07103794 0.67384201
v -0.00822896 -0.07134395 0.67406797
v -0.00830400 -0.07152092 0.67370403
v -0.00829595 -0.07121396 0.67347997
v -0.00832796 -0.07318294 0.67026699
v -0.00832796 -0.07302594 0.66971803
v -0.00832796 -0.07493692 0.66638798
v -0.00832796 -0.07465195 0.66610301
v 0.00128096 -0.06944197 0.67820001
v 0.00128096 -0.06893295 0.67913800
v 0.00128096 -0.06864595 0.67885202
v 0.00128096 -0.06915593 0.67791402
v 0.00128096 -0.06994497 0.67725801
v 0.00128096 -0.06965994 0.67697299
v 0.00128096 -0.07044094 0.67631203
v 0.00128096 -0.07015693 0.67602801
v 0.00576496 -0.07231396 0.67148900
v 0.00576496 -0.07372796 0.66936302
v 0.00576496 -0.07344597 0.66908097
v 0.00576496 -0.07228797 0.67240697
v 0.00576496 -0.07153594 0.67308301
v 0.00576496 -0.07179695 0.67340702
v 0.00575399 -0.07146495 0.67322803
v 0.00573897 -0.07171994 0.67356598
v 0.00568896 -0.07138395 0.67339599
v 0.00569999 -0.07167595 0.67365801
v 0.00564694 -0.07163697 0.67373902
v 0.00557697 -0.07131993 0.67353398
v 0.00558394 -0.07160496 0.67381001
v 0.00549894 -0.07157492 0.67387700
v 0.00549400 -0.07129198 0.67359799
v 0.00540400 -0.07155197 0.67392999
v 0.00540096 -0.07126992 0.67364901
v 0.00529796 -0.07153797 0.67396700
v 0.00529695 -0.07125598 0.67368603
v 0.00518894 -0.07124894 0.67370600
v 0.00518596 -0.07153093 0.67398900
v 0.00388497 -0.07128298 0.67372698
v 0.00379896 -0.07156693 0.67400998
v 0.00128096 -0.07132297 0.67374599
v 0.00128096 -0.07160598 0.67402899
v 0.00128096 -0.07317996 0.67079002
v 0.00128096 -0.07160598 0.67402899
v 0.00128096 -0.07132297 0.67374599
v 0.00128096 -0.07342296 0.66938102
v 0.00127596 -0.07368892 0.66969901
v 0.00128698 -0.07385593 0.66933697
v 0.00128996 -0.07357996 0.66904002
v 0.00131297 -0.07390397 0.66923398
v 0.00131994 -0.07362896 0.66893101
v 0.00138795 -0.07396793 0.66909099
v 0.00139999 -0.07369196 0.66879201
v 0.00148100 -0.07401394 0.66898900
v 0.00151598 -0.07374292 0.66867697
v 0.00159699 -0.07404893 0.66890800
v 0.00160098 -0.07376694 0.66862202
v 0.00173700 -0.07407295 0.66885102
v 0.00175595 -0.07379198 0.66856301
v 0.00188196 -0.07408297 0.66882497
v 0.00192499 -0.07379996 0.66854000
v 0.00492400 -0.07374095 0.66850603
v 0.00518298 -0.07401198 0.66879302
v 0.00521499 -0.07372695 0.66851300
v 0.00535399 -0.07398992 0.66882700
v 0.00536299 -0.07370597 0.66854799
v 0.00548500 -0.07395696 0.66888702
v 0.00548994 -0.07367295 0.66860801
v 0.00557899 -0.07392197 0.66895700
v 0.00558299 -0.07363796 0.66867799
v 0.00567394 -0.07386797 0.66906500
v 0.00567496 -0.07358497 0.66878498
v 0.00573599 -0.07380795 0.66919100
v 0.00573695 -0.07352596 0.66890901
v 0.00576496 -0.07372796 0.66936302
v 0.00576496 -0.07344597 0.66908097
v 0.00159699 -0.07404893 0.66890800
v 0.00138795 -0.07396793 0.66909099
v 0.00148100 -0.07401394 0.66898900
v 0.00173700 -0.07407295 0.66885102
v 0.00131297 -0.07390397 0.66923398
v 0.00128698 -0.07385593 0.66933697
v 0.00188196 -0.07408297 0.66882497
v 0.00127596 -0.07368892 0.66969901
v 0.00128096 -0.07317996 0.67079002
v 0.00518298 -0.07401198 0.66879302
v 0.00576496 -0.07372796 0.66936302
v 0.00535399 -0.07398992 0.66882700
v 0.00548500 -0.07395696 0.66888702
v 0.00557899 -0.07392197 0.66895700
v 0.00567394 -0.07386797 0.66906500
v 0.00573599 -0.07380795 0.66919100
v 0.00379896 -0.07156693 0.67400998
v 0.00128096 -0.07160598 0.67402899
v 0.00576496 -0.07228797 0.67240697
v 0.00518596 -0.07153093 0.67398900
v 0.00576496 -0.07179695 0.67340702
v 0.00573897 -0.07171994 0.67356598
v 0.00529796 -0.07153797 0.67396700
v 0.00569999 -0.07167595 0.67365801
v 0.00564694 -0.07163697 0.67373902
v 0.00540400 -0.07155197 0.67392999
v 0.00558394 -0.07160496 0.67381001
v 0.00549894 -0.07157492 0.67387700
v 0.00542295 -0.07669496 0.66116798
v 0.00000000 -0.07686996 0.66234398
v 0.00000000 -0.07690197 0.66221100
v 0.00000000 -0.07689696 0.66205400
v 0.00000000 -0.07678896 0.66161698
v 0.00000000 -0.07676595 0.66149998
v 0.00000000 -0.07675594 0.66140097
v 0.00000000 -0.07676196 0.66129202
v 0.00000000 -0.07678896 0.66119498
v 0.01042699 -0.07655197 0.66218603
v 0.01089495 -0.07641994 0.66107601
v 0.01117998 -0.07637393 0.66113800
v 0.01068395 -0.07652997 0.66219401
v 0.01144999 -0.07631397 0.66123497
v 0.01087498 -0.07650196 0.66222900
v 0.01105296 -0.07645893 0.66230100
v 0.01175194 -0.07622194 0.66140503
v 0.01120495 -0.07640296 0.66241002
v 0.01198196 -0.07613092 0.66158700
v 0.01130998 -0.07634496 0.66253603
v 0.01217496 -0.07603096 0.66179401
v 0.01138496 -0.07627195 0.66270500
v 0.01144599 -0.07617497 0.66293299
v 0.01233094 -0.07592397 0.66202903
v 0.01244294 -0.07581293 0.66227901
v 0.01151996 -0.07590794 0.66356200
v 0.01250594 -0.07569992 0.66254401
v 0.01252895 -0.07545596 0.66313398
v 0.01152998 -0.07466793 0.66647297
v 0.01256197 -0.07400393 0.66653597
v 0.01153099 -0.07292795 0.67030799
v 0.01252800 -0.06960797 0.67569101
v 0.01152700 -0.06703996 0.68158799
v 0.01246994 -0.06781196 0.67904103
v 0.01244896 -0.06618195 0.68191701
v 0.01150000 -0.06683093 0.68195403
v 0.01239997 -0.06603097 0.68218398
v 0.01232296 -0.06590294 0.68241698
v 0.01143699 -0.06666493 0.68224901
v 0.01222699 -0.06580495 0.68259901
v 0.01139396 -0.06659895 0.68237001
v 0.01134300 -0.06654298 0.68247300
v 0.01211196 -0.06572097 0.68276000
v 0.01121199 -0.06646198 0.68263203
v 0.01197195 -0.06564396 0.68291402
v 0.01179295 -0.06557393 0.68306100
v 0.01104098 -0.06642693 0.68271899
v 0.01131397 -0.06543797 0.68336397
v 0.01153194 -0.06550794 0.68321300
v 0.01151698 -0.06547993 0.68326300
v 0.01054298 -0.06540894 0.68352801
v 0.01075398 -0.06640893 0.68278903
v 0.01081597 -0.06540095 0.68350101
v 0.00496894 -0.06664395 0.68301499
v 0.00000000 -0.06663596 0.68316001
v 0.00000000 -0.06672394 0.68305302
v 0.00000000 -0.06650894 0.68325299
v 0.00000000 -0.06609696 0.68344003
v 0.00000000 -0.06598097 0.68349999
v 0.00000000 -0.06588995 0.68356103
v 0.00000100 -0.06576395 0.68370098
v 0.01081395 -0.06638097 0.68283099
v 0.01106494 -0.06540995 0.68344897
v 0.01134300 -0.06654298 0.68247300
v 0.01121199 -0.06646198 0.68263203
v 0.01104098 -0.06642693 0.68271899
v 0.01139396 -0.06659895 0.68237001
v 0.01143699 -0.06666493 0.68224901
v 0.01075398 -0.06640893 0.68278903
v 0.01150000 -0.06683093 0.68195403
v 0.01152700 -0.06703996 0.68158799
v 0.00591797 -0.07038396 0.67617399
v 0.00621396 -0.07041496 0.67608798
v 0.00496894 -0.06664395 0.68301499
v 0.00561398 -0.07036697 0.67623401
v 0.00128096 -0.06893295 0.67913800
v 0.00000000 -0.06672394 0.68305302
v 0.00380796 -0.07040095 0.67629302
v 0.00128096 -0.06944197 0.67820001
v 0.01153099 -0.07292795 0.67030799
v 0.00829500 -0.07148396 0.67376798
v 0.00832796 -0.07190096 0.67292303
v 0.00822699 -0.07133495 0.67407298
v 0.00128096 -0.06994497 0.67725801
v 0.00128096 -0.07044094 0.67631203
v 0.00832695 -0.07357096 0.66942000
v 0.00829697 -0.07379198 0.66894400
v 0.01152998 -0.07466793 0.66647297
v 0.00823498 -0.07394194 0.66862202
v 0.00815499 -0.07406097 0.66837102
v 0.00804096 -0.07418394 0.66811198
v 0.00789899 -0.07430392 0.66786301
v 0.00773096 -0.07441896 0.66762799
v 0.00753796 -0.07452595 0.66741002
v 0.00731897 -0.07462793 0.66720700
v 0.00706697 -0.07472497 0.66701603
v 0.01151996 -0.07590794 0.66356200
v 0.00677895 -0.07481592 0.66684198
v 0.00645697 -0.07489693 0.66669202
v -0.00521499 -0.07036596 0.67627501
v -0.00128096 -0.06944292 0.67820001
v -0.00128096 -0.06893396 0.67913902
v -0.00128096 -0.06994593 0.67725801
v -0.00128096 -0.07044196 0.67631298
v -0.00572300 -0.07037496 0.67621797
v 0.01068395 -0.07652997 0.66219401
v 0.01087498 -0.07650196 0.66222900
v 0.01105296 -0.07645893 0.66230100
v 0.01120495 -0.07640296 0.66241002
v 0.01130998 -0.07634496 0.66253603
v 0.01138496 -0.07627195 0.66270500
v 0.01042699 -0.07655197 0.66218603
v 0.01144599 -0.07617497 0.66293299
v 0.00606996 -0.07496994 0.66656399
v 0.00557297 -0.07503193 0.66647100
v -0.01134699 -0.06652694 0.68251503
v -0.01107394 -0.06641697 0.68274403
v -0.01122397 -0.06646096 0.68264699
v -0.01139897 -0.06656992 0.68243402
v -0.01095098 -0.06639897 0.68279397
v -0.01144295 -0.06661593 0.68234903
v -0.01148694 -0.06667995 0.68223101
v -0.01079398 -0.06638997 0.68283200
v -0.01151496 -0.06675195 0.68210298
v -0.01154696 -0.06696695 0.68172598
v -0.00561798 -0.07162398 0.67377502
v -0.00543195 -0.07156097 0.67391700
v -0.00553298 -0.07158797 0.67385399
v -0.00531697 -0.07154297 0.67396301
v -0.00567698 -0.07166093 0.67369598
v -0.00519496 -0.07153397 0.67398900
v -0.00128198 -0.07378792 0.66948599
v -0.00128096 -0.07160693 0.67403001
v -0.00374097 -0.07157093 0.67401201
v -0.00572896 -0.07171094 0.67359102
v -0.01152396 -0.06844395 0.67910999
v -0.00688696 -0.07054793 0.67577702
v -0.00656295 -0.07047498 0.67594999
v -0.00722098 -0.07064998 0.67554498
v -0.01153099 -0.07042396 0.67539901
v -0.00755095 -0.07078695 0.67524397
v -0.00775295 -0.07089596 0.67500901
v -0.00794697 -0.07102996 0.67472303
v -0.00812799 -0.07120293 0.67435998
v -0.00822896 -0.07134395 0.67406797
v -0.00830400 -0.07152092 0.67370403
v 0.00000000 -0.07686996 0.66234398
v 0.00046500 -0.07499593 0.66680700
v 0.00011300 -0.07491296 0.66699898
v 0.00085300 -0.07506096 0.66665298
v 0.00122994 -0.07510095 0.66655499
v 0.00158697 -0.07511997 0.66650301
v -0.00576496 -0.07504194 0.66643900
v -0.00124598 -0.07401794 0.66898501
v -0.00116295 -0.07418096 0.66862702
v -0.00103199 -0.07433897 0.66828102
v -0.00078500 -0.07453393 0.66785002
v -0.00049800 -0.07469195 0.66749799
v -0.00019700 -0.07481497 0.66722000
v -0.01153099 -0.07364398 0.66877800
v -0.00832796 -0.07318294 0.67026699
v -0.00832796 -0.07493692 0.66638798
v -0.01153099 -0.07525795 0.66512400
v -0.01151996 -0.07604694 0.66324300
v -0.01054894 -0.07654893 0.66219002
v -0.00747395 -0.07497495 0.66640800
v -0.00661999 -0.07500994 0.66642499
v -0.01150095 -0.07614994 0.66299599
v -0.01146596 -0.07621794 0.66283500
v -0.01138895 -0.07630693 0.66263098
v -0.01129299 -0.07637596 0.66247898
v -0.01076698 -0.07652896 0.66219902
v -0.01111996 -0.07645297 0.66232198
v -0.01095700 -0.07649695 0.66224301
v -0.01120495 -0.07642096 0.66238600
v 0.01039898 -0.06758594 0.68080300
v 0.00812298 -0.07119196 0.67437100
v 0.00798297 -0.07105493 0.67465800
v 0.00777298 -0.07090395 0.67497897
v 0.00751996 -0.07076692 0.67527401
v 0.00727099 -0.07066392 0.67550302
v 0.00703198 -0.07058393 0.67568201
v 0.00677395 -0.07051593 0.67584097
v 0.00650096 -0.07045894 0.67597699
v -0.00004800 -0.06830495 0.68028802
v 0.00042700 -0.06893694 0.67914200
v -0.00042700 -0.06893694 0.67914200
v -0.01049596 -0.06758594 0.68080300
v -0.00612098 -0.07040792 0.67611998
v -0.00042700 -0.06864994 0.67885500
v -0.00128096 -0.06893396 0.67913902
v -0.00128096 -0.06864696 0.67885202
v -0.00042700 -0.06893694 0.67914200
v 0.00042700 -0.06893694 0.67914200
v 0.00042700 -0.06864994 0.67885500
v 0.00128096 -0.06893295 0.67913800
v 0.00128096 -0.06864595 0.67885202
v -0.00128096 -0.07308894 0.67010200
v -0.00128096 -0.07132393 0.67374700
v -0.00128096 -0.07160693 0.67403001
v -0.00128198 -0.07378792 0.66948599
v -0.00124794 -0.07372993 0.66871399
v -0.00124598 -0.07401794 0.66898501
v -0.00116295 -0.07389992 0.66834199
v -0.00116295 -0.07418096 0.66862702
v -0.00102496 -0.07406193 0.66798300
v -0.00103199 -0.07433897 0.66828102
v -0.00083600 -0.07421594 0.66764301
v -0.00078500 -0.07453393 0.66785002
v -0.00052200 -0.07439696 0.66723901
v -0.00049800 -0.07469195 0.66749799
v -0.00023400 -0.07451796 0.66696697
v -0.00019700 -0.07481497 0.66722000
v 0.00009000 -0.07462197 0.66672999
v 0.00011300 -0.07491296 0.66699898
v 0.00043900 -0.07470697 0.66653502
v 0.00046500 -0.07499593 0.66680700
v 0.00081300 -0.07477194 0.66638201
v 0.00085300 -0.07506096 0.66665298
v 0.00119197 -0.07481497 0.66627699
v 0.00122994 -0.07510095 0.66655499
v 0.00154894 -0.07483494 0.66622198
v 0.00158697 -0.07511997 0.66650301
v 0.00201297 -0.07483994 0.66619599
v 0.00557297 -0.07503193 0.66647100
v 0.00530898 -0.07476496 0.66617000
v 0.00587797 -0.07471293 0.66623598
v 0.00606996 -0.07496994 0.66656399
v 0.00635695 -0.07463395 0.66636902
v 0.00645697 -0.07489693 0.66669202
v 0.00674498 -0.07454097 0.66654003
v 0.00677895 -0.07481592 0.66684198
v 0.00706697 -0.07472497 0.66701603
v 0.00717598 -0.07440096 0.66680902
v 0.00731897 -0.07462793 0.66720700
v 0.00747597 -0.07427293 0.66706502
v 0.00753796 -0.07452595 0.66741002
v 0.00770897 -0.07414793 0.66731697
v 0.00773096 -0.07441896 0.66762799
v 0.00790697 -0.07401394 0.66759199
v 0.00789899 -0.07430392 0.66786301
v 0.00804096 -0.07418394 0.66811198
v 0.00806898 -0.07387292 0.66788697
v 0.00815499 -0.07406097 0.66837102
v 0.00819397 -0.07372593 0.66819698
v 0.00823498 -0.07394194 0.66862202
v 0.00827700 -0.07357496 0.66851801
v 0.00829697 -0.07379198 0.66894400
v 0.00832099 -0.07342296 0.66884702
v 0.00832695 -0.07357096 0.66942000
v 0.00832796 -0.07153797 0.67281002
v 0.00832796 -0.07190096 0.67292303
v 0.00829500 -0.07148396 0.67376798
v 0.00829399 -0.07120895 0.67347902
v 0.00822699 -0.07133495 0.67407298
v 0.00818199 -0.07098597 0.67393702
v 0.00812298 -0.07119196 0.67437100
v 0.00797695 -0.07076996 0.67438900
v 0.00798297 -0.07105493 0.67465800
v 0.00776500 -0.07061797 0.67471099
v 0.00777298 -0.07090395 0.67497897
v 0.00751996 -0.07076692 0.67527401
v 0.00750798 -0.07048195 0.67500699
v 0.00727099 -0.07066392 0.67550302
v 0.00720996 -0.07036197 0.67527199
v 0.00703198 -0.07058393 0.67568201
v 0.00687897 -0.07026094 0.67549998
v 0.00677395 -0.07051593 0.67584097
v 0.00651795 -0.07018196 0.67568803
v 0.00650096 -0.07045894 0.67597699
v 0.00621396 -0.07041496 0.67608798
v 0.00613195 -0.07012397 0.67583299
v 0.00591797 -0.07038396 0.67617399
v 0.00560695 -0.07008397 0.67595398
v 0.00561398 -0.07036697 0.67623401
v 0.00416398 -0.07010996 0.67600602
v 0.00380796 -0.07040095 0.67629302
v 0.00128096 -0.07015693 0.67602801
v 0.00128096 -0.07044094 0.67631203
v -0.00832796 -0.07302594 0.66971803
v -0.00832796 -0.07465195 0.66610301
v -0.00747395 -0.07468992 0.66612297
v -0.00661999 -0.07472592 0.66614002
v -0.00576496 -0.07475697 0.66615403
v -0.00576496 -0.07151597 0.67313302
v -0.00829595 -0.07121396 0.67347997
v -0.00574398 -0.07145196 0.67326403
v -0.00804800 -0.07083797 0.67425799
v -0.00821298 -0.07103794 0.67384201
v -0.00569195 -0.07139194 0.67338902
v -0.00780797 -0.07064998 0.67465502
v -0.00561196 -0.07133996 0.67350000
v -0.00749499 -0.07047992 0.67502099
v -0.00551200 -0.07129997 0.67358798
v -0.00716597 -0.07035094 0.67530799
v -0.00681895 -0.07024997 0.67553598
v -0.00541997 -0.07127696 0.67364103
v -0.00646800 -0.07017594 0.67571199
v -0.00528198 -0.07125693 0.67369097
v 0.00151598 -0.07374292 0.66867697
v -0.00052200 -0.07439696 0.66723901
v -0.00023400 -0.07451796 0.66696697
v 0.00009000 -0.07462197 0.66672999
v 0.00139999 -0.07369196 0.66879201
v -0.00083600 -0.07421594 0.66764301
v 0.00160098 -0.07376694 0.66862202
v 0.00043900 -0.07470697 0.66653502
v 0.00081300 -0.07477194 0.66638201
v 0.00131994 -0.07362896 0.66893101
v -0.00116295 -0.07389992 0.66834199
v -0.00102496 -0.07406193 0.66798300
v 0.00175595 -0.07379198 0.66856301
v 0.00119197 -0.07481497 0.66627699
v 0.00154894 -0.07483494 0.66622198
v 0.00128996 -0.07357996 0.66904002
v -0.00124794 -0.07372993 0.66871399
v 0.00192499 -0.07379996 0.66854000
v 0.00201297 -0.07483994 0.66619599
v 0.00128096 -0.07342296 0.66938102
v -0.00128096 -0.07308894 0.67010200
v -0.00604695 -0.07011795 0.67585999
v -0.00558496 -0.07008695 0.67595798
v -0.00513297 -0.07125192 0.67371202
v -0.00323796 -0.07129794 0.67373401
v 0.00492400 -0.07374095 0.66850603
v 0.00530898 -0.07476496 0.66617000
v 0.00521499 -0.07372695 0.66851300
v 0.00587797 -0.07471293 0.66623598
v 0.00536299 -0.07370597 0.66854799
v 0.00635695 -0.07463395 0.66636902
v 0.00674498 -0.07454097 0.66654003
v 0.00548994 -0.07367295 0.66860801
v 0.00717598 -0.07440096 0.66680902
v 0.00558299 -0.07363796 0.66867799
v 0.00747597 -0.07427293 0.66706502
v 0.00770897 -0.07414793 0.66731697
v 0.00567496 -0.07358497 0.66878498
v 0.00128096 -0.07132297 0.67374599
v -0.00128096 -0.07132393 0.67374700
v -0.00128096 -0.07015794 0.67602801
v 0.00790697 -0.07401394 0.66759199
v 0.00806898 -0.07387292 0.66788697
v 0.00573695 -0.07352596 0.66890901
v 0.00819397 -0.07372593 0.66819698
v 0.00827700 -0.07357496 0.66851801
v 0.00576496 -0.07344597 0.66908097
v 0.00832099 -0.07342296 0.66884702
v 0.00576496 -0.07231396 0.67148900
v 0.00128096 -0.07015693 0.67602801
v -0.00128096 -0.06966096 0.67697299
v 0.00388497 -0.07128298 0.67372698
v 0.00128096 -0.06965994 0.67697299
v -0.00128096 -0.06915694 0.67791402
v -0.00042700 -0.06864994 0.67885500
v -0.00128096 -0.06864696 0.67885202
v 0.00128096 -0.06915593 0.67791402
v 0.00042700 -0.06864994 0.67885500
v 0.00416398 -0.07010996 0.67600602
v 0.00518894 -0.07124894 0.67370600
v 0.00128096 -0.06864595 0.67885202
v 0.00832796 -0.07153797 0.67281002
v 0.00576496 -0.07153594 0.67308301
v 0.00829399 -0.07120895 0.67347902
v 0.00575399 -0.07146495 0.67322803
v 0.00560695 -0.07008397 0.67595398
v 0.00529695 -0.07125598 0.67368603
v 0.00818199 -0.07098597 0.67393702
v 0.00568896 -0.07138395 0.67339599
v 0.00613195 -0.07012397 0.67583299
v 0.00651795 -0.07018196 0.67568803
v 0.00540096 -0.07126992 0.67364901
v 0.00797695 -0.07076996 0.67438900
v 0.00687897 -0.07026094 0.67549998
v 0.00549400 -0.07129198 0.67359799
v 0.00776500 -0.07061797 0.67471099
v 0.00557697 -0.07131993 0.67353398
v 0.00720996 -0.07036197 0.67527199
v 0.00750798 -0.07048195 0.67500699
f 1 2 3
f 1 3 4
f 1 4 5
f 1 5 6
f 1 6 7
f 1 7 8
f 9 1 10
f 9 2 1
f 11 9 10
f 12 9 11
f 13 9 12
f 14 15 9
f 14 9 13
f 16 15 14
f 16 17 15
f 18 19 17
f 18 17 16
f 20 19 18
f 20 21 19
f 20 22 21
f 23 22 20
f 23 24 25
f 23 26 24
f 23 25 22
f 27 26 23
f 27 28 26
f 29 28 27
f 30 29 27
f 31 30 27
f 31 32 30
f 33 32 31
f 34 32 33
f 35 34 33
f 35 36 34
f 37 36 35
f 38 36 37
f 39 36 38
f 39 40 36
f 41 42 40
f 41 43 42
f 41 40 39
f 44 43 41
f 44 45 43
f 46 47 48
f 49 48 50
f 49 46 48
f 51 52 45
f 51 53 52
f 51 45 44
f 54 49 50
f 54 50 53
f 55 54 53
f 55 53 51
f 56 54 55
f 57 56 55
f 58 56 57
f 59 58 57
f 60 61 62
f 60 63 61
f 64 65 63
f 64 66 65
f 64 63 60
f 67 68 66
f 67 69 68
f 67 66 64
f 70 69 67
f 71 70 67
f 72 71 67
f 73 72 67
f 74 73 67
f 75 74 67
f 76 75 67
f 77 76 67
f 78 79 80
f 78 81 79
f 82 78 80
f 83 82 80
f 84 80 85
f 84 85 86
f 84 83 80
f 87 86 88
f 87 84 86
f 89 88 90
f 89 87 88
f 91 90 92
f 91 92 93
f 91 89 90
f 94 91 93
f 95 94 93
f 96 94 95
f 97 96 95
f 98 96 97
f 99 100 101
f 99 101 102
f 103 102 104
f 103 99 102
f 105 104 106
f 105 103 104
f 107 108 109
f 110 107 111
f 110 108 107
f 112 111 113
f 112 110 111
f 114 113 115
f 114 112 113
f 116 115 117
f 116 114 115
f 118 116 117
f 119 116 118
f 120 119 118
f 121 119 120
f 122 121 120
f 123 122 124
f 123 121 122
f 125 124 126
f 125 123 124
f 127 126 128
f 127 125 126
f 129 127 128
f 130 127 129
f 131 130 129
f 132 130 131
f 133 132 131
f 134 132 133
f 135 136 137
f 135 137 138
f 139 138 140
f 139 135 138
f 141 140 142
f 141 139 140
f 143 144 145
f 146 144 143
f 147 146 143
f 148 147 149
f 148 146 147
f 150 149 151
f 150 148 149
f 152 150 151
f 153 151 154
f 153 152 151
f 155 153 154
f 156 154 157
f 156 155 154
f 158 157 159
f 158 156 157
f 160 159 161
f 160 161 162
f 160 158 159
f 163 160 162
f 164 163 162
f 165 163 164
f 166 165 164
f 167 165 166
f 168 169 170
f 171 168 170
f 172 168 171
f 173 171 174
f 173 172 171
f 175 174 176
f 175 173 174
f 177 176 178
f 177 175 176
f 179 178 180
f 179 177 178
f 181 180 182
f 181 179 180
f 183 182 184
f 183 181 182
f 185 184 186
f 185 183 184
f 187 185 186
f 188 187 189
f 188 185 187
f 190 189 191
f 190 188 189
f 192 191 193
f 192 190 191
f 194 193 195
f 194 192 193
f 196 195 197
f 196 194 195
f 198 197 199
f 198 196 197
f 200 199 201
f 200 198 199
f 202 203 204
f 205 206 203
f 205 203 202
f 207 206 205
f 208 207 205
f 209 207 208
f 210 209 208
f 211 210 208
f 212 211 213
f 212 213 214
f 212 214 215
f 212 215 216
f 212 216 217
f 212 210 211
f 218 219 210
f 220 210 212
f 220 218 210
f 221 220 222
f 221 218 220
f 223 224 221
f 223 221 222
f 225 224 223
f 226 227 224
f 226 224 225
f 228 229 227
f 228 227 226
f 230 231 232
f 230 232 233
f 230 233 234
f 230 234 235
f 230 235 236
f 230 236 237
f 230 237 238
f 239 231 230
f 240 239 230
f 241 242 239
f 241 239 240
f 243 244 242
f 243 245 244
f 243 242 241
f 246 247 245
f 246 245 243
f 248 249 247
f 248 247 246
f 250 249 248
f 250 251 249
f 250 252 251
f 253 252 250
f 254 252 253
f 254 255 252
f 256 255 254
f 257 255 256
f 258 255 257
f 259 258 257
f 260 258 259
f 261 260 259
f 262 260 261
f 262 261 263
f 264 265 262
f 264 262 263
f 266 265 264
f 267 268 265
f 267 265 266
f 269 270 268
f 269 271 270
f 269 268 267
f 272 273 271
f 272 271 269
f 274 273 272
f 275 276 273
f 275 273 274
f 277 278 279
f 280 281 282
f 283 281 280
f 284 285 283
f 286 284 283
f 287 286 283
f 288 287 283
f 289 288 283
f 290 283 280
f 290 289 283
f 291 281 276
f 291 275 278
f 291 292 282
f 291 277 292
f 291 276 275
f 291 278 277
f 291 282 281
f 293 294 295
f 296 293 295
f 297 295 298
f 297 296 295
f 299 297 298
f 300 299 298
f 301 302 303
f 304 301 303
f 305 303 306
f 305 304 303
f 307 304 305
f 308 307 305
f 309 310 311
f 309 312 310
f 313 307 308
f 314 307 313
f 315 309 311
f 316 309 315
f 317 309 316
f 318 317 316
f 319 317 318
f 320 317 319
f 321 317 320
f 322 317 321
f 323 317 322
f 324 317 323
f 325 317 324
f 326 317 325
f 327 326 325
f 328 326 327
f 329 330 331
f 329 332 330
f 329 333 332
f 334 329 331
f 335 336 337
f 335 337 338
f 335 338 339
f 335 339 340
f 341 340 342
f 341 342 326
f 341 326 328
f 341 335 340
f 341 343 344
f 341 328 343
f 345 346 347
f 348 349 346
f 348 346 345
f 350 349 348
f 351 352 349
f 351 349 350
f 353 352 351
f 354 352 353
f 355 356 357
f 355 358 356
f 359 360 358
f 359 358 355
f 361 362 363
f 364 363 360
f 364 360 359
f 364 361 363
f 365 366 367
f 365 368 366
f 369 370 368
f 369 371 370
f 369 372 371
f 369 373 372
f 369 374 373
f 369 375 374
f 369 368 365
f 376 341 344
f 376 377 378
f 376 379 377
f 376 380 379
f 376 381 380
f 376 344 381
f 382 376 378
f 382 383 361
f 382 384 383
f 382 385 384
f 382 386 385
f 382 387 386
f 382 388 387
f 382 378 388
f 389 390 375
f 389 391 390
f 389 375 369
f 392 391 389
f 393 391 392
f 394 395 391
f 394 396 395
f 394 382 396
f 394 376 382
f 394 393 397
f 394 391 393
f 398 394 397
f 399 394 398
f 400 401 394
f 400 394 399
f 402 403 401
f 404 401 400
f 404 402 401
f 364 382 361
f 405 309 300
f 405 298 303
f 405 300 298
f 405 303 302
f 405 312 309
f 405 406 312
f 405 407 406
f 405 408 407
f 405 409 408
f 405 410 409
f 405 411 410
f 405 412 411
f 405 413 412
f 405 302 413
f 414 305 306
f 414 415 305
f 414 416 415
f 414 331 416
f 414 306 331
f 417 418 334
f 417 367 418
f 417 306 352
f 417 354 365
f 417 334 331
f 417 365 367
f 417 352 354
f 417 331 306
f 419 420 421
f 422 420 419
f 423 419 424
f 423 422 419
f 425 424 426
f 425 423 424
f 427 428 429
f 430 427 429
f 431 427 430
f 432 433 431
f 432 431 430
f 434 435 433
f 434 433 432
f 436 435 434
f 437 435 436
f 438 437 436
f 439 437 438
f 440 439 438
f 440 441 439
f 442 443 441
f 442 441 440
f 444 445 443
f 444 443 442
f 446 447 445
f 446 445 444
f 448 449 447
f 448 447 446
f 450 451 449
f 450 449 448
f 452 451 450
f 453 451 452
f 454 455 453
f 454 456 455
f 454 453 452
f 457 458 456
f 457 456 454
f 459 460 458
f 459 458 457
f 461 460 459
f 462 463 460
f 462 460 461
f 464 465 463
f 464 463 462
f 466 467 465
f 466 465 464
f 468 469 467
f 468 467 466
f 470 469 468
f 471 472 469
f 471 469 470
f 473 474 472
f 473 472 471
f 475 476 474
f 475 474 473
f 477 478 476
f 477 476 475
f 479 478 477
f 480 478 479
f 481 480 479
f 482 483 480
f 482 480 481
f 484 485 483
f 484 483 482
f 486 487 485
f 486 485 484
f 488 487 486
f 489 487 488
f 490 489 488
f 491 489 490
f 491 492 489
f 493 492 491
f 493 494 492
f 495 494 493
f 495 496 494
f 497 496 495
f 497 498 496
f 499 498 497
f 500 498 499
f 500 501 498
f 502 501 500
f 502 503 501
f 504 503 502
f 505 503 504
f 506 505 504
f 507 505 506
f 508 507 506
f 509 510 511
f 509 511 512
f 509 512 513
f 514 515 509
f 516 517 518
f 516 515 514
f 516 518 515
f 519 520 517
f 519 517 516
f 521 522 520
f 521 520 519
f 523 522 521
f 524 522 523
f 525 523 526
f 525 524 523
f 527 526 528
f 527 525 526
f 529 530 531
f 529 531 532
f 533 534 530
f 533 530 529
f 535 529 532
f 535 532 536
f 535 536 537
f 538 539 540
f 538 540 534
f 538 534 533
f 541 537 542
f 541 542 543
f 541 535 537
f 544 545 539
f 544 539 538
f 546 543 547
f 546 541 543
f 548 549 545
f 548 545 544
f 550 527 528
f 551 528 552
f 551 552 553
f 551 550 528
f 554 547 555
f 554 546 547
f 556 554 555
f 556 555 557
f 558 556 557
f 558 557 559
f 558 559 560
f 561 558 560
f 561 560 562
f 563 561 562
f 564 563 562
f 565 563 564
f 565 566 563
f 567 568 549
f 567 549 548
f 569 553 568
f 569 568 567
f 569 551 553
f 570 566 565
f 571 566 570
f 571 572 566
f 573 572 571
f 574 572 573
f 574 575 572
f 576 575 574
f 577 575 576
f 578 579 569
f 578 569 567
f 580 578 567
f 581 582 579
f 581 579 578
f 583 584 582
f 585 583 582
f 585 582 581
f 586 583 585
f 587 578 580
f 587 580 588
f 589 586 585
f 590 591 577
f 590 577 576
f 592 591 590
f 592 593 591
f 594 587 588
f 594 588 595
f 596 593 592
f 596 597 593
f 598 594 595
f 599 595 600
f 599 598 595
f 601 597 596
f 602 600 603
f 602 599 600
f 604 605 597
f 604 597 601
f 606 603 605
f 606 602 603
f 607 606 605
f 607 605 604
f 513 514 509

