# https://github.com/mikedh/trimesh
v -0.04826796 0.00851107 0.05970001
v -0.04901295 0.00000000 0.05970001
v -0.04899996 0.00000000 0.06019997
v -0.04825598 0.00850910 0.06019997
v -0.04605698 0.01676309 0.05970001
v -0.04604500 0.01675909 0.06019997
v -0.04244697 0.02450710 0.05970001
v -0.04243499 0.02450007 0.06019997
v -0.03753596 0.03149706 0.06019997
v -0.03754597 0.03150510 0.05970001
v -0.03150498 0.03754609 0.05970001
v -0.03149700 0.03753608 0.06019997
v -0.02450698 0.04244709 0.05970001
v -0.02449995 0.04243510 0.06019997
v -0.01676297 0.04605710 0.05970001
v -0.01675897 0.04604506 0.06019997
v -0.00851095 0.04826807 0.05970001
v -0.00850898 0.04825609 0.06019997
v 0.00000000 0.04901307 0.05970001
v 0.00000000 0.04900008 0.06019997
v 0.00851095 0.04826807 0.05970001
v 0.00850898 0.04825609 0.06019997
v 0.01676297 0.04605710 0.05970001
v 0.01675897 0.04604506 0.06019997
v 0.02450698 0.04244709 0.05970001
v 0.02449995 0.04243510 0.06019997
v 0.03150498 0.03754609 0.05970001
v 0.03149700 0.03753608 0.06019997
v 0.03754597 0.03150510 0.05970001
v 0.03753596 0.03149706 0.06019997
v 0.04244697 0.02450710 0.05970001
v 0.04243499 0.02450007 0.06019997
v 0.04605698 0.01676309 0.05970001
v 0.04604500 0.01675909 0.06019997
v 0.04825598 0.00850910 0.06019997
v 0.04826796 0.00851107 0.05970001
v 0.04901295 0.00000000 0.05970001
v 0.04899996 0.00000000 0.06019997
v 0.04826796 -0.00851089 0.05970001
v 0.04825598 -0.00850886 0.06019997
v 0.04605698 -0.01676285 0.05970001
v 0.04604500 -0.01675885 0.06019997
v 0.04244697 -0.02450686 0.05970001
v 0.04243499 -0.02449983 0.06019997
v 0.03754597 -0.03150486 0.05970001
v 0.03753596 -0.03149688 0.06019997
v 0.03150498 -0.03754585 0.05970001
v 0.03149700 -0.03753584 0.06019997
v 0.02449995 -0.04243487 0.06019997
v 0.02450698 -0.04244685 0.05970001
v 0.01676297 -0.04605686 0.05970001
v 0.01675897 -0.04604488 0.06019997
v 0.00851095 -0.04826784 0.05970001
v 0.00850898 -0.04825586 0.06019997
v 0.00000000 -0.04901283 0.05970001
v 0.00000000 -0.04899984 0.06019997
v -0.00850898 -0.04825586 0.06019997
v -0.00851095 -0.04826784 0.05970001
v -0.01676297 -0.04605686 0.05970001
v -0.01675897 -0.04604488 0.06019997
v -0.02450698 -0.04244685 0.05970001
v -0.02449995 -0.04243487 0.06019997
v -0.03150498 -0.03754585 0.05970001
v -0.03149700 -0.03753584 0.06019997
v -0.03754597 -0.03150486 0.05970001
v -0.03753596 -0.03149688 0.06019997
v -0.04244697 -0.02450686 0.05970001
v -0.04243499 -0.02449983 0.06019997
v -0.04605698 -0.01676285 0.05970001
v -0.04604500 -0.01675885 0.06019997
v -0.04826796 -0.00851089 0.05970001
v -0.04825598 -0.00850886 0.06019997
v -0.04901295 0.00000000 0.05970001
v -0.04899996 0.00000000 0.06019997
v 0.02450698 -0.04244685 0.05970001
v 0.03754597 -0.03150486 0.05970001
v 0.03150498 -0.03754585 0.05970001
v 0.04605698 -0.01676285 0.05970001
v 0.04244697 -0.02450686 0.05970001
v -0.00851095 -0.04826784 0.05970001
v 0.00851095 -0.04826784 0.05970001
v 0.00000000 -0.04901283 0.05970001
v 0.04826796 0.00851107 0.05970001
v 0.04901295 0.00000000 0.05970001
v 0.04826796 -0.00851089 0.05970001
v 0.01676297 -0.04605686 0.05970001
v -0.02450698 -0.04244685 0.05970001
v -0.01676297 -0.04605686 0.05970001
v 0.04244697 0.02450710 0.05970001
v 0.04605698 0.01676309 0.05970001
v 0.03754597 0.03150510 0.05970001
v -0.04826796 -0.00851089 0.05970001
v -0.03754597 -0.03150486 0.05970001
v -0.04244697 -0.02450686 0.05970001
v -0.04605698 -0.01676285 0.05970001
v 0.00851095 0.04826807 0.05970001
v 0.01676297 0.04605710 0.05970001
v 0.02450698 0.04244709 0.05970001
v 0.00000000 0.04901307 0.05970001
v 0.03150498 0.03754609 0.05970001
v -0.03150498 -0.03754585 0.05970001
v -0.01676297 0.04605710 0.05970001
v -0.00851095 0.04826807 0.05970001
v -0.04605698 0.01676309 0.05970001
v -0.04901295 0.00000000 0.05970001
v -0.04826796 0.00851107 0.05970001
v -0.02450698 0.04244709 0.05970001
v -0.03754597 0.03150510 0.05970001
v -0.04244697 0.02450710 0.05970001
v -0.03150498 0.03754609 0.05970001
v 0.03581297 -0.03004986 0.06019997
v 0.03149700 -0.03753584 0.06019997
v 0.03753596 -0.03149688 0.06019997
v 0.03004997 -0.03581285 0.06019997
v 0.02337497 -0.04048687 0.06019997
v 0.02449995 -0.04243487 0.06019997
v 0.04048699 -0.02337485 0.06019997
v 0.04243499 -0.02449983 0.06019997
v 0.01598900 -0.04393088 0.06019997
v 0.01675897 -0.04604488 0.06019997
v 0.04393094 -0.01598888 0.06019997
v 0.04604500 -0.01675885 0.06019997
v 0.00811797 -0.04603987 0.06019997
v 0.00850898 -0.04825586 0.06019997
v 0.04603999 -0.00811785 0.06019997
v 0.04825598 -0.00850886 0.06019997
v 0.00000000 -0.04674988 0.06019997
v 0.00000000 -0.04899984 0.06019997
v 0.04674994 0.00000000 0.06019997
v 0.04899996 0.00000000 0.06019997
v -0.00811797 -0.04603987 0.06019997
v -0.00850898 -0.04825586 0.06019997
v 0.04603999 0.00811809 0.06019997
v 0.04825598 0.00850910 0.06019997
v -0.01675897 -0.04604488 0.06019997
v -0.01598900 -0.04393088 0.06019997
v 0.04393094 0.01598906 0.06019997
v 0.04604500 0.01675909 0.06019997
v 0.04243499 0.02450007 0.06019997
v -0.02337497 -0.04048687 0.06019997
v -0.02449995 -0.04243487 0.06019997
v 0.04048699 0.02337509 0.06019997
v -0.03004997 -0.03581285 0.06019997
v -0.03149700 -0.03753584 0.06019997
v 0.03581297 0.03005009 0.06019997
v 0.03753596 0.03149706 0.06019997
v 0.03004997 0.03581309 0.06019997
v -0.03753596 -0.03149688 0.06019997
v -0.03581297 -0.03004986 0.06019997
v 0.03149700 0.03753608 0.06019997
v -0.04243499 -0.02449983 0.06019997
v -0.04048699 -0.02337485 0.06019997
v 0.02449995 0.04243510 0.06019997
v 0.02337497 0.04048711 0.06019997
v -0.04393094 -0.01598888 0.06019997
v 0.01598900 0.04393106 0.06019997
v -0.04604500 -0.01675885 0.06019997
v 0.01675897 0.04604506 0.06019997
v -0.04825598 -0.00850886 0.06019997
v -0.04603999 -0.00811785 0.06019997
v 0.00850898 0.04825609 0.06019997
v 0.00811797 0.04604011 0.06019997
v 0.00000000 0.04675006 0.06019997
v -0.04899996 0.00000000 0.06019997
v -0.04674994 0.00000000 0.06019997
v 0.00000000 0.04900008 0.06019997
v -0.04825598 0.00850910 0.06019997
v -0.04603999 0.00811809 0.06019997
v -0.00850898 0.04825609 0.06019997
v -0.00811797 0.04604011 0.06019997
v -0.01675897 0.04604506 0.06019997
v -0.01598900 0.04393106 0.06019997
v -0.04604500 0.01675909 0.06019997
v -0.04393094 0.01598906 0.06019997
v -0.02337497 0.04048711 0.06019997
v -0.04243499 0.02450007 0.06019997
v -0.04048699 0.02337509 0.06019997
v -0.02449995 0.04243510 0.06019997
v -0.03753596 0.03149706 0.06019997
v -0.03581297 0.03005009 0.06019997
v -0.03004997 0.03581309 0.06019997
v -0.03149700 0.03753608 0.06019997
v -0.04603999 0.00811809 0.06019997
v -0.04674994 0.00000000 0.06019997
v -0.04669797 0.00000000 0.06219995
v -0.04598796 0.00810909 0.06219995
v -0.04393094 0.01598906 0.06019997
v -0.04388099 0.01597207 0.06219995
v -0.04048699 0.02337509 0.06019997
v -0.04044097 0.02334910 0.06219995
v -0.03581297 0.03005009 0.06019997
v -0.03577196 0.03001707 0.06219995
v -0.03004997 0.03581309 0.06019997
v -0.03001695 0.03577208 0.06219995
v -0.02337497 0.04048711 0.06019997
v -0.02334898 0.04044109 0.06219995
v -0.01598900 0.04393106 0.06019997
v -0.01597195 0.04388105 0.06219995
v -0.00811797 0.04604011 0.06019997
v -0.00810897 0.04598808 0.06219995
v 0.00000000 0.04675006 0.06019997
v 0.00000000 0.04669809 0.06219995
v 0.00811797 0.04604011 0.06019997
v 0.00810897 0.04598808 0.06219995
v 0.01598900 0.04393106 0.06019997
v 0.01597195 0.04388105 0.06219995
v 0.02337497 0.04048711 0.06019997
v 0.02334898 0.04044109 0.06219995
v 0.03004997 0.03581309 0.06019997
v 0.03001695 0.03577208 0.06219995
v 0.03577196 0.03001707 0.06219995
v 0.03581297 0.03005009 0.06019997
v 0.04044097 0.02334910 0.06219995
v 0.04048699 0.02337509 0.06019997
v 0.04393094 0.01598906 0.06019997
v 0.04388099 0.01597207 0.06219995
v 0.04603999 0.00811809 0.06019997
v 0.04598796 0.00810909 0.06219995
v 0.04669797 0.00000000 0.06219995
v 0.04674994 0.00000000 0.06019997
v 0.04603999 -0.00811785 0.06019997
v 0.04598796 -0.00810885 0.06219995
v 0.04393094 -0.01598888 0.06019997
v 0.04388099 -0.01597183 0.06219995
v 0.04044097 -0.02334886 0.06219995
v 0.04048699 -0.02337485 0.06019997
v 0.03581297 -0.03004986 0.06019997
v 0.03577196 -0.03001683 0.06219995
v 0.03004997 -0.03581285 0.06019997
v 0.03001695 -0.03577184 0.06219995
v 0.02337497 -0.04048687 0.06019997
v 0.02334898 -0.04044085 0.06219995
v 0.01598900 -0.04393088 0.06019997
v 0.01597195 -0.04388087 0.06219995
v 0.00811797 -0.04603987 0.06019997
v 0.00810897 -0.04598784 0.06219995
v 0.00000000 -0.04674988 0.06019997
v 0.00000000 -0.04669785 0.06219995
v -0.00811797 -0.04603987 0.06019997
v -0.00810897 -0.04598784 0.06219995
v -0.01598900 -0.04393088 0.06019997
v -0.01597195 -0.04388087 0.06219995
v -0.02337497 -0.04048687 0.06019997
v -0.02334898 -0.04044085 0.06219995
v -0.03004997 -0.03581285 0.06019997
v -0.03001695 -0.03577184 0.06219995
v -0.03581297 -0.03004986 0.06019997
v -0.03577196 -0.03001683 0.06219995
v -0.04048699 -0.02337485 0.06019997
v -0.04044097 -0.02334886 0.06219995
v -0.04393094 -0.01598888 0.06019997
v -0.04388099 -0.01597183 0.06219995
v -0.04603999 -0.00811785 0.06019997
v -0.04598796 -0.00810885 0.06219995
v -0.04669797 0.00000000 0.06219995
v 0.02334898 -0.04044085 0.06219995
v 0.03001695 -0.03577184 0.06219995
v 0.03577196 -0.03001683 0.06219995
v 0.04388099 -0.01597183 0.06219995
v 0.04044097 -0.02334886 0.06219995
v 0.04598796 -0.00810885 0.06219995
v 0.00000000 -0.04669785 0.06219995
v 0.01597195 -0.04388087 0.06219995
v 0.00810897 -0.04598784 0.06219995
v 0.04598796 0.00810909 0.06219995
v 0.04669797 0.00000000 0.06219995
v 0.04388099 0.01597207 0.06219995
v -0.02334898 -0.04044085 0.06219995
v -0.00810897 -0.04598784 0.06219995
v -0.01597195 -0.04388087 0.06219995
v 0.03001695 0.03577208 0.06219995
v 0.04044097 0.02334910 0.06219995
v 0.03577196 0.03001707 0.06219995
v -0.04044097 -0.02334886 0.06219995
v -0.03001695 -0.03577184 0.06219995
v -0.03577196 -0.03001683 0.06219995
v -0.04388099 -0.01597183 0.06219995
v 0.00810897 0.04598808 0.06219995
v 0.02334898 0.04044109 0.06219995
v 0.01597195 0.04388105 0.06219995
v -0.04598796 0.00810909 0.06219995
v -0.04598796 -0.00810885 0.06219995
v -0.04669797 0.00000000 0.06219995
v -0.01597195 0.04388105 0.06219995
v 0.00000000 0.04669809 0.06219995
v -0.00810897 0.04598808 0.06219995
v -0.03001695 0.03577208 0.06219995
v -0.04388099 0.01597207 0.06219995
v -0.04044097 0.02334910 0.06219995
v -0.03577196 0.03001707 0.06219995
v -0.02334898 0.04044109 0.06219995
f 1 2 3
f 1 3 4
f 5 4 6
f 5 1 4
f 7 6 8
f 7 5 6
f 9 7 8
f 10 7 9
f 11 9 12
f 11 10 9
f 13 12 14
f 13 11 12
f 15 13 14
f 15 14 16
f 17 15 16
f 17 16 18
f 19 17 18
f 19 18 20
f 21 19 20
f 21 20 22
f 23 21 22
f 23 22 24
f 25 23 24
f 25 24 26
f 27 25 26
f 27 26 28
f 29 27 28
f 29 28 30
f 31 29 30
f 31 30 32
f 33 31 32
f 33 32 34
f 35 33 34
f 36 33 35
f 37 36 35
f 37 35 38
f 39 37 38
f 39 38 40
f 41 39 40
f 41 40 42
f 43 42 44
f 43 41 42
f 45 44 46
f 45 43 44
f 47 46 48
f 47 45 46
f 49 47 48
f 50 47 49
f 51 49 52
f 51 50 49
f 53 52 54
f 53 51 52
f 55 54 56
f 55 53 54
f 57 55 56
f 58 55 57
f 59 57 60
f 59 58 57
f 61 60 62
f 61 59 60
f 63 62 64
f 63 61 62
f 65 63 64
f 65 64 66
f 67 65 66
f 67 66 68
f 69 67 68
f 69 68 70
f 71 69 70
f 71 70 72
f 73 71 72
f 73 72 74
f 75 76 77
f 78 79 76
f 78 76 75
f 80 81 82
f 83 84 85
f 83 85 78
f 83 75 86
f 83 78 75
f 87 80 88
f 89 90 83
f 91 86 81
f 91 81 80
f 91 83 86
f 91 80 87
f 91 89 83
f 92 93 94
f 92 94 95
f 96 97 98
f 99 98 100
f 99 100 91
f 99 87 101
f 99 101 93
f 99 91 87
f 99 93 92
f 99 96 98
f 102 103 99
f 102 99 92
f 104 105 106
f 107 102 92
f 107 92 105
f 108 104 109
f 110 104 108
f 110 107 105
f 110 105 104
f 111 112 113
f 111 114 112
f 115 116 112
f 115 112 114
f 117 113 118
f 117 111 113
f 119 120 116
f 119 116 115
f 121 118 122
f 121 117 118
f 123 124 120
f 123 120 119
f 125 122 126
f 125 121 122
f 127 124 123
f 127 128 124
f 129 126 130
f 129 125 126
f 131 132 128
f 131 128 127
f 133 130 134
f 133 129 130
f 135 132 131
f 136 135 131
f 137 134 138
f 137 133 134
f 139 137 138
f 140 135 136
f 140 141 135
f 142 137 139
f 143 141 140
f 143 144 141
f 145 139 146
f 145 142 139
f 147 145 146
f 148 144 143
f 148 143 149
f 150 147 146
f 151 148 149
f 151 149 152
f 153 154 147
f 153 147 150
f 155 151 152
f 156 154 153
f 157 151 155
f 158 156 153
f 159 157 155
f 159 155 160
f 161 162 156
f 161 156 158
f 163 162 161
f 164 159 160
f 164 160 165
f 166 163 161
f 167 165 168
f 167 164 165
f 169 170 163
f 169 163 166
f 171 172 170
f 171 170 169
f 173 168 174
f 173 167 168
f 175 172 171
f 176 174 177
f 176 173 174
f 178 175 171
f 179 177 180
f 179 180 181
f 179 176 177
f 182 179 181
f 182 175 178
f 182 181 175
f 183 184 185
f 183 185 186
f 187 186 188
f 187 183 186
f 189 188 190
f 189 187 188
f 191 190 192
f 191 189 190
f 193 192 194
f 193 191 192
f 195 194 196
f 195 193 194
f 197 195 196
f 197 196 198
f 199 197 198
f 199 198 200
f 201 199 200
f 201 200 202
f 203 201 202
f 203 202 204
f 205 203 204
f 205 204 206
f 207 205 206
f 207 206 208
f 209 207 208
f 209 208 210
f 211 209 210
f 212 209 211
f 213 212 211
f 214 212 213
f 215 214 213
f 215 213 216
f 217 215 216
f 217 216 218
f 219 217 218
f 220 217 219
f 221 220 219
f 221 219 222
f 223 221 222
f 223 222 224
f 225 223 224
f 226 223 225
f 227 225 228
f 227 226 225
f 229 228 230
f 229 227 228
f 231 230 232
f 231 229 230
f 233 232 234
f 233 231 232
f 235 234 236
f 235 233 234
f 237 236 238
f 237 235 236
f 239 238 240
f 239 237 238
f 241 240 242
f 241 239 240
f 243 242 244
f 243 241 242
f 245 244 246
f 245 243 244
f 247 245 246
f 247 246 248
f 249 247 248
f 249 248 250
f 251 249 250
f 251 250 252
f 253 251 252
f 253 252 254
f 184 253 254
f 184 254 255
f 256 257 258
f 259 258 260
f 261 258 259
f 262 263 256
f 262 264 263
f 265 261 266
f 267 256 258
f 267 261 265
f 267 258 261
f 268 269 262
f 268 270 269
f 271 272 273
f 271 267 272
f 274 275 268
f 274 276 275
f 274 268 262
f 277 274 262
f 278 279 280
f 278 271 279
f 278 262 256
f 278 256 267
f 278 267 271
f 281 282 277
f 281 283 282
f 281 262 278
f 281 277 262
f 284 285 286
f 284 278 285
f 284 281 278
f 287 281 284
f 287 288 281
f 287 289 288
f 287 290 289
f 287 284 291

