# https://github.com/mikedh/trimesh
v -0.03574997 0.14664400 -0.04679596
v -0.03579896 0.15411399 -0.05346798
v -0.03574997 0.15371500 -0.05386698
v -0.03579896 0.14704309 -0.04639697
v -0.03594595 0.15450101 -0.05308097
v -0.03594595 0.14743000 -0.04601001
v -0.03618496 0.15486400 -0.05271798
v -0.03618496 0.14779299 -0.04564696
v -0.03650999 0.15519200 -0.05238997
v -0.03650999 0.14812100 -0.04531800
v -0.03691095 0.15547600 -0.05210596
v -0.03691095 0.14840400 -0.04503500
v -0.03737497 0.15570500 -0.05187600
v -0.03737497 0.14863400 -0.04480499
v -0.03788799 0.15587500 -0.05170696
v -0.03788799 0.14880399 -0.04463601
v -0.03843599 0.15597799 -0.05160397
v -0.03843599 0.14890701 -0.04453200
v -0.03899997 0.15601300 -0.05156898
v -0.03899997 0.14894199 -0.04449796
v -0.03956395 0.15597799 -0.05160397
v -0.03956395 0.14890701 -0.04453200
v -0.04011195 0.15587500 -0.05170696
v -0.04011195 0.14880399 -0.04463601
v -0.04062497 0.15570500 -0.05187600
v -0.04062497 0.14863400 -0.04480499
v -0.04108899 0.15547600 -0.05210596
v -0.04108899 0.14840400 -0.04503500
v -0.04148995 0.15519200 -0.05238997
v -0.04148995 0.14812100 -0.04531800
v -0.04181498 0.15486400 -0.05271798
v -0.04181498 0.14779299 -0.04564696
v -0.04205399 0.15450101 -0.05308097
v -0.04205399 0.14743000 -0.04601001
v -0.04220098 0.15411399 -0.05346798
v -0.04220098 0.14704309 -0.04639697
v -0.04224997 0.15371500 -0.05386698
v -0.04224997 0.14664400 -0.04679596
v -0.04220098 0.15331601 -0.05426597
v -0.04220098 0.14624500 -0.04719501
v -0.04205399 0.15292899 -0.05465298
v -0.04205399 0.14585809 -0.04758197
v -0.04181498 0.15256600 -0.05501598
v -0.04181498 0.14549500 -0.04794496
v -0.04148995 0.15223800 -0.05534398
v -0.04148995 0.14516699 -0.04827296
v -0.04108899 0.15195499 -0.05562698
v -0.04108899 0.14488409 -0.04855597
v -0.04062497 0.15172499 -0.05585700
v -0.04062497 0.14465401 -0.04878598
v -0.04011195 0.15155600 -0.05602598
v -0.04011195 0.14448500 -0.04895496
v -0.03956395 0.15145200 -0.05612999
v -0.03956395 0.14438111 -0.04905897
v -0.03899997 0.15141700 -0.05616497
v -0.03899997 0.14434600 -0.04909402
v -0.03843599 0.15145200 -0.05612999
v -0.03843599 0.14438111 -0.04905897
v -0.03788799 0.15155600 -0.05602598
v -0.03788799 0.14448500 -0.04895496
v -0.03737497 0.15172499 -0.05585700
v -0.03737497 0.14465401 -0.04878598
v -0.03691095 0.15195499 -0.05562698
v -0.03691095 0.14488409 -0.04855597
v -0.03650999 0.15223800 -0.05534398
v -0.03650999 0.14516699 -0.04827296
v -0.03618496 0.15256600 -0.05501598
v -0.03618496 0.14549500 -0.04794496
v -0.03594595 0.15292899 -0.05465298
v -0.03594595 0.14585809 -0.04758197
v -0.03579896 0.15331601 -0.05426597
v -0.03579896 0.14624500 -0.04719501
v -0.03574997 0.15371500 -0.05386698
v -0.03574997 0.14664400 -0.04679596
v -0.04011195 0.14448500 -0.04895496
v -0.03899997 0.14434600 -0.04909402
v -0.03956395 0.14438111 -0.04905897
v -0.04062497 0.14465401 -0.04878598
v -0.04108899 0.14488409 -0.04855597
v -0.03843599 0.14438111 -0.04905897
v -0.03788799 0.14448500 -0.04895496
v -0.03737497 0.14465401 -0.04878598
v -0.03691095 0.14488409 -0.04855597
v -0.03650999 0.14516699 -0.04827296
v -0.04181498 0.14549500 -0.04794496
v -0.04148995 0.14516699 -0.04827296
v -0.03618496 0.14549500 -0.04794496
v -0.04205399 0.14585809 -0.04758197
v -0.03788799 0.14880399 -0.04463601
v -0.03737497 0.14863400 -0.04480499
v -0.03691095 0.14840400 -0.04503500
v -0.04220098 0.14624500 -0.04719501
v -0.03594595 0.14585809 -0.04758197
v -0.03579896 0.14624500 -0.04719501
v -0.04224997 0.14664400 -0.04679596
v -0.03574997 0.14664400 -0.04679596
v -0.03956395 0.14890701 -0.04453200
v -0.03899997 0.14894199 -0.04449796
v -0.03843599 0.14890701 -0.04453200
v -0.04205399 0.14743000 -0.04601001
v -0.03579896 0.14704309 -0.04639697
v -0.03594595 0.14743000 -0.04601001
v -0.04220098 0.14704309 -0.04639697
v -0.04181498 0.14779299 -0.04564696
v -0.03618496 0.14779299 -0.04564696
v -0.03650999 0.14812100 -0.04531800
v -0.04108899 0.14840400 -0.04503500
v -0.04011195 0.14880399 -0.04463601
v -0.04062497 0.14863400 -0.04480499
v -0.04148995 0.14812100 -0.04531800
v -0.03374999 0.23432510 0.04088598
v -0.03379899 0.24179500 0.03421401
v -0.03374999 0.24139600 0.03381502
v -0.03379899 0.23472410 0.04128497
v -0.03394597 0.24218200 0.03460103
v -0.03394597 0.23511100 0.04167199
v -0.03418499 0.24254499 0.03496402
v -0.03418499 0.23547409 0.04203498
v -0.03450995 0.24287400 0.03529202
v -0.03450995 0.23580199 0.04236298
v -0.03491097 0.24315700 0.03557503
v -0.03491097 0.23608600 0.04264599
v -0.03537499 0.24338710 0.03580498
v -0.03537499 0.23631600 0.04287600
v -0.03588795 0.24355599 0.03597402
v -0.03588795 0.23648500 0.04304498
v -0.03643596 0.24366000 0.03607803
v -0.03643596 0.23658800 0.04314899
v -0.03700000 0.24369401 0.03611302
v -0.03700000 0.23662309 0.04318398
v -0.03756397 0.24366000 0.03607803
v -0.03756397 0.23658800 0.04314899
v -0.03811198 0.24355599 0.03597402
v -0.03811198 0.23648500 0.04304498
v -0.03862500 0.24338710 0.03580498
v -0.03862500 0.23631600 0.04287600
v -0.03908896 0.24315700 0.03557503
v -0.03908896 0.23608600 0.04264599
v -0.03948998 0.24287400 0.03529202
v -0.03948998 0.23580199 0.04236298
v -0.03981494 0.24254499 0.03496402
v -0.03981494 0.23547409 0.04203498
v -0.04005396 0.24218200 0.03460103
v -0.04005396 0.23511100 0.04167199
v -0.04020094 0.24179500 0.03421401
v -0.04020094 0.23472410 0.04128497
v -0.04025000 0.24139600 0.03381502
v -0.04025000 0.23432510 0.04088598
v -0.04020094 0.24099700 0.03341501
v -0.04020094 0.23392600 0.04048699
v -0.04005396 0.24061000 0.03302901
v -0.04005396 0.23353910 0.04009997
v -0.03981494 0.24024700 0.03266501
v -0.03981494 0.23317610 0.03973698
v -0.03948998 0.23991901 0.03233700
v -0.03948998 0.23284809 0.03940802
v -0.03908896 0.23963600 0.03205400
v -0.03908896 0.23256510 0.03912502
v -0.03862500 0.23940609 0.03182399
v -0.03862500 0.23233500 0.03889501
v -0.03811198 0.23923700 0.03165501
v -0.03811198 0.23216610 0.03872603
v -0.03756397 0.23913300 0.03155100
v -0.03756397 0.23206210 0.03862202
v -0.03700000 0.23909800 0.03151601
v -0.03700000 0.23202699 0.03858798
v -0.03643596 0.23206210 0.03862202
v -0.03643596 0.23913300 0.03155100
v -0.03588795 0.23216610 0.03872603
v -0.03588795 0.23923700 0.03165501
v -0.03537499 0.23233500 0.03889501
v -0.03537499 0.23940609 0.03182399
v -0.03491097 0.23963600 0.03205400
v -0.03491097 0.23256510 0.03912502
v -0.03450995 0.23991901 0.03233700
v -0.03450995 0.23284809 0.03940802
v -0.03418499 0.23317610 0.03973698
v -0.03418499 0.24024700 0.03266501
v -0.03394597 0.23353910 0.04009997
v -0.03394597 0.24061000 0.03302901
v -0.03379899 0.23392600 0.04048699
v -0.03379899 0.24099700 0.03341501
v -0.03374999 0.23432510 0.04088598
v -0.03374999 0.24139600 0.03381502
v -0.03588795 0.23216610 0.03872603
v -0.03491097 0.23256510 0.03912502
v -0.03537499 0.23233500 0.03889501
v -0.03379899 0.23392600 0.04048699
v -0.03418499 0.23317610 0.03973698
v -0.03450995 0.23284809 0.03940802
v -0.03394597 0.23353910 0.04009997
v -0.03418499 0.23547409 0.04203498
v -0.03379899 0.23472410 0.04128497
v -0.03374999 0.23432510 0.04088598
v -0.03394597 0.23511100 0.04167199
v -0.03491097 0.23608600 0.04264599
v -0.03450995 0.23580199 0.04236298
v -0.03981494 0.23317610 0.03973698
v -0.03908896 0.23256510 0.03912502
v -0.03948998 0.23284809 0.03940802
v -0.03588795 0.23648500 0.04304498
v -0.03537499 0.23631600 0.04287600
v -0.03643596 0.23206210 0.03862202
v -0.03700000 0.23202699 0.03858798
v -0.04025000 0.23432510 0.04088598
v -0.04005396 0.23353910 0.04009997
v -0.04020094 0.23392600 0.04048699
v -0.03811198 0.23648500 0.04304498
v -0.03643596 0.23658800 0.04314899
v -0.03700000 0.23662309 0.04318398
v -0.03756397 0.23658800 0.04314899
v -0.03756397 0.23206210 0.03862202
v -0.03811198 0.23216610 0.03872603
v -0.04005396 0.23511100 0.04167199
v -0.04020094 0.23472410 0.04128497
v -0.03862500 0.23631600 0.04287600
v -0.03862500 0.23233500 0.03889501
v -0.03981494 0.23547409 0.04203498
v -0.03948998 0.23580199 0.04236298
v -0.03908896 0.23608600 0.04264599
v 0.04224997 0.14664400 -0.04679596
v 0.04220098 0.15411399 -0.05346798
v 0.04224997 0.15371500 -0.05386698
v 0.04220098 0.14704309 -0.04639697
v 0.04205399 0.15450101 -0.05308097
v 0.04205399 0.14743000 -0.04601001
v 0.04181498 0.15486400 -0.05271798
v 0.04181498 0.14779299 -0.04564696
v 0.04148995 0.15519200 -0.05238997
v 0.04148995 0.14812100 -0.04531800
v 0.04108899 0.15547600 -0.05210596
v 0.04108899 0.14840400 -0.04503500
v 0.04062497 0.15570500 -0.05187600
v 0.04062497 0.14863400 -0.04480499
v 0.04011195 0.15587500 -0.05170696
v 0.04011195 0.14880399 -0.04463601
v 0.03956395 0.15597799 -0.05160397
v 0.03956395 0.14890701 -0.04453200
v 0.03899997 0.15601300 -0.05156898
v 0.03899997 0.14894199 -0.04449796
v 0.03843599 0.15597799 -0.05160397
v 0.03843599 0.14890701 -0.04453200
v 0.03788799 0.15587500 -0.05170696
v 0.03788799 0.14880399 -0.04463601
v 0.03737497 0.15570500 -0.05187600
v 0.03737497 0.14863400 -0.04480499
v 0.03691095 0.15547600 -0.05210596
v 0.03691095 0.14840400 -0.04503500
v 0.03650999 0.15519200 -0.05238997
v 0.03650999 0.14812100 -0.04531800
v 0.03618496 0.14779299 -0.04564696
v 0.03618496 0.15486400 -0.05271798
v 0.03594595 0.15450101 -0.05308097
v 0.03594595 0.14743000 -0.04601001
v 0.03579896 0.15411399 -0.05346798
v 0.03579896 0.14704309 -0.04639697
v 0.03574997 0.14664400 -0.04679596
v 0.03574997 0.15371500 -0.05386698
v 0.03579896 0.15331601 -0.05426597
v 0.03579896 0.14624500 -0.04719501
v 0.03594595 0.14585809 -0.04758197
v 0.03594595 0.15292899 -0.05465298
v 0.03618496 0.15256600 -0.05501598
v 0.03618496 0.14549500 -0.04794496
v 0.03650999 0.14516699 -0.04827296
v 0.03650999 0.15223800 -0.05534398
v 0.03691095 0.15195499 -0.05562698
v 0.03691095 0.14488409 -0.04855597
v 0.03737497 0.14465401 -0.04878598
v 0.03737497 0.15172499 -0.05585700
v 0.03788799 0.15155600 -0.05602598
v 0.03788799 0.14448500 -0.04895496
v 0.03843599 0.14438111 -0.04905897
v 0.03843599 0.15145200 -0.05612999
v 0.03899997 0.14434600 -0.04909402
v 0.03899997 0.15141700 -0.05616497
v 0.03956395 0.15145200 -0.05612999
v 0.03956395 0.14438111 -0.04905897
v 0.04011195 0.14448500 -0.04895496
v 0.04011195 0.15155600 -0.05602598
v 0.04062497 0.15172499 -0.05585700
v 0.04062497 0.14465401 -0.04878598
v 0.04108899 0.14488409 -0.04855597
v 0.04108899 0.15195499 -0.05562698
v 0.04148995 0.15223800 -0.05534398
v 0.04148995 0.14516699 -0.04827296
v 0.04181498 0.15256600 -0.05501598
v 0.04181498 0.14549500 -0.04794496
v 0.04205399 0.15292899 -0.05465298
v 0.04205399 0.14585809 -0.04758197
v 0.04220098 0.14624500 -0.04719501
v 0.04220098 0.15331601 -0.05426597
v 0.04224997 0.14664400 -0.04679596
v 0.04224997 0.15371500 -0.05386698
v 0.04011195 0.14448500 -0.04895496
v 0.04108899 0.14488409 -0.04855597
v 0.04062497 0.14465401 -0.04878598
v 0.04181498 0.14779299 -0.04564696
v 0.04220098 0.14704309 -0.04639697
v 0.04224997 0.14664400 -0.04679596
v 0.04205399 0.14743000 -0.04601001
v 0.04181498 0.14549500 -0.04794496
v 0.04148995 0.14516699 -0.04827296
v 0.04205399 0.14585809 -0.04758197
v 0.04220098 0.14624500 -0.04719501
v 0.04108899 0.14840400 -0.04503500
v 0.04148995 0.14812100 -0.04531800
v 0.04062497 0.14863400 -0.04480499
v 0.03618496 0.14549500 -0.04794496
v 0.03691095 0.14488409 -0.04855597
v 0.03650999 0.14516699 -0.04827296
v 0.03956395 0.14890701 -0.04453200
v 0.04011195 0.14880399 -0.04463601
v 0.03579896 0.14624500 -0.04719501
v 0.03594595 0.14585809 -0.04758197
v 0.03574997 0.14664400 -0.04679596
v 0.03843599 0.14890701 -0.04453200
v 0.03899997 0.14894199 -0.04449796
v 0.03843599 0.14438111 -0.04905897
v 0.03788799 0.14448500 -0.04895496
v 0.03899997 0.14434600 -0.04909402
v 0.03956395 0.14438111 -0.04905897
v 0.03594595 0.14743000 -0.04601001
v 0.03579896 0.14704309 -0.04639697
v 0.03737497 0.14863400 -0.04480499
v 0.03788799 0.14880399 -0.04463601
v 0.03737497 0.14465401 -0.04878598
v 0.03650999 0.14812100 -0.04531800
v 0.03691095 0.14840400 -0.04503500
v 0.03618496 0.14779299 -0.04564696
v 0.04020094 0.23472410 0.04128497
v 0.04025000 0.24139600 0.03381502
v 0.04025000 0.23432510 0.04088598
v 0.04020094 0.24179500 0.03421401
v 0.04005396 0.23511100 0.04167199
v 0.04005396 0.24218200 0.03460103
v 0.03981494 0.23547409 0.04203498
v 0.03981494 0.24254499 0.03496402
v 0.03948998 0.23580199 0.04236298
v 0.03948998 0.24287400 0.03529202
v 0.03908896 0.23608600 0.04264599
v 0.03908896 0.24315700 0.03557503
v 0.03862500 0.23631600 0.04287600
v 0.03862500 0.24338710 0.03580498
v 0.03811198 0.23648500 0.04304498
v 0.03811198 0.24355599 0.03597402
v 0.03756397 0.23658800 0.04314899
v 0.03756397 0.24366000 0.03607803
v 0.03700000 0.23662309 0.04318398
v 0.03700000 0.24369401 0.03611302
v 0.03643596 0.23658800 0.04314899
v 0.03643596 0.24366000 0.03607803
v 0.03588795 0.23648500 0.04304498
v 0.03588795 0.24355599 0.03597402
v 0.03537499 0.23631600 0.04287600
v 0.03537499 0.24338710 0.03580498
v 0.03491097 0.23608600 0.04264599
v 0.03491097 0.24315700 0.03557503
v 0.03450995 0.23580199 0.04236298
v 0.03450995 0.24287400 0.03529202
v 0.03418499 0.23547409 0.04203498
v 0.03418499 0.24254499 0.03496402
v 0.03394597 0.23511100 0.04167199
v 0.03394597 0.24218200 0.03460103
v 0.03379899 0.23472410 0.04128497
v 0.03379899 0.24179500 0.03421401
v 0.03374999 0.23432510 0.04088598
v 0.03374999 0.24139600 0.03381502
v 0.03379899 0.23392600 0.04048699
v 0.03379899 0.24099700 0.03341501
v 0.03394597 0.23353910 0.04009997
v 0.03394597 0.24061000 0.03302901
v 0.03418499 0.23317610 0.03973698
v 0.03418499 0.24024700 0.03266501
v 0.03450995 0.23284809 0.03940802
v 0.03450995 0.23991901 0.03233700
v 0.03491097 0.23256510 0.03912502
v 0.03491097 0.23963600 0.03205400
v 0.03537499 0.23233500 0.03889501
v 0.03537499 0.23940609 0.03182399
v 0.03588795 0.23216610 0.03872603
v 0.03588795 0.23923700 0.03165501
v 0.03643596 0.23206210 0.03862202
v 0.03643596 0.23913300 0.03155100
v 0.03700000 0.23202699 0.03858798
v 0.03700000 0.23909800 0.03151601
v 0.03756397 0.23206210 0.03862202
v 0.03756397 0.23913300 0.03155100
v 0.03811198 0.23216610 0.03872603
v 0.03811198 0.23923700 0.03165501
v 0.03862500 0.23233500 0.03889501
v 0.03862500 0.23940609 0.03182399
v 0.03908896 0.23256510 0.03912502
v 0.03908896 0.23963600 0.03205400
v 0.03948998 0.23284809 0.03940802
v 0.03948998 0.23991901 0.03233700
v 0.03981494 0.23317610 0.03973698
v 0.03981494 0.24024700 0.03266501
v 0.04005396 0.23353910 0.04009997
v 0.04005396 0.24061000 0.03302901
v 0.04020094 0.23392600 0.04048699
v 0.04020094 0.24099700 0.03341501
v 0.04025000 0.23432510 0.04088598
v 0.04025000 0.24139600 0.03381502
v 0.03811198 0.23216610 0.03872603
v 0.03908896 0.23256510 0.03912502
v 0.03862500 0.23233500 0.03889501
v 0.03643596 0.23206210 0.03862202
v 0.03756397 0.23206210 0.03862202
v 0.03700000 0.23202699 0.03858798
v 0.03537499 0.23233500 0.03889501
v 0.03588795 0.23216610 0.03872603
v 0.03491097 0.23256510 0.03912502
v 0.03948998 0.23284809 0.03940802
v 0.03908896 0.23608600 0.04264599
v 0.03948998 0.23580199 0.04236298
v 0.03981494 0.23547409 0.04203498
v 0.03418499 0.23317610 0.03973698
v 0.03450995 0.23284809 0.03940802
v 0.03981494 0.23317610 0.03973698
v 0.03394597 0.23353910 0.04009997
v 0.04005396 0.23353910 0.04009997
v 0.03379899 0.23392600 0.04048699
v 0.03374999 0.23432510 0.04088598
v 0.04020094 0.23392600 0.04048699
v 0.04025000 0.23432510 0.04088598
v 0.03643596 0.23658800 0.04314899
v 0.03700000 0.23662309 0.04318398
v 0.03756397 0.23658800 0.04314899
v 0.03394597 0.23511100 0.04167199
v 0.04020094 0.23472410 0.04128497
v 0.04005396 0.23511100 0.04167199
v 0.03379899 0.23472410 0.04128497
v 0.03588795 0.23648500 0.04304498
v 0.03811198 0.23648500 0.04304498
v 0.03418499 0.23547409 0.04203498
v 0.03491097 0.23608600 0.04264599
v 0.03862500 0.23631600 0.04287600
v 0.03537499 0.23631600 0.04287600
v 0.03450995 0.23580199 0.04236298
v -0.04148995 0.15223800 -0.05534398
v -0.04397594 0.14559710 -0.06198501
v -0.05069798 0.15096299 -0.05661898
v -0.04108899 0.15195499 -0.05562698
v -0.04062497 0.15172499 -0.05585700
v -0.04181498 0.15256600 -0.05501598
v -0.04011195 0.15155600 -0.05602598
v -0.04205399 0.15292899 -0.05465298
v -0.03956395 0.15145200 -0.05612999
v -0.04220098 0.15331601 -0.05426597
v -0.03899997 0.15141700 -0.05616497
v -0.04224997 0.15371500 -0.05386698
v -0.03843599 0.15145200 -0.05612999
v -0.03668999 0.14102501 -0.06655699
v -0.04220098 0.15411399 -0.05346798
v -0.03788799 0.15155600 -0.05602598
v -0.04205399 0.15450101 -0.05308097
v -0.05677098 0.15705401 -0.05052798
v -0.03737497 0.15172499 -0.05585700
v -0.04181498 0.15486400 -0.05271798
v -0.03691095 0.15195499 -0.05562698
v -0.04148995 0.15519200 -0.05238997
v -0.03650999 0.15223800 -0.05534398
v -0.02893400 0.13730501 -0.07027697
v -0.04108899 0.15547600 -0.05210596
v -0.03618496 0.15256600 -0.05501598
v -0.04062497 0.15570500 -0.05187600
v -0.06211698 0.16379200 -0.04378998
v -0.03594595 0.15292899 -0.05465298
v -0.02080798 0.13448600 -0.07309597
v -0.04011195 0.15587500 -0.05170696
v -0.03579896 0.15331601 -0.05426597
v -0.01241594 0.13260309 -0.07497900
v -0.03956395 0.15597799 -0.05160397
v -0.03574997 0.15371500 -0.05386698
v -0.03899997 0.15601300 -0.05156898
v -0.06799596 0.17363299 -0.03394901
v -0.03843599 0.15597799 -0.05160397
v -0.00386399 0.13168000 -0.07590198
v -0.03579896 0.15411399 -0.05346798
v -0.07112699 0.18080610 -0.02677601
v -0.03788799 0.15587500 -0.05170696
v -0.07350397 0.18826300 -0.01931899
v -0.07457798 0.19443201 -0.01314997
v -0.03737497 0.15570500 -0.05187600
v 0.03650999 0.15223800 -0.05534398
v 0.03691095 0.15195499 -0.05562698
v 0.03245496 0.13886011 -0.06872200
v 0.03618496 0.15256600 -0.05501598
v 0.03737497 0.15172499 -0.05585700
v 0.04171496 0.14405310 -0.06352901
v 0.03788799 0.15155600 -0.05602598
v 0.03594595 0.15292899 -0.05465298
v 0.02256298 0.13500801 -0.07257300
v 0.03843599 0.15145200 -0.05612999
v 0.03579896 0.15331601 -0.05426597
v 0.01327794 0.13275111 -0.07483100
v 0.03899997 0.15141700 -0.05616497
v 0.03574997 0.15371500 -0.05386698
v 0.00473696 0.13173001 -0.07585197
v 0.03956395 0.15145200 -0.05612999
v 0.03579896 0.15411399 -0.05346798
v 0.04011195 0.15155600 -0.05602598
v 0.03594595 0.15450101 -0.05308097
v -0.03594595 0.15450101 -0.05308097
v -0.03618496 0.15486400 -0.05271798
v 0.04062497 0.15172499 -0.05585700
v 0.03618496 0.15486400 -0.05271798
v 0.04108899 0.15195499 -0.05562698
v 0.03650999 0.15519200 -0.05238997
v -0.03650999 0.15519200 -0.05238997
v -0.03691095 0.15547600 -0.05210596
v 0.03691095 0.15547600 -0.05210596
v 0.03737497 0.15570500 -0.05187600
v 0.05104094 0.15127110 -0.05630999
v 0.04224997 0.15371500 -0.05386698
v 0.04220098 0.15411399 -0.05346798
v 0.04205399 0.15450101 -0.05308097
v 0.04181498 0.15486400 -0.05271798
v 0.04148995 0.15223800 -0.05534398
v 0.04181498 0.15256600 -0.05501598
v 0.04205399 0.15292899 -0.05465298
v 0.04220098 0.15331601 -0.05426597
v 0.05995297 0.16087300 -0.04670798
v 0.04148995 0.15519200 -0.05238997
v 0.04108899 0.15547600 -0.05210596
v 0.04062497 0.15570500 -0.05187600
v 0.04011195 0.15587500 -0.05170696
v 0.03956395 0.15597799 -0.05160397
v -0.03948998 0.23991901 0.03233700
v -0.03908896 0.23963600 0.03205400
v -0.05995297 0.23420811 0.02662700
v -0.03862500 0.23940609 0.03182399
v -0.03981494 0.24024700 0.03266501
v -0.05104094 0.24381000 0.03622901
v -0.04005396 0.24061000 0.03302901
v -0.03811198 0.23923700 0.03165501
v -0.03756397 0.23913300 0.03155100
v -0.06775599 0.22192600 0.01434403
v -0.04020094 0.24099700 0.03341501
v -0.04025000 0.24139600 0.03381502
v -0.03700000 0.23909800 0.03151601
v -0.03643596 0.23913300 0.03155100
v -0.07350397 0.20681900 -0.00076300
v -0.04020094 0.24179500 0.03421401
v -0.03588795 0.23923700 0.03165501
v -0.07457798 0.20065001 -0.00693202
v -0.04005396 0.24218200 0.03460103
v -0.03537499 0.23940609 0.03182399
v -0.03981494 0.24254499 0.03496402
v -0.03948998 0.24287400 0.03529202
v 0.06775599 0.17315599 -0.03442597
v 0.03899997 0.15601300 -0.05156898
v 0.03843599 0.15597799 -0.05160397
v 0.03788799 0.15587500 -0.05170696
v -0.04171496 0.25102910 0.04344701
v -0.03588795 0.24355599 0.03597402
v -0.03643596 0.24366000 0.03607803
v -0.03700000 0.24369401 0.03611302
v -0.03756397 0.24366000 0.03607803
v -0.03811198 0.24355599 0.03597402
v -0.03862500 0.24338710 0.03580498
v -0.03908896 0.24315700 0.03557503
v -0.03245496 0.25622210 0.04864001
v -0.03418499 0.24254499 0.03496402
v -0.03450995 0.24287400 0.03529202
v -0.03491097 0.24315700 0.03557503
v -0.03537499 0.24338710 0.03580498
v 0.07350397 0.18826300 -0.01931899
v -0.02256298 0.26007399 0.05249202
v -0.03379899 0.24179500 0.03421401
v -0.03394597 0.24218200 0.03460103
v 0.07457798 0.19443201 -0.01314997
v -0.01327794 0.26233110 0.05474901
v -0.03374999 0.24139600 0.03381502
v -0.00473696 0.26335201 0.05576997
v 0.03491097 0.23963600 0.03205400
v -0.03491097 0.23963600 0.03205400
v -0.03450995 0.23991901 0.03233700
v 0.03450995 0.23991901 0.03233700
v 0.03418499 0.24024700 0.03266501
v -0.03418499 0.24024700 0.03266501
v 0.03537499 0.23940609 0.03182399
v 0.03394597 0.24061000 0.03302901
v -0.03394597 0.24061000 0.03302901
v 0.03588795 0.23923700 0.03165501
v 0.07350397 0.20681900 -0.00076300
v 0.07457798 0.20065001 -0.00693202
v 0.07112699 0.21427600 0.00669402
v 0.03379899 0.24099700 0.03341501
v -0.03379899 0.24099700 0.03341501
v 0.03643596 0.23913300 0.03155100
v 0.03374999 0.24139600 0.03381502
v 0.00386399 0.26340210 0.05581998
v 0.06799596 0.22144900 0.01386702
v 0.03700000 0.23909800 0.03151601
v 0.01241594 0.26247910 0.05489701
v 0.03379899 0.24179500 0.03421401
v 0.06211698 0.23129010 0.02370798
v 0.03756397 0.23913300 0.03155100
v 0.03811198 0.23923700 0.03165501
v 0.03862500 0.23940609 0.03182399
v 0.02080798 0.26059601 0.05301398
v 0.03394597 0.24218200 0.03460103
v 0.05677098 0.23802809 0.03044599
v 0.03908896 0.23963600 0.03205400
v 0.03948998 0.23991901 0.03233700
v 0.03981494 0.24024700 0.03266501
v 0.04005396 0.24061000 0.03302901
v 0.02893400 0.25777701 0.05019497
v 0.03491097 0.24315700 0.03557503
v 0.03450995 0.24287400 0.03529202
v 0.03418499 0.24254499 0.03496402
v 0.05069798 0.24411909 0.03653699
v 0.04025000 0.24139600 0.03381502
v 0.04020094 0.24179500 0.03421401
v 0.04005396 0.24218200 0.03460103
v 0.03981494 0.24254499 0.03496402
v 0.04020094 0.24099700 0.03341501
v 0.03668999 0.25405711 0.04647499
v 0.03700000 0.24369401 0.03611302
v 0.03643596 0.24366000 0.03607803
v 0.03588795 0.24355599 0.03597402
v 0.03537499 0.24338710 0.03580498
v 0.04397594 0.24948500 0.04190301
v 0.03948998 0.24287400 0.03529202
v 0.03908896 0.24315700 0.03557503
v 0.03862500 0.24338710 0.03580498
v 0.03811198 0.24355599 0.03597402
v 0.03756397 0.24366000 0.03607803
v 0.06538498 0.14974999 0.09100002
v 0.04852998 0.12966400 0.09100002
v 0.05783599 0.13897000 0.09100002
v 0.02582299 0.11655300 0.09100002
v 0.03774994 0.12211500 0.09100002
v 0.00000000 0.11200010 0.09100002
v 0.01310998 0.11314700 0.09100002
v 0.07549995 0.18750000 0.09100002
v 0.07094699 0.16167700 0.09100002
v 0.07435297 0.17439000 0.09100002
v -0.02582299 0.11655300 0.09100002
v -0.01310998 0.11314700 0.09100002
v 0.07094699 0.21332300 0.09100002
v 0.07435297 0.20061010 0.09100002
v -0.03774994 0.12211500 0.09100002
v 0.05783599 0.23603010 0.09100002
v 0.06538498 0.22525001 0.09100002
v -0.05783599 0.13897000 0.09100002
v -0.04852998 0.12966400 0.09100002
v 0.03774994 0.25288510 0.09100002
v 0.04852998 0.24533600 0.09100002
v -0.07094699 0.16167700 0.09100002
v -0.06538498 0.14974999 0.09100002
v -0.01310998 0.26185301 0.09100002
v 0.01310998 0.26185301 0.09100002
v 0.00000000 0.26300010 0.09100002
v 0.02582299 0.25844711 0.09100002
v -0.07094699 0.21332300 0.09100002
v -0.07435297 0.20061010 0.09100002
v -0.07549995 0.18750000 0.09100002
v -0.07435297 0.17439000 0.09100002
v -0.05783599 0.23603010 0.09100002
v -0.06538498 0.22525001 0.09100002
v -0.04852998 0.24533600 0.09100002
v -0.02582299 0.25844711 0.09100002
v -0.03774994 0.25288510 0.09100002
v -0.07485496 0.20064300 0.09049999
v -0.07599997 0.18750000 0.09049999
v -0.07549995 0.18750000 0.09100002
v -0.07435297 0.20061010 0.09100002
v -0.07145500 0.21338899 0.09049999
v -0.07094699 0.21332300 0.09100002
v -0.06590098 0.22535610 0.09049999
v -0.06538498 0.22525001 0.09100002
v -0.05836194 0.23618101 0.09049999
v -0.05783599 0.23603010 0.09100002
v -0.04906398 0.24553999 0.09049999
v -0.04852998 0.24533600 0.09100002
v -0.03828799 0.25315109 0.09049999
v -0.03774994 0.25288510 0.09100002
v -0.02635896 0.25878310 0.09049999
v -0.02582299 0.25844711 0.09100002
v -0.01363497 0.26226711 0.09049999
v -0.01310998 0.26185301 0.09100002
v 0.00000000 0.26300010 0.09100002
v -0.00050000 0.26310000 0.09089803
v -0.00016700 0.26310000 0.09090000
v -0.00050000 0.26349810 0.09049999
v 0.00016700 0.26310000 0.09090000
v 0.00050000 0.26310000 0.09089803
v 0.01310998 0.26185301 0.09100002
v 0.00050000 0.26349810 0.09049999
v 0.01363497 0.26226711 0.09049999
v 0.02582299 0.25844711 0.09100002
v 0.02635896 0.25878310 0.09049999
v 0.03774994 0.25288510 0.09100002
v 0.03828799 0.25315109 0.09049999
v 0.04852998 0.24533600 0.09100002
v 0.04906398 0.24553999 0.09049999
v 0.05783599 0.23603010 0.09100002
v 0.05836194 0.23618101 0.09049999
v 0.06538498 0.22525001 0.09100002
v 0.06590098 0.22535610 0.09049999
v 0.07094699 0.21332300 0.09100002
v 0.07145500 0.21338899 0.09049999
v 0.07435297 0.20061010 0.09100002
v 0.07485496 0.20064300 0.09049999
v 0.07549995 0.18750000 0.09100002
v 0.07599997 0.18750000 0.09049999
v 0.07485496 0.17435700 0.09049999
v 0.07435297 0.17439000 0.09100002
v 0.07145500 0.16161101 0.09049999
v 0.07094699 0.16167700 0.09100002
v 0.06590098 0.14964400 0.09049999
v 0.06538498 0.14974999 0.09100002
v 0.05836194 0.13881899 0.09049999
v 0.05783599 0.13897000 0.09100002
v 0.04906398 0.12946001 0.09049999
v 0.04852998 0.12966400 0.09100002
v 0.03828799 0.12184900 0.09049999
v 0.03774994 0.12211500 0.09100002
v 0.02635896 0.11621700 0.09049999
v 0.02582299 0.11655300 0.09100002
v 0.01363497 0.11273300 0.09049999
v 0.01310998 0.11314700 0.09100002
v 0.00000000 0.11200010 0.09100002
v 0.00050000 0.11190000 0.09089803
v 0.00016700 0.11190000 0.09090000
v 0.00050000 0.11150210 0.09049999
v -0.00016700 0.11190000 0.09090000
v -0.00050000 0.11190000 0.09089803
v -0.01310998 0.11314700 0.09100002
v -0.00050000 0.11150210 0.09049999
v -0.01363497 0.11273300 0.09049999
v -0.02582299 0.11655300 0.09100002
v -0.02635896 0.11621700 0.09049999
v -0.03774994 0.12211500 0.09100002
v -0.03828799 0.12184900 0.09049999
v -0.04852998 0.12966400 0.09100002
v -0.04906398 0.12946001 0.09049999
v -0.05783599 0.13897000 0.09100002
v -0.05836194 0.13881899 0.09049999
v -0.06538498 0.14974999 0.09100002
v -0.06590098 0.14964400 0.09049999
v -0.07094699 0.16167700 0.09100002
v -0.07145500 0.16161101 0.09049999
v -0.07435297 0.17439000 0.09100002
v -0.07485496 0.17435700 0.09049999
v -0.07549995 0.18750000 0.09100002
v -0.07599997 0.18750000 0.09049999
v 0.00050000 0.11150210 0.09049999
v 0.00050000 0.11190000 0.08799999
v 0.00050000 0.11150210 0.08799999
v 0.00050000 0.11190000 0.09089803
v 0.00050000 0.11190000 0.08799999
v 0.00050000 0.11190000 0.09089803
v 0.00016700 0.11190000 0.09090000
v 0.00041600 0.11190000 0.08772200
v 0.00049000 0.11190000 0.08790302
v 0.00046200 0.11190000 0.08780902
v -0.00050000 0.11190000 0.08799999
v 0.00035400 0.11190000 0.08764702
v -0.00016700 0.11190000 0.09090000
v -0.00050000 0.11190000 0.09089803
v 0.00000000 0.11190000 0.08750003
v 0.00027800 0.11190000 0.08758401
v 0.00019100 0.11190000 0.08753800
v 0.00009800 0.11190000 0.08750998
v -0.00046200 0.11190000 0.08780902
v -0.00049000 0.11190000 0.08790302
v -0.00019100 0.11190000 0.08753800
v -0.00009800 0.11190000 0.08750998
v -0.00027800 0.11190000 0.08758401
v -0.00035400 0.11190000 0.08764702
v -0.00041600 0.11190000 0.08772200
v -0.00050000 0.11190000 0.08799999
v -0.00050000 0.11190000 0.09089803
v -0.00050000 0.11150210 0.09049999
v -0.00050000 0.11150210 0.08799999
v 0.07599997 0.18750000 0.08170002
v 0.07599997 0.18750000 -0.00000000
v 0.07550495 0.19616300 -0.00034201
v 0.07485496 0.20064300 0.09049999
v 0.07599997 0.18750000 0.09049999
v 0.07469397 0.20152700 -0.00055397
v 0.07350397 0.20681900 -0.00076300
v 0.07145500 0.21338899 0.09049999
v 0.07112699 0.21427600 0.00669402
v 0.06799596 0.22144900 0.01386702
v 0.06590098 0.22535610 0.09049999
v 0.06211698 0.23129010 0.02370798
v 0.05836194 0.23618101 0.09049999
v 0.05677098 0.23802809 0.03044599
v 0.05069798 0.24411909 0.03653699
v 0.04906398 0.24553999 0.09049999
v 0.04397594 0.24948500 0.04190301
v 0.03828799 0.25315109 0.09049999
v 0.03668999 0.25405711 0.04647499
v 0.02893400 0.25777701 0.05019497
v 0.02635896 0.25878310 0.09049999
v 0.02080798 0.26059601 0.05301398
v 0.01363497 0.26226711 0.09049999
v 0.01241594 0.26247910 0.05489701
v 0.00386399 0.26340210 0.05581998
v 0.00050000 0.26349810 0.08799999
v 0.00046500 0.26349899 0.08781599
v 0.00036400 0.26349899 0.08765798
v 0.00021200 0.26350001 0.08754801
v 0.00010600 0.26350001 0.08751100
v -0.00003000 0.26350001 0.08750098
v -0.00473696 0.26335201 0.05576997
v -0.00018800 0.26350001 0.08753699
v 0.00050000 0.26349810 0.09049999
v -0.00035000 0.26349899 0.08764302
v -0.00041800 0.26349899 0.08772599
v -0.00047000 0.26349899 0.08782899
v -0.00050000 0.26349810 0.08799999
v -0.01363497 0.26226711 0.09049999
v -0.00050000 0.26349810 0.09049999
v -0.01327794 0.26233110 0.05474901
v -0.02256298 0.26007399 0.05249202
v -0.02635896 0.25878310 0.09049999
v -0.03245496 0.25622210 0.04864001
v -0.03828799 0.25315109 0.09049999
v -0.04171496 0.25102910 0.04344701
v -0.04906398 0.24553999 0.09049999
v -0.05104094 0.24381000 0.03622901
v -0.05836194 0.23618101 0.09049999
v -0.05995297 0.23420811 0.02662700
v -0.06590098 0.22535610 0.09049999
v -0.06775599 0.22192600 0.01434403
v -0.07145500 0.21338899 0.09049999
v -0.07350397 0.20681900 -0.00076300
v -0.07485496 0.20064300 0.09049999
v -0.07522696 0.19831499 -0.00042701
v -0.07599997 0.18750000 0.08170002
v -0.07580596 0.19292110 -0.00021398
v -0.07599997 0.18750000 -0.00000000
v -0.07599997 0.18750000 0.09049999
v -0.07526201 0.17693600 0.08230799
v -0.07485496 0.17435700 0.09049999
v -0.07338696 0.16774410 0.08282399
v -0.07145500 0.16161101 0.09049999
v -0.07084298 0.15998299 0.08324801
v -0.06710398 0.15181801 0.08367502
v -0.06590098 0.14964400 0.09049999
v -0.06224697 0.14389610 0.08406800
v -0.05836194 0.13881899 0.09049999
v -0.05654996 0.13672499 0.08440399
v -0.04906398 0.12946001 0.09049999
v -0.05021798 0.13045400 0.08468198
v -0.04316896 0.12495100 0.08491301
v -0.03828799 0.12184900 0.09049999
v -0.03534400 0.12021800 0.08510202
v -0.02635896 0.11621700 0.09049999
v -0.02692300 0.11642800 0.08524698
v -0.01796400 0.11365400 0.08535003
v -0.01363497 0.11273300 0.09049999
v -0.00858295 0.11198610 0.08541101
v -0.00050000 0.11150210 0.08799999
v -0.00046500 0.11150100 0.08781599
v -0.00036400 0.11150100 0.08765798
v -0.00050000 0.11150210 0.09049999
v 0.00101894 0.11150700 0.08542799
v 0.00035000 0.11150100 0.08764302
v 0.00018800 0.11150000 0.08753699
v 0.00003000 0.11150000 0.08750098
v -0.00010600 0.11150000 0.08751100
v -0.00021200 0.11150000 0.08754801
v 0.00041800 0.11150100 0.08772599
v 0.00047000 0.11150100 0.08782899
v 0.00050000 0.11150210 0.08799999
v 0.00050000 0.11150210 0.09049999
v 0.01055699 0.11223700 0.08540201
v 0.01363497 0.11273300 0.09049999
v 0.01981395 0.11412810 0.08533298
v 0.02635896 0.11621700 0.09049999
v 0.02871495 0.11713400 0.08521997
v 0.03828799 0.12184900 0.09049999
v 0.03700995 0.12111900 0.08506703
v 0.04464995 0.12599900 0.08486998
v 0.04906398 0.12946001 0.09049999
v 0.05154496 0.13165110 0.08463001
v 0.05836194 0.13881899 0.09049999
v 0.05778497 0.13813400 0.08434003
v 0.06330996 0.14545409 0.08399200
v 0.06590098 0.14964400 0.09049999
v 0.06797999 0.15351900 0.08358800
v 0.07145500 0.16161101 0.09049999
v 0.07139295 0.16144100 0.08316999
v 0.07384198 0.16951901 0.08272498
v 0.07485496 0.17435700 0.09049999
v 0.07539898 0.17796400 0.08224999
v 0.07599997 0.18750000 0.09049999
v 0.07599997 0.18750000 0.08170002
v -0.07484900 0.09950006 0.01317900
v -0.07599997 0.09950006 -0.00000000
v -0.07549995 0.09900003 -0.00000000
v -0.07435297 0.09900003 0.01310998
v -0.07142895 0.09950006 0.02595901
v -0.07094699 0.09900003 0.02582299
v -0.06584596 0.09950006 0.03795200
v -0.06538498 0.09900003 0.03775000
v -0.05826699 0.09950006 0.04879498
v -0.05783599 0.09900003 0.04852998
v -0.04892295 0.09950006 0.05816000
v -0.04852998 0.09900003 0.05783599
v -0.03809595 0.09950006 0.06576198
v -0.03774994 0.09900003 0.06538498
v -0.02611500 0.09950006 0.07137203
v -0.02582299 0.09900003 0.07094699
v -0.01334297 0.09950006 0.07481902
v -0.01310998 0.09900003 0.07435297
v -0.00016700 0.09950006 0.07600003
v 0.00000000 0.09900003 0.07550001
v 0.01301497 0.09950006 0.07487702
v 0.01310998 0.09900003 0.07435297
v 0.02580195 0.09950006 0.07148599
v 0.02582299 0.09900003 0.07094699
v 0.03780698 0.09950006 0.06592899
v 0.03774994 0.09900003 0.06538498
v 0.04866695 0.09950006 0.05837398
v 0.04852998 0.09900003 0.05783599
v 0.05805200 0.09950006 0.04905003
v 0.05783599 0.09900003 0.04852998
v 0.06567895 0.09950006 0.03824001
v 0.06538498 0.09900003 0.03775000
v 0.07131499 0.09950006 0.02627199
v 0.07094699 0.09900003 0.02582299
v 0.07479000 0.09950006 0.01350700
v 0.07435297 0.09900003 0.01310998
v 0.07599896 0.09950006 0.00033301
v 0.07549995 0.09900003 -0.00000000
v 0.07490599 0.09950006 -0.01285099
v 0.07435297 0.09900003 -0.01310998
v 0.07154196 0.09950006 -0.02564501
v 0.07094699 0.09900003 -0.02582299
v 0.06601196 0.09950006 -0.03766298
v 0.06538498 0.09900003 -0.03775000
v 0.05847996 0.09950006 -0.04853898
v 0.05783599 0.09900003 -0.04852998
v 0.04917699 0.09950006 -0.05794501
v 0.04852998 0.09900003 -0.05783599
v 0.03838396 0.09950006 -0.06559497
v 0.03774994 0.09900003 -0.06538498
v 0.02642798 0.09950006 -0.07125699
v 0.02582299 0.09900003 -0.07094699
v 0.01367098 0.09950006 -0.07476001
v 0.01310998 0.09900003 -0.07435297
v 0.00000000 0.09900003 -0.07550001
v 0.00050000 0.09920001 -0.07569801
v 0.00016700 0.09919905 -0.07569801
v 0.00050000 0.09950006 -0.07599800
v -0.00016700 0.09919905 -0.07569801
v -0.00050000 0.09920001 -0.07569801
v -0.01310998 0.09900003 -0.07435297
v -0.00050000 0.09950006 -0.07599800
v -0.01363497 0.09950006 -0.07476699
v -0.02582299 0.09900003 -0.07094699
v -0.02635896 0.09950006 -0.07128298
v -0.03774994 0.09900003 -0.06538498
v -0.03828799 0.09950006 -0.06565099
v -0.04852998 0.09900003 -0.05783599
v -0.04906398 0.09950006 -0.05803996
v -0.05783599 0.09900003 -0.04852998
v -0.05836194 0.09950006 -0.04868102
v -0.06538498 0.09900003 -0.03775000
v -0.06590098 0.09950006 -0.03785598
v -0.07094699 0.09900003 -0.02582299
v -0.07145500 0.09950006 -0.02588897
v -0.07435297 0.09900003 -0.01310998
v -0.07485496 0.09950006 -0.01314300
v -0.07549995 0.09900003 -0.00000000
v -0.07599997 0.09950006 -0.00000000
v 0.00050000 0.10200000 -0.07569801
v 0.00050000 0.09920001 -0.07569801
v 0.00016700 0.09919905 -0.07569801
v 0.00035400 0.10235410 -0.07569801
v 0.00041600 0.10227810 -0.07569801
v 0.00046200 0.10219100 -0.07569801
v 0.00049000 0.10209810 -0.07569801
v -0.00050000 0.10200000 -0.07569801
v 0.00027800 0.10241600 -0.07569801
v -0.00016700 0.09919905 -0.07569801
v -0.00050000 0.09920001 -0.07569801
v -0.00046200 0.10219100 -0.07569801
v -0.00049000 0.10209810 -0.07569801
v -0.00027800 0.10241600 -0.07569801
v -0.00019100 0.10246210 -0.07569801
v -0.00009800 0.10249000 -0.07569801
v 0.00000000 0.10250000 -0.07569801
v 0.00009800 0.10249000 -0.07569801
v 0.00019100 0.10246210 -0.07569801
v -0.00041600 0.10227810 -0.07569801
v -0.00035400 0.10235410 -0.07569801
v -0.00050000 0.09950006 -0.07599800
v -0.00050000 0.10200000 -0.07569801
v -0.00050000 0.09920001 -0.07569801
v -0.00050000 0.10200000 -0.07599800
v 0.04628098 0.09900003 -0.05515497
v 0.04852998 0.09900003 -0.05783599
v 0.05783599 0.09900003 -0.04852998
v 0.05515497 0.09900003 -0.04628098
v 0.06538498 0.09900003 -0.03775000
v 0.03599995 0.09900003 -0.06235396
v 0.03774994 0.09900003 -0.06538498
v 0.06235396 0.09900003 -0.03600001
v 0.07094699 0.09900003 -0.02582299
v 0.02462500 0.09900003 -0.06765800
v 0.02582299 0.09900003 -0.07094699
v 0.06765800 0.09900003 -0.02462500
v 0.07435297 0.09900003 -0.01310998
v 0.01250296 0.09900003 -0.07090598
v 0.01310998 0.09900003 -0.07435297
v 0.07090598 0.09900003 -0.01250296
v 0.00000000 0.09900003 -0.07550001
v 0.07549995 0.09900003 -0.00000000
v 0.00000000 0.09900003 -0.07199996
v 0.07199996 0.09900003 -0.00000000
v -0.01310998 0.09900003 -0.07435297
v 0.07435297 0.09900003 0.01310998
v -0.01250296 0.09900003 -0.07090598
v 0.07090598 0.09900003 0.01250302
v -0.02582299 0.09900003 -0.07094699
v 0.07094699 0.09900003 0.02582299
v -0.02462500 0.09900003 -0.06765800
v 0.06765800 0.09900003 0.02462500
v -0.03774994 0.09900003 -0.06538498
v 0.06538498 0.09900003 0.03775000
v -0.03599995 0.09900003 -0.06235396
v 0.06235396 0.09900003 0.03600001
v -0.04852998 0.09900003 -0.05783599
v 0.05783599 0.09900003 0.04852998
v -0.04628098 0.09900003 -0.05515497
v 0.05515497 0.09900003 0.04628098
v -0.05783599 0.09900003 -0.04852998
v -0.05515497 0.09900003 -0.04628098
v 0.04852998 0.09900003 0.05783599
v 0.04628098 0.09900003 0.05515497
v -0.06538498 0.09900003 -0.03775000
v -0.06235396 0.09900003 -0.03600001
v 0.03774994 0.09900003 0.06538498
v 0.03599995 0.09900003 0.06235402
v -0.07094699 0.09900003 -0.02582299
v -0.06765800 0.09900003 -0.02462500
v 0.02582299 0.09900003 0.07094699
v 0.02462500 0.09900003 0.06765800
v -0.07435297 0.09900003 -0.01310998
v -0.07090598 0.09900003 -0.01250296
v 0.01310998 0.09900003 0.07435297
v 0.01250296 0.09900003 0.07090598
v 0.00000000 0.09900003 0.07200002
v -0.07549995 0.09900003 -0.00000000
v -0.07199996 0.09900003 -0.00000000
v 0.00000000 0.09900003 0.07550001
v -0.07090598 0.09900003 0.01250302
v -0.01250296 0.09900003 0.07090598
v -0.07435297 0.09900003 0.01310998
v -0.01310998 0.09900003 0.07435297
v -0.07094699 0.09900003 0.02582299
v -0.06765800 0.09900003 0.02462500
v -0.02582299 0.09900003 0.07094699
v -0.02462500 0.09900003 0.06765800
v -0.06235396 0.09900003 0.03600001
v -0.06538498 0.09900003 0.03775000
v -0.03774994 0.09900003 0.06538498
v -0.03599995 0.09900003 0.06235402
v -0.05783599 0.09900003 0.04852998
v -0.05515497 0.09900003 0.04628098
v -0.04628098 0.09900003 0.05515497
v -0.04852998 0.09900003 0.05783599
v -0.07599997 0.10580000 -0.00000000
v -0.07599997 0.18750000 -0.00000000
v -0.07550495 0.18784200 -0.00866300
v -0.07485496 0.09950006 -0.01314300
v -0.07599997 0.09950006 -0.00000000
v -0.07469397 0.18805400 -0.01402699
v -0.07350397 0.18826300 -0.01931899
v -0.07112699 0.18080610 -0.02677601
v -0.07145500 0.09950006 -0.02588897
v -0.06799596 0.17363299 -0.03394901
v -0.06590098 0.09950006 -0.03785598
v -0.06211698 0.16379200 -0.04378998
v -0.05836194 0.09950006 -0.04868102
v -0.05677098 0.15705401 -0.05052798
v -0.05069798 0.15096299 -0.05661898
v -0.04906398 0.09950006 -0.05803996
v -0.04397594 0.14559710 -0.06198501
v -0.03828799 0.09950006 -0.06565099
v -0.03668999 0.14102501 -0.06655699
v -0.02893400 0.13730501 -0.07027697
v -0.02635896 0.09950006 -0.07128298
v -0.02080798 0.13448600 -0.07309597
v -0.01363497 0.09950006 -0.07476699
v -0.01241594 0.13260309 -0.07497900
v -0.00386399 0.13168000 -0.07590198
v -0.00050000 0.10200000 -0.07599800
v -0.00046500 0.10218500 -0.07599902
v -0.00036400 0.10234300 -0.07599902
v -0.00021200 0.10245310 -0.07599997
v -0.00010600 0.10248900 -0.07599997
v 0.00003000 0.10249900 -0.07599997
v 0.00473696 0.13173001 -0.07585197
v 0.00018800 0.10246300 -0.07599997
v 0.00035000 0.10235700 -0.07599902
v -0.00050000 0.09950006 -0.07599800
v 0.00041800 0.10227500 -0.07599902
v 0.00047000 0.10217100 -0.07599902
v 0.00050000 0.10200000 -0.07599800
v 0.01367098 0.09950006 -0.07476001
v 0.00050000 0.09950006 -0.07599800
v 0.01327794 0.13275111 -0.07483100
v 0.02256298 0.13500801 -0.07257300
v 0.02642798 0.09950006 -0.07125699
v 0.03245496 0.13886011 -0.06872200
v 0.03838396 0.09950006 -0.06559497
v 0.04171496 0.14405310 -0.06352901
v 0.04917699 0.09950006 -0.05794501
v 0.05104094 0.15127110 -0.05630999
v 0.05847996 0.09950006 -0.04853898
v 0.05995297 0.16087300 -0.04670798
v 0.06601196 0.09950006 -0.03766298
v 0.06775599 0.17315599 -0.03442597
v 0.07154196 0.09950006 -0.02564501
v 0.07350397 0.18826300 -0.01931899
v 0.07490599 0.09950006 -0.01285099
v 0.07522696 0.18792699 -0.01081496
v 0.07580596 0.18771400 -0.00542098
v 0.07599997 0.10580000 -0.00000000
v 0.07599997 0.18750000 -0.00000000
v 0.07599896 0.09950006 0.00033301
v 0.07526201 0.10519200 0.01056402
v 0.07479000 0.09950006 0.01350700
v 0.07338696 0.10467600 0.01975601
v 0.07131499 0.09950006 0.02627199
v 0.07084298 0.10425200 0.02751702
v 0.06710398 0.10382500 0.03568202
v 0.06567895 0.09950006 0.03824001
v 0.06224697 0.10343200 0.04360401
v 0.05805200 0.09950006 0.04905003
v 0.05654996 0.10309600 0.05077499
v 0.04866695 0.09950006 0.05837398
v 0.05021798 0.10281800 0.05704599
v 0.04316896 0.10258710 0.06254899
v 0.03780698 0.09950006 0.06592899
v 0.03534400 0.10239800 0.06728202
v 0.02580195 0.09950006 0.07148599
v 0.02692300 0.10225300 0.07107198
v 0.01796400 0.10215000 0.07384598
v 0.01301497 0.09950006 0.07487702
v 0.00858295 0.10208910 0.07551401
v -0.00016700 0.09950006 0.07600003
v -0.00101894 0.10207200 0.07599300
v -0.01055699 0.10209810 0.07526302
v -0.01334297 0.09950006 0.07481902
v -0.01981395 0.10216700 0.07337200
v -0.02611500 0.09950006 0.07137203
v -0.02871495 0.10228000 0.07036602
v -0.03809595 0.09950006 0.06576198
v -0.03700995 0.10243300 0.06638103
v -0.04464995 0.10263000 0.06150102
v -0.04892295 0.09950006 0.05816000
v -0.05154496 0.10287010 0.05584901
v -0.05826699 0.09950006 0.04879498
v -0.05778497 0.10316000 0.04936599
v -0.06330996 0.10350800 0.04204601
v -0.06584596 0.09950006 0.03795200
v -0.06797999 0.10391200 0.03398102
v -0.07142895 0.09950006 0.02595901
v -0.07139295 0.10433000 0.02605903
v -0.07384198 0.10477500 0.01798099
v -0.07484900 0.09950006 0.01317900
v -0.07539898 0.10525000 0.00953603
v -0.07599997 0.09950006 -0.00000000
v 0.03599995 0.09750002 -0.06235396
v 0.04628098 0.09750002 -0.05515497
v 0.05515497 0.09750002 -0.04628098
v 0.07090598 0.09750002 -0.01250296
v 0.06235396 0.09750002 -0.03600001
v 0.06765800 0.09750002 -0.02462500
v 0.01250296 0.09750002 -0.07090598
v 0.02462500 0.09750002 -0.06765800
v -0.01250296 0.09750002 -0.07090598
v 0.00000000 0.09750002 -0.07199996
v 0.06765800 0.09750002 0.02462500
v 0.07199996 0.09750002 -0.00000000
v 0.07090598 0.09750002 0.01250302
v 0.06235396 0.09750002 0.03600001
v -0.04628098 0.09750002 -0.05515497
v -0.03599995 0.09750002 -0.06235396
v -0.02462500 0.09750002 -0.06765800
v 0.03599995 0.09750002 0.06235402
v 0.05515497 0.09750002 0.04628098
v 0.04628098 0.09750002 0.05515497
v -0.06235396 0.09750002 -0.03600001
v -0.05515497 0.09750002 -0.04628098
v -0.07090598 0.09750002 -0.01250296
v -0.06765800 0.09750002 -0.02462500
v 0.00000000 0.09750002 0.07200002
v 0.02462500 0.09750002 0.06765800
v 0.01250296 0.09750002 0.07090598
v -0.07090598 0.09750002 0.01250302
v -0.07199996 0.09750002 -0.00000000
v -0.04628098 0.09750002 0.05515497
v -0.01250296 0.09750002 0.07090598
v -0.02462500 0.09750002 0.06765800
v -0.03599995 0.09750002 0.06235402
v -0.05515497 0.09750002 0.04628098
v -0.06235396 0.09750002 0.03600001
v -0.06765800 0.09750002 0.02462500
v -0.07539200 0.17736199 0.08115500
v -0.07599997 0.10580000 -0.00000000
v -0.07495599 0.10651010 0.01326698
v -0.07599997 0.18750000 0.08170002
v -0.07350796 0.16713201 0.08063399
v -0.07175797 0.10714310 0.02637803
v -0.07049900 0.15761900 0.08020699
v -0.06639897 0.10763300 0.03880900
v -0.06609898 0.14814000 0.07984799
v -0.06064897 0.13958400 0.07958501
v -0.05909800 0.10797000 0.04995501
v -0.05439096 0.13212000 0.07940101
v -0.05102699 0.10816710 0.05869001
v -0.04662895 0.12504900 0.07926398
v -0.04291099 0.10828000 0.06520700
v -0.03855395 0.11948400 0.07917898
v -0.03344196 0.10835700 0.07080399
v -0.02963596 0.11493900 0.07912200
v -0.02374696 0.10840100 0.07479602
v -0.02005195 0.11158100 0.07908898
v -0.01300299 0.10842600 0.07750600
v -0.01006197 0.10953900 0.07907003
v -0.00663996 0.10843300 0.07834303
v 0.00000000 0.10886400 0.07906401
v 0.00000000 0.10843610 0.07863599
v 0.00663996 0.10915700 0.07906699
v 0.00000000 0.10886400 0.07906401
v 0.00000000 0.10843610 0.07863599
v 0.01006197 0.10843000 0.07796102
v 0.01300299 0.10999400 0.07907402
v 0.02005195 0.10841100 0.07591903
v 0.02374696 0.11270400 0.07909899
v 0.02963596 0.10837810 0.07256102
v 0.03344196 0.11669600 0.07914298
v 0.03855395 0.10832100 0.06801599
v 0.04291099 0.12229300 0.07921999
v 0.04662895 0.10823600 0.06245100
v 0.05102699 0.12881009 0.07933300
v 0.05439096 0.10809910 0.05537998
v 0.05909800 0.13754509 0.07953000
v 0.06064897 0.10791510 0.04791599
v 0.06639897 0.14869100 0.07986700
v 0.06609898 0.10765200 0.03935998
v 0.07049900 0.10729300 0.02988100
v 0.07175797 0.16112199 0.08035701
v 0.07350796 0.10686600 0.02036798
v 0.07495599 0.17423300 0.08099001
v 0.07539200 0.10634500 0.01013803
v 0.07599997 0.18750000 0.08170002
v 0.07599997 0.10580000 -0.00000000
v 0.07599997 0.18750000 -0.00000000
v 0.07469397 0.20152700 -0.00055397
v 0.07457798 0.20065001 -0.00693202
v 0.07350397 0.20681900 -0.00076300
v 0.07522696 0.18792699 -0.01081496
v 0.07350397 0.18826300 -0.01931899
v 0.07457798 0.19443201 -0.01314997
v 0.07566899 0.19261201 -0.00511199
v 0.07550495 0.19616300 -0.00034201
v 0.07566899 0.19261201 -0.00511199
v 0.07599997 0.18750000 -0.00000000
v 0.07599997 0.18750000 -0.00000000
v 0.07580596 0.18771400 -0.00542098
v 0.07599997 0.18750000 -0.00000000
v -0.07469397 0.18805400 -0.01402699
v -0.07457798 0.19443201 -0.01314997
v -0.07350397 0.18826300 -0.01931899
v -0.07522696 0.19831499 -0.00042701
v -0.07350397 0.20681900 -0.00076300
v -0.07457798 0.20065001 -0.00693202
v -0.07566899 0.19261201 -0.00511199
v -0.07550495 0.18784200 -0.00866300
v -0.07566899 0.19261201 -0.00511199
v -0.07599997 0.18750000 -0.00000000
v -0.07580596 0.19292110 -0.00021398
v -0.07599997 0.18750000 -0.00000000
v -0.07539200 0.17736199 0.08115500
v -0.07599997 0.18750000 0.08170002
v -0.07599997 0.18750000 0.08170002
v -0.07539200 0.17736199 0.08115500
v -0.07526201 0.17693600 0.08230799
v -0.07599997 0.18750000 0.08170002
v -0.07350796 0.16713201 0.08063399
v -0.07338696 0.16774410 0.08282399
v -0.06710398 0.15181801 0.08367502
v -0.07084298 0.15998299 0.08324801
v -0.07049900 0.15761900 0.08020699
v -0.06609898 0.14814000 0.07984799
v -0.06224697 0.14389610 0.08406800
v -0.05439096 0.13212000 0.07940101
v -0.05654996 0.13672499 0.08440399
v -0.06064897 0.13958400 0.07958501
v -0.05021798 0.13045400 0.08468198
v -0.04662895 0.12504900 0.07926398
v -0.04316896 0.12495100 0.08491301
v 0.04464995 0.12599900 0.08486998
v 0.03700995 0.12111900 0.08506703
v 0.04291099 0.12229300 0.07921999
v 0.05909800 0.13754509 0.07953000
v 0.05154496 0.13165110 0.08463001
v 0.05102699 0.12881009 0.07933300
v 0.05778497 0.13813400 0.08434003
v 0.06330996 0.14545409 0.08399200
v 0.07175797 0.16112199 0.08035701
v 0.07139295 0.16144100 0.08316999
v 0.06797999 0.15351900 0.08358800
v 0.06639897 0.14869100 0.07986700
v 0.07539898 0.17796400 0.08224999
v 0.07384198 0.16951901 0.08272498
v 0.07495599 0.17423300 0.08099001
v 0.07599997 0.18750000 0.08170002
v 0.07599997 0.18750000 0.08170002
v 0.07539898 0.17796400 0.08224999
v 0.07599997 0.18750000 0.08170002
v -0.07225096 0.16361910 0.08174103
v -0.06129294 0.14204600 0.08181101
v -0.04254698 0.12389010 0.08190298
v -0.03855395 0.11948400 0.07917898
v -0.02052199 0.11364710 0.08196502
v -0.01796400 0.11365400 0.08535003
v -0.02692300 0.11642800 0.08524698
v 0.00377697 0.11090910 0.08198302
v 0.01055699 0.11223700 0.08540201
v 0.00101894 0.11150700 0.08542799
v 0.00000000 0.10886400 0.07906401
v 0.00663996 0.10915700 0.07906699
v 0.02754700 0.11600000 0.08195000
v 0.02374696 0.11270400 0.07909899
v 0.03344196 0.11669600 0.07914298
v 0.04845297 0.12833600 0.08187800
v 0.06436300 0.14660309 0.08179301
v 0.07374900 0.16889700 0.08173000
v -0.03668498 0.12028900 0.08192402
v -0.03534400 0.12021800 0.08510202
v -0.03231799 0.11805300 0.08193802
v -0.02963596 0.11493900 0.07912200
v -0.02805697 0.11620110 0.08194899
v -0.02005195 0.11158100 0.07908898
v -0.01884698 0.11319600 0.08196902
v -0.01397496 0.11211500 0.08197599
v -0.01006197 0.10953900 0.07907003
v -0.00858295 0.11198610 0.08541101
v -0.00923598 0.11138010 0.08197999
v -0.00433797 0.11093900 0.08198302
v 0.00051300 0.11081700 0.08198398
v 0.00856400 0.11130010 0.08198100
v 0.01300299 0.10999400 0.07907402
v 0.01166898 0.11171900 0.08197802
v 0.01634395 0.11259900 0.08197200
v 0.01981395 0.11412810 0.08533298
v 0.02158999 0.11395600 0.08196300
v 0.02871495 0.11713400 0.08521997
v 0.03084295 0.11737710 0.08194202
v 0.03501498 0.11939000 0.08192902
v 0.07539200 0.10634500 0.01013803
v 0.07599997 0.10580000 -0.00000000
v 0.07599997 0.10580000 -0.00000000
v 0.07539200 0.10634500 0.01013803
v 0.07526201 0.10519200 0.01056402
v 0.07350796 0.10686600 0.02036798
v 0.07338696 0.10467600 0.01975601
v 0.06710398 0.10382500 0.03568202
v 0.07084298 0.10425200 0.02751702
v 0.07049900 0.10729300 0.02988100
v 0.06609898 0.10765200 0.03935998
v 0.06224697 0.10343200 0.04360401
v 0.05439096 0.10809910 0.05537998
v 0.05654996 0.10309600 0.05077499
v 0.06064897 0.10791510 0.04791599
v 0.05021798 0.10281800 0.05704599
v 0.04662895 0.10823600 0.06245100
v 0.04316896 0.10258710 0.06254899
v -0.04464995 0.10263000 0.06150102
v -0.03700995 0.10243300 0.06638103
v -0.04291099 0.10828000 0.06520700
v -0.05909800 0.10797000 0.04995501
v -0.05154496 0.10287010 0.05584901
v -0.05102699 0.10816710 0.05869001
v -0.05778497 0.10316000 0.04936599
v -0.06330996 0.10350800 0.04204601
v -0.07175797 0.10714310 0.02637803
v -0.07139295 0.10433000 0.02605903
v -0.06797999 0.10391200 0.03398102
v -0.06639897 0.10763300 0.03880900
v -0.07539898 0.10525000 0.00953603
v -0.07384198 0.10477500 0.01798099
v -0.07495599 0.10651010 0.01326698
v -0.07599997 0.10580000 -0.00000000
v -0.07599997 0.10580000 -0.00000000
v -0.07539898 0.10525000 0.00953603
v -0.07599997 0.10580000 -0.00000000
v 0.07225096 0.10575900 0.02388101
v 0.06129294 0.10568910 0.04545402
v 0.04254698 0.10559700 0.06361001
v 0.03855395 0.10832100 0.06801599
v 0.02052199 0.10553500 0.07385301
v 0.01796400 0.10215000 0.07384598
v 0.02692300 0.10225300 0.07107198
v -0.00377697 0.10551700 0.07659101
v -0.01055699 0.10209810 0.07526302
v 0.00000000 0.10843610 0.07863599
v -0.00663996 0.10843300 0.07834303
v -0.02754700 0.10555010 0.07150000
v -0.02374696 0.10840100 0.07479602
v -0.03344196 0.10835700 0.07080399
v -0.04845297 0.10562210 0.05916398
v -0.06436300 0.10570710 0.04089701
v -0.07374900 0.10577010 0.01860302
v 0.03668498 0.10557600 0.06721103
v 0.03534400 0.10239800 0.06728202
v 0.03231799 0.10556200 0.06944698
v 0.02963596 0.10837810 0.07256102
v 0.02805697 0.10555100 0.07129901
v 0.02005195 0.10841100 0.07591903
v 0.01884698 0.10553100 0.07430398
v 0.01397496 0.10552400 0.07538503
v 0.01006197 0.10843000 0.07796102
v 0.00858295 0.10208910 0.07551401
v 0.00923598 0.10552000 0.07612001
v 0.00433797 0.10551700 0.07656103
v -0.00051300 0.10551600 0.07668298
v -0.00856400 0.10551900 0.07620000
v -0.01300299 0.10842600 0.07750600
v -0.01166898 0.10552200 0.07578098
v -0.01634395 0.10552800 0.07490098
v -0.01981395 0.10216700 0.07337200
v -0.02158999 0.10553700 0.07354402
v -0.02871495 0.10228000 0.07036602
v -0.03084295 0.10555800 0.07012301
v -0.03501498 0.10557100 0.06810998
v 0.01250296 0.09750002 -0.07090598
v 0.00000000 0.09750002 -0.07199996
v 0.00000000 0.09900003 -0.07199996
v 0.01250296 0.09900003 -0.07090598
v 0.02462500 0.09750002 -0.06765800
v 0.02462500 0.09900003 -0.06765800
v 0.03599995 0.09750002 -0.06235396
v 0.03599995 0.09900003 -0.06235396
v 0.04628098 0.09750002 -0.05515497
v 0.04628098 0.09900003 -0.05515497
v 0.05515497 0.09750002 -0.04628098
v 0.05515497 0.09900003 -0.04628098
v 0.06235396 0.09750002 -0.03600001
v 0.06235396 0.09900003 -0.03600001
v 0.06765800 0.09750002 -0.02462500
v 0.06765800 0.09900003 -0.02462500
v 0.07090598 0.09750002 -0.01250296
v 0.07090598 0.09900003 -0.01250296
v 0.07199996 0.09750002 -0.00000000
v 0.07199996 0.09900003 -0.00000000
v 0.07090598 0.09750002 0.01250302
v 0.07090598 0.09900003 0.01250302
v 0.06765800 0.09750002 0.02462500
v 0.06765800 0.09900003 0.02462500
v 0.06235396 0.09750002 0.03600001
v 0.06235396 0.09900003 0.03600001
v 0.05515497 0.09750002 0.04628098
v 0.05515497 0.09900003 0.04628098
v 0.04628098 0.09750002 0.05515497
v 0.04628098 0.09900003 0.05515497
v 0.03599995 0.09750002 0.06235402
v 0.03599995 0.09900003 0.06235402
v 0.02462500 0.09750002 0.06765800
v 0.02462500 0.09900003 0.06765800
v 0.01250296 0.09750002 0.07090598
v 0.01250296 0.09900003 0.07090598
v 0.00000000 0.09750002 0.07200002
v 0.00000000 0.09900003 0.07200002
v -0.01250296 0.09750002 0.07090598
v -0.01250296 0.09900003 0.07090598
v -0.02462500 0.09750002 0.06765800
v -0.02462500 0.09900003 0.06765800
v -0.03599995 0.09750002 0.06235402
v -0.03599995 0.09900003 0.06235402
v -0.04628098 0.09750002 0.05515497
v -0.04628098 0.09900003 0.05515497
v -0.05515497 0.09750002 0.04628098
v -0.05515497 0.09900003 0.04628098
v -0.06235396 0.09750002 0.03600001
v -0.06235396 0.09900003 0.03600001
v -0.06765800 0.09750002 0.02462500
v -0.06765800 0.09900003 0.02462500
v -0.07090598 0.09750002 0.01250302
v -0.07090598 0.09900003 0.01250302
v -0.07199996 0.09750002 -0.00000000
v -0.07199996 0.09900003 -0.00000000
v -0.07090598 0.09750002 -0.01250296
v -0.07090598 0.09900003 -0.01250296
v -0.06765800 0.09750002 -0.02462500
v -0.06765800 0.09900003 -0.02462500
v -0.06235396 0.09900003 -0.03600001
v -0.06235396 0.09750002 -0.03600001
v -0.05515497 0.09750002 -0.04628098
v -0.05515497 0.09900003 -0.04628098
v -0.04628098 0.09750002 -0.05515497
v -0.04628098 0.09900003 -0.05515497
v -0.03599995 0.09900003 -0.06235396
v -0.03599995 0.09750002 -0.06235396
v -0.02462500 0.09750002 -0.06765800
v -0.02462500 0.09900003 -0.06765800
v -0.01250296 0.09750002 -0.07090598
v -0.01250296 0.09900003 -0.07090598
v 0.00000000 0.09900003 -0.07199996
v 0.00000000 0.09750002 -0.07199996
v -0.00050000 0.26310000 0.08799999
v -0.00050000 0.26349810 0.08799999
v -0.00050000 0.26349810 0.09049999
v -0.00050000 0.26310000 0.09089803
v -0.00050000 0.26310000 0.08799999
v 0.00050000 0.26310000 0.08799999
v 0.00049000 0.26310000 0.08790302
v 0.00046200 0.26310000 0.08780902
v 0.00041600 0.26310000 0.08772200
v 0.00035400 0.26310000 0.08764702
v 0.00027800 0.26310000 0.08758401
v 0.00019100 0.26310000 0.08753800
v 0.00009800 0.26310000 0.08750998
v 0.00000000 0.26310000 0.08750003
v -0.00009800 0.26310000 0.08750998
v -0.00019100 0.26310000 0.08753800
v -0.00027800 0.26310000 0.08758401
v -0.00035400 0.26310000 0.08764702
v -0.00041600 0.26310000 0.08772200
v -0.00046200 0.26310000 0.08780902
v -0.00049000 0.26310000 0.08790302
v 0.00016700 0.26310000 0.09090000
v 0.00050000 0.26310000 0.09089803
v -0.00016700 0.26310000 0.09090000
v -0.00050000 0.26310000 0.09089803
v 0.00050000 0.26349810 0.09049999
v 0.00050000 0.26349810 0.08799999
v 0.00050000 0.26310000 0.08799999
v 0.00050000 0.26310000 0.09089803
v 0.00050000 0.26349810 0.08799999
v 0.00049000 0.26310000 0.08790302
v 0.00050000 0.26310000 0.08799999
v 0.00046500 0.26349899 0.08781599
v 0.00046200 0.26310000 0.08780902
v 0.00041600 0.26310000 0.08772200
v 0.00036400 0.26349899 0.08765798
v 0.00035400 0.26310000 0.08764702
v 0.00027800 0.26310000 0.08758401
v 0.00021200 0.26350001 0.08754801
v 0.00019100 0.26310000 0.08753800
v 0.00010600 0.26350001 0.08751100
v 0.00009800 0.26310000 0.08750998
v 0.00000000 0.26310000 0.08750003
v -0.00003000 0.26350001 0.08750098
v -0.00009800 0.26310000 0.08750998
v -0.00018800 0.26350001 0.08753699
v -0.00019100 0.26310000 0.08753800
v -0.00027800 0.26310000 0.08758401
v -0.00035000 0.26349899 0.08764302
v -0.00035400 0.26310000 0.08764702
v -0.00041800 0.26349899 0.08772599
v -0.00041600 0.26310000 0.08772200
v -0.00046200 0.26310000 0.08780902
v -0.00047000 0.26349899 0.08782899
v -0.00049000 0.26310000 0.08790302
v -0.00050000 0.26349810 0.08799999
v -0.00050000 0.26310000 0.08799999
v -0.00050000 0.11150210 0.08799999
v -0.00049000 0.11190000 0.08790302
v -0.00050000 0.11190000 0.08799999
v -0.00046500 0.11150100 0.08781599
v -0.00041600 0.11190000 0.08772200
v -0.00046200 0.11190000 0.08780902
v -0.00036400 0.11150100 0.08765798
v -0.00027800 0.11190000 0.08758401
v -0.00035400 0.11190000 0.08764702
v -0.00021200 0.11150000 0.08754801
v -0.00019100 0.11190000 0.08753800
v -0.00010600 0.11150000 0.08751100
v 0.00000000 0.11190000 0.08750003
v -0.00009800 0.11190000 0.08750998
v 0.00003000 0.11150000 0.08750098
v 0.00009800 0.11190000 0.08750998
v 0.00018800 0.11150000 0.08753699
v 0.00027800 0.11190000 0.08758401
v 0.00019100 0.11190000 0.08753800
v 0.00035000 0.11150100 0.08764302
v 0.00035400 0.11190000 0.08764702
v 0.00041800 0.11150100 0.08772599
v 0.00046200 0.11190000 0.08780902
v 0.00041600 0.11190000 0.08772200
v 0.00047000 0.11150100 0.08782899
v 0.00049000 0.11190000 0.08790302
v 0.00050000 0.11150210 0.08799999
v 0.00050000 0.11190000 0.08799999
v 0.00050000 0.09950006 -0.07599800
v 0.00050000 0.10200000 -0.07569801
v 0.00050000 0.10200000 -0.07599800
v 0.00050000 0.09920001 -0.07569801
v 0.00049000 0.10209810 -0.07569801
v 0.00050000 0.10200000 -0.07599800
v 0.00047000 0.10217100 -0.07599902
v 0.00046200 0.10219100 -0.07569801
v 0.00041800 0.10227500 -0.07599902
v 0.00041600 0.10227810 -0.07569801
v 0.00035400 0.10235410 -0.07569801
v 0.00035000 0.10235700 -0.07599902
v 0.00027800 0.10241600 -0.07569801
v 0.00018800 0.10246300 -0.07599997
v 0.00019100 0.10246210 -0.07569801
v 0.00009800 0.10249000 -0.07569801
v 0.00003000 0.10249900 -0.07599997
v 0.00000000 0.10250000 -0.07569801
v -0.00010600 0.10248900 -0.07599997
v -0.00009800 0.10249000 -0.07569801
v -0.00019100 0.10246210 -0.07569801
v -0.00021200 0.10245310 -0.07599997
v -0.00027800 0.10241600 -0.07569801
v -0.00036400 0.10234300 -0.07599902
v -0.00035400 0.10235410 -0.07569801
v -0.00041600 0.10227810 -0.07569801
v -0.00046500 0.10218500 -0.07599902
v -0.00046200 0.10219100 -0.07569801
v -0.00049000 0.10209810 -0.07569801
v -0.00050000 0.10200000 -0.07599800
f 1 2 3
f 4 5 2
f 4 2 1
f 6 7 5
f 6 5 4
f 8 9 7
f 8 7 6
f 10 11 9
f 10 9 8
f 12 13 11
f 12 11 10
f 14 13 12
f 14 15 13
f 16 15 14
f 16 17 15
f 18 17 16
f 18 19 17
f 20 19 18
f 20 21 19
f 22 21 20
f 22 23 21
f 24 23 22
f 24 25 23
f 26 25 24
f 26 27 25
f 28 27 26
f 28 29 27
f 30 29 28
f 30 31 29
f 32 31 30
f 32 33 31
f 34 33 32
f 34 35 33
f 36 35 34
f 36 37 35
f 38 37 36
f 38 39 37
f 40 39 38
f 40 41 39
f 42 43 41
f 42 41 40
f 44 45 43
f 44 43 42
f 46 47 45
f 46 45 44
f 48 49 47
f 48 47 46
f 50 51 49
f 50 49 48
f 52 53 51
f 52 51 50
f 54 55 53
f 54 53 52
f 56 57 55
f 56 55 54
f 58 59 57
f 58 57 56
f 60 61 59
f 60 59 58
f 62 63 61
f 62 61 60
f 64 63 62
f 64 65 63
f 66 65 64
f 66 67 65
f 68 67 66
f 68 69 67
f 70 69 68
f 70 71 69
f 72 71 70
f 72 73 71
f 74 73 72
f 75 76 77
f 78 76 75
f 79 80 76
f 79 81 80
f 79 82 81
f 79 83 82
f 79 84 83
f 79 76 78
f 85 79 86
f 85 87 84
f 85 84 79
f 88 87 85
f 89 90 91
f 92 93 87
f 92 94 93
f 92 87 88
f 95 96 94
f 95 94 92
f 97 98 99
f 100 101 96
f 100 102 101
f 100 95 103
f 100 96 95
f 104 105 102
f 104 106 105
f 104 91 106
f 104 102 100
f 107 99 89
f 107 108 97
f 107 109 108
f 107 104 110
f 107 91 104
f 107 89 91
f 107 97 99
f 111 112 113
f 114 115 112
f 114 112 111
f 116 117 115
f 116 115 114
f 118 119 117
f 118 117 116
f 120 121 119
f 120 119 118
f 122 123 121
f 122 121 120
f 124 123 122
f 124 125 123
f 126 125 124
f 126 127 125
f 128 127 126
f 128 129 127
f 130 129 128
f 130 131 129
f 132 131 130
f 132 133 131
f 134 133 132
f 134 135 133
f 136 135 134
f 136 137 135
f 138 137 136
f 138 139 137
f 140 139 138
f 140 141 139
f 142 141 140
f 142 143 141
f 144 143 142
f 144 145 143
f 146 145 144
f 146 147 145
f 148 147 146
f 148 149 147
f 150 149 148
f 150 151 149
f 152 153 151
f 152 151 150
f 154 155 153
f 154 153 152
f 156 157 155
f 156 155 154
f 158 159 157
f 158 157 156
f 160 161 159
f 160 159 158
f 162 163 161
f 162 161 160
f 164 165 163
f 164 163 162
f 166 165 164
f 167 168 165
f 167 165 166
f 169 170 168
f 169 168 167
f 171 172 170
f 171 173 172
f 171 170 169
f 174 173 171
f 174 175 173
f 176 175 174
f 177 175 176
f 177 178 175
f 179 178 177
f 179 180 178
f 181 180 179
f 181 182 180
f 183 182 181
f 183 184 182
f 185 186 187
f 188 189 190
f 188 191 189
f 192 193 194
f 192 195 193
f 196 197 192
f 196 194 188
f 196 192 194
f 198 199 200
f 201 202 196
f 201 203 204
f 201 185 203
f 201 190 186
f 201 196 188
f 201 186 185
f 201 188 190
f 205 206 207
f 205 198 206
f 205 199 198
f 208 209 201
f 208 210 209
f 208 211 210
f 208 212 213
f 208 204 212
f 208 201 204
f 214 205 215
f 216 213 217
f 216 208 213
f 218 205 214
f 219 216 217
f 219 205 218
f 219 220 216
f 219 217 199
f 219 199 205
f 221 222 223
f 224 225 222
f 224 222 221
f 226 227 225
f 226 225 224
f 228 229 227
f 228 227 226
f 230 231 229
f 230 229 228
f 232 233 231
f 232 231 230
f 234 233 232
f 234 235 233
f 236 235 234
f 236 237 235
f 238 237 236
f 238 239 237
f 240 239 238
f 240 241 239
f 242 241 240
f 242 243 241
f 244 243 242
f 244 245 243
f 246 245 244
f 246 247 245
f 248 247 246
f 248 249 247
f 250 249 248
f 251 249 250
f 251 252 249
f 251 253 252
f 254 253 251
f 254 255 253
f 256 255 254
f 257 255 256
f 257 258 255
f 257 259 258
f 260 259 257
f 261 262 259
f 261 263 262
f 261 259 260
f 264 263 261
f 265 266 263
f 265 267 266
f 265 263 264
f 268 267 265
f 269 270 267
f 269 271 270
f 269 267 268
f 272 271 269
f 273 274 271
f 273 271 272
f 275 276 274
f 275 277 276
f 275 274 273
f 278 277 275
f 279 280 277
f 279 281 280
f 279 277 278
f 282 281 279
f 283 281 282
f 283 284 281
f 283 285 284
f 286 285 283
f 286 287 285
f 288 287 286
f 288 289 287
f 290 289 288
f 291 289 290
f 291 292 289
f 293 292 291
f 293 294 292
f 295 296 297
f 298 299 300
f 298 301 299
f 298 302 303
f 298 304 302
f 298 305 304
f 298 300 305
f 306 307 298
f 308 303 296
f 308 296 295
f 308 298 303
f 308 306 298
f 309 310 311
f 312 313 308
f 312 308 295
f 314 309 315
f 316 309 314
f 317 318 312
f 317 319 320
f 317 321 319
f 317 322 321
f 317 295 322
f 317 312 295
f 323 316 324
f 323 309 316
f 325 326 317
f 325 327 310
f 325 320 327
f 325 317 320
f 328 309 323
f 328 325 310
f 328 329 325
f 328 323 330
f 328 310 309
f 331 332 333
f 331 334 332
f 335 336 334
f 335 334 331
f 337 338 336
f 337 336 335
f 339 340 338
f 339 338 337
f 341 342 340
f 341 340 339
f 343 342 341
f 343 344 342
f 345 344 343
f 345 346 344
f 347 346 345
f 347 348 346
f 349 348 347
f 349 350 348
f 351 350 349
f 351 352 350
f 353 352 351
f 353 354 352
f 355 354 353
f 355 356 354
f 357 356 355
f 357 358 356
f 359 358 357
f 359 360 358
f 361 360 359
f 361 362 360
f 363 362 361
f 363 364 362
f 365 364 363
f 365 366 364
f 367 366 365
f 367 368 366
f 369 368 367
f 369 370 368
f 371 370 369
f 371 372 370
f 373 372 371
f 373 374 372
f 375 376 374
f 375 374 373
f 377 378 376
f 377 376 375
f 379 380 378
f 379 378 377
f 381 382 380
f 381 380 379
f 383 384 382
f 383 382 381
f 385 386 384
f 385 384 383
f 387 388 386
f 387 386 385
f 389 390 388
f 389 388 387
f 391 392 390
f 391 390 389
f 393 392 391
f 393 394 392
f 395 394 393
f 395 396 394
f 397 396 395
f 397 398 396
f 399 398 397
f 399 400 398
f 401 400 399
f 401 402 400
f 403 402 401
f 403 404 402
f 405 406 407
f 408 409 410
f 411 408 412
f 411 405 409
f 411 409 408
f 413 414 406
f 413 406 405
f 413 405 411
f 415 416 417
f 418 413 419
f 418 420 414
f 418 414 413
f 421 422 420
f 421 420 418
f 423 422 421
f 424 425 422
f 424 426 425
f 424 422 423
f 427 428 429
f 430 431 426
f 430 432 431
f 430 424 433
f 430 426 424
f 434 429 435
f 434 427 429
f 436 417 432
f 436 432 430
f 437 438 415
f 437 435 438
f 437 439 434
f 437 434 435
f 440 437 415
f 440 415 417
f 440 417 436
f 441 442 443
f 444 442 441
f 445 442 444
f 446 441 443
f 447 442 445
f 448 446 443
f 449 442 447
f 450 448 443
f 451 442 449
f 452 450 443
f 453 454 442
f 453 442 451
f 455 452 443
f 456 454 453
f 457 455 443
f 457 443 458
f 459 454 456
f 460 457 458
f 461 454 459
f 462 460 458
f 463 464 454
f 463 454 461
f 465 462 458
f 466 464 463
f 467 458 468
f 467 465 458
f 469 470 464
f 469 464 466
f 471 467 468
f 472 473 470
f 472 470 469
f 474 471 468
f 475 473 472
f 476 468 477
f 476 474 468
f 478 476 477
f 479 475 480
f 479 473 475
f 481 482 478
f 481 478 477
f 483 482 481
f 484 485 482
f 484 482 483
f 486 487 488
f 489 486 488
f 490 488 487
f 490 491 488
f 492 491 490
f 493 488 494
f 493 489 488
f 495 491 492
f 496 494 497
f 496 493 494
f 498 491 495
f 499 497 500
f 499 496 497
f 501 491 498
f 502 500 479
f 502 499 500
f 502 479 480
f 503 491 501
f 504 502 480
f 504 480 505
f 504 505 506
f 507 491 503
f 508 504 506
f 509 491 507
f 510 506 511
f 510 511 512
f 510 508 506
f 513 510 512
f 513 512 485
f 514 513 485
f 515 516 517
f 515 517 518
f 515 491 509
f 515 518 519
f 515 509 520
f 515 520 521
f 515 521 522
f 515 522 523
f 515 523 516
f 524 519 525
f 524 525 526
f 524 526 527
f 524 527 528
f 524 528 529
f 524 515 519
f 530 531 532
f 533 532 531
f 534 532 535
f 534 530 532
f 536 534 535
f 537 532 533
f 538 539 532
f 538 532 537
f 540 536 535
f 541 540 535
f 542 539 538
f 543 544 539
f 543 539 542
f 545 541 535
f 546 484 547
f 546 547 544
f 546 485 484
f 546 544 543
f 548 545 535
f 549 485 546
f 550 548 535
f 551 550 535
f 552 529 553
f 552 553 554
f 552 554 555
f 552 524 529
f 556 551 535
f 556 557 558
f 556 558 559
f 556 559 560
f 556 560 561
f 556 561 562
f 556 562 563
f 556 563 551
f 564 557 556
f 564 565 566
f 564 566 567
f 564 567 568
f 564 568 557
f 569 552 555
f 570 565 564
f 570 571 572
f 570 572 565
f 573 555 514
f 573 569 555
f 574 571 570
f 574 575 571
f 576 575 574
f 577 578 579
f 577 579 580
f 581 579 582
f 581 580 579
f 583 485 549
f 583 549 578
f 583 514 485
f 583 578 577
f 584 582 585
f 584 581 582
f 586 514 583
f 586 587 588
f 586 588 573
f 586 589 587
f 586 573 514
f 590 585 591
f 590 591 575
f 590 584 585
f 592 589 586
f 593 590 575
f 594 575 576
f 594 593 575
f 595 592 596
f 595 589 592
f 597 593 594
f 597 598 593
f 599 595 596
f 599 596 600
f 599 600 601
f 599 601 602
f 603 598 597
f 603 604 598
f 605 602 606
f 605 606 607
f 605 607 608
f 605 608 609
f 605 599 602
f 610 604 603
f 610 611 612
f 610 612 613
f 610 613 604
f 614 615 616
f 614 616 617
f 614 617 618
f 614 605 609
f 614 609 619
f 614 619 615
f 620 611 610
f 620 621 622
f 620 622 623
f 620 623 624
f 620 624 611
f 625 614 618
f 625 618 626
f 625 626 627
f 625 627 628
f 625 628 629
f 625 629 630
f 625 630 621
f 625 621 620
f 631 632 633
f 634 635 632
f 634 632 631
f 636 637 634
f 638 639 640
f 638 631 639
f 641 642 636
f 643 638 644
f 643 631 638
f 645 634 631
f 645 636 634
f 645 641 636
f 645 631 643
f 646 643 647
f 648 649 645
f 650 646 651
f 650 643 646
f 650 645 643
f 652 653 648
f 654 655 656
f 654 657 655
f 654 650 657
f 658 659 660
f 658 661 652
f 658 660 661
f 658 648 645
f 658 652 648
f 662 663 658
f 662 645 650
f 662 650 654
f 662 658 645
f 664 662 654
f 664 665 666
f 664 654 665
f 667 668 669
f 667 669 670
f 671 670 672
f 671 667 670
f 673 672 674
f 673 671 672
f 675 673 674
f 675 674 676
f 677 675 676
f 677 676 678
f 679 677 678
f 679 678 680
f 681 679 680
f 681 680 682
f 683 682 684
f 683 681 682
f 685 686 684
f 685 687 686
f 688 683 684
f 688 684 686
f 689 687 685
f 690 689 685
f 691 690 685
f 691 692 690
f 693 692 691
f 694 693 691
f 695 693 694
f 696 695 694
f 697 695 696
f 698 697 696
f 699 697 698
f 700 699 698
f 701 699 700
f 702 701 700
f 703 701 702
f 704 703 702
f 705 703 704
f 706 705 704
f 707 705 706
f 708 707 706
f 709 707 708
f 710 708 711
f 710 709 708
f 712 711 713
f 712 710 711
f 714 713 715
f 714 712 713
f 716 715 717
f 716 714 715
f 718 717 719
f 718 716 717
f 720 719 721
f 720 718 719
f 722 721 723
f 722 720 721
f 724 723 725
f 724 722 723
f 726 727 725
f 726 728 727
f 729 725 727
f 729 724 725
f 730 728 726
f 731 730 726
f 732 731 726
f 732 733 731
f 734 733 732
f 735 734 732
f 736 734 735
f 737 736 735
f 738 736 737
f 739 738 737
f 740 738 739
f 741 740 739
f 742 740 741
f 743 742 741
f 744 742 743
f 745 744 743
f 746 744 745
f 747 746 745
f 748 746 747
f 749 748 747
f 750 748 749
f 751 752 753
f 751 754 752
f 755 756 757
f 758 759 755
f 758 760 759
f 761 762 758
f 761 763 764
f 761 757 763
f 761 755 757
f 761 758 755
f 765 766 762
f 765 767 766
f 765 768 767
f 765 762 761
f 769 761 770
f 771 772 765
f 773 765 761
f 773 771 765
f 774 769 775
f 774 761 769
f 774 773 761
f 776 777 778
f 779 776 778
f 780 781 782
f 783 780 782
f 783 784 780
f 783 782 785
f 783 785 786
f 787 783 786
f 787 788 789
f 787 786 788
f 790 787 789
f 790 789 791
f 792 790 791
f 792 793 794
f 792 791 793
f 795 792 794
f 795 794 796
f 797 795 796
f 797 798 799
f 797 796 798
f 800 797 799
f 800 799 801
f 802 800 801
f 802 803 804
f 802 801 803
f 805 802 804
f 805 804 806
f 807 806 804
f 808 807 804
f 809 808 804
f 810 804 811
f 810 809 804
f 812 810 811
f 813 802 805
f 814 812 811
f 815 814 811
f 816 815 811
f 817 816 811
f 818 819 817
f 818 820 821
f 818 811 820
f 818 817 811
f 822 818 821
f 822 821 823
f 824 822 823
f 824 823 825
f 826 824 825
f 826 825 827
f 828 826 827
f 828 827 829
f 830 828 829
f 830 829 831
f 832 830 831
f 832 831 833
f 834 832 833
f 834 833 835
f 836 834 835
f 836 835 837
f 836 837 838
f 839 834 836
f 840 839 836
f 841 839 840
f 842 841 840
f 843 841 842
f 843 842 844
f 845 843 844
f 846 843 845
f 847 846 845
f 848 846 847
f 849 848 847
f 850 848 849
f 850 849 851
f 852 850 851
f 853 850 852
f 854 853 852
f 855 853 854
f 855 854 856
f 857 855 856
f 858 855 857
f 859 858 857
f 860 859 861
f 862 861 859
f 863 858 859
f 863 859 860
f 864 865 866
f 864 866 867
f 864 867 868
f 864 868 869
f 864 869 862
f 864 862 859
f 870 865 864
f 871 870 864
f 872 871 864
f 873 872 864
f 874 873 864
f 875 873 874
f 876 875 874
f 877 875 876
f 878 877 876
f 879 878 880
f 879 877 878
f 881 879 880
f 882 879 881
f 883 882 881
f 884 883 885
f 884 882 883
f 886 884 885
f 887 884 886
f 888 887 886
f 889 888 890
f 889 887 888
f 891 889 890
f 892 889 891
f 893 892 891
f 894 893 895
f 894 892 893
f 896 897 898
f 896 898 899
f 900 899 901
f 900 896 899
f 902 901 903
f 902 900 901
f 904 903 905
f 904 902 903
f 906 905 907
f 906 904 905
f 908 906 907
f 908 907 909
f 910 908 909
f 910 909 911
f 912 910 911
f 912 911 913
f 914 912 913
f 914 913 915
f 916 914 915
f 916 915 917
f 918 916 917
f 918 917 919
f 920 918 919
f 920 919 921
f 922 920 921
f 922 921 923
f 924 922 923
f 924 923 925
f 926 924 925
f 926 925 927
f 928 927 929
f 928 926 927
f 930 929 931
f 930 928 929
f 932 931 933
f 932 930 931
f 934 933 935
f 934 932 933
f 936 935 937
f 936 934 935
f 938 937 939
f 938 936 937
f 940 939 941
f 940 938 939
f 942 941 943
f 942 940 941
f 944 943 945
f 944 942 943
f 946 945 947
f 946 944 945
f 948 947 949
f 948 946 947
f 950 951 949
f 952 951 950
f 953 948 949
f 953 949 951
f 954 952 950
f 955 954 950
f 956 955 950
f 956 957 955
f 958 957 956
f 959 958 956
f 960 958 959
f 961 960 959
f 962 960 961
f 963 962 961
f 964 962 963
f 965 964 963
f 966 964 965
f 967 966 965
f 968 966 967
f 969 968 967
f 970 968 969
f 971 970 969
f 972 970 971
f 973 972 971
f 974 972 973
f 975 976 977
f 978 979 980
f 978 980 981
f 982 983 978
f 982 981 975
f 982 984 985
f 982 977 984
f 982 975 977
f 982 978 981
f 986 982 987
f 988 989 990
f 988 990 991
f 988 991 992
f 988 992 993
f 994 982 986
f 995 993 983
f 995 983 982
f 995 988 993
f 995 982 994
f 996 997 998
f 996 999 997
f 1000 1001 1002
f 1003 1002 1004
f 1003 1000 1002
f 1005 1006 1001
f 1005 1001 1000
f 1007 1003 1004
f 1008 1007 1004
f 1009 1010 1006
f 1009 1006 1005
f 1011 1007 1008
f 1012 1011 1008
f 1013 1014 1010
f 1013 1010 1009
f 1015 1011 1012
f 1016 1014 1013
f 1017 1015 1012
f 1018 1016 1013
f 1019 1015 1017
f 1020 1016 1018
f 1021 1019 1017
f 1022 1020 1018
f 1023 1019 1021
f 1024 1020 1022
f 1025 1023 1021
f 1026 1024 1022
f 1027 1023 1025
f 1028 1024 1026
f 1029 1027 1025
f 1030 1028 1026
f 1031 1027 1029
f 1032 1028 1030
f 1033 1031 1029
f 1034 1032 1030
f 1035 1031 1033
f 1036 1034 1037
f 1036 1032 1034
f 1038 1035 1033
f 1038 1039 1035
f 1040 1037 1041
f 1040 1036 1037
f 1042 1039 1038
f 1042 1043 1039
f 1044 1041 1045
f 1044 1040 1041
f 1046 1047 1043
f 1046 1043 1042
f 1048 1045 1049
f 1048 1044 1045
f 1050 1051 1047
f 1050 1047 1046
f 1052 1051 1050
f 1053 1048 1049
f 1053 1049 1054
f 1055 1052 1050
f 1056 1053 1054
f 1057 1052 1055
f 1058 1053 1056
f 1059 1057 1055
f 1060 1056 1061
f 1060 1058 1056
f 1062 1063 1057
f 1062 1057 1059
f 1064 1060 1061
f 1065 1060 1064
f 1066 1067 1063
f 1066 1063 1062
f 1068 1064 1069
f 1068 1069 1070
f 1068 1065 1064
f 1071 1068 1070
f 1071 1070 1067
f 1071 1067 1066
f 1072 1073 1074
f 1075 1072 1074
f 1075 1076 1072
f 1075 1074 1077
f 1075 1077 1078
f 1075 1078 1079
f 1080 1075 1079
f 1080 1079 1081
f 1082 1080 1081
f 1082 1081 1083
f 1084 1082 1083
f 1084 1085 1086
f 1084 1083 1085
f 1087 1084 1086
f 1087 1086 1088
f 1089 1087 1088
f 1089 1090 1091
f 1089 1088 1090
f 1092 1089 1091
f 1092 1091 1093
f 1094 1092 1093
f 1094 1093 1095
f 1096 1094 1095
f 1097 1094 1096
f 1097 1096 1098
f 1099 1098 1096
f 1100 1099 1096
f 1101 1100 1096
f 1102 1096 1103
f 1102 1101 1096
f 1104 1102 1103
f 1105 1104 1103
f 1106 1094 1097
f 1107 1105 1103
f 1108 1107 1103
f 1109 1108 1103
f 1110 1111 1109
f 1110 1112 1113
f 1110 1103 1112
f 1110 1109 1103
f 1114 1110 1113
f 1114 1113 1115
f 1116 1115 1117
f 1116 1114 1115
f 1118 1117 1119
f 1118 1116 1117
f 1120 1118 1119
f 1120 1119 1121
f 1122 1120 1121
f 1122 1121 1123
f 1124 1122 1123
f 1124 1123 1125
f 1126 1124 1125
f 1126 1125 1127
f 1126 1127 1128
f 1129 1126 1128
f 1129 1128 1130
f 1131 1126 1129
f 1132 1131 1129
f 1133 1131 1132
f 1134 1133 1132
f 1135 1133 1134
f 1135 1134 1136
f 1137 1135 1136
f 1138 1135 1137
f 1139 1138 1137
f 1140 1138 1139
f 1141 1140 1139
f 1142 1140 1141
f 1142 1141 1143
f 1144 1142 1143
f 1145 1142 1144
f 1146 1145 1144
f 1147 1145 1146
f 1147 1146 1148
f 1149 1147 1148
f 1150 1147 1149
f 1151 1150 1149
f 1152 1150 1151
f 1153 1152 1151
f 1154 1152 1153
f 1155 1152 1154
f 1156 1155 1154
f 1157 1155 1156
f 1158 1157 1156
f 1159 1157 1158
f 1159 1158 1160
f 1161 1159 1160
f 1162 1159 1161
f 1163 1162 1161
f 1164 1162 1163
f 1164 1163 1165
f 1166 1164 1165
f 1167 1164 1166
f 1168 1167 1166
f 1169 1168 1170
f 1169 1167 1168
f 1171 1169 1170
f 1172 1169 1171
f 1173 1172 1171
f 1174 1173 1072
f 1174 1172 1173
f 1175 1176 1177
f 1178 1177 1179
f 1178 1179 1180
f 1181 1182 1175
f 1183 1184 1181
f 1183 1181 1175
f 1185 1186 1187
f 1188 1178 1186
f 1188 1175 1177
f 1188 1177 1178
f 1188 1186 1185
f 1189 1190 1191
f 1192 1188 1193
f 1192 1193 1194
f 1195 1196 1189
f 1195 1191 1183
f 1195 1189 1191
f 1197 1198 1195
f 1197 1183 1175
f 1197 1175 1188
f 1197 1195 1183
f 1199 1192 1200
f 1199 1200 1201
f 1199 1188 1192
f 1202 1203 1197
f 1204 1199 1205
f 1204 1205 1206
f 1204 1206 1207
f 1204 1188 1199
f 1208 1188 1204
f 1208 1209 1210
f 1208 1210 1202
f 1208 1197 1188
f 1208 1202 1197
f 1211 1212 1213
f 1211 1214 1212
f 1215 1213 1216
f 1215 1211 1213
f 1217 1216 1218
f 1217 1215 1216
f 1219 1217 1218
f 1220 1218 1221
f 1220 1219 1218
f 1222 1221 1223
f 1222 1220 1221
f 1224 1223 1225
f 1224 1222 1223
f 1226 1225 1227
f 1226 1224 1225
f 1228 1227 1229
f 1228 1226 1227
f 1230 1229 1231
f 1230 1228 1229
f 1232 1231 1233
f 1232 1230 1231
f 1234 1233 1235
f 1234 1232 1233
f 1236 1237 1238
f 1236 1238 1239
f 1240 1239 1241
f 1240 1236 1239
f 1242 1241 1243
f 1242 1240 1241
f 1244 1243 1245
f 1244 1242 1243
f 1246 1245 1247
f 1246 1244 1245
f 1248 1247 1249
f 1248 1246 1247
f 1250 1249 1251
f 1250 1248 1249
f 1252 1251 1253
f 1252 1253 1254
f 1252 1250 1251
f 1255 1254 1256
f 1255 1252 1254
f 1257 1256 1258
f 1257 1255 1256
f 1259 1258 1260
f 1259 1257 1258
f 1259 1129 1261
f 836 838 1212
f 1262 1263 1264
f 1265 1266 1267
f 1268 1269 781
f 1268 1262 1269
f 1270 1271 1272
f 1268 1273 1265
f 1268 1274 1273
f 1268 1267 1263
f 1268 1263 1262
f 1268 1265 1267
f 1275 1276 1277
f 1278 1279 1280
f 1281 1280 1276
f 1281 1282 1073
f 1281 1275 1282
f 1283 1284 838
f 1281 1285 1278
f 1281 1286 1285
f 1281 1276 1275
f 1281 1278 1280
f 1287 1288 1289
f 1290 1291 1292
f 1293 1294 1291
f 1293 1291 1290
f 1295 1296 1297
f 1298 1295 1297
f 1299 1295 1298
f 1300 1301 1302
f 1303 1301 1300
f 1304 1303 1300
f 1305 1303 1304
f 1306 1307 1308
f 1309 1310 1311
f 1309 1312 1310
f 1313 1312 1309
f 1314 1315 1316
f 1314 1316 1317
f 1318 1319 1320
f 1321 1322 1323
f 1324 1318 1320
f 1325 1293 1297
f 1325 1296 1294
f 1325 1294 1293
f 1325 1297 1296
f 1326 1298 1302
f 1326 1301 1299
f 1326 1299 1298
f 1326 1302 1301
f 1327 1304 1328
f 1327 1305 1304
f 1329 1330 1331
f 1332 1333 1334
f 1332 1335 1336
f 1337 1338 1339
f 1340 1306 1308
f 1340 1311 1310
f 1340 1310 1306
f 1340 1308 1311
f 1341 1316 1313
f 1341 1313 1309
f 1341 1317 1316
f 1341 1309 1317
f 1342 1319 1315
f 1342 1314 1320
f 1342 1315 1314
f 1342 1320 1319
f 1343 1344 1305
f 1343 1327 1328
f 1343 1305 1327
f 1345 1343 1328
f 1345 1328 1346
f 1345 1331 1344
f 1345 1344 1343
f 1347 1346 1348
f 1347 1348 1329
f 1347 1329 1331
f 1347 1331 1345
f 1347 1345 1346
f 1349 1329 1348
f 1349 1330 1329
f 1350 1348 1351
f 1350 1349 1348
f 1350 1330 1349
f 1350 1352 1330
f 1353 1350 1351
f 1353 1352 1350
f 1354 1351 1335
f 1354 1334 1352
f 1354 1353 1351
f 1354 1352 1353
f 1355 1335 1332
f 1355 1332 1334
f 1355 1334 1354
f 1355 1354 1335
f 1356 1333 1332
f 1356 1332 1336
f 1356 1336 1357
f 1358 1356 1357
f 1358 1333 1356
f 1359 1358 1357
f 1359 1333 1358
f 1359 1360 1333
f 1359 1357 1338
f 1361 1337 1362
f 1361 1362 1360
f 1361 1338 1337
f 1361 1360 1359
f 1361 1359 1338
f 1363 1337 1339
f 1363 1362 1337
f 1364 1363 1339
f 1364 1308 1307
f 1364 1307 1362
f 1364 1339 1308
f 1364 1362 1363
f 1365 1366 1367
f 1368 1369 1260
f 1370 1371 1369
f 1370 1369 1368
f 1372 1373 1374
f 1375 1372 1374
f 1376 1372 1375
f 1377 1378 1379
f 1380 1378 1377
f 1381 1380 1377
f 1382 1380 1381
f 1383 1384 1385
f 1386 1387 1388
f 1386 1389 1387
f 1390 1389 1386
f 1391 1392 1393
f 1391 1393 1394
f 1395 1396 1397
f 1398 1399 1400
f 1401 1395 1397
f 1402 1370 1374
f 1402 1373 1371
f 1402 1371 1370
f 1402 1374 1373
f 1403 1375 1379
f 1403 1378 1376
f 1403 1376 1375
f 1403 1379 1378
f 1404 1381 1405
f 1404 1382 1381
f 1406 1407 1408
f 1409 1410 1153
f 1409 1411 1412
f 1413 1414 1415
f 1416 1385 1388
f 1416 1383 1385
f 1416 1388 1387
f 1416 1387 1383
f 1417 1393 1390
f 1417 1390 1386
f 1417 1394 1393
f 1417 1386 1394
f 1418 1396 1392
f 1418 1391 1397
f 1418 1392 1391
f 1418 1397 1396
f 1419 1420 1382
f 1419 1404 1405
f 1419 1382 1404
f 1421 1405 1422
f 1421 1420 1419
f 1421 1408 1420
f 1421 1419 1405
f 1423 1422 1424
f 1423 1421 1422
f 1423 1424 1406
f 1423 1406 1408
f 1423 1408 1421
f 1425 1406 1424
f 1425 1407 1406
f 1426 1424 1427
f 1426 1428 1407
f 1426 1425 1424
f 1426 1407 1425
f 1429 1426 1427
f 1429 1428 1426
f 1430 1427 1411
f 1430 1153 1428
f 1430 1429 1427
f 1430 1428 1429
f 1431 1409 1153
f 1431 1411 1409
f 1431 1430 1411
f 1431 1153 1430
f 1432 1409 1412
f 1432 1410 1409
f 1432 1412 1433
f 1434 1410 1432
f 1434 1432 1433
f 1435 1410 1434
f 1435 1434 1433
f 1435 1436 1410
f 1435 1433 1414
f 1437 1413 1438
f 1437 1414 1413
f 1437 1438 1436
f 1437 1436 1435
f 1437 1435 1414
f 1439 1413 1415
f 1439 1438 1413
f 1440 1439 1415
f 1440 1385 1384
f 1440 1384 1438
f 1440 1415 1385
f 1440 1438 1439
f 1441 1442 1443
f 1441 1443 1444
f 1445 1444 1446
f 1445 1441 1444
f 1447 1446 1448
f 1447 1445 1446
f 1449 1448 1450
f 1449 1447 1448
f 1451 1450 1452
f 1451 1449 1450
f 1453 1451 1452
f 1453 1452 1454
f 1455 1453 1454
f 1455 1454 1456
f 1457 1455 1456
f 1457 1456 1458
f 1459 1457 1458
f 1459 1458 1460
f 1461 1459 1460
f 1461 1460 1462
f 1463 1461 1462
f 1463 1462 1464
f 1465 1463 1464
f 1465 1464 1466
f 1467 1465 1466
f 1467 1466 1468
f 1469 1467 1468
f 1469 1468 1470
f 1471 1469 1470
f 1471 1470 1472
f 1473 1471 1472
f 1473 1472 1474
f 1475 1473 1474
f 1475 1474 1476
f 1477 1475 1476
f 1477 1476 1478
f 1479 1478 1480
f 1479 1477 1478
f 1481 1480 1482
f 1481 1479 1480
f 1483 1482 1484
f 1483 1481 1482
f 1485 1484 1486
f 1485 1483 1484
f 1487 1486 1488
f 1487 1485 1486
f 1489 1488 1490
f 1489 1487 1488
f 1491 1490 1492
f 1491 1489 1490
f 1493 1492 1494
f 1493 1491 1492
f 1495 1494 1496
f 1495 1493 1494
f 1497 1496 1498
f 1497 1495 1496
f 1499 1500 1501
f 1499 1498 1500
f 1499 1497 1498
f 1502 1499 1501
f 1503 1501 1504
f 1503 1502 1501
f 1505 1503 1504
f 1505 1506 1507
f 1505 1504 1506
f 1508 1505 1507
f 1509 1508 1507
f 1509 1507 1510
f 1511 1509 1510
f 1511 1512 1513
f 1511 1510 1512
f 1514 1511 1513
f 1515 1516 1517
f 1515 1517 1518
f 1519 1520 1521
f 1519 1521 1522
f 1519 1522 1523
f 1519 1523 1524
f 1519 1524 1525
f 1519 1525 1526
f 1519 1526 1527
f 1519 1527 1528
f 1519 1528 1529
f 1519 1529 1530
f 1519 1530 1531
f 1519 1531 1532
f 1519 1532 1533
f 1519 1533 1534
f 1519 1534 1535
f 1536 1537 1520
f 1538 1520 1519
f 1538 1536 1520
f 1539 1538 1519
f 1540 1541 1542
f 1543 1540 1542
f 1544 1545 1546
f 1547 1548 1545
f 1547 1549 1548
f 1547 1545 1544
f 1550 1551 1549
f 1550 1552 1551
f 1550 1549 1547
f 1553 1554 1552
f 1553 1552 1550
f 1555 1556 1554
f 1555 1557 1556
f 1555 1554 1553
f 1558 1559 1557
f 1558 1557 1555
f 1560 1561 1559
f 1560 1562 1561
f 1560 1559 1558
f 1563 1564 1562
f 1563 1562 1560
f 1565 1566 1564
f 1565 1567 1566
f 1565 1564 1563
f 1568 1569 1567
f 1568 1567 1565
f 1570 1571 1569
f 1570 1569 1568
f 1572 1573 1574
f 1575 1576 1577
f 1575 1577 1573
f 1575 1573 1572
f 1578 1579 1580
f 1578 1580 1576
f 1578 1576 1575
f 1581 1582 1579
f 1581 1579 1578
f 1583 1584 1585
f 1583 1585 1582
f 1583 1582 1581
f 1586 1587 1584
f 1586 1584 1583
f 1588 1589 1590
f 1588 1590 1587
f 1588 1587 1586
f 1591 1592 1589
f 1591 1589 1588
f 1593 1594 1595
f 1593 1595 1592
f 1593 1592 1591
f 1596 1597 1594
f 1596 1594 1593
f 1598 1599 1597
f 1598 1597 1596
f 1600 1601 1602
f 1603 1601 1600
f 1604 1605 1601
f 1604 1606 1605
f 1607 1608 1606
f 1607 1606 1604
f 1609 1608 1607
f 1610 1611 1608
f 1610 1608 1609
f 1612 1613 1611
f 1612 1611 1610
f 1614 1613 1612
f 1615 1616 1613
f 1615 1613 1614
f 1617 1618 1616
f 1617 1616 1615
f 1619 1618 1617
f 1620 1621 1618
f 1620 1618 1619
f 1622 1623 1621
f 1622 1621 1620
f 1624 1623 1622
f 1625 1626 1623
f 1625 1623 1624
f 1627 1626 1625
f 1628 1629 1626
f 1628 1626 1627
f 997 1629 1628

