# https://github.com/mikedh/trimesh
v 0.00932795 0.05540502 0.70548701
v -0.01372599 0.05472999 0.70481199
v -0.00691795 0.05566400 0.70574600
v 0.00000000 0.05598002 0.70606101
v 0.01840698 0.05371701 0.70379901
v -0.02306795 0.05239498 0.70247698
v -0.07369798 -0.01862293 0.63145900
v -0.07474499 -0.01060694 0.63947499
v -0.07407599 -0.00310898 0.64697301
v 0.02698999 0.05102699 0.70110899
v -0.03268897 0.04859203 0.69867402
v 0.03501695 0.04743403 0.69751602
v -0.04224199 0.04316198 0.69324398
v 0.04257500 0.04293799 0.69301999
v 0.04960197 0.03756701 0.68764901
v -0.05147898 0.03589600 0.68597800
v 0.05599898 0.03137099 0.68145299
v -0.06111794 0.02516603 0.67524803
v 0.06162399 0.02447402 0.67455500
v 0.06641799 0.01694399 0.66702598
v -0.06906497 0.01173001 0.66181201
v 0.07149195 0.00581199 0.65589398
v 0.07410299 -0.00324696 0.64683503
v 0.07384198 -0.01801097 0.63207102
v 0.07475000 -0.00989693 0.64018500
v 0.07070297 -0.02791094 0.62217098
v -0.06962800 -0.03048998 0.61959201
v 0.00384796 -0.07591795 0.57416397
v 0.00000000 -0.07601493 0.57406700
v -0.00938296 -0.07543295 0.57464898
v 0.00765997 -0.07562798 0.57445401
v 0.06593298 -0.03781592 0.61226600
v -0.06345599 -0.04183697 0.60824400
v 0.01405996 -0.07470196 0.57538003
v -0.01849395 -0.07372796 0.57635403
v 0.02022695 -0.07327097 0.57681102
v -0.02449095 -0.07195693 0.57812500
v 0.05886799 -0.04807597 0.60200602
v -0.05507600 -0.05237597 0.59770602
v 0.02613896 -0.07137393 0.57870799
v -0.03041797 -0.06965595 0.58042598
v 0.05216795 -0.05527198 0.59481001
v -0.04504197 -0.06121695 0.58886403
v 0.03601098 -0.06693297 0.58314902
v -0.03601098 -0.06693297 0.58314902
v 0.04504197 -0.06121695 0.58886403
v -0.03545600 0.02263402 0.68835700
v -0.03480094 0.02448499 0.68712300
v -0.03550297 0.02427899 0.68691802
v -0.03624194 0.02415400 0.68679202
v -0.03700000 0.02411103 0.68674999
v -0.03406399 0.02313601 0.68885899
v -0.03357499 0.02511399 0.68775302
v -0.03415298 0.02476501 0.68740398
v -0.03540897 0.02099001 0.68979698
v -0.03295797 0.02391803 0.68964100
v -0.03268498 0.02598100 0.68861997
v -0.03308194 0.02552300 0.68816203
v -0.03397399 0.02150702 0.69031399
v -0.03536200 0.01934498 0.69123602
v -0.03224897 0.02490198 0.69062501
v -0.03215700 0.02753603 0.69017500
v -0.03221595 0.02700001 0.68963897
v -0.03239399 0.02647799 0.68911701
v -0.03283494 0.02231198 0.69111902
v -0.03388398 0.01987802 0.69176900
v -0.03531497 0.01770001 0.69267601
v -0.03700000 0.01242798 0.69690597
v -0.03210395 0.02332699 0.69213402
v -0.03271198 0.02070701 0.69259799
v -0.03379499 0.01824802 0.69322300
v -0.03526794 0.01605600 0.69411498
v -0.03195899 0.02175199 0.69364297
v -0.03118199 0.01768398 0.70002699
v -0.03258800 0.01910102 0.69407701
v -0.03370499 0.01661902 0.69467801
v -0.03522098 0.01441103 0.69555497
v -0.03181397 0.02017599 0.69515198
v -0.03246498 0.01749598 0.69555497
v -0.03361499 0.01499003 0.69613302
v -0.03517299 0.01276701 0.69699401
v -0.03622895 0.01193302 0.69740200
v -0.03548395 0.01162099 0.69786501
v -0.03485900 0.01149201 0.69823903
v -0.03166896 0.01860100 0.69665998
v -0.03234100 0.01589000 0.69703400
v -0.03352600 0.01336002 0.69758803
v -0.03436499 0.01148402 0.69852698
v -0.03387498 0.01157003 0.69880700
v -0.03345495 0.01172602 0.69903803
v -0.03309798 0.01192802 0.69922799
v -0.03276300 0.01218801 0.69940001
v -0.03247797 0.01248103 0.69954401
v -0.03152400 0.01702499 0.69816899
v -0.03119397 0.01618003 0.70008302
v -0.03116500 0.01690900 0.70006800
v -0.03221797 0.01428502 0.69851297
v -0.03220999 0.01283103 0.69967502
v -0.03193295 0.01329600 0.69980597
v -0.03168898 0.01384103 0.69991499
v -0.03148394 0.01446300 0.69999897
v -0.03137898 0.01545000 0.69967800
v -0.03132498 0.01515603 0.70005500
v -0.04175299 0.02488398 0.69064301
v -0.04184299 0.02753603 0.69017500
v -0.04210698 0.02487099 0.69283998
v -0.04131495 0.02598100 0.68861997
v -0.04160594 0.02647799 0.68911701
v -0.04178398 0.02700001 0.68963897
v -0.04104298 0.02389901 0.68965799
v -0.04042500 0.02511399 0.68775302
v -0.04091799 0.02552300 0.68816203
v -0.04189997 0.02329099 0.69216901
v -0.04206895 0.02307099 0.69296801
v -0.04175996 0.02105998 0.69329703
v -0.03993695 0.02311700 0.68887597
v -0.03919899 0.02448499 0.68712300
v -0.03984695 0.02476501 0.68740398
v -0.04116797 0.02227503 0.69115299
v -0.03854399 0.02261501 0.68837398
v -0.03700000 0.02411103 0.68674999
v -0.03775799 0.02415400 0.68679202
v -0.03849697 0.02427899 0.68691802
v -0.04002797 0.02146899 0.69034702
v -0.04129296 0.02065098 0.69264901
v -0.04131394 0.01935601 0.69370699
v -0.03859198 0.02095198 0.68983001
v -0.04011899 0.01982098 0.69181901
v -0.03863996 0.01928800 0.69128603
v -0.04020994 0.01817297 0.69329101
v -0.04046899 0.01714700 0.69440800
v -0.03868699 0.01762402 0.69274199
v -0.03700000 0.01242798 0.69690597
v -0.03873497 0.01596099 0.69419903
v -0.03953397 0.01537603 0.69513100
v -0.03866595 0.01411098 0.69576597
v -0.03781098 0.01313602 0.69636297
v -0.04184299 0.02753603 0.69017500
v -0.04184299 0.03032600 0.69296497
v -0.04193097 0.02850800 0.69292998
v -0.04201894 0.02668899 0.69288802
v -0.04210698 0.02487099 0.69283998
v -0.03238999 0.03692501 0.69902301
v -0.04142099 0.03234302 0.69408703
v -0.04143697 0.03171598 0.69379801
v -0.03240698 0.03750801 0.69926399
v -0.03118199 0.01768398 0.70002699
v -0.03215795 0.03645700 0.69906598
v -0.03215700 0.03634601 0.69897699
v -0.03215700 0.03624099 0.69888002
v -0.03215700 0.02753603 0.69017500
v -0.03216099 0.03664499 0.69918698
v 0.03224897 0.02490198 0.69062501
v 0.03280597 0.02582401 0.68846202
v 0.03244894 0.02636498 0.68900299
v 0.03222995 0.02694100 0.68958002
v 0.03215700 0.02753603 0.69017500
v 0.03295797 0.02391803 0.68964100
v 0.03328996 0.02533501 0.68797302
v 0.03210395 0.02332699 0.69213402
v 0.03406399 0.02313601 0.68885899
v 0.03457796 0.02456998 0.68720901
v 0.03388696 0.02491301 0.68755102
v 0.03283494 0.02231198 0.69111902
v 0.03195899 0.02175199 0.69364297
v 0.03118199 0.01768398 0.70002699
v 0.03545600 0.02263402 0.68835700
v 0.03700000 0.02411103 0.68674999
v 0.03615897 0.02416300 0.68680203
v 0.03534299 0.02431797 0.68695700
v 0.03397399 0.02150702 0.69031399
v 0.03271198 0.02070701 0.69259799
v 0.03181397 0.02017599 0.69515198
v 0.03540897 0.02099001 0.68979698
v 0.03388398 0.01987701 0.69176900
v 0.03258800 0.01910102 0.69407701
v 0.03166896 0.01860100 0.69665998
v 0.03536200 0.01934498 0.69123602
v 0.03379499 0.01824802 0.69322300
v 0.03246498 0.01749598 0.69555497
v 0.03152400 0.01702499 0.69816899
v 0.03121095 0.01598900 0.70008200
v 0.03531497 0.01770001 0.69267601
v 0.03700000 0.01242798 0.69690597
v 0.03370499 0.01661902 0.69467801
v 0.03234100 0.01589000 0.69703400
v 0.03137898 0.01545000 0.69967800
v 0.03142797 0.01467502 0.70002002
v 0.03526794 0.01605600 0.69411498
v 0.03361499 0.01499003 0.69613302
v 0.03221797 0.01428502 0.69851297
v 0.03171598 0.01377302 0.69990402
v 0.03204399 0.01309502 0.69975501
v 0.03241795 0.01255303 0.69957399
v 0.03522098 0.01441103 0.69555497
v 0.03352600 0.01336002 0.69758803
v 0.03280997 0.01214599 0.69937497
v 0.03320896 0.01185297 0.69916499
v 0.03360795 0.01165503 0.69894999
v 0.03402996 0.01152998 0.69871598
v 0.03448897 0.01147699 0.69845498
v 0.03489899 0.01149600 0.69821602
v 0.03517299 0.01276701 0.69699401
v 0.03527599 0.01156401 0.69799101
v 0.03566598 0.01168203 0.69775301
v 0.03620398 0.01192003 0.69741797
v 0.03659999 0.01214998 0.69716603
v 0.03215897 0.03652602 0.69911402
v 0.03216099 0.03664499 0.69918698
v 0.03118199 0.01768398 0.70002699
v 0.03215795 0.03641200 0.69903100
v 0.03215700 0.03624099 0.69888002
v 0.03215700 0.02753603 0.69017500
v 0.04142099 0.03234302 0.69408703
v 0.03240698 0.03750801 0.69926399
v 0.03238999 0.03692501 0.69902301
v 0.04143697 0.03171598 0.69379801
v 0.04184299 0.02753603 0.69017500
v 0.04193097 0.02850800 0.69292998
v 0.04184299 0.03032600 0.69296497
v 0.04201894 0.02668899 0.69288802
v 0.04210698 0.02487099 0.69283998
v 0.03854399 0.02261501 0.68837398
v 0.03919899 0.02448499 0.68712300
v 0.03849697 0.02427899 0.68691802
v 0.03775799 0.02415400 0.68679202
v 0.03700000 0.02411103 0.68674999
v 0.03993695 0.02311700 0.68887597
v 0.04042500 0.02511399 0.68775302
v 0.03984695 0.02476501 0.68740398
v 0.03859198 0.02095198 0.68983001
v 0.04104298 0.02389901 0.68965799
v 0.04131495 0.02598100 0.68861997
v 0.04091799 0.02552300 0.68816203
v 0.04002797 0.02146899 0.69034702
v 0.03863996 0.01928800 0.69128603
v 0.04175299 0.02488398 0.69064301
v 0.04184299 0.02753603 0.69017500
v 0.04178398 0.02700001 0.68963897
v 0.04160594 0.02647799 0.68911701
v 0.04210698 0.02487099 0.69283998
v 0.04116797 0.02227503 0.69115299
v 0.04011899 0.01982098 0.69181901
v 0.03868699 0.01762402 0.69274199
v 0.03700000 0.01242798 0.69690597
v 0.04189997 0.02329099 0.69216901
v 0.04205900 0.02297198 0.69297802
v 0.04211795 0.02393198 0.69288301
v 0.04129296 0.02065098 0.69264901
v 0.04119098 0.01897799 0.69381201
v 0.04172796 0.02091199 0.69332802
v 0.04020994 0.01817297 0.69329101
v 0.04004698 0.01628303 0.69474000
v 0.03873497 0.01596099 0.69419903
v 0.03804695 0.01337999 0.69620103
v 0.03914999 0.01477903 0.69541597
v -0.04020094 0.02862703 0.68988198
v -0.03862500 0.03021901 0.69147301
v -0.03908896 0.02998900 0.69124299
v -0.03948998 0.02970600 0.69095999
v -0.03981494 0.02937698 0.69063199
v -0.04005396 0.02901399 0.69026899
v -0.04020094 0.02782899 0.68908298
v -0.04025000 0.02822798 0.68948299
v -0.03981494 0.02707898 0.68833297
v -0.04005396 0.02744203 0.68869698
v -0.03948998 0.02675098 0.68800497
v -0.03491097 0.02998900 0.69124299
v -0.03537499 0.03021901 0.69147301
v -0.03588795 0.03038799 0.69164199
v -0.03643596 0.03049200 0.69174600
v -0.03862500 0.02623802 0.68749201
v -0.03908896 0.02646803 0.68772203
v -0.03418499 0.02937698 0.69063199
v -0.03450995 0.02970600 0.69095999
v -0.03811198 0.02606898 0.68732297
v -0.03756397 0.02596503 0.68721902
v -0.03756397 0.03049200 0.69174600
v -0.03811198 0.03038799 0.69164199
v -0.03379899 0.02862703 0.68988198
v -0.03394597 0.02901399 0.69026899
v -0.03700000 0.02592998 0.68718398
v -0.03643596 0.02596503 0.68721902
v -0.03700000 0.03052598 0.69178098
v -0.03379899 0.02782899 0.68908298
v -0.03374999 0.02822798 0.68948299
v -0.03450995 0.02675098 0.68800497
v -0.03588795 0.02606898 0.68732297
v -0.03418499 0.02707898 0.68833297
v -0.03394597 0.02744203 0.68869698
v -0.03491097 0.02646803 0.68772203
v -0.03537499 0.02623802 0.68749201
v -0.03948998 0.02921098 0.69145501
v -0.03908896 0.02949398 0.69173801
v -0.04154396 0.03110599 0.69335002
v -0.03862500 0.02972400 0.69196802
v -0.03981494 0.02888202 0.69112700
v -0.03811198 0.02989298 0.69213700
v -0.04005396 0.02851903 0.69076300
v -0.04154396 0.02773302 0.68997699
v -0.03756397 0.02999699 0.69224101
v -0.04020094 0.02813202 0.69037700
v -0.03700000 0.03003203 0.69227600
v -0.03245598 0.03643900 0.69868201
v -0.04025000 0.02773302 0.68997699
v -0.04147499 0.02717500 0.68941998
v -0.03643596 0.02999699 0.69224101
v -0.04020094 0.02733403 0.68957800
v -0.04126995 0.02663403 0.68887901
v -0.03588795 0.02989298 0.69213700
v -0.04005396 0.02694702 0.68919098
v -0.04093497 0.02612698 0.68837100
v -0.03537499 0.02972400 0.69196802
v -0.03981494 0.02658402 0.68882799
v -0.04048097 0.02566802 0.68791199
v -0.03491097 0.02949398 0.69173801
v -0.03948998 0.02625602 0.68849999
v -0.03450995 0.02921098 0.69145501
v -0.03992098 0.02527201 0.68751597
v -0.03908896 0.02597302 0.68821698
v -0.03927195 0.02495098 0.68719500
v -0.03862500 0.02574300 0.68798703
v -0.03855395 0.02471399 0.68695801
v -0.03811198 0.02557402 0.68781799
v -0.03778898 0.02456903 0.68681300
v -0.03756397 0.02547001 0.68771398
v -0.03245598 0.02773302 0.68997699
v -0.03418499 0.02888202 0.69112700
v -0.03394597 0.02851903 0.69076300
v -0.03379899 0.02813202 0.69037700
v -0.03374999 0.02773302 0.68997699
v -0.03379899 0.02733403 0.68957800
v -0.03700000 0.02451997 0.68676400
v -0.03700000 0.02543503 0.68767899
v -0.03621095 0.02456903 0.68681300
v -0.03643596 0.02547001 0.68771398
v -0.03252500 0.02717500 0.68941998
v -0.03394597 0.02694702 0.68919098
v -0.03544598 0.02471399 0.68695801
v -0.03588795 0.02557402 0.68781799
v -0.03272998 0.02663403 0.68887901
v -0.03418499 0.02658402 0.68882799
v -0.03472799 0.02495098 0.68719500
v -0.03537499 0.02574300 0.68798703
v -0.03306496 0.02612698 0.68837100
v -0.03450995 0.02625602 0.68849999
v -0.03407895 0.02527201 0.68751597
v -0.03491097 0.02597302 0.68821698
v -0.03351897 0.02566802 0.68791199
v 0.03418499 0.02937698 0.69063199
v 0.03491097 0.02998900 0.69124299
v 0.03450995 0.02970600 0.69095999
v 0.03588795 0.03038799 0.69164199
v 0.03537499 0.03021901 0.69147301
v 0.03374999 0.02822798 0.68948299
v 0.03394597 0.02901399 0.69026899
v 0.03379899 0.02862703 0.68988198
v 0.03394597 0.02744203 0.68869698
v 0.03379899 0.02782899 0.68908298
v 0.03450995 0.02675098 0.68800497
v 0.03418499 0.02707898 0.68833297
v 0.03491097 0.02646803 0.68772203
v 0.03588795 0.02606898 0.68732297
v 0.03537499 0.02623802 0.68749201
v 0.04005396 0.02901399 0.69026899
v 0.03981494 0.02937698 0.69063199
v 0.03948998 0.02970600 0.69095999
v 0.03700000 0.02592998 0.68718398
v 0.03643596 0.02596503 0.68721902
v 0.03756397 0.02596503 0.68721902
v 0.04020094 0.02782899 0.68908298
v 0.04025000 0.02822798 0.68948299
v 0.04020094 0.02862703 0.68988198
v 0.03811198 0.02606898 0.68732297
v 0.03700000 0.03052598 0.69178098
v 0.03643596 0.03049200 0.69174600
v 0.03862500 0.03021901 0.69147301
v 0.03811198 0.03038799 0.69164199
v 0.03756397 0.03049200 0.69174600
v 0.03981494 0.02707898 0.68833297
v 0.04005396 0.02744203 0.68869698
v 0.03908896 0.02646803 0.68772203
v 0.03862500 0.02623802 0.68749201
v 0.03948998 0.02675098 0.68800497
v 0.03908896 0.02998900 0.69124299
v 0.03450995 0.02921098 0.69145501
v 0.03491097 0.02949398 0.69173801
v 0.03245598 0.03643798 0.69868201
v 0.03245598 0.02773302 0.68997699
v 0.03537499 0.02972400 0.69196802
v 0.03418499 0.02888202 0.69112700
v 0.03588795 0.02989298 0.69213700
v 0.03394597 0.02851903 0.69076300
v 0.03643596 0.02999699 0.69224101
v 0.03379899 0.02813202 0.69037700
v 0.03700000 0.03003203 0.69227600
v 0.03374999 0.02773302 0.68997699
v 0.03252500 0.02717500 0.68941998
v 0.03379899 0.02733403 0.68957800
v 0.03394597 0.02694702 0.68919098
v 0.03272998 0.02663403 0.68887901
v 0.03418499 0.02658402 0.68882799
v 0.03306496 0.02612698 0.68837100
v 0.03450995 0.02625602 0.68849999
v 0.03351897 0.02566802 0.68791199
v 0.04154396 0.03110599 0.69335002
v 0.03756397 0.02999699 0.69224101
v 0.03811198 0.02989298 0.69213700
v 0.03862500 0.02972400 0.69196802
v 0.03908896 0.02949398 0.69173801
v 0.03948998 0.02921098 0.69145501
v 0.03491097 0.02597302 0.68821698
v 0.03407895 0.02527201 0.68751597
v 0.03981494 0.02888202 0.69112700
v 0.03537499 0.02574300 0.68798703
v 0.03472799 0.02495098 0.68719500
v 0.04005396 0.02851903 0.69076300
v 0.03588795 0.02557402 0.68781799
v 0.03544598 0.02471399 0.68695801
v 0.03643596 0.02547001 0.68771398
v 0.03621095 0.02456903 0.68681300
v 0.03700000 0.02543503 0.68767899
v 0.03700000 0.02451997 0.68676400
v 0.03756397 0.02547001 0.68771398
v 0.04154396 0.02773302 0.68997699
v 0.04020094 0.02813202 0.69037700
v 0.04025000 0.02773302 0.68997699
v 0.03778898 0.02456903 0.68681300
v 0.03811198 0.02557402 0.68781799
v 0.04147499 0.02717500 0.68941998
v 0.04020094 0.02733403 0.68957800
v 0.03855395 0.02471399 0.68695801
v 0.03862500 0.02574300 0.68798703
v 0.04126995 0.02663403 0.68887901
v 0.04005396 0.02694702 0.68919098
v 0.03927195 0.02495098 0.68719500
v 0.03908896 0.02597302 0.68821698
v 0.04093497 0.02612698 0.68837100
v 0.03981494 0.02658402 0.68882799
v 0.03992098 0.02527201 0.68751597
v 0.03948998 0.02625602 0.68849999
v 0.04048097 0.02566802 0.68791199
v -0.03700000 0.03003203 0.69227600
v -0.03756397 0.03049200 0.69174600
v -0.03700000 0.03052598 0.69178098
v -0.03756397 0.02999699 0.69224101
v -0.03811198 0.03038799 0.69164199
v -0.03811198 0.02989298 0.69213700
v -0.03862500 0.03021901 0.69147301
v -0.03862500 0.02972400 0.69196802
v -0.03908896 0.02998900 0.69124299
v -0.03908896 0.02949398 0.69173801
v -0.03948998 0.02970600 0.69095999
v -0.03948998 0.02921098 0.69145501
v -0.03981494 0.02937698 0.69063199
v -0.03981494 0.02888202 0.69112700
v -0.04005396 0.02901399 0.69026899
v -0.04005396 0.02851903 0.69076300
v -0.04020094 0.02862703 0.68988198
v -0.04020094 0.02813202 0.69037700
v -0.04025000 0.02822798 0.68948299
v -0.04025000 0.02773302 0.68997699
v -0.04020094 0.02782899 0.68908298
v -0.04020094 0.02733403 0.68957800
v -0.04005396 0.02744203 0.68869698
v -0.04005396 0.02694702 0.68919098
v -0.03981494 0.02707898 0.68833297
v -0.03981494 0.02658402 0.68882799
v -0.03948998 0.02675098 0.68800497
v -0.03948998 0.02625602 0.68849999
v -0.03908896 0.02646803 0.68772203
v -0.03908896 0.02597302 0.68821698
v -0.03862500 0.02623802 0.68749201
v -0.03862500 0.02574300 0.68798703
v -0.03811198 0.02606898 0.68732297
v -0.03811198 0.02557402 0.68781799
v -0.03756397 0.02596503 0.68721902
v -0.03756397 0.02547001 0.68771398
v -0.03700000 0.02592998 0.68718398
v -0.03700000 0.02543503 0.68767899
v -0.03643596 0.02596503 0.68721902
v -0.03643596 0.02547001 0.68771398
v -0.03588795 0.02606898 0.68732297
v -0.03588795 0.02557402 0.68781799
v -0.03537499 0.02623802 0.68749201
v -0.03537499 0.02574300 0.68798703
v -0.03491097 0.02646803 0.68772203
v -0.03491097 0.02597302 0.68821698
v -0.03450995 0.02675098 0.68800497
v -0.03450995 0.02625602 0.68849999
v -0.03418499 0.02707898 0.68833297
v -0.03418499 0.02658402 0.68882799
v -0.03394597 0.02744203 0.68869698
v -0.03394597 0.02694702 0.68919098
v -0.03379899 0.02782899 0.68908298
v -0.03379899 0.02733403 0.68957800
v -0.03374999 0.02822798 0.68948299
v -0.03374999 0.02773302 0.68997699
v -0.03379899 0.02862703 0.68988198
v -0.03379899 0.02813202 0.69037700
v -0.03394597 0.02901399 0.69026899
v -0.03394597 0.02851903 0.69076300
v -0.03418499 0.02937698 0.69063199
v -0.03418499 0.02888202 0.69112700
v -0.03450995 0.02970600 0.69095999
v -0.03450995 0.02921098 0.69145501
v -0.03491097 0.02998900 0.69124299
v -0.03491097 0.02949398 0.69173801
v -0.03537499 0.03021901 0.69147301
v -0.03537499 0.02972400 0.69196802
v -0.03588795 0.03038799 0.69164199
v -0.03588795 0.02989298 0.69213700
v -0.03643596 0.03049200 0.69174600
v -0.03643596 0.02999699 0.69224101
v -0.03700000 0.03052598 0.69178098
v -0.03700000 0.03003203 0.69227600
v 0.03643596 0.02999699 0.69224101
v 0.03700000 0.03052598 0.69178098
v 0.03700000 0.03003203 0.69227600
v 0.03643596 0.03049200 0.69174600
v 0.03588795 0.03038799 0.69164199
v 0.03588795 0.02989298 0.69213700
v 0.03537499 0.03021901 0.69147301
v 0.03537499 0.02972400 0.69196802
v 0.03491097 0.02998900 0.69124299
v 0.03491097 0.02949398 0.69173801
v 0.03450995 0.02970600 0.69095999
v 0.03450995 0.02921098 0.69145501
v 0.03418499 0.02937698 0.69063199
v 0.03418499 0.02888202 0.69112700
v 0.03394597 0.02901399 0.69026899
v 0.03394597 0.02851903 0.69076300
v 0.03379899 0.02862703 0.68988198
v 0.03379899 0.02813202 0.69037700
v 0.03374999 0.02822798 0.68948299
v 0.03374999 0.02773302 0.68997699
v 0.03379899 0.02782899 0.68908298
v 0.03379899 0.02733403 0.68957800
v 0.03394597 0.02744203 0.68869698
v 0.03394597 0.02694702 0.68919098
v 0.03418499 0.02707898 0.68833297
v 0.03418499 0.02658402 0.68882799
v 0.03450995 0.02675098 0.68800497
v 0.03450995 0.02625602 0.68849999
v 0.03491097 0.02646803 0.68772203
v 0.03491097 0.02597302 0.68821698
v 0.03537499 0.02623802 0.68749201
v 0.03537499 0.02574300 0.68798703
v 0.03588795 0.02606898 0.68732297
v 0.03588795 0.02557402 0.68781799
v 0.03643596 0.02596503 0.68721902
v 0.03643596 0.02547001 0.68771398
v 0.03700000 0.02592998 0.68718398
v 0.03700000 0.02543503 0.68767899
v 0.03756397 0.02596503 0.68721902
v 0.03756397 0.02547001 0.68771398
v 0.03811198 0.02606898 0.68732297
v 0.03811198 0.02557402 0.68781799
v 0.03862500 0.02623802 0.68749201
v 0.03862500 0.02574300 0.68798703
v 0.03908896 0.02646803 0.68772203
v 0.03908896 0.02597302 0.68821698
v 0.03948998 0.02675098 0.68800497
v 0.03948998 0.02625602 0.68849999
v 0.03981494 0.02707898 0.68833297
v 0.03981494 0.02658402 0.68882799
v 0.04005396 0.02744203 0.68869698
v 0.04005396 0.02694702 0.68919098
v 0.04020094 0.02782899 0.68908298
v 0.04020094 0.02733403 0.68957800
v 0.04025000 0.02822798 0.68948299
v 0.04025000 0.02773302 0.68997699
v 0.04020094 0.02862703 0.68988198
v 0.04020094 0.02813202 0.69037700
v 0.04005396 0.02851903 0.69076300
v 0.04005396 0.02901399 0.69026899
v 0.03981494 0.02937698 0.69063199
v 0.03981494 0.02888202 0.69112700
v 0.03948998 0.02970600 0.69095999
v 0.03948998 0.02921098 0.69145501
v 0.03908896 0.02998900 0.69124299
v 0.03908896 0.02949398 0.69173801
v 0.03862500 0.03021901 0.69147301
v 0.03862500 0.02972400 0.69196802
v 0.03811198 0.03038799 0.69164199
v 0.03811198 0.02989298 0.69213700
v 0.03756397 0.03049200 0.69174600
v 0.03756397 0.02999699 0.69224101
v 0.03700000 0.03003203 0.69227600
v 0.03700000 0.03052598 0.69178098
v -0.00709295 -0.05745595 0.69594800
v 0.00000000 -0.05632895 0.70054197
v -0.00804198 -0.05655097 0.69983202
v 0.00000000 -0.05727392 0.69651800
v -0.01403295 -0.05794894 0.69438303
v -0.01586300 -0.05713897 0.69795299
v -0.02067899 -0.05871695 0.69194901
v -0.02331799 -0.05806493 0.69499499
v -0.02692395 -0.05974596 0.68869603
v -0.03023600 -0.05931097 0.69101399
v -0.03263098 -0.06101596 0.68468499
v -0.03645396 -0.06085395 0.68608499
v -0.03771096 -0.06251198 0.67996103
v -0.04179996 -0.06265693 0.68032300
v -0.04162395 -0.06401497 0.67521501
v -0.04615998 -0.06468093 0.67385697
v -0.04454594 -0.06546396 0.67063999
v -0.04939395 -0.06685894 0.66689700
v -0.04690998 -0.06700497 0.66577101
v -0.04868799 -0.06863194 0.66062897
v -0.05145198 -0.06914496 0.65959299
v -0.04987096 -0.07038795 0.65507901
v -0.05231297 -0.07149195 0.65209502
v -0.05034399 -0.07227092 0.64912498
v -0.05195099 -0.07384598 0.64457202
v -0.04997199 -0.07425993 0.64283597
v -0.05039000 -0.07615697 0.63718897
v -0.04869496 -0.07624793 0.63654703
v -0.04796397 -0.07816594 0.63076699
v -0.04699200 -0.07782495 0.63155800
v -0.04496395 -0.07956194 0.62619001
v -0.04533499 -0.07977497 0.62565601
v -0.04522097 -0.07978594 0.62560201
v -0.04473799 -0.07932096 0.62683100
v -0.04465395 -0.07934492 0.62674701
v -0.05689197 -0.06698495 0.62187600
v -0.05325996 -0.06886494 0.61365402
v -0.05039000 -0.07615697 0.63718897
v -0.06115597 -0.06095796 0.64811403
v -0.05231297 -0.07149195 0.65209502
v -0.05145198 -0.06914496 0.65959299
v -0.06094098 -0.06299096 0.63928902
v -0.05666595 -0.05652892 0.66750699
v -0.04939395 -0.06685894 0.66689700
v -0.04615998 -0.06468093 0.67385697
v -0.03804999 -0.05092698 0.69197601
v -0.03645396 -0.06085395 0.68608499
v -0.03023600 -0.05931097 0.69101399
v -0.04558998 -0.05252796 0.68495798
v 0.00000000 -0.05356997 0.70213199
v -0.00804198 -0.05655097 0.69983202
v 0.00000000 -0.05632895 0.70054197
v -0.01018399 -0.04811096 0.70422298
v -0.01586300 -0.05713897 0.69795299
v -0.02008998 -0.04868793 0.70172101
v 0.00000000 -0.05076694 0.70364201
v 0.00000000 -0.04792195 0.70507199
v -0.04685097 -0.07828396 0.62532598
v -0.04533499 -0.07977497 0.62565601
v -0.04796397 -0.07816594 0.63076699
v -0.04578596 -0.07828897 0.62090898
v -0.04752194 -0.07548093 0.61674100
v -0.04998499 -0.07017296 0.60783899
v -0.04660397 -0.07143497 0.60291803
v -0.05290997 -0.07283598 0.64316899
v -0.05195099 -0.07384598 0.64457202
v -0.05565899 -0.06984394 0.63719398
v -0.05950498 -0.06500095 0.63051200
v -0.05557799 -0.06380897 0.65911603
v -0.05983197 -0.05877196 0.65770400
v -0.04320096 -0.06175297 0.67974001
v -0.04179996 -0.06265693 0.68032300
v -0.04628598 -0.05836296 0.67951399
v -0.05190598 -0.05444192 0.67663699
v -0.02731394 -0.05758595 0.69362599
v -0.02331799 -0.05806493 0.69499499
v -0.02938097 -0.05431395 0.69477397
v -0.02947998 -0.04962992 0.69760698
v -0.04998499 -0.07017296 0.60783899
v -0.04595798 -0.07160896 0.60202199
v -0.04660397 -0.07143497 0.60291803
v -0.04504197 -0.06121695 0.58886403
v -0.04526799 -0.07185697 0.60121697
v -0.04454594 -0.07216292 0.60048801
v -0.05507600 -0.05237597 0.59770602
v -0.05325996 -0.06886494 0.61365402
v -0.06345599 -0.04183697 0.60824400
v -0.05689197 -0.06698495 0.62187600
v -0.06962800 -0.03048998 0.61959201
v -0.05950498 -0.06500095 0.63051200
v -0.06094098 -0.06299096 0.63928902
v -0.07369798 -0.01862293 0.63145900
v -0.06115597 -0.06095796 0.64811403
v -0.07474499 -0.01060694 0.63947499
v -0.05983197 -0.05877196 0.65770400
v -0.07407599 -0.00310898 0.64697301
v -0.05666595 -0.05652892 0.66750699
v -0.06906497 0.01173001 0.66181201
v -0.05190598 -0.05444192 0.67663699
v -0.03842598 0.01307398 0.69623798
v -0.04558998 -0.05252796 0.68495798
v -0.03804999 -0.05092698 0.69197601
v -0.03948897 0.01430600 0.69556099
v -0.03726094 0.01209503 0.69695503
v -0.04046100 0.01576799 0.69492400
v -0.03667998 0.01173603 0.69730401
v -0.03610396 0.01146399 0.69764400
v -0.04133296 0.01746499 0.69433600
v -0.03562200 0.01130300 0.69792300
v -0.02947998 -0.04962992 0.69760698
v -0.03514498 0.01120501 0.69819701
v -0.03466695 0.01117300 0.69846702
v -0.03415298 0.01122301 0.69875300
v -0.03363198 0.01136803 0.69903803
v -0.03314298 0.01160103 0.69930100
v -0.02008998 -0.04868793 0.70172101
v -0.03269696 0.01191401 0.69953901
v -0.03231197 0.01229298 0.69974101
v -0.03189200 0.01286202 0.69995803
v -0.01018399 -0.04811096 0.70422298
v -0.03150999 0.01360303 0.70015401
v -0.03115898 0.01466399 0.70033002
v 0.00000000 -0.04792195 0.70507199
v -0.05147898 0.03589600 0.68597800
v -0.04282498 0.02280002 0.69328302
v -0.04290497 0.02385300 0.69322097
v -0.04289996 0.02489900 0.69322097
v -0.04281395 0.02671802 0.69326401
v -0.04272496 0.02853798 0.69330698
v -0.03092998 0.01604199 0.70044202
v -0.04263496 0.03035801 0.69335002
v -0.04260295 0.03061002 0.69336402
v -0.04254394 0.03085500 0.69340199
v -0.04246097 0.03109002 0.69345599
v -0.04224199 0.04316198 0.69324398
v -0.04200297 0.03193801 0.69376200
v -0.04182696 0.03224003 0.69387800
v -0.04169696 0.03240901 0.69396400
v -0.04161995 0.03248703 0.69401598
v -0.04154396 0.03254699 0.69406700
v -0.04234397 0.03133702 0.69353497
v -0.04240494 0.03121501 0.69349301
v -0.03250598 0.03771203 0.69926399
v -0.03268897 0.04859203 0.69867402
v -0.03236395 0.03774499 0.69933403
v -0.03223299 0.03770303 0.69940197
v -0.03213000 0.03760701 0.69945598
v -0.03206598 0.03750503 0.69949198
v -0.02306795 0.05239498 0.70247698
v -0.03188300 0.03668498 0.69961101
v -0.03090095 0.01771003 0.70045298
v -0.03190398 0.03691101 0.69959301
v -0.03198999 0.03731900 0.69953603
v -0.03193700 0.03711801 0.69956899
v -0.01372599 0.05472999 0.70481199
v -0.00691795 0.05566400 0.70574600
v 0.00000000 0.05452501 0.70616102
v 0.00000100 0.05496603 0.70613098
v 0.00000000 0.05540698 0.70610100
v 0.00000000 0.05584698 0.70607102
v 0.00000000 0.05598002 0.70606101
v -0.06115299 0.02497303 0.67519599
v -0.06111794 0.02516603 0.67524803
v -0.04203897 0.01928299 0.69384700
v -0.04252898 0.02105998 0.69349903
v -0.03601098 -0.06693297 0.58314902
v -0.03548097 -0.07698696 0.59496599
v -0.04086595 -0.07413297 0.59788698
v -0.04504197 -0.06121695 0.58886403
v -0.04296696 -0.07295793 0.59921402
v -0.04454594 -0.07216292 0.60048801
v -0.03408294 -0.06867593 0.61327797
v -0.03465598 -0.06651794 0.61241198
v -0.03428596 -0.06707793 0.61185199
v -0.03405898 -0.06767493 0.61125499
v -0.03398197 -0.06829094 0.61063999
v -0.03481698 -0.06765693 0.61429697
v -0.03515797 -0.06601196 0.61291802
v -0.03394097 -0.07015597 0.61482400
v -0.03596097 -0.06684798 0.61510599
v -0.03649199 -0.06521993 0.61370897
v -0.03577595 -0.06557494 0.61335498
v -0.03469598 -0.06910693 0.61587203
v -0.03379899 -0.07163494 0.61637002
v -0.03740197 -0.06632792 0.61562502
v -0.03812897 -0.06479895 0.61413002
v -0.03728497 -0.06495893 0.61396998
v -0.03587299 -0.06827396 0.61670399
v -0.03457498 -0.07055693 0.61744702
v -0.03365695 -0.07311493 0.61791497
v -0.03899896 -0.06614893 0.61580402
v -0.03987097 -0.06479895 0.61413002
v -0.03899997 -0.06474494 0.61418402
v -0.03735595 -0.06773996 0.61723900
v -0.03578495 -0.06970095 0.61830300
v -0.03445398 -0.07200694 0.61902201
v -0.03351396 -0.07459396 0.61946100
v -0.03259098 -0.08234095 0.62469000
v -0.04059696 -0.06632792 0.61562598
v -0.04150795 -0.06521993 0.61370897
v -0.04071497 -0.06495893 0.61396998
v -0.03899896 -0.06755596 0.61742300
v -0.03730899 -0.06915092 0.61885202
v -0.03569698 -0.07112795 0.61990100
v -0.03433299 -0.07345694 0.62059700
v -0.03337198 -0.07607394 0.62100601
v -0.04203796 -0.06684696 0.61510700
v -0.04284197 -0.06601196 0.61291802
v -0.04222398 -0.06557494 0.61335498
v -0.04064297 -0.06773996 0.61723900
v -0.03899896 -0.06896197 0.61904198
v -0.03726297 -0.07056295 0.62046599
v -0.03560894 -0.07255393 0.62150002
v -0.03421199 -0.07490694 0.62217200
v -0.04318195 -0.06765598 0.61429799
v -0.04334396 -0.06651794 0.61241198
v -0.03322994 -0.07755297 0.62255198
v -0.04212599 -0.06827396 0.61670500
v -0.04068899 -0.06915092 0.61885297
v -0.03899896 -0.07036793 0.62066001
v -0.03721696 -0.07197397 0.62207901
v -0.03552097 -0.07398092 0.62309802
v -0.04391598 -0.06867593 0.61327899
v -0.04401797 -0.06829094 0.61063999
v -0.04394096 -0.06767493 0.61125499
v -0.04371398 -0.06707793 0.61185199
v -0.03409099 -0.07635694 0.62374699
v -0.04330295 -0.06910598 0.61587298
v -0.03308796 -0.07903295 0.62409699
v -0.04221397 -0.06969994 0.61830300
v -0.04073596 -0.07056295 0.62046599
v -0.03899896 -0.07177495 0.62227899
v -0.03717094 -0.07338595 0.62369299
v -0.03543299 -0.07540696 0.62469703
v -0.04405796 -0.07015496 0.61482501
v -0.03396999 -0.07780694 0.62532300
v -0.04342395 -0.07055592 0.61744797
v -0.03294497 -0.08051192 0.62564301
v -0.03264695 -0.08215796 0.62632000
v -0.03293198 -0.08193194 0.62773299
v -0.04230195 -0.07112693 0.61990201
v -0.04078197 -0.07197397 0.62207901
v -0.03899896 -0.07318097 0.62389702
v -0.03712397 -0.07479792 0.62530601
v -0.03534495 -0.07683396 0.62629497
v -0.04420095 -0.07163393 0.61637002
v -0.04494798 -0.07768392 0.62003303
v -0.03384900 -0.07925695 0.62689799
v -0.04354494 -0.07200592 0.61902303
v -0.04238998 -0.07255393 0.62150002
v -0.04082798 -0.07338595 0.62369299
v -0.03899896 -0.07458692 0.62551600
v -0.03707796 -0.07620894 0.62691998
v -0.03525698 -0.07825994 0.62789297
v -0.04434299 -0.07311397 0.61791599
v -0.03372800 -0.08070695 0.62847298
v -0.03338497 -0.08168792 0.62890500
v -0.03388398 -0.08146297 0.62974602
v -0.04366600 -0.07345592 0.62059802
v -0.04247796 -0.07397997 0.62309903
v -0.04087400 -0.07479697 0.62530601
v -0.03899896 -0.07599395 0.62713498
v -0.03703194 -0.07762098 0.62853301
v -0.03516900 -0.07968693 0.62949198
v -0.03445094 -0.08123493 0.63042301
v -0.03504395 -0.08101892 0.63093603
v -0.03568297 -0.08080697 0.63132900
v -0.04448497 -0.07459294 0.61946201
v -0.04378700 -0.07490593 0.62217301
v -0.04256600 -0.07540696 0.62469703
v -0.04091995 -0.07620894 0.62691998
v -0.03899896 -0.07739996 0.62875301
v -0.03698599 -0.07903194 0.63014603
v -0.03635597 -0.08059996 0.63160402
v -0.03706198 -0.08039796 0.63176501
v -0.03773200 -0.08021593 0.63180900
v -0.03842699 -0.08003896 0.63175303
v -0.04462695 -0.07607293 0.62100703
v -0.04390799 -0.07635593 0.62374800
v -0.04265296 -0.07683295 0.62629598
v -0.04096698 -0.07761996 0.62853301
v -0.04197299 -0.07931995 0.62987101
v -0.04267895 -0.07921695 0.62909901
v -0.03899896 -0.07880598 0.63037199
v -0.03914099 -0.07986897 0.63159299
v -0.03986597 -0.07970994 0.63132501
v -0.04059100 -0.07956397 0.63094699
v -0.04477000 -0.07755196 0.62255299
v -0.04497694 -0.07846796 0.62266999
v -0.04402899 -0.07780593 0.62532300
v -0.04473894 -0.07942795 0.62546700
v -0.04423499 -0.07907295 0.62647003
v -0.04274100 -0.07825994 0.62789398
v -0.04337894 -0.07913392 0.62812501
v -0.04382598 -0.07909393 0.62734801
v -0.04101300 -0.07903194 0.63014698
v -0.04130697 -0.07943195 0.63045299
v -0.03548097 -0.07698696 0.59496599
v -0.03570896 -0.07846295 0.59914303
v -0.03575998 -0.07843893 0.59916598
v -0.03432899 -0.07907295 0.59852803
v -0.03412199 -0.07918196 0.59849602
v -0.03422296 -0.07912397 0.59849501
v -0.02897596 -0.07962393 0.59233302
v -0.03394895 -0.07931393 0.59858298
v -0.03403300 -0.07924395 0.59852499
v -0.03383696 -0.07942593 0.59871697
v -0.03373497 -0.07963097 0.59912699
v -0.03377199 -0.07954096 0.59893298
v -0.03373098 -0.07965093 0.59917599
v -0.03372997 -0.07965493 0.59918803
v 0.00000000 -0.08665895 0.59619498
v 0.00000000 -0.08762496 0.60055000
v -0.00542796 -0.08751797 0.60090297
v 0.00000000 -0.08437395 0.58757198
v 0.00000000 -0.08557593 0.59186798
v -0.01120096 -0.08370697 0.58824599
v -0.03208297 -0.08288997 0.60676998
v -0.03285598 -0.08386695 0.61194903
v -0.03344798 -0.08117496 0.60324597
v -0.03277200 -0.08389395 0.61191303
v -0.02528899 -0.08547896 0.60711598
v -0.03205800 -0.08225095 0.60449600
v -0.03199696 -0.08158797 0.60223699
v -0.02207595 -0.08169597 0.59025300
v -0.01901495 -0.08556592 0.60054600
v -0.01891398 -0.08643096 0.60423499
v -0.01155197 -0.08716797 0.60199702
v -0.01894897 -0.08511096 0.59867501
v -0.01886600 -0.08463597 0.59681302
v -0.00952196 -0.08657097 0.59816498
v -0.00948399 -0.08617496 0.59646201
v -0.00943696 -0.08576095 0.59476501
v -0.03316396 -0.08342492 0.61201102
v -0.03259098 -0.08234095 0.62469000
v -0.03398197 -0.06829094 0.61063999
v -0.03397995 -0.07883095 0.60009903
v -0.03398197 -0.07902193 0.59987402
v -0.03398698 -0.07915496 0.59965098
v -0.03399097 -0.07921695 0.59950799
v -0.03399598 -0.07926297 0.59935999
v -0.01120096 -0.08370697 0.58824599
v 0.00000000 -0.08164697 0.58303398
v 0.00000000 -0.08437395 0.58757198
v -0.00938296 -0.07543295 0.57464898
v 0.00000000 -0.07601493 0.57406700
v 0.00000000 -0.07886093 0.57853198
v -0.01849395 -0.07372796 0.57635403
v -0.02207595 -0.08169597 0.59025300
v -0.02449095 -0.07195693 0.57812500
v -0.02897596 -0.07962393 0.59233302
v -0.03041797 -0.06965595 0.58042598
v -0.03548097 -0.07698696 0.59496599
v -0.03601098 -0.06693297 0.58314902
v -0.04494798 -0.07768392 0.62003303
v -0.04401999 -0.07352995 0.60540098
v -0.04401797 -0.06829094 0.61063999
v -0.04660397 -0.07143497 0.60291803
v -0.04482895 -0.07386994 0.60523301
v -0.04574894 -0.07804393 0.61990201
v -0.04476398 -0.07380294 0.60492599
v -0.04480797 -0.07382893 0.60508299
v -0.04410398 -0.07391393 0.60379797
v -0.04421198 -0.07390797 0.60401303
v -0.04445296 -0.07384896 0.60437697
v -0.04595798 -0.07160896 0.60202199
v -0.04468297 -0.07380193 0.60474801
v -0.04526799 -0.07185697 0.60121697
v -0.04457795 -0.07382094 0.60457498
v -0.04454594 -0.07216292 0.60048801
v -0.04394996 -0.07396095 0.60359401
v -0.04402995 -0.07393097 0.60368598
v -0.04296696 -0.07295793 0.59921402
v -0.04386395 -0.07400596 0.60352898
v -0.04086595 -0.07413297 0.59788698
v -0.03575998 -0.07843893 0.59916598
v -0.03548097 -0.07698696 0.59496599
v -0.04578596 -0.07828897 0.62090898
v -0.04148995 -0.06661695 0.61191899
v -0.04249495 -0.06585192 0.61268401
v -0.04298597 -0.06630694 0.61222798
v -0.04108899 -0.06633293 0.61220300
v -0.04190099 -0.06546294 0.61307299
v -0.04181498 -0.06694495 0.61159098
v -0.04335898 -0.06681495 0.61172098
v -0.04062497 -0.06610298 0.61243200
v -0.04122197 -0.06515097 0.61338502
v -0.04205399 -0.06730794 0.61122799
v -0.04360395 -0.06735897 0.61117601
v -0.04011195 -0.06593394 0.61260200
v -0.04047799 -0.06492596 0.61361003
v -0.04220098 -0.06769496 0.61084098
v -0.04369097 -0.06772392 0.61081201
v -0.03956395 -0.06583094 0.61270499
v -0.03969097 -0.06479394 0.61374199
v -0.04224997 -0.06809395 0.61044198
v -0.04371994 -0.06809395 0.61044198
v -0.03899997 -0.06579595 0.61273998
v -0.03888195 -0.06475895 0.61377698
v -0.04220098 -0.06849294 0.61004299
v -0.03843599 -0.06583094 0.61270499
v -0.03807699 -0.06482195 0.61371303
v -0.04205399 -0.06887996 0.60965598
v -0.03788799 -0.06593394 0.61260200
v -0.03729999 -0.06498193 0.61355400
v -0.04181498 -0.06924295 0.60929298
v -0.03737497 -0.06610298 0.61243200
v -0.03657394 -0.06523293 0.61330301
v -0.03691095 -0.06633293 0.61220300
v -0.03591698 -0.06556797 0.61296803
v -0.03650999 -0.06661695 0.61191899
v -0.03535097 -0.06597793 0.61255801
v -0.03618496 -0.06694495 0.61159098
v -0.03489297 -0.06644994 0.61208600
v -0.03594595 -0.06730794 0.61122799
v -0.03455698 -0.06696993 0.61156601
v -0.03579896 -0.06769496 0.61084098
v -0.04371994 -0.07353794 0.60499698
v -0.04148995 -0.06957095 0.60896498
v -0.04108899 -0.06985396 0.60868198
v -0.04062497 -0.07008397 0.60845202
v -0.04011195 -0.07025295 0.60828298
v -0.03956395 -0.07035696 0.60817897
v -0.03899997 -0.07039195 0.60814399
v -0.03843599 -0.07035696 0.60817897
v -0.03434997 -0.06752294 0.61101300
v -0.03574997 -0.06809395 0.61044198
v -0.03428000 -0.06809395 0.61044198
v -0.03618496 -0.06924295 0.60929298
v -0.03650999 -0.06957095 0.60896498
v -0.03594595 -0.06887996 0.60965598
v -0.03579896 -0.06849294 0.61004299
v -0.03515499 -0.07824492 0.60029101
v -0.03788799 -0.07025295 0.60828298
v -0.03737497 -0.07008397 0.60845202
v -0.03691095 -0.06985396 0.60868198
v -0.03428000 -0.07863396 0.59990197
v -0.03546500 -0.07845497 0.59983200
v -0.04359698 -0.07402396 0.60424101
v -0.04361397 -0.07405096 0.60412198
v -0.04364496 -0.07406997 0.60400999
v -0.04368996 -0.07408195 0.60390103
v -0.03566098 -0.07849496 0.59943998
v -0.04374694 -0.07408493 0.60380399
v -0.03561097 -0.07851797 0.59941798
v -0.03561097 -0.07851797 0.59941798
v -0.03421097 -0.07900297 0.59929198
v -0.03546500 -0.07845497 0.59983200
v -0.03422898 -0.07912695 0.59880102
v -0.03899997 -0.06579595 0.61273998
v -0.03956395 -0.06533592 0.61220998
v -0.03899997 -0.06530094 0.61224502
v -0.03956395 -0.06583094 0.61270499
v -0.04011195 -0.06543892 0.61210698
v -0.04011195 -0.06593394 0.61260200
v -0.04062497 -0.06560897 0.61193699
v -0.04062497 -0.06610298 0.61243200
v -0.04108899 -0.06583797 0.61170799
v -0.04108899 -0.06633293 0.61220300
v -0.04148995 -0.06612193 0.61142403
v -0.04148995 -0.06661695 0.61191899
v -0.04181498 -0.06644994 0.61109602
v -0.04181498 -0.06694495 0.61159098
v -0.04205399 -0.06681293 0.61073297
v -0.04205399 -0.06730794 0.61122799
v -0.04220098 -0.06719994 0.61034602
v -0.04220098 -0.06769496 0.61084098
v -0.04224997 -0.06759893 0.60994703
v -0.04224997 -0.06809395 0.61044198
v -0.04220098 -0.06799793 0.60954797
v -0.04220098 -0.06849294 0.61004299
v -0.04205399 -0.06838494 0.60916102
v -0.04205399 -0.06887996 0.60965598
v -0.04181498 -0.06874793 0.60879803
v -0.04181498 -0.06924295 0.60929298
v -0.04148995 -0.06907594 0.60847002
v -0.04148995 -0.06957095 0.60896498
v -0.04108899 -0.06935894 0.60818702
v -0.04108899 -0.06985396 0.60868198
v -0.04062497 -0.06958895 0.60795701
v -0.04062497 -0.07008397 0.60845202
v -0.04011195 -0.06975793 0.60778803
v -0.04011195 -0.07025295 0.60828298
v -0.03956395 -0.06986194 0.60768402
v -0.03956395 -0.07035696 0.60817897
v -0.03899997 -0.06989693 0.60764903
v -0.03899997 -0.07039195 0.60814399
v -0.03843599 -0.06986194 0.60768402
v -0.03843599 -0.07035696 0.60817897
v -0.03788799 -0.06975793 0.60778803
v -0.03788799 -0.07025295 0.60828298
v -0.03737497 -0.06958895 0.60795701
v -0.03737497 -0.07008397 0.60845202
v -0.03691095 -0.06935894 0.60818702
v -0.03691095 -0.06985396 0.60868198
v -0.03650999 -0.06907594 0.60847002
v -0.03650999 -0.06957095 0.60896498
v -0.03618496 -0.06874793 0.60879803
v -0.03618496 -0.06924295 0.60929298
v -0.03594595 -0.06838494 0.60916102
v -0.03594595 -0.06887996 0.60965598
v -0.03579896 -0.06849294 0.61004299
v -0.03574997 -0.06759893 0.60994703
v -0.03579896 -0.06799793 0.60954797
v -0.03574997 -0.06809395 0.61044198
v -0.03579896 -0.06719994 0.61034602
v -0.03579896 -0.06769496 0.61084098
v -0.03594595 -0.06681293 0.61073297
v -0.03594595 -0.06730794 0.61122799
v -0.03618496 -0.06644994 0.61109602
v -0.03618496 -0.06694495 0.61159098
v -0.03650999 -0.06612193 0.61142403
v -0.03650999 -0.06661695 0.61191899
v -0.03691095 -0.06583797 0.61170799
v -0.03691095 -0.06633293 0.61220300
v -0.03737497 -0.06560897 0.61193699
v -0.03737497 -0.06610298 0.61243200
v -0.03788799 -0.06593394 0.61260200
v -0.03788799 -0.06543892 0.61210698
v -0.03843599 -0.06583094 0.61270499
v -0.03899997 -0.06530094 0.61224502
v -0.03843599 -0.06533592 0.61220998
v -0.03899997 -0.06579595 0.61273998
v -0.04062497 -0.06560897 0.61193699
v -0.04108899 -0.06583797 0.61170799
v -0.04148995 -0.06612193 0.61142403
v -0.04205399 -0.06681293 0.61073297
v -0.04181498 -0.06644994 0.61109602
v -0.04224997 -0.06759893 0.60994703
v -0.04220098 -0.06719994 0.61034602
v -0.04220098 -0.06799793 0.60954797
v -0.04181498 -0.06874793 0.60879803
v -0.04205399 -0.06838494 0.60916102
v -0.04148995 -0.06907594 0.60847002
v -0.04108899 -0.06935894 0.60818702
v -0.03618496 -0.06644994 0.61109602
v -0.03691095 -0.06583797 0.61170799
v -0.03737497 -0.06560897 0.61193699
v -0.03650999 -0.06612193 0.61142403
v -0.04011195 -0.06975793 0.60778803
v -0.04062497 -0.06958895 0.60795701
v -0.04011195 -0.06543892 0.61210698
v -0.03956395 -0.06533592 0.61220998
v -0.03956395 -0.06986194 0.60768402
v -0.03899997 -0.06530094 0.61224502
v -0.03899997 -0.06989693 0.60764903
v -0.03574997 -0.06759893 0.60994703
v -0.03579896 -0.06719994 0.61034602
v -0.03594595 -0.06681293 0.61073297
v -0.03843599 -0.06986194 0.60768402
v -0.03843599 -0.06533592 0.61220998
v -0.03788799 -0.06975793 0.60778803
v -0.03788799 -0.06543892 0.61210698
v -0.03594595 -0.06838494 0.60916102
v -0.03579896 -0.06799793 0.60954797
v -0.03737497 -0.06958895 0.60795701
v -0.03618496 -0.06874793 0.60879803
v -0.03691095 -0.06935894 0.60818702
v -0.03650999 -0.06907594 0.60847002
v 0.00343496 -0.05731993 0.69637400
v 0.00698197 -0.05649894 0.69999897
v 0.00000000 -0.05632895 0.70054197
v 0.00000000 -0.05727392 0.69651800
v 0.00682700 -0.05744594 0.69597602
v 0.01191699 -0.05777198 0.69494200
v 0.01381695 -0.05694997 0.69855797
v 0.01687496 -0.05824697 0.69343197
v 0.02090096 -0.05772197 0.69608998
v 0.02164900 -0.05886495 0.69147199
v 0.02756094 -0.05877894 0.69271499
v 0.02619999 -0.05962097 0.68908000
v 0.03046900 -0.06050592 0.68628198
v 0.03367096 -0.06010395 0.68848002
v 0.03441900 -0.06151497 0.68309700
v 0.03908699 -0.06167292 0.68346798
v 0.03802198 -0.06264096 0.67953902
v 0.04368895 -0.06345194 0.67778403
v 0.04123097 -0.06387495 0.67564100
v 0.04399496 -0.06519895 0.67145997
v 0.04738599 -0.06540292 0.67154801
v 0.04628896 -0.06660294 0.66702402
v 0.05007100 -0.06747293 0.66493601
v 0.04827696 -0.06826996 0.66175598
v 0.05172896 -0.06962692 0.65805399
v 0.04975295 -0.07030194 0.65533203
v 0.05233496 -0.07182294 0.65103799
v 0.05026698 -0.07250893 0.64835203
v 0.05175995 -0.07426196 0.64324301
v 0.04960799 -0.07484698 0.64096099
v 0.04969495 -0.07683193 0.63503200
v 0.04772597 -0.07713997 0.63370502
v 0.04533499 -0.07977497 0.62565601
v 0.04494696 -0.07954794 0.62622499
v 0.04522097 -0.07978594 0.62560201
v 0.04469394 -0.07929497 0.62689602
v 0.04461300 -0.07931894 0.62681401
v 0.05737799 -0.06667596 0.62322098
v 0.04969495 -0.07683193 0.63503200
v 0.05247098 -0.06920695 0.61215502
v 0.06122595 -0.06152296 0.64565498
v 0.05172896 -0.06962692 0.65805399
v 0.05233496 -0.07182294 0.65103799
v 0.06038397 -0.06398296 0.63496399
v 0.05436295 -0.05541193 0.67239302
v 0.04738599 -0.06540292 0.67154801
v 0.05795496 -0.05729293 0.66416001
v 0.04342299 -0.05200994 0.68722701
v 0.03367096 -0.06010395 0.68848002
v 0.03908699 -0.06167292 0.68346798
v 0.03645396 -0.05064696 0.69318700
v 0.02056300 -0.04872494 0.70155698
v 0.01381695 -0.05694997 0.69855797
v 0.02090096 -0.05772197 0.69608998
v 0.01183497 -0.04817992 0.70392400
v 0.00698197 -0.05649894 0.69999897
v 0.00000000 -0.05356997 0.70213199
v 0.00000000 -0.05632895 0.70054197
v 0.00595200 -0.04798692 0.70478100
v 0.00000000 -0.05076694 0.70364201
v 0.00000000 -0.04792195 0.70507199
v 0.04685097 -0.07828396 0.62532598
v 0.04533499 -0.07977497 0.62565601
v 0.04578596 -0.07828897 0.62090898
v 0.04752194 -0.07548093 0.61674100
v 0.04660397 -0.07143497 0.60291803
v 0.05290997 -0.07283598 0.64316899
v 0.05175995 -0.07426196 0.64324301
v 0.05565899 -0.06984394 0.63719398
v 0.05189198 -0.06711494 0.66191602
v 0.05007100 -0.06747293 0.66493601
v 0.05557799 -0.06380897 0.65911603
v 0.06033897 -0.05933696 0.65523100
v 0.04320096 -0.06175297 0.67974001
v 0.04368895 -0.06345194 0.67778403
v 0.04628598 -0.05836296 0.67951399
v 0.04945600 -0.05361795 0.68022197
v 0.02731394 -0.05758595 0.69362599
v 0.02756094 -0.05877894 0.69271499
v 0.02938097 -0.05431395 0.69477397
v 0.02878397 -0.04954296 0.69797897
v 0.04504197 -0.06121695 0.58886403
v 0.04511100 -0.07192194 0.60104799
v 0.04454594 -0.07216292 0.60048801
v 0.05216795 -0.05527198 0.59481001
v 0.05247098 -0.06920695 0.61215502
v 0.04660397 -0.07143497 0.60291803
v 0.04582595 -0.07165795 0.60185897
v 0.05886799 -0.04807597 0.60200602
v 0.05737799 -0.06667596 0.62322098
v 0.06593298 -0.03781592 0.61226600
v 0.07070297 -0.02791094 0.62217098
v 0.06038397 -0.06398296 0.63496399
v 0.07384198 -0.01801097 0.63207102
v 0.06122595 -0.06152296 0.64565498
v 0.07475000 -0.00989693 0.64018500
v 0.06033897 -0.05933696 0.65523100
v 0.07410299 -0.00324696 0.64683503
v 0.05795496 -0.05729293 0.66416001
v 0.07149195 0.00581199 0.65589398
v 0.05436295 -0.05541193 0.67239302
v 0.06641799 0.01694399 0.66702598
v 0.04945600 -0.05361795 0.68022197
v 0.06162399 0.02447402 0.67455500
v 0.03798896 0.01266503 0.69651002
v 0.03645396 -0.05064696 0.69318700
v 0.04342299 -0.05200994 0.68722701
v 0.03867399 0.01332998 0.69608200
v 0.03970795 0.01460403 0.69541901
v 0.03726094 0.01209503 0.69695503
v 0.04066097 0.01611799 0.69479001
v 0.03643995 0.01161199 0.69744599
v 0.03563898 0.01130700 0.69791400
v 0.02878397 -0.04954296 0.69797897
v 0.04151797 0.01789098 0.69420898
v 0.03491795 0.01118099 0.69832498
v 0.04217797 0.01972401 0.69374901
v 0.05599898 0.03137099 0.68145299
v 0.03435099 0.01119303 0.69864303
v 0.03383296 0.01130098 0.69892800
v 0.04262000 0.02149498 0.69343299
v 0.03331899 0.01150500 0.69920701
v 0.02056300 -0.04872494 0.70155698
v 0.03283900 0.01180201 0.69946402
v 0.04286599 0.02320903 0.69325203
v 0.03243094 0.01216298 0.69967902
v 0.03208994 0.01257002 0.69985700
v 0.04289996 0.02489900 0.69322097
v 0.03178995 0.01303499 0.70001101
v 0.01183497 -0.04817992 0.70392400
v 0.03152996 0.01355701 0.70014399
v 0.03130799 0.01414203 0.70025498
v 0.00595200 -0.04798692 0.70478100
v 0.03109300 0.01495301 0.70036203
v 0.03095400 0.01580601 0.70043099
v 0.00000000 -0.04792195 0.70507199
v 0.04960197 0.03756701 0.68764901
v 0.04248398 0.03102999 0.69344097
v 0.04258400 0.03070199 0.69337600
v 0.04261595 0.03053098 0.69335598
v 0.04263496 0.03035801 0.69335002
v 0.04272496 0.02853798 0.69330698
v 0.04281395 0.02671802 0.69326401
v 0.04257500 0.04293799 0.69301999
v 0.04154396 0.03254699 0.69406700
v 0.04167395 0.03243499 0.69397998
v 0.04181098 0.03226298 0.69388902
v 0.04191195 0.03210502 0.69382203
v 0.04200297 0.03193801 0.69376200
v 0.04234397 0.03133702 0.69353497
v 0.03501695 0.04743403 0.69751602
v 0.03234595 0.03774398 0.69934303
v 0.03250598 0.03771203 0.69926399
v 0.02698999 0.05102699 0.70110899
v 0.03188300 0.03668498 0.69961101
v 0.03190398 0.03691101 0.69959301
v 0.03197395 0.03726702 0.69954598
v 0.03203898 0.03744900 0.69950700
v 0.03208696 0.03754299 0.69947898
v 0.03219699 0.03767699 0.69941998
v 0.01840698 0.05371701 0.70379901
v 0.03090095 0.01771003 0.70045298
v 0.00932795 0.05540502 0.70548701
v 0.03088897 0.01673102 0.70046097
v 0.00000000 0.05452501 0.70616102
v 0.00000100 0.05496603 0.70613098
v 0.00000000 0.05540698 0.70610100
v 0.00000000 0.05584698 0.70607102
v 0.00000000 0.05598002 0.70606101
v 0.03601098 -0.06693297 0.58314902
v 0.04086595 -0.07413297 0.59788698
v 0.03548097 -0.07698696 0.59496599
v 0.04504197 -0.06121695 0.58886403
v 0.04454594 -0.07216292 0.60048801
v 0.04296499 -0.07295894 0.59921300
v 0.04391598 -0.06867396 0.61327702
v 0.04334396 -0.06651794 0.61241198
v 0.04371398 -0.06707793 0.61185199
v 0.04394096 -0.06767493 0.61125499
v 0.04401797 -0.06829094 0.61063999
v 0.04318195 -0.06765496 0.61429602
v 0.04284197 -0.06601196 0.61291802
v 0.04405796 -0.07015097 0.61482102
v 0.04203796 -0.06684595 0.61510497
v 0.04150795 -0.06521993 0.61370897
v 0.04222398 -0.06557494 0.61335498
v 0.04330295 -0.06910294 0.61586899
v 0.04420000 -0.07162892 0.61636502
v 0.04494798 -0.07768392 0.62003201
v 0.04059696 -0.06632596 0.61562401
v 0.03987097 -0.06479895 0.61413002
v 0.04071497 -0.06495893 0.61396998
v 0.04212599 -0.06826996 0.61670101
v 0.04342299 -0.07055097 0.61744201
v 0.04434198 -0.07310694 0.61790901
v 0.03899896 -0.06614798 0.61580199
v 0.03812897 -0.06479895 0.61413002
v 0.03899997 -0.06474494 0.61418402
v 0.04064297 -0.06773597 0.61723500
v 0.04221397 -0.06969493 0.61829799
v 0.04354399 -0.07199895 0.61901599
v 0.04448395 -0.07458394 0.61945200
v 0.03740197 -0.06632697 0.61562300
v 0.03649199 -0.06521993 0.61370897
v 0.03728497 -0.06495893 0.61396998
v 0.03899896 -0.06755197 0.61741900
v 0.04068899 -0.06914597 0.61884701
v 0.04230099 -0.07111996 0.61989403
v 0.04366499 -0.07344692 0.62058902
v 0.04462599 -0.07606196 0.62099600
v 0.03596097 -0.06684595 0.61510402
v 0.03515797 -0.06601196 0.61291802
v 0.03577595 -0.06557494 0.61335498
v 0.03735595 -0.06773597 0.61723500
v 0.03899896 -0.06895697 0.61903602
v 0.04073494 -0.07055592 0.62045801
v 0.04238897 -0.07254493 0.62149101
v 0.04378598 -0.07489496 0.62216198
v 0.03481799 -0.06765496 0.61429501
v 0.03465598 -0.06651794 0.61241198
v 0.04476797 -0.07753998 0.62254000
v 0.04497694 -0.07846796 0.62266999
v 0.03587299 -0.06827098 0.61670101
v 0.03731000 -0.06914597 0.61884600
v 0.03899896 -0.07036095 0.62065202
v 0.04078096 -0.07196593 0.62207001
v 0.04247695 -0.07396996 0.62308699
v 0.03408396 -0.06867498 0.61327702
v 0.03398197 -0.06829094 0.61063999
v 0.03405898 -0.06767493 0.61125499
v 0.03428596 -0.06707793 0.61185199
v 0.04390698 -0.07634395 0.62373501
v 0.03469699 -0.06910294 0.61586899
v 0.03578495 -0.06969594 0.61829698
v 0.03726297 -0.07055592 0.62045801
v 0.03899896 -0.07176595 0.62226897
v 0.04082798 -0.07337492 0.62368101
v 0.04256498 -0.07539397 0.62468398
v 0.03394198 -0.07015192 0.61482000
v 0.04402798 -0.07779192 0.62530798
v 0.04473894 -0.07942795 0.62546700
v 0.04449099 -0.07923597 0.62601501
v 0.04419499 -0.07904994 0.62653297
v 0.03457599 -0.07055193 0.61744201
v 0.03569698 -0.07112097 0.61989403
v 0.03721696 -0.07196593 0.62206900
v 0.03899896 -0.07317095 0.62388599
v 0.04087400 -0.07478493 0.62529302
v 0.04265296 -0.07681894 0.62628001
v 0.03379899 -0.07162994 0.61636400
v 0.03445500 -0.07199996 0.61901498
v 0.03560996 -0.07254493 0.62149000
v 0.03717094 -0.07337594 0.62368101
v 0.03899896 -0.07457494 0.62550199
v 0.04091995 -0.07619494 0.62690401
v 0.04273998 -0.07824397 0.62787700
v 0.04342198 -0.07910197 0.62802303
v 0.04256898 -0.07920497 0.62919903
v 0.03365695 -0.07310795 0.61790800
v 0.03433400 -0.07344794 0.62058800
v 0.03552198 -0.07396996 0.62308699
v 0.03712499 -0.07478594 0.62529200
v 0.03899896 -0.07597994 0.62711900
v 0.04096597 -0.07760494 0.62851602
v 0.03351497 -0.07458496 0.61945099
v 0.03259295 -0.08232295 0.62467098
v 0.03421294 -0.07489597 0.62216097
v 0.03543394 -0.07539492 0.62468302
v 0.03707897 -0.07619494 0.62690401
v 0.03899896 -0.07738494 0.62873602
v 0.04101198 -0.07901495 0.63012701
v 0.04171895 -0.07933795 0.63008201
v 0.04071998 -0.07951694 0.63084197
v 0.03337299 -0.07606297 0.62099499
v 0.03409194 -0.07634395 0.62373400
v 0.03534597 -0.07681995 0.62627900
v 0.03703194 -0.07760494 0.62851501
v 0.03899896 -0.07878893 0.63035202
v 0.03976094 -0.07971096 0.63134599
v 0.03890198 -0.07990396 0.63163501
v 0.03807699 -0.08010792 0.63177299
v 0.03323096 -0.07754093 0.62253898
v 0.03397095 -0.07779294 0.62530702
v 0.03525799 -0.07824492 0.62787598
v 0.03698599 -0.07901495 0.63012701
v 0.03725099 -0.08032596 0.63176501
v 0.03649795 -0.08053892 0.63162398
v 0.03584498 -0.08073693 0.63138503
v 0.03308898 -0.07901793 0.62408203
v 0.03385096 -0.07924097 0.62687999
v 0.03516995 -0.07966995 0.62947202
v 0.03522598 -0.08093798 0.63103998
v 0.03465098 -0.08114093 0.63059300
v 0.03412997 -0.08134198 0.63004601
v 0.03294700 -0.08049595 0.62562603
v 0.03275096 -0.08204293 0.62695599
v 0.03260797 -0.08219593 0.62586802
v 0.03372997 -0.08068895 0.62845302
v 0.03367096 -0.08153796 0.62940103
v 0.03335499 -0.08168494 0.62882102
v 0.03302794 -0.08185797 0.62801200
v 0.03344798 -0.08117598 0.60324597
v 0.03285998 -0.08384895 0.61188197
v 0.03277599 -0.08387696 0.61184698
v 0.02835595 -0.08488392 0.60880601
v 0.02585995 -0.08064395 0.59130502
v 0.03394997 -0.07931894 0.59859502
v 0.03383898 -0.07942992 0.59872800
v 0.03377300 -0.07954198 0.59893900
v 0.03373497 -0.07963192 0.59912902
v 0.03373199 -0.07964193 0.59915501
v 0.03372895 -0.07965993 0.59919900
v 0.00816900 -0.08402293 0.58793098
v 0.01620298 -0.08295798 0.58899403
v 0.01336699 -0.08700996 0.60240102
v 0.03511595 -0.07776492 0.59633398
v 0.03548097 -0.07698696 0.59496599
v 0.03575998 -0.07843893 0.59916598
v 0.03570997 -0.07846295 0.59914303
v 0.03431999 -0.07908296 0.59853703
v 0.03421700 -0.07913297 0.59850800
v 0.03411895 -0.07918995 0.59850901
v 0.03403198 -0.07925093 0.59853899
v 0.02147495 -0.08584696 0.60418999
v 0.02362895 -0.08574497 0.60620898
v 0.01863998 -0.08645397 0.60407799
v 0.02137297 -0.08489394 0.60016400
v 0.02116400 -0.08373296 0.59575599
v 0.00243700 -0.08664995 0.59632099
v 0.00766897 -0.08740997 0.60118997
v 0.00000000 -0.08762496 0.60055000
v 0.00000000 -0.08665895 0.59619498
v 0.00241798 -0.08571493 0.59254700
v 0.00000000 -0.08557593 0.59186798
v 0.00000000 -0.08437395 0.58757198
v 0.03398197 -0.06829094 0.61063999
v 0.03259295 -0.08232295 0.62467098
v 0.03316795 -0.08340793 0.61194599
v 0.03397995 -0.07883596 0.60009402
v 0.03398096 -0.07895398 0.59996498
v 0.03398299 -0.07905596 0.59982699
v 0.03398799 -0.07918095 0.59960598
v 0.03399497 -0.07926797 0.59937203
v 0.00816900 -0.08402293 0.58793098
v 0.00000000 -0.08437395 0.58757198
v 0.00000000 -0.08164697 0.58303398
v 0.00384796 -0.07591795 0.57416397
v 0.00000000 -0.07886093 0.57853198
v 0.00000000 -0.07601493 0.57406700
v 0.00765997 -0.07562798 0.57445401
v 0.01405996 -0.07470196 0.57538003
v 0.01620298 -0.08295798 0.58899403
v 0.02022695 -0.07327097 0.57681102
v 0.02585995 -0.08064395 0.59130502
v 0.02613896 -0.07137393 0.57870799
v 0.03601098 -0.06693297 0.58314902
v 0.03548097 -0.07698696 0.59496599
v 0.04401797 -0.06829094 0.61063999
v 0.04401999 -0.07352995 0.60540098
v 0.04494798 -0.07768392 0.62003201
v 0.04660397 -0.07143497 0.60291803
v 0.04574894 -0.07804393 0.61990201
v 0.04482895 -0.07386994 0.60523301
v 0.04480099 -0.07382297 0.60505497
v 0.04475396 -0.07380098 0.60489798
v 0.04406696 -0.07392096 0.60373902
v 0.04445296 -0.07384896 0.60437697
v 0.04421198 -0.07390797 0.60401303
v 0.04582595 -0.07165795 0.60185897
v 0.04468297 -0.07380193 0.60474801
v 0.04511100 -0.07192194 0.60104799
v 0.04457795 -0.07382094 0.60457498
v 0.04454594 -0.07216292 0.60048801
v 0.04396897 -0.07395297 0.60361302
v 0.04296499 -0.07295894 0.59921300
v 0.04386395 -0.07400596 0.60352898
v 0.04086595 -0.07413297 0.59788698
v 0.03575998 -0.07843893 0.59916598
v 0.03548097 -0.07698696 0.59496599
v 0.04578596 -0.07828897 0.62090898
v 0.03650999 -0.06661695 0.61191899
v 0.03550499 -0.06585192 0.61268401
v 0.03501397 -0.06630694 0.61222798
v 0.03691095 -0.06633293 0.61220300
v 0.03609895 -0.06546294 0.61307299
v 0.03618496 -0.06694495 0.61159098
v 0.03464096 -0.06681495 0.61172098
v 0.03737497 -0.06610298 0.61243200
v 0.03677797 -0.06515097 0.61338502
v 0.03594595 -0.06730794 0.61122799
v 0.03439599 -0.06735897 0.61117601
v 0.03788799 -0.06593394 0.61260200
v 0.03752195 -0.06492596 0.61361003
v 0.03579896 -0.06769496 0.61084098
v 0.03430896 -0.06772392 0.61081201
v 0.03843599 -0.06583094 0.61270499
v 0.03830897 -0.06479394 0.61374199
v 0.03574997 -0.06809395 0.61044198
v 0.03428000 -0.06809395 0.61044198
v 0.03899997 -0.06579595 0.61273998
v 0.03911799 -0.06475895 0.61377698
v 0.03579896 -0.06849294 0.61004299
v 0.03956395 -0.06583094 0.61270499
v 0.03992295 -0.06482195 0.61371303
v 0.03594595 -0.06887996 0.60965598
v 0.04011195 -0.06593394 0.61260200
v 0.04069900 -0.06498193 0.61355400
v 0.03618496 -0.06924295 0.60929298
v 0.04062497 -0.06610298 0.61243200
v 0.04142600 -0.06523293 0.61330301
v 0.03650999 -0.06957095 0.60896498
v 0.04108899 -0.06633293 0.61220300
v 0.04208195 -0.06556797 0.61296803
v 0.04148995 -0.06661695 0.61191899
v 0.04264897 -0.06597793 0.61255801
v 0.04181498 -0.06694495 0.61159098
v 0.04310595 -0.06644994 0.61208600
v 0.04205399 -0.06730794 0.61122799
v 0.04344296 -0.06696993 0.61156601
v 0.04220098 -0.06769496 0.61084098
v 0.04364997 -0.06752294 0.61101300
v 0.04224997 -0.06809395 0.61044198
v 0.04371994 -0.06809395 0.61044198
v 0.04205399 -0.06887996 0.60965598
v 0.04181498 -0.06924295 0.60929298
v 0.04220098 -0.06849294 0.61004299
v 0.03428000 -0.07863897 0.59989703
v 0.03457295 -0.07850897 0.60002702
v 0.03486496 -0.07837694 0.60015899
v 0.03515595 -0.07824397 0.60029203
v 0.03691095 -0.06985396 0.60868198
v 0.03737497 -0.07008397 0.60845202
v 0.03788799 -0.07025295 0.60828298
v 0.03843599 -0.07035696 0.60817897
v 0.04371994 -0.07353794 0.60499698
v 0.03899997 -0.07039195 0.60814399
v 0.03956395 -0.07035696 0.60817897
v 0.04011195 -0.07025295 0.60828298
v 0.04062497 -0.07008397 0.60845202
v 0.04108899 -0.06985396 0.60868198
v 0.04148995 -0.06957095 0.60896498
v 0.03546500 -0.07845592 0.59983200
v 0.04368996 -0.07408195 0.60390198
v 0.04364395 -0.07406896 0.60401499
v 0.04361397 -0.07404994 0.60412699
v 0.04359698 -0.07402396 0.60424101
v 0.03566098 -0.07849496 0.59943998
v 0.04374694 -0.07408493 0.60380399
v 0.03561097 -0.07851797 0.59941697
v 0.03420799 -0.07901692 0.59927702
v 0.03561097 -0.07851797 0.59941697
v 0.03546500 -0.07845592 0.59983200
v 0.03422498 -0.07913392 0.59881097
v 0.03843599 -0.06583094 0.61270499
v 0.03899997 -0.06530094 0.61224502
v 0.03899997 -0.06579595 0.61273998
v 0.03843599 -0.06533592 0.61220998
v 0.03788799 -0.06593394 0.61260200
v 0.03788799 -0.06543892 0.61210698
v 0.03737497 -0.06610298 0.61243200
v 0.03737497 -0.06560897 0.61193699
v 0.03691095 -0.06633293 0.61220300
v 0.03691095 -0.06583797 0.61170799
v 0.03650999 -0.06661695 0.61191899
v 0.03650999 -0.06612193 0.61142403
v 0.03618496 -0.06694495 0.61159098
v 0.03618496 -0.06644994 0.61109602
v 0.03594595 -0.06730794 0.61122799
v 0.03594595 -0.06681293 0.61073297
v 0.03579896 -0.06769496 0.61084098
v 0.03579896 -0.06719994 0.61034602
v 0.03574997 -0.06809395 0.61044198
v 0.03574997 -0.06759893 0.60994703
v 0.03579896 -0.06849294 0.61004299
v 0.03579896 -0.06799793 0.60954797
v 0.03594595 -0.06887996 0.60965598
v 0.03594595 -0.06838494 0.60916102
v 0.03618496 -0.06924295 0.60929298
v 0.03618496 -0.06874793 0.60879803
v 0.03650999 -0.06957095 0.60896498
v 0.03650999 -0.06907594 0.60847002
v 0.03691095 -0.06985396 0.60868198
v 0.03691095 -0.06935894 0.60818702
v 0.03737497 -0.07008397 0.60845202
v 0.03737497 -0.06958895 0.60795701
v 0.03788799 -0.07025295 0.60828298
v 0.03788799 -0.06975793 0.60778803
v 0.03843599 -0.07035696 0.60817897
v 0.03843599 -0.06986194 0.60768402
v 0.03899997 -0.07039195 0.60814399
v 0.03899997 -0.06989693 0.60764903
v 0.03956395 -0.07035696 0.60817897
v 0.03956395 -0.06986194 0.60768402
v 0.04011195 -0.07025295 0.60828298
v 0.04011195 -0.06975793 0.60778803
v 0.04062497 -0.07008397 0.60845202
v 0.04062497 -0.06958895 0.60795701
v 0.04108899 -0.06985396 0.60868198
v 0.04108899 -0.06935894 0.60818702
v 0.04148995 -0.06957095 0.60896498
v 0.04148995 -0.06907594 0.60847002
v 0.04181498 -0.06924295 0.60929298
v 0.04181498 -0.06874793 0.60879803
v 0.04205399 -0.06887996 0.60965598
v 0.04205399 -0.06838494 0.60916102
v 0.04220098 -0.06849294 0.61004299
v 0.04220098 -0.06799793 0.60954797
v 0.04224997 -0.06809395 0.61044198
v 0.04224997 -0.06759893 0.60994703
v 0.04220098 -0.06769496 0.61084098
v 0.04220098 -0.06719994 0.61034602
v 0.04205399 -0.06730794 0.61122799
v 0.04205399 -0.06681293 0.61073297
v 0.04181498 -0.06694495 0.61159098
v 0.04181498 -0.06644994 0.61109602
v 0.04148995 -0.06661695 0.61191899
v 0.04148995 -0.06612193 0.61142403
v 0.04108899 -0.06633293 0.61220300
v 0.04108899 -0.06583797 0.61170799
v 0.04062497 -0.06610298 0.61243200
v 0.04062497 -0.06560897 0.61193699
v 0.04011195 -0.06593394 0.61260200
v 0.04011195 -0.06543892 0.61210698
v 0.03956395 -0.06583094 0.61270499
v 0.03956395 -0.06533592 0.61220998
v 0.03899997 -0.06579595 0.61273998
v 0.03899997 -0.06530094 0.61224502
v 0.03788799 -0.06543892 0.61210698
v 0.03737497 -0.06560897 0.61193699
v 0.03691095 -0.06583797 0.61170799
v 0.04062497 -0.06560897 0.61193699
v 0.03956395 -0.06533592 0.61220998
v 0.03899997 -0.06530094 0.61224502
v 0.04011195 -0.06543892 0.61210698
v 0.03843599 -0.06533592 0.61220998
v 0.04108899 -0.06583797 0.61170799
v 0.04181498 -0.06644994 0.61109602
v 0.04148995 -0.06612193 0.61142403
v 0.03650999 -0.06612193 0.61142403
v 0.03618496 -0.06644994 0.61109602
v 0.04205399 -0.06681293 0.61073297
v 0.03594595 -0.06681293 0.61073297
v 0.04220098 -0.06719994 0.61034602
v 0.03579896 -0.06719994 0.61034602
v 0.04224997 -0.06759893 0.60994703
v 0.04220098 -0.06799793 0.60954797
v 0.03574997 -0.06759893 0.60994703
v 0.03579896 -0.06799793 0.60954797
v 0.03956395 -0.06986194 0.60768402
v 0.03843599 -0.06986194 0.60768402
v 0.03899997 -0.06989693 0.60764903
v 0.03788799 -0.06975793 0.60778803
v 0.03737497 -0.06958895 0.60795701
v 0.04205399 -0.06838494 0.60916102
v 0.03594595 -0.06838494 0.60916102
v 0.04011195 -0.06975793 0.60778803
v 0.03691095 -0.06935894 0.60818702
v 0.03650999 -0.06907594 0.60847002
v 0.04148995 -0.06907594 0.60847002
v 0.04181498 -0.06874793 0.60879803
v 0.04108899 -0.06935894 0.60818702
v 0.04062497 -0.06958895 0.60795701
v 0.03618496 -0.06874793 0.60879803
v 0.01131397 -0.06543797 0.68336397
v 0.02164900 -0.05886495 0.69147199
v 0.01106494 -0.06540995 0.68344897
v 0.01081597 -0.06540095 0.68350101
v 0.01687496 -0.05824697 0.69343197
v 0.01151698 -0.06547993 0.68326300
v 0.02619999 -0.05962097 0.68908000
v 0.01054298 -0.06540894 0.68352801
v 0.01179295 -0.06557393 0.68306100
v 0.01153194 -0.06550794 0.68321300
v 0.01197195 -0.06564396 0.68291402
v 0.01211196 -0.06572097 0.68276000
v 0.01222699 -0.06580495 0.68259901
v 0.03046900 -0.06050592 0.68628198
v 0.01232296 -0.06590294 0.68241698
v 0.01239997 -0.06603097 0.68218398
v 0.01244896 -0.06618195 0.68191701
v 0.03441900 -0.06151497 0.68309700
v 0.01246994 -0.06781196 0.67904103
v 0.01252800 -0.06960797 0.67569101
v 0.04123097 -0.06387495 0.67564100
v 0.03802198 -0.06264096 0.67953902
v -0.02067899 -0.05871695 0.69194901
v -0.01156896 -0.06549197 0.68324900
v -0.01129198 -0.06544095 0.68337899
v -0.01098698 -0.06541192 0.68347198
v -0.01064294 -0.06540697 0.68352997
v -0.01403295 -0.05794894 0.69438303
v -0.02692395 -0.05974596 0.68869603
v -0.01242095 -0.06599092 0.68226600
v -0.01228696 -0.06583797 0.68254799
v -0.01211094 -0.06570798 0.68279898
v -0.01197195 -0.06563192 0.68294901
v -0.01181399 -0.06556594 0.68308598
v 0.01244294 -0.07581293 0.66227901
v 0.04827696 -0.06826996 0.66175598
v 0.01250594 -0.07569992 0.66254401
v 0.01233094 -0.07592397 0.66202903
v 0.01217496 -0.07603096 0.66179401
v 0.01198196 -0.07613092 0.66158700
v 0.04975295 -0.07030194 0.65533203
v 0.01175194 -0.07622194 0.66140503
v 0.01144999 -0.07631397 0.66123497
v 0.01117998 -0.07637393 0.66113800
v 0.05026698 -0.07250893 0.64835203
v 0.01089495 -0.07641994 0.66107601
v -0.03263098 -0.06101596 0.68468499
v -0.03771096 -0.06251198 0.67996103
v -0.01252996 -0.07286298 0.66908801
v 0.04249995 -0.07941395 0.63005900
v 0.04329496 -0.07933694 0.62917799
v 0.04772597 -0.07713997 0.63370502
v 0.04401499 -0.07929497 0.62816101
v 0.04173296 -0.07951295 0.63072801
v 0.04436898 -0.07928895 0.62754899
v 0.04469394 -0.07929497 0.62689602
v -0.04162395 -0.06401497 0.67521501
v -0.04868799 -0.06863194 0.66062897
v -0.01187294 -0.07617998 0.66150498
v -0.01205796 -0.07608896 0.66169602
v -0.01221400 -0.07598996 0.66190898
v -0.01234096 -0.07588797 0.66213697
v -0.01243698 -0.07578194 0.66237903
v -0.01251196 -0.07564598 0.66269702
v -0.04987096 -0.07038795 0.65507901
v -0.01119399 -0.07638496 0.66112602
v -0.01143795 -0.07632994 0.66121697
v -0.01166498 -0.07626092 0.66134399
v -0.05034399 -0.07227092 0.64912498
v -0.01095497 -0.07642096 0.66108203
v -0.04286998 -0.07939696 0.62971002
v -0.04184198 -0.07951992 0.63066798
v -0.04699200 -0.07782495 0.63155800
v -0.04388695 -0.07932293 0.62839699
v -0.04473799 -0.07932096 0.62683100
v 0.00559699 -0.05962496 0.69302201
v 0.00000100 -0.06576395 0.68370098
v 0.01191699 -0.05777198 0.69494200
v 0.00682700 -0.05744594 0.69597602
v 0.00343496 -0.05731993 0.69637400
v 0.00000000 -0.05727392 0.69651800
v -0.00569296 -0.05962496 0.69302201
v -0.01021796 -0.06542694 0.68355602
v -0.00547695 -0.06566894 0.68365699
v -0.00709295 -0.05745595 0.69594800
v 0.04024499 -0.06761193 0.66893297
v 0.01256197 -0.07400393 0.66653597
v 0.01252895 -0.07545596 0.66313398
v 0.04628896 -0.06660294 0.66702402
v 0.04399496 -0.06519895 0.67145997
v 0.04024499 -0.07946097 0.63320798
v 0.03723299 -0.08043992 0.63216799
v 0.03800499 -0.08024096 0.63219100
v 0.03881394 -0.08005195 0.63209200
v 0.03960096 -0.07988393 0.63188303
v 0.04033398 -0.07974195 0.63158900
v 0.04106295 -0.07961493 0.63119298
v 0.04960799 -0.07484698 0.64096099
v -0.04034197 -0.06761193 0.66893297
v -0.04454594 -0.06546396 0.67063999
v -0.04690998 -0.06700497 0.66577101
v -0.01253098 -0.07550394 0.66303903
v -0.01252597 -0.07425093 0.66599798
v 0.01354199 -0.08321493 0.63830000
v 0.03219699 -0.08278292 0.62471402
v 0.03225898 -0.08253794 0.62638199
v 0.03255099 -0.08226197 0.62781602
v 0.03302395 -0.08196693 0.62903702
v 0.03357100 -0.08169496 0.62995303
v 0.03420096 -0.08142697 0.63068700
v 0.03496497 -0.08114093 0.63131797
v 0.03574198 -0.08087795 0.63175797
v 0.03647899 -0.08065193 0.63202602
v 0.00542295 -0.07669496 0.66116798
v 0.00000000 -0.07678896 0.66119498
v -0.01363897 -0.08321493 0.63830000
v -0.00996900 -0.07649797 0.66106498
v -0.01063197 -0.07645297 0.66106099
v -0.04997199 -0.07425993 0.64283597
v -0.03719300 -0.08046996 0.63218701
v -0.03643798 -0.08068293 0.63203698
v -0.03578597 -0.08088296 0.63180101
v -0.03517496 -0.08108597 0.63147599
v -0.03461295 -0.08128798 0.63107401
v -0.03410196 -0.08148592 0.63060302
v -0.03364700 -0.08167892 0.63007498
v -0.03325897 -0.08186095 0.62949800
v -0.03293997 -0.08203095 0.62888402
v -0.03260594 -0.08223992 0.62801898
v -0.03234899 -0.08244997 0.62699503
v -0.03221195 -0.08263397 0.62592798
v -0.03218597 -0.08272194 0.62533402
v -0.03219497 -0.08280092 0.62473297
v 0.01666498 -0.08668297 0.60383499
v 0.01336699 -0.08700996 0.60240102
v 0.01863998 -0.08645397 0.60407799
v 0.02362895 -0.08574497 0.60620898
v -0.04034197 -0.07946097 0.63320798
v -0.04869496 -0.07624793 0.63654703
v -0.04080998 -0.07967895 0.63136703
v -0.03985196 -0.07985496 0.63181603
v -0.03888899 -0.08005595 0.63209897
v -0.03803700 -0.08025395 0.63221103
v 0.00559699 -0.08745294 0.60912198
v 0.00000000 -0.08762496 0.60055000
v 0.00766897 -0.08740997 0.60118997
v 0.02835595 -0.08488392 0.60880601
v 0.03277599 -0.08387696 0.61184698
v -0.00569397 -0.08745294 0.60912198
v -0.03277200 -0.08389395 0.61191303
v -0.02528899 -0.08547896 0.60711598
v -0.01891398 -0.08643096 0.60423499
v -0.01155197 -0.08716797 0.60199702
v -0.00542796 -0.08751797 0.60090297
f 1 2 3
f 1 3 4
f 5 6 2
f 5 2 1
f 7 8 9
f 10 11 6
f 10 6 5
f 12 13 11
f 12 11 10
f 14 13 12
f 15 16 13
f 15 13 14
f 17 18 16
f 17 16 15
f 19 18 17
f 20 21 18
f 20 18 19
f 22 9 21
f 22 21 20
f 23 7 9
f 23 9 22
f 24 23 25
f 24 7 23
f 26 27 7
f 26 7 24
f 28 29 30
f 31 28 30
f 32 33 27
f 32 27 26
f 34 31 30
f 34 30 35
f 36 34 35
f 36 35 37
f 38 39 33
f 38 33 32
f 40 36 37
f 40 37 41
f 42 43 39
f 42 39 38
f 44 40 41
f 44 41 45
f 46 43 42
f 46 44 45
f 46 45 43
f 47 48 49
f 47 49 50
f 47 50 51
f 52 53 54
f 52 54 48
f 52 48 47
f 55 47 51
f 56 57 58
f 56 58 53
f 56 53 52
f 59 47 55
f 59 52 47
f 60 55 51
f 61 62 63
f 61 63 64
f 61 64 57
f 61 57 56
f 65 56 52
f 65 52 59
f 65 61 56
f 66 59 55
f 66 55 60
f 67 51 68
f 67 60 51
f 69 61 65
f 69 62 61
f 70 65 59
f 70 59 66
f 71 66 60
f 71 60 67
f 71 70 66
f 72 67 68
f 73 74 62
f 73 65 70
f 73 62 69
f 73 69 65
f 75 70 71
f 75 73 70
f 76 71 67
f 76 67 72
f 77 72 68
f 78 73 75
f 78 74 73
f 79 75 71
f 79 71 76
f 80 76 72
f 80 72 77
f 81 68 82
f 81 82 83
f 81 83 84
f 81 77 68
f 85 75 79
f 85 74 78
f 85 78 75
f 86 76 80
f 86 79 76
f 86 85 79
f 87 84 88
f 87 88 89
f 87 89 90
f 87 90 91
f 87 91 92
f 87 92 93
f 87 80 77
f 87 77 81
f 87 81 84
f 94 95 96
f 94 96 74
f 94 74 85
f 94 85 86
f 97 93 98
f 97 98 99
f 97 99 100
f 97 86 80
f 97 100 101
f 97 80 87
f 97 87 93
f 102 101 103
f 102 103 95
f 102 97 101
f 102 95 94
f 102 94 86
f 102 86 97
f 104 105 106
f 104 107 108
f 104 108 109
f 104 109 105
f 110 111 112
f 110 112 107
f 110 107 104
f 113 106 114
f 113 114 115
f 113 104 106
f 116 117 118
f 116 118 111
f 116 111 110
f 119 110 104
f 119 113 115
f 119 104 113
f 120 121 122
f 120 122 123
f 120 123 117
f 120 117 116
f 124 116 110
f 124 110 119
f 125 115 126
f 125 119 115
f 127 121 120
f 127 120 116
f 127 116 124
f 128 119 125
f 128 125 126
f 128 124 119
f 128 127 124
f 129 121 127
f 129 127 128
f 130 126 131
f 130 128 126
f 132 133 121
f 132 130 131
f 132 121 129
f 132 129 128
f 132 128 130
f 134 131 135
f 134 135 136
f 134 136 137
f 134 137 133
f 134 133 132
f 134 132 131
f 138 139 140
f 138 140 141
f 138 141 142
f 143 144 145
f 146 144 143
f 147 148 149
f 147 149 150
f 147 150 151
f 147 152 148
f 153 154 155
f 153 155 156
f 153 156 157
f 158 159 154
f 158 154 153
f 160 153 157
f 161 162 163
f 161 163 159
f 161 159 158
f 164 153 160
f 164 158 153
f 165 157 166
f 165 160 157
f 167 168 169
f 167 169 170
f 167 170 162
f 167 162 161
f 171 158 164
f 171 161 158
f 172 160 165
f 172 164 160
f 173 165 166
f 174 161 171
f 174 167 161
f 174 168 167
f 175 164 172
f 175 171 164
f 176 165 173
f 176 172 165
f 177 173 166
f 178 168 174
f 178 174 171
f 178 171 175
f 179 175 172
f 179 172 176
f 180 176 173
f 180 173 177
f 181 166 182
f 181 177 166
f 183 184 168
f 183 168 178
f 183 175 179
f 183 178 175
f 185 176 180
f 185 183 179
f 185 179 176
f 186 177 181
f 186 180 177
f 187 182 188
f 187 181 182
f 189 183 185
f 189 184 183
f 190 180 186
f 190 185 180
f 191 188 192
f 191 187 188
f 191 192 193
f 191 193 194
f 191 181 187
f 191 186 181
f 195 184 189
f 195 185 190
f 195 189 185
f 196 190 186
f 196 194 197
f 196 186 191
f 196 197 198
f 196 198 199
f 196 199 200
f 196 200 201
f 196 195 190
f 196 201 202
f 196 191 194
f 203 202 204
f 203 204 205
f 203 205 206
f 203 206 207
f 203 207 184
f 203 196 202
f 203 195 196
f 203 184 195
f 208 209 210
f 211 208 210
f 212 211 210
f 213 212 210
f 214 215 216
f 214 216 217
f 218 219 220
f 221 219 218
f 222 221 218
f 223 224 225
f 223 225 226
f 223 226 227
f 228 229 230
f 228 230 224
f 228 224 223
f 231 223 227
f 232 233 234
f 232 234 229
f 232 229 228
f 235 223 231
f 235 228 223
f 236 235 231
f 236 231 227
f 237 238 239
f 237 239 240
f 237 240 233
f 237 241 238
f 237 233 232
f 242 232 228
f 242 228 235
f 243 235 236
f 244 227 245
f 244 236 227
f 246 247 248
f 246 248 241
f 246 242 247
f 246 241 237
f 246 237 232
f 246 232 242
f 249 250 251
f 249 251 247
f 249 247 242
f 249 242 235
f 249 243 250
f 249 235 243
f 252 253 250
f 252 244 253
f 252 243 236
f 252 250 243
f 252 236 244
f 254 245 255
f 254 255 256
f 254 256 253
f 254 253 244
f 254 244 245
f 257 258 259
f 257 259 260
f 257 260 261
f 257 261 262
f 263 257 264
f 265 263 266
f 265 257 263
f 267 258 257
f 267 257 265
f 268 269 270
f 268 270 271
f 272 267 273
f 272 258 267
f 274 275 268
f 276 258 272
f 277 278 279
f 277 279 258
f 277 258 276
f 280 281 274
f 282 278 277
f 283 284 278
f 283 271 284
f 283 268 271
f 283 278 282
f 285 286 280
f 285 280 274
f 287 283 288
f 287 289 290
f 287 290 285
f 287 274 268
f 287 268 283
f 287 285 274
f 291 287 288
f 291 288 292
f 293 294 295
f 296 295 294
f 297 293 295
f 298 295 296
f 299 295 300
f 299 297 295
f 301 295 298
f 302 299 300
f 303 304 295
f 303 295 301
f 305 300 306
f 305 302 300
f 307 304 303
f 308 306 309
f 308 305 306
f 310 304 307
f 311 308 309
f 312 311 309
f 313 304 310
f 314 311 312
f 315 314 312
f 316 304 313
f 317 314 315
f 318 304 316
f 319 320 317
f 319 317 315
f 321 320 319
f 321 322 320
f 323 324 322
f 323 322 321
f 325 324 323
f 325 326 324
f 327 304 318
f 327 318 328
f 327 328 329
f 327 329 330
f 327 330 331
f 327 331 332
f 333 326 325
f 333 334 326
f 335 336 334
f 335 334 333
f 337 327 332
f 337 332 338
f 339 340 336
f 339 336 335
f 341 338 342
f 341 337 338
f 343 344 340
f 343 340 339
f 345 342 346
f 345 341 342
f 347 348 344
f 347 344 343
f 349 346 348
f 349 348 347
f 349 345 346
f 350 351 352
f 353 354 351
f 355 350 356
f 355 356 357
f 358 355 359
f 360 358 361
f 362 351 350
f 362 355 358
f 362 350 355
f 362 358 360
f 363 362 364
f 363 353 351
f 363 351 362
f 365 366 367
f 368 363 369
f 368 353 363
f 370 353 368
f 371 372 373
f 371 373 365
f 374 375 376
f 374 376 353
f 374 377 378
f 374 378 379
f 374 379 375
f 374 353 370
f 380 381 371
f 382 374 383
f 384 374 382
f 384 367 385
f 384 385 377
f 384 371 365
f 384 365 367
f 384 377 374
f 384 380 371
f 386 387 388
f 389 386 388
f 390 388 387
f 391 386 389
f 392 388 390
f 393 391 389
f 394 388 392
f 395 393 389
f 396 388 394
f 397 389 398
f 397 395 389
f 399 397 398
f 400 398 401
f 400 399 398
f 402 401 403
f 402 400 401
f 404 402 403
f 404 403 405
f 406 396 407
f 406 407 408
f 406 408 409
f 406 409 410
f 406 388 396
f 411 406 410
f 412 404 405
f 413 412 405
f 414 406 411
f 415 412 413
f 416 415 413
f 417 406 414
f 418 415 416
f 419 418 416
f 419 420 418
f 421 420 419
f 421 422 420
f 423 422 421
f 423 424 422
f 425 406 417
f 425 417 426
f 425 426 427
f 428 429 424
f 428 424 423
f 430 425 427
f 430 427 431
f 432 433 429
f 432 429 428
f 434 431 435
f 434 430 431
f 436 437 433
f 436 433 432
f 438 434 435
f 438 435 439
f 440 441 437
f 440 437 436
f 442 439 441
f 442 438 439
f 442 441 440
f 443 444 445
f 446 447 444
f 446 444 443
f 448 449 447
f 448 447 446
f 450 451 449
f 450 449 448
f 452 453 451
f 452 451 450
f 454 455 453
f 454 453 452
f 456 455 454
f 456 457 455
f 458 457 456
f 458 459 457
f 460 459 458
f 460 461 459
f 462 461 460
f 462 463 461
f 464 463 462
f 464 465 463
f 466 465 464
f 466 467 465
f 468 467 466
f 468 469 467
f 470 469 468
f 470 471 469
f 472 471 470
f 472 473 471
f 474 473 472
f 474 475 473
f 476 475 474
f 476 477 475
f 478 477 476
f 478 479 477
f 480 479 478
f 480 481 479
f 482 481 480
f 482 483 481
f 484 485 483
f 484 483 482
f 486 487 485
f 486 485 484
f 488 489 487
f 488 487 486
f 490 491 489
f 490 489 488
f 492 493 491
f 492 491 490
f 494 495 493
f 494 493 492
f 496 497 495
f 496 495 494
f 498 499 497
f 498 497 496
f 500 501 499
f 500 499 498
f 502 503 501
f 502 501 500
f 504 505 503
f 504 503 502
f 506 505 504
f 506 507 505
f 508 507 506
f 508 509 507
f 510 509 508
f 510 511 509
f 512 511 510
f 512 513 511
f 514 513 512
f 514 515 513
f 516 515 514
f 517 518 519
f 517 520 518
f 517 521 520
f 522 523 521
f 522 521 517
f 524 525 523
f 524 523 522
f 526 527 525
f 526 525 524
f 528 529 527
f 528 527 526
f 530 529 528
f 530 531 529
f 532 531 530
f 532 533 531
f 534 533 532
f 534 535 533
f 536 535 534
f 536 537 535
f 538 537 536
f 538 539 537
f 540 539 538
f 540 541 539
f 542 541 540
f 542 543 541
f 544 543 542
f 544 545 543
f 546 545 544
f 546 547 545
f 548 547 546
f 548 549 547
f 550 549 548
f 550 551 549
f 552 551 550
f 552 553 551
f 554 553 552
f 554 555 553
f 556 555 554
f 556 557 555
f 558 557 556
f 558 559 557
f 560 561 559
f 560 559 558
f 562 563 561
f 562 561 560
f 564 565 563
f 564 563 562
f 566 567 565
f 566 565 564
f 568 569 567
f 568 567 566
f 570 571 569
f 570 569 568
f 572 573 571
f 572 571 570
f 574 573 572
f 575 576 573
f 575 577 576
f 575 573 574
f 578 579 577
f 578 577 575
f 580 581 579
f 580 579 578
f 582 581 580
f 582 583 581
f 584 583 582
f 584 585 583
f 586 585 584
f 586 587 585
f 588 587 586
f 589 587 588
f 589 590 587
f 591 592 593
f 591 594 592
f 595 593 596
f 595 591 593
f 597 596 598
f 597 595 596
f 599 598 600
f 599 597 598
f 601 600 602
f 601 599 600
f 603 602 604
f 603 601 602
f 605 603 604
f 606 605 604
f 607 605 606
f 608 607 606
f 609 607 608
f 610 608 611
f 610 609 608
f 612 610 611
f 613 612 611
f 614 612 613
f 615 614 613
f 616 614 615
f 617 616 615
f 618 616 617
f 619 618 617
f 620 618 619
f 621 622 623
f 624 619 622
f 624 620 619
f 624 622 621
f 625 624 621
f 626 627 628
f 629 630 631
f 629 632 630
f 633 634 635
f 636 637 638
f 636 639 637
f 640 641 642
f 643 644 641
f 643 645 644
f 646 643 641
f 646 641 640
f 647 643 646
f 648 649 650
f 648 651 649
f 652 627 653
f 652 653 654
f 652 650 628
f 652 654 651
f 652 628 627
f 652 651 648
f 652 648 650
f 655 656 630
f 655 628 656
f 657 655 630
f 657 632 658
f 657 658 626
f 657 626 628
f 657 630 632
f 657 628 655
f 659 633 660
f 659 660 629
f 659 631 634
f 659 629 631
f 659 634 633
f 661 662 637
f 661 635 662
f 663 635 661
f 663 639 664
f 663 664 633
f 663 661 637
f 663 633 635
f 663 637 639
f 665 638 666
f 667 645 668
f 667 668 636
f 667 666 644
f 667 638 665
f 667 636 638
f 667 665 666
f 667 644 645
f 669 670 671
f 672 673 670
f 672 674 673
f 672 670 669
f 675 672 669
f 675 669 676
f 677 675 676
f 677 676 678
f 679 677 678
f 679 680 681
f 679 678 680
f 682 679 681
f 682 681 683
f 684 682 683
f 684 683 685
f 686 684 685
f 686 685 687
f 688 687 689
f 688 686 687
f 690 691 692
f 693 691 690
f 694 690 692
f 695 691 693
f 696 694 692
f 697 696 692
f 698 689 691
f 698 691 695
f 699 692 700
f 699 697 692
f 701 699 700
f 702 701 700
f 703 702 700
f 704 703 700
f 705 700 706
f 705 704 700
f 707 705 706
f 708 707 706
f 709 706 710
f 709 708 706
f 711 709 710
f 712 710 713
f 712 711 710
f 714 715 716
f 714 716 717
f 714 717 718
f 719 714 718
f 720 712 713
f 721 714 719
f 722 714 721
f 723 714 722
f 724 714 723
f 725 714 724
f 725 726 727
f 725 727 728
f 725 728 729
f 725 729 730
f 725 731 726
f 725 724 732
f 725 732 731
f 733 725 730
f 734 725 733
f 734 733 735
f 734 735 736
f 734 736 737
f 734 737 738
f 739 734 738
f 739 740 741
f 739 742 740
f 739 738 743
f 739 743 744
f 739 744 742
f 745 739 741
f 746 745 741
f 747 746 741
f 747 741 720
f 747 720 713
f 748 746 747
f 749 746 748
f 750 746 749
f 751 746 750
f 752 753 688
f 752 688 689
f 752 714 753
f 752 698 754
f 752 754 755
f 752 755 715
f 752 715 714
f 752 689 698
f 756 757 758
f 759 758 760
f 759 760 761
f 759 756 758
f 762 763 764
f 762 764 765
f 762 765 766
f 767 763 762
f 767 768 763
f 769 762 766
f 770 771 772
f 770 772 768
f 770 768 767
f 773 767 762
f 773 762 769
f 774 769 766
f 775 776 777
f 775 777 771
f 775 771 770
f 778 770 767
f 778 767 773
f 779 773 769
f 779 769 774
f 780 774 766
f 781 776 775
f 781 782 783
f 781 783 776
f 784 770 778
f 784 775 770
f 785 778 773
f 785 773 779
f 785 784 778
f 786 774 780
f 786 779 774
f 786 785 779
f 787 766 788
f 787 780 766
f 789 790 791
f 789 791 782
f 789 782 781
f 792 775 784
f 792 781 775
f 793 784 785
f 794 785 786
f 795 786 780
f 795 780 787
f 796 787 788
f 797 798 799
f 797 799 790
f 797 790 789
f 800 781 792
f 800 789 781
f 800 797 789
f 801 792 784
f 801 784 793
f 802 793 785
f 802 785 794
f 802 801 793
f 803 786 795
f 803 802 794
f 803 794 786
f 804 795 787
f 804 787 796
f 805 806 798
f 805 798 797
f 807 796 788
f 808 797 800
f 809 800 792
f 809 808 800
f 809 792 801
f 810 801 802
f 811 802 803
f 812 795 804
f 812 803 795
f 812 811 803
f 813 814 815
f 813 815 816
f 813 816 806
f 813 806 805
f 817 804 796
f 817 796 807
f 818 805 797
f 818 797 808
f 819 807 788
f 819 817 807
f 820 808 809
f 820 818 808
f 821 809 801
f 821 801 810
f 821 820 809
f 822 821 810
f 822 810 802
f 822 802 811
f 823 811 812
f 824 823 812
f 824 812 804
f 824 804 817
f 825 814 813
f 825 813 805
f 825 805 818
f 826 817 819
f 827 818 820
f 828 788 829
f 828 829 830
f 828 819 788
f 831 820 821
f 832 831 821
f 832 821 822
f 833 811 823
f 833 822 811
f 834 823 824
f 835 824 817
f 835 834 824
f 835 817 826
f 836 825 818
f 836 837 814
f 836 818 827
f 836 814 825
f 838 826 819
f 838 819 828
f 839 827 820
f 839 820 831
f 839 836 827
f 840 831 832
f 841 832 822
f 841 840 832
f 841 822 833
f 842 833 823
f 842 823 834
f 843 834 835
f 844 835 826
f 844 826 838
f 845 836 839
f 845 837 836
f 846 830 847
f 846 847 848
f 846 828 830
f 846 838 828
f 849 831 840
f 849 839 831
f 850 840 841
f 851 841 833
f 851 833 842
f 851 850 841
f 852 842 834
f 852 834 843
f 853 843 835
f 853 835 844
f 854 848 855
f 854 855 856
f 854 856 857
f 854 844 838
f 854 853 844
f 854 846 848
f 854 838 846
f 858 837 845
f 858 845 839
f 858 839 849
f 859 849 840
f 859 840 850
f 859 858 849
f 860 850 851
f 861 860 851
f 861 851 842
f 861 842 852
f 862 852 843
f 862 843 853
f 863 857 864
f 863 864 865
f 863 865 866
f 863 866 867
f 863 854 857
f 863 853 854
f 868 837 858
f 868 858 859
f 869 859 850
f 869 850 860
f 870 860 861
f 871 870 861
f 871 872 873
f 871 861 852
f 871 852 862
f 874 853 863
f 874 867 875
f 874 875 876
f 874 876 877
f 874 863 867
f 874 862 853
f 878 879 837
f 878 868 859
f 878 859 869
f 878 837 868
f 880 881 879
f 880 879 878
f 880 882 881
f 880 869 860
f 880 878 869
f 880 870 882
f 880 860 870
f 883 871 873
f 883 873 884
f 883 884 885
f 883 885 882
f 883 882 870
f 883 870 871
f 886 872 871
f 886 871 862
f 886 874 877
f 886 877 887
f 886 887 872
f 886 862 874
f 888 889 890
f 888 891 889
f 888 892 893
f 888 893 891
f 894 895 896
f 894 896 892
f 894 897 895
f 894 898 899
f 894 899 897
f 894 900 898
f 894 901 900
f 894 892 888
f 902 903 904
f 905 906 907
f 908 909 910
f 908 911 909
f 908 912 911
f 913 912 908
f 913 908 910
f 914 910 901
f 914 894 915
f 914 913 910
f 914 901 894
f 914 912 913
f 916 917 912
f 916 918 917
f 919 916 912
f 920 915 907
f 920 919 912
f 920 912 914
f 920 914 915
f 921 904 918
f 921 918 916
f 921 902 904
f 922 921 916
f 922 919 920
f 922 902 921
f 922 916 919
f 923 906 902
f 923 922 920
f 923 920 907
f 923 902 922
f 923 907 906
f 924 925 926
f 924 926 927
f 924 927 928
f 924 928 929
f 924 929 930
f 924 930 931
f 932 933 934
f 935 936 937
f 935 937 933
f 935 933 932
f 938 932 939
f 938 935 932
f 940 939 941
f 940 938 939
f 942 941 943
f 942 940 941
f 944 942 943
f 945 946 947
f 948 949 950
f 948 951 952
f 948 952 949
f 953 954 955
f 956 957 951
f 956 951 948
f 958 955 959
f 958 959 957
f 958 957 956
f 960 961 962
f 960 962 953
f 960 955 958
f 960 953 955
f 963 964 961
f 963 961 960
f 965 964 963
f 966 964 965
f 967 966 965
f 948 950 968
f 969 970 971
f 972 973 970
f 972 970 969
f 974 971 975
f 974 969 971
f 976 977 973
f 976 973 972
f 978 975 979
f 978 974 975
f 980 981 977
f 980 977 976
f 982 979 983
f 982 978 979
f 984 985 981
f 984 981 980
f 986 983 987
f 986 982 983
f 988 989 985
f 988 985 984
f 990 986 987
f 991 989 988
f 991 992 989
f 993 990 987
f 994 995 992
f 994 992 991
f 996 993 987
f 997 998 995
f 997 995 994
f 999 1000 998
f 999 998 997
f 1001 1000 999
f 1002 1000 1001
f 1003 1002 1001
f 1004 1002 1003
f 1005 1004 1003
f 1006 1004 1005
f 1006 1005 1007
f 1008 996 987
f 1008 1009 996
f 1008 1010 1009
f 1008 1011 1010
f 1008 1012 1011
f 1008 1013 1012
f 1014 1013 1008
f 1015 1014 1008
f 1016 1007 1017
f 1016 1006 1007
f 1018 1019 1020
f 1018 1021 1019
f 1018 1022 1021
f 1018 1017 1022
f 1018 1016 1017
f 1023 1024 1015
f 1023 1025 1024
f 1023 1026 1025
f 1023 1020 1026
f 1023 1015 1008
f 1027 1020 1023
f 1027 1018 1020
f 1028 1029 1030
f 1028 1030 1031
f 1028 1031 1032
f 1033 1032 1034
f 1033 1028 1032
f 1035 1028 1033
f 1036 1037 1038
f 1036 1039 1037
f 1040 1041 1042
f 1043 1044 1041
f 1043 1041 1040
f 1045 1046 1044
f 1045 1044 1043
f 1047 1048 1046
f 1047 1046 1045
f 1049 1050 1048
f 1049 1048 1047
f 1051 1052 1050
f 1051 1050 1049
f 1053 1052 1051
f 1053 1054 1052
f 1055 1054 1053
f 1055 1056 1054
f 1057 1056 1055
f 1057 1058 1056
f 1059 1058 1057
f 1059 1060 1058
f 1061 1060 1059
f 1061 1062 1060
f 1063 1062 1061
f 1063 1064 1062
f 1065 1064 1063
f 1065 1066 1064
f 1067 1066 1065
f 1067 1068 1066
f 1069 1068 1067
f 1069 1070 1068
f 1071 1070 1069
f 1071 1072 1070
f 1073 1072 1071
f 1073 1074 1072
f 1075 1074 1073
f 1075 1076 1074
f 1077 1076 1075
f 1077 1078 1076
f 1079 1078 1077
f 1079 1080 1078
f 1081 1082 1080
f 1081 1080 1079
f 1083 1084 1082
f 1083 1082 1081
f 1085 1086 1084
f 1085 1084 1083
f 1087 1088 1086
f 1087 1086 1085
f 1089 1090 1088
f 1089 1088 1087
f 1091 1090 1089
f 1092 1093 1094
f 1092 1094 1090
f 1092 1090 1091
f 1095 1096 1093
f 1095 1093 1092
f 1097 1098 1096
f 1097 1096 1095
f 1099 1100 1098
f 1099 1098 1097
f 1101 1102 1100
f 1101 1100 1099
f 1103 1102 1101
f 1103 1104 1102
f 1105 1104 1103
f 1105 1106 1104
f 1107 1106 1105
f 1108 1106 1107
f 1108 1109 1106
f 1110 1109 1108
f 1110 1111 1112
f 1110 1112 1109
f 1113 1111 1110
f 1114 1115 1116
f 1117 1116 1118
f 1117 1114 1116
f 1119 1117 1120
f 1121 1117 1119
f 1122 1121 1123
f 1124 1121 1122
f 1125 1114 1117
f 1125 1117 1121
f 1125 1121 1124
f 1126 1127 1128
f 1126 1129 1127
f 1130 1125 1131
f 1130 1132 1114
f 1130 1133 1132
f 1130 1114 1125
f 1134 1135 1133
f 1134 1133 1130
f 1136 1135 1134
f 1137 1138 1139
f 1140 1141 1135
f 1140 1135 1136
f 1142 1143 1141
f 1142 1128 1143
f 1142 1141 1140
f 1144 1145 1137
f 1144 1137 1139
f 1146 1128 1142
f 1147 1128 1146
f 1147 1139 1126
f 1147 1126 1128
f 1147 1144 1139
f 1148 1147 1146
f 1149 1147 1148
f 1150 1151 1152
f 1150 1152 1153
f 1154 1151 1150
f 1155 1156 1151
f 1155 1151 1154
f 1157 1158 1156
f 1157 1156 1155
f 1159 1158 1157
f 1160 1158 1159
f 1161 1160 1159
f 1162 1163 1160
f 1162 1160 1161
f 1164 1165 1163
f 1164 1163 1162
f 1166 1165 1164
f 1167 1165 1166
f 1168 1167 1166
f 1169 1170 1167
f 1169 1167 1168
f 1171 1170 1169
f 1172 1170 1171
f 1173 1172 1171
f 1174 1172 1173
f 1175 1174 1173
f 1176 1174 1175
f 1177 1176 1175
f 1178 1176 1177
f 1179 1178 1177
f 1180 1178 1179
f 1181 1180 1179
f 1182 1180 1181
f 1183 1184 1182
f 1185 1182 1181
f 1185 1183 1182
f 1186 1183 1185
f 1187 1188 1189
f 1190 1191 1192
f 1190 1192 1193
f 1194 1195 1196
f 1197 1198 1199
f 1200 1198 1197
f 1201 1202 1203
f 1204 1205 1202
f 1204 1202 1201
f 1206 1207 1205
f 1208 1205 1204
f 1209 1205 1208
f 1209 1206 1205
f 1210 1209 1208
f 1211 1188 1212
f 1211 1212 1213
f 1214 1213 1215
f 1214 1215 1189
f 1214 1211 1213
f 1214 1189 1188
f 1214 1188 1211
f 1216 1192 1217
f 1218 1187 1193
f 1218 1217 1188
f 1218 1188 1187
f 1218 1193 1192
f 1218 1192 1216
f 1218 1216 1217
f 1219 1220 1191
f 1221 1190 1222
f 1221 1222 1196
f 1221 1195 1220
f 1221 1191 1190
f 1221 1196 1195
f 1221 1220 1219
f 1221 1219 1191
f 1223 1199 1224
f 1225 1194 1226
f 1225 1226 1197
f 1225 1224 1195
f 1225 1199 1223
f 1225 1223 1224
f 1225 1195 1194
f 1225 1197 1199
f 1227 1228 1198
f 1227 1203 1228
f 1229 1200 1230
f 1229 1230 1201
f 1229 1203 1227
f 1229 1198 1200
f 1229 1227 1198
f 1229 1201 1203
f 1231 1232 1233
f 1234 1235 1236
f 1234 1232 1231
f 1234 1236 1237
f 1234 1237 1232
f 1238 1235 1234
f 1238 1239 1235
f 1240 1239 1238
f 1241 1242 1239
f 1241 1239 1240
f 1243 1244 1242
f 1243 1242 1241
f 1245 1246 1244
f 1245 1244 1243
f 1247 1248 1246
f 1247 1246 1245
f 1249 1250 1248
f 1249 1248 1247
f 1251 1252 1250
f 1251 1250 1249
f 1253 1252 1251
f 1254 1255 1256
f 1254 1256 1257
f 1258 1257 1256
f 1259 1255 1254
f 1260 1256 1252
f 1260 1258 1256
f 1261 1255 1259
f 1262 1263 1255
f 1262 1255 1261
f 1264 1260 1252
f 1264 1252 1253
f 1265 1263 1262
f 1266 1253 1267
f 1266 1264 1253
f 1268 1263 1265
f 1269 1263 1268
f 1270 1266 1267
f 1271 1272 1263
f 1271 1263 1269
f 1273 1272 1271
f 1274 1270 1267
f 1275 1272 1273
f 1276 1272 1275
f 1277 1274 1267
f 1278 1279 1272
f 1278 1272 1276
f 1280 1279 1278
f 1281 1282 1279
f 1281 1279 1280
f 1283 1282 1281
f 1284 1285 1282
f 1284 1282 1283
f 1286 1277 1267
f 1286 1287 1288
f 1286 1288 1289
f 1286 1289 1290
f 1286 1290 1291
f 1286 1291 1292
f 1286 1292 1277
f 1293 1287 1286
f 1293 1294 1295
f 1293 1295 1296
f 1293 1296 1297
f 1293 1297 1298
f 1293 1298 1299
f 1293 1299 1287
f 1300 1294 1293
f 1300 1301 1302
f 1300 1302 1294
f 1303 1301 1300
f 1303 1304 1305
f 1303 1305 1306
f 1303 1306 1307
f 1303 1307 1308
f 1303 1308 1309
f 1303 1309 1301
f 1310 1304 1303
f 1310 1311 1304
f 1312 1311 1310
f 1312 1313 1311
f 1314 1285 1284
f 1314 1313 1312
f 1314 1284 1313
f 1315 1314 1312
f 1316 1315 1312
f 1317 1316 1312
f 1318 1317 1312
f 1319 1320 1321
f 1322 1323 1324
f 1322 1324 1320
f 1322 1320 1319
f 1325 1326 1327
f 1325 1327 1328
f 1325 1328 1329
f 1330 1331 1326
f 1330 1326 1325
f 1332 1325 1329
f 1333 1334 1335
f 1333 1335 1331
f 1333 1331 1330
f 1336 1325 1332
f 1336 1330 1325
f 1337 1329 1338
f 1337 1332 1329
f 1339 1340 1341
f 1339 1341 1334
f 1339 1334 1333
f 1342 1333 1330
f 1342 1339 1333
f 1342 1330 1336
f 1343 1336 1332
f 1343 1332 1337
f 1344 1337 1338
f 1345 1340 1339
f 1345 1346 1347
f 1345 1347 1340
f 1348 1339 1342
f 1349 1336 1343
f 1349 1342 1336
f 1350 1337 1344
f 1350 1349 1343
f 1350 1343 1337
f 1351 1344 1338
f 1352 1353 1354
f 1352 1354 1346
f 1352 1346 1345
f 1355 1345 1339
f 1355 1339 1348
f 1356 1342 1349
f 1356 1348 1342
f 1357 1349 1350
f 1358 1350 1344
f 1358 1344 1351
f 1358 1357 1350
f 1359 1351 1338
f 1360 1361 1362
f 1360 1362 1353
f 1360 1353 1352
f 1363 1345 1355
f 1363 1352 1345
f 1363 1360 1352
f 1364 1348 1356
f 1364 1355 1348
f 1365 1356 1349
f 1365 1349 1357
f 1366 1357 1358
f 1367 1358 1351
f 1367 1351 1359
f 1367 1366 1358
f 1368 1369 1361
f 1368 1361 1360
f 1370 1338 1371
f 1370 1359 1338
f 1370 1367 1359
f 1372 1360 1363
f 1373 1355 1364
f 1373 1363 1355
f 1374 1364 1356
f 1374 1373 1364
f 1374 1356 1365
f 1375 1365 1357
f 1375 1357 1366
f 1376 1366 1367
f 1377 1378 1379
f 1377 1379 1380
f 1377 1380 1369
f 1377 1369 1368
f 1381 1367 1370
f 1382 1360 1372
f 1382 1368 1360
f 1383 1363 1373
f 1383 1372 1363
f 1384 1373 1374
f 1385 1374 1365
f 1385 1365 1375
f 1386 1385 1375
f 1386 1375 1366
f 1386 1366 1376
f 1387 1376 1367
f 1387 1367 1381
f 1388 1378 1377
f 1388 1368 1382
f 1388 1377 1368
f 1389 1390 1391
f 1389 1391 1392
f 1389 1371 1390
f 1389 1381 1370
f 1389 1370 1371
f 1393 1382 1372
f 1393 1372 1383
f 1394 1383 1373
f 1394 1373 1384
f 1395 1394 1384
f 1395 1374 1385
f 1395 1384 1374
f 1396 1385 1386
f 1397 1376 1387
f 1397 1386 1376
f 1398 1397 1387
f 1398 1387 1381
f 1398 1381 1389
f 1398 1389 1392
f 1399 1388 1382
f 1399 1382 1393
f 1399 1378 1388
f 1400 1393 1383
f 1400 1383 1394
f 1400 1399 1393
f 1401 1394 1395
f 1402 1401 1395
f 1402 1395 1385
f 1402 1385 1396
f 1403 1386 1397
f 1403 1396 1386
f 1403 1402 1396
f 1404 1397 1398
f 1405 1392 1406
f 1405 1406 1407
f 1405 1398 1392
f 1408 1378 1399
f 1408 1399 1400
f 1409 1394 1401
f 1409 1400 1394
f 1410 1401 1402
f 1411 1402 1403
f 1412 1411 1403
f 1412 1403 1397
f 1412 1397 1404
f 1413 1405 1407
f 1413 1398 1405
f 1413 1412 1404
f 1413 1404 1398
f 1414 1415 1378
f 1414 1378 1408
f 1414 1408 1400
f 1414 1400 1409
f 1416 1409 1401
f 1416 1401 1410
f 1416 1414 1409
f 1417 1402 1411
f 1417 1410 1402
f 1418 1411 1412
f 1419 1418 1412
f 1419 1412 1413
f 1420 1407 1421
f 1420 1421 1422
f 1420 1413 1407
f 1423 1415 1414
f 1423 1414 1416
f 1424 1416 1410
f 1424 1410 1417
f 1424 1423 1416
f 1425 1411 1418
f 1425 1417 1411
f 1426 1418 1419
f 1427 1422 1428
f 1427 1428 1429
f 1427 1429 1430
f 1427 1420 1422
f 1427 1426 1419
f 1427 1419 1413
f 1427 1413 1420
f 1431 1415 1423
f 1431 1423 1424
f 1432 1424 1417
f 1432 1417 1425
f 1433 1425 1418
f 1433 1418 1426
f 1434 1426 1427
f 1434 1430 1435
f 1434 1435 1436
f 1434 1436 1437
f 1434 1427 1430
f 1438 1424 1432
f 1438 1431 1424
f 1438 1415 1431
f 1439 1438 1432
f 1439 1432 1425
f 1439 1425 1433
f 1440 1433 1426
f 1440 1434 1437
f 1440 1437 1441
f 1440 1441 1442
f 1440 1442 1443
f 1440 1426 1434
f 1444 1438 1439
f 1444 1415 1438
f 1444 1445 1446
f 1444 1446 1415
f 1447 1444 1439
f 1447 1433 1440
f 1447 1440 1443
f 1447 1445 1444
f 1447 1443 1448
f 1447 1448 1449
f 1447 1449 1450
f 1447 1450 1445
f 1447 1439 1433
f 1451 1452 1453
f 1451 1453 1454
f 1455 1456 1457
f 1455 1457 1458
f 1455 1458 1459
f 1455 1459 1460
f 1455 1460 1461
f 1455 1461 1451
f 1462 1463 1464
f 1465 1455 1466
f 1465 1466 1467
f 1465 1467 1468
f 1465 1468 1469
f 1465 1469 1470
f 1465 1470 1471
f 1465 1471 1472
f 1465 1472 1456
f 1465 1456 1455
f 1473 1474 1475
f 1476 1475 1464
f 1476 1454 1474
f 1476 1451 1454
f 1476 1474 1473
f 1476 1473 1475
f 1477 1463 1455
f 1477 1451 1476
f 1477 1476 1464
f 1477 1455 1451
f 1477 1464 1463
f 1478 1479 1480
f 1478 1480 1481
f 1482 1464 1479
f 1482 1481 1483
f 1482 1483 1484
f 1482 1484 1462
f 1482 1479 1478
f 1482 1478 1481
f 1482 1462 1464
f 1485 1486 1487
f 1488 1485 1487
f 1489 1488 1487
f 1490 1489 1487
f 1491 1490 1487
f 1492 1491 1487
f 1493 1494 1495
f 1496 1497 1498
f 1499 1495 1497
f 1499 1493 1495
f 1499 1497 1496
f 1500 1501 1493
f 1500 1493 1499
f 1502 1503 1501
f 1502 1501 1500
f 1504 1503 1502
f 1505 1506 1503
f 1505 1503 1504
f 1507 1508 1509
f 1510 1511 1512
f 1510 1512 1513
f 1510 1513 1514
f 1515 1516 1517
f 1518 1514 1519
f 1518 1510 1514
f 1520 1519 1521
f 1520 1521 1516
f 1520 1518 1519
f 1522 1515 1523
f 1522 1520 1516
f 1522 1516 1515
f 1524 1523 1525
f 1524 1522 1523
f 1526 1524 1525
f 1527 1526 1525
f 1528 1526 1527
f 1510 1529 1511
f 1530 1531 1532
f 1533 1534 1531
f 1533 1531 1530
f 1535 1532 1536
f 1535 1530 1532
f 1537 1538 1534
f 1537 1534 1533
f 1539 1536 1540
f 1539 1535 1536
f 1541 1542 1538
f 1541 1538 1537
f 1543 1540 1544
f 1543 1539 1540
f 1545 1546 1542
f 1545 1542 1541
f 1547 1544 1548
f 1547 1543 1544
f 1549 1550 1546
f 1549 1546 1545
f 1551 1547 1548
f 1552 1550 1549
f 1552 1553 1550
f 1554 1551 1548
f 1555 1556 1553
f 1555 1553 1552
f 1557 1554 1548
f 1558 1559 1556
f 1558 1556 1555
f 1560 1557 1548
f 1561 1562 1559
f 1561 1559 1558
f 1563 1562 1561
f 1564 1562 1563
f 1565 1564 1563
f 1566 1564 1565
f 1567 1566 1565
f 1568 1566 1567
f 1568 1567 1569
f 1570 1569 1571
f 1570 1568 1569
f 1572 1573 1574
f 1572 1575 1573
f 1572 1571 1575
f 1572 1570 1571
f 1576 1560 1548
f 1577 1560 1576
f 1578 1560 1577
f 1579 1580 1560
f 1579 1581 1580
f 1579 1582 1581
f 1579 1583 1582
f 1579 1560 1578
f 1584 1583 1579
f 1584 1585 1583
f 1584 1586 1585
f 1584 1587 1586
f 1584 1588 1587
f 1584 1589 1588
f 1584 1590 1589
f 1584 1574 1590
f 1584 1572 1574
f 1591 1592 1593
f 1591 1593 1594
f 1591 1594 1595
f 1596 1597 1592
f 1596 1592 1591
f 1598 1596 1591
f 1599 1600 1601
f 1602 1600 1599
f 1603 1604 1605
f 1603 1606 1604
f 1607 1608 1606
f 1607 1606 1603
f 1609 1610 1608
f 1609 1608 1607
f 1611 1612 1610
f 1611 1610 1609
f 1613 1614 1612
f 1613 1612 1611
f 1615 1614 1613
f 1615 1616 1614
f 1617 1616 1615
f 1617 1618 1616
f 1619 1618 1617
f 1619 1620 1618
f 1621 1620 1619
f 1621 1622 1620
f 1623 1622 1621
f 1623 1624 1622
f 1625 1624 1623
f 1625 1626 1624
f 1627 1626 1625
f 1627 1628 1626
f 1629 1628 1627
f 1629 1630 1628
f 1631 1630 1629
f 1631 1632 1630
f 1633 1632 1631
f 1633 1634 1632
f 1635 1634 1633
f 1635 1636 1634
f 1637 1636 1635
f 1637 1638 1636
f 1639 1638 1637
f 1639 1640 1638
f 1641 1640 1639
f 1641 1642 1640
f 1643 1642 1641
f 1643 1644 1642
f 1645 1646 1644
f 1645 1644 1643
f 1647 1648 1646
f 1647 1646 1645
f 1649 1650 1648
f 1649 1648 1647
f 1651 1652 1650
f 1651 1650 1649
f 1653 1654 1652
f 1653 1652 1651
f 1655 1656 1654
f 1655 1654 1653
f 1657 1658 1656
f 1657 1656 1655
f 1659 1660 1658
f 1659 1658 1657
f 1661 1662 1660
f 1661 1660 1659
f 1663 1664 1662
f 1663 1662 1661
f 1665 1666 1664
f 1665 1664 1663
f 1667 1666 1665
f 1667 1668 1666
f 1669 1668 1667
f 1669 1670 1668
f 1671 1670 1669
f 1671 1672 1670
f 1673 1672 1671
f 1673 1674 1672
f 1675 1674 1673
f 1675 1676 1674
f 1677 1678 1679
f 1680 1681 1682
f 1680 1683 1681
f 1680 1684 1677
f 1680 1682 1684
f 1685 1677 1679
f 1685 1680 1677
f 1686 1687 1685
f 1686 1688 1689
f 1686 1679 1688
f 1686 1685 1679
f 1690 1689 1691
f 1690 1686 1689
f 1692 1691 1693
f 1692 1690 1691
f 1694 1692 1693
f 1695 1696 1697
f 1695 1693 1696
f 1695 1694 1693
f 1698 1699 1700
f 1698 1701 1699
f 1698 1702 1701
f 1703 1697 1704
f 1703 1695 1697
f 1705 1706 1702
f 1705 1707 1706
f 1705 1702 1698
f 1708 1709 1703
f 1708 1703 1704
f 1710 1707 1705
f 1710 1708 1704
f 1710 1705 1711
f 1710 1712 1707
f 1710 1704 1712
f 1713 1714 1715
f 1716 1714 1717
f 1716 1715 1714
f 1718 1719 1714
f 1718 1714 1713
f 1720 1716 1717
f 1721 1718 1722
f 1721 1719 1718
f 1723 1719 1721
f 1724 1719 1723
f 1725 1726 1719
f 1725 1719 1724
f 1727 1726 1725
f 1728 1726 1727
f 1729 1730 1726
f 1729 1726 1728
f 1731 1730 1729
f 1732 1733 1734
f 1732 1734 1730
f 1732 1730 1731
f 1735 1736 1737
f 1735 1737 1738
f 1735 1739 1740
f 1735 1738 1739
f 1741 1742 1743
f 1741 1743 1744
f 1741 1744 1745
f 1741 1745 1746
f 1741 1746 1736
f 1741 1736 1735
f 1747 1748 1749
f 1750 1748 1747
f 1751 1748 1750
f 1752 1753 1748
f 1752 1748 1751
f 1754 1753 1752
f 1755 1753 1754
f 1756 1757 1753
f 1756 1753 1755
f 1758 1757 1756
f 1759 1742 1741
f 1760 1742 1759
f 1760 1761 1742
f 1762 1763 1764
f 1765 1764 1763
f 1766 1762 1764
f 1767 1764 1765
f 1768 1764 1767
f 1769 1761 1760
f 1770 1771 1772
f 1770 1772 1773
f 1770 1773 1774
f 1770 1774 1775
f 1770 1775 1776
f 1777 1771 1770
f 1777 1778 1779
f 1777 1779 1780
f 1777 1780 1771
f 1781 1778 1777
f 1781 1782 1778
f 1783 1784 1785
f 1786 1783 1785
f 1787 1786 1785
f 1788 1789 1720
f 1788 1717 1790
f 1788 1790 1791
f 1788 1791 1792
f 1788 1792 1793
f 1788 1720 1717
f 1794 1740 1739
f 1794 1739 1795
f 1794 1795 1796
f 1794 1796 1789
f 1794 1788 1793
f 1794 1789 1788
f 1794 1793 1797
f 1794 1797 1740
f 1798 1732 1799
f 1798 1799 1800
f 1798 1800 1749
f 1798 1748 1801
f 1798 1801 1802
f 1798 1802 1733
f 1798 1749 1748
f 1798 1733 1732
f 1803 1766 1764
f 1803 1804 1805
f 1803 1805 1806
f 1803 1806 1807
f 1803 1807 1808
f 1803 1808 1809
f 1803 1809 1766
f 1803 1764 1810
f 1811 1761 1769
f 1811 1770 1776
f 1811 1769 1812
f 1811 1812 1813
f 1811 1813 1770
f 1811 1776 1814
f 1811 1814 1815
f 1811 1815 1761
f 1816 1817 1818
f 1816 1818 1819
f 1816 1819 1820
f 1816 1820 1821
f 1816 1821 1822
f 1816 1822 1823
f 1816 1823 1824
f 1816 1824 1825
f 1816 1825 1804
f 1816 1810 1757
f 1816 1758 1826
f 1816 1826 1827
f 1816 1757 1758
f 1816 1804 1803
f 1816 1803 1810
f 1828 1782 1781
f 1828 1827 1829
f 1828 1829 1830
f 1828 1830 1782
f 1828 1781 1831
f 1828 1832 1833
f 1828 1816 1827
f 1828 1833 1834
f 1828 1834 1835
f 1828 1835 1836
f 1828 1836 1837
f 1828 1837 1838
f 1828 1838 1839
f 1828 1839 1840
f 1828 1840 1841
f 1828 1841 1842
f 1828 1842 1843
f 1828 1843 1844
f 1828 1844 1845
f 1846 1847 1848
f 1846 1848 1849
f 1850 1832 1828
f 1850 1831 1851
f 1850 1851 1785
f 1850 1784 1852
f 1850 1852 1853
f 1850 1853 1854
f 1850 1854 1855
f 1850 1855 1832
f 1850 1828 1831
f 1850 1785 1784
f 1856 1847 1846
f 1856 1857 1858
f 1856 1858 1847
f 1856 1849 1859
f 1856 1859 1860
f 1856 1860 1817
f 1856 1817 1816
f 1856 1846 1849
f 1861 1845 1862
f 1861 1857 1856
f 1861 1862 1863
f 1861 1863 1864
f 1861 1864 1865
f 1861 1865 1866
f 1861 1866 1857
f 1861 1856 1816
f 1861 1816 1828
f 1861 1828 1845

