# https://github.com/mikedh/trimesh
v 0.00055206 0.04362136 0.02244108
v -0.00064238 0.04281699 0.02405959
v 0.00054898 0.04239958 0.02486646
v -0.00064227 0.04240131 0.02486187
v -0.00055465 0.04188054 0.02583754
v -0.00123972 0.04187303 0.02583450
v -0.00192308 0.04186004 0.02582931
v -0.00269204 0.04236203 0.02484250
v -0.00260615 0.04184103 0.02582228
v -0.00309503 0.04186695 0.02573466
v -0.00289744 0.04238408 0.02478468
v -0.00331587 0.04190671 0.02563899
v -0.00304711 0.04245042 0.02464550
v -0.00372344 0.04204440 0.02534270
v -0.00310475 0.04254400 0.02446091
v -0.00400734 0.04223555 0.02495330
v -0.00413120 0.04249614 0.02444565
v -0.00413084 0.04284554 0.02376842
v -0.00310588 0.04293942 0.02368819
v -0.00310707 0.04310959 0.02334880
v 0.00034470 0.04394966 0.02175444
v -0.00064229 0.04362076 0.02244091
v -0.00064239 0.04322355 0.02325254
v -0.00067741 0.04369497 0.02228546
v -0.00021550 0.04418486 0.02125072
v -0.00078213 0.04375785 0.02215129
v -0.00097832 0.04426479 0.02106291
v -0.00092309 0.04379361 0.02207303
v -0.00106782 0.04380315 0.02204924
v -0.00152010 0.04425704 0.02105909
v -0.00161022 0.04379451 0.02204573
v -0.00206184 0.04424530 0.02105498
v -0.00215250 0.04378235 0.02204084
v -0.00260347 0.04422968 0.02105021
v -0.00269467 0.04376673 0.02203440
v -0.00318682 0.04416000 0.02115005
v -0.00295883 0.04371756 0.02211546
v -0.00305670 0.04366546 0.02221572
v -0.00368243 0.04400181 0.02143996
v -0.00310296 0.04361736 0.02231186
v -0.00401640 0.04377752 0.02187907
v -0.00311780 0.04356634 0.02241653
v -0.00413340 0.04352080 0.02240246
v -0.00310975 0.04337584 0.02280944
v -0.00413078 0.04318660 0.02308714
v 0.00054727 0.04188042 0.02583736
v -0.00055385 0.04161751 0.02631682
v 0.00054729 0.04161751 0.02631682
v 0.00018020 0.04108327 0.02727061
v 0.00054728 0.04135131 0.02679425
v 0.00054728 0.04108190 0.02727019
v -0.00055384 0.04135125 0.02679425
v -0.00018676 0.04108327 0.02727061
v -0.00055384 0.04108184 0.02727001
v 0.00123239 0.04187309 0.02583450
v 0.00123161 0.04239094 0.02486616
v 0.00191599 0.04186022 0.02582943
v 0.00191426 0.04237818 0.02486097
v 0.00259936 0.04184067 0.02582150
v 0.00259668 0.04235976 0.02485090
v 0.00280684 0.04238301 0.02479368
v 0.00308967 0.04186654 0.02573376
v 0.00295532 0.04244548 0.02466261
v 0.00354302 0.04197382 0.02549254
v 0.00302303 0.04254019 0.02447509
v 0.00389475 0.04214721 0.02513194
v 0.00412375 0.04249686 0.02444595
v 0.00412434 0.04307389 0.02331477
v 0.00302321 0.04312247 0.02333039
v 0.00302321 0.04367917 0.02219009
v 0.00412434 0.04363107 0.02217388
v 0.00302362 0.04421752 0.02104079
v 0.00412393 0.04416984 0.02102386
f 1 2 3
f 3 2 4
f 3 4 5
f 5 4 6
f 6 4 7
f 7 4 8
f 7 8 9
f 9 8 10
f 10 8 11
f 10 11 12
f 12 11 13
f 12 13 14
f 14 13 15
f 14 15 16
f 16 15 17
f 17 15 18
f 18 15 19
f 18 19 20
f 21 22 1
f 1 22 23
f 1 23 2
f 22 21 24
f 24 21 25
f 24 25 26
f 26 25 27
f 26 27 28
f 28 27 29
f 29 27 30
f 29 30 31
f 31 30 32
f 31 32 33
f 33 32 34
f 33 34 35
f 35 34 36
f 35 36 37
f 37 36 38
f 38 36 39
f 38 39 40
f 40 39 41
f 40 41 42
f 42 41 43
f 42 43 44
f 44 43 45
f 44 45 20
f 20 45 18
f 3 5 46
f 46 5 47
f 46 47 48
f 48 47 49
f 48 49 50
f 50 49 51
f 47 52 49
f 49 52 53
f 53 52 54
f 46 55 3
f 3 55 56
f 56 55 57
f 56 57 58
f 58 57 59
f 58 59 60
f 60 59 61
f 61 59 62
f 61 62 63
f 63 62 64
f 63 64 65
f 65 64 66
f 65 66 67
f 67 68 65
f 65 68 69
f 69 68 70
f 70 68 71
f 70 71 72
f 72 71 73

