# https://github.com/mikedh/trimesh
v -0.00049873 -0.06520003 -0.03904676
v 0.00049872 -0.06520003 -0.03904676
v -0.00454444 -0.06520003 -0.03878462
v -0.00454444 -0.06520003 -0.03878462
v 0.00049872 -0.06520003 -0.03904676
v 0.00454444 -0.06520003 -0.03878462
v -0.00454444 -0.06520003 -0.03878462
v 0.00454444 -0.06520003 -0.03878462
v -0.00854123 -0.06520003 -0.03810435
v -0.00854123 -0.06520003 -0.03810435
v 0.00854123 -0.06520003 -0.03810435
v -0.00854123 -0.06520003 -0.03810435
v 0.00854123 -0.06520003 -0.03810435
v -0.01244592 -0.06520003 -0.03701353
v -0.01244592 -0.06520003 -0.03701353
v 0.00854123 -0.06520003 -0.03810435
v 0.01244592 -0.06520003 -0.03701353
v 0.01244592 -0.06520003 -0.03701353
v -0.01621645 -0.06520003 -0.03552365
v -0.01621645 -0.06520003 -0.03552365
v 0.01621645 -0.06520003 -0.03552365
v 0.01621645 -0.06520003 -0.03552365
v -0.01981222 -0.06520003 -0.03365081
v -0.01981222 -0.06520003 -0.03365081
v 0.01981222 -0.06520003 -0.03365081
v -0.02319443 -0.06520003 -0.03141522
v 0.02319443 -0.06520003 -0.03141522
v -0.02632659 -0.06520003 -0.02884107
v 0.02632659 -0.06520003 -0.02884107
v -0.02917498 -0.06520003 -0.02595609
v 0.02917498 -0.06520003 -0.02595609
v -0.03170895 -0.06520003 -0.02279126
v 0.03170895 -0.06520003 -0.02279126
v -0.03390109 -0.06520003 -0.01938080
v 0.03390109 -0.06520003 -0.01938080
v -0.03572779 -0.06520003 -0.01576137
v 0.03572779 -0.06520003 -0.01576137
v -0.03716945 -0.06520003 -0.01197218
v 0.03716945 -0.06520003 -0.01197218
v -0.03821039 -0.06520003 -0.00805384
v 0.03821039 -0.06520003 -0.00805384
v -0.03883951 -0.06520003 -0.00404876
v 0.03883951 -0.06520003 -0.00404876
v -0.03904998 -0.06520003 0.00000000
v 0.03904998 -0.06520003 0.00000000
v -0.03883951 -0.06520003 0.00404876
v 0.03883951 -0.06520003 0.00404876
v -0.03821039 -0.06520003 0.00805384
v 0.03821039 -0.06520003 0.00805384
v -0.03716945 -0.06520003 0.01197218
v 0.03716945 -0.06520003 0.01197218
v -0.03572779 -0.06520003 0.01576137
v 0.03572779 -0.06520003 0.01576137
v -0.03390109 -0.06520003 0.01938080
v 0.03390109 -0.06520003 0.01938080
v -0.03170895 -0.06520003 0.02279126
v 0.03170895 -0.06520003 0.02279126
v 0.03170895 -0.06520003 0.02279126
v -0.02917498 -0.06520003 0.02595609
v 0.02917498 -0.06520003 0.02595609
v -0.02632659 -0.06520003 0.02884107
v 0.02632659 -0.06520003 0.02884107
v -0.02319443 -0.06520003 0.03141522
v 0.02319443 -0.06520003 0.03141522
v -0.01981222 -0.06520003 0.03365081
v 0.01981222 -0.06520003 0.03365081
v -0.01621645 -0.06520003 0.03552365
v -0.01621645 -0.06520003 0.03552365
v 0.01621645 -0.06520003 0.03552365
v -0.01244592 -0.06520003 0.03701353
v 0.01244592 -0.06520003 0.03701353
v 0.01244592 -0.06520003 0.03701353
v -0.00854123 -0.06520003 0.03810435
v -0.00854123 -0.06520003 0.03810435
v 0.01244592 -0.06520003 0.03701353
v 0.00854123 -0.06520003 0.03810435
v -0.00854123 -0.06520003 0.03810435
v 0.00854123 -0.06520003 0.03810435
v -0.00454444 -0.06520003 0.03878462
v -0.00454444 -0.06520003 0.03878462
v 0.00454444 -0.06520003 0.03878462
v 0.00454444 -0.06520003 0.03878462
v -0.00049873 -0.06520003 0.03904676
v -0.00049873 -0.06520003 0.03904676
v 0.00454444 -0.06520003 0.03878462
v 0.00049872 -0.06520003 0.03904676
v 0.00049999 -0.06499999 0.03924679
v 0.00049999 -0.05500000 0.03924679
v 0.00049999 -0.06510001 0.03921997
v 0.00049999 -0.05489999 0.03921997
v 0.00049999 -0.05482679 0.03914684
v 0.00049999 -0.06517320 0.03914684
v 0.00049999 -0.05480003 0.03904676
v 0.00049999 -0.06520003 0.03904676
v 0.00049999 -0.06499999 -0.03924679
v 0.00049999 -0.05500000 -0.03924679
v 0.00456655 -0.06499999 -0.03898346
v 0.00456655 -0.05500000 -0.03898346
v 0.00858384 -0.06499999 -0.03829985
v 0.00858384 -0.05500000 -0.03829985
v 0.01250869 -0.06499999 -0.03720337
v 0.01250869 -0.05500000 -0.03720337
v 0.01629865 -0.06499999 -0.03570598
v 0.01629865 -0.05500000 -0.03570598
v 0.01991295 -0.06499999 -0.03382354
v 0.01991295 -0.05500000 -0.03382354
v 0.02331256 -0.06499999 -0.03157669
v 0.02331256 -0.05500000 -0.03157669
v 0.02646094 -0.06499999 -0.02898925
v 0.02646094 -0.05500000 -0.02898925
v 0.02932405 -0.06499999 -0.02608942
v 0.02932399 -0.05500000 -0.02608942
v 0.03187102 -0.06499999 -0.02290844
v 0.03187102 -0.05500000 -0.02290844
v 0.03407448 -0.06499999 -0.01948040
v 0.03407448 -0.05500000 -0.01948040
v 0.03591066 -0.06499999 -0.01584243
v 0.03591066 -0.05500000 -0.01584243
v 0.03735971 -0.06499999 -0.01203382
v 0.03735971 -0.05500000 -0.01203382
v 0.03840607 -0.06499999 -0.00809520
v 0.03840607 -0.05500000 -0.00809520
v 0.03903841 -0.06499999 -0.00406951
v 0.03903841 -0.05500000 -0.00406951
v 0.03924995 -0.06499999 0.00000000
v 0.03924995 -0.05500000 0.00000000
v 0.03903841 -0.06499999 0.00406951
v 0.03903841 -0.05500000 0.00406951
v 0.03840607 -0.06499999 0.00809520
v 0.03840607 -0.05500000 0.00809520
v 0.03735971 -0.06499999 0.01203382
v 0.03735971 -0.05500000 0.01203382
v 0.03591066 -0.06499999 0.01584243
v 0.03591066 -0.05500000 0.01584243
v 0.03407448 -0.06499999 0.01948040
v 0.03407448 -0.05500000 0.01948040
v 0.03187102 -0.06499999 0.02290844
v 0.03187102 -0.05500000 0.02290844
v 0.02932405 -0.06499999 0.02608942
v 0.02932399 -0.05500000 0.02608942
v 0.02646094 -0.06499999 0.02898925
v 0.02646094 -0.05500000 0.02898925
v 0.02331256 -0.06499999 0.03157669
v 0.02331256 -0.05500000 0.03157669
v 0.01991295 -0.06499999 0.03382354
v 0.01991295 -0.05500000 0.03382354
v 0.01629865 -0.06499999 0.03570598
v 0.01629865 -0.05500000 0.03570598
v 0.01250869 -0.06499999 0.03720337
v 0.01250869 -0.05500000 0.03720337
v 0.00858384 -0.06499999 0.03829985
v 0.00858384 -0.05500000 0.03829985
v 0.00456655 -0.06499999 0.03898346
v 0.00456655 -0.05500000 0.03898346
v 0.00049999 -0.06499999 0.03924679
v 0.00049999 -0.05500000 0.03924679
v 0.00049999 -0.05480003 -0.03904676
v 0.00049999 -0.05482679 -0.03914684
v 0.00049999 -0.06520003 -0.03904676
v 0.00049999 -0.06517320 -0.03914684
v 0.00049999 -0.05489999 -0.03921997
v 0.00049999 -0.06510001 -0.03921997
v 0.00049999 -0.06499999 -0.03924679
v 0.00049999 -0.05500000 -0.03924679
v 0.00049999 -0.05480003 -0.03904676
v 0.00049999 -0.06520003 -0.03904676
v 0.00049872 -0.05480003 -0.03904676
v 0.00049872 -0.06520003 -0.03904676
v -0.00049873 -0.05480003 -0.03904676
v -0.00049873 -0.06520003 -0.03904676
v -0.00050001 -0.05480003 -0.03904676
v -0.00050001 -0.06520003 -0.03904676
v -0.00050001 -0.06499999 -0.03924679
v -0.00050001 -0.05500000 -0.03924679
v -0.00050001 -0.06510001 -0.03921997
v -0.00050001 -0.05489999 -0.03921997
v -0.00050001 -0.05482679 -0.03914684
v -0.00050001 -0.06517320 -0.03914684
v -0.00050001 -0.05480003 -0.03904676
v -0.00050001 -0.06520003 -0.03904676
v -0.00050001 -0.06499999 0.03924679
v -0.00050001 -0.05500000 0.03924679
v -0.00456655 -0.06499999 0.03898346
v -0.00456655 -0.05500000 0.03898346
v -0.00858390 -0.06499999 0.03829985
v -0.00858390 -0.05500000 0.03829985
v -0.01250869 -0.06499999 0.03720337
v -0.01250869 -0.05500000 0.03720337
v -0.01629865 -0.06499999 0.03570598
v -0.01629865 -0.05500000 0.03570598
v -0.01991295 -0.06499999 0.03382354
v -0.01991295 -0.05500000 0.03382354
v -0.02331256 -0.06499999 0.03157669
v -0.02331256 -0.05500000 0.03157669
v -0.02646094 -0.06499999 0.02898925
v -0.02646094 -0.05500000 0.02898925
v -0.02932405 -0.06499999 0.02608942
v -0.02932405 -0.05500000 0.02608942
v -0.03187102 -0.06499999 0.02290844
v -0.03187108 -0.05500000 0.02290844
v -0.03407448 -0.06499999 0.01948040
v -0.03407448 -0.05500000 0.01948040
v -0.03591066 -0.06499999 0.01584243
v -0.03591066 -0.05500000 0.01584243
v -0.03735971 -0.06499999 0.01203382
v -0.03735971 -0.05500000 0.01203382
v -0.03840607 -0.06499999 0.00809520
v -0.03840607 -0.05500000 0.00809520
v -0.03903841 -0.06499999 0.00406951
v -0.03903841 -0.05500000 0.00406951
v -0.03925001 -0.06499999 0.00000000
v -0.03925001 -0.05500000 0.00000000
v -0.03903841 -0.06499999 -0.00406951
v -0.03903841 -0.05500000 -0.00406951
v -0.03840607 -0.06499999 -0.00809520
v -0.03840607 -0.05500000 -0.00809520
v -0.03735971 -0.06499999 -0.01203382
v -0.03735971 -0.05500000 -0.01203382
v -0.03591066 -0.06499999 -0.01584243
v -0.03591066 -0.05500000 -0.01584243
v -0.03407448 -0.06499999 -0.01948040
v -0.03407448 -0.05500000 -0.01948040
v -0.03187102 -0.06499999 -0.02290844
v -0.03187108 -0.05500000 -0.02290844
v -0.02932405 -0.06499999 -0.02608942
v -0.02932405 -0.05500000 -0.02608942
v -0.02646094 -0.06499999 -0.02898925
v -0.02646094 -0.05500000 -0.02898925
v -0.02331256 -0.06499999 -0.03157669
v -0.02331256 -0.05500000 -0.03157669
v -0.01991295 -0.06499999 -0.03382354
v -0.01991295 -0.05500000 -0.03382354
v -0.01629865 -0.06499999 -0.03570598
v -0.01629865 -0.05500000 -0.03570598
v -0.01250869 -0.06499999 -0.03720337
v -0.01250869 -0.05500000 -0.03720337
v -0.00858390 -0.06499999 -0.03829985
v -0.00858390 -0.05500000 -0.03829985
v -0.00456655 -0.06499999 -0.03898346
v -0.00456655 -0.05500000 -0.03898346
v -0.00050001 -0.06499999 -0.03924679
v -0.00050001 -0.05500000 -0.03924679
v -0.00050001 -0.05480003 0.03904676
v -0.00050001 -0.05482679 0.03914684
v -0.00050001 -0.06520003 0.03904676
v -0.00050001 -0.06517320 0.03914684
v -0.00050001 -0.05489999 0.03921997
v -0.00050001 -0.06510001 0.03921997
v -0.00050001 -0.06499999 0.03924679
v -0.00050001 -0.05500000 0.03924679
v -0.00050001 -0.05480003 0.03904676
v -0.00049873 -0.06520003 0.03904676
v -0.00049873 -0.05480003 0.03904676
v 0.00049872 -0.06520003 0.03904676
v 0.00049872 -0.05480003 0.03904676
v 0.00049999 -0.06520003 0.03904676
v 0.00049999 -0.05480003 0.03904676
v -0.00050001 -0.06520003 0.03904676
v 0.00049872 -0.05480003 -0.03904676
v -0.00049873 -0.05480003 -0.03904676
v 0.00454444 -0.05480003 -0.03878462
v 0.00454444 -0.05480003 -0.03878462
v -0.00049873 -0.05480003 -0.03904676
v -0.00454444 -0.05480003 -0.03878462
v 0.00454444 -0.05480003 -0.03878462
v -0.00454444 -0.05480003 -0.03878462
v 0.00854123 -0.05480003 -0.03810435
v 0.00854123 -0.05480003 -0.03810435
v -0.00454444 -0.05480003 -0.03878462
v -0.00854123 -0.05480003 -0.03810435
v 0.00854123 -0.05480003 -0.03810435
v -0.00854123 -0.05480003 -0.03810435
v 0.01244592 -0.05480003 -0.03701353
v -0.01244592 -0.05480003 -0.03701353
v 0.01621645 -0.05480003 -0.03552365
v -0.01621645 -0.05480003 -0.03552365
v 0.01981222 -0.05480003 -0.03365081
v -0.01981222 -0.05480003 -0.03365081
v 0.02319437 -0.05480003 -0.03141522
v -0.02319443 -0.05480003 -0.03141522
v 0.02632659 -0.05480003 -0.02884107
v -0.02632659 -0.05480003 -0.02884107
v 0.02917498 -0.05480003 -0.02595609
v -0.02917498 -0.05480003 -0.02595609
v 0.03170895 -0.05480003 -0.02279126
v -0.03170895 -0.05480003 -0.02279126
v 0.03390109 -0.05480003 -0.01938080
v -0.03390109 -0.05480003 -0.01938080
v 0.03572779 -0.05480003 -0.01576137
v -0.03572779 -0.05480003 -0.01576137
v 0.03716945 -0.05480003 -0.01197218
v -0.03716945 -0.05480003 -0.01197218
v 0.03821039 -0.05480003 -0.00805384
v -0.03821045 -0.05480003 -0.00805384
v 0.03883951 -0.05480003 -0.00404876
v -0.03883951 -0.05480003 -0.00404876
v 0.03904998 -0.05480003 0.00000000
v -0.03904998 -0.05480003 0.00000000
v 0.03883951 -0.05480003 0.00404876
v -0.03883951 -0.05480003 0.00404876
v 0.03821039 -0.05480003 0.00805384
v -0.03821045 -0.05480003 0.00805384
v 0.03716945 -0.05480003 0.01197218
v -0.03716945 -0.05480003 0.01197218
v 0.03572779 -0.05480003 0.01576137
v -0.03572779 -0.05480003 0.01576137
v 0.03390109 -0.05480003 0.01938080
v -0.03390109 -0.05480003 0.01938080
v 0.03170895 -0.05480003 0.02279126
v -0.03170895 -0.05480003 0.02279126
v 0.02917498 -0.05480003 0.02595609
v -0.02917498 -0.05480003 0.02595609
v 0.02632659 -0.05480003 0.02884107
v -0.02632659 -0.05480003 0.02884107
v 0.02319437 -0.05480003 0.03141522
v -0.02319443 -0.05480003 0.03141522
v 0.01981222 -0.05480003 0.03365081
v -0.01981222 -0.05480003 0.03365081
v 0.01621645 -0.05480003 0.03552365
v -0.01621645 -0.05480003 0.03552365
v 0.01244592 -0.05480003 0.03701353
v -0.01244592 -0.05480003 0.03701353
v 0.00854123 -0.05480003 0.03810435
v -0.00854123 -0.05480003 0.03810435
v 0.00854123 -0.05480003 0.03810435
v -0.00854123 -0.05480003 0.03810435
v 0.00454444 -0.05480003 0.03878462
v 0.00454444 -0.05480003 0.03878462
v -0.00454444 -0.05480003 0.03878462
v 0.00454444 -0.05480003 0.03878462
v -0.00454444 -0.05480003 0.03878462
v 0.00049872 -0.05480003 0.03904676
v 0.00049872 -0.05480003 0.03904676
v -0.00454444 -0.05480003 0.03878462
v -0.00049873 -0.05480003 0.03904676
v 0.00049872 -0.06520003 0.03904676
v 0.00454444 -0.06520003 0.03878462
v 0.00049999 -0.06520003 0.03904676
v 0.00049999 -0.06520003 0.03904676
v 0.00454444 -0.06520003 0.03878462
v 0.00455570 -0.06517320 0.03888398
v 0.00049999 -0.06517320 0.03914684
v 0.00456381 -0.06510001 0.03895676
v 0.00049999 -0.06510001 0.03921997
v 0.00456655 -0.06499999 0.03898346
v 0.00049999 -0.06499999 0.03924679
v 0.00856274 -0.06517320 0.03820204
v 0.00854123 -0.06520003 0.03810435
v 0.01247745 -0.06517320 0.03710842
v 0.01244592 -0.06520003 0.03701353
v 0.01625770 -0.06517320 0.03561472
v 0.01621645 -0.06520003 0.03552365
v 0.01986271 -0.06517320 0.03373718
v 0.01981222 -0.06520003 0.03365081
v 0.02325361 -0.06517320 0.03149592
v 0.02319443 -0.06520003 0.03141522
v 0.02639383 -0.06517320 0.02891510
v 0.02632659 -0.06520003 0.02884107
v 0.02924960 -0.06517320 0.02602279
v 0.02917498 -0.06520003 0.02595609
v 0.03179001 -0.06517320 0.02284985
v 0.03170895 -0.06520003 0.02279126
v 0.03398782 -0.06517320 0.01943051
v 0.03390109 -0.06520003 0.01938080
v 0.03581923 -0.06517320 0.01580196
v 0.03572779 -0.06520003 0.01576137
v 0.03726458 -0.06517320 0.01200300
v 0.03716945 -0.06520003 0.01197218
v 0.03830826 -0.06517320 0.00807464
v 0.03821039 -0.06520003 0.00805384
v 0.03893899 -0.06517320 0.00405913
v 0.03883951 -0.06520003 0.00404876
v 0.03914999 -0.06517320 0.00000000
v 0.03904998 -0.06520003 0.00000000
v 0.03883951 -0.06520003 -0.00404876
v 0.03893899 -0.06517320 -0.00405913
v 0.03821039 -0.06520003 -0.00805384
v 0.03830826 -0.06517320 -0.00807464
v 0.03716945 -0.06520003 -0.01197218
v 0.03726458 -0.06517320 -0.01200300
v 0.03572779 -0.06520003 -0.01576137
v 0.03581923 -0.06517320 -0.01580196
v 0.03390109 -0.06520003 -0.01938080
v 0.03398782 -0.06517320 -0.01943051
v 0.03170895 -0.06520003 -0.02279126
v 0.03179001 -0.06517320 -0.02284985
v 0.02917498 -0.06520003 -0.02595609
v 0.02924960 -0.06517320 -0.02602279
v 0.02632659 -0.06520003 -0.02884107
v 0.02639383 -0.06517320 -0.02891510
v 0.02319443 -0.06520003 -0.03141522
v 0.02325361 -0.06517320 -0.03149592
v 0.01981222 -0.06520003 -0.03365081
v 0.01986271 -0.06517320 -0.03373718
v 0.01621645 -0.06520003 -0.03552365
v 0.01625770 -0.06517320 -0.03561472
v 0.01244592 -0.06520003 -0.03701353
v 0.01247745 -0.06517320 -0.03710842
v 0.00854123 -0.06520003 -0.03810435
v 0.00856274 -0.06517320 -0.03820204
v 0.00454444 -0.06520003 -0.03878462
v 0.00455570 -0.06517320 -0.03888398
v 0.00049999 -0.06520003 -0.03904676
v 0.00049999 -0.06517320 -0.03914684
v 0.00454444 -0.06520003 -0.03878462
v 0.00049872 -0.06520003 -0.03904676
v 0.00049999 -0.06520003 -0.03904676
v 0.00456381 -0.06510001 -0.03895676
v 0.00049999 -0.06510001 -0.03921997
v 0.00456655 -0.06499999 -0.03898346
v 0.00049999 -0.06499999 -0.03924679
v 0.00858384 -0.06499999 -0.03829985
v 0.00857836 -0.06510001 -0.03827357
v 0.01250869 -0.06499999 -0.03720337
v 0.01250046 -0.06510001 -0.03717786
v 0.01629865 -0.06499999 -0.03570598
v 0.01628780 -0.06510001 -0.03568142
v 0.01991295 -0.06499999 -0.03382354
v 0.01989960 -0.06510001 -0.03380036
v 0.02331256 -0.06499999 -0.03157669
v 0.02329689 -0.06510001 -0.03155487
v 0.02646094 -0.06499999 -0.02898925
v 0.02644300 -0.06510001 -0.02896940
v 0.02932405 -0.06499999 -0.02608942
v 0.02930414 -0.06510001 -0.02607160
v 0.03187102 -0.06499999 -0.02290844
v 0.03184938 -0.06510001 -0.02289271
v 0.03407448 -0.06499999 -0.01948040
v 0.03405129 -0.06510001 -0.01946699
v 0.03591066 -0.06499999 -0.01584243
v 0.03588616 -0.06510001 -0.01583158
v 0.03735971 -0.06499999 -0.01203382
v 0.03733426 -0.06510001 -0.01202541
v 0.03840607 -0.06499999 -0.00809520
v 0.03837984 -0.06510001 -0.00808972
v 0.03903841 -0.06499999 -0.00406951
v 0.03901177 -0.06510001 -0.00406676
v 0.03924995 -0.06499999 0.00000000
v 0.03922319 -0.06510001 0.00000000
v 0.03901177 -0.06510001 0.00406676
v 0.03903841 -0.06499999 0.00406951
v 0.03837984 -0.06510001 0.00808972
v 0.03840607 -0.06499999 0.00809520
v 0.03733426 -0.06510001 0.01202541
v 0.03735971 -0.06499999 0.01203382
v 0.03588616 -0.06510001 0.01583158
v 0.03591066 -0.06499999 0.01584243
v 0.03405129 -0.06510001 0.01946699
v 0.03407448 -0.06499999 0.01948040
v 0.03184938 -0.06510001 0.02289271
v 0.03187102 -0.06499999 0.02290844
v 0.02930414 -0.06510001 0.02607160
v 0.02932405 -0.06499999 0.02608942
v 0.02644300 -0.06510001 0.02896940
v 0.02646094 -0.06499999 0.02898925
v 0.02329689 -0.06510001 0.03155487
v 0.02331256 -0.06499999 0.03157669
v 0.01989960 -0.06510001 0.03380036
v 0.01991295 -0.06499999 0.03382354
v 0.01628780 -0.06510001 0.03568142
v 0.01629865 -0.06499999 0.03570598
v 0.01250046 -0.06510001 0.03717786
v 0.01250869 -0.06499999 0.03720337
v 0.00857836 -0.06510001 0.03827357
v 0.00858384 -0.06499999 0.03829985
v -0.00049873 -0.06520003 -0.03904676
v -0.00454444 -0.06520003 -0.03878462
v -0.00050001 -0.06520003 -0.03904676
v -0.00050001 -0.06520003 -0.03904676
v -0.00454444 -0.06520003 -0.03878462
v -0.00455570 -0.06517320 -0.03888398
v -0.00050001 -0.06517320 -0.03914684
v -0.00456381 -0.06510001 -0.03895676
v -0.00050001 -0.06510001 -0.03921997
v -0.00456655 -0.06499999 -0.03898346
v -0.00050001 -0.06499999 -0.03924679
v -0.00856274 -0.06517320 -0.03820204
v -0.00854123 -0.06520003 -0.03810435
v -0.01247745 -0.06517320 -0.03710842
v -0.01244592 -0.06520003 -0.03701353
v -0.01625770 -0.06517320 -0.03561472
v -0.01621645 -0.06520003 -0.03552365
v -0.01986271 -0.06517320 -0.03373718
v -0.01981222 -0.06520003 -0.03365081
v -0.02325361 -0.06517320 -0.03149592
v -0.02319443 -0.06520003 -0.03141522
v -0.02639383 -0.06517320 -0.02891510
v -0.02632659 -0.06520003 -0.02884107
v -0.02924960 -0.06517320 -0.02602279
v -0.02917498 -0.06520003 -0.02595609
v -0.03179007 -0.06517320 -0.02284985
v -0.03170895 -0.06520003 -0.02279126
v -0.03398782 -0.06517320 -0.01943051
v -0.03390109 -0.06520003 -0.01938080
v -0.03581929 -0.06517320 -0.01580196
v -0.03572779 -0.06520003 -0.01576137
v -0.03726458 -0.06517320 -0.01200300
v -0.03716945 -0.06520003 -0.01197218
v -0.03830826 -0.06517320 -0.00807464
v -0.03821039 -0.06520003 -0.00805384
v -0.03893899 -0.06517320 -0.00405913
v -0.03883951 -0.06520003 -0.00404876
v -0.03914999 -0.06517320 0.00000000
v -0.03904998 -0.06520003 0.00000000
v -0.03883951 -0.06520003 0.00404876
v -0.03893899 -0.06517320 0.00405913
v -0.03821039 -0.06520003 0.00805384
v -0.03830826 -0.06517320 0.00807464
v -0.03716945 -0.06520003 0.01197218
v -0.03726458 -0.06517320 0.01200300
v -0.03572779 -0.06520003 0.01576137
v -0.03581929 -0.06517320 0.01580196
v -0.03390109 -0.06520003 0.01938080
v -0.03398782 -0.06517320 0.01943051
v -0.03170895 -0.06520003 0.02279126
v -0.03179007 -0.06517320 0.02284985
v -0.02917498 -0.06520003 0.02595609
v -0.02924960 -0.06517320 0.02602279
v -0.02632659 -0.06520003 0.02884107
v -0.02639383 -0.06517320 0.02891510
v -0.02319443 -0.06520003 0.03141522
v -0.02325361 -0.06517320 0.03149592
v -0.01981222 -0.06520003 0.03365081
v -0.01986271 -0.06517320 0.03373718
v -0.01621645 -0.06520003 0.03552365
v -0.01625770 -0.06517320 0.03561472
v -0.01244592 -0.06520003 0.03701353
v -0.01247745 -0.06517320 0.03710842
v -0.00854123 -0.06520003 0.03810435
v -0.00856274 -0.06517320 0.03820204
v -0.00454444 -0.06520003 0.03878462
v -0.00455570 -0.06517320 0.03888398
v -0.00050001 -0.06520003 0.03904676
v -0.00050001 -0.06517320 0.03914684
v -0.00454444 -0.06520003 0.03878462
v -0.00049873 -0.06520003 0.03904676
v -0.00050001 -0.06520003 0.03904676
v -0.00456381 -0.06510001 0.03895676
v -0.00050001 -0.06510001 0.03921997
v -0.00456655 -0.06499999 0.03898346
v -0.00050001 -0.06499999 0.03924679
v -0.00858390 -0.06499999 0.03829985
v -0.00857836 -0.06510001 0.03827357
v -0.01250869 -0.06499999 0.03720337
v -0.01250046 -0.06510001 0.03717786
v -0.01629865 -0.06499999 0.03570598
v -0.01628780 -0.06510001 0.03568142
v -0.01991295 -0.06499999 0.03382354
v -0.01989960 -0.06510001 0.03380036
v -0.02331256 -0.06499999 0.03157669
v -0.02329689 -0.06510001 0.03155487
v -0.02646094 -0.06499999 0.02898925
v -0.02644300 -0.06510001 0.02896940
v -0.02932405 -0.06499999 0.02608942
v -0.02930414 -0.06510001 0.02607160
v -0.03187102 -0.06499999 0.02290844
v -0.03184938 -0.06510001 0.02289271
v -0.03407448 -0.06499999 0.01948040
v -0.03405129 -0.06510001 0.01946699
v -0.03591066 -0.06499999 0.01584243
v -0.03588622 -0.06510001 0.01583158
v -0.03735971 -0.06499999 0.01203382
v -0.03733426 -0.06510001 0.01202541
v -0.03840607 -0.06499999 0.00809520
v -0.03837984 -0.06510001 0.00808972
v -0.03903841 -0.06499999 0.00406951
v -0.03901177 -0.06510001 0.00406676
v -0.03925001 -0.06499999 0.00000000
v -0.03922319 -0.06510001 0.00000000
v -0.03901177 -0.06510001 -0.00406676
v -0.03903841 -0.06499999 -0.00406951
v -0.03837984 -0.06510001 -0.00808972
v -0.03840607 -0.06499999 -0.00809520
v -0.03733426 -0.06510001 -0.01202541
v -0.03735971 -0.06499999 -0.01203382
v -0.03588622 -0.06510001 -0.01583158
v -0.03591066 -0.06499999 -0.01584243
v -0.03405129 -0.06510001 -0.01946699
v -0.03407448 -0.06499999 -0.01948040
v -0.03184938 -0.06510001 -0.02289271
v -0.03187102 -0.06499999 -0.02290844
v -0.02930414 -0.06510001 -0.02607160
v -0.02932405 -0.06499999 -0.02608942
v -0.02644300 -0.06510001 -0.02896940
v -0.02646094 -0.06499999 -0.02898925
v -0.02329689 -0.06510001 -0.03155487
v -0.02331256 -0.06499999 -0.03157669
v -0.01989960 -0.06510001 -0.03380036
v -0.01991295 -0.06499999 -0.03382354
v -0.01628780 -0.06510001 -0.03568142
v -0.01629865 -0.06499999 -0.03570598
v -0.01250046 -0.06510001 -0.03717786
v -0.01250869 -0.06499999 -0.03720337
v -0.00857836 -0.06510001 -0.03827357
v -0.00858390 -0.06499999 -0.03829985
v -0.00050001 -0.05482679 -0.03914684
v -0.00455570 -0.05482679 -0.03888398
v -0.00050001 -0.05480003 -0.03904676
v -0.00454444 -0.05480003 -0.03878462
v -0.00050001 -0.05480003 -0.03904676
v -0.00454444 -0.05480003 -0.03878462
v -0.00049873 -0.05480003 -0.03904676
v -0.00456381 -0.05489999 -0.03895676
v -0.00050001 -0.05489999 -0.03921997
v -0.00456655 -0.05500000 -0.03898346
v -0.00050001 -0.05500000 -0.03924679
v -0.00858390 -0.05500000 -0.03829985
v -0.00857836 -0.05489999 -0.03827357
v -0.00856274 -0.05482679 -0.03820204
v -0.00854123 -0.05480003 -0.03810435
v -0.01247745 -0.05482679 -0.03710842
v -0.01244592 -0.05480003 -0.03701353
v -0.01625770 -0.05482679 -0.03561472
v -0.01621645 -0.05480003 -0.03552365
v -0.01986271 -0.05482679 -0.03373718
v -0.01981222 -0.05480003 -0.03365081
v -0.02325361 -0.05482679 -0.03149592
v -0.02319443 -0.05480003 -0.03141522
v -0.02639383 -0.05482679 -0.02891510
v -0.02632659 -0.05480003 -0.02884107
v -0.02924960 -0.05482679 -0.02602279
v -0.02917498 -0.05480003 -0.02595609
v -0.03179007 -0.05482679 -0.02284985
v -0.03170895 -0.05480003 -0.02279126
v -0.03398782 -0.05482679 -0.01943051
v -0.03390109 -0.05480003 -0.01938080
v -0.03581929 -0.05482679 -0.01580196
v -0.03572779 -0.05480003 -0.01576137
v -0.03726458 -0.05482679 -0.01200300
v -0.03830826 -0.05482679 -0.00807464
v -0.03821045 -0.05480003 -0.00805384
v -0.03893899 -0.05482679 -0.00405913
v -0.03883951 -0.05480003 -0.00404876
v -0.03914999 -0.05482679 0.00000000
v -0.03904998 -0.05480003 0.00000000
v -0.03883951 -0.05480003 0.00404876
v -0.03893899 -0.05482679 0.00405913
v -0.03821045 -0.05480003 0.00805384
v -0.03830826 -0.05482679 0.00807464
v -0.03726458 -0.05482679 0.01200300
v -0.03572779 -0.05480003 0.01576137
v -0.03581929 -0.05482679 0.01580196
v -0.03390109 -0.05480003 0.01938080
v -0.03398782 -0.05482679 0.01943051
v -0.03170895 -0.05480003 0.02279126
v -0.03179007 -0.05482679 0.02284985
v -0.02917498 -0.05480003 0.02595609
v -0.02924960 -0.05482679 0.02602279
v -0.02632659 -0.05480003 0.02884107
v -0.02639383 -0.05482679 0.02891510
v -0.02319443 -0.05480003 0.03141522
v -0.02325361 -0.05482679 0.03149592
v -0.01981222 -0.05480003 0.03365081
v -0.01986271 -0.05482679 0.03373718
v -0.01621645 -0.05480003 0.03552365
v -0.01625770 -0.05482679 0.03561472
v -0.01247745 -0.05482679 0.03710842
v -0.00854123 -0.05480003 0.03810435
v -0.00856274 -0.05482679 0.03820204
v -0.00454444 -0.05480003 0.03878462
v -0.00455570 -0.05482679 0.03888398
v -0.00050001 -0.05480003 0.03904676
v -0.00050001 -0.05482679 0.03914684
v -0.00456381 -0.05489999 0.03895676
v -0.00050001 -0.05489999 0.03921997
v -0.00456655 -0.05500000 0.03898346
v -0.00050001 -0.05500000 0.03924679
v -0.01250869 -0.05500000 -0.03720337
v -0.01250046 -0.05489999 -0.03717786
v -0.01629865 -0.05500000 -0.03570598
v -0.01628780 -0.05489999 -0.03568142
v -0.01991295 -0.05500000 -0.03382354
v -0.01989960 -0.05489999 -0.03380036
v -0.02331256 -0.05500000 -0.03157669
v -0.02329689 -0.05489999 -0.03155487
v -0.02646094 -0.05500000 -0.02898925
v -0.02644306 -0.05489999 -0.02896940
v -0.02932405 -0.05500000 -0.02608942
v -0.02930414 -0.05489999 -0.02607160
v -0.03187108 -0.05500000 -0.02290844
v -0.03184938 -0.05489999 -0.02289271
v -0.03407448 -0.05500000 -0.01948040
v -0.03405129 -0.05489999 -0.01946699
v -0.03591066 -0.05500000 -0.01584243
v -0.03588622 -0.05489999 -0.01583158
v -0.03735971 -0.05500000 -0.01203382
v -0.03733426 -0.05489999 -0.01202541
v -0.03840607 -0.05500000 -0.00809520
v -0.03837990 -0.05489999 -0.00808972
v -0.03903841 -0.05500000 -0.00406951
v -0.03901177 -0.05489999 -0.00406676
v -0.03925001 -0.05500000 0.00000000
v -0.03922319 -0.05489999 0.00000000
v -0.03901177 -0.05489999 0.00406676
v -0.03903841 -0.05500000 0.00406951
v -0.03837990 -0.05489999 0.00808972
v -0.03840607 -0.05500000 0.00809520
v -0.03733426 -0.05489999 0.01202541
v -0.03735971 -0.05500000 0.01203382
v -0.03588622 -0.05489999 0.01583158
v -0.03591066 -0.05500000 0.01584243
v -0.03405129 -0.05489999 0.01946699
v -0.03407448 -0.05500000 0.01948040
v -0.03184938 -0.05489999 0.02289271
v -0.03187108 -0.05500000 0.02290844
v -0.02930414 -0.05489999 0.02607160
v -0.02932405 -0.05500000 0.02608942
v -0.02644306 -0.05489999 0.02896940
v -0.02646094 -0.05500000 0.02898925
v -0.02329689 -0.05489999 0.03155487
v -0.02331256 -0.05500000 0.03157669
v -0.01989960 -0.05489999 0.03380036
v -0.01991295 -0.05500000 0.03382354
v -0.01628780 -0.05489999 0.03568142
v -0.01629865 -0.05500000 0.03570598
v -0.01250046 -0.05489999 0.03717786
v -0.01250869 -0.05500000 0.03720337
v -0.00857836 -0.05489999 0.03827357
v -0.00858390 -0.05500000 0.03829985
v -0.00050001 -0.05480003 0.03904676
v -0.00049873 -0.05480003 0.03904676
v -0.00454444 -0.05480003 0.03878462
v 0.00049999 -0.05482679 0.03914684
v 0.00455570 -0.05482679 0.03888398
v 0.00049999 -0.05480003 0.03904676
v 0.00454444 -0.05480003 0.03878462
v 0.00049999 -0.05480003 0.03904676
v 0.00454444 -0.05480003 0.03878462
v 0.00049872 -0.05480003 0.03904676
v 0.00456381 -0.05489999 0.03895676
v 0.00049999 -0.05489999 0.03921997
v 0.00456655 -0.05500000 0.03898346
v 0.00049999 -0.05500000 0.03924679
v 0.00858384 -0.05500000 0.03829985
v 0.00857836 -0.05489999 0.03827357
v 0.00856274 -0.05482679 0.03820204
v 0.00854123 -0.05480003 0.03810435
v 0.01247745 -0.05482679 0.03710842
v 0.01625770 -0.05482679 0.03561472
v 0.01621645 -0.05480003 0.03552365
v 0.01986271 -0.05482679 0.03373718
v 0.01981222 -0.05480003 0.03365081
v 0.02325361 -0.05482679 0.03149592
v 0.02319437 -0.05480003 0.03141522
v 0.02639383 -0.05482679 0.02891510
v 0.02632659 -0.05480003 0.02884107
v 0.02924954 -0.05482679 0.02602279
v 0.02917498 -0.05480003 0.02595609
v 0.03179001 -0.05482679 0.02284985
v 0.03170895 -0.05480003 0.02279126
v 0.03398782 -0.05482679 0.01943051
v 0.03390109 -0.05480003 0.01938080
v 0.03581923 -0.05482679 0.01580196
v 0.03572779 -0.05480003 0.01576137
v 0.03726458 -0.05482679 0.01200300
v 0.03830826 -0.05482679 0.00807464
v 0.03821039 -0.05480003 0.00805384
v 0.03893899 -0.05482679 0.00405913
v 0.03883951 -0.05480003 0.00404876
v 0.03914999 -0.05482679 0.00000000
v 0.03904998 -0.05480003 0.00000000
v 0.03883951 -0.05480003 -0.00404876
v 0.03893899 -0.05482679 -0.00405913
v 0.03821039 -0.05480003 -0.00805384
v 0.03830826 -0.05482679 -0.00807464
v 0.03726458 -0.05482679 -0.01200300
v 0.03572779 -0.05480003 -0.01576137
v 0.03581923 -0.05482679 -0.01580196
v 0.03390109 -0.05480003 -0.01938080
v 0.03398782 -0.05482679 -0.01943051
v 0.03170895 -0.05480003 -0.02279126
v 0.03179001 -0.05482679 -0.02284985
v 0.02917498 -0.05480003 -0.02595609
v 0.02924954 -0.05482679 -0.02602279
v 0.02632659 -0.05480003 -0.02884107
v 0.02639383 -0.05482679 -0.02891510
v 0.02319437 -0.05480003 -0.03141522
v 0.02325361 -0.05482679 -0.03149592
v 0.01981222 -0.05480003 -0.03365081
v 0.01986271 -0.05482679 -0.03373718
v 0.01621645 -0.05480003 -0.03552365
v 0.01625770 -0.05482679 -0.03561472
v 0.01247745 -0.05482679 -0.03710842
v 0.00854123 -0.05480003 -0.03810435
v 0.00856274 -0.05482679 -0.03820204
v 0.00454444 -0.05480003 -0.03878462
v 0.00455570 -0.05482679 -0.03888398
v 0.00049999 -0.05480003 -0.03904676
v 0.00049999 -0.05482679 -0.03914684
v 0.00456381 -0.05489999 -0.03895676
v 0.00049999 -0.05489999 -0.03921997
v 0.00456655 -0.05500000 -0.03898346
v 0.00049999 -0.05500000 -0.03924679
v 0.01250869 -0.05500000 0.03720337
v 0.01250046 -0.05489999 0.03717786
v 0.01629865 -0.05500000 0.03570598
v 0.01628780 -0.05489999 0.03568142
v 0.01991295 -0.05500000 0.03382354
v 0.01989960 -0.05489999 0.03380036
v 0.02331256 -0.05500000 0.03157669
v 0.02329689 -0.05489999 0.03155487
v 0.02646094 -0.05500000 0.02898925
v 0.02644300 -0.05489999 0.02896940
v 0.02932399 -0.05500000 0.02608942
v 0.02930414 -0.05489999 0.02607160
v 0.03187102 -0.05500000 0.02290844
v 0.03184938 -0.05489999 0.02289271
v 0.03407448 -0.05500000 0.01948040
v 0.03405129 -0.05489999 0.01946699
v 0.03591066 -0.05500000 0.01584243
v 0.03588616 -0.05489999 0.01583158
v 0.03735971 -0.05500000 0.01203382
v 0.03733426 -0.05489999 0.01202541
v 0.03840607 -0.05500000 0.00809520
v 0.03837984 -0.05489999 0.00808972
v 0.03903841 -0.05500000 0.00406951
v 0.03901177 -0.05489999 0.00406676
v 0.03924995 -0.05500000 0.00000000
v 0.03922319 -0.05489999 0.00000000
v 0.03901177 -0.05489999 -0.00406676
v 0.03903841 -0.05500000 -0.00406951
v 0.03837984 -0.05489999 -0.00808972
v 0.03840607 -0.05500000 -0.00809520
v 0.03733426 -0.05489999 -0.01202541
v 0.03735971 -0.05500000 -0.01203382
v 0.03588616 -0.05489999 -0.01583158
v 0.03591066 -0.05500000 -0.01584243
v 0.03405129 -0.05489999 -0.01946699
v 0.03407448 -0.05500000 -0.01948040
v 0.03184938 -0.05489999 -0.02289271
v 0.03187102 -0.05500000 -0.02290844
v 0.02930414 -0.05489999 -0.02607160
v 0.02932399 -0.05500000 -0.02608942
v 0.02644300 -0.05489999 -0.02896940
v 0.02646094 -0.05500000 -0.02898925
v 0.02329689 -0.05489999 -0.03155487
v 0.02331256 -0.05500000 -0.03157669
v 0.01989960 -0.05489999 -0.03380036
v 0.01991295 -0.05500000 -0.03382354
v 0.01628780 -0.05489999 -0.03568142
v 0.01629865 -0.05500000 -0.03570598
v 0.01250046 -0.05489999 -0.03717786
v 0.01250869 -0.05500000 -0.03720337
v 0.00857836 -0.05489999 -0.03827357
v 0.00858384 -0.05500000 -0.03829985
v 0.00049999 -0.05480003 -0.03904676
v 0.00049872 -0.05480003 -0.03904676
v 0.00454444 -0.05480003 -0.03878462
f 1 2 3
f 4 5 6
f 7 8 9
f 10 6 11
f 12 13 14
f 15 16 17
f 14 18 19
f 20 17 21
f 19 22 23
f 24 21 25
f 24 25 26
f 26 25 27
f 26 27 28
f 28 27 29
f 28 29 30
f 30 29 31
f 30 31 32
f 32 31 33
f 32 33 34
f 34 33 35
f 34 35 36
f 36 35 37
f 36 37 38
f 38 37 39
f 38 39 40
f 40 39 41
f 40 41 42
f 42 41 43
f 42 43 44
f 44 43 45
f 44 45 46
f 46 45 47
f 46 47 48
f 48 47 49
f 48 49 50
f 50 49 51
f 50 51 52
f 52 51 53
f 52 53 54
f 54 53 55
f 54 55 56
f 56 55 57
f 56 58 59
f 59 58 60
f 59 60 61
f 61 60 62
f 61 62 63
f 63 62 64
f 63 64 65
f 65 64 66
f 65 66 67
f 68 66 69
f 68 69 70
f 70 69 71
f 70 72 73
f 74 75 76
f 77 78 79
f 80 76 81
f 79 82 83
f 84 85 86
f 87 88 89
f 89 88 90
f 89 90 91
f 89 91 92
f 92 91 93
f 92 93 94
f 95 96 97
f 97 96 98
f 97 98 99
f 99 98 100
f 99 100 101
f 101 100 102
f 101 102 103
f 103 102 104
f 103 104 105
f 105 104 106
f 105 106 107
f 107 106 108
f 107 108 109
f 109 108 110
f 109 110 111
f 111 110 112
f 111 112 113
f 113 112 114
f 113 114 115
f 115 114 116
f 115 116 117
f 117 116 118
f 117 118 119
f 119 118 120
f 119 120 121
f 121 120 122
f 121 122 123
f 123 122 124
f 123 124 125
f 125 124 126
f 125 126 127
f 127 126 128
f 127 128 129
f 129 128 130
f 129 130 131
f 131 130 132
f 131 132 133
f 133 132 134
f 133 134 135
f 135 134 136
f 135 136 137
f 137 136 138
f 137 138 139
f 139 138 140
f 139 140 141
f 141 140 142
f 141 142 143
f 143 142 144
f 143 144 145
f 145 144 146
f 145 146 147
f 147 146 148
f 147 148 149
f 149 148 150
f 149 150 151
f 151 150 152
f 151 152 153
f 153 152 154
f 153 154 155
f 155 154 156
f 157 158 159
f 159 158 160
f 160 158 161
f 160 161 162
f 162 161 163
f 163 161 164
f 165 166 167
f 167 166 168
f 167 168 169
f 169 168 170
f 169 170 171
f 171 170 172
f 173 174 175
f 175 174 176
f 175 176 177
f 175 177 178
f 178 177 179
f 178 179 180
f 181 182 183
f 183 182 184
f 183 184 185
f 185 184 186
f 185 186 187
f 187 186 188
f 187 188 189
f 189 188 190
f 189 190 191
f 191 190 192
f 191 192 193
f 193 192 194
f 193 194 195
f 195 194 196
f 195 196 197
f 197 196 198
f 197 198 199
f 199 198 200
f 199 200 201
f 201 200 202
f 201 202 203
f 203 202 204
f 203 204 205
f 205 204 206
f 205 206 207
f 207 206 208
f 207 208 209
f 209 208 210
f 209 210 211
f 211 210 212
f 211 212 213
f 213 212 214
f 213 214 215
f 215 214 216
f 215 216 217
f 217 216 218
f 217 218 219
f 219 218 220
f 219 220 221
f 221 220 222
f 221 222 223
f 223 222 224
f 223 224 225
f 225 224 226
f 225 226 227
f 227 226 228
f 227 228 229
f 229 228 230
f 229 230 231
f 231 230 232
f 231 232 233
f 233 232 234
f 233 234 235
f 235 234 236
f 235 236 237
f 237 236 238
f 237 238 239
f 239 238 240
f 239 240 241
f 241 240 242
f 243 244 245
f 245 244 246
f 246 244 247
f 246 247 248
f 248 247 249
f 249 247 250
f 251 252 253
f 253 252 254
f 253 254 255
f 255 254 256
f 255 256 257
f 251 258 252
f 259 260 261
f 262 263 264
f 265 266 267
f 268 269 270
f 271 272 273
f 273 272 274
f 273 274 275
f 275 274 276
f 275 276 277
f 277 276 278
f 277 278 279
f 279 278 280
f 279 280 281
f 281 280 282
f 281 282 283
f 283 282 284
f 283 284 285
f 285 284 286
f 285 286 287
f 287 286 288
f 287 288 289
f 289 288 290
f 289 290 291
f 291 290 292
f 291 292 293
f 293 292 294
f 293 294 295
f 295 294 296
f 295 296 297
f 297 296 298
f 297 298 299
f 299 298 300
f 299 300 301
f 301 300 302
f 301 302 303
f 303 302 304
f 303 304 305
f 305 304 306
f 305 306 307
f 307 306 308
f 307 308 309
f 309 308 310
f 309 310 311
f 311 310 312
f 311 312 313
f 313 312 314
f 313 314 315
f 315 314 316
f 315 316 317
f 317 316 318
f 317 318 319
f 319 318 320
f 319 320 321
f 321 320 322
f 321 322 323
f 323 322 324
f 325 326 327
f 328 324 329
f 330 331 332
f 333 334 335
f 336 337 338
f 339 340 341
f 339 341 342
f 342 341 343
f 342 343 344
f 344 343 345
f 344 345 346
f 341 340 347
f 347 340 348
f 347 348 349
f 349 348 350
f 349 350 351
f 351 350 352
f 351 352 353
f 353 352 354
f 353 354 355
f 355 354 356
f 355 356 357
f 357 356 358
f 357 358 359
f 359 358 360
f 359 360 361
f 361 360 362
f 361 362 363
f 363 362 364
f 363 364 365
f 365 364 366
f 365 366 367
f 367 366 368
f 367 368 369
f 369 368 370
f 369 370 371
f 371 370 372
f 371 372 373
f 373 372 374
f 373 374 375
f 373 375 376
f 376 375 377
f 376 377 378
f 378 377 379
f 378 379 380
f 380 379 381
f 380 381 382
f 382 381 383
f 382 383 384
f 384 383 385
f 384 385 386
f 386 385 387
f 386 387 388
f 388 387 389
f 388 389 390
f 390 389 391
f 390 391 392
f 392 391 393
f 392 393 394
f 394 393 395
f 394 395 396
f 396 395 397
f 396 397 398
f 398 397 399
f 398 399 400
f 400 399 401
f 400 401 402
f 402 401 403
f 402 403 404
f 405 406 407
f 402 404 408
f 408 404 409
f 408 409 410
f 410 409 411
f 410 412 408
f 408 412 413
f 408 413 402
f 402 413 400
f 412 414 413
f 413 414 415
f 413 415 400
f 400 415 398
f 414 416 415
f 415 416 417
f 415 417 398
f 398 417 396
f 416 418 417
f 417 418 419
f 417 419 396
f 396 419 394
f 418 420 419
f 419 420 421
f 419 421 394
f 394 421 392
f 420 422 421
f 421 422 423
f 421 423 392
f 392 423 390
f 422 424 423
f 423 424 425
f 423 425 390
f 390 425 388
f 424 426 425
f 425 426 427
f 425 427 388
f 388 427 386
f 426 428 427
f 427 428 429
f 427 429 386
f 386 429 384
f 428 430 429
f 429 430 431
f 429 431 384
f 384 431 382
f 430 432 431
f 431 432 433
f 431 433 382
f 382 433 380
f 432 434 433
f 433 434 435
f 433 435 380
f 380 435 378
f 434 436 435
f 435 436 437
f 435 437 378
f 378 437 376
f 436 438 437
f 437 438 439
f 437 439 376
f 376 439 373
f 439 438 440
f 440 438 441
f 440 441 442
f 442 441 443
f 442 443 444
f 444 443 445
f 444 445 446
f 446 445 447
f 446 447 448
f 448 447 449
f 448 449 450
f 450 449 451
f 450 451 452
f 452 451 453
f 452 453 454
f 454 453 455
f 454 455 456
f 456 455 457
f 456 457 458
f 458 457 459
f 458 459 460
f 460 459 461
f 460 461 462
f 462 461 463
f 462 463 464
f 464 463 465
f 464 465 343
f 343 465 345
f 464 343 341
f 464 341 347
f 462 464 347
f 462 347 349
f 460 462 349
f 460 349 351
f 458 460 351
f 458 351 353
f 456 458 353
f 456 353 355
f 454 456 355
f 454 355 357
f 452 454 357
f 452 357 359
f 450 452 359
f 450 359 361
f 448 450 361
f 448 361 363
f 446 448 363
f 446 363 365
f 444 446 365
f 444 365 367
f 442 444 367
f 442 367 369
f 440 442 369
f 440 369 371
f 439 440 371
f 439 371 373
f 466 467 468
f 469 470 471
f 469 471 472
f 472 471 473
f 472 473 474
f 474 473 475
f 474 475 476
f 471 470 477
f 477 470 478
f 477 478 479
f 479 478 480
f 479 480 481
f 481 480 482
f 481 482 483
f 483 482 484
f 483 484 485
f 485 484 486
f 485 486 487
f 487 486 488
f 487 488 489
f 489 488 490
f 489 490 491
f 491 490 492
f 491 492 493
f 493 492 494
f 493 494 495
f 495 494 496
f 495 496 497
f 497 496 498
f 497 498 499
f 499 498 500
f 499 500 501
f 501 500 502
f 501 502 503
f 503 502 504
f 503 504 505
f 503 505 506
f 506 505 507
f 506 507 508
f 508 507 509
f 508 509 510
f 510 509 511
f 510 511 512
f 512 511 513
f 512 513 514
f 514 513 515
f 514 515 516
f 516 515 517
f 516 517 518
f 518 517 519
f 518 519 520
f 520 519 521
f 520 521 522
f 522 521 523
f 522 523 524
f 524 523 525
f 524 525 526
f 526 525 527
f 526 527 528
f 528 527 529
f 528 529 530
f 530 529 531
f 530 531 532
f 532 531 533
f 532 533 534
f 535 536 537
f 532 534 538
f 538 534 539
f 538 539 540
f 540 539 541
f 540 542 538
f 538 542 543
f 538 543 532
f 532 543 530
f 542 544 543
f 543 544 545
f 543 545 530
f 530 545 528
f 544 546 545
f 545 546 547
f 545 547 528
f 528 547 526
f 546 548 547
f 547 548 549
f 547 549 526
f 526 549 524
f 548 550 549
f 549 550 551
f 549 551 524
f 524 551 522
f 550 552 551
f 551 552 553
f 551 553 522
f 522 553 520
f 552 554 553
f 553 554 555
f 553 555 520
f 520 555 518
f 554 556 555
f 555 556 557
f 555 557 518
f 518 557 516
f 556 558 557
f 557 558 559
f 557 559 516
f 516 559 514
f 558 560 559
f 559 560 561
f 559 561 514
f 514 561 512
f 560 562 561
f 561 562 563
f 561 563 512
f 512 563 510
f 562 564 563
f 563 564 565
f 563 565 510
f 510 565 508
f 564 566 565
f 565 566 567
f 565 567 508
f 508 567 506
f 566 568 567
f 567 568 569
f 567 569 506
f 506 569 503
f 569 568 570
f 570 568 571
f 570 571 572
f 572 571 573
f 572 573 574
f 574 573 575
f 574 575 576
f 576 575 577
f 576 577 578
f 578 577 579
f 578 579 580
f 580 579 581
f 580 581 582
f 582 581 583
f 582 583 584
f 584 583 585
f 584 585 586
f 586 585 587
f 586 587 588
f 588 587 589
f 588 589 590
f 590 589 591
f 590 591 592
f 592 591 593
f 592 593 594
f 594 593 595
f 594 595 473
f 473 595 475
f 594 473 471
f 594 471 477
f 592 594 477
f 592 477 479
f 590 592 479
f 590 479 481
f 588 590 481
f 588 481 483
f 586 588 483
f 586 483 485
f 584 586 485
f 584 485 487
f 582 584 487
f 582 487 489
f 580 582 489
f 580 489 491
f 578 580 491
f 578 491 493
f 576 578 493
f 576 493 495
f 574 576 495
f 574 495 497
f 572 574 497
f 572 497 499
f 570 572 499
f 570 499 501
f 569 570 501
f 569 501 503
f 596 597 598
f 598 597 599
f 600 601 602
f 597 596 603
f 603 596 604
f 603 604 605
f 605 604 606
f 605 607 603
f 603 607 608
f 603 608 597
f 597 608 609
f 597 609 599
f 599 609 610
f 610 609 611
f 610 611 612
f 612 611 613
f 612 613 614
f 614 613 615
f 614 615 616
f 616 615 617
f 616 617 618
f 618 617 619
f 618 619 620
f 620 619 621
f 620 621 622
f 622 621 623
f 622 623 624
f 624 623 625
f 624 625 626
f 626 625 627
f 626 627 628
f 628 627 629
f 628 629 292
f 292 629 630
f 292 630 631
f 631 630 632
f 631 632 633
f 633 632 634
f 633 634 635
f 635 634 636
f 636 634 637
f 636 637 638
f 638 637 639
f 638 639 304
f 304 639 640
f 304 640 641
f 641 640 642
f 641 642 643
f 643 642 644
f 643 644 645
f 645 644 646
f 645 646 647
f 647 646 648
f 647 648 649
f 649 648 650
f 649 650 651
f 651 650 652
f 651 652 653
f 653 652 654
f 653 654 655
f 655 654 656
f 655 656 322
f 322 656 657
f 322 657 658
f 658 657 659
f 658 659 660
f 660 659 661
f 660 661 662
f 662 661 663
f 663 661 664
f 663 664 665
f 665 664 666
f 665 666 667
f 607 668 608
f 608 668 669
f 608 669 609
f 609 669 611
f 668 670 669
f 669 670 671
f 669 671 611
f 611 671 613
f 670 672 671
f 671 672 673
f 671 673 613
f 613 673 615
f 672 674 673
f 673 674 675
f 673 675 615
f 615 675 617
f 674 676 675
f 675 676 677
f 675 677 617
f 617 677 619
f 676 678 677
f 677 678 679
f 677 679 619
f 619 679 621
f 678 680 679
f 679 680 681
f 679 681 621
f 621 681 623
f 680 682 681
f 681 682 683
f 681 683 623
f 623 683 625
f 682 684 683
f 683 684 685
f 683 685 625
f 625 685 627
f 684 686 685
f 685 686 687
f 685 687 627
f 627 687 629
f 686 688 687
f 687 688 689
f 687 689 629
f 629 689 630
f 688 690 689
f 689 690 691
f 689 691 630
f 630 691 632
f 690 692 691
f 691 692 693
f 691 693 632
f 632 693 634
f 693 692 694
f 694 692 695
f 694 695 696
f 696 695 697
f 696 697 698
f 698 697 699
f 698 699 700
f 700 699 701
f 700 701 702
f 702 701 703
f 702 703 704
f 704 703 705
f 704 705 706
f 706 705 707
f 706 707 708
f 708 707 709
f 708 709 710
f 710 709 711
f 710 711 712
f 712 711 713
f 712 713 714
f 714 713 715
f 714 715 716
f 716 715 717
f 716 717 718
f 718 717 719
f 718 719 664
f 664 719 666
f 720 721 722
f 637 634 693
f 637 693 694
f 639 637 694
f 639 694 696
f 640 639 696
f 640 696 698
f 642 640 698
f 642 698 700
f 644 642 700
f 644 700 702
f 646 644 702
f 646 702 704
f 648 646 704
f 648 704 706
f 650 648 706
f 650 706 708
f 652 650 708
f 652 708 710
f 654 652 710
f 654 710 712
f 656 654 712
f 656 712 714
f 657 656 714
f 657 714 716
f 659 657 716
f 659 716 718
f 661 659 718
f 661 718 664
f 723 724 725
f 725 724 726
f 727 728 729
f 724 723 730
f 730 723 731
f 730 731 732
f 732 731 733
f 732 734 730
f 730 734 735
f 730 735 724
f 724 735 736
f 724 736 726
f 726 736 737
f 737 736 738
f 737 738 321
f 321 738 739
f 321 739 740
f 740 739 741
f 740 741 742
f 742 741 743
f 742 743 744
f 744 743 745
f 744 745 746
f 746 745 747
f 746 747 748
f 748 747 749
f 748 749 750
f 750 749 751
f 750 751 752
f 752 751 753
f 752 753 754
f 754 753 755
f 754 755 303
f 303 755 756
f 303 756 757
f 757 756 758
f 757 758 759
f 759 758 760
f 759 760 761
f 761 760 762
f 762 760 763
f 762 763 764
f 764 763 765
f 764 765 291
f 291 765 766
f 291 766 767
f 767 766 768
f 767 768 769
f 769 768 770
f 769 770 771
f 771 770 772
f 771 772 773
f 773 772 774
f 773 774 775
f 775 774 776
f 775 776 777
f 777 776 778
f 777 778 779
f 779 778 780
f 779 780 781
f 781 780 782
f 781 782 273
f 273 782 783
f 273 783 784
f 784 783 785
f 784 785 786
f 786 785 787
f 786 787 788
f 788 787 789
f 789 787 790
f 789 790 791
f 791 790 792
f 791 792 793
f 734 794 735
f 735 794 795
f 735 795 736
f 736 795 738
f 794 796 795
f 795 796 797
f 795 797 738
f 738 797 739
f 796 798 797
f 797 798 799
f 797 799 739
f 739 799 741
f 798 800 799
f 799 800 801
f 799 801 741
f 741 801 743
f 800 802 801
f 801 802 803
f 801 803 743
f 743 803 745
f 802 804 803
f 803 804 805
f 803 805 745
f 745 805 747
f 804 806 805
f 805 806 807
f 805 807 747
f 747 807 749
f 806 808 807
f 807 808 809
f 807 809 749
f 749 809 751
f 808 810 809
f 809 810 811
f 809 811 751
f 751 811 753
f 810 812 811
f 811 812 813
f 811 813 753
f 753 813 755
f 812 814 813
f 813 814 815
f 813 815 755
f 755 815 756
f 814 816 815
f 815 816 817
f 815 817 756
f 756 817 758
f 816 818 817
f 817 818 819
f 817 819 758
f 758 819 760
f 819 818 820
f 820 818 821
f 820 821 822
f 822 821 823
f 822 823 824
f 824 823 825
f 824 825 826
f 826 825 827
f 826 827 828
f 828 827 829
f 828 829 830
f 830 829 831
f 830 831 832
f 832 831 833
f 832 833 834
f 834 833 835
f 834 835 836
f 836 835 837
f 836 837 838
f 838 837 839
f 838 839 840
f 840 839 841
f 840 841 842
f 842 841 843
f 842 843 844
f 844 843 845
f 844 845 790
f 790 845 792
f 846 847 848
f 763 760 819
f 763 819 820
f 765 763 820
f 765 820 822
f 766 765 822
f 766 822 824
f 768 766 824
f 768 824 826
f 770 768 826
f 770 826 828
f 772 770 828
f 772 828 830
f 774 772 830
f 774 830 832
f 776 774 832
f 776 832 834
f 778 776 834
f 778 834 836
f 780 778 836
f 780 836 838
f 782 780 838
f 782 838 840
f 783 782 840
f 783 840 842
f 785 783 842
f 785 842 844
f 787 785 844
f 787 844 790

