# https://github.com/mikedh/trimesh
v 0.01396286 -0.07556807 0.03694927
v 0.01299995 -0.07550001 0.03729945
v 0.01299995 -0.08950001 0.03729945
v 0.01070284 -0.07550001 0.03802227
v 0.01070284 -0.08950001 0.03802227
v 0.00836599 -0.07550001 0.03860378
v 0.00836599 -0.08950001 0.03860378
v 0.00599801 -0.07550001 0.03904187
v 0.00599801 -0.08950001 0.03904187
v 0.00360775 -0.07550001 0.03933483
v 0.00360775 -0.08950001 0.03933483
v 0.00120401 -0.07550001 0.03948163
v 0.00120401 -0.08950001 0.03948163
v -0.00120407 -0.07550001 0.03948163
v -0.00120407 -0.08950001 0.03948163
v -0.00360775 -0.07550001 0.03933483
v -0.00360775 -0.08950001 0.03933483
v -0.00599801 -0.07550001 0.03904187
v -0.00599801 -0.08950001 0.03904187
v -0.00836599 -0.07550001 0.03860378
v -0.00836599 -0.08950001 0.03860378
v -0.01070290 -0.07550001 0.03802227
v -0.01070290 -0.08950001 0.03802227
v -0.01300001 -0.07550001 0.03729945
v -0.01300001 -0.08950001 0.03729945
v -0.01396286 -0.08943200 0.03694927
v -0.01396286 -0.07556807 0.03694927
v -0.01399999 -0.08250004 0.03693568
v -0.01406180 -0.08189827 0.03691238
v -0.01424694 -0.08130812 0.03684109
v -0.01454609 -0.08077555 0.03672409
v -0.01492792 -0.07577204 0.03657013
v -0.01492506 -0.08033341 0.03657162
v -0.01538085 -0.07997542 0.03638225
v -0.01586210 -0.07611197 0.03617519
v -0.01590013 -0.07970893 0.03615844
v -0.01645207 -0.07955127 0.03591048
v -0.01673549 -0.07658183 0.03577911
v -0.01700001 -0.07950001 0.03565460
v -0.01752549 -0.07716089 0.03539901
v -0.01778364 -0.07950001 0.03527021
v -0.01821279 -0.07782846 0.03505051
v -0.01855862 -0.07950001 0.03486877
v -0.01881778 -0.07861042 0.03472930
v -0.01932454 -0.07950001 0.03445005
v -0.01406180 -0.08310180 0.03691238
v -0.01424694 -0.08369195 0.03684109
v -0.01454609 -0.08422452 0.03672409
v -0.01492792 -0.08922797 0.03657013
v -0.01492506 -0.08466660 0.03657162
v -0.01538085 -0.08502465 0.03638225
v -0.01586210 -0.08888810 0.03617519
v -0.01590013 -0.08529108 0.03615844
v -0.01645207 -0.08544880 0.03591048
v -0.01673549 -0.08841824 0.03577911
v -0.01699995 -0.08550000 0.03565460
v -0.01752549 -0.08783918 0.03539901
v -0.01778364 -0.08550000 0.03527021
v -0.01821279 -0.08717155 0.03505051
v -0.01855862 -0.08550000 0.03486877
v -0.01881778 -0.08638966 0.03472930
v -0.01932454 -0.08550000 0.03445005
v 0.01396286 -0.08943200 0.03694927
v 0.01399993 -0.08250004 0.03693568
v 0.01406180 -0.08189827 0.03691238
v 0.01492792 -0.08922797 0.03657013
v 0.01454609 -0.08422452 0.03672409
v 0.01424694 -0.08369195 0.03684109
v 0.01406180 -0.08310180 0.03691238
v 0.01586210 -0.08888810 0.03617519
v 0.01538085 -0.08502465 0.03638225
v 0.01492506 -0.08466660 0.03657162
v 0.01673549 -0.08841824 0.03577911
v 0.01645207 -0.08544880 0.03591048
v 0.01590013 -0.08529108 0.03615844
v 0.01699995 -0.08550000 0.03565460
v 0.01752543 -0.08783918 0.03539901
v 0.01778364 -0.08550000 0.03527021
v 0.01821279 -0.08717155 0.03505051
v 0.01855862 -0.08550000 0.03486877
v 0.01881772 -0.08638966 0.03472930
v 0.01932454 -0.08550000 0.03445005
v 0.01424694 -0.08130812 0.03684109
v 0.01454609 -0.08077555 0.03672409
v 0.01492792 -0.07577204 0.03657013
v 0.01492506 -0.08033341 0.03657162
v 0.01538085 -0.07997542 0.03638225
v 0.01586210 -0.07611197 0.03617519
v 0.01590013 -0.07970893 0.03615844
v 0.01645207 -0.07955127 0.03591048
v 0.01673549 -0.07658183 0.03577911
v 0.01699995 -0.07950001 0.03565460
v 0.01752543 -0.07716089 0.03539901
v 0.01778364 -0.07950001 0.03527021
v 0.01821279 -0.07782846 0.03505051
v 0.01855862 -0.07950001 0.03486877
v 0.01881772 -0.07861042 0.03472930
v 0.01932454 -0.07950001 0.03445005
v -0.01932454 -0.07950001 0.03399991
v -0.01932454 -0.07950001 0.03445005
v -0.01929169 -0.07943177 0.03249996
v -0.01881778 -0.07861042 0.03472930
v -0.01875758 -0.07851886 0.03249996
v -0.01821279 -0.07782846 0.03505051
v -0.01809203 -0.07769680 0.03249996
v -0.01752549 -0.07716089 0.03539901
v -0.01731020 -0.07698440 0.03249996
v -0.01673549 -0.07658183 0.03577911
v -0.01642996 -0.07639795 0.03249996
v -0.01642996 -0.07639795 0.03439998
v -0.01586210 -0.07611197 0.03617519
v -0.01562285 -0.07600998 0.03439998
v -0.01492792 -0.07577204 0.03657013
v -0.01477277 -0.07572823 0.03439998
v -0.01396286 -0.07556807 0.03694927
v -0.01389372 -0.07555729 0.03439998
v -0.01300001 -0.07550001 0.03729945
v -0.01300001 -0.07550001 0.03439998
v -0.01968216 -0.08041477 0.03249996
v -0.01969707 -0.08046305 0.03399991
v -0.01992011 -0.08144533 0.03249996
v -0.01992386 -0.08147031 0.03399991
v -0.01999998 -0.08250004 0.03249996
v -0.01999998 -0.08250004 0.03399991
v -0.01992386 -0.08352971 0.03399991
v -0.01992011 -0.08355468 0.03249996
v -0.01969707 -0.08453702 0.03399991
v -0.01968216 -0.08458530 0.03249996
v -0.01932454 -0.08550000 0.03399991
v -0.01929169 -0.08556830 0.03249996
v -0.01932454 -0.08550000 0.03445005
v -0.01881778 -0.08638966 0.03472930
v -0.01875758 -0.08648121 0.03249996
v -0.01821279 -0.08717155 0.03505051
v -0.01809203 -0.08730328 0.03249996
v -0.01752549 -0.08783918 0.03539901
v -0.01731020 -0.08801561 0.03249996
v -0.01673549 -0.08841824 0.03577911
v -0.01642996 -0.08860206 0.03249996
v -0.01642996 -0.08860206 0.03439998
v -0.01586210 -0.08888810 0.03617519
v -0.01562285 -0.08899009 0.03439998
v -0.01492792 -0.08922797 0.03657013
v -0.01477277 -0.08927184 0.03439998
v -0.01396286 -0.08943200 0.03694927
v -0.01389372 -0.08944272 0.03439998
v -0.01300001 -0.08950001 0.03729945
v -0.01300001 -0.08950001 0.03439998
v -0.01932454 -0.07950001 0.03399991
v -0.01969707 -0.08046305 0.03399991
v -0.01700001 -0.07950001 0.03399991
v -0.01992386 -0.08147031 0.03399991
v -0.01999998 -0.08250004 0.03399991
v -0.01992386 -0.08352971 0.03399991
v -0.01699995 -0.08550000 0.03399991
v -0.01633244 -0.08542484 0.03399991
v -0.01569831 -0.08520293 0.03399991
v -0.01969707 -0.08453702 0.03399991
v -0.01932454 -0.08550000 0.03399991
v -0.01512950 -0.08484554 0.03399991
v -0.01465451 -0.08437049 0.03399991
v -0.01429706 -0.08380168 0.03399991
v -0.01407521 -0.08316761 0.03399991
v -0.01399999 -0.08250004 0.03399991
v -0.01407521 -0.08183246 0.03399991
v -0.01429706 -0.08119839 0.03399991
v -0.01465451 -0.08062952 0.03399991
v -0.01512950 -0.08015453 0.03399991
v -0.01569831 -0.07979714 0.03399991
v -0.01633244 -0.07957524 0.03399991
v -0.01700001 -0.07950001 0.03565460
v -0.01778364 -0.07950001 0.03527021
v -0.01700001 -0.07950001 0.03399991
v -0.01700001 -0.07950001 0.03399991
v -0.01778364 -0.07950001 0.03527021
v -0.01855862 -0.07950001 0.03486877
v -0.01855862 -0.07950001 0.03486877
v -0.01932454 -0.07950001 0.03399991
v -0.01932454 -0.07950001 0.03445005
v -0.01699995 -0.08550000 0.03565460
v -0.01645207 -0.08544880 0.03591048
v -0.01699995 -0.08550000 0.03399991
v -0.01633244 -0.08542484 0.03399991
v -0.01590013 -0.08529108 0.03615844
v -0.01569831 -0.08520293 0.03399991
v -0.01538085 -0.08502465 0.03638225
v -0.01512950 -0.08484554 0.03399991
v -0.01492506 -0.08466660 0.03657162
v -0.01465451 -0.08437049 0.03399991
v -0.01454609 -0.08422452 0.03672409
v -0.01429706 -0.08380168 0.03399991
v -0.01424694 -0.08369195 0.03684109
v -0.01407521 -0.08316761 0.03399991
v -0.01406180 -0.08310180 0.03691238
v -0.01399999 -0.08250004 0.03399991
v -0.01399999 -0.08250004 0.03693568
v -0.01406180 -0.08189827 0.03691238
v -0.01407521 -0.08183246 0.03399991
v -0.01424694 -0.08130812 0.03684109
v -0.01429706 -0.08119839 0.03399991
v -0.01454609 -0.08077555 0.03672409
v -0.01465451 -0.08062952 0.03399991
v -0.01492506 -0.08033341 0.03657162
v -0.01512950 -0.08015453 0.03399991
v -0.01538085 -0.07997542 0.03638225
v -0.01569831 -0.07979714 0.03399991
v -0.01590013 -0.07970893 0.03615844
v -0.01633244 -0.07957524 0.03399991
v -0.01645207 -0.07955127 0.03591048
v -0.01700001 -0.07950001 0.03565460
v 0.01932454 -0.07950001 0.03445005
v 0.01855862 -0.07950001 0.03486877
v 0.01932454 -0.07950001 0.03399991
v 0.01699995 -0.07950001 0.03399991
v 0.01699995 -0.07950001 0.03399991
v 0.01855862 -0.07950001 0.03486877
v 0.01778364 -0.07950001 0.03527021
v 0.01778364 -0.07950001 0.03527021
v 0.01699995 -0.07950001 0.03565460
v 0.01932454 -0.08550000 0.03399991
v 0.01969701 -0.08453702 0.03399991
v 0.01699995 -0.08550000 0.03399991
v 0.01992380 -0.08352971 0.03399991
v 0.01999998 -0.08250004 0.03399991
v 0.01992380 -0.08147031 0.03399991
v 0.01699995 -0.07950001 0.03399991
v 0.01633238 -0.07957524 0.03399991
v 0.01569831 -0.07979714 0.03399991
v 0.01969701 -0.08046305 0.03399991
v 0.01932454 -0.07950001 0.03399991
v 0.01512950 -0.08015453 0.03399991
v 0.01465445 -0.08062952 0.03399991
v 0.01429706 -0.08119839 0.03399991
v 0.01407516 -0.08183246 0.03399991
v 0.01399993 -0.08250004 0.03399991
v 0.01407516 -0.08316761 0.03399991
v 0.01429706 -0.08380168 0.03399991
v 0.01465445 -0.08437049 0.03399991
v 0.01512950 -0.08484554 0.03399991
v 0.01569831 -0.08520293 0.03399991
v 0.01633238 -0.08542484 0.03399991
v -0.01070290 -0.07550001 0.03802227
v 0.01070284 -0.07550001 0.03802227
v -0.01300001 -0.07550001 0.03729945
v -0.01300001 -0.07550001 0.03729945
v 0.01070284 -0.07550001 0.03802227
v 0.01299995 -0.07550001 0.03729945
v -0.01300001 -0.07550001 0.03439998
v 0.01299995 -0.07550001 0.03439998
v 0.01070284 -0.07550001 0.03802227
v -0.01070290 -0.07550001 0.03802227
v 0.00836599 -0.07550001 0.03860378
v 0.00836599 -0.07550001 0.03860378
v -0.00836599 -0.07550001 0.03860378
v 0.00836599 -0.07550001 0.03860378
v -0.00836599 -0.07550001 0.03860378
v 0.00599801 -0.07550001 0.03904187
v 0.00599801 -0.07550001 0.03904187
v -0.00599801 -0.07550001 0.03904187
v 0.00599801 -0.07550001 0.03904187
v -0.00599801 -0.07550001 0.03904187
v 0.00360775 -0.07550001 0.03933483
v 0.00360775 -0.07550001 0.03933483
v -0.00599801 -0.07550001 0.03904187
v -0.00360775 -0.07550001 0.03933483
v 0.00360775 -0.07550001 0.03933483
v -0.00360775 -0.07550001 0.03933483
v 0.00120401 -0.07550001 0.03948163
v 0.00120401 -0.07550001 0.03948163
v -0.00360775 -0.07550001 0.03933483
v -0.00120407 -0.07550001 0.03948163
v 0.01642996 -0.08860206 0.03439998
v 0.01562285 -0.08899009 0.03439998
v 0.01594811 -0.08879560 0.03439998
v 0.01543271 -0.08885854 0.03439998
v 0.01477277 -0.08927184 0.03439998
v 0.01543271 -0.08885854 0.03439998
v 0.01477277 -0.08927184 0.03439998
v 0.01491844 -0.08878672 0.03439998
v 0.01491844 -0.08878672 0.03439998
v 0.01389366 -0.08944272 0.03439998
v 0.01444000 -0.08858489 0.03439998
v 0.01299995 -0.08950001 0.03439998
v 0.01402968 -0.08826673 0.03439998
v 0.01371502 -0.08785367 0.03439998
v 0.01351737 -0.08737349 0.03439998
v -0.01300001 -0.08950001 0.03439998
v -0.01351737 -0.08737349 0.03439998
v -0.01351737 -0.08737349 0.03439998
v -0.01300001 -0.08950001 0.03439998
v -0.01371508 -0.08785367 0.03439998
v -0.01371508 -0.08785367 0.03439998
v -0.01402968 -0.08826673 0.03439998
v -0.01444005 -0.08858489 0.03439998
v -0.01389372 -0.08944272 0.03439998
v -0.01491844 -0.08878672 0.03439998
v -0.01477277 -0.08927184 0.03439998
v -0.01543271 -0.08885854 0.03439998
v -0.01562285 -0.08899009 0.03439998
v -0.01543271 -0.08885854 0.03439998
v -0.01562285 -0.08899009 0.03439998
v -0.01594817 -0.08879560 0.03439998
v -0.01594817 -0.08879560 0.03439998
v -0.01642996 -0.08860206 0.03439998
v 0.01344996 -0.08685863 0.03439998
v -0.01344996 -0.08685863 0.03439998
v 0.01344996 -0.07814139 0.03439998
v -0.01344996 -0.07814139 0.03439998
v 0.01351737 -0.07762658 0.03439998
v -0.01351737 -0.07762658 0.03439998
v 0.01299995 -0.07550001 0.03439998
v -0.01300001 -0.07550001 0.03439998
v -0.01300001 -0.07550001 0.03439998
v -0.01351737 -0.07762658 0.03439998
v -0.01371508 -0.07714641 0.03439998
v -0.01371508 -0.07714641 0.03439998
v -0.01402968 -0.07673329 0.03439998
v -0.01444005 -0.07641512 0.03439998
v -0.01389372 -0.07555729 0.03439998
v -0.01389372 -0.07555729 0.03439998
v -0.01491844 -0.07621335 0.03439998
v -0.01477277 -0.07572823 0.03439998
v -0.01491844 -0.07621335 0.03439998
v -0.01543271 -0.07614147 0.03439998
v -0.01543271 -0.07614147 0.03439998
v -0.01562285 -0.07600998 0.03439998
v -0.01562285 -0.07600998 0.03439998
v -0.01594817 -0.07620441 0.03439998
v -0.01562285 -0.07600998 0.03439998
v -0.01594817 -0.07620441 0.03439998
v -0.01642996 -0.07639795 0.03439998
v 0.01389366 -0.07555729 0.03439998
v 0.01444000 -0.07641512 0.03439998
v 0.01402968 -0.07673329 0.03439998
v 0.01371502 -0.07714641 0.03439998
v 0.01491844 -0.07621335 0.03439998
v 0.01477277 -0.07572823 0.03439998
v 0.01491844 -0.07621335 0.03439998
v 0.01543271 -0.07614147 0.03439998
v 0.01562285 -0.07600998 0.03439998
v 0.01594811 -0.07620441 0.03439998
v 0.01594811 -0.07620441 0.03439998
v 0.01562285 -0.07600998 0.03439998
v 0.01642996 -0.07639795 0.03439998
v -0.01344996 -0.07814139 0.03439998
v -0.01344996 -0.07814139 0.03249996
v -0.01351737 -0.07762658 0.03439998
v -0.01351737 -0.07762658 0.03249996
v -0.01371508 -0.07714641 0.03249996
v -0.01371508 -0.07714641 0.03439998
v -0.01402968 -0.07673329 0.03249996
v -0.01402968 -0.07673329 0.03439998
v -0.01444005 -0.07641512 0.03249996
v -0.01444005 -0.07641512 0.03439998
v -0.01491844 -0.07621335 0.03249996
v -0.01491844 -0.07621335 0.03439998
v -0.01543271 -0.07614147 0.03249996
v -0.01543271 -0.07614147 0.03439998
v -0.01594817 -0.07620441 0.03249996
v -0.01594817 -0.07620441 0.03439998
v -0.01642996 -0.07639795 0.03439998
v -0.01642996 -0.07639795 0.03249996
v -0.01344996 -0.08685863 0.03249996
v -0.01344996 -0.07814139 0.03249996
v -0.01344996 -0.08685863 0.03439998
v -0.01344996 -0.07814139 0.03439998
v -0.01642996 -0.08860206 0.03439998
v -0.01642996 -0.08860206 0.03249996
v -0.01594817 -0.08879560 0.03439998
v -0.01594817 -0.08879560 0.03249996
v -0.01543271 -0.08885854 0.03249996
v -0.01543271 -0.08885854 0.03439998
v -0.01491844 -0.08878672 0.03249996
v -0.01491844 -0.08878672 0.03439998
v -0.01444005 -0.08858489 0.03249996
v -0.01444005 -0.08858489 0.03439998
v -0.01402968 -0.08826673 0.03249996
v -0.01402968 -0.08826673 0.03439998
v -0.01371508 -0.08785367 0.03249996
v -0.01371508 -0.08785367 0.03439998
v -0.01351737 -0.08737349 0.03249996
v -0.01351737 -0.08737349 0.03439998
v -0.01344996 -0.08685863 0.03439998
v -0.01344996 -0.08685863 0.03249996
v 0.01299995 -0.07550001 0.03439998
v 0.01299995 -0.07550001 0.03729945
v 0.01389366 -0.07555729 0.03439998
v 0.01396286 -0.07556807 0.03694927
v 0.01477277 -0.07572823 0.03439998
v 0.01492792 -0.07577204 0.03657013
v 0.01562285 -0.07600998 0.03439998
v 0.01586210 -0.07611197 0.03617519
v 0.01642996 -0.07639795 0.03439998
v 0.01673549 -0.07658183 0.03577911
v 0.01642996 -0.07639795 0.03249996
v 0.01731020 -0.07698440 0.03249996
v 0.01752543 -0.07716089 0.03539901
v 0.01809203 -0.07769680 0.03249996
v 0.01821279 -0.07782846 0.03505051
v 0.01875758 -0.07851886 0.03249996
v 0.01881772 -0.07861042 0.03472930
v 0.01929169 -0.07943177 0.03249996
v 0.01932454 -0.07950001 0.03445005
v 0.01932454 -0.07950001 0.03399991
v 0.01968216 -0.08041477 0.03249996
v 0.01969701 -0.08046305 0.03399991
v 0.01992005 -0.08144533 0.03249996
v 0.01992380 -0.08147031 0.03399991
v 0.01999998 -0.08250004 0.03249996
v 0.01999998 -0.08250004 0.03399991
v 0.01992380 -0.08352971 0.03399991
v 0.01992005 -0.08355468 0.03249996
v 0.01969701 -0.08453702 0.03399991
v 0.01968216 -0.08458530 0.03249996
v 0.01932454 -0.08550000 0.03399991
v 0.01929169 -0.08556830 0.03249996
v 0.01932454 -0.08550000 0.03445005
v 0.01881772 -0.08638966 0.03472930
v 0.01875758 -0.08648121 0.03249996
v 0.01821279 -0.08717155 0.03505051
v 0.01809203 -0.08730328 0.03249996
v 0.01752543 -0.08783918 0.03539901
v 0.01731020 -0.08801561 0.03249996
v 0.01673549 -0.08841824 0.03577911
v 0.01642996 -0.08860206 0.03249996
v 0.01642996 -0.08860206 0.03439998
v 0.01586210 -0.08888810 0.03617519
v 0.01562285 -0.08899009 0.03439998
v 0.01492792 -0.08922797 0.03657013
v 0.01477277 -0.08927184 0.03439998
v 0.01396286 -0.08943200 0.03694927
v 0.01389366 -0.08944272 0.03439998
v 0.01299995 -0.08950001 0.03729945
v 0.01299995 -0.08950001 0.03439998
v 0.01642996 -0.07639795 0.03439998
v 0.01642996 -0.07639795 0.03249996
v 0.01594811 -0.07620441 0.03439998
v 0.01594811 -0.07620441 0.03249996
v 0.01543271 -0.07614147 0.03249996
v 0.01543271 -0.07614147 0.03439998
v 0.01491844 -0.07621335 0.03249996
v 0.01491844 -0.07621335 0.03439998
v 0.01444000 -0.07641512 0.03249996
v 0.01444000 -0.07641512 0.03439998
v 0.01402968 -0.07673329 0.03249996
v 0.01402968 -0.07673329 0.03439998
v 0.01371502 -0.07714641 0.03249996
v 0.01371502 -0.07714641 0.03439998
v 0.01351737 -0.07762658 0.03249996
v 0.01351737 -0.07762658 0.03439998
v 0.01344996 -0.07814139 0.03439998
v 0.01344996 -0.07814139 0.03249996
v 0.01344996 -0.08685863 0.03439998
v 0.01344996 -0.07814139 0.03439998
v 0.01344996 -0.08685863 0.03249996
v 0.01344996 -0.07814139 0.03249996
v 0.01344996 -0.08685863 0.03439998
v 0.01344996 -0.08685863 0.03249996
v 0.01351737 -0.08737349 0.03439998
v 0.01351737 -0.08737349 0.03249996
v 0.01371502 -0.08785367 0.03249996
v 0.01371502 -0.08785367 0.03439998
v 0.01402968 -0.08826673 0.03249996
v 0.01402968 -0.08826673 0.03439998
v 0.01444000 -0.08858489 0.03249996
v 0.01444000 -0.08858489 0.03439998
v 0.01491844 -0.08878672 0.03249996
v 0.01491844 -0.08878672 0.03439998
v 0.01543271 -0.08885854 0.03249996
v 0.01543271 -0.08885854 0.03439998
v 0.01594811 -0.08879560 0.03249996
v 0.01594811 -0.08879560 0.03439998
v 0.01642996 -0.08860206 0.03439998
v 0.01642996 -0.08860206 0.03249996
v -0.01932454 -0.08550000 0.03445005
v -0.01855862 -0.08550000 0.03486877
v -0.01932454 -0.08550000 0.03399991
v -0.01932454 -0.08550000 0.03399991
v -0.01855862 -0.08550000 0.03486877
v -0.01699995 -0.08550000 0.03399991
v -0.01699995 -0.08550000 0.03399991
v -0.01778364 -0.08550000 0.03527021
v -0.01699995 -0.08550000 0.03565460
v 0.01070284 -0.08950001 0.03802227
v -0.01070290 -0.08950001 0.03802227
v 0.01299995 -0.08950001 0.03729945
v 0.01299995 -0.08950001 0.03729945
v -0.01070290 -0.08950001 0.03802227
v -0.01300001 -0.08950001 0.03729945
v 0.01070284 -0.08950001 0.03802227
v -0.00836599 -0.08950001 0.03860378
v -0.00836599 -0.08950001 0.03860378
v 0.00836599 -0.08950001 0.03860378
v -0.00836599 -0.08950001 0.03860378
v 0.00836599 -0.08950001 0.03860378
v -0.00599801 -0.08950001 0.03904187
v -0.00599801 -0.08950001 0.03904187
v 0.00599801 -0.08950001 0.03904187
v -0.00599801 -0.08950001 0.03904187
v 0.00599801 -0.08950001 0.03904187
v -0.00360775 -0.08950001 0.03933483
v -0.00360775 -0.08950001 0.03933483
v 0.00599801 -0.08950001 0.03904187
v 0.00360775 -0.08950001 0.03933483
v -0.00360775 -0.08950001 0.03933483
v 0.00360775 -0.08950001 0.03933483
v -0.00120407 -0.08950001 0.03948163
v -0.00120407 -0.08950001 0.03948163
v 0.00360775 -0.08950001 0.03933483
v 0.00120401 -0.08950001 0.03948163
v 0.01699995 -0.08550000 0.03565460
v 0.01778364 -0.08550000 0.03527021
v 0.01699995 -0.08550000 0.03399991
v 0.01855862 -0.08550000 0.03486877
v 0.01932454 -0.08550000 0.03399991
v 0.01932454 -0.08550000 0.03445005
v 0.01699995 -0.07950001 0.03565460
v 0.01645207 -0.07955127 0.03591048
v 0.01633238 -0.07957524 0.03399991
v 0.01590013 -0.07970893 0.03615844
v 0.01569831 -0.07979714 0.03399991
v 0.01538085 -0.07997542 0.03638225
v 0.01512950 -0.08015453 0.03399991
v 0.01492506 -0.08033341 0.03657162
v 0.01465445 -0.08062952 0.03399991
v 0.01454609 -0.08077555 0.03672409
v 0.01429706 -0.08119839 0.03399991
v 0.01424694 -0.08130812 0.03684109
v 0.01407516 -0.08183246 0.03399991
v 0.01406180 -0.08189827 0.03691238
v 0.01399993 -0.08250004 0.03399991
v 0.01399993 -0.08250004 0.03693568
v 0.01406180 -0.08310180 0.03691238
v 0.01407516 -0.08316761 0.03399991
v 0.01424694 -0.08369195 0.03684109
v 0.01429706 -0.08380168 0.03399991
v 0.01454609 -0.08422452 0.03672409
v 0.01465445 -0.08437049 0.03399991
v 0.01492506 -0.08466660 0.03657162
v 0.01512950 -0.08484554 0.03399991
v 0.01538085 -0.08502465 0.03638225
v 0.01569831 -0.08520293 0.03399991
v 0.01590013 -0.08529108 0.03615844
v 0.01633238 -0.08542484 0.03399991
v 0.01645207 -0.08544880 0.03591048
v 0.01699995 -0.08550000 0.03399991
v 0.01699995 -0.08550000 0.03565460
v -0.01351737 -0.08737349 0.03249996
v -0.01371508 -0.08785367 0.03249996
v -0.01344996 -0.08685863 0.03249996
v -0.01402968 -0.08826673 0.03249996
v -0.01444005 -0.08858489 0.03249996
v -0.01491844 -0.08878672 0.03249996
v -0.01543271 -0.08885854 0.03249996
v -0.01594817 -0.08879560 0.03249996
v -0.01642996 -0.08860206 0.03249996
v -0.01344996 -0.07814139 0.03249996
v -0.01642996 -0.07639795 0.03249996
v -0.01594817 -0.07620441 0.03249996
v -0.01731020 -0.08801561 0.03249996
v -0.01731020 -0.07698440 0.03249996
v -0.01809203 -0.08730328 0.03249996
v -0.01809203 -0.07769680 0.03249996
v -0.01875758 -0.08648121 0.03249996
v -0.01875758 -0.07851886 0.03249996
v -0.01929169 -0.08556830 0.03249996
v -0.01929169 -0.07943177 0.03249996
v -0.01968216 -0.08458530 0.03249996
v -0.01968216 -0.08041477 0.03249996
v -0.01968216 -0.08041477 0.03249996
v -0.01968216 -0.08458530 0.03249996
v -0.01992011 -0.08355468 0.03249996
v -0.01968216 -0.08041477 0.03249996
v -0.01992011 -0.08355468 0.03249996
v -0.01992011 -0.08144533 0.03249996
v -0.01992011 -0.08144533 0.03249996
v -0.01992011 -0.08355468 0.03249996
v -0.01999998 -0.08250004 0.03249996
v -0.01543271 -0.07614147 0.03249996
v -0.01491844 -0.07621335 0.03249996
v -0.01444005 -0.07641512 0.03249996
v -0.01402968 -0.07673329 0.03249996
v -0.01371508 -0.07714641 0.03249996
v -0.01344996 -0.07814139 0.03249996
v -0.01371508 -0.07714641 0.03249996
v -0.01351737 -0.07762658 0.03249996
v 0.01594811 -0.08879560 0.03249996
v 0.01344996 -0.08685863 0.03249996
v 0.01642996 -0.08860206 0.03249996
v 0.01344996 -0.07814139 0.03249996
v 0.01642996 -0.07639795 0.03249996
v 0.01594811 -0.07620441 0.03249996
v 0.01543271 -0.07614147 0.03249996
v 0.01491844 -0.07621335 0.03249996
v 0.01444000 -0.07641512 0.03249996
v 0.01402968 -0.07673329 0.03249996
v 0.01371502 -0.07714641 0.03249996
v 0.01371502 -0.07714641 0.03249996
v 0.01344996 -0.07814139 0.03249996
v 0.01351737 -0.07762658 0.03249996
v 0.01543271 -0.08885854 0.03249996
v 0.01491844 -0.08878672 0.03249996
v 0.01444000 -0.08858489 0.03249996
v 0.01402968 -0.08826673 0.03249996
v 0.01371502 -0.08785367 0.03249996
v 0.01351737 -0.08737349 0.03249996
v 0.01731020 -0.08801561 0.03249996
v 0.01731020 -0.07698440 0.03249996
v 0.01809203 -0.08730328 0.03249996
v 0.01809203 -0.07769680 0.03249996
v 0.01875758 -0.08648121 0.03249996
v 0.01875758 -0.07851886 0.03249996
v 0.01929169 -0.08556830 0.03249996
v 0.01929169 -0.07943177 0.03249996
v 0.01968216 -0.08458530 0.03249996
v 0.01968216 -0.08041477 0.03249996
v 0.01968216 -0.08458530 0.03249996
v 0.01968216 -0.08041477 0.03249996
v 0.01992005 -0.08355468 0.03249996
v 0.01992005 -0.08355468 0.03249996
v 0.01968216 -0.08041477 0.03249996
v 0.01992005 -0.08144533 0.03249996
v 0.01992005 -0.08355468 0.03249996
v 0.01992005 -0.08144533 0.03249996
v 0.01999998 -0.08250004 0.03249996
f 1 2 3
f 3 2 4
f 3 4 5
f 5 4 6
f 5 6 7
f 7 6 8
f 7 8 9
f 9 8 10
f 9 10 11
f 11 10 12
f 11 12 13
f 13 12 14
f 13 14 15
f 15 14 16
f 15 16 17
f 17 16 18
f 17 18 19
f 19 18 20
f 19 20 21
f 21 20 22
f 21 22 23
f 23 22 24
f 23 24 25
f 25 24 26
f 26 24 27
f 26 27 28
f 28 27 29
f 29 27 30
f 30 27 31
f 31 27 32
f 31 32 33
f 33 32 34
f 34 32 35
f 34 35 36
f 36 35 37
f 37 35 38
f 37 38 39
f 39 38 40
f 39 40 41
f 41 40 42
f 41 42 43
f 43 42 44
f 43 44 45
f 28 46 26
f 26 46 47
f 26 47 48
f 26 48 49
f 49 48 50
f 49 50 51
f 49 51 52
f 52 51 53
f 52 53 54
f 52 54 55
f 55 54 56
f 55 56 57
f 57 56 58
f 57 58 59
f 59 58 60
f 59 60 61
f 61 60 62
f 3 63 1
f 1 63 64
f 1 64 65
f 66 67 63
f 63 67 68
f 63 68 69
f 70 71 66
f 66 71 72
f 66 72 67
f 73 74 70
f 70 74 75
f 70 75 71
f 74 73 76
f 76 73 77
f 76 77 78
f 78 77 79
f 78 79 80
f 80 79 81
f 80 81 82
f 69 64 63
f 65 83 1
f 1 83 84
f 1 84 85
f 85 84 86
f 85 86 87
f 85 87 88
f 88 87 89
f 88 89 90
f 88 90 91
f 91 90 92
f 91 92 93
f 93 92 94
f 93 94 95
f 95 94 96
f 95 96 97
f 97 96 98
f 99 100 101
f 101 100 102
f 101 102 103
f 103 102 104
f 103 104 105
f 105 104 106
f 105 106 107
f 107 106 108
f 107 108 109
f 109 108 110
f 110 108 111
f 110 111 112
f 112 111 113
f 112 113 114
f 114 113 115
f 114 115 116
f 116 115 117
f 116 117 118
f 101 119 99
f 99 119 120
f 120 119 121
f 120 121 122
f 122 121 123
f 122 123 124
f 124 123 125
f 125 123 126
f 125 126 127
f 127 126 128
f 127 128 129
f 129 128 130
f 129 130 131
f 131 130 132
f 132 130 133
f 132 133 134
f 134 133 135
f 134 135 136
f 136 135 137
f 136 137 138
f 138 137 139
f 138 139 140
f 138 140 141
f 141 140 142
f 141 142 143
f 143 142 144
f 143 144 145
f 145 144 146
f 145 146 147
f 147 146 148
f 149 150 151
f 151 150 152
f 151 152 153
f 154 155 153
f 153 155 156
f 153 156 157
f 154 158 155
f 155 158 159
f 157 160 153
f 153 160 161
f 153 161 162
f 162 163 153
f 153 163 164
f 153 164 165
f 165 166 153
f 153 166 167
f 153 167 168
f 168 169 153
f 153 169 170
f 153 170 151
f 171 172 173
f 174 175 176
f 173 177 178
f 178 177 179
f 180 181 182
f 182 181 183
f 183 181 184
f 183 184 185
f 185 184 186
f 185 186 187
f 187 186 188
f 187 188 189
f 189 188 190
f 189 190 191
f 191 190 192
f 191 192 193
f 193 192 194
f 193 194 195
f 195 194 196
f 195 196 197
f 195 197 198
f 198 197 199
f 198 199 200
f 200 199 201
f 200 201 202
f 202 201 203
f 202 203 204
f 204 203 205
f 204 205 206
f 206 205 207
f 206 207 208
f 208 207 209
f 208 209 173
f 173 209 210
f 211 212 213
f 213 212 214
f 215 216 217
f 214 218 219
f 220 221 222
f 222 221 223
f 222 223 224
f 225 226 224
f 224 226 227
f 224 227 228
f 225 229 226
f 226 229 230
f 228 231 224
f 224 231 232
f 224 232 233
f 233 234 224
f 224 234 235
f 224 235 236
f 236 237 224
f 224 237 238
f 224 238 239
f 239 240 224
f 224 240 241
f 224 241 222
f 242 243 244
f 245 246 247
f 245 247 248
f 248 247 249
f 250 251 252
f 253 242 254
f 255 256 257
f 258 254 259
f 260 261 262
f 263 264 265
f 266 267 268
f 269 270 271
f 272 273 274
f 274 273 275
f 275 273 276
f 277 278 279
f 280 276 281
f 280 281 282
f 282 281 283
f 282 283 284
f 284 283 285
f 285 283 286
f 286 283 287
f 286 287 288
f 289 290 291
f 292 287 293
f 293 287 294
f 294 287 295
f 294 295 296
f 296 295 297
f 296 297 298
f 298 297 299
f 300 301 302
f 303 299 304
f 286 288 305
f 305 288 306
f 305 306 307
f 307 306 308
f 307 308 309
f 309 308 310
f 309 310 311
f 311 310 312
f 313 314 315
f 312 316 317
f 317 318 312
f 313 318 319
f 320 318 321
f 320 321 322
f 322 323 324
f 322 325 326
f 327 324 328
f 329 330 331
f 332 333 311
f 311 333 334
f 311 334 335
f 333 332 336
f 336 332 337
f 338 337 339
f 339 337 340
f 339 340 341
f 342 343 344
f 335 309 311
f 345 346 347
f 347 346 348
f 347 348 349
f 347 349 350
f 350 349 351
f 350 351 352
f 352 351 353
f 352 353 354
f 354 353 355
f 354 355 356
f 356 355 357
f 356 357 358
f 358 357 359
f 358 359 360
f 360 359 361
f 361 359 362
f 363 364 365
f 365 364 366
f 367 368 369
f 369 368 370
f 369 370 371
f 369 371 372
f 372 371 373
f 372 373 374
f 374 373 375
f 374 375 376
f 376 375 377
f 376 377 378
f 378 377 379
f 378 379 380
f 380 379 381
f 380 381 382
f 382 381 383
f 383 381 384
f 385 386 387
f 387 386 388
f 387 388 389
f 389 388 390
f 389 390 391
f 391 390 392
f 391 392 393
f 393 392 394
f 393 394 395
f 395 394 396
f 396 394 397
f 396 397 398
f 398 397 399
f 398 399 400
f 400 399 401
f 400 401 402
f 402 401 403
f 402 403 404
f 402 404 405
f 405 404 406
f 405 406 407
f 407 406 408
f 407 408 409
f 409 408 410
f 409 410 411
f 409 411 412
f 412 411 413
f 412 413 414
f 414 413 415
f 414 415 416
f 416 415 417
f 416 417 418
f 416 418 419
f 419 418 420
f 419 420 421
f 421 420 422
f 421 422 423
f 423 422 424
f 423 424 425
f 425 424 426
f 426 424 427
f 426 427 428
f 428 427 429
f 428 429 430
f 430 429 431
f 430 431 432
f 432 431 433
f 432 433 434
f 435 436 437
f 437 436 438
f 437 438 439
f 437 439 440
f 440 439 441
f 440 441 442
f 442 441 443
f 442 443 444
f 444 443 445
f 444 445 446
f 446 445 447
f 446 447 448
f 448 447 449
f 448 449 450
f 450 449 451
f 451 449 452
f 453 454 455
f 455 454 456
f 457 458 459
f 459 458 460
f 459 460 461
f 459 461 462
f 462 461 463
f 462 463 464
f 464 463 465
f 464 465 466
f 466 465 467
f 466 467 468
f 468 467 469
f 468 469 470
f 470 469 471
f 470 471 472
f 472 471 473
f 473 471 474
f 475 476 477
f 478 479 480
f 481 476 482
f 481 482 483
f 484 485 486
f 487 488 489
f 487 489 434
f 434 489 148
f 488 490 491
f 492 484 493
f 494 495 496
f 497 493 498
f 499 500 501
f 502 503 504
f 505 506 507
f 508 509 510
f 511 512 513
f 513 512 514
f 513 514 515
f 515 514 516
f 517 518 214
f 214 518 519
f 519 518 520
f 519 520 521
f 521 520 522
f 521 522 523
f 523 522 524
f 523 524 525
f 525 524 526
f 525 526 527
f 527 526 528
f 527 528 529
f 529 528 530
f 529 530 531
f 531 530 532
f 531 532 533
f 531 533 534
f 534 533 535
f 534 535 536
f 536 535 537
f 536 537 538
f 538 537 539
f 538 539 540
f 540 539 541
f 540 541 542
f 542 541 543
f 542 543 544
f 544 543 545
f 544 545 546
f 546 545 547
f 548 549 550
f 550 549 551
f 550 551 552
f 552 553 550
f 550 553 554
f 550 554 555
f 555 556 550
f 550 556 557
f 557 556 558
f 557 558 559
f 556 560 558
f 558 560 561
f 561 560 562
f 561 562 563
f 563 562 564
f 563 564 565
f 565 564 566
f 565 566 567
f 567 566 568
f 567 568 569
f 570 571 572
f 573 574 575
f 576 577 578
f 559 579 557
f 557 579 580
f 557 580 581
f 581 582 557
f 557 582 583
f 584 585 586
f 587 588 589
f 589 588 590
f 589 590 591
f 591 590 592
f 592 590 593
f 593 590 594
f 594 590 595
f 595 590 596
f 596 590 597
f 598 599 600
f 587 601 588
f 588 601 602
f 588 602 603
f 603 604 588
f 588 604 605
f 588 605 606
f 589 591 607
f 607 591 608
f 607 608 609
f 609 608 610
f 609 610 611
f 611 610 612
f 611 612 613
f 613 612 614
f 613 614 615
f 615 614 616
f 617 618 619
f 620 621 622
f 623 624 625

