# https://github.com/mikedh/trimesh
v -0.00012500 0.03834968 -0.05539989
v 0.00000000 0.03834992 -0.05539989
v 0.00000000 -0.03835004 -0.05539989
v 0.00000000 -0.03835004 -0.05539989
v 0.00000000 0.03834992 -0.05539989
v 0.00024998 0.03834909 -0.05539989
v 0.00000000 -0.03835004 -0.05539989
v 0.00024998 0.03834909 -0.05539989
v 0.00049995 0.03834664 -0.05539989
v 0.00000000 -0.03835004 -0.05539989
v 0.00049995 0.03834664 -0.05539989
v 0.00374335 -0.03816688 -0.05539989
v 0.00424063 0.03811472 -0.05539989
v 0.00745100 -0.03761923 -0.05539989
v 0.00794083 0.03751879 -0.05539989
v 0.01108753 -0.03671228 -0.05539989
v 0.01156520 0.03656446 -0.05539989
v 0.01461809 -0.03545469 -0.05539989
v 0.01507908 0.03526097 -0.05539989
v 0.01800912 -0.03385847 -0.05539989
v 0.01844894 0.03362071 -0.05539989
v 0.02122807 -0.03193891 -0.05539989
v 0.02164262 0.03165930 -0.05539989
v 0.02424430 -0.02971422 -0.05539989
v 0.02462965 0.02939552 -0.05539989
v 0.02702897 -0.02720582 -0.05539989
v 0.02738136 0.02685099 -0.05539989
v 0.02955549 -0.02443754 -0.05539989
v 0.02987158 0.02405005 -0.05539989
v 0.03179973 -0.02143585 -0.05539989
v 0.03207653 0.02101939 -0.05539989
v 0.03374028 -0.01822948 -0.05539989
v 0.03374028 -0.01822948 -0.05539989
v 0.03397506 0.01778799 -0.05539989
v 0.03535854 -0.01484900 -0.05539989
v 0.03554916 0.01438665 -0.05539989
v 0.03663915 -0.01132667 -0.05539989
v 0.03678369 0.01084792 -0.05539989
v 0.03756982 -0.00769615 -0.05539989
v 0.03766691 0.00720561 -0.05539989
v 0.03756982 -0.00769615 -0.05539989
v 0.03766691 0.00720561 -0.05539989
v 0.03814160 -0.00399214 -0.05539989
v 0.03814160 -0.00399214 -0.05539989
v 0.03819042 0.00349444 -0.05539989
v 0.03834915 -0.00025004 -0.05539989
v -0.00374341 -0.03816688 -0.05539989
v -0.00049996 0.03834664 -0.05539989
v 0.00000000 -0.03835004 -0.05539989
v -0.00049996 0.03834664 -0.05539989
v -0.00037498 0.03834807 -0.05539989
v -0.00037498 0.03834807 -0.05539989
v -0.00024999 0.03834909 -0.05539989
v -0.00424063 0.03811472 -0.05539989
v -0.00745106 -0.03761923 -0.05539989
v -0.00794083 0.03751879 -0.05539989
v -0.01108753 -0.03671228 -0.05539989
v -0.01156520 0.03656446 -0.05539989
v -0.01461815 -0.03545469 -0.05539989
v -0.01507908 0.03526097 -0.05539989
v -0.01800912 -0.03385847 -0.05539989
v -0.01844900 0.03362071 -0.05539989
v -0.02122807 -0.03193891 -0.05539989
v -0.02164268 0.03165930 -0.05539989
v -0.02424430 -0.02971422 -0.05539989
v -0.02462965 0.02939552 -0.05539989
v -0.02702897 -0.02720582 -0.05539989
v -0.02738136 0.02685099 -0.05539989
v -0.02955549 -0.02443754 -0.05539989
v -0.02987158 0.02405005 -0.05539989
v -0.03179979 -0.02143585 -0.05539989
v -0.03207653 0.02101939 -0.05539989
v -0.03207653 0.02101939 -0.05539989
v -0.03374028 -0.01822948 -0.05539989
v -0.03374028 -0.01822948 -0.05539989
v -0.03397506 0.01778799 -0.05539989
v -0.03535860 -0.01484900 -0.05539989
v -0.03554916 0.01438665 -0.05539989
v -0.03663915 -0.01132667 -0.05539989
v -0.03678369 0.01084792 -0.05539989
v -0.03756982 -0.00769615 -0.05539989
v -0.03766697 0.00720561 -0.05539989
v -0.03766697 0.00720561 -0.05539989
v -0.03756982 -0.00769615 -0.05539989
v -0.03814160 -0.00399214 -0.05539989
v -0.03766697 0.00720561 -0.05539989
v -0.03814160 -0.00399214 -0.05539989
v -0.03819042 0.00349444 -0.05539989
v -0.03819042 0.00349444 -0.05539989
v -0.03814160 -0.00399214 -0.05539989
v -0.03834915 -0.00025004 -0.05539989
v -0.00024999 0.03834909 -0.05539989
v -0.00012500 0.03834968 -0.05539989
v 0.00049999 -0.03854680 -0.05489349
v 0.00049999 -0.03854680 -0.05519986
v 0.00448310 -0.03828847 -0.05486297
v 0.00463045 -0.03827095 -0.05519986
v 0.00841886 -0.03761953 -0.05486035
v 0.00870752 -0.03755372 -0.05519986
v 0.01226466 -0.03654700 -0.05486857
v 0.01268416 -0.03640353 -0.05519986
v 0.01509571 -0.03547143 -0.05487161
v 0.01651459 -0.03483349 -0.05519986
v 0.01875114 -0.03368228 -0.05487060
v 0.02015453 -0.03286176 -0.05519986
v 0.02219766 -0.03151774 -0.05487024
v 0.02356213 -0.03051114 -0.05519986
v 0.02539682 -0.02900183 -0.05486965
v 0.02669793 -0.02780866 -0.05519986
v 0.02743411 -0.02708268 -0.05486798
v 0.02952593 -0.02478551 -0.05519986
v 0.03011065 -0.02407181 -0.05486679
v 0.03201341 -0.02147656 -0.05519986
v 0.03245842 -0.02079784 -0.05486887
v 0.03413176 -0.01791995 -0.05519986
v 0.03445178 -0.01729673 -0.05487316
v 0.03585654 -0.01415669 -0.05519986
v 0.03566396 -0.01463502 -0.05487608
v 0.03699290 -0.01084560 -0.05487650
v 0.03716778 -0.01023018 -0.05519986
v 0.03781175 -0.00750816 -0.05487620
v 0.03805047 -0.00618565 -0.05519986
v 0.03836500 -0.00377184 -0.05488169
v 0.03849434 -0.00206989 -0.05519986
v 0.03854995 -0.00000000 -0.05489987
v 0.03849434 0.00206977 -0.05519986
v 0.03854995 -0.00000128 -0.05252850
v 0.03834265 0.00399268 -0.04519987
v 0.03855001 -0.00000476 -0.04519987
v 0.03805047 0.00618553 -0.05519986
v 0.03772205 0.00794637 -0.04519987
v 0.03716778 0.01023006 -0.05519986
v 0.03669494 0.01181441 -0.04519987
v 0.03585654 0.01415657 -0.05519986
v 0.03527235 0.01555508 -0.04519987
v 0.03413176 0.01791983 -0.05519986
v 0.03346955 0.01912814 -0.04519987
v 0.03201341 0.02147644 -0.05519986
v 0.03130608 0.02249503 -0.04519987
v 0.02952593 0.02478539 -0.05519986
v 0.02880519 0.02561944 -0.04519987
v 0.02669793 0.02780854 -0.05519986
v 0.02599388 0.02846777 -0.04519987
v 0.02356213 0.03051102 -0.05519986
v 0.02290236 0.03100931 -0.04519987
v 0.02015453 0.03286164 -0.05519986
v 0.01956403 0.03321659 -0.04519987
v 0.01651459 0.03483337 -0.05519986
v 0.01601487 0.03506594 -0.04519987
v 0.01268416 0.03640341 -0.05519986
v 0.01229310 0.03653728 -0.04519987
v 0.00870752 0.03755360 -0.05519986
v 0.00843882 0.03761494 -0.04519987
v 0.00463045 0.03827083 -0.05519986
v 0.00449359 0.03828710 -0.04519987
v 0.00050000 0.03854668 -0.05519986
v 0.00050000 0.03854668 -0.04519987
v 0.03854995 -0.00000371 -0.04760390
v 0.03854995 -0.00000255 -0.05006617
v 0.00049995 0.03834664 -0.04499983
v 0.00000000 0.03834992 -0.04499983
v -0.00050001 -0.04197102 -0.04499983
v -0.00050001 -0.04197102 -0.04499983
v 0.00000000 0.03834992 -0.04499983
v -0.00049996 0.03834664 -0.04499983
v -0.00050001 -0.04197102 -0.04499983
v -0.00049996 0.03834664 -0.04499983
v -0.00422555 0.03811639 -0.04499983
v -0.03834998 -0.00000685 -0.04499983
v -0.00791109 0.03752505 -0.04499983
v -0.01152169 0.03657823 -0.04499983
v -0.01502317 0.03528487 -0.04499983
v -0.01838231 0.03365719 -0.04499983
v -0.02156728 0.03171068 -0.04499983
v -0.02454799 0.02946376 -0.04499983
v -0.02729612 0.02693772 -0.04499983
v -0.02978563 0.02415645 -0.04499983
v -0.03199297 0.02114635 -0.04499983
v -0.03389722 0.01793593 -0.04499983
v -0.03548032 0.01455557 -0.04499983
v -0.03672730 0.01103729 -0.04499983
v -0.03834998 -0.00000685 -0.04499983
v -0.03672730 0.01103729 -0.04499983
v -0.03762638 0.00741452 -0.04499983
v -0.03834998 -0.00000685 -0.04499983
v -0.03762638 0.00741452 -0.04499983
v -0.03816896 0.00372142 -0.04499983
v -0.03838682 -0.00399500 -0.04499983
v -0.00871271 -0.04103642 -0.04499983
v -0.00517970 -0.04166555 -0.04499983
v -0.00344020 -0.04185146 -0.04499983
v -0.03817921 -0.00789499 -0.04499983
v -0.03751921 -0.01200866 -0.04499983
v -0.03838682 -0.00399500 -0.04499983
v -0.03751921 -0.01200866 -0.04499983
v -0.03655123 -0.01559728 -0.04499983
v -0.03838682 -0.00399500 -0.04499983
v -0.03655123 -0.01559728 -0.04499983
v -0.03651571 -0.01570689 -0.04499983
v -0.03651571 -0.01570689 -0.04499983
v -0.03569233 -0.01798450 -0.04499983
v -0.03838682 -0.00399500 -0.04499983
v -0.03569233 -0.01798450 -0.04499983
v -0.03472894 -0.02019900 -0.04499983
v -0.03472894 -0.02019900 -0.04499983
v -0.03325515 -0.02300393 -0.04499983
v -0.03204357 -0.02495270 -0.04499983
v -0.03071057 -0.02683293 -0.04499983
v -0.02868431 -0.02929526 -0.04499983
v -0.02606207 -0.03194898 -0.04499983
v -0.02282297 -0.03460776 -0.04499983
v -0.02061784 -0.03610777 -0.04499983
v -0.01855856 -0.03731793 -0.04499983
v -0.01595616 -0.03861486 -0.04499983
v -0.01224118 -0.04005897 -0.04499983
v -0.00050001 -0.04198038 -0.04499983
v 0.00345045 -0.04185283 -0.04499995
v 0.01152110 0.03657841 -0.04499983
v -0.00050001 -0.04197102 -0.04499983
v 0.01152110 0.03657841 -0.04499983
v 0.00791067 0.03752517 -0.04499983
v 0.00422531 0.03811645 -0.04499983
v 0.00345045 -0.04185283 -0.04499995
v 0.01502239 0.03528517 -0.04499983
v 0.01502239 0.03528517 -0.04499983
v 0.00345045 -0.04185283 -0.04499995
v 0.00725073 -0.04134714 -0.04499983
v 0.00725073 -0.04134714 -0.04499983
v 0.00924301 -0.04092019 -0.04499983
v 0.01219063 -0.04007905 -0.04499983
v 0.01838135 0.03365772 -0.04499983
v 0.02156627 0.03171139 -0.04499983
v 0.01506686 -0.03900253 -0.04499983
v 0.02454680 0.02946472 -0.04499983
v 0.02729487 0.02693891 -0.04499983
v 0.02978438 0.02415794 -0.04499983
v 0.03199177 0.02114814 -0.04499983
v 0.03389608 0.01793801 -0.04499983
v 0.03547936 0.01455795 -0.04499983
v 0.03672653 0.01103997 -0.04499983
v 0.03762578 0.00741744 -0.04499983
v 0.03816866 0.00372463 -0.04499983
v 0.03835034 -0.00000343 -0.04499983
v 0.03838074 -0.00388420 -0.04499983
v 0.03838074 -0.00388420 -0.04499983
v 0.01506686 -0.03900253 -0.04499983
v 0.01522040 -0.03893750 -0.04499983
v 0.01522040 -0.03893750 -0.04499983
v 0.01880365 -0.03718429 -0.04499983
v 0.02217936 -0.03506916 -0.04499983
v 0.03838074 -0.00388420 -0.04499983
v 0.02217936 -0.03506916 -0.04499983
v 0.02222502 -0.03503704 -0.04499983
v 0.02222502 -0.03503704 -0.04499983
v 0.02540069 -0.03253972 -0.04499983
v 0.02829968 -0.02971792 -0.04499983
v 0.02833682 -0.02967762 -0.04499983
v 0.03089809 -0.02658164 -0.04499983
v 0.03311294 -0.02324658 -0.04499983
v 0.03838074 -0.00388420 -0.04499983
v 0.03311294 -0.02324658 -0.04499983
v 0.03319615 -0.02310490 -0.04499983
v 0.03319615 -0.02310490 -0.04499983
v 0.03499317 -0.01963007 -0.04499983
v 0.03499317 -0.01963007 -0.04499983
v 0.03642582 -0.01597923 -0.04499983
v 0.03838074 -0.00388420 -0.04499983
v 0.03642582 -0.01597923 -0.04499983
v 0.03651225 -0.01571750 -0.04499983
v 0.03651225 -0.01571750 -0.04499983
v 0.03753024 -0.01195114 -0.04499983
v 0.03753024 -0.01195114 -0.04499983
v 0.03815752 -0.00809968 -0.04499983
v 0.03838074 -0.00388420 -0.04499983
v 0.03838074 -0.00388420 -0.04499983
v 0.03815752 -0.00809968 -0.04499983
v 0.03819549 -0.00773793 -0.04499983
v 0.00049995 0.03834664 -0.04499983
v -0.00424594 -0.03831475 -0.05485564
v -0.00050001 -0.03854674 -0.05489253
v -0.00292742 -0.03846865 -0.05307936
v -0.00050001 -0.03855091 -0.05340802
v -0.00050001 -0.03855299 -0.05267649
v -0.00294608 -0.03848385 -0.05212324
v -0.00050001 -0.03855472 -0.05211317
v -0.00295538 -0.03849166 -0.05164533
v -0.00050001 -0.03855639 -0.05164563
v -0.00050001 -0.03855758 -0.05132502
v -0.00297397 -0.03850668 -0.05069059
v -0.00050001 -0.03855901 -0.05067181
v -0.00298792 -0.03851509 -0.04997253
v -0.00050001 -0.03855830 -0.04994946
v -0.00050001 -0.03865182 -0.04911863
v -0.00050001 -0.03903388 -0.04832547
v -0.00302052 -0.03899043 -0.04836302
v -0.00300354 -0.03861486 -0.04915004
v -0.00547051 -0.03830915 -0.04999572
v -0.00544655 -0.03829288 -0.05070936
v -0.00541472 -0.03826755 -0.05165845
v -0.00539881 -0.03825449 -0.05213361
v -0.00536692 -0.03822898 -0.05308395
v -0.00622153 -0.03804385 -0.05484783
v -0.00778472 -0.03783494 -0.05308878
v -0.00818443 -0.03767037 -0.05485302
v -0.00858050 -0.03758209 -0.05485546
v -0.01017111 -0.03728872 -0.05309385
v -0.00897264 -0.03749042 -0.05485808
v -0.00912738 -0.03745311 -0.05485868
v -0.00941807 -0.03738111 -0.05485957
v -0.00995594 -0.03724163 -0.05486142
v -0.01095038 -0.03696185 -0.05486369
v -0.01260215 -0.03656363 -0.05309933
v -0.01154106 -0.03678196 -0.05486434
v -0.01224178 -0.03655511 -0.05486524
v -0.01322841 -0.03621006 -0.05486798
v -0.01497769 -0.03567951 -0.05310529
v -0.01427417 -0.03581070 -0.05487161
v -0.01519805 -0.03542828 -0.05487346
v -0.01688671 -0.03465461 -0.05487072
v -0.01841437 -0.03406232 -0.05311489
v -0.01765346 -0.03427028 -0.05486631
v -0.01804262 -0.03406697 -0.05486434
v -0.01872301 -0.03369760 -0.05486232
v -0.01953971 -0.03323036 -0.05486065
v -0.02167123 -0.03211361 -0.05312591
v -0.02064621 -0.03255414 -0.05485916
v -0.02128249 -0.03214180 -0.05485850
v -0.02179950 -0.03179347 -0.05485808
v -0.02251458 -0.03129136 -0.05485790
v -0.02471679 -0.02985477 -0.05313837
v -0.02346980 -0.03058177 -0.05485868
v -0.02408748 -0.03009790 -0.05486005
v -0.02434474 -0.02989029 -0.05486094
v -0.02480328 -0.02951097 -0.05486297
v -0.02569425 -0.02873867 -0.05486679
v -0.02751970 -0.02730703 -0.05315244
v -0.02644199 -0.02805227 -0.05486965
v -0.02697861 -0.02753651 -0.05487102
v -0.02737057 -0.02714693 -0.05487132
v -0.02776753 -0.02674072 -0.05487042
v -0.02846264 -0.02599960 -0.05486768
v -0.03005057 -0.02449309 -0.05316859
v -0.02990078 -0.02433180 -0.05485975
v -0.03022813 -0.02392375 -0.05485838
v -0.03074920 -0.02324986 -0.05485731
v -0.03228729 -0.02144271 -0.05318677
v -0.03139948 -0.02236342 -0.05485683
v -0.03215801 -0.02125787 -0.05485713
v -0.03292614 -0.02004790 -0.05485820
v -0.03420919 -0.01818764 -0.05320739
v -0.03350555 -0.01906418 -0.05485975
v -0.03394037 -0.01827937 -0.05486142
v -0.03417986 -0.01782786 -0.05486309
v -0.03446620 -0.01726788 -0.05486583
v -0.03485411 -0.01647120 -0.05486887
v -0.03579550 -0.01475977 -0.05323058
v -0.03563338 -0.01471108 -0.05486983
v -0.03604567 -0.01366990 -0.05486816
v -0.03635019 -0.01283735 -0.05486816
v -0.03702843 -0.01119160 -0.05325633
v -0.03660464 -0.01209145 -0.05486875
v -0.03694498 -0.01100748 -0.05486387
v -0.03739500 -0.00936299 -0.05486220
v -0.03746449 -0.00908053 -0.05486172
v -0.03749251 -0.00896418 -0.05486142
v -0.03789865 -0.00751895 -0.05328518
v -0.03755122 -0.00871485 -0.05486017
v -0.03778040 -0.00766081 -0.05485546
v -0.03814303 -0.00558132 -0.05485576
v -0.03839927 -0.00377911 -0.05331695
v -0.03837859 -0.00362289 -0.05487042
v -0.03844791 -0.00279432 -0.05487775
v -0.03850400 -0.00187498 -0.05488431
v -0.03854995 -0.00000128 -0.05252379
v -0.03854995 -0.00000000 -0.05489987
v -0.00302887 -0.03926932 -0.04803568
v -0.00050001 -0.03958600 -0.04774475
v -0.00303429 -0.03953039 -0.04778087
v -0.00304437 -0.04004013 -0.04728102
v -0.00557470 -0.03980225 -0.04731291
v -0.00559521 -0.04030269 -0.04680526
v -0.00810999 -0.03988277 -0.04683333
v -0.00818974 -0.04117375 -0.04547297
v -0.01069247 -0.04054588 -0.04548931
v -0.00881666 -0.04116475 -0.04533350
v -0.01204764 -0.04028147 -0.04532968
v -0.00050001 -0.04211795 -0.04534494
v -0.00305474 -0.04055380 -0.04677808
v -0.00564915 -0.04163241 -0.04545760
v -0.00548381 -0.04176986 -0.04533809
v -0.00308210 -0.04191845 -0.04544323
v -0.00375467 -0.04196578 -0.04534071
v -0.01323598 -0.03971952 -0.04550731
v -0.01368463 -0.03971540 -0.04532772
v -0.01571381 -0.03871846 -0.04552656
v -0.01597988 -0.03877609 -0.04532378
v -0.01928102 -0.03690034 -0.04555755
v -0.01961505 -0.03690773 -0.04531520
v -0.02263778 -0.03472489 -0.04559111
v -0.02286607 -0.03478562 -0.04530650
v -0.02513653 -0.03299909 -0.04529935
v -0.02575039 -0.03221833 -0.04562711
v -0.02621668 -0.03204548 -0.04529553
v -0.02858513 -0.02940684 -0.04566526
v -0.02875304 -0.02948939 -0.04528498
v -0.03058487 -0.02730125 -0.04527628
v -0.03110957 -0.02631860 -0.04570525
v -0.03144311 -0.02615112 -0.04527187
v -0.03329980 -0.02298861 -0.04574626
v -0.03344154 -0.02306181 -0.04526060
v -0.03513497 -0.01945328 -0.04578733
v -0.03502511 -0.02002292 -0.04524976
v -0.03570830 -0.01846444 -0.04524439
v -0.03659403 -0.01574921 -0.04582792
v -0.03668874 -0.01581043 -0.04523587
v -0.03765982 -0.01191478 -0.04586684
v -0.03773033 -0.01197111 -0.04522460
v -0.03832042 -0.00799221 -0.04590374
v -0.03836792 -0.00800735 -0.04521387
v -0.03856945 -0.00402319 -0.04593807
v -0.03858679 -0.00399500 -0.04520457
v -0.03855001 -0.00000476 -0.04519987
v -0.03855001 -0.00000371 -0.04760223
v -0.03853142 -0.00392795 -0.04755812
v -0.03822672 -0.00780421 -0.04750347
v -0.03819161 -0.00773370 -0.04810345
v -0.03746789 -0.01152265 -0.04803878
v -0.03741562 -0.01141571 -0.04863095
v -0.03628677 -0.01507437 -0.04855662
v -0.03625375 -0.01500177 -0.04884964
v -0.03474283 -0.01850777 -0.04877042
v -0.03621935 -0.01493525 -0.04915601
v -0.03470194 -0.01842272 -0.04907923
v -0.03615075 -0.01484376 -0.04979670
v -0.03462076 -0.01830500 -0.04973173
v -0.03608304 -0.01481205 -0.05044901
v -0.03454166 -0.01826262 -0.05039697
v -0.03601664 -0.01480060 -0.05109113
v -0.03446489 -0.01824605 -0.05104565
v -0.03592818 -0.01478433 -0.05194681
v -0.03436261 -0.01822280 -0.05191022
v -0.03431147 -0.01821100 -0.05234265
v -0.03239881 -0.02147340 -0.05231302
v -0.03851723 -0.00389212 -0.04816573
v -0.03854995 -0.00000255 -0.05006301
v -0.03850299 -0.00385630 -0.04877334
v -0.03849589 -0.00383830 -0.04907709
v -0.03813904 -0.00762773 -0.04900360
v -0.03848880 -0.00382191 -0.04938262
v -0.03812140 -0.00759554 -0.04930812
v -0.03847461 -0.00379944 -0.05000025
v -0.03808605 -0.00755185 -0.04993098
v -0.03846049 -0.00379169 -0.05062222
v -0.03805077 -0.00753784 -0.05056148
v -0.03844630 -0.00378895 -0.05124402
v -0.03801566 -0.00753379 -0.05119001
v -0.03842747 -0.00378501 -0.05207318
v -0.03796881 -0.00752789 -0.05202800
v -0.03794544 -0.00752491 -0.05244702
v -0.03709846 -0.01120185 -0.05240947
v -0.03841811 -0.00378305 -0.05248779
v -0.00782943 -0.03786891 -0.05214411
v -0.00785178 -0.03788620 -0.05167186
v -0.00789642 -0.03791993 -0.05072844
v -0.01022797 -0.03732937 -0.05215495
v -0.01025646 -0.03734993 -0.05168545
v -0.01031333 -0.03739041 -0.05074781
v -0.01035606 -0.03741830 -0.05004268
v -0.00792998 -0.03794270 -0.05001902
v -0.00796717 -0.03805035 -0.04921489
v -0.00549710 -0.03841370 -0.04918223
v -0.00801110 -0.03840702 -0.04844176
v -0.00552797 -0.03878080 -0.04840189
v -0.00554407 -0.03905129 -0.04807460
v -0.00555468 -0.03930556 -0.04781752
v -0.01267093 -0.03660953 -0.05216640
v -0.01270532 -0.03663265 -0.05169993
v -0.01277410 -0.03667831 -0.05076807
v -0.01505738 -0.03572887 -0.05217832
v -0.01509726 -0.03575378 -0.05171477
v -0.01517689 -0.03580290 -0.05078870
v -0.01282572 -0.03671020 -0.05006754
v -0.01288270 -0.03681921 -0.04928326
v -0.01040327 -0.03752738 -0.04924815
v -0.01294994 -0.03714936 -0.04852569
v -0.01045930 -0.03787189 -0.04848247
v -0.01048910 -0.03812265 -0.04815518
v -0.00803441 -0.03866809 -0.04811441
v -0.01050966 -0.03836095 -0.04789364
v -0.00805008 -0.03891474 -0.04785501
v -0.01054847 -0.03882753 -0.04737943
v -0.00807971 -0.03939706 -0.04734569
v -0.01058804 -0.03929728 -0.04686230
v -0.01850819 -0.03411418 -0.05219691
v -0.01855510 -0.03414028 -0.05173778
v -0.01864892 -0.03419196 -0.05082058
v -0.01523673 -0.03583765 -0.05009275
v -0.01530259 -0.03594505 -0.04931896
v -0.01537960 -0.03625947 -0.04856961
v -0.01298582 -0.03738856 -0.04819869
v -0.01301109 -0.03761762 -0.04793453
v -0.01305884 -0.03806650 -0.04741543
v -0.01310747 -0.03851830 -0.04689359
v -0.02177608 -0.03216511 -0.05221676
v -0.02182853 -0.03219103 -0.05176222
v -0.02193331 -0.03224235 -0.05085372
v -0.01871931 -0.03422874 -0.05013138
v -0.01879638 -0.03433144 -0.04937374
v -0.02482926 -0.02990347 -0.05223810
v -0.02488553 -0.02992796 -0.05178785
v -0.02499794 -0.02997648 -0.05088818
v -0.02201199 -0.03227901 -0.05017119
v -0.02209746 -0.03237462 -0.04942977
v -0.01888495 -0.03461998 -0.04863739
v -0.01542067 -0.03648626 -0.04824322
v -0.01545017 -0.03670543 -0.04797679
v -0.01550614 -0.03713542 -0.04745268
v -0.01556318 -0.03756803 -0.04692596
v -0.02763611 -0.02735096 -0.05226099
v -0.02769428 -0.02737307 -0.05181533
v -0.03016674 -0.02453082 -0.05228602
v -0.03022485 -0.02454984 -0.05184477
v -0.02781069 -0.02741682 -0.05092436
v -0.02508240 -0.03001123 -0.05021250
v -0.02517324 -0.03009784 -0.04948711
v -0.02219378 -0.03263539 -0.04870706
v -0.01893198 -0.03482717 -0.04831218
v -0.01896697 -0.03503042 -0.04804229
v -0.01903373 -0.03542995 -0.04751080
v -0.01910161 -0.03583163 -0.04697674
v -0.03588396 -0.01477611 -0.05237472
v -0.03245460 -0.02148884 -0.05187636
v -0.03256607 -0.02151942 -0.05100291
v -0.03264975 -0.02154123 -0.05034738
v -0.03273689 -0.02159494 -0.04966825
v -0.03282779 -0.02174007 -0.04900282
v -0.03287392 -0.02184432 -0.04869091
v -0.03478097 -0.01859962 -0.04848080
v -0.03635251 -0.01521891 -0.04797208
v -0.03752022 -0.01162964 -0.04744625
v -0.03713351 -0.01120698 -0.05198591
v -0.03034102 -0.02458745 -0.05096262
v -0.02789801 -0.02744823 -0.05025541
v -0.02799111 -0.02752447 -0.04954600
v -0.02527362 -0.03032976 -0.04877883
v -0.02224463 -0.03282213 -0.04838359
v -0.02228379 -0.03300827 -0.04811030
v -0.02235913 -0.03337520 -0.04757136
v -0.02243554 -0.03374385 -0.04703003
v -0.03720355 -0.01121723 -0.05113905
v -0.03042817 -0.02461433 -0.05030041
v -0.03052002 -0.02467942 -0.04960632
v -0.03061753 -0.02485293 -0.04892683
v -0.03066748 -0.02497714 -0.04861170
v -0.03291553 -0.02195560 -0.04840451
v -0.03485667 -0.01878243 -0.04790389
v -0.03641837 -0.01536351 -0.04738706
v -0.03725612 -0.01122432 -0.05050379
v -0.03730928 -0.01124644 -0.04986310
v -0.02809184 -0.02772700 -0.04885202
v -0.02532613 -0.03049552 -0.04845744
v -0.02536821 -0.03066378 -0.04818099
v -0.02544963 -0.03099620 -0.04763454
v -0.02553200 -0.03132987 -0.04708582
v -0.03736275 -0.01131314 -0.04923248
v -0.02814400 -0.02787178 -0.04853361
v -0.03071087 -0.02510774 -0.04832851
v -0.03299766 -0.02217674 -0.04783535
v -0.03493261 -0.01896542 -0.04732614
v -0.03738945 -0.01136207 -0.04892760
v -0.02818751 -0.02802145 -0.04825377
v -0.02827233 -0.02831780 -0.04769986
v -0.02835786 -0.02861505 -0.04714399
v -0.03815656 -0.00766313 -0.04870343
v -0.03079599 -0.02536684 -0.04776698
v -0.03308016 -0.02239823 -0.04726499
v -0.03088170 -0.02562654 -0.04720395
v 0.03836500 -0.00377184 -0.05488169
v 0.03854995 -0.00000000 -0.05489987
v 0.03839915 -0.00377905 -0.05332225
v 0.03854995 -0.00000128 -0.05252850
v 0.03841799 -0.00378299 -0.05249249
v 0.03842735 -0.00378501 -0.05207759
v 0.03824567 -0.00566226 -0.05205470
v 0.03827911 -0.00566691 -0.05122065
v 0.03801542 -0.00753379 -0.05119413
v 0.03805053 -0.00753784 -0.05056518
v 0.03725582 -0.01122426 -0.05050748
v 0.03730899 -0.01124620 -0.04986643
v 0.03615039 -0.01484346 -0.04980009
v 0.03736245 -0.01131272 -0.04923522
v 0.03621906 -0.01493471 -0.04915893
v 0.03625345 -0.01500117 -0.04885202
v 0.03554397 -0.01677310 -0.04881268
v 0.03557986 -0.01685535 -0.04852110
v 0.03478068 -0.01859891 -0.04848295
v 0.03485643 -0.01878184 -0.04790568
v 0.03299736 -0.02217602 -0.04783719
v 0.03307992 -0.02239763 -0.04726636
v 0.03088146 -0.02562588 -0.04720532
v 0.03110945 -0.02631843 -0.04570567
v 0.02858501 -0.02940660 -0.04566574
v 0.02881973 -0.02941530 -0.04528468
v 0.02684181 -0.03145748 -0.04529291
v 0.03844624 -0.00378895 -0.05124801
v 0.03854995 -0.00000255 -0.05006617
v 0.03846037 -0.00379169 -0.05062574
v 0.03847455 -0.00379932 -0.05000346
v 0.03832942 -0.00568074 -0.04996871
v 0.03848874 -0.00382179 -0.04938536
v 0.03835469 -0.00571352 -0.04934829
v 0.03836727 -0.00573772 -0.04904311
v 0.03813886 -0.00762749 -0.04900604
v 0.03815644 -0.00766289 -0.04870569
v 0.03741538 -0.01141530 -0.04863321
v 0.03746771 -0.01152235 -0.04804056
v 0.03635227 -0.01521843 -0.04797393
v 0.03641819 -0.01536315 -0.04738843
v 0.03572243 -0.01718300 -0.04735821
v 0.03591275 -0.01761996 -0.04580825
v 0.03513491 -0.01945316 -0.04578793
v 0.03506857 -0.01992458 -0.04524886
v 0.03349763 -0.02295786 -0.04525923
v 0.03854995 -0.00000371 -0.04760390
v 0.03850293 -0.00385618 -0.04877561
v 0.03849583 -0.00383818 -0.04907953
v 0.03855001 -0.00000476 -0.04519987
v 0.03856945 -0.00402319 -0.04593855
v 0.03853142 -0.00392783 -0.04755961
v 0.03851717 -0.00389200 -0.04816770
v 0.03843015 -0.00587034 -0.04753261
v 0.03840500 -0.00581735 -0.04813688
v 0.03822660 -0.00780404 -0.04750502
v 0.03819149 -0.00773346 -0.04810541
v 0.03752005 -0.01162934 -0.04744780
v 0.03858667 -0.00406611 -0.04520475
v 0.03849738 -0.00601155 -0.04592174
v 0.03837400 -0.00795007 -0.04521375
v 0.03832036 -0.00799215 -0.04590421
v 0.03818076 -0.00948161 -0.04521757
v 0.03765976 -0.01191467 -0.04586726
v 0.03765648 -0.01230245 -0.04522532
v 0.03671175 -0.01573997 -0.04523569
v 0.03659397 -0.01574909 -0.04582840
v 0.03618323 -0.01725304 -0.04524046
v 0.03329974 -0.02298843 -0.04574674
v 0.03128296 -0.02637082 -0.04527235
v 0.02575027 -0.03221809 -0.04562759
v 0.02523726 -0.03291022 -0.04529857
v 0.02263772 -0.03472459 -0.04559153
v 0.02227461 -0.03520488 -0.04530745
v 0.01928097 -0.03689998 -0.04555797
v 0.01951462 -0.03696548 -0.04531508
v 0.01603329 -0.03875207 -0.04532378
v 0.01571375 -0.03871810 -0.04552704
v 0.01450276 -0.03940117 -0.04532665
v 0.01206260 -0.04012471 -0.04549926
v 0.01196712 -0.04030960 -0.04533046
v 0.00842834 -0.04125505 -0.04533505
v 0.00828332 -0.04115307 -0.04547393
v 0.00700128 -0.04153579 -0.04533690
v 0.00441587 -0.04179149 -0.04545086
v 0.00413096 -0.04193204 -0.04534083
v 0.00049999 -0.04211795 -0.04534494
v 0.00049999 -0.04063171 -0.04675322
v 0.00437456 -0.04044353 -0.04679334
v 0.00820261 -0.03986281 -0.04683560
v 0.00817197 -0.03937727 -0.04734843
v 0.01190042 -0.03843969 -0.04740035
v 0.01185673 -0.03798216 -0.04791742
v 0.01544994 -0.03670382 -0.04797881
v 0.01542037 -0.03648436 -0.04824548
v 0.01893162 -0.03482544 -0.04831463
v 0.01888453 -0.03461825 -0.04864054
v 0.02219337 -0.03263390 -0.04871016
v 0.01879590 -0.03433048 -0.04937773
v 0.02209699 -0.03237372 -0.04943358
v 0.01871889 -0.03422850 -0.05013549
v 0.02201151 -0.03227877 -0.05017530
v 0.02193278 -0.03224211 -0.05085813
v 0.02499741 -0.02997624 -0.05089259
v 0.02488493 -0.02992767 -0.05179286
v 0.02769368 -0.02737283 -0.05182021
v 0.02763545 -0.02735072 -0.05226618
v 0.03016608 -0.02453064 -0.05229109
v 0.03004986 -0.02449285 -0.05317425
v 0.03228658 -0.02144253 -0.05319243
v 0.03011065 -0.02407181 -0.05486679
v 0.03245842 -0.02079784 -0.05486887
v 0.00435895 -0.03993624 -0.04729902
v 0.00049999 -0.03958302 -0.04774564
v 0.00434363 -0.03943282 -0.04780161
v 0.00433546 -0.03917473 -0.04805815
v 0.00812602 -0.03864854 -0.04811823
v 0.00810242 -0.03838795 -0.04844647
v 0.01180028 -0.03750377 -0.04850858
v 0.00805801 -0.03803259 -0.04922038
v 0.01173812 -0.03716766 -0.04927104
v 0.00802046 -0.03792589 -0.05002421
v 0.01168555 -0.03705936 -0.05006027
v 0.01163798 -0.03702914 -0.05076307
v 0.01517653 -0.03580272 -0.05079329
v 0.01509678 -0.03575348 -0.05171978
v 0.01855456 -0.03414005 -0.05174285
v 0.01850765 -0.03411388 -0.05220210
v 0.02177548 -0.03216481 -0.05222195
v 0.02167052 -0.03211331 -0.05313181
v 0.02471607 -0.02985447 -0.05314421
v 0.02219766 -0.03151774 -0.05487024
v 0.02539682 -0.02900183 -0.05486965
v 0.00049999 -0.03903108 -0.04832839
v 0.00432301 -0.03890019 -0.04838621
v 0.00429875 -0.03852975 -0.04917097
v 0.00427741 -0.03842836 -0.04998880
v 0.00798654 -0.03790295 -0.05073374
v 0.01157456 -0.03698563 -0.05169826
v 0.01505690 -0.03572857 -0.05218368
v 0.01841378 -0.03406196 -0.05312085
v 0.01875114 -0.03368228 -0.05487060
v 0.00049999 -0.03865075 -0.04912304
v 0.00049999 -0.03855812 -0.04995375
v 0.00049999 -0.03855818 -0.05025768
v 0.00425821 -0.03841572 -0.05070495
v 0.00794142 -0.03786885 -0.05167752
v 0.01154285 -0.03696358 -0.05216640
v 0.01497715 -0.03567922 -0.05311125
v 0.01509571 -0.03547143 -0.05487161
v 0.00049999 -0.03855901 -0.05067640
v 0.00049999 -0.03855752 -0.05133712
v 0.00423270 -0.03839510 -0.05165737
v 0.00049999 -0.03855633 -0.05165648
v 0.00421989 -0.03838443 -0.05213409
v 0.00049999 -0.03855472 -0.05211883
v 0.00049999 -0.03855299 -0.05267405
v 0.00419432 -0.03836363 -0.05308789
v 0.00049999 -0.03855091 -0.05340439
v 0.00448310 -0.03828847 -0.05486297
v 0.00049999 -0.03854680 -0.05489349
v 0.00787365 -0.03781718 -0.05309504
v 0.00841886 -0.03761953 -0.05486035
v 0.01147943 -0.03691989 -0.05310267
v 0.01226466 -0.03654700 -0.05486857
v 0.02751892 -0.02730673 -0.05315822
v 0.02743411 -0.02708268 -0.05486798
v 0.03420853 -0.01818746 -0.05321300
v 0.03445178 -0.01729673 -0.05487316
v 0.03504496 -0.01649320 -0.05322414
v 0.03566396 -0.01463502 -0.05487608
v 0.03579491 -0.01475971 -0.05323606
v 0.03699290 -0.01084560 -0.05487650
v 0.03702801 -0.01119154 -0.05326181
v 0.03781175 -0.00750816 -0.05487620
v 0.03789836 -0.00751889 -0.05329054
v 0.03819549 -0.00565517 -0.05330592
v 0.03794515 -0.00752485 -0.05245190
v 0.03822892 -0.00565988 -0.05247175
v 0.03796857 -0.00752783 -0.05203258
v 0.03709805 -0.01120179 -0.05241435
v 0.03713309 -0.01120698 -0.05199062
v 0.03720325 -0.01121717 -0.05114316
v 0.03588342 -0.01477605 -0.05237960
v 0.03592771 -0.01478427 -0.05195140
v 0.03601622 -0.01480054 -0.05109524
v 0.03608262 -0.01481199 -0.05045282
v 0.03514099 -0.01651298 -0.05236327
v 0.03518897 -0.01652294 -0.05193293
v 0.03528499 -0.01654267 -0.05107218
v 0.03535705 -0.01655662 -0.05042648
v 0.03543090 -0.01659333 -0.04976743
v 0.03431087 -0.01821088 -0.05234771
v 0.03436207 -0.01822263 -0.05191493
v 0.03446441 -0.01824599 -0.05104994
v 0.03454124 -0.01826250 -0.05040079
v 0.03462034 -0.01830464 -0.04973506
v 0.03550618 -0.01669752 -0.04912048
v 0.03239816 -0.02147322 -0.05231821
v 0.03245395 -0.02148866 -0.05188107
v 0.03256553 -0.02151930 -0.05100721
v 0.03264921 -0.02154111 -0.05035120
v 0.03273642 -0.02159446 -0.04967176
v 0.03470158 -0.01842206 -0.04908215
v 0.03474247 -0.01850700 -0.04877299
v 0.02482861 -0.02990317 -0.05224329
v 0.00791883 -0.03785145 -0.05214995
v 0.03022420 -0.02454960 -0.05184948
v 0.02781009 -0.02741664 -0.05092877
v 0.02508187 -0.03001099 -0.05021649
v 0.02517277 -0.03009706 -0.04949092
v 0.02527314 -0.03032839 -0.04878169
v 0.02224427 -0.03282052 -0.04838603
v 0.01896667 -0.03502887 -0.04804426
v 0.01550596 -0.03713405 -0.04745447
v 0.01194500 -0.03890025 -0.04688018
v 0.03034043 -0.02458727 -0.05096679
v 0.03042763 -0.02461415 -0.05030423
v 0.03051954 -0.02467882 -0.04960995
v 0.03282737 -0.02173924 -0.04900556
v 0.03287357 -0.02184343 -0.04869335
v 0.03291523 -0.02195471 -0.04840666
v 0.02182793 -0.03219074 -0.05176711
v 0.01864844 -0.03419172 -0.05082499
v 0.01523637 -0.03583741 -0.05009686
v 0.01530218 -0.03594404 -0.04932308
v 0.01537919 -0.03625762 -0.04857283
v 0.01183354 -0.03774839 -0.04818081
v 0.00814199 -0.03889524 -0.04785841
v 0.03812122 -0.00759530 -0.04931086
v 0.03808587 -0.00755173 -0.04993420
v 0.03738921 -0.01136165 -0.04893004
v 0.03628647 -0.01507377 -0.04855877
v 0.03565102 -0.01701909 -0.04793989
v 0.03493243 -0.01896494 -0.04732769
v 0.03061705 -0.02485191 -0.04892975
v 0.02799057 -0.02752375 -0.04954969
v 0.02789753 -0.02744799 -0.05025935
v 0.02809137 -0.02772587 -0.04885494
v 0.03066712 -0.02497607 -0.04861414
v 0.03071057 -0.02510672 -0.04833066
v 0.03079569 -0.02536600 -0.04776883
v 0.02532571 -0.03049409 -0.04846006
v 0.02228355 -0.03300690 -0.04811245
v 0.01903349 -0.03542870 -0.04751247
v 0.01556307 -0.03756695 -0.04692715
v 0.02814358 -0.02787053 -0.04853618
v 0.02818715 -0.02802032 -0.04825592
v 0.02827203 -0.02831685 -0.04770153
v 0.02835768 -0.02861428 -0.04714536
v 0.03830426 -0.00567013 -0.05059504
v 0.02553176 -0.03132903 -0.04708725
v 0.02544933 -0.03099513 -0.04763621
v 0.02536791 -0.03066247 -0.04818296
v 0.02243536 -0.03374290 -0.04703140
v 0.02235889 -0.03337407 -0.04757320
v 0.01910138 -0.03583061 -0.04697799
v 0.03837984 -0.00576431 -0.04874098
v -0.00050000 0.03854668 -0.04519987
v -0.00050000 0.03854668 -0.05519986
v -0.00449365 0.03828710 -0.04519987
v -0.00463045 0.03827083 -0.05519986
v -0.00843894 0.03761488 -0.04519987
v -0.00870752 0.03755360 -0.05519986
v -0.01229327 0.03653728 -0.04519987
v -0.01268422 0.03640341 -0.05519986
v -0.01601505 0.03506582 -0.04519987
v -0.01651459 0.03483337 -0.05519986
v -0.01956427 0.03321647 -0.04519987
v -0.02015453 0.03286164 -0.05519986
v -0.02290260 0.03100913 -0.04519987
v -0.02356213 0.03051102 -0.05519986
v -0.02599412 0.02846753 -0.04519987
v -0.02669793 0.02780854 -0.05519986
v -0.02880549 0.02561914 -0.04519987
v -0.02952593 0.02478539 -0.05519986
v -0.03130638 0.02249461 -0.04519987
v -0.03201341 0.02147644 -0.05519986
v -0.03346985 0.01912766 -0.04519987
v -0.03413176 0.01791983 -0.05519986
v -0.03527253 0.01555454 -0.04519987
v -0.03585654 0.01415657 -0.05519986
v -0.03669512 0.01181381 -0.04519987
v -0.03716778 0.01023006 -0.05519986
v -0.03772222 0.00794572 -0.04519987
v -0.03805047 0.00618553 -0.05519986
v -0.03834271 0.00399196 -0.04519987
v -0.03849434 0.00206977 -0.05519986
v -0.03855001 -0.00000476 -0.04519987
v -0.03854995 -0.00000000 -0.05489987
v -0.03854995 -0.00000128 -0.05252379
v -0.03849434 -0.00206989 -0.05519986
v -0.03850400 -0.00187498 -0.05488431
v -0.03844791 -0.00279432 -0.05487775
v -0.03837859 -0.00362289 -0.05487042
v -0.03805047 -0.00618565 -0.05519986
v -0.03814303 -0.00558132 -0.05485576
v -0.03778040 -0.00766081 -0.05485546
v -0.03755122 -0.00871485 -0.05486017
v -0.03716778 -0.01023018 -0.05519986
v -0.03749251 -0.00896418 -0.05486142
v -0.03746449 -0.00908053 -0.05486172
v -0.03739500 -0.00936299 -0.05486220
v -0.03694498 -0.01100748 -0.05486387
v -0.03660464 -0.01209145 -0.05486875
v -0.03585654 -0.01415669 -0.05519986
v -0.03635019 -0.01283735 -0.05486816
v -0.03604567 -0.01366990 -0.05486816
v -0.03563338 -0.01471108 -0.05486983
v -0.03485411 -0.01647120 -0.05486887
v -0.03413176 -0.01791995 -0.05519986
v -0.03446620 -0.01726788 -0.05486583
v -0.03417986 -0.01782786 -0.05486309
v -0.03394037 -0.01827937 -0.05486142
v -0.03350555 -0.01906418 -0.05485975
v -0.03292614 -0.02004790 -0.05485820
v -0.03201341 -0.02147656 -0.05519986
v -0.03215801 -0.02125787 -0.05485713
v -0.03139948 -0.02236342 -0.05485683
v -0.03074920 -0.02324986 -0.05485731
v -0.02952593 -0.02478551 -0.05519986
v -0.03022813 -0.02392375 -0.05485838
v -0.02990078 -0.02433180 -0.05485975
v -0.02846264 -0.02599960 -0.05486768
v -0.02669793 -0.02780866 -0.05519986
v -0.02776753 -0.02674072 -0.05487042
v -0.02737057 -0.02714693 -0.05487132
v -0.02697861 -0.02753651 -0.05487102
v -0.02644199 -0.02805227 -0.05486965
v -0.02569425 -0.02873867 -0.05486679
v -0.02480328 -0.02951097 -0.05486297
v -0.02356213 -0.03051114 -0.05519986
v -0.02434474 -0.02989029 -0.05486094
v -0.02408748 -0.03009790 -0.05486005
v -0.02346980 -0.03058177 -0.05485868
v -0.02251458 -0.03129136 -0.05485790
v -0.02179950 -0.03179347 -0.05485808
v -0.02015453 -0.03286176 -0.05519986
v -0.02128249 -0.03214180 -0.05485850
v -0.02064621 -0.03255414 -0.05485916
v -0.01953971 -0.03323036 -0.05486065
v -0.01872301 -0.03369760 -0.05486232
v -0.01804262 -0.03406697 -0.05486434
v -0.01651459 -0.03483349 -0.05519986
v -0.01765346 -0.03427028 -0.05486631
v -0.01688671 -0.03465461 -0.05487072
v -0.01519805 -0.03542828 -0.05487346
v -0.01427417 -0.03581070 -0.05487161
v -0.01268422 -0.03640353 -0.05519986
v -0.01322841 -0.03621006 -0.05486798
v -0.01224178 -0.03655511 -0.05486524
v -0.01154106 -0.03678196 -0.05486434
v -0.01095038 -0.03696185 -0.05486369
v -0.00870752 -0.03755372 -0.05519986
v -0.00995594 -0.03724163 -0.05486142
v -0.00941807 -0.03738111 -0.05485957
v -0.00912738 -0.03745311 -0.05485868
v -0.00897264 -0.03749042 -0.05485808
v -0.00858050 -0.03758209 -0.05485546
v -0.00818443 -0.03767037 -0.05485302
v -0.00622153 -0.03804385 -0.05484783
v -0.00463045 -0.03827095 -0.05519986
v -0.00424594 -0.03831475 -0.05485564
v -0.00050001 -0.03854680 -0.05519986
v -0.00050001 -0.03854674 -0.05489253
v -0.03854995 -0.00000255 -0.05006301
v -0.03855001 -0.00000371 -0.04760223
v -0.00050000 0.03834992 -0.05539989
v -0.00050000 0.03844851 -0.05537199
v -0.00050000 0.03834992 -0.04499983
v -0.00050000 0.03844851 -0.04502773
v -0.00050000 0.03852039 -0.05529886
v -0.00050000 0.03852039 -0.04510080
v -0.00050000 0.03854668 -0.04519987
v -0.00050000 0.03854668 -0.05519986
v 0.00050000 0.03854668 -0.04519987
v 0.00050000 0.03854668 -0.05519986
v 0.00050000 0.03852039 -0.04510080
v 0.00050000 0.03852039 -0.05529886
v 0.00050000 0.03844851 -0.05537199
v 0.00050000 0.03844851 -0.04502773
v 0.00050000 0.03834992 -0.05539989
v 0.00050000 0.03834992 -0.04499983
v 0.00050000 0.03834992 -0.04499983
v 0.00050000 0.03834992 -0.05539989
v 0.00000000 0.03834992 -0.04499983
v 0.00000000 0.03834992 -0.05539989
v -0.00050000 0.03834992 -0.05539989
v -0.00050000 0.03834992 -0.04499983
v -0.00022853 -0.04215621 -0.04511898
v -0.00050001 -0.04215359 -0.04512143
v 0.00000000 -0.04166114 -0.04558575
v 0.00000000 -0.04166114 -0.04558575
v -0.00050001 -0.04215359 -0.04512143
v -0.00050001 -0.04160439 -0.04563915
v 0.00000000 -0.04166114 -0.04558575
v -0.00050001 -0.04160439 -0.04563915
v -0.00050001 -0.04141610 -0.04581660
v -0.00050001 -0.04113328 -0.04608303
v 0.00000000 -0.03985327 -0.04728698
v 0.00049999 -0.04010081 -0.04705429
v 0.00000000 -0.03950452 -0.04761469
v 0.00049999 -0.03903317 -0.04808878
v 0.00000000 -0.03903722 -0.04808408
v 0.00000000 -0.03867214 -0.04864162
v -0.00050001 -0.03905504 -0.04806333
v -0.00050001 -0.03863877 -0.04871273
v -0.00050001 -0.04013150 -0.04702544
v 0.00000000 -0.03846043 -0.04927349
v -0.00050001 -0.03843384 -0.04943740
v 0.00000000 -0.03840148 -0.04992675
v -0.00050001 -0.03841131 -0.05242580
v 0.00000000 -0.03841096 -0.05250865
v -0.00050001 -0.03841006 -0.05305981
v -0.00050001 -0.03841125 -0.05391108
v -0.00050001 -0.03841227 -0.05538874
v 0.00049999 -0.03841227 -0.05538874
v 0.00049999 -0.03841120 -0.05244779
v 0.00049999 -0.03842872 -0.04947751
v 0.00049999 -0.03862512 -0.04874354
v 0.00049999 -0.04215717 -0.04511809
v 0.00000000 -0.04166114 -0.04558575
v 0.00049999 -0.04215717 -0.04511809
v -0.00022853 -0.04215621 -0.04511898
v 0.00049999 -0.04215717 -0.04511809
v 0.00034691 -0.04215770 -0.04511761
v -0.00022853 -0.04215621 -0.04511898
v 0.00019792 -0.04215782 -0.04511743
v -0.00050001 -0.03854680 -0.05519986
v -0.00050001 -0.03848254 -0.05534678
v -0.00050001 -0.03854674 -0.05489253
v -0.00050001 -0.03841227 -0.05538874
v -0.00050001 -0.03841125 -0.05391108
v -0.00050001 -0.03852999 -0.05527997
v -0.00050001 -0.03855091 -0.05340802
v -0.00050001 -0.03841006 -0.05305981
v -0.00050001 -0.03855299 -0.05267649
v -0.00050001 -0.03841131 -0.05242580
v -0.00050001 -0.03855472 -0.05211317
v -0.00050001 -0.03855639 -0.05164563
v -0.00050001 -0.03855758 -0.05132502
v -0.00050001 -0.03855901 -0.05067181
v -0.00050001 -0.03843384 -0.04943740
v -0.00050001 -0.03855830 -0.04994946
v -0.00050001 -0.03865182 -0.04911863
v -0.00050001 -0.03863877 -0.04871273
v -0.00050001 -0.03903388 -0.04832547
v -0.00050001 -0.03905504 -0.04806333
v -0.00050001 -0.03958600 -0.04774475
v -0.00050001 -0.04013150 -0.04702544
v -0.00050001 -0.04113328 -0.04608303
v -0.00050001 -0.04211795 -0.04534494
v -0.00050001 -0.04141610 -0.04581660
v -0.00050001 -0.04160439 -0.04563915
v -0.00050001 -0.04215359 -0.04512143
v -0.00050001 -0.04217660 -0.04523813
v -0.00050001 -0.04216253 -0.04511743
v -0.00050001 -0.04211038 -0.04505783
v -0.00050001 -0.04216253 -0.04511743
v -0.00050001 -0.04211038 -0.04505783
v -0.00050001 -0.04208886 -0.04503184
v -0.00050001 -0.04208886 -0.04503184
v -0.00050001 -0.04204636 -0.04501521
v -0.00050001 -0.04208886 -0.04503184
v -0.00050001 -0.04204636 -0.04501521
v -0.00050001 -0.04204767 -0.04501157
v -0.00050001 -0.04204767 -0.04501157
v -0.00050001 -0.04198038 -0.04499983
v -0.00050001 -0.04197102 -0.04499983
v 0.00049999 -0.04010081 -0.04705429
v 0.00049999 -0.04063171 -0.04675322
v 0.00049999 -0.04215717 -0.04511809
v 0.00049999 -0.04215717 -0.04511809
v 0.00049999 -0.04063171 -0.04675322
v 0.00049999 -0.04211795 -0.04534494
v 0.00049999 -0.04215717 -0.04511809
v 0.00049999 -0.04211795 -0.04534494
v 0.00049999 -0.04215979 -0.04527556
v 0.00049999 -0.03958302 -0.04774564
v 0.00049999 -0.03903317 -0.04808878
v 0.00049999 -0.03903108 -0.04832839
v 0.00049999 -0.03862512 -0.04874354
v 0.00049999 -0.03865075 -0.04912304
v 0.00049999 -0.03842872 -0.04947751
v 0.00049999 -0.03855812 -0.04995375
v 0.00049999 -0.03855818 -0.05025768
v 0.00049999 -0.03855901 -0.05067640
v 0.00049999 -0.03841120 -0.05244779
v 0.00049999 -0.03855752 -0.05133712
v 0.00049999 -0.03855633 -0.05165648
v 0.00049999 -0.03855472 -0.05211883
v 0.00049999 -0.03855299 -0.05267405
v 0.00049999 -0.03855091 -0.05340439
v 0.00049999 -0.03841227 -0.05538874
v 0.00049999 -0.03854680 -0.05489349
v 0.00049999 -0.03848254 -0.05534678
v 0.00049999 -0.03854680 -0.05519986
v 0.00049999 -0.03852999 -0.05527997
v 0.00049999 -0.04215979 -0.04527556
v 0.00049999 -0.04217463 -0.04519653
v 0.00049999 -0.04215979 -0.04527556
v 0.00049999 -0.04211795 -0.04534494
v 0.00342309 -0.04204338 -0.04525142
v 0.00413096 -0.04193204 -0.04534083
v 0.00728589 -0.04153662 -0.04524654
v 0.00700128 -0.04153579 -0.04533690
v 0.00842834 -0.04125505 -0.04533505
v 0.01127046 -0.04057341 -0.04524046
v 0.01196712 -0.04030960 -0.04533046
v 0.01514333 -0.03918421 -0.04523313
v 0.01450276 -0.03940117 -0.04532665
v 0.01603329 -0.03875207 -0.04532378
v 0.01882731 -0.03739815 -0.04522502
v 0.01951462 -0.03696548 -0.04531508
v 0.02229380 -0.03523230 -0.04521602
v 0.02227461 -0.03520488 -0.04530745
v 0.02523726 -0.03291022 -0.04529857
v 0.02553224 -0.03269028 -0.04520612
v 0.02684181 -0.03145748 -0.04529291
v 0.02848392 -0.02981305 -0.04519557
v 0.02881973 -0.02941530 -0.04528468
v 0.03110802 -0.02663326 -0.04518473
v 0.03128296 -0.02637082 -0.04527235
v 0.03336727 -0.02320492 -0.04517394
v 0.03349763 -0.02295786 -0.04525923
v 0.03506857 -0.01992458 -0.04524886
v 0.03522890 -0.01958560 -0.04516357
v 0.03618323 -0.01725304 -0.04524046
v 0.03601229 -0.01770532 -0.04515850
v 0.03669714 -0.01577782 -0.04515361
v 0.03597503 -0.01769089 -0.04507446
v 0.03665834 -0.01576519 -0.04507201
v 0.03590637 -0.01766443 -0.04501754
v 0.03658908 -0.01574259 -0.04501688
v 0.03642582 -0.01597923 -0.04499983
v 0.03651225 -0.01571750 -0.04499983
v 0.03717046 -0.01377761 -0.04501646
v 0.03753024 -0.01195114 -0.04499983
v 0.03764617 -0.01178187 -0.04501599
v 0.03801387 -0.00976729 -0.04501551
v 0.03808355 -0.00977802 -0.04506528
v 0.03834074 -0.00775248 -0.04506343
v 0.03838390 -0.00775683 -0.04513639
v 0.03854781 -0.00504375 -0.04513168
v 0.03837400 -0.00795007 -0.04521375
v 0.03858667 -0.00406611 -0.04520475
v 0.03671175 -0.01573997 -0.04523569
v 0.03728032 -0.01380699 -0.04514890
v 0.03724008 -0.01379621 -0.04506969
v 0.03765648 -0.01230245 -0.04522532
v 0.03775733 -0.01180523 -0.04514449
v 0.03771591 -0.01179641 -0.04506742
v 0.03818076 -0.00948161 -0.04521757
v 0.03812599 -0.00978464 -0.04514032
v 0.03856563 -0.00232601 -0.04512798
v 0.03855001 -0.00000476 -0.04519987
v 0.03852355 -0.00000254 -0.04509991
v 0.03852117 -0.00232571 -0.04505932
v 0.03845036 -0.00000292 -0.04502665
v 0.03845316 -0.00232750 -0.04501414
v 0.03835034 -0.00000343 -0.04499983
v 0.03838074 -0.00388420 -0.04499983
v 0.03843504 -0.00504011 -0.04501444
v 0.03819549 -0.00773793 -0.04499983
v 0.03827124 -0.00774556 -0.04501509
v 0.03815752 -0.00809968 -0.04499983
v 0.03499317 -0.01963007 -0.04499983
v 0.03512555 -0.01953917 -0.04501795
v 0.03519344 -0.01956957 -0.04507702
v 0.03327018 -0.02314817 -0.04501920
v 0.03319615 -0.02310490 -0.04499983
v 0.03311294 -0.02324658 -0.04499983
v 0.03101867 -0.02656722 -0.04502040
v 0.03089809 -0.02658164 -0.04499983
v 0.02833682 -0.02967762 -0.04499983
v 0.02840352 -0.02973908 -0.04502165
v 0.02829968 -0.02971792 -0.04499983
v 0.02540069 -0.03253972 -0.04499983
v 0.02546185 -0.03260982 -0.04502284
v 0.02222502 -0.03503704 -0.04499983
v 0.02223396 -0.03514695 -0.04502391
v 0.02217936 -0.03506916 -0.04499983
v 0.01880365 -0.03718429 -0.04499983
v 0.01877814 -0.03730934 -0.04502487
v 0.01522040 -0.03893750 -0.04499983
v 0.01510506 -0.03909331 -0.04502576
v 0.01506686 -0.03900253 -0.04499983
v 0.01219063 -0.04007905 -0.04499983
v 0.01124298 -0.04048156 -0.04502665
v 0.00924301 -0.04092019 -0.04499983
v 0.00726885 -0.04144483 -0.04502731
v 0.00725073 -0.04134714 -0.04499983
v 0.00345045 -0.04185283 -0.04499995
v -0.00050001 -0.04197102 -0.04499983
v -0.00050001 -0.04204636 -0.04501521
v 0.00341582 -0.04195249 -0.04502791
v 0.00728399 -0.04152637 -0.04512161
v 0.01126682 -0.04056066 -0.04511809
v -0.00050001 -0.04211038 -0.04505783
v 0.00049999 -0.04215717 -0.04511809
v 0.00342244 -0.04203546 -0.04512435
v 0.00049999 -0.04217463 -0.04519653
v -0.00050001 -0.04215359 -0.04512143
v -0.00022853 -0.04215621 -0.04511898
v 0.00019792 -0.04215782 -0.04511743
v 0.00034691 -0.04215770 -0.04511761
v 0.03850370 -0.00504142 -0.04506117
v 0.03333574 -0.02318644 -0.04508239
v 0.03108096 -0.02661305 -0.04508787
v 0.02846139 -0.02979236 -0.04509353
v 0.02551454 -0.03266972 -0.04509913
v 0.02228027 -0.03521305 -0.04510450
v 0.01881760 -0.03738069 -0.04510939
v 0.01513689 -0.03916895 -0.04511398
v 0.00000000 0.03834992 -0.04499983
v 0.00049995 0.03834664 -0.04499983
v 0.00050000 0.03834992 -0.04499983
v 0.00422531 0.03811645 -0.04499983
v 0.00401938 0.03823924 -0.04502665
v 0.00799477 0.03760957 -0.04502665
v 0.00801003 0.03768116 -0.04509991
v 0.01190519 0.03663736 -0.04509991
v 0.00843882 0.03761494 -0.04519987
v 0.01229310 0.03653728 -0.04519987
v 0.01566994 0.03519213 -0.04509991
v 0.01601487 0.03506594 -0.04519987
v 0.01926290 0.03336119 -0.04509991
v 0.01956403 0.03321659 -0.04519987
v 0.02264487 0.03116476 -0.04509991
v 0.02290236 0.03100931 -0.04519987
v 0.02577865 0.02862679 -0.04509991
v 0.02599388 0.02846777 -0.04519987
v 0.02862995 0.02577513 -0.04509991
v 0.02880519 0.02561944 -0.04519987
v 0.03116756 0.02264100 -0.04509991
v 0.03130608 0.02249503 -0.04519987
v 0.03336364 0.01925879 -0.04509991
v 0.03346955 0.01912814 -0.04519987
v 0.03519409 0.01566559 -0.04509991
v 0.03527235 0.01555508 -0.04519987
v 0.03663885 0.01190066 -0.04509991
v 0.03669494 0.01181441 -0.04519987
v 0.03768217 0.00800538 -0.04509991
v 0.03772205 0.00794637 -0.04519987
v 0.03831487 0.00400072 -0.04509991
v 0.03834265 0.00399268 -0.04519987
v 0.03852355 -0.00000254 -0.04509991
v 0.03855001 -0.00000476 -0.04519987
v 0.00791067 0.03752517 -0.04499983
v 0.01152110 0.03657841 -0.04499983
v 0.01188254 0.03656774 -0.04502665
v 0.01502239 0.03528517 -0.04499983
v 0.01564013 0.03512525 -0.04502665
v 0.01838135 0.03365772 -0.04499983
v 0.01922631 0.03329783 -0.04502665
v 0.02156627 0.03171139 -0.04499983
v 0.02260184 0.03110551 -0.04502665
v 0.02454680 0.02946472 -0.04499983
v 0.02572965 0.02857238 -0.04502665
v 0.02729487 0.02693891 -0.04499983
v 0.02857553 0.02572613 -0.04502665
v 0.02978438 0.02415794 -0.04499983
v 0.03110831 0.02259796 -0.04502665
v 0.03199177 0.02114814 -0.04499983
v 0.03330022 0.01922219 -0.04502665
v 0.03389608 0.01793801 -0.04499983
v 0.03512722 0.01563578 -0.04502665
v 0.03547936 0.01455795 -0.04499983
v 0.03656923 0.01187807 -0.04502665
v 0.03672653 0.01103997 -0.04499983
v 0.03761059 0.00799012 -0.04502665
v 0.03762578 0.00741744 -0.04499983
v 0.03824090 0.00400388 -0.04502665
v 0.03816866 0.00372463 -0.04499983
v 0.03845036 -0.00000292 -0.04502665
v 0.03835034 -0.00000343 -0.04499983
v 0.00449359 0.03828710 -0.04519987
v 0.00402707 0.03831207 -0.04509991
v 0.00050000 0.03844851 -0.04502773
v 0.00050000 0.03854668 -0.04519987
v 0.00050000 0.03852039 -0.04510080
v -0.00050000 0.03844851 -0.04502773
v -0.00401956 0.03823924 -0.04502665
v -0.00050000 0.03834992 -0.04499983
v -0.00422555 0.03811639 -0.04499983
v -0.00049996 0.03834664 -0.04499983
v -0.00402719 0.03831201 -0.04509991
v -0.00050000 0.03852039 -0.04510080
v -0.00050000 0.03854668 -0.04519987
v -0.00449365 0.03828710 -0.04519987
v -0.00801027 0.03768110 -0.04509991
v -0.00799507 0.03760951 -0.04502665
v -0.01188296 0.03656762 -0.04502665
v -0.01152169 0.03657823 -0.04499983
v -0.01502317 0.03528487 -0.04499983
v -0.01564067 0.03512501 -0.04502665
v -0.01838231 0.03365719 -0.04499983
v -0.01922696 0.03329747 -0.04502665
v -0.02156728 0.03171068 -0.04499983
v -0.02260249 0.03110504 -0.04502665
v -0.02454799 0.02946376 -0.04499983
v -0.02573043 0.02857172 -0.04502665
v -0.02729612 0.02693772 -0.04499983
v -0.02857631 0.02572530 -0.04502665
v -0.02978563 0.02415645 -0.04499983
v -0.03110909 0.02259695 -0.04502665
v -0.03199297 0.02114635 -0.04499983
v -0.03330093 0.01922100 -0.04502665
v -0.03389722 0.01793593 -0.04499983
v -0.03512781 0.01563441 -0.04502665
v -0.03548032 0.01455557 -0.04499983
v -0.03656977 0.01187646 -0.04502665
v -0.03672730 0.01103729 -0.04499983
v -0.03761100 0.00798833 -0.04502665
v -0.03762638 0.00741452 -0.04499983
v -0.03824108 0.00400233 -0.04502665
v -0.03816896 0.00372142 -0.04499983
v -0.03845000 -0.00000582 -0.04502665
v -0.03834998 -0.00000685 -0.04499983
v -0.00843894 0.03761488 -0.04519987
v -0.01190561 0.03663724 -0.04509991
v -0.01229327 0.03653728 -0.04519987
v -0.01567041 0.03519189 -0.04509991
v -0.01601505 0.03506582 -0.04519987
v -0.01926356 0.03336083 -0.04509991
v -0.01956427 0.03321647 -0.04519987
v -0.02264553 0.03116422 -0.04509991
v -0.02290260 0.03100913 -0.04519987
v -0.02577942 0.02862608 -0.04509991
v -0.02599412 0.02846753 -0.04519987
v -0.02863073 0.02577430 -0.04509991
v -0.02880549 0.02561914 -0.04519987
v -0.03116828 0.02263998 -0.04509991
v -0.03130638 0.02249461 -0.04519987
v -0.03336429 0.01925760 -0.04509991
v -0.03346985 0.01912766 -0.04519987
v -0.03519469 0.01566416 -0.04509991
v -0.03527253 0.01555454 -0.04519987
v -0.03663939 0.01189905 -0.04509991
v -0.03669512 0.01181381 -0.04519987
v -0.03768259 0.00800353 -0.04509991
v -0.03772222 0.00794572 -0.04519987
v -0.03831499 0.00399959 -0.04509991
v -0.03834271 0.00399196 -0.04519987
v -0.03852319 -0.00000505 -0.04509991
v -0.03855001 -0.00000476 -0.04519987
v -0.00791109 0.03752505 -0.04499983
v 0.00000000 0.03834992 -0.04499983
v -0.00050001 -0.04211795 -0.04534494
v -0.00050001 -0.04217660 -0.04523813
v -0.00375467 -0.04196578 -0.04534071
v -0.00439298 -0.04195463 -0.04525083
v -0.00548381 -0.04176986 -0.04533809
v -0.00826633 -0.04133534 -0.04524564
v -0.00881666 -0.04116475 -0.04533350
v -0.01206117 -0.04032468 -0.04523950
v -0.01204764 -0.04028147 -0.04532968
v -0.01368463 -0.03971540 -0.04532772
v -0.01572275 -0.03893476 -0.04523253
v -0.01597988 -0.03877609 -0.04532378
v -0.01931560 -0.03712165 -0.04522424
v -0.01961505 -0.03690773 -0.04531520
v -0.02270758 -0.03493803 -0.04521524
v -0.02286607 -0.03478562 -0.04530650
v -0.02513653 -0.03299909 -0.04529935
v -0.02583312 -0.03242611 -0.04520553
v -0.02621668 -0.03204548 -0.04529553
v -0.02867853 -0.02960008 -0.04519528
v -0.02875304 -0.02948939 -0.04528498
v -0.03058487 -0.02730125 -0.04527628
v -0.03122699 -0.02647173 -0.04518473
v -0.03144311 -0.02615112 -0.04527187
v -0.03342646 -0.02310329 -0.04517406
v -0.03344154 -0.02306181 -0.04526060
v -0.03502511 -0.02002292 -0.04524976
v -0.03525304 -0.01952987 -0.04516369
v -0.03570830 -0.01846444 -0.04524439
v -0.03670072 -0.01576715 -0.04515391
v -0.03668874 -0.01581043 -0.04523587
v -0.03773033 -0.01197111 -0.04522460
v -0.03774011 -0.01189577 -0.04514509
v -0.03836792 -0.00800735 -0.04521387
v -0.03836208 -0.00797129 -0.04513716
v -0.03852045 -0.00598931 -0.04513347
v -0.03847724 -0.00598711 -0.04506254
v -0.03853064 -0.00399500 -0.04506087
v -0.03846186 -0.00399500 -0.04501444
v -0.03845000 -0.00000582 -0.04502665
v -0.03834998 -0.00000685 -0.04499983
v -0.03838682 -0.00399500 -0.04499983
v -0.03840792 -0.00598359 -0.04501491
v -0.03817921 -0.00789499 -0.04499983
v -0.03824979 -0.00795936 -0.04501521
v -0.03762930 -0.01187211 -0.04501616
v -0.03769922 -0.01188707 -0.04506832
v -0.03666245 -0.01575469 -0.04507273
v -0.00439310 -0.04194730 -0.04512506
v -0.00050001 -0.04216253 -0.04511743
v -0.00438333 -0.04186415 -0.04502803
v -0.00050001 -0.04208886 -0.04503184
v -0.00050001 -0.04204767 -0.04501157
v -0.00050001 -0.04198038 -0.04499983
v -0.00344020 -0.04185146 -0.04499983
v -0.00517970 -0.04166555 -0.04499983
v -0.00824696 -0.04124414 -0.04502743
v -0.00826567 -0.04132592 -0.04512202
v -0.00871271 -0.04103642 -0.04499983
v -0.01203173 -0.04023355 -0.04502683
v -0.01205790 -0.04031240 -0.04511851
v -0.01224118 -0.04005897 -0.04499983
v -0.01568305 -0.03884464 -0.04502588
v -0.01571613 -0.03891974 -0.04511457
v -0.01595616 -0.03861486 -0.04499983
v -0.01855856 -0.03731793 -0.04499983
v -0.01926529 -0.03703373 -0.04502499
v -0.02061784 -0.03610777 -0.04499983
v -0.02264672 -0.03485363 -0.04502409
v -0.02282297 -0.03460776 -0.04499983
v -0.02576208 -0.03234660 -0.04502302
v -0.02606207 -0.03194898 -0.04499983
v -0.02859789 -0.02952694 -0.04502177
v -0.02868431 -0.02929526 -0.04499983
v -0.03071057 -0.02683293 -0.04499983
v -0.03113758 -0.02640640 -0.04502058
v -0.03204357 -0.02495270 -0.04499983
v -0.03332954 -0.02304702 -0.04501932
v -0.03325515 -0.02300393 -0.04499983
v -0.03472894 -0.02019900 -0.04499983
v -0.03514993 -0.01948374 -0.04501825
v -0.03569233 -0.01798450 -0.04499983
v -0.03659296 -0.01573204 -0.04501724
v -0.03651571 -0.01570689 -0.04499983
v -0.03655123 -0.01559728 -0.04499983
v -0.03751921 -0.01200866 -0.04499983
v -0.03852319 -0.00000505 -0.04509991
v -0.03857433 -0.00399500 -0.04513031
v -0.03858679 -0.00399500 -0.04520457
v -0.03855001 -0.00000476 -0.04519987
v -0.01930588 -0.03710436 -0.04510998
v -0.02269393 -0.03491908 -0.04510498
v -0.02581530 -0.03240609 -0.04509961
v -0.02865618 -0.02957981 -0.04509413
v -0.03120023 -0.02645200 -0.04508864
v -0.03339534 -0.02308523 -0.04508298
v -0.03521806 -0.01951408 -0.04507780
v -0.03831952 -0.00796676 -0.04506438
v 0.00050000 0.03844851 -0.05537199
v 0.00408697 0.03823208 -0.05537307
v 0.00050000 0.03834992 -0.05539989
v 0.00424063 0.03811472 -0.05539989
v 0.00049995 0.03834664 -0.05539989
v 0.00409472 0.03830486 -0.05529981
v 0.00050000 0.03852039 -0.05529886
v 0.00050000 0.03854668 -0.05519986
v 0.00463045 0.03827083 -0.05519986
v 0.00814313 0.03765261 -0.05529981
v 0.00812763 0.03758108 -0.05537307
v 0.01207619 0.03650426 -0.05537307
v 0.01156520 0.03656446 -0.05539989
v 0.01507908 0.03526097 -0.05539989
v 0.01588797 0.03501379 -0.05537307
v 0.01844894 0.03362071 -0.05539989
v 0.01951974 0.03312665 -0.05537307
v 0.02164262 0.03165930 -0.05539989
v 0.02293032 0.03086417 -0.05537307
v 0.02462965 0.02939552 -0.05539989
v 0.02608108 0.02825200 -0.05537307
v 0.02738136 0.02685099 -0.05539989
v 0.02893632 0.02531969 -0.05537307
v 0.02987158 0.02405005 -0.05539989
v 0.03146374 0.02210050 -0.05537307
v 0.03207653 0.02101939 -0.05539989
v 0.03363460 0.01863092 -0.05537307
v 0.03397506 0.01778799 -0.05539989
v 0.03542441 0.01495021 -0.05537307
v 0.03554916 0.01438665 -0.05539989
v 0.03681284 0.01110011 -0.05537307
v 0.03678369 0.01084792 -0.05539989
v 0.03778415 0.00712425 -0.05537307
v 0.03766691 0.00720561 -0.05539989
v 0.03819042 0.00349444 -0.05539989
v 0.03832739 0.00306767 -0.05537307
v 0.03834915 -0.00025004 -0.05539989
v 0.03843635 -0.00102359 -0.05537307
v 0.03814160 -0.00399214 -0.05539989
v 0.03810977 -0.00510335 -0.05537307
v 0.03756982 -0.00769615 -0.05539989
v 0.03735142 -0.00912523 -0.05537307
v 0.03663915 -0.01132667 -0.05539989
v 0.03616988 -0.01304376 -0.05537307
v 0.03535854 -0.01484900 -0.05539989
v 0.03457850 -0.01681452 -0.05537307
v 0.03374028 -0.01822948 -0.05539989
v 0.03259533 -0.02039474 -0.05537307
v 0.03179973 -0.02143585 -0.05539989
v 0.03024286 -0.02374386 -0.05537307
v 0.02955549 -0.02443754 -0.05539989
v 0.02754771 -0.02682393 -0.05537307
v 0.02702897 -0.02720582 -0.05539989
v 0.02454048 -0.02960014 -0.05537307
v 0.02424430 -0.02971422 -0.05539989
v 0.02127403 -0.03202843 -0.05537307
v 0.02122807 -0.03193891 -0.05539989
v 0.01800912 -0.03385847 -0.05539989
v 0.01772898 -0.03411871 -0.05537307
v 0.01461809 -0.03545469 -0.05539989
v 0.01400196 -0.03580993 -0.05537307
v 0.01108753 -0.03671228 -0.05539989
v 0.01011627 -0.03709536 -0.05537307
v 0.00745100 -0.03761923 -0.05539989
v 0.00611597 -0.03796052 -0.05537307
v 0.00374335 -0.03816688 -0.05539989
v 0.00204635 -0.03839552 -0.05537307
v 0.00049999 -0.03841227 -0.05538874
v 0.00049999 -0.03848254 -0.05534678
v 0.00205028 -0.03846865 -0.05529981
v 0.00049999 -0.03852999 -0.05527997
v 0.00463045 -0.03827095 -0.05519986
v 0.00049999 -0.03854680 -0.05519986
v 0.00870752 0.03755360 -0.05519986
v 0.01209920 0.03657376 -0.05529981
v 0.01268416 0.03640341 -0.05519986
v 0.01591825 0.03508049 -0.05529981
v 0.01651459 0.03483337 -0.05519986
v 0.01955687 0.03318971 -0.05529981
v 0.02015453 0.03286164 -0.05519986
v 0.02297395 0.03092294 -0.05529981
v 0.02356213 0.03051102 -0.05519986
v 0.02613073 0.02830576 -0.05529981
v 0.02669793 0.02780854 -0.05519986
v 0.02899140 0.02536785 -0.05529981
v 0.02952593 0.02478539 -0.05519986
v 0.03152364 0.02214258 -0.05529981
v 0.03201341 0.02147644 -0.05519986
v 0.03369867 0.01866638 -0.05529981
v 0.03413176 0.01791983 -0.05519986
v 0.03549188 0.01497864 -0.05529981
v 0.03585654 0.01415657 -0.05519986
v 0.03688293 0.01112127 -0.05529981
v 0.03716778 0.01023006 -0.05519986
v 0.03785610 0.00713784 -0.05529981
v 0.03805047 0.00618553 -0.05519986
v 0.03840035 0.00307351 -0.05529981
v 0.03849434 0.00206977 -0.05519986
v 0.03850954 -0.00102556 -0.05529981
v 0.03849434 -0.00206989 -0.05519986
v 0.03818237 -0.00511306 -0.05529981
v 0.03805047 -0.00618565 -0.05519986
v 0.03742253 -0.00914264 -0.05529981
v 0.03716778 -0.01023018 -0.05519986
v 0.03623872 -0.01306861 -0.05529981
v 0.03585654 -0.01415669 -0.05519986
v 0.03464436 -0.01684653 -0.05529981
v 0.03413176 -0.01791995 -0.05519986
v 0.03265744 -0.02043354 -0.05529981
v 0.03201341 -0.02147656 -0.05519986
v 0.03030043 -0.02378904 -0.05529981
v 0.02952593 -0.02478551 -0.05519986
v 0.02760016 -0.02687501 -0.05529981
v 0.02669793 -0.02780866 -0.05519986
v 0.02458715 -0.02965652 -0.05529981
v 0.02356213 -0.03051114 -0.05519986
v 0.02130508 -0.03209567 -0.05529981
v 0.02015453 -0.03286176 -0.05519986
v 0.01776272 -0.03418368 -0.05529981
v 0.01651459 -0.03483349 -0.05519986
v 0.01402860 -0.03587806 -0.05529981
v 0.01268416 -0.03640353 -0.05519986
v 0.01013553 -0.03716599 -0.05529981
v 0.00870752 -0.03755372 -0.05519986
v 0.00612759 -0.03803277 -0.05529981
v 0.00000000 -0.03835004 -0.05539989
v -0.00050001 -0.03841227 -0.05538874
v -0.00204635 -0.03839552 -0.05537307
v -0.00050001 -0.03848254 -0.05534678
v -0.00205028 -0.03846865 -0.05529981
v -0.00050001 -0.03852999 -0.05527997
v -0.00050001 -0.03854680 -0.05519986
v -0.00463045 -0.03827095 -0.05519986
v -0.00612759 -0.03803277 -0.05529981
v -0.00611597 -0.03796052 -0.05537307
v -0.01011627 -0.03709536 -0.05537307
v -0.00745106 -0.03761923 -0.05539989
v -0.01108753 -0.03671228 -0.05539989
v -0.01400196 -0.03580993 -0.05537307
v -0.01461815 -0.03545469 -0.05539989
v -0.01772898 -0.03411871 -0.05537307
v -0.01800912 -0.03385847 -0.05539989
v -0.02127403 -0.03202843 -0.05537307
v -0.02122807 -0.03193891 -0.05539989
v -0.02424430 -0.02971422 -0.05539989
v -0.02454048 -0.02960014 -0.05537307
v -0.02702897 -0.02720582 -0.05539989
v -0.02754771 -0.02682393 -0.05537307
v -0.02955549 -0.02443754 -0.05539989
v -0.03024291 -0.02374386 -0.05537307
v -0.03179979 -0.02143585 -0.05539989
v -0.03259539 -0.02039474 -0.05537307
v -0.03374028 -0.01822948 -0.05539989
v -0.03457856 -0.01681452 -0.05537307
v -0.03535860 -0.01484900 -0.05539989
v -0.03616988 -0.01304376 -0.05537307
v -0.03663915 -0.01132667 -0.05539989
v -0.03735142 -0.00912523 -0.05537307
v -0.03756982 -0.00769615 -0.05539989
v -0.03810977 -0.00510335 -0.05537307
v -0.03814160 -0.00399214 -0.05539989
v -0.03843635 -0.00102359 -0.05537307
v -0.03834915 -0.00025004 -0.05539989
v -0.03832739 0.00306767 -0.05537307
v -0.03819042 0.00349444 -0.05539989
v -0.03778415 0.00712425 -0.05537307
v -0.03766697 0.00720561 -0.05539989
v -0.03678369 0.01084792 -0.05539989
v -0.03681284 0.01110011 -0.05537307
v -0.03554916 0.01438665 -0.05539989
v -0.03542441 0.01495021 -0.05537307
v -0.03397506 0.01778799 -0.05539989
v -0.03363460 0.01863092 -0.05537307
v -0.03207653 0.02101939 -0.05539989
v -0.03146374 0.02210050 -0.05537307
v -0.02987158 0.02405005 -0.05539989
v -0.02893632 0.02531969 -0.05537307
v -0.02738136 0.02685099 -0.05539989
v -0.02608108 0.02825200 -0.05537307
v -0.02462965 0.02939552 -0.05539989
v -0.02293032 0.03086417 -0.05537307
v -0.02164268 0.03165930 -0.05539989
v -0.01951974 0.03312665 -0.05537307
v -0.01844900 0.03362071 -0.05539989
v -0.01588797 0.03501379 -0.05537307
v -0.01507908 0.03526097 -0.05539989
v -0.01207619 0.03650426 -0.05537307
v -0.01156520 0.03656446 -0.05539989
v -0.00812763 0.03758108 -0.05537307
v -0.00794083 0.03751879 -0.05539989
v -0.00408697 0.03823208 -0.05537307
v -0.00424063 0.03811472 -0.05539989
v -0.00050000 0.03834992 -0.05539989
v -0.00049996 0.03834664 -0.05539989
v -0.00037498 0.03834807 -0.05539989
v -0.00024999 0.03834909 -0.05539989
v -0.00012500 0.03834968 -0.05539989
v 0.00000000 0.03834992 -0.05539989
v -0.00870752 -0.03755372 -0.05519986
v -0.01013553 -0.03716599 -0.05529981
v -0.01268422 -0.03640353 -0.05519986
v -0.01402860 -0.03587806 -0.05529981
v -0.01651459 -0.03483349 -0.05519986
v -0.01776272 -0.03418368 -0.05529981
v -0.02130508 -0.03209567 -0.05529981
v -0.02458721 -0.02965652 -0.05529981
v -0.02015453 -0.03286176 -0.05519986
v -0.02356213 -0.03051114 -0.05519986
v -0.02669793 -0.02780866 -0.05519986
v -0.02760016 -0.02687501 -0.05529981
v -0.02952593 -0.02478551 -0.05519986
v -0.03030049 -0.02378904 -0.05529981
v -0.03201341 -0.02147656 -0.05519986
v -0.03265744 -0.02043354 -0.05529981
v -0.03413176 -0.01791995 -0.05519986
v -0.03464436 -0.01684653 -0.05529981
v -0.03585654 -0.01415669 -0.05519986
v -0.03623878 -0.01306861 -0.05529981
v -0.03716778 -0.01023018 -0.05519986
v -0.03742259 -0.00914264 -0.05529981
v -0.03805047 -0.00618565 -0.05519986
v -0.03818237 -0.00511306 -0.05529981
v -0.03849434 -0.00206989 -0.05519986
v -0.03850954 -0.00102556 -0.05529981
v -0.03849434 0.00206977 -0.05519986
v -0.03840035 0.00307351 -0.05529981
v -0.03805047 0.00618553 -0.05519986
v -0.03785610 0.00713784 -0.05529981
v -0.03716778 0.01023006 -0.05519986
v -0.03688293 0.01112127 -0.05529981
v -0.03585654 0.01415657 -0.05519986
v -0.03549188 0.01497864 -0.05529981
v -0.03413176 0.01791983 -0.05519986
v -0.03369867 0.01866638 -0.05529981
v -0.03201341 0.02147644 -0.05519986
v -0.03152364 0.02214258 -0.05529981
v -0.02952593 0.02478539 -0.05519986
v -0.02899140 0.02536785 -0.05529981
v -0.02669793 0.02780854 -0.05519986
v -0.02613073 0.02830576 -0.05529981
v -0.02356213 0.03051102 -0.05519986
v -0.02297395 0.03092294 -0.05529981
v -0.02015453 0.03286164 -0.05519986
v -0.01955687 0.03318971 -0.05529981
v -0.01651459 0.03483337 -0.05519986
v -0.01591825 0.03508049 -0.05529981
v -0.01268422 0.03640341 -0.05519986
v -0.01209920 0.03657376 -0.05529981
v -0.00870752 0.03755360 -0.05519986
v -0.00814313 0.03765261 -0.05529981
v -0.00463045 0.03827083 -0.05519986
v -0.00409472 0.03830486 -0.05529981
v -0.00050000 0.03844851 -0.05537199
v -0.00050000 0.03854668 -0.05519986
v -0.00050000 0.03852039 -0.05529886
v -0.00374341 -0.03816688 -0.05539989
v 0.00794083 0.03751879 -0.05539989
v 0.00024998 0.03834909 -0.05539989
v 0.00000000 0.03834992 -0.05539989
f 1 2 3
f 4 5 6
f 7 8 9
f 10 11 12
f 12 11 13
f 12 13 14
f 14 13 15
f 14 15 16
f 16 15 17
f 16 17 18
f 18 17 19
f 18 19 20
f 20 19 21
f 20 21 22
f 22 21 23
f 22 23 24
f 24 23 25
f 24 25 26
f 26 25 27
f 26 27 28
f 28 27 29
f 28 29 30
f 30 29 31
f 30 31 32
f 33 31 34
f 33 34 35
f 35 34 36
f 35 36 37
f 37 36 38
f 37 38 39
f 39 38 40
f 41 42 43
f 44 40 45
f 44 45 46
f 47 48 10
f 49 50 51
f 4 52 53
f 48 47 54
f 54 47 55
f 54 55 56
f 56 55 57
f 56 57 58
f 58 57 59
f 58 59 60
f 60 59 61
f 60 61 62
f 62 61 63
f 62 63 64
f 64 63 65
f 64 65 66
f 66 65 67
f 66 67 68
f 68 67 69
f 68 69 70
f 70 69 71
f 70 71 72
f 73 71 74
f 72 75 76
f 76 75 77
f 76 77 78
f 78 77 79
f 78 79 80
f 80 79 81
f 80 81 82
f 83 84 85
f 86 87 88
f 89 90 91
f 92 93 10
f 94 95 96
f 96 95 97
f 96 97 98
f 98 97 99
f 98 99 100
f 100 99 101
f 100 101 102
f 102 101 103
f 102 103 104
f 104 103 105
f 104 105 106
f 106 105 107
f 106 107 108
f 108 107 109
f 108 109 110
f 110 109 111
f 110 111 112
f 112 111 113
f 112 113 114
f 114 113 115
f 114 115 116
f 116 115 117
f 116 117 118
f 118 117 119
f 119 117 120
f 119 120 121
f 121 120 122
f 121 122 123
f 123 122 124
f 123 124 125
f 125 124 126
f 125 126 127
f 127 126 128
f 127 128 129
f 126 130 128
f 128 130 131
f 131 130 132
f 131 132 133
f 133 132 134
f 133 134 135
f 135 134 136
f 135 136 137
f 137 136 138
f 137 138 139
f 139 138 140
f 139 140 141
f 141 140 142
f 141 142 143
f 143 142 144
f 143 144 145
f 145 144 146
f 145 146 147
f 147 146 148
f 147 148 149
f 149 148 150
f 149 150 151
f 151 150 152
f 151 152 153
f 153 152 154
f 153 154 155
f 155 154 156
f 155 156 157
f 129 158 127
f 127 158 159
f 160 161 162
f 163 164 165
f 166 167 168
f 166 168 169
f 169 168 170
f 169 170 171
f 171 172 169
f 169 172 173
f 169 173 174
f 174 175 169
f 169 175 176
f 169 176 177
f 177 178 169
f 169 178 179
f 169 179 180
f 180 181 169
f 182 183 184
f 185 186 187
f 188 189 169
f 169 189 190
f 169 190 191
f 192 193 194
f 188 195 196
f 197 198 199
f 200 201 188
f 202 203 204
f 188 205 206
f 206 207 188
f 188 207 208
f 188 208 209
f 209 210 188
f 188 210 211
f 188 211 212
f 212 213 202
f 188 213 214
f 188 214 215
f 215 189 188
f 216 166 191
f 191 166 169
f 217 218 219
f 166 220 221
f 166 221 222
f 220 223 224
f 225 226 227
f 224 228 229
f 229 230 224
f 224 230 231
f 231 230 232
f 232 230 233
f 232 233 234
f 234 233 235
f 235 233 236
f 236 233 237
f 237 233 238
f 238 233 239
f 239 233 240
f 240 233 241
f 241 233 242
f 242 233 243
f 243 233 244
f 245 246 247
f 244 248 249
f 249 250 245
f 251 252 253
f 244 254 255
f 255 256 244
f 244 256 257
f 245 257 258
f 258 259 244
f 260 261 262
f 244 263 264
f 265 266 245
f 267 268 269
f 244 270 271
f 272 273 274
f 275 276 277
f 222 278 166
f 279 280 281
f 281 280 282
f 281 282 283
f 281 283 284
f 284 283 285
f 284 285 286
f 286 285 287
f 286 287 288
f 286 288 289
f 289 288 290
f 289 290 291
f 291 290 292
f 291 292 293
f 294 295 293
f 293 295 296
f 293 296 291
f 291 296 297
f 291 297 289
f 289 297 298
f 289 298 286
f 286 298 299
f 286 299 284
f 284 299 300
f 284 300 281
f 281 300 301
f 281 301 279
f 279 301 302
f 302 301 303
f 302 303 304
f 304 303 305
f 305 303 306
f 305 306 307
f 307 306 308
f 308 306 309
f 309 306 310
f 310 306 311
f 311 306 312
f 311 312 313
f 313 312 314
f 314 312 315
f 315 312 316
f 315 316 317
f 317 316 318
f 318 316 319
f 319 316 320
f 319 320 321
f 321 320 322
f 322 320 323
f 323 320 324
f 324 320 325
f 324 325 326
f 326 325 327
f 327 325 328
f 328 325 329
f 329 325 330
f 329 330 331
f 331 330 332
f 332 330 333
f 333 330 334
f 334 330 335
f 335 330 336
f 335 336 337
f 337 336 338
f 338 336 339
f 339 336 340
f 340 336 341
f 341 336 342
f 341 342 343
f 343 342 344
f 344 342 345
f 345 342 346
f 345 346 347
f 347 346 348
f 348 346 349
f 349 346 350
f 349 350 351
f 351 350 352
f 352 350 353
f 353 350 354
f 354 350 355
f 355 350 356
f 355 356 357
f 357 356 358
f 358 356 359
f 359 356 360
f 359 360 361
f 361 360 362
f 362 360 363
f 363 360 364
f 364 360 365
f 365 360 366
f 365 366 367
f 367 366 368
f 368 366 369
f 369 366 370
f 369 370 371
f 371 370 372
f 372 370 373
f 373 370 374
f 373 374 375
f 295 294 376
f 376 294 377
f 376 377 378
f 378 377 379
f 378 379 380
f 380 379 381
f 380 381 382
f 382 381 383
f 382 383 384
f 384 383 385
f 384 385 386
f 377 387 379
f 379 387 388
f 379 388 381
f 381 388 389
f 381 389 383
f 383 389 390
f 383 390 385
f 388 387 391
f 391 387 392
f 391 392 389
f 389 392 390
f 384 386 393
f 393 386 394
f 393 394 395
f 395 394 396
f 395 396 397
f 397 396 398
f 397 398 399
f 399 398 400
f 399 400 401
f 399 401 402
f 402 401 403
f 402 403 404
f 404 403 405
f 404 405 406
f 404 406 407
f 407 406 408
f 407 408 409
f 409 408 410
f 409 410 411
f 411 410 412
f 411 412 413
f 411 413 414
f 414 413 415
f 414 415 416
f 416 415 417
f 416 417 418
f 418 417 419
f 418 419 420
f 420 419 421
f 420 421 422
f 422 423 420
f 420 423 424
f 420 424 425
f 425 424 426
f 425 426 427
f 427 426 428
f 427 428 429
f 429 428 430
f 429 430 431
f 431 430 432
f 431 432 433
f 433 432 434
f 433 434 435
f 435 434 436
f 435 436 437
f 437 436 438
f 437 438 439
f 439 438 440
f 439 440 441
f 441 440 442
f 441 442 443
f 443 442 346
f 443 346 342
f 424 423 444
f 444 423 445
f 444 445 446
f 446 445 447
f 446 447 448
f 448 447 449
f 448 449 450
f 450 449 451
f 450 451 452
f 452 451 453
f 452 453 454
f 454 453 455
f 454 455 456
f 456 455 457
f 456 457 458
f 458 457 459
f 458 459 460
f 460 459 360
f 460 360 356
f 374 451 445
f 445 451 449
f 445 449 447
f 389 388 391
f 455 374 457
f 457 374 461
f 457 461 459
f 459 461 366
f 459 366 360
f 303 301 462
f 462 301 300
f 462 300 463
f 463 300 299
f 463 299 464
f 464 299 298
f 464 298 297
f 306 303 465
f 465 303 462
f 465 462 466
f 466 462 463
f 466 463 467
f 467 463 464
f 467 464 468
f 468 464 469
f 468 469 470
f 470 469 471
f 470 471 472
f 472 471 473
f 472 473 474
f 474 473 376
f 474 376 475
f 475 376 378
f 475 378 380
f 312 306 476
f 476 306 465
f 476 465 477
f 477 465 466
f 477 466 478
f 478 466 467
f 478 467 468
f 316 312 479
f 479 312 476
f 479 476 480
f 480 476 477
f 480 477 481
f 481 477 478
f 481 478 482
f 482 478 468
f 482 468 483
f 483 468 484
f 483 484 485
f 485 484 486
f 485 486 487
f 487 486 488
f 487 488 489
f 489 488 490
f 489 490 491
f 491 490 492
f 491 492 493
f 493 492 382
f 493 382 384
f 320 316 494
f 494 316 479
f 494 479 495
f 495 479 480
f 495 480 496
f 496 480 481
f 496 481 497
f 497 481 482
f 497 482 498
f 498 482 483
f 498 483 499
f 499 483 485
f 499 485 500
f 500 485 487
f 500 487 501
f 501 487 489
f 501 489 502
f 502 489 491
f 502 491 503
f 503 491 493
f 503 493 393
f 393 493 384
f 325 320 504
f 504 320 494
f 504 494 505
f 505 494 495
f 505 495 506
f 506 495 496
f 506 496 507
f 507 496 497
f 507 497 508
f 508 497 498
f 508 498 499
f 330 325 509
f 509 325 504
f 509 504 510
f 510 504 505
f 510 505 511
f 511 505 506
f 511 506 512
f 512 506 507
f 512 507 513
f 513 507 508
f 513 508 514
f 514 508 499
f 514 499 515
f 515 499 500
f 515 500 516
f 516 500 501
f 516 501 517
f 517 501 502
f 517 502 518
f 518 502 503
f 518 503 395
f 395 503 393
f 336 330 519
f 519 330 509
f 519 509 520
f 520 509 510
f 520 510 511
f 342 336 521
f 521 336 519
f 521 519 522
f 522 519 520
f 522 520 523
f 523 520 511
f 523 511 524
f 524 511 512
f 524 512 525
f 525 512 513
f 525 513 526
f 526 513 514
f 526 514 527
f 527 514 515
f 527 515 528
f 528 515 516
f 528 516 529
f 529 516 517
f 529 517 530
f 530 517 518
f 530 518 397
f 397 518 395
f 346 442 350
f 350 442 531
f 350 531 356
f 356 531 460
f 461 374 370
f 370 366 461
f 342 521 443
f 443 521 532
f 443 532 441
f 441 532 533
f 441 533 439
f 439 533 534
f 439 534 437
f 437 534 535
f 437 535 435
f 435 535 536
f 435 536 433
f 433 536 537
f 433 537 431
f 431 537 538
f 431 538 429
f 429 538 539
f 429 539 427
f 427 539 540
f 427 540 425
f 425 540 418
f 425 418 420
f 532 521 522
f 442 440 531
f 531 440 541
f 531 541 460
f 460 541 458
f 532 522 542
f 542 522 523
f 542 523 543
f 543 523 524
f 543 524 544
f 544 524 525
f 544 525 545
f 545 525 526
f 545 526 546
f 546 526 527
f 546 527 547
f 547 527 528
f 547 528 548
f 548 528 529
f 548 529 549
f 549 529 530
f 549 530 399
f 399 530 397
f 440 438 541
f 541 438 550
f 541 550 458
f 458 550 456
f 451 374 453
f 453 374 455
f 469 464 297
f 532 542 533
f 533 542 551
f 533 551 534
f 534 551 552
f 534 552 535
f 535 552 553
f 535 553 536
f 536 553 554
f 536 554 537
f 537 554 555
f 537 555 538
f 538 555 556
f 538 556 539
f 539 556 557
f 539 557 540
f 540 557 416
f 540 416 418
f 551 542 543
f 438 436 550
f 550 436 558
f 550 558 456
f 456 558 454
f 471 469 297
f 471 297 296
f 484 468 470
f 551 543 544
f 552 551 544
f 436 434 558
f 558 434 559
f 558 559 454
f 454 559 452
f 473 471 296
f 473 296 295
f 486 484 470
f 486 470 472
f 552 544 560
f 560 544 545
f 560 545 561
f 561 545 546
f 561 546 562
f 562 546 547
f 562 547 563
f 563 547 548
f 563 548 564
f 564 548 549
f 564 549 402
f 402 549 399
f 434 432 559
f 559 432 565
f 559 565 452
f 452 565 450
f 376 473 295
f 488 486 472
f 488 472 474
f 552 560 553
f 553 560 566
f 553 566 554
f 554 566 567
f 554 567 555
f 555 567 568
f 555 568 556
f 556 568 569
f 556 569 557
f 557 569 414
f 557 414 416
f 566 560 561
f 432 430 565
f 565 430 570
f 565 570 450
f 450 570 448
f 490 488 474
f 490 474 475
f 566 561 571
f 571 561 562
f 571 562 572
f 572 562 563
f 572 563 573
f 573 563 564
f 573 564 404
f 404 564 402
f 430 428 570
f 570 428 574
f 570 574 448
f 448 574 446
f 490 475 492
f 492 475 380
f 492 380 382
f 572 575 571
f 571 575 567
f 571 567 566
f 567 575 568
f 568 575 576
f 568 576 569
f 569 576 411
f 569 411 414
f 575 572 577
f 577 572 573
f 577 573 407
f 407 573 404
f 574 428 426
f 446 574 444
f 444 574 426
f 444 426 424
f 577 407 409
f 577 409 576
f 576 409 411
f 577 576 575
f 578 579 580
f 580 579 581
f 580 581 582
f 582 581 583
f 582 583 584
f 584 583 585
f 584 585 586
f 586 585 587
f 586 587 588
f 588 587 589
f 588 589 590
f 590 589 591
f 590 591 592
f 592 591 593
f 592 593 594
f 594 593 595
f 594 595 596
f 596 595 597
f 596 597 598
f 598 597 599
f 598 599 600
f 600 599 601
f 600 601 602
f 602 601 603
f 602 603 604
f 583 581 605
f 605 581 606
f 605 606 607
f 607 606 608
f 607 608 609
f 609 608 610
f 609 610 611
f 611 610 612
f 611 612 613
f 613 612 614
f 613 614 615
f 615 614 616
f 615 616 617
f 617 616 618
f 617 618 619
f 619 618 620
f 619 620 621
f 621 620 622
f 621 622 623
f 624 625 606
f 606 625 626
f 606 626 610
f 610 626 612
f 627 628 624
f 624 628 629
f 624 629 630
f 630 629 631
f 630 631 632
f 632 631 633
f 632 633 634
f 634 633 635
f 634 635 616
f 616 635 618
f 627 636 628
f 628 636 637
f 628 637 629
f 629 637 631
f 636 638 637
f 637 638 639
f 637 639 631
f 631 639 633
f 638 640 639
f 639 640 641
f 639 641 633
f 633 641 635
f 640 642 641
f 641 642 643
f 641 643 644
f 644 643 645
f 644 645 620
f 620 645 622
f 621 623 646
f 646 623 647
f 646 647 601
f 601 647 603
f 602 604 648
f 648 604 649
f 648 649 650
f 650 649 651
f 650 651 652
f 652 651 653
f 652 653 654
f 652 654 655
f 655 654 656
f 655 656 657
f 657 656 658
f 657 658 659
f 657 659 660
f 660 659 661
f 660 661 662
f 662 661 663
f 662 663 664
f 664 665 662
f 662 665 666
f 662 666 667
f 667 666 668
f 667 668 669
f 669 668 670
f 669 670 671
f 671 670 672
f 671 672 673
f 673 672 674
f 673 674 675
f 675 674 676
f 675 676 677
f 677 676 678
f 677 678 679
f 679 678 680
f 679 680 681
f 681 680 682
f 681 682 683
f 683 682 684
f 683 684 685
f 685 684 686
f 685 686 687
f 687 686 688
f 687 688 689
f 666 665 690
f 690 665 691
f 690 691 692
f 692 691 693
f 692 693 694
f 694 693 695
f 694 695 696
f 696 695 697
f 696 697 698
f 698 697 699
f 698 699 700
f 700 699 701
f 700 701 702
f 702 701 703
f 702 703 704
f 704 703 705
f 704 705 706
f 706 705 707
f 706 707 708
f 708 707 709
f 708 709 710
f 691 711 693
f 693 711 712
f 693 712 695
f 695 712 713
f 695 713 697
f 697 713 714
f 697 714 699
f 699 714 715
f 699 715 701
f 701 715 716
f 701 716 703
f 703 716 717
f 703 717 705
f 705 717 718
f 705 718 707
f 707 718 719
f 707 719 709
f 711 720 712
f 712 720 713
f 720 721 713
f 713 721 714
f 721 722 714
f 714 722 723
f 714 723 715
f 715 723 724
f 715 724 716
f 716 724 725
f 716 725 717
f 717 725 726
f 717 726 718
f 718 726 727
f 718 727 719
f 722 728 723
f 723 728 729
f 723 729 730
f 730 729 731
f 730 731 732
f 732 731 733
f 732 733 734
f 732 734 735
f 735 734 736
f 735 736 737
f 737 736 738
f 735 737 739
f 739 737 740
f 739 740 741
f 741 740 742
f 741 742 726
f 726 742 727
f 708 710 743
f 743 710 744
f 743 744 686
f 686 744 688
f 687 689 745
f 745 689 746
f 745 746 747
f 747 746 748
f 747 748 749
f 749 748 750
f 749 750 751
f 751 750 752
f 751 752 753
f 753 752 754
f 753 754 755
f 755 754 756
f 755 756 757
f 757 756 584
f 757 584 586
f 752 578 754
f 754 578 580
f 754 580 756
f 756 580 582
f 756 582 584
f 625 624 630
f 608 606 610
f 751 753 758
f 758 753 755
f 758 755 759
f 759 755 757
f 759 757 760
f 760 757 586
f 760 586 588
f 749 751 761
f 761 751 758
f 761 758 762
f 762 758 759
f 762 759 763
f 763 759 760
f 763 760 764
f 764 760 588
f 764 588 590
f 747 749 765
f 765 749 761
f 765 761 766
f 766 761 762
f 766 762 767
f 767 762 763
f 767 763 768
f 768 763 764
f 768 764 769
f 769 764 590
f 769 590 592
f 745 747 770
f 770 747 765
f 770 765 771
f 771 765 766
f 771 766 772
f 772 766 767
f 772 767 773
f 773 767 768
f 773 768 774
f 774 768 769
f 774 769 775
f 775 769 592
f 775 592 594
f 687 745 776
f 776 745 770
f 776 770 777
f 777 770 771
f 777 771 778
f 778 771 772
f 778 772 779
f 779 772 773
f 779 773 780
f 780 773 774
f 780 774 781
f 781 774 775
f 781 775 782
f 782 775 594
f 782 594 596
f 686 684 743
f 743 684 783
f 743 783 708
f 708 783 706
f 726 725 741
f 741 725 784
f 741 784 739
f 739 784 732
f 739 732 735
f 777 785 776
f 776 785 685
f 776 685 687
f 685 785 683
f 683 785 786
f 683 786 681
f 681 786 787
f 681 787 679
f 679 787 788
f 679 788 677
f 677 788 789
f 677 789 675
f 675 789 790
f 675 790 673
f 673 790 791
f 673 791 671
f 671 791 792
f 671 792 669
f 669 792 793
f 669 793 667
f 667 793 660
f 667 660 662
f 785 777 794
f 794 777 778
f 794 778 795
f 795 778 779
f 795 779 796
f 796 779 780
f 796 780 797
f 797 780 781
f 797 781 798
f 798 781 782
f 798 782 799
f 799 782 596
f 799 596 598
f 783 684 682
f 706 783 800
f 800 783 682
f 800 682 680
f 706 800 704
f 704 800 801
f 704 801 702
f 702 801 802
f 702 802 700
f 700 802 803
f 700 803 698
f 698 803 804
f 698 804 696
f 696 804 805
f 696 805 694
f 694 805 806
f 694 806 692
f 692 806 690
f 801 800 680
f 784 725 724
f 732 784 730
f 730 784 724
f 730 724 723
f 611 807 808
f 808 807 589
f 808 589 587
f 589 807 591
f 591 807 809
f 591 809 593
f 593 809 810
f 593 810 595
f 595 810 811
f 595 811 597
f 597 811 812
f 597 812 599
f 599 812 646
f 599 646 601
f 809 807 613
f 613 807 611
f 797 813 796
f 796 813 814
f 796 814 795
f 795 814 815
f 795 815 794
f 794 815 786
f 794 786 785
f 813 816 814
f 814 816 788
f 814 788 787
f 813 797 817
f 817 797 798
f 817 798 818
f 818 798 799
f 818 799 819
f 819 799 598
f 819 598 600
f 788 816 789
f 789 816 820
f 789 820 790
f 790 820 821
f 790 821 791
f 791 821 822
f 791 822 792
f 792 822 823
f 792 823 793
f 793 823 657
f 793 657 660
f 816 813 824
f 824 813 817
f 824 817 825
f 825 817 818
f 825 818 826
f 826 818 819
f 826 819 827
f 827 819 600
f 827 600 602
f 676 674 803
f 803 674 804
f 805 804 672
f 672 804 674
f 678 676 802
f 802 676 803
f 815 814 787
f 611 808 609
f 609 808 828
f 609 828 607
f 607 828 605
f 828 808 587
f 618 635 644
f 644 635 641
f 644 620 618
f 619 621 812
f 812 621 646
f 602 648 827
f 827 648 829
f 827 829 826
f 826 829 830
f 826 830 825
f 825 830 831
f 825 831 824
f 824 831 820
f 824 820 816
f 648 650 829
f 829 650 832
f 829 832 830
f 830 832 833
f 830 833 831
f 831 833 821
f 831 821 820
f 650 652 832
f 832 652 834
f 832 834 833
f 833 834 822
f 833 822 821
f 652 655 834
f 834 655 823
f 834 823 822
f 655 657 823
f 668 666 690
f 617 619 811
f 811 619 812
f 670 668 806
f 806 668 690
f 615 617 810
f 810 617 811
f 616 614 634
f 634 614 835
f 634 835 632
f 632 835 625
f 632 625 630
f 612 626 835
f 835 626 625
f 835 614 612
f 809 613 615
f 615 810 809
f 805 672 670
f 670 806 805
f 680 678 801
f 801 678 802
f 786 815 787
f 605 828 585
f 585 828 587
f 583 605 585
f 836 837 838
f 838 837 839
f 838 839 840
f 840 839 841
f 840 841 842
f 842 841 843
f 842 843 844
f 844 843 845
f 844 845 846
f 846 845 847
f 846 847 848
f 848 847 849
f 848 849 850
f 850 849 851
f 850 851 852
f 852 851 853
f 852 853 854
f 854 853 855
f 854 855 856
f 856 855 857
f 856 857 858
f 858 857 859
f 858 859 860
f 860 859 861
f 860 861 862
f 862 861 863
f 862 863 864
f 864 863 865
f 864 865 866
f 866 865 867
f 866 867 868
f 865 869 867
f 867 869 870
f 870 869 871
f 871 869 872
f 872 869 873
f 872 873 874
f 874 873 875
f 875 873 876
f 876 873 877
f 876 877 878
f 878 877 879
f 879 877 880
f 880 877 881
f 881 877 882
f 882 877 883
f 882 883 884
f 884 883 885
f 885 883 886
f 886 883 887
f 887 883 888
f 887 888 889
f 889 888 890
f 890 888 891
f 891 888 892
f 892 888 893
f 893 888 894
f 893 894 895
f 895 894 896
f 896 894 897
f 897 894 898
f 897 898 899
f 899 898 900
f 900 898 901
f 901 898 902
f 901 902 903
f 903 902 904
f 904 902 905
f 905 902 906
f 906 902 907
f 907 902 908
f 908 902 909
f 908 909 910
f 910 909 911
f 911 909 912
f 912 909 913
f 913 909 914
f 914 909 915
f 914 915 916
f 916 915 917
f 917 915 918
f 918 915 919
f 919 915 920
f 920 915 921
f 920 921 922
f 922 921 923
f 923 921 924
f 924 921 925
f 925 921 926
f 925 926 927
f 927 926 928
f 928 926 929
f 929 926 930
f 930 926 931
f 930 931 932
f 932 931 933
f 933 931 934
f 934 931 935
f 935 931 936
f 936 931 937
f 937 931 938
f 938 931 939
f 938 939 940
f 940 939 941
f 940 941 942
f 943 944 868
f 868 944 866
f 945 946 947
f 947 946 948
f 948 946 949
f 948 949 950
f 950 949 951
f 951 949 952
f 953 954 955
f 955 954 956
f 955 956 957
f 955 957 958
f 958 957 959
f 958 959 960
f 961 962 963
f 963 962 964
f 963 964 965
f 965 966 963
f 967 968 969
f 970 971 972
f 973 974 975
f 975 976 973
f 973 976 977
f 973 977 978
f 978 977 979
f 978 979 980
f 980 979 981
f 980 981 982
f 982 981 983
f 982 983 984
f 976 985 977
f 977 985 979
f 985 983 979
f 979 983 981
f 982 984 986
f 986 984 987
f 986 987 988
f 988 987 989
f 988 989 990
f 990 989 991
f 990 991 992
f 993 994 992
f 992 994 990
f 994 995 990
f 990 995 988
f 995 996 988
f 988 996 986
f 996 997 986
f 986 997 982
f 997 980 982
f 978 998 973
f 999 1000 1001
f 1002 1003 1004
f 1004 1003 1005
f 1006 1007 1008
f 1008 1007 1009
f 1008 1009 1010
f 1006 1011 1007
f 1008 1010 1012
f 1012 1010 1013
f 1012 1013 1014
f 1014 1013 1015
f 1014 1015 1016
f 1016 1015 1017
f 1017 1015 1018
f 1018 1015 1019
f 1019 1015 1020
f 1019 1020 1021
f 1021 1020 1022
f 1022 1020 1023
f 1022 1023 1024
f 1024 1023 1025
f 1024 1025 1026
f 1026 1025 1027
f 1026 1027 1028
f 1026 1028 1029
f 1029 1028 1030
f 1029 1030 1031
f 1031 1032 1029
f 1029 1032 1033
f 1033 1032 1034
f 1034 1032 1035
f 1036 1037 1038
f 1039 1035 1040
f 1041 1042 1043
f 1044 1040 1045
f 1045 1040 1046
f 1047 1048 1049
f 1050 1051 1052
f 1053 1054 1055
f 1048 1047 1056
f 1056 1047 1057
f 1056 1057 1058
f 1058 1057 1059
f 1058 1059 1060
f 1060 1059 1061
f 1060 1061 1062
f 1062 1061 1063
f 1063 1061 1064
f 1064 1061 1065
f 1064 1065 1066
f 1066 1065 1067
f 1067 1065 1068
f 1068 1065 1069
f 1069 1065 1070
f 1070 1065 1071
f 1070 1071 1072
f 1072 1071 1073
f 1072 1073 1074
f 1074 1073 1075
f 1076 1077 1049
f 1078 1079 1080
f 1080 1079 1081
f 1080 1081 1082
f 1082 1081 1083
f 1082 1083 1084
f 1082 1084 1085
f 1085 1084 1086
f 1085 1086 1087
f 1087 1086 1088
f 1087 1088 1089
f 1087 1089 1090
f 1090 1089 1091
f 1090 1091 1092
f 1092 1091 1093
f 1092 1093 1094
f 1092 1094 1095
f 1095 1094 1096
f 1095 1096 1097
f 1097 1096 1098
f 1097 1098 1099
f 1099 1098 1100
f 1099 1100 1101
f 1101 1100 1102
f 1101 1102 1103
f 1101 1103 1104
f 1104 1103 1105
f 1104 1105 1106
f 1106 1105 1107
f 1106 1107 1108
f 1108 1107 1109
f 1108 1109 1110
f 1110 1109 1111
f 1110 1111 1112
f 1112 1111 1113
f 1113 1111 1114
f 1113 1114 1115
f 1115 1114 1116
f 1115 1116 1117
f 1117 1116 1118
f 1117 1118 1119
f 1119 1118 1120
f 1119 1120 1121
f 1121 1120 1122
f 1121 1122 1123
f 1105 1124 1107
f 1107 1124 1125
f 1107 1125 1109
f 1109 1125 1126
f 1109 1126 1111
f 1111 1126 1114
f 1124 1127 1125
f 1125 1127 1128
f 1125 1128 1126
f 1126 1128 1129
f 1126 1129 1114
f 1114 1129 1116
f 1127 1130 1128
f 1128 1130 1131
f 1128 1131 1129
f 1129 1131 1118
f 1129 1118 1116
f 1131 1130 1120
f 1120 1130 1122
f 1121 1123 1132
f 1132 1123 1133
f 1132 1133 1134
f 1132 1134 1135
f 1135 1134 1136
f 1135 1136 1137
f 1137 1136 1138
f 1137 1138 1139
f 1137 1139 1140
f 1140 1139 1141
f 1140 1141 1142
f 1142 1141 1143
f 1142 1143 1117
f 1117 1143 1115
f 1112 1144 1110
f 1110 1144 1145
f 1110 1145 1108
f 1108 1145 1146
f 1108 1146 1106
f 1106 1146 1104
f 1145 1144 1147
f 1147 1144 1148
f 1147 1148 1149
f 1147 1149 1150
f 1150 1149 1151
f 1150 1151 1152
f 1150 1152 1153
f 1153 1152 1154
f 1153 1154 1155
f 1153 1155 1156
f 1156 1155 1157
f 1156 1157 1158
f 1158 1157 1159
f 1158 1159 1160
f 1158 1160 1161
f 1161 1160 1162
f 1161 1162 1163
f 1163 1162 1164
f 1163 1164 1165
f 1163 1165 1166
f 1166 1165 1167
f 1166 1167 1168
f 1168 1167 1169
f 1168 1169 1170
f 1171 1172 1170
f 1170 1172 1173
f 1170 1173 1168
f 1168 1173 1174
f 1168 1174 1175
f 1175 1174 1085
f 1175 1085 1087
f 1172 1176 1173
f 1173 1176 1177
f 1173 1177 1178
f 1178 1177 1179
f 1178 1179 1080
f 1080 1179 1078
f 1180 1181 1176
f 1176 1181 1182
f 1176 1182 1183
f 1183 1177 1176
f 1121 1132 1184
f 1184 1132 1135
f 1184 1135 1140
f 1140 1135 1137
f 1118 1131 1120
f 1101 1104 1185
f 1185 1104 1146
f 1185 1146 1147
f 1147 1146 1145
f 1099 1101 1186
f 1186 1101 1185
f 1186 1185 1150
f 1150 1185 1147
f 1097 1099 1187
f 1187 1099 1186
f 1187 1186 1153
f 1153 1186 1150
f 1095 1097 1188
f 1188 1097 1187
f 1188 1187 1156
f 1156 1187 1153
f 1092 1095 1189
f 1189 1095 1188
f 1189 1188 1158
f 1158 1188 1156
f 1090 1092 1190
f 1190 1092 1189
f 1190 1189 1161
f 1161 1189 1158
f 1087 1090 1191
f 1191 1090 1190
f 1191 1190 1163
f 1163 1190 1161
f 1178 1080 1082
f 1178 1082 1174
f 1174 1082 1085
f 1121 1184 1119
f 1119 1184 1142
f 1119 1142 1117
f 1142 1184 1140
f 1087 1191 1175
f 1175 1191 1166
f 1175 1166 1168
f 1166 1191 1163
f 1173 1178 1174
f 1192 1193 1194
f 1194 1193 1195
f 1194 1195 1196
f 1196 1195 1197
f 1196 1197 1198
f 1198 1197 1199
f 1198 1199 1200
f 1200 1199 1201
f 1201 1199 1202
f 1201 1202 1203
f 1203 1202 1204
f 1203 1204 1205
f 1205 1204 1206
f 1205 1206 1207
f 1207 1206 1208
f 1207 1208 1209
f 1209 1208 1210
f 1209 1210 1211
f 1211 1210 1212
f 1211 1212 1213
f 1213 1212 1214
f 1213 1214 1215
f 1215 1214 1216
f 1215 1216 1217
f 1217 1216 1218
f 1217 1218 1219
f 1219 1218 1220
f 1219 1220 1221
f 1221 1220 1222
f 1221 1222 1223
f 1223 1222 1224
f 1223 1224 1225
f 1195 1226 1197
f 1197 1226 1227
f 1197 1227 1228
f 1228 1227 1229
f 1228 1229 1230
f 1230 1229 1231
f 1230 1231 1232
f 1232 1231 1233
f 1232 1233 1234
f 1234 1233 1235
f 1234 1235 1236
f 1236 1235 1237
f 1236 1237 1238
f 1238 1237 1239
f 1238 1239 1240
f 1240 1239 1241
f 1240 1241 1242
f 1242 1241 1243
f 1242 1243 1244
f 1244 1243 1245
f 1244 1245 1246
f 1246 1245 1247
f 1246 1247 1248
f 1248 1247 1249
f 1248 1249 1250
f 1250 1249 1251
f 1250 1251 1252
f 1252 1251 1253
f 1250 1252 1222
f 1222 1252 1224
f 1200 1254 1198
f 1198 1254 1255
f 1198 1255 1196
f 1196 1255 1256
f 1196 1256 1194
f 1254 1257 1255
f 1255 1257 1258
f 1255 1258 1256
f 1202 1199 1228
f 1228 1199 1197
f 1204 1202 1230
f 1230 1202 1228
f 1206 1204 1232
f 1232 1204 1230
f 1208 1206 1234
f 1234 1206 1232
f 1210 1208 1236
f 1236 1208 1234
f 1212 1210 1238
f 1238 1210 1236
f 1214 1212 1240
f 1240 1212 1238
f 1216 1214 1242
f 1242 1214 1240
f 1218 1216 1244
f 1244 1216 1242
f 1220 1218 1246
f 1246 1218 1244
f 1246 1248 1220
f 1220 1248 1250
f 1220 1250 1222
f 1259 1260 1261
f 1261 1260 1262
f 1261 1262 1263
f 1260 1259 1264
f 1264 1259 1265
f 1264 1265 1266
f 1266 1267 1264
f 1264 1267 1268
f 1264 1268 1269
f 1269 1268 1270
f 1269 1270 1271
f 1271 1270 1272
f 1272 1270 1273
f 1272 1273 1274
f 1274 1273 1275
f 1274 1275 1276
f 1276 1275 1277
f 1276 1277 1278
f 1278 1277 1279
f 1278 1279 1280
f 1280 1279 1281
f 1280 1281 1282
f 1282 1281 1283
f 1282 1283 1284
f 1284 1283 1285
f 1284 1285 1286
f 1286 1285 1287
f 1286 1287 1288
f 1288 1287 1289
f 1288 1289 1290
f 1290 1289 1291
f 1290 1291 1292
f 1292 1291 1293
f 1292 1293 1294
f 1294 1293 1295
f 1294 1295 1296
f 1267 1297 1268
f 1268 1297 1298
f 1268 1298 1270
f 1270 1298 1273
f 1297 1299 1298
f 1298 1299 1300
f 1298 1300 1273
f 1273 1300 1275
f 1299 1301 1300
f 1300 1301 1302
f 1300 1302 1275
f 1275 1302 1277
f 1301 1303 1302
f 1302 1303 1304
f 1302 1304 1277
f 1277 1304 1279
f 1303 1305 1304
f 1304 1305 1306
f 1304 1306 1279
f 1279 1306 1281
f 1305 1307 1306
f 1306 1307 1308
f 1306 1308 1281
f 1281 1308 1283
f 1307 1309 1308
f 1308 1309 1310
f 1308 1310 1283
f 1283 1310 1285
f 1309 1311 1310
f 1310 1311 1312
f 1310 1312 1285
f 1285 1312 1287
f 1311 1313 1312
f 1312 1313 1314
f 1312 1314 1287
f 1287 1314 1289
f 1313 1315 1314
f 1314 1315 1316
f 1314 1316 1289
f 1289 1316 1291
f 1315 1317 1316
f 1316 1317 1318
f 1316 1318 1291
f 1291 1318 1293
f 1317 1319 1318
f 1318 1319 1320
f 1318 1320 1293
f 1293 1320 1295
f 1319 1321 1320
f 1320 1321 1322
f 1320 1322 1295
f 1321 1323 1322
f 1271 1324 1269
f 1269 1324 1262
f 1269 1262 1260
f 1263 1325 1261
f 1269 1260 1264
f 1326 1327 1328
f 1328 1327 1329
f 1328 1329 1330
f 1330 1329 1331
f 1330 1331 1332
f 1332 1331 1333
f 1332 1333 1334
f 1334 1333 1335
f 1335 1333 1336
f 1335 1336 1337
f 1337 1336 1338
f 1337 1338 1339
f 1339 1338 1340
f 1339 1340 1341
f 1341 1340 1342
f 1342 1340 1343
f 1342 1343 1344
f 1344 1343 1345
f 1344 1345 1346
f 1346 1345 1347
f 1347 1345 1348
f 1347 1348 1349
f 1349 1348 1350
f 1349 1350 1351
f 1351 1350 1352
f 1352 1350 1353
f 1352 1353 1354
f 1354 1353 1355
f 1354 1355 1356
f 1356 1355 1357
f 1357 1355 1358
f 1357 1358 1359
f 1359 1358 1360
f 1359 1360 1361
f 1361 1360 1362
f 1361 1362 1363
f 1363 1362 1364
f 1363 1364 1365
f 1365 1364 1366
f 1366 1364 1367
f 1367 1364 1368
f 1367 1368 1369
f 1369 1368 1370
f 1369 1370 1371
f 1371 1370 1372
f 1371 1372 1373
f 1373 1372 1355
f 1373 1355 1353
f 1329 1327 1374
f 1374 1327 1375
f 1374 1375 1376
f 1376 1375 1377
f 1376 1377 1378
f 1379 1380 1378
f 1378 1380 1376
f 1380 1381 1376
f 1376 1381 1382
f 1376 1382 1374
f 1374 1382 1383
f 1374 1383 1329
f 1329 1383 1331
f 1381 1384 1382
f 1382 1384 1385
f 1382 1385 1383
f 1383 1385 1386
f 1383 1386 1331
f 1331 1386 1333
f 1384 1387 1385
f 1385 1387 1388
f 1385 1388 1386
f 1386 1388 1389
f 1386 1389 1333
f 1333 1389 1336
f 1387 1390 1388
f 1388 1390 1391
f 1388 1391 1392
f 1392 1391 1393
f 1392 1393 1394
f 1394 1393 1395
f 1394 1395 1396
f 1396 1395 1397
f 1396 1397 1398
f 1398 1397 1399
f 1398 1399 1400
f 1398 1400 1401
f 1401 1400 1402
f 1401 1402 1403
f 1403 1402 1404
f 1403 1404 1405
f 1403 1405 1406
f 1406 1405 1407
f 1406 1407 1408
f 1408 1407 1409
f 1408 1409 1410
f 1410 1411 1408
f 1408 1411 1371
f 1408 1371 1373
f 1411 1369 1371
f 1365 1412 1363
f 1363 1412 1413
f 1363 1413 1361
f 1361 1413 1414
f 1361 1414 1359
f 1412 1415 1413
f 1413 1415 1414
f 1338 1336 1416
f 1416 1336 1389
f 1416 1389 1392
f 1392 1389 1388
f 1340 1338 1417
f 1417 1338 1416
f 1417 1416 1394
f 1394 1416 1392
f 1343 1340 1418
f 1418 1340 1417
f 1418 1417 1396
f 1396 1417 1394
f 1345 1343 1419
f 1419 1343 1418
f 1419 1418 1398
f 1398 1418 1396
f 1348 1345 1420
f 1420 1345 1419
f 1420 1419 1401
f 1401 1419 1398
f 1350 1348 1421
f 1421 1348 1420
f 1421 1420 1403
f 1403 1420 1401
f 1353 1350 1422
f 1422 1350 1421
f 1422 1421 1406
f 1406 1421 1403
f 1355 1372 1358
f 1358 1372 1423
f 1358 1423 1360
f 1360 1423 1362
f 1408 1373 1422
f 1422 1373 1353
f 1408 1422 1406
f 1372 1370 1423
f 1423 1370 1368
f 1423 1368 1362
f 1362 1368 1364
f 1424 1425 1426
f 1426 1425 1427
f 1426 1427 1428
f 1425 1424 1429
f 1429 1424 1430
f 1429 1430 1431
f 1431 1432 1429
f 1429 1432 1433
f 1429 1433 1434
f 1434 1433 1435
f 1434 1435 1436
f 1436 1435 1437
f 1437 1435 1438
f 1437 1438 1439
f 1439 1438 1440
f 1439 1440 1441
f 1441 1440 1442
f 1441 1442 1443
f 1443 1442 1444
f 1443 1444 1445
f 1445 1444 1446
f 1445 1446 1447
f 1447 1446 1448
f 1447 1448 1449
f 1449 1448 1450
f 1449 1450 1451
f 1451 1450 1452
f 1451 1452 1453
f 1453 1452 1454
f 1453 1454 1455
f 1455 1454 1456
f 1455 1456 1457
f 1457 1456 1458
f 1458 1456 1459
f 1458 1459 1460
f 1460 1459 1461
f 1460 1461 1462
f 1462 1461 1463
f 1462 1463 1464
f 1464 1463 1465
f 1464 1465 1466
f 1466 1465 1467
f 1466 1467 1468
f 1468 1467 1469
f 1468 1469 1470
f 1470 1469 1471
f 1470 1471 1472
f 1472 1471 1473
f 1472 1473 1474
f 1474 1473 1475
f 1474 1475 1476
f 1476 1475 1477
f 1476 1477 1478
f 1478 1477 1479
f 1478 1479 1480
f 1480 1479 1481
f 1481 1479 1482
f 1481 1482 1483
f 1483 1482 1484
f 1483 1484 1485
f 1485 1484 1486
f 1485 1486 1487
f 1487 1486 1488
f 1487 1488 1489
f 1489 1488 1490
f 1489 1490 1491
f 1491 1490 1492
f 1492 1490 1493
f 1492 1493 1494
f 1494 1493 1495
f 1494 1495 1496
f 1432 1497 1433
f 1433 1497 1498
f 1433 1498 1435
f 1435 1498 1438
f 1497 1499 1498
f 1498 1499 1500
f 1498 1500 1438
f 1438 1500 1440
f 1499 1501 1500
f 1500 1501 1502
f 1500 1502 1440
f 1440 1502 1442
f 1501 1503 1502
f 1502 1503 1504
f 1502 1504 1442
f 1442 1504 1444
f 1503 1505 1504
f 1504 1505 1506
f 1504 1506 1444
f 1444 1506 1446
f 1505 1507 1506
f 1506 1507 1508
f 1506 1508 1446
f 1446 1508 1448
f 1507 1509 1508
f 1508 1509 1510
f 1508 1510 1448
f 1448 1510 1450
f 1509 1511 1510
f 1510 1511 1512
f 1510 1512 1450
f 1450 1512 1452
f 1511 1513 1512
f 1512 1513 1514
f 1512 1514 1452
f 1452 1514 1454
f 1513 1515 1514
f 1514 1515 1516
f 1514 1516 1454
f 1454 1516 1456
f 1515 1517 1516
f 1516 1517 1518
f 1516 1518 1456
f 1456 1518 1459
f 1517 1519 1518
f 1518 1519 1520
f 1518 1520 1459
f 1459 1520 1461
f 1519 1521 1520
f 1520 1521 1522
f 1520 1522 1461
f 1461 1522 1463
f 1521 1523 1522
f 1522 1523 1524
f 1522 1524 1463
f 1463 1524 1465
f 1523 1525 1524
f 1524 1525 1526
f 1524 1526 1465
f 1465 1526 1467
f 1525 1527 1526
f 1526 1527 1528
f 1526 1528 1467
f 1467 1528 1469
f 1527 1529 1528
f 1528 1529 1530
f 1528 1530 1469
f 1469 1530 1471
f 1529 1531 1530
f 1530 1531 1532
f 1530 1532 1471
f 1471 1532 1473
f 1531 1533 1532
f 1532 1533 1534
f 1532 1534 1473
f 1473 1534 1475
f 1533 1535 1534
f 1534 1535 1536
f 1534 1536 1475
f 1475 1536 1477
f 1535 1537 1536
f 1536 1537 1538
f 1536 1538 1477
f 1477 1538 1479
f 1537 1539 1538
f 1538 1539 1540
f 1538 1540 1479
f 1479 1540 1482
f 1539 1541 1540
f 1540 1541 1542
f 1540 1542 1482
f 1482 1542 1484
f 1541 1543 1542
f 1542 1543 1544
f 1542 1544 1484
f 1484 1544 1486
f 1543 1545 1544
f 1544 1545 1546
f 1544 1546 1486
f 1486 1546 1488
f 1545 1547 1546
f 1546 1547 1548
f 1546 1548 1488
f 1488 1548 1490
f 1547 1495 1548
f 1548 1495 1493
f 1548 1493 1490
f 1489 1491 1549
f 1549 1491 1550
f 1549 1550 1551
f 1551 1550 1552
f 1551 1552 1553
f 1553 1552 1554
f 1553 1554 1555
f 1555 1556 1553
f 1553 1556 1557
f 1553 1557 1558
f 1558 1557 1559
f 1558 1559 1560
f 1560 1559 1561
f 1561 1559 1562
f 1561 1562 1563
f 1563 1562 1564
f 1563 1564 1565
f 1565 1564 1566
f 1565 1566 1567
f 1567 1566 1568
f 1568 1566 1569
f 1568 1569 1570
f 1570 1569 1571
f 1570 1571 1572
f 1572 1571 1573
f 1572 1573 1574
f 1574 1573 1575
f 1574 1575 1576
f 1576 1575 1577
f 1576 1577 1578
f 1578 1577 1579
f 1578 1579 1580
f 1580 1579 1581
f 1580 1581 1582
f 1582 1581 1583
f 1582 1583 1584
f 1584 1583 1585
f 1584 1585 1586
f 1586 1585 1587
f 1586 1587 1588
f 1588 1587 1589
f 1588 1589 1590
f 1590 1589 1591
f 1591 1589 1592
f 1591 1592 1593
f 1593 1592 1594
f 1593 1594 1595
f 1595 1594 1596
f 1595 1596 1597
f 1597 1596 1598
f 1597 1598 1599
f 1599 1598 1600
f 1599 1600 1601
f 1601 1600 1602
f 1601 1602 1603
f 1603 1602 1604
f 1603 1604 1605
f 1605 1604 1606
f 1605 1606 1607
f 1607 1606 1608
f 1607 1608 1609
f 1609 1608 1610
f 1609 1610 1611
f 1611 1610 1612
f 1611 1612 1613
f 1613 1612 1614
f 1613 1614 1615
f 1615 1614 1616
f 1615 1616 1617
f 1617 1616 1618
f 1618 1616 1619
f 1619 1616 1620
f 1620 1616 1621
f 1556 1622 1557
f 1557 1622 1623
f 1557 1623 1559
f 1559 1623 1562
f 1622 1624 1623
f 1623 1624 1625
f 1623 1625 1562
f 1562 1625 1564
f 1624 1626 1625
f 1625 1626 1627
f 1625 1627 1564
f 1564 1627 1628
f 1564 1628 1566
f 1566 1628 1629
f 1566 1629 1569
f 1569 1629 1571
f 1626 1630 1627
f 1627 1630 1628
f 1630 1631 1628
f 1628 1631 1629
f 1631 1632 1629
f 1629 1632 1633
f 1629 1633 1571
f 1571 1633 1573
f 1632 1634 1633
f 1633 1634 1635
f 1633 1635 1573
f 1573 1635 1575
f 1634 1636 1635
f 1635 1636 1637
f 1635 1637 1575
f 1575 1637 1577
f 1636 1638 1637
f 1637 1638 1639
f 1637 1639 1577
f 1577 1639 1579
f 1638 1640 1639
f 1639 1640 1641
f 1639 1641 1579
f 1579 1641 1581
f 1640 1642 1641
f 1641 1642 1643
f 1641 1643 1581
f 1581 1643 1583
f 1642 1644 1643
f 1643 1644 1645
f 1643 1645 1583
f 1583 1645 1585
f 1644 1646 1645
f 1645 1646 1647
f 1645 1647 1585
f 1585 1647 1587
f 1646 1648 1647
f 1647 1648 1649
f 1647 1649 1587
f 1587 1649 1589
f 1648 1650 1649
f 1649 1650 1651
f 1649 1651 1589
f 1589 1651 1592
f 1650 1652 1651
f 1651 1652 1653
f 1651 1653 1592
f 1592 1653 1594
f 1652 1654 1653
f 1653 1654 1655
f 1653 1655 1594
f 1594 1655 1596
f 1654 1656 1655
f 1655 1656 1657
f 1655 1657 1596
f 1596 1657 1598
f 1656 1658 1657
f 1657 1658 1659
f 1657 1659 1598
f 1598 1659 1600
f 1658 1660 1659
f 1659 1660 1661
f 1659 1661 1600
f 1600 1661 1602
f 1660 1662 1661
f 1661 1662 1663
f 1661 1663 1602
f 1602 1663 1604
f 1662 1664 1663
f 1663 1664 1665
f 1663 1665 1604
f 1604 1665 1606
f 1664 1666 1665
f 1665 1666 1667
f 1665 1667 1606
f 1606 1667 1608
f 1666 1668 1667
f 1667 1668 1669
f 1667 1669 1608
f 1608 1669 1610
f 1668 1670 1669
f 1669 1670 1671
f 1669 1671 1610
f 1610 1671 1612
f 1670 1672 1671
f 1671 1672 1673
f 1671 1673 1612
f 1612 1673 1614
f 1672 1674 1673
f 1673 1674 1675
f 1673 1675 1614
f 1614 1675 1676
f 1614 1676 1616
f 1674 1677 1675
f 1675 1677 1678
f 1675 1678 1676
f 1560 1679 1558
f 1558 1679 1551
f 1558 1551 1553
f 1679 1549 1551
f 1436 1680 1434
f 1434 1680 1425
f 1434 1425 1429
f 1680 1427 1425
f 1428 1681 1426
f 1426 1681 1682

