# https://github.com/mikedh/trimesh
v 0.00200021 -0.20407920 0.04210275
v 0.00200021 -0.20457420 0.04160773
v 0.00200021 -0.20344371 0.04146730
v 0.00200021 -0.20393869 0.04097229
v 0.00200021 -0.20393869 0.04097229
v 0.00099876 -0.20395990 0.04099351
v 0.00200021 -0.20344371 0.04146730
v 0.00099876 -0.20346490 0.04148846
v 0.00002147 -0.20396671 0.04100036
v 0.00002147 -0.20347179 0.04149532
v 0.00002147 -0.20396671 0.04100036
v -0.00148708 -0.20395011 0.04098373
v 0.00002147 -0.20347179 0.04149532
v -0.00148708 -0.20345519 0.04147869
v -0.00299972 -0.20390020 0.04093378
v -0.00299972 -0.20340520 0.04142874
v -0.00299972 -0.20457420 0.04160773
v -0.00299972 -0.20407920 0.04210275
v -0.00299972 -0.20390020 0.04093378
v -0.00299972 -0.20340520 0.04142874
v -0.00249976 -0.20443270 0.04245626
v -0.00249976 -0.20492770 0.04196131
v 0.00150019 -0.20443270 0.04245626
v 0.00150019 -0.20443270 0.04245626
v -0.00249976 -0.20492770 0.04196131
v 0.00150019 -0.20492770 0.04196131
v -0.00299972 -0.20340520 0.04142874
v -0.00299972 -0.20407920 0.04210275
v -0.00148708 -0.20345519 0.04147869
v -0.00148708 -0.20345519 0.04147869
v -0.00299972 -0.20407920 0.04210275
v 0.00002147 -0.20347179 0.04149532
v 0.00002147 -0.20347179 0.04149532
v -0.00299972 -0.20407920 0.04210275
v 0.00200021 -0.20407920 0.04210275
v 0.00002147 -0.20347179 0.04149532
v 0.00200021 -0.20407920 0.04210275
v 0.00099876 -0.20346490 0.04148846
v 0.00099876 -0.20346490 0.04148846
v 0.00200021 -0.20344371 0.04146730
v -0.00293273 -0.20425589 0.04227948
v 0.00150019 -0.20443270 0.04245626
v -0.00299972 -0.20407920 0.04210275
v -0.00299972 -0.20407920 0.04210275
v 0.00150019 -0.20443270 0.04245626
v 0.00193322 -0.20425589 0.04227948
v -0.00299972 -0.20407920 0.04210275
v 0.00193322 -0.20425589 0.04227948
v 0.00200021 -0.20407920 0.04210275
v -0.00274974 -0.20438540 0.04240894
v -0.00249976 -0.20443270 0.04245626
v -0.00293273 -0.20425589 0.04227948
v -0.00293273 -0.20425589 0.04227948
v -0.00249976 -0.20443270 0.04245626
v 0.00150019 -0.20443270 0.04245626
v 0.00150019 -0.20443270 0.04245626
v 0.00175023 -0.20438540 0.04240894
v 0.00193322 -0.20425589 0.04227948
v -0.00249976 -0.20492770 0.04196131
v -0.00249976 -0.20443270 0.04245626
v -0.00274974 -0.20488040 0.04191392
v -0.00274974 -0.20438540 0.04240894
v -0.00293273 -0.20475100 0.04178452
v -0.00293273 -0.20425589 0.04227948
v -0.00299972 -0.20457420 0.04160773
v 0.00200021 -0.20457420 0.04160773
v 0.00200021 -0.20407920 0.04210275
v 0.00193322 -0.20475100 0.04178452
v 0.00193322 -0.20425589 0.04227948
v 0.00175023 -0.20488040 0.04191392
v 0.00175023 -0.20438540 0.04240894
v 0.00150019 -0.20492770 0.04196131
v 0.00150019 -0.20443270 0.04245626
f 1 2 3
f 3 2 4
f 5 6 7
f 7 6 8
f 8 6 9
f 8 9 10
f 11 12 13
f 13 12 14
f 14 12 15
f 14 15 16
f 17 18 19
f 19 18 20
f 21 22 23
f 24 25 26
f 27 28 29
f 30 31 32
f 33 34 35
f 36 37 38
f 39 35 40
f 41 42 43
f 44 45 46
f 47 48 49
f 50 51 52
f 53 54 55
f 56 57 58
f 59 60 61
f 61 60 62
f 61 62 63
f 63 62 64
f 63 64 65
f 65 64 18
f 66 67 68
f 68 67 69
f 68 69 70
f 70 69 71
f 70 71 72
f 72 71 73

