# https://github.com/mikedh/trimesh
v -0.05194181 0.06320965 0.00999999
v -0.05099999 0.06400001 0.00926119
v -0.05222946 0.06400001 0.00999999
v -0.05038523 0.06293523 0.00999999
v -0.05099999 0.06400001 0.00926119
v -0.05121344 0.06278914 0.00999999
v -0.04984462 0.06442052 0.00999999
v -0.05099999 0.06400001 0.00926119
v -0.04984462 0.06357949 0.00999999
v -0.05121344 0.06521081 0.00999999
v -0.05099999 0.06400001 0.00926119
v -0.05038523 0.06506478 0.00999999
v -0.05222946 0.06400001 0.00999999
v -0.05099999 0.06400001 0.00926119
v -0.05194181 0.06479030 0.00999999
v -0.05038523 0.06506478 0.00999999
v -0.05099999 0.06400001 0.00926119
v -0.04984462 0.06442052 0.00999999
v -0.05194181 0.06479030 0.00999999
v -0.05099999 0.06400001 0.00926119
v -0.04984462 0.06357949 0.00999999
v -0.05099999 0.06400001 0.00926119
v -0.05121344 0.06278914 0.00999999
v -0.05099999 0.06400001 0.00926119
v -0.05194181 0.06320965 0.00999999
v -0.05194181 0.06320965 0.01599997
v -0.05194181 0.06320965 0.00999999
v -0.05222946 0.06400001 0.01599997
v -0.05222946 0.06400001 0.00999999
v -0.05194181 0.06479030 0.01599997
v -0.05194181 0.06479030 0.00999999
v -0.05121344 0.06521081 0.01599997
v -0.05121344 0.06521081 0.00999999
v -0.05038523 0.06506478 0.01599997
v -0.05038523 0.06506478 0.00999999
v -0.04984462 0.06442052 0.01599997
v -0.04984462 0.06442052 0.00999999
v -0.04984462 0.06357949 0.01599997
v -0.04984462 0.06357949 0.00999999
v -0.05038523 0.06293523 0.01599997
v -0.05038523 0.06293523 0.00999999
v -0.05121344 0.06278914 0.01599997
v -0.05121344 0.06278914 0.00999999
v -0.04699999 0.06499999 0.02097260
v -0.04699999 0.06499999 0.01599997
v -0.04701310 0.06463795 0.02099996
v -0.04738056 0.06308656 0.01599997
v -0.04749137 0.06283843 0.02099996
v -0.04846441 0.06146442 0.01599997
v -0.04859483 0.06133866 0.02099996
v -0.05008655 0.06038057 0.01599997
v -0.05017054 0.06034666 0.02099996
v -0.05199998 0.06000000 0.01599997
v -0.05199998 0.06000000 0.02099996
v -0.04699999 0.06499999 0.02097260
v -0.04699999 0.06606286 0.02046418
v -0.04699999 0.06499999 0.01599997
v -0.04699999 0.07060974 0.01599997
v -0.05995613 0.06000000 0.01599997
v -0.05452799 0.06000000 0.02046418
v -0.05199998 0.06000000 0.01599997
v -0.05199998 0.06000000 0.02099996
v -0.05452799 0.06000000 0.02046418
v -0.05280435 0.06000000 0.02099996
v -0.05280435 0.06000000 0.02099996
v -0.05371612 0.06000000 0.02087217
v -0.04699999 0.07060974 0.01599997
v -0.05154883 0.06736057 0.01599997
v -0.04699999 0.06499999 0.01599997
v -0.05038523 0.06506478 0.01599997
v -0.04984462 0.06442052 0.01599997
v -0.05587381 0.06381887 0.01599997
v -0.05194181 0.06479030 0.01599997
v -0.05121344 0.06521081 0.01599997
v -0.05995613 0.06000000 0.01599997
v -0.05199998 0.06000000 0.01599997
v -0.05194181 0.06320965 0.01599997
v -0.05222946 0.06400001 0.01599997
v -0.05121344 0.06278914 0.01599997
v -0.05008655 0.06038057 0.01599997
v -0.05038523 0.06293523 0.01599997
v -0.04846441 0.06146442 0.01599997
v -0.04984462 0.06357949 0.01599997
v -0.04738056 0.06308656 0.01599997
v 0.03530550 -0.03652197 0.02329999
v 0.03818374 -0.03818374 0.02529692
v 0.03486025 -0.03818374 0.02329999
v 0.03818374 -0.03486025 0.02329999
v 0.03818374 -0.03818374 0.02529692
v 0.03652197 -0.03530550 0.02329999
v 0.04106199 -0.03652197 0.02329999
v 0.03818374 -0.03818374 0.02529692
v 0.03984546 -0.03530550 0.02329999
v 0.04106199 -0.03984546 0.02329999
v 0.03818374 -0.03818374 0.02529692
v 0.04150724 -0.03818374 0.02329999
v 0.03818374 -0.04150724 0.02329999
v 0.03818374 -0.03818374 0.02529692
v 0.03984546 -0.04106199 0.02329999
v 0.03530550 -0.03984546 0.02329999
v 0.03818374 -0.03818374 0.02529692
v 0.03652197 -0.04106199 0.02329999
v 0.03486025 -0.03818374 0.02329999
v 0.03818374 -0.03818374 0.02529692
v 0.03530550 -0.03984546 0.02329999
v 0.03984546 -0.04106199 0.02329999
v 0.03818374 -0.03818374 0.02529692
v 0.04106199 -0.03984546 0.02329999
v 0.03984546 -0.03530550 0.02329999
v 0.03818374 -0.03818374 0.02529692
v 0.03818374 -0.03486025 0.02329999
v 0.03652197 -0.04106199 0.02329999
v 0.03818374 -0.03818374 0.02529692
v 0.03818374 -0.04150724 0.02329999
v 0.04150724 -0.03818374 0.02329999
v 0.03818374 -0.03818374 0.02529692
v 0.04106199 -0.03652197 0.02329999
v 0.03652197 -0.03530550 0.02329999
v 0.03818374 -0.03818374 0.02529692
v 0.03530550 -0.03652197 0.02329999
v 0.03530550 -0.03652197 0.00000000
v 0.03530550 -0.03652197 0.02329999
v 0.03486025 -0.03818374 0.00000000
v 0.03486025 -0.03818374 0.02329999
v 0.03486025 -0.03818374 0.00000000
v 0.03486025 -0.03818374 0.02329999
v 0.03530550 -0.03984546 0.00000000
v 0.03530550 -0.03984546 0.02329999
v 0.03652197 -0.04106199 0.00000000
v 0.03652197 -0.04106199 0.02329999
v 0.03818374 -0.04150724 0.00000000
v 0.03818374 -0.04150724 0.02329999
v 0.03984546 -0.04106199 0.00000000
v 0.03984546 -0.04106199 0.02329999
v 0.04106199 -0.03984546 0.00000000
v 0.04106199 -0.03984546 0.02329999
v 0.04150724 -0.03818374 0.00000000
v 0.04150724 -0.03818374 0.02329999
v 0.04106199 -0.03652197 0.00000000
v 0.04106199 -0.03652197 0.02329999
v 0.03984546 -0.03530550 0.00000000
v 0.03984546 -0.03530550 0.02329999
v 0.03818374 -0.03486025 0.00000000
v 0.03818374 -0.03486025 0.02329999
v 0.03652197 -0.03530550 0.00000000
v 0.03652197 -0.03530550 0.02329999
v -0.04106199 0.03984546 0.02329999
v -0.03818374 0.03818374 0.02529692
v -0.04150724 0.03818374 0.02329999
v -0.03818374 0.04150724 0.02329999
v -0.03818374 0.03818374 0.02529692
v -0.03984546 0.04106199 0.02329999
v -0.03530550 0.03984546 0.02329999
v -0.03818374 0.03818374 0.02529692
v -0.03652197 0.04106199 0.02329999
v -0.03530550 0.03652197 0.02329999
v -0.03818374 0.03818374 0.02529692
v -0.03486025 0.03818374 0.02329999
v -0.03818374 0.03486025 0.02329999
v -0.03818374 0.03818374 0.02529692
v -0.03652197 0.03530550 0.02329999
v -0.04106199 0.03652197 0.02329999
v -0.03818374 0.03818374 0.02529692
v -0.03984546 0.03530550 0.02329999
v -0.04150724 0.03818374 0.02329999
v -0.03818374 0.03818374 0.02529692
v -0.04106199 0.03652197 0.02329999
v -0.03652197 0.03530550 0.02329999
v -0.03818374 0.03818374 0.02529692
v -0.03530550 0.03652197 0.02329999
v -0.03652197 0.04106199 0.02329999
v -0.03818374 0.03818374 0.02529692
v -0.03818374 0.04150724 0.02329999
v -0.03984546 0.03530550 0.02329999
v -0.03818374 0.03818374 0.02529692
v -0.03818374 0.03486025 0.02329999
v -0.03486025 0.03818374 0.02329999
v -0.03818374 0.03818374 0.02529692
v -0.03530550 0.03984546 0.02329999
v -0.03984546 0.04106199 0.02329999
v -0.03818374 0.03818374 0.02529692
v -0.04106199 0.03984546 0.02329999
v -0.04106199 0.03984546 -0.00000000
v -0.04106199 0.03984546 0.02329999
v -0.04150724 0.03818374 -0.00000000
v -0.04150724 0.03818374 0.02329999
v -0.04150724 0.03818374 -0.00000000
v -0.04150724 0.03818374 0.02329999
v -0.04106199 0.03652197 -0.00000000
v -0.04106199 0.03652197 0.02329999
v -0.03984546 0.03530550 -0.00000000
v -0.03984546 0.03530550 0.02329999
v -0.03818374 0.03486025 -0.00000000
v -0.03818374 0.03486025 0.02329999
v -0.03652197 0.03530550 -0.00000000
v -0.03652197 0.03530550 0.02329999
v -0.03530550 0.03652197 -0.00000000
v -0.03530550 0.03652197 0.02329999
v -0.03486025 0.03818374 -0.00000000
v -0.03486025 0.03818374 0.02329999
v -0.03530550 0.03984546 -0.00000000
v -0.03530550 0.03984546 0.02329999
v -0.03652197 0.04106199 -0.00000000
v -0.03652197 0.04106199 0.02329999
v -0.03818374 0.04150724 -0.00000000
v -0.03818374 0.04150724 0.02329999
v -0.03984546 0.04106199 -0.00000000
v -0.03984546 0.04106199 0.02329999
v 0.03535532 0.04242634 0.00799996
v 0.03535532 0.04242634 -0.00000000
v 0.03723943 0.04361027 0.00799996
v 0.03723943 0.04361027 -0.00000000
v 0.03945064 0.04385942 0.00799996
v 0.03945064 0.04385942 -0.00000000
v 0.04155099 0.04312443 0.00799996
v 0.04155099 0.04312443 -0.00000000
v 0.04312449 0.04155099 0.00799996
v 0.04312449 0.04155099 -0.00000000
v 0.04385942 0.03945064 0.00799996
v 0.04385942 0.03945064 -0.00000000
v 0.04361027 0.03723943 0.00799996
v 0.04361027 0.03723943 -0.00000000
v 0.04242640 0.03535532 0.00799996
v 0.04242640 0.03535532 -0.00000000
v 0.04101216 0.03394109 -0.00000000
v 0.04101216 0.03394109 0.00799996
v 0.03912800 0.03275722 0.00799996
v 0.03912800 0.03275722 -0.00000000
v 0.03691679 0.03250807 0.00799996
v 0.03691679 0.03250807 -0.00000000
v 0.03481650 0.03324300 0.00799996
v 0.03481650 0.03324300 -0.00000000
v 0.03324300 0.03481650 0.00799996
v 0.03324300 0.03481650 -0.00000000
v 0.03250807 0.03691679 0.00799996
v 0.03250807 0.03691679 -0.00000000
v 0.03275722 0.03912800 0.00799996
v 0.03275722 0.03912800 -0.00000000
v 0.03394109 0.04101216 0.00799996
v 0.03394109 0.04101216 -0.00000000
v 0.03535532 0.04242634 0.00799996
v 0.04101216 0.03394109 0.00799996
v 0.03394109 0.04101216 0.00799996
v 0.03912800 0.03275722 0.00799996
v 0.03691679 0.03250807 0.00799996
v 0.04242640 0.03535532 0.00799996
v 0.03723943 0.04361027 0.00799996
v 0.03945064 0.04385942 0.00799996
v 0.04155099 0.04312443 0.00799996
v 0.04312449 0.04155099 0.00799996
v 0.04361027 0.03723943 0.00799996
v 0.04385942 0.03945064 0.00799996
v 0.03481650 0.03324300 0.00799996
v 0.03324300 0.03481650 0.00799996
v 0.03275722 0.03912800 0.00799996
v 0.03250807 0.03691679 0.00799996
v -0.04268860 -0.04035317 0.00799996
v -0.04268860 -0.04035317 0.00000000
v -0.04318374 -0.03818374 0.00799996
v -0.04318374 -0.03818374 0.00000000
v -0.04268860 -0.03601431 0.00799996
v -0.04268860 -0.03601431 0.00000000
v -0.04130119 -0.03427457 0.00799996
v -0.04130119 -0.03427457 0.00000000
v -0.03929632 -0.03330910 0.00799996
v -0.03929632 -0.03330910 0.00000000
v -0.03707110 -0.03330910 0.00799996
v -0.03707110 -0.03330910 0.00000000
v -0.03506630 -0.03427457 0.00799996
v -0.03506630 -0.03427457 0.00000000
v -0.03367888 -0.03601431 0.00799996
v -0.03367888 -0.03601431 0.00000000
v -0.03318375 -0.03818374 0.00799996
v -0.03318375 -0.03818374 0.00000000
v -0.03367888 -0.04035317 0.00799996
v -0.03367888 -0.04035317 0.00000000
v -0.03506630 -0.04209291 0.00799996
v -0.03506630 -0.04209291 0.00000000
v -0.03707110 -0.04305839 0.00799996
v -0.03707110 -0.04305839 0.00000000
v -0.03929632 -0.04305839 0.00799996
v -0.03929632 -0.04305839 0.00000000
v -0.04130119 -0.04209291 0.00799996
v -0.04130119 -0.04209291 0.00000000
v -0.04268860 -0.03601431 0.00799996
v -0.03318375 -0.03818374 0.00799996
v -0.04318374 -0.03818374 0.00799996
v -0.03367888 -0.04035317 0.00799996
v -0.04268860 -0.04035317 0.00799996
v -0.03506630 -0.04209291 0.00799996
v -0.04130119 -0.04209291 0.00799996
v -0.03707110 -0.04305839 0.00799996
v -0.03929632 -0.04305839 0.00799996
v -0.03367888 -0.03601431 0.00799996
v -0.04130119 -0.03427457 0.00799996
v -0.03506630 -0.03427457 0.00799996
v -0.03929632 -0.03330910 0.00799996
v -0.03707110 -0.03330910 0.00799996
v -0.01384997 0.08122879 0.01492029
v -0.01199996 0.08122879 0.02599996
v -0.01384997 0.08122879 0.03707969
v -0.01384997 0.08122879 0.03707969
v -0.01199996 0.08122879 0.02599996
v -0.01199889 0.08122879 0.02617633
v -0.01199889 0.08122879 0.02617633
v -0.01199334 0.08122879 0.02641814
v -0.01324343 0.08122879 0.01508581
v -0.01084804 0.08122879 0.02087336
v -0.01098841 0.08122879 0.02117949
v -0.01109004 0.08122879 0.02141666
v -0.01261502 0.08122879 0.01506441
v -0.01034408 0.08122879 0.01992613
v -0.01066291 0.08122879 0.02050155
v -0.01202118 0.08122879 0.01485794
v -0.00972617 0.08122879 0.01897895
v -0.01004570 0.08122879 0.01944535
v -0.01151502 0.08122879 0.01448488
v -0.00881189 0.08122879 0.01785546
v -0.00904435 0.08122879 0.01811558
v -0.00931626 0.08122879 0.01844090
v -0.01114201 0.08122879 0.01397877
v -0.00848526 0.08122879 0.01751470
v -0.00862432 0.08122879 0.01765620
v -0.00862432 0.08122879 0.01765620
v -0.00757605 0.08122879 0.01669406
v -0.01093554 0.08122879 0.01338487
v -0.00658804 0.08122879 0.01597023
v -0.01091414 0.08122879 0.01275652
v -0.00553137 0.08122879 0.01535099
v -0.01107966 0.08122879 0.01214998
v -0.00441712 0.08122879 0.01484251
v -0.00423968 0.08122879 0.01477366
v -0.00399494 0.08122879 0.01468378
v -0.00399494 0.08122879 0.01468378
v -0.01107966 0.08122879 0.01214998
v -0.00368136 0.08122879 0.01457697
v -0.00368136 0.08122879 0.01457697
v -0.01107966 0.08122879 0.01214998
v -0.00329733 0.08122879 0.01445913
v -0.00329733 0.08122879 0.01445913
v -0.01107966 0.08122879 0.01214998
v -0.00270152 0.08122879 0.01430374
v -0.00270152 0.08122879 0.01430374
v -0.00219357 0.08122879 0.01419746
v -0.00219357 0.08122879 0.01419746
v -0.00169581 0.08122879 0.01411628
v -0.00169581 0.08122879 0.01411628
v -0.00109726 0.08122879 0.01404768
v -0.00109726 0.08122879 0.01404768
v -0.00072629 0.08122879 0.01402050
v -0.00072629 0.08122879 0.01402050
v -0.01107966 0.08122879 0.01214998
v -0.00041947 0.08122879 0.01400667
v -0.00041947 0.08122879 0.01400667
v -0.01107966 0.08122879 0.01214998
v -0.00017732 0.08122879 0.01400107
v -0.00017732 0.08122879 0.01400107
v -0.01107966 0.08122879 0.01214998
v 0.00000000 0.08122879 0.01399999
v 0.00000000 0.08122879 0.01399999
v 0.01107966 0.08122879 0.01214998
v 0.00109631 0.08122879 0.01405018
v 0.00218356 0.08122879 0.01420032
v 0.00329965 0.08122879 0.01446408
v 0.00349098 0.08122879 0.01452052
v 0.00386441 0.08122879 0.01464015
v 0.00386441 0.08122879 0.01464015
v 0.01107966 0.08122879 0.01214998
v 0.00421107 0.08122879 0.01476335
v 0.00421107 0.08122879 0.01476335
v 0.00441712 0.08122879 0.01484251
v 0.00441712 0.08122879 0.01484251
v 0.01107966 0.08122879 0.01214998
v 0.00458330 0.08122879 0.01490986
v 0.00458330 0.08122879 0.01490986
v 0.01107966 0.08122879 0.01214998
v 0.00482047 0.08122879 0.01501154
v 0.00482047 0.08122879 0.01501154
v 0.00512660 0.08122879 0.01515191
v 0.00512660 0.08122879 0.01515191
v 0.01107966 0.08122879 0.01214998
v 0.01091414 0.08122879 0.01275652
v 0.01091414 0.08122879 0.01275652
v 0.00549841 0.08122879 0.01533699
v 0.00607383 0.08122879 0.01565587
v 0.01093554 0.08122879 0.01338487
v 0.00607383 0.08122879 0.01565587
v 0.01093554 0.08122879 0.01338487
v 0.00655460 0.08122879 0.01595425
v 0.00655460 0.08122879 0.01595425
v 0.00702101 0.08122879 0.01627379
v 0.01114201 0.08122879 0.01397877
v 0.00755906 0.08122879 0.01668363
v 0.00788432 0.08122879 0.01695561
v 0.00788432 0.08122879 0.01695561
v 0.01114201 0.08122879 0.01397877
v 0.00814450 0.08122879 0.01718807
v 0.00814450 0.08122879 0.01718807
v 0.01151508 0.08122879 0.01448488
v 0.00834376 0.08122879 0.01737564
v 0.00848526 0.08122879 0.01751470
v 0.01202118 0.08122879 0.01485794
v 0.00930589 0.08122879 0.01842391
v 0.00930589 0.08122879 0.01842391
v 0.01261502 0.08122879 0.01506441
v 0.01261502 0.08122879 0.01506441
v 0.01002973 0.08122879 0.01941192
v 0.01002973 0.08122879 0.01941192
v 0.01324343 0.08122879 0.01508581
v 0.01324343 0.08122879 0.01508581
v 0.01064896 0.08122879 0.02046859
v 0.01384997 0.08122879 0.01492029
v 0.01384997 0.08122879 0.01492029
v 0.01115745 0.08122879 0.02158284
v 0.01122641 0.08122879 0.02176052
v 0.01131629 0.08122879 0.02200543
v 0.01142305 0.08122879 0.02231889
v 0.01142305 0.08122879 0.02231889
v 0.01384997 0.08122879 0.01492029
v 0.01154083 0.08122879 0.02270269
v 0.01154083 0.08122879 0.02270269
v 0.01169627 0.08122879 0.02329874
v 0.01180249 0.08122879 0.02380651
v 0.01188379 0.08122879 0.02430486
v 0.01195228 0.08122879 0.02490282
v 0.01195228 0.08122879 0.02490282
v 0.01384997 0.08122879 0.01492029
v 0.01197952 0.08122879 0.02527475
v 0.01197952 0.08122879 0.02527475
v 0.01199334 0.08122879 0.02558183
v 0.01199889 0.08122879 0.02582365
v 0.01199996 0.08122879 0.02599996
v 0.01384997 0.08122879 0.03707969
v 0.01199996 0.08122879 0.02599996
v 0.01384997 0.08122879 0.03707969
v 0.01194971 0.08122879 0.02709633
v 0.01194971 0.08122879 0.02709633
v 0.01179963 0.08122879 0.02818351
v 0.01153588 0.08122879 0.02929955
v 0.01147961 0.08122879 0.02949047
v 0.01135981 0.08122879 0.02986437
v 0.01123660 0.08122879 0.03021109
v 0.01115745 0.08122879 0.03041714
v 0.01109009 0.08122879 0.03058332
v 0.01098841 0.08122879 0.03082048
v 0.01084804 0.08122879 0.03112661
v 0.01324343 0.08122879 0.03691411
v 0.01084804 0.08122879 0.03112661
v 0.01324343 0.08122879 0.03691411
v 0.01066291 0.08122879 0.03149843
v 0.01066291 0.08122879 0.03149843
v 0.01034408 0.08122879 0.03207379
v 0.01261502 0.08122879 0.03693556
v 0.01034408 0.08122879 0.03207379
v 0.01261502 0.08122879 0.03693556
v 0.01004570 0.08122879 0.03255456
v 0.01004570 0.08122879 0.03255456
v 0.00972617 0.08122879 0.03302097
v 0.01202118 0.08122879 0.03714203
v 0.00931633 0.08122879 0.03355902
v 0.00904435 0.08122879 0.03388434
v 0.00881189 0.08122879 0.03414452
v 0.01151508 0.08122879 0.03751504
v 0.00862432 0.08122879 0.03434371
v 0.00848526 0.08122879 0.03448528
v 0.01114201 0.08122879 0.03802120
v 0.00757605 0.08122879 0.03530591
v 0.01093554 0.08122879 0.03861504
v 0.00658804 0.08122879 0.03602975
v 0.01091414 0.08122879 0.03924340
v 0.00553137 0.08122879 0.03664898
v 0.00553137 0.08122879 0.03664898
v 0.01091414 0.08122879 0.03924340
v 0.01107966 0.08122879 0.03984999
v 0.01107966 0.08122879 0.03984999
v 0.00441712 0.08122879 0.03715741
v 0.00441712 0.08122879 0.03715741
v 0.01107966 0.08122879 0.03984999
v 0.00423968 0.08122879 0.03722625
v 0.00423968 0.08122879 0.03722625
v 0.01107966 0.08122879 0.03984999
v 0.00399494 0.08122879 0.03731620
v 0.00399494 0.08122879 0.03731620
v 0.01107966 0.08122879 0.03984999
v 0.00368136 0.08122879 0.03742295
v 0.00368136 0.08122879 0.03742295
v 0.01107966 0.08122879 0.03984999
v 0.00329733 0.08122879 0.03754085
v 0.00329733 0.08122879 0.03754085
v 0.00270152 0.08122879 0.03769618
v 0.00270152 0.08122879 0.03769618
v 0.00219357 0.08122879 0.03780251
v 0.00219357 0.08122879 0.03780251
v 0.00169581 0.08122879 0.03788363
v 0.00109732 0.08122879 0.03795224
v 0.00109732 0.08122879 0.03795224
v 0.01107966 0.08122879 0.03984999
v 0.00072630 0.08122879 0.03797942
v 0.00072630 0.08122879 0.03797942
v 0.01107966 0.08122879 0.03984999
v 0.00041947 0.08122879 0.03799325
v 0.00041947 0.08122879 0.03799325
v 0.01107966 0.08122879 0.03984999
v 0.00017732 0.08122879 0.03799885
v 0.00017732 0.08122879 0.03799885
v 0.01107966 0.08122879 0.03984999
v 0.00000000 0.08122879 0.03799998
v 0.00000000 0.08122879 0.03799998
v -0.01107966 0.08122879 0.03984999
v -0.00109631 0.08122879 0.03794974
v -0.00218350 0.08122879 0.03779965
v -0.00329965 0.08122879 0.03753584
v -0.00349098 0.08122879 0.03747946
v -0.00386441 0.08122879 0.03735983
v -0.00421107 0.08122879 0.03723657
v -0.00441712 0.08122879 0.03715741
v -0.00458330 0.08122879 0.03709006
v -0.00458330 0.08122879 0.03709006
v -0.01107966 0.08122879 0.03984999
v -0.00482047 0.08122879 0.03698837
v -0.00482047 0.08122879 0.03698837
v -0.01107966 0.08122879 0.03984999
v -0.00512660 0.08122879 0.03684806
v -0.00512660 0.08122879 0.03684806
v -0.01107966 0.08122879 0.03984999
v -0.01091414 0.08122879 0.03924340
v -0.00512660 0.08122879 0.03684806
v -0.01091414 0.08122879 0.03924340
v -0.00549841 0.08122879 0.03666293
v -0.00607383 0.08122879 0.03634411
v -0.01093554 0.08122879 0.03861504
v -0.00655454 0.08122879 0.03604573
v -0.00702101 0.08122879 0.03572613
v -0.00702101 0.08122879 0.03572613
v -0.01093554 0.08122879 0.03861504
v -0.01114201 0.08122879 0.03802120
v -0.01114201 0.08122879 0.03802120
v -0.00755900 0.08122879 0.03531628
v -0.00788432 0.08122879 0.03504437
v -0.00788432 0.08122879 0.03504437
v -0.01114201 0.08122879 0.03802120
v -0.00814450 0.08122879 0.03481191
v -0.00814450 0.08122879 0.03481191
v -0.01151502 0.08122879 0.03751504
v -0.00814450 0.08122879 0.03481191
v -0.01151502 0.08122879 0.03751504
v -0.00834370 0.08122879 0.03462433
v -0.00834370 0.08122879 0.03462433
v -0.00848526 0.08122879 0.03448528
v -0.01202118 0.08122879 0.03714203
v -0.00930589 0.08122879 0.03357607
v -0.01261502 0.08122879 0.03693556
v -0.01002973 0.08122879 0.03258806
v -0.01324343 0.08122879 0.03691411
v -0.01324343 0.08122879 0.03691411
v -0.01064896 0.08122879 0.03153139
v -0.01115745 0.08122879 0.03041714
v -0.01122641 0.08122879 0.03023940
v -0.01131629 0.08122879 0.02999454
v -0.01142305 0.08122879 0.02968102
v -0.01142305 0.08122879 0.02968102
v -0.01384997 0.08122879 0.03707969
v -0.01154083 0.08122879 0.02929729
v -0.01154083 0.08122879 0.02929729
v -0.01169627 0.08122879 0.02870124
v -0.01180249 0.08122879 0.02819341
v -0.01180249 0.08122879 0.02819341
v -0.01188379 0.08122879 0.02769511
v -0.01188379 0.08122879 0.02769511
v -0.01195228 0.08122879 0.02709716
v -0.01195228 0.08122879 0.02709716
v -0.01384997 0.08122879 0.03707969
v -0.01197952 0.08122879 0.02672523
v -0.01197952 0.08122879 0.02672523
v -0.01115745 0.08122879 0.02158284
v -0.01123660 0.08122879 0.02178889
v -0.01135981 0.08122879 0.02213555
v -0.01147955 0.08122879 0.02250951
v -0.01384997 0.08122879 0.01492029
v -0.01147955 0.08122879 0.02250951
v -0.01153588 0.08122879 0.02270036
v -0.01153588 0.08122879 0.02270036
v -0.01179963 0.08122879 0.02381640
v -0.01194971 0.08122879 0.02490359
v -0.01384997 0.08122879 0.03707969
v -0.01384997 0.08082884 0.03707969
v -0.01384997 0.08122879 0.01492029
v -0.01384997 0.08082884 0.01492029
v -0.01384997 0.08082884 0.03707969
v -0.01384997 0.08122879 0.03707969
v -0.01324343 0.08082884 0.03691411
v -0.01324343 0.08122879 0.03691411
v -0.01261502 0.08082884 0.03693556
v -0.01261502 0.08122879 0.03693556
v -0.01202118 0.08082884 0.03714203
v -0.01202118 0.08122879 0.03714203
v -0.01151502 0.08082884 0.03751504
v -0.01151502 0.08122879 0.03751504
v -0.01114201 0.08082884 0.03802120
v -0.01114201 0.08122879 0.03802120
v -0.01093554 0.08082884 0.03861504
v -0.01093554 0.08122879 0.03861504
v -0.01091414 0.08082884 0.03924340
v -0.01091414 0.08122879 0.03924340
v -0.01107966 0.08082884 0.03984999
v -0.01107966 0.08122879 0.03984999
v 0.01107966 0.08122879 0.03984999
v 0.01107966 0.08082884 0.03984999
v -0.01107966 0.08122879 0.03984999
v -0.01107966 0.08082884 0.03984999
v 0.01107966 0.08082884 0.03984999
v 0.01107966 0.08122879 0.03984999
v 0.01091414 0.08082884 0.03924340
v 0.01091414 0.08122879 0.03924340
v 0.01093554 0.08082884 0.03861504
v 0.01093554 0.08122879 0.03861504
v 0.01114201 0.08082884 0.03802120
v 0.01114201 0.08122879 0.03802120
v 0.01151508 0.08082884 0.03751504
v 0.01151508 0.08122879 0.03751504
v 0.01202118 0.08082884 0.03714203
v 0.01202118 0.08122879 0.03714203
v 0.01261502 0.08082884 0.03693556
v 0.01261502 0.08122879 0.03693556
v 0.01324343 0.08082884 0.03691411
v 0.01324343 0.08122879 0.03691411
v 0.01384997 0.08082884 0.03707969
v 0.01384997 0.08122879 0.03707969
v 0.01384997 0.08122879 0.03707969
v 0.01384997 0.08122879 0.01492029
v 0.01384997 0.08082884 0.03707969
v 0.01384997 0.08082884 0.01492029
v 0.01107966 0.08122879 0.01214998
v 0.01107966 0.08082884 0.01214998
v 0.01091414 0.08122879 0.01275652
v 0.01091414 0.08082884 0.01275652
v 0.01093554 0.08122879 0.01338487
v 0.01093554 0.08082884 0.01338487
v 0.01114201 0.08122879 0.01397877
v 0.01114201 0.08082884 0.01397877
v 0.01151508 0.08122879 0.01448488
v 0.01151508 0.08082884 0.01448488
v 0.01202118 0.08122879 0.01485794
v 0.01202118 0.08082884 0.01485794
v 0.01261502 0.08122879 0.01506441
v 0.01261502 0.08082884 0.01506441
v 0.01324343 0.08122879 0.01508581
v 0.01324343 0.08082884 0.01508581
v 0.01384997 0.08122879 0.01492029
v 0.01384997 0.08082884 0.01492029
v -0.01107966 0.08122879 0.01214998
v -0.01107966 0.08082884 0.01214998
v 0.01107966 0.08122879 0.01214998
v 0.01107966 0.08082884 0.01214998
v -0.01384997 0.08122879 0.01492029
v -0.01384997 0.08082884 0.01492029
v -0.01324343 0.08122879 0.01508581
v -0.01324343 0.08082884 0.01508581
v -0.01261502 0.08122879 0.01506441
v -0.01261502 0.08082884 0.01506441
v -0.01202118 0.08122879 0.01485794
v -0.01202118 0.08082884 0.01485794
v -0.01151502 0.08122879 0.01448488
v -0.01151502 0.08082884 0.01448488
v -0.01114201 0.08122879 0.01397877
v -0.01114201 0.08082884 0.01397877
v -0.01093554 0.08122879 0.01338487
v -0.01093554 0.08082884 0.01338487
v -0.01091414 0.08122879 0.01275652
v -0.01091414 0.08082884 0.01275652
v -0.01107966 0.08122879 0.01214998
v -0.01107966 0.08082884 0.01214998
v -0.00109631 0.08122879 0.03794974
v -0.00079745 0.08111757 0.03765827
v 0.00079746 0.08111757 0.03765827
v 0.00017732 0.08122879 0.03799885
v 0.00041947 0.08122879 0.03799325
v 0.00072630 0.08122879 0.03797942
v 0.00109732 0.08122879 0.03795224
v 0.00169581 0.08122879 0.03788363
v 0.00237745 0.08111757 0.03744113
v 0.00219357 0.08122879 0.03780251
v 0.00270152 0.08122879 0.03769618
v 0.00329733 0.08122879 0.03754085
v 0.00368136 0.08122879 0.03742295
v 0.00399494 0.08122879 0.03731620
v 0.00391322 0.08111757 0.03701084
v 0.00423968 0.08122879 0.03722625
v 0.00441712 0.08122879 0.03715741
v 0.00538134 0.08111757 0.03637272
v 0.00553137 0.08122879 0.03664898
v 0.00658804 0.08122879 0.03602975
v 0.00673878 0.08111757 0.03554672
v 0.00757605 0.08122879 0.03530591
v 0.00797599 0.08111757 0.03454023
v 0.00848526 0.08122879 0.03448528
v 0.00862432 0.08122879 0.03434371
v 0.00881189 0.08122879 0.03414452
v 0.00904435 0.08122879 0.03388434
v 0.00906950 0.08111757 0.03336858
v 0.00931633 0.08122879 0.03355902
v 0.00972617 0.08122879 0.03302097
v 0.01004570 0.08122879 0.03255456
v 0.00998437 0.08111757 0.03207159
v 0.01034408 0.08122879 0.03207379
v 0.01066291 0.08122879 0.03149843
v 0.01071810 0.08111757 0.03065550
v 0.01084804 0.08122879 0.03112661
v 0.01098841 0.08122879 0.03082048
v 0.01109009 0.08122879 0.03058332
v 0.01115745 0.08122879 0.03041714
v 0.01123660 0.08122879 0.03021109
v 0.01135981 0.08122879 0.02986437
v 0.01147961 0.08122879 0.02949047
v 0.01153588 0.08122879 0.02929955
v 0.01125222 0.08111757 0.02915269
v 0.01179963 0.08122879 0.02818351
v 0.01157671 0.08111757 0.02759116
v 0.01194971 0.08122879 0.02709633
v 0.01168555 0.08111757 0.02599996
v 0.01199996 0.08122879 0.02599996
v 0.01199889 0.08122879 0.02582365
v 0.01199334 0.08122879 0.02558183
v 0.01197952 0.08122879 0.02527475
v 0.01157671 0.08111757 0.02440881
v 0.01195228 0.08122879 0.02490282
v 0.01188379 0.08122879 0.02430486
v 0.01180249 0.08122879 0.02380651
v 0.01169627 0.08122879 0.02329874
v 0.01125222 0.08111757 0.02284723
v 0.01154083 0.08122879 0.02270269
v 0.01142305 0.08122879 0.02231889
v 0.01131629 0.08122879 0.02200543
v 0.01122641 0.08122879 0.02176052
v 0.01115745 0.08122879 0.02158284
v 0.01071810 0.08111757 0.02134442
v 0.01064896 0.08122879 0.02046859
v 0.00998437 0.08111757 0.01992833
v 0.01002973 0.08122879 0.01941192
v 0.00906336 0.08111757 0.01862382
v 0.00930589 0.08122879 0.01842391
v 0.00848526 0.08122879 0.01751470
v 0.00834376 0.08122879 0.01737564
v 0.00797599 0.08111757 0.01745975
v 0.00814450 0.08122879 0.01718807
v 0.00788432 0.08122879 0.01695561
v 0.00755906 0.08122879 0.01668363
v 0.00702101 0.08122879 0.01627379
v 0.00673878 0.08111757 0.01645320
v 0.00655460 0.08122879 0.01595425
v 0.00607383 0.08122879 0.01565587
v 0.00537610 0.08111757 0.01562452
v 0.00549841 0.08122879 0.01533699
v 0.00512660 0.08122879 0.01515191
v 0.00482047 0.08122879 0.01501154
v 0.00458330 0.08122879 0.01490986
v 0.00441712 0.08122879 0.01484251
v 0.00421107 0.08122879 0.01476335
v 0.00391322 0.08111757 0.01498913
v 0.00386441 0.08122879 0.01464015
v 0.00349098 0.08122879 0.01452052
v 0.00329965 0.08122879 0.01446408
v 0.00237745 0.08111757 0.01455885
v 0.00218356 0.08122879 0.01420032
v 0.00109631 0.08122879 0.01405018
v 0.00079746 0.08111757 0.01434165
v -0.00079745 0.08111757 0.01434165
v -0.00017732 0.08122879 0.01400107
v -0.00041947 0.08122879 0.01400667
v -0.00072629 0.08122879 0.01402050
v -0.00109726 0.08122879 0.01404768
v -0.00169581 0.08122879 0.01411628
v -0.00237745 0.08111757 0.01455885
v -0.00219357 0.08122879 0.01419746
v -0.00270152 0.08122879 0.01430374
v -0.00329733 0.08122879 0.01445913
v -0.00368136 0.08122879 0.01457697
v -0.00399494 0.08122879 0.01468378
v -0.00391322 0.08111757 0.01498913
v -0.00423968 0.08122879 0.01477366
v -0.00441712 0.08122879 0.01484251
v -0.00538129 0.08111757 0.01562726
v -0.00553137 0.08122879 0.01535099
v -0.00658804 0.08122879 0.01597023
v -0.00673878 0.08111757 0.01645320
v -0.00757605 0.08122879 0.01669406
v -0.00797599 0.08111757 0.01745975
v -0.00848526 0.08122879 0.01751470
v -0.00862432 0.08122879 0.01765620
v -0.00881189 0.08122879 0.01785546
v -0.00904435 0.08122879 0.01811558
v -0.00906950 0.08111757 0.01863139
v -0.00931626 0.08122879 0.01844090
v -0.00972617 0.08122879 0.01897895
v -0.01004570 0.08122879 0.01944535
v -0.00998431 0.08111757 0.01992833
v -0.01034408 0.08122879 0.01992613
v -0.01066291 0.08122879 0.02050155
v -0.01071810 0.08111757 0.02134442
v -0.01084804 0.08122879 0.02087336
v -0.01098841 0.08122879 0.02117949
v -0.01109004 0.08122879 0.02141666
v -0.01115745 0.08122879 0.02158284
v -0.01123660 0.08122879 0.02178889
v -0.01135981 0.08122879 0.02213555
v -0.01147955 0.08122879 0.02250951
v -0.01153588 0.08122879 0.02270036
v -0.01125222 0.08111757 0.02284723
v -0.01179963 0.08122879 0.02381640
v -0.01157671 0.08111757 0.02440881
v -0.01194971 0.08122879 0.02490359
v -0.01168555 0.08111757 0.02599996
v -0.01199996 0.08122879 0.02599996
v -0.01199996 0.08122879 0.02599996
v -0.01168555 0.08111757 0.02599996
v -0.01199889 0.08122879 0.02617633
v -0.01199334 0.08122879 0.02641814
v -0.01197952 0.08122879 0.02672523
v -0.01157671 0.08111757 0.02759116
v -0.01195228 0.08122879 0.02709716
v -0.01188379 0.08122879 0.02769511
v -0.01180249 0.08122879 0.02819341
v -0.01169627 0.08122879 0.02870124
v -0.01125222 0.08111757 0.02915269
v -0.01154083 0.08122879 0.02929729
v -0.01142305 0.08122879 0.02968102
v -0.01131629 0.08122879 0.02999454
v -0.01122641 0.08122879 0.03023940
v -0.01115745 0.08122879 0.03041714
v -0.01071810 0.08111757 0.03065550
v -0.01064896 0.08122879 0.03153139
v -0.00998431 0.08111757 0.03207159
v -0.01002973 0.08122879 0.03258806
v -0.00906336 0.08111757 0.03337609
v -0.00930589 0.08122879 0.03357607
v -0.00848526 0.08122879 0.03448528
v -0.00834370 0.08122879 0.03462433
v -0.00797599 0.08111757 0.03454023
v -0.00814450 0.08122879 0.03481191
v -0.00788432 0.08122879 0.03504437
v -0.00755900 0.08122879 0.03531628
v -0.00702101 0.08122879 0.03572613
v -0.00673878 0.08111757 0.03554672
v -0.00655454 0.08122879 0.03604573
v -0.00607383 0.08122879 0.03634411
v -0.00537610 0.08111757 0.03637540
v -0.00549841 0.08122879 0.03666293
v -0.00512660 0.08122879 0.03684806
v -0.00482047 0.08122879 0.03698837
v -0.00458330 0.08122879 0.03709006
v -0.00441712 0.08122879 0.03715741
v -0.00421107 0.08122879 0.03723657
v -0.00391322 0.08111757 0.03701084
v -0.00386441 0.08122879 0.03735983
v -0.00349098 0.08122879 0.03747946
v -0.00329965 0.08122879 0.03753584
v -0.00237745 0.08111757 0.03744113
v -0.00218350 0.08122879 0.03779965
v -0.01139807 0.08082884 0.02760189
v -0.01151007 0.08082884 0.02599996
v -0.01157671 0.08111757 0.02440881
v -0.01106417 0.08082884 0.02917259
v -0.01051497 0.08082884 0.03068155
v -0.00976110 0.08082884 0.03209942
v -0.00881719 0.08082884 0.03339850
v -0.00770175 0.08082884 0.03455364
v -0.00643635 0.08082884 0.03554230
v -0.00504565 0.08082884 0.03634518
v -0.00355679 0.08082884 0.03694671
v -0.00199866 0.08082884 0.03733521
v -0.00040169 0.08082884 0.03750306
v 0.00120312 0.08082884 0.03744703
v 0.00278449 0.08082884 0.03716820
v 0.00431174 0.08082884 0.03667193
v 0.00575501 0.08082884 0.03596800
v 0.00708628 0.08082884 0.03507006
v 0.00827962 0.08082884 0.03399556
v 0.00931185 0.08082884 0.03276544
v 0.01016277 0.08082884 0.03140366
v 0.01081591 0.08082884 0.02993667
v 0.01125854 0.08082884 0.02839308
v 0.01148205 0.08082884 0.02680289
v 0.01148205 0.08082884 0.02519708
v 0.01125854 0.08082884 0.02360689
v 0.01081591 0.08082884 0.02206331
v 0.01016277 0.08082884 0.02059632
v 0.00931185 0.08082884 0.01923453
v 0.00827962 0.08082884 0.01800441
v 0.00708628 0.08082884 0.01692992
v 0.00575501 0.08082884 0.01603192
v 0.00431174 0.08082884 0.01532799
v 0.00278449 0.08082884 0.01483178
v 0.00120312 0.08082884 0.01455295
v -0.00040169 0.08082884 0.01449686
v -0.00199866 0.08082884 0.01466476
v -0.00355679 0.08082884 0.01505321
v -0.00504565 0.08082884 0.01565474
v -0.00643635 0.08082884 0.01645767
v -0.00770175 0.08082884 0.01744627
v -0.00881719 0.08082884 0.01860141
v -0.00976110 0.08082884 0.01990056
v -0.01051497 0.08082884 0.02131837
v -0.01106417 0.08082884 0.02282738
v -0.01139807 0.08082884 0.02439808
v -0.01107966 0.08082884 0.01214998
v -0.00040169 0.08082884 0.01449686
v 0.01107966 0.08082884 0.01214998
v 0.01107966 0.08082884 0.01214998
v -0.00040169 0.08082884 0.01449686
v 0.00120312 0.08082884 0.01455295
v 0.00120312 0.08082884 0.01455295
v 0.00278449 0.08082884 0.01483178
v -0.01091414 0.08082884 0.01275652
v -0.00504565 0.08082884 0.01565474
v -0.01107966 0.08082884 0.01214998
v -0.00504565 0.08082884 0.01565474
v -0.00355679 0.08082884 0.01505321
v -0.00199866 0.08082884 0.01466476
v -0.01091414 0.08082884 0.01275652
v -0.00643635 0.08082884 0.01645767
v -0.01093554 0.08082884 0.01338487
v -0.01114201 0.08082884 0.01397877
v -0.00643635 0.08082884 0.01645767
v -0.01114201 0.08082884 0.01397877
v -0.00770175 0.08082884 0.01744627
v -0.00770175 0.08082884 0.01744627
v -0.01151502 0.08082884 0.01448488
v -0.01151502 0.08082884 0.01448488
v -0.00881719 0.08082884 0.01860141
v -0.01202118 0.08082884 0.01485794
v -0.01261502 0.08082884 0.01506441
v -0.00976110 0.08082884 0.01990056
v -0.01324343 0.08082884 0.01508581
v -0.01324343 0.08082884 0.01508581
v -0.01051497 0.08082884 0.02131837
v -0.01051497 0.08082884 0.02131837
v -0.01384997 0.08082884 0.01492029
v -0.01106417 0.08082884 0.02282738
v -0.01384997 0.08082884 0.01492029
v -0.01139807 0.08082884 0.02439808
v -0.01151007 0.08082884 0.02599996
v -0.01384997 0.08082884 0.03707969
v -0.01139807 0.08082884 0.02760189
v -0.01106417 0.08082884 0.02917259
v -0.01051497 0.08082884 0.03068155
v -0.01324343 0.08082884 0.03691411
v -0.00976110 0.08082884 0.03209942
v -0.01261502 0.08082884 0.03693556
v -0.00881719 0.08082884 0.03339850
v -0.01202118 0.08082884 0.03714203
v -0.01151502 0.08082884 0.03751504
v -0.00770175 0.08082884 0.03455364
v -0.00770175 0.08082884 0.03455364
v -0.01151502 0.08082884 0.03751504
v -0.01114201 0.08082884 0.03802120
v -0.01114201 0.08082884 0.03802120
v -0.00643635 0.08082884 0.03554230
v -0.00643635 0.08082884 0.03554230
v -0.01093554 0.08082884 0.03861504
v -0.01091414 0.08082884 0.03924340
v -0.00504565 0.08082884 0.03634518
v -0.00504565 0.08082884 0.03634518
v -0.01107966 0.08082884 0.03984999
v -0.01107966 0.08082884 0.03984999
v -0.00355679 0.08082884 0.03694671
v -0.00199866 0.08082884 0.03733521
v -0.00040169 0.08082884 0.03750306
v 0.01107966 0.08082884 0.03984999
v 0.00120312 0.08082884 0.03744703
v 0.00278449 0.08082884 0.03716820
v 0.00431174 0.08082884 0.03667193
v 0.01091414 0.08082884 0.03924340
v 0.00575501 0.08082884 0.03596800
v 0.00575501 0.08082884 0.03596800
v 0.01093554 0.08082884 0.03861504
v 0.00708628 0.08082884 0.03507006
v 0.00708628 0.08082884 0.03507006
v 0.01093554 0.08082884 0.03861504
v 0.01114201 0.08082884 0.03802120
v 0.01114201 0.08082884 0.03802120
v 0.00827962 0.08082884 0.03399556
v 0.01151508 0.08082884 0.03751504
v 0.01151508 0.08082884 0.03751504
v 0.01202118 0.08082884 0.03714203
v 0.00931185 0.08082884 0.03276544
v 0.01261502 0.08082884 0.03693556
v 0.01016277 0.08082884 0.03140366
v 0.01324343 0.08082884 0.03691411
v 0.01081591 0.08082884 0.02993667
v 0.01384997 0.08082884 0.03707969
v 0.01125854 0.08082884 0.02839308
v 0.01148205 0.08082884 0.02680289
v 0.01148205 0.08082884 0.02519708
v 0.01384997 0.08082884 0.01492029
v 0.01125854 0.08082884 0.02360689
v 0.01081591 0.08082884 0.02206331
v 0.01324343 0.08082884 0.01508581
v 0.01016277 0.08082884 0.02059632
v 0.01261502 0.08082884 0.01506441
v 0.00931185 0.08082884 0.01923453
v 0.01202118 0.08082884 0.01485794
v 0.00827962 0.08082884 0.01800441
v 0.01151508 0.08082884 0.01448488
v 0.01151508 0.08082884 0.01448488
v 0.01114201 0.08082884 0.01397877
v 0.00708628 0.08082884 0.01692992
v 0.00708628 0.08082884 0.01692992
v 0.01093554 0.08082884 0.01338487
v 0.01093554 0.08082884 0.01338487
v 0.00575501 0.08082884 0.01603192
v 0.01091414 0.08082884 0.01275652
v 0.00575501 0.08082884 0.01603192
v 0.01091414 0.08082884 0.01275652
v 0.00431174 0.08082884 0.01532799
v 0.00431174 0.08082884 0.01532799
f 1 2 3
f 4 5 6
f 7 8 9
f 10 11 12
f 13 14 15
f 16 17 18
f 19 20 10
f 21 22 4
f 23 24 25
f 26 27 28
f 28 27 29
f 28 29 30
f 30 29 31
f 30 31 32
f 32 31 33
f 32 33 34
f 34 33 35
f 34 35 36
f 36 35 37
f 36 37 38
f 38 37 39
f 38 39 40
f 40 39 41
f 40 41 42
f 42 41 43
f 42 43 26
f 26 43 27
f 44 45 46
f 46 45 47
f 46 47 48
f 48 47 49
f 48 49 50
f 50 49 51
f 50 51 52
f 52 51 53
f 52 53 54
f 55 56 57
f 57 56 58
f 59 60 61
f 61 60 54
f 62 63 64
f 65 60 66
f 67 68 69
f 69 68 70
f 69 70 71
f 72 73 68
f 68 73 74
f 68 74 70
f 75 76 72
f 72 76 77
f 72 77 78
f 77 76 79
f 79 76 80
f 79 80 81
f 81 80 82
f 81 82 83
f 83 82 84
f 83 84 71
f 71 84 69
f 78 73 72
f 85 86 87
f 88 89 90
f 91 92 93
f 94 95 96
f 97 98 99
f 100 101 102
f 103 104 105
f 106 107 108
f 109 110 111
f 112 113 114
f 115 116 117
f 118 119 120
f 121 122 123
f 123 122 124
f 125 126 127
f 127 126 128
f 127 128 129
f 129 128 130
f 129 130 131
f 131 130 132
f 131 132 133
f 133 132 134
f 133 134 135
f 135 134 136
f 135 136 137
f 137 136 138
f 137 138 139
f 139 138 140
f 139 140 141
f 141 140 142
f 141 142 143
f 143 142 144
f 143 144 145
f 145 144 146
f 145 146 121
f 121 146 122
f 147 148 149
f 150 151 152
f 153 154 155
f 156 157 158
f 159 160 161
f 162 163 164
f 165 166 167
f 168 169 170
f 171 172 173
f 174 175 176
f 177 178 179
f 180 181 182
f 183 184 185
f 185 184 186
f 187 188 189
f 189 188 190
f 189 190 191
f 191 190 192
f 191 192 193
f 193 192 194
f 193 194 195
f 195 194 196
f 195 196 197
f 197 196 198
f 197 198 199
f 199 198 200
f 199 200 201
f 201 200 202
f 201 202 203
f 203 202 204
f 203 204 205
f 205 204 206
f 205 206 207
f 207 206 208
f 207 208 183
f 183 208 184
f 209 210 211
f 211 210 212
f 211 212 213
f 213 212 214
f 213 214 215
f 215 214 216
f 215 216 217
f 217 216 218
f 217 218 219
f 219 218 220
f 219 220 221
f 221 220 222
f 221 222 223
f 223 222 224
f 224 225 223
f 223 225 226
f 226 225 227
f 227 225 228
f 227 228 229
f 229 228 230
f 229 230 231
f 231 230 232
f 231 232 233
f 233 232 234
f 233 234 235
f 235 234 236
f 235 236 237
f 237 236 238
f 237 238 239
f 239 238 240
f 240 210 239
f 239 210 209
f 241 242 243
f 243 242 244
f 243 244 245
f 242 241 246
f 246 241 247
f 246 247 248
f 248 249 246
f 246 249 250
f 246 250 251
f 251 250 252
f 245 253 243
f 243 253 254
f 243 254 255
f 255 254 256
f 257 258 259
f 259 258 260
f 259 260 261
f 261 260 262
f 261 262 263
f 263 262 264
f 263 264 265
f 265 264 266
f 265 266 267
f 267 266 268
f 267 268 269
f 269 268 270
f 269 270 271
f 271 270 272
f 271 272 273
f 273 272 274
f 273 274 275
f 275 274 276
f 275 276 277
f 277 276 278
f 277 278 279
f 279 278 280
f 279 280 281
f 281 280 282
f 281 282 283
f 283 282 284
f 283 284 257
f 257 284 258
f 285 286 287
f 287 286 288
f 287 288 289
f 289 288 290
f 289 290 291
f 291 290 292
f 291 292 293
f 286 285 294
f 294 285 295
f 294 295 296
f 296 295 297
f 296 297 298
f 299 300 301
f 302 303 304
f 301 305 306
f 307 308 299
f 299 308 309
f 299 309 310
f 311 312 307
f 307 312 313
f 307 313 308
f 314 315 311
f 311 315 316
f 311 316 312
f 317 318 314
f 314 318 319
f 314 319 320
f 321 322 317
f 317 322 323
f 317 324 318
f 322 321 325
f 325 321 326
f 325 326 327
f 327 326 328
f 327 328 329
f 329 328 330
f 329 330 331
f 331 330 332
f 332 330 333
f 334 335 336
f 337 338 339
f 340 341 342
f 343 338 344
f 345 330 346
f 347 338 348
f 349 330 350
f 351 352 353
f 354 355 356
f 357 358 359
f 360 330 361
f 360 361 362
f 362 361 363
f 363 361 364
f 364 361 365
f 365 361 366
f 367 368 369
f 370 361 371
f 372 373 374
f 375 376 377
f 378 361 379
f 380 381 382
f 379 383 384
f 384 383 385
f 385 383 386
f 387 388 389
f 390 386 391
f 391 386 392
f 391 392 393
f 393 392 394
f 395 396 397
f 398 392 399
f 398 399 400
f 400 399 401
f 401 399 402
f 401 402 403
f 404 402 405
f 403 406 407
f 408 405 409
f 407 410 411
f 411 410 412
f 411 413 414
f 414 413 415
f 415 413 416
f 416 413 417
f 418 419 420
f 421 413 422
f 422 413 423
f 423 413 424
f 424 413 425
f 426 427 428
f 429 413 430
f 430 413 431
f 431 413 432
f 432 413 433
f 434 435 436
f 437 433 438
f 438 433 439
f 439 433 440
f 440 433 441
f 441 433 442
f 442 433 443
f 443 433 444
f 444 433 445
f 445 433 446
f 446 433 447
f 448 449 450
f 451 447 452
f 452 447 453
f 454 455 456
f 457 453 458
f 458 455 459
f 458 459 460
f 460 459 461
f 461 459 462
f 462 459 463
f 462 463 464
f 464 463 465
f 465 463 466
f 465 466 467
f 467 466 468
f 467 468 469
f 469 468 470
f 469 470 471
f 472 473 474
f 471 475 476
f 477 478 479
f 480 481 482
f 483 484 485
f 486 487 488
f 489 475 490
f 491 487 492
f 493 475 494
f 494 475 495
f 496 497 498
f 499 500 501
f 502 503 504
f 505 506 507
f 508 475 509
f 508 509 510
f 510 509 511
f 511 509 512
f 512 509 513
f 513 509 514
f 514 509 515
f 515 509 516
f 516 509 517
f 518 519 520
f 521 522 523
f 524 525 526
f 527 528 529
f 529 528 530
f 530 528 531
f 530 531 532
f 532 531 533
f 534 535 536
f 533 537 538
f 538 537 539
f 540 541 542
f 543 536 544
f 545 546 547
f 548 544 549
f 549 544 550
f 549 550 551
f 551 550 552
f 551 552 553
f 553 552 554
f 553 555 556
f 556 555 301
f 556 301 557
f 557 301 558
f 558 301 559
f 559 301 560
f 561 562 563
f 564 301 565
f 565 301 566
f 567 302 568
f 569 301 570
f 571 572 573
f 574 301 306
f 320 315 314
f 310 575 299
f 299 575 576
f 299 576 577
f 577 578 299
f 579 580 581
f 299 582 583
f 583 584 299
f 299 584 300
f 585 586 587
f 587 586 588
f 589 590 591
f 591 590 592
f 591 592 593
f 593 592 594
f 593 594 595
f 595 594 596
f 595 596 597
f 597 596 598
f 597 598 599
f 599 598 600
f 599 600 601
f 601 600 602
f 601 602 603
f 603 602 604
f 603 604 605
f 605 604 606
f 607 608 609
f 609 608 610
f 611 612 613
f 613 612 614
f 613 614 615
f 615 614 616
f 615 616 617
f 617 616 618
f 617 618 619
f 619 618 620
f 619 620 621
f 621 620 622
f 621 622 623
f 623 622 624
f 623 624 625
f 625 624 626
f 625 626 627
f 627 626 628
f 629 630 631
f 631 630 632
f 633 634 635
f 635 634 636
f 635 636 637
f 637 636 638
f 637 638 639
f 639 638 640
f 639 640 641
f 641 640 642
f 641 642 643
f 643 642 644
f 643 644 645
f 645 644 646
f 645 646 647
f 647 646 648
f 647 648 649
f 649 648 650
f 651 652 653
f 653 652 654
f 655 656 657
f 657 656 658
f 657 658 659
f 659 658 660
f 659 660 661
f 661 660 662
f 661 662 663
f 663 662 664
f 663 664 665
f 665 664 666
f 665 666 667
f 667 666 668
f 667 668 669
f 669 668 670
f 669 670 671
f 671 670 672
f 673 674 508
f 508 674 675
f 508 675 676
f 676 675 677
f 677 675 678
f 678 675 679
f 679 675 680
f 680 675 681
f 680 681 682
f 682 681 683
f 683 681 684
f 684 681 685
f 685 681 686
f 686 681 687
f 686 687 688
f 688 687 689
f 689 687 690
f 689 690 691
f 691 690 692
f 692 690 693
f 692 693 694
f 694 693 695
f 694 695 696
f 696 695 697
f 697 695 698
f 698 695 699
f 699 695 700
f 699 700 701
f 701 700 702
f 702 700 703
f 703 700 704
f 703 704 705
f 705 704 706
f 706 704 707
f 706 707 708
f 708 707 709
f 709 707 710
f 710 707 711
f 711 707 712
f 712 707 713
f 713 707 714
f 714 707 715
f 715 707 716
f 715 716 717
f 717 716 718
f 717 718 719
f 719 718 720
f 719 720 721
f 721 720 722
f 722 720 723
f 723 720 724
f 724 720 725
f 724 725 726
f 726 725 727
f 727 725 728
f 728 725 729
f 729 725 730
f 729 730 731
f 731 730 732
f 732 730 733
f 733 730 734
f 734 730 735
f 735 730 736
f 735 736 737
f 737 736 738
f 737 738 739
f 739 738 740
f 739 740 741
f 741 740 742
f 742 740 743
f 743 740 744
f 743 744 745
f 745 744 746
f 746 744 747
f 747 744 748
f 748 744 749
f 748 749 750
f 750 749 751
f 751 749 752
f 751 752 753
f 753 752 754
f 754 752 755
f 755 752 756
f 756 752 757
f 757 752 758
f 758 752 759
f 758 759 760
f 760 759 761
f 761 759 762
f 762 759 763
f 762 763 764
f 764 763 765
f 765 763 766
f 765 766 360
f 360 766 767
f 360 767 768
f 768 767 769
f 769 767 770
f 770 767 771
f 771 767 772
f 772 767 773
f 772 773 774
f 774 773 775
f 775 773 776
f 776 773 777
f 777 773 778
f 778 773 779
f 778 779 780
f 780 779 781
f 781 779 782
f 781 782 783
f 783 782 784
f 784 782 785
f 784 785 786
f 786 785 787
f 786 787 788
f 788 787 789
f 789 787 790
f 790 787 791
f 791 787 792
f 791 792 793
f 793 792 794
f 794 792 795
f 795 792 796
f 795 796 797
f 797 796 798
f 798 796 799
f 798 799 800
f 800 799 801
f 801 799 802
f 802 799 803
f 803 799 804
f 804 799 805
f 805 799 806
f 806 799 807
f 807 799 808
f 807 808 809
f 809 808 810
f 809 810 811
f 811 810 812
f 811 812 813
f 814 815 816
f 816 815 817
f 817 815 818
f 818 815 819
f 818 819 820
f 820 819 821
f 821 819 822
f 822 819 823
f 823 819 824
f 823 824 825
f 825 824 826
f 826 824 827
f 827 824 828
f 828 824 829
f 829 824 830
f 829 830 831
f 831 830 832
f 831 832 833
f 833 832 834
f 833 834 835
f 835 834 836
f 836 834 837
f 837 834 838
f 837 838 839
f 839 838 840
f 840 838 841
f 841 838 842
f 842 838 843
f 842 843 844
f 844 843 845
f 845 843 846
f 845 846 847
f 847 846 848
f 848 846 849
f 849 846 850
f 850 846 851
f 851 846 852
f 852 846 853
f 852 853 854
f 854 853 855
f 855 853 856
f 856 853 857
f 856 857 858
f 858 857 673
f 673 857 674
f 859 819 860
f 860 819 815
f 860 815 861
f 819 859 824
f 824 859 862
f 824 862 830
f 830 862 863
f 830 863 832
f 832 863 864
f 832 864 865
f 866 838 865
f 865 838 834
f 865 834 832
f 838 866 843
f 843 866 867
f 843 867 846
f 846 867 868
f 846 868 853
f 853 868 869
f 853 869 857
f 857 869 870
f 857 870 674
f 674 870 871
f 674 871 675
f 675 871 872
f 675 872 681
f 681 872 873
f 681 873 687
f 687 873 874
f 687 874 875
f 876 693 875
f 875 693 690
f 875 690 687
f 693 876 695
f 695 876 877
f 695 877 700
f 700 877 878
f 700 878 704
f 704 878 879
f 704 879 707
f 707 879 880
f 707 880 716
f 716 880 881
f 716 881 718
f 718 881 882
f 718 882 720
f 720 882 883
f 720 883 725
f 725 883 884
f 725 884 730
f 730 884 885
f 730 885 736
f 736 885 886
f 736 886 738
f 738 886 887
f 738 887 740
f 740 887 888
f 740 888 744
f 744 888 889
f 744 889 749
f 749 889 890
f 749 890 752
f 752 890 891
f 752 891 759
f 759 891 892
f 759 892 763
f 763 892 893
f 763 893 766
f 766 893 894
f 766 894 767
f 767 894 895
f 767 895 773
f 773 895 896
f 773 896 779
f 779 896 897
f 779 897 782
f 782 897 898
f 782 898 785
f 785 898 899
f 785 899 787
f 787 899 900
f 787 900 792
f 792 900 901
f 792 901 796
f 796 901 902
f 796 902 799
f 799 902 903
f 799 903 808
f 808 903 904
f 808 904 810
f 810 904 860
f 905 906 907
f 908 909 910
f 907 911 912
f 913 914 915
f 905 916 917
f 905 917 918
f 916 919 920
f 920 919 921
f 920 921 922
f 923 924 925
f 926 922 927
f 925 928 929
f 929 928 930
f 929 930 931
f 929 931 932
f 932 931 933
f 932 934 935
f 936 933 937
f 936 937 938
f 938 939 940
f 940 939 941
f 941 939 942
f 941 942 943
f 943 942 944
f 944 942 945
f 945 942 946
f 945 946 947
f 947 946 948
f 947 948 949
f 949 948 950
f 949 950 951
f 949 951 952
f 953 954 955
f 952 956 957
f 958 955 959
f 958 959 960
f 958 960 961
f 962 960 963
f 961 964 965
f 965 964 966
f 966 964 967
f 967 964 968
f 967 968 969
f 969 968 970
f 970 968 971
f 971 968 972
f 971 972 973
f 974 972 975
f 974 975 976
f 977 978 979
f 976 980 981
f 981 980 982
f 981 983 984
f 981 984 985
f 985 984 986
f 985 986 987
f 987 986 988
f 987 988 989
f 989 988 990
f 989 990 991
f 991 990 992
f 992 990 993
f 993 990 994
f 993 994 995
f 995 994 996
f 996 994 997
f 996 997 998
f 998 997 999
f 998 999 1000
f 1000 999 1001
f 1000 1001 1002
f 1002 1001 1003
f 1002 1004 1005
f 1002 1005 1006
f 1007 1005 1008
f 1006 1009 1010
f 1010 1009 1011
f 1012 1013 1014
f 1015 1011 907
f 1015 907 912
f 918 906 905

