# https://github.com/mikedh/trimesh
v -0.04101818 0.01826244 0.00070000
v -0.04101818 0.01826244 0.00319999
v -0.03888452 0.02244997 0.00070000
v -0.03888452 0.02244997 0.00319999
v -0.03888452 0.02244997 0.00070000
v -0.03888452 0.02244997 0.00319999
v -0.03632485 0.02639150 0.00070000
v -0.03632485 0.02639150 0.00319999
v -0.03336715 0.03004395 0.00319999
v -0.04270243 0.01387482 0.00070000
v -0.04270243 0.01387482 0.00319999
v -0.04391878 0.00933522 0.00070000
v -0.04391878 0.00933522 0.00319999
v -0.04465401 0.00469333 0.00070000
v -0.04465401 0.00469333 0.00319999
v -0.04490000 0.00000000 0.00070000
v -0.04490000 0.00000000 0.00319999
v -0.04465401 -0.00469327 0.00070000
v -0.04465401 -0.00469327 0.00319999
v -0.04391878 -0.00933522 0.00070000
v -0.04391878 -0.00933522 0.00319999
v -0.04270243 -0.01387482 0.00070000
v -0.04270243 -0.01387482 0.00319999
v -0.04101818 -0.01826244 0.00070000
v -0.04101818 -0.01826244 0.00319999
v -0.03888452 -0.02244997 0.00070000
v -0.03888452 -0.02244997 0.00319999
v -0.03632485 -0.02639150 0.00070000
v -0.03632485 -0.02639150 0.00319999
v -0.03336715 -0.03004395 0.00070000
v -0.03336715 -0.03004395 0.00319999
v -0.03004395 -0.03336715 0.00070000
v -0.03004395 -0.03336715 0.00319999
v -0.02639150 -0.03632485 0.00070000
v -0.02639150 -0.03632485 0.00319999
v -0.02244997 -0.03888452 0.00070000
v -0.02244997 -0.03888452 0.00319999
v -0.01826244 -0.04101818 0.00070000
v -0.01826244 -0.04101818 0.00319999
v -0.01387482 -0.04270243 0.00070000
v -0.01387482 -0.04270243 0.00319999
v -0.00933522 -0.04391878 0.00070000
v -0.00933522 -0.04391878 0.00319999
v -0.00469333 -0.04465401 0.00070000
v -0.00469333 -0.04465401 0.00319999
v 0.00000000 -0.04490000 0.00070000
v 0.00000000 -0.04490000 0.00319999
v 0.00469327 -0.04465401 0.00070000
v 0.00469327 -0.04465401 0.00319999
v 0.00933522 -0.04391878 0.00070000
v 0.00933522 -0.04391878 0.00319999
v 0.01387482 -0.04270243 0.00070000
v 0.01387482 -0.04270243 0.00319999
v 0.01826244 -0.04101818 0.00070000
v 0.01826244 -0.04101818 0.00319999
v 0.02244997 -0.03888452 0.00070000
v 0.02244997 -0.03888452 0.00319999
v 0.02639150 -0.03632485 0.00070000
v 0.02639150 -0.03632485 0.00319999
v 0.03004395 -0.03336715 0.00070000
v 0.03004395 -0.03336715 0.00319999
v 0.03336715 -0.03004395 0.00070000
v 0.03336715 -0.03004395 0.00319999
v 0.03632485 -0.02639150 0.00070000
v 0.03632485 -0.02639150 0.00319999
v 0.03888452 -0.02244997 0.00070000
v 0.03888452 -0.02244997 0.00319999
v 0.04101818 -0.01826244 0.00070000
v 0.04101818 -0.01826244 0.00319999
v 0.04270243 -0.01387482 0.00070000
v 0.04270243 -0.01387482 0.00319999
v 0.04391878 -0.00933522 0.00070000
v 0.04391878 -0.00933522 0.00319999
v 0.04465401 -0.00469333 0.00070000
v 0.04465401 -0.00469333 0.00319999
v 0.04490000 0.00000000 0.00070000
v 0.04490000 0.00000000 0.00319999
v 0.04465401 0.00469327 0.00070000
v 0.04465401 0.00469327 0.00319999
v 0.04391878 0.00933522 0.00070000
v 0.04391878 0.00933522 0.00319999
v 0.04270243 0.01387482 0.00070000
v 0.04270243 0.01387482 0.00319999
v 0.04101818 0.01826244 0.00070000
v 0.04101818 0.01826244 0.00319999
v 0.03888452 0.02244997 0.00070000
v 0.03888452 0.02244997 0.00319999
v 0.03632485 0.02639150 0.00070000
v 0.03632485 0.02639150 0.00319999
v 0.03336715 0.03004395 0.00070000
v 0.03336715 0.03004395 0.00319999
v 0.03004395 0.03336715 0.00070000
v 0.03004395 0.03336715 0.00319999
v 0.02639150 0.03632485 0.00070000
v 0.02639150 0.03632485 0.00319999
v 0.02244997 0.03888452 0.00070000
v 0.02244997 0.03888452 0.00319999
v 0.01826244 0.04101818 0.00070000
v 0.01826244 0.04101818 0.00319999
v 0.01387482 0.04270243 0.00070000
v 0.01387482 0.04270243 0.00319999
v 0.00933522 0.04391878 0.00070000
v 0.00933522 0.04391878 0.00319999
v 0.00469333 0.04465401 0.00070000
v 0.00469333 0.04465401 0.00319999
v 0.00000000 0.04490000 0.00070000
v 0.00000000 0.04490000 0.00319999
v -0.00469327 0.04465401 0.00070000
v -0.00469327 0.04465401 0.00319999
v -0.00933522 0.04391878 0.00070000
v -0.00933522 0.04391878 0.00319999
v -0.01387482 0.04270243 0.00070000
v -0.01387482 0.04270243 0.00319999
v -0.01826244 0.04101818 0.00070000
v -0.01826244 0.04101818 0.00319999
v -0.02244997 0.03888452 0.00070000
v -0.02244997 0.03888452 0.00319999
v -0.02639150 0.03632485 0.00070000
v -0.02639150 0.03632485 0.00319999
v -0.03004395 0.03336715 0.00070000
v -0.03004395 0.03336715 0.00319999
v -0.03336715 0.03004395 0.00070000
v -0.03587394 0.02616137 0.00020000
v -0.02068626 0.03091096 0.00020000
v -0.03845149 0.02219998 0.00020000
v -0.01949995 0.03067499 0.00020000
v -0.03654056 0.00188714 0.00020000
v -0.03600561 0.00080234 0.00020000
v -0.01831364 0.03091096 0.00020000
v -0.03592652 -0.00040463 0.00020000
v 0.01761281 0.03131556 0.00020000
v -0.01761281 -0.03131556 0.00020000
v 0.03592652 0.00040463 0.00020000
v 0.01831364 -0.03091096 0.00020000
v 0.03600561 -0.00080234 0.00020000
v 0.01949995 -0.03067499 0.00020000
v 0.03654056 -0.00188714 0.00020000
v 0.03721547 -0.02421498 0.00020000
v 0.03957855 -0.02012205 0.00020000
v 0.03744995 -0.00268465 0.00020000
v 0.04149317 -0.01580107 0.00020000
v 0.04293763 -0.01130110 0.00020000
v 0.03859531 -0.00307345 0.00020000
v 0.04389566 -0.00667310 0.00020000
v 0.03980231 -0.00299436 0.00020000
v 0.04088711 -0.00245935 0.00020000
v -0.03288996 0.02982634 0.00020000
v -0.02169197 0.03158295 0.00020000
v -0.02953326 0.03315335 0.00020000
v -0.02236402 0.03258866 0.00020000
v -0.02259999 0.03377497 0.00020000
v -0.02584195 0.03610473 0.00020000
v -0.02236402 0.03496128 0.00020000
v -0.02169197 0.03596699 0.00020000
v -0.02185785 0.03864699 0.00020000
v -0.02068626 0.03663897 0.00020000
v -0.01949995 0.03687494 0.00020000
v -0.01762610 0.04075139 0.00020000
v -0.01831364 0.03663897 0.00020000
v -0.01730793 0.03596699 0.00020000
v -0.01319462 0.04239410 0.00020000
v -0.01663595 0.03496128 0.00020000
v -0.00861365 0.04355639 0.00020000
v -0.01639997 0.03377497 0.00020000
v -0.00393510 0.04422527 0.00020000
v -0.01663595 0.03258866 0.00020000
v 0.00078802 0.04439300 0.00020000
v 0.01681530 0.03222495 0.00020000
v 0.01642650 0.03337031 0.00020000
v 0.00550222 0.04405772 0.00020000
v 0.01015412 0.04322326 0.00020000
v 0.01650559 0.03457731 0.00020000
v 0.01469093 0.04189908 0.00020000
v 0.01704061 0.03566211 0.00020000
v 0.01794999 0.03645962 0.00020000
v 0.01906132 0.04010015 0.00020000
v 0.01909536 0.03684842 0.00020000
v 0.02030229 0.03676933 0.00020000
v 0.02321571 0.03784692 0.00020000
v 0.02138715 0.03623437 0.00020000
v 0.02218466 0.03532499 0.00020000
v 0.02710705 0.03516483 0.00020000
v 0.02257347 0.03417956 0.00020000
v 0.02249437 0.03297263 0.00020000
v 0.03069126 0.03208428 0.00020000
v 0.02195936 0.03188782 0.00020000
v 0.02104997 0.03109025 0.00020000
v 0.03392779 0.02864021 0.00020000
v 0.03677982 0.02487170 0.00020000
v 0.01990461 0.03070145 0.00020000
v 0.03921514 0.02082133 0.00020000
v 0.03631532 0.00154996 0.00020000
v 0.03711283 0.00245935 0.00020000
v 0.04120618 0.01653504 0.00020000
v 0.04273033 0.01206141 0.00020000
v 0.03819763 0.00299436 0.00020000
v 0.04377031 0.00745112 0.00020000
v 0.03940463 0.00307345 0.00020000
v 0.04054999 0.00268465 0.00020000
v 0.04431432 0.00275642 0.00020000
v 0.04145938 0.00188714 0.00020000
v 0.04199433 0.00080234 0.00020000
v 0.04435628 -0.00196946 0.00020000
v 0.04207342 -0.00040463 0.00020000
v 0.04168462 -0.00154996 0.00020000
v 0.02068626 -0.03091096 0.00020000
v 0.03443074 -0.02803355 0.00020000
v 0.02169197 -0.03158295 0.00020000
v 0.03125590 -0.03153449 0.00020000
v 0.02236402 -0.03258866 0.00020000
v 0.02772688 -0.03467816 0.00020000
v 0.02259999 -0.03377497 0.00020000
v 0.02236402 -0.03496128 0.00020000
v 0.02388375 -0.03742891 0.00020000
v 0.02169197 -0.03596699 0.00020000
v 0.02068626 -0.03663897 0.00020000
v 0.01977002 -0.03975552 0.00020000
v 0.01949995 -0.03687494 0.00020000
v 0.01831364 -0.03663897 0.00020000
v 0.01543223 -0.04163175 0.00020000
v 0.01730793 -0.03596699 0.00020000
v 0.01663595 -0.03496128 0.00020000
v 0.01091963 -0.04303622 0.00020000
v 0.01639997 -0.03377497 0.00020000
v 0.00628328 -0.04395312 0.00020000
v 0.01663595 -0.03258866 0.00020000
v 0.00157577 -0.04437202 0.00020000
v -0.01681530 -0.03222495 0.00020000
v -0.01642650 -0.03337031 0.00020000
v -0.00314957 -0.04428809 0.00020000
v -0.00783926 -0.04370242 0.00020000
v -0.01650559 -0.03457731 0.00020000
v -0.01244014 -0.04262161 0.00020000
v -0.01704061 -0.03566211 0.00020000
v -0.01690006 -0.04105782 0.00020000
v -0.01794999 -0.03645962 0.00020000
v -0.01909536 -0.03684842 0.00020000
v -0.02116852 -0.03902882 0.00020000
v -0.02030229 -0.03676933 0.00020000
v -0.02138715 -0.03623437 0.00020000
v -0.02519708 -0.03655767 0.00020000
v -0.02218466 -0.03532499 0.00020000
v -0.02257347 -0.03417956 0.00020000
v -0.02894020 -0.03367227 0.00020000
v -0.02249437 -0.03297263 0.00020000
v -0.02195936 -0.03188782 0.00020000
v -0.03235536 -0.03040534 0.00020000
v -0.02104997 -0.03109025 0.00020000
v -0.03540396 -0.02679395 0.00020000
v -0.01990461 -0.03070145 0.00020000
v -0.03805142 -0.02287894 0.00020000
v -0.03631532 -0.00154996 0.00020000
v -0.03711283 -0.00245935 0.00020000
v -0.04026776 -0.01870471 0.00020000
v -0.04202783 -0.01431852 0.00020000
v -0.03819763 -0.00299436 0.00020000
v -0.04331165 -0.00977010 0.00020000
v -0.03940463 -0.00307345 0.00020000
v -0.04410481 -0.00511098 0.00020000
v -0.04054999 -0.00268465 0.00020000
v -0.04145938 -0.00188714 0.00020000
v -0.04439824 -0.00039402 0.00020000
v -0.04199433 -0.00080234 0.00020000
v -0.04207342 0.00040463 0.00020000
v -0.04168462 0.00154996 0.00020000
v -0.04418855 0.00432742 0.00020000
v -0.04088711 0.00245935 0.00020000
v -0.03980231 0.00299436 0.00020000
v -0.04347825 0.00899988 0.00020000
v -0.03859531 0.00307345 0.00020000
v -0.04227530 0.01357036 0.00020000
v -0.03744995 0.00268465 0.00020000
v -0.04059338 0.01798707 0.00020000
v 0.01730793 -0.03158295 0.00020000
v -0.01869761 -0.03078061 0.00020000
v 0.01869761 0.03078061 0.00020000
v -0.01730793 0.03158295 0.00020000
v -0.04101818 0.01826244 0.00319999
v -0.03761434 0.00080000 0.00319999
v -0.03888452 0.02244997 0.00319999
v -0.01949995 0.03217494 0.00319999
v -0.03632485 0.02639150 0.00319999
v -0.02029997 0.03238934 0.00319999
v -0.03336715 0.03004395 0.00319999
v -0.03004395 0.03336715 0.00319999
v -0.02088564 0.03297495 0.00319999
v -0.02639150 0.03632485 0.00319999
v -0.02109998 0.03377497 0.00319999
v -0.02088564 0.03457498 0.00319999
v -0.03819996 0.00138563 0.00319999
v -0.04270243 0.01387482 0.00319999
v -0.04391878 0.00933522 0.00319999
v -0.03899997 0.00159997 0.00319999
v -0.04465401 0.00469333 0.00319999
v -0.03979998 0.00138563 0.00319999
v -0.04038560 0.00080000 0.00319999
v -0.04490000 0.00000000 0.00319999
v -0.04060000 0.00000000 0.00319999
v -0.04038560 -0.00080000 0.00319999
v -0.04465401 -0.00469327 0.00319999
v -0.03979998 -0.00138563 0.00319999
v -0.03899997 -0.00159997 0.00319999
v -0.04391878 -0.00933522 0.00319999
v -0.03819996 -0.00138563 0.00319999
v -0.04270243 -0.01387482 0.00319999
v -0.04101818 -0.01826244 0.00319999
v -0.03761434 -0.00080000 0.00319999
v -0.03888452 -0.02244997 0.00319999
v -0.01949995 -0.03217494 0.00319999
v -0.03632485 -0.02639150 0.00319999
v -0.02029997 -0.03238934 0.00319999
v -0.03336715 -0.03004395 0.00319999
v -0.03004395 -0.03336715 0.00319999
v -0.02088564 -0.03297495 0.00319999
v -0.02639150 -0.03632485 0.00319999
v -0.02109998 -0.03377497 0.00319999
v -0.02088564 -0.03457498 0.00319999
v -0.02244997 -0.03888452 0.00319999
v -0.02029997 -0.03516060 0.00319999
v -0.01949995 -0.03537493 0.00319999
v -0.01826244 -0.04101818 0.00319999
v -0.01870000 -0.03516060 0.00319999
v -0.01811432 -0.03457498 0.00319999
v -0.01387482 -0.04270243 0.00319999
v -0.01789999 -0.03377497 0.00319999
v -0.00933522 -0.04391878 0.00319999
v -0.00469333 -0.04465401 0.00319999
v -0.01811432 -0.03297495 0.00319999
v 0.00000000 -0.04490000 0.00319999
v 0.01811432 -0.03297495 0.00319999
v 0.00469327 -0.04465401 0.00319999
v 0.01789999 -0.03377497 0.00319999
v 0.00933522 -0.04391878 0.00319999
v 0.01387482 -0.04270243 0.00319999
v 0.01811432 -0.03457498 0.00319999
v 0.01826244 -0.04101818 0.00319999
v 0.01870000 -0.03516060 0.00319999
v 0.01949995 -0.03537499 0.00319999
v 0.02244997 -0.03888452 0.00319999
v 0.02029997 -0.03516060 0.00319999
v 0.02088564 -0.03457498 0.00319999
v 0.02639150 -0.03632485 0.00319999
v 0.02109998 -0.03377497 0.00319999
v 0.02088564 -0.03297495 0.00319999
v 0.03004395 -0.03336715 0.00319999
v 0.02029997 -0.03238934 0.00319999
v 0.03336715 -0.03004395 0.00319999
v 0.03632485 -0.02639150 0.00319999
v 0.01949995 -0.03217494 0.00319999
v 0.03888452 -0.02244997 0.00319999
v 0.03761434 -0.00080000 0.00319999
v 0.04101818 -0.01826244 0.00319999
v 0.03819996 -0.00138563 0.00319999
v 0.04270243 -0.01387482 0.00319999
v 0.04391878 -0.00933522 0.00319999
v 0.03899997 -0.00159997 0.00319999
v 0.04465401 -0.00469333 0.00319999
v 0.03979998 -0.00138563 0.00319999
v 0.04038560 -0.00080000 0.00319999
v 0.04490000 0.00000000 0.00319999
v 0.04060000 0.00000000 0.00319999
v 0.04038560 0.00080000 0.00319999
v 0.04465401 0.00469327 0.00319999
v 0.03979998 0.00138563 0.00319999
v 0.03899997 0.00159997 0.00319999
v 0.04391878 0.00933522 0.00319999
v 0.03819996 0.00138563 0.00319999
v 0.04270243 0.01387482 0.00319999
v 0.04101818 0.01826244 0.00319999
v 0.03761434 0.00080000 0.00319999
v 0.03888452 0.02244997 0.00319999
v 0.01949995 0.03217494 0.00319999
v 0.03632485 0.02639150 0.00319999
v 0.02029997 0.03238934 0.00319999
v 0.03336715 0.03004395 0.00319999
v 0.03004395 0.03336715 0.00319999
v 0.02088564 0.03297495 0.00319999
v 0.02639150 0.03632485 0.00319999
v 0.02109998 0.03377497 0.00319999
v 0.02088564 0.03457498 0.00319999
v 0.02244997 0.03888452 0.00319999
v 0.02029997 0.03516060 0.00319999
v 0.01949995 0.03537493 0.00319999
v 0.01826244 0.04101818 0.00319999
v 0.01870000 0.03516060 0.00319999
v 0.01811432 0.03457498 0.00319999
v 0.01387482 0.04270243 0.00319999
v 0.01789999 0.03377497 0.00319999
v 0.00933522 0.04391878 0.00319999
v 0.00469333 0.04465401 0.00319999
v 0.01811432 0.03297495 0.00319999
v 0.00000000 0.04490000 0.00319999
v -0.01811432 0.03297495 0.00319999
v -0.00469327 0.04465401 0.00319999
v -0.01789999 0.03377497 0.00319999
v -0.00933522 0.04391878 0.00319999
v -0.01387482 0.04270243 0.00319999
v -0.01811432 0.03457498 0.00319999
v -0.01826244 0.04101818 0.00319999
v -0.01870000 0.03516060 0.00319999
v -0.01949995 0.03537499 0.00319999
v -0.02244997 0.03888452 0.00319999
v -0.02029997 0.03516060 0.00319999
v -0.01870000 -0.03238934 0.00319999
v -0.03739994 0.00000000 0.00319999
v 0.01870000 -0.03238934 0.00319999
v -0.01870000 0.03238934 0.00319999
v 0.03739994 0.00000000 0.00319999
v 0.01870000 0.03238934 0.00319999
v -0.04060000 0.00000000 0.00319999
v -0.04060000 0.00000000 0.00169998
v -0.04038560 0.00080000 0.00319999
v -0.04038560 0.00080000 0.00169998
v -0.04038560 0.00080000 0.00319999
v -0.04038560 0.00080000 0.00169998
v -0.03979998 0.00138563 0.00319999
v -0.03979998 0.00138563 0.00169998
v -0.03899997 0.00159997 0.00319999
v -0.03899997 0.00159997 0.00169998
v -0.03819996 0.00138563 0.00319999
v -0.03819996 0.00138563 0.00169998
v -0.03761434 0.00080000 0.00319999
v -0.03761434 0.00080000 0.00169998
v -0.03739994 0.00000000 0.00319999
v -0.03739994 0.00000000 0.00169998
v -0.03761434 -0.00080000 0.00319999
v -0.03761434 -0.00080000 0.00169998
v -0.03819996 -0.00138563 0.00319999
v -0.03819996 -0.00138563 0.00169998
v -0.03899997 -0.00159997 0.00319999
v -0.03899997 -0.00159997 0.00169998
v -0.03979998 -0.00138563 0.00319999
v -0.03979998 -0.00138563 0.00169998
v -0.04038560 -0.00080000 0.00319999
v -0.04038560 -0.00080000 0.00169998
v -0.03592652 -0.00040463 0.00020000
v -0.03631532 -0.00154996 0.00020000
v -0.03761434 -0.00080000 0.00169998
v -0.03761434 -0.00080000 0.00169998
v -0.03631532 -0.00154996 0.00020000
v -0.03711283 -0.00245935 0.00020000
v -0.03819996 -0.00138563 0.00169998
v -0.03819763 -0.00299436 0.00020000
v -0.03899997 -0.00159997 0.00169998
v -0.03940463 -0.00307345 0.00020000
v -0.03979998 -0.00138563 0.00169998
v -0.04054999 -0.00268465 0.00020000
v -0.04145938 -0.00188714 0.00020000
v -0.04038560 -0.00080000 0.00169998
v -0.04199433 -0.00080234 0.00020000
v -0.04060000 0.00000000 0.00169998
v -0.04207342 0.00040463 0.00020000
v -0.04038560 0.00080000 0.00169998
v -0.04168462 0.00154996 0.00020000
v -0.04088711 0.00245935 0.00020000
v -0.03979998 0.00138563 0.00169998
v -0.03980231 0.00299436 0.00020000
v -0.03899997 0.00159997 0.00169998
v -0.03859531 0.00307345 0.00020000
v -0.03819996 0.00138563 0.00169998
v -0.03744995 0.00268465 0.00020000
v -0.03654056 0.00188714 0.00020000
v -0.03761434 0.00080000 0.00169998
v -0.03600561 0.00080234 0.00020000
v -0.03739994 0.00000000 0.00169998
v -0.02029997 0.03516060 0.00319999
v -0.02029997 0.03516060 0.00169998
v -0.01949995 0.03537499 0.00319999
v -0.01949995 0.03537499 0.00169998
v -0.01949995 0.03537499 0.00319999
v -0.01949995 0.03537499 0.00169998
v -0.01870000 0.03516060 0.00319999
v -0.01870000 0.03516060 0.00169998
v -0.01811432 0.03457498 0.00319999
v -0.01811432 0.03457498 0.00169998
v -0.01789999 0.03377497 0.00319999
v -0.01789999 0.03377497 0.00169998
v -0.01811432 0.03297495 0.00319999
v -0.01811432 0.03297495 0.00169998
v -0.01870000 0.03238934 0.00319999
v -0.01870000 0.03238934 0.00169998
v -0.01949995 0.03217494 0.00319999
v -0.01949995 0.03217494 0.00169998
v -0.02029997 0.03238934 0.00319999
v -0.02029997 0.03238934 0.00169998
v -0.02088564 0.03297495 0.00319999
v -0.02088564 0.03297495 0.00169998
v -0.02109998 0.03377497 0.00319999
v -0.02109998 0.03377497 0.00169998
v -0.02088564 0.03457498 0.00319999
v -0.02088564 0.03457498 0.00169998
v -0.01831364 0.03091096 0.00020000
v -0.01949995 0.03067499 0.00020000
v -0.01949995 0.03217494 0.00169998
v -0.01949995 0.03067499 0.00020000
v -0.02068626 0.03091096 0.00020000
v -0.02029997 0.03238934 0.00169998
v -0.02169197 0.03158295 0.00020000
v -0.02088564 0.03297495 0.00169998
v -0.02236402 0.03258866 0.00020000
v -0.02109998 0.03377497 0.00169998
v -0.02259999 0.03377497 0.00020000
v -0.02236402 0.03496128 0.00020000
v -0.02088564 0.03457498 0.00169998
v -0.02169197 0.03596699 0.00020000
v -0.02029997 0.03516060 0.00169998
v -0.02068626 0.03663897 0.00020000
v -0.01949995 0.03537499 0.00169998
v -0.01949995 0.03687494 0.00020000
v -0.01831364 0.03663897 0.00020000
v -0.01870000 0.03516060 0.00169998
v -0.01730793 0.03596699 0.00020000
v -0.01811432 0.03457498 0.00169998
v -0.01663595 0.03496128 0.00020000
v -0.01789999 0.03377497 0.00169998
v -0.01639997 0.03377497 0.00020000
v -0.01663595 0.03258866 0.00020000
v -0.01811432 0.03297495 0.00169998
v -0.01730793 0.03158295 0.00020000
v -0.01870000 0.03238934 0.00169998
v 0.02029997 0.03516060 0.00319999
v 0.02029997 0.03516060 0.00169998
v 0.02088564 0.03457498 0.00319999
v 0.02088564 0.03457498 0.00169998
v 0.02088564 0.03457498 0.00319999
v 0.02088564 0.03457498 0.00169998
v 0.02109998 0.03377497 0.00319999
v 0.02109998 0.03377497 0.00169998
v 0.02088564 0.03297495 0.00319999
v 0.02088564 0.03297495 0.00169998
v 0.02029997 0.03238934 0.00319999
v 0.02029997 0.03238934 0.00169998
v 0.01949995 0.03217494 0.00319999
v 0.01949995 0.03217494 0.00169998
v 0.01870000 0.03238934 0.00319999
v 0.01870000 0.03238934 0.00169998
v 0.01811432 0.03297495 0.00319999
v 0.01811432 0.03297495 0.00169998
v 0.01789999 0.03377497 0.00319999
v 0.01789999 0.03377497 0.00169998
v 0.01811432 0.03457498 0.00319999
v 0.01811432 0.03457498 0.00169998
v 0.01870000 0.03516060 0.00319999
v 0.01870000 0.03516060 0.00169998
v 0.01949995 0.03537493 0.00319999
v 0.01949995 0.03537493 0.00169998
v 0.01761281 0.03131556 0.00020000
v 0.01681530 0.03222495 0.00020000
v 0.01811432 0.03297495 0.00169998
v 0.01811432 0.03297495 0.00169998
v 0.01642650 0.03337031 0.00020000
v 0.01789999 0.03377497 0.00169998
v 0.01650559 0.03457731 0.00020000
v 0.01811432 0.03457498 0.00169998
v 0.01704061 0.03566211 0.00020000
v 0.01870000 0.03516060 0.00169998
v 0.01794999 0.03645962 0.00020000
v 0.01909536 0.03684842 0.00020000
v 0.01949995 0.03537493 0.00169998
v 0.02030229 0.03676933 0.00020000
v 0.02029997 0.03516060 0.00169998
v 0.02138715 0.03623437 0.00020000
v 0.02088564 0.03457498 0.00169998
v 0.02218466 0.03532499 0.00020000
v 0.02257347 0.03417956 0.00020000
v 0.02109998 0.03377497 0.00169998
v 0.02249437 0.03297263 0.00020000
v 0.02088564 0.03297495 0.00169998
v 0.02195936 0.03188782 0.00020000
v 0.02029997 0.03238934 0.00169998
v 0.02104997 0.03109025 0.00020000
v 0.01990461 0.03070145 0.00020000
v 0.01949995 0.03217494 0.00169998
v 0.01869761 0.03078061 0.00020000
v 0.01870000 0.03238934 0.00169998
v 0.04060000 0.00000000 0.00319999
v 0.04060000 0.00000000 0.00169998
v 0.04038560 -0.00080000 0.00319999
v 0.04038560 -0.00080000 0.00169998
v 0.04038560 -0.00080000 0.00319999
v 0.04038560 -0.00080000 0.00169998
v 0.03979998 -0.00138563 0.00319999
v 0.03979998 -0.00138563 0.00169998
v 0.03899997 -0.00159997 0.00319999
v 0.03899997 -0.00159997 0.00169998
v 0.03819996 -0.00138563 0.00319999
v 0.03819996 -0.00138563 0.00169998
v 0.03761434 -0.00080000 0.00319999
v 0.03761434 -0.00080000 0.00169998
v 0.03739994 0.00000000 0.00319999
v 0.03739994 0.00000000 0.00169998
v 0.03761434 0.00080000 0.00319999
v 0.03761434 0.00080000 0.00169998
v 0.03819996 0.00138563 0.00319999
v 0.03819996 0.00138563 0.00169998
v 0.03899997 0.00159997 0.00319999
v 0.03899997 0.00159997 0.00169998
v 0.03979998 0.00138563 0.00319999
v 0.03979998 0.00138563 0.00169998
v 0.04038560 0.00080000 0.00319999
v 0.04038560 0.00080000 0.00169998
v 0.03592652 0.00040463 0.00020000
v 0.03631532 0.00154996 0.00020000
v 0.03761434 0.00080000 0.00169998
v 0.03761434 0.00080000 0.00169998
v 0.03631532 0.00154996 0.00020000
v 0.03711283 0.00245935 0.00020000
v 0.03819996 0.00138563 0.00169998
v 0.03819763 0.00299436 0.00020000
v 0.03899997 0.00159997 0.00169998
v 0.03940463 0.00307345 0.00020000
v 0.03979998 0.00138563 0.00169998
v 0.04054999 0.00268465 0.00020000
v 0.04145938 0.00188714 0.00020000
v 0.04038560 0.00080000 0.00169998
v 0.04199433 0.00080234 0.00020000
v 0.04060000 0.00000000 0.00169998
v 0.04207342 -0.00040463 0.00020000
v 0.04038560 -0.00080000 0.00169998
v 0.04168462 -0.00154996 0.00020000
v 0.04088711 -0.00245935 0.00020000
v 0.03979998 -0.00138563 0.00169998
v 0.03980231 -0.00299436 0.00020000
v 0.03899997 -0.00159997 0.00169998
v 0.03859531 -0.00307345 0.00020000
v 0.03819996 -0.00138563 0.00169998
v 0.03744995 -0.00268465 0.00020000
v 0.03654056 -0.00188714 0.00020000
v 0.03761434 -0.00080000 0.00169998
v 0.03600561 -0.00080234 0.00020000
v 0.03739994 0.00000000 0.00169998
v 0.02029997 -0.03516060 0.00319999
v 0.02029997 -0.03516060 0.00169998
v 0.01949995 -0.03537499 0.00319999
v 0.01949995 -0.03537499 0.00169998
v 0.01949995 -0.03537499 0.00319999
v 0.01949995 -0.03537499 0.00169998
v 0.01870000 -0.03516060 0.00319999
v 0.01870000 -0.03516060 0.00169998
v 0.01811432 -0.03457498 0.00319999
v 0.01811432 -0.03457498 0.00169998
v 0.01789999 -0.03377497 0.00319999
v 0.01789999 -0.03377497 0.00169998
v 0.01811432 -0.03297495 0.00319999
v 0.01811432 -0.03297495 0.00169998
v 0.01870000 -0.03238934 0.00319999
v 0.01870000 -0.03238934 0.00169998
v 0.01949995 -0.03217494 0.00319999
v 0.01949995 -0.03217494 0.00169998
v 0.02029997 -0.03238934 0.00319999
v 0.02029997 -0.03238934 0.00169998
v 0.02088564 -0.03297495 0.00319999
v 0.02088564 -0.03297495 0.00169998
v 0.02109998 -0.03377497 0.00319999
v 0.02109998 -0.03377497 0.00169998
v 0.02088564 -0.03457498 0.00319999
v 0.02088564 -0.03457498 0.00169998
v 0.01831364 -0.03091096 0.00020000
v 0.01949995 -0.03067499 0.00020000
v 0.01949995 -0.03217494 0.00169998
v 0.01949995 -0.03067499 0.00020000
v 0.02068626 -0.03091096 0.00020000
v 0.02029997 -0.03238934 0.00169998
v 0.02169197 -0.03158295 0.00020000
v 0.02088564 -0.03297495 0.00169998
v 0.02236402 -0.03258866 0.00020000
v 0.02109998 -0.03377497 0.00169998
v 0.02259999 -0.03377497 0.00020000
v 0.02236402 -0.03496128 0.00020000
v 0.02088564 -0.03457498 0.00169998
v 0.02169197 -0.03596699 0.00020000
v 0.02029997 -0.03516060 0.00169998
v 0.02068626 -0.03663897 0.00020000
v 0.01949995 -0.03537499 0.00169998
v 0.01949995 -0.03687494 0.00020000
v 0.01831364 -0.03663897 0.00020000
v 0.01870000 -0.03516060 0.00169998
v 0.01730793 -0.03596699 0.00020000
v 0.01811432 -0.03457498 0.00169998
v 0.01663595 -0.03496128 0.00020000
v 0.01789999 -0.03377497 0.00169998
v 0.01639997 -0.03377497 0.00020000
v 0.01663595 -0.03258866 0.00020000
v 0.01811432 -0.03297495 0.00169998
v 0.01730793 -0.03158295 0.00020000
v 0.01870000 -0.03238934 0.00169998
v -0.02029997 -0.03516060 0.00319999
v -0.02029997 -0.03516060 0.00169998
v -0.02088564 -0.03457498 0.00319999
v -0.02088564 -0.03457498 0.00169998
v -0.02088564 -0.03457498 0.00319999
v -0.02088564 -0.03457498 0.00169998
v -0.02109998 -0.03377497 0.00319999
v -0.02109998 -0.03377497 0.00169998
v -0.02088564 -0.03297495 0.00319999
v -0.02088564 -0.03297495 0.00169998
v -0.02029997 -0.03238934 0.00319999
v -0.02029997 -0.03238934 0.00169998
v -0.01949995 -0.03217494 0.00319999
v -0.01949995 -0.03217494 0.00169998
v -0.01870000 -0.03238934 0.00319999
v -0.01870000 -0.03238934 0.00169998
v -0.01811432 -0.03297495 0.00319999
v -0.01811432 -0.03297495 0.00169998
v -0.01789999 -0.03377497 0.00319999
v -0.01789999 -0.03377497 0.00169998
v -0.01811432 -0.03457498 0.00319999
v -0.01811432 -0.03457498 0.00169998
v -0.01870000 -0.03516060 0.00319999
v -0.01870000 -0.03516060 0.00169998
v -0.01949995 -0.03537493 0.00319999
v -0.01949995 -0.03537493 0.00169998
v -0.01761281 -0.03131556 0.00020000
v -0.01681530 -0.03222495 0.00020000
v -0.01811432 -0.03297495 0.00169998
v -0.01811432 -0.03297495 0.00169998
v -0.01642650 -0.03337031 0.00020000
v -0.01789999 -0.03377497 0.00169998
v -0.01650559 -0.03457731 0.00020000
v -0.01811432 -0.03457498 0.00169998
v -0.01704061 -0.03566211 0.00020000
v -0.01870000 -0.03516060 0.00169998
v -0.01794999 -0.03645962 0.00020000
v -0.01909536 -0.03684842 0.00020000
v -0.01949995 -0.03537493 0.00169998
v -0.02030229 -0.03676933 0.00020000
v -0.02029997 -0.03516060 0.00169998
v -0.02138715 -0.03623437 0.00020000
v -0.02088564 -0.03457498 0.00169998
v -0.02218466 -0.03532499 0.00020000
v -0.02257347 -0.03417956 0.00020000
v -0.02109998 -0.03377497 0.00169998
v -0.02249437 -0.03297263 0.00020000
v -0.02088564 -0.03297495 0.00169998
v -0.02195936 -0.03188782 0.00020000
v -0.02029997 -0.03238934 0.00169998
v -0.02104997 -0.03109025 0.00020000
v -0.01990461 -0.03070145 0.00020000
v -0.01949995 -0.03217494 0.00169998
v -0.01869761 -0.03078061 0.00020000
v -0.01870000 -0.03238934 0.00169998
v -0.04059338 0.01798707 0.00020000
v -0.04101818 0.01826244 0.00070000
v -0.03845149 0.02219998 0.00020000
v -0.03888452 0.02244997 0.00070000
v -0.03845149 0.02219998 0.00020000
v -0.03888452 0.02244997 0.00070000
v -0.03632485 0.02639150 0.00070000
v -0.04270243 0.01387482 0.00070000
v -0.04227530 0.01357036 0.00020000
v -0.04391878 0.00933522 0.00070000
v -0.04347825 0.00899988 0.00020000
v -0.04465401 0.00469333 0.00070000
v -0.04418855 0.00432742 0.00020000
v -0.04490000 0.00000000 0.00070000
v -0.04439824 -0.00039402 0.00020000
v -0.04465401 -0.00469327 0.00070000
v -0.04410481 -0.00511098 0.00020000
v -0.04391878 -0.00933522 0.00070000
v -0.04331165 -0.00977010 0.00020000
v -0.04270243 -0.01387482 0.00070000
v -0.04202783 -0.01431852 0.00020000
v -0.04101818 -0.01826244 0.00070000
v -0.04026776 -0.01870471 0.00020000
v -0.03888452 -0.02244997 0.00070000
v -0.03805142 -0.02287894 0.00020000
v -0.03632485 -0.02639150 0.00070000
v -0.03540396 -0.02679395 0.00020000
v -0.03336715 -0.03004395 0.00070000
v -0.03235536 -0.03040534 0.00020000
v -0.03004395 -0.03336715 0.00070000
v -0.02894020 -0.03367227 0.00020000
v -0.02639150 -0.03632485 0.00070000
v -0.02519708 -0.03655767 0.00020000
v -0.02244997 -0.03888452 0.00070000
v -0.02116852 -0.03902882 0.00020000
v -0.01826244 -0.04101818 0.00070000
v -0.01690006 -0.04105782 0.00020000
v -0.01387482 -0.04270243 0.00070000
v -0.01244014 -0.04262161 0.00020000
v -0.00933522 -0.04391878 0.00070000
v -0.00783926 -0.04370242 0.00020000
v -0.00469333 -0.04465401 0.00070000
v -0.00314957 -0.04428809 0.00020000
v 0.00000000 -0.04490000 0.00070000
v 0.00157577 -0.04437202 0.00020000
v 0.00469327 -0.04465401 0.00070000
v 0.00628328 -0.04395312 0.00020000
v 0.00933522 -0.04391878 0.00070000
v 0.01091963 -0.04303622 0.00020000
v 0.01387482 -0.04270243 0.00070000
v 0.01543223 -0.04163175 0.00020000
v 0.01826244 -0.04101818 0.00070000
v 0.01977002 -0.03975552 0.00020000
v 0.02244997 -0.03888452 0.00070000
v 0.02388375 -0.03742891 0.00020000
v 0.02639150 -0.03632485 0.00070000
v 0.02772688 -0.03467816 0.00020000
v 0.03004395 -0.03336715 0.00070000
v 0.03125590 -0.03153449 0.00020000
v 0.03336715 -0.03004395 0.00070000
v 0.03443074 -0.02803355 0.00020000
v 0.03632485 -0.02639150 0.00070000
v 0.03721547 -0.02421498 0.00020000
v 0.03888452 -0.02244997 0.00070000
v 0.03957855 -0.02012205 0.00020000
v 0.04101818 -0.01826244 0.00070000
v 0.04149317 -0.01580107 0.00020000
v 0.04270243 -0.01387482 0.00070000
v 0.04293763 -0.01130110 0.00020000
v 0.04391878 -0.00933522 0.00070000
v 0.04389566 -0.00667310 0.00020000
v 0.04465401 -0.00469333 0.00070000
v 0.04435628 -0.00196946 0.00020000
v 0.04490000 0.00000000 0.00070000
v 0.04431432 0.00275642 0.00020000
v 0.04465401 0.00469327 0.00070000
v 0.04377031 0.00745112 0.00020000
v 0.04391878 0.00933522 0.00070000
v 0.04273033 0.01206141 0.00020000
v 0.04270243 0.01387482 0.00070000
v 0.04120618 0.01653504 0.00020000
v 0.04101818 0.01826244 0.00070000
v 0.03921514 0.02082133 0.00020000
v 0.03888452 0.02244997 0.00070000
v 0.03677982 0.02487170 0.00020000
v 0.03632485 0.02639150 0.00070000
v 0.03392779 0.02864021 0.00020000
v 0.03336715 0.03004395 0.00070000
v 0.03069126 0.03208428 0.00020000
v 0.03004395 0.03336715 0.00070000
v 0.02710705 0.03516483 0.00020000
v 0.02639150 0.03632485 0.00070000
v 0.02321571 0.03784692 0.00020000
v 0.02244997 0.03888452 0.00070000
v 0.01906132 0.04010015 0.00020000
v 0.01826244 0.04101818 0.00070000
v 0.01469093 0.04189908 0.00020000
v 0.01387482 0.04270243 0.00070000
v 0.01015412 0.04322326 0.00020000
v 0.00933522 0.04391878 0.00070000
v 0.00550222 0.04405772 0.00020000
v 0.00469333 0.04465401 0.00070000
v 0.00078802 0.04439300 0.00020000
v 0.00000000 0.04490000 0.00070000
v -0.00393510 0.04422527 0.00020000
v -0.00469327 0.04465401 0.00070000
v -0.00861365 0.04355639 0.00020000
v -0.00933522 0.04391878 0.00070000
v -0.01319462 0.04239410 0.00020000
v -0.01387482 0.04270243 0.00070000
v -0.01762610 0.04075139 0.00020000
v -0.01826244 0.04101818 0.00070000
v -0.02185785 0.03864699 0.00020000
v -0.02244997 0.03888452 0.00070000
v -0.02584195 0.03610473 0.00020000
v -0.02639150 0.03632485 0.00070000
v -0.02953326 0.03315335 0.00020000
v -0.03004395 0.03336715 0.00070000
v -0.03288996 0.02982634 0.00020000
v -0.03336715 0.03004395 0.00070000
v -0.03587394 0.02616137 0.00020000
f 1 2 3
f 3 2 4
f 5 6 7
f 7 6 8
f 7 8 9
f 1 10 2
f 2 10 11
f 11 10 12
f 11 12 13
f 13 12 14
f 13 14 15
f 15 14 16
f 15 16 17
f 17 16 18
f 17 18 19
f 19 18 20
f 19 20 21
f 21 20 22
f 21 22 23
f 23 22 24
f 23 24 25
f 25 24 26
f 25 26 27
f 27 26 28
f 27 28 29
f 29 28 30
f 29 30 31
f 31 30 32
f 31 32 33
f 33 32 34
f 33 34 35
f 35 34 36
f 35 36 37
f 37 36 38
f 37 38 39
f 39 38 40
f 39 40 41
f 41 40 42
f 41 42 43
f 43 42 44
f 43 44 45
f 45 44 46
f 45 46 47
f 47 46 48
f 47 48 49
f 49 48 50
f 49 50 51
f 51 50 52
f 51 52 53
f 53 52 54
f 53 54 55
f 55 54 56
f 55 56 57
f 57 56 58
f 57 58 59
f 59 58 60
f 59 60 61
f 61 60 62
f 61 62 63
f 63 62 64
f 63 64 65
f 65 64 66
f 65 66 67
f 67 66 68
f 67 68 69
f 69 68 70
f 69 70 71
f 71 70 72
f 71 72 73
f 73 72 74
f 73 74 75
f 75 74 76
f 75 76 77
f 77 76 78
f 77 78 79
f 79 78 80
f 79 80 81
f 81 80 82
f 81 82 83
f 83 82 84
f 83 84 85
f 85 84 86
f 85 86 87
f 87 86 88
f 87 88 89
f 89 88 90
f 89 90 91
f 91 90 92
f 91 92 93
f 93 92 94
f 93 94 95
f 95 94 96
f 95 96 97
f 97 96 98
f 97 98 99
f 99 98 100
f 99 100 101
f 101 100 102
f 101 102 103
f 103 102 104
f 103 104 105
f 105 104 106
f 105 106 107
f 107 106 108
f 107 108 109
f 109 108 110
f 109 110 111
f 111 110 112
f 111 112 113
f 113 112 114
f 113 114 115
f 115 114 116
f 115 116 117
f 117 116 118
f 117 118 119
f 119 118 120
f 119 120 121
f 121 120 122
f 121 122 9
f 9 122 7
f 123 124 125
f 125 124 126
f 125 126 127
f 127 126 128
f 128 126 129
f 128 129 130
f 130 129 131
f 130 131 132
f 132 131 133
f 132 133 134
f 134 133 135
f 134 135 136
f 136 135 137
f 136 137 138
f 138 137 139
f 139 137 140
f 139 140 141
f 141 140 142
f 142 140 143
f 142 143 144
f 144 143 145
f 144 145 146
f 123 147 124
f 124 147 148
f 148 147 149
f 148 149 150
f 150 149 151
f 151 149 152
f 151 152 153
f 153 152 154
f 154 152 155
f 154 155 156
f 156 155 157
f 157 155 158
f 157 158 159
f 159 158 160
f 160 158 161
f 160 161 162
f 162 161 163
f 162 163 164
f 164 163 165
f 164 165 166
f 166 165 167
f 166 167 168
f 168 167 169
f 169 167 170
f 169 170 171
f 169 171 172
f 172 171 173
f 172 173 174
f 174 173 175
f 175 173 176
f 175 176 177
f 177 176 178
f 178 176 179
f 178 179 180
f 180 179 181
f 181 179 182
f 181 182 183
f 183 182 184
f 184 182 185
f 184 185 186
f 186 185 187
f 187 185 188
f 187 188 189
f 187 189 190
f 190 189 191
f 190 191 192
f 192 191 193
f 193 191 194
f 193 194 195
f 193 195 196
f 196 195 197
f 196 197 198
f 198 197 199
f 199 197 200
f 199 200 201
f 201 200 202
f 202 200 203
f 202 203 204
f 204 203 205
f 205 203 146
f 146 203 144
f 136 138 206
f 206 138 207
f 206 207 208
f 208 207 209
f 208 209 210
f 210 209 211
f 210 211 212
f 212 211 213
f 213 211 214
f 213 214 215
f 215 214 216
f 216 214 217
f 216 217 218
f 218 217 219
f 219 217 220
f 219 220 221
f 221 220 222
f 222 220 223
f 222 223 224
f 224 223 225
f 224 225 226
f 226 225 227
f 226 227 228
f 228 227 229
f 229 227 230
f 229 230 231
f 229 231 232
f 232 231 233
f 232 233 234
f 234 233 235
f 234 235 236
f 236 235 237
f 237 235 238
f 237 238 239
f 239 238 240
f 240 238 241
f 240 241 242
f 242 241 243
f 243 241 244
f 243 244 245
f 245 244 246
f 246 244 247
f 246 247 248
f 248 247 249
f 248 249 250
f 250 249 251
f 250 251 252
f 252 251 253
f 253 251 254
f 253 254 255
f 253 255 256
f 256 255 257
f 256 257 258
f 258 257 259
f 258 259 260
f 260 259 261
f 261 259 262
f 261 262 263
f 263 262 264
f 264 262 265
f 265 262 266
f 265 266 267
f 267 266 268
f 268 266 269
f 268 269 270
f 270 269 271
f 270 271 272
f 272 271 273
f 272 273 127
f 127 273 125
f 226 228 274
f 274 228 132
f 274 132 134
f 132 275 130
f 130 275 252
f 252 275 250
f 190 192 276
f 276 192 133
f 276 133 131
f 166 168 277
f 277 168 131
f 277 131 129
f 278 279 280
f 280 279 281
f 280 281 282
f 282 281 283
f 282 283 284
f 284 283 285
f 285 283 286
f 285 286 287
f 287 286 288
f 287 288 289
f 279 278 290
f 290 278 291
f 290 291 292
f 290 292 293
f 293 292 294
f 293 294 295
f 295 294 296
f 296 294 297
f 296 297 298
f 298 297 299
f 299 297 300
f 299 300 301
f 301 300 302
f 302 300 303
f 302 303 304
f 304 303 305
f 304 305 306
f 304 306 307
f 307 306 308
f 307 308 309
f 309 308 310
f 309 310 311
f 311 310 312
f 311 312 313
f 311 313 314
f 314 313 315
f 314 315 316
f 316 315 317
f 317 315 318
f 317 318 319
f 319 318 320
f 320 318 321
f 320 321 322
f 322 321 323
f 323 321 324
f 323 324 325
f 325 324 326
f 325 326 327
f 325 327 328
f 328 327 329
f 328 329 330
f 330 329 331
f 330 331 332
f 332 331 333
f 332 333 334
f 332 334 335
f 335 334 336
f 335 336 337
f 337 336 338
f 338 336 339
f 338 339 340
f 340 339 341
f 341 339 342
f 341 342 343
f 343 342 344
f 344 342 345
f 344 345 346
f 346 345 347
f 346 347 348
f 346 348 349
f 349 348 350
f 349 350 351
f 351 350 352
f 351 352 353
f 353 352 354
f 353 354 355
f 353 355 356
f 356 355 357
f 356 357 358
f 358 357 359
f 359 357 360
f 359 360 361
f 361 360 362
f 362 360 363
f 362 363 364
f 364 363 365
f 365 363 366
f 365 366 367
f 367 366 368
f 367 368 369
f 367 369 370
f 370 369 371
f 370 371 372
f 372 371 373
f 372 373 374
f 374 373 375
f 374 375 376
f 374 376 377
f 377 376 378
f 377 378 379
f 379 378 380
f 380 378 381
f 380 381 382
f 382 381 383
f 383 381 384
f 383 384 385
f 385 384 386
f 386 384 387
f 386 387 388
f 388 387 389
f 388 389 390
f 388 390 391
f 391 390 392
f 391 392 393
f 393 392 394
f 393 394 395
f 395 394 396
f 395 396 397
f 395 397 398
f 398 397 399
f 398 399 400
f 400 399 401
f 401 399 402
f 401 402 403
f 403 402 289
f 289 402 287
f 309 404 307
f 307 404 405
f 405 404 406
f 405 406 407
f 407 406 408
f 407 408 409
f 409 408 370
f 409 370 372
f 406 404 330
f 330 404 328
f 408 406 351
f 351 406 349
f 407 409 393
f 393 409 391
f 407 281 405
f 405 281 279
f 410 411 412
f 412 411 413
f 414 415 416
f 416 415 417
f 416 417 418
f 418 417 419
f 418 419 420
f 420 419 421
f 420 421 422
f 422 421 423
f 422 423 424
f 424 423 425
f 424 425 426
f 426 425 427
f 426 427 428
f 428 427 429
f 428 429 430
f 430 429 431
f 430 431 432
f 432 431 433
f 432 433 434
f 434 433 435
f 434 435 410
f 410 435 411
f 436 437 438
f 439 440 441
f 439 441 442
f 442 441 443
f 442 443 444
f 444 443 445
f 444 445 446
f 446 445 447
f 446 447 448
f 446 448 449
f 449 448 450
f 449 450 451
f 451 450 452
f 451 452 453
f 453 452 454
f 453 454 455
f 453 455 456
f 456 455 457
f 456 457 458
f 458 457 459
f 458 459 460
f 460 459 461
f 460 461 462
f 460 462 463
f 463 462 464
f 463 464 465
f 465 464 436
f 465 436 438
f 466 467 468
f 468 467 469
f 470 471 472
f 472 471 473
f 472 473 474
f 474 473 475
f 474 475 476
f 476 475 477
f 476 477 478
f 478 477 479
f 478 479 480
f 480 479 481
f 480 481 482
f 482 481 483
f 482 483 484
f 484 483 485
f 484 485 486
f 486 485 487
f 486 487 488
f 488 487 489
f 488 489 490
f 490 489 491
f 490 491 466
f 466 491 467
f 492 493 494
f 494 495 496
f 494 496 497
f 497 496 498
f 497 498 499
f 499 498 500
f 499 500 501
f 501 500 502
f 501 502 503
f 501 503 504
f 504 503 505
f 504 505 506
f 506 505 507
f 506 507 508
f 508 507 509
f 508 509 510
f 508 510 511
f 511 510 512
f 511 512 513
f 513 512 514
f 513 514 515
f 515 514 516
f 515 516 517
f 515 517 518
f 518 517 519
f 518 519 520
f 520 519 492
f 520 492 494
f 521 522 523
f 523 522 524
f 525 526 527
f 527 526 528
f 527 528 529
f 529 528 530
f 529 530 531
f 531 530 532
f 531 532 533
f 533 532 534
f 533 534 535
f 535 534 536
f 535 536 537
f 537 536 538
f 537 538 539
f 539 538 540
f 539 540 541
f 541 540 542
f 541 542 543
f 543 542 544
f 543 544 545
f 545 544 546
f 545 546 521
f 521 546 522
f 547 548 549
f 550 548 551
f 550 551 552
f 552 551 553
f 552 553 554
f 554 553 555
f 554 555 556
f 556 555 557
f 556 557 558
f 556 558 559
f 559 558 560
f 559 560 561
f 561 560 562
f 561 562 563
f 563 562 564
f 563 564 565
f 563 565 566
f 566 565 567
f 566 567 568
f 568 567 569
f 568 569 570
f 570 569 571
f 570 571 572
f 570 572 573
f 573 572 574
f 573 574 575
f 575 574 547
f 575 547 549
f 576 577 578
f 578 577 579
f 580 581 582
f 582 581 583
f 582 583 584
f 584 583 585
f 584 585 586
f 586 585 587
f 586 587 588
f 588 587 589
f 588 589 590
f 590 589 591
f 590 591 592
f 592 591 593
f 592 593 594
f 594 593 595
f 594 595 596
f 596 595 597
f 596 597 598
f 598 597 599
f 598 599 600
f 600 599 601
f 600 601 576
f 576 601 577
f 602 603 604
f 605 606 607
f 605 607 608
f 608 607 609
f 608 609 610
f 610 609 611
f 610 611 612
f 612 611 613
f 612 613 614
f 612 614 615
f 615 614 616
f 615 616 617
f 617 616 618
f 617 618 619
f 619 618 620
f 619 620 621
f 619 621 622
f 622 621 623
f 622 623 624
f 624 623 625
f 624 625 626
f 626 625 627
f 626 627 628
f 626 628 629
f 629 628 630
f 629 630 631
f 631 630 602
f 631 602 604
f 632 633 634
f 634 633 635
f 636 637 638
f 638 637 639
f 638 639 640
f 640 639 641
f 640 641 642
f 642 641 643
f 642 643 644
f 644 643 645
f 644 645 646
f 646 645 647
f 646 647 648
f 648 647 649
f 648 649 650
f 650 649 651
f 650 651 652
f 652 651 653
f 652 653 654
f 654 653 655
f 654 655 656
f 656 655 657
f 656 657 632
f 632 657 633
f 658 659 660
f 660 661 662
f 660 662 663
f 663 662 664
f 663 664 665
f 665 664 666
f 665 666 667
f 667 666 668
f 667 668 669
f 667 669 670
f 670 669 671
f 670 671 672
f 672 671 673
f 672 673 674
f 674 673 675
f 674 675 676
f 674 676 677
f 677 676 678
f 677 678 679
f 679 678 680
f 679 680 681
f 681 680 682
f 681 682 683
f 681 683 684
f 684 683 685
f 684 685 686
f 686 685 658
f 686 658 660
f 687 688 689
f 689 688 690
f 691 692 693
f 693 692 694
f 693 694 695
f 695 694 696
f 695 696 697
f 697 696 698
f 697 698 699
f 699 698 700
f 699 700 701
f 701 700 702
f 701 702 703
f 703 702 704
f 703 704 705
f 705 704 706
f 705 706 707
f 707 706 708
f 707 708 709
f 709 708 710
f 709 710 711
f 711 710 712
f 711 712 687
f 687 712 688
f 713 714 715
f 716 714 717
f 716 717 718
f 718 717 719
f 718 719 720
f 720 719 721
f 720 721 722
f 722 721 723
f 722 723 724
f 722 724 725
f 725 724 726
f 725 726 727
f 727 726 728
f 727 728 729
f 729 728 730
f 729 730 731
f 729 731 732
f 732 731 733
f 732 733 734
f 734 733 735
f 734 735 736
f 736 735 737
f 736 737 738
f 736 738 739
f 739 738 740
f 739 740 741
f 741 740 713
f 741 713 715
f 742 743 744
f 744 743 745
f 746 747 748
f 743 742 749
f 749 742 750
f 749 750 751
f 751 750 752
f 751 752 753
f 753 752 754
f 753 754 755
f 755 754 756
f 755 756 757
f 757 756 758
f 757 758 759
f 759 758 760
f 759 760 761
f 761 760 762
f 761 762 763
f 763 762 764
f 763 764 765
f 765 764 766
f 765 766 767
f 767 766 768
f 767 768 769
f 769 768 770
f 769 770 771
f 771 770 772
f 771 772 773
f 773 772 774
f 773 774 775
f 775 774 776
f 775 776 777
f 777 776 778
f 777 778 779
f 779 778 780
f 779 780 781
f 781 780 782
f 781 782 783
f 783 782 784
f 783 784 785
f 785 784 786
f 785 786 787
f 787 786 788
f 787 788 789
f 789 788 790
f 789 790 791
f 791 790 792
f 791 792 793
f 793 792 794
f 793 794 795
f 795 794 796
f 795 796 797
f 797 796 798
f 797 798 799
f 799 798 800
f 799 800 801
f 801 800 802
f 801 802 803
f 803 802 804
f 803 804 805
f 805 804 806
f 805 806 807
f 807 806 808
f 807 808 809
f 809 808 810
f 809 810 811
f 811 810 812
f 811 812 813
f 813 812 814
f 813 814 815
f 815 814 816
f 815 816 817
f 817 816 818
f 817 818 819
f 819 818 820
f 819 820 821
f 821 820 822
f 821 822 823
f 823 822 824
f 823 824 825
f 825 824 826
f 825 826 827
f 827 826 828
f 827 828 829
f 829 828 830
f 829 830 831
f 831 830 832
f 831 832 833
f 833 832 834
f 833 834 835
f 835 834 836
f 835 836 837
f 837 836 838
f 837 838 839
f 839 838 840
f 839 840 841
f 841 840 842
f 841 842 843
f 843 842 844
f 843 844 845
f 845 844 846
f 845 846 847
f 847 846 848
f 847 848 849
f 849 848 850
f 849 850 851
f 851 850 852
f 851 852 853
f 853 852 854
f 853 854 855
f 855 854 856
f 855 856 857
f 857 856 858
f 857 858 859
f 859 858 860
f 859 860 861
f 861 860 862
f 861 862 748
f 748 862 746

