# https://github.com/mikedh/trimesh
v 0.00055206 0.04362130 0.54484087
v -0.00064238 0.04281693 0.54645950
v 0.00054898 0.04239952 0.54726630
v -0.00064227 0.04240125 0.54726171
v -0.00055465 0.04188048 0.54823720
v -0.00123972 0.04187297 0.54823428
v -0.00192308 0.04186004 0.54822910
v -0.00269204 0.04236197 0.54724228
v -0.00260615 0.04184097 0.54822212
v -0.00309503 0.04186695 0.54813451
v -0.00289744 0.04238402 0.54718453
v -0.00331587 0.04190665 0.54803878
v -0.00304711 0.04245042 0.54704529
v -0.00372344 0.04204434 0.54774249
v -0.00310475 0.04254394 0.54686052
v -0.00400734 0.04223549 0.54735291
v -0.00413120 0.04249608 0.54684538
v -0.00413084 0.04284554 0.54616839
v -0.00310588 0.04293936 0.54608798
v -0.00310707 0.04310953 0.54574859
v 0.00034470 0.04394960 0.54415423
v -0.00064229 0.04362070 0.54484069
v -0.00064239 0.04322350 0.54565227
v -0.00067741 0.04369491 0.54468530
v -0.00021550 0.04418480 0.54365063
v -0.00078213 0.04375779 0.54455107
v -0.00097832 0.04426473 0.54346287
v -0.00092309 0.04379355 0.54447281
v -0.00106782 0.04380315 0.54444897
v -0.00152010 0.04425698 0.54345888
v -0.00161022 0.04379445 0.54444528
v -0.00206184 0.04424524 0.54345483
v -0.00215250 0.04378229 0.54444051
v -0.00260347 0.04422962 0.54345018
v -0.00269467 0.04376667 0.54443419
v -0.00318682 0.04415994 0.54354990
v -0.00295883 0.04371750 0.54451531
v -0.00305670 0.04366540 0.54461551
v -0.00368243 0.04400175 0.54383981
v -0.00310296 0.04361730 0.54471171
v -0.00401640 0.04377746 0.54427892
v -0.00311780 0.04356628 0.54481632
v -0.00413340 0.04352074 0.54480231
v -0.00310975 0.04337579 0.54520923
v -0.00413078 0.04318654 0.54548693
v 0.00054727 0.04188036 0.54823720
v -0.00055385 0.04161745 0.54871643
v 0.00054729 0.04161745 0.54871660
v 0.00018020 0.04108321 0.54967040
v 0.00054728 0.04135125 0.54919398
v 0.00054728 0.04108184 0.54966998
v -0.00055383 0.04135119 0.54919398
v -0.00018676 0.04108321 0.54967040
v -0.00055384 0.04108184 0.54966998
v 0.00123245 0.04187303 0.54823428
v 0.00123161 0.04239088 0.54726601
v 0.00191599 0.04186016 0.54822910
v 0.00191426 0.04237812 0.54726082
v 0.00259936 0.04184061 0.54822129
v 0.00259668 0.04235970 0.54725069
v 0.00280684 0.04238295 0.54719353
v 0.00308967 0.04186648 0.54813361
v 0.00295532 0.04244542 0.54706240
v 0.00354302 0.04197376 0.54789221
v 0.00302303 0.04254013 0.54687500
v 0.00389475 0.04214715 0.54753160
v 0.00412375 0.04249680 0.54684561
v 0.00412434 0.04307383 0.54571468
v 0.00302321 0.04312241 0.54573017
v 0.00302321 0.04367911 0.54458988
v 0.00412434 0.04363101 0.54457372
v 0.00302362 0.04421746 0.54344070
v 0.00412393 0.04416978 0.54342371
f 1 2 3
f 3 2 4
f 3 4 5
f 5 4 6
f 6 4 7
f 7 4 8
f 7 8 9
f 9 8 10
f 10 8 11
f 10 11 12
f 12 11 13
f 12 13 14
f 14 13 15
f 14 15 16
f 16 15 17
f 17 15 18
f 18 15 19
f 18 19 20
f 21 22 1
f 1 22 23
f 1 23 2
f 22 21 24
f 24 21 25
f 24 25 26
f 26 25 27
f 26 27 28
f 28 27 29
f 29 27 30
f 29 30 31
f 31 30 32
f 31 32 33
f 33 32 34
f 33 34 35
f 35 34 36
f 35 36 37
f 37 36 38
f 38 36 39
f 38 39 40
f 40 39 41
f 40 41 42
f 42 41 43
f 42 43 44
f 44 43 45
f 44 45 20
f 20 45 18
f 3 5 46
f 46 5 47
f 46 47 48
f 48 47 49
f 48 49 50
f 50 49 51
f 47 52 49
f 49 52 53
f 53 52 54
f 46 55 3
f 3 55 56
f 56 55 57
f 56 57 58
f 58 57 59
f 58 59 60
f 60 59 61
f 61 59 62
f 61 62 63
f 63 62 64
f 63 64 65
f 65 64 66
f 65 66 67
f 67 68 65
f 65 68 69
f 69 68 70
f 70 68 71
f 70 71 72
f 72 71 73

