# https://github.com/mikedh/trimesh
v 0.00050000 -0.07410001 -0.05829775
v 0.00618070 -0.07410001 -0.05797141
v 0.00050000 -0.07410001 -0.05819994
v 0.01180243 -0.07410001 0.05709278
v 0.00618058 -0.07410001 0.05797147
v 0.01180249 -0.07410001 -0.05709278
v 0.01731181 -0.07410001 0.05567038
v 0.01731193 -0.07410001 -0.05567032
v 0.02265632 -0.07410001 0.05371755
v 0.02265644 -0.07410001 -0.05371749
v 0.02778500 -0.07410001 0.05125308
v 0.02778512 -0.07410001 -0.05125302
v 0.03264898 -0.07410001 0.04830038
v 0.03264909 -0.07410001 -0.04830032
v 0.03720200 -0.07410001 0.04488760
v 0.03720211 -0.07410001 -0.04488754
v 0.04140061 -0.07410001 0.04104715
v 0.04140073 -0.07410001 -0.04104709
v 0.04520487 -0.07410001 0.03681582
v 0.04520493 -0.07410001 -0.03681570
v 0.04857850 -0.07410001 0.03223371
v 0.04857861 -0.07410001 -0.03223365
v 0.05148941 -0.07410001 0.02734458
v 0.05148947 -0.07410001 -0.02734446
v 0.05390983 -0.07410001 0.02219498
v 0.05390989 -0.07410001 -0.02219480
v 0.05581670 -0.07410001 0.01683390
v 0.05581676 -0.07410001 -0.01683378
v 0.05719190 -0.07410001 0.01131254
v 0.05719190 -0.07410001 -0.01131236
v 0.05802232 -0.07410001 0.00568336
v 0.05802232 -0.07410001 -0.00568318
v 0.05829995 -0.07410001 0.00000000
v 0.00049988 -0.07410001 0.05829787
v -0.00049989 -0.07410001 0.05829787
v -0.00050000 -0.07410001 -0.05819994
v -0.00618058 -0.07410001 0.05797147
v -0.01180243 -0.07410001 0.05709278
v -0.01731181 -0.07410001 0.05567038
v -0.02265632 -0.07410001 0.05371755
v -0.02778500 -0.07410001 0.05125308
v -0.03264904 -0.07410001 0.04830038
v -0.03720200 -0.07410001 0.04488760
v -0.04140061 -0.07410001 0.04104715
v -0.04520487 -0.07410001 0.03681582
v -0.04857850 -0.07410001 0.03223371
v -0.05148941 -0.07410001 0.02734458
v -0.05390983 -0.07410001 0.02219498
v -0.05581670 -0.07410001 0.01683390
v -0.05719190 -0.07410001 0.01131254
v -0.05802232 -0.07410001 0.00568336
v -0.05829995 -0.07410001 0.00000000
v -0.05802232 -0.07410001 -0.00568318
v -0.05719190 -0.07410001 -0.01131236
v -0.05581676 -0.07410001 -0.01683378
v -0.05390989 -0.07410001 -0.02219480
v -0.05148947 -0.07410001 -0.02734446
v -0.04857861 -0.07410001 -0.03223365
v -0.04520493 -0.07410001 -0.03681570
v -0.04140073 -0.07410001 -0.04104709
v -0.03720211 -0.07410001 -0.04488754
v -0.03264909 -0.07410001 -0.04830032
v -0.02778512 -0.07410001 -0.05125302
v -0.02778512 -0.07410001 -0.05125302
v -0.02265644 -0.07410001 -0.05371749
v -0.01731193 -0.07410001 -0.05567032
v -0.01180255 -0.07410001 -0.05709278
v -0.00050000 -0.07410001 -0.05819994
v -0.01180255 -0.07410001 -0.05709278
v -0.00618070 -0.07410001 -0.05797141
v -0.00618070 -0.07410001 -0.05797141
v -0.00050000 -0.07410001 -0.05829775
v -0.00050000 -0.07389998 -0.05849784
v -0.00657880 -0.07389998 -0.05812889
v -0.00050000 -0.06089997 -0.05849784
v -0.00657898 -0.06089997 -0.05812889
v -0.01258635 -0.07389998 -0.05712991
v -0.01258671 -0.06089997 -0.05712985
v -0.01845747 -0.07389998 -0.05551183
v -0.01845794 -0.06089997 -0.05551165
v -0.02412855 -0.07389998 -0.05329221
v -0.02412921 -0.06089997 -0.05329191
v -0.02953815 -0.07389998 -0.05049496
v -0.02953892 -0.06089997 -0.05049449
v -0.03462767 -0.07389998 -0.04715049
v -0.03462851 -0.06089997 -0.04714983
v -0.03934186 -0.07389998 -0.04329502
v -0.03934282 -0.06089997 -0.04329419
v -0.04362970 -0.07389998 -0.03897041
v -0.04363065 -0.06089997 -0.03896933
v -0.04744476 -0.07389998 -0.03422337
v -0.04744565 -0.06089997 -0.03422206
v -0.05074560 -0.07389998 -0.02910548
v -0.05074644 -0.06089997 -0.02910399
v -0.05349647 -0.07389998 -0.02367216
v -0.05349725 -0.06089997 -0.02367037
v -0.05566757 -0.07389998 -0.01798230
v -0.05566823 -0.06089997 -0.01798033
v -0.05723541 -0.07389998 -0.01209759
v -0.05723589 -0.06089997 -0.01209533
v -0.05818295 -0.07389998 -0.00608176
v -0.05818325 -0.06089997 -0.00607920
v -0.05849999 -0.07310003 0.00000000
v -0.05849999 -0.06700003 0.00000221
v -0.05849999 -0.07389998 0.00000000
v -0.05821937 -0.07309937 0.00570244
v -0.05818295 -0.07389998 0.00608176
v -0.05738455 -0.07309526 0.01135075
v -0.05723541 -0.07389998 0.01209759
v -0.05600613 -0.07309025 0.01689153
v -0.05566757 -0.07389998 0.01798236
v -0.05409461 -0.07308679 0.02227157
v -0.05349647 -0.07389998 0.02367222
v -0.05166411 -0.07308542 0.02743786
v -0.05074560 -0.07389998 0.02910548
v -0.04874169 -0.07308471 0.03234302
v -0.04744476 -0.07389998 0.03422343
v -0.04535752 -0.07308477 0.03694188
v -0.04362970 -0.07389998 0.03897041
v -0.04154175 -0.07308542 0.04118895
v -0.03934186 -0.07389998 0.04329508
v -0.03732752 -0.07308661 0.04504078
v -0.03462767 -0.07389998 0.04715055
v -0.03275787 -0.07308828 0.04846388
v -0.02953815 -0.07389998 0.05049496
v -0.02787792 -0.07309025 0.05142790
v -0.02412855 -0.07389998 0.05329221
v -0.02273273 -0.07309234 0.05390238
v -0.01845747 -0.07389998 0.05551189
v -0.01736950 -0.07309418 0.05585980
v -0.01258635 -0.07389998 0.05712991
v -0.01184076 -0.07309567 0.05728542
v -0.00657880 -0.07389998 0.05812889
v -0.00619984 -0.07309740 0.05816847
v -0.00050000 -0.07389998 0.05849784
v -0.00050000 -0.07309973 0.05849784
v -0.05850040 -0.06089997 0.00000443
v -0.00050000 -0.06069999 -0.05829775
v -0.00655794 -0.06069999 -0.05792999
v -0.00050000 -0.06069999 -0.05819994
v -0.01209801 -0.06069999 0.05919843
v -0.00665057 -0.06069999 0.06011241
v -0.01254487 -0.06069999 -0.05693423
v -0.01770597 -0.06069999 0.05771964
v -0.01839584 -0.06069999 -0.05532157
v -0.02320450 -0.06069999 0.05566942
v -0.02404743 -0.06069999 -0.05310940
v -0.02943843 -0.06069999 -0.05032163
v -0.03451037 -0.06069999 -0.04698848
v -0.03920835 -0.06069999 -0.04314619
v -0.02711302 -0.06069999 0.05381482
v -0.03022867 -0.06069999 0.05207180
v -0.03324687 -0.06069999 0.05013173
v -0.03708279 -0.06069999 0.04725682
v -0.03973340 -0.06069999 0.04495531
v -0.04224044 -0.06069999 0.04249578
v -0.04564684 -0.06069999 0.03860908
v -0.04348140 -0.06069999 -0.03883624
v -0.04728323 -0.06069999 -0.03410542
v -0.05057263 -0.06069999 -0.02900505
v -0.05830037 -0.06069999 0.00000084
v -0.05822360 -0.06069999 0.00583851
v -0.05759471 -0.06069999 0.01161319
v -0.05331403 -0.06069999 -0.02359026
v -0.05547761 -0.06069999 -0.01791989
v -0.05703997 -0.06069999 -0.01205527
v -0.05798417 -0.06069999 -0.00606006
v -0.05693250 -0.06069999 0.01507353
v -0.05600106 -0.06069999 0.01869595
v -0.05460411 -0.06069999 0.02288478
v -0.05305457 -0.06069999 0.02660071
v -0.05125039 -0.06069999 0.03019732
v -0.04944795 -0.06069999 0.03326851
v -0.04762595 -0.06069999 0.03598856
v -0.00316030 -0.06069999 0.06042498
v -0.00050000 -0.06069999 0.06048792
v 0.00050000 -0.06069999 -0.05819994
v 0.00483572 -0.06069999 0.06030368
v 0.01114392 -0.06069999 0.05939114
v -0.00050000 -0.06069999 0.06050062
v 0.01652652 -0.06069999 0.05808168
v 0.01254475 -0.06069999 -0.05693435
v 0.00655788 -0.06069999 -0.05792999
v 0.00050000 -0.06069999 -0.05829775
v 0.02242547 -0.06069999 0.05599838
v 0.05057239 -0.06069999 -0.02900546
v 0.04728293 -0.06069999 -0.03410583
v 0.04348111 -0.06069999 -0.03883653
v 0.02599722 -0.06069999 0.05438053
v 0.02946352 -0.06069999 0.05252319
v 0.03265839 -0.06069999 0.05053073
v 0.03581577 -0.06069999 0.04826194
v 0.03880202 -0.06069999 0.04579645
v 0.04184055 -0.06069999 0.04290843
v 0.04462987 -0.06069999 0.03984516
v 0.04719239 -0.06069999 0.03659075
v 0.04926806 -0.06069999 0.03355288
v 0.05147218 -0.06069999 0.02978420
v 0.05339127 -0.06069999 0.02584958
v 0.05331379 -0.06069999 -0.02359080
v 0.05547738 -0.06069999 -0.01792049
v 0.05703979 -0.06069999 -0.01205599
v 0.05450856 -0.06069999 0.02313673
v 0.05655747 -0.06069999 0.01665937
v 0.05756169 -0.06069999 0.01181739
v 0.05821770 -0.06069999 0.00593382
v 0.05830037 -0.06069999 0.00000000
v 0.05798405 -0.06069999 -0.00606084
v 0.03920805 -0.06069999 -0.04314643
v 0.03451007 -0.06069999 -0.04698872
v 0.02943819 -0.06069999 -0.05032175
v 0.02404719 -0.06069999 -0.05310946
v 0.01839566 -0.06069999 -0.05532163
v 0.00050000 -0.07309955 0.05849784
v 0.00050000 -0.07389998 0.05849784
v 0.00619984 -0.07309639 0.05816847
v 0.00657880 -0.07389998 0.05812889
v 0.01184076 -0.07309484 0.05728542
v 0.01258635 -0.07389998 0.05712991
v 0.01736950 -0.07309389 0.05585980
v 0.01845747 -0.07389998 0.05551189
v 0.02273273 -0.07309234 0.05390238
v 0.02412855 -0.07389998 0.05329221
v 0.02787792 -0.07309025 0.05142790
v 0.02953815 -0.07389998 0.05049496
v 0.03275787 -0.07308828 0.04846388
v 0.03462767 -0.07389998 0.04715055
v 0.03732752 -0.07308667 0.04504078
v 0.03934186 -0.07389998 0.04329508
v 0.04154175 -0.07308542 0.04118895
v 0.04362970 -0.07389998 0.03897041
v 0.04535752 -0.07308477 0.03694182
v 0.04744476 -0.07389998 0.03422343
v 0.04874169 -0.07308471 0.03234302
v 0.05074560 -0.07389998 0.02910548
v 0.05166411 -0.07308542 0.02743786
v 0.05349647 -0.07389998 0.02367222
v 0.05409461 -0.07308685 0.02227157
v 0.05566757 -0.07389998 0.01798236
v 0.05600613 -0.07308983 0.01689153
v 0.05723541 -0.07389998 0.01209759
v 0.05738455 -0.07309406 0.01135075
v 0.05818295 -0.07389998 0.00608176
v 0.05821937 -0.07309800 0.00570250
v 0.05849999 -0.07389998 0.00000000
v 0.05849999 -0.07310003 0.00000000
v 0.05818325 -0.06089997 -0.00607902
v 0.05849999 -0.06700003 0.00000221
v 0.05850040 -0.06089997 0.00000443
v 0.05818295 -0.07389998 -0.00608176
v 0.05723595 -0.06089997 -0.01209509
v 0.05723541 -0.07389998 -0.01209759
v 0.05566829 -0.06089997 -0.01798009
v 0.05566757 -0.07389998 -0.01798230
v 0.05349737 -0.06089997 -0.02367025
v 0.05349647 -0.07389998 -0.02367216
v 0.05074656 -0.06089997 -0.02910381
v 0.05074560 -0.07389998 -0.02910548
v 0.04744577 -0.06089997 -0.03422194
v 0.04744476 -0.07389998 -0.03422337
v 0.04363077 -0.06089997 -0.03896921
v 0.04362970 -0.07389998 -0.03897041
v 0.03934288 -0.06089997 -0.04329413
v 0.03934186 -0.07389998 -0.04329502
v 0.03462862 -0.06089997 -0.04714977
v 0.03462767 -0.07389998 -0.04715049
v 0.02953904 -0.06089997 -0.05049443
v 0.02953815 -0.07389998 -0.05049496
v 0.02412927 -0.06089997 -0.05329185
v 0.02412855 -0.07389998 -0.05329221
v 0.01845800 -0.06089997 -0.05551165
v 0.01845747 -0.07389998 -0.05551183
v 0.01258671 -0.06089997 -0.05712985
v 0.01258635 -0.07389998 -0.05712991
v 0.00657898 -0.06089997 -0.05812889
v 0.00657880 -0.07389998 -0.05812889
v 0.00050000 -0.06089997 -0.05849784
v 0.00050000 -0.07389998 -0.05849784
v 0.05849999 -0.06700003 0.00000221
v 0.05848354 -0.06905871 0.00190526
v 0.05849999 -0.07310003 0.00000000
v 0.05847626 -0.07108587 0.00190371
v 0.05821937 -0.07309800 0.00570250
v 0.05825090 -0.07107222 0.00573933
v 0.05744010 -0.07105368 0.01142328
v 0.05750614 -0.06900840 0.01142567
v 0.05616313 -0.06898057 0.01700538
v 0.05625820 -0.06688112 0.01700979
v 0.05438518 -0.06684452 0.02243405
v 0.05441397 -0.06632268 0.02243679
v 0.05200374 -0.06628382 0.02764809
v 0.05207031 -0.06521570 0.02768546
v 0.04914927 -0.06516802 0.03264057
v 0.05217057 -0.06363499 0.02786266
v 0.04925787 -0.06357550 0.03285628
v 0.04936748 -0.06205952 0.03323096
v 0.04596894 -0.06199938 0.03797703
v 0.04613709 -0.06096476 0.03829640
v 0.04239356 -0.06097739 0.04260259
v 0.05850040 -0.06089997 0.00000443
v 0.05850225 -0.06390082 0.00192165
v 0.05849665 -0.06544697 0.00190967
v 0.05849289 -0.06647878 0.00190711
v 0.05834394 -0.06541287 0.00574785
v 0.05832690 -0.06644856 0.00574160
v 0.05762386 -0.06536275 0.01144009
v 0.05759018 -0.06640505 0.01142758
v 0.05632925 -0.06531304 0.01703113
v 0.05628168 -0.06636309 0.01701116
v 0.05447250 -0.06526404 0.02246516
v 0.05850785 -0.06235891 0.00194228
v 0.05842113 -0.06090402 0.00588214
v 0.05839508 -0.06232851 0.00584126
v 0.05778098 -0.06091034 0.01171207
v 0.05772483 -0.06228065 0.01162683
v 0.05657172 -0.06091845 0.01739811
v 0.05647194 -0.06222939 0.01731520
v 0.05479681 -0.06092822 0.02293455
v 0.05464833 -0.06217521 0.02284950
v 0.05479484 -0.06092822 0.02293980
v 0.05238860 -0.06093972 0.02843910
v 0.05227124 -0.06211841 0.02817207
v 0.04943066 -0.06095224 0.03365653
v 0.04210746 -0.06193864 0.04236096
v 0.04197198 -0.06097871 0.04303705
v 0.03781849 -0.06187820 0.04633510
v 0.03756570 -0.06099152 0.04708963
v 0.03314846 -0.06181865 0.04986453
v 0.03275358 -0.06100344 0.05067306
v 0.02814590 -0.06176048 0.05291914
v 0.02812790 -0.06101310 0.05346220
v 0.02329796 -0.06102156 0.05580210
v 0.02285939 -0.06170403 0.05546897
v 0.02220433 -0.06102329 0.05625933
v 0.01734018 -0.06164973 0.05748760
v 0.01656901 -0.06103110 0.05822616
v 0.01217371 -0.06103652 0.05933135
v 0.01164269 -0.06159776 0.05895030
v 0.00725049 -0.06103205 0.06016713
v 0.00777030 -0.06156462 0.05960994
v 0.00581795 -0.06154823 0.05985236
v 0.00579441 -0.06305438 0.05889326
v 0.00384486 -0.06303602 0.05905711
v 0.00383025 -0.06475073 0.05851066
v 0.00050000 -0.06472724 0.05861186
v 0.00382066 -0.06593555 0.05841094
v 0.00050000 -0.06648874 0.05850589
v 0.00381601 -0.06650519 0.05840778
v 0.00379783 -0.06873154 0.05840313
v 0.00572431 -0.06873822 0.05825084
v 0.00569791 -0.07092541 0.05823749
v 0.00760996 -0.07092809 0.05802267
v 0.00619984 -0.07309639 0.05816847
v 0.01184076 -0.07309484 0.05728542
v 0.00388360 -0.06103706 0.06050908
v 0.00385976 -0.06153184 0.06003761
v 0.00050000 -0.06150513 0.06018155
v 0.00050000 -0.06300580 0.05916875
v 0.00050000 -0.06104516 0.06063389
v 0.00050000 -0.07309955 0.05849784
v 0.00377995 -0.07092237 0.05839091
v 0.01736950 -0.07309389 0.05585980
v 0.01700270 -0.07093936 0.05602556
v 0.01140654 -0.07093268 0.05740904
v 0.00764507 -0.06874454 0.05803805
v 0.00575119 -0.06651526 0.05825674
v 0.02243340 -0.07094609 0.05409961
v 0.02273273 -0.07309234 0.05390238
v 0.02764493 -0.07095277 0.05164867
v 0.02787792 -0.07309025 0.05142790
v 0.03258818 -0.07095968 0.04869872
v 0.03275787 -0.07308828 0.04846388
v 0.03721636 -0.07096713 0.04528021
v 0.03732752 -0.07308667 0.04504078
v 0.04148292 -0.07097548 0.04142367
v 0.04154175 -0.07308542 0.04118895
v 0.04534304 -0.07098495 0.03716319
v 0.04535752 -0.07308477 0.03694182
v 0.04876238 -0.07099574 0.03254354
v 0.04874169 -0.07308471 0.03234302
v 0.05170989 -0.07100790 0.02761143
v 0.05166411 -0.07308542 0.02743786
v 0.05409461 -0.07308685 0.02227157
v 0.05415451 -0.07102155 0.02241367
v 0.05600613 -0.07308983 0.01689153
v 0.05607002 -0.07103675 0.01699948
v 0.05738455 -0.07309406 0.01135075
v 0.05849105 -0.06698751 0.00190669
v 0.05831849 -0.06695950 0.00574130
v 0.05828434 -0.06903785 0.00574058
v 0.05757355 -0.06691944 0.01142698
v 0.05426865 -0.06895446 0.02242481
v 0.05183917 -0.06892991 0.02762866
v 0.04890102 -0.06890684 0.03256714
v 0.04548561 -0.06888520 0.03719258
v 0.04162418 -0.06886476 0.04145771
v 0.03735148 -0.06884551 0.04531687
v 0.03271287 -0.06882709 0.04873609
v 0.02775555 -0.06880927 0.05168491
v 0.02252674 -0.06879162 0.05413311
v 0.01707625 -0.06877398 0.05605471
v 0.01145803 -0.06875640 0.05743080
v 0.04907763 -0.06624639 0.03259396
v 0.05197107 -0.06680959 0.02764374
v 0.04904246 -0.06677615 0.03258800
v 0.04566717 -0.06621026 0.03722631
v 0.04563099 -0.06674420 0.03721880
v 0.04574126 -0.06512105 0.03728193
v 0.04187786 -0.06507486 0.04156100
v 0.04180413 -0.06617540 0.04149681
v 0.03752362 -0.06614160 0.04535901
v 0.04176819 -0.06671357 0.04148817
v 0.03748923 -0.06668406 0.04534965
v 0.03287172 -0.06610864 0.04877859
v 0.03283995 -0.06665545 0.04876899
v 0.02789640 -0.06607621 0.05172550
v 0.02786821 -0.06662738 0.05171614
v 0.03759449 -0.06502938 0.04543095
v 0.04199111 -0.06345593 0.04185366
v 0.04585409 -0.06351572 0.03753620
v 0.02264565 -0.06604403 0.05416959
v 0.02262181 -0.06659954 0.05416095
v 0.03293740 -0.06498450 0.04885733
v 0.03770428 -0.06339639 0.04576128
v 0.01717001 -0.06601178 0.05608516
v 0.01715117 -0.06657165 0.05607771
v 0.02795487 -0.06494015 0.05181002
v 0.03304022 -0.06333738 0.04922443
v 0.01152366 -0.06597971 0.05745136
v 0.01151049 -0.06654375 0.05744570
v 0.02269518 -0.06489616 0.05425918
v 0.02804738 -0.06327897 0.05221313
v 0.00768989 -0.06595814 0.05805027
v 0.00768089 -0.06652504 0.05804634
v 0.01720911 -0.06485229 0.05617886
v 0.02277433 -0.06322133 0.05469739
v 0.00575799 -0.06594699 0.05826014
v 0.01155114 -0.06480896 0.05754756
v 0.01727211 -0.06316447 0.05665129
v 0.00577217 -0.06476563 0.05835825
v 0.00770867 -0.06478029 0.05814743
v 0.01159518 -0.06310886 0.05805188
v 0.00773847 -0.06307256 0.05867153
v 0.05456042 -0.06369388 0.02260458
v 0.05640065 -0.06375181 0.01713359
v 0.05767434 -0.06380873 0.01150709
v 0.05836951 -0.06386423 0.00578147
v -0.00619984 -0.07309740 0.05816847
v -0.00050000 -0.07309973 0.05849784
v -0.00572419 -0.06873816 0.05825084
v -0.00050000 -0.06648874 0.05850577
v -0.00575107 -0.06651526 0.05825674
v -0.00050000 -0.06472712 0.05861121
v -0.00575793 -0.06594699 0.05826014
v -0.00577205 -0.06476563 0.05835825
v -0.01155102 -0.06480896 0.05754756
v -0.01159507 -0.06310886 0.05805188
v -0.01727199 -0.06316447 0.05665135
v -0.01734006 -0.06164973 0.05748760
v -0.02285933 -0.06170403 0.05546903
v -0.01728844 -0.06103044 0.05800884
v -0.02324885 -0.06102174 0.05582302
v -0.00579429 -0.06305438 0.05889332
v -0.00050000 -0.06300580 0.05916875
v -0.00581783 -0.06154823 0.05985236
v -0.00050000 -0.06228047 0.05958241
v -0.00050000 -0.06150501 0.06018149
v -0.00050000 -0.06104725 0.06063586
v -0.00582826 -0.06103187 0.06033438
v -0.01164257 -0.06159776 0.05895042
v -0.01211887 -0.06103676 0.05934309
v -0.02658551 -0.06101602 0.05426847
v -0.02814584 -0.06176048 0.05291920
v -0.02277421 -0.06322133 0.05469739
v -0.02804732 -0.06327897 0.05221313
v -0.02269512 -0.06489616 0.05425918
v -0.02795481 -0.06494015 0.05181002
v -0.02264559 -0.06604403 0.05416965
v -0.02789634 -0.06607621 0.05172550
v -0.02786815 -0.06662738 0.05171620
v -0.03283989 -0.06665539 0.04876905
v -0.02775549 -0.06880927 0.05168497
v -0.03271281 -0.06882709 0.04873615
v -0.02787792 -0.07309025 0.05142790
v -0.03275787 -0.07308828 0.04846388
v -0.03735148 -0.06884551 0.04531699
v -0.03732752 -0.07308661 0.04504078
v -0.04162412 -0.06886476 0.04145771
v -0.04154175 -0.07308542 0.04118895
v -0.04548555 -0.06888514 0.03719258
v -0.04535752 -0.07308477 0.03694188
v -0.04890102 -0.06890684 0.03256714
v -0.04874169 -0.07308471 0.03234302
v -0.05183917 -0.06892991 0.02762877
v -0.05166411 -0.07308542 0.02743786
v -0.05426865 -0.06895440 0.02242481
v -0.05409461 -0.07308679 0.02227157
v -0.05616313 -0.06898057 0.01700538
v -0.05600613 -0.07309025 0.01689153
v -0.05750608 -0.06900840 0.01142567
v -0.05738455 -0.07309526 0.01135075
v -0.05821937 -0.07309937 0.00570244
v -0.05828434 -0.06903785 0.00574064
v -0.05849999 -0.06700003 0.00000221
v -0.05831849 -0.06695950 0.00574130
v -0.05832690 -0.06644856 0.00574160
v -0.05759018 -0.06640505 0.01142758
v -0.05834394 -0.06541287 0.00574785
v -0.05762386 -0.06536275 0.01144009
v -0.05836951 -0.06386423 0.00578147
v -0.05767434 -0.06380873 0.01150715
v -0.05839508 -0.06232851 0.00584126
v -0.05772483 -0.06228065 0.01162683
v -0.05777949 -0.06091034 0.01172071
v -0.05647194 -0.06222939 0.01731520
v -0.05646765 -0.06091904 0.01777416
v -0.05475789 -0.06092840 0.02303761
v -0.05464833 -0.06217521 0.02284950
v -0.05375254 -0.06093341 0.02551776
v -0.05227118 -0.06211835 0.02817213
v -0.05187320 -0.06094205 0.02944844
v -0.04936742 -0.06205952 0.03323101
v -0.04969465 -0.06095129 0.03323882
v -0.04957473 -0.06095176 0.03342944
v -0.04635399 -0.06096404 0.03801745
v -0.04596889 -0.06199938 0.03797703
v -0.04234123 -0.06097763 0.04265695
v -0.04210746 -0.06193864 0.04236096
v -0.03923934 -0.06098693 0.04564839
v -0.03781843 -0.06187820 0.04633510
v -0.03637331 -0.06099468 0.04805088
v -0.03314840 -0.06181865 0.04986453
v -0.03334426 -0.06100207 0.05027341
v -0.02982753 -0.06100976 0.05250430
v -0.05842101 -0.06090402 0.00588542
v -0.05850040 -0.06089997 0.00000443
v -0.02273273 -0.07309234 0.05390238
v -0.02252668 -0.06879162 0.05413311
v -0.02262175 -0.06659954 0.05416107
v -0.01716989 -0.06601178 0.05608522
v -0.01720905 -0.06485235 0.05617892
v -0.01736950 -0.07309418 0.05585980
v -0.01707613 -0.06877398 0.05605471
v -0.01715105 -0.06657165 0.05607771
v -0.01152360 -0.06597965 0.05745136
v -0.01184076 -0.07309567 0.05728542
v -0.01145797 -0.06875640 0.05743080
v -0.01151037 -0.06654375 0.05744582
v -0.03748917 -0.06668400 0.04534971
v -0.03287166 -0.06610864 0.04877865
v -0.03293734 -0.06498450 0.04885733
v -0.03304016 -0.06333738 0.04922443
v -0.04176819 -0.06671351 0.04148817
v -0.03752356 -0.06614160 0.04535907
v -0.03759443 -0.06502938 0.04543101
v -0.03770428 -0.06339639 0.04576140
v -0.04563099 -0.06674420 0.03721892
v -0.04904246 -0.06677615 0.03258800
v -0.05197107 -0.06680959 0.02764374
v -0.05438512 -0.06684452 0.02243405
v -0.05625820 -0.06688112 0.01700979
v -0.05757355 -0.06691944 0.01142698
v -0.04180407 -0.06617540 0.04149687
v -0.04187786 -0.06507486 0.04156112
v -0.04199105 -0.06345593 0.04185378
v -0.04566717 -0.06621026 0.03722631
v -0.04574120 -0.06512105 0.03728199
v -0.04585409 -0.06351572 0.03753626
v -0.04907757 -0.06624639 0.03259396
v -0.04914927 -0.06516802 0.03264057
v -0.04925781 -0.06357550 0.03285628
v -0.05200374 -0.06628382 0.02764809
v -0.05207026 -0.06521570 0.02768546
v -0.05217057 -0.06363499 0.02786266
v -0.05441397 -0.06632268 0.02243679
v -0.05447250 -0.06526404 0.02246528
v -0.05456042 -0.06369388 0.02260458
v -0.05628162 -0.06636309 0.01701122
v -0.05632925 -0.06531304 0.01703125
v -0.05640065 -0.06375181 0.01713371
v -0.00050000 -0.06069999 0.06050062
v -0.00050000 -0.06071847 0.06058460
v -0.00050000 -0.06071221 0.06055521
v -0.00050000 -0.06071221 0.06055521
v -0.00050000 -0.06071847 0.06058460
v -0.00050000 -0.06073862 0.06060463
v -0.00050000 -0.06073862 0.06060463
v -0.00050000 -0.06071847 0.06058460
v -0.00050000 -0.06077051 0.06065303
v -0.00050000 -0.06077051 0.06065303
v -0.00050000 -0.06077760 0.06064468
v -0.00050000 -0.06104725 0.06063586
v -0.00050000 -0.06150501 0.06018149
v -0.00050000 -0.06098604 0.06068110
v -0.00050000 -0.06083685 0.06069034
v -0.00050000 -0.06091231 0.06070017
v -0.00050000 -0.06179559 0.05968970
v -0.00050000 -0.06228047 0.05958241
v -0.00050000 -0.06300580 0.05916875
v -0.00050000 -0.06314569 0.05888837
v -0.00050000 -0.06472712 0.05861121
v -0.00050000 -0.06464648 0.05841994
v -0.00050000 -0.06648874 0.05850577
v -0.00050000 -0.06612271 0.05831247
v -0.00050000 -0.06612396 0.05831241
v -0.00050000 -0.06653231 0.05831241
v -0.00050000 -0.06713253 0.05831336
v -0.00050000 -0.06793612 0.05831390
v -0.00050000 -0.06890797 0.05831378
v -0.00050000 -0.07004809 0.05831295
v -0.00050000 -0.07309973 0.05849784
v -0.00050000 -0.07409954 0.05831122
v -0.00050000 -0.07406860 0.05840545
v -0.00050000 -0.07399612 0.05847322
v -0.00050000 -0.07389998 0.05849784
v -0.00050000 -0.06179559 0.05968970
v 0.00000000 -0.06174772 0.05972683
v -0.00050000 -0.06077760 0.06064468
v 0.00050000 -0.06129074 0.06011837
v 0.00050000 -0.06077259 0.06065052
v -0.00050000 -0.06314569 0.05888837
v 0.00000000 -0.06320422 0.05886256
v 0.00050000 -0.06197816 0.05955439
v 0.00050000 -0.06357043 0.05871528
v 0.00000000 -0.06482505 0.05839079
v 0.00050000 -0.06531369 0.05833852
v 0.00050000 -0.06708163 0.05831325
v -0.00050000 -0.06793612 0.05831390
v 0.00000000 -0.07125174 0.05831182
v -0.00050000 -0.06890797 0.05831378
v -0.00050000 -0.07004809 0.05831295
v -0.00050000 -0.06464648 0.05841994
v -0.00050000 -0.06612271 0.05831247
v -0.00050000 -0.06612396 0.05831241
v -0.00050000 -0.06653231 0.05831241
v -0.00050000 -0.06713253 0.05831336
v -0.00050000 -0.07409954 0.05831122
v 0.00050000 -0.07409954 0.05831122
v 0.00050000 -0.07059603 0.05831247
v 0.00050000 -0.06129074 0.06011837
v 0.00050000 -0.06150513 0.06018155
v 0.00050000 -0.06077259 0.06065052
v 0.00050000 -0.06104516 0.06063389
v 0.00050000 -0.06077259 0.06065052
v 0.00050000 -0.06104516 0.06063389
v 0.00050000 -0.06098461 0.06067758
v 0.00050000 -0.06197816 0.05955439
v 0.00050000 -0.06300580 0.05916875
v 0.00050000 -0.06357043 0.05871528
v 0.00050000 -0.06472724 0.05861186
v 0.00050000 -0.06531369 0.05833852
v 0.00050000 -0.06648874 0.05850589
v 0.00050000 -0.06708163 0.05831325
v 0.00050000 -0.07059603 0.05831247
v 0.00050000 -0.07309955 0.05849784
v 0.00050000 -0.07409954 0.05831122
v 0.00050000 -0.07406860 0.05840545
v 0.00050000 -0.07399612 0.05847322
v 0.00050000 -0.07389998 0.05849784
v 0.00050000 -0.06091219 0.06069600
v 0.00050000 -0.06083804 0.06068646
v 0.00050000 -0.06098461 0.06067758
v -0.00050000 -0.07410001 -0.05819994
v -0.00050000 -0.07410001 -0.05829775
v -0.00050000 -0.06069999 -0.05819994
v -0.00050000 -0.06069999 -0.05829775
v -0.00050000 -0.07407319 -0.05839782
v -0.00050000 -0.06072676 -0.05839782
v -0.00050000 -0.07400000 -0.05847102
v -0.00050000 -0.06080001 -0.05847102
v -0.00050000 -0.06089997 -0.05849784
v -0.00050000 -0.07389998 -0.05849784
v 0.00050000 -0.06089997 -0.05849784
v 0.00050000 -0.07389998 -0.05849784
v 0.00050000 -0.06080001 -0.05847102
v 0.00050000 -0.07400000 -0.05847102
v 0.00050000 -0.07407319 -0.05839782
v 0.00050000 -0.06072676 -0.05839782
v 0.00050000 -0.07410001 -0.05829775
v 0.00050000 -0.06069999 -0.05829775
v 0.00050000 -0.06069999 -0.05819994
v 0.00050000 -0.07410001 -0.05819994
v -0.00050000 -0.07410001 -0.05819994
v -0.00050000 -0.06069999 -0.05819994
v 0.00050000 -0.07410001 -0.05819994
v 0.00050000 -0.06069999 -0.05819994
v 0.00050000 -0.06089997 -0.05849784
v 0.00050000 -0.06080001 -0.05847102
v 0.00657898 -0.06089997 -0.05812889
v 0.00657642 -0.06080001 -0.05810219
v 0.01258671 -0.06089997 -0.05712985
v 0.01258128 -0.06080001 -0.05710363
v 0.01845800 -0.06089997 -0.05551165
v 0.01844984 -0.06080001 -0.05548620
v 0.02412927 -0.06089997 -0.05329185
v 0.02411836 -0.06080001 -0.05326741
v 0.02953904 -0.06089997 -0.05049443
v 0.02952551 -0.06080001 -0.05047130
v 0.03462862 -0.06089997 -0.04714977
v 0.03461271 -0.06080001 -0.04712820
v 0.03932476 -0.06080001 -0.04327434
v 0.03927540 -0.06072682 -0.04322034
v 0.04355585 -0.06072682 -0.03890299
v 0.04728293 -0.06069999 -0.03410583
v 0.00050000 -0.06072676 -0.05839782
v 0.00656867 -0.06072676 -0.05802935
v 0.01256591 -0.06072676 -0.05703204
v 0.01842695 -0.06072676 -0.05541664
v 0.02408832 -0.06072676 -0.05320066
v 0.02948862 -0.06072682 -0.05040806
v 0.03456932 -0.06072682 -0.04706931
v 0.03920805 -0.06069999 -0.04314643
v 0.00050000 -0.06069999 -0.05829775
v 0.00655788 -0.06069999 -0.05792999
v 0.01254475 -0.06069999 -0.05693435
v 0.01839566 -0.06069999 -0.05532163
v 0.02404719 -0.06069999 -0.05310946
v 0.02943819 -0.06069999 -0.05032175
v 0.03451007 -0.06069999 -0.04698872
v 0.04736423 -0.06072682 -0.03416401
v 0.05057239 -0.06069999 -0.02900546
v 0.05065935 -0.06072682 -0.02905482
v 0.05331379 -0.06069999 -0.02359080
v 0.05340546 -0.06072682 -0.02363079
v 0.05547738 -0.06069999 -0.01792049
v 0.05557274 -0.06072682 -0.01795065
v 0.05703979 -0.06069999 -0.01205599
v 0.05713778 -0.06072682 -0.01207596
v 0.05798405 -0.06069999 -0.00606084
v 0.05808359 -0.06072682 -0.00607037
v 0.05830037 -0.06069999 0.00000000
v 0.05840039 -0.06072682 0.00000000
v 0.05815654 -0.06080001 -0.00607711
v 0.05847358 -0.06080001 0.00000000
v 0.05818325 -0.06089997 -0.00607902
v 0.05850040 -0.06089997 0.00000443
v 0.05723595 -0.06089997 -0.01209509
v 0.05720961 -0.06080001 -0.01209026
v 0.05566829 -0.06089997 -0.01798009
v 0.05564260 -0.06080001 -0.01797246
v 0.05349737 -0.06089997 -0.02367025
v 0.05347263 -0.06080001 -0.02365988
v 0.05074656 -0.06089997 -0.02910381
v 0.05072307 -0.06080001 -0.02909088
v 0.04744577 -0.06089997 -0.03422194
v 0.04742383 -0.06080001 -0.03420656
v 0.04363077 -0.06089997 -0.03896921
v 0.04361063 -0.06080001 -0.03895151
v 0.03934288 -0.06089997 -0.04329413
v -0.00655794 -0.06069999 -0.05792999
v -0.00050000 -0.06069999 -0.05829775
v -0.00656873 -0.06072676 -0.05802935
v -0.00050000 -0.06072676 -0.05839782
v -0.00657648 -0.06080001 -0.05810219
v -0.00050000 -0.06080001 -0.05847102
v -0.00657898 -0.06089997 -0.05812889
v -0.00050000 -0.06089997 -0.05849784
v -0.01258134 -0.06080001 -0.05710363
v -0.01256597 -0.06072676 -0.05703198
v -0.01254487 -0.06069999 -0.05693423
v -0.01842707 -0.06072676 -0.05541664
v -0.01839584 -0.06069999 -0.05532157
v -0.02408844 -0.06072676 -0.05320060
v -0.02404743 -0.06069999 -0.05310940
v -0.02948874 -0.06072676 -0.05040800
v -0.02943843 -0.06069999 -0.05032163
v -0.03456950 -0.06072676 -0.04706913
v -0.03451037 -0.06069999 -0.04698848
v -0.03927558 -0.06072676 -0.04322016
v -0.03920835 -0.06069999 -0.04314619
v -0.04348140 -0.06069999 -0.03883624
v -0.04355603 -0.06072676 -0.03890281
v -0.04728323 -0.06069999 -0.03410542
v -0.04736441 -0.06072676 -0.03416377
v -0.05057263 -0.06069999 -0.02900505
v -0.05065947 -0.06072676 -0.02905464
v -0.05331403 -0.06069999 -0.02359026
v -0.05340558 -0.06072676 -0.02363049
v -0.05547761 -0.06069999 -0.01791989
v -0.05557286 -0.06072682 -0.01795023
v -0.05703997 -0.06069999 -0.01205527
v -0.05713790 -0.06072682 -0.01207554
v -0.05798417 -0.06069999 -0.00606006
v -0.05808365 -0.06072682 -0.00606990
v -0.05830037 -0.06069999 0.00000084
v -0.05840039 -0.06072682 0.00000000
v -0.05815654 -0.06080001 -0.00607699
v -0.05847358 -0.06080001 -0.00000069
v -0.05818325 -0.06089997 -0.00607920
v -0.05850040 -0.06089997 0.00000443
v -0.01845794 -0.06089997 -0.05551165
v -0.01844984 -0.06080001 -0.05548620
v -0.02412921 -0.06089997 -0.05329191
v -0.02411842 -0.06080001 -0.05326735
v -0.02953892 -0.06089997 -0.05049449
v -0.02952557 -0.06080001 -0.05047130
v -0.03462851 -0.06089997 -0.04714983
v -0.03461271 -0.06080001 -0.04712820
v -0.03934282 -0.06089997 -0.04329419
v -0.03932482 -0.06080001 -0.04327434
v -0.04361063 -0.06080001 -0.03895151
v -0.04363065 -0.06089997 -0.03896933
v -0.04742389 -0.06080001 -0.03420650
v -0.04744565 -0.06089997 -0.03422206
v -0.05072313 -0.06080001 -0.02909088
v -0.05074644 -0.06089997 -0.02910399
v -0.05347263 -0.06080001 -0.02365982
v -0.05349725 -0.06089997 -0.02367037
v -0.05564266 -0.06080001 -0.01797240
v -0.05566823 -0.06089997 -0.01798033
v -0.05720961 -0.06080001 -0.01209020
v -0.05723589 -0.06089997 -0.01209533
v 0.05842113 -0.06090402 0.00588214
v 0.05850040 -0.06089997 0.00000443
v 0.05849593 -0.06082779 0.00343025
v 0.05847358 -0.06080001 0.00000000
v 0.05845153 -0.06075924 0.00342923
v 0.05840039 -0.06072682 0.00000000
v 0.05838352 -0.06071418 0.00342834
v 0.05830037 -0.06069999 0.00000000
v 0.05821770 -0.06069999 0.00593382
v 0.05756169 -0.06069999 0.01181739
v 0.05797678 -0.06071466 0.00942343
v 0.05832076 -0.06071436 0.00542974
v 0.05655747 -0.06069999 0.01665937
v 0.05696099 -0.06071531 0.01530337
v 0.05770438 -0.06071484 0.01140189
v 0.05804520 -0.06076133 0.00943166
v 0.05838900 -0.06075984 0.00543326
v 0.05843323 -0.06082904 0.00543559
v 0.05595403 -0.06071579 0.01913541
v 0.05450856 -0.06069999 0.02313673
v 0.05468374 -0.06071639 0.02289789
v 0.05339127 -0.06069999 0.02584958
v 0.05228632 -0.06071740 0.02838718
v 0.05147218 -0.06069999 0.02978420
v 0.04933869 -0.06071847 0.03359794
v 0.04926806 -0.06069999 0.03355288
v 0.04719239 -0.06069999 0.03659075
v 0.04586857 -0.06071972 0.03847068
v 0.04462987 -0.06069999 0.03984516
v 0.04190427 -0.06072098 0.04297077
v 0.04184055 -0.06069999 0.04290843
v 0.03880202 -0.06069999 0.04579645
v 0.03751116 -0.06072223 0.04702287
v 0.03581577 -0.06069999 0.04826194
v 0.03271067 -0.06072342 0.05060887
v 0.03265839 -0.06069999 0.05053073
v 0.02946352 -0.06069999 0.05252319
v 0.02757191 -0.06072455 0.05368268
v 0.02599722 -0.06069999 0.05438053
v 0.02218180 -0.06072562 0.05620425
v 0.02242547 -0.06069999 0.05599838
v 0.01652652 -0.06069999 0.05808168
v 0.01114392 -0.06069999 0.05939114
v 0.01365184 -0.06072700 0.05895107
v 0.01655453 -0.06072658 0.05817675
v 0.02221274 -0.06081253 0.05628013
v 0.02761000 -0.06080734 0.05375444
v 0.02762007 -0.06092125 0.05377352
v 0.03276944 -0.06091094 0.05069679
v 0.02812790 -0.06101310 0.05346220
v 0.03275358 -0.06100344 0.05067306
v 0.01072001 -0.06072735 0.05957400
v 0.00483572 -0.06069999 0.06030368
v 0.00484329 -0.06072807 0.06038504
v -0.00050000 -0.06071221 0.06055521
v -0.00050000 -0.06073862 0.06060463
v -0.00050000 -0.06069999 0.06048792
v -0.00050000 -0.06069999 0.06050062
v -0.00050000 -0.06077760 0.06064468
v 0.00050000 -0.06077259 0.06065052
v 0.00485098 -0.06082504 0.06046789
v 0.00050000 -0.06083804 0.06068646
v 0.00050000 -0.06091219 0.06069600
v 0.00485164 -0.06095260 0.06047540
v 0.00050000 -0.06098461 0.06067758
v 0.00388360 -0.06103706 0.06050908
v 0.00050000 -0.06104516 0.06063389
v 0.00725049 -0.06103205 0.06016713
v 0.01073706 -0.06094634 0.05966603
v 0.01073515 -0.06082141 0.05965560
v 0.01217371 -0.06103652 0.05933135
v 0.01367390 -0.06094282 0.05904346
v 0.01367110 -0.06081938 0.05903148
v 0.01656901 -0.06103110 0.05822616
v 0.01658177 -0.06093901 0.05826938
v 0.01657778 -0.06081724 0.05825591
v 0.02220433 -0.06102329 0.05625933
v 0.02221947 -0.06093055 0.05629658
v 0.02329796 -0.06102156 0.05580210
v 0.03756570 -0.06099152 0.04708963
v 0.03758037 -0.06089997 0.04710632
v 0.03275525 -0.06080174 0.05067557
v 0.03756183 -0.06079590 0.04708373
v 0.04197198 -0.06097871 0.04303705
v 0.04198324 -0.06088864 0.04304814
v 0.04195988 -0.06078994 0.04302525
v 0.04239356 -0.06097739 0.04260259
v 0.04595643 -0.06087732 0.03854030
v 0.04592853 -0.06078404 0.03851789
v 0.04613709 -0.06096476 0.03829640
v 0.04943412 -0.06086647 0.03365874
v 0.04940181 -0.06077849 0.03363811
v 0.04943066 -0.06095224 0.03365653
v 0.05238860 -0.06093972 0.02843910
v 0.05238795 -0.06085640 0.02843809
v 0.05479484 -0.06092822 0.02293980
v 0.05479013 -0.06084746 0.02293807
v 0.05479681 -0.06092822 0.02293455
v 0.05606275 -0.06084221 0.01916801
v 0.05657172 -0.06091845 0.01739811
v 0.05707150 -0.06083768 0.01532852
v 0.05778098 -0.06091034 0.01171207
v 0.05781608 -0.06083369 0.01141917
v 0.05808889 -0.06083196 0.00943691
v 0.05777281 -0.06076216 0.01141250
v 0.05702918 -0.06076407 0.01531887
v 0.05602180 -0.06076633 0.01915580
v 0.05475091 -0.06076896 0.02292323
v 0.05235189 -0.06077343 0.02841979
v -0.00050000 -0.06104725 0.06063586
v -0.00050000 -0.06098604 0.06068110
v -0.00582826 -0.06103187 0.06033438
v -0.00583291 -0.06095165 0.06037700
v -0.01166898 -0.06094527 0.05948573
v -0.01166677 -0.06082081 0.05947482
v -0.01551812 -0.06081807 0.05855673
v -0.01549607 -0.06072670 0.05847704
v -0.01927340 -0.06072610 0.05730259
v -0.01770597 -0.06069999 0.05771964
v -0.02320450 -0.06069999 0.05566942
v -0.00050000 -0.06091231 0.06070017
v -0.00050000 -0.06083685 0.06069034
v -0.00583202 -0.06082445 0.06036901
v -0.00050000 -0.06077051 0.06065303
v -0.00582307 -0.06072795 0.06028628
v -0.00050000 -0.06071847 0.06058460
v -0.00316030 -0.06069999 0.06042498
v -0.00050000 -0.06069999 0.06050062
v -0.00665057 -0.06069999 0.06011241
v -0.01165038 -0.06072723 0.05939364
v -0.01209801 -0.06069999 0.05919843
v -0.02294844 -0.06072545 0.05588507
v -0.02711302 -0.06069999 0.05381482
v -0.02825176 -0.06072443 0.05331593
v -0.03022867 -0.06069999 0.05207180
v -0.03329992 -0.06072330 0.05020892
v -0.03324687 -0.06069999 0.05013173
v -0.03708279 -0.06069999 0.04725682
v -0.03800600 -0.06072205 0.04660701
v -0.03973340 -0.06069999 0.04495531
v -0.04230457 -0.06072086 0.04255735
v -0.04224044 -0.06069999 0.04249578
v -0.04564684 -0.06069999 0.03860908
v -0.04619282 -0.06071960 0.03805661
v -0.04762595 -0.06069999 0.03598856
v -0.04960179 -0.06071841 0.03318077
v -0.04944795 -0.06069999 0.03326851
v -0.05125039 -0.06069999 0.03019732
v -0.05246728 -0.06071728 0.02802658
v -0.05305457 -0.06069999 0.02660071
v -0.05478817 -0.06071633 0.02261817
v -0.05460411 -0.06069999 0.02288478
v -0.05600106 -0.06069999 0.01869595
v -0.05655670 -0.06071549 0.01696264
v -0.05693250 -0.06069999 0.01507353
v -0.05774021 -0.06071484 0.01116806
v -0.05759471 -0.06069999 0.01161319
v -0.05822360 -0.06069999 0.00583851
v -0.05832600 -0.06071430 0.00532704
v -0.05830037 -0.06069999 0.00000084
v -0.05840039 -0.06072682 0.00000000
v -0.05839425 -0.06075984 0.00533050
v -0.05847358 -0.06080001 -0.00000069
v -0.05843847 -0.06082898 0.00533271
v -0.05850040 -0.06089997 0.00000443
v -0.05842101 -0.06090402 0.00588542
v -0.05785197 -0.06083351 0.01118487
v -0.05777949 -0.06091034 0.01172071
v -0.05666655 -0.06083953 0.01699095
v -0.05646765 -0.06091904 0.01777416
v -0.05489474 -0.06084704 0.02265769
v -0.05475789 -0.06092840 0.02303761
v -0.05375254 -0.06093341 0.02551776
v -0.05256932 -0.06085574 0.02807670
v -0.05187320 -0.06094205 0.02944844
v -0.04969775 -0.06086558 0.03324073
v -0.04969465 -0.06095129 0.03323882
v -0.04957473 -0.06095176 0.03342944
v -0.04628139 -0.06087636 0.03812557
v -0.04635399 -0.06096404 0.03801745
v -0.04234123 -0.06097763 0.04265695
v -0.04238450 -0.06088757 0.04263401
v -0.03923934 -0.06098693 0.04564839
v -0.03807634 -0.06089872 0.04668980
v -0.03637331 -0.06099468 0.04805088
v -0.03336000 -0.06090968 0.05029636
v -0.03334426 -0.06100207 0.05027341
v -0.02982753 -0.06100976 0.05250430
v -0.02830129 -0.06091994 0.05340647
v -0.02658551 -0.06101602 0.05426847
v -0.02298754 -0.06092929 0.05597722
v -0.02324885 -0.06102174 0.05582302
v -0.01930564 -0.06093508 0.05739521
v -0.01728844 -0.06103044 0.05800884
v -0.01552146 -0.06094044 0.05856966
v -0.01211887 -0.06103676 0.05934309
v -0.01930063 -0.06081503 0.05738025
v -0.02298039 -0.06081181 0.05596035
v -0.02829074 -0.06080663 0.05338710
v -0.03334534 -0.06080108 0.05027490
v -0.03805726 -0.06079524 0.04666715
v -0.04236066 -0.06078934 0.04261112
v -0.04625314 -0.06078356 0.03810316
v -0.04966515 -0.06077808 0.03322035
v -0.05253297 -0.06077307 0.02805876
v -0.05485540 -0.06076872 0.02264302
v -0.05662482 -0.06076502 0.01698011
v -0.05780869 -0.06076204 0.01117843
v 0.00050000 -0.07410001 -0.05829775
v 0.00050000 -0.07407319 -0.05839782
v 0.00618070 -0.07410001 -0.05797141
v 0.00668681 -0.07407319 -0.05801588
v 0.01180249 -0.07410001 -0.05709278
v 0.01279914 -0.07407319 -0.05698019
v 0.01731193 -0.07410001 -0.05567032
v 0.01876723 -0.07407319 -0.05530232
v 0.02265644 -0.07410001 -0.05371749
v 0.02452379 -0.07407319 -0.05300128
v 0.02778512 -0.07410001 -0.05125302
v 0.03000408 -0.07407319 -0.05010294
v 0.03264909 -0.07410001 -0.04830032
v 0.03514617 -0.07407319 -0.04664003
v 0.03720211 -0.07410001 -0.04488754
v 0.03989225 -0.07407319 -0.04265165
v 0.04140073 -0.07410001 -0.04104709
v 0.04418879 -0.07407319 -0.03818249
v 0.04520493 -0.07410001 -0.03681570
v 0.04798740 -0.07407319 -0.03328311
v 0.04857861 -0.07410001 -0.03223365
v 0.05124521 -0.07407319 -0.02800863
v 0.05148947 -0.07410001 -0.02734446
v 0.05392551 -0.07407319 -0.02241855
v 0.05390989 -0.07410001 -0.02219480
v 0.05581676 -0.07410001 -0.01683378
v 0.05599820 -0.07407319 -0.01657581
v 0.05719190 -0.07410001 -0.01131236
v 0.05743980 -0.07407319 -0.01054632
v 0.05802232 -0.07410001 -0.00568318
v 0.05823415 -0.07407319 -0.00439799
v 0.05829995 -0.07410001 0.00000000
v 0.05837225 -0.07407319 0.00179988
v 0.05802232 -0.07410001 0.00568336
v 0.05785256 -0.07407319 0.00797748
v 0.05719190 -0.07410001 0.01131254
v 0.05668091 -0.07407319 0.01406520
v 0.05581670 -0.07410001 0.01683390
v 0.05487054 -0.07407319 0.01999449
v 0.05390983 -0.07410001 0.02219498
v 0.05244189 -0.07407319 0.02569836
v 0.05148941 -0.07410001 0.02734458
v 0.04942220 -0.07407319 0.03111273
v 0.04857850 -0.07410001 0.03223371
v 0.04584562 -0.07407319 0.03617644
v 0.04520487 -0.07410001 0.03681582
v 0.04175239 -0.07407319 0.04083251
v 0.04140061 -0.07410001 0.04104715
v 0.03718870 -0.07407319 0.04502844
v 0.03720200 -0.07410001 0.04488760
v 0.03264898 -0.07410001 0.04830038
v 0.03220587 -0.07407319 0.04871696
v 0.02778500 -0.07410001 0.05125308
v 0.02686017 -0.07407319 0.05185645
v 0.02265632 -0.07410001 0.05371755
v 0.02121180 -0.07407319 0.05441159
v 0.01731181 -0.07410001 0.05567038
v 0.01532435 -0.07407319 0.05635356
v 0.01180243 -0.07410001 0.05709278
v 0.00926423 -0.07407319 0.05766052
v 0.00618058 -0.07410001 0.05797147
v 0.00309968 -0.07407319 0.05831772
v 0.00050000 -0.07409954 0.05831122
v 0.00050000 -0.07406860 0.05840545
v 0.00310355 -0.07400000 0.05839079
v 0.00050000 -0.07399612 0.05847322
v 0.00050000 -0.07389998 0.05849784
v 0.00657880 -0.07389998 0.05812889
v 0.00927585 -0.07400000 0.05773276
v 0.01258635 -0.07389998 0.05712991
v 0.01534354 -0.07400000 0.05642414
v 0.01845747 -0.07389998 0.05551189
v 0.02123838 -0.07400000 0.05447977
v 0.02412855 -0.07389998 0.05329221
v 0.02689385 -0.07400000 0.05192142
v 0.02953815 -0.07389998 0.05049496
v 0.03224629 -0.07400000 0.04877799
v 0.03462767 -0.07389998 0.04715055
v 0.03723531 -0.07400000 0.04508489
v 0.03934186 -0.07389998 0.04329508
v 0.04180473 -0.07400000 0.04088366
v 0.04362970 -0.07389998 0.03897041
v 0.04590308 -0.07400000 0.03622180
v 0.04744476 -0.07389998 0.03422343
v 0.04948419 -0.07400000 0.03115171
v 0.05074560 -0.07389998 0.02910548
v 0.05250757 -0.07400000 0.02573066
v 0.05349647 -0.07389998 0.02367222
v 0.05493932 -0.07400000 0.02001953
v 0.05566757 -0.07389998 0.01798236
v 0.05675196 -0.07400000 0.01408284
v 0.05723541 -0.07389998 0.01209759
v 0.05792504 -0.07400000 0.00798750
v 0.05818295 -0.07389998 0.00608176
v 0.05844539 -0.07400000 0.00180209
v 0.05849999 -0.07389998 0.00000000
v 0.05830711 -0.07400000 -0.00440353
v 0.05818295 -0.07389998 -0.00608176
v 0.05751180 -0.07400000 -0.01055961
v 0.05723541 -0.07389998 -0.01209759
v 0.05606836 -0.07400000 -0.01659667
v 0.05566757 -0.07389998 -0.01798230
v 0.05399310 -0.07400000 -0.02244663
v 0.05349647 -0.07389998 -0.02367216
v 0.05130940 -0.07400000 -0.02804380
v 0.05074560 -0.07389998 -0.02910548
v 0.04804754 -0.07400000 -0.03332483
v 0.04744476 -0.07389998 -0.03422337
v 0.04424422 -0.07400000 -0.03823035
v 0.04362970 -0.07389998 -0.03897041
v 0.03994226 -0.07400000 -0.04270505
v 0.03934186 -0.07389998 -0.04329502
v 0.03519022 -0.07400000 -0.04669857
v 0.03462767 -0.07389998 -0.04715049
v 0.03004169 -0.07400000 -0.05016583
v 0.02953815 -0.07389998 -0.05049496
v 0.02455455 -0.07400000 -0.05306774
v 0.02412855 -0.07389998 -0.05329221
v 0.01879072 -0.07400000 -0.05537170
v 0.01845747 -0.07389998 -0.05551183
v 0.01281517 -0.07400000 -0.05705159
v 0.01258635 -0.07389998 -0.05712991
v 0.00669515 -0.07400000 -0.05808860
v 0.00657880 -0.07389998 -0.05812889
v 0.00050000 -0.07400000 -0.05847102
v 0.00050000 -0.07389998 -0.05849784
v -0.00050000 -0.07409954 0.05831122
v -0.00049989 -0.07410001 0.05829787
v 0.00049988 -0.07410001 0.05829787
v -0.00050000 -0.07406860 0.05840545
v -0.00309968 -0.07407319 0.05831772
v -0.00618058 -0.07410001 0.05797147
v -0.00310361 -0.07400000 0.05839079
v -0.00050000 -0.07399612 0.05847322
v -0.00050000 -0.07389998 0.05849784
v -0.00657880 -0.07389998 0.05812889
v -0.00927585 -0.07400000 0.05773276
v -0.00926423 -0.07407319 0.05766052
v -0.01532435 -0.07407319 0.05635356
v -0.01180243 -0.07410001 0.05709278
v -0.01731181 -0.07410001 0.05567038
v -0.02121180 -0.07407319 0.05441159
v -0.02265632 -0.07410001 0.05371755
v -0.02686017 -0.07407319 0.05185645
v -0.02778500 -0.07410001 0.05125308
v -0.03220593 -0.07407319 0.04871696
v -0.03264904 -0.07410001 0.04830038
v -0.03718870 -0.07407319 0.04502844
v -0.03720200 -0.07410001 0.04488760
v -0.04140061 -0.07410001 0.04104715
v -0.04175239 -0.07407319 0.04083251
v -0.04520487 -0.07410001 0.03681582
v -0.04584562 -0.07407319 0.03617644
v -0.04857850 -0.07410001 0.03223371
v -0.04942220 -0.07407319 0.03111273
v -0.05148941 -0.07410001 0.02734458
v -0.05244189 -0.07407319 0.02569836
v -0.05390983 -0.07410001 0.02219498
v -0.05487054 -0.07407319 0.01999449
v -0.05581670 -0.07410001 0.01683390
v -0.05668091 -0.07407319 0.01406520
v -0.05719190 -0.07410001 0.01131254
v -0.05785256 -0.07407319 0.00797748
v -0.05802232 -0.07410001 0.00568336
v -0.05837225 -0.07407319 0.00179988
v -0.05829995 -0.07410001 0.00000000
v -0.05823415 -0.07407319 -0.00439799
v -0.05802232 -0.07410001 -0.00568318
v -0.05743980 -0.07407319 -0.01054632
v -0.05719190 -0.07410001 -0.01131236
v -0.05599820 -0.07407319 -0.01657581
v -0.05581676 -0.07410001 -0.01683378
v -0.05392551 -0.07407319 -0.02241855
v -0.05390989 -0.07410001 -0.02219480
v -0.05148947 -0.07410001 -0.02734446
v -0.05124521 -0.07407319 -0.02800863
v -0.04857861 -0.07410001 -0.03223365
v -0.04798740 -0.07407319 -0.03328311
v -0.04520493 -0.07410001 -0.03681570
v -0.04418879 -0.07407319 -0.03818249
v -0.04140073 -0.07410001 -0.04104709
v -0.03989225 -0.07407319 -0.04265165
v -0.03720211 -0.07410001 -0.04488754
v -0.03514617 -0.07407319 -0.04664003
v -0.03264909 -0.07410001 -0.04830032
v -0.03000408 -0.07407319 -0.05010294
v -0.02778512 -0.07410001 -0.05125302
v -0.02452379 -0.07407319 -0.05300128
v -0.02265644 -0.07410001 -0.05371749
v -0.01876723 -0.07407319 -0.05530232
v -0.01731193 -0.07410001 -0.05567032
v -0.01279914 -0.07407319 -0.05698019
v -0.01180255 -0.07410001 -0.05709278
v -0.00668681 -0.07407319 -0.05801588
v -0.00618070 -0.07410001 -0.05797141
v -0.00050000 -0.07407319 -0.05839782
v -0.00050000 -0.07410001 -0.05829775
v -0.01258635 -0.07389998 0.05712991
v -0.01534354 -0.07400000 0.05642414
v -0.01845747 -0.07389998 0.05551189
v -0.02123838 -0.07400000 0.05447977
v -0.02412855 -0.07389998 0.05329221
v -0.02689385 -0.07400000 0.05192142
v -0.02953815 -0.07389998 0.05049496
v -0.03224629 -0.07400000 0.04877799
v -0.03462767 -0.07389998 0.04715055
v -0.03723531 -0.07400000 0.04508489
v -0.03934186 -0.07389998 0.04329508
v -0.04180473 -0.07400000 0.04088366
v -0.04362970 -0.07389998 0.03897041
v -0.04590308 -0.07400000 0.03622180
v -0.04744476 -0.07389998 0.03422343
v -0.04948419 -0.07400000 0.03115171
v -0.05074560 -0.07389998 0.02910548
v -0.05250757 -0.07400000 0.02573066
v -0.05349647 -0.07389998 0.02367222
v -0.05493932 -0.07400000 0.02001953
v -0.05566757 -0.07389998 0.01798236
v -0.05675196 -0.07400000 0.01408284
v -0.05723541 -0.07389998 0.01209759
v -0.05792504 -0.07400000 0.00798750
v -0.05818295 -0.07389998 0.00608176
v -0.05844539 -0.07400000 0.00180209
v -0.05849999 -0.07389998 0.00000000
v -0.05830711 -0.07400000 -0.00440353
v -0.05818295 -0.07389998 -0.00608176
v -0.05751180 -0.07400000 -0.01055961
v -0.05723541 -0.07389998 -0.01209759
v -0.05606836 -0.07400000 -0.01659667
v -0.05566757 -0.07389998 -0.01798230
v -0.05399310 -0.07400000 -0.02244663
v -0.05349647 -0.07389998 -0.02367216
v -0.05130940 -0.07400000 -0.02804380
v -0.05074560 -0.07389998 -0.02910548
v -0.04804754 -0.07400000 -0.03332483
v -0.04744476 -0.07389998 -0.03422337
v -0.04424422 -0.07400000 -0.03823035
v -0.04362970 -0.07389998 -0.03897041
v -0.03994226 -0.07400000 -0.04270505
v -0.03519028 -0.07400000 -0.04669857
v -0.03462767 -0.07389998 -0.04715049
v -0.03004169 -0.07400000 -0.05016583
v -0.02953815 -0.07389998 -0.05049496
v -0.02455455 -0.07400000 -0.05306774
v -0.02412855 -0.07389998 -0.05329221
v -0.01879072 -0.07400000 -0.05537170
v -0.01845747 -0.07389998 -0.05551183
v -0.01281517 -0.07400000 -0.05705159
v -0.01258635 -0.07389998 -0.05712991
v -0.00669515 -0.07400000 -0.05808860
v -0.00657880 -0.07389998 -0.05812889
v -0.00050000 -0.07400000 -0.05847102
v -0.00050000 -0.07389998 -0.05849784
f 1 2 3
f 3 2 4
f 3 4 5
f 2 6 4
f 4 6 7
f 7 6 8
f 7 8 9
f 9 8 10
f 9 10 11
f 11 10 12
f 11 12 13
f 13 12 14
f 13 14 15
f 15 14 16
f 15 16 17
f 17 16 18
f 17 18 19
f 19 18 20
f 19 20 21
f 21 20 22
f 21 22 23
f 23 22 24
f 23 24 25
f 25 24 26
f 25 26 27
f 27 26 28
f 27 28 29
f 29 28 30
f 29 30 31
f 31 30 32
f 31 32 33
f 5 34 3
f 3 34 35
f 3 35 36
f 36 35 37
f 36 37 38
f 38 39 36
f 36 39 40
f 36 40 41
f 41 42 36
f 36 42 43
f 36 43 44
f 44 45 36
f 36 45 46
f 36 46 47
f 47 48 36
f 36 48 49
f 36 49 50
f 50 51 36
f 36 51 52
f 36 52 53
f 53 54 36
f 36 54 55
f 36 55 56
f 56 57 36
f 36 57 58
f 36 58 59
f 59 60 36
f 36 60 61
f 36 61 62
f 62 63 36
f 36 64 65
f 36 65 66
f 66 67 36
f 68 69 70
f 36 71 72
f 73 74 75
f 75 74 76
f 76 74 77
f 76 77 78
f 78 77 79
f 78 79 80
f 80 79 81
f 80 81 82
f 82 81 83
f 82 83 84
f 84 83 85
f 84 85 86
f 86 85 87
f 86 87 88
f 88 87 89
f 88 89 90
f 90 89 91
f 90 91 92
f 92 91 93
f 92 93 94
f 94 93 95
f 94 95 96
f 96 95 97
f 96 97 98
f 98 97 99
f 98 99 100
f 100 99 101
f 100 101 102
f 102 101 103
f 102 103 104
f 101 105 103
f 103 105 106
f 106 105 107
f 106 107 108
f 108 107 109
f 108 109 110
f 110 109 111
f 110 111 112
f 112 111 113
f 112 113 114
f 114 113 115
f 114 115 116
f 116 115 117
f 116 117 118
f 118 117 119
f 118 119 120
f 120 119 121
f 120 121 122
f 122 121 123
f 122 123 124
f 124 123 125
f 124 125 126
f 126 125 127
f 126 127 128
f 128 127 129
f 128 129 130
f 130 129 131
f 130 131 132
f 132 131 133
f 132 133 134
f 134 133 135
f 134 135 136
f 104 137 102
f 138 139 140
f 140 139 141
f 140 141 142
f 139 143 141
f 141 143 144
f 144 143 145
f 144 145 146
f 146 145 147
f 146 147 148
f 148 149 146
f 146 149 150
f 146 150 151
f 151 150 152
f 152 150 153
f 153 150 154
f 154 150 155
f 155 150 156
f 156 150 157
f 157 150 158
f 157 158 159
f 160 161 159
f 159 161 162
f 159 162 163
f 160 164 161
f 161 164 165
f 161 165 166
f 166 167 161
f 163 168 159
f 159 168 169
f 159 169 170
f 170 171 159
f 159 171 172
f 159 172 173
f 173 174 159
f 159 174 157
f 142 175 140
f 140 175 176
f 140 176 177
f 177 176 178
f 177 178 179
f 175 180 176
f 181 182 179
f 179 182 183
f 179 183 177
f 177 183 184
f 185 186 181
f 181 186 187
f 181 187 188
f 185 189 186
f 186 189 190
f 186 190 191
f 191 192 186
f 186 192 193
f 186 193 194
f 194 195 186
f 186 195 196
f 186 196 197
f 197 198 186
f 186 198 199
f 186 199 200
f 200 199 201
f 201 199 202
f 202 199 203
f 202 203 204
f 204 205 202
f 202 205 206
f 202 206 207
f 207 208 202
f 188 209 181
f 181 209 210
f 181 210 211
f 211 212 181
f 181 212 213
f 181 213 182
f 214 215 216
f 216 215 217
f 216 217 218
f 218 217 219
f 218 219 220
f 220 219 221
f 220 221 222
f 222 221 223
f 222 223 224
f 224 223 225
f 224 225 226
f 226 225 227
f 226 227 228
f 228 227 229
f 228 229 230
f 230 229 231
f 230 231 232
f 232 231 233
f 232 233 234
f 234 233 235
f 234 235 236
f 236 235 237
f 236 237 238
f 238 237 239
f 238 239 240
f 240 239 241
f 240 241 242
f 242 241 243
f 242 243 244
f 244 243 245
f 244 245 246
f 246 245 247
f 246 247 248
f 248 247 249
f 245 250 247
f 247 250 251
f 251 250 252
f 251 252 253
f 253 252 254
f 253 254 255
f 255 254 256
f 255 256 257
f 257 256 258
f 257 258 259
f 259 258 260
f 259 260 261
f 261 260 262
f 261 262 263
f 263 262 264
f 263 264 265
f 265 264 266
f 265 266 267
f 267 266 268
f 267 268 269
f 269 268 270
f 269 270 271
f 271 270 272
f 271 272 273
f 273 272 274
f 273 274 275
f 275 274 276
f 275 276 277
f 277 276 278
f 279 280 281
f 281 280 282
f 281 282 283
f 283 282 284
f 283 284 285
f 285 284 286
f 285 286 287
f 287 286 288
f 287 288 289
f 289 288 290
f 289 290 291
f 291 290 292
f 291 292 293
f 293 292 294
f 293 294 295
f 295 294 296
f 295 296 297
f 297 296 298
f 297 298 299
f 300 301 279
f 279 301 302
f 279 302 303
f 303 302 304
f 303 304 305
f 305 304 306
f 305 306 307
f 307 306 308
f 307 308 309
f 309 308 310
f 309 310 290
f 290 310 292
f 301 300 311
f 311 300 312
f 311 312 313
f 313 312 314
f 313 314 315
f 315 314 316
f 315 316 317
f 317 316 318
f 317 318 319
f 319 318 320
f 319 320 321
f 319 321 322
f 322 321 323
f 322 323 296
f 296 323 298
f 297 299 324
f 324 299 325
f 324 325 326
f 326 325 327
f 326 327 328
f 328 327 329
f 328 329 330
f 330 329 331
f 330 331 332
f 330 332 333
f 333 332 334
f 333 334 335
f 335 334 336
f 335 336 337
f 335 337 338
f 338 337 339
f 338 339 340
f 340 339 341
f 340 341 342
f 342 341 343
f 342 343 344
f 344 343 345
f 344 345 346
f 346 345 347
f 346 347 348
f 348 347 349
f 348 349 350
f 350 349 351
f 350 351 352
f 352 351 353
f 352 353 354
f 339 355 341
f 341 355 356
f 341 356 343
f 343 356 357
f 343 357 358
f 355 359 356
f 356 359 357
f 358 345 343
f 347 360 349
f 349 360 361
f 349 361 351
f 351 361 353
f 360 353 361
f 362 363 354
f 354 363 364
f 354 364 352
f 352 364 365
f 352 365 350
f 350 365 366
f 350 366 348
f 348 366 346
f 363 362 367
f 367 362 368
f 367 368 369
f 369 368 370
f 369 370 371
f 371 370 372
f 371 372 373
f 373 372 374
f 373 374 375
f 375 374 376
f 375 376 377
f 377 376 378
f 377 378 379
f 379 378 380
f 379 380 381
f 381 380 382
f 381 382 383
f 381 383 384
f 384 383 385
f 384 385 386
f 386 385 387
f 386 387 285
f 285 387 283
f 279 388 280
f 280 388 389
f 280 389 390
f 390 389 391
f 390 391 286
f 286 391 288
f 280 390 282
f 282 390 284
f 390 286 284
f 285 287 386
f 386 287 392
f 386 392 384
f 384 392 393
f 384 393 381
f 381 393 394
f 381 394 379
f 379 394 395
f 379 395 377
f 377 395 396
f 377 396 375
f 375 396 397
f 375 397 373
f 373 397 398
f 373 398 371
f 371 398 399
f 371 399 369
f 369 399 400
f 369 400 367
f 367 400 401
f 367 401 363
f 363 401 402
f 363 402 364
f 364 402 365
f 389 388 305
f 305 388 303
f 391 389 307
f 307 389 305
f 288 391 309
f 309 391 307
f 309 290 288
f 291 403 404
f 404 403 405
f 404 405 393
f 393 405 394
f 403 406 405
f 405 406 407
f 405 407 394
f 394 407 395
f 291 293 403
f 403 293 408
f 403 408 406
f 406 408 409
f 406 409 410
f 410 409 411
f 410 411 412
f 412 411 413
f 412 413 396
f 396 413 397
f 406 410 407
f 407 410 412
f 407 412 395
f 395 412 396
f 411 414 413
f 413 414 415
f 413 415 397
f 397 415 398
f 414 416 415
f 415 416 417
f 415 417 398
f 398 417 399
f 414 411 418
f 418 411 409
f 418 409 419
f 419 409 420
f 419 420 324
f 324 420 297
f 416 421 417
f 417 421 422
f 417 422 399
f 399 422 400
f 416 414 423
f 423 414 418
f 423 418 424
f 424 418 419
f 424 419 326
f 326 419 324
f 421 425 422
f 422 425 426
f 422 426 400
f 400 426 401
f 421 416 427
f 427 416 423
f 427 423 428
f 428 423 424
f 428 424 328
f 328 424 326
f 425 429 426
f 426 429 430
f 426 430 401
f 401 430 402
f 425 421 431
f 431 421 427
f 431 427 432
f 432 427 428
f 432 428 330
f 330 428 328
f 429 433 430
f 430 433 434
f 430 434 402
f 402 434 365
f 429 425 435
f 435 425 431
f 435 431 436
f 436 431 432
f 436 432 333
f 333 432 330
f 433 437 434
f 434 437 366
f 434 366 365
f 433 429 438
f 438 429 435
f 438 435 439
f 439 435 436
f 439 436 335
f 335 436 333
f 366 437 346
f 346 437 440
f 346 440 344
f 344 440 342
f 437 433 441
f 441 433 438
f 441 438 442
f 442 438 439
f 442 439 338
f 338 439 335
f 291 404 289
f 289 404 392
f 289 392 287
f 392 404 393
f 388 279 303
f 338 340 443
f 443 340 342
f 443 342 440
f 295 297 420
f 296 294 322
f 322 294 444
f 322 444 319
f 319 444 445
f 319 445 317
f 317 445 446
f 317 446 315
f 315 446 447
f 315 447 313
f 313 447 301
f 313 301 311
f 441 442 443
f 443 442 338
f 441 443 440
f 409 408 420
f 420 408 295
f 408 293 295
f 294 292 444
f 444 292 310
f 444 310 445
f 445 310 308
f 445 308 446
f 446 308 306
f 446 306 447
f 447 306 304
f 447 304 301
f 301 304 302
f 437 441 440
f 448 449 450
f 450 449 451
f 450 451 452
f 452 451 453
f 452 453 454
f 454 453 455
f 454 455 456
f 456 455 457
f 456 457 458
f 458 457 459
f 458 459 460
f 460 459 461
f 460 461 462
f 455 453 463
f 463 453 464
f 463 464 465
f 465 464 466
f 465 466 467
f 467 468 465
f 465 468 469
f 465 469 470
f 470 469 471
f 470 471 459
f 459 471 461
f 462 472 460
f 460 472 473
f 460 473 474
f 474 473 475
f 474 475 476
f 476 475 477
f 476 477 478
f 478 477 479
f 478 479 480
f 480 479 481
f 480 481 482
f 482 481 483
f 482 483 484
f 484 483 485
f 485 483 486
f 485 486 487
f 487 486 488
f 487 488 489
f 489 488 490
f 489 490 491
f 491 490 492
f 491 492 493
f 493 492 494
f 493 494 495
f 495 494 496
f 495 496 497
f 497 496 498
f 497 498 499
f 499 498 500
f 499 500 501
f 501 500 502
f 502 500 503
f 502 503 103
f 103 503 504
f 504 503 505
f 504 505 506
f 506 505 507
f 506 507 508
f 508 507 509
f 508 509 510
f 510 509 511
f 510 511 512
f 512 511 513
f 512 513 514
f 514 513 515
f 514 515 516
f 516 515 517
f 517 515 518
f 517 518 519
f 519 518 520
f 519 520 521
f 521 520 522
f 521 522 523
f 523 522 524
f 524 522 525
f 525 522 526
f 525 526 527
f 527 526 528
f 527 528 529
f 529 528 530
f 529 530 531
f 531 530 532
f 531 532 533
f 533 532 534
f 534 532 473
f 534 473 472
f 514 535 512
f 512 535 536
f 512 536 504
f 484 537 482
f 482 537 538
f 482 538 480
f 480 538 539
f 480 539 478
f 478 539 540
f 478 540 476
f 476 540 541
f 476 541 474
f 474 541 458
f 474 458 460
f 537 542 538
f 538 542 543
f 538 543 539
f 539 543 544
f 539 544 540
f 540 544 545
f 540 545 541
f 541 545 456
f 541 456 458
f 542 546 543
f 543 546 547
f 543 547 544
f 544 547 548
f 544 548 545
f 545 548 454
f 545 454 456
f 546 448 547
f 547 448 450
f 547 450 548
f 548 450 452
f 548 452 454
f 506 508 504
f 504 508 510
f 504 510 512
f 486 483 549
f 549 483 481
f 549 481 550
f 550 481 479
f 550 479 551
f 551 479 477
f 551 477 552
f 552 477 475
f 552 475 532
f 532 475 473
f 488 486 553
f 553 486 549
f 553 549 554
f 554 549 550
f 554 550 555
f 555 550 551
f 555 551 556
f 556 551 552
f 556 552 530
f 530 552 532
f 488 553 490
f 490 553 557
f 490 557 492
f 492 557 558
f 492 558 494
f 494 558 559
f 494 559 496
f 496 559 560
f 496 560 498
f 498 560 561
f 498 561 500
f 500 561 562
f 500 562 503
f 503 562 505
f 557 553 563
f 563 553 554
f 563 554 564
f 564 554 555
f 564 555 565
f 565 555 556
f 565 556 528
f 528 556 530
f 558 557 566
f 566 557 563
f 566 563 567
f 567 563 564
f 567 564 568
f 568 564 565
f 568 565 526
f 526 565 528
f 559 558 569
f 569 558 566
f 569 566 570
f 570 566 567
f 570 567 571
f 571 567 568
f 571 568 522
f 522 568 526
f 560 559 572
f 572 559 569
f 572 569 573
f 573 569 570
f 573 570 574
f 574 570 571
f 574 571 520
f 520 571 522
f 561 560 575
f 575 560 572
f 575 572 576
f 576 572 573
f 576 573 577
f 577 573 574
f 577 574 518
f 518 574 520
f 562 561 578
f 578 561 575
f 578 575 579
f 579 575 576
f 579 576 580
f 580 576 577
f 580 577 515
f 515 577 518
f 505 562 507
f 507 562 578
f 507 578 509
f 509 578 579
f 509 579 511
f 511 579 580
f 511 580 513
f 513 580 515
f 455 463 457
f 457 463 470
f 457 470 459
f 470 463 465
f 581 582 583
f 584 585 586
f 587 588 589
f 586 590 591
f 591 590 592
f 591 592 593
f 592 590 594
f 594 590 595
f 594 595 596
f 591 593 597
f 597 593 598
f 597 598 599
f 597 599 600
f 600 599 601
f 600 601 602
f 602 601 603
f 602 603 604
f 604 603 605
f 605 603 606
f 606 603 607
f 607 603 608
f 608 603 609
f 609 603 610
f 610 603 611
f 610 611 612
f 612 611 613
f 613 611 614
f 614 611 615
f 616 617 618
f 618 617 619
f 618 619 620
f 616 621 617
f 617 621 622
f 617 622 623
f 623 622 624
f 624 622 625
f 624 625 626
f 626 625 627
f 627 625 628
f 627 628 629
f 629 628 630
f 629 630 631
f 621 632 622
f 622 632 625
f 632 633 625
f 625 633 634
f 625 634 635
f 635 636 625
f 625 636 628
f 631 637 629
f 629 637 638
f 629 638 639
f 639 627 629
f 623 619 617
f 640 641 642
f 642 641 643
f 644 645 646
f 640 647 641
f 641 647 648
f 648 647 649
f 648 649 650
f 650 649 651
f 650 651 652
f 652 651 653
f 652 653 654
f 652 654 655
f 655 654 656
f 655 656 657
f 657 658 655
f 655 658 659
f 660 661 662
f 662 661 642
f 663 664 665
f 665 664 666
f 666 664 667
f 666 667 668
f 668 667 669
f 668 669 670
f 670 669 671
f 671 669 672
f 673 674 675
f 675 674 676
f 675 676 677
f 675 677 678
f 678 677 679
f 678 679 680
f 680 679 681
f 681 679 682
f 683 684 685
f 685 684 686
f 687 688 689
f 689 688 690
f 689 690 691
f 691 690 692
f 691 692 693
f 693 692 694
f 693 694 695
f 695 694 696
f 695 696 697
f 697 696 698
f 697 698 699
f 699 698 700
f 699 700 701
f 701 700 702
f 701 702 703
f 703 702 188
f 703 188 704
f 688 705 690
f 690 705 706
f 690 706 692
f 692 706 707
f 692 707 694
f 694 707 708
f 694 708 696
f 696 708 709
f 696 709 698
f 698 709 710
f 698 710 700
f 700 710 711
f 700 711 702
f 702 711 712
f 702 712 188
f 705 713 706
f 706 713 714
f 706 714 707
f 707 714 715
f 707 715 708
f 708 715 716
f 708 716 709
f 709 716 717
f 709 717 710
f 710 717 718
f 710 718 711
f 711 718 719
f 711 719 712
f 703 704 720
f 720 704 721
f 720 721 722
f 722 721 723
f 722 723 724
f 724 723 725
f 724 725 726
f 726 725 727
f 726 727 728
f 728 727 729
f 728 729 730
f 730 729 731
f 730 731 732
f 730 732 733
f 733 732 734
f 733 734 735
f 735 734 736
f 735 737 733
f 733 737 738
f 733 738 730
f 730 738 728
f 737 739 738
f 738 739 740
f 738 740 728
f 728 740 726
f 739 741 740
f 740 741 742
f 740 742 726
f 726 742 724
f 741 743 742
f 742 743 744
f 742 744 724
f 724 744 722
f 743 745 744
f 744 745 746
f 744 746 722
f 722 746 720
f 745 747 746
f 746 747 748
f 746 748 720
f 720 748 703
f 747 749 748
f 748 749 701
f 748 701 703
f 749 699 701
f 750 751 752
f 752 751 753
f 752 753 754
f 754 753 755
f 754 755 756
f 756 755 757
f 756 78 754
f 754 78 758
f 754 758 752
f 752 758 759
f 752 759 750
f 750 759 760
f 760 759 761
f 760 761 762
f 762 761 763
f 762 763 764
f 764 763 765
f 764 765 766
f 766 765 767
f 766 767 768
f 768 767 769
f 768 769 770
f 770 769 771
f 771 769 772
f 771 772 773
f 773 772 774
f 773 774 775
f 775 774 776
f 775 776 777
f 777 776 778
f 777 778 779
f 779 778 780
f 779 780 781
f 781 780 782
f 781 782 783
f 783 782 784
f 783 784 785
f 785 784 786
f 786 784 787
f 786 787 788
f 788 787 789
f 788 789 790
f 78 791 758
f 758 791 792
f 758 792 759
f 759 792 761
f 791 793 792
f 792 793 794
f 792 794 761
f 761 794 763
f 793 795 794
f 794 795 796
f 794 796 763
f 763 796 765
f 795 797 796
f 796 797 798
f 796 798 765
f 765 798 767
f 797 799 798
f 798 799 800
f 798 800 767
f 767 800 769
f 800 799 801
f 801 799 802
f 801 802 803
f 803 802 804
f 803 804 805
f 805 804 806
f 805 806 807
f 807 806 808
f 807 808 809
f 809 808 810
f 809 810 811
f 811 810 812
f 811 812 787
f 787 812 789
f 772 769 800
f 772 800 801
f 774 772 801
f 774 801 803
f 776 774 803
f 776 803 805
f 778 776 805
f 778 805 807
f 780 778 807
f 780 807 809
f 782 780 809
f 782 809 811
f 784 782 811
f 784 811 787
f 813 814 815
f 815 814 816
f 815 816 817
f 817 816 818
f 817 818 819
f 819 818 820
f 819 820 821
f 822 823 821
f 821 823 824
f 821 824 819
f 819 824 817
f 825 826 822
f 822 826 827
f 822 827 823
f 823 827 828
f 823 828 829
f 829 828 830
f 829 830 815
f 815 830 813
f 826 825 831
f 831 825 832
f 831 832 833
f 833 832 834
f 833 834 835
f 835 834 836
f 835 836 837
f 837 836 838
f 837 838 839
f 837 839 840
f 840 839 841
f 840 841 842
f 842 841 843
f 842 843 844
f 842 844 845
f 845 844 846
f 845 846 847
f 847 846 848
f 847 848 849
f 847 849 850
f 850 849 851
f 850 851 852
f 852 851 853
f 852 853 854
f 855 856 854
f 854 856 857
f 854 857 852
f 852 857 858
f 852 858 859
f 859 858 860
f 859 860 861
f 861 860 862
f 861 862 863
f 856 855 864
f 864 855 865
f 864 865 866
f 866 865 867
f 866 867 868
f 869 870 865
f 865 870 867
f 871 872 868
f 868 872 866
f 866 872 873
f 873 872 874
f 873 874 875
f 873 875 876
f 876 875 877
f 876 877 878
f 878 877 879
f 878 880 876
f 876 880 881
f 876 881 873
f 873 881 882
f 873 882 866
f 866 882 864
f 880 883 881
f 881 883 884
f 881 884 882
f 882 884 885
f 882 885 864
f 864 885 856
f 883 886 884
f 884 886 887
f 884 887 885
f 885 887 888
f 885 888 856
f 856 888 857
f 886 889 887
f 887 889 890
f 887 890 888
f 888 890 858
f 888 858 857
f 889 891 890
f 890 891 860
f 890 860 858
f 891 862 860
f 863 892 861
f 861 892 893
f 861 893 894
f 894 893 895
f 894 895 847
f 847 895 845
f 892 896 893
f 893 896 897
f 893 897 895
f 895 897 898
f 895 898 845
f 845 898 842
f 896 899 897
f 897 899 900
f 897 900 898
f 898 900 901
f 898 901 842
f 842 901 840
f 899 902 900
f 900 902 903
f 900 903 901
f 901 903 904
f 901 904 840
f 840 904 837
f 902 905 903
f 903 905 906
f 903 906 907
f 907 906 908
f 907 908 909
f 909 908 910
f 909 910 911
f 911 910 912
f 911 912 913
f 913 912 914
f 913 914 915
f 915 914 916
f 915 916 917
f 917 916 828
f 917 828 827
f 914 813 916
f 916 813 830
f 916 830 828
f 913 915 918
f 918 915 917
f 918 917 826
f 826 917 827
f 911 913 919
f 919 913 918
f 919 918 831
f 831 918 826
f 909 911 920
f 920 911 919
f 920 919 833
f 833 919 831
f 904 903 907
f 907 909 921
f 921 909 920
f 921 920 835
f 835 920 833
f 859 861 894
f 815 817 829
f 829 817 824
f 829 824 823
f 837 904 921
f 921 904 907
f 837 921 835
f 847 850 894
f 894 850 859
f 850 852 859
f 922 923 924
f 924 923 925
f 924 925 926
f 926 925 927
f 926 927 928
f 928 927 929
f 928 929 930
f 930 929 931
f 930 931 932
f 923 933 925
f 925 933 934
f 925 934 935
f 935 934 936
f 935 936 937
f 937 936 938
f 937 938 939
f 939 938 940
f 939 941 937
f 937 941 942
f 937 942 935
f 935 942 927
f 935 927 925
f 941 943 942
f 942 943 929
f 942 929 927
f 943 931 929
f 930 932 944
f 944 932 945
f 944 945 946
f 946 945 947
f 946 947 948
f 948 947 949
f 948 949 950
f 948 950 951
f 951 950 952
f 951 952 953
f 953 952 954
f 953 954 955
f 953 955 956
f 956 955 957
f 956 957 958
f 958 957 959
f 958 959 960
f 958 960 961
f 961 960 962
f 961 962 963
f 963 962 964
f 963 964 965
f 963 965 966
f 966 965 967
f 966 967 968
f 968 967 969
f 968 969 970
f 968 970 971
f 971 970 972
f 971 972 973
f 971 973 974
f 974 973 975
f 974 975 976
f 976 975 977
f 976 977 978
f 976 978 979
f 979 978 980
f 979 980 981
f 981 980 982
f 981 982 983
f 983 982 984
f 983 984 985
f 983 985 986
f 986 985 987
f 986 987 988
f 988 987 989
f 988 989 990
f 988 990 991
f 991 990 992
f 991 992 993
f 991 993 994
f 994 993 995
f 994 995 996
f 996 995 997
f 996 997 998
f 998 997 999
f 998 999 1000
f 998 1000 1001
f 1001 1000 1002
f 1001 1002 1003
f 1003 1002 1004
f 1003 1004 1005
f 1005 1004 1006
f 1005 1006 1007
f 1007 1006 1008
f 1007 1008 926
f 926 1008 924
f 926 928 1007
f 1007 928 1009
f 1007 1009 1005
f 1005 1009 1010
f 1005 1010 1003
f 1003 1010 1011
f 1003 1011 1001
f 1001 1011 1012
f 1001 1012 998
f 998 1012 1013
f 998 1013 996
f 996 1013 1014
f 996 1014 994
f 994 1014 1015
f 994 1015 991
f 991 1015 1016
f 991 1016 988
f 988 1016 1017
f 988 1017 986
f 986 1017 1018
f 986 1018 983
f 983 1018 1019
f 983 1019 981
f 981 1019 1020
f 981 1020 979
f 979 1020 974
f 979 974 976
f 928 930 1009
f 1009 930 944
f 1009 944 1010
f 1010 944 946
f 1010 946 1011
f 1011 946 948
f 1011 948 1012
f 1012 948 951
f 1012 951 1013
f 1013 951 953
f 1013 953 1014
f 1014 953 956
f 1014 956 1015
f 1015 956 958
f 1015 958 1016
f 1016 958 961
f 1016 961 1017
f 1017 961 963
f 1017 963 1018
f 1018 963 966
f 1018 966 1019
f 1019 966 968
f 1019 968 1020
f 1020 968 971
f 1020 971 974
f 1021 1022 1023
f 1023 1022 1024
f 1023 1024 1025
f 1025 1024 1026
f 1025 1026 1027
f 1027 1026 1028
f 1027 1028 1029
f 1029 1028 1030
f 1029 1030 1031
f 1031 1030 1032
f 1031 1032 1033
f 1033 1032 1034
f 1033 1034 1035
f 1035 1034 1036
f 1035 1036 1037
f 1037 1036 1038
f 1037 1038 1039
f 1039 1038 1040
f 1039 1040 1041
f 1041 1040 1042
f 1041 1042 1043
f 1043 1042 1044
f 1043 1044 1045
f 1045 1044 1046
f 1046 1044 1047
f 1046 1047 1048
f 1048 1047 1049
f 1048 1049 1050
f 1050 1049 1051
f 1050 1051 1052
f 1052 1051 1053
f 1052 1053 1054
f 1054 1053 1055
f 1054 1055 1056
f 1056 1055 1057
f 1056 1057 1058
f 1058 1057 1059
f 1058 1059 1060
f 1060 1059 1061
f 1060 1061 1062
f 1062 1061 1063
f 1062 1063 1064
f 1064 1063 1065
f 1064 1065 1066
f 1066 1065 1067
f 1066 1067 1068
f 1068 1067 1069
f 1068 1069 1070
f 1070 1069 1071
f 1071 1069 1072
f 1071 1072 1073
f 1073 1072 1074
f 1073 1074 1075
f 1075 1074 1076
f 1075 1076 1077
f 1077 1076 1078
f 1077 1078 1079
f 1079 1078 1080
f 1079 1080 1081
f 1081 1080 1082
f 1081 1082 1083
f 1083 1082 1084
f 1084 1082 1085
f 1084 1085 1086
f 1086 1085 1087
f 1087 1085 1088
f 1088 1085 1089
f 1088 1089 1090
f 1090 1089 1091
f 1090 1091 1092
f 1092 1091 1093
f 1092 1093 1094
f 1094 1093 1095
f 1094 1095 1096
f 1096 1095 1097
f 1096 1097 1098
f 1098 1097 1099
f 1098 1099 1100
f 1100 1099 1101
f 1100 1101 1102
f 1102 1101 1103
f 1102 1103 1104
f 1104 1103 1105
f 1104 1105 1106
f 1106 1105 1107
f 1106 1107 1108
f 1108 1107 1109
f 1108 1109 1110
f 1110 1109 1111
f 1110 1111 1112
f 1112 1111 1113
f 1112 1113 1114
f 1114 1113 1115
f 1114 1115 1116
f 1116 1115 1117
f 1116 1117 1118
f 1118 1117 1119
f 1118 1119 1120
f 1120 1119 1121
f 1120 1121 1122
f 1122 1121 1123
f 1122 1123 1124
f 1124 1123 1125
f 1124 1125 1126
f 1126 1125 1127
f 1126 1127 1128
f 1128 1127 1129
f 1128 1129 1130
f 1130 1129 1131
f 1130 1131 1132
f 1132 1131 1133
f 1132 1133 1134
f 1134 1133 1135
f 1134 1135 1136
f 1136 1135 1137
f 1136 1137 1138
f 1138 1137 1139
f 1138 1139 1140
f 1140 1139 1141
f 1140 1141 1142
f 1142 1141 1143
f 1142 1143 1144
f 1144 1143 1145
f 1144 1145 1146
f 1024 1022 1143
f 1143 1022 1145
f 1147 1148 1083
f 1083 1148 1149
f 1083 1149 1081
f 1150 1151 1147
f 1147 1151 1152
f 1147 1152 1148
f 1151 1150 1153
f 1153 1150 1154
f 1153 1154 1155
f 1155 1156 1153
f 1153 1156 1157
f 1153 1157 1158
f 1158 1157 1159
f 1158 1159 1160
f 1160 1159 1161
f 1161 1159 1162
f 1161 1162 1163
f 1163 1162 1164
f 1163 1164 1165
f 1165 1164 1166
f 1165 1166 1167
f 1167 1166 1168
f 1167 1168 1169
f 1169 1168 1170
f 1170 1168 1171
f 1170 1171 1172
f 1172 1171 1173
f 1172 1173 1174
f 1174 1173 1175
f 1174 1175 1176
f 1176 1175 1177
f 1176 1177 1178
f 1178 1177 1179
f 1178 1179 1180
f 1180 1179 1181
f 1180 1181 1182
f 1182 1181 1183
f 1182 1183 1184
f 1184 1183 1185
f 1184 1185 1186
f 1186 1185 1187
f 1186 1187 1188
f 1188 1187 1189
f 1188 1189 1190
f 1190 1189 1191
f 1190 1191 1192
f 1192 1191 1193
f 1192 1193 1194
f 1194 1193 1195
f 1195 1193 1196
f 1195 1196 1197
f 1197 1196 1198
f 1197 1198 1199
f 1199 1198 1200
f 1199 1200 1201
f 1201 1200 1202
f 1201 1202 1203
f 1203 1202 1204
f 1203 1204 1205
f 1205 1204 1206
f 1205 1206 1207
f 1207 1206 1208
f 1207 1208 1209
f 1209 1208 1210
f 1209 1210 1211
f 1211 1210 1212
f 1211 1212 1213
f 1213 1212 1214
f 1213 1214 1215
f 1215 1214 1216
f 1215 1216 1217
f 1156 1218 1157
f 1157 1218 1219
f 1157 1219 1159
f 1159 1219 1162
f 1218 1220 1219
f 1219 1220 1221
f 1219 1221 1162
f 1162 1221 1164
f 1220 1222 1221
f 1221 1222 1223
f 1221 1223 1164
f 1164 1223 1166
f 1222 1224 1223
f 1223 1224 1225
f 1223 1225 1166
f 1166 1225 1168
f 1224 1226 1225
f 1225 1226 1227
f 1225 1227 1168
f 1168 1227 1171
f 1226 1228 1227
f 1227 1228 1229
f 1227 1229 1171
f 1171 1229 1173
f 1228 1230 1229
f 1229 1230 1231
f 1229 1231 1173
f 1173 1231 1175
f 1230 1232 1231
f 1231 1232 1233
f 1231 1233 1175
f 1175 1233 1177
f 1232 1234 1233
f 1233 1234 1235
f 1233 1235 1177
f 1177 1235 1179
f 1234 1236 1235
f 1235 1236 1237
f 1235 1237 1179
f 1179 1237 1181
f 1236 1238 1237
f 1237 1238 1239
f 1237 1239 1181
f 1181 1239 1183
f 1238 1240 1239
f 1239 1240 1241
f 1239 1241 1183
f 1183 1241 1185
f 1240 1242 1241
f 1241 1242 1243
f 1241 1243 1185
f 1185 1243 1187
f 1242 1244 1243
f 1243 1244 1245
f 1243 1245 1187
f 1187 1245 1189
f 1244 1246 1245
f 1245 1246 1247
f 1245 1247 1189
f 1189 1247 1191
f 1246 1248 1247
f 1247 1248 1249
f 1247 1249 1191
f 1191 1249 1193
f 1248 1250 1249
f 1249 1250 1251
f 1249 1251 1193
f 1193 1251 1196
f 1250 1252 1251
f 1251 1252 1253
f 1251 1253 1196
f 1196 1253 1198
f 1252 1254 1253
f 1253 1254 1255
f 1253 1255 1198
f 1198 1255 1200
f 1254 1256 1255
f 1255 1256 1257
f 1255 1257 1200
f 1200 1257 1202
f 1256 1258 1257
f 1257 1258 1259
f 1257 1259 1202
f 1202 1259 1204
f 1258 87 1259
f 1259 87 1260
f 1259 1260 1204
f 1204 1260 1206
f 87 1261 1260
f 1260 1261 1262
f 1260 1262 1206
f 1206 1262 1208
f 1261 1263 1262
f 1262 1263 1264
f 1262 1264 1208
f 1208 1264 1210
f 1263 1265 1264
f 1264 1265 1266
f 1264 1266 1210
f 1210 1266 1212
f 1265 1267 1266
f 1266 1267 1268
f 1266 1268 1212
f 1212 1268 1214
f 1267 1269 1268
f 1268 1269 1270
f 1268 1270 1214
f 1214 1270 1216
f 1269 1271 1270
f 1270 1271 1272
f 1270 1272 1216
f 1271 1273 1272
f 1160 1152 1158
f 1158 1152 1151
f 1158 1151 1153
f 1026 1024 1143
f 1028 1026 1141
f 1141 1026 1143
f 1030 1028 1139
f 1139 1028 1141
f 1032 1030 1137
f 1137 1030 1139
f 1034 1032 1135
f 1135 1032 1137
f 1036 1034 1133
f 1133 1034 1135
f 1038 1036 1131
f 1131 1036 1133
f 1040 1038 1129
f 1129 1038 1131
f 1042 1040 1127
f 1127 1040 1129
f 1044 1042 1125
f 1125 1042 1127
f 1047 1044 1123
f 1123 1044 1125
f 1049 1047 1121
f 1121 1047 1123
f 1051 1049 1119
f 1119 1049 1121
f 1053 1051 1117
f 1117 1051 1119
f 1055 1053 1115
f 1115 1053 1117
f 1057 1055 1113
f 1113 1055 1115
f 1059 1057 1111
f 1111 1057 1113
f 1061 1059 1109
f 1109 1059 1111
f 1063 1061 1107
f 1107 1061 1109
f 1065 1063 1105
f 1105 1063 1107
f 1067 1065 1103
f 1103 1065 1105
f 1069 1067 1101
f 1101 1067 1103
f 1072 1069 1099
f 1099 1069 1101
f 1074 1072 1097
f 1097 1072 1099
f 1076 1074 1095
f 1095 1074 1097
f 1078 1076 1093
f 1093 1076 1095
f 1080 1078 1091
f 1091 1078 1093
f 1082 1080 1089
f 1089 1080 1091
f 1085 1082 1089

