# https://github.com/mikedh/trimesh
v -0.00644714 0.02860021 0.05908918
v -0.00589949 0.02860820 0.05911672
v -0.00645047 0.02995818 0.05848968
v -0.00535238 0.02861934 0.05914002
v -0.00480485 0.02863419 0.05915921
v -0.00480443 0.03134047 0.05794429
v -0.00645202 0.03130775 0.05787366
v -0.00645190 0.03198003 0.05755913
v -0.00480407 0.03268015 0.05731248
v -0.00645137 0.03265047 0.05724036
v -0.00645095 0.03298473 0.05707949
v -0.00645047 0.03331840 0.05691766
v -0.00480270 0.03401279 0.05666327
v -0.00644928 0.03398406 0.05658984
v -0.00627559 0.03477942 0.05620402
v -0.00471687 0.03430807 0.05651885
v -0.00575709 0.03548485 0.05587476
v -0.00458950 0.03446555 0.05644571
v -0.00436455 0.03461593 0.05638027
v -0.00497657 0.03595721 0.05567097
v -0.00408936 0.03467339 0.05636388
v -0.00409365 0.03612178 0.05562341
v -0.00300074 0.03468811 0.05639255
v -0.00300580 0.03613662 0.05565237
v -0.00191194 0.03469824 0.05641233
v -0.00191778 0.03614711 0.05567282
v -0.00082960 0.03615254 0.05568349
v -0.00082302 0.03470391 0.05642318
v 0.00082321 0.03615260 0.05568218
v 0.00082359 0.03470373 0.05642294
v 0.00180793 0.03469294 0.05641555
v -0.00075134 0.03361022 0.05696618
v -0.00002295 0.03361183 0.05696779
v 0.00082359 0.03415417 0.05669707
v 0.00082361 0.03360348 0.05696839
v 0.00082349 0.03292202 0.05729931
v -0.00082321 0.03212440 0.05768042
v 0.00082397 0.03197258 0.05775123
v -0.00082971 0.03082340 0.05828547
v 0.00082599 0.03076994 0.05830931
v -0.00069846 0.03012460 0.05860424
v 0.00089428 0.03052967 0.05841833
v -0.00032045 0.02950227 0.05888456
v 0.00105137 0.03033810 0.05850380
v 0.00025849 0.02902311 0.05909639
v 0.00129133 0.03019911 0.05856400
v 0.00097643 0.02874040 0.05921626
v 0.00153548 0.03015911 0.05857872
v 0.00409007 0.02864825 0.05918115
v 0.00409436 0.03013110 0.05852401
v 0.00410032 0.02864754 0.05917936
v 0.00476462 0.02872985 0.05911594
v 0.00439334 0.03019058 0.05848503
v 0.00537568 0.02897685 0.05897939
v 0.00463784 0.03036463 0.05839616
v 0.00588697 0.02936959 0.05877983
v 0.00472790 0.03049850 0.05833148
v 0.00632751 0.03004467 0.05845373
v 0.00477779 0.03065246 0.05825895
v 0.00644988 0.03074508 0.05812859
v 0.00480229 0.03100436 0.05809593
v 0.00644988 0.03182911 0.05762583
v 0.00480741 0.03271347 0.05729144
v 0.00644988 0.03290790 0.05711215
v 0.00480145 0.03363293 0.05684584
v 0.00644988 0.03398132 0.05658715
v 0.00478810 0.03413462 0.05659860
v 0.00627577 0.03477519 0.05620169
v 0.00454563 0.03450405 0.05642610
v 0.00575858 0.03548026 0.05587297
v 0.00436687 0.03462314 0.05637496
v 0.00498003 0.03595346 0.05566924
v 0.00415087 0.03466540 0.05636256
v 0.00409627 0.03612035 0.05562067
v 0.00370645 0.03467243 0.05637568
v 0.00300545 0.03613555 0.05565029
v 0.00281847 0.03468924 0.05639493
v 0.00191444 0.03614640 0.05567139
v 0.00082387 0.03841096 0.05447798
v -0.00081418 0.03766047 0.05488520
v -0.00082175 0.03690785 0.05528676
v 0.00027727 0.03841429 0.05448329
v -0.00026938 0.03841441 0.05448347
v -0.00081601 0.03841137 0.05447995
f 1 2 3
f 3 2 4
f 3 4 5
f 5 6 3
f 3 6 7
f 7 6 8
f 8 6 9
f 8 9 10
f 10 9 11
f 11 9 12
f 12 9 13
f 12 13 14
f 14 13 15
f 15 13 16
f 15 16 17
f 17 16 18
f 17 18 19
f 17 19 20
f 20 19 21
f 20 21 22
f 22 21 23
f 22 23 24
f 24 23 25
f 24 25 26
f 26 25 27
f 27 25 28
f 27 28 29
f 29 28 30
f 29 30 31
f 28 32 33
f 28 33 30
f 30 33 34
f 34 33 35
f 35 33 36
f 36 33 32
f 36 32 37
f 36 37 38
f 38 37 39
f 38 39 40
f 40 39 41
f 40 41 42
f 42 41 43
f 42 43 44
f 44 43 45
f 44 45 46
f 46 45 47
f 46 47 48
f 48 47 49
f 48 49 50
f 50 49 51
f 50 51 52
f 50 52 53
f 53 52 54
f 53 54 55
f 55 54 56
f 55 56 57
f 57 56 58
f 57 58 59
f 59 58 60
f 59 60 61
f 61 60 62
f 61 62 63
f 63 62 64
f 63 64 65
f 65 64 66
f 65 66 67
f 67 66 68
f 67 68 69
f 69 68 70
f 69 70 71
f 71 70 72
f 71 72 73
f 73 72 74
f 73 74 75
f 75 74 76
f 75 76 77
f 77 76 78
f 77 78 31
f 31 78 29
f 79 80 29
f 29 80 81
f 29 81 27
f 79 82 80
f 80 82 83
f 80 83 84

