# https://github.com/mikedh/trimesh
v -0.00050000 -0.07409995 0.05829781
v -0.00618070 -0.07409995 0.05797141
v -0.00050000 -0.07409995 0.05819994
v -0.01180243 -0.07409995 -0.05709284
v -0.00618058 -0.07409995 -0.05797141
v -0.01180255 -0.07409995 0.05709278
v -0.01731181 -0.07409995 -0.05567032
v -0.01731193 -0.07409995 0.05567032
v -0.02265632 -0.07409995 -0.05371755
v -0.02265644 -0.07409995 0.05371749
v -0.02778500 -0.07409995 -0.05125308
v -0.02778512 -0.07409995 0.05125302
v -0.03264904 -0.07409995 -0.04830038
v -0.03264909 -0.07409995 0.04830032
v -0.03720200 -0.07409995 -0.04488760
v -0.03720211 -0.07409995 0.04488748
v -0.04140061 -0.07409995 -0.04104721
v -0.04140073 -0.07409995 0.04104709
v -0.04520487 -0.07409995 -0.03681582
v -0.04520493 -0.07409995 0.03681570
v -0.04857850 -0.07409995 -0.03223371
v -0.04857861 -0.07409995 0.03223359
v -0.05148941 -0.07409995 -0.02734458
v -0.05148947 -0.07409995 0.02734446
v -0.05390983 -0.07409995 -0.02219498
v -0.05390989 -0.07409995 0.02219480
v -0.05581670 -0.07409995 -0.01683390
v -0.05581676 -0.07409995 0.01683378
v -0.05719190 -0.07409995 -0.01131248
v -0.05719190 -0.07409995 0.01131236
v -0.05802232 -0.07409995 -0.00568336
v -0.05802232 -0.07409995 0.00568318
v -0.05802232 -0.07409995 -0.00568336
v -0.05802232 -0.07409995 0.00568318
v -0.05829995 -0.07409995 0.00000000
v -0.00049989 -0.07409995 -0.05829781
v 0.00049988 -0.07409995 -0.05829781
v 0.00050000 -0.07409995 0.05819994
v 0.00618058 -0.07409995 -0.05797141
v 0.01180243 -0.07409995 -0.05709284
v 0.01731181 -0.07409995 -0.05567032
v 0.02265632 -0.07409995 -0.05371755
v 0.02778500 -0.07409995 -0.05125308
v 0.03264898 -0.07409995 -0.04830038
v 0.03720200 -0.07409995 -0.04488760
v 0.04140061 -0.07409995 -0.04104721
v 0.04520487 -0.07409995 -0.03681582
v 0.04857850 -0.07409995 -0.03223371
v 0.05148941 -0.07409995 -0.02734458
v 0.05390983 -0.07409995 -0.02219498
v 0.05581670 -0.07409995 -0.01683390
v 0.05719190 -0.07409995 -0.01131248
v 0.05802232 -0.07409995 -0.00568336
v 0.05829995 -0.07409995 0.00000000
v 0.05802232 -0.07409995 0.00568318
v 0.05719190 -0.07409995 0.01131236
v 0.05581676 -0.07409995 0.01683378
v 0.05390989 -0.07409995 0.02219480
v 0.05148947 -0.07409995 0.02734446
v 0.04857861 -0.07409995 0.03223359
v 0.04520493 -0.07409995 0.03681570
v 0.04140073 -0.07409995 0.04104709
v 0.03720211 -0.07409995 0.04488748
v 0.03264909 -0.07409995 0.04830032
v 0.02778512 -0.07409995 0.05125302
v 0.02265644 -0.07409995 0.05371749
v 0.01731193 -0.07409995 0.05567032
v 0.01180249 -0.07409995 0.05709278
v 0.00050000 -0.07409995 0.05819994
v 0.00050000 -0.07409995 0.05819994
v 0.01180249 -0.07409995 0.05709278
v 0.00618070 -0.07409995 0.05797141
v 0.00618070 -0.07409995 0.05797141
v 0.00050000 -0.07409995 0.05829781
v 0.00050000 -0.07389998 0.05849784
v 0.00657880 -0.07389998 0.05812883
v 0.00050000 -0.06089997 0.05849784
v 0.00657898 -0.06089997 0.05812883
v 0.01258635 -0.07389998 0.05712991
v 0.01258671 -0.06089997 0.05712985
v 0.01845747 -0.07389998 0.05551183
v 0.01845794 -0.06089997 0.05551165
v 0.02412855 -0.07389998 0.05329215
v 0.02412921 -0.06089997 0.05329185
v 0.02953815 -0.07389998 0.05049496
v 0.02953892 -0.06089997 0.05049449
v 0.03462767 -0.07389998 0.04715049
v 0.03462851 -0.06089997 0.04714983
v 0.03934186 -0.07389998 0.04329502
v 0.03934282 -0.06089997 0.04329419
v 0.04362970 -0.07389998 0.03897041
v 0.04363065 -0.06089997 0.03896933
v 0.04744476 -0.07389998 0.03422337
v 0.04744565 -0.06089997 0.03422212
v 0.05074560 -0.07389998 0.02910548
v 0.05074644 -0.06089997 0.02910393
v 0.05349647 -0.07389998 0.02367216
v 0.05349725 -0.06089997 0.02367037
v 0.05566757 -0.07389998 0.01798230
v 0.05566823 -0.06089997 0.01798027
v 0.05723541 -0.07389998 0.01209759
v 0.05723589 -0.06089997 0.01209533
v 0.05818295 -0.07389998 0.00608170
v 0.05818325 -0.06089997 0.00607926
v 0.05849999 -0.07309997 0.00000000
v 0.05849999 -0.06699997 -0.00000223
v 0.05849999 -0.07389998 0.00000000
v 0.05821937 -0.07309931 -0.00570244
v 0.05818295 -0.07389998 -0.00608176
v 0.05738455 -0.07309526 -0.01135075
v 0.05723541 -0.07389998 -0.01209759
v 0.05600613 -0.07309025 -0.01689153
v 0.05566757 -0.07389998 -0.01798236
v 0.05409461 -0.07308679 -0.02227151
v 0.05349647 -0.07389998 -0.02367222
v 0.05166411 -0.07308536 -0.02743780
v 0.05074560 -0.07389998 -0.02910554
v 0.04874169 -0.07308471 -0.03234302
v 0.04744476 -0.07389998 -0.03422343
v 0.04535752 -0.07308471 -0.03694182
v 0.04362970 -0.07389998 -0.03897041
v 0.04154175 -0.07308536 -0.04118889
v 0.03934186 -0.07389998 -0.04329508
v 0.03732752 -0.07308661 -0.04504078
v 0.03462767 -0.07389998 -0.04715049
v 0.03275787 -0.07308828 -0.04846388
v 0.02953815 -0.07389998 -0.05049496
v 0.02787792 -0.07309025 -0.05142790
v 0.02412855 -0.07389998 -0.05329221
v 0.02273273 -0.07309234 -0.05390238
v 0.01845747 -0.07389998 -0.05551189
v 0.01736950 -0.07309412 -0.05585980
v 0.01258635 -0.07389998 -0.05712991
v 0.01184076 -0.07309567 -0.05728548
v 0.00657880 -0.07389998 -0.05812889
v 0.00619984 -0.07309734 -0.05816847
v 0.00050000 -0.07389998 -0.05849784
v 0.00050000 -0.07309967 -0.05849784
v 0.05850040 -0.06089997 -0.00000444
v 0.00050000 -0.06069999 0.05829781
v 0.00655794 -0.06069999 0.05792993
v 0.00050000 -0.06069999 0.05819994
v 0.01209801 -0.06069993 -0.05919837
v 0.00665057 -0.06069993 -0.06011241
v 0.01254487 -0.06069999 0.05693429
v 0.01770597 -0.06069993 -0.05771958
v 0.01839584 -0.06069999 0.05532157
v 0.02320450 -0.06069993 -0.05566942
v 0.02404743 -0.06069999 0.05310934
v 0.02943843 -0.06069999 0.05032163
v 0.03451037 -0.06069999 0.04698848
v 0.03920835 -0.06069999 0.04314613
v 0.02711302 -0.06069993 -0.05381482
v 0.03022867 -0.06069999 -0.05207175
v 0.03324687 -0.06069999 -0.05013167
v 0.03708279 -0.06069999 -0.04725676
v 0.03973340 -0.06069999 -0.04495537
v 0.04224044 -0.06069999 -0.04249578
v 0.04564684 -0.06069999 -0.03860908
v 0.04348140 -0.06069999 0.03883624
v 0.04728323 -0.06069999 0.03410542
v 0.05057263 -0.06069999 0.02900505
v 0.05830037 -0.06069993 -0.00000084
v 0.05822360 -0.06069993 -0.00583851
v 0.05759471 -0.06069993 -0.01161324
v 0.05331403 -0.06069999 0.02359026
v 0.05547761 -0.06069999 0.01791989
v 0.05703997 -0.06069999 0.01205527
v 0.05798417 -0.06069999 0.00606006
v 0.05693250 -0.06069993 -0.01507347
v 0.05602365 -0.06069993 -0.01861828
v 0.05460411 -0.06069993 -0.02288478
v 0.05305457 -0.06069999 -0.02660071
v 0.05125039 -0.06069999 -0.03019738
v 0.04944795 -0.06069999 -0.03326851
v 0.04762595 -0.06069999 -0.03598856
v 0.00316030 -0.06069993 -0.06042504
v 0.00050000 -0.06069993 -0.06048792
v -0.00050000 -0.06069999 0.05819994
v -0.00483572 -0.06069993 -0.06030368
v -0.01114392 -0.06069993 -0.05939114
v 0.00050000 -0.06069993 -0.06050062
v -0.01652652 -0.06069993 -0.05808168
v -0.01254475 -0.06069999 0.05693429
v -0.00655788 -0.06069999 0.05792993
v -0.00050000 -0.06069999 0.05829781
v -0.02242547 -0.06069993 -0.05599838
v -0.05057239 -0.06069993 0.02900552
v -0.04728293 -0.06069993 0.03410583
v -0.04348111 -0.06069993 0.03883653
v -0.02599722 -0.06069993 -0.05438053
v -0.02946352 -0.06069993 -0.05252319
v -0.03265839 -0.06069993 -0.05053079
v -0.03581583 -0.06069993 -0.04826188
v -0.03880202 -0.06069993 -0.04579645
v -0.04184055 -0.06069993 -0.04290848
v -0.04462987 -0.06069993 -0.03984510
v -0.04719239 -0.06069993 -0.03659075
v -0.04926806 -0.06069993 -0.03355288
v -0.05147218 -0.06069993 -0.02978420
v -0.05339127 -0.06069993 -0.02584958
v -0.05331379 -0.06069993 0.02359086
v -0.05547738 -0.06069999 0.01792055
v -0.05703979 -0.06069999 0.01205599
v -0.05450856 -0.06069993 -0.02313673
v -0.05655747 -0.06069993 -0.01665937
v -0.05756169 -0.06069993 -0.01181739
v -0.05821770 -0.06069993 -0.00593382
v -0.05830037 -0.06069993 0.00000000
v -0.05798405 -0.06069999 0.00606084
v -0.03920805 -0.06069993 0.04314643
v -0.03451013 -0.06069993 0.04698866
v -0.02943819 -0.06069993 0.05032175
v -0.02404719 -0.06069999 0.05310946
v -0.01839566 -0.06069999 0.05532163
v -0.00050000 -0.07309955 -0.05849784
v -0.00050000 -0.07389998 -0.05849784
v -0.00619990 -0.07309639 -0.05816847
v -0.00657880 -0.07389998 -0.05812889
v -0.01184076 -0.07309484 -0.05728548
v -0.01258635 -0.07389998 -0.05712991
v -0.01736950 -0.07309383 -0.05585980
v -0.01845747 -0.07389998 -0.05551189
v -0.02273273 -0.07309234 -0.05390238
v -0.02412855 -0.07389998 -0.05329221
v -0.02787792 -0.07309025 -0.05142790
v -0.02953815 -0.07389998 -0.05049496
v -0.03275787 -0.07308828 -0.04846388
v -0.03462767 -0.07389998 -0.04715049
v -0.03732752 -0.07308661 -0.04504078
v -0.03934186 -0.07389998 -0.04329508
v -0.04154175 -0.07308536 -0.04118889
v -0.04362970 -0.07389998 -0.03897041
v -0.04535752 -0.07308471 -0.03694182
v -0.04744476 -0.07389998 -0.03422343
v -0.04874169 -0.07308471 -0.03234302
v -0.05074560 -0.07389998 -0.02910554
v -0.05166411 -0.07308536 -0.02743780
v -0.05349647 -0.07389998 -0.02367222
v -0.05409461 -0.07308679 -0.02227151
v -0.05566757 -0.07389998 -0.01798236
v -0.05600613 -0.07308977 -0.01689153
v -0.05723541 -0.07389998 -0.01209759
v -0.05738455 -0.07309406 -0.01135075
v -0.05818295 -0.07389998 -0.00608176
v -0.05821937 -0.07309800 -0.00570250
v -0.05849999 -0.07389998 0.00000000
v -0.05849999 -0.07309997 0.00000000
v -0.05818325 -0.06089997 0.00607896
v -0.05849999 -0.06699997 -0.00000223
v -0.05850040 -0.06089997 -0.00000444
v -0.05818295 -0.07389998 0.00608170
v -0.05723595 -0.06089997 0.01209509
v -0.05723541 -0.07389998 0.01209759
v -0.05566829 -0.06089997 0.01798009
v -0.05566757 -0.07389998 0.01798230
v -0.05349737 -0.06089997 0.02367019
v -0.05349647 -0.07389998 0.02367216
v -0.05074656 -0.06089997 0.02910381
v -0.05074560 -0.07389998 0.02910548
v -0.04744577 -0.06089997 0.03422194
v -0.04744476 -0.07389998 0.03422337
v -0.04363077 -0.06089997 0.03896921
v -0.04362970 -0.07389998 0.03897041
v -0.03934288 -0.06089997 0.04329413
v -0.03934186 -0.07389998 0.04329502
v -0.03462862 -0.06089997 0.04714977
v -0.03462767 -0.07389998 0.04715049
v -0.02953904 -0.06089997 0.05049443
v -0.02953815 -0.07389998 0.05049496
v -0.02412927 -0.06089997 0.05329185
v -0.02412855 -0.07389998 0.05329215
v -0.01845800 -0.06089997 0.05551165
v -0.01845747 -0.07389998 0.05551183
v -0.01258671 -0.06089997 0.05712985
v -0.01258635 -0.07389998 0.05712991
v -0.00657898 -0.06089997 0.05812883
v -0.00657880 -0.07389998 0.05812883
v -0.00050000 -0.06089997 0.05849784
v -0.00050000 -0.07389998 0.05849784
v -0.05849999 -0.06699997 -0.00000223
v -0.05848354 -0.06905871 -0.00190526
v -0.05849999 -0.07309997 0.00000000
v -0.05847626 -0.07108581 -0.00190371
v -0.05821937 -0.07309800 -0.00570250
v -0.05825090 -0.07107222 -0.00573933
v -0.05744010 -0.07105368 -0.01142334
v -0.05750614 -0.06900840 -0.01142567
v -0.05616313 -0.06898057 -0.01700532
v -0.05625820 -0.06688112 -0.01700973
v -0.05438518 -0.06684446 -0.02243405
v -0.05441397 -0.06632268 -0.02243679
v -0.05200374 -0.06628382 -0.02764803
v -0.05207031 -0.06521564 -0.02768546
v -0.04914927 -0.06516796 -0.03264057
v -0.05217057 -0.06363493 -0.02786266
v -0.04925787 -0.06357550 -0.03285622
v -0.04936748 -0.06205952 -0.03323096
v -0.04596894 -0.06199938 -0.03797703
v -0.04613709 -0.06096470 -0.03829640
v -0.04239356 -0.06097733 -0.04260253
v -0.05850040 -0.06089997 -0.00000444
v -0.05850225 -0.06390076 -0.00192165
v -0.05849665 -0.06544691 -0.00190973
v -0.05849289 -0.06647878 -0.00190705
v -0.05834394 -0.06541281 -0.00574791
v -0.05832690 -0.06644856 -0.00574160
v -0.05762386 -0.06536269 -0.01144003
v -0.05759018 -0.06640505 -0.01142758
v -0.05632925 -0.06531304 -0.01703113
v -0.05628168 -0.06636309 -0.01701116
v -0.05447250 -0.06526398 -0.02246522
v -0.05850785 -0.06235885 -0.00194222
v -0.05842113 -0.06090402 -0.00588220
v -0.05839508 -0.06232851 -0.00584126
v -0.05778098 -0.06091034 -0.01171207
v -0.05772483 -0.06228065 -0.01162683
v -0.05657172 -0.06091845 -0.01739811
v -0.05647194 -0.06222939 -0.01731514
v -0.05479681 -0.06092816 -0.02293455
v -0.05464833 -0.06217521 -0.02284944
v -0.05479484 -0.06092822 -0.02293980
v -0.05238860 -0.06093966 -0.02843904
v -0.05227124 -0.06211835 -0.02817207
v -0.04943066 -0.06095224 -0.03365647
v -0.04210746 -0.06193864 -0.04236096
v -0.04197198 -0.06097871 -0.04303705
v -0.03781849 -0.06187814 -0.04633510
v -0.03756570 -0.06099152 -0.04708963
v -0.03314846 -0.06181859 -0.04986453
v -0.03275358 -0.06100338 -0.05067300
v -0.02814590 -0.06176042 -0.05291914
v -0.02812790 -0.06101304 -0.05346220
v -0.02329796 -0.06102150 -0.05580210
v -0.02285939 -0.06170403 -0.05546897
v -0.02220433 -0.06102323 -0.05625939
v -0.01734018 -0.06164973 -0.05748760
v -0.01656901 -0.06103110 -0.05822610
v -0.01217371 -0.06103652 -0.05933129
v -0.01164269 -0.06159776 -0.05895030
v -0.00725049 -0.06103205 -0.06016713
v -0.00777036 -0.06156456 -0.05960994
v -0.00581795 -0.06154817 -0.05985236
v -0.00579441 -0.06305432 -0.05889326
v -0.00384486 -0.06303602 -0.05905717
v -0.00383025 -0.06475073 -0.05851060
v -0.00050000 -0.06472718 -0.05861186
v -0.00382066 -0.06593549 -0.05841088
v -0.00050000 -0.06648868 -0.05850589
v -0.00381607 -0.06650513 -0.05840778
v -0.00379783 -0.06873148 -0.05840313
v -0.00572431 -0.06873816 -0.05825084
v -0.00569791 -0.07092541 -0.05823749
v -0.00760996 -0.07092809 -0.05802267
v -0.00619990 -0.07309639 -0.05816847
v -0.01184076 -0.07309484 -0.05728548
v -0.00388360 -0.06103700 -0.06050902
v -0.00385976 -0.06153184 -0.06003755
v -0.00050000 -0.06150507 -0.06018155
v -0.00050000 -0.06300580 -0.05916875
v -0.00050000 -0.06104516 -0.06063395
v -0.00050000 -0.07309955 -0.05849784
v -0.00377995 -0.07092237 -0.05839091
v -0.01736950 -0.07309383 -0.05585980
v -0.01700270 -0.07093930 -0.05602556
v -0.01140660 -0.07093262 -0.05740898
v -0.00764513 -0.06874448 -0.05803811
v -0.00575119 -0.06651526 -0.05825674
v -0.02243340 -0.07094603 -0.05409961
v -0.02273273 -0.07309234 -0.05390238
v -0.02764499 -0.07095271 -0.05164867
v -0.02787792 -0.07309025 -0.05142790
v -0.03258818 -0.07095962 -0.04869872
v -0.03275787 -0.07308828 -0.04846388
v -0.03721642 -0.07096713 -0.04528021
v -0.03732752 -0.07308661 -0.04504078
v -0.04148292 -0.07097548 -0.04142373
v -0.04154175 -0.07308536 -0.04118889
v -0.04534304 -0.07098495 -0.03716319
v -0.04535752 -0.07308471 -0.03694182
v -0.04876238 -0.07099568 -0.03254354
v -0.04874169 -0.07308471 -0.03234302
v -0.05170989 -0.07100784 -0.02761149
v -0.05166411 -0.07308536 -0.02743780
v -0.05409461 -0.07308679 -0.02227151
v -0.05415451 -0.07102149 -0.02241367
v -0.05600613 -0.07308977 -0.01689153
v -0.05607002 -0.07103675 -0.01699948
v -0.05738455 -0.07309406 -0.01135075
v -0.05849105 -0.06698745 -0.00190669
v -0.05831849 -0.06695944 -0.00574136
v -0.05828434 -0.06903779 -0.00574058
v -0.05757355 -0.06691944 -0.01142698
v -0.05426865 -0.06895440 -0.02242481
v -0.05183917 -0.06892985 -0.02762871
v -0.04890102 -0.06890678 -0.03256708
v -0.04548561 -0.06888514 -0.03719258
v -0.04162418 -0.06886476 -0.04145771
v -0.03735148 -0.06884545 -0.04531693
v -0.03271287 -0.06882709 -0.04873609
v -0.02775555 -0.06880921 -0.05168491
v -0.02252674 -0.06879162 -0.05413305
v -0.01707625 -0.06877398 -0.05605471
v -0.01145803 -0.06875634 -0.05743080
v -0.04907763 -0.06624633 -0.03259396
v -0.05197107 -0.06680953 -0.02764374
v -0.04904246 -0.06677615 -0.03258800
v -0.04566717 -0.06621026 -0.03722631
v -0.04563099 -0.06674414 -0.03721886
v -0.04574126 -0.06512105 -0.03728193
v -0.04187786 -0.06507480 -0.04156106
v -0.04180413 -0.06617534 -0.04149681
v -0.03752362 -0.06614154 -0.04535901
v -0.04176819 -0.06671351 -0.04148817
v -0.03748923 -0.06668400 -0.04534965
v -0.03287172 -0.06610858 -0.04877859
v -0.03283995 -0.06665539 -0.04876899
v -0.02789640 -0.06607615 -0.05172544
v -0.02786821 -0.06662732 -0.05171614
v -0.03759449 -0.06502932 -0.04543095
v -0.04199111 -0.06345587 -0.04185372
v -0.04585409 -0.06351572 -0.03753620
v -0.02264565 -0.06604397 -0.05416959
v -0.02262181 -0.06659948 -0.05416095
v -0.03293740 -0.06498450 -0.04885733
v -0.03770428 -0.06339639 -0.04576134
v -0.01717001 -0.06601178 -0.05608516
v -0.01715117 -0.06657159 -0.05607765
v -0.02795487 -0.06494015 -0.05181002
v -0.03304022 -0.06333732 -0.04922443
v -0.01152366 -0.06597965 -0.05745136
v -0.01151049 -0.06654375 -0.05744576
v -0.02269518 -0.06489610 -0.05425918
v -0.02804738 -0.06327897 -0.05221307
v -0.00768995 -0.06595814 -0.05805021
v -0.00768089 -0.06652504 -0.05804628
v -0.01720917 -0.06485229 -0.05617886
v -0.02277433 -0.06322127 -0.05469739
v -0.00575799 -0.06594699 -0.05826014
v -0.01155114 -0.06480896 -0.05754756
v -0.01727211 -0.06316441 -0.05665129
v -0.00577217 -0.06476563 -0.05835831
v -0.00770867 -0.06478023 -0.05814737
v -0.01159518 -0.06310880 -0.05805188
v -0.00773853 -0.06307250 -0.05867153
v -0.05456042 -0.06369382 -0.02260458
v -0.05640065 -0.06375181 -0.01713365
v -0.05767434 -0.06380873 -0.01150709
v -0.05836951 -0.06386423 -0.00578147
v 0.00619984 -0.07309734 -0.05816847
v 0.00050000 -0.07309967 -0.05849784
v 0.00572419 -0.06873816 -0.05825084
v 0.00050000 -0.06648868 -0.05850571
v 0.00575107 -0.06651526 -0.05825674
v 0.00050000 -0.06472712 -0.05861115
v 0.00575793 -0.06594699 -0.05826014
v 0.00577205 -0.06476563 -0.05835831
v 0.01155102 -0.06480896 -0.05754762
v 0.01159507 -0.06310880 -0.05805188
v 0.01727199 -0.06316441 -0.05665135
v 0.01734006 -0.06164973 -0.05748760
v 0.02285933 -0.06170403 -0.05546897
v 0.01728844 -0.06103038 -0.05800879
v 0.02324885 -0.06102168 -0.05582302
v 0.00579429 -0.06305432 -0.05889326
v 0.00050000 -0.06300580 -0.05916875
v 0.00581783 -0.06154817 -0.05985236
v 0.00050000 -0.06228047 -0.05958241
v 0.00050000 -0.06150501 -0.06018143
v 0.00050000 -0.06104725 -0.06063592
v 0.00582826 -0.06103181 -0.06033438
v 0.01164257 -0.06159776 -0.05895036
v 0.01211887 -0.06103670 -0.05934303
v 0.02658551 -0.06101596 -0.05426841
v 0.02814579 -0.06176042 -0.05291920
v 0.02277421 -0.06322127 -0.05469739
v 0.02804732 -0.06327897 -0.05221313
v 0.02269512 -0.06489610 -0.05425918
v 0.02795481 -0.06494015 -0.05181008
v 0.02264559 -0.06604397 -0.05416965
v 0.02789634 -0.06607621 -0.05172550
v 0.02786815 -0.06662732 -0.05171614
v 0.03283989 -0.06665539 -0.04876905
v 0.02775543 -0.06880921 -0.05168497
v 0.03271281 -0.06882709 -0.04873615
v 0.02787792 -0.07309025 -0.05142790
v 0.03275787 -0.07308828 -0.04846388
v 0.03735142 -0.06884545 -0.04531693
v 0.03732752 -0.07308661 -0.04504078
v 0.04162412 -0.06886476 -0.04145771
v 0.04154175 -0.07308536 -0.04118889
v 0.04548555 -0.06888514 -0.03719264
v 0.04535752 -0.07308471 -0.03694182
v 0.04890102 -0.06890678 -0.03256714
v 0.04874169 -0.07308471 -0.03234302
v 0.05183917 -0.06892985 -0.02762871
v 0.05166411 -0.07308536 -0.02743780
v 0.05426865 -0.06895440 -0.02242481
v 0.05409461 -0.07308679 -0.02227151
v 0.05616313 -0.06898057 -0.01700532
v 0.05600613 -0.07309025 -0.01689153
v 0.05750608 -0.06900840 -0.01142567
v 0.05738455 -0.07309526 -0.01135075
v 0.05821937 -0.07309931 -0.00570244
v 0.05828434 -0.06903779 -0.00574058
v 0.05849999 -0.06699997 -0.00000223
v 0.05831849 -0.06695944 -0.00574136
v 0.05832690 -0.06644856 -0.00574165
v 0.05759018 -0.06640505 -0.01142758
v 0.05834394 -0.06541281 -0.00574791
v 0.05762386 -0.06536269 -0.01144009
v 0.05836951 -0.06386423 -0.00578147
v 0.05767434 -0.06380873 -0.01150715
v 0.05839508 -0.06232851 -0.00584126
v 0.05772483 -0.06228065 -0.01162683
v 0.05777949 -0.06091034 -0.01172071
v 0.05647194 -0.06222939 -0.01731520
v 0.05646765 -0.06091904 -0.01777416
v 0.05475789 -0.06092834 -0.02303761
v 0.05464833 -0.06217521 -0.02284950
v 0.05375254 -0.06093335 -0.02551776
v 0.05227118 -0.06211835 -0.02817207
v 0.05187320 -0.06094205 -0.02944844
v 0.04936742 -0.06205952 -0.03323101
v 0.04969465 -0.06095123 -0.03323876
v 0.04957473 -0.06095176 -0.03342950
v 0.04635399 -0.06096404 -0.03801745
v 0.04596889 -0.06199938 -0.03797703
v 0.04234123 -0.06097763 -0.04265701
v 0.04210746 -0.06193864 -0.04236096
v 0.03923934 -0.06098693 -0.04564839
v 0.03781843 -0.06187814 -0.04633510
v 0.03637331 -0.06099468 -0.04805094
v 0.03314840 -0.06181859 -0.04986453
v 0.03334426 -0.06100207 -0.05027341
v 0.02982747 -0.06100970 -0.05250436
v 0.05842101 -0.06090402 -0.00588542
v 0.05850040 -0.06089997 -0.00000444
v 0.02273273 -0.07309234 -0.05390238
v 0.02252668 -0.06879162 -0.05413311
v 0.02262175 -0.06659948 -0.05416101
v 0.01716989 -0.06601178 -0.05608522
v 0.01720905 -0.06485229 -0.05617892
v 0.01736950 -0.07309412 -0.05585980
v 0.01707613 -0.06877398 -0.05605477
v 0.01715105 -0.06657159 -0.05607771
v 0.01152360 -0.06597965 -0.05745136
v 0.01184076 -0.07309567 -0.05728548
v 0.01145797 -0.06875634 -0.05743080
v 0.01151037 -0.06654375 -0.05744576
v 0.03748917 -0.06668400 -0.04534965
v 0.03287166 -0.06610858 -0.04877865
v 0.03293734 -0.06498450 -0.04885733
v 0.03304016 -0.06333732 -0.04922449
v 0.04176819 -0.06671351 -0.04148817
v 0.03752356 -0.06614154 -0.04535907
v 0.03759443 -0.06502932 -0.04543101
v 0.03770428 -0.06339639 -0.04576140
v 0.04563099 -0.06674420 -0.03721886
v 0.04904246 -0.06677615 -0.03258806
v 0.05197107 -0.06680953 -0.02764374
v 0.05438512 -0.06684446 -0.02243405
v 0.05625820 -0.06688112 -0.01700979
v 0.05757355 -0.06691944 -0.01142698
v 0.04180407 -0.06617534 -0.04149687
v 0.04187786 -0.06507480 -0.04156106
v 0.04199105 -0.06345587 -0.04185378
v 0.04566717 -0.06621026 -0.03722631
v 0.04574120 -0.06512105 -0.03728199
v 0.04585409 -0.06351572 -0.03753626
v 0.04907757 -0.06624633 -0.03259396
v 0.04914927 -0.06516802 -0.03264057
v 0.04925781 -0.06357550 -0.03285628
v 0.05200374 -0.06628382 -0.02764809
v 0.05207026 -0.06521564 -0.02768546
v 0.05217057 -0.06363499 -0.02786272
v 0.05441397 -0.06632268 -0.02243685
v 0.05447250 -0.06526398 -0.02246522
v 0.05456042 -0.06369382 -0.02260458
v 0.05628162 -0.06636303 -0.01701122
v 0.05632925 -0.06531304 -0.01703119
v 0.05640065 -0.06375181 -0.01713365
v 0.00050000 -0.06069993 -0.06050062
v 0.00050000 -0.06071847 -0.06058460
v 0.00050000 -0.06071215 -0.06055527
v 0.00050000 -0.06071215 -0.06055527
v 0.00050000 -0.06071847 -0.06058460
v 0.00050000 -0.06073856 -0.06060457
v 0.00050000 -0.06077051 -0.06065303
v 0.00050000 -0.06077760 -0.06064468
v 0.00050000 -0.06104725 -0.06063592
v 0.00050000 -0.06150501 -0.06018143
v 0.00050000 -0.06077051 -0.06065303
v 0.00050000 -0.06098598 -0.06068116
v 0.00050000 -0.06083685 -0.06069034
v 0.00050000 -0.06091231 -0.06070023
v 0.00050000 -0.06179624 -0.05968910
v 0.00050000 -0.06228047 -0.05958241
v 0.00050000 -0.06300580 -0.05916875
v 0.00050000 -0.06314730 -0.05888766
v 0.00050000 -0.06472712 -0.05861115
v 0.00050000 -0.06464904 -0.05841946
v 0.00050000 -0.06648868 -0.05850571
v 0.00050000 -0.06612396 -0.05831247
v 0.00050000 -0.06653231 -0.05831247
v 0.00050000 -0.06713247 -0.05831336
v 0.00050000 -0.06793606 -0.05831384
v 0.00050000 -0.06890791 -0.05831372
v 0.00050000 -0.07004803 -0.05831301
v 0.00050000 -0.07309967 -0.05849784
v 0.00050000 -0.07409954 -0.05831122
v 0.00050000 -0.07406854 -0.05840545
v 0.00050000 -0.07399606 -0.05847322
v 0.00050000 -0.07389998 -0.05849784
v 0.00050000 -0.06179624 -0.05968910
v 0.00000000 -0.06174772 -0.05972683
v 0.00050000 -0.06077760 -0.06064468
v -0.00050000 -0.06129068 -0.06011837
v -0.00050000 -0.06077253 -0.06065046
v 0.00050000 -0.06314730 -0.05888766
v 0.00000000 -0.06320416 -0.05886256
v -0.00050000 -0.06197810 -0.05955439
v -0.00050000 -0.06357043 -0.05871522
v 0.00000000 -0.06482499 -0.05839079
v -0.00050000 -0.06531363 -0.05833852
v -0.00050000 -0.06708163 -0.05831331
v 0.00050000 -0.06793606 -0.05831384
v 0.00000000 -0.07125169 -0.05831182
v 0.00050000 -0.06890791 -0.05831372
v 0.00050000 -0.07004803 -0.05831301
v 0.00050000 -0.06464904 -0.05841946
v 0.00050000 -0.06612396 -0.05831247
v 0.00050000 -0.06653231 -0.05831247
v 0.00050000 -0.06713247 -0.05831336
v 0.00050000 -0.07409954 -0.05831122
v -0.00050000 -0.07409954 -0.05831122
v -0.00050000 -0.07059597 -0.05831247
v -0.00050000 -0.06129068 -0.06011837
v -0.00050000 -0.06150507 -0.06018155
v -0.00050000 -0.06077253 -0.06065046
v -0.00050000 -0.06104516 -0.06063395
v -0.00050000 -0.06077253 -0.06065046
v -0.00050000 -0.06104516 -0.06063395
v -0.00050000 -0.06098455 -0.06067758
v -0.00050000 -0.06197810 -0.05955439
v -0.00050000 -0.06300580 -0.05916875
v -0.00050000 -0.06357043 -0.05871522
v -0.00050000 -0.06472718 -0.05861186
v -0.00050000 -0.06531363 -0.05833852
v -0.00050000 -0.06648868 -0.05850589
v -0.00050000 -0.06708163 -0.05831331
v -0.00050000 -0.07059597 -0.05831247
v -0.00050000 -0.07309955 -0.05849784
v -0.00050000 -0.07409954 -0.05831122
v -0.00050000 -0.07406854 -0.05840545
v -0.00050000 -0.07399606 -0.05847322
v -0.00050000 -0.07389998 -0.05849784
v -0.00050000 -0.06091213 -0.06069594
v -0.00050000 -0.06083804 -0.06068646
v -0.00050000 -0.06098455 -0.06067758
v 0.00050000 -0.07409995 0.05819994
v 0.00050000 -0.07409995 0.05829781
v 0.00050000 -0.06069999 0.05819994
v 0.00050000 -0.06069999 0.05829781
v 0.00050000 -0.07407319 0.05839782
v 0.00050000 -0.06072676 0.05839782
v 0.00050000 -0.07400000 0.05847102
v 0.00050000 -0.06079995 0.05847102
v 0.00050000 -0.06089997 0.05849784
v 0.00050000 -0.07389998 0.05849784
v -0.00050000 -0.06089997 0.05849784
v -0.00050000 -0.07389998 0.05849784
v -0.00050000 -0.06079995 0.05847102
v -0.00050000 -0.07400000 0.05847102
v -0.00050000 -0.07407319 0.05839782
v -0.00050000 -0.06072676 0.05839782
v -0.00050000 -0.07409995 0.05829781
v -0.00050000 -0.06069999 0.05829781
v -0.00050000 -0.06069999 0.05819994
v -0.00050000 -0.07409995 0.05819994
v 0.00050000 -0.07409995 0.05819994
v 0.00050000 -0.06069999 0.05819994
v -0.00050000 -0.07409995 0.05819994
v -0.00050000 -0.06069999 0.05819994
v -0.00050000 -0.06089997 0.05849784
v -0.00050000 -0.06079995 0.05847102
v -0.00657898 -0.06089997 0.05812883
v -0.00657648 -0.06079995 0.05810219
v -0.01258671 -0.06089997 0.05712985
v -0.01258128 -0.06079995 0.05710357
v -0.01845800 -0.06089997 0.05551165
v -0.01844984 -0.06079995 0.05548614
v -0.02412927 -0.06089997 0.05329185
v -0.02411836 -0.06079995 0.05326735
v -0.02953904 -0.06089997 0.05049443
v -0.02952551 -0.06079995 0.05047130
v -0.03462862 -0.06089997 0.04714977
v -0.03461271 -0.06079995 0.04712826
v -0.03932476 -0.06079995 0.04327440
v -0.03927540 -0.06072676 0.04322034
v -0.04355585 -0.06072676 0.03890299
v -0.04348111 -0.06069993 0.03883653
v -0.04728293 -0.06069993 0.03410583
v -0.00050000 -0.06072676 0.05839782
v -0.00656867 -0.06072676 0.05802935
v -0.01256591 -0.06072676 0.05703204
v -0.01842695 -0.06072676 0.05541664
v -0.02408832 -0.06072676 0.05320060
v -0.02948862 -0.06072676 0.05040806
v -0.03456932 -0.06072676 0.04706925
v -0.03920805 -0.06069993 0.04314643
v -0.00050000 -0.06069999 0.05829781
v -0.00655788 -0.06069999 0.05792993
v -0.01254475 -0.06069999 0.05693429
v -0.02404719 -0.06069999 0.05310946
v -0.02943819 -0.06069993 0.05032175
v -0.03451013 -0.06069993 0.04698866
v -0.04736423 -0.06072676 0.03416407
v -0.05057239 -0.06069993 0.02900552
v -0.05065935 -0.06072676 0.02905482
v -0.05331379 -0.06069993 0.02359086
v -0.05340546 -0.06072676 0.02363079
v -0.05547738 -0.06069999 0.01792055
v -0.05557274 -0.06072676 0.01795065
v -0.05703979 -0.06069999 0.01205599
v -0.05713778 -0.06072676 0.01207590
v -0.05798405 -0.06069999 0.00606084
v -0.05808359 -0.06072676 0.00607031
v -0.05830037 -0.06069993 0.00000000
v -0.05840039 -0.06072676 0.00000000
v -0.05815654 -0.06079995 0.00607705
v -0.05847358 -0.06079995 0.00000000
v -0.05818325 -0.06089997 0.00607896
v -0.05850040 -0.06089997 -0.00000444
v -0.05723595 -0.06089997 0.01209509
v -0.05720961 -0.06079995 0.01209032
v -0.05566829 -0.06089997 0.01798009
v -0.05564260 -0.06079995 0.01797246
v -0.05349737 -0.06089997 0.02367019
v -0.05347263 -0.06079995 0.02365988
v -0.05074656 -0.06089997 0.02910381
v -0.05072307 -0.06079995 0.02909088
v -0.04744577 -0.06089997 0.03422194
v -0.04742383 -0.06079995 0.03420656
v -0.04363077 -0.06089997 0.03896921
v -0.04361063 -0.06079995 0.03895157
v 0.00655794 -0.06069999 0.05792993
v 0.00050000 -0.06069999 0.05829781
v 0.00656873 -0.06072676 0.05802935
v 0.00050000 -0.06072676 0.05839782
v 0.00657648 -0.06079995 0.05810219
v 0.00050000 -0.06079995 0.05847102
v 0.00657898 -0.06089997 0.05812883
v 0.00050000 -0.06089997 0.05849784
v 0.01258671 -0.06089997 0.05712985
v 0.01258134 -0.06079995 0.05710357
v 0.01256597 -0.06072676 0.05703198
v 0.01254487 -0.06069999 0.05693429
v 0.01842707 -0.06072676 0.05541658
v 0.01839584 -0.06069999 0.05532157
v 0.02408844 -0.06072676 0.05320060
v 0.02404743 -0.06069999 0.05310934
v 0.02948874 -0.06072676 0.05040800
v 0.02943843 -0.06069999 0.05032163
v 0.03456950 -0.06072676 0.04706913
v 0.03451037 -0.06069999 0.04698848
v 0.03927558 -0.06072676 0.04322016
v 0.03920835 -0.06069999 0.04314613
v 0.04348140 -0.06069999 0.03883624
v 0.04355603 -0.06072676 0.03890281
v 0.04728323 -0.06069999 0.03410542
v 0.04736441 -0.06072676 0.03416383
v 0.05057263 -0.06069999 0.02900505
v 0.05065947 -0.06072676 0.02905458
v 0.05331403 -0.06069999 0.02359026
v 0.05340558 -0.06072676 0.02363049
v 0.05547761 -0.06069999 0.01791989
v 0.05557286 -0.06072676 0.01795029
v 0.05713790 -0.06072676 0.01207554
v 0.05798417 -0.06069999 0.00606006
v 0.05808365 -0.06072676 0.00606990
v 0.05830037 -0.06069993 -0.00000084
v 0.05840039 -0.06072676 0.00000000
v 0.05815654 -0.06079995 0.00607699
v 0.05847358 -0.06079995 0.00000065
v 0.05818325 -0.06089997 0.00607926
v 0.05850040 -0.06089997 -0.00000444
v 0.01845794 -0.06089997 0.05551165
v 0.01844984 -0.06079995 0.05548614
v 0.02412921 -0.06089997 0.05329185
v 0.02411842 -0.06079995 0.05326735
v 0.02953892 -0.06089997 0.05049449
v 0.02952557 -0.06079995 0.05047130
v 0.03462851 -0.06089997 0.04714983
v 0.03461271 -0.06079995 0.04712820
v 0.03934282 -0.06089997 0.04329419
v 0.03932476 -0.06079995 0.04327434
v 0.04361063 -0.06079995 0.03895151
v 0.04363065 -0.06089997 0.03896933
v 0.04742389 -0.06079995 0.03420650
v 0.04744565 -0.06089997 0.03422212
v 0.05072313 -0.06079995 0.02909082
v 0.05074644 -0.06089997 0.02910393
v 0.05347263 -0.06079995 0.02365982
v 0.05349725 -0.06089997 0.02367037
v 0.05564266 -0.06079995 0.01797240
v 0.05566823 -0.06089997 0.01798027
v 0.05720961 -0.06079995 0.01209020
v 0.05723589 -0.06089997 0.01209533
v -0.05842113 -0.06090402 -0.00588220
v -0.05850040 -0.06089997 -0.00000444
v -0.05849593 -0.06082773 -0.00343019
v -0.05847358 -0.06079995 0.00000000
v -0.05845153 -0.06075924 -0.00342929
v -0.05840039 -0.06072676 0.00000000
v -0.05838352 -0.06071418 -0.00342834
v -0.05830037 -0.06069993 0.00000000
v -0.05821770 -0.06069993 -0.00593382
v -0.05756169 -0.06069993 -0.01181739
v -0.05797678 -0.06071466 -0.00942338
v -0.05832076 -0.06071430 -0.00542969
v -0.05655747 -0.06069993 -0.01665937
v -0.05696099 -0.06071525 -0.01530337
v -0.05770438 -0.06071484 -0.01140183
v -0.05804520 -0.06076127 -0.00943166
v -0.05838900 -0.06075984 -0.00543326
v -0.05843323 -0.06082898 -0.00543559
v -0.05595403 -0.06071579 -0.01913541
v -0.05450856 -0.06069993 -0.02313673
v -0.05468374 -0.06071633 -0.02289795
v -0.05339127 -0.06069993 -0.02584958
v -0.05228632 -0.06071734 -0.02838724
v -0.05147218 -0.06069993 -0.02978420
v -0.04933869 -0.06071847 -0.03359788
v -0.04926806 -0.06069993 -0.03355288
v -0.04719239 -0.06069993 -0.03659075
v -0.04586857 -0.06071966 -0.03847062
v -0.04462987 -0.06069993 -0.03984510
v -0.04190427 -0.06072092 -0.04297083
v -0.04184055 -0.06069993 -0.04290848
v -0.03880202 -0.06069993 -0.04579645
v -0.03751116 -0.06072217 -0.04702293
v -0.03581583 -0.06069993 -0.04826188
v -0.03271067 -0.06072342 -0.05060881
v -0.03265839 -0.06069993 -0.05053079
v -0.02946352 -0.06069993 -0.05252319
v -0.02757191 -0.06072455 -0.05368268
v -0.02599722 -0.06069993 -0.05438053
v -0.02218180 -0.06072556 -0.05620425
v -0.02242547 -0.06069993 -0.05599838
v -0.01652652 -0.06069993 -0.05808168
v -0.01114392 -0.06069993 -0.05939114
v -0.01365184 -0.06072694 -0.05895107
v -0.01655453 -0.06072652 -0.05817675
v -0.02221274 -0.06081247 -0.05628007
v -0.02761000 -0.06080728 -0.05375444
v -0.02762007 -0.06092119 -0.05377352
v -0.03276944 -0.06091094 -0.05069673
v -0.02812790 -0.06101304 -0.05346220
v -0.03275358 -0.06100338 -0.05067300
v -0.01072001 -0.06072735 -0.05957400
v -0.00483572 -0.06069993 -0.06030368
v -0.00484329 -0.06072801 -0.06038504
v 0.00050000 -0.06071215 -0.06055527
v 0.00050000 -0.06073856 -0.06060457
v 0.00050000 -0.06069993 -0.06048792
v 0.00050000 -0.06069993 -0.06050062
v 0.00050000 -0.06077760 -0.06064468
v -0.00050000 -0.06077253 -0.06065046
v -0.00485098 -0.06082504 -0.06046789
v -0.00050000 -0.06083804 -0.06068646
v -0.00050000 -0.06091213 -0.06069594
v -0.00485164 -0.06095260 -0.06047540
v -0.00050000 -0.06098455 -0.06067758
v -0.00388360 -0.06103700 -0.06050902
v -0.00050000 -0.06104516 -0.06063395
v -0.00725049 -0.06103205 -0.06016713
v -0.01073706 -0.06094634 -0.05966603
v -0.01073515 -0.06082141 -0.05965554
v -0.01217371 -0.06103652 -0.05933129
v -0.01367390 -0.06094282 -0.05904352
v -0.01367110 -0.06081938 -0.05903154
v -0.01656901 -0.06103110 -0.05822610
v -0.01658177 -0.06093895 -0.05826938
v -0.01657778 -0.06081718 -0.05825591
v -0.02220433 -0.06102323 -0.05625939
v -0.02221947 -0.06093055 -0.05629658
v -0.02329796 -0.06102150 -0.05580210
v -0.03756570 -0.06099152 -0.04708963
v -0.03758043 -0.06089991 -0.04710632
v -0.03275531 -0.06080174 -0.05067551
v -0.03756183 -0.06079584 -0.04708373
v -0.04197198 -0.06097871 -0.04303705
v -0.04198324 -0.06088858 -0.04304814
v -0.04195988 -0.06078988 -0.04302525
v -0.04239356 -0.06097733 -0.04260253
v -0.04595643 -0.06087732 -0.03854036
v -0.04592853 -0.06078404 -0.03851789
v -0.04613709 -0.06096470 -0.03829640
v -0.04943412 -0.06086641 -0.03365868
v -0.04940181 -0.06077843 -0.03363811
v -0.04943066 -0.06095224 -0.03365647
v -0.05238860 -0.06093966 -0.02843904
v -0.05238795 -0.06085634 -0.02843803
v -0.05479484 -0.06092822 -0.02293980
v -0.05479013 -0.06084740 -0.02293801
v -0.05479681 -0.06092816 -0.02293455
v -0.05606275 -0.06084221 -0.01916801
v -0.05657172 -0.06091845 -0.01739811
v -0.05707150 -0.06083762 -0.01532846
v -0.05778098 -0.06091034 -0.01171207
v -0.05781608 -0.06083369 -0.01141923
v -0.05808889 -0.06083196 -0.00943696
v -0.05777281 -0.06076210 -0.01141250
v -0.05702918 -0.06076407 -0.01531887
v -0.05602180 -0.06076633 -0.01915574
v -0.05475091 -0.06076890 -0.02292323
v -0.05235189 -0.06077337 -0.02841979
v 0.00050000 -0.06104725 -0.06063592
v 0.00050000 -0.06098598 -0.06068116
v 0.00582826 -0.06103181 -0.06033438
v 0.00583291 -0.06095159 -0.06037700
v 0.01166898 -0.06094527 -0.05948579
v 0.01166677 -0.06082075 -0.05947482
v 0.01551812 -0.06081801 -0.05855667
v 0.01549607 -0.06072670 -0.05847704
v 0.01927340 -0.06072610 -0.05730259
v 0.01770597 -0.06069993 -0.05771958
v 0.02320450 -0.06069993 -0.05566942
v 0.00050000 -0.06091231 -0.06070023
v 0.00050000 -0.06083685 -0.06069034
v 0.00583202 -0.06082445 -0.06036901
v 0.00050000 -0.06077051 -0.06065303
v 0.00582307 -0.06072795 -0.06028628
v 0.00050000 -0.06071847 -0.06058460
v 0.00316030 -0.06069993 -0.06042504
v 0.00050000 -0.06069993 -0.06050062
v 0.00665057 -0.06069993 -0.06011241
v 0.01165032 -0.06072723 -0.05939364
v 0.01209801 -0.06069993 -0.05919837
v 0.02294844 -0.06072545 -0.05588501
v 0.02711302 -0.06069993 -0.05381482
v 0.02825176 -0.06072443 -0.05331593
v 0.03022867 -0.06069999 -0.05207175
v 0.03329992 -0.06072324 -0.05020892
v 0.03324687 -0.06069999 -0.05013167
v 0.03708279 -0.06069999 -0.04725676
v 0.03800600 -0.06072205 -0.04660701
v 0.03973340 -0.06069999 -0.04495537
v 0.04230457 -0.06072080 -0.04255735
v 0.04224044 -0.06069999 -0.04249578
v 0.04564684 -0.06069999 -0.03860908
v 0.04619282 -0.06071954 -0.03805661
v 0.04762595 -0.06069999 -0.03598856
v 0.04960179 -0.06071835 -0.03318071
v 0.04944795 -0.06069999 -0.03326851
v 0.05125039 -0.06069999 -0.03019738
v 0.05246728 -0.06071728 -0.02802658
v 0.05305457 -0.06069999 -0.02660071
v 0.05478817 -0.06071633 -0.02261811
v 0.05460411 -0.06069993 -0.02288478
v 0.05602365 -0.06069993 -0.01861828
v 0.05655670 -0.06071549 -0.01696264
v 0.05693250 -0.06069993 -0.01507347
v 0.05774021 -0.06071478 -0.01116800
v 0.05759471 -0.06069993 -0.01161324
v 0.05822360 -0.06069993 -0.00583851
v 0.05832600 -0.06071430 -0.00532704
v 0.05830037 -0.06069993 -0.00000084
v 0.05840039 -0.06072676 0.00000000
v 0.05839425 -0.06075978 -0.00533050
v 0.05847358 -0.06079995 0.00000065
v 0.05843847 -0.06082892 -0.00533271
v 0.05850040 -0.06089997 -0.00000444
v 0.05842101 -0.06090402 -0.00588542
v 0.05785197 -0.06083345 -0.01118493
v 0.05777949 -0.06091034 -0.01172071
v 0.05666655 -0.06083953 -0.01699095
v 0.05646765 -0.06091904 -0.01777416
v 0.05489474 -0.06084698 -0.02265763
v 0.05475789 -0.06092834 -0.02303761
v 0.05375254 -0.06093335 -0.02551776
v 0.05256932 -0.06085574 -0.02807670
v 0.05187320 -0.06094205 -0.02944844
v 0.04969775 -0.06086558 -0.03324073
v 0.04969465 -0.06095123 -0.03323876
v 0.04957473 -0.06095176 -0.03342950
v 0.04628139 -0.06087630 -0.03812557
v 0.04635399 -0.06096404 -0.03801745
v 0.04234123 -0.06097763 -0.04265701
v 0.04238450 -0.06088751 -0.04263401
v 0.03923934 -0.06098693 -0.04564839
v 0.03807634 -0.06089872 -0.04668980
v 0.03637331 -0.06099468 -0.04805094
v 0.03336000 -0.06090962 -0.05029636
v 0.03334426 -0.06100207 -0.05027341
v 0.02982747 -0.06100970 -0.05250436
v 0.02830129 -0.06091994 -0.05340647
v 0.02658551 -0.06101596 -0.05426841
v 0.02298754 -0.06092929 -0.05597722
v 0.02324885 -0.06102168 -0.05582302
v 0.01930564 -0.06093508 -0.05739521
v 0.01728844 -0.06103038 -0.05800879
v 0.01552146 -0.06094038 -0.05856966
v 0.01211887 -0.06103670 -0.05934303
v 0.01930063 -0.06081497 -0.05738025
v 0.02298039 -0.06081175 -0.05596035
v 0.02829074 -0.06080663 -0.05338710
v 0.03334528 -0.06080102 -0.05027496
v 0.03805726 -0.06079518 -0.04666715
v 0.04236066 -0.06078934 -0.04261118
v 0.04625314 -0.06078350 -0.03810316
v 0.04966515 -0.06077802 -0.03322035
v 0.05253297 -0.06077307 -0.02805876
v 0.05485540 -0.06076872 -0.02264302
v 0.05662482 -0.06076502 -0.01698005
v 0.05780869 -0.06076204 -0.01117837
v -0.00050000 -0.07409995 0.05829781
v -0.00050000 -0.07407319 0.05839782
v -0.00618070 -0.07409995 0.05797141
v -0.00668681 -0.07407319 0.05801588
v -0.01180255 -0.07409995 0.05709278
v -0.01279914 -0.07407319 0.05698013
v -0.01731193 -0.07409995 0.05567032
v -0.01876723 -0.07407319 0.05530232
v -0.02265644 -0.07409995 0.05371749
v -0.02452379 -0.07407319 0.05300128
v -0.02778512 -0.07409995 0.05125302
v -0.03000408 -0.07407319 0.05010300
v -0.03264909 -0.07409995 0.04830032
v -0.03514617 -0.07407319 0.04664009
v -0.03720211 -0.07409995 0.04488748
v -0.03989225 -0.07407319 0.04265159
v -0.04140073 -0.07409995 0.04104709
v -0.04418879 -0.07407319 0.03818249
v -0.04520493 -0.07409995 0.03681570
v -0.04798740 -0.07407319 0.03328311
v -0.04857861 -0.07409995 0.03223359
v -0.05124521 -0.07407319 0.02800863
v -0.05148947 -0.07409995 0.02734446
v -0.05392551 -0.07407319 0.02241855
v -0.05390989 -0.07409995 0.02219480
v -0.05581676 -0.07409995 0.01683378
v -0.05599820 -0.07407319 0.01657587
v -0.05719190 -0.07409995 0.01131236
v -0.05743980 -0.07407319 0.01054632
v -0.05802232 -0.07409995 0.00568318
v -0.05823415 -0.07407319 0.00439799
v -0.05829995 -0.07409995 0.00000000
v -0.05837225 -0.07407319 -0.00179988
v -0.05802232 -0.07409995 -0.00568336
v -0.05785256 -0.07407319 -0.00797748
v -0.05719190 -0.07409995 -0.01131248
v -0.05668091 -0.07407319 -0.01406520
v -0.05581670 -0.07409995 -0.01683390
v -0.05487054 -0.07407319 -0.01999449
v -0.05390983 -0.07409995 -0.02219498
v -0.05244189 -0.07407319 -0.02569836
v -0.05148941 -0.07409995 -0.02734458
v -0.04942220 -0.07407319 -0.03111273
v -0.04857850 -0.07409995 -0.03223371
v -0.04584562 -0.07407319 -0.03617644
v -0.04520487 -0.07409995 -0.03681582
v -0.04175239 -0.07407319 -0.04083245
v -0.04140061 -0.07409995 -0.04104721
v -0.03718870 -0.07407319 -0.04502838
v -0.03720200 -0.07409995 -0.04488760
v -0.03264904 -0.07409995 -0.04830038
v -0.03220593 -0.07407319 -0.04871690
v -0.02778500 -0.07409995 -0.05125308
v -0.02686017 -0.07407319 -0.05185639
v -0.02265632 -0.07409995 -0.05371755
v -0.02121180 -0.07407319 -0.05441153
v -0.01731181 -0.07409995 -0.05567032
v -0.01532435 -0.07407319 -0.05635356
v -0.01180243 -0.07409995 -0.05709284
v -0.00926423 -0.07407319 -0.05766046
v -0.00618058 -0.07409995 -0.05797141
v -0.00309968 -0.07407319 -0.05831766
v -0.00050000 -0.07409954 -0.05831122
v -0.00050000 -0.07406854 -0.05840545
v -0.00310361 -0.07400000 -0.05839073
v -0.00050000 -0.07399606 -0.05847322
v -0.00050000 -0.07389998 -0.05849784
v -0.00657880 -0.07389998 -0.05812889
v -0.00927585 -0.07400000 -0.05773276
v -0.01258635 -0.07389998 -0.05712991
v -0.01534354 -0.07400000 -0.05642420
v -0.01845747 -0.07389998 -0.05551189
v -0.02123838 -0.07400000 -0.05447977
v -0.02412855 -0.07389998 -0.05329221
v -0.02689385 -0.07400000 -0.05192142
v -0.02953815 -0.07389998 -0.05049496
v -0.03224629 -0.07399994 -0.04877793
v -0.03462767 -0.07389998 -0.04715049
v -0.03723531 -0.07399994 -0.04508483
v -0.03934186 -0.07389998 -0.04329508
v -0.04180473 -0.07399994 -0.04088366
v -0.04362970 -0.07389998 -0.03897041
v -0.04590308 -0.07399994 -0.03622180
v -0.04744476 -0.07389998 -0.03422343
v -0.04948419 -0.07399994 -0.03115171
v -0.05074560 -0.07389998 -0.02910554
v -0.05250757 -0.07399994 -0.02573060
v -0.05349647 -0.07389998 -0.02367222
v -0.05493932 -0.07400000 -0.02001953
v -0.05566757 -0.07389998 -0.01798236
v -0.05675196 -0.07400000 -0.01408284
v -0.05723541 -0.07389998 -0.01209759
v -0.05792504 -0.07400000 -0.00798750
v -0.05818295 -0.07389998 -0.00608176
v -0.05844539 -0.07400000 -0.00180215
v -0.05849999 -0.07389998 0.00000000
v -0.05830711 -0.07400000 0.00440353
v -0.05818295 -0.07389998 0.00608170
v -0.05751180 -0.07400000 0.01055955
v -0.05723541 -0.07389998 0.01209759
v -0.05606836 -0.07400000 0.01659661
v -0.05566757 -0.07389998 0.01798230
v -0.05399310 -0.07400000 0.02244669
v -0.05349647 -0.07389998 0.02367216
v -0.05130940 -0.07400000 0.02804374
v -0.05074560 -0.07389998 0.02910548
v -0.04804754 -0.07400000 0.03332483
v -0.04744476 -0.07389998 0.03422337
v -0.04424422 -0.07400000 0.03823035
v -0.04362970 -0.07389998 0.03897041
v -0.03994226 -0.07400000 0.04270505
v -0.03934186 -0.07389998 0.04329502
v -0.03519028 -0.07400000 0.04669857
v -0.03462767 -0.07389998 0.04715049
v -0.03004169 -0.07400000 0.05016577
v -0.02953815 -0.07389998 0.05049496
v -0.02455455 -0.07400000 0.05306774
v -0.02412855 -0.07389998 0.05329215
v -0.01879072 -0.07400000 0.05537164
v -0.01845747 -0.07389998 0.05551183
v -0.01281517 -0.07400000 0.05705159
v -0.00669515 -0.07400000 0.05808860
v -0.00657880 -0.07389998 0.05812883
v -0.00050000 -0.07400000 0.05847102
v -0.00050000 -0.07389998 0.05849784
v 0.00050000 -0.07409954 -0.05831122
v 0.00049988 -0.07409995 -0.05829781
v -0.00049989 -0.07409995 -0.05829781
v 0.00050000 -0.07406854 -0.05840545
v 0.00309968 -0.07407319 -0.05831766
v 0.00618058 -0.07409995 -0.05797141
v 0.00310355 -0.07400000 -0.05839073
v 0.00050000 -0.07399606 -0.05847322
v 0.00050000 -0.07389998 -0.05849784
v 0.00657880 -0.07389998 -0.05812889
v 0.00927585 -0.07400000 -0.05773276
v 0.00926423 -0.07407319 -0.05766046
v 0.01532435 -0.07407319 -0.05635356
v 0.01180243 -0.07409995 -0.05709284
v 0.01731181 -0.07409995 -0.05567032
v 0.02121180 -0.07407319 -0.05441153
v 0.02265632 -0.07409995 -0.05371755
v 0.02686017 -0.07407319 -0.05185639
v 0.02778500 -0.07409995 -0.05125308
v 0.03220587 -0.07407319 -0.04871690
v 0.03264898 -0.07409995 -0.04830038
v 0.03718870 -0.07407319 -0.04502838
v 0.03720200 -0.07409995 -0.04488760
v 0.04140061 -0.07409995 -0.04104721
v 0.04175239 -0.07407319 -0.04083245
v 0.04520487 -0.07409995 -0.03681582
v 0.04584562 -0.07407319 -0.03617644
v 0.04857850 -0.07409995 -0.03223371
v 0.04942220 -0.07407319 -0.03111273
v 0.05148941 -0.07409995 -0.02734458
v 0.05244189 -0.07407319 -0.02569836
v 0.05390983 -0.07409995 -0.02219498
v 0.05487054 -0.07407319 -0.01999449
v 0.05581670 -0.07409995 -0.01683390
v 0.05668091 -0.07407319 -0.01406520
v 0.05719190 -0.07409995 -0.01131248
v 0.05785256 -0.07407319 -0.00797748
v 0.05802232 -0.07409995 -0.00568336
v 0.05837225 -0.07407319 -0.00179988
v 0.05829995 -0.07409995 0.00000000
v 0.05823415 -0.07407319 0.00439799
v 0.05802232 -0.07409995 0.00568318
v 0.05743980 -0.07407319 0.01054632
v 0.05719190 -0.07409995 0.01131236
v 0.05599820 -0.07407319 0.01657587
v 0.05581676 -0.07409995 0.01683378
v 0.05392551 -0.07407319 0.02241855
v 0.05390989 -0.07409995 0.02219480
v 0.05148947 -0.07409995 0.02734446
v 0.05124521 -0.07407319 0.02800863
v 0.04857861 -0.07409995 0.03223359
v 0.04798740 -0.07407319 0.03328311
v 0.04520493 -0.07409995 0.03681570
v 0.04418879 -0.07407319 0.03818249
v 0.04140073 -0.07409995 0.04104709
v 0.03989225 -0.07407319 0.04265159
v 0.03720211 -0.07409995 0.04488748
v 0.03514617 -0.07407319 0.04664009
v 0.03264909 -0.07409995 0.04830032
v 0.03000408 -0.07407319 0.05010300
v 0.02778512 -0.07409995 0.05125302
v 0.02452379 -0.07407319 0.05300128
v 0.02265644 -0.07409995 0.05371749
v 0.01876723 -0.07407319 0.05530232
v 0.01731193 -0.07409995 0.05567032
v 0.01279914 -0.07407319 0.05698013
v 0.01180249 -0.07409995 0.05709278
v 0.00668681 -0.07407319 0.05801588
v 0.00618070 -0.07409995 0.05797141
v 0.00050000 -0.07407319 0.05839782
v 0.00050000 -0.07409995 0.05829781
v 0.01258635 -0.07389998 -0.05712991
v 0.01534354 -0.07400000 -0.05642420
v 0.01845747 -0.07389998 -0.05551189
v 0.02123838 -0.07400000 -0.05447977
v 0.02412855 -0.07389998 -0.05329221
v 0.02689385 -0.07400000 -0.05192142
v 0.02953815 -0.07389998 -0.05049496
v 0.03224629 -0.07400000 -0.04877793
v 0.03462767 -0.07389998 -0.04715049
v 0.03723531 -0.07400000 -0.04508483
v 0.03934186 -0.07389998 -0.04329508
v 0.04180473 -0.07400000 -0.04088366
v 0.04362970 -0.07389998 -0.03897041
v 0.04590308 -0.07400000 -0.03622180
v 0.04744476 -0.07389998 -0.03422343
v 0.04948419 -0.07400000 -0.03115171
v 0.05074560 -0.07389998 -0.02910554
v 0.05250757 -0.07400000 -0.02573060
v 0.05349647 -0.07389998 -0.02367222
v 0.05493932 -0.07400000 -0.02001953
v 0.05566757 -0.07389998 -0.01798236
v 0.05675196 -0.07400000 -0.01408284
v 0.05723541 -0.07389998 -0.01209759
v 0.05792504 -0.07400000 -0.00798750
v 0.05818295 -0.07389998 -0.00608176
v 0.05844539 -0.07400000 -0.00180215
v 0.05849999 -0.07389998 0.00000000
v 0.05830711 -0.07400000 0.00440353
v 0.05818295 -0.07389998 0.00608170
v 0.05751180 -0.07400000 0.01055955
v 0.05723541 -0.07389998 0.01209759
v 0.05606836 -0.07400000 0.01659661
v 0.05566757 -0.07389998 0.01798230
v 0.05399310 -0.07400000 0.02244669
v 0.05349647 -0.07389998 0.02367216
v 0.05130940 -0.07400000 0.02804374
v 0.05074560 -0.07389998 0.02910548
v 0.04804754 -0.07400000 0.03332483
v 0.04744476 -0.07389998 0.03422337
v 0.04424422 -0.07400000 0.03823035
v 0.04362970 -0.07389998 0.03897041
v 0.03994226 -0.07400000 0.04270505
v 0.03934186 -0.07389998 0.04329502
v 0.03519022 -0.07400000 0.04669857
v 0.03462767 -0.07389998 0.04715049
v 0.03004169 -0.07400000 0.05016577
v 0.02953815 -0.07389998 0.05049496
v 0.02455455 -0.07400000 0.05306774
v 0.02412855 -0.07389998 0.05329215
v 0.01879072 -0.07400000 0.05537164
v 0.01845747 -0.07389998 0.05551183
v 0.01281517 -0.07400000 0.05705159
v 0.00669515 -0.07400000 0.05808860
v 0.00657880 -0.07389998 0.05812883
v 0.00050000 -0.07400000 0.05847102
v 0.00050000 -0.07389998 0.05849784
f 1 2 3
f 3 2 4
f 3 4 5
f 2 6 4
f 4 6 7
f 7 6 8
f 7 8 9
f 9 8 10
f 9 10 11
f 11 10 12
f 11 12 13
f 13 12 14
f 13 14 15
f 15 14 16
f 15 16 17
f 17 16 18
f 17 18 19
f 19 18 20
f 19 20 21
f 21 20 22
f 21 22 23
f 23 22 24
f 23 24 25
f 25 24 26
f 25 26 27
f 27 26 28
f 27 28 29
f 29 28 30
f 29 30 31
f 31 30 32
f 33 34 35
f 5 36 3
f 3 36 37
f 3 37 38
f 38 37 39
f 38 39 40
f 40 41 38
f 38 41 42
f 38 42 43
f 43 44 38
f 38 44 45
f 38 45 46
f 46 47 38
f 38 47 48
f 38 48 49
f 49 50 38
f 38 50 51
f 38 51 52
f 52 53 38
f 38 53 54
f 38 54 55
f 55 56 38
f 38 56 57
f 38 57 58
f 58 59 38
f 38 59 60
f 38 60 61
f 61 62 38
f 38 62 63
f 38 63 64
f 64 65 38
f 38 65 66
f 38 66 67
f 67 68 69
f 70 71 72
f 38 73 74
f 75 76 77
f 77 76 78
f 78 76 79
f 78 79 80
f 80 79 81
f 80 81 82
f 82 81 83
f 82 83 84
f 84 83 85
f 84 85 86
f 86 85 87
f 86 87 88
f 88 87 89
f 88 89 90
f 90 89 91
f 90 91 92
f 92 91 93
f 92 93 94
f 94 93 95
f 94 95 96
f 96 95 97
f 96 97 98
f 98 97 99
f 98 99 100
f 100 99 101
f 100 101 102
f 102 101 103
f 102 103 104
f 104 103 105
f 104 105 106
f 103 107 105
f 105 107 108
f 108 107 109
f 108 109 110
f 110 109 111
f 110 111 112
f 112 111 113
f 112 113 114
f 114 113 115
f 114 115 116
f 116 115 117
f 116 117 118
f 118 117 119
f 118 119 120
f 120 119 121
f 120 121 122
f 122 121 123
f 122 123 124
f 124 123 125
f 124 125 126
f 126 125 127
f 126 127 128
f 128 127 129
f 128 129 130
f 130 129 131
f 130 131 132
f 132 131 133
f 132 133 134
f 134 133 135
f 134 135 136
f 136 135 137
f 136 137 138
f 106 139 104
f 140 141 142
f 142 141 143
f 142 143 144
f 141 145 143
f 143 145 146
f 146 145 147
f 146 147 148
f 148 147 149
f 148 149 150
f 150 151 148
f 148 151 152
f 148 152 153
f 153 152 154
f 154 152 155
f 155 152 156
f 156 152 157
f 157 152 158
f 158 152 159
f 159 152 160
f 159 160 161
f 162 163 161
f 161 163 164
f 161 164 165
f 162 166 163
f 163 166 167
f 163 167 168
f 168 169 163
f 165 170 161
f 161 170 171
f 161 171 172
f 172 173 161
f 161 173 174
f 161 174 175
f 175 176 161
f 161 176 159
f 144 177 142
f 142 177 178
f 142 178 179
f 179 178 180
f 179 180 181
f 177 182 178
f 183 184 181
f 181 184 185
f 181 185 179
f 179 185 186
f 187 188 183
f 183 188 189
f 183 189 190
f 187 191 188
f 188 191 192
f 188 192 193
f 193 194 188
f 188 194 195
f 188 195 196
f 196 197 188
f 188 197 198
f 188 198 199
f 199 200 188
f 188 200 201
f 188 201 202
f 202 201 203
f 203 201 204
f 204 201 205
f 204 205 206
f 206 207 204
f 204 207 208
f 204 208 209
f 209 210 204
f 190 211 183
f 183 211 212
f 183 212 213
f 213 214 183
f 183 214 215
f 183 215 184
f 216 217 218
f 218 217 219
f 218 219 220
f 220 219 221
f 220 221 222
f 222 221 223
f 222 223 224
f 224 223 225
f 224 225 226
f 226 225 227
f 226 227 228
f 228 227 229
f 228 229 230
f 230 229 231
f 230 231 232
f 232 231 233
f 232 233 234
f 234 233 235
f 234 235 236
f 236 235 237
f 236 237 238
f 238 237 239
f 238 239 240
f 240 239 241
f 240 241 242
f 242 241 243
f 242 243 244
f 244 243 245
f 244 245 246
f 246 245 247
f 246 247 248
f 248 247 249
f 248 249 250
f 250 249 251
f 247 252 249
f 249 252 253
f 253 252 254
f 253 254 255
f 255 254 256
f 255 256 257
f 257 256 258
f 257 258 259
f 259 258 260
f 259 260 261
f 261 260 262
f 261 262 263
f 263 262 264
f 263 264 265
f 265 264 266
f 265 266 267
f 267 266 268
f 267 268 269
f 269 268 270
f 269 270 271
f 271 270 272
f 271 272 273
f 273 272 274
f 273 274 275
f 275 274 276
f 275 276 277
f 277 276 278
f 277 278 279
f 279 278 280
f 281 282 283
f 283 282 284
f 283 284 285
f 285 284 286
f 285 286 287
f 287 286 288
f 287 288 289
f 289 288 290
f 289 290 291
f 291 290 292
f 291 292 293
f 293 292 294
f 293 294 295
f 295 294 296
f 295 296 297
f 297 296 298
f 297 298 299
f 299 298 300
f 299 300 301
f 302 303 281
f 281 303 304
f 281 304 305
f 305 304 306
f 305 306 307
f 307 306 308
f 307 308 309
f 309 308 310
f 309 310 311
f 311 310 312
f 311 312 292
f 292 312 294
f 303 302 313
f 313 302 314
f 313 314 315
f 315 314 316
f 315 316 317
f 317 316 318
f 317 318 319
f 319 318 320
f 319 320 321
f 321 320 322
f 321 322 323
f 321 323 324
f 324 323 325
f 324 325 298
f 298 325 300
f 299 301 326
f 326 301 327
f 326 327 328
f 328 327 329
f 328 329 330
f 330 329 331
f 330 331 332
f 332 331 333
f 332 333 334
f 332 334 335
f 335 334 336
f 335 336 337
f 337 336 338
f 337 338 339
f 337 339 340
f 340 339 341
f 340 341 342
f 342 341 343
f 342 343 344
f 344 343 345
f 344 345 346
f 346 345 347
f 346 347 348
f 348 347 349
f 348 349 350
f 350 349 351
f 350 351 352
f 352 351 353
f 352 353 354
f 354 353 355
f 354 355 356
f 341 357 343
f 343 357 358
f 343 358 345
f 345 358 359
f 345 359 360
f 357 361 358
f 358 361 359
f 360 347 345
f 349 362 351
f 351 362 363
f 351 363 353
f 353 363 355
f 362 355 363
f 364 365 356
f 356 365 366
f 356 366 354
f 354 366 367
f 354 367 352
f 352 367 368
f 352 368 350
f 350 368 348
f 365 364 369
f 369 364 370
f 369 370 371
f 371 370 372
f 371 372 373
f 373 372 374
f 373 374 375
f 375 374 376
f 375 376 377
f 377 376 378
f 377 378 379
f 379 378 380
f 379 380 381
f 381 380 382
f 381 382 383
f 383 382 384
f 383 384 385
f 383 385 386
f 386 385 387
f 386 387 388
f 388 387 389
f 388 389 287
f 287 389 285
f 281 390 282
f 282 390 391
f 282 391 392
f 392 391 393
f 392 393 288
f 288 393 290
f 282 392 284
f 284 392 286
f 392 288 286
f 287 289 388
f 388 289 394
f 388 394 386
f 386 394 395
f 386 395 383
f 383 395 396
f 383 396 381
f 381 396 397
f 381 397 379
f 379 397 398
f 379 398 377
f 377 398 399
f 377 399 375
f 375 399 400
f 375 400 373
f 373 400 401
f 373 401 371
f 371 401 402
f 371 402 369
f 369 402 403
f 369 403 365
f 365 403 404
f 365 404 366
f 366 404 367
f 391 390 307
f 307 390 305
f 393 391 309
f 309 391 307
f 290 393 311
f 311 393 309
f 311 292 290
f 293 405 406
f 406 405 407
f 406 407 395
f 395 407 396
f 405 408 407
f 407 408 409
f 407 409 396
f 396 409 397
f 293 295 405
f 405 295 410
f 405 410 408
f 408 410 411
f 408 411 412
f 412 411 413
f 412 413 414
f 414 413 415
f 414 415 398
f 398 415 399
f 408 412 409
f 409 412 414
f 409 414 397
f 397 414 398
f 413 416 415
f 415 416 417
f 415 417 399
f 399 417 400
f 416 418 417
f 417 418 419
f 417 419 400
f 400 419 401
f 416 413 420
f 420 413 411
f 420 411 421
f 421 411 422
f 421 422 326
f 326 422 299
f 418 423 419
f 419 423 424
f 419 424 401
f 401 424 402
f 418 416 425
f 425 416 420
f 425 420 426
f 426 420 421
f 426 421 328
f 328 421 326
f 423 427 424
f 424 427 428
f 424 428 402
f 402 428 403
f 423 418 429
f 429 418 425
f 429 425 430
f 430 425 426
f 430 426 330
f 330 426 328
f 427 431 428
f 428 431 432
f 428 432 403
f 403 432 404
f 427 423 433
f 433 423 429
f 433 429 434
f 434 429 430
f 434 430 332
f 332 430 330
f 431 435 432
f 432 435 436
f 432 436 404
f 404 436 367
f 431 427 437
f 437 427 433
f 437 433 438
f 438 433 434
f 438 434 335
f 335 434 332
f 435 439 436
f 436 439 368
f 436 368 367
f 435 431 440
f 440 431 437
f 440 437 441
f 441 437 438
f 441 438 337
f 337 438 335
f 368 439 348
f 348 439 442
f 348 442 346
f 346 442 344
f 439 435 443
f 443 435 440
f 443 440 444
f 444 440 441
f 444 441 340
f 340 441 337
f 293 406 291
f 291 406 394
f 291 394 289
f 394 406 395
f 390 281 305
f 340 342 445
f 445 342 344
f 445 344 442
f 297 299 422
f 298 296 324
f 324 296 446
f 324 446 321
f 321 446 447
f 321 447 319
f 319 447 448
f 319 448 317
f 317 448 449
f 317 449 315
f 315 449 303
f 315 303 313
f 443 444 445
f 445 444 340
f 443 445 442
f 411 410 422
f 422 410 297
f 410 295 297
f 296 294 446
f 446 294 312
f 446 312 447
f 447 312 310
f 447 310 448
f 448 310 308
f 448 308 449
f 449 308 306
f 449 306 303
f 303 306 304
f 439 443 442
f 450 451 452
f 452 451 453
f 452 453 454
f 454 453 455
f 454 455 456
f 456 455 457
f 456 457 458
f 458 457 459
f 458 459 460
f 460 459 461
f 460 461 462
f 462 461 463
f 462 463 464
f 457 455 465
f 465 455 466
f 465 466 467
f 467 466 468
f 467 468 469
f 469 470 467
f 467 470 471
f 467 471 472
f 472 471 473
f 472 473 461
f 461 473 463
f 464 474 462
f 462 474 475
f 462 475 476
f 476 475 477
f 476 477 478
f 478 477 479
f 478 479 480
f 480 479 481
f 480 481 482
f 482 481 483
f 482 483 484
f 484 483 485
f 484 485 486
f 486 485 487
f 487 485 488
f 487 488 489
f 489 488 490
f 489 490 491
f 491 490 492
f 491 492 493
f 493 492 494
f 493 494 495
f 495 494 496
f 495 496 497
f 497 496 498
f 497 498 499
f 499 498 500
f 499 500 501
f 501 500 502
f 501 502 503
f 503 502 504
f 504 502 505
f 504 505 105
f 105 505 506
f 506 505 507
f 506 507 508
f 508 507 509
f 508 509 510
f 510 509 511
f 510 511 512
f 512 511 513
f 512 513 514
f 514 513 515
f 514 515 516
f 516 515 517
f 516 517 518
f 518 517 519
f 519 517 520
f 519 520 521
f 521 520 522
f 521 522 523
f 523 522 524
f 523 524 525
f 525 524 526
f 526 524 527
f 527 524 528
f 527 528 529
f 529 528 530
f 529 530 531
f 531 530 532
f 531 532 533
f 533 532 534
f 533 534 535
f 535 534 536
f 536 534 475
f 536 475 474
f 516 537 514
f 514 537 538
f 514 538 506
f 486 539 484
f 484 539 540
f 484 540 482
f 482 540 541
f 482 541 480
f 480 541 542
f 480 542 478
f 478 542 543
f 478 543 476
f 476 543 460
f 476 460 462
f 539 544 540
f 540 544 545
f 540 545 541
f 541 545 546
f 541 546 542
f 542 546 547
f 542 547 543
f 543 547 458
f 543 458 460
f 544 548 545
f 545 548 549
f 545 549 546
f 546 549 550
f 546 550 547
f 547 550 456
f 547 456 458
f 548 450 549
f 549 450 452
f 549 452 550
f 550 452 454
f 550 454 456
f 508 510 506
f 506 510 512
f 506 512 514
f 488 485 551
f 551 485 483
f 551 483 552
f 552 483 481
f 552 481 553
f 553 481 479
f 553 479 554
f 554 479 477
f 554 477 534
f 534 477 475
f 490 488 555
f 555 488 551
f 555 551 556
f 556 551 552
f 556 552 557
f 557 552 553
f 557 553 558
f 558 553 554
f 558 554 532
f 532 554 534
f 490 555 492
f 492 555 559
f 492 559 494
f 494 559 560
f 494 560 496
f 496 560 561
f 496 561 498
f 498 561 562
f 498 562 500
f 500 562 563
f 500 563 502
f 502 563 564
f 502 564 505
f 505 564 507
f 559 555 565
f 565 555 556
f 565 556 566
f 566 556 557
f 566 557 567
f 567 557 558
f 567 558 530
f 530 558 532
f 560 559 568
f 568 559 565
f 568 565 569
f 569 565 566
f 569 566 570
f 570 566 567
f 570 567 528
f 528 567 530
f 561 560 571
f 571 560 568
f 571 568 572
f 572 568 569
f 572 569 573
f 573 569 570
f 573 570 524
f 524 570 528
f 562 561 574
f 574 561 571
f 574 571 575
f 575 571 572
f 575 572 576
f 576 572 573
f 576 573 522
f 522 573 524
f 563 562 577
f 577 562 574
f 577 574 578
f 578 574 575
f 578 575 579
f 579 575 576
f 579 576 520
f 520 576 522
f 564 563 580
f 580 563 577
f 580 577 581
f 581 577 578
f 581 578 582
f 582 578 579
f 582 579 517
f 517 579 520
f 507 564 509
f 509 564 580
f 509 580 511
f 511 580 581
f 511 581 513
f 513 581 582
f 513 582 515
f 515 582 517
f 457 465 459
f 459 465 472
f 459 472 461
f 472 465 467
f 583 584 585
f 586 587 588
f 588 587 589
f 588 589 590
f 590 589 591
f 590 591 592
f 591 593 594
f 594 593 595
f 594 595 596
f 590 592 597
f 597 592 598
f 597 598 599
f 597 599 600
f 600 599 601
f 600 601 602
f 602 601 603
f 602 603 604
f 604 603 605
f 605 603 606
f 606 603 607
f 607 603 608
f 608 603 609
f 609 603 610
f 609 610 611
f 611 610 612
f 612 610 613
f 613 610 614
f 615 616 617
f 617 616 618
f 617 618 619
f 615 620 616
f 616 620 621
f 616 621 622
f 622 621 623
f 623 621 624
f 623 624 625
f 625 624 626
f 626 624 627
f 626 627 628
f 628 627 629
f 628 629 630
f 620 631 621
f 621 631 624
f 631 632 624
f 624 632 633
f 624 633 634
f 634 627 624
f 630 635 628
f 628 635 636
f 628 636 637
f 637 626 628
f 622 618 616
f 638 639 640
f 640 639 641
f 642 643 644
f 638 645 639
f 639 645 646
f 646 645 647
f 646 647 648
f 648 647 649
f 648 649 650
f 650 649 651
f 650 651 652
f 650 652 653
f 653 652 654
f 653 654 655
f 655 656 653
f 653 656 657
f 658 659 644
f 660 659 640
f 661 662 663
f 663 662 664
f 664 662 665
f 664 665 666
f 666 665 667
f 666 667 668
f 668 667 669
f 669 667 670
f 671 672 673
f 673 672 674
f 673 674 675
f 673 675 676
f 676 675 677
f 676 677 678
f 678 677 679
f 679 677 680
f 681 682 683
f 683 682 684
f 685 686 687
f 687 686 688
f 687 688 689
f 689 688 690
f 689 690 691
f 691 690 692
f 691 692 693
f 693 692 694
f 693 694 695
f 695 694 696
f 695 696 697
f 697 696 698
f 697 698 699
f 699 698 700
f 699 700 701
f 701 700 702
f 701 702 703
f 686 704 688
f 688 704 705
f 688 705 690
f 690 705 706
f 690 706 692
f 692 706 707
f 692 707 694
f 694 707 708
f 694 708 696
f 696 708 709
f 696 709 698
f 698 709 710
f 698 710 700
f 700 710 711
f 700 711 702
f 704 712 705
f 705 712 713
f 705 713 706
f 706 713 714
f 706 714 707
f 707 714 215
f 707 215 708
f 708 215 715
f 708 715 709
f 709 715 716
f 709 716 710
f 710 716 717
f 710 717 711
f 701 703 718
f 718 703 719
f 718 719 720
f 720 719 721
f 720 721 722
f 722 721 723
f 722 723 724
f 724 723 725
f 724 725 726
f 726 725 727
f 726 727 728
f 728 727 729
f 728 729 730
f 728 730 731
f 731 730 732
f 731 732 733
f 733 732 734
f 733 735 731
f 731 735 736
f 731 736 728
f 728 736 726
f 735 737 736
f 736 737 738
f 736 738 726
f 726 738 724
f 737 739 738
f 738 739 740
f 738 740 724
f 724 740 722
f 739 741 740
f 740 741 742
f 740 742 722
f 722 742 720
f 741 743 742
f 742 743 744
f 742 744 720
f 720 744 718
f 743 745 744
f 744 745 746
f 744 746 718
f 718 746 701
f 745 265 746
f 746 265 699
f 746 699 701
f 265 697 699
f 747 748 749
f 749 748 750
f 749 750 751
f 751 750 752
f 751 752 753
f 753 752 754
f 753 755 751
f 751 755 756
f 751 756 749
f 749 756 757
f 749 757 747
f 747 757 758
f 758 757 759
f 758 759 760
f 760 759 761
f 760 761 762
f 762 761 763
f 762 763 764
f 764 763 765
f 764 765 766
f 766 765 767
f 766 767 768
f 768 767 769
f 769 767 770
f 769 770 771
f 771 770 772
f 771 772 773
f 773 772 774
f 773 774 775
f 775 774 776
f 775 776 777
f 777 776 778
f 777 778 168
f 168 778 779
f 168 779 780
f 780 779 781
f 780 781 782
f 782 781 783
f 783 781 784
f 783 784 785
f 785 784 786
f 785 786 787
f 755 788 756
f 756 788 789
f 756 789 757
f 757 789 759
f 788 790 789
f 789 790 791
f 789 791 759
f 759 791 761
f 790 792 791
f 791 792 793
f 791 793 761
f 761 793 763
f 792 794 793
f 793 794 795
f 793 795 763
f 763 795 765
f 794 796 795
f 795 796 797
f 795 797 765
f 765 797 767
f 797 796 798
f 798 796 799
f 798 799 800
f 800 799 801
f 800 801 802
f 802 801 803
f 802 803 804
f 804 803 805
f 804 805 806
f 806 805 807
f 806 807 808
f 808 807 809
f 808 809 784
f 784 809 786
f 770 767 797
f 770 797 798
f 772 770 798
f 772 798 800
f 774 772 800
f 774 800 802
f 776 774 802
f 776 802 804
f 778 776 804
f 778 804 806
f 779 778 806
f 779 806 808
f 781 779 808
f 781 808 784
f 810 811 812
f 812 811 813
f 812 813 814
f 814 813 815
f 814 815 816
f 816 815 817
f 816 817 818
f 819 820 818
f 818 820 821
f 818 821 816
f 816 821 814
f 822 823 819
f 819 823 824
f 819 824 820
f 820 824 825
f 820 825 826
f 826 825 827
f 826 827 812
f 812 827 810
f 823 822 828
f 828 822 829
f 828 829 830
f 830 829 831
f 830 831 832
f 832 831 833
f 832 833 834
f 834 833 835
f 834 835 836
f 834 836 837
f 837 836 838
f 837 838 839
f 839 838 840
f 839 840 841
f 839 841 842
f 842 841 843
f 842 843 844
f 844 843 845
f 844 845 846
f 844 846 847
f 847 846 848
f 847 848 849
f 849 848 850
f 849 850 851
f 852 853 851
f 851 853 854
f 851 854 849
f 849 854 855
f 849 855 856
f 856 855 857
f 856 857 858
f 858 857 859
f 858 859 860
f 853 852 861
f 861 852 862
f 861 862 863
f 863 862 864
f 863 864 865
f 866 867 862
f 862 867 864
f 868 869 865
f 865 869 863
f 863 869 870
f 870 869 871
f 870 871 872
f 870 872 873
f 873 872 874
f 873 874 875
f 875 874 876
f 875 877 873
f 873 877 878
f 873 878 870
f 870 878 879
f 870 879 863
f 863 879 861
f 877 880 878
f 878 880 881
f 878 881 879
f 879 881 882
f 879 882 861
f 861 882 853
f 880 883 881
f 881 883 884
f 881 884 882
f 882 884 885
f 882 885 853
f 853 885 854
f 883 886 884
f 884 886 887
f 884 887 885
f 885 887 855
f 885 855 854
f 886 888 887
f 887 888 857
f 887 857 855
f 888 859 857
f 860 889 858
f 858 889 890
f 858 890 891
f 891 890 892
f 891 892 844
f 844 892 842
f 889 893 890
f 890 893 894
f 890 894 892
f 892 894 895
f 892 895 842
f 842 895 839
f 893 896 894
f 894 896 897
f 894 897 895
f 895 897 898
f 895 898 839
f 839 898 837
f 896 899 897
f 897 899 900
f 897 900 898
f 898 900 901
f 898 901 837
f 837 901 834
f 899 902 900
f 900 902 903
f 900 903 904
f 904 903 905
f 904 905 906
f 906 905 907
f 906 907 908
f 908 907 909
f 908 909 910
f 910 909 911
f 910 911 912
f 912 911 913
f 912 913 914
f 914 913 825
f 914 825 824
f 911 810 913
f 913 810 827
f 913 827 825
f 910 912 915
f 915 912 914
f 915 914 823
f 823 914 824
f 908 910 916
f 916 910 915
f 916 915 828
f 828 915 823
f 906 908 917
f 917 908 916
f 917 916 830
f 830 916 828
f 901 900 904
f 904 906 918
f 918 906 917
f 918 917 832
f 832 917 830
f 856 858 891
f 812 814 826
f 826 814 821
f 826 821 820
f 834 901 918
f 918 901 904
f 834 918 832
f 844 847 891
f 891 847 856
f 847 849 856
f 919 920 921
f 921 920 922
f 921 922 923
f 923 922 924
f 923 924 925
f 925 924 926
f 925 926 927
f 927 926 928
f 927 928 929
f 920 930 922
f 922 930 931
f 922 931 932
f 932 931 933
f 932 933 934
f 934 933 935
f 934 935 936
f 936 935 937
f 936 938 934
f 934 938 939
f 934 939 932
f 932 939 924
f 932 924 922
f 938 940 939
f 939 940 926
f 939 926 924
f 940 928 926
f 927 929 941
f 941 929 942
f 941 942 943
f 943 942 944
f 943 944 945
f 945 944 946
f 945 946 947
f 945 947 948
f 948 947 949
f 948 949 950
f 950 949 951
f 950 951 952
f 950 952 953
f 953 952 954
f 953 954 955
f 955 954 956
f 955 956 957
f 955 957 958
f 958 957 959
f 958 959 960
f 960 959 961
f 960 961 962
f 960 962 963
f 963 962 964
f 963 964 965
f 965 964 966
f 965 966 967
f 965 967 968
f 968 967 969
f 968 969 970
f 968 970 971
f 971 970 972
f 971 972 973
f 973 972 974
f 973 974 975
f 973 975 976
f 976 975 977
f 976 977 978
f 978 977 979
f 978 979 980
f 980 979 981
f 980 981 982
f 980 982 983
f 983 982 984
f 983 984 985
f 985 984 986
f 985 986 987
f 985 987 988
f 988 987 989
f 988 989 990
f 988 990 991
f 991 990 992
f 991 992 993
f 993 992 994
f 993 994 995
f 995 994 996
f 995 996 997
f 995 997 998
f 998 997 999
f 998 999 1000
f 1000 999 1001
f 1000 1001 1002
f 1002 1001 1003
f 1002 1003 1004
f 1004 1003 1005
f 1004 1005 923
f 923 1005 921
f 923 925 1004
f 1004 925 1006
f 1004 1006 1002
f 1002 1006 1007
f 1002 1007 1000
f 1000 1007 1008
f 1000 1008 998
f 998 1008 1009
f 998 1009 995
f 995 1009 1010
f 995 1010 993
f 993 1010 1011
f 993 1011 991
f 991 1011 1012
f 991 1012 988
f 988 1012 1013
f 988 1013 985
f 985 1013 1014
f 985 1014 983
f 983 1014 1015
f 983 1015 980
f 980 1015 1016
f 980 1016 978
f 978 1016 1017
f 978 1017 976
f 976 1017 971
f 976 971 973
f 925 927 1006
f 1006 927 941
f 1006 941 1007
f 1007 941 943
f 1007 943 1008
f 1008 943 945
f 1008 945 1009
f 1009 945 948
f 1009 948 1010
f 1010 948 950
f 1010 950 1011
f 1011 950 953
f 1011 953 1012
f 1012 953 955
f 1012 955 1013
f 1013 955 958
f 1013 958 1014
f 1014 958 960
f 1014 960 1015
f 1015 960 963
f 1015 963 1016
f 1016 963 965
f 1016 965 1017
f 1017 965 968
f 1017 968 971
f 1018 1019 1020
f 1020 1019 1021
f 1020 1021 1022
f 1022 1021 1023
f 1022 1023 1024
f 1024 1023 1025
f 1024 1025 1026
f 1026 1025 1027
f 1026 1027 1028
f 1028 1027 1029
f 1028 1029 1030
f 1030 1029 1031
f 1030 1031 1032
f 1032 1031 1033
f 1032 1033 1034
f 1034 1033 1035
f 1034 1035 1036
f 1036 1035 1037
f 1036 1037 1038
f 1038 1037 1039
f 1038 1039 1040
f 1040 1039 1041
f 1040 1041 1042
f 1042 1041 1043
f 1043 1041 1044
f 1043 1044 1045
f 1045 1044 1046
f 1045 1046 1047
f 1047 1046 1048
f 1047 1048 1049
f 1049 1048 1050
f 1049 1050 1051
f 1051 1050 1052
f 1051 1052 1053
f 1053 1052 1054
f 1053 1054 1055
f 1055 1054 1056
f 1055 1056 1057
f 1057 1056 1058
f 1057 1058 1059
f 1059 1058 1060
f 1059 1060 1061
f 1061 1060 1062
f 1061 1062 1063
f 1063 1062 1064
f 1063 1064 1065
f 1065 1064 1066
f 1065 1066 1067
f 1067 1066 1068
f 1068 1066 1069
f 1068 1069 1070
f 1070 1069 1071
f 1070 1071 1072
f 1072 1071 1073
f 1072 1073 1074
f 1074 1073 1075
f 1074 1075 1076
f 1076 1075 1077
f 1076 1077 1078
f 1078 1077 1079
f 1078 1079 1080
f 1080 1079 1081
f 1081 1079 1082
f 1081 1082 1083
f 1083 1082 1084
f 1084 1082 1085
f 1085 1082 1086
f 1085 1086 1087
f 1087 1086 1088
f 1087 1088 1089
f 1089 1088 1090
f 1089 1090 1091
f 1091 1090 1092
f 1091 1092 1093
f 1093 1092 1094
f 1093 1094 1095
f 1095 1094 1096
f 1095 1096 1097
f 1097 1096 1098
f 1097 1098 1099
f 1099 1098 1100
f 1099 1100 1101
f 1101 1100 1102
f 1101 1102 1103
f 1103 1102 1104
f 1103 1104 1105
f 1105 1104 1106
f 1105 1106 1107
f 1107 1106 1108
f 1107 1108 1109
f 1109 1108 1110
f 1109 1110 1111
f 1111 1110 1112
f 1111 1112 1113
f 1113 1112 1114
f 1113 1114 1115
f 1115 1114 1116
f 1115 1116 1117
f 1117 1116 1118
f 1117 1118 1119
f 1119 1118 1120
f 1119 1120 1121
f 1121 1120 1122
f 1121 1122 1123
f 1123 1122 1124
f 1123 1124 1125
f 1125 1124 1126
f 1125 1126 1127
f 1127 1126 1128
f 1127 1128 1129
f 1129 1128 1130
f 1129 1130 1131
f 1131 1130 1132
f 1131 1132 1133
f 1133 1132 1134
f 1133 1134 1135
f 1135 1134 1136
f 1135 1136 1137
f 1137 1136 1138
f 1137 1138 276
f 276 1138 1139
f 276 1139 1140
f 1140 1139 1141
f 1140 1141 1142
f 1021 1019 1139
f 1139 1019 1141
f 1143 1144 1080
f 1080 1144 1145
f 1080 1145 1078
f 1146 1147 1143
f 1143 1147 1148
f 1143 1148 1144
f 1147 1146 1149
f 1149 1146 1150
f 1149 1150 1151
f 1151 1152 1149
f 1149 1152 1153
f 1149 1153 1154
f 1154 1153 1155
f 1154 1155 1156
f 1156 1155 1157
f 1157 1155 1158
f 1157 1158 1159
f 1159 1158 1160
f 1159 1160 1161
f 1161 1160 1162
f 1161 1162 1163
f 1163 1162 1164
f 1163 1164 1165
f 1165 1164 1166
f 1166 1164 1167
f 1166 1167 1168
f 1168 1167 1169
f 1168 1169 1170
f 1170 1169 1171
f 1170 1171 1172
f 1172 1171 1173
f 1172 1173 1174
f 1174 1173 1175
f 1174 1175 1176
f 1176 1175 1177
f 1176 1177 1178
f 1178 1177 1179
f 1178 1179 1180
f 1180 1179 1181
f 1180 1181 1182
f 1182 1181 1183
f 1182 1183 1184
f 1184 1183 1185
f 1184 1185 1186
f 1186 1185 1187
f 1186 1187 1188
f 1188 1187 1189
f 1188 1189 1190
f 1190 1189 1191
f 1191 1189 1192
f 1191 1192 1193
f 1193 1192 1194
f 1193 1194 1195
f 1195 1194 1196
f 1195 1196 1197
f 1197 1196 1198
f 1197 1198 1199
f 1199 1198 1200
f 1199 1200 1201
f 1201 1200 1202
f 1201 1202 1203
f 1203 1202 1204
f 1203 1204 1205
f 1205 1204 1206
f 1205 1206 1207
f 1207 1206 1208
f 1207 1208 1209
f 1209 1208 1210
f 1209 1210 1211
f 1211 1210 1212
f 1211 1212 1213
f 1152 1214 1153
f 1153 1214 1215
f 1153 1215 1155
f 1155 1215 1158
f 1214 1216 1215
f 1215 1216 1217
f 1215 1217 1158
f 1158 1217 1160
f 1216 1218 1217
f 1217 1218 1219
f 1217 1219 1160
f 1160 1219 1162
f 1218 1220 1219
f 1219 1220 1221
f 1219 1221 1162
f 1162 1221 1164
f 1220 1222 1221
f 1221 1222 1223
f 1221 1223 1164
f 1164 1223 1167
f 1222 1224 1223
f 1223 1224 1225
f 1223 1225 1167
f 1167 1225 1169
f 1224 1226 1225
f 1225 1226 1227
f 1225 1227 1169
f 1169 1227 1171
f 1226 1228 1227
f 1227 1228 1229
f 1227 1229 1171
f 1171 1229 1173
f 1228 1230 1229
f 1229 1230 1231
f 1229 1231 1173
f 1173 1231 1175
f 1230 1232 1231
f 1231 1232 1233
f 1231 1233 1175
f 1175 1233 1177
f 1232 1234 1233
f 1233 1234 1235
f 1233 1235 1177
f 1177 1235 1179
f 1234 1236 1235
f 1235 1236 1237
f 1235 1237 1179
f 1179 1237 1181
f 1236 1238 1237
f 1237 1238 1239
f 1237 1239 1181
f 1181 1239 1183
f 1238 1240 1239
f 1239 1240 1241
f 1239 1241 1183
f 1183 1241 1185
f 1240 1242 1241
f 1241 1242 1243
f 1241 1243 1185
f 1185 1243 1187
f 1242 1244 1243
f 1243 1244 1245
f 1243 1245 1187
f 1187 1245 1189
f 1244 1246 1245
f 1245 1246 1247
f 1245 1247 1189
f 1189 1247 1192
f 1246 1248 1247
f 1247 1248 1249
f 1247 1249 1192
f 1192 1249 1194
f 1248 1250 1249
f 1249 1250 1251
f 1249 1251 1194
f 1194 1251 1196
f 1250 1252 1251
f 1251 1252 1253
f 1251 1253 1196
f 1196 1253 1198
f 1252 1254 1253
f 1253 1254 1255
f 1253 1255 1198
f 1198 1255 1200
f 1254 1256 1255
f 1255 1256 1257
f 1255 1257 1200
f 1200 1257 1202
f 1256 1258 1257
f 1257 1258 1259
f 1257 1259 1202
f 1202 1259 1204
f 1258 1260 1259
f 1259 1260 1261
f 1259 1261 1204
f 1204 1261 1206
f 1260 1262 1261
f 1261 1262 1263
f 1261 1263 1206
f 1206 1263 1208
f 1262 1264 1263
f 1263 1264 1265
f 1263 1265 1208
f 1208 1265 1210
f 1264 79 1265
f 1265 79 1266
f 1265 1266 1210
f 1210 1266 1212
f 79 1267 1266
f 1266 1267 1268
f 1266 1268 1212
f 1267 1269 1268
f 1156 1148 1154
f 1154 1148 1147
f 1154 1147 1149
f 1023 1021 1139
f 1025 1023 1138
f 1138 1023 1139
f 1027 1025 1136
f 1136 1025 1138
f 1029 1027 1134
f 1134 1027 1136
f 1031 1029 1132
f 1132 1029 1134
f 1033 1031 1130
f 1130 1031 1132
f 1035 1033 1128
f 1128 1033 1130
f 1037 1035 1126
f 1126 1035 1128
f 1039 1037 1124
f 1124 1037 1126
f 1041 1039 1122
f 1122 1039 1124
f 1044 1041 1120
f 1120 1041 1122
f 1046 1044 1118
f 1118 1044 1120
f 1048 1046 1116
f 1116 1046 1118
f 1050 1048 1114
f 1114 1048 1116
f 1052 1050 1112
f 1112 1050 1114
f 1054 1052 1110
f 1110 1052 1112
f 1056 1054 1108
f 1108 1054 1110
f 1058 1056 1106
f 1106 1056 1108
f 1060 1058 1104
f 1104 1058 1106
f 1062 1060 1102
f 1102 1060 1104
f 1064 1062 1100
f 1100 1062 1102
f 1066 1064 1098
f 1098 1064 1100
f 1069 1066 1096
f 1096 1066 1098
f 1071 1069 1094
f 1094 1069 1096
f 1073 1071 1092
f 1092 1071 1094
f 1075 1073 1090
f 1090 1073 1092
f 1077 1075 1088
f 1088 1075 1090
f 1079 1077 1086
f 1086 1077 1088
f 1082 1079 1086

