# https://github.com/mikedh/trimesh
v 0.03060221 0.02512103 -0.04723960
v 0.03060221 0.02512103 -0.04723960
v 0.02799582 0.02800077 -0.04723709
v 0.02799582 0.02800077 -0.04723709
v 0.03060221 0.02512103 -0.04723960
v 0.02795523 0.02795821 -0.04755449
v 0.02799582 0.02800077 -0.04723709
v 0.02795523 0.02795821 -0.04755449
v 0.02507930 0.03056502 -0.04755192
v 0.02507930 0.03056502 -0.04755192
v 0.02795523 0.02795821 -0.04755449
v 0.02507340 0.03055197 -0.04764997
v 0.02507930 0.03056502 -0.04755192
v 0.02507340 0.03055197 -0.04764997
v 0.02195781 0.03286421 -0.04764997
v 0.03817814 0.01023113 -0.04764997
v 0.03817814 0.01023113 -0.04764997
v 0.03818815 0.01023411 -0.04756391
v 0.03818815 0.01023411 -0.04756391
v 0.03817814 0.01023113 -0.04764997
v 0.03651219 0.01512485 -0.04764997
v 0.03818815 0.01023411 -0.04756391
v 0.03651219 0.01512485 -0.04764997
v 0.03652149 0.01512897 -0.04756110
v 0.03652149 0.01512897 -0.04756110
v 0.03651219 0.01512485 -0.04764997
v 0.03485381 0.01863062 -0.04764997
v 0.03652149 0.01512897 -0.04756110
v 0.03485381 0.01863062 -0.04764997
v 0.03486132 0.01863896 -0.04755961
v 0.03486132 0.01863896 -0.04755961
v 0.03485381 0.01863062 -0.04764997
v 0.03286439 0.02195298 -0.04764997
v 0.03486132 0.01863896 -0.04755961
v 0.03286439 0.02195298 -0.04764997
v 0.03286916 0.02196860 -0.04755854
v 0.03286916 0.02196860 -0.04755854
v 0.03286439 0.02195298 -0.04764997
v 0.03055685 0.02506780 -0.04764997
v 0.03286916 0.02196860 -0.04755854
v 0.03055685 0.02506780 -0.04764997
v 0.03055953 0.02508437 -0.04755681
v 0.03055953 0.02508437 -0.04755681
v 0.03055685 0.02506780 -0.04764997
v 0.02794629 0.02794861 -0.04764997
v 0.03055953 0.02508437 -0.04755681
v 0.02794629 0.02794861 -0.04764997
v 0.02795523 0.02795821 -0.04755449
v 0.02795523 0.02795821 -0.04755449
v 0.02794629 0.02794861 -0.04764997
v 0.02507340 0.03055197 -0.04764997
v 0.02507930 0.03056502 -0.04755192
v 0.02195781 0.03286421 -0.04764997
v 0.02196282 0.03287875 -0.04754972
v 0.02196282 0.03287875 -0.04754972
v 0.02195781 0.03286421 -0.04764997
v 0.01863247 0.03486090 -0.04764997
v 0.02196282 0.03287875 -0.04754972
v 0.01863247 0.03486090 -0.04764997
v 0.01863700 0.03487676 -0.04754829
v 0.01863700 0.03487676 -0.04754829
v 0.01863247 0.03486090 -0.04764997
v 0.01512682 0.03652143 -0.04764997
v 0.01863700 0.03487676 -0.04754829
v 0.01512682 0.03652143 -0.04764997
v 0.01513326 0.03653746 -0.04754692
v 0.01513326 0.03653746 -0.04754692
v 0.01512682 0.03652143 -0.04764997
v 0.01023489 0.03820168 -0.04754471
v 0.01513326 0.03653746 -0.04754692
v 0.01023489 0.03820168 -0.04754471
v 0.01516002 0.03660386 -0.04722851
v 0.01516002 0.03660386 -0.04722851
v 0.01023489 0.03820168 -0.04754471
v 0.01025336 0.03827369 -0.04722619
v 0.01516002 0.03660386 -0.04722851
v 0.01025336 0.03827369 -0.04722619
v 0.01025336 0.03827369 -0.04722619
v 0.00517070 0.03928548 -0.04722422
v 0.00517070 0.03928548 -0.04722422
v 0.00516135 0.03921037 -0.04754287
v 0.00516135 0.03921037 -0.04754287
v 0.00517070 0.03928548 -0.04722422
v 0.01025336 0.03827369 -0.04722619
v 0.00516135 0.03921037 -0.04754287
v 0.01025336 0.03827369 -0.04722619
v 0.01023489 0.03820168 -0.04754471
v 0.01512682 0.03652143 -0.04764997
v 0.01023042 0.03818398 -0.04764997
v 0.01023489 0.03820168 -0.04754471
v 0.01023489 0.03820168 -0.04754471
v 0.01023042 0.03818398 -0.04764997
v 0.00515908 0.03919178 -0.04764997
v 0.01023489 0.03820168 -0.04754471
v 0.00515908 0.03919178 -0.04764997
v 0.00516135 0.03921037 -0.04754287
v 0.00516135 0.03921037 -0.04754287
v 0.00515908 0.03919178 -0.04764997
v 0.00249690 0.03945052 -0.04764997
v 0.00516135 0.03921037 -0.04754287
v 0.00249690 0.03945052 -0.04764997
v 0.00249690 0.03945052 -0.04764997
v 0.00000000 0.03952926 -0.04764997
v 0.01516002 0.03660386 -0.04722851
v 0.01516002 0.03660386 -0.04722851
v 0.01866906 0.03493714 -0.04723018
v 0.01516002 0.03660386 -0.04722851
v 0.01866906 0.03493714 -0.04723018
v 0.01513326 0.03653746 -0.04754692
v 0.01513326 0.03653746 -0.04754692
v 0.01866906 0.03493714 -0.04723018
v 0.01863700 0.03487676 -0.04754829
v 0.01866906 0.03493714 -0.04723018
v 0.01866906 0.03493714 -0.04723018
v 0.02199828 0.03293281 -0.04723191
v 0.01866906 0.03493714 -0.04723018
v 0.02199828 0.03293281 -0.04723191
v 0.01863700 0.03487676 -0.04754829
v 0.01863700 0.03487676 -0.04754829
v 0.02199828 0.03293281 -0.04723191
v 0.02196282 0.03287875 -0.04754972
v 0.02199828 0.03293281 -0.04723191
v 0.02199828 0.03293281 -0.04723191
v 0.02511733 0.03061336 -0.04723435
v 0.02199828 0.03293281 -0.04723191
v 0.02511733 0.03061336 -0.04723435
v 0.02196282 0.03287875 -0.04754972
v 0.02196282 0.03287875 -0.04754972
v 0.02511733 0.03061336 -0.04723435
v 0.02507930 0.03056502 -0.04755192
v 0.02511733 0.03061336 -0.04723435
v 0.02511733 0.03061336 -0.04723435
v 0.02799582 0.02800077 -0.04723709
v 0.02511733 0.03061336 -0.04723435
v 0.02799582 0.02800077 -0.04723709
v 0.02507930 0.03056502 -0.04755192
v 0.03823417 0.01024782 -0.04724723
v 0.03823417 0.01024782 -0.04724723
v 0.03823417 0.01024782 -0.04724723
v 0.03818815 0.01023411 -0.04756391
v 0.03818815 0.01023411 -0.04756391
v 0.03656601 0.01514834 -0.04724436
v 0.03656601 0.01514834 -0.04724436
v 0.03823417 0.01024782 -0.04724723
v 0.03656601 0.01514834 -0.04724436
v 0.03823417 0.01024782 -0.04724723
v 0.03652149 0.01512897 -0.04756110
v 0.03652149 0.01512897 -0.04756110
v 0.03823417 0.01024782 -0.04724723
v 0.03818815 0.01023411 -0.04756391
v 0.03490573 0.01866292 -0.04724264
v 0.03490573 0.01866292 -0.04724264
v 0.03656601 0.01514834 -0.04724436
v 0.03490573 0.01866292 -0.04724264
v 0.03656601 0.01514834 -0.04724436
v 0.03486132 0.01863896 -0.04755961
v 0.03486132 0.01863896 -0.04755961
v 0.03656601 0.01514834 -0.04724436
v 0.03652149 0.01512897 -0.04756110
v 0.03291326 0.02199870 -0.04724144
v 0.03291326 0.02199870 -0.04724144
v 0.03490573 0.01866292 -0.04724264
v 0.03291326 0.02199870 -0.04724144
v 0.03490573 0.01866292 -0.04724264
v 0.03286916 0.02196860 -0.04755854
v 0.03286916 0.02196860 -0.04755854
v 0.03490573 0.01866292 -0.04724264
v 0.03486132 0.01863896 -0.04755961
v 0.02799582 0.02800077 -0.04723709
v 0.00517070 0.03928548 -0.04722422
v 0.00517070 0.03928548 -0.04722422
v 0.01025336 0.03827369 -0.04722619
v 0.03291326 0.02199870 -0.04724144
v 0.03060221 0.02512103 -0.04723960
v 0.03060221 0.02512103 -0.04723960
v 0.03291326 0.02199870 -0.04724144
v 0.03055953 0.02508437 -0.04755681
v 0.03060221 0.02512103 -0.04723960
v 0.03055953 0.02508437 -0.04755681
v 0.02795523 0.02795821 -0.04755449
v 0.03055953 0.02508437 -0.04755681
v 0.03291326 0.02199870 -0.04724144
v 0.03286916 0.02196860 -0.04755854
v 0.00000000 0.03952926 -0.04764997
v 0.00000000 0.03952926 -0.04764997
v -0.00249690 0.03945052 -0.04764997
v -0.00249690 0.03945052 -0.04764997
v -0.00517070 0.03928548 -0.04722422
v -0.00517070 0.03928548 -0.04722422
v -0.00249690 0.03945052 -0.04764997
v -0.00516135 0.03921037 -0.04754287
v -0.00517070 0.03928548 -0.04722422
v -0.00516135 0.03921037 -0.04754287
v -0.01023489 0.03820168 -0.04754471
v -0.01023489 0.03820168 -0.04754471
v -0.00516135 0.03921037 -0.04754287
v -0.01023042 0.03818398 -0.04764997
v -0.01023489 0.03820168 -0.04754471
v -0.01023042 0.03818398 -0.04764997
v -0.01512682 0.03652143 -0.04764997
v -0.00249690 0.03945052 -0.04764997
v -0.00515908 0.03919178 -0.04764997
v -0.00516135 0.03921037 -0.04754287
v -0.00516135 0.03921037 -0.04754287
v -0.00515908 0.03919178 -0.04764997
v -0.01023042 0.03818398 -0.04764997
v -0.01023489 0.03820168 -0.04754471
v -0.01512682 0.03652143 -0.04764997
v -0.01513326 0.03653746 -0.04754692
v -0.01513326 0.03653746 -0.04754692
v -0.01512682 0.03652143 -0.04764997
v -0.01863247 0.03486090 -0.04764997
v -0.01513326 0.03653746 -0.04754692
v -0.01863247 0.03486090 -0.04764997
v -0.01863700 0.03487676 -0.04754829
v -0.01863700 0.03487676 -0.04754829
v -0.01863247 0.03486090 -0.04764997
v -0.02195781 0.03286421 -0.04764997
v -0.01863700 0.03487676 -0.04754829
v -0.02195781 0.03286421 -0.04764997
v -0.02196282 0.03287875 -0.04754972
v -0.02196282 0.03287875 -0.04754972
v -0.02195781 0.03286421 -0.04764997
v -0.02507340 0.03055197 -0.04764997
v -0.02196282 0.03287875 -0.04754972
v -0.02507340 0.03055197 -0.04764997
v -0.02507930 0.03056502 -0.04755192
v -0.02507930 0.03056502 -0.04755192
v -0.02507340 0.03055197 -0.04764997
v -0.02795523 0.02795821 -0.04755449
v -0.02507930 0.03056502 -0.04755192
v -0.02795523 0.02795821 -0.04755449
v -0.02511733 0.03061336 -0.04723435
v -0.02511733 0.03061336 -0.04723435
v -0.02795523 0.02795821 -0.04755449
v -0.02799582 0.02800077 -0.04723709
v -0.02511733 0.03061336 -0.04723435
v -0.02799582 0.02800077 -0.04723709
v -0.02799582 0.02800077 -0.04723709
v -0.03490573 0.01866292 -0.04724264
v -0.03490573 0.01866292 -0.04724264
v -0.03656601 0.01514834 -0.04724436
v -0.03656601 0.01514834 -0.04724436
v -0.03490573 0.01866292 -0.04724264
v -0.03652149 0.01512897 -0.04756110
v -0.03656601 0.01514834 -0.04724436
v -0.03652149 0.01512897 -0.04756110
v -0.03818815 0.01023411 -0.04756391
v -0.03818815 0.01023411 -0.04756391
v -0.03652149 0.01512897 -0.04756110
v -0.03817814 0.01023113 -0.04764997
v -0.03818815 0.01023411 -0.04756391
v -0.03817814 0.01023113 -0.04764997
v -0.02507340 0.03055197 -0.04764997
v -0.02794629 0.02794861 -0.04764997
v -0.02795523 0.02795821 -0.04755449
v -0.02795523 0.02795821 -0.04755449
v -0.02794629 0.02794861 -0.04764997
v -0.03055953 0.02508437 -0.04755681
v -0.02795523 0.02795821 -0.04755449
v -0.03055953 0.02508437 -0.04755681
v -0.02799582 0.02800077 -0.04723709
v -0.02799582 0.02800077 -0.04723709
v -0.03055953 0.02508437 -0.04755681
v -0.03060221 0.02512103 -0.04723960
v -0.02799582 0.02800077 -0.04723709
v -0.03060221 0.02512103 -0.04723960
v -0.03060221 0.02512103 -0.04723960
v -0.02794629 0.02794861 -0.04764997
v -0.03055685 0.02506780 -0.04764997
v -0.03055953 0.02508437 -0.04755681
v -0.03055953 0.02508437 -0.04755681
v -0.03055685 0.02506780 -0.04764997
v -0.03286916 0.02196860 -0.04755854
v -0.03055953 0.02508437 -0.04755681
v -0.03286916 0.02196860 -0.04755854
v -0.03060221 0.02512103 -0.04723960
v -0.03060221 0.02512103 -0.04723960
v -0.03286916 0.02196860 -0.04755854
v -0.03291326 0.02199870 -0.04724144
v -0.03060221 0.02512103 -0.04723960
v -0.03291326 0.02199870 -0.04724144
v -0.03291326 0.02199870 -0.04724144
v -0.03055685 0.02506780 -0.04764997
v -0.03286439 0.02195298 -0.04764997
v -0.03286916 0.02196860 -0.04755854
v -0.03286916 0.02196860 -0.04755854
v -0.03286439 0.02195298 -0.04764997
v -0.03485381 0.01863062 -0.04764997
v -0.03286916 0.02196860 -0.04755854
v -0.03485381 0.01863062 -0.04764997
v -0.03486132 0.01863896 -0.04755961
v -0.03486132 0.01863896 -0.04755961
v -0.03485381 0.01863062 -0.04764997
v -0.03652149 0.01512897 -0.04756110
v -0.03486132 0.01863896 -0.04755961
v -0.03652149 0.01512897 -0.04756110
v -0.03490573 0.01866292 -0.04724264
v -0.03485381 0.01863062 -0.04764997
v -0.03651219 0.01512485 -0.04764997
v -0.03652149 0.01512897 -0.04756110
v -0.03652149 0.01512897 -0.04756110
v -0.03651219 0.01512485 -0.04764997
v -0.03817814 0.01023113 -0.04764997
v -0.03823417 0.01024782 -0.04724723
v -0.03823417 0.01024782 -0.04724723
v -0.03823417 0.01024782 -0.04724723
v -0.02511733 0.03061336 -0.04723435
v -0.02511733 0.03061336 -0.04723435
v -0.02199828 0.03293281 -0.04723191
v -0.02511733 0.03061336 -0.04723435
v -0.02199828 0.03293281 -0.04723191
v -0.02507930 0.03056502 -0.04755192
v -0.02507930 0.03056502 -0.04755192
v -0.02199828 0.03293281 -0.04723191
v -0.02196282 0.03287875 -0.04754972
v -0.02199828 0.03293281 -0.04723191
v -0.02199828 0.03293281 -0.04723191
v -0.01866906 0.03493714 -0.04723018
v -0.02199828 0.03293281 -0.04723191
v -0.01866906 0.03493714 -0.04723018
v -0.02196282 0.03287875 -0.04754972
v -0.02196282 0.03287875 -0.04754972
v -0.01866906 0.03493714 -0.04723018
v -0.01863700 0.03487676 -0.04754829
v -0.01866906 0.03493714 -0.04723018
v -0.01866906 0.03493714 -0.04723018
v -0.01516002 0.03660386 -0.04722851
v -0.01866906 0.03493714 -0.04723018
v -0.01516002 0.03660386 -0.04722851
v -0.01863700 0.03487676 -0.04754829
v -0.01863700 0.03487676 -0.04754829
v -0.01516002 0.03660386 -0.04722851
v -0.01513326 0.03653746 -0.04754692
v -0.01516002 0.03660386 -0.04722851
v -0.01516002 0.03660386 -0.04722851
v -0.01025336 0.03827369 -0.04722619
v -0.01516002 0.03660386 -0.04722851
v -0.01025336 0.03827369 -0.04722619
v -0.01513326 0.03653746 -0.04754692
v -0.01513326 0.03653746 -0.04754692
v -0.01025336 0.03827369 -0.04722619
v -0.01023489 0.03820168 -0.04754471
v -0.01025336 0.03827369 -0.04722619
v -0.01025336 0.03827369 -0.04722619
v -0.00517070 0.03928548 -0.04722422
v -0.01025336 0.03827369 -0.04722619
v -0.00517070 0.03928548 -0.04722422
v -0.01023489 0.03820168 -0.04754471
v -0.03818815 0.01023411 -0.04756391
v -0.03656601 0.01514834 -0.04724436
v -0.03818815 0.01023411 -0.04756391
v -0.03823417 0.01024782 -0.04724723
v -0.03823417 0.01024782 -0.04724723
v -0.03818815 0.01023411 -0.04756391
v -0.03291326 0.02199870 -0.04724144
v -0.03286916 0.02196860 -0.04755854
v -0.03486132 0.01863896 -0.04755961
v -0.03291326 0.02199870 -0.04724144
v -0.03486132 0.01863896 -0.04755961
v -0.03490573 0.01866292 -0.04724264
v -0.03656601 0.01514834 -0.04724436
v -0.03656601 0.01514834 -0.04724436
v -0.03823417 0.01024782 -0.04724723
v -0.03291326 0.02199870 -0.04724144
v -0.03490573 0.01866292 -0.04724264
v 0.03785538 0.01036965 -0.04764997
v 0.03817814 0.01023113 -0.04764997
v 0.03651219 0.01512485 -0.04764997
v 0.03613549 0.01532274 -0.04764997
v 0.03485381 0.01863062 -0.04764997
v 0.03377074 0.02000242 -0.04764997
v 0.03286439 0.02195298 -0.04764997
v 0.03080332 0.02432513 -0.04764997
v 0.03055685 0.02506780 -0.04764997
v 0.02728629 0.02821379 -0.04764997
v 0.02794629 0.02794861 -0.04764997
v 0.02507340 0.03055197 -0.04764997
v 0.02328228 0.03159898 -0.04764997
v 0.02195781 0.03286421 -0.04764997
v 0.01886278 0.03442025 -0.04764997
v 0.01863247 0.03486090 -0.04764997
v 0.01512682 0.03652143 -0.04764997
v 0.01410675 0.03662729 -0.04764997
v 0.01023042 0.03818398 -0.04764997
v 0.00909889 0.03818076 -0.04764997
v 0.00515908 0.03919178 -0.04764997
v 0.00392872 0.03905284 -0.04764997
v 0.00249690 0.03945052 -0.04764997
v -0.00131148 0.03922808 -0.04764997
v 0.00000000 0.03952926 -0.04764997
v -0.00249690 0.03945052 -0.04764997
v -0.00515908 0.03919178 -0.04764997
v -0.00652838 0.03870326 -0.04764997
v -0.01023042 0.03818398 -0.04764997
v -0.01162880 0.03748774 -0.04764997
v -0.01512682 0.03652143 -0.04764997
v -0.01652169 0.03560328 -0.04764997
v -0.01863247 0.03486090 -0.04764997
v -0.02111971 0.03308349 -0.04764997
v -0.02195781 0.03286421 -0.04764997
v -0.02534085 0.02997332 -0.04764997
v -0.02507340 0.03055197 -0.04764997
v -0.02794629 0.02794861 -0.04764997
v -0.02910983 0.02632826 -0.04764997
v -0.03055685 0.02506780 -0.04764997
v -0.03235930 0.02221339 -0.04764997
v -0.03286439 0.02195298 -0.04764997
v -0.03485381 0.01863062 -0.04764997
v -0.03503131 0.01770210 -0.04764997
v -0.03651219 0.01512485 -0.04764997
v -0.03707826 0.01287496 -0.04764997
v -0.03817814 0.01023113 -0.04764997
v -0.03707826 0.01287496 -0.04764997
v -0.03707826 0.01287496 -0.04764997
v -0.03707826 0.01287496 -0.04764997
v -0.03503131 0.01770210 -0.04764997
v -0.03503131 0.01770210 -0.04764997
v -0.03503131 0.01770210 -0.04764997
v -0.03235930 0.02221339 -0.04764997
v -0.03235930 0.02221339 -0.04764997
v -0.03235930 0.02221339 -0.04764997
v -0.02910983 0.02632826 -0.04764997
v -0.02910983 0.02632826 -0.04764997
v -0.02910983 0.02632826 -0.04764997
v -0.02534085 0.02997332 -0.04764997
v -0.02534085 0.02997332 -0.04764997
v -0.02534085 0.02997332 -0.04764997
v -0.02111971 0.03308349 -0.04764997
v -0.02111971 0.03308349 -0.04764997
v -0.02111971 0.03308349 -0.04764997
v -0.01652169 0.03560328 -0.04764997
v -0.01652169 0.03560328 -0.04764997
v -0.01652169 0.03560328 -0.04764997
v -0.01162880 0.03748774 -0.04764997
v -0.01162880 0.03748774 -0.04764997
v -0.01162880 0.03748774 -0.04764997
v -0.00652838 0.03870326 -0.04764997
v -0.00652838 0.03870326 -0.04764997
v -0.00652838 0.03870326 -0.04764997
v -0.00131148 0.03922808 -0.04764997
v -0.00131148 0.03922808 -0.04764997
v -0.00131148 0.03922808 -0.04764997
v 0.00392872 0.03905284 -0.04764997
v 0.00392872 0.03905284 -0.04764997
v 0.00392872 0.03905284 -0.04764997
v 0.00909889 0.03818076 -0.04764997
v 0.00909889 0.03818076 -0.04764997
v 0.00909889 0.03818076 -0.04764997
v 0.01410675 0.03662729 -0.04764997
v 0.01410675 0.03662729 -0.04764997
v 0.01410675 0.03662729 -0.04764997
v 0.01886278 0.03442025 -0.04764997
v 0.01886278 0.03442025 -0.04764997
v 0.01886278 0.03442025 -0.04764997
v 0.02328228 0.03159898 -0.04764997
v 0.02328228 0.03159898 -0.04764997
v 0.02328228 0.03159898 -0.04764997
v 0.02728629 0.02821379 -0.04764997
v 0.02728629 0.02821379 -0.04764997
v 0.02728629 0.02821379 -0.04764997
v 0.03080332 0.02432513 -0.04764997
v 0.03080332 0.02432513 -0.04764997
v 0.03080332 0.02432513 -0.04764997
v 0.03377074 0.02000242 -0.04764997
v 0.03377074 0.02000242 -0.04764997
v 0.03377074 0.02000242 -0.04764997
v 0.03613549 0.01532274 -0.04764997
v 0.03613549 0.01532274 -0.04764997
v 0.03613549 0.01532274 -0.04764997
v 0.03785538 0.01036965 -0.04764997
v 0.03785538 0.01036965 -0.04764997
v 0.03785538 0.01036965 -0.04764997
v 0.03824301 0.01000000 -0.04756404
v 0.03823328 0.01000000 -0.04764219
v 0.03830655 0.01000000 -0.04718080
v 0.03829223 0.01000000 -0.04724737
v 0.03824759 0.01000000 -0.04753448
v -0.03823216 0.01000000 -0.04764997
v -0.03824187 0.01000000 -0.04757190
v -0.03829223 0.01000000 -0.04724737
v -0.03824301 0.01000000 -0.04756404
v -0.03828742 0.01000000 -0.04727836
v 0.03823216 0.01000000 -0.04764997
v 0.03798217 0.01000000 -0.04764997
v -0.03786578 0.01000000 -0.04764997
v -0.03820547 0.01000000 -0.04764997
v -0.03786578 0.01000000 -0.04764997
v 0.03794347 0.01000000 -0.04851918
v 0.03823328 0.01000000 -0.04764219
v 0.03823216 0.01000000 -0.04764997
v 0.03830655 0.01000000 -0.04718080
v 0.03829223 0.01000000 -0.04724737
v 0.03824759 0.01000000 -0.04753448
v 0.03824301 0.01000000 -0.04756404
v -0.03828742 0.01000000 -0.04727836
v -0.03829223 0.01000000 -0.04724737
v -0.03824187 0.01000000 -0.04757190
v -0.03824301 0.01000000 -0.04756404
v 0.03798217 0.01000000 -0.04764997
v 0.03793051 0.01000000 -0.04764997
v -0.03820547 0.01000000 -0.04764997
v -0.03823216 0.01000000 -0.04764997
v 0.03793051 0.01000000 -0.04764997
v 0.03794347 0.01000000 -0.04851918
v -0.03546379 0.01677017 -0.05000000
v -0.03670900 0.01383369 -0.05000000
v -0.03291212 0.02134741 -0.05000000
v -0.03453758 0.01860307 -0.05000000
v -0.02977312 0.02554369 -0.05000000
v -0.03174986 0.02304050 -0.05000000
v -0.02610282 0.02928416 -0.05000000
v -0.02839560 0.02706677 -0.05000000
v -0.02196673 0.03250205 -0.05000000
v -0.02453456 0.03061005 -0.05000000
v -0.01743863 0.03513992 -0.05000000
v -0.02023573 0.03360706 -0.05000000
v -0.01259934 0.03715073 -0.05000000
v -0.01557582 0.03600436 -0.05000000
v -0.00753518 0.03849861 -0.05000000
v -0.01063790 0.03775918 -0.05000000
v -0.00233658 0.03915944 -0.05000000
v -0.00551016 0.03884018 -0.05000000
v 0.00290362 0.03912148 -0.05000000
v -0.00028414 0.03922808 -0.05000000
v 0.00809209 0.03838541 -0.05000000
v 0.00494693 0.03891592 -0.05000000
v 0.01313620 0.03696430 -0.05000000
v 0.01008978 0.03790932 -0.05000000
v 0.01794584 0.03488361 -0.05000000
v 0.01505262 0.03622621 -0.05000000
v 0.02243526 0.03218042 -0.05000000
v 0.01974676 0.03389668 -0.05000000
v 0.02652431 0.02890295 -0.05000000
v 0.02408857 0.03096225 -0.05000000
v 0.03014003 0.02510970 -0.05000000
v 0.02800052 0.02747528 -0.05000000
v 0.03321792 0.02086840 -0.05000000
v 0.03141275 0.02349802 -0.05000000
v 0.03570301 0.01625467 -0.05000000
v 0.03426447 0.01910145 -0.05000000
v 0.03755100 0.01135091 -0.05000000
v 0.03650475 0.01436401 -0.05000000
v 0.03769376 0.01082976 -0.05000000
v 0.03755100 0.01135091 -0.05000000
v -0.03747455 0.01155815 -0.05000000
v -0.03790137 0.01000000 -0.05000000
v -0.03670900 0.01383369 -0.05000000
v -0.03738264 0.01189370 -0.05000000
v -0.03453758 0.01860307 -0.05000000
v -0.03546379 0.01677017 -0.05000000
v -0.03174986 0.02304050 -0.05000000
v -0.03291212 0.02134741 -0.05000000
v -0.02839560 0.02706677 -0.05000000
v -0.02977312 0.02554369 -0.05000000
v -0.02453456 0.03061005 -0.05000000
v -0.02610282 0.02928416 -0.05000000
v -0.02023573 0.03360706 -0.05000000
v -0.02196673 0.03250205 -0.05000000
v -0.01557582 0.03600436 -0.05000000
v -0.01743863 0.03513992 -0.05000000
v -0.01063790 0.03775918 -0.05000000
v -0.01259934 0.03715073 -0.05000000
v -0.00551016 0.03884018 -0.05000000
v -0.00753518 0.03849861 -0.05000000
v -0.00028414 0.03922808 -0.05000000
v -0.00233658 0.03915944 -0.05000000
v 0.00494693 0.03891592 -0.05000000
v 0.00290362 0.03912148 -0.05000000
v 0.01008978 0.03790932 -0.05000000
v 0.00809209 0.03838541 -0.05000000
v 0.01505262 0.03622621 -0.05000000
v 0.01313620 0.03696430 -0.05000000
v 0.01974676 0.03389668 -0.05000000
v 0.01794584 0.03488361 -0.05000000
v 0.02408857 0.03096225 -0.05000000
v 0.02243526 0.03218042 -0.05000000
v 0.02800052 0.02747528 -0.05000000
v 0.02652431 0.02890295 -0.05000000
v 0.03141275 0.02349802 -0.05000000
v 0.03014003 0.02510970 -0.05000000
v 0.03426447 0.01910145 -0.05000000
v 0.03321792 0.02086840 -0.05000000
v 0.03650475 0.01436401 -0.05000000
v 0.03570301 0.01625467 -0.05000000
v -0.03738264 0.01189370 -0.05000000
v -0.03747455 0.01155815 -0.05000000
v 0.03792105 0.01000000 -0.05000000
v 0.03769376 0.01082976 -0.05000000
v 0.02897795 0.02700969 -0.04700000
v 0.03065074 0.02516210 -0.04700000
v 0.01197188 0.03776973 -0.04700000
v 0.01518909 0.03667540 -0.04700000
v 0.00334517 0.03954826 -0.04700000
v 0.00422361 0.03944760 -0.04700000
v 0.00151317 0.03973420 -0.04700000
v 0.00334517 0.03954826 -0.04700000
v -0.00000013 0.03978192 -0.04700000
v 0.00151317 0.03973420 -0.04700000
v 0.01641350 0.03609089 -0.04700000
v 0.01870424 0.03500323 -0.04700000
v 0.01987240 0.03429660 -0.04700000
v 0.02203810 0.03299317 -0.04700000
v 0.02313915 0.03217037 -0.04700000
v 0.02516065 0.03066769 -0.04700000
v 0.02618534 0.02973314 -0.04700000
v 0.02804209 0.02804858 -0.04700000
v 0.03722954 0.01336352 -0.04700000
v 0.03828548 0.01026270 -0.04700000
v 0.03556309 0.01740200 -0.04700000
v 0.03661755 0.01517046 -0.04700000
v 0.03368853 0.02081394 -0.04700000
v 0.03495706 0.01869054 -0.04700000
v 0.00692785 0.03901632 -0.04700000
v 0.01027340 0.03835079 -0.04700000
v 0.03148711 0.02402708 -0.04700000
v 0.03296357 0.02203282 -0.04700000
v -0.00412021 0.03949303 -0.04700000
v -0.00312241 0.03952450 -0.04700000
v -0.00518094 0.03936599 -0.04700000
v -0.00412021 0.03949303 -0.04700000
v -0.02701174 0.02898829 -0.04700000
v -0.02516065 0.03066769 -0.04700000
v -0.03600956 0.01646315 -0.04700000
v -0.03495706 0.01869054 -0.04700000
v -0.02971006 0.02620635 -0.04700000
v -0.02804209 0.02804858 -0.04700000
v -0.03212425 0.02317184 -0.04700000
v -0.03065074 0.02516210 -0.04700000
v -0.02405441 0.03149438 -0.04700000
v -0.02203810 0.03299317 -0.04700000
v -0.02086646 0.03370191 -0.04700000
v -0.01870424 0.03500323 -0.04700000
v -0.01747602 0.03558956 -0.04700000
v -0.01518909 0.03667540 -0.04700000
v -0.01348214 0.03725936 -0.04700000
v -0.01027340 0.03835079 -0.04700000
v -0.00851861 0.03870204 -0.04700000
v -0.00518094 0.03936599 -0.04700000
v -0.03766989 0.01208029 -0.04700000
v -0.03661755 0.01517046 -0.04700000
v -0.03423063 0.01991188 -0.04700000
v -0.03296357 0.02203282 -0.04700000
v -0.03832207 0.01010660 -0.04700000
v -0.03828548 0.01026270 -0.04700000
v 0.03831028 0.01015613 -0.04700000
v 0.03834660 0.01000000 -0.04700000
v 0.03065074 0.02516210 -0.04700000
v 0.03148711 0.02402708 -0.04700000
v 0.01027340 0.03835079 -0.04700000
v 0.01197188 0.03776973 -0.04700000
v 0.00422361 0.03944760 -0.04700000
v 0.00518094 0.03936599 -0.04700000
v 0.01518909 0.03667540 -0.04700000
v 0.01641350 0.03609089 -0.04700000
v 0.01870424 0.03500323 -0.04700000
v 0.01987240 0.03429660 -0.04700000
v 0.02203810 0.03299317 -0.04700000
v 0.02313915 0.03217037 -0.04700000
v 0.02516065 0.03066769 -0.04700000
v 0.02618534 0.02973314 -0.04700000
v 0.03661755 0.01517046 -0.04700000
v 0.03722954 0.01336352 -0.04700000
v 0.03495706 0.01869054 -0.04700000
v 0.03556309 0.01740200 -0.04700000
v 0.03296357 0.02203282 -0.04700000
v 0.03368853 0.02081394 -0.04700000
v 0.02804209 0.02804858 -0.04700000
v 0.02897795 0.02700969 -0.04700000
v 0.00518094 0.03936599 -0.04700000
v 0.00692785 0.03901632 -0.04700000
v -0.00312241 0.03952450 -0.04700000
v -0.00000013 0.03978192 -0.04700000
v -0.02804209 0.02804858 -0.04700000
v -0.02701174 0.02898829 -0.04700000
v -0.03495706 0.01869054 -0.04700000
v -0.03423063 0.01991188 -0.04700000
v -0.03065074 0.02516210 -0.04700000
v -0.02971006 0.02620635 -0.04700000
v -0.03296357 0.02203282 -0.04700000
v -0.03212425 0.02317184 -0.04700000
v -0.03828548 0.01026270 -0.04700000
v -0.03766989 0.01208029 -0.04700000
v -0.02516065 0.03066769 -0.04700000
v -0.02405441 0.03149438 -0.04700000
v -0.02203810 0.03299317 -0.04700000
v -0.02086646 0.03370191 -0.04700000
v -0.01870424 0.03500323 -0.04700000
v -0.01747602 0.03558956 -0.04700000
v -0.01518909 0.03667540 -0.04700000
v -0.01348214 0.03725936 -0.04700000
v -0.01027340 0.03835079 -0.04700000
v -0.00851861 0.03870204 -0.04700000
v -0.03661755 0.01517046 -0.04700000
v -0.03600956 0.01646315 -0.04700000
v 0.03828548 0.01026270 -0.04700000
v 0.03831028 0.01015613 -0.04700000
v -0.03834706 0.01000000 -0.04700000
v -0.03832207 0.01010660 -0.04700000
v 0.03905642 0.00645137 -0.04724937
v 0.03905642 0.00645137 -0.04724937
v 0.03924494 0.00516981 -0.04725015
v 0.03905642 0.00645137 -0.04724937
v 0.03924494 0.00516981 -0.04725015
v 0.03901028 0.00644237 -0.04756605
v 0.03901028 0.00644237 -0.04756605
v 0.03924494 0.00516981 -0.04725015
v 0.03919970 0.00516254 -0.04756677
v 0.03901028 0.00644237 -0.04756605
v 0.03919970 0.00516254 -0.04756677
v 0.03876674 0.00771260 -0.04764997
v 0.03876674 0.00771260 -0.04764997
v 0.03919970 0.00516254 -0.04756677
v 0.03943526 0.00258583 -0.04764997
v 0.03943526 0.00258583 -0.04764997
v 0.03919970 0.00516254 -0.04756677
v 0.03934353 0.00387675 -0.04756772
v 0.03943526 0.00258583 -0.04764997
v 0.03934353 0.00387675 -0.04756772
v 0.03944426 0.00258672 -0.04756855
v 0.03944426 0.00258672 -0.04756855
v 0.03934353 0.00387675 -0.04756772
v 0.03948181 0.00259018 -0.04725223
v 0.03944426 0.00258672 -0.04756855
v 0.03948181 0.00259018 -0.04725223
v 0.03951710 -0.00128967 -0.04725444
v 0.03951710 -0.00128967 -0.04725444
v 0.03948181 0.00259018 -0.04725223
v 0.03951710 -0.00128967 -0.04725444
v 0.03924494 0.00516981 -0.04725015
v 0.03924494 0.00516981 -0.04725015
v 0.03938525 0.00388217 -0.04725122
v 0.03924494 0.00516981 -0.04725015
v 0.03938525 0.00388217 -0.04725122
v 0.03919970 0.00516254 -0.04756677
v 0.03919970 0.00516254 -0.04756677
v 0.03938525 0.00388217 -0.04725122
v 0.03934353 0.00387675 -0.04756772
v 0.03637772 -0.01542299 -0.04725259
v 0.03637772 -0.01542299 -0.04725259
v 0.03523409 -0.01792234 -0.04725062
v 0.03637772 -0.01542299 -0.04725259
v 0.03523409 -0.01792234 -0.04725062
v 0.03636437 -0.01541632 -0.04756855
v 0.03636437 -0.01541632 -0.04756855
v 0.03523409 -0.01792234 -0.04725062
v 0.03521418 -0.01791149 -0.04756706
v 0.03636437 -0.01541632 -0.04756855
v 0.03521418 -0.01791149 -0.04756706
v 0.03535795 -0.01763111 -0.04764997
v 0.03535795 -0.01763111 -0.04764997
v 0.03521418 -0.01791149 -0.04756706
v 0.03389477 -0.02031737 -0.04764997
v 0.03389477 -0.02031737 -0.04764997
v 0.03521418 -0.01791149 -0.04756706
v 0.03389877 -0.02032017 -0.04756528
v 0.03389477 -0.02031737 -0.04764997
v 0.03389877 -0.02032017 -0.04756528
v 0.03356307 -0.02087455 -0.04756486
v 0.03356307 -0.02087455 -0.04756486
v 0.03389877 -0.02032017 -0.04756528
v 0.03359252 -0.02089571 -0.04724788
v 0.03356307 -0.02087455 -0.04756486
v 0.03359252 -0.02089571 -0.04724788
v 0.03289490 -0.02199274 -0.04724669
v 0.03289490 -0.02199274 -0.04724669
v 0.03359252 -0.02089571 -0.04724788
v 0.03289490 -0.02199274 -0.04724669
v 0.03523409 -0.01792234 -0.04725062
v 0.03523409 -0.01792234 -0.04725062
v 0.03392714 -0.02033865 -0.04724836
v 0.03523409 -0.01792234 -0.04725062
v 0.03392714 -0.02033865 -0.04724836
v 0.03521418 -0.01791149 -0.04756706
v 0.03521418 -0.01791149 -0.04756706
v 0.03392714 -0.02033865 -0.04724836
v 0.03389877 -0.02032017 -0.04756528
v 0.02149099 -0.03338330 -0.04714417
v 0.02149099 -0.03338330 -0.04714417
v 0.01874166 -0.03509855 -0.04711085
v 0.02149099 -0.03338330 -0.04714417
v 0.01874166 -0.03509855 -0.04711085
v 0.02142250 -0.03326874 -0.04747098
v 0.02142250 -0.03326874 -0.04747098
v 0.01874166 -0.03509855 -0.04711085
v 0.01866698 -0.03494465 -0.04744416
v 0.02142250 -0.03326874 -0.04747098
v 0.01866698 -0.03494465 -0.04744416
v 0.02144682 -0.03320044 -0.04764997
v 0.02144682 -0.03320044 -0.04764997
v 0.01866698 -0.03494465 -0.04744416
v 0.01863861 -0.03488337 -0.04764997
v 0.01863861 -0.03488337 -0.04764997
v 0.01866698 -0.03494465 -0.04744416
v 0.01751494 -0.03555911 -0.04743248
v 0.01863861 -0.03488337 -0.04764997
v 0.01751494 -0.03555911 -0.04743248
v 0.01512598 -0.03656613 -0.04764997
v 0.01512598 -0.03656613 -0.04764997
v 0.01751494 -0.03555911 -0.04743248
v 0.01515263 -0.03666794 -0.04740494
v 0.01512598 -0.03656613 -0.04764997
v 0.01515263 -0.03666794 -0.04740494
v 0.01272404 -0.03761351 -0.04736822
v 0.01272404 -0.03761351 -0.04736822
v 0.01515263 -0.03666794 -0.04740494
v 0.01278614 -0.03787982 -0.04702597
v 0.01272404 -0.03761351 -0.04736822
v 0.01278614 -0.03787982 -0.04702597
v 0.01278614 -0.03787982 -0.04702597
v 0.01521998 -0.03688758 -0.04706585
v 0.01521998 -0.03688758 -0.04706585
v 0.01278614 -0.03787982 -0.04702597
v 0.01521998 -0.03688758 -0.04706585
v 0.01278614 -0.03787982 -0.04702597
v 0.01515263 -0.03666794 -0.04740494
v 0.01278614 -0.03787982 -0.04702597
v 0.00258380 -0.03969091 -0.04716157
v 0.00258380 -0.03969091 -0.04716157
v 0.00000000 -0.03953570 -0.04764997
v 0.00258380 -0.03969091 -0.04716157
v 0.00000000 -0.03953570 -0.04764997
v 0.00514901 -0.03921180 -0.04764997
v 0.01022040 -0.03822654 -0.04764997
v 0.00771588 -0.03899943 -0.04726380
v 0.00514901 -0.03921180 -0.04764997
v 0.00514901 -0.03921180 -0.04764997
v 0.00771588 -0.03899943 -0.04726380
v 0.00515944 -0.03943282 -0.04720634
v 0.00514901 -0.03921180 -0.04764997
v 0.00515944 -0.03943282 -0.04720634
v 0.00258380 -0.03969091 -0.04716157
v 0.00258380 -0.03969091 -0.04716157
v 0.00515944 -0.03943282 -0.04720634
v 0.01512598 -0.03656613 -0.04764997
v 0.01272404 -0.03761351 -0.04736822
v 0.01022040 -0.03822654 -0.04764997
v 0.01022040 -0.03822654 -0.04764997
v 0.01272404 -0.03761351 -0.04736822
v 0.01024121 -0.03839194 -0.04732048
v 0.01022040 -0.03822654 -0.04764997
v 0.01024121 -0.03839194 -0.04732048
v 0.00771588 -0.03899943 -0.04726380
v 0.00771588 -0.03899943 -0.04726380
v 0.01024121 -0.03839194 -0.04732048
v 0.00771588 -0.03899943 -0.04726380
v 0.02144682 -0.03320044 -0.04764997
v 0.02404671 -0.03135323 -0.04764997
v 0.02142250 -0.03326874 -0.04747098
v 0.02142250 -0.03326874 -0.04747098
v 0.02404671 -0.03135323 -0.04764997
v 0.02406108 -0.03137862 -0.04750055
v 0.02142250 -0.03326874 -0.04747098
v 0.02406108 -0.03137862 -0.04750055
v 0.02149099 -0.03338330 -0.04714417
v 0.02149099 -0.03338330 -0.04714417
v 0.02406108 -0.03137862 -0.04750055
v 0.02411746 -0.03146779 -0.04717946
v 0.02149099 -0.03338330 -0.04714417
v 0.02411746 -0.03146779 -0.04717946
v 0.02411746 -0.03146779 -0.04717946
v 0.02404671 -0.03135323 -0.04764997
v 0.02793097 -0.02794808 -0.04764997
v 0.02406108 -0.03137862 -0.04750055
v 0.02406108 -0.03137862 -0.04750055
v 0.02793097 -0.02794808 -0.04764997
v 0.02793961 -0.02796250 -0.04753923
v 0.02406108 -0.03137862 -0.04750055
v 0.02793961 -0.02796250 -0.04753923
v 0.02411746 -0.03146779 -0.04717946
v 0.02411746 -0.03146779 -0.04717946
v 0.02793961 -0.02796250 -0.04753923
v 0.02798259 -0.02802246 -0.04722291
v 0.02411746 -0.03146779 -0.04717946
v 0.02798259 -0.02802246 -0.04722291
v 0.02798259 -0.02802246 -0.04722291
v 0.02793097 -0.02794808 -0.04764997
v 0.03134781 -0.02406519 -0.04764997
v 0.02793961 -0.02796250 -0.04753923
v 0.02793961 -0.02796250 -0.04753923
v 0.03134781 -0.02406519 -0.04764997
v 0.03135484 -0.02407354 -0.04755932
v 0.02793961 -0.02796250 -0.04753923
v 0.03135484 -0.02407354 -0.04755932
v 0.02798259 -0.02802246 -0.04722291
v 0.02798259 -0.02802246 -0.04722291
v 0.03135484 -0.02407354 -0.04755932
v 0.03138971 -0.02411091 -0.04724299
v 0.02798259 -0.02802246 -0.04722291
v 0.03138971 -0.02411091 -0.04724299
v 0.03138971 -0.02411091 -0.04724299
v 0.03135484 -0.02407354 -0.04755932
v 0.03134781 -0.02406519 -0.04764997
v 0.03286331 -0.02196609 -0.04756361
v 0.03286331 -0.02196609 -0.04756361
v 0.03134781 -0.02406519 -0.04764997
v 0.03389477 -0.02031737 -0.04764997
v 0.03286331 -0.02196609 -0.04756361
v 0.03389477 -0.02031737 -0.04764997
v 0.03356307 -0.02087455 -0.04756486
v 0.03535795 -0.01763111 -0.04764997
v 0.03653120 -0.01502531 -0.04764997
v 0.03636437 -0.01541632 -0.04756855
v 0.03636437 -0.01541632 -0.04756855
v 0.03653120 -0.01502531 -0.04764997
v 0.03734296 -0.01284909 -0.04756975
v 0.03636437 -0.01541632 -0.04756855
v 0.03734296 -0.01284909 -0.04756975
v 0.03637772 -0.01542299 -0.04725259
v 0.03637772 -0.01542299 -0.04725259
v 0.03734296 -0.01284909 -0.04756975
v 0.03735268 -0.01285314 -0.04725408
v 0.03637772 -0.01542299 -0.04725259
v 0.03735268 -0.01285314 -0.04725408
v 0.03735268 -0.01285314 -0.04725408
v 0.03653120 -0.01502531 -0.04764997
v 0.03744870 -0.01254141 -0.04764997
v 0.03734296 -0.01284909 -0.04756975
v 0.03734296 -0.01284909 -0.04756975
v 0.03744870 -0.01254141 -0.04764997
v 0.03814494 -0.01022118 -0.04757052
v 0.03734296 -0.01284909 -0.04756975
v 0.03814494 -0.01022118 -0.04757052
v 0.03735268 -0.01285314 -0.04725408
v 0.03735268 -0.01285314 -0.04725408
v 0.03814494 -0.01022118 -0.04757052
v 0.03815400 -0.01022386 -0.04725509
v 0.03735268 -0.01285314 -0.04725408
v 0.03815400 -0.01022386 -0.04725509
v 0.03815400 -0.01022386 -0.04725509
v 0.03744870 -0.01254141 -0.04764997
v 0.03814452 -0.01022100 -0.04764997
v 0.03814494 -0.01022118 -0.04757052
v 0.03814494 -0.01022118 -0.04757052
v 0.03814452 -0.01022100 -0.04764997
v 0.03915929 -0.00515479 -0.04764997
v 0.03814494 -0.01022118 -0.04757052
v 0.03915929 -0.00515479 -0.04764997
v 0.03916138 -0.00515497 -0.04757094
v 0.03916138 -0.00515497 -0.04757094
v 0.03915929 -0.00515479 -0.04764997
v 0.03949183 -0.00128907 -0.04757028
v 0.03916138 -0.00515497 -0.04757094
v 0.03949183 -0.00128907 -0.04757028
v 0.03917664 -0.00515646 -0.04725539
v 0.03917664 -0.00515646 -0.04725539
v 0.03949183 -0.00128907 -0.04757028
v 0.03951710 -0.00128967 -0.04725444
v 0.03917664 -0.00515646 -0.04725539
v 0.03951710 -0.00128967 -0.04725444
v 0.03915929 -0.00515479 -0.04764997
v 0.03948760 -0.00127828 -0.04764997
v 0.03949183 -0.00128907 -0.04757028
v 0.03949183 -0.00128907 -0.04757028
v 0.03948760 -0.00127828 -0.04764997
v 0.03944426 0.00258672 -0.04756855
v 0.03949183 -0.00128907 -0.04757028
v 0.03944426 0.00258672 -0.04756855
v 0.03951710 -0.00128967 -0.04725444
v 0.03948760 -0.00127828 -0.04764997
v 0.03943526 0.00258583 -0.04764997
v 0.03944426 0.00258672 -0.04756855
v 0.03901028 0.00644237 -0.04756605
v 0.03876674 0.00771260 -0.04764997
v 0.03877836 0.00771528 -0.04756534
v 0.03877836 0.00771528 -0.04756534
v 0.03876674 0.00771260 -0.04764997
v 0.03877836 0.00771528 -0.04756534
v 0.01874166 -0.03509855 -0.04711085
v 0.01758724 -0.03573441 -0.04709696
v 0.01758724 -0.03573441 -0.04709696
v 0.01521998 -0.03688758 -0.04706585
v 0.01758724 -0.03573441 -0.04709696
v 0.01521998 -0.03688758 -0.04706585
v 0.01751494 -0.03555911 -0.04743248
v 0.01751494 -0.03555911 -0.04743248
v 0.01521998 -0.03688758 -0.04706585
v 0.01515263 -0.03666794 -0.04740494
v 0.03289490 -0.02199274 -0.04724669
v 0.03138971 -0.02411091 -0.04724299
v 0.03392714 -0.02033865 -0.04724836
v 0.03392714 -0.02033865 -0.04724836
v 0.03359252 -0.02089571 -0.04724788
v 0.03359252 -0.02089571 -0.04724788
v 0.03917664 -0.00515646 -0.04725539
v 0.03917664 -0.00515646 -0.04725539
v 0.03815400 -0.01022386 -0.04725509
v 0.03938525 0.00388217 -0.04725122
v 0.03938525 0.00388217 -0.04725122
v 0.03948181 0.00259018 -0.04725223
v 0.03948181 0.00259018 -0.04725223
v 0.03882497 0.00772595 -0.04724860
v 0.03882497 0.00772595 -0.04724860
v 0.03905642 0.00645137 -0.04724937
v 0.03882497 0.00772595 -0.04724860
v 0.03905642 0.00645137 -0.04724937
v 0.03877836 0.00771528 -0.04756534
v 0.03877836 0.00771528 -0.04756534
v 0.03905642 0.00645137 -0.04724937
v 0.03901028 0.00644237 -0.04756605
v 0.03882497 0.00772595 -0.04724860
v 0.03882497 0.00772595 -0.04724860
v 0.03882497 0.00772595 -0.04724860
v 0.03877836 0.00771528 -0.04756534
v 0.00515944 -0.03943282 -0.04720634
v 0.00515944 -0.03943282 -0.04720634
v 0.00771588 -0.03899943 -0.04726380
v 0.01272404 -0.03761351 -0.04736822
v 0.01024121 -0.03839194 -0.04732048
v 0.01024121 -0.03839194 -0.04732048
v 0.01866698 -0.03494465 -0.04744416
v 0.01874166 -0.03509855 -0.04711085
v 0.01758724 -0.03573441 -0.04709696
v 0.01758724 -0.03573441 -0.04709696
v 0.01874166 -0.03509855 -0.04711085
v 0.01866698 -0.03494465 -0.04744416
v 0.01758724 -0.03573441 -0.04709696
v 0.01751494 -0.03555911 -0.04743248
v 0.03135484 -0.02407354 -0.04755932
v 0.03286331 -0.02196609 -0.04756361
v 0.03138971 -0.02411091 -0.04724299
v 0.03138971 -0.02411091 -0.04724299
v 0.03286331 -0.02196609 -0.04756361
v 0.03289490 -0.02199274 -0.04724669
v 0.03389877 -0.02032017 -0.04756528
v 0.03392714 -0.02033865 -0.04724836
v 0.03359252 -0.02089571 -0.04724788
v 0.03286331 -0.02196609 -0.04756361
v 0.03356307 -0.02087455 -0.04756486
v 0.03289490 -0.02199274 -0.04724669
v 0.03916138 -0.00515497 -0.04757094
v 0.03917664 -0.00515646 -0.04725539
v 0.03815400 -0.01022386 -0.04725509
v 0.03916138 -0.00515497 -0.04757094
v 0.03815400 -0.01022386 -0.04725509
v 0.03814494 -0.01022118 -0.04757052
v 0.03934353 0.00387675 -0.04756772
v 0.03938525 0.00388217 -0.04725122
v 0.03948181 0.00259018 -0.04725223
v -0.03876674 0.00771260 -0.04764997
v -0.03943526 0.00258583 -0.04764997
v -0.03919970 0.00516254 -0.04756677
v -0.03876674 0.00771260 -0.04764997
v -0.03876674 0.00771260 -0.04764997
v -0.03919970 0.00516254 -0.04756677
v -0.03901028 0.00644237 -0.04756605
v -0.03876674 0.00771260 -0.04764997
v -0.03901028 0.00644237 -0.04756605
v -0.03877836 0.00771528 -0.04756534
v -0.03877836 0.00771528 -0.04756534
v -0.03901028 0.00644237 -0.04756605
v -0.03882497 0.00772595 -0.04724860
v -0.03877836 0.00771528 -0.04756534
v -0.03882497 0.00772595 -0.04724860
v -0.03882497 0.00772595 -0.04724860
v -0.03948760 -0.00127828 -0.04764997
v -0.03944426 0.00258672 -0.04756855
v -0.03943526 0.00258583 -0.04764997
v -0.03943526 0.00258583 -0.04764997
v -0.03944426 0.00258672 -0.04756855
v -0.03934353 0.00387675 -0.04756772
v -0.03943526 0.00258583 -0.04764997
v -0.03934353 0.00387675 -0.04756772
v -0.03919970 0.00516254 -0.04756677
v -0.03919970 0.00516254 -0.04756677
v -0.03934353 0.00387675 -0.04756772
v -0.03924494 0.00516981 -0.04725015
v -0.03919970 0.00516254 -0.04756677
v -0.03924494 0.00516981 -0.04725015
v -0.03905642 0.00645137 -0.04724937
v -0.03905642 0.00645137 -0.04724937
v -0.03924494 0.00516981 -0.04725015
v -0.03905642 0.00645137 -0.04724937
v -0.03944426 0.00258672 -0.04756855
v -0.03948760 -0.00127828 -0.04764997
v -0.03949183 -0.00128907 -0.04757028
v -0.03949183 -0.00128907 -0.04757028
v -0.03948760 -0.00127828 -0.04764997
v -0.03915929 -0.00515479 -0.04764997
v -0.03949183 -0.00128907 -0.04757028
v -0.03915929 -0.00515479 -0.04764997
v -0.03916138 -0.00515497 -0.04757094
v -0.03916138 -0.00515497 -0.04757094
v -0.03915929 -0.00515479 -0.04764997
v -0.03814452 -0.01022100 -0.04764997
v -0.03916138 -0.00515497 -0.04757094
v -0.03814452 -0.01022100 -0.04764997
v -0.03814494 -0.01022118 -0.04757052
v -0.03814494 -0.01022118 -0.04757052
v -0.03814452 -0.01022100 -0.04764997
v -0.03744870 -0.01254141 -0.04764997
v -0.03814494 -0.01022118 -0.04757052
v -0.03744870 -0.01254141 -0.04764997
v -0.03734296 -0.01284909 -0.04756975
v -0.03734296 -0.01284909 -0.04756975
v -0.03744870 -0.01254141 -0.04764997
v -0.03653120 -0.01502531 -0.04764997
v -0.03734296 -0.01284909 -0.04756975
v -0.03653120 -0.01502531 -0.04764997
v -0.03636437 -0.01541632 -0.04756855
v -0.03636437 -0.01541632 -0.04756855
v -0.03653120 -0.01502531 -0.04764997
v -0.03535795 -0.01763111 -0.04764997
v -0.03636437 -0.01541632 -0.04756855
v -0.03535795 -0.01763111 -0.04764997
v -0.03521418 -0.01791149 -0.04756706
v -0.03521418 -0.01791149 -0.04756706
v -0.03535795 -0.01763111 -0.04764997
v -0.03389477 -0.02031737 -0.04764997
v -0.03521418 -0.01791149 -0.04756706
v -0.03389477 -0.02031737 -0.04764997
v -0.03389877 -0.02032017 -0.04756528
v -0.03389877 -0.02032017 -0.04756528
v -0.03389477 -0.02031737 -0.04764997
v -0.03356307 -0.02087455 -0.04756486
v -0.03389877 -0.02032017 -0.04756528
v -0.03356307 -0.02087455 -0.04756486
v -0.03392714 -0.02033865 -0.04724836
v -0.03392714 -0.02033865 -0.04724836
v -0.03356307 -0.02087455 -0.04756486
v -0.03359252 -0.02089571 -0.04724788
v -0.03392714 -0.02033865 -0.04724836
v -0.03359252 -0.02089571 -0.04724788
v -0.03359252 -0.02089571 -0.04724788
v -0.02798259 -0.02802246 -0.04722291
v -0.02798259 -0.02802246 -0.04722291
v -0.02411746 -0.03146779 -0.04717946
v -0.02411746 -0.03146779 -0.04717946
v -0.02798259 -0.02802246 -0.04722291
v -0.02406108 -0.03137862 -0.04750055
v -0.02411746 -0.03146779 -0.04717946
v -0.02406108 -0.03137862 -0.04750055
v -0.02142250 -0.03326874 -0.04747098
v -0.02142250 -0.03326874 -0.04747098
v -0.02406108 -0.03137862 -0.04750055
v -0.02144682 -0.03320044 -0.04764997
v -0.02142250 -0.03326874 -0.04747098
v -0.02144682 -0.03320044 -0.04764997
v -0.01863861 -0.03488337 -0.04764997
v -0.03356307 -0.02087455 -0.04756486
v -0.03389477 -0.02031737 -0.04764997
v -0.03286331 -0.02196609 -0.04756361
v -0.03286331 -0.02196609 -0.04756361
v -0.03389477 -0.02031737 -0.04764997
v -0.03134781 -0.02406519 -0.04764997
v -0.03286331 -0.02196609 -0.04756361
v -0.03134781 -0.02406519 -0.04764997
v -0.03135484 -0.02407354 -0.04755932
v -0.03135484 -0.02407354 -0.04755932
v -0.03134781 -0.02406519 -0.04764997
v -0.02793961 -0.02796250 -0.04753923
v -0.03135484 -0.02407354 -0.04755932
v -0.02793961 -0.02796250 -0.04753923
v -0.03138971 -0.02411091 -0.04724299
v -0.03138971 -0.02411091 -0.04724299
v -0.02793961 -0.02796250 -0.04753923
v -0.02798259 -0.02802246 -0.04722291
v -0.03138971 -0.02411091 -0.04724299
v -0.02798259 -0.02802246 -0.04722291
v -0.03134781 -0.02406519 -0.04764997
v -0.02793097 -0.02794808 -0.04764997
v -0.02793961 -0.02796250 -0.04753923
v -0.02793961 -0.02796250 -0.04753923
v -0.02793097 -0.02794808 -0.04764997
v -0.02406108 -0.03137862 -0.04750055
v -0.02793961 -0.02796250 -0.04753923
v -0.02406108 -0.03137862 -0.04750055
v -0.02798259 -0.02802246 -0.04722291
v -0.02793097 -0.02794808 -0.04764997
v -0.02404671 -0.03135323 -0.04764997
v -0.02406108 -0.03137862 -0.04750055
v -0.02406108 -0.03137862 -0.04750055
v -0.02404671 -0.03135323 -0.04764997
v -0.02144682 -0.03320044 -0.04764997
v -0.01512598 -0.03656613 -0.04764997
v -0.01751494 -0.03555911 -0.04743248
v -0.01863861 -0.03488337 -0.04764997
v -0.01863861 -0.03488337 -0.04764997
v -0.01751494 -0.03555911 -0.04743248
v -0.01866698 -0.03494465 -0.04744416
v -0.01863861 -0.03488337 -0.04764997
v -0.01866698 -0.03494465 -0.04744416
v -0.02142250 -0.03326874 -0.04747098
v -0.02142250 -0.03326874 -0.04747098
v -0.01866698 -0.03494465 -0.04744416
v -0.02149099 -0.03338330 -0.04714417
v -0.02142250 -0.03326874 -0.04747098
v -0.02149099 -0.03338330 -0.04714417
v -0.02411746 -0.03146779 -0.04717946
v -0.02411746 -0.03146779 -0.04717946
v -0.02149099 -0.03338330 -0.04714417
v -0.02411746 -0.03146779 -0.04717946
v -0.01022040 -0.03822654 -0.04764997
v -0.01272404 -0.03761351 -0.04736822
v -0.01512598 -0.03656613 -0.04764997
v -0.01512598 -0.03656613 -0.04764997
v -0.01272404 -0.03761351 -0.04736822
v -0.01515263 -0.03666794 -0.04740494
v -0.01512598 -0.03656613 -0.04764997
v -0.01515263 -0.03666794 -0.04740494
v -0.01751494 -0.03555911 -0.04743248
v -0.01751494 -0.03555911 -0.04743248
v -0.01515263 -0.03666794 -0.04740494
v -0.01758724 -0.03573441 -0.04709696
v -0.01751494 -0.03555911 -0.04743248
v -0.01758724 -0.03573441 -0.04709696
v -0.01874166 -0.03509855 -0.04711085
v -0.01874166 -0.03509855 -0.04711085
v -0.01758724 -0.03573441 -0.04709696
v -0.01874166 -0.03509855 -0.04711085
v -0.00514901 -0.03921180 -0.04764997
v -0.00771588 -0.03899943 -0.04726380
v -0.01022040 -0.03822654 -0.04764997
v -0.01022040 -0.03822654 -0.04764997
v -0.00771588 -0.03899943 -0.04726380
v -0.01024121 -0.03839194 -0.04732048
v -0.01022040 -0.03822654 -0.04764997
v -0.01024121 -0.03839194 -0.04732048
v -0.01272404 -0.03761351 -0.04736822
v -0.01272404 -0.03761351 -0.04736822
v -0.01024121 -0.03839194 -0.04732048
v -0.01278614 -0.03787982 -0.04702597
v -0.01272404 -0.03761351 -0.04736822
v -0.01278614 -0.03787982 -0.04702597
v -0.01521998 -0.03688758 -0.04706585
v -0.01521998 -0.03688758 -0.04706585
v -0.01278614 -0.03787982 -0.04702597
v -0.01521998 -0.03688758 -0.04706585
v 0.00000000 -0.03953570 -0.04764997
v -0.00258380 -0.03969091 -0.04716157
v -0.00514901 -0.03921180 -0.04764997
v -0.00514901 -0.03921180 -0.04764997
v -0.00258380 -0.03969091 -0.04716157
v -0.00515944 -0.03943282 -0.04720634
v -0.00514901 -0.03921180 -0.04764997
v -0.00515944 -0.03943282 -0.04720634
v -0.00771588 -0.03899943 -0.04726380
v -0.00771588 -0.03899943 -0.04726380
v -0.00515944 -0.03943282 -0.04720634
v -0.00771588 -0.03899943 -0.04726380
v 0.00000000 -0.03953570 -0.04764997
v -0.00258380 -0.03969091 -0.04716157
v -0.00258380 -0.03969091 -0.04716157
v -0.00258380 -0.03969091 -0.04716157
v -0.03637772 -0.01542299 -0.04725259
v -0.03637772 -0.01542299 -0.04725259
v -0.03735268 -0.01285314 -0.04725408
v -0.03637772 -0.01542299 -0.04725259
v -0.03735268 -0.01285314 -0.04725408
v -0.03636437 -0.01541632 -0.04756855
v -0.03636437 -0.01541632 -0.04756855
v -0.03735268 -0.01285314 -0.04725408
v -0.03734296 -0.01284909 -0.04756975
v -0.03735268 -0.01285314 -0.04725408
v -0.03735268 -0.01285314 -0.04725408
v -0.03815400 -0.01022386 -0.04725509
v -0.03735268 -0.01285314 -0.04725408
v -0.03815400 -0.01022386 -0.04725509
v -0.03734296 -0.01284909 -0.04756975
v -0.03734296 -0.01284909 -0.04756975
v -0.03815400 -0.01022386 -0.04725509
v -0.03814494 -0.01022118 -0.04757052
v -0.03815400 -0.01022386 -0.04725509
v -0.03815400 -0.01022386 -0.04725509
v -0.03917664 -0.00515646 -0.04725539
v -0.03815400 -0.01022386 -0.04725509
v -0.03917664 -0.00515646 -0.04725539
v -0.03814494 -0.01022118 -0.04757052
v -0.03814494 -0.01022118 -0.04757052
v -0.03917664 -0.00515646 -0.04725539
v -0.03916138 -0.00515497 -0.04757094
v -0.03917664 -0.00515646 -0.04725539
v -0.03917664 -0.00515646 -0.04725539
v -0.03951710 -0.00128967 -0.04725444
v -0.03917664 -0.00515646 -0.04725539
v -0.03951710 -0.00128967 -0.04725444
v -0.03916138 -0.00515497 -0.04757094
v -0.03916138 -0.00515497 -0.04757094
v -0.03951710 -0.00128967 -0.04725444
v -0.03949183 -0.00128907 -0.04757028
v -0.03924494 0.00516981 -0.04725015
v -0.00515944 -0.03943282 -0.04720634
v -0.00515944 -0.03943282 -0.04720634
v -0.00258380 -0.03969091 -0.04716157
v -0.01278614 -0.03787982 -0.04702597
v -0.01024121 -0.03839194 -0.04732048
v -0.01024121 -0.03839194 -0.04732048
v -0.00771588 -0.03899943 -0.04726380
v -0.01758724 -0.03573441 -0.04709696
v -0.01515263 -0.03666794 -0.04740494
v -0.01521998 -0.03688758 -0.04706585
v -0.01521998 -0.03688758 -0.04706585
v -0.01515263 -0.03666794 -0.04740494
v -0.01272404 -0.03761351 -0.04736822
v -0.02149099 -0.03338330 -0.04714417
v -0.01866698 -0.03494465 -0.04744416
v -0.01874166 -0.03509855 -0.04711085
v -0.01874166 -0.03509855 -0.04711085
v -0.01866698 -0.03494465 -0.04744416
v -0.01751494 -0.03555911 -0.04743248
v -0.03359252 -0.02089571 -0.04724788
v -0.03356307 -0.02087455 -0.04756486
v -0.03286331 -0.02196609 -0.04756361
v -0.03286331 -0.02196609 -0.04756361
v -0.03135484 -0.02407354 -0.04755932
v -0.03289490 -0.02199274 -0.04724669
v -0.03289490 -0.02199274 -0.04724669
v -0.03135484 -0.02407354 -0.04755932
v -0.03138971 -0.02411091 -0.04724299
v -0.03289490 -0.02199274 -0.04724669
v -0.03138971 -0.02411091 -0.04724299
v -0.03138971 -0.02411091 -0.04724299
v -0.03637772 -0.01542299 -0.04725259
v -0.03636437 -0.01541632 -0.04756855
v -0.03521418 -0.01791149 -0.04756706
v -0.03521418 -0.01791149 -0.04756706
v -0.03389877 -0.02032017 -0.04756528
v -0.03523409 -0.01792234 -0.04725062
v -0.03523409 -0.01792234 -0.04725062
v -0.03389877 -0.02032017 -0.04756528
v -0.03392714 -0.02033865 -0.04724836
v -0.03523409 -0.01792234 -0.04725062
v -0.03392714 -0.02033865 -0.04724836
v -0.03392714 -0.02033865 -0.04724836
v -0.03944426 0.00258672 -0.04756855
v -0.03949183 -0.00128907 -0.04757028
v -0.03948181 0.00259018 -0.04725223
v -0.03948181 0.00259018 -0.04725223
v -0.03949183 -0.00128907 -0.04757028
v -0.03951710 -0.00128967 -0.04725444
v -0.03948181 0.00259018 -0.04725223
v -0.03951710 -0.00128967 -0.04725444
v -0.03951710 -0.00128967 -0.04725444
v -0.03934353 0.00387675 -0.04756772
v -0.03944426 0.00258672 -0.04756855
v -0.03938525 0.00388217 -0.04725122
v -0.03938525 0.00388217 -0.04725122
v -0.03944426 0.00258672 -0.04756855
v -0.03948181 0.00259018 -0.04725223
v -0.03938525 0.00388217 -0.04725122
v -0.03948181 0.00259018 -0.04725223
v -0.03948181 0.00259018 -0.04725223
v -0.03876674 0.00771260 -0.04764997
v -0.03877836 0.00771528 -0.04756534
v -0.03882497 0.00772595 -0.04724860
v -0.03901028 0.00644237 -0.04756605
v -0.03905642 0.00645137 -0.04724937
v -0.03905642 0.00645137 -0.04724937
v -0.03901028 0.00644237 -0.04756605
v -0.03919970 0.00516254 -0.04756677
v -0.03877836 0.00771528 -0.04756534
v -0.01278614 -0.03787982 -0.04702597
v -0.01278614 -0.03787982 -0.04702597
v -0.01758724 -0.03573441 -0.04709696
v -0.01758724 -0.03573441 -0.04709696
v -0.01521998 -0.03688758 -0.04706585
v -0.02149099 -0.03338330 -0.04714417
v -0.02149099 -0.03338330 -0.04714417
v -0.01874166 -0.03509855 -0.04711085
v -0.03359252 -0.02089571 -0.04724788
v -0.03289490 -0.02199274 -0.04724669
v -0.03289490 -0.02199274 -0.04724669
v -0.03359252 -0.02089571 -0.04724788
v -0.03286331 -0.02196609 -0.04756361
v -0.03289490 -0.02199274 -0.04724669
v -0.03637772 -0.01542299 -0.04725259
v -0.03523409 -0.01792234 -0.04725062
v -0.03523409 -0.01792234 -0.04725062
v -0.03637772 -0.01542299 -0.04725259
v -0.03521418 -0.01791149 -0.04756706
v -0.03523409 -0.01792234 -0.04725062
v -0.03924494 0.00516981 -0.04725015
v -0.03938525 0.00388217 -0.04725122
v -0.03938525 0.00388217 -0.04725122
v -0.03924494 0.00516981 -0.04725015
v -0.03934353 0.00387675 -0.04756772
v -0.03938525 0.00388217 -0.04725122
v -0.03882497 0.00772595 -0.04724860
v -0.03882497 0.00772595 -0.04724860
v -0.03905642 0.00645137 -0.04724937
v 0.03889977 0.00523150 -0.04764997
v 0.03943526 0.00258583 -0.04764997
v 0.03924995 -0.00000000 -0.04764997
v 0.03948760 -0.00127828 -0.04764997
v 0.03889977 -0.00523150 -0.04764997
v 0.03915929 -0.00515479 -0.04764997
v 0.03814452 -0.01022100 -0.04764997
v 0.03876674 0.00771260 -0.04764997
v -0.03846347 0.00781804 -0.04764997
v -0.03876674 0.00771260 -0.04764997
v -0.03916233 0.00262159 -0.04764997
v -0.03943526 0.00258583 -0.04764997
v -0.03948760 -0.00127828 -0.04764997
v -0.03916233 -0.00262159 -0.04764997
v -0.03915929 -0.00515479 -0.04764997
v -0.03846347 -0.00781804 -0.04764997
v -0.03814452 -0.01022100 -0.04764997
v -0.03707826 -0.01287496 -0.04764997
v -0.03744870 -0.01254141 -0.04764997
v -0.03653120 -0.01502531 -0.04764997
v -0.03503131 -0.01770210 -0.04764997
v -0.03535795 -0.01763111 -0.04764997
v -0.03389477 -0.02031737 -0.04764997
v -0.03235930 -0.02221339 -0.04764997
v -0.03134781 -0.02406519 -0.04764997
v -0.02910983 -0.02632826 -0.04764997
v -0.02793097 -0.02794808 -0.04764997
v -0.02534085 -0.02997332 -0.04764997
v -0.02404671 -0.03135323 -0.04764997
v -0.02111971 -0.03308349 -0.04764997
v -0.02144682 -0.03320044 -0.04764997
v -0.01863861 -0.03488337 -0.04764997
v -0.01652169 -0.03560328 -0.04764997
v -0.01512598 -0.03656613 -0.04764997
v -0.01162880 -0.03748774 -0.04764997
v -0.01022040 -0.03822654 -0.04764997
v -0.00652838 -0.03870326 -0.04764997
v -0.00514901 -0.03921180 -0.04764997
v -0.00131148 -0.03922808 -0.04764997
v 0.00000000 -0.03953570 -0.04764997
v 0.00392872 -0.03905284 -0.04764997
v 0.00514901 -0.03921180 -0.04764997
v 0.00909889 -0.03818076 -0.04764997
v 0.01022040 -0.03822654 -0.04764997
v 0.01410675 -0.03662729 -0.04764997
v 0.01512598 -0.03656613 -0.04764997
v 0.01886278 -0.03442025 -0.04764997
v 0.01863861 -0.03488337 -0.04764997
v 0.02144682 -0.03320044 -0.04764997
v 0.02328228 -0.03159898 -0.04764997
v 0.02404671 -0.03135323 -0.04764997
v 0.02728629 -0.02821379 -0.04764997
v 0.02793097 -0.02794808 -0.04764997
v 0.03080332 -0.02432513 -0.04764997
v 0.03134781 -0.02406519 -0.04764997
v 0.03377074 -0.02000242 -0.04764997
v 0.03389477 -0.02031737 -0.04764997
v 0.03535795 -0.01763111 -0.04764997
v 0.03613549 -0.01532274 -0.04764997
v 0.03653120 -0.01502531 -0.04764997
v 0.03744870 -0.01254141 -0.04764997
v 0.03785538 -0.01036965 -0.04764997
v -0.03916233 -0.00262159 -0.04764997
v -0.03916233 -0.00262159 -0.04764997
v -0.03916233 0.00262159 -0.04764997
v -0.03916233 0.00262159 -0.04764997
v -0.03916233 0.00262159 -0.04764997
v -0.03846347 0.00781804 -0.04764997
v -0.03846347 0.00781804 -0.04764997
v -0.03846347 0.00781804 -0.04764997
v 0.03889977 0.00523150 -0.04764997
v 0.03889977 0.00523150 -0.04764997
v 0.03889977 0.00523150 -0.04764997
v 0.03924995 -0.00000000 -0.04764997
v 0.03924995 -0.00000000 -0.04764997
v 0.03924995 -0.00000000 -0.04764997
v 0.03889977 -0.00523150 -0.04764997
v 0.03889977 -0.00523150 -0.04764997
v 0.03889977 -0.00523150 -0.04764997
v 0.03785538 -0.01036965 -0.04764997
v 0.03785538 -0.01036965 -0.04764997
v 0.03785538 -0.01036965 -0.04764997
v 0.03613549 -0.01532274 -0.04764997
v 0.03613549 -0.01532274 -0.04764997
v 0.03613549 -0.01532274 -0.04764997
v 0.03377074 -0.02000242 -0.04764997
v 0.03377074 -0.02000242 -0.04764997
v 0.03377074 -0.02000242 -0.04764997
v 0.03080332 -0.02432513 -0.04764997
v 0.03080332 -0.02432513 -0.04764997
v 0.03080332 -0.02432513 -0.04764997
v 0.02728629 -0.02821379 -0.04764997
v 0.02728629 -0.02821379 -0.04764997
v 0.02728629 -0.02821379 -0.04764997
v 0.02328228 -0.03159898 -0.04764997
v 0.02328228 -0.03159898 -0.04764997
v 0.02328228 -0.03159898 -0.04764997
v 0.01886278 -0.03442025 -0.04764997
v 0.01886278 -0.03442025 -0.04764997
v 0.01886278 -0.03442025 -0.04764997
v 0.01410675 -0.03662729 -0.04764997
v 0.01410675 -0.03662729 -0.04764997
v 0.01410675 -0.03662729 -0.04764997
v 0.00909889 -0.03818076 -0.04764997
v 0.00909889 -0.03818076 -0.04764997
v 0.00909889 -0.03818076 -0.04764997
v 0.00392872 -0.03905284 -0.04764997
v 0.00392872 -0.03905284 -0.04764997
v 0.00392872 -0.03905284 -0.04764997
v -0.00131148 -0.03922808 -0.04764997
v -0.00131148 -0.03922808 -0.04764997
v -0.00131148 -0.03922808 -0.04764997
v -0.00652838 -0.03870326 -0.04764997
v -0.00652838 -0.03870326 -0.04764997
v -0.00652838 -0.03870326 -0.04764997
v -0.01162880 -0.03748774 -0.04764997
v -0.01162880 -0.03748774 -0.04764997
v -0.01162880 -0.03748774 -0.04764997
v -0.01652169 -0.03560328 -0.04764997
v -0.01652169 -0.03560328 -0.04764997
v -0.01652169 -0.03560328 -0.04764997
v -0.02111971 -0.03308349 -0.04764997
v -0.02111971 -0.03308349 -0.04764997
v -0.02111971 -0.03308349 -0.04764997
v -0.02534085 -0.02997332 -0.04764997
v -0.02534085 -0.02997332 -0.04764997
v -0.02534085 -0.02997332 -0.04764997
v -0.02910983 -0.02632826 -0.04764997
v -0.02910983 -0.02632826 -0.04764997
v -0.02910983 -0.02632826 -0.04764997
v -0.03235930 -0.02221339 -0.04764997
v -0.03235930 -0.02221339 -0.04764997
v -0.03235930 -0.02221339 -0.04764997
v -0.03503131 -0.01770210 -0.04764997
v -0.03503131 -0.01770210 -0.04764997
v -0.03503131 -0.01770210 -0.04764997
v -0.03707826 -0.01287496 -0.04764997
v -0.03707826 -0.01287496 -0.04764997
v -0.03707826 -0.01287496 -0.04764997
v -0.03846347 -0.00781804 -0.04764997
v -0.03846347 -0.00781804 -0.04764997
v -0.03846347 -0.00781804 -0.04764997
v -0.03916233 -0.00262159 -0.04764997
v 0.03823216 0.01000000 -0.04764997
v 0.03823328 0.01000000 -0.04764219
v 0.03829223 0.01000000 -0.04724737
v 0.03830655 0.01000000 -0.04718080
v 0.03824301 0.01000000 -0.04756404
v 0.03824759 0.01000000 -0.04753448
v -0.03829223 0.01000000 -0.04724737
v -0.03828742 0.01000000 -0.04727836
v -0.03824301 0.01000000 -0.04756404
v -0.03824187 0.01000000 -0.04757190
v 0.03793051 0.01000000 -0.04764997
v 0.03798217 0.01000000 -0.04764997
v -0.03823216 0.01000000 -0.04764997
v -0.03820547 0.01000000 -0.04764997
v 0.03794347 0.01000000 -0.04851918
v 0.03793051 0.01000000 -0.04764997
v 0.03823328 0.01000000 -0.04764219
v 0.03824301 0.01000000 -0.04756404
v 0.03830655 0.01000000 -0.04718080
v 0.03824759 0.01000000 -0.04753448
v 0.03829223 0.01000000 -0.04724737
v -0.03824187 0.01000000 -0.04757190
v -0.03823216 0.01000000 -0.04764997
v -0.03829223 0.01000000 -0.04724737
v -0.03828742 0.01000000 -0.04727836
v -0.03824301 0.01000000 -0.04756404
v 0.03798217 0.01000000 -0.04764997
v 0.03823216 0.01000000 -0.04764997
v -0.03820547 0.01000000 -0.04764997
v -0.03786578 0.01000000 -0.04764997
v -0.03786578 0.01000000 -0.04764997
v 0.03794347 0.01000000 -0.04851918
v -0.03919665 0.00159479 -0.05000000
v -0.03919665 -0.00159479 -0.05000000
v -0.03863436 0.00680496 -0.05000000
v -0.03905949 0.00364382 -0.05000000
v 0.03921563 0.00102681 -0.05000000
v 0.03900261 0.00420927 -0.05000000
v 0.03900261 -0.00420927 -0.05000000
v 0.03921563 -0.00102681 -0.05000000
v 0.03809355 -0.00937026 -0.05000000
v 0.03872888 -0.00624458 -0.05000000
v 0.03650475 -0.01436401 -0.05000000
v 0.03755100 -0.01135091 -0.05000000
v 0.03426447 -0.01910145 -0.05000000
v 0.03570301 -0.01625467 -0.05000000
v 0.03141275 -0.02349802 -0.05000000
v 0.03321792 -0.02086840 -0.05000000
v 0.02800052 -0.02747528 -0.05000000
v 0.03014003 -0.02510970 -0.05000000
v 0.02408857 -0.03096225 -0.05000000
v 0.02652431 -0.02890295 -0.05000000
v 0.01974676 -0.03389668 -0.05000000
v 0.02243526 -0.03218042 -0.05000000
v 0.01505262 -0.03622621 -0.05000000
v 0.01794584 -0.03488361 -0.05000000
v 0.01008978 -0.03790932 -0.05000000
v 0.01313620 -0.03696430 -0.05000000
v 0.00494693 -0.03891592 -0.05000000
v 0.00809209 -0.03838541 -0.05000000
v -0.00028414 -0.03922808 -0.05000000
v 0.00290362 -0.03912148 -0.05000000
v -0.00551016 -0.03884018 -0.05000000
v -0.00233658 -0.03915944 -0.05000000
v -0.01063790 -0.03775918 -0.05000000
v -0.00753518 -0.03849861 -0.05000000
v -0.01557582 -0.03600436 -0.05000000
v -0.01259934 -0.03715073 -0.05000000
v -0.02023573 -0.03360706 -0.05000000
v -0.01743863 -0.03513992 -0.05000000
v -0.02453456 -0.03061005 -0.05000000
v -0.02196673 -0.03250205 -0.05000000
v -0.02839560 -0.02706677 -0.05000000
v -0.02610282 -0.02928416 -0.05000000
v -0.03174986 -0.02304050 -0.05000000
v -0.02977312 -0.02554369 -0.05000000
v -0.03453758 -0.01860307 -0.05000000
v -0.03291212 -0.02134741 -0.05000000
v -0.03670900 -0.01383369 -0.05000000
v -0.03546379 -0.01677017 -0.05000000
v -0.03822530 -0.00881744 -0.05000000
v -0.03738264 -0.01189370 -0.05000000
v -0.03905949 -0.00364382 -0.05000000
v -0.03863436 -0.00680496 -0.05000000
v 0.03872888 0.00624458 -0.05000000
v 0.03809355 0.00937026 -0.05000000
v -0.03790137 0.01000000 -0.05000000
v -0.03822530 0.00881744 -0.05000000
v -0.03919665 -0.00159479 -0.05000000
v -0.03905949 -0.00364382 -0.05000000
v -0.03905949 0.00364382 -0.05000000
v -0.03919665 0.00159479 -0.05000000
v 0.03900261 0.00420927 -0.05000000
v 0.03872888 0.00624458 -0.05000000
v 0.03921563 -0.00102681 -0.05000000
v 0.03921563 0.00102681 -0.05000000
v 0.03872888 -0.00624458 -0.05000000
v 0.03900261 -0.00420927 -0.05000000
v 0.03755100 -0.01135091 -0.05000000
v 0.03809355 -0.00937026 -0.05000000
v 0.03570301 -0.01625467 -0.05000000
v 0.03650475 -0.01436401 -0.05000000
v 0.03321792 -0.02086840 -0.05000000
v 0.03426447 -0.01910145 -0.05000000
v 0.03014003 -0.02510970 -0.05000000
v 0.03141275 -0.02349802 -0.05000000
v 0.02652431 -0.02890295 -0.05000000
v 0.02800052 -0.02747528 -0.05000000
v 0.02243526 -0.03218042 -0.05000000
v 0.02408857 -0.03096225 -0.05000000
v 0.01794584 -0.03488361 -0.05000000
v 0.01974676 -0.03389668 -0.05000000
v 0.01313620 -0.03696430 -0.05000000
v 0.01505262 -0.03622621 -0.05000000
v 0.00809209 -0.03838541 -0.05000000
v 0.01008978 -0.03790932 -0.05000000
v 0.00290362 -0.03912148 -0.05000000
v 0.00494693 -0.03891592 -0.05000000
v -0.00233658 -0.03915944 -0.05000000
v -0.00028414 -0.03922808 -0.05000000
v -0.00753518 -0.03849861 -0.05000000
v -0.00551016 -0.03884018 -0.05000000
v -0.01259934 -0.03715073 -0.05000000
v -0.01063790 -0.03775918 -0.05000000
v -0.01743863 -0.03513992 -0.05000000
v -0.01557582 -0.03600436 -0.05000000
v -0.02196673 -0.03250205 -0.05000000
v -0.02023573 -0.03360706 -0.05000000
v -0.02610282 -0.02928416 -0.05000000
v -0.02453456 -0.03061005 -0.05000000
v -0.02977312 -0.02554369 -0.05000000
v -0.02839560 -0.02706677 -0.05000000
v -0.03291212 -0.02134741 -0.05000000
v -0.03174986 -0.02304050 -0.05000000
v -0.03546379 -0.01677017 -0.05000000
v -0.03453758 -0.01860307 -0.05000000
v -0.03738264 -0.01189370 -0.05000000
v -0.03670900 -0.01383369 -0.05000000
v -0.03863436 -0.00680496 -0.05000000
v -0.03822530 -0.00881744 -0.05000000
v -0.03822530 0.00881744 -0.05000000
v -0.03863436 0.00680496 -0.05000000
v 0.03809355 0.00937026 -0.05000000
v 0.03792105 0.01000000 -0.05000000
v 0.03917540 0.00598145 -0.04700000
v 0.03929378 0.00517735 -0.04700000
v 0.03952720 0.00112668 -0.04700000
v 0.03954936 -0.00129050 -0.04700000
v 0.03934298 0.00469416 -0.04700000
v 0.03943098 0.00388766 -0.04700000
v 0.03597613 -0.01637767 -0.04700000
v 0.03526232 -0.01793730 -0.04700000
v 0.03337218 -0.02133175 -0.04700000
v 0.03293274 -0.02202251 -0.04700000
v 0.03478126 -0.01884542 -0.04700000
v 0.03396155 -0.02036042 -0.04700000
v 0.02093109 -0.03387240 -0.04700000
v 0.01878491 -0.03518489 -0.04700000
v 0.01152357 -0.03829899 -0.04700000
v 0.01045269 -0.03863611 -0.04700000
v 0.01498181 -0.03707813 -0.04700000
v 0.01279559 -0.03791538 -0.04700000
v 0.00071654 -0.03990426 -0.04700000
v 0.00000000 -0.03994690 -0.04700000
v 0.00384376 -0.03978520 -0.04700000
v 0.00259243 -0.03988444 -0.04700000
v 0.00828624 -0.03915544 -0.04700000
v 0.00775164 -0.03927132 -0.04700000
v 0.02346248 -0.03209635 -0.04700000
v 0.02154525 -0.03347183 -0.04700000
v 0.02677385 -0.02926153 -0.04700000
v 0.02417632 -0.03155439 -0.04700000
v 0.03021274 -0.02560105 -0.04700000
v 0.02803777 -0.02809048 -0.04700000
v 0.03700729 -0.01383617 -0.04700000
v 0.03640109 -0.01543378 -0.04700000
v 0.03787015 -0.01123051 -0.04700000
v 0.03737321 -0.01286087 -0.04700000
v 0.03941231 -0.00276049 -0.04700000
v 0.03920116 -0.00515927 -0.04700000
v 0.01725505 -0.03601350 -0.04700000
v 0.01524435 -0.03695951 -0.04700000
v 0.03238292 -0.02281712 -0.04700000
v 0.03143318 -0.02415264 -0.04700000
v 0.03383852 -0.02056953 -0.04700000
v 0.03362792 -0.02092003 -0.04700000
v 0.03880738 -0.00709046 -0.04700000
v 0.03817390 -0.01022941 -0.04700000
v 0.03946356 0.00340115 -0.04700000
v 0.03952401 0.00259372 -0.04700000
v 0.03896089 0.00726168 -0.04700000
v 0.03910642 0.00646078 -0.04700000
v 0.00609689 -0.03953441 -0.04700000
v 0.00518004 -0.03966624 -0.04700000
v 0.01045269 -0.03863611 -0.04700000
v 0.01029298 -0.03868325 -0.04700000
v 0.01857747 -0.03530630 -0.04700000
v 0.01762424 -0.03581898 -0.04700000
v -0.03922470 0.00565736 -0.04700000
v -0.03910642 0.00646078 -0.04700000
v -0.03375083 -0.02071113 -0.04700000
v -0.03396155 -0.02036042 -0.04700000
v -0.02530844 -0.03050728 -0.04700000
v -0.02803777 -0.02809048 -0.04700000
v -0.02920265 -0.02670846 -0.04700000
v -0.03143318 -0.02415264 -0.04700000
v -0.02217655 -0.03299354 -0.04700000
v -0.02417632 -0.03155439 -0.04700000
v -0.01781277 -0.03570878 -0.04700000
v -0.01878491 -0.03518489 -0.04700000
v -0.01291020 -0.03786385 -0.04700000
v -0.01524435 -0.03695951 -0.04700000
v -0.00699896 -0.03938115 -0.04700000
v -0.00775164 -0.03927132 -0.04700000
v 0.00000000 -0.03994690 -0.04700000
v -0.00071654 -0.03990426 -0.04700000
v -0.03676632 -0.01446032 -0.04700000
v -0.03737321 -0.01286087 -0.04700000
v -0.03767651 -0.01186126 -0.04700000
v -0.03817390 -0.01022941 -0.04700000
v -0.03856736 -0.00829979 -0.04700000
v -0.03920116 -0.00515927 -0.04700000
v -0.03933833 -0.00368823 -0.04700000
v -0.03954936 -0.00129050 -0.04700000
v -0.00395090 -0.03976506 -0.04700000
v -0.00518004 -0.03966624 -0.04700000
v -0.01029298 -0.03868325 -0.04700000
v -0.01152357 -0.03829899 -0.04700000
v -0.01007175 -0.03873178 -0.04700000
v -0.01029298 -0.03868325 -0.04700000
v -0.03197753 -0.02336594 -0.04700000
v -0.03293274 -0.02202251 -0.04700000
v -0.03444140 -0.01945466 -0.04700000
v -0.03526232 -0.01793730 -0.04700000
v -0.03954619 0.00018061 -0.04700000
v -0.03952401 0.00259372 -0.04700000
v -0.03949139 0.00308094 -0.04700000
v -0.03943098 0.00388766 -0.04700000
v -0.01551636 -0.03681663 -0.04700000
v -0.01762424 -0.03581898 -0.04700000
v -0.01930489 -0.03484659 -0.04700000
v -0.02154525 -0.03347183 -0.04700000
v -0.03318773 -0.02161200 -0.04700000
v -0.03362792 -0.02092003 -0.04700000
v -0.03568631 -0.01699559 -0.04700000
v -0.03640109 -0.01543378 -0.04700000
v -0.03938171 0.00437167 -0.04700000
v -0.03929378 0.00517735 -0.04700000
v -0.03902121 0.00693705 -0.04700000
v -0.03887581 0.00773722 -0.04700000
v 0.03854018 0.00916914 -0.04700000
v 0.03887581 0.00773722 -0.04700000
v 0.03850353 0.00932551 -0.04700000
v 0.03854018 0.00916914 -0.04700000
v -0.03865714 0.00867708 -0.04700000
v -0.03834706 0.01000000 -0.04700000
v 0.03910642 0.00646078 -0.04700000
v 0.03917540 0.00598145 -0.04700000
v 0.03954936 -0.00129050 -0.04700000
v 0.03941231 -0.00276049 -0.04700000
v 0.03929378 0.00517735 -0.04700000
v 0.03934298 0.00469416 -0.04700000
v 0.03640109 -0.01543378 -0.04700000
v 0.03597613 -0.01637767 -0.04700000
v 0.03293274 -0.02202251 -0.04700000
v 0.03238292 -0.02281712 -0.04700000
v 0.03526232 -0.01793730 -0.04700000
v 0.03478126 -0.01884542 -0.04700000
v 0.02154525 -0.03347183 -0.04700000
v 0.02093109 -0.03387240 -0.04700000
v 0.01268662 -0.03795637 -0.04700000
v 0.01152357 -0.03829899 -0.04700000
v 0.01524435 -0.03695951 -0.04700000
v 0.01498181 -0.03707813 -0.04700000
v 0.01279559 -0.03791538 -0.04700000
v 0.01268662 -0.03795637 -0.04700000
v 0.00259243 -0.03988444 -0.04700000
v 0.00071654 -0.03990426 -0.04700000
v 0.00775164 -0.03927132 -0.04700000
v 0.00609689 -0.03953441 -0.04700000
v 0.02417632 -0.03155439 -0.04700000
v 0.02346248 -0.03209635 -0.04700000
v 0.02803777 -0.02809048 -0.04700000
v 0.02677385 -0.02926153 -0.04700000
v 0.03143318 -0.02415264 -0.04700000
v 0.03021274 -0.02560105 -0.04700000
v 0.03737321 -0.01286087 -0.04700000
v 0.03700729 -0.01383617 -0.04700000
v 0.03817390 -0.01022941 -0.04700000
v 0.03787015 -0.01123051 -0.04700000
v 0.01878491 -0.03518489 -0.04700000
v 0.01857747 -0.03530630 -0.04700000
v 0.01762424 -0.03581898 -0.04700000
v 0.01725505 -0.03601350 -0.04700000
v 0.03396155 -0.02036042 -0.04700000
v 0.03383852 -0.02056953 -0.04700000
v 0.03362792 -0.02092003 -0.04700000
v 0.03337218 -0.02133175 -0.04700000
v 0.03920116 -0.00515927 -0.04700000
v 0.03880738 -0.00709046 -0.04700000
v 0.03943098 0.00388766 -0.04700000
v 0.03946356 0.00340115 -0.04700000
v 0.03952401 0.00259372 -0.04700000
v 0.03952720 0.00112668 -0.04700000
v 0.03887581 0.00773722 -0.04700000
v 0.03896089 0.00726168 -0.04700000
v 0.00518004 -0.03966624 -0.04700000
v 0.00384376 -0.03978520 -0.04700000
v 0.01029298 -0.03868325 -0.04700000
v 0.00828624 -0.03915544 -0.04700000
v -0.03910642 0.00646078 -0.04700000
v -0.03902121 0.00693705 -0.04700000
v -0.03362792 -0.02092003 -0.04700000
v -0.03375083 -0.02071113 -0.04700000
v -0.02803777 -0.02809048 -0.04700000
v -0.02920265 -0.02670846 -0.04700000
v -0.02417632 -0.03155439 -0.04700000
v -0.02530844 -0.03050728 -0.04700000
v -0.01878491 -0.03518489 -0.04700000
v -0.01930489 -0.03484659 -0.04700000
v -0.01524435 -0.03695951 -0.04700000
v -0.01551636 -0.03681663 -0.04700000
v -0.00775164 -0.03927132 -0.04700000
v -0.01007175 -0.03873178 -0.04700000
v -0.00071654 -0.03990426 -0.04700000
v -0.00259243 -0.03988444 -0.04700000
v -0.00259243 -0.03988444 -0.04700000
v -0.00395090 -0.03976506 -0.04700000
v -0.03640109 -0.01543378 -0.04700000
v -0.03676632 -0.01446032 -0.04700000
v -0.03737321 -0.01286087 -0.04700000
v -0.03767651 -0.01186126 -0.04700000
v -0.03817390 -0.01022941 -0.04700000
v -0.03856736 -0.00829979 -0.04700000
v -0.03920116 -0.00515927 -0.04700000
v -0.03933833 -0.00368823 -0.04700000
v -0.03929378 0.00517735 -0.04700000
v -0.03922470 0.00565736 -0.04700000
v -0.00518004 -0.03966624 -0.04700000
v -0.00699896 -0.03938115 -0.04700000
v -0.03143318 -0.02415264 -0.04700000
v -0.03197753 -0.02336594 -0.04700000
v -0.03396155 -0.02036042 -0.04700000
v -0.03444140 -0.01945466 -0.04700000
v -0.03954936 -0.00129050 -0.04700000
v -0.03954619 0.00018061 -0.04700000
v -0.03952401 0.00259372 -0.04700000
v -0.03949139 0.00308094 -0.04700000
v -0.01279559 -0.03791538 -0.04700000
v -0.01291020 -0.03786385 -0.04700000
v -0.01152357 -0.03829899 -0.04700000
v -0.01279559 -0.03791538 -0.04700000
v -0.01762424 -0.03581898 -0.04700000
v -0.01781277 -0.03570878 -0.04700000
v -0.02154525 -0.03347183 -0.04700000
v -0.02217655 -0.03299354 -0.04700000
v -0.03293274 -0.02202251 -0.04700000
v -0.03318773 -0.02161200 -0.04700000
v -0.03526232 -0.01793730 -0.04700000
v -0.03568631 -0.01699559 -0.04700000
v -0.03943098 0.00388766 -0.04700000
v -0.03938171 0.00437167 -0.04700000
v -0.03887581 0.00773722 -0.04700000
v -0.03868200 0.00857021 -0.04700000
v -0.03868200 0.00857021 -0.04700000
v -0.03865714 0.00867708 -0.04700000
v 0.03834660 0.01000000 -0.04700000
v 0.03850353 0.00932551 -0.04700000
f 4 5 6
f 7 8 9
f 10 11 12
f 13 14 15
f 19 20 21
f 22 23 24
f 25 26 27
f 28 29 30
f 31 32 33
f 34 35 36
f 37 38 39
f 40 41 42
f 43 44 45
f 46 47 48
f 49 50 51
f 52 53 54
f 55 56 57
f 58 59 60
f 61 62 63
f 64 65 66
f 67 68 69
f 70 71 72
f 73 74 75
f 82 83 84
f 85 86 87
f 88 89 90
f 91 92 93
f 94 95 96
f 97 98 99
f 107 108 109
f 110 111 112
f 116 117 118
f 119 120 121
f 125 126 127
f 128 129 130
f 134 135 136
f 145 146 147
f 148 149 150
f 154 155 156
f 157 158 159
f 163 164 165
f 166 167 168
f 175 176 177
f 178 179 180
f 181 182 183
f 189 190 191
f 192 193 194
f 195 196 197
f 198 199 200
f 201 202 203
f 204 205 206
f 207 208 209
f 210 211 212
f 213 214 215
f 216 217 218
f 219 220 221
f 222 223 224
f 225 226 227
f 228 229 230
f 231 232 233
f 234 235 236
f 243 244 245
f 246 247 248
f 249 250 251
f 254 255 256
f 257 258 259
f 260 261 262
f 263 264 265
f 269 270 271
f 272 273 274
f 275 276 277
f 278 279 280
f 284 285 286
f 287 288 289
f 290 291 292
f 293 294 295
f 296 297 298
f 299 300 301
f 302 303 304
f 311 312 313
f 314 315 316
f 320 321 322
f 323 324 325
f 329 330 331
f 332 333 334
f 338 339 340
f 341 342 343
f 347 348 349
f 351 352 353
f 356 357 358
f 359 360 361
f 368 367 369
f 369 367 370
f 369 370 371
f 371 370 372
f 371 372 373
f 373 372 374
f 373 374 375
f 375 374 376
f 375 376 377
f 377 376 378
f 378 376 379
f 378 379 380
f 380 379 381
f 380 381 382
f 382 381 383
f 383 381 384
f 383 384 385
f 385 384 386
f 385 386 387
f 387 386 388
f 387 388 389
f 389 388 390
f 389 390 391
f 391 390 392
f 392 390 393
f 393 390 394
f 393 394 395
f 395 394 396
f 395 396 397
f 397 396 398
f 397 398 399
f 399 398 400
f 399 400 401
f 401 400 402
f 401 402 403
f 403 402 404
f 404 402 405
f 404 405 406
f 406 405 407
f 406 407 408
f 408 407 409
f 409 407 410
f 409 410 411
f 411 410 412
f 411 412 413
f 17 18 474
f 140 139 477
f 252 253 479
f 354 355 482
f 367 368 484
f 413 412 486
f 474 475 17
f 477 478 140
f 479 480 252
f 482 483 354
f 484 485 367
f 486 487 413
f 16 490 491
f 138 492 493
f 141 494 495
f 305 496 497
f 350 498 499
f 367 500 501
f 413 502 503
f 473 504 505
f 416 417 506
f 419 420 508
f 422 423 510
f 425 426 512
f 428 429 514
f 431 432 516
f 434 435 518
f 437 438 520
f 440 441 522
f 443 444 524
f 446 447 526
f 449 450 528
f 452 453 530
f 455 456 532
f 458 459 534
f 461 462 536
f 464 465 538
f 467 468 540
f 470 471 542
f 472 489 544
f 488 414 546
f 506 507 416
f 508 509 419
f 510 511 422
f 512 513 425
f 514 515 428
f 516 517 431
f 518 519 434
f 520 521 437
f 522 523 440
f 524 525 443
f 526 527 446
f 528 529 449
f 530 531 452
f 532 533 455
f 534 535 458
f 536 537 461
f 538 539 464
f 540 541 467
f 542 543 470
f 544 545 472
f 546 547 488
f 415 548 549
f 418 550 551
f 421 552 553
f 424 554 555
f 427 556 557
f 430 558 559
f 433 560 561
f 436 562 563
f 439 564 565
f 442 566 567
f 445 568 569
f 448 570 571
f 451 572 573
f 454 574 575
f 457 576 577
f 460 578 579
f 463 580 581
f 466 582 583
f 469 584 585
f 414 586 587
f 489 588 589
f 2 3 590
f 76 77 592
f 80 81 594
f 100 101 596
f 102 103 598
f 106 105 600
f 115 114 602
f 124 123 604
f 133 132 606
f 144 143 608
f 153 152 610
f 162 161 612
f 172 171 614
f 173 174 616
f 185 186 618
f 187 188 620
f 237 238 622
f 241 242 624
f 266 267 626
f 281 282 628
f 310 309 630
f 319 318 632
f 328 327 634
f 337 336 636
f 346 345 638
f 363 364 640
f 365 366 642
f 306 481 644
f 476 137 646
f 590 591 2
f 592 593 76
f 594 595 80
f 596 597 100
f 598 599 102
f 600 601 106
f 602 603 115
f 604 605 124
f 606 607 133
f 608 609 144
f 610 611 153
f 612 613 162
f 614 615 172
f 616 617 173
f 618 619 185
f 620 621 187
f 622 623 237
f 624 625 241
f 626 627 266
f 628 629 281
f 630 631 310
f 632 633 319
f 634 635 328
f 636 637 337
f 638 639 346
f 640 641 363
f 642 643 365
f 644 645 306
f 646 647 476
f 1 648 649
f 78 650 651
f 79 652 653
f 104 654 655
f 113 656 657
f 122 658 659
f 131 660 661
f 142 662 663
f 151 664 665
f 160 666 667
f 169 668 669
f 170 670 671
f 184 672 673
f 239 674 675
f 240 676 677
f 268 678 679
f 283 680 681
f 307 682 683
f 308 684 685
f 317 686 687
f 326 688 689
f 335 690 691
f 344 692 693
f 362 694 695
f 137 696 697
f 481 698 699
f 703 704 705
f 706 707 708
f 709 710 711
f 712 713 714
f 715 716 717
f 718 719 720
f 721 722 723
f 724 725 726
f 733 734 735
f 736 737 738
f 742 743 744
f 745 746 747
f 748 749 750
f 751 752 753
f 754 755 756
f 757 758 759
f 760 761 762
f 763 764 765
f 772 773 774
f 775 776 777
f 781 782 783
f 784 785 786
f 787 788 789
f 790 791 792
f 793 794 795
f 796 797 798
f 799 800 801
f 802 803 804
f 805 806 807
f 814 815 816
f 821 822 823
f 824 825 826
f 827 828 829
f 830 831 832
f 835 836 837
f 838 839 840
f 841 842 843
f 847 848 849
f 850 851 852
f 853 854 855
f 856 857 858
f 862 863 864
f 865 866 867
f 868 869 870
f 871 872 873
f 877 878 879
f 880 881 882
f 883 884 885
f 886 887 888
f 892 893 894
f 895 896 897
f 898 899 900
f 901 902 903
f 904 905 906
f 907 908 909
f 910 911 912
f 916 917 918
f 919 920 921
f 922 923 924
f 925 926 927
f 931 932 933
f 934 935 936
f 937 938 939
f 940 941 942
f 943 944 945
f 946 947 948
f 951 952 953
f 954 955 956
f 957 958 959
f 960 961 962
f 963 964 965
f 973 974 975
f 976 977 978
f 995 996 997
f 998 999 1000
f 1011 1012 1013
f 1016 1017 1018
f 1019 1020 1021
f 1022 1023 1024
f 1025 1026 1027
f 1028 1029 1030
f 1031 1032 1033
f 1034 1035 1036
f 1037 1038 1039
f 1041 1042 1043
f 1044 1045 1046
f 1047 1048 1049
f 1050 1051 1052
f 1056 1057 1058
f 1059 1060 1061
f 1062 1063 1064
f 1065 1066 1067
f 1068 1069 1070
f 1074 1075 1076
f 1077 1078 1079
f 1080 1081 1082
f 1083 1084 1085
f 1086 1087 1088
f 1089 1090 1091
f 1092 1093 1094
f 1095 1096 1097
f 1098 1099 1100
f 1101 1102 1103
f 1104 1105 1106
f 1107 1108 1109
f 1110 1111 1112
f 1113 1114 1115
f 1116 1117 1118
f 1119 1120 1121
f 1128 1129 1130
f 1131 1132 1133
f 1134 1135 1136
f 1137 1138 1139
f 1140 1141 1142
f 1143 1144 1145
f 1146 1147 1148
f 1149 1150 1151
f 1152 1153 1154
f 1155 1156 1157
f 1160 1161 1162
f 1163 1164 1165
f 1166 1167 1168
f 1169 1170 1171
f 1172 1173 1174
f 1175 1176 1177
f 1178 1179 1180
f 1181 1182 1183
f 1184 1185 1186
f 1187 1188 1189
f 1193 1194 1195
f 1196 1197 1198
f 1199 1200 1201
f 1202 1203 1204
f 1205 1206 1207
f 1211 1212 1213
f 1214 1215 1216
f 1217 1218 1219
f 1220 1221 1222
f 1223 1224 1225
f 1229 1230 1231
f 1232 1233 1234
f 1235 1236 1237
f 1248 1249 1250
f 1251 1252 1253
f 1257 1258 1259
f 1260 1261 1262
f 1266 1267 1268
f 1269 1270 1271
f 1275 1276 1277
f 1278 1279 1280
f 1289 1290 1291
f 1292 1293 1294
f 1295 1296 1297
f 1298 1299 1300
f 1301 1302 1303
f 1304 1305 1306
f 1307 1308 1309
f 1313 1314 1315
f 1316 1317 1318
f 1319 1320 1321
f 1325 1326 1327
f 1328 1329 1330
f 1334 1335 1336
f 1337 1338 1339
f 1345 1346 1347
f 1348 1349 1350
f 1362 1363 1364
f 1368 1369 1370
f 1374 1375 1376
f 1381 1382 1383
f 1383 1382 1384
f 1383 1384 1385
f 1385 1384 1386
f 1385 1386 1387
f 1382 1381 1388
f 1390 1389 1391
f 1390 1391 1392
f 1392 1391 1393
f 1393 1391 1394
f 1393 1394 1395
f 1395 1394 1396
f 1395 1396 1397
f 1397 1396 1398
f 1397 1398 1399
f 1399 1398 1400
f 1400 1398 1401
f 1400 1401 1402
f 1402 1401 1403
f 1403 1401 1404
f 1403 1404 1405
f 1405 1404 1406
f 1405 1406 1407
f 1407 1406 1408
f 1407 1408 1409
f 1409 1408 1410
f 1409 1410 1411
f 1411 1410 1412
f 1412 1410 1413
f 1412 1413 1414
f 1414 1413 1415
f 1414 1415 1416
f 1416 1415 1417
f 1416 1417 1418
f 1418 1417 1419
f 1418 1419 1420
f 1420 1419 1421
f 1420 1421 1422
f 1422 1421 1423
f 1422 1423 1424
f 1424 1423 1425
f 1424 1425 1426
f 1426 1425 1427
f 1426 1427 1428
f 1428 1427 1429
f 1429 1427 1430
f 1429 1430 1431
f 1431 1430 1432
f 1431 1432 1433
f 1433 1432 1434
f 1433 1434 1435
f 1435 1434 1436
f 1435 1436 1437
f 1437 1436 1438
f 1438 1436 1439
f 1438 1439 1440
f 1440 1439 1441
f 1441 1439 1442
f 1441 1442 1387
f 1387 1442 1385
f 966 967 1524
f 1003 1004 1528
f 1053 1054 1530
f 1343 1344 1532
f 1388 1381 1534
f 1389 1390 1536
f 1524 1525 966
f 1528 1529 1003
f 1530 1531 1053
f 1532 1533 1343
f 1534 1535 1388
f 1536 1537 1389
f 1538 1539 1451
f 968 1540 1541
f 1002 1543 1544
f 1040 1545 1546
f 1351 1548 1549
f 1388 1550 1551
f 1389 1552 1553
f 1444 1445 1556
f 1447 1448 1558
f 1453 1454 1560
f 1456 1457 1562
f 1459 1460 1564
f 1462 1463 1566
f 1465 1466 1568
f 1468 1469 1570
f 1471 1472 1572
f 1474 1475 1574
f 1477 1478 1576
f 1480 1481 1578
f 1483 1484 1580
f 1486 1487 1582
f 1489 1490 1584
f 1492 1493 1586
f 1495 1496 1588
f 1498 1499 1590
f 1501 1502 1592
f 1504 1505 1594
f 1507 1508 1596
f 1510 1511 1598
f 1513 1514 1600
f 1516 1517 1602
f 1519 1520 1604
f 1522 1523 1606
f 1538 1451 1608
f 1450 1554 1610
f 1556 1557 1444
f 1558 1559 1447
f 1560 1561 1453
f 1562 1563 1456
f 1564 1565 1459
f 1566 1567 1462
f 1568 1569 1465
f 1570 1571 1468
f 1572 1573 1471
f 1574 1575 1474
f 1576 1577 1477
f 1578 1579 1480
f 1580 1581 1483
f 1582 1583 1486
f 1584 1585 1489
f 1586 1587 1492
f 1588 1589 1495
f 1590 1591 1498
f 1592 1593 1501
f 1594 1595 1504
f 1596 1597 1507
f 1598 1599 1510
f 1600 1601 1513
f 1602 1603 1516
f 1604 1605 1519
f 1606 1607 1522
f 1608 1609 1538
f 1610 1611 1450
f 1443 1612 1613
f 1446 1614 1615
f 1452 1616 1617
f 1455 1618 1619
f 1458 1620 1621
f 1461 1622 1623
f 1464 1624 1625
f 1467 1626 1627
f 1470 1628 1629
f 1473 1630 1631
f 1476 1632 1633
f 1479 1634 1635
f 1482 1636 1637
f 1485 1638 1639
f 1488 1640 1641
f 1491 1642 1643
f 1494 1644 1645
f 1497 1646 1647
f 1500 1648 1649
f 1503 1650 1651
f 1506 1652 1653
f 1509 1654 1655
f 1512 1656 1657
f 1515 1658 1659
f 1518 1660 1661
f 1521 1662 1663
f 1449 1664 1665
f 1555 1666 1667
f 702 701 1668
f 727 728 1670
f 732 731 1672
f 741 740 1674
f 766 767 1676
f 771 770 1678
f 780 779 1680
f 808 809 1682
f 813 812 1684
f 820 819 1686
f 833 834 1688
f 844 845 1690
f 859 860 1692
f 874 875 1694
f 889 890 1696
f 913 914 1698
f 928 929 1700
f 949 950 1702
f 972 971 1704
f 980 979 1706
f 983 982 1708
f 987 986 1710
f 990 989 1712
f 994 993 1714
f 1006 1007 1716
f 1009 1008 1718
f 1014 1015 1720
f 1071 1072 1722
f 1122 1123 1724
f 1126 1127 1726
f 1158 1159 1728
f 1190 1191 1730
f 1208 1209 1732
f 1226 1227 1734
f 1238 1239 1736
f 1242 1241 1738
f 1247 1246 1740
f 1256 1255 1742
f 1265 1264 1744
f 1274 1273 1746
f 1283 1284 1748
f 1285 1286 1750
f 1287 1288 1752
f 1310 1311 1754
f 1322 1323 1756
f 1331 1332 1758
f 1340 1341 1760
f 1355 1356 1762
f 1358 1359 1764
f 1360 1361 1766
f 1366 1367 1768
f 1372 1373 1770
f 1379 1380 1772
f 1001 1526 1774
f 1526 1527 1776
f 1547 1055 1778
f 1668 1669 702
f 1670 1671 727
f 1672 1673 732
f 1674 1675 741
f 1676 1677 766
f 1678 1679 771
f 1680 1681 780
f 1682 1683 808
f 1684 1685 813
f 1686 1687 820
f 1688 1689 833
f 1690 1691 844
f 1692 1693 859
f 1694 1695 874
f 1696 1697 889
f 1698 1699 913
f 1700 1701 928
f 1702 1703 949
f 1704 1705 972
f 1706 1707 980
f 1708 1709 983
f 1710 1711 987
f 1712 1713 990
f 1714 1715 994
f 1716 1717 1006
f 1718 1719 1009
f 1720 1721 1014
f 1722 1723 1071
f 1724 1725 1122
f 1726 1727 1126
f 1728 1729 1158
f 1730 1731 1190
f 1732 1733 1208
f 1734 1735 1226
f 1736 1737 1238
f 1738 1739 1242
f 1740 1741 1247
f 1742 1743 1256
f 1744 1745 1265
f 1746 1747 1274
f 1748 1749 1283
f 1750 1751 1285
f 1752 1753 1287
f 1754 1755 1310
f 1756 1757 1322
f 1758 1759 1331
f 1760 1761 1340
f 1762 1763 1355
f 1764 1765 1358
f 1766 1767 1360
f 1768 1769 1366
f 1770 1771 1372
f 1772 1773 1379
f 1774 1775 1001
f 1776 1777 1526
f 1778 1779 1547
f 700 1780 1781
f 729 1782 1783
f 730 1784 1785
f 739 1786 1787
f 768 1788 1789
f 769 1790 1791
f 778 1792 1793
f 810 1794 1795
f 811 1796 1797
f 817 1798 1799
f 818 1800 1801
f 846 1802 1803
f 861 1804 1805
f 876 1806 1807
f 891 1808 1809
f 915 1810 1811
f 930 1812 1813
f 969 1814 1815
f 970 1816 1817
f 981 1818 1819
f 984 1820 1821
f 985 1822 1823
f 988 1824 1825
f 991 1826 1827
f 992 1828 1829
f 1005 1830 1831
f 1010 1832 1833
f 1073 1834 1835
f 1124 1836 1837
f 1125 1838 1839
f 1192 1840 1841
f 1210 1842 1843
f 1228 1844 1845
f 1240 1846 1847
f 1243 1848 1849
f 1244 1850 1851
f 1245 1852 1853
f 1254 1854 1855
f 1263 1856 1857
f 1272 1858 1859
f 1281 1860 1861
f 1282 1862 1863
f 1312 1864 1865
f 1324 1866 1867
f 1333 1868 1869
f 1342 1870 1871
f 1352 1872 1873
f 1353 1874 1875
f 1354 1876 1877
f 1357 1878 1879
f 1365 1880 1881
f 1371 1882 1883
f 1377 1884 1885
f 1378 1886 1887
f 1378 1888 1889
f 1542 1890 1891

