# https://github.com/mikedh/trimesh
v -0.05531096 -0.07506793 0.00725198
v -0.05452895 -0.07506793 0.00717896
v -0.05578398 -0.07506793 0.00011900
v -0.05499994 -0.07506793 0.00000000
v -0.05534195 -0.07506793 -0.00701499
v -0.05452895 -0.07506793 -0.00717896
v -0.05398994 -0.07506793 -0.01403498
v -0.05312597 -0.07506793 -0.01423496
v -0.05175197 -0.07506793 -0.02082300
v -0.05081295 -0.07506793 -0.02104800
v -0.04866498 -0.07506799 -0.02726995
v -0.04763096 -0.07506799 -0.02749997
v -0.04477798 -0.07506799 -0.03327000
v -0.04363399 -0.07506799 -0.03348195
v -0.04477798 -0.07506799 -0.03327000
v -0.04363399 -0.07506799 -0.03348195
v -0.04015594 -0.07506799 -0.03872299
v -0.04015594 -0.07506799 -0.03872299
v -0.03889095 -0.07506799 -0.03889095
v -0.03487396 -0.07506799 -0.04354000
v -0.03348195 -0.07506799 -0.04363399
v -0.02901995 -0.07506799 -0.04764199
v -0.02749997 -0.07506799 -0.04763096
v -0.02268999 -0.07506799 -0.05096197
v -0.02104794 -0.07506799 -0.05081295
v -0.01598697 -0.07506799 -0.05344498
v -0.01423496 -0.07506799 -0.05312597
v -0.01598697 -0.07506799 -0.05344498
v -0.01423496 -0.07506799 -0.05312597
v -0.00902098 -0.07506799 -0.05504995
v -0.00902098 -0.07506799 -0.05504995
v -0.01423496 -0.07506799 -0.05312597
v -0.00717896 -0.07506799 -0.05452895
v -0.00902098 -0.07506799 -0.05504995
v -0.00717896 -0.07506799 -0.05452895
v -0.00190699 -0.07506799 -0.05575197
v -0.00190699 -0.07506799 -0.05575197
v -0.00717896 -0.07506799 -0.05452895
v 0.00000000 -0.07506799 -0.05499994
v 0.00523800 -0.07506799 -0.05553799
v 0.00523800 -0.07506799 -0.05553799
v 0.00000000 -0.07506799 -0.05499994
v 0.00717896 -0.07506799 -0.05452895
v 0.00523800 -0.07506799 -0.05553799
v 0.00717896 -0.07506799 -0.05452895
v 0.01229697 -0.07506799 -0.05441194
v 0.01423496 -0.07506799 -0.05312597
v 0.01229697 -0.07506799 -0.05441194
v 0.01423496 -0.07506799 -0.05312597
v 0.01915395 -0.07506799 -0.05239295
v 0.01915395 -0.07506799 -0.05239295
v 0.01423496 -0.07506799 -0.05312597
v 0.02104794 -0.07506799 -0.05081295
v 0.01915395 -0.07506799 -0.05239295
v 0.02104794 -0.07506799 -0.05081295
v 0.02569699 -0.07506799 -0.04951399
v 0.02569699 -0.07506799 -0.04951399
v 0.02749997 -0.07506799 -0.04763096
v 0.02749997 -0.07506799 -0.04763096
v 0.03181695 -0.07506799 -0.04582095
v 0.03181695 -0.07506799 -0.04582095
v 0.03348195 -0.07506799 -0.04363399
v 0.03741598 -0.07506799 -0.04137599
v 0.03889095 -0.07506799 -0.03889095
v 0.04239898 -0.07506799 -0.03625196
v 0.04363399 -0.07506799 -0.03348195
v 0.04668694 -0.07506799 -0.03053200
v 0.04763096 -0.07506799 -0.02749997
v 0.05020797 -0.07506799 -0.02431100
v 0.05081295 -0.07506793 -0.02104800
v 0.05290496 -0.07506793 -0.01769095
v 0.05312597 -0.07506793 -0.01423496
v 0.05473297 -0.07506793 -0.01078099
v 0.05452895 -0.07506793 -0.00717896
v 0.05566197 -0.07506793 -0.00369298
v 0.05499994 -0.07506793 0.00000000
v 0.05567699 -0.07506793 0.00345498
v 0.05452895 -0.07506793 0.00717896
v 0.05477899 -0.07506793 0.01054698
v 0.05312597 -0.07506793 0.01423496
v 0.05297994 -0.07506793 0.01746499
v 0.05081295 -0.07506793 0.02104794
v 0.05031198 -0.07506793 0.02409595
v 0.04763096 -0.07506793 0.02749997
v 0.04681700 -0.07506793 0.03033196
v 0.04363399 -0.07506793 0.03348195
v 0.04255396 -0.07506793 0.03606998
v 0.03889095 -0.07506793 0.03889095
v 0.03759199 -0.07506793 0.04121595
v 0.03348195 -0.07506793 0.04363399
v 0.03759199 -0.07506793 0.04121595
v 0.03201299 -0.07506793 0.04568499
v 0.03201299 -0.07506793 0.04568499
v 0.02749997 -0.07506793 0.04763096
v 0.02590799 -0.07506793 0.04940295
v 0.02104794 -0.07506793 0.05081295
v 0.02590799 -0.07506793 0.04940295
v 0.02104794 -0.07506793 0.05081295
v 0.01937800 -0.07506793 0.05231100
v 0.01423496 -0.07506793 0.05312597
v 0.01937800 -0.07506793 0.05231100
v 0.01423496 -0.07506793 0.05312597
v 0.01252996 -0.07506793 0.05435895
v 0.00717896 -0.07506793 0.05452895
v 0.00547498 -0.07506793 0.05551499
v 0.00547498 -0.07506793 0.05551499
v 0.00717896 -0.07506793 0.05452895
v 0.00000000 -0.07506793 0.05499994
v -0.00166899 -0.07506793 0.05575996
v -0.00166899 -0.07506793 0.05575996
v 0.00000000 -0.07506793 0.05499994
v -0.00717896 -0.07506793 0.05452895
v -0.00717896 -0.07506793 0.05452895
v -0.00878495 -0.07506793 0.05508798
v -0.00878495 -0.07506793 0.05508798
v -0.01423496 -0.07506793 0.05312597
v -0.01423496 -0.07506793 0.05312597
v -0.01575797 -0.07506793 0.05351299
v -0.02104794 -0.07506793 0.05081295
v -0.01575797 -0.07506793 0.05351299
v -0.02104794 -0.07506793 0.05081295
v -0.02247196 -0.07506793 0.05105799
v -0.02749997 -0.07506793 0.04763096
v -0.02881598 -0.07506793 0.04776495
v -0.02881598 -0.07506793 0.04776495
v -0.03348195 -0.07506793 0.04363399
v -0.03348195 -0.07506793 0.04363399
v -0.03468799 -0.07506793 0.04368799
v -0.03889095 -0.07506793 0.03889095
v -0.03998994 -0.07506793 0.03889399
v -0.04363399 -0.07506793 0.03348195
v -0.04463499 -0.07506793 0.03346097
v -0.04763096 -0.07506793 0.02749997
v -0.04854696 -0.07506793 0.02747797
v -0.05081295 -0.07506793 0.02104794
v -0.05166298 -0.07506793 0.02104496
v -0.05312597 -0.07506793 0.01423496
v -0.05392998 -0.07506793 0.01426500
v -0.00712895 -0.20355991 0.06919997
v 0.00000000 -0.20401791 0.06919997
v 0.01756697 -0.09535795 0.06919997
v 0.00712895 -0.20355991 0.06919997
v 0.01414096 -0.20219401 0.06919997
v 0.02092099 -0.19994301 0.06919997
v 0.02418899 -0.09803897 0.06919997
v 0.02735799 -0.19684391 0.06919997
v 0.03041398 -0.10154400 0.06919997
v 0.03334498 -0.19294700 0.06919997
v 0.03613895 -0.10581700 0.06919997
v 0.03878396 -0.18831590 0.06919997
v 0.04126995 -0.11078700 0.06919997
v 0.04358696 -0.18302700 0.06919997
v 0.04572498 -0.11637190 0.06919997
v 0.04767400 -0.17716800 0.06919997
v 0.04942798 -0.12248090 0.06919997
v 0.05097895 -0.17083400 0.06919997
v 0.05232000 -0.12901400 0.06919997
v 0.05344599 -0.16413000 0.06919997
v 0.05435198 -0.13586190 0.06919997
v 0.05503499 -0.15716490 0.06919997
v 0.05549198 -0.14291500 0.06919997
v 0.05572098 -0.15005490 0.06919997
v 0.01065695 -0.09354597 0.06919997
v -0.01756697 -0.09535795 0.06919997
v -0.02418899 -0.09803897 0.06919997
v -0.03041398 -0.10154400 0.06919997
v -0.01065695 -0.09354597 0.06919997
v 0.00357199 -0.09263199 0.06919997
v -0.00357199 -0.09263199 0.06919997
v -0.03613895 -0.10581700 0.06919997
v -0.04126995 -0.11078700 0.06919997
v -0.04572498 -0.11637190 0.06919997
v -0.04942798 -0.12248090 0.06919997
v -0.05232000 -0.12901400 0.06919997
v -0.05435198 -0.13586190 0.06919997
v -0.05549198 -0.14291500 0.06919997
v -0.05572098 -0.15005490 0.06919997
v -0.05503499 -0.15716490 0.06919997
v -0.05344599 -0.16413000 0.06919997
v -0.05097895 -0.17083400 0.06919997
v -0.04767400 -0.17716800 0.06919997
v -0.04358696 -0.18302700 0.06919997
v -0.03878396 -0.18831590 0.06919997
v -0.03334498 -0.19294700 0.06919997
v -0.02735799 -0.19684391 0.06919997
v -0.02092099 -0.19994301 0.06919997
v -0.01414096 -0.20219401 0.06919997
v 0.00050000 -0.20726600 0.06769996
v 0.00787097 -0.20674001 0.06769996
v 0.00050000 -0.20696589 0.06769996
v 0.00712895 -0.20355991 0.06769996
v 0.00000000 -0.20401791 0.06769996
v 0.01414096 -0.20219401 0.06769996
v 0.01511800 -0.20529801 0.06769996
v 0.02092099 -0.19994301 0.06769996
v 0.02212798 -0.20296100 0.06769996
v 0.02879095 -0.19976591 0.06769996
v 0.02735799 -0.19684391 0.06769996
v 0.03500199 -0.19576401 0.06769996
v 0.03334498 -0.19294700 0.06769996
v 0.04066395 -0.19101600 0.06769996
v 0.03878396 -0.18831590 0.06769996
v 0.04568898 -0.18559800 0.06769996
v 0.04358696 -0.18302700 0.06769996
v 0.04999697 -0.17959391 0.06769996
v 0.04767400 -0.17716800 0.06769996
v 0.05351996 -0.17309891 0.06769996
v 0.05097895 -0.17083400 0.06769996
v 0.05620396 -0.16621390 0.06769996
v 0.05344599 -0.16413000 0.06769996
v 0.05800700 -0.15904801 0.06769996
v 0.05503499 -0.15716490 0.06769996
v 0.05889898 -0.15171300 0.06769996
v 0.05572098 -0.15005490 0.06769996
v 0.05886799 -0.14432400 0.06769996
v 0.05549198 -0.14291500 0.06769996
v 0.05791300 -0.13699600 0.06769996
v 0.05435198 -0.13586190 0.06769996
v 0.05605000 -0.12984601 0.06769996
v 0.05232000 -0.12901400 0.06769996
v 0.05330795 -0.12298390 0.06769996
v 0.04942798 -0.12248090 0.06769996
v 0.04972898 -0.11651900 0.06769996
v 0.04572498 -0.11637190 0.06769996
v 0.04537099 -0.11055200 0.06769996
v 0.04126995 -0.11078700 0.06769996
v 0.04030096 -0.10517690 0.06769996
v 0.03613895 -0.10581700 0.06769996
v 0.03459799 -0.10047700 0.06769996
v 0.03041398 -0.10154400 0.06769996
v 0.02835297 -0.09652698 0.06769996
v 0.02418899 -0.09803897 0.06769996
v 0.02166396 -0.09338897 0.06769996
v 0.01756697 -0.09535795 0.06769996
v 0.01463395 -0.09111094 0.06769996
v 0.01065695 -0.09354597 0.06769996
v 0.00737494 -0.08973097 0.06769996
v 0.00357199 -0.09263199 0.06769996
v 0.00000000 -0.08926796 0.06769996
v -0.00357199 -0.09263199 0.06769996
v -0.00737494 -0.08973097 0.06769996
v -0.01065695 -0.09354597 0.06769996
v -0.01463395 -0.09111094 0.06769996
v -0.01756697 -0.09535795 0.06769996
v -0.02166396 -0.09338897 0.06769996
v -0.02418899 -0.09803897 0.06769996
v -0.02835297 -0.09652698 0.06769996
v -0.03041398 -0.10154400 0.06769996
v -0.03459799 -0.10047700 0.06769996
v -0.03613895 -0.10581700 0.06769996
v -0.04030096 -0.10517690 0.06769996
v -0.04126995 -0.11078700 0.06769996
v -0.04537099 -0.11055200 0.06769996
v -0.04572498 -0.11637190 0.06769996
v -0.04972898 -0.11651900 0.06769996
v -0.04942798 -0.12248090 0.06769996
v -0.05330795 -0.12298390 0.06769996
v -0.05232000 -0.12901400 0.06769996
v -0.05605000 -0.12984601 0.06769996
v -0.05435198 -0.13586190 0.06769996
v -0.05791300 -0.13699600 0.06769996
v -0.05549198 -0.14291500 0.06769996
v -0.05886799 -0.14432400 0.06769996
v -0.05572098 -0.15005490 0.06769996
v -0.05889898 -0.15171300 0.06769996
v -0.05503499 -0.15716490 0.06769996
v -0.05800700 -0.15904801 0.06769996
v -0.05344599 -0.16413000 0.06769996
v -0.05620396 -0.16621390 0.06769996
v -0.05097895 -0.17083400 0.06769996
v -0.05351996 -0.17309891 0.06769996
v -0.04767400 -0.17716800 0.06769996
v -0.04999697 -0.17959391 0.06769996
v -0.04358696 -0.18302700 0.06769996
v -0.04568898 -0.18559800 0.06769996
v -0.03878396 -0.18831590 0.06769996
v -0.04066395 -0.19101600 0.06769996
v -0.03334498 -0.19294700 0.06769996
v -0.03500199 -0.19576401 0.06769996
v -0.02735799 -0.19684391 0.06769996
v -0.02879095 -0.19976591 0.06769996
v -0.02092099 -0.19994301 0.06769996
v -0.02212798 -0.20296100 0.06769996
v -0.01511800 -0.20529801 0.06769996
v -0.01414096 -0.20219401 0.06769996
v -0.00787097 -0.20674001 0.06769996
v -0.00712895 -0.20355991 0.06769996
v -0.00050000 -0.20696589 0.06769996
v -0.00050000 -0.20726600 0.06769996
v 0.00712895 -0.20355991 0.06769996
v 0.00712895 -0.20355991 0.06919997
v 0.00000000 -0.20401791 0.06769996
v 0.00000000 -0.20401791 0.06919997
v 0.00000000 -0.20401791 0.06769996
v 0.00000000 -0.20401791 0.06919997
v -0.00712895 -0.20355991 0.06769996
v -0.00712895 -0.20355991 0.06919997
v -0.00712895 -0.20355991 0.06769996
v -0.00712895 -0.20355991 0.06919997
v -0.01414096 -0.20219401 0.06769996
v -0.01414096 -0.20219401 0.06919997
v -0.01414096 -0.20219401 0.06769996
v -0.01414096 -0.20219401 0.06919997
v -0.02092099 -0.19994301 0.06769996
v -0.02092099 -0.19994301 0.06919997
v -0.02092099 -0.19994301 0.06919997
v -0.02735799 -0.19684391 0.06769996
v -0.02735799 -0.19684391 0.06919997
v -0.03334498 -0.19294700 0.06769996
v -0.03334498 -0.19294700 0.06919997
v -0.03334498 -0.19294700 0.06919997
v -0.03878396 -0.18831590 0.06769996
v -0.03878396 -0.18831590 0.06919997
v -0.04358696 -0.18302700 0.06769996
v -0.04358696 -0.18302700 0.06919997
v -0.04358696 -0.18302700 0.06769996
v -0.04767400 -0.17716800 0.06769996
v -0.04767400 -0.17716800 0.06769996
v -0.04767400 -0.17716800 0.06919997
v -0.04767400 -0.17716800 0.06769996
v -0.04767400 -0.17716800 0.06919997
v -0.05097895 -0.17083400 0.06769996
v -0.05097895 -0.17083400 0.06919997
v -0.05097895 -0.17083400 0.06769996
v -0.05097895 -0.17083400 0.06919997
v -0.05344599 -0.16413000 0.06769996
v -0.05344599 -0.16413000 0.06919997
v -0.05344599 -0.16413000 0.06769996
v -0.05344599 -0.16413000 0.06919997
v -0.05503499 -0.15716490 0.06769996
v -0.05503499 -0.15716490 0.06769996
v -0.05344599 -0.16413000 0.06919997
v -0.05503499 -0.15716490 0.06919997
v -0.05503499 -0.15716490 0.06769996
v -0.05503499 -0.15716490 0.06919997
v -0.05572098 -0.15005490 0.06769996
v -0.05572098 -0.15005490 0.06919997
v -0.05572098 -0.15005490 0.06769996
v -0.05572098 -0.15005490 0.06919997
v -0.05549198 -0.14291500 0.06769996
v -0.05572098 -0.15005490 0.06919997
v -0.05549198 -0.14291500 0.06919997
v -0.05435198 -0.13586190 0.06769996
v -0.05435198 -0.13586190 0.06769996
v -0.05435198 -0.13586190 0.06919997
v -0.05435198 -0.13586190 0.06769996
v -0.05435198 -0.13586190 0.06919997
v -0.05232000 -0.12901400 0.06769996
v -0.05232000 -0.12901400 0.06919997
v -0.05232000 -0.12901400 0.06769996
v -0.05232000 -0.12901400 0.06919997
v -0.04942798 -0.12248090 0.06769996
v -0.04942798 -0.12248090 0.06919997
v -0.04572498 -0.11637190 0.06769996
v -0.04572498 -0.11637190 0.06919997
v -0.04126995 -0.11078700 0.06769996
v -0.04126995 -0.11078700 0.06769996
v -0.04572498 -0.11637190 0.06919997
v -0.04126995 -0.11078700 0.06919997
v -0.04126995 -0.11078700 0.06769996
v -0.04126995 -0.11078700 0.06919997
v -0.03613895 -0.10581700 0.06769996
v -0.04126995 -0.11078700 0.06919997
v -0.03613895 -0.10581700 0.06919997
v -0.03041398 -0.10154400 0.06769996
v -0.03613895 -0.10581700 0.06919997
v -0.03041398 -0.10154400 0.06919997
v -0.03041398 -0.10154400 0.06769996
v -0.03041398 -0.10154400 0.06919997
v -0.02418899 -0.09803897 0.06769996
v -0.02418899 -0.09803897 0.06919997
v -0.02418899 -0.09803897 0.06769996
v -0.02418899 -0.09803897 0.06919997
v -0.01756697 -0.09535795 0.06769996
v -0.01756697 -0.09535795 0.06919997
v -0.01065695 -0.09354597 0.06769996
v -0.01065695 -0.09354597 0.06919997
v -0.01065695 -0.09354597 0.06769996
v -0.01065695 -0.09354597 0.06919997
v -0.00357199 -0.09263199 0.06769996
v -0.00357199 -0.09263199 0.06919997
v -0.00357199 -0.09263199 0.06769996
v -0.00357199 -0.09263199 0.06919997
v 0.00357199 -0.09263199 0.06769996
v 0.00357199 -0.09263199 0.06919997
v 0.00357199 -0.09263199 0.06769996
v 0.00357199 -0.09263199 0.06919997
v 0.01065695 -0.09354597 0.06769996
v 0.01065695 -0.09354597 0.06919997
v 0.01065695 -0.09354597 0.06769996
v 0.01065695 -0.09354597 0.06919997
v 0.01756697 -0.09535795 0.06769996
v 0.01756697 -0.09535795 0.06919997
v 0.01756697 -0.09535795 0.06769996
v 0.01756697 -0.09535795 0.06919997
v 0.02418899 -0.09803897 0.06769996
v 0.02418899 -0.09803897 0.06919997
v 0.02418899 -0.09803897 0.06769996
v 0.02418899 -0.09803897 0.06919997
v 0.03041398 -0.10154400 0.06769996
v 0.03041398 -0.10154400 0.06919997
v 0.03041398 -0.10154400 0.06769996
v 0.03041398 -0.10154400 0.06919997
v 0.03613895 -0.10581700 0.06769996
v 0.03613895 -0.10581700 0.06769996
v 0.03613895 -0.10581700 0.06919997
v 0.03613895 -0.10581700 0.06919997
v 0.04126995 -0.11078700 0.06769996
v 0.04126995 -0.11078700 0.06769996
v 0.04126995 -0.11078700 0.06919997
v 0.04126995 -0.11078700 0.06769996
v 0.04126995 -0.11078700 0.06919997
v 0.04572498 -0.11637190 0.06769996
v 0.04572498 -0.11637190 0.06769996
v 0.04126995 -0.11078700 0.06919997
v 0.04572498 -0.11637190 0.06919997
v 0.04942798 -0.12248090 0.06769996
v 0.04572498 -0.11637190 0.06919997
v 0.04942798 -0.12248090 0.06919997
v 0.05232000 -0.12901400 0.06769996
v 0.05232000 -0.12901400 0.06919997
v 0.05232000 -0.12901400 0.06769996
v 0.05232000 -0.12901400 0.06919997
v 0.05435198 -0.13586190 0.06769996
v 0.05435198 -0.13586190 0.06919997
v 0.05435198 -0.13586190 0.06769996
v 0.05435198 -0.13586190 0.06919997
v 0.05549198 -0.14291500 0.06769996
v 0.05435198 -0.13586190 0.06919997
v 0.05549198 -0.14291500 0.06919997
v 0.05572098 -0.15005490 0.06769996
v 0.05572098 -0.15005490 0.06769996
v 0.05572098 -0.15005490 0.06919997
v 0.05572098 -0.15005490 0.06769996
v 0.05572098 -0.15005490 0.06919997
v 0.05503499 -0.15716490 0.06769996
v 0.05503499 -0.15716490 0.06919997
v 0.05503499 -0.15716490 0.06769996
v 0.05503499 -0.15716490 0.06919997
v 0.05344599 -0.16413000 0.06769996
v 0.05344599 -0.16413000 0.06769996
v 0.05344599 -0.16413000 0.06919997
v 0.05344599 -0.16413000 0.06769996
v 0.05344599 -0.16413000 0.06919997
v 0.05097895 -0.17083400 0.06769996
v 0.05097895 -0.17083400 0.06919997
v 0.05097895 -0.17083400 0.06769996
v 0.05097895 -0.17083400 0.06919997
v 0.04767400 -0.17716800 0.06769996
v 0.04767400 -0.17716800 0.06919997
v 0.04767400 -0.17716800 0.06769996
v 0.04767400 -0.17716800 0.06919997
v 0.04358696 -0.18302700 0.06769996
v 0.04358696 -0.18302700 0.06769996
v 0.04767400 -0.17716800 0.06919997
v 0.04358696 -0.18302700 0.06919997
v 0.03878396 -0.18831590 0.06769996
v 0.04358696 -0.18302700 0.06919997
v 0.03878396 -0.18831590 0.06919997
v 0.03334498 -0.19294700 0.06769996
v 0.03334498 -0.19294700 0.06769996
v 0.03334498 -0.19294700 0.06919997
v 0.03334498 -0.19294700 0.06769996
v 0.03334498 -0.19294700 0.06919997
v 0.02735799 -0.19684391 0.06769996
v 0.02735799 -0.19684391 0.06919997
v 0.02092099 -0.19994301 0.06769996
v 0.02092099 -0.19994301 0.06919997
v 0.01414096 -0.20219401 0.06769996
v 0.02092099 -0.19994301 0.06919997
v 0.01414096 -0.20219401 0.06919997
v 0.01414096 -0.20219401 0.06769996
v 0.01414096 -0.20219401 0.06919997
v 0.00712895 -0.20355991 0.06769996
v 0.00712895 -0.20355991 0.06769996
v 0.01414096 -0.20219401 0.06919997
v 0.00712895 -0.20355991 0.06919997
v 0.00050000 -0.07506793 0.05869996
v 0.00050000 -0.07506793 0.05899798
v 0.00556499 -0.07506793 0.05642199
v 0.00785094 -0.07506793 0.05847495
v 0.01273399 -0.07506793 0.05524694
v 0.01507896 -0.07506793 0.05704098
v 0.01969397 -0.07506793 0.05316495
v 0.02207195 -0.07506793 0.05471599
v 0.02633094 -0.07506793 0.05020999
v 0.02872097 -0.07506793 0.05153697
v 0.03253597 -0.07506793 0.04642999
v 0.03492200 -0.07506793 0.04755496
v 0.03820598 -0.07506793 0.04188895
v 0.04057699 -0.07506793 0.04283100
v 0.04324895 -0.07506793 0.03665900
v 0.04559999 -0.07506793 0.03743797
v 0.04758197 -0.07506793 0.03082799
v 0.04991197 -0.07506793 0.03146195
v 0.05113297 -0.07506793 0.02448999
v 0.05344396 -0.07506793 0.02499395
v 0.05384498 -0.07506793 0.01774996
v 0.05614298 -0.07506793 0.01813697
v 0.05567300 -0.07506793 0.01071900
v 0.05796599 -0.07506793 0.01099699
v 0.05658596 -0.07506793 0.00351095
v 0.05888497 -0.07506793 0.00368500
v 0.05888497 -0.07506793 -0.00368500
v 0.05657094 -0.07506793 -0.00375301
v 0.05796599 -0.07506793 -0.01099699
v 0.05562597 -0.07506793 -0.01095700
v 0.05614298 -0.07506793 -0.01813697
v 0.05376899 -0.07506793 -0.01797997
v 0.05344396 -0.07506799 -0.02499395
v 0.05102795 -0.07506799 -0.02470797
v 0.04991197 -0.07506799 -0.03146195
v 0.04744899 -0.07506799 -0.03103095
v 0.04559999 -0.07506799 -0.03743797
v 0.04309195 -0.07506799 -0.03684395
v 0.04057699 -0.07506799 -0.04283100
v 0.03802597 -0.07506799 -0.04205197
v 0.03492200 -0.07506799 -0.04755496
v 0.03233695 -0.07506799 -0.04656898
v 0.02872097 -0.07506799 -0.05153697
v 0.02611595 -0.07506799 -0.05032199
v 0.02207195 -0.07506799 -0.05471599
v 0.01946699 -0.07506799 -0.05324798
v 0.01507896 -0.07506799 -0.05704098
v 0.01507896 -0.07506799 -0.05704098
v 0.01249796 -0.07506799 -0.05530095
v 0.00785094 -0.07506799 -0.05847495
v 0.00532299 -0.07506799 -0.05644494
v 0.00050000 -0.07506799 -0.05899798
v 0.00050000 -0.07506799 -0.05869996
v -0.00193798 -0.07506799 -0.05666196
v -0.00050000 -0.07506799 -0.05869996
v -0.00050000 -0.07506799 -0.05899798
v -0.00785094 -0.07506799 -0.05847495
v -0.00916797 -0.07506799 -0.05594897
v -0.01507896 -0.07506799 -0.05704098
v -0.01624798 -0.07506799 -0.05431699
v -0.02207195 -0.07506799 -0.05471599
v -0.02305996 -0.07506799 -0.05179399
v -0.02872097 -0.07506799 -0.05153697
v -0.02949398 -0.07506799 -0.04841995
v -0.03492200 -0.07506799 -0.04755496
v -0.03544396 -0.07506799 -0.04424995
v -0.04057699 -0.07506799 -0.04283100
v -0.04081100 -0.07506799 -0.03935497
v -0.04559999 -0.07506799 -0.03743797
v -0.04550898 -0.07506799 -0.03381299
v -0.04991197 -0.07506799 -0.03146195
v -0.04945898 -0.07506799 -0.02771598
v -0.05344396 -0.07506799 -0.02499395
v -0.05259698 -0.07506793 -0.02116298
v -0.05614298 -0.07506793 -0.01813697
v -0.05487197 -0.07506793 -0.01426398
v -0.05796599 -0.07506793 -0.01099699
v -0.05624496 -0.07506793 -0.00712997
v -0.05888497 -0.07506793 -0.00368500
v -0.05669498 -0.07506793 0.00012100
v -0.05888497 -0.07506793 0.00368500
v -0.05621397 -0.07506793 0.00737000
v -0.05796599 -0.07506793 0.01099699
v -0.05480998 -0.07506793 0.01449799
v -0.05614298 -0.07506793 0.01813697
v -0.05250597 -0.07506793 0.02138799
v -0.05344396 -0.07506793 0.02499395
v -0.04933995 -0.07506793 0.02792698
v -0.04991197 -0.07506793 0.03146195
v -0.04536396 -0.07506793 0.03400695
v -0.04559999 -0.07506793 0.03743797
v -0.04064297 -0.07506793 0.03952896
v -0.04057699 -0.07506793 0.04283100
v -0.03525400 -0.07506793 0.04440200
v -0.03492200 -0.07506793 0.04755496
v -0.02928698 -0.07506793 0.04854500
v -0.02872097 -0.07506793 0.05153697
v -0.02283799 -0.07506793 0.05189198
v -0.02207195 -0.07506793 0.05471599
v -0.01601499 -0.07506793 0.05438596
v -0.01507896 -0.07506793 0.05704098
v -0.00892895 -0.07506793 0.05598795
v -0.00785094 -0.07506793 0.05847495
v -0.00169599 -0.07506793 0.05666995
v -0.00050000 -0.07506793 0.05899798
v -0.00050000 -0.07506793 0.05869996
v -0.00050000 -0.07806795 -0.05869996
v -0.00050000 -0.07806795 -0.05899798
v -0.00050000 -0.07506799 -0.05869996
v -0.00050000 -0.07506799 -0.05899798
v 0.00050000 -0.07506799 -0.05899798
v 0.00050000 -0.07806795 -0.05899798
v 0.00050000 -0.07506799 -0.05869996
v 0.00050000 -0.07806795 -0.05869996
v 0.00050000 -0.07806795 -0.05869996
v 0.00015500 -0.07854294 -0.05869996
v 0.00050000 -0.07506799 -0.05869996
v -0.00015500 -0.07854294 -0.05869996
v -0.00050000 -0.07506799 -0.05869996
v -0.00050000 -0.07806795 -0.05869996
v -0.00040500 -0.07836198 -0.05869996
v 0.00040500 -0.07836198 -0.05869996
v -0.00050000 -0.07806795 -0.05899798
v -0.00050000 -0.07806795 -0.05869996
v -0.00046200 -0.07825899 -0.05899798
v -0.00046200 -0.07825899 -0.05899798
v -0.00050000 -0.07806795 -0.05869996
v -0.00040500 -0.07836198 -0.05869996
v -0.00046200 -0.07825899 -0.05899798
v -0.00040500 -0.07836198 -0.05869996
v -0.00035400 -0.07842099 -0.05899894
v -0.00035400 -0.07842099 -0.05899894
v -0.00040500 -0.07836198 -0.05869996
v -0.00015500 -0.07854294 -0.05869996
v -0.00035400 -0.07842099 -0.05899894
v -0.00015500 -0.07854294 -0.05869996
v -0.00019100 -0.07852995 -0.05899995
v -0.00019100 -0.07852995 -0.05899995
v -0.00015500 -0.07854294 -0.05869996
v 0.00000000 -0.07856798 -0.05899995
v 0.00000000 -0.07856798 -0.05899995
v -0.00015500 -0.07854294 -0.05869996
v 0.00015500 -0.07854294 -0.05869996
v 0.00000000 -0.07856798 -0.05899995
v 0.00015500 -0.07854294 -0.05869996
v 0.00019100 -0.07852995 -0.05899995
v 0.00019100 -0.07852995 -0.05899995
v 0.00015500 -0.07854294 -0.05869996
v 0.00035400 -0.07842099 -0.05899894
v 0.00035400 -0.07842099 -0.05899894
v 0.00015500 -0.07854294 -0.05869996
v 0.00040500 -0.07836198 -0.05869996
v 0.00035400 -0.07842099 -0.05899894
v 0.00040500 -0.07836198 -0.05869996
v 0.00046200 -0.07825899 -0.05899798
v 0.00046200 -0.07825899 -0.05899798
v 0.00040500 -0.07836198 -0.05869996
v 0.00050000 -0.07806795 -0.05869996
v 0.00046200 -0.07825899 -0.05899798
v 0.00050000 -0.07806795 -0.05869996
v 0.00050000 -0.07806795 -0.05899798
v 0.00050000 -0.07506793 0.05869996
v 0.00050000 -0.07806795 0.05869996
v 0.00050000 -0.07506793 0.05899798
v 0.00050000 -0.07806795 0.05899798
v -0.00050000 -0.07806795 0.05899798
v -0.00050000 -0.07806795 0.05869996
v -0.00050000 -0.07506793 0.05899798
v -0.00050000 -0.07506793 0.05869996
v -0.00040500 -0.07836198 0.05869996
v -0.00015500 -0.07854294 0.05869996
v -0.00050000 -0.07806795 0.05869996
v -0.00050000 -0.07506793 0.05869996
v 0.00050000 -0.07506793 0.05869996
v 0.00015500 -0.07854294 0.05869996
v 0.00050000 -0.07806795 0.05869996
v 0.00040500 -0.07836198 0.05869996
v -0.00050000 -0.07806795 0.05899798
v -0.00042400 -0.07833296 0.05899798
v -0.00050000 -0.07806795 0.05869996
v -0.00050000 -0.07806795 0.05869996
v -0.00042400 -0.07833296 0.05899798
v -0.00040500 -0.07836198 0.05869996
v -0.00040500 -0.07836198 0.05869996
v -0.00042400 -0.07833296 0.05899798
v -0.00031200 -0.07845795 0.05899900
v -0.00040500 -0.07836198 0.05869996
v -0.00031200 -0.07845795 0.05899900
v -0.00015500 -0.07854294 0.05869996
v -0.00015500 -0.07854294 0.05869996
v -0.00031200 -0.07845795 0.05899900
v 0.00000000 -0.07856798 0.05899995
v -0.00015500 -0.07854294 0.05869996
v 0.00000000 -0.07856798 0.05899995
v 0.00015500 -0.07854294 0.05869996
v 0.00015500 -0.07854294 0.05869996
v 0.00000000 -0.07856798 0.05899995
v 0.00026500 -0.07849198 0.05899900
v 0.00015500 -0.07854294 0.05869996
v 0.00026500 -0.07849198 0.05899900
v 0.00040500 -0.07836198 0.05869996
v 0.00040500 -0.07836198 0.05869996
v 0.00026500 -0.07849198 0.05899900
v 0.00039000 -0.07837998 0.05899900
v 0.00040500 -0.07836198 0.05869996
v 0.00039000 -0.07837998 0.05899900
v 0.00050000 -0.07806795 0.05899798
v 0.00050000 -0.07806795 0.05899798
v 0.00050000 -0.07806795 0.05869996
v 0.00040500 -0.07836198 0.05869996
v 0.00050000 -0.20696589 0.06470000
v 0.00050000 -0.20726600 0.06470000
v 0.00050000 -0.20696589 0.06769996
v 0.00050000 -0.20726600 0.06769996
v -0.00050000 -0.20726600 0.06470000
v -0.00050000 -0.20696589 0.06470000
v -0.00050000 -0.20726600 0.06769996
v -0.00050000 -0.20696589 0.06769996
v -0.00040500 -0.20696589 0.06440597
v -0.00015500 -0.20696589 0.06422400
v -0.00050000 -0.20696589 0.06470000
v -0.00050000 -0.20696589 0.06470000
v -0.00015500 -0.20696589 0.06422400
v -0.00050000 -0.20696589 0.06769996
v 0.00050000 -0.20696589 0.06769996
v 0.00050000 -0.20696589 0.06769996
v -0.00015500 -0.20696589 0.06422400
v 0.00015500 -0.20696589 0.06422400
v 0.00015500 -0.20696589 0.06422400
v 0.00050000 -0.20696589 0.06470000
v 0.00040500 -0.20696589 0.06440597
v -0.00050000 -0.20726600 0.06470000
v -0.00042400 -0.20726600 0.06443500
v -0.00050000 -0.20696589 0.06470000
v -0.00050000 -0.20696589 0.06470000
v -0.00040500 -0.20696589 0.06440597
v -0.00040500 -0.20696589 0.06440597
v -0.00042400 -0.20726600 0.06443500
v -0.00031200 -0.20726690 0.06431001
v -0.00040500 -0.20696589 0.06440597
v -0.00031200 -0.20726690 0.06431001
v -0.00015500 -0.20696589 0.06422400
v -0.00015500 -0.20696589 0.06422400
v -0.00031200 -0.20726690 0.06431001
v 0.00000000 -0.20726790 0.06419998
v -0.00015500 -0.20696589 0.06422400
v 0.00000000 -0.20726790 0.06419998
v 0.00015500 -0.20696589 0.06422400
v 0.00015500 -0.20696589 0.06422400
v 0.00000000 -0.20726790 0.06419998
v 0.00021100 -0.20726690 0.06424701
v 0.00015500 -0.20696589 0.06422400
v 0.00021100 -0.20726690 0.06424701
v 0.00040500 -0.20696589 0.06440597
v 0.00040500 -0.20696589 0.06440597
v 0.00021100 -0.20726690 0.06424701
v 0.00039000 -0.20726690 0.06438797
v 0.00040500 -0.20696589 0.06440597
v 0.00039000 -0.20726690 0.06438797
v 0.00050000 -0.20726600 0.06470000
v 0.00050000 -0.20726600 0.06470000
v 0.00050000 -0.20696589 0.06470000
v 0.00040500 -0.20696589 0.06440597
v 0.05531096 -0.07506793 0.41774800
v 0.05452895 -0.07506793 0.41782099
v 0.05578398 -0.07506793 0.42488101
v 0.05499994 -0.07506793 0.42500001
v 0.05534195 -0.07506793 0.43201500
v 0.05452895 -0.07506793 0.43217900
v 0.05398994 -0.07506793 0.43903500
v 0.05312597 -0.07506793 0.43923500
v 0.05175197 -0.07506793 0.44582301
v 0.05081295 -0.07506793 0.44604799
v 0.04866498 -0.07506793 0.45227000
v 0.04763096 -0.07506793 0.45249999
v 0.04477798 -0.07506793 0.45827001
v 0.04363399 -0.07506793 0.45848200
v 0.04015594 -0.07506793 0.46372300
v 0.03889095 -0.07506793 0.46389100
v 0.03487396 -0.07506793 0.46854001
v 0.03348195 -0.07506793 0.46863401
v 0.03487396 -0.07506793 0.46854001
v 0.03348195 -0.07506793 0.46863401
v 0.02901995 -0.07506793 0.47264200
v 0.02901995 -0.07506793 0.47264200
v 0.02749997 -0.07506793 0.47263101
v 0.02268999 -0.07506793 0.47596201
v 0.02104794 -0.07506793 0.47581300
v 0.02268999 -0.07506793 0.47596201
v 0.02104794 -0.07506793 0.47581300
v 0.01598697 -0.07506793 0.47844499
v 0.01598697 -0.07506793 0.47844499
v 0.01423496 -0.07506793 0.47812599
v 0.00902098 -0.07506793 0.48005000
v 0.00717896 -0.07506793 0.47952899
v 0.00902098 -0.07506793 0.48005000
v 0.00717896 -0.07506793 0.47952899
v 0.00190699 -0.07506793 0.48075199
v 0.00190699 -0.07506793 0.48075199
v 0.00000000 -0.07506793 0.47999999
v 0.00000000 -0.07506793 0.47999999
v -0.00523800 -0.07506793 0.48053801
v -0.00523800 -0.07506793 0.48053801
v -0.00717896 -0.07506793 0.47952899
v -0.01229697 -0.07506793 0.47941199
v -0.01229697 -0.07506793 0.47941199
v -0.00717896 -0.07506793 0.47952899
v -0.01423496 -0.07506793 0.47812599
v -0.01229697 -0.07506793 0.47941199
v -0.01423496 -0.07506793 0.47812599
v -0.01915395 -0.07506793 0.47739300
v -0.01915395 -0.07506793 0.47739300
v -0.01423496 -0.07506793 0.47812599
v -0.02104794 -0.07506793 0.47581300
v -0.02104794 -0.07506793 0.47581300
v -0.02569699 -0.07506793 0.47451401
v -0.02569699 -0.07506793 0.47451401
v -0.02749997 -0.07506793 0.47263101
v -0.03181695 -0.07506793 0.47082099
v -0.03181695 -0.07506793 0.47082099
v -0.02749997 -0.07506793 0.47263101
v -0.03348195 -0.07506793 0.46863401
v -0.03348195 -0.07506793 0.46863401
v -0.03741598 -0.07506793 0.46637601
v -0.03741598 -0.07506793 0.46637601
v -0.03889095 -0.07506793 0.46389100
v -0.04239898 -0.07506793 0.46125200
v -0.04363399 -0.07506793 0.45848200
v -0.04668694 -0.07506793 0.45553201
v -0.04763096 -0.07506793 0.45249999
v -0.05020797 -0.07506793 0.44931099
v -0.05081295 -0.07506793 0.44604799
v -0.05290496 -0.07506793 0.44269100
v -0.05312597 -0.07506793 0.43923500
v -0.05473297 -0.07506793 0.43578100
v -0.05452895 -0.07506793 0.43217900
v -0.05566197 -0.07506793 0.42869300
v -0.05499994 -0.07506793 0.42500001
v -0.05567699 -0.07506793 0.42154500
v -0.05452895 -0.07506793 0.41782099
v -0.05477899 -0.07506793 0.41445300
v -0.05312597 -0.07506793 0.41076499
v -0.05297994 -0.07506793 0.40753499
v -0.05081295 -0.07506793 0.40395200
v -0.05031198 -0.07506793 0.40090400
v -0.04763096 -0.07506793 0.39750001
v -0.05031198 -0.07506793 0.40090400
v -0.04763096 -0.07506793 0.39750001
v -0.04681700 -0.07506793 0.39466801
v -0.04363399 -0.07506793 0.39151800
v -0.04681700 -0.07506793 0.39466801
v -0.04255396 -0.07506793 0.38892999
v -0.03889095 -0.07506793 0.38610899
v -0.03759199 -0.07506793 0.38378400
v -0.03348195 -0.07506793 0.38136601
v -0.03201299 -0.07506793 0.37931499
v -0.02749997 -0.07506793 0.37736899
v -0.02749997 -0.07506793 0.37736899
v -0.02590799 -0.07506793 0.37559700
v -0.02104794 -0.07506793 0.37418699
v -0.02590799 -0.07506793 0.37559700
v -0.02104794 -0.07506793 0.37418699
v -0.01937800 -0.07506793 0.37268901
v -0.01937800 -0.07506793 0.37268901
v -0.01423496 -0.07506793 0.37187400
v -0.01423496 -0.07506793 0.37187400
v -0.01252996 -0.07506793 0.37064099
v -0.00717896 -0.07506793 0.37047100
v -0.00547498 -0.07506793 0.36948499
v 0.00000000 -0.07506793 0.37000000
v -0.00547498 -0.07506793 0.36948499
v 0.00166899 -0.07506793 0.36923999
v 0.00717896 -0.07506793 0.37047100
v 0.00717896 -0.07506793 0.37047100
v 0.00878495 -0.07506793 0.36991200
v 0.00878495 -0.07506793 0.36991200
v 0.01423496 -0.07506793 0.37187400
v 0.01423496 -0.07506793 0.37187400
v 0.01575797 -0.07506793 0.37148699
v 0.02104794 -0.07506793 0.37418699
v 0.01575797 -0.07506793 0.37148699
v 0.02104794 -0.07506793 0.37418699
v 0.02247196 -0.07506793 0.37394199
v 0.02247196 -0.07506793 0.37394199
v 0.02104794 -0.07506793 0.37418699
v 0.02749997 -0.07506793 0.37736899
v 0.02881598 -0.07506793 0.37723401
v 0.03348195 -0.07506793 0.38136601
v 0.03348195 -0.07506793 0.38136601
v 0.03468799 -0.07506793 0.38131201
v 0.03889095 -0.07506793 0.38610899
v 0.03468799 -0.07506793 0.38131201
v 0.03998994 -0.07506793 0.38610601
v 0.04363399 -0.07506793 0.39151800
v 0.03998994 -0.07506793 0.38610601
v 0.04463499 -0.07506793 0.39153901
v 0.04763096 -0.07506793 0.39750001
v 0.04463499 -0.07506793 0.39153901
v 0.04854696 -0.07506793 0.39752200
v 0.05081295 -0.07506793 0.40395200
v 0.04854696 -0.07506793 0.39752200
v 0.05166298 -0.07506793 0.40395501
v 0.05312597 -0.07506793 0.41076499
v 0.05392998 -0.07506793 0.41073501
v 0.00712895 -0.20355991 0.35580000
v 0.00000000 -0.20401791 0.35580000
v -0.01756697 -0.09535795 0.35580000
v -0.01756697 -0.09535795 0.35580000
v 0.00000000 -0.20401791 0.35580000
v -0.00712895 -0.20355991 0.35580000
v -0.01414096 -0.20219390 0.35580000
v -0.02092099 -0.19994301 0.35580000
v -0.02418899 -0.09803897 0.35580000
v -0.02735799 -0.19684391 0.35580000
v -0.03041398 -0.10154390 0.35580000
v -0.02735799 -0.19684391 0.35580000
v -0.03334498 -0.19294690 0.35580000
v -0.03334498 -0.19294690 0.35580000
v -0.03613895 -0.10581690 0.35580000
v -0.03878396 -0.18831590 0.35580000
v -0.04126995 -0.11078690 0.35580000
v -0.04358696 -0.18302689 0.35580000
v -0.04572498 -0.11637190 0.35580000
v -0.04767400 -0.17716791 0.35580000
v -0.04942798 -0.12248090 0.35580000
v -0.05097895 -0.17083400 0.35580000
v -0.05232000 -0.12901390 0.35580000
v -0.05097895 -0.17083400 0.35580000
v -0.05344599 -0.16412990 0.35580000
v -0.05435198 -0.13586190 0.35580000
v -0.05435198 -0.13586190 0.35580000
v -0.05344599 -0.16412990 0.35580000
v -0.05503499 -0.15716490 0.35580000
v -0.05435198 -0.13586190 0.35580000
v -0.05503499 -0.15716490 0.35580000
v -0.05549198 -0.14291491 0.35580000
v -0.05549198 -0.14291491 0.35580000
v -0.05503499 -0.15716490 0.35580000
v -0.05572098 -0.15005490 0.35580000
v -0.01065695 -0.09354597 0.35580000
v 0.01756697 -0.09535795 0.35580000
v 0.02418899 -0.09803897 0.35580000
v 0.03041398 -0.10154390 0.35580000
v 0.01065695 -0.09354597 0.35580000
v -0.00357199 -0.09263193 0.35580000
v 0.00357199 -0.09263193 0.35580000
v 0.03613895 -0.10581690 0.35580000
v 0.04126995 -0.11078690 0.35580000
v 0.04572498 -0.11637190 0.35580000
v 0.04942798 -0.12248090 0.35580000
v 0.05232000 -0.12901390 0.35580000
v 0.05435198 -0.13586190 0.35580000
v 0.05549198 -0.14291491 0.35580000
v 0.05572098 -0.15005490 0.35580000
v 0.05503499 -0.15716490 0.35580000
v 0.05344599 -0.16412990 0.35580000
v 0.05097895 -0.17083400 0.35580000
v 0.04767400 -0.17716791 0.35580000
v 0.04358696 -0.18302689 0.35580000
v 0.03878396 -0.18831590 0.35580000
v 0.03334498 -0.19294690 0.35580000
v 0.03334498 -0.19294690 0.35580000
v 0.02735799 -0.19684391 0.35580000
v 0.02735799 -0.19684391 0.35580000
v 0.02092099 -0.19994301 0.35580000
v 0.01414096 -0.20219390 0.35580000
v -0.00050000 -0.20726590 0.35730001
v -0.00787097 -0.20673990 0.35730001
v -0.00050000 -0.20696589 0.35730001
v -0.00712895 -0.20355991 0.35730001
v 0.00000000 -0.20401791 0.35730001
v -0.01414096 -0.20219390 0.35730001
v -0.01511800 -0.20529801 0.35730001
v -0.01414096 -0.20219390 0.35730001
v -0.01511800 -0.20529801 0.35730001
v -0.02092099 -0.19994301 0.35730001
v -0.02212798 -0.20296089 0.35730001
v -0.02092099 -0.19994301 0.35730001
v -0.02212798 -0.20296089 0.35730001
v -0.02879095 -0.19976591 0.35730001
v -0.02879095 -0.19976591 0.35730001
v -0.02735799 -0.19684391 0.35730001
v -0.02735799 -0.19684391 0.35730001
v -0.03500199 -0.19576401 0.35730001
v -0.03334498 -0.19294690 0.35730001
v -0.04066395 -0.19101590 0.35730001
v -0.03878396 -0.18831590 0.35730001
v -0.04568898 -0.18559790 0.35730001
v -0.04358696 -0.18302689 0.35730001
v -0.04999697 -0.17959391 0.35730001
v -0.04767400 -0.17716791 0.35730001
v -0.05351996 -0.17309891 0.35730001
v -0.05097895 -0.17083400 0.35730001
v -0.05620396 -0.16621390 0.35730001
v -0.05344599 -0.16412990 0.35730001
v -0.05800700 -0.15904790 0.35730001
v -0.05503499 -0.15716490 0.35730001
v -0.05503499 -0.15716490 0.35730001
v -0.05800700 -0.15904790 0.35730001
v -0.05889898 -0.15171289 0.35730001
v -0.05889898 -0.15171289 0.35730001
v -0.05572098 -0.15005490 0.35730001
v -0.05572098 -0.15005490 0.35730001
v -0.05886799 -0.14432400 0.35730001
v -0.05572098 -0.15005490 0.35730001
v -0.05886799 -0.14432400 0.35730001
v -0.05549198 -0.14291491 0.35730001
v -0.05549198 -0.14291491 0.35730001
v -0.05886799 -0.14432400 0.35730001
v -0.05791300 -0.13699590 0.35730001
v -0.05435198 -0.13586190 0.35730001
v -0.05435198 -0.13586190 0.35730001
v -0.05791300 -0.13699590 0.35730001
v -0.05605000 -0.12984590 0.35730001
v -0.05605000 -0.12984590 0.35730001
v -0.05232000 -0.12901390 0.35730001
v -0.05330795 -0.12298390 0.35730001
v -0.04942798 -0.12248090 0.35730001
v -0.04972898 -0.11651890 0.35730001
v -0.04572498 -0.11637190 0.35730001
v -0.04537099 -0.11055200 0.35730001
v -0.04126995 -0.11078690 0.35730001
v -0.04126995 -0.11078690 0.35730001
v -0.04537099 -0.11055200 0.35730001
v -0.04030096 -0.10517690 0.35730001
v -0.04030096 -0.10517690 0.35730001
v -0.03613895 -0.10581690 0.35730001
v -0.03459799 -0.10047690 0.35730001
v -0.03459799 -0.10047690 0.35730001
v -0.03041398 -0.10154390 0.35730001
v -0.02835297 -0.09652692 0.35730001
v -0.02418899 -0.09803897 0.35730001
v -0.02166396 -0.09338891 0.35730001
v -0.01756697 -0.09535795 0.35730001
v -0.01463395 -0.09111094 0.35730001
v -0.01065695 -0.09354597 0.35730001
v -0.00737494 -0.08973091 0.35730001
v -0.00737494 -0.08973091 0.35730001
v -0.00357199 -0.09263193 0.35730001
v -0.00357199 -0.09263193 0.35730001
v 0.00000000 -0.08926796 0.35730001
v 0.00357199 -0.09263193 0.35730001
v 0.00737494 -0.08973091 0.35730001
v 0.00737494 -0.08973091 0.35730001
v 0.01065695 -0.09354597 0.35730001
v 0.01065695 -0.09354597 0.35730001
v 0.01463395 -0.09111094 0.35730001
v 0.01463395 -0.09111094 0.35730001
v 0.01756697 -0.09535795 0.35730001
v 0.01756697 -0.09535795 0.35730001
v 0.02166396 -0.09338891 0.35730001
v 0.02418899 -0.09803897 0.35730001
v 0.02835297 -0.09652692 0.35730001
v 0.03041398 -0.10154390 0.35730001
v 0.03459799 -0.10047690 0.35730001
v 0.03613895 -0.10581690 0.35730001
v 0.03613895 -0.10581690 0.35730001
v 0.03459799 -0.10047690 0.35730001
v 0.04030096 -0.10517690 0.35730001
v 0.04030096 -0.10517690 0.35730001
v 0.04126995 -0.11078690 0.35730001
v 0.04126995 -0.11078690 0.35730001
v 0.04030096 -0.10517690 0.35730001
v 0.04537099 -0.11055200 0.35730001
v 0.04537099 -0.11055200 0.35730001
v 0.04572498 -0.11637190 0.35730001
v 0.04972898 -0.11651890 0.35730001
v 0.04942798 -0.12248090 0.35730001
v 0.05330795 -0.12298390 0.35730001
v 0.05232000 -0.12901390 0.35730001
v 0.05605000 -0.12984590 0.35730001
v 0.05435198 -0.13586190 0.35730001
v 0.05435198 -0.13586190 0.35730001
v 0.05605000 -0.12984590 0.35730001
v 0.05791300 -0.13699590 0.35730001
v 0.05791300 -0.13699590 0.35730001
v 0.05549198 -0.14291491 0.35730001
v 0.05886799 -0.14432400 0.35730001
v 0.05549198 -0.14291491 0.35730001
v 0.05886799 -0.14432400 0.35730001
v 0.05572098 -0.15005490 0.35730001
v 0.05572098 -0.15005490 0.35730001
v 0.05886799 -0.14432400 0.35730001
v 0.05889898 -0.15171289 0.35730001
v 0.05572098 -0.15005490 0.35730001
v 0.05889898 -0.15171289 0.35730001
v 0.05503499 -0.15716490 0.35730001
v 0.05503499 -0.15716490 0.35730001
v 0.05800700 -0.15904790 0.35730001
v 0.05800700 -0.15904790 0.35730001
v 0.05344599 -0.16412990 0.35730001
v 0.05620396 -0.16621390 0.35730001
v 0.05097895 -0.17083400 0.35730001
v 0.05351996 -0.17309891 0.35730001
v 0.04767400 -0.17716791 0.35730001
v 0.04999697 -0.17959391 0.35730001
v 0.04358696 -0.18302689 0.35730001
v 0.04568898 -0.18559790 0.35730001
v 0.04358696 -0.18302689 0.35730001
v 0.03878396 -0.18831590 0.35730001
v 0.04066395 -0.19101590 0.35730001
v 0.03334498 -0.19294690 0.35730001
v 0.03500199 -0.19576401 0.35730001
v 0.02735799 -0.19684391 0.35730001
v 0.02879095 -0.19976591 0.35730001
v 0.02092099 -0.19994301 0.35730001
v 0.02092099 -0.19994301 0.35730001
v 0.02212798 -0.20296089 0.35730001
v 0.02212798 -0.20296089 0.35730001
v 0.01511800 -0.20529801 0.35730001
v 0.01414096 -0.20219390 0.35730001
v 0.01414096 -0.20219390 0.35730001
v 0.00787097 -0.20673990 0.35730001
v 0.00712895 -0.20355991 0.35730001
v 0.00050000 -0.20696589 0.35730001
v 0.00050000 -0.20726590 0.35730001
v -0.00712895 -0.20355991 0.35730001
v -0.00712895 -0.20355991 0.35580000
v 0.00000000 -0.20401791 0.35730001
v 0.00000000 -0.20401791 0.35580000
v 0.00000000 -0.20401791 0.35730001
v 0.00000000 -0.20401791 0.35580000
v 0.00712895 -0.20355991 0.35730001
v 0.00712895 -0.20355991 0.35580000
v 0.00712895 -0.20355991 0.35730001
v 0.00712895 -0.20355991 0.35580000
v 0.01414096 -0.20219390 0.35730001
v 0.01414096 -0.20219390 0.35580000
v 0.01414096 -0.20219390 0.35730001
v 0.01414096 -0.20219390 0.35580000
v 0.02092099 -0.19994301 0.35730001
v 0.01414096 -0.20219390 0.35580000
v 0.02092099 -0.19994301 0.35580000
v 0.02092099 -0.19994301 0.35730001
v 0.02092099 -0.19994301 0.35580000
v 0.02735799 -0.19684391 0.35730001
v 0.02735799 -0.19684391 0.35580000
v 0.03334498 -0.19294690 0.35730001
v 0.03334498 -0.19294690 0.35730001
v 0.02735799 -0.19684391 0.35580000
v 0.03334498 -0.19294690 0.35580000
v 0.03334498 -0.19294690 0.35730001
v 0.03334498 -0.19294690 0.35580000
v 0.03878396 -0.18831590 0.35730001
v 0.03878396 -0.18831590 0.35580000
v 0.04358696 -0.18302689 0.35730001
v 0.04358696 -0.18302689 0.35730001
v 0.03878396 -0.18831590 0.35580000
v 0.04358696 -0.18302689 0.35580000
v 0.04767400 -0.17716791 0.35730001
v 0.04767400 -0.17716791 0.35730001
v 0.04358696 -0.18302689 0.35580000
v 0.04767400 -0.17716791 0.35580000
v 0.04767400 -0.17716791 0.35730001
v 0.04767400 -0.17716791 0.35580000
v 0.05097895 -0.17083400 0.35730001
v 0.05097895 -0.17083400 0.35730001
v 0.05097895 -0.17083400 0.35580000
v 0.05097895 -0.17083400 0.35730001
v 0.05097895 -0.17083400 0.35580000
v 0.05344599 -0.16412990 0.35730001
v 0.05344599 -0.16412990 0.35580000
v 0.05344599 -0.16412990 0.35730001
v 0.05344599 -0.16412990 0.35580000
v 0.05503499 -0.15716490 0.35730001
v 0.05503499 -0.15716490 0.35580000
v 0.05503499 -0.15716490 0.35730001
v 0.05503499 -0.15716490 0.35580000
v 0.05572098 -0.15005490 0.35730001
v 0.05503499 -0.15716490 0.35580000
v 0.05572098 -0.15005490 0.35580000
v 0.05572098 -0.15005490 0.35730001
v 0.05572098 -0.15005490 0.35580000
v 0.05549198 -0.14291491 0.35730001
v 0.05572098 -0.15005490 0.35580000
v 0.05549198 -0.14291491 0.35580000
v 0.05435198 -0.13586190 0.35730001
v 0.05435198 -0.13586190 0.35580000
v 0.05435198 -0.13586190 0.35730001
v 0.05435198 -0.13586190 0.35580000
v 0.05232000 -0.12901390 0.35730001
v 0.05232000 -0.12901390 0.35730001
v 0.05435198 -0.13586190 0.35580000
v 0.05232000 -0.12901390 0.35580000
v 0.04942798 -0.12248090 0.35730001
v 0.04942798 -0.12248090 0.35730001
v 0.05232000 -0.12901390 0.35580000
v 0.04942798 -0.12248090 0.35580000
v 0.04572498 -0.11637190 0.35730001
v 0.04572498 -0.11637190 0.35730001
v 0.04942798 -0.12248090 0.35580000
v 0.04572498 -0.11637190 0.35580000
v 0.04126995 -0.11078690 0.35730001
v 0.04572498 -0.11637190 0.35580000
v 0.04126995 -0.11078690 0.35580000
v 0.04126995 -0.11078690 0.35730001
v 0.04126995 -0.11078690 0.35580000
v 0.03613895 -0.10581690 0.35730001
v 0.03613895 -0.10581690 0.35730001
v 0.04126995 -0.11078690 0.35580000
v 0.03613895 -0.10581690 0.35580000
v 0.03041398 -0.10154390 0.35730001
v 0.03613895 -0.10581690 0.35580000
v 0.03041398 -0.10154390 0.35580000
v 0.03041398 -0.10154390 0.35730001
v 0.03041398 -0.10154390 0.35580000
v 0.02418899 -0.09803897 0.35730001
v 0.02418899 -0.09803897 0.35580000
v 0.02418899 -0.09803897 0.35730001
v 0.02418899 -0.09803897 0.35580000
v 0.01756697 -0.09535795 0.35730001
v 0.01756697 -0.09535795 0.35730001
v 0.02418899 -0.09803897 0.35580000
v 0.01756697 -0.09535795 0.35580000
v 0.01065695 -0.09354597 0.35730001
v 0.01065695 -0.09354597 0.35730001
v 0.01756697 -0.09535795 0.35580000
v 0.01065695 -0.09354597 0.35580000
v 0.01065695 -0.09354597 0.35730001
v 0.01065695 -0.09354597 0.35580000
v 0.00357199 -0.09263193 0.35730001
v 0.00357199 -0.09263193 0.35580000
v 0.00357199 -0.09263193 0.35730001
v 0.00357199 -0.09263193 0.35580000
v -0.00357199 -0.09263193 0.35730001
v -0.00357199 -0.09263193 0.35580000
v -0.00357199 -0.09263193 0.35730001
v -0.00357199 -0.09263193 0.35580000
v -0.01065695 -0.09354597 0.35730001
v -0.00357199 -0.09263193 0.35580000
v -0.01065695 -0.09354597 0.35580000
v -0.01065695 -0.09354597 0.35730001
v -0.01065695 -0.09354597 0.35580000
v -0.01756697 -0.09535795 0.35730001
v -0.01756697 -0.09535795 0.35730001
v -0.01065695 -0.09354597 0.35580000
v -0.01756697 -0.09535795 0.35580000
v -0.01756697 -0.09535795 0.35580000
v -0.02418899 -0.09803897 0.35730001
v -0.02418899 -0.09803897 0.35730001
v -0.01756697 -0.09535795 0.35580000
v -0.02418899 -0.09803897 0.35580000
v -0.02418899 -0.09803897 0.35730001
v -0.02418899 -0.09803897 0.35580000
v -0.03041398 -0.10154390 0.35730001
v -0.03041398 -0.10154390 0.35730001
v -0.03041398 -0.10154390 0.35580000
v -0.03041398 -0.10154390 0.35580000
v -0.03613895 -0.10581690 0.35730001
v -0.03613895 -0.10581690 0.35730001
v -0.03613895 -0.10581690 0.35580000
v -0.03613895 -0.10581690 0.35580000
v -0.04126995 -0.11078690 0.35730001
v -0.04126995 -0.11078690 0.35730001
v -0.04126995 -0.11078690 0.35580000
v -0.04126995 -0.11078690 0.35730001
v -0.04126995 -0.11078690 0.35580000
v -0.04572498 -0.11637190 0.35730001
v -0.04572498 -0.11637190 0.35730001
v -0.04572498 -0.11637190 0.35580000
v -0.04572498 -0.11637190 0.35730001
v -0.04572498 -0.11637190 0.35580000
v -0.04942798 -0.12248090 0.35730001
v -0.04942798 -0.12248090 0.35730001
v -0.04572498 -0.11637190 0.35580000
v -0.04942798 -0.12248090 0.35580000
v -0.04942798 -0.12248090 0.35730001
v -0.04942798 -0.12248090 0.35580000
v -0.05232000 -0.12901390 0.35730001
v -0.05232000 -0.12901390 0.35730001
v -0.04942798 -0.12248090 0.35580000
v -0.05232000 -0.12901390 0.35580000
v -0.05232000 -0.12901390 0.35730001
v -0.05232000 -0.12901390 0.35580000
v -0.05435198 -0.13586190 0.35730001
v -0.05435198 -0.13586190 0.35730001
v -0.05232000 -0.12901390 0.35580000
v -0.05435198 -0.13586190 0.35580000
v -0.05435198 -0.13586190 0.35730001
v -0.05435198 -0.13586190 0.35580000
v -0.05549198 -0.14291491 0.35730001
v -0.05549198 -0.14291491 0.35580000
v -0.05549198 -0.14291491 0.35730001
v -0.05572098 -0.15005490 0.35730001
v -0.05572098 -0.15005490 0.35580000
v -0.05572098 -0.15005490 0.35730001
v -0.05572098 -0.15005490 0.35580000
v -0.05503499 -0.15716490 0.35730001
v -0.05503499 -0.15716490 0.35730001
v -0.05503499 -0.15716490 0.35580000
v -0.05503499 -0.15716490 0.35730001
v -0.05503499 -0.15716490 0.35580000
v -0.05344599 -0.16412990 0.35730001
v -0.05344599 -0.16412990 0.35580000
v -0.05344599 -0.16412990 0.35730001
v -0.05344599 -0.16412990 0.35580000
v -0.05097895 -0.17083400 0.35730001
v -0.05097895 -0.17083400 0.35580000
v -0.05097895 -0.17083400 0.35730001
v -0.05097895 -0.17083400 0.35580000
v -0.04767400 -0.17716791 0.35730001
v -0.04767400 -0.17716791 0.35730001
v -0.05097895 -0.17083400 0.35580000
v -0.04767400 -0.17716791 0.35580000
v -0.04767400 -0.17716791 0.35730001
v -0.04767400 -0.17716791 0.35580000
v -0.04358696 -0.18302689 0.35730001
v -0.04358696 -0.18302689 0.35730001
v -0.04358696 -0.18302689 0.35580000
v -0.04358696 -0.18302689 0.35730001
v -0.04358696 -0.18302689 0.35580000
v -0.03878396 -0.18831590 0.35730001
v -0.03878396 -0.18831590 0.35730001
v -0.04358696 -0.18302689 0.35580000
v -0.03878396 -0.18831590 0.35580000
v -0.03878396 -0.18831590 0.35580000
v -0.03334498 -0.19294690 0.35730001
v -0.03334498 -0.19294690 0.35580000
v -0.03334498 -0.19294690 0.35730001
v -0.03334498 -0.19294690 0.35580000
v -0.02735799 -0.19684391 0.35730001
v -0.02735799 -0.19684391 0.35730001
v -0.03334498 -0.19294690 0.35580000
v -0.02735799 -0.19684391 0.35580000
v -0.02735799 -0.19684391 0.35580000
v -0.02092099 -0.19994301 0.35730001
v -0.02092099 -0.19994301 0.35580000
v -0.02092099 -0.19994301 0.35730001
v -0.02092099 -0.19994301 0.35580000
v -0.01414096 -0.20219390 0.35730001
v -0.01414096 -0.20219390 0.35730001
v -0.01414096 -0.20219390 0.35580000
v -0.01414096 -0.20219390 0.35730001
v -0.01414096 -0.20219390 0.35580000
v -0.00712895 -0.20355991 0.35730001
v -0.00712895 -0.20355991 0.35730001
v -0.00712895 -0.20355991 0.35580000
v -0.00050000 -0.07506793 0.36629999
v -0.00050000 -0.07506793 0.36600199
v -0.00556499 -0.07506793 0.36857799
v -0.00785094 -0.07506793 0.36652499
v -0.01273399 -0.07506793 0.36975300
v -0.01507896 -0.07506793 0.36795899
v -0.01969397 -0.07506793 0.37183499
v -0.02207195 -0.07506793 0.37028399
v -0.02633094 -0.07506793 0.37479001
v -0.02872097 -0.07506793 0.37346300
v -0.03253597 -0.07506793 0.37856999
v -0.03492200 -0.07506793 0.37744501
v -0.03820598 -0.07506793 0.38311100
v -0.04057699 -0.07506793 0.38216901
v -0.04324895 -0.07506793 0.38834101
v -0.04559999 -0.07506793 0.38756201
v -0.04758197 -0.07506793 0.39417201
v -0.04991197 -0.07506793 0.39353800
v -0.05113297 -0.07506793 0.40051001
v -0.05344396 -0.07506793 0.40000600
v -0.05384498 -0.07506793 0.40724999
v -0.05614298 -0.07506793 0.40686300
v -0.05567300 -0.07506793 0.41428101
v -0.05796599 -0.07506793 0.41400301
v -0.05658596 -0.07506793 0.42148900
v -0.05888497 -0.07506793 0.42131501
v -0.05888497 -0.07506793 0.42868501
v -0.05657094 -0.07506793 0.42875299
v -0.05796599 -0.07506793 0.43599701
v -0.05562597 -0.07506793 0.43595701
v -0.05614298 -0.07506793 0.44313699
v -0.05376899 -0.07506793 0.44297999
v -0.05344396 -0.07506793 0.44999400
v -0.05102795 -0.07506793 0.44970801
v -0.04991197 -0.07506793 0.45646200
v -0.04744899 -0.07506793 0.45603099
v -0.04559999 -0.07506793 0.46243799
v -0.04309195 -0.07506793 0.46184400
v -0.04057699 -0.07506793 0.46783099
v -0.03802597 -0.07506793 0.46705201
v -0.03492200 -0.07506793 0.47255501
v -0.03233695 -0.07506793 0.47156900
v -0.03492200 -0.07506793 0.47255501
v -0.02872097 -0.07506793 0.47653699
v -0.02611595 -0.07506793 0.47532201
v -0.02207195 -0.07506793 0.47971600
v -0.01946699 -0.07506793 0.47824800
v -0.01507896 -0.07506793 0.48204100
v -0.01249796 -0.07506793 0.48030099
v -0.00785094 -0.07506793 0.48347500
v -0.00532299 -0.07506793 0.48144501
v -0.00050000 -0.07506793 0.48399800
v -0.00050000 -0.07506793 0.48370001
v 0.00193798 -0.07506793 0.48166201
v 0.00193798 -0.07506793 0.48166201
v -0.00050000 -0.07506793 0.48370001
v 0.00050000 -0.07506793 0.48370001
v 0.00050000 -0.07506793 0.48370001
v 0.00050000 -0.07506793 0.48399800
v 0.00785094 -0.07506793 0.48347500
v 0.00916797 -0.07506793 0.48094901
v 0.01507896 -0.07506793 0.48204100
v 0.01624798 -0.07506793 0.47931701
v 0.02207195 -0.07506793 0.47971600
v 0.02305996 -0.07506793 0.47679400
v 0.02872097 -0.07506793 0.47653699
v 0.02949398 -0.07506793 0.47341999
v 0.03492200 -0.07506793 0.47255501
v 0.03544396 -0.07506793 0.46924999
v 0.04057699 -0.07506793 0.46783099
v 0.04081100 -0.07506793 0.46435499
v 0.04559999 -0.07506793 0.46243799
v 0.04550898 -0.07506793 0.45881301
v 0.04991197 -0.07506793 0.45646200
v 0.04945898 -0.07506793 0.45271599
v 0.05344396 -0.07506793 0.44999400
v 0.05259698 -0.07506793 0.44616300
v 0.05614298 -0.07506793 0.44313699
v 0.05487197 -0.07506793 0.43926400
v 0.05796599 -0.07506793 0.43599701
v 0.05624496 -0.07506793 0.43213001
v 0.05888497 -0.07506793 0.42868501
v 0.05669498 -0.07506793 0.42487901
v 0.05888497 -0.07506793 0.42131501
v 0.05621397 -0.07506793 0.41762999
v 0.05796599 -0.07506793 0.41400301
v 0.05480998 -0.07506793 0.41050199
v 0.05614298 -0.07506793 0.40686300
v 0.05250597 -0.07506793 0.40361199
v 0.05344396 -0.07506793 0.40000600
v 0.04933995 -0.07506793 0.39707300
v 0.04991197 -0.07506793 0.39353800
v 0.04536396 -0.07506793 0.39099300
v 0.04559999 -0.07506793 0.38756201
v 0.04064297 -0.07506793 0.38547099
v 0.04057699 -0.07506793 0.38216901
v 0.03525400 -0.07506793 0.38059801
v 0.03492200 -0.07506793 0.37744501
v 0.02928698 -0.07506793 0.37645501
v 0.02872097 -0.07506793 0.37346300
v 0.02283799 -0.07506793 0.37310800
v 0.02207195 -0.07506793 0.37028399
v 0.01601499 -0.07506793 0.37061399
v 0.01507896 -0.07506793 0.36795899
v 0.00892895 -0.07506793 0.36901200
v 0.00785094 -0.07506793 0.36652499
v 0.00169599 -0.07506793 0.36833000
v 0.00050000 -0.07506793 0.36600199
v 0.00050000 -0.07506793 0.36629999
v 0.00050000 -0.07506793 0.36629999
v -0.00050000 -0.07506793 0.36629999
v 0.00169599 -0.07506793 0.36833000
v 0.00050000 -0.07806795 0.48370001
v 0.00050000 -0.07806795 0.48399800
v 0.00050000 -0.07506793 0.48370001
v 0.00050000 -0.07506793 0.48399800
v -0.00050000 -0.07506793 0.48399800
v -0.00050000 -0.07806795 0.48399800
v -0.00050000 -0.07506793 0.48370001
v -0.00050000 -0.07806795 0.48370001
v -0.00050000 -0.07806795 0.48370001
v -0.00015500 -0.07854294 0.48370001
v -0.00050000 -0.07506793 0.48370001
v 0.00015500 -0.07854294 0.48370001
v 0.00050000 -0.07506793 0.48370001
v 0.00050000 -0.07506793 0.48370001
v 0.00015500 -0.07854294 0.48370001
v 0.00050000 -0.07806795 0.48370001
v 0.00050000 -0.07806795 0.48370001
v 0.00040500 -0.07836192 0.48370001
v -0.00040500 -0.07836192 0.48370001
v 0.00050000 -0.07806795 0.48399800
v 0.00050000 -0.07806795 0.48370001
v 0.00046200 -0.07825893 0.48399800
v 0.00046200 -0.07825893 0.48399800
v 0.00050000 -0.07806795 0.48370001
v 0.00040500 -0.07836192 0.48370001
v 0.00046200 -0.07825893 0.48399800
v 0.00040500 -0.07836192 0.48370001
v 0.00035400 -0.07842093 0.48399901
v 0.00035400 -0.07842093 0.48399901
v 0.00040500 -0.07836192 0.48370001
v 0.00015500 -0.07854294 0.48370001
v 0.00035400 -0.07842093 0.48399901
v 0.00015500 -0.07854294 0.48370001
v 0.00019100 -0.07852995 0.48400000
v 0.00019100 -0.07852995 0.48400000
v 0.00015500 -0.07854294 0.48370001
v 0.00000000 -0.07856792 0.48400000
v 0.00000000 -0.07856792 0.48400000
v 0.00015500 -0.07854294 0.48370001
v -0.00015500 -0.07854294 0.48370001
v 0.00000000 -0.07856792 0.48400000
v -0.00015500 -0.07854294 0.48370001
v -0.00019100 -0.07852995 0.48400000
v -0.00019100 -0.07852995 0.48400000
v -0.00015500 -0.07854294 0.48370001
v -0.00035400 -0.07842093 0.48399901
v -0.00035400 -0.07842093 0.48399901
v -0.00015500 -0.07854294 0.48370001
v -0.00040500 -0.07836192 0.48370001
v -0.00035400 -0.07842093 0.48399901
v -0.00040500 -0.07836192 0.48370001
v -0.00046200 -0.07825893 0.48399800
v -0.00046200 -0.07825893 0.48399800
v -0.00040500 -0.07836192 0.48370001
v -0.00050000 -0.07806795 0.48370001
v -0.00046200 -0.07825893 0.48399800
v -0.00050000 -0.07806795 0.48370001
v -0.00050000 -0.07806795 0.48399800
v -0.00050000 -0.07506793 0.36629999
v -0.00050000 -0.07806795 0.36629999
v -0.00050000 -0.07506793 0.36600199
v -0.00050000 -0.07806795 0.36600199
v 0.00050000 -0.07806795 0.36600199
v 0.00050000 -0.07806795 0.36629999
v 0.00050000 -0.07506793 0.36600199
v 0.00050000 -0.07506793 0.36629999
v 0.00040500 -0.07836192 0.36629999
v 0.00015500 -0.07854294 0.36629999
v 0.00050000 -0.07806795 0.36629999
v 0.00050000 -0.07506793 0.36629999
v -0.00050000 -0.07506793 0.36629999
v -0.00015500 -0.07854294 0.36629999
v -0.00050000 -0.07506793 0.36629999
v -0.00015500 -0.07854294 0.36629999
v -0.00050000 -0.07806795 0.36629999
v -0.00050000 -0.07806795 0.36629999
v -0.00015500 -0.07854294 0.36629999
v -0.00040500 -0.07836192 0.36629999
v 0.00050000 -0.07806795 0.36600199
v 0.00042400 -0.07833296 0.36600199
v 0.00050000 -0.07806795 0.36629999
v 0.00050000 -0.07806795 0.36629999
v 0.00042400 -0.07833296 0.36600199
v 0.00040500 -0.07836192 0.36629999
v 0.00040500 -0.07836192 0.36629999
v 0.00031200 -0.07845795 0.36600101
v 0.00040500 -0.07836192 0.36629999
v 0.00031200 -0.07845795 0.36600101
v 0.00015500 -0.07854294 0.36629999
v 0.00015500 -0.07854294 0.36629999
v 0.00031200 -0.07845795 0.36600101
v 0.00000000 -0.07856792 0.36600000
v 0.00015500 -0.07854294 0.36629999
v 0.00000000 -0.07856792 0.36600000
v -0.00015500 -0.07854294 0.36629999
v -0.00015500 -0.07854294 0.36629999
v 0.00000000 -0.07856792 0.36600000
v -0.00026500 -0.07849192 0.36600101
v -0.00015500 -0.07854294 0.36629999
v -0.00026500 -0.07849192 0.36600101
v -0.00040500 -0.07836192 0.36629999
v -0.00040500 -0.07836192 0.36629999
v -0.00026500 -0.07849192 0.36600101
v -0.00039000 -0.07837992 0.36600101
v -0.00040500 -0.07836192 0.36629999
v -0.00039000 -0.07837992 0.36600101
v -0.00050000 -0.07806795 0.36600199
v -0.00050000 -0.07806795 0.36600199
v -0.00050000 -0.07806795 0.36629999
v -0.00040500 -0.07836192 0.36629999
v -0.00050000 -0.20696589 0.36030000
v -0.00050000 -0.20726590 0.36030000
v -0.00050000 -0.20696589 0.35730001
v -0.00050000 -0.20726590 0.35730001
v 0.00050000 -0.20726590 0.36030000
v 0.00050000 -0.20696589 0.36030000
v 0.00050000 -0.20726590 0.35730001
v 0.00050000 -0.20696589 0.35730001
v 0.00040500 -0.20696589 0.36059400
v 0.00015500 -0.20696589 0.36077601
v 0.00050000 -0.20696589 0.36030000
v 0.00050000 -0.20696589 0.35730001
v -0.00050000 -0.20696589 0.35730001
v -0.00015500 -0.20696589 0.36077601
v -0.00050000 -0.20696589 0.36030000
v -0.00050000 -0.20696589 0.36030000
v -0.00015500 -0.20696589 0.36077601
v -0.00040500 -0.20696589 0.36059400
v 0.00050000 -0.20726590 0.36030000
v 0.00042400 -0.20726590 0.36056501
v 0.00050000 -0.20696589 0.36030000
v 0.00050000 -0.20696589 0.36030000
v 0.00042400 -0.20726590 0.36056501
v 0.00040500 -0.20696589 0.36059400
v 0.00040500 -0.20696589 0.36059400
v 0.00042400 -0.20726590 0.36056501
v 0.00031200 -0.20726690 0.36069000
v 0.00040500 -0.20696589 0.36059400
v 0.00031200 -0.20726690 0.36069000
v 0.00015500 -0.20696589 0.36077601
v 0.00015500 -0.20696589 0.36077601
v 0.00031200 -0.20726690 0.36069000
v 0.00000000 -0.20726790 0.36080000
v 0.00015500 -0.20696589 0.36077601
v 0.00000000 -0.20726790 0.36080000
v -0.00015500 -0.20696589 0.36077601
v -0.00015500 -0.20696589 0.36077601
v 0.00000000 -0.20726790 0.36080000
v -0.00021100 -0.20726690 0.36075300
v -0.00015500 -0.20696589 0.36077601
v -0.00021100 -0.20726690 0.36075300
v -0.00040500 -0.20696589 0.36059400
v -0.00040500 -0.20696589 0.36059400
v -0.00021100 -0.20726690 0.36075300
v -0.00039000 -0.20726690 0.36061200
v -0.00040500 -0.20696589 0.36059400
v -0.00039000 -0.20726690 0.36061200
v -0.00050000 -0.20726590 0.36030000
v -0.00050000 -0.20726590 0.36030000
v -0.00050000 -0.20696589 0.36030000
f 1 2 3
f 3 2 4
f 3 4 5
f 5 4 6
f 5 6 7
f 7 6 8
f 7 8 9
f 9 8 10
f 9 10 11
f 11 10 12
f 11 12 13
f 13 12 14
f 15 16 17
f 18 14 19
f 18 19 20
f 20 19 21
f 20 21 22
f 22 21 23
f 22 23 24
f 24 23 25
f 24 25 26
f 26 25 27
f 28 29 30
f 31 32 33
f 34 35 36
f 37 38 39
f 37 39 40
f 41 42 43
f 44 45 46
f 46 45 47
f 48 49 50
f 51 52 53
f 54 55 56
f 57 53 58
f 56 59 60
f 61 58 62
f 61 62 63
f 63 62 64
f 63 64 65
f 65 64 66
f 65 66 67
f 67 66 68
f 67 68 69
f 69 68 70
f 69 70 71
f 71 70 72
f 71 72 73
f 73 72 74
f 73 74 75
f 75 74 76
f 75 76 77
f 77 76 78
f 77 78 79
f 79 78 80
f 79 80 81
f 81 80 82
f 81 82 83
f 83 82 84
f 83 84 85
f 85 84 86
f 85 86 87
f 87 86 88
f 87 88 89
f 89 88 90
f 91 90 92
f 93 90 94
f 93 94 95
f 95 94 96
f 97 98 99
f 99 98 100
f 101 102 103
f 103 102 104
f 103 104 105
f 106 107 108
f 106 108 109
f 110 111 112
f 109 113 114
f 115 112 116
f 114 117 118
f 118 117 119
f 120 121 122
f 122 121 123
f 122 123 124
f 125 123 126
f 124 127 128
f 128 126 129
f 128 129 130
f 130 129 131
f 130 131 132
f 132 131 133
f 132 133 134
f 134 133 135
f 134 135 136
f 136 135 137
f 136 137 138
f 138 137 2
f 138 2 1
f 139 140 141
f 141 140 142
f 141 142 143
f 143 144 141
f 141 144 145
f 145 144 146
f 145 146 147
f 147 146 148
f 147 148 149
f 149 148 150
f 149 150 151
f 151 150 152
f 151 152 153
f 153 152 154
f 153 154 155
f 155 154 156
f 155 156 157
f 157 156 158
f 157 158 159
f 159 158 160
f 159 160 161
f 161 160 162
f 163 164 141
f 141 164 165
f 141 165 166
f 164 163 167
f 167 163 168
f 167 168 169
f 166 170 141
f 141 170 171
f 141 171 172
f 172 173 141
f 141 173 174
f 141 174 175
f 175 176 141
f 141 176 177
f 141 177 178
f 178 179 141
f 141 179 180
f 141 180 181
f 181 182 141
f 141 182 183
f 141 183 184
f 184 185 141
f 141 185 186
f 141 186 187
f 187 139 141
f 188 189 190
f 190 189 191
f 190 191 192
f 191 189 193
f 193 189 194
f 193 194 195
f 195 194 196
f 195 196 197
f 195 197 198
f 198 197 199
f 198 199 200
f 200 199 201
f 200 201 202
f 202 201 203
f 202 203 204
f 204 203 205
f 204 205 206
f 206 205 207
f 206 207 208
f 208 207 209
f 208 209 210
f 210 209 211
f 210 211 212
f 212 211 213
f 212 213 214
f 214 213 215
f 214 215 216
f 216 215 217
f 216 217 218
f 218 217 219
f 218 219 220
f 220 219 221
f 220 221 222
f 222 221 223
f 222 223 224
f 224 223 225
f 224 225 226
f 226 225 227
f 226 227 228
f 228 227 229
f 228 229 230
f 230 229 231
f 230 231 232
f 232 231 233
f 232 233 234
f 234 233 235
f 234 235 236
f 236 235 237
f 236 237 238
f 238 237 239
f 238 239 240
f 240 239 241
f 240 241 242
f 242 241 243
f 242 243 244
f 244 243 245
f 244 245 246
f 246 245 247
f 246 247 248
f 248 247 249
f 248 249 250
f 250 249 251
f 250 251 252
f 252 251 253
f 252 253 254
f 254 253 255
f 254 255 256
f 256 255 257
f 256 257 258
f 258 257 259
f 258 259 260
f 260 259 261
f 260 261 262
f 262 261 263
f 262 263 264
f 264 263 265
f 264 265 266
f 266 265 267
f 266 267 268
f 268 267 269
f 268 269 270
f 270 269 271
f 270 271 272
f 272 271 273
f 272 273 274
f 274 273 275
f 274 275 276
f 276 275 277
f 276 277 278
f 278 277 279
f 278 279 280
f 280 279 281
f 280 281 282
f 282 281 283
f 282 283 284
f 282 284 285
f 285 284 286
f 285 286 287
f 287 286 288
f 287 288 192
f 192 288 190
f 286 289 288
f 290 291 292
f 292 291 293
f 294 295 296
f 296 295 297
f 298 299 300
f 300 299 301
f 302 303 304
f 304 303 305
f 304 306 307
f 307 306 308
f 307 308 309
f 309 308 310
f 309 311 312
f 312 311 313
f 312 313 314
f 314 313 315
f 316 315 317
f 318 315 319
f 320 321 322
f 322 321 323
f 324 325 326
f 326 325 327
f 328 329 330
f 331 332 333
f 334 335 336
f 336 335 337
f 338 339 340
f 340 341 342
f 340 342 343
f 344 342 345
f 346 347 348
f 348 347 349
f 350 351 352
f 352 351 353
f 352 353 354
f 354 353 355
f 354 355 356
f 357 358 359
f 360 361 362
f 362 363 364
f 362 364 365
f 365 366 367
f 368 369 370
f 370 369 371
f 372 373 374
f 374 373 375
f 374 375 376
f 376 375 377
f 378 379 380
f 380 379 381
f 382 383 384
f 384 383 385
f 386 387 388
f 388 387 389
f 390 391 392
f 392 391 393
f 394 395 396
f 396 393 397
f 398 399 400
f 400 399 401
f 402 403 404
f 405 403 406
f 404 407 408
f 409 407 410
f 411 412 413
f 414 415 416
f 414 416 417
f 417 418 419
f 417 419 420
f 420 419 421
f 422 423 424
f 424 423 425
f 426 427 428
f 428 429 430
f 428 430 431
f 432 430 433
f 434 435 436
f 436 435 437
f 438 439 440
f 441 439 442
f 443 444 445
f 445 444 446
f 447 448 449
f 449 448 450
f 451 452 453
f 454 455 456
f 454 456 457
f 457 458 459
f 457 459 460
f 461 459 462
f 463 464 465
f 465 464 466
f 465 466 467
f 467 466 468
f 467 468 469
f 469 470 471
f 472 473 474
f 475 476 477
f 478 479 480
f 480 479 481
f 480 481 482
f 482 481 483
f 482 483 484
f 484 483 485
f 484 485 486
f 486 485 487
f 486 487 488
f 488 487 489
f 488 489 490
f 490 489 491
f 490 491 492
f 492 491 493
f 492 493 494
f 494 493 495
f 494 495 496
f 496 495 497
f 496 497 498
f 498 497 499
f 498 499 500
f 500 499 501
f 500 501 502
f 502 501 503
f 502 503 504
f 502 504 505
f 505 504 506
f 505 506 507
f 507 506 508
f 507 508 509
f 509 508 510
f 509 510 511
f 511 510 512
f 511 512 513
f 513 512 514
f 513 514 515
f 515 514 516
f 515 516 517
f 517 516 518
f 517 518 519
f 519 518 520
f 519 520 521
f 521 520 522
f 521 522 523
f 523 522 524
f 523 525 526
f 526 525 527
f 526 527 528
f 528 527 529
f 528 529 530
f 528 530 531
f 531 530 532
f 531 532 533
f 533 534 531
f 531 534 535
f 535 534 536
f 535 536 537
f 537 536 538
f 537 538 539
f 539 538 540
f 539 540 541
f 541 540 542
f 541 542 543
f 543 542 544
f 543 544 545
f 545 544 546
f 545 546 547
f 547 546 548
f 547 548 549
f 549 548 550
f 549 550 551
f 551 550 552
f 551 552 553
f 553 552 554
f 553 554 555
f 555 554 556
f 555 556 557
f 557 556 558
f 557 558 559
f 559 558 560
f 559 560 561
f 561 560 562
f 561 562 563
f 563 562 564
f 563 564 565
f 565 564 566
f 565 566 567
f 567 566 568
f 567 568 569
f 569 568 570
f 569 570 571
f 571 570 572
f 571 572 573
f 573 572 574
f 573 574 575
f 575 574 576
f 575 576 577
f 577 576 578
f 577 578 579
f 579 578 580
f 579 580 581
f 581 580 582
f 581 582 583
f 583 478 581
f 581 478 480
f 584 585 586
f 586 585 587
f 588 589 590
f 590 589 591
f 592 593 594
f 594 593 595
f 594 595 596
f 596 595 597
f 597 595 598
f 592 599 593
f 600 601 602
f 603 604 605
f 606 607 608
f 609 610 611
f 612 613 614
f 615 616 617
f 618 619 620
f 621 622 623
f 624 625 626
f 627 628 629
f 630 631 632
f 633 634 635
f 636 637 638
f 639 640 641
f 641 640 642
f 643 644 645
f 645 644 646
f 647 648 649
f 649 648 650
f 650 648 651
f 651 648 652
f 651 652 653
f 653 652 654
f 655 656 657
f 658 659 660
f 661 662 663
f 664 665 666
f 667 668 669
f 670 671 672
f 673 674 675
f 676 677 678
f 679 680 681
f 682 683 684
f 685 686 687
f 688 689 690
f 690 689 691
f 692 693 694
f 694 693 695
f 696 697 698
f 699 700 701
f 701 700 702
f 703 704 705
f 702 706 707
f 707 706 708
f 709 710 711
f 712 710 713
f 714 715 716
f 717 718 719
f 720 721 722
f 723 724 725
f 726 727 728
f 729 730 731
f 732 733 734
f 735 736 737
f 738 739 740
f 741 742 743
f 743 742 744
f 743 744 745
f 745 744 746
f 745 746 747
f 747 746 748
f 747 748 749
f 749 748 750
f 749 750 751
f 751 750 752
f 751 752 753
f 753 752 754
f 753 754 755
f 755 754 756
f 755 756 757
f 757 756 758
f 759 760 761
f 762 758 763
f 762 763 764
f 764 763 765
f 766 767 768
f 769 765 770
f 769 770 771
f 771 770 772
f 773 774 775
f 776 772 777
f 775 778 779
f 780 777 781
f 780 781 782
f 783 784 785
f 786 787 788
f 789 790 791
f 788 792 793
f 794 791 795
f 794 795 796
f 797 798 799
f 796 800 801
f 802 799 803
f 802 803 804
f 804 803 805
f 804 805 806
f 806 805 807
f 806 807 808
f 808 807 809
f 808 809 810
f 810 809 811
f 810 811 812
f 812 811 813
f 812 813 814
f 814 813 815
f 814 815 816
f 816 815 817
f 816 817 818
f 818 817 819
f 818 819 820
f 820 819 821
f 820 821 822
f 822 821 823
f 824 825 826
f 826 825 827
f 828 827 829
f 829 827 830
f 829 830 831
f 831 830 832
f 831 832 833
f 833 832 834
f 833 835 836
f 836 835 837
f 838 839 840
f 841 837 842
f 840 843 844
f 844 843 845
f 844 845 846
f 846 845 847
f 848 847 849
f 849 847 850
f 849 851 852
f 853 850 854
f 852 855 856
f 856 855 857
f 858 859 860
f 861 862 863
f 861 863 864
f 864 863 865
f 864 866 867
f 867 866 868
f 869 868 870
f 870 868 871
f 872 871 873
f 873 871 874
f 875 874 876
f 876 874 877
f 878 877 879
f 879 877 880
f 879 880 881
f 881 880 742
f 881 742 741
f 882 883 884
f 885 886 887
f 885 887 888
f 888 889 885
f 885 889 890
f 890 889 891
f 890 891 892
f 892 893 894
f 892 895 896
f 896 895 897
f 896 897 898
f 898 897 899
f 898 899 900
f 900 899 901
f 900 901 902
f 902 901 903
f 902 903 904
f 904 905 906
f 904 906 907
f 908 909 910
f 911 912 913
f 914 915 916
f 917 918 885
f 885 918 919
f 885 919 920
f 918 917 921
f 921 917 922
f 921 922 923
f 920 924 885
f 885 924 925
f 885 925 926
f 926 927 885
f 885 927 928
f 885 928 929
f 929 930 885
f 885 930 931
f 885 931 932
f 932 933 885
f 885 933 934
f 885 934 935
f 935 936 885
f 885 936 937
f 885 937 938
f 939 940 884
f 885 941 942
f 885 942 943
f 943 882 885
f 944 945 946
f 946 945 947
f 946 947 948
f 947 945 949
f 949 945 950
f 951 952 953
f 953 952 954
f 955 956 957
f 953 958 959
f 960 957 961
f 960 961 962
f 962 961 963
f 962 963 964
f 964 963 965
f 964 965 966
f 966 965 967
f 966 967 968
f 968 967 969
f 968 969 970
f 970 969 971
f 970 971 972
f 972 971 973
f 972 973 974
f 975 976 977
f 974 978 979
f 980 977 981
f 982 983 984
f 985 986 987
f 985 987 988
f 989 990 991
f 988 992 993
f 993 992 994
f 993 994 995
f 995 994 996
f 995 996 997
f 997 996 998
f 997 998 999
f 1000 1001 1002
f 999 1003 1004
f 1004 1003 1005
f 1004 1006 1007
f 1007 1006 1008
f 1007 1008 1009
f 1009 1008 1010
f 1009 1010 1011
f 1011 1010 1012
f 1011 1012 1013
f 1013 1012 1014
f 1013 1015 1016
f 1017 1014 1018
f 1017 1018 1019
f 1019 1018 1020
f 1019 1021 1022
f 1023 1020 1024
f 1022 1025 1026
f 1027 1024 1028
f 1027 1028 1029
f 1029 1028 1030
f 1029 1030 1031
f 1031 1030 1032
f 1031 1032 1033
f 1034 1035 1036
f 1033 1037 1038
f 1039 1040 1041
f 1038 1042 1043
f 1043 1042 1044
f 1043 1044 1045
f 1045 1044 1046
f 1045 1046 1047
f 1047 1046 1048
f 1047 1048 1049
f 1050 1051 1052
f 1049 1053 1054
f 1054 1053 1055
f 1056 1057 1058
f 1059 1060 1061
f 1062 1063 1064
f 1065 1061 1066
f 1064 1067 1068
f 1068 1067 1069
f 1068 1069 1070
f 1070 1069 1071
f 1070 1071 1072
f 1072 1071 1073
f 1072 1073 1074
f 1074 1073 1075
f 1076 1075 1077
f 1077 1075 1078
f 1077 1078 1079
f 1079 1078 1080
f 1079 1080 1081
f 1081 1080 1082
f 1081 1082 1083
f 1084 1082 1085
f 1083 1086 1087
f 1083 1087 1088
f 1089 1087 1090
f 1089 1090 1091
f 1091 1090 1092
f 1091 1092 948
f 948 1092 946
f 1090 1093 1092
f 1094 1095 1096
f 1096 1095 1097
f 1098 1099 1100
f 1100 1099 1101
f 1102 1103 1104
f 1104 1103 1105
f 1106 1107 1108
f 1108 1109 1110
f 1111 1112 1113
f 1113 1112 1114
f 1113 1114 1115
f 1116 1117 1118
f 1119 1120 1121
f 1121 1120 1122
f 1121 1122 1123
f 1124 1125 1126
f 1124 1126 1127
f 1128 1129 1130
f 1131 1132 1133
f 1134 1130 1135
f 1136 1137 1138
f 1138 1137 1139
f 1140 1141 1142
f 1142 1141 1143
f 1144 1145 1146
f 1146 1147 1148
f 1149 1150 1151
f 1151 1152 1153
f 1151 1153 1154
f 1154 1153 1155
f 1156 1157 1158
f 1159 1160 1161
f 1159 1161 1162
f 1163 1164 1165
f 1163 1165 1166
f 1167 1168 1169
f 1167 1169 1170
f 1170 1171 1172
f 1173 1174 1175
f 1176 1177 1178
f 1176 1178 1179
f 1179 1180 1181
f 1182 1183 1184
f 1184 1181 1185
f 1186 1187 1188
f 1189 1190 1191
f 1189 1191 1192
f 1193 1194 1195
f 1196 1197 1198
f 1198 1197 1199
f 1200 1201 1202
f 1202 1201 1203
f 1204 1205 1206
f 1206 1207 1208
f 1209 1210 1211
f 1212 1213 1214
f 1211 1215 1216
f 1217 1218 1219
f 1220 1221 1222
f 1223 1221 1224
f 1222 1225 1226
f 1227 1225 1228
f 1226 1229 1230
f 1231 1229 1232
f 1233 1234 1235
f 1236 1234 1237
f 1238 1239 1240
f 1241 1242 1243
f 1244 1245 1246
f 1247 1248 1249
f 1250 1251 1252
f 1253 1254 1255
f 1256 1257 1258
f 1258 1257 1259
f 1260 1259 1261
f 1261 1259 1262
f 1263 1264 1265
f 1266 1264 1267
f 1268 1269 1270
f 1270 1269 1271
f 1272 1273 1274
f 1274 1273 1275
f 1276 1277 1278
f 1279 1280 1281
f 1282 1283 1284
f 1285 1281 1286
f 1287 1288 1289
f 1290 1291 1292
f 1289 1293 1294
f 1294 1293 1295
f 1296 1297 1298
f 1299 1300 1301
f 1298 1302 1303
f 1303 1302 1304
f 1305 1306 1307
f 1308 1306 1309
f 1310 1311 1312
f 1313 1311 1314
f 1315 1316 1317
f 1317 1316 1318
f 1317 1318 1319
f 1319 1318 1320
f 1319 1320 1321
f 1321 1320 1322
f 1321 1322 1323
f 1323 1322 1324
f 1323 1324 1325
f 1325 1324 1326
f 1325 1326 1327
f 1327 1326 1328
f 1327 1328 1329
f 1329 1328 1330
f 1329 1330 1331
f 1331 1330 1332
f 1331 1332 1333
f 1333 1332 1334
f 1333 1334 1335
f 1335 1334 1336
f 1335 1336 1337
f 1337 1336 1338
f 1337 1338 1339
f 1339 1338 1340
f 1339 1340 1341
f 1339 1341 1342
f 1342 1341 1343
f 1342 1343 1344
f 1344 1343 1345
f 1344 1345 1346
f 1346 1345 1347
f 1346 1347 1348
f 1348 1347 1349
f 1348 1349 1350
f 1350 1349 1351
f 1350 1351 1352
f 1352 1351 1353
f 1352 1353 1354
f 1354 1353 1355
f 1354 1355 1356
f 1356 1357 1358
f 1356 1358 1359
f 1359 1358 1360
f 1359 1360 1361
f 1361 1360 1362
f 1361 1362 1363
f 1363 1362 1364
f 1363 1364 1365
f 1365 1364 1366
f 1365 1366 1367
f 1365 1367 1368
f 1369 1370 1371
f 1368 1372 1373
f 1373 1374 1368
f 1368 1374 1375
f 1375 1374 1376
f 1375 1376 1377
f 1377 1376 1378
f 1377 1378 1379
f 1379 1378 1380
f 1379 1380 1381
f 1381 1380 1382
f 1381 1382 1383
f 1383 1382 1384
f 1383 1384 1385
f 1385 1384 1386
f 1385 1386 1387
f 1387 1386 1388
f 1387 1388 1389
f 1389 1388 1390
f 1389 1390 1391
f 1391 1390 1392
f 1391 1392 1393
f 1393 1392 1394
f 1393 1394 1395
f 1395 1394 1396
f 1395 1396 1397
f 1397 1396 1398
f 1397 1398 1399
f 1399 1398 1400
f 1399 1400 1401
f 1401 1400 1402
f 1401 1402 1403
f 1403 1402 1404
f 1403 1404 1405
f 1405 1404 1406
f 1405 1406 1407
f 1407 1406 1408
f 1407 1408 1409
f 1409 1408 1410
f 1409 1410 1411
f 1411 1410 1412
f 1411 1412 1413
f 1413 1412 1414
f 1413 1414 1415
f 1415 1414 1416
f 1415 1416 1417
f 1417 1416 1418
f 1417 1418 1419
f 1419 1418 1420
f 1419 1420 1421
f 1421 1420 1422
f 1421 1422 1423
f 1424 1425 1426
f 1421 1315 1317
f 1427 1428 1429
f 1429 1428 1430
f 1431 1432 1433
f 1433 1432 1434
f 1435 1436 1437
f 1437 1436 1438
f 1437 1438 1439
f 1440 1441 1442
f 1443 1438 1444
f 1435 1445 1436
f 1446 1447 1448
f 1449 1450 1451
f 1452 1453 1454
f 1455 1456 1457
f 1458 1459 1460
f 1461 1462 1463
f 1464 1465 1466
f 1467 1468 1469
f 1470 1471 1472
f 1473 1474 1475
f 1476 1477 1478
f 1479 1480 1481
f 1482 1483 1484
f 1485 1486 1487
f 1487 1486 1488
f 1489 1490 1491
f 1491 1490 1492
f 1493 1494 1495
f 1495 1494 1496
f 1496 1494 1497
f 1497 1494 1498
f 1499 1500 1501
f 1502 1503 1504
f 1505 1506 1507
f 1508 1509 1510
f 1511 1506 1512
f 1513 1514 1515
f 1516 1517 1518
f 1519 1520 1521
f 1522 1523 1524
f 1525 1526 1527
f 1528 1529 1530
f 1531 1532 1533
f 1534 1535 1536
f 1537 1538 1539
f 1539 1538 1540
f 1541 1542 1543
f 1543 1542 1544
f 1545 1546 1547
f 1547 1546 1548
f 1548 1546 1549
f 1549 1546 1550
f 1549 1550 1551
f 1552 1553 1554
f 1555 1556 1557
f 1558 1559 1560
f 1561 1562 1563
f 1564 1565 1566
f 1567 1568 1569
f 1570 1571 1572
f 1573 1574 1575
f 1576 1577 1578
f 1579 1580 1581
f 1582 1583 1584
f 1585 1586 1582

