# https://github.com/mikedh/trimesh
v -0.01385000 0.08122884 0.01492029
v -0.01200000 0.08122884 0.02600000
v -0.01385000 0.08122884 0.03707972
v -0.01199891 0.08122884 0.02617635
v -0.01385000 0.08122884 0.03707972
v -0.01199891 0.08122884 0.02617635
v -0.01199335 0.08122884 0.02641816
v -0.01324344 0.08122884 0.01508584
v -0.01084808 0.08122884 0.02087339
v -0.01385000 0.08122884 0.01492029
v -0.01084808 0.08122884 0.02087339
v -0.01098843 0.08122884 0.02117951
v -0.01098843 0.08122884 0.02117951
v -0.01109009 0.08122884 0.02141667
v -0.01261507 0.08122884 0.01506442
v -0.01034412 0.08122884 0.01992617
v -0.01066296 0.08122884 0.02050156
v -0.01066296 0.08122884 0.02050156
v -0.01202120 0.08122884 0.01485795
v -0.00972618 0.08122884 0.01897899
v -0.01004573 0.08122884 0.01944540
v -0.01151507 0.08122884 0.01448493
v -0.00881192 0.08122884 0.01785546
v -0.01202120 0.08122884 0.01485795
v -0.00881192 0.08122884 0.01785546
v -0.00904436 0.08122884 0.01811563
v -0.00904436 0.08122884 0.01811563
v -0.00931632 0.08122884 0.01844095
v -0.01114205 0.08122884 0.01397880
v -0.00848528 0.08122884 0.01751472
v -0.00862433 0.08122884 0.01765625
v -0.01151507 0.08122884 0.01448493
v -0.00862433 0.08122884 0.01765625
v -0.00757609 0.08122884 0.01669407
v -0.01093558 0.08122884 0.01338493
v -0.00658808 0.08122884 0.01597025
v -0.01091416 0.08122884 0.01275655
v -0.00553139 0.08122884 0.01535100
v -0.00553139 0.08122884 0.01535100
v -0.01091416 0.08122884 0.01275655
v -0.01107971 0.08122884 0.01215000
v -0.01107971 0.08122884 0.01215000
v -0.00441713 0.08122884 0.01484254
v -0.00441713 0.08122884 0.01484254
v -0.01107971 0.08122884 0.01215000
v -0.00423973 0.08122884 0.01477369
v -0.00423973 0.08122884 0.01477369
v -0.01107971 0.08122884 0.01215000
v -0.00399495 0.08122884 0.01468380
v -0.00399495 0.08122884 0.01468380
v -0.01107971 0.08122884 0.01215000
v -0.00368137 0.08122884 0.01457701
v -0.00368137 0.08122884 0.01457701
v -0.00329734 0.08122884 0.01445914
v -0.00270154 0.08122884 0.01430378
v -0.00270154 0.08122884 0.01430378
v -0.01107971 0.08122884 0.01215000
v -0.00219358 0.08122884 0.01419749
v -0.00219358 0.08122884 0.01419749
v -0.00169583 0.08122884 0.01411631
v -0.00109732 0.08122884 0.01404773
v -0.00072629 0.08122884 0.01402053
v -0.00072629 0.08122884 0.01402053
v -0.01107971 0.08122884 0.01215000
v -0.00041947 0.08122884 0.01400670
v -0.00041947 0.08122884 0.01400670
v -0.01107971 0.08122884 0.01215000
v -0.00017732 0.08122884 0.01400111
v -0.00017732 0.08122884 0.01400111
v -0.01107971 0.08122884 0.01215000
v 0.00000000 0.08122884 0.01400000
v 0.00000000 0.08122884 0.01400000
v 0.01107972 0.08122884 0.01215000
v 0.00109636 0.08122884 0.01405023
v 0.00109636 0.08122884 0.01405023
v 0.01107972 0.08122884 0.01215000
v 0.00218356 0.08122884 0.01420034
v 0.00218356 0.08122884 0.01420034
v 0.00329967 0.08122884 0.01446412
v 0.00329967 0.08122884 0.01446412
v 0.01107972 0.08122884 0.01215000
v 0.00349102 0.08122884 0.01452055
v 0.00349102 0.08122884 0.01452055
v 0.01107972 0.08122884 0.01215000
v 0.00386444 0.08122884 0.01464015
v 0.00386444 0.08122884 0.01464015
v 0.00421110 0.08122884 0.01476338
v 0.00441714 0.08122884 0.01484254
v 0.00458334 0.08122884 0.01490991
v 0.00458334 0.08122884 0.01490991
v 0.01107972 0.08122884 0.01215000
v 0.00482050 0.08122884 0.01501157
v 0.00482050 0.08122884 0.01501157
v 0.00512662 0.08122884 0.01515192
v 0.00512662 0.08122884 0.01515192
v 0.01107972 0.08122884 0.01215000
v 0.01091416 0.08122884 0.01275655
v 0.00512662 0.08122884 0.01515192
v 0.01091416 0.08122884 0.01275655
v 0.00549845 0.08122884 0.01533704
v 0.00549845 0.08122884 0.01533704
v 0.01091416 0.08122884 0.01275655
v 0.00607384 0.08122884 0.01565588
v 0.01093558 0.08122884 0.01338493
v 0.00655460 0.08122884 0.01595427
v 0.00655460 0.08122884 0.01595427
v 0.01093558 0.08122884 0.01338493
v 0.00702102 0.08122884 0.01627382
v 0.00702102 0.08122884 0.01627382
v 0.01114206 0.08122884 0.01397880
v 0.00755906 0.08122884 0.01668368
v 0.00788438 0.08122884 0.01695564
v 0.00788438 0.08122884 0.01695564
v 0.01114206 0.08122884 0.01397880
v 0.00814454 0.08122884 0.01718808
v 0.00814454 0.08122884 0.01718808
v 0.01151508 0.08122884 0.01448493
v 0.00814454 0.08122884 0.01718808
v 0.01151508 0.08122884 0.01448493
v 0.00834376 0.08122884 0.01737567
v 0.00834376 0.08122884 0.01737567
v 0.01151508 0.08122884 0.01448493
v 0.00848528 0.08122884 0.01751472
v 0.00848528 0.08122884 0.01751472
v 0.01202121 0.08122884 0.01485795
v 0.00930594 0.08122884 0.01842391
v 0.01261508 0.08122884 0.01506442
v 0.01002975 0.08122884 0.01941192
v 0.01324345 0.08122884 0.01508584
v 0.01064901 0.08122884 0.02046861
v 0.01385000 0.08122884 0.01492029
v 0.01115746 0.08122884 0.02158287
v 0.01122642 0.08122884 0.02176055
v 0.01131634 0.08122884 0.02200543
v 0.01142309 0.08122884 0.02231894
v 0.01154087 0.08122884 0.02270271
v 0.01169629 0.08122884 0.02329875
v 0.01180254 0.08122884 0.02380655
v 0.01180254 0.08122884 0.02380655
v 0.01385000 0.08122884 0.01492029
v 0.01188380 0.08122884 0.02430487
v 0.01188380 0.08122884 0.02430487
v 0.01195230 0.08122884 0.02490283
v 0.01195230 0.08122884 0.02490283
v 0.01385000 0.08122884 0.01492029
v 0.01197955 0.08122884 0.02527475
v 0.01197955 0.08122884 0.02527475
v 0.01199336 0.08122884 0.02558185
v 0.01199892 0.08122884 0.02582365
v 0.01200000 0.08122884 0.02600000
v 0.01385000 0.08122884 0.03707972
v 0.01194976 0.08122884 0.02709636
v 0.01179967 0.08122884 0.02818356
v 0.01153590 0.08122884 0.02929960
v 0.01153590 0.08122884 0.02929960
v 0.01385000 0.08122884 0.03707972
v 0.01147961 0.08122884 0.02949048
v 0.01147961 0.08122884 0.02949048
v 0.01135986 0.08122884 0.02986442
v 0.01123663 0.08122884 0.03021111
v 0.01115746 0.08122884 0.03041714
v 0.01109010 0.08122884 0.03058334
v 0.01098843 0.08122884 0.03082050
v 0.01098843 0.08122884 0.03082050
v 0.01084808 0.08122884 0.03112661
v 0.01084808 0.08122884 0.03112661
v 0.01324345 0.08122884 0.03691416
v 0.01066297 0.08122884 0.03149845
v 0.01066297 0.08122884 0.03149845
v 0.01034413 0.08122884 0.03207384
v 0.01034413 0.08122884 0.03207384
v 0.01261508 0.08122884 0.03693558
v 0.01004574 0.08122884 0.03255460
v 0.00972618 0.08122884 0.03302102
v 0.01202121 0.08122884 0.03714206
v 0.00931633 0.08122884 0.03355906
v 0.00904437 0.08122884 0.03388438
v 0.00904437 0.08122884 0.03388438
v 0.01202121 0.08122884 0.03714206
v 0.00881192 0.08122884 0.03414454
v 0.00881192 0.08122884 0.03414454
v 0.01151508 0.08122884 0.03751508
v 0.00862434 0.08122884 0.03434376
v 0.00848528 0.08122884 0.03448528
v 0.01114206 0.08122884 0.03802121
v 0.00757610 0.08122884 0.03530594
v 0.01093558 0.08122884 0.03861508
v 0.00658809 0.08122884 0.03602975
v 0.01091416 0.08122884 0.03924345
v 0.00553140 0.08122884 0.03664901
v 0.00553140 0.08122884 0.03664901
v 0.01091416 0.08122884 0.03924345
v 0.01107972 0.08122884 0.03985000
v 0.01107972 0.08122884 0.03985000
v 0.00441714 0.08122884 0.03715746
v 0.00441714 0.08122884 0.03715746
v 0.01107972 0.08122884 0.03985000
v 0.00423973 0.08122884 0.03722631
v 0.00423973 0.08122884 0.03722631
v 0.01107972 0.08122884 0.03985000
v 0.00399496 0.08122884 0.03731621
v 0.00399496 0.08122884 0.03731621
v 0.01107972 0.08122884 0.03985000
v 0.00368138 0.08122884 0.03742300
v 0.00368138 0.08122884 0.03742300
v 0.00329735 0.08122884 0.03754086
v 0.00270154 0.08122884 0.03769622
v 0.00270154 0.08122884 0.03769622
v 0.01107972 0.08122884 0.03985000
v 0.00219359 0.08122884 0.03780251
v 0.00219359 0.08122884 0.03780251
v 0.00169584 0.08122884 0.03788369
v 0.00109733 0.08122884 0.03795227
v 0.00109733 0.08122884 0.03795227
v 0.01107972 0.08122884 0.03985000
v 0.00072630 0.08122884 0.03797948
v 0.00072630 0.08122884 0.03797948
v 0.01107972 0.08122884 0.03985000
v 0.00041947 0.08122884 0.03799330
v 0.00041947 0.08122884 0.03799330
v 0.01107972 0.08122884 0.03985000
v 0.00017732 0.08122884 0.03799890
v 0.00017732 0.08122884 0.03799890
v 0.01107972 0.08122884 0.03985000
v 0.00000000 0.08122884 0.03800000
v 0.00000000 0.08122884 0.03800000
v -0.01107971 0.08122884 0.03985000
v -0.00109636 0.08122884 0.03794978
v -0.00109636 0.08122884 0.03794978
v -0.01107971 0.08122884 0.03985000
v -0.00218355 0.08122884 0.03779967
v -0.00218355 0.08122884 0.03779967
v -0.00329966 0.08122884 0.03753588
v -0.00329966 0.08122884 0.03753588
v -0.01107971 0.08122884 0.03985000
v -0.00349101 0.08122884 0.03747946
v -0.00349101 0.08122884 0.03747946
v -0.01107971 0.08122884 0.03985000
v -0.00386443 0.08122884 0.03735985
v -0.00386443 0.08122884 0.03735985
v -0.00421110 0.08122884 0.03723663
v -0.00441713 0.08122884 0.03715746
v -0.00458333 0.08122884 0.03709010
v -0.00482049 0.08122884 0.03698843
v -0.00512661 0.08122884 0.03684808
v -0.00512661 0.08122884 0.03684808
v -0.01107971 0.08122884 0.03985000
v -0.01091416 0.08122884 0.03924345
v -0.00512661 0.08122884 0.03684808
v -0.01091416 0.08122884 0.03924345
v -0.00549844 0.08122884 0.03666296
v -0.00549844 0.08122884 0.03666296
v -0.01091416 0.08122884 0.03924345
v -0.00607383 0.08122884 0.03634413
v -0.01093558 0.08122884 0.03861508
v -0.00655460 0.08122884 0.03604574
v -0.00655460 0.08122884 0.03604574
v -0.01093558 0.08122884 0.03861508
v -0.00702101 0.08122884 0.03572618
v -0.00702101 0.08122884 0.03572618
v -0.01114205 0.08122884 0.03802121
v -0.00755905 0.08122884 0.03531633
v -0.00788437 0.08122884 0.03504437
v -0.00788437 0.08122884 0.03504437
v -0.01114205 0.08122884 0.03802121
v -0.00814454 0.08122884 0.03481192
v -0.00814454 0.08122884 0.03481192
v -0.01151507 0.08122884 0.03751508
v -0.00814454 0.08122884 0.03481192
v -0.01151507 0.08122884 0.03751508
v -0.00834375 0.08122884 0.03462434
v -0.00834375 0.08122884 0.03462434
v -0.01151507 0.08122884 0.03751508
v -0.00848528 0.08122884 0.03448528
v -0.00848528 0.08122884 0.03448528
v -0.01202120 0.08122884 0.03714206
v -0.00930593 0.08122884 0.03357610
v -0.01261507 0.08122884 0.03693558
v -0.01002974 0.08122884 0.03258809
v -0.01324344 0.08122884 0.03691416
v -0.01064900 0.08122884 0.03153140
v -0.01115746 0.08122884 0.03041714
v -0.01122641 0.08122884 0.03023946
v -0.01131633 0.08122884 0.02999457
v -0.01142309 0.08122884 0.02968107
v -0.01154087 0.08122884 0.02929729
v -0.01169628 0.08122884 0.02870125
v -0.01180253 0.08122884 0.02819346
v -0.01180253 0.08122884 0.02819346
v -0.01385000 0.08122884 0.03707972
v -0.01188379 0.08122884 0.02769514
v -0.01188379 0.08122884 0.02769514
v -0.01195230 0.08122884 0.02709718
v -0.01195230 0.08122884 0.02709718
v -0.01385000 0.08122884 0.03707972
v -0.01197955 0.08122884 0.02672526
v -0.01197955 0.08122884 0.02672526
v -0.01199335 0.08122884 0.02641816
v -0.01115746 0.08122884 0.02158287
v -0.01123662 0.08122884 0.02178890
v -0.01385000 0.08122884 0.01492029
v -0.01123662 0.08122884 0.02178890
v -0.01135985 0.08122884 0.02213559
v -0.01135985 0.08122884 0.02213559
v -0.01147961 0.08122884 0.02250953
v -0.01147961 0.08122884 0.02250953
v -0.01153589 0.08122884 0.02270040
v -0.01153589 0.08122884 0.02270040
v -0.01179966 0.08122884 0.02381645
v -0.01194975 0.08122884 0.02490365
v -0.01385000 0.08122884 0.03707972
v -0.01385000 0.08082884 0.03707972
v -0.01385000 0.08122884 0.01492029
v -0.01385000 0.08082884 0.01492029
v -0.01385000 0.08082884 0.03707972
v -0.01385000 0.08122884 0.03707972
v -0.01324344 0.08082884 0.03691416
v -0.01324344 0.08122884 0.03691416
v -0.01261507 0.08082884 0.03693558
v -0.01261507 0.08122884 0.03693558
v -0.01202120 0.08082884 0.03714206
v -0.01202120 0.08122884 0.03714206
v -0.01151507 0.08082884 0.03751508
v -0.01151507 0.08122884 0.03751508
v -0.01114205 0.08082884 0.03802121
v -0.01114205 0.08122884 0.03802121
v -0.01093558 0.08082884 0.03861508
v -0.01093558 0.08122884 0.03861508
v -0.01091416 0.08082884 0.03924345
v -0.01091416 0.08122884 0.03924345
v -0.01107971 0.08082884 0.03985000
v -0.01107971 0.08122884 0.03985000
v 0.01107972 0.08122884 0.03985000
v 0.01107972 0.08082884 0.03985000
v -0.01107971 0.08122884 0.03985000
v -0.01107971 0.08082884 0.03985000
v 0.01107972 0.08082884 0.03985000
v 0.01107972 0.08122884 0.03985000
v 0.01091416 0.08082884 0.03924345
v 0.01091416 0.08122884 0.03924345
v 0.01093558 0.08082884 0.03861508
v 0.01093558 0.08122884 0.03861508
v 0.01114206 0.08082884 0.03802121
v 0.01114206 0.08122884 0.03802121
v 0.01151508 0.08082884 0.03751508
v 0.01151508 0.08122884 0.03751508
v 0.01202121 0.08082884 0.03714206
v 0.01202121 0.08122884 0.03714206
v 0.01261508 0.08082884 0.03693558
v 0.01261508 0.08122884 0.03693558
v 0.01324345 0.08082884 0.03691416
v 0.01324345 0.08122884 0.03691416
v 0.01385000 0.08082884 0.03707972
v 0.01385000 0.08122884 0.03707972
v 0.01385000 0.08122884 0.03707972
v 0.01385000 0.08122884 0.01492029
v 0.01385000 0.08082884 0.03707972
v 0.01385000 0.08082884 0.01492029
v 0.01107972 0.08122884 0.01215000
v 0.01107972 0.08082884 0.01215000
v 0.01091416 0.08122884 0.01275655
v 0.01091416 0.08082884 0.01275655
v 0.01093558 0.08122884 0.01338493
v 0.01093558 0.08082884 0.01338493
v 0.01114206 0.08122884 0.01397880
v 0.01114206 0.08082884 0.01397880
v 0.01151508 0.08122884 0.01448493
v 0.01151508 0.08082884 0.01448493
v 0.01202121 0.08122884 0.01485795
v 0.01202121 0.08082884 0.01485795
v 0.01261508 0.08122884 0.01506442
v 0.01261508 0.08082884 0.01506442
v 0.01324345 0.08122884 0.01508584
v 0.01324345 0.08082884 0.01508584
v 0.01385000 0.08122884 0.01492029
v 0.01385000 0.08082884 0.01492029
v -0.01107971 0.08122884 0.01215000
v -0.01107971 0.08082884 0.01215000
v 0.01107972 0.08122884 0.01215000
v 0.01107972 0.08082884 0.01215000
v -0.01385000 0.08122884 0.01492029
v -0.01385000 0.08082884 0.01492029
v -0.01324344 0.08122884 0.01508584
v -0.01324344 0.08082884 0.01508584
v -0.01261507 0.08122884 0.01506442
v -0.01261507 0.08082884 0.01506442
v -0.01202120 0.08122884 0.01485795
v -0.01202120 0.08082884 0.01485795
v -0.01151507 0.08122884 0.01448493
v -0.01151507 0.08082884 0.01448493
v -0.01114205 0.08122884 0.01397880
v -0.01114205 0.08082884 0.01397880
v -0.01093558 0.08122884 0.01338493
v -0.01093558 0.08082884 0.01338493
v -0.01091416 0.08122884 0.01275655
v -0.01091416 0.08082884 0.01275655
v -0.01107971 0.08122884 0.01215000
v -0.01107971 0.08082884 0.01215000
v -0.00109636 0.08122884 0.03794978
v -0.00079745 0.08111760 0.03765833
v 0.00079745 0.08111760 0.03765833
v 0.00017732 0.08122884 0.03799890
v 0.00041947 0.08122884 0.03799330
v 0.00072630 0.08122884 0.03797948
v 0.00109733 0.08122884 0.03795227
v 0.00169584 0.08122884 0.03788369
v 0.00237750 0.08111760 0.03744116
v 0.00219359 0.08122884 0.03780251
v 0.00270154 0.08122884 0.03769622
v 0.00329735 0.08122884 0.03754086
v 0.00368138 0.08122884 0.03742300
v 0.00399496 0.08122884 0.03731621
v 0.00391326 0.08111760 0.03701086
v 0.00423973 0.08122884 0.03722631
v 0.00441714 0.08122884 0.03715746
v 0.00538135 0.08111760 0.03637274
v 0.00553140 0.08122884 0.03664901
v 0.00658809 0.08122884 0.03602975
v 0.00673884 0.08111760 0.03554676
v 0.00757610 0.08122884 0.03530594
v 0.00797602 0.08111760 0.03454024
v 0.00848528 0.08122884 0.03448528
v 0.00862434 0.08122884 0.03434376
v 0.00881192 0.08122884 0.03414454
v 0.00904437 0.08122884 0.03388438
v 0.00906953 0.08111760 0.03336860
v 0.00931633 0.08122884 0.03355906
v 0.00972618 0.08122884 0.03302102
v 0.01004574 0.08122884 0.03255460
v 0.00998438 0.08111760 0.03207164
v 0.01034413 0.08122884 0.03207384
v 0.01066297 0.08122884 0.03149845
v 0.01071814 0.08111760 0.03065555
v 0.01084808 0.08122884 0.03112661
v 0.01098843 0.08122884 0.03082050
v 0.01109010 0.08122884 0.03058334
v 0.01115746 0.08122884 0.03041714
v 0.01123663 0.08122884 0.03021111
v 0.01135986 0.08122884 0.02986442
v 0.01147961 0.08122884 0.02949048
v 0.01153590 0.08122884 0.02929960
v 0.01125224 0.08111760 0.02915273
v 0.01179967 0.08122884 0.02818356
v 0.01157673 0.08111760 0.02759119
v 0.01194976 0.08122884 0.02709636
v 0.01168557 0.08111760 0.02600000
v 0.01199892 0.08122884 0.02582365
v 0.01199336 0.08122884 0.02558185
v 0.01197955 0.08122884 0.02527475
v 0.01157673 0.08111760 0.02440882
v 0.01195230 0.08122884 0.02490283
v 0.01188380 0.08122884 0.02430487
v 0.01180254 0.08122884 0.02380655
v 0.01169629 0.08122884 0.02329875
v 0.01125224 0.08111760 0.02284728
v 0.01154087 0.08122884 0.02270271
v 0.01142309 0.08122884 0.02231894
v 0.01131634 0.08122884 0.02200543
v 0.01122642 0.08122884 0.02176055
v 0.01115746 0.08122884 0.02158287
v 0.01071814 0.08111760 0.02134446
v 0.01064901 0.08122884 0.02046861
v 0.00998438 0.08111760 0.01992837
v 0.01002975 0.08122884 0.01941192
v 0.00906339 0.08111760 0.01862386
v 0.00930594 0.08122884 0.01842391
v 0.00848528 0.08122884 0.01751472
v 0.00834376 0.08122884 0.01737567
v 0.00797602 0.08111760 0.01745977
v 0.00814454 0.08122884 0.01718808
v 0.00788438 0.08122884 0.01695564
v 0.00755906 0.08122884 0.01668368
v 0.00702102 0.08122884 0.01627382
v 0.00673884 0.08111760 0.01645325
v 0.00655460 0.08122884 0.01595427
v 0.00607384 0.08122884 0.01565588
v 0.00537612 0.08111760 0.01562456
v 0.00549845 0.08122884 0.01533704
v 0.00512662 0.08122884 0.01515192
v 0.00482050 0.08122884 0.01501157
v 0.00458334 0.08122884 0.01490991
v 0.00441714 0.08122884 0.01484254
v 0.00421110 0.08122884 0.01476338
v 0.00391326 0.08111760 0.01498915
v 0.00386444 0.08122884 0.01464015
v 0.00349102 0.08122884 0.01452055
v 0.00329967 0.08122884 0.01446412
v 0.00237750 0.08111760 0.01455885
v 0.00218356 0.08122884 0.01420034
v 0.00109636 0.08122884 0.01405023
v 0.00079745 0.08111760 0.01434168
v -0.00079745 0.08111760 0.01434168
v -0.00017732 0.08122884 0.01400111
v -0.00041947 0.08122884 0.01400670
v -0.00072629 0.08122884 0.01402053
v -0.00109732 0.08122884 0.01404773
v -0.00169583 0.08122884 0.01411631
v -0.00237749 0.08111760 0.01455885
v -0.00219358 0.08122884 0.01419749
v -0.00270154 0.08122884 0.01430378
v -0.00329734 0.08122884 0.01445914
v -0.00368137 0.08122884 0.01457701
v -0.00399495 0.08122884 0.01468380
v -0.00391325 0.08111760 0.01498915
v -0.00423973 0.08122884 0.01477369
v -0.00441713 0.08122884 0.01484254
v -0.00538134 0.08111760 0.01562727
v -0.00553139 0.08122884 0.01535100
v -0.00658808 0.08122884 0.01597025
v -0.00673883 0.08111760 0.01645325
v -0.00757609 0.08122884 0.01669407
v -0.00797602 0.08111760 0.01745977
v -0.00848528 0.08122884 0.01751472
v -0.00862433 0.08122884 0.01765625
v -0.00881192 0.08122884 0.01785546
v -0.00904436 0.08122884 0.01811563
v -0.00906952 0.08111760 0.01863141
v -0.00931632 0.08122884 0.01844095
v -0.00972618 0.08122884 0.01897899
v -0.01004573 0.08122884 0.01944540
v -0.00998437 0.08111760 0.01992837
v -0.01034412 0.08122884 0.01992617
v -0.01066296 0.08122884 0.02050156
v -0.01071813 0.08111760 0.02134446
v -0.01084808 0.08122884 0.02087339
v -0.01098843 0.08122884 0.02117951
v -0.01109009 0.08122884 0.02141667
v -0.01115746 0.08122884 0.02158287
v -0.01123662 0.08122884 0.02178890
v -0.01135985 0.08122884 0.02213559
v -0.01147961 0.08122884 0.02250953
v -0.01153589 0.08122884 0.02270040
v -0.01125223 0.08111760 0.02284728
v -0.01179966 0.08122884 0.02381645
v -0.01157672 0.08111760 0.02440882
v -0.01194975 0.08122884 0.02490365
v -0.01168556 0.08111760 0.02600000
v -0.01200000 0.08122884 0.02600000
v -0.01200000 0.08122884 0.02600000
v -0.01168556 0.08111760 0.02600000
v -0.01199891 0.08122884 0.02617635
v -0.01199335 0.08122884 0.02641816
v -0.01197955 0.08122884 0.02672526
v -0.01157672 0.08111760 0.02759119
v -0.01195230 0.08122884 0.02709718
v -0.01188379 0.08122884 0.02769514
v -0.01180253 0.08122884 0.02819346
v -0.01169628 0.08122884 0.02870125
v -0.01125223 0.08111760 0.02915273
v -0.01154087 0.08122884 0.02929729
v -0.01142309 0.08122884 0.02968107
v -0.01131633 0.08122884 0.02999457
v -0.01122641 0.08122884 0.03023946
v -0.01115746 0.08122884 0.03041714
v -0.01071813 0.08111760 0.03065555
v -0.01064900 0.08122884 0.03153140
v -0.00998437 0.08111760 0.03207164
v -0.01002974 0.08122884 0.03258809
v -0.00906339 0.08111760 0.03337614
v -0.00930593 0.08122884 0.03357610
v -0.00848528 0.08122884 0.03448528
v -0.00834375 0.08122884 0.03462434
v -0.00797602 0.08111760 0.03454024
v -0.00814454 0.08122884 0.03481192
v -0.00788437 0.08122884 0.03504437
v -0.00755905 0.08122884 0.03531633
v -0.00702101 0.08122884 0.03572618
v -0.00673883 0.08111760 0.03554676
v -0.00655460 0.08122884 0.03604574
v -0.00607383 0.08122884 0.03634413
v -0.00537612 0.08111760 0.03637545
v -0.00549844 0.08122884 0.03666296
v -0.00512661 0.08122884 0.03684808
v -0.00482049 0.08122884 0.03698843
v -0.00458333 0.08122884 0.03709010
v -0.00441713 0.08122884 0.03715746
v -0.00421110 0.08122884 0.03723663
v -0.00391325 0.08111760 0.03701086
v -0.00386443 0.08122884 0.03735985
v -0.00349101 0.08122884 0.03747946
v -0.00329966 0.08122884 0.03753588
v -0.00237749 0.08111760 0.03744116
v -0.00218355 0.08122884 0.03779967
v -0.01139808 0.08082884 0.02760190
v -0.01151010 0.08082884 0.02600000
v -0.01157672 0.08111760 0.02440882
v -0.01106422 0.08082884 0.02917262
v -0.01051500 0.08082884 0.03068158
v -0.00976112 0.08082884 0.03209943
v -0.00881725 0.08082884 0.03339855
v -0.00770176 0.08082884 0.03455368
v -0.00643636 0.08082884 0.03554231
v -0.00504569 0.08082884 0.03634521
v -0.00355681 0.08082884 0.03694676
v -0.00199870 0.08082884 0.03733524
v -0.00040169 0.08082884 0.03750309
v 0.00120314 0.08082884 0.03744705
v 0.00278455 0.08082884 0.03716820
v 0.00431176 0.08082884 0.03667198
v 0.00575505 0.08082884 0.03596804
v 0.00708633 0.08082884 0.03507009
v 0.00827968 0.08082884 0.03399559
v 0.00931187 0.08082884 0.03276547
v 0.01016282 0.08082884 0.03140367
v 0.01081596 0.08082884 0.02993669
v 0.01125858 0.08082884 0.02839309
v 0.01148207 0.08082884 0.02680291
v 0.01148207 0.08082884 0.02519710
v 0.01125858 0.08082884 0.02360692
v 0.01081596 0.08082884 0.02206332
v 0.01016282 0.08082884 0.02059634
v 0.00931187 0.08082884 0.01923454
v 0.00827968 0.08082884 0.01800441
v 0.00708633 0.08082884 0.01692992
v 0.00575505 0.08082884 0.01603196
v 0.00431176 0.08082884 0.01532802
v 0.00278455 0.08082884 0.01483180
v 0.00120314 0.08082884 0.01455296
v -0.00040169 0.08082884 0.01449691
v -0.00199870 0.08082884 0.01466477
v -0.00355681 0.08082884 0.01505325
v -0.00504569 0.08082884 0.01565479
v -0.00643636 0.08082884 0.01645770
v -0.00770176 0.08082884 0.01744633
v -0.00881725 0.08082884 0.01860145
v -0.00976112 0.08082884 0.01990058
v -0.01051500 0.08082884 0.02131842
v -0.01106422 0.08082884 0.02282739
v -0.01139808 0.08082884 0.02439811
v -0.01107971 0.08082884 0.01215000
v -0.00040169 0.08082884 0.01449691
v 0.01107972 0.08082884 0.01215000
v 0.01107972 0.08082884 0.01215000
v -0.00040169 0.08082884 0.01449691
v 0.00120314 0.08082884 0.01455296
v 0.01107972 0.08082884 0.01215000
v 0.00120314 0.08082884 0.01455296
v 0.00278455 0.08082884 0.01483180
v -0.01091416 0.08082884 0.01275655
v -0.00504569 0.08082884 0.01565479
v -0.01107971 0.08082884 0.01215000
v -0.00504569 0.08082884 0.01565479
v -0.00355681 0.08082884 0.01505325
v -0.00199870 0.08082884 0.01466477
v -0.01091416 0.08082884 0.01275655
v -0.00643636 0.08082884 0.01645770
v -0.01093558 0.08082884 0.01338493
v -0.01114205 0.08082884 0.01397880
v -0.00770176 0.08082884 0.01744633
v -0.00770176 0.08082884 0.01744633
v -0.01151507 0.08082884 0.01448493
v -0.00881725 0.08082884 0.01860145
v -0.01202120 0.08082884 0.01485795
v -0.00881725 0.08082884 0.01860145
v -0.01202120 0.08082884 0.01485795
v -0.01261507 0.08082884 0.01506442
v -0.01261507 0.08082884 0.01506442
v -0.00976112 0.08082884 0.01990058
v -0.01324344 0.08082884 0.01508584
v -0.01051500 0.08082884 0.02131842
v -0.01385000 0.08082884 0.01492029
v -0.01106422 0.08082884 0.02282739
v -0.01139808 0.08082884 0.02439811
v -0.01151010 0.08082884 0.02600000
v -0.01385000 0.08082884 0.03707972
v -0.01139808 0.08082884 0.02760190
v -0.01106422 0.08082884 0.02917262
v -0.01051500 0.08082884 0.03068158
v -0.01324344 0.08082884 0.03691416
v -0.00976112 0.08082884 0.03209943
v -0.01261507 0.08082884 0.03693558
v -0.00881725 0.08082884 0.03339855
v -0.00881725 0.08082884 0.03339855
v -0.01202120 0.08082884 0.03714206
v -0.01202120 0.08082884 0.03714206
v -0.01151507 0.08082884 0.03751508
v -0.00770176 0.08082884 0.03455368
v -0.01114205 0.08082884 0.03802121
v -0.01114205 0.08082884 0.03802121
v -0.00643636 0.08082884 0.03554231
v -0.01093558 0.08082884 0.03861508
v -0.00643636 0.08082884 0.03554231
v -0.01091416 0.08082884 0.03924345
v -0.00504569 0.08082884 0.03634521
v -0.00504569 0.08082884 0.03634521
v -0.01091416 0.08082884 0.03924345
v -0.01107971 0.08082884 0.03985000
v -0.01107971 0.08082884 0.03985000
v -0.00355681 0.08082884 0.03694676
v -0.00199870 0.08082884 0.03733524
v -0.00040169 0.08082884 0.03750309
v 0.01107972 0.08082884 0.03985000
v 0.00120314 0.08082884 0.03744705
v 0.00120314 0.08082884 0.03744705
v 0.01107972 0.08082884 0.03985000
v 0.00278455 0.08082884 0.03716820
v 0.00278455 0.08082884 0.03716820
v 0.00431176 0.08082884 0.03667198
v 0.01091416 0.08082884 0.03924345
v 0.00575505 0.08082884 0.03596804
v 0.01093558 0.08082884 0.03861508
v 0.00708633 0.08082884 0.03507009
v 0.01093558 0.08082884 0.03861508
v 0.01114206 0.08082884 0.03802121
v 0.00827968 0.08082884 0.03399559
v 0.00827968 0.08082884 0.03399559
v 0.01114206 0.08082884 0.03802121
v 0.01151508 0.08082884 0.03751508
v 0.00827968 0.08082884 0.03399559
v 0.01151508 0.08082884 0.03751508
v 0.01202121 0.08082884 0.03714206
v 0.01202121 0.08082884 0.03714206
v 0.00931187 0.08082884 0.03276547
v 0.00931187 0.08082884 0.03276547
v 0.01261508 0.08082884 0.03693558
v 0.01261508 0.08082884 0.03693558
v 0.01016282 0.08082884 0.03140367
v 0.01324345 0.08082884 0.03691416
v 0.01081596 0.08082884 0.02993669
v 0.01081596 0.08082884 0.02993669
v 0.01385000 0.08082884 0.03707972
v 0.01125858 0.08082884 0.02839309
v 0.01148207 0.08082884 0.02680291
v 0.01148207 0.08082884 0.02519710
v 0.01385000 0.08082884 0.01492029
v 0.01125858 0.08082884 0.02360692
v 0.01081596 0.08082884 0.02206332
v 0.01324345 0.08082884 0.01508584
v 0.01016282 0.08082884 0.02059634
v 0.01261508 0.08082884 0.01506442
v 0.00931187 0.08082884 0.01923454
v 0.00931187 0.08082884 0.01923454
v 0.01261508 0.08082884 0.01506442
v 0.01202121 0.08082884 0.01485795
v 0.01202121 0.08082884 0.01485795
v 0.00827968 0.08082884 0.01800441
v 0.00827968 0.08082884 0.01800441
v 0.01151508 0.08082884 0.01448493
v 0.01151508 0.08082884 0.01448493
v 0.01114206 0.08082884 0.01397880
v 0.01114206 0.08082884 0.01397880
v 0.00708633 0.08082884 0.01692992
v 0.01093558 0.08082884 0.01338493
v 0.00575505 0.08082884 0.01603196
v 0.01093558 0.08082884 0.01338493
v 0.01091416 0.08082884 0.01275655
v 0.00431176 0.08082884 0.01532802
v 0.00431176 0.08082884 0.01532802
v 0.00278455 0.08082884 0.01483180
f 1 2 3
f 3 2 4
f 5 6 7
f 8 9 1
f 10 11 12
f 1 13 14
f 15 16 8
f 8 16 17
f 8 18 9
f 19 20 15
f 15 20 21
f 15 21 16
f 22 23 19
f 24 25 26
f 19 27 28
f 29 30 22
f 22 30 31
f 32 33 25
f 30 29 34
f 34 29 35
f 34 35 36
f 36 35 37
f 36 37 38
f 39 40 41
f 38 42 43
f 44 45 46
f 47 48 49
f 50 51 52
f 53 42 54
f 54 42 55
f 56 57 58
f 59 42 60
f 60 42 61
f 61 42 62
f 63 64 65
f 66 67 68
f 69 70 71
f 72 42 73
f 72 73 74
f 75 76 77
f 78 73 79
f 80 81 82
f 83 84 85
f 86 73 87
f 87 73 88
f 88 73 89
f 90 91 92
f 93 73 94
f 95 96 97
f 98 99 100
f 101 102 103
f 103 102 104
f 103 104 105
f 106 107 108
f 109 104 110
f 109 110 111
f 111 110 112
f 113 114 115
f 116 110 117
f 118 119 120
f 121 122 123
f 124 117 125
f 124 125 126
f 126 125 127
f 126 127 128
f 128 127 129
f 128 129 130
f 130 129 131
f 130 131 132
f 132 131 133
f 133 131 134
f 134 131 135
f 135 131 136
f 136 131 137
f 137 131 138
f 139 140 141
f 142 131 143
f 144 145 146
f 147 131 148
f 148 131 149
f 149 131 150
f 150 131 151
f 150 151 152
f 152 151 153
f 153 151 154
f 155 156 157
f 158 151 159
f 159 151 160
f 160 151 161
f 161 151 162
f 162 151 163
f 164 156 165
f 166 151 167
f 166 167 168
f 169 167 170
f 171 167 172
f 171 172 173
f 173 172 174
f 174 172 175
f 174 175 176
f 176 175 177
f 178 179 180
f 181 175 182
f 181 182 183
f 183 182 184
f 184 182 185
f 184 185 186
f 186 185 187
f 186 187 188
f 188 187 189
f 188 189 190
f 191 192 193
f 190 194 195
f 196 197 198
f 199 200 201
f 202 203 204
f 205 194 206
f 206 194 207
f 208 209 210
f 211 194 212
f 212 194 213
f 214 215 216
f 217 218 219
f 220 221 222
f 223 224 225
f 226 194 227
f 226 227 228
f 229 230 231
f 232 227 233
f 234 235 236
f 237 238 239
f 240 227 241
f 241 227 242
f 242 227 243
f 243 227 244
f 244 227 245
f 246 247 248
f 249 250 251
f 252 253 254
f 254 253 255
f 254 255 256
f 257 258 259
f 260 255 261
f 260 261 262
f 262 261 263
f 264 265 266
f 267 261 268
f 269 270 271
f 272 273 274
f 275 268 276
f 275 276 277
f 277 276 278
f 277 278 279
f 279 278 280
f 279 280 281
f 281 280 3
f 281 3 282
f 282 3 283
f 283 3 284
f 284 3 285
f 285 3 286
f 286 3 287
f 287 3 288
f 289 290 291
f 292 3 293
f 294 295 296
f 297 3 298
f 28 20 19
f 14 299 1
f 1 299 300
f 301 302 303
f 304 305 1
f 10 306 307
f 301 308 309
f 309 310 1
f 301 310 2
f 311 312 313
f 313 312 314
f 315 316 317
f 317 316 318
f 317 318 319
f 319 318 320
f 319 320 321
f 321 320 322
f 321 322 323
f 323 322 324
f 323 324 325
f 325 324 326
f 325 326 327
f 327 326 328
f 327 328 329
f 329 328 330
f 329 330 331
f 331 330 332
f 333 334 335
f 335 334 336
f 337 338 339
f 339 338 340
f 339 340 341
f 341 340 342
f 341 342 343
f 343 342 344
f 343 344 345
f 345 344 346
f 345 346 347
f 347 346 348
f 347 348 349
f 349 348 350
f 349 350 351
f 351 350 352
f 351 352 353
f 353 352 354
f 355 356 357
f 357 356 358
f 359 360 361
f 361 360 362
f 361 362 363
f 363 362 364
f 363 364 365
f 365 364 366
f 365 366 367
f 367 366 368
f 367 368 369
f 369 368 370
f 369 370 371
f 371 370 372
f 371 372 373
f 373 372 374
f 373 374 375
f 375 374 376
f 377 378 379
f 379 378 380
f 381 382 383
f 383 382 384
f 383 384 385
f 385 384 386
f 385 386 387
f 387 386 388
f 387 388 389
f 389 388 390
f 389 390 391
f 391 390 392
f 391 392 393
f 393 392 394
f 393 394 395
f 395 394 396
f 395 396 397
f 397 396 398
f 399 400 226
f 226 400 401
f 226 401 402
f 402 401 403
f 403 401 404
f 404 401 405
f 405 401 406
f 406 401 407
f 406 407 408
f 408 407 409
f 409 407 410
f 410 407 411
f 411 407 412
f 412 407 413
f 412 413 414
f 414 413 415
f 415 413 416
f 415 416 417
f 417 416 418
f 418 416 419
f 418 419 420
f 420 419 421
f 420 421 422
f 422 421 423
f 423 421 424
f 424 421 425
f 425 421 426
f 425 426 427
f 427 426 428
f 428 426 429
f 429 426 430
f 429 430 431
f 431 430 432
f 432 430 433
f 432 433 434
f 434 433 435
f 435 433 436
f 436 433 437
f 437 433 438
f 438 433 439
f 439 433 440
f 440 433 441
f 441 433 442
f 441 442 443
f 443 442 444
f 443 444 445
f 445 444 446
f 445 446 150
f 150 446 447
f 447 446 448
f 448 446 449
f 449 446 450
f 449 450 451
f 451 450 452
f 452 450 453
f 453 450 454
f 454 450 455
f 454 455 456
f 456 455 457
f 457 455 458
f 458 455 459
f 459 455 460
f 460 455 461
f 460 461 462
f 462 461 463
f 462 463 464
f 464 463 465
f 464 465 466
f 466 465 467
f 467 465 468
f 468 465 469
f 468 469 470
f 470 469 471
f 471 469 472
f 472 469 473
f 473 469 474
f 473 474 475
f 475 474 476
f 476 474 477
f 476 477 478
f 478 477 479
f 479 477 480
f 480 477 481
f 481 477 482
f 482 477 483
f 483 477 484
f 483 484 485
f 485 484 486
f 486 484 487
f 487 484 488
f 487 488 489
f 489 488 490
f 490 488 491
f 490 491 72
f 72 491 492
f 72 492 493
f 493 492 494
f 494 492 495
f 495 492 496
f 496 492 497
f 497 492 498
f 497 498 499
f 499 498 500
f 500 498 501
f 501 498 502
f 502 498 503
f 503 498 504
f 503 504 505
f 505 504 506
f 506 504 507
f 506 507 508
f 508 507 509
f 509 507 510
f 509 510 511
f 511 510 512
f 511 512 513
f 513 512 514
f 514 512 515
f 515 512 516
f 516 512 517
f 516 517 518
f 518 517 519
f 519 517 520
f 520 517 521
f 520 521 522
f 522 521 523
f 523 521 524
f 523 524 525
f 525 524 526
f 526 524 527
f 527 524 528
f 528 524 529
f 529 524 530
f 530 524 531
f 531 524 532
f 532 524 533
f 532 533 534
f 534 533 535
f 534 535 536
f 536 535 537
f 536 537 538
f 539 540 541
f 541 540 542
f 542 540 543
f 543 540 544
f 543 544 545
f 545 544 546
f 546 544 547
f 547 544 548
f 548 544 549
f 548 549 550
f 550 549 551
f 551 549 552
f 552 549 553
f 553 549 554
f 554 549 555
f 554 555 556
f 556 555 557
f 556 557 558
f 558 557 559
f 558 559 560
f 560 559 561
f 561 559 562
f 562 559 563
f 562 563 564
f 564 563 565
f 565 563 566
f 566 563 567
f 567 563 568
f 567 568 569
f 569 568 570
f 570 568 571
f 570 571 572
f 572 571 573
f 573 571 574
f 574 571 575
f 575 571 576
f 576 571 577
f 577 571 578
f 577 578 579
f 579 578 580
f 580 578 581
f 581 578 582
f 581 582 583
f 583 582 399
f 399 582 400
f 584 544 585
f 585 544 540
f 585 540 586
f 544 584 549
f 549 584 587
f 549 587 555
f 555 587 588
f 555 588 557
f 557 588 589
f 557 589 590
f 591 563 590
f 590 563 559
f 590 559 557
f 563 591 568
f 568 591 592
f 568 592 571
f 571 592 593
f 571 593 578
f 578 593 594
f 578 594 582
f 582 594 595
f 582 595 400
f 400 595 596
f 400 596 401
f 401 596 597
f 401 597 407
f 407 597 598
f 407 598 413
f 413 598 599
f 413 599 600
f 601 419 600
f 600 419 416
f 600 416 413
f 419 601 421
f 421 601 602
f 421 602 426
f 426 602 603
f 426 603 430
f 430 603 604
f 430 604 433
f 433 604 605
f 433 605 442
f 442 605 606
f 442 606 444
f 444 606 607
f 444 607 446
f 446 607 608
f 446 608 450
f 450 608 609
f 450 609 455
f 455 609 610
f 455 610 461
f 461 610 611
f 461 611 463
f 463 611 612
f 463 612 465
f 465 612 613
f 465 613 469
f 469 613 614
f 469 614 474
f 474 614 615
f 474 615 477
f 477 615 616
f 477 616 484
f 484 616 617
f 484 617 488
f 488 617 618
f 488 618 491
f 491 618 619
f 491 619 492
f 492 619 620
f 492 620 498
f 498 620 621
f 498 621 504
f 504 621 622
f 504 622 507
f 507 622 623
f 507 623 510
f 510 623 624
f 510 624 512
f 512 624 625
f 512 625 517
f 517 625 626
f 517 626 521
f 521 626 627
f 521 627 524
f 524 627 628
f 524 628 533
f 533 628 629
f 533 629 535
f 535 629 585
f 630 631 632
f 633 634 635
f 636 637 638
f 639 640 641
f 630 642 643
f 630 643 644
f 642 645 646
f 646 645 647
f 646 647 648
f 646 648 649
f 650 648 651
f 650 651 652
f 652 651 653
f 654 655 656
f 652 657 658
f 658 657 659
f 658 659 660
f 660 659 661
f 660 661 662
f 662 661 663
f 663 661 664
f 664 661 665
f 664 665 666
f 666 665 667
f 667 665 668
f 668 665 669
f 668 669 670
f 670 669 671
f 670 671 672
f 673 671 674
f 672 675 676
f 672 676 677
f 677 676 678
f 677 679 680
f 680 679 681
f 682 681 683
f 682 683 684
f 685 686 687
f 684 688 689
f 689 688 690
f 690 688 691
f 691 688 692
f 691 692 693
f 694 695 696
f 697 692 698
f 698 692 699
f 698 699 700
f 700 699 701
f 700 701 702
f 702 703 704
f 702 704 705
f 706 707 708
f 709 710 711
f 706 712 713
f 714 711 715
f 713 716 717
f 717 716 718
f 717 718 719
f 720 718 721
f 720 721 722
f 722 721 723
f 723 721 724
f 724 721 725
f 724 725 726
f 726 725 727
f 727 725 728
f 727 728 729
f 729 728 730
f 729 730 731
f 732 733 734
f 731 735 736
f 737 734 738
f 736 739 740
f 737 741 742
f 742 741 743
f 742 743 744
f 744 745 746
f 744 746 747
f 747 746 633
f 748 633 749
f 644 631 630

