# https://github.com/mikedh/trimesh
v -0.03878599 -0.06206786 0.00407696
v -0.03899997 -0.06206786 0.00000000
v -0.03595000 -0.06206786 0.00000000
v -0.03878599 -0.06206786 -0.00407696
v -0.03573197 -0.06206786 -0.00395501
v -0.03814798 -0.06206786 -0.00810897
v -0.03507995 -0.06206786 -0.00786197
v -0.03709095 -0.06206792 -0.01205193
v -0.03400194 -0.06206792 -0.01167297
v -0.03562796 -0.06206792 -0.01586294
v -0.03251194 -0.06206792 -0.01534295
v -0.03377497 -0.06206792 -0.01950001
v -0.03062695 -0.06206792 -0.01882600
v -0.03155195 -0.06206792 -0.02292394
v -0.02836996 -0.06206792 -0.02208101
v -0.02898299 -0.06206792 -0.02609598
v -0.02576798 -0.06206792 -0.02506804
v -0.02609598 -0.06206792 -0.02898299
v -0.02285397 -0.06206792 -0.02775001
v -0.02292400 -0.06206792 -0.03155195
v -0.01966297 -0.06206792 -0.03009593
v -0.01949995 -0.06206792 -0.03377497
v -0.01623296 -0.06206792 -0.03207695
v -0.01586300 -0.06206792 -0.03562796
v -0.01260495 -0.06206792 -0.03366804
v -0.01205199 -0.06206792 -0.03709101
v -0.00882494 -0.06206792 -0.03485000
v -0.00810897 -0.06206792 -0.03814804
v -0.00493795 -0.06206792 -0.03560900
v -0.00407696 -0.06206792 -0.03878593
v -0.00099100 -0.06206792 -0.03593599
v 0.00000000 -0.06206792 -0.03900003
v 0.00296897 -0.06206792 -0.03582704
v 0.00407696 -0.06206792 -0.03878593
v 0.00689196 -0.06206792 -0.03528296
v 0.00810897 -0.06206792 -0.03814804
v 0.01073199 -0.06206792 -0.03431093
v 0.01205199 -0.06206792 -0.03709101
v 0.01444095 -0.06206792 -0.03292202
v 0.01586300 -0.06206792 -0.03562796
v 0.01797497 -0.06206792 -0.03113400
v 0.01949995 -0.06206792 -0.03377497
v 0.02292400 -0.06206792 -0.03155195
v 0.02129095 -0.06206792 -0.02896702
v 0.02609598 -0.06206792 -0.02898299
v 0.02434796 -0.06206792 -0.02644896
v 0.02898299 -0.06206792 -0.02609598
v 0.02710998 -0.06206792 -0.02360999
v 0.03155195 -0.06206792 -0.02292394
v 0.02954298 -0.06206792 -0.02048504
v 0.03377497 -0.06206792 -0.01950001
v 0.03161698 -0.06206792 -0.01710999
v 0.03562796 -0.06206792 -0.01586294
v 0.03330695 -0.06206792 -0.01352798
v 0.03709095 -0.06206792 -0.01205193
v 0.03459399 -0.06206786 -0.00978196
v 0.03814798 -0.06206786 -0.00810897
v 0.03545999 -0.06206786 -0.00591695
v 0.03878599 -0.06206786 -0.00407696
v 0.03589498 -0.06206786 -0.00197995
v 0.03899997 -0.06206786 0.00000000
v 0.03589498 -0.06206786 0.00198007
v 0.03878599 -0.06206786 0.00407696
v 0.03545999 -0.06206786 0.00591707
v 0.03814798 -0.06206786 0.00810897
v 0.03459399 -0.06206786 0.00978196
v 0.03709095 -0.06206786 0.01205205
v 0.03330695 -0.06206786 0.01352798
v 0.03562796 -0.06206786 0.01586306
v 0.03161698 -0.06206786 0.01710999
v 0.03377497 -0.06206786 0.01950001
v 0.02954298 -0.06206786 0.02048504
v 0.03155195 -0.06206786 0.02292406
v 0.02710998 -0.06206786 0.02360999
v 0.02898299 -0.06206786 0.02609598
v 0.02434796 -0.06206786 0.02644896
v 0.02609598 -0.06206786 0.02898299
v 0.02129095 -0.06206786 0.02896702
v 0.02292400 -0.06206786 0.03155195
v 0.01797497 -0.06206786 0.03113400
v 0.01949995 -0.06206786 0.03377497
v 0.01586300 -0.06206786 0.03562796
v 0.01444095 -0.06206786 0.03292202
v 0.01205199 -0.06206786 0.03709101
v 0.01073199 -0.06206786 0.03431105
v 0.00810897 -0.06206786 0.03814804
v 0.00689196 -0.06206786 0.03528296
v 0.00407696 -0.06206786 0.03878605
v 0.00296897 -0.06206786 0.03582704
v 0.00000000 -0.06206786 0.03900003
v -0.00099100 -0.06206786 0.03593599
v -0.00407696 -0.06206786 0.03878605
v -0.00493795 -0.06206786 0.03560900
v -0.00810897 -0.06206786 0.03814804
v -0.00882494 -0.06206786 0.03485000
v -0.01205199 -0.06206786 0.03709101
v -0.01260495 -0.06206786 0.03366804
v -0.01586300 -0.06206786 0.03562796
v -0.01623296 -0.06206786 0.03207695
v -0.01949995 -0.06206786 0.03377497
v -0.01966297 -0.06206786 0.03009605
v -0.02292400 -0.06206786 0.03155195
v -0.02285397 -0.06206786 0.02775001
v -0.02609598 -0.06206786 0.02898299
v -0.02576798 -0.06206786 0.02506804
v -0.02898299 -0.06206786 0.02609598
v -0.02836996 -0.06206786 0.02208101
v -0.03155195 -0.06206786 0.02292406
v -0.03062695 -0.06206786 0.01882600
v -0.03377497 -0.06206786 0.01950001
v -0.03251194 -0.06206786 0.01534307
v -0.03562796 -0.06206786 0.01586306
v -0.03400194 -0.06206786 0.01167297
v -0.03709095 -0.06206786 0.01205205
v -0.03507995 -0.06206786 0.00786197
v -0.03814798 -0.06206786 0.00810897
v -0.03573197 -0.06206786 0.00395501
v -0.03878599 -0.06056791 -0.00407696
v -0.03878599 -0.06206786 -0.00407696
v -0.03899997 -0.06056791 0.00000000
v -0.03899997 -0.06206786 0.00000000
v -0.03899997 -0.06056791 0.00000000
v -0.03899997 -0.06206786 0.00000000
v -0.03878599 -0.06056791 0.00407696
v -0.03878599 -0.06056791 0.00407696
v -0.03878599 -0.06206786 0.00407696
v -0.03878599 -0.06056791 0.00407696
v -0.03878599 -0.06206786 0.00407696
v -0.03814798 -0.06206786 0.00810897
v -0.03878599 -0.06056791 -0.00407696
v -0.03814798 -0.06056791 -0.00810897
v -0.03878599 -0.06206786 -0.00407696
v -0.03814798 -0.06206786 -0.00810897
v -0.03814798 -0.06056791 -0.00810897
v -0.03709095 -0.06056791 -0.01205193
v -0.03709095 -0.06206792 -0.01205193
v -0.03709095 -0.06206792 -0.01205193
v -0.03709095 -0.06056791 -0.01205193
v -0.03562796 -0.06056791 -0.01586294
v -0.03562796 -0.06206792 -0.01586294
v -0.03562796 -0.06056791 -0.01586294
v -0.03377497 -0.06056791 -0.01950001
v -0.03377497 -0.06206792 -0.01950001
v -0.03377497 -0.06056791 -0.01950001
v -0.03155195 -0.06056791 -0.02292394
v -0.03155195 -0.06206792 -0.02292394
v -0.02898299 -0.06056791 -0.02609598
v -0.03155195 -0.06206792 -0.02292394
v -0.02898299 -0.06206792 -0.02609598
v -0.02898299 -0.06206792 -0.02609598
v -0.02609598 -0.06056791 -0.02898299
v -0.02609598 -0.06206792 -0.02898299
v -0.02609598 -0.06206792 -0.02898299
v -0.02292400 -0.06056791 -0.03155195
v -0.02292400 -0.06056791 -0.03155195
v -0.02292400 -0.06206792 -0.03155195
v -0.02292400 -0.06206792 -0.03155195
v -0.01949995 -0.06056791 -0.03377497
v -0.01949995 -0.06206792 -0.03377497
v -0.01949995 -0.06206792 -0.03377497
v -0.01949995 -0.06056791 -0.03377497
v -0.01586300 -0.06056791 -0.03562796
v -0.01586300 -0.06206792 -0.03562796
v -0.01586300 -0.06206792 -0.03562796
v -0.01586300 -0.06056791 -0.03562796
v -0.01205199 -0.06056791 -0.03709101
v -0.01205199 -0.06206792 -0.03709101
v -0.01205199 -0.06206792 -0.03709101
v -0.01205199 -0.06056791 -0.03709101
v -0.00810897 -0.06056791 -0.03814804
v -0.00810897 -0.06206792 -0.03814804
v -0.00810897 -0.06206792 -0.03814804
v -0.00810897 -0.06056791 -0.03814804
v -0.00407696 -0.06056791 -0.03878593
v -0.00407696 -0.06206792 -0.03878593
v -0.00407696 -0.06206792 -0.03878593
v -0.00407696 -0.06056791 -0.03878593
v 0.00000000 -0.06056791 -0.03900003
v 0.00000000 -0.06206792 -0.03900003
v 0.00000000 -0.06206792 -0.03900003
v 0.00000000 -0.06056791 -0.03900003
v 0.00407696 -0.06056791 -0.03878593
v 0.00407696 -0.06206792 -0.03878593
v 0.00407696 -0.06206792 -0.03878593
v 0.00407696 -0.06056791 -0.03878593
v 0.00810897 -0.06056791 -0.03814804
v 0.00810897 -0.06206792 -0.03814804
v 0.00810897 -0.06206792 -0.03814804
v 0.00810897 -0.06056791 -0.03814804
v 0.01205199 -0.06056791 -0.03709101
v 0.01205199 -0.06206792 -0.03709101
v 0.01205199 -0.06206792 -0.03709101
v 0.01205199 -0.06056791 -0.03709101
v 0.01586300 -0.06056791 -0.03562796
v 0.01586300 -0.06056791 -0.03562796
v 0.01586300 -0.06206792 -0.03562796
v 0.01949995 -0.06056791 -0.03377497
v 0.01949995 -0.06206792 -0.03377497
v 0.01949995 -0.06206792 -0.03377497
v 0.01949995 -0.06056791 -0.03377497
v 0.02292400 -0.06056791 -0.03155195
v 0.02292400 -0.06206792 -0.03155195
v 0.02292400 -0.06206792 -0.03155195
v 0.02292400 -0.06056791 -0.03155195
v 0.02609598 -0.06056791 -0.02898299
v 0.02609598 -0.06206792 -0.02898299
v 0.02898299 -0.06056791 -0.02609598
v 0.02609598 -0.06206792 -0.02898299
v 0.02898299 -0.06206792 -0.02609598
v 0.03155195 -0.06056791 -0.02292394
v 0.03155195 -0.06056791 -0.02292394
v 0.03155195 -0.06206792 -0.02292394
v 0.03155195 -0.06206792 -0.02292394
v 0.03377497 -0.06056791 -0.01950001
v 0.03377497 -0.06206792 -0.01950001
v 0.03562796 -0.06056791 -0.01586294
v 0.03562796 -0.06206792 -0.01586294
v 0.03562796 -0.06206792 -0.01586294
v 0.03562796 -0.06056791 -0.01586294
v 0.03709095 -0.06056791 -0.01205193
v 0.03709095 -0.06206792 -0.01205193
v 0.03709095 -0.06206792 -0.01205193
v 0.03709095 -0.06056791 -0.01205193
v 0.03814798 -0.06056791 -0.00810897
v 0.03814798 -0.06206786 -0.00810897
v 0.03878599 -0.06056791 -0.00407696
v 0.03878599 -0.06206786 -0.00407696
v 0.03878599 -0.06206786 -0.00407696
v 0.03878599 -0.06056791 -0.00407696
v 0.03899997 -0.06056791 0.00000000
v 0.03899997 -0.06206786 0.00000000
v 0.03899997 -0.06056791 0.00000000
v 0.03878599 -0.06056791 0.00407696
v 0.03878599 -0.06056791 0.00407696
v 0.03878599 -0.06206786 0.00407696
v 0.03878599 -0.06206786 0.00407696
v 0.03878599 -0.06056791 0.00407696
v 0.03814798 -0.06056791 0.00810897
v 0.03814798 -0.06206786 0.00810897
v 0.03814798 -0.06206786 0.00810897
v 0.03814798 -0.06056791 0.00810897
v 0.03709095 -0.06056791 0.01205205
v 0.03814798 -0.06206786 0.00810897
v 0.03709095 -0.06206786 0.01205205
v 0.03709095 -0.06206786 0.01205205
v 0.03709095 -0.06056791 0.01205205
v 0.03562796 -0.06056791 0.01586306
v 0.03562796 -0.06206786 0.01586306
v 0.03562796 -0.06206786 0.01586306
v 0.03562796 -0.06056791 0.01586306
v 0.03377497 -0.06056791 0.01950001
v 0.03562796 -0.06206786 0.01586306
v 0.03377497 -0.06206786 0.01950001
v 0.03377497 -0.06206786 0.01950001
v 0.03377497 -0.06056791 0.01950001
v 0.03155195 -0.06056791 0.02292406
v 0.03155195 -0.06206786 0.02292406
v 0.03155195 -0.06206786 0.02292406
v 0.03155195 -0.06056791 0.02292406
v 0.02898299 -0.06056791 0.02609598
v 0.02898299 -0.06056791 0.02609598
v 0.02898299 -0.06206786 0.02609598
v 0.02898299 -0.06206786 0.02609598
v 0.02898299 -0.06056791 0.02609598
v 0.02609598 -0.06056791 0.02898299
v 0.02609598 -0.06206786 0.02898299
v 0.02609598 -0.06206786 0.02898299
v 0.02609598 -0.06056791 0.02898299
v 0.02292400 -0.06056791 0.03155195
v 0.02292400 -0.06056791 0.03155195
v 0.02292400 -0.06206786 0.03155195
v 0.02292400 -0.06206786 0.03155195
v 0.01949995 -0.06056791 0.03377497
v 0.01949995 -0.06206786 0.03377497
v 0.01949995 -0.06206786 0.03377497
v 0.01949995 -0.06056791 0.03377497
v 0.01586300 -0.06056791 0.03562796
v 0.01586300 -0.06206786 0.03562796
v 0.01586300 -0.06206786 0.03562796
v 0.01586300 -0.06056791 0.03562796
v 0.01205199 -0.06056791 0.03709101
v 0.01205199 -0.06206786 0.03709101
v 0.01205199 -0.06206786 0.03709101
v 0.01205199 -0.06056791 0.03709101
v 0.00810897 -0.06056791 0.03814804
v 0.00810897 -0.06206786 0.03814804
v 0.00407696 -0.06056791 0.03878605
v 0.00407696 -0.06206786 0.03878605
v 0.00407696 -0.06206786 0.03878605
v 0.00000000 -0.06056791 0.03900003
v 0.00000000 -0.06206786 0.03900003
v 0.00000000 -0.06206786 0.03900003
v 0.00000000 -0.06056791 0.03900003
v -0.00407696 -0.06056791 0.03878605
v -0.00407696 -0.06206786 0.03878605
v -0.00407696 -0.06056791 0.03878605
v -0.00810897 -0.06056791 0.03814804
v -0.00810897 -0.06206786 0.03814804
v -0.01205199 -0.06056791 0.03709101
v -0.01205199 -0.06206786 0.03709101
v -0.01205199 -0.06206786 0.03709101
v -0.01205199 -0.06056791 0.03709101
v -0.01586300 -0.06056791 0.03562796
v -0.01586300 -0.06056791 0.03562796
v -0.01586300 -0.06206786 0.03562796
v -0.01949995 -0.06056791 0.03377497
v -0.01949995 -0.06206786 0.03377497
v -0.01949995 -0.06206786 0.03377497
v -0.01949995 -0.06056791 0.03377497
v -0.02292400 -0.06056791 0.03155195
v -0.02292400 -0.06206786 0.03155195
v -0.02292400 -0.06206786 0.03155195
v -0.02292400 -0.06056791 0.03155195
v -0.02609598 -0.06056791 0.02898299
v -0.02609598 -0.06206786 0.02898299
v -0.02609598 -0.06206786 0.02898299
v -0.02609598 -0.06056791 0.02898299
v -0.02898299 -0.06056791 0.02609598
v -0.02898299 -0.06206786 0.02609598
v -0.02898299 -0.06206786 0.02609598
v -0.02898299 -0.06056791 0.02609598
v -0.03155195 -0.06056791 0.02292406
v -0.02898299 -0.06206786 0.02609598
v -0.03155195 -0.06206786 0.02292406
v -0.03155195 -0.06206786 0.02292406
v -0.03155195 -0.06056791 0.02292406
v -0.03377497 -0.06056791 0.01950001
v -0.03377497 -0.06206786 0.01950001
v -0.03377497 -0.06206786 0.01950001
v -0.03377497 -0.06056791 0.01950001
v -0.03562796 -0.06056791 0.01586306
v -0.03562796 -0.06056791 0.01586306
v -0.03562796 -0.06206786 0.01586306
v -0.03562796 -0.06206786 0.01586306
v -0.03562796 -0.06056791 0.01586306
v -0.03709095 -0.06056791 0.01205205
v -0.03709095 -0.06206786 0.01205205
v -0.03709095 -0.06206786 0.01205205
v -0.03709095 -0.06056791 0.01205205
v -0.03814798 -0.06056791 0.00810897
v -0.03814798 -0.06056791 0.00810897
v -0.03814798 -0.06206786 0.00810897
v -0.03814798 -0.06056791 0.00810897
v -0.03878599 -0.06056791 -0.00407696
v -0.03899997 -0.06056791 0.00000000
v -0.03679996 -0.06056791 0.00000000
v -0.03878599 -0.06056791 0.00407696
v -0.03658396 -0.06056791 0.00397897
v -0.03814798 -0.06056791 0.00810897
v -0.03593999 -0.06056791 0.00791097
v -0.03709095 -0.06056791 0.01205205
v -0.03487396 -0.06056791 0.01174998
v -0.03562796 -0.06056791 0.01586306
v -0.03339898 -0.06056791 0.01545202
v -0.03377497 -0.06056791 0.01950001
v -0.03153198 -0.06056791 0.01897203
v -0.03155195 -0.06056791 0.02292406
v -0.02929598 -0.06056791 0.02226996
v -0.02898299 -0.06056791 0.02609598
v -0.02671694 -0.06056791 0.02530705
v -0.02609598 -0.06056791 0.02898299
v -0.02382397 -0.06056791 0.02804803
v -0.02292400 -0.06056791 0.03155195
v -0.02065199 -0.06056791 0.03045904
v -0.01949995 -0.06056791 0.03377497
v -0.01723694 -0.06056791 0.03251302
v -0.01586300 -0.06056791 0.03562796
v -0.01362097 -0.06056791 0.03418600
v -0.01205199 -0.06056791 0.03709101
v -0.00984496 -0.06056791 0.03545904
v -0.00810897 -0.06056791 0.03814804
v -0.00595397 -0.06056791 0.03631496
v -0.00407696 -0.06056791 0.03878605
v -0.00199199 -0.06056791 0.03674602
v 0.00000000 -0.06056791 0.03900003
v 0.00199199 -0.06056791 0.03674602
v 0.00407696 -0.06056791 0.03878605
v 0.00595397 -0.06056791 0.03631496
v 0.00810897 -0.06056791 0.03814804
v 0.00984496 -0.06056791 0.03545904
v 0.01205199 -0.06056791 0.03709101
v 0.01362097 -0.06056791 0.03418600
v 0.01586300 -0.06056791 0.03562796
v 0.01723694 -0.06056791 0.03251302
v 0.01949995 -0.06056791 0.03377497
v 0.02065199 -0.06056791 0.03045904
v 0.02292400 -0.06056791 0.03155195
v 0.02382397 -0.06056791 0.02804803
v 0.02609598 -0.06056791 0.02898299
v 0.02671694 -0.06056791 0.02530705
v 0.02898299 -0.06056791 0.02609598
v 0.02929598 -0.06056791 0.02226996
v 0.03155195 -0.06056791 0.02292406
v 0.03153198 -0.06056791 0.01897203
v 0.03377497 -0.06056791 0.01950001
v 0.03339898 -0.06056791 0.01545202
v 0.03562796 -0.06056791 0.01586306
v 0.03487396 -0.06056791 0.01174998
v 0.03709095 -0.06056791 0.01205205
v 0.03593999 -0.06056791 0.00791097
v 0.03814798 -0.06056791 0.00810897
v 0.03658396 -0.06056791 0.00397897
v 0.03878599 -0.06056791 0.00407696
v 0.03679996 -0.06056791 0.00000000
v 0.03899997 -0.06056791 0.00000000
v 0.03878599 -0.06056791 -0.00407696
v 0.03658396 -0.06056791 -0.00397897
v 0.03814798 -0.06056791 -0.00810897
v 0.03593999 -0.06056791 -0.00791097
v 0.03709095 -0.06056791 -0.01205193
v 0.03487396 -0.06056791 -0.01174998
v 0.03562796 -0.06056791 -0.01586294
v 0.03339898 -0.06056791 -0.01545202
v 0.03377497 -0.06056791 -0.01950001
v 0.03153198 -0.06056791 -0.01897203
v 0.03155195 -0.06056791 -0.02292394
v 0.02929598 -0.06056791 -0.02226996
v 0.02898299 -0.06056791 -0.02609598
v 0.02671694 -0.06056791 -0.02530694
v 0.02609598 -0.06056791 -0.02898299
v 0.02382397 -0.06056791 -0.02804803
v 0.02292400 -0.06056791 -0.03155195
v 0.02065199 -0.06056791 -0.03045892
v 0.01949995 -0.06056791 -0.03377497
v 0.01723694 -0.06056791 -0.03251302
v 0.01586300 -0.06056791 -0.03562796
v 0.01362097 -0.06056791 -0.03418600
v 0.01205199 -0.06056791 -0.03709101
v 0.00984496 -0.06056791 -0.03545904
v 0.00810897 -0.06056791 -0.03814804
v 0.00595397 -0.06056791 -0.03631496
v 0.00407696 -0.06056791 -0.03878593
v 0.00199199 -0.06056791 -0.03674602
v 0.00000000 -0.06056791 -0.03900003
v -0.00199199 -0.06056791 -0.03674602
v -0.00407696 -0.06056791 -0.03878593
v -0.00595397 -0.06056791 -0.03631496
v -0.00810897 -0.06056791 -0.03814804
v -0.00984496 -0.06056791 -0.03545904
v -0.01205199 -0.06056791 -0.03709101
v -0.01362097 -0.06056791 -0.03418600
v -0.01586300 -0.06056791 -0.03562796
v -0.01723694 -0.06056791 -0.03251302
v -0.01949995 -0.06056791 -0.03377497
v -0.02065199 -0.06056791 -0.03045892
v -0.02292400 -0.06056791 -0.03155195
v -0.02382397 -0.06056791 -0.02804803
v -0.02609598 -0.06056791 -0.02898299
v -0.02671694 -0.06056791 -0.02530694
v -0.02898299 -0.06056791 -0.02609598
v -0.02929598 -0.06056791 -0.02226996
v -0.03155195 -0.06056791 -0.02292394
v -0.03153198 -0.06056791 -0.01897203
v -0.03377497 -0.06056791 -0.01950001
v -0.03339898 -0.06056791 -0.01545202
v -0.03562796 -0.06056791 -0.01586294
v -0.03487396 -0.06056791 -0.01174998
v -0.03709095 -0.06056791 -0.01205193
v -0.03593999 -0.06056791 -0.00791097
v -0.03814798 -0.06056791 -0.00810897
v -0.03658396 -0.06056791 -0.00397897
v -0.03647994 -0.05456787 -0.00396693
v -0.03658396 -0.06056791 -0.00397897
v -0.03669500 -0.05456787 0.00000000
v -0.03669500 -0.05456787 0.00000000
v -0.03658396 -0.06056791 -0.00397897
v -0.03679996 -0.06056791 0.00000000
v -0.03669500 -0.05456787 0.00000000
v -0.03679996 -0.06056791 0.00000000
v -0.03647994 -0.05456787 0.00396705
v -0.03647994 -0.05456787 0.00396705
v -0.03658396 -0.06056791 0.00397897
v -0.03583699 -0.05456787 0.00788796
v -0.03583699 -0.05456787 0.00788796
v -0.03593999 -0.06056791 0.00791097
v -0.03593999 -0.06056791 0.00791097
v -0.03477400 -0.05456787 0.01171696
v -0.03487396 -0.06056791 0.01174998
v -0.03487396 -0.06056791 0.01174998
v -0.03330397 -0.05456787 0.01540803
v -0.03339898 -0.06056791 0.01545202
v -0.03330397 -0.05456787 0.01540803
v -0.03339898 -0.06056791 0.01545202
v -0.03144299 -0.05456787 0.01891803
v -0.03144299 -0.05456787 0.01891803
v -0.03339898 -0.06056791 0.01545202
v -0.03153198 -0.06056791 0.01897203
v -0.03144299 -0.05456787 0.01891803
v -0.03153198 -0.06056791 0.01897203
v -0.02921295 -0.05456787 0.02220702
v -0.02921295 -0.05456787 0.02220702
v -0.03153198 -0.06056791 0.01897203
v -0.02929598 -0.06056791 0.02226996
v -0.02921295 -0.05456787 0.02220702
v -0.02929598 -0.06056791 0.02226996
v -0.02664095 -0.05456787 0.02523505
v -0.02671694 -0.06056791 0.02530705
v -0.02664095 -0.05456787 0.02523505
v -0.02671694 -0.06056791 0.02530705
v -0.02375596 -0.05456787 0.02796804
v -0.02375596 -0.05456787 0.02796804
v -0.02382397 -0.06056791 0.02804803
v -0.02375596 -0.05456787 0.02796804
v -0.02382397 -0.06056791 0.02804803
v -0.02059298 -0.05456787 0.03037202
v -0.02059298 -0.05456787 0.03037202
v -0.02382397 -0.06056791 0.02804803
v -0.02065199 -0.06056791 0.03045904
v -0.02059298 -0.05456787 0.03037202
v -0.02065199 -0.06056791 0.03045904
v -0.01718795 -0.05456787 0.03242099
v -0.01718795 -0.05456787 0.03242099
v -0.02065199 -0.06056791 0.03045904
v -0.01723694 -0.06056791 0.03251302
v -0.01718795 -0.05456787 0.03242099
v -0.01723694 -0.06056791 0.03251302
v -0.01358199 -0.05456787 0.03408896
v -0.01358199 -0.05456787 0.03408896
v -0.01723694 -0.06056791 0.03251302
v -0.01362097 -0.06056791 0.03418600
v -0.01358199 -0.05456787 0.03408896
v -0.01362097 -0.06056791 0.03418600
v -0.00981694 -0.05456787 0.03535807
v -0.00981694 -0.05456787 0.03535807
v -0.01362097 -0.06056791 0.03418600
v -0.00984496 -0.06056791 0.03545904
v -0.00981694 -0.05456787 0.03535807
v -0.00984496 -0.06056791 0.03545904
v -0.00593698 -0.05456787 0.03621196
v -0.00593698 -0.05456787 0.03621196
v -0.00984496 -0.06056791 0.03545904
v -0.00595397 -0.06056791 0.03631496
v -0.00593698 -0.05456787 0.03621196
v -0.00595397 -0.06056791 0.03631496
v -0.00198698 -0.05456787 0.03664100
v -0.00198698 -0.05456787 0.03664100
v -0.00595397 -0.06056791 0.03631496
v -0.00199199 -0.06056791 0.03674602
v -0.00198698 -0.05456787 0.03664100
v -0.00199199 -0.06056791 0.03674602
v 0.00198698 -0.05456787 0.03664100
v 0.00198698 -0.05456787 0.03664100
v -0.00199199 -0.06056791 0.03674602
v 0.00199199 -0.06056791 0.03674602
v 0.00198698 -0.05456787 0.03664100
v 0.00199199 -0.06056791 0.03674602
v 0.00593698 -0.05456787 0.03621196
v 0.00593698 -0.05456787 0.03621196
v 0.00199199 -0.06056791 0.03674602
v 0.00595397 -0.06056791 0.03631496
v 0.00593698 -0.05456787 0.03621196
v 0.00595397 -0.06056791 0.03631496
v 0.00981694 -0.05456787 0.03535807
v 0.00595397 -0.06056791 0.03631496
v 0.00984496 -0.06056791 0.03545904
v 0.00981694 -0.05456787 0.03535807
v 0.00984496 -0.06056791 0.03545904
v 0.01358199 -0.05456787 0.03408896
v 0.01358199 -0.05456787 0.03408896
v 0.00984496 -0.06056791 0.03545904
v 0.01362097 -0.06056791 0.03418600
v 0.01358199 -0.05456787 0.03408896
v 0.01362097 -0.06056791 0.03418600
v 0.01718795 -0.05456787 0.03242099
v 0.01362097 -0.06056791 0.03418600
v 0.01723694 -0.06056791 0.03251302
v 0.01718795 -0.05456787 0.03242099
v 0.01723694 -0.06056791 0.03251302
v 0.02059298 -0.05456787 0.03037202
v 0.02059298 -0.05456787 0.03037202
v 0.01723694 -0.06056791 0.03251302
v 0.02065199 -0.06056791 0.03045904
v 0.02059298 -0.05456787 0.03037202
v 0.02065199 -0.06056791 0.03045904
v 0.02375596 -0.05456787 0.02796804
v 0.02375596 -0.05456787 0.02796804
v 0.02382397 -0.06056791 0.02804803
v 0.02382397 -0.06056791 0.02804803
v 0.02664095 -0.05456787 0.02523505
v 0.02664095 -0.05456787 0.02523505
v 0.02382397 -0.06056791 0.02804803
v 0.02671694 -0.06056791 0.02530705
v 0.02664095 -0.05456787 0.02523505
v 0.02671694 -0.06056791 0.02530705
v 0.02921295 -0.05456787 0.02220702
v 0.02921295 -0.05456787 0.02220702
v 0.02671694 -0.06056791 0.02530705
v 0.02929598 -0.06056791 0.02226996
v 0.02921295 -0.05456787 0.02220702
v 0.02929598 -0.06056791 0.02226996
v 0.03144299 -0.05456787 0.01891803
v 0.03144299 -0.05456787 0.01891803
v 0.02929598 -0.06056791 0.02226996
v 0.03153198 -0.06056791 0.01897203
v 0.03144299 -0.05456787 0.01891803
v 0.03153198 -0.06056791 0.01897203
v 0.03330397 -0.05456787 0.01540803
v 0.03330397 -0.05456787 0.01540803
v 0.03153198 -0.06056791 0.01897203
v 0.03339898 -0.06056791 0.01545202
v 0.03330397 -0.05456787 0.01540803
v 0.03339898 -0.06056791 0.01545202
v 0.03477400 -0.05456787 0.01171696
v 0.03487396 -0.06056791 0.01174998
v 0.03477400 -0.05456787 0.01171696
v 0.03583699 -0.05456787 0.00788796
v 0.03583699 -0.05456787 0.00788796
v 0.03487396 -0.06056791 0.01174998
v 0.03593999 -0.06056791 0.00791097
v 0.03647994 -0.05456787 0.00396705
v 0.03647994 -0.05456787 0.00396705
v 0.03593999 -0.06056791 0.00791097
v 0.03658396 -0.06056791 0.00397897
v 0.03658396 -0.06056791 0.00397897
v 0.03669500 -0.05456787 0.00000000
v 0.03658396 -0.06056791 0.00397897
v 0.03679996 -0.06056791 0.00000000
v 0.03669500 -0.05456787 0.00000000
v 0.03679996 -0.06056791 0.00000000
v 0.03647994 -0.05456787 -0.00396693
v 0.03647994 -0.05456787 -0.00396693
v 0.03679996 -0.06056791 0.00000000
v 0.03658396 -0.06056791 -0.00397897
v 0.03583699 -0.05456787 -0.00788796
v 0.03593999 -0.06056791 -0.00791097
v 0.03593999 -0.06056791 -0.00791097
v 0.03477400 -0.05456793 -0.01171696
v 0.03477400 -0.05456793 -0.01171696
v 0.03487396 -0.06056791 -0.01174998
v 0.03487396 -0.06056791 -0.01174998
v 0.03330397 -0.05456793 -0.01540803
v 0.03339898 -0.06056791 -0.01545202
v 0.03330397 -0.05456793 -0.01540803
v 0.03339898 -0.06056791 -0.01545202
v 0.03144299 -0.05456793 -0.01891803
v 0.03144299 -0.05456793 -0.01891803
v 0.03339898 -0.06056791 -0.01545202
v 0.03153198 -0.06056791 -0.01897203
v 0.03144299 -0.05456793 -0.01891803
v 0.03153198 -0.06056791 -0.01897203
v 0.02921295 -0.05456793 -0.02220702
v 0.02921295 -0.05456793 -0.02220702
v 0.03153198 -0.06056791 -0.01897203
v 0.02929598 -0.06056791 -0.02226996
v 0.02921295 -0.05456793 -0.02220702
v 0.02664095 -0.05456793 -0.02523493
v 0.02664095 -0.05456793 -0.02523493
v 0.02671694 -0.06056791 -0.02530694
v 0.02664095 -0.05456793 -0.02523493
v 0.02671694 -0.06056791 -0.02530694
v 0.02375596 -0.05456793 -0.02796792
v 0.02382397 -0.06056791 -0.02804803
v 0.02375596 -0.05456793 -0.02796792
v 0.02382397 -0.06056791 -0.02804803
v 0.02059298 -0.05456793 -0.03037202
v 0.02059298 -0.05456793 -0.03037202
v 0.02382397 -0.06056791 -0.02804803
v 0.02065199 -0.06056791 -0.03045892
v 0.02065199 -0.06056791 -0.03045892
v 0.01718795 -0.05456793 -0.03242099
v 0.01718795 -0.05456793 -0.03242099
v 0.02065199 -0.06056791 -0.03045892
v 0.01723694 -0.06056791 -0.03251302
v 0.01723694 -0.06056791 -0.03251302
v 0.01358199 -0.05456793 -0.03408896
v 0.01723694 -0.06056791 -0.03251302
v 0.01362097 -0.06056791 -0.03418600
v 0.01358199 -0.05456793 -0.03408896
v 0.01362097 -0.06056791 -0.03418600
v 0.00981694 -0.05456793 -0.03535795
v 0.00981694 -0.05456793 -0.03535795
v 0.01362097 -0.06056791 -0.03418600
v 0.00984496 -0.06056791 -0.03545904
v 0.00981694 -0.05456793 -0.03535795
v 0.00984496 -0.06056791 -0.03545904
v 0.00593698 -0.05456793 -0.03621196
v 0.00593698 -0.05456793 -0.03621196
v 0.00984496 -0.06056791 -0.03545904
v 0.00595397 -0.06056791 -0.03631496
v 0.00593698 -0.05456793 -0.03621196
v 0.00595397 -0.06056791 -0.03631496
v 0.00198698 -0.05456793 -0.03664100
v 0.00198698 -0.05456793 -0.03664100
v 0.00595397 -0.06056791 -0.03631496
v 0.00199199 -0.06056791 -0.03674602
v 0.00198698 -0.05456793 -0.03664100
v 0.00199199 -0.06056791 -0.03674602
v -0.00198698 -0.05456793 -0.03664100
v -0.00198698 -0.05456793 -0.03664100
v 0.00199199 -0.06056791 -0.03674602
v -0.00199199 -0.06056791 -0.03674602
v -0.00198698 -0.05456793 -0.03664100
v -0.00199199 -0.06056791 -0.03674602
v -0.00593698 -0.05456793 -0.03621196
v -0.00593698 -0.05456793 -0.03621196
v -0.00199199 -0.06056791 -0.03674602
v -0.00595397 -0.06056791 -0.03631496
v -0.00593698 -0.05456793 -0.03621196
v -0.00595397 -0.06056791 -0.03631496
v -0.00981694 -0.05456793 -0.03535795
v -0.00981694 -0.05456793 -0.03535795
v -0.00595397 -0.06056791 -0.03631496
v -0.00984496 -0.06056791 -0.03545904
v -0.00981694 -0.05456793 -0.03535795
v -0.00984496 -0.06056791 -0.03545904
v -0.01358199 -0.05456793 -0.03408896
v -0.01358199 -0.05456793 -0.03408896
v -0.00984496 -0.06056791 -0.03545904
v -0.01362097 -0.06056791 -0.03418600
v -0.01358199 -0.05456793 -0.03408896
v -0.01362097 -0.06056791 -0.03418600
v -0.01718795 -0.05456793 -0.03242099
v -0.01718795 -0.05456793 -0.03242099
v -0.01362097 -0.06056791 -0.03418600
v -0.01723694 -0.06056791 -0.03251302
v -0.01718795 -0.05456793 -0.03242099
v -0.01723694 -0.06056791 -0.03251302
v -0.02059298 -0.05456793 -0.03037202
v -0.02065199 -0.06056791 -0.03045892
v -0.02059298 -0.05456793 -0.03037202
v -0.02375596 -0.05456793 -0.02796792
v -0.02375596 -0.05456793 -0.02796792
v -0.02065199 -0.06056791 -0.03045892
v -0.02382397 -0.06056791 -0.02804803
v -0.02375596 -0.05456793 -0.02796792
v -0.02382397 -0.06056791 -0.02804803
v -0.02664095 -0.05456793 -0.02523493
v -0.02664095 -0.05456793 -0.02523493
v -0.02382397 -0.06056791 -0.02804803
v -0.02671694 -0.06056791 -0.02530694
v -0.02664095 -0.05456793 -0.02523493
v -0.02671694 -0.06056791 -0.02530694
v -0.02921295 -0.05456793 -0.02220702
v -0.02921295 -0.05456793 -0.02220702
v -0.02671694 -0.06056791 -0.02530694
v -0.02929598 -0.06056791 -0.02226996
v -0.02929598 -0.06056791 -0.02226996
v -0.03144299 -0.05456793 -0.01891803
v -0.03144299 -0.05456793 -0.01891803
v -0.03153198 -0.06056791 -0.01897203
v -0.03144299 -0.05456793 -0.01891803
v -0.03153198 -0.06056791 -0.01897203
v -0.03330397 -0.05456793 -0.01540803
v -0.03330397 -0.05456793 -0.01540803
v -0.03153198 -0.06056791 -0.01897203
v -0.03339898 -0.06056791 -0.01545202
v -0.03330397 -0.05456793 -0.01540803
v -0.03339898 -0.06056791 -0.01545202
v -0.03477400 -0.05456793 -0.01171696
v -0.03339898 -0.06056791 -0.01545202
v -0.03487396 -0.06056791 -0.01174998
v -0.03583699 -0.05456787 -0.00788796
v -0.03583699 -0.05456787 -0.00788796
v -0.03487396 -0.06056791 -0.01174998
v -0.03593999 -0.06056791 -0.00791097
v -0.03647994 -0.05456787 -0.00396693
v -0.03658396 -0.06056791 -0.00397897
v -0.03647994 -0.05456787 -0.00396693
v -0.03669500 -0.05456787 0.00000000
v -0.03588497 -0.05456787 0.00000000
v -0.03647994 -0.05456787 0.00396705
v -0.03566700 -0.05456787 0.00394797
v -0.03583699 -0.05456787 0.00788796
v -0.03501600 -0.05456787 0.00784707
v -0.03477400 -0.05456787 0.01171696
v -0.03393995 -0.05456787 0.01165199
v -0.03330397 -0.05456787 0.01540803
v -0.03245198 -0.05456787 0.01531505
v -0.03144299 -0.05456787 0.01891803
v -0.03057098 -0.05456787 0.01879203
v -0.02921295 -0.05456787 0.02220702
v -0.02831798 -0.05456787 0.02204096
v -0.02664095 -0.05456787 0.02523505
v -0.02572095 -0.05456787 0.02502202
v -0.02375596 -0.05456787 0.02796804
v -0.02281296 -0.05456787 0.02770006
v -0.02059298 -0.05456787 0.03037202
v -0.01962697 -0.05456787 0.03004097
v -0.01718795 -0.05456787 0.03242099
v -0.01620298 -0.05456787 0.03201806
v -0.01358199 -0.05456787 0.03408896
v -0.01258200 -0.05456787 0.03360605
v -0.00981694 -0.05456787 0.03535807
v -0.00880897 -0.05456787 0.03478598
v -0.00593698 -0.05456787 0.03621196
v -0.00492895 -0.05456787 0.03554403
v -0.00492895 -0.05456787 0.03554403
v -0.00198698 -0.05456787 0.03664100
v -0.00198698 -0.05456787 0.03664100
v -0.00098900 -0.05456787 0.03587102
v 0.00198698 -0.05456787 0.03664100
v 0.00296295 -0.05456787 0.03576207
v 0.00593698 -0.05456787 0.03621196
v 0.00687897 -0.05456787 0.03521907
v 0.00981694 -0.05456787 0.03535807
v 0.00981694 -0.05456787 0.03535807
v 0.01071196 -0.05456787 0.03424799
v 0.01358199 -0.05456787 0.03408896
v 0.01441496 -0.05456787 0.03286206
v 0.01718795 -0.05456787 0.03242099
v 0.01794195 -0.05456787 0.03107702
v 0.02059298 -0.05456787 0.03037202
v 0.02125197 -0.05456787 0.02891504
v 0.02375596 -0.05456787 0.02796804
v 0.02430397 -0.05456787 0.02640104
v 0.02664095 -0.05456787 0.02523505
v 0.02706098 -0.05456787 0.02356696
v 0.02921295 -0.05456787 0.02220702
v 0.02948898 -0.05456787 0.02044701
v 0.03144299 -0.05456787 0.01891803
v 0.03156000 -0.05456787 0.01707899
v 0.03330397 -0.05456787 0.01540803
v 0.03324699 -0.05456787 0.01350402
v 0.03477400 -0.05456787 0.01171696
v 0.03453099 -0.05456787 0.00976396
v 0.03583699 -0.05456787 0.00788796
v 0.03539496 -0.05456787 0.00590598
v 0.03647994 -0.05456787 0.00396705
v 0.03582996 -0.05456787 0.00197697
v 0.03669500 -0.05456787 0.00000000
v 0.03582996 -0.05456787 -0.00197697
v 0.03647994 -0.05456787 -0.00396693
v 0.03539496 -0.05456787 -0.00590598
v 0.03583699 -0.05456787 -0.00788796
v 0.03453099 -0.05456787 -0.00976396
v 0.03453099 -0.05456787 -0.00976396
v 0.03583699 -0.05456787 -0.00788796
v 0.03477400 -0.05456793 -0.01171696
v 0.03324699 -0.05456793 -0.01350402
v 0.03324699 -0.05456793 -0.01350402
v 0.03477400 -0.05456793 -0.01171696
v 0.03330397 -0.05456793 -0.01540803
v 0.03156000 -0.05456793 -0.01707899
v 0.03144299 -0.05456793 -0.01891803
v 0.02948898 -0.05456793 -0.02044701
v 0.02921295 -0.05456793 -0.02220702
v 0.02706098 -0.05456793 -0.02356696
v 0.02664095 -0.05456793 -0.02523493
v 0.02430397 -0.05456793 -0.02640104
v 0.02375596 -0.05456793 -0.02796792
v 0.02125197 -0.05456793 -0.02891492
v 0.02059298 -0.05456793 -0.03037202
v 0.01794195 -0.05456793 -0.03107702
v 0.01718795 -0.05456793 -0.03242099
v 0.01441496 -0.05456793 -0.03286194
v 0.01358199 -0.05456793 -0.03408896
v 0.01071196 -0.05456793 -0.03424799
v 0.00981694 -0.05456793 -0.03535795
v 0.00687897 -0.05456793 -0.03521895
v 0.00593698 -0.05456793 -0.03621196
v 0.00296295 -0.05456793 -0.03576195
v 0.00198698 -0.05456793 -0.03664100
v -0.00098900 -0.05456793 -0.03587102
v -0.00198698 -0.05456793 -0.03664100
v -0.00492895 -0.05456793 -0.03554403
v -0.00593698 -0.05456793 -0.03621196
v -0.00880897 -0.05456793 -0.03478598
v -0.00981694 -0.05456793 -0.03535795
v -0.01258200 -0.05456793 -0.03360593
v -0.01358199 -0.05456793 -0.03408896
v -0.01620298 -0.05456793 -0.03201794
v -0.01718795 -0.05456793 -0.03242099
v -0.01962697 -0.05456793 -0.03004097
v -0.02059298 -0.05456793 -0.03037202
v -0.02281296 -0.05456793 -0.02769994
v -0.02375596 -0.05456793 -0.02796792
v -0.02572095 -0.05456793 -0.02502202
v -0.02664095 -0.05456793 -0.02523493
v -0.02831798 -0.05456793 -0.02204096
v -0.02921295 -0.05456793 -0.02220702
v -0.03057098 -0.05456793 -0.01879203
v -0.03144299 -0.05456793 -0.01891803
v -0.03245198 -0.05456793 -0.01531493
v -0.03330397 -0.05456793 -0.01540803
v -0.03393995 -0.05456793 -0.01165199
v -0.03477400 -0.05456793 -0.01171696
v -0.03501600 -0.05456787 -0.00784695
v -0.03583699 -0.05456787 -0.00788796
v -0.03566700 -0.05456787 -0.00394797
v -0.03573197 -0.06206786 -0.00395501
v -0.03566700 -0.05456787 -0.00394797
v -0.03595000 -0.06206786 0.00000000
v -0.03595000 -0.06206786 0.00000000
v -0.03566700 -0.05456787 -0.00394797
v -0.03588497 -0.05456787 0.00000000
v -0.03595000 -0.06206786 0.00000000
v -0.03588497 -0.05456787 0.00000000
v -0.03573197 -0.06206786 0.00395501
v -0.03573197 -0.06206786 0.00395501
v -0.03588497 -0.05456787 0.00000000
v -0.03566700 -0.05456787 0.00394797
v -0.03573197 -0.06206786 0.00395501
v -0.03566700 -0.05456787 0.00394797
v -0.03507995 -0.06206786 0.00786197
v -0.03507995 -0.06206786 0.00786197
v -0.03566700 -0.05456787 0.00394797
v -0.03501600 -0.05456787 0.00784707
v -0.03507995 -0.06206786 0.00786197
v -0.03501600 -0.05456787 0.00784707
v -0.03400194 -0.06206786 0.01167297
v -0.03400194 -0.06206786 0.01167297
v -0.03501600 -0.05456787 0.00784707
v -0.03393995 -0.05456787 0.01165199
v -0.03400194 -0.06206786 0.01167297
v -0.03393995 -0.05456787 0.01165199
v -0.03251194 -0.06206786 0.01534307
v -0.03251194 -0.06206786 0.01534307
v -0.03393995 -0.05456787 0.01165199
v -0.03245198 -0.05456787 0.01531505
v -0.03062695 -0.06206786 0.01882600
v -0.03062695 -0.06206786 0.01882600
v -0.03245198 -0.05456787 0.01531505
v -0.03057098 -0.05456787 0.01879203
v -0.03062695 -0.06206786 0.01882600
v -0.03057098 -0.05456787 0.01879203
v -0.02836996 -0.06206786 0.02208101
v -0.02836996 -0.06206786 0.02208101
v -0.02831798 -0.05456787 0.02204096
v -0.02836996 -0.06206786 0.02208101
v -0.02831798 -0.05456787 0.02204096
v -0.02576798 -0.06206786 0.02506804
v -0.02576798 -0.06206786 0.02506804
v -0.02831798 -0.05456787 0.02204096
v -0.02572095 -0.05456787 0.02502202
v -0.02572095 -0.05456787 0.02502202
v -0.02285397 -0.06206786 0.02775001
v -0.02285397 -0.06206786 0.02775001
v -0.02572095 -0.05456787 0.02502202
v -0.02281296 -0.05456787 0.02770006
v -0.02285397 -0.06206786 0.02775001
v -0.02281296 -0.05456787 0.02770006
v -0.01966297 -0.06206786 0.03009605
v -0.01966297 -0.06206786 0.03009605
v -0.02281296 -0.05456787 0.02770006
v -0.01962697 -0.05456787 0.03004097
v -0.01966297 -0.06206786 0.03009605
v -0.01962697 -0.05456787 0.03004097
v -0.01623296 -0.06206786 0.03207695
v -0.01623296 -0.06206786 0.03207695
v -0.01962697 -0.05456787 0.03004097
v -0.01620298 -0.05456787 0.03201806
v -0.01623296 -0.06206786 0.03207695
v -0.01620298 -0.05456787 0.03201806
v -0.01260495 -0.06206786 0.03366804
v -0.01260495 -0.06206786 0.03366804
v -0.01620298 -0.05456787 0.03201806
v -0.01258200 -0.05456787 0.03360605
v -0.01260495 -0.06206786 0.03366804
v -0.01258200 -0.05456787 0.03360605
v -0.00882494 -0.06206786 0.03485000
v -0.00882494 -0.06206786 0.03485000
v -0.01258200 -0.05456787 0.03360605
v -0.00880897 -0.05456787 0.03478598
v -0.00882494 -0.06206786 0.03485000
v -0.00880897 -0.05456787 0.03478598
v -0.00493795 -0.06206786 0.03560900
v -0.00493795 -0.06206786 0.03560900
v -0.00880897 -0.05456787 0.03478598
v -0.00492895 -0.05456787 0.03554403
v -0.00493795 -0.06206786 0.03560900
v -0.00492895 -0.05456787 0.03554403
v -0.00099100 -0.06206786 0.03593599
v -0.00492895 -0.05456787 0.03554403
v -0.00098900 -0.05456787 0.03587102
v -0.00098900 -0.05456787 0.03587102
v 0.00296897 -0.06206786 0.03582704
v 0.00296897 -0.06206786 0.03582704
v -0.00098900 -0.05456787 0.03587102
v 0.00296295 -0.05456787 0.03576207
v 0.00296897 -0.06206786 0.03582704
v 0.00296295 -0.05456787 0.03576207
v 0.00689196 -0.06206786 0.03528296
v 0.00689196 -0.06206786 0.03528296
v 0.00296295 -0.05456787 0.03576207
v 0.00687897 -0.05456787 0.03521907
v 0.00689196 -0.06206786 0.03528296
v 0.00687897 -0.05456787 0.03521907
v 0.01073199 -0.06206786 0.03431105
v 0.01073199 -0.06206786 0.03431105
v 0.00687897 -0.05456787 0.03521907
v 0.01071196 -0.05456787 0.03424799
v 0.01073199 -0.06206786 0.03431105
v 0.01071196 -0.05456787 0.03424799
v 0.01444095 -0.06206786 0.03292202
v 0.01444095 -0.06206786 0.03292202
v 0.01071196 -0.05456787 0.03424799
v 0.01441496 -0.05456787 0.03286206
v 0.01441496 -0.05456787 0.03286206
v 0.01797497 -0.06206786 0.03113400
v 0.01797497 -0.06206786 0.03113400
v 0.01441496 -0.05456787 0.03286206
v 0.01794195 -0.05456787 0.03107702
v 0.02129095 -0.06206786 0.02896702
v 0.02129095 -0.06206786 0.02896702
v 0.01794195 -0.05456787 0.03107702
v 0.02125197 -0.05456787 0.02891504
v 0.02129095 -0.06206786 0.02896702
v 0.02125197 -0.05456787 0.02891504
v 0.02434796 -0.06206786 0.02644896
v 0.02434796 -0.06206786 0.02644896
v 0.02125197 -0.05456787 0.02891504
v 0.02430397 -0.05456787 0.02640104
v 0.02434796 -0.06206786 0.02644896
v 0.02430397 -0.05456787 0.02640104
v 0.02710998 -0.06206786 0.02360999
v 0.02710998 -0.06206786 0.02360999
v 0.02430397 -0.05456787 0.02640104
v 0.02706098 -0.05456787 0.02356696
v 0.02710998 -0.06206786 0.02360999
v 0.02706098 -0.05456787 0.02356696
v 0.02954298 -0.06206786 0.02048504
v 0.02954298 -0.06206786 0.02048504
v 0.02706098 -0.05456787 0.02356696
v 0.02948898 -0.05456787 0.02044701
v 0.02954298 -0.06206786 0.02048504
v 0.02948898 -0.05456787 0.02044701
v 0.03161698 -0.06206786 0.01710999
v 0.03161698 -0.06206786 0.01710999
v 0.02948898 -0.05456787 0.02044701
v 0.03156000 -0.05456787 0.01707899
v 0.03161698 -0.06206786 0.01710999
v 0.03156000 -0.05456787 0.01707899
v 0.03330695 -0.06206786 0.01352798
v 0.03330695 -0.06206786 0.01352798
v 0.03156000 -0.05456787 0.01707899
v 0.03324699 -0.05456787 0.01350402
v 0.03459399 -0.06206786 0.00978196
v 0.03459399 -0.06206786 0.00978196
v 0.03453099 -0.05456787 0.00976396
v 0.03459399 -0.06206786 0.00978196
v 0.03453099 -0.05456787 0.00976396
v 0.03545999 -0.06206786 0.00591707
v 0.03545999 -0.06206786 0.00591707
v 0.03453099 -0.05456787 0.00976396
v 0.03539496 -0.05456787 0.00590598
v 0.03545999 -0.06206786 0.00591707
v 0.03539496 -0.05456787 0.00590598
v 0.03589498 -0.06206786 0.00198007
v 0.03589498 -0.06206786 0.00198007
v 0.03539496 -0.05456787 0.00590598
v 0.03582996 -0.05456787 0.00197697
v 0.03589498 -0.06206786 -0.00197995
v 0.03589498 -0.06206786 -0.00197995
v 0.03582996 -0.05456787 0.00197697
v 0.03582996 -0.05456787 -0.00197697
v 0.03589498 -0.06206786 -0.00197995
v 0.03582996 -0.05456787 -0.00197697
v 0.03545999 -0.06206786 -0.00591695
v 0.03545999 -0.06206786 -0.00591695
v 0.03582996 -0.05456787 -0.00197697
v 0.03539496 -0.05456787 -0.00590598
v 0.03545999 -0.06206786 -0.00591695
v 0.03539496 -0.05456787 -0.00590598
v 0.03459399 -0.06206786 -0.00978196
v 0.03459399 -0.06206786 -0.00978196
v 0.03539496 -0.05456787 -0.00590598
v 0.03453099 -0.05456787 -0.00976396
v 0.03459399 -0.06206786 -0.00978196
v 0.03453099 -0.05456787 -0.00976396
v 0.03330695 -0.06206792 -0.01352798
v 0.03330695 -0.06206792 -0.01352798
v 0.03453099 -0.05456787 -0.00976396
v 0.03324699 -0.05456793 -0.01350402
v 0.03330695 -0.06206792 -0.01352798
v 0.03324699 -0.05456793 -0.01350402
v 0.03161698 -0.06206792 -0.01710999
v 0.03161698 -0.06206792 -0.01710999
v 0.03324699 -0.05456793 -0.01350402
v 0.03156000 -0.05456793 -0.01707899
v 0.03156000 -0.05456793 -0.01707899
v 0.02954298 -0.06206792 -0.02048504
v 0.02954298 -0.06206792 -0.02048504
v 0.03156000 -0.05456793 -0.01707899
v 0.02948898 -0.05456793 -0.02044701
v 0.02954298 -0.06206792 -0.02048504
v 0.02948898 -0.05456793 -0.02044701
v 0.02710998 -0.06206792 -0.02360999
v 0.02710998 -0.06206792 -0.02360999
v 0.02948898 -0.05456793 -0.02044701
v 0.02706098 -0.05456793 -0.02356696
v 0.02710998 -0.06206792 -0.02360999
v 0.02706098 -0.05456793 -0.02356696
v 0.02434796 -0.06206792 -0.02644896
v 0.02434796 -0.06206792 -0.02644896
v 0.02706098 -0.05456793 -0.02356696
v 0.02430397 -0.05456793 -0.02640104
v 0.02434796 -0.06206792 -0.02644896
v 0.02430397 -0.05456793 -0.02640104
v 0.02129095 -0.06206792 -0.02896702
v 0.02129095 -0.06206792 -0.02896702
v 0.02430397 -0.05456793 -0.02640104
v 0.02125197 -0.05456793 -0.02891492
v 0.02129095 -0.06206792 -0.02896702
v 0.02125197 -0.05456793 -0.02891492
v 0.01797497 -0.06206792 -0.03113400
v 0.01797497 -0.06206792 -0.03113400
v 0.02125197 -0.05456793 -0.02891492
v 0.01794195 -0.05456793 -0.03107702
v 0.01797497 -0.06206792 -0.03113400
v 0.01794195 -0.05456793 -0.03107702
v 0.01444095 -0.06206792 -0.03292202
v 0.01444095 -0.06206792 -0.03292202
v 0.01794195 -0.05456793 -0.03107702
v 0.01441496 -0.05456793 -0.03286194
v 0.01444095 -0.06206792 -0.03292202
v 0.01441496 -0.05456793 -0.03286194
v 0.01073199 -0.06206792 -0.03431093
v 0.01073199 -0.06206792 -0.03431093
v 0.01441496 -0.05456793 -0.03286194
v 0.01071196 -0.05456793 -0.03424799
v 0.01073199 -0.06206792 -0.03431093
v 0.01071196 -0.05456793 -0.03424799
v 0.00689196 -0.06206792 -0.03528296
v 0.00689196 -0.06206792 -0.03528296
v 0.01071196 -0.05456793 -0.03424799
v 0.00687897 -0.05456793 -0.03521895
v 0.00689196 -0.06206792 -0.03528296
v 0.00687897 -0.05456793 -0.03521895
v 0.00296897 -0.06206792 -0.03582704
v 0.00296897 -0.06206792 -0.03582704
v 0.00687897 -0.05456793 -0.03521895
v 0.00296295 -0.05456793 -0.03576195
v 0.00296897 -0.06206792 -0.03582704
v 0.00296295 -0.05456793 -0.03576195
v -0.00099100 -0.06206792 -0.03593599
v -0.00099100 -0.06206792 -0.03593599
v 0.00296295 -0.05456793 -0.03576195
v -0.00098900 -0.05456793 -0.03587102
v -0.00099100 -0.06206792 -0.03593599
v -0.00098900 -0.05456793 -0.03587102
v -0.00493795 -0.06206792 -0.03560900
v -0.00493795 -0.06206792 -0.03560900
v -0.00098900 -0.05456793 -0.03587102
v -0.00492895 -0.05456793 -0.03554403
v -0.00493795 -0.06206792 -0.03560900
v -0.00492895 -0.05456793 -0.03554403
v -0.00882494 -0.06206792 -0.03485000
v -0.00882494 -0.06206792 -0.03485000
v -0.00492895 -0.05456793 -0.03554403
v -0.00880897 -0.05456793 -0.03478598
v -0.00882494 -0.06206792 -0.03485000
v -0.00880897 -0.05456793 -0.03478598
v -0.01260495 -0.06206792 -0.03366804
v -0.01260495 -0.06206792 -0.03366804
v -0.00880897 -0.05456793 -0.03478598
v -0.01258200 -0.05456793 -0.03360593
v -0.01260495 -0.06206792 -0.03366804
v -0.01258200 -0.05456793 -0.03360593
v -0.01623296 -0.06206792 -0.03207695
v -0.01623296 -0.06206792 -0.03207695
v -0.01258200 -0.05456793 -0.03360593
v -0.01620298 -0.05456793 -0.03201794
v -0.01623296 -0.06206792 -0.03207695
v -0.01620298 -0.05456793 -0.03201794
v -0.01966297 -0.06206792 -0.03009593
v -0.01966297 -0.06206792 -0.03009593
v -0.01620298 -0.05456793 -0.03201794
v -0.01962697 -0.05456793 -0.03004097
v -0.01966297 -0.06206792 -0.03009593
v -0.01962697 -0.05456793 -0.03004097
v -0.02285397 -0.06206792 -0.02775001
v -0.02285397 -0.06206792 -0.02775001
v -0.01962697 -0.05456793 -0.03004097
v -0.02281296 -0.05456793 -0.02769994
v -0.02285397 -0.06206792 -0.02775001
v -0.02281296 -0.05456793 -0.02769994
v -0.02576798 -0.06206792 -0.02506804
v -0.02576798 -0.06206792 -0.02506804
v -0.02281296 -0.05456793 -0.02769994
v -0.02572095 -0.05456793 -0.02502202
v -0.02576798 -0.06206792 -0.02506804
v -0.02572095 -0.05456793 -0.02502202
v -0.02836996 -0.06206792 -0.02208101
v -0.02836996 -0.06206792 -0.02208101
v -0.02572095 -0.05456793 -0.02502202
v -0.02831798 -0.05456793 -0.02204096
v -0.02836996 -0.06206792 -0.02208101
v -0.02831798 -0.05456793 -0.02204096
v -0.03062695 -0.06206792 -0.01882600
v -0.02831798 -0.05456793 -0.02204096
v -0.03057098 -0.05456793 -0.01879203
v -0.03062695 -0.06206792 -0.01882600
v -0.03057098 -0.05456793 -0.01879203
v -0.03251194 -0.06206792 -0.01534295
v -0.03251194 -0.06206792 -0.01534295
v -0.03057098 -0.05456793 -0.01879203
v -0.03245198 -0.05456793 -0.01531493
v -0.03251194 -0.06206792 -0.01534295
v -0.03245198 -0.05456793 -0.01531493
v -0.03400194 -0.06206792 -0.01167297
v -0.03400194 -0.06206792 -0.01167297
v -0.03245198 -0.05456793 -0.01531493
v -0.03393995 -0.05456793 -0.01165199
v -0.03400194 -0.06206792 -0.01167297
v -0.03393995 -0.05456793 -0.01165199
v -0.03507995 -0.06206786 -0.00786197
v -0.03507995 -0.06206786 -0.00786197
v -0.03393995 -0.05456793 -0.01165199
v -0.03501600 -0.05456787 -0.00784695
v -0.03507995 -0.06206786 -0.00786197
v -0.03501600 -0.05456787 -0.00784695
v -0.03573197 -0.06206786 -0.00395501
v -0.03573197 -0.06206786 -0.00395501
v -0.03501600 -0.05456787 -0.00784695
v -0.03566700 -0.05456787 -0.00394797
f 1 2 3
f 3 2 4
f 3 4 5
f 5 4 6
f 5 6 7
f 7 6 8
f 7 8 9
f 9 8 10
f 9 10 11
f 11 10 12
f 11 12 13
f 13 12 14
f 13 14 15
f 15 14 16
f 15 16 17
f 17 16 18
f 17 18 19
f 19 18 20
f 19 20 21
f 21 20 22
f 21 22 23
f 23 22 24
f 23 24 25
f 25 24 26
f 25 26 27
f 27 26 28
f 27 28 29
f 29 28 30
f 29 30 31
f 31 30 32
f 31 32 33
f 33 32 34
f 33 34 35
f 35 34 36
f 35 36 37
f 37 36 38
f 37 38 39
f 39 38 40
f 39 40 41
f 41 40 42
f 41 42 43
f 41 43 44
f 44 43 45
f 44 45 46
f 46 45 47
f 46 47 48
f 48 47 49
f 48 49 50
f 50 49 51
f 50 51 52
f 52 51 53
f 52 53 54
f 54 53 55
f 54 55 56
f 56 55 57
f 56 57 58
f 58 57 59
f 58 59 60
f 60 59 61
f 60 61 62
f 62 61 63
f 62 63 64
f 64 63 65
f 64 65 66
f 66 65 67
f 66 67 68
f 68 67 69
f 68 69 70
f 70 69 71
f 70 71 72
f 72 71 73
f 72 73 74
f 74 73 75
f 74 75 76
f 76 75 77
f 76 77 78
f 78 77 79
f 78 79 80
f 80 79 81
f 80 81 82
f 80 82 83
f 83 82 84
f 83 84 85
f 85 84 86
f 85 86 87
f 87 86 88
f 87 88 89
f 89 88 90
f 89 90 91
f 91 90 92
f 91 92 93
f 93 92 94
f 93 94 95
f 95 94 96
f 95 96 97
f 97 96 98
f 97 98 99
f 99 98 100
f 99 100 101
f 101 100 102
f 101 102 103
f 103 102 104
f 103 104 105
f 105 104 106
f 105 106 107
f 107 106 108
f 107 108 109
f 109 108 110
f 109 110 111
f 111 110 112
f 111 112 113
f 113 112 114
f 113 114 115
f 115 114 116
f 115 116 117
f 117 116 1
f 117 1 3
f 118 119 120
f 120 119 121
f 122 123 124
f 125 123 126
f 127 128 129
f 130 131 132
f 132 131 133
f 133 134 135
f 133 135 136
f 137 138 139
f 137 139 140
f 140 141 142
f 140 142 143
f 143 144 145
f 143 145 146
f 146 145 147
f 148 147 149
f 150 147 151
f 150 151 152
f 153 151 154
f 153 155 156
f 157 154 158
f 157 158 159
f 160 161 162
f 160 162 163
f 164 165 166
f 163 166 167
f 168 169 170
f 168 170 171
f 172 173 174
f 172 174 175
f 176 177 178
f 176 178 179
f 180 181 182
f 180 182 183
f 184 185 186
f 184 186 187
f 188 189 190
f 188 190 191
f 192 193 194
f 192 195 196
f 196 195 197
f 196 197 198
f 199 200 201
f 199 201 202
f 203 204 205
f 203 205 206
f 206 205 207
f 208 207 209
f 209 207 210
f 209 211 212
f 213 210 214
f 213 214 215
f 215 214 216
f 215 216 217
f 218 219 220
f 218 220 221
f 222 223 224
f 222 224 225
f 225 224 226
f 225 226 227
f 228 229 230
f 228 230 231
f 231 232 233
f 231 234 235
f 236 237 238
f 236 238 239
f 240 241 242
f 243 242 244
f 245 246 247
f 245 247 248
f 249 250 251
f 252 251 253
f 254 255 256
f 254 256 257
f 258 259 260
f 258 261 262
f 263 264 265
f 263 265 266
f 267 268 269
f 267 270 271
f 272 269 273
f 272 273 274
f 275 276 277
f 275 277 278
f 279 280 281
f 278 281 282
f 283 284 285
f 283 285 286
f 286 285 287
f 286 287 288
f 289 287 290
f 289 290 291
f 292 293 294
f 292 294 295
f 295 296 297
f 295 297 298
f 298 297 299
f 298 299 300
f 301 302 303
f 301 304 305
f 305 304 306
f 305 306 307
f 308 309 310
f 308 310 311
f 312 313 314
f 312 314 315
f 316 317 318
f 316 318 319
f 320 321 322
f 323 322 324
f 325 326 327
f 325 327 328
f 329 330 331
f 329 332 333
f 334 335 336
f 334 336 337
f 338 339 340
f 338 341 342
f 129 343 127
f 344 345 346
f 346 345 347
f 346 347 348
f 348 347 349
f 348 349 350
f 350 349 351
f 350 351 352
f 352 351 353
f 352 353 354
f 354 353 355
f 354 355 356
f 356 355 357
f 356 357 358
f 358 357 359
f 358 359 360
f 360 359 361
f 360 361 362
f 362 361 363
f 362 363 364
f 364 363 365
f 364 365 366
f 366 365 367
f 366 367 368
f 368 367 369
f 368 369 370
f 370 369 371
f 370 371 372
f 372 371 373
f 372 373 374
f 374 373 375
f 374 375 376
f 376 375 377
f 376 377 378
f 378 377 379
f 378 379 380
f 380 379 381
f 380 381 382
f 382 381 383
f 382 383 384
f 384 383 385
f 384 385 386
f 386 385 387
f 386 387 388
f 388 387 389
f 388 389 390
f 390 389 391
f 390 391 392
f 392 391 393
f 392 393 394
f 394 393 395
f 394 395 396
f 396 395 397
f 396 397 398
f 398 397 399
f 398 399 400
f 400 399 401
f 400 401 402
f 402 401 403
f 402 403 404
f 404 403 405
f 404 405 406
f 404 406 407
f 407 406 408
f 407 408 409
f 409 408 410
f 409 410 411
f 411 410 412
f 411 412 413
f 413 412 414
f 413 414 415
f 415 414 416
f 415 416 417
f 417 416 418
f 417 418 419
f 419 418 420
f 419 420 421
f 421 420 422
f 421 422 423
f 423 422 424
f 423 424 425
f 425 424 426
f 425 426 427
f 427 426 428
f 427 428 429
f 429 428 430
f 429 430 431
f 431 430 432
f 431 432 433
f 433 432 434
f 433 434 435
f 435 434 436
f 435 436 437
f 437 436 438
f 437 438 439
f 439 438 440
f 439 440 441
f 441 440 442
f 441 442 443
f 443 442 444
f 443 444 445
f 445 444 446
f 445 446 447
f 447 446 448
f 447 448 449
f 449 448 450
f 449 450 451
f 451 450 452
f 451 452 453
f 453 452 454
f 453 454 455
f 455 454 456
f 455 456 457
f 457 456 458
f 457 458 459
f 459 458 460
f 459 460 461
f 461 460 344
f 461 344 346
f 462 463 464
f 465 466 467
f 468 469 470
f 471 469 472
f 471 472 473
f 474 472 475
f 474 476 477
f 477 475 478
f 477 479 480
f 480 479 481
f 482 483 484
f 485 486 487
f 488 489 490
f 491 492 493
f 494 495 496
f 496 495 497
f 498 499 500
f 501 497 502
f 503 504 505
f 506 507 508
f 509 510 511
f 512 513 514
f 515 516 517
f 518 519 520
f 521 522 523
f 524 525 526
f 527 528 529
f 530 531 532
f 533 534 535
f 536 537 538
f 539 540 541
f 542 543 544
f 545 546 547
f 548 549 550
f 551 552 553
f 553 554 555
f 556 557 558
f 559 560 561
f 562 563 564
f 564 565 566
f 567 568 569
f 570 571 572
f 573 574 575
f 576 574 577
f 575 578 579
f 580 581 582
f 583 584 585
f 586 587 588
f 589 590 591
f 592 593 594
f 595 596 597
f 598 599 600
f 601 602 603
f 603 602 604
f 605 604 606
f 607 608 609
f 607 609 610
f 611 612 613
f 610 614 615
f 615 616 617
f 618 619 620
f 621 622 623
f 621 623 624
f 624 623 625
f 624 626 627
f 628 625 629
f 627 630 631
f 631 630 632
f 633 634 635
f 636 637 638
f 639 640 641
f 642 643 644
f 645 644 646
f 647 644 648
f 649 650 651
f 651 650 652
f 653 654 655
f 656 657 658
f 655 659 660
f 661 662 663
f 661 664 665
f 665 666 667
f 668 669 670
f 671 672 673
f 674 675 676
f 677 678 679
f 680 681 682
f 683 684 685
f 686 687 688
f 689 690 691
f 692 693 694
f 695 696 697
f 698 699 700
f 701 702 703
f 704 705 706
f 707 708 709
f 710 711 712
f 713 714 715
f 716 717 718
f 718 717 719
f 720 719 721
f 722 723 724
f 725 726 727
f 728 729 730
f 731 732 733
f 734 735 736
f 734 737 738
f 739 736 740
f 741 742 743
f 744 745 746
f 747 748 749
f 749 750 751
f 749 751 752
f 753 754 755
f 753 755 462
f 756 755 757
f 758 759 760
f 760 759 761
f 760 761 762
f 762 761 763
f 762 763 764
f 764 763 765
f 764 765 766
f 766 765 767
f 766 767 768
f 768 767 769
f 768 769 770
f 770 769 771
f 770 771 772
f 772 771 773
f 772 773 774
f 774 773 775
f 774 775 776
f 776 775 777
f 776 777 778
f 778 777 779
f 778 779 780
f 780 779 781
f 780 781 782
f 782 781 783
f 782 783 784
f 784 783 785
f 784 785 786
f 787 785 788
f 786 789 790
f 790 789 791
f 790 791 792
f 792 791 793
f 792 793 794
f 794 793 795
f 794 796 797
f 797 796 798
f 797 798 799
f 799 798 800
f 799 800 801
f 801 800 802
f 801 802 803
f 803 802 804
f 803 804 805
f 805 804 806
f 805 806 807
f 807 806 808
f 807 808 809
f 809 808 810
f 809 810 811
f 811 810 812
f 811 812 813
f 813 812 814
f 813 814 815
f 815 814 816
f 815 816 817
f 817 816 818
f 817 818 819
f 819 818 820
f 819 820 821
f 821 820 822
f 821 822 823
f 823 822 824
f 823 824 825
f 826 827 828
f 826 828 829
f 830 831 832
f 830 832 833
f 833 832 834
f 833 834 835
f 835 834 836
f 835 836 837
f 837 836 838
f 837 838 839
f 839 838 840
f 839 840 841
f 841 840 842
f 841 842 843
f 843 842 844
f 843 844 845
f 845 844 846
f 845 846 847
f 847 846 848
f 847 848 849
f 849 848 850
f 849 850 851
f 851 850 852
f 851 852 853
f 853 852 854
f 853 854 855
f 855 854 856
f 855 856 857
f 857 856 858
f 857 858 859
f 859 858 860
f 859 860 861
f 861 860 862
f 861 862 863
f 863 862 864
f 863 864 865
f 865 864 866
f 865 866 867
f 867 866 868
f 867 868 869
f 869 868 870
f 869 870 871
f 871 870 872
f 871 872 873
f 873 872 874
f 873 874 875
f 875 874 876
f 875 876 877
f 877 876 878
f 877 878 879
f 879 878 758
f 879 758 760
f 880 881 882
f 883 884 885
f 886 887 888
f 889 890 891
f 892 893 894
f 895 896 897
f 898 899 900
f 901 902 903
f 904 905 906
f 907 908 909
f 907 909 910
f 911 912 913
f 914 915 916
f 917 915 918
f 919 920 921
f 922 923 924
f 921 925 926
f 927 928 929
f 930 931 932
f 933 934 935
f 936 937 938
f 939 940 941
f 942 943 944
f 945 946 947
f 948 949 950
f 951 952 953
f 954 955 956
f 957 958 959
f 960 961 962
f 962 963 964
f 962 965 966
f 967 968 969
f 970 971 972
f 973 974 975
f 976 977 978
f 979 980 981
f 982 983 984
f 985 986 987
f 985 988 989
f 990 991 992
f 990 992 993
f 994 995 996
f 997 998 999
f 1000 1001 1002
f 1003 1004 1005
f 1006 1007 1008
f 1009 1010 1011
f 1012 1013 1014
f 1015 1016 1017
f 1018 1019 1020
f 1021 1022 1023
f 1024 1025 1026
f 1024 1026 1027
f 1028 1026 1029
f 1030 1031 1032
f 1033 1034 1035
f 1036 1037 1038
f 1039 1040 1041
f 1039 1041 1042
f 1043 1044 1045
f 1046 1047 1048
f 1049 1050 1051
f 1052 1053 1054
f 1055 1056 1057
f 1058 1059 1060
f 1061 1062 1063
f 1064 1065 1066
f 1067 1068 1069
f 1067 1070 1071
f 1072 1073 1074
f 1075 1076 1077
f 1078 1079 1080
f 1081 1082 1083
f 1084 1085 1086
f 1087 1088 1089
f 1090 1091 1092
f 1093 1094 1095
f 1096 1097 1098
f 1099 1100 1101
f 1102 1103 1104
f 1105 1106 1107
f 1108 1109 1110
f 1111 1112 1113
f 1114 1115 1116
f 1117 1118 1119
f 1120 1121 1122
f 1123 1124 1125
f 1126 1127 1128
f 1129 1130 1131
f 1132 1133 1134
f 1135 1136 1137
f 1138 1139 1140
f 1141 1142 1143
f 1144 1145 1146
f 1147 1148 1149
f 1150 1151 1152
f 1153 1154 1155
f 1156 1157 1158
f 1159 1160 1161
f 1162 1163 1164
f 1165 1166 1167
f 1168 1169 1170
f 1171 1172 1173
f 1174 1175 1176
f 1177 1178 1179
f 1179 1180 1181
f 1182 1183 1184
f 1185 1186 1187
f 1188 1189 1190
f 1191 1192 1193
f 1194 1195 1196
f 1197 1198 1199
f 1200 1201 1202
f 1203 1204 1205

