# https://github.com/mikedh/trimesh
v 0.00399297 -0.07448792 0.05620002
v 0.00793797 -0.07514590 0.06070005
v 0.00399297 -0.07448792 0.06070005
v 0.00793797 -0.07514590 0.05620002
v 0.00793797 -0.07514590 0.06070005
v 0.00793797 -0.07514590 0.05620002
v 0.01178699 -0.07623487 0.06070005
v 0.01178699 -0.07623487 0.05620002
v 0.01178699 -0.07623487 0.06070005
v 0.01178699 -0.07623487 0.05620002
v 0.01549196 -0.07773989 0.06070005
v 0.01549196 -0.07773989 0.05620002
v 0.01549196 -0.07773989 0.05620002
v 0.01900899 -0.07964289 0.06070005
v 0.01549196 -0.07773989 0.06070005
v 0.01900899 -0.07964289 0.05620002
v 0.02229595 -0.08192187 0.06070005
v 0.02229595 -0.08192187 0.05620002
v 0.02229595 -0.08192187 0.05620002
v 0.02531200 -0.08454889 0.06070005
v 0.02229595 -0.08192187 0.06070005
v 0.02531200 -0.08454889 0.05620002
v 0.02531200 -0.08454889 0.05620002
v 0.02802097 -0.08749091 0.06070005
v 0.02531200 -0.08454889 0.06070005
v 0.02802097 -0.08749091 0.05620002
v 0.02802097 -0.08749091 0.06070005
v 0.02802097 -0.08749091 0.05620002
v 0.03038895 -0.09071391 0.06070005
v 0.03038895 -0.09071391 0.05620002
v 0.03038895 -0.09071391 0.06070005
v 0.03038895 -0.09071391 0.05620002
v 0.03238898 -0.09417688 0.06070005
v 0.03038895 -0.09071391 0.06070005
v 0.03238898 -0.09417688 0.05620002
v 0.03238898 -0.09417688 0.06070005
v 0.03238898 -0.09417688 0.05620002
v 0.03399497 -0.09783989 0.06070005
v 0.03399497 -0.09783989 0.05620002
v 0.03399497 -0.09783989 0.05620002
v 0.03518897 -0.10165690 0.06070005
v 0.03399497 -0.09783989 0.06070005
v 0.03518897 -0.10165690 0.05620002
v 0.03518897 -0.10165690 0.05620002
v 0.03595596 -0.10558190 0.06070005
v 0.03518897 -0.10165690 0.06070005
v 0.03595596 -0.10558190 0.05620002
v 0.03595596 -0.10558190 0.05620002
v 0.03628599 -0.10956790 0.06070005
v 0.03595596 -0.10558190 0.06070005
v 0.03628599 -0.10956790 0.05620002
v 0.03617596 -0.11356490 0.06070005
v 0.03617596 -0.11356490 0.05620002
v 0.03617596 -0.11356490 0.05620002
v 0.03562694 -0.11752690 0.06070005
v 0.03617596 -0.11356490 0.06070005
v 0.03562694 -0.11752690 0.05620002
v 0.03562694 -0.11752690 0.05620002
v 0.03464496 -0.12140390 0.06070005
v 0.03562694 -0.11752690 0.06070005
v 0.03464496 -0.12140390 0.05620002
v 0.03464496 -0.12140390 0.05620002
v 0.03324300 -0.12514891 0.06070005
v 0.03464496 -0.12140390 0.06070005
v 0.03324300 -0.12514891 0.05620002
v 0.03324300 -0.12514891 0.06070005
v 0.03324300 -0.12514891 0.05620002
v 0.03143697 -0.12871790 0.06070005
v 0.03324300 -0.12514891 0.06070005
v 0.03143697 -0.12871790 0.05620002
v 0.03143697 -0.12871790 0.05620002
v 0.02924895 -0.13206591 0.06070005
v 0.03143697 -0.12871790 0.06070005
v 0.02924895 -0.13206591 0.05620002
v 0.02924895 -0.13206591 0.05620002
v 0.02670699 -0.13515291 0.06070005
v 0.02924895 -0.13206591 0.06070005
v 0.02670699 -0.13515291 0.05620002
v 0.02924895 -0.13206591 0.05620002
v 0.02383995 -0.13794190 0.06070005
v 0.02383995 -0.13794190 0.05620002
v 0.02383995 -0.13794190 0.06070005
v 0.02383995 -0.13794190 0.05620002
v 0.02068400 -0.14039791 0.06070005
v 0.02068400 -0.14039791 0.05620002
v 0.02068400 -0.14039791 0.05620002
v 0.01727700 -0.14249291 0.06070005
v 0.02068400 -0.14039791 0.06070005
v 0.01727700 -0.14249291 0.05620002
v 0.02068400 -0.14039791 0.05620002
v 0.01727700 -0.14249291 0.05620002
v 0.01365995 -0.14419989 0.06070005
v 0.01365995 -0.14419989 0.05620002
v 0.01365995 -0.14419989 0.05620002
v 0.00987697 -0.14549790 0.06070005
v 0.01365995 -0.14419989 0.06070005
v 0.00987697 -0.14549790 0.05620002
v 0.00597495 -0.14637290 0.06070005
v 0.00597495 -0.14637290 0.05620002
v 0.00597495 -0.14637290 0.06070005
v 0.00597495 -0.14637290 0.05620002
v 0.00199997 -0.14681290 0.06070005
v 0.00199997 -0.14681290 0.05620002
v 0.00199997 -0.14681290 0.05620002
v -0.00199997 -0.14681290 0.06070005
v 0.00199997 -0.14681290 0.06070005
v -0.00199997 -0.14681290 0.05620002
v -0.00199997 -0.14681290 0.05620002
v -0.00597495 -0.14637290 0.06070005
v -0.00199997 -0.14681290 0.06070005
v -0.00597495 -0.14637290 0.05620002
v -0.00597495 -0.14637290 0.06070005
v -0.00987697 -0.14549790 0.06070005
v -0.00987697 -0.14549790 0.05620002
v -0.00597495 -0.14637290 0.05620002
v -0.01365995 -0.14419989 0.06070005
v -0.01365995 -0.14419989 0.05620002
v -0.01365995 -0.14419989 0.05620002
v -0.01727700 -0.14249291 0.06070005
v -0.01365995 -0.14419989 0.06070005
v -0.01727700 -0.14249291 0.05620002
v -0.02068400 -0.14039791 0.06070005
v -0.02068400 -0.14039791 0.05620002
v -0.02068400 -0.14039791 0.06070005
v -0.02068400 -0.14039791 0.05620002
v -0.02383995 -0.13794190 0.06070005
v -0.02068400 -0.14039791 0.06070005
v -0.02383995 -0.13794190 0.05620002
v -0.02383995 -0.13794190 0.06070005
v -0.02383995 -0.13794190 0.05620002
v -0.02670699 -0.13515291 0.06070005
v -0.02670699 -0.13515291 0.05620002
v -0.02924895 -0.13206591 0.06070005
v -0.02924895 -0.13206591 0.05620002
v -0.02924895 -0.13206591 0.06070005
v -0.02924895 -0.13206591 0.05620002
v -0.03143697 -0.12871790 0.06070005
v -0.02924895 -0.13206591 0.06070005
v -0.03143697 -0.12871790 0.05620002
v -0.03143697 -0.12871790 0.06070005
v -0.03324300 -0.12514891 0.06070005
v -0.03324300 -0.12514891 0.05620002
v -0.03324300 -0.12514891 0.05620002
v -0.03464496 -0.12140390 0.06070005
v -0.03324300 -0.12514891 0.06070005
v -0.03464496 -0.12140390 0.05620002
v -0.03324300 -0.12514891 0.05620002
v -0.03464496 -0.12140390 0.05620002
v -0.03562694 -0.11752690 0.06070005
v -0.03464496 -0.12140390 0.06070005
v -0.03562694 -0.11752690 0.05620002
v -0.03562694 -0.11752690 0.05620002
v -0.03617596 -0.11356490 0.06070005
v -0.03562694 -0.11752690 0.06070005
v -0.03617596 -0.11356490 0.05620002
v -0.03617596 -0.11356490 0.05620002
v -0.03628599 -0.10956790 0.06070005
v -0.03617596 -0.11356490 0.06070005
v -0.03628599 -0.10956790 0.05620002
v -0.03595596 -0.10558190 0.06070005
v -0.03595596 -0.10558190 0.05620002
v -0.03595596 -0.10558190 0.05620002
v -0.03518897 -0.10165690 0.06070005
v -0.03595596 -0.10558190 0.06070005
v -0.03518897 -0.10165690 0.05620002
v -0.03518897 -0.10165690 0.05620002
v -0.03399497 -0.09783989 0.06070005
v -0.03518897 -0.10165690 0.06070005
v -0.03399497 -0.09783989 0.05620002
v -0.03399497 -0.09783989 0.05620002
v -0.03238898 -0.09417688 0.06070005
v -0.03399497 -0.09783989 0.06070005
v -0.03238898 -0.09417688 0.05620002
v -0.03399497 -0.09783989 0.05620002
v -0.03238898 -0.09417688 0.05620002
v -0.03038895 -0.09071391 0.06070005
v -0.03238898 -0.09417688 0.06070005
v -0.03038895 -0.09071391 0.05620002
v -0.03038895 -0.09071391 0.05620002
v -0.02802097 -0.08749091 0.06070005
v -0.03038895 -0.09071391 0.06070005
v -0.02802097 -0.08749091 0.05620002
v -0.02802097 -0.08749091 0.06070005
v -0.02802097 -0.08749091 0.05620002
v -0.02531200 -0.08454889 0.06070005
v -0.02531200 -0.08454889 0.05620002
v -0.02531200 -0.08454889 0.05620002
v -0.02229595 -0.08192187 0.06070005
v -0.02531200 -0.08454889 0.06070005
v -0.02229595 -0.08192187 0.05620002
v -0.02229595 -0.08192187 0.06070005
v -0.02229595 -0.08192187 0.05620002
v -0.01900899 -0.07964289 0.06070005
v -0.02229595 -0.08192187 0.06070005
v -0.01900899 -0.07964289 0.05620002
v -0.01549196 -0.07773989 0.06070005
v -0.01549196 -0.07773989 0.05620002
v -0.01549196 -0.07773989 0.05620002
v -0.01178699 -0.07623487 0.06070005
v -0.01549196 -0.07773989 0.06070005
v -0.01178699 -0.07623487 0.05620002
v -0.01178699 -0.07623487 0.06070005
v -0.01178699 -0.07623487 0.05620002
v -0.00793797 -0.07514590 0.06070005
v -0.00793797 -0.07514590 0.05620002
v -0.00793797 -0.07514590 0.06070005
v -0.00793797 -0.07514590 0.05620002
v -0.00399297 -0.07448792 0.06070005
v -0.00399297 -0.07448792 0.05620002
v -0.00399297 -0.07448792 0.05620002
v 0.00000000 -0.07426792 0.06070005
v -0.00399297 -0.07448792 0.06070005
v 0.00000000 -0.07426792 0.05620002
v 0.00000000 -0.07426792 0.05620002
v 0.00399297 -0.07448792 0.06070005
v 0.00000000 -0.07426792 0.06070005
v 0.00399297 -0.07448792 0.05620002
v -0.00810897 -0.07241988 0.05620002
v -0.00810897 -0.07241988 0.06070005
v -0.00407696 -0.07178092 0.06070005
v -0.01205199 -0.07347691 0.05620002
v -0.00810897 -0.07241988 0.06070005
v -0.00810897 -0.07241988 0.05620002
v -0.01205199 -0.07347691 0.06070005
v -0.01586300 -0.07493990 0.05620002
v -0.01205199 -0.07347691 0.06070005
v -0.01205199 -0.07347691 0.05620002
v -0.01586300 -0.07493990 0.06070005
v -0.01205199 -0.07347691 0.06070005
v -0.01949995 -0.07679289 0.05620002
v -0.01586300 -0.07493990 0.06070005
v -0.01586300 -0.07493990 0.05620002
v -0.01949995 -0.07679289 0.06070005
v -0.01586300 -0.07493990 0.06070005
v -0.02292400 -0.07901591 0.05620002
v -0.01949995 -0.07679289 0.06070005
v -0.01949995 -0.07679289 0.05620002
v -0.02292400 -0.07901591 0.05620002
v -0.02292400 -0.07901591 0.06070005
v -0.01949995 -0.07679289 0.06070005
v -0.02609598 -0.08158487 0.05620002
v -0.02292400 -0.07901591 0.06070005
v -0.02292400 -0.07901591 0.05620002
v -0.02609598 -0.08158487 0.06070005
v -0.02292400 -0.07901591 0.06070005
v -0.02898299 -0.08447188 0.05620002
v -0.02898299 -0.08447188 0.05620002
v -0.02898299 -0.08447188 0.06070005
v -0.03155195 -0.08764392 0.05620002
v -0.02898299 -0.08447188 0.06070005
v -0.03155195 -0.08764392 0.05620002
v -0.03155195 -0.08764392 0.06070005
v -0.03377497 -0.09106791 0.05620002
v -0.03155195 -0.08764392 0.06070005
v -0.03155195 -0.08764392 0.05620002
v -0.03377497 -0.09106791 0.06070005
v -0.03562796 -0.09470492 0.05620002
v -0.03377497 -0.09106791 0.06070005
v -0.03377497 -0.09106791 0.05620002
v -0.03562796 -0.09470492 0.05620002
v -0.03562796 -0.09470492 0.06070005
v -0.03709095 -0.09851592 0.05620002
v -0.03562796 -0.09470492 0.06070005
v -0.03562796 -0.09470492 0.05620002
v -0.03709095 -0.09851592 0.05620002
v -0.03709095 -0.09851592 0.06070005
v -0.03814798 -0.10245890 0.05620002
v -0.03709095 -0.09851592 0.06070005
v -0.03709095 -0.09851592 0.05620002
v -0.03814798 -0.10245890 0.06070005
v -0.03878599 -0.10649090 0.05620002
v -0.03878599 -0.10649090 0.06070005
v -0.03899997 -0.11056790 0.05620002
v -0.03878599 -0.10649090 0.06070005
v -0.03878599 -0.10649090 0.05620002
v -0.03899997 -0.11056790 0.06070005
v -0.03878599 -0.11464390 0.05620002
v -0.03878599 -0.11464390 0.06070005
v -0.03814798 -0.11867590 0.05620002
v -0.03878599 -0.11464390 0.06070005
v -0.03878599 -0.11464390 0.05620002
v -0.03814798 -0.11867590 0.06070005
v -0.03709095 -0.12261890 0.05620002
v -0.03814798 -0.11867590 0.06070005
v -0.03709095 -0.12261890 0.06070005
v -0.03562796 -0.12643090 0.05620002
v -0.03709095 -0.12261890 0.06070005
v -0.03709095 -0.12261890 0.05620002
v -0.03562796 -0.12643090 0.05620002
v -0.03562796 -0.12643090 0.06070005
v -0.03377497 -0.13006790 0.05620002
v -0.03562796 -0.12643090 0.06070005
v -0.03377497 -0.13006790 0.06070005
v -0.03155195 -0.13349091 0.05620002
v -0.03377497 -0.13006790 0.06070005
v -0.03377497 -0.13006790 0.05620002
v -0.03155195 -0.13349091 0.06070005
v -0.03377497 -0.13006790 0.06070005
v -0.02898299 -0.13666390 0.05620002
v -0.03155195 -0.13349091 0.06070005
v -0.03155195 -0.13349091 0.05620002
v -0.02898299 -0.13666390 0.06070005
v -0.03155195 -0.13349091 0.06070005
v -0.02609598 -0.13954990 0.05620002
v -0.02609598 -0.13954990 0.05620002
v -0.02609598 -0.13954990 0.06070005
v -0.02292400 -0.14211890 0.05620002
v -0.02609598 -0.13954990 0.06070005
v -0.02609598 -0.13954990 0.05620002
v -0.02292400 -0.14211890 0.06070005
v -0.01949995 -0.14434290 0.05620002
v -0.02292400 -0.14211890 0.06070005
v -0.02292400 -0.14211890 0.05620002
v -0.01949995 -0.14434290 0.05620002
v -0.01949995 -0.14434290 0.06070005
v -0.01586300 -0.14619590 0.05620002
v -0.01949995 -0.14434290 0.06070005
v -0.01586300 -0.14619590 0.05620002
v -0.01586300 -0.14619590 0.06070005
v -0.01205199 -0.14765890 0.05620002
v -0.01586300 -0.14619590 0.06070005
v -0.01586300 -0.14619590 0.05620002
v -0.01205199 -0.14765890 0.05620002
v -0.01205199 -0.14765890 0.06070005
v -0.00810897 -0.14871590 0.05620002
v -0.01205199 -0.14765890 0.06070005
v -0.01205199 -0.14765890 0.05620002
v -0.00810897 -0.14871590 0.05620002
v -0.00810897 -0.14871590 0.06070005
v -0.00407696 -0.14935391 0.05620002
v -0.00407696 -0.14935391 0.06070005
v 0.00000000 -0.14956790 0.05620002
v -0.00407696 -0.14935391 0.06070005
v -0.00407696 -0.14935391 0.05620002
v 0.00000000 -0.14956790 0.06070005
v -0.00407696 -0.14935391 0.06070005
v 0.00407696 -0.14935391 0.05620002
v 0.00407696 -0.14935391 0.05620002
v 0.00407696 -0.14935391 0.06070005
v 0.00810897 -0.14871590 0.05620002
v 0.00407696 -0.14935391 0.06070005
v 0.00407696 -0.14935391 0.05620002
v 0.00810897 -0.14871590 0.05620002
v 0.00810897 -0.14871590 0.06070005
v 0.01205199 -0.14765890 0.05620002
v 0.00810897 -0.14871590 0.06070005
v 0.00407696 -0.07178092 0.06070005
v 0.00000000 -0.07156789 0.06070005
v 0.00000000 -0.07426792 0.06070005
v -0.00407696 -0.07178092 0.06070005
v -0.00399297 -0.07448792 0.06070005
v -0.00810897 -0.07241988 0.06070005
v -0.00793797 -0.07514590 0.06070005
v -0.01205199 -0.07347691 0.06070005
v -0.01178699 -0.07623487 0.06070005
v -0.01586300 -0.07493990 0.06070005
v -0.01549196 -0.07773989 0.06070005
v -0.01949995 -0.07679289 0.06070005
v -0.01900899 -0.07964289 0.06070005
v -0.02292400 -0.07901591 0.06070005
v -0.02229595 -0.08192187 0.06070005
v -0.02609598 -0.08158487 0.06070005
v -0.02531200 -0.08454889 0.06070005
v -0.02898299 -0.08447188 0.06070005
v -0.02802097 -0.08749091 0.06070005
v -0.03155195 -0.08764392 0.06070005
v -0.03038895 -0.09071391 0.06070005
v -0.03377497 -0.09106791 0.06070005
v -0.03238898 -0.09417688 0.06070005
v -0.03562796 -0.09470492 0.06070005
v -0.03399497 -0.09783989 0.06070005
v -0.03709095 -0.09851592 0.06070005
v -0.03518897 -0.10165690 0.06070005
v -0.03814798 -0.10245890 0.06070005
v -0.03595596 -0.10558190 0.06070005
v -0.03878599 -0.10649090 0.06070005
v -0.03628599 -0.10956790 0.06070005
v -0.03899997 -0.11056790 0.06070005
v -0.03617596 -0.11356490 0.06070005
v -0.03878599 -0.11464390 0.06070005
v -0.03562694 -0.11752690 0.06070005
v -0.03814798 -0.11867590 0.06070005
v -0.03464496 -0.12140390 0.06070005
v -0.03709095 -0.12261890 0.06070005
v -0.03324300 -0.12514891 0.06070005
v -0.03562796 -0.12643090 0.06070005
v -0.03143697 -0.12871790 0.06070005
v -0.03377497 -0.13006790 0.06070005
v -0.03155195 -0.13349091 0.06070005
v -0.02924895 -0.13206591 0.06070005
v -0.02898299 -0.13666390 0.06070005
v -0.02670699 -0.13515291 0.06070005
v -0.02609598 -0.13954990 0.06070005
v -0.02383995 -0.13794190 0.06070005
v -0.02292400 -0.14211890 0.06070005
v -0.02068400 -0.14039791 0.06070005
v -0.01949995 -0.14434290 0.06070005
v -0.01727700 -0.14249291 0.06070005
v -0.01586300 -0.14619590 0.06070005
v -0.01365995 -0.14419989 0.06070005
v -0.01205199 -0.14765890 0.06070005
v -0.00987697 -0.14549790 0.06070005
v -0.00810897 -0.14871590 0.06070005
v -0.00597495 -0.14637290 0.06070005
v -0.00407696 -0.14935391 0.06070005
v -0.00199997 -0.14681290 0.06070005
v 0.00000000 -0.14956790 0.06070005
v 0.00199997 -0.14681290 0.06070005
v 0.00407696 -0.14935391 0.06070005
v 0.00597495 -0.14637290 0.06070005
v 0.00810897 -0.14871590 0.06070005
v 0.00987697 -0.14549790 0.06070005
v 0.01205199 -0.14765890 0.06070005
v 0.01365995 -0.14419989 0.06070005
v 0.01586300 -0.14619590 0.06070005
v 0.01727700 -0.14249291 0.06070005
v 0.01949995 -0.14434290 0.06070005
v 0.02068400 -0.14039791 0.06070005
v 0.02292400 -0.14211890 0.06070005
v 0.02383995 -0.13794190 0.06070005
v 0.02609598 -0.13954990 0.06070005
v 0.02670699 -0.13515291 0.06070005
v 0.02898299 -0.13666390 0.06070005
v 0.02924895 -0.13206591 0.06070005
v 0.03155195 -0.13349091 0.06070005
v 0.03143697 -0.12871790 0.06070005
v 0.03377497 -0.13006790 0.06070005
v 0.03562796 -0.12643090 0.06070005
v 0.03324300 -0.12514891 0.06070005
v 0.03709095 -0.12261890 0.06070005
v 0.03464496 -0.12140390 0.06070005
v 0.03814798 -0.11867590 0.06070005
v 0.03562694 -0.11752690 0.06070005
v 0.03878599 -0.11464390 0.06070005
v 0.03617596 -0.11356490 0.06070005
v 0.03899997 -0.11056790 0.06070005
v 0.03628599 -0.10956790 0.06070005
v 0.03878599 -0.10649090 0.06070005
v 0.03595596 -0.10558190 0.06070005
v 0.03814798 -0.10245890 0.06070005
v 0.03518897 -0.10165690 0.06070005
v 0.03709095 -0.09851592 0.06070005
v 0.03399497 -0.09783989 0.06070005
v 0.03562796 -0.09470492 0.06070005
v 0.03238898 -0.09417688 0.06070005
v 0.03377497 -0.09106791 0.06070005
v 0.03038895 -0.09071391 0.06070005
v 0.03155195 -0.08764392 0.06070005
v 0.02802097 -0.08749091 0.06070005
v 0.02898299 -0.08447188 0.06070005
v 0.02531200 -0.08454889 0.06070005
v 0.02609598 -0.08158487 0.06070005
v 0.02229595 -0.08192187 0.06070005
v 0.02292400 -0.07901591 0.06070005
v 0.01900899 -0.07964289 0.06070005
v 0.01949995 -0.07679289 0.06070005
v 0.01549196 -0.07773989 0.06070005
v 0.01586300 -0.07493990 0.06070005
v 0.01178699 -0.07623487 0.06070005
v 0.01205199 -0.07347691 0.06070005
v 0.00793797 -0.07514590 0.06070005
v 0.00810897 -0.07241988 0.06070005
v 0.00399297 -0.07448792 0.06070005
v -0.00407696 -0.07178092 0.05620002
v 0.00000000 -0.07156789 0.05620002
v 0.00000000 -0.07426792 0.05620002
v 0.00407696 -0.07178092 0.05620002
v 0.00399297 -0.07448792 0.05620002
v 0.00810897 -0.07241988 0.05620002
v 0.00793797 -0.07514590 0.05620002
v 0.01205199 -0.07347691 0.05620002
v 0.01178699 -0.07623487 0.05620002
v 0.01586300 -0.07493990 0.05620002
v 0.01549196 -0.07773989 0.05620002
v 0.01949995 -0.07679289 0.05620002
v 0.01900899 -0.07964289 0.05620002
v 0.02292400 -0.07901591 0.05620002
v 0.02229595 -0.08192187 0.05620002
v 0.02609598 -0.08158487 0.05620002
v 0.02531200 -0.08454889 0.05620002
v 0.02898299 -0.08447188 0.05620002
v 0.02802097 -0.08749091 0.05620002
v 0.03155195 -0.08764392 0.05620002
v 0.03038895 -0.09071391 0.05620002
v 0.03377497 -0.09106791 0.05620002
v 0.03238898 -0.09417688 0.05620002
v 0.03562796 -0.09470492 0.05620002
v 0.03399497 -0.09783989 0.05620002
v 0.03709095 -0.09851592 0.05620002
v 0.03518897 -0.10165690 0.05620002
v 0.03814798 -0.10245890 0.05620002
v 0.03595596 -0.10558190 0.05620002
v 0.03878599 -0.10649090 0.05620002
v 0.03628599 -0.10956790 0.05620002
v 0.03899997 -0.11056790 0.05620002
v 0.03617596 -0.11356490 0.05620002
v 0.03878599 -0.11464390 0.05620002
v 0.03562694 -0.11752690 0.05620002
v 0.03814798 -0.11867590 0.05620002
v 0.03464496 -0.12140390 0.05620002
v 0.03709095 -0.12261890 0.05620002
v 0.03324300 -0.12514891 0.05620002
v 0.03562796 -0.12643090 0.05620002
v 0.03143697 -0.12871790 0.05620002
v 0.03377497 -0.13006790 0.05620002
v 0.03155195 -0.13349091 0.05620002
v 0.02924895 -0.13206591 0.05620002
v 0.02898299 -0.13666390 0.05620002
v 0.02670699 -0.13515291 0.05620002
v 0.02609598 -0.13954990 0.05620002
v 0.02383995 -0.13794190 0.05620002
v 0.02292400 -0.14211890 0.05620002
v 0.02068400 -0.14039791 0.05620002
v 0.01949995 -0.14434290 0.05620002
v 0.01727700 -0.14249291 0.05620002
v 0.01586300 -0.14619590 0.05620002
v 0.01365995 -0.14419989 0.05620002
v 0.01205199 -0.14765890 0.05620002
v 0.00987697 -0.14549790 0.05620002
v 0.00810897 -0.14871590 0.05620002
v 0.00597495 -0.14637290 0.05620002
v 0.00407696 -0.14935391 0.05620002
v 0.00199997 -0.14681290 0.05620002
v 0.00000000 -0.14956790 0.05620002
v -0.00199997 -0.14681290 0.05620002
v -0.00407696 -0.14935391 0.05620002
v -0.00597495 -0.14637290 0.05620002
v -0.00810897 -0.14871590 0.05620002
v -0.00987697 -0.14549790 0.05620002
v -0.01205199 -0.14765890 0.05620002
v -0.01365995 -0.14419989 0.05620002
v -0.01586300 -0.14619590 0.05620002
v -0.01727700 -0.14249291 0.05620002
v -0.01949995 -0.14434290 0.05620002
v -0.02068400 -0.14039791 0.05620002
v -0.02292400 -0.14211890 0.05620002
v -0.02383995 -0.13794190 0.05620002
v -0.02609598 -0.13954990 0.05620002
v -0.02670699 -0.13515291 0.05620002
v -0.02898299 -0.13666390 0.05620002
v -0.02924895 -0.13206591 0.05620002
v -0.03155195 -0.13349091 0.05620002
v -0.03143697 -0.12871790 0.05620002
v -0.03377497 -0.13006790 0.05620002
v -0.03562796 -0.12643090 0.05620002
v -0.03324300 -0.12514891 0.05620002
v -0.03709095 -0.12261890 0.05620002
v -0.03464496 -0.12140390 0.05620002
v -0.03814798 -0.11867590 0.05620002
v -0.03562694 -0.11752690 0.05620002
v -0.03878599 -0.11464390 0.05620002
v -0.03617596 -0.11356490 0.05620002
v -0.03899997 -0.11056790 0.05620002
v -0.03628599 -0.10956790 0.05620002
v -0.03878599 -0.10649090 0.05620002
v -0.03595596 -0.10558190 0.05620002
v -0.03814798 -0.10245890 0.05620002
v -0.03518897 -0.10165690 0.05620002
v -0.03709095 -0.09851592 0.05620002
v -0.03399497 -0.09783989 0.05620002
v -0.03562796 -0.09470492 0.05620002
v -0.03238898 -0.09417688 0.05620002
v -0.03377497 -0.09106791 0.05620002
v -0.03038895 -0.09071391 0.05620002
v -0.03155195 -0.08764392 0.05620002
v -0.02802097 -0.08749091 0.05620002
v -0.02898299 -0.08447188 0.05620002
v -0.02531200 -0.08454889 0.05620002
v -0.02609598 -0.08158487 0.05620002
v -0.02229595 -0.08192187 0.05620002
v -0.02292400 -0.07901591 0.05620002
v -0.01900899 -0.07964289 0.05620002
v -0.01949995 -0.07679289 0.05620002
v -0.01549196 -0.07773989 0.05620002
v -0.01586300 -0.07493990 0.05620002
v -0.01178699 -0.07623487 0.05620002
v -0.01205199 -0.07347691 0.05620002
v -0.00793797 -0.07514590 0.05620002
v -0.00810897 -0.07241988 0.05620002
v -0.00399297 -0.07448792 0.05620002
v 0.00407696 -0.07178092 0.06070005
v 0.00407696 -0.07178092 0.05620002
v 0.00000000 -0.07156789 0.06070005
v 0.00000000 -0.07156789 0.05620002
v 0.00000000 -0.07156789 0.06070005
v 0.00000000 -0.07156789 0.05620002
v 0.00000000 -0.07156789 0.05620002
v -0.00407696 -0.07178092 0.05620002
v 0.00810897 -0.07241988 0.06070005
v 0.00810897 -0.07241988 0.05620002
v 0.01205199 -0.07347691 0.06070005
v 0.00810897 -0.07241988 0.05620002
v 0.01205199 -0.07347691 0.05620002
v 0.01205199 -0.07347691 0.05620002
v 0.01205199 -0.07347691 0.06070005
v 0.01586300 -0.07493990 0.06070005
v 0.01205199 -0.07347691 0.05620002
v 0.01586300 -0.07493990 0.05620002
v 0.01586300 -0.07493990 0.05620002
v 0.01586300 -0.07493990 0.06070005
v 0.01949995 -0.07679289 0.06070005
v 0.01586300 -0.07493990 0.05620002
v 0.01949995 -0.07679289 0.05620002
v 0.01949995 -0.07679289 0.05620002
v 0.01949995 -0.07679289 0.06070005
v 0.02292400 -0.07901591 0.06070005
v 0.01949995 -0.07679289 0.05620002
v 0.02292400 -0.07901591 0.06070005
v 0.02292400 -0.07901591 0.05620002
v 0.02292400 -0.07901591 0.05620002
v 0.02292400 -0.07901591 0.06070005
v 0.02609598 -0.08158487 0.06070005
v 0.02292400 -0.07901591 0.05620002
v 0.02609598 -0.08158487 0.05620002
v 0.02898299 -0.08447188 0.06070005
v 0.02898299 -0.08447188 0.05620002
v 0.02898299 -0.08447188 0.05620002
v 0.03155195 -0.08764392 0.06070005
v 0.02898299 -0.08447188 0.05620002
v 0.03155195 -0.08764392 0.06070005
v 0.03155195 -0.08764392 0.05620002
v 0.03155195 -0.08764392 0.05620002
v 0.03155195 -0.08764392 0.06070005
v 0.03377497 -0.09106791 0.06070005
v 0.03155195 -0.08764392 0.05620002
v 0.03377497 -0.09106791 0.05620002
v 0.03377497 -0.09106791 0.05620002
v 0.03377497 -0.09106791 0.06070005
v 0.03562796 -0.09470492 0.06070005
v 0.03562796 -0.09470492 0.06070005
v 0.03562796 -0.09470492 0.05620002
v 0.03562796 -0.09470492 0.05620002
v 0.03562796 -0.09470492 0.06070005
v 0.03709095 -0.09851592 0.06070005
v 0.03709095 -0.09851592 0.06070005
v 0.03709095 -0.09851592 0.05620002
v 0.03709095 -0.09851592 0.05620002
v 0.03709095 -0.09851592 0.06070005
v 0.03814798 -0.10245890 0.06070005
v 0.03814798 -0.10245890 0.05620002
v 0.03878599 -0.10649090 0.06070005
v 0.03878599 -0.10649090 0.05620002
v 0.03878599 -0.10649090 0.05620002
v 0.03878599 -0.10649090 0.06070005
v 0.03899997 -0.11056790 0.06070005
v 0.03899997 -0.11056790 0.05620002
v 0.03878599 -0.11464390 0.06070005
v 0.03878599 -0.11464390 0.05620002
v 0.03878599 -0.11464390 0.05620002
v 0.03878599 -0.11464390 0.06070005
v 0.03814798 -0.11867590 0.06070005
v 0.03814798 -0.11867590 0.05620002
v 0.03709095 -0.12261890 0.06070005
v 0.03709095 -0.12261890 0.05620002
v 0.03709095 -0.12261890 0.05620002
v 0.03709095 -0.12261890 0.06070005
v 0.03562796 -0.12643090 0.06070005
v 0.03562796 -0.12643090 0.06070005
v 0.03562796 -0.12643090 0.05620002
v 0.03562796 -0.12643090 0.05620002
v 0.03377497 -0.13006790 0.06070005
v 0.03562796 -0.12643090 0.05620002
v 0.03377497 -0.13006790 0.05620002
v 0.03377497 -0.13006790 0.05620002
v 0.03377497 -0.13006790 0.06070005
v 0.03155195 -0.13349091 0.06070005
v 0.03377497 -0.13006790 0.05620002
v 0.03155195 -0.13349091 0.05620002
v 0.03155195 -0.13349091 0.05620002
v 0.03155195 -0.13349091 0.06070005
v 0.02898299 -0.13666390 0.06070005
v 0.03155195 -0.13349091 0.05620002
v 0.02898299 -0.13666390 0.06070005
v 0.02898299 -0.13666390 0.05620002
v 0.02609598 -0.13954990 0.06070005
v 0.02609598 -0.13954990 0.06070005
v 0.02609598 -0.13954990 0.05620002
v 0.02609598 -0.13954990 0.05620002
v 0.02609598 -0.13954990 0.06070005
v 0.02292400 -0.14211890 0.06070005
v 0.02292400 -0.14211890 0.06070005
v 0.02292400 -0.14211890 0.05620002
v 0.02292400 -0.14211890 0.05620002
v 0.01949995 -0.14434290 0.06070005
v 0.01949995 -0.14434290 0.06070005
v 0.01949995 -0.14434290 0.05620002
v 0.01586300 -0.14619590 0.06070005
v 0.01586300 -0.14619590 0.06070005
v 0.01586300 -0.14619590 0.05620002
v 0.01586300 -0.14619590 0.05620002
v 0.01586300 -0.14619590 0.06070005
v 0.01205199 -0.14765890 0.06070005
v 0.01205199 -0.14765890 0.06070005
v 0.01205199 -0.14765890 0.05620002
v 0.01205199 -0.14765890 0.06070005
v 0.00810897 -0.14871590 0.06070005
f 1 2 3
f 4 5 1
f 6 7 2
f 8 9 6
f 10 11 7
f 12 11 8
f 13 14 15
f 16 14 13
f 16 17 14
f 18 17 16
f 19 20 21
f 22 20 19
f 23 24 25
f 26 27 23
f 28 29 24
f 30 31 26
f 32 33 34
f 35 36 32
f 37 38 33
f 39 38 35
f 40 41 42
f 43 41 40
f 44 45 46
f 47 45 44
f 48 49 50
f 51 49 48
f 51 52 49
f 53 52 51
f 54 55 56
f 57 55 54
f 58 59 60
f 61 59 58
f 62 63 64
f 65 66 62
f 67 68 69
f 70 68 67
f 71 72 73
f 74 72 70
f 75 76 77
f 78 76 79
f 78 80 76
f 81 82 78
f 83 84 80
f 85 84 83
f 86 87 88
f 89 87 90
f 91 92 87
f 93 92 91
f 94 95 96
f 97 95 94
f 97 98 95
f 99 100 97
f 101 102 98
f 103 102 99
f 104 105 106
f 107 105 104
f 108 109 110
f 111 112 108
f 111 113 112
f 114 113 115
f 114 116 113
f 117 116 114
f 118 119 120
f 121 119 118
f 121 122 119
f 123 124 121
f 125 126 127
f 128 129 125
f 130 131 126
f 132 131 128
f 132 133 131
f 134 135 132
f 136 137 138
f 139 140 136
f 139 141 140
f 142 141 139
f 143 144 145
f 146 144 147
f 148 149 150
f 151 149 148
f 152 153 154
f 155 153 152
f 156 157 158
f 159 157 156
f 159 160 157
f 161 160 159
f 162 163 164
f 165 163 162
f 166 167 168
f 169 167 166
f 170 171 172
f 173 171 174
f 175 176 177
f 178 176 173
f 179 180 181
f 182 183 179
f 184 185 180
f 186 185 182
f 187 188 189
f 190 191 187
f 192 193 194
f 195 193 192
f 195 196 193
f 197 196 195
f 198 199 200
f 201 202 198
f 203 204 199
f 205 206 201
f 207 208 204
f 209 208 207
f 210 211 212
f 213 211 210
f 214 215 216
f 217 215 214
f 218 219 220
f 221 222 223
f 221 224 219
f 225 226 227
f 225 228 229
f 230 231 232
f 230 233 234
f 235 236 237
f 238 239 240
f 241 242 243
f 241 244 245
f 246 244 241
f 247 248 244
f 249 250 246
f 251 252 248
f 253 254 255
f 253 256 254
f 257 258 259
f 260 261 258
f 262 263 264
f 265 266 263
f 267 268 269
f 267 270 268
f 271 270 267
f 271 272 270
f 273 274 275
f 273 276 274
f 277 276 273
f 277 278 276
f 279 280 281
f 279 282 280
f 283 284 279
f 283 285 284
f 286 287 288
f 289 290 287
f 291 292 286
f 291 293 290
f 294 295 296
f 294 297 298
f 299 300 301
f 299 302 303
f 304 302 299
f 305 306 302
f 307 308 309
f 307 310 308
f 311 312 313
f 314 315 310
f 316 317 311
f 318 319 317
f 320 321 322
f 323 324 321
f 325 326 327
f 328 329 326
f 330 329 328
f 330 331 329
f 332 333 334
f 332 335 336
f 337 335 332
f 338 339 335
f 340 341 342
f 343 344 341
f 345 346 340
f 347 348 349
f 349 348 350
f 349 350 351
f 351 350 352
f 351 352 353
f 353 352 354
f 353 354 355
f 355 354 356
f 355 356 357
f 357 356 358
f 357 358 359
f 359 358 360
f 359 360 361
f 361 360 362
f 361 362 363
f 363 362 364
f 363 364 365
f 365 364 366
f 365 366 367
f 367 366 368
f 367 368 369
f 369 368 370
f 369 370 371
f 371 370 372
f 371 372 373
f 373 372 374
f 373 374 375
f 375 374 376
f 375 376 377
f 377 376 378
f 377 378 379
f 379 378 380
f 379 380 381
f 381 380 382
f 381 382 383
f 383 382 384
f 383 384 385
f 385 384 386
f 385 386 387
f 387 386 388
f 387 388 389
f 387 389 390
f 390 389 391
f 390 391 392
f 392 391 393
f 392 393 394
f 394 393 395
f 394 395 396
f 396 395 397
f 396 397 398
f 398 397 399
f 398 399 400
f 400 399 401
f 400 401 402
f 402 401 403
f 402 403 404
f 404 403 405
f 404 405 406
f 406 405 407
f 406 407 408
f 408 407 409
f 408 409 410
f 410 409 411
f 410 411 412
f 412 411 413
f 412 413 414
f 414 413 415
f 414 415 416
f 416 415 417
f 416 417 418
f 418 417 419
f 418 419 420
f 420 419 421
f 420 421 422
f 422 421 423
f 422 423 424
f 424 423 425
f 424 425 426
f 426 425 427
f 426 427 428
f 426 428 429
f 429 428 430
f 429 430 431
f 431 430 432
f 431 432 433
f 433 432 434
f 433 434 435
f 435 434 436
f 435 436 437
f 437 436 438
f 437 438 439
f 439 438 440
f 439 440 441
f 441 440 442
f 441 442 443
f 443 442 444
f 443 444 445
f 445 444 446
f 445 446 447
f 447 446 448
f 447 448 449
f 449 448 450
f 449 450 451
f 451 450 452
f 451 452 453
f 453 452 454
f 453 454 455
f 455 454 456
f 455 456 457
f 457 456 458
f 457 458 459
f 459 458 460
f 459 460 461
f 461 460 462
f 461 462 463
f 463 462 347
f 463 347 349
f 464 465 466
f 466 465 467
f 466 467 468
f 468 467 469
f 468 469 470
f 470 469 471
f 470 471 472
f 472 471 473
f 472 473 474
f 474 473 475
f 474 475 476
f 476 475 477
f 476 477 478
f 478 477 479
f 478 479 480
f 480 479 481
f 480 481 482
f 482 481 483
f 482 483 484
f 484 483 485
f 484 485 486
f 486 485 487
f 486 487 488
f 488 487 489
f 488 489 490
f 490 489 491
f 490 491 492
f 492 491 493
f 492 493 494
f 494 493 495
f 494 495 496
f 496 495 497
f 496 497 498
f 498 497 499
f 498 499 500
f 500 499 501
f 500 501 502
f 502 501 503
f 502 503 504
f 504 503 505
f 504 505 506
f 504 506 507
f 507 506 508
f 507 508 509
f 509 508 510
f 509 510 511
f 511 510 512
f 511 512 513
f 513 512 514
f 513 514 515
f 515 514 516
f 515 516 517
f 517 516 518
f 517 518 519
f 519 518 520
f 519 520 521
f 521 520 522
f 521 522 523
f 523 522 524
f 523 524 525
f 525 524 526
f 525 526 527
f 527 526 528
f 527 528 529
f 529 528 530
f 529 530 531
f 531 530 532
f 531 532 533
f 533 532 534
f 533 534 535
f 535 534 536
f 535 536 537
f 537 536 538
f 537 538 539
f 539 538 540
f 539 540 541
f 541 540 542
f 541 542 543
f 543 542 544
f 543 544 545
f 543 545 546
f 546 545 547
f 546 547 548
f 548 547 549
f 548 549 550
f 550 549 551
f 550 551 552
f 552 551 553
f 552 553 554
f 554 553 555
f 554 555 556
f 556 555 557
f 556 557 558
f 558 557 559
f 558 559 560
f 560 559 561
f 560 561 562
f 562 561 563
f 562 563 564
f 564 563 565
f 564 565 566
f 566 565 567
f 566 567 568
f 568 567 569
f 568 569 570
f 570 569 571
f 570 571 572
f 572 571 573
f 572 573 574
f 574 573 575
f 574 575 576
f 576 575 577
f 576 577 578
f 578 577 579
f 578 579 580
f 580 579 464
f 580 464 466
f 581 582 583
f 583 582 584
f 585 586 220
f 220 587 588
f 220 588 218
f 581 589 582
f 582 589 590
f 590 589 591
f 592 591 593
f 594 595 596
f 597 596 598
f 599 600 601
f 602 601 603
f 604 605 606
f 607 608 609
f 610 611 612
f 613 612 614
f 614 612 615
f 614 615 616
f 617 615 618
f 619 620 621
f 622 623 624
f 625 624 626
f 627 628 629
f 627 630 631
f 632 633 634
f 632 635 636
f 637 638 639
f 637 639 640
f 640 639 641
f 640 641 642
f 643 644 645
f 643 645 646
f 646 645 647
f 646 647 648
f 649 650 651
f 649 651 652
f 652 651 653
f 652 653 654
f 655 656 657
f 655 658 659
f 660 657 661
f 662 661 663
f 664 665 666
f 667 666 668
f 669 670 671
f 672 673 674
f 674 673 675
f 674 676 677
f 678 679 680
f 678 681 682
f 683 680 684
f 682 685 686
f 686 685 687
f 686 688 689
f 690 691 692
f 690 693 694
f 345 695 696

