# https://github.com/mikedh/trimesh
v -0.00406498 -0.13477890 -0.04155194
v -0.00400895 -0.13482490 -0.04152196
v -0.00379896 -0.13519590 -0.04134500
v -0.00379896 -0.13519590 -0.04134500
v -0.00400895 -0.13482490 -0.04152196
v -0.00367796 -0.13526990 -0.04130399
v -0.00302297 -0.13204990 -0.04297095
v -0.00298899 -0.13256790 -0.04273098
v -0.00302297 -0.13318990 -0.04241299
v -0.00302297 -0.13318990 -0.04241299
v -0.00298899 -0.13256790 -0.04273098
v -0.00298899 -0.13432591 -0.04184597
v -0.00054700 -0.13392290 -0.04210799
v 0.00000700 -0.13400289 -0.04206895
v -0.00054700 -0.13472690 -0.04169195
v -0.00054700 -0.13472690 -0.04169195
v 0.00000700 -0.13400289 -0.04206895
v 0.00055400 -0.13569790 -0.04117399
v -0.00054700 -0.13472690 -0.04169195
v 0.00055400 -0.13569790 -0.04117399
v -0.00054800 -0.13569790 -0.04117399
v -0.00054800 -0.13569790 -0.04117399
v 0.00055400 -0.13569790 -0.04117399
v 0.00018700 -0.13713290 -0.04037898
v -0.00054800 -0.13569790 -0.04117399
v 0.00018700 -0.13713290 -0.04037898
v -0.00018000 -0.13713290 -0.04037898
v -0.00054700 -0.13392290 -0.04210799
v -0.00054700 -0.13311391 -0.04251497
v 0.00000700 -0.13400289 -0.04206895
v -0.00054700 -0.13311391 -0.04251497
v 0.00064200 -0.13311391 -0.04251497
v 0.00000700 -0.13400289 -0.04206895
v 0.00064200 -0.13311391 -0.04251497
v 0.00064200 -0.13392290 -0.04210698
v 0.00064200 -0.13311391 -0.04251497
v -0.00054700 -0.13311391 -0.04251497
v 0.00064200 -0.13230090 -0.04291296
v 0.00064200 -0.13230090 -0.04291296
v -0.00054700 -0.13311391 -0.04251497
v -0.00054700 -0.13230090 -0.04291397
v 0.00064200 -0.13230090 -0.04291296
v -0.00054700 -0.13230090 -0.04291397
v -0.00043100 -0.13177490 -0.04316598
v -0.00043100 -0.13177490 -0.04316598
v -0.00010000 -0.13132790 -0.04337698
v 0.00064200 -0.13230090 -0.04291296
v 0.00064200 -0.13230090 -0.04291296
v -0.00010000 -0.13132790 -0.04337698
v 0.00039500 -0.13102791 -0.04351598
v 0.00064200 -0.13230090 -0.04291296
v 0.00039500 -0.13102791 -0.04351598
v 0.00067600 -0.13215290 -0.04298394
v 0.00067600 -0.13215290 -0.04298394
v 0.00039500 -0.13102791 -0.04351598
v 0.00077700 -0.13202190 -0.04304498
v 0.00077700 -0.13202190 -0.04304498
v 0.00039500 -0.13102791 -0.04351598
v 0.00097800 -0.13092090 -0.04355895
v 0.00077700 -0.13202190 -0.04304498
v 0.00097800 -0.13092090 -0.04355895
v 0.00090500 -0.13194190 -0.04308199
v 0.00090500 -0.13194190 -0.04308199
v 0.00097800 -0.13092090 -0.04355895
v 0.00106800 -0.13190889 -0.04309594
v 0.00106800 -0.13190889 -0.04309594
v 0.00097800 -0.13092090 -0.04355895
v 0.00151998 -0.13091791 -0.04355096
v 0.00106800 -0.13190889 -0.04309594
v 0.00151998 -0.13091791 -0.04355096
v 0.00160998 -0.13190590 -0.04308694
v 0.00160998 -0.13190590 -0.04308694
v 0.00151998 -0.13091791 -0.04355096
v 0.00206196 -0.13091390 -0.04354000
v 0.00160998 -0.13190590 -0.04308694
v 0.00206196 -0.13091390 -0.04354000
v 0.00215197 -0.13190091 -0.04307496
v 0.00215197 -0.13190091 -0.04307496
v 0.00206196 -0.13091390 -0.04354000
v 0.00260395 -0.13090789 -0.04352498
v 0.00215197 -0.13190091 -0.04307496
v 0.00260395 -0.13090789 -0.04352498
v 0.00269496 -0.13189390 -0.04305899
v 0.00269496 -0.13189390 -0.04305899
v 0.00260395 -0.13090789 -0.04352498
v 0.00282198 -0.13091891 -0.04351198
v 0.00269496 -0.13189390 -0.04305899
v 0.00282198 -0.13091891 -0.04351198
v 0.00295597 -0.13197890 -0.04300796
v 0.00295597 -0.13197890 -0.04300796
v 0.00282198 -0.13091891 -0.04351198
v 0.00355500 -0.13119490 -0.04335099
v 0.00295597 -0.13197890 -0.04300796
v 0.00355500 -0.13119490 -0.04335099
v 0.00305295 -0.13207690 -0.04295694
v 0.00305295 -0.13207690 -0.04295694
v 0.00355500 -0.13119490 -0.04335099
v 0.00310296 -0.13217589 -0.04290699
v 0.00310296 -0.13217589 -0.04290699
v 0.00355500 -0.13119490 -0.04335099
v 0.00311798 -0.13227689 -0.04285800
v 0.00311798 -0.13227689 -0.04285800
v 0.00355500 -0.13119490 -0.04335099
v 0.00402796 -0.13176790 -0.04305595
v 0.00311798 -0.13227689 -0.04285800
v 0.00402796 -0.13176790 -0.04305595
v 0.00410497 -0.13201091 -0.04293596
v 0.00410497 -0.13201091 -0.04293596
v 0.00413096 -0.13294590 -0.04247695
v 0.00311798 -0.13296090 -0.04252296
v 0.00410497 -0.13201091 -0.04293596
v 0.00311798 -0.13296090 -0.04252296
v 0.00311798 -0.13227689 -0.04285800
v 0.00311798 -0.13296090 -0.04252296
v 0.00413096 -0.13294590 -0.04247695
v 0.00311798 -0.13364190 -0.04218196
v 0.00311798 -0.13364190 -0.04218196
v 0.00413096 -0.13294590 -0.04247695
v 0.00413096 -0.13362689 -0.04213500
v 0.00311798 -0.13364190 -0.04218196
v 0.00413096 -0.13362689 -0.04213500
v 0.00311798 -0.13431990 -0.04183399
v 0.00311798 -0.13431990 -0.04183399
v 0.00413096 -0.13362689 -0.04213500
v 0.00413096 -0.13430490 -0.04178696
v 0.00311798 -0.13431990 -0.04183399
v 0.00413096 -0.13430490 -0.04178696
v 0.00368500 -0.13526890 -0.04130399
v 0.00368500 -0.13526890 -0.04130399
v 0.00413096 -0.13430490 -0.04178696
v 0.00400800 -0.13484091 -0.04151296
v 0.00368500 -0.13526890 -0.04130399
v 0.00324094 -0.13554990 -0.04117596
v 0.00311798 -0.13431990 -0.04183399
v 0.00311798 -0.13431990 -0.04183399
v 0.00324094 -0.13554990 -0.04117596
v 0.00308394 -0.13446490 -0.04175996
v 0.00308394 -0.13446490 -0.04175996
v 0.00324094 -0.13554990 -0.04117596
v 0.00297600 -0.13460191 -0.04169297
v 0.00297600 -0.13460191 -0.04169297
v 0.00324094 -0.13554990 -0.04117596
v 0.00260597 -0.13568090 -0.04113298
v 0.00297600 -0.13460191 -0.04169297
v 0.00260597 -0.13568090 -0.04113298
v 0.00284898 -0.13467790 -0.04165899
v 0.00284898 -0.13467790 -0.04165899
v 0.00260597 -0.13568090 -0.04113298
v 0.00269198 -0.13470989 -0.04164898
v 0.00269198 -0.13470989 -0.04164898
v 0.00260597 -0.13568090 -0.04113298
v 0.00192195 -0.13568890 -0.04115200
v 0.00269198 -0.13470989 -0.04164898
v 0.00192195 -0.13568890 -0.04115200
v 0.00200897 -0.13471790 -0.04166895
v 0.00200897 -0.13471790 -0.04166895
v 0.00192195 -0.13568890 -0.04115200
v 0.00132596 -0.13472390 -0.04168295
v 0.00132596 -0.13472390 -0.04168295
v 0.00123799 -0.13569491 -0.04116594
v 0.00132596 -0.13472390 -0.04168295
v 0.00123799 -0.13569491 -0.04116594
v 0.00064200 -0.13472690 -0.04169094
v 0.00064200 -0.13472690 -0.04169094
v 0.00123799 -0.13569491 -0.04116594
v 0.00055400 -0.13569790 -0.04117399
v 0.00055400 -0.13569790 -0.04117399
v 0.00000700 -0.13400289 -0.04206895
v 0.00055400 -0.13569790 -0.04117399
v 0.00055400 -0.13617790 -0.04091197
v 0.00018700 -0.13713290 -0.04037898
v 0.00018700 -0.13713290 -0.04037898
v 0.00055400 -0.13617790 -0.04091197
v 0.00055400 -0.13665590 -0.04064595
v 0.00018700 -0.13713290 -0.04037898
v 0.00055400 -0.13665590 -0.04064595
v 0.00055400 -0.13713190 -0.04037797
v -0.00054700 -0.13713190 -0.04037797
v -0.00054700 -0.13665590 -0.04064595
v -0.00018000 -0.13713290 -0.04037898
v -0.00018000 -0.13713290 -0.04037898
v -0.00054700 -0.13665590 -0.04064595
v -0.00054700 -0.13617790 -0.04091197
v -0.00018000 -0.13713290 -0.04037898
v -0.00054700 -0.13617790 -0.04091197
v -0.00054800 -0.13569790 -0.04117399
v -0.00259894 -0.13568190 -0.04113298
v -0.00191396 -0.13471889 -0.04167097
v -0.00054800 -0.13569790 -0.04117399
v -0.00054800 -0.13569790 -0.04117399
v -0.00191396 -0.13471889 -0.04167097
v -0.00123096 -0.13472390 -0.04168397
v -0.00054800 -0.13569790 -0.04117399
v -0.00123096 -0.13472390 -0.04168397
v -0.00054700 -0.13472690 -0.04169195
v -0.00318295 -0.13557090 -0.04116696
v -0.00287294 -0.13461590 -0.04168999
v -0.00259894 -0.13568190 -0.04113298
v -0.00259894 -0.13568190 -0.04113298
v -0.00287294 -0.13461590 -0.04168999
v -0.00268298 -0.13470189 -0.04165297
v -0.00259894 -0.13568190 -0.04113298
v -0.00268298 -0.13470189 -0.04165297
v -0.00259697 -0.13471089 -0.04165196
v -0.00367796 -0.13526990 -0.04130399
v -0.00301600 -0.13439091 -0.04180097
v -0.00318295 -0.13557090 -0.04116696
v -0.00318295 -0.13557090 -0.04116696
v -0.00301600 -0.13439091 -0.04180097
v -0.00299495 -0.13445890 -0.04176700
v -0.00318295 -0.13557090 -0.04116696
v -0.00299495 -0.13445890 -0.04176700
v -0.00287294 -0.13461590 -0.04168999
v -0.00400895 -0.13482490 -0.04152196
v -0.00412398 -0.13430490 -0.04178798
v -0.00367796 -0.13526990 -0.04130399
v -0.00367796 -0.13526990 -0.04130399
v -0.00412398 -0.13430490 -0.04178798
v -0.00302297 -0.13432090 -0.04183799
v -0.00367796 -0.13526990 -0.04130399
v -0.00302297 -0.13432090 -0.04183799
v -0.00301600 -0.13439091 -0.04180097
v -0.00412398 -0.13430490 -0.04178798
v -0.00412398 -0.13317290 -0.04236495
v -0.00302297 -0.13432090 -0.04183799
v -0.00302297 -0.13432090 -0.04183799
v -0.00412398 -0.13317290 -0.04236495
v -0.00302297 -0.13318990 -0.04241299
v -0.00302297 -0.13318990 -0.04241299
v -0.00412398 -0.13317290 -0.04236495
v -0.00412398 -0.13203290 -0.04292398
v -0.00302297 -0.13318990 -0.04241299
v -0.00412398 -0.13203290 -0.04292398
v -0.00302297 -0.13204990 -0.04297095
v -0.00302297 -0.13204990 -0.04297095
v -0.00412398 -0.13203290 -0.04292398
v -0.00375700 -0.13088989 -0.04348194
v -0.00302297 -0.13204990 -0.04297095
v -0.00375700 -0.13088989 -0.04348194
v -0.00338995 -0.13089590 -0.04349696
v -0.00412398 -0.13203290 -0.04292398
v -0.00412398 -0.13088290 -0.04346495
v -0.00375700 -0.13088989 -0.04348194
v -0.00338995 -0.13089590 -0.04349696
v -0.00302297 -0.13090190 -0.04351097
v -0.00302297 -0.13204990 -0.04297095
v -0.00259697 -0.13471089 -0.04165196
v -0.00191396 -0.13471889 -0.04167097
v -0.00259894 -0.13568190 -0.04113298
v 0.00064200 -0.13392290 -0.04210698
v 0.00064200 -0.13472690 -0.04169094
v 0.00000700 -0.13400289 -0.04206895
v 0.00269198 -0.13468590 -0.04167097
v 0.00285900 -0.13464190 -0.04169094
v 0.00284898 -0.13467790 -0.04165899
v 0.00297600 -0.13460191 -0.04169297
v 0.00284898 -0.13467790 -0.04165899
v 0.00285900 -0.13464190 -0.04169094
f 1 2 3
f 4 5 6
f 7 8 9
f 10 11 12
f 13 14 15
f 16 17 18
f 19 20 21
f 22 23 24
f 25 26 27
f 28 29 14
f 30 31 32
f 33 34 35
f 36 37 38
f 39 40 41
f 42 43 44
f 45 46 47
f 48 49 50
f 51 52 53
f 54 55 56
f 57 58 59
f 60 61 62
f 63 64 65
f 66 67 68
f 69 70 71
f 72 73 74
f 75 76 77
f 78 79 80
f 81 82 83
f 84 85 86
f 87 88 89
f 90 91 92
f 93 94 95
f 96 97 98
f 99 100 101
f 102 103 104
f 105 106 107
f 108 109 110
f 111 112 113
f 114 115 116
f 117 118 119
f 120 121 122
f 123 124 125
f 126 127 128
f 129 130 131
f 132 133 134
f 135 136 137
f 138 139 140
f 141 142 143
f 144 145 146
f 147 148 149
f 150 151 152
f 153 154 155
f 156 157 158
f 159 157 160
f 161 162 163
f 164 165 166
f 163 167 168
f 169 170 171
f 172 173 174
f 175 176 177
f 178 179 180
f 181 182 183
f 184 185 186
f 187 188 189
f 190 191 192
f 193 194 195
f 196 197 198
f 199 200 201
f 202 203 204
f 205 206 207
f 208 209 210
f 211 212 213
f 214 215 216
f 217 218 219
f 220 221 222
f 223 224 225
f 226 227 228
f 229 230 231
f 232 233 234
f 235 236 237
f 238 239 240
f 241 242 243
f 244 245 246
f 247 248 249
f 250 251 252
f 253 254 255
f 256 257 258

