# https://github.com/mikedh/trimesh
v 0.00510996 -0.05593496 -0.07419997
v 0.01114195 -0.05505394 -0.07919996
v 0.00510996 -0.05593496 -0.07919996
v 0.01114195 -0.05505394 -0.07419997
v 0.01114195 -0.05505394 -0.07919996
v 0.01114195 -0.05505394 -0.07419997
v 0.01704394 -0.05352598 -0.07919996
v 0.01114195 -0.05505394 -0.07919996
v 0.01704394 -0.05352598 -0.07419997
v 0.01704394 -0.05352598 -0.07419997
v 0.02274495 -0.05136895 -0.07919996
v 0.01704394 -0.05352598 -0.07919996
v 0.02274495 -0.05136895 -0.07419997
v 0.02274495 -0.05136895 -0.07419997
v 0.02818000 -0.04860794 -0.07919996
v 0.02274495 -0.05136895 -0.07919996
v 0.02818000 -0.04860794 -0.07419997
v 0.02274495 -0.05136895 -0.07419997
v 0.02818000 -0.04860794 -0.07419997
v 0.03328496 -0.04527497 -0.07919996
v 0.02818000 -0.04860794 -0.07919996
v 0.03328496 -0.04527497 -0.07419997
v 0.03328496 -0.04527497 -0.07419997
v 0.03799897 -0.04140996 -0.07919996
v 0.03328496 -0.04527497 -0.07919996
v 0.03799897 -0.04140996 -0.07419997
v 0.03799897 -0.04140996 -0.07419997
v 0.04226797 -0.03705799 -0.07919996
v 0.03799897 -0.04140996 -0.07919996
v 0.04226797 -0.03705799 -0.07419997
v 0.04604095 -0.03226995 -0.07919996
v 0.04604095 -0.03226995 -0.07419997
v 0.04604095 -0.03226995 -0.07419997
v 0.04927396 -0.02710199 -0.07919996
v 0.04604095 -0.03226995 -0.07919996
v 0.04927396 -0.02710199 -0.07419997
v 0.04927396 -0.02710199 -0.07419997
v 0.05192995 -0.02161496 -0.07919996
v 0.04927396 -0.02710199 -0.07919996
v 0.05192995 -0.02161496 -0.07419997
v 0.05192995 -0.02161496 -0.07419997
v 0.05397695 -0.01587295 -0.07919996
v 0.05192995 -0.02161496 -0.07919996
v 0.05397695 -0.01587295 -0.07419997
v 0.05192995 -0.02161496 -0.07419997
v 0.05397695 -0.01587295 -0.07419997
v 0.05539095 -0.00994295 -0.07919996
v 0.05397695 -0.01587295 -0.07919996
v 0.05539095 -0.00994295 -0.07419997
v 0.05539095 -0.00994295 -0.07419997
v 0.05615597 -0.00389594 -0.07919996
v 0.05539095 -0.00994295 -0.07919996
v 0.05615597 -0.00389594 -0.07419997
v 0.05615597 -0.00389594 -0.07419997
v 0.05626195 0.00219995 -0.07919996
v 0.05615597 -0.00389594 -0.07919996
v 0.05626195 0.00220001 -0.07419997
v 0.05570900 0.00826996 -0.07919996
v 0.05570900 0.00826996 -0.07419997
v 0.05450195 0.01424598 -0.07919996
v 0.05450195 0.01424598 -0.07419997
v 0.05450195 0.01424598 -0.07419997
v 0.05265694 0.02005600 -0.07919996
v 0.05450195 0.01424598 -0.07919996
v 0.05265694 0.02005600 -0.07419997
v 0.05265694 0.02005600 -0.07419997
v 0.05019396 0.02563196 -0.07919996
v 0.05265694 0.02005600 -0.07919996
v 0.05019396 0.02563196 -0.07419997
v 0.04714298 0.03090995 -0.07919996
v 0.04714298 0.03090995 -0.07419997
v 0.04353898 0.03582596 -0.07919996
v 0.04353898 0.03582596 -0.07419997
v 0.04353898 0.03582596 -0.07419997
v 0.03942400 0.04032397 -0.07919996
v 0.04353898 0.03582596 -0.07919996
v 0.03942400 0.04032397 -0.07419997
v 0.03942400 0.04032397 -0.07419997
v 0.03484797 0.04435098 -0.07919996
v 0.03942400 0.04032397 -0.07919996
v 0.03484797 0.04435098 -0.07419997
v 0.03484797 0.04435098 -0.07419997
v 0.02986198 0.04785996 -0.07919996
v 0.03484797 0.04435098 -0.07919996
v 0.02986198 0.04785996 -0.07419997
v 0.02452695 0.05080896 -0.07919996
v 0.02452695 0.05080896 -0.07419997
v 0.01890397 0.05316400 -0.07919996
v 0.01890397 0.05316400 -0.07419997
v 0.01305997 0.05489701 -0.07919996
v 0.01305997 0.05489701 -0.07419997
v 0.01890397 0.05316400 -0.07419997
v 0.01305997 0.05489701 -0.07419997
v 0.00706196 0.05598795 -0.07919996
v 0.01305997 0.05489701 -0.07919996
v 0.00706196 0.05598795 -0.07419997
v 0.00098200 0.05642396 -0.07919996
v 0.00098200 0.05642396 -0.07419997
v -0.00510996 0.05619996 -0.07919996
v -0.00510996 0.05619996 -0.07419997
v -0.00510996 0.05619996 -0.07419997
v -0.01114195 0.05531901 -0.07919996
v -0.00510996 0.05619996 -0.07919996
v -0.01114195 0.05531901 -0.07419997
v -0.01114195 0.05531901 -0.07419997
v -0.01704394 0.05378997 -0.07919996
v -0.01114195 0.05531901 -0.07919996
v -0.01704394 0.05378997 -0.07419997
v -0.01704394 0.05378997 -0.07419997
v -0.02274495 0.05163300 -0.07919996
v -0.01704394 0.05378997 -0.07919996
v -0.02274495 0.05163300 -0.07419997
v -0.02274495 0.05163300 -0.07419997
v -0.02818000 0.04887199 -0.07919996
v -0.02274495 0.05163300 -0.07919996
v -0.02818000 0.04887199 -0.07419997
v -0.02818000 0.04887199 -0.07419997
v -0.03328496 0.04553896 -0.07919996
v -0.02818000 0.04887199 -0.07919996
v -0.03328496 0.04553896 -0.07419997
v -0.03328496 0.04553896 -0.07419997
v -0.03799897 0.04167497 -0.07919996
v -0.03328496 0.04553896 -0.07919996
v -0.03799897 0.04167497 -0.07419997
v -0.03799897 0.04167497 -0.07419997
v -0.04226797 0.03732299 -0.07919996
v -0.03799897 0.04167497 -0.07919996
v -0.04226797 0.03732299 -0.07419997
v -0.04604095 0.03253495 -0.07919996
v -0.04604095 0.03253495 -0.07419997
v -0.04604095 0.03253495 -0.07419997
v -0.04927396 0.02736699 -0.07919996
v -0.04604095 0.03253495 -0.07919996
v -0.04927396 0.02736699 -0.07419997
v -0.04927396 0.02736699 -0.07419997
v -0.05192995 0.02187997 -0.07919996
v -0.04927396 0.02736699 -0.07919996
v -0.05192995 0.02187997 -0.07419997
v -0.05192995 0.02187997 -0.07419997
v -0.05397695 0.01613795 -0.07919996
v -0.05192995 0.02187997 -0.07919996
v -0.05397695 0.01613795 -0.07419997
v -0.05192995 0.02187997 -0.07419997
v -0.05397695 0.01613795 -0.07419997
v -0.05539095 0.01020801 -0.07919996
v -0.05397695 0.01613795 -0.07919996
v -0.05539095 0.01020801 -0.07419997
v -0.05539095 0.01020801 -0.07419997
v -0.05615597 0.00415999 -0.07919996
v -0.05539095 0.01020801 -0.07919996
v -0.05615597 0.00415999 -0.07419997
v -0.05626195 -0.00193495 -0.07919996
v -0.05626195 -0.00193495 -0.07419997
v -0.05626195 -0.00193495 -0.07419997
v -0.05570900 -0.00800598 -0.07919996
v -0.05626195 -0.00193495 -0.07919996
v -0.05570900 -0.00800598 -0.07419997
v -0.05450195 -0.01398098 -0.07919996
v -0.05450195 -0.01398098 -0.07419997
v -0.05265694 -0.01979094 -0.07919996
v -0.05265694 -0.01979094 -0.07419997
v -0.05450195 -0.01398098 -0.07419997
v -0.05019396 -0.02536797 -0.07919996
v -0.05019396 -0.02536797 -0.07419997
v -0.04714298 -0.03064495 -0.07919996
v -0.04714298 -0.03064495 -0.07419997
v -0.04353898 -0.03556197 -0.07919996
v -0.04353898 -0.03556197 -0.07419997
v -0.04353898 -0.03556197 -0.07419997
v -0.03942400 -0.04005998 -0.07919996
v -0.04353898 -0.03556197 -0.07919996
v -0.03942400 -0.04005998 -0.07419997
v -0.03942400 -0.04005998 -0.07419997
v -0.03484797 -0.04408699 -0.07919996
v -0.03942400 -0.04005998 -0.07919996
v -0.03484797 -0.04408699 -0.07419997
v -0.03484797 -0.04408699 -0.07419997
v -0.02986198 -0.04759496 -0.07919996
v -0.03484797 -0.04408699 -0.07919996
v -0.02986198 -0.04759496 -0.07419997
v -0.02452695 -0.05054396 -0.07919996
v -0.02452695 -0.05054396 -0.07419997
v -0.01890397 -0.05289894 -0.07919996
v -0.01890397 -0.05289894 -0.07419997
v -0.01305997 -0.05463194 -0.07919996
v -0.01305997 -0.05463194 -0.07419997
v -0.01890397 -0.05289894 -0.07419997
v -0.01305997 -0.05463194 -0.07419997
v -0.00706196 -0.05572295 -0.07919996
v -0.01305997 -0.05463194 -0.07919996
v -0.00706196 -0.05572295 -0.07419997
v -0.00098200 -0.05615895 -0.07919996
v -0.00098200 -0.05615895 -0.07419997
v -0.00098200 -0.05615895 -0.07419997
v 0.00510996 -0.05593496 -0.07919996
v -0.00098200 -0.05615895 -0.07919996
v 0.00510996 -0.05593496 -0.07419997
v -0.01327097 -0.05735594 -0.07419997
v -0.01327097 -0.05735594 -0.07919996
v -0.00718897 -0.05842798 -0.07919996
v -0.01920795 -0.05565398 -0.07419997
v -0.01327097 -0.05735594 -0.07919996
v -0.01327097 -0.05735594 -0.07419997
v -0.01920795 -0.05565398 -0.07919996
v -0.02493399 -0.05333995 -0.07419997
v -0.01920795 -0.05565398 -0.07919996
v -0.01920795 -0.05565398 -0.07419997
v -0.02493399 -0.05333995 -0.07919996
v -0.03038597 -0.05044096 -0.07419997
v -0.03038597 -0.05044096 -0.07919996
v -0.03550595 -0.04698795 -0.07419997
v -0.03038597 -0.05044096 -0.07919996
v -0.03038597 -0.05044096 -0.07419997
v -0.03550595 -0.04698795 -0.07919996
v -0.04023694 -0.04301798 -0.07419997
v -0.03550595 -0.04698795 -0.07919996
v -0.03550595 -0.04698795 -0.07419997
v -0.04023694 -0.04301798 -0.07919996
v -0.04452699 -0.03857594 -0.07419997
v -0.04452699 -0.03857594 -0.07919996
v -0.04832899 -0.03370994 -0.07419997
v -0.04452699 -0.03857594 -0.07919996
v -0.04832899 -0.03370994 -0.07919996
v -0.05160194 -0.02847194 -0.07419997
v -0.04832899 -0.03370994 -0.07919996
v -0.04832899 -0.03370994 -0.07419997
v -0.05160194 -0.02847194 -0.07919996
v -0.05430895 -0.02292197 -0.07419997
v -0.05160194 -0.02847194 -0.07919996
v -0.05430895 -0.02292197 -0.07919996
v -0.05642199 -0.01711899 -0.07419997
v -0.05642199 -0.01711899 -0.07919996
v -0.05791598 -0.01112598 -0.07419997
v -0.05791598 -0.01112598 -0.07919996
v -0.05877494 -0.00501096 -0.07419997
v -0.05877494 -0.00501096 -0.07919996
v -0.05899095 0.00116098 -0.07419997
v -0.05877494 -0.00501096 -0.07919996
v -0.05877494 -0.00501096 -0.07419997
v -0.05899095 0.00116098 -0.07919996
v -0.05855995 0.00732195 -0.07419997
v -0.05899095 0.00116098 -0.07919996
v -0.05899095 0.00116098 -0.07419997
v -0.05855995 0.00732195 -0.07919996
v -0.05748796 0.01340299 -0.07419997
v -0.05748796 0.01340299 -0.07919996
v -0.05578595 0.01933997 -0.07419997
v -0.05578595 0.01933997 -0.07919996
v -0.05347299 0.02506595 -0.07419997
v -0.05578595 0.01933997 -0.07919996
v -0.05578595 0.01933997 -0.07419997
v -0.05347299 0.02506595 -0.07919996
v -0.05057299 0.03051900 -0.07419997
v -0.05347299 0.02506595 -0.07919996
v -0.05347299 0.02506595 -0.07419997
v -0.05057299 0.03051900 -0.07919996
v -0.04711997 0.03563898 -0.07419997
v -0.05057299 0.03051900 -0.07919996
v -0.05057299 0.03051900 -0.07419997
v -0.04711997 0.03563898 -0.07919996
v -0.04315096 0.04036897 -0.07419997
v -0.04711997 0.03563898 -0.07419997
v -0.04315096 0.04036897 -0.07919996
v -0.03870797 0.04465895 -0.07419997
v -0.04315096 0.04036897 -0.07919996
v -0.04315096 0.04036897 -0.07419997
v -0.03870797 0.04465895 -0.07919996
v -0.03384196 0.04846197 -0.07419997
v -0.03870797 0.04465895 -0.07919996
v -0.03384196 0.04846197 -0.07919996
v -0.02860498 0.05173397 -0.07419997
v -0.02860498 0.05173397 -0.07919996
v -0.02305400 0.05444198 -0.07419997
v -0.02860498 0.05173397 -0.07919996
v -0.02860498 0.05173397 -0.07419997
v -0.02305400 0.05444198 -0.07919996
v -0.01725095 0.05655395 -0.07419997
v -0.02305400 0.05444198 -0.07919996
v -0.02305400 0.05444198 -0.07419997
v -0.01725095 0.05655395 -0.07919996
v -0.01125895 0.05804800 -0.07419997
v -0.01725095 0.05655395 -0.07919996
v -0.01725095 0.05655395 -0.07419997
v -0.01125895 0.05804800 -0.07919996
v -0.00514299 0.05890798 -0.07419997
v -0.00514299 0.05890798 -0.07919996
v 0.00102895 0.05912297 -0.07419997
v -0.00514299 0.05890798 -0.07919996
v -0.00514299 0.05890798 -0.07419997
v 0.00102895 0.05912297 -0.07919996
v 0.00718897 0.05869299 -0.07419997
v 0.00718897 0.05869299 -0.07919996
v 0.01327097 0.05761998 -0.07419997
v 0.01327097 0.05761998 -0.07919996
v 0.01920795 0.05591797 -0.07419997
v 0.01327097 0.05761998 -0.07919996
v 0.01327097 0.05761998 -0.07419997
v 0.01920795 0.05591797 -0.07919996
v 0.02493399 0.05360496 -0.07419997
v 0.01920795 0.05591797 -0.07919996
v 0.01920795 0.05591797 -0.07419997
v 0.02493399 0.05360496 -0.07919996
v 0.03038597 0.05070596 -0.07419997
v 0.02493399 0.05360496 -0.07919996
v 0.02493399 0.05360496 -0.07419997
v 0.03038597 0.05070596 -0.07919996
v 0.03550595 0.04725199 -0.07419997
v 0.03038597 0.05070596 -0.07919996
v 0.03038597 0.05070596 -0.07419997
v 0.03550595 0.04725199 -0.07919996
v 0.04023694 0.04328298 -0.07419997
v 0.04023694 0.04328298 -0.07919996
v 0.04452699 0.03883999 -0.07419997
v 0.04452699 0.03883999 -0.07919996
v 0.04832899 0.03397399 -0.07419997
v 0.04452699 0.03883999 -0.07919996
v 0.04452699 0.03883999 -0.07419997
v 0.04832899 0.03397399 -0.07919996
v 0.05160194 0.02873700 -0.07419997
v 0.04832899 0.03397399 -0.07919996
v 0.04832899 0.03397399 -0.07419997
v 0.05160194 0.02873700 -0.07919996
v 0.05430895 0.02318596 -0.07419997
v 0.05160194 0.02873700 -0.07919996
v 0.05160194 0.02873700 -0.07419997
v 0.05430895 0.02318596 -0.07919996
v 0.05642199 0.01738297 -0.07419997
v 0.05430895 0.02318596 -0.07919996
v 0.05430895 0.02318596 -0.07419997
v 0.05642199 0.01738297 -0.07919996
v 0.05791598 0.01139098 -0.07419997
v 0.05791598 0.01139098 -0.07919996
v 0.05877494 0.00527495 -0.07419997
v 0.05791598 0.01139098 -0.07919996
v 0.05791598 0.01139098 -0.07419997
v 0.05877494 0.00527495 -0.07919996
v 0.05899095 -0.00089699 -0.07419997
v 0.05899095 -0.00089699 -0.07919996
v 0.05855995 -0.00705695 -0.07419997
v 0.05899095 -0.00089699 -0.07919996
v 0.05899095 -0.00089699 -0.07419997
v 0.05855995 -0.00705695 -0.07919996
v 0.05748796 -0.01313894 -0.07419997
v 0.05855995 -0.00705695 -0.07919996
v 0.05855995 -0.00705695 -0.07419997
v 0.05748796 -0.01313894 -0.07919996
v 0.05578595 -0.01907497 -0.07419997
v 0.05748796 -0.01313894 -0.07919996
v 0.05748796 -0.01313894 -0.07419997
v 0.05578595 -0.01907497 -0.07919996
v 0.05347299 -0.02480095 -0.07419997
v 0.05578595 -0.01907497 -0.07919996
v 0.05578595 -0.01907497 -0.07419997
v 0.05347299 -0.02480095 -0.07919996
v 0.05057299 -0.03025394 -0.07419997
v 0.05347299 -0.02480095 -0.07919996
v 0.05347299 -0.02480095 -0.07419997
v 0.05057299 -0.03025394 -0.07919996
v 0.04711997 -0.03537398 -0.07419997
v 0.05057299 -0.03025394 -0.07919996
v 0.05057299 -0.03025394 -0.07419997
v 0.04711997 -0.03537398 -0.07919996
v 0.04315096 -0.04010498 -0.07419997
v 0.04315096 -0.04010498 -0.07919996
v 0.03870797 -0.04439496 -0.07419997
v 0.04315096 -0.04010498 -0.07419997
v 0.03870797 -0.04439496 -0.07919996
v 0.03384196 -0.04819697 -0.07419997
v 0.03870797 -0.04439496 -0.07919996
v 0.03870797 -0.04439496 -0.07419997
v 0.03384196 -0.04819697 -0.07919996
v 0.02860498 -0.05146998 -0.07419997
v 0.03384196 -0.04819697 -0.07919996
v 0.03384196 -0.04819697 -0.07419997
v 0.02860498 -0.05146998 -0.07919996
v 0.02305400 -0.05417698 -0.07419997
v 0.02860498 -0.05146998 -0.07919996
v 0.02860498 -0.05146998 -0.07419997
v 0.02305400 -0.05417698 -0.07919996
v 0.01725095 -0.05628997 -0.07419997
v 0.02305400 -0.05417698 -0.07919996
v 0.02305400 -0.05417698 -0.07419997
v 0.01725095 -0.05628997 -0.07919996
v 0.01125895 -0.05778396 -0.07419997
v 0.01725095 -0.05628997 -0.07919996
v 0.01125895 -0.05778396 -0.07919996
v 0.01725095 -0.05628997 -0.07919996
v 0.00514299 -0.05864298 -0.07419997
v 0.01125895 -0.05778396 -0.07919996
v 0.01125895 -0.05778396 -0.07419997
v 0.00514299 -0.05864298 -0.07919996
v -0.00718897 -0.05842798 -0.07419997
v -0.00718897 -0.05842798 -0.07919996
v -0.00102895 -0.05885899 -0.07419997
v -0.00718897 -0.05842798 -0.07419997
v -0.00102895 -0.05885899 -0.07919996
v -0.00718897 -0.05842798 -0.07919996
v -0.00102895 -0.05885899 -0.07919996
v -0.00102895 -0.05885899 -0.07419997
v -0.00102895 -0.05885899 -0.07919996
v -0.00706196 -0.05572295 -0.07419997
v -0.00718897 -0.05842798 -0.07419997
v -0.00098200 -0.05615895 -0.07419997
v -0.01327097 -0.05735594 -0.07419997
v -0.01305997 -0.05463194 -0.07419997
v -0.01920795 -0.05565398 -0.07419997
v -0.01890397 -0.05289894 -0.07419997
v -0.02493399 -0.05333995 -0.07419997
v -0.02452695 -0.05054396 -0.07419997
v -0.03038597 -0.05044096 -0.07419997
v -0.02986198 -0.04759496 -0.07419997
v -0.03550595 -0.04698795 -0.07419997
v -0.03484797 -0.04408699 -0.07419997
v -0.04023694 -0.04301798 -0.07419997
v -0.03942400 -0.04005998 -0.07419997
v -0.04452699 -0.03857594 -0.07419997
v -0.04353898 -0.03556197 -0.07419997
v -0.04832899 -0.03370994 -0.07419997
v -0.04714298 -0.03064495 -0.07419997
v -0.05160194 -0.02847194 -0.07419997
v -0.05019396 -0.02536797 -0.07419997
v -0.05430895 -0.02292197 -0.07419997
v -0.05265694 -0.01979094 -0.07419997
v -0.05642199 -0.01711899 -0.07419997
v -0.05450195 -0.01398098 -0.07419997
v -0.05791598 -0.01112598 -0.07419997
v -0.05570900 -0.00800598 -0.07419997
v -0.05877494 -0.00501096 -0.07419997
v -0.05626195 -0.00193495 -0.07419997
v -0.05899095 0.00116098 -0.07419997
v 0.00514299 -0.05864298 -0.07919996
v -0.00102895 -0.05885899 -0.07919996
v -0.00098200 -0.05615895 -0.07919996
v -0.00718897 -0.05842798 -0.07919996
v -0.00706196 -0.05572295 -0.07919996
v -0.01327097 -0.05735594 -0.07919996
v -0.01305997 -0.05463194 -0.07919996
v -0.01920795 -0.05565398 -0.07919996
v -0.01890397 -0.05289894 -0.07919996
v -0.02493399 -0.05333995 -0.07919996
v -0.02452695 -0.05054396 -0.07919996
v -0.03038597 -0.05044096 -0.07919996
v -0.02986198 -0.04759496 -0.07919996
v -0.03550595 -0.04698795 -0.07919996
v -0.03484797 -0.04408699 -0.07919996
v -0.04023694 -0.04301798 -0.07919996
v -0.03942400 -0.04005998 -0.07919996
v -0.04452699 -0.03857594 -0.07919996
v -0.04353898 -0.03556197 -0.07919996
v -0.04832899 -0.03370994 -0.07919996
v -0.04714298 -0.03064495 -0.07919996
v -0.05160194 -0.02847194 -0.07919996
v -0.05019396 -0.02536797 -0.07919996
v -0.05430895 -0.02292197 -0.07919996
v -0.05265694 -0.01979094 -0.07919996
v -0.05642199 -0.01711899 -0.07919996
v -0.05450195 -0.01398098 -0.07919996
v -0.05791598 -0.01112598 -0.07919996
v -0.05570900 -0.00800598 -0.07919996
v -0.05877494 -0.00501096 -0.07919996
v -0.05626195 -0.00193495 -0.07919996
v -0.05899095 0.00116098 -0.07919996
v -0.05615597 0.00415999 -0.07919996
v -0.05855995 0.00732195 -0.07919996
v -0.05539095 0.01020801 -0.07919996
v -0.05748796 0.01340299 -0.07919996
v -0.05397695 0.01613795 -0.07919996
v -0.05578595 0.01933997 -0.07919996
v -0.05192995 0.02187997 -0.07919996
v -0.05347299 0.02506595 -0.07919996
v -0.04927396 0.02736699 -0.07919996
v -0.05057299 0.03051900 -0.07919996
v -0.04604095 0.03253495 -0.07919996
v -0.04711997 0.03563898 -0.07919996
v -0.04226797 0.03732299 -0.07919996
v -0.04315096 0.04036897 -0.07919996
v -0.03799897 0.04167497 -0.07919996
v -0.03870797 0.04465895 -0.07919996
v -0.03328496 0.04553896 -0.07919996
v -0.03384196 0.04846197 -0.07919996
v -0.02818000 0.04887199 -0.07919996
v -0.02860498 0.05173397 -0.07919996
v -0.02274495 0.05163300 -0.07919996
v -0.02305400 0.05444198 -0.07919996
v -0.01704394 0.05378997 -0.07919996
v -0.01725095 0.05655395 -0.07919996
v -0.01114195 0.05531901 -0.07919996
v -0.01125895 0.05804800 -0.07919996
v -0.00510996 0.05619996 -0.07919996
v -0.00514299 0.05890798 -0.07919996
v 0.00098200 0.05642396 -0.07919996
v 0.00102895 0.05912297 -0.07919996
v 0.00718897 0.05869299 -0.07919996
v 0.00706196 0.05598795 -0.07919996
v 0.01327097 0.05761998 -0.07919996
v 0.01305997 0.05489701 -0.07919996
v 0.01920795 0.05591797 -0.07919996
v 0.01890397 0.05316400 -0.07919996
v 0.02493399 0.05360496 -0.07919996
v 0.02452695 0.05080896 -0.07919996
v 0.03038597 0.05070596 -0.07919996
v 0.02986198 0.04785996 -0.07919996
v 0.03550595 0.04725199 -0.07919996
v 0.03484797 0.04435098 -0.07919996
v 0.04023694 0.04328298 -0.07919996
v 0.03942400 0.04032397 -0.07919996
v 0.04452699 0.03883999 -0.07919996
v 0.04353898 0.03582596 -0.07919996
v 0.04832899 0.03397399 -0.07919996
v 0.04714298 0.03090995 -0.07919996
v 0.05160194 0.02873700 -0.07919996
v 0.05019396 0.02563196 -0.07919996
v 0.05430895 0.02318596 -0.07919996
v 0.05265694 0.02005600 -0.07919996
v 0.05642199 0.01738297 -0.07919996
v 0.05450195 0.01424598 -0.07919996
v 0.05791598 0.01139098 -0.07919996
v 0.05570900 0.00826996 -0.07919996
v 0.05877494 0.00527495 -0.07919996
v 0.05626195 0.00219995 -0.07919996
v 0.05899095 -0.00089699 -0.07919996
v 0.05615597 -0.00389594 -0.07919996
v 0.05855995 -0.00705695 -0.07919996
v 0.05539095 -0.00994295 -0.07919996
v 0.05748796 -0.01313894 -0.07919996
v 0.05397695 -0.01587295 -0.07919996
v 0.05578595 -0.01907497 -0.07919996
v 0.05192995 -0.02161496 -0.07919996
v 0.05347299 -0.02480095 -0.07919996
v 0.04927396 -0.02710199 -0.07919996
v 0.05057299 -0.03025394 -0.07919996
v 0.04604095 -0.03226995 -0.07919996
v 0.04711997 -0.03537398 -0.07919996
v 0.04226797 -0.03705799 -0.07919996
v 0.04315096 -0.04010498 -0.07919996
v 0.03799897 -0.04140996 -0.07919996
v 0.03870797 -0.04439496 -0.07919996
v 0.03328496 -0.04527497 -0.07919996
v 0.03384196 -0.04819697 -0.07919996
v 0.02818000 -0.04860794 -0.07919996
v 0.02860498 -0.05146998 -0.07919996
v 0.02274495 -0.05136895 -0.07919996
v 0.02305400 -0.05417698 -0.07919996
v 0.01704394 -0.05352598 -0.07919996
v 0.01725095 -0.05628997 -0.07919996
v 0.01114195 -0.05505394 -0.07919996
v 0.01125895 -0.05778396 -0.07919996
v 0.00510996 -0.05593496 -0.07919996
v -0.00102895 -0.05885899 -0.07419997
v 0.00514299 -0.05864298 -0.07419997
v 0.00510996 -0.05593496 -0.07419997
v 0.01125895 -0.05778396 -0.07419997
v 0.01114195 -0.05505394 -0.07419997
v 0.01725095 -0.05628997 -0.07419997
v 0.01704394 -0.05352598 -0.07419997
v 0.02305400 -0.05417698 -0.07419997
v 0.02274495 -0.05136895 -0.07419997
v 0.02860498 -0.05146998 -0.07419997
v 0.02818000 -0.04860794 -0.07419997
v 0.03384196 -0.04819697 -0.07419997
v 0.03328496 -0.04527497 -0.07419997
v 0.03870797 -0.04439496 -0.07419997
v 0.03799897 -0.04140996 -0.07419997
v 0.04315096 -0.04010498 -0.07419997
v 0.04226797 -0.03705799 -0.07419997
v 0.04711997 -0.03537398 -0.07419997
v 0.04604095 -0.03226995 -0.07419997
v 0.05057299 -0.03025394 -0.07419997
v 0.04927396 -0.02710199 -0.07419997
v 0.05347299 -0.02480095 -0.07419997
v 0.05192995 -0.02161496 -0.07419997
v 0.05578595 -0.01907497 -0.07419997
v 0.05397695 -0.01587295 -0.07419997
v 0.05748796 -0.01313894 -0.07419997
v 0.05539095 -0.00994295 -0.07419997
v 0.05855995 -0.00705695 -0.07419997
v 0.05615597 -0.00389594 -0.07419997
v 0.05899095 -0.00089699 -0.07419997
v 0.05626195 0.00220001 -0.07419997
v 0.05877494 0.00527495 -0.07419997
v 0.05570900 0.00826996 -0.07419997
v 0.05791598 0.01139098 -0.07419997
v 0.05450195 0.01424598 -0.07419997
v 0.05642199 0.01738297 -0.07419997
v 0.05265694 0.02005600 -0.07419997
v 0.05430895 0.02318596 -0.07419997
v 0.05019396 0.02563196 -0.07419997
v 0.05160194 0.02873700 -0.07419997
v 0.04714298 0.03090995 -0.07419997
v 0.04832899 0.03397399 -0.07419997
v 0.04353898 0.03582596 -0.07419997
v 0.04452699 0.03883999 -0.07419997
v 0.03942400 0.04032397 -0.07419997
v 0.04023694 0.04328298 -0.07419997
v 0.03484797 0.04435098 -0.07419997
v 0.03550595 0.04725199 -0.07419997
v 0.02986198 0.04785996 -0.07419997
v 0.03038597 0.05070596 -0.07419997
v 0.02452695 0.05080896 -0.07419997
v 0.02493399 0.05360496 -0.07419997
v 0.01890397 0.05316400 -0.07419997
v 0.01920795 0.05591797 -0.07419997
v 0.01305997 0.05489701 -0.07419997
v 0.01327097 0.05761998 -0.07419997
v 0.00706196 0.05598795 -0.07419997
v 0.00718897 0.05869299 -0.07419997
v 0.00098200 0.05642396 -0.07419997
v 0.00102895 0.05912297 -0.07419997
v -0.00514299 0.05890798 -0.07419997
v -0.00510996 0.05619996 -0.07419997
v -0.01125895 0.05804800 -0.07419997
v -0.01114195 0.05531901 -0.07419997
v -0.01725095 0.05655395 -0.07419997
v -0.01704394 0.05378997 -0.07419997
v -0.02305400 0.05444198 -0.07419997
v -0.02274495 0.05163300 -0.07419997
v -0.02860498 0.05173397 -0.07419997
v -0.02818000 0.04887199 -0.07419997
v -0.03384196 0.04846197 -0.07419997
v -0.03328496 0.04553896 -0.07419997
v -0.03870797 0.04465895 -0.07419997
v -0.03799897 0.04167497 -0.07419997
v -0.04315096 0.04036897 -0.07419997
v -0.04226797 0.03732299 -0.07419997
v -0.04711997 0.03563898 -0.07419997
v -0.04604095 0.03253495 -0.07419997
v -0.05057299 0.03051900 -0.07419997
v -0.04927396 0.02736699 -0.07419997
v -0.05347299 0.02506595 -0.07419997
v -0.05192995 0.02187997 -0.07419997
v -0.05578595 0.01933997 -0.07419997
v -0.05397695 0.01613795 -0.07419997
v -0.05748796 0.01340299 -0.07419997
v -0.05539095 0.01020801 -0.07419997
v -0.05855995 0.00732195 -0.07419997
v -0.05615597 0.00415999 -0.07419997
f 1 2 3
f 4 5 1
f 6 7 8
f 9 7 6
f 10 11 12
f 13 11 10
f 14 15 16
f 17 15 18
f 19 20 21
f 22 20 19
f 23 24 25
f 26 24 23
f 27 28 29
f 30 28 27
f 30 31 28
f 32 31 30
f 33 34 35
f 36 34 33
f 37 38 39
f 40 38 37
f 41 42 43
f 44 42 45
f 46 47 48
f 49 47 46
f 50 51 52
f 53 51 50
f 54 55 56
f 57 55 54
f 57 58 55
f 59 58 57
f 59 60 58
f 61 60 59
f 62 63 64
f 65 63 62
f 66 67 68
f 69 67 66
f 69 70 67
f 71 70 69
f 71 72 70
f 73 72 71
f 74 75 76
f 77 75 74
f 78 79 80
f 81 79 78
f 82 83 84
f 85 83 82
f 85 86 83
f 87 86 85
f 87 88 86
f 89 88 87
f 89 90 88
f 91 90 92
f 93 94 95
f 96 94 93
f 96 97 94
f 98 97 96
f 98 99 97
f 100 99 98
f 101 102 103
f 104 102 101
f 105 106 107
f 108 106 105
f 109 110 111
f 112 110 109
f 113 114 115
f 116 114 113
f 117 118 119
f 120 118 117
f 121 122 123
f 124 122 121
f 125 126 127
f 128 126 125
f 128 129 126
f 130 129 128
f 131 132 133
f 134 132 131
f 135 136 137
f 138 136 135
f 139 140 141
f 142 140 143
f 144 145 146
f 147 145 144
f 148 149 150
f 151 149 148
f 151 152 149
f 153 152 151
f 154 155 156
f 157 155 154
f 157 158 155
f 159 158 157
f 159 160 158
f 161 160 162
f 161 163 160
f 164 163 161
f 164 165 163
f 166 165 164
f 166 167 165
f 168 167 166
f 169 170 171
f 172 170 169
f 173 174 175
f 176 174 173
f 177 178 179
f 180 178 177
f 180 181 178
f 182 181 180
f 182 183 181
f 184 183 182
f 184 185 183
f 186 185 187
f 188 189 190
f 191 189 188
f 191 192 189
f 193 192 191
f 194 195 196
f 197 195 194
f 198 199 200
f 201 202 203
f 201 204 202
f 205 206 207
f 205 208 206
f 209 208 205
f 209 210 208
f 211 212 213
f 211 214 212
f 215 216 217
f 215 218 216
f 219 218 215
f 219 220 218
f 221 222 219
f 221 223 222
f 224 225 226
f 224 227 225
f 228 229 224
f 228 230 229
f 231 230 228
f 231 232 230
f 233 232 231
f 233 234 232
f 235 234 233
f 235 236 234
f 237 238 239
f 237 240 238
f 241 242 243
f 241 244 242
f 245 244 241
f 245 246 244
f 247 246 245
f 247 248 246
f 249 250 251
f 249 252 250
f 253 254 255
f 253 256 254
f 257 258 259
f 257 260 258
f 261 260 262
f 261 263 260
f 264 265 266
f 264 267 265
f 268 269 264
f 268 270 269
f 271 270 268
f 271 272 270
f 273 274 275
f 273 276 274
f 277 278 279
f 277 280 278
f 281 282 283
f 281 284 282
f 285 284 281
f 285 286 284
f 287 288 289
f 287 290 288
f 291 290 287
f 291 292 290
f 293 292 291
f 293 294 292
f 295 296 297
f 295 298 296
f 299 300 301
f 299 302 300
f 303 304 305
f 303 306 304
f 307 308 309
f 307 310 308
f 311 310 307
f 311 312 310
f 313 312 311
f 313 314 312
f 315 316 317
f 315 318 316
f 319 320 321
f 319 322 320
f 323 324 325
f 323 326 324
f 327 328 329
f 327 330 328
f 331 330 327
f 331 332 330
f 333 334 335
f 333 336 334
f 337 336 333
f 337 338 336
f 339 340 341
f 339 342 340
f 343 344 345
f 343 346 344
f 347 348 349
f 347 350 348
f 351 352 353
f 351 354 352
f 355 356 357
f 355 358 356
f 359 360 361
f 359 362 360
f 363 362 359
f 363 364 362
f 365 364 366
f 365 367 364
f 368 369 370
f 368 371 369
f 372 373 374
f 372 375 373
f 376 377 378
f 376 379 377
f 380 381 382
f 380 383 381
f 384 385 380
f 384 386 387
f 388 389 390
f 391 389 388
f 200 392 198
f 393 394 395
f 396 394 397
f 398 388 399
f 391 388 400
f 401 402 403
f 401 404 402
f 405 404 401
f 405 406 404
f 407 406 405
f 407 408 406
f 409 408 407
f 409 410 408
f 411 410 409
f 411 412 410
f 413 412 411
f 413 414 412
f 415 414 413
f 415 416 414
f 417 416 415
f 417 418 416
f 419 418 417
f 419 420 418
f 421 420 419
f 421 422 420
f 423 422 421
f 423 424 422
f 425 424 423
f 425 426 424
f 427 426 425
f 427 428 426
f 429 428 427
f 429 430 428
f 431 432 433
f 433 432 434
f 433 434 435
f 435 434 436
f 435 436 437
f 437 436 438
f 437 438 439
f 439 438 440
f 439 440 441
f 441 440 442
f 441 442 443
f 443 442 444
f 443 444 445
f 445 444 446
f 445 446 447
f 447 446 448
f 447 448 449
f 449 448 450
f 449 450 451
f 451 450 452
f 451 452 453
f 453 452 454
f 453 454 455
f 455 454 456
f 455 456 457
f 457 456 458
f 457 458 459
f 459 458 460
f 459 460 461
f 461 460 462
f 461 462 463
f 463 462 464
f 463 464 465
f 465 464 466
f 465 466 467
f 467 466 468
f 467 468 469
f 469 468 470
f 469 470 471
f 471 470 472
f 471 472 473
f 473 472 474
f 473 474 475
f 475 474 476
f 475 476 477
f 477 476 478
f 477 478 479
f 479 478 480
f 479 480 481
f 481 480 482
f 481 482 483
f 483 482 484
f 483 484 485
f 485 484 486
f 485 486 487
f 487 486 488
f 487 488 489
f 489 488 490
f 489 490 491
f 491 490 492
f 491 492 493
f 491 493 494
f 494 493 495
f 494 495 496
f 496 495 497
f 496 497 498
f 498 497 499
f 498 499 500
f 500 499 501
f 500 501 502
f 502 501 503
f 502 503 504
f 504 503 505
f 504 505 506
f 506 505 507
f 506 507 508
f 508 507 509
f 508 509 510
f 510 509 511
f 510 511 512
f 512 511 513
f 512 513 514
f 514 513 515
f 514 515 516
f 516 515 517
f 516 517 518
f 518 517 519
f 518 519 520
f 520 519 521
f 520 521 522
f 522 521 523
f 522 523 524
f 524 523 525
f 524 525 526
f 526 525 527
f 526 527 528
f 528 527 529
f 528 529 530
f 530 529 531
f 530 531 532
f 532 531 533
f 532 533 534
f 534 533 535
f 534 535 536
f 536 535 537
f 536 537 538
f 538 537 539
f 538 539 540
f 540 539 541
f 540 541 542
f 542 541 543
f 542 543 544
f 544 543 545
f 544 545 546
f 546 545 547
f 546 547 548
f 548 547 431
f 548 431 433
f 402 549 403
f 403 549 550
f 403 550 551
f 551 550 552
f 551 552 553
f 553 552 554
f 553 554 555
f 555 554 556
f 555 556 557
f 557 556 558
f 557 558 559
f 559 558 560
f 559 560 561
f 561 560 562
f 561 562 563
f 563 562 564
f 563 564 565
f 565 564 566
f 565 566 567
f 567 566 568
f 567 568 569
f 569 568 570
f 569 570 571
f 571 570 572
f 571 572 573
f 573 572 574
f 573 574 575
f 575 574 576
f 575 576 577
f 577 576 578
f 577 578 579
f 579 578 580
f 579 580 581
f 581 580 582
f 581 582 583
f 583 582 584
f 583 584 585
f 585 584 586
f 585 586 587
f 587 586 588
f 587 588 589
f 589 588 590
f 589 590 591
f 591 590 592
f 591 592 593
f 593 592 594
f 593 594 595
f 595 594 596
f 595 596 597
f 597 596 598
f 597 598 599
f 599 598 600
f 599 600 601
f 601 600 602
f 601 602 603
f 603 602 604
f 603 604 605
f 605 604 606
f 605 606 607
f 607 606 608
f 607 608 609
f 607 609 610
f 610 609 611
f 610 611 612
f 612 611 613
f 612 613 614
f 614 613 615
f 614 615 616
f 616 615 617
f 616 617 618
f 618 617 619
f 618 619 620
f 620 619 621
f 620 621 622
f 622 621 623
f 622 623 624
f 624 623 625
f 624 625 626
f 626 625 627
f 626 627 628
f 628 627 629
f 628 629 630
f 630 629 631
f 630 631 632
f 632 631 633
f 632 633 634
f 634 633 635
f 634 635 636
f 636 635 430
f 636 430 429

