# https://github.com/mikedh/trimesh
v -0.00788363 -0.05999988 0.16186051
v 0.00000000 -0.05999988 0.16255021
v 0.00000000 -0.05919988 0.16255021
v -0.00788363 -0.05919988 0.16186051
v -0.01552771 -0.05919988 0.15981211
v -0.01552771 -0.05999988 0.15981211
v -0.02270000 -0.05919988 0.15646762
v -0.02270000 -0.05999988 0.15646762
v -0.02918256 -0.05919988 0.15192862
v -0.02918256 -0.05999988 0.15192862
v -0.03477842 -0.05919988 0.14633280
v -0.03477842 -0.05999988 0.14633280
v -0.03931755 -0.05919988 0.13985011
v -0.03931755 -0.05999988 0.13985011
v -0.04266204 -0.05919988 0.13267791
v -0.04266204 -0.05999988 0.13267791
v -0.04471027 -0.05919988 0.12503381
v -0.04471027 -0.05999988 0.12503381
v -0.04540000 -0.05919988 0.11715011
v -0.04540000 -0.05999988 0.11715011
v -0.04471027 -0.05919988 0.10926651
v -0.04471027 -0.05999988 0.10926651
v -0.04266204 -0.05919988 0.10162241
v -0.04266204 -0.05999988 0.10162241
v -0.03931755 -0.05919988 0.09445021
v -0.03931755 -0.05999988 0.09445021
v -0.03477842 -0.05919988 0.08796754
v -0.03477842 -0.05999988 0.08796754
v -0.02918256 -0.05919988 0.08237173
v -0.02918256 -0.05999988 0.08237173
v -0.02270000 -0.05999988 0.07783265
v -0.02270000 -0.05919988 0.07783265
v -0.01552771 -0.05919988 0.07448817
v -0.01552771 -0.05999988 0.07448817
v -0.00788363 -0.05999989 0.07243983
v -0.00788363 -0.05919989 0.07243983
v 0.00000000 -0.05919989 0.07175013
v 0.00000000 -0.05999989 0.07175013
v 0.00788363 -0.05919989 0.07243983
v 0.00788363 -0.05999989 0.07243983
v 0.01552771 -0.05919988 0.07448817
v 0.01552771 -0.05999988 0.07448817
v 0.02270000 -0.05919988 0.07783265
v 0.02270000 -0.05999988 0.07783265
v 0.02918256 -0.05999988 0.08237173
v 0.02918256 -0.05919988 0.08237173
v 0.03477842 -0.05999988 0.08796754
v 0.03477842 -0.05919988 0.08796754
v 0.03931755 -0.05919988 0.09445021
v 0.03931755 -0.05999988 0.09445021
v 0.04266204 -0.05919988 0.10162241
v 0.04266204 -0.05999988 0.10162241
v 0.04471027 -0.05999988 0.10926651
v 0.04471027 -0.05919988 0.10926651
v 0.04540000 -0.05999988 0.11715011
v 0.04540000 -0.05919988 0.11715011
v 0.04471027 -0.05919988 0.12503381
v 0.04471027 -0.05999988 0.12503381
v 0.04266204 -0.05919988 0.13267791
v 0.04266204 -0.05999988 0.13267791
v 0.03931755 -0.05999988 0.13985011
v 0.03931755 -0.05919988 0.13985011
v 0.03477842 -0.05919988 0.14633280
v 0.03477842 -0.05999988 0.14633280
v 0.02918256 -0.05999988 0.15192862
v 0.02918256 -0.05919988 0.15192862
v 0.02270000 -0.05919988 0.15646762
v 0.02270000 -0.05999988 0.15646762
v 0.01552771 -0.05999988 0.15981211
v 0.01552771 -0.05919988 0.15981211
v 0.00788363 -0.05999988 0.16186051
v 0.00788363 -0.05919988 0.16186051
v 0.00000000 -0.05919988 0.16255021
v 0.00000000 -0.05999988 0.16255021
v -0.03914435 -0.05899988 0.09455018
v -0.02905400 -0.05899988 0.08252491
v -0.03462521 -0.05899988 0.08809620
v 0.00000000 -0.05899989 0.07195021
v -0.00784890 -0.05899989 0.07263685
v -0.01545931 -0.05899988 0.07467604
v -0.04451331 -0.05899988 0.12499902
v -0.04451331 -0.05899988 0.10930131
v -0.04520000 -0.05899988 0.11715011
v 0.00784890 -0.05899989 0.07263685
v -0.03914435 -0.05899988 0.13975011
v -0.04247410 -0.05899988 0.13260950
v 0.02905400 -0.05899988 0.08252491
v 0.02260000 -0.05899988 0.07800575
v 0.01545931 -0.05899988 0.07467604
v -0.02260000 -0.05899988 0.07800575
v -0.02905400 -0.05899988 0.15177542
v -0.03462521 -0.05899988 0.14620411
v -0.02260000 -0.05899988 0.15629461
v 0.03914435 -0.05899988 0.09455018
v 0.03462521 -0.05899988 0.08809620
v 0.04451331 -0.05899988 0.10930131
v 0.04247410 -0.05899988 0.10169081
v -0.04247410 -0.05899988 0.10169081
v 0.00000000 -0.05899988 0.16235010
v -0.01545931 -0.05899988 0.15962431
v -0.00784890 -0.05899988 0.16166341
v 0.00784890 -0.05899988 0.16166341
v 0.02260000 -0.05899988 0.15629461
v 0.01545931 -0.05899988 0.15962431
v 0.03914435 -0.05899988 0.13975011
v 0.04247410 -0.05899988 0.13260950
v 0.04451331 -0.05899988 0.12499902
v 0.03462521 -0.05899988 0.14620411
v 0.02905400 -0.05899988 0.15177542
v 0.04520000 -0.05899988 0.11715011
v -0.03393577 -0.05999988 0.08867470
v -0.03477842 -0.05999988 0.08796754
v -0.02918256 -0.05999988 0.08237173
v -0.02847549 -0.05999988 0.08321437
v -0.02270000 -0.05999988 0.07783265
v -0.03836492 -0.05999988 0.09500013
v -0.03931755 -0.05999988 0.09445021
v -0.02215000 -0.05999988 0.07878529
v -0.01552771 -0.05999988 0.07448817
v -0.04162838 -0.05999988 0.10199872
v -0.04266204 -0.05999988 0.10162241
v -0.01515149 -0.05999988 0.07552174
v -0.00788363 -0.05999989 0.07243983
v -0.04362698 -0.05999988 0.10945751
v -0.04471027 -0.05999988 0.10926651
v -0.00769261 -0.05999989 0.07352321
v 0.00000000 -0.05999989 0.07175013
v -0.04430000 -0.05999988 0.11715011
v -0.04540000 -0.05999988 0.11715011
v 0.00000000 -0.05999989 0.07285011
v -0.04471027 -0.05999988 0.12503381
v 0.00788363 -0.05999989 0.07243983
v -0.04362698 -0.05999988 0.12484281
v 0.00769261 -0.05999989 0.07352321
v -0.04266204 -0.05999988 0.13267791
v 0.01552771 -0.05999988 0.07448817
v -0.04162838 -0.05999988 0.13230161
v 0.01515149 -0.05999988 0.07552174
v -0.03931755 -0.05999988 0.13985011
v 0.02270000 -0.05999988 0.07783265
v -0.03836492 -0.05999988 0.13930021
v 0.02215000 -0.05999988 0.07878529
v -0.03477842 -0.05999988 0.14633280
v 0.02918256 -0.05999988 0.08237173
v -0.03393577 -0.05999988 0.14562561
v 0.02847549 -0.05999988 0.08321437
v -0.02918256 -0.05999988 0.15192862
v -0.02847549 -0.05999988 0.15108591
v 0.03477842 -0.05999988 0.08796754
v 0.03393577 -0.05999988 0.08867470
v -0.02270000 -0.05999988 0.15646762
v -0.02215000 -0.05999988 0.15551500
v 0.03931755 -0.05999988 0.09445021
v 0.03836492 -0.05999988 0.09500013
v -0.01552771 -0.05999988 0.15981211
v -0.01515149 -0.05999988 0.15877861
v 0.04266204 -0.05999988 0.10162241
v 0.04162838 -0.05999988 0.10199872
v -0.00788363 -0.05999988 0.16186051
v -0.00769261 -0.05999988 0.16077711
v 0.04471027 -0.05999988 0.10926651
v 0.04362698 -0.05999988 0.10945751
v 0.04540000 -0.05999988 0.11715011
v 0.04430000 -0.05999988 0.11715011
v 0.00000000 -0.05999988 0.16255021
v 0.00000000 -0.05999988 0.16145021
v 0.04362698 -0.05999988 0.12484281
v 0.04471027 -0.05999988 0.12503381
v 0.00788363 -0.05999988 0.16186051
v 0.00769261 -0.05999988 0.16077711
v 0.04162838 -0.05999988 0.13230161
v 0.04266204 -0.05999988 0.13267791
v 0.01552771 -0.05999988 0.15981211
v 0.01515149 -0.05999988 0.15877861
v 0.03836492 -0.05999988 0.13930021
v 0.02270000 -0.05999988 0.15646762
v 0.02215000 -0.05999988 0.15551500
v 0.03931755 -0.05999988 0.13985011
v 0.03393577 -0.05999988 0.14562561
v 0.02918256 -0.05999988 0.15192862
v 0.02847549 -0.05999988 0.15108591
v 0.03477842 -0.05999988 0.14633280
v -0.00788363 -0.05919988 0.16186051
v 0.00000000 -0.05919988 0.16255021
v 0.00000000 -0.05899988 0.16235010
v -0.00784890 -0.05899988 0.16166341
v -0.01552771 -0.05919988 0.15981211
v -0.01545931 -0.05899988 0.15962431
v -0.02270000 -0.05919988 0.15646762
v -0.02260000 -0.05899988 0.15629461
v -0.02918256 -0.05919988 0.15192862
v -0.02905400 -0.05899988 0.15177542
v -0.03477842 -0.05919988 0.14633280
v -0.03462521 -0.05899988 0.14620411
v -0.03931755 -0.05919988 0.13985011
v -0.03914435 -0.05899988 0.13975011
v -0.04266204 -0.05919988 0.13267791
v -0.04247410 -0.05899988 0.13260950
v -0.04471027 -0.05919988 0.12503381
v -0.04451331 -0.05899988 0.12499902
v -0.04540000 -0.05919988 0.11715011
v -0.04520000 -0.05899988 0.11715011
v -0.04471027 -0.05919988 0.10926651
v -0.04451331 -0.05899988 0.10930131
v -0.04266204 -0.05919988 0.10162241
v -0.04247410 -0.05899988 0.10169081
v -0.03931755 -0.05919988 0.09445021
v -0.03914435 -0.05899988 0.09455018
v -0.03477842 -0.05919988 0.08796754
v -0.03462521 -0.05899988 0.08809620
v -0.02918256 -0.05919988 0.08237173
v -0.02905400 -0.05899988 0.08252491
v -0.02270000 -0.05919988 0.07783265
v -0.02260000 -0.05899988 0.07800575
v -0.01552771 -0.05919988 0.07448817
v -0.01545931 -0.05899988 0.07467604
v -0.00788363 -0.05919989 0.07243983
v -0.00784890 -0.05899989 0.07263685
v 0.00000000 -0.05919989 0.07175013
v 0.00000000 -0.05899989 0.07195021
v 0.00788363 -0.05919989 0.07243983
v 0.00784890 -0.05899989 0.07263685
v 0.01552771 -0.05919988 0.07448817
v 0.01545931 -0.05899988 0.07467604
v 0.02270000 -0.05919988 0.07783265
v 0.02260000 -0.05899988 0.07800575
v 0.02918256 -0.05919988 0.08237173
v 0.02905400 -0.05899988 0.08252491
v 0.03477842 -0.05919988 0.08796754
v 0.03462521 -0.05899988 0.08809620
v 0.03931755 -0.05919988 0.09445021
v 0.03914435 -0.05899988 0.09455018
v 0.04266204 -0.05919988 0.10162241
v 0.04247410 -0.05899988 0.10169081
v 0.04451331 -0.05899988 0.10930131
v 0.04471027 -0.05919988 0.10926651
v 0.04540000 -0.05919988 0.11715011
v 0.04520000 -0.05899988 0.11715011
v 0.04471027 -0.05919988 0.12503381
v 0.04451331 -0.05899988 0.12499902
v 0.04247410 -0.05899988 0.13260950
v 0.04266204 -0.05919988 0.13267791
v 0.03931755 -0.05919988 0.13985011
v 0.03914435 -0.05899988 0.13975011
v 0.03477842 -0.05919988 0.14633280
v 0.03462521 -0.05899988 0.14620411
v 0.02918256 -0.05919988 0.15192862
v 0.02905400 -0.05899988 0.15177542
v 0.02270000 -0.05919988 0.15646762
v 0.02260000 -0.05899988 0.15629461
v 0.01552771 -0.05919988 0.15981211
v 0.01545931 -0.05899988 0.15962431
v 0.00788363 -0.05919988 0.16186051
v 0.00784890 -0.05899988 0.16166341
v 0.00000000 -0.05919988 0.16255021
v 0.00000000 -0.05899988 0.16235010
f 1 2 3
f 1 3 4
f 1 4 5
f 6 5 7
f 6 1 5
f 8 7 9
f 8 6 7
f 10 9 11
f 10 8 9
f 12 11 13
f 12 10 11
f 14 12 13
f 14 13 15
f 16 14 15
f 16 15 17
f 18 16 17
f 18 17 19
f 20 18 19
f 20 19 21
f 22 20 21
f 22 21 23
f 24 22 23
f 24 23 25
f 26 24 25
f 26 25 27
f 28 26 27
f 28 27 29
f 30 28 29
f 31 30 29
f 31 29 32
f 31 32 33
f 34 31 33
f 35 34 33
f 35 33 36
f 35 36 37
f 38 35 37
f 38 37 39
f 40 38 39
f 40 39 41
f 42 41 43
f 42 40 41
f 44 42 43
f 45 43 46
f 45 44 43
f 47 46 48
f 47 48 49
f 47 45 46
f 50 49 51
f 50 47 49
f 52 50 51
f 53 51 54
f 53 52 51
f 55 54 56
f 55 56 57
f 55 53 54
f 58 57 59
f 58 55 57
f 60 58 59
f 61 59 62
f 61 62 63
f 61 60 59
f 64 61 63
f 65 64 63
f 65 63 66
f 65 66 67
f 68 65 67
f 69 68 67
f 69 67 70
f 71 69 70
f 71 70 72
f 71 72 73
f 74 71 73
f 75 76 77
f 78 79 80
f 81 82 83
f 84 78 80
f 85 81 86
f 87 88 89
f 87 89 84
f 87 80 90
f 87 90 76
f 87 84 80
f 91 85 92
f 93 81 85
f 93 85 91
f 94 95 87
f 94 76 75
f 94 87 76
f 96 97 94
f 96 75 98
f 96 98 82
f 96 82 81
f 96 94 75
f 99 93 100
f 99 100 101
f 102 81 93
f 102 93 99
f 102 96 81
f 103 102 104
f 105 106 107
f 108 102 103
f 108 103 109
f 108 105 107
f 108 107 110
f 108 110 96
f 108 96 102
f 111 112 113
f 114 111 113
f 115 114 113
f 116 117 112
f 116 112 111
f 118 114 115
f 119 118 115
f 120 121 117
f 120 117 116
f 122 118 119
f 123 122 119
f 124 125 121
f 124 121 120
f 126 122 123
f 127 126 123
f 128 125 124
f 128 129 125
f 130 126 127
f 131 129 128
f 132 130 127
f 133 131 128
f 134 130 132
f 135 131 133
f 136 134 132
f 137 135 133
f 138 134 136
f 139 135 137
f 140 138 136
f 141 139 137
f 142 138 140
f 143 139 141
f 144 142 140
f 145 143 141
f 146 142 144
f 147 143 145
f 147 145 148
f 149 146 144
f 149 150 146
f 151 148 152
f 151 147 148
f 153 150 149
f 153 154 150
f 155 151 152
f 155 152 156
f 157 154 153
f 157 158 154
f 159 156 160
f 159 155 156
f 161 158 157
f 161 162 158
f 163 164 162
f 163 162 161
f 165 160 166
f 165 159 160
f 167 164 163
f 168 167 163
f 169 166 170
f 169 165 166
f 171 167 168
f 172 171 168
f 173 170 174
f 173 169 170
f 175 171 172
f 176 173 174
f 176 174 177
f 178 175 172
f 179 175 178
f 180 176 177
f 180 177 181
f 182 179 178
f 182 180 181
f 182 181 179
f 183 184 185
f 183 185 186
f 187 186 188
f 187 183 186
f 189 188 190
f 189 187 188
f 191 190 192
f 191 189 190
f 193 192 194
f 193 191 192
f 195 194 196
f 195 193 194
f 197 195 196
f 197 196 198
f 199 197 198
f 199 198 200
f 201 199 200
f 201 200 202
f 203 201 202
f 203 202 204
f 205 203 204
f 205 204 206
f 207 205 206
f 207 206 208
f 209 207 208
f 209 208 210
f 211 209 210
f 211 210 212
f 213 211 212
f 213 212 214
f 215 213 214
f 215 214 216
f 217 215 216
f 217 216 218
f 219 217 218
f 219 218 220
f 221 219 220
f 221 220 222
f 223 222 224
f 223 221 222
f 225 224 226
f 225 223 224
f 227 226 228
f 227 225 226
f 229 228 230
f 229 227 228
f 231 230 232
f 231 229 230
f 233 232 234
f 233 231 232
f 235 233 234
f 236 233 235
f 237 235 238
f 237 236 235
f 239 238 240
f 239 237 238
f 241 239 240
f 242 239 241
f 243 241 244
f 243 242 241
f 245 244 246
f 245 243 244
f 247 245 246
f 247 246 248
f 249 247 248
f 249 248 250
f 251 249 250
f 251 250 252
f 253 251 252
f 253 252 254
f 255 253 254
f 255 254 256

