# https://github.com/mikedh/trimesh
v 0.04675111 0.05591596 0.09550003
v 0.05602989 0.05060534 0.09550003
v 0.04639114 0.05956603 0.09550003
v 0.05575056 0.04694824 0.09550004
v 0.06396619 0.04010705 0.09550004
v 0.03633115 0.06318472 0.09550003
v 0.03534282 0.06671682 0.09550003
v 0.06305607 0.03655399 0.09550004
v 0.06995893 0.02839012 0.09550004
v 0.02480729 0.06853365 0.09550003
v 0.02322063 0.07184047 0.09550003
v 0.06844565 0.02504910 0.09550004
v 0.07382599 0.01581057 0.09550004
v 0.01252967 0.07180021 0.09550003
v 0.01039289 0.07478126 0.09550003
v 0.07175554 0.01278308 0.09550004
v 0.07544988 0.00275062 0.09550004
v -0.00012866 0.07288516 0.09550003
v -0.00275063 0.07544988 0.09550003
v 0.07288516 0.00012865 0.09550004
v -0.01278308 0.07175554 0.09550003
v 0.07478128 -0.01039289 0.09550004
v -0.01581057 0.07382599 0.09550003
v 0.07180021 -0.01252967 0.09550004
v -0.02504910 0.06844565 0.09550003
v 0.07184047 -0.02322063 0.09550004
v -0.02839012 0.06995892 0.09550003
v 0.06853366 -0.02480729 0.09550004
v -0.03655400 0.06305606 0.09550003
v 0.06671683 -0.03534282 0.09550004
v -0.04010705 0.06396620 0.09550003
v 0.06318473 -0.03633115 0.09550004
v -0.04694823 0.05575056 0.09550003
v 0.05956603 -0.04639116 0.09550004
v -0.05060535 0.05602989 0.09550003
v 0.05591597 -0.04675112 0.09550004
v -0.05591597 0.04675111 0.09550004
v 0.05060535 -0.05602990 0.09550004
v -0.05956603 0.04639114 0.09550004
v 0.04694823 -0.05575057 0.09550004
v -0.06318473 0.03633116 0.09550004
v 0.04010705 -0.06396620 0.09550004
v -0.06671683 0.03534281 0.09550004
v 0.03655400 -0.06305607 0.09550004
v -0.06853366 0.02480729 0.09550004
v 0.02839012 -0.06995893 0.09550004
v -0.07184047 0.02322064 0.09550004
v 0.02504910 -0.06844565 0.09550004
v -0.07180021 0.01252966 0.09550004
v 0.01581057 -0.07382599 0.09550004
v -0.07478128 0.01039289 0.09550004
v 0.01278308 -0.07175553 0.09550004
v -0.07288516 -0.00012867 0.09550004
v 0.00275063 -0.07544988 0.09550004
v 0.00012866 -0.07288516 0.09550004
v -0.07544988 -0.00275063 0.09550004
v -0.07175554 -0.01278309 0.09550004
v -0.01039289 -0.07478128 0.09550004
v -0.01252967 -0.07180022 0.09550004
v -0.07382599 -0.01581058 0.09550004
v -0.06844565 -0.02504909 0.09550004
v -0.02322063 -0.07184049 0.09550004
v -0.02480729 -0.06853366 0.09550004
v -0.06995893 -0.02839013 0.09550004
v -0.06305607 -0.03655400 0.09550004
v -0.03534282 -0.06671684 0.09550004
v -0.03633115 -0.06318473 0.09550004
v -0.06396619 -0.04010706 0.09550004
v -0.05575056 -0.04694823 0.09550004
v -0.04639114 -0.05956604 0.09550004
v -0.04675111 -0.05591598 0.09550004
v -0.05602989 -0.05060535 0.09550004
v -0.07544988 -0.00275063 0.08950003
v -0.07544988 -0.00275063 0.09550004
v -0.07478128 0.01039289 0.09550004
v -0.07478128 0.01039289 0.08950003
v -0.07184047 0.02322064 0.08950003
v -0.07184047 0.02322064 0.09550004
v -0.06671683 0.03534281 0.08950003
v -0.06671683 0.03534281 0.09550004
v -0.05956603 0.04639114 0.08950003
v -0.05956603 0.04639114 0.09550004
v -0.05060535 0.05602989 0.08950002
v -0.05060535 0.05602989 0.09550003
v -0.04010705 0.06396620 0.08950002
v -0.04010705 0.06396620 0.09550003
v -0.02839012 0.06995892 0.08950002
v -0.02839012 0.06995892 0.09550003
v -0.01581057 0.07382599 0.08950002
v -0.01581057 0.07382599 0.09550003
v -0.00275063 0.07544988 0.08950002
v -0.00275063 0.07544988 0.09550003
v 0.01039289 0.07478126 0.08950002
v 0.01039289 0.07478126 0.09550003
v 0.02322063 0.07184047 0.09550003
v 0.02322063 0.07184047 0.08950002
v 0.03534282 0.06671682 0.08950002
v 0.03534282 0.06671682 0.09550003
v 0.04639114 0.05956603 0.09550003
v 0.04639114 0.05956603 0.08950002
v 0.05602989 0.05060534 0.08950002
v 0.05602989 0.05060534 0.09550003
v 0.06396619 0.04010705 0.08950003
v 0.06396619 0.04010705 0.09550004
v 0.06995893 0.02839012 0.08950003
v 0.06995893 0.02839012 0.09550004
v 0.07382599 0.01581057 0.08950003
v 0.07382599 0.01581057 0.09550004
v 0.07544988 0.00275062 0.09550004
v 0.07544988 0.00275062 0.08950003
v 0.07478128 -0.01039289 0.08950003
v 0.07478128 -0.01039289 0.09550004
v 0.07184047 -0.02322063 0.09550004
v 0.07184047 -0.02322063 0.08950003
v 0.06671683 -0.03534282 0.09550004
v 0.06671683 -0.03534282 0.08950003
v 0.05956603 -0.04639116 0.08950003
v 0.05956603 -0.04639116 0.09550004
v 0.05060535 -0.05602990 0.09550004
v 0.05060535 -0.05602990 0.08950004
v 0.04010705 -0.06396620 0.08950004
v 0.04010705 -0.06396620 0.09550004
v 0.02839012 -0.06995893 0.09550004
v 0.02839012 -0.06995893 0.08950004
v 0.01581057 -0.07382599 0.09550004
v 0.01581057 -0.07382599 0.08950004
v 0.00275063 -0.07544988 0.08950004
v 0.00275063 -0.07544988 0.09550004
v -0.01039289 -0.07478128 0.09550004
v -0.01039289 -0.07478128 0.08950004
v -0.02322063 -0.07184049 0.08950004
v -0.02322063 -0.07184049 0.09550004
v -0.03534282 -0.06671684 0.08950004
v -0.03534282 -0.06671684 0.09550004
v -0.04639114 -0.05956604 0.08950004
v -0.04639114 -0.05956604 0.09550004
v -0.05602989 -0.05060535 0.08950004
v -0.05602989 -0.05060535 0.09550004
v -0.06396619 -0.04010706 0.09550004
v -0.06396619 -0.04010706 0.08950003
v -0.06995893 -0.02839013 0.08950003
v -0.06995893 -0.02839013 0.09550004
v -0.07382599 -0.01581058 0.08950003
v -0.07382599 -0.01581058 0.09550004
v -0.07544988 -0.00275063 0.08950003
v -0.07544988 -0.00275063 0.09550004
f 1 2 3
f 4 5 2
f 4 2 1
f 6 3 7
f 6 1 3
f 8 5 4
f 9 5 8
f 10 7 11
f 10 6 7
f 12 9 8
f 13 9 12
f 14 11 15
f 14 10 11
f 16 13 12
f 17 13 16
f 18 14 15
f 18 15 19
f 20 17 16
f 21 18 19
f 22 17 20
f 23 21 19
f 24 22 20
f 25 21 23
f 26 22 24
f 27 25 23
f 28 26 24
f 29 25 27
f 30 26 28
f 31 29 27
f 32 30 28
f 33 29 31
f 34 30 32
f 35 33 31
f 36 34 32
f 37 33 35
f 38 34 36
f 39 37 35
f 40 38 36
f 41 37 39
f 42 38 40
f 43 41 39
f 44 42 40
f 45 41 43
f 46 42 44
f 47 45 43
f 48 46 44
f 49 45 47
f 50 46 48
f 51 49 47
f 52 50 48
f 53 49 51
f 54 52 55
f 54 50 52
f 56 53 51
f 57 53 56
f 58 55 59
f 58 54 55
f 60 57 56
f 61 57 60
f 62 59 63
f 62 58 59
f 64 61 60
f 65 61 64
f 66 63 67
f 66 62 63
f 68 69 65
f 68 65 64
f 70 66 67
f 70 67 71
f 72 70 71
f 72 71 69
f 72 69 68
f 73 74 75
f 76 73 75
f 77 75 78
f 77 76 75
f 79 78 80
f 79 77 78
f 81 80 82
f 81 79 80
f 83 82 84
f 83 81 82
f 85 83 84
f 85 84 86
f 87 85 86
f 87 86 88
f 89 87 88
f 89 88 90
f 91 89 90
f 91 90 92
f 93 91 92
f 93 92 94
f 93 94 95
f 96 93 95
f 97 96 95
f 97 95 98
f 97 98 99
f 100 97 99
f 101 100 99
f 101 99 102
f 103 101 102
f 103 102 104
f 105 103 104
f 105 104 106
f 107 105 106
f 107 106 108
f 107 108 109
f 110 107 109
f 111 110 109
f 111 109 112
f 111 112 113
f 114 113 115
f 114 111 113
f 116 114 115
f 117 115 118
f 117 118 119
f 117 116 115
f 120 117 119
f 121 119 122
f 121 122 123
f 121 120 119
f 124 123 125
f 124 121 123
f 126 124 125
f 127 125 128
f 127 128 129
f 127 126 125
f 130 127 129
f 131 129 132
f 131 130 129
f 133 132 134
f 133 131 132
f 135 133 134
f 135 134 136
f 137 135 136
f 137 136 138
f 137 138 139
f 140 137 139
f 141 140 139
f 141 139 142
f 143 141 142
f 143 142 144
f 145 143 144
f 145 144 146

