# https://github.com/mikedh/trimesh
v 0.02571150 0.12075836 0.72350013
v 0.02848693 0.11384366 0.72350013
v 0.03262666 0.11781446 0.72350013
v 0.03064178 0.12568857 0.72350013
v 0.03564182 0.12147286 0.72350013
v 0.03802160 0.12504357 0.72350013
v 0.02000000 0.11675906 0.72350013
v 0.01883484 0.10762836 0.72350013
v 0.02357312 0.11024126 0.72350013
v 0.03464102 0.13140017 0.72350013
v 0.04004045 0.12881456 0.72350013
v 0.04215178 0.13410537 0.72350013
v 0.01368081 0.11381246 0.72350013
v 0.01249807 0.10517085 0.72350013
v 0.03758770 0.13771926 0.72350013
v 0.04370195 0.14034437 0.72350013
v 0.00049958 0.10309956 0.72350013
v 0.00049955 0.10270385 0.72350013
v 0.00432763 0.10304765 0.72350013
v 0.00694593 0.11200775 0.72350013
v 0.00913567 0.10417756 0.72350013
v 0.03939231 0.14445417 0.72350013
v 0.04418086 0.14403687 0.72350013
v 0.04434246 0.14775786 0.72350013
v -0.00365260 0.10294106 0.72350013
v -0.00050044 0.10270385 0.72350013
v -0.00050041 0.10309956 0.72350013
v 0.00000000 0.11140016 0.72350013
v 0.04000000 0.15140016 0.72350013
v 0.04430611 0.15138987 0.72350013
v 0.04373107 0.15849827 0.72350013
v -0.00694593 0.11200775 0.72350013
v -0.01249807 0.10517085 0.72350013
v -0.00731844 0.10369306 0.72350013
v 0.03939231 0.15834606 0.72350013
v 0.04211440 0.16516116 0.72350013
v -0.01368081 0.11381246 0.72350013
v -0.01787051 0.10718335 0.72350013
v -0.01495558 0.10599896 0.72350013
v 0.03758770 0.16508096 0.72350013
v 0.03924873 0.17194717 0.72350013
v -0.02000000 0.11675906 0.72350013
v -0.02261459 0.10965106 0.72350013
v 0.03464102 0.17140017 0.72350013
v -0.02642978 0.11220916 0.72350013
v 0.03539366 0.17804337 0.72350013
v -0.02571150 0.12075836 0.72350013
v -0.03004348 0.11521896 0.72350013
v 0.03064178 0.17711167 0.72350013
v 0.03169958 0.18235067 0.72350013
v -0.03331664 0.11858406 0.72350013
v -0.03064178 0.12568857 0.72350013
v 0.02571150 0.18204187 0.72350013
v 0.02768816 0.18598366 0.72350013
v -0.03621868 0.12227226 0.72350013
v -0.03874361 0.12629497 0.72350013
v 0.02326386 0.18910137 0.72350013
v -0.03464102 0.13140017 0.72350013
v 0.02000000 0.18604118 0.72350013
v -0.04112405 0.13128546 0.72350013
v 0.01849386 0.19165868 0.72350013
v -0.03758770 0.13771926 0.72350013
v 0.01368081 0.18898778 0.72350013
v -0.04265682 0.13575926 0.72350013
v 0.01344884 0.19361106 0.72350013
v 0.00694593 0.19079247 0.72350013
v -0.04370873 0.14038336 0.72350013
v -0.03939231 0.14445417 0.72350013
v 0.00820960 0.19493248 0.72350013
v 0.00412399 0.19550897 0.72350013
v 0.00000000 0.19140017 0.72350013
v -0.04434246 0.14775786 0.72350013
v -0.04000000 0.15140016 0.72350013
v -0.04430611 0.15138987 0.72350013
v 0.00000000 0.19570947 0.72349519
v -0.04420032 0.15429717 0.72350013
v -0.03939231 0.15834606 0.72350013
v -0.00638323 0.19523777 0.72350013
v -0.00694593 0.19079247 0.72350013
v -0.04377253 0.15823495 0.72350013
v -0.04264822 0.16340877 0.72350013
v -0.03758770 0.16508096 0.72350013
v -0.01263312 0.19386187 0.72350013
v -0.01368081 0.18898778 0.72350013
v -0.04115882 0.16779408 0.72350013
v -0.01862775 0.19159687 0.72350013
v -0.02000000 0.18604118 0.72350013
v -0.03904273 0.17233567 0.72350013
v -0.03464102 0.17140017 0.72350013
v -0.02423415 0.18848497 0.72350013
v -0.02571150 0.18204187 0.72350013
v -0.03642246 0.17661807 0.72350013
v -0.03064178 0.17711167 0.72350013
v -0.03333718 0.18057807 0.72350013
v -0.02933510 0.18459946 0.72350013
v -0.00605578 0.19549397 0.72330022
v -0.00050077 0.19638357 0.71240008
v -0.00813154 0.19564207 0.71239960
v -0.00054252 0.19590917 0.72330022
v -0.01124622 0.19446388 0.72330022
v -0.02634414 0.18727607 0.72330046
v -0.02247199 0.19036926 0.71239918
v -0.02877670 0.18597697 0.71239883
v -0.02216615 0.18999787 0.72330022
v -0.03584081 0.17779137 0.72330046
v -0.03425430 0.18055858 0.71239978
v -0.03872534 0.17428637 0.71240038
v -0.03970292 0.17151827 0.72330159
v -0.04394369 0.14057687 0.72329998
v -0.04444897 0.14487627 0.72330046
v -0.04448561 0.14461297 0.71240014
v -0.04269886 0.13714726 0.71239996
v -0.03631302 0.12211595 0.72330266
v -0.03966059 0.13008636 0.71239913
v -0.03545375 0.12363326 0.71239811
v -0.03935216 0.12704867 0.72329932
v -0.00050063 0.10641406 0.71266776
v -0.00526601 0.10670686 0.71240115
v -0.00049990 0.10640796 0.71240014
v -0.00050045 0.10643186 0.71459985
v -0.00838683 0.10387895 0.72333199
v -0.00997136 0.10750146 0.71240056
v -0.01252989 0.10506636 0.72332180
v -0.00050046 0.10621086 0.71693122
v -0.00050046 0.10569306 0.71880764
v -0.00417900 0.10295316 0.72334921
v -0.00050046 0.10494415 0.72044182
v -0.00050045 0.10395195 0.72194046
v -0.00050045 0.10332946 0.72267717
v -0.00050045 0.10264986 0.72336358
v -0.01732101 0.19279006 0.71496999
v -0.01552754 0.19362037 0.71239996
v -0.01739262 0.19262537 0.71777505
v -0.01770651 0.19223827 0.72330022
v -0.03189292 0.18296216 0.71498954
v -0.03196815 0.18271008 0.71779674
v -0.03099306 0.18334897 0.72330046
v -0.04159021 0.16823648 0.71500474
v -0.04206377 0.16734807 0.71240062
v -0.04416738 0.15993837 0.71240133
v -0.04160006 0.16787997 0.71781379
v -0.04395979 0.15838106 0.72330076
v -0.04234691 0.16510727 0.72330171
v -0.04489321 0.15085557 0.71498221
v -0.04497901 0.15228097 0.71240014
v -0.04478480 0.15036066 0.71778142
v -0.04454520 0.14775747 0.72330016
v -0.04451657 0.15139316 0.72330046
v -0.04155996 0.13358967 0.71501803
v -0.04154792 0.13300277 0.71782345
v -0.04210729 0.13338487 0.72330052
v -0.03190349 0.11900616 0.71511376
v -0.03021186 0.11799656 0.71239793
v -0.03195303 0.11836395 0.71794397
v -0.02409606 0.11334836 0.71239805
v -0.02591150 0.11164826 0.72330743
v -0.03169073 0.11659826 0.72330439
v -0.01732740 0.10934655 0.71529794
v -0.01728433 0.10981696 0.71239865
v -0.01737031 0.10866566 0.71820009
v -0.01960330 0.10784946 0.72331208
v 0.00813228 0.10712905 0.71239996
v 0.00049954 0.10643195 0.71459985
v 0.00049936 0.10641406 0.71266735
v 0.00050010 0.10640796 0.71240014
v 0.00329695 0.10283186 0.72335327
v 0.00049954 0.10265016 0.72336376
v 0.00049954 0.10377356 0.72216403
v 0.00049954 0.10472336 0.72082204
v 0.00049954 0.10547366 0.71936077
v 0.01737852 0.10682166 0.72331613
v 0.01513747 0.10899246 0.71239895
v 0.02036153 0.11123056 0.71239811
v 0.01253039 0.10506476 0.72332102
v 0.02243125 0.10937966 0.72330958
v 0.03631520 0.12211906 0.72330248
v 0.03194215 0.11685566 0.72330439
v 0.03200975 0.11971666 0.71239793
v 0.03631981 0.12478025 0.71239811
v 0.03944068 0.12721647 0.72329932
v 0.03964306 0.13005646 0.71239811
v 0.04400907 0.14097846 0.72329986
v 0.04367000 0.14051907 0.71239960
v 0.04459829 0.14543076 0.71240008
v 0.04432421 0.15547857 0.72330052
v 0.04483285 0.15508617 0.71239996
v 0.04361433 0.16240898 0.71239996
v 0.04353985 0.16064566 0.72330111
v 0.03814547 0.17433307 0.72330093
v 0.03970886 0.17253697 0.71240008
v 0.03710520 0.17682947 0.71240008
v 0.03468311 0.17929657 0.72330046
v 0.02405253 0.18885076 0.72330022
v 0.02986948 0.18440127 0.72330046
v 0.02716959 0.18725167 0.71240008
v 0.02205794 0.19060417 0.71239978
v 0.00768337 0.19523917 0.72330022
v 0.01233398 0.19465867 0.71239960
v 0.00800716 0.19566298 0.71239978
v 0.00395601 0.19620886 0.71239996
v 0.01447198 0.19349197 0.72330022
v 0.00045748 0.19591017 0.72330022
v 0.00049924 0.19638357 0.71240008
v 0.00882465 0.10694776 0.71538740
v 0.00049954 0.10601165 0.71780407
v 0.00049954 0.10632516 0.71620274
v 0.00883014 0.10629205 0.71831900
v 0.00648139 0.10340656 0.72334027
v 0.02511318 0.11343326 0.71519238
v 0.02665044 0.11509386 0.71239787
v 0.02516869 0.11276376 0.71804857
v 0.02693390 0.11240625 0.72330564
v 0.04155996 0.13358967 0.71501803
v 0.04205974 0.13535407 0.71239865
v 0.04154792 0.13300277 0.71782345
v 0.04225717 0.13382547 0.72330052
v 0.04489321 0.15085557 0.71498221
v 0.04496870 0.15000527 0.71240008
v 0.04478480 0.15036066 0.71778142
v 0.04451658 0.15139316 0.72330046
v 0.04454520 0.14775747 0.72330016
v 0.04159021 0.16823648 0.71500474
v 0.04165688 0.16838266 0.71240008
v 0.04160006 0.16787997 0.71781379
v 0.04067971 0.16946346 0.72330183
v 0.04242646 0.16485916 0.72330171
v 0.03189292 0.18296216 0.71498954
v 0.03257791 0.18242227 0.71240008
v 0.03196815 0.18271008 0.71779674
v 0.01732101 0.19279006 0.71496999
v 0.01705741 0.19302547 0.71239942
v 0.01739262 0.19262537 0.71777505
v 0.01922121 0.19154717 0.72330022
v 0.00365696 0.10675295 0.71220011
v 0.00050010 0.10640796 0.71240014
v 0.00050091 0.10660366 0.71220011
v 0.00813228 0.10712905 0.71239996
v 0.00680746 0.10711996 0.71220011
v 0.01234264 0.10832816 0.71220011
v 0.01513747 0.10899246 0.71239895
v 0.01768759 0.11023135 0.71220011
v 0.02036153 0.11123056 0.71239811
v 0.02274845 0.11279806 0.71220011
v 0.02665044 0.11509386 0.71239787
v 0.02745080 0.11598645 0.71220011
v 0.03200975 0.11971666 0.71239793
v 0.03171778 0.11974835 0.71220011
v 0.03547390 0.12402835 0.71220011
v 0.03631981 0.12478025 0.71239811
v 0.03865925 0.12875137 0.71220011
v 0.03964306 0.13005646 0.71239811
v 0.04122194 0.13384147 0.71220011
v 0.04205974 0.13535407 0.71239865
v 0.04311340 0.13921866 0.71220011
v 0.04367000 0.14051907 0.71239960
v 0.04430737 0.14479268 0.71220011
v 0.04459829 0.14543076 0.71240008
v 0.04478676 0.15047278 0.71220011
v 0.04496870 0.15000527 0.71240008
v 0.04483285 0.15508617 0.71239996
v 0.04453780 0.15617046 0.71220011
v 0.04361433 0.16240898 0.71239996
v 0.04356824 0.16179617 0.71220011
v 0.04189450 0.16725527 0.71220011
v 0.04165688 0.16838266 0.71240008
v 0.03952123 0.17248297 0.71220011
v 0.03970886 0.17253697 0.71240008
v 0.03710520 0.17682947 0.71240008
v 0.03648092 0.17738956 0.71220011
v 0.03257791 0.18242227 0.71240008
v 0.03283919 0.18186507 0.71220011
v 0.02865192 0.18583147 0.71220011
v 0.02716959 0.18725167 0.71240008
v 0.02235915 0.19021298 0.71220011
v 0.02205794 0.19060417 0.71239978
v 0.01705741 0.19302547 0.71239942
v 0.01542829 0.19345336 0.71220011
v 0.01233398 0.19465867 0.71239960
v 0.00807622 0.19545707 0.71220011
v 0.00800716 0.19566298 0.71239978
v 0.00395601 0.19620886 0.71239996
v 0.00049995 0.19619627 0.71220052
v 0.00049924 0.19638357 0.71240008
v -0.00399914 0.19601387 0.71220011
v -0.00050077 0.19638357 0.71240008
v -0.00049996 0.19619627 0.71220052
v -0.00813154 0.19564207 0.71239960
v -0.00747385 0.19556327 0.71220011
v -0.01244045 0.19443028 0.71220011
v -0.01552754 0.19362037 0.71239996
v -0.01725772 0.19273676 0.71220011
v -0.02247199 0.19036926 0.71239918
v -0.02186229 0.19049516 0.71220011
v -0.02618739 0.18773957 0.71220011
v -0.02877670 0.18597697 0.71239883
v -0.03017593 0.18450508 0.71220011
v -0.03425430 0.18055858 0.71239978
v -0.03377094 0.18082787 0.71220011
v -0.03692150 0.17675957 0.71220011
v -0.03872534 0.17428637 0.71240038
v -0.03958833 0.17235677 0.71220011
v -0.04206377 0.16734807 0.71240062
v -0.04173314 0.16767566 0.71220011
v -0.04332302 0.16277647 0.71220011
v -0.04416738 0.15993837 0.71240133
v -0.04434239 0.15772806 0.71220011
v -0.04497901 0.15228097 0.71240014
v -0.04477920 0.15260008 0.71220011
v -0.04462321 0.14746007 0.71220011
v -0.04448561 0.14461297 0.71240014
v -0.04387937 0.14237186 0.71220011
v -0.04269886 0.13714726 0.71239996
v -0.04256019 0.13740186 0.71220011
v -0.04067856 0.13261656 0.71220011
v -0.03966059 0.13008636 0.71239913
v -0.03825879 0.12808137 0.71220011
v -0.03545375 0.12363326 0.71239811
v -0.03533819 0.12385316 0.71220011
v -0.03151065 0.11954205 0.71220011
v -0.03021186 0.11799656 0.71239793
v -0.02659893 0.11534275 0.71220011
v -0.02409606 0.11334836 0.71239805
v -0.02114362 0.11189566 0.71220011
v -0.01728433 0.10981696 0.71239865
v -0.01525645 0.10927056 0.71220011
v -0.00997136 0.10750146 0.71240056
v -0.00835060 0.10738266 0.71220011
v -0.00526601 0.10670686 0.71240115
v -0.00049909 0.10660366 0.71220011
v -0.00049990 0.10640796 0.71240014
v 0.00913567 0.10417756 0.72350013
v 0.01253039 0.10506476 0.72332102
v 0.01249807 0.10517085 0.72350013
v 0.00329695 0.10283186 0.72335327
v 0.00648139 0.10340656 0.72334027
v 0.00432763 0.10304765 0.72350013
v 0.00049955 0.10270385 0.72350013
v 0.00049954 0.10265016 0.72336376
v -0.00365260 0.10294106 0.72350013
v -0.00050045 0.10264986 0.72336358
v -0.00050044 0.10270385 0.72350013
v -0.00417900 0.10295316 0.72334921
v -0.00731844 0.10369306 0.72350013
v -0.01249807 0.10517085 0.72350013
v -0.01252989 0.10506636 0.72332180
v -0.00838683 0.10387895 0.72333199
v 0.04418086 0.14403687 0.72350013
v 0.04454520 0.14775747 0.72330016
v 0.04434246 0.14775786 0.72350013
v 0.04400907 0.14097846 0.72329986
v 0.04370195 0.14034437 0.72350013
v 0.04225717 0.13382547 0.72330052
v 0.04215178 0.13410537 0.72350013
v 0.04004045 0.12881456 0.72350013
v 0.03944068 0.12721647 0.72329932
v 0.03802160 0.12504357 0.72350013
v 0.03631520 0.12211906 0.72330248
v 0.03564182 0.12147286 0.72350013
v 0.03262666 0.11781446 0.72350013
v 0.03194215 0.11685566 0.72330439
v 0.02848693 0.11384366 0.72350013
v 0.02693390 0.11240625 0.72330564
v 0.02357312 0.11024126 0.72350013
v 0.02243125 0.10937966 0.72330958
v 0.01883484 0.10762836 0.72350013
v 0.01737852 0.10682166 0.72331613
v 0.01249807 0.10517085 0.72350013
v 0.01253039 0.10506476 0.72332102
v 0.04454520 0.14775747 0.72330016
v 0.04451658 0.15139316 0.72330046
v 0.04430611 0.15138987 0.72350013
v 0.04434246 0.14775786 0.72350013
v 0.00412399 0.19550897 0.72350013
v 0.00045748 0.19591017 0.72330022
v 0.00045676 0.19571477 0.72348762
v 0.00768337 0.19523917 0.72330022
v 0.00820960 0.19493248 0.72350013
v 0.01344884 0.19361106 0.72350013
v 0.01447198 0.19349197 0.72330022
v 0.01849386 0.19165868 0.72350013
v 0.01922121 0.19154717 0.72330022
v 0.02326386 0.18910137 0.72350013
v 0.02405253 0.18885076 0.72330022
v 0.02768816 0.18598366 0.72350013
v 0.02986948 0.18440127 0.72330046
v 0.03169958 0.18235067 0.72350013
v 0.03468311 0.17929657 0.72330046
v 0.03539366 0.17804337 0.72350013
v 0.03814547 0.17433307 0.72330093
v 0.03924873 0.17194717 0.72350013
v 0.04067971 0.16946346 0.72330183
v 0.04211440 0.16516116 0.72350013
v 0.04242646 0.16485916 0.72330171
v 0.04353985 0.16064566 0.72330111
v 0.04373107 0.15849827 0.72350013
v 0.04432421 0.15547857 0.72330052
v 0.04430611 0.15138987 0.72350013
v 0.04451658 0.15139316 0.72330046
v 0.00000000 0.19570947 0.72349519
v 0.00015225 0.19571467 0.72348994
v 0.00030451 0.19571467 0.72348905
v -0.04420032 0.15429717 0.72350013
v -0.04451657 0.15139316 0.72330046
v -0.04430611 0.15138987 0.72350013
v -0.04395979 0.15838106 0.72330076
v -0.04377253 0.15823495 0.72350013
v -0.04264822 0.16340877 0.72350013
v -0.04234691 0.16510727 0.72330171
v -0.04115882 0.16779408 0.72350013
v -0.03970292 0.17151827 0.72330159
v -0.03904273 0.17233567 0.72350013
v -0.03642246 0.17661807 0.72350013
v -0.03584081 0.17779137 0.72330046
v -0.03333718 0.18057807 0.72350013
v -0.03099306 0.18334897 0.72330046
v -0.02933510 0.18459946 0.72350013
v -0.02634414 0.18727607 0.72330046
v -0.02423415 0.18848497 0.72350013
v -0.02216615 0.18999787 0.72330022
v -0.01862775 0.19159687 0.72350013
v -0.01770651 0.19223827 0.72330022
v -0.01263312 0.19386187 0.72350013
v -0.01124622 0.19446388 0.72330022
v -0.00638323 0.19523777 0.72350013
v -0.00605578 0.19549397 0.72330022
v -0.00054324 0.19571477 0.72348654
v -0.00054252 0.19590917 0.72330022
v 0.00000000 0.19570947 0.72349519
v -0.00018108 0.19571467 0.72348982
v -0.00036216 0.19571467 0.72348863
v -0.04430611 0.15138987 0.72350013
v -0.04451657 0.15139316 0.72330046
v -0.04454520 0.14775747 0.72330016
v -0.04434246 0.14775786 0.72350013
v -0.01495558 0.10599896 0.72350013
v -0.01252989 0.10506636 0.72332180
v -0.01249807 0.10517085 0.72350013
v -0.01960330 0.10784946 0.72331208
v -0.01787051 0.10718335 0.72350013
v -0.02261459 0.10965106 0.72350013
v -0.02591150 0.11164826 0.72330743
v -0.02642978 0.11220916 0.72350013
v -0.03004348 0.11521896 0.72350013
v -0.03169073 0.11659826 0.72330439
v -0.03331664 0.11858406 0.72350013
v -0.03631302 0.12211595 0.72330266
v -0.03621868 0.12227226 0.72350013
v -0.03874361 0.12629497 0.72350013
v -0.03935216 0.12704867 0.72329932
v -0.04112405 0.13128546 0.72350013
v -0.04210729 0.13338487 0.72330052
v -0.04265682 0.13575926 0.72350013
v -0.04394369 0.14057687 0.72329998
v -0.04370873 0.14038336 0.72350013
v -0.04444897 0.14487627 0.72330046
v -0.04434246 0.14775786 0.72350013
v -0.04454520 0.14775747 0.72330016
v 0.00049940 0.10681055 0.71265805
v -0.00049909 0.10679946 0.71220011
v 0.00050091 0.10679946 0.71220011
v -0.00050059 0.10681055 0.71265841
v 0.00049940 0.10681055 0.71265805
v 0.00050091 0.10679946 0.71220011
v 0.00050091 0.10660366 0.71220011
v 0.00050010 0.10640796 0.71240014
v 0.00049936 0.10641406 0.71266735
v -0.00050059 0.10681055 0.71265841
v -0.00049990 0.10640796 0.71240014
v -0.00049909 0.10660366 0.71220011
v -0.00049909 0.10679946 0.71220011
v -0.00050063 0.10641406 0.71266776
v -0.00050041 0.10668366 0.71675593
v -0.00050046 0.10621086 0.71693122
v -0.00050045 0.10643186 0.71459985
v -0.00050041 0.10684355 0.71459985
v -0.00050041 0.10621346 0.71865404
v -0.00050046 0.10569306 0.71880764
v -0.00050041 0.10551996 0.72027510
v -0.00050046 0.10494415 0.72044182
v -0.00050041 0.10459565 0.72177851
v -0.00050045 0.10395195 0.72194046
v -0.00050041 0.10388575 0.72267610
v -0.00050045 0.10332946 0.72267717
v -0.00050041 0.10309956 0.72350013
v -0.00050045 0.10264986 0.72336358
v -0.00050044 0.10270385 0.72350013
v 0.00049958 0.10681666 0.71551645
v 0.00049958 0.10684366 0.71459985
v 0.00049954 0.10643195 0.71459985
v 0.00049954 0.10632516 0.71620274
v 0.00049958 0.10672966 0.71643627
v 0.00049954 0.10601165 0.71780407
v 0.00049958 0.10641935 0.71798432
v 0.00049954 0.10547366 0.71936077
v 0.00049958 0.10589796 0.71947587
v 0.00049958 0.10516026 0.72091937
v 0.00049954 0.10472336 0.72082204
v 0.00049958 0.10421386 0.72228235
v 0.00049954 0.10377356 0.72216403
v 0.00049958 0.10309956 0.72350013
v 0.00049954 0.10265016 0.72336376
v 0.00049955 0.10270385 0.72350013
v 0.00049958 0.10681666 0.71551645
v -0.00050041 0.10684355 0.71459985
v 0.00049958 0.10684366 0.71459985
v -0.00050041 0.10668366 0.71675593
v 0.00049958 0.10672966 0.71643627
v 0.00049958 0.10641935 0.71798432
v -0.00050041 0.10621346 0.71865404
v 0.00049958 0.10589796 0.71947587
v -0.00050041 0.10551996 0.72027510
v 0.00049958 0.10516026 0.72091937
v -0.00050041 0.10459565 0.72177851
v 0.00049958 0.10421386 0.72228235
v -0.00050041 0.10388575 0.72267610
v 0.00049958 0.10309956 0.72350013
v -0.00050041 0.10309956 0.72350013
v -0.00050041 0.10684355 0.71459985
v -0.00050063 0.10641406 0.71266776
v -0.00050059 0.10681055 0.71265841
v -0.00050045 0.10643186 0.71459985
v 0.00049958 0.10684366 0.71459985
v 0.00049940 0.10681055 0.71265805
v 0.00049936 0.10641406 0.71266735
v 0.00049954 0.10643195 0.71459985
v -0.00050059 0.10681055 0.71265841
v 0.00049940 0.10681055 0.71265805
v 0.00030451 0.19571467 0.72348905
v 0.00045676 0.19571477 0.72348762
v 0.00049995 0.19619627 0.71220052
v 0.00015225 0.19571467 0.72348994
v 0.00000000 0.19570947 0.72349519
v -0.00049996 0.19619627 0.71220052
v -0.00018108 0.19571467 0.72348982
v -0.00036216 0.19571467 0.72348863
v -0.00054324 0.19571477 0.72348654
v -0.00054252 0.19590917 0.72330022
v -0.00054324 0.19571477 0.72348654
v -0.00049996 0.19619627 0.71220052
v -0.00050077 0.19638357 0.71240008
v 0.00049995 0.19619627 0.71220052
v 0.00045748 0.19591017 0.72330022
v 0.00049924 0.19638357 0.71240008
v 0.00045676 0.19571477 0.72348762
v -0.00049958 0.08110011 0.81845069
v -0.00049955 0.08110011 0.81884640
v -0.00432763 0.08110011 0.81850255
v -0.00913567 0.08110011 0.81737268
v -0.01249807 0.08110011 0.81637931
v -0.04434246 0.08110011 0.77379245
v -0.04215178 0.08110011 0.78744495
v -0.04370195 0.08110011 0.78120589
v -0.04418086 0.08110011 0.77751344
v 0.00365260 0.08110011 0.81860924
v 0.00050044 0.08110011 0.81884640
v 0.00050041 0.08110011 0.81845069
v 0.00731844 0.08110011 0.81785721
v 0.01249807 0.08110011 0.81637931
v 0.01495558 0.08110011 0.81555122
v -0.01883484 0.08110011 0.81392193
v 0.01787051 0.08110011 0.81436694
v 0.02261459 0.08110011 0.81189919
v -0.02357312 0.08110011 0.81130892
v -0.03924873 0.08110011 0.74960309
v -0.04373107 0.08110011 0.76305205
v -0.04211440 0.08110011 0.75638914
v 0.02642978 0.08110011 0.80934101
v -0.02848693 0.08110011 0.80770653
v 0.03004348 0.08110011 0.80633122
v -0.03262666 0.08110011 0.80373579
v 0.03331664 0.08110011 0.80296636
v -0.03564182 0.08110011 0.80007756
v -0.02768816 0.08110011 0.73556662
v -0.03539366 0.08110011 0.74350691
v -0.03169958 0.08110011 0.73919958
v 0.03621868 0.08110011 0.79927808
v -0.03802160 0.08110011 0.79650676
v 0.03874361 0.08110011 0.79525524
v -0.04004045 0.08110011 0.79273576
v -0.02326386 0.08110011 0.73244894
v 0.04112405 0.08110011 0.79026479
v -0.01344884 0.08110011 0.72793925
v -0.01849386 0.08110011 0.72989166
v -0.00820960 0.08110011 0.72661793
v 0.04434246 0.08110011 0.77379245
v 0.04370873 0.08110011 0.78116685
v 0.04265682 0.08110011 0.78579104
v -0.04430611 0.08110011 0.77016044
v 0.04430611 0.08110011 0.77016044
v 0.04420032 0.08110011 0.76725316
v 0.00638323 0.08110011 0.72631252
v -0.00412399 0.08110011 0.72604138
v 0.00000000 0.08110504 0.72584087
v 0.04264822 0.08110011 0.75814146
v 0.04377253 0.08110011 0.76331532
v 0.04115882 0.08110011 0.75375628
v 0.03904273 0.08110011 0.74921453
v 0.02423415 0.08110011 0.73306537
v 0.01263312 0.08110011 0.72768843
v 0.01862775 0.08110011 0.72995347
v 0.03642246 0.08110011 0.74493223
v 0.02933510 0.08110011 0.73695081
v 0.03333718 0.08110011 0.74097228
v 0.00605578 0.08129997 0.72605634
v 0.00050077 0.09220030 0.72516674
v 0.00813154 0.09220058 0.72590822
v 0.00054252 0.08129994 0.72564113
v 0.01124622 0.08129995 0.72708637
v 0.02634414 0.08129991 0.73427415
v 0.02247199 0.09220093 0.73118109
v 0.02877670 0.09220149 0.73557335
v 0.02216615 0.08129994 0.73155248
v 0.03584081 0.08129981 0.74375892
v 0.03425430 0.09220050 0.74099159
v 0.03872534 0.09219989 0.74726397
v 0.03970292 0.08129867 0.75003195
v 0.04394369 0.08130033 0.78097337
v 0.04444897 0.08129992 0.77667391
v 0.04448561 0.09220011 0.77693737
v 0.04269886 0.09220041 0.78440303
v 0.03631302 0.08129770 0.79943436
v 0.03966059 0.09220108 0.79146385
v 0.03545375 0.09220207 0.79791689
v 0.03935216 0.08130095 0.79450172
v 0.00050063 0.09193262 0.81513625
v 0.00526601 0.09219921 0.81484336
v 0.00049990 0.09220018 0.81514233
v 0.00050045 0.09000049 0.81511843
v 0.00838683 0.08126827 0.81767136
v 0.00997136 0.09219974 0.81404889
v 0.01252989 0.08127832 0.81648386
v 0.00050046 0.08766907 0.81533933
v 0.00050046 0.08579268 0.81585717
v 0.00417900 0.08125107 0.81859702
v 0.00050046 0.08415835 0.81660604
v 0.00050045 0.08265986 0.81759822
v 0.00050045 0.08192315 0.81822085
v 0.00050045 0.08123676 0.81890035
v 0.01732101 0.08963020 0.72876024
v 0.01552754 0.09220043 0.72792989
v 0.01739262 0.08682524 0.72892499
v 0.01770651 0.08129994 0.72931206
v 0.03189292 0.08961082 0.73858809
v 0.03196815 0.08680350 0.73884022
v 0.03099306 0.08129987 0.73820120
v 0.04159021 0.08959555 0.75331384
v 0.04206377 0.09219972 0.75420225
v 0.04416738 0.09219893 0.76161194
v 0.04160006 0.08678650 0.75367028
v 0.04395979 0.08129947 0.76316917
v 0.04234691 0.08129849 0.75644290
v 0.04489321 0.08961795 0.77069473
v 0.04497901 0.09220020 0.76926929
v 0.04478480 0.08681878 0.77118963
v 0.04454520 0.08130017 0.77379280
v 0.04451657 0.08129985 0.77015716
v 0.04155996 0.08958220 0.78796059
v 0.04154792 0.08677680 0.78854746
v 0.04210729 0.08129970 0.78816545
v 0.03190349 0.08948652 0.80254418
v 0.03021186 0.09220228 0.80355376
v 0.03195303 0.08665627 0.80318642
v 0.02409606 0.09220218 0.80820197
v 0.02591150 0.08129278 0.80990195
v 0.03169073 0.08129580 0.80495209
v 0.01732740 0.08930230 0.81220371
v 0.01728433 0.09220166 0.81173325
v 0.01737031 0.08640011 0.81288463
v 0.01960330 0.08128814 0.81370097
v -0.00813228 0.09220034 0.81442124
v -0.00049954 0.09000049 0.81511843
v -0.00049936 0.09193290 0.81513625
v -0.00050010 0.09220017 0.81514233
v -0.00329695 0.08124697 0.81871837
v -0.00049954 0.08123649 0.81890005
v -0.00049954 0.08243618 0.81777674
v -0.00049954 0.08377831 0.81682694
v -0.00049954 0.08523954 0.81607664
v -0.01737852 0.08128417 0.81472862
v -0.01513747 0.09220131 0.81255782
v -0.02036153 0.09220209 0.81031972
v -0.01253039 0.08127920 0.81648546
v -0.02243125 0.08129058 0.81217051
v -0.03631520 0.08129779 0.79943126
v -0.03194215 0.08129586 0.80469471
v -0.03200975 0.09220230 0.80183363
v -0.03631981 0.09220212 0.79677004
v -0.03944068 0.08130100 0.79433382
v -0.03964306 0.09220211 0.79149377
v -0.04400907 0.08130050 0.78057176
v -0.04367000 0.09220060 0.78103125
v -0.04459829 0.09220023 0.77611953
v -0.04432421 0.08129977 0.76607162
v -0.04483285 0.09220044 0.76646417
v -0.04361433 0.09220035 0.75914121
v -0.04353985 0.08129917 0.76090461
v -0.03814547 0.08129934 0.74721712
v -0.03970886 0.09220031 0.74901336
v -0.03710520 0.09220031 0.74472088
v -0.03468311 0.08129989 0.74225366
v -0.02405253 0.08129994 0.73269945
v -0.02986948 0.08129986 0.73714900
v -0.02716959 0.09220030 0.73429859
v -0.02205794 0.09220045 0.73094612
v -0.00768337 0.08129997 0.72631103
v -0.01233398 0.09220066 0.72689164
v -0.00800716 0.09220045 0.72588736
v -0.00395601 0.09220035 0.72534138
v -0.01447198 0.08129995 0.72805834
v -0.00045748 0.08129993 0.72564012
v -0.00049924 0.09220030 0.72516674
v -0.00882465 0.08921280 0.81460249
v -0.00049954 0.08679618 0.81553859
v -0.00049954 0.08839750 0.81522524
v -0.00883014 0.08628124 0.81525815
v -0.00648139 0.08126013 0.81814367
v -0.02511318 0.08940786 0.80811703
v -0.02665044 0.09220251 0.80645645
v -0.02516869 0.08655175 0.80878663
v -0.02693390 0.08129457 0.80914396
v -0.04155996 0.08958220 0.78796059
v -0.04205974 0.09220156 0.78619617
v -0.04154792 0.08677680 0.78854746
v -0.04225717 0.08129974 0.78772485
v -0.04489321 0.08961795 0.77069473
v -0.04496870 0.09220021 0.77154493
v -0.04478480 0.08681878 0.77118963
v -0.04451658 0.08129985 0.77015716
v -0.04454520 0.08130017 0.77379280
v -0.04159021 0.08959555 0.75331384
v -0.04165688 0.09220032 0.75316763
v -0.04160006 0.08678650 0.75367028
v -0.04067971 0.08129840 0.75208670
v -0.04242646 0.08129850 0.75669116
v -0.03189292 0.08961082 0.73858809
v -0.03257791 0.09220030 0.73912799
v -0.03196815 0.08680350 0.73884022
v -0.01732101 0.08963020 0.72876024
v -0.01705741 0.09220091 0.72852474
v -0.01739262 0.08682524 0.72892499
v -0.01922121 0.08129994 0.73000312
v -0.00365696 0.09240011 0.81479734
v -0.00050010 0.09220017 0.81514233
v -0.00050091 0.09240011 0.81494665
v -0.00813228 0.09220034 0.81442124
v -0.00680746 0.09240011 0.81443024
v -0.01234264 0.09240011 0.81322205
v -0.01513747 0.09220131 0.81255782
v -0.01768759 0.09240011 0.81131893
v -0.02036153 0.09220209 0.81031972
v -0.02274845 0.09240011 0.80875212
v -0.02665044 0.09220251 0.80645645
v -0.02745080 0.09240011 0.80556381
v -0.03200975 0.09220230 0.80183363
v -0.03171778 0.09240011 0.80180204
v -0.03547390 0.09240011 0.79752195
v -0.03631981 0.09220212 0.79677004
v -0.03865925 0.09240011 0.79279894
v -0.03964306 0.09220211 0.79149377
v -0.04122194 0.09240011 0.78770882
v -0.04205974 0.09220156 0.78619617
v -0.04311340 0.09240011 0.78233153
v -0.04367000 0.09220060 0.78103125
v -0.04430737 0.09240011 0.77675766
v -0.04459829 0.09220023 0.77611953
v -0.04478676 0.09240011 0.77107757
v -0.04496870 0.09220021 0.77154493
v -0.04483285 0.09220044 0.76646417
v -0.04453780 0.09240011 0.76537985
v -0.04361433 0.09220035 0.75914121
v -0.04356824 0.09240011 0.75975412
v -0.04189450 0.09240011 0.75429499
v -0.04165688 0.09220032 0.75316763
v -0.03952123 0.09240011 0.74906737
v -0.03970886 0.09220031 0.74901336
v -0.03710520 0.09220031 0.74472088
v -0.03648092 0.09240011 0.74416071
v -0.03257791 0.09220030 0.73912799
v -0.03283919 0.09240010 0.73968518
v -0.02865192 0.09240010 0.73571885
v -0.02716959 0.09220030 0.73429859
v -0.02235915 0.09240010 0.73133743
v -0.02205794 0.09220045 0.73094612
v -0.01705741 0.09220091 0.72852474
v -0.01542829 0.09240010 0.72809696
v -0.01233398 0.09220066 0.72689164
v -0.00807622 0.09240010 0.72609311
v -0.00800716 0.09220045 0.72588736
v -0.00395601 0.09220035 0.72534138
v -0.00049995 0.09239973 0.72535402
v -0.00049924 0.09220030 0.72516674
v 0.00399914 0.09240010 0.72553641
v 0.00050077 0.09220030 0.72516674
v 0.00049996 0.09239973 0.72535402
v 0.00813154 0.09220058 0.72590822
v 0.00747385 0.09240010 0.72598702
v 0.01244045 0.09240010 0.72711992
v 0.01552754 0.09220043 0.72792989
v 0.01725772 0.09240010 0.72881347
v 0.02247199 0.09220093 0.73118109
v 0.02186229 0.09240010 0.73105502
v 0.02618739 0.09240010 0.73381066
v 0.02877670 0.09220149 0.73557335
v 0.03017593 0.09240010 0.73704517
v 0.03425430 0.09220050 0.74099159
v 0.03377094 0.09240011 0.74072242
v 0.03692150 0.09240011 0.74479073
v 0.03872534 0.09219989 0.74726397
v 0.03958833 0.09240011 0.74919343
v 0.04206377 0.09219972 0.75420225
v 0.04173314 0.09240011 0.75387460
v 0.04332302 0.09240011 0.75877386
v 0.04416738 0.09219893 0.76161194
v 0.04434239 0.09240011 0.76382226
v 0.04497901 0.09220020 0.76926929
v 0.04477920 0.09240011 0.76895034
v 0.04462321 0.09240011 0.77409023
v 0.04448561 0.09220011 0.77693737
v 0.04387937 0.09240011 0.77917832
v 0.04269886 0.09220041 0.78440303
v 0.04256019 0.09240011 0.78414840
v 0.04067856 0.09240011 0.78893375
v 0.03966059 0.09220108 0.79146385
v 0.03825879 0.09240011 0.79346883
v 0.03545375 0.09220207 0.79791689
v 0.03533819 0.09240011 0.79769713
v 0.03151065 0.09240011 0.80200815
v 0.03021186 0.09220228 0.80355376
v 0.02659893 0.09240011 0.80620754
v 0.02409606 0.09220218 0.80820197
v 0.02114362 0.09240011 0.80965465
v 0.01728433 0.09220166 0.81173325
v 0.01525645 0.09240011 0.81227964
v 0.00997136 0.09219974 0.81404889
v 0.00835060 0.09240011 0.81416762
v 0.00526601 0.09219921 0.81484336
v 0.00049909 0.09240011 0.81494665
v 0.00049990 0.09220018 0.81514233
v -0.00913567 0.08110011 0.81737268
v -0.01253039 0.08127920 0.81648546
v -0.01249807 0.08110011 0.81637931
v -0.00329695 0.08124697 0.81871837
v -0.00648139 0.08126013 0.81814367
v -0.00432763 0.08110011 0.81850255
v -0.00049955 0.08110011 0.81884640
v -0.00049954 0.08123649 0.81890005
v 0.00365260 0.08110011 0.81860924
v 0.00050045 0.08123676 0.81890035
v 0.00050044 0.08110011 0.81884640
v 0.00417900 0.08125107 0.81859702
v 0.00731844 0.08110011 0.81785721
v 0.01249807 0.08110011 0.81637931
v 0.01252989 0.08127832 0.81648386
v 0.00838683 0.08126827 0.81767136
v -0.04418086 0.08110011 0.77751344
v -0.04454520 0.08130017 0.77379280
v -0.04434246 0.08110011 0.77379245
v -0.04400907 0.08130050 0.78057176
v -0.04370195 0.08110011 0.78120589
v -0.04225717 0.08129974 0.78772485
v -0.04215178 0.08110011 0.78744495
v -0.04004045 0.08110011 0.79273576
v -0.03944068 0.08130100 0.79433382
v -0.03802160 0.08110011 0.79650676
v -0.03631520 0.08129779 0.79943126
v -0.03564182 0.08110011 0.80007756
v -0.03262666 0.08110011 0.80373579
v -0.03194215 0.08129586 0.80469471
v -0.02848693 0.08110011 0.80770653
v -0.02693390 0.08129457 0.80914396
v -0.02357312 0.08110011 0.81130892
v -0.02243125 0.08129058 0.81217051
v -0.01883484 0.08110011 0.81392193
v -0.01737852 0.08128417 0.81472862
v -0.01249807 0.08110011 0.81637931
v -0.01253039 0.08127920 0.81648546
v -0.04454520 0.08130017 0.77379280
v -0.04451658 0.08129985 0.77015716
v -0.04430611 0.08110011 0.77016044
v -0.04434246 0.08110011 0.77379245
v -0.00412399 0.08110011 0.72604138
v -0.00045748 0.08129993 0.72564012
v -0.00045676 0.08111262 0.72583556
v -0.00768337 0.08129997 0.72631103
v -0.00820960 0.08110011 0.72661793
v -0.01344884 0.08110011 0.72793925
v -0.01447198 0.08129995 0.72805834
v -0.01849386 0.08110011 0.72989166
v -0.01922121 0.08129994 0.73000312
v -0.02326386 0.08110011 0.73244894
v -0.02405253 0.08129994 0.73269945
v -0.02768816 0.08110011 0.73556662
v -0.02986948 0.08129986 0.73714900
v -0.03169958 0.08110011 0.73919958
v -0.03468311 0.08129989 0.74225366
v -0.03539366 0.08110011 0.74350691
v -0.03814547 0.08129934 0.74721712
v -0.03924873 0.08110011 0.74960309
v -0.04067971 0.08129840 0.75208670
v -0.04211440 0.08110011 0.75638914
v -0.04242646 0.08129850 0.75669116
v -0.04353985 0.08129917 0.76090461
v -0.04373107 0.08110011 0.76305205
v -0.04432421 0.08129977 0.76607162
v -0.04430611 0.08110011 0.77016044
v -0.04451658 0.08129985 0.77015716
v 0.00000000 0.08110504 0.72584087
v -0.00015225 0.08111031 0.72583556
v -0.00030451 0.08111121 0.72583556
v 0.04420032 0.08110011 0.76725316
v 0.04451657 0.08129985 0.77015716
v 0.04430611 0.08110011 0.77016044
v 0.04395979 0.08129947 0.76316917
v 0.04377253 0.08110011 0.76331532
v 0.04264822 0.08110011 0.75814146
v 0.04234691 0.08129849 0.75644290
v 0.04115882 0.08110011 0.75375628
v 0.03970292 0.08129867 0.75003195
v 0.03904273 0.08110011 0.74921453
v 0.03642246 0.08110011 0.74493223
v 0.03584081 0.08129981 0.74375892
v 0.03333718 0.08110011 0.74097228
v 0.03099306 0.08129987 0.73820120
v 0.02933510 0.08110011 0.73695081
v 0.02634414 0.08129991 0.73427415
v 0.02423415 0.08110011 0.73306537
v 0.02216615 0.08129994 0.73155248
v 0.01862775 0.08110011 0.72995347
v 0.01770651 0.08129994 0.72931206
v 0.01263312 0.08110011 0.72768843
v 0.01124622 0.08129995 0.72708637
v 0.00638323 0.08110011 0.72631252
v 0.00605578 0.08129997 0.72605634
v 0.00054324 0.08111366 0.72583544
v 0.00054252 0.08129994 0.72564113
v 0.00000000 0.08110504 0.72584087
v 0.00018108 0.08111044 0.72583556
v 0.00036216 0.08111168 0.72583556
v 0.04430611 0.08110011 0.77016044
v 0.04451657 0.08129985 0.77015716
v 0.04454520 0.08130017 0.77379280
v 0.04434246 0.08110011 0.77379245
v 0.01495558 0.08110011 0.81555122
v 0.01252989 0.08127832 0.81648386
v 0.01249807 0.08110011 0.81637931
v 0.01960330 0.08128814 0.81370097
v 0.01787051 0.08110011 0.81436694
v 0.02261459 0.08110011 0.81189919
v 0.02591150 0.08129278 0.80990195
v 0.02642978 0.08110011 0.80934101
v 0.03004348 0.08110011 0.80633122
v 0.03169073 0.08129580 0.80495209
v 0.03331664 0.08110011 0.80296636
v 0.03631302 0.08129770 0.79943436
v 0.03621868 0.08110011 0.79927808
v 0.03874361 0.08110011 0.79525524
v 0.03935216 0.08130095 0.79450172
v 0.04112405 0.08110011 0.79026479
v 0.04210729 0.08129970 0.78816545
v 0.04265682 0.08110011 0.78579104
v 0.04394369 0.08130033 0.78097337
v 0.04370873 0.08110011 0.78116685
v 0.04444897 0.08129992 0.77667391
v 0.04434246 0.08110011 0.77379245
v 0.04454520 0.08130017 0.77379280
v -0.00049940 0.09194215 0.81473970
v 0.00049909 0.09240011 0.81475073
v -0.00050091 0.09240011 0.81475073
v 0.00050059 0.09194188 0.81473970
v -0.00049940 0.09194215 0.81473970
v -0.00050091 0.09240011 0.81475073
v -0.00050091 0.09240011 0.81494665
v -0.00050010 0.09220017 0.81514233
v -0.00049936 0.09193290 0.81513625
v 0.00050059 0.09194188 0.81473970
v 0.00049990 0.09220018 0.81514233
v 0.00049909 0.09240011 0.81494665
v 0.00049909 0.09240011 0.81475073
v 0.00050063 0.09193262 0.81513625
v 0.00050041 0.08784433 0.81486660
v 0.00050046 0.08766907 0.81533933
v 0.00050045 0.09000049 0.81511843
v 0.00050041 0.09000049 0.81470662
v 0.00050041 0.08594619 0.81533670
v 0.00050046 0.08579268 0.81585717
v 0.00050041 0.08432513 0.81603032
v 0.00050046 0.08415835 0.81660604
v 0.00050041 0.08282170 0.81695473
v 0.00050045 0.08265986 0.81759822
v 0.00050041 0.08192416 0.81766450
v 0.00050045 0.08192315 0.81822085
v 0.00050041 0.08110011 0.81845069
v 0.00050045 0.08123676 0.81890035
v 0.00050044 0.08110011 0.81884640
v -0.00049958 0.08908384 0.81473362
v -0.00049958 0.09000049 0.81470662
v -0.00049954 0.09000049 0.81511843
v -0.00049954 0.08839750 0.81522524
v -0.00049958 0.08816396 0.81482053
v -0.00049954 0.08679618 0.81553859
v -0.00049958 0.08661596 0.81513095
v -0.00049954 0.08523954 0.81607664
v -0.00049958 0.08512449 0.81565231
v -0.00049958 0.08368091 0.81639004
v -0.00049954 0.08377831 0.81682694
v -0.00049958 0.08231788 0.81733644
v -0.00049954 0.08243618 0.81777674
v -0.00049958 0.08110011 0.81845069
v -0.00049954 0.08123649 0.81890005
v -0.00049955 0.08110011 0.81884640
v -0.00049958 0.08908384 0.81473362
v 0.00050041 0.09000049 0.81470662
v -0.00049958 0.09000049 0.81470662
v 0.00050041 0.08784433 0.81486660
v -0.00049958 0.08816396 0.81482053
v -0.00049958 0.08661596 0.81513095
v 0.00050041 0.08594619 0.81533670
v -0.00049958 0.08512449 0.81565231
v 0.00050041 0.08432513 0.81603032
v -0.00049958 0.08368091 0.81639004
v 0.00050041 0.08282170 0.81695473
v -0.00049958 0.08231788 0.81733644
v 0.00050041 0.08192416 0.81766450
v -0.00049958 0.08110011 0.81845069
v 0.00050041 0.08110011 0.81845069
v 0.00050041 0.09000049 0.81470662
v 0.00050063 0.09193262 0.81513625
v 0.00050059 0.09194188 0.81473970
v 0.00050045 0.09000049 0.81511843
v -0.00049958 0.09000049 0.81470662
v -0.00049940 0.09194215 0.81473970
v -0.00049936 0.09193290 0.81513625
v -0.00049954 0.09000049 0.81511843
v -0.00049958 0.09000049 0.81470662
v 0.00050059 0.09194188 0.81473970
v -0.00049940 0.09194215 0.81473970
v 0.00050041 0.09000049 0.81470662
v -0.00030451 0.08111121 0.72583556
v -0.00045676 0.08111262 0.72583556
v -0.00049995 0.09239973 0.72535402
v -0.00015225 0.08111031 0.72583556
v 0.00000000 0.08110504 0.72584087
v 0.00049996 0.09239973 0.72535402
v 0.00018108 0.08111044 0.72583556
v 0.00036216 0.08111168 0.72583556
v 0.00054324 0.08111366 0.72583544
v 0.00054252 0.08129994 0.72564113
v 0.00054324 0.08111366 0.72583544
v 0.00049996 0.09239973 0.72535402
v 0.00050077 0.09220030 0.72516674
v -0.00049995 0.09239973 0.72535402
v -0.00045748 0.08129993 0.72564012
v -0.00049924 0.09220030 0.72516674
v -0.00045676 0.08111262 0.72583556
f 1 2 3
f 4 1 3
f 4 3 5
f 4 5 6
f 7 2 1
f 7 8 9
f 7 9 2
f 10 4 6
f 10 6 11
f 10 11 12
f 13 8 7
f 13 14 8
f 15 10 12
f 15 12 16
f 17 18 19
f 20 14 13
f 20 19 21
f 20 21 14
f 22 15 16
f 22 16 23
f 22 23 24
f 25 26 27
f 28 19 20
f 28 17 19
f 28 27 17
f 28 25 27
f 29 22 24
f 29 24 30
f 31 29 30
f 32 25 28
f 32 33 34
f 32 34 25
f 35 29 31
f 36 35 31
f 37 38 39
f 37 39 33
f 37 33 32
f 40 35 36
f 41 40 36
f 42 43 38
f 42 38 37
f 44 40 41
f 45 43 42
f 46 44 41
f 47 48 45
f 47 45 42
f 49 44 46
f 50 49 46
f 51 48 47
f 52 51 47
f 53 49 50
f 54 53 50
f 55 51 52
f 56 55 52
f 57 53 54
f 58 56 52
f 59 53 57
f 60 56 58
f 61 59 57
f 62 60 58
f 63 59 61
f 64 60 62
f 65 63 61
f 66 63 65
f 67 64 62
f 67 62 68
f 69 66 65
f 70 66 69
f 71 66 70
f 72 67 68
f 72 68 73
f 74 72 73
f 75 71 70
f 76 74 73
f 76 73 77
f 78 71 75
f 78 79 71
f 80 76 77
f 81 80 77
f 81 77 82
f 83 79 78
f 83 84 79
f 85 81 82
f 86 84 83
f 86 87 84
f 88 85 82
f 88 82 89
f 90 87 86
f 90 91 87
f 92 88 89
f 92 89 93
f 94 92 93
f 95 91 90
f 95 94 93
f 95 93 91
f 96 97 98
f 96 99 97
f 100 96 98
f 101 102 103
f 101 104 102
f 105 106 107
f 108 105 107
f 109 110 111
f 109 111 112
f 113 114 115
f 113 116 114
f 117 118 119
f 120 118 117
f 121 122 118
f 121 123 122
f 124 118 120
f 125 121 118
f 125 118 124
f 126 121 125
f 127 126 125
f 128 126 127
f 129 126 128
f 130 126 129
f 131 132 102
f 133 98 132
f 133 104 134
f 133 134 100
f 133 132 131
f 133 131 102
f 133 100 98
f 133 102 104
f 135 103 106
f 136 103 135
f 136 135 106
f 136 105 137
f 136 137 101
f 136 101 103
f 136 106 105
f 138 107 139
f 138 139 140
f 141 138 140
f 141 142 143
f 141 143 108
f 141 107 138
f 141 108 107
f 141 140 142
f 144 140 145
f 144 145 111
f 146 144 111
f 146 111 110
f 146 110 147
f 146 147 148
f 146 148 142
f 146 142 140
f 146 140 144
f 149 112 114
f 150 109 112
f 150 114 116
f 150 116 151
f 150 151 109
f 150 112 149
f 150 149 114
f 152 115 153
f 154 153 155
f 154 113 115
f 154 155 156
f 154 156 157
f 154 157 113
f 154 152 153
f 154 115 152
f 158 155 159
f 158 159 122
f 160 156 155
f 160 155 158
f 160 123 161
f 160 161 156
f 160 122 123
f 160 158 122
f 162 163 164
f 162 164 165
f 166 167 168
f 166 168 169
f 166 169 170
f 171 172 173
f 171 174 172
f 175 171 173
f 176 177 178
f 176 178 179
f 180 176 179
f 180 179 181
f 182 183 184
f 185 186 187
f 188 185 187
f 189 190 191
f 192 189 191
f 193 194 195
f 193 195 196
f 197 198 199
f 197 199 200
f 197 201 198
f 202 197 200
f 202 200 203
f 204 205 206
f 204 206 163
f 204 162 172
f 204 163 162
f 207 174 208
f 207 208 166
f 207 170 205
f 207 204 172
f 207 205 204
f 207 166 170
f 207 172 174
f 209 173 210
f 211 178 177
f 211 177 212
f 211 212 175
f 211 210 178
f 211 175 173
f 211 209 210
f 211 173 209
f 213 181 214
f 213 214 183
f 215 180 181
f 215 182 216
f 215 216 180
f 215 183 182
f 215 213 183
f 215 181 213
f 217 184 218
f 217 218 186
f 219 185 220
f 219 220 221
f 219 221 182
f 219 182 184
f 219 184 217
f 219 186 185
f 219 217 186
f 222 187 223
f 222 223 190
f 224 189 225
f 224 225 226
f 224 226 188
f 224 187 222
f 224 188 187
f 224 190 189
f 224 222 190
f 227 191 228
f 227 228 195
f 229 194 192
f 229 195 194
f 229 192 191
f 229 227 195
f 229 191 227
f 230 196 231
f 230 231 198
f 232 201 233
f 232 196 230
f 232 233 193
f 232 230 198
f 232 193 196
f 232 198 201
f 234 235 236
f 237 234 238
f 237 235 234
f 239 237 238
f 240 237 239
f 241 240 239
f 242 240 241
f 243 242 241
f 244 242 243
f 245 244 243
f 246 244 245
f 247 246 245
f 248 246 247
f 249 246 248
f 250 249 248
f 251 249 250
f 252 251 250
f 253 251 252
f 254 253 252
f 255 253 254
f 256 255 254
f 257 255 256
f 258 257 256
f 258 259 257
f 260 259 258
f 261 260 258
f 262 260 261
f 262 261 263
f 264 262 263
f 265 262 264
f 266 265 264
f 266 267 265
f 268 267 266
f 269 268 266
f 270 268 269
f 270 269 271
f 272 270 271
f 273 270 272
f 274 273 272
f 275 273 274
f 276 275 274
f 277 276 274
f 278 276 277
f 279 280 278
f 279 278 277
f 281 280 279
f 282 283 281
f 282 281 279
f 284 285 286
f 287 284 288
f 287 285 284
f 289 287 288
f 290 287 289
f 291 290 289
f 292 291 293
f 292 290 291
f 294 292 293
f 295 292 294
f 296 295 294
f 297 296 298
f 297 295 296
f 299 297 298
f 300 297 299
f 301 300 299
f 302 301 303
f 302 300 301
f 304 302 303
f 305 302 304
f 306 305 304
f 307 306 308
f 307 305 306
f 309 307 308
f 310 307 309
f 311 310 309
f 312 310 311
f 313 312 311
f 314 312 313
f 315 312 314
f 316 315 314
f 317 315 316
f 318 317 316
f 319 317 318
f 320 317 319
f 321 320 319
f 322 320 321
f 323 322 321
f 324 322 323
f 325 324 323
f 326 324 325
f 327 326 325
f 328 326 327
f 329 328 327
f 329 330 328
f 331 332 333
f 334 335 336
f 337 338 334
f 337 334 336
f 331 336 335
f 335 332 331
f 339 340 341
f 342 340 339
f 343 342 339
f 344 345 346
f 346 342 343
f 343 344 346
f 347 348 349
f 350 348 347
f 351 350 347
f 352 350 351
f 353 352 351
f 354 352 353
f 355 352 354
f 356 355 354
f 357 355 356
f 358 357 356
f 359 357 358
f 360 357 359
f 361 360 359
f 362 360 361
f 363 362 361
f 364 362 363
f 365 364 363
f 366 364 365
f 367 368 366
f 367 366 365
f 369 370 371
f 372 369 371
f 373 374 375
f 376 374 373
f 377 376 373
f 378 376 377
f 379 376 378
f 380 379 378
f 381 379 380
f 382 381 380
f 383 381 382
f 384 383 382
f 385 383 384
f 386 385 384
f 387 385 386
f 388 387 386
f 389 387 388
f 390 389 388
f 391 389 390
f 392 391 390
f 393 391 392
f 394 393 392
f 395 394 392
f 396 394 395
f 397 398 396
f 397 396 395
f 399 373 400
f 400 373 401
f 401 373 375
f 402 403 404
f 405 403 402
f 406 405 402
f 407 405 406
f 408 405 407
f 409 408 407
f 410 408 409
f 411 410 409
f 412 410 411
f 413 410 412
f 414 413 412
f 415 413 414
f 416 415 414
f 417 415 416
f 418 417 416
f 419 417 418
f 420 419 418
f 421 419 420
f 422 421 420
f 423 421 422
f 424 423 422
f 425 423 424
f 426 427 425
f 426 425 424
f 424 428 429
f 424 429 430
f 424 430 426
f 431 432 433
f 431 433 434
f 435 436 437
f 438 435 439
f 438 436 435
f 440 438 439
f 441 438 440
f 442 441 440
f 443 441 442
f 444 441 443
f 445 444 443
f 446 444 445
f 447 446 445
f 448 446 447
f 449 446 448
f 450 449 448
f 451 449 450
f 452 451 450
f 453 451 452
f 454 453 452
f 455 453 454
f 456 457 455
f 456 455 454
f 458 459 460
f 458 461 459
f 462 463 464
f 465 462 464
f 466 462 465
f 467 468 469
f 467 469 470
f 467 471 468
f 472 473 474
f 472 474 475
f 476 477 473
f 476 473 472
f 478 479 477
f 478 477 476
f 480 479 478
f 481 479 480
f 482 483 481
f 482 481 480
f 484 485 483
f 484 483 482
f 486 485 484
f 487 488 489
f 490 491 487
f 490 487 489
f 492 493 491
f 492 491 490
f 494 495 493
f 494 493 492
f 496 495 494
f 497 496 494
f 498 496 497
f 499 498 497
f 500 498 499
f 501 502 500
f 501 500 499
f 503 504 505
f 506 504 503
f 507 506 503
f 508 509 506
f 508 506 507
f 510 511 509
f 510 509 508
f 512 511 510
f 513 511 512
f 514 515 513
f 514 513 512
f 516 517 515
f 516 515 514
f 518 519 520
f 518 521 519
f 522 523 524
f 525 522 524
f 505 526 527
f 505 504 526
f 528 529 530
f 531 528 530
f 532 530 533
f 532 531 530
f 534 532 533
f 535 534 533
f 536 535 533
f 537 538 539
f 537 539 540
f 541 542 543
f 541 544 542
f 545 546 547
f 545 547 548
f 545 548 549
f 550 551 552
f 550 552 553
f 554 555 556
f 557 554 556
f 558 557 556
f 558 556 545
f 558 545 549
f 559 558 549
f 559 549 560
f 561 559 560
f 562 561 560
f 562 560 563
f 564 565 566
f 567 563 568
f 567 562 563
f 569 568 570
f 569 567 568
f 571 570 572
f 571 569 570
f 573 574 575
f 576 572 577
f 576 571 572
f 578 577 579
f 578 576 577
f 580 574 573
f 581 579 551
f 581 578 579
f 582 580 583
f 584 574 580
f 584 580 582
f 585 586 587
f 585 587 581
f 585 581 551
f 585 550 588
f 585 551 550
f 589 585 588
f 590 565 564
f 590 574 584
f 590 588 565
f 590 564 574
f 590 589 588
f 591 590 584
f 591 584 592
f 591 592 593
f 594 595 590
f 596 594 590
f 597 596 590
f 598 591 599
f 598 599 600
f 598 590 591
f 601 590 598
f 601 597 590
f 602 603 601
f 602 601 598
f 604 605 606
f 604 607 605
f 608 604 606
f 609 610 611
f 609 612 610
f 613 614 615
f 616 613 615
f 617 618 619
f 617 619 620
f 621 622 623
f 621 624 622
f 625 626 627
f 628 626 625
f 629 630 626
f 629 631 630
f 632 626 628
f 633 629 626
f 633 626 632
f 634 629 633
f 635 634 633
f 636 634 635
f 637 634 636
f 638 634 637
f 639 640 610
f 641 606 640
f 641 612 642
f 641 642 608
f 641 640 639
f 641 639 610
f 641 608 606
f 641 610 612
f 643 611 614
f 644 611 643
f 644 643 614
f 644 613 645
f 644 645 609
f 644 609 611
f 644 614 613
f 646 615 647
f 646 647 648
f 649 646 648
f 649 650 651
f 649 651 616
f 649 615 646
f 649 616 615
f 649 648 650
f 652 648 653
f 652 653 619
f 654 652 619
f 654 619 618
f 654 618 655
f 654 655 656
f 654 656 650
f 654 650 648
f 654 648 652
f 657 620 622
f 658 617 620
f 658 622 624
f 658 624 659
f 658 659 617
f 658 620 657
f 658 657 622
f 660 623 661
f 662 661 663
f 662 621 623
f 662 663 664
f 662 664 665
f 662 665 621
f 662 660 661
f 662 623 660
f 666 663 667
f 666 667 630
f 668 664 663
f 668 663 666
f 668 631 669
f 668 669 664
f 668 630 631
f 668 666 630
f 670 671 672
f 670 672 673
f 674 675 676
f 674 676 677
f 674 677 678
f 679 680 681
f 679 682 680
f 683 679 681
f 684 685 686
f 684 686 687
f 688 684 687
f 688 687 689
f 690 691 692
f 693 694 695
f 696 693 695
f 697 698 699
f 700 697 699
f 701 702 703
f 701 703 704
f 705 706 707
f 705 707 708
f 705 709 706
f 710 705 708
f 710 708 711
f 712 713 714
f 712 714 671
f 712 670 680
f 712 671 670
f 715 682 716
f 715 716 674
f 715 678 713
f 715 712 680
f 715 713 712
f 715 674 678
f 715 680 682
f 717 681 718
f 719 686 685
f 719 685 720
f 719 720 683
f 719 718 686
f 719 683 681
f 719 717 718
f 719 681 717
f 721 689 722
f 721 722 691
f 723 688 689
f 723 690 724
f 723 724 688
f 723 691 690
f 723 721 691
f 723 689 721
f 725 692 726
f 725 726 694
f 727 693 728
f 727 728 729
f 727 729 690
f 727 690 692
f 727 692 725
f 727 694 693
f 727 725 694
f 730 695 731
f 730 731 698
f 732 697 733
f 732 733 734
f 732 734 696
f 732 695 730
f 732 696 695
f 732 698 697
f 732 730 698
f 735 699 736
f 735 736 703
f 737 702 700
f 737 703 702
f 737 700 699
f 737 735 703
f 737 699 735
f 738 704 739
f 738 739 706
f 740 709 741
f 740 704 738
f 740 741 701
f 740 738 706
f 740 701 704
f 740 706 709
f 742 743 744
f 745 742 746
f 745 743 742
f 747 745 746
f 748 745 747
f 749 748 747
f 750 748 749
f 751 750 749
f 752 750 751
f 753 752 751
f 754 752 753
f 755 754 753
f 756 754 755
f 757 754 756
f 758 757 756
f 759 757 758
f 760 759 758
f 761 759 760
f 762 761 760
f 763 761 762
f 764 763 762
f 765 763 764
f 766 765 764
f 766 767 765
f 768 767 766
f 769 768 766
f 770 768 769
f 770 769 771
f 772 770 771
f 773 770 772
f 774 773 772
f 774 775 773
f 776 775 774
f 777 776 774
f 778 776 777
f 778 777 779
f 780 778 779
f 781 778 780
f 782 781 780
f 783 781 782
f 784 783 782
f 785 784 782
f 786 784 785
f 787 788 786
f 787 786 785
f 789 788 787
f 790 791 789
f 790 789 787
f 792 793 794
f 795 792 796
f 795 793 792
f 797 795 796
f 798 795 797
f 799 798 797
f 800 799 801
f 800 798 799
f 802 800 801
f 803 800 802
f 804 803 802
f 805 804 806
f 805 803 804
f 807 805 806
f 808 805 807
f 809 808 807
f 810 809 811
f 810 808 809
f 812 810 811
f 813 810 812
f 814 813 812
f 815 814 816
f 815 813 814
f 817 815 816
f 818 815 817
f 819 818 817
f 820 818 819
f 821 820 819
f 822 820 821
f 823 820 822
f 824 823 822
f 825 823 824
f 826 825 824
f 827 825 826
f 828 825 827
f 829 828 827
f 830 828 829
f 831 830 829
f 832 830 831
f 833 832 831
f 834 832 833
f 835 834 833
f 836 834 835
f 837 836 835
f 837 838 836
f 839 840 841
f 842 843 844
f 845 846 842
f 845 842 844
f 839 844 843
f 843 840 839
f 847 848 849
f 850 848 847
f 851 850 847
f 852 853 854
f 854 850 851
f 851 852 854
f 855 856 857
f 858 856 855
f 859 858 855
f 860 858 859
f 861 860 859
f 862 860 861
f 863 860 862
f 864 863 862
f 865 863 864
f 866 865 864
f 867 865 866
f 868 865 867
f 869 868 867
f 870 868 869
f 871 870 869
f 872 870 871
f 873 872 871
f 874 872 873
f 875 876 874
f 875 874 873
f 877 878 879
f 880 877 879
f 881 882 883
f 884 882 881
f 885 884 881
f 886 884 885
f 887 884 886
f 888 887 886
f 889 887 888
f 890 889 888
f 891 889 890
f 892 891 890
f 893 891 892
f 894 893 892
f 895 893 894
f 896 895 894
f 897 895 896
f 898 897 896
f 899 897 898
f 900 899 898
f 901 899 900
f 902 901 900
f 903 902 900
f 904 902 903
f 905 906 904
f 905 904 903
f 907 881 908
f 908 881 909
f 909 881 883
f 910 911 912
f 913 911 910
f 914 913 910
f 915 913 914
f 916 913 915
f 917 916 915
f 918 916 917
f 919 918 917
f 920 918 919
f 921 918 920
f 922 921 920
f 923 921 922
f 924 923 922
f 925 923 924
f 926 925 924
f 927 925 926
f 928 927 926
f 929 927 928
f 930 929 928
f 931 929 930
f 932 931 930
f 933 931 932
f 934 935 933
f 934 933 932
f 932 936 937
f 932 937 938
f 932 938 934
f 939 940 941
f 939 941 942
f 943 944 945
f 946 943 947
f 946 944 943
f 948 946 947
f 949 946 948
f 950 949 948
f 951 949 950
f 952 949 951
f 953 952 951
f 954 952 953
f 955 954 953
f 956 954 955
f 957 954 956
f 958 957 956
f 959 957 958
f 960 959 958
f 961 959 960
f 962 961 960
f 963 961 962
f 964 965 963
f 964 963 962
f 966 967 968
f 966 969 967
f 970 971 972
f 973 970 972
f 974 970 973
f 975 976 977
f 975 977 978
f 975 979 976
f 980 981 982
f 980 982 983
f 984 985 981
f 984 981 980
f 986 987 985
f 986 985 984
f 988 987 986
f 989 987 988
f 990 991 989
f 990 989 988
f 992 993 991
f 992 991 990
f 994 993 992
f 995 996 997
f 998 999 995
f 998 995 997
f 1000 1001 999
f 1000 999 998
f 1002 1003 1001
f 1002 1001 1000
f 1004 1003 1002
f 1005 1004 1002
f 1006 1004 1005
f 1007 1006 1005
f 1008 1006 1007
f 1009 1010 1008
f 1009 1008 1007
f 1011 1012 1013
f 1014 1012 1011
f 1015 1014 1011
f 1016 1017 1014
f 1016 1014 1015
f 1018 1019 1017
f 1018 1017 1016
f 1020 1019 1018
f 1021 1019 1020
f 1022 1023 1021
f 1022 1021 1020
f 1024 1025 1023
f 1024 1023 1022
f 1026 1027 1028
f 1026 1029 1027
f 1030 1031 1032
f 1033 1030 1032
f 1034 1035 1036
f 1034 1037 1035
f 1038 1039 1040
f 1041 1038 1040
f 1042 1040 1043
f 1042 1041 1040
f 1044 1042 1043
f 1045 1044 1043
f 1046 1045 1043
f 1047 1048 1049
f 1047 1049 1050
f 1051 1052 1053
f 1051 1054 1052

