# https://github.com/mikedh/trimesh
v 0.06013238 0.04565465 -0.09900000
v 0.04089115 0.06346782 -0.09900001
v 0.05129099 0.05540293 -0.09900001
v 0.07212078 0.02233484 -0.09900000
v 0.06714670 0.03451916 -0.09900000
v -0.00947189 0.07490350 -0.09900001
v 0.00367886 0.07541031 -0.09900001
v 0.01671784 0.07362583 -0.09900001
v 0.07541032 -0.00367887 -0.09900000
v 0.07490351 0.00947189 -0.09900000
v -0.03451917 0.06714669 -0.09900001
v -0.02233485 0.07212077 -0.09900001
v -0.04565464 0.06013238 -0.09900001
v 0.02924885 0.06960428 -0.09900001
v 0.06346782 -0.04089115 -0.09900000
v 0.07362584 -0.01671785 -0.09900000
v 0.06960428 -0.02924886 -0.09900000
v -0.06346782 0.04089114 -0.09900000
v -0.05540293 0.05129099 -0.09900001
v 0.05540293 -0.05129100 -0.09899999
v -0.07362584 0.01671783 -0.09900000
v -0.06960428 0.02924884 -0.09900000
v 0.03451917 -0.06714670 -0.09899999
v 0.04565464 -0.06013239 -0.09899999
v -0.07541032 0.00367886 -0.09900000
v 0.02233485 -0.07212077 -0.09899999
v -0.06714670 -0.03451917 -0.09900000
v -0.07490351 -0.00947190 -0.09900000
v -0.07212078 -0.02233485 -0.09900000
v -0.01671784 -0.07362584 -0.09899999
v 0.00947189 -0.07490350 -0.09899999
v -0.00367886 -0.07541033 -0.09899999
v -0.06013238 -0.04565465 -0.09900000
v -0.02924885 -0.06960429 -0.09899999
v -0.04089115 -0.06346782 -0.09899999
v -0.05129099 -0.05540293 -0.09899999
v 0.02132472 -0.07242589 -0.09099999
v 0.00947189 -0.07490350 -0.09099999
v 0.00947189 -0.07490350 -0.09899999
v 0.02233485 -0.07212077 -0.09899999
v 0.03262900 -0.06808524 -0.09099999
v 0.03451917 -0.06714670 -0.09899999
v 0.04309397 -0.06199323 -0.09099999
v 0.04565464 -0.06013239 -0.09899999
v 0.05245042 -0.05430657 -0.09099999
v 0.05540293 -0.05129100 -0.09899999
v 0.06045770 -0.04522298 -0.09100000
v 0.06346782 -0.04089115 -0.09900000
v 0.06690981 -0.03497611 -0.09100000
v 0.06960428 -0.02924886 -0.09900000
v 0.07164080 -0.02382955 -0.09100000
v 0.07362584 -0.01671785 -0.09900000
v 0.07452896 -0.01207002 -0.09100000
v 0.07541032 -0.00367887 -0.09900000
v 0.07550000 -0.00000000 -0.09100000
v 0.07490351 0.00947189 -0.09900000
v 0.07437570 0.01298097 -0.09100000
v 0.07212078 0.02233484 -0.09900000
v 0.07103627 0.02557533 -0.09100000
v 0.06714670 0.03451916 -0.09900000
v 0.06558120 0.03740799 -0.09100000
v 0.06013238 0.04565465 -0.09900000
v 0.05817290 0.04812654 -0.09100000
v 0.05129099 0.05540293 -0.09900001
v 0.04903206 0.05741173 -0.09100001
v 0.04089115 0.06346782 -0.09900001
v 0.03843091 0.06498703 -0.09100001
v 0.02924885 0.06960428 -0.09900001
v 0.02668518 0.07062684 -0.09100001
v 0.01671784 0.07362583 -0.09900001
v 0.01414468 0.07416319 -0.09100001
v 0.00367886 0.07541031 -0.09900001
v 0.00118291 0.07549074 -0.09100001
v -0.00947189 0.07490350 -0.09900001
v -0.01181408 0.07456996 -0.09100001
v -0.02233485 0.07212077 -0.09900001
v -0.02445922 0.07142825 -0.09100001
v -0.03451917 0.06714669 -0.09900001
v -0.03637590 0.06615923 -0.09100001
v -0.04565464 0.06013238 -0.09900001
v -0.04720919 0.05891978 -0.09100001
v -0.05540293 0.05129099 -0.09900001
v -0.05663646 0.04992555 -0.09100001
v -0.06346782 0.04089114 -0.09900000
v -0.06437694 0.03944438 -0.09100000
v -0.06960428 0.02924884 -0.09900000
v -0.07020009 0.02778845 -0.09100000
v -0.07362584 0.01671783 -0.09900000
v -0.07393248 0.01530490 -0.09100000
v -0.07541032 0.00367886 -0.09900000
v -0.07546294 0.00236553 -0.09100000
v -0.07490351 -0.00947190 -0.09900000
v -0.07474591 -0.01064430 -0.09100000
v -0.07212078 -0.02233485 -0.09900000
v -0.07180271 -0.02333711 -0.09100000
v -0.06714670 -0.03451917 -0.09900000
v -0.06672104 -0.03533487 -0.09100000
v -0.06013238 -0.04565465 -0.09900000
v -0.05965222 -0.04628027 -0.09100000
v -0.05129099 -0.05540293 -0.09899999
v -0.05080679 -0.05584730 -0.09099999
v -0.04089115 -0.06346782 -0.09899999
v -0.04044819 -0.06375104 -0.09099999
v -0.02924885 -0.06960429 -0.09899999
v -0.02888492 -0.06975609 -0.09099999
v -0.01671784 -0.07362584 -0.09899999
v -0.01646138 -0.07368361 -0.09099999
v -0.00367886 -0.07541033 -0.09899999
v -0.00354758 -0.07541662 -0.09099999
v 0.00947189 -0.07490350 -0.09899999
v 0.00947189 -0.07490350 -0.09099999
f 1 2 3
f 4 1 5
f 6 7 8
f 9 4 10
f 9 1 4
f 11 12 6
f 11 6 8
f 13 14 2
f 13 8 14
f 13 2 1
f 13 11 8
f 15 16 17
f 15 9 16
f 18 19 13
f 20 1 9
f 20 13 1
f 20 18 13
f 20 9 15
f 21 22 18
f 23 20 24
f 25 21 18
f 26 18 20
f 26 20 23
f 27 28 25
f 27 29 28
f 30 31 32
f 33 26 31
f 33 25 18
f 33 18 26
f 33 27 25
f 34 31 30
f 35 33 31
f 35 31 34
f 35 36 33
f 37 38 39
f 37 39 40
f 41 40 42
f 41 37 40
f 43 42 44
f 43 41 42
f 45 44 46
f 45 43 44
f 47 46 48
f 47 45 46
f 49 47 48
f 49 48 50
f 51 49 50
f 51 50 52
f 53 51 52
f 53 52 54
f 55 53 54
f 55 54 56
f 57 55 56
f 57 56 58
f 59 57 58
f 59 58 60
f 61 59 60
f 61 60 62
f 63 61 62
f 63 62 64
f 65 63 64
f 65 64 66
f 67 65 66
f 67 66 68
f 69 67 68
f 69 68 70
f 71 69 70
f 71 70 72
f 73 71 72
f 73 72 74
f 75 73 74
f 75 74 76
f 77 76 78
f 77 75 76
f 79 78 80
f 79 77 78
f 81 80 82
f 81 79 80
f 83 82 84
f 83 81 82
f 85 84 86
f 85 83 84
f 87 86 88
f 87 85 86
f 89 88 90
f 89 87 88
f 91 90 92
f 91 89 90
f 93 92 94
f 93 91 92
f 95 94 96
f 95 93 94
f 97 96 98
f 97 95 96
f 99 97 98
f 99 98 100
f 101 99 100
f 101 100 102
f 103 101 102
f 103 102 104
f 105 103 104
f 105 104 106
f 107 105 106
f 107 106 108
f 109 107 108
f 109 108 110
f 111 109 110

