# https://github.com/mikedh/trimesh
v 0.00050000 0.05855005 0.09509992
v 0.00050000 0.05864912 0.09507244
v 0.00050000 0.05855005 0.08169996
v 0.00050000 0.05864912 0.08172744
v 0.00050000 0.05872148 0.09499931
v 0.00050000 0.05872148 0.08180058
v 0.00050000 0.05874794 0.08189994
v 0.00050000 0.05874794 0.09489995
v -0.00050000 0.05855005 0.08169996
v -0.00050000 0.05855005 0.09509992
v 0.00000000 0.05855005 0.08169996
v 0.00000000 0.05855005 0.09509992
v 0.00050000 0.05855005 0.08169996
v 0.00050000 0.05855005 0.09509992
v -0.00050000 0.05855005 0.08169996
v -0.00050000 0.05864912 0.08172744
v -0.00050000 0.05855005 0.09509992
v -0.00050000 0.05864912 0.09507244
v -0.00050000 0.05872148 0.08180058
v -0.00050000 0.05872148 0.09499931
v -0.00050000 0.05874794 0.09489995
v -0.00050000 0.05874794 0.08189994
v -0.00050000 0.05874794 0.09489995
v -0.00050000 0.05874794 0.08189994
v -0.00660491 0.05837762 0.09489995
v -0.00660491 0.05837762 0.08189994
v -0.01263833 0.05737459 0.09489995
v -0.01263833 0.05737459 0.08189994
v -0.01853471 0.05574977 0.09489995
v -0.01853471 0.05574977 0.08189994
v -0.02423024 0.05352067 0.09489995
v -0.02423024 0.05352067 0.08189994
v -0.02966320 0.05071157 0.09489995
v -0.02966320 0.05071157 0.08189994
v -0.03477466 0.04735285 0.09489995
v -0.03477466 0.04735285 0.08189994
v -0.03950917 0.04348093 0.09489995
v -0.03950917 0.04348093 0.08189994
v -0.04381555 0.03913778 0.09489995
v -0.04381555 0.03913778 0.08189994
v -0.04764705 0.03437042 0.09489995
v -0.04764705 0.03437042 0.08189994
v -0.05096215 0.02923059 0.09489995
v -0.05096215 0.02923059 0.08189994
v -0.05372488 0.02377396 0.09489995
v -0.05372488 0.02377396 0.08189994
v -0.05590540 0.01805967 0.09489995
v -0.05590540 0.01805967 0.08189994
v -0.05747997 0.01214963 0.09489995
v -0.05747997 0.01214963 0.08189994
v -0.05843162 0.00610793 0.09489995
v -0.05843162 0.00610793 0.08189994
v -0.05875003 0.00000000 0.09489995
v -0.05875003 0.00000000 0.08189994
v -0.05843162 -0.00610775 0.09489995
v -0.05843162 -0.00610775 0.08189994
v -0.05747997 -0.01214951 0.09489995
v -0.05747997 -0.01214951 0.08189994
v -0.05590540 -0.01805955 0.09489995
v -0.05590540 -0.01805955 0.08189994
v -0.05372488 -0.02377378 0.09489995
v -0.05372488 -0.02377378 0.08189994
v -0.05096215 -0.02923047 0.09489995
v -0.05096215 -0.02923047 0.08189994
v -0.04764705 -0.03437024 0.09489995
v -0.04764705 -0.03437024 0.08189994
v -0.04381555 -0.03913760 0.09489995
v -0.04381555 -0.03913760 0.08189994
v -0.03950917 -0.04348075 0.09489995
v -0.03950917 -0.04348075 0.08189994
v -0.03477466 -0.04735267 0.09489995
v -0.03477466 -0.04735267 0.08189994
v -0.02966320 -0.05071139 0.09489995
v -0.02966320 -0.05071139 0.08189994
v -0.02423030 -0.05352050 0.09489995
v -0.02423030 -0.05352050 0.08189994
v -0.01853471 -0.05574953 0.09489995
v -0.01853471 -0.05574953 0.08189994
v -0.01263833 -0.05737441 0.09489995
v -0.01263833 -0.05737441 0.08189994
v -0.00660497 -0.05837744 0.09489995
v -0.00660497 -0.05837744 0.08189994
v -0.00050000 -0.05874776 0.09489995
v -0.00050000 -0.05874776 0.08189994
v -0.00050000 -0.05874776 0.09489995
v -0.00050000 -0.05874776 0.08189994
v -0.00050000 -0.05872130 0.09499937
v -0.00050000 -0.05872130 0.08180058
v -0.00050000 -0.05864900 0.08172744
v -0.00050000 -0.05864900 0.09507244
v -0.00050000 -0.05854988 0.08169996
v -0.00050000 -0.05854988 0.09509992
v 0.00050000 -0.05854988 0.08169996
v 0.00050000 -0.05854988 0.09509992
v 0.00000000 -0.05854988 0.08169996
v 0.00000000 -0.05854988 0.09509998
v -0.00050000 -0.05854988 0.08169996
v -0.00050000 -0.05854988 0.09509992
v 0.00050000 -0.05874776 0.08189994
v 0.00050000 -0.05874776 0.09489995
v 0.00050000 -0.05872130 0.08180058
v 0.00050000 -0.05872130 0.09499937
v 0.00050000 -0.05864900 0.09507244
v 0.00050000 -0.05864900 0.08172744
v 0.00050000 -0.05854988 0.09509992
v 0.00050000 -0.05854988 0.08169996
v 0.00050000 0.05874794 0.08189994
v 0.00050000 0.05874794 0.09489995
v 0.00660497 0.05837762 0.08189994
v 0.00660497 0.05837762 0.09489995
v 0.01263833 0.05737459 0.08189994
v 0.01263833 0.05737459 0.09489995
v 0.01853471 0.05574977 0.08189994
v 0.01853471 0.05574977 0.09489995
v 0.02423030 0.05352067 0.08189994
v 0.02423030 0.05352067 0.09489995
v 0.02966320 0.05071157 0.08189994
v 0.02966320 0.05071157 0.09489995
v 0.03477466 0.04735285 0.08189994
v 0.03477466 0.04735285 0.09489995
v 0.03950917 0.04348093 0.08189994
v 0.03950917 0.04348093 0.09489995
v 0.04381555 0.03913778 0.08189994
v 0.04381555 0.03913778 0.09489995
v 0.04764705 0.03437042 0.08189994
v 0.04764705 0.03437042 0.09489995
v 0.05096215 0.02923059 0.08189994
v 0.05096215 0.02923059 0.09489995
v 0.05372488 0.02377396 0.08189994
v 0.05372488 0.02377396 0.09489995
v 0.05590540 0.01805967 0.08189994
v 0.05590540 0.01805967 0.09489995
v 0.05747997 0.01214963 0.08189994
v 0.05747997 0.01214963 0.09489995
v 0.05843162 0.00610793 0.08189994
v 0.05843162 0.00610793 0.09489995
v 0.05875003 0.00000000 0.08189994
v 0.05875003 0.00000000 0.09489995
v 0.05843162 -0.00610775 0.08189994
v 0.05843162 -0.00610781 0.09489995
v 0.05747997 -0.01214951 0.08189994
v 0.05747997 -0.01214951 0.09489995
v 0.05590540 -0.01805955 0.08189994
v 0.05590540 -0.01805955 0.09489995
v 0.05372488 -0.02377378 0.08189994
v 0.05372488 -0.02377378 0.09489995
v 0.05096215 -0.02923047 0.08189994
v 0.05096215 -0.02923047 0.09489995
v 0.04764705 -0.03437024 0.08189994
v 0.04764705 -0.03437024 0.09489995
v 0.04381555 -0.03913760 0.08189994
v 0.04381555 -0.03913760 0.09489995
v 0.03950917 -0.04348075 0.08189994
v 0.03950917 -0.04348075 0.09489995
v 0.03477466 -0.04735267 0.08189994
v 0.03477466 -0.04735267 0.09489995
v 0.02966320 -0.05071139 0.08189994
v 0.02966320 -0.05071139 0.09489995
v 0.02423024 -0.05352050 0.08189994
v 0.02423024 -0.05352050 0.09489995
v 0.01853471 -0.05574953 0.08189994
v 0.01853471 -0.05574953 0.09489995
v 0.01263833 -0.05737441 0.08189994
v 0.01263833 -0.05737441 0.09489995
v 0.00660491 -0.05837744 0.08189994
v 0.00660491 -0.05837744 0.09489995
v 0.00050000 -0.05874776 0.08189994
v 0.00050000 -0.05874776 0.09489995
v 0.00025000 0.05854952 0.09509992
v 0.00000000 0.05855005 0.09509992
v 0.00620520 0.05822032 0.09509992
v 0.00620520 0.05822032 0.09509992
v 0.00000000 0.05855005 0.09509992
v -0.00049998 0.05854791 0.09509992
v 0.00620520 0.05822032 0.09509992
v -0.00049998 0.05854791 0.09509992
v -0.00620514 0.05822032 0.09509992
v 0.01185131 0.05733805 0.09509992
v -0.01185125 0.05733805 0.09509992
v 0.01738446 0.05590963 0.09509992
v -0.01738446 0.05590963 0.09509992
v 0.02275210 0.05394858 0.09509992
v -0.02275210 0.05394858 0.09509992
v 0.02790296 0.05147361 0.09509992
v -0.02790296 0.05147361 0.09509992
v 0.03278797 0.04850828 0.09509992
v -0.03278797 0.04850828 0.09509992
v 0.03736072 0.04508084 0.09509992
v -0.03736066 0.04508090 0.09509992
v 0.04157751 0.04122400 0.09509992
v -0.04157751 0.04122400 0.09509992
v 0.04539823 0.03697443 0.09509992
v -0.04539823 0.03697443 0.09509992
v 0.04878646 0.03237265 0.09509998
v -0.04878646 0.03237265 0.09509998
v 0.05170994 0.02746242 0.09509998
v -0.05170994 0.02746242 0.09509998
v 0.05414086 0.02229064 0.09509998
v -0.05414086 0.02229064 0.09509998
v 0.05605602 0.01690649 0.09509998
v -0.05605602 0.01690649 0.09509998
v 0.05743712 0.01136124 0.09509998
v -0.05743712 0.01136130 0.09509998
v 0.05827111 0.00570786 0.09509998
v -0.05827111 0.00570786 0.09509998
v 0.05855000 0.00000000 0.09509998
v -0.05855000 0.00000000 0.09509998
v 0.05827111 -0.00570768 0.09509998
v -0.05827111 -0.00570768 0.09509998
v 0.05743712 -0.01136112 0.09509998
v -0.05743712 -0.01136112 0.09509998
v 0.05605602 -0.01690638 0.09509998
v -0.05605602 -0.01690632 0.09509998
v 0.05414086 -0.02229046 0.09509998
v -0.05414086 -0.02229046 0.09509998
v 0.05170994 -0.02746224 0.09509998
v -0.05170994 -0.02746224 0.09509998
v 0.04878646 -0.03237247 0.09509998
v -0.04878646 -0.03237247 0.09509998
v 0.04539823 -0.03697431 0.09509998
v -0.04539823 -0.03697431 0.09509998
v 0.04157751 -0.04122382 0.09509998
v -0.04157751 -0.04122382 0.09509998
v 0.03736066 -0.04508072 0.09509998
v -0.03736072 -0.04508072 0.09509998
v 0.03278797 -0.04850816 0.09509998
v -0.03278797 -0.04850810 0.09509998
v 0.02790296 -0.05147343 0.09509998
v -0.02790296 -0.05147343 0.09509998
v 0.02275210 -0.05394846 0.09509998
v -0.02275210 -0.05394846 0.09509998
v 0.01738446 -0.05590945 0.09509998
v -0.01738446 -0.05590945 0.09509998
v 0.01185125 -0.05733793 0.09509998
v -0.01185131 -0.05733793 0.09509998
v 0.00620514 -0.05822014 0.09509998
v -0.00620520 -0.05822014 0.09509998
v 0.00049998 -0.05854773 0.09509998
v 0.00000000 -0.05854988 0.09509998
v 0.00000000 -0.05854988 0.09509998
v -0.00620520 -0.05822014 0.09509998
v -0.00025000 -0.05854934 0.09509998
v -0.00025000 -0.05854934 0.09509998
v -0.00620520 -0.05822014 0.09509998
v -0.00049998 -0.05854773 0.09509998
v 0.00620520 0.05822032 0.09509992
v 0.00049998 0.05854791 0.09509992
v 0.00025000 0.05854952 0.09509992
v 0.00024999 -0.05854934 0.08169996
v 0.00000000 -0.05854988 0.08169996
v 0.00620514 -0.05822014 0.08169996
v 0.00620514 -0.05822014 0.08169996
v 0.00000000 -0.05854988 0.08169996
v -0.00049998 -0.05854773 0.08169996
v -0.00049998 -0.05854773 0.08169996
v -0.00620520 -0.05822014 0.08169996
v 0.01185125 -0.05733793 0.08169996
v -0.01185131 -0.05733793 0.08169996
v 0.01738446 -0.05590945 0.08169996
v -0.01738446 -0.05590945 0.08169996
v 0.02275210 -0.05394846 0.08169996
v -0.02275210 -0.05394846 0.08169996
v 0.02790296 -0.05147343 0.08169996
v -0.02790296 -0.05147343 0.08169996
v 0.03278797 -0.04850816 0.08169996
v -0.03278797 -0.04850810 0.08169996
v 0.03736066 -0.04508072 0.08169996
v -0.03736072 -0.04508072 0.08169996
v 0.04157751 -0.04122382 0.08169996
v -0.04157751 -0.04122382 0.08169996
v 0.04539823 -0.03697431 0.08169996
v -0.04539823 -0.03697431 0.08169996
v 0.04878646 -0.03237247 0.08169996
v -0.04878646 -0.03237247 0.08169996
v 0.05170994 -0.02746224 0.08169996
v -0.05170994 -0.02746224 0.08169996
v 0.05414086 -0.02229046 0.08169996
v -0.05414086 -0.02229046 0.08169996
v 0.05605602 -0.01690638 0.08169996
v -0.05605602 -0.01690632 0.08169996
v 0.05743712 -0.01136112 0.08169996
v -0.05743712 -0.01136112 0.08169996
v 0.05827111 -0.00570768 0.08169996
v -0.05827111 -0.00570768 0.08169996
v 0.05855000 0.00000000 0.08169996
v -0.05855000 0.00000000 0.08169996
v 0.05827111 0.00570786 0.08169996
v -0.05827111 0.00570786 0.08169996
v 0.05743712 0.01136130 0.08169996
v -0.05743712 0.01136130 0.08169996
v 0.05605602 0.01690649 0.08169996
v -0.05605602 0.01690649 0.08169996
v 0.05414086 0.02229064 0.08169996
v -0.05414086 0.02229064 0.08169996
v 0.05170994 0.02746242 0.08169996
v -0.05170994 0.02746242 0.08169996
v 0.04878646 0.03237265 0.08169996
v -0.04878646 0.03237265 0.08169996
v 0.04539823 0.03697443 0.08169996
v -0.04539823 0.03697443 0.08169996
v 0.04157751 0.04122400 0.08169996
v -0.04157751 0.04122400 0.08169996
v 0.03736072 0.04508084 0.08169996
v -0.03736066 0.04508090 0.08169996
v 0.03278797 0.04850828 0.08169996
v -0.03278797 0.04850828 0.08169996
v 0.02790296 0.05147361 0.08169996
v -0.02790296 0.05147361 0.08169996
v 0.02275210 0.05394858 0.08169996
v -0.02275210 0.05394858 0.08169996
v 0.01738446 0.05590963 0.08169996
v -0.01738446 0.05590963 0.08169996
v 0.01185131 0.05733805 0.08169996
v -0.01185125 0.05733805 0.08169996
v 0.00620520 0.05822032 0.08169996
v -0.00620514 0.05822032 0.08169996
v 0.00049998 0.05854791 0.08169996
v 0.00000000 0.05855005 0.08169996
v -0.00024999 0.05854952 0.08169996
v -0.00049998 0.05854791 0.08169996
v 0.00620514 -0.05822014 0.08169996
v 0.00049998 -0.05854773 0.08169996
v 0.00024999 -0.05854934 0.08169996
v -0.00050000 0.05864912 0.09507244
v -0.00613058 0.05832880 0.09507316
v -0.00050000 0.05855005 0.09509992
v -0.00620514 0.05822032 0.09509992
v -0.00049998 0.05854791 0.09509992
v -0.00613821 0.05840158 0.09499996
v -0.00050000 0.05872148 0.09499931
v -0.00050000 0.05874794 0.09489995
v -0.00660491 0.05837762 0.09489995
v -0.01220923 0.05744004 0.09499996
v -0.01219397 0.05736845 0.09507316
v -0.01812380 0.05577951 0.09507316
v -0.01738446 0.05590963 0.09509992
v -0.02275210 0.05394858 0.09509992
v -0.02385509 0.05357950 0.09507316
v -0.02790296 0.05147361 0.09509992
v -0.02932500 0.05079245 0.09507316
v -0.03278797 0.04850828 0.09509992
v -0.03447359 0.04744893 0.09507316
v -0.03736066 0.04508090 0.09509992
v -0.03924453 0.04358553 0.09507316
v -0.04157751 0.04122400 0.09509992
v -0.04358541 0.03924459 0.09507316
v -0.04539823 0.03697443 0.09509992
v -0.04744881 0.03447365 0.09507316
v -0.04878646 0.03237265 0.09509998
v -0.05079239 0.02932506 0.09507316
v -0.05170994 0.02746242 0.09509998
v -0.05357944 0.02385514 0.09507316
v -0.05414086 0.02229064 0.09509998
v -0.05577945 0.01812392 0.09507316
v -0.05605602 0.01690649 0.09509998
v -0.05736833 0.01219403 0.09507316
v -0.05743712 0.01136130 0.09509998
v -0.05832988 0.00611961 0.09507316
v -0.05827111 0.00570786 0.09509998
v -0.05865001 0.00000000 0.09507316
v -0.05855000 0.00000000 0.09509998
v -0.05827111 -0.00570768 0.09509998
v -0.05832988 -0.00611943 0.09507316
v -0.05743712 -0.01136112 0.09509998
v -0.05736833 -0.01219391 0.09507316
v -0.05605602 -0.01690632 0.09509998
v -0.05577945 -0.01812374 0.09507316
v -0.05414086 -0.02229046 0.09509998
v -0.05357944 -0.02385503 0.09507316
v -0.05170994 -0.02746224 0.09509998
v -0.05079239 -0.02932488 0.09507316
v -0.04878646 -0.03237247 0.09509998
v -0.04744887 -0.03447347 0.09507316
v -0.04539823 -0.03697431 0.09509998
v -0.04358541 -0.03924441 0.09507316
v -0.04157751 -0.04122382 0.09509998
v -0.03924453 -0.04358536 0.09507316
v -0.03736072 -0.04508072 0.09509998
v -0.03447359 -0.04744875 0.09507316
v -0.03278797 -0.04850810 0.09509998
v -0.02932500 -0.05079227 0.09507316
v -0.02790296 -0.05147343 0.09509998
v -0.02385509 -0.05357933 0.09507316
v -0.02275210 -0.05394846 0.09509998
v -0.01812386 -0.05577933 0.09507316
v -0.01738446 -0.05590945 0.09509998
v -0.01219397 -0.05736827 0.09507316
v -0.01185131 -0.05733793 0.09509998
v -0.00613058 -0.05832862 0.09507316
v -0.00620520 -0.05822014 0.09509998
v -0.00050000 -0.05854988 0.09509992
v -0.00049998 -0.05854773 0.09509998
v -0.00025000 -0.05854934 0.09509998
v 0.00000000 -0.05854988 0.09509998
v -0.01263833 0.05737459 0.09489995
v -0.01814645 0.05584913 0.09499996
v -0.01853471 0.05574977 0.09489995
v -0.02388489 0.05364638 0.09499996
v -0.02423024 0.05352067 0.09489995
v -0.02936160 0.05085581 0.09499996
v -0.02966320 0.05071157 0.09489995
v -0.03451663 0.04750812 0.09499996
v -0.03477466 0.04735285 0.09489995
v -0.03929346 0.04363989 0.09499996
v -0.03950917 0.04348093 0.09489995
v -0.04363983 0.03929358 0.09499996
v -0.04381555 0.03913778 0.09489995
v -0.04750806 0.03451669 0.09499996
v -0.04764705 0.03437042 0.09489995
v -0.05085581 0.02936166 0.09499996
v -0.05364632 0.02388495 0.09499996
v -0.05372488 0.02377396 0.09489995
v -0.05584907 0.01814651 0.09499996
v -0.05590540 0.01805967 0.09489995
v -0.05743998 0.01220929 0.09499996
v -0.05747997 0.01214963 0.09489995
v -0.05840384 0.00611621 0.09499996
v -0.05843162 0.00610793 0.09489995
v -0.05872321 0.00000000 0.09499996
v -0.05840384 -0.00611603 0.09499996
v -0.05743998 -0.01220911 0.09499996
v -0.05875003 0.00000000 0.09489995
v -0.05843162 -0.00610775 0.09489995
v -0.05747997 -0.01214951 0.09489995
v -0.05590540 -0.01805955 0.09489995
v -0.05584907 -0.01814633 0.09499996
v -0.05372488 -0.02377378 0.09489995
v -0.05364632 -0.02388477 0.09499996
v -0.05096215 -0.02923047 0.09489995
v -0.05085581 -0.02936148 0.09499996
v -0.04764705 -0.03437024 0.09489995
v -0.04750806 -0.03451651 0.09499996
v -0.04381555 -0.03913760 0.09489995
v -0.04363983 -0.03929340 0.09499996
v -0.03950917 -0.04348075 0.09489995
v -0.03929346 -0.04363971 0.09499996
v -0.03477466 -0.04735267 0.09489995
v -0.03451663 -0.04750794 0.09499996
v -0.02966320 -0.05071139 0.09489995
v -0.02936160 -0.05085569 0.09499996
v -0.02423030 -0.05352050 0.09489995
v -0.02388489 -0.05364620 0.09499996
v -0.01853471 -0.05574953 0.09489995
v -0.01814645 -0.05584901 0.09499996
v -0.01263833 -0.05737441 0.09489995
v -0.01220923 -0.05743986 0.09499996
v -0.00660497 -0.05837744 0.09489995
v -0.00613821 -0.05840140 0.09499996
v -0.00050000 -0.05874776 0.09489995
v -0.00050000 -0.05872130 0.09499937
v -0.00050000 -0.05864900 0.09507244
v -0.01185125 0.05733805 0.09509992
v 0.00000000 0.05855005 0.09509992
v 0.00000000 0.05855005 0.08169996
v -0.00024999 0.05854952 0.08169996
v -0.00050000 0.05855005 0.08169996
v -0.00049998 0.05854791 0.08169996
v -0.00620514 0.05822032 0.08169996
v -0.00613058 0.05832880 0.08172672
v -0.01185125 0.05733805 0.08169996
v -0.01219397 0.05736845 0.08172672
v -0.01738446 0.05590963 0.08169996
v -0.01812380 0.05577951 0.08172672
v -0.02275210 0.05394858 0.08169996
v -0.02385509 0.05357950 0.08172672
v -0.02790296 0.05147361 0.08169996
v -0.02932500 0.05079245 0.08172672
v -0.03278797 0.04850828 0.08169996
v -0.03447359 0.04744893 0.08172672
v -0.03736066 0.04508090 0.08169996
v -0.03924453 0.04358553 0.08172672
v -0.04157751 0.04122400 0.08169996
v -0.04358541 0.03924459 0.08172672
v -0.04539823 0.03697443 0.08169996
v -0.04744881 0.03447365 0.08172672
v -0.04878646 0.03237265 0.08169996
v -0.05079239 0.02932506 0.08172672
v -0.05170994 0.02746242 0.08169996
v -0.05357944 0.02385514 0.08172672
v -0.05414086 0.02229064 0.08169996
v -0.05577945 0.01812392 0.08172672
v -0.05605602 0.01690649 0.08169996
v -0.05736833 0.01219403 0.08172672
v -0.05743712 0.01136130 0.08169996
v -0.05832988 0.00611961 0.08172672
v -0.05827111 0.00570786 0.08169996
v -0.05865001 0.00000000 0.08172672
v -0.05855000 0.00000000 0.08169996
v -0.05827111 -0.00570768 0.08169996
v -0.05832988 -0.00611943 0.08172672
v -0.05743712 -0.01136112 0.08169996
v -0.05736833 -0.01219391 0.08172672
v -0.05605602 -0.01690632 0.08169996
v -0.05577945 -0.01812374 0.08172672
v -0.05414086 -0.02229046 0.08169996
v -0.05357944 -0.02385503 0.08172672
v -0.05170994 -0.02746224 0.08169996
v -0.05079239 -0.02932488 0.08172672
v -0.04878646 -0.03237247 0.08169996
v -0.04744887 -0.03447347 0.08172672
v -0.04539823 -0.03697431 0.08169996
v -0.04358541 -0.03924441 0.08172672
v -0.04157751 -0.04122382 0.08169996
v -0.03924453 -0.04358536 0.08172672
v -0.03736072 -0.04508072 0.08169996
v -0.03447359 -0.04744875 0.08172672
v -0.03278797 -0.04850810 0.08169996
v -0.02932500 -0.05079227 0.08172672
v -0.02790296 -0.05147343 0.08169996
v -0.02385509 -0.05357933 0.08172672
v -0.02275210 -0.05394846 0.08169996
v -0.01812386 -0.05577933 0.08172672
v -0.01738446 -0.05590945 0.08169996
v -0.01219397 -0.05736827 0.08172672
v -0.01185131 -0.05733793 0.08169996
v -0.00613058 -0.05832862 0.08172672
v -0.00620520 -0.05822014 0.08169996
v -0.00050000 -0.05854988 0.08169996
v -0.00049998 -0.05854773 0.08169996
v 0.00000000 -0.05854988 0.08169996
v -0.00050000 -0.05864900 0.08172744
v -0.00613821 -0.05840140 0.08179998
v -0.01220923 -0.05743986 0.08179998
v -0.01814645 -0.05584901 0.08179998
v -0.02388489 -0.05364620 0.08179998
v -0.02936160 -0.05085569 0.08179998
v -0.03451663 -0.04750794 0.08179998
v -0.03929346 -0.04363971 0.08179998
v -0.04363983 -0.03929340 0.08179998
v -0.04750806 -0.03451651 0.08179998
v -0.05085581 -0.02936148 0.08179998
v -0.05364632 -0.02388477 0.08179998
v -0.05584907 -0.01814633 0.08179998
v -0.05743998 -0.01220911 0.08179998
v -0.05840384 -0.00611603 0.08179998
v -0.05872321 0.00000000 0.08179998
v -0.05840384 0.00611621 0.08179998
v -0.05843162 0.00610793 0.08189994
v -0.05747997 0.01214963 0.08189994
v -0.00050000 -0.05872130 0.08180058
v -0.00050000 -0.05874776 0.08189994
v -0.00660497 -0.05837744 0.08189994
v -0.01263833 -0.05737441 0.08189994
v -0.01853471 -0.05574953 0.08189994
v -0.02966320 -0.05071139 0.08189994
v -0.03477466 -0.04735267 0.08189994
v -0.03950917 -0.04348075 0.08189994
v -0.04381555 -0.03913760 0.08189994
v -0.04764705 -0.03437024 0.08189994
v -0.05096215 -0.02923047 0.08189994
v -0.05372488 -0.02377378 0.08189994
v -0.05590540 -0.01805955 0.08189994
v -0.05747997 -0.01214951 0.08189994
v -0.05843162 -0.00610775 0.08189994
v -0.05875003 0.00000000 0.08189994
v -0.05743998 0.01220929 0.08179998
v -0.05590540 0.01805967 0.08189994
v -0.05584907 0.01814651 0.08179998
v -0.05372488 0.02377396 0.08189994
v -0.05364632 0.02388495 0.08179998
v -0.05085581 0.02936166 0.08179998
v -0.04764705 0.03437042 0.08189994
v -0.04750806 0.03451669 0.08179998
v -0.04381555 0.03913778 0.08189994
v -0.04363983 0.03929358 0.08179998
v -0.03929346 0.04363989 0.08179998
v -0.03477466 0.04735285 0.08189994
v -0.03451663 0.04750812 0.08179998
v -0.02966320 0.05071157 0.08189994
v -0.02936160 0.05085581 0.08179998
v -0.02423024 0.05352067 0.08189994
v -0.02388489 0.05364638 0.08179992
v -0.01853471 0.05574977 0.08189994
v -0.01814645 0.05584913 0.08179998
v -0.01263833 0.05737459 0.08189994
v -0.01220923 0.05744004 0.08179998
v -0.00660491 0.05837762 0.08189994
v -0.00613821 0.05840158 0.08179998
v -0.00050000 0.05874794 0.08189994
v -0.00050000 0.05872148 0.08180058
v -0.00050000 0.05864912 0.08172744
v 0.00000000 -0.05854988 0.08169996
v 0.00024999 -0.05854934 0.08169996
v 0.00050000 -0.05854988 0.08169996
v 0.00049998 -0.05854773 0.08169996
v 0.00620514 -0.05822014 0.08169996
v 0.00613058 -0.05832862 0.08172672
v 0.01185125 -0.05733793 0.08169996
v 0.01219397 -0.05736827 0.08172672
v 0.01738446 -0.05590945 0.08169996
v 0.01812380 -0.05577933 0.08172672
v 0.02275210 -0.05394846 0.08169996
v 0.02385509 -0.05357933 0.08172672
v 0.02790296 -0.05147343 0.08169996
v 0.02932500 -0.05079227 0.08172672
v 0.03278797 -0.04850816 0.08169996
v 0.03447359 -0.04744875 0.08172672
v 0.03736066 -0.04508072 0.08169996
v 0.03924453 -0.04358536 0.08172672
v 0.04157751 -0.04122382 0.08169996
v 0.04358541 -0.03924441 0.08172672
v 0.04539823 -0.03697431 0.08169996
v 0.04744881 -0.03447347 0.08172672
v 0.04878646 -0.03237247 0.08169996
v 0.05079239 -0.02932488 0.08172672
v 0.05170994 -0.02746224 0.08169996
v 0.05357944 -0.02385503 0.08172672
v 0.05414086 -0.02229046 0.08169996
v 0.05577945 -0.01812374 0.08172672
v 0.05605602 -0.01690638 0.08169996
v 0.05736833 -0.01219391 0.08172672
v 0.05743712 -0.01136112 0.08169996
v 0.05832988 -0.00611943 0.08172672
v 0.05827111 -0.00570768 0.08169996
v 0.05865001 0.00000000 0.08172672
v 0.05855000 0.00000000 0.08169996
v 0.05832988 0.00611961 0.08172672
v 0.05743712 0.01136130 0.08169996
v 0.05736833 0.01219403 0.08172672
v 0.05605602 0.01690649 0.08169996
v 0.05577945 0.01812392 0.08172672
v 0.05414086 0.02229064 0.08169996
v 0.05357944 0.02385514 0.08172672
v 0.05170994 0.02746242 0.08169996
v 0.05079239 0.02932506 0.08172672
v 0.04878646 0.03237265 0.08169996
v 0.04744887 0.03447365 0.08172672
v 0.04539823 0.03697443 0.08169996
v 0.04358541 0.03924459 0.08172672
v 0.04157751 0.04122400 0.08169996
v 0.03924453 0.04358547 0.08172672
v 0.03736072 0.04508084 0.08169996
v 0.03447359 0.04744893 0.08172672
v 0.03278797 0.04850828 0.08169996
v 0.02932500 0.05079245 0.08172672
v 0.02790296 0.05147361 0.08169996
v 0.02385509 0.05357950 0.08172672
v 0.02275210 0.05394858 0.08169996
v 0.01812386 0.05577951 0.08172672
v 0.01738446 0.05590963 0.08169996
v 0.01219397 0.05736845 0.08172672
v 0.01185131 0.05733805 0.08169996
v 0.00613058 0.05832880 0.08172672
v 0.00620520 0.05822032 0.08169996
v 0.00050000 0.05855005 0.08169996
v 0.00049998 0.05854791 0.08169996
v 0.00000000 0.05855005 0.08169996
v 0.00050000 0.05864912 0.08172744
v 0.00613821 0.05840158 0.08179998
v 0.01220923 0.05744004 0.08179998
v 0.01814645 0.05584913 0.08179998
v 0.02388489 0.05364638 0.08179992
v 0.02936160 0.05085581 0.08179998
v 0.03451663 0.04750812 0.08179998
v 0.03929346 0.04363989 0.08179998
v 0.04363983 0.03929358 0.08179998
v 0.04750806 0.03451669 0.08179998
v 0.05085581 0.02936166 0.08179998
v 0.05364632 0.02388495 0.08179998
v 0.05584907 0.01814651 0.08179998
v 0.05743998 0.01220929 0.08179998
v 0.05840384 0.00611621 0.08179998
v 0.05872321 0.00000000 0.08179998
v 0.05840384 -0.00611603 0.08179998
v 0.05843162 -0.00610775 0.08189994
v 0.05747997 -0.01214951 0.08189994
v 0.00050000 0.05872148 0.08180058
v 0.00050000 0.05874794 0.08189994
v 0.00660497 0.05837762 0.08189994
v 0.01263833 0.05737459 0.08189994
v 0.01853471 0.05574977 0.08189994
v 0.02423030 0.05352067 0.08189994
v 0.02966320 0.05071157 0.08189994
v 0.03477466 0.04735285 0.08189994
v 0.03950917 0.04348093 0.08189994
v 0.04381555 0.03913778 0.08189994
v 0.04764705 0.03437042 0.08189994
v 0.05096215 0.02923059 0.08189994
v 0.05372488 0.02377396 0.08189994
v 0.05590540 0.01805967 0.08189994
v 0.05747997 0.01214963 0.08189994
v 0.05843162 0.00610793 0.08189994
v 0.05875003 0.00000000 0.08189994
v 0.05743998 -0.01220911 0.08179998
v 0.05590540 -0.01805955 0.08189994
v 0.05584907 -0.01814633 0.08179998
v 0.05372488 -0.02377378 0.08189994
v 0.05364632 -0.02388477 0.08179998
v 0.05096215 -0.02923047 0.08189994
v 0.05085581 -0.02936148 0.08179998
v 0.04764705 -0.03437024 0.08189994
v 0.04750806 -0.03451651 0.08179998
v 0.04381555 -0.03913760 0.08189994
v 0.04363983 -0.03929340 0.08179998
v 0.03950917 -0.04348075 0.08189994
v 0.03929346 -0.04363977 0.08179998
v 0.03477466 -0.04735267 0.08189994
v 0.03451663 -0.04750794 0.08179998
v 0.02966320 -0.05071139 0.08189994
v 0.02936160 -0.05085569 0.08179998
v 0.02423024 -0.05352050 0.08189994
v 0.02388489 -0.05364620 0.08179998
v 0.01853471 -0.05574953 0.08189994
v 0.01814645 -0.05584901 0.08179998
v 0.01263833 -0.05737441 0.08189994
v 0.01220923 -0.05743986 0.08179998
v 0.00660491 -0.05837744 0.08189994
v 0.00613821 -0.05840140 0.08179998
v 0.00050000 -0.05874776 0.08189994
v 0.00050000 -0.05872130 0.08180058
v 0.00050000 -0.05864900 0.08172744
v 0.00050000 -0.05864900 0.09507244
v 0.00613058 -0.05832862 0.09507316
v 0.00050000 -0.05854988 0.09509992
v 0.00620514 -0.05822014 0.09509998
v 0.00049998 -0.05854773 0.09509998
v 0.00613821 -0.05840140 0.09499996
v 0.00050000 -0.05872130 0.09499937
v 0.00050000 -0.05874776 0.09489995
v 0.00660491 -0.05837744 0.09489995
v 0.01220923 -0.05743986 0.09499996
v 0.01219397 -0.05736827 0.09507316
v 0.01812380 -0.05577933 0.09507316
v 0.01738446 -0.05590945 0.09509998
v 0.02275210 -0.05394846 0.09509998
v 0.02385509 -0.05357933 0.09507316
v 0.02790296 -0.05147343 0.09509998
v 0.02932500 -0.05079227 0.09507316
v 0.03278797 -0.04850816 0.09509998
v 0.03447359 -0.04744875 0.09507316
v 0.03736066 -0.04508072 0.09509998
v 0.03924453 -0.04358536 0.09507316
v 0.04157751 -0.04122382 0.09509998
v 0.04358541 -0.03924441 0.09507316
v 0.04539823 -0.03697431 0.09509998
v 0.04744881 -0.03447347 0.09507316
v 0.04878646 -0.03237247 0.09509998
v 0.05079239 -0.02932488 0.09507316
v 0.05170994 -0.02746224 0.09509998
v 0.05357944 -0.02385503 0.09507316
v 0.05414086 -0.02229046 0.09509998
v 0.05577945 -0.01812374 0.09507316
v 0.05605602 -0.01690638 0.09509998
v 0.05736833 -0.01219391 0.09507316
v 0.05743712 -0.01136112 0.09509998
v 0.05832988 -0.00611943 0.09507316
v 0.05827111 -0.00570768 0.09509998
v 0.05865001 0.00000000 0.09507316
v 0.05855000 0.00000000 0.09509998
v 0.05827111 0.00570786 0.09509998
v 0.05832988 0.00611961 0.09507316
v 0.05743712 0.01136124 0.09509998
v 0.05736833 0.01219403 0.09507316
v 0.05605602 0.01690649 0.09509998
v 0.05577945 0.01812386 0.09507316
v 0.05414086 0.02229064 0.09509998
v 0.05357944 0.02385514 0.09507316
v 0.05170994 0.02746242 0.09509998
v 0.05079239 0.02932506 0.09507316
v 0.04878646 0.03237265 0.09509998
v 0.04744887 0.03447365 0.09507316
v 0.04539823 0.03697443 0.09509992
v 0.04358541 0.03924459 0.09507316
v 0.04157751 0.04122400 0.09509992
v 0.03924453 0.04358547 0.09507316
v 0.03736072 0.04508084 0.09509992
v 0.03447359 0.04744893 0.09507316
v 0.03278797 0.04850828 0.09509992
v 0.02932500 0.05079245 0.09507316
v 0.02790296 0.05147361 0.09509992
v 0.02385509 0.05357950 0.09507316
v 0.02275210 0.05394858 0.09509992
v 0.01812386 0.05577951 0.09507316
v 0.01738446 0.05590963 0.09509992
v 0.01219397 0.05736845 0.09507316
v 0.01185131 0.05733805 0.09509992
v 0.00613058 0.05832880 0.09507316
v 0.00620520 0.05822032 0.09509992
v 0.00050000 0.05855005 0.09509992
v 0.00049998 0.05854791 0.09509992
v 0.00025000 0.05854952 0.09509992
v 0.00000000 0.05855005 0.09509992
v 0.01263833 -0.05737441 0.09489995
v 0.01814645 -0.05584901 0.09499996
v 0.01853471 -0.05574953 0.09489995
v 0.02388489 -0.05364620 0.09499996
v 0.02423024 -0.05352050 0.09489995
v 0.02936160 -0.05085569 0.09499996
v 0.02966320 -0.05071139 0.09489995
v 0.03451663 -0.04750794 0.09499996
v 0.03477466 -0.04735267 0.09489995
v 0.03929346 -0.04363977 0.09499996
v 0.03950917 -0.04348075 0.09489995
v 0.04363983 -0.03929340 0.09499996
v 0.04381555 -0.03913760 0.09489995
v 0.04750806 -0.03451651 0.09499996
v 0.04764705 -0.03437024 0.09489995
v 0.05085581 -0.02936148 0.09499996
v 0.05096215 -0.02923047 0.09489995
v 0.05364632 -0.02388477 0.09499996
v 0.05372488 -0.02377378 0.09489995
v 0.05584907 -0.01814633 0.09499996
v 0.05590540 -0.01805955 0.09489995
v 0.05743998 -0.01220911 0.09499996
v 0.05747997 -0.01214951 0.09489995
v 0.05840384 -0.00611603 0.09499996
v 0.05843162 -0.00610781 0.09489995
v 0.05872321 0.00000000 0.09499996
v 0.05840384 0.00611621 0.09499996
v 0.05743998 0.01220929 0.09499996
v 0.05875003 0.00000000 0.09489995
v 0.05843162 0.00610793 0.09489995
v 0.05747997 0.01214963 0.09489995
v 0.05590540 0.01805967 0.09489995
v 0.05584907 0.01814651 0.09499996
v 0.05372488 0.02377396 0.09489995
v 0.05364632 0.02388495 0.09499996
v 0.05096215 0.02923059 0.09489995
v 0.05085581 0.02936166 0.09499996
v 0.04764705 0.03437042 0.09489995
v 0.04750806 0.03451669 0.09499996
v 0.04381555 0.03913778 0.09489995
v 0.04363983 0.03929358 0.09499996
v 0.03950917 0.04348093 0.09489995
v 0.03929346 0.04363989 0.09499996
v 0.03477466 0.04735285 0.09489995
v 0.03451663 0.04750812 0.09499996
v 0.02966320 0.05071157 0.09489995
v 0.02936160 0.05085581 0.09499996
v 0.02423030 0.05352067 0.09489995
v 0.02388489 0.05364638 0.09499996
v 0.01853471 0.05574977 0.09489995
v 0.01814645 0.05584913 0.09499996
v 0.01263833 0.05737459 0.09489995
v 0.01220923 0.05744004 0.09499996
v 0.00660497 0.05837762 0.09489995
v 0.00613821 0.05840158 0.09499996
v 0.00050000 0.05874794 0.09489995
v 0.00050000 0.05872148 0.09499931
v 0.00050000 0.05864912 0.09507244
v 0.01185125 -0.05733793 0.09509998
v 0.00000000 -0.05854988 0.09509998
f 1 2 3
f 3 2 4
f 4 2 5
f 4 5 6
f 6 5 7
f 7 5 8
f 9 10 11
f 11 10 12
f 11 12 13
f 13 12 14
f 15 16 17
f 17 16 18
f 18 16 19
f 18 19 20
f 20 19 21
f 21 19 22
f 23 24 25
f 25 24 26
f 25 26 27
f 27 26 28
f 27 28 29
f 29 28 30
f 29 30 31
f 31 30 32
f 31 32 33
f 33 32 34
f 33 34 35
f 35 34 36
f 35 36 37
f 37 36 38
f 37 38 39
f 39 38 40
f 39 40 41
f 41 40 42
f 41 42 43
f 43 42 44
f 43 44 45
f 45 44 46
f 45 46 47
f 47 46 48
f 47 48 49
f 49 48 50
f 49 50 51
f 51 50 52
f 51 52 53
f 53 52 54
f 53 54 55
f 55 54 56
f 55 56 57
f 57 56 58
f 57 58 59
f 59 58 60
f 59 60 61
f 61 60 62
f 61 62 63
f 63 62 64
f 63 64 65
f 65 64 66
f 65 66 67
f 67 66 68
f 67 68 69
f 69 68 70
f 69 70 71
f 71 70 72
f 71 72 73
f 73 72 74
f 73 74 75
f 75 74 76
f 75 76 77
f 77 76 78
f 77 78 79
f 79 78 80
f 79 80 81
f 81 80 82
f 81 82 83
f 83 82 84
f 85 86 87
f 87 86 88
f 87 88 89
f 87 89 90
f 90 89 91
f 90 91 92
f 93 94 95
f 95 94 96
f 95 96 97
f 97 96 98
f 99 100 101
f 101 100 102
f 101 102 103
f 101 103 104
f 104 103 105
f 104 105 106
f 107 108 109
f 109 108 110
f 109 110 111
f 111 110 112
f 111 112 113
f 113 112 114
f 113 114 115
f 115 114 116
f 115 116 117
f 117 116 118
f 117 118 119
f 119 118 120
f 119 120 121
f 121 120 122
f 121 122 123
f 123 122 124
f 123 124 125
f 125 124 126
f 125 126 127
f 127 126 128
f 127 128 129
f 129 128 130
f 129 130 131
f 131 130 132
f 131 132 133
f 133 132 134
f 133 134 135
f 135 134 136
f 135 136 137
f 137 136 138
f 137 138 139
f 139 138 140
f 139 140 141
f 141 140 142
f 141 142 143
f 143 142 144
f 143 144 145
f 145 144 146
f 145 146 147
f 147 146 148
f 147 148 149
f 149 148 150
f 149 150 151
f 151 150 152
f 151 152 153
f 153 152 154
f 153 154 155
f 155 154 156
f 155 156 157
f 157 156 158
f 157 158 159
f 159 158 160
f 159 160 161
f 161 160 162
f 161 162 163
f 163 162 164
f 163 164 165
f 165 164 166
f 165 166 167
f 167 166 168
f 169 170 171
f 172 173 174
f 175 176 177
f 175 177 178
f 178 177 179
f 178 179 180
f 180 179 181
f 180 181 182
f 182 181 183
f 182 183 184
f 184 183 185
f 184 185 186
f 186 185 187
f 186 187 188
f 188 187 189
f 188 189 190
f 190 189 191
f 190 191 192
f 192 191 193
f 192 193 194
f 194 193 195
f 194 195 196
f 196 195 197
f 196 197 198
f 198 197 199
f 198 199 200
f 200 199 201
f 200 201 202
f 202 201 203
f 202 203 204
f 204 203 205
f 204 205 206
f 206 205 207
f 206 207 208
f 208 207 209
f 208 209 210
f 210 209 211
f 210 211 212
f 212 211 213
f 212 213 214
f 214 213 215
f 214 215 216
f 216 215 217
f 216 217 218
f 218 217 219
f 218 219 220
f 220 219 221
f 220 221 222
f 222 221 223
f 222 223 224
f 224 223 225
f 224 225 226
f 226 225 227
f 226 227 228
f 228 227 229
f 228 229 230
f 230 229 231
f 230 231 232
f 232 231 233
f 232 233 234
f 234 233 235
f 234 235 236
f 236 235 237
f 236 237 238
f 238 237 239
f 240 241 242
f 243 244 245
f 246 247 248
f 249 250 251
f 252 253 254
f 251 255 256
f 251 256 257
f 257 256 258
f 257 258 259
f 259 258 260
f 259 260 261
f 261 260 262
f 261 262 263
f 263 262 264
f 263 264 265
f 265 264 266
f 265 266 267
f 267 266 268
f 267 268 269
f 269 268 270
f 269 270 271
f 271 270 272
f 271 272 273
f 273 272 274
f 273 274 275
f 275 274 276
f 275 276 277
f 277 276 278
f 277 278 279
f 279 278 280
f 279 280 281
f 281 280 282
f 281 282 283
f 283 282 284
f 283 284 285
f 285 284 286
f 285 286 287
f 287 286 288
f 287 288 289
f 289 288 290
f 289 290 291
f 291 290 292
f 291 292 293
f 293 292 294
f 293 294 295
f 295 294 296
f 295 296 297
f 297 296 298
f 297 298 299
f 299 298 300
f 299 300 301
f 301 300 302
f 301 302 303
f 303 302 304
f 303 304 305
f 305 304 306
f 305 306 307
f 307 306 308
f 307 308 309
f 309 308 310
f 309 310 311
f 311 310 312
f 311 312 313
f 313 312 314
f 313 314 315
f 315 314 316
f 315 316 317
f 317 316 318
f 318 316 319
f 319 316 320
f 321 322 323
f 324 325 326
f 326 325 327
f 326 327 328
f 325 324 329
f 329 324 330
f 329 330 331
f 331 332 329
f 329 332 333
f 329 333 334
f 334 333 335
f 334 335 336
f 336 335 337
f 337 335 338
f 337 338 339
f 339 338 340
f 339 340 341
f 341 340 342
f 341 342 343
f 343 342 344
f 343 344 345
f 345 344 346
f 345 346 347
f 347 346 348
f 347 348 349
f 349 348 350
f 349 350 351
f 351 350 352
f 351 352 353
f 353 352 354
f 353 354 355
f 355 354 356
f 355 356 357
f 357 356 358
f 357 358 359
f 359 358 360
f 359 360 361
f 361 360 362
f 362 360 363
f 362 363 364
f 364 363 365
f 364 365 366
f 366 365 367
f 366 367 368
f 368 367 369
f 368 369 370
f 370 369 371
f 370 371 372
f 372 371 373
f 372 373 374
f 374 373 375
f 374 375 376
f 376 375 377
f 376 377 378
f 378 377 379
f 378 379 380
f 380 379 381
f 380 381 382
f 382 381 383
f 382 383 384
f 384 383 385
f 384 385 386
f 386 385 387
f 386 387 388
f 388 387 389
f 388 389 390
f 390 389 391
f 390 391 392
f 392 391 393
f 393 391 394
f 332 395 333
f 333 395 396
f 333 396 335
f 335 396 338
f 395 397 396
f 396 397 398
f 396 398 338
f 338 398 340
f 397 399 398
f 398 399 400
f 398 400 340
f 340 400 342
f 399 401 400
f 400 401 402
f 400 402 342
f 342 402 344
f 401 403 402
f 402 403 404
f 402 404 344
f 344 404 346
f 403 405 404
f 404 405 406
f 404 406 346
f 346 406 348
f 405 407 406
f 406 407 408
f 406 408 348
f 348 408 350
f 407 409 408
f 408 409 410
f 408 410 350
f 350 410 352
f 409 43 410
f 410 43 411
f 410 411 352
f 352 411 354
f 43 412 411
f 411 412 413
f 411 413 354
f 354 413 356
f 412 414 413
f 413 414 415
f 413 415 356
f 356 415 358
f 414 416 415
f 415 416 417
f 415 417 358
f 358 417 360
f 416 418 417
f 417 418 419
f 417 419 360
f 360 419 420
f 360 420 363
f 363 420 421
f 363 421 365
f 365 421 367
f 418 422 419
f 419 422 423
f 419 423 420
f 420 423 424
f 420 424 421
f 421 424 425
f 421 425 426
f 426 425 427
f 426 427 428
f 428 427 429
f 428 429 430
f 430 429 431
f 430 431 432
f 432 431 433
f 432 433 434
f 434 433 435
f 434 435 436
f 436 435 437
f 436 437 438
f 438 437 439
f 438 439 440
f 440 439 441
f 440 441 442
f 442 441 443
f 442 443 444
f 444 443 445
f 444 445 446
f 446 445 447
f 446 447 448
f 448 447 449
f 448 449 450
f 450 451 448
f 448 451 389
f 448 389 446
f 446 389 387
f 446 387 444
f 444 387 385
f 444 385 442
f 442 385 383
f 442 383 440
f 440 383 381
f 440 381 438
f 438 381 379
f 438 379 436
f 436 379 377
f 436 377 434
f 434 377 375
f 434 375 432
f 432 375 373
f 432 373 430
f 430 373 371
f 430 371 428
f 428 371 369
f 428 369 426
f 426 369 367
f 426 367 421
f 451 391 389
f 336 452 334
f 334 452 325
f 334 325 329
f 452 327 325
f 328 453 326
f 454 455 456
f 456 455 457
f 456 457 458
f 456 458 459
f 459 458 460
f 459 460 461
f 461 460 462
f 461 462 463
f 463 462 464
f 463 464 465
f 465 464 466
f 465 466 467
f 467 466 468
f 467 468 469
f 469 468 470
f 469 470 471
f 471 470 472
f 471 472 473
f 473 472 474
f 473 474 475
f 475 474 476
f 475 476 477
f 477 476 478
f 477 478 479
f 479 478 480
f 479 480 481
f 481 480 482
f 481 482 483
f 483 482 484
f 483 484 485
f 485 484 486
f 485 486 487
f 487 486 488
f 487 488 489
f 487 489 490
f 490 489 491
f 490 491 492
f 492 491 493
f 492 493 494
f 494 493 495
f 494 495 496
f 496 495 497
f 496 497 498
f 498 497 499
f 498 499 500
f 500 499 501
f 500 501 502
f 502 501 503
f 502 503 504
f 504 503 505
f 504 505 506
f 506 505 507
f 506 507 508
f 508 507 509
f 508 509 510
f 510 509 511
f 510 511 512
f 512 511 513
f 512 513 514
f 514 513 515
f 514 515 516
f 516 515 517
f 516 517 518
f 518 517 519
f 518 519 520
f 518 521 516
f 516 521 522
f 516 522 514
f 514 522 523
f 514 523 512
f 512 523 524
f 512 524 510
f 510 524 525
f 510 525 508
f 508 525 526
f 508 526 506
f 506 526 527
f 506 527 504
f 504 527 528
f 504 528 502
f 502 528 529
f 502 529 500
f 500 529 530
f 500 530 498
f 498 530 531
f 498 531 496
f 496 531 532
f 496 532 494
f 494 532 533
f 494 533 492
f 492 533 534
f 492 534 490
f 490 534 535
f 490 535 487
f 487 535 536
f 487 536 537
f 537 536 538
f 537 538 539
f 521 540 522
f 522 540 541
f 522 541 542
f 522 542 523
f 523 542 543
f 523 543 524
f 524 543 544
f 524 544 525
f 525 544 76
f 525 76 526
f 526 76 545
f 526 545 527
f 527 545 546
f 527 546 528
f 528 546 547
f 528 547 529
f 529 547 548
f 529 548 530
f 530 548 549
f 530 549 531
f 531 549 550
f 531 550 532
f 532 550 551
f 532 551 533
f 533 551 552
f 533 552 534
f 534 552 553
f 534 553 535
f 535 553 554
f 535 554 536
f 536 554 555
f 536 555 538
f 537 539 556
f 556 539 557
f 556 557 558
f 558 557 559
f 558 559 560
f 560 559 44
f 560 44 561
f 561 44 562
f 561 562 563
f 563 562 564
f 563 564 565
f 565 564 38
f 565 38 566
f 566 38 567
f 566 567 568
f 568 567 569
f 568 569 570
f 570 569 571
f 570 571 572
f 572 571 573
f 572 573 574
f 574 573 575
f 574 575 576
f 576 575 577
f 576 577 578
f 578 577 579
f 578 579 580
f 580 581 578
f 578 581 459
f 578 459 576
f 576 459 461
f 576 461 574
f 574 461 463
f 574 463 572
f 572 463 465
f 572 465 570
f 570 465 467
f 570 467 568
f 568 467 469
f 568 469 566
f 566 469 471
f 566 471 565
f 565 471 473
f 565 473 563
f 563 473 475
f 563 475 561
f 561 475 477
f 561 477 560
f 560 477 479
f 560 479 558
f 558 479 481
f 558 481 556
f 556 481 483
f 556 483 485
f 581 456 459
f 537 556 485
f 487 537 485
f 582 583 584
f 584 583 585
f 584 585 586
f 584 586 587
f 587 586 588
f 587 588 589
f 589 588 590
f 589 590 591
f 591 590 592
f 591 592 593
f 593 592 594
f 593 594 595
f 595 594 596
f 595 596 597
f 597 596 598
f 597 598 599
f 599 598 600
f 599 600 601
f 601 600 602
f 601 602 603
f 603 602 604
f 603 604 605
f 605 604 606
f 605 606 607
f 607 606 608
f 607 608 609
f 609 608 610
f 609 610 611
f 611 610 612
f 611 612 613
f 613 612 614
f 613 614 615
f 615 614 616
f 615 616 287
f 615 287 617
f 617 287 618
f 617 618 619
f 619 618 620
f 619 620 621
f 621 620 622
f 621 622 623
f 623 622 624
f 623 624 625
f 625 624 626
f 625 626 627
f 627 626 628
f 627 628 629
f 629 628 630
f 629 630 631
f 631 630 632
f 631 632 633
f 633 632 634
f 633 634 635
f 635 634 636
f 635 636 637
f 637 636 638
f 637 638 639
f 639 638 640
f 639 640 641
f 641 640 642
f 641 642 643
f 643 642 644
f 643 644 645
f 645 644 646
f 645 646 647
f 645 648 643
f 643 648 649
f 643 649 641
f 641 649 650
f 641 650 639
f 639 650 651
f 639 651 637
f 637 651 652
f 637 652 635
f 635 652 653
f 635 653 633
f 633 653 654
f 633 654 631
f 631 654 655
f 631 655 629
f 629 655 656
f 629 656 627
f 627 656 657
f 627 657 625
f 625 657 658
f 625 658 623
f 623 658 659
f 623 659 621
f 621 659 660
f 621 660 619
f 619 660 661
f 619 661 617
f 617 661 662
f 617 662 615
f 615 662 663
f 615 663 664
f 664 663 665
f 664 665 666
f 648 667 649
f 649 667 668
f 649 668 669
f 649 669 650
f 650 669 670
f 650 670 651
f 651 670 671
f 651 671 652
f 652 671 672
f 652 672 653
f 653 672 673
f 653 673 654
f 654 673 674
f 654 674 655
f 655 674 675
f 655 675 656
f 656 675 676
f 656 676 657
f 657 676 677
f 657 677 658
f 658 677 678
f 658 678 659
f 659 678 679
f 659 679 660
f 660 679 680
f 660 680 661
f 661 680 681
f 661 681 662
f 662 681 682
f 662 682 663
f 663 682 683
f 663 683 665
f 664 666 684
f 684 666 685
f 684 685 686
f 686 685 687
f 686 687 688
f 688 687 689
f 688 689 690
f 690 689 691
f 690 691 692
f 692 691 693
f 692 693 694
f 694 693 695
f 694 695 696
f 696 695 697
f 696 697 698
f 698 697 699
f 698 699 700
f 700 699 701
f 700 701 702
f 702 701 703
f 702 703 704
f 704 703 705
f 704 705 706
f 706 705 707
f 706 707 708
f 708 707 709
f 708 709 710
f 710 711 708
f 708 711 587
f 708 587 706
f 706 587 589
f 706 589 704
f 704 589 591
f 704 591 702
f 702 591 593
f 702 593 700
f 700 593 595
f 700 595 698
f 698 595 597
f 698 597 696
f 696 597 599
f 696 599 694
f 694 599 601
f 694 601 692
f 692 601 603
f 692 603 690
f 690 603 605
f 690 605 688
f 688 605 607
f 688 607 686
f 686 607 609
f 686 609 684
f 684 609 611
f 684 611 613
f 711 584 587
f 664 684 613
f 615 664 613
f 712 713 714
f 714 713 715
f 714 715 716
f 713 712 717
f 717 712 718
f 717 718 719
f 719 720 717
f 717 720 721
f 717 721 722
f 722 721 723
f 722 723 724
f 724 723 725
f 725 723 726
f 725 726 727
f 727 726 728
f 727 728 729
f 729 728 730
f 729 730 731
f 731 730 732
f 731 732 733
f 733 732 734
f 733 734 735
f 735 734 736
f 735 736 737
f 737 736 738
f 737 738 739
f 739 738 740
f 739 740 741
f 741 740 742
f 741 742 743
f 743 742 744
f 743 744 745
f 745 744 746
f 745 746 747
f 747 746 748
f 747 748 749
f 749 748 750
f 750 748 751
f 750 751 752
f 752 751 753
f 752 753 754
f 754 753 755
f 754 755 756
f 756 755 757
f 756 757 758
f 758 757 759
f 758 759 760
f 760 759 761
f 760 761 762
f 762 761 763
f 762 763 764
f 764 763 765
f 764 765 766
f 766 765 767
f 766 767 768
f 768 767 769
f 768 769 770
f 770 769 771
f 770 771 772
f 772 771 773
f 772 773 774
f 774 773 775
f 774 775 776
f 776 775 777
f 776 777 778
f 778 777 779
f 778 779 780
f 780 779 781
f 781 779 782
f 720 783 721
f 721 783 784
f 721 784 723
f 723 784 726
f 783 785 784
f 784 785 786
f 784 786 726
f 726 786 728
f 785 787 786
f 786 787 788
f 786 788 728
f 728 788 730
f 787 789 788
f 788 789 790
f 788 790 730
f 730 790 732
f 789 791 790
f 790 791 792
f 790 792 732
f 732 792 734
f 791 793 792
f 792 793 794
f 792 794 734
f 734 794 736
f 793 795 794
f 794 795 796
f 794 796 736
f 736 796 738
f 795 797 796
f 796 797 798
f 796 798 738
f 738 798 740
f 797 799 798
f 798 799 800
f 798 800 740
f 740 800 742
f 799 801 800
f 800 801 802
f 800 802 742
f 742 802 744
f 801 803 802
f 802 803 804
f 802 804 744
f 744 804 746
f 803 805 804
f 804 805 806
f 804 806 746
f 746 806 748
f 805 807 806
f 806 807 808
f 806 808 748
f 748 808 809
f 748 809 751
f 751 809 810
f 751 810 753
f 753 810 755
f 807 811 808
f 808 811 812
f 808 812 809
f 809 812 813
f 809 813 810
f 810 813 814
f 810 814 815
f 815 814 816
f 815 816 817
f 817 816 818
f 817 818 819
f 819 818 820
f 819 820 821
f 821 820 822
f 821 822 823
f 823 822 824
f 823 824 825
f 825 824 826
f 825 826 827
f 827 826 828
f 827 828 829
f 829 828 830
f 829 830 831
f 831 830 832
f 831 832 833
f 833 832 834
f 833 834 835
f 835 834 836
f 835 836 837
f 837 836 838
f 837 838 839
f 839 840 837
f 837 840 777
f 837 777 835
f 835 777 775
f 835 775 833
f 833 775 773
f 833 773 831
f 831 773 771
f 831 771 829
f 829 771 769
f 829 769 827
f 827 769 767
f 827 767 825
f 825 767 765
f 825 765 823
f 823 765 763
f 823 763 821
f 821 763 761
f 821 761 819
f 819 761 759
f 819 759 817
f 817 759 757
f 817 757 815
f 815 757 755
f 815 755 810
f 840 779 777
f 724 841 722
f 722 841 713
f 722 713 717
f 841 715 713
f 716 842 714

