# https://github.com/mikedh/trimesh
v 0.00012498 -0.05530005 -0.03834980
v 0.00000000 -0.05530005 -0.03834998
v 0.00000000 -0.05530005 0.03834974
v -0.00025000 -0.05530005 -0.03834921
v 0.00000000 -0.05530005 0.03834974
v -0.00025000 -0.05530005 -0.03834921
v -0.00049997 -0.05530005 -0.03834676
v -0.00049997 -0.05530005 -0.03834676
v -0.00374341 -0.05530005 0.03816664
v -0.00424063 -0.05530005 -0.03811484
v -0.00745106 -0.05530005 0.03761899
v -0.00794083 -0.05530005 -0.03751879
v -0.01108753 -0.05530005 0.03671216
v -0.01156520 -0.05530005 -0.03656458
v -0.01461815 -0.05530005 0.03545439
v -0.01507908 -0.05530005 -0.03526103
v -0.01800912 -0.05530005 0.03385818
v -0.01844900 -0.05530005 -0.03362071
v -0.02122807 -0.05530005 0.03193861
v -0.02164268 -0.05530005 -0.03165936
v -0.02424430 -0.05530005 0.02971404
v -0.02462965 -0.05530005 -0.02939563
v -0.02702903 -0.05530005 0.02720564
v -0.02738136 -0.05530005 -0.02685117
v -0.02955555 -0.05530005 0.02443736
v -0.02987158 -0.05530005 -0.02405029
v -0.03179979 -0.05530005 0.02143579
v -0.03207653 -0.05530005 -0.02101939
v -0.03374034 -0.05530005 0.01822942
v -0.03397512 -0.05530005 -0.01778799
v -0.03535860 -0.05530005 0.01484888
v -0.03554916 -0.05530005 -0.01438677
v -0.03663915 -0.05530005 0.01132655
v -0.03678369 -0.05529999 -0.01084804
v -0.03756982 -0.05530005 0.00769609
v -0.03766697 -0.05530005 -0.00720572
v -0.03814166 -0.05530005 0.00399208
v -0.03819042 -0.05530005 -0.00349456
v -0.03814166 -0.05530005 0.00399208
v -0.03834915 -0.05530005 0.00024994
v 0.00374335 -0.05530005 0.03816664
v 0.00049994 -0.05530005 -0.03834676
v 0.00037496 -0.05530005 -0.03834813
v 0.00000000 -0.05530005 0.03834974
v 0.00037496 -0.05530005 -0.03834813
v 0.00024997 -0.05530005 -0.03834921
v 0.00424063 -0.05530005 -0.03811484
v 0.00745100 -0.05530005 0.03761899
v 0.00794083 -0.05530005 -0.03751879
v 0.01108753 -0.05530005 0.03671216
v 0.01156514 -0.05530005 -0.03656458
v 0.01461809 -0.05530005 0.03545439
v 0.01507908 -0.05530005 -0.03526103
v 0.01800906 -0.05530005 0.03385818
v 0.01844894 -0.05530005 -0.03362071
v 0.02122807 -0.05530005 0.03193861
v 0.02164262 -0.05530005 -0.03165936
v 0.02424430 -0.05530005 0.02971404
v 0.02462959 -0.05530005 -0.02939563
v 0.02702897 -0.05530005 0.02720564
v 0.02738136 -0.05530005 -0.02685117
v 0.02955549 -0.05530005 0.02443736
v 0.02987158 -0.05530005 -0.02405029
v 0.03179973 -0.05530005 0.02143579
v 0.03207647 -0.05530005 -0.02101939
v 0.03374028 -0.05530005 0.01822942
v 0.03397506 -0.05530005 -0.01778799
v 0.03535854 -0.05530005 0.01484888
v 0.03554916 -0.05530005 -0.01438677
v 0.03663915 -0.05530005 0.01132655
v 0.03554916 -0.05530005 -0.01438677
v 0.03663915 -0.05530005 0.01132655
v 0.03678369 -0.05530005 -0.01084804
v 0.03678369 -0.05530005 -0.01084804
v 0.03756976 -0.05530005 0.00769609
v 0.03766691 -0.05530005 -0.00720572
v 0.03814160 -0.05530005 0.00399208
v 0.03814160 -0.05530005 0.00399208
v 0.03819042 -0.05530005 -0.00349456
v 0.03819042 -0.05530005 -0.00349456
v 0.03814160 -0.05530005 0.00399208
v 0.03834915 -0.05530005 0.00024994
v 0.00024997 -0.05530005 -0.03834921
v -0.00050002 -0.05580639 0.03854656
v -0.00050002 -0.05550003 0.03854656
v -0.00448298 -0.05583703 0.03828734
v -0.00463045 -0.05550003 0.03827071
v -0.00841868 -0.05583965 0.03761821
v -0.00870752 -0.05550003 0.03755354
v -0.01226472 -0.05583125 0.03654688
v -0.01268422 -0.05550003 0.03640317
v -0.01509600 -0.05582815 0.03547179
v -0.01651459 -0.05550003 0.03483319
v -0.01875060 -0.05582940 0.03368085
v -0.02015459 -0.05550003 0.03286147
v -0.02219647 -0.05582982 0.03151577
v -0.02356213 -0.05550003 0.03051096
v -0.02539652 -0.05583029 0.02900111
v -0.02669799 -0.05550003 0.02780848
v -0.02743440 -0.05583178 0.02708280
v -0.02952593 -0.05550003 0.02478528
v -0.03010976 -0.05583328 0.02407085
v -0.03201347 -0.05550003 0.02147650
v -0.03245657 -0.05583119 0.02079653
v -0.03413176 -0.05550003 0.01791989
v -0.03445100 -0.05582684 0.01729625
v -0.03585654 -0.05550003 0.01415652
v -0.03566396 -0.05582374 0.01463496
v -0.03699177 -0.05582344 0.01084518
v -0.03716778 -0.05550003 0.01023000
v -0.03780990 -0.05582374 0.00750768
v -0.03805047 -0.05550003 0.00618559
v -0.03836393 -0.05581820 0.00377166
v -0.03849440 -0.05550003 0.00206965
v -0.03854995 -0.05580002 0.00000000
v -0.03849440 -0.05550003 -0.00206983
v -0.03855001 -0.05817133 0.00000114
v -0.03834265 -0.06550002 -0.00399280
v -0.03855037 -0.06550002 0.00000465
v -0.03805047 -0.05550003 -0.00618565
v -0.03772211 -0.06550002 -0.00794637
v -0.03716778 -0.05550003 -0.01023012
v -0.03669494 -0.06550002 -0.01181447
v -0.03585654 -0.05550003 -0.01415669
v -0.03527235 -0.06550002 -0.01555526
v -0.03413176 -0.05550003 -0.01791989
v -0.03346955 -0.06550002 -0.01912826
v -0.03201347 -0.05550003 -0.02147650
v -0.03130608 -0.06550002 -0.02249509
v -0.02952593 -0.05550003 -0.02478551
v -0.02880519 -0.06550002 -0.02561956
v -0.02669799 -0.05550003 -0.02780866
v -0.02599388 -0.06550002 -0.02846789
v -0.02356213 -0.05550003 -0.03051114
v -0.02290236 -0.06550002 -0.03100931
v -0.02015459 -0.05550003 -0.03286176
v -0.01956409 -0.06550002 -0.03321677
v -0.01651459 -0.05550003 -0.03483343
v -0.01601487 -0.06550002 -0.03506606
v -0.01268422 -0.05550003 -0.03640347
v -0.01229310 -0.06550002 -0.03653746
v -0.00870752 -0.05550003 -0.03755366
v -0.00843882 -0.06550002 -0.03761494
v -0.00463045 -0.05550003 -0.03827083
v -0.00449365 -0.06550002 -0.03828722
v -0.00050002 -0.05550003 -0.03854680
v -0.00050002 -0.06550002 -0.03854680
v -0.03855001 -0.06309604 0.00000359
v -0.03855001 -0.06063371 0.00000244
v -0.00049997 -0.06570005 -0.03834676
v 0.00000000 -0.06570005 -0.03834998
v 0.00049998 -0.06570005 0.04197067
v 0.00049994 -0.06570005 -0.03834676
v 0.00422549 -0.06570005 -0.03811651
v 0.03834998 -0.06570005 0.00000671
v 0.00791109 -0.06570005 -0.03752517
v 0.01152169 -0.06570005 -0.03657835
v 0.01502317 -0.06570005 -0.03528493
v 0.01838231 -0.06570005 -0.03365737
v 0.02156728 -0.06570005 -0.03171080
v 0.02454793 -0.06570005 -0.02946382
v 0.02729606 -0.06570005 -0.02693784
v 0.02729606 -0.06570005 -0.02693784
v 0.02978557 -0.06570005 -0.02415657
v 0.02978557 -0.06570005 -0.02415657
v 0.03199291 -0.06570005 -0.02114635
v 0.03389716 -0.06570005 -0.01793593
v 0.03548032 -0.06570005 -0.01455557
v 0.03672730 -0.06570005 -0.01103740
v 0.03762638 -0.06570005 -0.00741470
v 0.03816896 -0.06570005 -0.00372159
v 0.03838682 -0.06570005 0.00399494
v 0.01224118 -0.06570005 0.04005873
v 0.00871271 -0.06570005 0.04103618
v 0.00517970 -0.06570005 0.04166513
v 0.03817921 -0.06570005 0.00789493
v 0.03751921 -0.06570005 0.01200854
v 0.03838682 -0.06570005 0.00399494
v 0.03751921 -0.06570005 0.01200854
v 0.03655123 -0.06570005 0.01559710
v 0.03838682 -0.06570005 0.00399494
v 0.03655123 -0.06570005 0.01559710
v 0.03651565 -0.06570005 0.01570677
v 0.03651565 -0.06570005 0.01570677
v 0.03569227 -0.06570005 0.01798444
v 0.03472888 -0.06570005 0.02019894
v 0.03325510 -0.06570005 0.02300363
v 0.03204351 -0.06570005 0.02495253
v 0.03071057 -0.06570005 0.02683269
v 0.02868431 -0.06570005 0.02929502
v 0.02606201 -0.06570005 0.03194880
v 0.02606201 -0.06570005 0.03194880
v 0.02282291 -0.06570005 0.03460735
v 0.02282291 -0.06570005 0.03460735
v 0.02061784 -0.06570005 0.03610759
v 0.01855850 -0.06570005 0.03731763
v 0.01595616 -0.06570005 0.03861463
v 0.00517970 -0.06570005 0.04166513
v 0.00344020 -0.06570005 0.04185104
v 0.00344020 -0.06570005 0.04185104
v 0.00049998 -0.06570005 0.04198008
v 0.00049998 -0.06570005 0.04197067
v -0.00345045 -0.06570005 0.04185253
v -0.00791067 -0.06570005 -0.03752517
v -0.00422531 -0.06570005 -0.03811651
v -0.00725073 -0.06570005 0.04134684
v -0.01502239 -0.06570005 -0.03528529
v -0.01152110 -0.06570005 -0.03657859
v -0.01838141 -0.06570005 -0.03365778
v -0.01112860 -0.06570005 0.04041117
v -0.01298451 -0.06570005 0.03980803
v -0.01522040 -0.06570005 0.03893733
v -0.03836429 -0.06570005 0.00489348
v -0.03835034 -0.06570005 0.00000328
v -0.03816866 -0.06570005 -0.00372469
v -0.01788383 -0.06570005 0.03767913
v -0.02043414 -0.06570005 0.03622359
v -0.02222502 -0.06570005 0.03503674
v -0.02520114 -0.06570005 0.03271311
v -0.02829968 -0.06570005 0.02971768
v -0.03016513 -0.06570005 0.02753722
v -0.03184419 -0.06570005 0.02524882
v -0.03311294 -0.06570005 0.02324640
v -0.03836429 -0.06570005 0.00489348
v -0.03311294 -0.06570005 0.02324640
v -0.03465592 -0.06570005 0.02035361
v -0.03465592 -0.06570005 0.02035361
v -0.03588199 -0.06570005 0.01749902
v -0.03588199 -0.06570005 0.01749902
v -0.03642582 -0.06570005 0.01597905
v -0.03716039 -0.06570005 0.01350486
v -0.03765845 -0.06570005 0.01133304
v -0.03815752 -0.06570005 0.00809956
v -0.03762578 -0.06570005 -0.00741756
v -0.03672653 -0.06570005 -0.01104009
v -0.03547936 -0.06570005 -0.01455801
v -0.03389614 -0.06570005 -0.01793807
v -0.03199177 -0.06570005 -0.02114814
v -0.02978444 -0.06570005 -0.02415806
v -0.02729493 -0.06570005 -0.02693903
v -0.02454686 -0.06570005 -0.02946484
v -0.02156627 -0.06570005 -0.03171145
v 0.00424594 -0.05584430 0.03831446
v 0.00049998 -0.05580729 0.03854656
v 0.00292736 -0.05762052 0.03846842
v 0.00049998 -0.05858671 0.03855466
v 0.00294602 -0.05857664 0.03848356
v 0.00295532 -0.05905461 0.03849148
v 0.00541472 -0.05904138 0.03826731
v 0.00544655 -0.05999046 0.03829264
v 0.00789642 -0.05997139 0.03791987
v 0.00792998 -0.06068080 0.03794246
v 0.01035600 -0.06065714 0.03741818
v 0.00796711 -0.06148499 0.03805005
v 0.01040327 -0.06145173 0.03752714
v 0.01045924 -0.06221741 0.03787165
v 0.01294994 -0.06217426 0.03714919
v 0.01048910 -0.06254470 0.03812235
v 0.01298582 -0.06250131 0.03738826
v 0.01301103 -0.06276530 0.03761744
v 0.01545011 -0.06272310 0.03670513
v 0.01550614 -0.06324714 0.03713530
v 0.01903373 -0.06318908 0.03542965
v 0.01910156 -0.06372320 0.03583127
v 0.02243548 -0.06366986 0.03374338
v 0.02263772 -0.06510871 0.03472471
v 0.02575033 -0.06507277 0.03221815
v 0.02513647 -0.06540048 0.03299880
v 0.02621662 -0.06540435 0.03204524
v 0.00049998 -0.05897414 0.03855586
v 0.00049998 -0.05916786 0.03855663
v 0.00297391 -0.06000936 0.03850644
v 0.00049998 -0.05944460 0.03855800
v 0.00049998 -0.06002807 0.03855895
v 0.00298792 -0.06072741 0.03851485
v 0.00049998 -0.06075048 0.03855848
v 0.00049998 -0.06158125 0.03865152
v 0.00300354 -0.06154984 0.03861463
v 0.00049998 -0.06195962 0.03878885
v 0.00302052 -0.06233686 0.03899013
v 0.00049998 -0.06237405 0.03903406
v 0.00049998 -0.06269848 0.03932291
v 0.00049998 -0.06295454 0.03958630
v 0.00303423 -0.06291902 0.03953027
v 0.00302887 -0.06266427 0.03926908
v 0.00552791 -0.06229794 0.03878062
v 0.00549704 -0.06151771 0.03841352
v 0.00547045 -0.06070423 0.03830885
v 0.00304437 -0.06341886 0.04003977
v 0.00049998 -0.06535494 0.04211771
v 0.00305474 -0.06392180 0.04055356
v 0.00308210 -0.06525671 0.04191827
v 0.00564915 -0.06524235 0.04163217
v 0.00375462 -0.06535929 0.04196548
v 0.00548381 -0.06536185 0.04176950
v 0.00818974 -0.06522697 0.04117339
v 0.00881666 -0.06536644 0.04116451
v 0.01069247 -0.06521064 0.04054546
v 0.01204764 -0.06537014 0.04028105
v 0.01323592 -0.06519258 0.03971934
v 0.01368457 -0.06537216 0.03971523
v 0.01571375 -0.06517338 0.03871822
v 0.01597982 -0.06537610 0.03877592
v 0.01928097 -0.06514233 0.03689998
v 0.01961499 -0.06538474 0.03690749
v 0.02286607 -0.06539338 0.03478544
v 0.02858507 -0.06503462 0.02940654
v 0.02875298 -0.06541490 0.02948909
v 0.03058487 -0.06542366 0.02730101
v 0.03110951 -0.06499463 0.02631831
v 0.03144305 -0.06542807 0.02615076
v 0.03329980 -0.06495368 0.02298837
v 0.03344148 -0.06543928 0.02306151
v 0.03513491 -0.06491249 0.01945322
v 0.03502511 -0.06545019 0.02002280
v 0.03570830 -0.06545549 0.01846438
v 0.03659403 -0.06487202 0.01574909
v 0.03668874 -0.06546401 0.01581031
v 0.03765982 -0.06483304 0.01191473
v 0.03773027 -0.06547540 0.01197093
v 0.03832036 -0.06479614 0.00799215
v 0.03836792 -0.06548607 0.00800735
v 0.03856945 -0.06476187 0.00402308
v 0.03858673 -0.06549531 0.00399494
v 0.03854995 -0.06550002 0.00000465
v 0.03854995 -0.06309765 0.00000359
v 0.03853142 -0.06314176 0.00392783
v 0.03822666 -0.06319642 0.00780415
v 0.03819161 -0.06259638 0.00773358
v 0.03746783 -0.06266117 0.01152259
v 0.03741556 -0.06206887 0.01141566
v 0.03628671 -0.06214326 0.01507431
v 0.03625369 -0.06185024 0.01500171
v 0.03474283 -0.06192946 0.01850759
v 0.03621935 -0.06154382 0.01493513
v 0.03470194 -0.06162059 0.01842266
v 0.03615069 -0.06090319 0.01484364
v 0.03462070 -0.06096816 0.01830494
v 0.03608304 -0.06025081 0.01481199
v 0.03454166 -0.06030291 0.01826250
v 0.03601664 -0.05960887 0.01480054
v 0.03446489 -0.05965417 0.01824605
v 0.03436261 -0.05878961 0.01822280
v 0.03245455 -0.05882358 0.02148878
v 0.03239881 -0.05838680 0.02147334
v 0.03016674 -0.05841392 0.02453058
v 0.03005057 -0.05753135 0.02449291
v 0.02751964 -0.05754739 0.02730679
v 0.02846264 -0.05583220 0.02599942
v 0.02776753 -0.05582946 0.02674055
v 0.03851717 -0.06253415 0.00389194
v 0.03854995 -0.06063687 0.00000244
v 0.03850299 -0.06192660 0.00385624
v 0.03849589 -0.06162279 0.00383824
v 0.03813898 -0.06169641 0.00762767
v 0.03848880 -0.06131732 0.00382179
v 0.03812134 -0.06139183 0.00759542
v 0.03847461 -0.06069964 0.00379932
v 0.03808599 -0.06076884 0.00755179
v 0.03846043 -0.06007772 0.00379163
v 0.03805071 -0.06013840 0.00753778
v 0.03844630 -0.05945587 0.00378883
v 0.03801560 -0.05950987 0.00753367
v 0.03796881 -0.05867183 0.00752783
v 0.03713351 -0.05871397 0.01120692
v 0.03709846 -0.05829048 0.01120173
v 0.03588396 -0.05832517 0.01477605
v 0.03579545 -0.05746930 0.01475971
v 0.03420913 -0.05749249 0.01818752
v 0.03485411 -0.05583101 0.01647108
v 0.03446614 -0.05583399 0.01726782
v 0.03854995 -0.05817610 0.00000114
v 0.03854995 -0.05580002 0.00000000
v 0.03850394 -0.05581551 0.00187492
v 0.03839927 -0.05738300 0.00377893
v 0.03841805 -0.05821216 0.00378287
v 0.03789865 -0.05741477 0.00751883
v 0.03794538 -0.05825281 0.00752479
v 0.03702843 -0.05744349 0.01119142
v 0.03844791 -0.05582219 0.00279427
v 0.03837853 -0.05582952 0.00362271
v 0.03814303 -0.05584418 0.00558120
v 0.03778040 -0.05584436 0.00766075
v 0.03755122 -0.05583965 0.00871473
v 0.03749245 -0.05583846 0.00896412
v 0.03746443 -0.05583816 0.00908041
v 0.03739494 -0.05583763 0.00936282
v 0.03694492 -0.05583608 0.01100742
v 0.03660464 -0.05583125 0.01209139
v 0.03635013 -0.05583167 0.01283717
v 0.03604561 -0.05583178 0.01366984
v 0.03563332 -0.05583018 0.01471096
v 0.03417980 -0.05583685 0.01782774
v 0.03394037 -0.05583840 0.01827931
v 0.03350555 -0.05584019 0.01906406
v 0.03292608 -0.05584168 0.02004778
v 0.03228729 -0.05751311 0.02144259
v 0.03431147 -0.05835723 0.01821094
v 0.03215801 -0.05584281 0.02125781
v 0.03139942 -0.05584311 0.02236324
v 0.03074914 -0.05584263 0.02324962
v 0.03022807 -0.05584150 0.02392363
v 0.02990072 -0.05584013 0.02433162
v 0.02737051 -0.05582863 0.02714675
v 0.02697861 -0.05582880 0.02753627
v 0.02644193 -0.05583029 0.02805203
v 0.02569425 -0.05583316 0.02873837
v 0.02471679 -0.05756151 0.02985453
v 0.02763611 -0.05843883 0.02735072
v 0.02482926 -0.05846184 0.02990323
v 0.02769428 -0.05888456 0.02737289
v 0.02488553 -0.05891197 0.02992767
v 0.02781063 -0.05977547 0.02741664
v 0.02499794 -0.05981165 0.02997618
v 0.02789801 -0.06044447 0.02744793
v 0.02508234 -0.06048738 0.03001093
v 0.02517324 -0.06121277 0.03009760
v 0.02209740 -0.06127017 0.03237438
v 0.02219378 -0.06199270 0.03263515
v 0.01888489 -0.06206244 0.03461974
v 0.01893198 -0.06238782 0.03482693
v 0.01542067 -0.06245678 0.03648602
v 0.01896691 -0.06265759 0.03503018
v 0.02480322 -0.05583697 0.02951061
v 0.02434468 -0.05583900 0.02989012
v 0.02408748 -0.05583989 0.03009760
v 0.02346974 -0.05584126 0.03058165
v 0.02251458 -0.05584192 0.03129118
v 0.02167117 -0.05757397 0.03211349
v 0.02179950 -0.05584174 0.03179317
v 0.02128249 -0.05584138 0.03214156
v 0.02064621 -0.05584073 0.03255414
v 0.01953971 -0.05583918 0.03323012
v 0.01841437 -0.05758494 0.03406202
v 0.01872301 -0.05583757 0.03369730
v 0.01804262 -0.05583560 0.03406673
v 0.01765340 -0.05583363 0.03426998
v 0.01688665 -0.05582922 0.03465437
v 0.01497763 -0.05759465 0.03567928
v 0.01519805 -0.05582648 0.03542810
v 0.01427412 -0.05582821 0.03581053
v 0.01322841 -0.05583184 0.03620970
v 0.01260209 -0.05760055 0.03656339
v 0.01505738 -0.05852162 0.03572857
v 0.01267093 -0.05853348 0.03660929
v 0.01509720 -0.05898511 0.03575360
v 0.01270532 -0.05899995 0.03663235
v 0.01517689 -0.05991113 0.03580260
v 0.01277405 -0.05993181 0.03667795
v 0.01523667 -0.06060713 0.03583723
v 0.01282572 -0.06063234 0.03671002
v 0.01288270 -0.06141656 0.03681898
v 0.01224172 -0.05583459 0.03655481
v 0.01154106 -0.05583560 0.03678172
v 0.01095032 -0.05583620 0.03696161
v 0.01017105 -0.05760610 0.03728848
v 0.00995594 -0.05583852 0.03724133
v 0.00941807 -0.05584025 0.03738081
v 0.00912738 -0.05584126 0.03745281
v 0.00897259 -0.05584186 0.03749018
v 0.00858050 -0.05584442 0.03758192
v 0.00778472 -0.05761116 0.03783476
v 0.00818443 -0.05584686 0.03767013
v 0.00622147 -0.05585199 0.03804361
v 0.00536686 -0.05761593 0.03822875
v 0.03842747 -0.05862677 0.00378489
v 0.00539875 -0.05856627 0.03825420
v 0.00782943 -0.05855572 0.03786861
v 0.00785178 -0.05902802 0.03788584
v 0.01022797 -0.05854499 0.03732919
v 0.01025640 -0.05901437 0.03734970
v 0.01031333 -0.05995213 0.03739023
v 0.01850819 -0.05850303 0.03411388
v 0.01855510 -0.05896204 0.03413999
v 0.01864886 -0.05987930 0.03419154
v 0.01871925 -0.06056851 0.03422832
v 0.01530253 -0.06138086 0.03594481
v 0.01537954 -0.06213021 0.03625911
v 0.02177608 -0.05848318 0.03216487
v 0.02182847 -0.05893772 0.03219097
v 0.02193331 -0.05984622 0.03224211
v 0.02201199 -0.06052869 0.03227889
v 0.01879632 -0.06132620 0.03433120
v 0.03022485 -0.05885517 0.02454966
v 0.03034096 -0.05973732 0.02458721
v 0.03256601 -0.05969697 0.02151930
v 0.03264969 -0.06035244 0.02154111
v 0.03273683 -0.06103163 0.02159482
v 0.03282773 -0.06169718 0.02173995
v 0.03287392 -0.06200903 0.02184414
v 0.03478097 -0.06221908 0.01859945
v 0.03635245 -0.06272786 0.01521873
v 0.03752017 -0.06325364 0.01162952
v 0.03592818 -0.05875313 0.01478427
v 0.03720355 -0.05956083 0.01121717
v 0.03725612 -0.06019610 0.01122426
v 0.03730922 -0.06083673 0.01124632
v 0.03736269 -0.06146746 0.01131302
v 0.03738939 -0.06177240 0.01136195
v 0.03815656 -0.06199645 0.00766301
v 0.03042817 -0.06039953 0.02461409
v 0.02799105 -0.06115394 0.02752423
v 0.02527362 -0.06192117 0.03032940
v 0.02224463 -0.06231629 0.03282195
v 0.02228379 -0.06258952 0.03300809
v 0.02235913 -0.06312847 0.03337490
v 0.03052002 -0.06109356 0.02467924
v 0.03061753 -0.06177306 0.02485275
v 0.03066748 -0.06208819 0.02497690
v 0.03291553 -0.06229537 0.02195537
v 0.03485661 -0.06279599 0.01878231
v 0.03641837 -0.06331288 0.01536345
v 0.00801110 -0.06225812 0.03840696
v 0.00554401 -0.06262540 0.03905117
v 0.00555468 -0.06288242 0.03930538
v 0.00557470 -0.06338703 0.03980207
v 0.00559515 -0.06389468 0.04030239
v 0.02809184 -0.06184786 0.02772688
v 0.02532613 -0.06224238 0.03049528
v 0.02536815 -0.06251895 0.03066354
v 0.02544957 -0.06306540 0.03099608
v 0.02553194 -0.06361401 0.03132963
v 0.00803435 -0.06258553 0.03866785
v 0.01050966 -0.06280630 0.03836071
v 0.01305878 -0.06328439 0.03806620
v 0.01556318 -0.06377398 0.03756785
v 0.02814400 -0.06216627 0.02787166
v 0.03071087 -0.06237131 0.02510756
v 0.03299760 -0.06286460 0.02217650
v 0.03493261 -0.06337368 0.01896530
v 0.00805008 -0.06284487 0.03891444
v 0.00807971 -0.06335425 0.03939676
v 0.00810993 -0.06386661 0.03988248
v 0.02818745 -0.06244611 0.02802121
v 0.02827227 -0.06300008 0.02831751
v 0.02835786 -0.06355595 0.02861475
v 0.01054841 -0.06332051 0.03882735
v 0.01310747 -0.06380635 0.03851819
v 0.03079593 -0.06293290 0.02536666
v 0.03308016 -0.06343495 0.02239805
v 0.01058804 -0.06383758 0.03929716
v 0.03088164 -0.06349599 0.02562636
v -0.03836393 -0.05581820 0.00377166
v -0.03854995 -0.05580002 0.00000000
v -0.03839921 -0.05737769 0.00377905
v -0.03855001 -0.05817133 0.00000114
v -0.03841799 -0.05820739 0.00378293
v -0.03842741 -0.05862218 0.00378489
v -0.03824567 -0.05864512 0.00566214
v -0.03827917 -0.05947929 0.00566685
v -0.03801542 -0.05950582 0.00753367
v -0.03805059 -0.06013476 0.00753772
v -0.03725582 -0.06019240 0.01122426
v -0.03730899 -0.06083345 0.01124614
v -0.03615039 -0.06089979 0.01484334
v -0.03621906 -0.06154102 0.01493465
v -0.03550618 -0.06157940 0.01669746
v -0.03554403 -0.06188726 0.01677298
v -0.03474253 -0.06192696 0.01850682
v -0.03478074 -0.06221687 0.01859885
v -0.03291523 -0.06229317 0.02195447
v -0.03299736 -0.06286275 0.02217572
v -0.03079569 -0.06293112 0.02536588
v -0.03088146 -0.06349456 0.02562576
v -0.02835768 -0.06355452 0.02861404
v -0.03110951 -0.06499415 0.02631819
v -0.02858507 -0.06503415 0.02940642
v -0.02881973 -0.06541520 0.02941513
v -0.02635240 -0.06540501 0.03191846
v -0.03844624 -0.05945187 0.00378883
v -0.03855001 -0.06063371 0.00000244
v -0.03846037 -0.06007415 0.00379157
v -0.03847455 -0.06069648 0.00379920
v -0.03832948 -0.06073123 0.00568050
v -0.03835469 -0.06135165 0.00571340
v -0.03812122 -0.06138902 0.00759518
v -0.03813892 -0.06169390 0.00762731
v -0.03738921 -0.06176990 0.01136153
v -0.03741544 -0.06206661 0.01141524
v -0.03628653 -0.06214106 0.01507377
v -0.03635227 -0.06272596 0.01521825
v -0.03565102 -0.06275993 0.01701891
v -0.03572243 -0.06334167 0.01718282
v -0.03493243 -0.06337219 0.01896482
v -0.03591275 -0.06489163 0.01761990
v -0.03513491 -0.06491202 0.01945310
v -0.03507107 -0.06545031 0.01992559
v -0.03350061 -0.06543970 0.02295929
v -0.03855001 -0.06309604 0.00000359
v -0.03850299 -0.06192427 0.00385612
v -0.03849589 -0.06162029 0.00383806
v -0.03848874 -0.06131458 0.00382167
v -0.03836727 -0.06165677 0.00573760
v -0.03855037 -0.06550002 0.00000465
v -0.03856945 -0.06476140 0.00402308
v -0.03853142 -0.06314021 0.00392765
v -0.03851717 -0.06253224 0.00389194
v -0.03843015 -0.06316721 0.00587016
v -0.03840500 -0.06256300 0.00581723
v -0.03822666 -0.06319487 0.00780398
v -0.03819149 -0.06259447 0.00773340
v -0.03752011 -0.06325215 0.01162928
v -0.03746771 -0.06265926 0.01152229
v -0.03641819 -0.06331145 0.01536303
v -0.03857898 -0.06549519 0.00406605
v -0.03849738 -0.06477814 0.00601149
v -0.03837400 -0.06548619 0.00794995
v -0.03832036 -0.06479567 0.00799215
v -0.03818029 -0.06548231 0.00948143
v -0.03765982 -0.06483256 0.01191455
v -0.03765559 -0.06547462 0.01230204
v -0.03671181 -0.06546425 0.01573985
v -0.03659403 -0.06487154 0.01574897
v -0.03618383 -0.06545937 0.01725316
v -0.03329974 -0.06495320 0.02298825
v -0.03128367 -0.06542730 0.02637112
v -0.02575033 -0.06507229 0.03221786
v -0.02409046 -0.06539684 0.03385508
v -0.02263772 -0.06510829 0.03472441
v -0.02260637 -0.06539219 0.03497236
v -0.01951539 -0.06538373 0.03696650
v -0.01928097 -0.06514191 0.03689968
v -0.01603335 -0.06537616 0.03875195
v -0.01571375 -0.06517297 0.03871792
v -0.01450282 -0.06537324 0.03940105
v -0.01206260 -0.06520068 0.04012447
v -0.01196736 -0.06536895 0.04030990
v -0.00842869 -0.06536346 0.04125636
v -0.00828338 -0.06522595 0.04115277
v -0.00700158 -0.06536155 0.04153680
v -0.00441587 -0.06524896 0.04179120
v -0.00413084 -0.06536060 0.04193007
v -0.00050001 -0.06535774 0.04211485
v -0.00050002 -0.06472152 0.04144972
v -0.00437462 -0.06390661 0.04044324
v -0.00820261 -0.06386429 0.03986251
v -0.01194500 -0.06381970 0.03890013
v -0.01556307 -0.06377267 0.03756666
v -0.01910144 -0.06372189 0.03583037
v -0.02243536 -0.06366848 0.03374248
v -0.02553176 -0.06361263 0.03132885
v -0.00050002 -0.06440514 0.04111570
v -0.00050002 -0.06424701 0.04094862
v -0.00050002 -0.06416791 0.04086512
v -0.00050002 -0.06411063 0.04080474
v -0.00050002 -0.06394648 0.04063171
v -0.00435895 -0.06340086 0.03993588
v -0.00050002 -0.06337833 0.04003280
v -0.00050002 -0.06311511 0.03975552
v -0.00434369 -0.06289827 0.03943264
v -0.00050002 -0.06295281 0.03958415
v -0.00433552 -0.06264179 0.03917461
v -0.00050002 -0.06269991 0.03931665
v -0.00432306 -0.06231361 0.03889995
v -0.00050002 -0.06237173 0.03903055
v -0.00429875 -0.06152898 0.03852945
v -0.00050002 -0.06157708 0.03864973
v -0.00050002 -0.06074613 0.03855818
v -0.00050002 -0.05858117 0.03855466
v -0.00425821 -0.05999499 0.03841549
v -0.00427741 -0.06071108 0.03842818
v -0.00802052 -0.06067562 0.03792572
v -0.00805807 -0.06147956 0.03803235
v -0.01168560 -0.06063967 0.03705912
v -0.01173818 -0.06142884 0.03716731
v -0.01523637 -0.06060296 0.03583705
v -0.01530224 -0.06137681 0.03594386
v -0.01871889 -0.06056439 0.03422820
v -0.01879596 -0.06132227 0.03433024
v -0.02201157 -0.06052464 0.03227871
v -0.02209699 -0.06126630 0.03237360
v -0.02508193 -0.06048339 0.03001081
v -0.02517277 -0.06120902 0.03009670
v -0.02789753 -0.06044054 0.02744776
v -0.02799063 -0.06115025 0.02752363
v -0.03042769 -0.06039565 0.02461409
v -0.03051954 -0.06108993 0.02467864
v -0.03264921 -0.06034857 0.02154093
v -0.03273642 -0.06102812 0.02159422
v -0.03454124 -0.06029915 0.01826244
v -0.03462034 -0.06096476 0.01830458
v -0.03535711 -0.06027346 0.01655650
v -0.03543090 -0.06093245 0.01659321
v -0.03608268 -0.06024712 0.01481193
v -0.00050002 -0.05799400 0.03855270
v -0.00421995 -0.05856573 0.03838419
v -0.00423270 -0.05904257 0.03839492
v -0.00794142 -0.05902236 0.03786861
v -0.00798661 -0.05996614 0.03790265
v -0.01157462 -0.05900156 0.03698545
v -0.01163798 -0.05993676 0.03702890
v -0.01509684 -0.05898004 0.03575330
v -0.01517653 -0.05990666 0.03580242
v -0.01855462 -0.05895704 0.03413969
v -0.01864844 -0.05987489 0.03419142
v -0.02182793 -0.05893278 0.03219050
v -0.02193284 -0.05984187 0.03224194
v -0.02488493 -0.05890709 0.02992749
v -0.02499747 -0.05980736 0.02997601
v -0.02769368 -0.05887967 0.02737253
v -0.02781015 -0.05977118 0.02741634
v -0.03022426 -0.05885034 0.02454936
v -0.03034043 -0.05973309 0.02458709
v -0.03245395 -0.05881881 0.02148854
v -0.03256553 -0.05969274 0.02151912
v -0.03436207 -0.05878490 0.01822257
v -0.03446441 -0.05965000 0.01824581
v -0.03518903 -0.05876702 0.01652288
v -0.03528505 -0.05962771 0.01654255
v -0.03592771 -0.05874842 0.01478415
v -0.03601622 -0.05960470 0.01480048
v -0.03713315 -0.05870932 0.01120686
v -0.03720325 -0.05955672 0.01121711
v -0.03796857 -0.05866724 0.00752777
v -0.00419438 -0.05761206 0.03836333
v -0.00050002 -0.05726659 0.03855055
v -0.00448298 -0.05583703 0.03828734
v -0.00050002 -0.05580639 0.03854656
v -0.00787365 -0.05760490 0.03781688
v -0.00841868 -0.05583965 0.03761821
v -0.01147943 -0.05759716 0.03691965
v -0.01226472 -0.05583125 0.03654688
v -0.01497715 -0.05758869 0.03567898
v -0.01509600 -0.05582815 0.03547179
v -0.01841378 -0.05757904 0.03406172
v -0.01875060 -0.05582940 0.03368085
v -0.02167057 -0.05756813 0.03211301
v -0.02219647 -0.05582982 0.03151577
v -0.02471607 -0.05755573 0.02985423
v -0.02539652 -0.05583029 0.02900111
v -0.02751898 -0.05754166 0.02730661
v -0.02743440 -0.05583178 0.02708280
v -0.03004986 -0.05752569 0.02449280
v -0.03010976 -0.05583328 0.02407085
v -0.03228658 -0.05750751 0.02144241
v -0.03245657 -0.05583119 0.02079653
v -0.03420853 -0.05748695 0.01818740
v -0.03445100 -0.05582684 0.01729625
v -0.03504496 -0.05747568 0.01649314
v -0.03566396 -0.05582374 0.01463496
v -0.03579491 -0.05746382 0.01475965
v -0.03699177 -0.05582344 0.01084518
v -0.03702801 -0.05743807 0.01119142
v -0.03780990 -0.05582374 0.00750768
v -0.03789836 -0.05740940 0.00751883
v -0.03819549 -0.05739396 0.00565505
v -0.03794521 -0.05824798 0.00752479
v -0.03822892 -0.05822807 0.00565976
v -0.03709810 -0.05828553 0.01120167
v -0.03588348 -0.05832022 0.01477599
v -0.03514099 -0.05833655 0.01651287
v -0.03431087 -0.05835223 0.01821082
v -0.03239816 -0.05838173 0.02147310
v -0.03016608 -0.05840879 0.02453047
v -0.02763545 -0.05843371 0.02735042
v -0.02482867 -0.05845665 0.02990293
v -0.02177548 -0.05847787 0.03216457
v -0.01850765 -0.05849772 0.03411358
v -0.01505696 -0.05851632 0.03572827
v -0.01154291 -0.05853348 0.03696334
v -0.00791883 -0.05854988 0.03785121
v -0.03736251 -0.06146466 0.01131266
v -0.03808587 -0.06076562 0.00755161
v -0.03625345 -0.06184774 0.01500117
v -0.03557986 -0.06217885 0.01685523
v -0.03485643 -0.06279414 0.01878172
v -0.03307998 -0.06343352 0.02239745
v -0.03470158 -0.06161773 0.01842200
v -0.03282737 -0.06169426 0.02173900
v -0.03287357 -0.06200653 0.02184325
v -0.03061711 -0.06177014 0.02485179
v -0.03066712 -0.06208568 0.02497583
v -0.03071057 -0.06236916 0.02510648
v -0.02809137 -0.06184488 0.02772563
v -0.02814364 -0.06216377 0.02787029
v -0.02818721 -0.06244397 0.02802014
v -0.02827203 -0.06299829 0.02831661
v -0.02527320 -0.06191813 0.03032821
v -0.02532577 -0.06223988 0.03049391
v -0.02536791 -0.06251686 0.03066217
v -0.02544939 -0.06306362 0.03099483
v -0.02219337 -0.06198966 0.03263366
v -0.02224427 -0.06231379 0.03282040
v -0.02228355 -0.06258744 0.03300672
v -0.02235895 -0.06312674 0.03337371
v -0.01888453 -0.06205940 0.03461802
v -0.01893168 -0.06238532 0.03482508
v -0.01896673 -0.06265556 0.03502851
v -0.01903355 -0.06318736 0.03542846
v -0.01537925 -0.06212711 0.03625726
v -0.01542037 -0.06245428 0.03648406
v -0.01544994 -0.06272113 0.03670358
v -0.01550602 -0.06324547 0.03713375
v -0.01180034 -0.06219130 0.03750348
v -0.01183354 -0.06251913 0.03774809
v -0.01185673 -0.06278252 0.03798198
v -0.01190042 -0.06329959 0.03843945
v -0.00810248 -0.06225347 0.03838771
v -0.00812602 -0.06258159 0.03864836
v -0.00814199 -0.06284153 0.03889507
v -0.00817197 -0.06335139 0.03937709
v -0.03830426 -0.06010490 0.00567001
v -0.03815644 -0.06199419 0.00766277
v -0.03837984 -0.06195890 0.00576413
v 0.00049998 -0.06550002 -0.03854680
v 0.00049998 -0.05550003 -0.03854680
v 0.00449365 -0.06550002 -0.03828722
v 0.00463045 -0.05550003 -0.03827083
v 0.00843894 -0.06550002 -0.03761494
v 0.00870752 -0.05550003 -0.03755366
v 0.01229321 -0.06550002 -0.03653734
v 0.01268416 -0.05550003 -0.03640347
v 0.01601505 -0.06550002 -0.03506588
v 0.01651459 -0.05550003 -0.03483343
v 0.01956427 -0.06550002 -0.03321665
v 0.02015453 -0.05550003 -0.03286176
v 0.02290260 -0.06550002 -0.03100919
v 0.02356207 -0.05550003 -0.03051114
v 0.02599412 -0.06550002 -0.02846771
v 0.02669793 -0.05550003 -0.02780866
v 0.02880543 -0.06550002 -0.02561926
v 0.02952593 -0.05550003 -0.02478551
v 0.03130632 -0.06550002 -0.02249473
v 0.03201341 -0.05550003 -0.02147650
v 0.03346979 -0.06550002 -0.01912778
v 0.03413176 -0.05550003 -0.01791989
v 0.03527253 -0.06550002 -0.01555460
v 0.03585648 -0.05550003 -0.01415669
v 0.03669512 -0.06550002 -0.01181387
v 0.03716778 -0.05550003 -0.01023012
v 0.03772217 -0.06550002 -0.00794578
v 0.03805047 -0.05550003 -0.00618565
v 0.03834271 -0.06550002 -0.00399208
v 0.03849434 -0.05550003 -0.00206983
v 0.03854995 -0.06550002 0.00000465
v 0.03854995 -0.05580002 0.00000000
v 0.03854995 -0.05817610 0.00000114
v 0.03849434 -0.05550003 0.00206965
v 0.03850394 -0.05581551 0.00187492
v 0.03844791 -0.05582219 0.00279427
v 0.03837853 -0.05582952 0.00362271
v 0.03805047 -0.05550003 0.00618559
v 0.03814303 -0.05584418 0.00558120
v 0.03778040 -0.05584436 0.00766075
v 0.03755122 -0.05583965 0.00871473
v 0.03716778 -0.05550003 0.01023000
v 0.03749245 -0.05583846 0.00896412
v 0.03746443 -0.05583816 0.00908041
v 0.03739494 -0.05583763 0.00936282
v 0.03694492 -0.05583608 0.01100742
v 0.03660464 -0.05583125 0.01209139
v 0.03585648 -0.05550003 0.01415652
v 0.03635013 -0.05583167 0.01283717
v 0.03604561 -0.05583178 0.01366984
v 0.03563332 -0.05583018 0.01471096
v 0.03485411 -0.05583101 0.01647108
v 0.03413176 -0.05550003 0.01791989
v 0.03446614 -0.05583399 0.01726782
v 0.03417980 -0.05583685 0.01782774
v 0.03394037 -0.05583840 0.01827931
v 0.03350555 -0.05584019 0.01906406
v 0.03292608 -0.05584168 0.02004778
v 0.03201341 -0.05550003 0.02147650
v 0.03215801 -0.05584281 0.02125781
v 0.03139942 -0.05584311 0.02236324
v 0.03074914 -0.05584263 0.02324962
v 0.02952593 -0.05550003 0.02478528
v 0.03022807 -0.05584150 0.02392363
v 0.02990072 -0.05584013 0.02433162
v 0.02846264 -0.05583220 0.02599942
v 0.02669793 -0.05550003 0.02780848
v 0.02776753 -0.05582946 0.02674055
v 0.02737051 -0.05582863 0.02714675
v 0.02697861 -0.05582880 0.02753627
v 0.02644193 -0.05583029 0.02805203
v 0.02569425 -0.05583316 0.02873837
v 0.02480322 -0.05583697 0.02951061
v 0.02356207 -0.05550003 0.03051096
v 0.02434468 -0.05583900 0.02989012
v 0.02408748 -0.05583989 0.03009760
v 0.02346974 -0.05584126 0.03058165
v 0.02251458 -0.05584192 0.03129118
v 0.02179950 -0.05584174 0.03179317
v 0.02015453 -0.05550003 0.03286147
v 0.02128249 -0.05584138 0.03214156
v 0.02064621 -0.05584073 0.03255414
v 0.01953971 -0.05583918 0.03323012
v 0.01872301 -0.05583757 0.03369730
v 0.01804262 -0.05583560 0.03406673
v 0.01651459 -0.05550003 0.03483319
v 0.01765340 -0.05583363 0.03426998
v 0.01688665 -0.05582922 0.03465437
v 0.01519805 -0.05582648 0.03542810
v 0.01427412 -0.05582821 0.03581053
v 0.01268416 -0.05550003 0.03640317
v 0.01322841 -0.05583184 0.03620970
v 0.01224172 -0.05583459 0.03655481
v 0.01154106 -0.05583560 0.03678172
v 0.01095032 -0.05583620 0.03696161
v 0.00870752 -0.05550003 0.03755354
v 0.00995594 -0.05583852 0.03724133
v 0.00941807 -0.05584025 0.03738081
v 0.00912738 -0.05584126 0.03745281
v 0.00897259 -0.05584186 0.03749018
v 0.00858050 -0.05584442 0.03758192
v 0.00818443 -0.05584686 0.03767013
v 0.00622147 -0.05585199 0.03804361
v 0.00463045 -0.05550003 0.03827071
v 0.00424594 -0.05584430 0.03831446
v 0.00049998 -0.05550003 0.03854656
v 0.00049998 -0.05580729 0.03854656
v 0.03854995 -0.06063687 0.00000244
v 0.03854995 -0.06309765 0.00000359
v 0.00049998 -0.05530005 -0.03834998
v 0.00049998 -0.05532789 -0.03844863
v 0.00049998 -0.06569999 -0.03834998
v 0.00049998 -0.06567215 -0.03844851
v 0.00049998 -0.05540096 -0.03852045
v 0.00049998 -0.06559908 -0.03852045
v 0.00049998 -0.06550002 -0.03854680
v 0.00049998 -0.05550003 -0.03854680
v -0.00050002 -0.06550002 -0.03854680
v -0.00050002 -0.05550003 -0.03854680
v -0.00050002 -0.06559908 -0.03852045
v -0.00050002 -0.05540096 -0.03852045
v -0.00050002 -0.05532789 -0.03844863
v -0.00050002 -0.06567215 -0.03844851
v -0.00050002 -0.05530005 -0.03834998
v -0.00050002 -0.06569999 -0.03834998
v -0.00050002 -0.06569999 -0.03834998
v -0.00050002 -0.05530005 -0.03834998
v 0.00000000 -0.06570005 -0.03834998
v 0.00000000 -0.05530005 -0.03834998
v 0.00049998 -0.05530005 -0.03834998
v 0.00049998 -0.06569999 -0.03834998
v 0.00022851 -0.06558090 0.04215586
v 0.00049998 -0.06557840 0.04215329
v 0.00000000 -0.06511420 0.04166090
v 0.00000000 -0.06511420 0.04166090
v 0.00049998 -0.06557840 0.04215329
v 0.00049998 -0.06501120 0.04155164
v 0.00000000 -0.06511420 0.04166090
v 0.00049998 -0.06501120 0.04155164
v 0.00049998 -0.06480723 0.04133510
v 0.00049998 -0.06480723 0.04133510
v 0.00049998 -0.06444799 0.04095363
v 0.00000000 -0.06511420 0.04166090
v 0.00049998 -0.06424921 0.04074245
v 0.00000000 -0.06341302 0.03985303
v 0.00049998 -0.06399071 0.04046767
v 0.00049998 -0.06342309 0.03986358
v 0.00000000 -0.06308513 0.03950434
v 0.00049998 -0.06284976 0.03925657
v 0.00000000 -0.06261587 0.03903698
v 0.00049998 -0.06216073 0.03872478
v 0.00000000 -0.06205826 0.03867197
v 0.00049998 -0.06134617 0.03844600
v 0.00000000 -0.06142634 0.03846019
v 0.00000000 -0.06077307 0.03840112
v -0.00050002 -0.06122237 0.03842860
v -0.00050002 -0.05825215 0.03841108
v 0.00000000 -0.05819118 0.03841078
v -0.00050002 -0.05531108 0.03841215
v 0.00049998 -0.05531108 0.03841215
v 0.00049998 -0.06053000 0.03840219
v -0.00050002 -0.06195628 0.03862482
v -0.00050002 -0.06261110 0.03903299
v -0.00050002 -0.06364566 0.04010051
v -0.00050002 -0.06558179 0.04215693
v 0.00000000 -0.06511420 0.04166090
v -0.00050002 -0.06558179 0.04215693
v 0.00022851 -0.06558090 0.04215586
v -0.00050002 -0.06558179 0.04215693
v -0.00034695 -0.06558227 0.04215741
v 0.00022851 -0.06558090 0.04215586
v -0.00019797 -0.06558239 0.04215759
v 0.00049998 -0.05550003 0.03854656
v 0.00049998 -0.05535316 0.03848230
v 0.00049998 -0.05580729 0.03854656
v 0.00049998 -0.05531108 0.03841215
v 0.00049998 -0.05858671 0.03855466
v 0.00049998 -0.06053000 0.03840219
v 0.00049998 -0.05897414 0.03855586
v 0.00049998 -0.05916786 0.03855663
v 0.00049998 -0.05944460 0.03855800
v 0.00049998 -0.06002807 0.03855895
v 0.00049998 -0.06075048 0.03855848
v 0.00049998 -0.06134617 0.03844600
v 0.00049998 -0.06158125 0.03865152
v 0.00049998 -0.06216073 0.03872478
v 0.00049998 -0.06195962 0.03878885
v 0.00049998 -0.06237405 0.03903406
v 0.00049998 -0.06284976 0.03925657
v 0.00049998 -0.06269848 0.03932291
v 0.00049998 -0.06295454 0.03958630
v 0.00049998 -0.06342309 0.03986358
v 0.00049998 -0.06399071 0.04046767
v 0.00049998 -0.05541986 0.03852981
v 0.00049998 -0.06424921 0.04074245
v 0.00049998 -0.06444799 0.04095363
v 0.00049998 -0.06535494 0.04211771
v 0.00049998 -0.06480723 0.04133510
v 0.00049998 -0.06501120 0.04155164
v 0.00049998 -0.06557840 0.04215329
v 0.00049998 -0.06546169 0.04217630
v 0.00049998 -0.06558245 0.04216229
v 0.00049998 -0.06564205 0.04211008
v 0.00049998 -0.06566804 0.04208856
v 0.00049998 -0.06568473 0.04204618
v 0.00049998 -0.06568837 0.04204738
v 0.00049998 -0.06568837 0.04204738
v 0.00049998 -0.06568473 0.04204618
v 0.00049998 -0.06570005 0.04198008
v 0.00049998 -0.06570005 0.04198008
v 0.00049998 -0.06570005 0.04197067
v -0.00050002 -0.06364566 0.04010051
v -0.00050002 -0.06440514 0.04111570
v -0.00050002 -0.06558179 0.04215693
v -0.00050002 -0.06472152 0.04144972
v -0.00050002 -0.06558179 0.04215693
v -0.00050002 -0.06472152 0.04144972
v -0.00050001 -0.06535774 0.04211485
v -0.00050002 -0.06261110 0.03903299
v -0.00050002 -0.06295281 0.03958415
v -0.00050002 -0.06311511 0.03975552
v -0.00050002 -0.06337833 0.04003280
v -0.00050002 -0.06195628 0.03862482
v -0.00050002 -0.06237173 0.03903055
v -0.00050002 -0.06269991 0.03931665
v -0.00050002 -0.06157708 0.03864973
v -0.00050002 -0.06122237 0.03842860
v -0.00050002 -0.06074613 0.03855818
v -0.00050002 -0.05825215 0.03841108
v -0.00050002 -0.05858117 0.03855466
v -0.00050002 -0.05799400 0.03855270
v -0.00050002 -0.05726659 0.03855055
v -0.00050002 -0.05531108 0.03841215
v -0.00050002 -0.05580639 0.03854656
v -0.00050002 -0.05535316 0.03848230
v -0.00050002 -0.05550003 0.03854656
v -0.00050002 -0.05541986 0.03852981
v -0.00050002 -0.06394648 0.04063171
v -0.00050002 -0.06411063 0.04080474
v -0.00050002 -0.06416791 0.04086512
v -0.00050002 -0.06424701 0.04094862
v -0.00050001 -0.06535774 0.04211485
v -0.00050002 -0.06542432 0.04215955
v -0.00050002 -0.06558179 0.04215693
v -0.00050002 -0.06542432 0.04215955
v -0.00050002 -0.06550329 0.04217433
v -0.00050002 -0.06542432 0.04215955
v -0.00050001 -0.06535774 0.04211485
v -0.00342309 -0.06544846 0.04204314
v -0.00413084 -0.06536060 0.04193007
v -0.00728589 -0.06545329 0.04153621
v -0.00700158 -0.06536155 0.04153680
v -0.00842869 -0.06536346 0.04125636
v -0.01127052 -0.06545948 0.04057312
v -0.01196736 -0.06536895 0.04030990
v -0.01514339 -0.06546670 0.03918409
v -0.01450282 -0.06537324 0.03940105
v -0.01603335 -0.06537616 0.03875195
v -0.01882731 -0.06547486 0.03739786
v -0.01951539 -0.06538373 0.03696650
v -0.02229386 -0.06548392 0.03523206
v -0.02260637 -0.06539219 0.03497236
v -0.02409046 -0.06539684 0.03385508
v -0.02553224 -0.06549382 0.03268992
v -0.02635240 -0.06540501 0.03191846
v -0.02848392 -0.06550437 0.02981275
v -0.02881973 -0.06541520 0.02941513
v -0.03110802 -0.06551516 0.02663296
v -0.03128367 -0.06542730 0.02637112
v -0.03336733 -0.06552594 0.02320462
v -0.03350061 -0.06543970 0.02295929
v -0.03507107 -0.06545031 0.01992559
v -0.03618383 -0.06545937 0.01725316
v -0.03601229 -0.06554144 0.01770526
v -0.03522890 -0.06553637 0.01958554
v -0.03333580 -0.06561762 0.02318614
v -0.03108102 -0.06561201 0.02661281
v -0.03101867 -0.06567949 0.02656704
v -0.02840358 -0.06567829 0.02973890
v -0.03016513 -0.06570005 0.02753722
v -0.02829968 -0.06570005 0.02971768
v -0.03669714 -0.06554627 0.01577764
v -0.03671181 -0.06546425 0.01573985
v -0.03728032 -0.06555098 0.01380687
v -0.03765559 -0.06547462 0.01230204
v -0.03775733 -0.06555539 0.01180523
v -0.03818029 -0.06548231 0.00948143
v -0.03812605 -0.06555956 0.00978458
v -0.03838396 -0.06556349 0.00775671
v -0.03808361 -0.06563454 0.00977796
v -0.03834074 -0.06563645 0.00775242
v -0.03801387 -0.06568443 0.00976717
v -0.03827124 -0.06568485 0.00774550
v -0.03815752 -0.06570005 0.00809956
v -0.03843504 -0.06568539 0.00504005
v -0.03836429 -0.06570005 0.00489348
v -0.03845316 -0.06568574 0.00232738
v -0.03835034 -0.06570005 0.00000328
v -0.03845036 -0.06567323 0.00000275
v -0.03852123 -0.06564056 0.00232565
v -0.03852355 -0.06560003 0.00000237
v -0.03856569 -0.06557184 0.00232589
v -0.03855037 -0.06550002 0.00000465
v -0.03857898 -0.06549519 0.00406605
v -0.03854781 -0.06556826 0.00504368
v -0.03837400 -0.06548619 0.00794995
v -0.03765845 -0.06570005 0.01133304
v -0.03764617 -0.06568396 0.01178181
v -0.03771591 -0.06563246 0.01179641
v -0.03716039 -0.06570005 0.01350486
v -0.03717046 -0.06568348 0.01377749
v -0.03724008 -0.06563025 0.01379615
v -0.03642582 -0.06570005 0.01597905
v -0.03658908 -0.06568294 0.01574236
v -0.03665834 -0.06562793 0.01576513
v -0.03590637 -0.06568241 0.01766437
v -0.03588199 -0.06570005 0.01749902
v -0.03512555 -0.06568181 0.01953905
v -0.03465592 -0.06570005 0.02035361
v -0.03327018 -0.06568068 0.02314788
v -0.03311294 -0.06570005 0.02324640
v -0.03184419 -0.06570005 0.02524882
v -0.02546185 -0.06567710 0.03260970
v -0.02520114 -0.06570005 0.03271311
v -0.02223396 -0.06567603 0.03514659
v -0.02222502 -0.06570005 0.03503674
v -0.02043414 -0.06570005 0.03622359
v -0.01877820 -0.06567502 0.03730911
v -0.01788383 -0.06570005 0.03767913
v -0.01510506 -0.06567406 0.03909301
v -0.01522040 -0.06570005 0.03893733
v -0.01298451 -0.06570005 0.03980803
v -0.01124298 -0.06567329 0.04048120
v -0.01112860 -0.06570005 0.04041117
v -0.00725073 -0.06570005 0.04134684
v -0.00726891 -0.06567257 0.04144454
v -0.00345045 -0.06570005 0.04185253
v -0.00341582 -0.06567203 0.04195219
v 0.00049998 -0.06568473 0.04204618
v 0.00049998 -0.06564205 0.04211008
v 0.00049998 -0.06570005 0.04197067
v 0.00049998 -0.06557840 0.04215329
v 0.00022851 -0.06558090 0.04215586
v -0.00019797 -0.06558239 0.04215759
v -0.00034695 -0.06558227 0.04215741
v -0.00050002 -0.06558179 0.04215693
v -0.00342244 -0.06557554 0.04203516
v -0.00050002 -0.06550329 0.04217433
v -0.03850376 -0.06563878 0.00504142
v -0.03597509 -0.06562548 0.01769083
v -0.03519344 -0.06562292 0.01956945
v -0.02846145 -0.06560635 0.02979212
v -0.02551460 -0.06560081 0.03266948
v -0.02228033 -0.06559544 0.03521281
v -0.01881766 -0.06559050 0.03738051
v -0.01513695 -0.06558591 0.03916883
v -0.01126682 -0.06558185 0.04056042
v -0.00728405 -0.06557834 0.04152613
v 0.00000000 -0.06570005 -0.03834998
v -0.00049997 -0.06570005 -0.03834676
v -0.00050002 -0.06569999 -0.03834998
v -0.00422531 -0.06570005 -0.03811651
v -0.00401944 -0.06567323 -0.03823935
v -0.00799483 -0.06567323 -0.03760957
v -0.00801003 -0.06560003 -0.03768116
v -0.01190519 -0.06560003 -0.03663754
v -0.00843882 -0.06550002 -0.03761494
v -0.01229310 -0.06550002 -0.03653746
v -0.01566994 -0.06560003 -0.03519213
v -0.01601487 -0.06550002 -0.03506606
v -0.01926296 -0.06560003 -0.03336131
v -0.01956409 -0.06550002 -0.03321677
v -0.02264487 -0.06560003 -0.03116476
v -0.02290236 -0.06550002 -0.03100931
v -0.02577865 -0.06560003 -0.02862691
v -0.02599388 -0.06550002 -0.02846789
v -0.02862995 -0.06560003 -0.02577519
v -0.02880519 -0.06550002 -0.02561956
v -0.03116756 -0.06560003 -0.02264106
v -0.03130608 -0.06550002 -0.02249509
v -0.03336364 -0.06560003 -0.01925885
v -0.03346955 -0.06550002 -0.01912826
v -0.03519409 -0.06560003 -0.01566565
v -0.03527235 -0.06550002 -0.01555526
v -0.03663891 -0.06560003 -0.01190078
v -0.03669494 -0.06550002 -0.01181447
v -0.03768223 -0.06560003 -0.00800544
v -0.03772211 -0.06550002 -0.00794637
v -0.03831487 -0.06560003 -0.00400084
v -0.03834265 -0.06550002 -0.00399280
v -0.03852355 -0.06560003 0.00000237
v -0.03855037 -0.06550002 0.00000465
v -0.00791067 -0.06570005 -0.03752517
v -0.01152110 -0.06570005 -0.03657859
v -0.01188260 -0.06567323 -0.03656786
v -0.01502239 -0.06570005 -0.03528529
v -0.01564013 -0.06567323 -0.03512525
v -0.01838141 -0.06570005 -0.03365778
v -0.01922637 -0.06567323 -0.03329795
v -0.02156627 -0.06570005 -0.03171145
v -0.02260184 -0.06567323 -0.03110557
v -0.02454686 -0.06570005 -0.02946484
v -0.02572971 -0.06567323 -0.02857244
v -0.02729493 -0.06570005 -0.02693903
v -0.02857559 -0.06567323 -0.02572631
v -0.02978444 -0.06570005 -0.02415806
v -0.03110831 -0.06567323 -0.02259814
v -0.03199177 -0.06570005 -0.02114814
v -0.03330022 -0.06567323 -0.01922237
v -0.03389614 -0.06570005 -0.01793807
v -0.03512722 -0.06567323 -0.01563578
v -0.03547936 -0.06570005 -0.01455801
v -0.03656929 -0.06567323 -0.01187807
v -0.03672653 -0.06570005 -0.01104009
v -0.03761059 -0.06567323 -0.00799024
v -0.03762578 -0.06570005 -0.00741756
v -0.03824096 -0.06567323 -0.00400394
v -0.03816866 -0.06570005 -0.00372469
v -0.03845036 -0.06567323 0.00000275
v -0.03835034 -0.06570005 0.00000328
v -0.00449365 -0.06550002 -0.03828722
v -0.00402707 -0.06560003 -0.03831219
v -0.00050002 -0.06567215 -0.03844851
v -0.00050002 -0.06550002 -0.03854680
v -0.00050002 -0.06559908 -0.03852045
v 0.00049998 -0.06567215 -0.03844851
v 0.00401950 -0.06567323 -0.03823935
v 0.00049998 -0.06569999 -0.03834998
v 0.00422549 -0.06570005 -0.03811651
v 0.00049994 -0.06570005 -0.03834676
v 0.00402719 -0.06560003 -0.03831213
v 0.00049998 -0.06559908 -0.03852045
v 0.00049998 -0.06550002 -0.03854680
v 0.00449365 -0.06550002 -0.03828722
v 0.00801027 -0.06560003 -0.03768116
v 0.00799507 -0.06567323 -0.03760957
v 0.01188296 -0.06567323 -0.03656774
v 0.01152169 -0.06570005 -0.03657835
v 0.01502317 -0.06570005 -0.03528493
v 0.01564061 -0.06567323 -0.03512507
v 0.01838231 -0.06570005 -0.03365737
v 0.01922690 -0.06567323 -0.03329753
v 0.02156728 -0.06570005 -0.03171080
v 0.02260249 -0.06567323 -0.03110510
v 0.02454793 -0.06570005 -0.02946382
v 0.02573037 -0.06567323 -0.02857172
v 0.02729606 -0.06570005 -0.02693784
v 0.02857631 -0.06567323 -0.02572536
v 0.02978557 -0.06570005 -0.02415657
v 0.03110903 -0.06567323 -0.02259707
v 0.03199291 -0.06570005 -0.02114635
v 0.03330087 -0.06567323 -0.01922118
v 0.03389716 -0.06570005 -0.01793593
v 0.03512781 -0.06567323 -0.01563441
v 0.03548032 -0.06570005 -0.01455557
v 0.03656977 -0.06567323 -0.01187652
v 0.03672730 -0.06570005 -0.01103740
v 0.03761094 -0.06567323 -0.00798839
v 0.03762638 -0.06570005 -0.00741470
v 0.03824108 -0.06567323 -0.00400245
v 0.03816896 -0.06570005 -0.00372159
v 0.03844994 -0.06567323 0.00000572
v 0.03834998 -0.06570005 0.00000671
v 0.00843894 -0.06550002 -0.03761494
v 0.01190555 -0.06560003 -0.03663736
v 0.01229321 -0.06550002 -0.03653734
v 0.01567041 -0.06560003 -0.03519201
v 0.01601505 -0.06550002 -0.03506588
v 0.01926350 -0.06560003 -0.03336095
v 0.01956427 -0.06550002 -0.03321665
v 0.02264553 -0.06560003 -0.03116428
v 0.02290260 -0.06550002 -0.03100919
v 0.02577936 -0.06560003 -0.02862614
v 0.02599412 -0.06550002 -0.02846771
v 0.02863073 -0.06560003 -0.02577435
v 0.02880543 -0.06550002 -0.02561926
v 0.03116828 -0.06560003 -0.02264004
v 0.03130632 -0.06550002 -0.02249473
v 0.03336429 -0.06560003 -0.01925760
v 0.03346979 -0.06550002 -0.01912778
v 0.03519469 -0.06560003 -0.01566427
v 0.03527253 -0.06550002 -0.01555460
v 0.03663939 -0.06560003 -0.01189917
v 0.03669512 -0.06550002 -0.01181387
v 0.03768253 -0.06560003 -0.00800359
v 0.03772217 -0.06550002 -0.00794578
v 0.03831493 -0.06560003 -0.00399977
v 0.03834271 -0.06550002 -0.00399208
v 0.03852313 -0.06560003 0.00000496
v 0.03854995 -0.06550002 0.00000465
v 0.00791109 -0.06570005 -0.03752517
v 0.00000000 -0.06570005 -0.03834998
v 0.00049998 -0.06535494 0.04211771
v 0.00049998 -0.06546169 0.04217630
v 0.00375462 -0.06535929 0.04196548
v 0.00439292 -0.06544899 0.04195433
v 0.00548381 -0.06536185 0.04176950
v 0.00826633 -0.06545418 0.04133498
v 0.00881666 -0.06536644 0.04116451
v 0.01206111 -0.06546032 0.04032438
v 0.01204764 -0.06537014 0.04028105
v 0.01368457 -0.06537216 0.03971523
v 0.01572275 -0.06546735 0.03893446
v 0.01597982 -0.06537610 0.03877592
v 0.01931560 -0.06547552 0.03712141
v 0.01961499 -0.06538474 0.03690749
v 0.02270758 -0.06548458 0.03493785
v 0.02286607 -0.06539338 0.03478544
v 0.02513647 -0.06540048 0.03299880
v 0.02583312 -0.06549435 0.03242582
v 0.02621662 -0.06540435 0.03204524
v 0.02867853 -0.06550461 0.02959972
v 0.02875298 -0.06541490 0.02948909
v 0.03058487 -0.06542366 0.02730101
v 0.03122693 -0.06551522 0.02647155
v 0.03144305 -0.06542807 0.02615076
v 0.03342646 -0.06552577 0.02310299
v 0.03344148 -0.06543928 0.02306151
v 0.03502511 -0.06545019 0.02002280
v 0.03525298 -0.06553614 0.01952975
v 0.03570830 -0.06545549 0.01846438
v 0.03670066 -0.06554591 0.01576703
v 0.03668874 -0.06546401 0.01581031
v 0.03773027 -0.06547540 0.01197093
v 0.03774005 -0.06555485 0.01189571
v 0.03836792 -0.06548607 0.00800735
v 0.03836208 -0.06556272 0.00797123
v 0.03852045 -0.06556636 0.00598919
v 0.03847718 -0.06563735 0.00598693
v 0.03853064 -0.06563901 0.00399488
v 0.03846186 -0.06568545 0.00399494
v 0.03844994 -0.06567323 0.00000572
v 0.03834998 -0.06570005 0.00000671
v 0.03838682 -0.06570005 0.00399494
v 0.03840786 -0.06568503 0.00598347
v 0.03817921 -0.06570005 0.00789493
v 0.03824973 -0.06568467 0.00795936
v 0.03762924 -0.06568378 0.01187199
v 0.03769922 -0.06563162 0.01188701
v 0.03666239 -0.06562715 0.01575452
v 0.00439304 -0.06557482 0.04194700
v 0.00049998 -0.06558245 0.04216229
v 0.00438327 -0.06567186 0.04186385
v 0.00049998 -0.06566804 0.04208856
v 0.00049998 -0.06568837 0.04204738
v 0.00049998 -0.06570005 0.04198008
v 0.00344020 -0.06570005 0.04185104
v 0.00517970 -0.06570005 0.04166513
v 0.00824690 -0.06567239 0.04124385
v 0.00826567 -0.06557780 0.04132562
v 0.00871271 -0.06570005 0.04103618
v 0.01203167 -0.06567311 0.04023325
v 0.01205784 -0.06558138 0.04031217
v 0.01224118 -0.06570005 0.04005873
v 0.01568305 -0.06567388 0.03884440
v 0.01571613 -0.06558537 0.03891950
v 0.01595616 -0.06570005 0.03861463
v 0.01855850 -0.06570005 0.03731763
v 0.01926523 -0.06567484 0.03703349
v 0.02061784 -0.06570005 0.03610759
v 0.02264666 -0.06567585 0.03485333
v 0.02282291 -0.06570005 0.03460735
v 0.02576202 -0.06567692 0.03234648
v 0.02606201 -0.06570005 0.03194880
v 0.02859789 -0.06567811 0.02952665
v 0.02868431 -0.06570005 0.02929502
v 0.03071057 -0.06570005 0.02683269
v 0.03113758 -0.06567931 0.02640622
v 0.03204351 -0.06570005 0.02495253
v 0.03332948 -0.06568050 0.02304685
v 0.03325510 -0.06570005 0.02300363
v 0.03472888 -0.06570005 0.02019894
v 0.03514987 -0.06568163 0.01948368
v 0.03569227 -0.06570005 0.01798444
v 0.03659296 -0.06568276 0.01573187
v 0.03651565 -0.06570005 0.01570677
v 0.03655123 -0.06570005 0.01559710
v 0.03751921 -0.06570005 0.01200854
v 0.03852313 -0.06560003 0.00000496
v 0.03857427 -0.06556963 0.00399488
v 0.03858673 -0.06549531 0.00399494
v 0.03854995 -0.06550002 0.00000465
v 0.01930588 -0.06558996 0.03710412
v 0.02269393 -0.06559497 0.03491878
v 0.02581524 -0.06560027 0.03240585
v 0.02865618 -0.06560575 0.02957946
v 0.03120023 -0.06561136 0.02645182
v 0.03339529 -0.06561684 0.02308499
v 0.03521800 -0.06562221 0.01951390
v 0.03831946 -0.06563556 0.00796676
v -0.00050002 -0.05532789 -0.03844863
v -0.00408697 -0.05532681 -0.03823214
v -0.00050002 -0.05530005 -0.03834998
v -0.00424063 -0.05530005 -0.03811484
v -0.00049997 -0.05530005 -0.03834676
v -0.00409478 -0.05540001 -0.03830492
v -0.00050002 -0.05540096 -0.03852045
v -0.00050002 -0.05550003 -0.03854680
v -0.00463045 -0.05550003 -0.03827083
v -0.00814313 -0.05540001 -0.03765273
v -0.00812763 -0.05532681 -0.03758114
v -0.01207625 -0.05532681 -0.03650438
v -0.01156520 -0.05530005 -0.03656458
v -0.01507908 -0.05530005 -0.03526103
v -0.01588797 -0.05532681 -0.03501385
v -0.01844900 -0.05530005 -0.03362071
v -0.01951974 -0.05532681 -0.03312683
v -0.02164268 -0.05530005 -0.03165936
v -0.02293032 -0.05532681 -0.03086423
v -0.02462965 -0.05530005 -0.02939563
v -0.02608108 -0.05532681 -0.02825206
v -0.02738136 -0.05530005 -0.02685117
v -0.02893632 -0.05532681 -0.02531969
v -0.02987158 -0.05530005 -0.02405029
v -0.03146374 -0.05532681 -0.02210056
v -0.03207653 -0.05530005 -0.02101939
v -0.03363460 -0.05532681 -0.01863104
v -0.03397512 -0.05530005 -0.01778799
v -0.03542441 -0.05532681 -0.01495033
v -0.03554916 -0.05530005 -0.01438677
v -0.03681284 -0.05532681 -0.01110023
v -0.03678369 -0.05529999 -0.01084804
v -0.03778421 -0.05532681 -0.00712436
v -0.03766697 -0.05530005 -0.00720572
v -0.03819042 -0.05530005 -0.00349456
v -0.03832739 -0.05532681 -0.00306773
v -0.03834915 -0.05530005 0.00024994
v -0.03843635 -0.05532681 0.00102347
v -0.03814166 -0.05530005 0.00399208
v -0.03810983 -0.05532681 0.00510329
v -0.03756982 -0.05530005 0.00769609
v -0.03735148 -0.05532681 0.00912511
v -0.03663915 -0.05530005 0.01132655
v -0.03616988 -0.05532681 0.01304364
v -0.03535860 -0.05530005 0.01484888
v -0.03457856 -0.05532681 0.01681441
v -0.03374034 -0.05530005 0.01822942
v -0.03259539 -0.05532681 0.02039462
v -0.03179979 -0.05530005 0.02143579
v -0.03024291 -0.05532681 0.02374356
v -0.02955555 -0.05530005 0.02443736
v -0.02754777 -0.05532681 0.02682387
v -0.02702903 -0.05530005 0.02720564
v -0.02454048 -0.05532681 0.02959990
v -0.02424430 -0.05530005 0.02971404
v -0.02127403 -0.05532681 0.03202819
v -0.02122807 -0.05530005 0.03193861
v -0.01800912 -0.05530005 0.03385818
v -0.01772898 -0.05532681 0.03411847
v -0.01461815 -0.05530005 0.03545439
v -0.01400196 -0.05532681 0.03580975
v -0.01108753 -0.05530005 0.03671216
v -0.01011627 -0.05532681 0.03709512
v -0.00745106 -0.05530005 0.03761899
v -0.00611597 -0.05532681 0.03796017
v -0.00374341 -0.05530005 0.03816664
v -0.00204641 -0.05532681 0.03839534
v -0.00050002 -0.05531108 0.03841215
v -0.00050002 -0.05535316 0.03848230
v -0.00205028 -0.05540001 0.03846842
v -0.00050002 -0.05541986 0.03852981
v -0.00463045 -0.05550003 0.03827071
v -0.00050002 -0.05550003 0.03854656
v -0.00870752 -0.05550003 -0.03755366
v -0.01209920 -0.05540001 -0.03657382
v -0.01268422 -0.05550003 -0.03640347
v -0.01591825 -0.05540001 -0.03508055
v -0.01651459 -0.05550003 -0.03483343
v -0.01955687 -0.05540001 -0.03318983
v -0.02015459 -0.05550003 -0.03286176
v -0.02297395 -0.05540001 -0.03092294
v -0.02356213 -0.05550003 -0.03051114
v -0.02613073 -0.05540001 -0.02830588
v -0.02669799 -0.05550003 -0.02780866
v -0.02899140 -0.05540001 -0.02536791
v -0.02952593 -0.05550003 -0.02478551
v -0.03152364 -0.05540001 -0.02214270
v -0.03201347 -0.05550003 -0.02147650
v -0.03369867 -0.05540001 -0.01866644
v -0.03413176 -0.05550003 -0.01791989
v -0.03549188 -0.05540001 -0.01497870
v -0.03585654 -0.05550003 -0.01415669
v -0.03688293 -0.05540001 -0.01112133
v -0.03716778 -0.05550003 -0.01023012
v -0.03785610 -0.05540001 -0.00713795
v -0.03805047 -0.05550003 -0.00618565
v -0.03840035 -0.05540001 -0.00307363
v -0.03849440 -0.05550003 -0.00206983
v -0.03850954 -0.05540001 0.00102550
v -0.03849440 -0.05550003 0.00206965
v -0.03818237 -0.05540001 0.00511295
v -0.03805047 -0.05550003 0.00618559
v -0.03742259 -0.05540001 0.00914252
v -0.03716778 -0.05550003 0.01023000
v -0.03623878 -0.05540001 0.01306849
v -0.03585654 -0.05550003 0.01415652
v -0.03464436 -0.05540001 0.01684641
v -0.03413176 -0.05550003 0.01791989
v -0.03265744 -0.05540001 0.02043342
v -0.03201347 -0.05550003 0.02147650
v -0.03030049 -0.05540001 0.02378875
v -0.02952593 -0.05550003 0.02478528
v -0.02760022 -0.05540001 0.02687484
v -0.02669799 -0.05550003 0.02780848
v -0.02458721 -0.05540001 0.02965617
v -0.02356213 -0.05550003 0.03051096
v -0.02130508 -0.05540001 0.03209543
v -0.02015459 -0.05550003 0.03286147
v -0.01776278 -0.05540001 0.03418332
v -0.01651459 -0.05550003 0.03483319
v -0.01402860 -0.05540001 0.03587782
v -0.01268422 -0.05550003 0.03640317
v -0.01013553 -0.05540001 0.03716564
v -0.00870752 -0.05550003 0.03755354
v -0.00612759 -0.05540001 0.03803265
v 0.00000000 -0.05530005 0.03834974
v 0.00049998 -0.05531108 0.03841215
v 0.00204635 -0.05532681 0.03839534
v 0.00049998 -0.05535316 0.03848230
v 0.00205022 -0.05540001 0.03846842
v 0.00049998 -0.05541986 0.03852981
v 0.00049998 -0.05550003 0.03854656
v 0.00463045 -0.05550003 0.03827071
v 0.00612759 -0.05540001 0.03803265
v 0.00611591 -0.05532681 0.03796017
v 0.01011621 -0.05532681 0.03709512
v 0.00745100 -0.05530005 0.03761899
v 0.01108753 -0.05530005 0.03671216
v 0.01400190 -0.05532681 0.03580975
v 0.01461809 -0.05530005 0.03545439
v 0.01772898 -0.05532681 0.03411847
v 0.01800906 -0.05530005 0.03385818
v 0.02127397 -0.05532681 0.03202819
v 0.02122807 -0.05530005 0.03193861
v 0.02424430 -0.05530005 0.02971404
v 0.02454042 -0.05532681 0.02959990
v 0.02702897 -0.05530005 0.02720564
v 0.02754771 -0.05532681 0.02682387
v 0.02955549 -0.05530005 0.02443736
v 0.03024286 -0.05532681 0.02374356
v 0.03179973 -0.05530005 0.02143579
v 0.03259533 -0.05532681 0.02039462
v 0.03374028 -0.05530005 0.01822942
v 0.03457850 -0.05532681 0.01681441
v 0.03535854 -0.05530005 0.01484888
v 0.03616988 -0.05532681 0.01304364
v 0.03663915 -0.05530005 0.01132655
v 0.03735142 -0.05532681 0.00912511
v 0.03756976 -0.05530005 0.00769609
v 0.03810977 -0.05532681 0.00510329
v 0.03814160 -0.05530005 0.00399208
v 0.03843635 -0.05532681 0.00102347
v 0.03834915 -0.05530005 0.00024994
v 0.03832739 -0.05532681 -0.00306773
v 0.03819042 -0.05530005 -0.00349456
v 0.03778415 -0.05532681 -0.00712436
v 0.03766691 -0.05530005 -0.00720572
v 0.03678369 -0.05530005 -0.01084804
v 0.03681284 -0.05532681 -0.01110023
v 0.03554916 -0.05530005 -0.01438677
v 0.03542441 -0.05532681 -0.01495033
v 0.03397506 -0.05530005 -0.01778799
v 0.03363460 -0.05532681 -0.01863104
v 0.03207647 -0.05530005 -0.02101939
v 0.03146368 -0.05532681 -0.02210056
v 0.02987158 -0.05530005 -0.02405029
v 0.02893632 -0.05532681 -0.02531969
v 0.02738136 -0.05530005 -0.02685117
v 0.02608102 -0.05532681 -0.02825206
v 0.02462959 -0.05530005 -0.02939563
v 0.02293026 -0.05532681 -0.03086423
v 0.02164262 -0.05530005 -0.03165936
v 0.01951968 -0.05532681 -0.03312683
v 0.01844894 -0.05530005 -0.03362071
v 0.01588797 -0.05532681 -0.03501385
v 0.01507908 -0.05530005 -0.03526103
v 0.01207619 -0.05532681 -0.03650438
v 0.01156514 -0.05530005 -0.03656458
v 0.00812763 -0.05532681 -0.03758114
v 0.00794083 -0.05530005 -0.03751879
v 0.00408691 -0.05532681 -0.03823214
v 0.00424063 -0.05530005 -0.03811484
v 0.00049998 -0.05530005 -0.03834998
v 0.00049994 -0.05530005 -0.03834676
v 0.00037496 -0.05530005 -0.03834813
v 0.00024997 -0.05530005 -0.03834921
v 0.00012498 -0.05530005 -0.03834980
v 0.00000000 -0.05530005 -0.03834998
v 0.00870752 -0.05550003 0.03755354
v 0.01013553 -0.05540001 0.03716564
v 0.01268416 -0.05550003 0.03640317
v 0.01402860 -0.05540001 0.03587782
v 0.01651459 -0.05550003 0.03483319
v 0.01776272 -0.05540001 0.03418332
v 0.02130502 -0.05540001 0.03209543
v 0.02458715 -0.05540001 0.02965617
v 0.02015453 -0.05550003 0.03286147
v 0.02356207 -0.05550003 0.03051096
v 0.02669793 -0.05550003 0.02780848
v 0.02760016 -0.05540007 0.02687484
v 0.02952593 -0.05550003 0.02478528
v 0.03030043 -0.05540007 0.02378875
v 0.03201341 -0.05550003 0.02147650
v 0.03265738 -0.05540007 0.02043342
v 0.03413176 -0.05550003 0.01791989
v 0.03464436 -0.05540007 0.01684641
v 0.03585648 -0.05550003 0.01415652
v 0.03623872 -0.05540001 0.01306849
v 0.03716778 -0.05550003 0.01023000
v 0.03742253 -0.05540007 0.00914252
v 0.03805047 -0.05550003 0.00618559
v 0.03818231 -0.05540007 0.00511295
v 0.03849434 -0.05550003 0.00206965
v 0.03850948 -0.05540001 0.00102550
v 0.03840035 -0.05540001 -0.00307363
v 0.03805047 -0.05550003 -0.00618565
v 0.03785610 -0.05540001 -0.00713795
v 0.03716778 -0.05550003 -0.01023012
v 0.03688293 -0.05540001 -0.01112133
v 0.03585648 -0.05550003 -0.01415669
v 0.03549182 -0.05540001 -0.01497870
v 0.03413176 -0.05550003 -0.01791989
v 0.03369861 -0.05540001 -0.01866644
v 0.03201341 -0.05550003 -0.02147650
v 0.03152358 -0.05540001 -0.02214270
v 0.02952593 -0.05550003 -0.02478551
v 0.02899140 -0.05540001 -0.02536791
v 0.02669793 -0.05550003 -0.02780866
v 0.02613067 -0.05540001 -0.02830588
v 0.02356207 -0.05550003 -0.03051114
v 0.02297395 -0.05540001 -0.03092294
v 0.02015453 -0.05550003 -0.03286176
v 0.01955687 -0.05540001 -0.03318983
v 0.01651459 -0.05550003 -0.03483343
v 0.01591819 -0.05540001 -0.03508055
v 0.01268416 -0.05550003 -0.03640347
v 0.01209920 -0.05540001 -0.03657382
v 0.00870752 -0.05550003 -0.03755366
v 0.00814307 -0.05540001 -0.03765273
v 0.00463045 -0.05550003 -0.03827083
v 0.00409472 -0.05540001 -0.03830492
v 0.00049998 -0.05532789 -0.03844863
v 0.00049998 -0.05550003 -0.03854680
v 0.00049998 -0.05540096 -0.03852045
v 0.00374335 -0.05530005 0.03816664
v -0.00794083 -0.05530005 -0.03751879
v -0.00025000 -0.05530005 -0.03834921
v 0.00000000 -0.05530005 -0.03834998
f 1 2 3
f 3 2 4
f 5 6 7
f 3 8 9
f 9 8 10
f 9 10 11
f 11 10 12
f 11 12 13
f 13 12 14
f 13 14 15
f 15 14 16
f 15 16 17
f 17 16 18
f 17 18 19
f 19 18 20
f 19 20 21
f 21 20 22
f 21 22 23
f 23 22 24
f 23 24 25
f 25 24 26
f 25 26 27
f 27 26 28
f 27 28 29
f 29 28 30
f 29 30 31
f 31 30 32
f 31 32 33
f 33 32 34
f 33 34 35
f 35 34 36
f 35 36 37
f 37 36 38
f 39 38 40
f 41 42 3
f 3 42 43
f 44 45 46
f 42 41 47
f 47 41 48
f 47 48 49
f 49 48 50
f 49 50 51
f 51 50 52
f 51 52 53
f 53 52 54
f 53 54 55
f 55 54 56
f 55 56 57
f 57 56 58
f 57 58 59
f 59 58 60
f 59 60 61
f 61 60 62
f 61 62 63
f 63 62 64
f 63 64 65
f 65 64 66
f 65 66 67
f 67 66 68
f 67 68 69
f 69 68 70
f 71 72 73
f 74 70 75
f 74 75 76
f 76 75 77
f 76 78 79
f 80 81 82
f 83 1 3
f 84 85 86
f 86 85 87
f 86 87 88
f 88 87 89
f 88 89 90
f 90 89 91
f 90 91 92
f 92 91 93
f 92 93 94
f 94 93 95
f 94 95 96
f 96 95 97
f 96 97 98
f 98 97 99
f 98 99 100
f 100 99 101
f 100 101 102
f 102 101 103
f 102 103 104
f 104 103 105
f 104 105 106
f 106 105 107
f 106 107 108
f 108 107 109
f 109 107 110
f 109 110 111
f 111 110 112
f 111 112 113
f 113 112 114
f 113 114 115
f 115 114 116
f 115 116 117
f 117 116 118
f 117 118 119
f 116 120 118
f 118 120 121
f 121 120 122
f 121 122 123
f 123 122 124
f 123 124 125
f 125 124 126
f 125 126 127
f 127 126 128
f 127 128 129
f 129 128 130
f 129 130 131
f 131 130 132
f 131 132 133
f 133 132 134
f 133 134 135
f 135 134 136
f 135 136 137
f 137 136 138
f 137 138 139
f 139 138 140
f 139 140 141
f 141 140 142
f 141 142 143
f 143 142 144
f 143 144 145
f 145 144 146
f 145 146 147
f 119 148 117
f 117 148 149
f 150 151 152
f 152 151 153
f 152 153 154
f 152 154 155
f 155 154 156
f 155 156 157
f 157 158 155
f 155 158 159
f 155 159 160
f 160 161 155
f 155 161 162
f 155 163 164
f 165 166 155
f 155 166 167
f 155 167 168
f 168 169 155
f 155 169 170
f 155 170 171
f 172 173 155
f 155 173 174
f 155 174 175
f 176 177 178
f 172 179 180
f 181 182 183
f 184 185 172
f 172 185 186
f 172 186 187
f 187 188 172
f 172 188 189
f 172 189 190
f 190 191 172
f 172 192 193
f 172 194 195
f 195 196 172
f 172 196 197
f 172 197 173
f 198 199 155
f 155 199 152
f 200 201 202
f 203 204 152
f 152 204 205
f 152 205 150
f 206 207 203
f 203 207 208
f 203 208 204
f 207 206 209
f 209 206 210
f 209 210 211
f 212 213 211
f 211 213 214
f 211 214 215
f 212 216 213
f 213 216 217
f 213 217 218
f 218 219 213
f 213 219 220
f 213 220 221
f 221 222 213
f 213 222 223
f 224 225 226
f 227 228 213
f 213 229 230
f 213 230 231
f 231 232 213
f 213 232 233
f 215 234 211
f 211 234 235
f 211 235 236
f 236 237 211
f 211 237 238
f 211 238 239
f 239 240 211
f 211 240 241
f 211 241 242
f 242 209 211
f 243 244 245
f 245 244 246
f 245 246 247
f 247 246 248
f 247 248 249
f 249 248 250
f 249 250 251
f 251 250 252
f 251 252 253
f 253 252 254
f 253 254 255
f 255 254 256
f 255 256 257
f 257 256 258
f 257 258 259
f 259 258 260
f 259 260 261
f 261 260 262
f 261 262 263
f 263 262 264
f 263 264 265
f 265 264 266
f 265 266 267
f 267 266 268
f 267 268 269
f 246 270 248
f 248 270 271
f 248 271 272
f 272 271 273
f 272 273 274
f 272 274 275
f 275 274 276
f 275 276 277
f 275 277 278
f 278 277 279
f 278 279 280
f 280 279 281
f 280 281 282
f 283 284 282
f 282 284 285
f 282 285 280
f 280 285 286
f 280 286 278
f 278 286 287
f 278 287 288
f 288 287 252
f 288 252 250
f 284 283 289
f 289 283 290
f 289 290 291
f 291 290 292
f 291 292 293
f 293 292 294
f 293 294 295
f 290 294 292
f 293 295 296
f 296 295 297
f 296 297 298
f 298 297 299
f 298 299 300
f 300 299 301
f 300 301 302
f 302 301 303
f 302 303 304
f 304 303 305
f 304 305 266
f 266 305 306
f 266 306 268
f 267 269 307
f 307 269 308
f 307 308 309
f 307 309 310
f 310 309 311
f 310 311 312
f 312 311 313
f 312 313 314
f 314 313 315
f 314 315 316
f 314 316 317
f 317 316 318
f 317 318 319
f 319 318 320
f 319 320 321
f 321 320 322
f 321 322 323
f 323 322 324
f 323 324 325
f 325 326 323
f 323 326 327
f 323 327 328
f 328 327 329
f 328 329 330
f 330 329 331
f 330 331 332
f 332 331 333
f 332 333 334
f 334 333 335
f 334 335 336
f 336 335 337
f 336 337 338
f 338 337 339
f 338 339 340
f 340 339 341
f 340 341 342
f 342 341 343
f 342 343 344
f 344 343 345
f 344 345 346
f 346 345 347
f 346 347 348
f 348 347 349
f 348 349 350
f 327 326 351
f 351 326 352
f 351 352 353
f 353 352 354
f 353 354 355
f 355 354 356
f 355 356 357
f 357 356 358
f 357 358 359
f 359 358 360
f 359 360 361
f 361 360 362
f 361 362 363
f 363 362 364
f 363 364 365
f 365 364 366
f 365 366 367
f 367 366 368
f 367 368 369
f 369 368 370
f 369 370 371
f 372 358 352
f 352 358 356
f 352 356 354
f 373 374 372
f 372 374 375
f 372 375 376
f 376 375 377
f 376 377 378
f 378 377 379
f 378 379 366
f 366 379 368
f 374 380 375
f 375 380 381
f 375 381 382
f 375 382 377
f 377 382 383
f 377 383 384
f 384 385 377
f 377 385 379
f 385 386 379
f 379 386 387
f 379 387 388
f 388 389 379
f 379 389 390
f 379 390 368
f 368 390 391
f 368 391 392
f 392 370 368
f 371 393 369
f 369 393 394
f 369 394 395
f 395 396 369
f 369 396 397
f 369 397 398
f 398 397 345
f 398 345 343
f 396 399 397
f 397 399 400
f 397 400 401
f 397 401 347
f 347 401 402
f 347 402 403
f 403 349 347
f 350 404 348
f 348 404 405
f 348 405 406
f 406 407 348
f 348 407 408
f 348 408 409
f 409 408 410
f 409 410 411
f 411 410 412
f 411 412 413
f 413 412 414
f 413 414 415
f 415 414 416
f 415 416 417
f 417 416 418
f 417 418 419
f 419 418 420
f 419 420 421
f 421 420 422
f 421 422 423
f 423 422 261
f 423 261 263
f 407 424 408
f 408 424 425
f 408 425 426
f 426 427 408
f 408 427 428
f 408 428 429
f 429 428 430
f 429 430 431
f 431 432 429
f 429 432 433
f 429 433 434
f 434 433 435
f 434 435 436
f 436 437 434
f 434 437 438
f 434 438 439
f 439 438 440
f 439 440 441
f 441 442 439
f 439 442 443
f 439 443 444
f 444 443 445
f 444 445 446
f 446 445 447
f 446 447 448
f 448 447 449
f 448 449 450
f 450 449 451
f 450 451 452
f 452 451 255
f 452 255 257
f 442 453 443
f 443 453 454
f 443 454 455
f 443 455 456
f 456 455 457
f 456 457 458
f 458 459 456
f 456 459 460
f 456 460 461
f 456 461 462
f 462 461 463
f 462 463 464
f 462 464 465
f 465 464 243
f 465 243 245
f 362 372 466
f 466 372 376
f 466 376 378
f 465 245 467
f 467 245 247
f 467 247 249
f 462 465 468
f 468 465 467
f 468 467 469
f 469 467 249
f 469 249 251
f 445 443 456
f 456 462 470
f 470 462 468
f 470 468 471
f 471 468 469
f 471 469 472
f 472 469 251
f 472 251 253
f 434 439 473
f 473 439 444
f 473 444 474
f 474 444 446
f 474 446 475
f 475 446 448
f 475 448 476
f 476 448 450
f 476 450 477
f 477 450 452
f 477 452 478
f 478 452 257
f 478 257 259
f 410 408 429
f 429 434 479
f 479 434 473
f 479 473 480
f 480 473 474
f 480 474 481
f 481 474 475
f 481 475 482
f 482 475 476
f 482 476 483
f 483 476 477
f 483 477 478
f 346 348 409
f 345 397 347
f 367 369 398
f 471 447 470
f 470 447 445
f 470 445 456
f 447 471 449
f 449 471 472
f 449 472 451
f 451 472 253
f 451 253 255
f 480 412 479
f 479 412 410
f 479 410 429
f 412 480 414
f 414 480 481
f 414 481 416
f 416 481 482
f 416 482 418
f 418 482 483
f 418 483 420
f 420 483 478
f 420 478 422
f 422 478 259
f 422 259 261
f 346 409 484
f 484 409 411
f 484 411 485
f 485 411 413
f 485 413 415
f 346 484 344
f 344 484 486
f 344 486 342
f 342 486 487
f 342 487 340
f 340 487 488
f 340 488 338
f 338 488 489
f 338 489 336
f 336 489 490
f 336 490 334
f 334 490 491
f 334 491 332
f 332 491 492
f 332 492 330
f 330 492 493
f 330 493 328
f 328 493 321
f 328 321 323
f 486 484 485
f 367 398 494
f 494 398 343
f 494 343 341
f 367 494 365
f 365 494 495
f 365 495 363
f 363 495 496
f 363 496 361
f 361 496 497
f 361 497 359
f 359 497 498
f 359 498 357
f 357 498 499
f 357 499 355
f 355 499 500
f 355 500 353
f 353 500 351
f 495 494 341
f 378 366 364
f 362 466 364
f 364 466 378
f 358 372 360
f 360 372 362
f 288 250 272
f 272 250 248
f 288 272 275
f 486 485 501
f 501 485 415
f 501 415 502
f 502 415 417
f 502 417 503
f 503 417 419
f 503 419 504
f 504 419 421
f 504 421 505
f 505 421 423
f 505 423 506
f 506 423 263
f 506 263 265
f 496 495 339
f 339 495 341
f 278 288 275
f 254 252 287
f 486 501 487
f 487 501 507
f 487 507 488
f 488 507 508
f 488 508 489
f 489 508 509
f 489 509 490
f 490 509 510
f 490 510 491
f 491 510 511
f 491 511 492
f 492 511 512
f 492 512 493
f 493 512 319
f 493 319 321
f 507 501 502
f 497 496 337
f 337 496 339
f 254 287 513
f 513 287 286
f 513 286 514
f 514 286 285
f 514 285 515
f 515 285 284
f 515 284 516
f 516 284 289
f 516 289 517
f 517 289 291
f 517 291 293
f 507 502 518
f 518 502 503
f 518 503 519
f 519 503 504
f 519 504 520
f 520 504 505
f 520 505 521
f 521 505 506
f 521 506 522
f 522 506 265
f 522 265 267
f 498 497 335
f 335 497 337
f 254 513 256
f 256 513 523
f 256 523 258
f 258 523 524
f 258 524 260
f 260 524 525
f 260 525 262
f 262 525 526
f 262 526 264
f 264 526 304
f 264 304 266
f 523 513 514
f 507 518 508
f 508 518 527
f 508 527 509
f 509 527 528
f 509 528 510
f 510 528 529
f 510 529 511
f 511 529 530
f 511 530 512
f 512 530 317
f 512 317 319
f 527 518 519
f 499 498 333
f 333 498 335
f 523 514 531
f 531 514 515
f 531 515 532
f 532 515 516
f 532 516 533
f 533 516 517
f 533 517 296
f 296 517 293
f 527 519 534
f 534 519 520
f 534 520 535
f 535 520 521
f 535 521 536
f 536 521 522
f 536 522 307
f 307 522 267
f 500 499 331
f 331 499 333
f 523 531 524
f 524 531 537
f 524 537 525
f 525 537 538
f 525 538 526
f 526 538 302
f 526 302 304
f 537 531 532
f 527 534 528
f 528 534 539
f 528 539 529
f 529 539 540
f 529 540 530
f 530 540 314
f 530 314 317
f 539 534 535
f 351 500 329
f 329 500 331
f 537 532 541
f 541 532 533
f 541 533 298
f 298 533 296
f 539 535 542
f 542 535 536
f 542 536 310
f 310 536 307
f 327 351 329
f 542 310 312
f 542 312 540
f 540 312 314
f 541 298 300
f 541 300 538
f 538 300 302
f 541 538 537
f 542 540 539
f 543 544 545
f 545 544 546
f 545 546 547
f 547 546 548
f 547 548 549
f 549 548 550
f 549 550 551
f 551 550 552
f 551 552 553
f 553 552 554
f 553 554 555
f 555 554 556
f 555 556 557
f 557 556 558
f 557 558 559
f 559 558 560
f 559 560 561
f 561 560 562
f 561 562 563
f 563 562 564
f 563 564 565
f 565 564 566
f 565 566 567
f 567 566 568
f 567 568 569
f 548 546 570
f 570 546 571
f 570 571 572
f 572 571 573
f 572 573 574
f 574 573 575
f 574 575 576
f 576 575 577
f 576 577 578
f 578 577 579
f 578 579 580
f 580 579 581
f 580 581 582
f 582 581 583
f 582 583 584
f 584 583 585
f 584 585 586
f 586 585 587
f 586 587 588
f 589 590 571
f 571 590 591
f 571 591 592
f 592 591 593
f 592 593 575
f 575 593 577
f 594 595 589
f 589 595 596
f 589 596 597
f 597 596 598
f 597 598 599
f 599 598 600
f 599 600 601
f 601 600 602
f 601 602 603
f 603 602 604
f 603 604 581
f 581 604 583
f 594 605 595
f 595 605 606
f 595 606 598
f 598 606 600
f 605 607 606
f 606 607 608
f 606 608 600
f 600 608 602
f 607 609 608
f 608 609 610
f 608 610 602
f 602 610 604
f 609 611 610
f 610 611 612
f 610 612 613
f 613 612 614
f 613 614 585
f 585 614 587
f 586 588 615
f 615 588 616
f 615 616 566
f 566 616 568
f 567 569 617
f 617 569 618
f 617 618 619
f 619 618 620
f 619 620 621
f 619 621 622
f 622 621 623
f 622 623 624
f 624 623 625
f 624 625 626
f 626 625 627
f 626 627 628
f 626 628 629
f 629 628 630
f 629 630 631
f 631 630 632
f 631 632 633
f 633 634 631
f 631 634 635
f 631 635 629
f 629 635 636
f 629 636 626
f 626 636 637
f 626 637 624
f 624 637 638
f 624 638 622
f 622 638 639
f 622 639 619
f 619 639 640
f 619 640 617
f 617 640 641
f 617 641 567
f 567 641 565
f 634 642 635
f 635 642 643
f 635 643 644
f 644 645 635
f 635 645 646
f 635 646 647
f 647 646 648
f 647 648 649
f 647 649 650
f 650 649 651
f 650 651 652
f 652 651 653
f 652 653 654
f 654 653 655
f 654 655 656
f 656 655 657
f 656 657 658
f 659 660 658
f 658 660 661
f 658 661 656
f 656 661 662
f 656 662 663
f 663 662 664
f 663 664 665
f 665 664 666
f 665 666 667
f 667 666 668
f 667 668 669
f 669 668 670
f 669 670 671
f 671 670 672
f 671 672 673
f 673 672 674
f 673 674 675
f 675 674 676
f 675 676 677
f 677 676 678
f 677 678 679
f 679 678 680
f 679 680 681
f 681 680 682
f 681 682 683
f 683 682 684
f 683 684 555
f 555 684 553
f 685 686 659
f 659 686 687
f 659 687 660
f 660 687 688
f 660 688 689
f 689 688 690
f 689 690 691
f 691 690 692
f 691 692 693
f 693 692 694
f 693 694 695
f 695 694 696
f 695 696 697
f 697 696 698
f 697 698 699
f 699 698 700
f 699 700 701
f 701 700 702
f 701 702 703
f 703 702 704
f 703 704 705
f 705 704 706
f 705 706 707
f 707 706 708
f 707 708 709
f 709 708 710
f 709 710 711
f 711 710 712
f 711 712 713
f 713 712 714
f 713 714 551
f 551 714 549
f 686 685 715
f 715 685 716
f 715 716 717
f 717 716 718
f 715 717 719
f 719 717 720
f 719 720 721
f 721 720 722
f 721 722 723
f 723 722 724
f 723 724 725
f 725 724 726
f 725 726 727
f 727 726 728
f 727 728 729
f 729 728 730
f 729 730 731
f 731 730 732
f 731 732 733
f 733 732 734
f 733 734 735
f 735 734 736
f 735 736 737
f 737 736 738
f 737 738 739
f 739 738 740
f 739 740 741
f 741 740 742
f 741 742 743
f 743 742 744
f 743 744 745
f 745 744 746
f 745 746 747
f 747 746 748
f 747 748 714
f 714 748 549
f 744 543 746
f 746 543 545
f 746 545 748
f 748 545 547
f 748 547 549
f 590 589 597
f 573 571 592
f 743 745 749
f 749 745 747
f 749 747 712
f 712 747 714
f 741 743 750
f 750 743 749
f 750 749 710
f 710 749 712
f 739 741 751
f 751 741 750
f 751 750 708
f 708 750 710
f 737 739 752
f 752 739 751
f 752 751 706
f 706 751 708
f 735 737 753
f 753 737 752
f 753 752 704
f 704 752 706
f 733 735 754
f 754 735 753
f 754 753 702
f 702 753 704
f 731 733 755
f 755 733 754
f 755 754 700
f 700 754 702
f 729 731 756
f 756 731 755
f 756 755 698
f 698 755 700
f 727 729 757
f 757 729 756
f 757 756 696
f 696 756 698
f 725 727 758
f 758 727 757
f 758 757 694
f 694 757 696
f 723 725 759
f 759 725 758
f 759 758 692
f 692 758 694
f 721 723 760
f 760 723 759
f 760 759 690
f 690 759 692
f 686 715 719
f 719 721 761
f 761 721 760
f 761 760 688
f 688 760 690
f 688 687 761
f 761 687 686
f 761 686 719
f 592 575 573
f 576 762 763
f 763 762 554
f 763 554 552
f 554 762 556
f 556 762 764
f 556 764 558
f 558 764 765
f 558 765 560
f 560 765 766
f 560 766 562
f 562 766 767
f 562 767 564
f 564 767 615
f 564 615 566
f 764 762 578
f 578 762 576
f 683 555 557
f 681 683 768
f 768 683 557
f 768 557 559
f 679 681 769
f 769 681 768
f 769 768 770
f 770 768 559
f 770 559 561
f 677 679 771
f 771 679 769
f 771 769 772
f 772 769 770
f 772 770 773
f 773 770 561
f 773 561 563
f 675 677 774
f 774 677 771
f 774 771 775
f 775 771 772
f 775 772 776
f 776 772 773
f 776 773 777
f 777 773 563
f 777 563 565
f 673 675 778
f 778 675 774
f 778 774 779
f 779 774 775
f 779 775 780
f 780 775 776
f 780 776 781
f 781 776 777
f 781 777 641
f 641 777 565
f 671 673 782
f 782 673 778
f 782 778 783
f 783 778 779
f 783 779 784
f 784 779 780
f 784 780 785
f 785 780 781
f 785 781 640
f 640 781 641
f 669 671 786
f 786 671 782
f 786 782 787
f 787 782 783
f 787 783 788
f 788 783 784
f 788 784 789
f 789 784 785
f 789 785 639
f 639 785 640
f 667 669 790
f 790 669 786
f 790 786 791
f 791 786 787
f 791 787 792
f 792 787 788
f 792 788 793
f 793 788 789
f 793 789 638
f 638 789 639
f 665 667 794
f 794 667 790
f 794 790 795
f 795 790 791
f 795 791 796
f 796 791 792
f 796 792 797
f 797 792 793
f 797 793 637
f 637 793 638
f 663 665 798
f 798 665 794
f 798 794 799
f 799 794 795
f 799 795 800
f 800 795 796
f 800 796 801
f 801 796 797
f 801 797 636
f 636 797 637
f 656 663 654
f 654 663 798
f 654 798 652
f 652 798 799
f 652 799 650
f 650 799 800
f 650 800 647
f 647 800 801
f 647 801 635
f 635 801 636
f 576 763 574
f 574 763 802
f 574 802 572
f 572 802 570
f 802 763 552
f 596 595 598
f 583 604 613
f 613 604 610
f 613 585 583
f 584 586 767
f 767 586 615
f 582 584 766
f 766 584 767
f 580 582 765
f 765 582 766
f 581 579 603
f 603 579 803
f 603 803 601
f 601 803 804
f 601 804 599
f 599 804 590
f 599 590 597
f 578 580 764
f 764 580 765
f 579 577 803
f 803 577 593
f 803 593 804
f 804 593 591
f 804 591 590
f 660 689 661
f 661 689 662
f 689 691 662
f 662 691 664
f 691 693 664
f 664 693 666
f 693 695 666
f 666 695 668
f 695 697 668
f 668 697 670
f 697 699 670
f 670 699 672
f 699 701 672
f 672 701 674
f 701 703 674
f 674 703 676
f 703 705 676
f 676 705 678
f 705 707 678
f 678 707 680
f 707 709 680
f 680 709 682
f 709 711 682
f 682 711 684
f 711 713 684
f 684 713 553
f 713 551 553
f 570 802 550
f 550 802 552
f 548 570 550
f 805 806 807
f 807 806 808
f 807 808 809
f 809 808 810
f 809 810 811
f 811 810 812
f 811 812 813
f 813 812 814
f 813 814 815
f 815 814 816
f 815 816 817
f 817 816 818
f 817 818 819
f 819 818 820
f 819 820 821
f 821 820 822
f 821 822 823
f 823 822 824
f 823 824 825
f 825 824 826
f 825 826 827
f 827 826 828
f 827 828 829
f 829 828 830
f 829 830 831
f 831 830 832
f 831 832 833
f 833 832 834
f 833 834 835
f 835 834 836
f 835 836 837
f 834 838 836
f 836 838 839
f 839 838 840
f 840 838 841
f 841 838 842
f 841 842 843
f 843 842 844
f 844 842 845
f 845 842 846
f 845 846 847
f 847 846 848
f 848 846 849
f 849 846 850
f 850 846 851
f 851 846 852
f 851 852 853
f 853 852 854
f 854 852 855
f 855 852 856
f 856 852 857
f 856 857 858
f 858 857 859
f 859 857 860
f 860 857 861
f 861 857 862
f 862 857 863
f 862 863 864
f 864 863 865
f 865 863 866
f 866 863 867
f 866 867 868
f 868 867 869
f 869 867 870
f 870 867 871
f 870 871 872
f 872 871 873
f 873 871 874
f 874 871 875
f 875 871 876
f 876 871 877
f 877 871 878
f 877 878 879
f 879 878 880
f 880 878 881
f 881 878 882
f 882 878 883
f 883 878 884
f 883 884 885
f 885 884 886
f 886 884 887
f 887 884 888
f 888 884 889
f 889 884 890
f 889 890 891
f 891 890 892
f 892 890 893
f 893 890 894
f 894 890 895
f 894 895 896
f 896 895 897
f 897 895 898
f 898 895 899
f 899 895 900
f 899 900 901
f 901 900 902
f 902 900 903
f 903 900 904
f 904 900 905
f 905 900 906
f 906 900 907
f 907 900 908
f 907 908 909
f 909 908 910
f 909 910 911
f 912 913 837
f 837 913 835
f 914 915 916
f 916 915 917
f 917 915 918
f 917 918 919
f 919 918 920
f 920 918 921
f 922 923 924
f 924 923 925
f 924 925 926
f 924 926 927
f 927 926 928
f 927 928 929
f 930 931 932
f 932 931 933
f 932 933 934
f 934 935 932
f 936 937 938
f 939 940 941
f 942 943 944
f 945 946 947
f 947 946 948
f 947 948 949
f 949 948 950
f 949 950 951
f 949 951 952
f 952 951 953
f 952 953 954
f 954 953 955
f 954 955 956
f 956 955 957
f 956 957 958
f 958 957 959
f 958 959 960
f 960 959 961
f 961 959 962
f 961 962 963
f 963 962 964
f 964 962 965
f 965 962 959
f 965 959 957
f 960 966 958
f 958 966 956
f 966 967 956
f 956 967 954
f 954 967 952
f 952 967 968
f 952 968 949
f 949 968 947
f 968 969 947
f 970 971 972
f 973 974 975
f 975 974 976
f 977 978 979
f 979 978 980
f 979 980 981
f 981 980 982
f 981 982 983
f 983 982 984
f 984 982 985
f 985 982 986
f 986 982 987
f 987 982 988
f 987 988 989
f 989 988 990
f 989 990 991
f 991 990 992
f 992 990 993
f 992 993 994
f 994 993 995
f 995 993 996
f 995 996 997
f 977 998 978
f 997 999 995
f 995 999 1000
f 995 1000 1001
f 1001 1000 1002
f 1001 1002 1003
f 1003 1004 1001
f 1001 1004 1005
f 1005 1004 1006
f 1006 1004 1007
f 1006 1007 1008
f 1008 1007 1009
f 1008 1009 1010
f 1011 1012 1013
f 1014 1009 1015
f 1016 1017 1018
f 1018 1017 1019
f 1020 1021 1022
f 1023 1024 1016
f 1016 1024 1025
f 1016 1025 1026
f 1027 1028 1023
f 1023 1028 1029
f 1023 1029 1024
f 1028 1027 1030
f 1030 1027 1031
f 1030 1031 1032
f 1032 1031 1033
f 1032 1033 1034
f 1034 1033 1035
f 1035 1033 1036
f 1036 1033 1037
f 1036 1037 1038
f 1038 1037 1039
f 1038 1039 1040
f 1040 1039 1041
f 1026 1042 1016
f 1016 1042 1043
f 1016 1043 1044
f 1044 1045 1016
f 1016 1045 1017
f 1046 1047 1048
f 1018 1049 1050
f 1051 1052 1053
f 1053 1052 1054
f 1053 1054 1055
f 1055 1054 1056
f 1055 1056 1057
f 1055 1057 1058
f 1058 1057 1059
f 1058 1059 1060
f 1060 1059 1061
f 1060 1061 1062
f 1060 1062 1063
f 1063 1062 1064
f 1063 1064 1065
f 1065 1064 1066
f 1065 1066 1067
f 1065 1067 1068
f 1068 1067 1069
f 1068 1069 1070
f 1070 1069 1071
f 1070 1071 1072
f 1072 1071 1073
f 1072 1073 1074
f 1074 1073 1075
f 1074 1075 1076
f 1077 1078 1076
f 1076 1078 1079
f 1076 1079 1074
f 1074 1079 1080
f 1074 1080 1081
f 1081 1080 1082
f 1081 1082 1083
f 1083 1082 1084
f 1083 1084 1085
f 1078 1077 1086
f 1086 1077 1087
f 1086 1087 1088
f 1088 1087 1089
f 1088 1089 1090
f 1090 1089 1091
f 1090 1091 1092
f 1092 1091 1093
f 1092 1093 1094
f 1094 1093 1095
f 1094 1095 1096
f 1096 1095 1097
f 1096 1097 1098
f 1098 1097 1099
f 1098 1099 1100
f 1100 1099 1101
f 1100 1101 1102
f 1102 1101 1103
f 1103 1101 1104
f 1103 1104 1105
f 1105 1104 1106
f 1105 1106 1107
f 1107 1106 1108
f 1108 1106 1109
f 1108 1109 1110
f 1110 1109 1093
f 1110 1093 1091
f 1098 1111 1096
f 1096 1111 1112
f 1096 1112 1094
f 1094 1112 1113
f 1094 1113 1092
f 1092 1113 1090
f 1111 1114 1112
f 1112 1114 1115
f 1112 1115 1113
f 1113 1115 1116
f 1113 1116 1090
f 1090 1116 1088
f 1114 1117 1115
f 1115 1117 1118
f 1115 1118 1116
f 1116 1118 1119
f 1116 1119 1088
f 1088 1119 1086
f 1118 1117 1120
f 1120 1117 1121
f 1120 1121 1122
f 1122 1121 1123
f 1122 1123 1124
f 1124 1123 1125
f 1124 1125 1126
f 1124 1126 1082
f 1082 1126 1084
f 1083 1085 1127
f 1127 1085 1128
f 1127 1128 1129
f 1129 1128 1130
f 1129 1130 1131
f 1129 1131 1132
f 1132 1131 1133
f 1132 1133 1134
f 1134 1133 1135
f 1134 1135 1136
f 1134 1136 1137
f 1137 1136 1138
f 1137 1138 1139
f 1137 1139 1140
f 1140 1139 1141
f 1140 1141 1142
f 1142 1141 1143
f 1142 1143 1144
f 1141 1145 1143
f 1146 1147 1144
f 1144 1147 1148
f 1144 1148 1149
f 1149 1150 1144
f 1144 1150 1142
f 1142 1150 1151
f 1151 1150 1152
f 1151 1152 1053
f 1053 1152 1051
f 1095 1093 1109
f 1109 1106 1153
f 1153 1106 1104
f 1153 1104 1099
f 1099 1104 1101
f 1078 1086 1154
f 1154 1086 1119
f 1154 1119 1120
f 1120 1119 1118
f 1079 1078 1155
f 1155 1078 1154
f 1155 1154 1122
f 1122 1154 1120
f 1074 1081 1072
f 1072 1081 1156
f 1072 1156 1070
f 1070 1156 1157
f 1070 1157 1068
f 1068 1157 1158
f 1068 1158 1065
f 1065 1158 1159
f 1065 1159 1063
f 1063 1159 1160
f 1063 1160 1060
f 1060 1160 1161
f 1060 1161 1058
f 1058 1161 1162
f 1058 1162 1055
f 1055 1162 1151
f 1055 1151 1053
f 1097 1095 1153
f 1153 1095 1109
f 1097 1153 1099
f 1079 1155 1080
f 1080 1155 1124
f 1080 1124 1082
f 1124 1155 1122
f 1081 1083 1156
f 1156 1083 1127
f 1156 1127 1157
f 1157 1127 1129
f 1157 1129 1158
f 1158 1129 1132
f 1158 1132 1159
f 1159 1132 1134
f 1159 1134 1160
f 1160 1134 1137
f 1160 1137 1161
f 1161 1137 1140
f 1161 1140 1162
f 1162 1140 1142
f 1162 1142 1151
f 1163 1164 1165
f 1165 1164 1166
f 1165 1166 1167
f 1167 1166 1168
f 1167 1168 1169
f 1169 1168 1170
f 1169 1170 1171
f 1171 1170 1172
f 1172 1170 1173
f 1172 1173 1174
f 1174 1173 1175
f 1174 1175 1176
f 1176 1175 1177
f 1176 1177 1178
f 1178 1177 1179
f 1178 1179 1180
f 1180 1179 1181
f 1180 1181 1182
f 1182 1181 1183
f 1182 1183 1184
f 1184 1183 1185
f 1184 1185 1186
f 1186 1185 1187
f 1186 1187 1188
f 1188 1187 1189
f 1188 1189 1190
f 1190 1189 1191
f 1190 1191 1192
f 1192 1191 1193
f 1192 1193 1194
f 1194 1193 1195
f 1194 1195 1196
f 1166 1197 1168
f 1168 1197 1198
f 1168 1198 1199
f 1199 1198 1200
f 1199 1200 1201
f 1201 1200 1202
f 1201 1202 1203
f 1203 1202 1204
f 1203 1204 1205
f 1205 1204 1206
f 1205 1206 1207
f 1207 1206 1208
f 1207 1208 1209
f 1209 1208 1210
f 1209 1210 1211
f 1211 1210 1212
f 1211 1212 1213
f 1213 1212 1214
f 1213 1214 1215
f 1215 1214 1216
f 1215 1216 1217
f 1217 1216 1218
f 1217 1218 1219
f 1219 1218 1220
f 1219 1220 1221
f 1221 1220 1222
f 1221 1222 1223
f 1223 1222 1224
f 1221 1223 1193
f 1193 1223 1195
f 1171 1225 1169
f 1169 1225 1226
f 1169 1226 1167
f 1167 1226 1227
f 1167 1227 1165
f 1225 1228 1226
f 1226 1228 1229
f 1226 1229 1227
f 1173 1170 1199
f 1199 1170 1168
f 1175 1173 1201
f 1201 1173 1199
f 1177 1175 1203
f 1203 1175 1201
f 1179 1177 1205
f 1205 1177 1203
f 1181 1179 1207
f 1207 1179 1205
f 1183 1181 1209
f 1209 1181 1207
f 1185 1183 1211
f 1211 1183 1209
f 1187 1185 1213
f 1213 1185 1211
f 1189 1187 1215
f 1215 1187 1213
f 1191 1189 1217
f 1217 1189 1215
f 1217 1219 1191
f 1191 1219 1221
f 1191 1221 1193
f 1230 1231 1232
f 1232 1231 1233
f 1232 1233 1234
f 1231 1230 1235
f 1235 1230 1236
f 1235 1236 1237
f 1237 1238 1235
f 1235 1238 1239
f 1235 1239 1240
f 1240 1239 1241
f 1240 1241 1242
f 1242 1241 1243
f 1243 1241 1244
f 1243 1244 1245
f 1245 1244 1246
f 1245 1246 1247
f 1247 1246 1248
f 1247 1248 1249
f 1249 1248 1250
f 1249 1250 1251
f 1251 1250 1252
f 1251 1252 1253
f 1253 1252 1254
f 1253 1254 1255
f 1255 1254 1256
f 1255 1256 1257
f 1257 1256 1258
f 1257 1258 1259
f 1259 1258 1260
f 1259 1260 1261
f 1261 1260 1262
f 1261 1262 1263
f 1263 1262 1264
f 1263 1264 1265
f 1265 1264 1266
f 1265 1266 1267
f 1238 1268 1239
f 1239 1268 1269
f 1239 1269 1241
f 1241 1269 1244
f 1268 1270 1269
f 1269 1270 1271
f 1269 1271 1244
f 1244 1271 1246
f 1270 1272 1271
f 1271 1272 1273
f 1271 1273 1246
f 1246 1273 1248
f 1272 1274 1273
f 1273 1274 1275
f 1273 1275 1248
f 1248 1275 1250
f 1274 1276 1275
f 1275 1276 1277
f 1275 1277 1250
f 1250 1277 1252
f 1276 1278 1277
f 1277 1278 1279
f 1277 1279 1252
f 1252 1279 1254
f 1278 1280 1279
f 1279 1280 1281
f 1279 1281 1254
f 1254 1281 1256
f 1280 1282 1281
f 1281 1282 1283
f 1281 1283 1256
f 1256 1283 1258
f 1282 1284 1283
f 1283 1284 1285
f 1283 1285 1258
f 1258 1285 1260
f 1284 1286 1285
f 1285 1286 1287
f 1285 1287 1260
f 1260 1287 1262
f 1286 1288 1287
f 1287 1288 1289
f 1287 1289 1262
f 1262 1289 1264
f 1288 1290 1289
f 1289 1290 1291
f 1289 1291 1264
f 1264 1291 1266
f 1290 1292 1291
f 1291 1292 1293
f 1291 1293 1266
f 1292 1294 1293
f 1242 1295 1240
f 1240 1295 1233
f 1240 1233 1231
f 1234 1296 1232
f 1240 1231 1235
f 1297 1298 1299
f 1299 1298 1300
f 1299 1300 1301
f 1301 1300 1302
f 1301 1302 1303
f 1303 1302 1304
f 1303 1304 1305
f 1305 1304 1306
f 1306 1304 1307
f 1306 1307 1308
f 1308 1307 1309
f 1308 1309 1310
f 1310 1309 1311
f 1310 1311 1312
f 1312 1311 1313
f 1313 1311 1314
f 1313 1314 1315
f 1315 1314 1316
f 1315 1316 1317
f 1317 1316 1318
f 1318 1316 1319
f 1318 1319 1320
f 1320 1319 1321
f 1320 1321 1322
f 1322 1321 1323
f 1323 1321 1324
f 1323 1324 1325
f 1325 1324 1326
f 1325 1326 1327
f 1327 1326 1328
f 1328 1326 1329
f 1328 1329 1330
f 1330 1329 1331
f 1330 1331 1332
f 1332 1331 1333
f 1332 1333 1334
f 1334 1333 1335
f 1334 1335 1336
f 1336 1335 1337
f 1337 1335 1338
f 1338 1335 1339
f 1338 1339 1340
f 1340 1339 1341
f 1340 1341 1342
f 1342 1341 1343
f 1342 1343 1344
f 1344 1343 1326
f 1344 1326 1324
f 1300 1298 1345
f 1345 1298 1346
f 1345 1346 1347
f 1347 1346 1348
f 1347 1348 1349
f 1350 1351 1349
f 1349 1351 1347
f 1351 1352 1347
f 1347 1352 1353
f 1347 1353 1345
f 1345 1353 1354
f 1345 1354 1300
f 1300 1354 1302
f 1352 1355 1353
f 1353 1355 1356
f 1353 1356 1354
f 1354 1356 1357
f 1354 1357 1302
f 1302 1357 1304
f 1355 1358 1356
f 1356 1358 1359
f 1356 1359 1357
f 1357 1359 1360
f 1357 1360 1304
f 1304 1360 1307
f 1358 1361 1359
f 1359 1361 1362
f 1359 1362 1363
f 1363 1362 1364
f 1363 1364 1365
f 1365 1364 1366
f 1365 1366 1367
f 1367 1366 1368
f 1367 1368 1369
f 1369 1368 1370
f 1369 1370 1371
f 1369 1371 1372
f 1372 1371 1373
f 1372 1373 1374
f 1374 1373 1375
f 1374 1375 1376
f 1374 1376 1377
f 1377 1376 1378
f 1377 1378 1379
f 1379 1378 1380
f 1379 1380 1381
f 1381 1382 1379
f 1379 1382 1342
f 1379 1342 1344
f 1382 1340 1342
f 1336 1383 1334
f 1334 1383 1384
f 1334 1384 1332
f 1332 1384 1385
f 1332 1385 1330
f 1383 1386 1384
f 1384 1386 1385
f 1309 1307 1387
f 1387 1307 1360
f 1387 1360 1363
f 1363 1360 1359
f 1311 1309 1388
f 1388 1309 1387
f 1388 1387 1365
f 1365 1387 1363
f 1314 1311 1389
f 1389 1311 1388
f 1389 1388 1367
f 1367 1388 1365
f 1316 1314 1390
f 1390 1314 1389
f 1390 1389 1369
f 1369 1389 1367
f 1319 1316 1391
f 1391 1316 1390
f 1391 1390 1372
f 1372 1390 1369
f 1321 1319 1392
f 1392 1319 1391
f 1392 1391 1374
f 1374 1391 1372
f 1324 1321 1393
f 1393 1321 1392
f 1393 1392 1377
f 1377 1392 1374
f 1326 1343 1329
f 1329 1343 1394
f 1329 1394 1331
f 1331 1394 1333
f 1379 1344 1393
f 1393 1344 1324
f 1379 1393 1377
f 1343 1341 1394
f 1394 1341 1339
f 1394 1339 1333
f 1333 1339 1335
f 1395 1396 1397
f 1397 1396 1398
f 1397 1398 1399
f 1396 1395 1400
f 1400 1395 1401
f 1400 1401 1402
f 1402 1403 1400
f 1400 1403 1404
f 1400 1404 1405
f 1405 1404 1406
f 1405 1406 1407
f 1407 1406 1408
f 1408 1406 1409
f 1408 1409 1410
f 1410 1409 1411
f 1410 1411 1412
f 1412 1411 1413
f 1412 1413 1414
f 1414 1413 1415
f 1414 1415 1416
f 1416 1415 1417
f 1416 1417 1418
f 1418 1417 1419
f 1418 1419 1420
f 1420 1419 1421
f 1420 1421 1422
f 1422 1421 1423
f 1422 1423 1424
f 1424 1423 1425
f 1424 1425 1426
f 1426 1425 1427
f 1426 1427 1428
f 1428 1427 1429
f 1429 1427 1430
f 1429 1430 1431
f 1431 1430 1432
f 1431 1432 1433
f 1433 1432 1434
f 1433 1434 1435
f 1435 1434 1436
f 1435 1436 1437
f 1437 1436 1438
f 1437 1438 1439
f 1439 1438 1440
f 1439 1440 1441
f 1441 1440 1442
f 1441 1442 1443
f 1443 1442 1444
f 1443 1444 1445
f 1445 1444 1446
f 1445 1446 1447
f 1447 1446 1448
f 1447 1448 1449
f 1449 1448 1450
f 1449 1450 1451
f 1451 1450 1452
f 1452 1450 1453
f 1452 1453 1454
f 1454 1453 1455
f 1454 1455 1456
f 1456 1455 1457
f 1456 1457 1458
f 1458 1457 1459
f 1458 1459 1460
f 1460 1459 1461
f 1460 1461 1462
f 1462 1461 1463
f 1463 1461 1464
f 1463 1464 1465
f 1465 1464 1466
f 1465 1466 1467
f 1403 1468 1404
f 1404 1468 1469
f 1404 1469 1406
f 1406 1469 1409
f 1468 1470 1469
f 1469 1470 1471
f 1469 1471 1409
f 1409 1471 1411
f 1470 1472 1471
f 1471 1472 1473
f 1471 1473 1411
f 1411 1473 1413
f 1472 1474 1473
f 1473 1474 1475
f 1473 1475 1413
f 1413 1475 1415
f 1474 1476 1475
f 1475 1476 1477
f 1475 1477 1415
f 1415 1477 1417
f 1476 1478 1477
f 1477 1478 1479
f 1477 1479 1417
f 1417 1479 1419
f 1478 1480 1479
f 1479 1480 1481
f 1479 1481 1419
f 1419 1481 1421
f 1480 1482 1481
f 1481 1482 1483
f 1481 1483 1421
f 1421 1483 1423
f 1482 1484 1483
f 1483 1484 1485
f 1483 1485 1423
f 1423 1485 1425
f 1484 1486 1485
f 1485 1486 1487
f 1485 1487 1425
f 1425 1487 1427
f 1486 1488 1487
f 1487 1488 1489
f 1487 1489 1427
f 1427 1489 1430
f 1488 1490 1489
f 1489 1490 1491
f 1489 1491 1430
f 1430 1491 1432
f 1490 1492 1491
f 1491 1492 1493
f 1491 1493 1432
f 1432 1493 1434
f 1492 1494 1493
f 1493 1494 1495
f 1493 1495 1434
f 1434 1495 1436
f 1494 1496 1495
f 1495 1496 1497
f 1495 1497 1436
f 1436 1497 1438
f 1496 1498 1497
f 1497 1498 1499
f 1497 1499 1438
f 1438 1499 1440
f 1498 1500 1499
f 1499 1500 1501
f 1499 1501 1440
f 1440 1501 1442
f 1500 1502 1501
f 1501 1502 1503
f 1501 1503 1442
f 1442 1503 1444
f 1502 1504 1503
f 1503 1504 1505
f 1503 1505 1444
f 1444 1505 1446
f 1504 1506 1505
f 1505 1506 1507
f 1505 1507 1446
f 1446 1507 1448
f 1506 1508 1507
f 1507 1508 1509
f 1507 1509 1448
f 1448 1509 1450
f 1508 1510 1509
f 1509 1510 1511
f 1509 1511 1450
f 1450 1511 1453
f 1510 1512 1511
f 1511 1512 1513
f 1511 1513 1453
f 1453 1513 1455
f 1512 1514 1513
f 1513 1514 1515
f 1513 1515 1455
f 1455 1515 1457
f 1514 1516 1515
f 1515 1516 1517
f 1515 1517 1457
f 1457 1517 1459
f 1516 1518 1517
f 1517 1518 1519
f 1517 1519 1459
f 1459 1519 1461
f 1518 1466 1519
f 1519 1466 1464
f 1519 1464 1461
f 1460 1462 1520
f 1520 1462 1521
f 1520 1521 1522
f 1522 1521 1523
f 1522 1523 1524
f 1524 1523 1525
f 1524 1525 1526
f 1526 1527 1524
f 1524 1527 1528
f 1524 1528 1529
f 1529 1528 1530
f 1529 1530 1531
f 1531 1530 1532
f 1532 1530 1533
f 1532 1533 1534
f 1534 1533 1535
f 1534 1535 1536
f 1536 1535 1537
f 1536 1537 1538
f 1538 1537 1539
f 1539 1537 1540
f 1539 1540 1541
f 1541 1540 1542
f 1541 1542 1543
f 1543 1542 1544
f 1543 1544 1545
f 1545 1544 1546
f 1545 1546 1547
f 1547 1546 1548
f 1547 1548 1549
f 1549 1548 1550
f 1549 1550 1551
f 1551 1550 1552
f 1551 1552 1553
f 1553 1552 1554
f 1553 1554 1555
f 1555 1554 1556
f 1555 1556 1557
f 1557 1556 1558
f 1557 1558 1559
f 1559 1558 1560
f 1559 1560 1561
f 1561 1560 1562
f 1562 1560 1563
f 1562 1563 1564
f 1564 1563 1565
f 1564 1565 1566
f 1566 1565 1567
f 1566 1567 1568
f 1568 1567 1569
f 1568 1569 1570
f 1570 1569 1571
f 1570 1571 1572
f 1572 1571 1573
f 1572 1573 1574
f 1574 1573 1575
f 1574 1575 1576
f 1576 1575 1577
f 1576 1577 1578
f 1578 1577 1579
f 1578 1579 1580
f 1580 1579 1581
f 1580 1581 1582
f 1582 1581 1583
f 1582 1583 1584
f 1584 1583 1585
f 1584 1585 1586
f 1586 1585 1587
f 1586 1587 1588
f 1588 1587 1589
f 1589 1587 1590
f 1590 1587 1591
f 1591 1587 1592
f 1527 1593 1528
f 1528 1593 1594
f 1528 1594 1530
f 1530 1594 1533
f 1593 1595 1594
f 1594 1595 1596
f 1594 1596 1533
f 1533 1596 1535
f 1595 1597 1596
f 1596 1597 1598
f 1596 1598 1535
f 1535 1598 1599
f 1535 1599 1537
f 1537 1599 1600
f 1537 1600 1540
f 1540 1600 1542
f 1597 1601 1598
f 1598 1601 1599
f 1601 1602 1599
f 1599 1602 1600
f 1602 1603 1600
f 1600 1603 1604
f 1600 1604 1542
f 1542 1604 1544
f 1603 1605 1604
f 1604 1605 1606
f 1604 1606 1544
f 1544 1606 1546
f 1605 1607 1606
f 1606 1607 1608
f 1606 1608 1546
f 1546 1608 1548
f 1607 1609 1608
f 1608 1609 1610
f 1608 1610 1548
f 1548 1610 1550
f 1609 1611 1610
f 1610 1611 1612
f 1610 1612 1550
f 1550 1612 1552
f 1611 1613 1612
f 1612 1613 1614
f 1612 1614 1552
f 1552 1614 1554
f 1613 1615 1614
f 1614 1615 1616
f 1614 1616 1554
f 1554 1616 1556
f 1615 1617 1616
f 1616 1617 1618
f 1616 1618 1556
f 1556 1618 1558
f 1617 834 1618
f 1618 834 1619
f 1618 1619 1558
f 1558 1619 1560
f 834 1620 1619
f 1619 1620 1621
f 1619 1621 1560
f 1560 1621 1563
f 1620 1622 1621
f 1621 1622 1623
f 1621 1623 1563
f 1563 1623 1565
f 1622 1624 1623
f 1623 1624 1625
f 1623 1625 1565
f 1565 1625 1567
f 1624 1626 1625
f 1625 1626 1627
f 1625 1627 1567
f 1567 1627 1569
f 1626 1628 1627
f 1627 1628 1629
f 1627 1629 1569
f 1569 1629 1571
f 1628 1630 1629
f 1629 1630 1631
f 1629 1631 1571
f 1571 1631 1573
f 1630 1632 1631
f 1631 1632 1633
f 1631 1633 1573
f 1573 1633 1575
f 1632 1634 1633
f 1633 1634 1635
f 1633 1635 1575
f 1575 1635 1577
f 1634 1636 1635
f 1635 1636 1637
f 1635 1637 1577
f 1577 1637 1579
f 1636 1638 1637
f 1637 1638 1639
f 1637 1639 1579
f 1579 1639 1581
f 1638 1640 1639
f 1639 1640 1641
f 1639 1641 1581
f 1581 1641 1583
f 1640 1642 1641
f 1641 1642 1643
f 1641 1643 1583
f 1583 1643 1585
f 1642 1644 1643
f 1643 1644 1645
f 1643 1645 1585
f 1585 1645 1646
f 1585 1646 1587
f 1644 1647 1645
f 1645 1647 1648
f 1645 1648 1646
f 1531 1649 1529
f 1529 1649 1522
f 1529 1522 1524
f 1649 1520 1522
f 1407 1650 1405
f 1405 1650 1396
f 1405 1396 1400
f 1650 1398 1396
f 1399 1651 1397
f 1397 1651 1652

