# https://github.com/mikedh/trimesh
v -0.00055208 -0.13314110 -0.04362124
v 0.00064236 -0.13475960 -0.04281699
v -0.00054892 -0.13556650 -0.04239946
v 0.00064225 -0.13556200 -0.04240125
v 0.00055463 -0.13653751 -0.04188048
v 0.00123972 -0.13653450 -0.04187291
v 0.00192308 -0.13652930 -0.04186004
v 0.00269198 -0.13554250 -0.04236197
v 0.00260621 -0.13652220 -0.04184097
v 0.00309503 -0.13643470 -0.04186689
v 0.00289738 -0.13548470 -0.04238402
v 0.00331587 -0.13633910 -0.04190665
v 0.00304705 -0.13534559 -0.04245036
v 0.00372338 -0.13604270 -0.04204434
v 0.00310469 -0.13516089 -0.04254394
v 0.00400734 -0.13565330 -0.04223543
v 0.00413120 -0.13514560 -0.04249608
v 0.00413078 -0.13446860 -0.04284548
v 0.00310582 -0.13438819 -0.04293936
v 0.00310707 -0.13404889 -0.04310947
v -0.00034472 -0.13245450 -0.04394954
v 0.00064227 -0.13314091 -0.04362064
v 0.00064237 -0.13395260 -0.04322344
v 0.00067738 -0.13298550 -0.04369497
v 0.00021548 -0.13195071 -0.04418474
v 0.00078211 -0.13285150 -0.04375803
v 0.00097830 -0.13176300 -0.04426473
v 0.00092306 -0.13277310 -0.04379367
v 0.00106782 -0.13274930 -0.04380339
v 0.00152010 -0.13175911 -0.04425692
v 0.00161016 -0.13274570 -0.04379445
v 0.00206184 -0.13175499 -0.04424518
v 0.00215244 -0.13274080 -0.04378229
v 0.00260347 -0.13175030 -0.04422986
v 0.00269467 -0.13273451 -0.04376667
v 0.00318682 -0.13185009 -0.04415988
v 0.00295883 -0.13281550 -0.04371744
v 0.00305664 -0.13291579 -0.04366534
v 0.00368243 -0.13214010 -0.04400175
v 0.00310290 -0.13301180 -0.04361730
v 0.00401640 -0.13257921 -0.04377746
v 0.00311774 -0.13311650 -0.04356628
v 0.00413340 -0.13310251 -0.04352068
v 0.00310975 -0.13350950 -0.04337584
v 0.00413078 -0.13378720 -0.04318654
v -0.00054729 -0.13653740 -0.04188030
v 0.00055383 -0.13701680 -0.04161739
v -0.00054731 -0.13701680 -0.04161745
v -0.00018022 -0.13797081 -0.04108321
v -0.00054730 -0.13749430 -0.04135119
v -0.00054730 -0.13797019 -0.04108184
v 0.00055381 -0.13749430 -0.04135119
v 0.00018673 -0.13797081 -0.04108321
v 0.00055382 -0.13797019 -0.04108184
v -0.00123245 -0.13653450 -0.04187303
v -0.00123155 -0.13556620 -0.04239088
v -0.00191599 -0.13652940 -0.04186016
v -0.00191420 -0.13556100 -0.04237812
v -0.00259936 -0.13652150 -0.04184061
v -0.00259674 -0.13555090 -0.04235965
v -0.00280684 -0.13549380 -0.04238295
v -0.00308967 -0.13643380 -0.04186648
v -0.00295532 -0.13536270 -0.04244542
v -0.00354302 -0.13619250 -0.04197376
v -0.00302309 -0.13517520 -0.04254013
v -0.00389480 -0.13583200 -0.04214709
v -0.00412375 -0.13514601 -0.04249674
v -0.00412440 -0.13401490 -0.04307377
v -0.00302321 -0.13403051 -0.04312229
v -0.00302321 -0.13289019 -0.04367911
v -0.00412434 -0.13287400 -0.04363095
v -0.00302362 -0.13174079 -0.04421740
v -0.00412398 -0.13172390 -0.04416984
f 1 2 3
f 3 2 4
f 3 4 5
f 5 4 6
f 6 4 7
f 7 4 8
f 7 8 9
f 9 8 10
f 10 8 11
f 10 11 12
f 12 11 13
f 12 13 14
f 14 13 15
f 14 15 16
f 16 15 17
f 17 15 18
f 18 15 19
f 18 19 20
f 21 22 1
f 1 22 23
f 1 23 2
f 22 21 24
f 24 21 25
f 24 25 26
f 26 25 27
f 26 27 28
f 28 27 29
f 29 27 30
f 29 30 31
f 31 30 32
f 31 32 33
f 33 32 34
f 33 34 35
f 35 34 36
f 35 36 37
f 37 36 38
f 38 36 39
f 38 39 40
f 40 39 41
f 40 41 42
f 42 41 43
f 42 43 44
f 44 43 45
f 44 45 20
f 20 45 18
f 3 5 46
f 46 5 47
f 46 47 48
f 48 47 49
f 48 49 50
f 50 49 51
f 47 52 49
f 49 52 53
f 53 52 54
f 46 55 3
f 3 55 56
f 56 55 57
f 56 57 58
f 58 57 59
f 58 59 60
f 60 59 61
f 61 59 62
f 61 62 63
f 63 62 64
f 63 64 65
f 65 64 66
f 65 66 67
f 67 68 65
f 65 68 69
f 69 68 70
f 70 68 71
f 70 71 72
f 72 71 73

