# https://github.com/mikedh/trimesh
v -0.03923404 -0.05380004 0.51827621
v -0.03947633 -0.05480003 0.52239990
v -0.03945016 -0.05380004 0.52239990
v -0.03945016 -0.05380004 0.52239990
v -0.03947633 -0.05480003 0.52239990
v -0.03926008 -0.05480003 0.52652627
v -0.03923404 -0.05380004 0.52652359
v -0.03861367 -0.05480003 0.53060752
v -0.03858804 -0.05380004 0.53060198
v -0.03754419 -0.05480003 0.53459871
v -0.03751933 -0.05380004 0.53459060
v -0.03606343 -0.05480003 0.53845632
v -0.03603947 -0.05380004 0.53844571
v -0.03418749 -0.05480003 0.54213798
v -0.03416484 -0.05380004 0.54212493
v -0.03193700 -0.05480003 0.54560328
v -0.03191584 -0.05380004 0.54558802
v -0.02933663 -0.05480003 0.54881448
v -0.02931720 -0.05380004 0.54879701
v -0.02641481 -0.05480003 0.55173630
v -0.02639728 -0.05380004 0.55171692
v -0.02320361 -0.05480003 0.55433691
v -0.02318823 -0.05380004 0.55431563
v -0.01973813 -0.05480003 0.55658722
v -0.01972508 -0.05380004 0.55656451
v -0.01605647 -0.05480003 0.55846322
v -0.01604580 -0.05380004 0.55843931
v -0.01219886 -0.05480003 0.55994397
v -0.01219075 -0.05380004 0.55991912
v -0.00820756 -0.05480003 0.56101352
v -0.00820213 -0.05380004 0.56098789
v -0.00412637 -0.05480003 0.56165987
v -0.00412363 -0.05380004 0.56163383
v 0.00000000 -0.05480003 0.56187612
v 0.00000000 -0.05380004 0.56185001
v 0.00412637 -0.05480003 0.56165987
v 0.00412363 -0.05380004 0.56163383
v 0.00820756 -0.05480003 0.56101352
v 0.00820208 -0.05380004 0.56098789
v 0.01219880 -0.05480003 0.55994397
v 0.01219069 -0.05380004 0.55991912
v 0.01605641 -0.05480003 0.55846322
v 0.01604574 -0.05380004 0.55843931
v 0.01973813 -0.05480003 0.55658722
v 0.01972502 -0.05380004 0.55656451
v 0.02320355 -0.05480003 0.55433691
v 0.02318817 -0.05380004 0.55431563
v 0.02641481 -0.05480003 0.55173630
v 0.02639728 -0.05380004 0.55171692
v 0.02933657 -0.05480003 0.54881448
v 0.02931714 -0.05380004 0.54879701
v 0.03193700 -0.05480003 0.54560328
v 0.03191578 -0.05380004 0.54558802
v 0.03418743 -0.05480003 0.54213798
v 0.03416478 -0.05380004 0.54212493
v 0.03606337 -0.05480003 0.53845632
v 0.03603947 -0.05380004 0.53844571
v 0.03754419 -0.05480003 0.53459871
v 0.03751927 -0.05380004 0.53459060
v 0.03861361 -0.05480003 0.53060752
v 0.03858804 -0.05380004 0.53060198
v 0.03926002 -0.05480003 0.52652627
v 0.03923398 -0.05380004 0.52652359
v 0.03947627 -0.05480003 0.52239990
v 0.03945010 -0.05380004 0.52239990
v 0.03926002 -0.05480003 0.51827347
v 0.03923398 -0.05380004 0.51827621
v 0.03861361 -0.05480003 0.51419228
v 0.03858804 -0.05380004 0.51419771
v 0.03754419 -0.05480003 0.51020098
v 0.03751927 -0.05380004 0.51020920
v 0.03606337 -0.05480003 0.50634348
v 0.03603947 -0.05380004 0.50635397
v 0.03418743 -0.05480003 0.50266171
v 0.03416478 -0.05380004 0.50267482
v 0.03193700 -0.05480003 0.49919620
v 0.03191578 -0.05380004 0.49921170
v 0.02933657 -0.05480003 0.49598500
v 0.02931714 -0.05380004 0.49600250
v 0.02641481 -0.05480003 0.49306330
v 0.02639728 -0.05380004 0.49308270
v 0.02320355 -0.05480003 0.49046281
v 0.02318817 -0.05380004 0.49048409
v 0.01973813 -0.05480003 0.48821250
v 0.01972502 -0.05380004 0.48823500
v 0.01605641 -0.05480003 0.48633641
v 0.01604580 -0.05380004 0.48636031
v 0.01219880 -0.05480003 0.48485571
v 0.01219069 -0.05380004 0.48488060
v 0.00820756 -0.05480003 0.48378620
v 0.00820208 -0.05380004 0.48381189
v 0.00412637 -0.05480003 0.48313981
v 0.00412363 -0.05380004 0.48316580
v 0.00000000 -0.05480003 0.48292351
v 0.00000000 -0.05380004 0.48294970
v -0.00412637 -0.05480003 0.48313981
v -0.00412363 -0.05380004 0.48316580
v -0.00820756 -0.05480003 0.48378620
v -0.00820213 -0.05380004 0.48381189
v -0.01219886 -0.05480003 0.48485571
v -0.01219075 -0.05380004 0.48488060
v -0.01605647 -0.05480003 0.48633641
v -0.01604580 -0.05380004 0.48636031
v -0.01973813 -0.05480003 0.48821250
v -0.01972508 -0.05380004 0.48823500
v -0.02320361 -0.05480003 0.49046281
v -0.02318823 -0.05380004 0.49048409
v -0.02641481 -0.05480003 0.49306330
v -0.02639728 -0.05380004 0.49308270
v -0.02933663 -0.05480003 0.49598500
v -0.02931720 -0.05380004 0.49600250
v -0.03193700 -0.05480003 0.49919620
v -0.03191584 -0.05380004 0.49921170
v -0.03418749 -0.05480003 0.50266171
v -0.03416484 -0.05380004 0.50267482
v -0.03606343 -0.05480003 0.50634348
v -0.03603947 -0.05380004 0.50635397
v -0.03754419 -0.05480003 0.51020098
v -0.03751933 -0.05380004 0.51020920
v -0.03861367 -0.05480003 0.51419228
v -0.03858804 -0.05380004 0.51419771
v -0.03926008 -0.05480003 0.51827347
v -0.03926008 -0.05480003 0.51827347
v 0.03926002 -0.05480003 0.51827347
v -0.03947633 -0.05480003 0.52239990
v 0.03947627 -0.05480003 0.52239990
v -0.03926008 -0.05480003 0.52652627
v 0.03926002 -0.05480003 0.52652627
v -0.03861367 -0.05480003 0.53060752
v 0.03861361 -0.05480003 0.53060752
v -0.03754419 -0.05480003 0.53459871
v 0.03754419 -0.05480003 0.53459871
v -0.03606343 -0.05480003 0.53845632
v 0.03606337 -0.05480003 0.53845632
v -0.03418749 -0.05480003 0.54213798
v 0.03418743 -0.05480003 0.54213798
v -0.03193700 -0.05480003 0.54560328
v 0.03193700 -0.05480003 0.54560328
v -0.02933663 -0.05480003 0.54881448
v 0.02933657 -0.05480003 0.54881448
v -0.02641481 -0.05480003 0.55173630
v 0.02641481 -0.05480003 0.55173630
v -0.02320361 -0.05480003 0.55433691
v 0.02320355 -0.05480003 0.55433691
v -0.02320361 -0.05480003 0.55433691
v 0.02320355 -0.05480003 0.55433691
v -0.01973813 -0.05480003 0.55658722
v 0.01973813 -0.05480003 0.55658722
v -0.01973813 -0.05480003 0.55658722
v 0.01973813 -0.05480003 0.55658722
v -0.01605647 -0.05480003 0.55846322
v -0.01605647 -0.05480003 0.55846322
v 0.01605641 -0.05480003 0.55846322
v -0.01219886 -0.05480003 0.55994397
v 0.01219880 -0.05480003 0.55994397
v -0.00820756 -0.05480003 0.56101352
v 0.00820756 -0.05480003 0.56101352
v -0.00820756 -0.05480003 0.56101352
v -0.00412637 -0.05480003 0.56165987
v -0.00412637 -0.05480003 0.56165987
v 0.00412637 -0.05480003 0.56165987
v 0.00000000 -0.05480003 0.56187612
v 0.03861361 -0.05480003 0.51419228
v -0.03861367 -0.05480003 0.51419228
v 0.03754419 -0.05480003 0.51020098
v -0.03754419 -0.05480003 0.51020098
v 0.03606337 -0.05480003 0.50634348
v -0.03606343 -0.05480003 0.50634348
v 0.03418743 -0.05480003 0.50266171
v -0.03418749 -0.05480003 0.50266171
v 0.03193700 -0.05480003 0.49919620
v -0.03193700 -0.05480003 0.49919620
v 0.02933657 -0.05480003 0.49598500
v -0.02933663 -0.05480003 0.49598500
v 0.02641481 -0.05480003 0.49306330
v -0.02641481 -0.05480003 0.49306330
v 0.02320355 -0.05480003 0.49046281
v -0.02320361 -0.05480003 0.49046281
v 0.01973813 -0.05480003 0.48821250
v -0.01973813 -0.05480003 0.48821250
v 0.01605641 -0.05480003 0.48633641
v 0.01605641 -0.05480003 0.48633641
v -0.01605647 -0.05480003 0.48633641
v 0.01219880 -0.05480003 0.48485571
v -0.01219886 -0.05480003 0.48485571
v 0.00820756 -0.05480003 0.48378620
v -0.00820756 -0.05480003 0.48378620
v 0.00820756 -0.05480003 0.48378620
v 0.00412637 -0.05480003 0.48313981
v 0.00412637 -0.05480003 0.48313981
v -0.00820756 -0.05480003 0.48378620
v -0.00412637 -0.05480003 0.48313981
v 0.00412637 -0.05480003 0.48313981
v -0.00412637 -0.05480003 0.48313981
v 0.00000000 -0.05480003 0.48292351
v -0.03923404 -0.05380004 0.52652359
v 0.03923398 -0.05380004 0.52652359
v -0.03945016 -0.05380004 0.52239990
v 0.03945010 -0.05380004 0.52239990
v -0.03923404 -0.05380004 0.51827621
v 0.03923398 -0.05380004 0.51827621
v -0.03858804 -0.05380004 0.51419771
v 0.03858804 -0.05380004 0.51419771
v -0.03751933 -0.05380004 0.51020920
v 0.03751927 -0.05380004 0.51020920
v -0.03603947 -0.05380004 0.50635397
v 0.03603947 -0.05380004 0.50635397
v -0.03416484 -0.05380004 0.50267482
v 0.03416478 -0.05380004 0.50267482
v -0.03191584 -0.05380004 0.49921170
v 0.03191578 -0.05380004 0.49921170
v -0.02931720 -0.05380004 0.49600250
v 0.02931714 -0.05380004 0.49600250
v -0.02639728 -0.05380004 0.49308270
v 0.02639728 -0.05380004 0.49308270
v -0.02318823 -0.05380004 0.49048409
v -0.02318823 -0.05380004 0.49048409
v 0.02318817 -0.05380004 0.49048409
v -0.01972508 -0.05380004 0.48823500
v 0.01972502 -0.05380004 0.48823500
v 0.01972502 -0.05380004 0.48823500
v -0.01604580 -0.05380004 0.48636031
v -0.01604580 -0.05380004 0.48636031
v 0.01604580 -0.05380004 0.48636031
v -0.01219075 -0.05380004 0.48488060
v 0.01604580 -0.05380004 0.48636031
v 0.01219069 -0.05380004 0.48488060
v 0.01219069 -0.05380004 0.48488060
v -0.00820213 -0.05380004 0.48381189
v -0.00820213 -0.05380004 0.48381189
v 0.00820208 -0.05380004 0.48381189
v -0.00412363 -0.05380004 0.48316580
v 0.00820208 -0.05380004 0.48381189
v 0.00412363 -0.05380004 0.48316580
v -0.00412363 -0.05380004 0.48316580
v 0.00412363 -0.05380004 0.48316580
v 0.00000000 -0.05380004 0.48294970
v 0.03858804 -0.05380004 0.53060198
v -0.03858804 -0.05380004 0.53060198
v 0.03751927 -0.05380004 0.53459060
v -0.03751933 -0.05380004 0.53459060
v 0.03603947 -0.05380004 0.53844571
v -0.03603947 -0.05380004 0.53844571
v 0.03416478 -0.05380004 0.54212493
v -0.03416484 -0.05380004 0.54212493
v 0.03191578 -0.05380004 0.54558802
v -0.03191584 -0.05380004 0.54558802
v 0.02931714 -0.05380004 0.54879701
v -0.02931720 -0.05380004 0.54879701
v 0.02639728 -0.05380004 0.55171692
v -0.02639728 -0.05380004 0.55171692
v 0.02318817 -0.05380004 0.55431563
v -0.02318823 -0.05380004 0.55431563
v 0.01972502 -0.05380004 0.55656451
v -0.01972508 -0.05380004 0.55656451
v 0.01604574 -0.05380004 0.55843931
v 0.01604574 -0.05380004 0.55843931
v -0.01604580 -0.05380004 0.55843931
v 0.01219069 -0.05380004 0.55991912
v -0.01604580 -0.05380004 0.55843931
v -0.01219075 -0.05380004 0.55991912
v 0.00820208 -0.05380004 0.56098789
v -0.00820213 -0.05380004 0.56098789
v 0.00820208 -0.05380004 0.56098789
v 0.00412363 -0.05380004 0.56163383
v 0.00412363 -0.05380004 0.56163383
v -0.00412363 -0.05380004 0.56163383
v 0.00000000 -0.05380004 0.56185001
f 1 2 3
f 4 5 6
f 4 6 7
f 7 6 8
f 7 8 9
f 9 8 10
f 9 10 11
f 11 10 12
f 11 12 13
f 13 12 14
f 13 14 15
f 15 14 16
f 15 16 17
f 17 16 18
f 17 18 19
f 19 18 20
f 19 20 21
f 21 20 22
f 21 22 23
f 23 22 24
f 23 24 25
f 25 24 26
f 25 26 27
f 27 26 28
f 27 28 29
f 29 28 30
f 29 30 31
f 31 30 32
f 31 32 33
f 33 32 34
f 33 34 35
f 35 34 36
f 35 36 37
f 37 36 38
f 37 38 39
f 39 38 40
f 39 40 41
f 41 40 42
f 41 42 43
f 43 42 44
f 43 44 45
f 45 44 46
f 45 46 47
f 47 46 48
f 47 48 49
f 49 48 50
f 49 50 51
f 51 50 52
f 51 52 53
f 53 52 54
f 53 54 55
f 55 54 56
f 55 56 57
f 57 56 58
f 57 58 59
f 59 58 60
f 59 60 61
f 61 60 62
f 61 62 63
f 63 62 64
f 63 64 65
f 65 64 66
f 65 66 67
f 67 66 68
f 67 68 69
f 69 68 70
f 69 70 71
f 71 70 72
f 71 72 73
f 73 72 74
f 73 74 75
f 75 74 76
f 75 76 77
f 77 76 78
f 77 78 79
f 79 78 80
f 79 80 81
f 81 80 82
f 81 82 83
f 83 82 84
f 83 84 85
f 85 84 86
f 85 86 87
f 87 86 88
f 87 88 89
f 89 88 90
f 89 90 91
f 91 90 92
f 91 92 93
f 93 92 94
f 93 94 95
f 95 94 96
f 95 96 97
f 97 96 98
f 97 98 99
f 99 98 100
f 99 100 101
f 101 100 102
f 101 102 103
f 103 102 104
f 103 104 105
f 105 104 106
f 105 106 107
f 107 106 108
f 107 108 109
f 109 108 110
f 109 110 111
f 111 110 112
f 111 112 113
f 113 112 114
f 113 114 115
f 115 114 116
f 115 116 117
f 117 116 118
f 117 118 119
f 119 118 120
f 119 120 121
f 121 120 122
f 121 122 1
f 1 122 2
f 123 124 125
f 125 124 126
f 125 126 127
f 127 126 128
f 127 128 129
f 129 128 130
f 129 130 131
f 131 130 132
f 131 132 133
f 133 132 134
f 133 134 135
f 135 134 136
f 135 136 137
f 137 136 138
f 137 138 139
f 139 138 140
f 139 140 141
f 141 140 142
f 141 142 143
f 143 142 144
f 145 146 147
f 147 146 148
f 149 150 151
f 152 148 153
f 152 153 154
f 154 153 155
f 154 155 156
f 156 155 157
f 158 157 159
f 160 157 161
f 160 161 162
f 124 123 163
f 163 123 164
f 163 164 165
f 165 164 166
f 165 166 167
f 167 166 168
f 167 168 169
f 169 168 170
f 169 170 171
f 171 170 172
f 171 172 173
f 173 172 174
f 173 174 175
f 175 174 176
f 175 176 177
f 177 176 178
f 177 178 179
f 179 178 180
f 179 180 181
f 182 180 183
f 182 183 184
f 184 183 185
f 184 185 186
f 186 185 187
f 188 187 189
f 190 191 192
f 193 194 195
f 196 197 198
f 198 197 199
f 198 199 200
f 200 199 201
f 200 201 202
f 202 201 203
f 202 203 204
f 204 203 205
f 204 205 206
f 206 205 207
f 206 207 208
f 208 207 209
f 208 209 210
f 210 209 211
f 210 211 212
f 212 211 213
f 212 213 214
f 214 213 215
f 214 215 216
f 217 215 218
f 217 218 219
f 219 218 220
f 219 221 222
f 223 220 224
f 223 224 225
f 225 226 227
f 225 228 229
f 230 227 231
f 230 231 232
f 232 233 234
f 235 236 237
f 197 196 238
f 238 196 239
f 238 239 240
f 240 239 241
f 240 241 242
f 242 241 243
f 242 243 244
f 244 243 245
f 244 245 246
f 246 245 247
f 246 247 248
f 248 247 249
f 248 249 250
f 250 249 251
f 250 251 252
f 252 251 253
f 252 253 254
f 254 253 255
f 254 255 256
f 257 255 258
f 256 258 259
f 259 260 261
f 259 261 262
f 262 261 263
f 264 263 265
f 266 263 267
f 266 267 268

