# https://github.com/mikedh/trimesh
v 0.03878599 -0.11464390 0.06220006
v 0.03899997 -0.11056790 0.06220006
v 0.03595000 -0.11056790 0.06220006
v 0.03878599 -0.10649090 0.06220006
v 0.03573197 -0.10661290 0.06220006
v 0.03814798 -0.10245890 0.06220006
v 0.03507995 -0.10270590 0.06220006
v 0.03709095 -0.09851592 0.06220006
v 0.03400194 -0.09889489 0.06220006
v 0.03562796 -0.09470492 0.06220006
v 0.03251194 -0.09522491 0.06220006
v 0.03377497 -0.09106791 0.06220006
v 0.03062695 -0.09174191 0.06220006
v 0.03155195 -0.08764392 0.06220006
v 0.02836996 -0.08848690 0.06220006
v 0.02898299 -0.08447188 0.06220006
v 0.02576798 -0.08549988 0.06220006
v 0.02609598 -0.08158487 0.06220006
v 0.02285397 -0.08281689 0.06220006
v 0.02292400 -0.07901591 0.06220006
v 0.01966297 -0.08047187 0.06220006
v 0.01949995 -0.07679289 0.06220006
v 0.01623296 -0.07849091 0.06220006
v 0.01586300 -0.07493990 0.06220006
v 0.01260495 -0.07689988 0.06220006
v 0.01205199 -0.07347691 0.06220006
v 0.00882494 -0.07571792 0.06220006
v 0.00810897 -0.07241988 0.06220006
v 0.00493795 -0.07495892 0.06220006
v 0.00407696 -0.07178092 0.06220006
v 0.00099100 -0.07463091 0.06220006
v 0.00000000 -0.07156789 0.06220006
v -0.00296897 -0.07474088 0.06220006
v -0.00407696 -0.07178092 0.06220006
v -0.00689196 -0.07528489 0.06220006
v -0.00810897 -0.07241988 0.06220006
v -0.01073199 -0.07625687 0.06220006
v -0.01205199 -0.07347691 0.06220006
v -0.01444095 -0.07764589 0.06220006
v -0.01586300 -0.07493990 0.06220006
v -0.01797497 -0.07943391 0.06220006
v -0.01949995 -0.07679289 0.06220006
v -0.02292400 -0.07901591 0.06220006
v -0.02129095 -0.08160090 0.06220006
v -0.02609598 -0.08158487 0.06220006
v -0.02434796 -0.08411890 0.06220006
v -0.02898299 -0.08447188 0.06220006
v -0.02710998 -0.08695787 0.06220006
v -0.03155195 -0.08764392 0.06220006
v -0.02954298 -0.09008288 0.06220006
v -0.03377497 -0.09106791 0.06220006
v -0.03161698 -0.09345692 0.06220006
v -0.03562796 -0.09470492 0.06220006
v -0.03330695 -0.09703892 0.06220006
v -0.03709095 -0.09851592 0.06220006
v -0.03459399 -0.10078590 0.06220006
v -0.03814798 -0.10245890 0.06220006
v -0.03545999 -0.10465090 0.06220006
v -0.03878599 -0.10649090 0.06220006
v -0.03589498 -0.10858690 0.06220006
v -0.03899997 -0.11056790 0.06220006
v -0.03589498 -0.11254790 0.06220006
v -0.03878599 -0.11464390 0.06220006
v -0.03545999 -0.11648490 0.06220006
v -0.03814798 -0.11867590 0.06220006
v -0.03459399 -0.12034990 0.06220006
v -0.03709095 -0.12261890 0.06220006
v -0.03330695 -0.12409590 0.06220006
v -0.03562796 -0.12643090 0.06220006
v -0.03161698 -0.12767790 0.06220006
v -0.03377497 -0.13006790 0.06220006
v -0.02954298 -0.13105190 0.06220006
v -0.03155195 -0.13349091 0.06220006
v -0.02710998 -0.13417789 0.06220006
v -0.02898299 -0.13666390 0.06220006
v -0.02434796 -0.13701691 0.06220006
v -0.02609598 -0.13954990 0.06220006
v -0.02129095 -0.13953491 0.06220006
v -0.02292400 -0.14211890 0.06220006
v -0.01797497 -0.14170089 0.06220006
v -0.01949995 -0.14434290 0.06220006
v -0.01586300 -0.14619590 0.06220006
v -0.01444095 -0.14348990 0.06220006
v -0.01205199 -0.14765890 0.06220006
v -0.01073199 -0.14487889 0.06220006
v -0.00810897 -0.14871590 0.06220006
v -0.00689196 -0.14585090 0.06220006
v -0.00407696 -0.14935391 0.06220006
v -0.00296897 -0.14639489 0.06220006
v 0.00000000 -0.14956790 0.06220006
v 0.00099100 -0.14650390 0.06220006
v 0.00407696 -0.14935391 0.06220006
v 0.00493795 -0.14617690 0.06220006
v 0.00810897 -0.14871590 0.06220006
v 0.00882494 -0.14541790 0.06220006
v 0.01205199 -0.14765890 0.06220006
v 0.01260495 -0.14423490 0.06220006
v 0.01586300 -0.14619590 0.06220006
v 0.01623296 -0.14264390 0.06220006
v 0.01949995 -0.14434290 0.06220006
v 0.01966297 -0.14066391 0.06220006
v 0.02292400 -0.14211890 0.06220006
v 0.02285397 -0.13831790 0.06220006
v 0.02609598 -0.13954990 0.06220006
v 0.02576798 -0.13563590 0.06220006
v 0.02898299 -0.13666390 0.06220006
v 0.02836996 -0.13264890 0.06220006
v 0.03155195 -0.13349091 0.06220006
v 0.03062695 -0.12939391 0.06220006
v 0.03377497 -0.13006790 0.06220006
v 0.03251194 -0.12590989 0.06220006
v 0.03562796 -0.12643090 0.06220006
v 0.03400194 -0.12224090 0.06220006
v 0.03709095 -0.12261890 0.06220006
v 0.03507995 -0.11842890 0.06220006
v 0.03814798 -0.11867590 0.06220006
v 0.03573197 -0.11452290 0.06220006
v 0.03878599 -0.10649090 0.06070005
v 0.03878599 -0.10649090 0.06220006
v 0.03899997 -0.11056790 0.06070005
v 0.03878599 -0.10649090 0.06220006
v 0.03899997 -0.11056790 0.06220006
v 0.03899997 -0.11056790 0.06070005
v 0.03899997 -0.11056790 0.06220006
v 0.03878599 -0.11464390 0.06070005
v 0.03878599 -0.11464390 0.06220006
v 0.03878599 -0.11464390 0.06070005
v 0.03878599 -0.11464390 0.06220006
v 0.03814798 -0.11867590 0.06220006
v 0.03878599 -0.10649090 0.06070005
v 0.03814798 -0.10245890 0.06070005
v 0.03878599 -0.10649090 0.06220006
v 0.03878599 -0.10649090 0.06220006
v 0.03814798 -0.10245890 0.06070005
v 0.03814798 -0.10245890 0.06220006
v 0.03814798 -0.10245890 0.06220006
v 0.03709095 -0.09851592 0.06070005
v 0.03709095 -0.09851592 0.06220006
v 0.03709095 -0.09851592 0.06220006
v 0.03709095 -0.09851592 0.06070005
v 0.03562796 -0.09470492 0.06070005
v 0.03709095 -0.09851592 0.06220006
v 0.03562796 -0.09470492 0.06070005
v 0.03562796 -0.09470492 0.06220006
v 0.03562796 -0.09470492 0.06220006
v 0.03562796 -0.09470492 0.06070005
v 0.03377497 -0.09106791 0.06070005
v 0.03562796 -0.09470492 0.06220006
v 0.03377497 -0.09106791 0.06070005
v 0.03377497 -0.09106791 0.06220006
v 0.03377497 -0.09106791 0.06220006
v 0.03377497 -0.09106791 0.06070005
v 0.03155195 -0.08764392 0.06070005
v 0.03155195 -0.08764392 0.06220006
v 0.03155195 -0.08764392 0.06220006
v 0.03155195 -0.08764392 0.06070005
v 0.02898299 -0.08447188 0.06070005
v 0.03155195 -0.08764392 0.06220006
v 0.02898299 -0.08447188 0.06070005
v 0.02898299 -0.08447188 0.06220006
v 0.02898299 -0.08447188 0.06220006
v 0.02898299 -0.08447188 0.06070005
v 0.02609598 -0.08158487 0.06070005
v 0.02898299 -0.08447188 0.06220006
v 0.02609598 -0.08158487 0.06070005
v 0.02609598 -0.08158487 0.06220006
v 0.02609598 -0.08158487 0.06220006
v 0.02292400 -0.07901591 0.06070005
v 0.02292400 -0.07901591 0.06070005
v 0.02292400 -0.07901591 0.06220006
v 0.02292400 -0.07901591 0.06220006
v 0.02292400 -0.07901591 0.06070005
v 0.01949995 -0.07679289 0.06070005
v 0.02292400 -0.07901591 0.06220006
v 0.01949995 -0.07679289 0.06070005
v 0.01949995 -0.07679289 0.06220006
v 0.01949995 -0.07679289 0.06220006
v 0.01949995 -0.07679289 0.06070005
v 0.01586300 -0.07493990 0.06070005
v 0.01949995 -0.07679289 0.06220006
v 0.01586300 -0.07493990 0.06070005
v 0.01586300 -0.07493990 0.06220006
v 0.01586300 -0.07493990 0.06220006
v 0.01586300 -0.07493990 0.06070005
v 0.01205199 -0.07347691 0.06070005
v 0.01205199 -0.07347691 0.06220006
v 0.01205199 -0.07347691 0.06220006
v 0.01205199 -0.07347691 0.06070005
v 0.00810897 -0.07241988 0.06070005
v 0.01205199 -0.07347691 0.06220006
v 0.00810897 -0.07241988 0.06070005
v 0.00810897 -0.07241988 0.06220006
v 0.00810897 -0.07241988 0.06220006
v 0.00810897 -0.07241988 0.06070005
v 0.00407696 -0.07178092 0.06070005
v 0.00810897 -0.07241988 0.06220006
v 0.00407696 -0.07178092 0.06070005
v 0.00407696 -0.07178092 0.06220006
v 0.00407696 -0.07178092 0.06220006
v 0.00000000 -0.07156789 0.06070005
v 0.00000000 -0.07156789 0.06220006
v 0.00000000 -0.07156789 0.06220006
v 0.00000000 -0.07156789 0.06070005
v -0.00407696 -0.07178092 0.06070005
v -0.00407696 -0.07178092 0.06220006
v -0.00810897 -0.07241988 0.06070005
v -0.00407696 -0.07178092 0.06220006
v -0.00810897 -0.07241988 0.06070005
v -0.00810897 -0.07241988 0.06220006
v -0.00810897 -0.07241988 0.06220006
v -0.01205199 -0.07347691 0.06070005
v -0.00810897 -0.07241988 0.06220006
v -0.01205199 -0.07347691 0.06070005
v -0.01205199 -0.07347691 0.06220006
v -0.01205199 -0.07347691 0.06220006
v -0.01205199 -0.07347691 0.06070005
v -0.01586300 -0.07493990 0.06070005
v -0.01586300 -0.07493990 0.06220006
v -0.01586300 -0.07493990 0.06220006
v -0.01586300 -0.07493990 0.06070005
v -0.01949995 -0.07679289 0.06070005
v -0.01586300 -0.07493990 0.06220006
v -0.01949995 -0.07679289 0.06070005
v -0.01949995 -0.07679289 0.06220006
v -0.01949995 -0.07679289 0.06220006
v -0.01949995 -0.07679289 0.06070005
v -0.02292400 -0.07901591 0.06070005
v -0.01949995 -0.07679289 0.06220006
v -0.02292400 -0.07901591 0.06070005
v -0.02292400 -0.07901591 0.06220006
v -0.02292400 -0.07901591 0.06220006
v -0.02292400 -0.07901591 0.06070005
v -0.02609598 -0.08158487 0.06070005
v -0.02292400 -0.07901591 0.06220006
v -0.02609598 -0.08158487 0.06070005
v -0.02609598 -0.08158487 0.06220006
v -0.02609598 -0.08158487 0.06220006
v -0.02898299 -0.08447188 0.06070005
v -0.02898299 -0.08447188 0.06070005
v -0.02898299 -0.08447188 0.06220006
v -0.02898299 -0.08447188 0.06220006
v -0.02898299 -0.08447188 0.06070005
v -0.03155195 -0.08764392 0.06070005
v -0.03155195 -0.08764392 0.06070005
v -0.03155195 -0.08764392 0.06220006
v -0.03155195 -0.08764392 0.06220006
v -0.03155195 -0.08764392 0.06070005
v -0.03377497 -0.09106791 0.06070005
v -0.03377497 -0.09106791 0.06220006
v -0.03377497 -0.09106791 0.06220006
v -0.03377497 -0.09106791 0.06070005
v -0.03562796 -0.09470492 0.06070005
v -0.03377497 -0.09106791 0.06220006
v -0.03562796 -0.09470492 0.06070005
v -0.03562796 -0.09470492 0.06220006
v -0.03562796 -0.09470492 0.06220006
v -0.03562796 -0.09470492 0.06070005
v -0.03709095 -0.09851592 0.06070005
v -0.03562796 -0.09470492 0.06220006
v -0.03709095 -0.09851592 0.06070005
v -0.03709095 -0.09851592 0.06220006
v -0.03709095 -0.09851592 0.06220006
v -0.03709095 -0.09851592 0.06070005
v -0.03814798 -0.10245890 0.06070005
v -0.03814798 -0.10245890 0.06070005
v -0.03814798 -0.10245890 0.06220006
v -0.03814798 -0.10245890 0.06220006
v -0.03878599 -0.10649090 0.06070005
v -0.03878599 -0.10649090 0.06070005
v -0.03878599 -0.10649090 0.06220006
v -0.03878599 -0.10649090 0.06220006
v -0.03878599 -0.10649090 0.06070005
v -0.03899997 -0.11056790 0.06070005
v -0.03878599 -0.10649090 0.06220006
v -0.03899997 -0.11056790 0.06220006
v -0.03878599 -0.11464390 0.06070005
v -0.03878599 -0.11464390 0.06220006
v -0.03878599 -0.11464390 0.06220006
v -0.03878599 -0.11464390 0.06070005
v -0.03814798 -0.11867590 0.06070005
v -0.03878599 -0.11464390 0.06220006
v -0.03814798 -0.11867590 0.06070005
v -0.03814798 -0.11867590 0.06220006
v -0.03814798 -0.11867590 0.06220006
v -0.03709095 -0.12261890 0.06070005
v -0.03709095 -0.12261890 0.06220006
v -0.03709095 -0.12261890 0.06220006
v -0.03709095 -0.12261890 0.06070005
v -0.03562796 -0.12643090 0.06070005
v -0.03562796 -0.12643090 0.06070005
v -0.03562796 -0.12643090 0.06220006
v -0.03562796 -0.12643090 0.06220006
v -0.03377497 -0.13006790 0.06070005
v -0.03562796 -0.12643090 0.06220006
v -0.03377497 -0.13006790 0.06070005
v -0.03377497 -0.13006790 0.06220006
v -0.03377497 -0.13006790 0.06220006
v -0.03377497 -0.13006790 0.06070005
v -0.03155195 -0.13349091 0.06070005
v -0.03155195 -0.13349091 0.06220006
v -0.03155195 -0.13349091 0.06220006
v -0.03155195 -0.13349091 0.06070005
v -0.02898299 -0.13666390 0.06070005
v -0.03155195 -0.13349091 0.06220006
v -0.02898299 -0.13666390 0.06070005
v -0.02898299 -0.13666390 0.06220006
v -0.02898299 -0.13666390 0.06220006
v -0.02898299 -0.13666390 0.06070005
v -0.02609598 -0.13954990 0.06070005
v -0.02898299 -0.13666390 0.06220006
v -0.02609598 -0.13954990 0.06070005
v -0.02609598 -0.13954990 0.06220006
v -0.02609598 -0.13954990 0.06220006
v -0.02609598 -0.13954990 0.06070005
v -0.02292400 -0.14211890 0.06070005
v -0.02609598 -0.13954990 0.06220006
v -0.02292400 -0.14211890 0.06220006
v -0.02292400 -0.14211890 0.06220006
v -0.02292400 -0.14211890 0.06070005
v -0.01949995 -0.14434290 0.06070005
v -0.01949995 -0.14434290 0.06070005
v -0.01949995 -0.14434290 0.06220006
v -0.01949995 -0.14434290 0.06220006
v -0.01586300 -0.14619590 0.06070005
v -0.01586300 -0.14619590 0.06070005
v -0.01586300 -0.14619590 0.06220006
v -0.01586300 -0.14619590 0.06220006
v -0.01586300 -0.14619590 0.06070005
v -0.01205199 -0.14765890 0.06070005
v -0.01205199 -0.14765890 0.06220006
v -0.01205199 -0.14765890 0.06220006
v -0.01205199 -0.14765890 0.06070005
v -0.00810897 -0.14871590 0.06070005
v -0.01205199 -0.14765890 0.06220006
v -0.00810897 -0.14871590 0.06070005
v -0.00810897 -0.14871590 0.06220006
v -0.00810897 -0.14871590 0.06220006
v -0.00810897 -0.14871590 0.06070005
v -0.00407696 -0.14935391 0.06070005
v -0.00407696 -0.14935391 0.06070005
v -0.00407696 -0.14935391 0.06220006
v -0.00407696 -0.14935391 0.06220006
v -0.00407696 -0.14935391 0.06070005
v 0.00000000 -0.14956790 0.06070005
v -0.00407696 -0.14935391 0.06220006
v 0.00000000 -0.14956790 0.06220006
v 0.00407696 -0.14935391 0.06070005
v 0.00407696 -0.14935391 0.06070005
v 0.00407696 -0.14935391 0.06220006
v 0.00407696 -0.14935391 0.06220006
v 0.00407696 -0.14935391 0.06070005
v 0.00810897 -0.14871590 0.06070005
v 0.00407696 -0.14935391 0.06220006
v 0.00810897 -0.14871590 0.06070005
v 0.00810897 -0.14871590 0.06220006
v 0.00810897 -0.14871590 0.06220006
v 0.01205199 -0.14765890 0.06070005
v 0.01205199 -0.14765890 0.06070005
v 0.01205199 -0.14765890 0.06220006
v 0.01205199 -0.14765890 0.06220006
v 0.01205199 -0.14765890 0.06070005
v 0.01586300 -0.14619590 0.06070005
v 0.01586300 -0.14619590 0.06220006
v 0.01586300 -0.14619590 0.06220006
v 0.01586300 -0.14619590 0.06070005
v 0.01949995 -0.14434290 0.06070005
v 0.01586300 -0.14619590 0.06220006
v 0.01949995 -0.14434290 0.06070005
v 0.01949995 -0.14434290 0.06220006
v 0.01949995 -0.14434290 0.06220006
v 0.02292400 -0.14211890 0.06070005
v 0.02292400 -0.14211890 0.06070005
v 0.02292400 -0.14211890 0.06220006
v 0.02292400 -0.14211890 0.06220006
v 0.02292400 -0.14211890 0.06070005
v 0.02609598 -0.13954990 0.06070005
v 0.02292400 -0.14211890 0.06220006
v 0.02609598 -0.13954990 0.06070005
v 0.02609598 -0.13954990 0.06220006
v 0.02609598 -0.13954990 0.06220006
v 0.02609598 -0.13954990 0.06070005
v 0.02898299 -0.13666390 0.06070005
v 0.02609598 -0.13954990 0.06220006
v 0.02898299 -0.13666390 0.06070005
v 0.02898299 -0.13666390 0.06220006
v 0.02898299 -0.13666390 0.06220006
v 0.02898299 -0.13666390 0.06070005
v 0.03155195 -0.13349091 0.06070005
v 0.02898299 -0.13666390 0.06220006
v 0.03155195 -0.13349091 0.06070005
v 0.03155195 -0.13349091 0.06220006
v 0.03155195 -0.13349091 0.06220006
v 0.03155195 -0.13349091 0.06070005
v 0.03377497 -0.13006790 0.06070005
v 0.03377497 -0.13006790 0.06220006
v 0.03377497 -0.13006790 0.06220006
v 0.03377497 -0.13006790 0.06070005
v 0.03562796 -0.12643090 0.06070005
v 0.03377497 -0.13006790 0.06220006
v 0.03562796 -0.12643090 0.06070005
v 0.03562796 -0.12643090 0.06220006
v 0.03562796 -0.12643090 0.06220006
v 0.03562796 -0.12643090 0.06070005
v 0.03709095 -0.12261890 0.06070005
v 0.03709095 -0.12261890 0.06220006
v 0.03709095 -0.12261890 0.06220006
v 0.03709095 -0.12261890 0.06070005
v 0.03814798 -0.11867590 0.06070005
v 0.03814798 -0.11867590 0.06070005
v 0.03814798 -0.11867590 0.06220006
v 0.03878599 -0.11464390 0.06070005
v 0.03878599 -0.10649090 0.06070005
v 0.03899997 -0.11056790 0.06070005
v 0.03679996 -0.11056790 0.06070005
v 0.03878599 -0.11464390 0.06070005
v 0.03658396 -0.11454690 0.06070005
v 0.03814798 -0.11867590 0.06070005
v 0.03593999 -0.11847890 0.06070005
v 0.03709095 -0.12261890 0.06070005
v 0.03487396 -0.12231790 0.06070005
v 0.03562796 -0.12643090 0.06070005
v 0.03339898 -0.12601990 0.06070005
v 0.03377497 -0.13006790 0.06070005
v 0.03153198 -0.12953991 0.06070005
v 0.03155195 -0.13349091 0.06070005
v 0.02929598 -0.13283791 0.06070005
v 0.02898299 -0.13666390 0.06070005
v 0.02671694 -0.13587490 0.06070005
v 0.02609598 -0.13954990 0.06070005
v 0.02382397 -0.13861489 0.06070005
v 0.02292400 -0.14211890 0.06070005
v 0.02065199 -0.14102690 0.06070005
v 0.01949995 -0.14434290 0.06070005
v 0.01723694 -0.14308091 0.06070005
v 0.01586300 -0.14619590 0.06070005
v 0.01362097 -0.14475390 0.06070005
v 0.01362097 -0.14475390 0.06070005
v 0.01586300 -0.14619590 0.06070005
v 0.01205199 -0.14765890 0.06070005
v 0.01205199 -0.14765890 0.06070005
v 0.00984496 -0.14602590 0.06070005
v 0.00810897 -0.14871590 0.06070005
v 0.00595397 -0.14688291 0.06070005
v 0.00407696 -0.14935391 0.06070005
v 0.00199199 -0.14731389 0.06070005
v 0.00000000 -0.14956790 0.06070005
v -0.00199199 -0.14731389 0.06070005
v -0.00407696 -0.14935391 0.06070005
v -0.00595397 -0.14688291 0.06070005
v -0.00810897 -0.14871590 0.06070005
v -0.00984496 -0.14602590 0.06070005
v -0.01205199 -0.14765890 0.06070005
v -0.01362097 -0.14475390 0.06070005
v -0.01362097 -0.14475390 0.06070005
v -0.01205199 -0.14765890 0.06070005
v -0.01586300 -0.14619590 0.06070005
v -0.01586300 -0.14619590 0.06070005
v -0.01723694 -0.14308091 0.06070005
v -0.01949995 -0.14434290 0.06070005
v -0.02065199 -0.14102690 0.06070005
v -0.02292400 -0.14211890 0.06070005
v -0.02382397 -0.13861489 0.06070005
v -0.02609598 -0.13954990 0.06070005
v -0.02671694 -0.13587490 0.06070005
v -0.02898299 -0.13666390 0.06070005
v -0.02929598 -0.13283791 0.06070005
v -0.03155195 -0.13349091 0.06070005
v -0.03153198 -0.12953991 0.06070005
v -0.03377497 -0.13006790 0.06070005
v -0.03339898 -0.12601990 0.06070005
v -0.03562796 -0.12643090 0.06070005
v -0.03487396 -0.12231790 0.06070005
v -0.03709095 -0.12261890 0.06070005
v -0.03593999 -0.11847890 0.06070005
v -0.03814798 -0.11867590 0.06070005
v -0.03658396 -0.11454690 0.06070005
v -0.03878599 -0.11464390 0.06070005
v -0.03679996 -0.11056790 0.06070005
v -0.03899997 -0.11056790 0.06070005
v -0.03878599 -0.10649090 0.06070005
v -0.03658396 -0.10658890 0.06070005
v -0.03814798 -0.10245890 0.06070005
v -0.03593999 -0.10265690 0.06070005
v -0.03709095 -0.09851592 0.06070005
v -0.03487396 -0.09881788 0.06070005
v -0.03562796 -0.09470492 0.06070005
v -0.03339898 -0.09511590 0.06070005
v -0.03377497 -0.09106791 0.06070005
v -0.03153198 -0.09159487 0.06070005
v -0.03155195 -0.08764392 0.06070005
v -0.02929598 -0.08829689 0.06070005
v -0.02898299 -0.08447188 0.06070005
v -0.02671694 -0.08525991 0.06070005
v -0.02609598 -0.08158487 0.06070005
v -0.02382397 -0.08251988 0.06070005
v -0.02292400 -0.07901591 0.06070005
v -0.02065199 -0.08010888 0.06070005
v -0.01949995 -0.07679289 0.06070005
v -0.01723694 -0.07805490 0.06070005
v -0.01586300 -0.07493990 0.06070005
v -0.01362097 -0.07638090 0.06070005
v -0.01205199 -0.07347691 0.06070005
v -0.00984496 -0.07510888 0.06070005
v -0.00810897 -0.07241988 0.06070005
v -0.00595397 -0.07425290 0.06070005
v -0.00407696 -0.07178092 0.06070005
v -0.00199199 -0.07382190 0.06070005
v 0.00000000 -0.07156789 0.06070005
v 0.00199199 -0.07382190 0.06070005
v 0.00407696 -0.07178092 0.06070005
v 0.00595397 -0.07425290 0.06070005
v 0.00810897 -0.07241988 0.06070005
v 0.00984496 -0.07510888 0.06070005
v 0.01205199 -0.07347691 0.06070005
v 0.01362097 -0.07638090 0.06070005
v 0.01586300 -0.07493990 0.06070005
v 0.01723694 -0.07805490 0.06070005
v 0.01949995 -0.07679289 0.06070005
v 0.02065199 -0.08010888 0.06070005
v 0.02292400 -0.07901591 0.06070005
v 0.02382397 -0.08251988 0.06070005
v 0.02609598 -0.08158487 0.06070005
v 0.02671694 -0.08525991 0.06070005
v 0.02898299 -0.08447188 0.06070005
v 0.02929598 -0.08829689 0.06070005
v 0.03155195 -0.08764392 0.06070005
v 0.03153198 -0.09159487 0.06070005
v 0.03377497 -0.09106791 0.06070005
v 0.03339898 -0.09511590 0.06070005
v 0.03562796 -0.09470492 0.06070005
v 0.03487396 -0.09881788 0.06070005
v 0.03709095 -0.09851592 0.06070005
v 0.03593999 -0.10265690 0.06070005
v 0.03814798 -0.10245890 0.06070005
v 0.03658396 -0.10658890 0.06070005
v 0.03647994 -0.10659990 0.05470001
v 0.03658396 -0.10658890 0.06070005
v 0.03669500 -0.11056790 0.05470001
v 0.03658396 -0.10658890 0.06070005
v 0.03679996 -0.11056790 0.06070005
v 0.03669500 -0.11056790 0.05470001
v 0.03679996 -0.11056790 0.06070005
v 0.03647994 -0.11453490 0.05470001
v 0.03647994 -0.11453490 0.05470001
v 0.03679996 -0.11056790 0.06070005
v 0.03658396 -0.11454690 0.06070005
v 0.03583699 -0.11845590 0.05470001
v 0.03593999 -0.11847890 0.06070005
v 0.03477400 -0.12228490 0.05470001
v 0.03477400 -0.12228490 0.05470001
v 0.03487396 -0.12231790 0.06070005
v 0.03330397 -0.12597591 0.05470001
v 0.03330397 -0.12597591 0.05470001
v 0.03487396 -0.12231790 0.06070005
v 0.03339898 -0.12601990 0.06070005
v 0.03144299 -0.12948591 0.05470001
v 0.03144299 -0.12948591 0.05470001
v 0.03339898 -0.12601990 0.06070005
v 0.03153198 -0.12953991 0.06070005
v 0.03153198 -0.12953991 0.06070005
v 0.02921295 -0.13277490 0.05470001
v 0.02921295 -0.13277490 0.05470001
v 0.03153198 -0.12953991 0.06070005
v 0.02929598 -0.13283791 0.06070005
v 0.02921295 -0.13277490 0.05470001
v 0.02929598 -0.13283791 0.06070005
v 0.02664095 -0.13580289 0.05470001
v 0.02664095 -0.13580289 0.05470001
v 0.02929598 -0.13283791 0.06070005
v 0.02671694 -0.13587490 0.06070005
v 0.02664095 -0.13580289 0.05470001
v 0.02671694 -0.13587490 0.06070005
v 0.02375596 -0.13853590 0.05470001
v 0.02375596 -0.13853590 0.05470001
v 0.02671694 -0.13587490 0.06070005
v 0.02382397 -0.13861489 0.06070005
v 0.02059298 -0.14093991 0.05470001
v 0.02382397 -0.13861489 0.06070005
v 0.02065199 -0.14102690 0.06070005
v 0.02059298 -0.14093991 0.05470001
v 0.01718795 -0.14298891 0.05470001
v 0.01718795 -0.14298891 0.05470001
v 0.02065199 -0.14102690 0.06070005
v 0.01723694 -0.14308091 0.06070005
v 0.01718795 -0.14298891 0.05470001
v 0.01723694 -0.14308091 0.06070005
v 0.01358199 -0.14465690 0.05470001
v 0.01358199 -0.14465690 0.05470001
v 0.01723694 -0.14308091 0.06070005
v 0.01362097 -0.14475390 0.06070005
v 0.01358199 -0.14465690 0.05470001
v 0.01362097 -0.14475390 0.06070005
v 0.00981694 -0.14592589 0.05470001
v 0.00981694 -0.14592589 0.05470001
v 0.00984496 -0.14602590 0.06070005
v 0.00984496 -0.14602590 0.06070005
v 0.00593698 -0.14677989 0.05470001
v 0.00984496 -0.14602590 0.06070005
v 0.00595397 -0.14688291 0.06070005
v 0.00593698 -0.14677989 0.05470001
v 0.00198698 -0.14720890 0.05470001
v 0.00198698 -0.14720890 0.05470001
v 0.00595397 -0.14688291 0.06070005
v 0.00199199 -0.14731389 0.06070005
v -0.00198698 -0.14720890 0.05470001
v -0.00199199 -0.14731389 0.06070005
v -0.00198698 -0.14720890 0.05470001
v -0.00199199 -0.14731389 0.06070005
v -0.00593698 -0.14677989 0.05470001
v -0.00593698 -0.14677989 0.05470001
v -0.00595397 -0.14688291 0.06070005
v -0.00593698 -0.14677989 0.05470001
v -0.00595397 -0.14688291 0.06070005
v -0.00981694 -0.14592589 0.05470001
v -0.00595397 -0.14688291 0.06070005
v -0.00984496 -0.14602590 0.06070005
v -0.00981694 -0.14592589 0.05470001
v -0.01358199 -0.14465690 0.05470001
v -0.01358199 -0.14465690 0.05470001
v -0.00984496 -0.14602590 0.06070005
v -0.01362097 -0.14475390 0.06070005
v -0.01358199 -0.14465690 0.05470001
v -0.01362097 -0.14475390 0.06070005
v -0.01718795 -0.14298891 0.05470001
v -0.01718795 -0.14298891 0.05470001
v -0.01723694 -0.14308091 0.06070005
v -0.01723694 -0.14308091 0.06070005
v -0.02059298 -0.14093991 0.05470001
v -0.02059298 -0.14093991 0.05470001
v -0.01723694 -0.14308091 0.06070005
v -0.02065199 -0.14102690 0.06070005
v -0.02375596 -0.13853590 0.05470001
v -0.02382397 -0.13861489 0.06070005
v -0.02375596 -0.13853590 0.05470001
v -0.02664095 -0.13580289 0.05470001
v -0.02664095 -0.13580289 0.05470001
v -0.02671694 -0.13587490 0.06070005
v -0.02664095 -0.13580289 0.05470001
v -0.02671694 -0.13587490 0.06070005
v -0.02921295 -0.13277490 0.05470001
v -0.02921295 -0.13277490 0.05470001
v -0.02671694 -0.13587490 0.06070005
v -0.02929598 -0.13283791 0.06070005
v -0.02921295 -0.13277490 0.05470001
v -0.03144299 -0.12948591 0.05470001
v -0.03144299 -0.12948591 0.05470001
v -0.02929598 -0.13283791 0.06070005
v -0.03153198 -0.12953991 0.06070005
v -0.03153198 -0.12953991 0.06070005
v -0.03330397 -0.12597591 0.05470001
v -0.03330397 -0.12597591 0.05470001
v -0.03153198 -0.12953991 0.06070005
v -0.03339898 -0.12601990 0.06070005
v -0.03339898 -0.12601990 0.06070005
v -0.03477400 -0.12228490 0.05470001
v -0.03487396 -0.12231790 0.06070005
v -0.03583699 -0.11845590 0.05470001
v -0.03593999 -0.11847890 0.06070005
v -0.03647994 -0.11453490 0.05470001
v -0.03593999 -0.11847890 0.06070005
v -0.03658396 -0.11454690 0.06070005
v -0.03658396 -0.11454690 0.06070005
v -0.03669500 -0.11056790 0.05470001
v -0.03658396 -0.11454690 0.06070005
v -0.03679996 -0.11056790 0.06070005
v -0.03669500 -0.11056790 0.05470001
v -0.03647994 -0.10659990 0.05470001
v -0.03679996 -0.11056790 0.06070005
v -0.03658396 -0.10658890 0.06070005
v -0.03583699 -0.10267890 0.05470001
v -0.03593999 -0.10265690 0.06070005
v -0.03583699 -0.10267890 0.05470001
v -0.03593999 -0.10265690 0.06070005
v -0.03477400 -0.09885090 0.05470001
v -0.03477400 -0.09885090 0.05470001
v -0.03487396 -0.09881788 0.06070005
v -0.03330397 -0.09515988 0.05470001
v -0.03339898 -0.09511590 0.06070005
v -0.03330397 -0.09515988 0.05470001
v -0.03339898 -0.09511590 0.06070005
v -0.03144299 -0.09164887 0.05470001
v -0.03144299 -0.09164887 0.05470001
v -0.03339898 -0.09511590 0.06070005
v -0.03153198 -0.09159487 0.06070005
v -0.03144299 -0.09164887 0.05470001
v -0.03153198 -0.09159487 0.06070005
v -0.02921295 -0.08836090 0.05470001
v -0.02921295 -0.08836090 0.05470001
v -0.03153198 -0.09159487 0.06070005
v -0.02929598 -0.08829689 0.06070005
v -0.02921295 -0.08836090 0.05470001
v -0.02929598 -0.08829689 0.06070005
v -0.02664095 -0.08533191 0.05470001
v -0.02929598 -0.08829689 0.06070005
v -0.02671694 -0.08525991 0.06070005
v -0.02375596 -0.08259987 0.05470001
v -0.02375596 -0.08259987 0.05470001
v -0.02671694 -0.08525991 0.06070005
v -0.02382397 -0.08251988 0.06070005
v -0.02375596 -0.08259987 0.05470001
v -0.02382397 -0.08251988 0.06070005
v -0.02059298 -0.08019590 0.05470001
v -0.02059298 -0.08019590 0.05470001
v -0.02382397 -0.08251988 0.06070005
v -0.02065199 -0.08010888 0.06070005
v -0.01718795 -0.07814687 0.05470001
v -0.01718795 -0.07814687 0.05470001
v -0.02065199 -0.08010888 0.06070005
v -0.01723694 -0.07805490 0.06070005
v -0.01723694 -0.07805490 0.06070005
v -0.01358199 -0.07647889 0.05470001
v -0.01358199 -0.07647889 0.05470001
v -0.01362097 -0.07638090 0.06070005
v -0.01358199 -0.07647889 0.05470001
v -0.01362097 -0.07638090 0.06070005
v -0.00981694 -0.07520991 0.05470001
v -0.00981694 -0.07520991 0.05470001
v -0.00984496 -0.07510888 0.06070005
v -0.00984496 -0.07510888 0.06070005
v -0.00593698 -0.07435590 0.05470001
v -0.00593698 -0.07435590 0.05470001
v -0.00595397 -0.07425290 0.06070005
v -0.00593698 -0.07435590 0.05470001
v -0.00595397 -0.07425290 0.06070005
v -0.00198698 -0.07392591 0.05470001
v -0.00198698 -0.07392591 0.05470001
v -0.00595397 -0.07425290 0.06070005
v -0.00199199 -0.07382190 0.06070005
v 0.00198698 -0.07392591 0.05470001
v 0.00198698 -0.07392591 0.05470001
v 0.00199199 -0.07382190 0.06070005
v 0.00198698 -0.07392591 0.05470001
v 0.00199199 -0.07382190 0.06070005
v 0.00593698 -0.07435590 0.05470001
v 0.00593698 -0.07435590 0.05470001
v 0.00595397 -0.07425290 0.06070005
v 0.00595397 -0.07425290 0.06070005
v 0.00981694 -0.07520991 0.05470001
v 0.00981694 -0.07520991 0.05470001
v 0.00595397 -0.07425290 0.06070005
v 0.00984496 -0.07510888 0.06070005
v 0.01358199 -0.07647889 0.05470001
v 0.01358199 -0.07647889 0.05470001
v 0.00984496 -0.07510888 0.06070005
v 0.01362097 -0.07638090 0.06070005
v 0.01358199 -0.07647889 0.05470001
v 0.01362097 -0.07638090 0.06070005
v 0.01718795 -0.07814687 0.05470001
v 0.01718795 -0.07814687 0.05470001
v 0.01723694 -0.07805490 0.06070005
v 0.01718795 -0.07814687 0.05470001
v 0.01723694 -0.07805490 0.06070005
v 0.02059298 -0.08019590 0.05470001
v 0.02059298 -0.08019590 0.05470001
v 0.02065199 -0.08010888 0.06070005
v 0.02375596 -0.08259987 0.05470001
v 0.02375596 -0.08259987 0.05470001
v 0.02065199 -0.08010888 0.06070005
v 0.02382397 -0.08251988 0.06070005
v 0.02375596 -0.08259987 0.05470001
v 0.02382397 -0.08251988 0.06070005
v 0.02664095 -0.08533191 0.05470001
v 0.02664095 -0.08533191 0.05470001
v 0.02671694 -0.08525991 0.06070005
v 0.02671694 -0.08525991 0.06070005
v 0.02921295 -0.08836090 0.05470001
v 0.02921295 -0.08836090 0.05470001
v 0.02671694 -0.08525991 0.06070005
v 0.02929598 -0.08829689 0.06070005
v 0.03144299 -0.09164887 0.05470001
v 0.03144299 -0.09164887 0.05470001
v 0.02929598 -0.08829689 0.06070005
v 0.03153198 -0.09159487 0.06070005
v 0.03330397 -0.09515988 0.05470001
v 0.03330397 -0.09515988 0.05470001
v 0.03153198 -0.09159487 0.06070005
v 0.03339898 -0.09511590 0.06070005
v 0.03330397 -0.09515988 0.05470001
v 0.03477400 -0.09885090 0.05470001
v 0.03487396 -0.09881788 0.06070005
v 0.03477400 -0.09885090 0.05470001
v 0.03487396 -0.09881788 0.06070005
v 0.03583699 -0.10267890 0.05470001
v 0.03583699 -0.10267890 0.05470001
v 0.03487396 -0.09881788 0.06070005
v 0.03593999 -0.10265690 0.06070005
v 0.03647994 -0.10659990 0.05470001
v 0.03593999 -0.10265690 0.06070005
v 0.03658396 -0.10658890 0.06070005
v 0.03647994 -0.10659990 0.05470001
v 0.03669500 -0.11056790 0.05470001
v 0.03588497 -0.11056790 0.05470001
v 0.03647994 -0.11453490 0.05470001
v 0.03566700 -0.11451490 0.05470001
v 0.03583699 -0.11845590 0.05470001
v 0.03501600 -0.11841490 0.05470001
v 0.03477400 -0.12228490 0.05470001
v 0.03393995 -0.12221890 0.05470001
v 0.03330397 -0.12597591 0.05470001
v 0.03245198 -0.12588190 0.05470001
v 0.03144299 -0.12948591 0.05470001
v 0.03057098 -0.12935990 0.05470001
v 0.02921295 -0.13277490 0.05470001
v 0.02831798 -0.13260891 0.05470001
v 0.02831798 -0.13260891 0.05470001
v 0.02664095 -0.13580289 0.05470001
v 0.02664095 -0.13580289 0.05470001
v 0.02572095 -0.13558990 0.05470001
v 0.02375596 -0.13853590 0.05470001
v 0.02281296 -0.13826790 0.05470001
v 0.02281296 -0.13826790 0.05470001
v 0.02059298 -0.14093991 0.05470001
v 0.02059298 -0.14093991 0.05470001
v 0.01962697 -0.14060891 0.05470001
v 0.01962697 -0.14060891 0.05470001
v 0.01718795 -0.14298891 0.05470001
v 0.01620298 -0.14258590 0.05470001
v 0.01358199 -0.14465690 0.05470001
v 0.01258200 -0.14417391 0.05470001
v 0.00981694 -0.14592589 0.05470001
v 0.00880897 -0.14535390 0.05470001
v 0.00593698 -0.14677989 0.05470001
v 0.00492895 -0.14611191 0.05470001
v 0.00198698 -0.14720890 0.05470001
v 0.00098900 -0.14643890 0.05470001
v -0.00198698 -0.14720890 0.05470001
v -0.00296295 -0.14632989 0.05470001
v -0.00296295 -0.14632989 0.05470001
v -0.00198698 -0.14720890 0.05470001
v -0.00593698 -0.14677989 0.05470001
v -0.00593698 -0.14677989 0.05470001
v -0.00687897 -0.14578690 0.05470001
v -0.00981694 -0.14592589 0.05470001
v -0.01071196 -0.14481591 0.05470001
v -0.01358199 -0.14465690 0.05470001
v -0.01441496 -0.14342991 0.05470001
v -0.01718795 -0.14298891 0.05470001
v -0.01794195 -0.14164490 0.05470001
v -0.02059298 -0.14093991 0.05470001
v -0.02125197 -0.13948190 0.05470001
v -0.02375596 -0.13853590 0.05470001
v -0.02430397 -0.13696890 0.05470001
v -0.02664095 -0.13580289 0.05470001
v -0.02706098 -0.13413490 0.05470001
v -0.02921295 -0.13277490 0.05470001
v -0.02948898 -0.13101490 0.05470001
v -0.03144299 -0.12948591 0.05470001
v -0.03156000 -0.12764689 0.05470001
v -0.03330397 -0.12597591 0.05470001
v -0.03324699 -0.12407090 0.05470001
v -0.03330397 -0.12597591 0.05470001
v -0.03477400 -0.12228490 0.05470001
v -0.03453099 -0.12033190 0.05470001
v -0.03583699 -0.11845590 0.05470001
v -0.03539496 -0.11647390 0.05470001
v -0.03647994 -0.11453490 0.05470001
v -0.03582996 -0.11254490 0.05470001
v -0.03669500 -0.11056790 0.05470001
v -0.03582996 -0.10859090 0.05470001
v -0.03647994 -0.10659990 0.05470001
v -0.03539496 -0.10466090 0.05470001
v -0.03583699 -0.10267890 0.05470001
v -0.03453099 -0.10080290 0.05470001
v -0.03477400 -0.09885090 0.05470001
v -0.03324699 -0.09706389 0.05470001
v -0.03330397 -0.09515988 0.05470001
v -0.03156000 -0.09348887 0.05470001
v -0.03144299 -0.09164887 0.05470001
v -0.02948898 -0.09011989 0.05470001
v -0.02921295 -0.08836090 0.05470001
v -0.02706098 -0.08700090 0.05470001
v -0.02664095 -0.08533191 0.05470001
v -0.02430397 -0.08416688 0.05470001
v -0.02375596 -0.08259987 0.05470001
v -0.02125197 -0.08165287 0.05470001
v -0.02059298 -0.08019590 0.05470001
v -0.01794195 -0.07949090 0.05470001
v -0.01718795 -0.07814687 0.05470001
v -0.01441496 -0.07770591 0.05470001
v -0.01358199 -0.07647889 0.05470001
v -0.01071196 -0.07631891 0.05470001
v -0.00981694 -0.07520991 0.05470001
v -0.01071196 -0.07631891 0.05470001
v -0.00981694 -0.07520991 0.05470001
v -0.00687897 -0.07534891 0.05470001
v -0.00687897 -0.07534891 0.05470001
v -0.00593698 -0.07435590 0.05470001
v -0.00296295 -0.07480591 0.05470001
v -0.00198698 -0.07392591 0.05470001
v 0.00098900 -0.07469689 0.05470001
v 0.00098900 -0.07469689 0.05470001
v -0.00198698 -0.07392591 0.05470001
v 0.00198698 -0.07392591 0.05470001
v 0.00198698 -0.07392591 0.05470001
v 0.00492895 -0.07502287 0.05470001
v 0.00593698 -0.07435590 0.05470001
v 0.00880897 -0.07578092 0.05470001
v 0.00981694 -0.07520991 0.05470001
v 0.01258200 -0.07696187 0.05470001
v 0.01358199 -0.07647889 0.05470001
v 0.01620298 -0.07854992 0.05470001
v 0.01718795 -0.07814687 0.05470001
v 0.01962697 -0.08052587 0.05470001
v 0.02059298 -0.08019590 0.05470001
v 0.02281296 -0.08286792 0.05470001
v 0.02375596 -0.08259987 0.05470001
v 0.02572095 -0.08554589 0.05470001
v 0.02664095 -0.08533191 0.05470001
v 0.02831798 -0.08852690 0.05470001
v 0.02921295 -0.08836090 0.05470001
v 0.03057098 -0.09177589 0.05470001
v 0.03144299 -0.09164887 0.05470001
v 0.03245198 -0.09525287 0.05470001
v 0.03330397 -0.09515988 0.05470001
v 0.03393995 -0.09891587 0.05470001
v 0.03477400 -0.09885090 0.05470001
v 0.03501600 -0.10272090 0.05470001
v 0.03583699 -0.10267890 0.05470001
v 0.03566700 -0.10661990 0.05470001
v 0.03573197 -0.10661290 0.06220006
v 0.03566700 -0.10661990 0.05470001
v 0.03595000 -0.11056790 0.06220006
v 0.03595000 -0.11056790 0.06220006
v 0.03566700 -0.10661990 0.05470001
v 0.03588497 -0.11056790 0.05470001
v 0.03595000 -0.11056790 0.06220006
v 0.03588497 -0.11056790 0.05470001
v 0.03573197 -0.11452290 0.06220006
v 0.03573197 -0.11452290 0.06220006
v 0.03588497 -0.11056790 0.05470001
v 0.03566700 -0.11451490 0.05470001
v 0.03507995 -0.11842890 0.06220006
v 0.03507995 -0.11842890 0.06220006
v 0.03566700 -0.11451490 0.05470001
v 0.03501600 -0.11841490 0.05470001
v 0.03507995 -0.11842890 0.06220006
v 0.03501600 -0.11841490 0.05470001
v 0.03400194 -0.12224090 0.06220006
v 0.03400194 -0.12224090 0.06220006
v 0.03501600 -0.11841490 0.05470001
v 0.03393995 -0.12221890 0.05470001
v 0.03400194 -0.12224090 0.06220006
v 0.03393995 -0.12221890 0.05470001
v 0.03251194 -0.12590989 0.06220006
v 0.03251194 -0.12590989 0.06220006
v 0.03393995 -0.12221890 0.05470001
v 0.03245198 -0.12588190 0.05470001
v 0.03251194 -0.12590989 0.06220006
v 0.03245198 -0.12588190 0.05470001
v 0.03062695 -0.12939391 0.06220006
v 0.03062695 -0.12939391 0.06220006
v 0.03245198 -0.12588190 0.05470001
v 0.03057098 -0.12935990 0.05470001
v 0.02836996 -0.13264890 0.06220006
v 0.02836996 -0.13264890 0.06220006
v 0.03057098 -0.12935990 0.05470001
v 0.02831798 -0.13260891 0.05470001
v 0.02576798 -0.13563590 0.06220006
v 0.02576798 -0.13563590 0.06220006
v 0.02831798 -0.13260891 0.05470001
v 0.02572095 -0.13558990 0.05470001
v 0.02576798 -0.13563590 0.06220006
v 0.02572095 -0.13558990 0.05470001
v 0.02285397 -0.13831790 0.06220006
v 0.02285397 -0.13831790 0.06220006
v 0.02572095 -0.13558990 0.05470001
v 0.02281296 -0.13826790 0.05470001
v 0.02285397 -0.13831790 0.06220006
v 0.02281296 -0.13826790 0.05470001
v 0.01966297 -0.14066391 0.06220006
v 0.01966297 -0.14066391 0.06220006
v 0.02281296 -0.13826790 0.05470001
v 0.01962697 -0.14060891 0.05470001
v 0.01966297 -0.14066391 0.06220006
v 0.01962697 -0.14060891 0.05470001
v 0.01623296 -0.14264390 0.06220006
v 0.01623296 -0.14264390 0.06220006
v 0.01962697 -0.14060891 0.05470001
v 0.01620298 -0.14258590 0.05470001
v 0.01623296 -0.14264390 0.06220006
v 0.01620298 -0.14258590 0.05470001
v 0.01260495 -0.14423490 0.06220006
v 0.01260495 -0.14423490 0.06220006
v 0.01620298 -0.14258590 0.05470001
v 0.01258200 -0.14417391 0.05470001
v 0.01260495 -0.14423490 0.06220006
v 0.01258200 -0.14417391 0.05470001
v 0.00882494 -0.14541790 0.06220006
v 0.00882494 -0.14541790 0.06220006
v 0.01258200 -0.14417391 0.05470001
v 0.00880897 -0.14535390 0.05470001
v 0.00882494 -0.14541790 0.06220006
v 0.00880897 -0.14535390 0.05470001
v 0.00493795 -0.14617690 0.06220006
v 0.00493795 -0.14617690 0.06220006
v 0.00492895 -0.14611191 0.05470001
v 0.00099100 -0.14650390 0.06220006
v 0.00099100 -0.14650390 0.06220006
v 0.00492895 -0.14611191 0.05470001
v 0.00098900 -0.14643890 0.05470001
v 0.00099100 -0.14650390 0.06220006
v 0.00098900 -0.14643890 0.05470001
v -0.00296897 -0.14639489 0.06220006
v -0.00296897 -0.14639489 0.06220006
v 0.00098900 -0.14643890 0.05470001
v -0.00296295 -0.14632989 0.05470001
v -0.00689196 -0.14585090 0.06220006
v -0.00689196 -0.14585090 0.06220006
v -0.00296295 -0.14632989 0.05470001
v -0.00687897 -0.14578690 0.05470001
v -0.00689196 -0.14585090 0.06220006
v -0.00687897 -0.14578690 0.05470001
v -0.01073199 -0.14487889 0.06220006
v -0.01073199 -0.14487889 0.06220006
v -0.00687897 -0.14578690 0.05470001
v -0.01071196 -0.14481591 0.05470001
v -0.01444095 -0.14348990 0.06220006
v -0.01444095 -0.14348990 0.06220006
v -0.01071196 -0.14481591 0.05470001
v -0.01441496 -0.14342991 0.05470001
v -0.01444095 -0.14348990 0.06220006
v -0.01441496 -0.14342991 0.05470001
v -0.01797497 -0.14170089 0.06220006
v -0.01797497 -0.14170089 0.06220006
v -0.01441496 -0.14342991 0.05470001
v -0.01794195 -0.14164490 0.05470001
v -0.01797497 -0.14170089 0.06220006
v -0.01794195 -0.14164490 0.05470001
v -0.02129095 -0.13953491 0.06220006
v -0.02129095 -0.13953491 0.06220006
v -0.01794195 -0.14164490 0.05470001
v -0.02125197 -0.13948190 0.05470001
v -0.02129095 -0.13953491 0.06220006
v -0.02125197 -0.13948190 0.05470001
v -0.02434796 -0.13701691 0.06220006
v -0.02434796 -0.13701691 0.06220006
v -0.02125197 -0.13948190 0.05470001
v -0.02430397 -0.13696890 0.05470001
v -0.02434796 -0.13701691 0.06220006
v -0.02430397 -0.13696890 0.05470001
v -0.02710998 -0.13417789 0.06220006
v -0.02710998 -0.13417789 0.06220006
v -0.02430397 -0.13696890 0.05470001
v -0.02706098 -0.13413490 0.05470001
v -0.02710998 -0.13417789 0.06220006
v -0.02706098 -0.13413490 0.05470001
v -0.02954298 -0.13105190 0.06220006
v -0.02954298 -0.13105190 0.06220006
v -0.02706098 -0.13413490 0.05470001
v -0.02948898 -0.13101490 0.05470001
v -0.02954298 -0.13105190 0.06220006
v -0.02948898 -0.13101490 0.05470001
v -0.03161698 -0.12767790 0.06220006
v -0.03161698 -0.12767790 0.06220006
v -0.02948898 -0.13101490 0.05470001
v -0.03156000 -0.12764689 0.05470001
v -0.03161698 -0.12767790 0.06220006
v -0.03156000 -0.12764689 0.05470001
v -0.03330695 -0.12409590 0.06220006
v -0.03330695 -0.12409590 0.06220006
v -0.03156000 -0.12764689 0.05470001
v -0.03324699 -0.12407090 0.05470001
v -0.03330695 -0.12409590 0.06220006
v -0.03324699 -0.12407090 0.05470001
v -0.03459399 -0.12034990 0.06220006
v -0.03459399 -0.12034990 0.06220006
v -0.03324699 -0.12407090 0.05470001
v -0.03453099 -0.12033190 0.05470001
v -0.03459399 -0.12034990 0.06220006
v -0.03453099 -0.12033190 0.05470001
v -0.03545999 -0.11648490 0.06220006
v -0.03545999 -0.11648490 0.06220006
v -0.03453099 -0.12033190 0.05470001
v -0.03539496 -0.11647390 0.05470001
v -0.03545999 -0.11648490 0.06220006
v -0.03539496 -0.11647390 0.05470001
v -0.03589498 -0.11254790 0.06220006
v -0.03589498 -0.11254790 0.06220006
v -0.03539496 -0.11647390 0.05470001
v -0.03582996 -0.11254490 0.05470001
v -0.03589498 -0.10858690 0.06220006
v -0.03589498 -0.10858690 0.06220006
v -0.03582996 -0.11254490 0.05470001
v -0.03582996 -0.10859090 0.05470001
v -0.03545999 -0.10465090 0.06220006
v -0.03545999 -0.10465090 0.06220006
v -0.03582996 -0.10859090 0.05470001
v -0.03539496 -0.10466090 0.05470001
v -0.03545999 -0.10465090 0.06220006
v -0.03539496 -0.10466090 0.05470001
v -0.03459399 -0.10078590 0.06220006
v -0.03459399 -0.10078590 0.06220006
v -0.03539496 -0.10466090 0.05470001
v -0.03453099 -0.10080290 0.05470001
v -0.03459399 -0.10078590 0.06220006
v -0.03453099 -0.10080290 0.05470001
v -0.03330695 -0.09703892 0.06220006
v -0.03330695 -0.09703892 0.06220006
v -0.03453099 -0.10080290 0.05470001
v -0.03324699 -0.09706389 0.05470001
v -0.03330695 -0.09703892 0.06220006
v -0.03324699 -0.09706389 0.05470001
v -0.03161698 -0.09345692 0.06220006
v -0.03161698 -0.09345692 0.06220006
v -0.03324699 -0.09706389 0.05470001
v -0.03156000 -0.09348887 0.05470001
v -0.02954298 -0.09008288 0.06220006
v -0.02954298 -0.09008288 0.06220006
v -0.03156000 -0.09348887 0.05470001
v -0.02948898 -0.09011989 0.05470001
v -0.02954298 -0.09008288 0.06220006
v -0.02710998 -0.08695787 0.06220006
v -0.02710998 -0.08695787 0.06220006
v -0.02948898 -0.09011989 0.05470001
v -0.02706098 -0.08700090 0.05470001
v -0.02710998 -0.08695787 0.06220006
v -0.02706098 -0.08700090 0.05470001
v -0.02434796 -0.08411890 0.06220006
v -0.02434796 -0.08411890 0.06220006
v -0.02706098 -0.08700090 0.05470001
v -0.02430397 -0.08416688 0.05470001
v -0.02434796 -0.08411890 0.06220006
v -0.02430397 -0.08416688 0.05470001
v -0.02129095 -0.08160090 0.06220006
v -0.02129095 -0.08160090 0.06220006
v -0.02430397 -0.08416688 0.05470001
v -0.02125197 -0.08165287 0.05470001
v -0.02129095 -0.08160090 0.06220006
v -0.02125197 -0.08165287 0.05470001
v -0.01797497 -0.07943391 0.06220006
v -0.01797497 -0.07943391 0.06220006
v -0.02125197 -0.08165287 0.05470001
v -0.01794195 -0.07949090 0.05470001
v -0.01797497 -0.07943391 0.06220006
v -0.01794195 -0.07949090 0.05470001
v -0.01444095 -0.07764589 0.06220006
v -0.01444095 -0.07764589 0.06220006
v -0.01794195 -0.07949090 0.05470001
v -0.01441496 -0.07770591 0.05470001
v -0.01444095 -0.07764589 0.06220006
v -0.01441496 -0.07770591 0.05470001
v -0.01073199 -0.07625687 0.06220006
v -0.01073199 -0.07625687 0.06220006
v -0.01441496 -0.07770591 0.05470001
v -0.01071196 -0.07631891 0.05470001
v -0.01073199 -0.07625687 0.06220006
v -0.01071196 -0.07631891 0.05470001
v -0.00689196 -0.07528489 0.06220006
v -0.00689196 -0.07528489 0.06220006
v -0.01071196 -0.07631891 0.05470001
v -0.00687897 -0.07534891 0.05470001
v -0.00296897 -0.07474088 0.06220006
v -0.00296897 -0.07474088 0.06220006
v -0.00687897 -0.07534891 0.05470001
v -0.00296295 -0.07480591 0.05470001
v -0.00296897 -0.07474088 0.06220006
v 0.00099100 -0.07463091 0.06220006
v 0.00099100 -0.07463091 0.06220006
v -0.00296295 -0.07480591 0.05470001
v 0.00098900 -0.07469689 0.05470001
v 0.00099100 -0.07463091 0.06220006
v 0.00098900 -0.07469689 0.05470001
v 0.00493795 -0.07495892 0.06220006
v 0.00493795 -0.07495892 0.06220006
v 0.00098900 -0.07469689 0.05470001
v 0.00492895 -0.07502287 0.05470001
v 0.00493795 -0.07495892 0.06220006
v 0.00492895 -0.07502287 0.05470001
v 0.00882494 -0.07571792 0.06220006
v 0.00882494 -0.07571792 0.06220006
v 0.00492895 -0.07502287 0.05470001
v 0.00880897 -0.07578092 0.05470001
v 0.00882494 -0.07571792 0.06220006
v 0.00880897 -0.07578092 0.05470001
v 0.01260495 -0.07689988 0.06220006
v 0.01260495 -0.07689988 0.06220006
v 0.00880897 -0.07578092 0.05470001
v 0.01258200 -0.07696187 0.05470001
v 0.01623296 -0.07849091 0.06220006
v 0.01623296 -0.07849091 0.06220006
v 0.01258200 -0.07696187 0.05470001
v 0.01620298 -0.07854992 0.05470001
v 0.01966297 -0.08047187 0.06220006
v 0.01966297 -0.08047187 0.06220006
v 0.01620298 -0.07854992 0.05470001
v 0.01962697 -0.08052587 0.05470001
v 0.01966297 -0.08047187 0.06220006
v 0.01962697 -0.08052587 0.05470001
v 0.02285397 -0.08281689 0.06220006
v 0.02285397 -0.08281689 0.06220006
v 0.01962697 -0.08052587 0.05470001
v 0.02281296 -0.08286792 0.05470001
v 0.02285397 -0.08281689 0.06220006
v 0.02281296 -0.08286792 0.05470001
v 0.02576798 -0.08549988 0.06220006
v 0.02576798 -0.08549988 0.06220006
v 0.02281296 -0.08286792 0.05470001
v 0.02572095 -0.08554589 0.05470001
v 0.02836996 -0.08848690 0.06220006
v 0.02836996 -0.08848690 0.06220006
v 0.02572095 -0.08554589 0.05470001
v 0.02831798 -0.08852690 0.05470001
v 0.02836996 -0.08848690 0.06220006
v 0.02831798 -0.08852690 0.05470001
v 0.03062695 -0.09174191 0.06220006
v 0.03062695 -0.09174191 0.06220006
v 0.02831798 -0.08852690 0.05470001
v 0.03057098 -0.09177589 0.05470001
v 0.03057098 -0.09177589 0.05470001
v 0.03251194 -0.09522491 0.06220006
v 0.03251194 -0.09522491 0.06220006
v 0.03057098 -0.09177589 0.05470001
v 0.03245198 -0.09525287 0.05470001
v 0.03251194 -0.09522491 0.06220006
v 0.03245198 -0.09525287 0.05470001
v 0.03400194 -0.09889489 0.06220006
v 0.03400194 -0.09889489 0.06220006
v 0.03245198 -0.09525287 0.05470001
v 0.03393995 -0.09891587 0.05470001
v 0.03400194 -0.09889489 0.06220006
v 0.03393995 -0.09891587 0.05470001
v 0.03507995 -0.10270590 0.06220006
v 0.03507995 -0.10270590 0.06220006
v 0.03393995 -0.09891587 0.05470001
v 0.03501600 -0.10272090 0.05470001
v 0.03507995 -0.10270590 0.06220006
v 0.03501600 -0.10272090 0.05470001
v 0.03573197 -0.10661290 0.06220006
v 0.03573197 -0.10661290 0.06220006
v 0.03501600 -0.10272090 0.05470001
v 0.03566700 -0.10661990 0.05470001
f 1 2 3
f 3 2 4
f 3 4 5
f 5 4 6
f 5 6 7
f 7 6 8
f 7 8 9
f 9 8 10
f 9 10 11
f 11 10 12
f 11 12 13
f 13 12 14
f 13 14 15
f 15 14 16
f 15 16 17
f 17 16 18
f 17 18 19
f 19 18 20
f 19 20 21
f 21 20 22
f 21 22 23
f 23 22 24
f 23 24 25
f 25 24 26
f 25 26 27
f 27 26 28
f 27 28 29
f 29 28 30
f 29 30 31
f 31 30 32
f 31 32 33
f 33 32 34
f 33 34 35
f 35 34 36
f 35 36 37
f 37 36 38
f 37 38 39
f 39 38 40
f 39 40 41
f 41 40 42
f 41 42 43
f 41 43 44
f 44 43 45
f 44 45 46
f 46 45 47
f 46 47 48
f 48 47 49
f 48 49 50
f 50 49 51
f 50 51 52
f 52 51 53
f 52 53 54
f 54 53 55
f 54 55 56
f 56 55 57
f 56 57 58
f 58 57 59
f 58 59 60
f 60 59 61
f 60 61 62
f 62 61 63
f 62 63 64
f 64 63 65
f 64 65 66
f 66 65 67
f 66 67 68
f 68 67 69
f 68 69 70
f 70 69 71
f 70 71 72
f 72 71 73
f 72 73 74
f 74 73 75
f 74 75 76
f 76 75 77
f 76 77 78
f 78 77 79
f 78 79 80
f 80 79 81
f 80 81 82
f 80 82 83
f 83 82 84
f 83 84 85
f 85 84 86
f 85 86 87
f 87 86 88
f 87 88 89
f 89 88 90
f 89 90 91
f 91 90 92
f 91 92 93
f 93 92 94
f 93 94 95
f 95 94 96
f 95 96 97
f 97 96 98
f 97 98 99
f 99 98 100
f 99 100 101
f 101 100 102
f 101 102 103
f 103 102 104
f 103 104 105
f 105 104 106
f 105 106 107
f 107 106 108
f 107 108 109
f 109 108 110
f 109 110 111
f 111 110 112
f 111 112 113
f 113 112 114
f 113 114 115
f 115 114 116
f 115 116 117
f 117 116 1
f 117 1 3
f 118 119 120
f 120 121 122
f 123 124 125
f 125 124 126
f 127 128 129
f 130 131 132
f 133 134 135
f 136 131 137
f 135 137 138
f 139 140 141
f 142 143 144
f 145 146 147
f 148 149 150
f 151 152 153
f 151 153 154
f 155 156 157
f 158 159 160
f 161 162 163
f 164 165 166
f 167 163 168
f 166 169 170
f 171 172 173
f 174 175 176
f 177 178 179
f 180 181 182
f 183 184 185
f 183 185 186
f 187 188 189
f 190 191 192
f 193 194 195
f 196 197 198
f 199 195 200
f 199 200 201
f 202 203 204
f 202 204 205
f 205 204 206
f 207 208 209
f 210 206 211
f 212 213 214
f 215 216 217
f 215 217 218
f 219 220 221
f 222 223 224
f 225 226 227
f 228 229 230
f 231 232 233
f 234 235 236
f 237 233 238
f 236 239 240
f 241 242 243
f 240 244 245
f 246 247 248
f 246 248 249
f 250 251 252
f 253 254 255
f 256 257 258
f 259 260 261
f 262 263 264
f 262 265 266
f 267 264 268
f 266 269 270
f 271 272 273
f 274 273 275
f 275 273 276
f 275 276 277
f 278 279 280
f 281 282 283
f 284 280 285
f 283 285 286
f 287 288 289
f 287 290 291
f 292 289 293
f 294 295 296
f 297 298 299
f 297 299 300
f 301 302 303
f 304 305 306
f 307 308 309
f 310 311 312
f 313 314 315
f 316 315 317
f 318 319 320
f 317 321 322
f 323 320 324
f 322 325 326
f 327 328 329
f 327 329 330
f 331 332 333
f 334 335 336
f 337 338 339
f 336 340 341
f 342 343 344
f 345 344 346
f 346 344 347
f 346 348 349
f 350 351 352
f 353 354 355
f 356 352 357
f 355 358 359
f 360 361 362
f 360 362 363
f 364 365 366
f 367 368 369
f 370 366 371
f 369 372 373
f 374 375 376
f 377 378 379
f 380 381 382
f 383 384 385
f 386 387 388
f 389 390 391
f 392 393 394
f 392 394 395
f 396 397 398
f 399 400 401
f 402 403 404
f 401 404 405
f 406 407 408
f 406 409 129
f 410 408 411
f 412 413 414
f 414 413 415
f 414 415 416
f 416 415 417
f 416 417 418
f 418 417 419
f 418 419 420
f 420 419 421
f 420 421 422
f 422 421 423
f 422 423 424
f 424 423 425
f 424 425 426
f 426 425 427
f 426 427 428
f 428 427 429
f 428 429 430
f 430 429 431
f 430 431 432
f 432 431 433
f 432 433 434
f 434 433 435
f 434 435 436
f 437 438 439
f 436 440 441
f 441 440 442
f 441 442 443
f 443 442 444
f 443 444 445
f 445 444 446
f 445 446 447
f 447 446 448
f 447 448 449
f 449 448 450
f 449 450 451
f 451 450 452
f 451 452 453
f 454 455 456
f 453 457 458
f 458 457 459
f 458 459 460
f 460 459 461
f 460 461 462
f 462 461 463
f 462 463 464
f 464 463 465
f 464 465 466
f 466 465 467
f 466 467 468
f 468 467 469
f 468 469 470
f 470 469 471
f 470 471 472
f 472 471 473
f 472 473 474
f 474 473 475
f 474 475 476
f 476 475 477
f 476 477 478
f 478 477 479
f 478 479 480
f 478 480 481
f 481 480 482
f 481 482 483
f 483 482 484
f 483 484 485
f 485 484 486
f 485 486 487
f 487 486 488
f 487 488 489
f 489 488 490
f 489 490 491
f 491 490 492
f 491 492 493
f 493 492 494
f 493 494 495
f 495 494 496
f 495 496 497
f 497 496 498
f 497 498 499
f 499 498 500
f 499 500 501
f 501 500 502
f 501 502 503
f 503 502 504
f 503 504 505
f 505 504 506
f 505 506 507
f 507 506 508
f 507 508 509
f 509 508 510
f 509 510 511
f 511 510 512
f 511 512 513
f 513 512 514
f 513 514 515
f 515 514 516
f 515 516 517
f 517 516 518
f 517 518 519
f 519 518 520
f 519 520 521
f 521 520 522
f 521 522 523
f 523 522 524
f 523 524 525
f 525 524 526
f 525 526 527
f 527 526 528
f 527 528 529
f 529 528 530
f 529 530 531
f 531 530 532
f 531 532 533
f 533 532 534
f 533 534 535
f 535 534 412
f 535 412 414
f 536 537 538
f 538 539 540
f 541 542 543
f 544 545 546
f 544 546 547
f 547 546 548
f 547 548 549
f 550 548 551
f 550 551 552
f 553 554 555
f 553 555 556
f 557 558 559
f 556 560 561
f 562 563 564
f 565 566 567
f 568 569 570
f 571 572 573
f 574 575 576
f 574 576 577
f 577 578 579
f 580 579 581
f 582 583 584
f 585 586 587
f 588 589 590
f 591 592 593
f 594 590 595
f 593 596 597
f 597 598 599
f 600 599 601
f 602 603 604
f 602 604 605
f 605 604 606
f 607 608 609
f 610 606 611
f 612 613 614
f 614 615 616
f 617 616 618
f 619 620 621
f 622 623 624
f 625 621 626
f 624 627 628
f 629 630 631
f 629 631 632
f 632 631 633
f 634 633 635
f 636 633 637
f 638 639 640
f 641 642 643
f 644 643 645
f 646 647 648
f 645 649 650
f 651 652 653
f 650 654 655
f 655 654 656
f 655 656 657
f 657 656 658
f 657 658 659
f 659 660 661
f 659 662 663
f 663 664 665
f 666 665 667
f 667 668 669
f 667 669 670
f 670 669 671
f 672 673 674
f 675 671 676
f 675 676 677
f 677 676 678
f 679 680 681
f 682 683 684
f 685 686 687
f 688 689 690
f 691 692 693
f 693 694 695
f 693 695 696
f 697 698 699
f 700 701 702
f 703 704 705
f 703 705 706
f 707 708 709
f 706 710 711
f 712 709 713
f 714 715 716
f 717 713 718
f 716 719 720
f 721 719 722
f 723 724 725
f 726 727 728
f 726 728 729
f 730 728 731
f 732 733 734
f 735 731 736
f 734 737 738
f 739 740 741
f 739 741 742
f 743 744 745
f 746 747 748
f 749 745 750
f 751 752 753
f 754 750 755
f 754 755 756
f 757 758 759
f 760 761 762
f 763 759 764
f 762 765 766
f 767 768 769
f 767 769 770
f 771 772 773
f 771 773 774
f 775 776 777
f 778 777 779
f 779 777 780
f 781 782 783
f 784 785 786
f 784 786 787
f 787 788 789
f 790 791 792
f 792 791 793
f 792 793 794
f 794 793 795
f 794 795 796
f 796 795 797
f 796 797 798
f 798 797 799
f 798 799 800
f 800 799 801
f 800 801 802
f 802 801 803
f 802 803 804
f 805 803 806
f 804 807 808
f 808 807 809
f 808 809 810
f 811 809 812
f 810 813 814
f 815 812 816
f 815 816 817
f 817 816 818
f 817 818 819
f 819 818 820
f 819 820 821
f 821 820 822
f 821 822 823
f 823 822 824
f 823 824 825
f 825 824 826
f 825 826 827
f 828 829 830
f 827 831 832
f 832 831 833
f 832 833 834
f 834 833 835
f 834 835 836
f 836 835 837
f 836 837 838
f 838 837 839
f 838 839 840
f 840 839 841
f 840 841 842
f 842 841 843
f 842 843 844
f 844 843 845
f 844 845 846
f 846 845 847
f 846 847 848
f 848 847 849
f 848 849 850
f 850 851 852
f 850 852 853
f 853 852 854
f 853 854 855
f 855 854 856
f 855 856 857
f 857 856 858
f 857 858 859
f 859 858 860
f 859 860 861
f 861 860 862
f 861 862 863
f 863 862 864
f 863 864 865
f 865 864 866
f 865 866 867
f 867 866 868
f 867 868 869
f 869 868 870
f 869 870 871
f 871 870 872
f 871 872 873
f 873 872 874
f 873 874 875
f 875 874 876
f 875 876 877
f 877 876 878
f 877 878 879
f 879 878 880
f 879 880 881
f 881 880 882
f 883 884 885
f 886 882 887
f 886 887 888
f 888 887 889
f 888 889 890
f 891 892 893
f 890 894 895
f 895 894 896
f 895 896 897
f 897 896 898
f 897 898 899
f 899 898 900
f 899 900 901
f 901 900 902
f 901 902 903
f 903 902 904
f 903 904 905
f 905 904 906
f 905 906 907
f 907 906 908
f 907 908 909
f 909 908 910
f 909 910 911
f 911 910 912
f 911 912 913
f 913 912 914
f 913 914 915
f 915 914 916
f 915 916 917
f 917 916 918
f 917 918 919
f 919 918 790
f 919 790 792
f 920 921 922
f 923 924 925
f 926 927 928
f 929 930 931
f 929 931 932
f 933 934 935
f 936 937 938
f 939 940 941
f 942 943 944
f 945 946 947
f 948 949 950
f 951 952 953
f 951 953 954
f 955 956 957
f 955 957 958
f 959 960 961
f 962 963 964
f 965 966 967
f 968 969 970
f 971 972 973
f 974 975 976
f 977 978 979
f 980 981 982
f 983 984 985
f 986 987 988
f 989 990 991
f 992 993 994
f 995 993 996
f 995 996 997
f 998 999 1000
f 1001 1002 1003
f 1004 1005 1006
f 1004 1006 1007
f 1008 1009 1010
f 1011 1012 1013
f 1014 1015 1016
f 1014 1016 1017
f 1018 1019 1020
f 1021 1022 1023
f 1024 1025 1026
f 1027 1028 1029
f 1030 1031 1032
f 1033 1034 1035
f 1036 1037 1038
f 1039 1040 1041
f 1042 1043 1044
f 1045 1046 1047
f 1048 1049 1050
f 1051 1052 1053
f 1054 1055 1056
f 1057 1058 1059
f 1060 1061 1062
f 1063 1064 1065
f 1066 1067 1068
f 1069 1070 1071
f 1072 1073 1074
f 1075 1076 1077
f 1078 1079 1080
f 1078 1080 1081
f 1082 1083 1084
f 1082 1084 1085
f 1086 1087 1088
f 1089 1090 1091
f 1092 1093 1094
f 1095 1096 1097
f 1098 1099 1100
f 1101 1102 1103
f 1104 1105 1106
f 1104 1106 1107
f 1108 1109 1110
f 1111 1110 1112
f 1113 1114 1115
f 1116 1117 1118
f 1119 1120 1121
f 1122 1123 1124
f 1125 1126 1127
f 1128 1129 1130
f 1131 1132 1133
f 1134 1135 1136
f 1137 1138 1139
f 1140 1141 1142
f 1143 1144 1145
f 1146 1147 1148
f 1149 1150 1151
f 1149 1151 1152
f 1153 1154 1155
f 1156 1155 1157
f 1158 1159 1160
f 1161 1162 1163
f 1164 1165 1166
f 1167 1168 1169
f 1170 1171 1172
f 1173 1174 1175
f 1176 1177 1178
f 1176 1178 1179
f 1180 1181 1182
f 1180 1182 1183
f 1184 1185 1186
f 1187 1188 1189
f 1190 1191 1192
f 1193 1194 1195
f 1196 1197 1198
f 1196 1198 1199
f 1200 1201 1202
f 1203 1204 1205
f 1206 1207 1208
f 1205 1209 1210
f 1211 1212 1213
f 1214 1215 1216
f 1217 1218 1219
f 1220 1221 1222
f 1223 1224 1225
f 1226 1227 1228
f 1229 1230 1231

