mtllib material.mtl
usemtl material_arm_r_link6_0
v 0.03822000 0.00000000 0.03943600
v 0.03822000 0.01020700 0.03809300
v -0.04090000 0.01020700 0.03809300
v -0.04090000 0.00000000 0.03943600
v 0.03822000 0.01971800 0.03415300
v -0.04090000 0.01971800 0.03415300
v 0.03822000 0.02788600 0.02788600
v -0.04090000 0.02788600 0.02788600
v 0.03822000 0.03415300 0.01971800
v -0.04090000 0.03415300 0.01971800
v 0.03822000 0.03809300 0.01020700
v -0.04090000 0.03809300 0.01020700
v 0.03822000 0.03943600 0.00000000
v -0.04090000 0.03943600 0.00000000
v 0.03822000 0.03809300 -0.01020700
v -0.04090000 0.03809300 -0.01020700
v 0.03822000 0.03415300 -0.01971800
v -0.04090000 0.03415300 -0.01971800
v 0.03822000 0.02788600 -0.02788600
v -0.04090000 0.02788600 -0.02788600
v 0.03822000 0.01971800 -0.03415300
v -0.04090000 0.01971800 -0.03415300
v 0.03822000 0.01020700 -0.03809300
v -0.04090000 0.01020700 -0.03809300
v 0.03822000 0.00000000 -0.03943600
v -0.04090000 0.00000000 -0.03943600
v 0.03822000 -0.01020700 -0.03809300
v -0.04090000 -0.01020700 -0.03809300
v 0.03822000 -0.01971800 -0.03415300
v -0.04090000 -0.01971800 -0.03415300
v 0.03822000 -0.02788600 -0.02788600
v -0.04090000 -0.02788600 -0.02788600
v 0.03822000 -0.03415300 -0.01971800
v -0.04090000 -0.03415300 -0.01971800
v 0.03822000 -0.03809300 -0.01020700
v -0.04090000 -0.03809300 -0.01020700
v 0.03822000 -0.03943600 0.00000000
v -0.04090000 -0.03943600 0.00000000
v 0.03822000 -0.03809300 0.01020700
v -0.04090000 -0.03809300 0.01020700
v 0.03822000 -0.03415300 0.01971800
v -0.04090000 -0.03415300 0.01971800
v 0.03822000 -0.02788600 0.02788600
v -0.04090000 -0.02788600 0.02788600
v 0.03822000 -0.01971800 0.03415300
v -0.04090000 -0.01971800 0.03415300
v 0.03822000 -0.01020700 0.03809300
v -0.04090000 -0.01020700 0.03809300
v 0.03822000 0.00000000 0.03943600
v 0.04726900 0.00000000 0.02119000
v 0.04726900 0.00548400 0.02046800
v 0.03822000 0.01020700 0.03809300
v 0.04726900 0.01059500 0.01835100
v 0.03822000 0.01971800 0.03415300
v 0.04726900 0.01498400 0.01498400
v 0.03822000 0.02788600 0.02788600
v 0.04726900 0.01835100 0.01059500
v 0.03822000 0.03415300 0.01971800
v 0.04726900 0.02046800 0.00548400
v 0.03822000 0.03809300 0.01020700
v 0.04726900 0.02119000 0.00000000
v 0.03822000 0.03943600 0.00000000
v 0.04726900 0.02046800 -0.00548400
v 0.03822000 0.03809300 -0.01020700
v 0.04726900 0.01835100 -0.01059500
v 0.03822000 0.03415300 -0.01971800
v 0.04726900 0.01498400 -0.01498400
v 0.03822000 0.02788600 -0.02788600
v 0.04726900 0.01059500 -0.01835100
v 0.03822000 0.01971800 -0.03415300
v 0.04726900 0.00548400 -0.02046800
v 0.03822000 0.01020700 -0.03809300
v 0.04726900 0.00000000 -0.02119000
v 0.03822000 0.00000000 -0.03943600
v 0.04726900 -0.00548400 -0.02046800
v 0.03822000 -0.01020700 -0.03809300
v 0.04726900 -0.01059500 -0.01835100
v 0.03822000 -0.01971800 -0.03415300
v 0.04726900 -0.01498400 -0.01498400
v 0.03822000 -0.02788600 -0.02788600
v 0.04726900 -0.01835100 -0.01059500
v 0.03822000 -0.03415300 -0.01971800
v 0.04726900 -0.02046800 -0.00548400
v 0.03822000 -0.03809300 -0.01020700
v 0.04726900 -0.02119000 0.00000000
v 0.03822000 -0.03943600 0.00000000
v 0.04726900 -0.02046800 0.00548400
v 0.03822000 -0.03809300 0.01020700
v 0.04726900 -0.01835100 0.01059500
v 0.03822000 -0.03415300 0.01971800
v 0.04726900 -0.01498400 0.01498400
v 0.03822000 -0.02788600 0.02788600
v 0.04726900 -0.01059500 0.01835100
v 0.03822000 -0.01971800 0.03415300
v 0.04726900 -0.00548400 0.02046800
v 0.03822000 -0.01020700 0.03809300
v 0.04726900 0.00000000 0.00855900
v 0.04726900 0.00221500 0.00826700
v 0.04726900 0.00427900 0.00741200
v 0.04726900 0.00605200 0.00605200
v 0.04726900 0.00741200 0.00427900
v 0.04726900 0.00826700 0.00221500
v 0.04726900 0.00855900 0.00000000
v 0.04726900 0.00826700 -0.00221500
v 0.04726900 0.00741200 -0.00427900
v 0.04726900 0.00605200 -0.00605200
v 0.04726900 0.00427900 -0.00741200
v 0.04726900 0.00221500 -0.00826700
v 0.04726900 0.00000000 -0.00855900
v 0.04726900 -0.00221500 -0.00826700
v 0.04726900 -0.00427900 -0.00741200
v 0.04726900 -0.00605200 -0.00605200
v 0.04726900 -0.00741200 -0.00427900
v 0.04726900 -0.00826700 -0.00221500
v 0.04726900 -0.00855900 0.00000000
v 0.04726900 -0.00826700 0.00221500
v 0.04726900 -0.00741200 0.00427900
v 0.04726900 -0.00605200 0.00605200
v 0.04726900 -0.00427900 0.00741200
v 0.04726900 -0.00221500 0.00826700
v 0.04726900 0.00221500 0.00826700
v 0.04726900 0.00000000 0.00855900
v 0.05184600 0.00000000 0.00855900
v 0.05184600 0.00221500 0.00826700
v 0.04726900 0.00427900 0.00741200
v 0.05184600 0.00427900 0.00741200
v 0.04726900 0.00605200 0.00605200
v 0.05184600 0.00605200 0.00605200
v 0.04726900 0.00741200 0.00427900
v 0.05184600 0.00741200 0.00427900
v 0.04726900 0.00826700 0.00221500
v 0.05184600 0.00826700 0.00221500
v 0.04726900 0.00855900 0.00000000
v 0.05184600 0.00855900 0.00000000
v 0.04726900 0.00826700 -0.00221500
v 0.05184600 0.00826700 -0.00221500
v 0.04726900 0.00741200 -0.00427900
v 0.05184600 0.00741200 -0.00427900
v 0.04726900 0.00605200 -0.00605200
v 0.05184600 0.00605200 -0.00605200
v 0.04726900 0.00427900 -0.00741200
v 0.05184600 0.00427900 -0.00741200
v 0.04726900 0.00221500 -0.00826700
v 0.05184600 0.00221500 -0.00826700
v 0.04726900 0.00000000 -0.00855900
v 0.05184600 0.00000000 -0.00855900
v 0.04726900 -0.00221500 -0.00826700
v 0.05184600 -0.00221500 -0.00826700
v 0.04726900 -0.00427900 -0.00741200
v 0.05184600 -0.00427900 -0.00741200
v 0.04726900 -0.00605200 -0.00605200
v 0.05184600 -0.00605200 -0.00605200
v 0.04726900 -0.00741200 -0.00427900
v 0.05184600 -0.00741200 -0.00427900
v 0.04726900 -0.00826700 -0.00221500
v 0.05184600 -0.00826700 -0.00221500
v 0.04726900 -0.00855900 0.00000000
v 0.05184600 -0.00855900 0.00000000
v 0.04726900 -0.00826700 0.00221500
v 0.05184600 -0.00826700 0.00221500
v 0.04726900 -0.00741200 0.00427900
v 0.05184600 -0.00741200 0.00427900
v 0.04726900 -0.00605200 0.00605200
v 0.05184600 -0.00605200 0.00605200
v 0.04726900 -0.00427900 0.00741200
v 0.05184600 -0.00427900 0.00741200
v 0.04726900 -0.00221500 0.00826700
v 0.05184600 -0.00221500 0.00826700
v 0.05184600 0.00221500 0.00826700
v 0.05184600 0.00000000 0.00855900
v 0.05184600 0.00000000 0.00000000
v 0.05184600 0.00427900 0.00741200
v 0.05184600 0.00605200 0.00605200
v 0.05184600 0.00741200 0.00427900
v 0.05184600 0.00826700 0.00221500
v 0.05184600 0.00855900 0.00000000
v 0.05184600 0.00826700 -0.00221500
v 0.05184600 0.00741200 -0.00427900
v 0.05184600 0.00605200 -0.00605200
v 0.05184600 0.00427900 -0.00741200
v 0.05184600 0.00221500 -0.00826700
v 0.05184600 0.00000000 -0.00855900
v 0.05184600 -0.00221500 -0.00826700
v 0.05184600 -0.00427900 -0.00741200
v 0.05184600 -0.00605200 -0.00605200
v 0.05184600 -0.00741200 -0.00427900
v 0.05184600 -0.00826700 -0.00221500
v 0.05184600 -0.00855900 0.00000000
v 0.05184600 -0.00826700 0.00221500
v 0.05184600 -0.00741200 0.00427900
v 0.05184600 -0.00605200 0.00605200
v 0.05184600 -0.00427900 0.00741200
v 0.05184600 -0.00221500 0.00826700
v -0.04090000 0.00000000 0.03943600
v -0.04090000 0.01020700 0.03809300
v -0.04090000 0.00000000 0.00000000
v -0.04090000 0.01971800 0.03415300
v -0.04090000 0.02788600 0.02788600
v -0.04090000 0.03415300 0.01971800
v -0.04090000 0.03809300 0.01020700
v -0.04090000 0.03943600 0.00000000
v -0.04090000 0.03809300 -0.01020700
v -0.04090000 0.03415300 -0.01971800
v -0.04090000 0.02788600 -0.02788600
v -0.04090000 0.01971800 -0.03415300
v -0.04090000 0.01020700 -0.03809300
v -0.04090000 0.00000000 -0.03943600
v -0.04090000 -0.01020700 -0.03809300
v -0.04090000 -0.01971800 -0.03415300
v -0.04090000 -0.02788600 -0.02788600
v -0.04090000 -0.03415300 -0.01971800
v -0.04090000 -0.03809300 -0.01020700
v -0.04090000 -0.03943600 0.00000000
v -0.04090000 -0.03809300 0.01020700
v -0.04090000 -0.03415300 0.01971800
v -0.04090000 -0.02788600 0.02788600
v -0.04090000 -0.01971800 0.03415300
v -0.04090000 -0.01020700 0.03809300
f 1 2 3
f 3 4 1
f 2 5 6
f 6 3 2
f 5 7 8
f 8 6 5
f 7 9 10
f 10 8 7
f 9 11 12
f 12 10 9
f 11 13 14
f 14 12 11
f 13 15 16
f 16 14 13
f 15 17 18
f 18 16 15
f 17 19 20
f 20 18 17
f 19 21 22
f 22 20 19
f 21 23 24
f 24 22 21
f 23 25 26
f 26 24 23
f 25 27 28
f 28 26 25
f 27 29 30
f 30 28 27
f 29 31 32
f 32 30 29
f 31 33 34
f 34 32 31
f 33 35 36
f 36 34 33
f 35 37 38
f 38 36 35
f 37 39 40
f 40 38 37
f 39 41 42
f 42 40 39
f 41 43 44
f 44 42 41
f 43 45 46
f 46 44 43
f 45 47 48
f 48 46 45
f 47 1 4
f 4 48 47
f 49 50 51
f 51 52 49
f 52 51 53
f 53 54 52
f 54 53 55
f 55 56 54
f 56 55 57
f 57 58 56
f 58 57 59
f 59 60 58
f 60 59 61
f 61 62 60
f 62 61 63
f 63 64 62
f 64 63 65
f 65 66 64
f 66 65 67
f 67 68 66
f 68 67 69
f 69 70 68
f 70 69 71
f 71 72 70
f 72 71 73
f 73 74 72
f 74 73 75
f 75 76 74
f 76 75 77
f 77 78 76
f 78 77 79
f 79 80 78
f 80 79 81
f 81 82 80
f 82 81 83
f 83 84 82
f 84 83 85
f 85 86 84
f 86 85 87
f 87 88 86
f 88 87 89
f 89 90 88
f 90 89 91
f 91 92 90
f 92 91 93
f 93 94 92
f 94 93 95
f 95 96 94
f 96 95 50
f 50 49 96
f 51 50 97
f 97 98 51
f 53 51 98
f 98 99 53
f 55 53 99
f 99 100 55
f 57 55 100
f 100 101 57
f 59 57 101
f 101 102 59
f 61 59 102
f 102 103 61
f 63 61 103
f 103 104 63
f 65 63 104
f 104 105 65
f 67 65 105
f 105 106 67
f 69 67 106
f 106 107 69
f 71 69 107
f 107 108 71
f 73 71 108
f 108 109 73
f 75 73 109
f 109 110 75
f 77 75 110
f 110 111 77
f 79 77 111
f 111 112 79
f 81 79 112
f 112 113 81
f 83 81 113
f 113 114 83
f 85 83 114
f 114 115 85
f 87 85 115
f 115 116 87
f 89 87 116
f 116 117 89
f 91 89 117
f 117 118 91
f 93 91 118
f 118 119 93
f 95 93 119
f 119 120 95
f 50 95 120
f 120 97 50
f 121 122 123
f 123 124 121
f 125 121 124
f 124 126 125
f 127 125 126
f 126 128 127
f 129 127 128
f 128 130 129
f 131 129 130
f 130 132 131
f 133 131 132
f 132 134 133
f 135 133 134
f 134 136 135
f 137 135 136
f 136 138 137
f 139 137 138
f 138 140 139
f 141 139 140
f 140 142 141
f 143 141 142
f 142 144 143
f 145 143 144
f 144 146 145
f 147 145 146
f 146 148 147
f 149 147 148
f 148 150 149
f 151 149 150
f 150 152 151
f 153 151 152
f 152 154 153
f 155 153 154
f 154 156 155
f 157 155 156
f 156 158 157
f 159 157 158
f 158 160 159
f 161 159 160
f 160 162 161
f 163 161 162
f 162 164 163
f 165 163 164
f 164 166 165
f 167 165 166
f 166 168 167
f 122 167 168
f 168 123 122
f 169 170 171
f 172 169 171
f 173 172 171
f 174 173 171
f 175 174 171
f 176 175 171
f 177 176 171
f 178 177 171
f 179 178 171
f 180 179 171
f 181 180 171
f 182 181 171
f 183 182 171
f 184 183 171
f 185 184 171
f 186 185 171
f 187 186 171
f 188 187 171
f 189 188 171
f 190 189 171
f 191 190 171
f 192 191 171
f 193 192 171
f 170 193 171
f 194 195 196
f 195 197 196
f 197 198 196
f 198 199 196
f 199 200 196
f 200 201 196
f 201 202 196
f 202 203 196
f 203 204 196
f 204 205 196
f 205 206 196
f 206 207 196
f 207 208 196
f 208 209 196
f 209 210 196
f 210 211 196
f 211 212 196
f 212 213 196
f 213 214 196
f 214 215 196
f 215 216 196
f 216 217 196
f 217 218 196
f 218 194 196

