# https://github.com/mikedh/trimesh
v -0.04213245 0.07319995 0.37734771
v -0.03594895 0.07319995 0.37004429
v -0.04281004 0.07319995 0.37693480
v -0.03535332 0.07319995 0.37056851
v -0.02799554 0.07319996 0.36444989
v -0.02749999 0.07319996 0.36506960
v -0.04763140 0.07319995 0.38520101
v -0.04281004 0.07319995 0.37693480
v -0.04837038 0.07319995 0.38491210
v -0.04763140 0.07319995 0.38520101
v -0.01919152 0.07319996 0.36032161
v -0.01881112 0.07319996 0.36101791
v -0.05168308 0.07319994 0.39388990
v -0.05246098 0.07319994 0.39373371
v -0.05168308 0.07319994 0.39388990
v -0.04763140 0.07319995 0.38520101
v -0.04837038 0.07319995 0.38491210
v -0.00980433 0.07319996 0.35778481
v -0.00955066 0.07319996 0.35853660
v -0.05416442 0.07319994 0.40315029
v -0.05246098 0.07319994 0.39373371
v -0.05495764 0.07319994 0.40313160
v -0.05416442 0.07319994 0.40315029
v -0.05246098 0.07319994 0.39373371
v -0.00011933 0.07319997 0.35691661
v -0.00000002 0.07319997 0.35770100
v -0.05499996 0.07319994 0.41270101
v -0.05495764 0.07319994 0.40313160
v -0.05578442 0.07319994 0.41282031
v -0.05499996 0.07319994 0.41270101
v 0.00956932 0.07319997 0.35774329
v 0.00955061 0.07319997 0.35853660
v -0.05416442 0.07319994 0.42225170
v -0.05578442 0.07319994 0.41282031
v -0.05491622 0.07319994 0.42250529
v 0.01896725 0.07319997 0.36024001
v 0.01881108 0.07319997 0.36101791
v -0.05168308 0.07319994 0.43151209
v -0.05416442 0.07319994 0.42225170
v -0.05491622 0.07319994 0.42250529
v -0.05168308 0.07319994 0.43151209
v -0.05491622 0.07319994 0.42250529
v -0.05237938 0.07319994 0.43189251
v 0.02778885 0.07319997 0.36433059
v 0.02749995 0.07319997 0.36506960
v -0.04763140 0.07319994 0.44020101
v -0.05237938 0.07319994 0.43189251
v -0.04825105 0.07319994 0.44069651
v -0.04763140 0.07319994 0.44020101
v -0.05168308 0.07319994 0.43151209
v -0.05237938 0.07319994 0.43189251
v 0.03576610 0.07319997 0.36989090
v 0.02749995 0.07319997 0.36506960
v 0.03535328 0.07319997 0.37056851
v 0.03576610 0.07319997 0.36989090
v -0.04213245 0.07319995 0.44805431
v -0.04825105 0.07319994 0.44069651
v -0.04265668 0.07319995 0.44864991
v -0.04213245 0.07319995 0.44805431
v -0.04825105 0.07319994 0.44069651
v 0.04265664 0.07319998 0.37675199
v 0.04213241 0.07319998 0.37734771
v -0.03535332 0.07319995 0.45483351
v -0.03576614 0.07319995 0.45551100
v -0.02749999 0.07319995 0.46033239
v -0.03576614 0.07319995 0.45551100
v 0.04825101 0.07319998 0.38470539
v 0.04213241 0.07319998 0.37734771
v 0.04763136 0.07319998 0.38520101
v 0.04825101 0.07319998 0.38470539
v 0.04265664 0.07319998 0.37675199
v -0.02778889 0.07319995 0.46107140
v -0.02749999 0.07319995 0.46033239
v -0.01881112 0.07319995 0.46438411
v -0.02778889 0.07319995 0.46107140
v 0.05237934 0.07319998 0.39350951
v 0.04763136 0.07319998 0.38520101
v 0.05168304 0.07319998 0.39388990
v 0.05237934 0.07319998 0.39350951
v 0.04763136 0.07319998 0.38520101
v -0.01896730 0.07319995 0.46516201
v -0.00955066 0.07319996 0.46686539
v 0.05491618 0.07319998 0.40289670
v 0.05168304 0.07319998 0.39388990
v 0.05416438 0.07319998 0.40315029
v 0.05491618 0.07319998 0.40289670
v 0.05237934 0.07319998 0.39350951
v 0.05168304 0.07319998 0.39388990
v -0.00956937 0.07319996 0.46765861
v -0.00000002 0.07319996 0.46770099
v 0.05578438 0.07319998 0.41258171
v 0.05416438 0.07319998 0.40315029
v 0.05499992 0.07319998 0.41270101
v 0.05578438 0.07319998 0.41258171
v 0.05491618 0.07319998 0.40289670
v 0.05416438 0.07319998 0.40315029
v 0.00011929 0.07319996 0.46848539
v 0.00955061 0.07319997 0.46686539
v 0.05495760 0.07319998 0.42227039
v 0.05416438 0.07319998 0.42225170
v 0.05495760 0.07319998 0.42227039
v 0.05499992 0.07319998 0.41270101
v 0.00980428 0.07319997 0.46761721
v 0.01881108 0.07319997 0.46438411
v 0.05246094 0.07319998 0.43166831
v 0.05416438 0.07319998 0.42225170
v 0.05168304 0.07319998 0.43151209
v 0.05246094 0.07319998 0.43166831
v 0.01919148 0.07319997 0.46508041
v 0.02749995 0.07319997 0.46033239
v 0.04837034 0.07319998 0.44048989
v 0.04763136 0.07319998 0.44020101
v 0.04837034 0.07319998 0.44048989
v 0.05168304 0.07319998 0.43151209
v 0.02799550 0.07319997 0.46095210
v 0.03535328 0.07319997 0.45483351
v 0.04281000 0.07319997 0.44846711
v 0.04763136 0.07319998 0.44020101
v 0.04213241 0.07319997 0.44805431
v 0.03594891 0.07319997 0.45535761
v 0.04281000 0.07319997 0.44846711
v -0.05490303 -0.00968090 0.34350100
v -0.04828088 -0.02787503 0.34350100
v -0.05238782 -0.01906761 0.34350100
v -0.05574995 -0.00000003 0.34350100
v -0.04828088 -0.02787503 0.34350100
v -0.05490303 -0.00968090 0.34350100
v 0.00968088 -0.05490304 0.34350100
v 0.00000002 -0.05574996 0.34350100
v -0.00968085 -0.05490305 0.34350100
v 0.00968088 -0.05490304 0.34350100
v -0.00968085 -0.05490305 0.34350100
v -0.01906756 -0.05238785 0.34350100
v -0.01906756 -0.05238785 0.34350100
v -0.02787499 -0.04828091 0.34350100
v -0.03583537 -0.04270699 0.34350100
v -0.04270695 -0.03583541 0.34350100
v -0.04828090 0.02787497 0.34350100
v -0.05490303 0.00968083 0.34350100
v -0.05238784 0.01906755 0.34350100
v -0.04270697 0.03583535 0.34350100
v 0.03583540 -0.04270696 0.34350100
v 0.02787502 -0.04828090 0.34350100
v 0.01906760 -0.05238784 0.34350100
v -0.02787502 0.04828087 0.34350100
v -0.04270697 0.03583535 0.34350100
v -0.03583540 0.04270693 0.34350100
v 0.04828090 -0.02787500 0.34350100
v -0.05490303 0.00968083 0.34350100
v 0.04828090 -0.02787500 0.34350100
v 0.04270697 -0.03583538 0.34350100
v 0.03583540 -0.04270696 0.34350100
v -0.01906760 0.05238781 0.34350100
v -0.02787502 0.04828087 0.34350100
v -0.00968088 0.05490301 0.34350100
v 0.05574995 0.00000000 0.34350100
v 0.05490303 -0.00968086 0.34350100
v 0.05238784 -0.01906758 0.34350100
v 0.00968085 0.05490302 0.34350100
v -0.00000002 0.05574993 0.34350100
v 0.05490303 0.00968087 0.34350100
v 0.05238782 0.01906758 0.34350100
v 0.02787499 0.04828088 0.34350100
v 0.00968085 0.05490302 0.34350100
v 0.01906756 0.05238782 0.34350100
v 0.02787499 0.04828088 0.34350100
v 0.04828088 0.02787500 0.34350100
v 0.03583537 0.04270696 0.34350100
v -0.00968088 0.05490301 0.34350100
v 0.02787499 0.04828088 0.34350100
v 0.03583537 0.04270696 0.34350100
v -0.04270697 0.03583535 0.34350100
v 0.04270695 0.03583538 0.34350100
v -0.03583537 -0.04270699 0.34500101
v -0.02986005 -0.05088587 0.34500101
v -0.03822152 -0.04494568 0.34500101
v -0.04270695 -0.03583541 0.34500101
v -0.03822152 -0.04494568 0.34500101
v -0.04542784 -0.03764715 0.34500101
v -0.03583537 -0.04270699 0.34500101
v -0.02787499 -0.04828091 0.34500101
v -0.02986005 -0.05088587 0.34500101
v -0.04828088 -0.02787503 0.34500101
v -0.05126129 -0.02921083 0.34500101
v -0.02059618 -0.05528827 0.34500101
v -0.01906756 -0.05238785 0.34500101
v -0.05238782 -0.01906761 0.34500101
v -0.05554561 -0.01989176 0.34500101
v -0.01070992 -0.05801977 0.34500101
v -0.02059618 -0.05528827 0.34500101
v -0.01906756 -0.05238785 0.34500101
v -0.00968085 -0.05490305 0.34500101
v -0.01070992 -0.05801977 0.34500101
v -0.01906756 -0.05238785 0.34500101
v -0.05490303 -0.00968090 0.34500101
v -0.05815124 -0.00997159 0.34500101
v -0.00049998 -0.05869782 0.34500101
v -0.00049998 -0.05899787 0.34500101
v -0.01070992 -0.05801977 0.34500101
v -0.00968085 -0.05490305 0.34500101
v 0.00000002 -0.05574996 0.34500101
v 0.00050002 -0.05869782 0.34500101
v -0.05574995 -0.00000003 0.34500101
v -0.05899941 0.00024997 0.34500101
v 0.01070996 -0.05801976 0.34500101
v 0.00050002 -0.05899787 0.34500101
v 0.00968088 -0.05490304 0.34500101
v -0.05490303 0.00968083 0.34500101
v -0.05806463 0.01046398 0.34500101
v -0.05490303 0.00968083 0.34500101
v -0.05574995 -0.00000003 0.34500101
v -0.05899941 0.00024997 0.34500101
v 0.01906760 -0.05238784 0.34500101
v 0.01070996 -0.05801976 0.34500101
v 0.00968088 -0.05490304 0.34500101
v 0.01906760 -0.05238784 0.34500101
v 0.02059622 -0.05528826 0.34500101
v 0.01070996 -0.05801976 0.34500101
v -0.05238784 0.01906755 0.34500101
v -0.05537504 0.02036175 0.34500101
v -0.05238784 0.01906755 0.34500101
v -0.05806463 0.01046398 0.34500101
v 0.02787502 -0.04828090 0.34500101
v 0.02059622 -0.05528826 0.34500101
v 0.01906760 -0.05238784 0.34500101
v 0.02986009 -0.05088585 0.34500101
v -0.04828090 0.02787497 0.34500101
v -0.05101192 0.02964416 0.34500101
v 0.03583540 -0.04270696 0.34500101
v -0.04270697 0.03583535 0.34500101
v -0.04510719 0.03803071 0.34500101
v 0.03822155 -0.04494565 0.34500101
v 0.04270697 -0.03583538 0.34500101
v -0.03583540 0.04270693 0.34500101
v -0.03783925 0.04526790 0.34500101
v -0.03583540 0.04270693 0.34500101
v -0.04510719 0.03803071 0.34500101
v 0.04542786 -0.03764712 0.34500101
v 0.04828090 -0.02787500 0.34500101
v -0.02787502 0.04828087 0.34500101
v -0.03783925 0.04526790 0.34500101
v -0.02942778 0.05113705 0.34500101
v 0.05126131 -0.02921080 0.34500101
v 0.04542786 -0.03764712 0.34500101
v 0.04828090 -0.02787500 0.34500101
v 0.05238784 -0.01906758 0.34500101
v 0.05126131 -0.02921080 0.34500101
v -0.01906760 0.05238781 0.34500101
v -0.02012695 0.05546079 0.34500101
v 0.05554563 -0.01989173 0.34500101
v 0.05490303 -0.00968086 0.34500101
v -0.00968088 0.05490301 0.34500101
v -0.01021786 0.05810842 0.34500101
v 0.05815125 -0.00997156 0.34500101
v 0.05574995 0.00000000 0.34500101
v -0.00000002 0.05574993 0.34500101
v -0.00000002 0.05899993 0.34500101
v 0.05899941 0.00025001 0.34500101
v 0.05490303 0.00968087 0.34500101
v 0.05899941 0.00025001 0.34500101
v 0.01021782 0.05810843 0.34500101
v 0.00968085 0.05490302 0.34500101
v 0.05806462 0.01046401 0.34500101
v 0.05490303 0.00968087 0.34500101
v 0.05238782 0.01906758 0.34500101
v 0.05806462 0.01046401 0.34500101
v 0.02012691 0.05546080 0.34500101
v 0.01906756 0.05238782 0.34500101
v 0.05537502 0.02036178 0.34500101
v 0.05238782 0.01906758 0.34500101
v 0.04828088 0.02787500 0.34500101
v 0.05537502 0.02036178 0.34500101
v 0.02942774 0.05113707 0.34500101
v 0.02787499 0.04828088 0.34500101
v 0.05101190 0.02964419 0.34500101
v 0.04270695 0.03583538 0.34500101
v 0.03783922 0.04526792 0.34500101
v 0.03583537 0.04270696 0.34500101
v 0.04510717 0.03803074 0.34500101
v 0.04510717 0.03803074 0.34500101
v 0.03583537 0.04270696 0.34500101
v 0.03783922 0.04526792 0.34500101
v -0.00968085 -0.05490305 0.34350100
v 0.00000002 -0.05574996 0.34350100
v 0.00000002 -0.05574996 0.34500101
v -0.00968085 -0.05490305 0.34500101
v -0.01906756 -0.05238785 0.34350100
v -0.01906756 -0.05238785 0.34500101
v -0.02787499 -0.04828091 0.34350100
v -0.02787499 -0.04828091 0.34500101
v -0.03583537 -0.04270699 0.34350100
v -0.03583537 -0.04270699 0.34500101
v -0.04270695 -0.03583541 0.34350100
v -0.04270695 -0.03583541 0.34500101
v -0.04828088 -0.02787503 0.34350100
v -0.04828088 -0.02787503 0.34500101
v -0.05238782 -0.01906761 0.34350100
v -0.05238782 -0.01906761 0.34500101
v -0.05490303 -0.00968090 0.34350100
v -0.05490303 -0.00968090 0.34500101
v -0.05574995 -0.00000003 0.34350100
v -0.05574995 -0.00000003 0.34500101
v -0.05490303 0.00968083 0.34350100
v -0.05490303 0.00968083 0.34500101
v -0.05238784 0.01906755 0.34350100
v -0.05238784 0.01906755 0.34500101
v -0.04828090 0.02787497 0.34350100
v -0.04828090 0.02787497 0.34500101
v -0.04270697 0.03583535 0.34350100
v -0.04270697 0.03583535 0.34500101
v -0.03583540 0.04270693 0.34350100
v -0.03583540 0.04270693 0.34500101
v -0.02787502 0.04828087 0.34350100
v -0.02787502 0.04828087 0.34500101
v -0.01906760 0.05238781 0.34350100
v -0.01906760 0.05238781 0.34500101
v -0.00968088 0.05490301 0.34350100
v -0.00968088 0.05490301 0.34500101
v -0.00000002 0.05574993 0.34350100
v -0.00000002 0.05574993 0.34500101
v 0.00968085 0.05490302 0.34350100
v 0.00968085 0.05490302 0.34500101
v 0.01906756 0.05238782 0.34350100
v 0.01906756 0.05238782 0.34500101
v 0.02787499 0.04828088 0.34350100
v 0.02787499 0.04828088 0.34500101
v 0.03583537 0.04270696 0.34350100
v 0.03583537 0.04270696 0.34500101
v 0.04270695 0.03583538 0.34350100
v 0.04270695 0.03583538 0.34500101
v 0.04828088 0.02787500 0.34350100
v 0.04828088 0.02787500 0.34500101
v 0.05238782 0.01906758 0.34350100
v 0.05238782 0.01906758 0.34500101
v 0.05490303 0.00968087 0.34350100
v 0.05490303 0.00968087 0.34500101
v 0.05574995 0.00000000 0.34350100
v 0.05574995 0.00000000 0.34500101
v 0.05490303 -0.00968086 0.34350100
v 0.05490303 -0.00968086 0.34500101
v 0.05238784 -0.01906758 0.34350100
v 0.05238784 -0.01906758 0.34500101
v 0.04828090 -0.02787500 0.34500101
v 0.04828090 -0.02787500 0.34350100
v 0.04270697 -0.03583538 0.34350100
v 0.04270697 -0.03583538 0.34500101
v 0.03583540 -0.04270696 0.34350100
v 0.03583540 -0.04270696 0.34500101
v 0.02787502 -0.04828090 0.34500101
v 0.02787502 -0.04828090 0.34350100
v 0.01906760 -0.05238784 0.34350100
v 0.01906760 -0.05238784 0.34500101
v 0.00968088 -0.05490304 0.34500101
v 0.00968088 -0.05490304 0.34350100
v 0.00000002 -0.05574996 0.34500101
v 0.00000002 -0.05574996 0.34350100
v -0.03653581 0.07319995 0.36934790
v -0.02978821 0.07319996 0.36177301
v -0.03813685 0.07319995 0.36768341
v -0.04350890 0.07319995 0.37635091
v -0.04533912 0.07319995 0.37494701
v -0.02845259 0.07319996 0.36366221
v -0.04916008 0.07319995 0.38445839
v -0.05117865 0.07319995 0.38334540
v -0.02054419 0.07319996 0.35739329
v -0.01950480 0.07319996 0.35946640
v -0.05331744 0.07319994 0.39342400
v -0.05547978 0.07319994 0.39262620
v -0.01068266 0.07319996 0.35467610
v -0.05811329 0.07319994 0.40251049
v -0.00996443 0.07319996 0.35688820
v -0.05585487 0.07319994 0.40297541
v -0.00050002 0.07319997 0.35400099
v -0.00050002 0.07319997 0.35370311
v -0.05899997 0.07319994 0.41270101
v -0.00012128 0.07319997 0.35600591
v 0.00049998 0.07319997 0.35400099
v -0.05669512 0.07319994 0.41282231
v -0.05811329 0.07319994 0.42289150
v 0.00972555 0.07319997 0.35684609
v 0.01068262 0.07319997 0.35467610
v 0.00049998 0.07319997 0.35370311
v -0.05581273 0.07319994 0.42266539
v -0.05547978 0.07319994 0.43277571
v 0.01927689 0.07319997 0.35938349
v 0.02054415 0.07319997 0.35739329
v -0.05323453 0.07319994 0.43220580
v -0.05117865 0.07319994 0.44205651
v 0.02824249 0.07319997 0.36354089
v 0.02978817 0.07319997 0.36177301
v -0.04903878 0.07319994 0.44115359
v -0.04533912 0.07319994 0.45045501
v 0.03634999 0.07319997 0.36919209
v 0.03813681 0.07319998 0.36768341
v -0.04335304 0.07319994 0.44923681
v 0.04335300 0.07319998 0.37616521
v -0.03813685 0.07319995 0.45771861
v -0.03635003 0.07319995 0.45620990
v 0.04533908 0.07319998 0.37494701
v 0.04903874 0.07319998 0.38424841
v -0.02978821 0.07319995 0.46362901
v -0.02824254 0.07319995 0.46186101
v 0.05117861 0.07319998 0.38334540
v 0.05323449 0.07319998 0.39319620
v -0.02054419 0.07319995 0.46800861
v -0.01927693 0.07319995 0.46601841
v 0.05547974 0.07319998 0.39262620
v 0.05581269 0.07319998 0.40273660
v -0.01068266 0.07319996 0.47072580
v -0.00972559 0.07319996 0.46855590
v 0.05811325 0.07319998 0.40251049
v 0.05669508 0.07319998 0.41257969
v -0.00050002 0.07319996 0.47140101
v 0.00012123 0.07319996 0.46939611
v -0.00050002 0.07319996 0.47169891
v -0.00050002 0.07319996 0.47140101
v -0.00050002 0.07319996 0.47169891
v 0.05899993 0.07319998 0.41270101
v 0.00049998 0.07319996 0.47140101
v 0.05585483 0.07319998 0.42242661
v 0.00996438 0.07319997 0.46851370
v 0.05811325 0.07319998 0.42289150
v 0.01068262 0.07319997 0.47072580
v 0.00049998 0.07319996 0.47169891
v 0.05331740 0.07319998 0.43197790
v 0.01950476 0.07319997 0.46593550
v 0.05547974 0.07319998 0.43277571
v 0.02054415 0.07319997 0.46800861
v 0.02845255 0.07319997 0.46173981
v 0.05117861 0.07319998 0.44205651
v 0.04916004 0.07319998 0.44094351
v 0.02978817 0.07319997 0.46362901
v 0.03653577 0.07319997 0.45605400
v 0.04533908 0.07319997 0.45045501
v 0.04350886 0.07319997 0.44905099
v 0.03813681 0.07319997 0.45771861
v 0.04350886 0.07319997 0.44905099
v 0.00049998 0.07019994 0.47140101
v 0.00049998 0.07319996 0.47169891
v 0.00049998 0.07319996 0.47140101
v 0.00049998 0.07019994 0.47169891
v -0.00050002 0.07319996 0.47140101
v -0.00050002 0.07019994 0.47169891
v -0.00050002 0.07019994 0.47140101
v -0.00050002 0.07319996 0.47169891
v -0.00050002 0.07019994 0.47140101
v -0.00049042 0.07010243 0.47140101
v -0.00046196 0.07000861 0.47140101
v -0.00041576 0.06992218 0.47140101
v -0.00050002 0.07019994 0.47140101
v -0.00041576 0.06992218 0.47140101
v -0.00035358 0.06984643 0.47140101
v -0.00050002 0.07019994 0.47140101
v -0.00035358 0.06984643 0.47140101
v -0.00027781 0.06978419 0.47140101
v -0.00050002 0.07019994 0.47140101
v -0.00027781 0.06978419 0.47140101
v -0.00019136 0.06973801 0.47140101
v 0.00049998 0.07019994 0.47140101
v -0.00019136 0.06973801 0.47140101
v -0.00009757 0.06970957 0.47140101
v 0.00049998 0.07019994 0.47140101
v -0.00009757 0.06970957 0.47140101
v -0.00000002 0.06969998 0.47140101
v 0.00049998 0.07019994 0.47140101
v -0.00000002 0.06969998 0.47140101
v 0.00009752 0.06970957 0.47140101
v 0.00049998 0.07019994 0.47140101
v 0.00009752 0.06970957 0.47140101
v 0.00019132 0.06973801 0.47140101
v 0.00049998 0.07019994 0.47140101
v 0.00019132 0.06973801 0.47140101
v 0.00027776 0.06978419 0.47140101
v 0.00049998 0.07019994 0.47140101
v 0.00027776 0.06978419 0.47140101
v 0.00035353 0.06984643 0.47140101
v 0.00049998 0.07019994 0.47140101
v 0.00035353 0.06984643 0.47140101
v 0.00041571 0.06992218 0.47140101
v 0.00049998 0.07019994 0.47140101
v 0.00041571 0.06992218 0.47140101
v 0.00046192 0.07000861 0.47140101
v 0.00049037 0.07010243 0.47140101
v 0.00049998 0.07019994 0.47140101
v -0.00050002 0.07019994 0.47140101
v -0.00019136 0.06973801 0.47140101
v 0.00049998 0.07319996 0.47140101
v -0.00050002 0.07319996 0.47140101
v -0.00050002 0.07019994 0.47169891
v -0.00049042 0.07010243 0.47140101
v -0.00050002 0.07019994 0.47140101
v -0.00046999 0.07002935 0.47169909
v -0.00046196 0.07000861 0.47140101
v -0.00041688 0.06992409 0.47169951
v -0.00041576 0.06992218 0.47140101
v -0.00035358 0.06984643 0.47140101
v -0.00030738 0.06980572 0.47170019
v -0.00027781 0.06978419 0.47140101
v -0.00016133 0.06972674 0.47170070
v -0.00019136 0.06973801 0.47140101
v -0.00009757 0.06970957 0.47140101
v -0.00000002 0.06969998 0.47170100
v -0.00000002 0.06969998 0.47140101
v 0.00009752 0.06970957 0.47140101
v 0.00017060 0.06973002 0.47170070
v 0.00019132 0.06973801 0.47140101
v 0.00027583 0.06978313 0.47170031
v 0.00027776 0.06978419 0.47140101
v 0.00035353 0.06984643 0.47140101
v 0.00039422 0.06989262 0.47169971
v 0.00041571 0.06992218 0.47140101
v 0.00047320 0.07003865 0.47169909
v 0.00046192 0.07000861 0.47140101
v 0.00049037 0.07010243 0.47140101
v 0.00049998 0.07019994 0.47169891
v 0.00049998 0.07019994 0.47140101
v -0.00050002 0.07319997 0.35400099
v -0.00050002 0.07019994 0.35400099
v -0.00050002 0.07019994 0.35370311
v -0.00050002 0.07319997 0.35370311
v 0.00049998 0.07019994 0.35400099
v 0.00049998 0.07319997 0.35400099
v 0.00049998 0.07319997 0.35370311
v 0.00049998 0.07019994 0.35370311
v -0.00046196 0.07000861 0.35400099
v -0.00049042 0.07010244 0.35400099
v -0.00050002 0.07019994 0.35400099
v -0.00027781 0.06978420 0.35400099
v -0.00041576 0.06992219 0.35400099
v -0.00046196 0.07000861 0.35400099
v -0.00027781 0.06978420 0.35400099
v -0.00035358 0.06984644 0.35400099
v -0.00041576 0.06992219 0.35400099
v -0.00027781 0.06978420 0.35400099
v -0.00046196 0.07000861 0.35400099
v -0.00050002 0.07019994 0.35400099
v -0.00009757 0.06970958 0.35400099
v -0.00019136 0.06973802 0.35400099
v -0.00027781 0.06978420 0.35400099
v -0.00009757 0.06970958 0.35400099
v 0.00049998 0.07019994 0.35400099
v -0.00050002 0.07319997 0.35400099
v 0.00049998 0.07319997 0.35400099
v 0.00049037 0.07010244 0.35400099
v 0.00009752 0.06970958 0.35400099
v -0.00000002 0.06969999 0.35400099
v 0.00046192 0.07000861 0.35400099
v -0.00050002 0.07019994 0.35400099
v 0.00049037 0.07010244 0.35400099
v 0.00019132 0.06973802 0.35400099
v 0.00035353 0.06984644 0.35400099
v 0.00027776 0.06978420 0.35400099
v 0.00019132 0.06973802 0.35400099
v 0.00035353 0.06984644 0.35400099
v 0.00046192 0.07000861 0.35400099
v 0.00041571 0.06992219 0.35400099
v 0.00035353 0.06984644 0.35400099
v -0.00009757 0.06970958 0.35400099
v -0.00050002 0.07019994 0.35400099
v -0.00009757 0.06970958 0.35400099
v 0.00035353 0.06984644 0.35400099
v 0.00046192 0.07000861 0.35400099
v 0.00049998 0.07019994 0.35370311
v 0.00049037 0.07010244 0.35400099
v 0.00049998 0.07019994 0.35400099
v 0.00046467 0.07001542 0.35370281
v 0.00041571 0.06992219 0.35400099
v 0.00046192 0.07000861 0.35400099
v 0.00036408 0.06985728 0.35370210
v 0.00027776 0.06978420 0.35400099
v 0.00035353 0.06984644 0.35400099
v 0.00021237 0.06974731 0.35370141
v 0.00019132 0.06973802 0.35400099
v 0.00010557 0.06971125 0.35370111
v -0.00000002 0.06969999 0.35400099
v 0.00009752 0.06970958 0.35400099
v -0.00002955 0.06970081 0.35370100
v -0.00009757 0.06970958 0.35400099
v -0.00018802 0.06973664 0.35370129
v -0.00027781 0.06978420 0.35400099
v -0.00019136 0.06973802 0.35400099
v -0.00035039 0.06984328 0.35370201
v -0.00035358 0.06984644 0.35400099
v -0.00041785 0.06992535 0.35370240
v -0.00046196 0.07000861 0.35400099
v -0.00041576 0.06992219 0.35400099
v -0.00046992 0.07002912 0.35370290
v -0.00049042 0.07010244 0.35400099
v -0.00050002 0.07019994 0.35370311
v -0.00050002 0.07019994 0.35400099
v -0.00049998 -0.05869782 0.34500101
v -0.00049998 -0.05899787 0.34800100
v -0.00049998 -0.05899787 0.34500101
v -0.00049998 -0.05869782 0.34800100
v 0.00050002 -0.05899787 0.34500101
v 0.00050002 -0.05869782 0.34800100
v 0.00050002 -0.05869782 0.34500101
v 0.00050002 -0.05899787 0.34800100
v -0.00049998 -0.05869782 0.34800100
v -0.00049998 -0.05869782 0.34500101
v 0.00050002 -0.05869782 0.34500101
v -0.00046192 -0.05869782 0.34819230
v -0.00049037 -0.05869782 0.34809849
v -0.00019132 -0.05869782 0.34846291
v -0.00027777 -0.05869782 0.34841669
v -0.00035353 -0.05869782 0.34835449
v -0.00019132 -0.05869782 0.34846291
v -0.00035353 -0.05869782 0.34835449
v -0.00041572 -0.05869782 0.34827879
v -0.00019132 -0.05869782 0.34846291
v -0.00041572 -0.05869782 0.34827879
v -0.00046192 -0.05869782 0.34819230
v 0.00000002 -0.05869782 0.34850100
v -0.00009753 -0.05869782 0.34849140
v 0.00050002 -0.05869782 0.34800100
v 0.00019136 -0.05869782 0.34846291
v 0.00009756 -0.05869782 0.34849140
v 0.00046196 -0.05869782 0.34819230
v 0.00049041 -0.05869782 0.34809849
v 0.00035357 -0.05869782 0.34835449
v 0.00046196 -0.05869782 0.34819230
v 0.00041575 -0.05869782 0.34827879
v 0.00035357 -0.05869782 0.34835449
v 0.00027780 -0.05869782 0.34841669
v 0.00035357 -0.05869782 0.34835449
v -0.00049998 -0.05869782 0.34800100
v 0.00046196 -0.05869782 0.34819230
v -0.00049037 -0.05869782 0.34809849
v -0.00049998 -0.05899787 0.34800100
v -0.00049998 -0.05869782 0.34800100
v -0.00046988 -0.05899812 0.34817180
v -0.00046192 -0.05869782 0.34819230
v -0.00041781 -0.05899854 0.34827560
v -0.00041572 -0.05869782 0.34827879
v -0.00035353 -0.05869782 0.34835449
v -0.00035034 -0.05899895 0.34835771
v -0.00027777 -0.05869782 0.34841669
v -0.00018798 -0.05899967 0.34846431
v -0.00019132 -0.05869782 0.34846291
v -0.00009753 -0.05869782 0.34849140
v -0.00002951 -0.05899996 0.34850010
v 0.00000002 -0.05869782 0.34850100
v 0.00010561 -0.05899990 0.34848970
v 0.00009756 -0.05869782 0.34849140
v 0.00019136 -0.05869782 0.34846291
v 0.00021241 -0.05899961 0.34845370
v 0.00027780 -0.05869782 0.34841669
v 0.00036412 -0.05899883 0.34834370
v 0.00035357 -0.05869782 0.34835449
v 0.00041575 -0.05869782 0.34827879
v 0.00046471 -0.05899817 0.34818551
v 0.00046196 -0.05869782 0.34819230
v 0.00049041 -0.05869782 0.34809849
v 0.00050002 -0.05899787 0.34800100
v 0.00050002 -0.05869782 0.34800100
v 0.04701438 0.09099998 -0.05567091
v 0.04906424 0.09099998 -0.05803942
v 0.03828826 0.09099998 -0.06564961
v 0.05596747 0.09099998 -0.04666113
v 0.05836191 0.09099998 -0.04868042
v 0.06590107 0.09099998 -0.03785454
v 0.03663280 0.09099998 -0.06298910
v 0.06321999 0.09099998 -0.03623360
v 0.02635857 0.09099998 -0.07128166
v 0.07145449 0.09099998 -0.02588808
v 0.02513816 0.09099998 -0.06839333
v 0.06855162 0.09099998 -0.02470505
v 0.01363465 0.09099997 -0.07476591
v 0.07485493 0.09099998 -0.01314157
v 0.01287969 0.09099997 -0.07171951
v 0.07180032 0.09099998 -0.01242583
v 0.00049997 0.09099996 -0.07559900
v 0.00049997 0.09099996 -0.07599735
v 0.07599994 0.09099998 0.00000098
v 0.00022992 0.09099996 -0.07286642
v -0.00050003 0.09099996 -0.07559900
v 0.07286742 0.09099998 0.00023093
v 0.07485493 0.09099998 0.01314347
v -0.01363471 0.09099996 -0.07476591
v -0.00050003 0.09099996 -0.07599735
v -0.01242682 0.09099996 -0.07179932
v 0.07172045 0.09099998 0.01288068
v 0.07145449 0.09099998 0.02589005
v -0.02470603 0.09099995 -0.06855063
v -0.02635863 0.09099995 -0.07128166
v 0.06839433 0.09099998 0.02513915
v 0.06590107 0.09099998 0.03785652
v -0.03623458 0.09099995 -0.06321906
v -0.03828832 0.09099995 -0.06564961
v 0.06299003 0.09099998 0.03663385
v 0.05836191 0.09099998 0.04868240
v -0.04666212 0.09099995 -0.05596649
v -0.04906430 0.09099995 -0.05803942
v 0.05567184 0.09099998 0.04701542
v -0.05567190 0.09099995 -0.04701346
v 0.04906424 0.09099998 0.05804139
v 0.04666206 0.09099998 0.05596846
v -0.05836197 0.09099995 -0.04868042
v -0.06299009 0.09099994 -0.03663187
v 0.03828826 0.09099997 0.06565160
v 0.03623452 0.09099997 0.06322098
v -0.06590113 0.09099994 -0.03785454
v -0.06839439 0.09099994 -0.02513724
v 0.02635857 0.09099997 0.07128364
v 0.02470597 0.09099997 0.06855262
v -0.07145455 0.09099994 -0.02588808
v -0.07172051 0.09099994 -0.01287877
v 0.01363465 0.09099996 0.07476789
v 0.01242676 0.09099996 0.07180130
v -0.07485499 0.09099994 -0.01314157
v -0.07286748 0.09099994 -0.00022898
v 0.00049997 0.09099996 0.07560099
v -0.00022998 0.09099996 0.07286841
v 0.00049997 0.09099996 0.07599932
v -0.07600000 0.09099994 0.00000098
v -0.00050003 0.09099996 0.07560099
v -0.07180038 0.09099994 0.01242780
v -0.01287975 0.09099995 0.07172143
v -0.07485499 0.09099994 0.01314347
v -0.01363471 0.09099995 0.07476789
v -0.00050003 0.09099996 0.07599932
v -0.06855168 0.09099994 0.02470701
v -0.02513822 0.09099995 0.06839532
v -0.07145455 0.09099994 0.02589005
v -0.02635863 0.09099995 0.07128364
v -0.06322005 0.09099994 0.03623552
v -0.03663286 0.09099995 0.06299103
v -0.06590113 0.09099994 0.03785652
v -0.05596753 0.09099994 0.04666311
v -0.03828832 0.09099995 0.06565160
v -0.04701444 0.09099995 0.05567282
v -0.05836197 0.09099994 0.04868240
v -0.04906430 0.09099995 0.05804139
v 0.06235379 -0.03599994 0.09000092
v 0.04628070 -0.05515514 0.09000092
v 0.05515517 -0.04628066 0.09000092
v 0.02462544 -0.06765781 0.09000092
v 0.03599997 -0.06235377 0.09000092
v 0.07090617 -0.01250265 0.09000092
v 0.06765783 -0.02462540 0.09000092
v 0.01250269 -0.07090616 0.09000092
v 0.07090615 0.01250269 0.09000092
v 0.07199996 0.00000002 0.09000092
v -0.01250265 -0.07090617 0.09000092
v 0.00000002 -0.07199997 0.09000092
v -0.03599993 -0.06235379 0.09000092
v -0.02462540 -0.06765784 0.09000092
v 0.05515514 0.04628069 0.09000092
v 0.06765781 0.02462544 0.09000092
v 0.06235377 0.03599996 0.09000092
v -0.04628066 -0.05515517 0.09000092
v 0.03599993 0.06235379 0.09000092
v 0.04628066 0.05515516 0.09000092
v -0.06235377 -0.03599998 0.09000092
v -0.05515514 -0.04628070 0.09000092
v -0.00000002 0.07199995 0.09000092
v 0.02462540 0.06765783 0.09000092
v -0.00000002 0.07199995 0.09000092
v 0.02462540 0.06765783 0.09000092
v 0.01250265 0.07090616 0.09000092
v -0.07090617 0.01250264 0.09000092
v -0.07199996 -0.00000003 0.09000092
v -0.07090615 -0.01250270 0.09000092
v -0.06765781 -0.02462545 0.09000092
v -0.02462544 0.06765781 0.09000092
v -0.01250269 0.07090615 0.09000092
v -0.03599997 0.06235376 0.09000092
v -0.05515517 0.04628066 0.09000092
v -0.04628070 0.05515513 0.09000092
v -0.06235379 0.03599992 0.09000092
v -0.06765783 0.02462539 0.09000092
v 0.00000002 -0.07199997 0.09000092
v 0.00000002 -0.07199997 0.08850097
v 0.01250269 -0.07090616 0.08850097
v 0.01250269 -0.07090616 0.09000092
v 0.02462544 -0.06765781 0.09000092
v 0.02462544 -0.06765781 0.08850097
v 0.03599997 -0.06235377 0.09000092
v 0.03599997 -0.06235377 0.08850097
v 0.04628070 -0.05515514 0.09000092
v 0.04628070 -0.05515514 0.08850097
v 0.05515517 -0.04628066 0.09000092
v 0.05515517 -0.04628066 0.08850097
v 0.06235379 -0.03599994 0.09000092
v 0.06235379 -0.03599994 0.08850097
v 0.06765783 -0.02462540 0.09000092
v 0.06765783 -0.02462540 0.08850097
v 0.07090617 -0.01250265 0.09000092
v 0.07090617 -0.01250265 0.08850097
v 0.07199996 0.00000002 0.09000092
v 0.07199996 0.00000002 0.08850097
v 0.07090615 0.01250269 0.09000092
v 0.07090615 0.01250269 0.08850097
v 0.06765781 0.02462544 0.09000092
v 0.06765781 0.02462544 0.08850097
v 0.06235377 0.03599996 0.09000092
v 0.06235377 0.03599996 0.08850097
v 0.05515514 0.04628069 0.09000092
v 0.05515514 0.04628069 0.08850097
v 0.04628066 0.05515516 0.09000092
v 0.04628066 0.05515516 0.08850097
v 0.03599993 0.06235379 0.09000092
v 0.03599993 0.06235379 0.08850097
v 0.02462540 0.06765783 0.09000092
v 0.02462540 0.06765783 0.08850097
v 0.01250265 0.07090616 0.09000092
v 0.01250265 0.07090616 0.08850097
v -0.00000002 0.07199995 0.09000092
v -0.00000002 0.07199995 0.08850097
v -0.01250269 0.07090615 0.09000092
v -0.01250269 0.07090615 0.08850097
v -0.02462544 0.06765781 0.09000092
v -0.02462544 0.06765781 0.08850097
v -0.03599997 0.06235376 0.09000092
v -0.03599997 0.06235376 0.08850097
v -0.04628070 0.05515513 0.09000092
v -0.04628070 0.05515513 0.08850097
v -0.05515517 0.04628066 0.09000092
v -0.05515517 0.04628066 0.08850097
v -0.06235379 0.03599992 0.09000092
v -0.06235379 0.03599993 0.08850097
v -0.06765783 0.02462539 0.09000092
v -0.06765783 0.02462539 0.08850097
v -0.07090617 0.01250264 0.09000092
v -0.07090617 0.01250264 0.08850097
v -0.07199996 -0.00000003 0.09000092
v -0.07199996 -0.00000003 0.08850097
v -0.07090615 -0.01250270 0.09000092
v -0.07090615 -0.01250270 0.08850097
v -0.06765781 -0.02462545 0.08850097
v -0.06765781 -0.02462545 0.09000092
v -0.06235377 -0.03599998 0.09000092
v -0.06235377 -0.03599997 0.08850097
v -0.05515514 -0.04628070 0.09000092
v -0.05515514 -0.04628070 0.08850097
v -0.04628066 -0.05515517 0.09000092
v -0.04628066 -0.05515517 0.08850097
v -0.03599993 -0.06235379 0.09000092
v -0.03599993 -0.06235379 0.08850097
v -0.02462540 -0.06765784 0.09000092
v -0.02462540 -0.06765784 0.08850097
v -0.01250265 -0.07090617 0.09000092
v -0.01250265 -0.07090617 0.08850097
v 0.00000002 -0.07199997 0.09000092
v 0.00000002 -0.07199997 0.08850097
v 0.04628070 -0.05515514 0.08850097
v 0.03838421 -0.06559454 0.08850097
v 0.04917736 -0.05794464 0.08850097
v 0.05515517 -0.04628066 0.08850097
v 0.05848039 -0.04853902 0.08850097
v 0.03599997 -0.06235377 0.08850097
v 0.06235379 -0.03599994 0.08850097
v 0.06601150 -0.03766266 0.08850097
v 0.02642806 -0.07125692 0.08850097
v 0.02462544 -0.06765781 0.08850097
v 0.06765783 -0.02462540 0.08850097
v 0.07154245 -0.02564511 0.08850097
v 0.01367117 -0.07476025 0.08850097
v 0.01250269 -0.07090616 0.08850097
v 0.07090617 -0.01250265 0.08850097
v 0.07490570 -0.01285056 0.08850097
v 0.00050002 -0.07569831 0.08850097
v 0.00050002 -0.07599836 0.08850097
v 0.00000002 -0.07199997 0.08850097
v -0.00049998 -0.07569832 0.08850097
v 0.07199996 0.00000002 0.08850097
v 0.07599925 0.00033336 0.08850097
v -0.01363466 -0.07476693 0.08850097
v -0.00049998 -0.07599837 0.08850097
v -0.01250265 -0.07090617 0.08850097
v 0.07090615 0.01250269 0.08850097
v 0.07479005 0.01350714 0.08850097
v -0.02462540 -0.06765784 0.08850097
v -0.02635858 -0.07128269 0.08850097
v 0.06765781 0.02462544 0.08850097
v 0.07131474 0.02627178 0.08850097
v -0.03599993 -0.06235379 0.08850097
v -0.03828827 -0.06565060 0.08850097
v 0.06235377 0.03599996 0.08850097
v 0.06567857 0.03824033 0.08850097
v -0.04628066 -0.05515517 0.08850097
v -0.04906425 -0.05804046 0.08850097
v 0.05515514 0.04628069 0.08850097
v 0.05805235 0.04905016 0.08850097
v -0.05515514 -0.04628070 0.08850097
v 0.04628066 0.05515516 0.08850097
v -0.05836193 -0.04868139 0.08850097
v 0.04866717 0.05837381 0.08850097
v -0.06235377 -0.03599997 0.08850097
v 0.03599993 0.06235379 0.08850097
v -0.06590109 -0.03785559 0.08850097
v 0.03780732 0.06592876 0.08850097
v -0.06765781 -0.02462545 0.08850097
v 0.02462540 0.06765783 0.08850097
v -0.07145451 -0.02588906 0.08850097
v 0.02580199 0.07148606 0.08850097
v -0.07090615 -0.01250270 0.08850097
v 0.01250265 0.07090616 0.08850097
v -0.07485496 -0.01314255 0.08850097
v 0.01301483 0.07487732 0.08850097
v -0.07199996 -0.00000003 0.08850097
v -0.00000002 0.07199995 0.08850097
v -0.07599997 -0.00000003 0.08850097
v -0.00016669 0.07599978 0.08850097
v -0.01250269 0.07090615 0.08850097
v -0.07484860 0.01317897 0.08850097
v -0.07090617 0.01250264 0.08850097
v -0.01334311 0.07481949 0.08850097
v -0.02462544 0.06765781 0.08850097
v -0.07142926 0.02595868 0.08850097
v -0.06765783 0.02462539 0.08850097
v -0.02611531 0.07137214 0.08850097
v -0.03599997 0.06235376 0.08850097
v -0.06584568 0.03795179 0.08850097
v -0.06235379 0.03599993 0.08850097
v -0.03809620 0.06576227 0.08850097
v -0.04628070 0.05515513 0.08850097
v -0.05826695 0.04879502 0.08850097
v -0.05515517 0.04628066 0.08850097
v -0.04892273 0.05815974 0.08850097
v -0.00050003 0.08800017 -0.07559900
v -0.00050003 0.09099996 -0.07599735
v -0.00050003 0.09099996 -0.07559900
v -0.00050003 0.08800017 -0.07599735
v -0.00035358 0.08764666 -0.07559900
v -0.00019137 0.08753824 -0.07559900
v -0.00027781 0.08758443 -0.07559900
v -0.00050003 0.08800017 -0.07559900
v 0.00049997 0.08800017 -0.07559900
v 0.00049036 0.08790266 -0.07559900
v -0.00050003 0.08800017 -0.07559900
v 0.00049036 0.08790266 -0.07559900
v 0.00046191 0.08780884 -0.07559900
v -0.00050003 0.08800017 -0.07559900
v 0.00046191 0.08780884 -0.07559900
v 0.00041571 0.08772242 -0.07559900
v 0.00035352 0.08764666 -0.07559900
v -0.00050003 0.08800017 -0.07559900
v 0.00035352 0.08764666 -0.07559900
v 0.00027776 0.08758443 -0.07559900
v 0.00027776 0.08758443 -0.07559900
v 0.00019131 0.08753824 -0.07559900
v -0.00050003 0.08800017 -0.07559900
v 0.00019131 0.08753824 -0.07559900
v 0.00009752 0.08750981 -0.07559900
v -0.00050003 0.08800017 -0.07559900
v 0.00009752 0.08750981 -0.07559900
v -0.00000003 0.08750021 -0.07559900
v -0.00000003 0.08750021 -0.07559900
v -0.00009757 0.08750981 -0.07559900
v -0.00050003 0.08800017 -0.07559900
v -0.00009757 0.08750981 -0.07559900
v -0.00019137 0.08753824 -0.07559900
v -0.00041576 0.08772242 -0.07559900
v -0.00050003 0.08800017 -0.07559900
v -0.00041576 0.08772242 -0.07559900
v -0.00046197 0.08780884 -0.07559900
v -0.00046197 0.08780884 -0.07559900
v -0.00049042 0.08790266 -0.07559900
v -0.00050003 0.08800017 -0.07559900
v -0.00019137 0.08753824 -0.07559900
v -0.00035358 0.08764666 -0.07559900
v -0.00050003 0.09099996 -0.07559900
v 0.00049997 0.09099996 -0.07559900
v 0.00049997 0.08800017 -0.07559900
v 0.00049997 0.09099996 -0.07559900
v 0.00049997 0.08800017 -0.07599735
v 0.00049997 0.08800017 -0.07559900
v 0.00049997 0.09099996 -0.07599735
v 0.00049997 0.08800017 -0.07599735
v 0.00049036 0.08790266 -0.07559900
v 0.00046467 0.08781564 -0.07599758
v 0.00046191 0.08780884 -0.07559900
v 0.00041571 0.08772242 -0.07559900
v 0.00036408 0.08765751 -0.07599811
v 0.00035352 0.08764666 -0.07559900
v 0.00027776 0.08758443 -0.07559900
v 0.00021236 0.08754754 -0.07599872
v 0.00019131 0.08753824 -0.07559900
v 0.00010556 0.08751147 -0.07599889
v 0.00009752 0.08750981 -0.07559900
v -0.00000003 0.08750021 -0.07559900
v -0.00002955 0.08750104 -0.07599901
v -0.00009757 0.08750981 -0.07559900
v -0.00018803 0.08753687 -0.07599878
v -0.00019137 0.08753824 -0.07559900
v -0.00027781 0.08758443 -0.07559900
v -0.00035039 0.08764344 -0.07599817
v -0.00035358 0.08764666 -0.07559900
v -0.00041786 0.08772557 -0.07599781
v -0.00041576 0.08772242 -0.07559900
v -0.00046197 0.08780884 -0.07559900
v -0.00046993 0.08782935 -0.07599752
v -0.00049042 0.08790266 -0.07559900
v -0.00050003 0.08800017 -0.07599735
v 0.00049997 0.09099996 0.07599932
v 0.00049997 0.08800017 0.07560099
v 0.00049997 0.08800017 0.07599932
v 0.00049997 0.09099996 0.07560099
v 0.00049997 0.08800017 0.07560099
v 0.00049997 0.09099996 0.07560099
v -0.00050003 0.09099996 0.07560099
v 0.00046191 0.08780884 0.07560099
v 0.00049036 0.08790266 0.07560099
v 0.00049997 0.08800017 0.07560099
v 0.00041571 0.08772242 0.07560099
v 0.00046191 0.08780884 0.07560099
v 0.00049997 0.08800017 0.07560099
v 0.00027776 0.08758443 0.07560099
v 0.00035352 0.08764666 0.07560099
v 0.00041571 0.08772242 0.07560099
v 0.00027776 0.08758443 0.07560099
v 0.00041571 0.08772242 0.07560099
v 0.00049997 0.08800017 0.07560099
v -0.00050003 0.08800017 0.07560099
v -0.00000003 0.08750021 0.07560099
v 0.00019131 0.08753824 0.07560099
v 0.00009752 0.08750981 0.07560099
v -0.00009757 0.08750981 0.07560099
v -0.00041576 0.08772242 0.07560099
v -0.00049042 0.08790266 0.07560099
v -0.00046197 0.08780884 0.07560099
v -0.00041576 0.08772242 0.07560099
v -0.00050003 0.08800017 0.07560099
v -0.00049042 0.08790266 0.07560099
v -0.00035358 0.08764666 0.07560099
v -0.00019137 0.08753824 0.07560099
v -0.00009757 0.08750981 0.07560099
v -0.00035358 0.08764666 0.07560099
v -0.00027781 0.08758443 0.07560099
v -0.00019137 0.08753824 0.07560099
v -0.00035358 0.08764666 0.07560099
v 0.00027776 0.08758443 0.07560099
v 0.00049997 0.08800017 0.07560099
v -0.00035358 0.08764666 0.07560099
v 0.00049997 0.08800017 0.07560099
v -0.00050003 0.08800017 0.07560099
v -0.00035358 0.08764666 0.07560099
v -0.00009757 0.08750981 0.07560099
v 0.00027776 0.08758443 0.07560099
v -0.00050003 0.08800017 0.07599932
v -0.00050003 0.09099996 0.07560099
v -0.00050003 0.09099996 0.07599932
v -0.00050003 0.08800017 0.07560099
v -0.00050003 0.08800017 0.07599932
v -0.00049042 0.08790266 0.07560099
v -0.00050003 0.08800017 0.07560099
v -0.00046472 0.08781564 0.07599956
v -0.00041576 0.08772242 0.07560099
v -0.00046197 0.08780884 0.07560099
v -0.00036413 0.08765751 0.07600009
v -0.00027781 0.08758443 0.07560099
v -0.00035358 0.08764666 0.07560099
v -0.00021242 0.08754754 0.07600064
v -0.00019137 0.08753824 0.07560099
v -0.00010562 0.08751147 0.07600087
v -0.00000003 0.08750021 0.07560099
v -0.00009757 0.08750981 0.07560099
v 0.00002950 0.08750104 0.07600093
v 0.00009752 0.08750981 0.07560099
v 0.00018797 0.08753687 0.07600076
v 0.00027776 0.08758443 0.07560099
v 0.00019131 0.08753824 0.07560099
v 0.00035034 0.08764344 0.07600015
v 0.00035352 0.08764666 0.07560099
v 0.00041780 0.08772557 0.07599980
v 0.00046191 0.08780884 0.07560099
v 0.00041571 0.08772242 0.07560099
v 0.00046987 0.08782935 0.07599950
v 0.00049036 0.08790266 0.07560099
v 0.00049997 0.08800017 0.07599932
v 0.00049997 0.08800017 0.07560099
v 0.00050002 -0.07599836 0.08850097
v 0.00050002 -0.07569831 0.08550095
v 0.00050002 -0.07599836 0.08550095
v 0.00050002 -0.07569831 0.08850097
v 0.00050002 -0.07569831 0.08550095
v 0.00050002 -0.07569831 0.08850097
v -0.00049998 -0.07569832 0.08850097
v 0.00041576 -0.07569831 0.08522319
v 0.00046196 -0.07569831 0.08530962
v 0.00049042 -0.07569831 0.08540338
v 0.00035358 -0.07569831 0.08514738
v 0.00049042 -0.07569831 0.08540338
v 0.00050002 -0.07569831 0.08550095
v 0.00035358 -0.07569831 0.08514738
v 0.00041576 -0.07569831 0.08522319
v 0.00049042 -0.07569831 0.08540338
v 0.00019137 -0.07569831 0.08503901
v 0.00027781 -0.07569831 0.08508521
v 0.00035358 -0.07569831 0.08514738
v 0.00019137 -0.07569831 0.08503901
v 0.00035358 -0.07569831 0.08514738
v -0.00049998 -0.07569832 0.08550095
v -0.00046192 -0.07569832 0.08530962
v -0.00049998 -0.07569832 0.08550095
v -0.00049037 -0.07569832 0.08540338
v -0.00019132 -0.07569832 0.08503901
v -0.00009752 -0.07569832 0.08501058
v 0.00000002 -0.07569831 0.08500093
v 0.00009757 -0.07569831 0.08501058
v -0.00035353 -0.07569832 0.08514738
v -0.00046192 -0.07569832 0.08530962
v -0.00041571 -0.07569832 0.08522319
v -0.00027776 -0.07569832 0.08508521
v -0.00035353 -0.07569832 0.08514738
v 0.00009757 -0.07569831 0.08501058
v 0.00019137 -0.07569831 0.08503901
v -0.00035353 -0.07569832 0.08514738
v -0.00019132 -0.07569832 0.08503901
v 0.00009757 -0.07569831 0.08501058
v -0.00035353 -0.07569832 0.08514738
v -0.00049998 -0.07569832 0.08550095
v -0.00046192 -0.07569832 0.08530962
v -0.00049998 -0.07569832 0.08850097
v -0.00049998 -0.07599837 0.08550095
v -0.00049998 -0.07569832 0.08550095
v -0.00049998 -0.07599837 0.08850097
v 0.00049042 -0.07569831 0.08540338
v 0.00050002 -0.07599836 0.08550095
v 0.00050002 -0.07569831 0.08550095
v 0.00046992 -0.07599854 0.08533006
v 0.00046196 -0.07569831 0.08530962
v 0.00041785 -0.07599884 0.08522635
v 0.00041576 -0.07569831 0.08522319
v 0.00035358 -0.07569831 0.08514738
v 0.00035039 -0.07599920 0.08514422
v 0.00027781 -0.07569831 0.08508521
v 0.00018802 -0.07599973 0.08503764
v 0.00019137 -0.07569831 0.08503901
v 0.00009757 -0.07569831 0.08501058
v 0.00002955 -0.07599997 0.08500182
v 0.00000002 -0.07569831 0.08500093
v -0.00010557 -0.07599992 0.08501225
v -0.00009752 -0.07569832 0.08501058
v -0.00019132 -0.07569832 0.08503901
v -0.00021237 -0.07599968 0.08504831
v -0.00027776 -0.07569832 0.08508521
v -0.00036408 -0.07599909 0.08515828
v -0.00035353 -0.07569832 0.08514738
v -0.00041571 -0.07569832 0.08522319
v -0.00046467 -0.07599854 0.08531641
v -0.00046192 -0.07569832 0.08530962
v -0.00049037 -0.07569832 0.08540338
v -0.00049998 -0.07599837 0.08550095
v -0.00049998 -0.07569832 0.08550095
f 1 2 3
f 1 4 2
f 5 2 4
f 6 5 4
f 7 8 9
f 10 1 3
f 11 5 6
f 12 11 6
f 13 9 14
f 15 16 17
f 18 11 12
f 19 18 12
f 20 21 22
f 23 15 24
f 25 18 19
f 26 25 19
f 27 28 29
f 30 20 22
f 31 25 26
f 32 31 26
f 33 34 35
f 33 30 34
f 36 31 32
f 37 36 32
f 38 39 40
f 41 42 43
f 44 36 37
f 45 44 37
f 46 47 48
f 49 50 51
f 52 44 53
f 54 55 45
f 56 49 57
f 58 59 60
f 61 55 54
f 62 61 54
f 63 59 58
f 64 63 58
f 65 63 66
f 67 68 69
f 70 71 62
f 72 73 64
f 74 65 75
f 76 77 78
f 79 70 80
f 81 74 75
f 82 74 81
f 83 84 85
f 86 87 88
f 89 82 81
f 90 82 89
f 91 92 93
f 94 95 96
f 97 90 89
f 98 90 97
f 99 93 100
f 101 94 102
f 103 98 97
f 104 98 103
f 105 106 107
f 108 99 100
f 109 104 103
f 110 104 109
f 111 107 112
f 113 108 114
f 115 110 109
f 116 110 115
f 117 113 118
f 117 118 119
f 120 116 115
f 120 121 119
f 120 119 116
f 122 123 124
f 125 126 127
f 128 129 130
f 131 132 133
f 128 134 135
f 128 135 136
f 128 136 137
f 128 137 126
f 128 126 125
f 138 139 140
f 141 139 138
f 142 143 144
f 142 144 128
f 145 146 147
f 148 125 149
f 150 151 152
f 148 128 125
f 148 142 128
f 153 141 154
f 155 141 153
f 156 157 158
f 159 155 160
f 161 156 158
f 162 161 158
f 163 164 165
f 166 155 159
f 167 162 158
f 168 169 170
f 171 149 172
f 171 172 155
f 173 167 158
f 173 158 148
f 173 148 149
f 173 149 171
f 174 175 176
f 177 178 179
f 177 180 178
f 181 182 180
f 183 179 184
f 183 177 179
f 185 182 181
f 186 185 181
f 187 184 188
f 187 183 184
f 189 190 191
f 192 193 194
f 195 188 196
f 195 187 188
f 197 198 199
f 197 199 200
f 201 202 197
f 201 197 200
f 203 196 204
f 203 195 196
f 205 206 202
f 207 202 201
f 207 205 202
f 208 204 209
f 210 211 212
f 213 214 215
f 216 217 218
f 219 209 220
f 221 210 222
f 223 224 225
f 223 226 224
f 227 220 228
f 227 221 220
f 229 226 223
f 230 228 231
f 230 227 228
f 232 226 229
f 233 232 229
f 234 230 231
f 235 236 237
f 238 232 233
f 239 238 233
f 240 234 241
f 242 240 241
f 243 244 245
f 246 247 239
f 248 240 242
f 249 248 242
f 250 247 246
f 251 250 246
f 252 248 249
f 253 252 249
f 254 250 251
f 255 254 251
f 256 252 253
f 257 256 253
f 258 254 255
f 259 260 255
f 261 262 256
f 261 256 257
f 263 258 264
f 265 266 259
f 267 268 262
f 267 262 261
f 269 263 270
f 271 272 265
f 273 268 267
f 273 274 268
f 275 271 276
f 275 272 271
f 277 274 273
f 277 278 274
f 279 275 276
f 280 281 282
f 279 276 278
f 283 284 285
f 283 285 286
f 287 286 288
f 287 283 286
f 289 288 290
f 289 287 288
f 291 290 292
f 291 289 290
f 293 292 294
f 293 291 292
f 295 293 294
f 295 294 296
f 297 295 296
f 297 296 298
f 299 297 298
f 299 298 300
f 301 299 300
f 301 300 302
f 303 301 302
f 303 302 304
f 305 303 304
f 305 304 306
f 307 305 306
f 307 306 308
f 309 307 308
f 309 308 310
f 311 309 310
f 311 310 312
f 313 311 312
f 313 312 314
f 315 313 314
f 315 314 316
f 317 315 316
f 317 316 318
f 319 317 318
f 319 318 320
f 321 320 322
f 321 319 320
f 323 322 324
f 323 321 322
f 325 324 326
f 325 323 324
f 327 326 328
f 327 325 326
f 329 328 330
f 329 327 328
f 331 330 332
f 331 329 330
f 333 332 334
f 333 331 332
f 335 334 336
f 335 333 334
f 337 336 338
f 337 335 336
f 339 338 340
f 339 337 338
f 341 342 343
f 341 340 342
f 341 339 340
f 344 341 343
f 345 343 346
f 345 344 343
f 347 345 346
f 347 348 349
f 347 346 348
f 350 347 349
f 351 350 349
f 351 352 353
f 351 349 352
f 354 351 353
f 354 353 355
f 356 354 355
f 357 358 359
f 360 359 361
f 360 357 359
f 362 358 357
f 363 361 364
f 363 360 361
f 365 358 362
f 366 365 362
f 367 364 368
f 367 363 364
f 369 365 366
f 370 367 368
f 371 369 366
f 372 367 370
f 373 374 369
f 373 369 371
f 375 372 370
f 376 373 371
f 376 377 373
f 378 372 375
f 379 378 375
f 380 377 376
f 380 381 382
f 380 382 377
f 383 378 379
f 384 383 379
f 385 381 380
f 385 386 381
f 387 383 384
f 388 387 384
f 389 386 385
f 389 390 386
f 391 387 388
f 392 391 388
f 393 390 389
f 394 390 393
f 395 391 392
f 396 394 393
f 397 395 392
f 398 395 397
f 399 394 396
f 400 399 396
f 401 398 397
f 401 402 398
f 403 399 400
f 404 403 400
f 405 406 402
f 405 402 401
f 407 403 404
f 408 407 404
f 409 410 406
f 409 406 405
f 411 407 408
f 412 411 408
f 413 414 410
f 415 416 410
f 417 410 409
f 418 411 412
f 419 414 413
f 420 418 412
f 421 414 419
f 422 418 420
f 423 419 424
f 423 421 419
f 425 422 420
f 426 421 423
f 427 422 425
f 428 426 423
f 429 426 428
f 430 427 425
f 430 425 431
f 432 429 428
f 432 433 429
f 434 430 431
f 434 431 435
f 436 433 432
f 436 434 435
f 436 437 433
f 438 439 440
f 441 439 438
f 442 443 444
f 442 445 443
f 446 447 448
f 446 448 449
f 450 451 452
f 453 454 455
f 456 457 458
f 459 460 461
f 462 463 464
f 465 466 467
f 468 469 470
f 471 472 473
f 474 475 476
f 477 478 479
f 480 481 482
f 480 482 483
f 484 485 486
f 487 488 446
f 487 446 480
f 489 490 491
f 492 493 490
f 492 490 489
f 494 495 493
f 494 496 495
f 494 493 492
f 497 498 496
f 497 496 494
f 499 500 498
f 499 501 500
f 499 498 497
f 502 503 501
f 502 504 503
f 502 501 499
f 505 506 504
f 505 504 502
f 507 508 506
f 507 509 508
f 507 506 505
f 510 511 509
f 510 509 507
f 512 513 511
f 512 514 513
f 512 511 510
f 515 516 514
f 515 514 512
f 517 518 519
f 520 517 519
f 521 522 523
f 521 523 524
f 525 526 527
f 528 529 530
f 531 532 533
f 534 535 536
f 537 538 539
f 540 534 536
f 541 542 543
f 541 536 542
f 544 536 541
f 545 546 540
f 547 548 549
f 550 545 540
f 551 552 553
f 554 555 556
f 557 558 559
f 551 553 560
f 561 536 562
f 563 564 565
f 566 567 568
f 566 568 564
f 566 564 563
f 569 570 571
f 569 571 567
f 569 567 566
f 572 573 570
f 572 570 569
f 574 575 576
f 574 576 573
f 574 573 572
f 577 578 575
f 577 575 574
f 579 580 581
f 579 581 578
f 579 578 577
f 582 583 580
f 582 580 579
f 584 585 586
f 584 586 583
f 584 583 582
f 587 588 585
f 587 585 584
f 589 590 588
f 589 588 587
f 591 592 593
f 591 594 592
f 595 596 597
f 595 598 596
f 599 600 601
f 602 603 599
f 604 605 606
f 607 608 609
f 610 611 612
f 604 602 599
f 613 614 604
f 615 599 601
f 616 617 613
f 618 615 619
f 618 599 615
f 620 621 622
f 623 624 616
f 623 613 604
f 623 604 599
f 623 616 613
f 625 626 627
f 628 629 630
f 628 631 629
f 632 633 631
f 632 631 628
f 634 633 632
f 635 636 633
f 635 633 634
f 637 638 636
f 637 636 635
f 639 638 637
f 640 641 638
f 640 638 639
f 642 643 641
f 642 641 640
f 644 643 642
f 645 646 643
f 645 643 644
f 647 648 646
f 647 646 645
f 649 648 647
f 650 651 648
f 650 648 649
f 652 651 650
f 653 654 651
f 653 651 652
f 655 654 653
f 656 657 658
f 659 660 657
f 659 661 660
f 659 657 656
f 662 656 658
f 663 661 659
f 664 662 658
f 665 661 663
f 666 662 664
f 667 665 663
f 668 666 664
f 669 665 667
f 670 666 668
f 671 669 667
f 672 670 668
f 672 668 673
f 674 669 671
f 675 670 672
f 675 672 676
f 677 674 671
f 678 674 677
f 679 676 680
f 681 675 676
f 681 676 679
f 682 678 677
f 683 678 682
f 684 681 679
f 684 679 685
f 686 683 682
f 687 683 686
f 688 685 689
f 688 684 685
f 690 687 686
f 691 687 690
f 692 688 689
f 693 692 689
f 694 691 690
f 695 692 693
f 696 691 694
f 697 696 694
f 698 695 693
f 699 695 698
f 700 696 697
f 700 697 701
f 702 699 698
f 703 699 702
f 704 701 705
f 704 700 701
f 706 703 702
f 707 703 706
f 708 705 709
f 708 704 705
f 710 707 706
f 711 707 710
f 712 709 713
f 712 708 709
f 714 708 712
f 715 711 710
f 716 712 713
f 717 711 715
f 718 716 713
f 719 717 715
f 720 716 718
f 720 721 716
f 722 717 719
f 723 720 718
f 724 722 719
f 725 720 723
f 726 722 724
f 727 725 723
f 728 729 726
f 728 726 724
f 730 725 727
f 730 727 731
f 732 729 728
f 733 729 732
f 733 730 731
f 733 731 729
f 734 735 736
f 737 738 735
f 739 734 740
f 741 735 734
f 741 737 735
f 741 734 739
f 742 739 743
f 744 745 741
f 746 747 744
f 748 742 749
f 748 749 750
f 748 739 742
f 751 746 744
f 752 748 753
f 752 741 739
f 752 739 748
f 754 755 751
f 756 752 757
f 758 759 760
f 758 744 741
f 758 741 752
f 761 762 763
f 761 763 764
f 761 764 754
f 761 751 744
f 761 754 751
f 765 758 766
f 765 744 758
f 767 744 765
f 768 744 767
f 768 767 769
f 768 770 771
f 768 771 761
f 768 761 744
f 772 773 774
f 775 772 774
f 776 774 777
f 776 775 774
f 778 777 779
f 778 776 777
f 780 779 781
f 780 778 779
f 782 781 783
f 782 780 781
f 784 782 783
f 784 783 785
f 786 784 785
f 786 785 787
f 788 786 787
f 788 787 789
f 790 788 789
f 790 789 791
f 792 790 791
f 792 791 793
f 794 792 793
f 794 793 795
f 796 794 795
f 796 795 797
f 798 796 797
f 798 797 799
f 800 798 799
f 800 799 801
f 802 800 801
f 802 801 803
f 804 802 803
f 804 803 805
f 806 804 805
f 806 805 807
f 808 806 807
f 808 807 809
f 810 809 811
f 810 808 809
f 812 811 813
f 812 810 811
f 814 813 815
f 814 812 813
f 816 815 817
f 816 814 815
f 818 817 819
f 818 816 817
f 820 819 821
f 820 818 819
f 822 821 823
f 822 820 821
f 824 823 825
f 824 822 823
f 826 825 827
f 826 824 825
f 828 829 830
f 828 827 829
f 828 826 827
f 831 828 830
f 832 830 833
f 832 831 830
f 834 833 835
f 834 832 833
f 836 834 835
f 836 835 837
f 838 836 837
f 838 837 839
f 840 838 839
f 840 839 841
f 842 840 841
f 842 841 843
f 844 842 843
f 844 843 845
f 846 847 848
f 849 848 850
f 849 846 848
f 851 847 846
f 852 850 853
f 852 849 850
f 854 847 851
f 855 854 851
f 856 853 857
f 856 852 853
f 858 854 855
f 859 858 855
f 860 857 861
f 860 856 857
f 862 858 859
f 862 863 858
f 864 865 862
f 864 862 859
f 866 860 861
f 866 861 867
f 868 869 865
f 870 865 864
f 870 868 865
f 871 866 867
f 871 867 872
f 873 874 868
f 873 868 870
f 875 871 872
f 875 872 876
f 877 878 874
f 877 874 873
f 879 876 880
f 879 875 876
f 881 882 878
f 881 878 877
f 883 879 880
f 883 880 884
f 885 882 881
f 886 883 884
f 887 882 885
f 888 886 884
f 889 887 885
f 890 886 888
f 891 887 889
f 892 890 888
f 893 891 889
f 894 890 892
f 895 891 893
f 896 894 892
f 897 895 893
f 898 894 896
f 899 895 897
f 900 898 896
f 901 899 897
f 902 898 900
f 903 899 901
f 904 902 900
f 905 902 904
f 906 901 907
f 906 903 901
f 908 905 904
f 909 905 908
f 910 907 911
f 910 906 907
f 912 909 908
f 913 909 912
f 914 910 911
f 914 911 915
f 916 913 912
f 916 917 913
f 918 914 915
f 918 915 919
f 920 917 916
f 920 918 919
f 920 919 917
f 921 922 923
f 921 924 922
f 925 926 927
f 928 929 930
f 931 932 933
f 934 935 936
f 934 936 937
f 938 939 940
f 931 941 942
f 943 944 945
f 946 947 948
f 934 949 950
f 951 952 953
f 934 925 954
f 955 956 957
f 934 958 959
f 960 961 962
f 963 964 965
f 963 965 934
f 966 967 968
f 966 969 967
f 970 971 968
f 972 973 971
f 972 974 973
f 972 971 970
f 975 976 974
f 975 977 976
f 975 974 972
f 978 979 977
f 978 977 975
f 980 981 979
f 980 982 981
f 980 979 978
f 983 984 982
f 983 982 980
f 985 986 984
f 985 987 986
f 985 984 983
f 988 989 987
f 988 987 985
f 990 991 989
f 990 992 991
f 990 989 988
f 993 994 992
f 993 992 990
f 995 921 994
f 995 994 993
f 996 997 998
f 996 999 997
f 1000 1001 1002
f 1003 1004 1005
f 1006 1007 1008
f 1009 1010 1011
f 1012 1013 1014
f 1015 1000 1002
f 1016 1017 1009
f 1016 1018 1017
f 1019 1016 1009
f 1020 1021 1022
f 1023 1024 1025
f 1026 1027 1028
f 1029 1030 1031
f 1032 1033 1034
f 1035 1036 1037
f 1038 1039 1040
f 1029 1015 1020
f 1041 1042 1043
f 1041 1044 1042
f 1045 1046 1047
f 1048 1049 1050
f 1048 1050 1046
f 1048 1046 1045
f 1051 1052 1053
f 1051 1053 1049
f 1051 1049 1048
f 1054 1055 1052
f 1054 1052 1051
f 1056 1057 1058
f 1056 1058 1055
f 1056 1055 1054
f 1059 1060 1057
f 1059 1057 1056
f 1061 1062 1063
f 1061 1063 1060
f 1061 1060 1059
f 1064 1065 1062
f 1064 1062 1061
f 1066 1067 1068
f 1066 1068 1065
f 1066 1065 1064
f 1069 1070 1067
f 1069 1067 1066
f 1071 1072 1070
f 1071 1070 1069
f 1073 1074 1075
f 1076 1074 1073
f 1077 1078 1079
f 1080 1081 1082
f 1083 1084 1085
f 1086 1087 1088
f 1089 1090 1091
f 1092 1093 1077
f 1094 1077 1079
f 1095 1096 1097
f 1098 1099 1100
f 1098 1100 1101
f 1102 1103 1104
f 1102 1105 1098
f 1106 1107 1108
f 1102 1092 1077
f 1102 1077 1094
f 1109 1110 1111
f 1112 1113 1114
f 1115 1116 1117
f 1118 1116 1115
f 1119 1120 1121
f 1119 1122 1120
f 1123 1124 1122
f 1123 1122 1119
f 1125 1124 1123
f 1126 1127 1124
f 1126 1124 1125
f 1128 1129 1127
f 1128 1127 1126
f 1130 1129 1128
f 1131 1132 1129
f 1131 1129 1130
f 1133 1134 1132
f 1133 1132 1131
f 1135 1134 1133
f 1136 1137 1134
f 1136 1134 1135
f 1138 1139 1137
f 1138 1137 1136
f 1140 1139 1138
f 1141 1142 1139
f 1141 1139 1140
f 1143 1142 1141
f 1144 1145 1142
f 1144 1142 1143
f 1146 1145 1144

