# https://github.com/mikedh/trimesh
v 0.02837097 0.16434211 0.81532192
v 0.02542495 0.15463009 0.82503390
v 0.02881795 0.15713310 0.82253098
v 0.03196597 0.15993910 0.81972492
v 0.02792400 0.16500810 0.81465590
v 0.02132099 0.15218499 0.82747900
v 0.04227095 0.17518499 0.80447900
v 0.03860598 0.16988400 0.80978000
v 0.03931695 0.16928411 0.81037998
v 0.03775995 0.17038910 0.80927491
v 0.03680598 0.17078599 0.80887800
v 0.03576999 0.17106310 0.80860090
v 0.02763295 0.16571499 0.81394899
v 0.01246398 0.14864109 0.83102298
v 0.01698499 0.15018210 0.82948202
v 0.03468298 0.17121109 0.80845302
v 0.02750599 0.16644600 0.81321800
v 0.00306499 0.14701310 0.83265090
v 0.00780696 0.14758110 0.83208299
v 0.03357595 0.17122699 0.80843699
v -0.00171000 0.14694209 0.83272201
v 0.04367297 0.17906611 0.80059791
v 0.03248095 0.17110901 0.80855501
v 0.04448199 0.18335000 0.79631400
v 0.03142994 0.17086209 0.80880201
v 0.03045397 0.17049210 0.80917192
v 0.02958095 0.17001110 0.80965292
v 0.04472094 0.18305799 0.79660600
v 0.04472398 0.18316109 0.79650301
v 0.04468995 0.18324700 0.79641700
v 0.04460197 0.18332399 0.79633999
v -0.02837097 0.16434211 0.81532192
v -0.03196597 0.15993910 0.81972492
v -0.02749300 0.15609810 0.82356602
v -0.02256298 0.15286399 0.82679999
v -0.02790296 0.16504709 0.81461692
v -0.02761000 0.16579710 0.81386697
v -0.01725900 0.15029199 0.82937193
v -0.01166796 0.14842311 0.83124101
v -0.02750098 0.16657200 0.81309199
v -0.00646698 0.14736900 0.83229500
v 0.02754497 0.16718200 0.81248200
v -0.02757799 0.16734910 0.81231499
v 0.02775096 0.16790409 0.81176001
v -0.02783900 0.16810510 0.81155902
v -0.02827697 0.16881910 0.81084490
v -0.02887898 0.16947100 0.81019300
v -0.02962797 0.17004099 0.80962300
v -0.04126298 0.17292300 0.80674100
v -0.03579396 0.17105810 0.80860591
v -0.03471398 0.17120899 0.80845499
v -0.03682297 0.17078011 0.80888301
v -0.03777098 0.17038409 0.80927992
v -0.03860998 0.16988111 0.80978298
v -0.03931695 0.16928411 0.81037998
v -0.04287397 0.17672209 0.80294192
v -0.03361397 0.17122810 0.80843592
v -0.03252398 0.17111710 0.80854690
v -0.04448199 0.18335000 0.79631400
v -0.04472297 0.18316109 0.79650301
v -0.04472094 0.18305799 0.79660600
v -0.03050196 0.17051411 0.80914998
v -0.03147697 0.17087600 0.80878800
v -0.04468995 0.18324700 0.79641700
v -0.04460197 0.18332399 0.79633999
v -0.04551899 0.18335000 0.78994989
v -0.04562699 0.18332911 0.78997099
v -0.04571795 0.18326899 0.79003102
v -0.04564398 0.18326899 0.79076397
v -0.04568397 0.18322210 0.79076791
v -0.04556196 0.18332399 0.79075491
v -0.04527294 0.18335000 0.79208702
v -0.04561400 0.18322210 0.79137599
v -0.04565197 0.18314710 0.79137993
v -0.04563999 0.18310399 0.79156291
v -0.04557394 0.18326899 0.79137099
v -0.04562896 0.18310399 0.79165590
v -0.04563295 0.18305799 0.79165590
v -0.04549199 0.18332399 0.79136097
v -0.04561698 0.18314800 0.79165399
v -0.04557996 0.18322210 0.79164988
v -0.04553997 0.18326899 0.79164398
v -0.04545700 0.18332399 0.79163402
v -0.04547697 0.18326899 0.79211497
v -0.04538899 0.18305799 0.79331702
v -0.04539495 0.18332399 0.79210401
v -0.04538500 0.18310399 0.79331601
v -0.04537296 0.18314800 0.79331398
v -0.04533594 0.18322210 0.79330790
v -0.04529595 0.18326899 0.79330188
v -0.04521399 0.18332399 0.79328799
v -0.04492700 0.18335000 0.79421002
v -0.04512900 0.18326899 0.79424691
v -0.04508495 0.18305799 0.79496801
v -0.04504799 0.18332399 0.79423201
v -0.04507994 0.18310399 0.79496688
v -0.04506897 0.18314800 0.79496402
v -0.04503196 0.18322210 0.79495692
v -0.04499197 0.18326899 0.79494888
v -0.04491096 0.18332399 0.79493201
v -0.04460197 0.18332399 0.79633999
v -0.04448199 0.18335000 0.79631400
v -0.04475897 0.18314800 0.79637700
v -0.04472297 0.18316109 0.79650301
v -0.04468995 0.18324700 0.79641700
v -0.04472094 0.18305799 0.79660600
v -0.04472196 0.18322210 0.79636902
v -0.04468196 0.18326899 0.79635900
v 0.04492700 0.18335000 0.79421002
v 0.04527294 0.18335000 0.79208702
v 0.04551899 0.18335000 0.78994989
v 0.04448199 0.18335000 0.79631400
v -0.04551899 0.18335000 0.78994989
v -0.04527294 0.18335000 0.79208702
v -0.04492700 0.18335000 0.79421002
v -0.04448199 0.18335000 0.79631400
v 0.02837097 0.16116010 0.81213999
v 0.03196597 0.15993910 0.81972492
v 0.03196597 0.15675710 0.81654298
v 0.02837097 0.16434211 0.81532192
v 0.03635197 0.16489510 0.81476891
v 0.03931695 0.16928411 0.81037998
v 0.03931695 0.16610210 0.80719793
v 0.03635197 0.16171309 0.81158698
v 0.03424894 0.16233709 0.81732690
v 0.03424894 0.15915510 0.81414503
v 0.03196597 0.15993910 0.81972492
v 0.03196597 0.15675710 0.81654298
v 0.03045397 0.16731010 0.80598998
v 0.02958095 0.17001110 0.80965292
v 0.02958095 0.16682909 0.80647099
v 0.03045397 0.17049210 0.80917192
v 0.03142994 0.16768000 0.80562001
v 0.03142994 0.17086209 0.80880201
v 0.03248095 0.16792700 0.80537301
v 0.03248095 0.17110901 0.80855501
v 0.03357595 0.16804510 0.80525488
v 0.03357595 0.17122699 0.80843699
v 0.03468298 0.16802910 0.80527091
v 0.03468298 0.17121109 0.80845302
v 0.03576999 0.16788110 0.80541903
v 0.03576999 0.17106310 0.80860090
v 0.03680598 0.16760400 0.80569601
v 0.03680598 0.17078599 0.80887800
v 0.03775995 0.16720711 0.80609298
v 0.03775995 0.17038910 0.80927491
v 0.03860598 0.16670200 0.80659801
v 0.03860598 0.16988400 0.80978000
v 0.03931695 0.16610210 0.80719793
v 0.03931695 0.16928411 0.81037998
v 0.02775096 0.16472200 0.80857790
v 0.02958095 0.16682909 0.80647099
v 0.02958095 0.17001110 0.80965292
v 0.02775096 0.16790409 0.81176001
v 0.02792400 0.16182610 0.81147403
v 0.02837097 0.16434211 0.81532192
v 0.02837097 0.16116010 0.81213999
v 0.02792400 0.16500810 0.81465590
v 0.02763295 0.16253310 0.81076688
v 0.02763295 0.16571499 0.81394899
v 0.02750599 0.16326401 0.81003600
v 0.02750599 0.16644600 0.81321800
v 0.02754497 0.16400000 0.80930001
v 0.02754497 0.16718200 0.81248200
v 0.02775096 0.16472200 0.80857790
v 0.02775096 0.16790409 0.81176001
v 0.03860598 0.16670200 0.80659801
v 0.03635197 0.16171309 0.81158698
v 0.03931695 0.16610210 0.80719793
v 0.03775995 0.16720711 0.80609298
v 0.02837097 0.16116010 0.81213999
v 0.03424894 0.15915510 0.81414503
v 0.03196597 0.15675710 0.81654298
v 0.03680598 0.16760400 0.80569601
v 0.02792400 0.16182610 0.81147403
v 0.03576999 0.16788110 0.80541903
v 0.02763295 0.16253310 0.81076688
v 0.03468298 0.16802910 0.80527091
v 0.02750599 0.16326401 0.81003600
v 0.03357595 0.16804510 0.80525488
v 0.02754497 0.16400000 0.80930001
v 0.03248095 0.16792700 0.80537301
v 0.02775096 0.16472200 0.80857790
v 0.03142994 0.16768000 0.80562001
v 0.03045397 0.16731010 0.80598998
v 0.02958095 0.16682909 0.80647099
v -0.03553295 0.16067210 0.81262791
v -0.03196597 0.15675710 0.81654298
v -0.02837097 0.16116010 0.81213999
v -0.02761000 0.16261511 0.81068492
v -0.02750098 0.16339010 0.80990988
v -0.02790296 0.16186510 0.81143498
v -0.03752398 0.16331799 0.80998200
v -0.02962797 0.16685900 0.80644101
v -0.03050196 0.16733210 0.80596793
v -0.02887898 0.16628900 0.80701101
v -0.02827697 0.16563711 0.80766302
v -0.02783900 0.16492310 0.80837691
v -0.02757799 0.16416711 0.80913287
v -0.03147697 0.16769400 0.80560601
v -0.03252398 0.16793510 0.80536503
v -0.03361397 0.16804610 0.80525398
v -0.03471398 0.16802710 0.80527288
v -0.03579396 0.16787609 0.80542397
v -0.03682297 0.16759899 0.80570197
v -0.03777098 0.16720210 0.80609798
v -0.03860998 0.16669910 0.80660093
v -0.03931695 0.16610210 0.80719793
v -0.03931695 0.16610210 0.80719793
v -0.03860998 0.16988111 0.80978298
v -0.03931695 0.16928411 0.81037998
v -0.03860998 0.16669910 0.80660093
v -0.03777098 0.17038409 0.80927992
v -0.03777098 0.16720210 0.80609798
v -0.03682297 0.17078011 0.80888301
v -0.03682297 0.16759899 0.80570197
v -0.03579396 0.17105810 0.80860591
v -0.03579396 0.16787609 0.80542397
v -0.03471398 0.16802710 0.80527288
v -0.03471398 0.17120899 0.80845499
v -0.03361397 0.16804610 0.80525398
v -0.03361397 0.17122810 0.80843592
v -0.03252398 0.16793510 0.80536503
v -0.03252398 0.17111710 0.80854690
v -0.03147697 0.16769400 0.80560601
v -0.03147697 0.17087600 0.80878800
v -0.03050196 0.16733210 0.80596793
v -0.03050196 0.17051411 0.80914998
v -0.02962797 0.16685900 0.80644101
v -0.02962797 0.17004099 0.80962300
v -0.02887898 0.16628900 0.80701101
v -0.02887898 0.16947100 0.81019300
v -0.02827697 0.16563711 0.80766302
v -0.02827697 0.16881910 0.81084490
v -0.02783900 0.16492310 0.80837691
v -0.02783900 0.16810510 0.81155902
v -0.02757799 0.16416711 0.80913287
v -0.02757799 0.16734910 0.81231499
v -0.02750098 0.16339010 0.80990988
v -0.02750098 0.16657200 0.81309199
v -0.02761000 0.16261511 0.81068492
v -0.02761000 0.16579710 0.81386697
v -0.02790296 0.16186510 0.81143498
v -0.02790296 0.16504709 0.81461692
v -0.02837097 0.16116010 0.81213999
v -0.02837097 0.16434211 0.81532192
v -0.03196597 0.15675710 0.81654298
v -0.02837097 0.16434211 0.81532192
v -0.02837097 0.16116010 0.81213999
v -0.03196597 0.15993910 0.81972492
v -0.03553295 0.16385411 0.81581002
v -0.03196597 0.15993910 0.81972492
v -0.03196597 0.15675710 0.81654298
v -0.03553295 0.16067210 0.81262791
v -0.03752398 0.16650000 0.81316400
v -0.03752398 0.16331799 0.80998200
v -0.03931695 0.16928411 0.81037998
v -0.03931695 0.16610210 0.80719793
v 0.02735096 0.15016910 0.82313102
v 0.02549099 0.14561900 0.82768101
v 0.03139495 0.14985010 0.82345003
v 0.02299195 0.14730009 0.82599998
v 0.03135597 0.15351510 0.81978500
v 0.03717797 0.15555310 0.81774801
v 0.01833599 0.14494500 0.82835501
v 0.01980894 0.14264300 0.83065701
v 0.03495496 0.15729401 0.81600600
v 0.04068100 0.16015410 0.81314600
v 0.01344197 0.14313410 0.83016598
v 0.01436495 0.14060710 0.83269298
v 0.03810197 0.16145711 0.81184292
v 0.00837397 0.14189111 0.83140898
v 0.00936299 0.13935199 0.83394790
v 0.00483698 0.13868611 0.83461392
v 0.04152494 0.16751310 0.80578703
v 0.04543197 0.16910300 0.80419701
v 0.00319898 0.14123210 0.83206803
v 0.00242698 0.13850610 0.83479393
v 0.00000000 0.13844509 0.83485502
v -0.00201899 0.14116409 0.83213592
v -0.00601596 0.13881800 0.83448201
v 0.04423195 0.17485300 0.79844689
v 0.04788398 0.17706600 0.79623401
v -0.00720996 0.14169011 0.83161002
v 0.04517096 0.17902610 0.79427397
v -0.01186096 0.13990900 0.83339101
v 0.04571795 0.18326899 0.79003102
v -0.01230800 0.14280210 0.83049798
v 0.04899597 0.18750010 0.78579998
v 0.04562699 0.18332911 0.78997099
v 0.04551899 0.18335000 0.78994989
v -0.01739996 0.14165100 0.83164901
v 0.04881197 0.19179399 0.78150600
v -0.01778298 0.14470799 0.82859200
v -0.02252000 0.14394400 0.82935601
v 0.04824697 0.19605510 0.77724493
v -0.02352899 0.14761600 0.82568401
v -0.02718198 0.14669810 0.82660198
v 0.04618197 0.20387810 0.76942188
v -0.02936500 0.15175501 0.82154500
v -0.03099697 0.14951999 0.82378000
v -0.03507596 0.15325610 0.82004392
v -0.03500699 0.15735410 0.81594598
v -0.03907299 0.15790001 0.81540000
v -0.04003596 0.16461110 0.80868900
v -0.04250597 0.16308799 0.81021190
v -0.04530298 0.16878811 0.80451190
v -0.04387897 0.17363510 0.79966497
v -0.04773598 0.17641500 0.79688489
v -0.04551899 0.18335000 0.78994989
v -0.04888600 0.18391010 0.78939003
v -0.04571795 0.18326899 0.79003102
v -0.04562699 0.18332911 0.78997099
v -0.04899895 0.18750010 0.78579998
v -0.04794996 0.19758900 0.77571088
v -0.00362998 0.23636509 0.73693490
v 0.00714195 0.23597710 0.73732293
v 0.00176698 0.23646811 0.73683190
v -0.04484599 0.20724510 0.76605499
v 0.04285699 0.21125410 0.76204598
v -0.00898194 0.23567000 0.73763001
v 0.01242995 0.23489711 0.73840302
v -0.03981900 0.21605609 0.75724399
v 0.03891700 0.21727310 0.75602698
v 0.03540694 0.22137310 0.75192690
v -0.01479899 0.23421210 0.73908788
v 0.01756799 0.23324201 0.74005800
v -0.02099800 0.23177309 0.74152702
v 0.02249300 0.23103300 0.74226701
v -0.03382897 0.22294900 0.75035101
v 0.03146594 0.22506210 0.74823803
v -0.02742600 0.22810610 0.74519402
v 0.02714395 0.22829500 0.74500501
v 0.04874897 0.13196710 0.77693999
v 0.04951196 0.13250010 0.78380001
v 0.04947096 0.12780011 0.78380001
v 0.04843097 0.12780011 0.77551091
v 0.04715698 0.13155100 0.77060801
v 0.04601198 0.12780011 0.76751590
v 0.04472696 0.13116710 0.76449692
v 0.04435598 0.13112099 0.76373601
v 0.04228299 0.12780011 0.76004100
v 0.04397195 0.13107499 0.76298201
v 0.04357498 0.13103101 0.76223493
v 0.04059797 0.13075200 0.75741899
v 0.03734999 0.12780011 0.75329900
v 0.03713297 0.13051210 0.75301701
v 0.03268396 0.13028710 0.74858087
v 0.03135496 0.12780011 0.74748200
v 0.02766799 0.13010910 0.74471891
v 0.02446597 0.12780011 0.74275601
v 0.02213698 0.12997600 0.74149299
v 0.01688200 0.12780011 0.73925591
v 0.01676696 0.12989710 0.73919499
v 0.01133996 0.12985609 0.73758793
v 0.00881594 0.12780011 0.73707998
v 0.00458699 0.12983510 0.73648500
v 0.00050000 0.12780011 0.73629087
v 0.00050000 0.12846710 0.73628497
v 0.00050000 0.12913311 0.73628002
v 0.00050000 0.12980001 0.73627400
v -0.00323600 0.12983310 0.73637700
v -0.00050000 0.12980001 0.73627400
v -0.00050000 0.12913311 0.73628002
v -0.00050000 0.12846710 0.73628497
v -0.00050000 0.12780011 0.73629087
v -0.00881594 0.12780011 0.73707998
v -0.01091897 0.12985399 0.73749202
v -0.01688200 0.12780011 0.73925591
v -0.01754099 0.12990510 0.73947990
v -0.02446597 0.12780011 0.74275601
v -0.02440500 0.13002411 0.74270201
v -0.03091299 0.13021711 0.74710000
v -0.03135496 0.12780011 0.74748200
v -0.03658795 0.13048010 0.75240898
v -0.03734999 0.12780011 0.75329900
v -0.03874897 0.13061510 0.75494403
v -0.04074698 0.13076410 0.75763297
v -0.04228299 0.12780011 0.76004100
v -0.04357498 0.13103101 0.76223493
v -0.04397195 0.13107499 0.76298201
v -0.04435598 0.13112099 0.76373702
v -0.04601198 0.12780011 0.76751590
v -0.04472696 0.13116710 0.76449692
v -0.04716199 0.13155210 0.77062303
v -0.04843097 0.12780011 0.77551091
v -0.04874998 0.13196801 0.77694499
v -0.04947096 0.12780011 0.78380001
v -0.04951196 0.13250010 0.78380001
v -0.00016700 0.12980001 0.73627090
v 0.00016700 0.12980001 0.73627090
v -0.04743999 0.13335600 0.77066988
v -0.04716199 0.13155210 0.77062303
v -0.04874998 0.13196801 0.77694499
v -0.04886698 0.13295200 0.77717090
v -0.04521298 0.13367900 0.76438802
v -0.04435598 0.13112099 0.76373702
v -0.04472696 0.13116710 0.76449692
v -0.04410296 0.13378911 0.76196790
v -0.04397195 0.13107499 0.76298201
v -0.04357498 0.13103101 0.76223493
v -0.04234397 0.13392310 0.75869101
v -0.04074698 0.13076410 0.75763297
v -0.04034894 0.13403910 0.75555098
v -0.03874897 0.13061510 0.75494403
v -0.03668498 0.13418910 0.75086200
v -0.03658795 0.13048010 0.75240898
v -0.03166097 0.13431200 0.74594301
v -0.03091299 0.13021711 0.74710000
v -0.03426295 0.13425709 0.74831301
v -0.02715796 0.13437900 0.74256098
v -0.02440500 0.13002411 0.74270201
v -0.02128297 0.13443211 0.73922688
v 0.02715796 0.13437900 0.74256098
v 0.02766799 0.13010910 0.74471891
v 0.02213698 0.12997600 0.74149299
v 0.02128297 0.13443211 0.73922801
v 0.03099596 0.13432410 0.74539101
v 0.03268396 0.13028710 0.74858087
v 0.03453898 0.13424900 0.74858701
v 0.04059797 0.13075200 0.75741899
v 0.03713297 0.13051210 0.75301701
v 0.03962194 0.13407210 0.75452590
v 0.04410296 0.13378809 0.76196790
v 0.04397195 0.13107499 0.76298201
v 0.04357498 0.13103101 0.76223493
v 0.04435598 0.13112099 0.76373601
v 0.04521298 0.13367900 0.76438701
v 0.04472696 0.13116710 0.76449692
v 0.04715698 0.13155100 0.77060801
v 0.04744094 0.13335709 0.77067292
v 0.04874897 0.13196710 0.77693999
v 0.04887294 0.13298009 0.77717900
v -0.04948395 0.13246609 0.78320688
v -0.04951196 0.13250010 0.78380001
v -0.04948496 0.13249899 0.78320599
v -0.04951196 0.13250010 0.78380001
v -0.04951196 0.13250010 0.78380001
v -0.04948496 0.13249899 0.78320599
v -0.04948598 0.13253000 0.78320402
v -0.04951196 0.13250010 0.78380001
v -0.04525899 0.13244709 0.76536191
v -0.04537498 0.13305309 0.76527601
v -0.03448599 0.13237700 0.74980497
v -0.03472900 0.13334510 0.74950790
v -0.01851898 0.13105211 0.73974901
v -0.01754099 0.12990510 0.73947990
v -0.01863396 0.13232011 0.73942590
v -0.01882499 0.13344710 0.73891592
v -0.01500695 0.13446110 0.73675001
v 0.00000000 0.13100110 0.73615992
v -0.00050000 0.13230211 0.73579991
v -0.00016700 0.13229600 0.73579991
v 0.00016700 0.13229600 0.73579991
v 0.00050000 0.13230211 0.73579991
v 0.00458699 0.12983510 0.73648500
v -0.00323600 0.12983310 0.73637700
v 0.01851898 0.13105211 0.73974991
v 0.01676696 0.12989710 0.73919499
v 0.01863396 0.13232011 0.73942590
v 0.01882594 0.13344710 0.73891699
v 0.01500499 0.13445310 0.73675603
v 0.03448498 0.13237700 0.74980390
v 0.03472900 0.13334510 0.74950790
v 0.04924595 0.13249110 0.78023791
v 0.04951196 0.13250010 0.78380001
v 0.04924595 0.13249110 0.78023791
v 0.04951196 0.13250010 0.78380001
v 0.04951196 0.13250010 0.78380001
v 0.04951196 0.13250010 0.78380001
v -0.01616895 0.13233010 0.73849601
v -0.01283597 0.13232709 0.73747700
v -0.00844896 0.13447110 0.73516601
v -0.01091897 0.12985399 0.73749202
v -0.00962800 0.13232510 0.73673201
v -0.00575799 0.13232210 0.73612601
v -0.00050000 0.13447510 0.73445690
v -0.00187695 0.13232110 0.73582590
v -0.00050000 0.13380501 0.73499298
v -0.00050000 0.13307510 0.73544401
v 0.00256097 0.13232110 0.73585588
v 0.00050000 0.13307510 0.73544401
v 0.00050000 0.13380501 0.73499298
v 0.00050000 0.13447510 0.73445690
v 0.00844896 0.13447110 0.73516601
v 0.00643599 0.13232210 0.73620892
v 0.01133996 0.12985609 0.73758793
v 0.00984097 0.13232510 0.73677492
v 0.01304596 0.13232300 0.73753500
v 0.01577496 0.13232510 0.73836291
v -0.04903894 0.18335000 0.73479891
v -0.04886698 0.13295200 0.77717090
v -0.04951196 0.13250010 0.78380001
v -0.04892599 0.18129399 0.73379987
v -0.04902899 0.18438700 0.73379987
v -0.04862898 0.17821810 0.73379987
v -0.04772895 0.17325211 0.73379987
v -0.04743999 0.13335600 0.77066988
v -0.04632395 0.16840009 0.73379987
v -0.04521298 0.13367900 0.76438802
v -0.04442495 0.16371010 0.73379987
v -0.04410296 0.13378911 0.76196790
v -0.04205697 0.15924710 0.73379987
v -0.04034894 0.13403910 0.75555098
v -0.04234397 0.13392310 0.75869101
v -0.03924697 0.15505400 0.73379987
v -0.03668498 0.13418910 0.75086200
v -0.03601998 0.15116410 0.73379987
v -0.03426295 0.13425709 0.74831301
v -0.03240495 0.14762001 0.73379987
v -0.03166097 0.13431200 0.74594301
v -0.02845597 0.14446810 0.73379987
v -0.02715796 0.13437900 0.74256098
v -0.02420699 0.14173511 0.73379987
v -0.02128297 0.13443211 0.73922688
v -0.01912498 0.13919210 0.73379987
v -0.01500695 0.13446110 0.73675001
v -0.01311194 0.13704810 0.73379987
v -0.00844896 0.13447110 0.73516601
v -0.00686997 0.13570210 0.73379987
v -0.00050000 0.13447510 0.73445690
v -0.00050000 0.13519600 0.73380202
v -0.00050000 0.13519910 0.73379987
v -0.04899996 0.18750010 0.73379987
v -0.04899895 0.18750010 0.78579998
v -0.04794996 0.19758900 0.77571088
v -0.04826498 0.19595399 0.73379987
v -0.04608297 0.20415500 0.73379987
v -0.04484599 0.20724510 0.76605499
v -0.04251796 0.21185610 0.73379987
v -0.03981900 0.21605609 0.75724399
v -0.03767895 0.21882610 0.73379987
v -0.03382897 0.22294900 0.75035101
v -0.03170895 0.22485700 0.73379987
v -0.02742600 0.22810610 0.74519402
v -0.02478796 0.22976799 0.73379987
v -0.02099800 0.23177309 0.74152702
v -0.01712399 0.23341110 0.73379987
v -0.01479899 0.23421210 0.73908788
v -0.00894594 0.23567609 0.73379987
v -0.00898194 0.23567000 0.73763001
v -0.00362998 0.23636509 0.73693490
v -0.00050000 0.23649710 0.73379987
v -0.00050000 0.23649710 0.73579991
v 0.00176698 0.23646811 0.73683190
v 0.00050000 0.23649710 0.73379987
v 0.00050000 0.23649710 0.73579991
v 0.00016700 0.23649999 0.73579991
v -0.00016700 0.23649999 0.73579991
v 0.00714195 0.23597710 0.73732293
v 0.00894594 0.23567609 0.73379987
v 0.01242995 0.23489711 0.73840302
v 0.01712399 0.23341110 0.73379987
v 0.01756799 0.23324201 0.74005800
v 0.02249300 0.23103300 0.74226701
v 0.02478796 0.22976799 0.73379987
v 0.02714395 0.22829500 0.74500501
v 0.03170895 0.22485700 0.73379987
v 0.03146594 0.22506210 0.74823803
v 0.03540694 0.22137310 0.75192690
v 0.03767895 0.21882610 0.73379987
v 0.03891700 0.21727310 0.75602698
v 0.04251796 0.21185610 0.73379987
v 0.04285699 0.21125410 0.76204598
v 0.04608297 0.20415500 0.73379987
v 0.04618197 0.20387810 0.76942188
v 0.04826498 0.19595399 0.73379987
v 0.04824697 0.19605510 0.77724493
v 0.04899996 0.18750010 0.73379987
v 0.04881197 0.19179399 0.78150600
v 0.04899597 0.18750010 0.78579998
v -0.03332298 0.15953910 0.73379987
v -0.03601998 0.15116410 0.73379987
v -0.03924697 0.15505400 0.73379987
v -0.04205697 0.15924710 0.73379987
v -0.02796095 0.15417710 0.73379987
v -0.02845597 0.14446810 0.73379987
v -0.03240495 0.14762001 0.73379987
v -0.03767198 0.16575000 0.73379987
v -0.04442495 0.16371010 0.73379987
v -0.04632395 0.16840009 0.73379987
v -0.02174997 0.14982811 0.73379987
v -0.02420699 0.14173511 0.73379987
v -0.04087698 0.17262200 0.73379987
v -0.04772895 0.17325211 0.73379987
v -0.01487797 0.14662310 0.73379987
v -0.01311194 0.13704810 0.73379987
v -0.01912498 0.13919210 0.73379987
v -0.00049000 0.13529611 0.73379987
v -0.00050000 0.13519910 0.73379987
v -0.00686997 0.13570210 0.73379987
v -0.00046100 0.13538900 0.73379987
v -0.00041500 0.13547499 0.73379987
v -0.00035300 0.13555001 0.73379987
v -0.00027700 0.13561210 0.73379987
v -0.04283899 0.17994609 0.73379987
v -0.04862898 0.17821810 0.73379987
v -0.04892599 0.18129399 0.73379987
v -0.04902899 0.18438700 0.73379987
v -0.00755399 0.14466110 0.73379987
v 0.00572896 0.13554710 0.73379987
v 0.00050000 0.13519910 0.73379987
v 0.00049000 0.13529611 0.73379987
v 0.00046100 0.13538900 0.73379987
v 0.00041500 0.13547499 0.73379987
v 0.00035300 0.13555001 0.73379987
v 0.00027700 0.13561210 0.73379987
v -0.04349994 0.18750010 0.73379987
v -0.04899996 0.18750010 0.73379987
v 0.00000000 0.14400010 0.73379987
v 0.00019100 0.13565800 0.73379987
v 0.00009700 0.13568600 0.73379987
v 0.00000000 0.13569610 0.73379987
v -0.00009700 0.13568600 0.73379987
v -0.00019100 0.13565800 0.73379987
v -0.04826498 0.19595399 0.73379987
v -0.04283899 0.19505410 0.73379987
v 0.00755399 0.14466110 0.73379987
v 0.01088398 0.13646810 0.73379987
v 0.01625698 0.13806000 0.73379987
v -0.04608297 0.20415500 0.73379987
v -0.04087698 0.20237800 0.73379987
v 0.01487797 0.14662310 0.73379987
v 0.02171200 0.14039610 0.73379987
v -0.04251796 0.21185610 0.73379987
v -0.03767198 0.20925000 0.73379987
v 0.02174997 0.14982811 0.73379987
v 0.02713197 0.14354999 0.73379987
v 0.03210794 0.14735910 0.73379987
v -0.03767895 0.21882610 0.73379987
v -0.03332298 0.21546111 0.73379987
v 0.02796095 0.15417710 0.73379987
v 0.03657096 0.15177301 0.73379987
v 0.03332298 0.15953910 0.73379987
v -0.03170895 0.22485700 0.73379987
v -0.02796095 0.22082309 0.73379987
v 0.04043096 0.15670811 0.73379987
v 0.03767198 0.16575000 0.73379987
v -0.02478796 0.22976799 0.73379987
v -0.02174997 0.22517210 0.73379987
v 0.04363197 0.16208909 0.73379987
v 0.04618197 0.16799609 0.73379987
v 0.04087698 0.17262200 0.73379987
v -0.01712399 0.23341110 0.73379987
v -0.01487797 0.22837710 0.73379987
v 0.04830396 0.17606710 0.73379987
v 0.04283899 0.17994609 0.73379987
v -0.00894594 0.23567609 0.73379987
v -0.00755399 0.23033909 0.73379987
v 0.04902899 0.18438700 0.73379987
v 0.04349994 0.18750010 0.73379987
v -0.00041500 0.23622110 0.73379987
v -0.00035300 0.23614600 0.73379987
v 0.00000000 0.23100010 0.73379987
v -0.00027700 0.23608410 0.73379987
v -0.00046100 0.23630700 0.73379987
v -0.00019100 0.23603800 0.73379987
v -0.00049000 0.23640010 0.73379987
v -0.00009700 0.23601010 0.73379987
v -0.00050000 0.23649710 0.73379987
v 0.00000000 0.23600011 0.73379987
v 0.00009700 0.23601010 0.73379987
v 0.00019100 0.23603800 0.73379987
v 0.00027700 0.23608410 0.73379987
v 0.00035300 0.23614600 0.73379987
v 0.04899996 0.18750010 0.73379987
v 0.00041500 0.23622110 0.73379987
v 0.00755399 0.23033909 0.73379987
v 0.04826498 0.19595399 0.73379987
v 0.04283899 0.19505410 0.73379987
v 0.00894594 0.23567609 0.73379987
v 0.00046100 0.23630700 0.73379987
v 0.00049000 0.23640010 0.73379987
v 0.00050000 0.23649710 0.73379987
v 0.01487797 0.22837710 0.73379987
v 0.04608297 0.20415500 0.73379987
v 0.04087698 0.20237800 0.73379987
v 0.01712399 0.23341110 0.73379987
v 0.02174997 0.22517210 0.73379987
v 0.04251796 0.21185610 0.73379987
v 0.03767198 0.20925000 0.73379987
v 0.02478796 0.22976799 0.73379987
v 0.02796095 0.22082309 0.73379987
v 0.03767895 0.21882610 0.73379987
v 0.03332298 0.21546111 0.73379987
v 0.03170895 0.22485700 0.73379987
v 0.00000000 0.14400010 0.73379987
v 0.00000000 0.14400010 0.72639990
v 0.00715995 0.14459310 0.72639990
v 0.00755399 0.14466110 0.73379987
v 0.01412397 0.14635710 0.72639990
v 0.01487797 0.14662310 0.73379987
v 0.02070397 0.14924310 0.72639990
v 0.02174997 0.14982811 0.73379987
v 0.02671796 0.15317211 0.72639990
v 0.02796095 0.15417710 0.73379987
v 0.03200399 0.15803809 0.72639990
v 0.03332298 0.15953910 0.73379987
v 0.03641694 0.16370800 0.72639990
v 0.03767198 0.16575000 0.73379987
v 0.03983598 0.17002609 0.72639990
v 0.04087698 0.17262200 0.73379987
v 0.04216897 0.17682110 0.72639990
v 0.04283899 0.17994609 0.73379987
v 0.04335099 0.18390810 0.72639990
v 0.04349994 0.18750010 0.73379987
v 0.04335099 0.19109210 0.72639990
v 0.04283899 0.19505410 0.73379987
v 0.04216897 0.19817910 0.72639990
v 0.04087698 0.20237800 0.73379987
v 0.03983598 0.20497410 0.72639990
v 0.03767198 0.20925000 0.73379987
v 0.03641694 0.21129200 0.72639990
v 0.03332298 0.21546111 0.73379987
v 0.03200399 0.21696199 0.72639990
v 0.02796095 0.22082309 0.73379987
v 0.02671796 0.22182810 0.72639990
v 0.02174997 0.22517210 0.73379987
v 0.02070397 0.22575711 0.72639990
v 0.01487797 0.22837710 0.73379987
v 0.01412397 0.22864310 0.72639990
v 0.00755399 0.23033909 0.73379987
v 0.00715995 0.23040710 0.72639990
v 0.00000000 0.23100010 0.73379987
v 0.00000000 0.23100010 0.72639990
v -0.00755399 0.23033909 0.73379987
v -0.00755399 0.23033909 0.72639990
v -0.01487797 0.22837710 0.73379987
v -0.01487797 0.22837710 0.72639990
v -0.02174997 0.22517210 0.73379987
v -0.02174997 0.22517210 0.72639990
v -0.02796095 0.22082309 0.73379987
v -0.02796095 0.22082309 0.72639990
v -0.03332298 0.21546111 0.73379987
v -0.03332298 0.21546111 0.72639990
v -0.03767198 0.20925000 0.73379987
v -0.03767198 0.20925000 0.72639990
v -0.04087698 0.20237800 0.73379987
v -0.04087698 0.20237800 0.72639990
v -0.04283899 0.19505410 0.73379987
v -0.04283899 0.19505410 0.72639990
v -0.04349994 0.18750010 0.73379987
v -0.04349994 0.18750010 0.72639990
v -0.04283899 0.17994609 0.73379987
v -0.04283899 0.17994609 0.72639990
v -0.04087698 0.17262200 0.73379987
v -0.04087698 0.17262200 0.72639990
v -0.03767198 0.16575000 0.73379987
v -0.03767198 0.16575000 0.72639990
v -0.03332298 0.15953910 0.73379987
v -0.03332298 0.15953910 0.72639990
v -0.02796095 0.15417710 0.73379987
v -0.02796095 0.15417710 0.72639990
v -0.02174997 0.14982811 0.73379987
v -0.02174997 0.14982811 0.72639990
v -0.01487797 0.14662310 0.73379987
v -0.01487797 0.14662310 0.72639990
v -0.00755399 0.14466110 0.73379987
v -0.00755399 0.14466110 0.72639990
v 0.00000000 0.14400010 0.73379987
v 0.00000000 0.14400010 0.72639990
v -0.00755399 0.23033909 0.72639990
v 0.00000000 0.23100010 0.72639990
v 0.00000000 0.23070011 0.72610003
v -0.00750196 0.23004410 0.72610003
v -0.01487797 0.22837710 0.72639990
v -0.01477497 0.22809510 0.72610003
v -0.02174997 0.22517210 0.72639990
v -0.02159994 0.22491211 0.72610003
v -0.02796095 0.22082309 0.72639990
v -0.02776795 0.22059301 0.72610003
v -0.03332298 0.21546111 0.72639990
v -0.03309297 0.21526811 0.72610003
v -0.03767198 0.20925000 0.72639990
v -0.03741198 0.20910010 0.72610003
v -0.04087698 0.20237800 0.72639990
v -0.04059499 0.20227499 0.72610003
v -0.04283899 0.19505410 0.72639990
v -0.04254394 0.19500209 0.72610003
v -0.04349994 0.18750010 0.72639990
v -0.04319995 0.18750010 0.72610003
v -0.04283899 0.17994609 0.72639990
v -0.04254394 0.17999800 0.72610003
v -0.04087698 0.17262200 0.72639990
v -0.04059499 0.17272501 0.72610003
v -0.03767198 0.16575000 0.72639990
v -0.03741198 0.16590010 0.72610003
v -0.03332298 0.15953910 0.72639990
v -0.03309297 0.15973210 0.72610003
v -0.02796095 0.15417710 0.72639990
v -0.02776795 0.15440699 0.72610003
v -0.02174997 0.14982811 0.72639990
v -0.02159994 0.15008810 0.72610003
v -0.01487797 0.14662310 0.72639990
v -0.01477497 0.14690509 0.72610003
v -0.00755399 0.14466110 0.72639990
v -0.00750196 0.14495610 0.72610003
v 0.00000000 0.14400010 0.72639990
v 0.00000000 0.14430010 0.72610003
v 0.00715995 0.14459310 0.72639990
v 0.00750196 0.14495610 0.72610003
v 0.01412397 0.14635710 0.72639990
v 0.01477497 0.14690509 0.72610003
v 0.02070397 0.14924310 0.72639990
v 0.02159994 0.15008810 0.72610003
v 0.02671796 0.15317211 0.72639990
v 0.02776795 0.15440699 0.72610003
v 0.03200399 0.15803809 0.72639990
v 0.03309297 0.15973210 0.72610003
v 0.03641694 0.16370800 0.72639990
v 0.03741198 0.16590010 0.72610003
v 0.03983598 0.17002609 0.72639990
v 0.04059499 0.17272501 0.72610003
v 0.04216897 0.17682110 0.72639990
v 0.04254394 0.17999800 0.72610003
v 0.04335099 0.18390810 0.72639990
v 0.04319995 0.18750010 0.72610003
v 0.04335099 0.19109210 0.72639990
v 0.04254394 0.19500209 0.72610003
v 0.04216897 0.19817910 0.72639990
v 0.04059499 0.20227499 0.72610003
v 0.03983598 0.20497410 0.72639990
v 0.03741198 0.20910010 0.72610003
v 0.03641694 0.21129200 0.72639990
v 0.03309297 0.21526811 0.72610003
v 0.03200399 0.21696199 0.72639990
v 0.02776795 0.22059301 0.72610003
v 0.02671796 0.22182810 0.72639990
v 0.02159994 0.22491211 0.72610003
v 0.02070397 0.22575711 0.72639990
v 0.01477497 0.22809510 0.72610003
v 0.01412397 0.22864310 0.72639990
v 0.00750196 0.23004410 0.72610003
v 0.00715995 0.23040710 0.72639990
v 0.00000000 0.23070011 0.72610003
v 0.00000000 0.23100010 0.72639990
v 0.01477497 0.22809510 0.72610003
v 0.02159994 0.22491211 0.72610003
v 0.02776795 0.22059301 0.72610003
v 0.04254394 0.19500209 0.72610003
v 0.03741198 0.20910010 0.72610003
v 0.04059499 0.20227499 0.72610003
v 0.03309297 0.21526811 0.72610003
v 0.04254394 0.17999800 0.72610003
v 0.04319995 0.18750010 0.72610003
v -0.00750196 0.23004410 0.72610003
v 0.00750196 0.23004410 0.72610003
v 0.00000000 0.23070011 0.72610003
v 0.04059499 0.17272501 0.72610003
v 0.03309297 0.15973210 0.72610003
v 0.03741198 0.16590010 0.72610003
v -0.02776795 0.22059301 0.72610003
v -0.01477497 0.22809510 0.72610003
v -0.02159994 0.22491211 0.72610003
v -0.04059499 0.20227499 0.72610003
v -0.03309297 0.21526811 0.72610003
v -0.03741198 0.20910010 0.72610003
v 0.00750196 0.14495610 0.72610003
v 0.02159994 0.15008810 0.72610003
v 0.01477497 0.14690509 0.72610003
v 0.02776795 0.15440699 0.72610003
v 0.00000000 0.14430010 0.72610003
v -0.04319995 0.18750010 0.72610003
v -0.04254394 0.19500209 0.72610003
v -0.01477497 0.14690509 0.72610003
v -0.00750196 0.14495610 0.72610003
v -0.03741198 0.16590010 0.72610003
v -0.04254394 0.17999800 0.72610003
v -0.04059499 0.17272501 0.72610003
v -0.02776795 0.15440699 0.72610003
v -0.02159994 0.15008810 0.72610003
v -0.03309297 0.15973210 0.72610003
v -0.04899996 0.18750010 0.73379987
v -0.04902899 0.18438700 0.73379987
v -0.04903894 0.18335000 0.73479891
v -0.04899895 0.18750010 0.78579998
v -0.04951196 0.13250010 0.78380001
v -0.04843997 0.12780011 0.79592991
v -0.04940998 0.13250010 0.78780001
v -0.04944896 0.12780011 0.78780001
v -0.04920595 0.16125511 0.78675503
v -0.04610395 0.12780011 0.80377698
v -0.04888600 0.18391010 0.78939003
v -0.04899895 0.18750010 0.78579998
v -0.04902899 0.18335000 0.78595090
v -0.04773598 0.17641500 0.79688489
v -0.04530298 0.16878811 0.80451190
v -0.04335498 0.12780011 0.80965000
v -0.04250597 0.16308799 0.81021190
v -0.04005497 0.12780011 0.81484592
v -0.03907299 0.15790001 0.81540000
v -0.03613400 0.12780011 0.81959391
v -0.03507596 0.15325610 0.82004392
v -0.03163999 0.12780011 0.82382798
v -0.03099697 0.14951999 0.82378000
v -0.02666497 0.12780011 0.82746202
v -0.02718198 0.14669810 0.82660198
v -0.02127599 0.12780011 0.83044899
v -0.00049400 0.12980001 0.83517402
v -0.00989997 0.12780011 0.83425200
v -0.00522697 0.12780011 0.83497500
v -0.00050000 0.12780011 0.83524901
v -0.02252000 0.14394400 0.82935601
v -0.01565098 0.12780011 0.83271402
v -0.01739996 0.14165100 0.83164901
v -0.01186096 0.13990900 0.83339101
v -0.00601596 0.13881800 0.83448201
v 0.00000000 0.13844509 0.83485502
v -0.00032900 0.12980001 0.83517599
v -0.00016500 0.12980001 0.83517700
v 0.00000000 0.12980001 0.83517700
v -0.04920595 0.16125511 0.78675503
v -0.04951196 0.13250010 0.78380001
v -0.04940998 0.13250010 0.78780001
v -0.04899895 0.18750010 0.78579998
v -0.04902899 0.18335000 0.78595090
v 0.00049000 0.12780011 0.73638803
v 0.00050000 0.12780011 0.73629087
v 0.00881594 0.12780011 0.73707998
v 0.00046100 0.12780011 0.73648190
v 0.00041500 0.12780011 0.73656797
v 0.00035300 0.12780011 0.73664302
v 0.00027700 0.12780011 0.73670501
v 0.00019100 0.12780011 0.73675102
v 0.00009700 0.12780011 0.73677897
v 0.00000000 0.12780011 0.73678899
v 0.04601198 0.12780011 0.76751590
v 0.04843097 0.12780011 0.77551091
v 0.04228299 0.12780011 0.76004100
v 0.03734999 0.12780011 0.75329900
v 0.03135496 0.12780011 0.74748200
v 0.02446597 0.12780011 0.74275601
v 0.01688200 0.12780011 0.73925591
v 0.04947096 0.12780011 0.78693300
v 0.04947096 0.12780011 0.78380001
v 0.04885298 0.12780011 0.79370499
v 0.04944896 0.12780011 0.78780001
v -0.00881594 0.12780011 0.73707998
v -0.00050000 0.12780011 0.73629087
v -0.00049000 0.12780011 0.73638803
v -0.00046100 0.12780011 0.73648190
v -0.00041500 0.12780011 0.73656797
v -0.00035300 0.12780011 0.73664302
v -0.00027700 0.12780011 0.73670501
v -0.00019100 0.12780011 0.73675102
v -0.00009700 0.12780011 0.73677897
v -0.01688200 0.12780011 0.73925591
v -0.02446597 0.12780011 0.74275601
v -0.03135496 0.12780011 0.74748200
v -0.03734999 0.12780011 0.75329900
v -0.04228299 0.12780011 0.76004100
v -0.04601198 0.12780011 0.76751590
v -0.04843097 0.12780011 0.77551091
v 0.00041500 0.12780011 0.83497190
v 0.00035300 0.12780011 0.83489692
v 0.00871396 0.12780011 0.83447897
v 0.00027700 0.12780011 0.83483487
v 0.00046100 0.12780011 0.83505797
v 0.00019100 0.12780011 0.83478892
v 0.00049000 0.12780011 0.83515191
v 0.00009700 0.12780011 0.83476090
v 0.00050000 0.12780011 0.83524901
v 0.00000000 0.12780011 0.83475202
v 0.01666599 0.12780011 0.83236402
v 0.02415198 0.12780011 0.82896501
v 0.03096497 0.12780011 0.82437789
v 0.03521394 0.12780011 0.82055002
v 0.03925800 0.12780011 0.81591392
v 0.04269295 0.12780011 0.81081301
v 0.04547697 0.12780011 0.80530798
v 0.04754894 0.12780011 0.79951000
v -0.04947096 0.12780011 0.78693300
v -0.04947096 0.12780011 0.78380001
v -0.00522697 0.12780011 0.83497500
v -0.00009700 0.12780011 0.83476090
v -0.00019100 0.12780011 0.83478892
v -0.00027700 0.12780011 0.83483487
v -0.00035300 0.12780011 0.83489692
v -0.00041500 0.12780011 0.83497190
v -0.00046100 0.12780011 0.83505797
v -0.00049000 0.12780011 0.83515191
v -0.00050000 0.12780011 0.83524901
v -0.00989997 0.12780011 0.83425200
v -0.04843997 0.12780011 0.79592991
v -0.04944896 0.12780011 0.78780001
v -0.01565098 0.12780011 0.83271402
v -0.04610395 0.12780011 0.80377698
v -0.02127599 0.12780011 0.83044899
v -0.04335498 0.12780011 0.80965000
v -0.02666497 0.12780011 0.82746202
v -0.04005497 0.12780011 0.81484592
v -0.03163999 0.12780011 0.82382798
v -0.03613400 0.12780011 0.81959391
v 0.04563295 0.18305799 0.79165590
v 0.04567998 0.18321601 0.79084301
v 0.04565000 0.18314309 0.79140198
v 0.04517096 0.17902610 0.79427397
v 0.04571795 0.18326899 0.79003102
v 0.04431998 0.17588310 0.79883099
v 0.04423195 0.17485300 0.79844689
v 0.04188597 0.16900811 0.80570698
v 0.04152494 0.16751310 0.80578703
v 0.03858000 0.16289100 0.81182301
v 0.03810197 0.16145711 0.81184292
v 0.03551399 0.15867101 0.81604290
v 0.03495496 0.15729401 0.81600600
v 0.03198796 0.15482610 0.81988800
v 0.03135597 0.15351510 0.81978500
v 0.02805000 0.15140609 0.82330799
v 0.02735096 0.15016910 0.82313102
v 0.02374899 0.14845601 0.82625890
v 0.02299195 0.14730009 0.82599998
v 0.01914000 0.14601301 0.82870197
v 0.01833599 0.14494500 0.82835501
v 0.01428496 0.14410910 0.83060598
v 0.01344197 0.14313410 0.83016598
v 0.00924397 0.14276800 0.83194590
v 0.00837397 0.14189111 0.83140898
v 0.00408399 0.14200909 0.83270490
v 0.00319898 0.14123210 0.83206803
v -0.00112796 0.14184110 0.83287299
v -0.00201899 0.14116409 0.83213592
v -0.00632596 0.14226501 0.83244902
v -0.00720996 0.14169011 0.83161002
v -0.01144295 0.14327811 0.83143699
v -0.01230800 0.14280210 0.83049798
v -0.01695096 0.14507499 0.82963902
v -0.01778298 0.14470799 0.82859200
v -0.02275097 0.14786910 0.82684600
v -0.02352899 0.14761600 0.82568401
v -0.02866500 0.15188999 0.82282400
v -0.02936500 0.15175501 0.82154500
v -0.03441298 0.15737399 0.81733990
v -0.03500699 0.15735410 0.81594598
v -0.03958296 0.16452610 0.81018788
v -0.04003596 0.16461110 0.80868900
v -0.04360300 0.17346700 0.80124700
v -0.04387897 0.17363510 0.79966497
v -0.04563295 0.18305799 0.79165590
v -0.04565197 0.18314710 0.79137993
v -0.04563999 0.18310399 0.79156291
v -0.04568397 0.18322210 0.79076791
v -0.04571795 0.18326899 0.79003102
v 0.00572896 0.13554710 0.73379987
v 0.00050000 0.13519600 0.73380202
v 0.00050000 0.13519910 0.73379987
v 0.00050000 0.13447510 0.73445690
v 0.00844896 0.13447110 0.73516601
v 0.01088398 0.13646810 0.73379987
v 0.01500499 0.13445310 0.73675603
v 0.01625698 0.13806000 0.73379987
v 0.02128297 0.13443211 0.73922801
v 0.02171200 0.14039610 0.73379987
v 0.02715796 0.13437900 0.74256098
v 0.02713197 0.14354999 0.73379987
v 0.03099596 0.13432410 0.74539101
v 0.03210794 0.14735910 0.73379987
v 0.03453898 0.13424900 0.74858701
v 0.03657096 0.15177301 0.73379987
v 0.03962194 0.13407210 0.75452590
v 0.04043096 0.15670811 0.73379987
v 0.04410296 0.13378809 0.76196790
v 0.04363197 0.16208909 0.73379987
v 0.04521298 0.13367900 0.76438701
v 0.04618197 0.16799609 0.73379987
v 0.04744094 0.13335709 0.77067292
v 0.04830396 0.17606710 0.73379987
v 0.04887294 0.13298009 0.77717900
v 0.04902899 0.18438700 0.73379987
v 0.04951196 0.13250010 0.78380001
v 0.04431998 0.17588310 0.79883099
v 0.04563295 0.18305799 0.79165590
v 0.04538899 0.18305799 0.79331702
v 0.04508495 0.18305799 0.79496801
v 0.04472094 0.18305799 0.79660600
v 0.04367297 0.17906611 0.80059791
v 0.04227095 0.17518499 0.80447900
v 0.04188597 0.16900811 0.80570698
v 0.03858000 0.16289100 0.81182301
v 0.03931695 0.16928411 0.81037998
v 0.03635197 0.16489510 0.81476891
v 0.03551399 0.15867101 0.81604290
v 0.03424894 0.16233709 0.81732690
v 0.03196597 0.15993910 0.81972492
v 0.03198796 0.15482610 0.81988800
v 0.02881795 0.15713310 0.82253098
v 0.02805000 0.15140609 0.82330799
v 0.02542495 0.15463009 0.82503390
v 0.02374899 0.14845601 0.82625890
v 0.02132099 0.15218499 0.82747900
v 0.01914000 0.14601301 0.82870197
v 0.01698499 0.15018210 0.82948202
v 0.01428496 0.14410910 0.83060598
v 0.01246398 0.14864109 0.83102298
v 0.00924397 0.14276800 0.83194590
v 0.00780696 0.14758110 0.83208299
v 0.00408399 0.14200909 0.83270490
v 0.00306499 0.14701310 0.83265090
v -0.00112796 0.14184110 0.83287299
v -0.00171000 0.14694209 0.83272201
v -0.00632596 0.14226501 0.83244902
v -0.00646698 0.14736900 0.83229500
v -0.01144295 0.14327811 0.83143699
v -0.01166796 0.14842311 0.83124101
v -0.01695096 0.14507499 0.82963902
v -0.01725900 0.15029199 0.82937193
v -0.02275097 0.14786910 0.82684600
v -0.02256298 0.15286399 0.82679999
v -0.02866500 0.15188999 0.82282400
v -0.02749300 0.15609810 0.82356602
v -0.03196597 0.15993910 0.81972492
v -0.03441298 0.15737399 0.81733990
v -0.03553295 0.16385411 0.81581002
v -0.03958296 0.16452610 0.81018788
v -0.03752398 0.16650000 0.81316400
v -0.03931695 0.16928411 0.81037998
v -0.04126298 0.17292300 0.80674100
v -0.04360300 0.17346700 0.80124700
v -0.04287397 0.17672209 0.80294192
v -0.04472094 0.18305799 0.79660600
v -0.04508495 0.18305799 0.79496801
v -0.04538899 0.18305799 0.79331702
v -0.04563295 0.18305799 0.79165590
v 0.04178500 0.16931900 0.80589890
v 0.00016700 0.12980001 0.73627090
v 0.00049400 0.12980001 0.73636800
v 0.00047000 0.12980001 0.73645890
v 0.00050000 0.12980001 0.73627400
v 0.00043000 0.12980001 0.73654389
v 0.00037500 0.12980001 0.73662001
v 0.00030600 0.12980001 0.73668402
v 0.00022700 0.12980001 0.73673391
v 0.00013900 0.12980001 0.73676902
v 0.00004700 0.12980001 0.73678601
v -0.00004700 0.12980001 0.73678601
v -0.00016700 0.12980001 0.73627090
v -0.00049400 0.12980001 0.73636800
v -0.00050000 0.12980001 0.73627400
v -0.00013900 0.12980001 0.73676902
v -0.00047000 0.12980001 0.73645890
v -0.00022700 0.12980001 0.73673391
v -0.00043000 0.12980001 0.73654389
v -0.00030600 0.12980001 0.73668402
v -0.00037500 0.12980001 0.73662001
v -0.00049000 0.12780011 0.73638803
v -0.00050000 0.12780011 0.73629087
v -0.00050000 0.12846710 0.73628497
v -0.00049400 0.12980001 0.73636800
v -0.00050000 0.12913311 0.73628002
v -0.00050000 0.12980001 0.73627400
v -0.00047000 0.12980001 0.73645890
v -0.00046100 0.12780011 0.73648190
v -0.00043000 0.12980001 0.73654389
v -0.00041500 0.12780011 0.73656797
v -0.00037500 0.12980001 0.73662001
v -0.00035300 0.12780011 0.73664302
v -0.00030600 0.12980001 0.73668402
v -0.00027700 0.12780011 0.73670501
v -0.00022700 0.12980001 0.73673391
v -0.00019100 0.12780011 0.73675102
v -0.00013900 0.12980001 0.73676902
v -0.00009700 0.12780011 0.73677897
v -0.00004700 0.12980001 0.73678601
v 0.00000000 0.12780011 0.73678899
v 0.00004700 0.12980001 0.73678601
v 0.00009700 0.12780011 0.73677897
v 0.00013900 0.12980001 0.73676902
v 0.00019100 0.12780011 0.73675102
v 0.00022700 0.12980001 0.73673391
v 0.00027700 0.12780011 0.73670501
v 0.00030600 0.12980001 0.73668402
v 0.00035300 0.12780011 0.73664302
v 0.00037500 0.12980001 0.73662001
v 0.00041500 0.12780011 0.73656797
v 0.00043000 0.12980001 0.73654389
v 0.00046100 0.12780011 0.73648190
v 0.00047000 0.12980001 0.73645890
v 0.00049000 0.12780011 0.73638803
v 0.00050000 0.12846710 0.73628497
v 0.00050000 0.12780011 0.73629087
v 0.00049400 0.12980001 0.73636800
v 0.00050000 0.12913311 0.73628002
v 0.00050000 0.12980001 0.73627400
v 0.00032900 0.12980001 0.83517599
v 0.00047100 0.12980001 0.83508301
v 0.00049400 0.12980001 0.83517402
v 0.00043100 0.12980001 0.83499801
v 0.00037600 0.12980001 0.83492100
v 0.00016500 0.12980001 0.83517700
v 0.00030700 0.12980001 0.83485699
v 0.00022700 0.12980001 0.83480603
v 0.00014000 0.12980001 0.83477092
v 0.00000000 0.12980001 0.83517700
v 0.00004700 0.12980001 0.83475399
v -0.00004700 0.12980001 0.83475399
v -0.00014000 0.12980001 0.83477092
v -0.00016500 0.12980001 0.83517700
v -0.00022700 0.12980001 0.83480603
v -0.00030700 0.12980001 0.83485699
v -0.00037600 0.12980001 0.83492100
v -0.00032900 0.12980001 0.83517599
v -0.00043100 0.12980001 0.83499801
v -0.00047100 0.12980001 0.83508301
v -0.00049400 0.12980001 0.83517402
v 0.00049400 0.12980001 0.83517402
v 0.00049000 0.12780011 0.83515191
v 0.00050000 0.12780011 0.83524901
v 0.00047100 0.12980001 0.83508301
v 0.00046100 0.12780011 0.83505797
v 0.00043100 0.12980001 0.83499801
v 0.00041500 0.12780011 0.83497190
v 0.00037600 0.12980001 0.83492100
v 0.00035300 0.12780011 0.83489692
v 0.00030700 0.12980001 0.83485699
v 0.00027700 0.12780011 0.83483487
v 0.00022700 0.12980001 0.83480603
v 0.00019100 0.12780011 0.83478892
v 0.00014000 0.12980001 0.83477092
v 0.00009700 0.12780011 0.83476090
v 0.00004700 0.12980001 0.83475399
v 0.00000000 0.12780011 0.83475202
v -0.00004700 0.12980001 0.83475399
v -0.00009700 0.12780011 0.83476090
v -0.00014000 0.12980001 0.83477092
v -0.00019100 0.12780011 0.83478892
v -0.00022700 0.12980001 0.83480603
v -0.00027700 0.12780011 0.83483487
v -0.00030700 0.12980001 0.83485699
v -0.00035300 0.12780011 0.83489692
v -0.00037600 0.12980001 0.83492100
v -0.00041500 0.12780011 0.83497190
v -0.00043100 0.12980001 0.83499801
v -0.00046100 0.12780011 0.83505797
v -0.00047100 0.12980001 0.83508301
v -0.00049000 0.12780011 0.83515191
v -0.00049400 0.12980001 0.83517402
v -0.00050000 0.12780011 0.83524901
v 0.04885298 0.12780011 0.79370499
v 0.04944896 0.12780011 0.78780001
v 0.04940998 0.13250010 0.78780001
v 0.04920595 0.16124400 0.78675503
v 0.04754894 0.12780011 0.79951000
v 0.04788398 0.17706600 0.79623401
v 0.04899597 0.18750010 0.78579998
v 0.04543197 0.16910300 0.80419701
v 0.04269295 0.12780011 0.81081301
v 0.04547697 0.12780011 0.80530798
v 0.04068100 0.16015410 0.81314600
v 0.03925800 0.12780011 0.81591392
v 0.03717797 0.15555310 0.81774801
v 0.03096497 0.12780011 0.82437789
v 0.03521394 0.12780011 0.82055002
v 0.03139495 0.14985010 0.82345003
v 0.02415198 0.12780011 0.82896501
v 0.02549099 0.14561900 0.82768101
v 0.01666599 0.12780011 0.83236402
v 0.00049400 0.12980001 0.83517402
v 0.00050000 0.12780011 0.83524901
v 0.00871396 0.12780011 0.83447897
v 0.01980894 0.14264300 0.83065701
v 0.01436495 0.14060710 0.83269298
v 0.00936299 0.13935199 0.83394790
v 0.00483698 0.13868611 0.83461392
v 0.00242698 0.13850610 0.83479393
v 0.00000000 0.13844509 0.83485502
v 0.00016500 0.12980001 0.83517700
v 0.00032900 0.12980001 0.83517599
v 0.00050000 0.13519600 0.73579991
v 0.00050000 0.13519910 0.73379987
v 0.00050000 0.13519600 0.73380202
v 0.00049000 0.13529310 0.73579991
v 0.00049000 0.13529611 0.73379987
v 0.00046200 0.13538709 0.73579991
v 0.00046100 0.13538900 0.73379987
v 0.00041600 0.13547400 0.73579991
v 0.00041500 0.13547499 0.73379987
v 0.00035400 0.13554910 0.73579991
v 0.00035300 0.13555001 0.73379987
v 0.00027800 0.13561210 0.73579991
v 0.00027700 0.13561210 0.73379987
v 0.00019100 0.13565800 0.73579991
v 0.00019100 0.13565800 0.73379987
v 0.00009800 0.13568600 0.73579991
v 0.00009700 0.13568600 0.73379987
v 0.00000000 0.13569610 0.73579991
v 0.00000000 0.13569610 0.73379987
v -0.00009700 0.13568600 0.73379987
v -0.00009800 0.13568600 0.73579991
v -0.00019100 0.13565800 0.73379987
v -0.00019100 0.13565800 0.73579991
v -0.00027700 0.13561210 0.73379987
v -0.00027800 0.13561210 0.73579991
v -0.00035300 0.13555001 0.73379987
v -0.00035400 0.13554910 0.73579991
v -0.00041500 0.13547499 0.73379987
v -0.00041600 0.13547400 0.73579991
v -0.00046100 0.13538900 0.73379987
v -0.00046200 0.13538709 0.73579991
v -0.00049000 0.13529611 0.73379987
v -0.00049000 0.13529310 0.73579991
v -0.00050000 0.13519910 0.73379987
v -0.00050000 0.13519600 0.73579991
v -0.00050000 0.13519600 0.73380202
v -0.00050000 0.13519600 0.73579991
v -0.00050000 0.13447510 0.73445690
v -0.00050000 0.13380501 0.73499298
v -0.00050000 0.13307510 0.73544401
v -0.00050000 0.13230211 0.73579991
v 0.00050000 0.13519600 0.73579991
v 0.00050000 0.13447510 0.73445690
v 0.00050000 0.13380501 0.73499298
v 0.00050000 0.13307510 0.73544401
v 0.00050000 0.13230211 0.73579991
v 0.00050000 0.13519600 0.73579991
v 0.00046200 0.13538709 0.73579991
v 0.00049000 0.13529310 0.73579991
v 0.00041600 0.13547400 0.73579991
v 0.00035400 0.13554910 0.73579991
v 0.00027800 0.13561210 0.73579991
v 0.00019100 0.13565800 0.73579991
v -0.00050000 0.13519600 0.73579991
v 0.00009800 0.13568600 0.73579991
v 0.00000000 0.13569610 0.73579991
v -0.00009800 0.13568600 0.73579991
v -0.00019100 0.13565800 0.73579991
v -0.00027800 0.13561210 0.73579991
v -0.00035400 0.13554910 0.73579991
v -0.00041600 0.13547400 0.73579991
v -0.00046200 0.13538709 0.73579991
v -0.00049000 0.13529310 0.73579991
v 0.00016700 0.13229600 0.73579991
v 0.00050000 0.13230211 0.73579991
v -0.00016700 0.13229600 0.73579991
v -0.00050000 0.13230211 0.73579991
v 0.00016700 0.23649999 0.73579991
v 0.00049000 0.23640010 0.73579991
v 0.00046100 0.23630700 0.73579991
v 0.00050000 0.23649710 0.73579991
v 0.00041500 0.23622110 0.73579991
v 0.00035300 0.23614600 0.73579991
v 0.00027700 0.23608410 0.73579991
v 0.00019100 0.23603800 0.73579991
v 0.00009700 0.23601010 0.73579991
v 0.00000000 0.23600011 0.73579991
v -0.00016700 0.23649999 0.73579991
v -0.00009700 0.23601010 0.73579991
v -0.00049000 0.23640010 0.73579991
v -0.00050000 0.23649710 0.73579991
v -0.00019100 0.23603800 0.73579991
v -0.00046100 0.23630700 0.73579991
v -0.00027700 0.23608410 0.73579991
v -0.00041500 0.23622110 0.73579991
v -0.00035300 0.23614600 0.73579991
v -0.00050000 0.23649710 0.73579991
v -0.00049000 0.23640010 0.73379987
v -0.00050000 0.23649710 0.73379987
v -0.00049000 0.23640010 0.73579991
v -0.00046100 0.23630700 0.73379987
v -0.00046100 0.23630700 0.73579991
v -0.00041500 0.23622110 0.73379987
v -0.00041500 0.23622110 0.73579991
v -0.00035300 0.23614600 0.73379987
v -0.00035300 0.23614600 0.73579991
v -0.00027700 0.23608410 0.73379987
v -0.00027700 0.23608410 0.73579991
v -0.00019100 0.23603800 0.73379987
v -0.00019100 0.23603800 0.73579991
v -0.00009700 0.23601010 0.73379987
v -0.00009700 0.23601010 0.73579991
v 0.00000000 0.23600011 0.73379987
v 0.00000000 0.23600011 0.73579991
v 0.00009700 0.23601010 0.73379987
v 0.00009700 0.23601010 0.73579991
v 0.00019100 0.23603800 0.73379987
v 0.00019100 0.23603800 0.73579991
v 0.00027700 0.23608410 0.73379987
v 0.00027700 0.23608410 0.73579991
v 0.00035300 0.23614600 0.73379987
v 0.00035300 0.23614600 0.73579991
v 0.00041500 0.23622110 0.73379987
v 0.00041500 0.23622110 0.73579991
v 0.00046100 0.23630700 0.73379987
v 0.00046100 0.23630700 0.73579991
v 0.00049000 0.23640010 0.73379987
v 0.00049000 0.23640010 0.73579991
v 0.00050000 0.23649710 0.73579991
v 0.00050000 0.23649710 0.73379987
v -0.04940998 0.13250010 0.78780001
v -0.04951196 0.13250010 0.78380001
v -0.04947096 0.12780011 0.78693300
v -0.04944896 0.12780011 0.78780001
v 0.04902899 0.18438700 0.73379987
v 0.04899597 0.18750010 0.78579998
v 0.04951196 0.13250010 0.78380001
v 0.04899996 0.18750010 0.73379987
v 0.04951196 0.13250010 0.78380001
v 0.04920595 0.16124400 0.78675503
v 0.04940998 0.13250010 0.78780001
v 0.04899597 0.18750010 0.78579998
v -0.04951196 0.13250010 0.78380001
v -0.04947096 0.12780011 0.78380001
v -0.04947096 0.12780011 0.78693300
v 0.04940998 0.13250010 0.78780001
v 0.04947096 0.12780011 0.78693300
v 0.04951196 0.13250010 0.78380001
v 0.04944896 0.12780011 0.78780001
v 0.04951196 0.13250010 0.78380001
v 0.04947096 0.12780011 0.78693300
v 0.04947096 0.12780011 0.78380001
v 0.04508495 0.18305799 0.79496801
v 0.04472398 0.18316109 0.79650301
v 0.04472094 0.18305799 0.79660600
v 0.04468995 0.18324700 0.79641700
v 0.04460197 0.18332399 0.79633999
v 0.04506999 0.18314309 0.79496491
v 0.04503595 0.18321601 0.79495800
v 0.04501295 0.18324700 0.79495299
v 0.04491096 0.18332399 0.79493201
v 0.04448199 0.18335000 0.79631400
v 0.04492700 0.18335000 0.79421002
v 0.04504799 0.18332399 0.79423201
v 0.04538899 0.18305799 0.79331702
v 0.04537498 0.18314309 0.79331487
v 0.04534000 0.18321601 0.79330897
v 0.04531699 0.18324700 0.79330492
v 0.04521399 0.18332399 0.79328799
v 0.04527294 0.18335000 0.79208702
v 0.04549795 0.18324700 0.79211801
v 0.04563295 0.18305799 0.79165590
v 0.04539495 0.18332399 0.79210401
v 0.04561895 0.18314309 0.79165500
v 0.04565000 0.18314309 0.79140198
v 0.04558396 0.18321601 0.79164988
v 0.04556095 0.18324700 0.79164702
v 0.04545700 0.18332399 0.79163402
v 0.04561597 0.18321601 0.79139698
v 0.04567998 0.18321601 0.79084301
v 0.04559195 0.18324700 0.79139501
v 0.04548895 0.18332399 0.79138201
v 0.04565697 0.18324700 0.79084098
v 0.04571795 0.18326899 0.79003102
v 0.04555398 0.18332399 0.79082900
v 0.04551899 0.18335000 0.78994989
v 0.04563498 0.18332399 0.79002392
v 0.04562699 0.18332911 0.78997099
f 1 2 3
f 1 3 4
f 5 6 2
f 5 2 1
f 7 8 9
f 7 10 8
f 7 11 10
f 12 11 7
f 13 14 15
f 13 15 6
f 13 6 5
f 16 12 7
f 17 18 19
f 17 19 14
f 17 14 13
f 20 16 7
f 21 18 17
f 22 20 7
f 22 23 20
f 24 23 22
f 24 25 23
f 24 26 25
f 24 27 26
f 24 22 28
f 24 28 29
f 24 29 30
f 24 30 31
f 32 33 34
f 32 34 35
f 36 32 35
f 37 35 38
f 37 38 39
f 37 36 35
f 40 39 41
f 40 41 21
f 40 17 42
f 40 37 39
f 40 21 17
f 43 40 42
f 43 42 44
f 45 43 44
f 46 44 27
f 46 45 44
f 47 46 27
f 48 27 24
f 48 47 27
f 49 50 51
f 49 52 50
f 49 53 52
f 49 54 53
f 49 55 54
f 56 57 58
f 56 51 57
f 56 49 51
f 59 60 61
f 59 61 56
f 59 62 48
f 59 63 62
f 59 58 63
f 59 48 24
f 59 56 58
f 64 60 59
f 65 64 59
f 66 67 68
f 69 68 70
f 71 72 66
f 71 66 68
f 71 68 69
f 73 70 74
f 73 74 75
f 76 70 73
f 76 69 70
f 77 75 78
f 79 72 71
f 79 71 69
f 79 69 76
f 80 75 77
f 81 73 75
f 81 75 80
f 82 76 73
f 82 73 81
f 83 72 79
f 83 79 76
f 83 76 82
f 84 78 85
f 84 80 77
f 84 77 78
f 84 81 80
f 84 82 81
f 86 72 83
f 86 83 82
f 86 82 84
f 87 84 85
f 88 84 87
f 89 84 88
f 90 86 84
f 90 84 89
f 91 92 72
f 91 72 86
f 91 86 90
f 93 85 94
f 93 87 85
f 93 88 87
f 93 89 88
f 93 90 89
f 95 92 91
f 95 91 90
f 95 90 93
f 96 93 94
f 97 93 96
f 98 93 97
f 99 95 93
f 99 93 98
f 100 101 102
f 100 102 92
f 100 92 95
f 100 95 99
f 103 104 105
f 103 106 104
f 103 94 106
f 103 96 94
f 103 97 96
f 107 97 103
f 107 103 105
f 107 98 97
f 108 100 99
f 108 107 105
f 108 105 101
f 108 98 107
f 108 101 100
f 108 99 98
f 109 110 111
f 112 111 113
f 112 113 114
f 112 114 115
f 112 115 116
f 112 109 111
f 117 118 119
f 117 120 118
f 121 122 123
f 124 125 121
f 124 121 123
f 126 127 125
f 126 125 124
f 128 127 126
f 129 130 131
f 129 132 130
f 133 134 132
f 133 132 129
f 135 136 134
f 135 134 133
f 137 138 136
f 137 136 135
f 139 140 138
f 139 138 137
f 141 142 140
f 141 140 139
f 143 144 142
f 143 142 141
f 145 146 144
f 145 144 143
f 147 148 146
f 147 146 145
f 149 150 148
f 149 148 147
f 151 152 153
f 151 153 154
f 155 156 157
f 155 158 156
f 159 160 158
f 159 158 155
f 161 162 160
f 161 160 159
f 163 164 162
f 163 162 161
f 165 166 164
f 165 164 163
f 167 168 169
f 170 168 167
f 171 172 168
f 171 173 172
f 174 168 170
f 175 171 168
f 176 168 174
f 177 175 168
f 178 168 176
f 179 177 168
f 180 168 178
f 181 179 168
f 182 168 180
f 183 181 168
f 184 168 182
f 185 168 184
f 186 183 168
f 186 168 185
f 187 188 189
f 187 190 191
f 187 192 190
f 187 189 192
f 193 194 195
f 193 196 194
f 193 197 196
f 193 198 197
f 193 199 198
f 193 191 199
f 193 187 191
f 200 193 195
f 201 193 200
f 202 193 201
f 203 193 202
f 204 193 203
f 205 193 204
f 206 193 205
f 207 208 193
f 207 193 206
f 209 210 211
f 212 213 210
f 212 210 209
f 214 215 213
f 214 213 212
f 216 217 215
f 216 215 214
f 218 217 216
f 219 220 217
f 219 217 218
f 221 222 220
f 221 220 219
f 223 224 222
f 223 222 221
f 225 226 224
f 225 224 223
f 227 228 226
f 227 226 225
f 229 230 228
f 229 228 227
f 231 232 230
f 231 230 229
f 233 234 232
f 233 232 231
f 235 236 234
f 235 234 233
f 237 238 236
f 237 236 235
f 239 238 237
f 239 240 238
f 241 242 240
f 241 240 239
f 243 242 241
f 243 244 242
f 245 246 244
f 245 244 243
f 247 248 249
f 247 250 248
f 251 252 253
f 254 255 251
f 254 251 253
f 256 257 255
f 256 255 254
f 258 257 256
f 259 260 261
f 262 260 259
f 263 261 264
f 263 259 261
f 265 266 260
f 265 260 262
f 267 264 268
f 267 263 264
f 269 270 266
f 269 266 265
f 271 267 268
f 272 270 269
f 272 273 270
f 272 274 273
f 275 271 268
f 275 268 276
f 277 274 272
f 277 278 274
f 277 279 278
f 280 279 277
f 281 279 280
f 282 276 283
f 282 275 276
f 284 281 280
f 285 282 283
f 286 281 284
f 287 285 283
f 288 286 284
f 289 287 283
f 289 290 287
f 289 291 290
f 292 286 288
f 293 291 289
f 294 292 288
f 295 292 294
f 296 291 293
f 297 295 294
f 298 295 297
f 299 291 296
f 300 301 298
f 300 298 297
f 302 301 300
f 303 302 300
f 304 302 303
f 305 304 303
f 306 304 305
f 307 306 305
f 308 307 305
f 309 307 308
f 310 291 299
f 311 312 313
f 311 309 312
f 314 313 310
f 314 311 313
f 315 310 299
f 315 314 310
f 316 317 318
f 319 315 299
f 319 299 320
f 321 317 316
f 321 322 317
f 323 319 320
f 323 324 325
f 323 320 324
f 326 322 321
f 326 327 322
f 328 327 326
f 328 329 327
f 330 323 325
f 330 325 331
f 332 330 331
f 332 333 329
f 332 331 333
f 332 329 328
f 308 312 309
f 334 335 336
f 334 336 337
f 338 337 339
f 338 334 337
f 340 338 339
f 341 340 339
f 342 343 341
f 342 341 339
f 344 343 342
f 345 344 342
f 346 345 342
f 347 345 346
f 348 346 349
f 348 347 346
f 350 348 349
f 351 350 349
f 352 350 351
f 353 352 351
f 354 352 353
f 355 354 353
f 356 355 353
f 357 355 356
f 358 357 356
f 359 357 358
f 360 357 359
f 361 357 360
f 362 363 364
f 362 364 365
f 362 365 366
f 367 362 366
f 368 362 367
f 369 368 367
f 370 368 369
f 371 370 369
f 372 370 371
f 373 372 371
f 373 371 374
f 375 373 374
f 375 374 376
f 377 375 376
f 378 377 376
f 378 376 379
f 380 378 379
f 381 380 379
f 382 381 379
f 383 382 379
f 384 382 383
f 385 384 383
f 386 385 383
f 387 385 386
f 388 387 386
f 389 387 388
f 362 357 363
f 363 357 390
f 390 357 391
f 391 357 361
f 392 393 394
f 392 394 395
f 396 397 398
f 399 400 397
f 399 401 400
f 399 397 396
f 402 401 399
f 403 401 402
f 404 405 403
f 404 403 402
f 406 407 405
f 406 405 404
f 408 409 410
f 411 409 408
f 412 409 411
f 413 412 411
f 414 415 416
f 414 416 417
f 418 415 414
f 419 415 418
f 420 419 418
f 421 422 423
f 424 425 426
f 424 427 425
f 424 426 421
f 424 421 423
f 428 429 427
f 428 427 424
f 430 429 428
f 431 430 428
f 432 430 431
f 433 432 431
f 434 394 435
f 434 395 394
f 436 437 438
f 439 395 434
f 439 434 435
f 440 441 395
f 440 439 441
f 440 395 439
f 442 398 393
f 442 396 398
f 443 396 442
f 443 392 396
f 443 442 393
f 443 393 392
f 444 407 406
f 444 410 409
f 444 409 407
f 445 406 410
f 445 444 406
f 445 410 444
f 446 412 413
f 446 447 412
f 448 447 446
f 448 446 413
f 449 413 450
f 449 448 413
f 449 447 448
f 451 452 453
f 451 453 454
f 451 454 455
f 451 456 457
f 458 416 459
f 458 417 416
f 460 417 458
f 460 458 459
f 461 462 417
f 461 417 460
f 461 460 459
f 463 422 419
f 463 419 420
f 464 463 420
f 464 420 423
f 464 423 422
f 464 422 463
f 465 433 466
f 467 468 469
f 465 470 432
f 465 432 433
f 471 449 450
f 471 447 449
f 472 450 473
f 472 474 447
f 472 471 450
f 472 447 471
f 475 472 473
f 475 474 472
f 476 475 473
f 476 473 477
f 476 457 474
f 476 474 475
f 478 451 457
f 478 477 479
f 478 479 480
f 478 480 452
f 478 476 477
f 478 457 476
f 478 452 451
f 481 451 455
f 481 456 451
f 481 455 482
f 481 482 483
f 481 483 484
f 481 484 485
f 486 456 481
f 486 481 485
f 486 487 456
f 488 486 485
f 488 487 486
f 489 487 488
f 489 485 462
f 489 488 485
f 489 459 487
f 490 489 462
f 490 459 489
f 490 462 461
f 490 461 459
f 491 492 493
f 494 491 495
f 496 492 491
f 496 491 494
f 497 498 492
f 497 492 496
f 499 500 498
f 499 498 497
f 501 502 500
f 501 500 499
f 503 504 505
f 503 505 502
f 503 502 501
f 506 507 504
f 506 504 503
f 508 509 507
f 508 507 506
f 510 511 509
f 510 509 508
f 512 513 511
f 512 511 510
f 514 515 513
f 514 513 512
f 516 517 515
f 516 515 514
f 518 519 517
f 518 517 516
f 520 521 519
f 520 519 518
f 522 521 520
f 523 522 520
f 524 525 526
f 527 524 526
f 528 526 529
f 528 527 526
f 530 529 531
f 530 528 529
f 532 530 531
f 533 532 531
f 534 532 533
f 535 534 533
f 536 534 535
f 537 536 535
f 538 536 537
f 539 538 537
f 540 539 541
f 540 538 539
f 542 540 541
f 543 540 542
f 543 542 544
f 545 546 547
f 545 547 548
f 545 548 549
f 545 549 544
f 545 544 542
f 550 546 545
f 551 546 550
f 552 551 550
f 553 552 554
f 553 551 552
f 555 553 554
f 556 555 557
f 556 553 555
f 558 556 557
f 558 557 559
f 558 559 560
f 561 560 562
f 561 558 560
f 563 562 564
f 563 561 562
f 565 564 566
f 565 563 564
f 567 566 568
f 567 565 566
f 569 568 570
f 569 570 571
f 569 567 568
f 572 573 574
f 572 574 575
f 576 577 578
f 576 578 573
f 576 573 572
f 579 575 580
f 579 580 581
f 579 572 575
f 582 583 577
f 582 577 576
f 584 581 585
f 584 579 581
f 586 587 588
f 586 588 583
f 586 583 582
f 589 590 591
f 592 589 591
f 593 592 591
f 594 593 591
f 595 594 591
f 596 585 597
f 596 597 598
f 596 598 599
f 596 584 585
f 600 591 587
f 600 587 586
f 601 602 603
f 601 603 604
f 601 604 605
f 601 605 606
f 601 606 607
f 608 599 609
f 608 596 599
f 610 591 600
f 610 607 611
f 610 601 607
f 610 611 612
f 610 595 591
f 610 612 613
f 610 613 614
f 610 614 615
f 610 615 595
f 616 608 609
f 617 608 616
f 618 601 610
f 618 619 601
f 620 619 618
f 621 617 616
f 622 617 621
f 623 620 618
f 624 620 623
f 625 622 621
f 626 622 625
f 627 624 623
f 627 628 624
f 629 628 627
f 630 626 625
f 631 626 630
f 632 629 627
f 633 629 632
f 634 633 632
f 635 631 630
f 635 636 631
f 637 633 634
f 638 637 634
f 639 636 635
f 639 640 636
f 641 637 638
f 642 638 643
f 642 641 638
f 644 640 639
f 644 645 640
f 646 643 647
f 646 642 643
f 648 645 644
f 648 649 645
f 650 647 651
f 650 646 647
f 652 649 648
f 652 653 654
f 652 654 649
f 655 654 653
f 656 652 648
f 657 654 655
f 658 656 648
f 659 654 657
f 660 658 648
f 661 654 659
f 662 654 661
f 663 654 662
f 664 654 663
f 665 654 664
f 666 650 651
f 667 654 665
f 668 654 667
f 669 651 670
f 669 666 651
f 671 667 672
f 671 672 673
f 671 673 674
f 671 668 667
f 671 675 668
f 676 670 677
f 676 669 670
f 678 675 671
f 678 679 675
f 680 677 681
f 680 676 677
f 682 683 679
f 682 679 678
f 684 681 685
f 684 680 681
f 686 685 683
f 686 683 682
f 686 684 685
f 687 688 689
f 690 689 691
f 690 687 689
f 692 691 693
f 692 690 691
f 694 693 695
f 694 692 693
f 696 695 697
f 696 694 695
f 698 696 697
f 698 697 699
f 700 698 699
f 700 699 701
f 702 700 701
f 702 701 703
f 704 702 703
f 704 703 705
f 706 704 705
f 706 705 707
f 708 706 707
f 708 707 709
f 710 708 709
f 710 709 711
f 712 710 711
f 712 711 713
f 714 712 713
f 714 713 715
f 716 714 715
f 716 715 717
f 718 717 719
f 718 716 717
f 720 718 719
f 720 719 721
f 722 721 723
f 722 720 721
f 724 723 725
f 724 722 723
f 726 724 725
f 726 725 727
f 728 726 727
f 728 727 729
f 730 728 729
f 730 729 731
f 732 730 731
f 732 731 733
f 734 732 733
f 734 733 735
f 736 735 737
f 736 734 735
f 738 737 739
f 738 736 737
f 740 739 741
f 740 738 739
f 742 741 743
f 742 740 741
f 744 743 745
f 744 742 743
f 746 745 747
f 746 744 745
f 748 747 749
f 748 746 747
f 750 748 749
f 750 749 751
f 752 750 751
f 752 751 753
f 754 752 753
f 754 753 755
f 756 754 755
f 756 755 757
f 758 756 757
f 758 757 759
f 760 758 759
f 760 759 761
f 762 763 764
f 762 764 765
f 766 765 767
f 766 762 765
f 768 767 769
f 768 766 767
f 770 769 771
f 770 768 769
f 772 771 773
f 772 770 771
f 774 773 775
f 774 772 773
f 776 774 775
f 776 775 777
f 778 776 777
f 778 777 779
f 780 778 779
f 780 779 781
f 782 780 781
f 782 781 783
f 784 782 783
f 784 783 785
f 786 784 785
f 786 785 787
f 788 786 787
f 788 787 789
f 790 788 789
f 790 789 791
f 792 790 791
f 792 791 793
f 794 792 793
f 794 793 795
f 796 794 795
f 796 795 797
f 798 796 797
f 798 797 799
f 800 798 799
f 800 799 801
f 802 800 801
f 803 802 801
f 804 802 803
f 805 804 803
f 806 804 805
f 807 806 805
f 808 806 807
f 809 808 807
f 810 808 809
f 811 810 809
f 812 810 811
f 813 812 811
f 814 812 813
f 815 814 813
f 816 814 815
f 817 816 815
f 818 816 817
f 819 818 817
f 820 818 819
f 821 820 819
f 822 820 821
f 823 822 821
f 824 822 823
f 825 824 823
f 826 824 825
f 827 826 825
f 828 826 827
f 829 828 827
f 830 828 829
f 831 830 829
f 832 830 831
f 833 832 831
f 834 832 833
f 835 834 833
f 836 834 835
f 837 838 839
f 840 841 842
f 840 843 841
f 844 840 845
f 846 847 837
f 846 848 847
f 849 839 843
f 849 837 839
f 849 843 840
f 849 840 844
f 850 849 851
f 850 846 837
f 850 837 849
f 852 853 846
f 852 854 853
f 855 856 852
f 855 857 856
f 855 852 846
f 858 859 860
f 858 861 859
f 862 850 861
f 862 861 858
f 863 864 855
f 865 862 866
f 865 846 850
f 865 850 862
f 867 868 863
f 867 869 868
f 867 855 846
f 867 863 855
f 867 846 865
f 870 867 865
f 870 865 871
f 872 867 870
f 873 874 875
f 876 875 877
f 876 873 875
f 878 879 880
f 881 878 882
f 881 879 878
f 883 884 885
f 883 885 881
f 886 881 882
f 886 883 881
f 887 882 888
f 887 886 882
f 889 888 890
f 889 887 888
f 891 890 892
f 891 889 890
f 893 892 894
f 893 891 892
f 895 894 896
f 895 893 894
f 897 896 898
f 897 895 896
f 899 900 901
f 899 901 902
f 903 898 904
f 903 897 898
f 905 903 904
f 906 904 900
f 906 900 899
f 906 905 904
f 907 906 899
f 908 899 909
f 908 909 910
f 908 910 911
f 908 907 899
f 912 913 914
f 915 913 916
f 916 913 912
f 917 918 919
f 920 917 919
f 921 920 919
f 922 921 919
f 923 922 919
f 924 923 919
f 925 924 919
f 926 925 919
f 926 927 928
f 926 929 927
f 926 930 929
f 926 931 930
f 926 932 931
f 926 933 932
f 926 919 933
f 934 926 928
f 934 928 935
f 936 934 937
f 938 939 940
f 938 940 941
f 938 941 942
f 938 942 943
f 938 943 944
f 938 944 945
f 938 945 946
f 938 946 926
f 947 938 926
f 948 947 926
f 949 948 926
f 950 949 926
f 951 950 926
f 952 951 926
f 953 952 926
f 954 955 956
f 957 956 955
f 958 954 956
f 959 956 957
f 960 958 956
f 961 956 959
f 962 960 956
f 963 964 956
f 963 965 964
f 963 966 965
f 963 967 966
f 963 968 967
f 963 969 968
f 963 970 969
f 963 971 970
f 963 936 971
f 963 934 936
f 963 956 961
f 963 926 934
f 972 973 953
f 972 953 926
f 972 926 963
f 974 975 976
f 974 976 977
f 974 977 978
f 974 978 979
f 974 979 980
f 974 980 981
f 974 981 982
f 983 963 975
f 983 975 974
f 984 972 963
f 984 985 972
f 986 963 983
f 987 984 963
f 988 963 986
f 989 987 963
f 990 963 988
f 991 989 963
f 992 963 990
f 993 991 963
f 993 963 992
f 994 995 996
f 997 998 995
f 997 995 994
f 999 997 994
f 1000 997 999
f 1001 1000 999
f 1002 1000 1001
f 1003 1002 1001
f 1004 1002 1003
f 1005 1004 1003
f 1006 1004 1005
f 1007 1006 1005
f 1008 1006 1007
f 1009 1008 1007
f 1010 1008 1009
f 1011 1010 1009
f 1012 1010 1011
f 1013 1012 1011
f 1014 1012 1013
f 1015 1014 1013
f 1016 1014 1015
f 1017 1016 1015
f 1018 1016 1017
f 1019 1018 1017
f 1020 1018 1019
f 1021 1020 1019
f 1022 1020 1021
f 1023 1022 1021
f 1024 1022 1023
f 1025 1024 1023
f 1026 1024 1025
f 1027 1026 1025
f 1028 1026 1027
f 1029 1028 1027
f 1030 1028 1029
f 1031 1030 1029
f 1032 1030 1031
f 1033 1032 1031
f 1034 1032 1033
f 1035 1034 1033
f 1036 1034 1035
f 1037 1036 1035
f 1038 1036 1037
f 1039 1038 1037
f 1040 1039 1041
f 1042 1039 1040
f 1043 1038 1039
f 1043 1039 1042
f 1044 1045 1046
f 1044 1047 1045
f 1044 1048 1047
f 1049 1050 1048
f 1049 1048 1044
f 1051 1052 1050
f 1051 1050 1049
f 1053 1054 1052
f 1053 1052 1051
f 1055 1056 1054
f 1055 1054 1053
f 1057 1058 1056
f 1057 1056 1055
f 1059 1060 1058
f 1059 1058 1057
f 1061 1062 1060
f 1061 1060 1059
f 1063 1064 1062
f 1063 1062 1061
f 1065 1066 1064
f 1065 1064 1063
f 1067 1068 1066
f 1067 1066 1065
f 1069 1070 1068
f 1069 1068 1067
f 1071 1072 1073
f 1071 1073 1074
f 1071 1074 1075
f 1071 1075 1076
f 1077 1071 1076
f 1078 1071 1077
f 1079 1078 1080
f 1081 1079 1080
f 1082 1081 1083
f 1082 1079 1081
f 1084 1082 1083
f 1085 1082 1084
f 1086 1085 1084
f 1087 1086 1088
f 1087 1085 1086
f 1089 1088 1090
f 1089 1087 1088
f 1091 1090 1092
f 1091 1089 1090
f 1093 1092 1094
f 1093 1091 1092
f 1095 1093 1094
f 1095 1094 1096
f 1097 1096 1098
f 1097 1095 1096
f 1099 1098 1100
f 1099 1097 1098
f 1101 1100 1102
f 1101 1099 1100
f 1103 1102 1104
f 1103 1101 1102
f 1105 1104 1106
f 1105 1103 1104
f 1107 1106 1108
f 1107 1105 1106
f 1109 1110 1111
f 1109 1108 1110
f 1109 1107 1108
f 1112 1111 1113
f 1112 1109 1111
f 1114 1113 1115
f 1114 1115 1116
f 1114 1116 1117
f 1114 1112 1113
f 1118 1119 1120
f 1118 1117 1119
f 1118 1120 1121
f 1118 1121 1122
f 1118 1114 1117
f 1123 1118 1122
f 1124 1077 1080
f 1124 1078 1077
f 1124 1080 1078
f 1125 1126 1127
f 1125 1128 1126
f 1129 1125 1127
f 1130 1125 1129
f 1131 1125 1130
f 1132 1125 1131
f 1133 1125 1132
f 1134 1125 1133
f 1135 1136 1125
f 1135 1125 1134
f 1137 1138 1136
f 1139 1136 1135
f 1140 1137 1136
f 1141 1136 1139
f 1142 1140 1136
f 1143 1136 1141
f 1144 1142 1136
f 1144 1136 1143
f 1145 1146 1147
f 1148 1149 1150
f 1148 1147 1149
f 1148 1145 1147
f 1151 1152 1145
f 1151 1145 1148
f 1153 1154 1152
f 1153 1152 1151
f 1155 1156 1154
f 1155 1154 1153
f 1157 1158 1156
f 1157 1156 1155
f 1159 1160 1158
f 1159 1158 1157
f 1161 1162 1160
f 1161 1160 1159
f 1163 1164 1162
f 1163 1162 1161
f 1165 1166 1164
f 1165 1164 1163
f 1167 1168 1166
f 1167 1166 1165
f 1169 1170 1168
f 1169 1168 1167
f 1171 1172 1170
f 1171 1170 1169
f 1173 1174 1172
f 1173 1172 1171
f 1175 1174 1173
f 1175 1176 1174
f 1177 1176 1175
f 1177 1178 1176
f 1179 1180 1178
f 1181 1178 1177
f 1181 1179 1178
f 1182 1179 1181
f 1183 1182 1181
f 1184 1185 1186
f 1184 1187 1185
f 1184 1188 1187
f 1189 1190 1188
f 1189 1191 1190
f 1189 1192 1191
f 1189 1188 1184
f 1193 1194 1192
f 1193 1195 1194
f 1193 1196 1195
f 1193 1192 1189
f 1197 1198 1196
f 1197 1199 1198
f 1197 1200 1199
f 1197 1196 1193
f 1201 1202 1200
f 1201 1200 1197
f 1203 1202 1201
f 1204 1203 1201
f 1205 1206 1207
f 1208 1209 1206
f 1208 1206 1205
f 1210 1211 1209
f 1210 1209 1208
f 1212 1213 1211
f 1212 1211 1210
f 1214 1215 1213
f 1214 1213 1212
f 1216 1217 1215
f 1216 1215 1214
f 1218 1219 1217
f 1218 1217 1216
f 1220 1221 1219
f 1220 1219 1218
f 1222 1223 1221
f 1222 1221 1220
f 1224 1225 1223
f 1224 1223 1222
f 1226 1227 1225
f 1226 1225 1224
f 1228 1229 1227
f 1228 1227 1226
f 1230 1231 1229
f 1230 1229 1228
f 1232 1233 1231
f 1232 1231 1230
f 1234 1235 1233
f 1234 1233 1232
f 1236 1237 1235
f 1236 1235 1234
f 1238 1239 1240
f 1241 1242 1238
f 1241 1238 1240
f 1243 1241 1244
f 1245 1246 1247
f 1245 1247 1242
f 1245 1242 1241
f 1245 1241 1243
f 1248 1249 1246
f 1248 1246 1245
f 1250 1251 1252
f 1250 1252 1249
f 1250 1249 1248
f 1253 1254 1251
f 1253 1251 1250
f 1255 1256 1254
f 1255 1254 1253
f 1257 1258 1259
f 1260 1256 1255
f 1261 1259 1256
f 1261 1257 1259
f 1261 1256 1260
f 1262 1257 1261
f 1263 1257 1262
f 1264 1257 1263
f 1265 911 1266
f 1265 1266 1267
f 1265 1267 1257
f 1265 1257 1264
f 1268 1269 1270
f 1271 1272 1269
f 1271 1269 1268
f 1273 1274 1272
f 1273 1272 1271
f 1275 1276 1274
f 1275 1274 1273
f 1277 1278 1276
f 1277 1276 1275
f 1279 1280 1278
f 1279 1278 1277
f 1281 1282 1280
f 1281 1280 1279
f 1283 1284 1282
f 1283 1282 1281
f 1285 1286 1284
f 1285 1287 1286
f 1285 1284 1283
f 1288 1289 1287
f 1288 1287 1285
f 1290 1291 1289
f 1290 1289 1288
f 1292 1293 1291
f 1292 1291 1290
f 1294 1295 1293
f 1294 1293 1292
f 1296 1297 1295
f 1296 1295 1294
f 1298 1299 1297
f 1298 1297 1296
f 1300 1301 1299
f 1300 1299 1298
f 1302 1301 1300
f 1302 1303 1301
f 1304 1305 1303
f 1306 1305 1304
f 1307 1306 1304
f 1308 1307 1304
f 1309 1270 1310
f 1309 1311 1312
f 1309 1310 1311
f 1309 1312 1313
f 1314 1315 1316
f 1314 1317 1315
f 1314 1318 1317
f 1314 1319 1318
f 1314 1320 1319
f 1321 1322 1320
f 1321 1323 1322
f 1321 1324 1323
f 1321 1325 1324
f 1321 1326 1325
f 1321 1327 1326
f 1321 1328 1327
f 1321 1329 1328
f 1321 1330 1329
f 1321 1320 1314
f 1331 1314 1332
f 1333 1321 1314
f 1333 1314 1331
f 1334 1321 1333
f 1335 1336 1337
f 1335 1338 1336
f 1339 1335 1337
f 1340 1335 1339
f 1341 1335 1340
f 1342 1335 1341
f 1343 1335 1342
f 1344 1345 1335
f 1344 1335 1343
f 1346 1345 1344
f 1347 1348 1345
f 1349 1345 1346
f 1350 1347 1345
f 1351 1345 1349
f 1352 1350 1345
f 1353 1352 1345
f 1353 1345 1351
f 1354 1355 1356
f 1357 1358 1355
f 1357 1355 1354
f 1359 1360 1358
f 1359 1358 1357
f 1361 1362 1360
f 1361 1360 1359
f 1363 1364 1362
f 1363 1362 1361
f 1365 1366 1364
f 1365 1364 1363
f 1367 1368 1366
f 1367 1366 1365
f 1369 1370 1368
f 1369 1368 1367
f 1371 1372 1370
f 1371 1370 1369
f 1373 1374 1372
f 1373 1372 1371
f 1375 1376 1374
f 1375 1374 1373
f 1377 1378 1376
f 1377 1376 1375
f 1379 1380 1378
f 1379 1378 1377
f 1381 1382 1380
f 1381 1380 1379
f 1383 1384 1382
f 1383 1382 1381
f 1385 1384 1383
f 1386 1384 1385
f 1386 1387 1384
f 1388 1389 1390
f 1388 1390 1391
f 1392 1393 1394
f 1395 1393 1392
f 1396 1397 1398
f 1396 1399 1397
f 1400 1401 1402
f 1403 1404 1405
f 1403 1406 1404
f 1407 1408 1409
f 1410 1411 1412
f 1410 1413 1411
f 1410 1414 1413
f 1415 1414 1410
f 1416 1414 1415
f 1417 1414 1416
f 1418 1419 1414
f 1418 1420 1419
f 1418 1414 1417
f 1421 1410 1422
f 1421 1417 1416
f 1421 1416 1415
f 1421 1420 1418
f 1421 1418 1417
f 1421 1415 1410
f 1423 1421 1422
f 1424 1421 1423
f 1425 1421 1424
f 1426 1427 1420
f 1426 1420 1421
f 1426 1421 1425
f 1428 1422 1429
f 1428 1424 1423
f 1428 1423 1422
f 1428 1425 1424
f 1430 1427 1426
f 1430 1426 1425
f 1430 1425 1428
f 1431 1429 1432
f 1431 1428 1429
f 1433 1428 1431
f 1434 1428 1433
f 1435 1427 1430
f 1435 1430 1428
f 1435 1428 1434
f 1436 1432 1437
f 1436 1431 1432
f 1436 1433 1431
f 1438 1434 1433
f 1438 1433 1436
f 1439 1427 1435
f 1439 1435 1434
f 1439 1434 1438
f 1440 1437 1441
f 1440 1436 1437
f 1440 1438 1436
f 1442 1443 1427
f 1442 1440 1441
f 1442 1427 1439
f 1442 1439 1438
f 1442 1438 1440
f 1444 1441 1445
f 1444 1445 1443
f 1444 1442 1441
f 1444 1443 1442

