# https://github.com/mikedh/trimesh
v 0.00329995 -0.07399994 0.68570000
v 0.00329995 -0.07599997 0.73130000
v 0.00329995 -0.07599997 0.68570000
v 0.00329995 -0.07399994 0.73130000
v -0.00324994 -0.07399994 0.73187298
v -0.00329995 -0.07599997 0.73130000
v -0.00324994 -0.07599997 0.73187298
v -0.00329995 -0.07399994 0.73130000
v -0.00310099 -0.07399994 0.73242903
v -0.00310099 -0.07599997 0.73242903
v -0.00285798 -0.07399994 0.73294997
v -0.00285798 -0.07599997 0.73294997
v -0.00252795 -0.07399994 0.73342103
v -0.00252795 -0.07599997 0.73342103
v -0.00212097 -0.07399994 0.73382801
v -0.00212097 -0.07599997 0.73382801
v -0.00164997 -0.07399994 0.73415798
v -0.00164997 -0.07599997 0.73415798
v -0.00112897 -0.07399994 0.73440099
v -0.00112897 -0.07599997 0.73440099
v -0.00057300 -0.07399994 0.73455000
v -0.00057300 -0.07599997 0.73455000
v 0.00000000 -0.07399994 0.73460001
v 0.00000000 -0.07599997 0.73460001
v 0.00057300 -0.07399994 0.73455000
v 0.00057300 -0.07599997 0.73455000
v 0.00112897 -0.07399994 0.73440099
v 0.00112897 -0.07599997 0.73440099
v 0.00164997 -0.07399994 0.73415798
v 0.00164997 -0.07599997 0.73415798
v 0.00212097 -0.07399994 0.73382801
v 0.00212097 -0.07599997 0.73382801
v 0.00252795 -0.07399994 0.73342103
v 0.00252795 -0.07599997 0.73342103
v 0.00285798 -0.07399994 0.73294997
v 0.00285798 -0.07599997 0.73294997
v 0.00310099 -0.07399994 0.73242903
v 0.00310099 -0.07599997 0.73242903
v 0.00324994 -0.07399994 0.73187298
v 0.00324994 -0.07599997 0.73187298
v 0.00329995 -0.07399994 0.73130000
v 0.00329995 -0.07599997 0.73130000
v -0.00329995 -0.07399994 0.73130000
v -0.00329995 -0.07599997 0.68570000
v -0.00329995 -0.07599997 0.73130000
v -0.00329995 -0.07399994 0.68570000
v 0.00324994 -0.07399994 0.68512702
v 0.00329995 -0.07599997 0.68570000
v 0.00324994 -0.07599997 0.68512702
v 0.00329995 -0.07399994 0.68570000
v 0.00310099 -0.07399994 0.68457103
v 0.00310099 -0.07599997 0.68457103
v 0.00285798 -0.07399994 0.68405002
v 0.00285798 -0.07599997 0.68405002
v 0.00252795 -0.07399994 0.68357903
v 0.00252795 -0.07599997 0.68357903
v 0.00212097 -0.07399994 0.68317199
v 0.00212097 -0.07599997 0.68317199
v 0.00164997 -0.07399994 0.68284202
v 0.00164997 -0.07599997 0.68284202
v 0.00112897 -0.07399994 0.68259901
v 0.00112897 -0.07599997 0.68259901
v 0.00057300 -0.07399994 0.68245000
v 0.00057300 -0.07599997 0.68245000
v 0.00000000 -0.07399994 0.68239999
v 0.00000000 -0.07599997 0.68239999
v -0.00057300 -0.07399994 0.68245000
v -0.00057300 -0.07599997 0.68245000
v -0.00112897 -0.07399994 0.68259901
v -0.00112897 -0.07599997 0.68259901
v -0.00164997 -0.07399994 0.68284202
v -0.00164997 -0.07599997 0.68284202
v -0.00212097 -0.07399994 0.68317199
v -0.00212097 -0.07599997 0.68317199
v -0.00252795 -0.07399994 0.68357903
v -0.00252795 -0.07599997 0.68357903
v -0.00285798 -0.07399994 0.68405002
v -0.00285798 -0.07599997 0.68405002
v -0.00310099 -0.07399994 0.68457103
v -0.00310099 -0.07599997 0.68457103
v -0.00324994 -0.07399994 0.68512702
v -0.00324994 -0.07599997 0.68512702
v -0.00329995 -0.07399994 0.68570000
v -0.00329995 -0.07599997 0.68570000
v 0.00164997 -0.07399994 0.73415798
v 0.00212097 -0.07399994 0.73382801
v 0.00252795 -0.07399994 0.73342103
v 0.00310099 -0.07399994 0.73242903
v 0.00285798 -0.07399994 0.73294997
v 0.00324994 -0.07399994 0.73187298
v 0.00057300 -0.07399994 0.73455000
v 0.00112897 -0.07399994 0.73440099
v -0.00057300 -0.07399994 0.73455000
v 0.00000000 -0.07399994 0.73460001
v -0.00164997 -0.07399994 0.73415798
v -0.00112897 -0.07399994 0.73440099
v -0.00285798 -0.07399994 0.73294997
v -0.00252795 -0.07399994 0.73342103
v -0.00212097 -0.07399994 0.73382801
v -0.00324994 -0.07399994 0.73187298
v -0.00310099 -0.07399994 0.73242903
v -0.00329995 -0.07399994 0.73130000
v 0.00329995 -0.07399994 0.73130000
v 0.00310099 -0.07399994 0.68457103
v 0.00329995 -0.07399994 0.68570000
v 0.00324994 -0.07399994 0.68512702
v 0.00285798 -0.07399994 0.68405002
v 0.00164997 -0.07399994 0.68284202
v 0.00252795 -0.07399994 0.68357903
v 0.00212097 -0.07399994 0.68317199
v 0.00057300 -0.07399994 0.68245000
v 0.00112897 -0.07399994 0.68259901
v -0.00329995 -0.07399994 0.68570000
v 0.00000000 -0.07399994 0.68239999
v -0.00112897 -0.07399994 0.68259901
v -0.00057300 -0.07399994 0.68245000
v -0.00324994 -0.07399994 0.68512702
v -0.00285798 -0.07399994 0.68405002
v -0.00310099 -0.07399994 0.68457103
v -0.00212097 -0.07399994 0.68317199
v -0.00164997 -0.07399994 0.68284202
v -0.00252795 -0.07399994 0.68357903
v 0.00164997 -0.07599997 0.73415798
v 0.00252795 -0.07599997 0.73342103
v 0.00212097 -0.07599997 0.73382801
v 0.00324994 -0.07599997 0.73187298
v 0.00285798 -0.07599997 0.73294997
v 0.00310099 -0.07599997 0.73242903
v 0.00057300 -0.07599997 0.73455000
v 0.00112897 -0.07599997 0.73440099
v -0.00057300 -0.07599997 0.73455000
v 0.00000000 -0.07599997 0.73460001
v -0.00164997 -0.07599997 0.73415798
v -0.00112897 -0.07599997 0.73440099
v -0.00310099 -0.07599997 0.73242903
v -0.00252795 -0.07599997 0.73342103
v -0.00285798 -0.07599997 0.73294997
v -0.00212097 -0.07599997 0.73382801
v -0.00329995 -0.07599997 0.73130000
v -0.00324994 -0.07599997 0.73187298
v 0.00329995 -0.07599997 0.73130000
v 0.00285798 -0.07599997 0.68405002
v 0.00324994 -0.07599997 0.68512702
v 0.00329995 -0.07599997 0.68570000
v 0.00310099 -0.07599997 0.68457103
v 0.00252795 -0.07599997 0.68357903
v 0.00164997 -0.07599997 0.68284202
v 0.00212097 -0.07599997 0.68317199
v -0.00329995 -0.07599997 0.68570000
v -0.00324994 -0.07599997 0.68512702
v -0.00057300 -0.07599997 0.68245000
v 0.00057300 -0.07599997 0.68245000
v 0.00112897 -0.07599997 0.68259901
v 0.00000000 -0.07599997 0.68239999
v -0.00164997 -0.07599997 0.68284202
v -0.00112897 -0.07599997 0.68259901
v -0.00252795 -0.07599997 0.68357903
v -0.00212097 -0.07599997 0.68317199
v -0.00310099 -0.07599997 0.68457103
v -0.00285798 -0.07599997 0.68405002
v 0.00329995 0.07600003 0.68570000
v 0.00329995 0.07400000 0.73130000
v 0.00329995 0.07400000 0.68570000
v 0.00329995 0.07600003 0.73130000
v -0.00324994 0.07600003 0.73187298
v -0.00329995 0.07400000 0.73130000
v -0.00324994 0.07400000 0.73187298
v -0.00329995 0.07600003 0.73130000
v -0.00310099 0.07600003 0.73242903
v -0.00310099 0.07400000 0.73242903
v -0.00285798 0.07600003 0.73294997
v -0.00285798 0.07400000 0.73294997
v -0.00252795 0.07600003 0.73342103
v -0.00252795 0.07400000 0.73342103
v -0.00212097 0.07600003 0.73382801
v -0.00212097 0.07400000 0.73382801
v -0.00164997 0.07600003 0.73415798
v -0.00164997 0.07400000 0.73415798
v -0.00112897 0.07600003 0.73440099
v -0.00112897 0.07400000 0.73440099
v -0.00057300 0.07600003 0.73455000
v -0.00057300 0.07400000 0.73455000
v 0.00000000 0.07600003 0.73460001
v 0.00000000 0.07400000 0.73460001
v 0.00057300 0.07600003 0.73455000
v 0.00057300 0.07400000 0.73455000
v 0.00112897 0.07600003 0.73440099
v 0.00112897 0.07400000 0.73440099
v 0.00164997 0.07600003 0.73415798
v 0.00164997 0.07400000 0.73415798
v 0.00212097 0.07600003 0.73382801
v 0.00212097 0.07400000 0.73382801
v 0.00252795 0.07600003 0.73342103
v 0.00252795 0.07400000 0.73342103
v 0.00285798 0.07600003 0.73294997
v 0.00285798 0.07400000 0.73294997
v 0.00310099 0.07600003 0.73242903
v 0.00310099 0.07400000 0.73242903
v 0.00324994 0.07600003 0.73187298
v 0.00324994 0.07400000 0.73187298
v 0.00329995 0.07600003 0.73130000
v 0.00329995 0.07400000 0.73130000
v -0.00329995 0.07600003 0.73130000
v -0.00329995 0.07400000 0.68570000
v -0.00329995 0.07400000 0.73130000
v -0.00329995 0.07600003 0.68570000
v 0.00324994 0.07600003 0.68512702
v 0.00329995 0.07400000 0.68570000
v 0.00324994 0.07400000 0.68512702
v 0.00329995 0.07600003 0.68570000
v 0.00310099 0.07600003 0.68457103
v 0.00310099 0.07400000 0.68457103
v 0.00285798 0.07600003 0.68405002
v 0.00285798 0.07400000 0.68405002
v 0.00252795 0.07600003 0.68357903
v 0.00252795 0.07400000 0.68357903
v 0.00212097 0.07600003 0.68317199
v 0.00212097 0.07400000 0.68317199
v 0.00164997 0.07600003 0.68284202
v 0.00164997 0.07400000 0.68284202
v 0.00112897 0.07600003 0.68259901
v 0.00112897 0.07400000 0.68259901
v 0.00057300 0.07600003 0.68245000
v 0.00057300 0.07400000 0.68245000
v 0.00000000 0.07600003 0.68239999
v 0.00000000 0.07400000 0.68239999
v -0.00057300 0.07600003 0.68245000
v -0.00057300 0.07400000 0.68245000
v -0.00112897 0.07600003 0.68259901
v -0.00112897 0.07400000 0.68259901
v -0.00164997 0.07600003 0.68284202
v -0.00164997 0.07400000 0.68284202
v -0.00212097 0.07600003 0.68317199
v -0.00212097 0.07400000 0.68317199
v -0.00252795 0.07600003 0.68357903
v -0.00252795 0.07400000 0.68357903
v -0.00285798 0.07600003 0.68405002
v -0.00285798 0.07400000 0.68405002
v -0.00310099 0.07600003 0.68457103
v -0.00310099 0.07400000 0.68457103
v -0.00324994 0.07600003 0.68512702
v -0.00324994 0.07400000 0.68512702
v -0.00329995 0.07600003 0.68570000
v -0.00329995 0.07400000 0.68570000
v 0.00164997 0.07600003 0.73415798
v 0.00212097 0.07600003 0.73382801
v 0.00252795 0.07600003 0.73342103
v 0.00310099 0.07600003 0.73242903
v 0.00285798 0.07600003 0.73294997
v 0.00324994 0.07600003 0.73187298
v 0.00057300 0.07600003 0.73455000
v 0.00112897 0.07600003 0.73440099
v -0.00057300 0.07600003 0.73455000
v 0.00000000 0.07600003 0.73460001
v -0.00164997 0.07600003 0.73415798
v -0.00112897 0.07600003 0.73440099
v -0.00285798 0.07600003 0.73294997
v -0.00252795 0.07600003 0.73342103
v -0.00212097 0.07600003 0.73382801
v -0.00324994 0.07600003 0.73187298
v -0.00310099 0.07600003 0.73242903
v -0.00329995 0.07600003 0.73130000
v 0.00329995 0.07600003 0.73130000
v 0.00310099 0.07600003 0.68457103
v 0.00329995 0.07600003 0.68570000
v 0.00324994 0.07600003 0.68512702
v 0.00285798 0.07600003 0.68405002
v 0.00164997 0.07600003 0.68284202
v 0.00252795 0.07600003 0.68357903
v 0.00212097 0.07600003 0.68317199
v 0.00057300 0.07600003 0.68245000
v 0.00112897 0.07600003 0.68259901
v -0.00329995 0.07600003 0.68570000
v 0.00000000 0.07600003 0.68239999
v -0.00112897 0.07600003 0.68259901
v -0.00057300 0.07600003 0.68245000
v -0.00324994 0.07600003 0.68512702
v -0.00285798 0.07600003 0.68405002
v -0.00310099 0.07600003 0.68457103
v -0.00212097 0.07600003 0.68317199
v -0.00164997 0.07600003 0.68284202
v -0.00252795 0.07600003 0.68357903
v 0.00164997 0.07400000 0.73415798
v 0.00252795 0.07400000 0.73342103
v 0.00212097 0.07400000 0.73382801
v 0.00324994 0.07400000 0.73187298
v 0.00285798 0.07400000 0.73294997
v 0.00310099 0.07400000 0.73242903
v 0.00057300 0.07400000 0.73455000
v 0.00112897 0.07400000 0.73440099
v -0.00057300 0.07400000 0.73455000
v 0.00000000 0.07400000 0.73460001
v -0.00164997 0.07400000 0.73415798
v -0.00112897 0.07400000 0.73440099
v -0.00310099 0.07400000 0.73242903
v -0.00252795 0.07400000 0.73342103
v -0.00285798 0.07400000 0.73294997
v -0.00212097 0.07400000 0.73382801
v -0.00329995 0.07400000 0.73130000
v -0.00324994 0.07400000 0.73187298
v 0.00329995 0.07400000 0.73130000
v 0.00285798 0.07400000 0.68405002
v 0.00324994 0.07400000 0.68512702
v 0.00329995 0.07400000 0.68570000
v 0.00310099 0.07400000 0.68457103
v 0.00252795 0.07400000 0.68357903
v 0.00164997 0.07400000 0.68284202
v 0.00212097 0.07400000 0.68317199
v -0.00329995 0.07400000 0.68570000
v -0.00324994 0.07400000 0.68512702
v -0.00057300 0.07400000 0.68245000
v 0.00057300 0.07400000 0.68245000
v 0.00112897 0.07400000 0.68259901
v 0.00000000 0.07400000 0.68239999
v -0.00164997 0.07400000 0.68284202
v -0.00112897 0.07400000 0.68259901
v -0.00252795 0.07400000 0.68357903
v -0.00212097 0.07400000 0.68317199
v -0.00310099 0.07400000 0.68457103
v -0.00285798 0.07400000 0.68405002
f 1 2 3
f 1 4 2
f 5 6 7
f 5 8 6
f 9 7 10
f 9 5 7
f 11 10 12
f 11 9 10
f 13 12 14
f 13 11 12
f 15 14 16
f 15 13 14
f 17 16 18
f 17 15 16
f 19 18 20
f 19 17 18
f 21 20 22
f 21 19 20
f 23 22 24
f 23 21 22
f 25 24 26
f 25 23 24
f 27 26 28
f 27 25 26
f 29 28 30
f 29 27 28
f 31 30 32
f 31 29 30
f 33 32 34
f 33 31 32
f 35 33 34
f 35 34 36
f 37 35 36
f 37 36 38
f 39 37 38
f 39 38 40
f 41 39 40
f 41 40 42
f 43 44 45
f 43 46 44
f 47 48 49
f 47 50 48
f 51 49 52
f 51 47 49
f 53 52 54
f 53 51 52
f 55 54 56
f 55 53 54
f 57 56 58
f 57 55 56
f 59 58 60
f 59 57 58
f 61 60 62
f 61 59 60
f 63 62 64
f 63 61 62
f 65 64 66
f 65 63 64
f 67 66 68
f 67 65 66
f 69 68 70
f 69 67 68
f 71 70 72
f 71 69 70
f 73 72 74
f 73 71 72
f 75 74 76
f 75 73 74
f 77 75 76
f 77 76 78
f 79 77 78
f 79 78 80
f 81 79 80
f 81 80 82
f 83 81 82
f 83 82 84
f 85 86 87
f 88 87 89
f 90 87 88
f 91 92 85
f 93 94 91
f 93 85 87
f 93 91 85
f 93 87 90
f 95 96 93
f 97 98 99
f 97 99 95
f 100 101 97
f 100 97 95
f 100 95 93
f 102 90 103
f 102 93 90
f 102 100 93
f 104 105 106
f 107 105 104
f 108 109 110
f 111 108 112
f 113 107 109
f 113 111 114
f 113 103 105
f 113 102 103
f 113 105 107
f 113 109 108
f 113 108 111
f 115 114 116
f 115 117 113
f 115 113 114
f 118 119 117
f 120 115 121
f 122 117 115
f 122 118 117
f 122 115 120
f 123 124 125
f 126 127 124
f 126 128 127
f 129 123 130
f 131 129 132
f 131 124 123
f 131 123 129
f 131 126 124
f 133 131 134
f 135 136 137
f 135 138 136
f 135 133 138
f 139 135 140
f 139 141 126
f 139 126 131
f 139 131 133
f 139 133 135
f 142 143 144
f 142 145 143
f 146 142 144
f 147 148 146
f 149 144 141
f 149 141 139
f 150 146 144
f 150 144 149
f 151 152 153
f 151 154 152
f 155 151 153
f 155 153 147
f 155 156 151
f 157 146 150
f 157 155 147
f 157 158 155
f 157 159 160
f 157 150 159
f 157 147 146
f 161 162 163
f 161 164 162
f 165 166 167
f 165 168 166
f 169 167 170
f 169 165 167
f 171 170 172
f 171 169 170
f 173 172 174
f 173 171 172
f 175 174 176
f 175 173 174
f 177 176 178
f 177 175 176
f 179 178 180
f 179 177 178
f 181 180 182
f 181 179 180
f 183 182 184
f 183 181 182
f 185 184 186
f 185 183 184
f 187 186 188
f 187 185 186
f 189 188 190
f 189 187 188
f 191 190 192
f 191 189 190
f 193 192 194
f 193 191 192
f 195 193 194
f 195 194 196
f 197 195 196
f 197 196 198
f 199 197 198
f 199 198 200
f 201 199 200
f 201 200 202
f 203 204 205
f 203 206 204
f 207 208 209
f 207 210 208
f 211 209 212
f 211 207 209
f 213 212 214
f 213 211 212
f 215 214 216
f 215 213 214
f 217 216 218
f 217 215 216
f 219 218 220
f 219 217 218
f 221 220 222
f 221 219 220
f 223 222 224
f 223 221 222
f 225 224 226
f 225 223 224
f 227 226 228
f 227 225 226
f 229 228 230
f 229 227 228
f 231 230 232
f 231 229 230
f 233 232 234
f 233 231 232
f 235 234 236
f 235 233 234
f 237 235 236
f 237 236 238
f 239 237 238
f 239 238 240
f 241 239 240
f 241 240 242
f 243 241 242
f 243 242 244
f 245 246 247
f 248 247 249
f 250 247 248
f 251 252 245
f 253 254 251
f 253 245 247
f 253 251 245
f 253 247 250
f 255 256 253
f 257 258 259
f 257 259 255
f 260 261 257
f 260 257 255
f 260 255 253
f 262 250 263
f 262 253 250
f 262 260 253
f 264 265 266
f 267 265 264
f 268 269 270
f 271 268 272
f 273 267 269
f 273 271 274
f 273 263 265
f 273 262 263
f 273 265 267
f 273 269 268
f 273 268 271
f 275 274 276
f 275 277 273
f 275 273 274
f 278 279 277
f 280 275 281
f 282 277 275
f 282 278 277
f 282 275 280
f 283 284 285
f 286 287 284
f 286 288 287
f 289 283 290
f 291 289 292
f 291 284 283
f 291 283 289
f 291 286 284
f 293 291 294
f 295 296 297
f 295 298 296
f 295 293 298
f 299 295 300
f 299 301 286
f 299 286 291
f 299 291 293
f 299 293 295
f 302 303 304
f 302 305 303
f 306 302 304
f 307 308 306
f 309 304 301
f 309 301 299
f 310 306 304
f 310 304 309
f 311 312 313
f 311 314 312
f 315 311 313
f 315 313 307
f 315 316 311
f 317 306 310
f 317 315 307
f 317 318 315
f 317 319 320
f 317 310 319
f 317 307 306

