# https://github.com/mikedh/trimesh
v 0.06013196 0.09900003 0.93065512
v 0.04089099 0.09900003 0.94846803
v 0.05129098 0.09900003 0.94040310
v 0.02924895 0.09900003 0.95460403
v 0.07212096 0.09900003 0.90733498
v 0.06714695 0.09900003 0.91951901
v -0.00947195 0.09900003 0.95990402
v 0.00367898 0.09900003 0.96041012
v 0.01671797 0.09900003 0.95862597
v 0.07541000 0.09900003 0.88132101
v 0.07490295 0.09900003 0.89447212
v -0.03451895 0.09900003 0.95214701
v -0.02233499 0.09900003 0.95712101
v -0.04565495 0.09900003 0.94513202
v 0.06960397 0.09900003 0.85575098
v 0.07362598 0.09900003 0.86828202
v 0.06346797 0.09900003 0.84410900
v -0.06346797 0.09900003 0.92589098
v -0.05540299 0.09900003 0.93629098
v 0.05540299 0.09900003 0.83370912
v 0.03451895 0.09900003 0.81785297
v 0.04565495 0.09900003 0.82486802
v -0.07541000 0.09900003 0.88867903
v -0.06960397 0.09900003 0.91424900
v -0.07362598 0.09900003 0.90171802
v 0.00947195 0.09900003 0.81009698
v 0.02233499 0.09900003 0.81287903
v -0.06714695 0.09900003 0.85048097
v -0.07490295 0.09900003 0.87552798
v -0.07212096 0.09900003 0.86266500
v -0.06013196 0.09900003 0.83934498
v -0.04089099 0.09900003 0.82153201
v -0.05129098 0.09900003 0.82959712
v -0.01671797 0.09900003 0.81137401
v -0.02924895 0.09900003 0.81539601
v -0.00367898 0.09900003 0.80959010
v 0.06013196 0.09100002 0.93065512
v 0.05129098 0.09100002 0.94040310
v 0.04089099 0.09100002 0.94846803
v 0.02924895 0.09100002 0.95460403
v 0.07212096 0.09100002 0.90733498
v 0.06714695 0.09100002 0.91951901
v -0.00947195 0.09100002 0.95990402
v 0.01671797 0.09100002 0.95862597
v 0.00367898 0.09100002 0.96041012
v 0.07541000 0.09100002 0.88132101
v 0.07490295 0.09100002 0.89447212
v -0.03451895 0.09100002 0.95214701
v -0.02233499 0.09100002 0.95712101
v -0.04565495 0.09100002 0.94513202
v 0.06960397 0.09100002 0.85575098
v 0.07362598 0.09100002 0.86828202
v 0.06346797 0.09100002 0.84410900
v -0.06346797 0.09100002 0.92589098
v -0.05540299 0.09100002 0.93629098
v 0.05540299 0.09100002 0.83370912
v 0.03451895 0.09100002 0.81785297
v 0.04565495 0.09100002 0.82486802
v -0.07541000 0.09100002 0.88867903
v -0.06960397 0.09100002 0.91424900
v -0.07362598 0.09100002 0.90171802
v 0.00947195 0.09100002 0.81009698
v 0.02233499 0.09100002 0.81287903
v -0.06714695 0.09100002 0.85048097
v -0.07490295 0.09100002 0.87552798
v -0.07212096 0.09100002 0.86266500
v -0.06013196 0.09100002 0.83934498
v -0.04089099 0.09100002 0.82153201
v -0.05129098 0.09100002 0.82959712
v -0.02924895 0.09100002 0.81539601
v -0.01671797 0.09100002 0.81137401
v -0.00367898 0.09100002 0.80959010
v 0.02233499 0.09100002 0.81287903
v 0.00947195 0.09100002 0.81009698
v 0.00947195 0.09900003 0.81009698
v 0.02233499 0.09900003 0.81287903
v 0.03451895 0.09100002 0.81785297
v 0.03451895 0.09900003 0.81785297
v 0.04565495 0.09100002 0.82486802
v 0.04565495 0.09900003 0.82486802
v 0.05540299 0.09100002 0.83370912
v 0.05540299 0.09900003 0.83370912
v 0.06346797 0.09100002 0.84410900
v 0.06346797 0.09900003 0.84410900
v 0.06960397 0.09100002 0.85575098
v 0.06960397 0.09900003 0.85575098
v 0.07362598 0.09900003 0.86828202
v 0.07362598 0.09100002 0.86828202
v 0.07541000 0.09100002 0.88132101
v 0.07541000 0.09900003 0.88132101
v 0.07490295 0.09100002 0.89447212
v 0.07490295 0.09900003 0.89447212
v 0.07212096 0.09100002 0.90733498
v 0.07212096 0.09900003 0.90733498
v 0.06714695 0.09100002 0.91951901
v 0.06714695 0.09900003 0.91951901
v 0.06013196 0.09900003 0.93065512
v 0.06013196 0.09100002 0.93065512
v 0.05129098 0.09100002 0.94040310
v 0.05129098 0.09900003 0.94040310
v 0.04089099 0.09100002 0.94846803
v 0.04089099 0.09900003 0.94846803
v 0.02924895 0.09100002 0.95460403
v 0.02924895 0.09900003 0.95460403
v 0.01671797 0.09100002 0.95862597
v 0.01671797 0.09900003 0.95862597
v 0.00367898 0.09100002 0.96041012
v 0.00367898 0.09900003 0.96041012
v -0.00947195 0.09100002 0.95990402
v -0.00947195 0.09900003 0.95990402
v -0.02233499 0.09100002 0.95712101
v -0.02233499 0.09900003 0.95712101
v -0.03451895 0.09100002 0.95214701
v -0.03451895 0.09900003 0.95214701
v -0.04565495 0.09100002 0.94513202
v -0.04565495 0.09900003 0.94513202
v -0.05540299 0.09100002 0.93629098
v -0.05540299 0.09900003 0.93629098
v -0.06346797 0.09100002 0.92589098
v -0.06346797 0.09900003 0.92589098
v -0.06960397 0.09100002 0.91424900
v -0.06960397 0.09900003 0.91424900
v -0.07362598 0.09100002 0.90171802
v -0.07362598 0.09900003 0.90171802
v -0.07541000 0.09100002 0.88867903
v -0.07541000 0.09900003 0.88867903
v -0.07490295 0.09100002 0.87552798
v -0.07490295 0.09900003 0.87552798
v -0.07212096 0.09100002 0.86266500
v -0.07212096 0.09900003 0.86266500
v -0.06714695 0.09100002 0.85048097
v -0.06714695 0.09900003 0.85048097
v -0.06013196 0.09100002 0.83934498
v -0.06013196 0.09900003 0.83934498
v -0.05129098 0.09100002 0.82959712
v -0.05129098 0.09900003 0.82959712
v -0.04089099 0.09100002 0.82153201
v -0.04089099 0.09900003 0.82153201
v -0.02924895 0.09100002 0.81539601
v -0.02924895 0.09900003 0.81539601
v -0.01671797 0.09100002 0.81137401
v -0.01671797 0.09900003 0.81137401
v -0.00367898 0.09100002 0.80959010
v -0.00367898 0.09900003 0.80959010
v 0.00947195 0.09100002 0.81009698
v 0.00947195 0.09900003 0.81009698
v -0.06538498 -0.03774994 0.78850001
v -0.04852998 -0.05783593 0.78850001
v -0.05783599 -0.04852998 0.78850001
v -0.03774994 -0.06538492 0.78850001
v 0.00000000 -0.07549995 0.78850001
v -0.02582299 -0.07094693 0.78850001
v -0.01310998 -0.07435297 0.78850001
v -0.07549995 0.00000000 0.78850001
v -0.07094699 -0.02582293 0.78850001
v -0.07435297 -0.01310998 0.78850001
v -0.07435297 0.01310998 0.78850001
v 0.02582299 -0.07094693 0.78850001
v 0.01310998 -0.07435297 0.78850001
v -0.05783599 0.04852998 0.78850001
v -0.07094699 0.02582299 0.78850001
v -0.06538498 0.03775000 0.78850001
v 0.05783599 -0.04852998 0.78850001
v 0.03774994 -0.06538492 0.78850001
v 0.04852998 -0.05783593 0.78850001
v -0.04852998 0.05783599 0.78850001
v -0.01310998 0.07435297 0.78850001
v -0.03774994 0.06538498 0.78850001
v -0.02582299 0.07094699 0.78850001
v 0.07549995 0.00000000 0.78850001
v 0.06538498 -0.03774994 0.78850001
v 0.07094699 -0.02582293 0.78850001
v 0.07435297 -0.01310998 0.78850001
v 0.00000000 0.07550001 0.78850001
v 0.02582299 0.07094699 0.78850001
v 0.01310998 0.07435297 0.78850001
v 0.06538498 0.03775000 0.78850001
v 0.07435297 0.01310998 0.78850001
v 0.07094699 0.02582299 0.78850001
v 0.05783599 0.04852998 0.78850001
v 0.04852998 0.05783599 0.78850001
v 0.03774994 0.06538498 0.78850001
v -0.06538498 -0.03774994 0.79450011
v -0.05783599 -0.04852998 0.79450011
v -0.04852998 -0.05783593 0.79450011
v -0.03774994 -0.06538492 0.79450011
v 0.00000000 -0.07549995 0.79450011
v -0.02582299 -0.07094693 0.79450011
v -0.01310998 -0.07435297 0.79450011
v -0.07549995 0.00000000 0.79450011
v -0.07435297 -0.01310998 0.79450011
v -0.07094699 -0.02582293 0.79450011
v -0.07435297 0.01310998 0.79450011
v 0.02582299 -0.07094693 0.79450011
v 0.01310998 -0.07435297 0.79450011
v -0.05783599 0.04852998 0.79450011
v -0.06538498 0.03775000 0.79450011
v -0.07094699 0.02582299 0.79450011
v 0.05783599 -0.04852998 0.79450011
v 0.03774994 -0.06538492 0.79450011
v 0.04852998 -0.05783593 0.79450011
v -0.04852998 0.05783599 0.79450011
v -0.01310998 0.07435297 0.79450011
v -0.02582299 0.07094699 0.79450011
v -0.03774994 0.06538498 0.79450011
v 0.07549995 0.00000000 0.79450011
v 0.06538498 -0.03774994 0.79450011
v 0.07094699 -0.02582293 0.79450011
v 0.07435297 -0.01310998 0.79450011
v 0.00000000 0.07550001 0.79450011
v 0.02582299 0.07094699 0.79450011
v 0.01310998 0.07435297 0.79450011
v 0.06538498 0.03775000 0.79450011
v 0.07435297 0.01310998 0.79450011
v 0.07094699 0.02582299 0.79450011
v 0.05783599 0.04852998 0.79450011
v 0.04852998 0.05783599 0.79450011
v 0.03774994 0.06538498 0.79450011
v -0.01310998 0.07435297 0.79450011
v 0.00000000 0.07550001 0.79450011
v 0.00000000 0.07550001 0.78850001
v -0.01310998 0.07435297 0.78850001
v -0.02582299 0.07094699 0.79450011
v -0.02582299 0.07094699 0.78850001
v -0.03774994 0.06538498 0.79450011
v -0.03774994 0.06538498 0.78850001
v -0.04852998 0.05783599 0.79450011
v -0.04852998 0.05783599 0.78850001
v -0.05783599 0.04852998 0.79450011
v -0.05783599 0.04852998 0.78850001
v -0.06538498 0.03775000 0.78850001
v -0.06538498 0.03775000 0.79450011
v -0.07094699 0.02582299 0.79450011
v -0.07094699 0.02582299 0.78850001
v -0.07435297 0.01310998 0.79450011
v -0.07435297 0.01310998 0.78850001
v -0.07549995 0.00000000 0.79450011
v -0.07549995 0.00000000 0.78850001
v -0.07435297 -0.01310998 0.79450011
v -0.07435297 -0.01310998 0.78850001
v -0.07094699 -0.02582293 0.79450011
v -0.07094699 -0.02582293 0.78850001
v -0.06538498 -0.03774994 0.78850001
v -0.06538498 -0.03774994 0.79450011
v -0.05783599 -0.04852998 0.79450011
v -0.05783599 -0.04852998 0.78850001
v -0.04852998 -0.05783593 0.79450011
v -0.04852998 -0.05783593 0.78850001
v -0.03774994 -0.06538492 0.79450011
v -0.03774994 -0.06538492 0.78850001
v -0.02582299 -0.07094693 0.79450011
v -0.02582299 -0.07094693 0.78850001
v -0.01310998 -0.07435297 0.79450011
v -0.01310998 -0.07435297 0.78850001
v 0.00000000 -0.07549995 0.79450011
v 0.00000000 -0.07549995 0.78850001
v 0.01310998 -0.07435297 0.79450011
v 0.01310998 -0.07435297 0.78850001
v 0.02582299 -0.07094693 0.79450011
v 0.02582299 -0.07094693 0.78850001
v 0.03774994 -0.06538492 0.79450011
v 0.03774994 -0.06538492 0.78850001
v 0.04852998 -0.05783593 0.79450011
v 0.04852998 -0.05783593 0.78850001
v 0.05783599 -0.04852998 0.79450011
v 0.05783599 -0.04852998 0.78850001
v 0.06538498 -0.03774994 0.79450011
v 0.06538498 -0.03774994 0.78850001
v 0.07094699 -0.02582293 0.79450011
v 0.07094699 -0.02582293 0.78850001
v 0.07435297 -0.01310998 0.79450011
v 0.07435297 -0.01310998 0.78850001
v 0.07549995 0.00000000 0.79450011
v 0.07549995 0.00000000 0.78850001
v 0.07435297 0.01310998 0.79450011
v 0.07435297 0.01310998 0.78850001
v 0.07094699 0.02582299 0.79450011
v 0.07094699 0.02582299 0.78850001
v 0.06538498 0.03775000 0.79450011
v 0.06538498 0.03775000 0.78850001
v 0.05783599 0.04852998 0.79450011
v 0.05783599 0.04852998 0.78850001
v 0.04852998 0.05783599 0.79450011
v 0.04852998 0.05783599 0.78850001
v 0.03774994 0.06538498 0.79450011
v 0.03774994 0.06538498 0.78850001
v 0.02582299 0.07094699 0.79450011
v 0.02582299 0.07094699 0.78850001
v 0.01310998 0.07435297 0.79450011
v 0.01310998 0.07435297 0.78850001
v 0.00000000 0.07550001 0.78850001
v 0.00000000 0.07550001 0.79450011
f 1 2 3
f 1 4 2
f 5 1 6
f 7 8 9
f 10 5 11
f 10 1 5
f 12 9 4
f 12 13 7
f 12 7 9
f 14 4 1
f 14 12 4
f 15 10 16
f 17 10 15
f 18 19 14
f 18 14 1
f 20 1 10
f 20 10 17
f 21 20 22
f 23 24 18
f 23 25 24
f 23 18 1
f 26 21 27
f 26 20 21
f 28 29 23
f 28 30 29
f 31 1 20
f 31 23 1
f 31 20 26
f 31 28 23
f 32 33 31
f 32 34 35
f 32 36 34
f 32 26 36
f 32 31 26
f 37 38 39
f 37 39 40
f 41 42 37
f 43 44 45
f 46 47 41
f 46 41 37
f 48 40 44
f 48 43 49
f 48 44 43
f 50 37 40
f 50 40 48
f 51 52 46
f 53 51 46
f 54 50 55
f 54 37 50
f 56 46 37
f 56 53 46
f 57 58 56
f 59 54 60
f 59 60 61
f 59 37 54
f 62 63 57
f 62 57 56
f 64 59 65
f 64 65 66
f 67 56 37
f 67 37 59
f 67 62 56
f 67 59 64
f 68 67 69
f 68 70 71
f 68 71 72
f 68 72 62
f 68 62 67
f 73 74 75
f 73 75 76
f 77 76 78
f 77 73 76
f 79 78 80
f 79 77 78
f 81 80 82
f 81 79 80
f 83 82 84
f 83 81 82
f 85 84 86
f 85 86 87
f 85 83 84
f 88 85 87
f 89 88 87
f 89 87 90
f 91 89 90
f 91 90 92
f 93 91 92
f 93 92 94
f 95 93 94
f 95 94 96
f 95 96 97
f 98 95 97
f 99 98 97
f 99 97 100
f 101 99 100
f 101 100 102
f 103 101 102
f 103 102 104
f 105 103 104
f 105 104 106
f 107 105 106
f 107 106 108
f 109 107 108
f 109 108 110
f 111 109 110
f 111 110 112
f 113 112 114
f 113 111 112
f 115 113 114
f 115 114 116
f 117 116 118
f 117 115 116
f 119 118 120
f 119 117 118
f 121 120 122
f 121 119 120
f 123 122 124
f 123 121 122
f 125 124 126
f 125 123 124
f 127 126 128
f 127 125 126
f 129 128 130
f 129 127 128
f 131 130 132
f 131 129 130
f 133 132 134
f 133 131 132
f 135 133 134
f 135 134 136
f 137 135 136
f 137 136 138
f 139 137 138
f 139 138 140
f 141 139 140
f 141 140 142
f 143 141 142
f 143 142 144
f 145 143 144
f 145 144 146
f 147 148 149
f 147 150 148
f 151 152 150
f 151 153 152
f 154 155 156
f 154 147 155
f 157 147 154
f 158 159 151
f 158 150 147
f 158 151 150
f 160 161 162
f 163 164 158
f 163 165 164
f 163 158 147
f 166 157 161
f 166 147 157
f 166 161 160
f 167 168 169
f 167 166 168
f 170 171 163
f 170 172 171
f 170 173 172
f 174 166 167
f 175 174 176
f 175 166 174
f 177 178 170
f 177 179 178
f 177 163 147
f 177 147 166
f 177 170 163
f 180 177 166
f 181 175 182
f 181 180 166
f 181 166 175
f 183 184 185
f 183 185 186
f 187 186 188
f 187 188 189
f 190 191 192
f 190 192 183
f 193 190 183
f 194 187 195
f 194 183 186
f 194 186 187
f 196 197 198
f 199 194 200
f 199 200 201
f 199 183 194
f 202 198 193
f 202 193 183
f 202 196 198
f 203 204 205
f 203 205 202
f 206 199 207
f 206 207 208
f 206 208 209
f 210 203 202
f 211 212 210
f 211 210 202
f 213 206 214
f 213 214 215
f 213 183 199
f 213 202 183
f 213 199 206
f 216 202 213
f 217 218 211
f 217 202 216
f 217 211 202
f 219 220 221
f 219 221 222
f 223 222 224
f 223 219 222
f 225 224 226
f 225 223 224
f 227 226 228
f 227 225 226
f 229 228 230
f 229 230 231
f 229 227 228
f 232 229 231
f 233 232 231
f 233 231 234
f 235 233 234
f 235 234 236
f 237 235 236
f 237 236 238
f 239 237 238
f 239 238 240
f 241 239 240
f 241 240 242
f 241 242 243
f 244 241 243
f 245 244 243
f 245 243 246
f 247 245 246
f 247 246 248
f 249 247 248
f 249 248 250
f 251 249 250
f 251 250 252
f 253 251 252
f 253 252 254
f 255 253 254
f 255 254 256
f 257 256 258
f 257 255 256
f 259 258 260
f 259 257 258
f 261 260 262
f 261 259 260
f 263 262 264
f 263 261 262
f 265 264 266
f 265 263 264
f 267 266 268
f 267 265 266
f 269 268 270
f 269 267 268
f 271 270 272
f 271 269 270
f 273 272 274
f 273 271 272
f 275 274 276
f 275 273 274
f 277 276 278
f 277 275 276
f 279 278 280
f 279 277 278
f 281 279 280
f 281 280 282
f 283 281 282
f 283 282 284
f 285 283 284
f 285 284 286
f 287 285 286
f 287 286 288
f 289 287 288
f 289 288 290
f 289 290 291
f 292 289 291

