# https://github.com/mikedh/trimesh
v 0.00528705 -0.04559658 0.05890704
v -0.00888538 -0.04515840 0.05847415
v -0.00181228 -0.04580737 0.05911527
v 0.01230978 -0.04452907 0.05785242
v -0.01582968 -0.04365909 0.05699295
v -0.05804991 0.00841053 0.00555250
v -0.05804991 0.00397900 0.00993048
v -0.05734854 -0.00042345 0.01427979
v 0.01915413 -0.04262030 0.05596672
v -0.02327233 -0.04102262 0.05438835
v -0.05734854 0.01281298 0.00120324
v 0.02572095 -0.03989797 0.05327729
v -0.03104817 -0.03695172 0.05036664
v 0.03191494 -0.03640148 0.04982305
v 0.03764653 -0.03218149 0.04565406
v -0.03887724 -0.03112652 0.04461183
v 0.04283255 -0.02729926 0.04083082
v -0.04632586 -0.02323573 0.03681640
v 0.04739785 -0.02182545 0.03542316
v 0.05127626 -0.01583936 0.02950941
v -0.05276679 -0.01303211 0.02673608
v 0.05485010 -0.00834579 0.02210639
v 0.05734854 -0.00042345 0.01427979
v 0.05734854 0.01281298 0.00120324
v 0.05804991 0.00397900 0.00993048
v 0.05734854 0.01281298 0.00120324
v 0.05804991 0.00397900 0.00993048
v 0.05804991 0.00841053 0.00555250
v -0.05467355 0.02117847 -0.00706108
v 0.00512749 0.05800039 -0.04343803
v -0.00000000 0.05822495 -0.04365989
v -0.00654352 0.05785880 -0.04329816
v 0.05288195 0.02518887 -0.01102302
v -0.05080020 0.02905486 -0.01484230
v 0.01021617 0.05732835 -0.04277411
v 0.00512749 0.05800039 -0.04343803
v -0.00654352 0.05785880 -0.04329816
v -0.01300638 0.05676473 -0.04221731
v 0.01699310 0.05570969 -0.04117502
v -0.01930868 0.05495628 -0.04043071
v 0.04662841 0.03523601 -0.02094876
v -0.04140758 0.04115081 -0.02679202
v -0.04581344 0.03626965 -0.02196990
v 0.02424126 0.05298334 -0.03848162
v -0.02537280 0.05245576 -0.03796040
v 0.03940141 0.04304856 -0.02866689
v -0.03649085 0.04551021 -0.03109880
v 0.03180056 0.04886488 -0.03441293
v -0.03112381 0.04929406 -0.03483692
v -0.05490303 -0.07030156 0.00967420
v -0.04828089 -0.07041216 0.02786801
v -0.05238783 -0.07035862 0.01906081
v 0.00968087 -0.07057645 0.05489554
v 0.00000000 -0.07058160 0.05574250
v -0.00968087 -0.07057645 0.05489554
v -0.01906758 -0.07056116 0.05238038
v -0.02787500 -0.07053620 0.04827352
v -0.03583538 -0.07050232 0.04269969
v -0.04828089 -0.07007327 -0.02788090
v -0.05490303 -0.07018387 -0.00968716
v -0.05238783 -0.07012680 -0.01907370
v 0.02787500 -0.07053620 0.04827352
v 0.01906758 -0.07056116 0.05238038
v 0.03583538 -0.07050232 0.04269969
v -0.04270696 -0.07046054 0.03582824
v 0.04828089 -0.07041216 0.02786801
v -0.05574995 -0.07024271 -0.00000645
v 0.04270696 -0.07046054 0.03582824
v -0.01906758 -0.06992426 -0.05239334
v -0.03583538 -0.06998311 -0.04271259
v -0.02787500 -0.06994922 -0.04828648
v -0.00968087 -0.06990897 -0.05490844
v -0.04270696 -0.07002488 -0.03584120
v 0.05574995 -0.07024271 -0.00000645
v 0.05490303 -0.07030156 0.00967420
v 0.05238783 -0.07035862 0.01906081
v 0.05490303 -0.07018387 -0.00968716
v 0.02787500 -0.06994922 -0.04828648
v -0.00000000 -0.06990382 -0.05575540
v 0.00968087 -0.06990897 -0.05490844
v 0.01906758 -0.06992426 -0.05239334
v 0.04828089 -0.07007327 -0.02788090
v 0.05238783 -0.07012680 -0.01907370
v 0.03583538 -0.06998311 -0.04271259
v 0.04270696 -0.07002488 -0.03584120
v -0.03583538 -0.06900234 0.04270881
v -0.02986007 -0.06905206 0.05088755
v -0.03822153 -0.06901594 0.04494746
v -0.04270696 -0.06896056 0.03583736
v -0.04542785 -0.06897157 0.03764907
v -0.02787500 -0.06903622 0.04828264
v -0.04828089 -0.06891218 0.02787712
v -0.05126130 -0.06892030 0.02921296
v -0.02059620 -0.06907881 0.05528987
v -0.01906758 -0.06906118 0.05238950
v -0.05238783 -0.06885864 0.01906993
v -0.05554562 -0.06886365 0.01989406
v -0.01070994 -0.06909542 0.05802132
v -0.00968087 -0.06907647 0.05490466
v -0.05490303 -0.06880157 0.00968332
v -0.05815124 -0.06880335 0.00997401
v -0.00050000 -0.06909954 0.05869944
v -0.00050000 -0.06910136 0.05899942
v 0.00000000 -0.06908162 0.05575162
v 0.00050000 -0.06909954 0.05869944
v -0.05574995 -0.06874273 0.00000266
v -0.05899941 -0.06874121 -0.00024734
v 0.01070994 -0.06909542 0.05802132
v 0.00050000 -0.06910136 0.05899942
v 0.00968087 -0.06907647 0.05490466
v -0.05490303 -0.06868389 -0.00967805
v -0.05806463 -0.06867912 -0.01046112
v 0.01906758 -0.06906118 0.05238950
v 0.02059620 -0.06907881 0.05528987
v -0.05238783 -0.06862682 -0.01906459
v -0.05537503 -0.06861895 -0.02035876
v 0.02787500 -0.06903622 0.04828264
v 0.02986007 -0.06905206 0.05088755
v -0.04828089 -0.06857329 -0.02787179
v -0.05101191 -0.06856253 -0.02964100
v 0.03583538 -0.06900234 0.04270881
v -0.04270696 -0.06852490 -0.03583208
v -0.04510718 -0.06851155 -0.03802739
v 0.03822153 -0.06901594 0.04494746
v 0.04270696 -0.06896056 0.03583736
v -0.03583538 -0.06848313 -0.04270347
v -0.03783923 -0.06846756 -0.04526446
v 0.04542785 -0.06897157 0.03764907
v 0.04828089 -0.06891218 0.02787712
v -0.02787500 -0.06844924 -0.04827736
v -0.02942776 -0.06843188 -0.05113349
v 0.05126130 -0.06892030 0.02921296
v 0.05238783 -0.06885864 0.01906993
v -0.01906758 -0.06842428 -0.05238422
v -0.02012693 -0.06840560 -0.05545713
v 0.05554562 -0.06886365 0.01989406
v 0.05490303 -0.06880157 0.00968332
v -0.00968087 -0.06840899 -0.05489932
v -0.01021784 -0.06838951 -0.05810473
v 0.05815124 -0.06880335 0.00997401
v 0.05574995 -0.06874273 0.00000266
v -0.00000000 -0.06840384 -0.05574628
v -0.00000000 -0.06838408 -0.05899622
v 0.05899941 -0.06874121 -0.00024734
v 0.05490303 -0.06868389 -0.00967805
v 0.01021784 -0.06838951 -0.05810473
v 0.00968087 -0.06840899 -0.05489932
v 0.05806463 -0.06867912 -0.01046112
v 0.05238783 -0.06862682 -0.01906459
v 0.02012693 -0.06840560 -0.05545713
v 0.01906758 -0.06842428 -0.05238422
v 0.05537503 -0.06861895 -0.02035876
v 0.04828089 -0.06857329 -0.02787179
v 0.02942776 -0.06843188 -0.05113349
v 0.02787500 -0.06844924 -0.04827736
v 0.05101191 -0.06856253 -0.02964100
v 0.04270696 -0.06852490 -0.03583208
v 0.03783923 -0.06846756 -0.04526446
v 0.03583538 -0.06848313 -0.04270347
v 0.04510718 -0.06851155 -0.03802739
v -0.00968087 -0.07057645 0.05489554
v 0.00000000 -0.07058160 0.05574250
v 0.00000000 -0.06908162 0.05575162
v -0.00968087 -0.06907647 0.05490466
v -0.01906758 -0.07056116 0.05238038
v -0.01906758 -0.06906118 0.05238950
v -0.02787500 -0.07053620 0.04827352
v -0.02787500 -0.06903622 0.04828264
v -0.03583538 -0.07050232 0.04269969
v -0.03583538 -0.06900234 0.04270881
v -0.04270696 -0.07046054 0.03582824
v -0.04270696 -0.06896056 0.03583736
v -0.04828089 -0.07041216 0.02786801
v -0.04828089 -0.06891218 0.02787712
v -0.05238783 -0.07035862 0.01906081
v -0.05238783 -0.06885864 0.01906993
v -0.05490303 -0.07030156 0.00967420
v -0.05490303 -0.06880157 0.00968332
v -0.05574995 -0.07024271 -0.00000645
v -0.05574995 -0.06874273 0.00000266
v -0.05490303 -0.07018387 -0.00968716
v -0.05490303 -0.06868389 -0.00967805
v -0.05238783 -0.07012680 -0.01907370
v -0.05238783 -0.06862682 -0.01906459
v -0.04828089 -0.07007327 -0.02788090
v -0.04828089 -0.06857329 -0.02787179
v -0.04270696 -0.07002488 -0.03584120
v -0.04270696 -0.06852490 -0.03583208
v -0.03583538 -0.06998311 -0.04271259
v -0.03583538 -0.06848313 -0.04270347
v -0.02787500 -0.06994922 -0.04828648
v -0.02787500 -0.06844924 -0.04827736
v -0.01906758 -0.06992426 -0.05239334
v -0.01906758 -0.06842428 -0.05238422
v -0.00968087 -0.06990897 -0.05490844
v -0.00968087 -0.06840899 -0.05489932
v -0.00000000 -0.06990382 -0.05575540
v -0.00000000 -0.06840384 -0.05574628
v 0.00968087 -0.06990897 -0.05490844
v 0.00968087 -0.06840899 -0.05489932
v 0.01906758 -0.06992426 -0.05239334
v 0.01906758 -0.06842428 -0.05238422
v 0.02787500 -0.06994922 -0.04828648
v 0.02787500 -0.06844924 -0.04827736
v 0.03583538 -0.06998311 -0.04271259
v 0.03583538 -0.06848313 -0.04270347
v 0.04270696 -0.07002488 -0.03584120
v 0.04270696 -0.06852490 -0.03583208
v 0.04828089 -0.07007327 -0.02788090
v 0.04828089 -0.06857329 -0.02787179
v 0.05238783 -0.07012680 -0.01907370
v 0.05238783 -0.06862682 -0.01906459
v 0.05490303 -0.07018387 -0.00968716
v 0.05490303 -0.06868389 -0.00967805
v 0.05574995 -0.07024271 -0.00000645
v 0.05574995 -0.06874273 0.00000266
v 0.05490303 -0.07030156 0.00967420
v 0.05490303 -0.06880157 0.00968332
v 0.05238783 -0.07035862 0.01906081
v 0.05238783 -0.06885864 0.01906993
v 0.04828089 -0.06891218 0.02787712
v 0.04828089 -0.07041216 0.02786801
v 0.04270696 -0.07046054 0.03582824
v 0.04270696 -0.06896056 0.03583736
v 0.03583538 -0.07050232 0.04269969
v 0.03583538 -0.06900234 0.04270881
v 0.02787500 -0.06903622 0.04828264
v 0.02787500 -0.07053620 0.04827352
v 0.01906758 -0.07056116 0.05238038
v 0.01906758 -0.06906118 0.05238950
v 0.00968087 -0.07057645 0.05489554
v 0.00968087 -0.06907647 0.05490466
v 0.00000000 -0.06908162 0.05575162
v 0.00000000 -0.07058160 0.05574250
v -0.03535330 -0.04273070 -0.07304057
v -0.02978819 -0.05152610 -0.07309404
v -0.03813683 -0.04561575 -0.07305811
v -0.04213243 -0.03595169 -0.07299937
v -0.04533910 -0.03835229 -0.07301395
v -0.02749997 -0.04822955 -0.07307400
v -0.02054417 -0.05590564 -0.07312066
v -0.04763138 -0.02809851 -0.07295162
v -0.05117863 -0.02995402 -0.07296290
v -0.01881110 -0.05228116 -0.07309863
v -0.05168306 -0.01940980 -0.07289881
v -0.05547976 -0.02067339 -0.07290649
v -0.01068264 -0.05862279 -0.07313718
v -0.00955063 -0.05476246 -0.07311371
v -0.05416440 -0.01014950 -0.07284252
v -0.05811327 -0.01078933 -0.07284641
v -0.00050000 -0.05929792 -0.07314128
v -0.00050000 -0.05959583 -0.07314309
v -0.00000000 -0.05559797 -0.07311879
v 0.00050000 -0.05929792 -0.07314128
v -0.05499994 -0.00059898 -0.07278446
v -0.05899995 -0.00059898 -0.07278446
v -0.05811327 0.00959125 -0.07272252
v 0.01068264 -0.05862279 -0.07313718
v 0.00050000 -0.05959583 -0.07314309
v 0.00955063 -0.05476246 -0.07311371
v -0.05416440 0.00895141 -0.07272641
v -0.05547976 0.01947531 -0.07266243
v 0.01881110 -0.05228116 -0.07309863
v 0.02054417 -0.05590564 -0.07312066
v -0.05168306 0.01821171 -0.07267011
v -0.05117863 0.02875594 -0.07260601
v 0.02749997 -0.04822955 -0.07307400
v 0.02978819 -0.05152610 -0.07309404
v -0.04763138 0.02690042 -0.07261729
v -0.04533910 0.03715419 -0.07255496
v 0.03535330 -0.04273070 -0.07304057
v 0.03813683 -0.04561575 -0.07305811
v -0.04213243 0.03475361 -0.07256956
v 0.04213243 -0.03595169 -0.07299937
v -0.03813683 0.04441766 -0.07251081
v -0.03535330 0.04153261 -0.07252835
v 0.04533910 -0.03835229 -0.07301395
v 0.04763138 -0.02809851 -0.07295162
v -0.02978819 0.05032801 -0.07247488
v -0.02749997 0.04703146 -0.07249492
v 0.05117863 -0.02995402 -0.07296290
v 0.05168306 -0.01940980 -0.07289881
v -0.02054417 0.05470756 -0.07244826
v -0.01881110 0.05108307 -0.07247029
v 0.05547976 -0.02067339 -0.07290649
v 0.05416440 -0.01014950 -0.07284252
v -0.01068264 0.05742471 -0.07243174
v -0.00955063 0.05356436 -0.07245521
v 0.05811327 -0.01078933 -0.07284641
v 0.05499994 -0.00059898 -0.07278446
v -0.00050000 0.05809984 -0.07242764
v -0.00000000 0.05439994 -0.07245013
v -0.00050000 0.05839773 -0.07242583
v 0.05899995 -0.00059898 -0.07278446
v 0.00050000 0.05809984 -0.07242764
v 0.00955063 0.05356436 -0.07245521
v 0.05811327 0.00959125 -0.07272252
v 0.05416440 0.00895141 -0.07272641
v 0.01068264 0.05742471 -0.07243174
v 0.00050000 0.05839773 -0.07242583
v 0.01881110 0.05108307 -0.07247029
v 0.05547976 0.01947531 -0.07266243
v 0.05168306 0.01821171 -0.07267011
v 0.02054417 0.05470756 -0.07244826
v 0.02749997 0.04703146 -0.07249492
v 0.05117863 0.02875594 -0.07260601
v 0.04763138 0.02690042 -0.07261729
v 0.02978819 0.05032801 -0.07247488
v 0.03535330 0.04153261 -0.07252835
v 0.04533910 0.03715419 -0.07255496
v 0.04213243 0.03475361 -0.07256956
v 0.03813683 0.04441766 -0.07251081
v 0.00050000 0.05837949 -0.06942586
v 0.00050000 0.05839773 -0.07242583
v 0.00050000 0.05809984 -0.07242764
v 0.00050000 0.05808160 -0.06942767
v -0.00050000 0.05809984 -0.07242764
v -0.00050000 0.05837949 -0.06942586
v -0.00050000 0.05808160 -0.06942767
v -0.00050000 0.05839773 -0.07242583
v -0.00050000 0.05808160 -0.06942767
v -0.00049039 0.05808101 -0.06933010
v -0.00046194 0.05808044 -0.06923634
v -0.00050000 0.05808160 -0.06942767
v -0.00046194 0.05808044 -0.06923634
v -0.00041574 0.05807991 -0.06914986
v -0.00050000 0.05808160 -0.06942767
v -0.00041574 0.05807991 -0.06914986
v -0.00035355 0.05807945 -0.06907411
v -0.00050000 0.05808160 -0.06942767
v -0.00035355 0.05807945 -0.06907411
v -0.00027778 0.05807907 -0.06901194
v -0.00050000 0.05808160 -0.06942767
v -0.00027778 0.05807907 -0.06901194
v -0.00019134 0.05807879 -0.06896574
v 0.00050000 0.05808160 -0.06942767
v -0.00019134 0.05807879 -0.06896574
v -0.00009755 0.05807862 -0.06893725
v 0.00050000 0.05808160 -0.06942767
v -0.00009755 0.05807862 -0.06893725
v -0.00000000 0.05807856 -0.06892766
v 0.00050000 0.05808160 -0.06942767
v -0.00000000 0.05807856 -0.06892766
v 0.00009755 0.05807862 -0.06893725
v 0.00009755 0.05807862 -0.06893725
v 0.00019134 0.05807879 -0.06896574
v 0.00050000 0.05808160 -0.06942767
v 0.00019134 0.05807879 -0.06896574
v 0.00027778 0.05807907 -0.06901194
v 0.00050000 0.05808160 -0.06942767
v 0.00027778 0.05807907 -0.06901194
v 0.00035355 0.05807945 -0.06907411
v 0.00050000 0.05808160 -0.06942767
v 0.00035355 0.05807945 -0.06907411
v 0.00041574 0.05807991 -0.06914986
v 0.00050000 0.05808160 -0.06942767
v 0.00041574 0.05807991 -0.06914986
v 0.00046194 0.05808044 -0.06923634
v 0.00050000 0.05808160 -0.06942767
v 0.00046194 0.05808044 -0.06923634
v 0.00049039 0.05808101 -0.06933010
v -0.00019134 0.05807879 -0.06896574
v 0.00050000 0.05809984 -0.07242764
v -0.00050000 0.05809984 -0.07242764
v -0.00050000 0.05837949 -0.06942586
v -0.00049039 0.05808101 -0.06933010
v -0.00050000 0.05808160 -0.06942767
v -0.00046996 0.05837869 -0.06925521
v -0.00046194 0.05808044 -0.06923634
v -0.00041686 0.05837848 -0.06915001
v -0.00041574 0.05807991 -0.06914986
v -0.00035355 0.05807945 -0.06907411
v -0.00030736 0.05837841 -0.06903164
v -0.00027778 0.05807907 -0.06901194
v -0.00016131 0.05837853 -0.06895265
v -0.00019134 0.05807879 -0.06896574
v -0.00009755 0.05807862 -0.06893725
v -0.00000000 0.05837854 -0.06892584
v -0.00000000 0.05807856 -0.06892766
v 0.00009755 0.05807862 -0.06893725
v 0.00017062 0.05837849 -0.06895588
v 0.00019134 0.05807879 -0.06896574
v 0.00027586 0.05837845 -0.06900899
v 0.00027778 0.05807907 -0.06901194
v 0.00035355 0.05807945 -0.06907411
v 0.00039424 0.05837840 -0.06911848
v 0.00041574 0.05807991 -0.06914986
v 0.00047322 0.05837875 -0.06926457
v 0.00046194 0.05808044 -0.06923634
v 0.00049039 0.05808101 -0.06933010
v 0.00050000 0.05837949 -0.06942586
v 0.00050000 0.05808160 -0.06942767
v -0.00050000 -0.05959583 -0.07314309
v -0.00050000 -0.05931616 -0.07014132
v -0.00050000 -0.05961406 -0.07014313
v -0.00050000 -0.05929792 -0.07314128
v 0.00050000 -0.05931616 -0.07014132
v 0.00050000 -0.05929792 -0.07314128
v 0.00050000 -0.05959583 -0.07314309
v 0.00050000 -0.05961406 -0.07014313
v -0.00035355 -0.05931831 -0.06978776
v -0.00041574 -0.05931785 -0.06986351
v -0.00046194 -0.05931732 -0.06994998
v -0.00027778 -0.05931869 -0.06972559
v -0.00035355 -0.05931831 -0.06978776
v -0.00046194 -0.05931732 -0.06994998
v 0.00050000 -0.05931616 -0.07014132
v -0.00050000 -0.05929792 -0.07314128
v 0.00050000 -0.05929792 -0.07314128
v -0.00050000 -0.05931616 -0.07014132
v -0.00000000 -0.05931920 -0.06964131
v -0.00049039 -0.05931675 -0.07004375
v -0.00019134 -0.05931897 -0.06967939
v -0.00009755 -0.05931914 -0.06965090
v 0.00049039 -0.05931675 -0.07004375
v 0.00009755 -0.05931914 -0.06965090
v 0.00035355 -0.05931831 -0.06978776
v 0.00019134 -0.05931897 -0.06967939
v 0.00027778 -0.05931869 -0.06972559
v 0.00035355 -0.05931831 -0.06978776
v 0.00046194 -0.05931732 -0.06994998
v 0.00041574 -0.05931785 -0.06986351
v 0.00046194 -0.05931732 -0.06994998
v 0.00050000 -0.05961406 -0.07014313
v 0.00049039 -0.05931675 -0.07004375
v 0.00050000 -0.05931616 -0.07014132
v 0.00046469 -0.05961547 -0.06995859
v 0.00041574 -0.05931785 -0.06986351
v 0.00046194 -0.05931732 -0.06994998
v 0.00036410 -0.05961709 -0.06980047
v 0.00027778 -0.05931869 -0.06972559
v 0.00035355 -0.05931831 -0.06978776
v 0.00021239 -0.05961853 -0.06969050
v 0.00019134 -0.05931897 -0.06967939
v 0.00010559 -0.05961905 -0.06965444
v -0.00000000 -0.05931920 -0.06964131
v 0.00009755 -0.05931914 -0.06965090
v -0.00002953 -0.05961918 -0.06964401
v -0.00009755 -0.05931914 -0.06965090
v -0.00018800 -0.05961866 -0.06967983
v -0.00027778 -0.05931869 -0.06972559
v -0.00019134 -0.05931897 -0.06967939
v -0.00035036 -0.05961730 -0.06978641
v -0.00035355 -0.05931831 -0.06978776
v -0.00041783 -0.05961632 -0.06986848
v -0.00046194 -0.05931732 -0.06994998
v -0.00041574 -0.05931785 -0.06986351
v -0.00046990 -0.05961533 -0.06997224
v -0.00049039 -0.05931675 -0.07004375
v -0.00050000 -0.05961406 -0.07014313
v -0.00050000 -0.05931616 -0.07014132
v -0.00050000 -0.06909954 0.05869944
v -0.00050000 -0.06610139 0.05901765
v -0.00050000 -0.06910136 0.05899942
v -0.00050000 -0.06609956 0.05871767
v 0.00050000 -0.06910136 0.05899942
v 0.00050000 -0.06609956 0.05871767
v 0.00050000 -0.06909954 0.05869944
v 0.00050000 -0.06610139 0.05901765
v -0.00050000 -0.06609956 0.05871767
v -0.00050000 -0.06909954 0.05869944
v 0.00050000 -0.06909954 0.05869944
v -0.00041574 -0.06582182 0.05871936
v -0.00046194 -0.06590824 0.05871884
v -0.00049039 -0.06600206 0.05871826
v -0.00041574 -0.06582182 0.05871936
v -0.00049039 -0.06600206 0.05871826
v -0.00050000 -0.06609956 0.05871767
v -0.00027778 -0.06568389 0.05872020
v -0.00035355 -0.06574605 0.05871982
v -0.00041574 -0.06582182 0.05871936
v 0.00000000 -0.06559961 0.05872071
v -0.00009755 -0.06560922 0.05872065
v -0.00019134 -0.06563764 0.05872048
v 0.00050000 -0.06609956 0.05871767
v 0.00019134 -0.06563764 0.05872048
v 0.00009755 -0.06560922 0.05872065
v 0.00035355 -0.06574605 0.05871982
v 0.00050000 -0.06609956 0.05871767
v 0.00049039 -0.06600206 0.05871826
v 0.00035355 -0.06574605 0.05871982
v 0.00049039 -0.06600206 0.05871826
v 0.00046194 -0.06590824 0.05871884
v 0.00035355 -0.06574605 0.05871982
v 0.00046194 -0.06590824 0.05871884
v 0.00041574 -0.06582182 0.05871936
v 0.00035355 -0.06574605 0.05871982
v 0.00027778 -0.06568389 0.05872020
v 0.00019134 -0.06563764 0.05872048
v 0.00035355 -0.06574605 0.05871982
v -0.00019134 -0.06563764 0.05872048
v -0.00027778 -0.06568389 0.05872020
v 0.00035355 -0.06574605 0.05871982
v -0.00041574 -0.06582182 0.05871936
v -0.00050000 -0.06609956 0.05871767
v 0.00035355 -0.06574605 0.05871982
v -0.00027778 -0.06568389 0.05872020
v -0.00041574 -0.06582182 0.05871936
v 0.00035355 -0.06574605 0.05871982
v 0.00000000 -0.06559961 0.05872071
v -0.00019134 -0.06563764 0.05872048
v 0.00035355 -0.06574605 0.05871982
v 0.00019134 -0.06563764 0.05872048
v 0.00000000 -0.06559961 0.05872071
v 0.00035355 -0.06574605 0.05871982
v -0.00049039 -0.06600206 0.05871826
v -0.00050000 -0.06610139 0.05901765
v -0.00046990 -0.06593058 0.05901892
v -0.00046194 -0.06590824 0.05871884
v -0.00041783 -0.06582681 0.05901997
v -0.00041574 -0.06582182 0.05871936
v -0.00035355 -0.06574605 0.05871982
v -0.00035036 -0.06574473 0.05902089
v -0.00027778 -0.06568389 0.05872020
v -0.00018800 -0.06563812 0.05902231
v -0.00019134 -0.06563764 0.05872048
v -0.00009755 -0.06560922 0.05872065
v -0.00002953 -0.06560230 0.05902277
v 0.00000000 -0.06559961 0.05872071
v 0.00010559 -0.06561273 0.05902265
v 0.00009755 -0.06560922 0.05872065
v 0.00019134 -0.06563764 0.05872048
v 0.00021239 -0.06564878 0.05902213
v 0.00027778 -0.06568389 0.05872020
v 0.00036410 -0.06575874 0.05902075
v 0.00035355 -0.06574605 0.05871982
v 0.00041574 -0.06582182 0.05871936
v 0.00046469 -0.06591686 0.05901907
v 0.00046194 -0.06590824 0.05871884
v 0.00049039 -0.06600206 0.05871826
v 0.00050000 -0.06610139 0.05901765
f 1 2 3
f 4 5 2
f 4 2 1
f 6 7 8
f 9 10 5
f 9 5 4
f 11 6 8
f 12 13 10
f 12 10 9
f 14 13 12
f 15 16 13
f 15 13 14
f 17 18 16
f 17 16 15
f 19 18 17
f 20 21 18
f 20 18 19
f 22 8 21
f 22 21 20
f 23 8 22
f 24 23 25
f 26 27 28
f 24 8 23
f 24 29 11
f 24 11 8
f 30 31 32
f 33 29 24
f 33 34 29
f 35 36 37
f 35 37 38
f 39 38 40
f 39 35 38
f 41 34 33
f 41 42 43
f 41 43 34
f 44 39 40
f 44 40 45
f 46 42 41
f 46 47 42
f 48 45 49
f 48 49 47
f 48 44 45
f 48 47 46
f 50 51 52
f 53 54 55
f 53 55 56
f 53 56 57
f 53 57 58
f 59 60 61
f 62 63 53
f 64 58 65
f 64 65 51
f 64 62 53
f 64 53 58
f 66 50 67
f 66 67 60
f 66 68 64
f 66 51 50
f 66 64 51
f 69 70 71
f 72 73 70
f 72 70 69
f 74 75 76
f 74 76 66
f 77 60 59
f 77 66 60
f 77 74 66
f 78 79 80
f 78 80 81
f 82 59 73
f 82 83 77
f 82 73 72
f 82 77 59
f 84 72 79
f 84 79 78
f 85 72 84
f 85 82 72
f 86 87 88
f 89 88 90
f 89 86 88
f 91 87 86
f 92 90 93
f 92 89 90
f 94 87 91
f 95 94 91
f 96 93 97
f 96 92 93
f 98 94 95
f 99 98 95
f 100 97 101
f 100 96 97
f 102 103 98
f 102 98 99
f 104 105 102
f 104 102 99
f 106 101 107
f 106 100 101
f 108 109 105
f 110 105 104
f 110 108 105
f 111 107 112
f 111 106 107
f 113 108 110
f 113 114 108
f 115 112 116
f 115 111 112
f 117 114 113
f 117 118 114
f 119 116 120
f 119 115 116
f 121 118 117
f 122 120 123
f 122 119 120
f 124 118 121
f 125 124 121
f 126 122 123
f 127 126 123
f 128 124 125
f 129 128 125
f 130 126 127
f 131 130 127
f 132 128 129
f 133 132 129
f 134 130 131
f 135 134 131
f 136 132 133
f 137 136 133
f 138 134 135
f 139 138 135
f 140 136 137
f 141 140 137
f 142 138 139
f 143 142 139
f 144 140 141
f 145 144 141
f 146 147 142
f 146 142 143
f 148 144 145
f 149 148 145
f 150 151 147
f 150 147 146
f 152 148 149
f 153 152 149
f 154 151 150
f 154 155 151
f 156 152 153
f 156 153 157
f 158 155 154
f 158 159 155
f 160 156 157
f 160 159 158
f 160 157 159
f 161 162 163
f 161 163 164
f 165 164 166
f 165 161 164
f 167 166 168
f 167 165 166
f 169 168 170
f 169 167 168
f 171 170 172
f 171 169 170
f 173 171 172
f 173 172 174
f 175 173 174
f 175 174 176
f 177 175 176
f 177 176 178
f 179 177 178
f 179 178 180
f 181 179 180
f 181 180 182
f 183 181 182
f 183 182 184
f 185 183 184
f 185 184 186
f 187 185 186
f 187 186 188
f 189 187 188
f 189 188 190
f 191 189 190
f 191 190 192
f 193 191 192
f 193 192 194
f 195 193 194
f 195 194 196
f 197 195 196
f 197 196 198
f 199 198 200
f 199 197 198
f 201 200 202
f 201 199 200
f 203 202 204
f 203 201 202
f 205 204 206
f 205 203 204
f 207 206 208
f 207 205 206
f 209 208 210
f 209 207 208
f 211 210 212
f 211 209 210
f 213 212 214
f 213 211 212
f 215 214 216
f 215 213 214
f 217 216 218
f 217 215 216
f 219 220 221
f 219 218 220
f 219 217 218
f 222 219 221
f 223 221 224
f 223 222 221
f 225 223 224
f 225 226 227
f 225 224 226
f 228 225 227
f 229 228 227
f 229 227 230
f 231 229 230
f 231 232 233
f 231 230 232
f 234 231 233
f 235 236 237
f 238 237 239
f 238 235 237
f 240 241 236
f 240 236 235
f 242 239 243
f 242 238 239
f 244 241 240
f 245 243 246
f 245 242 243
f 247 241 244
f 248 247 244
f 249 246 250
f 249 245 246
f 251 252 247
f 251 247 248
f 253 251 248
f 253 254 251
f 255 250 256
f 255 249 250
f 257 255 256
f 258 259 254
f 260 258 254
f 260 254 253
f 261 255 257
f 262 261 257
f 263 258 260
f 263 264 258
f 265 261 262
f 266 265 262
f 267 268 264
f 267 264 263
f 269 265 266
f 270 269 266
f 271 272 268
f 271 268 267
f 273 269 270
f 274 272 271
f 275 273 270
f 275 276 273
f 277 272 274
f 278 277 274
f 279 280 276
f 279 276 275
f 281 277 278
f 282 281 278
f 283 284 280
f 283 280 279
f 285 281 282
f 286 285 282
f 287 284 283
f 287 288 284
f 289 285 286
f 290 289 286
f 291 292 288
f 291 288 287
f 293 291 287
f 294 289 290
f 295 292 291
f 296 292 295
f 297 290 298
f 297 294 290
f 299 296 295
f 299 295 300
f 301 296 299
f 302 297 298
f 302 298 303
f 304 301 299
f 304 305 301
f 306 302 303
f 306 303 307
f 308 305 304
f 308 309 305
f 310 306 307
f 310 307 311
f 312 309 308
f 312 310 311
f 312 311 309
f 313 314 315
f 313 315 316
f 317 318 319
f 317 320 318
f 321 322 323
f 324 325 326
f 327 328 329
f 330 331 332
f 333 334 335
f 336 337 338
f 339 340 341
f 342 343 344
f 339 345 346
f 347 348 349
f 350 351 352
f 353 354 355
f 356 357 358
f 359 360 361
f 359 321 362
f 363 364 321
f 363 321 359
f 365 366 367
f 368 369 366
f 368 366 365
f 370 371 369
f 370 372 371
f 370 369 368
f 373 374 372
f 373 372 370
f 375 376 374
f 375 377 376
f 375 374 373
f 378 379 377
f 378 380 379
f 378 377 375
f 381 382 380
f 381 380 378
f 383 384 382
f 383 385 384
f 383 382 381
f 386 387 385
f 386 385 383
f 388 389 387
f 388 390 389
f 388 387 386
f 391 392 390
f 391 390 388
f 393 394 395
f 393 396 394
f 397 398 399
f 397 399 400
f 401 402 403
f 404 405 406
f 407 408 409
f 407 410 408
f 411 406 412
f 411 413 404
f 411 414 413
f 411 404 406
f 415 412 410
f 415 410 407
f 416 411 412
f 417 418 416
f 417 419 418
f 420 421 422
f 417 415 423
f 417 412 415
f 417 416 412
f 424 425 426
f 427 428 429
f 427 429 425
f 427 425 424
f 430 431 432
f 430 432 428
f 430 428 427
f 433 434 431
f 433 431 430
f 435 436 437
f 435 437 434
f 435 434 433
f 438 439 436
f 438 436 435
f 440 441 442
f 440 442 439
f 440 439 438
f 443 444 441
f 443 441 440
f 445 446 447
f 445 447 444
f 445 444 443
f 448 449 446
f 448 446 445
f 450 451 449
f 450 449 448
f 452 453 454
f 452 455 453
f 456 457 458
f 456 459 457
f 460 461 462
f 463 464 465
f 466 467 468
f 469 470 471
f 472 473 474
f 475 460 462
f 476 477 472
f 478 479 480
f 481 482 483
f 484 485 486
f 487 488 489
f 490 491 492
f 493 494 495
f 496 497 498
f 499 500 501
f 502 503 504
f 505 460 475
f 506 507 455
f 506 508 507
f 509 510 508
f 509 508 506
f 511 510 509
f 512 513 510
f 512 510 511
f 514 515 513
f 514 513 512
f 516 515 514
f 517 518 515
f 517 515 516
f 519 520 518
f 519 518 517
f 521 520 519
f 522 523 520
f 522 520 521
f 524 525 523
f 524 523 522
f 526 525 524
f 527 528 525
f 527 525 526
f 529 528 527
f 530 531 528
f 530 528 529
f 457 531 530

