# https://github.com/mikedh/trimesh
v 0.07063342 -0.04202548 0.00016196
v 0.07114553 -0.04157804 0.00016468
v 0.07441772 -0.04297973 0.00015616
v 0.04201079 -0.07064758 -0.00001204
v 0.04296507 -0.07443181 -0.00003504
v 0.04156334 -0.07115976 -0.00001515
v 0.07159234 -0.04106515 0.00016780
v 0.04105044 -0.07160649 -0.00001786
v 0.07006526 -0.04239919 0.00015969
v 0.04238451 -0.07007945 -0.00000858
v 0.07196540 -0.04049630 0.00017125
v 0.04048151 -0.07197955 -0.00002013
v 0.06945169 -0.04269227 0.00015790
v 0.06582630 -0.05524931 0.00008157
v 0.04267759 -0.06946595 -0.00000485
v 0.05523479 -0.06584056 0.00001719
v 0.06880409 -0.04289927 0.00015665
v 0.04288459 -0.06881829 -0.00000092
v 0.06813431 -0.04301639 0.00015593
v 0.04300166 -0.06814854 0.00000316
v 0.06745481 -0.04304142 0.00015578
v 0.04302669 -0.06746905 0.00000729
v 0.02938980 -0.08076189 -0.00007352
v 0.06677819 -0.04297389 0.00015619
v 0.04295922 -0.06679243 0.00001140
v 0.06611687 -0.04281517 0.00015716
v 0.04280043 -0.06613114 0.00001542
v 0.07585282 -0.03263578 0.00021904
v 0.08074791 -0.02940479 0.00023868
v 0.04255337 -0.06549742 0.00001927
v 0.06548310 -0.04256805 0.00015866
v 0.05273182 -0.05327017 0.00009360
v 0.05325568 -0.05274631 0.00009678
v 0.05368060 -0.05213949 0.00010047
v 0.05212498 -0.05369508 0.00009102
v 0.02766049 -0.07781301 -0.00005560
v 0.05399365 -0.05146812 0.00010455
v 0.05145354 -0.05400818 0.00008911
v 0.05418540 -0.05075252 0.00010890
v 0.05073798 -0.05419993 0.00008795
v 0.05425001 -0.05001456 0.00011339
v 0.04999996 -0.05426447 0.00008756
v 0.05418540 -0.04927656 0.00011788
v 0.06488866 -0.04223720 0.00016067
v 0.04926199 -0.05419993 0.00008795
v 0.04222245 -0.06490300 0.00002288
v 0.07888467 -0.02440739 0.00026906
v 0.05399365 -0.04856101 0.00012223
v 0.04854638 -0.05400818 0.00008911
v 0.05368060 -0.04788958 0.00012631
v 0.04787499 -0.05369508 0.00009102
v 0.05325568 -0.04728275 0.00013000
v 0.04726816 -0.05327017 0.00009360
v 0.08462464 -0.01493679 0.00032663
v 0.01492161 -0.08463863 -0.00009709
v 0.05273182 -0.04675890 0.00013318
v 0.04674429 -0.05274631 0.00009678
v 0.05212498 -0.04633398 0.00013576
v 0.04631937 -0.05213949 0.00010047
v 0.05145354 -0.04602094 0.00013767
v 0.04600627 -0.05146812 0.00010455
v 0.08102667 -0.01590381 0.00032075
v 0.08111476 -0.01517468 0.00032518
v 0.08109515 -0.01444060 0.00032964
v 0.01403446 -0.08138237 -0.00007730
v 0.08096820 -0.01371749 0.00033404
v 0.08073675 -0.01302090 0.00033827
v 0.08040571 -0.01236586 0.00034225
v 0.07998228 -0.01176642 0.00034590
v 0.08593016 -0.00001549 0.00041733
v 0.00000002 -0.08594407 -0.00010503
v 0.00000001 -0.08258380 -0.00008460
v 0.08060693 -0.00193053 0.00040569
v 0.08091509 -0.00162238 0.00040756
v 0.07947552 -0.01123560 0.00034912
v 0.08116507 -0.00126542 0.00040973
v 0.08024996 -0.00218045 0.00040417
v 0.07889640 -0.01078470 0.00035187
v 0.07344019 -0.00884919 0.00036363
v 0.07421606 -0.00951866 0.00035956
v 0.07379931 -0.00921731 0.00036139
v 0.08134919 -0.00087052 0.00041213
v 0.07985502 -0.00236463 0.00040305
v 0.08146202 -0.00044960 0.00041469
v 0.07943409 -0.00247745 0.00040236
v 0.07825738 -0.01042356 0.00035406
v 0.07314938 -0.00842506 0.00036621
v 0.07467824 -0.00974432 0.00035819
v 0.08149999 -0.00001549 0.00041733
v 0.07899999 -0.00251542 0.00040213
v 0.07757216 -0.01015987 0.00035566
v 0.08146202 0.00041863 0.00041997
v 0.07856583 -0.00247745 0.00040236
v 0.07685565 -0.00999930 0.00035664
v 0.07293528 -0.00795741 0.00036905
v 0.07517230 -0.00988767 0.00035732
v 0.08134919 0.00083955 0.00042253
v 0.07814490 -0.00236463 0.00040305
v 0.07612311 -0.00994542 0.00035697
v 0.07280427 -0.00745995 0.00037208
v 0.07546389 -0.00993094 0.00035705
v 0.08116507 0.00123447 0.00042493
v 0.07276016 -0.00694730 0.00037519
v 0.07774996 -0.00218045 0.00040417
v 0.07575833 -0.00994542 0.00035697
v 0.07739299 -0.00193053 0.00040569
v 0.08091509 0.00159144 0.00042710
v 0.08060693 0.00189959 0.00042897
v 0.07708489 -0.00162238 0.00040756
v 0.07683491 -0.00126542 0.00040973
v 0.07665073 -0.00087052 0.00041213
v 0.07653796 -0.00044960 0.00041469
v 0.07649999 -0.00001549 0.00041733
v 0.03790129 -0.03750640 0.00018942
v 0.04726816 -0.04675890 0.00013318
v 0.04674429 -0.04728275 0.00013000
v 0.03749162 -0.03791605 0.00018693
v 0.03823352 -0.03703190 0.00019231
v 0.04787499 -0.04633398 0.00013576
v 0.03701705 -0.03824835 0.00018491
v 0.04631937 -0.04788958 0.00012631
v 0.03847838 -0.03650685 0.00019550
v 0.04854638 -0.04602094 0.00013767
v 0.03649200 -0.03849313 0.00018342
v 0.04600627 -0.04856101 0.00012223
v 0.04521042 -0.02945819 0.00023835
v 0.05073798 -0.04582920 0.00013883
v 0.04999996 -0.04576459 0.00013922
v 0.04926199 -0.04582920 0.00013883
v 0.02944327 -0.04522506 0.00014250
v 0.04581452 -0.04927656 0.00011788
v 0.04574997 -0.05001456 0.00011339
v 0.04581452 -0.05075252 0.00010890
v 0.03862834 -0.03594723 0.00019890
v 0.03593243 -0.03864310 0.00018251
v 0.03867883 -0.03537015 0.00020241
v 0.03535533 -0.03869358 0.00018221
v 0.03862834 -0.03479307 0.00020592
v 0.03477818 -0.03864310 0.00018251
v 0.03847838 -0.03423345 0.00020932
v 0.04454494 -0.02894078 0.00024149
v 0.03421861 -0.03849313 0.00018342
v 0.02915371 -0.04482453 0.00014494
v 0.03823352 -0.03370840 0.00021251
v 0.04397392 -0.02831780 0.00024528
v 0.03369356 -0.03824835 0.00018491
v 0.02879662 -0.04442428 0.00014737
v 0.02836937 -0.04404068 0.00014970
v 0.03790129 -0.03323390 0.00021539
v 0.03321898 -0.03791605 0.00018693
v 0.02794600 -0.04373778 0.00015154
v 0.03749162 -0.03282425 0.00021788
v 0.04353594 -0.02764308 0.00024938
v 0.03280938 -0.03750640 0.00018942
v 0.02743084 -0.04344983 0.00015329
v 0.03701705 -0.03249195 0.00021990
v 0.04320920 -0.02690138 0.00025389
v 0.03247709 -0.03703190 0.00019231
v 0.02698261 -0.04325868 0.00015445
v 0.03649200 -0.03224716 0.00022139
v 0.04302078 -0.02619025 0.00025821
v 0.03223223 -0.03650685 0.00019550
v 0.02648408 -0.04310341 0.00015540
v 0.02594698 -0.04299833 0.00015604
v 0.07947552 0.01120460 0.00048553
v 0.08024996 0.00214951 0.00043049
v 0.07998228 0.01173549 0.00048876
v 0.08462464 0.01490586 0.00050803
v 0.07889640 0.01075376 0.00048279
v 0.07985502 0.00233368 0.00043161
v 0.07943409 0.00244645 0.00043230
v 0.08040571 0.01233492 0.00049241
v 0.03593243 -0.03209720 0.00022230
v 0.03208232 -0.03594723 0.00019890
v 0.07825738 0.01039255 0.00048060
v 0.07899999 0.00248442 0.00043253
v 0.08073675 0.01298996 0.00049639
v 0.07757216 0.01012887 0.00047899
v 0.07856583 0.00244645 0.00043230
v -0.01403444 -0.08138237 -0.00007730
v -0.01492159 -0.08463863 -0.00009709
v 0.08096820 0.01368654 0.00050062
v 0.07685565 0.00996836 0.00047802
v 0.07814490 0.00233368 0.00043161
v 0.08109515 0.01440966 0.00050502
v 0.07612311 0.00991448 0.00047769
v 0.08111476 0.01514368 0.00050948
v 0.07276016 0.00691636 0.00045947
v 0.07575833 0.00991448 0.00047769
v 0.07774996 0.00214951 0.00043049
v 0.07739299 0.00189959 0.00042897
v 0.07708489 0.00159144 0.00042710
v 0.07683491 0.00123447 0.00042493
v 0.07665073 0.00083955 0.00042253
v 0.07653796 0.00041863 0.00041997
v 0.07277464 0.00721080 0.00046126
v 0.07524567 0.00987037 0.00047742
v 0.07281792 0.00750238 0.00046303
v 0.08102667 0.01587286 0.00051391
v 0.07474821 0.00973937 0.00047663
v 0.07296127 0.00799638 0.00046603
v 0.07428056 0.00952527 0.00047533
v 0.07318693 0.00845854 0.00046884
v 0.07385641 0.00923440 0.00047356
v 0.07348829 0.00887535 0.00047137
v 0.03165681 -0.02657821 0.00025585
v 0.03535533 -0.03204671 0.00022261
v 0.03477818 -0.03209720 0.00022230
v 0.03421861 -0.03224716 0.00022139
v 0.03369356 -0.03249195 0.00021990
v 0.03321898 -0.03282425 0.00021788
v 0.04294180 -0.02551971 0.00026229
v 0.02656317 -0.03167168 0.00022489
v 0.02539814 -0.04295226 0.00015632
v 0.03280938 -0.03323390 0.00021539
v 0.03247709 -0.03370840 0.00021251
v 0.03223223 -0.03423345 0.00020932
v 0.03208232 -0.03479307 0.00020592
v 0.03203184 -0.03537015 0.00020241
v 0.03578847 -0.02067758 0.00029172
v 0.04295295 -0.02484267 0.00026640
v 0.04303825 -0.02425861 0.00026995
v 0.04316973 -0.02375991 0.00027299
v 0.04332322 -0.02334173 0.00027553
v 0.03578847 -0.02067758 0.00029172
v 0.04351115 -0.02293846 0.00027799
v 0.04332322 -0.02334173 0.00027553
v 0.02066248 -0.03580335 0.00019977
v 0.02359111 -0.04323621 0.00015459
v 0.02292341 -0.04352582 0.00015283
v 0.02429355 -0.04304274 0.00015577
v 0.02484775 -0.04296602 0.00015623
v 0.07888465 0.02437639 0.00056560
v 0.03883278 -0.01414920 0.00033141
v 0.04351115 -0.02293846 0.00027799
v 0.04663288 -0.01563768 0.00032236
v 0.01413399 -0.03884754 0.00018127
v 0.01562244 -0.04664750 0.00013385
v 0.08074789 0.02937379 0.00059598
v -0.02766047 -0.07781301 -0.00005561
v -0.02938977 -0.08076189 -0.00007353
v 0.04069715 -0.00719132 0.00037370
v 0.04853916 -0.00792969 0.00036922
v 0.00717599 -0.04071194 0.00016993
v 0.00791437 -0.04855374 0.00012226
v 0.07585280 0.03260484 0.00061562
v 0.04132497 -0.00001549 0.00041732
v 0.04918015 -0.00001549 0.00041732
v 0.00000001 -0.04133974 0.00016611
v 0.00000001 -0.04919472 0.00011836
v -0.00791436 -0.04855374 0.00012226
v 0.04853916 0.00789875 0.00046543
v 0.04069715 0.00716038 0.00046094
v -0.00717597 -0.04071194 0.00016993
v -0.04048149 -0.07197955 -0.00002015
v 0.07441770 0.04294880 0.00067850
v 0.07196538 0.04046529 0.00066340
v -0.04296504 -0.07443181 -0.00003505
v -0.01562242 -0.04664750 0.00013385
v 0.04663287 0.01560668 0.00051229
v 0.07159232 0.04103420 0.00066686
v -0.04105042 -0.07160649 -0.00001788
v -0.04156332 -0.07115976 -0.00001516
v 0.07114552 0.04154709 0.00066998
v -0.04201077 -0.07064758 -0.00001205
v 0.07063340 0.04199453 0.00067270
v -0.04238449 -0.07007945 -0.00000860
v 0.07006525 0.04236826 0.00067497
v -0.04267757 -0.06946595 -0.00000487
v 0.06945167 0.04266132 0.00067675
v 0.03883278 0.01411820 0.00050324
v -0.01413397 -0.03884754 0.00018126
v 0.04351114 0.02290745 0.00055667
v -0.02292339 -0.04352582 0.00015283
v 0.03578847 0.02064664 0.00054292
v 0.04322147 0.02357513 0.00056073
v 0.04302805 0.02427762 0.00056500
v 0.04295134 0.02483182 0.00056837
v 0.04293751 0.02538220 0.00057171
v -0.02066247 -0.03580335 0.00019976
v -0.02482758 -0.04296769 0.00015621
v -0.02550469 -0.04295649 0.00015628
v -0.02424358 -0.04305293 0.00015570
v -0.02374487 -0.04318442 0.00015490
v -0.02332668 -0.04333795 0.00015396
v -0.02066247 -0.03580335 0.00019976
v -0.02292339 -0.04352582 0.00015283
v -0.02332668 -0.04333795 0.00015396
v 0.06582628 0.05521830 0.00075308
v 0.06611685 0.04278417 0.00067750
v 0.06548309 0.04253706 0.00067600
v 0.06677818 0.04294295 0.00067846
v 0.06745480 0.04301043 0.00067887
v 0.06813429 0.04298539 0.00067872
v 0.06880407 0.04286833 0.00067801
v -0.05523477 -0.06584056 0.00001717
v -0.04288457 -0.06881829 -0.00000093
v -0.04300164 -0.06814854 0.00000314
v -0.04302667 -0.06746905 0.00000727
v -0.04295920 -0.06679243 0.00001138
v -0.04280041 -0.06613114 0.00001540
v -0.04255335 -0.06549742 0.00001926
v 0.04101215 0.03392499 0.00062364
v 0.04521042 0.02942719 0.00059630
v 0.04480987 0.02913770 0.00059454
v 0.04242639 0.03533921 0.00063224
v -0.03435348 -0.04141240 0.00016567
v -0.02892576 -0.04455958 0.00014654
v -0.02944325 -0.04522506 0.00014249
v -0.03496979 -0.04202870 0.00016192
v 0.04298662 0.03600682 0.00063630
v 0.04034452 0.03336478 0.00062023
v 0.04440963 0.02878061 0.00059237
v 0.04402601 0.02835337 0.00058977
v -0.03385358 -0.04069847 0.00017001
v -0.02830283 -0.04398858 0.00015001
v -0.03568374 -0.04252860 0.00015888
v 0.04342239 0.03676159 0.00064088
v 0.03958969 0.03292902 0.00061759
v 0.04372310 0.02792995 0.00058720
v 0.04343515 0.02741485 0.00058407
v -0.03348528 -0.03990860 0.00017481
v -0.02762811 -0.04355062 0.00015267
v -0.03647362 -0.04289688 0.00015664
v 0.04372047 0.03758059 0.00064586
v 0.03877072 0.03263094 0.00061577
v 0.04324394 0.02696664 0.00058134
v 0.05325566 0.04725175 0.00070465
v 0.06488864 0.04220619 0.00067398
v 0.05273180 0.04672796 0.00070147
v -0.04674427 -0.05274631 0.00009677
v -0.04222243 -0.06490300 0.00002287
v -0.04726814 -0.05327017 0.00009358
v 0.05368058 0.04785864 0.00070834
v -0.04787497 -0.05369508 0.00009100
v -0.04631935 -0.05213949 0.00010046
v 0.05212496 0.04630305 0.00069889
v -0.03325967 -0.03906676 0.00017992
v -0.02688639 -0.04322387 0.00015466
v -0.03731547 -0.04312249 0.00015527
v -0.04600625 -0.05146812 0.00010454
v 0.05145352 0.04598994 0.00069698
v 0.05399363 0.04853000 0.00071242
v -0.04854636 -0.05400818 0.00008910
v 0.03791241 0.03247961 0.00061485
v 0.04308873 0.02646805 0.00057831
v 0.04298365 0.02593103 0.00057505
v 0.03165680 0.02654721 0.00057879
v -0.02656315 -0.03167168 0.00022488
v -0.02617525 -0.04303546 0.00015580
v -0.03318374 -0.03819852 0.00018520
v 0.05418538 0.04924555 0.00071677
v -0.04581450 -0.05075252 0.00010889
v -0.03818373 -0.04319842 0.00015481
v 0.05073796 0.04579819 0.00069582
v 0.04387180 0.03843889 0.00065108
v -0.04926197 -0.05419993 0.00008793
v 0.03704081 0.03247961 0.00061485
v 0.05424999 0.04998356 0.00072126
v -0.04574995 -0.05001456 0.00011337
v 0.04999994 0.04573365 0.00069542
v 0.04387180 0.03931041 0.00065638
v -0.04999994 -0.05426447 0.00008754
v -0.03325967 -0.03733027 0.00019048
v -0.03905199 -0.04312249 0.00015527
v 0.03618251 0.03263094 0.00061577
v 0.05418538 0.05072157 0.00072575
v 0.04926197 0.04579819 0.00069582
v 0.04372047 0.04016871 0.00066160
v -0.04581450 -0.04927656 0.00011786
v -0.05073796 -0.05419993 0.00008793
v -0.03348528 -0.03648843 0.00019560
v -0.03989385 -0.04289688 0.00015664
v 0.05399363 0.05143711 0.00073010
v -0.04600625 -0.04856101 0.00012221
v 0.04854636 0.04598994 0.00069698
v -0.05145352 -0.05400818 0.00008910
v 0.04342239 0.04098772 0.00066657
v 0.03536354 0.03292902 0.00061759
v -0.03385358 -0.03569857 0.00020040
v -0.04068373 -0.04252860 0.00015888
v 0.05368058 0.05210855 0.00073418
v -0.04631935 -0.04788958 0.00012629
v 0.04787497 0.04630305 0.00069889
v -0.05212496 -0.05369508 0.00009100
v 0.04298662 0.04174248 0.00067116
v 0.03460871 0.03336478 0.00062023
v -0.03435348 -0.03498464 0.00020474
v -0.04139768 -0.04202870 0.00016192
v 0.05325566 0.05271537 0.00073787
v -0.04674427 -0.04728275 0.00012998
v 0.04726814 0.04672796 0.00070147
v -0.05273180 -0.05327017 0.00009358
v 0.04242639 0.04241010 0.00067522
v 0.03394108 0.03392499 0.00062364
v 0.04674427 0.04725175 0.00070465
v -0.03496979 -0.03436839 0.00020848
v -0.04201393 -0.04141240 0.00016566
v -0.04726814 -0.04675890 0.00013316
v 0.04175870 0.04297031 0.00067863
v -0.04787497 -0.04633398 0.00013575
v 0.04631935 0.04785864 0.00070834
v -0.04251383 -0.04069847 0.00017000
v 0.04100393 0.04340613 0.00068127
v -0.04854636 -0.04602094 0.00013765
v 0.04600625 0.04853000 0.00071242
v -0.04288219 -0.03990860 0.00017481
v -0.04926197 -0.04582920 0.00013881
v 0.04018490 0.04370420 0.00068309
v 0.04581450 0.04924555 0.00071677
v -0.04310779 -0.03906676 0.00017992
v -0.04999994 -0.04576459 0.00013921
v 0.03932659 0.04385554 0.00068401
v 0.04574995 0.04998356 0.00072126
v -0.04318373 -0.03819852 0.00018520
v -0.05073796 -0.04582920 0.00013881
v 0.02656315 0.03164069 0.00060975
v 0.03249566 0.03702468 0.00064248
v 0.03264700 0.03616638 0.00063726
v 0.03294508 0.03534744 0.00063229
v 0.03338085 0.03459261 0.00062770
v -0.03165680 -0.02657821 0.00025584
v -0.03568374 -0.03386850 0.00021152
v -0.03647362 -0.03350014 0.00021376
v -0.03731547 -0.03327455 0.00021513
v -0.03818373 -0.03319861 0.00021560
v 0.03845505 0.04385554 0.00068401
v 0.04581450 0.05072157 0.00072574
v -0.04310779 -0.03733027 0.00019048
v 0.03759675 0.04370420 0.00068309
v 0.04600625 0.05143711 0.00073009
v 0.05523477 0.06580961 0.00081746
v 0.04999994 0.05423347 0.00074709
v 0.04926197 0.05416892 0.00074670
v 0.05273180 0.05323923 0.00074105
v 0.05212496 0.05366414 0.00074363
v 0.05145352 0.05397718 0.00074554
v 0.05073796 0.05416892 0.00074670
v -0.06582628 -0.05524931 0.00008155
v -0.05424999 -0.05001456 0.00011337
v -0.05418538 -0.05075252 0.00010889
v -0.05399363 -0.05146812 0.00010454
v -0.05368058 -0.05213949 0.00010045
v -0.05325566 -0.05274631 0.00009677
v 0.02804266 0.04344803 0.00068153
v 0.03338085 0.04032826 0.00066256
v 0.03294508 0.03957350 0.00065798
v 0.02768771 0.04312516 0.00067956
v 0.03264700 0.03875456 0.00065300
v 0.02837418 0.04386871 0.00068408
v 0.03394108 0.04099594 0.00066662
v 0.03535531 0.04241010 0.00067522
v 0.03677772 0.04340613 0.00068127
v 0.03602295 0.04297031 0.00067862
v 0.02733032 0.04288913 0.00067813
v -0.04480987 -0.02916863 0.00024009
v -0.04068373 -0.03386850 0.00021152
v -0.04139768 -0.03436839 0.00020848
v -0.04440963 -0.02881161 0.00024226
v -0.04402601 -0.02838432 0.00024486
v -0.03989385 -0.03350014 0.00021376
v -0.04521042 -0.02945819 0.00023833
v -0.05145352 -0.04602094 0.00013765
v -0.04201393 -0.03498464 0.00020474
v -0.04251383 -0.03569857 0.00020040
v -0.04288219 -0.03648843 0.00019560
v -0.04372310 -0.02796094 0.00024743
v -0.03905199 -0.03327455 0.00021513
v 0.02693985 0.04270448 0.00067701
v 0.03249566 0.03789626 0.00064778
v -0.04343515 -0.02744579 0.00025056
v 0.02651839 0.04257675 0.00067623
v -0.04324394 -0.02699763 0.00025329
v 0.02613495 0.04251894 0.00067588
v -0.04308873 -0.02649905 0.00025632
v 0.02579062 0.04251022 0.00067583
v 0.02066247 0.03577235 0.00063487
v -0.04298365 -0.02596196 0.00025958
v 0.02544741 0.04253985 0.00067601
v 0.02511923 0.04260392 0.00067640
v -0.04293751 -0.02541313 0.00026292
v -0.03578847 -0.02067758 0.00029171
v 0.02480690 0.04269977 0.00067698
v -0.04295134 -0.02486276 0.00026627
v 0.02458952 0.04278917 0.00067752
v 0.02438168 0.04289557 0.00067817
v -0.04302805 -0.02430856 0.00026964
v -0.04322147 -0.02360613 0.00027391
v 0.02352320 0.04337210 0.00068106
v -0.04351114 -0.02293846 0.00027797
v 0.02265541 0.04383146 0.00068386
v 0.02177869 0.04427348 0.00068654
v -0.06488864 -0.04223720 0.00016065
v -0.05212496 -0.04633398 0.00013575
v -0.05273180 -0.04675890 0.00013316
v -0.05325566 -0.04728275 0.00012998
v -0.05368058 -0.04788958 0.00012629
v -0.05399363 -0.04856101 0.00012221
v -0.05418538 -0.04927656 0.00011786
v -0.06548309 -0.04256805 0.00015864
v 0.02134989 0.04453079 0.00068811
v -0.06611685 -0.04281517 0.00015713
v 0.04321198 0.06671642 0.00082297
v 0.04854636 0.05397718 0.00074554
v 0.04787497 0.05366414 0.00074363
v 0.04726814 0.05323923 0.00074105
v 0.04674427 0.05271537 0.00073786
v 0.04631935 0.05210855 0.00073418
v 0.04340826 0.06706826 0.00082511
v -0.06677818 -0.04297389 0.00015617
v 0.04355560 0.06744334 0.00082739
v 0.04365145 0.06783488 0.00082977
v -0.06745480 -0.04304142 0.00015576
v 0.04369406 0.06823577 0.00083221
v 0.01413397 0.03881659 0.00065337
v 0.02096997 0.04485570 0.00069008
v 0.02064942 0.04523924 0.00069241
v -0.03883278 -0.01414920 0.00033139
v 0.04368268 0.06863887 0.00083466
v -0.06813429 -0.04301639 0.00015591
v 0.02039711 0.04567077 0.00069504
v 0.04361747 0.06903690 0.00083708
v -0.06880407 -0.04289927 0.00015662
v 0.02022015 0.04613830 0.00069788
v 0.04349963 0.06942265 0.00083942
v 0.02013378 0.04654598 0.00070036
v -0.06945167 -0.04269227 0.00015788
v 0.02010475 0.04696184 0.00070289
v -0.04663287 -0.01563768 0.00032234
v 0.04296504 0.07440080 0.00086969
v 0.04255776 0.07071021 0.00084725
v 0.04222588 0.07093915 0.00084864
v 0.04285608 0.07043890 0.00084560
v 0.04311548 0.07013004 0.00084372
v 0.04333131 0.06978928 0.00084165
v -0.07441764 -0.04297973 0.00015613
v -0.07006525 -0.04239919 0.00015966
v -0.07063340 -0.04202548 0.00016193
v -0.07114552 -0.04157804 0.00016465
v -0.07159232 -0.04106515 0.00016777
v -0.07196538 -0.04049630 0.00017123
v 0.00717597 0.04068094 0.00066470
v -0.04069715 -0.00719132 0.00037369
v 0.03636913 0.07411180 0.00086793
v -0.04853916 -0.00792969 0.00036920
v -0.00000001 0.04130874 0.00066852
v -0.04132497 -0.00001549 0.00041731
v -0.07585280 -0.03263578 0.00021901
v -0.04918015 -0.00001549 0.00041731
v 0.02938977 0.08073094 0.00090816
v 0.03027575 0.07680205 0.00088428
v -0.08074789 -0.02940479 0.00023865
v -0.07888465 -0.02440739 0.00026903
v 0.02398531 0.07899243 0.00089759
v 0.02352951 0.07909293 0.00089820
v 0.02010475 0.07611816 0.00088012
v 0.02306353 0.07912160 0.00089838
v -0.04853916 0.00789875 0.00046542
v -0.04069715 0.00716038 0.00046093
v -0.04663288 0.01560668 0.00051227
v -0.03883278 0.01411820 0.00050322
v -0.07318693 -0.00848955 0.00036579
v -0.07348823 -0.00890629 0.00036326
v -0.07385641 -0.00926535 0.00036107
v -0.07428056 -0.00955621 0.00035931
v -0.07296127 -0.00802738 0.00036860
v -0.07474821 -0.00977031 0.00035800
v -0.07281792 -0.00753333 0.00037160
v -0.07524567 -0.00990132 0.00035721
v -0.07277464 -0.00724175 0.00037338
v -0.07575833 -0.00994542 0.00035694
v -0.07276016 -0.00694730 0.00037517
v -0.02074910 0.04510555 0.00069159
v -0.01413399 0.03881659 0.00065337
v -0.02109051 0.04474041 0.00068937
v -0.02141828 0.04448299 0.00068781
v -0.02066248 0.03577235 0.00063486
v -0.02047319 0.04552230 0.00069413
v -0.03280938 0.03320289 0.00061924
v -0.03165681 0.02654721 0.00057878
v -0.03321904 0.03279330 0.00061675
v -0.02656317 0.03164069 0.00060974
v -0.02177871 0.04427348 0.00068654
v -0.07604283 -0.00994542 0.00035694
v -0.03247709 0.03367746 0.00062212
v -0.03369356 0.03246101 0.00061473
v -0.07612311 -0.00994542 0.00035694
v -0.02027041 0.04597921 0.00069690
v -0.04351115 0.02290745 0.00055666
v -0.03578847 0.02064664 0.00054291
v -0.03421861 0.03221617 0.00061324
v -0.03223223 0.03420251 0.00062531
v -0.02265543 0.04383146 0.00068385
v -0.02014649 0.04646355 0.00069985
v -0.04332322 0.02331074 0.00055910
v -0.03578847 0.02064664 0.00054291
v -0.04351115 0.02290745 0.00055666
v -0.03208232 0.03476207 0.00062872
v -0.03477818 0.03206626 0.00061233
v -0.07685565 -0.00999930 0.00035661
v -0.02352322 0.04337210 0.00068106
v -0.04316973 0.02372897 0.00056165
v -0.04332322 0.02331074 0.00055910
v -0.02010477 0.04696184 0.00070288
v -0.00717599 0.04068094 0.00066470
v -0.04303825 0.02422767 0.00056468
v -0.02438170 0.04289557 0.00067816
v -0.03203184 0.03533921 0.00063222
v -0.03535533 0.03201572 0.00061202
v -0.07757216 -0.01015987 0.00035564
v -0.02478439 0.04270805 0.00067702
v -0.04295295 0.02481167 0.00056823
v -0.02521259 0.04258205 0.00067625
v -0.03208232 0.03591629 0.00063573
v -0.03593243 0.03206626 0.00061233
v -0.02552528 0.04252984 0.00067594
v -0.02585900 0.04250886 0.00067581
v -0.04294180 0.02548871 0.00057234
v -0.02619285 0.04252429 0.00067590
v -0.02651567 0.04257622 0.00067622
v -0.03223223 0.03647584 0.00063913
v -0.04302078 0.02615924 0.00057642
v -0.03649200 0.03221617 0.00061324
v -0.02680821 0.04265709 0.00067671
v -0.03247709 0.03700089 0.00064233
v 0.01492159 0.08460762 0.00093173
v 0.02014105 0.07658314 0.00088295
v 0.02024899 0.07703696 0.00088571
v 0.02042608 0.07746866 0.00088833
v 0.02066790 0.07786783 0.00089076
v 0.02096866 0.07822480 0.00089293
v 0.02132116 0.07853098 0.00089479
v 0.02171681 0.07877893 0.00089630
v 0.02214614 0.07896268 0.00089741
v 0.02259867 0.07907785 0.00089811
v -0.08462464 -0.01493679 0.00032660
v -0.08102667 -0.01590381 0.00032072
v -0.08111476 -0.01517468 0.00032515
v -0.08109515 -0.01444060 0.00032961
v -0.08096820 -0.01371749 0.00033401
v -0.08073675 -0.01302090 0.00033824
v -0.08040571 -0.01236586 0.00034223
v -0.07998228 -0.01176642 0.00034587
v -0.02714766 0.04279436 0.00067754
v -0.04320920 0.02687043 0.00058074
v -0.03701705 0.03246101 0.00061473
v -0.02742553 0.04294492 0.00067846
v -0.03280938 0.03747546 0.00064521
v -0.02771628 0.04314739 0.00067969
v -0.03321904 0.03788505 0.00064770
v -0.04353594 0.02761208 0.00058525
v -0.03749162 0.03279330 0.00061675
v -0.02801371 0.04341752 0.00068133
v -0.02820433 0.04363501 0.00068265
v -0.03369356 0.03821734 0.00064972
v -0.02837420 0.04386871 0.00068407
v -0.04397392 0.02828686 0.00058935
v -0.03823358 0.03367746 0.00062212
v -0.03790129 0.03320289 0.00061924
v -0.03421861 0.03846220 0.00065121
v -0.03477818 0.03861209 0.00065212
v -0.04454494 0.02890977 0.00059314
v -0.03847838 0.03420251 0.00062531
v -0.03535533 0.03866265 0.00065243
v -0.03593243 0.03861209 0.00065212
v -0.04521042 0.02942719 0.00059628
v -0.03862834 0.03591629 0.00063573
v -0.03867883 0.03533921 0.00063222
v -0.03862834 0.03476207 0.00062871
v -0.07421606 0.00948766 0.00047507
v -0.07344019 0.00881819 0.00047100
v -0.07314938 0.00839411 0.00046842
v -0.07379931 0.00918636 0.00047324
v -0.07467824 0.00971332 0.00047644
v -0.07293528 0.00792640 0.00046558
v -0.07517230 0.00985667 0.00047731
v -0.07280427 0.00742895 0.00046256
v -0.07546389 0.00990000 0.00047758
v -0.07276016 0.00691636 0.00045944
v -0.07575833 0.00991448 0.00047766
v -0.00000002 0.08591305 0.00093966
v -0.08593010 -0.00001549 0.00041730
v -0.07947552 -0.01123560 0.00034910
v -0.07889640 -0.01078470 0.00035184
v -0.07825738 -0.01042356 0.00035403
v -0.07604283 0.00991448 0.00047766
v -0.07612311 0.00991448 0.00047766
v -0.07685565 0.00996836 0.00047799
v -0.07757216 0.01012887 0.00047897
v -0.07825738 0.01039255 0.00048057
v -0.07889640 0.01075376 0.00048277
v -0.07947552 0.01120460 0.00048551
v -0.07998228 0.01173549 0.00048873
v -0.04726816 0.04672796 0.00070145
v -0.03790129 0.03747546 0.00064521
v -0.03823358 0.03700089 0.00064232
v -0.04674429 0.04725175 0.00070464
v -0.03701705 0.03821734 0.00064972
v -0.03749162 0.03788505 0.00064770
v -0.04631937 0.04785864 0.00070832
v -0.03649200 0.03846220 0.00065121
v -0.04787499 0.04630305 0.00069887
v -0.03847838 0.03647584 0.00063913
v -0.04854638 0.04598994 0.00069697
v -0.04600627 0.04853000 0.00071241
v -0.04581452 0.04924555 0.00071676
v -0.04926199 0.04579819 0.00069580
v -0.04999996 0.04573365 0.00069541
v -0.04574997 0.04998356 0.00072124
v -0.02010477 0.07611816 0.00088011
v -0.05073798 0.04579819 0.00069580
v -0.04581452 0.05072157 0.00072573
v -0.04600627 0.05143711 0.00073008
v -0.05145354 0.04598994 0.00069696
v -0.01492161 0.08460762 0.00093172
v -0.02066792 0.07786783 0.00089075
v -0.02096868 0.07822480 0.00089292
v -0.02042610 0.07746866 0.00088832
v -0.02024901 0.07703696 0.00088570
v -0.02014107 0.07658314 0.00088294
v -0.08462464 0.01490586 0.00050800
v -0.08040571 0.01233492 0.00049238
v -0.08073675 0.01298996 0.00049636
v -0.08096820 0.01368654 0.00050059
v -0.08109515 0.01440966 0.00050499
v -0.08111476 0.01514368 0.00050945
v -0.08102667 0.01587286 0.00051388
v -0.02132118 0.07853098 0.00089478
v -0.02171684 0.07877893 0.00089629
v -0.02214617 0.07896268 0.00089740
v -0.02259870 0.07907785 0.00089810
v -0.02306356 0.07912160 0.00089837
v -0.07888467 0.02437639 0.00056558
v -0.06488866 0.04220619 0.00067396
v -0.05418540 0.04924555 0.00071675
v -0.05399365 0.04853000 0.00071240
v -0.05368060 0.04785864 0.00070832
v -0.05325568 0.04725175 0.00070463
v -0.05273182 0.04672796 0.00070145
v -0.05212498 0.04630305 0.00069887
v -0.06548310 0.04253706 0.00067597
v -0.05425001 0.04998356 0.00072124
v -0.04321200 0.06671642 0.00082296
v -0.04631937 0.05210855 0.00073416
v -0.04674429 0.05271537 0.00073785
v -0.04726816 0.05323923 0.00074103
v -0.04787499 0.05366414 0.00074362
v -0.04854638 0.05397718 0.00074552
v -0.04926199 0.05416892 0.00074668
v -0.02938980 0.08073094 0.00090815
v -0.02398534 0.07899243 0.00089759
v -0.03027577 0.07680205 0.00088427
v -0.02352954 0.07909293 0.00089820
v -0.08074791 0.02937379 0.00059595
v -0.07585282 0.03260484 0.00061559
v -0.03636916 0.07411180 0.00086791
v -0.04296507 0.07440080 0.00086967
v -0.04333133 0.06978928 0.00084164
v -0.04349965 0.06942265 0.00083941
v -0.04311550 0.07013004 0.00084371
v -0.04285610 0.07043890 0.00084559
v -0.04255778 0.07071021 0.00084724
v -0.04222590 0.07093915 0.00084863
v -0.07441766 0.04294880 0.00067847
v -0.07196540 0.04046529 0.00066338
v -0.07159234 0.04103420 0.00066684
v -0.07114553 0.04154709 0.00066995
v -0.07063342 0.04199453 0.00067267
v -0.07006526 0.04236826 0.00067495
v -0.06945169 0.04266132 0.00067673
v -0.05523479 0.06580961 0.00081744
v -0.04340828 0.06706826 0.00082510
v -0.04355562 0.06744334 0.00082738
v -0.04365153 0.06783488 0.00082976
v -0.04369414 0.06823577 0.00083219
v -0.04368270 0.06863887 0.00083464
v -0.04361749 0.06903690 0.00083706
v -0.04999996 0.05423347 0.00074708
v -0.05073798 0.05416892 0.00074668
v -0.05145354 0.05397718 0.00074552
v -0.05212498 0.05366414 0.00074361
v -0.05273182 0.05323923 0.00074103
v -0.06582630 0.05521830 0.00075306
v -0.06880409 0.04286833 0.00067799
v -0.06813431 0.04298539 0.00067870
v -0.06745481 0.04301043 0.00067885
v -0.06677819 0.04294295 0.00067844
v -0.06611687 0.04278417 0.00067747
v -0.05325568 0.05271537 0.00073785
v -0.05368060 0.05210855 0.00073416
v -0.05399365 0.05143711 0.00073008
v -0.05418540 0.05072157 0.00072573
v -0.03583537 -0.04325960 0.08865605
v -0.04267488 -0.04074493 0.08867134
v -0.03558360 -0.04713979 0.08863246
v -0.04270695 -0.03638814 0.08869782
v -0.04920886 -0.03326837 0.08871679
v -0.04315428 -0.04092004 0.08867028
v -0.04295675 -0.04073581 0.08867139
v -0.04281394 -0.04068216 0.08867172
v -0.02787499 -0.04883342 0.08862218
v -0.02754818 -0.05229860 0.08860110
v -0.04828089 -0.02842792 0.08874621
v -0.05392168 -0.02472462 0.08876873
v -0.01906757 -0.05294029 0.08859722
v -0.01878183 -0.05608444 0.08857810
v -0.05238783 -0.01962065 0.08879975
v -0.05716431 -0.01552189 0.08882467
v -0.00968086 -0.05545544 0.08858193
v -0.00951718 -0.05839688 0.08856405
v -0.05490303 -0.01023411 0.08885681
v -0.05884826 -0.00591100 0.08888309
v 0.00000001 -0.05630240 0.08857678
v 0.00000001 -0.05917458 0.08855931
v -0.05574995 -0.00055343 0.08891565
v -0.05892759 0.00384592 0.08894240
v 0.00951720 -0.05839688 0.08856405
v 0.00968088 -0.05545544 0.08858193
v -0.05490303 0.00912727 0.08897451
v -0.05740028 0.01348298 0.08900099
v 0.01878185 -0.05608444 0.08857810
v 0.01906759 -0.05294029 0.08859722
v -0.05238783 0.01851382 0.08903156
v -0.05430787 0.02273726 0.08905724
v 0.02754820 -0.05229860 0.08860112
v 0.02787501 -0.04883342 0.08862219
v -0.04828089 0.02732101 0.08908510
v -0.04973466 0.03135653 0.08910963
v 0.03558362 -0.04713979 0.08863248
v 0.03583539 -0.04325960 0.08865607
v -0.04270697 0.03528131 0.08913349
v -0.04380543 0.03910571 0.08915674
v 0.04267490 -0.04074493 0.08867136
v 0.04270697 -0.03638814 0.08869784
v 0.04281390 -0.04068216 0.08867174
v 0.04295677 -0.04073581 0.08867141
v 0.04315430 -0.04092004 0.08867029
v -0.03583539 0.04215276 0.08917526
v -0.03668172 0.04577356 0.08919727
v 0.04920888 -0.03326837 0.08871680
v 0.04828089 -0.02842792 0.08874623
v -0.02787501 0.04772659 0.08920914
v -0.02855790 0.05117823 0.08923012
v 0.05392169 -0.02472462 0.08876874
v 0.05238783 -0.01962065 0.08879977
v -0.01906759 0.05183345 0.08923411
v -0.01965541 0.05517245 0.08925441
v 0.05716432 -0.01552189 0.08882468
v 0.05490303 -0.01023411 0.08885682
v -0.00968088 0.05434854 0.08924940
v -0.01021696 0.05764718 0.08926945
v 0.05884826 -0.00591100 0.08888310
v 0.05574995 -0.00055343 0.08891567
v -0.00050001 0.05833710 0.08927365
v -0.00000001 0.05519551 0.08925455
v -0.00050001 0.05853498 0.08927485
v 0.00049999 0.05833710 0.08927365
v 0.05892759 0.00384592 0.08894242
v 0.05490303 0.00912727 0.08897452
v 0.00968086 0.05434854 0.08924940
v 0.01021694 0.05764718 0.08926945
v 0.00049999 0.05853498 0.08927485
v 0.05740028 0.01348298 0.08900100
v 0.05238783 0.01851382 0.08903158
v 0.01965539 0.05517245 0.08925441
v 0.01906757 0.05183345 0.08923411
v 0.05430787 0.02273726 0.08905725
v 0.04828089 0.02732101 0.08908512
v 0.02855788 0.05117823 0.08923014
v 0.02787499 0.04772659 0.08920915
v 0.04973464 0.03135653 0.08910964
v 0.04270695 0.03528131 0.08913350
v 0.03668170 0.04577356 0.08919729
v 0.03583537 0.04215276 0.08917528
v 0.04380541 0.03910571 0.08915675
v -0.05238783 -0.01962977 0.09029973
v -0.04828089 -0.02843703 0.09024619
v -0.04270695 -0.03639726 0.09019780
v -0.00968086 -0.05546456 0.09008191
v -0.02787499 -0.04884254 0.09012216
v -0.01906757 -0.05294941 0.09009720
v -0.00968086 -0.05546456 0.09008191
v -0.03583537 -0.04326872 0.09015603
v -0.02787499 -0.04884254 0.09012216
v -0.05490303 0.00911815 0.09047449
v -0.05490303 -0.01024323 0.09035679
v -0.05574995 -0.00056255 0.09041563
v 0.00968088 -0.05546456 0.09008191
v 0.00000001 -0.05631152 0.09007676
v -0.04828089 0.02731190 0.09058508
v -0.05238783 0.01850470 0.09053154
v 0.03583539 -0.04326872 0.09015605
v 0.01906759 -0.05294941 0.09009720
v 0.02787501 -0.04884254 0.09012217
v 0.00968088 -0.05546456 0.09008191
v -0.02787501 0.04771747 0.09070912
v -0.04270697 0.03527219 0.09063347
v -0.03583539 0.04214364 0.09067524
v 0.04828089 -0.02843703 0.09024621
v 0.04270697 -0.03639726 0.09019782
v -0.00968088 0.05433942 0.09074938
v -0.01906759 0.05182433 0.09073409
v 0.05574995 -0.00056255 0.09041565
v 0.05238783 -0.01962977 0.09029975
v 0.05490303 -0.01024323 0.09035680
v 0.00968086 0.05433942 0.09074938
v -0.00000001 0.05518639 0.09075453
v 0.00968086 0.05433942 0.09074938
v -0.00968088 0.05433942 0.09074938
v 0.05490303 0.00911815 0.09047450
v 0.02787499 0.04771747 0.09070913
v 0.01906757 0.05182433 0.09073409
v 0.04828089 0.02731190 0.09058510
v 0.05238783 0.01850470 0.09053156
v 0.03583537 0.04214364 0.09067526
v 0.04270695 0.03527219 0.09063348
v 0.03583537 0.04214364 0.09067526
v 0.04828089 0.02731190 0.09058510
v -0.05574995 -0.00056255 0.09041563
v -0.05574995 -0.00055343 0.08891565
v -0.05490303 -0.01023411 0.08885681
v -0.05490303 -0.01024323 0.09035679
v -0.05238783 -0.01962065 0.08879975
v -0.05238783 -0.01962977 0.09029973
v -0.04828089 -0.02842792 0.08874621
v -0.04828089 -0.02843703 0.09024619
v -0.04270695 -0.03638814 0.08869782
v -0.04270695 -0.03639726 0.09019780
v -0.03583537 -0.04325960 0.08865605
v -0.03583537 -0.04326872 0.09015603
v -0.02787499 -0.04883342 0.08862218
v -0.02787499 -0.04884254 0.09012216
v -0.01906757 -0.05294029 0.08859722
v -0.01906757 -0.05294941 0.09009720
v -0.00968086 -0.05545544 0.08858193
v -0.00968086 -0.05546456 0.09008191
v 0.00000001 -0.05630240 0.08857678
v 0.00000001 -0.05631152 0.09007676
v 0.00968088 -0.05545544 0.08858193
v 0.00968088 -0.05546456 0.09008191
v 0.01906759 -0.05294029 0.08859722
v 0.01906759 -0.05294941 0.09009720
v 0.02787501 -0.04883342 0.08862219
v 0.02787501 -0.04884254 0.09012217
v 0.03583539 -0.04325960 0.08865607
v 0.03583539 -0.04326872 0.09015605
v 0.04270697 -0.03639726 0.09019782
v 0.04270697 -0.03638814 0.08869784
v 0.04828089 -0.02842792 0.08874623
v 0.04828089 -0.02843703 0.09024621
v 0.05238783 -0.01962065 0.08879977
v 0.05238783 -0.01962977 0.09029975
v 0.05490303 -0.01023411 0.08885682
v 0.05490303 -0.01024323 0.09035680
v 0.05574995 -0.00055343 0.08891567
v 0.05574995 -0.00056255 0.09041565
v 0.05490303 0.00911815 0.09047450
v 0.05490303 0.00912727 0.08897452
v 0.05238783 0.01851382 0.08903158
v 0.05238783 0.01850470 0.09053156
v 0.04828089 0.02732101 0.08908512
v 0.04828089 0.02731190 0.09058510
v 0.04270695 0.03527219 0.09063348
v 0.04270695 0.03528131 0.08913350
v 0.03583537 0.04215276 0.08917528
v 0.03583537 0.04214364 0.09067526
v 0.02787499 0.04772659 0.08920915
v 0.02787499 0.04771747 0.09070913
v 0.01906757 0.05183345 0.08923411
v 0.01906757 0.05182433 0.09073409
v 0.00968086 0.05434854 0.08924940
v 0.00968086 0.05433942 0.09074938
v -0.00000001 0.05518639 0.09075453
v -0.00000001 0.05519551 0.08925455
v -0.00968088 0.05433942 0.09074938
v -0.00968088 0.05434854 0.08924940
v -0.01906759 0.05182433 0.09073409
v -0.01906759 0.05183345 0.08923411
v -0.02787501 0.04771747 0.09070912
v -0.02787501 0.04772659 0.08920914
v -0.03583539 0.04214364 0.09067524
v -0.03583539 0.04215276 0.08917526
v -0.04270697 0.03528131 0.08913349
v -0.04270697 0.03527219 0.09063347
v -0.04828089 0.02731190 0.09058508
v -0.04828089 0.02732101 0.08908510
v -0.05238783 0.01851382 0.08903156
v -0.05238783 0.01850470 0.09053154
v -0.05490303 0.00911815 0.09047449
v -0.05490303 0.00912727 0.08897451
v -0.05574995 -0.00056255 0.09041563
v -0.05574995 -0.00055343 0.08891565
f 1 2 3
f 4 5 6
f 7 3 2
f 8 6 5
f 9 1 3
f 10 5 4
f 11 3 7
f 12 8 5
f 13 3 14
f 13 9 3
f 15 16 5
f 15 5 10
f 17 13 14
f 18 16 15
f 19 17 14
f 20 16 18
f 21 19 14
f 22 16 20
f 23 12 5
f 24 21 14
f 25 16 22
f 26 24 14
f 27 16 25
f 28 3 11
f 28 29 3
f 30 16 27
f 31 26 14
f 32 14 16
f 33 14 32
f 34 14 33
f 35 32 16
f 36 12 23
f 37 14 34
f 38 35 16
f 39 14 37
f 40 38 16
f 41 31 14
f 41 14 39
f 42 16 30
f 42 40 16
f 43 31 41
f 43 44 31
f 45 30 46
f 45 42 30
f 47 29 28
f 48 44 43
f 49 45 46
f 50 44 48
f 51 49 46
f 52 44 50
f 53 51 46
f 54 29 47
f 55 36 23
f 56 44 52
f 57 53 46
f 58 44 56
f 59 57 46
f 60 44 58
f 61 59 46
f 62 54 47
f 63 54 62
f 64 54 63
f 65 36 55
f 66 54 64
f 67 54 66
f 68 54 67
f 69 54 68
f 70 54 69
f 71 65 55
f 72 65 71
f 73 74 70
f 73 69 75
f 73 70 69
f 76 70 74
f 77 75 78
f 77 73 75
f 79 80 81
f 82 70 76
f 83 77 78
f 84 70 82
f 85 78 86
f 85 83 78
f 87 80 79
f 87 88 80
f 89 70 84
f 90 86 91
f 90 85 86
f 92 70 89
f 93 91 94
f 93 90 91
f 95 96 88
f 95 88 87
f 97 70 92
f 98 94 99
f 98 93 94
f 100 96 95
f 100 101 96
f 102 70 97
f 103 98 99
f 103 104 98
f 103 105 101
f 103 99 105
f 103 101 100
f 106 104 103
f 107 70 102
f 108 70 107
f 109 106 103
f 110 109 103
f 111 110 103
f 112 111 103
f 113 112 103
f 114 115 116
f 117 114 116
f 118 115 114
f 118 119 115
f 120 117 116
f 120 116 121
f 122 119 118
f 122 123 119
f 124 120 121
f 124 121 125
f 126 60 127
f 126 127 128
f 126 128 129
f 126 44 60
f 130 61 46
f 130 131 132
f 130 132 133
f 130 133 61
f 134 123 122
f 134 126 129
f 134 129 123
f 135 124 125
f 135 131 130
f 135 125 131
f 136 126 134
f 137 135 130
f 138 126 136
f 139 137 130
f 140 126 138
f 140 141 126
f 142 130 143
f 142 139 130
f 144 145 141
f 144 141 140
f 146 147 148
f 146 143 147
f 146 142 143
f 149 145 144
f 150 148 151
f 150 146 148
f 152 145 149
f 152 153 145
f 154 151 155
f 154 150 151
f 156 153 152
f 156 157 153
f 158 154 155
f 158 155 159
f 160 157 156
f 160 161 157
f 162 158 159
f 162 163 164
f 162 159 163
f 165 108 166
f 167 168 70
f 167 70 108
f 167 108 165
f 169 166 170
f 169 170 171
f 169 165 166
f 172 168 167
f 173 161 160
f 174 162 164
f 175 171 176
f 175 169 171
f 177 168 172
f 178 175 176
f 178 176 179
f 180 72 71
f 180 71 181
f 182 168 177
f 183 179 184
f 183 178 179
f 185 168 182
f 186 183 184
f 187 168 185
f 188 189 186
f 188 184 190
f 188 190 191
f 188 191 192
f 188 113 103
f 188 192 193
f 188 193 194
f 188 194 195
f 188 195 113
f 188 186 184
f 196 189 188
f 197 189 196
f 198 197 196
f 199 168 187
f 200 197 198
f 201 200 198
f 202 200 201
f 203 202 201
f 204 202 203
f 205 204 203
f 206 207 208
f 206 208 209
f 206 209 210
f 206 210 211
f 206 161 173
f 206 173 207
f 206 212 161
f 213 174 164
f 213 164 214
f 213 211 215
f 213 215 216
f 213 216 217
f 213 217 218
f 213 218 219
f 213 219 174
f 213 206 211
f 220 212 206
f 220 221 212
f 220 222 221
f 220 223 222
f 220 224 223
f 225 226 227
f 228 229 230
f 228 231 229
f 228 232 231
f 228 214 232
f 228 213 214
f 233 168 199
f 234 235 220
f 234 236 235
f 237 228 230
f 237 230 238
f 239 168 233
f 240 181 241
f 240 180 181
f 242 236 234
f 242 243 236
f 244 237 238
f 244 238 245
f 246 239 233
f 247 243 242
f 247 248 243
f 249 244 245
f 249 245 250
f 251 249 250
f 252 248 247
f 253 252 247
f 254 249 251
f 255 240 241
f 256 246 257
f 256 239 246
f 258 255 241
f 259 254 251
f 260 252 253
f 261 256 257
f 262 255 258
f 263 262 258
f 264 256 261
f 265 263 258
f 266 256 264
f 267 265 258
f 268 256 266
f 269 267 258
f 270 256 268
f 271 260 253
f 272 254 259
f 273 260 271
f 274 272 259
f 275 273 271
f 275 276 273
f 275 277 276
f 275 278 277
f 275 279 278
f 280 272 274
f 280 281 282
f 280 283 281
f 280 284 283
f 280 285 284
f 286 287 288
f 289 290 291
f 289 256 270
f 289 292 290
f 289 293 292
f 289 294 293
f 289 295 294
f 289 270 295
f 296 269 258
f 296 297 269
f 296 298 297
f 296 299 298
f 296 300 299
f 296 301 300
f 296 302 301
f 303 304 305
f 306 304 303
f 307 308 309
f 307 309 310
f 311 304 306
f 312 313 314
f 312 305 313
f 312 303 305
f 315 308 307
f 315 316 308
f 317 310 309
f 318 304 311
f 319 314 320
f 319 312 314
f 319 320 321
f 322 316 315
f 322 323 316
f 324 317 309
f 325 304 318
f 326 319 321
f 326 321 327
f 328 329 330
f 331 332 333
f 334 329 328
f 335 333 332
f 336 332 331
f 337 330 329
f 338 323 322
f 338 339 323
f 340 324 309
f 341 332 336
f 341 309 332
f 342 329 304
f 342 304 325
f 342 337 329
f 343 329 334
f 344 335 332
f 345 326 327
f 345 346 347
f 345 327 346
f 348 279 275
f 348 347 279
f 349 280 282
f 349 282 350
f 351 349 350
f 351 339 338
f 351 350 339
f 352 291 329
f 352 329 343
f 353 340 309
f 353 309 341
f 353 354 340
f 355 325 356
f 355 342 325
f 357 344 332
f 357 332 302
f 358 345 347
f 358 347 348
f 359 291 352
f 359 289 291
f 360 354 353
f 361 356 362
f 361 355 356
f 363 302 296
f 363 357 302
f 364 349 351
f 365 354 360
f 366 358 348
f 367 289 359
f 368 362 369
f 368 361 362
f 370 365 360
f 371 363 296
f 372 349 364
f 373 365 370
f 374 289 367
f 375 373 370
f 376 368 369
f 377 371 296
f 378 376 369
f 379 366 348
f 380 349 372
f 381 373 375
f 382 289 374
f 383 381 375
f 384 376 378
f 385 377 296
f 386 384 378
f 387 379 348
f 388 349 380
f 389 381 383
f 390 289 382
f 391 389 383
f 392 384 386
f 393 385 296
f 394 392 386
f 395 387 348
f 396 392 394
f 397 349 388
f 398 389 391
f 398 391 399
f 400 396 394
f 401 398 399
f 402 396 400
f 403 398 401
f 404 402 400
f 405 403 401
f 406 402 404
f 407 403 405
f 408 407 405
f 409 410 406
f 409 406 404
f 411 407 408
f 412 411 408
f 413 414 410
f 413 410 409
f 415 412 416
f 415 411 412
f 417 418 419
f 417 419 420
f 417 420 421
f 417 421 395
f 417 395 348
f 422 349 397
f 422 397 423
f 422 423 424
f 422 424 425
f 422 425 426
f 427 414 413
f 427 428 414
f 429 415 416
f 430 428 427
f 430 431 428
f 432 289 390
f 432 433 434
f 432 390 435
f 432 435 436
f 432 436 437
f 432 437 438
f 432 438 433
f 439 393 296
f 439 440 441
f 439 441 442
f 439 442 443
f 439 443 444
f 439 444 393
f 445 446 447
f 448 447 449
f 448 445 447
f 450 451 446
f 450 452 451
f 450 446 445
f 450 430 453
f 450 453 454
f 450 454 452
f 450 431 430
f 455 448 449
f 456 457 458
f 456 459 457
f 460 461 457
f 460 457 459
f 462 456 458
f 462 416 463
f 462 429 416
f 462 458 464
f 462 464 465
f 462 465 466
f 462 466 429
f 467 461 460
f 467 468 461
f 469 455 449
f 469 449 470
f 471 468 467
f 472 470 418
f 472 469 470
f 473 468 471
f 473 426 468
f 474 418 417
f 474 472 418
f 475 426 473
f 475 422 426
f 476 474 417
f 476 417 477
f 478 422 475
f 479 476 477
f 480 479 477
f 481 422 478
f 481 482 422
f 483 480 477
f 484 482 481
f 485 483 477
f 486 485 477
f 487 482 484
f 488 482 487
f 489 486 477
f 490 482 488
f 491 489 477
f 492 491 477
f 493 463 494
f 493 494 495
f 493 495 496
f 493 496 497
f 493 497 498
f 493 498 499
f 493 462 463
f 500 440 439
f 500 499 440
f 500 493 499
f 501 492 477
f 502 500 439
f 503 431 450
f 503 434 504
f 503 504 505
f 503 505 506
f 503 506 507
f 503 507 508
f 503 508 431
f 503 432 434
f 509 432 503
f 510 502 439
f 511 432 509
f 512 432 511
f 513 510 439
f 514 432 512
f 515 501 477
f 515 516 501
f 515 517 516
f 518 482 490
f 519 432 514
f 520 513 439
f 521 517 515
f 522 432 519
f 523 520 439
f 524 521 515
f 525 432 522
f 526 524 515
f 527 523 439
f 528 526 515
f 529 518 490
f 530 432 525
f 530 531 532
f 530 533 531
f 530 534 533
f 530 535 534
f 530 525 535
f 536 527 439
f 536 537 527
f 536 538 537
f 536 539 538
f 536 540 539
f 541 540 536
f 542 528 515
f 543 518 529
f 544 530 532
f 545 543 529
f 546 528 542
f 547 543 545
f 548 541 536
f 549 547 545
f 550 530 544
f 550 544 551
f 552 548 536
f 553 548 552
f 554 550 551
f 555 550 554
f 556 528 546
f 557 550 555
f 558 559 547
f 558 547 549
f 560 561 559
f 560 559 558
f 562 563 564
f 565 562 564
f 566 562 565
f 567 566 565
f 568 566 567
f 569 568 567
f 570 568 569
f 571 570 569
f 572 570 571
f 573 574 575
f 576 575 574
f 576 574 577
f 578 574 573
f 579 580 581
f 579 582 580
f 583 576 577
f 584 572 571
f 585 582 579
f 586 581 580
f 587 572 584
f 588 574 578
f 589 561 560
f 589 590 561
f 591 586 580
f 592 582 585
f 593 583 577
f 594 574 588
f 595 596 597
f 598 582 592
f 599 591 580
f 600 572 587
f 601 593 577
f 602 590 603
f 604 546 605
f 604 605 574
f 604 574 594
f 606 590 602
f 607 601 577
f 608 582 598
f 609 599 580
f 610 572 600
f 611 607 577
f 612 590 606
f 613 611 577
f 614 582 608
f 615 609 580
f 616 613 577
f 617 616 577
f 617 577 582
f 618 580 590
f 618 590 612
f 619 617 582
f 619 582 614
f 620 614 621
f 620 619 614
f 622 580 618
f 622 615 580
f 622 623 615
f 624 620 621
f 625 624 621
f 626 550 557
f 626 627 556
f 626 628 627
f 626 629 628
f 626 630 629
f 626 631 630
f 626 632 631
f 626 633 632
f 626 634 633
f 626 635 634
f 626 557 635
f 636 637 553
f 636 638 637
f 636 639 638
f 636 640 639
f 636 641 640
f 636 642 641
f 636 643 642
f 636 553 552
f 644 624 625
f 645 646 623
f 645 623 622
f 647 625 648
f 647 644 625
f 649 647 648
f 650 649 648
f 651 646 645
f 651 652 646
f 653 649 650
f 654 653 650
f 655 654 650
f 656 654 655
f 657 652 651
f 657 658 659
f 657 659 652
f 660 656 655
f 661 656 660
f 662 663 658
f 662 658 657
f 664 656 661
f 665 656 664
f 666 663 662
f 666 667 668
f 666 668 669
f 666 669 663
f 670 671 672
f 670 673 671
f 674 670 672
f 674 672 675
f 676 674 675
f 676 675 677
f 678 676 677
f 678 677 679
f 680 678 679
f 681 626 556
f 681 556 546
f 682 643 636
f 682 683 643
f 682 684 683
f 682 685 684
f 682 610 685
f 682 679 572
f 682 572 610
f 686 680 679
f 687 686 679
f 688 687 679
f 689 679 682
f 689 688 679
f 690 689 682
f 691 690 682
f 692 691 682
f 693 692 682
f 694 695 696
f 697 698 699
f 697 699 695
f 697 695 694
f 700 701 698
f 700 698 697
f 702 694 696
f 702 696 703
f 704 702 703
f 704 703 667
f 705 701 700
f 705 665 701
f 706 665 705
f 706 656 665
f 707 704 667
f 707 667 666
f 708 707 666
f 709 656 706
f 710 546 604
f 710 681 546
f 711 708 666
f 712 656 709
f 713 656 712
f 714 711 666
f 715 681 710
f 715 716 717
f 715 718 716
f 715 719 718
f 715 720 719
f 715 710 720
f 721 693 682
f 721 722 693
f 721 723 722
f 721 724 723
f 721 725 724
f 721 726 725
f 721 727 726
f 728 715 717
f 729 715 728
f 730 715 729
f 731 715 730
f 732 715 731
f 733 727 721
f 734 735 736
f 734 736 737
f 734 714 666
f 734 737 738
f 734 738 739
f 734 739 740
f 734 740 714
f 741 735 734
f 741 742 735
f 743 713 744
f 743 744 745
f 743 745 746
f 743 746 747
f 743 747 748
f 743 748 749
f 743 656 713
f 750 751 752
f 750 753 751
f 750 732 753
f 750 715 732
f 754 755 733
f 754 733 721
f 756 750 752
f 757 758 759
f 757 760 758
f 757 761 760
f 757 762 761
f 757 763 762
f 757 756 763
f 757 750 756
f 764 765 755
f 764 766 765
f 764 767 766
f 764 768 767
f 764 769 768
f 764 770 769
f 764 755 754
f 771 772 743
f 771 773 772
f 771 774 773
f 771 775 774
f 771 776 775
f 771 777 776
f 771 759 777
f 771 757 759
f 771 749 778
f 771 743 749
f 771 778 779
f 771 779 780
f 771 780 781
f 771 781 782
f 783 770 764
f 783 771 782
f 783 742 741
f 783 784 770
f 783 785 784
f 783 786 785
f 783 787 786
f 783 788 787
f 783 741 788
f 783 782 789
f 783 789 790
f 783 790 791
f 783 791 792
f 783 792 742
f 793 794 795
f 796 794 793
f 796 797 798
f 796 798 799
f 796 800 794
f 796 799 800
f 801 793 795
f 801 795 802
f 803 804 797
f 803 797 796
f 805 802 806
f 805 801 802
f 807 808 804
f 807 804 803
f 809 805 806
f 809 806 810
f 811 808 807
f 812 808 811
f 813 809 810
f 813 810 814
f 815 812 811
f 816 812 815
f 817 813 814
f 818 813 817
f 819 816 815
f 820 816 819
f 821 818 817
f 822 818 821
f 823 820 819
f 824 820 823
f 825 822 821
f 826 822 825
f 827 824 823
f 828 824 827
f 829 826 825
f 830 826 829
f 831 828 827
f 832 828 831
f 833 830 829
f 834 835 836
f 834 833 835
f 834 836 837
f 834 830 833
f 838 832 831
f 839 832 838
f 840 834 837
f 841 834 840
f 842 839 838
f 843 839 842
f 844 841 840
f 845 841 844
f 846 843 842
f 847 843 846
f 848 845 844
f 849 845 848
f 850 847 846
f 851 847 850
f 852 849 848
f 853 849 852
f 854 851 850
f 854 850 855
f 856 851 854
f 857 854 855
f 858 853 852
f 859 853 858
f 860 857 855
f 861 857 860
f 861 862 857
f 863 859 858
f 864 859 863
f 865 861 860
f 865 860 866
f 867 864 863
f 867 868 864
f 869 865 866
f 869 866 870
f 871 868 867
f 871 872 868
f 873 869 870
f 873 870 874
f 875 872 871
f 875 873 874
f 875 874 872
f 876 877 878
f 879 880 881
f 882 883 884
f 885 886 876
f 885 887 886
f 888 879 889
f 890 891 885
f 890 878 883
f 890 876 878
f 890 885 876
f 890 883 882
f 892 893 894
f 892 895 893
f 892 882 895
f 896 897 890
f 896 898 897
f 896 890 882
f 899 892 900
f 901 902 896
f 903 904 905
f 903 899 904
f 906 907 901
f 908 909 896
f 910 892 899
f 910 899 903
f 911 912 908
f 913 910 914
f 913 892 910
f 915 911 908
f 915 892 913
f 915 882 892
f 915 896 882
f 915 908 896
f 916 917 918
f 919 920 921
f 922 921 923
f 922 919 921
f 924 923 925
f 924 922 923
f 926 925 927
f 926 924 925
f 928 927 929
f 928 926 927
f 930 929 931
f 930 928 929
f 932 930 931
f 932 931 933
f 934 932 933
f 934 933 935
f 936 934 935
f 936 935 937
f 938 936 937
f 938 937 939
f 940 938 939
f 940 939 941
f 942 940 941
f 942 941 943
f 944 942 943
f 944 943 945
f 946 944 945
f 947 946 945
f 947 945 948
f 947 948 949
f 950 947 949
f 950 949 951
f 952 950 951
f 952 951 953
f 954 952 953
f 954 953 955
f 956 954 955
f 957 955 958
f 957 956 955
f 957 958 959
f 960 959 961
f 960 957 959
f 962 960 961
f 963 961 964
f 963 964 965
f 963 962 961
f 966 965 967
f 966 963 965
f 968 967 969
f 968 966 967
f 970 969 971
f 970 968 969
f 972 970 971
f 973 971 974
f 973 972 971
f 975 974 976
f 975 973 974
f 977 976 978
f 977 975 976
f 979 978 980
f 979 977 978
f 981 979 980
f 981 980 982
f 981 982 983
f 984 981 983
f 985 984 983
f 985 983 986
f 985 986 987
f 988 985 987
f 989 988 987
f 989 987 990
f 991 989 990
f 991 990 992

