# https://github.com/mikedh/trimesh
v 0.00607765 -0.07482569 0.07554604
v 0.00000000 -0.07482246 0.07501432
v 0.00000000 -0.06382263 0.07508118
v 0.00607765 -0.06382586 0.07561291
v 0.01197069 -0.07483529 0.07712506
v 0.01197069 -0.06383546 0.07719193
v 0.01749998 -0.07485096 0.07970333
v 0.01749998 -0.06385113 0.07977020
v 0.02249753 -0.07487223 0.08320260
v 0.02249753 -0.06387240 0.08326947
v 0.02681154 -0.07489845 0.08751652
v 0.02681154 -0.06389862 0.08758339
v 0.03031086 -0.07492884 0.09251397
v 0.03031086 -0.06392901 0.09258084
v 0.03288924 -0.07496244 0.09804323
v 0.03288924 -0.06396262 0.09811009
v 0.03446823 -0.07499827 0.10393612
v 0.03446823 -0.06399844 0.10400299
v 0.03499996 -0.07503521 0.11001361
v 0.03499996 -0.06403539 0.11008048
v 0.03446823 -0.07507215 0.11609120
v 0.03446823 -0.06407233 0.11615807
v 0.03288924 -0.07510798 0.12198418
v 0.03288924 -0.06410815 0.12205105
v 0.03031086 -0.07514159 0.12751338
v 0.03031086 -0.06414177 0.12758026
v 0.02681154 -0.07517197 0.13251078
v 0.02681154 -0.06417214 0.13257766
v 0.02249753 -0.07519820 0.13682471
v 0.02249753 -0.06419837 0.13689159
v 0.01749998 -0.07521947 0.14032404
v 0.01749998 -0.06421964 0.14039092
v 0.01197069 -0.07523514 0.14290228
v 0.01197069 -0.06423531 0.14296916
v 0.00607765 -0.07524474 0.14448126
v 0.00607765 -0.06424491 0.14454813
v 0.00000000 -0.07524797 0.14501306
v 0.00000000 -0.06424814 0.14507994
v -0.00607765 -0.07524474 0.14448126
v -0.00607765 -0.06424491 0.14454813
v -0.01197069 -0.07523514 0.14290228
v -0.01197069 -0.06423531 0.14296916
v -0.01749998 -0.07521947 0.14032404
v -0.01749998 -0.06421964 0.14039092
v -0.02249753 -0.07519820 0.13682471
v -0.02249753 -0.06419837 0.13689159
v -0.02681154 -0.07517197 0.13251078
v -0.02681154 -0.06417214 0.13257766
v -0.03031086 -0.07514159 0.12751338
v -0.03031086 -0.06414177 0.12758026
v -0.03288924 -0.07510798 0.12198418
v -0.03288924 -0.06410815 0.12205105
v -0.03446823 -0.07507215 0.11609120
v -0.03446823 -0.06407233 0.11615807
v -0.03499996 -0.07503521 0.11001361
v -0.03499996 -0.06403539 0.11008048
v -0.03446823 -0.07499827 0.10393612
v -0.03446823 -0.06399844 0.10400299
v -0.03288924 -0.07496244 0.09804323
v -0.03288924 -0.06396262 0.09811009
v -0.03031086 -0.07492884 0.09251397
v -0.03031086 -0.06392901 0.09258084
v -0.02681154 -0.07489845 0.08751652
v -0.02681154 -0.06389862 0.08758339
v -0.02249753 -0.07487223 0.08320260
v -0.02249753 -0.06387240 0.08326947
v -0.01749998 -0.07485096 0.07970333
v -0.01749998 -0.06385113 0.07977020
v -0.01197069 -0.07483529 0.07712506
v -0.01197069 -0.06383546 0.07719193
v -0.00607765 -0.07482569 0.07554604
v -0.00607765 -0.06382586 0.07561291
v 0.00000000 -0.07482246 0.07501432
v 0.00000000 -0.06382263 0.07508118
v 0.03031086 -0.07492884 0.09251397
v 0.02249753 -0.07487223 0.08320260
v 0.02681154 -0.07489845 0.08751652
v 0.00607765 -0.07482569 0.07554604
v 0.01197069 -0.07483529 0.07712506
v 0.01749998 -0.07485096 0.07970333
v 0.03446823 -0.07499827 0.10393612
v 0.03288924 -0.07496244 0.09804323
v -0.01197069 -0.07483529 0.07712506
v -0.00607765 -0.07482569 0.07554604
v 0.00000000 -0.07482246 0.07501432
v 0.03031086 -0.07514159 0.12751338
v 0.03499996 -0.07503521 0.11001361
v 0.03446823 -0.07507215 0.11609120
v 0.03288924 -0.07510798 0.12198418
v 0.02681154 -0.07517197 0.13251078
v 0.02249753 -0.07519820 0.13682471
v 0.01749998 -0.07521947 0.14032404
v 0.00000000 -0.07524797 0.14501306
v 0.01197069 -0.07523514 0.14290228
v 0.00607765 -0.07524474 0.14448126
v -0.03446823 -0.07507215 0.11609120
v -0.03499996 -0.07503521 0.11001361
v -0.03446823 -0.07499827 0.10393612
v -0.03288924 -0.07496244 0.09804323
v -0.03031086 -0.07492884 0.09251397
v -0.02681154 -0.07489845 0.08751652
v -0.02249753 -0.07487223 0.08320260
v -0.00607765 -0.07524474 0.14448126
v 0.01197069 -0.07523514 0.14290228
v -0.03288924 -0.07510798 0.12198418
v -0.01749998 -0.07521947 0.14032404
v -0.01197069 -0.07523514 0.14290228
v -0.01749998 -0.07485096 0.07970333
v -0.02249753 -0.07519820 0.13682471
v -0.02681154 -0.07517197 0.13251078
v -0.03031086 -0.07514159 0.12751338
v 0.00187111 -0.04754622 0.14915514
v -0.00501263 -0.04726564 0.14887793
v -0.00158489 -0.04755912 0.14916787
v 0.00532198 -0.04722403 0.14883679
v -0.00867778 -0.04660668 0.14822693
v -0.00501263 -0.04726564 0.14887793
v 0.00532198 -0.04722403 0.14883679
v 0.00867599 -0.04660710 0.14822732
v -0.00867778 -0.04660668 0.14822693
v 0.01190692 -0.04571595 0.14734691
v -0.01248598 -0.04552400 0.14715728
v 0.01499462 -0.04457246 0.14621724
v -0.01606780 -0.04410316 0.14575370
v 0.01790124 -0.04321003 0.14487131
v -0.01987868 -0.04210744 0.14378199
v 0.02147901 -0.04109942 0.14278620
v -0.02381414 -0.03942223 0.14112927
v 0.02444446 -0.03892223 0.14063530
v -0.02726370 -0.03640582 0.13814934
v 0.02769070 -0.03597983 0.13772842
v -0.03061103 -0.03266258 0.13445133
v 0.03081876 -0.03239536 0.13418736
v 0.03340440 -0.02860193 0.13043985
v -0.03378909 -0.02794728 0.12979302
v 0.03605955 -0.02330214 0.12520397
v -0.03607100 -0.02327457 0.12517674
v 0.03801566 -0.01712824 0.11910468
v -0.03827834 -0.01588826 0.11787970
v 0.03875952 -0.01274761 0.11477703
v -0.03900319 -0.00833641 0.11041916
v 0.03900301 -0.00833641 0.11041906
v -0.03856962 -0.00252391 0.10467689
v 0.03827923 -0.00082817 0.10300157
v -0.03728818 0.00316031 0.09906125
v 0.03614372 0.00640260 0.09585819
v -0.03510266 0.00876070 0.09352859
v 0.00354224 0.03073771 0.07181715
v -0.00044364 0.03089734 0.07165947
v -0.00442487 0.03064650 0.07190720
v 0.00792569 0.03008108 0.07246579
v -0.00835979 0.02998783 0.07255791
v -0.01220732 0.02892824 0.07360470
v 0.00354224 0.03073771 0.07181715
v -0.00442487 0.03064650 0.07190720
v 0.03267228 0.01308861 0.08925297
v -0.02877926 0.01814326 0.08425941
v -0.03209173 0.01395901 0.08839303
v 0.01267379 0.02877028 0.07376081
v -0.01592707 0.02747880 0.07503668
v 0.02799326 0.01898272 0.08343003
v -0.02594012 0.02096231 0.08147436
v 0.01770937 0.02662141 0.07588365
v -0.01948022 0.02565464 0.07683874
v 0.02289181 0.02342960 0.07903694
v -0.02282959 0.02347488 0.07899215
v 0.03359401 -0.02025947 0.06034573
v 0.03096038 -0.02590715 0.06031140
v 0.02738606 -0.03101171 0.06028037
v 0.01222717 -0.04162586 0.06021585
v 0.02297961 -0.03541808 0.06025358
v 0.01787495 -0.03899233 0.06023185
v 0.00000000 -0.04378183 0.06020274
v 0.00620788 -0.04323873 0.06020604
v 0.03520685 -0.00182470 0.06045779
v 0.03520685 -0.01424030 0.06038232
v 0.03520685 -0.00182470 0.06045779
v 0.03574997 -0.00803247 0.06042005
v 0.03520685 -0.01424030 0.06038232
v 0.03096038 0.00984215 0.06052871
v 0.03359401 0.00419448 0.06049438
v -0.01787495 -0.03899233 0.06023185
v -0.00620788 -0.04323873 0.06020604
v -0.01222717 -0.04162586 0.06021585
v -0.02738606 -0.03101171 0.06028037
v -0.02297961 -0.03541808 0.06025358
v -0.03096038 -0.02590715 0.06031140
v 0.01222717 0.02556086 0.06062427
v 0.02738606 0.01494666 0.06055975
v 0.02297961 0.01935303 0.06058653
v 0.01787495 0.02292728 0.06060826
v -0.03574997 -0.00803247 0.06042005
v -0.03359401 -0.02025947 0.06034573
v -0.03520685 -0.01424030 0.06038232
v -0.03574997 -0.00803247 0.06042005
v -0.03359401 -0.02025947 0.06034573
v -0.00620788 0.02717367 0.06063407
v 0.00620788 0.02717367 0.06063407
v 0.00000000 0.02771678 0.06063737
v -0.01787495 0.02292728 0.06060826
v -0.01222717 0.02556086 0.06062427
v -0.03520685 -0.00182470 0.06045779
v -0.03359401 0.00419448 0.06049438
v -0.02738606 0.01494666 0.06055975
v -0.02297961 0.01935303 0.06058653
v -0.03096038 0.00984215 0.06052871
v 0.00000000 0.02771678 0.06063737
v 0.00000000 0.02770766 0.06213737
v 0.00620788 0.02716455 0.06213407
v 0.00620788 0.02717367 0.06063407
v 0.01222717 0.02555174 0.06212426
v 0.01222717 0.02556086 0.06062427
v 0.01787495 0.02291816 0.06210825
v 0.01787495 0.02292728 0.06060826
v 0.02297961 0.01934391 0.06208653
v 0.02297961 0.01935303 0.06058653
v 0.02738606 0.01493754 0.06205974
v 0.02738606 0.01494666 0.06055975
v 0.03096038 0.00983303 0.06202871
v 0.03096038 0.00984215 0.06052871
v 0.03359401 0.00418537 0.06199438
v 0.03359401 0.00419448 0.06049438
v 0.03520685 -0.00183382 0.06195779
v 0.03520685 -0.00182470 0.06045779
v 0.03574997 -0.00804159 0.06192005
v 0.03574997 -0.00803247 0.06042005
v 0.03520685 -0.01424941 0.06188232
v 0.03520685 -0.01424030 0.06038232
v 0.03359401 -0.02026859 0.06184573
v 0.03359401 -0.02025947 0.06034573
v 0.03096038 -0.02591627 0.06181139
v 0.03096038 -0.02590715 0.06031140
v 0.02738606 -0.03102083 0.06178036
v 0.02738606 -0.03101171 0.06028037
v 0.02297961 -0.03542720 0.06175358
v 0.02297961 -0.03541808 0.06025358
v 0.01787495 -0.03900145 0.06173185
v 0.01787495 -0.03899233 0.06023185
v 0.01222717 -0.04162586 0.06021585
v 0.01222717 -0.04163498 0.06171584
v 0.00620788 -0.04324785 0.06170604
v 0.00620788 -0.04323873 0.06020604
v 0.00000000 -0.04379095 0.06170274
v 0.00000000 -0.04378183 0.06020274
v -0.00620788 -0.04324785 0.06170604
v -0.00620788 -0.04323873 0.06020604
v -0.01222717 -0.04163498 0.06171584
v -0.01222717 -0.04162586 0.06021585
v -0.01787495 -0.03900145 0.06173185
v -0.01787495 -0.03899233 0.06023185
v -0.02297961 -0.03541808 0.06025358
v -0.02297961 -0.03542720 0.06175358
v -0.02738606 -0.03101171 0.06028037
v -0.02738606 -0.03102083 0.06178036
v -0.03096038 -0.02591627 0.06181139
v -0.03096038 -0.02590715 0.06031140
v -0.03359401 -0.02026859 0.06184573
v -0.03359401 -0.02025947 0.06034573
v -0.03520685 -0.01424030 0.06038232
v -0.03520685 -0.01424941 0.06188232
v -0.03574997 -0.00803247 0.06042005
v -0.03574997 -0.00804159 0.06192005
v -0.03520685 -0.00183382 0.06195779
v -0.03520685 -0.00182470 0.06045779
v -0.03359401 0.00418537 0.06199438
v -0.03359401 0.00419448 0.06049438
v -0.03096038 0.00983303 0.06202871
v -0.03096038 0.00984215 0.06052871
v -0.02738606 0.01493754 0.06205974
v -0.02738606 0.01494666 0.06055975
v -0.02297961 0.01935303 0.06058653
v -0.02297961 0.01934391 0.06208653
v -0.01787495 0.02292728 0.06060826
v -0.01787495 0.02291816 0.06210825
v -0.01222717 0.02556086 0.06062427
v -0.01222717 0.02555174 0.06212426
v -0.00620788 0.02716455 0.06213407
v -0.00620788 0.02717367 0.06063407
v 0.00000000 0.02771678 0.06063737
v 0.00000000 0.02770766 0.06213737
v 0.02681154 -0.06417214 0.13257766
v 0.03189778 -0.06417667 0.13332315
v 0.02879172 -0.06419944 0.13706879
v 0.02249753 -0.06419837 0.13689159
v 0.02523750 -0.06421977 0.14041221
v 0.02129405 -0.06423729 0.14329447
v 0.03031086 -0.06414177 0.12758026
v 0.03667038 -0.06412423 0.12469661
v 0.03451800 -0.06415176 0.12922572
v 0.01749998 -0.06421964 0.14039092
v 0.01702654 -0.06425171 0.14566752
v 0.03288924 -0.06410815 0.12205105
v 0.03857040 -0.06408659 0.11850432
v 0.01197069 -0.06423531 0.14296916
v 0.01249378 -0.06426284 0.14749809
v 0.03446823 -0.06407233 0.11615807
v 0.03943151 -0.06404754 0.11208054
v 0.00607765 -0.06424491 0.14454813
v 0.00776631 -0.06427049 0.14875616
v 0.00415230 -0.06427385 0.14930905
v 0.00050000 -0.06427307 0.14917976
v 0.00050000 -0.06427516 0.14952515
v 0.03499996 -0.06403539 0.11008048
v 0.03946673 -0.06404195 0.11116086
v 0.03946679 -0.06402323 0.10808062
v 0.00000000 -0.06424814 0.14507994
v -0.00050000 -0.06427307 0.14917976
v -0.00697750 -0.06427140 0.14890616
v -0.00050000 -0.06427516 0.14952515
v 0.03446823 -0.06399844 0.10400299
v 0.03856891 -0.06398307 0.10147464
v -0.00607765 -0.06424491 0.14454813
v -0.01076501 -0.06426609 0.14803118
v 0.03288924 -0.06396262 0.09811009
v 0.03657335 -0.06394440 0.09511352
v -0.01197069 -0.06423531 0.14296916
v -0.01445496 -0.06425851 0.14678591
v 0.03031086 -0.06392901 0.09258084
v -0.01749998 -0.06421964 0.14039092
v -0.01888036 -0.06424596 0.14472103
v 0.03353679 -0.06390832 0.08917850
v -0.02351272 -0.06422799 0.14176549
v 0.02681154 -0.06389862 0.08758339
v -0.02249753 -0.06419837 0.13689159
v 0.02954572 -0.06387586 0.08383831
v -0.02768713 -0.06420631 0.13819855
v 0.02249753 -0.06387240 0.08326947
v -0.02681154 -0.06417214 0.13257766
v 0.02471369 -0.06384794 0.07924509
v -0.03131788 -0.06418138 0.13409734
v 0.01749998 -0.06385113 0.07977020
v -0.03031086 -0.06414177 0.12758026
v -0.03434187 -0.06415367 0.12953922
v 0.01917833 -0.06382535 0.07552947
v 0.01197069 -0.06383546 0.07719193
v -0.03648793 -0.06412696 0.12514549
v -0.03288924 -0.06410815 0.12205105
v 0.01309704 -0.06380874 0.07279724
v -0.03792715 -0.06410199 0.12103788
v 0.00607765 -0.06382586 0.07561291
v -0.03446823 -0.06407233 0.11615807
v -0.03890389 -0.06407624 0.11680245
v 0.00664306 -0.06379858 0.07112619
v -0.03923863 -0.06406195 0.11445150
v 0.00000000 -0.06382263 0.07508118
v -0.03499996 -0.06403539 0.11008048
v -0.03943151 -0.06404754 0.11208054
v -0.03946673 -0.06404195 0.11116086
v 0.00000000 -0.06379516 0.07056383
v -0.03946679 -0.06402323 0.10808062
v -0.03446823 -0.06399844 0.10400299
v -0.00664306 -0.06379858 0.07112619
v -0.00607765 -0.06382586 0.07561291
v -0.03856891 -0.06398307 0.10147464
v -0.03288924 -0.06396262 0.09811009
v -0.01309704 -0.06380874 0.07279724
v -0.01197069 -0.06383546 0.07719193
v -0.03657335 -0.06394440 0.09511352
v -0.03031086 -0.06392901 0.09258084
v -0.01917833 -0.06382535 0.07552947
v -0.01749998 -0.06385113 0.07977020
v -0.03353679 -0.06390832 0.08917850
v -0.02681154 -0.06389862 0.08758339
v -0.02471369 -0.06384794 0.07924509
v -0.02249753 -0.06387240 0.08326947
v -0.02954572 -0.06387586 0.08383831
v 0.03827923 -0.00082817 0.10300157
v 0.03900301 -0.00833641 0.11041906
v 0.03899997 -0.00804159 0.06192005
v 0.03840750 -0.00126948 0.06196122
v 0.03614372 0.00640260 0.09585819
v 0.03664797 0.00529685 0.06200114
v 0.03377497 0.01145800 0.06203859
v 0.03267228 0.01308861 0.08925297
v 0.02987569 0.01702659 0.06207244
v 0.02799326 0.01898272 0.08343003
v 0.02506870 0.02183349 0.06210166
v 0.02289181 0.02342960 0.07903694
v 0.01949995 0.02573270 0.06212536
v 0.01770937 0.02662141 0.07588365
v 0.01333874 0.02860564 0.06214283
v 0.01267379 0.02877028 0.07376081
v 0.00792569 0.03008108 0.07246579
v 0.00677222 0.03036514 0.06215352
v 0.00354224 0.03073771 0.07181715
v 0.00000000 0.03095760 0.06215712
v -0.00044364 0.03089734 0.07165947
v -0.00442487 0.03064650 0.07190720
v -0.00677222 0.03036514 0.06215352
v -0.00835979 0.02998783 0.07255791
v -0.01333874 0.02860564 0.06214283
v -0.01220732 0.02892824 0.07360470
v -0.01592707 0.02747880 0.07503668
v -0.01949995 0.02573270 0.06212536
v -0.01948022 0.02565464 0.07683874
v -0.02282959 0.02347488 0.07899215
v -0.02506870 0.02183349 0.06210166
v -0.02594012 0.02096231 0.08147436
v -0.02987569 0.01702659 0.06207244
v -0.02877926 0.01814326 0.08425941
v -0.03209173 0.01395901 0.08839303
v -0.03377497 0.01145800 0.06203859
v -0.03510266 0.00876070 0.09352859
v -0.03664797 0.00529685 0.06200114
v -0.03728818 0.00316031 0.09906125
v -0.03840750 -0.00126948 0.06196122
v -0.03856962 -0.00252391 0.10467689
v -0.03899997 -0.00804159 0.06192005
v -0.03900319 -0.00833641 0.11041916
v 0.03845661 -0.05629643 0.09986573
v 0.03900557 -0.00856288 0.06191688
v 0.03952533 -0.05732402 0.10812134
v 0.03843724 -0.01517845 0.06187667
v 0.00049765 -0.04759261 0.06170239
v 0.00049471 -0.04756833 0.06167977
v 0.00425172 -0.04733820 0.06168117
v 0.00049941 -0.04761688 0.06172507
v 0.00050000 -0.04764128 0.06174775
v 0.03624325 -0.05560142 0.09267766
v 0.03675794 -0.02159758 0.06183765
v 0.03296917 -0.05508583 0.08621673
v 0.03475618 -0.02625314 0.06180935
v -0.00709623 -0.04691865 0.06168372
v -0.00049471 -0.04756833 0.06167977
v -0.00049765 -0.04759261 0.06170239
v -0.00049941 -0.04761688 0.06172507
v -0.00050000 -0.04764128 0.06174775
v 0.02913987 -0.05475552 0.08104341
v 0.03221875 -0.03053554 0.06178331
v 0.02433395 -0.05452100 0.07642050
v 0.02915650 -0.03446187 0.06175945
v 0.02561253 -0.03797186 0.06173811
v 0.00050000 -0.05116124 0.06502470
v 0.01275563 -0.04542236 0.06169282
v 0.01735299 -0.04349144 0.06170456
v 0.00796181 -0.04674794 0.06168476
v -0.00050000 -0.05116124 0.06502470
v -0.01348751 -0.04516052 0.06169441
v -0.01814043 -0.04308852 0.06170700
v 0.01925784 -0.05438042 0.07295421
v 0.02165913 -0.04099501 0.06171973
v 0.01394844 -0.05429677 0.07044143
v 0.00874174 -0.05425182 0.06885971
v 0.00427407 -0.05423276 0.06810851
v 0.00000000 -0.05422723 0.06787577
v -0.00016667 -0.05116123 0.06502195
v 0.00016667 -0.05116123 0.06502195
v -0.00514787 -0.05423632 0.06821476
v -0.01037013 -0.05426282 0.06926926
v -0.01546031 -0.05431571 0.07105670
v -0.02238792 -0.04049595 0.06172277
v -0.02017349 -0.05440039 0.07349370
v -0.02627313 -0.03738321 0.06174169
v -0.02439242 -0.05452314 0.07646770
v -0.02973657 -0.03379353 0.06176351
v -0.02822822 -0.05469975 0.08003707
v -0.03270840 -0.02980004 0.06178778
v -0.03123658 -0.05491333 0.08365736
v -0.03514885 -0.02546012 0.06181417
v -0.03401672 -0.05521683 0.08799952
v -0.03701955 -0.02083536 0.06184228
v -0.03641247 -0.05563929 0.09310378
v -0.03828257 -0.01601969 0.06187155
v -0.03799206 -0.05610009 0.09794634
v -0.03882312 -0.01231194 0.06189409
v -0.03899466 -0.05661393 0.10274675
v -0.03900557 -0.00856288 0.06191688
v -0.03952533 -0.05732402 0.10812134
v 0.03902554 -0.01071810 0.11030739
v 0.03900557 -0.00856288 0.06191688
v 0.03899997 -0.00804159 0.06192005
v 0.03952533 -0.05732402 0.10812134
v 0.03900301 -0.00833641 0.11041906
v 0.03902554 -0.01071810 0.11030739
v 0.03899997 -0.00804159 0.06192005
v -0.03902554 -0.01071804 0.11030739
v -0.03899997 -0.00804159 0.06192005
v -0.03900557 -0.00856288 0.06191688
v -0.03902554 -0.01071804 0.11030739
v -0.03900319 -0.00833641 0.11041916
v -0.03899997 -0.00804159 0.06192005
v -0.03952533 -0.05732402 0.10812134
v 0.03952533 -0.05732402 0.10812134
v 0.03946673 -0.06404195 0.11116086
v 0.03946679 -0.06402323 0.10808062
v 0.03937226 -0.05734768 0.11212127
v 0.03943151 -0.06404754 0.11208054
v 0.03946673 -0.06404195 0.11116086
v 0.03952533 -0.05732402 0.10812134
v 0.03900647 -0.00863420 0.11042035
v 0.03901427 -0.00952752 0.11041182
v 0.03900748 -0.00893189 0.11040334
v 0.03900974 -0.00893204 0.11042764
v 0.03900337 -0.00848528 0.11041596
v 0.03900384 -0.00863419 0.11040815
v 0.03900617 -0.00848532 0.11042206
v 0.03900778 -0.00863424 0.11042646
v 0.03900170 -0.00841090 0.11041661
v 0.03900194 -0.00848532 0.11041286
v 0.03900462 -0.00841086 0.11041961
v 0.03900611 -0.00841087 0.11042111
v 0.03900688 -0.00848533 0.11042356
v 0.03919959 -0.03287899 0.11124010
v 0.03952533 -0.05732402 0.10812134
v 0.03902554 -0.01071810 0.11030739
v 0.03937226 -0.05734768 0.11212127
v 0.03901320 -0.00956448 0.11036310
v 0.03900086 -0.00837365 0.11041764
v 0.03900092 -0.00841089 0.11041581
v 0.03900045 -0.00837365 0.11041744
v 0.03900301 -0.00833641 0.11041906
v 0.03900235 -0.00837366 0.11041844
v 0.03900301 -0.00833641 0.11041906
v 0.03900533 -0.00837367 0.11041994
v 0.03900605 -0.00837361 0.11042034
v 0.03900647 -0.00841087 0.11042151
v 0.03900623 -0.00837361 0.11042034
v 0.03910547 -0.02064488 0.11082305
v 0.03910511 -0.02062633 0.11083026
v 0.03910475 -0.02060772 0.11083748
v 0.03900706 -0.00898766 0.11038981
v 0.03900682 -0.00896906 0.11039032
v 0.03900659 -0.00895047 0.11039073
v 0.03900444 -0.00850395 0.11041775
v 0.03905636 -0.01450929 0.11062364
v 0.03905612 -0.01449065 0.11062695
v 0.03905588 -0.01447207 0.11063027
v 0.03900355 -0.00866206 0.11040418
v 0.03900331 -0.00864347 0.11040480
v 0.03900343 -0.00843880 0.11041775
v 0.03903144 -0.01144147 0.11052249
v 0.03903126 -0.01142283 0.11052381
v 0.03903108 -0.01140424 0.11052512
v 0.03900188 -0.00850856 0.11041122
v 0.03900164 -0.00848997 0.11041193
v 0.03900080 -0.00841322 0.11041550
v 0.03901886 -0.00990752 0.11047152
v 0.03901875 -0.00988892 0.11047193
v 0.03901857 -0.00987033 0.11047224
v 0.03901314 -0.00956566 0.11036149
v 0.03900039 -0.00837484 0.11041733
v 0.03901255 -0.00914059 0.11044598
v 0.03901243 -0.00912199 0.11044589
v 0.03901231 -0.00910334 0.11044571
v -0.03952533 -0.05732402 0.10812134
v -0.03946679 -0.06402323 0.10808062
v -0.03946673 -0.06404195 0.11116086
v -0.03937226 -0.05734768 0.11212127
v -0.03946673 -0.06404195 0.11116086
v -0.03943151 -0.06404754 0.11208054
v -0.03952533 -0.05732402 0.10812134
v -0.03900647 -0.00863420 0.11042035
v -0.03900748 -0.00893189 0.11040334
v -0.03901427 -0.00952752 0.11041192
v -0.03900974 -0.00893204 0.11042774
v -0.03900337 -0.00848528 0.11041596
v -0.03900384 -0.00863419 0.11040825
v -0.03900617 -0.00848532 0.11042206
v -0.03900784 -0.00863424 0.11042646
v -0.03900170 -0.00841090 0.11041661
v -0.03900194 -0.00848532 0.11041286
v -0.03900462 -0.00841086 0.11041961
v -0.03900611 -0.00841087 0.11042111
v -0.03900688 -0.00848533 0.11042356
v -0.03919953 -0.03287899 0.11124069
v -0.03952533 -0.05732402 0.10812134
v -0.03937226 -0.05734768 0.11212127
v -0.03902554 -0.01071804 0.11030739
v -0.03901320 -0.00956448 0.11036310
v -0.03900086 -0.00837365 0.11041764
v -0.03900092 -0.00841089 0.11041581
v -0.03900319 -0.00833641 0.11041916
v -0.03900045 -0.00837365 0.11041744
v -0.03900235 -0.00837366 0.11041844
v -0.03900319 -0.00833641 0.11041916
v -0.03900533 -0.00837367 0.11041994
v -0.03900605 -0.00837361 0.11042034
v -0.03900647 -0.00841087 0.11042151
v -0.03900623 -0.00837361 0.11042034
v -0.03910547 -0.02064488 0.11082335
v -0.03910511 -0.02062633 0.11083066
v -0.03910475 -0.02060772 0.11083788
v -0.03900706 -0.00898766 0.11038981
v -0.03900682 -0.00896906 0.11039032
v -0.03900659 -0.00895047 0.11039073
v -0.03900444 -0.00850395 0.11041775
v -0.03905636 -0.01450929 0.11062384
v -0.03905612 -0.01449065 0.11062726
v -0.03905588 -0.01447207 0.11063047
v -0.03900355 -0.00866206 0.11040418
v -0.03900331 -0.00864347 0.11040480
v -0.03900343 -0.00843880 0.11041775
v -0.03903144 -0.01144148 0.11052259
v -0.03903126 -0.01142283 0.11052401
v -0.03903108 -0.01140424 0.11052532
v -0.03900188 -0.00850856 0.11041122
v -0.03900164 -0.00848997 0.11041193
v -0.03900080 -0.00841322 0.11041550
v -0.03901886 -0.00990752 0.11047162
v -0.03901875 -0.00988892 0.11047203
v -0.03901857 -0.00987033 0.11047234
v -0.03901314 -0.00956560 0.11036149
v -0.03900039 -0.00837484 0.11041733
v -0.03901255 -0.00914059 0.11044607
v -0.03901243 -0.00912199 0.11044589
v -0.03901231 -0.00910334 0.11044580
v 0.03939896 -0.05746213 0.10639606
v 0.03952533 -0.05732402 0.10812134
v 0.03946679 -0.06402323 0.10808062
v 0.03915196 -0.05778469 0.10437047
v 0.03856891 -0.06398307 0.10147464
v 0.03842425 -0.05829681 0.10067448
v 0.03657335 -0.06394440 0.09511352
v 0.03631204 -0.05897031 0.09441102
v 0.03353679 -0.06390832 0.08917850
v 0.03318560 -0.05955883 0.08858205
v 0.02954572 -0.06387586 0.08383831
v 0.02918237 -0.06004191 0.08340880
v 0.02471369 -0.06384794 0.07924509
v 0.02446651 -0.06041590 0.07903159
v 0.01917833 -0.06382535 0.07552947
v 0.01899671 -0.06069548 0.07541736
v 0.01309704 -0.06380874 0.07279724
v 0.01300263 -0.06088083 0.07275502
v 0.00677067 -0.06098117 0.07114033
v 0.00664306 -0.06379858 0.07112619
v 0.00000000 -0.06101451 0.07055648
v 0.00000000 -0.06379516 0.07056383
v -0.00449943 -0.06099926 0.07081322
v -0.00664306 -0.06379858 0.07112619
v -0.00883680 -0.06095354 0.07155632
v -0.01309704 -0.06380874 0.07279724
v -0.01452010 -0.06083841 0.07331824
v -0.01917833 -0.06382535 0.07552947
v -0.01969641 -0.06066276 0.07580952
v -0.02471369 -0.06384794 0.07924509
v -0.02429515 -0.06042582 0.07889723
v -0.02835893 -0.06011933 0.08253599
v -0.02954572 -0.06387586 0.08383831
v -0.03206861 -0.05971523 0.08695220
v -0.03353679 -0.06390832 0.08917850
v -0.03514540 -0.05922396 0.09195264
v -0.03657335 -0.06394440 0.09511352
v -0.03720211 -0.05873358 0.09665029
v -0.03856891 -0.06398307 0.10147464
v -0.03836387 -0.05832342 0.10043312
v -0.03912788 -0.05781321 0.10421029
v -0.03946679 -0.06402323 0.10808062
v -0.03952533 -0.05732402 0.10812134
v 0.03937226 -0.05734768 0.11212127
v 0.03801566 -0.01712824 0.11910468
v 0.03605955 -0.02330214 0.12520397
v 0.03875952 -0.01274761 0.11477703
v 0.03900301 -0.00833641 0.11041906
v 0.03857040 -0.06408659 0.11850432
v 0.03943151 -0.06404754 0.11208054
v 0.03667038 -0.06412423 0.12469661
v 0.03451800 -0.06415176 0.12922572
v 0.03340440 -0.02860193 0.13043985
v 0.03189778 -0.06417667 0.13332315
v 0.03081876 -0.03239536 0.13418736
v 0.02879172 -0.06419944 0.13706879
v 0.02769070 -0.03597983 0.13772842
v 0.02523750 -0.06421977 0.14041221
v 0.02444446 -0.03892223 0.14063530
v 0.02129405 -0.06423729 0.14329447
v 0.02147901 -0.04109942 0.14278620
v 0.01702654 -0.06425171 0.14566752
v 0.01790124 -0.04321003 0.14487131
v 0.01249378 -0.06426284 0.14749809
v 0.00021265 -0.06082222 0.14945973
v 0.01499462 -0.04457246 0.14621724
v 0.01190692 -0.04571595 0.14734691
v 0.00010586 -0.06078603 0.14945945
v 0.00532198 -0.04722403 0.14883679
v 0.00187111 -0.04754622 0.14915514
v 0.00867599 -0.04660710 0.14822732
v 0.00036435 -0.06093232 0.14946076
v -0.00002941 -0.06077561 0.14945941
v -0.00501263 -0.04726564 0.14887793
v -0.00867778 -0.04660668 0.14822693
v -0.00158489 -0.04755912 0.14916787
v 0.00776631 -0.06427049 0.14875616
v 0.00046484 -0.06109053 0.14946280
v -0.00018771 -0.06081131 0.14945960
v -0.01248598 -0.04552400 0.14715728
v -0.01606780 -0.04410316 0.14575370
v 0.00050000 -0.06127479 0.14946608
v 0.00415230 -0.06427385 0.14930905
v 0.00050000 -0.06427516 0.14952515
v -0.00697750 -0.06427140 0.14890616
v -0.00050000 -0.06427516 0.14952515
v -0.00050000 -0.06127479 0.14946608
v -0.00046984 -0.06110369 0.14946301
v -0.01076501 -0.06426609 0.14803118
v -0.00041779 -0.06100003 0.14946155
v -0.00035013 -0.06091776 0.14946064
v -0.01445496 -0.06425851 0.14678591
v -0.01987868 -0.04210744 0.14378199
v -0.01888036 -0.06424596 0.14472103
v -0.02381414 -0.03942223 0.14112927
v -0.02351272 -0.06422799 0.14176549
v -0.02726370 -0.03640582 0.13814934
v -0.02768713 -0.06420631 0.13819855
v -0.03061103 -0.03266258 0.13445133
v -0.03131788 -0.06418138 0.13409734
v -0.03378909 -0.02794728 0.12979302
v -0.03434187 -0.06415367 0.12953922
v -0.03607100 -0.02327457 0.12517674
v -0.03648793 -0.06412696 0.12514549
v -0.03937226 -0.05734768 0.11212127
v -0.03792715 -0.06410199 0.12103788
v -0.03827834 -0.01588826 0.11787970
v -0.03900319 -0.00833641 0.11041916
v -0.03890389 -0.06407624 0.11680245
v -0.03923863 -0.06406195 0.11445150
v -0.03943151 -0.06404754 0.11208054
v -0.03952533 -0.05732402 0.10812134
v -0.03912788 -0.05781321 0.10421029
v -0.03952533 -0.05732402 0.10812134
v -0.03899466 -0.05661393 0.10274675
v -0.03836387 -0.05832342 0.10043312
v -0.03799206 -0.05610009 0.09794634
v -0.03720211 -0.05873358 0.09665029
v -0.03401672 -0.05521683 0.08799952
v -0.03206861 -0.05971523 0.08695220
v -0.03514540 -0.05922396 0.09195264
v -0.03123658 -0.05491333 0.08365736
v -0.02835893 -0.06011933 0.08253599
v -0.01969641 -0.06066276 0.07580952
v -0.02429515 -0.06042582 0.07889723
v -0.02439242 -0.05452314 0.07646770
v -0.02017349 -0.05440039 0.07349370
v 0.00000000 -0.05952641 0.07044112
v 0.00000000 -0.06101451 0.07055648
v -0.00449943 -0.06099926 0.07081322
v 0.00000000 -0.05422723 0.06787577
v 0.00000000 -0.05539254 0.06880844
v -0.00514787 -0.05423632 0.06821476
v -0.03603047 -0.05741481 0.09342439
v -0.03641247 -0.05563929 0.09310378
v -0.02742731 -0.05748852 0.08106787
v -0.02822822 -0.05469975 0.08003707
v -0.01482194 -0.05754386 0.07282507
v -0.01452010 -0.06083841 0.07331824
v -0.01546031 -0.05431571 0.07105670
v -0.01037013 -0.05426282 0.06926926
v -0.00755507 -0.05755783 0.07066195
v -0.00883680 -0.06095354 0.07155632
v -0.00944275 -0.05736232 0.07100414
v -0.00474191 -0.05736687 0.07014352
v 0.00000000 -0.05807201 0.07010556
v 0.00000000 -0.05668374 0.06955729
v 0.00427407 -0.05423276 0.06810851
v 0.00000000 -0.05668374 0.06955729
v 0.00000000 -0.05539254 0.06880844
v 0.02433395 -0.05452100 0.07642050
v 0.02446651 -0.06041590 0.07903159
v 0.01899671 -0.06069548 0.07541736
v 0.01925784 -0.05438042 0.07295421
v 0.03296917 -0.05508583 0.08621673
v 0.03318560 -0.05955883 0.08858205
v 0.02918237 -0.06004191 0.08340880
v 0.02913987 -0.05475552 0.08104341
v 0.03624325 -0.05560142 0.09267766
v 0.03845661 -0.05629643 0.09986573
v 0.03842425 -0.05829681 0.10067448
v 0.03631204 -0.05897031 0.09441102
v 0.03915196 -0.05778469 0.10437047
v 0.01484197 -0.05735739 0.07275999
v 0.01394844 -0.05429677 0.07044143
v 0.01300263 -0.06088083 0.07275502
v 0.02745491 -0.05733266 0.08103012
v 0.03604286 -0.05731978 0.09341068
v 0.03946739 -0.05731878 0.10718135
v 0.03952533 -0.05732402 0.10812134
v 0.03952533 -0.05732402 0.10812134
v 0.03939896 -0.05746213 0.10639606
v 0.00547749 -0.05736632 0.07023949
v 0.00000000 -0.06101451 0.07055648
v 0.00874174 -0.05425182 0.06885971
v 0.00677067 -0.06098117 0.07114033
v 0.00761580 -0.05736505 0.07059953
v 0.01078712 -0.05736236 0.07136183
v 0.01327103 -0.05735963 0.07215919
v 0.02738606 0.01493754 0.06205974
v 0.02506870 0.02183349 0.06210166
v 0.02987569 0.01702659 0.06207244
v 0.02297961 0.01934391 0.06208653
v 0.01949995 0.02573270 0.06212536
v 0.03096038 0.00983303 0.06202871
v 0.03377497 0.01145800 0.06203859
v 0.01787495 0.02291816 0.06210825
v 0.01333874 0.02860564 0.06214283
v 0.03359401 0.00418537 0.06199438
v 0.03664797 0.00529685 0.06200114
v 0.01222717 0.02555174 0.06212426
v 0.00677222 0.03036514 0.06215352
v 0.03520685 -0.00183382 0.06195779
v 0.03840750 -0.00126948 0.06196122
v 0.00620788 0.02716455 0.06213407
v 0.00000000 0.03095760 0.06215712
v 0.03574997 -0.00804159 0.06192005
v 0.03899997 -0.00804159 0.06192005
v 0.03900557 -0.00856288 0.06191688
v 0.00000000 0.02770766 0.06213737
v -0.00677222 0.03036514 0.06215352
v 0.03520685 -0.01424941 0.06188232
v 0.03843724 -0.01517845 0.06187667
v -0.00620788 0.02716455 0.06213407
v -0.01333874 0.02860564 0.06214283
v 0.03359401 -0.02026859 0.06184573
v 0.03675794 -0.02159758 0.06183765
v -0.01222717 0.02555174 0.06212426
v 0.03475618 -0.02625314 0.06180935
v -0.01949995 0.02573270 0.06212536
v 0.03096038 -0.02591627 0.06181139
v -0.01787495 0.02291816 0.06210825
v 0.03221875 -0.03053554 0.06178331
v -0.02506870 0.02183349 0.06210166
v 0.02738606 -0.03102083 0.06178036
v -0.02297961 0.01934391 0.06208653
v 0.02915650 -0.03446187 0.06175945
v 0.02297961 -0.03542720 0.06175358
v 0.02561253 -0.03797186 0.06173811
v -0.02987569 0.01702659 0.06207244
v -0.02738606 0.01493754 0.06205974
v 0.02165913 -0.04099501 0.06171973
v 0.01787495 -0.03900145 0.06173185
v -0.03377497 0.01145800 0.06203859
v -0.03096038 0.00983303 0.06202871
v 0.01735299 -0.04349144 0.06170456
v 0.01222717 -0.04163498 0.06171584
v -0.03664797 0.00529685 0.06200114
v -0.03359401 0.00418537 0.06199438
v 0.01275563 -0.04542236 0.06169282
v 0.00796181 -0.04674794 0.06168476
v 0.00620788 -0.04324785 0.06170604
v -0.03840750 -0.00126948 0.06196122
v -0.03520685 -0.00183382 0.06195779
v 0.00425172 -0.04733820 0.06168117
v 0.00000000 -0.04379095 0.06170274
v 0.00037732 -0.04731280 0.06168133
v 0.00030856 -0.04724742 0.06168173
v 0.00000000 -0.04379095 0.06170274
v 0.00037732 -0.04731280 0.06168133
v 0.00043249 -0.04738999 0.06168086
v 0.00022869 -0.04719622 0.06168203
v 0.00030856 -0.04724742 0.06168173
v 0.00047210 -0.04747618 0.06168033
v 0.00014059 -0.04716106 0.06168225
v -0.03899997 -0.00804159 0.06192005
v -0.03574997 -0.00804159 0.06192005
v 0.00049471 -0.04756833 0.06167977
v 0.00004743 -0.04714312 0.06168236
v -0.00004743 -0.04714312 0.06168236
v -0.00014059 -0.04716106 0.06168225
v -0.00022869 -0.04719622 0.06168203
v -0.00030856 -0.04724742 0.06168173
v -0.03900557 -0.00856288 0.06191688
v -0.00037732 -0.04731280 0.06168133
v 0.00000000 -0.04379095 0.06170274
v -0.00030856 -0.04724742 0.06168173
v -0.00620788 -0.04324785 0.06170604
v -0.00037732 -0.04731280 0.06168133
v -0.00620788 -0.04324785 0.06170604
v -0.00037732 -0.04731280 0.06168133
v -0.00043249 -0.04738999 0.06168086
v -0.03882312 -0.01231194 0.06189409
v -0.03520685 -0.01424941 0.06188232
v -0.00709623 -0.04691865 0.06168372
v -0.00043249 -0.04738999 0.06168086
v -0.00047210 -0.04747618 0.06168033
v -0.00047210 -0.04747618 0.06168033
v -0.00049471 -0.04756833 0.06167977
v -0.01222717 -0.04163498 0.06171584
v -0.03828257 -0.01601969 0.06187155
v -0.03359401 -0.02026859 0.06184573
v -0.03701955 -0.02083536 0.06184228
v -0.01348751 -0.04516052 0.06169441
v -0.03514885 -0.02546012 0.06181417
v -0.03096038 -0.02591627 0.06181139
v -0.01814043 -0.04308852 0.06170700
v -0.01787495 -0.03900145 0.06173185
v -0.03270840 -0.02980004 0.06178778
v -0.02738606 -0.03102083 0.06178036
v -0.02238792 -0.04049595 0.06172277
v -0.02297961 -0.03542720 0.06175358
v -0.02973657 -0.03379353 0.06176351
v -0.02627313 -0.03738321 0.06174169
v -0.00050000 -0.06127479 0.14946608
v -0.00050000 -0.06427516 0.14952515
v -0.00050000 -0.06427307 0.14917976
v -0.00050000 -0.06127316 0.14919800
v -0.00050000 -0.06127316 0.14919800
v 0.00050000 -0.06127316 0.14919800
v 0.00049039 -0.06117558 0.14919858
v 0.00046194 -0.06108177 0.14919916
v -0.00050000 -0.06127316 0.14919800
v 0.00046194 -0.06108177 0.14919916
v 0.00041574 -0.06099534 0.14919968
v -0.00050000 -0.06127316 0.14919800
v 0.00041574 -0.06099534 0.14919968
v 0.00035355 -0.06091958 0.14920014
v -0.00050000 -0.06127316 0.14919800
v 0.00035355 -0.06091958 0.14920014
v 0.00027778 -0.06085742 0.14920051
v -0.00050000 -0.06127316 0.14919800
v 0.00027778 -0.06085742 0.14920051
v 0.00019134 -0.06081123 0.14920080
v 0.00019134 -0.06081123 0.14920080
v 0.00009755 -0.06078273 0.14920098
v -0.00050000 -0.06127316 0.14919800
v 0.00009755 -0.06078273 0.14920098
v 0.00000000 -0.06077313 0.14920104
v -0.00050000 -0.06127316 0.14919800
v 0.00000000 -0.06077313 0.14920104
v -0.00009755 -0.06078273 0.14920098
v -0.00050000 -0.06127316 0.14919800
v -0.00009755 -0.06078273 0.14920098
v -0.00019134 -0.06081123 0.14920080
v -0.00019134 -0.06081123 0.14920080
v -0.00027778 -0.06085742 0.14920051
v -0.00050000 -0.06127316 0.14919800
v -0.00027778 -0.06085742 0.14920051
v -0.00035355 -0.06091958 0.14920014
v -0.00050000 -0.06127316 0.14919800
v -0.00035355 -0.06091958 0.14920014
v -0.00041574 -0.06099534 0.14919968
v -0.00050000 -0.06127316 0.14919800
v -0.00041574 -0.06099534 0.14919968
v -0.00046194 -0.06108177 0.14919916
v -0.00046194 -0.06108177 0.14919916
v -0.00049039 -0.06117558 0.14919858
v -0.00050000 -0.06427307 0.14917976
v 0.00050000 -0.06427307 0.14917976
v 0.00050000 -0.06127479 0.14946608
v 0.00050000 -0.06427307 0.14917976
v 0.00050000 -0.06427516 0.14952515
v 0.00050000 -0.06127316 0.14919800
v -0.00049039 -0.06117558 0.14919858
v -0.00050000 -0.06127479 0.14946608
v -0.00050000 -0.06127316 0.14919800
v -0.00046984 -0.06110369 0.14946301
v -0.00046194 -0.06108177 0.14919916
v -0.00041779 -0.06100003 0.14946155
v -0.00041574 -0.06099534 0.14919968
v -0.00035355 -0.06091958 0.14920014
v -0.00035013 -0.06091776 0.14946064
v -0.00027778 -0.06085742 0.14920051
v -0.00018771 -0.06081131 0.14945960
v -0.00019134 -0.06081123 0.14920080
v -0.00009755 -0.06078273 0.14920098
v -0.00002941 -0.06077561 0.14945941
v 0.00000000 -0.06077313 0.14920104
v 0.00010586 -0.06078603 0.14945945
v 0.00009755 -0.06078273 0.14920098
v 0.00019134 -0.06081123 0.14920080
v 0.00021265 -0.06082222 0.14945973
v 0.00027778 -0.06085742 0.14920051
v 0.00036435 -0.06093232 0.14946076
v 0.00035355 -0.06091958 0.14920014
v 0.00041574 -0.06099534 0.14919968
v 0.00046484 -0.06109053 0.14946280
v 0.00046194 -0.06108177 0.14919916
v 0.00049039 -0.06117558 0.14919858
v 0.00050000 -0.06127479 0.14946608
v 0.00050000 -0.06127316 0.14919800
v 0.00016667 -0.05116123 0.06502195
v 0.00050000 -0.05116206 0.06515797
v 0.00050000 -0.05116124 0.06502470
v -0.00050000 -0.05116206 0.06515797
v -0.00016667 -0.05116123 0.06502195
v -0.00050000 -0.05116124 0.06502470
v 0.00050000 -0.05116206 0.06515797
v -0.00016667 -0.05116123 0.06502195
v -0.00050000 -0.05116206 0.06515797
v 0.00050000 -0.05116206 0.06515797
v 0.00016667 -0.05116123 0.06502195
v -0.00016667 -0.05116123 0.06502195
v 0.00050000 -0.05116124 0.06502470
v 0.00050000 -0.04766214 0.06517924
v 0.00050000 -0.04764128 0.06174775
v 0.00050000 -0.05116206 0.06515797
v -0.00050000 -0.04766214 0.06517924
v -0.00050000 -0.05116206 0.06515797
v -0.00050000 -0.05116124 0.06502470
v -0.00050000 -0.04764128 0.06174775
v 0.00027778 -0.04724641 0.06518177
v 0.00035355 -0.04730857 0.06518140
v 0.00041574 -0.04738439 0.06518093
v 0.00049039 -0.04756462 0.06517984
v 0.00041574 -0.04738439 0.06518093
v 0.00046194 -0.04747082 0.06518041
v 0.00049039 -0.04756462 0.06517984
v 0.00050000 -0.04766214 0.06517924
v 0.00000000 -0.04716212 0.06518228
v 0.00009755 -0.04717178 0.06518222
v 0.00019134 -0.04720021 0.06518205
v 0.00000000 -0.04716212 0.06518228
v 0.00019134 -0.04720021 0.06518205
v 0.00027778 -0.04724641 0.06518177
v -0.00019134 -0.04720021 0.06518205
v -0.00009755 -0.04717178 0.06518222
v -0.00035355 -0.04730857 0.06518140
v -0.00027778 -0.04724641 0.06518177
v -0.00019134 -0.04720021 0.06518205
v -0.00050000 -0.04766214 0.06517924
v -0.00049039 -0.04756462 0.06517984
v -0.00046194 -0.04747082 0.06518041
v -0.00050000 -0.04766214 0.06517924
v -0.00046194 -0.04747082 0.06518041
v -0.00041574 -0.04738439 0.06518093
v -0.00041574 -0.04738439 0.06518093
v -0.00035355 -0.04730857 0.06518140
v -0.00050000 -0.04766214 0.06517924
v -0.00019134 -0.04720021 0.06518205
v 0.00000000 -0.04716212 0.06518228
v -0.00050000 -0.04766214 0.06517924
v 0.00000000 -0.04716212 0.06518228
v 0.00027778 -0.04724641 0.06518177
v -0.00050000 -0.04766214 0.06517924
v -0.00035355 -0.04730857 0.06518140
v -0.00019134 -0.04720021 0.06518205
v 0.00050000 -0.05116206 0.06515797
v -0.00050000 -0.05116206 0.06515797
v -0.00049941 -0.04761688 0.06172507
v -0.00050000 -0.04766214 0.06517924
v -0.00049765 -0.04759261 0.06170239
v -0.00049039 -0.04756462 0.06517984
v -0.00049471 -0.04756833 0.06167977
v -0.00047210 -0.04747618 0.06168033
v -0.00046194 -0.04747082 0.06518041
v -0.00043249 -0.04738999 0.06168086
v -0.00041574 -0.04738439 0.06518093
v -0.00037732 -0.04731280 0.06168133
v -0.00035355 -0.04730857 0.06518140
v -0.00030856 -0.04724742 0.06168173
v -0.00027778 -0.04724641 0.06518177
v -0.00022869 -0.04719622 0.06168203
v -0.00019134 -0.04720021 0.06518205
v -0.00014059 -0.04716106 0.06168225
v -0.00009755 -0.04717178 0.06518222
v -0.00004743 -0.04714312 0.06168236
v 0.00000000 -0.04716212 0.06518228
v 0.00004743 -0.04714312 0.06168236
v 0.00009755 -0.04717178 0.06518222
v 0.00014059 -0.04716106 0.06168225
v 0.00019134 -0.04720021 0.06518205
v 0.00022869 -0.04719622 0.06168203
v 0.00027778 -0.04724641 0.06518177
v 0.00030856 -0.04724742 0.06168173
v 0.00035355 -0.04730857 0.06518140
v 0.00037732 -0.04731280 0.06168133
v 0.00041574 -0.04738439 0.06518093
v 0.00043249 -0.04738999 0.06168086
v 0.00046194 -0.04747082 0.06518041
v 0.00047210 -0.04747618 0.06168033
v 0.00049039 -0.04756462 0.06517984
v 0.00049471 -0.04756833 0.06167977
v 0.00049765 -0.04759261 0.06170239
v 0.00050000 -0.04766214 0.06517924
v 0.00049941 -0.04761688 0.06172507
f 1 2 3
f 1 3 4
f 5 4 6
f 5 1 4
f 7 6 8
f 7 5 6
f 9 8 10
f 9 7 8
f 11 10 12
f 11 9 10
f 13 11 12
f 13 12 14
f 15 13 14
f 15 14 16
f 17 15 16
f 17 16 18
f 19 17 18
f 19 18 20
f 21 19 20
f 21 20 22
f 23 21 22
f 23 22 24
f 25 23 24
f 25 24 26
f 27 25 26
f 27 26 28
f 29 27 28
f 29 28 30
f 31 29 30
f 31 30 32
f 33 31 32
f 33 32 34
f 35 33 34
f 35 34 36
f 37 35 36
f 37 36 38
f 39 38 40
f 39 37 38
f 41 40 42
f 41 39 40
f 43 42 44
f 43 41 42
f 45 44 46
f 45 43 44
f 47 46 48
f 47 45 46
f 49 48 50
f 49 47 48
f 51 50 52
f 51 49 50
f 53 52 54
f 53 51 52
f 55 54 56
f 55 53 54
f 57 56 58
f 57 55 56
f 59 58 60
f 59 57 58
f 61 60 62
f 61 59 60
f 63 62 64
f 63 61 62
f 65 63 64
f 65 64 66
f 67 65 66
f 67 66 68
f 69 67 68
f 69 68 70
f 71 69 70
f 71 70 72
f 73 71 72
f 73 72 74
f 75 76 77
f 78 79 80
f 81 75 82
f 83 84 85
f 86 81 87
f 86 87 88
f 86 88 89
f 90 81 86
f 91 75 81
f 91 81 90
f 92 80 76
f 92 76 75
f 92 75 91
f 93 94 95
f 96 97 98
f 96 98 99
f 96 99 100
f 96 100 101
f 96 101 102
f 103 92 104
f 103 78 80
f 103 104 93
f 103 80 92
f 105 96 102
f 106 85 78
f 106 105 102
f 106 103 107
f 106 102 108
f 106 108 83
f 106 83 85
f 106 78 103
f 109 105 106
f 109 110 111
f 109 111 105
f 112 113 114
f 115 116 117
f 118 113 112
f 119 120 118
f 121 122 120
f 121 120 119
f 123 124 122
f 123 122 121
f 125 126 124
f 125 124 123
f 127 128 126
f 127 126 125
f 129 130 128
f 129 128 127
f 131 132 130
f 131 130 129
f 133 132 131
f 134 132 133
f 134 135 132
f 136 135 134
f 136 137 135
f 138 137 136
f 138 139 137
f 140 139 138
f 140 141 139
f 142 143 141
f 142 141 140
f 144 143 142
f 144 145 143
f 146 147 145
f 146 145 144
f 148 149 150
f 151 150 152
f 151 152 153
f 151 154 155
f 156 147 146
f 156 157 158
f 156 158 147
f 159 153 160
f 159 151 153
f 161 162 157
f 161 157 156
f 163 160 164
f 163 159 160
f 165 164 166
f 165 166 162
f 165 163 164
f 165 162 161
f 167 168 169
f 170 171 172
f 170 169 171
f 173 170 174
f 175 176 167
f 177 178 179
f 180 181 177
f 180 177 167
f 182 183 184
f 182 173 183
f 182 169 170
f 182 170 173
f 185 182 186
f 187 169 182
f 187 182 185
f 188 189 180
f 188 190 189
f 188 191 190
f 192 193 194
f 195 187 196
f 197 198 188
f 197 199 198
f 197 188 180
f 200 201 197
f 200 202 203
f 200 195 202
f 200 167 169
f 200 180 167
f 200 169 187
f 200 197 180
f 200 187 195
f 204 205 200
f 204 203 206
f 204 200 203
f 207 208 209
f 210 209 211
f 210 207 209
f 212 211 213
f 212 210 211
f 214 213 215
f 214 212 213
f 216 215 217
f 216 214 215
f 218 217 219
f 218 216 217
f 220 218 219
f 220 219 221
f 222 220 221
f 222 221 223
f 224 222 223
f 224 223 225
f 226 224 225
f 226 225 227
f 228 226 227
f 228 227 229
f 230 228 229
f 230 229 231
f 232 230 231
f 232 231 233
f 234 232 233
f 234 233 235
f 236 234 235
f 236 235 237
f 238 236 237
f 239 238 237
f 239 237 240
f 239 240 241
f 242 239 241
f 242 241 243
f 244 242 243
f 244 243 245
f 246 245 247
f 246 244 245
f 248 247 249
f 248 246 247
f 250 248 249
f 251 249 252
f 251 250 249
f 253 252 254
f 253 254 255
f 253 251 252
f 256 255 257
f 256 253 255
f 258 256 257
f 259 257 260
f 259 258 257
f 261 260 262
f 261 262 263
f 261 259 260
f 264 263 265
f 264 261 263
f 266 265 267
f 266 264 265
f 268 267 269
f 268 266 267
f 270 268 269
f 271 269 272
f 271 270 269
f 273 271 272
f 273 272 274
f 275 273 274
f 275 274 276
f 275 276 277
f 278 275 277
f 279 278 277
f 279 277 280
f 281 282 283
f 284 283 285
f 284 285 286
f 284 281 283
f 287 288 289
f 287 289 282
f 287 282 281
f 290 284 286
f 290 286 291
f 292 293 288
f 292 288 287
f 294 290 291
f 294 291 295
f 296 297 293
f 296 293 292
f 298 295 299
f 298 299 300
f 298 294 295
f 301 300 302
f 303 297 296
f 303 304 297
f 303 305 304
f 306 301 307
f 306 298 300
f 306 300 301
f 308 307 309
f 310 305 303
f 310 311 305
f 312 306 307
f 312 307 308
f 313 312 308
f 314 315 311
f 314 311 310
f 316 313 317
f 316 312 313
f 318 315 314
f 319 317 320
f 319 316 317
f 321 315 318
f 322 319 320
f 323 321 318
f 324 319 322
f 325 321 323
f 326 324 322
f 327 325 323
f 328 324 326
f 329 325 327
f 330 328 326
f 331 329 327
f 332 328 330
f 333 332 330
f 334 329 331
f 335 334 331
f 336 337 332
f 336 332 333
f 338 334 335
f 339 337 336
f 340 338 335
f 341 337 339
f 342 341 339
f 343 338 340
f 344 341 342
f 345 343 340
f 346 341 344
f 347 346 344
f 348 346 347
f 349 343 345
f 350 346 348
f 350 351 346
f 352 349 345
f 352 345 353
f 354 351 350
f 354 355 351
f 356 352 353
f 356 353 357
f 358 355 354
f 358 359 355
f 360 356 357
f 360 357 361
f 362 359 358
f 362 363 359
f 364 360 361
f 364 361 365
f 366 365 363
f 366 363 362
f 366 364 365
f 367 368 369
f 367 369 370
f 371 370 372
f 371 372 373
f 371 367 370
f 374 373 375
f 374 371 373
f 376 375 377
f 376 374 375
f 378 377 379
f 378 376 377
f 380 378 379
f 381 380 379
f 382 380 381
f 383 381 384
f 383 382 381
f 385 383 384
f 386 385 384
f 387 385 386
f 388 386 389
f 388 387 386
f 390 388 389
f 391 390 389
f 392 390 391
f 393 392 391
f 394 393 391
f 395 393 394
f 396 395 394
f 396 394 397
f 398 396 397
f 399 398 397
f 400 398 399
f 401 400 399
f 401 399 402
f 403 401 402
f 403 402 404
f 405 403 404
f 405 404 406
f 407 405 406
f 407 406 408
f 409 407 408
f 410 411 412
f 410 413 411
f 414 415 416
f 417 414 416
f 418 417 416
f 419 420 413
f 419 413 410
f 421 422 420
f 421 420 419
f 423 424 425
f 423 425 426
f 423 426 427
f 428 429 422
f 428 422 421
f 430 431 429
f 430 432 431
f 430 429 428
f 433 434 435
f 433 436 434
f 433 416 436
f 433 418 416
f 437 423 427
f 437 438 423
f 437 439 438
f 440 441 432
f 440 432 430
f 442 441 440
f 442 435 441
f 442 433 435
f 443 433 442
f 444 433 443
f 445 433 444
f 445 437 446
f 445 446 447
f 445 447 433
f 448 437 445
f 449 437 448
f 450 451 439
f 450 439 437
f 450 437 449
f 452 453 451
f 452 451 450
f 454 455 453
f 454 453 452
f 456 457 455
f 456 455 454
f 458 459 457
f 458 457 456
f 460 461 459
f 460 459 458
f 462 463 461
f 462 461 460
f 464 465 463
f 464 463 462
f 466 467 465
f 466 465 464
f 468 467 466
f 469 470 471
f 469 472 470
f 473 474 475
f 476 477 478
f 479 480 481
f 482 476 478
f 483 484 485
f 486 487 488
f 489 486 488
f 490 491 492
f 490 493 491
f 494 492 495
f 496 493 490
f 496 497 493
f 498 495 499
f 498 494 495
f 500 496 490
f 501 497 496
f 501 502 497
f 503 504 505
f 503 506 504
f 507 492 491
f 507 491 505
f 508 499 509
f 508 498 499
f 508 510 511
f 508 509 510
f 512 511 513
f 512 494 498
f 512 508 511
f 512 498 508
f 514 496 500
f 514 512 513
f 514 500 512
f 514 501 496
f 515 514 513
f 515 502 501
f 515 501 514
f 515 516 502
f 517 515 513
f 517 516 515
f 518 503 505
f 519 503 518
f 520 506 503
f 520 503 519
f 521 492 507
f 521 495 492
f 522 495 521
f 523 495 522
f 524 492 494
f 524 490 492
f 524 500 490
f 525 518 505
f 525 519 518
f 525 520 519
f 526 520 525
f 526 525 505
f 527 506 520
f 527 526 505
f 527 520 526
f 528 499 495
f 528 495 523
f 529 528 523
f 529 499 528
f 530 524 494
f 530 494 512
f 530 512 500
f 530 500 524
f 531 527 505
f 532 527 531
f 532 531 505
f 533 506 527
f 533 527 532
f 533 532 505
f 534 499 529
f 534 509 499
f 535 534 529
f 535 509 534
f 536 509 535
f 536 510 509
f 537 505 491
f 537 533 505
f 538 533 537
f 538 537 491
f 539 533 538
f 539 506 533
f 540 505 511
f 540 507 505
f 540 535 529
f 540 536 535
f 540 521 507
f 540 523 522
f 540 522 521
f 540 529 523
f 541 536 540
f 541 540 511
f 541 510 536
f 541 511 510
f 542 491 493
f 542 539 538
f 542 538 491
f 543 539 542
f 543 542 493
f 544 513 506
f 544 493 497
f 544 497 502
f 544 506 539
f 544 543 493
f 544 539 543
f 544 502 516
f 544 516 517
f 544 517 513
f 545 546 547
f 548 549 550
f 551 549 548
f 552 553 554
f 552 554 555
f 556 557 553
f 558 552 555
f 558 555 559
f 560 561 557
f 560 557 556
f 562 552 558
f 563 558 559
f 563 559 564
f 565 566 567
f 565 568 566
f 569 554 553
f 569 568 554
f 570 571 561
f 570 561 560
f 570 572 573
f 570 573 571
f 574 575 572
f 574 560 556
f 574 572 570
f 574 570 560
f 576 575 574
f 576 562 558
f 576 558 563
f 576 574 562
f 577 575 576
f 577 563 564
f 577 576 563
f 577 564 578
f 579 575 577
f 579 577 578
f 580 568 565
f 581 580 565
f 582 565 567
f 582 581 565
f 583 569 553
f 583 553 557
f 584 583 557
f 585 584 557
f 586 556 553
f 586 553 552
f 586 552 562
f 587 568 580
f 587 580 581
f 587 581 582
f 588 587 582
f 588 568 587
f 589 588 582
f 589 582 567
f 589 568 588
f 590 585 557
f 590 557 561
f 591 590 561
f 591 585 590
f 592 556 586
f 592 574 556
f 592 562 574
f 592 586 562
f 593 568 589
f 594 568 593
f 594 593 589
f 595 589 567
f 595 568 594
f 595 594 589
f 596 591 561
f 596 561 571
f 597 591 596
f 597 596 571
f 598 597 571
f 598 571 573
f 599 554 568
f 599 568 595
f 600 599 595
f 600 554 599
f 601 600 595
f 601 595 567
f 602 572 568
f 602 585 591
f 602 568 569
f 602 591 597
f 602 597 598
f 602 569 583
f 602 583 584
f 602 584 585
f 603 572 602
f 603 598 573
f 603 573 572
f 603 602 598
f 604 555 554
f 604 600 601
f 604 554 600
f 605 604 601
f 605 555 604
f 606 567 575
f 606 559 555
f 606 601 567
f 606 564 559
f 606 555 605
f 606 605 601
f 606 578 564
f 606 579 578
f 606 575 579
f 607 608 609
f 610 609 611
f 610 607 609
f 612 610 611
f 613 612 611
f 614 612 613
f 615 614 613
f 616 614 615
f 617 616 615
f 618 616 617
f 619 618 617
f 620 618 619
f 621 620 619
f 622 620 621
f 623 622 621
f 624 622 623
f 625 623 626
f 625 624 623
f 627 626 628
f 627 625 626
f 629 628 630
f 629 627 628
f 631 629 630
f 632 631 630
f 633 631 632
f 634 633 632
f 635 633 634
f 636 635 634
f 637 635 636
f 638 636 639
f 638 637 636
f 640 639 641
f 640 638 639
f 642 641 643
f 642 640 641
f 644 643 645
f 644 642 643
f 646 644 645
f 647 645 648
f 647 646 645
f 649 647 648
f 650 651 652
f 650 653 651
f 650 654 653
f 655 656 650
f 657 650 652
f 657 655 650
f 658 657 652
f 658 652 659
f 660 658 659
f 660 659 661
f 662 660 661
f 662 661 663
f 664 662 663
f 664 663 665
f 666 664 665
f 666 665 667
f 668 666 667
f 668 667 669
f 670 668 669
f 671 672 673
f 671 669 672
f 671 670 669
f 674 671 673
f 674 675 676
f 674 677 675
f 674 673 677
f 678 670 671
f 679 674 676
f 679 680 681
f 679 682 680
f 679 676 682
f 683 670 678
f 684 683 678
f 685 679 681
f 685 686 687
f 685 681 686
f 688 683 684
f 689 683 688
f 690 689 688
f 691 692 693
f 691 693 694
f 695 694 696
f 695 696 697
f 695 691 694
f 698 697 685
f 698 687 699
f 698 685 687
f 698 695 697
f 700 699 701
f 700 698 699
f 702 701 703
f 702 700 701
f 704 703 705
f 704 702 703
f 706 704 705
f 706 705 707
f 708 707 709
f 708 706 707
f 710 708 709
f 711 712 710
f 711 713 714
f 711 709 713
f 711 710 709
f 715 712 711
f 716 715 711
f 717 716 711
f 718 719 720
f 721 722 719
f 721 719 718
f 723 724 722
f 723 722 721
f 725 726 727
f 728 729 726
f 728 726 725
f 730 731 732
f 733 730 732
f 734 735 736
f 737 738 739
f 740 727 724
f 740 741 725
f 740 723 741
f 740 724 723
f 740 725 727
f 742 731 729
f 742 743 732
f 742 728 743
f 742 729 728
f 742 732 731
f 744 745 730
f 744 746 747
f 744 733 746
f 744 730 733
f 748 736 749
f 748 747 739
f 750 749 745
f 750 747 748
f 750 748 749
f 750 744 747
f 750 745 744
f 751 752 734
f 751 753 752
f 751 738 753
f 751 748 739
f 751 736 748
f 751 734 736
f 751 739 738
f 754 752 755
f 754 755 756
f 754 756 445
f 757 758 759
f 757 759 760
f 761 762 763
f 761 763 764
f 765 762 761
f 766 767 768
f 769 767 766
f 770 771 760
f 770 759 772
f 770 760 759
f 773 757 764
f 773 763 758
f 773 758 757
f 773 764 763
f 774 765 766
f 774 768 762
f 774 762 765
f 774 766 768
f 775 766 776
f 775 776 777
f 775 778 769
f 775 777 778
f 775 769 766
f 779 780 734
f 779 734 752
f 779 754 781
f 779 782 780
f 779 752 754
f 783 779 781
f 783 782 779
f 784 781 771
f 784 772 782
f 784 782 783
f 784 783 781
f 785 771 770
f 785 784 771
f 785 772 784
f 785 770 772
f 786 787 788
f 789 790 787
f 789 787 786
f 791 788 792
f 791 786 788
f 793 794 790
f 793 790 789
f 795 792 796
f 795 791 792
f 797 794 793
f 798 794 797
f 799 796 800
f 799 795 796
f 801 798 797
f 802 798 801
f 803 800 804
f 803 804 805
f 803 799 800
f 806 802 801
f 807 802 806
f 808 805 809
f 808 803 805
f 810 807 806
f 811 807 810
f 812 809 813
f 812 808 809
f 814 811 810
f 815 812 813
f 816 811 814
f 817 812 815
f 818 816 814
f 819 817 815
f 820 816 818
f 821 817 819
f 822 820 818
f 823 821 819
f 824 823 825
f 824 821 823
f 826 820 822
f 826 822 827
f 828 824 825
f 829 824 828
f 830 826 827
f 830 827 831
f 832 829 828
f 833 829 832
f 834 831 835
f 834 830 831
f 836 833 832
f 837 838 833
f 837 833 836
f 839 835 840
f 839 834 835
f 841 838 837
f 842 838 841
f 843 842 841
f 844 845 846
f 847 843 841
f 848 842 849
f 850 847 841
f 851 842 848
f 852 839 840
f 852 840 853
f 854 850 841
f 855 842 851
f 856 842 855
f 857 842 856
f 858 842 857
f 859 842 858
f 860 852 853
f 861 862 863
f 864 842 865
f 866 867 868
f 869 860 853
f 869 853 870
f 871 864 872
f 871 872 873
f 871 874 875
f 871 876 864
f 877 869 870
f 877 870 878
f 879 877 878
f 880 876 871
f 881 879 878
f 881 878 882
f 883 876 880
f 883 884 876
f 885 881 882
f 885 882 886
f 887 884 883
f 887 888 884
f 889 885 886
f 890 886 888
f 890 888 887
f 890 889 886
f 891 892 893
f 891 893 894
f 895 896 897
f 895 897 898
f 899 900 901
f 902 903 904
f 905 906 907
f 908 909 910
f 905 911 912
f 913 914 915
f 916 917 918
f 919 920 921
f 916 922 923
f 924 925 926
f 927 928 929
f 930 931 932
f 895 933 934
f 935 936 896
f 935 896 895
f 937 938 939
f 940 938 937
f 941 942 943
f 941 944 942
f 945 946 944
f 945 944 941
f 947 946 945
f 948 949 946
f 948 946 947
f 950 951 949
f 950 949 948
f 952 951 950
f 953 954 951
f 953 951 952
f 955 956 954
f 955 954 953
f 957 956 955
f 958 959 956
f 958 956 957
f 960 961 959
f 960 959 958
f 962 961 960
f 963 964 961
f 963 961 962
f 965 964 963
f 966 967 964
f 966 964 965
f 968 967 966
f 969 970 971
f 972 973 974
f 975 976 977
f 978 979 980
f 981 982 983
f 981 984 982
f 985 986 987
f 988 985 987
f 989 990 991
f 992 993 994
f 995 989 991
f 996 989 995
f 997 998 999
f 1000 1001 1002
f 1003 1004 997
f 1005 1006 1007
f 1008 1009 1010
f 1011 1012 1013
f 1008 1014 1015
f 1016 1017 1018
f 1019 1020 1021
f 1008 989 996
f 1022 1023 1024
f 1025 1008 996
f 1026 1008 1025
f 1027 1028 988
f 1029 1030 1028
f 1029 1028 1027
f 1031 1030 1029
f 1032 1033 1030
f 1032 1030 1031
f 1034 1035 1033
f 1034 1033 1032
f 1036 1037 1035
f 1036 1035 1034
f 1038 1039 1037
f 1038 1037 1036
f 1040 1041 1039
f 1040 1039 1038
f 1042 1043 1041
f 1042 1041 1040
f 1044 1045 1043
f 1044 1043 1042
f 1046 1047 1045
f 1046 1045 1044
f 1048 1049 1047
f 1048 1047 1046
f 1050 1051 1049
f 1050 1049 1048
f 1052 1053 1051
f 1052 1051 1050
f 1054 1055 1053
f 1054 1053 1052
f 1056 1055 1054
f 1056 1057 1055
f 1058 1057 1056
f 1058 1059 1057
f 1060 1059 1058
f 1061 1059 1060
f 1061 1062 1059
f 1063 1062 1061
f 983 1062 1063

