# https://github.com/mikedh/trimesh
v -0.03046244 0.15823631 0.47889963
v -0.02273064 0.16761555 0.47895667
v -0.02700686 0.16326423 0.47893021
v -0.03299242 0.15268482 0.47886589
v -0.01776379 0.17115827 0.47897819
v -0.03299242 0.15268482 0.47886589
v -0.01225721 0.17378473 0.47899416
v -0.01776379 0.17115827 0.47897819
v -0.03499865 0.14069644 0.47879303
v -0.03451997 0.14677833 0.47882998
v 0.01168322 0.17399374 0.47899544
v -0.00637823 0.17541510 0.47900406
v -0.01225721 0.17378473 0.47899416
v 0.01168322 0.17399374 0.47899544
v -0.00030543 0.17599988 0.47900763
v -0.00637823 0.17541510 0.47900406
v 0.01168322 0.17399374 0.47899544
v 0.00577664 0.17552119 0.47900471
v -0.00030543 0.17599988 0.47900763
v -0.03278350 0.12874477 0.47872037
v -0.03499865 0.14069644 0.47879303
v -0.03441387 0.13462375 0.47875610
v -0.03278350 0.12874477 0.47872037
v -0.03015697 0.12323826 0.47868690
v -0.01225721 0.17378473 0.47899416
v 0.01168322 0.17399374 0.47899544
v 0.02226269 0.16800824 0.47895905
v 0.01723480 0.17146368 0.47898006
v 0.03015697 0.15876542 0.47890285
v 0.02661418 0.16373211 0.47893304
v 0.02226269 0.16800824 0.47895905
v -0.01723480 0.11054000 0.47860971
v -0.02661418 0.11827164 0.47865671
v -0.02226269 0.11399543 0.47863072
v -0.01723480 0.11054000 0.47860971
v -0.03015697 0.12323826 0.47868690
v -0.02661418 0.11827164 0.47865671
v 0.03278350 0.15325890 0.47886938
v 0.02226269 0.16800824 0.47895905
v 0.03015697 0.15876542 0.47890285
v 0.00030543 0.10600378 0.47858211
v -0.01168322 0.10801004 0.47859433
v -0.00577664 0.10648247 0.47858503
v 0.03299242 0.12931885 0.47872385
v 0.03451997 0.13522534 0.47875977
v 0.03499865 0.14130723 0.47879672
v 0.03441387 0.14737992 0.47883365
v 0.03046244 0.12376735 0.47869012
v -0.01723480 0.11054000 0.47860971
v 0.01776379 0.11084539 0.47861156
v 0.00637823 0.10658856 0.47858569
v 0.01225721 0.10821893 0.47859558
v 0.01776379 0.11084539 0.47861156
v 0.00030543 0.10600378 0.47858211
v 0.00637823 0.10658856 0.47858569
v 0.02273064 0.11438812 0.47863311
v 0.03046244 0.12376735 0.47869012
v -0.01723480 0.11054000 0.47860971
v 0.02273064 0.11438812 0.47863311
v 0.02700686 0.11873954 0.47865954
v 0.03046244 0.12376735 0.47869012
v -0.01168322 0.10801004 0.47859433
v 0.02273064 0.11438812 0.47863311
v 0.00030543 0.10600378 0.47858211
v 0.02273064 0.11438812 0.47863311
v -0.01168322 0.10801004 0.47859433
v 0.00030543 0.10600378 0.47858211
v 0.02661418 0.16379897 0.46793333
v 0.02965581 0.16639672 0.46794912
v 0.02480703 0.17116153 0.46797809
v 0.02226269 0.16807510 0.46795934
v 0.01920449 0.17501196 0.46800151
v 0.03015697 0.15883228 0.46790314
v 0.03360348 0.16086233 0.46791548
v 0.01723480 0.17153054 0.46798036
v 0.01920449 0.17501196 0.46800151
v 0.01301842 0.17783102 0.46801865
v 0.01723480 0.17153054 0.46798036
v 0.03278350 0.15332577 0.46786967
v 0.03653019 0.15472655 0.46787819
v 0.01168322 0.17406060 0.46799573
v 0.00643682 0.17953309 0.46802899
v 0.01168322 0.17406060 0.46799573
v 0.01301842 0.17783102 0.46801865
v 0.03441387 0.14744678 0.46783394
v 0.03834694 0.14817578 0.46783838
v 0.00577664 0.17558806 0.46800500
v 0.01168322 0.17406060 0.46799573
v 0.00643682 0.17953309 0.46802899
v -0.00034033 0.18006648 0.46803224
v 0.03499865 0.14137410 0.46779701
v 0.03899848 0.14140899 0.46779725
v -0.00030543 0.17606674 0.46800792
v 0.00577664 0.17558806 0.46800500
v -0.00034033 0.18006648 0.46803224
v -0.00710714 0.17941488 0.46802828
v -0.00030543 0.17606674 0.46800792
v 0.03451997 0.13529220 0.46776006
v 0.03451997 0.13529220 0.46776006
v 0.03846514 0.13463202 0.46775603
v -0.00637823 0.17548196 0.46800435
v -0.00030543 0.17606674 0.46800792
v -0.00710714 0.17941488 0.46802828
v -0.01365804 0.17759822 0.46801722
v 0.03299242 0.12938571 0.46772414
v 0.03676301 0.12805045 0.46771604
v -0.01225721 0.17385159 0.46799445
v -0.01979398 0.17467168 0.46799943
v 0.03046244 0.12383422 0.46769041
v 0.03676301 0.12805045 0.46771604
v 0.03046244 0.12383422 0.46769041
v 0.03394383 0.12186456 0.46767843
v -0.01776379 0.17122513 0.46797848
v 0.02700686 0.11880641 0.46765983
v 0.03009331 0.11626216 0.46764436
v -0.02532845 0.17072396 0.46797544
v -0.02273064 0.16768241 0.46795696
v 0.02273064 0.11445499 0.46763340
v 0.02532845 0.11141345 0.46761489
v -0.03009331 0.16587524 0.46794596
v -0.02700686 0.16333109 0.46793050
v 0.01776379 0.11091226 0.46761185
v 0.01979398 0.10746582 0.46759090
v -0.03394383 0.16027285 0.46791190
v -0.03046244 0.15830317 0.46789992
v 0.01225721 0.10828580 0.46759588
v 0.01365804 0.10453918 0.46757311
v 0.01979398 0.10746582 0.46759090
v 0.01225721 0.10828580 0.46759588
v -0.03676301 0.15408695 0.46787429
v -0.03299242 0.15275168 0.46786618
v 0.00637823 0.10665543 0.46758598
v 0.00710714 0.10272250 0.46756208
v 0.01365804 0.10453918 0.46757311
v -0.03846514 0.14750549 0.46783429
v -0.03451997 0.14684519 0.46783027
v 0.00030543 0.10607065 0.46758240
v 0.00034033 0.10207092 0.46755812
v 0.00710714 0.10272250 0.46756208
v 0.00030543 0.10607065 0.46758240
v -0.03899848 0.14072840 0.46779311
v -0.03499865 0.14076330 0.46779332
v -0.00577664 0.10654934 0.46758533
v 0.00034033 0.10207092 0.46755812
v -0.00643682 0.10260431 0.46756133
v -0.00577664 0.10654934 0.46758533
v -0.01168322 0.10807691 0.46759462
v 0.00034033 0.10207092 0.46755812
v -0.03834694 0.13396162 0.46775195
v -0.03441387 0.13469061 0.46775639
v -0.01301842 0.10430638 0.46757171
v -0.01723480 0.11060686 0.46761000
v -0.01301842 0.10430638 0.46757171
v -0.00643682 0.10260431 0.46756133
v -0.01168322 0.10807691 0.46759462
v -0.03653019 0.12741084 0.46771213
v -0.03278350 0.12881163 0.46772066
v -0.03653019 0.12741084 0.46771213
v -0.01920449 0.10712542 0.46758884
v -0.01723480 0.11060686 0.46761000
v -0.01920449 0.10712542 0.46758884
v -0.02226269 0.11406229 0.46763101
v -0.03360348 0.12127506 0.46767485
v -0.03015697 0.12330513 0.46768719
v -0.02480703 0.11097585 0.46761224
v -0.02480703 0.11097585 0.46761224
v -0.02226269 0.11406229 0.46763101
v -0.02661418 0.11833851 0.46765700
v -0.02965581 0.11574066 0.46764120
v -0.03015697 0.12330513 0.46768719
v -0.03360348 0.12127506 0.46767485
v -0.02661418 0.11833851 0.46765700
v 0.03851979 0.13715261 0.10834602
v 0.03899848 0.14359380 0.10838517
v 0.03899848 0.14140899 0.46779725
v 0.03846514 0.13463202 0.46775603
v 0.03698462 0.13087884 0.10830788
v 0.03676301 0.12805045 0.46771604
v 0.03443491 0.12494444 0.10827180
v 0.03394383 0.12186456 0.46767843
v 0.03094077 0.11951225 0.10823878
v 0.03009331 0.11626216 0.46764436
v 0.02659791 0.11473124 0.10820971
v 0.02532845 0.11141345 0.46761489
v 0.02152550 0.11073261 0.10818541
v 0.01979398 0.10746582 0.46759090
v 0.01586270 0.10762586 0.10816652
v 0.01365804 0.10453918 0.46757311
v 0.00976479 0.10549641 0.10815358
v 0.00710714 0.10272250 0.46756208
v 0.00339907 0.10440262 0.10814693
v 0.00034033 0.10207092 0.46755812
v -0.00305986 0.10437454 0.10814676
v -0.00643682 0.10260431 0.46756133
v -0.00943494 0.10541271 0.10815307
v -0.01301842 0.10430638 0.46757171
v -0.01555120 0.10748888 0.10816569
v -0.01920449 0.10712542 0.46758884
v -0.02124089 0.11054592 0.10818428
v -0.02480703 0.11097585 0.46761224
v -0.02634799 0.11450024 0.10820831
v -0.02965581 0.11574066 0.46764120
v -0.03073239 0.11924316 0.10823715
v -0.03360348 0.12127506 0.46767485
v -0.03427386 0.12464466 0.10826998
v -0.03653019 0.12741084 0.46771213
v -0.03687518 0.13055654 0.10830592
v -0.03834694 0.13396162 0.46775195
v -0.03846514 0.13681683 0.10834397
v -0.03899848 0.14072840 0.46779311
v -0.03899997 0.14325351 0.10838310
v -0.03846514 0.14750549 0.46783429
v -0.03841078 0.15000708 0.10842416
v -0.03676301 0.15408695 0.46787429
v -0.03666090 0.15655646 0.10846397
v -0.03394383 0.16027285 0.46791190
v -0.03380328 0.16270395 0.10850134
v -0.03009331 0.16587524 0.46794596
v -0.02992427 0.16826385 0.10853513
v -0.02532845 0.17072396 0.46797544
v -0.02514106 0.17306787 0.10856434
v -0.01979398 0.17467168 0.46799943
v -0.01959812 0.17697099 0.10858806
v -0.01365804 0.17759822 0.46801722
v -0.01346307 0.17985542 0.10860560
v -0.00710714 0.17941488 0.46802828
v -0.00692117 0.18163380 0.10861641
v -0.00034033 0.18006648 0.46803224
v -0.00017017 0.18225238 0.10862017
v 0.00643682 0.17953309 0.46802899
v 0.00658596 0.18169270 0.10861677
v 0.01301842 0.17783102 0.46801865
v 0.01314312 0.17997143 0.10860630
v 0.01920449 0.17501196 0.46800151
v 0.01930314 0.17714079 0.10858910
v 0.02480703 0.17116153 0.46797809
v 0.02487987 0.17328605 0.10856567
v 0.02965581 0.16639672 0.46794912
v 0.02970486 0.16852394 0.10853671
v 0.03360348 0.16086233 0.46791548
v 0.03363227 0.16299824 0.10850313
v 0.03653019 0.15472655 0.46787819
v 0.03654342 0.15687586 0.10846591
v 0.03834694 0.14817578 0.46783838
v 0.03835034 0.15034197 0.10842619
v 0.03899848 0.14140899 0.46779725
v 0.03899848 0.14359380 0.10838517
v -0.04310870 0.15089977 0.09745912
v -0.04377001 0.14332020 0.09741303
v -0.04211562 0.14330915 0.09923112
v -0.03899997 0.14325351 0.10838310
v -0.03920137 0.14326841 0.10593324
v -0.03846514 0.13681683 0.10834397
v -0.04147934 0.15060222 0.09927545
v -0.04016429 0.15035847 0.10133786
v -0.04078042 0.14329660 0.10129493
v -0.03919893 0.15017506 0.10359109
v -0.03980022 0.14328289 0.10354919
v -0.03958970 0.15767488 0.09931844
v -0.04114484 0.15825033 0.09750380
v -0.03860914 0.15005688 0.10597451
v -0.03899997 0.14325351 0.10838310
v -0.03841078 0.15000708 0.10842416
v -0.03920137 0.14326841 0.10593324
v -0.03833454 0.15720694 0.10137950
v -0.03741317 0.15685885 0.10363172
v -0.03650379 0.16431347 0.09935880
v -0.03793770 0.16514960 0.09754574
v -0.03685021 0.15664007 0.10601453
v -0.03666090 0.15655646 0.10846397
v -0.03534650 0.16363502 0.10141857
v -0.03449690 0.16313252 0.10366986
v -0.03231489 0.17031744 0.09939530
v -0.03358423 0.17138939 0.09758367
v -0.03397786 0.16281934 0.10605209
v -0.03380328 0.16270395 0.10850134
v -0.03129041 0.16944872 0.10145392
v -0.03053832 0.16880642 0.10370435
v -0.02714949 0.17550536 0.09942684
v -0.02199518 0.18116172 0.09764307
v -0.02821600 0.17678109 0.09761644
v -0.03007882 0.16840784 0.10608607
v -0.02992427 0.16826385 0.10853513
v -0.02628880 0.17447202 0.10148445
v -0.02565693 0.17370903 0.10373415
v -0.02116382 0.17972027 0.09945246
v -0.01510971 0.18439876 0.09766275
v -0.02527087 0.17323674 0.10611542
v -0.02514106 0.17306787 0.10856434
v -0.02049285 0.17855345 0.10150926
v -0.02000027 0.17769225 0.10375836
v -0.01453858 0.18283503 0.09947139
v -0.01969933 0.17716008 0.10613927
v -0.01959812 0.17697099 0.10858806
v -0.01407766 0.18156940 0.10152759
v -0.01373928 0.18063579 0.10377625
v -0.00747406 0.18475558 0.09948307
v -0.00019098 0.18708900 0.09767910
v -0.00776768 0.18639471 0.09767488
v -0.01353257 0.18005933 0.10615689
v -0.01346307 0.17985542 0.10860560
v -0.00723714 0.18342896 0.10153890
v -0.00706321 0.18245067 0.10378729
v -0.00018376 0.18542366 0.09948713
v -0.00695693 0.18184690 0.10616776
v -0.00692117 0.18163380 0.10861641
v -0.00017794 0.18407595 0.10154283
v -0.00017366 0.18308206 0.10379113
v 0.00711208 0.18481918 0.09948345
v 0.00739151 0.18646081 0.09767528
v -0.00017105 0.18246868 0.10617154
v -0.00017017 0.18225238 0.10862017
v 0.00688666 0.18349066 0.10153927
v 0.00672108 0.18251087 0.10378765
v 0.01419311 0.18296051 0.09947216
v 0.01475065 0.18452904 0.09766354
v 0.00661999 0.18190610 0.10616812
v 0.00658596 0.18169270 0.10861677
v 0.01374316 0.18169080 0.10152833
v 0.01341283 0.18075430 0.10377698
v 0.02084523 0.17990357 0.09945358
v 0.02166408 0.18135220 0.09764422
v 0.01321101 0.18017603 0.10615760
v 0.01314312 0.17997143 0.10860630
v 0.02018439 0.17873095 0.10151034
v 0.01969921 0.17786546 0.10375942
v 0.02686750 0.17574094 0.09942827
v 0.02792292 0.17702599 0.09761793
v 0.01940286 0.17733067 0.10614031
v 0.01930314 0.17714079 0.10858910
v 0.02601575 0.17470032 0.10148583
v 0.02539044 0.17393173 0.10373551
v 0.03207796 0.17059845 0.09939701
v 0.03333801 0.17168137 0.09758544
v 0.02500838 0.17345615 0.10611675
v 0.02487987 0.17328605 0.10856567
v 0.03106099 0.16972071 0.10145557
v 0.03031438 0.16907182 0.10370596
v 0.03631907 0.16463125 0.09936073
v 0.03774577 0.16547990 0.09754774
v 0.02985829 0.16866934 0.10608765
v 0.02970486 0.16852394 0.10853671
v 0.03363227 0.16299824 0.10850313
v 0.03516769 0.16394272 0.10142044
v 0.03432238 0.16343273 0.10367168
v 0.03946280 0.15801987 0.09932055
v 0.04101300 0.15860872 0.09750597
v 0.03380596 0.16311514 0.10605389
v 0.03821170 0.15754093 0.10138153
v 0.03729325 0.15718482 0.10363370
v 0.04141414 0.15096390 0.09927765
v 0.04376834 0.14370209 0.09741536
v 0.04304093 0.15127566 0.09746139
v 0.03673213 0.15696116 0.10601648
v 0.03654342 0.15687586 0.10846591
v 0.04010117 0.15070866 0.10134000
v 0.03913730 0.15051676 0.10359317
v 0.04211401 0.14367664 0.09923335
v 0.03854840 0.15039349 0.10597656
v 0.03835034 0.15034197 0.10842619
v 0.03899848 0.14359380 0.10838517
v 0.04077887 0.14365250 0.10129710
v 0.03979873 0.14363018 0.10355131
v 0.04159712 0.13672097 0.09919107
v 0.04323112 0.13647322 0.09737141
v 0.03919988 0.14361049 0.10593533
v 0.04027837 0.13691720 0.10125616
v 0.03931021 0.13705690 0.10351135
v 0.03993922 0.12994589 0.09914989
v 0.04150813 0.12943207 0.09732861
v 0.03871876 0.13713612 0.10589597
v 0.03851979 0.13715261 0.10834602
v 0.03698462 0.13087884 0.10830788
v 0.03867304 0.13035704 0.10121628
v 0.03774350 0.13065432 0.10347243
v 0.03718590 0.12353741 0.09911093
v 0.03864663 0.12277178 0.09728812
v 0.03717559 0.13082984 0.10585763
v 0.03600698 0.12415176 0.10117856
v 0.03514152 0.12459815 0.10343561
v 0.03341257 0.11767122 0.09907527
v 0.03472506 0.11667518 0.09725107
v 0.03461277 0.12486485 0.10582137
v 0.03443491 0.12494444 0.10827180
v 0.03235328 0.11847146 0.10114403
v 0.03157562 0.11905444 0.10340191
v 0.02872276 0.11250831 0.09904388
v 0.02985107 0.11130939 0.09721845
v 0.03110057 0.11940455 0.10578818
v 0.03094077 0.11951225 0.10823878
v 0.02781218 0.11347225 0.10111364
v 0.02714371 0.11417543 0.10337225
v 0.02324515 0.10819010 0.09901763
v 0.02415829 0.10682167 0.09719117
v 0.02673530 0.11459883 0.10575897
v 0.02659791 0.11473124 0.10820971
v 0.02250820 0.10929102 0.10108823
v 0.02196723 0.11009461 0.10334744
v 0.01712995 0.10483526 0.09899724
v 0.01780283 0.10333503 0.09716997
v 0.02163666 0.11057951 0.10573453
v 0.02152550 0.11073261 0.10818541
v 0.01658689 0.10604248 0.10106847
v 0.01618820 0.10692417 0.10332818
v 0.01054489 0.10253569 0.09898327
v 0.00381476 0.09971750 0.09714798
v 0.01095908 0.10094508 0.09715544
v 0.01594460 0.10745677 0.10571555
v 0.01586270 0.10762586 0.10816652
v 0.01021057 0.10381583 0.10105494
v 0.00996518 0.10475111 0.10331497
v 0.00367057 0.10135452 0.09897608
v 0.00981522 0.10531630 0.10570254
v 0.00976479 0.10549641 0.10815358
v 0.00355422 0.10267206 0.10104799
v 0.00346881 0.10363483 0.10330818
v -0.00330430 0.10132412 0.09897590
v -0.00343412 0.09968590 0.09714779
v 0.00341660 0.10421693 0.10569586
v 0.00339907 0.10440262 0.10814693
v -0.00319958 0.10264266 0.10104781
v -0.00312269 0.10360604 0.10330800
v -0.01018869 0.10244530 0.09898271
v -0.01058888 0.10085107 0.09715487
v -0.00307566 0.10418853 0.10569569
v -0.00305986 0.10437454 0.10814676
v -0.00986564 0.10372823 0.10105441
v -0.00962853 0.10466561 0.10331444
v -0.01679354 0.10468726 0.09899634
v -0.01745325 0.10318124 0.09716903
v -0.00948364 0.10523221 0.10570203
v -0.00943494 0.10541271 0.10815307
v -0.01626116 0.10589919 0.10106760
v -0.01587027 0.10678437 0.10332733
v -0.02293783 0.10798860 0.09901641
v -0.02957057 0.11105009 0.09721687
v -0.02383881 0.10661218 0.09718990
v -0.01563149 0.10731897 0.10571472
v -0.01555120 0.10748888 0.10816569
v -0.02221059 0.10909583 0.10108703
v -0.02167677 0.10990421 0.10334629
v -0.02845287 0.11225882 0.09904237
v -0.02135062 0.11039191 0.10573339
v -0.02124089 0.11054592 0.10818428
v -0.02755087 0.11323066 0.10111217
v -0.02688866 0.11393964 0.10337082
v -0.03318756 0.11738063 0.09907351
v -0.03449124 0.11637320 0.09724923
v -0.02648407 0.11436664 0.10575756
v -0.02634799 0.11450024 0.10820831
v -0.03213542 0.11819006 0.10114232
v -0.03136301 0.11877985 0.10340025
v -0.03701192 0.12321372 0.09910896
v -0.04138535 0.12907036 0.09732641
v -0.03846579 0.12243538 0.09728608
v -0.03089112 0.11913405 0.10578653
v -0.03073239 0.11924316 0.10823715
v -0.03583854 0.12383816 0.10117665
v -0.03497713 0.12429215 0.10343375
v -0.03982108 0.12959790 0.09914777
v -0.03445082 0.12456346 0.10581954
v -0.03427386 0.12464466 0.10826998
v -0.03855866 0.13002005 0.10121423
v -0.03763186 0.13032544 0.10347043
v -0.04153805 0.13635817 0.09918886
v -0.04316973 0.13609624 0.09736912
v -0.04078042 0.14329660 0.10129493
v -0.03706562 0.13050593 0.10585567
v -0.03687518 0.13055654 0.10830592
v -0.04022115 0.13656603 0.10125402
v -0.03925442 0.13671412 0.10350926
v -0.03980022 0.14328289 0.10354919
v -0.03866374 0.13679843 0.10589392
v 0.05708980 0.14389390 0.08499331
v 0.04376834 0.14370209 0.09741536
v 0.04323112 0.13647322 0.09737141
v 0.05638909 0.13446468 0.08493599
v 0.04150813 0.12943207 0.09732861
v 0.05414164 0.12528054 0.08488016
v 0.03864663 0.12277178 0.09728812
v 0.05040919 0.11659312 0.08482735
v 0.03472506 0.11667518 0.09725107
v 0.04529410 0.10864095 0.08477901
v 0.02985107 0.11130939 0.09721845
v 0.03893661 0.10164209 0.08473647
v 0.02415829 0.10682167 0.09719117
v 0.03151112 0.09578838 0.08470088
v 0.01780283 0.10333503 0.09716997
v 0.02322137 0.09124058 0.08467324
v 0.01095908 0.10094508 0.09715544
v 0.01429468 0.08812325 0.08465429
v 0.00381476 0.09971750 0.09714798
v 0.00497585 0.08652207 0.08464456
v -0.00343412 0.09968590 0.09714779
v -0.00447935 0.08648075 0.08464430
v -0.01058888 0.10085107 0.09715487
v -0.01381176 0.08800065 0.08465354
v -0.01745325 0.10318124 0.09716903
v -0.02276533 0.09103990 0.08467202
v -0.02383881 0.10661218 0.09718990
v -0.03109449 0.09551522 0.08469922
v -0.03857076 0.10130389 0.08473441
v -0.04498904 0.10824706 0.08477662
v -0.03449124 0.11637320 0.09724923
v -0.03846579 0.12243538 0.09728608
v -0.05017340 0.11615432 0.08482468
v -0.04138535 0.12907036 0.09732641
v -0.05398154 0.12480877 0.08487730
v -0.05630898 0.13397297 0.08493301
v -0.04316973 0.13609624 0.09736912
v -0.05709195 0.14339571 0.08499028
v -0.05622941 0.15328223 0.08505038
v -0.04310870 0.15089977 0.09745912
v -0.05366778 0.16286995 0.08510866
v -0.04114484 0.15825033 0.09750380
v -0.04948455 0.17186917 0.08516337
v -0.03793770 0.16514960 0.09754574
v -0.04380607 0.18000823 0.08521284
v -0.03358423 0.17138939 0.09758367
v -0.03680390 0.18704079 0.08525559
v -0.02821600 0.17678109 0.09761644
v -0.02199518 0.18116172 0.09764307
v -0.02868968 0.19275469 0.08529033
v -0.01510971 0.18439876 0.09766275
v -0.01970851 0.19697711 0.08531599
v -0.00776768 0.18639471 0.09767488
v -0.01013189 0.19958048 0.08533182
v -0.00019098 0.18708900 0.09767910
v -0.00024911 0.20048615 0.08533733
v 0.00964117 0.19966666 0.08533234
v 0.00739151 0.18646081 0.09767528
v 0.01924020 0.19714701 0.08531703
v 0.01475065 0.18452904 0.09766354
v 0.02825784 0.19300319 0.08529184
v 0.02166408 0.18135220 0.09764422
v 0.03642165 0.18736039 0.08525754
v 0.02792292 0.17702599 0.09761793
v 0.04348486 0.18038903 0.08521516
v 0.03333801 0.17168137 0.09758544
v 0.03774577 0.16547990 0.09754774
v 0.04923421 0.17229998 0.08516598
v 0.05349582 0.16333754 0.08511151
v 0.04101300 0.15860872 0.09750597
v 0.04304093 0.15127566 0.09746139
v 0.05614101 0.15377252 0.08505336
v 0.04376834 0.14370209 0.09741536
v 0.05708980 0.14389390 0.08499331
v -0.05688118 0.15340115 0.08432385
v -0.05775374 0.14340013 0.08426306
v -0.05709195 0.14339571 0.08499028
v -0.05740720 0.15349877 0.08349885
v -0.05828779 0.14340515 0.08343749
v -0.05779331 0.15357205 0.08259758
v -0.05867987 0.14341064 0.08253580
v -0.05802923 0.15361935 0.08164424
v -0.05810856 0.15363930 0.08066438
v -0.05899995 0.14342239 0.08060227
v -0.05891942 0.14341643 0.08158222
v -0.05428987 0.16310006 0.08438281
v -0.05366778 0.16286995 0.08510866
v -0.05479192 0.16328728 0.08355835
v -0.05516046 0.16342658 0.08265748
v -0.05538564 0.16351406 0.08170439
v -0.05113834 0.17284755 0.08078115
v -0.05546140 0.16354753 0.08072461
v -0.05005812 0.17220370 0.08443815
v -0.05052101 0.17247503 0.08361420
v -0.05086088 0.17267609 0.08271371
v -0.05106848 0.17280129 0.08176085
v -0.04431378 0.18043706 0.08448821
v -0.04380607 0.18000823 0.08521284
v -0.04472362 0.18078446 0.08366472
v -0.04502445 0.18104145 0.08276456
v -0.04520821 0.18120085 0.08181190
v -0.04527008 0.18125840 0.08083228
v -0.03723049 0.18755113 0.08453145
v -0.03680390 0.18704079 0.08525559
v -0.03757476 0.18796442 0.08370836
v -0.03782755 0.18826962 0.08280850
v -0.03798192 0.18845861 0.08185603
v -0.03803390 0.18852617 0.08087645
v -0.02902221 0.19333121 0.08456659
v -0.02929061 0.19379802 0.08374383
v -0.02948760 0.19414240 0.08284420
v -0.02960801 0.19435529 0.08189187
v -0.02964848 0.19443095 0.08091235
v -0.01993697 0.19760253 0.08459255
v -0.02012133 0.19810885 0.08377003
v -0.02025669 0.19848232 0.08287058
v -0.02033936 0.19871281 0.08191836
v -0.02036720 0.19879447 0.08093888
v -0.01024931 0.20023608 0.08460855
v -0.01013189 0.19958048 0.08533182
v -0.01034408 0.20076668 0.08378618
v -0.01041370 0.20115797 0.08288684
v -0.01045620 0.20139956 0.08193469
v -0.01047050 0.20148483 0.08095523
v -0.00025200 0.20115227 0.08461413
v -0.00025433 0.20169137 0.08379181
v -0.00025604 0.20208886 0.08289251
v -0.00025708 0.20233424 0.08194038
v 0.00996339 0.20157401 0.08095577
v -0.00025743 0.20242070 0.08096092
v 0.00975293 0.20032339 0.08460909
v 0.00964117 0.19966666 0.08533234
v 0.00984311 0.20085479 0.08378672
v 0.00990933 0.20124668 0.08288738
v 0.00994980 0.20148857 0.08193523
v 0.01946324 0.19777453 0.08459359
v 0.01964318 0.19828235 0.08377108
v 0.01977533 0.19865692 0.08287164
v 0.01985603 0.19888832 0.08191942
v 0.01988321 0.19897008 0.08093994
v 0.02858537 0.19358259 0.08456811
v 0.02825784 0.19300319 0.08529184
v 0.02884972 0.19405162 0.08374536
v 0.02904379 0.19439779 0.08284575
v 0.02916234 0.19461179 0.08189343
v 0.03763884 0.18885635 0.08087847
v 0.02920222 0.19468775 0.08091391
v 0.03684377 0.18787430 0.08453342
v 0.03718447 0.18829063 0.08371034
v 0.03743463 0.18859811 0.08281050
v 0.03758746 0.18878829 0.08185803
v 0.04398894 0.18082224 0.08449055
v 0.04439568 0.18117335 0.08366708
v 0.04469436 0.18143283 0.08276694
v 0.04487681 0.18159382 0.08181430
v 0.04493814 0.18165208 0.08083467
v 0.04980486 0.17263938 0.08444081
v 0.05026543 0.17291491 0.08361688
v 0.05060356 0.17311880 0.08271640
v 0.05081009 0.17324589 0.08176355
v 0.05087959 0.17329265 0.08078385
v 0.05411589 0.16357307 0.08438569
v 0.05349582 0.16333754 0.08511151
v 0.05461633 0.16376467 0.08356126
v 0.05498367 0.16390705 0.08266040
v 0.05520814 0.16399655 0.08170733
v 0.05528366 0.16403072 0.08072755
v 0.05679172 0.15389724 0.08432687
v 0.05614101 0.15377252 0.08505336
v 0.05731689 0.15399925 0.08350189
v 0.05770242 0.15407604 0.08260064
v 0.05793797 0.15412533 0.08164732
v 0.05801719 0.15414600 0.08066747
v 0.05775153 0.14390412 0.08426613
v 0.05708980 0.14389390 0.08499331
v 0.05828559 0.14391385 0.08344059
v 0.05867761 0.14392273 0.08253892
v 0.05891716 0.14393063 0.08158535
v 0.05899775 0.14393729 0.08060541
v 0.05704265 0.13436560 0.08420814
v 0.05638909 0.13446468 0.08493599
v 0.05757015 0.13428712 0.08338206
v 0.05795741 0.13423131 0.08248001
v 0.05819404 0.13419960 0.08152620
v 0.05595105 0.12470173 0.08048847
v 0.05827361 0.13419297 0.08054617
v 0.05476921 0.12507497 0.08415166
v 0.05414164 0.12528054 0.08488016
v 0.05527567 0.12491049 0.08332507
v 0.05564749 0.12479159 0.08242262
v 0.05587464 0.12472138 0.08146857
v 0.05099350 0.11628693 0.08409824
v 0.05040919 0.11659312 0.08482735
v 0.05146509 0.11604116 0.08327115
v 0.05181121 0.11586264 0.08236834
v 0.05202275 0.11575595 0.08141408
v 0.05209386 0.11572410 0.08043391
v 0.04581910 0.10824258 0.08404934
v 0.04529410 0.10864095 0.08477901
v 0.04624283 0.10792241 0.08322179
v 0.04655385 0.10768920 0.08231866
v 0.04674392 0.10754920 0.08136419
v 0.04680782 0.10750615 0.08038395
v 0.03938794 0.10116252 0.08400630
v 0.03893661 0.10164209 0.08473647
v 0.03975218 0.10077694 0.08317836
v 0.04001957 0.10049564 0.08227493
v 0.04018294 0.10032633 0.08132029
v 0.04023790 0.10027328 0.08033998
v 0.03187638 0.09524100 0.08397031
v 0.03151112 0.09578838 0.08470088
v 0.03217118 0.09480067 0.08314203
v 0.03238755 0.09447920 0.08223836
v 0.03251981 0.09428529 0.08128356
v 0.03256428 0.09422406 0.08030321
v 0.02349054 0.09064044 0.08394234
v 0.02322137 0.09124058 0.08467324
v 0.02370774 0.09015760 0.08311380
v 0.02386724 0.08980486 0.08220994
v 0.02396464 0.08959186 0.08125503
v 0.02399742 0.08952420 0.08027463
v 0.01446038 0.08748705 0.08392317
v 0.01429468 0.08812325 0.08465429
v 0.01459407 0.08697501 0.08309446
v 0.01469224 0.08660087 0.08219047
v 0.01475220 0.08637476 0.08123548
v 0.00514215 0.08464798 0.08024500
v 0.01477241 0.08630276 0.08025505
v 0.00503355 0.08586727 0.08391333
v 0.00508010 0.08534021 0.08308452
v 0.00511426 0.08495511 0.08218046
v 0.00513512 0.08472231 0.08122543
v -0.00453126 0.08582549 0.08391307
v -0.00447935 0.08648075 0.08464430
v -0.00457317 0.08529813 0.08308426
v -0.00460392 0.08491272 0.08218021
v -0.00462276 0.08467975 0.08122517
v -0.01427334 0.08617604 0.08025429
v -0.00462908 0.08460537 0.08024473
v -0.01397186 0.08736296 0.08392242
v -0.01381176 0.08800065 0.08465354
v -0.01410108 0.08684978 0.08309370
v -0.01419591 0.08647482 0.08218970
v -0.01425385 0.08624822 0.08123470
v -0.02302920 0.09043748 0.08394111
v -0.02276533 0.09103990 0.08467202
v -0.02324217 0.08995274 0.08311256
v -0.02339851 0.08959864 0.08220869
v -0.02349406 0.08938479 0.08125377
v -0.02352619 0.08931684 0.08027337
v -0.03145492 0.09496467 0.08396862
v -0.03109449 0.09551522 0.08469922
v -0.03174579 0.09452178 0.08314034
v -0.03195935 0.09419848 0.08223666
v -0.03208976 0.09400336 0.08128185
v -0.03213369 0.09394173 0.08030149
v -0.03901785 0.10082042 0.08400422
v -0.03857076 0.10130389 0.08473441
v -0.03937864 0.10043165 0.08317626
v -0.03964352 0.10014804 0.08227282
v -0.03980535 0.09997724 0.08131816
v -0.04649263 0.10709906 0.08038148
v -0.03985977 0.09992389 0.08033785
v -0.04551053 0.10784408 0.08404692
v -0.04498904 0.10824706 0.08477662
v -0.04593139 0.10752022 0.08321935
v -0.04624038 0.10728431 0.08231620
v -0.04642909 0.10714270 0.08136172
v -0.05185019 0.11527061 0.08043115
v -0.05075496 0.11584294 0.08409555
v -0.05017340 0.11615432 0.08482468
v -0.05122429 0.11559317 0.08326843
v -0.05156886 0.11541155 0.08236560
v -0.05177938 0.11530305 0.08141132
v -0.05460721 0.12459768 0.08414876
v -0.05398154 0.12480877 0.08487730
v -0.05511218 0.12442891 0.08332214
v -0.05548292 0.12430668 0.08241968
v -0.05570942 0.12423449 0.08146562
v -0.05578559 0.12421425 0.08048552
v -0.05696165 0.13386820 0.08420511
v -0.05630898 0.13397297 0.08493301
v -0.05709195 0.14339571 0.08499028
v -0.05775374 0.14340013 0.08426306
v -0.05748844 0.13378513 0.08337902
v -0.05828779 0.14340515 0.08343749
v -0.05787509 0.13372582 0.08247694
v -0.05867987 0.14341064 0.08253580
v -0.05811136 0.13369212 0.08152311
v -0.05891942 0.14341643 0.08158222
v -0.05899995 0.14342239 0.08060227
v -0.05819082 0.13368478 0.08054309
v 0.05899775 0.14396767 0.07560550
v 0.05899775 0.14393729 0.08060541
v 0.05827361 0.13419297 0.08054617
v 0.05819082 0.13371517 0.07554318
v 0.05595105 0.12470173 0.08048847
v 0.05561584 0.12375855 0.07548265
v 0.05209386 0.11572410 0.08043391
v 0.05135095 0.11440031 0.07542577
v 0.04680782 0.10750615 0.08038395
v 0.04552584 0.10592487 0.07537425
v 0.04023790 0.10027328 0.08033998
v 0.03831738 0.09858966 0.07532965
v 0.03256428 0.09422406 0.08030321
v 0.02994471 0.09261762 0.07529335
v 0.02399742 0.08952420 0.08027463
v 0.02066218 0.08819015 0.07526644
v 0.01477241 0.08630276 0.08025505
v 0.01075184 0.08544183 0.07524973
v 0.00514215 0.08464798 0.08024500
v 0.00051487 0.08445611 0.07524374
v -0.00462908 0.08460537 0.08024473
v -0.00973779 0.08526302 0.07524864
v -0.01427334 0.08617604 0.08025429
v -0.01969456 0.08783796 0.07526430
v -0.02352619 0.08931684 0.08027337
v -0.02905297 0.09210277 0.07529022
v -0.03213369 0.09394173 0.08030149
v -0.03752857 0.09792776 0.07532563
v -0.03985977 0.09992389 0.08033785
v -0.04486393 0.10513609 0.07536945
v -0.04649263 0.10709906 0.08038148
v -0.05083608 0.11350853 0.07542034
v -0.05185019 0.11527061 0.08043115
v -0.05526363 0.12279096 0.07547677
v -0.05578559 0.12421425 0.08048552
v -0.05801200 0.13270108 0.07553701
v -0.05819082 0.13368478 0.08054309
v -0.05899775 0.14293788 0.07559924
v -0.05899995 0.14342239 0.08060227
v -0.05819082 0.15319039 0.07566156
v -0.05810856 0.15363930 0.08066438
v -0.05561584 0.16314702 0.07572209
v -0.05546140 0.16354753 0.08072461
v -0.05135095 0.17250524 0.07577898
v -0.05113834 0.17284755 0.08078115
v -0.04552584 0.18098068 0.07583050
v -0.04527008 0.18125840 0.08083228
v -0.03831738 0.18831585 0.07587509
v -0.03803390 0.18852617 0.08087645
v -0.02994471 0.19428794 0.07591139
v -0.02066218 0.19871536 0.07593831
v -0.02036720 0.19879447 0.08093888
v -0.01075184 0.20146382 0.07595501
v -0.01047050 0.20148483 0.08095523
v -0.00051487 0.20244949 0.07596100
v -0.00025743 0.20242070 0.08096092
v 0.00973779 0.20164260 0.07595610
v 0.00996339 0.20157401 0.08095577
v 0.01969456 0.19906756 0.07594045
v 0.01988321 0.19897008 0.08093994
v 0.02905297 0.19480284 0.07591452
v 0.02920222 0.19468775 0.08091391
v 0.03752857 0.18897784 0.07587911
v 0.03763884 0.18885635 0.08087847
v 0.04486393 0.18176948 0.07583530
v 0.04493814 0.18165208 0.08083467
v 0.05083608 0.17339702 0.07578440
v 0.05087959 0.17329265 0.08078385
v 0.05526363 0.16411470 0.07572797
v 0.05528366 0.16403072 0.08072755
v 0.05801200 0.15420447 0.07566773
v 0.05801719 0.15414600 0.08066747
v 0.05899775 0.14396767 0.07560550
v 0.05899775 0.14393729 0.08060541
v -0.03571963 0.18527432 0.07585660
v -0.04552584 0.18098068 0.07583050
v -0.03831738 0.18831585 0.07587509
v -0.04243934 0.17843643 0.07581503
v -0.05135095 0.17250524 0.07577898
v -0.02791458 0.19084151 0.07589044
v -0.02994471 0.19428794 0.07591139
v -0.04786956 0.17053558 0.07576700
v -0.05561584 0.16314702 0.07572209
v -0.01926136 0.19496883 0.07591553
v -0.02066218 0.19871536 0.07593831
v -0.05184525 0.16181184 0.07571397
v -0.05819082 0.15319039 0.07566156
v -0.01002293 0.19753078 0.07593110
v -0.01075184 0.20146382 0.07595501
v -0.05424571 0.15253021 0.07565755
v -0.05899775 0.14293788 0.07559924
v -0.00047996 0.19844966 0.07593669
v -0.00051487 0.20244949 0.07596100
v -0.05499786 0.14297289 0.07559945
v -0.05801200 0.13270108 0.07553701
v 0.00907761 0.19769748 0.07593212
v 0.00973779 0.20164260 0.07595610
v -0.05407899 0.13343006 0.07554144
v -0.05526363 0.12279096 0.07547677
v 0.01835936 0.19529712 0.07591753
v 0.01969456 0.19906756 0.07594045
v -0.05151695 0.12419174 0.07548529
v -0.05083608 0.11350853 0.07542034
v 0.02708327 0.19132149 0.07589336
v 0.02905297 0.19480284 0.07591452
v -0.04738956 0.11553869 0.07543269
v 0.03498429 0.18589130 0.07586035
v 0.03752857 0.18897784 0.07587911
v -0.04486393 0.10513609 0.07536945
v -0.04182231 0.10773384 0.07538524
v 0.04486393 0.18176948 0.07583530
v 0.04182231 0.17917171 0.07581950
v -0.03752857 0.09792776 0.07532563
v -0.03498429 0.10101426 0.07534439
v 0.05083608 0.17339702 0.07578440
v 0.04738956 0.17136687 0.07577205
v -0.02905297 0.09210277 0.07529022
v -0.02708327 0.09558409 0.07531139
v 0.05151695 0.16271383 0.07571945
v 0.05526363 0.16411470 0.07572797
v -0.01969456 0.08783796 0.07526430
v -0.01835936 0.09160848 0.07528722
v 0.05801200 0.15420447 0.07566773
v 0.05407899 0.15347549 0.07566330
v -0.00973779 0.08526302 0.07524864
v -0.00907761 0.08920807 0.07527263
v 0.05899775 0.14396767 0.07560550
v 0.05499786 0.14393267 0.07560529
v 0.00051487 0.08445611 0.07524374
v 0.00047996 0.08845592 0.07526805
v 0.05424571 0.13437535 0.07554719
v 0.05819082 0.13371517 0.07554318
v 0.01075184 0.08544183 0.07524973
v 0.01002293 0.08937477 0.07527364
v 0.05184525 0.12509371 0.07549077
v 0.05561584 0.12375855 0.07548265
v 0.02066218 0.08819015 0.07526644
v 0.01926136 0.09193677 0.07528921
v 0.05135095 0.11440031 0.07542577
v 0.04786956 0.11636998 0.07543774
v 0.02994471 0.09261762 0.07529335
v 0.02791458 0.09606408 0.07531430
v 0.03571963 0.10163125 0.07534815
v 0.04552584 0.10592487 0.07537425
v 0.04243934 0.10846913 0.07538971
v 0.03831738 0.09858966 0.07532965
v -0.02873808 0.17717919 0.06280714
v -0.03571963 0.18535334 0.06285683
v -0.02791458 0.19092053 0.06289067
v -0.03414434 0.17167768 0.06277370
v -0.04243934 0.17851545 0.06281526
v -0.02245855 0.18165819 0.06283437
v -0.01926136 0.19504786 0.06291576
v -0.03851324 0.16532110 0.06273506
v -0.04786956 0.17061460 0.06276724
v -0.01549667 0.18497883 0.06285455
v -0.01002293 0.19760980 0.06293134
v -0.04171186 0.15830253 0.06269239
v -0.05184525 0.16189086 0.06271420
v -0.00806391 0.18704000 0.06286708
v -0.00047996 0.19852868 0.06293692
v -0.04364311 0.15083505 0.06264700
v -0.05424571 0.15260923 0.06265778
v -0.00038615 0.18777929 0.06287158
v 0.00907761 0.19777650 0.06293235
v -0.04424828 0.14314571 0.06260026
v -0.05499786 0.14305191 0.06259968
v 0.00730330 0.18717408 0.06286789
v -0.04350900 0.13546805 0.06255358
v -0.05407899 0.13350908 0.06254168
v 0.01835936 0.19537614 0.06291775
v 0.01477092 0.18524294 0.06285616
v -0.04144769 0.12803540 0.06250840
v -0.05151695 0.12427077 0.06248552
v 0.02708327 0.19140051 0.06289359
v 0.02178972 0.18204430 0.06283671
v -0.03812706 0.12107363 0.06246608
v -0.04738956 0.11561772 0.06243291
v 0.03498429 0.18597032 0.06286058
v 0.02814644 0.17767556 0.06281016
v -0.03364795 0.11479423 0.06242791
v -0.04182231 0.10781287 0.06238547
v -0.02814644 0.10938804 0.06239505
v 0.04182231 0.17925073 0.06281973
v 0.03364795 0.17226937 0.06277730
v -0.03498429 0.10109329 0.06234463
v -0.02178972 0.10501932 0.06236849
v 0.04738956 0.17144589 0.06277229
v 0.03812706 0.16599000 0.06273912
v -0.02708327 0.09566312 0.06231162
v -0.01477092 0.10182068 0.06234904
v 0.05151695 0.16279285 0.06271969
v 0.04144769 0.15902820 0.06269680
v -0.01835936 0.09168751 0.06228745
v -0.00730330 0.09988951 0.06233731
v 0.05407899 0.15355451 0.06266353
v 0.04350900 0.15159556 0.06265162
v -0.00907761 0.08928709 0.06227285
v 0.00038615 0.09928433 0.06233363
v 0.05499786 0.14401169 0.06260552
v 0.04424828 0.14391799 0.06260495
v 0.00047996 0.08853495 0.06226828
v 0.00806391 0.10002361 0.06233812
v 0.05424571 0.13445437 0.06254742
v 0.04364311 0.13622855 0.06255820
v 0.01002293 0.08945379 0.06227387
v 0.01549667 0.10208477 0.06235065
v 0.05184525 0.12517273 0.06249100
v 0.04171186 0.12876117 0.06251281
v 0.01926136 0.09201580 0.06228944
v 0.02245855 0.10540541 0.06237084
v 0.04786956 0.11644901 0.06243797
v 0.03851324 0.12174251 0.06247015
v 0.02791458 0.09614310 0.06231453
v 0.02873808 0.10988443 0.06239806
v 0.04243934 0.10854816 0.06238994
v 0.03414434 0.11538593 0.06243151
v 0.03571963 0.10171028 0.06234837
v 0.04364311 0.13624375 0.06005825
v 0.04424828 0.14393319 0.06010499
v 0.04424828 0.14391799 0.06260495
v 0.04364311 0.13622855 0.06255820
v 0.04171186 0.12877637 0.06001285
v 0.04171186 0.12876117 0.06251281
v 0.03851324 0.12175771 0.05997019
v 0.03851324 0.12174251 0.06247015
v 0.03414434 0.11540113 0.05993155
v 0.03414434 0.11538593 0.06243151
v 0.02873808 0.10989963 0.05989811
v 0.02873808 0.10988443 0.06239806
v 0.02245855 0.10542061 0.05987088
v 0.02245855 0.10540541 0.06237084
v 0.01549667 0.10209997 0.05985069
v 0.01549667 0.10208477 0.06235065
v 0.00806391 0.10003881 0.05983816
v 0.00806391 0.10002361 0.06233812
v 0.00038615 0.09929953 0.05983367
v 0.00038615 0.09928433 0.06233363
v -0.00730330 0.09990471 0.05983735
v -0.00730330 0.09988951 0.06233731
v -0.01477092 0.10183588 0.05984909
v -0.01477092 0.10182068 0.06234904
v -0.02178972 0.10503452 0.05986853
v -0.02178972 0.10501932 0.06236849
v -0.02814644 0.10940324 0.05989509
v -0.02814644 0.10938804 0.06239505
v -0.03364795 0.11480943 0.05992795
v -0.03364795 0.11479423 0.06242791
v -0.03812706 0.12108883 0.05996612
v -0.03812706 0.12107363 0.06246608
v -0.04144769 0.12805060 0.06000844
v -0.04144769 0.12803540 0.06250840
v -0.04350900 0.13548325 0.06005363
v -0.04350900 0.13546805 0.06255358
v -0.04424828 0.14316091 0.06010030
v -0.04424828 0.14314571 0.06260026
v -0.04364311 0.15085025 0.06014704
v -0.04364311 0.15083505 0.06264700
v -0.04171186 0.15831773 0.06019244
v -0.04171186 0.15830253 0.06269239
v -0.03851324 0.16533630 0.06023510
v -0.03851324 0.16532110 0.06273506
v -0.03414434 0.17169288 0.06027374
v -0.03414434 0.17167768 0.06277370
v -0.02873808 0.17719439 0.06030718
v -0.02873808 0.17717919 0.06280714
v -0.02245855 0.18167339 0.06033441
v -0.02245855 0.18165819 0.06283437
v -0.01549667 0.18499403 0.06035459
v -0.01549667 0.18497883 0.06285455
v -0.00806391 0.18705520 0.06036713
v -0.00806391 0.18704000 0.06286708
v -0.00038615 0.18779449 0.06037162
v -0.00038615 0.18777929 0.06287158
v 0.00730330 0.18718928 0.06036794
v 0.00730330 0.18717408 0.06286789
v 0.01477092 0.18524294 0.06285616
v 0.01477092 0.18525814 0.06035620
v 0.02178972 0.18205950 0.06033676
v 0.02178972 0.18204430 0.06283671
v 0.02814644 0.17769076 0.06031020
v 0.02814644 0.17767556 0.06281016
v 0.03364795 0.17228457 0.06027734
v 0.03364795 0.17226937 0.06277730
v 0.03812706 0.16600519 0.06023917
v 0.03812706 0.16599000 0.06273912
v 0.04144769 0.15904340 0.06019685
v 0.04144769 0.15902820 0.06269680
v 0.04350900 0.15161076 0.06015166
v 0.04350900 0.15159556 0.06265162
v 0.04424828 0.14393319 0.06010499
v 0.04424828 0.14391799 0.06260495
v -0.04364311 0.15085025 0.06014704
v -0.04171186 0.15831773 0.06019244
v -0.03851324 0.16533630 0.06023510
v -0.03414434 0.17169288 0.06027374
v 0.01477092 0.18525814 0.06035620
v -0.01549667 0.18499403 0.06035459
v -0.00806391 0.18705520 0.06036713
v -0.00038615 0.18779449 0.06037162
v 0.00730330 0.18718928 0.06036794
v -0.04144769 0.12805060 0.06000844
v -0.04350900 0.13548325 0.06005363
v -0.04424828 0.14316091 0.06010030
v -0.03364795 0.11480943 0.05992795
v -0.03812706 0.12108883 0.05996612
v -0.02873808 0.17719439 0.06030718
v -0.02245855 0.18167339 0.06033441
v 0.03364795 0.17228457 0.06027734
v 0.02178972 0.18205950 0.06033676
v 0.02814644 0.17769076 0.06031020
v -0.02814644 0.10940324 0.05989509
v 0.03812706 0.16600519 0.06023917
v 0.04350900 0.15161076 0.06015166
v 0.04144769 0.15904340 0.06019685
v 0.00038615 0.09929953 0.05983367
v -0.00730330 0.09990471 0.05983735
v -0.01477092 0.10183588 0.05984909
v 0.04364311 0.13624375 0.06005825
v 0.04424828 0.14393319 0.06010499
v 0.03851324 0.12175771 0.05997019
v 0.04171186 0.12877637 0.06001285
v -0.02178972 0.10503452 0.05986853
v 0.02245855 0.10542061 0.05987088
v 0.01549667 0.10209997 0.05985069
v 0.00806391 0.10003881 0.05983816
v 0.02873808 0.10989963 0.05989811
v 0.03414434 0.11540113 0.05993155
v 0.05424571 0.13445437 0.06254742
v 0.05499786 0.14401169 0.06260552
v 0.05499786 0.14393267 0.07560529
v 0.05424571 0.13437535 0.07554719
v 0.05184525 0.12517273 0.06249100
v 0.05184525 0.12509371 0.07549077
v 0.04786956 0.11644901 0.06243797
v 0.04786956 0.11636998 0.07543774
v 0.04243934 0.10854816 0.06238994
v 0.04243934 0.10846913 0.07538971
v 0.03571963 0.10171028 0.06234837
v 0.03571963 0.10163125 0.07534815
v 0.02791458 0.09614310 0.06231453
v 0.02791458 0.09606408 0.07531430
v 0.01926136 0.09201580 0.06228944
v 0.01926136 0.09193677 0.07528921
v 0.01002293 0.08945379 0.06227387
v 0.01002293 0.08937477 0.07527364
v 0.00047996 0.08853495 0.06226828
v 0.00047996 0.08845592 0.07526805
v -0.00907761 0.08928709 0.06227285
v -0.00907761 0.08920807 0.07527263
v -0.01835936 0.09168751 0.06228745
v -0.01835936 0.09160848 0.07528722
v -0.02708327 0.09566312 0.06231162
v -0.02708327 0.09558409 0.07531139
v -0.03498429 0.10109329 0.06234463
v -0.03498429 0.10101426 0.07534439
v -0.04182231 0.10781287 0.06238547
v -0.04182231 0.10773384 0.07538524
v -0.04738956 0.11561772 0.06243291
v -0.04738956 0.11553869 0.07543269
v -0.05151695 0.12427077 0.06248552
v -0.05151695 0.12419174 0.07548529
v -0.05407899 0.13350908 0.06254168
v -0.05407899 0.13343006 0.07554144
v -0.05499786 0.14305191 0.06259968
v -0.05499786 0.14297289 0.07559945
v -0.05424571 0.15260923 0.06265778
v -0.05424571 0.15253021 0.07565755
v -0.05184525 0.16189086 0.06271420
v -0.05184525 0.16181184 0.07571397
v -0.04786956 0.17061460 0.06276724
v -0.04786956 0.17053558 0.07576700
v -0.04243934 0.17851545 0.06281526
v -0.04243934 0.17843643 0.07581503
v -0.03571963 0.18535334 0.06285683
v -0.03571963 0.18527432 0.07585660
v -0.02791458 0.19092053 0.06289067
v -0.02791458 0.19084151 0.07589044
v -0.01926136 0.19504786 0.06291576
v -0.01926136 0.19496883 0.07591553
v -0.01002293 0.19760980 0.06293134
v -0.01002293 0.19753078 0.07593110
v -0.00047996 0.19852868 0.06293692
v -0.00047996 0.19844966 0.07593669
v 0.00907761 0.19777650 0.06293235
v 0.00907761 0.19769748 0.07593212
v 0.01835936 0.19537614 0.06291775
v 0.01835936 0.19529712 0.07591753
v 0.02708327 0.19140051 0.06289359
v 0.02708327 0.19132149 0.07589336
v 0.03498429 0.18597032 0.06286058
v 0.03498429 0.18589130 0.07586035
v 0.04182231 0.17925073 0.06281973
v 0.04182231 0.17917171 0.07581950
v 0.04738956 0.17144589 0.06277229
v 0.04738956 0.17136687 0.07577205
v 0.05151695 0.16279285 0.06271969
v 0.05151695 0.16271383 0.07571945
v 0.05407899 0.15355451 0.06266353
v 0.05407899 0.15347549 0.07566330
v 0.05499786 0.14393267 0.07560529
v 0.05499786 0.14401169 0.06260552
v 0.03451997 0.13529220 0.46776006
v 0.03499865 0.14137410 0.46779701
v 0.03499865 0.14130723 0.47879672
v 0.03451997 0.13522534 0.47875977
v 0.03299242 0.12938571 0.46772414
v 0.03299242 0.12931885 0.47872385
v 0.03046244 0.12383422 0.46769041
v 0.03046244 0.12376735 0.47869012
v 0.02700686 0.11873954 0.47865954
v 0.02700686 0.11880641 0.46765983
v 0.02273064 0.11445499 0.46763340
v 0.02273064 0.11438812 0.47863311
v 0.01776379 0.11091226 0.46761185
v 0.01776379 0.11084539 0.47861156
v 0.01225721 0.10821893 0.47859558
v 0.01225721 0.10828580 0.46759588
v 0.00637823 0.10658856 0.47858569
v 0.00637823 0.10665543 0.46758598
v 0.00030543 0.10607065 0.46758240
v 0.00030543 0.10600378 0.47858211
v -0.00577664 0.10654934 0.46758533
v -0.00577664 0.10648247 0.47858503
v -0.01168322 0.10807691 0.46759462
v -0.01168322 0.10801004 0.47859433
v -0.01723480 0.11054000 0.47860971
v -0.01723480 0.11060686 0.46761000
v -0.02226269 0.11406229 0.46763101
v -0.02226269 0.11399543 0.47863072
v -0.02661418 0.11833851 0.46765700
v -0.02661418 0.11827164 0.47865671
v -0.03015697 0.12330513 0.46768719
v -0.03015697 0.12323826 0.47868690
v -0.03278350 0.12874477 0.47872037
v -0.03278350 0.12881163 0.46772066
v -0.03441387 0.13469061 0.46775639
v -0.03441387 0.13462375 0.47875610
v -0.03499865 0.14076330 0.46779332
v -0.03499865 0.14069644 0.47879303
v -0.03451997 0.14684519 0.46783027
v -0.03451997 0.14677833 0.47882998
v -0.03299242 0.15275168 0.46786618
v -0.03299242 0.15268482 0.47886589
v -0.03046244 0.15830317 0.46789992
v -0.03046244 0.15823631 0.47889963
v -0.02700686 0.16326423 0.47893021
v -0.02700686 0.16333109 0.46793050
v -0.02273064 0.16768241 0.46795696
v -0.02273064 0.16761555 0.47895667
v -0.01776379 0.17122513 0.46797848
v -0.01776379 0.17115827 0.47897819
v -0.01225721 0.17385159 0.46799445
v -0.01225721 0.17378473 0.47899416
v -0.00637823 0.17548196 0.46800435
v -0.00637823 0.17541510 0.47900406
v -0.00030543 0.17606674 0.46800792
v -0.00030543 0.17599988 0.47900763
v 0.00577664 0.17558806 0.46800500
v 0.00577664 0.17552119 0.47900471
v 0.01168322 0.17406060 0.46799573
v 0.01168322 0.17399374 0.47899544
v 0.01723480 0.17153054 0.46798036
v 0.01723480 0.17146368 0.47898006
v 0.02226269 0.16807510 0.46795934
v 0.02226269 0.16800824 0.47895905
v 0.02661418 0.16373211 0.47893304
v 0.02661418 0.16379897 0.46793333
v 0.03015697 0.15883228 0.46790314
v 0.03015697 0.15876542 0.47890285
v 0.03278350 0.15332577 0.46786967
v 0.03278350 0.15325890 0.47886938
v 0.03441387 0.14744678 0.46783394
v 0.03441387 0.14737992 0.47883365
v 0.03499865 0.14130723 0.47879672
v 0.03499865 0.14137410 0.46779701
f 1 2 3
f 4 5 2
f 6 7 8
f 4 2 1
f 9 4 10
f 11 12 13
f 14 15 16
f 17 18 19
f 20 21 22
f 23 4 9
f 24 25 4
f 24 26 25
f 24 4 23
f 27 28 17
f 29 30 31
f 32 33 34
f 35 36 37
f 38 39 26
f 38 26 24
f 38 40 39
f 41 42 43
f 44 45 46
f 44 47 38
f 44 46 47
f 48 24 49
f 48 38 24
f 48 44 38
f 50 51 52
f 53 54 55
f 56 57 58
f 59 60 61
f 56 49 62
f 63 64 50
f 65 66 67
f 68 69 70
f 71 70 72
f 71 68 70
f 73 74 69
f 73 69 68
f 75 76 77
f 78 71 72
f 79 80 74
f 79 74 73
f 81 77 82
f 83 78 84
f 85 86 80
f 85 80 79
f 87 88 89
f 90 87 89
f 91 86 85
f 91 92 86
f 93 94 95
f 96 97 90
f 98 92 91
f 99 100 92
f 101 102 103
f 104 101 103
f 105 100 99
f 105 106 100
f 107 101 104
f 108 107 104
f 109 110 105
f 111 112 106
f 113 107 108
f 114 112 111
f 114 115 112
f 116 113 108
f 117 113 116
f 118 115 114
f 119 115 118
f 120 117 116
f 120 121 117
f 122 119 118
f 123 119 122
f 124 121 120
f 124 125 121
f 126 123 122
f 127 128 129
f 130 131 125
f 130 125 124
f 132 127 129
f 133 134 132
f 135 136 131
f 135 131 130
f 137 133 132
f 138 139 140
f 141 142 136
f 141 136 135
f 143 144 137
f 145 146 147
f 145 148 146
f 149 150 142
f 149 142 141
f 151 147 152
f 153 154 155
f 156 157 150
f 158 150 149
f 159 153 160
f 161 152 162
f 163 164 157
f 163 157 158
f 165 161 162
f 166 167 168
f 169 170 171
f 169 165 172
f 169 172 170
f 173 174 175
f 173 175 176
f 177 176 178
f 177 173 176
f 179 178 180
f 179 177 178
f 181 180 182
f 181 179 180
f 183 182 184
f 183 181 182
f 185 184 186
f 185 183 184
f 187 185 186
f 187 186 188
f 189 187 188
f 189 188 190
f 191 189 190
f 191 190 192
f 193 191 192
f 193 192 194
f 195 193 194
f 195 194 196
f 197 195 196
f 197 196 198
f 199 197 198
f 199 198 200
f 201 199 200
f 201 200 202
f 203 201 202
f 203 202 204
f 205 204 206
f 205 203 204
f 207 205 206
f 207 206 208
f 209 208 210
f 209 207 208
f 211 210 212
f 211 209 210
f 213 212 214
f 213 211 212
f 215 214 216
f 215 213 214
f 217 216 218
f 217 215 216
f 219 218 220
f 219 217 218
f 221 220 222
f 221 219 220
f 223 222 224
f 223 221 222
f 225 224 226
f 225 223 224
f 227 226 228
f 227 225 226
f 229 228 230
f 229 227 228
f 231 230 232
f 231 229 230
f 233 232 234
f 233 231 232
f 235 233 234
f 235 234 236
f 237 235 236
f 237 236 238
f 239 237 238
f 239 238 240
f 241 239 240
f 241 240 242
f 243 241 242
f 243 242 244
f 245 243 244
f 245 244 246
f 247 245 246
f 248 249 250
f 251 252 253
f 254 248 250
f 255 254 250
f 255 250 256
f 257 256 258
f 257 255 256
f 259 248 254
f 259 260 248
f 261 257 258
f 261 262 263
f 261 258 264
f 261 264 262
f 265 259 254
f 265 254 255
f 266 255 257
f 266 265 255
f 267 260 259
f 267 268 260
f 269 261 263
f 269 257 261
f 269 266 257
f 269 263 270
f 271 267 259
f 271 265 266
f 271 259 265
f 272 271 266
f 273 268 267
f 273 267 271
f 273 274 268
f 275 272 266
f 275 270 276
f 275 266 269
f 275 269 270
f 277 271 272
f 277 273 271
f 278 277 272
f 279 274 273
f 279 280 281
f 279 281 274
f 282 276 283
f 282 272 275
f 282 278 272
f 282 275 276
f 284 279 273
f 284 273 277
f 285 277 278
f 285 278 282
f 285 284 277
f 286 280 279
f 286 287 280
f 288 285 282
f 288 282 283
f 288 283 289
f 290 279 284
f 290 284 285
f 290 286 279
f 291 290 285
f 292 287 286
f 293 285 288
f 293 288 289
f 293 291 285
f 293 289 294
f 295 292 286
f 295 286 290
f 296 290 291
f 296 295 290
f 297 292 295
f 297 287 292
f 297 298 299
f 297 299 287
f 300 291 293
f 300 293 294
f 300 296 291
f 300 294 301
f 302 297 295
f 303 302 295
f 303 295 296
f 304 298 297
f 305 300 301
f 305 301 306
f 305 303 296
f 305 296 300
f 307 297 302
f 307 304 297
f 308 307 302
f 308 302 303
f 309 298 304
f 309 310 298
f 311 303 305
f 311 306 312
f 311 308 303
f 311 305 306
f 313 304 307
f 313 309 304
f 314 307 308
f 314 313 307
f 315 310 309
f 315 316 310
f 317 312 318
f 317 311 312
f 317 308 311
f 317 314 308
f 319 309 313
f 319 315 309
f 320 313 314
f 320 314 317
f 320 319 313
f 321 322 316
f 321 316 315
f 323 320 317
f 323 318 324
f 323 317 318
f 325 315 319
f 325 321 315
f 326 325 319
f 326 319 320
f 327 328 322
f 327 322 321
f 329 326 320
f 329 324 330
f 329 320 323
f 329 323 324
f 331 325 326
f 331 327 321
f 331 321 325
f 332 326 329
f 332 331 326
f 333 328 327
f 333 334 328
f 335 329 330
f 335 332 329
f 335 330 336
f 337 333 327
f 337 327 331
f 338 337 331
f 338 331 332
f 339 334 333
f 339 340 334
f 341 332 335
f 341 335 336
f 341 342 343
f 341 336 342
f 341 338 332
f 344 339 333
f 344 333 337
f 345 337 338
f 345 338 341
f 345 344 337
f 346 340 339
f 346 347 340
f 348 341 343
f 348 345 341
f 349 339 344
f 349 346 339
f 350 344 345
f 350 349 344
f 351 347 346
f 351 352 353
f 351 353 347
f 354 348 343
f 354 345 348
f 354 343 355
f 354 350 345
f 356 346 349
f 356 351 346
f 357 349 350
f 357 356 349
f 358 352 351
f 359 360 361
f 359 355 360
f 359 357 350
f 359 354 355
f 359 350 354
f 362 351 356
f 362 356 357
f 362 358 351
f 363 362 357
f 364 365 352
f 364 352 358
f 364 358 362
f 366 359 361
f 366 357 359
f 366 363 357
f 367 362 363
f 367 364 362
f 368 367 363
f 369 370 365
f 369 365 364
f 371 372 373
f 371 361 372
f 371 366 361
f 371 363 366
f 371 368 363
f 374 364 367
f 374 369 364
f 375 374 367
f 375 367 368
f 375 368 371
f 376 377 370
f 376 370 369
f 378 371 373
f 378 375 371
f 379 369 374
f 379 376 369
f 380 379 374
f 380 374 375
f 381 382 377
f 381 377 376
f 383 380 375
f 383 378 373
f 383 375 378
f 383 373 384
f 385 376 379
f 385 381 376
f 386 379 380
f 386 385 379
f 387 388 382
f 387 382 381
f 389 383 384
f 389 386 380
f 389 384 390
f 389 380 383
f 391 381 385
f 391 387 381
f 392 391 385
f 392 385 386
f 392 386 389
f 393 388 387
f 393 394 388
f 395 392 389
f 395 389 390
f 395 390 396
f 397 387 391
f 397 393 387
f 398 391 392
f 398 397 391
f 399 400 394
f 399 394 393
f 401 392 395
f 401 396 402
f 401 395 396
f 401 398 392
f 403 393 397
f 403 399 393
f 404 397 398
f 404 403 397
f 404 398 401
f 405 406 407
f 405 407 400
f 405 399 403
f 405 400 399
f 408 402 409
f 408 401 402
f 408 404 401
f 410 405 403
f 411 403 404
f 411 410 403
f 412 406 405
f 413 409 414
f 413 408 409
f 413 404 408
f 413 411 404
f 415 405 410
f 415 412 405
f 416 410 411
f 416 415 410
f 417 406 412
f 417 418 406
f 417 412 415
f 419 414 420
f 419 411 413
f 419 416 411
f 419 413 414
f 421 417 415
f 422 415 416
f 422 421 415
f 423 424 418
f 423 418 417
f 425 420 426
f 425 419 420
f 425 416 419
f 425 422 416
f 427 417 421
f 427 423 417
f 428 427 421
f 428 421 422
f 429 430 424
f 429 424 423
f 429 423 427
f 431 428 422
f 431 426 432
f 431 425 426
f 431 422 425
f 433 429 427
f 434 433 427
f 434 427 428
f 435 436 437
f 435 437 430
f 435 429 433
f 435 430 429
f 438 428 431
f 438 431 432
f 438 434 428
f 438 432 439
f 440 435 433
f 441 440 433
f 441 433 434
f 442 436 435
f 442 435 440
f 443 441 434
f 443 434 438
f 443 438 439
f 443 439 444
f 445 442 440
f 446 440 441
f 446 445 440
f 447 448 436
f 447 436 442
f 449 441 443
f 449 444 450
f 449 443 444
f 449 446 441
f 451 447 442
f 451 442 445
f 452 445 446
f 452 451 445
f 453 454 455
f 453 455 448
f 453 447 451
f 453 448 447
f 456 450 457
f 456 449 450
f 456 446 449
f 456 452 446
f 458 453 451
f 459 451 452
f 459 458 451
f 460 454 453
f 460 453 458
f 461 457 462
f 461 456 457
f 461 452 456
f 461 459 452
f 463 460 458
f 464 458 459
f 464 463 458
f 465 249 466
f 465 466 454
f 465 250 249
f 465 467 250
f 465 460 463
f 465 454 460
f 468 462 469
f 468 461 462
f 468 464 459
f 468 459 461
f 470 465 463
f 470 467 465
f 471 472 467
f 471 470 463
f 471 463 464
f 471 467 470
f 473 252 472
f 473 469 253
f 473 468 469
f 473 253 252
f 473 464 468
f 473 472 471
f 473 471 464
f 474 475 476
f 477 476 478
f 477 474 476
f 479 478 480
f 479 477 478
f 481 480 482
f 481 479 480
f 483 482 484
f 483 481 482
f 485 483 484
f 485 484 486
f 487 485 486
f 487 486 488
f 489 487 488
f 489 488 490
f 491 489 490
f 491 490 492
f 493 491 492
f 493 492 494
f 495 493 494
f 495 494 496
f 497 495 496
f 497 496 498
f 499 498 500
f 499 497 498
f 501 499 500
f 501 500 436
f 502 501 436
f 503 504 505
f 503 436 504
f 503 502 436
f 506 505 507
f 506 503 505
f 508 506 507
f 509 507 510
f 509 508 507
f 511 510 249
f 511 509 510
f 512 249 513
f 512 511 249
f 514 512 513
f 514 513 515
f 516 515 517
f 516 514 515
f 518 517 519
f 518 516 517
f 520 521 522
f 520 519 521
f 520 518 519
f 523 522 524
f 523 520 522
f 525 524 526
f 525 523 524
f 527 526 528
f 527 525 526
f 529 527 528
f 530 528 531
f 530 529 528
f 532 531 533
f 532 530 531
f 534 532 533
f 534 533 535
f 536 534 535
f 536 535 537
f 538 536 537
f 538 539 540
f 538 537 539
f 541 538 540
f 542 541 540
f 542 543 544
f 542 540 543
f 545 542 544
f 545 544 546
f 547 545 546
f 548 549 550
f 548 550 512
f 551 552 549
f 551 549 548
f 553 552 551
f 553 554 552
f 555 556 557
f 555 557 558
f 555 558 554
f 555 554 553
f 559 548 512
f 559 512 560
f 561 548 559
f 561 551 548
f 562 551 561
f 562 555 553
f 562 553 551
f 563 555 562
f 563 564 565
f 563 565 556
f 563 556 555
f 566 559 560
f 566 561 559
f 566 560 516
f 567 561 566
f 568 562 561
f 568 561 567
f 569 562 568
f 569 564 563
f 569 563 562
f 570 516 571
f 570 566 516
f 572 567 566
f 572 566 570
f 572 568 567
f 573 568 572
f 574 575 564
f 574 568 573
f 574 564 569
f 574 569 568
f 576 571 577
f 576 570 571
f 578 570 576
f 578 572 570
f 579 573 572
f 579 572 578
f 580 581 575
f 580 575 574
f 580 573 579
f 580 574 573
f 582 576 577
f 582 577 523
f 583 576 582
f 583 578 576
f 584 579 578
f 584 578 583
f 585 579 584
f 585 586 581
f 585 581 580
f 585 580 579
f 587 523 525
f 587 582 523
f 588 582 587
f 588 583 582
f 589 583 588
f 589 584 583
f 590 591 586
f 590 584 589
f 590 585 584
f 590 586 585
f 592 587 525
f 592 525 593
f 594 588 587
f 594 587 592
f 595 588 594
f 595 589 588
f 596 597 591
f 596 591 590
f 596 590 589
f 596 589 595
f 598 592 593
f 598 593 529
f 599 594 592
f 599 592 598
f 599 595 594
f 600 595 599
f 601 602 603
f 601 603 597
f 601 597 596
f 601 596 595
f 601 595 600
f 604 529 605
f 604 598 529
f 604 599 598
f 606 599 604
f 607 600 599
f 607 601 600
f 607 599 606
f 608 602 601
f 608 601 607
f 609 605 532
f 609 604 605
f 609 606 604
f 610 606 609
f 611 607 606
f 611 608 607
f 611 606 610
f 612 613 602
f 612 602 608
f 612 608 611
f 614 532 615
f 614 609 532
f 616 610 609
f 616 609 614
f 617 610 616
f 617 611 610
f 618 611 617
f 618 619 620
f 618 620 613
f 618 613 612
f 618 612 611
f 621 615 536
f 621 614 615
f 622 614 621
f 622 616 614
f 622 617 616
f 623 617 622
f 624 618 617
f 624 617 623
f 624 619 618
f 625 536 538
f 625 621 536
f 626 622 621
f 626 621 625
f 627 622 626
f 627 623 622
f 628 629 619
f 628 619 624
f 628 624 623
f 628 623 627
f 630 625 538
f 630 538 541
f 631 626 625
f 631 625 630
f 632 627 626
f 632 626 631
f 632 628 627
f 633 634 629
f 633 628 632
f 633 629 628
f 635 541 636
f 635 630 541
f 637 631 630
f 637 632 631
f 637 630 635
f 638 632 637
f 639 640 634
f 639 634 633
f 639 633 632
f 639 632 638
f 641 636 642
f 641 635 636
f 643 637 635
f 643 635 641
f 644 637 643
f 644 638 637
f 645 646 640
f 645 640 639
f 645 639 638
f 645 638 644
f 647 642 648
f 647 641 642
f 649 644 643
f 649 643 641
f 649 641 647
f 650 644 649
f 651 652 646
f 651 646 645
f 651 645 644
f 651 644 650
f 653 648 654
f 653 647 648
f 655 649 647
f 655 647 653
f 656 650 649
f 656 649 655
f 657 652 651
f 657 651 650
f 657 658 659
f 657 659 652
f 657 650 656
f 660 654 661
f 660 653 654
f 660 655 653
f 662 655 660
f 663 656 655
f 663 657 656
f 663 655 662
f 664 658 657
f 664 657 663
f 665 661 666
f 665 660 661
f 667 660 665
f 667 662 660
f 668 662 667
f 668 663 662
f 669 664 663
f 669 663 668
f 669 670 658
f 669 658 664
f 671 666 672
f 671 665 666
f 673 667 665
f 673 665 671
f 674 668 667
f 674 667 673
f 674 669 668
f 675 670 669
f 675 669 674
f 675 676 670
f 677 672 678
f 677 671 672
f 679 673 671
f 679 671 677
f 680 675 674
f 680 673 679
f 680 674 673
f 681 676 675
f 681 675 680
f 681 682 676
f 683 678 684
f 683 677 678
f 685 677 683
f 685 679 677
f 686 680 679
f 686 679 685
f 687 681 680
f 687 682 681
f 687 680 686
f 687 688 682
f 689 684 690
f 689 683 684
f 691 685 683
f 691 683 689
f 692 685 691
f 692 686 685
f 693 686 692
f 693 687 686
f 693 688 687
f 693 694 688
f 695 689 690
f 695 690 696
f 697 689 695
f 697 691 689
f 698 692 691
f 698 691 697
f 699 693 692
f 699 694 693
f 699 692 698
f 699 700 701
f 699 701 694
f 702 695 696
f 702 696 493
f 703 697 695
f 703 695 702
f 704 697 703
f 704 698 697
f 705 699 698
f 705 700 699
f 705 698 704
f 706 493 707
f 706 702 493
f 706 703 702
f 708 703 706
f 709 704 703
f 709 703 708
f 710 711 712
f 710 712 700
f 710 705 704
f 710 700 705
f 710 704 709
f 713 707 714
f 713 706 707
f 715 708 706
f 715 706 713
f 716 708 715
f 716 709 708
f 717 709 716
f 717 711 710
f 717 710 709
f 718 714 719
f 718 713 714
f 718 715 713
f 720 715 718
f 721 716 715
f 721 715 720
f 722 717 716
f 722 711 717
f 722 716 721
f 722 723 711
f 724 718 719
f 724 719 725
f 726 720 718
f 726 718 724
f 727 721 720
f 727 720 726
f 728 722 721
f 728 723 722
f 728 721 727
f 728 729 723
f 730 726 724
f 730 724 725
f 730 725 731
f 732 726 730
f 733 727 726
f 733 726 732
f 734 728 727
f 734 729 728
f 734 727 733
f 734 735 736
f 734 736 729
f 737 730 731
f 737 731 738
f 739 732 730
f 739 730 737
f 740 732 739
f 740 733 732
f 741 734 733
f 741 735 734
f 741 733 740
f 741 742 735
f 743 739 737
f 743 738 744
f 743 737 738
f 745 739 743
f 746 739 745
f 746 740 739
f 747 742 741
f 747 741 740
f 747 740 746
f 748 744 749
f 748 743 744
f 750 745 743
f 750 743 748
f 751 746 745
f 751 745 750
f 752 742 747
f 752 747 746
f 752 753 742
f 752 746 751
f 754 748 749
f 754 755 756
f 754 749 755
f 754 756 757
f 758 750 748
f 758 748 754
f 758 757 759
f 758 754 757
f 760 759 761
f 760 751 750
f 760 750 758
f 760 758 759
f 762 760 761
f 762 763 764
f 762 761 763
f 762 764 765
f 762 765 753
f 762 751 760
f 762 753 752
f 762 752 751
f 766 767 768
f 769 768 770
f 769 766 768
f 771 770 772
f 771 769 770
f 773 772 774
f 773 771 772
f 775 774 776
f 775 773 774
f 777 775 776
f 777 776 778
f 779 777 778
f 779 778 780
f 781 779 780
f 781 780 782
f 783 781 782
f 783 782 784
f 785 783 784
f 785 784 786
f 787 785 786
f 787 786 788
f 789 787 788
f 789 788 790
f 791 789 790
f 791 790 792
f 793 791 792
f 793 792 794
f 795 793 794
f 795 794 796
f 797 796 798
f 797 795 796
f 799 797 798
f 799 798 800
f 801 800 802
f 801 799 800
f 803 802 804
f 803 801 802
f 805 803 804
f 805 804 806
f 807 805 806
f 807 806 808
f 809 807 808
f 809 808 810
f 811 809 810
f 811 810 812
f 813 811 812
f 813 812 814
f 815 814 586
f 815 813 814
f 816 586 817
f 816 815 586
f 818 817 819
f 818 816 817
f 820 819 821
f 820 818 819
f 822 821 823
f 822 820 821
f 824 823 825
f 824 822 823
f 826 825 827
f 826 824 825
f 828 826 827
f 828 827 829
f 830 828 829
f 830 829 831
f 832 830 831
f 832 831 833
f 834 832 833
f 834 833 835
f 836 834 835
f 836 835 837
f 838 836 837
f 838 837 839
f 840 841 842
f 843 844 841
f 843 841 840
f 845 842 846
f 845 840 842
f 847 848 844
f 847 844 843
f 849 846 850
f 849 845 846
f 851 848 847
f 852 848 851
f 853 850 854
f 853 849 850
f 855 852 851
f 856 852 855
f 857 853 854
f 857 854 858
f 859 856 855
f 860 856 859
f 861 858 862
f 861 857 858
f 863 860 859
f 864 860 863
f 865 862 866
f 865 861 862
f 867 864 863
f 868 864 867
f 869 866 870
f 869 865 866
f 871 868 867
f 872 870 873
f 872 869 870
f 874 868 871
f 875 874 871
f 876 872 873
f 876 877 872
f 878 874 875
f 878 875 879
f 880 877 876
f 880 881 877
f 882 878 879
f 882 879 883
f 884 881 880
f 885 884 880
f 886 882 883
f 886 883 887
f 888 889 884
f 888 884 885
f 890 887 891
f 890 886 887
f 892 893 889
f 892 889 888
f 894 891 895
f 894 890 891
f 896 893 892
f 897 896 892
f 898 895 899
f 898 894 895
f 900 896 897
f 901 900 897
f 902 899 903
f 902 898 899
f 904 900 901
f 904 905 900
f 906 903 907
f 906 907 908
f 906 902 903
f 909 905 904
f 909 908 910
f 909 910 905
f 911 906 908
f 911 908 909
f 912 913 914
f 915 916 913
f 915 913 912
f 917 914 918
f 917 912 914
f 919 920 916
f 919 916 915
f 921 918 922
f 921 917 918
f 923 924 920
f 923 920 919
f 925 922 926
f 925 921 922
f 927 928 924
f 927 924 923
f 929 925 926
f 929 926 930
f 931 932 928
f 931 928 927
f 933 929 930
f 934 935 932
f 934 932 931
f 936 933 930
f 937 933 936
f 938 939 935
f 938 935 934
f 940 937 936
f 941 937 940
f 942 943 939
f 942 939 938
f 944 941 940
f 945 941 944
f 946 947 943
f 946 943 942
f 948 947 946
f 949 945 944
f 949 950 945
f 951 947 948
f 952 951 948
f 953 954 950
f 953 950 949
f 955 951 952
f 956 955 952
f 957 958 954
f 957 954 953
f 959 955 956
f 960 959 956
f 961 962 958
f 961 958 957
f 963 960 964
f 963 959 960
f 965 966 962
f 965 962 961
f 967 964 968
f 967 963 964
f 969 970 966
f 969 966 965
f 971 968 972
f 971 967 968
f 973 974 970
f 973 970 969
f 975 972 976
f 975 971 972
f 977 974 973
f 977 978 974
f 979 976 980
f 979 975 976
f 981 982 978
f 981 978 977
f 983 979 980
f 983 982 981
f 983 980 982
f 984 985 986
f 984 986 987
f 988 987 989
f 988 984 987
f 990 989 991
f 990 988 989
f 992 991 993
f 992 990 991
f 994 993 995
f 994 992 993
f 996 994 995
f 996 995 997
f 998 996 997
f 998 997 999
f 1000 998 999
f 1000 999 1001
f 1002 1000 1001
f 1002 1001 1003
f 1004 1002 1003
f 1004 1003 1005
f 1006 1004 1005
f 1006 1005 1007
f 1008 1006 1007
f 1008 1007 1009
f 1010 1008 1009
f 1010 1009 1011
f 1012 1010 1011
f 1012 1011 1013
f 1014 1012 1013
f 1014 1013 1015
f 1016 1014 1015
f 1016 1015 1017
f 1018 1016 1017
f 1018 1017 1019
f 1020 1018 1019
f 1020 1019 1021
f 1022 1021 1023
f 1022 1020 1021
f 1024 1023 1025
f 1024 1022 1023
f 1026 1025 1027
f 1026 1024 1025
f 1028 1027 1029
f 1028 1026 1027
f 1030 1029 1031
f 1030 1028 1029
f 1032 1031 1033
f 1032 1030 1031
f 1034 1033 1035
f 1034 1032 1033
f 1036 1035 1037
f 1036 1034 1035
f 1038 1037 1039
f 1038 1036 1037
f 1040 1041 1042
f 1040 1039 1041
f 1040 1038 1039
f 1043 1040 1042
f 1044 1042 1045
f 1044 1043 1042
f 1046 1045 1047
f 1046 1044 1045
f 1048 1046 1047
f 1048 1047 1049
f 1050 1048 1049
f 1050 1049 1051
f 1052 1050 1051
f 1052 1051 1053
f 1054 1052 1053
f 1054 1053 1055
f 1056 1054 1055
f 1056 1055 1057
f 1058 1059 1060
f 1058 1060 1061
f 1062 1063 1064
f 1062 1064 1065
f 1062 1065 1066
f 1067 1068 1069
f 1070 1071 1067
f 1070 1069 1058
f 1070 1061 1072
f 1070 1072 1073
f 1070 1058 1061
f 1070 1067 1069
f 1074 1062 1075
f 1074 1075 1076
f 1077 1073 1063
f 1077 1063 1062
f 1077 1070 1073
f 1078 1062 1074
f 1079 1078 1080
f 1081 1082 1083
f 1084 1079 1085
f 1084 1078 1079
f 1084 1062 1078
f 1086 1084 1087
f 1086 1083 1088
f 1086 1088 1077
f 1086 1077 1062
f 1086 1081 1083
f 1086 1062 1084
f 1089 1090 1091
f 1089 1091 1081
f 1092 1086 1093
f 1092 1089 1081
f 1092 1081 1086
f 1094 1095 1096
f 1094 1096 1097
f 1098 1097 1099
f 1098 1094 1097
f 1100 1099 1101
f 1100 1098 1099
f 1102 1101 1103
f 1102 1100 1101
f 1104 1103 1105
f 1104 1102 1103
f 1106 1104 1105
f 1106 1105 1107
f 1108 1106 1107
f 1108 1107 1109
f 1110 1108 1109
f 1110 1109 1111
f 1112 1110 1111
f 1112 1111 1113
f 1114 1112 1113
f 1114 1113 1115
f 1116 1114 1115
f 1116 1115 1117
f 1118 1116 1117
f 1118 1117 1119
f 1120 1118 1119
f 1120 1119 1121
f 1122 1120 1121
f 1122 1121 1123
f 1124 1122 1123
f 1124 1123 1125
f 1126 1124 1125
f 1126 1125 1127
f 1128 1126 1127
f 1128 1127 1129
f 1130 1128 1129
f 1130 1129 1131
f 1132 1131 1133
f 1132 1130 1131
f 1134 1133 1135
f 1134 1132 1133
f 1136 1135 1137
f 1136 1134 1135
f 1138 1137 1139
f 1138 1136 1137
f 1140 1139 1141
f 1140 1138 1139
f 1142 1141 1143
f 1142 1140 1141
f 1144 1143 1145
f 1144 1142 1143
f 1146 1145 1147
f 1146 1144 1145
f 1148 1147 1149
f 1148 1146 1147
f 1150 1149 1151
f 1150 1148 1149
f 1152 1151 1153
f 1152 1150 1151
f 1154 1153 1155
f 1154 1152 1153
f 1156 1155 1157
f 1156 1154 1155
f 1158 1156 1157
f 1158 1157 1159
f 1160 1158 1159
f 1160 1159 1161
f 1162 1160 1161
f 1162 1161 1163
f 1164 1162 1163
f 1164 1165 1166
f 1164 1163 1165
f 1167 1164 1166
f 1168 1169 1170
f 1168 1170 1171
f 1172 1171 1173
f 1172 1168 1171
f 1174 1173 1175
f 1174 1175 1176
f 1174 1172 1173
f 1177 1174 1176
f 1178 1176 1179
f 1178 1177 1176
f 1180 1178 1179
f 1180 1179 1181
f 1180 1181 1182
f 1183 1180 1182
f 1183 1182 1184
f 1185 1183 1184
f 1186 1185 1184
f 1186 1184 1187
f 1188 1186 1187
f 1188 1187 1189
f 1190 1188 1189
f 1190 1189 1191
f 1190 1191 1192
f 1193 1190 1192
f 1194 1193 1192
f 1194 1192 1195
f 1196 1194 1195
f 1196 1195 1197
f 1198 1196 1197
f 1198 1197 1199
f 1198 1199 1200
f 1201 1198 1200
f 1202 1201 1200
f 1202 1200 1203
f 1204 1202 1203
f 1204 1203 1205
f 1206 1204 1205
f 1206 1205 1207
f 1208 1206 1207
f 1208 1207 1209
f 1210 1209 1211
f 1210 1208 1209
f 1210 1211 1212
f 1213 1210 1212
f 1214 1212 1215
f 1214 1213 1212
f 1216 1215 1217
f 1216 1214 1215
f 1218 1217 1219
f 1218 1216 1217
f 1220 1219 1221
f 1220 1218 1219
f 1222 1221 1223
f 1222 1220 1221
f 1224 1223 1225
f 1224 1222 1223
f 1226 1225 1227
f 1226 1224 1225
f 1228 1227 1229
f 1228 1226 1227
f 1230 1228 1229
f 1230 1229 1231
f 1230 1231 1232
f 1233 1230 1232
f 1234 1233 1232
f 1234 1232 1235
f 1236 1234 1235
f 1236 1235 1237
f 1238 1236 1237
f 1238 1237 1239
f 1238 1239 1240
f 1241 1238 1240

