# https://github.com/mikedh/trimesh
v -0.00552577 0.08552743 -0.05869285
v 0.00874698 0.08591766 -0.05829779
v 0.00162250 0.08529183 -0.05893127
v -0.01259285 0.08662090 -0.05758594
v 0.01574295 0.08739572 -0.05680165
v 0.00874698 0.08591766 -0.05829779
v -0.00552577 0.08552743 -0.05869285
v -0.01947492 0.08855638 -0.05562685
v 0.02324050 0.09001069 -0.05415470
v -0.02607083 0.09130522 -0.05284438
v 0.03107112 0.09406012 -0.05005579
v -0.03228354 0.09482712 -0.04927941
v 0.03894895 0.09986333 -0.04418153
v -0.03802186 0.09907033 -0.04498430
v -0.04320144 0.10397241 -0.04002218
v 0.04643183 0.10773025 -0.03621848
v -0.04774618 0.10946153 -0.03446604
v -0.05158925 0.11545675 -0.02839743
v 0.05288082 0.11790424 -0.02591995
v -0.05552583 0.12408473 -0.01966394
v 0.05742973 0.13047104 -0.01319944
v -0.05812495 0.13384813 -0.00978109
v 0.05899971 0.14373489 0.00022663
v -0.05899995 0.14390990 0.00040377
v 0.05899995 0.14390990 0.00040377
v 0.05808115 0.15421867 0.01083858
v -0.05736982 0.15759923 0.01426047
v 0.05535328 0.16420630 0.02094841
v -0.00585842 0.20226036 0.05946796
v -0.00000000 0.20255016 0.05976130
v 0.00693470 0.20214377 0.05934989
v -0.05318582 0.16929369 0.02609804
v 0.05147725 0.17256284 0.02940713
v -0.01165896 0.20139375 0.05859083
v 0.01377326 0.20092991 0.05812125
v -0.04737544 0.17886040 0.03578174
v 0.04332500 0.18371503 0.04069570
v 0.04773199 0.17837787 0.03529326
v -0.01827144 0.19966735 0.05684325
v 0.02042090 0.19892570 0.05609248
v -0.02532702 0.19687229 0.05401401
v 0.02678543 0.19615877 0.05329172
v -0.03984463 0.18715790 0.04418074
v 0.03831738 0.18850026 0.04553957
v -0.03266948 0.19273975 0.04983091
v 0.03277862 0.19266750 0.04975775
v 0.00968087 0.08858723 0.06926870
v 0.01906758 0.09110238 0.06928398
v 0.02787494 0.09520924 0.06930895
v 0.03583538 0.10078304 0.06934284
v 0.04270696 0.10765452 0.06938460
v 0.05574995 0.14348926 0.06960244
v 0.04828089 0.11561477 0.06943300
v 0.05238783 0.12442201 0.06948654
v 0.05490303 0.13380854 0.06954359
v 0.04828089 0.17136374 0.06977189
v 0.05490303 0.15316999 0.06966129
v 0.05238783 0.16255650 0.06971835
v -0.02787500 0.09520924 0.06930895
v -0.01906758 0.09110238 0.06928398
v -0.00968087 0.08858723 0.06926870
v 0.04270696 0.17932399 0.06982028
v -0.03583538 0.10078304 0.06934284
v -0.00000000 0.08774032 0.06926355
v 0.02787494 0.19176927 0.06989593
v 0.03583538 0.18619548 0.06986205
v -0.04828089 0.11561477 0.06943300
v -0.04270696 0.10765452 0.06938460
v -0.00000000 0.19923823 0.06994133
v 0.01906758 0.19587620 0.06992090
v 0.00968087 0.19839123 0.06993619
v -0.05574995 0.14348926 0.06960244
v -0.05490303 0.13380854 0.06954359
v -0.05238783 0.12442201 0.06948654
v -0.02787500 0.19176927 0.06989593
v -0.00968087 0.19839123 0.06993619
v -0.01906758 0.19587620 0.06992090
v -0.04828089 0.17136374 0.06977189
v -0.05238783 0.16255650 0.06971835
v -0.05490303 0.15316999 0.06966129
v -0.04270696 0.17932399 0.06982028
v -0.03583538 0.18619548 0.06986205
v 0.04270696 0.07642901 -0.03584251
v 0.04519659 0.07644171 -0.03793149
v 0.05109548 0.07639050 -0.02950719
v 0.03583538 0.07647078 -0.04271390
v 0.03792446 0.07648591 -0.04520354
v 0.04828089 0.07638062 -0.02788222
v 0.02787494 0.07650466 -0.04828773
v 0.02949994 0.07652177 -0.05110227
v 0.05544185 0.07633384 -0.02018656
v 0.05238783 0.07632708 -0.01907502
v 0.01906758 0.07652962 -0.05239465
v 0.02017915 0.07654819 -0.05544856
v 0.05490303 0.07627002 -0.00968847
v 0.05810362 0.07627345 -0.01025279
v 0.00968087 0.07654491 -0.05490974
v 0.01024520 0.07656437 -0.05811033
v 0.05574995 0.07621117 -0.00000776
v 0.05899995 0.07621117 -0.00000776
v -0.00000000 0.07655006 -0.05575670
v -0.00000000 0.07656982 -0.05900665
v -0.01024520 0.07656437 -0.05811033
v 0.05490303 0.07615232 0.00967290
v 0.05810362 0.07614889 0.01023729
v -0.00968087 0.07654491 -0.05490974
v 0.05544185 0.07608851 0.02017104
v -0.02017915 0.07654819 -0.05544856
v 0.05238783 0.07609526 0.01905950
v -0.01906758 0.07652962 -0.05239465
v -0.02949994 0.07652177 -0.05110227
v 0.04828089 0.07604173 0.02786670
v 0.05109548 0.07603185 0.02949167
v -0.02787500 0.07650466 -0.04828773
v 0.04519659 0.07598064 0.03791597
v -0.03792446 0.07648591 -0.04520354
v 0.04270696 0.07599334 0.03582698
v -0.03583538 0.07647078 -0.04271390
v 0.03792446 0.07593643 0.04518802
v 0.03583538 0.07595157 0.04269839
v -0.04519659 0.07644171 -0.03793149
v -0.04270696 0.07642901 -0.03584251
v 0.02949994 0.07590058 0.05108675
v 0.02787494 0.07591768 0.04827221
v -0.05109548 0.07639050 -0.02950719
v -0.04828089 0.07638062 -0.02788222
v 0.02017915 0.07587416 0.05543304
v 0.01906758 0.07589272 0.05237913
v -0.05544185 0.07633384 -0.02018656
v -0.05238783 0.07632708 -0.01907502
v 0.01024520 0.07585797 0.05809481
v 0.00968087 0.07587743 0.05489422
v -0.05810362 0.07627345 -0.01025279
v -0.05490303 0.07627002 -0.00968847
v -0.00000000 0.07587228 0.05574119
v -0.05899995 0.07621117 -0.00000776
v -0.05574995 0.07621117 -0.00000776
v -0.00000000 0.07585253 0.05899113
v -0.05810362 0.07614889 0.01023729
v -0.05490303 0.07615232 0.00967290
v -0.01024520 0.07585797 0.05809481
v -0.00968087 0.07587743 0.05489422
v -0.01906758 0.07589272 0.05237913
v -0.05544185 0.07608851 0.02017104
v -0.05238783 0.07609526 0.01905950
v -0.02017915 0.07587416 0.05543304
v -0.02787500 0.07591768 0.04827221
v -0.02949994 0.07590058 0.05108675
v -0.03583538 0.07595157 0.04269839
v -0.05109548 0.07603185 0.02949167
v -0.04828089 0.07604173 0.02786670
v -0.03792446 0.07593643 0.04518802
v -0.04270696 0.07599334 0.03582698
v -0.04519659 0.07598064 0.03791597
v 0.00968087 0.07504494 -0.05491885
v -0.00000000 0.07505009 -0.05576582
v -0.00000000 0.07655006 -0.05575670
v 0.00968087 0.07654491 -0.05490974
v 0.01906758 0.07502965 -0.05240376
v 0.01906758 0.07652962 -0.05239465
v 0.02787494 0.07500468 -0.04829685
v 0.02787494 0.07650466 -0.04828773
v 0.03583538 0.07497080 -0.04272302
v 0.03583538 0.07647078 -0.04271390
v 0.04270696 0.07492904 -0.03585163
v 0.04270696 0.07642901 -0.03584251
v 0.04828089 0.07638062 -0.02788222
v 0.04828089 0.07488064 -0.02789134
v 0.05238783 0.07482710 -0.01908414
v 0.05238783 0.07632708 -0.01907502
v 0.05490303 0.07477005 -0.00969759
v 0.05490303 0.07627002 -0.00968847
v 0.05574995 0.07471120 -0.00001688
v 0.05574995 0.07621117 -0.00000776
v 0.05490303 0.07465235 0.00966378
v 0.05490303 0.07615232 0.00967290
v 0.05238783 0.07459529 0.01905038
v 0.05238783 0.07609526 0.01905950
v 0.04828089 0.07604173 0.02786670
v 0.04828089 0.07454176 0.02785758
v 0.04270696 0.07449336 0.03581787
v 0.04270696 0.07599334 0.03582698
v 0.03583538 0.07445160 0.04268927
v 0.03583538 0.07595157 0.04269839
v 0.02787494 0.07441771 0.04826309
v 0.02787494 0.07591768 0.04827221
v 0.01906758 0.07439274 0.05237001
v 0.01906758 0.07589272 0.05237913
v 0.00968087 0.07437745 0.05488511
v 0.00968087 0.07587743 0.05489422
v -0.00000000 0.07437231 0.05573207
v -0.00000000 0.07587228 0.05574119
v -0.00968087 0.07437745 0.05488511
v -0.00968087 0.07587743 0.05489422
v -0.01906758 0.07439274 0.05237001
v -0.01906758 0.07589272 0.05237913
v -0.02787500 0.07441771 0.04826309
v -0.02787500 0.07591768 0.04827221
v -0.03583538 0.07445160 0.04268927
v -0.03583538 0.07595157 0.04269839
v -0.04270696 0.07449336 0.03581787
v -0.04270696 0.07599334 0.03582698
v -0.04828089 0.07454176 0.02785758
v -0.04828089 0.07604173 0.02786670
v -0.05238783 0.07459529 0.01905038
v -0.05238783 0.07609526 0.01905950
v -0.05490303 0.07465235 0.00966378
v -0.05490303 0.07615232 0.00967290
v -0.05574995 0.07471120 -0.00001688
v -0.05574995 0.07621117 -0.00000776
v -0.05490303 0.07477005 -0.00969759
v -0.05490303 0.07627002 -0.00968847
v -0.05238783 0.07482710 -0.01908414
v -0.05238783 0.07632708 -0.01907502
v -0.04828089 0.07488064 -0.02789134
v -0.04828089 0.07638062 -0.02788222
v -0.04270696 0.07492904 -0.03585163
v -0.04270696 0.07642901 -0.03584251
v -0.03583538 0.07497080 -0.04272302
v -0.03583538 0.07647078 -0.04271390
v -0.02787500 0.07500468 -0.04829685
v -0.02787500 0.07650466 -0.04828773
v -0.01906758 0.07502965 -0.05240376
v -0.01906758 0.07652962 -0.05239465
v -0.00968087 0.07504494 -0.05491885
v -0.00968087 0.07654491 -0.05490974
v -0.00000000 0.07655006 -0.05575670
v -0.00000000 0.07505009 -0.05576582
v 0.01906758 0.07502965 -0.05240376
v 0.02787494 0.07500468 -0.04829685
v 0.03583538 0.07497080 -0.04272302
v 0.04270696 0.07492904 -0.03585163
v 0.04828089 0.07488064 -0.02789134
v 0.05574995 0.07471120 -0.00001688
v 0.05238783 0.07482710 -0.01908414
v 0.05490303 0.07477005 -0.00969759
v -0.00000000 0.07505009 -0.05576582
v 0.00968087 0.07504494 -0.05491885
v 0.04828089 0.07454176 0.02785758
v 0.05490303 0.07465235 0.00966378
v 0.05238783 0.07459529 0.01905038
v -0.02787500 0.07500468 -0.04829685
v -0.01906758 0.07502965 -0.05240376
v -0.00968087 0.07504494 -0.05491885
v 0.03583538 0.07445160 0.04268927
v 0.04270696 0.07449336 0.03581787
v 0.02787494 0.07441771 0.04826309
v 0.03583538 0.07445160 0.04268927
v -0.04828089 0.07488064 -0.02789134
v -0.04270696 0.07492904 -0.03585163
v -0.03583538 0.07497080 -0.04272302
v -0.04828089 0.07488064 -0.02789134
v -0.03583538 0.07497080 -0.04272302
v -0.05490303 0.07477005 -0.00969759
v -0.05238783 0.07482710 -0.01908414
v -0.00000000 0.07437231 0.05573207
v 0.01906758 0.07439274 0.05237001
v 0.00968087 0.07437745 0.05488511
v -0.05490303 0.07465235 0.00966378
v -0.05574995 0.07471120 -0.00001688
v -0.04270696 0.07449336 0.03581787
v -0.00968087 0.07437745 0.05488511
v -0.01906758 0.07439274 0.05237001
v -0.02787500 0.07441771 0.04826309
v -0.03583538 0.07445160 0.04268927
v -0.04828089 0.07454176 0.02785758
v -0.05238783 0.07459529 0.01905038
v 0.04270696 0.10766363 0.06788468
v 0.04519659 0.10557457 0.06787199
v 0.05109548 0.11399891 0.06792320
v 0.03583538 0.10079215 0.06784292
v 0.03792446 0.09830260 0.06782778
v 0.04828089 0.11562388 0.06793308
v 0.02787494 0.09521835 0.06780903
v 0.02949994 0.09240381 0.06779192
v 0.05544185 0.12331954 0.06797986
v 0.05238783 0.12443112 0.06798662
v 0.01906758 0.09111149 0.06778406
v 0.02017915 0.08805753 0.06776550
v 0.05810362 0.13325326 0.06804024
v 0.05490303 0.13381766 0.06804367
v 0.00968087 0.08859634 0.06776877
v 0.01024520 0.08539581 0.06774932
v 0.05899995 0.14349838 0.06810252
v 0.05574995 0.14349838 0.06810252
v -0.00000000 0.08774943 0.06776363
v -0.00000000 0.08449949 0.06774388
v 0.05810362 0.15374349 0.06816480
v -0.01024520 0.08539581 0.06774932
v 0.05490303 0.15317911 0.06816137
v -0.00968087 0.08859634 0.06776877
v 0.05544185 0.16367722 0.06822518
v -0.02017915 0.08805753 0.06776550
v 0.05238783 0.16256562 0.06821842
v -0.01906758 0.09111149 0.06778406
v 0.05109548 0.17299783 0.06828184
v -0.02949994 0.09240381 0.06779192
v 0.04828089 0.17137286 0.06827196
v -0.02787500 0.09521835 0.06780903
v 0.04519659 0.18142219 0.06833305
v -0.03792446 0.09830260 0.06782778
v 0.04270696 0.17933311 0.06832036
v -0.03583538 0.10079215 0.06784292
v 0.03792446 0.18869425 0.06837726
v 0.03583538 0.18620460 0.06836212
v -0.04519659 0.10557457 0.06787199
v -0.04270696 0.10766363 0.06788468
v 0.02949994 0.19459292 0.06841312
v 0.02787494 0.19177839 0.06839601
v -0.05109548 0.11399891 0.06792320
v -0.04828089 0.11562388 0.06793308
v 0.02017915 0.19893925 0.06843954
v 0.01906758 0.19588532 0.06842098
v -0.05544185 0.12331954 0.06797986
v -0.05238783 0.12443112 0.06798662
v 0.01024520 0.20160101 0.06845572
v 0.00968087 0.19840035 0.06843626
v -0.05810362 0.13325326 0.06804024
v -0.05490303 0.13381766 0.06804367
v -0.00000000 0.20249727 0.06846116
v -0.00000000 0.19924735 0.06844141
v -0.05899995 0.14349838 0.06810252
v -0.05574995 0.14349838 0.06810252
v -0.05810362 0.15374349 0.06816480
v -0.05490303 0.15317911 0.06816137
v -0.01024520 0.20160101 0.06845572
v -0.00968087 0.19840035 0.06843626
v -0.01906758 0.19588532 0.06842098
v -0.05544185 0.16367722 0.06822518
v -0.05238783 0.16256562 0.06821842
v -0.02017915 0.19893925 0.06843954
v -0.02787500 0.19177839 0.06839601
v -0.02949994 0.19459292 0.06841312
v -0.05109548 0.17299783 0.06828184
v -0.04828089 0.17137286 0.06827196
v -0.03792446 0.18869425 0.06837726
v -0.03583538 0.18620460 0.06836212
v -0.04270696 0.17933311 0.06832036
v -0.04519659 0.18142219 0.06833305
v 0.00968087 0.08858723 0.06926870
v -0.00000000 0.08774032 0.06926355
v -0.00000000 0.08774943 0.06776363
v 0.00968087 0.08859634 0.06776877
v 0.01906758 0.09110238 0.06928398
v 0.01906758 0.09111149 0.06778406
v 0.02787494 0.09520924 0.06930895
v 0.02787494 0.09521835 0.06780903
v 0.03583538 0.10078304 0.06934284
v 0.03583538 0.10079215 0.06784292
v 0.04270696 0.10765452 0.06938460
v 0.04270696 0.10766363 0.06788468
v 0.04828089 0.11561477 0.06943300
v 0.04828089 0.11562388 0.06793308
v 0.05238783 0.12443112 0.06798662
v 0.05238783 0.12442201 0.06948654
v 0.05490303 0.13380854 0.06954359
v 0.05490303 0.13381766 0.06804367
v 0.05574995 0.14348926 0.06960244
v 0.05574995 0.14349838 0.06810252
v 0.05490303 0.15316999 0.06966129
v 0.05490303 0.15317911 0.06816137
v 0.05238783 0.16255650 0.06971835
v 0.05238783 0.16256562 0.06821842
v 0.04828089 0.17136374 0.06977189
v 0.04828089 0.17137286 0.06827196
v 0.04270696 0.17932399 0.06982028
v 0.04270696 0.17933311 0.06832036
v 0.03583538 0.18619548 0.06986205
v 0.03583538 0.18620460 0.06836212
v 0.02787494 0.19176927 0.06989593
v 0.02787494 0.19177839 0.06839601
v 0.01906758 0.19588532 0.06842098
v 0.01906758 0.19587620 0.06992090
v 0.00968087 0.19839123 0.06993619
v 0.00968087 0.19840035 0.06843626
v -0.00000000 0.19923823 0.06994133
v -0.00000000 0.19924735 0.06844141
v -0.00968087 0.19839123 0.06993619
v -0.00968087 0.19840035 0.06843626
v -0.01906758 0.19587620 0.06992090
v -0.01906758 0.19588532 0.06842098
v -0.02787500 0.19176927 0.06989593
v -0.02787500 0.19177839 0.06839601
v -0.03583538 0.18619548 0.06986205
v -0.03583538 0.18620460 0.06836212
v -0.04270696 0.17932399 0.06982028
v -0.04270696 0.17933311 0.06832036
v -0.04828089 0.17136374 0.06977189
v -0.04828089 0.17137286 0.06827196
v -0.05238783 0.16255650 0.06971835
v -0.05238783 0.16256562 0.06821842
v -0.05490303 0.15316999 0.06966129
v -0.05490303 0.15317911 0.06816137
v -0.05574995 0.14348926 0.06960244
v -0.05574995 0.14349838 0.06810252
v -0.05490303 0.13381766 0.06804367
v -0.05490303 0.13380854 0.06954359
v -0.05238783 0.12443112 0.06798662
v -0.05238783 0.12442201 0.06948654
v -0.04828089 0.11561477 0.06943300
v -0.04828089 0.11562388 0.06793308
v -0.04270696 0.10765452 0.06938460
v -0.04270696 0.10766363 0.06788468
v -0.03583538 0.10078304 0.06934284
v -0.03583538 0.10079215 0.06784292
v -0.02787500 0.09520924 0.06930895
v -0.02787500 0.09521835 0.06780903
v -0.01906758 0.09110238 0.06928398
v -0.01906758 0.09111149 0.06778406
v -0.00968087 0.08858723 0.06926870
v -0.00968087 0.08859634 0.06776877
v -0.00000000 0.08774032 0.06926355
v -0.00000000 0.08774943 0.06776363
f 1 2 3
f 4 5 6
f 4 6 7
f 8 9 5
f 8 5 4
f 10 11 9
f 10 9 8
f 12 13 11
f 12 11 10
f 14 13 12
f 15 16 13
f 15 13 14
f 17 16 15
f 18 19 16
f 18 16 17
f 20 21 19
f 20 19 18
f 22 23 21
f 22 21 20
f 24 25 23
f 24 23 22
f 24 26 25
f 27 26 24
f 27 28 26
f 29 30 31
f 32 28 27
f 32 33 28
f 34 31 35
f 34 29 31
f 36 37 38
f 36 38 33
f 36 33 32
f 39 35 40
f 39 34 35
f 41 40 42
f 41 39 40
f 43 44 37
f 43 37 36
f 45 42 46
f 45 46 44
f 45 44 43
f 45 41 42
f 47 48 49
f 47 49 50
f 47 50 51
f 52 51 53
f 52 53 54
f 52 54 55
f 56 57 58
f 59 60 61
f 62 52 57
f 62 51 52
f 62 57 56
f 63 61 64
f 63 59 61
f 65 62 66
f 67 64 47
f 67 68 63
f 67 47 51
f 67 51 62
f 67 63 64
f 69 65 70
f 69 70 71
f 72 73 74
f 75 69 76
f 75 76 77
f 75 62 65
f 75 65 69
f 78 79 80
f 78 80 72
f 78 74 67
f 78 72 74
f 81 62 75
f 81 78 67
f 81 75 82
f 81 67 62
f 83 84 85
f 86 87 84
f 86 84 83
f 88 83 85
f 89 90 87
f 89 87 86
f 91 88 85
f 92 88 91
f 93 94 90
f 93 90 89
f 95 91 96
f 95 92 91
f 97 98 94
f 97 94 93
f 99 95 96
f 99 96 100
f 101 102 98
f 101 98 97
f 103 102 101
f 104 99 100
f 104 100 105
f 106 103 101
f 107 104 105
f 108 103 106
f 109 104 107
f 110 108 106
f 111 108 110
f 112 109 107
f 112 107 113
f 114 111 110
f 115 112 113
f 116 111 114
f 117 112 115
f 118 116 114
f 119 117 115
f 119 120 117
f 121 116 118
f 121 118 122
f 123 124 120
f 123 120 119
f 125 121 122
f 125 122 126
f 127 128 124
f 127 124 123
f 129 125 126
f 129 126 130
f 131 132 128
f 131 128 127
f 133 130 134
f 133 129 130
f 135 132 131
f 136 134 137
f 136 133 134
f 138 135 131
f 139 137 140
f 139 136 137
f 141 142 135
f 141 135 138
f 143 142 141
f 144 140 145
f 144 139 140
f 146 143 141
f 147 143 146
f 148 149 147
f 148 147 146
f 150 145 151
f 150 144 145
f 152 149 148
f 152 153 149
f 154 150 151
f 154 153 152
f 154 151 153
f 155 156 157
f 155 157 158
f 159 158 160
f 159 155 158
f 161 160 162
f 161 159 160
f 163 162 164
f 163 161 162
f 165 164 166
f 165 166 167
f 165 163 164
f 168 165 167
f 169 168 167
f 169 167 170
f 171 169 170
f 171 170 172
f 173 171 172
f 173 172 174
f 175 173 174
f 175 174 176
f 177 175 176
f 177 176 178
f 177 178 179
f 180 177 179
f 181 180 179
f 181 179 182
f 183 181 182
f 183 182 184
f 185 183 184
f 185 184 186
f 187 185 186
f 187 186 188
f 189 187 188
f 189 188 190
f 191 189 190
f 191 190 192
f 193 192 194
f 193 191 192
f 195 194 196
f 195 193 194
f 197 196 198
f 197 195 196
f 199 198 200
f 199 197 198
f 201 200 202
f 201 199 200
f 203 202 204
f 203 201 202
f 205 204 206
f 205 203 204
f 207 206 208
f 207 205 206
f 209 208 210
f 209 207 208
f 211 210 212
f 211 209 210
f 213 212 214
f 213 211 212
f 215 214 216
f 215 213 214
f 217 215 216
f 217 216 218
f 219 217 218
f 219 218 220
f 221 219 220
f 221 220 222
f 223 221 222
f 223 222 224
f 225 223 224
f 225 224 226
f 225 226 227
f 228 225 227
f 229 230 231
f 229 231 232
f 229 232 233
f 234 235 236
f 237 238 229
f 239 233 235
f 239 234 240
f 239 240 241
f 239 235 234
f 242 243 244
f 245 239 246
f 247 229 233
f 247 233 239
f 247 239 248
f 249 250 251
f 252 253 242
f 252 242 244
f 254 255 249
f 256 247 257
f 256 257 258
f 256 244 237
f 256 237 229
f 256 229 247
f 259 260 254
f 259 254 249
f 261 256 262
f 261 262 263
f 261 263 264
f 261 264 265
f 261 266 267
f 261 267 259
f 261 249 244
f 261 244 256
f 261 259 249
f 268 269 270
f 271 272 269
f 271 269 268
f 273 268 270
f 274 275 272
f 274 272 271
f 276 273 270
f 277 273 276
f 278 279 275
f 278 275 274
f 280 277 276
f 281 277 280
f 282 283 279
f 282 279 278
f 284 281 280
f 285 281 284
f 286 283 282
f 286 287 283
f 288 285 284
f 289 287 286
f 290 285 288
f 291 289 286
f 292 290 288
f 293 289 291
f 294 290 292
f 295 293 291
f 296 294 292
f 297 293 295
f 298 294 296
f 299 297 295
f 300 298 296
f 301 297 299
f 302 298 300
f 303 301 299
f 304 302 300
f 304 305 302
f 306 301 303
f 306 303 307
f 308 309 305
f 308 305 304
f 310 306 307
f 310 307 311
f 312 309 308
f 312 313 309
f 314 310 311
f 314 311 315
f 316 317 313
f 316 313 312
f 318 315 319
f 318 314 315
f 320 321 317
f 320 317 316
f 322 319 323
f 322 318 319
f 324 323 325
f 324 322 323
f 326 327 321
f 326 321 320
f 328 327 326
f 329 325 330
f 329 324 325
f 331 328 326
f 332 328 331
f 333 332 331
f 334 330 335
f 334 329 330
f 336 332 333
f 336 337 332
f 336 338 337
f 339 334 335
f 339 338 336
f 339 335 338
f 340 341 342
f 340 342 343
f 344 343 345
f 344 340 343
f 346 345 347
f 346 344 345
f 348 347 349
f 348 346 347
f 350 349 351
f 350 348 349
f 352 351 353
f 352 353 354
f 352 350 351
f 355 352 354
f 356 355 354
f 356 354 357
f 358 356 357
f 358 357 359
f 360 358 359
f 360 359 361
f 362 360 361
f 362 361 363
f 364 362 363
f 364 363 365
f 366 364 365
f 366 365 367
f 368 366 367
f 368 367 369
f 370 368 369
f 370 369 371
f 370 371 372
f 373 370 372
f 374 373 372
f 374 372 375
f 376 374 375
f 376 375 377
f 378 377 379
f 378 376 377
f 380 379 381
f 380 378 379
f 382 381 383
f 382 380 381
f 384 383 385
f 384 382 383
f 386 385 387
f 386 384 385
f 388 387 389
f 388 386 387
f 390 389 391
f 390 388 389
f 392 391 393
f 392 390 391
f 394 393 395
f 394 395 396
f 394 392 393
f 397 396 398
f 397 394 396
f 399 397 398
f 400 398 401
f 400 399 398
f 402 400 401
f 402 401 403
f 404 402 403
f 404 403 405
f 406 404 405
f 406 405 407
f 408 406 407
f 408 407 409
f 410 408 409
f 410 409 411
f 412 410 411
f 412 411 413

