# https://github.com/mikedh/trimesh
v 0.03693538 0.04192736 -0.07852604
v 0.03038638 0.05000984 -0.07847691
v 0.03870671 0.04396509 -0.07851365
v 0.04585099 0.03656740 -0.07855862
v 0.04375272 0.03486822 -0.07856895
v 0.04924064 0.02673251 -0.07861841
v 0.05160206 0.02804146 -0.07861045
v 0.02899581 0.04769550 -0.07849097
v 0.05578523 0.01864645 -0.07866756
v 0.05323237 0.01776742 -0.07867290
v 0.02017521 0.05199732 -0.07846483
v 0.02114278 0.05451796 -0.07844950
v 0.05560666 0.00824540 -0.07873078
v 0.05827343 0.00866781 -0.07872822
v 0.01074165 0.05470219 -0.07844839
v 0.01125675 0.05735252 -0.07843227
v 0.05899101 -0.00159127 -0.07879058
v 0.00102872 0.05842735 -0.07842574
v 0.05629140 -0.00154418 -0.07879030
v 0.00098166 0.05572778 -0.07844215
v -0.00923055 0.05770979 -0.07843010
v 0.05526578 -0.01130396 -0.07884963
v 0.05791616 -0.01181911 -0.07885276
v -0.00880814 0.05504313 -0.07844631
v 0.05508154 -0.02170496 -0.07891285
v 0.05256086 -0.02073742 -0.07890697
v -0.01833033 0.05266881 -0.07846075
v -0.01920938 0.05522163 -0.07844523
v 0.04825896 -0.02955785 -0.07896059
v 0.05057334 -0.03094840 -0.07896904
v -0.02729552 0.04867717 -0.07848500
v -0.02860456 0.05103854 -0.07847065
v 0.04249072 -0.03749728 -0.07900885
v 0.04452848 -0.03926858 -0.07901962
v -0.03543144 0.04318935 -0.07851837
v -0.03713059 0.04528758 -0.07850561
v 0.03713059 -0.04641271 -0.07906304
v 0.03543144 -0.04431450 -0.07905030
v -0.04452848 0.03814343 -0.07854904
v -0.04249072 0.03637213 -0.07855981
v -0.04825896 0.02843276 -0.07860807
v 0.02860456 -0.05216368 -0.07909801
v 0.02729552 -0.04980225 -0.07908365
v -0.05057334 0.02982325 -0.07859962
v 0.01833033 -0.05379396 -0.07910792
v 0.01920938 -0.05634678 -0.07912344
v -0.05508154 0.02057981 -0.07865581
v -0.05256086 0.01961227 -0.07866169
v 0.00880814 -0.05616821 -0.07912235
v 0.00923055 -0.05883493 -0.07913856
v -0.05791616 0.01069397 -0.07871591
v -0.05526578 0.01017888 -0.07871903
v -0.00098166 -0.05685293 -0.07912651
v -0.05899101 0.00046615 -0.07877807
v -0.05629140 0.00041907 -0.07877836
v -0.00102872 -0.05955249 -0.07914292
v -0.01074165 -0.05582727 -0.07912028
v -0.05560666 -0.00937054 -0.07883787
v -0.05827343 -0.00979295 -0.07884044
v -0.01125675 -0.05847766 -0.07913639
v -0.02017521 -0.05312246 -0.07910383
v -0.05578523 -0.01977160 -0.07890110
v -0.05323237 -0.01889256 -0.07889576
v -0.02114278 -0.05564310 -0.07911915
v -0.04924064 -0.02785760 -0.07895025
v -0.03038638 -0.05113499 -0.07909175
v -0.02899581 -0.04882064 -0.07907768
v -0.03693538 -0.04305251 -0.07904262
v -0.05160206 -0.02916660 -0.07895821
v -0.03870671 -0.04509023 -0.07905500
v -0.04375272 -0.03599336 -0.07899971
v -0.04585099 -0.03769247 -0.07901004
v 0.03693538 0.04189697 -0.07352614
v 0.03870671 0.04393470 -0.07351375
v 0.03038638 0.04997944 -0.07347700
v 0.04585099 0.03653700 -0.07355872
v 0.04375272 0.03483782 -0.07356904
v 0.04924064 0.02670211 -0.07361850
v 0.05160206 0.02801107 -0.07361054
v 0.02899581 0.04766510 -0.07349107
v 0.05578523 0.01861606 -0.07366765
v 0.05323237 0.01773703 -0.07367299
v 0.02017521 0.05196693 -0.07346492
v 0.02114278 0.05448756 -0.07344960
v 0.05560666 0.00821501 -0.07373088
v 0.05827343 0.00863742 -0.07372832
v 0.01074165 0.05467180 -0.07344848
v 0.01125675 0.05732213 -0.07343236
v 0.05899101 -0.00162166 -0.07379068
v 0.00102872 0.05839696 -0.07342583
v 0.05629140 -0.00157458 -0.07379039
v 0.00098166 0.05569739 -0.07344224
v -0.00923055 0.05767939 -0.07343020
v 0.05526578 -0.01133436 -0.07384972
v 0.05791616 -0.01184951 -0.07385285
v -0.00880814 0.05501273 -0.07344641
v 0.05508154 -0.02173536 -0.07391295
v 0.05256086 -0.02076781 -0.07390706
v -0.01833033 0.05263842 -0.07346084
v -0.01920938 0.05519124 -0.07344532
v 0.04825896 -0.02958824 -0.07396068
v 0.05057334 -0.03097880 -0.07396913
v -0.02729552 0.04864677 -0.07348510
v -0.02860456 0.05100815 -0.07347075
v 0.04249072 -0.03752767 -0.07400894
v 0.04452848 -0.03929897 -0.07401972
v -0.03543144 0.04315895 -0.07351846
v -0.03713059 0.04525718 -0.07350571
v 0.03713059 -0.04644311 -0.07406314
v 0.03543144 -0.04434489 -0.07405039
v -0.04452848 0.03811304 -0.07354914
v -0.04249072 0.03634174 -0.07355990
v -0.04825896 0.02840236 -0.07360817
v 0.02860456 -0.05219407 -0.07409810
v 0.02729552 -0.04983265 -0.07408375
v -0.05057334 0.02979286 -0.07359971
v 0.01833033 -0.05382435 -0.07410801
v 0.01920938 -0.05637718 -0.07412353
v -0.05508154 0.02054942 -0.07365590
v -0.05256086 0.01958187 -0.07366178
v 0.00880814 -0.05619860 -0.07412244
v 0.00923055 -0.05886532 -0.07413866
v -0.05791616 0.01066358 -0.07371600
v -0.05526578 0.01014849 -0.07371913
v -0.00098166 -0.05688333 -0.07412661
v -0.05899101 0.00043576 -0.07377817
v -0.05629140 0.00038868 -0.07377846
v -0.00102872 -0.05958289 -0.07414301
v -0.01074165 -0.05585767 -0.07412037
v -0.05560666 -0.00940094 -0.07383797
v -0.05827343 -0.00982334 -0.07384054
v -0.01125675 -0.05850806 -0.07413648
v -0.02017521 -0.05315286 -0.07410393
v -0.05578523 -0.01980199 -0.07390119
v -0.05323237 -0.01892295 -0.07389585
v -0.02114278 -0.05567349 -0.07411925
v -0.04924064 -0.02788799 -0.07395034
v -0.03038638 -0.05116538 -0.07409184
v -0.02899581 -0.04885103 -0.07407778
v -0.03693538 -0.04308290 -0.07404272
v -0.05160206 -0.02919700 -0.07395830
v -0.03870671 -0.04512062 -0.07405510
v -0.04375272 -0.03602375 -0.07399980
v -0.04585099 -0.03772287 -0.07401013
v 0.00923055 -0.05886532 -0.07413866
v -0.00102872 -0.05958289 -0.07414301
v -0.00102872 -0.05955249 -0.07914292
v 0.00923055 -0.05883493 -0.07913856
v 0.01920938 -0.05637718 -0.07412353
v 0.01920938 -0.05634678 -0.07912344
v 0.02860456 -0.05219407 -0.07409810
v 0.02860456 -0.05216368 -0.07909801
v 0.03713059 -0.04644311 -0.07406314
v 0.03713059 -0.04641271 -0.07906304
v 0.04452848 -0.03929897 -0.07401972
v 0.04452848 -0.03926858 -0.07901962
v 0.05057334 -0.03097880 -0.07396913
v 0.05057334 -0.03094840 -0.07896904
v 0.05508154 -0.02170496 -0.07891285
v 0.05508154 -0.02173536 -0.07391295
v 0.05791616 -0.01184951 -0.07385285
v 0.05791616 -0.01181911 -0.07885276
v 0.05899101 -0.00159127 -0.07879058
v 0.05899101 -0.00162166 -0.07379068
v 0.05827343 0.00863742 -0.07372832
v 0.05827343 0.00866781 -0.07872822
v 0.05578523 0.01861606 -0.07366765
v 0.05578523 0.01864645 -0.07866756
v 0.05160206 0.02801107 -0.07361054
v 0.05160206 0.02804146 -0.07861045
v 0.04585099 0.03653700 -0.07355872
v 0.04585099 0.03656740 -0.07855862
v 0.03870671 0.04393470 -0.07351375
v 0.03870671 0.04396509 -0.07851365
v 0.03038638 0.04997944 -0.07347700
v 0.03038638 0.05000984 -0.07847691
v 0.02114278 0.05448756 -0.07344960
v 0.02114278 0.05451796 -0.07844950
v 0.01125675 0.05732213 -0.07343236
v 0.01125675 0.05735252 -0.07843227
v 0.00102872 0.05839696 -0.07342583
v 0.00102872 0.05842735 -0.07842574
v -0.00923055 0.05770979 -0.07843010
v -0.00923055 0.05767939 -0.07343020
v -0.01920938 0.05519124 -0.07344532
v -0.01920938 0.05522163 -0.07844523
v -0.02860456 0.05100815 -0.07347075
v -0.02860456 0.05103854 -0.07847065
v -0.03713059 0.04525718 -0.07350571
v -0.03713059 0.04528758 -0.07850561
v -0.04452848 0.03811304 -0.07354914
v -0.04452848 0.03814343 -0.07854904
v -0.05057334 0.02979286 -0.07359971
v -0.05057334 0.02982325 -0.07859962
v -0.05508154 0.02054942 -0.07365590
v -0.05508154 0.02057981 -0.07865581
v -0.05791616 0.01066358 -0.07371600
v -0.05791616 0.01069397 -0.07871591
v -0.05899101 0.00043576 -0.07377817
v -0.05899101 0.00046615 -0.07877807
v -0.05827343 -0.00982334 -0.07384054
v -0.05827343 -0.00979295 -0.07884044
v -0.05578523 -0.01980199 -0.07390119
v -0.05578523 -0.01977160 -0.07890110
v -0.05160206 -0.02919700 -0.07395830
v -0.05160206 -0.02916660 -0.07895821
v -0.04585099 -0.03772287 -0.07401013
v -0.04585099 -0.03769247 -0.07901004
v -0.03870671 -0.04512062 -0.07405510
v -0.03870671 -0.04509023 -0.07905500
v -0.03038638 -0.05113499 -0.07909175
v -0.03038638 -0.05116538 -0.07409184
v -0.02114278 -0.05567349 -0.07411925
v -0.02114278 -0.05564310 -0.07911915
v -0.01125675 -0.05850806 -0.07413648
v -0.01125675 -0.05847766 -0.07913639
v -0.00102872 -0.05955249 -0.07914292
v -0.00102872 -0.05958289 -0.07414301
v 0.00880814 -0.05619860 -0.07412244
v -0.00098166 -0.05685293 -0.07912651
v -0.00098166 -0.05688333 -0.07412661
v 0.00880814 -0.05616821 -0.07912235
v 0.01833033 -0.05382435 -0.07410801
v 0.01833033 -0.05379396 -0.07910792
v 0.02729552 -0.04983265 -0.07408375
v 0.03543144 -0.04431450 -0.07905030
v 0.02729552 -0.04980225 -0.07908365
v 0.03543144 -0.04434489 -0.07405039
v 0.04249072 -0.03752767 -0.07400894
v 0.04249072 -0.03749728 -0.07900885
v 0.04825896 -0.02958824 -0.07396068
v 0.05256086 -0.02073742 -0.07890697
v 0.04825896 -0.02955785 -0.07896059
v 0.05256086 -0.02076781 -0.07390706
v 0.05526578 -0.01133436 -0.07384972
v 0.05629140 -0.00154418 -0.07879030
v 0.05526578 -0.01130396 -0.07884963
v 0.05629140 -0.00157458 -0.07379039
v 0.05560666 0.00821501 -0.07373088
v 0.05323237 0.01776742 -0.07867290
v 0.05560666 0.00824540 -0.07873078
v 0.05323237 0.01773703 -0.07367299
v 0.04924064 0.02670211 -0.07361850
v 0.04375272 0.03486822 -0.07856895
v 0.04924064 0.02673251 -0.07861841
v 0.04375272 0.03483782 -0.07356904
v 0.03693538 0.04189697 -0.07352614
v 0.02899581 0.04769550 -0.07849097
v 0.03693538 0.04192736 -0.07852604
v 0.02899581 0.04766510 -0.07349107
v 0.02017521 0.05196693 -0.07346492
v 0.02017521 0.05199732 -0.07846483
v 0.01074165 0.05467180 -0.07344848
v 0.01074165 0.05470219 -0.07844839
v 0.00098166 0.05569739 -0.07344224
v -0.00880814 0.05504313 -0.07844631
v 0.00098166 0.05572778 -0.07844215
v -0.00880814 0.05501273 -0.07344641
v -0.01833033 0.05266881 -0.07846075
v -0.01833033 0.05263842 -0.07346084
v -0.02729552 0.04867717 -0.07848500
v -0.02729552 0.04864677 -0.07348510
v -0.03543144 0.04318935 -0.07851837
v -0.03543144 0.04315895 -0.07351846
v -0.04249072 0.03634174 -0.07355990
v -0.04825896 0.02843276 -0.07860807
v -0.04249072 0.03637213 -0.07855981
v -0.04825896 0.02840236 -0.07360817
v -0.05256086 0.01961227 -0.07866169
v -0.05256086 0.01958187 -0.07366178
v -0.05526578 0.01014849 -0.07371913
v -0.05629140 0.00041907 -0.07877836
v -0.05526578 0.01017888 -0.07871903
v -0.05629140 0.00038868 -0.07377846
v -0.05560666 -0.00940094 -0.07383797
v -0.05323237 -0.01889256 -0.07889576
v -0.05560666 -0.00937054 -0.07883787
v -0.05323237 -0.01892295 -0.07389585
v -0.04924064 -0.02785760 -0.07895025
v -0.04924064 -0.02788799 -0.07395034
v -0.04375272 -0.03599336 -0.07899971
v -0.04375272 -0.03602375 -0.07399980
v -0.03693538 -0.04308290 -0.07404272
v -0.02899581 -0.04882064 -0.07907768
v -0.03693538 -0.04305251 -0.07904262
v -0.02899581 -0.04885103 -0.07407778
v -0.02017521 -0.05315286 -0.07410393
v -0.01074165 -0.05582727 -0.07912028
v -0.02017521 -0.05312246 -0.07910383
v -0.01074165 -0.05585767 -0.07412037
v -0.00098166 -0.05685293 -0.07912651
v -0.00098166 -0.05688333 -0.07412661
f 1 2 3
f 1 3 4
f 1 4 5
f 6 4 7
f 6 5 4
f 8 2 1
f 9 6 7
f 10 6 9
f 11 12 2
f 11 2 8
f 13 9 14
f 13 10 9
f 15 16 12
f 15 12 11
f 17 13 14
f 18 16 15
f 19 13 17
f 20 18 15
f 21 18 20
f 22 19 17
f 22 17 23
f 24 21 20
f 25 22 23
f 26 22 25
f 27 21 24
f 27 28 21
f 29 26 25
f 29 25 30
f 31 28 27
f 31 32 28
f 33 30 34
f 33 29 30
f 35 36 32
f 35 32 31
f 37 33 34
f 37 38 33
f 39 36 35
f 39 35 40
f 41 39 40
f 42 38 37
f 42 43 38
f 44 39 41
f 45 43 42
f 46 45 42
f 47 41 48
f 47 44 41
f 49 45 46
f 50 49 46
f 51 48 52
f 51 47 48
f 53 49 50
f 54 52 55
f 54 51 52
f 56 53 50
f 57 53 56
f 58 54 55
f 59 54 58
f 60 57 56
f 61 57 60
f 62 58 63
f 62 59 58
f 64 61 60
f 65 62 63
f 66 61 64
f 66 67 61
f 66 68 67
f 69 62 65
f 70 68 66
f 70 71 68
f 72 71 70
f 72 65 71
f 72 69 65
f 73 74 75
f 73 76 74
f 73 77 76
f 78 79 76
f 78 76 77
f 80 73 75
f 81 79 78
f 82 81 78
f 83 75 84
f 83 80 75
f 85 86 81
f 85 81 82
f 87 84 88
f 87 83 84
f 89 86 85
f 90 87 88
f 91 89 85
f 92 87 90
f 93 92 90
f 94 89 91
f 94 95 89
f 96 92 93
f 97 95 94
f 98 97 94
f 99 96 93
f 99 93 100
f 101 97 98
f 101 102 97
f 103 99 100
f 103 100 104
f 105 106 102
f 105 102 101
f 107 104 108
f 107 103 104
f 109 106 105
f 109 105 110
f 111 107 108
f 111 112 107
f 113 112 111
f 114 109 110
f 114 110 115
f 116 113 111
f 117 114 115
f 118 114 117
f 119 120 113
f 119 113 116
f 121 118 117
f 122 118 121
f 123 124 120
f 123 120 119
f 125 122 121
f 126 127 124
f 126 124 123
f 128 122 125
f 129 128 125
f 130 127 126
f 131 130 126
f 132 128 129
f 133 132 129
f 134 135 130
f 134 130 131
f 136 132 133
f 137 135 134
f 138 136 133
f 138 133 139
f 138 139 140
f 141 137 134
f 142 138 140
f 142 140 143
f 144 142 143
f 144 143 137
f 144 137 141
f 145 146 147
f 145 147 148
f 149 148 150
f 149 145 148
f 151 150 152
f 151 149 150
f 153 152 154
f 153 151 152
f 155 154 156
f 155 153 154
f 157 155 156
f 157 158 159
f 157 156 158
f 160 157 159
f 161 160 159
f 161 162 163
f 161 159 162
f 164 161 163
f 165 164 163
f 165 163 166
f 167 165 166
f 167 166 168
f 169 167 168
f 169 168 170
f 171 169 170
f 171 170 172
f 173 171 172
f 173 172 174
f 175 173 174
f 175 174 176
f 177 175 176
f 177 176 178
f 179 177 178
f 179 178 180
f 181 179 180
f 181 182 183
f 181 180 182
f 184 181 183
f 185 183 186
f 185 184 183
f 187 186 188
f 187 185 186
f 189 188 190
f 189 187 188
f 191 190 192
f 191 189 190
f 193 192 194
f 193 191 192
f 195 194 196
f 195 193 194
f 197 196 198
f 197 195 196
f 199 198 200
f 199 197 198
f 201 200 202
f 201 199 200
f 203 202 204
f 203 201 202
f 205 204 206
f 205 203 204
f 207 206 208
f 207 205 206
f 209 207 208
f 209 210 211
f 209 208 210
f 212 209 211
f 213 212 211
f 213 211 214
f 215 213 214
f 215 216 217
f 215 214 216
f 218 215 217
f 219 220 221
f 219 222 220
f 223 224 222
f 223 222 219
f 225 226 227
f 225 227 224
f 225 224 223
f 228 226 225
f 229 226 228
f 229 230 226
f 231 230 229
f 231 232 233
f 231 233 230
f 234 232 231
f 235 232 234
f 235 236 237
f 235 237 232
f 238 236 235
f 239 236 238
f 239 240 241
f 239 241 236
f 242 240 239
f 243 240 242
f 243 244 245
f 243 245 240
f 246 244 243
f 247 244 246
f 247 248 249
f 247 249 244
f 250 248 247
f 251 248 250
f 251 252 248
f 253 252 251
f 253 254 252
f 255 254 253
f 255 256 257
f 255 257 254
f 258 256 255
f 258 259 256
f 260 261 259
f 260 259 258
f 262 263 261
f 262 261 260
f 264 263 262
f 265 266 267
f 265 267 263
f 265 263 264
f 268 269 266
f 268 266 265
f 270 269 268
f 271 272 273
f 271 273 269
f 271 269 270
f 274 272 271
f 275 276 277
f 275 277 272
f 275 272 274
f 278 279 276
f 278 276 275
f 280 281 279
f 280 279 278
f 282 281 280
f 283 281 282
f 283 284 285
f 283 285 281
f 286 284 283
f 287 284 286
f 287 288 289
f 287 289 284
f 290 288 287
f 290 291 288
f 292 291 290

