# https://github.com/mikedh/trimesh
v -0.04425317 -0.01601505 0.07689452
v -0.03401339 -0.02064532 0.08152478
v -0.03400778 -0.02045303 0.08148336
v -0.04417532 -0.01585155 0.07688450
v -0.04412174 -0.01574528 0.07685917
v -0.03400361 -0.02026516 0.08140832
v -0.04407519 -0.01564788 0.07682049
v -0.03400099 -0.02008759 0.08130210
v -0.04403775 -0.01555722 0.07676935
v -0.03400021 -0.01999521 0.08123052
v -0.04401099 -0.01546823 0.07670360
v -0.03399997 -0.01990866 0.08115088
v -0.04400008 -0.01538676 0.07662904
v 0.04454648 -0.01703208 0.07657408
v 0.04458320 -0.01718264 0.07651656
v 0.04463350 -0.01717913 0.07649636
v 0.04468113 -0.01717430 0.07647061
v 0.04441267 -0.01700317 0.07659769
v 0.04449921 -0.01709467 0.07656496
v 0.04450225 -0.01695019 0.07660758
v 0.04444432 -0.01682358 0.07664936
v 0.04431098 -0.01686829 0.07662099
v 0.04438847 -0.01669245 0.07668399
v 0.04421710 -0.01668864 0.07663309
v 0.04409581 -0.01424610 0.07705104
v 0.04411286 -0.01291215 0.07719957
v 0.04399275 -0.01547574 0.07652223
v 0.04458093 -0.01693993 0.07659173
v 0.04472565 -0.01716804 0.07644015
v 0.04419183 -0.01641958 0.07668775
v 0.04411679 -0.01641213 0.07663166
v 0.04463064 -0.01591056 0.07688254
v 0.04492330 -0.01303982 0.07755672
v 0.04413062 -0.01506590 0.07695150
v 0.04431045 -0.01446199 0.07724028
v 0.04441380 -0.01445811 0.07728356
v 0.04434072 -0.01432073 0.07728981
v 0.04448735 -0.01462978 0.07725369
v 0.04426968 -0.01445394 0.07721728
v 0.04424029 -0.01430034 0.07723063
v 0.04424661 -0.01444876 0.07720178
v 0.04416948 -0.01427948 0.07716447
v 0.04411882 -0.01425868 0.07709467
v 0.04472935 -0.01384419 0.07743811
v 0.04469764 -0.01376289 0.07746958
v 0.04466331 -0.01369982 0.07749372
v 0.04455161 -0.01369631 0.07750052
v 0.04441332 -0.01617771 0.07682973
v 0.04443806 -0.01566237 0.07697325
v 0.04409003 -0.01557868 0.07678985
v 0.04400122 -0.01576262 0.07657760
v 0.04405462 -0.01543349 0.07676160
v 0.04424107 -0.01538956 0.07697498
v 0.04404240 -0.01534211 0.07675170
v 0.04418170 -0.01520991 0.07697302
v 0.04429048 -0.01485574 0.07713425
v 0.04453963 -0.01409167 0.07739806
v 0.04434168 -0.01399654 0.07736784
v 0.04430037 -0.01398879 0.07734560
v 0.04427689 -0.01398378 0.07733058
v 0.04435008 -0.01334846 0.07752317
v 0.04438740 -0.01302981 0.07761639
v 0.04429280 -0.01301056 0.07755726
v 0.04428356 -0.01333439 0.07747995
v 0.04421931 -0.01331621 0.07742041
v 0.04413741 -0.01294785 0.07733684
v 0.04420125 -0.01298207 0.07746112
v 0.04420417 -0.01616233 0.07676041
v 0.04404866 -0.01612800 0.07661479
v 0.04431158 -0.01604437 0.07684266
v 0.04444003 -0.01590043 0.07690852
v 0.04424238 -0.01586836 0.07685697
v 0.04408669 -0.01581853 0.07673412
v 0.04424166 -0.01562905 0.07691633
v 0.04436773 -0.01351410 0.07749462
v 0.04455488 -0.01321136 0.07762306
v 0.04456788 -0.01305031 0.07766431
v 0.04476320 -0.01313424 0.07761979
v 0.04475533 -0.01305389 0.07764381
v -0.04462140 -0.01651567 0.07677865
v -0.04472637 -0.01639318 0.07676202
v -0.04472637 -0.01639318 0.07676202
v -0.04453438 -0.01641815 0.07683014
v -0.04469799 -0.01668667 0.07668942
v -0.04479795 -0.01250952 0.07785421
v -0.04479432 -0.01230579 0.07790905
v -0.04496139 -0.01229208 0.07782191
v -0.04494261 -0.01270157 0.07771962
v -0.04471498 -0.01251071 0.07787454
v -0.04460656 -0.01230227 0.07793003
v -0.04466181 -0.01250970 0.07788014
v -0.04459363 -0.01250630 0.07787919
v -0.04451543 -0.01249963 0.07786679
v -0.04442489 -0.01228201 0.07788187
v -0.04442942 -0.01248848 0.07783782
v -0.04432976 -0.01226288 0.07782226
v -0.04447668 -0.01575279 0.07702106
v -0.04417532 -0.01585155 0.07688450
v -0.04443752 -0.01571118 0.07702976
v -0.04439437 -0.01567274 0.07703328
v -0.04434388 -0.01563471 0.07703000
v -0.04412174 -0.01574528 0.07685917
v -0.04428845 -0.01559847 0.07701748
v -0.04449737 -0.01591545 0.07697588
v -0.04425317 -0.01601505 0.07689452
v -0.04451256 -0.01579910 0.07700765
v -0.04454070 -0.01598924 0.07695150
v -0.04434376 -0.01619112 0.07688343
v -0.04477429 -0.01592326 0.07687431
v -0.04458385 -0.01607006 0.07692044
v -0.04475057 -0.01615828 0.07681840
v -0.04456931 -0.01618677 0.07689005
v -0.04444169 -0.01632094 0.07686311
v -0.04479175 -0.01261162 0.07782918
v -0.04475772 -0.01261258 0.07783919
v -0.04471725 -0.01261287 0.07784783
v -0.04426503 -0.01234811 0.07774019
v -0.04423791 -0.01223474 0.07772529
v -0.04421520 -0.01232922 0.07767301
v -0.04415029 -0.01216644 0.07746452
v -0.04417461 -0.01220124 0.07760125
v -0.04468280 -0.01342266 0.07764059
v -0.04436063 -0.01410728 0.07742309
v -0.04435443 -0.01410353 0.07742106
v -0.04467970 -0.01342123 0.07764148
v -0.04417800 -0.01313626 0.07746940
v -0.04399996 -0.01537847 0.07662075
v -0.04461008 -0.01491796 0.07724308
v -0.04479759 -0.01568806 0.07692980
v -0.04410761 -0.01475179 0.07705050
v -0.04400008 -0.01538676 0.07662904
v -0.04410445 -0.01474744 0.07704603
v -0.04410284 -0.01474523 0.07704377
v -0.04464095 -0.01570892 0.07700926
v -0.04462236 -0.01569229 0.07701975
v -0.04459977 -0.01567673 0.07703000
v -0.04457342 -0.01566296 0.07703918
v -0.04413622 -0.01558166 0.07691162
v -0.04407519 -0.01564788 0.07682049
v -0.04410350 -0.01553750 0.07688325
v -0.04403775 -0.01555722 0.07676935
v -0.04407221 -0.01549565 0.07684642
v -0.04401099 -0.01546823 0.07670360
v -0.04441082 -0.01289284 0.07773613
v -0.04439216 -0.01329684 0.07763272
v -0.04432457 -0.01485383 0.07722187
v -0.04470795 -0.01281511 0.07779687
v -0.04399996 -0.01320517 0.07444745
v -0.04426825 -0.00958580 0.07806682
v -0.04415029 -0.01216644 0.07746452
v -0.04399996 -0.01537847 0.07662075
v -0.04412919 -0.00578487 0.07925009
v -0.04428088 -0.00727564 0.07883960
v -0.04425293 -0.00725323 0.07875442
v -0.04432457 -0.00729525 0.07891863
v -0.04438239 -0.00731146 0.07898879
v -0.04416823 -0.00577366 0.07935208
v -0.04445248 -0.00732368 0.07904773
v -0.04453241 -0.00733155 0.07909345
v -0.04422575 -0.00575840 0.07944393
v -0.04461944 -0.00733477 0.07912433
v -0.04429876 -0.00574046 0.07952082
v -0.04471057 -0.00733328 0.07913929
v -0.04438471 -0.00572008 0.07958060
v -0.04447758 -0.00569886 0.07961958
v -0.04480278 -0.00732702 0.07913792
v -0.04461556 -0.00566870 0.07963913
v -0.04489278 -0.00731629 0.07912021
v -0.04497766 -0.00730145 0.07908678
v -0.04505437 -0.00728291 0.07903879
v -0.04475641 -0.00560212 0.07962477
v -0.04487347 -0.00547206 0.07958626
v 0.04411286 -0.01291215 0.07719957
v 0.04399996 -0.01320511 0.07444745
v 0.04399996 -0.01511114 0.07635343
v 0.04399687 -0.01529526 0.07645410
v 0.04399275 -0.01547574 0.07652223
v 0.04411286 -0.01291215 0.07719957
v 0.04399996 -0.01511114 0.07635343
v 0.04399687 -0.01529526 0.07645410
v 0.04412114 -0.01273238 0.07724463
v 0.04399996 -0.01320511 0.07444745
v 0.04411286 -0.01291215 0.07719957
v 0.04412949 -0.01255255 0.07728940
v 0.04413777 -0.01237267 0.07733386
v 0.04399996 -0.01320511 0.07444745
v 0.04412949 -0.01255255 0.07728940
v 0.04426038 -0.00969172 0.07796084
v 0.04413777 -0.01237267 0.07733386
v 0.04477751 -0.01251107 0.07777822
v 0.04492330 -0.01303982 0.07755672
v 0.04495060 -0.01249670 0.07769030
v 0.04456788 -0.01305031 0.07766431
v 0.04475533 -0.01305389 0.07764381
v 0.04458606 -0.01250725 0.07779753
v 0.04438740 -0.01302981 0.07761639
v 0.04440683 -0.01248711 0.07774865
v 0.04432255 -0.01247000 0.07769471
v 0.04429280 -0.01301056 0.07755726
v 0.04412114 -0.01273238 0.07724463
v 0.04411286 -0.01291215 0.07719957
v 0.04413741 -0.01294785 0.07733684
v 0.04420125 -0.01298207 0.07746112
v 0.04425078 -0.01244938 0.07762444
v 0.04412949 -0.01255255 0.07728940
v 0.04418522 -0.01242142 0.07752311
v 0.04415136 -0.01239711 0.07743060
v 0.04413777 -0.01237267 0.07733386
v 0.04379332 -0.01060909 0.07457613
v 0.04399996 -0.01320511 0.07444745
v 0.04426038 -0.00969172 0.07796084
v 0.04392403 -0.01259118 0.07383346
v 0.04369843 -0.01199585 0.07323819
v 0.04333013 -0.01143735 0.07267963
v 0.04290753 -0.00952423 0.07349133
v 0.04283022 -0.01093250 0.07217484
v 0.04221391 -0.01049673 0.07173907
v 0.04388821 -0.00922227 0.07591414
v 0.04155045 -0.00871903 0.07268613
v 0.04149997 -0.01014322 0.07138556
v 0.04071009 -0.00988281 0.07112509
v 0.04298490 -0.00811595 0.07480782
v 0.04398310 -0.00783545 0.07725208
v 0.04426562 -0.00774699 0.07852685
v 0.03988575 -0.00829059 0.07225769
v 0.03986823 -0.00972325 0.07096558
v 0.03899997 -0.00966954 0.07091188
v 0.04160094 -0.00729477 0.07398664
v 0.04306226 -0.00670767 0.07612431
v 0.04407799 -0.00644869 0.07859003
v 0.04409998 -0.00569111 0.07922202
v 0.04368716 -0.00474554 0.07889628
v 0.03811419 -0.00829059 0.07225769
v 0.03813171 -0.00972325 0.07096558
v 0.03728985 -0.00988281 0.07112509
v 0.03990328 -0.00685787 0.07354974
v 0.04165142 -0.00587058 0.07528722
v 0.04313957 -0.00529939 0.07744079
v 0.03644949 -0.00871903 0.07268613
v 0.03649997 -0.01014322 0.07138556
v 0.03578603 -0.01049673 0.07173907
v 0.03809666 -0.00685787 0.07354974
v 0.03992080 -0.00542516 0.07484179
v 0.04170191 -0.00444639 0.07658773
v 0.04321694 -0.00389111 0.07875728
v 0.04336875 -0.00399727 0.07891339
v 0.04299002 -0.00327825 0.07894772
v 0.03509241 -0.00952423 0.07349133
v 0.03516978 -0.01093250 0.07217484
v 0.03466987 -0.01143735 0.07267963
v 0.03639900 -0.00729483 0.07398664
v 0.03807914 -0.00542521 0.07484179
v 0.03993833 -0.00399250 0.07613390
v 0.04175239 -0.00302213 0.07788830
v 0.04249697 -0.00252110 0.07900726
v 0.04192888 -0.00182110 0.07909053
v 0.03420662 -0.01060909 0.07457613
v 0.03430151 -0.01199585 0.07323819
v 0.03407597 -0.01259118 0.07383346
v 0.03399997 -0.01320511 0.07444745
v 0.03501504 -0.00811595 0.07480782
v 0.03634852 -0.00587058 0.07528722
v 0.03806161 -0.00399250 0.07613390
v 0.03995591 -0.00255978 0.07742595
v 0.04128718 -0.00119191 0.07919871
v 0.03411173 -0.00922227 0.07591414
v 0.03493767 -0.00670767 0.07612431
v 0.03629803 -0.00444639 0.07658773
v 0.03804409 -0.00255978 0.07742595
v 0.03997343 -0.00112712 0.07871800
v 0.04014897 -0.00039609 0.07942003
v 0.03961378 -0.00014166 0.07953566
v 0.04065686 -0.00070575 0.07931697
v 0.03401684 -0.00783545 0.07725208
v 0.03345906 -0.00590652 0.08174598
v 0.03486037 -0.00529939 0.07744079
v 0.03624755 -0.00302213 0.07788830
v 0.03802651 -0.00112712 0.07871800
v 0.03789800 0.00021149 0.07995349
v 0.03731745 0.00016900 0.08011192
v 0.03848093 0.00016921 0.07980340
v 0.03905570 0.00004916 0.07966369
v 0.03392195 -0.00644869 0.07859003
v 0.03478300 -0.00389111 0.07875728
v 0.03619706 -0.00159794 0.07918888
v 0.03565460 -0.00050213 0.08062446
v 0.03510546 -0.00096768 0.08081942
v 0.03621071 -0.00017309 0.08044189
v 0.03675109 0.00003982 0.08027589
v 0.03382706 -0.00506186 0.07992804
v 0.03352022 -0.00451416 0.08159929
v 0.03470563 -0.00248283 0.08007377
v 0.03413569 -0.00235689 0.08122205
v 0.03377443 -0.00329316 0.08141314
v 0.03458946 -0.00158310 0.08102083
v 0.03373223 -0.00367504 0.08126598
v -0.04421639 -0.00544292 0.07942378
v -0.04422575 -0.00575840 0.07944393
v -0.04416823 -0.00577366 0.07935208
v -0.04412919 -0.00578487 0.07925009
v -0.04426401 -0.00543362 0.07945692
v -0.04429876 -0.00574046 0.07952082
v -0.04441666 -0.00510490 0.07942587
v -0.04431217 -0.00542551 0.07948356
v -0.04461556 -0.00566870 0.07963913
v -0.04447758 -0.00569886 0.07961958
v -0.04438471 -0.00572008 0.07958060
v -0.04408615 -0.00491923 0.07928186
v -0.04402512 -0.00463361 0.07920759
v -0.04416429 -0.00456738 0.07921856
v -0.04389911 -0.00470328 0.07915067
v -0.04387760 -0.00487727 0.07912105
v -0.04372918 -0.00482869 0.07891941
v -0.04379618 -0.00477034 0.07905125
v -0.03420644 -0.01060658 0.07457858
v -0.03407591 -0.01259124 0.07383346
v -0.03399997 -0.01320517 0.07444745
v -0.03430151 -0.01199591 0.07323819
v -0.03466981 -0.01143741 0.07267963
v -0.03509223 -0.00952172 0.07349371
v -0.03516972 -0.01093256 0.07217484
v -0.03578603 -0.01049679 0.07173907
v -0.03411138 -0.00921726 0.07591903
v -0.03644937 -0.00871646 0.07268851
v -0.03649997 -0.01014328 0.07138556
v -0.03728985 -0.00988287 0.07112509
v -0.03501474 -0.00811088 0.07481259
v -0.03401631 -0.00782794 0.07725942
v -0.03345763 -0.00588769 0.08176487
v -0.03811419 -0.00828802 0.07226002
v -0.03813171 -0.00972337 0.07096558
v -0.03899997 -0.00966960 0.07091188
v -0.03639882 -0.00728965 0.07399141
v -0.03493726 -0.00670004 0.07613152
v -0.03392130 -0.00643861 0.07859981
v -0.03988575 -0.00828802 0.07226002
v -0.03986823 -0.00972337 0.07096558
v -0.04071009 -0.00988287 0.07112509
v -0.03809660 -0.00685269 0.07355445
v -0.03634822 -0.00586283 0.07529431
v -0.03485977 -0.00528914 0.07745039
v -0.03382623 -0.00504929 0.07994025
v -0.03345811 -0.00525284 0.08170598
v -0.03350394 -0.00462103 0.08163428
v -0.04155057 -0.00871646 0.07268851
v -0.04149997 -0.01014328 0.07138556
v -0.04221391 -0.01049679 0.07173907
v -0.03990334 -0.00685269 0.07355445
v -0.03807902 -0.00541741 0.07484889
v -0.03629767 -0.00443602 0.07659727
v -0.03478229 -0.00387829 0.07876926
v -0.03373116 -0.00365990 0.08128064
v -0.03365623 -0.00371641 0.08150637
v -0.03384232 -0.00305706 0.08139079
v -0.04290765 -0.00952172 0.07349371
v -0.04283016 -0.01093256 0.07217484
v -0.04333007 -0.01143741 0.07267963
v -0.04160112 -0.00728965 0.07399141
v -0.03992092 -0.00541741 0.07484889
v -0.03806143 -0.00398207 0.07614332
v -0.03624707 -0.00300920 0.07790017
v -0.03470480 -0.00246745 0.08008819
v -0.03480798 -0.00127470 0.08095157
v -0.03527224 -0.00078739 0.08077734
v -0.03441530 -0.00182468 0.08111292
v -0.03409421 -0.00242299 0.08125954
v -0.04379349 -0.01060658 0.07457858
v -0.04369843 -0.01199597 0.07323819
v -0.04392397 -0.01259124 0.07383346
v -0.04399996 -0.01320517 0.07444745
v -0.04426825 -0.00958580 0.07806682
v -0.04298520 -0.00811088 0.07481259
v -0.04165172 -0.00586283 0.07529431
v -0.03993844 -0.00398207 0.07614332
v -0.03804391 -0.00254679 0.07743775
v -0.03619652 -0.00158238 0.07920312
v -0.03639656 -0.00006723 0.08040320
v -0.03703296 0.00013744 0.08021301
v -0.03580451 -0.00037908 0.08059310
v -0.04388856 -0.00921726 0.07591903
v -0.04306268 -0.00670004 0.07613152
v -0.04170227 -0.00443602 0.07659727
v -0.03995603 -0.00254679 0.07743775
v -0.03802633 -0.00111145 0.07873219
v -0.03836739 0.00020687 0.07985270
v -0.03910338 0.00005916 0.07967364
v -0.03769594 0.00022925 0.08002787
v -0.04398357 -0.00782794 0.07725942
v -0.04425293 -0.00725323 0.07875442
v -0.04314017 -0.00528920 0.07745039
v -0.04175287 -0.00300920 0.07790017
v -0.04239338 -0.00235444 0.07904481
v -0.04315280 -0.00354069 0.07895529
v -0.04155415 -0.00141031 0.07917493
v -0.03997361 -0.00111145 0.07873219
v -0.04067730 -0.00069480 0.07933515
v -0.03988766 -0.00023896 0.07949727
v -0.04407864 -0.00643861 0.07859981
v -0.04372918 -0.00482869 0.07891941
v -0.04412919 -0.00578487 0.07925009
v -0.04321765 -0.00387836 0.07876926
v -0.04496139 -0.01229208 0.07782191
v -0.04500472 -0.00970912 0.07847577
v -0.04508161 -0.00970143 0.07842504
v -0.04479432 -0.01230579 0.07790905
v -0.04491972 -0.00971323 0.07851195
v -0.04482948 -0.00971359 0.07853227
v -0.04460656 -0.01230227 0.07793003
v -0.04473716 -0.00971025 0.07853597
v -0.04464584 -0.00970328 0.07852303
v -0.04442489 -0.01228201 0.07788187
v -0.04455870 -0.00969291 0.07849389
v -0.04447871 -0.00967955 0.07844942
v -0.04432976 -0.01226288 0.07782226
v -0.04440861 -0.00966358 0.07839131
v -0.04423791 -0.01223474 0.07772529
v -0.04435074 -0.00964558 0.07832145
v -0.04430717 -0.00962615 0.07824224
v -0.04417461 -0.01220124 0.07760125
v -0.04427933 -0.00960600 0.07815635
v -0.04415029 -0.01216644 0.07746452
v -0.04426825 -0.00958580 0.07806682
v -0.04425293 -0.00725323 0.07875442
v -0.04427933 -0.00960600 0.07815635
v -0.04426825 -0.00958580 0.07806682
v -0.04428088 -0.00727564 0.07883960
v -0.04430717 -0.00962615 0.07824224
v -0.04432457 -0.00729525 0.07891863
v -0.04435074 -0.00964558 0.07832145
v -0.04438239 -0.00731146 0.07898879
v -0.04440861 -0.00966358 0.07839131
v -0.04445248 -0.00732368 0.07904773
v -0.04447871 -0.00967955 0.07844942
v -0.04455870 -0.00969291 0.07849389
v -0.04461944 -0.00733477 0.07912433
v -0.04464584 -0.00970328 0.07852303
v -0.04471057 -0.00733328 0.07913929
v -0.04473716 -0.00971025 0.07853597
v -0.04480278 -0.00732702 0.07913792
v -0.04482948 -0.00971359 0.07853227
v -0.04489278 -0.00731629 0.07912021
v -0.04491972 -0.00971323 0.07851195
v -0.04497766 -0.00730145 0.07908678
v -0.04500472 -0.00970912 0.07847577
v -0.04505437 -0.00728291 0.07903879
v -0.04508161 -0.00970143 0.07842504
v 0.04427719 -0.00533497 0.07945221
v 0.04458487 -0.00557113 0.07960581
v 0.04437822 -0.00501227 0.07939547
v 0.04444837 -0.00560260 0.07958668
v 0.04435616 -0.00562459 0.07954829
v 0.04426860 -0.00564611 0.07948780
v 0.04423058 -0.00534290 0.07942640
v 0.04419422 -0.00566518 0.07940912
v 0.04418432 -0.00535244 0.07939451
v 0.04413849 -0.00567973 0.07932054
v 0.04409998 -0.00569111 0.07922202
v 0.04404664 -0.00483197 0.07925426
v 0.04411864 -0.00448036 0.07919090
v 0.04398185 -0.00454760 0.07918065
v 0.04385727 -0.00461829 0.07912516
v 0.04383730 -0.00479198 0.07909566
v 0.04375463 -0.00468642 0.07902705
v 0.04368716 -0.00474554 0.07889628
v 0.04437249 -0.00877362 0.07845991
v 0.04426562 -0.00774699 0.07852685
v 0.04426038 -0.00969172 0.07796084
v 0.04478794 -0.00659072 0.07927161
v 0.04505705 -0.00757998 0.07888382
v 0.04483759 -0.00537723 0.07955485
v 0.04478502 -0.00932050 0.07854437
v 0.04495102 -0.00981796 0.07839018
v 0.04507297 -0.00980788 0.07831954
v 0.04481041 -0.00981945 0.07842558
v 0.04467415 -0.00981271 0.07842320
v 0.04469913 -0.00931752 0.07853901
v 0.04479032 -0.00822300 0.07882034
v 0.04484617 -0.00767028 0.07896173
v 0.04486858 -0.00711644 0.07910442
v 0.04474097 -0.00660759 0.07927650
v 0.04468929 -0.00662690 0.07927590
v 0.04463469 -0.00664711 0.07926887
v 0.04484349 -0.00712848 0.07910895
v 0.04481554 -0.00714105 0.07911241
v 0.04457932 -0.00666595 0.07925540
v 0.04452043 -0.00668383 0.07923382
v 0.04433971 -0.00723022 0.07891160
v 0.04409998 -0.00569111 0.07922202
v 0.04436087 -0.00774890 0.07875162
v 0.04457843 -0.00772989 0.07892328
v 0.04439675 -0.00616366 0.07936382
v 0.04426860 -0.00564611 0.07948780
v 0.04419422 -0.00566518 0.07940912
v 0.04430580 -0.00618750 0.07929158
v 0.04413849 -0.00567973 0.07932054
v 0.04426515 -0.00619703 0.07924693
v 0.04442971 -0.00952888 0.07835894
v 0.04456502 -0.00980127 0.07839375
v 0.04440921 -0.00977159 0.07829147
v 0.04462164 -0.00931180 0.07852131
v 0.04435682 -0.00950771 0.07827693
v 0.04430270 -0.00973326 0.07813996
v 0.04460638 -0.00906324 0.07857418
v 0.04445046 -0.00879455 0.07854419
v 0.04440420 -0.00878334 0.07849907
v 0.04461359 -0.00851917 0.07871431
v 0.04458212 -0.00851661 0.07870239
v 0.04455757 -0.00851416 0.07869142
v 0.04454940 -0.00799805 0.07883149
v 0.04443293 -0.00800788 0.07874834
v 0.04455500 -0.00720614 0.07907575
v 0.04459112 -0.00638503 0.07934731
v 0.04456794 -0.00584847 0.07951825
v 0.04458487 -0.00557113 0.07960581
v 0.04444837 -0.00560260 0.07958668
v 0.04435616 -0.00562459 0.07954829
v 0.04459923 -0.00812405 0.07881689
v 0.04441189 -0.00629985 0.07932138
v 0.04472333 -0.00561935 0.07956075
v 0.04472291 -0.00550479 0.07959187
v 0.04495102 -0.00981796 0.07839018
v 0.04477751 -0.01251107 0.07777822
v 0.04495060 -0.01249670 0.07769030
v 0.04507297 -0.00980788 0.07831954
v 0.04481041 -0.00981945 0.07842558
v 0.04458606 -0.01250725 0.07779753
v 0.04467415 -0.00981271 0.07842320
v 0.04456502 -0.00980127 0.07839375
v 0.04432255 -0.01247000 0.07769471
v 0.04440683 -0.01248711 0.07774865
v 0.04440921 -0.00977159 0.07829147
v 0.04425078 -0.01244938 0.07762444
v 0.04430270 -0.00973326 0.07813996
v 0.04415136 -0.01239711 0.07743060
v 0.04418522 -0.01242142 0.07752311
v 0.04426038 -0.00969172 0.07796084
v 0.04413777 -0.01237267 0.07733386
v 0.03402680 -0.02048707 0.08145678
v 0.03398448 -0.02036130 0.08202189
v 0.03404486 -0.02158796 0.08161872
v 0.03400743 -0.02034574 0.08138769
v 0.03400492 -0.02023983 0.08134925
v 0.03398448 -0.02036130 0.08202189
v 0.03400743 -0.02034574 0.08138769
v 0.03400284 -0.02013278 0.08129841
v 0.03398448 -0.02036130 0.08202189
v 0.03400492 -0.02023983 0.08134925
v 0.03399997 -0.01992624 0.08116853
v 0.03392422 -0.01913321 0.08242064
v 0.03398448 -0.02036130 0.08202189
v 0.03399997 -0.01992624 0.08116853
v 0.03398448 -0.02036130 0.08202189
v 0.03400284 -0.02013278 0.08129841
v 0.03386402 -0.01790374 0.08281511
v 0.03399997 -0.01320511 0.07444745
v 0.03345906 -0.00590652 0.08174598
v 0.03343707 -0.01189279 0.08278143
v 0.03306531 -0.00586087 0.08221197
v 0.03347301 -0.01801848 0.08329170
v 0.03349179 -0.01188451 0.08273774
v 0.03354048 -0.01187711 0.08268624
v 0.03315478 -0.00586152 0.08218348
v 0.03323739 -0.00586444 0.08213889
v 0.03331017 -0.00586951 0.08207976
v 0.03337061 -0.00587654 0.08200824
v 0.03357005 -0.01187956 0.08264750
v 0.03359556 -0.01188236 0.08260625
v 0.03341656 -0.00588524 0.08192682
v 0.03361678 -0.01188546 0.08256316
v 0.03386402 -0.01790374 0.08281511
v 0.03345906 -0.00590652 0.08174598
v 0.03344637 -0.00589538 0.08183836
v 0.03369951 -0.01489716 0.08284503
v 0.03360903 -0.01645314 0.08311456
v 0.03378307 -0.01717638 0.08298480
v 0.03365260 -0.01759392 0.08318001
v 0.03357601 -0.01797175 0.08325445
v 0.03369110 -0.01795744 0.08317971
v 0.03380411 -0.01774638 0.08301538
v 0.03384077 -0.01792210 0.08295142
v 0.03378164 -0.01794046 0.08307611
v 0.03352022 -0.00451416 0.08159929
v 0.03341656 -0.00588524 0.08192682
v 0.03344637 -0.00589538 0.08183836
v 0.03345906 -0.00590652 0.08174598
v 0.03313887 -0.00437724 0.08199214
v 0.03306531 -0.00586087 0.08221197
v 0.03315478 -0.00586152 0.08218348
v 0.03323739 -0.00586444 0.08213889
v 0.03339284 -0.00444275 0.08185589
v 0.03331017 -0.00586951 0.08207976
v 0.03337061 -0.00587654 0.08200824
v 0.03349423 -0.00381118 0.08175021
v 0.03377443 -0.00329316 0.08141314
v 0.03342306 -0.00309217 0.08174157
v 0.03364819 -0.00319493 0.08163154
v 0.03381443 -0.00270724 0.08152538
v 0.03413569 -0.00235689 0.08122205
v 0.03381466 -0.00211960 0.08150488
v 0.03401470 -0.00224417 0.08141332
v 0.03422772 -0.00184554 0.08130556
v 0.03458946 -0.00158310 0.08102083
v 0.03430116 -0.00131756 0.08126670
v 0.03447759 -0.00145817 0.08118969
v 0.03473156 -0.00113553 0.08107912
v 0.03510546 -0.00096768 0.08081942
v 0.03486347 -0.00067498 0.08103138
v 0.03501057 -0.00083040 0.08096659
v 0.03528141 -0.00058395 0.08086252
v 0.03565460 -0.00050213 0.08062446
v 0.03545242 -0.00018856 0.08081126
v 0.03557503 -0.00035516 0.08075636
v 0.03588193 -0.00015511 0.08065122
v 0.03621071 -0.00017309 0.08044189
v 0.03610974 0.00019823 0.08058816
v 0.03617751 0.00000145 0.08055418
v 0.03645479 0.00012144 0.08046680
v 0.03675109 0.00003982 0.08027589
v 0.03681999 0.00046825 0.08036857
v 0.03679788 0.00024209 0.08036422
v 0.03709137 0.00031535 0.08027905
v 0.03731745 0.00016900 0.08011192
v 0.03748857 0.00059871 0.08017992
v 0.03741210 0.00037184 0.08019000
v 0.03771412 0.00039911 0.08010888
v 0.03789800 0.00021149 0.07995349
v 0.03810048 0.00062178 0.08002156
v 0.03800672 0.00040386 0.08003306
v 0.03831040 0.00038797 0.07995736
v 0.03848093 0.00016921 0.07980340
v 0.03872126 0.00056105 0.07987314
v 0.03860664 0.00035136 0.07988590
v 0.03890663 0.00029564 0.07981646
v 0.03905570 0.00004916 0.07966369
v 0.03933000 0.00042378 0.07973891
v 0.03919649 0.00022171 0.07975149
v 0.03948831 0.00012968 0.07968896
v 0.03961378 -0.00014166 0.07953566
v 0.03992795 0.00021507 0.07961750
v 0.03977233 0.00002096 0.07963037
v 0.04005247 -0.00010430 0.07957512
v 0.04014897 -0.00039609 0.07942003
v 0.04050403 -0.00005676 0.07951045
v 0.04032528 -0.00024318 0.07952392
v 0.04059118 -0.00039719 0.07947593
v 0.04065686 -0.00070575 0.07931697
v 0.04105353 -0.00038551 0.07941788
v 0.04085093 -0.00056333 0.07943183
v 0.04118275 -0.00080454 0.07937812
v 0.04128718 -0.00119191 0.07919871
v 0.04173016 -0.00089755 0.07931858
v 0.04149979 -0.00106359 0.07933086
v 0.04183906 -0.00137764 0.07928419
v 0.04192888 -0.00182110 0.07909053
v 0.04240953 -0.00155020 0.07923734
v 0.04215365 -0.00170529 0.07924515
v 0.04245418 -0.00205618 0.07921230
v 0.04249697 -0.00252110 0.07900726
v 0.04302948 -0.00229806 0.07918310
v 0.04273909 -0.00242889 0.07918578
v 0.04299980 -0.00281048 0.07916611
v 0.04299002 -0.00327825 0.07894772
v 0.04355871 -0.00309569 0.07915729
v 0.04324114 -0.00320548 0.07915270
v 0.04344063 -0.00356954 0.07914578
v 0.04390174 -0.00372517 0.07915484
v 0.04364538 -0.00427973 0.07907390
v 0.04336875 -0.00399727 0.07891339
v 0.04368716 -0.00474554 0.07889628
v 0.04375463 -0.00468642 0.07902705
v 0.04338580 -0.00379515 0.07905054
v 0.04359507 -0.00388002 0.07914364
v 0.04345989 -0.00394940 0.07904738
v 0.04375231 -0.00380027 0.07917982
v 0.04377555 -0.00400537 0.07917523
v 0.04420632 -0.00439453 0.07916671
v 0.04387235 -0.00438011 0.07916617
v 0.04385727 -0.00461829 0.07912516
v 0.04398185 -0.00454760 0.07918065
v 0.04391956 -0.00433451 0.07918030
v 0.04411864 -0.00448036 0.07919090
v -0.03338664 -0.00554132 0.08195072
v -0.03341507 -0.00586641 0.08194577
v -0.03336912 -0.00585765 0.08202725
v -0.03340822 -0.00554705 0.08190929
v -0.03345811 -0.00525284 0.08170598
v -0.03345763 -0.00588769 0.08176487
v -0.03344494 -0.00587654 0.08185726
v -0.03335767 -0.00475901 0.08192563
v -0.03350394 -0.00462103 0.08163428
v -0.03333842 -0.00508195 0.08197051
v -0.03307980 -0.00491714 0.08210194
v -0.03340375 -0.00432360 0.08185911
v -0.03365623 -0.00371641 0.08150637
v -0.03318965 -0.00402075 0.08195114
v -0.03347909 -0.00386083 0.08178126
v -0.03358101 -0.00341135 0.08169764
v -0.03384232 -0.00305706 0.08139079
v -0.03341412 -0.00309485 0.08176535
v -0.03367787 -0.00307500 0.08162921
v -0.03381037 -0.00269467 0.08154582
v -0.03409421 -0.00242299 0.08125954
v -0.03371012 -0.00231498 0.08158040
v -0.03394454 -0.00237256 0.08146923
v -0.03407359 -0.00210410 0.08140081
v -0.03441530 -0.00182468 0.08111292
v -0.03399366 -0.00176549 0.08143037
v -0.03424167 -0.00179893 0.08131730
v -0.03440183 -0.00154632 0.08124226
v -0.03480798 -0.00127470 0.08095157
v -0.03433668 -0.00124735 0.08126920
v -0.03460532 -0.00126386 0.08115237
v -0.03474467 -0.00077145 0.08109730
v -0.03479897 -0.00103366 0.08107030
v -0.03503739 -0.00078078 0.08097529
v -0.03527224 -0.00078739 0.08077734
v -0.03520745 -0.00035079 0.08091914
v -0.03525978 -0.00057992 0.08088982
v -0.03553146 -0.00036395 0.08079111
v -0.03580451 -0.00037908 0.08059310
v -0.03571897 0.00000685 0.08073759
v -0.03577983 -0.00019706 0.08070445
v -0.03608238 -0.00002565 0.08060383
v -0.03639656 -0.00006723 0.08040320
v -0.03626900 0.00029226 0.08055680
v -0.03635019 0.00010148 0.08051908
v -0.03662681 0.00021029 0.08043515
v -0.03703296 0.00013744 0.08021301
v -0.03685414 0.00049917 0.08037847
v -0.03696089 0.00030757 0.08033639
v -0.03728109 0.00037515 0.08024632
v -0.03769594 0.00022925 0.08002787
v -0.03752750 0.00062530 0.08018970
v -0.03762781 0.00041620 0.08015203
v -0.03798413 0.00042718 0.08005934
v -0.03836739 0.00020687 0.07985270
v -0.03827422 0.00063680 0.07999926
v -0.03833419 0.00040904 0.07997226
v -0.03873944 0.00035199 0.07987564
v -0.03910338 0.00005916 0.07967364
v -0.03912079 0.00050381 0.07980477
v -0.03912144 0.00026659 0.07978940
v -0.03957331 0.00012264 0.07969254
v -0.03988766 -0.00023896 0.07949727
v -0.04005753 0.00018415 0.07961416
v -0.03997641 -0.00004430 0.07961159
v -0.04039734 -0.00025773 0.07953286
v -0.04067730 -0.00069480 0.07933515
v -0.04092419 -0.00027750 0.07946103
v -0.04079979 -0.00050480 0.07946234
v -0.04122328 -0.00080974 0.07939457
v -0.04155415 -0.00141031 0.07917493
v -0.04179388 -0.00092732 0.07933282
v -0.04166853 -0.00118959 0.07932978
v -0.04212218 -0.00164467 0.07927185
v -0.04239338 -0.00235444 0.07904481
v -0.04272317 -0.00188071 0.07923030
v -0.04254180 -0.00213933 0.07922691
v -0.04296511 -0.00272954 0.07919186
v -0.04358530 -0.00311291 0.07918030
v -0.04357260 -0.00408405 0.07909840
v -0.04372918 -0.00482869 0.07891941
v -0.04315280 -0.00354069 0.07895529
v -0.03324639 -0.00568330 0.08212697
v -0.03315317 -0.00584263 0.08220243
v -0.03306365 -0.00584197 0.08223092
v -0.03323578 -0.00584555 0.08215785
v -0.03330862 -0.00585061 0.08209878
v -0.03324657 -0.00523019 0.08206808
v -0.04305118 -0.00314516 0.07909518
v -0.04333716 -0.00334775 0.07917243
v -0.04364466 -0.00355792 0.07920283
v -0.04425340 -0.00448191 0.07919418
v -0.04396438 -0.00423592 0.07921034
v -0.04366743 -0.00400692 0.07916754
v -0.04416429 -0.00456738 0.07921856
v -0.03339457 -0.00523984 0.08190560
v -0.04331064 -0.00313061 0.07919901
v -0.04336351 -0.00356561 0.07913035
v -0.04386878 -0.00451046 0.07916843
v -0.04402512 -0.00463361 0.07920759
v -0.04389911 -0.00470328 0.07915067
v -0.04377472 -0.00467986 0.07906293
v -0.04379618 -0.00477034 0.07905125
v -0.03361690 -0.01191288 0.08258670
v -0.03341507 -0.00586641 0.08194577
v -0.03344494 -0.00587654 0.08185726
v -0.03345763 -0.00588769 0.08176487
v -0.03386580 -0.01797753 0.08283990
v -0.03359568 -0.01190978 0.08262979
v -0.03336912 -0.00585765 0.08202725
v -0.03357011 -0.01190704 0.08267104
v -0.03354054 -0.01190459 0.08270984
v -0.03306365 -0.00584197 0.08223092
v -0.03315317 -0.00584263 0.08220243
v -0.03323578 -0.00584555 0.08215785
v -0.03330862 -0.00585061 0.08209878
v -0.03349184 -0.01191210 0.08276128
v -0.03343713 -0.01192051 0.08280497
v -0.03347456 -0.01809358 0.08331656
v -0.03370046 -0.01494795 0.08286958
v -0.03361028 -0.01651608 0.08313947
v -0.03378462 -0.01724475 0.08300971
v -0.03365415 -0.01766568 0.08320492
v -0.03369313 -0.01803219 0.08320438
v -0.03357809 -0.01804673 0.08327913
v -0.03380584 -0.01781916 0.08304029
v -0.03384262 -0.01799625 0.08297616
v -0.03378355 -0.01801490 0.08310079
v -0.03398483 -0.02039700 0.08204698
v -0.03400778 -0.02045303 0.08148336
v -0.03401339 -0.02064532 0.08152478
v -0.03398483 -0.02039700 0.08204698
v -0.03400361 -0.02026516 0.08140832
v -0.03400778 -0.02045303 0.08148336
v -0.03398483 -0.02039700 0.08204698
v -0.03400099 -0.02008759 0.08130210
v -0.03400361 -0.02026516 0.08140832
v -0.03398483 -0.02039700 0.08204698
v -0.03401339 -0.02064532 0.08152478
v -0.03404450 -0.02160483 0.08164483
v -0.03392529 -0.01918792 0.08244532
v -0.03400021 -0.01999521 0.08123052
v -0.03400099 -0.02008759 0.08130210
v -0.03399997 -0.01990866 0.08115088
v -0.03392529 -0.01918792 0.08244532
v -0.03400099 -0.02008759 0.08130210
v -0.03386580 -0.01797753 0.08283990
v -0.03399997 -0.01320517 0.07444745
v -0.03345763 -0.00588769 0.08176487
v -0.03967505 -0.02001869 0.07912403
v -0.03536230 -0.02159577 0.08112972
v -0.03958040 -0.01958417 0.07920801
v -0.03541016 -0.02172750 0.08111852
v -0.03544992 -0.02185916 0.08108925
v -0.03548085 -0.02198821 0.08104252
v -0.04233813 -0.01845604 0.07786595
v -0.04210066 -0.01809513 0.07802027
v -0.04444169 -0.01632094 0.07686311
v -0.04453438 -0.01641815 0.07683014
v -0.04469799 -0.01668667 0.07668942
v -0.04462140 -0.01651567 0.07677865
v 0.04465347 -0.01725971 0.07645821
v 0.04112493 -0.01934361 0.07834434
v 0.04471653 -0.01733464 0.07639062
v 0.04458320 -0.01718264 0.07651656
v 0.04449921 -0.01709467 0.07656496
v 0.04441267 -0.01700317 0.07659769
v 0.04109334 -0.01922827 0.07839334
v 0.04105430 -0.01911020 0.07842767
v 0.04098480 -0.01893514 0.07844674
v 0.03911268 -0.02008432 0.07939684
v 0.04109334 -0.01922827 0.07839334
v 0.04105430 -0.01911020 0.07842767
v 0.03917002 -0.02025103 0.07932966
v 0.04112493 -0.01934361 0.07834434
v 0.04098057 -0.01894426 0.07845002
v 0.03906309 -0.01996487 0.07942503
v 0.03901124 -0.01985138 0.07944077
v 0.04098480 -0.01893514 0.07844674
v 0.03535693 -0.02156203 0.08110833
v 0.03906309 -0.01996487 0.07942503
v 0.03901124 -0.01985138 0.07944077
v 0.03540694 -0.02169710 0.08109837
v 0.03911268 -0.02008432 0.07939684
v 0.03544849 -0.02183228 0.08106940
v 0.03917002 -0.02025103 0.07932966
v 0.03548073 -0.02196478 0.08102196
v -0.02847945 0.07295781 -0.01899462
v -0.02900004 0.07236486 -0.03244894
v -0.02900004 0.06593418 -0.02601826
v -0.02900540 0.07281392 -0.03304344
v -0.02900284 0.07270741 -0.03286767
v -0.02847945 0.07295781 -0.01899462
v -0.02900284 0.07270741 -0.03286767
v -0.02900111 0.07258635 -0.03269940
v -0.02847945 0.07295781 -0.01899462
v -0.02900111 0.07258635 -0.03269940
v -0.02900004 0.07236486 -0.03244894
v -0.03908246 0.06704610 -0.02490627
v -0.03892403 0.06532025 -0.02540433
v -0.03900003 0.06593418 -0.02601826
v -0.03885000 0.06616330 -0.02356058
v -0.03869849 0.06472498 -0.02480900
v -0.03833013 0.06416642 -0.02425050
v -0.03904157 0.06712311 -0.02335989
v -0.03882169 0.06731092 -0.02183806
v -0.03812563 0.06515806 -0.02255535
v -0.03783023 0.06366157 -0.02374565
v -0.03721398 0.06322580 -0.02330988
v -0.03699749 0.06436032 -0.02175760
v -0.03650003 0.06287235 -0.02295637
v -0.03820621 0.06646007 -0.02117055
v -0.03843158 0.06760263 -0.02029913
v -0.03557586 0.06384813 -0.02124541
v -0.03571009 0.06261187 -0.02269595
v -0.03486824 0.06245237 -0.02253645
v -0.03705602 0.06564676 -0.02035725
v -0.03400003 0.06367164 -0.02106893
v -0.03400003 0.06239867 -0.02248269
v -0.03313177 0.06245237 -0.02253645
v -0.03560662 0.06512457 -0.01983505
v -0.03711450 0.06693315 -0.01895689
v -0.03790277 0.06797301 -0.01881951
v -0.03242415 0.06384813 -0.02124541
v -0.03228992 0.06261187 -0.02269595
v -0.03150004 0.06287235 -0.02295637
v -0.03400003 0.06494462 -0.01965510
v -0.03563743 0.06640100 -0.01842468
v -0.03717303 0.06821960 -0.01755654
v -0.03724700 0.06841087 -0.01741093
v -0.03100258 0.06436032 -0.02175760
v -0.03078609 0.06322580 -0.02330988
v -0.03016978 0.06366157 -0.02374565
v -0.03239339 0.06512457 -0.01983505
v -0.03400003 0.06621760 -0.01824134
v -0.03566819 0.06767743 -0.01701438
v -0.03645431 0.06891608 -0.01609873
v -0.02987438 0.06515806 -0.02255535
v -0.02966988 0.06416642 -0.02425050
v -0.03094404 0.06564676 -0.02035725
v -0.03236263 0.06640100 -0.01842468
v -0.03400003 0.06749057 -0.01682752
v -0.03569895 0.06895387 -0.01560401
v -0.03562498 0.06942164 -0.01504284
v -0.02915006 0.06616330 -0.02356058
v -0.02930158 0.06472498 -0.02480900
v -0.02907598 0.06532025 -0.02540433
v -0.02900004 0.06593418 -0.02601826
v -0.02979385 0.06646007 -0.02117055
v -0.03088551 0.06693321 -0.01895689
v -0.03233188 0.06767743 -0.01701438
v -0.03400003 0.06876361 -0.01541376
v -0.03492367 0.06983488 -0.01433885
v -0.02905535 0.06748491 -0.02219539
v -0.02971327 0.06776207 -0.01978582
v -0.03082698 0.06821960 -0.01755654
v -0.03230112 0.06895387 -0.01560401
v -0.03400003 0.07003659 -0.01399993
v -0.03423923 0.07022541 -0.01379674
v -0.03368461 0.07053273 -0.01346069
v -0.02896064 0.06880658 -0.02083027
v -0.02847945 0.07295781 -0.01899462
v -0.02963274 0.06906408 -0.01840102
v -0.03076851 0.06950604 -0.01615619
v -0.03227031 0.07023030 -0.01419365
v -0.03190863 0.07146471 -0.01301527
v -0.03148299 0.07167750 -0.01306259
v -0.03233492 0.07124829 -0.01302880
v -0.03275460 0.07103109 -0.01310217
v -0.03316259 0.07081520 -0.01322764
v -0.02886599 0.07012820 -0.01946514
v -0.02955222 0.07036608 -0.01701623
v -0.03070998 0.07079249 -0.01475584
v -0.03025192 0.07226711 -0.01362347
v -0.02984571 0.07245135 -0.01400983
v -0.03066468 0.07207423 -0.01335060
v -0.03106534 0.07188212 -0.01317387
v -0.02877128 0.07144981 -0.01809996
v -0.02853161 0.07297515 -0.01739633
v -0.02947163 0.07166808 -0.01563149
v -0.02877038 0.07289838 -0.01612567
v -0.02908921 0.07277500 -0.01521635
v -0.02946317 0.07261896 -0.01451539
v -0.03905498 0.06707429 -0.02567505
v -0.03908246 0.06704610 -0.02490627
v -0.03900003 0.06593418 -0.02601826
v -0.03902751 0.06710153 -0.02644389
v -0.03900003 0.06708103 -0.02716505
v -0.03899997 0.06712776 -0.02721273
v -0.03902751 0.06710153 -0.02644389
v -0.03900003 0.06708103 -0.02716505
v 0.03903073 0.06724369 -0.02649670
v 0.03899991 0.06727391 -0.02735865
v 0.03899991 0.06723183 -0.02731585
v 0.03903073 0.06724369 -0.02649670
v 0.03899991 0.06723183 -0.02731585
v 0.03899991 0.06593424 -0.02601826
v 0.03906148 0.06721222 -0.02563482
v 0.03909224 0.06717950 -0.02477300
v 0.03909224 0.06717950 -0.02477300
v 0.03899991 0.06593424 -0.02601826
v 0.03892397 0.06532031 -0.02540433
v 0.02914935 0.06617152 -0.02355206
v 0.02907586 0.06532031 -0.02540433
v 0.02899992 0.06593424 -0.02601826
v 0.02930146 0.06472504 -0.02480900
v 0.02966982 0.06416648 -0.02425050
v 0.02987378 0.06516623 -0.02254670
v 0.03016972 0.06366163 -0.02374565
v 0.03078597 0.06322586 -0.02330988
v 0.02905410 0.06750142 -0.02217841
v 0.03100210 0.06436836 -0.02174890
v 0.03149992 0.06287240 -0.02295637
v 0.02979272 0.06647628 -0.02115333
v 0.02895879 0.06883126 -0.02080482
v 0.02847540 0.07301157 -0.01894092
v 0.03242385 0.06385612 -0.02123665
v 0.03228980 0.06261193 -0.02269595
v 0.03313165 0.06245243 -0.02253645
v 0.03094321 0.06566280 -0.02033984
v 0.02971166 0.06778639 -0.01975995
v 0.02886348 0.07016110 -0.01943117
v 0.03399991 0.06367963 -0.02106010
v 0.03399991 0.06239873 -0.02248269
v 0.03486818 0.06245243 -0.02253645
v 0.03239291 0.06514048 -0.01981753
v 0.03088432 0.06695723 -0.01893079
v 0.02963060 0.06909650 -0.01836657
v 0.02876824 0.07149094 -0.01805752
v 0.02847003 0.07303231 -0.01821976
v 0.02851247 0.07303148 -0.01749986
v 0.03557598 0.06385612 -0.02123665
v 0.03571003 0.06261193 -0.02269595
v 0.03649991 0.06287240 -0.02295637
v 0.03399991 0.06496053 -0.01963752
v 0.03236198 0.06642484 -0.01839840
v 0.03082543 0.06825166 -0.01752173
v 0.02954959 0.07040661 -0.01697319
v 0.02867293 0.07282084 -0.01668387
v 0.02862131 0.07300132 -0.01671236
v 0.02880346 0.07293695 -0.01594072
v 0.03699773 0.06436836 -0.02174890
v 0.03721386 0.06322586 -0.02330988
v 0.03783017 0.06366163 -0.02374565
v 0.03560692 0.06514048 -0.01981753
v 0.03399991 0.06624144 -0.01821494
v 0.03233098 0.06770920 -0.01697927
v 0.03076654 0.06954610 -0.01611268
v 0.02946853 0.07171672 -0.01557981
v 0.02952384 0.07264500 -0.01436072
v 0.02983790 0.07250815 -0.01395601
v 0.02925693 0.07275760 -0.01480513
v 0.02903503 0.07284772 -0.01527863
v 0.03812605 0.06516623 -0.02254670
v 0.03833007 0.06416648 -0.02425050
v 0.03705662 0.06566280 -0.02033984
v 0.03563791 0.06642484 -0.01839840
v 0.03399991 0.06752234 -0.01679235
v 0.03230005 0.06899362 -0.01556015
v 0.03070765 0.07084053 -0.01470363
v 0.03104436 0.07194751 -0.01311033
v 0.03150790 0.07172226 -0.01298433
v 0.03060400 0.07215815 -0.01331776
v 0.03019905 0.07234627 -0.01360338
v 0.03885048 0.06617158 -0.02355206
v 0.03869837 0.06472504 -0.02480900
v 0.03902387 0.06727522 -0.02300387
v 0.03820711 0.06647634 -0.02115333
v 0.03872984 0.06751072 -0.02127128
v 0.03825008 0.06785446 -0.01959872
v 0.03711551 0.06695723 -0.01893079
v 0.03760325 0.06828933 -0.01800525
v 0.03566884 0.06770920 -0.01697927
v 0.03399991 0.06880325 -0.01536977
v 0.03477406 0.07000583 -0.01411449
v 0.03581637 0.06940311 -0.01516133
v 0.03226906 0.07027798 -0.01414102
v 0.03312045 0.07091021 -0.01313233
v 0.03391063 0.07048690 -0.01350092
v 0.03250867 0.07122719 -0.01297509
v 0.03198248 0.07148945 -0.01293802
v 0.03717440 0.06825166 -0.01752173
v 0.03679549 0.06880795 -0.01651400
v 0.03569978 0.06899362 -0.01556015
v 0.03399991 0.07008415 -0.01394718
v 0.02899992 0.07243883 -0.03252285
v 0.02847540 0.07301157 -0.01894092
v 0.02899992 0.06593424 -0.02601826
v 0.02900516 0.07288092 -0.03310638
v 0.02847540 0.07301157 -0.01894092
v 0.02900153 0.07270586 -0.03283381
v 0.02900034 0.07257866 -0.03267365
v 0.02900034 0.07257866 -0.03267365
v 0.02847540 0.07301157 -0.01894092
v 0.02899992 0.07243883 -0.03252285
v 0.03400307 -0.02205061 0.08170562
v 0.03548073 -0.02196478 0.08102196
v 0.03544849 -0.02183228 0.08106940
v 0.03540694 -0.02169710 0.08109837
v 0.03535693 -0.02156203 0.08110833
v 0.03396087 -0.02218967 0.08173537
v 0.03390896 -0.02232748 0.08175390
v 0.03380954 -0.02254295 0.08176022
v 0.03381252 -0.01856243 0.08287662
v 0.03384077 -0.01792210 0.08295142
v 0.03378164 -0.01794046 0.08307611
v 0.03369110 -0.01795744 0.08317971
v 0.03357601 -0.01797175 0.08325445
v 0.03384679 -0.01855182 0.08281534
v 0.03386402 -0.01790374 0.08281511
v 0.03392422 -0.01913321 0.08242064
v 0.03384298 -0.01917725 0.08267819
v 0.03380954 -0.02254295 0.08176022
v 0.03398448 -0.02036130 0.08202189
v 0.03398489 -0.02134835 0.08190429
v 0.03404486 -0.02158796 0.08161872
v 0.03395664 -0.02146160 0.08193069
v 0.03390896 -0.02232748 0.08175390
v 0.03396087 -0.02218967 0.08173537
v 0.03400307 -0.02205061 0.08170562
v 0.03404068 -0.02181279 0.08165472
v 0.03402626 -0.02193868 0.08167952
v -0.03384828 -0.01861661 0.08283990
v -0.03384262 -0.01799625 0.08297616
v -0.03386580 -0.01797753 0.08283990
v -0.03392529 -0.01918792 0.08244532
v -0.03381401 -0.01862734 0.08290112
v -0.03378355 -0.01801490 0.08310079
v -0.03369313 -0.01803219 0.08320438
v -0.03357809 -0.01804673 0.08327913
v -0.03384417 -0.01923257 0.08270275
v -0.03381007 -0.02257156 0.08177900
v -0.03398483 -0.02039700 0.08204698
v -0.03398317 -0.02139008 0.08192896
v -0.03404450 -0.02160483 0.08164483
v -0.03402268 -0.02198749 0.08170604
v -0.03399997 -0.02209192 0.08172929
v -0.03403782 -0.02187031 0.08168399
v -0.03390109 -0.02237612 0.08177512
v -0.03395622 -0.02223289 0.08175778
v -0.03390109 -0.02237612 0.08177512
v -0.03548085 -0.02198821 0.08104252
v -0.03381007 -0.02257156 0.08177900
v -0.03395622 -0.02223289 0.08175778
v -0.03399997 -0.02209192 0.08172929
v -0.03536230 -0.02159577 0.08112972
v -0.03541016 -0.02172750 0.08111852
v -0.03544992 -0.02185916 0.08108925
v -0.02865242 0.07318753 -0.02602624
v -0.02825558 0.07335644 -0.01900297
v -0.02817195 0.07340103 -0.01900607
v -0.02832937 0.07329690 -0.01900023
v -0.02839058 0.07322448 -0.01899796
v -0.02862536 0.07322597 -0.02611351
v -0.02867823 0.07314616 -0.02602487
v -0.02843701 0.07314181 -0.01899623
v -0.02859389 0.07326221 -0.02621746
v -0.02874577 0.07323080 -0.03430861
v -0.02869975 0.07310271 -0.02602362
v -0.02900540 0.07281392 -0.03304344
v -0.02847945 0.07295781 -0.01899462
v -0.02846699 0.07305181 -0.01899510
v -0.02883440 0.07305800 -0.02963042
v -0.02881234 0.07317602 -0.03196889
v -0.02888041 0.07314181 -0.03386467
v -0.02894335 0.07300674 -0.03250521
v -0.02897524 0.07299488 -0.03342455
v -0.02899974 0.07290333 -0.03321707
v -0.02853161 0.07297515 -0.01739633
v -0.02843701 0.07314181 -0.01899623
v -0.02846699 0.07305181 -0.01899510
v -0.02823579 0.07334673 -0.01732826
v -0.02817195 0.07340103 -0.01900607
v -0.02825558 0.07335644 -0.01900297
v -0.03045332 0.07228446 -0.01314365
v -0.03001350 0.07249253 -0.01345962
v -0.03025192 0.07226711 -0.01362347
v -0.03066468 0.07207423 -0.01335060
v -0.03093105 0.07205694 -0.01291084
v -0.03106534 0.07188212 -0.01317387
v -0.03143501 0.07181519 -0.01276034
v -0.03148299 0.07167750 -0.01306259
v -0.02843123 0.07319945 -0.01736521
v -0.02832937 0.07329690 -0.01900023
v -0.02839058 0.07322448 -0.01899796
v -0.02849870 0.07316726 -0.01686626
v -0.02877038 0.07289838 -0.01612567
v -0.02841949 0.07325053 -0.01631098
v -0.02863210 0.07310497 -0.01621967
v -0.02877074 0.07304090 -0.01573616
v -0.02908921 0.07277500 -0.01521635
v -0.02873396 0.07309716 -0.01532536
v -0.02894169 0.07296228 -0.01527261
v -0.02913159 0.07287496 -0.01486146
v -0.02946317 0.07261896 -0.01451539
v -0.02915000 0.07289963 -0.01449060
v -0.02933162 0.07278275 -0.01450616
v -0.02953177 0.07269006 -0.01420956
v -0.02984571 0.07245135 -0.01400983
v -0.02958333 0.07269531 -0.01389008
v -0.02973550 0.07259541 -0.01395452
v -0.02993565 0.07250201 -0.01374125
v -0.03194373 0.07154059 -0.01286262
v -0.03190863 0.07146471 -0.01301527
v -0.03195345 0.07156437 -0.01269102
v -0.03216707 0.07143080 -0.01286005
v -0.03233492 0.07124829 -0.01302880
v -0.03247475 0.07130980 -0.01270169
v -0.03241628 0.07130753 -0.01287561
v -0.03263676 0.07119774 -0.01290601
v -0.03275460 0.07103109 -0.01310217
v -0.03298735 0.07105654 -0.01279026
v -0.03288114 0.07107514 -0.01295799
v -0.03309530 0.07096701 -0.01301759
v -0.03316259 0.07081520 -0.01322764
v -0.03348451 0.07080811 -0.01294344
v -0.03333234 0.07084655 -0.01309847
v -0.03360682 0.07070618 -0.01321154
v -0.03368461 0.07053273 -0.01346069
v -0.03412097 0.07048624 -0.01323223
v -0.03391003 0.07054984 -0.01336079
v -0.03420138 0.07039839 -0.01352798
v -0.03423923 0.07022541 -0.01379674
v -0.03479731 0.07013940 -0.01365303
v -0.03452414 0.07022911 -0.01374089
v -0.03488427 0.07003843 -0.01401305
v -0.03492367 0.06983488 -0.01433885
v -0.03542786 0.06981146 -0.01415210
v -0.03518271 0.06987887 -0.01426649
v -0.03555411 0.06967836 -0.01461744
v -0.03562498 0.06942164 -0.01504284
v -0.03619825 0.06940501 -0.01490521
v -0.03591549 0.06948137 -0.01499849
v -0.03635740 0.06923776 -0.01552450
v -0.03645431 0.06891608 -0.01609873
v -0.03697383 0.06898951 -0.01585239
v -0.03671473 0.06903827 -0.01600533
v -0.03704935 0.06884938 -0.01650756
v -0.03765660 0.06861865 -0.01688694
v -0.03969061 0.06750309 -0.02418559
v -0.03984683 0.06745153 -0.02491843
v -0.03980970 0.06745147 -0.02344697
v -0.03714627 0.06865304 -0.01697170
v -0.03724700 0.06841087 -0.01741093
v -0.03744935 0.06862074 -0.01718515
v -0.03776526 0.06853520 -0.01739841
v -0.03842896 0.06819462 -0.01836925
v -0.03785175 0.06821483 -0.01838141
v -0.03782343 0.06840395 -0.01791101
v -0.03790277 0.06797301 -0.01881951
v -0.03813695 0.06832885 -0.01813852
v -0.03800481 0.06811720 -0.01874333
v -0.03830343 0.06823605 -0.01850479
v -0.03817182 0.06800937 -0.01916795
v -0.03843158 0.06760263 -0.02029913
v -0.03848564 0.06813436 -0.01893502
v -0.03911966 0.06781470 -0.02013635
v -0.03843361 0.06783729 -0.01991343
v -0.03848475 0.06801354 -0.01949584
v -0.03881531 0.06795042 -0.01981228
v -0.03855150 0.06775826 -0.02029216
v -0.03894275 0.06787937 -0.02019810
v -0.03873574 0.06786262 -0.02025604
v -0.03866022 0.06768417 -0.02067434
v -0.03882169 0.06731092 -0.02183806
v -0.03906071 0.06781375 -0.02058774
v -0.03884893 0.06755197 -0.02144795
v -0.03894913 0.06773269 -0.02103042
v -0.03929579 0.06768381 -0.02150380
v -0.03960567 0.06755250 -0.02199310
v -0.03900450 0.06743681 -0.02228039
v -0.03904157 0.06712311 -0.02335989
v -0.03893971 0.06748574 -0.02190095
v -0.03939187 0.06763130 -0.02196764
v -0.03946042 0.06759434 -0.02235645
v -0.03910261 0.06735706 -0.02304357
v -0.03926450 0.06753504 -0.02271002
v -0.03913283 0.06732910 -0.02339369
v -0.03955715 0.06754380 -0.02307170
v -0.03959089 0.06752723 -0.02343094
v -0.03933441 0.06748837 -0.02341616
v -0.03920167 0.06736296 -0.02377742
v -0.03920781 0.06734114 -0.02454948
v -0.03917187 0.06731283 -0.02489954
v -0.03923326 0.06738519 -0.02489906
v -0.03912520 0.06723016 -0.02490097
v -0.03909504 0.06714016 -0.02490323
v -0.03908246 0.06704610 -0.02490627
v -0.03924739 0.06738263 -0.02454882
v -0.03741019 0.06869590 -0.01694077
v -0.03748542 0.06852930 -0.01743102
v -0.03799104 0.06830585 -0.01827102
v -0.03807151 0.06825858 -0.01845270
v -0.03814977 0.06821244 -0.01863545
v -0.03823786 0.06816035 -0.01884871
v -0.03832304 0.06810981 -0.01906311
v -0.03861480 0.06793558 -0.01987397
v -0.03884732 0.06779491 -0.02064156
v -0.03905445 0.06766772 -0.02148461
v -0.03910189 0.06763821 -0.02171295
v -0.03914570 0.06761080 -0.02194207
v -0.03917938 0.06758958 -0.02213346
v -0.03921043 0.06756985 -0.02232527
v -0.03930425 0.06750887 -0.02306276
v -0.03938275 0.06749427 -0.02360838
v -0.03951305 0.06752198 -0.02361744
v -0.03938782 0.06747919 -0.02398109
v -0.03936690 0.06747013 -0.02398198
v -0.03951734 0.06751012 -0.02419024
v -0.03940898 0.06748723 -0.02398020
v -0.03943055 0.06749439 -0.02397930
v -0.03956305 0.06751412 -0.02418899
v -0.03960698 0.06751406 -0.02418786
v -0.03964936 0.06751030 -0.02418673
v -0.03912460 0.06720316 -0.02434170
v -0.03934895 0.06745439 -0.02437144
v -0.03928828 0.06741702 -0.02454829
v -0.03933006 0.06744527 -0.02454787
v -0.03951275 0.06750953 -0.02436888
v -0.03949940 0.06751376 -0.02472537
v -0.03939104 0.06748920 -0.02490079
v -0.03948175 0.06751704 -0.02490299
v -0.03930717 0.06744474 -0.02489948
v -0.03955191 0.06752026 -0.02472621
v -0.03957611 0.06752723 -0.02490597
v -0.03960835 0.06752103 -0.02472722
v -0.03976196 0.06749391 -0.02491384
v -0.03967064 0.06751942 -0.02490967
v -0.03804761 0.06808966 -0.01884907
v -0.03891837 0.06750154 -0.02178740
v -0.03934347 0.06747233 -0.02369958
v -0.03921878 0.06735670 -0.02416348
v -0.03927493 0.06740593 -0.02426731
v -0.03965055 0.06761276 -0.02865970
v -0.03975349 0.06754297 -0.02749365
v -0.03958070 0.06763470 -0.02851945
v -0.03970664 0.06758463 -0.02878135
v -0.03910642 0.06723254 -0.02528572
v -0.03912520 0.06723016 -0.02490097
v -0.03909504 0.06714016 -0.02490323
v -0.03908246 0.06704610 -0.02490627
v -0.03905498 0.06707429 -0.02567505
v -0.03912466 0.06727164 -0.02528494
v -0.03917187 0.06731283 -0.02489954
v -0.03914654 0.06730967 -0.02528434
v -0.03965991 0.06754076 -0.02555406
v -0.03984683 0.06745153 -0.02491843
v -0.03976196 0.06749391 -0.02491384
v -0.03967064 0.06751942 -0.02490967
v -0.03980016 0.06749856 -0.02620601
v -0.03939574 0.06760972 -0.02750039
v -0.03932744 0.06758779 -0.02741408
v -0.03914242 0.06749260 -0.02770596
v -0.03946089 0.06762111 -0.02759689
v -0.03925031 0.06757920 -0.02791607
v -0.03952330 0.06762349 -0.02770364
v -0.03957176 0.06761944 -0.02779585
v -0.03935122 0.06762433 -0.02809894
v -0.03947377 0.06764483 -0.02831912
v -0.03930968 0.06745785 -0.02509188
v -0.03957611 0.06752723 -0.02490597
v -0.03948175 0.06751704 -0.02490299
v -0.03939104 0.06748920 -0.02490079
v -0.03930717 0.06744474 -0.02489948
v -0.03923326 0.06738519 -0.02489906
v -0.03917258 0.06734681 -0.02528393
v -0.03939503 0.06751680 -0.02541553
v -0.03910297 0.06732296 -0.02618324
v -0.03902751 0.06710153 -0.02644389
v -0.03911674 0.06730937 -0.02579873
v -0.03929722 0.06751984 -0.02631318
v -0.03931105 0.06750631 -0.02592849
v -0.03909605 0.06732970 -0.02637553
v -0.03957706 0.06756806 -0.02606576
v -0.03910678 0.06736785 -0.02660286
v -0.03935074 0.06756609 -0.02677023
v -0.03957009 0.06757485 -0.02625811
v -0.03909301 0.06738096 -0.02698743
v -0.03899997 0.06712776 -0.02721273
v -0.03959661 0.06757909 -0.02648729
v -0.03913569 0.06744086 -0.02705800
v -0.03912413 0.06745159 -0.02737987
v -0.03901445 0.06725311 -0.02735114
v -0.03906232 0.06738054 -0.02751773
v -0.03957325 0.06760114 -0.02713114
v -0.03956156 0.06761193 -0.02745312
v -0.03959298 0.06760752 -0.02749669
v -0.03923368 0.06743448 -0.02560561
v -0.03903549 0.06728529 -0.02713418
v -0.03933906 0.06757700 -0.02709215
v -0.03910005 0.06725984 -0.02563858
v -0.03944051 0.06753802 -0.02557778
v 0.03970366 0.06773382 -0.02892065
v 0.03957927 0.06778222 -0.02866256
v 0.03975379 0.06768786 -0.02754181
v 0.03915429 0.06744474 -0.02519726
v 0.03918111 0.06744539 -0.02476584
v 0.03918021 0.06748175 -0.02519679
v 0.03913247 0.06740677 -0.02519792
v 0.03913474 0.06736296 -0.02476739
v 0.03911441 0.06736779 -0.02519875
v 0.03906148 0.06721222 -0.02563482
v 0.03909224 0.06717950 -0.02477300
v 0.03910475 0.06727325 -0.02476978
v 0.03953856 0.06776791 -0.02782934
v 0.03942936 0.06778842 -0.02838450
v 0.03928148 0.06774306 -0.02811884
v 0.03953993 0.06766694 -0.02498632
v 0.03976887 0.06762838 -0.02477973
v 0.03985369 0.06758671 -0.02478438
v 0.03967767 0.06765329 -0.02477556
v 0.03958344 0.06766057 -0.02477186
v 0.03948944 0.06764996 -0.02476894
v 0.03948253 0.06765842 -0.02498459
v 0.03943014 0.06764447 -0.02498328
v 0.03939914 0.06762182 -0.02476680
v 0.03938233 0.06762623 -0.02498227
v 0.03931570 0.06757724 -0.02476555
v 0.03924214 0.06751769 -0.02476525
v 0.03921085 0.06751793 -0.02519649
v 0.03960573 0.06768089 -0.02533382
v 0.03980380 0.06763881 -0.02616304
v 0.03910291 0.06736636 -0.02541446
v 0.03958082 0.06770652 -0.02602326
v 0.03930056 0.06765925 -0.02631795
v 0.03931611 0.06764364 -0.02588671
v 0.03957301 0.06771439 -0.02623891
v 0.03912293 0.06744676 -0.02575767
v 0.03956055 0.06772679 -0.02658367
v 0.03910750 0.06746256 -0.02618879
v 0.03903073 0.06724369 -0.02649670
v 0.03909975 0.06747031 -0.02640438
v 0.03953552 0.06775104 -0.02727311
v 0.03927576 0.06768363 -0.02700734
v 0.03930193 0.06772059 -0.02748221
v 0.03908747 0.06748253 -0.02674895
v 0.03899991 0.06727391 -0.02735865
v 0.03954887 0.06775724 -0.02751100
v 0.03934448 0.06773841 -0.02753132
v 0.03941118 0.06775772 -0.02761912
v 0.03956931 0.06775528 -0.02753585
v 0.03959965 0.06775081 -0.02758014
v 0.03947508 0.06776720 -0.02771735
v 0.03909450 0.06753700 -0.02722239
v 0.03907197 0.06749761 -0.02718007
v 0.03900533 0.06735152 -0.02744191
v 0.03909951 0.06756353 -0.02745920
v 0.03902310 0.06743186 -0.02753609
v 0.03912734 0.06760013 -0.02750706
v 0.03907853 0.06755536 -0.02770590
v 0.03922301 0.06768912 -0.02766066
v 0.03916501 0.06766176 -0.02789789
v 0.03934496 0.06775325 -0.02786207
v 0.03939324 0.06764554 -0.02526283
v 0.03929889 0.06760334 -0.02536916
v 0.03932845 0.06763088 -0.02554202
v 0.03928816 0.06767153 -0.02666264
v 0.03918868 0.06751489 -0.02547669
v 0.03113806 0.07201820 -0.01276856
v 0.03150790 0.07172226 -0.01298433
v 0.03104436 0.07194751 -0.01311033
v 0.03173518 0.07173353 -0.01263779
v 0.03062462 0.07226097 -0.01298111
v 0.03060400 0.07215815 -0.01331776
v 0.03019315 0.07246369 -0.01325035
v 0.03019905 0.07234627 -0.01360338
v 0.03969490 0.06763601 -0.02395141
v 0.03979724 0.06759178 -0.02311086
v 0.03985369 0.06758671 -0.02478438
v 0.03725659 0.06883645 -0.01672869
v 0.03683733 0.06916224 -0.01556098
v 0.03773295 0.06868487 -0.01689773
v 0.03767621 0.06859934 -0.01748883
v 0.03683412 0.06907200 -0.01606535
v 0.03679549 0.06880795 -0.01651400
v 0.03632521 0.06935167 -0.01537656
v 0.03581637 0.06940311 -0.01516133
v 0.03578054 0.06971609 -0.01437765
v 0.03582000 0.06962519 -0.01479178
v 0.03527903 0.06991398 -0.01425737
v 0.03477406 0.07000583 -0.01411449
v 0.03468388 0.07027941 -0.01348459
v 0.03475069 0.07019209 -0.01381629
v 0.03429996 0.07042628 -0.01350200
v 0.03391063 0.07048690 -0.01350092
v 0.03379774 0.07072567 -0.01298916
v 0.03387421 0.07064485 -0.01325690
v 0.03346192 0.07085406 -0.01306742
v 0.03312045 0.07091021 -0.01313233
v 0.03300970 0.07111585 -0.01271730
v 0.03308343 0.07104426 -0.01293462
v 0.03276395 0.07120323 -0.01285374
v 0.03250867 0.07122719 -0.01297509
v 0.03234314 0.07144087 -0.01261633
v 0.03244423 0.07136100 -0.01280325
v 0.03216940 0.07149541 -0.01278603
v 0.03198248 0.07148945 -0.01293802
v 0.03187841 0.07163679 -0.01279377
v 0.02983486 0.07260346 -0.01378041
v 0.02983790 0.07250815 -0.01395601
v 0.02980172 0.07264679 -0.01358848
v 0.02967011 0.07267957 -0.01396757
v 0.02952384 0.07264500 -0.01436072
v 0.02945739 0.07280778 -0.01397740
v 0.02950835 0.07275408 -0.01417714
v 0.02936625 0.07281941 -0.01438611
v 0.02925693 0.07275760 -0.01480513
v 0.02915847 0.07294774 -0.01440870
v 0.02922862 0.07288253 -0.01461505
v 0.02910804 0.07293772 -0.01484185
v 0.02903503 0.07284772 -0.01527863
v 0.02890312 0.07306784 -0.01487469
v 0.02899354 0.07299011 -0.01508498
v 0.02886229 0.07305014 -0.01540690
v 0.02880346 0.07293695 -0.01594072
v 0.02862721 0.07319915 -0.01553666
v 0.02874517 0.07310378 -0.01574724
v 0.02863746 0.07315343 -0.01612663
v 0.02862131 0.07300132 -0.01671236
v 0.02839946 0.07331079 -0.01631498
v 0.02854716 0.07319539 -0.01652157
v 0.02847844 0.07322776 -0.01690840
v 0.02851247 0.07303148 -0.01749986
v 0.02825087 0.07338815 -0.01710873
v 0.02842617 0.07325291 -0.01731067
v 0.02838927 0.07327145 -0.01775687
v 0.02847003 0.07303231 -0.01821976
v 0.02816802 0.07343912 -0.01802438
v 0.02837425 0.07327997 -0.01812458
v 0.02842128 0.07320094 -0.01857703
v 0.02847540 0.07301157 -0.01894092
v 0.02846282 0.07310593 -0.01894128
v 0.02843260 0.07319623 -0.01894229
v 0.03920286 0.06745487 -0.02436769
v 0.03913474 0.06736296 -0.02476739
v 0.03910475 0.06727325 -0.02476978
v 0.03909224 0.06717950 -0.02477300
v 0.03918731 0.06748461 -0.02348375
v 0.03902387 0.06727522 -0.02300387
v 0.03947520 0.06763356 -0.02395910
v 0.03966397 0.06764382 -0.02354019
v 0.03952282 0.06764245 -0.02395743
v 0.03965383 0.06764298 -0.02395284
v 0.03956818 0.06764650 -0.02395588
v 0.03961175 0.06764656 -0.02395433
v 0.03912395 0.06747537 -0.02304387
v 0.03908199 0.06751048 -0.02264595
v 0.03953325 0.06768876 -0.02268242
v 0.03957921 0.06766659 -0.02309048
v 0.03952771 0.06772381 -0.02146375
v 0.03894877 0.06761091 -0.02177542
v 0.03872984 0.06751072 -0.02127128
v 0.03922921 0.06768983 -0.02226942
v 0.03940451 0.06775480 -0.02187144
v 0.03886228 0.06767237 -0.02134388
v 0.03922015 0.06785273 -0.02103042
v 0.03907704 0.06796169 -0.01986730
v 0.03931397 0.06780266 -0.02142930
v 0.03854227 0.06788873 -0.02011132
v 0.03825008 0.06785446 -0.01959872
v 0.03877282 0.06773424 -0.02095448
v 0.03888022 0.06790041 -0.02061086
v 0.03900152 0.06797075 -0.02024292
v 0.03841030 0.06797498 -0.01969647
v 0.03862679 0.06805014 -0.01976674
v 0.03828084 0.06805843 -0.01932281
v 0.03760325 0.06828933 -0.01800525
v 0.03873085 0.06811797 -0.01943451
v 0.03886497 0.06804496 -0.01981759
v 0.03847616 0.06828474 -0.01834410
v 0.03843629 0.06827867 -0.01868271
v 0.03835737 0.06820750 -0.01901489
v 0.03802049 0.06840234 -0.01820647
v 0.03779351 0.06836539 -0.01811861
v 0.03825938 0.06837528 -0.01827603
v 0.03762698 0.06846803 -0.01776218
v 0.03808903 0.06846821 -0.01791054
v 0.02830988 0.07335114 -0.01830434
v 0.02816587 0.07345557 -0.01895189
v 0.02831530 0.07335424 -0.01876056
v 0.02825003 0.07341122 -0.01894885
v 0.02832424 0.07335168 -0.01894611
v 0.02838587 0.07327914 -0.01894390
v 0.03949552 0.06764346 -0.02456659
v 0.03927838 0.06753343 -0.02436614
v 0.03931832 0.06756347 -0.02436554
v 0.03954780 0.06765145 -0.02456724
v 0.03958344 0.06766057 -0.02477186
v 0.03948944 0.06764996 -0.02476894
v 0.03960412 0.06765383 -0.02456814
v 0.03976887 0.06762838 -0.02477973
v 0.03967767 0.06765329 -0.02477556
v 0.03948575 0.06763476 -0.02416151
v 0.03923976 0.06749755 -0.02436685
v 0.03950804 0.06763929 -0.02416104
v 0.03940659 0.06762820 -0.02351385
v 0.03936737 0.06762802 -0.02329230
v 0.03932517 0.06762945 -0.02307146
v 0.03930574 0.06764191 -0.02287054
v 0.03928327 0.06765615 -0.02266985
v 0.03915631 0.06773453 -0.02183079
v 0.03911477 0.06775981 -0.02161240
v 0.03906995 0.06778693 -0.02139478
v 0.03902637 0.06781315 -0.02119767
v 0.03898024 0.06784081 -0.02100133
v 0.03875923 0.06797212 -0.02018654
v 0.03869438 0.06801038 -0.01997601
v 0.03856277 0.06808763 -0.01957708
v 0.03849649 0.06812644 -0.01938855
v 0.03793781 0.06844985 -0.01802527
v 0.03785288 0.06849855 -0.01784515
v 0.03931850 0.06757342 -0.02466565
v 0.03939914 0.06762182 -0.02476680
v 0.03931570 0.06757724 -0.02476555
v 0.03924214 0.06751769 -0.02476525
v 0.03918111 0.06744539 -0.02476584
v 0.03960192 0.06766039 -0.02320247
v 0.03933787 0.06778997 -0.02153950
v 0.03884083 0.06768733 -0.02124625
v 0.03893470 0.06800705 -0.02002960
v 0.03890019 0.06802582 -0.01992344
v 0.03834664 0.06801611 -0.01950907
v 0.03771132 0.06841617 -0.01793980
v 0.02869725 0.07316446 -0.02602791
v 0.02843260 0.07319623 -0.01894229
v 0.02900516 0.07288092 -0.03310638
v 0.02867555 0.07320803 -0.02602916
v 0.02838587 0.07327914 -0.01894390
v 0.02864956 0.07324951 -0.02603048
v 0.02816587 0.07345557 -0.01895189
v 0.02825003 0.07341122 -0.01894885
v 0.02832424 0.07335168 -0.01894611
v 0.02860307 0.07331109 -0.02618020
v 0.02874326 0.07329994 -0.03437262
v 0.02883595 0.07311421 -0.02964329
v 0.02881354 0.07324022 -0.03200721
v 0.02891856 0.07316488 -0.03377044
v 0.02883183 0.07325106 -0.03409463
v 0.02894335 0.07307195 -0.03255587
v 0.02898645 0.07302820 -0.03340464
f 1 2 3
f 4 1 3
f 5 3 6
f 5 4 3
f 7 6 8
f 7 5 6
f 9 8 10
f 9 7 8
f 11 10 12
f 11 9 10
f 13 11 12
f 14 15 16
f 14 16 17
f 14 18 19
f 14 19 15
f 20 18 14
f 21 22 18
f 21 18 20
f 23 24 22
f 23 22 21
f 25 26 27
f 28 17 29
f 28 14 17
f 28 23 21
f 28 20 14
f 28 21 20
f 30 31 24
f 30 24 23
f 32 29 33
f 32 28 29
f 34 25 27
f 35 36 37
f 35 38 36
f 39 38 35
f 39 37 40
f 39 35 37
f 41 40 42
f 41 42 43
f 41 43 25
f 41 39 40
f 44 32 33
f 44 38 32
f 45 44 33
f 46 45 33
f 47 44 45
f 47 45 46
f 48 28 32
f 48 23 28
f 48 30 23
f 49 32 38
f 50 27 51
f 52 50 53
f 52 27 50
f 54 27 52
f 54 53 55
f 54 52 53
f 54 34 27
f 54 55 34
f 56 49 38
f 56 55 53
f 56 53 49
f 56 25 34
f 56 34 55
f 56 38 39
f 56 41 25
f 56 39 41
f 57 44 47
f 57 37 36
f 57 36 38
f 57 38 44
f 58 37 57
f 58 57 47
f 59 37 58
f 59 40 37
f 59 58 47
f 60 59 47
f 60 40 59
f 60 42 40
f 60 43 42
f 60 25 43
f 61 62 63
f 64 61 63
f 65 66 26
f 65 67 66
f 65 63 67
f 65 64 63
f 65 25 60
f 65 26 25
f 68 30 48
f 68 69 31
f 68 31 30
f 68 48 70
f 71 48 32
f 71 72 70
f 71 49 72
f 71 32 49
f 71 70 48
f 73 70 72
f 73 50 51
f 73 51 69
f 73 69 68
f 73 68 70
f 74 50 73
f 74 72 49
f 74 53 50
f 74 73 72
f 74 49 53
f 75 47 46
f 75 60 47
f 75 61 64
f 75 64 65
f 75 65 60
f 76 77 62
f 76 62 61
f 76 75 46
f 76 61 75
f 78 79 77
f 78 33 79
f 78 46 33
f 78 77 76
f 78 76 46
f 80 81 82
f 80 83 81
f 84 80 82
f 85 86 87
f 85 87 88
f 89 90 86
f 89 86 85
f 91 90 89
f 92 90 91
f 93 94 90
f 93 90 92
f 95 96 94
f 95 94 93
f 97 98 99
f 100 99 98
f 101 98 102
f 101 100 98
f 103 101 102
f 104 105 98
f 104 98 97
f 104 97 106
f 107 108 105
f 107 104 109
f 107 105 104
f 110 109 111
f 110 108 107
f 110 107 109
f 112 110 111
f 112 113 108
f 112 111 81
f 112 83 113
f 112 81 83
f 112 108 110
f 114 85 88
f 115 85 114
f 115 89 85
f 116 89 115
f 116 93 92
f 116 91 89
f 116 92 91
f 117 118 96
f 117 96 95
f 119 120 121
f 119 121 118
f 119 117 95
f 119 118 117
f 122 123 124
f 125 122 124
f 126 127 120
f 126 120 119
f 128 88 129
f 128 123 122
f 128 122 88
f 130 131 127
f 132 123 130
f 132 130 127
f 133 127 126
f 133 132 127
f 133 126 124
f 133 123 132
f 133 124 123
f 134 129 109
f 134 109 104
f 134 104 106
f 135 134 106
f 135 129 134
f 136 129 135
f 136 135 106
f 136 106 97
f 137 103 128
f 137 128 129
f 137 129 136
f 137 136 97
f 137 97 99
f 137 99 100
f 137 100 101
f 137 101 103
f 138 102 139
f 138 103 102
f 140 139 141
f 140 138 139
f 140 103 138
f 142 141 143
f 142 143 131
f 142 140 141
f 142 103 140
f 142 131 130
f 144 119 95
f 144 126 119
f 144 95 93
f 145 126 144
f 145 125 124
f 145 124 126
f 146 128 103
f 146 130 123
f 146 142 130
f 146 103 142
f 146 123 128
f 147 93 116
f 147 144 93
f 147 122 125
f 147 116 115
f 147 88 122
f 147 114 88
f 147 115 114
f 147 145 144
f 147 125 145
f 148 149 150
f 148 150 151
f 152 153 154
f 152 155 153
f 152 156 155
f 157 158 156
f 157 159 158
f 157 156 152
f 160 161 159
f 160 159 157
f 162 163 161
f 162 161 160
f 164 163 162
f 165 166 163
f 165 163 164
f 167 168 166
f 167 169 168
f 167 170 169
f 167 166 165
f 171 170 167
f 172 170 171
f 173 174 175
f 173 176 177
f 178 179 180
f 181 182 183
f 184 182 181
f 185 186 187
f 188 174 189
f 190 191 192
f 190 193 194
f 190 194 191
f 195 196 193
f 195 193 190
f 197 196 195
f 198 199 196
f 198 196 197
f 200 201 202
f 200 202 203
f 204 203 199
f 204 199 198
f 205 204 206
f 205 200 203
f 205 203 204
f 207 205 206
f 208 205 207
f 209 210 211
f 209 212 210
f 209 213 212
f 209 214 213
f 215 216 214
f 215 217 216
f 215 214 209
f 218 209 211
f 219 217 215
f 219 220 217
f 219 221 220
f 222 209 218
f 222 219 215
f 222 215 209
f 223 211 224
f 223 218 211
f 225 226 221
f 225 227 226
f 225 221 219
f 228 219 222
f 229 218 223
f 229 228 222
f 229 222 218
f 230 231 232
f 230 224 231
f 230 223 224
f 233 227 225
f 233 234 227
f 233 235 234
f 236 219 228
f 236 225 219
f 237 228 229
f 238 230 232
f 238 229 223
f 238 223 230
f 239 240 235
f 239 241 240
f 239 235 233
f 242 233 225
f 242 225 236
f 243 228 237
f 243 236 228
f 243 242 236
f 244 229 238
f 244 237 229
f 245 246 247
f 245 232 246
f 245 238 232
f 248 241 239
f 248 249 241
f 248 250 249
f 251 248 239
f 251 239 233
f 251 233 242
f 252 242 243
f 253 237 244
f 253 252 243
f 253 243 237
f 254 255 256
f 254 247 255
f 254 238 245
f 254 244 238
f 254 245 247
f 257 250 248
f 257 258 250
f 257 259 258
f 257 260 259
f 261 248 251
f 262 251 242
f 262 242 252
f 263 252 253
f 264 254 256
f 264 256 265
f 264 244 254
f 264 253 244
f 266 257 248
f 266 260 257
f 266 248 261
f 267 251 262
f 267 261 251
f 268 262 252
f 268 252 263
f 268 267 262
f 269 263 253
f 269 253 264
f 270 271 272
f 270 273 271
f 270 265 273
f 270 264 265
f 270 269 264
f 274 275 260
f 274 260 266
f 274 266 261
f 274 261 267
f 276 267 268
f 277 268 263
f 277 263 269
f 278 270 272
f 278 279 280
f 278 281 279
f 278 282 281
f 278 272 282
f 278 269 270
f 283 275 274
f 283 274 267
f 283 267 276
f 284 276 268
f 284 268 277
f 285 286 287
f 285 288 286
f 285 289 288
f 285 280 289
f 285 277 269
f 285 284 277
f 285 269 278
f 285 278 280
f 290 291 275
f 290 276 284
f 290 275 283
f 290 283 276
f 292 293 294
f 292 295 293
f 292 287 295
f 292 284 285
f 292 285 287
f 296 294 291
f 296 290 284
f 296 284 292
f 296 291 290
f 296 292 294
f 297 298 299
f 297 299 300
f 301 302 298
f 301 297 303
f 301 298 297
f 304 305 306
f 304 306 307
f 304 307 302
f 304 303 305
f 304 302 301
f 304 301 303
f 308 309 310
f 308 311 309
f 308 310 303
f 308 303 297
f 312 300 313
f 312 314 311
f 312 313 314
f 312 311 308
f 312 308 297
f 312 297 300
f 315 316 317
f 315 318 316
f 315 319 318
f 320 321 319
f 320 322 321
f 320 319 315
f 323 315 317
f 324 325 322
f 324 326 325
f 324 322 320
f 327 320 315
f 327 315 323
f 328 317 329
f 328 323 317
f 330 331 326
f 330 332 331
f 330 326 324
f 333 324 320
f 333 320 327
f 334 323 328
f 334 327 323
f 335 328 329
f 336 337 332
f 336 338 337
f 336 332 330
f 339 324 333
f 339 330 324
f 340 327 334
f 340 333 327
f 340 339 333
f 341 340 334
f 341 334 328
f 341 328 335
f 342 343 344
f 342 329 343
f 342 335 329
f 345 338 336
f 345 346 338
f 345 347 346
f 348 345 336
f 348 336 330
f 348 330 339
f 349 339 340
f 350 340 341
f 351 341 335
f 351 335 342
f 352 353 354
f 352 344 353
f 352 342 344
f 355 356 347
f 355 357 356
f 355 347 345
f 358 355 345
f 358 345 348
f 359 348 339
f 359 339 349
f 360 349 340
f 360 340 350
f 361 350 341
f 361 341 351
f 362 363 364
f 362 365 363
f 362 366 365
f 362 354 366
f 362 351 342
f 362 342 352
f 362 352 354
f 367 368 357
f 367 369 368
f 367 370 369
f 367 371 370
f 367 357 355
f 372 355 358
f 373 358 348
f 373 348 359
f 374 349 360
f 374 373 359
f 374 359 349
f 375 360 350
f 375 350 361
f 376 377 378
f 376 379 377
f 376 364 379
f 376 361 351
f 376 351 362
f 376 375 361
f 376 362 364
f 380 355 372
f 380 367 355
f 380 371 367
f 381 372 358
f 381 358 373
f 381 380 372
f 382 373 374
f 383 374 360
f 383 360 375
f 384 385 386
f 384 387 385
f 384 378 387
f 384 376 378
f 384 375 376
f 388 389 371
f 388 371 380
f 388 380 381
f 390 381 373
f 390 373 382
f 391 392 393
f 391 394 392
f 391 383 394
f 391 382 374
f 391 374 383
f 395 384 386
f 395 396 394
f 395 397 396
f 395 386 397
f 395 394 383
f 395 383 375
f 395 375 384
f 398 399 400
f 398 400 389
f 398 390 399
f 398 389 388
f 398 388 381
f 398 381 390
f 401 390 382
f 401 393 399
f 401 391 393
f 401 382 391
f 401 399 390
f 402 403 404
f 405 406 403
f 405 407 406
f 405 403 402
f 408 409 407
f 408 410 409
f 408 407 405
f 411 412 410
f 411 413 412
f 411 410 408
f 414 415 413
f 414 413 411
f 416 417 415
f 416 418 417
f 416 415 414
f 419 420 418
f 419 418 416
f 421 422 420
f 421 420 419
f 423 424 425
f 426 427 424
f 426 424 423
f 428 429 427
f 428 427 426
f 430 431 429
f 430 429 428
f 432 433 431
f 432 431 430
f 159 434 433
f 159 433 432
f 435 436 434
f 435 434 159
f 437 438 436
f 437 436 435
f 439 440 438
f 439 438 437
f 441 442 440
f 441 440 439
f 443 444 442
f 443 442 441
f 445 446 444
f 445 444 443
f 447 448 449
f 447 450 448
f 447 451 450
f 447 452 451
f 453 454 452
f 453 452 447
f 453 447 449
f 455 456 454
f 455 457 456
f 455 454 453
f 455 453 449
f 458 449 459
f 458 460 461
f 458 459 460
f 458 455 449
f 462 463 464
f 462 461 463
f 462 464 457
f 462 457 455
f 462 455 458
f 462 458 461
f 465 466 467
f 468 469 470
f 471 472 473
f 471 474 472
f 471 475 474
f 476 475 471
f 477 473 469
f 477 471 473
f 478 477 469
f 479 469 468
f 479 468 480
f 479 480 481
f 479 481 482
f 483 479 482
f 483 469 479
f 484 478 469
f 484 483 482
f 484 482 485
f 484 485 486
f 484 469 483
f 487 488 466
f 487 466 489
f 487 489 490
f 491 492 493
f 494 493 495
f 494 491 493
f 496 495 488
f 496 494 495
f 496 488 487
f 496 487 486
f 497 498 475
f 497 499 498
f 497 475 476
f 497 476 500
f 501 497 500
f 501 502 499
f 501 467 502
f 501 465 467
f 501 499 497
f 503 465 501
f 503 504 505
f 503 505 465
f 503 501 500
f 503 476 471
f 503 500 476
f 506 503 471
f 506 504 503
f 506 471 477
f 507 504 506
f 508 505 504
f 508 465 505
f 508 504 507
f 509 477 478
f 509 478 490
f 509 490 489
f 510 465 508
f 510 466 465
f 510 509 489
f 510 489 466
f 511 490 478
f 511 478 484
f 511 484 486
f 511 486 487
f 511 487 490
f 512 480 468
f 512 481 480
f 512 482 481
f 512 485 482
f 512 486 485
f 513 514 515
f 513 515 516
f 513 516 492
f 513 492 491
f 513 512 468
f 513 491 512
f 517 506 477
f 517 508 507
f 517 477 509
f 517 509 510
f 517 507 506
f 517 510 508
f 518 486 512
f 518 494 496
f 518 512 491
f 518 491 494
f 518 496 486
f 519 520 514
f 519 470 520
f 519 513 468
f 519 468 470
f 519 514 513
f 521 522 523
f 521 523 524
f 525 526 522
f 525 522 521
f 527 526 525
f 528 529 530
f 528 530 526
f 528 526 527
f 531 532 529
f 531 529 528
f 533 534 535
f 533 535 532
f 533 532 531
f 536 537 534
f 536 534 533
f 538 539 540
f 541 539 538
f 542 543 544
f 545 546 547
f 548 549 550
f 551 552 553
f 554 549 548
f 555 556 554
f 555 554 548
f 557 558 559
f 560 558 557
f 561 562 558
f 561 563 562
f 561 564 563
f 561 565 564
f 561 558 560
f 566 565 561
f 566 561 560
f 567 568 565
f 567 565 566
f 567 560 557
f 567 566 560
f 569 570 571
f 569 572 568
f 569 571 572
f 569 568 567
f 573 567 557
f 573 570 569
f 573 569 567
f 574 573 557
f 574 557 559
f 575 570 573
f 575 573 574
f 576 559 577
f 576 577 578
f 576 574 559
f 576 575 574
f 579 580 570
f 579 581 580
f 579 578 581
f 579 570 575
f 579 576 578
f 579 575 576
f 582 583 584
f 582 584 585
f 586 587 588
f 586 588 589
f 590 589 591
f 590 591 592
f 590 592 583
f 590 586 589
f 590 583 582
f 593 582 594
f 593 595 586
f 593 590 582
f 593 586 590
f 596 593 594
f 596 595 593
f 597 594 598
f 597 596 594
f 597 599 595
f 597 595 596
f 600 597 598
f 600 599 597
f 601 598 602
f 601 603 599
f 601 600 598
f 601 599 600
f 604 601 602
f 604 603 601
f 605 602 606
f 605 604 602
f 605 607 603
f 605 603 604
f 608 605 606
f 608 607 605
f 609 606 610
f 609 611 607
f 609 607 608
f 609 608 606
f 612 609 610
f 612 611 609
f 613 610 614
f 613 615 611
f 613 612 610
f 613 611 612
f 616 613 614
f 616 615 613
f 617 614 618
f 617 619 615
f 617 615 616
f 617 616 614
f 620 619 617
f 620 617 618
f 621 618 622
f 621 623 619
f 621 620 618
f 621 619 620
f 624 621 622
f 624 623 621
f 625 622 626
f 625 627 623
f 625 623 624
f 625 624 622
f 628 627 625
f 628 625 626
f 629 628 626
f 629 626 630
f 629 631 627
f 629 627 628
f 632 631 629
f 632 629 630
f 633 631 632
f 633 630 634
f 633 635 631
f 633 632 630
f 636 633 634
f 636 635 633
f 637 634 638
f 637 636 634
f 637 639 635
f 637 635 636
f 640 637 638
f 640 639 637
f 641 638 642
f 641 640 638
f 641 643 639
f 641 639 640
f 644 641 642
f 644 643 641
f 645 642 646
f 645 644 642
f 645 647 643
f 645 643 644
f 648 645 646
f 648 647 645
f 649 646 650
f 649 648 646
f 649 651 647
f 649 647 648
f 652 649 650
f 652 651 649
f 653 650 654
f 653 652 650
f 653 655 651
f 653 651 652
f 656 653 654
f 656 655 653
f 657 655 656
f 657 654 658
f 657 656 654
f 657 659 655
f 660 657 658
f 660 659 657
f 661 660 658
f 661 659 660
f 661 658 662
f 661 663 659
f 664 661 662
f 664 663 661
f 665 663 664
f 665 666 663
f 665 664 662
f 667 668 669
f 667 669 670
f 671 665 662
f 671 662 668
f 671 672 665
f 673 668 667
f 673 671 668
f 673 672 671
f 674 666 665
f 674 665 672
f 675 673 667
f 675 672 673
f 675 674 672
f 675 676 666
f 675 666 674
f 677 667 670
f 677 670 678
f 677 678 679
f 680 667 677
f 680 675 667
f 680 679 681
f 680 681 676
f 680 676 675
f 680 677 679
f 682 683 684
f 685 686 687
f 685 683 682
f 685 688 683
f 685 687 688
f 689 690 686
f 689 686 691
f 689 691 692
f 693 694 690
f 693 692 695
f 693 689 692
f 693 690 689
f 696 693 695
f 696 694 693
f 697 698 694
f 697 696 695
f 697 695 699
f 697 694 696
f 700 698 697
f 700 697 699
f 701 702 698
f 701 699 703
f 701 700 699
f 701 698 700
f 704 702 701
f 704 701 703
f 705 706 702
f 705 702 704
f 705 703 707
f 705 704 703
f 708 706 705
f 708 705 707
f 709 710 706
f 709 707 711
f 709 706 708
f 709 708 707
f 712 711 713
f 712 709 711
f 712 710 709
f 714 712 713
f 714 710 712
f 715 716 710
f 715 713 717
f 715 710 714
f 715 714 713
f 718 715 717
f 718 716 715
f 719 720 716
f 719 717 721
f 719 718 717
f 719 716 718
f 722 719 721
f 722 720 719
f 723 724 720
f 723 721 725
f 723 720 722
f 723 722 721
f 726 724 723
f 726 723 725
f 727 724 726
f 727 728 724
f 727 725 729
f 727 726 725
f 730 728 727
f 730 727 729
f 731 732 728
f 731 729 733
f 731 728 730
f 731 730 729
f 734 732 731
f 734 731 733
f 735 736 732
f 735 732 734
f 735 733 737
f 735 734 733
f 738 735 737
f 738 736 735
f 739 740 736
f 739 737 741
f 739 738 737
f 739 736 738
f 742 740 739
f 742 739 741
f 743 744 740
f 743 740 742
f 743 741 745
f 743 742 741
f 746 744 743
f 746 743 745
f 747 748 744
f 747 744 746
f 747 745 749
f 747 746 745
f 750 748 747
f 750 747 749
f 751 752 748
f 751 750 749
f 751 749 753
f 751 748 750
f 754 751 753
f 754 752 751
f 755 754 753
f 755 752 754
f 755 756 752
f 755 753 757
f 758 756 755
f 758 755 757
f 759 758 757
f 759 757 760
f 759 756 758
f 761 762 763
f 764 765 766
f 764 767 765
f 764 768 767
f 764 684 768
f 764 682 684
f 769 682 764
f 769 764 766
f 769 766 692
f 769 692 691
f 770 763 756
f 770 756 759
f 770 771 763
f 772 760 773
f 772 771 760
f 774 761 775
f 774 775 772
f 774 772 773
f 774 773 776
f 777 685 682
f 777 686 685
f 777 682 769
f 777 769 691
f 777 691 686
f 778 759 760
f 778 770 759
f 778 771 770
f 778 760 771
f 779 763 771
f 779 771 772
f 779 761 763
f 779 775 761
f 779 772 775
f 780 776 781
f 780 781 782
f 780 774 776
f 780 761 774
f 783 782 784
f 783 784 762
f 783 780 782
f 783 762 761
f 783 761 780
f 785 786 787
f 785 787 788
f 785 788 789
f 790 791 786
f 790 786 785
f 792 791 790
f 793 794 795
f 793 795 796
f 793 796 797
f 793 797 791
f 793 791 792
f 798 793 792
f 798 792 790
f 798 794 793
f 799 800 794
f 799 798 790
f 799 794 798
f 801 799 790
f 801 790 785
f 801 785 789
f 802 799 801
f 802 800 799
f 803 801 789
f 803 802 801
f 804 805 806
f 804 806 800
f 804 800 802
f 804 802 803
f 807 789 808
f 807 808 809
f 807 809 805
f 807 805 804
f 807 803 789
f 807 804 803
f 810 811 812
f 813 814 815
f 816 817 818
f 819 820 821
f 822 823 824
f 822 825 823
f 826 827 819
f 828 829 825
f 828 825 826
f 830 829 828
f 831 832 833
f 831 834 832
f 831 835 834
f 831 836 835
f 837 833 838
f 837 831 833
f 839 837 838
f 840 837 839
f 841 840 842
f 841 837 840
f 843 844 845
f 846 844 843
f 847 844 846
f 848 849 844
f 848 850 849
f 848 851 850
f 848 844 847
f 852 853 854
f 855 856 853
f 855 853 852
f 857 858 852
f 857 859 858
f 857 854 860
f 857 860 859
f 857 852 854
f 861 862 863
f 864 865 862
f 864 862 861
f 866 867 865
f 866 865 864
f 868 867 866
f 869 870 871
f 869 872 873
f 874 875 876
f 877 878 879
f 880 881 882
f 883 884 881
f 883 885 884
f 883 886 887
f 883 880 886
f 883 881 880
f 888 889 885
f 888 890 889
f 888 885 883
f 888 883 887
f 891 892 890
f 891 890 888
f 893 891 888
f 893 887 894
f 893 888 887
f 895 896 892
f 895 897 896
f 895 892 891
f 898 891 893
f 898 893 894
f 899 900 897
f 899 901 900
f 899 897 895
f 902 895 891
f 902 891 898
f 902 899 895
f 903 894 904
f 903 898 894
f 905 906 901
f 905 907 906
f 905 901 899
f 908 899 902
f 909 908 902
f 909 902 898
f 909 898 903
f 910 904 911
f 910 903 904
f 912 913 907
f 912 914 913
f 912 907 905
f 915 905 899
f 915 899 908
f 916 908 909
f 917 903 910
f 917 911 918
f 917 909 903
f 917 916 909
f 917 910 911
f 919 920 914
f 919 914 912
f 921 905 915
f 921 912 905
f 922 908 916
f 922 915 908
f 923 916 917
f 923 922 916
f 924 918 925
f 924 917 918
f 926 927 920
f 926 928 927
f 926 929 928
f 926 920 919
f 930 919 912
f 930 926 919
f 930 912 921
f 931 921 915
f 931 915 922
f 932 922 923
f 933 925 934
f 933 924 925
f 933 917 924
f 933 923 917
f 935 929 926
f 935 926 930
f 936 930 921
f 936 921 931
f 936 935 930
f 937 931 922
f 937 922 932
f 937 936 931
f 938 932 923
f 938 923 933
f 939 940 941
f 939 934 940
f 939 933 934
f 942 943 929
f 942 929 935
f 942 935 936
f 944 936 937
f 945 944 937
f 945 937 932
f 945 932 938
f 946 939 941
f 946 947 948
f 946 949 947
f 946 950 949
f 946 951 950
f 946 941 951
f 946 938 933
f 946 933 939
f 952 943 942
f 952 942 936
f 952 936 944
f 953 944 945
f 954 955 956
f 954 957 955
f 954 958 957
f 954 948 958
f 954 946 948
f 954 945 938
f 954 938 946
f 959 960 943
f 959 943 952
f 959 952 944
f 959 944 953
f 961 959 953
f 961 954 956
f 961 962 960
f 961 963 962
f 961 964 963
f 961 956 964
f 961 960 959
f 961 953 945
f 961 945 954
f 965 966 967
f 968 965 967
f 969 968 967
f 970 971 972
f 973 974 975
f 976 977 978
f 979 976 978
f 980 979 978
f 981 982 983
f 984 985 986
f 984 987 985
f 984 988 987
f 989 990 988
f 989 991 990
f 989 988 984
f 992 984 986
f 993 994 991
f 993 991 989
f 995 989 984
f 995 984 992
f 996 986 997
f 996 992 986
f 998 999 994
f 998 1000 999
f 998 994 993
f 1001 989 995
f 1001 993 989
f 1002 992 996
f 1002 995 992
f 1003 996 997
f 1004 1005 1000
f 1004 1006 1005
f 1004 1000 998
f 1007 1004 998
f 1007 998 993
f 1007 993 1001
f 1008 995 1002
f 1008 1007 1001
f 1008 1001 995
f 1009 1002 996
f 1009 996 1003
f 1010 1011 1012
f 1010 997 1011
f 1010 1003 997
f 1013 1014 1006
f 1013 1015 1014
f 1013 1006 1004
f 1016 1004 1007
f 1017 1007 1008
f 1018 1002 1009
f 1018 1008 1002
f 1019 1009 1003
f 1019 1003 1010
f 1020 1010 1012
f 1020 1021 1022
f 1020 1012 1021
f 1023 1024 1015
f 1023 1025 1024
f 1023 1015 1013
f 1026 1004 1016
f 1026 1013 1004
f 1027 1007 1017
f 1027 1016 1007
f 1028 1017 1008
f 1028 1008 1018
f 1028 1027 1017
f 1029 1018 1009
f 1029 1009 1019
f 1030 1010 1020
f 1030 1031 1032
f 1030 1033 1031
f 1030 1034 1033
f 1030 1019 1010
f 1030 1022 1034
f 1030 1020 1022
f 1035 1025 1023
f 1035 1036 1025
f 1037 1035 1023
f 1037 1023 1013
f 1037 1013 1026
f 1038 1026 1016
f 1038 1016 1027
f 1038 1037 1026
f 1039 1027 1028
f 1040 1018 1029
f 1040 1028 1018
f 1041 1042 1043
f 1041 1044 1042
f 1041 1045 1044
f 1041 1032 1045
f 1041 1019 1030
f 1041 1030 1032
f 1041 1029 1019
f 1046 981 983
f 1046 1047 1036
f 1046 983 1047
f 1046 1048 981
f 1046 1036 1035
f 1049 1050 1048
f 1049 1051 1050
f 1049 1035 1037
f 1049 1048 1046
f 1049 1046 1035
f 1052 1053 1051
f 1052 1037 1038
f 1052 1049 1037
f 1052 1051 1049
f 1054 1038 1027
f 1054 1027 1039
f 1055 1056 1057
f 1055 1039 1028
f 1055 1028 1040
f 1058 1040 1029
f 1058 1059 1060
f 1058 1061 1059
f 1058 1062 1061
f 1058 1043 1062
f 1058 1041 1043
f 1058 1029 1041
f 1063 1064 1053
f 1063 1054 1064
f 1063 1052 1038
f 1063 1053 1052
f 1063 1038 1054
f 1065 1057 1064
f 1065 1055 1057
f 1065 1064 1054
f 1065 1054 1039
f 1065 1039 1055
f 1066 1040 1058
f 1066 1060 1056
f 1066 1056 1055
f 1066 1058 1060
f 1066 1055 1040
f 1067 1068 1069
f 1070 1071 1072
f 1072 1071 1073
f 1074 1075 1076
f 1077 1078 1079
f 1077 1079 1080
f 1077 1080 1081
f 1082 1078 1077
f 1083 1078 1082
f 1084 1078 1083
f 1085 1086 1087
f 1085 1087 1088
f 1085 1088 1089
f 1090 1091 1086
f 1090 1092 1091
f 1090 1086 1085
f 1093 1089 1094
f 1093 1095 1092
f 1093 1090 1085
f 1093 1092 1090
f 1093 1085 1089
f 1096 1097 1095
f 1098 1094 1099
f 1098 1099 1100
f 1098 1100 1101
f 1098 1102 1097
f 1098 1103 1102
f 1098 1101 1103
f 1098 1093 1094
f 1098 1095 1093
f 1098 1096 1095
f 1098 1097 1096
f 1104 1105 1106
f 1104 1106 1107
f 1108 1109 1105
f 1108 1110 1109
f 1108 1111 1110
f 1108 1105 1104
f 1112 1113 1111
f 1112 1107 1114
f 1112 1108 1104
f 1112 1111 1108
f 1112 1104 1107
f 1115 1114 1116
f 1115 1117 1118
f 1115 1119 1117
f 1115 1116 1119
f 1115 1120 1113
f 1115 1121 1120
f 1115 1118 1121
f 1115 1113 1112
f 1115 1112 1114
f 1122 1123 1124
f 1125 1123 1122
f 1126 1127 1128
f 1126 1128 1129
f 1126 1129 1123
f 1126 1123 1125
f 1130 1131 1132
f 1130 1133 1131
f 1130 1134 1133
f 1135 1130 1132
f 1136 1137 1134
f 1136 1134 1130
f 1136 1130 1135
f 1138 1132 1139
f 1138 1135 1132
f 1140 1141 1142
f 1140 1143 1137
f 1140 1142 1143
f 1140 1135 1138
f 1140 1136 1135
f 1140 1137 1136
f 1144 1141 1140
f 1144 1140 1138
f 1145 1139 1146
f 1145 1138 1139
f 1145 1144 1138
f 1147 1146 1148
f 1147 1148 1149
f 1147 1149 1141
f 1147 1141 1144
f 1147 1145 1146
f 1147 1144 1145
f 1150 1151 1152
f 1150 1152 943
f 1153 1154 1155
f 1156 1157 1158
f 1156 1158 1159
f 1160 1156 1159
f 1160 1159 1161
f 1162 1161 1163
f 1162 1160 1161
f 1164 1155 1165
f 1164 1165 1166
f 1164 1166 1151
f 1164 1151 1150
f 1164 1153 1155
f 1167 1150 1168
f 1167 1169 1153
f 1167 1153 1164
f 1167 1164 1150
f 1170 1167 1168
f 1170 1169 1167
f 1171 1169 1170
f 1171 1168 1172
f 1171 1170 1168
f 1171 1173 1169
f 1174 1171 1172
f 1174 1173 1171
f 1175 1172 1176
f 1175 1177 1173
f 1175 1173 1174
f 1175 1174 1172
f 1178 1177 1175
f 1178 1175 1176
f 1179 1176 1180
f 1179 1181 1177
f 1179 1177 1178
f 1179 1178 1176
f 1182 1179 1180
f 1182 1181 1179
f 1183 1158 1157
f 1183 1181 1182
f 1183 1180 1158
f 1183 1157 1181
f 1183 1182 1180
f 1184 1163 1185
f 1184 1162 1163
f 1184 1186 1162
f 1187 1185 1188
f 1187 1184 1185
f 1187 1189 1186
f 1187 1186 1184
f 1190 1187 1188
f 1190 1189 1187
f 1191 1188 1192
f 1191 1190 1188
f 1191 1189 1190
f 1191 1193 1189
f 1194 1191 1192
f 1194 1193 1191
f 1195 1192 1196
f 1195 1197 1193
f 1195 1193 1194
f 1195 1194 1192
f 1198 1195 1196
f 1198 1197 1195
f 1199 1196 1200
f 1199 1201 1197
f 1199 1197 1198
f 1199 1198 1196
f 1202 1199 1200
f 1202 1201 1199
f 1203 1202 1200
f 1203 1200 1204
f 1203 1201 1202
f 1203 1205 1201
f 1206 1203 1204
f 1206 1205 1203
f 1207 1204 1208
f 1207 1206 1204
f 1207 1209 1205
f 1207 1205 1206
f 1210 1207 1208
f 1210 1209 1207
f 1211 1210 1208
f 1211 1208 1212
f 1211 1209 1210
f 1211 1213 1209
f 1214 1211 1212
f 1214 1213 1211
f 1215 1213 1214
f 1215 1212 1216
f 1215 1214 1212
f 1215 1217 1213
f 1218 1215 1216
f 1218 1217 1215
f 1219 1218 1216
f 1219 1217 1218
f 1219 1220 1217
f 1221 1222 1223
f 1224 1219 1216
f 1224 1225 1226
f 1224 1216 1225
f 1227 1220 1226
f 1227 1228 1220
f 1229 1230 1225
f 1229 1225 1231
f 1232 1227 1230
f 1232 1228 1227
f 1233 1229 1231
f 1234 1228 1232
f 1235 1231 1236
f 1237 1228 1234
f 1237 1238 1228
f 1239 1240 1235
f 1239 1235 1236
f 1241 1237 1240
f 1241 1238 1237
f 1242 1239 1236
f 1243 1241 1244
f 1243 1238 1241
f 1245 1242 1236
f 1245 1236 1246
f 1245 1244 1242
f 1247 1238 1243
f 1248 1249 1245
f 1248 1245 1246
f 1250 1251 1238
f 1250 1247 1249
f 1250 1238 1247
f 1252 1246 1253
f 1252 1254 1246
f 1255 1251 1250
f 1256 1251 1255
f 1257 1258 1252
f 1257 1252 1253
f 1259 1257 1253
f 1260 1251 1256
f 1260 1256 1258
f 1260 1223 1251
f 1261 1260 1262
f 1261 1223 1260
f 1263 1259 1253
f 1264 1265 1266
f 1264 1267 1265
f 1264 1268 1267
f 1264 1269 1268
f 1270 1264 1266
f 1271 1220 1219
f 1271 1226 1220
f 1271 1224 1226
f 1271 1219 1224
f 1272 1226 1225
f 1272 1225 1230
f 1272 1227 1226
f 1272 1230 1227
f 1273 1230 1229
f 1273 1232 1230
f 1274 1234 1232
f 1274 1273 1229
f 1274 1233 1275
f 1274 1229 1233
f 1274 1275 1234
f 1274 1232 1273
f 1276 1275 1233
f 1276 1234 1275
f 1276 1237 1234
f 1277 1235 1240
f 1277 1240 1237
f 1277 1237 1276
f 1278 1240 1239
f 1278 1241 1240
f 1278 1244 1241
f 1278 1242 1244
f 1278 1239 1242
f 1279 1245 1249
f 1279 1243 1244
f 1279 1244 1245
f 1279 1249 1247
f 1279 1247 1243
f 1280 1249 1248
f 1280 1250 1249
f 1281 1255 1250
f 1281 1282 1255
f 1281 1250 1280
f 1281 1254 1282
f 1283 1254 1252
f 1283 1256 1255
f 1283 1255 1282
f 1283 1282 1254
f 1284 1283 1252
f 1284 1252 1258
f 1284 1258 1256
f 1284 1256 1283
f 1285 1259 1262
f 1285 1262 1260
f 1285 1260 1258
f 1285 1258 1257
f 1285 1257 1259
f 1286 1262 1259
f 1286 1259 1263
f 1286 1261 1262
f 1287 1223 1261
f 1287 1261 1286
f 1287 1221 1223
f 1288 1289 1290
f 1291 1288 1290
f 1292 1290 1293
f 1292 1293 1294
f 1292 1294 1295
f 1292 1295 1221
f 1292 1221 1287
f 1292 1291 1290
f 1296 1253 1269
f 1296 1269 1264
f 1296 1263 1253
f 1297 1298 1299
f 1297 1270 1298
f 1297 1264 1270
f 1297 1296 1264
f 1300 1297 1299
f 1300 1290 1297
f 1300 1293 1290
f 1300 1294 1293
f 1300 1295 1294
f 1300 1221 1295
f 1301 1299 1298
f 1301 1298 1270
f 1301 1302 1303
f 1301 1304 1302
f 1301 1266 1304
f 1301 1270 1266
f 1305 1299 1301
f 1305 1301 1303
f 1305 1303 1306
f 1307 1305 1306
f 1307 1300 1299
f 1307 1299 1305
f 1307 1308 1222
f 1307 1309 1308
f 1307 1306 1309
f 1307 1222 1221
f 1307 1221 1300
f 1310 1231 1235
f 1310 1235 1277
f 1310 1276 1233
f 1310 1277 1276
f 1310 1233 1231
f 1311 1254 1281
f 1311 1280 1248
f 1311 1248 1246
f 1311 1246 1254
f 1311 1281 1280
f 1312 1286 1263
f 1312 1287 1286
f 1312 1263 1289
f 1312 1289 1288
f 1312 1288 1291
f 1312 1292 1287
f 1312 1291 1292
f 1313 1290 1289
f 1313 1289 1263
f 1313 1263 1296
f 1314 1313 1296
f 1314 1297 1290
f 1314 1290 1313
f 1314 1296 1297
f 1315 1316 1317
f 1318 1316 1315
f 1319 1320 1321
f 1319 1321 1322
f 1319 1322 1323
f 1324 1325 1320
f 1324 1320 1319
f 1326 1325 1324
f 1327 1328 1329
f 1327 1329 1330
f 1327 1331 1328
f 1332 1333 1334
f 1335 1334 1336
f 1335 1332 1334
f 1337 1335 1336
f 1338 1336 1339
f 1338 1339 1340
f 1338 1340 1317
f 1338 1337 1336
f 1338 1317 1316
f 1338 1316 1337
f 1341 1342 1343
f 1341 1343 1344
f 1341 1344 1345
f 1341 1345 1346
f 1341 1346 1325
f 1341 1326 1347
f 1341 1325 1326
f 1348 1330 1342
f 1348 1342 1341
f 1348 1327 1330
f 1348 1341 1347
f 1349 1323 1350
f 1349 1351 1323
f 1349 1352 1353
f 1349 1353 1351
f 1354 1349 1350
f 1354 1352 1349
f 1355 1331 1327
f 1355 1353 1352
f 1356 1352 1354
f 1356 1354 1350
f 1356 1357 1352
f 1358 1355 1352
f 1358 1331 1355
f 1359 1356 1350
f 1359 1357 1356
f 1359 1350 1360
f 1361 1358 1352
f 1361 1331 1358
f 1361 1352 1357
f 1362 1357 1359
f 1363 1364 1365
f 1363 1365 1334
f 1363 1334 1333
f 1366 1331 1361
f 1366 1361 1357
f 1366 1316 1331
f 1367 1366 1333
f 1367 1316 1366
f 1367 1333 1332
f 1367 1332 1335
f 1368 1367 1335
f 1368 1316 1367
f 1368 1335 1337
f 1368 1337 1316
f 1369 1348 1347
f 1369 1347 1326
f 1369 1351 1353
f 1370 1359 1360
f 1370 1362 1359
f 1370 1360 1364
f 1370 1364 1363
f 1370 1363 1362
f 1371 1366 1357
f 1371 1357 1362
f 1371 1363 1333
f 1371 1362 1363
f 1371 1333 1366
f 1372 1319 1323
f 1372 1323 1351
f 1372 1369 1326
f 1372 1324 1319
f 1372 1326 1324
f 1372 1351 1369
f 1373 1355 1327
f 1373 1353 1355
f 1373 1369 1353
f 1373 1327 1348
f 1373 1348 1369
f 1374 1375 1376
f 1377 1378 1379
f 1380 1381 1378
f 1380 1378 1377
f 1382 1383 1384
f 1382 1385 1381
f 1382 1384 1385
f 1382 1381 1380
f 1386 1375 1387
f 1386 1387 1388
f 1386 1376 1375
f 1389 1390 1391
f 1389 1392 1390
f 1389 1393 1392
f 1389 1394 1393
f 1395 1394 1389
f 1396 1397 1394
f 1396 1394 1395
f 1398 1399 1397
f 1398 1400 1399
f 1398 1378 1400
f 1398 1401 1379
f 1398 1379 1378
f 1398 1397 1396
f 1402 1391 1403
f 1402 1389 1391
f 1404 1380 1377
f 1404 1382 1380
f 1404 1383 1382
f 1404 1377 1379
f 1405 1406 1407
f 1405 1402 1403
f 1408 1405 1403
f 1408 1406 1405
f 1409 1383 1404
f 1410 1408 1403
f 1410 1406 1408
f 1410 1403 1376
f 1411 1412 1383
f 1411 1409 1407
f 1411 1407 1406
f 1411 1383 1409
f 1413 1412 1411
f 1413 1411 1406
f 1414 1410 1376
f 1414 1415 1410
f 1414 1416 1415
f 1417 1418 1412
f 1417 1412 1413
f 1419 1416 1414
f 1419 1414 1376
f 1419 1420 1416
f 1419 1421 1420
f 1422 1421 1419
f 1422 1419 1376
f 1423 1421 1422
f 1423 1422 1376
f 1423 1424 1421
f 1423 1376 1386
f 1423 1386 1424
f 1425 1415 1416
f 1426 1427 1418
f 1426 1417 1415
f 1426 1425 1427
f 1426 1415 1425
f 1426 1418 1417
f 1428 1429 1427
f 1428 1427 1425
f 1428 1425 1416
f 1430 1431 1429
f 1430 1429 1428
f 1430 1428 1416
f 1432 1433 1431
f 1432 1431 1430
f 1432 1430 1416
f 1432 1416 1420
f 1432 1420 1421
f 1434 1388 1433
f 1434 1432 1421
f 1434 1433 1432
f 1434 1386 1388
f 1434 1421 1424
f 1434 1424 1386
f 1435 1389 1402
f 1435 1395 1389
f 1435 1396 1395
f 1435 1401 1398
f 1435 1398 1396
f 1436 1401 1435
f 1436 1379 1401
f 1436 1435 1402
f 1437 1405 1407
f 1437 1402 1405
f 1437 1407 1409
f 1437 1436 1402
f 1438 1406 1410
f 1438 1410 1415
f 1438 1413 1406
f 1438 1415 1417
f 1438 1417 1413
f 1439 1409 1404
f 1439 1379 1436
f 1439 1437 1409
f 1439 1436 1437
f 1439 1404 1379
f 1440 1441 1442
f 1440 1443 1441
f 1444 1442 1445
f 1444 1440 1442
f 1446 1445 1447
f 1446 1444 1445
f 1448 1449 1450
f 1451 1452 1453
f 1451 1453 1454
f 1455 1452 1451
f 1455 1451 1456
f 1457 1455 1456
f 1457 1456 1458
f 1457 1459 1452
f 1457 1452 1455
f 1460 1457 1458
f 1460 1459 1457
f 1461 1458 1462
f 1461 1463 1459
f 1461 1460 1458
f 1461 1459 1460
f 1464 1463 1461
f 1464 1461 1462
f 1465 1464 1462
f 1465 1462 1466
f 1465 1467 1463
f 1465 1463 1464
f 1468 1465 1466
f 1468 1467 1465
f 1469 1468 1466
f 1469 1467 1468
f 1469 1466 1470
f 1469 1471 1467
f 1472 1469 1470
f 1472 1471 1469
f 1473 1470 1474
f 1473 1472 1470
f 1473 1475 1471
f 1473 1471 1472
f 1476 1473 1474
f 1476 1475 1473
f 1477 1475 1476
f 1477 1474 1478
f 1477 1476 1474
f 1477 1443 1475
f 1479 1477 1478
f 1479 1443 1477
f 1479 1478 1441
f 1479 1441 1443
f 1480 1447 1481
f 1480 1446 1447
f 1480 1482 1446
f 1483 1482 1480
f 1483 1481 1484
f 1483 1480 1481
f 1483 1485 1482
f 1486 1483 1484
f 1486 1485 1483
f 1487 1485 1486
f 1487 1484 1488
f 1487 1489 1485
f 1487 1486 1484
f 1490 1487 1488
f 1490 1489 1487
f 1491 1489 1490
f 1491 1488 1492
f 1491 1493 1489
f 1491 1490 1488
f 1494 1491 1492
f 1494 1493 1491
f 1495 1494 1492
f 1495 1493 1494
f 1495 1492 1496
f 1495 1497 1493
f 1498 1495 1496
f 1498 1497 1495
f 1499 1496 1500
f 1499 1498 1496
f 1499 1497 1498
f 1499 1501 1497
f 1502 1499 1500
f 1502 1501 1499
f 1503 1500 1504
f 1503 1502 1500
f 1503 1501 1502
f 1503 1505 1501
f 1506 1503 1504
f 1506 1505 1503
f 1507 1504 1508
f 1507 1506 1504
f 1507 1505 1506
f 1507 1509 1505
f 1510 1507 1508
f 1510 1509 1507
f 1511 1508 1512
f 1511 1513 1514
f 1511 1512 1513
f 1511 1510 1508
f 1515 1516 1517
f 1515 1517 1518
f 1519 1518 1520
f 1519 1515 1518
f 1519 1521 1515
f 1522 1449 1448
f 1522 1523 1521
f 1522 1448 1524
f 1522 1525 1523
f 1522 1526 1525
f 1522 1524 1526
f 1527 1519 1520
f 1528 1527 1520
f 1529 1449 1530
f 1529 1531 1449
f 1532 1520 1533
f 1532 1528 1520
f 1532 1534 1528
f 1535 1531 1529
f 1535 1529 1534
f 1536 1532 1533
f 1537 1538 1531
f 1537 1531 1539
f 1540 1533 1541
f 1540 1542 1533
f 1540 1543 1542
f 1544 1538 1537
f 1544 1537 1543
f 1545 1546 1540
f 1545 1540 1541
f 1547 1541 1548
f 1549 1550 1546
f 1549 1538 1550
f 1549 1551 1538
f 1552 1549 1553
f 1552 1551 1549
f 1552 1553 1554
f 1555 1547 1548
f 1555 1553 1547
f 1555 1554 1553
f 1556 1551 1552
f 1556 1552 1554
f 1557 1548 1456
f 1557 1451 1454
f 1557 1456 1451
f 1558 1556 1554
f 1558 1453 1551
f 1558 1454 1453
f 1558 1551 1556
f 1559 1509 1510
f 1559 1510 1511
f 1559 1560 1509
f 1561 1562 1560
f 1561 1563 1562
f 1561 1564 1563
f 1561 1514 1564
f 1561 1559 1511
f 1561 1511 1514
f 1561 1560 1559
f 1565 1566 1567
f 1568 1569 1570
f 1568 1565 1567
f 1568 1570 1565
f 1571 1448 1450
f 1571 1450 1572
f 1571 1572 1573
f 1571 1573 1569
f 1571 1568 1567
f 1571 1569 1568
f 1574 1575 1515
f 1574 1566 1575
f 1574 1567 1566
f 1574 1515 1521
f 1576 1521 1523
f 1576 1524 1448
f 1576 1571 1567
f 1576 1523 1525
f 1576 1574 1521
f 1576 1448 1571
f 1576 1567 1574
f 1576 1525 1526
f 1576 1526 1524
f 1577 1521 1519
f 1577 1522 1521
f 1578 1527 1579
f 1578 1519 1527
f 1578 1579 1530
f 1578 1577 1519
f 1580 1527 1528
f 1580 1579 1527
f 1580 1530 1579
f 1580 1529 1530
f 1581 1529 1580
f 1581 1528 1534
f 1581 1580 1528
f 1581 1534 1529
f 1582 1534 1532
f 1582 1535 1534
f 1583 1582 1532
f 1583 1584 1539
f 1583 1536 1584
f 1583 1532 1536
f 1585 1537 1539
f 1585 1539 1584
f 1585 1584 1536
f 1586 1543 1537
f 1586 1537 1585
f 1586 1542 1543
f 1587 1543 1540
f 1587 1544 1543
f 1588 1546 1550
f 1588 1587 1540
f 1588 1540 1546
f 1589 1549 1546
f 1589 1546 1545
f 1590 1547 1553
f 1590 1553 1549
f 1590 1549 1589
f 1591 1554 1555
f 1591 1558 1554
f 1592 1557 1454
f 1592 1454 1558
f 1592 1558 1591
f 1593 1570 1594
f 1593 1594 1595
f 1593 1595 1596
f 1593 1596 1597
f 1593 1597 1516
f 1593 1516 1515
f 1593 1566 1565
f 1593 1515 1575
f 1593 1575 1566
f 1593 1565 1570
f 1598 1530 1449
f 1598 1578 1530
f 1598 1522 1577
f 1598 1449 1522
f 1598 1577 1578
f 1599 1535 1582
f 1599 1583 1539
f 1599 1531 1535
f 1599 1582 1583
f 1599 1539 1531
f 1600 1533 1542
f 1600 1585 1536
f 1600 1586 1585
f 1600 1542 1586
f 1600 1536 1533
f 1601 1538 1544
f 1601 1544 1587
f 1601 1587 1588
f 1602 1588 1550
f 1602 1538 1601
f 1602 1550 1538
f 1602 1601 1588
f 1603 1545 1541
f 1603 1547 1590
f 1603 1589 1545
f 1603 1590 1589
f 1603 1541 1547
f 1604 1548 1557
f 1604 1555 1548
f 1604 1591 1555
f 1604 1557 1592
f 1604 1592 1591
f 1605 1606 1513
f 1605 1513 1071
f 1605 1071 1607
f 1608 1609 1606
f 1608 1606 1605
f 1610 1611 1612
f 1610 1612 1613
f 1610 1613 1609
f 1610 1609 1608
f 1614 1615 1611
f 1614 1608 1605
f 1614 1610 1608
f 1614 1611 1610
f 1616 1605 1607
f 1616 1614 1605
f 1617 1618 1619
f 1617 1619 1615
f 1617 1614 1616
f 1617 1615 1614
f 1620 1607 1621
f 1620 1621 1618
f 1620 1616 1607
f 1620 1618 1617
f 1620 1617 1616

