# https://github.com/mikedh/trimesh
v 0.02731843 -0.15020689 0.06630093
v 0.02892543 -0.15212201 0.06630093
v 0.03447200 -0.14657550 0.06630091
v 0.03255685 -0.14496849 0.06630092
v 0.03680606 -0.13890000 0.06630091
v 0.03897114 -0.14015000 0.06630091
v 0.02124996 -0.15445609 0.06630093
v 0.02249999 -0.15662120 0.06630093
v 0.03993692 -0.13218591 0.06630091
v 0.04228617 -0.13304090 0.06630091
v 0.01453586 -0.15758690 0.06630093
v 0.01539089 -0.15993620 0.06630093
v 0.04431631 -0.12546420 0.06630091
v 0.00781419 -0.16196640 0.06630094
v 0.04185434 -0.12503010 0.06630091
v 0.00738003 -0.15950440 0.06630094
v 0.00000002 -0.16265000 0.06630094
v 0.04249997 -0.11764999 0.06630091
v 0.04499997 -0.11764999 0.06630091
v 0.00000002 -0.16015001 0.06630094
v 0.04185434 -0.11026999 0.06630091
v 0.04431631 -0.10983589 0.06630091
v -0.00737999 -0.15950440 0.06630094
v -0.00781415 -0.16196640 0.06630094
v 0.03993692 -0.10311409 0.06630091
v 0.04228617 -0.10225909 0.06630091
v -0.01453582 -0.15758690 0.06630094
v -0.01539085 -0.15993620 0.06630094
v -0.02249995 -0.15662120 0.06630094
v 0.03680606 -0.09640002 0.06630091
v 0.03897114 -0.09515005 0.06630091
v -0.02124992 -0.15445609 0.06630094
v 0.03255685 -0.09033154 0.06630092
v 0.03447200 -0.08872461 0.06630091
v -0.02731845 -0.15020689 0.06630094
v -0.02892539 -0.15212201 0.06630094
v 0.02731843 -0.08509313 0.06630092
v -0.03255687 -0.14496849 0.06630094
v 0.02892543 -0.08317804 0.06630092
v -0.03447196 -0.14657550 0.06630094
v 0.02249999 -0.07867889 0.06630092
v 0.02124996 -0.08084391 0.06630092
v -0.03897110 -0.14015000 0.06630094
v -0.03680602 -0.13890000 0.06630094
v 0.01453586 -0.07771306 0.06630092
v 0.01539089 -0.07536386 0.06630092
v -0.04228613 -0.13304090 0.06630094
v -0.03993688 -0.13218591 0.06630094
v 0.00738003 -0.07579570 0.06630093
v 0.00781419 -0.07333367 0.06630093
v -0.04431633 -0.12546420 0.06630094
v -0.04185430 -0.12503010 0.06630094
v -0.04499993 -0.11764999 0.06630094
v -0.04249993 -0.11764999 0.06630094
v 0.00000002 -0.07265000 0.06630093
v 0.00000002 -0.07515001 0.06630093
v -0.00737999 -0.07579570 0.06630093
v -0.04431633 -0.10983589 0.06630094
v -0.04185430 -0.11026999 0.06630094
v -0.00781415 -0.07333367 0.06630093
v -0.04228613 -0.10225909 0.06630094
v -0.03993688 -0.10311409 0.06630094
v -0.01539085 -0.07536386 0.06630094
v -0.01453582 -0.07771306 0.06630094
v -0.02249995 -0.07867889 0.06630094
v -0.02124992 -0.08084391 0.06630094
v -0.03897110 -0.09515005 0.06630094
v -0.03680602 -0.09640002 0.06630094
v -0.02892539 -0.08317804 0.06630094
v -0.02731845 -0.08509313 0.06630094
v -0.03255687 -0.09033154 0.06630094
v -0.03447196 -0.08872461 0.06630094
v 0.02731843 -0.15020689 0.06130093
v 0.03447200 -0.14657550 0.06130093
v 0.02892543 -0.15212201 0.06130093
v 0.03255685 -0.14496849 0.06130093
v 0.03680606 -0.13890000 0.06130093
v 0.03897114 -0.14015000 0.06130093
v 0.02124996 -0.15445609 0.06130093
v 0.02249999 -0.15662120 0.06130093
v 0.03993692 -0.13218591 0.06130093
v 0.04228617 -0.13304090 0.06130093
v 0.01453586 -0.15758690 0.06130094
v 0.01539089 -0.15993620 0.06130094
v 0.04431631 -0.12546420 0.06130093
v 0.00781419 -0.16196640 0.06130094
v 0.04185434 -0.12503010 0.06130093
v 0.00738003 -0.15950440 0.06130094
v 0.00000002 -0.16265000 0.06130094
v 0.04249997 -0.11764999 0.06130092
v 0.04499997 -0.11764999 0.06130092
v 0.00000002 -0.16015001 0.06130094
v 0.04185434 -0.11026999 0.06130092
v 0.04431631 -0.10983589 0.06130092
v -0.00737999 -0.15950440 0.06130094
v -0.00781415 -0.16196640 0.06130094
v 0.03993692 -0.10311409 0.06130093
v 0.04228617 -0.10225909 0.06130092
v -0.01453582 -0.15758690 0.06130094
v -0.01539085 -0.15993620 0.06130094
v -0.02249995 -0.15662120 0.06130095
v 0.03680606 -0.09640002 0.06130093
v 0.03897114 -0.09515005 0.06130093
v -0.02124992 -0.15445609 0.06130095
v 0.03255685 -0.09033154 0.06130093
v 0.03447200 -0.08872461 0.06130093
v -0.02731845 -0.15020689 0.06130095
v -0.02892539 -0.15212201 0.06130095
v 0.02731843 -0.08509313 0.06130093
v -0.03255687 -0.14496849 0.06130095
v 0.02892543 -0.08317804 0.06130093
v -0.03447196 -0.14657550 0.06130095
v 0.02249999 -0.07867889 0.06130093
v 0.02124996 -0.08084391 0.06130093
v -0.03897110 -0.14015000 0.06130095
v -0.03680602 -0.13890000 0.06130095
v 0.01453586 -0.07771306 0.06130093
v 0.01539089 -0.07536386 0.06130093
v -0.04228613 -0.13304090 0.06130096
v -0.03993688 -0.13218591 0.06130095
v 0.00738003 -0.07579570 0.06130093
v 0.00781419 -0.07333367 0.06130093
v -0.04431633 -0.12546420 0.06130096
v -0.04185430 -0.12503010 0.06130096
v -0.04499993 -0.11764999 0.06130095
v -0.04249993 -0.11764999 0.06130095
v 0.00000002 -0.07265000 0.06130093
v 0.00000002 -0.07515001 0.06130094
v -0.00737999 -0.07579570 0.06130094
v -0.04431633 -0.10983589 0.06130095
v -0.04185430 -0.11026999 0.06130095
v -0.00781415 -0.07333367 0.06130094
v -0.04228613 -0.10225909 0.06130095
v -0.03993688 -0.10311409 0.06130095
v -0.01539085 -0.07536386 0.06130094
v -0.01453582 -0.07771306 0.06130094
v -0.02249995 -0.07867889 0.06130094
v -0.02124992 -0.08084391 0.06130094
v -0.03897110 -0.09515005 0.06130095
v -0.03680602 -0.09640002 0.06130095
v -0.02892539 -0.08317804 0.06130095
v -0.02731845 -0.08509313 0.06130094
v -0.03255687 -0.09033154 0.06130095
v -0.03447196 -0.08872461 0.06130095
v 0.00000002 -0.07265000 0.06130093
v 0.00000002 -0.07265000 0.06630093
v 0.00781419 -0.07333367 0.06630093
v 0.00781419 -0.07333367 0.06130093
v 0.01539089 -0.07536386 0.06130093
v 0.01539089 -0.07536386 0.06630092
v 0.02249999 -0.07867889 0.06130093
v 0.02249999 -0.07867889 0.06630092
v 0.02892543 -0.08317804 0.06130093
v 0.02892543 -0.08317804 0.06630092
v 0.03447200 -0.08872461 0.06130093
v 0.03447200 -0.08872461 0.06630091
v 0.03897114 -0.09515005 0.06630091
v 0.03897114 -0.09515005 0.06130093
v 0.04228617 -0.10225909 0.06630091
v 0.04228617 -0.10225909 0.06130092
v 0.04431631 -0.10983589 0.06130092
v 0.04431631 -0.10983589 0.06630091
v 0.04499997 -0.11764999 0.06630091
v 0.04499997 -0.11764999 0.06130092
v 0.04431631 -0.12546420 0.06130093
v 0.04431631 -0.12546420 0.06630091
v 0.04228617 -0.13304090 0.06130093
v 0.04228617 -0.13304090 0.06630091
v 0.03897114 -0.14015000 0.06130093
v 0.03897114 -0.14015000 0.06630091
v 0.03447200 -0.14657550 0.06130093
v 0.03447200 -0.14657550 0.06630091
v 0.02892543 -0.15212201 0.06630093
v 0.02892543 -0.15212201 0.06130093
v 0.02249999 -0.15662120 0.06130093
v 0.02249999 -0.15662120 0.06630093
v 0.01539089 -0.15993620 0.06130094
v 0.01539089 -0.15993620 0.06630093
v 0.00781419 -0.16196640 0.06630094
v 0.00781419 -0.16196640 0.06130094
v 0.00000002 -0.16265000 0.06130094
v 0.00000002 -0.16265000 0.06630094
v -0.00781415 -0.16196640 0.06630094
v -0.00781415 -0.16196640 0.06130094
v -0.01539085 -0.15993620 0.06130094
v -0.01539085 -0.15993620 0.06630094
v -0.02249995 -0.15662120 0.06130095
v -0.02249995 -0.15662120 0.06630094
v -0.02892539 -0.15212201 0.06130095
v -0.02892539 -0.15212201 0.06630094
v -0.03447196 -0.14657550 0.06630094
v -0.03447196 -0.14657550 0.06130095
v -0.03897110 -0.14015000 0.06130095
v -0.03897110 -0.14015000 0.06630094
v -0.04228613 -0.13304090 0.06130096
v -0.04228613 -0.13304090 0.06630094
v -0.04431633 -0.12546420 0.06130096
v -0.04431633 -0.12546420 0.06630094
v -0.04499993 -0.11764999 0.06130095
v -0.04499993 -0.11764999 0.06630094
v -0.04431633 -0.10983589 0.06630094
v -0.04431633 -0.10983589 0.06130095
v -0.04228613 -0.10225909 0.06130095
v -0.04228613 -0.10225909 0.06630094
v -0.03897110 -0.09515005 0.06130095
v -0.03897110 -0.09515005 0.06630094
v -0.03447196 -0.08872461 0.06130095
v -0.03447196 -0.08872461 0.06630094
v -0.02892539 -0.08317804 0.06130095
v -0.02892539 -0.08317804 0.06630094
v -0.02249995 -0.07867889 0.06130094
v -0.02249995 -0.07867889 0.06630094
v -0.01539085 -0.07536386 0.06630094
v -0.01539085 -0.07536386 0.06130094
v -0.00781415 -0.07333367 0.06130094
v -0.00781415 -0.07333367 0.06630093
v 0.00000002 -0.07265000 0.06130093
v 0.00000002 -0.07265000 0.06630093
v 0.00000002 -0.07515001 0.06130094
v 0.00738003 -0.07579570 0.06630093
v 0.00000002 -0.07515001 0.06630093
v 0.00738003 -0.07579570 0.06130093
v 0.01453586 -0.07771306 0.06130093
v 0.01453586 -0.07771306 0.06630092
v 0.02124996 -0.08084391 0.06130093
v 0.02124996 -0.08084391 0.06630092
v 0.02731843 -0.08509313 0.06130093
v 0.02731843 -0.08509313 0.06630092
v 0.03255685 -0.09033154 0.06130093
v 0.03255685 -0.09033154 0.06630092
v 0.03680606 -0.09640002 0.06130093
v 0.03993692 -0.10311409 0.06630091
v 0.03680606 -0.09640002 0.06630091
v 0.03993692 -0.10311409 0.06130093
v 0.04185434 -0.11026999 0.06130092
v 0.04185434 -0.11026999 0.06630091
v 0.04249997 -0.11764999 0.06130092
v 0.04249997 -0.11764999 0.06630091
v 0.04185434 -0.12503010 0.06130093
v 0.04185434 -0.12503010 0.06630091
v 0.03993692 -0.13218591 0.06130093
v 0.03993692 -0.13218591 0.06630091
v 0.03680606 -0.13890000 0.06130093
v 0.03680606 -0.13890000 0.06630091
v 0.03255685 -0.14496849 0.06130093
v 0.03255685 -0.14496849 0.06630092
v 0.02731843 -0.15020689 0.06130093
v 0.02731843 -0.15020689 0.06630093
v 0.02124996 -0.15445609 0.06130093
v 0.02124996 -0.15445609 0.06630093
v 0.01453586 -0.15758690 0.06130094
v 0.01453586 -0.15758690 0.06630093
v 0.00738003 -0.15950440 0.06130094
v 0.00738003 -0.15950440 0.06630094
v 0.00000002 -0.16015001 0.06130094
v 0.00000002 -0.16015001 0.06630094
v -0.00737999 -0.15950440 0.06130094
v -0.00737999 -0.15950440 0.06630094
v -0.01453582 -0.15758690 0.06130094
v -0.01453582 -0.15758690 0.06630094
v -0.02124992 -0.15445609 0.06130095
v -0.02124992 -0.15445609 0.06630094
v -0.02731845 -0.15020689 0.06130095
v -0.02731845 -0.15020689 0.06630094
v -0.03255687 -0.14496849 0.06130095
v -0.03255687 -0.14496849 0.06630094
v -0.03680602 -0.13890000 0.06130095
v -0.03680602 -0.13890000 0.06630094
v -0.03993688 -0.13218591 0.06130095
v -0.03993688 -0.13218591 0.06630094
v -0.04185430 -0.12503010 0.06130096
v -0.04185430 -0.12503010 0.06630094
v -0.04249993 -0.11764999 0.06130095
v -0.04249993 -0.11764999 0.06630094
v -0.04185430 -0.11026999 0.06130095
v -0.04185430 -0.11026999 0.06630094
v -0.03993688 -0.10311409 0.06130095
v -0.03680602 -0.09640002 0.06630094
v -0.03993688 -0.10311409 0.06630094
v -0.03680602 -0.09640002 0.06130095
v -0.03255687 -0.09033154 0.06130095
v -0.03255687 -0.09033154 0.06630094
v -0.02731845 -0.08509313 0.06130094
v -0.02731845 -0.08509313 0.06630094
v -0.02124992 -0.08084391 0.06130094
v -0.02124992 -0.08084391 0.06630094
v -0.01453582 -0.07771306 0.06130094
v -0.01453582 -0.07771306 0.06630094
v -0.00737999 -0.07579570 0.06130094
v -0.00737999 -0.07579570 0.06630093
v 0.00000002 -0.07515001 0.06130094
v 0.00000002 -0.07515001 0.06630093
f 1 2 3
f 1 3 4
f 5 3 6
f 5 4 3
f 7 8 2
f 7 2 1
f 9 6 10
f 9 5 6
f 11 12 8
f 11 8 7
f 13 9 10
f 14 12 11
f 15 9 13
f 16 14 11
f 17 14 16
f 18 15 13
f 18 13 19
f 20 17 16
f 21 19 22
f 21 18 19
f 23 17 20
f 23 24 17
f 25 21 22
f 25 22 26
f 27 24 23
f 27 28 24
f 29 28 27
f 30 25 26
f 30 26 31
f 32 29 27
f 33 30 31
f 33 31 34
f 35 36 29
f 35 29 32
f 37 33 34
f 38 36 35
f 39 37 34
f 40 36 38
f 41 37 39
f 41 42 37
f 43 38 44
f 43 40 38
f 45 42 41
f 46 45 41
f 47 44 48
f 47 43 44
f 49 45 46
f 50 49 46
f 51 48 52
f 51 47 48
f 53 52 54
f 53 51 52
f 55 56 49
f 55 49 50
f 57 56 55
f 58 54 59
f 58 53 54
f 60 57 55
f 61 59 62
f 61 58 59
f 63 64 57
f 63 57 60
f 65 64 63
f 65 66 64
f 67 62 68
f 67 61 62
f 69 66 65
f 69 70 66
f 69 71 70
f 72 67 68
f 72 68 71
f 72 71 69
f 73 74 75
f 73 76 74
f 77 78 74
f 77 74 76
f 79 75 80
f 79 73 75
f 81 82 78
f 81 78 77
f 83 80 84
f 83 79 80
f 85 82 81
f 86 83 84
f 87 85 81
f 88 83 86
f 89 88 86
f 90 85 87
f 90 91 85
f 92 88 89
f 93 94 91
f 93 91 90
f 95 92 89
f 95 89 96
f 97 94 93
f 97 98 94
f 99 95 96
f 99 96 100
f 101 99 100
f 102 98 97
f 102 103 98
f 104 99 101
f 105 103 102
f 105 106 103
f 107 101 108
f 107 104 101
f 109 106 105
f 110 107 108
f 111 106 109
f 112 110 108
f 113 111 109
f 113 109 114
f 115 116 110
f 115 110 112
f 117 113 114
f 118 113 117
f 119 120 116
f 119 116 115
f 121 118 117
f 122 118 121
f 123 124 120
f 123 120 119
f 125 126 124
f 125 124 123
f 127 121 128
f 127 122 121
f 129 127 128
f 130 131 126
f 130 126 125
f 132 127 129
f 133 134 131
f 133 131 130
f 135 129 136
f 135 132 129
f 137 135 136
f 137 136 138
f 139 140 134
f 139 134 133
f 141 137 138
f 141 138 142
f 141 142 143
f 144 140 139
f 144 143 140
f 144 141 143
f 145 146 147
f 148 145 147
f 149 147 150
f 149 148 147
f 151 150 152
f 151 149 150
f 153 152 154
f 153 151 152
f 155 156 157
f 155 154 156
f 155 153 154
f 158 155 157
f 158 157 159
f 160 158 159
f 161 160 159
f 161 162 163
f 161 159 162
f 164 161 163
f 165 164 163
f 165 163 166
f 167 165 166
f 167 166 168
f 169 167 168
f 169 168 170
f 171 169 170
f 171 172 173
f 171 170 172
f 174 171 173
f 175 174 173
f 175 173 176
f 177 175 176
f 177 178 179
f 177 176 178
f 180 177 179
f 181 180 179
f 181 182 183
f 181 179 182
f 184 181 183
f 185 183 186
f 185 184 183
f 187 186 188
f 187 185 186
f 189 190 191
f 189 188 190
f 189 187 188
f 192 189 191
f 193 191 194
f 193 192 191
f 195 194 196
f 195 193 194
f 197 196 198
f 197 195 196
f 199 200 201
f 199 198 200
f 199 197 198
f 202 199 201
f 203 201 204
f 203 202 201
f 205 204 206
f 205 203 204
f 207 206 208
f 207 205 206
f 209 207 208
f 209 208 210
f 211 209 210
f 211 212 213
f 211 210 212
f 214 211 213
f 215 214 213
f 215 213 216
f 217 215 216
f 217 216 218
f 219 220 221
f 222 220 219
f 223 224 220
f 223 220 222
f 225 226 224
f 225 224 223
f 227 228 226
f 227 226 225
f 229 230 228
f 229 228 227
f 231 230 229
f 231 232 233
f 231 233 230
f 234 232 231
f 235 232 234
f 235 236 232
f 237 236 235
f 237 238 236
f 239 238 237
f 239 240 238
f 241 240 239
f 241 242 240
f 243 242 241
f 243 244 242
f 245 244 243
f 245 246 244
f 247 246 245
f 247 248 246
f 249 248 247
f 249 250 248
f 251 250 249
f 251 252 250
f 253 252 251
f 253 254 252
f 255 254 253
f 255 256 254
f 257 258 256
f 257 256 255
f 259 260 258
f 259 258 257
f 261 260 259
f 261 262 260
f 263 264 262
f 263 262 261
f 265 266 264
f 265 264 263
f 267 268 266
f 267 266 265
f 269 270 268
f 269 268 267
f 271 272 270
f 271 270 269
f 273 274 272
f 273 272 271
f 275 276 274
f 275 274 273
f 277 278 279
f 277 279 276
f 277 276 275
f 280 278 277
f 281 282 278
f 281 278 280
f 283 282 281
f 283 284 282
f 285 284 283
f 285 286 284
f 287 286 285
f 287 288 286
f 289 288 287
f 289 290 288
f 291 290 289
f 291 292 290

