# https://github.com/mikedh/trimesh
v 0.03156101 -0.06780003 0.09066815
v 0.03447198 -0.06780003 0.08822555
v 0.03897112 -0.06780002 0.09465098
v 0.02648282 -0.06780003 0.08558995
v 0.02892541 -0.06780003 0.08267898
v 0.03568023 -0.06780002 0.09655101
v 0.04228615 -0.06780002 0.10176010
v 0.02059996 -0.06780003 0.08147073
v 0.02249997 -0.06780003 0.07817984
v 0.03871530 -0.06780002 0.10305981
v 0.01409119 -0.06780003 0.07843566
v 0.01539087 -0.06780003 0.07486480
v 0.04057407 -0.06780002 0.10999671
v 0.04431635 -0.06780002 0.10933681
v 0.00715428 -0.06780003 0.07657689
v 0.00781417 -0.06780003 0.07283468
v 0.04119998 -0.06780002 0.11715101
v 0.04499995 -0.06780002 0.11715101
v -0.00000000 -0.06780003 0.07595099
v -0.00000000 -0.06780003 0.07215101
v 0.04057407 -0.06780002 0.12430531
v 0.04431635 -0.06780002 0.12496511
v -0.00715428 -0.06780003 0.07657689
v -0.00781417 -0.06780003 0.07283468
v -0.01539087 -0.06780003 0.07486480
v 0.03871530 -0.06780002 0.13124222
v 0.04228615 -0.06780002 0.13254191
v -0.01409119 -0.06780003 0.07843566
v 0.03568023 -0.06780002 0.13775101
v 0.03897112 -0.06780002 0.13965102
v -0.02059996 -0.06780003 0.08147073
v -0.02249997 -0.06780003 0.07817984
v 0.03156101 -0.06780002 0.14363392
v 0.03447198 -0.06780002 0.14607652
v -0.02648282 -0.06780003 0.08558995
v -0.02892541 -0.06780003 0.08267898
v 0.02892541 -0.06780002 0.15162301
v 0.02648282 -0.06780002 0.14871201
v -0.03447198 -0.06780003 0.08822555
v -0.03156101 -0.06780003 0.09066815
v 0.02249997 -0.06780002 0.15612221
v 0.02059996 -0.06780002 0.15283121
v -0.03897112 -0.06780002 0.09465098
v -0.03568023 -0.06780002 0.09655101
v 0.01409119 -0.06780002 0.15586631
v 0.01539087 -0.06780002 0.15943712
v -0.04228615 -0.06780002 0.10176010
v -0.03871530 -0.06780002 0.10305981
v 0.00781417 -0.06780002 0.16146731
v 0.00715428 -0.06780002 0.15772502
v -0.04431629 -0.06780002 0.10933681
v -0.04057407 -0.06780002 0.10999671
v -0.00000000 -0.06780002 0.16215101
v -0.00000000 -0.06780002 0.15835102
v -0.04499995 -0.06780002 0.11715101
v -0.04119998 -0.06780002 0.11715101
v -0.04057407 -0.06780002 0.12430531
v -0.00781417 -0.06780002 0.16146731
v -0.00715428 -0.06780002 0.15772502
v -0.04431629 -0.06780002 0.12496511
v -0.01409119 -0.06780002 0.15586631
v -0.01539087 -0.06780002 0.15943712
v -0.04228615 -0.06780002 0.13254191
v -0.03871530 -0.06780002 0.13124222
v -0.03568023 -0.06780002 0.13775101
v -0.02249997 -0.06780002 0.15612221
v -0.02059996 -0.06780002 0.15283121
v -0.02648282 -0.06780002 0.14871201
v -0.03897112 -0.06780002 0.13965102
v -0.02892541 -0.06780002 0.15162301
v -0.03156101 -0.06780002 0.14363392
v -0.03447198 -0.06780002 0.14607652
v -0.04499995 -0.06780002 0.11715101
v -0.04499995 -0.06680004 0.11715101
v -0.04431629 -0.06680004 0.10933681
v -0.04431629 -0.06780002 0.10933681
v -0.04228615 -0.06780002 0.10176010
v -0.04228615 -0.06680004 0.10176010
v -0.03897112 -0.06780002 0.09465098
v -0.03897112 -0.06680004 0.09465098
v -0.03447198 -0.06780003 0.08822555
v -0.03447198 -0.06680004 0.08822555
v -0.02892541 -0.06780003 0.08267898
v -0.02892541 -0.06680004 0.08267898
v -0.02249997 -0.06780003 0.07817984
v -0.02249997 -0.06680004 0.07817984
v -0.01539087 -0.06680004 0.07486480
v -0.01539087 -0.06780003 0.07486480
v -0.00781417 -0.06780003 0.07283468
v -0.00781417 -0.06680004 0.07283468
v -0.00000000 -0.06780003 0.07215101
v -0.00000000 -0.06680004 0.07215101
v 0.00781417 -0.06680004 0.07283468
v 0.00781417 -0.06780003 0.07283468
v 0.01539087 -0.06780003 0.07486480
v 0.01539087 -0.06680004 0.07486480
v 0.02249997 -0.06780003 0.07817984
v 0.02249997 -0.06680004 0.07817984
v 0.02892541 -0.06780003 0.08267898
v 0.02892541 -0.06680004 0.08267898
v 0.03447198 -0.06780003 0.08822555
v 0.03447198 -0.06680004 0.08822555
v 0.03897112 -0.06780002 0.09465098
v 0.03897112 -0.06680004 0.09465098
v 0.04228615 -0.06780002 0.10176010
v 0.04228615 -0.06680004 0.10176010
v 0.04431635 -0.06780002 0.10933681
v 0.04431635 -0.06680004 0.10933681
v 0.04499995 -0.06780002 0.11715101
v 0.04499995 -0.06680004 0.11715101
v 0.04431635 -0.06780002 0.12496511
v 0.04431635 -0.06680004 0.12496511
v 0.04228615 -0.06780002 0.13254191
v 0.04228615 -0.06680004 0.13254191
v 0.03897112 -0.06780002 0.13965102
v 0.03897112 -0.06680004 0.13965102
v 0.03447198 -0.06780002 0.14607652
v 0.03447198 -0.06680004 0.14607652
v 0.02892541 -0.06780002 0.15162301
v 0.02892541 -0.06680004 0.15162301
v 0.02249997 -0.06780002 0.15612221
v 0.02249997 -0.06680004 0.15612221
v 0.01539087 -0.06780002 0.15943712
v 0.01539087 -0.06680003 0.15943712
v 0.00781417 -0.06780002 0.16146731
v 0.00781417 -0.06680003 0.16146731
v -0.00000000 -0.06780002 0.16215101
v -0.00000000 -0.06680003 0.16215101
v -0.00781417 -0.06780002 0.16146731
v -0.00781417 -0.06680003 0.16146731
v -0.01539087 -0.06680003 0.15943712
v -0.01539087 -0.06780002 0.15943712
v -0.02249997 -0.06780002 0.15612221
v -0.02249997 -0.06680004 0.15612221
v -0.02892541 -0.06780002 0.15162301
v -0.02892541 -0.06680004 0.15162301
v -0.03447198 -0.06780002 0.14607652
v -0.03447198 -0.06680004 0.14607652
v -0.03897112 -0.06780002 0.13965102
v -0.03897112 -0.06680004 0.13965102
v -0.04228615 -0.06780002 0.13254191
v -0.04228615 -0.06680004 0.13254191
v -0.04431629 -0.06780002 0.12496511
v -0.04431629 -0.06680004 0.12496511
v -0.04499995 -0.06780002 0.11715101
v -0.04499995 -0.06680004 0.11715101
v -0.02731204 -0.06680004 0.08460176
v -0.02892541 -0.06680004 0.08267898
v -0.03447198 -0.06680004 0.08822555
v -0.02249997 -0.06680004 0.07817984
v -0.03254920 -0.06680004 0.08983893
v -0.02124494 -0.06680004 0.08035356
v -0.03679740 -0.06680004 0.09590602
v -0.03897112 -0.06680004 0.09465098
v -0.01539087 -0.06680004 0.07486480
v -0.01453238 -0.06680004 0.07722348
v -0.03992748 -0.06680004 0.10261860
v -0.04228615 -0.06680004 0.10176010
v -0.00737828 -0.06680004 0.07530653
v -0.00781417 -0.06680004 0.07283468
v -0.04184442 -0.06680004 0.10977270
v -0.04431629 -0.06680004 0.10933681
v -0.00000000 -0.06680004 0.07466102
v -0.00000000 -0.06680004 0.07215101
v -0.04248994 -0.06680004 0.11715101
v -0.04499995 -0.06680004 0.11715101
v 0.00781417 -0.06680004 0.07283468
v 0.00737828 -0.06680004 0.07530653
v -0.04184442 -0.06680004 0.12452931
v -0.04431629 -0.06680004 0.12496511
v -0.04228615 -0.06680004 0.13254191
v 0.01453238 -0.06680004 0.07722348
v 0.01539087 -0.06680004 0.07486480
v -0.03992748 -0.06680004 0.13168341
v 0.02124500 -0.06680004 0.08035356
v 0.02249997 -0.06680004 0.07817984
v -0.03679740 -0.06680004 0.13839601
v -0.03897112 -0.06680004 0.13965102
v 0.02892541 -0.06680004 0.08267898
v -0.03447198 -0.06680004 0.14607652
v 0.02731204 -0.06680004 0.08460176
v -0.03254920 -0.06680004 0.14446302
v 0.03447198 -0.06680004 0.08822555
v 0.03254920 -0.06680004 0.08983893
v -0.02892541 -0.06680004 0.15162301
v -0.02731204 -0.06680004 0.14970021
v -0.02124494 -0.06680004 0.15394841
v 0.03897112 -0.06680004 0.09465098
v 0.03679740 -0.06680004 0.09590602
v -0.02249997 -0.06680004 0.15612221
v 0.03992754 -0.06680004 0.10261860
v 0.04228615 -0.06680004 0.10176010
v -0.01539087 -0.06680003 0.15943712
v -0.01453238 -0.06680003 0.15707852
v -0.00737828 -0.06680003 0.15899551
v 0.04431635 -0.06680004 0.10933681
v 0.04184448 -0.06680004 0.10977270
v -0.00781417 -0.06680003 0.16146731
v 0.04499995 -0.06680004 0.11715101
v 0.04249000 -0.06680004 0.11715101
v -0.00000000 -0.06680003 0.16215101
v -0.00000000 -0.06680003 0.15964101
v 0.04431635 -0.06680004 0.12496511
v 0.04184448 -0.06680004 0.12452931
v 0.00781417 -0.06680003 0.16146731
v 0.00737828 -0.06680003 0.15899551
v 0.04228615 -0.06680004 0.13254191
v 0.03992754 -0.06680004 0.13168341
v 0.01539087 -0.06680003 0.15943712
v 0.01453238 -0.06680003 0.15707852
v 0.03897112 -0.06680004 0.13965102
v 0.03679740 -0.06680004 0.13839601
v 0.03254920 -0.06680004 0.14446302
v 0.02249997 -0.06680004 0.15612221
v 0.02124500 -0.06680004 0.15394841
v 0.03447198 -0.06680004 0.14607652
v 0.02892541 -0.06680004 0.15162301
v 0.02731204 -0.06680004 0.14970021
v -0.04172414 -0.05980001 0.10979391
v -0.04248994 -0.06680004 0.11715101
v -0.04236775 -0.05980001 0.11715101
v -0.04184442 -0.06680004 0.10977270
v -0.03992748 -0.06680004 0.10261860
v -0.03981268 -0.05980001 0.10266041
v -0.03679740 -0.06680004 0.09590602
v -0.03669154 -0.05980001 0.09596711
v -0.03254920 -0.06680004 0.08983893
v -0.03245562 -0.05980001 0.08991749
v -0.02731204 -0.06680004 0.08460176
v -0.02723348 -0.05980001 0.08469534
v -0.02124494 -0.06680004 0.08035356
v -0.02118390 -0.05980001 0.08045942
v -0.01453238 -0.06680004 0.07722348
v -0.01449060 -0.05980001 0.07733828
v -0.00737828 -0.06680004 0.07530653
v -0.00735706 -0.05980001 0.07542682
v -0.00000000 -0.06680004 0.07466102
v -0.00000000 -0.05980001 0.07478321
v 0.00737828 -0.06680004 0.07530653
v 0.00735706 -0.05980001 0.07542682
v 0.01453238 -0.06680004 0.07722348
v 0.01449060 -0.05980001 0.07733828
v 0.02124500 -0.06680004 0.08035356
v 0.02118390 -0.05980001 0.08045942
v 0.02723348 -0.05980001 0.08469534
v 0.02731204 -0.06680004 0.08460176
v 0.03254920 -0.06680004 0.08983893
v 0.03245562 -0.05980001 0.08991749
v 0.03679740 -0.06680004 0.09590602
v 0.03669160 -0.05980001 0.09596711
v 0.03981268 -0.05980001 0.10266041
v 0.03992754 -0.06680004 0.10261860
v 0.04184448 -0.06680004 0.10977270
v 0.04172414 -0.05980001 0.10979391
v 0.04249000 -0.06680004 0.11715101
v 0.04236781 -0.05980001 0.11715101
v 0.04184448 -0.06680004 0.12452931
v 0.04172414 -0.05980001 0.12450811
v 0.03992754 -0.06680004 0.13168341
v 0.03981268 -0.05980001 0.13164160
v 0.03679740 -0.06680004 0.13839601
v 0.03669160 -0.05980001 0.13833490
v 0.03245562 -0.05980000 0.14438450
v 0.03254920 -0.06680004 0.14446302
v 0.02731204 -0.06680004 0.14970021
v 0.02723348 -0.05980000 0.14960660
v 0.02118390 -0.05980000 0.15384260
v 0.02124500 -0.06680004 0.15394841
v 0.01453238 -0.06680003 0.15707852
v 0.01449060 -0.05980000 0.15696371
v 0.00735706 -0.05980000 0.15887509
v 0.00737828 -0.06680003 0.15899551
v -0.00000000 -0.06680003 0.15964101
v -0.00000000 -0.05980000 0.15951879
v -0.00735706 -0.05980000 0.15887509
v -0.00737828 -0.06680003 0.15899551
v -0.01453238 -0.06680003 0.15707852
v -0.01449060 -0.05980000 0.15696371
v -0.02124494 -0.06680004 0.15394841
v -0.02118390 -0.05980000 0.15384260
v -0.02731204 -0.06680004 0.14970021
v -0.02723348 -0.05980000 0.14960660
v -0.03245562 -0.05980000 0.14438450
v -0.03254920 -0.06680004 0.14446302
v -0.03679740 -0.06680004 0.13839601
v -0.03669154 -0.05980001 0.13833490
v -0.03992748 -0.06680004 0.13168341
v -0.03981268 -0.05980001 0.13164160
v -0.04184442 -0.06680004 0.12452931
v -0.04172414 -0.05980001 0.12450811
v -0.03150749 -0.05980001 0.09071302
v -0.02723348 -0.05980001 0.08469534
v -0.03245562 -0.05980001 0.08991749
v -0.02643793 -0.05980001 0.08564348
v -0.02056509 -0.05980001 0.08153123
v -0.02118390 -0.05980001 0.08045942
v -0.02723348 -0.05980001 0.08469534
v -0.03561973 -0.05980001 0.09658593
v -0.03669154 -0.05980001 0.09596711
v -0.01449060 -0.05980001 0.07733828
v -0.03981268 -0.05980001 0.10266041
v -0.01406735 -0.05980001 0.07850128
v -0.03864967 -0.05980001 0.10308361
v -0.00714213 -0.05980001 0.07664568
v -0.00735706 -0.05980001 0.07542682
v -0.00714213 -0.05980001 0.07664568
v -0.01406735 -0.05980001 0.07850128
v -0.04050529 -0.05980001 0.11000881
v -0.04172414 -0.05980001 0.10979391
v -0.00000000 -0.05980001 0.07602084
v -0.00000000 -0.05980001 0.07478321
v -0.04113012 -0.05980001 0.11715101
v -0.04236775 -0.05980001 0.11715101
v 0.00714219 -0.05980001 0.07664568
v 0.00735706 -0.05980001 0.07542682
v -0.04050529 -0.05980001 0.12429321
v -0.04172414 -0.05980001 0.12450811
v 0.01406735 -0.05980001 0.07850128
v 0.01449060 -0.05980001 0.07733828
v 0.00735706 -0.05980001 0.07542682
v 0.00714219 -0.05980001 0.07664568
v -0.03864967 -0.05980001 0.13121830
v -0.03981268 -0.05980001 0.13164160
v -0.03669154 -0.05980001 0.13833490
v 0.02056509 -0.05980001 0.08153123
v 0.02118390 -0.05980001 0.08045942
v -0.03561973 -0.05980001 0.13771610
v 0.02643793 -0.05980001 0.08564348
v 0.02723348 -0.05980001 0.08469534
v -0.03150749 -0.05980000 0.14358900
v -0.03245562 -0.05980000 0.14438450
v -0.03150749 -0.05980000 0.14358900
v 0.03245562 -0.05980001 0.08991749
v 0.03150755 -0.05980001 0.09071302
v -0.02723348 -0.05980000 0.14960660
v -0.03245562 -0.05980000 0.14438450
v -0.02643793 -0.05980000 0.14865850
v 0.03669160 -0.05980001 0.09596711
v 0.03561973 -0.05980001 0.09658593
v -0.02118390 -0.05980000 0.15384260
v -0.02056509 -0.05980000 0.15277080
v 0.03981268 -0.05980001 0.10266041
v 0.03864973 -0.05980001 0.10308361
v -0.01449060 -0.05980000 0.15696371
v -0.01406735 -0.05980000 0.15580070
v 0.04050529 -0.05980001 0.11000881
v 0.04172414 -0.05980001 0.10979391
v -0.00735706 -0.05980000 0.15887509
v -0.00714213 -0.05980000 0.15765630
v -0.00000000 -0.05980000 0.15828121
v 0.04236781 -0.05980001 0.11715101
v 0.04113018 -0.05980001 0.11715101
v -0.00000000 -0.05980000 0.15951879
v 0.04172414 -0.05980001 0.12450811
v 0.04050529 -0.05980001 0.12429321
v 0.00735706 -0.05980000 0.15887509
v 0.00714219 -0.05980000 0.15765630
v 0.03864973 -0.05980001 0.13121830
v 0.03981268 -0.05980001 0.13164160
v 0.01449060 -0.05980000 0.15696371
v 0.01406735 -0.05980000 0.15580070
v 0.00714219 -0.05980000 0.15765630
v 0.00735706 -0.05980000 0.15887509
v 0.03561973 -0.05980001 0.13771610
v 0.03669160 -0.05980001 0.13833490
v 0.02118390 -0.05980000 0.15384260
v 0.02056509 -0.05980000 0.15277080
v 0.03245562 -0.05980000 0.14438450
v 0.03150755 -0.05980000 0.14358900
v 0.02723348 -0.05980000 0.14960660
v 0.02643793 -0.05980000 0.14865850
v -0.04119998 -0.06780002 0.11715101
v -0.04050529 -0.05980001 0.11000881
v -0.04113012 -0.05980001 0.11715101
v -0.04057407 -0.06780002 0.10999671
v -0.03864967 -0.05980001 0.10308361
v -0.03871530 -0.06780002 0.10305981
v -0.03568023 -0.06780002 0.09655101
v -0.03561973 -0.05980001 0.09658593
v -0.03156101 -0.06780003 0.09066815
v -0.03150749 -0.05980001 0.09071302
v -0.02648282 -0.06780003 0.08558995
v -0.02643793 -0.05980001 0.08564348
v -0.02059996 -0.06780003 0.08147073
v -0.02056509 -0.05980001 0.08153123
v -0.01409119 -0.06780003 0.07843566
v -0.01406735 -0.05980001 0.07850128
v -0.00715428 -0.06780003 0.07657689
v -0.00714213 -0.05980001 0.07664568
v -0.00000000 -0.05980001 0.07602084
v -0.00000000 -0.06780003 0.07595099
v 0.00715428 -0.06780003 0.07657689
v 0.00714219 -0.05980001 0.07664568
v 0.01409119 -0.06780003 0.07843566
v 0.01406735 -0.05980001 0.07850128
v 0.02056509 -0.05980001 0.08153123
v 0.02059996 -0.06780003 0.08147073
v 0.02648282 -0.06780003 0.08558995
v 0.02643793 -0.05980001 0.08564348
v 0.03156101 -0.06780003 0.09066815
v 0.03150755 -0.05980001 0.09071302
v 0.03561973 -0.05980001 0.09658593
v 0.03568023 -0.06780002 0.09655101
v 0.03864973 -0.05980001 0.10308361
v 0.03871530 -0.06780002 0.10305981
v 0.04057407 -0.06780002 0.10999671
v 0.04050529 -0.05980001 0.11000881
v 0.04119998 -0.06780002 0.11715101
v 0.04113018 -0.05980001 0.11715101
v 0.04057407 -0.06780002 0.12430531
v 0.04050529 -0.05980001 0.12429321
v 0.03864973 -0.05980001 0.13121830
v 0.03871530 -0.06780002 0.13124222
v 0.03568023 -0.06780002 0.13775101
v 0.03561973 -0.05980001 0.13771610
v 0.03156101 -0.06780002 0.14363392
v 0.03150755 -0.05980000 0.14358900
v 0.02643793 -0.05980000 0.14865850
v 0.02648282 -0.06780002 0.14871201
v 0.02056509 -0.05980000 0.15277080
v 0.02059996 -0.06780002 0.15283121
v 0.01409119 -0.06780002 0.15586631
v 0.01406735 -0.05980000 0.15580070
v 0.00715428 -0.06780002 0.15772502
v 0.00714219 -0.05980000 0.15765630
v -0.00000000 -0.05980000 0.15828121
v -0.00000000 -0.06780002 0.15835102
v -0.00715428 -0.06780002 0.15772502
v -0.00714213 -0.05980000 0.15765630
v -0.01406735 -0.05980000 0.15580070
v -0.01409119 -0.06780002 0.15586631
v -0.02059996 -0.06780002 0.15283121
v -0.02056509 -0.05980000 0.15277080
v -0.02648282 -0.06780002 0.14871201
v -0.02643793 -0.05980000 0.14865850
v -0.03156101 -0.06780002 0.14363392
v -0.03150749 -0.05980000 0.14358900
v -0.03568023 -0.06780002 0.13775101
v -0.03561973 -0.05980001 0.13771610
v -0.03864967 -0.05980001 0.13121830
v -0.03871530 -0.06780002 0.13124222
v -0.04057407 -0.06780002 0.12430531
v -0.04050529 -0.05980001 0.12429321
v -0.04119998 -0.06780002 0.11715101
v -0.04113012 -0.05980001 0.11715101
f 1 2 3
f 4 5 2
f 4 2 1
f 6 3 7
f 6 1 3
f 8 9 5
f 8 5 4
f 10 6 7
f 11 12 9
f 11 9 8
f 13 7 14
f 13 10 7
f 15 16 12
f 15 12 11
f 17 14 18
f 17 13 14
f 19 20 16
f 19 16 15
f 21 17 18
f 21 18 22
f 23 20 19
f 23 24 20
f 25 24 23
f 26 21 22
f 26 22 27
f 28 25 23
f 29 26 27
f 29 27 30
f 31 32 25
f 31 25 28
f 33 29 30
f 33 30 34
f 35 36 32
f 35 32 31
f 37 33 34
f 37 38 33
f 39 36 35
f 39 35 40
f 41 38 37
f 41 42 38
f 43 40 44
f 43 39 40
f 45 42 41
f 46 45 41
f 47 44 48
f 47 43 44
f 49 50 45
f 49 45 46
f 51 48 52
f 51 47 48
f 53 50 49
f 53 54 50
f 55 52 56
f 55 51 52
f 57 55 56
f 58 59 54
f 58 54 53
f 60 55 57
f 61 59 58
f 62 61 58
f 63 64 65
f 63 57 64
f 63 60 57
f 66 61 62
f 66 67 61
f 66 68 67
f 69 63 65
f 70 68 66
f 70 71 68
f 72 65 71
f 72 71 70
f 72 69 65
f 73 74 75
f 76 73 75
f 77 75 78
f 77 76 75
f 79 78 80
f 79 77 78
f 81 80 82
f 81 79 80
f 83 82 84
f 83 81 82
f 85 83 84
f 85 84 86
f 85 86 87
f 88 85 87
f 89 88 87
f 89 87 90
f 91 89 90
f 91 90 92
f 91 92 93
f 94 91 93
f 95 94 93
f 95 93 96
f 97 95 96
f 97 96 98
f 99 97 98
f 99 98 100
f 101 99 100
f 101 100 102
f 103 101 102
f 103 102 104
f 105 103 104
f 105 104 106
f 107 105 106
f 107 106 108
f 109 107 108
f 109 108 110
f 111 109 110
f 111 110 112
f 113 111 112
f 113 112 114
f 115 114 116
f 115 113 114
f 117 116 118
f 117 115 116
f 119 118 120
f 119 117 118
f 121 120 122
f 121 119 120
f 123 122 124
f 123 121 122
f 125 124 126
f 125 123 124
f 127 126 128
f 127 125 126
f 129 128 130
f 129 130 131
f 129 127 128
f 132 129 131
f 133 131 134
f 133 132 131
f 135 133 134
f 135 134 136
f 137 135 136
f 137 136 138
f 139 137 138
f 139 138 140
f 141 139 140
f 141 140 142
f 143 141 142
f 143 142 144
f 145 143 144
f 145 144 146
f 147 148 149
f 147 150 148
f 151 147 149
f 152 150 147
f 153 149 154
f 153 151 149
f 155 150 152
f 156 155 152
f 157 154 158
f 157 153 154
f 159 160 155
f 159 155 156
f 161 158 162
f 161 157 158
f 163 160 159
f 163 164 160
f 165 162 166
f 165 161 162
f 167 164 163
f 168 167 163
f 169 166 170
f 169 165 166
f 171 169 170
f 172 173 167
f 172 167 168
f 174 169 171
f 175 176 173
f 175 173 172
f 177 174 171
f 177 171 178
f 179 176 175
f 180 177 178
f 181 179 175
f 182 177 180
f 183 179 181
f 183 181 184
f 185 182 180
f 185 186 182
f 187 186 185
f 188 184 189
f 188 183 184
f 190 187 185
f 191 188 189
f 192 188 191
f 193 187 190
f 193 194 187
f 195 194 193
f 196 191 197
f 196 192 191
f 198 195 193
f 199 197 200
f 199 196 197
f 201 202 195
f 201 195 198
f 203 200 204
f 203 199 200
f 205 206 202
f 205 202 201
f 207 204 208
f 207 203 204
f 209 210 206
f 209 206 205
f 211 208 212
f 211 212 213
f 211 207 208
f 214 210 209
f 214 215 210
f 216 211 213
f 217 215 214
f 217 216 213
f 217 213 218
f 217 218 215
f 219 220 221
f 222 220 219
f 223 219 224
f 223 222 219
f 225 224 226
f 225 223 224
f 227 226 228
f 227 225 226
f 229 228 230
f 229 227 228
f 231 230 232
f 231 229 230
f 233 231 232
f 233 232 234
f 235 233 234
f 235 234 236
f 237 235 236
f 237 236 238
f 239 237 238
f 239 238 240
f 241 239 240
f 241 240 242
f 243 241 242
f 243 242 244
f 245 243 244
f 246 243 245
f 247 246 245
f 247 245 248
f 249 247 248
f 249 248 250
f 251 249 250
f 252 249 251
f 253 252 251
f 253 251 254
f 255 253 254
f 255 254 256
f 257 255 256
f 257 256 258
f 259 257 258
f 259 258 260
f 261 260 262
f 261 259 260
f 263 261 262
f 264 261 263
f 265 263 266
f 265 264 263
f 267 265 266
f 268 265 267
f 269 267 270
f 269 268 267
f 271 269 270
f 272 269 271
f 273 271 274
f 273 272 271
f 275 273 274
f 276 273 275
f 277 275 278
f 277 276 275
f 279 278 280
f 279 277 278
f 281 280 282
f 281 279 280
f 283 281 282
f 284 281 283
f 285 284 283
f 285 283 286
f 287 285 286
f 287 286 288
f 289 287 288
f 289 288 290
f 220 289 290
f 220 290 221
f 291 292 293
f 291 294 292
f 295 296 297
f 295 297 294
f 298 293 299
f 298 291 293
f 300 296 295
f 301 298 299
f 302 300 295
f 303 298 301
f 304 305 300
f 306 300 307
f 308 303 301
f 308 301 309
f 310 305 306
f 310 311 305
f 312 309 313
f 312 308 309
f 314 315 311
f 314 311 310
f 316 312 313
f 316 313 317
f 318 319 315
f 318 320 321
f 322 316 317
f 322 317 323
f 324 322 323
f 325 326 319
f 325 319 318
f 327 322 324
f 328 329 326
f 328 326 325
f 330 324 331
f 332 327 324
f 333 329 328
f 333 328 334
f 335 332 336
f 335 337 332
f 338 334 339
f 338 333 334
f 340 337 335
f 340 341 337
f 342 339 343
f 342 338 339
f 344 341 340
f 344 345 341
f 346 342 343
f 347 342 346
f 348 349 345
f 348 345 344
f 350 349 348
f 351 346 352
f 351 347 346
f 353 350 348
f 354 352 355
f 354 351 352
f 356 357 350
f 356 350 353
f 358 354 355
f 359 354 358
f 360 361 357
f 360 362 363
f 364 359 358
f 365 359 364
f 366 367 361
f 366 361 360
f 368 365 364
f 368 364 369
f 370 367 366
f 370 368 369
f 370 369 371
f 370 371 367
f 372 373 374
f 375 376 373
f 375 373 372
f 377 376 375
f 378 379 376
f 378 376 377
f 380 381 379
f 380 379 378
f 382 383 381
f 382 381 380
f 384 383 382
f 384 385 383
f 386 385 384
f 386 387 385
f 388 387 386
f 388 389 387
f 388 390 389
f 391 390 388
f 392 390 391
f 392 393 390
f 394 393 392
f 394 395 393
f 394 396 395
f 397 396 394
f 398 396 397
f 398 399 396
f 400 399 398
f 400 401 399
f 400 402 401
f 403 402 400
f 403 404 402
f 405 404 403
f 406 404 405
f 406 407 404
f 408 407 406
f 408 409 407
f 410 409 408
f 410 411 409
f 410 412 411
f 413 412 410
f 414 412 413
f 414 415 412
f 416 417 415
f 416 418 417
f 416 415 414
f 419 420 418
f 419 418 416
f 421 420 419
f 422 423 420
f 422 420 421
f 424 425 423
f 424 426 425
f 424 423 422
f 427 426 424
f 428 429 426
f 428 430 429
f 428 426 427
f 431 430 428
f 432 433 430
f 432 430 431
f 434 435 433
f 434 433 432
f 436 435 434
f 436 437 435
f 438 437 436
f 438 439 437
f 438 440 439
f 441 440 438
f 442 440 441
f 442 443 440
f 444 443 442
f 444 445 443

