# https://github.com/mikedh/trimesh
v 0.05438908 0.09099998 -0.04563694
v 0.05532410 0.09099998 -0.04612475
v 0.04647394 0.09099998 -0.05503093
v 0.04563787 0.09099998 -0.05438816
v 0.03621169 0.09099998 -0.06226497
v 0.06148776 0.09099998 -0.03549897
v 0.06249323 0.09099998 -0.03581702
v 0.03549995 0.09099998 -0.06148678
v 0.02484920 0.09099997 -0.06760715
v 0.06671813 0.09099998 -0.02428245
v 0.06776359 0.09099998 -0.02442103
v 0.06249323 0.09099998 -0.03581702
v 0.06671813 0.09099998 -0.02428245
v 0.02428337 0.09099997 -0.06671719
v 0.01273164 0.09099997 -0.07089506
v 0.06992128 0.09099998 -0.01232802
v 0.07097497 0.09099998 -0.01228296
v 0.06992128 0.09099998 -0.01232802
v 0.06776359 0.09099998 -0.02442103
v 0.01232895 0.09099997 -0.06992035
v 0.00022728 0.09099996 -0.07202880
v 0.07099994 0.09099998 0.00000098
v 0.07202979 0.09099998 0.00022829
v 0.07097497 0.09099998 -0.01228296
v 0.06992128 0.09099998 -0.01232802
v -0.00000003 0.09099996 -0.07099901
v -0.01228401 0.09099996 -0.07097398
v 0.06992128 0.09099998 0.01232999
v 0.07202979 0.09099998 0.00022829
v 0.07099994 0.09099998 0.00000098
v 0.06992128 0.09099998 0.01232999
v 0.07089599 0.09099998 0.01273262
v -0.01232901 0.09099996 -0.06992035
v -0.02442207 0.09099995 -0.06776267
v 0.06671813 0.09099998 0.02428436
v 0.06760808 0.09099998 0.02485018
v -0.02428343 0.09099995 -0.06671719
v -0.03581807 0.09099995 -0.06249231
v 0.06148776 0.09099998 0.03550094
v 0.06671813 0.09099998 0.02428436
v 0.06226596 0.09099998 0.03621274
v -0.03550001 0.09099995 -0.06148678
v -0.04612574 0.09099995 -0.05532318
v 0.05438908 0.09099998 0.04563886
v -0.04563793 0.09099995 -0.05438816
v 0.05503186 0.09099998 0.04647493
v -0.05503192 0.09099995 -0.04647302
v 0.04563787 0.09099998 0.05439013
v 0.05438908 0.09099998 0.04563886
v -0.05438914 0.09099995 -0.04563694
v 0.04612568 0.09099998 0.05532509
v 0.04563787 0.09099998 0.05439013
v 0.03549995 0.09099997 0.06148874
v -0.06226602 0.09099994 -0.03621077
v -0.06148782 0.09099995 -0.03549897
v -0.06226602 0.09099994 -0.03621077
v 0.03581801 0.09099997 0.06249427
v 0.02428337 0.09099997 0.06671911
v -0.06760814 0.09099994 -0.02484822
v -0.06671819 0.09099994 -0.02428245
v -0.06148782 0.09099995 -0.03549897
v 0.02442201 0.09099997 0.06776459
v 0.01232895 0.09099996 0.06992233
v -0.07089605 0.09099994 -0.01273071
v -0.06992134 0.09099994 -0.01232802
v 0.01228395 0.09099996 0.07097596
v -0.00000003 0.09099996 0.07100094
v -0.07202985 0.09099994 -0.00022633
v -0.07100000 0.09099994 0.00000098
v -0.06992134 0.09099994 -0.01232802
v -0.07202985 0.09099994 -0.00022633
v -0.00022734 0.09099996 0.07203079
v -0.01232901 0.09099995 0.06992233
v -0.07097503 0.09099994 0.01228493
v -0.06992134 0.09099994 0.01232999
v -0.07100000 0.09099994 0.00000098
v -0.07202985 0.09099994 -0.00022633
v -0.01273170 0.09099995 0.07089705
v -0.02428343 0.09099995 0.06671911
v -0.06776365 0.09099994 0.02442300
v -0.06671819 0.09099994 0.02428436
v -0.06776365 0.09099994 0.02442300
v -0.06992134 0.09099994 0.01232999
v -0.07097503 0.09099994 0.01228493
v -0.02484926 0.09099995 0.06760914
v -0.03550001 0.09099995 0.06148874
v -0.06249329 0.09099994 0.03581899
v -0.06148782 0.09099994 0.03550094
v -0.03621175 0.09099995 0.06226694
v -0.04563793 0.09099995 0.05439013
v -0.05532416 0.09099994 0.04612672
v -0.05438914 0.09099994 0.04563886
v -0.04647400 0.09099995 0.05503291
v -0.00000003 0.09200000 0.07100094
v -0.00000003 0.09099996 0.07100094
v 0.01232895 0.09099996 0.06992233
v 0.01232895 0.09200000 0.06992233
v 0.02428337 0.09200001 0.06671911
v 0.02428337 0.09099997 0.06671911
v 0.03549995 0.09200001 0.06148874
v 0.03549995 0.09099997 0.06148874
v 0.04563787 0.09200002 0.05439013
v 0.04563787 0.09099998 0.05439013
v 0.05438908 0.09200002 0.04563886
v 0.05438908 0.09099998 0.04563886
v 0.06148776 0.09200002 0.03550094
v 0.06148776 0.09099998 0.03550094
v 0.06671813 0.09200002 0.02428436
v 0.06671813 0.09099998 0.02428436
v 0.06992128 0.09099998 0.01232999
v 0.06992128 0.09200002 0.01232999
v 0.07099994 0.09200002 0.00000098
v 0.07099994 0.09099998 0.00000098
v 0.06992128 0.09200002 -0.01232802
v 0.06992128 0.09099998 -0.01232802
v 0.06671813 0.09099998 -0.02428245
v 0.06671813 0.09200002 -0.02428245
v 0.06148776 0.09200002 -0.03549897
v 0.06148776 0.09099998 -0.03549897
v 0.05438908 0.09200002 -0.04563694
v 0.05438908 0.09099998 -0.04563694
v 0.04563787 0.09200002 -0.05438816
v 0.04563787 0.09099998 -0.05438816
v 0.03549995 0.09200002 -0.06148678
v 0.03549995 0.09099998 -0.06148678
v 0.02428337 0.09200001 -0.06671719
v 0.02428337 0.09099997 -0.06671719
v 0.01232895 0.09200001 -0.06992035
v 0.01232895 0.09099997 -0.06992035
v -0.00000003 0.09200000 -0.07099901
v -0.00000003 0.09099996 -0.07099901
v -0.01232901 0.09200000 -0.06992035
v -0.01232901 0.09099996 -0.06992035
v -0.02428343 0.09199999 -0.06671719
v -0.02428343 0.09099995 -0.06671719
v -0.03550001 0.09199999 -0.06148678
v -0.03550001 0.09099995 -0.06148678
v -0.04563793 0.09199999 -0.05438816
v -0.04563793 0.09099995 -0.05438816
v -0.05438914 0.09199999 -0.04563694
v -0.05438914 0.09099995 -0.04563694
v -0.06148782 0.09199999 -0.03549897
v -0.06148782 0.09099995 -0.03549897
v -0.06671819 0.09199998 -0.02428245
v -0.06671819 0.09099994 -0.02428245
v -0.06992134 0.09199998 -0.01232802
v -0.06992134 0.09099994 -0.01232802
v -0.07100000 0.09199998 0.00000098
v -0.07100000 0.09099994 0.00000098
v -0.06992134 0.09199998 0.01232999
v -0.06992134 0.09099994 0.01232999
v -0.06671819 0.09099994 0.02428436
v -0.06671819 0.09199998 0.02428436
v -0.06148782 0.09199998 0.03550094
v -0.06148782 0.09099994 0.03550094
v -0.05438914 0.09199998 0.04563886
v -0.05438914 0.09099994 0.04563886
v -0.04563793 0.09199999 0.05439013
v -0.04563793 0.09099995 0.05439013
v -0.03550001 0.09199999 0.06148874
v -0.03550001 0.09099995 0.06148874
v -0.02428343 0.09199999 0.06671911
v -0.02428343 0.09099995 0.06671911
v -0.01232901 0.09199999 0.06992233
v -0.01232901 0.09099995 0.06992233
v -0.00000003 0.09200000 0.07100094
v -0.00000003 0.09099996 0.07100094
v -0.07097503 0.09099994 0.01228493
v -0.07202985 0.09099994 -0.00022633
v -0.07203856 0.09199998 -0.00022636
v -0.07098361 0.09199998 0.01228642
v -0.06776365 0.09099994 0.02442300
v -0.06777188 0.09199998 0.02442598
v -0.06249329 0.09099994 0.03581899
v -0.06250092 0.09199998 0.03582335
v -0.05532416 0.09099994 0.04612672
v -0.05533084 0.09199998 0.04613226
v -0.04647400 0.09099995 0.05503291
v -0.04647967 0.09199999 0.05503953
v -0.03621616 0.09199999 0.06227451
v -0.03621175 0.09099995 0.06226694
v -0.02484926 0.09099995 0.06760914
v -0.02485224 0.09199999 0.06761730
v -0.01273325 0.09199999 0.07090563
v -0.01273170 0.09099995 0.07089705
v -0.00022737 0.09200000 0.07203948
v -0.00022734 0.09099996 0.07203079
v 0.01228544 0.09200000 0.07098455
v 0.01228395 0.09099996 0.07097596
v 0.02442201 0.09099997 0.06776459
v 0.02442494 0.09200001 0.06777281
v 0.03582236 0.09200001 0.06250185
v 0.03581801 0.09099997 0.06249427
v 0.04613128 0.09200002 0.05533182
v 0.04612568 0.09099998 0.05532509
v 0.05503854 0.09200002 0.04648059
v 0.05503186 0.09099998 0.04647493
v 0.06227347 0.09200002 0.03621709
v 0.06226596 0.09099998 0.03621274
v 0.06761631 0.09200002 0.02485322
v 0.06760808 0.09099998 0.02485018
v 0.07089599 0.09099998 0.01273262
v 0.07090458 0.09200002 0.01273417
v 0.07203850 0.09200002 0.00022832
v 0.07202979 0.09099998 0.00022829
v 0.07098355 0.09200002 -0.01228445
v 0.07097497 0.09099998 -0.01228296
v 0.06777182 0.09200002 -0.02442401
v 0.06776359 0.09099998 -0.02442103
v 0.06250086 0.09200002 -0.03582137
v 0.06249323 0.09099998 -0.03581702
v 0.05532410 0.09099998 -0.04612475
v 0.05533078 0.09200002 -0.04613035
v 0.04647961 0.09200002 -0.05503761
v 0.04647394 0.09099998 -0.05503093
v 0.03621610 0.09200002 -0.06227254
v 0.03621169 0.09099998 -0.06226497
v 0.02485218 0.09200001 -0.06761532
v 0.02484920 0.09099997 -0.06760715
v 0.01273319 0.09200001 -0.07090364
v 0.01273164 0.09099997 -0.07089506
v 0.00022728 0.09099996 -0.07202880
v 0.00022731 0.09200000 -0.07203756
v -0.01228550 0.09200000 -0.07098256
v -0.01228401 0.09099996 -0.07097398
v -0.02442207 0.09099995 -0.06776267
v -0.02442500 0.09199999 -0.06777082
v -0.03582242 0.09199999 -0.06249988
v -0.03581807 0.09099995 -0.06249231
v -0.04613134 0.09199999 -0.05532985
v -0.04612574 0.09099995 -0.05532318
v -0.05503860 0.09199999 -0.04647862
v -0.05503192 0.09099995 -0.04647302
v -0.06227353 0.09199998 -0.03621512
v -0.06226602 0.09099994 -0.03621077
v -0.06761637 0.09199998 -0.02485126
v -0.06760814 0.09099994 -0.02484822
v -0.07090464 0.09199998 -0.01273226
v -0.07089605 0.09099994 -0.01273071
v -0.07203856 0.09199998 -0.00022636
v -0.07202985 0.09099994 -0.00022633
v -0.05438914 0.09199999 -0.04563694
v -0.06227353 0.09199998 -0.03621512
v -0.05503860 0.09199999 -0.04647862
v -0.06148782 0.09199999 -0.03549897
v -0.04563793 0.09199999 -0.05438816
v -0.04613134 0.09199999 -0.05532985
v -0.06761637 0.09199998 -0.02485126
v -0.06227353 0.09199998 -0.03621512
v -0.06671819 0.09199998 -0.02428245
v -0.06761637 0.09199998 -0.02485126
v -0.03550001 0.09199999 -0.06148678
v -0.03582242 0.09199999 -0.06249988
v -0.07090464 0.09199998 -0.01273226
v -0.06992134 0.09199998 -0.01232802
v -0.07090464 0.09199998 -0.01273226
v -0.06671819 0.09199998 -0.02428245
v -0.02428343 0.09199999 -0.06671719
v -0.02442500 0.09199999 -0.06777082
v -0.07203856 0.09199998 -0.00022636
v -0.07100000 0.09199998 0.00000098
v -0.07203856 0.09199998 -0.00022636
v -0.06992134 0.09199998 -0.01232802
v -0.01232901 0.09200000 -0.06992035
v -0.01228550 0.09200000 -0.07098256
v -0.07098361 0.09199998 0.01228642
v -0.06992134 0.09199998 0.01232999
v -0.07100000 0.09199998 0.00000098
v -0.00000003 0.09200000 -0.07099901
v 0.00022731 0.09200000 -0.07203756
v -0.06777188 0.09199998 0.02442598
v -0.06671819 0.09199998 0.02428436
v -0.06777188 0.09199998 0.02442598
v -0.06992134 0.09199998 0.01232999
v 0.01232895 0.09200001 -0.06992035
v 0.01273319 0.09200001 -0.07090364
v -0.06250092 0.09199998 0.03582335
v -0.06777188 0.09199998 0.02442598
v -0.06671819 0.09199998 0.02428436
v -0.06148782 0.09199998 0.03550094
v 0.02428337 0.09200001 -0.06671719
v 0.02485218 0.09200001 -0.06761532
v -0.05533084 0.09199998 0.04613226
v -0.05438914 0.09199998 0.04563886
v 0.03549995 0.09200002 -0.06148678
v 0.03621610 0.09200002 -0.06227254
v 0.03549995 0.09200002 -0.06148678
v 0.02485218 0.09200001 -0.06761532
v -0.04647967 0.09199999 0.05503953
v -0.04563793 0.09199999 0.05439013
v 0.04563787 0.09200002 -0.05438816
v 0.03621610 0.09200002 -0.06227254
v 0.04647961 0.09200002 -0.05503761
v -0.03621616 0.09199999 0.06227451
v -0.03550001 0.09199999 0.06148874
v 0.05438908 0.09200002 -0.04563694
v 0.04563787 0.09200002 -0.05438816
v 0.05533078 0.09200002 -0.04613035
v -0.02485224 0.09199999 0.06761730
v -0.02428343 0.09199999 0.06671911
v 0.06148776 0.09200002 -0.03549897
v 0.05533078 0.09200002 -0.04613035
v 0.06250086 0.09200002 -0.03582137
v 0.06148776 0.09200002 -0.03549897
v -0.01273325 0.09199999 0.07090563
v -0.01232901 0.09199999 0.06992233
v 0.06671813 0.09200002 -0.02428245
v 0.06777182 0.09200002 -0.02442401
v -0.00022737 0.09200000 0.07203948
v -0.00000003 0.09200000 0.07100094
v 0.06992128 0.09200002 -0.01232802
v 0.06671813 0.09200002 -0.02428245
v 0.06777182 0.09200002 -0.02442401
v 0.07098355 0.09200002 -0.01228445
v 0.06992128 0.09200002 -0.01232802
v 0.06777182 0.09200002 -0.02442401
v 0.01228544 0.09200000 0.07098455
v 0.01232895 0.09200000 0.06992233
v 0.07099994 0.09200002 0.00000098
v 0.07203850 0.09200002 0.00022832
v 0.07098355 0.09200002 -0.01228445
v 0.02442494 0.09200001 0.06777281
v 0.02428337 0.09200001 0.06671911
v 0.06992128 0.09200002 0.01232999
v 0.07090458 0.09200002 0.01273417
v 0.06992128 0.09200002 0.01232999
v 0.07203850 0.09200002 0.00022832
v 0.06671813 0.09200002 0.02428436
v 0.06992128 0.09200002 0.01232999
v 0.07090458 0.09200002 0.01273417
v 0.03582236 0.09200001 0.06250185
v 0.03549995 0.09200001 0.06148874
v 0.06761631 0.09200002 0.02485322
v 0.06148776 0.09200002 0.03550094
v 0.04613128 0.09200002 0.05533182
v 0.04563787 0.09200002 0.05439013
v 0.06227347 0.09200002 0.03621709
v 0.06148776 0.09200002 0.03550094
v 0.06761631 0.09200002 0.02485322
v 0.06227347 0.09200002 0.03621709
v 0.05438908 0.09200002 0.04563886
v 0.05503854 0.09200002 0.04648059
f 1 2 3
f 4 1 3
f 5 4 3
f 6 7 2
f 6 2 1
f 8 4 5
f 9 8 5
f 10 11 12
f 13 7 6
f 14 8 9
f 15 14 9
f 16 17 11
f 18 19 13
f 20 14 15
f 21 20 15
f 22 23 24
f 22 24 25
f 26 20 21
f 27 26 21
f 28 29 30
f 31 32 23
f 33 26 27
f 34 33 27
f 35 32 31
f 35 36 32
f 37 33 34
f 38 37 34
f 39 36 40
f 39 41 36
f 42 37 38
f 43 42 38
f 44 41 39
f 45 42 43
f 46 41 44
f 47 45 43
f 48 46 49
f 50 45 47
f 51 46 52
f 53 51 52
f 54 55 50
f 56 50 47
f 57 51 53
f 58 57 53
f 59 60 55
f 59 61 56
f 62 57 58
f 63 62 58
f 64 65 60
f 64 60 59
f 66 62 63
f 67 66 63
f 68 69 70
f 71 65 64
f 72 66 67
f 73 72 67
f 74 75 76
f 74 76 77
f 78 72 73
f 79 78 73
f 80 81 75
f 82 83 84
f 85 78 79
f 86 85 79
f 87 88 81
f 87 81 82
f 89 85 86
f 90 89 86
f 91 88 87
f 91 92 88
f 93 92 91
f 93 90 92
f 93 89 90
f 94 95 96
f 97 94 96
f 98 96 99
f 98 97 96
f 100 99 101
f 100 98 99
f 102 101 103
f 102 100 101
f 104 103 105
f 104 102 103
f 106 104 105
f 106 105 107
f 108 106 107
f 108 109 110
f 108 107 109
f 111 108 110
f 112 111 110
f 112 110 113
f 114 112 113
f 114 115 116
f 114 113 115
f 117 114 116
f 118 117 116
f 118 116 119
f 120 118 119
f 120 119 121
f 122 120 121
f 122 121 123
f 124 122 123
f 124 123 125
f 126 124 125
f 126 125 127
f 128 126 127
f 128 127 129
f 130 128 129
f 130 129 131
f 132 131 133
f 132 130 131
f 134 133 135
f 134 132 133
f 136 135 137
f 136 134 135
f 138 137 139
f 138 136 137
f 140 139 141
f 140 138 139
f 142 141 143
f 142 140 141
f 144 143 145
f 144 142 143
f 146 145 147
f 146 144 145
f 148 147 149
f 148 146 147
f 150 151 152
f 150 149 151
f 150 148 149
f 153 150 152
f 154 152 155
f 154 153 152
f 156 155 157
f 156 154 155
f 158 156 157
f 158 157 159
f 160 158 159
f 160 159 161
f 162 160 161
f 162 161 163
f 164 162 163
f 164 163 165
f 166 164 165
f 166 165 167
f 168 169 170
f 171 168 170
f 172 168 171
f 173 172 171
f 174 172 173
f 175 174 173
f 176 174 175
f 177 176 175
f 178 176 177
f 179 178 177
f 180 178 179
f 180 181 178
f 182 181 180
f 183 182 180
f 184 182 183
f 184 185 182
f 186 185 184
f 186 187 185
f 188 187 186
f 188 189 187
f 190 189 188
f 191 190 188
f 192 190 191
f 192 193 190
f 194 193 192
f 194 195 193
f 196 195 194
f 196 197 195
f 198 197 196
f 198 199 197
f 200 199 198
f 200 201 199
f 202 201 200
f 203 202 200
f 204 202 203
f 204 205 202
f 206 205 204
f 206 207 205
f 208 207 206
f 208 209 207
f 210 211 209
f 210 209 208
f 212 211 210
f 213 212 210
f 214 215 212
f 214 212 213
f 216 217 215
f 216 215 214
f 218 219 217
f 218 217 216
f 220 221 219
f 220 219 218
f 222 221 220
f 223 222 220
f 224 225 222
f 224 222 223
f 226 225 224
f 227 226 224
f 228 229 226
f 228 226 227
f 230 231 229
f 230 229 228
f 232 231 230
f 232 233 231
f 234 233 232
f 234 235 233
f 236 235 234
f 236 237 235
f 238 237 236
f 238 239 237
f 240 239 238
f 240 241 239
f 242 243 244
f 245 243 242
f 246 244 247
f 246 242 244
f 248 249 245
f 250 251 245
f 252 247 253
f 252 246 247
f 254 251 250
f 255 256 257
f 258 253 259
f 258 252 253
f 260 254 255
f 261 262 263
f 264 259 265
f 264 258 259
f 266 262 261
f 267 266 268
f 269 264 265
f 269 265 270
f 271 266 267
f 272 273 274
f 275 269 270
f 275 270 276
f 277 278 279
f 280 277 279
f 281 275 276
f 281 276 282
f 283 277 280
f 284 283 280
f 285 281 282
f 286 287 288
f 289 283 284
f 290 289 284
f 291 285 292
f 293 291 292
f 294 289 290
f 295 294 290
f 296 297 293
f 298 296 293
f 299 295 300
f 299 294 295
f 301 296 302
f 303 304 298
f 305 300 306
f 305 299 300
f 307 304 303
f 308 307 303
f 309 306 310
f 309 305 306
f 311 312 313
f 314 315 316
f 317 309 310
f 317 310 318
f 319 315 314
f 320 319 321
f 322 318 323
f 322 317 318
f 324 319 320
f 325 326 327
f 328 329 330
f 331 322 323
f 331 323 332
f 333 328 330
f 334 328 333
f 335 332 336
f 335 331 332
f 337 338 339
f 340 341 334
f 342 341 340
f 342 336 341
f 342 335 336

