# https://github.com/mikedh/trimesh
v 0.00474554 0.04515129 -0.05919998
v 0.00474554 0.04515129 -0.05999994
v 0.00000000 0.04539996 -0.05919998
v 0.00000000 0.04539996 -0.05999994
v 0.00000000 0.04539996 -0.05919998
v 0.00000000 0.04539996 -0.05999994
v -0.00474560 0.04515129 -0.05919998
v -0.00474560 0.04515129 -0.05999994
v -0.00943917 0.04440784 -0.05999994
v 0.00943917 0.04440784 -0.05919998
v 0.00943917 0.04440784 -0.05999994
v 0.01402932 0.04317795 -0.05919998
v 0.01402932 0.04317795 -0.05999994
v 0.01846581 0.04147493 -0.05919998
v 0.01846581 0.04147493 -0.05999994
v 0.02269995 0.03931754 -0.05919998
v 0.02269995 0.03931754 -0.05999994
v 0.02668541 0.03672932 -0.05919998
v 0.02668541 0.03672932 -0.05999994
v 0.03037852 0.03373872 -0.05919998
v 0.03037852 0.03373872 -0.05999994
v 0.03373872 0.03037852 -0.05919998
v 0.03373872 0.03037852 -0.05999994
v 0.03672932 0.02668541 -0.05919998
v 0.03672932 0.02668541 -0.05999994
v 0.03931748 0.02269995 -0.05919998
v 0.03931748 0.02269995 -0.05999994
v 0.04147493 0.01846581 -0.05919998
v 0.04147493 0.01846581 -0.05999994
v 0.04317795 0.01402932 -0.05919998
v 0.04317795 0.01402932 -0.05999994
v 0.04440784 0.00943917 -0.05919998
v 0.04440784 0.00943917 -0.05999994
v 0.04515123 0.00474554 -0.05919998
v 0.04515123 0.00474554 -0.05999994
v 0.04539996 -0.00000000 -0.05919998
v 0.04539996 -0.00000000 -0.05999994
v 0.04515123 -0.00474554 -0.05919998
v 0.04515123 -0.00474554 -0.05999994
v 0.04440784 -0.00943917 -0.05919998
v 0.04440784 -0.00943917 -0.05999994
v 0.04317795 -0.01402932 -0.05919998
v 0.04317795 -0.01402932 -0.05999994
v 0.04147493 -0.01846581 -0.05919998
v 0.04147493 -0.01846581 -0.05999994
v 0.03931754 -0.02269995 -0.05919998
v 0.03931754 -0.02269995 -0.05999994
v 0.03672932 -0.02668541 -0.05919998
v 0.03672932 -0.02668541 -0.05999994
v 0.03373872 -0.03037852 -0.05919998
v 0.03373872 -0.03037852 -0.05999994
v 0.03037852 -0.03373872 -0.05919998
v 0.03037852 -0.03373872 -0.05999994
v 0.02668541 -0.03672932 -0.05919998
v 0.02668541 -0.03672932 -0.05999994
v 0.02269995 -0.03931754 -0.05919998
v 0.02269995 -0.03931754 -0.05999994
v 0.01846581 -0.04147493 -0.05919998
v 0.01846581 -0.04147493 -0.05999994
v 0.01402932 -0.04317795 -0.05919998
v 0.01402932 -0.04317795 -0.05999994
v 0.00943917 -0.04440784 -0.05919998
v 0.00943917 -0.04440784 -0.05999994
v 0.00474554 -0.04515129 -0.05919998
v 0.00474554 -0.04515129 -0.05999994
v 0.00000000 -0.04539996 -0.05919998
v 0.00000000 -0.04539996 -0.05999994
v -0.00474554 -0.04515129 -0.05919998
v -0.00474554 -0.04515129 -0.05999994
v -0.00943917 -0.04440784 -0.05919998
v -0.00943917 -0.04440784 -0.05999994
v -0.01402932 -0.04317795 -0.05919998
v -0.01402932 -0.04317795 -0.05999994
v -0.01846581 -0.04147493 -0.05919998
v -0.01846581 -0.04147493 -0.05999994
v -0.02269995 -0.03931754 -0.05919998
v -0.02269995 -0.03931754 -0.05999994
v -0.02668541 -0.03672932 -0.05919998
v -0.02668541 -0.03672932 -0.05999994
v -0.03037852 -0.03373872 -0.05919998
v -0.03037852 -0.03373872 -0.05999994
v -0.03373872 -0.03037852 -0.05919998
v -0.03373872 -0.03037852 -0.05999994
v -0.03672932 -0.02668541 -0.05919998
v -0.03672932 -0.02668541 -0.05999994
v -0.03931754 -0.02269995 -0.05919998
v -0.03931754 -0.02269995 -0.05999994
v -0.04147493 -0.01846581 -0.05919998
v -0.04147493 -0.01846581 -0.05999994
v -0.04317795 -0.01402932 -0.05919998
v -0.04317795 -0.01402932 -0.05999994
v -0.04440790 -0.00943917 -0.05919998
v -0.04440790 -0.00943917 -0.05999994
v -0.04515129 -0.00474554 -0.05919998
v -0.04515129 -0.00474554 -0.05999994
v -0.04539996 -0.00000000 -0.05919998
v -0.04539996 -0.00000000 -0.05999994
v -0.04515129 0.00474554 -0.05919998
v -0.04515129 0.00474554 -0.05999994
v -0.04440790 0.00943917 -0.05919998
v -0.04440790 0.00943917 -0.05999994
v -0.04317795 0.01402932 -0.05919998
v -0.04317795 0.01402932 -0.05999994
v -0.04147493 0.01846581 -0.05919998
v -0.04147493 0.01846581 -0.05999994
v -0.03931754 0.02269995 -0.05919998
v -0.03931754 0.02269995 -0.05999994
v -0.03672932 0.02668541 -0.05919998
v -0.03672932 0.02668541 -0.05999994
v -0.03373872 0.03037852 -0.05919998
v -0.03373872 0.03037852 -0.05999994
v -0.03037852 0.03373872 -0.05919998
v -0.03037852 0.03373872 -0.05999994
v -0.02668541 0.03672932 -0.05919998
v -0.02668541 0.03672932 -0.05999994
v -0.02270001 0.03931754 -0.05919998
v -0.02270001 0.03931754 -0.05999994
v -0.01846581 0.04147493 -0.05919998
v -0.01846581 0.04147493 -0.05999994
v -0.01402938 0.04317795 -0.05919998
v -0.01402938 0.04317795 -0.05999994
v -0.00943917 0.04440784 -0.05919998
v 0.00000000 0.04519999 -0.05899995
v -0.00480443 0.04494392 -0.05899995
v 0.00480443 0.04494392 -0.05899995
v -0.00955450 0.04417860 -0.05899995
v -0.01419627 0.04291272 -0.05899995
v -0.01867717 0.04116064 -0.05899995
v -0.02294647 0.03894221 -0.05899995
v -0.02695578 0.03628252 -0.05899995
v -0.03065967 0.03321176 -0.05899995
v -0.03401618 0.02976471 -0.05899995
v -0.03698724 0.02598035 -0.05899995
v -0.03953927 0.02190166 -0.05899995
v -0.04164325 0.01757484 -0.05899995
v -0.04327547 0.01304882 -0.05899995
v -0.04441732 0.00837499 -0.05899995
v -0.04505586 0.00360632 -0.05899995
v -0.04518395 -0.00120324 -0.05899995
v -0.04480010 -0.00599915 -0.05899995
v -0.04390858 -0.01072716 -0.05899995
v -0.04251962 -0.01533359 -0.05899995
v -0.04064887 -0.01976627 -0.05899995
v -0.03831756 -0.02397501 -0.05899995
v -0.03555208 -0.02791208 -0.05899995
v -0.03238378 -0.03153294 -0.05899995
v -0.02884858 -0.03479647 -0.05899995
v -0.02498656 -0.03766578 -0.05899995
v -0.02084136 -0.04010826 -0.05899995
v -0.01646000 -0.04209637 -0.05899995
v -0.01189219 -0.04360747 -0.05899995
v -0.00718963 -0.04462450 -0.05899995
v -0.00240558 -0.04513591 -0.05899995
v 0.00240558 -0.04513591 -0.05899995
v 0.00718963 -0.04462450 -0.05899995
v 0.00955444 0.04417860 -0.05899995
v 0.01189219 -0.04360747 -0.05899995
v 0.01419621 0.04291272 -0.05899995
v 0.01646006 -0.04209637 -0.05899995
v 0.01867717 0.04116064 -0.05899995
v 0.02084136 -0.04010826 -0.05899995
v 0.02294647 0.03894221 -0.05899995
v 0.02498656 -0.03766572 -0.05899995
v 0.02695578 0.03628252 -0.05899995
v 0.02884858 -0.03479647 -0.05899995
v 0.03065967 0.03321176 -0.05899995
v 0.03238378 -0.03153288 -0.05899995
v 0.03401612 0.02976471 -0.05899995
v 0.03555208 -0.02791208 -0.05899995
v 0.03698724 0.02598035 -0.05899995
v 0.03831756 -0.02397501 -0.05899995
v 0.03953927 0.02190166 -0.05899995
v 0.04064887 -0.01976627 -0.05899995
v 0.04164325 0.01757484 -0.05899995
v 0.04251962 -0.01533359 -0.05899995
v 0.04327540 0.01304888 -0.05899995
v 0.04390858 -0.01072710 -0.05899995
v 0.04441725 0.00837505 -0.05899995
v 0.04480010 -0.00599915 -0.05899995
v 0.04441725 0.00837505 -0.05899995
v 0.04480010 -0.00599915 -0.05899995
v 0.04505586 0.00360632 -0.05899995
v 0.04518395 -0.00120324 -0.05899995
v -0.00474560 0.04515129 -0.05999994
v 0.00000000 0.04539996 -0.05999994
v 0.00000000 0.04275000 -0.05999994
v 0.00474554 0.04515129 -0.05999994
v 0.00462204 0.04249936 -0.05999994
v 0.00943917 0.04440784 -0.05999994
v 0.00918996 0.04175049 -0.05999994
v 0.01402932 0.04317795 -0.05999994
v 0.01365011 0.04051214 -0.05999994
v 0.01846581 0.04147493 -0.05999994
v 0.01795023 0.03879880 -0.05999994
v 0.02269995 0.03931754 -0.05999994
v 0.02203989 0.03663063 -0.05999994
v 0.02668541 0.03672932 -0.05999994
v 0.02587115 0.03403294 -0.05999994
v 0.03037852 0.03373872 -0.05999994
v 0.02939909 0.03103625 -0.05999994
v 0.03373872 0.03037852 -0.05999994
v 0.03258239 0.02767574 -0.05999994
v 0.03672932 0.02668541 -0.05999994
v 0.03538364 0.02399075 -0.05999994
v 0.03931748 0.02269995 -0.05999994
v 0.03777009 0.02002441 -0.05999994
v 0.04147493 0.01846581 -0.05999994
v 0.03971374 0.01582336 -0.05999994
v 0.04317795 0.01402932 -0.05999994
v 0.04119175 0.01143682 -0.05999994
v 0.04440784 0.00943917 -0.05999994
v 0.04218679 0.00691616 -0.05999994
v 0.04515123 0.00474554 -0.05999994
v 0.04268729 0.00231439 -0.05999994
v 0.04539996 -0.00000000 -0.05999994
v 0.04268729 -0.00231439 -0.05999994
v 0.04515123 -0.00474554 -0.05999994
v 0.04218679 -0.00691616 -0.05999994
v 0.04440784 -0.00943917 -0.05999994
v 0.04119175 -0.01143682 -0.05999994
v 0.04317795 -0.01402932 -0.05999994
v 0.03971374 -0.01582336 -0.05999994
v 0.04147493 -0.01846581 -0.05999994
v 0.03777009 -0.02002441 -0.05999994
v 0.03931754 -0.02269995 -0.05999994
v 0.03538364 -0.02399069 -0.05999994
v 0.03672932 -0.02668541 -0.05999994
v 0.03258239 -0.02767574 -0.05999994
v 0.03373872 -0.03037852 -0.05999994
v 0.02939909 -0.03103625 -0.05999994
v 0.03037852 -0.03373872 -0.05999994
v 0.02587115 -0.03403294 -0.05999994
v 0.02668541 -0.03672932 -0.05999994
v 0.02203989 -0.03663063 -0.05999994
v 0.02269995 -0.03931754 -0.05999994
v 0.01795023 -0.03879880 -0.05999994
v 0.01846581 -0.04147493 -0.05999994
v 0.01365011 -0.04051214 -0.05999994
v 0.01402932 -0.04317795 -0.05999994
v 0.00918996 -0.04175049 -0.05999994
v 0.00943917 -0.04440784 -0.05999994
v 0.00462204 -0.04249936 -0.05999994
v 0.00474554 -0.04515129 -0.05999994
v 0.00000000 -0.04275000 -0.05999994
v 0.00000000 -0.04539996 -0.05999994
v -0.00474554 -0.04515129 -0.05999994
v -0.00462204 -0.04249936 -0.05999994
v -0.00943917 -0.04440784 -0.05999994
v -0.00918996 -0.04175049 -0.05999994
v -0.01402932 -0.04317795 -0.05999994
v -0.01365011 -0.04051214 -0.05999994
v -0.01846581 -0.04147493 -0.05999994
v -0.01795023 -0.03879880 -0.05999994
v -0.02269995 -0.03931754 -0.05999994
v -0.02203989 -0.03663063 -0.05999994
v -0.02668541 -0.03672932 -0.05999994
v -0.02587115 -0.03403294 -0.05999994
v -0.03037852 -0.03373872 -0.05999994
v -0.02939915 -0.03103625 -0.05999994
v -0.03373872 -0.03037852 -0.05999994
v -0.03258239 -0.02767574 -0.05999994
v -0.03672932 -0.02668541 -0.05999994
v -0.03538370 -0.02399075 -0.05999994
v -0.03931754 -0.02269995 -0.05999994
v -0.03777009 -0.02002441 -0.05999994
v -0.04147493 -0.01846581 -0.05999994
v -0.03971374 -0.01582336 -0.05999994
v -0.04317795 -0.01402932 -0.05999994
v -0.04119175 -0.01143682 -0.05999994
v -0.04440790 -0.00943917 -0.05999994
v -0.04218679 -0.00691616 -0.05999994
v -0.04515129 -0.00474554 -0.05999994
v -0.04268729 -0.00231439 -0.05999994
v -0.04539996 -0.00000000 -0.05999994
v -0.04268729 0.00231439 -0.05999994
v -0.04515129 0.00474554 -0.05999994
v -0.04218679 0.00691616 -0.05999994
v -0.04440790 0.00943917 -0.05999994
v -0.04119175 0.01143682 -0.05999994
v -0.04317795 0.01402932 -0.05999994
v -0.03971374 0.01582336 -0.05999994
v -0.04147493 0.01846581 -0.05999994
v -0.03777009 0.02002441 -0.05999994
v -0.03931754 0.02269995 -0.05999994
v -0.03538370 0.02399069 -0.05999994
v -0.03672932 0.02668541 -0.05999994
v -0.03258239 0.02767574 -0.05999994
v -0.03373872 0.03037852 -0.05999994
v -0.02939915 0.03103625 -0.05999994
v -0.03037852 0.03373872 -0.05999994
v -0.02587115 0.03403294 -0.05999994
v -0.02668541 0.03672932 -0.05999994
v -0.02203989 0.03663063 -0.05999994
v -0.02270001 0.03931754 -0.05999994
v -0.01795023 0.03879880 -0.05999994
v -0.01846581 0.04147493 -0.05999994
v -0.01365011 0.04051214 -0.05999994
v -0.01402938 0.04317795 -0.05999994
v -0.00918996 0.04175049 -0.05999994
v -0.00943917 0.04440784 -0.05999994
v -0.00462204 0.04249936 -0.05999994
v 0.00462204 -0.04249936 -0.06299996
v 0.00462204 -0.04249936 -0.05999994
v 0.00000000 -0.04275000 -0.06299996
v 0.00000000 -0.04275000 -0.05999994
v 0.00000000 -0.04275000 -0.05999994
v -0.00462204 -0.04249936 -0.06299996
v -0.00462204 -0.04249936 -0.05999994
v -0.00918996 -0.04175049 -0.06299996
v -0.00918996 -0.04175049 -0.05999994
v -0.01365011 -0.04051214 -0.06299996
v -0.01365011 -0.04051214 -0.05999994
v -0.01795023 -0.03879880 -0.06299996
v -0.01795023 -0.03879880 -0.05999994
v -0.02203989 -0.03663063 -0.06299996
v -0.02203989 -0.03663063 -0.05999994
v -0.02587115 -0.03403294 -0.06299996
v -0.02587115 -0.03403294 -0.05999994
v -0.02939915 -0.03103625 -0.06299996
v -0.02939915 -0.03103625 -0.05999994
v -0.03258239 -0.02767574 -0.06299996
v -0.03258239 -0.02767574 -0.05999994
v -0.03538370 -0.02399075 -0.06299996
v -0.03538370 -0.02399075 -0.05999994
v -0.03777009 -0.02002441 -0.06299996
v -0.03777009 -0.02002441 -0.05999994
v -0.03971374 -0.01582336 -0.06299996
v -0.03971374 -0.01582336 -0.05999994
v -0.04119175 -0.01143682 -0.06299996
v -0.04119175 -0.01143682 -0.05999994
v -0.04218679 -0.00691616 -0.06299996
v -0.04218679 -0.00691616 -0.05999994
v -0.04268729 -0.00231439 -0.06299996
v -0.04268729 -0.00231439 -0.05999994
v -0.04268729 0.00231439 -0.06299996
v -0.04268729 0.00231439 -0.05999994
v -0.04218679 0.00691616 -0.06299996
v -0.04218679 0.00691616 -0.05999994
v -0.04119175 0.01143682 -0.06299996
v -0.04119175 0.01143682 -0.05999994
v -0.03971374 0.01582336 -0.06299996
v -0.03971374 0.01582336 -0.05999994
v -0.03777009 0.02002441 -0.06299996
v -0.03777009 0.02002441 -0.05999994
v -0.03538370 0.02399069 -0.06299996
v -0.03538370 0.02399069 -0.05999994
v -0.03258239 0.02767574 -0.06299996
v -0.03258239 0.02767574 -0.05999994
v -0.02939915 0.03103625 -0.06299996
v -0.02939915 0.03103625 -0.05999994
v -0.02587115 0.03403294 -0.06299996
v -0.02587115 0.03403294 -0.05999994
v -0.02203989 0.03663063 -0.06299996
v -0.02203989 0.03663063 -0.05999994
v -0.01795023 0.03879880 -0.06299996
v -0.01795023 0.03879880 -0.05999994
v -0.01365011 0.04051214 -0.06299996
v -0.01365011 0.04051214 -0.05999994
v -0.00918996 0.04175049 -0.06299996
v -0.00918996 0.04175049 -0.05999994
v -0.00462204 0.04249936 -0.06299996
v -0.00462204 0.04249936 -0.05999994
v 0.00000000 0.04275000 -0.06299996
v 0.00000000 0.04275000 -0.05999994
v 0.00462204 0.04249936 -0.06299996
v 0.00462204 0.04249936 -0.05999994
v 0.00918996 0.04175049 -0.06299996
v 0.00918996 0.04175049 -0.05999994
v 0.01365011 0.04051214 -0.06299996
v 0.01365011 0.04051214 -0.05999994
v 0.01795023 0.03879880 -0.06299996
v 0.01795023 0.03879880 -0.05999994
v 0.02203989 0.03663063 -0.06299996
v 0.02203989 0.03663063 -0.05999994
v 0.02587115 0.03403294 -0.06299996
v 0.02587115 0.03403294 -0.05999994
v 0.02939909 0.03103625 -0.06299996
v 0.02939909 0.03103625 -0.05999994
v 0.03258239 0.02767574 -0.06299996
v 0.03258239 0.02767574 -0.05999994
v 0.03538364 0.02399075 -0.06299996
v 0.03538364 0.02399075 -0.05999994
v 0.03777009 0.02002441 -0.06299996
v 0.03777009 0.02002441 -0.05999994
v 0.03971374 0.01582336 -0.06299996
v 0.03971374 0.01582336 -0.05999994
v 0.04119175 0.01143682 -0.06299996
v 0.04119175 0.01143682 -0.05999994
v 0.04218679 0.00691616 -0.06299996
v 0.04218679 0.00691616 -0.05999994
v 0.04268729 0.00231439 -0.06299996
v 0.04268729 0.00231439 -0.05999994
v 0.04268729 -0.00231439 -0.06299996
v 0.04268729 -0.00231439 -0.05999994
v 0.04218679 -0.00691616 -0.06299996
v 0.04218679 -0.00691616 -0.05999994
v 0.04119175 -0.01143682 -0.06299996
v 0.04119175 -0.01143682 -0.05999994
v 0.03971374 -0.01582336 -0.06299996
v 0.03971374 -0.01582336 -0.05999994
v 0.03777009 -0.02002441 -0.06299996
v 0.03777009 -0.02002441 -0.05999994
v 0.03538364 -0.02399069 -0.06299996
v 0.03538364 -0.02399069 -0.05999994
v 0.03258239 -0.02767574 -0.06299996
v 0.03258239 -0.02767574 -0.05999994
v 0.02939909 -0.03103625 -0.06299996
v 0.02939909 -0.03103625 -0.05999994
v 0.02587115 -0.03403294 -0.06299996
v 0.02587115 -0.03403294 -0.05999994
v 0.02203989 -0.03663063 -0.06299996
v 0.02203989 -0.03663063 -0.05999994
v 0.01795023 -0.03879880 -0.06299996
v 0.01795023 -0.03879880 -0.05999994
v 0.01365011 -0.04051214 -0.06299996
v 0.01365011 -0.04051214 -0.05999994
v 0.00918996 -0.04175049 -0.06299996
v 0.00918996 -0.04175049 -0.05999994
v -0.00462204 -0.04249936 -0.06299996
v -0.00462204 0.04249936 -0.06299996
v 0.00000000 -0.04275000 -0.06299996
v 0.00000000 0.04275000 -0.06299996
v 0.00462204 -0.04249936 -0.06299996
v 0.00462204 0.04249936 -0.06299996
v 0.00918996 -0.04175049 -0.06299996
v 0.00918996 0.04175049 -0.06299996
v 0.01365011 -0.04051214 -0.06299996
v 0.01365011 0.04051214 -0.06299996
v 0.01795023 -0.03879880 -0.06299996
v 0.01795023 0.03879880 -0.06299996
v 0.02203989 -0.03663063 -0.06299996
v 0.02203989 0.03663063 -0.06299996
v 0.02587115 -0.03403294 -0.06299996
v 0.02587115 0.03403294 -0.06299996
v 0.02939909 -0.03103625 -0.06299996
v 0.02939909 0.03103625 -0.06299996
v 0.03258239 -0.02767574 -0.06299996
v 0.03258239 0.02767574 -0.06299996
v 0.03538364 -0.02399069 -0.06299996
v 0.03538364 0.02399075 -0.06299996
v 0.03777009 -0.02002441 -0.06299996
v 0.03777009 0.02002441 -0.06299996
v 0.03971374 -0.01582336 -0.06299996
v 0.03971374 0.01582336 -0.06299996
v 0.04119175 -0.01143682 -0.06299996
v 0.04119175 0.01143682 -0.06299996
v 0.04119175 -0.01143682 -0.06299996
v 0.04119175 0.01143682 -0.06299996
v 0.04218679 -0.00691616 -0.06299996
v 0.04218679 -0.00691616 -0.06299996
v 0.04119175 0.01143682 -0.06299996
v 0.04218679 0.00691616 -0.06299996
v 0.04218679 0.00691616 -0.06299996
v 0.04268729 -0.00231439 -0.06299996
v 0.04268729 -0.00231439 -0.06299996
v 0.04268729 0.00231439 -0.06299996
v -0.00918996 0.04175049 -0.06299996
v -0.00918996 -0.04175049 -0.06299996
v -0.01365011 0.04051214 -0.06299996
v -0.01365011 -0.04051214 -0.06299996
v -0.01795023 0.03879880 -0.06299996
v -0.01795023 -0.03879880 -0.06299996
v -0.02203989 0.03663063 -0.06299996
v -0.02203989 -0.03663063 -0.06299996
v -0.02587115 0.03403294 -0.06299996
v -0.02587115 -0.03403294 -0.06299996
v -0.02939915 0.03103625 -0.06299996
v -0.02939915 -0.03103625 -0.06299996
v -0.03258239 0.02767574 -0.06299996
v -0.03258239 -0.02767574 -0.06299996
v -0.03538370 0.02399069 -0.06299996
v -0.03538370 -0.02399075 -0.06299996
v -0.03777009 0.02002441 -0.06299996
v -0.03777009 -0.02002441 -0.06299996
v -0.03971374 0.01582336 -0.06299996
v -0.03971374 -0.01582336 -0.06299996
v -0.04119175 0.01143682 -0.06299996
v -0.04119175 -0.01143682 -0.06299996
v -0.04119175 0.01143682 -0.06299996
v -0.04119175 -0.01143682 -0.06299996
v -0.04218679 0.00691616 -0.06299996
v -0.04218679 0.00691616 -0.06299996
v -0.04119175 -0.01143682 -0.06299996
v -0.04218679 -0.00691616 -0.06299996
v -0.04218679 -0.00691616 -0.06299996
v -0.04268729 0.00231439 -0.06299996
v -0.04268729 0.00231439 -0.06299996
v -0.04268729 -0.00231439 -0.06299996
v 0.00480443 0.04494392 -0.05899995
v 0.00474554 0.04515129 -0.05919998
v 0.00000000 0.04519999 -0.05899995
v 0.00000000 0.04539996 -0.05919998
v 0.00000000 0.04519999 -0.05899995
v 0.00000000 0.04539996 -0.05919998
v -0.00474560 0.04515129 -0.05919998
v 0.00943917 0.04440784 -0.05919998
v 0.00955444 0.04417860 -0.05899995
v 0.01402932 0.04317795 -0.05919998
v 0.01419621 0.04291272 -0.05899995
v 0.01846581 0.04147493 -0.05919998
v 0.01867717 0.04116064 -0.05899995
v 0.02269995 0.03931754 -0.05919998
v 0.02294647 0.03894221 -0.05899995
v 0.02668541 0.03672932 -0.05919998
v 0.02695578 0.03628252 -0.05899995
v 0.03037852 0.03373872 -0.05919998
v 0.03065967 0.03321176 -0.05899995
v 0.03373872 0.03037852 -0.05919998
v 0.03401612 0.02976471 -0.05899995
v 0.03672932 0.02668541 -0.05919998
v 0.03698724 0.02598035 -0.05899995
v 0.03931748 0.02269995 -0.05919998
v 0.03953927 0.02190166 -0.05899995
v 0.04147493 0.01846581 -0.05919998
v 0.04164325 0.01757484 -0.05899995
v 0.04317795 0.01402932 -0.05919998
v 0.04327540 0.01304888 -0.05899995
v 0.04440784 0.00943917 -0.05919998
v 0.04441725 0.00837505 -0.05899995
v 0.04515123 0.00474554 -0.05919998
v 0.04505586 0.00360632 -0.05899995
v 0.04539996 -0.00000000 -0.05919998
v 0.04518395 -0.00120324 -0.05899995
v 0.04515123 -0.00474554 -0.05919998
v 0.04480010 -0.00599915 -0.05899995
v 0.04440784 -0.00943917 -0.05919998
v 0.04390858 -0.01072710 -0.05899995
v 0.04317795 -0.01402932 -0.05919998
v 0.04251962 -0.01533359 -0.05899995
v 0.04147493 -0.01846581 -0.05919998
v 0.04064887 -0.01976627 -0.05899995
v 0.03931754 -0.02269995 -0.05919998
v 0.03831756 -0.02397501 -0.05899995
v 0.03672932 -0.02668541 -0.05919998
v 0.03555208 -0.02791208 -0.05899995
v 0.03373872 -0.03037852 -0.05919998
v 0.03238378 -0.03153288 -0.05899995
v 0.03037852 -0.03373872 -0.05919998
v 0.02884858 -0.03479647 -0.05899995
v 0.02668541 -0.03672932 -0.05919998
v 0.02498656 -0.03766572 -0.05899995
v 0.02269995 -0.03931754 -0.05919998
v 0.02084136 -0.04010826 -0.05899995
v 0.01846581 -0.04147493 -0.05919998
v 0.01646006 -0.04209637 -0.05899995
v 0.01402932 -0.04317795 -0.05919998
v 0.01189219 -0.04360747 -0.05899995
v 0.00943917 -0.04440784 -0.05919998
v 0.00718963 -0.04462450 -0.05899995
v 0.00474554 -0.04515129 -0.05919998
v 0.00240558 -0.04513591 -0.05899995
v 0.00000000 -0.04539996 -0.05919998
v -0.00240558 -0.04513591 -0.05899995
v -0.00474554 -0.04515129 -0.05919998
v -0.00718963 -0.04462450 -0.05899995
v -0.00943917 -0.04440784 -0.05919998
v -0.01189219 -0.04360747 -0.05899995
v -0.01402932 -0.04317795 -0.05919998
v -0.01646000 -0.04209637 -0.05899995
v -0.01846581 -0.04147493 -0.05919998
v -0.02084136 -0.04010826 -0.05899995
v -0.02269995 -0.03931754 -0.05919998
v -0.02498656 -0.03766578 -0.05899995
v -0.02668541 -0.03672932 -0.05919998
v -0.02884858 -0.03479647 -0.05899995
v -0.03037852 -0.03373872 -0.05919998
v -0.03238378 -0.03153294 -0.05899995
v -0.03373872 -0.03037852 -0.05919998
v -0.03555208 -0.02791208 -0.05899995
v -0.03672932 -0.02668541 -0.05919998
v -0.03831756 -0.02397501 -0.05899995
v -0.03931754 -0.02269995 -0.05919998
v -0.04064887 -0.01976627 -0.05899995
v -0.04147493 -0.01846581 -0.05919998
v -0.04251962 -0.01533359 -0.05899995
v -0.04317795 -0.01402932 -0.05919998
v -0.04390858 -0.01072716 -0.05899995
v -0.04440790 -0.00943917 -0.05919998
v -0.04480010 -0.00599915 -0.05899995
v -0.04515129 -0.00474554 -0.05919998
v -0.04518395 -0.00120324 -0.05899995
v -0.04539996 -0.00000000 -0.05919998
v -0.04505586 0.00360632 -0.05899995
v -0.04515129 0.00474554 -0.05919998
v -0.04441732 0.00837499 -0.05899995
v -0.04440790 0.00943917 -0.05919998
v -0.04327547 0.01304882 -0.05899995
v -0.04317795 0.01402932 -0.05919998
v -0.04164325 0.01757484 -0.05899995
v -0.04147493 0.01846581 -0.05919998
v -0.03953927 0.02190166 -0.05899995
v -0.03931754 0.02269995 -0.05919998
v -0.03698724 0.02598035 -0.05899995
v -0.03672932 0.02668541 -0.05919998
v -0.03401618 0.02976471 -0.05899995
v -0.03373872 0.03037852 -0.05919998
v -0.03065967 0.03321176 -0.05899995
v -0.03037852 0.03373872 -0.05919998
v -0.02695578 0.03628252 -0.05899995
v -0.02668541 0.03672932 -0.05919998
v -0.02294647 0.03894221 -0.05899995
v -0.02270001 0.03931754 -0.05919998
v -0.01867717 0.04116064 -0.05899995
v -0.01846581 0.04147493 -0.05919998
v -0.01419627 0.04291272 -0.05899995
v -0.01402938 0.04317795 -0.05919998
v -0.00955450 0.04417860 -0.05899995
v -0.00943917 0.04440784 -0.05919998
v -0.00480443 0.04494392 -0.05899995
f 1 2 3
f 3 2 4
f 5 6 7
f 7 6 8
f 7 8 9
f 1 10 2
f 2 10 11
f 11 10 12
f 11 12 13
f 13 12 14
f 13 14 15
f 15 14 16
f 15 16 17
f 17 16 18
f 17 18 19
f 19 18 20
f 19 20 21
f 21 20 22
f 21 22 23
f 23 22 24
f 23 24 25
f 25 24 26
f 25 26 27
f 27 26 28
f 27 28 29
f 29 28 30
f 29 30 31
f 31 30 32
f 31 32 33
f 33 32 34
f 33 34 35
f 35 34 36
f 35 36 37
f 37 36 38
f 37 38 39
f 39 38 40
f 39 40 41
f 41 40 42
f 41 42 43
f 43 42 44
f 43 44 45
f 45 44 46
f 45 46 47
f 47 46 48
f 47 48 49
f 49 48 50
f 49 50 51
f 51 50 52
f 51 52 53
f 53 52 54
f 53 54 55
f 55 54 56
f 55 56 57
f 57 56 58
f 57 58 59
f 59 58 60
f 59 60 61
f 61 60 62
f 61 62 63
f 63 62 64
f 63 64 65
f 65 64 66
f 65 66 67
f 67 66 68
f 67 68 69
f 69 68 70
f 69 70 71
f 71 70 72
f 71 72 73
f 73 72 74
f 73 74 75
f 75 74 76
f 75 76 77
f 77 76 78
f 77 78 79
f 79 78 80
f 79 80 81
f 81 80 82
f 81 82 83
f 83 82 84
f 83 84 85
f 85 84 86
f 85 86 87
f 87 86 88
f 87 88 89
f 89 88 90
f 89 90 91
f 91 90 92
f 91 92 93
f 93 92 94
f 93 94 95
f 95 94 96
f 95 96 97
f 97 96 98
f 97 98 99
f 99 98 100
f 99 100 101
f 101 100 102
f 101 102 103
f 103 102 104
f 103 104 105
f 105 104 106
f 105 106 107
f 107 106 108
f 107 108 109
f 109 108 110
f 109 110 111
f 111 110 112
f 111 112 113
f 113 112 114
f 113 114 115
f 115 114 116
f 115 116 117
f 117 116 118
f 117 118 119
f 119 118 120
f 119 120 121
f 121 120 122
f 121 122 9
f 9 122 7
f 123 124 125
f 125 124 126
f 125 126 127
f 127 128 125
f 125 128 129
f 125 129 130
f 130 131 125
f 125 131 132
f 125 132 133
f 133 134 125
f 125 134 135
f 125 135 136
f 136 137 125
f 125 137 138
f 125 138 139
f 139 140 125
f 125 140 141
f 125 141 142
f 142 143 125
f 125 143 144
f 125 144 145
f 145 146 125
f 125 146 147
f 125 147 148
f 148 149 125
f 125 149 150
f 125 150 151
f 151 152 125
f 125 152 153
f 125 153 154
f 154 155 125
f 125 155 156
f 156 155 157
f 156 157 158
f 158 157 159
f 158 159 160
f 160 159 161
f 160 161 162
f 162 161 163
f 162 163 164
f 164 163 165
f 164 165 166
f 166 165 167
f 166 167 168
f 168 167 169
f 168 169 170
f 170 169 171
f 170 171 172
f 172 171 173
f 172 173 174
f 174 173 175
f 174 175 176
f 176 175 177
f 176 177 178
f 178 177 179
f 180 181 182
f 182 181 183
f 184 185 186
f 186 185 187
f 186 187 188
f 188 187 189
f 188 189 190
f 190 189 191
f 190 191 192
f 192 191 193
f 192 193 194
f 194 193 195
f 194 195 196
f 196 195 197
f 196 197 198
f 198 197 199
f 198 199 200
f 200 199 201
f 200 201 202
f 202 201 203
f 202 203 204
f 204 203 205
f 204 205 206
f 206 205 207
f 206 207 208
f 208 207 209
f 208 209 210
f 210 209 211
f 210 211 212
f 212 211 213
f 212 213 214
f 214 213 215
f 214 215 216
f 216 215 217
f 216 217 218
f 218 217 219
f 218 219 220
f 220 219 221
f 220 221 222
f 222 221 223
f 222 223 224
f 224 223 225
f 224 225 226
f 226 225 227
f 226 227 228
f 228 227 229
f 228 229 230
f 230 229 231
f 230 231 232
f 232 231 233
f 232 233 234
f 234 233 235
f 234 235 236
f 236 235 237
f 236 237 238
f 238 237 239
f 238 239 240
f 240 239 241
f 240 241 242
f 242 241 243
f 242 243 244
f 244 243 245
f 244 245 246
f 244 246 247
f 247 246 248
f 247 248 249
f 249 248 250
f 249 250 251
f 251 250 252
f 251 252 253
f 253 252 254
f 253 254 255
f 255 254 256
f 255 256 257
f 257 256 258
f 257 258 259
f 259 258 260
f 259 260 261
f 261 260 262
f 261 262 263
f 263 262 264
f 263 264 265
f 265 264 266
f 265 266 267
f 267 266 268
f 267 268 269
f 269 268 270
f 269 270 271
f 271 270 272
f 271 272 273
f 273 272 274
f 273 274 275
f 275 274 276
f 275 276 277
f 277 276 278
f 277 278 279
f 279 278 280
f 279 280 281
f 281 280 282
f 281 282 283
f 283 282 284
f 283 284 285
f 285 284 286
f 285 286 287
f 287 286 288
f 287 288 289
f 289 288 290
f 289 290 291
f 291 290 292
f 291 292 293
f 293 292 294
f 293 294 295
f 295 294 296
f 295 296 297
f 297 296 298
f 297 298 299
f 299 298 300
f 299 300 301
f 301 300 184
f 301 184 186
f 302 303 304
f 304 303 305
f 304 306 307
f 307 306 308
f 307 308 309
f 309 308 310
f 309 310 311
f 311 310 312
f 311 312 313
f 313 312 314
f 313 314 315
f 315 314 316
f 315 316 317
f 317 316 318
f 317 318 319
f 319 318 320
f 319 320 321
f 321 320 322
f 321 322 323
f 323 322 324
f 323 324 325
f 325 324 326
f 325 326 327
f 327 326 328
f 327 328 329
f 329 328 330
f 329 330 331
f 331 330 332
f 331 332 333
f 333 332 334
f 333 334 335
f 335 334 336
f 335 336 337
f 337 336 338
f 337 338 339
f 339 338 340
f 339 340 341
f 341 340 342
f 341 342 343
f 343 342 344
f 343 344 345
f 345 344 346
f 345 346 347
f 347 346 348
f 347 348 349
f 349 348 350
f 349 350 351
f 351 350 352
f 351 352 353
f 353 352 354
f 353 354 355
f 355 354 356
f 355 356 357
f 357 356 358
f 357 358 359
f 359 358 360
f 359 360 361
f 361 360 362
f 361 362 363
f 363 362 364
f 363 364 365
f 365 364 366
f 365 366 367
f 367 366 368
f 367 368 369
f 369 368 370
f 369 370 371
f 371 370 372
f 371 372 373
f 373 372 374
f 373 374 375
f 375 374 376
f 375 376 377
f 377 376 378
f 377 378 379
f 379 378 380
f 379 380 381
f 381 380 382
f 381 382 383
f 383 382 384
f 383 384 385
f 385 384 386
f 385 386 387
f 387 386 388
f 387 388 389
f 389 388 390
f 389 390 391
f 391 390 392
f 391 392 393
f 393 392 394
f 393 394 395
f 395 394 396
f 395 396 397
f 397 396 398
f 397 398 399
f 399 398 400
f 399 400 401
f 401 400 402
f 401 402 403
f 403 402 404
f 403 404 405
f 405 404 406
f 405 406 407
f 407 406 408
f 407 408 409
f 409 408 410
f 409 410 411
f 411 410 412
f 411 412 413
f 413 412 414
f 413 414 415
f 415 414 416
f 415 416 417
f 417 416 418
f 417 418 302
f 302 418 303
f 419 420 421
f 421 420 422
f 421 422 423
f 423 422 424
f 423 424 425
f 425 424 426
f 425 426 427
f 427 426 428
f 427 428 429
f 429 428 430
f 429 430 431
f 431 430 432
f 431 432 433
f 433 432 434
f 433 434 435
f 435 434 436
f 435 436 437
f 437 436 438
f 437 438 439
f 439 438 440
f 439 440 441
f 441 440 442
f 441 442 443
f 443 442 444
f 443 444 445
f 445 444 446
f 447 448 449
f 450 451 452
f 449 453 454
f 455 452 456
f 420 419 457
f 457 419 458
f 457 458 459
f 459 458 460
f 459 460 461
f 461 460 462
f 461 462 463
f 463 462 464
f 463 464 465
f 465 464 466
f 465 466 467
f 467 466 468
f 467 468 469
f 469 468 470
f 469 470 471
f 471 470 472
f 471 472 473
f 473 472 474
f 473 474 475
f 475 474 476
f 475 476 477
f 477 476 478
f 479 480 481
f 482 483 484
f 481 485 486
f 487 484 488
f 489 490 491
f 491 490 492
f 493 494 495
f 490 489 496
f 496 489 497
f 496 497 498
f 498 497 499
f 498 499 500
f 500 499 501
f 500 501 502
f 502 501 503
f 502 503 504
f 504 503 505
f 504 505 506
f 506 505 507
f 506 507 508
f 508 507 509
f 508 509 510
f 510 509 511
f 510 511 512
f 512 511 513
f 512 513 514
f 514 513 515
f 514 515 516
f 516 515 517
f 516 517 518
f 518 517 519
f 518 519 520
f 520 519 521
f 520 521 522
f 522 521 523
f 522 523 524
f 524 523 525
f 524 525 526
f 526 525 527
f 526 527 528
f 528 527 529
f 528 529 530
f 530 529 531
f 530 531 532
f 532 531 533
f 532 533 534
f 534 533 535
f 534 535 536
f 536 535 537
f 536 537 538
f 538 537 539
f 538 539 540
f 540 539 541
f 540 541 542
f 542 541 543
f 542 543 544
f 544 543 545
f 544 545 546
f 546 545 547
f 546 547 548
f 548 547 549
f 548 549 550
f 550 549 551
f 550 551 552
f 552 551 553
f 552 553 554
f 554 553 555
f 554 555 556
f 556 555 557
f 556 557 558
f 558 557 559
f 558 559 560
f 560 559 561
f 560 561 562
f 562 561 563
f 562 563 564
f 564 563 565
f 564 565 566
f 566 565 567
f 566 567 568
f 568 567 569
f 568 569 570
f 570 569 571
f 570 571 572
f 572 571 573
f 572 573 574
f 574 573 575
f 574 575 576
f 576 575 577
f 576 577 578
f 578 577 579
f 578 579 580
f 580 579 581
f 580 581 582
f 582 581 583
f 582 583 584
f 584 583 585
f 584 585 586
f 586 585 587
f 586 587 588
f 588 587 589
f 588 589 590
f 590 589 591
f 590 591 592
f 592 591 593
f 592 593 594
f 594 593 595
f 594 595 596
f 596 595 597
f 596 597 598
f 598 597 599
f 598 599 600
f 600 599 601
f 600 601 602
f 602 601 603
f 602 603 604
f 604 603 605
f 604 605 606
f 606 605 607
f 606 607 608
f 608 607 609
f 608 609 495
f 495 609 493

