# https://github.com/mikedh/trimesh
v 0.01204329 -0.04634999 -0.04636776
v -0.00045661 -0.04634999 0.04430156
v 0.01249808 -0.04634999 -0.04622924
v 0.00054304 -0.04634999 0.04430055
v 0.00474584 -0.04634999 0.04404604
v 0.01135569 -0.04634999 -0.04657375
v -0.00886410 -0.04634999 0.04340410
v -0.00468147 -0.04634999 0.04405295
v -0.00049957 -0.04634999 -0.04830056
v 0.01048576 -0.04634999 -0.04683005
v -0.00049957 -0.04634999 -0.04830056
v 0.01048576 -0.04634999 -0.04683005
v 0.00050042 -0.04634999 -0.04830056
v 0.00050042 -0.04634999 -0.04830056
v 0.00948429 -0.04634999 -0.04711949
v 0.00050042 -0.04634999 -0.04830056
v 0.00948429 -0.04634999 -0.04711949
v 0.00644493 -0.04634999 -0.04791986
v 0.00354439 -0.04634999 -0.04847449
v 0.00050045 -0.04634999 -0.04869621
v -0.00049954 -0.04634999 -0.04869621
v -0.00356358 -0.04634999 -0.04847168
v -0.00049957 -0.04634999 -0.04830056
v -0.00049957 -0.04634999 -0.04830056
v -0.00356358 -0.04634999 -0.04847168
v -0.00644707 -0.04634999 -0.04791939
v -0.00644707 -0.04634999 -0.04791939
v -0.00654965 -0.04634999 -0.04789525
v -0.00654965 -0.04634999 -0.04789525
v -0.00948387 -0.04634999 -0.04711961
v -0.00948387 -0.04634999 -0.04711961
v -0.01048535 -0.04634999 -0.04683017
v -0.01048535 -0.04634999 -0.04683017
v -0.01135557 -0.04634999 -0.04657375
v -0.01135557 -0.04634999 -0.04657375
v -0.01204347 -0.04634999 -0.04636770
v -0.01249802 -0.04634999 -0.04622924
v -0.01389789 -0.04634999 -0.04577744
v -0.04432195 -0.04634999 -0.00117671
v -0.01296818 -0.04634999 0.04236096
v -0.01695746 -0.04634999 0.04092955
v -0.04430608 -0.04634999 -0.00001021
v -0.02088695 -0.04634999 0.03906923
v -0.02461564 -0.04634999 0.03683257
v -0.02810853 -0.04634999 0.03424298
v -0.03133070 -0.04634999 0.03132390
v -0.03418493 -0.04634999 0.02817869
v -0.04429084 -0.04634999 0.00087647
v -0.03672516 -0.04634999 0.02477473
v -0.03892982 -0.04634999 0.02114427
v -0.04077744 -0.04634999 0.01731985
v -0.04093366 -0.04634999 0.01694738
v -0.04425929 -0.04634999 0.00189960
v -0.04178195 -0.04634999 0.01473277
v -0.04247425 -0.04634999 0.01259857
v -0.04425929 -0.04634999 0.00189960
v -0.04419744 -0.04634999 0.00305432
v -0.04409116 -0.04634999 0.00433588
v -0.01548367 -0.04634999 -0.04520952
v -0.01723289 -0.04634999 -0.04450428
v -0.04433327 -0.04634999 -0.00217086
v -0.01912301 -0.04634999 -0.04364037
v -0.04433327 -0.04634999 -0.00217086
v -0.02210634 -0.04634999 -0.04204976
v -0.02525722 -0.04634999 -0.04003834
v -0.02809441 -0.04634999 -0.03788363
v -0.03074854 -0.04634999 -0.03551352
v -0.04434013 -0.04634999 -0.00299275
v -0.03320538 -0.04634999 -0.03294229
v -0.03545051 -0.04634999 -0.03018426
v -0.03747606 -0.04634999 -0.02724367
v -0.03925395 -0.04634999 -0.02415996
v -0.04077780 -0.04634999 -0.02094936
v -0.04434013 -0.04634999 -0.00299275
v -0.04077780 -0.04634999 -0.02094936
v -0.04434239 -0.04634999 -0.00364226
v -0.04434239 -0.04634999 -0.00364226
v -0.04204142 -0.04634999 -0.01762789
v -0.04303526 -0.04634999 -0.01422059
v -0.04375588 -0.04634999 -0.01073664
v -0.04419450 -0.04634999 -0.00720191
v -0.04384249 -0.04634999 0.00637221
v -0.04345351 -0.04634999 0.00863540
v -0.04409116 -0.04634999 0.00433588
v -0.04345351 -0.04634999 0.00863540
v -0.04302620 -0.04634999 0.01056075
v -0.00045661 -0.04634999 0.04430156
v 0.00000000 -0.04635487 0.04430931
v 0.00054304 -0.04634999 0.04430055
v 0.01390850 -0.04634999 -0.04577380
v 0.00890636 -0.04634999 0.04339545
v 0.04432195 -0.04634994 -0.00117671
v 0.01298892 -0.04634999 0.04235464
v 0.01695781 -0.04634999 0.04092943
v 0.04430608 -0.04634994 -0.00001021
v 0.02088731 -0.04634999 0.03906905
v 0.02461600 -0.04634999 0.03683233
v 0.02810895 -0.04634994 0.03424263
v 0.03133124 -0.04634994 0.03132337
v 0.03424942 -0.04634994 0.02810025
v 0.04429084 -0.04634994 0.00087695
v 0.03683805 -0.04634994 0.02460670
v 0.03907394 -0.04634994 0.02087718
v 0.04093360 -0.04634994 0.01694750
v 0.04093360 -0.04634994 0.01694750
v 0.04425929 -0.04634994 0.00190025
v 0.04425929 -0.04634994 0.00190025
v 0.04178202 -0.04634994 0.01473265
v 0.04247438 -0.04634994 0.01259815
v 0.04302638 -0.04634994 0.01056009
v 0.04409122 -0.04634994 0.00433558
v 0.04409122 -0.04634994 0.00433558
v 0.04419744 -0.04634994 0.00305480
v 0.04302638 -0.04634994 0.01056009
v 0.04345369 -0.04634994 0.00863457
v 0.04384261 -0.04634994 0.00637168
v 0.04433327 -0.04634994 -0.00217086
v 0.01724219 -0.04634999 -0.04450029
v 0.01549696 -0.04634999 -0.04520446
v 0.04434013 -0.04634994 -0.00299275
v 0.03075063 -0.04634994 -0.03551197
v 0.04433327 -0.04634994 -0.00217086
v 0.03075063 -0.04634994 -0.03551197
v 0.02809590 -0.04634994 -0.03788268
v 0.02525520 -0.04634994 -0.04003977
v 0.04434245 -0.04634994 -0.00364226
v 0.04077666 -0.04634994 -0.02095192
v 0.04434013 -0.04634994 -0.00299275
v 0.04077666 -0.04634994 -0.02095192
v 0.03925275 -0.04634994 -0.02416199
v 0.03747528 -0.04634994 -0.02724480
v 0.04419463 -0.04634994 -0.00720102
v 0.04375606 -0.04634994 -0.01073580
v 0.04434245 -0.04634994 -0.00364226
v 0.04303520 -0.04634994 -0.01422101
v 0.04204046 -0.04634994 -0.01763075
v 0.03545075 -0.04634994 -0.03018397
v 0.04434013 -0.04634994 -0.00299275
v 0.03320657 -0.04634994 -0.03294122
v 0.02210688 -0.04634999 -0.04204952
v 0.01912289 -0.04634999 -0.04364043
v 0.00049910 -0.05764996 -0.04479646
v 0.00462764 -0.05764996 -0.04455804
v 0.00049910 -0.05764996 -0.04460060
v 0.01311552 -0.05764996 0.04283028
v 0.00897568 -0.05764996 0.04388356
v 0.00873995 -0.05764996 -0.04394233
v 0.01714444 -0.05764996 0.04138380
v 0.02110993 -0.05764996 0.03950667
v 0.01300448 -0.05764996 -0.04287701
v 0.01714497 -0.05764996 -0.04139757
v 0.02111440 -0.05764996 -0.03952020
v 0.02487844 -0.05764996 0.03724741
v 0.02488356 -0.05764996 -0.03726160
v 0.02841734 -0.05764996 -0.03464376
v 0.03168076 -0.05764996 -0.03168886
v 0.03462712 -0.05764996 0.02841413
v 0.03167796 -0.05764996 0.03167128
v 0.02841329 -0.05764996 0.03462821
v 0.03463065 -0.05764996 -0.02843225
v 0.03724443 -0.05764996 0.02488255
v 0.03724843 -0.05764996 -0.02490091
v 0.03950582 -0.05764996 0.02111142
v 0.04138743 -0.05764996 0.01713579
v 0.04286646 -0.05764996 0.01299417
v 0.04393255 -0.05764996 0.00872731
v 0.03951007 -0.05764996 -0.02113002
v 0.04139161 -0.05764996 -0.01715445
v 0.04287016 -0.05764996 -0.01301431
v 0.04393565 -0.05764996 -0.00874907
v 0.04457825 -0.05764996 0.00437844
v 0.04458022 -0.05764996 -0.00440013
v 0.04479598 -0.05764996 -0.00000915
v 0.00475907 -0.05764996 0.04453909
v 0.00049910 -0.05764996 -0.04460060
v 0.00475907 -0.05764996 0.04453909
v 0.00049996 -0.05764960 0.04479610
v 0.00049996 -0.05764960 0.04479610
v -0.00049995 -0.05764960 0.04479610
v -0.00049995 -0.05764960 0.04479610
v -0.00475913 -0.05764996 0.04453909
v 0.00049910 -0.05764996 -0.04460060
v -0.00475913 -0.05764996 0.04453909
v -0.00050090 -0.05764996 -0.04460060
v -0.00897574 -0.05764996 0.04388356
v -0.01311546 -0.05764996 0.04283028
v -0.01714426 -0.05764996 0.04138386
v -0.00874001 -0.05764996 -0.04394233
v -0.00462854 -0.05764996 -0.04455792
v -0.00050090 -0.05764996 -0.04479640
v -0.02111113 -0.05764996 0.03950613
v -0.01300454 -0.05764996 -0.04287695
v -0.01714503 -0.05764996 -0.04139751
v -0.02111452 -0.05764996 -0.03952014
v -0.02487957 -0.05764996 0.03724694
v -0.02488368 -0.05764996 -0.03726154
v -0.02841365 -0.05764996 0.03462809
v -0.02841740 -0.05764996 -0.03464370
v -0.03168081 -0.05764996 -0.03168874
v -0.03167783 -0.05764996 0.03167140
v -0.03462731 -0.05764996 0.02841395
v -0.03724461 -0.05764996 0.02488237
v -0.03463083 -0.05764996 -0.02843207
v -0.03724855 -0.05764996 -0.02490079
v -0.03950589 -0.05764996 0.02111142
v -0.04138737 -0.05764996 0.01713591
v -0.04286640 -0.05764996 0.01299428
v -0.04393255 -0.05764996 0.00872743
v -0.03951013 -0.05764996 -0.02112990
v -0.04139167 -0.05764996 -0.01715433
v -0.04287022 -0.05764996 -0.01301419
v -0.04393570 -0.05764996 -0.00874895
v -0.04457825 -0.05764996 0.00437856
v -0.04458022 -0.05764996 -0.00440001
v -0.04479598 -0.05764996 -0.00000902
v 0.00487250 -0.04654961 0.04424059
v 0.00054252 -0.04654979 0.04450899
v 0.00338310 -0.04834543 0.04445272
v 0.00053172 -0.04936753 0.04462945
v 0.00337392 -0.05018638 0.04452985
v 0.00052145 -0.05204932 0.04474574
v 0.00336593 -0.05205946 0.04461097
v 0.00336230 -0.05299591 0.04465264
v 0.00619793 -0.05300294 0.04434335
v 0.00618100 -0.05487482 0.04443216
v 0.00897241 -0.05487870 0.04395359
v 0.00617224 -0.05581062 0.04447788
v 0.00895935 -0.05581413 0.04400128
v 0.00792086 -0.05745010 0.04427844
v 0.01156240 -0.05745010 0.04347097
v 0.00051069 -0.05485974 0.04486882
v 0.00335467 -0.05486862 0.04473799
v 0.00335032 -0.05580489 0.04478168
v 0.00050076 -0.05745016 0.04498338
v 0.00422543 -0.05745010 0.04478400
v 0.01512545 -0.05745010 0.04236555
v 0.01453435 -0.05581598 0.04249155
v 0.01170283 -0.05581580 0.04335421
v 0.01171982 -0.05488060 0.04330450
v 0.00899815 -0.05300759 0.04386091
v 0.00901085 -0.05207191 0.04381597
v 0.00620615 -0.05206691 0.04430031
v 0.00622249 -0.05019473 0.04421722
v 0.01729726 -0.05581497 0.04144567
v 0.01725584 -0.05745016 0.04154413
v 0.01952064 -0.05745010 0.04052865
v 0.02128922 -0.05581205 0.03954374
v 0.02175468 -0.05745010 0.03937339
v 0.02392190 -0.05745010 0.03809475
v 0.02506899 -0.05580758 0.03726220
v 0.02433717 -0.05745010 0.03783071
v 0.02638834 -0.05745028 0.03642982
v 0.02860558 -0.05580227 0.03462255
v 0.02836436 -0.05745040 0.03491431
v 0.03182339 -0.05745052 0.03179550
v 0.03186786 -0.05579649 0.03164631
v 0.03355085 -0.05745040 0.02996593
v 0.03482437 -0.05579077 0.02835673
v 0.03517270 -0.05745034 0.02804267
v 0.03705769 -0.05745034 0.02549815
v 0.03744703 -0.05578594 0.02478718
v 0.03873383 -0.05745022 0.02287274
v 0.03970991 -0.05578272 0.02097439
v 0.04025930 -0.05745010 0.02007001
v 0.04158699 -0.05578189 0.01695495
v 0.04156392 -0.05745010 0.01720887
v 0.04272209 -0.05745010 0.01408529
v 0.04305636 -0.05578409 0.01276797
v 0.04364556 -0.05745010 0.01088380
v 0.04410499 -0.05578940 0.00845504
v 0.04433107 -0.05745010 0.00762290
v 0.04472559 -0.05579703 0.00405687
v 0.04477560 -0.05745010 0.00432122
v 0.04498869 -0.05745010 -0.00009421
v 0.04476827 -0.05744992 -0.00450194
v 0.04471914 -0.05579774 -0.00480777
v 0.04492807 -0.05580162 -0.00038104
v 0.04489320 -0.05486779 -0.00054455
v 0.04469627 -0.05486207 0.00390667
v 0.04463726 -0.05299251 0.00360542
v 0.04405403 -0.05298178 0.00803953
v 0.04403752 -0.05204611 0.00790059
v 0.04303288 -0.05203919 0.01225489
v 0.04302173 -0.05016737 0.01199728
v 0.04160690 -0.05016397 0.01624155
v 0.04161381 -0.04832421 0.01600688
v 0.03979659 -0.04832481 0.02009993
v 0.04082648 -0.04654878 0.01773053
v 0.03989899 -0.04654872 0.01972723
v 0.04438728 -0.05744992 -0.00739127
v 0.04408943 -0.05578946 -0.00918067
v 0.04407036 -0.05485462 -0.00936162
v 0.04302352 -0.05484419 -0.01365011
v 0.04300224 -0.05297451 -0.01402765
v 0.04155188 -0.05296092 -0.01819968
v 0.04154789 -0.05202661 -0.01839733
v 0.03970152 -0.05200700 -0.02240449
v 0.03970587 -0.05014025 -0.02282011
v 0.03748881 -0.05011134 -0.02663165
v 0.03971022 -0.04831003 -0.02323931
v 0.03750413 -0.04828076 -0.02706778
v 0.03908871 -0.04654890 -0.02484148
v 0.03760850 -0.04654765 -0.02735447
v 0.03628122 -0.04654633 -0.02932971
v 0.03493319 -0.04824440 -0.03065723
v 0.03558348 -0.04654603 -0.03028374
v 0.03462636 -0.04654597 -0.03151166
v 0.03377479 -0.04654603 -0.03253442
v 0.03311162 -0.04654610 -0.03328996
v 0.03201627 -0.04820333 -0.03397852
v 0.03228038 -0.04654616 -0.03419107
v 0.03204369 -0.04654616 -0.03443878
v 0.03172700 -0.04654603 -0.03476434
v 0.03151249 -0.04654592 -0.03498113
v 0.02974641 -0.04654502 -0.03666073
v 0.02877253 -0.04815905 -0.03700226
v 0.02840441 -0.04654413 -0.03782242
v 0.02717471 -0.04654324 -0.03880929
v 0.02523475 -0.04810046 -0.03969603
v 0.02616232 -0.04654258 -0.03957027
v 0.02533745 -0.04654198 -0.04015803
v 0.02466148 -0.04654169 -0.04061931
v 0.02385431 -0.04654139 -0.04114705
v 0.02251523 -0.04654036 -0.04196929
v 0.02144020 -0.04802136 -0.04202955
v 0.02124619 -0.04653936 -0.04269164
v 0.02013987 -0.04653829 -0.04327839
v 0.01917910 -0.04653732 -0.04375678
v 0.01741516 -0.04794560 -0.04396617
v 0.01712274 -0.04653501 -0.04468339
v 0.01521342 -0.04653233 -0.04543340
v 0.01317572 -0.04790150 -0.04547017
v 0.01385402 -0.04652911 -0.04590958
v 0.01253038 -0.04652905 -0.04633533
v 0.00880086 -0.04789303 -0.04660052
v 0.00646257 -0.04650932 -0.04799818
v 0.00464642 -0.04787008 -0.04732632
v 0.00334835 -0.04649382 -0.04856467
v 0.00255602 -0.04782550 -0.04751831
v 0.00050046 -0.04648619 -0.04875004
v 0.00050046 -0.04754375 -0.04774469
v 0.00050046 -0.04871510 -0.04687368
v 0.00257945 -0.04954194 -0.04644399
v 0.00050046 -0.04998396 -0.04615664
v 0.00259626 -0.05140857 -0.04566138
v 0.00050046 -0.05133615 -0.04560345
v 0.00260079 -0.05238031 -0.04538506
v 0.00050046 -0.05284952 -0.04520255
v 0.00259268 -0.05439030 -0.04504096
v 0.00050046 -0.05435620 -0.04500639
v 0.00050046 -0.05525033 -0.04496818
v 0.00257796 -0.05542396 -0.04496073
v 0.00050064 -0.05718248 -0.04498600
v 0.00467342 -0.05543952 -0.04484921
v 0.00050058 -0.05725132 -0.04498761
v 0.00466132 -0.05744992 -0.04475814
v 0.00050041 -0.05731623 -0.04498910
v 0.00050017 -0.05738221 -0.04499059
v 0.00049991 -0.05745004 -0.04499214
v 0.04382157 -0.05744998 -0.01024931
v 0.04303437 -0.05577992 -0.01346349
v 0.04155993 -0.05483203 -0.01781046
v 0.03969936 -0.05294208 -0.02220076
v 0.03747320 -0.05197994 -0.02620226
v 0.03490870 -0.05007516 -0.03020149
v 0.04307299 -0.05745010 -0.01306492
v 0.04214334 -0.05745028 -0.01582717
v 0.04156404 -0.05576883 -0.01761883
v 0.04158973 -0.05745046 -0.01723623
v 0.04056071 -0.05745064 -0.01954209
v 0.03969299 -0.05575411 -0.02160614
v 0.03933084 -0.05745088 -0.02191722
v 0.03795212 -0.05745117 -0.02423089
v 0.03744155 -0.05573504 -0.02538758
v 0.03643161 -0.05745153 -0.02646702
v 0.03483200 -0.05571197 -0.02892833
v 0.03478239 -0.05745183 -0.02860516
v 0.03188663 -0.05568527 -0.03219336
v 0.03185504 -0.05745213 -0.03183913
v 0.02924019 -0.05745225 -0.03425651
v 0.02863007 -0.05565517 -0.03514993
v 0.02666270 -0.05745231 -0.03629738
v 0.02509367 -0.05562018 -0.03776848
v 0.02394491 -0.05745219 -0.03814375
v 0.02130997 -0.05557935 -0.04001849
v 0.02110117 -0.05745195 -0.03978639
v 0.01814597 -0.05745159 -0.04121583
v 0.01731139 -0.05553745 -0.04187208
v 0.01727837 -0.05745147 -0.04158556
v 0.01464432 -0.05745117 -0.04257935
v 0.01313275 -0.05550085 -0.04330760
v 0.01204621 -0.05745064 -0.04338032
v 0.00878048 -0.05745016 -0.04414910
v 0.00881791 -0.05546932 -0.04431313
v 0.03973877 -0.04654926 -0.02360522
v 0.04082828 -0.04654961 -0.02129107
v 0.04153262 -0.04832982 -0.01920086
v 0.04221808 -0.04654979 -0.01769065
v 0.04295073 -0.04834275 -0.01498937
v 0.04251610 -0.04655009 -0.01677489
v 0.04322354 -0.04655027 -0.01426661
v 0.04394394 -0.04835485 -0.01065057
v 0.04373592 -0.04655039 -0.01196736
v 0.04408901 -0.04655045 -0.00988948
v 0.04449689 -0.04836689 -0.00621974
v 0.04431837 -0.04655045 -0.00804508
v 0.04444539 -0.04655015 -0.00657350
v 0.04450130 -0.04654854 -0.00558591
v 0.04453229 -0.04654622 -0.00466341
v 0.04462605 -0.04837506 -0.00170618
v 0.04454635 -0.04654616 -0.00364268
v 0.04454046 -0.04654723 -0.00204223
v 0.04451584 -0.04654979 -0.00000700
v 0.04449151 -0.04835181 0.00285435
v 0.04470741 -0.05020480 -0.00137377
v 0.04454851 -0.05018871 0.00315213
v 0.04478478 -0.05206864 -0.00103951
v 0.04460756 -0.05205791 0.00345445
v 0.04443502 -0.04654985 0.00252563
v 0.04417812 -0.04654985 0.00543571
v 0.04397433 -0.04833727 0.00734699
v 0.04365741 -0.04654942 0.00867504
v 0.04301106 -0.04832821 0.01174342
v 0.04309588 -0.04654926 0.01113420
v 0.04254394 -0.04654914 0.01308560
v 0.04165643 -0.04654896 0.01568281
v 0.03873407 -0.04654890 0.02192449
v 0.03758215 -0.04832892 0.02398437
v 0.03977495 -0.05016480 0.02031594
v 0.03754860 -0.05016874 0.02418231
v 0.03975306 -0.05203722 0.02053558
v 0.03751462 -0.05204098 0.02438378
v 0.03974223 -0.05297349 0.02064538
v 0.03749762 -0.05297719 0.02448457
v 0.03972059 -0.05484627 0.02086472
v 0.03746384 -0.05484967 0.02468633
v 0.03709714 -0.04654936 0.02459263
v 0.03499703 -0.04833530 0.02762311
v 0.03495429 -0.05017476 0.02780359
v 0.03491085 -0.05204664 0.02798753
v 0.03488922 -0.05298267 0.02807968
v 0.03484594 -0.05485474 0.02826428
v 0.03519570 -0.04654973 0.02724629
v 0.03308582 -0.04654985 0.02977550
v 0.03206783 -0.04834281 0.03097891
v 0.03175401 -0.04654979 0.03119266
v 0.02973902 -0.04654985 0.03311872
v 0.02882283 -0.04835050 0.03401875
v 0.02706956 -0.04654985 0.03533220
v 0.02529197 -0.04835777 0.03671938
v 0.02529215 -0.04654985 0.03662490
v 0.02353131 -0.04654985 0.03778046
v 0.02150422 -0.04836361 0.03905832
v 0.02152758 -0.04654985 0.03895777
v 0.01978039 -0.04654985 0.03987425
v 0.01748853 -0.04836719 0.04101318
v 0.01826739 -0.04654985 0.04059022
v 0.01725655 -0.04654979 0.04103022
v 0.01689571 -0.04654979 0.04118007
v 0.01634693 -0.04654973 0.04140073
v 0.01470035 -0.04836754 0.04209041
v 0.01504671 -0.04654961 0.04188996
v 0.01366037 -0.04654949 0.04236119
v 0.01183754 -0.04836564 0.04297959
v 0.01122301 -0.04654936 0.04306936
v 0.00906080 -0.04836147 0.04364699
v 0.00909942 -0.04654936 0.04356664
v 0.00723487 -0.04654942 0.04391497
v 0.00623906 -0.04835485 0.04413902
v 0.00903594 -0.05020057 0.04372900
v 0.01180422 -0.05020408 0.04306751
v 0.01465892 -0.05020557 0.04218608
v 0.01744079 -0.05020504 0.04111748
v 0.02145081 -0.05020158 0.03917634
v 0.02523672 -0.05019604 0.03685194
v 0.02876907 -0.05018918 0.03416663
v 0.03201836 -0.05018191 0.03114271
v 0.04400527 -0.05017523 0.00762188
v 0.04454976 -0.05019860 -0.00586623
v 0.04397850 -0.05018674 -0.01028186
v 0.04460512 -0.05206375 -0.00550973
v 0.04482166 -0.05300127 -0.00087373
v 0.04297082 -0.05017446 -0.01460450
v 0.04401457 -0.05205260 -0.00991070
v 0.04463332 -0.05299680 -0.00533283
v 0.04154008 -0.05016051 -0.01879864
v 0.04299169 -0.05204056 -0.01421850
v 0.04403299 -0.05298619 -0.00972664
v 0.04469043 -0.05486380 -0.00498187
v 0.03198528 -0.05003314 -0.03349810
v 0.03488342 -0.05194603 -0.02975732
v 0.03746527 -0.05291645 -0.02599310
v 0.03969514 -0.05481563 -0.02180159
v 0.02873927 -0.04998563 -0.03649049
v 0.03195303 -0.05190609 -0.03303617
v 0.03487068 -0.05288450 -0.02954268
v 0.03744947 -0.05479400 -0.02558577
v 0.02520304 -0.04992424 -0.03914570
v 0.02870410 -0.05185996 -0.03600674
v 0.03193664 -0.05284677 -0.03281539
v 0.03484493 -0.05476747 -0.02912813
v 0.02141231 -0.04984395 -0.04143077
v 0.02516865 -0.05180161 -0.03863638
v 0.02868610 -0.05280296 -0.03577876
v 0.03190343 -0.05473636 -0.03239399
v 0.01739466 -0.04976217 -0.04330730
v 0.02138096 -0.05172752 -0.04089117
v 0.02515065 -0.05274837 -0.03840070
v 0.02864903 -0.05470060 -0.03535038
v 0.01317459 -0.04970114 -0.04474425
v 0.01737028 -0.05164997 -0.04273444
v 0.02136421 -0.05268000 -0.04064750
v 0.02132868 -0.05460607 -0.04021131
v 0.02511316 -0.05465768 -0.03796684
v 0.00882023 -0.04965924 -0.04576700
v 0.01316684 -0.05158542 -0.04413908
v 0.01735681 -0.05260818 -0.04248416
v 0.01732736 -0.05455212 -0.04205352
v 0.00467062 -0.04959844 -0.04633456
v 0.00883013 -0.05153106 -0.04510807
v 0.01316052 -0.05254655 -0.04388535
v 0.01314342 -0.05450462 -0.04347062
v 0.01177060 -0.05207478 0.04315990
v 0.01461720 -0.05207579 0.04228562
v 0.01739257 -0.05207507 0.04122525
v 0.02139669 -0.05207179 0.03929764
v 0.02518069 -0.05206655 0.03698778
v 0.02871447 -0.05206017 0.03431779
v 0.03196811 -0.05205332 0.03130996
v 0.04160004 -0.05203633 0.01647979
v 0.01175367 -0.05301009 0.04320734
v 0.01459640 -0.05301087 0.04233628
v 0.01455497 -0.05488096 0.04243922
v 0.01736867 -0.05301009 0.04127973
v 0.01732099 -0.05488007 0.04138994
v 0.02136975 -0.05300687 0.03935873
v 0.02131599 -0.05487697 0.03948175
v 0.02515268 -0.05300181 0.03705602
v 0.02868723 -0.05299567 0.03439372
v 0.03194302 -0.05298911 0.03139382
v 0.02509689 -0.05487232 0.03719323
v 0.02863276 -0.05486672 0.03454607
v 0.03189288 -0.05486064 0.03156203
v 0.04159671 -0.05297260 0.01659876
v 0.04303854 -0.05297522 0.01238346
v 0.04159015 -0.05484538 0.01683634
v 0.04305028 -0.05484770 0.01263993
v 0.04408782 -0.05485342 0.00831676
v 0.00883090 -0.05249278 -0.04484742
v 0.00468635 -0.05146252 -0.04559427
v 0.00468975 -0.05242907 -0.04532355
v 0.00468361 -0.05441861 -0.04495656
v 0.00882464 -0.05446266 -0.04445236
v -0.00254297 -0.05745016 0.04491233
v -0.00049924 -0.05745016 0.04498338
v -0.00480121 -0.05580811 0.04464763
v -0.00048931 -0.05485968 0.04486912
v -0.00480783 -0.05487208 0.04460287
v -0.00482023 -0.05299984 0.04451578
v -0.00911969 -0.05300771 0.04383587
v -0.00913256 -0.05207209 0.04379087
v -0.01333266 -0.05207555 0.04270589
v -0.01337087 -0.05020516 0.04260969
v -0.01744079 -0.05020504 0.04111748
v -0.01748859 -0.04836719 0.04101318
v -0.02150428 -0.04836361 0.03905832
v -0.02028608 -0.04654979 0.03961908
v -0.02208697 -0.04654979 0.03864306
v -0.00047855 -0.05204915 0.04474645
v -0.00482625 -0.05206357 0.04447346
v -0.00915813 -0.05020075 0.04370373
v -0.01340878 -0.04836695 0.04251772
v -0.01612657 -0.04654967 0.04148697
v -0.01686650 -0.04654979 0.04119205
v -0.00483847 -0.05019097 0.04439157
v -0.00046824 -0.04935794 0.04462999
v -0.00485122 -0.04835062 0.04431426
v -0.00045748 -0.04654979 0.04451000
v -0.00394672 -0.04654961 0.04433357
v -0.00570959 -0.04654955 0.04413986
v -0.00918335 -0.04836170 0.04362148
v -0.00873714 -0.04654936 0.04364073
v -0.01278477 -0.04654942 0.04263293
v -0.01455324 -0.04654955 0.04206359
v -0.01723921 -0.04654979 0.04103749
v -0.01866340 -0.04654979 0.04040956
v -0.02343565 -0.04654979 0.03783982
v -0.02529197 -0.04835777 0.03671938
v -0.02145081 -0.05020158 0.03917634
v -0.02523672 -0.05019604 0.03685194
v -0.02139669 -0.05207179 0.03929764
v -0.02518069 -0.05206655 0.03698778
v -0.02136975 -0.05300681 0.03935873
v -0.02515274 -0.05300181 0.03705602
v -0.02131599 -0.05487697 0.03948175
v -0.02509689 -0.05487232 0.03719323
v -0.02128922 -0.05581205 0.03954374
v -0.02506899 -0.05580764 0.03726220
v -0.02391457 -0.05745016 0.03809940
v -0.02692025 -0.05745010 0.03603899
v -0.02860558 -0.05580227 0.03462255
v -0.02784001 -0.05745010 0.03533387
v -0.02884018 -0.05745010 0.03452312
v -0.03084051 -0.05745016 0.03275001
v -0.03186786 -0.05579649 0.03164631
v -0.03181290 -0.05745016 0.03180646
v -0.03384070 -0.05745028 0.02963811
v -0.03482437 -0.05579083 0.02835673
v -0.03567403 -0.05745040 0.02740144
v -0.03744703 -0.05578594 0.02478718
v -0.03694795 -0.05745046 0.02565670
v -0.03806357 -0.05745046 0.02397054
v -0.03888040 -0.05745040 0.02262264
v -0.03970991 -0.05578272 0.02097439
v -0.03960679 -0.05745034 0.02132678
v -0.04020404 -0.05745028 0.02017986
v -0.04080617 -0.05745022 0.01893448
v -0.04044568 -0.05745028 0.01969176
v -0.04057818 -0.05745022 0.01941758
v -0.02526348 -0.04654979 0.03664469
v -0.02701091 -0.04654979 0.03537702
v -0.02882283 -0.04835056 0.03401875
v -0.02957665 -0.04654979 0.03326368
v -0.03206783 -0.04834281 0.03097891
v -0.03173267 -0.04654979 0.03121441
v -0.03398567 -0.04654979 0.02874296
v -0.03499703 -0.04833530 0.02762311
v -0.03599852 -0.04654967 0.02617532
v -0.03758215 -0.04832892 0.02398437
v -0.03778046 -0.04654926 0.02352923
v -0.03872454 -0.04654896 0.02194124
v -0.03979659 -0.04832487 0.02009993
v -0.04013913 -0.04654872 0.01923447
v -0.04112523 -0.04654884 0.01702672
v -0.04161381 -0.04832421 0.01600688
v -0.04212123 -0.04654908 0.01438808
v -0.04301106 -0.04832821 0.01174342
v -0.04254084 -0.04654914 0.01309555
v -0.04324382 -0.04654932 0.01054507
v -0.04365724 -0.04654942 0.00867587
v -0.04397433 -0.04833727 0.00734699
v -0.04302167 -0.05016737 0.01199728
v -0.04400527 -0.05017523 0.00762188
v -0.04303288 -0.05203919 0.01225489
v -0.04403752 -0.05204611 0.00790059
v -0.04303854 -0.05297528 0.01238346
v -0.04405403 -0.05298178 0.00803953
v -0.04305028 -0.05484770 0.01263993
v -0.04408782 -0.05485342 0.00831676
v -0.04305636 -0.05578409 0.01276797
v -0.04410499 -0.05578940 0.00845504
v -0.04382181 -0.05745016 0.01014983
v -0.04434561 -0.05745016 0.00753796
v -0.04461103 -0.05745016 0.00576866
v -0.04472559 -0.05579703 0.00405687
v -0.04479271 -0.05745016 0.00414157
v -0.04490083 -0.05745010 0.00275427
v -0.04493492 -0.05745010 0.00214291
v -0.04492807 -0.05580162 -0.00038104
v -0.04497236 -0.05745016 0.00115287
v -0.04498124 -0.05745016 0.00076042
v -0.04498862 -0.05745010 -0.00013564
v -0.04490267 -0.05744998 -0.00283354
v -0.04471914 -0.05579774 -0.00480777
v -0.04478353 -0.05744998 -0.00434458
v -0.04440021 -0.05744998 -0.00731164
v -0.04408943 -0.05578946 -0.00918067
v -0.04372406 -0.05745004 -0.01066112
v -0.04303437 -0.05577992 -0.01346349
v -0.04331969 -0.05745010 -0.01221430
v -0.04233520 -0.05745058 -0.01530212
v -0.04156404 -0.05576883 -0.01761883
v -0.04100763 -0.05745123 -0.01858168
v -0.03969299 -0.05575411 -0.02160614
v -0.04026556 -0.05745135 -0.02014321
v -0.03858625 -0.05745153 -0.02320456
v -0.03744155 -0.05573504 -0.02538758
v -0.03765124 -0.05745159 -0.02469611
v -0.03558301 -0.05745177 -0.02760004
v -0.03483200 -0.05571197 -0.02892833
v -0.03442347 -0.05745189 -0.02903723
v -0.03188663 -0.05568533 -0.03219336
v -0.03197503 -0.05745213 -0.03171855
v -0.02989894 -0.05745225 -0.03368330
v -0.02863007 -0.05565517 -0.03514993
v -0.02788597 -0.05745231 -0.03536689
v -0.02598333 -0.05745231 -0.03678631
v -0.02509367 -0.05562018 -0.03776848
v -0.02354449 -0.05745219 -0.03839200
v -0.02130997 -0.05557935 -0.04001849
v -0.02201133 -0.05745207 -0.03929054
v -0.02028930 -0.05745189 -0.04020601
v -0.01873731 -0.05745171 -0.04095101
v -0.01731139 -0.05553745 -0.04187208
v -0.01739203 -0.05745153 -0.04153835
v -0.01654678 -0.05745135 -0.04188072
v -0.01489192 -0.05745111 -0.04249405
v -0.01313275 -0.05550085 -0.04330760
v -0.01309984 -0.05745076 -0.04307633
v -0.00944871 -0.05745028 -0.04401266
v -0.00881791 -0.05546932 -0.04431313
v -0.00592804 -0.05744998 -0.04461216
v -0.00467294 -0.05543952 -0.04484921
v -0.00412953 -0.05744992 -0.04480880
v -0.00257724 -0.05542390 -0.04496073
v -0.00049935 -0.05718277 -0.04498600
v -0.00049953 -0.05525033 -0.04496818
v -0.00259197 -0.05439030 -0.04504096
v -0.00049953 -0.05435620 -0.04500633
v -0.00049953 -0.05284952 -0.04520249
v -0.00260007 -0.05238031 -0.04538506
v -0.00049953 -0.05133615 -0.04560339
v -0.00259554 -0.05140851 -0.04566138
v -0.00049953 -0.04998390 -0.04615658
v -0.00257873 -0.04954194 -0.04644405
v -0.00049953 -0.04871510 -0.04687362
v -0.00255531 -0.04782550 -0.04751837
v -0.00049953 -0.04754381 -0.04774469
v -0.00175226 -0.04649037 -0.04871380
v -0.00049953 -0.04648637 -0.04874986
v -0.04394435 -0.04654955 0.00707859
v -0.04419070 -0.04654985 0.00533235
v -0.04449151 -0.04835181 0.00285435
v -0.04443680 -0.04654985 0.00249165
v -0.04451578 -0.04654973 -0.00000700
v -0.04462605 -0.04837506 -0.00170618
v -0.04454046 -0.04654723 -0.00204182
v -0.04454635 -0.04654616 -0.00364268
v -0.04453675 -0.04654586 -0.00445396
v -0.04449683 -0.04836695 -0.00621974
v -0.04470741 -0.05020480 -0.00137377
v -0.04454976 -0.05019860 -0.00586623
v -0.04478478 -0.05206864 -0.00103951
v -0.04460507 -0.05206375 -0.00550973
v -0.04482166 -0.05300127 -0.00087373
v -0.04463332 -0.05299680 -0.00533283
v -0.04489314 -0.05486779 -0.00054455
v -0.04469043 -0.05486380 -0.00498187
v -0.04449045 -0.04654908 -0.00581628
v -0.04438370 -0.04655021 -0.00735992
v -0.04419153 -0.04655050 -0.00914031
v -0.04394394 -0.04835485 -0.01065057
v -0.04395626 -0.04655050 -0.01073998
v -0.04362952 -0.04655045 -0.01249134
v -0.04295073 -0.04834275 -0.01498937
v -0.04319208 -0.04655033 -0.01438826
v -0.04262453 -0.04655015 -0.01642411
v -0.04221904 -0.04654979 -0.01768779
v -0.04153262 -0.04832982 -0.01920086
v -0.04297082 -0.05017446 -0.01460450
v -0.04154008 -0.05016051 -0.01879864
v -0.04299169 -0.05204056 -0.01421850
v -0.04154789 -0.05202661 -0.01839733
v -0.04300218 -0.05297451 -0.01402765
v -0.04155182 -0.05296092 -0.01819968
v -0.04302352 -0.05484419 -0.01365011
v -0.04155993 -0.05483203 -0.01781046
v -0.04098682 -0.04654967 -0.02092331
v -0.03971022 -0.04831003 -0.02323931
v -0.03970587 -0.05014025 -0.02282011
v -0.03970152 -0.05200700 -0.02240449
v -0.03969936 -0.05294208 -0.02220076
v -0.03969514 -0.05481563 -0.02180159
v -0.03981268 -0.04654932 -0.02345848
v -0.03902101 -0.04654890 -0.02496498
v -0.03750413 -0.04828076 -0.02706778
v -0.03731697 -0.04654747 -0.02780830
v -0.03555738 -0.04654603 -0.03031843
v -0.03493319 -0.04824440 -0.03065723
v -0.03452533 -0.04654603 -0.03163629
v -0.03363668 -0.04654603 -0.03269463
v -0.03201627 -0.04820333 -0.03397852
v -0.03291726 -0.04654610 -0.03350520
v -0.03243100 -0.04654616 -0.03403151
v -0.03204369 -0.04654622 -0.03443890
v -0.03187751 -0.04654616 -0.03461056
v -0.03178966 -0.04654610 -0.03470075
v -0.03153795 -0.04654597 -0.03495568
v -0.03005063 -0.04654520 -0.03638428
v -0.02877253 -0.04815905 -0.03700226
v -0.02871531 -0.04654437 -0.03756147
v -0.02732479 -0.04654334 -0.03869259
v -0.02523469 -0.04810046 -0.03969603
v -0.02616399 -0.04654258 -0.03956907
v -0.02533948 -0.04654198 -0.04015666
v -0.02466922 -0.04654169 -0.04061412
v -0.02384376 -0.04654144 -0.04115378
v -0.02248615 -0.04654043 -0.04198658
v -0.02144020 -0.04802136 -0.04202955
v -0.02123862 -0.04653936 -0.04269576
v -0.02013826 -0.04653835 -0.04327911
v -0.01917922 -0.04653739 -0.04375678
v -0.01741516 -0.04794560 -0.04396617
v -0.02141231 -0.04984395 -0.04143077
v -0.01739466 -0.04976217 -0.04330730
v -0.02138096 -0.05172752 -0.04089117
v -0.01737028 -0.05164997 -0.04273444
v -0.02136421 -0.05268000 -0.04064750
v -0.01735681 -0.05260818 -0.04248416
v -0.02132868 -0.05460607 -0.04021131
v -0.01732736 -0.05455212 -0.04205352
v -0.01716810 -0.04653513 -0.04466444
v -0.01529639 -0.04653239 -0.04540276
v -0.01317572 -0.04790150 -0.04547017
v -0.01390719 -0.04652911 -0.04589170
v -0.01253038 -0.04652905 -0.04633533
v -0.01112848 -0.04652816 -0.04675590
v -0.00880080 -0.04789303 -0.04660052
v -0.01317459 -0.04970114 -0.04474425
v -0.00882023 -0.04965924 -0.04576700
v -0.01316684 -0.05158542 -0.04413908
v -0.00883013 -0.05153106 -0.04510807
v -0.01316052 -0.05254655 -0.04388535
v -0.00883084 -0.05249278 -0.04484742
v -0.01314342 -0.05450462 -0.04347062
v -0.00882459 -0.05446266 -0.04445236
v -0.00958437 -0.04652297 -0.04719448
v -0.00835150 -0.04651880 -0.04753017
v -0.00739413 -0.04651527 -0.04777562
v -0.00464594 -0.04787008 -0.04732638
v -0.00676715 -0.04651188 -0.04792714
v -0.00648135 -0.04650998 -0.04799348
v -0.00332820 -0.04649698 -0.04856425
v -0.00467014 -0.04959844 -0.04633456
v -0.00468588 -0.05146252 -0.04559433
v -0.00468928 -0.05242907 -0.04532355
v -0.00468314 -0.05441861 -0.04495662
v -0.00050009 -0.05745004 -0.04499214
v -0.04295425 -0.05745016 0.01335912
v -0.04158699 -0.05578189 0.01695495
v -0.04159015 -0.05484538 0.01683634
v -0.04159671 -0.05297260 0.01659876
v -0.04160004 -0.05203633 0.01647979
v -0.04160690 -0.05016397 0.01624155
v -0.04166191 -0.05745016 0.01697003
v -0.02182316 -0.05745016 0.03933542
v -0.01906204 -0.05745028 0.04074639
v -0.01729726 -0.05581497 0.04144567
v -0.01521515 -0.05745028 0.04233330
v -0.01325637 -0.05581604 0.04290622
v -0.01252532 -0.05745016 0.04320394
v -0.01120126 -0.05745016 0.04356521
v -0.00908035 -0.05581425 0.04397648
v -0.00860053 -0.05745016 0.04415148
v -0.00733226 -0.05745016 0.04437977
v -0.00485319 -0.05745016 0.04471987
v -0.00367999 -0.05745016 0.04483252
v -0.00909358 -0.05487882 0.04392874
v -0.01327538 -0.05488096 0.04285514
v -0.01331353 -0.05301075 0.04275494
v -0.01732099 -0.05488007 0.04138994
v -0.01736867 -0.05301009 0.04127973
v -0.01739257 -0.05207507 0.04122525
v -0.02863276 -0.05486672 0.03454607
v -0.02868723 -0.05299567 0.03439372
v -0.02871453 -0.05206017 0.03431779
v -0.02876907 -0.05018918 0.03416663
v -0.03189288 -0.05486064 0.03156203
v -0.03194302 -0.05298911 0.03139382
v -0.03196811 -0.05205332 0.03130996
v -0.03201836 -0.05018191 0.03114271
v -0.03484594 -0.05485474 0.02826428
v -0.03488922 -0.05298267 0.02807968
v -0.03491085 -0.05204670 0.02798753
v -0.03495429 -0.05017476 0.02780359
v -0.03746384 -0.05484967 0.02468633
v -0.03749762 -0.05297719 0.02448457
v -0.03751462 -0.05204098 0.02438378
v -0.03754860 -0.05016874 0.02418231
v -0.03972059 -0.05484627 0.02086472
v -0.03974223 -0.05297355 0.02064538
v -0.03975306 -0.05203722 0.02053558
v -0.03977495 -0.05016480 0.02031594
v -0.04469627 -0.05486207 0.00390667
v -0.04463726 -0.05299251 0.00360542
v -0.04460756 -0.05205791 0.00345445
v -0.04454851 -0.05018871 0.00315213
v -0.04407036 -0.05485462 -0.00936162
v -0.04403293 -0.05298619 -0.00972664
v -0.04401457 -0.05205260 -0.00991070
v -0.04397850 -0.05018680 -0.01028186
v -0.03744947 -0.05479400 -0.02558577
v -0.03746527 -0.05291645 -0.02599310
v -0.03747313 -0.05197994 -0.02620226
v -0.03748881 -0.05011134 -0.02663165
v -0.03484493 -0.05476747 -0.02912813
v -0.03487068 -0.05288450 -0.02954268
v -0.03488342 -0.05194609 -0.02975732
v -0.03490870 -0.05007516 -0.03020149
v -0.03190343 -0.05473636 -0.03239399
v -0.03193664 -0.05284677 -0.03281539
v -0.03195297 -0.05190609 -0.03303617
v -0.03198528 -0.05003314 -0.03349810
v -0.02864903 -0.05470060 -0.03535038
v -0.02868604 -0.05280296 -0.03577876
v -0.02870410 -0.05185996 -0.03600674
v -0.02873927 -0.04998569 -0.03649049
v -0.02511316 -0.05465768 -0.03796684
v -0.02515065 -0.05274837 -0.03840070
v -0.02516865 -0.05180161 -0.03863638
v -0.02520304 -0.04992424 -0.03914570
v -0.00475913 -0.05764996 0.04453909
v -0.00049995 -0.05764960 0.04479610
v -0.00477058 -0.05755107 0.04463213
v -0.00049924 -0.05745016 0.04498338
v -0.00254297 -0.05745016 0.04491233
v -0.00367999 -0.05745016 0.04483252
v -0.00485319 -0.05745016 0.04471987
v -0.00733226 -0.05745016 0.04437977
v -0.00899827 -0.05755107 0.04397410
v -0.00860053 -0.05745016 0.04415148
v -0.01120126 -0.05745016 0.04356521
v -0.01314693 -0.05755107 0.04291868
v -0.01252532 -0.05745016 0.04320394
v -0.01521515 -0.05745028 0.04233330
v -0.01718044 -0.05755107 0.04147112
v -0.01906204 -0.05745028 0.04074639
v -0.02115899 -0.05755107 0.03958767
v -0.02182316 -0.05745016 0.03933542
v -0.02391457 -0.05745016 0.03809940
v -0.02493625 -0.05755107 0.03732264
v -0.02692025 -0.05745010 0.03603899
v -0.02847665 -0.05755107 0.03469866
v -0.02784001 -0.05745010 0.03533387
v -0.02884018 -0.05745010 0.03452312
v -0.03084051 -0.05745016 0.03275001
v -0.03174471 -0.05755107 0.03173828
v -0.03167783 -0.05764996 0.03167140
v -0.03462731 -0.05764996 0.02841395
v -0.03470103 -0.05755107 0.02847319
v -0.03724461 -0.05764996 0.02488237
v -0.03732395 -0.05755107 0.02493381
v -0.03950589 -0.05764996 0.02111142
v -0.03958976 -0.05755107 0.02115511
v -0.04138737 -0.05764996 0.01713591
v -0.04147469 -0.05755107 0.01717209
v -0.04286640 -0.05764996 0.01299428
v -0.04295669 -0.05755107 0.01302254
v -0.04402494 -0.05755107 0.00874758
v -0.04382181 -0.05745016 0.01014983
v -0.04434561 -0.05745016 0.00753796
v -0.03181290 -0.05745016 0.03180646
v -0.03384070 -0.05745028 0.02963811
v -0.03567403 -0.05745040 0.02740144
v -0.03694795 -0.05745046 0.02565670
v -0.03806357 -0.05745046 0.02397054
v -0.03888040 -0.05745040 0.02262264
v -0.03960679 -0.05745034 0.02132678
v -0.04020404 -0.05745028 0.02017986
v -0.04044568 -0.05745028 0.01969176
v -0.04057818 -0.05745022 0.01941758
v -0.04080617 -0.05745022 0.01893448
v -0.04166191 -0.05745016 0.01697003
v -0.04295425 -0.05745016 0.01335912
v -0.04461103 -0.05745016 0.00576866
v -0.04467219 -0.05755107 0.00438958
v -0.04393255 -0.05764996 0.00872743
v -0.04457825 -0.05764996 0.00437856
v -0.04489135 -0.05755101 -0.00000891
v -0.04479598 -0.05764996 -0.00000902
v -0.04467731 -0.05755095 -0.00440949
v -0.04458022 -0.05764996 -0.00440001
v -0.04403412 -0.05755095 -0.00876838
v -0.04393570 -0.05764996 -0.00874895
v -0.04296916 -0.05755107 -0.01304405
v -0.04287022 -0.05764996 -0.01301419
v -0.04148977 -0.05755119 -0.01719480
v -0.04139167 -0.05764996 -0.01715433
v -0.03960633 -0.05755143 -0.02118015
v -0.03951013 -0.05764996 -0.02112990
v -0.03734129 -0.05755161 -0.02496111
v -0.03724855 -0.05764996 -0.02490079
v -0.03471839 -0.05755185 -0.02850252
v -0.03463083 -0.05764996 -0.02843207
v -0.03176122 -0.05755202 -0.03176909
v -0.03168081 -0.05764996 -0.03168874
v -0.02961581 -0.05755208 -0.03377771
v -0.02841740 -0.05764996 -0.03464370
v -0.02734297 -0.05755214 -0.03564107
v -0.02488368 -0.05764996 -0.03726154
v -0.02495002 -0.05755208 -0.03735429
v -0.02245712 -0.05755202 -0.03890371
v -0.02354449 -0.05745219 -0.03839200
v -0.02201133 -0.05745207 -0.03929054
v -0.04479271 -0.05745016 0.00414157
v -0.04490083 -0.05745010 0.00275427
v -0.04493492 -0.05745010 0.00214291
v -0.04497236 -0.05745016 0.00115287
v -0.04498124 -0.05745016 0.00076042
v -0.04498862 -0.05745010 -0.00013564
v -0.04490267 -0.05744998 -0.00283354
v -0.04478353 -0.05744998 -0.00434458
v -0.04440021 -0.05744998 -0.00731164
v -0.04372406 -0.05745004 -0.01066112
v -0.04331969 -0.05745010 -0.01221430
v -0.04233520 -0.05745058 -0.01530212
v -0.04100763 -0.05745123 -0.01858168
v -0.04026556 -0.05745135 -0.02014321
v -0.03858625 -0.05745153 -0.02320456
v -0.03765124 -0.05745159 -0.02469611
v -0.03558301 -0.05745177 -0.02760004
v -0.03442347 -0.05745189 -0.02903723
v -0.03197503 -0.05745213 -0.03171855
v -0.02989894 -0.05745225 -0.03368330
v -0.02788597 -0.05745231 -0.03536689
v -0.02598333 -0.05745231 -0.03678631
v -0.01986503 -0.05755191 -0.04028886
v -0.02028930 -0.05745189 -0.04020601
v -0.01873731 -0.05745171 -0.04095101
v -0.01718747 -0.05755173 -0.04150032
v -0.01739203 -0.05745153 -0.04153835
v -0.01654678 -0.05745135 -0.04188072
v -0.01489192 -0.05745111 -0.04249405
v -0.01305168 -0.05755137 -0.04297566
v -0.01300454 -0.05764996 -0.04287695
v -0.00876009 -0.05755107 -0.04404461
v -0.00874001 -0.05764996 -0.04394233
v -0.00462854 -0.05764996 -0.04455792
v -0.00464362 -0.05755095 -0.04465705
v -0.00050090 -0.05764996 -0.04479640
v -0.00412953 -0.05744992 -0.04480880
v -0.00050009 -0.05745004 -0.04499214
v -0.01309984 -0.05745076 -0.04307633
v -0.00944871 -0.05745028 -0.04401266
v -0.00592804 -0.05744998 -0.04461216
v -0.01714503 -0.05764996 -0.04139751
v -0.02111452 -0.05764996 -0.03952014
v -0.02841365 -0.05764996 0.03462809
v -0.02487957 -0.05764996 0.03724694
v -0.02111113 -0.05764996 0.03950613
v -0.01714426 -0.05764996 0.04138386
v -0.01311546 -0.05764996 0.04283028
v -0.00897574 -0.05764996 0.04388356
v 0.00050076 -0.05745016 0.04498338
v 0.00049996 -0.05764960 0.04479610
v 0.00422543 -0.05745010 0.04478400
v 0.00477123 -0.05755006 0.04463297
v 0.00792086 -0.05745010 0.04427844
v 0.00899893 -0.05755006 0.04397487
v 0.01156240 -0.05745010 0.04347097
v 0.01314753 -0.05755006 0.04291951
v 0.01512545 -0.05745010 0.04236555
v 0.01720011 -0.05755006 0.04146403
v 0.01725584 -0.05745016 0.04154413
v 0.01952064 -0.05745010 0.04052865
v 0.02115893 -0.05755006 0.03958880
v 0.02175468 -0.05745010 0.03937339
v 0.02392190 -0.05745010 0.03809475
v 0.02493637 -0.05755000 0.03732365
v 0.02433717 -0.05745010 0.03783071
v 0.02638834 -0.05745028 0.03642982
v 0.02847725 -0.05755000 0.03469938
v 0.02836436 -0.05745040 0.03491431
v 0.03182339 -0.05745052 0.03179550
v 0.03175079 -0.05755000 0.03173351
v 0.03355085 -0.05745040 0.02996593
v 0.03470176 -0.05755000 0.02847385
v 0.03517270 -0.05745034 0.02804267
v 0.03732472 -0.05755000 0.02493441
v 0.03705769 -0.05745034 0.02549815
v 0.03873383 -0.05745022 0.02287274
v 0.03959059 -0.05755000 0.02115553
v 0.04025930 -0.05745010 0.02007001
v 0.04147565 -0.05755000 0.01717233
v 0.04156392 -0.05745010 0.01720887
v 0.04272209 -0.05745010 0.01408529
v 0.04295766 -0.05755006 0.01302272
v 0.04364556 -0.05745010 0.01088380
v 0.04402595 -0.05755006 0.00874764
v 0.04433107 -0.05745010 0.00762290
v 0.04467314 -0.05755000 0.00438958
v 0.04477560 -0.05745010 0.00432122
v 0.04489237 -0.05755000 -0.00000905
v 0.04498869 -0.05745010 -0.00009421
v 0.04467827 -0.05754994 -0.00440967
v 0.04476827 -0.05744992 -0.00450194
v 0.04438728 -0.05744992 -0.00739127
v 0.04403513 -0.05754994 -0.00876874
v 0.04382157 -0.05744998 -0.01024931
v 0.04297161 -0.05755006 -0.01303964
v 0.04307299 -0.05745010 -0.01306492
v 0.04214334 -0.05745028 -0.01582717
v 0.04149073 -0.05755018 -0.01719534
v 0.04158973 -0.05745046 -0.01723623
v 0.04056071 -0.05745064 -0.01954209
v 0.03960728 -0.05755036 -0.02118074
v 0.03933084 -0.05745088 -0.02191722
v 0.03795212 -0.05745117 -0.02423089
v 0.03734219 -0.05755059 -0.02496188
v 0.03643161 -0.05745153 -0.02646702
v 0.03470664 -0.05755083 -0.02851867
v 0.03478239 -0.05745183 -0.02860516
v 0.03185504 -0.05745213 -0.03183913
v 0.03176790 -0.05755101 -0.03176403
v 0.02924019 -0.05745225 -0.03425651
v 0.02849286 -0.05755113 -0.03473097
v 0.02666270 -0.05745231 -0.03629738
v 0.02495062 -0.05755107 -0.03735530
v 0.02394491 -0.05745219 -0.03814375
v 0.02117049 -0.05755095 -0.03961992
v 0.02110117 -0.05745195 -0.03978639
v 0.01814597 -0.05745159 -0.04121583
v 0.01718777 -0.05755071 -0.04150146
v 0.01727837 -0.05745147 -0.04158556
v 0.01464432 -0.05745117 -0.04257935
v 0.01303625 -0.05755036 -0.04298150
v 0.01204621 -0.05745064 -0.04338032
v 0.00876021 -0.05755006 -0.04404568
v 0.00878048 -0.05745016 -0.04414910
v 0.00466132 -0.05744992 -0.04475814
v 0.00464445 -0.05754994 -0.04465800
v 0.00049991 -0.05745004 -0.04499214
v 0.00049910 -0.05764996 -0.04479646
v 0.00462764 -0.05764996 -0.04455804
v 0.00873995 -0.05764996 -0.04394233
v 0.01300448 -0.05764996 -0.04287701
v 0.01714497 -0.05764996 -0.04139757
v 0.02111440 -0.05764996 -0.03952020
v 0.02488356 -0.05764996 -0.03726160
v 0.02841734 -0.05764996 -0.03464376
v 0.03168076 -0.05764996 -0.03168886
v 0.03463065 -0.05764996 -0.02843225
v 0.00475907 -0.05764996 0.04453909
v 0.00897568 -0.05764996 0.04388356
v 0.01311552 -0.05764996 0.04283028
v 0.01714444 -0.05764996 0.04138380
v 0.02110993 -0.05764996 0.03950667
v 0.02487844 -0.05764996 0.03724741
v 0.02841329 -0.05764996 0.03462821
v 0.03167796 -0.05764996 0.03167128
v 0.03462712 -0.05764996 0.02841413
v 0.03724443 -0.05764996 0.02488255
v 0.03950582 -0.05764996 0.02111142
v 0.04138743 -0.05764996 0.01713579
v 0.04286646 -0.05764996 0.01299417
v 0.04393255 -0.05764996 0.00872731
v 0.04457825 -0.05764996 0.00437844
v 0.04479598 -0.05764996 -0.00000915
v 0.04458022 -0.05764996 -0.00440013
v 0.04393565 -0.05764996 -0.00874907
v 0.04287016 -0.05764996 -0.01301431
v 0.04139161 -0.05764996 -0.01715445
v 0.03951007 -0.05764996 -0.02113002
v 0.03724843 -0.05764996 -0.02490091
v -0.01249802 -0.04634999 -0.04622924
v -0.01204347 -0.04634999 -0.04636770
v -0.01253038 -0.04652905 -0.04633533
v -0.01135557 -0.04634999 -0.04657375
v -0.01112848 -0.04652816 -0.04675590
v -0.00949699 -0.04643594 -0.04716664
v -0.00958437 -0.04652297 -0.04719448
v -0.00848669 -0.04643434 -0.04744678
v -0.00835150 -0.04651880 -0.04753017
v -0.00739413 -0.04651527 -0.04777562
v -0.00646442 -0.04643052 -0.04795712
v -0.00676715 -0.04651188 -0.04792714
v -0.00648135 -0.04650998 -0.04799348
v -0.00349563 -0.04642403 -0.04851394
v -0.00332820 -0.04649698 -0.04856425
v -0.00175226 -0.04649037 -0.04871380
v -0.00049954 -0.04634999 -0.04869621
v -0.00049953 -0.04648637 -0.04874986
v -0.01048535 -0.04634999 -0.04683017
v -0.00948387 -0.04634999 -0.04711961
v -0.00654965 -0.04634999 -0.04789525
v -0.00644707 -0.04634999 -0.04791939
v -0.00356358 -0.04634999 -0.04847168
v 0.00646257 -0.04650932 -0.04799818
v 0.00949740 -0.04643589 -0.04716652
v 0.01253038 -0.04652905 -0.04633533
v 0.01135569 -0.04634999 -0.04657375
v 0.01204329 -0.04634999 -0.04636776
v 0.00334835 -0.04649382 -0.04856467
v 0.00440758 -0.04642599 -0.04837399
v 0.00645387 -0.04643046 -0.04795950
v 0.00848621 -0.04643428 -0.04744684
v 0.00644493 -0.04634999 -0.04791986
v 0.00948429 -0.04634999 -0.04711949
v 0.00246215 -0.04642176 -0.04863297
v 0.00050046 -0.04648619 -0.04875004
v 0.00050045 -0.04634999 -0.04869621
v 0.00354439 -0.04634999 -0.04847449
v 0.01048576 -0.04634999 -0.04683005
v 0.01249808 -0.04634999 -0.04622924
v -0.04454635 -0.04654616 -0.00364268
v -0.04434239 -0.04634999 -0.00364226
v -0.04453675 -0.04654586 -0.00445396
v -0.04449045 -0.04654908 -0.00581628
v -0.04429578 -0.04645025 -0.00720817
v -0.04438370 -0.04655021 -0.00735992
v -0.04419153 -0.04655050 -0.00914031
v -0.04385637 -0.04645025 -0.01073843
v -0.04395626 -0.04655050 -0.01073998
v -0.04362952 -0.04655045 -0.01249134
v -0.04313021 -0.04645013 -0.01423960
v -0.04319208 -0.04655033 -0.01438826
v -0.04262453 -0.04655015 -0.01642411
v -0.04213035 -0.04645001 -0.01765787
v -0.04221904 -0.04654979 -0.01768779
v -0.04098682 -0.04654967 -0.02092331
v -0.04085999 -0.04644984 -0.02098768
v -0.03981268 -0.04654932 -0.02345848
v -0.03932875 -0.04644960 -0.02420592
v -0.03902101 -0.04654890 -0.02496498
v -0.03754526 -0.04644924 -0.02729439
v -0.03731697 -0.04654747 -0.02780830
v -0.03551745 -0.04644888 -0.03023463
v -0.03555738 -0.04654603 -0.03031843
v -0.03452533 -0.04654603 -0.03163629
v -0.03326511 -0.04644839 -0.03299683
v -0.03363668 -0.04654603 -0.03269463
v -0.03291726 -0.04654610 -0.03350520
v -0.03243100 -0.04654616 -0.03403151
v -0.03204369 -0.04654622 -0.03443890
v -0.03080093 -0.04644781 -0.03557127
v -0.03187751 -0.04654616 -0.03461056
v -0.03178966 -0.04654610 -0.03470075
v -0.03153795 -0.04654597 -0.03495568
v -0.03005063 -0.04654520 -0.03638428
v -0.02814030 -0.04644709 -0.03794318
v -0.02871531 -0.04654437 -0.03756147
v -0.02732479 -0.04654334 -0.03869259
v -0.02529847 -0.04644620 -0.04009765
v -0.02616399 -0.04654258 -0.03956907
v -0.02533948 -0.04654198 -0.04015666
v -0.02466922 -0.04654169 -0.04061412
v -0.02384376 -0.04654144 -0.04115378
v -0.02229511 -0.04644513 -0.04201900
v -0.02248615 -0.04654043 -0.04198658
v -0.02123862 -0.04653936 -0.04269576
v -0.01915109 -0.04644370 -0.04369854
v -0.02013826 -0.04653835 -0.04327911
v -0.01917922 -0.04653739 -0.04375678
v -0.01716810 -0.04653513 -0.04466444
v -0.01588410 -0.04644173 -0.04511708
v -0.01529639 -0.04653239 -0.04540276
v -0.01390719 -0.04652911 -0.04589170
v -0.01253038 -0.04652905 -0.04633533
v -0.01389789 -0.04634999 -0.04577744
v -0.01249802 -0.04634999 -0.04622924
v -0.04419450 -0.04634999 -0.00720191
v -0.04375588 -0.04634999 -0.01073664
v -0.04303526 -0.04634999 -0.01422059
v -0.04204142 -0.04634999 -0.01762789
v -0.04077780 -0.04634999 -0.02094936
v -0.03925395 -0.04634999 -0.02415996
v -0.03747606 -0.04634999 -0.02724367
v -0.03545051 -0.04634999 -0.03018426
v -0.03320538 -0.04634999 -0.03294229
v -0.03074854 -0.04634999 -0.03551352
v -0.02809441 -0.04634999 -0.03788363
v -0.02525722 -0.04634999 -0.04003834
v -0.02210634 -0.04634999 -0.04204976
v -0.01912301 -0.04634999 -0.04364037
v -0.01723289 -0.04634999 -0.04450428
v -0.01548367 -0.04634999 -0.04520952
v -0.04434013 -0.04634999 -0.00299275
v -0.04434239 -0.04634999 -0.00364226
v -0.04444652 -0.04645001 -0.00348925
v -0.04454635 -0.04654616 -0.00364268
v -0.04454046 -0.04654723 -0.00204182
v -0.04442745 -0.04645001 -0.00114041
v -0.04451578 -0.04654973 -0.00000700
v -0.04430608 -0.04634999 -0.00001021
v -0.04432195 -0.04634999 -0.00117671
v -0.04433327 -0.04634999 -0.00217086
v 0.00000000 -0.04635487 0.04430931
v -0.00045661 -0.04634999 0.04430156
v -0.00045676 -0.04636244 0.04431462
v -0.00468147 -0.04634999 0.04405295
v -0.00435573 -0.04644988 0.04419076
v -0.00866622 -0.04644988 0.04354953
v -0.00570959 -0.04654955 0.04413986
v -0.00873714 -0.04654936 0.04364073
v -0.01278477 -0.04654942 0.04263293
v -0.01289361 -0.04644988 0.04249209
v -0.01455324 -0.04654955 0.04206359
v -0.01699727 -0.04644988 0.04102569
v -0.01612657 -0.04654967 0.04148697
v -0.01686650 -0.04654979 0.04119205
v -0.01723921 -0.04654979 0.04103749
v -0.01866340 -0.04654979 0.04040956
v -0.02093625 -0.04644988 0.03916096
v -0.02028608 -0.04654979 0.03961908
v -0.02208697 -0.04654979 0.03864306
v -0.02343565 -0.04654979 0.03783982
v -0.02467375 -0.04644988 0.03691905
v -0.02526348 -0.04654979 0.03664469
v -0.02701091 -0.04654979 0.03537702
v -0.02817475 -0.04644988 0.03432345
v -0.02957665 -0.04654979 0.03326368
v -0.03140436 -0.04644988 0.03139752
v -0.03173267 -0.04654979 0.03121441
v -0.03398567 -0.04654979 0.02874296
v -0.03432923 -0.04644988 0.02816718
v -0.03599852 -0.04654967 0.02617532
v -0.03692400 -0.04644988 0.02466547
v -0.03778046 -0.04654926 0.02352923
v -0.03916525 -0.04644988 0.02092725
v -0.03872454 -0.04654896 0.02194124
v -0.04013913 -0.04654872 0.01923447
v -0.04102993 -0.04644988 0.01698726
v -0.04112523 -0.04654884 0.01702672
v -0.04212123 -0.04654908 0.01438808
v -0.04249763 -0.04644988 0.01288300
v -0.04254084 -0.04654914 0.01309555
v -0.04324382 -0.04654932 0.01054507
v -0.04355555 -0.04644988 0.00865567
v -0.04365724 -0.04654942 0.00867587
v -0.04394435 -0.04654955 0.00707859
v -0.04419457 -0.04644988 0.00434613
v -0.04419070 -0.04654985 0.00533235
v -0.04443680 -0.04654985 0.00249165
v -0.04451578 -0.04654973 -0.00000700
v -0.04430608 -0.04634999 -0.00001021
v -0.04429084 -0.04634999 0.00087647
v -0.04425929 -0.04634999 0.00189960
v -0.04419744 -0.04634999 0.00305432
v -0.04409116 -0.04634999 0.00433588
v -0.04384249 -0.04634999 0.00637221
v -0.04345351 -0.04634999 0.00863540
v -0.04302620 -0.04634999 0.01056075
v -0.04247425 -0.04634999 0.01259857
v -0.04178195 -0.04634999 0.01473277
v -0.04093366 -0.04634999 0.01694738
v -0.04077744 -0.04634999 0.01731985
v -0.03892982 -0.04634999 0.02114427
v -0.03672516 -0.04634999 0.02477473
v -0.03418493 -0.04634999 0.02817869
v -0.03133070 -0.04634999 0.03132390
v -0.02810853 -0.04634999 0.03424298
v -0.00886410 -0.04634999 0.04340410
v -0.01296818 -0.04634999 0.04236096
v -0.01695746 -0.04634999 0.04092955
v -0.02088695 -0.04634999 0.03906923
v -0.02461564 -0.04634999 0.03683257
v -0.00394672 -0.04654961 0.04433357
v -0.00045748 -0.04654979 0.04451000
v 0.00000000 -0.04635487 0.04430931
v 0.00054323 -0.04636353 0.04431462
v 0.00054304 -0.04634999 0.04430055
v 0.00435585 -0.04644988 0.04419070
v 0.00474584 -0.04634999 0.04404604
v 0.00866657 -0.04644988 0.04354941
v 0.00890636 -0.04634999 0.04339545
v 0.01289409 -0.04644988 0.04249197
v 0.01298892 -0.04634999 0.04235464
v 0.01699763 -0.04644988 0.04102557
v 0.01695781 -0.04634999 0.04092943
v 0.02088731 -0.04634999 0.03906905
v 0.02093648 -0.04644988 0.03916090
v 0.02461600 -0.04634999 0.03683233
v 0.02467393 -0.04644988 0.03691893
v 0.02810895 -0.04634994 0.03424263
v 0.02817511 -0.04644988 0.03432321
v 0.03140491 -0.04644988 0.03139704
v 0.02973902 -0.04654985 0.03311872
v 0.03175401 -0.04654979 0.03119266
v 0.00054252 -0.04654979 0.04450899
v 0.00487250 -0.04654961 0.04424059
v 0.00723487 -0.04654942 0.04391497
v 0.00909942 -0.04654936 0.04356664
v 0.01122301 -0.04654936 0.04306936
v 0.01366037 -0.04654949 0.04236119
v 0.01504671 -0.04654961 0.04188996
v 0.01634693 -0.04654973 0.04140073
v 0.01689571 -0.04654979 0.04118007
v 0.01725655 -0.04654979 0.04103022
v 0.01826739 -0.04654985 0.04059022
v 0.01978039 -0.04654985 0.03987425
v 0.02152758 -0.04654985 0.03895777
v 0.02353131 -0.04654985 0.03778046
v 0.02529215 -0.04654985 0.03662490
v 0.02706956 -0.04654985 0.03533220
v 0.03308582 -0.04654985 0.02977550
v 0.03432995 -0.04644988 0.02816641
v 0.03424942 -0.04634994 0.02810025
v 0.03692454 -0.04644988 0.02466475
v 0.03683805 -0.04634994 0.02460670
v 0.03916560 -0.04644988 0.02092671
v 0.03907394 -0.04634994 0.02087718
v 0.04102987 -0.04644988 0.01698738
v 0.04093360 -0.04634994 0.01694750
v 0.04178202 -0.04634994 0.01473265
v 0.04249769 -0.04644988 0.01288282
v 0.04247438 -0.04634994 0.01259815
v 0.04302638 -0.04634994 0.01056009
v 0.04355578 -0.04644988 0.00865483
v 0.04345369 -0.04634994 0.00863457
v 0.04384261 -0.04634994 0.00637168
v 0.04419463 -0.04644988 0.00434583
v 0.04409122 -0.04634994 0.00433558
v 0.04419744 -0.04634994 0.00305480
v 0.04425929 -0.04634994 0.00190025
v 0.04443502 -0.04654985 0.00252563
v 0.04451584 -0.04654979 -0.00000700
v 0.03519570 -0.04654973 0.02724629
v 0.03709714 -0.04654936 0.02459263
v 0.03873407 -0.04654890 0.02192449
v 0.03989899 -0.04654872 0.01972723
v 0.04082648 -0.04654878 0.01773053
v 0.04165643 -0.04654896 0.01568281
v 0.04254394 -0.04654914 0.01308560
v 0.04309588 -0.04654926 0.01113420
v 0.04365741 -0.04654942 0.00867504
v 0.04417812 -0.04654985 0.00543571
v 0.04430608 -0.04634994 -0.00001021
v 0.04429084 -0.04634994 0.00087695
v 0.03133124 -0.04634994 0.03132337
v 0.04430608 -0.04634994 -0.00001021
v 0.04451584 -0.04654979 -0.00000700
v 0.04432195 -0.04634994 -0.00117671
v 0.04444158 -0.04645001 -0.00240499
v 0.04433327 -0.04634994 -0.00217086
v 0.04434013 -0.04634994 -0.00299275
v 0.04434245 -0.04634994 -0.00364226
v 0.04454635 -0.04654616 -0.00364268
v 0.04454046 -0.04654723 -0.00204223
v 0.01253038 -0.04652905 -0.04633533
v 0.01249808 -0.04634999 -0.04622924
v 0.01385402 -0.04652911 -0.04590958
v 0.01390850 -0.04634999 -0.04577380
v 0.01521342 -0.04653233 -0.04543340
v 0.01588362 -0.04644173 -0.04511725
v 0.01712274 -0.04653501 -0.04468339
v 0.01915103 -0.04644364 -0.04369860
v 0.01917910 -0.04653732 -0.04375678
v 0.02013987 -0.04653829 -0.04327839
v 0.02126091 -0.04644465 -0.04260665
v 0.02124619 -0.04653936 -0.04269164
v 0.02251523 -0.04654036 -0.04196929
v 0.02385431 -0.04654139 -0.04114705
v 0.02529644 -0.04644620 -0.04009908
v 0.02466148 -0.04654169 -0.04061931
v 0.02533745 -0.04654198 -0.04015803
v 0.02616232 -0.04654258 -0.03957027
v 0.02717471 -0.04654324 -0.03880929
v 0.02904540 -0.04644733 -0.03717821
v 0.02840441 -0.04654413 -0.03782242
v 0.02974641 -0.04654502 -0.03666073
v 0.03151249 -0.04654592 -0.03498113
v 0.03246545 -0.04644817 -0.03387761
v 0.03172700 -0.04654603 -0.03476434
v 0.03204369 -0.04654616 -0.03443878
v 0.03228038 -0.04654616 -0.03419107
v 0.03311162 -0.04654610 -0.03328996
v 0.03377479 -0.04654603 -0.03253442
v 0.03551769 -0.04644882 -0.03023427
v 0.03462636 -0.04654597 -0.03151166
v 0.03558348 -0.04654603 -0.03028374
v 0.03628122 -0.04654633 -0.02932971
v 0.03754191 -0.04644924 -0.02729964
v 0.03760850 -0.04654765 -0.02735447
v 0.03908871 -0.04654890 -0.02484148
v 0.03932797 -0.04644953 -0.02420741
v 0.03973877 -0.04654926 -0.02360522
v 0.04085904 -0.04644978 -0.02098995
v 0.04082828 -0.04654961 -0.02129107
v 0.04221808 -0.04654979 -0.01769065
v 0.04212939 -0.04645001 -0.01766073
v 0.04251610 -0.04655009 -0.01677489
v 0.04312908 -0.04645013 -0.01424372
v 0.04322354 -0.04655027 -0.01426661
v 0.04373592 -0.04655039 -0.01196736
v 0.04385441 -0.04645019 -0.01074892
v 0.04408901 -0.04655045 -0.00988948
v 0.04431837 -0.04655045 -0.00804508
v 0.04429572 -0.04645019 -0.00720793
v 0.04444539 -0.04655015 -0.00657350
v 0.04450130 -0.04654854 -0.00558591
v 0.04453229 -0.04654622 -0.00466341
v 0.04454635 -0.04654616 -0.00364268
v 0.04434245 -0.04634994 -0.00364226
v 0.04419463 -0.04634994 -0.00720102
v 0.04375606 -0.04634994 -0.01073580
v 0.04303520 -0.04634994 -0.01422101
v 0.04204046 -0.04634994 -0.01763075
v 0.04077666 -0.04634994 -0.02095192
v 0.03925275 -0.04634994 -0.02416199
v 0.03747528 -0.04634994 -0.02724480
v 0.03545075 -0.04634994 -0.03018397
v 0.03320657 -0.04634994 -0.03294122
v 0.03075063 -0.04634994 -0.03551197
v 0.02809590 -0.04634994 -0.03788268
v 0.02525520 -0.04634994 -0.04003977
v 0.02210688 -0.04634999 -0.04204952
v 0.01912289 -0.04634999 -0.04364043
v 0.01724219 -0.04634999 -0.04450029
v 0.01549696 -0.04634999 -0.04520446
v 0.00050028 -0.05735080 -0.04459327
v 0.00049910 -0.05764996 -0.04460060
v 0.00000029 -0.05734961 -0.04459327
v 0.00000029 -0.05734961 -0.04459327
v 0.00049910 -0.05764996 -0.04460060
v -0.00050090 -0.05764996 -0.04460060
v 0.00000029 -0.05734961 -0.04459327
v -0.00050090 -0.05764996 -0.04460060
v -0.00049970 -0.05734847 -0.04459321
v -0.00049939 -0.05719201 -0.04458951
v 0.00050060 -0.05719171 -0.04458951
v 0.00050028 -0.05735080 -0.04459327
v -0.00050090 -0.05764996 -0.04479640
v -0.00050009 -0.05745004 -0.04499214
v -0.00050090 -0.05764996 -0.04460060
v -0.00050090 -0.05764996 -0.04460060
v -0.00050009 -0.05745004 -0.04499214
v -0.00049970 -0.05734847 -0.04459321
v -0.00049935 -0.05718277 -0.04498600
v -0.00049939 -0.05719201 -0.04458951
v 0.00049910 -0.05764996 -0.04479646
v 0.00049910 -0.05764996 -0.04460060
v 0.00049991 -0.05745004 -0.04499214
v 0.00049991 -0.05745004 -0.04499214
v 0.00049910 -0.05764996 -0.04460060
v 0.00050028 -0.05735080 -0.04459327
v 0.00050017 -0.05738221 -0.04499059
v 0.00050017 -0.05738221 -0.04499059
v 0.00050028 -0.05735080 -0.04459327
v 0.00050041 -0.05731623 -0.04498910
v 0.00050041 -0.05731623 -0.04498910
v 0.00050028 -0.05735080 -0.04459327
v 0.00050058 -0.05725132 -0.04498761
v 0.00050060 -0.05719171 -0.04458951
v 0.00050064 -0.05718248 -0.04498600
v 0.00050046 -0.04648619 -0.04875004
v 0.00050046 -0.04754375 -0.04774469
v 0.00050045 -0.04634999 -0.04869621
v 0.00050045 -0.04634999 -0.04869621
v 0.00050046 -0.04754375 -0.04774469
v 0.00050042 -0.04634999 -0.04830056
v 0.00050042 -0.04634999 -0.04830056
v 0.00050042 -0.04823284 -0.04669052
v 0.00050042 -0.04823284 -0.04669052
v 0.00050046 -0.04754375 -0.04774469
v 0.00050046 -0.04871510 -0.04687368
v 0.00050042 -0.04823284 -0.04669052
v 0.00050046 -0.04871510 -0.04687368
v 0.00050046 -0.04998396 -0.04615664
v 0.00050042 -0.05041055 -0.04548674
v 0.00050042 -0.05041055 -0.04548674
v 0.00050046 -0.04998396 -0.04615664
v 0.00050046 -0.05133615 -0.04560345
v 0.00050042 -0.05157994 -0.04506319
v 0.00050042 -0.05157994 -0.04506319
v 0.00050046 -0.05133615 -0.04560345
v 0.00050046 -0.05284952 -0.04520255
v 0.00050042 -0.05278729 -0.04476910
v 0.00050042 -0.05278729 -0.04476910
v 0.00050046 -0.05284952 -0.04520255
v 0.00050046 -0.05435620 -0.04500639
v 0.00050042 -0.05278729 -0.04476910
v 0.00050046 -0.05435620 -0.04500639
v 0.00050042 -0.05525033 -0.04455649
v 0.00050042 -0.05525033 -0.04455649
v 0.00050046 -0.05525033 -0.04496818
v -0.00049954 -0.04634999 -0.04869621
v -0.00049957 -0.04634999 -0.04830056
v -0.00049953 -0.04754381 -0.04774469
v -0.00049953 -0.04754381 -0.04774469
v -0.00049957 -0.04634999 -0.04830056
v -0.00049957 -0.04823284 -0.04669052
v -0.00049953 -0.04754381 -0.04774469
v -0.00049957 -0.04823284 -0.04669052
v -0.00049953 -0.04871510 -0.04687362
v -0.00049953 -0.04871510 -0.04687362
v -0.00049957 -0.04823284 -0.04669052
v -0.00049953 -0.04998390 -0.04615658
v -0.00049957 -0.05041055 -0.04548674
v -0.00049953 -0.04998390 -0.04615658
v -0.00049957 -0.05041055 -0.04548674
v -0.00049953 -0.05133615 -0.04560339
v -0.00049957 -0.05157994 -0.04506319
v -0.00049953 -0.05133615 -0.04560339
v -0.00049957 -0.05157994 -0.04506319
v -0.00049953 -0.05284952 -0.04520249
v -0.00049957 -0.05278729 -0.04476910
v -0.00049953 -0.05284952 -0.04520249
v -0.00049957 -0.05278729 -0.04476910
v -0.00049953 -0.05435620 -0.04500633
v -0.00049953 -0.05435620 -0.04500633
v -0.00049957 -0.05278729 -0.04476910
v -0.00049957 -0.05525033 -0.04455649
v -0.00049957 -0.05525033 -0.04455649
v -0.00049953 -0.05525033 -0.04496818
v -0.00049953 -0.04648637 -0.04874986
v -0.00049957 -0.04634999 -0.04830056
v 0.00050042 -0.04634999 -0.04830056
v 0.00000043 -0.04709558 -0.04758310
v 0.00050042 -0.04823284 -0.04669052
v 0.00000043 -0.04888891 -0.04626506
v 0.00050042 -0.05041055 -0.04548674
v 0.00000043 -0.05089436 -0.04529422
v 0.00050042 -0.05157994 -0.04506319
v 0.00000043 -0.05304353 -0.04472458
v 0.00050042 -0.05278729 -0.04476910
v 0.00050042 -0.05525033 -0.04455649
v -0.00049957 -0.05525033 -0.04455649
v -0.00049957 -0.05278729 -0.04476910
v -0.00049957 -0.05157994 -0.04506319
v -0.00049957 -0.05041055 -0.04548674
v -0.00049957 -0.04823284 -0.04669052
v 0.00050060 -0.05719171 -0.04458951
v 0.00050042 -0.05525033 -0.04455649
v 0.00050064 -0.05718248 -0.04498600
v 0.00050046 -0.05525033 -0.04496818
v -0.00049953 -0.05525033 -0.04496818
v -0.00049957 -0.05525033 -0.04455649
v -0.00049935 -0.05718277 -0.04498600
v -0.00049939 -0.05719201 -0.04458951
v -0.00049939 -0.05719201 -0.04458951
v 0.00000050 -0.05668871 -0.04457753
v 0.00050060 -0.05719171 -0.04458951
v 0.00050060 -0.05719171 -0.04458951
v 0.00000050 -0.05668871 -0.04457753
v 0.00000048 -0.05654703 -0.04457426
v 0.00050042 -0.05525033 -0.04455649
v 0.00000043 -0.05553518 -0.04455757
v -0.00049957 -0.05525033 -0.04455649
v -0.00049939 -0.05719201 -0.04458951
v -0.00045676 -0.04636244 0.04431462
v -0.00049995 -0.05764960 0.04479610
v 0.00000000 -0.04635487 0.04430931
v 0.00000000 -0.04635487 0.04430931
v -0.00049995 -0.05764960 0.04479610
v 0.00049996 -0.05764960 0.04479610
v 0.00000000 -0.04635487 0.04430931
v 0.00049996 -0.05764960 0.04479610
v 0.00054323 -0.04636353 0.04431462
v 0.00050076 -0.05745016 0.04498338
v 0.00051069 -0.05485974 0.04486882
v 0.00049996 -0.05764960 0.04479610
v 0.00049996 -0.05764960 0.04479610
v 0.00051069 -0.05485974 0.04486882
v 0.00052145 -0.05204932 0.04474574
v 0.00053172 -0.04936753 0.04462945
v 0.00054252 -0.04654979 0.04450899
v 0.00054323 -0.04636353 0.04431462
v 0.00053172 -0.04936753 0.04462945
v 0.00053172 -0.04936753 0.04462945
v 0.00054323 -0.04636353 0.04431462
v 0.00049996 -0.05764960 0.04479610
v -0.00049924 -0.05745016 0.04498338
v -0.00049995 -0.05764960 0.04479610
v -0.00048931 -0.05485968 0.04486912
v -0.00048931 -0.05485968 0.04486912
v -0.00049995 -0.05764960 0.04479610
v -0.00047855 -0.05204915 0.04474645
v -0.00047855 -0.05204915 0.04474645
v -0.00046824 -0.04935794 0.04462999
v -0.00046824 -0.04935794 0.04462999
v -0.00049995 -0.05764960 0.04479610
v -0.00045676 -0.04636244 0.04431462
v -0.00046824 -0.04935794 0.04462999
v -0.00045676 -0.04636244 0.04431462
v -0.00045748 -0.04654979 0.04451000
f 1 2 3
f 3 2 4
f 3 4 5
f 6 7 1
f 1 7 8
f 1 8 2
f 7 6 9
f 9 6 10
f 11 12 13
f 14 10 15
f 16 17 18
f 18 19 16
f 16 19 20
f 21 22 23
f 24 25 26
f 11 27 28
f 29 30 9
f 24 31 32
f 23 33 34
f 9 35 7
f 7 35 36
f 7 36 37
f 37 38 7
f 7 38 39
f 7 39 40
f 40 39 41
f 41 39 42
f 41 42 43
f 43 42 44
f 44 42 45
f 45 42 46
f 46 42 47
f 47 42 48
f 47 48 49
f 49 48 50
f 50 48 51
f 51 48 52
f 52 48 53
f 52 53 54
f 54 53 55
f 55 56 57
f 55 57 58
f 38 59 39
f 39 59 60
f 39 60 61
f 61 60 62
f 63 62 64
f 64 65 63
f 63 65 66
f 63 66 67
f 63 67 68
f 68 67 69
f 68 69 70
f 70 71 68
f 68 71 72
f 68 72 73
f 74 75 76
f 77 73 78
f 77 78 79
f 79 80 77
f 77 80 81
f 82 83 84
f 58 85 86
f 58 86 55
f 87 88 89
f 3 5 90
f 90 5 91
f 90 91 92
f 92 91 93
f 92 93 94
f 92 94 95
f 95 94 96
f 95 96 97
f 97 98 95
f 95 98 99
f 95 99 100
f 95 100 101
f 101 100 102
f 101 102 103
f 103 104 101
f 101 105 106
f 107 104 108
f 107 108 109
f 110 111 109
f 109 112 113
f 109 113 107
f 114 115 112
f 112 115 116
f 117 118 92
f 92 118 119
f 92 119 90
f 120 121 122
f 117 123 124
f 117 124 125
f 126 127 128
f 120 129 130
f 120 130 131
f 132 133 134
f 134 133 135
f 134 135 136
f 136 129 134
f 131 137 138
f 138 137 139
f 138 139 121
f 125 140 117
f 117 140 141
f 117 141 118
f 142 143 144
f 144 143 145
f 144 145 146
f 143 147 145
f 145 147 148
f 148 147 149
f 149 147 150
f 149 150 151
f 151 152 149
f 149 152 153
f 153 152 154
f 153 154 155
f 156 157 155
f 155 157 158
f 155 158 159
f 156 160 157
f 157 160 161
f 161 160 162
f 161 162 163
f 163 162 164
f 164 162 165
f 165 162 166
f 166 162 167
f 166 167 168
f 168 169 166
f 166 169 170
f 166 170 171
f 171 170 172
f 171 172 173
f 159 153 155
f 146 174 144
f 175 176 177
f 144 178 179
f 180 181 182
f 144 183 184
f 184 183 185
f 184 185 186
f 187 188 186
f 186 188 189
f 186 189 184
f 184 189 190
f 187 191 188
f 188 191 192
f 192 191 193
f 193 191 194
f 194 191 195
f 194 195 196
f 196 195 197
f 196 197 198
f 198 197 199
f 199 197 200
f 199 200 201
f 201 202 199
f 199 202 203
f 203 202 204
f 204 202 205
f 204 205 206
f 206 207 204
f 204 207 208
f 204 208 209
f 209 208 210
f 210 208 211
f 211 208 212
f 212 208 213
f 212 213 214
f 214 213 215
f 216 217 218
f 218 217 219
f 218 219 220
f 220 219 221
f 220 221 222
f 222 221 223
f 222 223 224
f 224 223 225
f 224 225 226
f 226 225 227
f 226 227 228
f 228 227 229
f 228 229 230
f 221 231 223
f 223 231 232
f 223 232 225
f 225 232 227
f 232 231 233
f 233 231 234
f 233 234 235
f 233 235 227
f 227 235 229
f 236 237 230
f 230 237 238
f 230 238 228
f 228 238 239
f 228 239 226
f 226 239 240
f 226 240 224
f 224 240 241
f 224 241 242
f 242 241 243
f 242 243 220
f 220 243 218
f 237 236 244
f 244 236 245
f 244 245 246
f 244 246 247
f 247 246 248
f 247 248 249
f 247 249 250
f 250 249 251
f 250 251 252
f 250 252 253
f 253 252 254
f 253 254 255
f 253 255 256
f 256 255 257
f 256 257 258
f 258 257 259
f 258 259 260
f 258 260 261
f 261 260 262
f 261 262 263
f 263 262 264
f 263 264 265
f 265 264 266
f 265 266 267
f 265 267 268
f 268 267 269
f 268 269 270
f 270 269 271
f 270 271 272
f 272 271 273
f 272 273 274
f 275 276 274
f 274 276 277
f 274 277 272
f 272 277 278
f 272 278 279
f 279 278 280
f 279 280 281
f 281 280 282
f 281 282 283
f 283 282 284
f 283 284 285
f 285 284 286
f 285 286 287
f 287 286 288
f 287 288 289
f 275 290 276
f 276 290 291
f 276 291 292
f 292 291 293
f 292 293 294
f 294 293 295
f 294 295 296
f 296 295 297
f 296 297 298
f 298 297 299
f 298 299 300
f 300 299 301
f 300 301 302
f 302 301 303
f 303 301 304
f 304 301 305
f 304 305 306
f 306 305 307
f 307 305 308
f 308 305 309
f 309 305 310
f 309 310 311
f 311 310 312
f 312 310 313
f 313 310 314
f 314 310 315
f 315 310 316
f 315 316 317
f 317 316 318
f 318 316 319
f 318 319 320
f 320 319 321
f 321 319 322
f 322 319 323
f 323 319 324
f 324 319 325
f 324 325 326
f 326 325 327
f 327 325 328
f 328 325 329
f 328 329 330
f 330 329 331
f 331 329 332
f 331 332 333
f 333 332 334
f 334 332 335
f 334 335 336
f 336 335 337
f 336 337 338
f 338 337 339
f 338 339 340
f 340 339 341
f 341 339 342
f 342 339 343
f 342 343 344
f 344 343 345
f 344 345 346
f 346 345 347
f 346 347 348
f 348 347 349
f 348 349 350
f 350 349 351
f 351 349 352
f 351 352 353
f 353 352 354
f 353 354 355
f 355 354 356
f 355 356 357
f 357 356 358
f 358 356 359
f 290 360 291
f 291 360 361
f 291 361 293
f 293 361 362
f 293 362 295
f 295 362 363
f 295 363 297
f 297 363 364
f 297 364 299
f 299 364 365
f 299 365 301
f 301 365 305
f 360 366 361
f 361 366 367
f 361 367 368
f 368 367 369
f 368 369 370
f 368 370 371
f 371 370 372
f 371 372 373
f 371 373 374
f 374 373 375
f 374 375 376
f 376 375 377
f 376 377 378
f 378 377 379
f 378 379 380
f 378 380 381
f 381 380 382
f 381 382 383
f 383 382 384
f 383 384 385
f 385 384 386
f 385 386 387
f 385 387 388
f 388 387 389
f 388 389 390
f 388 390 391
f 391 390 392
f 391 392 393
f 391 393 394
f 394 393 356
f 394 356 354
f 302 395 300
f 300 395 396
f 300 396 397
f 397 396 398
f 397 398 399
f 399 398 400
f 399 400 401
f 399 401 402
f 402 401 403
f 402 403 404
f 402 404 405
f 405 404 406
f 405 406 407
f 407 408 405
f 405 408 409
f 405 409 410
f 410 409 411
f 410 411 412
f 412 413 410
f 410 413 414
f 410 414 415
f 415 414 416
f 415 416 417
f 417 416 418
f 417 418 280
f 280 418 282
f 413 419 414
f 414 419 420
f 414 420 421
f 421 420 422
f 421 422 423
f 423 422 424
f 423 424 425
f 423 425 286
f 286 425 426
f 286 426 288
f 289 427 287
f 287 427 428
f 287 428 429
f 429 428 430
f 429 430 431
f 431 430 432
f 431 432 433
f 433 432 434
f 433 434 435
f 435 434 436
f 435 436 261
f 261 436 258
f 427 437 428
f 428 437 438
f 428 438 430
f 430 438 439
f 430 439 432
f 432 439 440
f 432 440 434
f 434 440 441
f 434 441 436
f 436 441 442
f 436 442 258
f 258 442 256
f 437 443 438
f 438 443 444
f 438 444 445
f 445 444 446
f 445 446 447
f 445 447 448
f 448 447 449
f 448 449 450
f 450 449 451
f 450 451 452
f 450 452 453
f 453 452 454
f 453 454 455
f 453 455 456
f 456 455 457
f 456 457 458
f 458 459 456
f 456 459 460
f 456 460 461
f 461 460 462
f 461 462 463
f 461 463 464
f 464 463 465
f 464 465 466
f 466 465 467
f 466 467 468
f 466 468 469
f 469 468 216
f 469 216 218
f 242 220 222
f 218 243 469
f 469 243 470
f 469 470 466
f 466 470 471
f 466 471 464
f 464 471 472
f 464 472 461
f 461 472 473
f 461 473 456
f 456 473 474
f 456 474 453
f 453 474 475
f 453 475 450
f 450 475 476
f 450 476 448
f 448 476 477
f 448 477 445
f 445 477 439
f 445 439 438
f 285 287 429
f 286 284 423
f 423 284 478
f 423 478 421
f 421 478 416
f 421 416 414
f 405 410 479
f 479 410 415
f 479 415 417
f 402 405 480
f 480 405 479
f 480 479 481
f 481 479 417
f 481 417 482
f 482 417 280
f 482 280 278
f 399 402 483
f 483 402 480
f 483 480 484
f 484 480 481
f 484 481 485
f 485 481 482
f 485 482 278
f 298 300 397
f 397 399 486
f 486 399 483
f 486 483 487
f 487 483 484
f 487 484 488
f 488 484 485
f 488 485 489
f 489 485 278
f 489 278 277
f 310 305 490
f 490 305 365
f 490 365 491
f 491 365 364
f 491 364 492
f 492 364 363
f 492 363 493
f 493 363 362
f 493 362 368
f 368 362 361
f 316 310 494
f 494 310 490
f 494 490 495
f 495 490 491
f 495 491 496
f 496 491 492
f 496 492 497
f 497 492 493
f 497 493 371
f 371 493 368
f 319 316 498
f 498 316 494
f 498 494 499
f 499 494 495
f 499 495 500
f 500 495 496
f 500 496 501
f 501 496 497
f 501 497 374
f 374 497 371
f 325 319 502
f 502 319 498
f 502 498 503
f 503 498 499
f 503 499 504
f 504 499 500
f 504 500 505
f 505 500 501
f 505 501 376
f 376 501 374
f 329 325 506
f 506 325 502
f 506 502 507
f 507 502 503
f 507 503 508
f 508 503 504
f 508 504 509
f 509 504 505
f 509 505 378
f 378 505 376
f 332 329 510
f 510 329 506
f 510 506 511
f 511 506 507
f 511 507 512
f 512 507 508
f 512 508 513
f 513 508 514
f 513 514 383
f 383 514 381
f 335 332 515
f 515 332 510
f 515 510 516
f 516 510 511
f 516 511 517
f 517 511 512
f 517 512 518
f 518 512 513
f 518 513 385
f 385 513 383
f 343 339 337
f 337 335 519
f 519 335 515
f 519 515 520
f 520 515 516
f 520 516 521
f 521 516 517
f 521 517 522
f 522 517 518
f 522 518 388
f 388 518 385
f 243 241 470
f 470 241 523
f 470 523 471
f 471 523 524
f 471 524 472
f 472 524 525
f 472 525 473
f 473 525 526
f 473 526 474
f 474 526 527
f 474 527 475
f 475 527 528
f 475 528 476
f 476 528 529
f 476 529 477
f 477 529 440
f 477 440 439
f 285 429 530
f 530 429 431
f 530 431 433
f 418 416 478
f 418 478 282
f 282 478 284
f 296 298 486
f 486 298 397
f 296 486 487
f 345 343 519
f 519 343 337
f 242 222 224
f 523 241 531
f 531 241 240
f 531 240 239
f 524 523 532
f 532 523 531
f 532 531 533
f 533 531 239
f 533 239 238
f 525 524 534
f 534 524 532
f 534 532 535
f 535 532 533
f 535 533 237
f 237 533 238
f 526 525 536
f 536 525 534
f 536 534 537
f 537 534 535
f 537 535 244
f 244 535 237
f 536 538 527
f 527 538 539
f 527 539 528
f 528 539 540
f 528 540 529
f 529 540 440
f 538 536 541
f 541 536 537
f 541 537 247
f 247 537 244
f 539 538 542
f 542 538 541
f 542 541 250
f 250 541 247
f 442 441 540
f 540 441 440
f 540 539 543
f 543 539 542
f 543 542 253
f 253 542 250
f 433 544 530
f 530 544 545
f 530 545 283
f 283 545 281
f 544 433 546
f 546 433 435
f 546 435 263
f 263 435 261
f 545 544 547
f 547 544 546
f 547 546 265
f 265 546 263
f 281 545 548
f 548 545 547
f 548 547 268
f 268 547 265
f 296 487 294
f 294 487 488
f 294 488 292
f 292 488 489
f 292 489 276
f 276 489 277
f 514 508 509
f 521 549 520
f 520 549 550
f 520 550 519
f 519 550 345
f 345 550 551
f 551 550 549
f 551 549 552
f 552 549 553
f 552 553 394
f 394 553 391
f 549 521 553
f 553 521 522
f 553 522 391
f 391 522 388
f 345 551 347
f 347 551 552
f 347 552 349
f 349 552 354
f 349 354 352
f 285 530 283
f 527 526 536
f 233 227 232
f 253 256 543
f 543 256 442
f 543 442 540
f 268 270 548
f 548 270 279
f 548 279 281
f 270 272 279
f 514 509 381
f 381 509 378
f 394 354 552
f 554 555 556
f 556 555 557
f 556 557 558
f 558 557 559
f 558 559 560
f 560 559 561
f 560 561 562
f 562 561 563
f 562 563 564
f 564 563 565
f 564 565 566
f 566 565 567
f 566 567 568
f 557 569 559
f 559 569 570
f 559 570 561
f 561 570 571
f 561 571 563
f 563 571 572
f 563 572 565
f 565 572 573
f 565 573 574
f 570 569 575
f 575 569 576
f 575 576 577
f 577 576 578
f 577 578 579
f 579 580 577
f 577 580 581
f 577 581 575
f 575 581 571
f 575 571 570
f 580 582 581
f 581 582 583
f 581 583 572
f 572 583 584
f 572 584 573
f 574 585 565
f 565 585 586
f 565 586 567
f 568 587 566
f 566 587 588
f 566 588 589
f 589 588 590
f 589 590 591
f 591 590 592
f 591 592 593
f 593 592 594
f 593 594 595
f 595 594 596
f 595 596 597
f 597 596 598
f 597 598 599
f 599 598 600
f 600 598 601
f 600 601 602
f 602 601 603
f 603 601 604
f 604 601 605
f 604 605 606
f 606 605 607
f 607 605 608
f 607 608 609
f 609 608 610
f 609 610 611
f 611 610 612
f 612 610 613
f 613 610 614
f 613 614 615
f 615 614 616
f 616 614 617
f 616 617 618
f 618 617 619
f 587 620 588
f 588 620 621
f 588 621 622
f 622 621 623
f 622 623 624
f 624 623 625
f 624 625 626
f 624 626 627
f 627 626 628
f 627 628 629
f 629 628 630
f 629 630 631
f 629 631 632
f 632 631 633
f 632 633 634
f 632 634 635
f 635 634 636
f 635 636 637
f 637 636 638
f 637 638 639
f 639 640 637
f 637 640 641
f 637 641 642
f 642 641 643
f 642 643 644
f 644 643 645
f 644 645 646
f 646 645 647
f 646 647 648
f 648 647 649
f 648 649 650
f 650 649 651
f 650 651 652
f 652 651 653
f 653 651 654
f 654 651 655
f 654 655 656
f 656 655 657
f 657 655 658
f 658 655 659
f 658 659 660
f 660 659 661
f 661 659 662
f 662 659 663
f 663 659 664
f 663 664 665
f 665 664 666
f 666 664 667
f 666 667 668
f 668 667 669
f 668 669 670
f 670 669 671
f 671 669 672
f 671 672 673
f 673 672 674
f 673 674 675
f 675 674 676
f 676 674 677
f 676 677 678
f 678 677 679
f 679 677 680
f 679 680 681
f 681 680 682
f 681 682 683
f 683 682 684
f 684 682 685
f 684 685 686
f 686 685 687
f 687 685 688
f 687 688 689
f 689 688 690
f 689 690 691
f 691 690 692
f 692 690 693
f 693 690 694
f 693 694 695
f 695 694 696
f 696 694 697
f 697 694 698
f 697 698 699
f 699 698 700
f 700 698 701
f 700 701 702
f 702 701 703
f 702 703 704
f 704 703 705
f 704 705 706
f 706 705 707
f 707 705 708
f 707 708 709
f 709 708 710
f 710 708 711
f 710 711 712
f 712 711 713
f 712 713 714
f 714 713 715
f 714 715 716
f 716 715 717
f 716 717 718
f 718 717 719
f 718 719 720
f 640 721 641
f 641 721 722
f 641 722 723
f 723 722 724
f 723 724 725
f 723 725 726
f 726 725 727
f 726 727 728
f 728 729 726
f 726 729 730
f 726 730 731
f 731 730 732
f 731 732 733
f 733 732 734
f 733 734 735
f 735 734 736
f 735 736 737
f 737 736 738
f 737 738 659
f 659 738 664
f 729 739 730
f 730 739 740
f 730 740 741
f 730 741 742
f 742 741 743
f 742 743 744
f 742 744 745
f 745 744 746
f 745 746 747
f 747 748 745
f 745 748 749
f 745 749 750
f 750 749 751
f 750 751 752
f 752 751 753
f 752 753 754
f 754 753 755
f 754 755 756
f 756 755 757
f 756 757 669
f 669 757 672
f 748 758 749
f 749 758 759
f 749 759 751
f 751 759 760
f 751 760 753
f 753 760 761
f 753 761 755
f 755 761 762
f 755 762 757
f 757 762 763
f 757 763 672
f 672 763 674
f 758 764 759
f 759 764 765
f 759 765 766
f 766 765 767
f 766 767 768
f 766 768 769
f 769 768 770
f 769 770 771
f 769 771 772
f 772 771 773
f 772 773 774
f 774 775 772
f 772 775 776
f 772 776 777
f 777 778 772
f 772 778 779
f 772 779 780
f 780 779 781
f 780 781 782
f 780 782 783
f 783 782 784
f 783 784 785
f 785 786 783
f 783 786 787
f 783 787 788
f 783 788 789
f 789 788 790
f 789 790 791
f 791 792 789
f 789 792 793
f 789 793 794
f 794 793 795
f 794 795 796
f 796 795 797
f 796 797 798
f 798 797 799
f 798 799 800
f 800 799 801
f 800 801 690
f 690 801 694
f 792 802 793
f 793 802 803
f 793 803 804
f 804 803 805
f 804 805 806
f 806 807 804
f 804 807 808
f 804 808 809
f 809 808 810
f 809 810 811
f 811 810 812
f 811 812 813
f 813 812 814
f 813 814 815
f 815 814 816
f 815 816 698
f 698 816 701
f 807 817 808
f 808 817 818
f 808 818 819
f 808 819 820
f 820 819 821
f 820 821 822
f 822 823 820
f 820 823 717
f 820 717 824
f 824 717 715
f 824 715 825
f 825 715 713
f 825 713 826
f 826 713 711
f 826 711 827
f 827 711 708
f 827 708 703
f 703 708 705
f 823 719 717
f 706 828 704
f 652 829 650
f 650 829 830
f 650 830 648
f 648 830 831
f 648 831 646
f 646 831 832
f 646 832 644
f 644 832 833
f 644 833 642
f 642 833 834
f 642 834 637
f 637 834 635
f 829 835 830
f 830 835 617
f 830 617 614
f 599 836 597
f 597 836 837
f 597 837 838
f 838 837 839
f 838 839 840
f 840 839 841
f 840 841 842
f 840 842 843
f 843 842 844
f 843 844 845
f 843 845 556
f 556 845 846
f 556 846 847
f 847 554 556
f 843 556 848
f 848 556 558
f 848 558 560
f 840 843 849
f 849 843 848
f 849 848 850
f 850 848 560
f 850 560 562
f 595 597 838
f 838 840 851
f 851 840 849
f 851 849 852
f 852 849 850
f 852 850 853
f 853 850 562
f 853 562 564
f 601 598 854
f 854 598 596
f 854 596 855
f 855 596 594
f 855 594 856
f 856 594 592
f 856 592 857
f 857 592 590
f 857 590 622
f 622 590 588
f 605 601 858
f 858 601 854
f 858 854 859
f 859 854 855
f 859 855 860
f 860 855 856
f 860 856 861
f 861 856 857
f 861 857 624
f 624 857 622
f 608 605 862
f 862 605 858
f 862 858 863
f 863 858 859
f 863 859 864
f 864 859 860
f 864 860 865
f 865 860 861
f 865 861 627
f 627 861 624
f 610 608 866
f 866 608 862
f 866 862 867
f 867 862 863
f 867 863 868
f 868 863 864
f 868 864 869
f 869 864 865
f 869 865 629
f 629 865 627
f 831 830 614
f 614 610 870
f 870 610 866
f 870 866 871
f 871 866 867
f 871 867 872
f 872 867 868
f 872 868 873
f 873 868 869
f 873 869 632
f 632 869 629
f 737 659 655
f 655 651 874
f 874 651 649
f 874 649 875
f 875 649 647
f 875 647 876
f 876 647 645
f 876 645 877
f 877 645 643
f 877 643 723
f 723 643 641
f 756 669 667
f 667 664 878
f 878 664 738
f 878 738 879
f 879 738 736
f 879 736 880
f 880 736 734
f 880 734 881
f 881 734 732
f 881 732 742
f 742 732 730
f 677 674 882
f 882 674 763
f 882 763 883
f 883 763 762
f 883 762 884
f 884 762 761
f 884 761 885
f 885 761 760
f 885 760 766
f 766 760 759
f 680 677 886
f 886 677 882
f 886 882 887
f 887 882 883
f 887 883 888
f 888 883 884
f 888 884 889
f 889 884 885
f 889 885 769
f 769 885 766
f 682 680 890
f 890 680 886
f 890 886 891
f 891 886 887
f 891 887 892
f 892 887 888
f 892 888 893
f 893 888 889
f 893 889 772
f 772 889 769
f 685 682 894
f 894 682 890
f 894 890 895
f 895 890 891
f 895 891 896
f 896 891 892
f 896 892 897
f 897 892 893
f 897 893 780
f 780 893 772
f 800 690 688
f 688 685 898
f 898 685 894
f 898 894 899
f 899 894 895
f 899 895 900
f 900 895 896
f 900 896 901
f 901 896 897
f 901 897 783
f 783 897 780
f 815 698 694
f 815 694 801
f 827 703 701
f 827 701 816
f 852 593 851
f 851 593 595
f 851 595 838
f 593 852 591
f 591 852 853
f 591 853 589
f 589 853 564
f 589 564 566
f 871 832 870
f 870 832 831
f 870 831 614
f 832 871 833
f 833 871 872
f 833 872 834
f 834 872 873
f 834 873 635
f 635 873 632
f 875 735 874
f 874 735 737
f 874 737 655
f 735 875 733
f 733 875 876
f 733 876 731
f 731 876 877
f 731 877 726
f 726 877 723
f 879 754 878
f 878 754 756
f 878 756 667
f 754 879 752
f 752 879 880
f 752 880 750
f 750 880 881
f 750 881 745
f 745 881 742
f 899 798 898
f 898 798 800
f 898 800 688
f 798 899 796
f 796 899 900
f 796 900 794
f 794 900 901
f 794 901 789
f 789 901 783
f 815 801 813
f 813 801 799
f 813 799 811
f 811 799 797
f 811 797 809
f 809 797 795
f 809 795 804
f 804 795 793
f 827 816 826
f 826 816 814
f 826 814 825
f 825 814 812
f 825 812 824
f 824 812 810
f 824 810 820
f 820 810 808
f 572 571 581
f 902 903 904
f 904 903 905
f 904 905 906
f 906 907 904
f 904 907 908
f 904 908 909
f 904 909 910
f 910 909 911
f 910 911 912
f 910 912 913
f 913 912 914
f 913 914 915
f 913 915 916
f 916 915 917
f 916 917 918
f 918 917 919
f 918 919 920
f 918 920 921
f 921 920 922
f 921 922 923
f 923 922 924
f 923 924 925
f 925 926 923
f 923 926 927
f 923 927 928
f 928 927 929
f 929 927 930
f 929 930 931
f 931 930 932
f 931 932 933
f 933 932 934
f 933 934 935
f 935 934 936
f 935 936 937
f 937 936 938
f 937 938 939
f 939 938 940
f 939 940 941
f 926 942 927
f 927 942 943
f 927 943 930
f 930 943 944
f 930 944 932
f 932 944 945
f 932 945 946
f 946 947 932
f 932 947 934
f 947 948 934
f 934 948 949
f 934 949 950
f 950 951 934
f 934 951 936
f 951 952 936
f 936 952 953
f 936 953 954
f 936 954 938
f 938 954 940
f 941 955 939
f 939 955 956
f 939 956 957
f 957 956 958
f 958 956 959
f 958 959 960
f 960 959 961
f 960 961 962
f 962 961 963
f 962 963 964
f 964 963 965
f 964 965 966
f 966 965 967
f 966 967 968
f 968 967 969
f 968 969 970
f 970 969 971
f 970 971 972
f 972 971 973
f 972 973 974
f 974 973 975
f 974 975 976
f 976 975 977
f 976 977 978
f 978 977 979
f 978 979 980
f 980 979 981
f 980 981 982
f 982 981 983
f 982 983 984
f 955 985 956
f 956 985 986
f 956 986 987
f 956 987 959
f 959 987 988
f 959 988 989
f 989 990 959
f 959 990 991
f 959 991 961
f 961 991 992
f 961 992 993
f 961 993 963
f 963 993 994
f 963 994 965
f 965 994 995
f 965 995 996
f 965 996 967
f 967 996 997
f 967 997 969
f 969 997 998
f 969 998 999
f 969 999 971
f 971 999 1000
f 971 1000 1001
f 971 1001 973
f 973 1001 1002
f 973 1002 975
f 975 1002 1003
f 975 1003 1004
f 975 1004 977
f 977 1004 1005
f 977 1005 979
f 979 1005 1006
f 979 1006 981
f 981 1006 983
f 982 984 1007
f 1007 984 1008
f 1007 1008 1009
f 1007 1009 1010
f 1010 1009 1011
f 1010 1011 1012
f 1012 1013 1010
f 1010 1013 1014
f 1010 1014 1015
f 1015 1014 1016
f 1015 1016 1017
f 1017 1016 1018
f 1018 1016 1019
f 1018 1019 1020
f 1020 1019 1021
f 1020 1021 1022
f 1013 1023 1014
f 1014 1023 1024
f 1014 1024 1016
f 1016 1024 1025
f 1016 1025 1019
f 1019 1025 1021
f 1015 1026 1010
f 1010 1026 1007
f 1026 1027 1007
f 1007 1027 982
f 1027 980 982
f 957 937 939
f 928 1028 923
f 923 1028 921
f 1028 1029 921
f 921 1029 918
f 1029 1030 918
f 918 1030 916
f 1030 1031 916
f 916 1031 1032
f 916 1032 913
f 913 1032 910
f 1032 1033 910
f 910 1033 904
f 1033 902 904
f 1034 1035 1036
f 1036 1035 1037
f 1036 1037 1038
f 1038 1037 1039
f 1038 1039 1040
f 1040 1039 1041
f 1040 1041 1042
f 1042 1041 1043
f 1042 1043 1044
f 1044 1043 1045
f 1045 1043 1046
f 1045 1046 1047
f 1047 1046 1048
f 1048 1046 1049
f 1048 1049 1050
f 1050 1049 1051
f 1051 1049 1052
f 1051 1052 1053
f 1053 1052 1054
f 1054 1052 1055
f 1054 1055 1056
f 1056 1055 1057
f 1056 1057 1058
f 1058 1057 1059
f 1058 1059 1060
f 1060 1059 1061
f 1061 1059 1062
f 1061 1062 1063
f 1063 1062 1064
f 1063 1064 1065
f 1065 1064 1066
f 1066 1064 1067
f 1066 1067 1068
f 1068 1067 1069
f 1068 1069 1070
f 1070 1069 1071
f 1070 1071 1072
f 1072 1071 1073
f 1072 1073 1074
f 1074 1073 1075
f 1074 1075 1076
f 1076 1075 1077
f 1077 1075 1078
f 1077 1078 1079
f 1079 1078 1080
f 1079 1080 1081
f 1081 1080 1082
f 1082 1080 1083
f 1082 1083 1084
f 1084 1083 1085
f 1085 1083 1086
f 1085 1086 1087
f 1087 1086 1088
f 1088 1086 1089
f 1088 1089 1090
f 1090 1089 1091
f 1090 1091 1092
f 1092 1091 1093
f 1093 1091 1094
f 1093 1094 1095
f 1095 1094 1096
f 1095 1096 1097
f 1097 1096 1098
f 1097 1098 1099
f 1099 1098 1100
f 1099 1100 1101
f 1101 1100 1102
f 1102 1100 1103
f 1102 1103 1104
f 1104 1103 1105
f 1105 1103 1106
f 1105 1106 1107
f 1107 1106 1108
f 1107 1108 1109
f 1109 1108 1110
f 1110 1108 1111
f 1110 1111 1112
f 1112 1111 1113
f 1113 1111 1114
f 1114 1111 1115
f 1115 1111 1108
f 1115 1108 1116
f 1116 1108 1106
f 1116 1106 1117
f 1117 1106 1103
f 1117 1103 1118
f 1118 1103 1100
f 1118 1100 1119
f 1119 1100 1098
f 1119 1098 1120
f 1120 1098 1096
f 1120 1096 1121
f 1121 1096 1094
f 1121 1094 1122
f 1122 1094 1091
f 1122 1091 1089
f 1035 1123 1037
f 1037 1123 1124
f 1037 1124 1039
f 1039 1124 1125
f 1039 1125 1041
f 1041 1125 1126
f 1041 1126 1043
f 1043 1126 1127
f 1043 1127 1046
f 1046 1127 1128
f 1046 1128 1049
f 1049 1128 1129
f 1049 1129 1052
f 1052 1129 1130
f 1052 1130 1055
f 1055 1130 1131
f 1055 1131 1057
f 1057 1131 1132
f 1057 1132 1059
f 1059 1132 1133
f 1059 1133 1062
f 1062 1133 1064
f 1133 1134 1064
f 1064 1134 1067
f 1134 1135 1067
f 1067 1135 1069
f 1135 1136 1069
f 1069 1136 1071
f 1136 1137 1071
f 1071 1137 1073
f 1137 1138 1073
f 1073 1138 1075
f 1138 1139 1075
f 1075 1139 1078
f 1139 1140 1078
f 1078 1140 1080
f 1140 1141 1080
f 1080 1141 1083
f 1141 1142 1083
f 1083 1142 1086
f 1142 1143 1086
f 1086 1143 1089
f 1143 1144 1089
f 1089 1144 1122
f 1145 1146 1147
f 1147 1146 1148
f 1147 1148 1149
f 1149 1148 1150
f 1149 1150 1151
f 1151 1150 1152
f 1151 1152 1153
f 1153 1152 1154
f 1154 1152 1155
f 1154 1155 1156
f 1156 1155 1157
f 1157 1155 1158
f 1157 1158 1159
f 1159 1158 1160
f 1160 1158 1161
f 1160 1161 1162
f 1148 1163 1150
f 1150 1163 1164
f 1150 1164 1152
f 1152 1164 1165
f 1152 1165 1155
f 1155 1165 1166
f 1155 1166 1167
f 1155 1167 1158
f 1158 1167 1161
f 1168 1169 1170
f 1170 1169 1171
f 1170 1171 1172
f 1173 1174 1168
f 1168 1174 1175
f 1168 1175 1176
f 1176 1175 1177
f 1176 1177 1178
f 1174 1173 1179
f 1179 1173 1180
f 1179 1180 1181
f 1181 1182 1179
f 1179 1182 1174
f 1182 1177 1174
f 1174 1177 1175
f 1176 1178 1169
f 1169 1178 1183
f 1169 1183 1171
f 1172 1184 1170
f 1169 1168 1176
f 1185 1186 1187
f 1187 1186 1188
f 1188 1186 1189
f 1188 1189 1190
f 1190 1189 1191
f 1191 1189 1192
f 1191 1192 1193
f 1193 1192 1194
f 1194 1192 1195
f 1194 1195 1196
f 1196 1195 1197
f 1197 1195 1198
f 1197 1198 1199
f 1199 1198 1200
f 1200 1198 1201
f 1200 1201 1202
f 1202 1201 1203
f 1202 1203 1204
f 1204 1203 1205
f 1204 1205 1206
f 1206 1205 1207
f 1206 1207 1208
f 1208 1207 1209
f 1209 1207 1210
f 1209 1210 1211
f 1211 1210 1212
f 1212 1210 1213
f 1213 1210 1214
f 1214 1210 1215
f 1214 1215 1216
f 1216 1215 1217
f 1217 1215 1218
f 1218 1215 1219
f 1219 1215 1220
f 1219 1220 1221
f 1221 1220 1222
f 1222 1220 1223
f 1222 1223 1224
f 1224 1223 1225
f 1225 1223 1226
f 1226 1223 1227
f 1227 1223 1228
f 1227 1228 1229
f 1229 1228 1230
f 1230 1228 1231
f 1230 1231 1232
f 1232 1231 1233
f 1233 1231 1234
f 1234 1231 1235
f 1234 1235 1236
f 1236 1235 1237
f 1237 1235 1238
f 1238 1235 1239
f 1238 1239 1240
f 1186 1241 1189
f 1189 1241 1192
f 1241 1242 1192
f 1192 1242 1195
f 1242 1243 1195
f 1195 1243 1198
f 1243 1244 1198
f 1198 1244 1245
f 1198 1245 1201
f 1201 1245 1246
f 1201 1246 1203
f 1203 1246 1247
f 1203 1247 1205
f 1205 1247 1207
f 1247 1248 1207
f 1207 1248 1249
f 1207 1249 1210
f 1210 1249 1250
f 1210 1250 1215
f 1215 1250 1251
f 1215 1251 1220
f 1220 1251 1252
f 1220 1252 1223
f 1223 1252 1228
f 1252 1253 1228
f 1228 1253 1231
f 1253 1254 1231
f 1231 1254 1255
f 1231 1255 1235
f 1235 1255 1256
f 1235 1256 1239
f 1257 1258 1259
f 1259 1258 1260
f 1259 1260 1261
f 1259 1261 1262
f 1262 1261 1263
f 1262 1263 1264
f 1264 1265 1262
f 1262 1265 1266
f 1262 1266 1257
f 1262 1257 1259
f 1267 1268 1269
f 1269 1268 1270
f 1269 1270 1271
f 1271 1270 1272
f 1271 1272 1273
f 1273 1272 1274
f 1274 1272 1275
f 1275 1272 1276
f 1275 1276 1277
f 1277 1276 1278
f 1277 1278 1279
f 1279 1278 1280
f 1280 1278 1281
f 1281 1278 1282
f 1282 1278 1283
f 1282 1283 1284
f 1284 1283 1285
f 1285 1283 1286
f 1286 1283 1287
f 1286 1287 1288
f 1288 1287 1289
f 1289 1287 1290
f 1289 1290 1291
f 1291 1290 1292
f 1291 1292 1293
f 1293 1292 1294
f 1294 1292 1295
f 1294 1295 1296
f 1296 1295 1297
f 1296 1297 1298
f 1298 1297 1299
f 1298 1299 1300
f 1300 1299 1301
f 1301 1299 1302
f 1301 1302 1303
f 1303 1302 1304
f 1304 1302 1305
f 1304 1305 1306
f 1306 1305 1307
f 1307 1305 1308
f 1307 1308 1309
f 1309 1308 1310
f 1310 1308 1311
f 1310 1311 1312
f 1312 1311 1313
f 1313 1311 1314
f 1314 1311 1315
f 1315 1311 1316
f 1316 1311 1317
f 1317 1311 1318
f 1318 1311 1319
f 1319 1311 1320
f 1320 1311 1308
f 1320 1308 1321
f 1321 1308 1322
f 1322 1308 1305
f 1322 1305 1323
f 1323 1305 1324
f 1324 1305 1302
f 1324 1302 1325
f 1325 1302 1326
f 1326 1302 1299
f 1326 1299 1327
f 1327 1299 1297
f 1327 1297 1328
f 1328 1297 1295
f 1328 1295 1329
f 1329 1295 1292
f 1329 1292 1330
f 1330 1292 1331
f 1331 1292 1290
f 1331 1290 1287
f 1270 1332 1272
f 1272 1332 1276
f 1332 1333 1276
f 1276 1333 1278
f 1333 1334 1278
f 1278 1334 1335
f 1278 1335 1283
f 1283 1335 1336
f 1283 1336 1287
f 1287 1336 1331
f 1273 1337 1271
f 1271 1337 1269
f 1337 1338 1269
f 1339 1340 1341
f 1341 1340 1342
f 1341 1342 1343
f 1343 1342 1344
f 1343 1344 1345
f 1345 1344 1346
f 1345 1346 1347
f 1347 1346 1348
f 1347 1348 1349
f 1349 1348 1350
f 1350 1348 1351
f 1350 1351 1352
f 1352 1351 1353
f 1352 1353 1354
f 1354 1353 1355
f 1354 1355 1356
f 1356 1355 1357
f 1356 1357 1358
f 1340 1359 1342
f 1342 1359 1360
f 1342 1360 1361
f 1342 1361 1344
f 1344 1361 1362
f 1344 1362 1363
f 1344 1363 1346
f 1346 1363 1364
f 1346 1364 1365
f 1346 1365 1348
f 1348 1365 1366
f 1348 1366 1367
f 1367 1368 1348
f 1348 1368 1369
f 1348 1369 1370
f 1348 1370 1351
f 1351 1370 1371
f 1351 1371 1372
f 1351 1372 1353
f 1353 1372 1373
f 1353 1373 1374
f 1353 1374 1355
f 1355 1374 1357
f 1358 1375 1356
f 1356 1375 1376
f 1356 1376 1377
f 1377 1376 1378
f 1377 1378 1379
f 1379 1378 1380
f 1379 1380 1381
f 1381 1380 1382
f 1381 1382 1383
f 1383 1382 1384
f 1384 1382 1385
f 1384 1385 1386
f 1386 1385 1387
f 1387 1385 1388
f 1387 1388 1389
f 1389 1388 1390
f 1390 1388 1391
f 1390 1391 1392
f 1392 1391 1393
f 1393 1391 1394
f 1394 1391 1395
f 1394 1395 1396
f 1375 1397 1376
f 1376 1397 1378
f 1397 1398 1378
f 1378 1398 1399
f 1378 1399 1380
f 1380 1399 1400
f 1380 1400 1382
f 1382 1400 1401
f 1382 1401 1402
f 1382 1402 1385
f 1385 1402 1403
f 1385 1403 1404
f 1385 1404 1388
f 1388 1404 1405
f 1388 1405 1406
f 1388 1406 1391
f 1391 1406 1395
f 1407 1408 1396
f 1396 1408 1394
f 1377 1409 1356
f 1356 1409 1354
f 1410 1411 1412
f 1412 1411 1413
f 1412 1413 1414
f 1414 1413 1415
f 1415 1413 1416
f 1416 1413 1417
f 1417 1413 1418
f 1418 1413 1411
f 1419 1420 1421
f 1421 1420 1422
f 1421 1422 1423
f 1423 1422 1424
f 1423 1424 1425
f 1425 1424 1426
f 1425 1426 1427
f 1427 1426 1428
f 1428 1426 1429
f 1428 1429 1430
f 1430 1429 1431
f 1431 1429 1432
f 1432 1429 1433
f 1432 1433 1434
f 1434 1433 1435
f 1435 1433 1436
f 1436 1433 1437
f 1437 1433 1438
f 1437 1438 1439
f 1439 1438 1440
f 1440 1438 1441
f 1441 1438 1442
f 1441 1442 1443
f 1443 1442 1444
f 1444 1442 1445
f 1445 1442 1446
f 1446 1442 1447
f 1447 1442 1448
f 1447 1448 1449
f 1449 1448 1450
f 1450 1448 1451
f 1451 1448 1452
f 1451 1452 1453
f 1453 1452 1454
f 1454 1452 1455
f 1454 1455 1456
f 1456 1455 1457
f 1456 1457 1458
f 1458 1457 1459
f 1459 1457 1460
f 1459 1460 1461
f 1461 1460 1462
f 1461 1462 1463
f 1463 1462 1464
f 1464 1462 1465
f 1464 1465 1466
f 1466 1465 1467
f 1467 1465 1468
f 1467 1468 1469
f 1469 1468 1470
f 1470 1468 1471
f 1471 1468 1472
f 1472 1468 1473
f 1473 1468 1474
f 1474 1468 1465
f 1474 1465 1475
f 1475 1465 1462
f 1475 1462 1476
f 1476 1462 1460
f 1476 1460 1477
f 1477 1460 1478
f 1478 1460 1457
f 1478 1457 1479
f 1479 1457 1455
f 1479 1455 1480
f 1480 1455 1452
f 1480 1452 1481
f 1481 1452 1448
f 1481 1448 1482
f 1482 1448 1442
f 1482 1442 1483
f 1483 1442 1438
f 1483 1438 1484
f 1484 1438 1433
f 1484 1433 1485
f 1485 1433 1486
f 1486 1433 1429
f 1486 1429 1487
f 1487 1429 1426
f 1487 1426 1488
f 1488 1426 1424
f 1488 1424 1489
f 1489 1424 1422
f 1490 1491 1492
f 1493 1494 1495
f 1496 1497 1498
f 1498 1499 1496
f 1496 1499 1500
f 1496 1500 1501
f 1502 1503 1504
f 1505 1506 1507
f 1507 1506 1508
f 1507 1508 1509
f 1510 1511 1512
f 1513 1514 1515
f 1513 1515 1516
f 1517 1518 1519
f 1520 1521 1522
f 1522 1521 1523
f 1522 1523 1524
f 1525 1526 1527
f 1528 1529 1530
f 1531 1526 1532
f 1533 1534 1535
f 1536 1537 1538
f 1536 1538 1539
f 1540 1541 1542
f 1540 1542 1543
f 1544 1545 1546
f 1544 1546 1547
f 1548 1549 1550
f 1551 1552 1553
f 1554 1550 1555
f 1556 1557 1558
f 1559 1560 1561
f 1562 1563 1564
f 1565 1566 1567
f 1567 1566 1568
f 1569 1570 1571
f 1571 1570 1572
f 1573 1574 1575
f 1575 1574 1576
f 1577 1578 1579
f 1580 1581 1582
f 1579 1583 1584
f 1558 1585 1556
f 1586 1587 1588
f 1588 1587 1589
f 1588 1589 1590
f 1590 1589 1591
f 1590 1591 1592
f 1592 1591 1593
f 1592 1593 1594
f 1594 1593 1595
f 1594 1595 1596
f 1596 1597 1594
f 1594 1597 1598
f 1594 1598 1599
f 1594 1599 1592
f 1592 1599 1600
f 1592 1600 1590
f 1590 1600 1601
f 1590 1601 1588
f 1588 1601 1586
f 1602 1603 1604
f 1604 1603 1605
f 1606 1607 1608
f 1608 1607 1609
f 1610 1611 1612
f 1613 1614 1615
f 1613 1615 1616
f 1616 1615 1617
f 1616 1617 1618
f 1618 1617 1615
f 1618 1615 1619
f 1619 1615 1614
f 1620 1621 1622
f 1623 1624 1625
f 1626 1627 1628
f 1629 1630 1631
f 1632 1633 1634
f 1632 1634 1635
f 1636 1637 1638
f 1639 1640 1641
f 1642 1643 1644
f 1645 1646 1647
f 1648 1643 1649
f 1650 1651 1652
f 1653 1654 1655

