# https://github.com/mikedh/trimesh
v -0.00055211 -0.16077138 0.30844110
v 0.00064233 -0.15996699 0.31005961
v -0.00054903 -0.15954958 0.31086650
v 0.00064222 -0.15955128 0.31086200
v 0.00055461 -0.15903059 0.31183740
v 0.00123972 -0.15902309 0.31183439
v 0.00192302 -0.15901008 0.31182930
v 0.00269204 -0.15951209 0.31084251
v 0.00260615 -0.15899098 0.31182221
v 0.00309497 -0.15901698 0.31173459
v 0.00289744 -0.15953408 0.31078461
v 0.00331581 -0.15905668 0.31163901
v 0.00304705 -0.15960048 0.31064561
v 0.00372338 -0.15919438 0.31134269
v 0.00310469 -0.15969399 0.31046090
v 0.00400728 -0.15938559 0.31095320
v 0.00413114 -0.15964618 0.31044561
v 0.00413078 -0.15999559 0.30976850
v 0.00310582 -0.16008939 0.30968821
v 0.00310701 -0.16025959 0.30934879
v -0.00034475 -0.16109969 0.30775440
v 0.00064225 -0.16077079 0.30844089
v 0.00064234 -0.16037358 0.30925250
v 0.00067736 -0.16084498 0.30828550
v 0.00021546 -0.16133489 0.30725059
v 0.00078209 -0.16090788 0.30815130
v 0.00097828 -0.16141479 0.30706289
v 0.00092304 -0.16094358 0.30807310
v 0.00106776 -0.16095318 0.30804920
v 0.00152004 -0.16140708 0.30705911
v 0.00161016 -0.16094449 0.30804569
v 0.00206178 -0.16139528 0.30705491
v 0.00215244 -0.16093239 0.30804080
v 0.00260341 -0.16137968 0.30705029
v 0.00269467 -0.16091679 0.30803439
v 0.00318682 -0.16130999 0.30715001
v 0.00295877 -0.16086759 0.30811551
v 0.00305664 -0.16081549 0.30821571
v 0.00368237 -0.16115178 0.30744001
v 0.00310290 -0.16076739 0.30831179
v 0.00401634 -0.16092749 0.30787909
v 0.00311774 -0.16071638 0.30841649
v 0.00413334 -0.16067079 0.30840239
v 0.00310975 -0.16052589 0.30880949
v 0.00413078 -0.16033658 0.30908710
v -0.00054732 -0.15903038 0.31183740
v 0.00055380 -0.15876749 0.31231669
v -0.00054734 -0.15876749 0.31231669
v -0.00018025 -0.15823328 0.31327069
v -0.00054732 -0.15850128 0.31279430
v -0.00054733 -0.15823188 0.31327009
v 0.00055379 -0.15850128 0.31279421
v 0.00018671 -0.15823328 0.31327069
v 0.00055379 -0.15823188 0.31327009
v -0.00123244 -0.15902309 0.31183451
v -0.00123167 -0.15954098 0.31086621
v -0.00191605 -0.15901019 0.31182930
v -0.00191426 -0.15952818 0.31086090
v -0.00259942 -0.15899068 0.31182149
v -0.00259673 -0.15950978 0.31085089
v -0.00280690 -0.15953298 0.31079370
v -0.00308967 -0.15901658 0.31173381
v -0.00295538 -0.15959549 0.31066260
v -0.00354302 -0.15912378 0.31149250
v -0.00302309 -0.15969019 0.31047511
v -0.00389480 -0.15929718 0.31113189
v -0.00412381 -0.15964688 0.31044590
v -0.00412440 -0.16022389 0.30931491
v -0.00302327 -0.16027248 0.30933040
v -0.00302327 -0.16082919 0.30819011
v -0.00412440 -0.16078109 0.30817389
v -0.00302368 -0.16136749 0.30704081
v -0.00412398 -0.16131988 0.30702379
f 1 2 3
f 3 2 4
f 3 4 5
f 5 4 6
f 6 4 7
f 7 4 8
f 7 8 9
f 9 8 10
f 10 8 11
f 10 11 12
f 12 11 13
f 12 13 14
f 14 13 15
f 14 15 16
f 16 15 17
f 17 15 18
f 18 15 19
f 18 19 20
f 21 22 1
f 1 22 23
f 1 23 2
f 22 21 24
f 24 21 25
f 24 25 26
f 26 25 27
f 26 27 28
f 28 27 29
f 29 27 30
f 29 30 31
f 31 30 32
f 31 32 33
f 33 32 34
f 33 34 35
f 35 34 36
f 35 36 37
f 37 36 38
f 38 36 39
f 38 39 40
f 40 39 41
f 40 41 42
f 42 41 43
f 42 43 44
f 44 43 45
f 44 45 20
f 20 45 18
f 3 5 46
f 46 5 47
f 46 47 48
f 48 47 49
f 48 49 50
f 50 49 51
f 47 52 49
f 49 52 53
f 53 52 54
f 46 55 3
f 3 55 56
f 56 55 57
f 56 57 58
f 58 57 59
f 58 59 60
f 60 59 61
f 61 59 62
f 61 62 63
f 63 62 64
f 63 64 65
f 65 64 66
f 65 66 67
f 67 68 65
f 65 68 69
f 69 68 70
f 70 68 71
f 70 71 72
f 72 71 73

