# https://github.com/mikedh/trimesh
v -0.02564060 -0.00959110 0.07518047
v -0.02561706 -0.00963187 0.07559776
v -0.02567744 -0.00952727 0.07599991
v -0.02561706 -0.00963187 0.07640212
v -0.02564060 -0.00959110 0.07681941
v -0.02564060 -0.00959110 0.07681941
v -0.02561706 -0.00963187 0.07640212
v -0.02554523 -0.00975627 0.07719355
v -0.02564060 -0.00959110 0.07681941
v -0.02554523 -0.00975627 0.07719355
v -0.02553111 -0.00978070 0.07761257
v -0.02553111 -0.00978070 0.07761257
v -0.02540391 -0.01000106 0.07794666
v -0.02553111 -0.00978070 0.07761257
v -0.02540391 -0.01000106 0.07794666
v -0.02535265 -0.01008987 0.07835388
v -0.02535265 -0.01008987 0.07835388
v -0.02519762 -0.01035833 0.07863718
v -0.02535265 -0.01008987 0.07835388
v -0.02519762 -0.01035833 0.07863718
v -0.02511084 -0.01050871 0.07901948
v -0.02511084 -0.01050871 0.07901948
v -0.02519762 -0.01035833 0.07863718
v -0.02493304 -0.01081663 0.07924288
v -0.02511084 -0.01050871 0.07901948
v -0.02493304 -0.01081663 0.07924288
v -0.02481347 -0.01102375 0.07958811
v -0.02481347 -0.01102375 0.07958811
v -0.02493304 -0.01081663 0.07924288
v -0.02461856 -0.01136130 0.07974445
v -0.02481347 -0.01102375 0.07958811
v -0.02461856 -0.01136130 0.07974445
v -0.02447015 -0.01161843 0.08004134
v -0.02447015 -0.01161843 0.08004134
v -0.02461856 -0.01136130 0.07974445
v -0.02426445 -0.01197469 0.08012557
v -0.02409183 -0.01227360 0.08036476
v -0.02409183 -0.01227360 0.08036476
v -0.02426445 -0.01197469 0.08012557
v -0.02388191 -0.01263719 0.08037418
v -0.02409183 -0.01227360 0.08036476
v -0.02388191 -0.01263719 0.08037418
v -0.02369076 -0.01296830 0.08054786
v -0.02369076 -0.01296830 0.08054786
v -0.02388191 -0.01263719 0.08037418
v -0.02348339 -0.01332753 0.08048212
v -0.02369076 -0.01296830 0.08054786
v -0.02348339 -0.01332753 0.08048212
v -0.02327978 -0.01368016 0.08058482
v -0.02327978 -0.01368016 0.08058482
v -0.02348339 -0.01332753 0.08048212
v -0.02308160 -0.01402342 0.08044600
v -0.02327978 -0.01368016 0.08058482
v -0.02308160 -0.01402342 0.08044600
v -0.02287209 -0.01438629 0.08047431
v -0.02287209 -0.01438629 0.08047431
v -0.02308160 -0.01402342 0.08044600
v -0.02268952 -0.01470255 0.08026707
v -0.02287209 -0.01438629 0.08047431
v -0.02268952 -0.01470255 0.08026707
v -0.02248084 -0.01506394 0.08022004
v -0.02248084 -0.01506394 0.08022004
v -0.02268952 -0.01470255 0.08026707
v -0.02231967 -0.01534312 0.07995086
v -0.02231967 -0.01534312 0.07995086
v -0.02211856 -0.01569145 0.07983016
v -0.02211856 -0.01569145 0.07983016
v -0.02231967 -0.01534312 0.07995086
v -0.02198404 -0.01592445 0.07950776
v -0.02211856 -0.01569145 0.07983016
v -0.02198404 -0.01592445 0.07950776
v -0.02179694 -0.01624852 0.07931721
v -0.02179694 -0.01624852 0.07931721
v -0.02198404 -0.01592445 0.07950776
v -0.02169334 -0.01642799 0.07895189
v -0.02179694 -0.01624852 0.07931721
v -0.02169334 -0.01642799 0.07895189
v -0.02152627 -0.01671737 0.07869750
v -0.02152627 -0.01671737 0.07869750
v -0.02169334 -0.01642799 0.07895189
v -0.02145695 -0.01683741 0.07830119
v -0.02152627 -0.01671737 0.07869750
v -0.02145695 -0.01683741 0.07830119
v -0.02131527 -0.01708281 0.07799118
v -0.02131527 -0.01708281 0.07799118
v -0.02128243 -0.01713967 0.07757645
v -0.02131527 -0.01708281 0.07799118
v -0.02128243 -0.01713967 0.07757645
v -0.02117067 -0.01733320 0.07722091
v -0.02117067 -0.01733320 0.07722091
v -0.02128243 -0.01713967 0.07757645
v -0.02117544 -0.01732498 0.07680106
v -0.02109724 -0.01746040 0.07641130
v -0.02109724 -0.01746040 0.07641130
v -0.02117544 -0.01732498 0.07680106
v -0.02113938 -0.01738744 0.07599991
v -0.02109724 -0.01746040 0.07641130
v -0.02113938 -0.01738744 0.07599991
v -0.02109724 -0.01746040 0.07558852
v -0.02109724 -0.01746040 0.07558852
v -0.02113938 -0.01738744 0.07599991
v -0.02117544 -0.01732498 0.07519882
v -0.02117067 -0.01733320 0.07477897
v -0.02128243 -0.01713967 0.07442349
v -0.02117067 -0.01733320 0.07477897
v -0.02128243 -0.01713967 0.07442349
v -0.02131527 -0.01708281 0.07400864
v -0.02131527 -0.01708281 0.07400864
v -0.02128243 -0.01713967 0.07442349
v -0.02145695 -0.01683741 0.07369875
v -0.02131527 -0.01708281 0.07400864
v -0.02145695 -0.01683741 0.07369875
v -0.02152627 -0.01671737 0.07330232
v -0.02152627 -0.01671737 0.07330232
v -0.02145695 -0.01683741 0.07369875
v -0.02169334 -0.01642799 0.07304793
v -0.02152627 -0.01671737 0.07330232
v -0.02169334 -0.01642799 0.07304793
v -0.02179694 -0.01624852 0.07268273
v -0.02179694 -0.01624852 0.07268273
v -0.02169334 -0.01642799 0.07304793
v -0.02198404 -0.01592445 0.07249206
v -0.02211856 -0.01569145 0.07216972
v -0.02211856 -0.01569145 0.07216972
v -0.02198404 -0.01592445 0.07249206
v -0.02231967 -0.01534312 0.07204896
v -0.02211856 -0.01569145 0.07216972
v -0.02231967 -0.01534312 0.07204896
v -0.02248084 -0.01506394 0.07177978
v -0.02248084 -0.01506394 0.07177978
v -0.02231967 -0.01534312 0.07204896
v -0.02268952 -0.01470255 0.07173281
v -0.02248084 -0.01506394 0.07177978
v -0.02268952 -0.01470255 0.07173281
v -0.02287209 -0.01438629 0.07152551
v -0.02287209 -0.01438629 0.07152551
v -0.02268952 -0.01470255 0.07173281
v -0.02308160 -0.01402342 0.07155382
v -0.02308160 -0.01402342 0.07155382
v -0.02327978 -0.01368016 0.07141512
v -0.02327978 -0.01368016 0.07141512
v -0.02308160 -0.01402342 0.07155382
v -0.02348339 -0.01332753 0.07151770
v -0.02327978 -0.01368016 0.07141512
v -0.02348339 -0.01332753 0.07151770
v -0.02369076 -0.01296830 0.07145202
v -0.02369076 -0.01296830 0.07145202
v -0.02348339 -0.01332753 0.07151770
v -0.02388191 -0.01263719 0.07162576
v -0.02369076 -0.01296830 0.07145202
v -0.02388191 -0.01263719 0.07162576
v -0.02409183 -0.01227360 0.07163506
v -0.02409183 -0.01227360 0.07163506
v -0.02388191 -0.01263719 0.07162576
v -0.02426445 -0.01197469 0.07187432
v -0.02409183 -0.01227360 0.07163506
v -0.02426445 -0.01197469 0.07187432
v -0.02447015 -0.01161843 0.07195848
v -0.02461856 -0.01136130 0.07225549
v -0.02481347 -0.01102375 0.07241177
v -0.02481347 -0.01102375 0.07241177
v -0.02461856 -0.01136130 0.07225549
v -0.02493304 -0.01081663 0.07275700
v -0.02481347 -0.01102375 0.07241177
v -0.02493304 -0.01081663 0.07275700
v -0.02511084 -0.01050871 0.07298034
v -0.02511084 -0.01050871 0.07298034
v -0.02493304 -0.01081663 0.07275700
v -0.02519762 -0.01035833 0.07336276
v -0.02511084 -0.01050871 0.07298034
v -0.02519762 -0.01035833 0.07336276
v -0.02535265 -0.01008987 0.07364600
v -0.02535265 -0.01008987 0.07364600
v -0.02519762 -0.01035833 0.07336276
v -0.02540391 -0.01000106 0.07405322
v -0.02553111 -0.00978070 0.07438731
v -0.02554523 -0.00975627 0.07480633
v -0.02553111 -0.00978070 0.07438731
v -0.02554523 -0.00975627 0.07480633
v -0.02564060 -0.00959110 0.07518047
v -0.02564060 -0.00959110 0.07518047
v -0.02561706 -0.00963187 0.07559776
f 1 2 3
f 3 2 4
f 3 4 5
f 6 7 8
f 9 10 11
f 12 8 13
f 14 15 16
f 17 13 18
f 19 20 21
f 22 23 24
f 25 26 27
f 28 29 30
f 31 32 33
f 34 35 36
f 34 36 37
f 38 39 40
f 41 42 43
f 44 45 46
f 47 48 49
f 50 51 52
f 53 54 55
f 56 57 58
f 59 60 61
f 62 63 64
f 61 65 66
f 67 68 69
f 70 71 72
f 73 74 75
f 76 77 78
f 79 80 81
f 82 83 84
f 85 81 86
f 87 88 89
f 90 91 92
f 90 92 93
f 94 95 96
f 97 98 99
f 100 101 102
f 100 102 103
f 103 102 104
f 105 106 107
f 108 109 110
f 111 112 113
f 114 115 116
f 117 118 119
f 120 121 122
f 120 122 123
f 124 125 126
f 127 128 129
f 130 131 132
f 133 134 135
f 136 137 138
f 135 139 140
f 141 142 143
f 144 145 146
f 147 148 149
f 150 151 152
f 153 154 155
f 156 157 158
f 158 157 159
f 158 159 160
f 161 162 163
f 164 165 166
f 167 168 169
f 170 171 172
f 173 174 175
f 173 175 176
f 176 175 177
f 178 179 180
f 181 177 182

