# https://github.com/mikedh/trimesh
v -0.00401640 0.02187913 -0.04377764
v -0.00368243 0.02143996 -0.04400187
v -0.00397259 0.02170324 -0.04388844
v 0.00055205 0.02244102 -0.04362142
v -0.00064239 0.02405959 -0.04281711
v 0.00054897 0.02486646 -0.04239964
v -0.00064228 0.02486193 -0.04240137
v -0.00055466 0.02583748 -0.04188066
v -0.00123978 0.02583444 -0.04187309
v -0.00192308 0.02582931 -0.04186016
v -0.00269210 0.02484244 -0.04236209
v -0.00260621 0.02582222 -0.04184114
v -0.00309503 0.02573460 -0.04186707
v -0.00289750 0.02478462 -0.04238414
v -0.00331586 0.02563899 -0.04190677
v -0.00304711 0.02464556 -0.04245054
v -0.00372344 0.02534264 -0.04204446
v -0.00310475 0.02446085 -0.04254406
v -0.00400734 0.02495318 -0.04223561
v -0.00413120 0.02444559 -0.04249620
v -0.00413084 0.02376848 -0.04284566
v -0.00310588 0.02368819 -0.04293948
v -0.00310707 0.02334880 -0.04310965
v 0.00034469 0.02175438 -0.04394972
v -0.00064230 0.02244091 -0.04362082
v -0.00064240 0.02325254 -0.04322361
v -0.00067742 0.02228546 -0.04369503
v -0.00021551 0.02125066 -0.04418492
v -0.00078214 0.02215129 -0.04375797
v -0.00097833 0.02106291 -0.04426485
v -0.00092310 0.02207303 -0.04379373
v -0.00106782 0.02204918 -0.04380327
v -0.00152010 0.02105909 -0.04425710
v -0.00161022 0.02204567 -0.04379457
v -0.00206184 0.02105492 -0.04424536
v -0.00215250 0.02204078 -0.04378247
v -0.00260347 0.02105033 -0.04422974
v -0.00269467 0.02203446 -0.04376679
v -0.00318688 0.02115005 -0.04416006
v -0.00295883 0.02211546 -0.04371762
v -0.00305670 0.02221578 -0.04366552
v -0.00368243 0.02143996 -0.04400187
v -0.00310296 0.02231180 -0.04361748
v -0.00401640 0.02187913 -0.04377764
v -0.00311780 0.02241647 -0.04356640
v -0.00413340 0.02240240 -0.04352086
v -0.00310975 0.02280944 -0.04337596
v -0.00413084 0.02308714 -0.04318666
v 0.00054726 0.02583736 -0.04188048
v -0.00055386 0.02631676 -0.04161757
v 0.00054728 0.02631676 -0.04161763
v 0.00018019 0.02727067 -0.04108339
v 0.00054726 0.02679425 -0.04135137
v 0.00054727 0.02727013 -0.04108202
v -0.00055385 0.02679425 -0.04135137
v -0.00018677 0.02727067 -0.04108339
v -0.00055385 0.02727007 -0.04108196
v 0.00123238 0.02583450 -0.04187315
v 0.00123161 0.02486616 -0.04239100
v 0.00191599 0.02582937 -0.04186028
v 0.00191420 0.02486091 -0.04237824
v 0.00259936 0.02582150 -0.04184079
v 0.00259668 0.02485090 -0.04235982
v 0.00280684 0.02479374 -0.04238313
v 0.00308961 0.02573376 -0.04186666
v 0.00295532 0.02466267 -0.04244554
v 0.00354296 0.02549248 -0.04197388
v 0.00302303 0.02447515 -0.04254025
v 0.00389475 0.02513194 -0.04214727
v 0.00412375 0.02444589 -0.04249691
v 0.00412434 0.02331483 -0.04307395
v 0.00302321 0.02333039 -0.04312252
v 0.00302321 0.02219003 -0.04367923
v 0.00412434 0.02217388 -0.04363113
v 0.00302362 0.02104079 -0.04421758
v 0.00412393 0.02102380 -0.04416996
f 1 2 3
f 4 5 6
f 6 5 7
f 6 7 8
f 8 7 9
f 9 7 10
f 10 7 11
f 10 11 12
f 12 11 13
f 13 11 14
f 13 14 15
f 15 14 16
f 15 16 17
f 17 16 18
f 17 18 19
f 19 18 20
f 20 18 21
f 21 18 22
f 21 22 23
f 24 25 4
f 4 25 26
f 4 26 5
f 25 24 27
f 27 24 28
f 27 28 29
f 29 28 30
f 29 30 31
f 31 30 32
f 32 30 33
f 32 33 34
f 34 33 35
f 34 35 36
f 36 35 37
f 36 37 38
f 38 37 39
f 38 39 40
f 40 39 41
f 41 39 42
f 41 42 43
f 43 42 44
f 43 44 45
f 45 44 46
f 45 46 47
f 47 46 48
f 47 48 23
f 23 48 21
f 6 8 49
f 49 8 50
f 49 50 51
f 51 50 52
f 51 52 53
f 53 52 54
f 50 55 52
f 52 55 56
f 56 55 57
f 49 58 6
f 6 58 59
f 59 58 60
f 59 60 61
f 61 60 62
f 61 62 63
f 63 62 64
f 64 62 65
f 64 65 66
f 66 65 67
f 66 67 68
f 68 67 69
f 68 69 70
f 70 71 68
f 68 71 72
f 72 71 73
f 73 71 74
f 73 74 75
f 75 74 76

