# https://github.com/mikedh/trimesh
v -0.03923403 -0.00412363 0.05379992
v -0.03947633 0.00000000 0.05479997
v -0.03945016 0.00000000 0.05379992
v -0.03945016 0.00000000 0.05379992
v -0.03947633 0.00000000 0.05479997
v -0.03926007 0.00412637 0.05479997
v -0.03923403 0.00412363 0.05379992
v -0.03861367 0.00820756 0.05479997
v -0.03858810 0.00820213 0.05379992
v -0.03754425 0.01219880 0.05479997
v -0.03751932 0.01219075 0.05379992
v -0.03606343 0.01605641 0.05479997
v -0.03603953 0.01604580 0.05379992
v -0.03418748 0.01973813 0.05479997
v -0.03416483 0.01972502 0.05379992
v -0.03193706 0.02320361 0.05479997
v -0.03191584 0.02318817 0.05379992
v -0.02933663 0.02641481 0.05479997
v -0.02931720 0.02639728 0.05379992
v -0.02641481 0.02933663 0.05479997
v -0.02639728 0.02931714 0.05379992
v -0.02320361 0.03193700 0.05479997
v -0.02318823 0.03191584 0.05379992
v -0.01973819 0.03418748 0.05479997
v -0.01972508 0.03416478 0.05379992
v -0.01605647 0.03606337 0.05479997
v -0.01604580 0.03603947 0.05379992
v -0.01219886 0.03754419 0.05479997
v -0.01219075 0.03751926 0.05379992
v -0.00820762 0.03861367 0.05479997
v -0.00820213 0.03858804 0.05379992
v -0.00412643 0.03926001 0.05479997
v -0.00412369 0.03923403 0.05379992
v 0.00000000 0.03947633 0.05479997
v 0.00000000 0.03945010 0.05379992
v 0.00412631 0.03926001 0.05479997
v 0.00412357 0.03923403 0.05379992
v 0.00820750 0.03861367 0.05479997
v 0.00820207 0.03858804 0.05379992
v 0.01219880 0.03754419 0.05479997
v 0.01219069 0.03751926 0.05379992
v 0.01605641 0.03606343 0.05479997
v 0.01604574 0.03603947 0.05379992
v 0.01973807 0.03418748 0.05479997
v 0.01972502 0.03416478 0.05379992
v 0.02320355 0.03193700 0.05479997
v 0.02318817 0.03191584 0.05379992
v 0.02641475 0.02933663 0.05479997
v 0.02639722 0.02931714 0.05379992
v 0.02933657 0.02641481 0.05479997
v 0.02931714 0.02639728 0.05379992
v 0.03193694 0.02320361 0.05479997
v 0.03191578 0.02318817 0.05379992
v 0.03418742 0.01973813 0.05479997
v 0.03416478 0.01972508 0.05379992
v 0.03606337 0.01605647 0.05479997
v 0.03603947 0.01604580 0.05379992
v 0.03754419 0.01219886 0.05479997
v 0.03751926 0.01219075 0.05379992
v 0.03861361 0.00820756 0.05479997
v 0.03858798 0.00820213 0.05379992
v 0.03926001 0.00412637 0.05479997
v 0.03923398 0.00412363 0.05379992
v 0.03947627 0.00000000 0.05479997
v 0.03945010 0.00000000 0.05379992
v 0.03926001 -0.00412637 0.05479997
v 0.03923398 -0.00412363 0.05379992
v 0.03861361 -0.00820756 0.05479997
v 0.03858798 -0.00820213 0.05379992
v 0.03754419 -0.01219880 0.05479997
v 0.03751926 -0.01219075 0.05379992
v 0.03606337 -0.01605641 0.05479997
v 0.03603947 -0.01604580 0.05379992
v 0.03418742 -0.01973813 0.05479997
v 0.03416478 -0.01972502 0.05379992
v 0.03193694 -0.02320355 0.05479997
v 0.03191578 -0.02318817 0.05379992
v 0.02933657 -0.02641481 0.05479997
v 0.02931714 -0.02639728 0.05379992
v 0.02641475 -0.02933663 0.05479997
v 0.02639722 -0.02931714 0.05379992
v 0.02320355 -0.03193700 0.05479997
v 0.02318817 -0.03191584 0.05379992
v 0.01973813 -0.03418748 0.05479997
v 0.01972502 -0.03416478 0.05379992
v 0.01605641 -0.03606337 0.05479997
v 0.01604574 -0.03603947 0.05379992
v 0.01219880 -0.03754419 0.05479997
v 0.01219069 -0.03751926 0.05379992
v 0.00820756 -0.03861367 0.05479997
v 0.00820207 -0.03858804 0.05379992
v 0.00412637 -0.03926001 0.05479997
v 0.00412363 -0.03923398 0.05379992
v 0.00000000 -0.03947633 0.05479997
v 0.00000000 -0.03945010 0.05379992
v -0.00412643 -0.03926001 0.05479997
v -0.00412369 -0.03923398 0.05379992
v -0.00820762 -0.03861367 0.05479997
v -0.00820213 -0.03858804 0.05379992
v -0.01219886 -0.03754419 0.05479997
v -0.01219075 -0.03751926 0.05379992
v -0.01605647 -0.03606337 0.05479997
v -0.01604580 -0.03603947 0.05379992
v -0.01973819 -0.03418748 0.05479997
v -0.01972508 -0.03416478 0.05379992
v -0.02320361 -0.03193700 0.05479997
v -0.02318823 -0.03191584 0.05379992
v -0.02641481 -0.02933663 0.05479997
v -0.02639728 -0.02931714 0.05379992
v -0.02933663 -0.02641481 0.05479997
v -0.02931720 -0.02639728 0.05379992
v -0.03193700 -0.02320361 0.05479997
v -0.03191584 -0.02318817 0.05379992
v -0.03418748 -0.01973813 0.05479997
v -0.03416483 -0.01972502 0.05379992
v -0.03606343 -0.01605647 0.05479997
v -0.03603953 -0.01604580 0.05379992
v -0.03754425 -0.01219886 0.05479997
v -0.03751932 -0.01219075 0.05379992
v -0.03861367 -0.00820756 0.05479997
v -0.03858810 -0.00820213 0.05379992
v -0.03926007 -0.00412637 0.05479997
v -0.03926007 -0.00412637 0.05479997
v 0.03926001 -0.00412637 0.05479997
v -0.03947633 0.00000000 0.05479997
v 0.03947627 0.00000000 0.05479997
v -0.03926007 0.00412637 0.05479997
v 0.03926001 0.00412637 0.05479997
v -0.03861367 0.00820756 0.05479997
v 0.03861361 0.00820756 0.05479997
v -0.03754425 0.01219880 0.05479997
v 0.03754419 0.01219886 0.05479997
v -0.03606343 0.01605641 0.05479997
v 0.03606337 0.01605647 0.05479997
v -0.03418748 0.01973813 0.05479997
v 0.03418742 0.01973813 0.05479997
v -0.03193706 0.02320361 0.05479997
v 0.03193694 0.02320361 0.05479997
v -0.02933663 0.02641481 0.05479997
v 0.02933657 0.02641481 0.05479997
v -0.02641481 0.02933663 0.05479997
v 0.02641475 0.02933663 0.05479997
v -0.02320361 0.03193700 0.05479997
v 0.02320355 0.03193700 0.05479997
v -0.01973819 0.03418748 0.05479997
v 0.01973807 0.03418748 0.05479997
v -0.01605647 0.03606337 0.05479997
v 0.01605641 0.03606343 0.05479997
v -0.01219886 0.03754419 0.05479997
v 0.01219880 0.03754419 0.05479997
v -0.00820762 0.03861367 0.05479997
v 0.00820750 0.03861367 0.05479997
v -0.00412643 0.03926001 0.05479997
v 0.00412631 0.03926001 0.05479997
v 0.00000000 0.03947633 0.05479997
v 0.03861361 -0.00820756 0.05479997
v -0.03861367 -0.00820756 0.05479997
v 0.03754419 -0.01219880 0.05479997
v -0.03754425 -0.01219886 0.05479997
v 0.03606337 -0.01605641 0.05479997
v -0.03606343 -0.01605647 0.05479997
v 0.03418742 -0.01973813 0.05479997
v -0.03418748 -0.01973813 0.05479997
v 0.03193694 -0.02320355 0.05479997
v -0.03193700 -0.02320361 0.05479997
v 0.02933657 -0.02641481 0.05479997
v -0.02933663 -0.02641481 0.05479997
v 0.02641475 -0.02933663 0.05479997
v -0.02641481 -0.02933663 0.05479997
v 0.02320355 -0.03193700 0.05479997
v -0.02320361 -0.03193700 0.05479997
v 0.01973813 -0.03418748 0.05479997
v -0.01973819 -0.03418748 0.05479997
v 0.01605641 -0.03606337 0.05479997
v -0.01605647 -0.03606337 0.05479997
v 0.01219880 -0.03754419 0.05479997
v -0.01219886 -0.03754419 0.05479997
v 0.00820756 -0.03861367 0.05479997
v -0.00820762 -0.03861367 0.05479997
v 0.00412637 -0.03926001 0.05479997
v -0.00412643 -0.03926001 0.05479997
v 0.00000000 -0.03947633 0.05479997
v -0.03923403 0.00412363 0.05379992
v 0.03923398 0.00412363 0.05379992
v -0.03945016 0.00000000 0.05379992
v 0.03945010 0.00000000 0.05379992
v -0.03923403 -0.00412363 0.05379992
v 0.03923398 -0.00412363 0.05379992
v -0.03858810 -0.00820213 0.05379992
v 0.03858798 -0.00820213 0.05379992
v -0.03751932 -0.01219075 0.05379992
v 0.03751926 -0.01219075 0.05379992
v -0.03603953 -0.01604580 0.05379992
v 0.03603947 -0.01604580 0.05379992
v -0.03416483 -0.01972502 0.05379992
v 0.03416478 -0.01972502 0.05379992
v -0.03191584 -0.02318817 0.05379992
v 0.03191578 -0.02318817 0.05379992
v -0.02931720 -0.02639728 0.05379992
v 0.02931714 -0.02639728 0.05379992
v -0.02639728 -0.02931714 0.05379992
v 0.02639722 -0.02931714 0.05379992
v -0.02318823 -0.03191584 0.05379992
v 0.02318817 -0.03191584 0.05379992
v -0.01972508 -0.03416478 0.05379992
v 0.01972502 -0.03416478 0.05379992
v -0.01604580 -0.03603947 0.05379992
v 0.01604574 -0.03603947 0.05379992
v -0.01219075 -0.03751926 0.05379992
v 0.01219069 -0.03751926 0.05379992
v -0.00820213 -0.03858804 0.05379992
v 0.00820207 -0.03858804 0.05379992
v -0.00412369 -0.03923398 0.05379992
v 0.00412363 -0.03923398 0.05379992
v 0.00000000 -0.03945010 0.05379992
v 0.03858798 0.00820213 0.05379992
v -0.03858810 0.00820213 0.05379992
v 0.03751926 0.01219075 0.05379992
v -0.03751932 0.01219075 0.05379992
v 0.03603947 0.01604580 0.05379992
v -0.03603953 0.01604580 0.05379992
v 0.03416478 0.01972508 0.05379992
v -0.03416483 0.01972502 0.05379992
v 0.03191578 0.02318817 0.05379992
v -0.03191584 0.02318817 0.05379992
v 0.02931714 0.02639728 0.05379992
v -0.02931720 0.02639728 0.05379992
v 0.02639722 0.02931714 0.05379992
v -0.02639728 0.02931714 0.05379992
v 0.02318817 0.03191584 0.05379992
v -0.02318823 0.03191584 0.05379992
v 0.01972502 0.03416478 0.05379992
v -0.01972508 0.03416478 0.05379992
v 0.01604574 0.03603947 0.05379992
v -0.01604580 0.03603947 0.05379992
v 0.01219069 0.03751926 0.05379992
v -0.01219075 0.03751926 0.05379992
v 0.00820207 0.03858804 0.05379992
v -0.00820213 0.03858804 0.05379992
v 0.00412357 0.03923403 0.05379992
v -0.00412369 0.03923403 0.05379992
v 0.00000000 0.03945010 0.05379992
f 1 2 3
f 4 5 6
f 4 6 7
f 7 6 8
f 7 8 9
f 9 8 10
f 9 10 11
f 11 10 12
f 11 12 13
f 13 12 14
f 13 14 15
f 15 14 16
f 15 16 17
f 17 16 18
f 17 18 19
f 19 18 20
f 19 20 21
f 21 20 22
f 21 22 23
f 23 22 24
f 23 24 25
f 25 24 26
f 25 26 27
f 27 26 28
f 27 28 29
f 29 28 30
f 29 30 31
f 31 30 32
f 31 32 33
f 33 32 34
f 33 34 35
f 35 34 36
f 35 36 37
f 37 36 38
f 37 38 39
f 39 38 40
f 39 40 41
f 41 40 42
f 41 42 43
f 43 42 44
f 43 44 45
f 45 44 46
f 45 46 47
f 47 46 48
f 47 48 49
f 49 48 50
f 49 50 51
f 51 50 52
f 51 52 53
f 53 52 54
f 53 54 55
f 55 54 56
f 55 56 57
f 57 56 58
f 57 58 59
f 59 58 60
f 59 60 61
f 61 60 62
f 61 62 63
f 63 62 64
f 63 64 65
f 65 64 66
f 65 66 67
f 67 66 68
f 67 68 69
f 69 68 70
f 69 70 71
f 71 70 72
f 71 72 73
f 73 72 74
f 73 74 75
f 75 74 76
f 75 76 77
f 77 76 78
f 77 78 79
f 79 78 80
f 79 80 81
f 81 80 82
f 81 82 83
f 83 82 84
f 83 84 85
f 85 84 86
f 85 86 87
f 87 86 88
f 87 88 89
f 89 88 90
f 89 90 91
f 91 90 92
f 91 92 93
f 93 92 94
f 93 94 95
f 95 94 96
f 95 96 97
f 97 96 98
f 97 98 99
f 99 98 100
f 99 100 101
f 101 100 102
f 101 102 103
f 103 102 104
f 103 104 105
f 105 104 106
f 105 106 107
f 107 106 108
f 107 108 109
f 109 108 110
f 109 110 111
f 111 110 112
f 111 112 113
f 113 112 114
f 113 114 115
f 115 114 116
f 115 116 117
f 117 116 118
f 117 118 119
f 119 118 120
f 119 120 121
f 121 120 122
f 121 122 1
f 1 122 2
f 123 124 125
f 125 124 126
f 125 126 127
f 127 126 128
f 127 128 129
f 129 128 130
f 129 130 131
f 131 130 132
f 131 132 133
f 133 132 134
f 133 134 135
f 135 134 136
f 135 136 137
f 137 136 138
f 137 138 139
f 139 138 140
f 139 140 141
f 141 140 142
f 141 142 143
f 143 142 144
f 143 144 145
f 145 144 146
f 145 146 147
f 147 146 148
f 147 148 149
f 149 148 150
f 149 150 151
f 151 150 152
f 151 152 153
f 153 152 154
f 153 154 155
f 124 123 156
f 156 123 157
f 156 157 158
f 158 157 159
f 158 159 160
f 160 159 161
f 160 161 162
f 162 161 163
f 162 163 164
f 164 163 165
f 164 165 166
f 166 165 167
f 166 167 168
f 168 167 169
f 168 169 170
f 170 169 171
f 170 171 172
f 172 171 173
f 172 173 174
f 174 173 175
f 174 175 176
f 176 175 177
f 176 177 178
f 178 177 179
f 178 179 180
f 180 179 181
f 180 181 182
f 183 184 185
f 185 184 186
f 185 186 187
f 187 186 188
f 187 188 189
f 189 188 190
f 189 190 191
f 191 190 192
f 191 192 193
f 193 192 194
f 193 194 195
f 195 194 196
f 195 196 197
f 197 196 198
f 197 198 199
f 199 198 200
f 199 200 201
f 201 200 202
f 201 202 203
f 203 202 204
f 203 204 205
f 205 204 206
f 205 206 207
f 207 206 208
f 207 208 209
f 209 208 210
f 209 210 211
f 211 210 212
f 211 212 213
f 213 212 214
f 213 214 215
f 184 183 216
f 216 183 217
f 216 217 218
f 218 217 219
f 218 219 220
f 220 219 221
f 220 221 222
f 222 221 223
f 222 223 224
f 224 223 225
f 224 225 226
f 226 225 227
f 226 227 228
f 228 227 229
f 228 229 230
f 230 229 231
f 230 231 232
f 232 231 233
f 232 233 234
f 234 233 235
f 234 235 236
f 236 235 237
f 236 237 238
f 238 237 239
f 238 239 240
f 240 239 241
f 240 241 242

