mtllib material.mtl
usemtl material_base_link_1
v -0.13437600 0.16025101 0.32127500
v -0.11925700 0.18569800 0.31745100
v -0.13112199 0.18227200 0.31793100
v -0.10318000 0.27140099 0.29534400
v -0.10638200 0.28603500 0.28942201
v -0.11069200 0.27379301 0.29422599
v -0.02761500 0.30091500 0.27453101
v -0.07248000 0.30662701 0.25201300
v -0.09442500 0.29855600 0.27611101
v -0.02963400 0.30779299 0.25104201
v -0.02781000 0.29646799 0.28336400
v -0.10142500 0.29426301 0.28380901
v -0.07437600 0.15735900 0.32221499
v -0.07341700 0.16085900 0.32271701
v -0.13478100 0.15680499 0.32091999
v -0.11268100 0.18994699 0.31683299
v -0.02962100 0.28801501 0.28899100
v -0.09714400 0.26731601 0.29698199
v -0.03821300 0.26124200 0.29987401
v -0.09467300 0.25998899 0.29957801
v -0.04950200 0.22835000 0.30964100
v -0.10123600 0.22809801 0.30869299
v -0.10825800 0.19683500 0.31560501
v -0.06062700 0.19375999 0.31724399
v 0.02101900 0.15726100 0.32168001
v 0.02221700 0.16080800 0.32203999
v 0.02686700 0.19423801 0.31681401
v 0.03468900 0.22806700 0.30916300
v 0.04126700 0.26016301 0.29907599
v 0.04544500 0.28824601 0.28675899
v 0.28478000 0.17531499 0.28732899
v 0.26057300 0.16814600 0.29576901
v 0.27737799 0.15851800 0.29128900
v 0.26885000 0.18901800 0.29110700
v 0.29318100 0.19344699 0.28086200
v 0.27815601 0.21163601 0.28337201
v 0.27189499 0.14783500 0.29374999
v 0.25398600 0.15039200 0.29865000
v 0.25185001 0.14698300 0.29827401
v 0.27108601 0.14451200 0.29315799
v 0.30614501 0.17349200 0.27801800
v 0.29779199 0.15876199 0.28381601
v 0.29244399 0.14348000 0.28657100
v 0.31508300 0.15398701 0.27590299
v 0.30613899 0.14213900 0.28151500
v 0.32092699 0.13840801 0.27464899
v 0.29159400 0.14100599 0.28612000
v 0.30512300 0.13848899 0.28123099
v 0.32020301 0.13473301 0.27422500
v 0.04638200 0.29560399 0.28129700
v 0.04730000 0.30042100 0.27211100
v 0.11824600 0.28390101 0.28409699
v 0.11911800 0.29167899 0.27819401
v 0.15723699 0.27980101 0.28247100
v 0.15944000 0.28709501 0.27652100
v 0.18748100 0.27534601 0.28072000
v 0.18982001 0.28221801 0.27468300
v 0.21564600 0.26859400 0.27950600
v 0.21785299 0.27557099 0.27341601
v 0.24534900 0.26538101 0.27154201
v 0.24273799 0.25885901 0.27787101
v 0.26870000 0.25193501 0.27017000
v 0.26497799 0.24612500 0.27640900
v 0.28878000 0.23506700 0.26822099
v 0.28464901 0.22883800 0.27488199
v 0.30127099 0.20972501 0.27254099
v 0.30509400 0.21559000 0.26629999
v 0.31531700 0.18495600 0.27071100
v 0.32069600 0.19002400 0.26372799
v 0.32592899 0.16081899 0.26881599
v 0.33311701 0.16189800 0.26199499
v 0.33445701 0.13406900 0.26716700
v 0.15973900 0.29136699 0.26747999
v 0.11974300 0.29575101 0.26943600
v 0.04956800 0.30694601 0.24807000
v 0.12069900 0.30216500 0.24509101
v 0.16007499 0.29760700 0.24314800
v 0.13064200 0.30408299 0.23078901
v 0.12726600 0.30308700 0.23827299
v 0.12067400 0.30285901 0.24277499
v 0.19071899 0.28647500 0.26611400
v 0.21959600 0.27952799 0.26406100
v 0.24719299 0.26929799 0.26248401
v 0.27203301 0.25478899 0.26066399
v 0.29202700 0.23745300 0.25870901
v 0.30846801 0.21735001 0.25686201
v 0.32417300 0.19154000 0.25484601
v 0.33780900 0.16237700 0.25257799
v 0.19040699 0.29287601 0.24144900
v 0.22055000 0.28570300 0.23951000
v 0.24943499 0.27452600 0.23773600
v 0.27593499 0.25833499 0.23603600
v 0.29681501 0.23963600 0.23400600
v 0.31398001 0.21762200 0.23240900
v 0.32999599 0.19209500 0.23102500
v 0.34385401 0.16322000 0.22982600
v 0.16030900 0.30257699 0.21540900
v 0.13259600 0.30597100 0.21695000
v 0.18949001 0.29760799 0.21435300
v 0.22199400 0.28949299 0.21294300
v 0.25179300 0.27784601 0.21152000
v 0.27991799 0.26026100 0.21003200
v 0.30124101 0.23997200 0.20882300
v 0.31874400 0.21737100 0.20795500
v 0.33419901 0.19204900 0.20707700
v 0.34838700 0.16298600 0.20608900
v 0.35490501 0.13206300 0.22891600
v 0.35775301 0.13879099 0.20557600
v 0.33368799 0.13058600 0.26682800
v 0.35726899 0.11504000 0.23735499
v 0.36304501 0.10159300 0.22788900
v 0.35000300 0.12408900 0.25085300
v 0.34855199 0.12147300 0.25164601
v 0.35578600 0.11213800 0.23844901
v 0.34314999 0.13067099 0.26042300
v 0.34208399 0.12690400 0.26040399
v 0.36558199 0.11230600 0.20510399
v 0.36091000 0.09950800 0.23061600
v 0.37307701 0.07382200 0.20464499
v 0.36914599 0.07235200 0.22312599
v 0.36698800 0.07100200 0.22513901
v 0.37675500 0.03751700 0.20457800
v 0.37277800 0.03719000 0.22150700
v 0.37357399 -0.00000000 0.22195700
v 0.37058300 0.03666300 0.22331400
v 0.37148300 -0.00000000 0.22312300
v 0.37791800 -0.00000000 0.20446800
v -0.13437600 -0.16025101 0.32127500
v -0.13112199 -0.18227200 0.31793100
v -0.11925700 -0.18569800 0.31745100
v -0.10318000 -0.27140099 0.29534400
v -0.11069200 -0.27379301 0.29422501
v -0.10638200 -0.28603500 0.28942201
v -0.07248000 -0.30662701 0.25201300
v -0.02761500 -0.30091500 0.27452999
v -0.09442500 -0.29855600 0.27611101
v -0.02963400 -0.30779299 0.25104201
v -0.02781000 -0.29646799 0.28336400
v -0.10142500 -0.29426399 0.28380901
v -0.07437600 -0.15735900 0.32221499
v -0.13478100 -0.15680601 0.32091901
v -0.07341700 -0.16085900 0.32271701
v -0.11268100 -0.18994799 0.31683299
v -0.09714400 -0.26731601 0.29698199
v -0.02962100 -0.28801501 0.28899100
v -0.03821300 -0.26124200 0.29987401
v -0.09467300 -0.25998899 0.29957801
v -0.04950200 -0.22835000 0.30964100
v -0.10123600 -0.22809801 0.30869299
v -0.10825800 -0.19683500 0.31560501
v -0.06062700 -0.19375999 0.31724399
v 0.02101900 -0.15726100 0.32167900
v 0.02221700 -0.16080800 0.32203999
v 0.02686700 -0.19423901 0.31681401
v 0.03468900 -0.22806700 0.30916300
v 0.04126700 -0.26016399 0.29907599
v 0.04544500 -0.28824699 0.28675899
v 0.20413600 -0.21478300 0.30091000
v 0.22095700 -0.18049000 0.30377400
v 0.19713500 -0.18506400 0.30706799
v 0.22893301 -0.20832101 0.29803100
v 0.23712701 -0.23565499 0.28914300
v 0.21030299 -0.24328700 0.29176500
v 0.25020701 -0.19982900 0.29476899
v 0.24181600 -0.17493901 0.30000600
v 0.25921801 -0.22496399 0.28645599
v 0.26885000 -0.18901899 0.29110700
v 0.26057300 -0.16814700 0.29576901
v 0.27815601 -0.21163601 0.28337201
v 0.28478000 -0.17531499 0.28732899
v 0.27737799 -0.15851800 0.29128900
v 0.29318100 -0.19344801 0.28086200
v 0.10299400 -0.15978700 0.31903899
v 0.10656800 -0.19216999 0.31427300
v 0.11130900 -0.22552399 0.30689499
v 0.17052200 -0.18820100 0.30988601
v 0.17668299 -0.21952900 0.30327499
v 0.13832800 -0.19027300 0.31208801
v 0.14347100 -0.22283600 0.30541301
v 0.11527600 -0.25690001 0.29672399
v 0.18131600 -0.24851499 0.29393101
v 0.14951500 -0.25268099 0.29563600
v 0.10304300 -0.15579499 0.31815800
v 0.25398600 -0.15039200 0.29865000
v 0.27189499 -0.14783600 0.29374999
v 0.27108601 -0.14451200 0.29315799
v 0.25185001 -0.14698300 0.29827300
v 0.23526600 -0.15246500 0.30295900
v 0.23439001 -0.14881501 0.30225500
v 0.21404199 -0.15398200 0.30706400
v 0.21367399 -0.15070400 0.30639699
v 0.19087400 -0.15618700 0.31055301
v 0.19151101 -0.15227000 0.30978000
v 0.16504399 -0.15707999 0.31383201
v 0.16448800 -0.15375200 0.31319401
v 0.13458499 -0.15492500 0.31595001
v 0.13488799 -0.15871499 0.31663099
v 0.30614400 -0.17349200 0.27801800
v 0.29779199 -0.15876199 0.28381601
v 0.29244301 -0.14348000 0.28657100
v 0.31508300 -0.15398800 0.27590299
v 0.32092699 -0.13840900 0.27464899
v 0.30599600 -0.14162500 0.28147501
v 0.29159400 -0.14100599 0.28612000
v 0.30512300 -0.13849001 0.28123099
v 0.32020301 -0.13473301 0.27422500
v 0.04638200 -0.29560399 0.28129700
v 0.04730000 -0.30042100 0.27211100
v 0.11824600 -0.28390101 0.28409699
v 0.11911800 -0.29167899 0.27819401
v 0.15723699 -0.27980101 0.28247100
v 0.15944000 -0.28709501 0.27652100
v 0.18748100 -0.27534601 0.28072000
v 0.18982001 -0.28221801 0.27468300
v 0.21564600 -0.26859400 0.27950600
v 0.21785299 -0.27557099 0.27341601
v 0.24273799 -0.25885999 0.27787101
v 0.24534900 -0.26538101 0.27154201
v 0.26497799 -0.24612500 0.27640900
v 0.26870000 -0.25193501 0.27016899
v 0.28464901 -0.22883900 0.27488199
v 0.28878000 -0.23506700 0.26822001
v 0.30127099 -0.20972501 0.27254099
v 0.30509299 -0.21559000 0.26629999
v 0.31531700 -0.18495600 0.27071100
v 0.32069600 -0.19002500 0.26372799
v 0.32592899 -0.16082001 0.26881599
v 0.33311701 -0.16189800 0.26199499
v 0.33445701 -0.13406900 0.26716599
v 0.11974300 -0.29575101 0.26943600
v 0.15973900 -0.29136699 0.26747999
v 0.04956800 -0.30694601 0.24807000
v 0.12069800 -0.30216500 0.24509101
v 0.16007499 -0.29760700 0.24314800
v 0.12726600 -0.30308700 0.23827299
v 0.13064200 -0.30408299 0.23078901
v 0.12067400 -0.30285901 0.24277499
v 0.19071899 -0.28647500 0.26611400
v 0.21959600 -0.27952799 0.26406100
v 0.24719200 -0.26929900 0.26248401
v 0.27203301 -0.25478899 0.26066399
v 0.29202700 -0.23745300 0.25870901
v 0.30846801 -0.21735001 0.25686201
v 0.32417300 -0.19154000 0.25484601
v 0.33780900 -0.16237700 0.25257799
v 0.19040699 -0.29287601 0.24144900
v 0.22055000 -0.28570300 0.23951000
v 0.24943499 -0.27452600 0.23773500
v 0.27698299 -0.25769600 0.23596799
v 0.29717201 -0.23931199 0.23397000
v 0.31398001 -0.21762200 0.23240900
v 0.32999599 -0.19209500 0.23102500
v 0.34395000 -0.16301900 0.22981700
v 0.16030900 -0.30257699 0.21540900
v 0.13214700 -0.30571699 0.21684000
v 0.18949001 -0.29760799 0.21435300
v 0.22199400 -0.28949299 0.21294300
v 0.25179300 -0.27784601 0.21152000
v 0.27991799 -0.26026100 0.21003200
v 0.30124101 -0.23997200 0.20882300
v 0.31874400 -0.21737200 0.20795500
v 0.33419901 -0.19205000 0.20707700
v 0.34838700 -0.16298600 0.20608900
v 0.35775301 -0.13879099 0.20557600
v 0.35506701 -0.13158800 0.22890200
v 0.33368799 -0.13058600 0.26682800
v 0.36304501 -0.10159400 0.22788900
v 0.35726899 -0.11504000 0.23735499
v 0.35000300 -0.12408900 0.25085300
v 0.34855199 -0.12147300 0.25164601
v 0.35578600 -0.11213800 0.23844901
v 0.34314999 -0.13067099 0.26042300
v 0.34208399 -0.12690499 0.26040399
v 0.36558199 -0.11230600 0.20510399
v 0.36091000 -0.09950800 0.23061600
v 0.37307701 -0.07382200 0.20464499
v 0.36914599 -0.07235200 0.22312599
v 0.36698800 -0.07100200 0.22513901
v 0.37675500 -0.03751700 0.20457800
v 0.37277800 -0.03719000 0.22150700
v 0.37058300 -0.03666300 0.22331400
v 0.21404199 0.15398200 0.30706400
v 0.23439001 0.14881501 0.30225500
v 0.23526600 0.15246500 0.30295900
v 0.21367399 0.15070300 0.30639699
v 0.25865701 0.22458300 0.28671500
v 0.24223299 0.17363900 0.30010501
v 0.25020701 0.19982900 0.29476899
v 0.23767900 0.23792800 0.28834200
v 0.14373501 0.21562900 0.33147699
v 0.14034300 0.20954201 0.33183300
v 0.14282700 0.20939100 0.33164600
v 0.14120400 0.21638300 0.33162001
v 0.14605200 0.22143701 0.33107001
v 0.14401799 0.22275800 0.33113700
v 0.14935100 0.22627801 0.33048800
v 0.14731100 0.22781999 0.33055100
v 0.15280101 0.23234400 0.32950899
v 0.15419801 0.23034699 0.32963300
v 0.15953401 0.23516300 0.32842401
v 0.16008100 0.23291799 0.32859701
v 0.16651100 0.23407900 0.32745701
v 0.16654301 0.23642901 0.32715601
v 0.17323101 0.23541801 0.32600001
v 0.17259499 0.23318700 0.32638800
v 0.17860401 0.23096900 0.32533699
v 0.18005700 0.23292600 0.32479599
v 0.18387499 0.22705300 0.32440901
v 0.18588699 0.22822700 0.32380700
v 0.18791801 0.22192200 0.32368001
v 0.19021600 0.22245599 0.32298499
v 0.19028300 0.21578400 0.32326800
v 0.19246601 0.21623699 0.32258800
v 0.19112900 0.20931900 0.32312900
v 0.19350900 0.20921101 0.32244599
v 0.19242901 0.20234600 0.32262301
v 0.19006200 0.20282100 0.32331401
v 0.18937100 0.19562000 0.32314900
v 0.18748599 0.19695400 0.32376599
v 0.18358301 0.19185901 0.32445300
v 0.18521300 0.18995801 0.32383701
v 0.17805301 0.18770400 0.32543200
v 0.17910700 0.18555801 0.32500100
v 0.17245600 0.18563400 0.32640600
v 0.17311800 0.18336500 0.32579100
v 0.16606700 0.18502900 0.32753000
v 0.16612400 0.18256600 0.32712999
v 0.15971500 0.18352300 0.32820001
v 0.16025600 0.18610300 0.32856500
v 0.15374000 0.18604501 0.32929599
v 0.15473400 0.18860400 0.32954401
v 0.14760800 0.19070500 0.33045599
v 0.14978100 0.19244200 0.33041200
v 0.14595300 0.19750600 0.33108500
v 0.14344400 0.19682799 0.33122399
v 0.14370701 0.20319000 0.33148301
v 0.14118700 0.20286199 0.33159599
v 0.13160799 0.21930499 0.33000901
v 0.12947100 0.20969900 0.33002800
v 0.13687700 0.22672100 0.32981399
v 0.14354999 0.23185299 0.32931200
v 0.15111300 0.23512700 0.32834801
v 0.15910099 0.23752800 0.32696801
v 0.16636901 0.23793200 0.32598200
v 0.17381600 0.23705401 0.32452801
v 0.18110400 0.23442900 0.32344699
v 0.18862300 0.23033500 0.32154700
v 0.19465700 0.22469200 0.31959599
v 0.19748600 0.21763800 0.31866601
v 0.19890399 0.20964199 0.31814501
v 0.19763499 0.20089300 0.31857800
v 0.19349900 0.19335000 0.32001799
v 0.18678901 0.18789400 0.32201201
v 0.17998400 0.18424900 0.32342699
v 0.17328499 0.18221299 0.32477000
v 0.16616400 0.18139800 0.32598799
v 0.15943401 0.18218100 0.32711399
v 0.15213700 0.18390000 0.32823700
v 0.14410400 0.18756600 0.32925400
v 0.13158800 0.20110901 0.33001301
v 0.13573100 0.19396900 0.32983699
v 0.20354600 0.22917600 0.31388399
v 0.20629001 0.21924500 0.31325999
v 0.20671600 0.20972900 0.31338099
v 0.23994000 0.22192700 0.29263201
v 0.23853800 0.20068499 0.29757899
v 0.20612800 0.19892099 0.31324700
v 0.23012500 0.17957599 0.30214599
v 0.20178699 0.18768600 0.31418800
v 0.21132500 0.16644400 0.30680099
v 0.19670200 0.23790300 0.31460801
v 0.21280400 0.24826400 0.29137900
v 0.19087400 0.15618700 0.31055301
v 0.19151101 0.15227000 0.30978000
v 0.13488799 0.15871499 0.31663099
v 0.16448800 0.15375200 0.31319401
v 0.16485600 0.15738000 0.31384400
v 0.13458499 0.15492401 0.31595001
v 0.09287900 0.19215301 0.32143700
v 0.09411600 0.23018700 0.31650001
v 0.11365600 0.25964999 0.29834101
v 0.18524000 0.25634801 0.29322499
v 0.15026700 0.25912401 0.29607499
v 0.19159400 0.17998600 0.31589201
v 0.10304300 0.15579499 0.31815800
v 0.10299400 0.15978700 0.31903899
v 0.13375901 0.17883900 0.32603499
v 0.12156800 0.18659000 0.32816601
v 0.11662700 0.19805899 0.32902801
v 0.12253700 0.23528700 0.32774800
v 0.11667000 0.22358900 0.32882199
v 0.13474500 0.24170800 0.32591099
v 0.16451100 0.17626201 0.32091701
v 0.15642300 0.17609499 0.32196200
v 0.14485800 0.17704301 0.32432899
v 0.14692600 0.24387600 0.32351401
v 0.15806399 0.24415100 0.32200801
v 0.21620101 0.23204400 0.29903299
v 0.19670200 0.23790300 0.31460801
v 0.20354600 0.22917600 0.31388399
v 0.20280300 0.24242599 0.30134699
v 0.22014900 0.21989299 0.30024001
v 0.21975200 0.20637999 0.30337101
v 0.20629001 0.21924500 0.31325999
v 0.20671600 0.20972900 0.31338099
v 0.21557100 0.19100800 0.30613300
v 0.20612800 0.19892099 0.31324700
v 0.20556501 0.17723800 0.30860999
v 0.20178699 0.18768600 0.31418800
v 0.18164299 0.17680800 0.31718901
v 0.18741301 0.16913900 0.31108600
v 0.19159400 0.17998600 0.31589201
v 0.18164299 0.17680800 0.31718901
v 0.15642300 0.17609499 0.32196200
v 0.16522500 0.16790099 0.31399301
v 0.16451100 0.17626201 0.32091701
v 0.14264400 0.17096500 0.31782001
v 0.11718300 0.17625099 0.32152900
v 0.13375901 0.17883900 0.32603499
v 0.12156800 0.18659000 0.32816601
v 0.12253700 0.23528700 0.32774800
v 0.13474500 0.24170800 0.32591099
v 0.12325500 0.24636200 0.31507501
v 0.10753200 0.22453301 0.32427201
v 0.11667000 0.22358900 0.32882199
v 0.15209000 0.24962100 0.30961299
v 0.17253301 0.17633601 0.31928301
v 0.17253301 0.17633601 0.31928301
v 0.17504600 0.24365699 0.31892300
v 0.18637800 0.24172300 0.31702700
v 0.18003400 0.24867500 0.30396599
v 0.17504600 0.24365699 0.31892300
v 0.18637800 0.24172300 0.31702700
v 0.16586000 0.24416000 0.32051501
v 0.15806399 0.24415100 0.32200801
v 0.16586000 0.24416000 0.32051501
v 0.14692600 0.24387600 0.32351401
v 0.10683200 0.19687100 0.32603899
v 0.11662700 0.19805899 0.32902801
v 0.11528000 0.21019199 0.32911000
v 0.11528000 0.21019199 0.32911000
v 0.14485800 0.17704301 0.32432899
v -0.33528101 -0.02803700 0.01646300
v -0.33360600 -0.05317200 0.01680300
v -0.33157599 -0.04185600 0.02149400
v -0.33163300 -0.02746700 0.02141700
v -0.33162799 -0.01122000 0.02143200
v -0.33586800 -0.01093400 0.01637300
v -0.33164799 0.00000000 0.02140900
v -0.33595201 0.00000000 0.01645100
v -0.33157501 -0.04501000 0.05661800
v -0.33899099 -0.06466700 0.03509900
v -0.34771201 -0.06784700 0.06287400
v -0.33158299 -0.04503400 0.03394900
v -0.33541200 -0.08861600 0.03477900
v -0.34294099 -0.10908500 0.06859400
v -0.34548101 -0.08891000 0.06546400
v -0.32917801 -0.12097700 0.03498800
v -0.34685099 -0.10474400 0.07903100
v -0.34814101 -0.08802300 0.07367400
v -0.33157700 -0.04501100 0.06077700
v -0.34933901 -0.06745100 0.06814400
v -0.34771201 -0.06784700 0.06287400
v -0.34933901 -0.06745100 0.06814400
v -0.35082400 -0.09915300 0.08980000
v -0.35030600 -0.08435900 0.07969400
v -0.35396600 -0.09185200 0.09724400
v -0.35241601 -0.07782900 0.08406300
v -0.35089299 -0.06356000 0.07195300
v -0.33159301 -0.04501300 0.06430900
v -0.35089299 -0.06356000 0.07195300
v -0.35638401 -0.07717400 0.09927400
v -0.35376400 -0.07222100 0.08632900
v -0.35185501 -0.05747200 0.07308700
v -0.33176899 -0.04272200 0.06656300
v -0.35880199 -0.06249600 0.10130400
v -0.35528800 -0.06052000 0.08719000
v -0.35185501 -0.05747200 0.07308700
v -0.35413700 -0.02796900 0.07353700
v -0.33183801 -0.02845100 0.06658300
v -0.36142901 -0.02920100 0.10160500
v -0.35757300 -0.02881900 0.08682000
v -0.35413700 -0.02796900 0.07353700
v -0.33172601 -0.01217000 0.06654700
v -0.35464901 -0.01188000 0.07335500
v -0.35450599 0.00000000 0.07322000
v -0.33163100 0.00000000 0.06651800
v -0.35815200 -0.01206000 0.08666600
v -0.36199501 -0.01202100 0.10145900
v -0.36170900 -0.01047600 0.10018600
v -0.36181000 0.00000000 0.10022900
v -0.35825601 0.00000000 0.08649700
v -0.35464901 -0.01188000 0.07335500
v -0.35450599 0.00000000 0.07322000
v -0.33349699 -0.05729800 0.01762700
v -0.33157399 -0.04434300 0.02178600
v -0.33899099 -0.06466700 0.03509900
v -0.33540800 -0.06286600 0.02440700
v -0.33540800 -0.06286600 0.02440700
v -0.33163300 -0.04515400 0.02685500
v -0.33157799 -0.04505500 0.02374700
v -0.33416301 -0.06153600 0.02063700
v -0.32174301 -0.08885700 -0.00110100
v -0.33416301 -0.06153600 0.02063700
v -0.33349699 -0.05729800 0.01762700
v -0.33586800 -0.01093400 0.01637300
v -0.32826799 -0.02841600 -0.00136000
v -0.33528101 -0.02803700 0.01646300
v -0.32888699 -0.01067100 -0.00142200
v -0.33595201 0.00000000 0.01645100
v -0.32903701 0.00000000 -0.00138900
v -0.32573599 0.00000000 -0.00171600
v -0.32544801 -0.01071200 -0.00171500
v -0.32888699 -0.01067100 -0.00142200
v -0.32903701 0.00000000 -0.00138900
v -0.32826799 -0.02841600 -0.00136000
v -0.32488599 -0.02825000 -0.00171400
v -0.33360600 -0.05317200 0.01680300
v -0.32602599 -0.05690500 -0.00128500
v -0.32254201 -0.05633300 -0.00171200
v -0.32602599 -0.05690500 -0.00128500
v -0.31831700 -0.08849100 -0.00170700
v -0.32174301 -0.08885700 -0.00110100
v -0.31176600 -0.13175900 -0.00076700
v -0.30873200 -0.13100301 -0.00153800
v -0.31176600 -0.13175900 -0.00076700
v -0.33360600 0.05317200 0.01680300
v -0.33528101 0.02803700 0.01646300
v -0.33157599 0.04185600 0.02149400
v -0.33163300 0.02746700 0.02141700
v -0.33586800 0.01093400 0.01637300
v -0.33162799 0.01122000 0.02143200
v -0.33157501 0.04501000 0.05661800
v -0.34771201 0.06784700 0.06287400
v -0.33899099 0.06466700 0.03509900
v -0.33158299 0.04503400 0.03394900
v -0.34294099 0.10908500 0.06859400
v -0.33541200 0.08861600 0.03477900
v -0.34548101 0.08891000 0.06546400
v -0.32917801 0.12097700 0.03498800
v -0.34685099 0.10474400 0.07903100
v -0.34814101 0.08802300 0.07367400
v -0.33157700 0.04501100 0.06077700
v -0.34933901 0.06745100 0.06814400
v -0.34933901 0.06745100 0.06814400
v -0.34771201 0.06784700 0.06287400
v -0.35030600 0.08435900 0.07969400
v -0.35082400 0.09915300 0.08980000
v -0.35396600 0.09185200 0.09724400
v -0.35241601 0.07782900 0.08406300
v -0.35089299 0.06356000 0.07195300
v -0.33159301 0.04501300 0.06430900
v -0.35089299 0.06356000 0.07195300
v -0.35638401 0.07717400 0.09927400
v -0.35376400 0.07222100 0.08632900
v -0.35185501 0.05747200 0.07308700
v -0.33176899 0.04272200 0.06656300
v -0.35880199 0.06249600 0.10130400
v -0.35528800 0.06052000 0.08719000
v -0.35185501 0.05747200 0.07308700
v -0.35413700 0.02796900 0.07353700
v -0.33183801 0.02845100 0.06658300
v -0.36142901 0.02920100 0.10160500
v -0.35757300 0.02881900 0.08682000
v -0.35413700 0.02796900 0.07353700
v -0.35464901 0.01188000 0.07335500
v -0.33172601 0.01217000 0.06654700
v -0.35815200 0.01206000 0.08666600
v -0.36170900 0.01047600 0.10018600
v -0.36199501 0.01202100 0.10145900
v -0.35464901 0.01188000 0.07335500
v -0.33157399 0.04434300 0.02178600
v -0.33349699 0.05729800 0.01762700
v -0.33540800 0.06286600 0.02440700
v -0.33899099 0.06466700 0.03509900
v -0.33540800 0.06286600 0.02440700
v -0.33163300 0.04515400 0.02685500
v -0.33416301 0.06153600 0.02063700
v -0.33157799 0.04505500 0.02374700
v -0.32174301 0.08885700 -0.00110100
v -0.33349699 0.05729800 0.01762700
v -0.33416301 0.06153600 0.02063700
v -0.33586800 0.01093400 0.01637300
v -0.32826799 0.02841600 -0.00136000
v -0.32888699 0.01067100 -0.00142200
v -0.33528101 0.02803700 0.01646300
v -0.32888699 0.01067100 -0.00142200
v -0.32544801 0.01071200 -0.00171500
v -0.32826799 0.02841600 -0.00136000
v -0.32488599 0.02825000 -0.00171400
v -0.33360600 0.05317200 0.01680300
v -0.32602599 0.05690500 -0.00128500
v -0.32254201 0.05633300 -0.00171200
v -0.32602599 0.05690500 -0.00128500
v -0.31831700 0.08849100 -0.00170700
v -0.32174301 0.08885700 -0.00110100
v -0.31176600 0.13175900 -0.00076700
v -0.30873200 0.13100301 -0.00153800
v -0.31176600 0.13175900 -0.00076700
v -0.07119200 0.30057600 0.05251600
v -0.09962300 0.29143199 0.02610500
v -0.10249600 0.29844999 0.05293400
v -0.06921600 0.29372400 0.02677400
v -0.03689500 0.30194300 0.05242900
v -0.03515200 0.29494700 0.02644300
v 0.00018400 0.30238599 0.05212700
v 0.00133000 0.29547200 0.02684800
v 0.07664500 0.29230899 0.02417600
v 0.03778900 0.30175301 0.05133000
v 0.03767400 0.29986000 0.05225800
v 0.07669800 0.29157600 0.02490400
v 0.03778900 0.30175301 0.05133000
v 0.07664500 0.29230899 0.02417600
v 0.03827200 0.29484099 0.02660800
v -0.00152100 0.30858099 0.07880000
v -0.12524000 0.28857100 0.02570000
v -0.12586001 0.29575801 0.05199500
v -0.12586001 0.29575801 0.05199500
v -0.12524000 0.28857100 0.02570000
v -0.12602200 0.28995299 0.05144700
v -0.12556700 0.28318501 0.02507000
v -0.00152100 0.30858099 0.07880000
v -0.00195100 0.30501401 0.07951600
v -0.12615301 0.30294001 0.08317500
v -0.12574901 0.29914799 0.09589100
v -0.12574901 0.30592600 0.09589100
v -0.12642799 0.29649699 0.08306600
v -0.10468400 0.30497900 0.08248500
v -0.12574901 0.30592600 0.09589100
v -0.12325700 0.30713600 0.10230400
v -0.12615301 0.30294001 0.08317500
v -0.10622800 0.30941999 0.10593400
v -0.11738600 0.30831301 0.10559400
v -0.11738600 0.30285600 0.10559400
v -0.10622800 0.30460700 0.10593400
v -0.11738600 0.30831301 0.10559400
v -0.10622800 0.30941999 0.10593400
v -0.07377400 0.30705801 0.08166300
v -0.07622600 0.31139401 0.10504300
v -0.07680600 0.30647600 0.10520100
v -0.07622600 0.31139401 0.10504300
v -0.03805000 0.30843499 0.08114500
v -0.04269800 0.31258601 0.10338000
v -0.03488800 0.31240800 0.10110100
v -0.03488800 0.31240800 0.10110100
v -0.04269800 0.31258601 0.10338000
v -0.04210600 0.30803499 0.10358800
v -0.03537100 0.30781499 0.10142000
v -0.12325700 0.30713600 0.10230400
v -0.12325700 0.30126700 0.10230400
v -0.02901500 0.31189200 0.09747200
v -0.02923000 0.30739099 0.09788700
v -0.02901500 0.31189200 0.09747200
v 0.11216200 0.28150600 0.00040300
v 0.11216200 0.28150600 0.00040300
v 0.07682400 0.28453901 0.00053000
v 0.03817000 0.28660500 0.00109700
v 0.11212800 0.28070101 -0.00008100
v 0.07649400 0.28364599 -0.00008600
v 0.00289300 0.28712600 0.00067200
v 0.03813900 0.28552201 -0.00008100
v -0.03476300 0.28681499 0.00065600
v 0.00281700 0.28620300 -0.00007700
v -0.06984900 0.28527701 0.00041600
v -0.03465700 0.28596401 -0.00006300
v -0.09984100 0.28320399 0.00041900
v -0.06981100 0.28453699 -0.00006600
v -0.09981100 0.28242099 -0.00007400
v -0.12463700 0.28057301 0.00044400
v -0.12414100 0.27980500 -0.00008100
v -0.12463700 0.28057301 0.00044400
v -0.12469300 0.27597201 -0.00005500
v -0.07119200 -0.30057600 0.05251600
v -0.09962300 -0.29143199 0.02610500
v -0.06921600 -0.29372400 0.02677300
v -0.10249600 -0.29844999 0.05293400
v -0.03689500 -0.30194300 0.05242900
v -0.03515200 -0.29494700 0.02644300
v 0.00018400 -0.30238599 0.05212700
v 0.00133000 -0.29547200 0.02684800
v 0.03778900 -0.30175301 0.05133000
v 0.07664500 -0.29230899 0.02417600
v 0.03767400 -0.29986000 0.05225800
v 0.07669800 -0.29157600 0.02490400
v 0.03778900 -0.30175301 0.05133000
v 0.03827200 -0.29484099 0.02660800
v 0.07664500 -0.29230899 0.02417600
v -0.00152100 -0.30858099 0.07880000
v -0.12586001 -0.29575801 0.05199500
v -0.12524000 -0.28857100 0.02570000
v -0.12524000 -0.28857100 0.02570000
v -0.12586001 -0.29575801 0.05199500
v -0.12602200 -0.28995299 0.05144700
v -0.12556700 -0.28318501 0.02507000
v -0.00152100 -0.30858099 0.07880000
v -0.00195100 -0.30501401 0.07951600
v -0.12574901 -0.29914799 0.09589100
v -0.12615301 -0.30294001 0.08317500
v -0.12574901 -0.30592600 0.09589100
v -0.12642799 -0.29649699 0.08306600
v -0.10468400 -0.30497900 0.08248500
v -0.12325700 -0.30713600 0.10230400
v -0.12574901 -0.30592600 0.09589100
v -0.12615301 -0.30294001 0.08317500
v -0.11738600 -0.30831301 0.10559400
v -0.10622800 -0.30941999 0.10593400
v -0.10622800 -0.30460700 0.10593400
v -0.11738600 -0.30285600 0.10559400
v -0.11738600 -0.30831301 0.10559400
v -0.10622800 -0.30941999 0.10593400
v -0.07377400 -0.30705801 0.08166300
v -0.07622600 -0.31139401 0.10504300
v -0.07680600 -0.30647600 0.10520100
v -0.07622600 -0.31139401 0.10504300
v -0.03805000 -0.30843499 0.08114500
v -0.04269800 -0.31258601 0.10338000
v -0.03488800 -0.31240800 0.10110100
v -0.03537100 -0.30781499 0.10142000
v -0.04210600 -0.30803499 0.10358800
v -0.03488800 -0.31240800 0.10110100
v -0.04269800 -0.31258601 0.10338000
v -0.12325700 -0.30126700 0.10230400
v -0.12325700 -0.30713600 0.10230400
v -0.02901500 -0.31189200 0.09747200
v -0.02923000 -0.30739099 0.09788700
v -0.02901500 -0.31189200 0.09747200
v 0.11216200 -0.28150600 0.00040300
v 0.07682400 -0.28453901 0.00053000
v 0.11216200 -0.28150600 0.00040300
v 0.03817000 -0.28660500 0.00109700
v 0.11212800 -0.28070101 -0.00008100
v 0.07649400 -0.28364599 -0.00008700
v 0.00289300 -0.28712600 0.00067200
v 0.03813900 -0.28552201 -0.00008100
v -0.03476300 -0.28681499 0.00065600
v 0.00281700 -0.28620300 -0.00007700
v -0.06984900 -0.28527701 0.00041600
v -0.03465700 -0.28596401 -0.00006300
v -0.09984100 -0.28320399 0.00041900
v -0.06981100 -0.28453699 -0.00006600
v -0.09981100 -0.28242099 -0.00007400
v -0.12463700 -0.28057301 0.00044400
v -0.12414100 -0.27980500 -0.00008100
v -0.12463700 -0.28057301 0.00044400
v -0.12469300 -0.27597201 -0.00005500
f 1 2 3
f 4 5 6
f 7 8 9
f 8 7 10
f 11 9 12
f 9 11 7
f 1 13 14
f 13 1 15
f 14 2 1
f 2 14 16
f 17 5 18
f 18 5 4
f 12 17 11
f 17 12 5
f 18 19 17
f 19 18 20
f 20 21 19
f 21 20 22
f 14 23 16
f 23 14 24
f 22 24 21
f 24 22 23
f 14 25 26
f 25 14 13
f 24 26 27
f 26 24 14
f 21 27 28
f 27 21 24
f 17 29 30
f 29 17 19
f 19 28 29
f 28 19 21
f 31 32 33
f 32 31 34
f 35 34 31
f 34 35 36
f 37 33 32
f 32 38 37
f 39 40 38
f 37 38 40
f 41 31 42
f 31 41 35
f 37 43 33
f 42 33 43
f 33 42 31
f 44 45 46
f 43 45 42
f 44 42 45
f 42 44 41
f 37 47 43
f 47 37 40
f 43 48 45
f 48 43 47
f 48 46 45
f 46 48 49
f 11 30 50
f 30 11 17
f 50 7 11
f 7 50 51
f 50 52 53
f 52 50 30
f 53 54 55
f 54 53 52
f 55 56 57
f 56 55 54
f 57 58 59
f 58 57 56
f 60 58 61
f 58 60 59
f 62 61 63
f 61 62 60
f 64 63 65
f 63 64 62
f 66 36 35
f 36 66 65
f 67 65 66
f 65 67 64
f 35 41 68
f 68 66 35
f 69 66 68
f 66 69 67
f 70 41 44
f 41 70 68
f 71 68 70
f 68 71 69
f 44 46 70
f 46 72 70
f 73 74 55
f 53 55 74
f 74 51 53
f 50 53 51
f 74 75 51
f 75 74 76
f 77 78 79
f 51 10 7
f 10 51 75
f 80 75 76
f 73 76 74
f 76 73 77
f 79 76 77
f 76 79 80
f 81 73 57
f 55 57 73
f 82 81 59
f 57 59 81
f 83 82 60
f 59 60 82
f 84 83 62
f 60 62 83
f 85 84 64
f 62 64 84
f 86 64 67
f 64 86 85
f 87 67 69
f 67 87 86
f 88 69 71
f 69 88 87
f 73 81 77
f 81 89 77
f 81 82 89
f 82 90 89
f 82 83 90
f 83 91 90
f 83 84 91
f 84 92 91
f 84 85 92
f 85 93 92
f 85 86 93
f 86 94 93
f 86 87 94
f 87 95 94
f 87 88 95
f 88 96 95
f 78 77 97
f 78 97 98
f 89 97 77
f 97 89 99
f 89 90 99
f 90 100 99
f 91 100 90
f 100 91 101
f 91 92 101
f 92 102 101
f 93 102 92
f 102 93 103
f 93 94 103
f 94 104 103
f 95 104 94
f 104 95 105
f 95 96 105
f 96 106 105
f 96 107 108
f 96 108 106
f 72 46 49
f 72 49 109
f 107 110 111
f 107 88 112
f 88 107 96
f 112 110 107
f 113 110 112
f 110 113 114
f 115 71 72
f 70 72 71
f 112 88 115
f 71 115 88
f 116 112 115
f 112 116 113
f 115 109 116
f 109 115 72
f 117 107 111
f 107 117 108
f 111 114 118
f 114 111 110
f 119 111 120
f 111 119 117
f 120 118 121
f 118 120 111
f 122 120 123
f 120 122 119
f 124 123 125
f 125 126 124
f 123 121 125
f 121 123 120
f 123 124 127
f 123 127 122
f 128 129 130
f 131 132 133
f 134 135 136
f 135 134 137
f 136 138 139
f 138 136 135
f 128 140 141
f 140 128 142
f 143 142 130
f 142 128 130
f 133 144 131
f 133 145 144
f 145 133 139
f 145 139 138
f 144 146 147
f 146 144 145
f 147 148 149
f 148 147 146
f 142 150 151
f 150 142 143
f 149 151 150
f 151 149 148
f 152 140 142
f 152 142 153
f 153 151 154
f 151 153 142
f 154 151 148
f 154 148 155
f 145 156 146
f 156 145 157
f 155 148 146
f 155 146 156
f 158 159 160
f 159 158 161
f 158 162 161
f 162 158 163
f 159 164 165
f 164 159 161
f 161 166 164
f 166 161 162
f 165 167 168
f 167 165 164
f 164 169 167
f 169 164 166
f 168 170 171
f 170 168 167
f 172 167 169
f 167 172 170
f 173 154 174
f 154 173 153
f 155 174 154
f 174 155 175
f 160 176 177
f 177 158 160
f 176 178 179
f 179 177 176
f 175 178 174
f 178 175 179
f 175 156 180
f 156 175 155
f 158 177 181
f 181 163 158
f 180 179 175
f 179 180 182
f 177 182 181
f 182 177 179
f 153 183 152
f 183 153 173
f 184 168 185
f 168 171 185
f 186 187 184
f 184 185 186
f 188 165 184
f 165 168 184
f 187 189 188
f 188 184 187
f 190 159 188
f 159 165 188
f 189 191 190
f 190 188 189
f 192 160 190
f 160 159 190
f 193 190 191
f 190 193 192
f 192 194 176
f 176 160 192
f 195 192 193
f 192 195 194
f 173 196 183
f 196 173 197
f 174 197 173
f 197 174 178
f 194 197 178
f 178 176 194
f 195 196 197
f 195 197 194
f 198 170 172
f 170 198 199
f 185 171 200
f 199 171 170
f 171 199 200
f 201 202 203
f 200 199 203
f 201 199 198
f 199 201 203
f 185 204 186
f 204 185 200
f 200 205 204
f 205 200 203
f 203 206 205
f 206 203 202
f 157 138 207
f 138 157 145
f 207 135 208
f 135 207 138
f 180 157 209
f 157 180 156
f 207 209 157
f 209 207 210
f 209 182 180
f 182 209 211
f 210 211 209
f 211 210 212
f 211 181 182
f 181 211 213
f 212 213 211
f 213 212 214
f 213 163 181
f 163 213 215
f 214 215 213
f 215 214 216
f 163 217 162
f 217 163 215
f 215 218 217
f 218 215 216
f 162 219 166
f 219 162 217
f 217 220 219
f 220 217 218
f 166 221 169
f 221 166 219
f 222 219 220
f 219 222 221
f 223 169 221
f 169 223 172
f 224 221 222
f 221 224 223
f 223 225 172
f 225 198 172
f 226 223 224
f 223 226 225
f 227 198 225
f 198 227 201
f 228 225 226
f 225 228 227
f 227 229 202
f 227 202 201
f 212 210 230
f 212 230 231
f 210 207 208
f 210 208 230
f 230 232 233
f 232 230 208
f 234 235 236
f 208 137 232
f 137 208 135
f 237 233 232
f 231 233 234
f 233 231 230
f 235 233 237
f 233 235 234
f 214 212 231
f 214 231 238
f 216 214 238
f 216 238 239
f 218 216 239
f 218 239 240
f 220 218 240
f 220 240 241
f 222 220 241
f 222 241 242
f 222 243 224
f 243 222 242
f 224 244 226
f 244 224 243
f 226 245 228
f 245 226 244
f 231 234 238
f 238 234 246
f 238 246 239
f 239 246 247
f 239 247 240
f 240 247 248
f 240 248 241
f 241 248 249
f 241 249 242
f 242 249 250
f 242 250 243
f 243 250 251
f 243 251 244
f 244 251 252
f 244 252 245
f 245 252 253
f 236 254 234
f 254 236 255
f 246 254 256
f 254 246 234
f 246 256 247
f 247 256 257
f 248 257 258
f 257 248 247
f 248 258 249
f 249 258 259
f 259 250 249
f 250 259 260
f 250 260 251
f 251 260 261
f 252 261 262
f 261 252 251
f 252 262 253
f 253 262 263
f 253 264 265
f 264 253 263
f 202 229 206
f 266 206 229
f 265 267 268
f 245 265 269
f 265 245 253
f 269 265 268
f 268 270 269
f 270 268 271
f 228 272 229
f 229 227 228
f 272 228 245
f 272 245 269
f 269 273 272
f 273 269 270
f 266 272 273
f 272 266 229
f 265 274 267
f 274 265 264
f 267 271 268
f 271 267 275
f 267 276 277
f 276 267 274
f 277 275 267
f 275 277 278
f 277 279 280
f 279 277 276
f 126 281 124
f 124 281 280
f 280 278 277
f 278 280 281
f 280 127 124
f 127 280 279
f 282 283 284
f 283 282 285
f 65 286 36
f 286 65 63
f 284 39 38
f 39 284 283
f 287 38 32
f 38 287 284
f 34 287 32
f 287 34 288
f 36 288 34
f 288 36 286
f 63 289 286
f 289 63 61
f 290 291 292
f 291 290 293
f 294 293 290
f 293 294 295
f 296 295 294
f 295 296 297
f 298 296 299
f 296 298 297
f 299 300 298
f 300 299 301
f 300 302 303
f 302 300 301
f 304 303 302
f 304 302 305
f 306 304 305
f 304 306 307
f 308 307 306
f 307 308 309
f 310 309 308
f 309 310 311
f 312 311 310
f 311 312 313
f 314 313 312
f 313 314 315
f 314 316 315
f 316 314 317
f 317 318 316
f 318 317 319
f 318 320 321
f 320 318 319
f 322 321 320
f 321 322 323
f 322 324 325
f 325 323 322
f 324 326 327
f 327 325 324
f 328 326 329
f 326 328 327
f 330 329 331
f 329 330 328
f 331 332 330
f 332 331 333
f 332 334 335
f 334 332 333
f 335 336 337
f 336 335 334
f 337 292 291
f 292 337 336
f 293 338 291
f 338 339 291
f 293 295 340
f 340 338 293
f 341 295 297
f 295 341 340
f 297 342 341
f 342 297 298
f 298 343 342
f 343 298 300
f 300 344 343
f 344 300 303
f 345 344 303
f 345 303 304
f 307 345 304
f 345 307 346
f 309 346 307
f 346 309 347
f 311 347 309
f 347 311 348
f 349 311 313
f 311 349 348
f 350 313 315
f 313 350 349
f 315 351 350
f 351 315 316
f 316 352 351
f 352 316 318
f 353 318 321
f 318 353 352
f 321 323 354
f 354 353 321
f 323 325 355
f 355 354 323
f 327 355 325
f 355 327 356
f 327 328 357
f 327 357 356
f 330 357 328
f 357 330 358
f 332 358 330
f 358 332 359
f 337 360 361
f 361 335 337
f 291 339 360
f 291 360 337
f 359 335 361
f 335 359 332
f 349 362 348
f 362 349 363
f 363 350 364
f 350 363 349
f 365 288 286
f 288 365 366
f 365 286 289
f 364 351 367
f 351 364 350
f 366 287 288
f 287 366 368
f 351 369 367
f 369 351 352
f 370 282 284
f 348 371 347
f 371 348 362
f 61 58 372
f 61 372 289
f 282 373 374
f 282 374 285
f 375 376 377
f 376 375 378
f 28 379 380
f 379 28 27
f 30 381 52
f 381 30 29
f 29 380 381
f 380 29 28
f 58 56 382
f 58 382 372
f 52 383 54
f 383 52 381
f 54 382 56
f 382 54 383
f 384 369 352
f 384 352 353
f 26 385 386
f 385 26 25
f 379 27 26
f 379 26 386
f 385 378 386
f 375 386 378
f 387 361 388
f 361 387 359
f 388 360 389
f 360 388 361
f 338 340 390
f 390 391 338
f 341 392 340
f 390 340 392
f 357 393 356
f 393 357 394
f 358 394 357
f 394 358 395
f 341 396 392
f 396 341 342
f 397 396 342
f 397 342 343
f 398 399 400
f 399 398 401
f 289 398 402
f 289 402 365
f 365 402 403
f 365 403 366
f 402 400 404
f 400 402 398
f 405 402 404
f 402 405 403
f 366 406 368
f 406 366 403
f 406 403 407
f 403 405 407
f 408 406 409
f 406 407 409
f 373 377 376
f 373 376 374
f 373 282 370
f 368 284 287
f 370 284 368
f 368 408 370
f 408 368 406
f 354 384 353
f 384 354 410
f 373 370 411
f 411 370 408
f 412 413 411
f 408 412 411
f 412 408 409
f 414 415 416
f 417 415 414
f 418 419 420
f 421 422 423
f 421 424 425
f 423 424 421
f 383 423 426
f 423 383 381
f 289 372 398
f 401 398 372
f 355 410 354
f 410 355 427
f 411 428 415
f 428 411 413
f 356 427 355
f 427 356 393
f 428 416 415
f 377 411 415
f 411 377 373
f 429 346 430
f 346 429 345
f 431 432 433
f 347 430 346
f 430 347 371
f 399 431 433
f 431 399 401
f 372 382 401
f 431 401 382
f 397 343 434
f 434 343 344
f 426 435 436
f 429 434 344
f 429 344 345
f 431 436 432
f 436 431 426
f 437 435 426
f 382 383 431
f 426 431 383
f 426 422 437
f 422 426 423
f 379 418 438
f 418 379 386
f 420 438 418
f 438 420 439
f 391 339 338
f 339 391 440
f 339 440 389
f 389 360 339
f 441 425 424
f 438 439 441
f 424 438 441
f 380 379 424
f 424 379 438
f 381 380 423
f 424 423 380
f 359 395 358
f 395 359 387
f 417 442 419
f 419 418 417
f 417 418 375
f 418 386 375
f 375 377 417
f 415 417 377
f 414 442 417
f 443 444 445
f 445 446 443
f 446 447 448
f 446 448 443
f 449 448 447
f 448 449 450
f 451 452 453
f 452 451 454
f 455 456 457
f 456 455 458
f 457 459 460
f 459 457 456
f 451 453 461
f 462 461 453
f 463 457 464
f 460 464 457
f 465 466 460
f 460 459 465
f 464 460 466
f 466 467 468
f 467 466 465
f 461 469 470
f 469 461 462
f 464 468 471
f 468 464 466
f 467 472 468
f 468 472 473
f 471 468 473
f 470 474 475
f 474 470 469
f 476 473 472
f 473 476 477
f 477 471 473
f 471 477 478
f 475 479 480
f 479 475 474
f 481 477 476
f 477 481 482
f 482 478 477
f 478 482 483
f 479 484 480
f 484 479 485
f 484 485 486
f 484 486 487
f 488 489 490
f 491 492 490
f 490 492 488
f 489 482 481
f 482 489 488
f 488 483 482
f 483 488 493
f 488 492 493
f 492 494 493
f 495 496 444
f 445 444 496
f 455 497 498
f 463 455 457
f 455 463 497
f 454 499 452
f 499 454 500
f 501 502 500
f 499 500 502
f 503 455 498
f 503 504 505
f 502 501 495
f 495 501 496
f 506 507 508
f 507 506 509
f 510 509 506
f 509 510 511
f 512 513 514
f 514 515 512
f 516 513 517
f 513 516 514
f 508 507 518
f 518 507 519
f 505 518 519
f 520 516 517
f 516 520 521
f 505 519 503
f 498 504 503
f 522 521 520
f 521 522 523
f 503 458 455
f 458 503 524
f 522 525 526
f 526 523 522
f 527 528 529
f 530 529 528
f 530 531 532
f 531 530 528
f 531 449 532
f 449 531 450
f 533 534 535
f 533 535 536
f 537 538 539
f 538 537 540
f 541 539 542
f 539 541 537
f 534 533 543
f 543 544 534
f 545 542 539
f 545 539 546
f 547 548 542
f 542 548 541
f 545 547 542
f 547 549 548
f 549 547 550
f 543 551 544
f 551 543 552
f 545 550 547
f 550 545 553
f 549 550 554
f 550 555 554
f 553 555 550
f 552 556 551
f 556 552 557
f 558 554 555
f 558 555 559
f 553 559 555
f 559 553 560
f 561 557 562
f 557 561 556
f 563 558 559
f 563 559 564
f 564 560 565
f 560 564 559
f 566 561 567
f 567 561 562
f 566 567 486
f 487 486 567
f 568 569 570
f 491 569 492
f 569 568 492
f 570 563 564
f 570 564 568
f 568 565 571
f 565 568 564
f 568 571 492
f 492 571 494
f 527 529 572
f 572 573 527
f 538 574 575
f 546 538 575
f 538 546 539
f 536 535 576
f 536 576 577
f 578 577 576
f 577 578 579
f 580 574 538
f 580 581 582
f 579 578 573
f 573 572 579
f 583 584 585
f 584 583 586
f 510 585 511
f 585 510 583
f 515 587 512
f 512 587 588
f 588 589 590
f 589 588 587
f 586 591 584
f 591 592 584
f 581 592 591
f 589 593 590
f 593 589 594
f 581 580 592
f 574 580 582
f 595 594 596
f 594 595 593
f 540 580 538
f 580 540 597
f 598 595 599
f 596 599 595
f 600 601 602
f 601 600 603
f 604 603 600
f 603 604 605
f 606 605 604
f 605 606 607
f 608 609 610
f 608 610 611
f 612 613 614
f 606 612 607
f 612 614 607
f 615 612 606
f 602 616 617
f 616 602 601
f 618 619 620
f 620 619 621
f 609 622 623
f 609 623 610
f 624 625 626
f 625 624 627
f 620 627 618
f 624 618 627
f 628 629 630
f 629 628 631
f 631 628 617
f 628 602 617
f 632 628 633
f 628 630 633
f 634 635 636
f 637 636 635
f 638 602 628
f 602 638 600
f 639 628 632
f 628 639 638
f 637 640 641
f 640 637 635
f 642 600 638
f 600 642 604
f 643 644 642
f 645 646 647
f 645 647 648
f 640 647 641
f 646 641 647
f 636 649 634
f 649 650 634
f 650 649 626
f 626 625 650
f 643 638 639
f 638 643 642
f 642 615 604
f 615 606 604
f 651 615 642
f 642 644 651
f 652 622 653
f 622 652 623
f 653 648 652
f 648 653 645
f 608 611 654
f 613 655 656
f 613 657 614
f 657 613 656
f 656 658 659
f 658 656 655
f 614 660 607
f 660 614 657
f 657 659 661
f 659 657 656
f 607 662 605
f 662 607 660
f 660 661 663
f 661 660 657
f 662 603 605
f 603 662 664
f 662 660 665
f 663 665 660
f 603 664 601
f 601 664 666
f 664 662 667
f 665 667 662
f 666 667 668
f 667 666 664
f 601 669 616
f 669 601 666
f 670 666 668
f 666 670 669
f 671 621 619
f 621 671 672
f 673 674 675
f 674 673 676
f 677 675 678
f 675 677 673
f 679 678 680
f 678 679 677
f 681 682 683
f 684 683 682
f 685 686 687
f 679 680 685
f 685 680 686
f 688 679 685
f 676 689 690
f 676 690 674
f 691 692 693
f 693 694 691
f 695 681 696
f 683 696 681
f 697 698 699
f 698 697 700
f 700 692 698
f 692 700 693
f 701 702 703
f 701 703 704
f 704 689 701
f 701 689 676
f 705 701 706
f 702 701 705
f 707 708 709
f 707 709 710
f 711 676 673
f 676 711 701
f 712 701 711
f 701 712 706
f 713 710 714
f 710 713 707
f 715 673 677
f 673 715 711
f 716 715 717
f 718 719 720
f 719 721 720
f 719 713 714
f 719 714 721
f 708 722 723
f 708 723 709
f 722 699 723
f 699 722 697
f 711 716 712
f 716 711 715
f 715 677 688
f 688 677 679
f 724 715 688
f 715 724 717
f 725 695 696
f 695 725 726
f 718 726 725
f 726 718 720
f 682 727 684
f 687 728 729
f 687 686 730
f 687 730 728
f 728 731 729
f 731 728 732
f 686 733 730
f 733 686 680
f 730 732 728
f 732 730 734
f 680 735 733
f 735 680 678
f 733 734 730
f 734 733 736
f 678 675 735
f 675 737 735
f 733 735 738
f 733 738 736
f 675 674 737
f 674 739 737
f 735 737 740
f 735 740 738
f 739 740 737
f 740 739 741
f 674 742 739
f 742 674 690
f 743 739 742
f 739 743 741
f 694 744 691
f 744 694 745

