# https://github.com/mikedh/trimesh
v -0.02571147 0.08809989 0.40079269
v -0.02644354 0.08809989 0.40166521
v -0.03151422 0.08809989 0.39659449
v -0.03064173 0.08809989 0.39586249
v -0.03562730 0.08809989 0.39072040
v -0.03064173 0.08809989 0.39586249
v -0.01999998 0.08809989 0.40479201
v -0.02056944 0.08809989 0.40577829
v -0.03464096 0.08809989 0.39015099
v -0.03865790 0.08809989 0.38422129
v -0.01368075 0.08809989 0.40773869
v -0.01407033 0.08809989 0.40880889
v -0.03758770 0.08809989 0.38383171
v -0.04051387 0.08809989 0.37729469
v -0.00694591 0.08809989 0.40954331
v -0.00714368 0.08809989 0.41066489
v -0.03939229 0.08809989 0.37709689
v -0.04113888 0.08809989 0.37015101
v 0.00000000 0.08809989 0.41015100
v 0.00000000 0.08809989 0.41128990
v -0.03999996 0.08809989 0.37015101
v -0.04051387 0.08809989 0.36300731
v 0.00694591 0.08809989 0.40954331
v 0.00714368 0.08809989 0.41066489
v -0.03939229 0.08809989 0.36320499
v -0.03865790 0.08809989 0.35608059
v 0.01368075 0.08809989 0.40773869
v 0.01407033 0.08809989 0.40880889
v -0.03758770 0.08809989 0.35647020
v -0.03562730 0.08809989 0.34958151
v 0.01999998 0.08809989 0.40479201
v 0.02056944 0.08809989 0.40577829
v 0.01407033 0.08809989 0.40880889
v -0.03464096 0.08809989 0.35015100
v -0.03151422 0.08809989 0.34370741
v 0.02571147 0.08809989 0.40079269
v 0.02644354 0.08809989 0.40166521
v -0.03064173 0.08809989 0.34443951
v 0.03064173 0.08809989 0.39586249
v -0.02644354 0.08809989 0.33863670
v -0.03151422 0.08809989 0.34370741
v -0.02571147 0.08809989 0.33950919
v 0.03151422 0.08809989 0.39659449
v 0.03464096 0.08809989 0.39015099
v -0.02056944 0.08809989 0.33452359
v -0.02644354 0.08809989 0.33863670
v -0.02056944 0.08809989 0.33452359
v -0.01999998 0.08809989 0.33550999
v 0.03562730 0.08809989 0.39072040
v 0.03151422 0.08809989 0.39659449
v 0.03464096 0.08809989 0.39015099
v 0.03758770 0.08809989 0.38383171
v 0.03562730 0.08809989 0.39072040
v -0.01407033 0.08809989 0.33149299
v -0.01368075 0.08809989 0.33256331
v 0.03865790 0.08809989 0.38422129
v 0.03758770 0.08809989 0.38383171
v 0.03939229 0.08809989 0.37709689
v -0.00714368 0.08809989 0.32963711
v -0.00694591 0.08809989 0.33075860
v 0.04051387 0.08809989 0.37729469
v 0.03865790 0.08809989 0.38422129
v 0.03999996 0.08809989 0.37015101
v 0.00000000 0.08809989 0.32901201
v 0.00000000 0.08809989 0.33015099
v 0.04113888 0.08809989 0.37015101
v 0.03939229 0.08809989 0.36320499
v 0.00714368 0.08809989 0.32963711
v 0.00694591 0.08809989 0.33075860
v 0.04051387 0.08809989 0.36300731
v 0.03758770 0.08809989 0.35647020
v 0.01407033 0.08809989 0.33149299
v 0.01368075 0.08809989 0.33256331
v 0.03865790 0.08809989 0.35608059
v 0.03464096 0.08809989 0.35015100
v 0.02056944 0.08809989 0.33452359
v 0.01999998 0.08809989 0.33550999
v 0.03562730 0.08809989 0.34958151
v 0.03865790 0.08809989 0.35608059
v 0.03464096 0.08809989 0.35015100
v 0.03064173 0.08809989 0.34443951
v 0.03562730 0.08809989 0.34958151
v 0.02644354 0.08809989 0.33863670
v 0.02571147 0.08809989 0.33950919
v 0.03151422 0.08809989 0.34370741
v -0.00694591 0.07659989 0.40954331
v 0.00000000 0.07659989 0.41015100
v 0.00000000 0.08809989 0.41015100
v -0.00694591 0.08809989 0.40954331
v -0.01368075 0.07659989 0.40773869
v -0.01368075 0.08809989 0.40773869
v -0.01999998 0.07659989 0.40479201
v -0.01999998 0.08809989 0.40479201
v -0.02571147 0.07659989 0.40079269
v -0.02571147 0.08809989 0.40079269
v -0.03064173 0.07659989 0.39586249
v -0.03064173 0.08809989 0.39586249
v -0.03464096 0.07659989 0.39015099
v -0.03464096 0.08809989 0.39015099
v -0.03758770 0.07659989 0.38383171
v -0.03758770 0.08809989 0.38383171
v -0.03939229 0.07659989 0.37709689
v -0.03939229 0.08809989 0.37709689
v -0.03999996 0.07659989 0.37015101
v -0.03999996 0.08809989 0.37015101
v -0.03939229 0.07659989 0.36320499
v -0.03939229 0.08809989 0.36320499
v -0.03758770 0.07659989 0.35647020
v -0.03758770 0.08809989 0.35647020
v -0.03464096 0.07659989 0.35015100
v -0.03464096 0.08809989 0.35015100
v -0.03064173 0.07659989 0.34443951
v -0.03064173 0.08809989 0.34443951
v -0.02571147 0.07659989 0.33950919
v -0.02571147 0.08809989 0.33950919
v -0.01999998 0.07659989 0.33550999
v -0.01999998 0.08809989 0.33550999
v -0.01368075 0.07659989 0.33256331
v -0.01368075 0.08809989 0.33256331
v -0.00694591 0.07659989 0.33075860
v -0.00694591 0.08809989 0.33075860
v 0.00000000 0.07659989 0.33015099
v 0.00000000 0.08809989 0.33015099
v 0.00694591 0.07659989 0.33075860
v 0.00694591 0.08809989 0.33075860
v 0.01368075 0.07659989 0.33256331
v 0.01368075 0.08809989 0.33256331
v 0.01999998 0.07659989 0.33550999
v 0.01999998 0.08809989 0.33550999
v 0.02571147 0.07659989 0.33950919
v 0.02571147 0.08809989 0.33950919
v 0.03064173 0.07659989 0.34443951
v 0.03064173 0.08809989 0.34443951
v 0.03464096 0.07659989 0.35015100
v 0.03464096 0.08809989 0.35015100
v 0.03758770 0.07659989 0.35647020
v 0.03758770 0.08809989 0.35647020
v 0.03939229 0.07659989 0.36320499
v 0.03939229 0.08809989 0.36320499
v 0.03999996 0.07659989 0.37015101
v 0.03999996 0.08809989 0.37015101
v 0.03939229 0.07659989 0.37709689
v 0.03939229 0.08809989 0.37709689
v 0.03758770 0.07659989 0.38383171
v 0.03758770 0.08809989 0.38383171
v 0.03464096 0.07659989 0.39015099
v 0.03464096 0.08809989 0.39015099
v 0.03064173 0.08809989 0.39586249
v 0.03064173 0.07659989 0.39586249
v 0.02571147 0.07659989 0.40079269
v 0.02571147 0.08809989 0.40079269
v 0.01999998 0.07659989 0.40479201
v 0.01999998 0.08809989 0.40479201
v 0.01368075 0.07659989 0.40773869
v 0.01368075 0.08809989 0.40773869
v 0.00694591 0.07659989 0.40954331
v 0.00694591 0.08809989 0.40954331
v 0.00000000 0.07659989 0.41015100
v 0.00000000 0.08809989 0.41015100
v -0.03464096 0.07659989 0.39015099
v -0.02571147 0.07659989 0.40079269
v -0.03064173 0.07659989 0.39586249
v -0.01368075 0.07659989 0.40773869
v -0.01999998 0.07659989 0.40479201
v -0.03939229 0.07659989 0.37709689
v -0.03758770 0.07659989 0.38383171
v 0.00000000 0.07659989 0.41015100
v -0.00694591 0.07659989 0.40954331
v -0.03939229 0.07659989 0.36320499
v -0.03939229 0.07659989 0.37709689
v -0.03999996 0.07659989 0.37015101
v -0.03758770 0.07659989 0.35647020
v -0.03939229 0.07659989 0.36320499
v -0.03758770 0.07659989 0.35647020
v -0.03939229 0.07659989 0.37709689
v 0.01368075 0.07659989 0.40773869
v 0.00694591 0.07659989 0.40954331
v -0.03064173 0.07659989 0.34443951
v -0.03464096 0.07659989 0.35015100
v 0.02571147 0.07659989 0.40079269
v 0.01999998 0.07659989 0.40479201
v -0.02571147 0.07659989 0.33950919
v 0.03064173 0.07659989 0.39586249
v 0.03758770 0.07659989 0.38383171
v 0.03464096 0.07659989 0.39015099
v -0.00694591 0.07659989 0.33075860
v -0.01999998 0.07659989 0.33550999
v -0.01368075 0.07659989 0.33256331
v 0.00000000 0.07659989 0.33015099
v 0.03999996 0.07659989 0.37015101
v 0.03939229 0.07659989 0.37709689
v 0.00694591 0.07659989 0.33075860
v 0.03939229 0.07659989 0.36320499
v 0.03464096 0.07659989 0.35015100
v 0.03758770 0.07659989 0.35647020
v 0.02571147 0.07659989 0.33950919
v 0.01368075 0.07659989 0.33256331
v 0.02571147 0.07659989 0.33950919
v 0.01368075 0.07659989 0.33256331
v 0.01999998 0.07659989 0.33550999
v 0.03064173 0.07659989 0.34443951
v -0.00050000 0.09109991 0.32515371
v -0.00049039 0.09119743 0.32535091
v -0.00050000 0.09109991 0.32535091
v -0.00046490 0.09128391 0.32515341
v -0.00046194 0.09129124 0.32535091
v -0.00041574 0.09137767 0.32535091
v -0.00036395 0.09144270 0.32515249
v -0.00035355 0.09145343 0.32535091
v -0.00027778 0.09151560 0.32535091
v -0.00021298 0.09155225 0.32515150
v -0.00019134 0.09156185 0.32535091
v -0.00010426 0.09158873 0.32515109
v -0.00009755 0.09159028 0.32535091
v 0.00000000 0.09159988 0.32535091
v 0.00002841 0.09159904 0.32515100
v 0.00009755 0.09159028 0.32535091
v 0.00018753 0.09156340 0.32515129
v 0.00019134 0.09156185 0.32535091
v 0.00027778 0.09151560 0.32535091
v 0.00035024 0.09145671 0.32515231
v 0.00035355 0.09145343 0.32535091
v 0.00041686 0.09137576 0.32515290
v 0.00041574 0.09137767 0.32535091
v 0.00046194 0.09129124 0.32535091
v 0.00046996 0.09127050 0.32515341
v 0.00049039 0.09119743 0.32535091
v 0.00050000 0.09109991 0.32515371
v 0.00050000 0.09109991 0.32535091
v -0.00050000 0.09109991 0.32535091
v -0.00050000 0.08809989 0.32515371
v -0.00050000 0.09109991 0.32515371
v -0.00050000 0.08809989 0.32535091
v 0.00050000 0.08809989 0.32535091
v 0.00050000 0.09109991 0.32515371
v 0.00050000 0.08809989 0.32515371
v 0.00050000 0.09109991 0.32535091
v -0.00050000 0.09109991 0.32535091
v -0.00049039 0.09119743 0.32535091
v -0.00046194 0.09129124 0.32535091
v -0.00050000 0.09109991 0.32535091
v -0.00046194 0.09129124 0.32535091
v -0.00041574 0.09137767 0.32535091
v -0.00035355 0.09145343 0.32535091
v -0.00050000 0.09109991 0.32535091
v -0.00035355 0.09145343 0.32535091
v -0.00027778 0.09151560 0.32535091
v -0.00050000 0.09109991 0.32535091
v -0.00027778 0.09151560 0.32535091
v -0.00019134 0.09156185 0.32535091
v -0.00050000 0.09109991 0.32535091
v -0.00019134 0.09156185 0.32535091
v -0.00009755 0.09159028 0.32535091
v -0.00050000 0.09109991 0.32535091
v -0.00009755 0.09159028 0.32535091
v 0.00000000 0.09159988 0.32535091
v 0.00009755 0.09159028 0.32535091
v -0.00050000 0.09109991 0.32535091
v 0.00000000 0.09159988 0.32535091
v 0.00019134 0.09156185 0.32535091
v -0.00050000 0.09109991 0.32535091
v 0.00009755 0.09159028 0.32535091
v 0.00027778 0.09151560 0.32535091
v 0.00019134 0.09156185 0.32535091
v 0.00035355 0.09145343 0.32535091
v 0.00041574 0.09137767 0.32535091
v -0.00050000 0.09109991 0.32535091
v 0.00035355 0.09145343 0.32535091
v 0.00046194 0.09129124 0.32535091
v 0.00041574 0.09137767 0.32535091
v 0.00049039 0.09119743 0.32535091
v 0.00050000 0.09109991 0.32535091
v 0.00050000 0.08809989 0.32535091
v -0.00050000 0.08809989 0.32535091
v 0.00000000 0.10339990 0.41515100
v 0.00041686 0.09137576 0.41514900
v 0.00046996 0.09127050 0.41514850
v 0.00030736 0.09149414 0.41514990
v 0.00016131 0.09157311 0.41515070
v 0.00000000 0.09159988 0.41515100
v 0.00446826 0.10362230 0.41492859
v 0.00050000 0.09109991 0.41514820
v 0.00050000 0.08809989 0.41514820
v 0.00825143 0.08809989 0.41438800
v 0.00889242 0.10428730 0.41426361
v 0.01393580 0.10561210 0.41293871
v 0.01575577 0.08809989 0.41230261
v 0.01931720 0.10775700 0.41079390
v 0.02278804 0.08809989 0.40895441
v 0.02491742 0.11092820 0.40762261
v 0.02913767 0.08809989 0.40444380
v 0.03038996 0.11521180 0.40333900
v 0.03461438 0.08809989 0.39890581
v 0.03613376 0.12157920 0.39697170
v 0.03905421 0.08809989 0.39250651
v 0.04056543 0.12892060 0.38963020
v 0.04232400 0.08809989 0.38543740
v 0.04375660 0.13789479 0.38065600
v 0.04432594 0.08809989 0.37791041
v 0.04499995 0.09854990 0.37015101
v 0.04499995 0.08809989 0.37015101
v 0.04441070 0.09778040 0.36289251
v 0.04432594 0.08809989 0.36239150
v 0.04499995 0.14839990 0.37015101
v 0.04265385 0.09704846 0.35581061
v 0.04232400 0.08809989 0.35486451
v 0.03978955 0.09638953 0.34913221
v 0.03905421 0.08809989 0.34779540
v 0.03587114 0.09581917 0.34298000
v 0.03461438 0.08809989 0.34139609
v 0.03101348 0.09534955 0.33754480
v 0.02913767 0.08809989 0.33585820
v 0.02533388 0.09498006 0.33295971
v 0.02278804 0.08809989 0.33134750
v 0.01898044 0.09470665 0.32934970
v 0.01575577 0.08809989 0.32799941
v 0.01213419 0.09452402 0.32681781
v 0.00825143 0.08809989 0.32591400
v 0.00492924 0.09442645 0.32542181
v 0.00050000 0.08809989 0.32515371
v 0.00050000 0.09109991 0.32515371
v 0.00046996 0.09127050 0.32515341
v 0.00041686 0.09137576 0.32515290
v 0.00035024 0.09145671 0.32515231
v 0.00018753 0.09156340 0.32515129
v -0.00241256 0.09441220 0.32521570
v 0.00002841 0.09159904 0.32515100
v -0.00010426 0.09158873 0.32515109
v -0.00021298 0.09155225 0.32515150
v -0.00036395 0.09144270 0.32515249
v -0.00046490 0.09128391 0.32515341
v -0.00050000 0.09109991 0.32515371
v -0.00050000 0.08809989 0.32515371
v -0.00825143 0.08809989 0.32591400
v -0.00963342 0.09448003 0.32619420
v -0.01575577 0.08809989 0.32799941
v -0.01664096 0.09463286 0.32834101
v -0.02278804 0.08809989 0.33134750
v -0.02317076 0.09487330 0.33157489
v -0.02913767 0.08809989 0.33585820
v -0.02911746 0.09520941 0.33584100
v -0.03427040 0.09564328 0.34098700
v -0.03461438 0.08809989 0.34139609
v -0.03853571 0.09617948 0.34691310
v -0.03905421 0.08809989 0.34779540
v -0.04177618 0.09680867 0.35342529
v -0.04232400 0.08809989 0.35486451
v -0.04392641 0.09751713 0.36038050
v -0.04432594 0.08809989 0.36239150
v -0.04473090 0.09802901 0.36523741
v -0.04499995 0.08809989 0.37015101
v -0.04499995 0.09854990 0.37015101
v -0.04432594 0.08809989 0.37791041
v -0.04429918 0.14048910 0.37806180
v -0.04499995 0.14839990 0.37015101
v -0.04221856 0.13282460 0.38572621
v -0.04232400 0.08809989 0.38543740
v -0.03926229 0.12641190 0.39213890
v -0.03905421 0.08809989 0.39250651
v -0.03640574 0.12194960 0.39660129
v -0.03461438 0.08809989 0.39890581
v -0.03304451 0.11785380 0.40069699
v -0.02913767 0.08809989 0.40444380
v -0.02922511 0.11418160 0.40436921
v -0.02500063 0.11098370 0.40756711
v -0.02278804 0.08809989 0.40895441
v -0.02042955 0.10830460 0.41024631
v -0.01575577 0.08809989 0.41230261
v -0.01557523 0.10618130 0.41236961
v -0.01050502 0.10464320 0.41390759
v -0.00825143 0.08809989 0.41438800
v -0.00528914 0.10371180 0.41483900
v -0.00050000 0.08809989 0.41514820
v -0.00050000 0.09109991 0.41514820
v -0.00047322 0.09126120 0.41514850
v 0.00000000 0.10339990 0.41515100
v -0.00017062 0.09156984 0.41515070
v 0.00000000 0.09159988 0.41515100
v -0.00027586 0.09151673 0.41515011
v -0.00039424 0.09140723 0.41514921
v 0.00050000 0.19339710 0.32280090
v 0.00050000 0.19339710 0.31980100
v 0.00050000 0.19319990 0.31980100
v 0.00050000 0.19319990 0.32280090
v -0.00050000 0.19339710 0.31980100
v -0.00050000 0.19339710 0.32280090
v -0.00050000 0.19319990 0.32280090
v -0.00050000 0.19319990 0.31980100
v 0.00049039 0.19319990 0.32289851
v 0.00050000 0.19339710 0.32280090
v 0.00050000 0.19319990 0.32280090
v 0.00046490 0.19339751 0.32298499
v 0.00046194 0.19319990 0.32299230
v 0.00041574 0.19319990 0.32307881
v 0.00036395 0.19339840 0.32314381
v 0.00035355 0.19319990 0.32315451
v 0.00027778 0.19319990 0.32321671
v 0.00021298 0.19339940 0.32325330
v 0.00019134 0.19319990 0.32326290
v 0.00010426 0.19339970 0.32328981
v 0.00009755 0.19319990 0.32329139
v 0.00000000 0.19319990 0.32330099
v -0.00002841 0.19339991 0.32330009
v -0.00009755 0.19319990 0.32329139
v -0.00018753 0.19339950 0.32326451
v -0.00019134 0.19319990 0.32326290
v -0.00027778 0.19319990 0.32321671
v -0.00035024 0.19339851 0.32315779
v -0.00035355 0.19319990 0.32315451
v -0.00041686 0.19339789 0.32307681
v -0.00041574 0.19319990 0.32307881
v -0.00046194 0.19319990 0.32299230
v -0.00046996 0.19339740 0.32297161
v -0.00049039 0.19319990 0.32289851
v -0.00050000 0.19339710 0.32280090
v -0.00050000 0.19319990 0.32280090
v -0.00046194 0.19319990 0.32299230
v -0.00050000 0.19319990 0.32280090
v -0.00049039 0.19319990 0.32289851
v -0.00019134 0.19319990 0.32326290
v -0.00035355 0.19319990 0.32315451
v -0.00027778 0.19319990 0.32321671
v 0.00000000 0.19319990 0.32330099
v -0.00009755 0.19319990 0.32329139
v 0.00000000 0.19319990 0.32330099
v -0.00035355 0.19319990 0.32315451
v -0.00019134 0.19319990 0.32326290
v 0.00050000 0.19319990 0.32280090
v 0.00050000 0.19319990 0.31980100
v -0.00050000 0.19319990 0.31980100
v -0.00050000 0.19319990 0.32280090
v 0.00009755 0.19319990 0.32329139
v -0.00041574 0.19319990 0.32307881
v -0.00035355 0.19319990 0.32315451
v 0.00009755 0.19319990 0.32329139
v 0.00049039 0.19319990 0.32289851
v -0.00046194 0.19319990 0.32299230
v -0.00041574 0.19319990 0.32307881
v 0.00019134 0.19319990 0.32326290
v 0.00035355 0.19319990 0.32315451
v 0.00046194 0.19319990 0.32299230
v 0.00049039 0.19319990 0.32289851
v 0.00035355 0.19319990 0.32315451
v 0.00041574 0.19319990 0.32307881
v 0.00046194 0.19319990 0.32299230
v 0.00035355 0.19319990 0.32315451
v 0.00027778 0.19319990 0.32321671
v -0.03148442 0.12198130 0.31980100
v -0.03438252 0.11936820 0.31980100
v -0.03888750 0.12575570 0.31980100
v -0.02641856 0.11691550 0.31980100
v -0.02884018 0.11385660 0.31980100
v -0.03559362 0.12784991 0.31980100
v -0.04221922 0.13282640 0.31980100
v -0.02054995 0.11280630 0.31980100
v -0.02242779 0.10938720 0.31980100
v -0.03862136 0.13434289 0.31980100
v -0.03559362 0.12784991 0.31980100
v -0.04221922 0.13282640 0.31980100
v -0.01405698 0.10977850 0.31980100
v -0.01533865 0.10609470 0.31980100
v -0.02242779 0.10938720 0.31980100
v -0.01405698 0.10977850 0.31980100
v -0.02242779 0.10938720 0.31980100
v -0.02054995 0.11280630 0.31980100
v -0.04427719 0.14036700 0.31980100
v -0.03862136 0.13434289 0.31980100
v -0.04047554 0.14126299 0.31980100
v -0.00713688 0.10792430 0.31980100
v -0.00778681 0.10407870 0.31980100
v -0.01533865 0.10609470 0.31980100
v -0.04499930 0.14814989 0.31980100
v -0.04109996 0.14839990 0.31980100
v 0.00000000 0.10729990 0.31980100
v 0.00000000 0.10339990 0.31980100
v -0.04436373 0.15594040 0.31980100
v -0.04499930 0.14814989 0.31980100
v 0.00778681 0.10407870 0.31980100
v -0.04047554 0.15553680 0.31980100
v 0.00713688 0.10792430 0.31980100
v -0.04238969 0.16350330 0.31980100
v 0.01533865 0.10609470 0.31980100
v -0.03862136 0.16245690 0.31980100
v 0.01405698 0.10977850 0.31980100
v -0.03913670 0.17061061 0.31980100
v 0.02242779 0.10938720 0.31980100
v 0.01533865 0.10609470 0.31980100
v -0.03559362 0.16894990 0.31980100
v 0.02054995 0.11280630 0.31980100
v 0.02242779 0.10938720 0.31980100
v 0.01405698 0.10977850 0.31980100
v -0.03470295 0.17704770 0.31980100
v 0.02884018 0.11385660 0.31980100
v 0.02242779 0.10938720 0.31980100
v 0.02054995 0.11280630 0.31980100
v -0.03148442 0.17481850 0.31980100
v 0.02641856 0.11691550 0.31980100
v -0.02922224 0.18262060 0.31980100
v -0.02641856 0.17988430 0.31980100
v 0.03438252 0.11936820 0.31980100
v 0.03148442 0.12198130 0.31980100
v -0.02285987 0.18716100 0.31980100
v -0.02054995 0.18399350 0.31980100
v 0.03888750 0.12575570 0.31980100
v 0.03438252 0.11936820 0.31980100
v 0.03888750 0.12575570 0.31980100
v 0.03559362 0.12784991 0.31980100
v -0.01580774 0.19053200 0.31980100
v -0.01405698 0.18702130 0.31980100
v 0.04221922 0.13282640 0.31980100
v 0.03559362 0.12784991 0.31980100
v 0.04221922 0.13282640 0.31980100
v 0.03862136 0.13434289 0.31980100
v -0.00827879 0.19263180 0.31980100
v -0.00713688 0.18887550 0.31980100
v 0.04427719 0.14036700 0.31980100
v 0.04047554 0.14126299 0.31980100
v -0.00050000 0.19319990 0.31980100
v 0.00000000 0.18949990 0.31980100
v -0.00713688 0.18887550 0.31980100
v -0.00050000 0.19319990 0.31980100
v -0.00050000 0.19339710 0.31980100
v 0.04499930 0.14814989 0.31980100
v 0.04109996 0.14839990 0.31980100
v 0.00050000 0.19319990 0.31980100
v 0.00000000 0.18949990 0.31980100
v 0.00713688 0.18887550 0.31980100
v 0.00050000 0.19319990 0.31980100
v 0.04436373 0.15594040 0.31980100
v 0.04047554 0.15553680 0.31980100
v 0.00827879 0.19263180 0.31980100
v 0.00050000 0.19339710 0.31980100
v 0.00713688 0.18887550 0.31980100
v 0.01405698 0.18702130 0.31980100
v 0.04238969 0.16350330 0.31980100
v 0.03862136 0.16245690 0.31980100
v 0.01580774 0.19053200 0.31980100
v 0.02054995 0.18399350 0.31980100
v 0.03913670 0.17061061 0.31980100
v 0.03559362 0.16894990 0.31980100
v 0.02285987 0.18716100 0.31980100
v 0.02641856 0.17988430 0.31980100
v 0.03470295 0.17704770 0.31980100
v 0.03148442 0.17481850 0.31980100
v 0.02922224 0.18262060 0.31980100
v -0.00050000 0.09109991 0.41495100
v -0.00050000 0.08809989 0.41514820
v -0.00050000 0.08809989 0.41495100
v -0.00050000 0.09109991 0.41514820
v 0.00050000 0.08809989 0.41495100
v 0.00050000 0.09109991 0.41514820
v 0.00050000 0.09109991 0.41495100
v 0.00050000 0.08809989 0.41514820
v -0.00049039 0.09119743 0.41495100
v -0.00050000 0.09109991 0.41514820
v -0.00050000 0.09109991 0.41495100
v -0.00047322 0.09126120 0.41514850
v -0.00046194 0.09129124 0.41495100
v -0.00041574 0.09137767 0.41495100
v -0.00039424 0.09140723 0.41514921
v -0.00035355 0.09145343 0.41495100
v -0.00027586 0.09151673 0.41515011
v -0.00027778 0.09151560 0.41495100
v -0.00019134 0.09156185 0.41495100
v -0.00017062 0.09156984 0.41515070
v -0.00009755 0.09159028 0.41495100
v 0.00000000 0.09159988 0.41515100
v 0.00000000 0.09159988 0.41495100
v 0.00009755 0.09159028 0.41495100
v 0.00016131 0.09157311 0.41515070
v 0.00019134 0.09156185 0.41495100
v 0.00027778 0.09151560 0.41495100
v 0.00030736 0.09149414 0.41514990
v 0.00035355 0.09145343 0.41495100
v 0.00041686 0.09137576 0.41514900
v 0.00041574 0.09137767 0.41495100
v 0.00046194 0.09129124 0.41495100
v 0.00046996 0.09127050 0.41514850
v 0.00049039 0.09119743 0.41495100
v 0.00050000 0.09109991 0.41514820
v 0.00050000 0.09109991 0.41495100
v -0.00050000 0.09109991 0.41495100
v -0.00046194 0.09129124 0.41495100
v -0.00049039 0.09119743 0.41495100
v -0.00050000 0.09109991 0.41495100
v -0.00041574 0.09137767 0.41495100
v -0.00046194 0.09129124 0.41495100
v -0.00050000 0.09109991 0.41495100
v -0.00035355 0.09145343 0.41495100
v -0.00041574 0.09137767 0.41495100
v -0.00027778 0.09151560 0.41495100
v -0.00050000 0.09109991 0.41495100
v -0.00019134 0.09156185 0.41495100
v -0.00027778 0.09151560 0.41495100
v 0.00046194 0.09129124 0.41495100
v 0.00041574 0.09137767 0.41495100
v 0.00035355 0.09145343 0.41495100
v 0.00050000 0.09109991 0.41495100
v -0.00009755 0.09159028 0.41495100
v -0.00019134 0.09156185 0.41495100
v 0.00050000 0.09109991 0.41495100
v 0.00000000 0.09159988 0.41495100
v -0.00009755 0.09159028 0.41495100
v 0.00050000 0.09109991 0.41495100
v 0.00009755 0.09159028 0.41495100
v 0.00000000 0.09159988 0.41495100
v 0.00019134 0.09156185 0.41495100
v 0.00050000 0.09109991 0.41495100
v 0.00027778 0.09151560 0.41495100
v 0.00019134 0.09156185 0.41495100
v 0.00035355 0.09145343 0.41495100
v 0.00027778 0.09151560 0.41495100
v 0.00050000 0.09109991 0.41495100
v 0.00049039 0.09119743 0.41495100
v 0.00046194 0.09129124 0.41495100
v 0.00050000 0.09109991 0.41495100
v -0.00019134 0.09156185 0.41495100
v -0.00050000 0.09109991 0.41495100
v 0.00046194 0.09129124 0.41495100
v -0.00050000 0.08809989 0.41495100
v 0.00050000 0.08809989 0.41495100
v -0.02724468 0.08809989 0.40261999
v -0.02278804 0.08809989 0.40895441
v -0.02913767 0.08809989 0.40444380
v -0.03246897 0.08809989 0.39739570
v -0.03461438 0.08809989 0.39890581
v -0.03670668 0.08809989 0.39134359
v -0.03905421 0.08809989 0.39250651
v -0.02119261 0.08809989 0.40685770
v -0.01575577 0.08809989 0.41230261
v -0.01449656 0.08809989 0.40998009
v -0.03982907 0.08809989 0.38464761
v -0.04232400 0.08809989 0.38543740
v -0.00825143 0.08809989 0.41438800
v -0.00736010 0.08809989 0.41189229
v -0.04174131 0.08809989 0.37751111
v -0.04432594 0.08809989 0.37791041
v -0.00050000 0.08809989 0.41495100
v -0.00050000 0.08809989 0.41514820
v 0.00000000 0.08809989 0.41253620
v 0.00050000 0.08809989 0.41495100
v -0.04238522 0.08809989 0.37015101
v -0.04499995 0.08809989 0.37015101
v -0.04432594 0.08809989 0.36239150
v 0.00825143 0.08809989 0.41438800
v 0.00050000 0.08809989 0.41514820
v 0.00736010 0.08809989 0.41189229
v -0.04174131 0.08809989 0.36279079
v -0.04232400 0.08809989 0.35486451
v 0.01449656 0.08809989 0.40998009
v 0.01575577 0.08809989 0.41230261
v -0.03982907 0.08809989 0.35565439
v -0.03905421 0.08809989 0.34779540
v 0.02119261 0.08809989 0.40685770
v 0.02278804 0.08809989 0.40895441
v -0.03670668 0.08809989 0.34895831
v -0.03461438 0.08809989 0.34139609
v 0.02724468 0.08809989 0.40261999
v -0.03246897 0.08809989 0.34290621
v 0.02913767 0.08809989 0.40444380
v -0.02913767 0.08809989 0.33585820
v 0.03246897 0.08809989 0.39739570
v -0.02724468 0.08809989 0.33768201
v 0.03461438 0.08809989 0.39890581
v 0.03670668 0.08809989 0.39134359
v -0.02278804 0.08809989 0.33134750
v -0.02119261 0.08809989 0.33344421
v 0.03905421 0.08809989 0.39250651
v 0.03982907 0.08809989 0.38464761
v -0.01575577 0.08809989 0.32799941
v -0.01449656 0.08809989 0.33032191
v 0.04232400 0.08809989 0.38543740
v 0.04174131 0.08809989 0.37751111
v -0.00825143 0.08809989 0.32591400
v -0.00736010 0.08809989 0.32840961
v 0.04432594 0.08809989 0.37791041
v 0.04238522 0.08809989 0.37015101
v -0.00050000 0.08809989 0.32535091
v 0.00000000 0.08809989 0.32776570
v -0.00050000 0.08809989 0.32515371
v 0.04499995 0.08809989 0.37015101
v 0.00050000 0.08809989 0.32535091
v 0.00736010 0.08809989 0.32840961
v 0.04432594 0.08809989 0.36239150
v 0.04174131 0.08809989 0.36279079
v 0.00825143 0.08809989 0.32591400
v 0.00050000 0.08809989 0.32515371
v 0.01449656 0.08809989 0.33032191
v 0.04232400 0.08809989 0.35486451
v 0.03982907 0.08809989 0.35565439
v 0.01575577 0.08809989 0.32799941
v 0.02119261 0.08809989 0.33344421
v 0.03905421 0.08809989 0.34779540
v 0.03670668 0.08809989 0.34895831
v 0.02278804 0.08809989 0.33134750
v 0.02724468 0.08809989 0.33768201
v 0.03461438 0.08809989 0.34139609
v 0.03246897 0.08809989 0.34290621
v 0.02913767 0.08809989 0.33585820
v -0.03862136 0.13434289 0.31830099
v -0.02641856 0.11691550 0.31830099
v -0.03148442 0.12198130 0.31830099
v -0.03862136 0.13434289 0.31830099
v -0.03148442 0.12198130 0.31830099
v -0.03559362 0.12784991 0.31830099
v -0.00713688 0.10792430 0.31830099
v -0.01405698 0.10977850 0.31830099
v -0.02054995 0.11280630 0.31830099
v -0.00713688 0.10792430 0.31830099
v -0.02054995 0.11280630 0.31830099
v -0.02641856 0.11691550 0.31830099
v -0.04047554 0.15553680 0.31830099
v -0.04047554 0.14126299 0.31830099
v -0.04109996 0.14839990 0.31830099
v 0.02054995 0.11280630 0.31830099
v 0.00000000 0.10729990 0.31830099
v 0.01405698 0.10977850 0.31830099
v 0.00713688 0.10792430 0.31830099
v 0.02054995 0.11280630 0.31830099
v 0.00713688 0.10792430 0.31830099
v 0.00000000 0.10729990 0.31830099
v -0.02054995 0.18399350 0.31830099
v -0.03559362 0.16894990 0.31830099
v -0.03148442 0.17481850 0.31830099
v -0.02054995 0.18399350 0.31830099
v -0.03148442 0.17481850 0.31830099
v -0.02641856 0.17988430 0.31830099
v 0.03862136 0.13434289 0.31830099
v 0.03559362 0.12784991 0.31830099
v 0.03148442 0.12198130 0.31830099
v 0.03862136 0.13434289 0.31830099
v 0.03148442 0.12198130 0.31830099
v 0.02641856 0.11691550 0.31830099
v 0.03862136 0.13434289 0.31830099
v 0.02641856 0.11691550 0.31830099
v 0.02054995 0.11280630 0.31830099
v -0.00713688 0.18887550 0.31830099
v -0.03862136 0.16245690 0.31830099
v -0.03559362 0.16894990 0.31830099
v -0.01405698 0.18702130 0.31830099
v -0.00713688 0.18887550 0.31830099
v -0.03559362 0.16894990 0.31830099
v -0.02054995 0.18399350 0.31830099
v 0.04047554 0.14126299 0.31830099
v 0.00713688 0.18887550 0.31830099
v 0.00000000 0.18949990 0.31830099
v 0.03559362 0.16894990 0.31830099
v 0.03862136 0.16245690 0.31830099
v 0.04047554 0.15553680 0.31830099
v 0.04109996 0.14839990 0.31830099
v 0.02641856 0.17988430 0.31830099
v 0.00713688 0.18887550 0.31830099
v 0.01405698 0.18702130 0.31830099
v 0.02641856 0.17988430 0.31830099
v 0.01405698 0.18702130 0.31830099
v 0.02054995 0.18399350 0.31830099
v 0.02641856 0.17988430 0.31830099
v 0.03148442 0.17481850 0.31830099
v 0.00769204 0.10406220 0.32030091
v 0.00000000 0.10339990 0.32030091
v 0.00000000 0.10339990 0.31980100
v 0.00778681 0.10407870 0.31980100
v 0.01515781 0.10602960 0.32030091
v 0.01533865 0.10609470 0.31980100
v 0.02217745 0.10924430 0.32030100
v 0.02242779 0.10938720 0.31980100
v 0.02854412 0.11361150 0.32030109
v 0.02884018 0.11385660 0.31980100
v 0.03407049 0.11900260 0.32030109
v 0.03438252 0.11936820 0.31980100
v 0.03859376 0.12525859 0.32030091
v 0.03888750 0.12575570 0.31980100
v 0.04198110 0.13219550 0.32030079
v 0.04221922 0.13282640 0.31980100
v 0.04427719 0.14036700 0.31980100
v 0.04413282 0.13960829 0.32030049
v 0.04478269 0.14398310 0.32030231
v 0.04499930 0.14814989 0.31980100
v 0.04499995 0.14839990 0.32030091
v 0.04436373 0.15594040 0.31980100
v 0.04450225 0.15507410 0.36347681
v 0.04499995 0.14839990 0.37015101
v 0.04302018 0.16160069 0.35695019
v 0.04238969 0.16350330 0.31980100
v 0.04049688 0.16802131 0.35052961
v 0.03913670 0.17061061 0.31980100
v 0.03702181 0.17398080 0.34457010
v 0.03470295 0.17704770 0.31980100
v 0.03319942 0.17877750 0.33977339
v 0.02992355 0.18200910 0.33654171
v 0.02922224 0.18262060 0.31980100
v 0.02633476 0.18488930 0.33366159
v 0.02285987 0.18716100 0.31980100
v 0.02247065 0.18738800 0.33116290
v 0.01837152 0.18947890 0.32907191
v 0.01580774 0.19053200 0.31980100
v 0.01408028 0.19114029 0.32741049
v 0.00964183 0.19235480 0.32619601
v 0.00827879 0.19263180 0.31980100
v 0.00510252 0.19310960 0.32544121
v 0.00050000 0.19339710 0.31980100
v 0.00050000 0.19339710 0.32280090
v 0.00050991 0.19339700 0.32515380
v 0.00010426 0.19339970 0.32328981
v -0.00002841 0.19339991 0.32330009
v 0.00021298 0.19339940 0.32325330
v 0.00036395 0.19339840 0.32314381
v 0.00046490 0.19339751 0.32298499
v -0.00018753 0.19339950 0.32326451
v -0.00035024 0.19339851 0.32315779
v -0.00041686 0.19339789 0.32307681
v -0.00408804 0.19321381 0.32533711
v -0.00046996 0.19339740 0.32297161
v -0.00050000 0.19339710 0.32280090
v -0.00050000 0.19339710 0.31980100
v -0.00827879 0.19263180 0.31980100
v -0.00914466 0.19246089 0.32608989
v -0.01580774 0.19053200 0.31980100
v -0.01462197 0.19095799 0.32759279
v -0.01986628 0.18877719 0.32977360
v -0.02285987 0.18716100 0.31980100
v -0.02531868 0.18560150 0.33294931
v -0.02922224 0.18262060 0.31980100
v -0.03078877 0.18121830 0.33733249
v -0.03470295 0.17704770 0.31980100
v -0.03598523 0.17541949 0.34313139
v -0.03913670 0.17061061 0.31980100
v -0.04048979 0.16803589 0.35051501
v -0.04238969 0.16350330 0.31980100
v -0.04499930 0.14814989 0.31980100
v -0.04499995 0.14839990 0.32030091
v -0.04436373 0.15594040 0.31980100
v -0.04373514 0.15899400 0.35955691
v -0.04433798 0.14070950 0.32030061
v -0.04427719 0.14036700 0.31980100
v -0.04237151 0.13324550 0.32030091
v -0.04499995 0.14839990 0.37015101
v -0.04221922 0.13282640 0.31980100
v -0.03915768 0.12622610 0.32030109
v -0.03888750 0.12575570 0.31980100
v -0.03479188 0.11986010 0.32030109
v -0.03438252 0.11936820 0.31980100
v -0.02940136 0.11433290 0.32030100
v -0.02884018 0.11385660 0.31980100
v -0.02314531 0.10980850 0.32030091
v -0.02242779 0.10938720 0.31980100
v -0.01620793 0.10642010 0.32030091
v -0.01533865 0.10609470 0.31980100
v -0.00879359 0.10426740 0.32030091
v -0.00778681 0.10407870 0.31980100
v -0.00441813 0.10361730 0.32030109
v 0.00000000 0.10339990 0.32030091
v -0.04476714 0.09903407 0.36509651
v -0.04499995 0.09854990 0.37015101
v -0.04499995 0.14839990 0.32030091
v -0.04406547 0.09949457 0.36008269
v -0.04433798 0.14070950 0.32030061
v -0.04245126 0.10002940 0.35374179
v -0.04237151 0.13324550 0.32030091
v -0.04003340 0.10047080 0.34767970
v -0.03678482 0.10081300 0.34196720
v -0.03915768 0.12622610 0.32030109
v -0.03278642 0.10105980 0.33681819
v -0.03479188 0.11986010 0.32030109
v -0.02803999 0.10123200 0.33227301
v -0.02270305 0.10134460 0.32850310
v -0.02940136 0.11433290 0.32030100
v -0.01686406 0.10141490 0.32556531
v -0.02314531 0.10980850 0.32030091
v -0.01062101 0.10145600 0.32351610
v -0.01620793 0.10642010 0.32030091
v -0.00419617 0.10147550 0.32242140
v -0.00879359 0.10426740 0.32030091
v -0.00441813 0.10361730 0.32030109
v 0.00238353 0.10147780 0.32228631
v 0.00000000 0.10339990 0.32030091
v 0.00769204 0.10406220 0.32030091
v 0.01515781 0.10602960 0.32030091
v 0.00889182 0.10146310 0.32312489
v 0.02217745 0.10924430 0.32030100
v 0.01522594 0.10142850 0.32492650
v 0.02854412 0.11361150 0.32030109
v 0.02116310 0.10136720 0.32762069
v 0.03407049 0.11900260 0.32030109
v 0.02666896 0.10126690 0.33118811
v 0.03157413 0.10111320 0.33552390
v 0.03859376 0.12525859 0.32030091
v 0.03577667 0.10088870 0.34051701
v 0.04198110 0.13219550 0.32030079
v 0.03957414 0.10053150 0.34674791
v 0.04259967 0.09999269 0.35420781
v 0.04413282 0.13960829 0.32030049
v 0.04440534 0.09931188 0.36209750
v 0.04478269 0.14398310 0.32030231
v 0.04499995 0.14839990 0.32030091
v 0.04499995 0.09854990 0.37015101
v 0.04441070 0.09778040 0.36289251
v 0.04499995 0.09854990 0.37015101
v 0.04499995 0.09854990 0.37015101
v 0.04440534 0.09931188 0.36209750
v 0.04265385 0.09704846 0.35581061
v 0.04259967 0.09999269 0.35420781
v 0.03978955 0.09638953 0.34913221
v 0.03957414 0.10053150 0.34674791
v 0.03587114 0.09581917 0.34298000
v 0.03577667 0.10088870 0.34051701
v 0.03101348 0.09534955 0.33754480
v 0.03157413 0.10111320 0.33552390
v 0.02533388 0.09498006 0.33295971
v 0.02666896 0.10126690 0.33118811
v -0.02911746 0.09520941 0.33584100
v -0.02803999 0.10123200 0.33227301
v -0.02317076 0.09487330 0.33157489
v -0.03278642 0.10105980 0.33681819
v -0.03427040 0.09564328 0.34098700
v -0.03678482 0.10081300 0.34196720
v -0.03853571 0.09617948 0.34691310
v -0.04003340 0.10047080 0.34767970
v -0.04177618 0.09680867 0.35342529
v -0.04245126 0.10002940 0.35374179
v -0.04392641 0.09751713 0.36038050
v -0.04406547 0.09949457 0.36008269
v -0.04476714 0.09903407 0.36509651
v -0.04473090 0.09802901 0.36523741
v -0.04499995 0.09854990 0.37015101
v -0.04499995 0.09854990 0.37015101
v -0.01212346 0.09825336 0.32606471
v -0.01686406 0.10141490 0.32556531
v -0.01062101 0.10145600 0.32351610
v -0.00963342 0.09448003 0.32619420
v -0.01664096 0.09463286 0.32834101
v 0.02302557 0.09830236 0.33077621
v 0.02116310 0.10136720 0.32762069
v 0.01898044 0.09470665 0.32934970
v 0.01979285 0.09828448 0.32901031
v 0.01693433 0.09827077 0.32772121
v 0.01522594 0.10142850 0.32492650
v 0.01213419 0.09452402 0.32681781
v 0.01346099 0.09825754 0.32646430
v 0.01040738 0.09824818 0.32561791
v 0.00889182 0.10146310 0.32312489
v 0.00492924 0.09442645 0.32542181
v 0.00676370 0.09824031 0.32490420
v 0.00238353 0.10147780 0.32228631
v 0.00363922 0.09823632 0.32453811
v -0.00008040 0.09823447 0.32438979
v -0.00419617 0.10147550 0.32242140
v -0.00241256 0.09441220 0.32521570
v -0.00323284 0.09823596 0.32450679
v -0.00690043 0.09824055 0.32492539
v -0.00996917 0.09824705 0.32551530
v -0.01652115 0.09826904 0.32755440
v -0.01941043 0.09828251 0.32882360
v -0.02265465 0.09830015 0.33055571
v 0.04499995 0.09854990 0.37015101
v 0.04499995 0.14839990 0.37015101
v 0.00000000 0.10729990 0.31830099
v 0.00000000 0.10729990 0.31980100
v -0.00713688 0.10792430 0.31980100
v -0.00713688 0.10792430 0.31830099
v -0.01405698 0.10977850 0.31830099
v -0.01405698 0.10977850 0.31980100
v -0.02054995 0.11280630 0.31830099
v -0.02054995 0.11280630 0.31980100
v -0.02641856 0.11691550 0.31830099
v -0.02641856 0.11691550 0.31980100
v -0.03148442 0.12198130 0.31980100
v -0.03148442 0.12198130 0.31830099
v -0.03559362 0.12784991 0.31830099
v -0.03559362 0.12784991 0.31980100
v -0.03862136 0.13434289 0.31980100
v -0.03862136 0.13434289 0.31830099
v -0.04047554 0.14126299 0.31830099
v -0.04047554 0.14126299 0.31980100
v -0.04109996 0.14839990 0.31830099
v -0.04109996 0.14839990 0.31980100
v -0.04047554 0.15553680 0.31830099
v -0.04047554 0.15553680 0.31980100
v -0.03862136 0.16245690 0.31980100
v -0.03862136 0.16245690 0.31830099
v -0.03559362 0.16894990 0.31830099
v -0.03559362 0.16894990 0.31980100
v -0.03148442 0.17481850 0.31980100
v -0.03148442 0.17481850 0.31830099
v -0.02641856 0.17988430 0.31830099
v -0.02641856 0.17988430 0.31980100
v -0.02054995 0.18399350 0.31830099
v -0.02054995 0.18399350 0.31980100
v -0.01405698 0.18702130 0.31830099
v -0.01405698 0.18702130 0.31980100
v -0.00713688 0.18887550 0.31830099
v -0.00713688 0.18887550 0.31980100
v 0.00000000 0.18949990 0.31830099
v 0.00000000 0.18949990 0.31980100
v 0.00713688 0.18887550 0.31830099
v 0.00713688 0.18887550 0.31980100
v 0.01405698 0.18702130 0.31830099
v 0.01405698 0.18702130 0.31980100
v 0.02054995 0.18399350 0.31980100
v 0.02054995 0.18399350 0.31830099
v 0.02641856 0.17988430 0.31830099
v 0.02641856 0.17988430 0.31980100
v 0.03148442 0.17481850 0.31830099
v 0.03148442 0.17481850 0.31980100
v 0.03559362 0.16894990 0.31830099
v 0.03559362 0.16894990 0.31980100
v 0.03862136 0.16245690 0.31830099
v 0.03862136 0.16245690 0.31980100
v 0.04047554 0.15553680 0.31830099
v 0.04047554 0.15553680 0.31980100
v 0.04109996 0.14839990 0.31830099
v 0.04109996 0.14839990 0.31980100
v 0.04047554 0.14126299 0.31830099
v 0.04047554 0.14126299 0.31980100
v 0.03862136 0.13434289 0.31830099
v 0.03862136 0.13434289 0.31980100
v 0.03559362 0.12784991 0.31830099
v 0.03559362 0.12784991 0.31980100
v 0.03148442 0.12198130 0.31830099
v 0.03148442 0.12198130 0.31980100
v 0.02641856 0.11691550 0.31830099
v 0.02641856 0.11691550 0.31980100
v 0.02054995 0.11280630 0.31980100
v 0.02054995 0.11280630 0.31830099
v 0.01405698 0.10977850 0.31830099
v 0.01405698 0.10977850 0.31980100
v 0.00713688 0.10792430 0.31830099
v 0.00713688 0.10792430 0.31980100
v 0.00000000 0.10729990 0.31830099
v 0.00000000 0.10729990 0.31980100
f 1 2 3
f 4 1 3
f 5 6 3
f 7 8 2
f 7 2 1
f 9 6 5
f 10 9 5
f 11 12 8
f 11 8 7
f 13 9 10
f 14 13 10
f 15 16 12
f 15 12 11
f 17 13 14
f 18 17 14
f 19 16 15
f 19 20 16
f 21 17 18
f 22 21 18
f 23 20 19
f 23 24 20
f 25 21 22
f 26 25 22
f 27 24 23
f 27 28 24
f 29 25 26
f 30 29 26
f 31 32 33
f 31 33 27
f 34 29 30
f 35 34 30
f 36 32 31
f 36 37 32
f 38 34 35
f 39 37 36
f 40 38 41
f 40 42 38
f 43 37 39
f 44 43 39
f 45 42 46
f 47 48 42
f 49 50 51
f 52 53 44
f 54 55 48
f 54 48 47
f 56 49 57
f 58 56 57
f 59 60 55
f 59 55 54
f 61 62 58
f 63 61 58
f 64 65 60
f 64 60 59
f 66 61 63
f 67 66 63
f 68 69 65
f 68 65 64
f 70 66 67
f 71 70 67
f 72 73 69
f 72 69 68
f 74 70 71
f 75 74 71
f 76 77 73
f 76 73 72
f 78 79 80
f 81 82 75
f 83 77 76
f 83 84 77
f 85 84 83
f 85 81 84
f 85 82 81
f 86 87 88
f 86 88 89
f 90 89 91
f 90 86 89
f 92 91 93
f 92 90 91
f 94 93 95
f 94 92 93
f 96 95 97
f 96 94 95
f 98 96 97
f 98 97 99
f 100 98 99
f 100 99 101
f 102 100 101
f 102 101 103
f 104 102 103
f 104 103 105
f 106 104 105
f 106 105 107
f 108 106 107
f 108 107 109
f 110 108 109
f 110 109 111
f 112 110 111
f 112 111 113
f 114 112 113
f 114 113 115
f 116 114 115
f 116 115 117
f 118 116 117
f 118 117 119
f 120 118 119
f 120 119 121
f 122 120 121
f 122 121 123
f 124 123 125
f 124 122 123
f 126 125 127
f 126 124 125
f 128 127 129
f 128 126 127
f 130 129 131
f 130 128 129
f 132 131 133
f 132 130 131
f 134 133 135
f 134 132 133
f 136 135 137
f 136 134 135
f 138 137 139
f 138 136 137
f 140 139 141
f 140 138 139
f 142 141 143
f 142 140 141
f 144 143 145
f 144 142 143
f 146 147 148
f 146 145 147
f 146 144 145
f 149 146 148
f 150 149 148
f 150 148 151
f 152 150 151
f 152 151 153
f 154 152 153
f 154 153 155
f 156 154 155
f 156 155 157
f 158 156 157
f 158 157 159
f 160 161 162
f 163 164 161
f 163 161 160
f 165 160 166
f 167 168 163
f 167 163 160
f 169 170 171
f 172 165 173
f 174 160 175
f 176 177 167
f 178 174 179
f 180 181 176
f 180 176 167
f 182 160 174
f 182 174 178
f 183 180 167
f 184 185 183
f 184 183 167
f 186 187 188
f 189 182 187
f 189 187 186
f 190 191 184
f 192 182 189
f 193 167 160
f 193 184 167
f 193 190 184
f 194 195 193
f 196 192 197
f 198 199 200
f 196 160 182
f 196 194 193
f 196 193 160
f 196 182 192
f 201 194 196
f 202 203 204
f 205 206 203
f 205 207 206
f 205 203 202
f 208 209 207
f 208 210 209
f 208 207 205
f 211 212 210
f 211 210 208
f 213 214 212
f 213 215 214
f 213 212 211
f 216 217 215
f 216 215 213
f 218 219 217
f 218 220 219
f 218 217 216
f 221 222 220
f 221 220 218
f 223 224 222
f 223 225 224
f 223 222 221
f 226 227 225
f 226 225 223
f 228 229 227
f 228 227 226
f 230 231 232
f 230 233 231
f 234 235 236
f 234 237 235
f 238 239 240
f 241 242 243
f 241 243 244
f 245 246 247
f 248 249 250
f 251 252 253
f 254 255 256
f 257 258 259
f 260 261 262
f 263 241 264
f 265 241 263
f 266 267 268
f 269 241 270
f 271 241 269
f 272 241 271
f 273 274 241
f 273 241 272
f 275 276 277
f 275 278 276
f 275 279 278
f 275 280 279
f 281 277 282
f 281 282 283
f 281 275 277
f 281 283 284
f 285 281 284
f 286 285 284
f 286 284 287
f 288 287 289
f 288 286 287
f 290 289 291
f 290 288 289
f 292 291 293
f 292 290 291
f 294 293 295
f 294 292 293
f 296 295 297
f 296 294 295
f 298 297 299
f 298 296 297
f 300 299 301
f 300 298 299
f 302 301 303
f 302 300 301
f 304 298 300
f 305 303 306
f 305 302 303
f 307 306 308
f 307 305 306
f 309 307 308
f 310 309 308
f 311 309 310
f 312 311 310
f 313 311 312
f 314 313 312
f 315 313 314
f 316 315 314
f 317 315 316
f 318 317 316
f 319 317 318
f 320 319 318
f 321 319 320
f 322 319 321
f 323 319 322
f 324 319 323
f 325 319 324
f 326 319 325
f 326 325 327
f 326 327 328
f 326 328 329
f 326 329 330
f 326 330 331
f 326 331 332
f 326 332 333
f 334 326 333
f 335 326 334
f 336 335 334
f 337 335 336
f 338 337 336
f 339 337 338
f 340 339 338
f 341 339 340
f 342 341 340
f 342 340 343
f 344 342 343
f 344 343 345
f 346 344 345
f 346 345 347
f 348 346 347
f 348 347 349
f 350 348 349
f 351 350 349
f 352 350 351
f 353 352 351
f 354 352 353
f 354 355 352
f 356 354 353
f 356 353 357
f 358 357 359
f 358 356 357
f 360 359 361
f 360 358 359
f 362 361 363
f 362 360 361
f 364 362 363
f 365 363 366
f 365 364 363
f 367 366 368
f 367 365 366
f 369 367 368
f 370 368 371
f 370 369 368
f 372 370 371
f 373 372 371
f 374 372 373
f 375 372 374
f 376 372 375
f 376 377 378
f 376 379 377
f 376 380 379
f 376 375 380
f 381 382 383
f 384 381 383
f 385 386 387
f 388 385 387
f 389 390 391
f 389 392 390
f 393 392 389
f 394 395 392
f 394 392 393
f 396 395 394
f 397 398 395
f 397 395 396
f 399 400 398
f 399 398 397
f 401 400 399
f 402 403 400
f 402 400 401
f 404 405 403
f 404 403 402
f 406 405 404
f 407 408 405
f 407 405 406
f 409 410 408
f 409 408 407
f 411 410 409
f 412 413 410
f 412 410 411
f 414 415 413
f 414 413 412
f 416 415 414
f 417 418 419
f 420 421 422
f 423 420 424
f 425 426 427
f 428 429 430
f 428 430 431
f 432 433 434
f 435 421 423
f 436 437 438
f 436 431 437
f 436 428 431
f 439 438 435
f 440 441 442
f 443 444 445
f 446 439 447
f 446 436 438
f 446 438 439
f 448 449 450
f 451 452 449
f 451 449 448
f 453 450 454
f 453 448 450
f 455 456 452
f 455 452 451
f 457 458 459
f 460 461 462
f 463 464 465
f 466 467 454
f 468 467 466
f 469 470 471
f 469 471 460
f 472 468 466
f 473 468 472
f 474 470 469
f 474 475 470
f 476 473 477
f 478 475 474
f 479 473 476
f 480 478 474
f 481 479 476
f 482 478 480
f 483 479 481
f 484 482 480
f 485 483 481
f 486 487 484
f 488 483 485
f 489 490 491
f 492 488 485
f 493 494 495
f 496 488 492
f 497 493 495
f 498 496 492
f 499 496 498
f 500 493 497
f 500 497 501
f 502 499 498
f 502 503 499
f 504 505 501
f 506 501 507
f 508 503 502
f 508 509 503
f 510 504 511
f 512 507 513
f 514 509 508
f 514 515 509
f 516 513 517
f 516 512 513
f 518 519 520
f 521 515 514
f 522 521 514
f 523 517 524
f 523 516 517
f 525 526 521
f 527 519 528
f 529 524 530
f 529 523 524
f 531 525 532
f 531 533 525
f 534 533 531
f 535 530 536
f 535 529 530
f 537 538 534
f 537 534 531
f 539 535 536
f 539 536 540
f 541 538 537
f 541 542 538
f 543 539 540
f 543 540 544
f 545 542 541
f 545 543 544
f 545 544 542
f 546 547 548
f 546 549 547
f 550 551 552
f 550 553 551
f 554 555 556
f 554 557 555
f 558 557 554
f 559 560 557
f 559 557 558
f 561 562 560
f 561 560 559
f 563 562 561
f 564 565 562
f 564 562 563
f 566 567 565
f 566 565 564
f 568 567 566
f 569 570 567
f 569 567 568
f 571 570 569
f 572 573 570
f 572 570 571
f 574 575 573
f 574 573 572
f 576 575 574
f 577 578 575
f 577 575 576
f 579 580 578
f 579 578 577
f 581 580 579
f 582 583 584
f 585 586 587
f 588 589 590
f 588 591 589
f 592 593 594
f 595 596 597
f 598 599 600
f 601 602 603
f 604 605 606
f 604 607 605
f 608 609 610
f 604 611 612
f 613 614 615
f 616 617 618
f 604 619 611
f 620 604 588
f 621 604 620
f 622 623 624
f 625 624 626
f 625 622 624
f 627 626 628
f 627 625 626
f 629 630 623
f 629 623 622
f 631 630 629
f 632 628 633
f 632 627 628
f 634 630 631
f 635 634 631
f 636 632 633
f 636 633 637
f 638 634 635
f 638 639 634
f 640 638 635
f 640 641 638
f 642 637 643
f 642 636 637
f 644 642 643
f 645 646 641
f 647 641 640
f 647 645 641
f 648 642 644
f 649 648 644
f 650 651 645
f 650 645 647
f 652 648 649
f 653 652 649
f 654 655 651
f 654 651 650
f 656 652 653
f 657 656 653
f 658 655 654
f 659 656 657
f 660 655 658
f 661 659 657
f 662 660 658
f 663 659 661
f 664 660 662
f 665 664 662
f 666 663 661
f 666 667 663
f 668 664 665
f 669 668 665
f 670 671 667
f 670 667 666
f 672 668 669
f 673 672 669
f 674 675 671
f 674 671 670
f 676 672 673
f 677 676 673
f 678 679 675
f 678 675 674
f 680 678 674
f 681 676 677
f 682 679 678
f 683 679 682
f 684 677 685
f 684 681 677
f 686 682 687
f 686 683 682
f 688 683 686
f 689 684 685
f 689 685 690
f 691 688 686
f 691 692 688
f 693 689 690
f 693 690 694
f 695 692 691
f 695 696 692
f 697 693 694
f 697 694 698
f 699 696 695
f 699 697 698
f 699 698 696
f 700 701 702
f 703 704 705
f 706 707 708
f 709 710 711
f 712 700 713
f 712 713 714
f 715 716 706
f 715 717 718
f 719 720 721
f 722 723 724
f 725 726 727
f 728 729 730
f 731 732 733
f 734 735 736
f 737 712 738
f 737 738 739
f 737 725 740
f 737 701 700
f 737 706 701
f 737 700 712
f 741 742 743
f 744 736 706
f 744 734 736
f 745 737 746
f 745 706 737
f 745 744 706
f 747 748 749
f 747 749 750
f 751 752 753
f 754 755 756
f 757 744 745
f 758 747 750
f 758 744 757
f 758 750 744
f 759 760 761
f 759 761 762
f 763 759 762
f 764 763 762
f 765 763 764
f 766 765 764
f 767 765 766
f 768 767 766
f 769 767 768
f 770 769 768
f 771 769 770
f 772 771 770
f 773 771 772
f 774 773 772
f 775 776 774
f 777 776 775
f 778 777 775
f 779 777 778
f 780 779 778
f 781 782 779
f 781 779 780
f 783 781 780
f 783 780 784
f 785 784 786
f 785 783 784
f 787 785 786
f 787 786 788
f 789 787 788
f 790 788 791
f 790 789 788
f 792 791 793
f 792 790 791
f 794 792 793
f 795 793 796
f 795 794 793
f 797 795 796
f 798 796 799
f 798 797 796
f 800 798 799
f 801 800 799
f 802 800 801
f 803 804 805
f 803 806 804
f 803 807 806
f 803 808 807
f 803 802 808
f 803 800 802
f 809 803 805
f 810 803 809
f 811 803 810
f 812 803 811
f 812 813 814
f 812 811 813
f 812 814 815
f 816 812 815
f 817 812 816
f 818 817 816
f 819 817 818
f 820 819 818
f 821 820 818
f 822 820 821
f 823 822 821
f 824 822 823
f 825 824 823
f 826 824 825
f 826 825 827
f 828 826 827
f 828 827 829
f 830 831 832
f 833 828 829
f 833 832 831
f 833 829 832
f 834 831 830
f 835 834 830
f 836 834 835
f 837 833 831
f 838 836 835
f 839 836 838
f 840 839 838
f 841 839 840
f 842 841 840
f 843 841 842
f 844 843 842
f 845 843 844
f 846 845 844
f 847 845 846
f 848 847 846
f 849 847 848
f 850 849 848
f 851 849 850
f 761 851 850
f 852 851 761
f 776 773 774
f 853 854 855
f 856 855 857
f 856 853 855
f 858 857 859
f 858 856 857
f 860 858 859
f 861 859 862
f 861 860 859
f 863 862 864
f 863 861 862
f 865 863 864
f 866 864 867
f 866 865 864
f 868 867 869
f 868 866 867
f 870 869 871
f 870 868 869
f 872 871 873
f 872 873 874
f 872 870 871
f 875 874 876
f 875 876 877
f 875 877 878
f 875 872 874
f 879 878 880
f 879 875 878
f 881 879 880
f 881 880 882
f 883 881 882
f 883 882 884
f 885 883 884
f 886 885 884
f 886 884 887
f 888 887 889
f 888 886 887
f 890 888 889
f 891 889 892
f 891 890 889
f 893 892 894
f 893 891 892
f 893 894 895
f 896 893 895
f 897 898 899
f 897 900 898
f 901 902 900
f 901 900 897
f 903 904 902
f 903 902 901
f 905 906 904
f 905 904 903
f 907 908 906
f 907 906 905
f 909 910 908
f 909 908 907
f 911 912 913
f 914 912 911
f 915 914 911
f 916 914 915
f 917 916 915
f 917 918 916
f 919 918 917
f 919 920 918
f 921 922 920
f 921 920 919
f 923 922 921
f 924 923 921
f 925 923 924
f 926 925 924
f 927 928 929
f 927 930 931
f 932 933 910
f 932 909 934
f 932 910 909
f 935 933 932
f 935 932 934
f 936 935 934
f 936 937 933
f 936 934 938
f 936 933 935
f 939 937 936
f 939 936 938
f 940 941 937
f 940 937 939
f 940 938 942
f 940 939 938
f 943 944 941
f 943 941 940
f 943 940 942
f 945 943 942
f 945 944 943
f 946 944 945
f 946 947 944
f 946 942 948
f 946 945 942
f 949 947 946
f 949 946 948
f 950 929 947
f 950 948 930
f 950 947 949
f 950 949 948
f 951 929 950
f 951 927 929
f 951 930 927
f 951 950 930
f 952 928 927
f 952 927 931
f 953 928 952
f 953 866 928
f 953 931 913
f 953 952 931
f 954 913 912
f 954 912 866
f 954 866 953
f 954 953 913
f 352 355 831
f 955 779 956
f 957 958 959
f 960 957 959
f 961 959 962
f 961 960 959
f 963 962 964
f 963 961 962
f 965 964 966
f 965 966 967
f 965 963 964
f 968 965 967
f 969 968 967
f 969 967 970
f 969 970 971
f 972 969 971
f 973 972 971
f 973 971 974
f 975 973 974
f 975 974 976
f 977 975 976
f 977 976 978
f 977 978 979
f 980 977 979
f 981 980 979
f 981 979 982
f 981 982 983
f 984 981 983
f 985 984 983
f 985 983 986
f 987 985 986
f 987 986 988
f 989 987 988
f 989 988 990
f 991 989 990
f 991 990 992
f 993 991 992
f 993 992 994
f 995 993 994
f 995 994 996
f 997 995 996
f 997 996 998
f 997 998 999
f 1000 997 999
f 1001 999 1002
f 1001 1000 999
f 1003 1002 1004
f 1003 1001 1002
f 1005 1004 1006
f 1005 1003 1004
f 1007 1006 1008
f 1007 1005 1006
f 1009 1008 1010
f 1009 1007 1008
f 1011 1010 1012
f 1011 1009 1010
f 1013 1012 1014
f 1013 1011 1012
f 1015 1014 1016
f 1015 1013 1014
f 1017 1016 1018
f 1017 1015 1016
f 1019 1017 1018
f 1019 1018 1020
f 1021 1019 1020
f 1021 1020 1022
f 1021 1022 1023
f 1024 1021 1023
f 1025 1024 1023
f 1025 1023 1026
f 1027 1025 1026
f 1027 1026 1028
f 1029 1027 1028
f 1029 1028 1030

