# https://github.com/mikedh/trimesh
v -0.00052404 -0.05899996 0.30110970
v 0.00000002 -0.05899996 0.30115101
v -0.00031688 -0.05899908 0.30113539
v -0.00063824 -0.05899645 0.30108869
v -0.00103513 -0.05899996 0.30098701
v -0.00106064 -0.05899043 0.30097830
v -0.00152079 -0.05899996 0.30078581
v -0.00146715 -0.05898172 0.30081230
v -0.00184623 -0.05897105 0.30059519
v -0.00196902 -0.05899996 0.30051121
v -0.00218872 -0.05895938 0.30033660
v -0.00236879 -0.05899996 0.30016980
v -0.00248758 -0.05894751 0.30004439
v -0.00271014 -0.05899996 0.29977009
v -0.00275228 -0.05893572 0.29970920
v -0.00298480 -0.05899996 0.29932180
v -0.00297729 -0.05892481 0.29933569
v -0.00318597 -0.05899996 0.29883620
v -0.00315503 -0.05891557 0.29892650
v -0.00330869 -0.05899996 0.29832500
v -0.00330142 -0.05890758 0.29836380
v -0.00334994 -0.05899996 0.29780099
v -0.00334994 -0.05890477 0.29780099
v -0.00334994 -0.05890477 0.25220099
v -0.00334994 -0.05899996 0.29780099
v -0.00334994 -0.05890477 0.29780099
v -0.00334994 -0.05899996 0.25220099
v 0.00063828 -0.05899644 0.24891320
v 0.00058174 -0.05899996 0.24890190
v 0.00031692 -0.05899907 0.24886639
v 0.00114574 -0.05899996 0.24905300
v 0.00106068 -0.05899042 0.24902360
v 0.00146719 -0.05898172 0.24918960
v 0.00167497 -0.05899996 0.24929979
v 0.00184627 -0.05897105 0.24940680
v 0.00215336 -0.05899996 0.24963470
v 0.00218876 -0.05895937 0.24966531
v 0.00256624 -0.05899996 0.25004759
v 0.00248762 -0.05894751 0.24995750
v 0.00275232 -0.05893571 0.25029281
v 0.00290116 -0.05899996 0.25052601
v 0.00297733 -0.05892480 0.25066629
v 0.00314798 -0.05899996 0.25105521
v 0.00315507 -0.05891556 0.25107551
v 0.00329908 -0.05899996 0.25161919
v 0.00330146 -0.05890757 0.25163820
v 0.00334998 -0.05899996 0.25220099
v 0.00334998 -0.05890477 0.25220099
v 0.00000002 -0.05899996 0.24885100
v -0.00334994 -0.05899996 0.25220099
v -0.00334994 -0.05890477 0.25220099
v -0.00334022 -0.05890537 0.25194570
v -0.00330869 -0.05899996 0.25167689
v -0.00331108 -0.05890698 0.25169209
v -0.00324510 -0.05891067 0.25136951
v -0.00318597 -0.05899996 0.25116581
v -0.00314806 -0.05891592 0.25105569
v -0.00302098 -0.05892259 0.25075319
v -0.00298480 -0.05899996 0.25068009
v -0.00286470 -0.05893040 0.25046441
v -0.00271014 -0.05899996 0.25023189
v -0.00265757 -0.05894012 0.25016150
v -0.00236932 -0.05895240 0.24983270
v -0.00236879 -0.05899996 0.24983220
v -0.00204060 -0.05896467 0.24954420
v -0.00196902 -0.05899996 0.24949069
v -0.00167618 -0.05897618 0.24930049
v -0.00152079 -0.05899996 0.24921609
v -0.00128363 -0.05898601 0.24910671
v -0.00103513 -0.05899996 0.24901490
v -0.00086837 -0.05899358 0.24896550
v -0.00052404 -0.05899996 0.24889220
v -0.00043807 -0.05899835 0.24887970
v 0.00000002 -0.05899996 0.24885100
v 0.00334998 -0.05899996 0.29780099
v 0.00334998 -0.05890477 0.29780099
v 0.00334026 -0.05890537 0.29805619
v 0.00329908 -0.05899996 0.29838270
v 0.00331112 -0.05890698 0.29830989
v 0.00324513 -0.05891067 0.29863250
v 0.00314798 -0.05899996 0.29894671
v 0.00314810 -0.05891592 0.29894629
v 0.00302102 -0.05892259 0.29924870
v 0.00290116 -0.05899996 0.29947600
v 0.00286474 -0.05893040 0.29953751
v 0.00265761 -0.05894012 0.29984051
v 0.00256624 -0.05899996 0.29995430
v 0.00236936 -0.05895240 0.30016920
v 0.00215336 -0.05899996 0.30036721
v 0.00204064 -0.05896467 0.30045769
v 0.00167497 -0.05899996 0.30070221
v 0.00167622 -0.05897618 0.30070141
v 0.00128366 -0.05898601 0.30089530
v 0.00114574 -0.05899996 0.30094889
v 0.00086840 -0.05899358 0.30103651
v 0.00058174 -0.05899996 0.30110011
v 0.00043810 -0.05899835 0.30112219
v 0.00000002 -0.05899996 0.30115101
v 0.00334998 -0.05899996 0.29780099
v 0.00334998 -0.05890477 0.25220099
v 0.00334998 -0.05890477 0.29780099
v 0.00334998 -0.05899996 0.25220099
v -0.00298480 -0.05899996 0.29932180
v -0.00236879 -0.05899996 0.30016980
v -0.00271014 -0.05899996 0.29977009
v -0.00103513 -0.05899996 0.30098701
v -0.00152079 -0.05899996 0.30078581
v -0.00196902 -0.05899996 0.30051121
v -0.00103513 -0.05899996 0.30098701
v -0.00196902 -0.05899996 0.30051121
v -0.00236879 -0.05899996 0.30016980
v -0.00334994 -0.05899996 0.29780099
v -0.00298480 -0.05899996 0.29932180
v -0.00318597 -0.05899996 0.29883620
v -0.00334994 -0.05899996 0.29780099
v -0.00318597 -0.05899996 0.29883620
v -0.00330869 -0.05899996 0.29832500
v -0.00334994 -0.05899996 0.29780099
v -0.00236879 -0.05899996 0.30016980
v -0.00298480 -0.05899996 0.29932180
v -0.00334994 -0.05899996 0.29780099
v 0.00000002 -0.05899996 0.30115101
v -0.00052404 -0.05899996 0.30110970
v 0.00058174 -0.05899996 0.30110011
v 0.00215336 -0.05899996 0.30036721
v 0.00167497 -0.05899996 0.30070221
v 0.00114574 -0.05899996 0.30094889
v 0.00215336 -0.05899996 0.30036721
v 0.00114574 -0.05899996 0.30094889
v 0.00058174 -0.05899996 0.30110011
v 0.00215336 -0.05899996 0.30036721
v 0.00314798 -0.05899996 0.29894671
v 0.00290116 -0.05899996 0.29947600
v 0.00256624 -0.05899996 0.29995430
v 0.00314798 -0.05899996 0.29894671
v 0.00256624 -0.05899996 0.29995430
v 0.00334998 -0.05899996 0.29780099
v 0.00329908 -0.05899996 0.29838270
v 0.00314798 -0.05899996 0.29894671
v 0.00334998 -0.05899996 0.29780099
v 0.00334998 -0.05899996 0.29780099
v 0.00314798 -0.05899996 0.29894671
v 0.00215336 -0.05899996 0.30036721
v -0.00298480 -0.05899996 0.25068009
v -0.00334994 -0.05899996 0.25220099
v -0.00330869 -0.05899996 0.25167689
v -0.00298480 -0.05899996 0.25068009
v -0.00330869 -0.05899996 0.25167689
v -0.00318597 -0.05899996 0.25116581
v -0.00196902 -0.05899996 0.24949069
v -0.00271014 -0.05899996 0.25023189
v -0.00196902 -0.05899996 0.24949069
v -0.00271014 -0.05899996 0.25023189
v -0.00236879 -0.05899996 0.24983220
v -0.00152079 -0.05899996 0.24921609
v -0.00298480 -0.05899996 0.25068009
v -0.00196902 -0.05899996 0.24949069
v 0.00334998 -0.05899996 0.25220099
v -0.00334994 -0.05899996 0.25220099
v 0.00329908 -0.05899996 0.25161919
v 0.00058174 -0.05899996 0.24890190
v -0.00103513 -0.05899996 0.24901490
v -0.00052404 -0.05899996 0.24889220
v 0.00000002 -0.05899996 0.24885100
v 0.00167497 -0.05899996 0.24929979
v -0.00152079 -0.05899996 0.24921609
v 0.00114574 -0.05899996 0.24905300
v 0.00256624 -0.05899996 0.25004759
v 0.00215336 -0.05899996 0.24963470
v 0.00256624 -0.05899996 0.25004759
v 0.00290116 -0.05899996 0.25052601
v 0.00314798 -0.05899996 0.25105521
v 0.00314798 -0.05899996 0.25105521
v -0.00052407 0.05899994 0.24889220
v -0.00000002 0.05899994 0.24885100
v -0.00031692 0.05899905 0.24886639
v -0.00063828 0.05899642 0.24891320
v -0.00103517 0.05899994 0.24901490
v -0.00106068 0.05899040 0.24902360
v -0.00152083 0.05899994 0.24921609
v -0.00146719 0.05898170 0.24918960
v -0.00184627 0.05897103 0.24940680
v -0.00196906 0.05899994 0.24949069
v -0.00218876 0.05895935 0.24966531
v -0.00236883 0.05899994 0.24983220
v -0.00248762 0.05894749 0.24995750
v -0.00271018 0.05899994 0.25023189
v -0.00275232 0.05893569 0.25029281
v -0.00298484 0.05899994 0.25068009
v -0.00297733 0.05892478 0.25066629
v -0.00318601 0.05899994 0.25116581
v -0.00315507 0.05891554 0.25107551
v -0.00330873 0.05899994 0.25167689
v -0.00330146 0.05890755 0.25163820
v -0.00334998 0.05899994 0.25220099
v -0.00334998 0.05890475 0.25220099
v -0.00334998 0.05899993 0.29780099
v -0.00334998 0.05890475 0.25220099
v -0.00334998 0.05890474 0.29780099
v -0.00334998 0.05899994 0.25220099
v 0.00063824 0.05899642 0.30108869
v 0.00058170 0.05899994 0.30110011
v 0.00031688 0.05899905 0.30113539
v 0.00114570 0.05899994 0.30094889
v 0.00106064 0.05899040 0.30097830
v 0.00146715 0.05898170 0.30081230
v 0.00167493 0.05899994 0.30070221
v 0.00184623 0.05897103 0.30059519
v 0.00215332 0.05899994 0.30036721
v 0.00218872 0.05895935 0.30033660
v 0.00256620 0.05899994 0.29995430
v 0.00248758 0.05894749 0.30004439
v 0.00275228 0.05893569 0.29970920
v 0.00290112 0.05899994 0.29947600
v 0.00297729 0.05892478 0.29933569
v 0.00314794 0.05899994 0.29894671
v 0.00315503 0.05891554 0.29892650
v 0.00329904 0.05899994 0.29838270
v 0.00330142 0.05890755 0.29836380
v 0.00334994 0.05899994 0.29780099
v 0.00334994 0.05890475 0.29780099
v -0.00000002 0.05899993 0.30115101
v -0.00334998 0.05899993 0.29780099
v -0.00334998 0.05890474 0.29780099
v -0.00334026 0.05890534 0.29805619
v -0.00330873 0.05899993 0.29832500
v -0.00331112 0.05890695 0.29830989
v -0.00324513 0.05891065 0.29863250
v -0.00318601 0.05899993 0.29883620
v -0.00314810 0.05891589 0.29894629
v -0.00302102 0.05892257 0.29924870
v -0.00298484 0.05899993 0.29932180
v -0.00286474 0.05893037 0.29953751
v -0.00271018 0.05899993 0.29977009
v -0.00265761 0.05894009 0.29984051
v -0.00236936 0.05895238 0.30016920
v -0.00236883 0.05899993 0.30016980
v -0.00204064 0.05896464 0.30045769
v -0.00196906 0.05899993 0.30051121
v -0.00167622 0.05897615 0.30070141
v -0.00152083 0.05899993 0.30078581
v -0.00128366 0.05898599 0.30089530
v -0.00103517 0.05899993 0.30098701
v -0.00086840 0.05899356 0.30103651
v -0.00052407 0.05899993 0.30110970
v -0.00043810 0.05899832 0.30112219
v -0.00000002 0.05899993 0.30115101
v 0.00334994 0.05899994 0.25220099
v 0.00334994 0.05890475 0.25220099
v 0.00334022 0.05890535 0.25194570
v 0.00329904 0.05899994 0.25161919
v 0.00331108 0.05890696 0.25169209
v 0.00324510 0.05891065 0.25136951
v 0.00314794 0.05899994 0.25105521
v 0.00314806 0.05891590 0.25105569
v 0.00302098 0.05892257 0.25075319
v 0.00290112 0.05899994 0.25052601
v 0.00286470 0.05893038 0.25046441
v 0.00265757 0.05894010 0.25016150
v 0.00256620 0.05899994 0.25004759
v 0.00236932 0.05895238 0.24983270
v 0.00215332 0.05899994 0.24963470
v 0.00204060 0.05896465 0.24954420
v 0.00167493 0.05899994 0.24929979
v 0.00167618 0.05897616 0.24930049
v 0.00128363 0.05898599 0.24910671
v 0.00114570 0.05899994 0.24905300
v 0.00086837 0.05899356 0.24896550
v 0.00058170 0.05899994 0.24890190
v 0.00043807 0.05899833 0.24887970
v -0.00000002 0.05899994 0.24885100
v 0.00334994 0.05899994 0.25220099
v 0.00334994 0.05890475 0.29780099
v 0.00334994 0.05890475 0.25220099
v 0.00334994 0.05899994 0.29780099
v -0.00196906 0.05899994 0.24949069
v -0.00236883 0.05899994 0.24983220
v -0.00271018 0.05899994 0.25023189
v -0.00318601 0.05899994 0.25116581
v -0.00298484 0.05899994 0.25068009
v -0.00103517 0.05899994 0.24901490
v -0.00152083 0.05899994 0.24921609
v -0.00334998 0.05899994 0.25220099
v -0.00330873 0.05899994 0.25167689
v -0.00334998 0.05899994 0.25220099
v -0.00271018 0.05899994 0.25023189
v -0.00318601 0.05899994 0.25116581
v 0.00058170 0.05899994 0.24890190
v -0.00000002 0.05899994 0.24885100
v -0.00052407 0.05899994 0.24889220
v 0.00215332 0.05899994 0.24963470
v 0.00167493 0.05899994 0.24929979
v 0.00114570 0.05899994 0.24905300
v 0.00215332 0.05899994 0.24963470
v 0.00114570 0.05899994 0.24905300
v 0.00290112 0.05899994 0.25052601
v 0.00256620 0.05899994 0.25004759
v 0.00215332 0.05899994 0.24963470
v 0.00329904 0.05899994 0.25161919
v 0.00314794 0.05899994 0.25105521
v 0.00290112 0.05899994 0.25052601
v 0.00334994 0.05899994 0.25220099
v 0.00329904 0.05899994 0.25161919
v 0.00058170 0.05899994 0.24890190
v -0.00318601 0.05899993 0.29883620
v -0.00334998 0.05899993 0.29780099
v -0.00330873 0.05899993 0.29832500
v -0.00298484 0.05899993 0.29932180
v -0.00334998 0.05899993 0.29780099
v -0.00318601 0.05899993 0.29883620
v -0.00236883 0.05899993 0.30016980
v -0.00298484 0.05899993 0.29932180
v -0.00271018 0.05899993 0.29977009
v -0.00196906 0.05899993 0.30051121
v 0.00334994 0.05899994 0.29780099
v -0.00334998 0.05899993 0.29780099
v 0.00058170 0.05899994 0.30110011
v -0.00103517 0.05899993 0.30098701
v -0.00052407 0.05899993 0.30110970
v -0.00000002 0.05899993 0.30115101
v 0.00314794 0.05899994 0.29894671
v 0.00329904 0.05899994 0.29838270
v 0.00334994 0.05899994 0.29780099
v 0.00167493 0.05899994 0.30070221
v -0.00152083 0.05899993 0.30078581
v 0.00114570 0.05899994 0.30094889
v 0.00256620 0.05899994 0.29995430
v 0.00290112 0.05899994 0.29947600
v 0.00215332 0.05899994 0.30036721
v 0.00215332 0.05899994 0.30036721
v 0.00314794 0.05899994 0.29894671
v 0.00334994 0.05899994 0.29780099
v 0.00256620 0.05899994 0.29995430
v 0.00314794 0.05899994 0.29894671
v -0.01024518 -0.05810363 0.13919909
v 0.00000002 -0.05912829 0.13724120
v 0.00000002 -0.05899996 0.13919909
v -0.01044348 -0.05922813 0.13345879
v 0.00000002 -0.06100959 0.13169910
v 0.00000002 -0.06014181 0.13345879
v -0.01059416 -0.06008274 0.13169910
v -0.01033393 -0.05860699 0.13531680
v 0.00000002 -0.05951107 0.13531680
v -0.01026747 -0.05822999 0.13724120
v -0.02056966 -0.05651480 0.13345879
v -0.02086649 -0.05733026 0.13169910
v -0.02035395 -0.05592216 0.13531680
v -0.02022306 -0.05556244 0.13724120
v -0.02017913 -0.05544186 0.13919909
v -0.03007088 -0.05208433 0.13345879
v -0.03050474 -0.05283590 0.13169910
v -0.02975551 -0.05153811 0.13531680
v -0.02956412 -0.05120660 0.13724120
v -0.02949992 -0.05109549 0.13919909
v -0.03865837 -0.04607131 0.13345879
v -0.03921621 -0.04673608 0.13169910
v -0.03825298 -0.04558815 0.13531680
v -0.03800695 -0.04529490 0.13724120
v -0.03792445 -0.04519661 0.13919909
v -0.04519658 -0.03792448 0.13919909
v -0.04607128 -0.03865840 0.13345879
v -0.04673605 -0.03921624 0.13169910
v -0.04558812 -0.03825302 0.13531680
v -0.04529487 -0.03800698 0.13724120
v -0.05208431 -0.03007092 0.13345879
v -0.05283587 -0.03050478 0.13169910
v -0.05153809 -0.02975555 0.13531680
v -0.05120657 -0.02956416 0.13724120
v -0.05109547 -0.02949996 0.13919909
v -0.05544184 -0.02017917 0.13919909
v -0.05651478 -0.02056970 0.13345879
v -0.05733024 -0.02086653 0.13169910
v -0.05592214 -0.02035399 0.13531680
v -0.05556242 -0.02022310 0.13724120
v -0.05922811 -0.01044353 0.13345879
v -0.06008273 -0.01059420 0.13169910
v -0.05860697 -0.01033397 0.13531680
v -0.05822998 -0.01026751 0.13724120
v -0.05810362 -0.01024523 0.13919909
v -0.06014180 -0.00000003 0.13345879
v -0.06100958 -0.00000003 0.13169910
v -0.05951106 -0.00000003 0.13531680
v -0.05912828 -0.00000003 0.13724120
v -0.05899995 -0.00000003 0.13919909
v -0.05922812 0.01044348 0.13345879
v -0.06008273 0.01059415 0.13169910
v -0.05860698 0.01033392 0.13531680
v -0.05822998 0.01026746 0.13724120
v -0.05810362 0.01024518 0.13919909
v -0.05651480 0.02056966 0.13345879
v -0.05733026 0.02086649 0.13169910
v -0.05592216 0.02035394 0.13531680
v -0.05556244 0.02022306 0.13724120
v -0.05544186 0.02017913 0.13919909
v -0.05208433 0.03007088 0.13345879
v -0.05283589 0.03050474 0.13169910
v -0.05153811 0.02975551 0.13531680
v -0.05120659 0.02956412 0.13724120
v -0.05109549 0.02949992 0.13919909
v -0.04607130 0.03865836 0.13345879
v -0.04673607 0.03921620 0.13169910
v -0.04558814 0.03825298 0.13531680
v -0.04529489 0.03800694 0.13724120
v -0.04519660 0.03792444 0.13919909
v -0.03792448 0.04519657 0.13919909
v -0.03865840 0.04607127 0.13345879
v -0.03921624 0.04673604 0.13169910
v -0.03825301 0.04558811 0.13531680
v -0.03800698 0.04529486 0.13724120
v -0.02949996 0.05109546 0.13919909
v -0.03007092 0.05208430 0.13345879
v -0.03050478 0.05283587 0.13169910
v -0.02975555 0.05153808 0.13531680
v -0.02956416 0.05120657 0.13724120
v -0.02056970 0.05651478 0.13345879
v -0.02086653 0.05733024 0.13169910
v -0.02035399 0.05592214 0.13531680
v -0.02022310 0.05556242 0.13724120
v -0.02017917 0.05544184 0.13919909
v -0.01044352 0.05922811 0.13345879
v -0.01059420 0.06008272 0.13169910
v -0.01033397 0.05860697 0.13531680
v -0.01026751 0.05822997 0.13724120
v -0.01024522 0.05810361 0.13919909
v -0.00000002 0.06014179 0.13345879
v -0.00000002 0.06100957 0.13169910
v -0.00000002 0.05951105 0.13531680
v -0.00000002 0.05912827 0.13724120
v -0.00000002 0.05899994 0.13919909
v 0.01024518 0.05810362 0.13919909
v 0.01044348 0.05922811 0.13345879
v 0.01059416 0.06008273 0.13169910
v 0.01033393 0.05860697 0.13531680
v 0.01026747 0.05822998 0.13724120
v 0.02056966 0.05651479 0.13345879
v 0.02086649 0.05733025 0.13169910
v 0.02035395 0.05592215 0.13531680
v 0.02022306 0.05556243 0.13724120
v 0.02017913 0.05544185 0.13919909
v 0.03007088 0.05208432 0.13345879
v 0.03050474 0.05283589 0.13169910
v 0.02975551 0.05153810 0.13531680
v 0.02956412 0.05120659 0.13724120
v 0.02949992 0.05109548 0.13919909
v 0.03792445 0.04519660 0.13919909
v 0.03865837 0.04607130 0.13345879
v 0.03921621 0.04673607 0.13169910
v 0.03825298 0.04558814 0.13531680
v 0.03800695 0.04529489 0.13724120
v 0.04607128 0.03865839 0.13345879
v 0.04673605 0.03921623 0.13169910
v 0.04558812 0.03825301 0.13531680
v 0.04529487 0.03800697 0.13724120
v 0.04519658 0.03792447 0.13919909
v 0.05208431 0.03007091 0.13345879
v 0.05283587 0.03050477 0.13169910
v 0.05153809 0.02975554 0.13531680
v 0.05120657 0.02956415 0.13724120
v 0.05109547 0.02949995 0.13919909
v 0.05651478 0.02056969 0.13345879
v 0.05733024 0.02086652 0.13169910
v 0.05592214 0.02035398 0.13531680
v 0.05556242 0.02022309 0.13724120
v 0.05544184 0.02017916 0.13919909
v 0.05922811 0.01044351 0.13345879
v 0.06008273 0.01059419 0.13169910
v 0.05860697 0.01033396 0.13531680
v 0.05822998 0.01026750 0.13724120
v 0.05810362 0.01024521 0.13919909
v 0.06014180 0.00000001 0.13345879
v 0.06100958 0.00000001 0.13169910
v 0.05951106 0.00000001 0.13531680
v 0.05912828 0.00000001 0.13724120
v 0.05899995 0.00000001 0.13919909
v 0.05922812 -0.01044349 0.13345879
v 0.06008273 -0.01059417 0.13169910
v 0.05860698 -0.01033394 0.13531680
v 0.05822998 -0.01026748 0.13724120
v 0.05810362 -0.01024519 0.13919909
v 0.05651480 -0.02056967 0.13345879
v 0.05733026 -0.02086650 0.13169910
v 0.05592216 -0.02035396 0.13531680
v 0.05556244 -0.02022307 0.13724120
v 0.05544186 -0.02017914 0.13919909
v 0.05208433 -0.03007089 0.13345879
v 0.05283589 -0.03050475 0.13169910
v 0.05153811 -0.02975552 0.13531680
v 0.05120659 -0.02956413 0.13724120
v 0.05109549 -0.02949993 0.13919909
v 0.04607130 -0.03865837 0.13345879
v 0.03921624 -0.04673605 0.13169910
v 0.04673607 -0.03921621 0.13169910
v 0.04558814 -0.03825299 0.13531680
v 0.04529489 -0.03800695 0.13724120
v 0.04519660 -0.03792445 0.13919909
v 0.03865840 -0.04607128 0.13345879
v 0.03825301 -0.04558812 0.13531680
v 0.03800698 -0.04529487 0.13724120
v 0.03792448 -0.04519658 0.13919909
v 0.03007092 -0.05208432 0.13345879
v 0.03050478 -0.05283588 0.13169910
v 0.02975555 -0.05153809 0.13531680
v 0.02956416 -0.05120658 0.13724120
v 0.02949996 -0.05109547 0.13919909
v 0.02056970 -0.05651479 0.13345879
v 0.01059420 -0.06008273 0.13169910
v 0.02086653 -0.05733025 0.13169910
v 0.02035399 -0.05592215 0.13531680
v 0.02022310 -0.05556243 0.13724120
v 0.02017917 -0.05544185 0.13919909
v 0.01044352 -0.05922812 0.13345879
v 0.00000002 -0.06014181 0.13345879
v 0.00000002 -0.06100959 0.13169910
v 0.01033397 -0.05860698 0.13531680
v 0.00000002 -0.05951107 0.13531680
v 0.01026751 -0.05822998 0.13724120
v 0.00000002 -0.05912829 0.13724120
v 0.00000002 -0.05899996 0.13919909
v 0.01024522 -0.05810362 0.13919909
v -0.00031688 -0.05899908 0.30113539
v 0.00000002 -0.05899996 0.30115101
v 0.00000002 -0.05899996 0.33750099
v -0.00063824 -0.05899645 0.30108869
v -0.00106064 -0.05899043 0.30097830
v -0.00146715 -0.05898172 0.30081230
v -0.00184623 -0.05897105 0.30059519
v -0.00218872 -0.05895938 0.30033660
v -0.00248758 -0.05894751 0.30004439
v -0.00275228 -0.05893572 0.29970920
v -0.00297729 -0.05892481 0.29933569
v -0.00315503 -0.05891557 0.29892650
v -0.01024518 -0.05810364 0.33750099
v -0.00334994 -0.05890477 0.29780099
v -0.00330142 -0.05890758 0.29836380
v -0.00334994 -0.05890477 0.25220099
v 0.00000002 -0.05899996 0.24885100
v -0.00043807 -0.05899835 0.24887970
v -0.00086837 -0.05899358 0.24896550
v -0.00128363 -0.05898601 0.24910671
v -0.00167618 -0.05897618 0.24930049
v -0.00204060 -0.05896467 0.24954420
v -0.00236932 -0.05895240 0.24983270
v -0.00265757 -0.05894012 0.25016150
v -0.00286470 -0.05893040 0.25046441
v -0.00302098 -0.05892259 0.25075319
v -0.00314806 -0.05891592 0.25105569
v -0.01024518 -0.05810363 0.13919909
v -0.00324510 -0.05891067 0.25136951
v -0.00331108 -0.05890698 0.25169209
v -0.00334022 -0.05890537 0.25194570
v -0.02017913 -0.05544187 0.33750099
v -0.02949992 -0.05109550 0.33750099
v -0.03792445 -0.04519661 0.13919909
v -0.03792445 -0.04519662 0.33750099
v -0.04519658 -0.03792448 0.13919909
v -0.04519658 -0.03792449 0.33750099
v -0.05109547 -0.02949996 0.13919909
v -0.05109547 -0.02949997 0.33750099
v -0.05544184 -0.02017917 0.13919909
v -0.05544184 -0.02017918 0.33750099
v -0.05810362 -0.01024523 0.33750099
v -0.05899995 -0.00000003 0.33750099
v -0.05810362 0.01024517 0.33750099
v -0.05544186 0.02017912 0.33750099
v -0.05109549 0.02949991 0.33750099
v -0.04519660 0.03792444 0.13919909
v -0.04519660 0.03792443 0.33750099
v -0.03792448 0.04519656 0.33750099
v -0.02949996 0.05109546 0.13919909
v -0.02949996 0.05109545 0.33750099
v -0.02017917 0.05544183 0.33750099
v -0.00331112 0.05890695 0.29830989
v -0.00334026 0.05890534 0.29805619
v -0.01024522 0.05810360 0.33750099
v -0.00334998 0.05890474 0.29780099
v -0.00324513 0.05891065 0.29863250
v -0.00000002 0.05899993 0.33750099
v -0.00314810 0.05891589 0.29894629
v -0.00302102 0.05892257 0.29924870
v -0.00286474 0.05893037 0.29953751
v -0.00265761 0.05894009 0.29984051
v -0.00236936 0.05895238 0.30016920
v -0.00204064 0.05896464 0.30045769
v -0.00167622 0.05897615 0.30070141
v -0.00128366 0.05898599 0.30089530
v -0.00086840 0.05899356 0.30103651
v -0.00043810 0.05899832 0.30112219
v -0.00000002 0.05899993 0.30115101
v 0.00031688 0.05899905 0.30113539
v 0.00063824 0.05899642 0.30108869
v 0.00106064 0.05899040 0.30097830
v 0.00146715 0.05898170 0.30081230
v -0.00334998 0.05890475 0.25220099
v 0.00184623 0.05897103 0.30059519
v 0.00218872 0.05895935 0.30033660
v 0.00248758 0.05894749 0.30004439
v 0.00275228 0.05893569 0.29970920
v 0.00297729 0.05892478 0.29933569
v 0.00315503 0.05891554 0.29892650
v -0.01024522 0.05810361 0.13919909
v -0.00330146 0.05890755 0.25163820
v -0.00315507 0.05891554 0.25107551
v 0.01024518 0.05810361 0.33750099
v 0.00334994 0.05890475 0.29780099
v 0.00330142 0.05890755 0.29836380
v 0.00334994 0.05890475 0.25220099
v -0.00000002 0.05899994 0.13919909
v -0.00297733 0.05892478 0.25066629
v -0.00275232 0.05893569 0.25029281
v -0.00248762 0.05894749 0.24995750
v -0.00218876 0.05895935 0.24966531
v -0.00184627 0.05897103 0.24940680
v -0.00146719 0.05898170 0.24918960
v -0.00106068 0.05899040 0.24902360
v -0.00063828 0.05899642 0.24891320
v -0.00031692 0.05899905 0.24886639
v -0.00000002 0.05899994 0.24885100
v 0.00043807 0.05899833 0.24887970
v 0.00086837 0.05899356 0.24896550
v 0.00128363 0.05898599 0.24910671
v 0.00167618 0.05897616 0.24930049
v 0.00204060 0.05896465 0.24954420
v 0.00236932 0.05895238 0.24983270
v 0.00265757 0.05894010 0.25016150
v 0.00286470 0.05893038 0.25046441
v 0.00302098 0.05892257 0.25075319
v 0.00314806 0.05891590 0.25105569
v 0.01024518 0.05810362 0.13919909
v 0.00324510 0.05891065 0.25136951
v 0.00331108 0.05890696 0.25169209
v 0.00334022 0.05890535 0.25194570
v 0.02017913 0.05544184 0.33750099
v 0.02949992 0.05109548 0.13919909
v 0.02949992 0.05109547 0.33750099
v 0.03792445 0.04519660 0.13919909
v 0.03792445 0.04519659 0.33750099
v 0.04519658 0.03792446 0.33750099
v 0.05109547 0.02949994 0.33750099
v 0.05544184 0.02017915 0.33750099
v 0.05810362 0.01024520 0.33750099
v 0.05899995 0.00000000 0.33750099
v 0.05810362 -0.01024520 0.33750099
v 0.05544186 -0.02017915 0.33750099
v 0.05109549 -0.02949994 0.33750099
v 0.04519660 -0.03792446 0.33750099
v 0.03792448 -0.04519659 0.33750099
v 0.02949996 -0.05109548 0.33750099
v 0.02017917 -0.05544186 0.33750099
v 0.00331112 -0.05890698 0.29830989
v 0.00334026 -0.05890537 0.29805619
v 0.01024522 -0.05810363 0.33750099
v 0.00334998 -0.05890477 0.29780099
v 0.00324513 -0.05891067 0.29863250
v 0.00000002 -0.05899996 0.33750099
v 0.00314810 -0.05891592 0.29894629
v 0.00302102 -0.05892259 0.29924870
v 0.00286474 -0.05893040 0.29953751
v 0.00265761 -0.05894012 0.29984051
v 0.00236936 -0.05895240 0.30016920
v 0.00204064 -0.05896467 0.30045769
v 0.00167622 -0.05897618 0.30070141
v 0.00128366 -0.05898601 0.30089530
v 0.00086840 -0.05899358 0.30103651
v 0.00043810 -0.05899835 0.30112219
v 0.00000002 -0.05899996 0.30115101
v 0.00334998 -0.05890477 0.25220099
v 0.01024522 -0.05810362 0.13919909
v 0.00330146 -0.05890757 0.25163820
v 0.00315507 -0.05891556 0.25107551
v 0.00000002 -0.05899996 0.13919909
v 0.00297733 -0.05892480 0.25066629
v 0.00275232 -0.05893571 0.25029281
v 0.00248762 -0.05894751 0.24995750
v 0.00218876 -0.05895937 0.24966531
v 0.00184627 -0.05897105 0.24940680
v 0.00146719 -0.05898172 0.24918960
v 0.00106068 -0.05899042 0.24902360
v 0.00063828 -0.05899644 0.24891320
v 0.00031692 -0.05899907 0.24886639
v 0.00000002 -0.05899996 0.24885100
v 0.00000002 -0.06796890 0.11964520
v 0.00000002 -0.06100959 0.13169910
v -0.01059416 -0.06008274 0.13169910
v -0.01301107 -0.07378983 0.10759140
v 0.00000002 -0.07492816 0.10759140
v 0.00000002 -0.06796890 0.11964520
v 0.01059420 -0.06008273 0.13169910
v 0.00000002 -0.06100959 0.13169910
v 0.00000002 -0.07492816 0.10759140
v 0.01301111 -0.07378983 0.10759140
v -0.02206943 -0.06428619 0.11964520
v -0.02562693 -0.07040948 0.10759140
v -0.03746406 -0.06488974 0.10759140
v -0.02086649 -0.05733026 0.13169910
v -0.03050474 -0.05283590 0.13169910
v -0.04174731 -0.05363698 0.11964520
v -0.04816285 -0.05739833 0.10759140
v -0.05739830 -0.04816289 0.10759140
v -0.03921621 -0.04673608 0.13169910
v -0.04673605 -0.03921624 0.13169910
v -0.05690126 -0.03717543 0.11964520
v -0.06488971 -0.03746410 0.10759140
v -0.07040946 -0.02562698 0.10759140
v -0.05283587 -0.03050478 0.13169910
v -0.05733024 -0.02086653 0.13169910
v -0.06588905 -0.01668539 0.11964520
v -0.07378982 -0.01301112 0.10759140
v -0.07492816 -0.00000003 0.10759140
v -0.06008273 -0.01059420 0.13169910
v -0.06100958 -0.00000003 0.13169910
v -0.06773674 0.00561276 0.11964520
v -0.07378983 0.01301106 0.10759140
v -0.06008273 0.01059415 0.13169910
v -0.06224412 0.02730277 0.11964520
v -0.07040948 0.02562692 0.10759140
v -0.06488974 0.03746405 0.10759140
v -0.05733026 0.02086649 0.13169910
v -0.05283589 0.03050474 0.13169910
v -0.05000634 0.04603401 0.11964520
v -0.05739833 0.04816285 0.10759140
v -0.04816289 0.05739829 0.10759140
v -0.04673607 0.03921620 0.13169910
v -0.03921624 0.04673604 0.13169910
v -0.03234960 0.05977682 0.11964520
v -0.03746410 0.06488971 0.10759140
v -0.02562697 0.07040945 0.10759140
v -0.03050478 0.05283587 0.13169910
v -0.02086653 0.05733024 0.13169910
v -0.01118733 0.06704186 0.11964520
v -0.01301111 0.07378982 0.10759140
v -0.00000002 0.07492815 0.10759140
v -0.01059420 0.06008272 0.13169910
v -0.00000002 0.06100957 0.13169910
v 0.01118729 0.06704187 0.11964520
v 0.01301107 0.07378983 0.10759140
v 0.02562693 0.07040947 0.10759140
v 0.01059416 0.06008273 0.13169910
v 0.02086649 0.05733025 0.13169910
v 0.03234956 0.05977684 0.11964520
v 0.03746406 0.06488973 0.10759140
v 0.04816285 0.05739832 0.10759140
v 0.03050474 0.05283589 0.13169910
v 0.03921621 0.04673607 0.13169910
v 0.05000632 0.04603404 0.11964520
v 0.05739830 0.04816289 0.10759140
v 0.06488971 0.03746409 0.10759140
v 0.04673605 0.03921623 0.13169910
v 0.05283587 0.03050477 0.13169910
v 0.06224410 0.02730281 0.11964520
v 0.07040946 0.02562697 0.10759140
v 0.07378982 0.01301111 0.10759140
v 0.05733024 0.02086652 0.13169910
v 0.06008273 0.01059419 0.13169910
v 0.06773674 0.00561281 0.11964520
v 0.07492816 0.00000002 0.10759140
v 0.06100958 0.00000001 0.13169910
v 0.06588907 -0.01668534 0.11964520
v 0.07378983 -0.01301107 0.10759140
v 0.07040948 -0.02562693 0.10759140
v 0.06008273 -0.01059417 0.13169910
v 0.05733026 -0.02086650 0.13169910
v 0.05690128 -0.03717539 0.11964520
v 0.06488974 -0.03746406 0.10759140
v 0.05739833 -0.04816286 0.10759140
v 0.05283589 -0.03050475 0.13169910
v 0.04174735 -0.05363695 0.11964520
v 0.04816289 -0.05739830 0.10759140
v 0.03746410 -0.06488971 0.10759140
v 0.03921624 -0.04673605 0.13169910
v 0.03050478 -0.05283588 0.13169910
v 0.02206947 -0.06428617 0.11964520
v 0.02562697 -0.07040947 0.10759140
v 0.02086653 -0.05733025 0.13169910
v -0.01318540 0.07477795 0.10463560
v -0.00000002 0.07593153 0.10463560
v -0.00000002 0.07599996 0.10359140
v -0.01319726 0.07484537 0.10359140
v -0.01314993 0.07457690 0.10566190
v -0.00000002 0.07572740 0.10566190
v -0.01309152 0.07424562 0.10665290
v -0.00000002 0.07492815 0.10759140
v -0.00000002 0.07539098 0.10665290
v -0.02597012 0.07135229 0.10463560
v -0.02599354 0.07141659 0.10359140
v -0.02590032 0.07116047 0.10566190
v -0.02578522 0.07084434 0.10665290
v -0.02562697 0.07040945 0.10759140
v -0.03796579 0.06575862 0.10463560
v -0.03800000 0.06581788 0.10359140
v -0.03786369 0.06558184 0.10566190
v -0.03769548 0.06529050 0.10665290
v -0.04880787 0.05816690 0.10463560
v -0.04885186 0.05821935 0.10359140
v -0.04867662 0.05801049 0.10566190
v -0.04846044 0.05775282 0.10665290
v -0.05816694 0.04880783 0.10463560
v -0.05821938 0.04885182 0.10359140
v -0.05801053 0.04867658 0.10566190
v -0.05775286 0.04846040 0.10665290
v -0.05739833 0.04816285 0.10759140
v -0.06575865 0.03796574 0.10463560
v -0.06581791 0.03799995 0.10359140
v -0.07141662 0.02599349 0.10359140
v -0.06558187 0.03786365 0.10566190
v -0.06529053 0.03769543 0.10665290
v -0.07135231 0.02597007 0.10463560
v -0.07116050 0.02590027 0.10566190
v -0.07084436 0.02578517 0.10665290
v -0.07040948 0.02562692 0.10759140
v -0.07477797 0.01318535 0.10463560
v -0.07484538 0.01319721 0.10359140
v -0.07599997 -0.00000003 0.10359140
v -0.07457691 0.01314988 0.10566190
v -0.07424564 0.01309147 0.10665290
v -0.07593154 -0.00000003 0.10463560
v -0.07484537 -0.01319727 0.10359140
v -0.07572740 -0.00000003 0.10566190
v -0.07539099 -0.00000003 0.10665290
v -0.07492816 -0.00000003 0.10759140
v -0.07477795 -0.01318541 0.10463560
v -0.07457690 -0.01314994 0.10566190
v -0.07424562 -0.01309153 0.10665290
v -0.07378982 -0.01301112 0.10759140
v -0.07135230 -0.02597013 0.10463560
v -0.07141660 -0.02599355 0.10359140
v -0.07116048 -0.02590033 0.10566190
v -0.07084434 -0.02578523 0.10665290
v -0.06575862 -0.03796580 0.10463560
v -0.06581788 -0.03800001 0.10359140
v -0.06558184 -0.03786370 0.10566190
v -0.06529050 -0.03769549 0.10665290
v -0.06488971 -0.03746410 0.10759140
v -0.05816691 -0.04880787 0.10463560
v -0.05821935 -0.04885186 0.10359140
v -0.05801050 -0.04867662 0.10566190
v -0.05775283 -0.04846044 0.10665290
v -0.05739830 -0.04816289 0.10759140
v -0.04880783 -0.05816694 0.10463560
v -0.04885182 -0.05821939 0.10359140
v -0.04867658 -0.05801053 0.10566190
v -0.04846040 -0.05775286 0.10665290
v -0.04816285 -0.05739833 0.10759140
v -0.03796575 -0.06575865 0.10463560
v -0.03799996 -0.06581791 0.10359140
v -0.03786365 -0.06558187 0.10566190
v -0.03769544 -0.06529053 0.10665290
v -0.03746406 -0.06488974 0.10759140
v -0.02597008 -0.07135232 0.10463560
v -0.02599350 -0.07141662 0.10359140
v -0.02590028 -0.07116050 0.10566190
v -0.02578518 -0.07084437 0.10665290
v -0.02562693 -0.07040948 0.10759140
v -0.01318536 -0.07477797 0.10463560
v -0.01319722 -0.07484538 0.10359140
v 0.00000002 -0.07599998 0.10359140
v -0.01314989 -0.07457691 0.10566190
v -0.01309148 -0.07424564 0.10665290
v -0.01301107 -0.07378983 0.10759140
v 0.00000002 -0.07593155 0.10463560
v 0.00000002 -0.07572741 0.10566190
v 0.00000002 -0.07539099 0.10665290
v 0.00000002 -0.07492816 0.10759140
v 0.01318540 -0.07477796 0.10463560
v 0.01319726 -0.07484537 0.10359140
v 0.02599354 -0.07141660 0.10359140
v 0.01314993 -0.07457691 0.10566190
v 0.01309152 -0.07424563 0.10665290
v 0.01301111 -0.07378983 0.10759140
v 0.02597012 -0.07135230 0.10463560
v 0.02590032 -0.07116048 0.10566190
v 0.02578522 -0.07084434 0.10665290
v 0.02562697 -0.07040947 0.10759140
v 0.03796579 -0.06575863 0.10463560
v 0.03800000 -0.06581789 0.10359140
v 0.03786369 -0.06558184 0.10566190
v 0.03769548 -0.06529050 0.10665290
v 0.03746410 -0.06488971 0.10759140
v 0.04880787 -0.05816691 0.10463560
v 0.04885186 -0.05821936 0.10359140
v 0.04867662 -0.05801050 0.10566190
v 0.04846044 -0.05775283 0.10665290
v 0.04816289 -0.05739830 0.10759140
v 0.05816694 -0.04880783 0.10463560
v 0.05821938 -0.04885183 0.10359140
v 0.05801053 -0.04867658 0.10566190
v 0.05775286 -0.04846041 0.10665290
v 0.05739833 -0.04816286 0.10759140
v 0.06575865 -0.03796575 0.10463560
v 0.06581791 -0.03799996 0.10359140
v 0.06558187 -0.03786366 0.10566190
v 0.06529053 -0.03769545 0.10665290
v 0.06488974 -0.03746406 0.10759140
v 0.07135231 -0.02597008 0.10463560
v 0.07141662 -0.02599350 0.10359140
v 0.07116050 -0.02590028 0.10566190
v 0.07084436 -0.02578518 0.10665290
v 0.07040948 -0.02562693 0.10759140
v 0.07477797 -0.01318536 0.10463560
v 0.07484538 -0.01319722 0.10359140
v 0.07457691 -0.01314989 0.10566190
v 0.07424564 -0.01309148 0.10665290
v 0.07378983 -0.01301107 0.10759140
v 0.07593154 0.00000002 0.10463560
v 0.07599997 0.00000002 0.10359140
v 0.07572740 0.00000002 0.10566190
v 0.07539099 0.00000002 0.10665290
v 0.07492816 0.00000002 0.10759140
v 0.07477795 0.01318540 0.10463560
v 0.07484537 0.01319726 0.10359140
v 0.07141660 0.02599354 0.10359140
v 0.07457690 0.01314993 0.10566190
v 0.07424562 0.01309152 0.10665290
v 0.07378982 0.01301111 0.10759140
v 0.07135230 0.02597012 0.10463560
v 0.07116048 0.02590032 0.10566190
v 0.07084434 0.02578522 0.10665290
v 0.07040946 0.02562697 0.10759140
v 0.06575862 0.03796579 0.10463560
v 0.06581788 0.03800000 0.10359140
v 0.05821935 0.04885186 0.10359140
v 0.06558184 0.03786369 0.10566190
v 0.06529050 0.03769547 0.10665290
v 0.05816691 0.04880786 0.10463560
v 0.05801050 0.04867661 0.10566190
v 0.05775283 0.04846044 0.10665290
v 0.05739830 0.04816289 0.10759140
v 0.04880783 0.05816693 0.10463560
v 0.04885182 0.05821938 0.10359140
v 0.04867658 0.05801052 0.10566190
v 0.04846040 0.05775285 0.10665290
v 0.04816285 0.05739832 0.10759140
v 0.03796575 0.06575865 0.10463560
v 0.03799996 0.06581790 0.10359140
v 0.03786365 0.06558186 0.10566190
v 0.03769544 0.06529052 0.10665290
v 0.02597008 0.07135231 0.10463560
v 0.02599350 0.07141662 0.10359140
v 0.02590028 0.07116050 0.10566190
v 0.02578518 0.07084436 0.10665290
v 0.02562693 0.07040947 0.10759140
v 0.01318536 0.07477796 0.10463560
v 0.01319722 0.07484537 0.10359140
v -0.00000002 0.07599996 0.10359140
v -0.00000002 0.07593153 0.10463560
v -0.00000002 0.07572740 0.10566190
v 0.01314989 0.07457691 0.10566190
v 0.01309148 0.07424563 0.10665290
v -0.00000002 0.07492815 0.10759140
v 0.01301107 0.07378983 0.10759140
v -0.00000002 0.07539098 0.10665290
v 0.00000002 -0.07599998 0.09650093
v 0.00000002 -0.07599998 0.10359140
v -0.01319722 -0.07484538 0.10359140
v -0.01319722 -0.07484538 0.09650093
v -0.02599350 -0.07141662 0.09650093
v -0.02599350 -0.07141662 0.10359140
v -0.03799996 -0.06581791 0.09650093
v -0.04885182 -0.05821939 0.09650093
v -0.04885182 -0.05821939 0.10359140
v -0.05821935 -0.04885186 0.09650093
v -0.06581788 -0.03800001 0.09650093
v -0.07141660 -0.02599355 0.09650093
v -0.07484537 -0.01319727 0.09650093
v -0.07484537 -0.01319727 0.10359140
v -0.07599997 -0.00000003 0.09650093
v -0.07484538 0.01319721 0.09650093
v -0.07484538 0.01319721 0.10359140
v -0.07141662 0.02599349 0.09650093
v -0.07141662 0.02599349 0.10359140
v -0.06581791 0.03799995 0.09650093
v -0.06581791 0.03799995 0.10359140
v -0.05821938 0.04885182 0.09650093
v -0.05821938 0.04885182 0.10359140
v -0.04885186 0.05821935 0.09650093
v -0.03800000 0.06581788 0.09650093
v -0.03800000 0.06581788 0.10359140
v -0.02599354 0.07141659 0.09650093
v -0.01319726 0.07484537 0.09650093
v -0.01319726 0.07484537 0.10359140
v -0.00000002 0.07599996 0.09650093
v -0.00000002 0.07599996 0.10359140
v 0.01319722 0.07484537 0.09650093
v 0.01319722 0.07484537 0.10359140
v 0.02599350 0.07141662 0.09650093
v 0.02599350 0.07141662 0.10359140
v 0.03799996 0.06581790 0.09650093
v 0.04885182 0.05821938 0.09650093
v 0.04885182 0.05821938 0.10359140
v 0.05821935 0.04885186 0.09650093
v 0.05821935 0.04885186 0.10359140
v 0.06581788 0.03800000 0.09650093
v 0.06581788 0.03800000 0.10359140
v 0.07141660 0.02599354 0.09650093
v 0.07141660 0.02599354 0.10359140
v 0.07484537 0.01319726 0.09650093
v 0.07484537 0.01319726 0.10359140
v 0.07599997 0.00000002 0.09650093
v 0.07484538 -0.01319722 0.09650093
v 0.07141662 -0.02599350 0.09650093
v 0.07141662 -0.02599350 0.10359140
v 0.06581791 -0.03799996 0.09650093
v 0.05821938 -0.04885183 0.09650093
v 0.05821938 -0.04885183 0.10359140
v 0.04885186 -0.05821936 0.09650093
v 0.03800000 -0.06581789 0.09650093
v 0.03800000 -0.06581789 0.10359140
v 0.02599354 -0.07141660 0.09650093
v 0.02599354 -0.07141660 0.10359140
v 0.01319726 -0.07484537 0.10359140
v 0.01319726 -0.07484537 0.09650093
v 0.00000002 -0.07599998 0.09650093
v 0.00000002 -0.07599998 0.10359140
v -0.02212501 0.03832159 0.35300100
v -0.02844334 0.03389742 0.35300100
v -0.03389746 0.02844330 0.35300100
v -0.04158139 0.01513436 0.35300100
v -0.03832162 0.02212497 0.35300100
v -0.00768389 0.04357771 0.35300100
v -0.01513440 0.04158137 0.35300100
v -0.04424995 -0.00000003 0.35300100
v -0.04158139 0.01513436 0.35300100
v -0.04357773 0.00768384 0.35300100
v -0.04424995 -0.00000003 0.35300100
v -0.04158138 -0.01513442 0.35300100
v -0.04357773 -0.00768390 0.35300100
v 0.02212499 0.03832160 0.35300100
v -0.00000001 0.04424994 0.35300100
v 0.00768386 0.04357772 0.35300100
v 0.01513438 0.04158138 0.35300100
v -0.03832160 -0.02212503 0.35300100
v -0.04158138 -0.01513442 0.35300100
v 0.03389744 0.02844333 0.35300100
v 0.02844332 0.03389744 0.35300100
v -0.02844332 -0.03389747 0.35300100
v -0.03832160 -0.02212503 0.35300100
v -0.03389744 -0.02844336 0.35300100
v -0.02212499 -0.03832163 0.35300100
v -0.01513438 -0.04158141 0.35300100
v -0.01513438 -0.04158141 0.35300100
v -0.03832160 -0.02212503 0.35300100
v -0.02212499 -0.03832163 0.35300100
v 0.04357773 0.00768387 0.35300100
v 0.03832160 0.02212500 0.35300100
v 0.04357773 0.00768387 0.35300100
v 0.04158138 0.01513439 0.35300100
v 0.03832160 0.02212500 0.35300100
v 0.00000001 -0.04424997 0.35300100
v -0.00768386 -0.04357775 0.35300100
v 0.04424995 -0.00000000 0.35300100
v 0.04158139 -0.01513439 0.35300100
v 0.04357773 -0.00768387 0.35300100
v 0.04424995 -0.00000000 0.35300100
v 0.02212501 -0.03832162 0.35300100
v 0.00768389 -0.04357774 0.35300100
v 0.01513440 -0.04158140 0.35300100
v 0.02844334 -0.03389746 0.35300100
v 0.00768389 -0.04357774 0.35300100
v 0.02212501 -0.03832162 0.35300100
v 0.02844334 -0.03389746 0.35300100
v 0.03832162 -0.02212500 0.35300100
v 0.04158139 -0.01513439 0.35300100
v 0.03389746 -0.02844333 0.35300100
v 0.03832162 -0.02212500 0.35300100
v 0.02844334 -0.03389746 0.35300100
v 0.00000001 -0.04424997 0.35300100
v 0.00768389 -0.04357774 0.35300100
v 0.02844334 -0.03389746 0.35300100
v -0.02246699 -0.05292899 0.07750093
v -0.03131668 -0.04822357 0.07750093
v -0.03921489 -0.04205282 0.07750093
v -0.02246699 -0.05292899 0.07750093
v -0.03921489 -0.04205282 0.07750093
v -0.04592149 -0.03460433 0.07750093
v -0.05707138 -0.00700750 0.07750093
v -0.05123286 -0.02610447 0.07750093
v -0.05498749 -0.01681139 0.07750093
v -0.00300924 -0.05742114 0.07750093
v -0.01293466 -0.05602628 0.07750093
v -0.05292899 0.02246699 0.07750093
v -0.05742114 0.00300924 0.07750093
v -0.05602627 0.01293466 0.07750093
v 0.02610447 -0.05123287 0.07750093
v 0.01681139 -0.05498749 0.07750093
v 0.00700750 -0.05707138 0.07750093
v -0.04822356 0.03131667 0.07750093
v -0.04205281 0.03921488 0.07750093
v 0.04205281 -0.03921489 0.07750093
v 0.03460433 -0.04592149 0.07750093
v -0.02610447 0.05123286 0.07750093
v -0.03460433 0.04592149 0.07750093
v -0.01681139 0.05498748 0.07750093
v 0.05602627 -0.01293467 0.07750093
v 0.05292899 -0.02246700 0.07750093
v 0.04822356 -0.03131668 0.07750093
v 0.05707138 0.00700749 0.07750093
v 0.05742114 -0.00300924 0.07750093
v 0.05498749 0.01681139 0.07750093
v -0.00700750 0.05707137 0.07750093
v 0.00300924 0.05742114 0.07750093
v 0.03131668 0.04822356 0.07750093
v 0.01293466 0.05602627 0.07750093
v 0.03131668 0.04822356 0.07750093
v 0.01293466 0.05602627 0.07750093
v 0.02246699 0.05292898 0.07750093
v 0.03921489 0.04205281 0.07750093
v 0.04592149 0.03460432 0.07750093
v 0.05123286 0.02610446 0.07750093
v 0.02610447 -0.05123287 0.07750093
v 0.03460433 -0.04592149 0.07750093
v 0.03460433 -0.04592149 0.08050096
v 0.02610447 -0.05123287 0.08050096
v 0.01681139 -0.05498749 0.07750093
v 0.01681139 -0.05498749 0.08050096
v 0.00700750 -0.05707138 0.07750093
v 0.00700750 -0.05707138 0.08050096
v -0.00300924 -0.05742114 0.07750093
v -0.00300924 -0.05742114 0.08050096
v -0.01293466 -0.05602628 0.07750093
v -0.01293466 -0.05602628 0.08050096
v -0.02246699 -0.05292899 0.07750093
v -0.02246699 -0.05292899 0.08050096
v -0.03131668 -0.04822357 0.07750093
v -0.03131668 -0.04822357 0.08050096
v -0.03921489 -0.04205282 0.07750093
v -0.03921489 -0.04205282 0.08050096
v -0.04592149 -0.03460433 0.07750093
v -0.04592149 -0.03460433 0.08050096
v -0.05123286 -0.02610447 0.07750093
v -0.05123286 -0.02610447 0.08050096
v -0.05498749 -0.01681139 0.07750093
v -0.05498749 -0.01681139 0.08050096
v -0.05707138 -0.00700750 0.07750093
v -0.05707138 -0.00700750 0.08050096
v -0.05742114 0.00300924 0.07750093
v -0.05742114 0.00300924 0.08050096
v -0.05602627 0.01293466 0.07750093
v -0.05602627 0.01293466 0.08050096
v -0.05292899 0.02246699 0.07750093
v -0.05292899 0.02246699 0.08050096
v -0.04822356 0.03131667 0.07750093
v -0.04822356 0.03131667 0.08050096
v -0.04205281 0.03921488 0.07750093
v -0.04205281 0.03921488 0.08050096
v -0.03460433 0.04592149 0.07750093
v -0.03460433 0.04592149 0.08050096
v -0.02610447 0.05123286 0.07750093
v -0.02610447 0.05123286 0.08050096
v -0.01681139 0.05498748 0.07750093
v -0.01681139 0.05498748 0.08050096
v -0.00700750 0.05707137 0.07750093
v -0.00700750 0.05707137 0.08050096
v 0.00300924 0.05742114 0.07750093
v 0.00300924 0.05742114 0.08050096
v 0.01293466 0.05602627 0.07750093
v 0.01293466 0.05602627 0.08050096
v 0.02246699 0.05292898 0.07750093
v 0.02246699 0.05292898 0.08050096
v 0.03131668 0.04822356 0.07750093
v 0.03131668 0.04822356 0.08050096
v 0.03921489 0.04205281 0.07750093
v 0.03921489 0.04205281 0.08050096
v 0.04592149 0.03460432 0.07750093
v 0.04592149 0.03460432 0.08050096
v 0.05123286 0.02610446 0.08050096
v 0.05123286 0.02610446 0.07750093
v 0.05498749 0.01681139 0.07750093
v 0.05498749 0.01681139 0.08050096
v 0.05707138 0.00700749 0.07750093
v 0.05707138 0.00700749 0.08050096
v 0.05742114 -0.00300924 0.07750093
v 0.05742114 -0.00300924 0.08050096
v 0.05602627 -0.01293467 0.07750093
v 0.05602627 -0.01293467 0.08050096
v 0.05292899 -0.02246700 0.08050096
v 0.05292899 -0.02246700 0.07750093
v 0.04822356 -0.03131668 0.07750093
v 0.04822356 -0.03131668 0.08050096
v 0.04205281 -0.03921489 0.07750093
v 0.04205281 -0.03921489 0.08050096
v 0.03460433 -0.04592149 0.07750093
v 0.03460433 -0.04592149 0.08050096
v -0.04912765 0.05125884 0.09650093
v -0.05821938 0.04885182 0.09650093
v -0.04885186 0.05821935 0.09650093
v -0.05708380 0.04221890 0.09650093
v -0.06581791 0.03799995 0.09650093
v -0.03975822 0.05882416 0.09650093
v -0.03800000 0.06581788 0.09650093
v -0.06339771 0.03196440 0.09650093
v -0.07141662 0.02599349 0.09650093
v -0.02924497 0.06469718 0.09650093
v -0.02599354 0.07141659 0.09650093
v -0.06788785 0.02079036 0.09650093
v -0.07484538 0.01319721 0.09650093
v -0.01789041 0.06870900 0.09650093
v -0.01319726 0.07484537 0.09650093
v -0.07042491 0.00901822 0.09650093
v -0.00602122 0.07074420 0.09650093
v -0.00000002 0.07599996 0.09650093
v -0.07599997 -0.00000003 0.09650093
v -0.07093602 -0.00301334 0.09650093
v 0.00602118 0.07074421 0.09650093
v 0.01319722 0.07484537 0.09650093
v -0.07484537 -0.01319727 0.09650093
v -0.06940638 -0.01495823 0.09650093
v 0.01789037 0.06870901 0.09650093
v 0.02599350 0.07141662 0.09650093
v -0.07141660 -0.02599355 0.09650093
v -0.06588010 -0.02647283 0.09650093
v 0.02924493 0.06469721 0.09650093
v 0.03799996 0.06581790 0.09650093
v -0.06581788 -0.03800001 0.09650093
v -0.06045853 -0.03722580 0.09650093
v 0.03975818 0.05882419 0.09650093
v 0.04885182 0.05821938 0.09650093
v -0.05821935 -0.04885186 0.09650093
v -0.05329768 -0.04690792 0.09650093
v 0.04912762 0.05125887 0.09650093
v 0.05821935 0.04885186 0.09650093
v -0.04885182 -0.05821939 0.09650093
v -0.04460356 -0.05524053 0.09650093
v 0.05708377 0.04221893 0.09650093
v 0.06581788 0.03800000 0.09650093
v -0.03799996 -0.06581791 0.09650093
v -0.03462628 -0.06198401 0.09650093
v 0.06339769 0.03196444 0.09650093
v 0.07141660 0.02599354 0.09650093
v -0.02599350 -0.07141662 0.09650093
v -0.02365289 -0.06694432 0.09650093
v 0.06788784 0.02079041 0.09650093
v 0.07484537 0.01319726 0.09650093
v 0.07042491 0.00901826 0.09650093
v -0.01319722 -0.07484538 0.09650093
v -0.01199899 -0.06997871 0.09650093
v 0.07599997 0.00000002 0.09650093
v 0.07093602 -0.00301329 0.09650093
v 0.00000002 -0.07599998 0.09650093
v 0.00000002 -0.07099998 0.09650093
v 0.01199903 -0.06997871 0.09650093
v 0.07484538 -0.01319722 0.09650093
v 0.06940640 -0.01495818 0.09650093
v 0.01319726 -0.07484537 0.09650093
v 0.02365293 -0.06694430 0.09650093
v 0.07141662 -0.02599350 0.09650093
v 0.06588012 -0.02647278 0.09650093
v 0.02599354 -0.07141660 0.09650093
v 0.03462632 -0.06198399 0.09650093
v 0.06581791 -0.03799996 0.09650093
v 0.06045855 -0.03722576 0.09650093
v 0.03800000 -0.06581789 0.09650093
v 0.04460360 -0.05524050 0.09650093
v 0.05821938 -0.04885183 0.09650093
v 0.05329771 -0.04690789 0.09650093
v 0.04885186 -0.05821936 0.09650093
v -0.03921489 -0.04205282 0.08050096
v -0.04563788 -0.05438913 0.08050096
v -0.05438910 -0.04563792 0.08050096
v -0.04592149 -0.03460433 0.08050096
v -0.06148778 -0.03550000 0.08050096
v -0.03131668 -0.04822357 0.08050096
v -0.03549996 -0.06148781 0.08050096
v -0.05123286 -0.02610447 0.08050096
v -0.06671815 -0.02428343 0.08050096
v -0.02246699 -0.05292899 0.08050096
v -0.02428338 -0.06671818 0.08050096
v -0.05498749 -0.01681139 0.08050096
v -0.06992130 -0.01232901 0.08050096
v -0.01293466 -0.05602628 0.08050096
v -0.01232896 -0.06992131 0.08050096
v -0.05707138 -0.00700750 0.08050096
v -0.07099997 -0.00000003 0.08050096
v -0.00300924 -0.05742114 0.08050096
v 0.00000002 -0.07099997 0.08050096
v -0.05742114 0.00300924 0.08050096
v -0.06992131 0.01232895 0.08050096
v 0.00700750 -0.05707138 0.08050096
v 0.01232900 -0.06992131 0.08050096
v -0.05602627 0.01293466 0.08050096
v -0.06671817 0.02428337 0.08050096
v 0.01681139 -0.05498749 0.08050096
v 0.02428342 -0.06671815 0.08050096
v -0.05292899 0.02246699 0.08050096
v -0.06148780 0.03549996 0.08050096
v 0.02610447 -0.05123287 0.08050096
v 0.03550000 -0.06148778 0.08050096
v -0.04822356 0.03131667 0.08050096
v 0.03460433 -0.04592149 0.08050096
v -0.05438913 0.04563788 0.08050096
v 0.04563792 -0.05438910 0.08050096
v -0.04205281 0.03921488 0.08050096
v 0.04205281 -0.03921489 0.08050096
v -0.04563792 0.05438909 0.08050096
v 0.05438913 -0.04563788 0.08050096
v -0.03460433 0.04592149 0.08050096
v 0.04822356 -0.03131668 0.08050096
v -0.03550000 0.06148778 0.08050096
v -0.02610447 0.05123286 0.08050096
v 0.06148780 -0.03549996 0.08050096
v 0.05292899 -0.02246700 0.08050096
v -0.02428342 0.06671815 0.08050096
v -0.01681139 0.05498748 0.08050096
v 0.06671817 -0.02428338 0.08050096
v 0.05602627 -0.01293467 0.08050096
v -0.01232900 0.06992130 0.08050096
v -0.00700750 0.05707137 0.08050096
v 0.06992131 -0.01232896 0.08050096
v 0.05742114 -0.00300924 0.08050096
v -0.00000002 0.07099997 0.08050096
v 0.00300924 0.05742114 0.08050096
v 0.07099997 0.00000002 0.08050096
v 0.05707138 0.00700749 0.08050096
v 0.01232896 0.06992131 0.08050096
v 0.01293466 0.05602627 0.08050096
v 0.06992130 0.01232900 0.08050096
v 0.05498749 0.01681139 0.08050096
v 0.02428338 0.06671817 0.08050096
v 0.02246699 0.05292898 0.08050096
v 0.06671815 0.02428342 0.08050096
v 0.05123286 0.02610446 0.08050096
v 0.03549996 0.06148780 0.08050096
v 0.03131668 0.04822356 0.08050096
v 0.06148778 0.03549999 0.08050096
v 0.04592149 0.03460432 0.08050096
v 0.04563788 0.05438912 0.08050096
v 0.03921489 0.04205281 0.08050096
v 0.05438910 0.04563791 0.08050096
v -0.00955061 -0.05416442 0.33750099
v 0.00000002 -0.05499995 0.33750099
v 0.00000002 -0.05499995 0.35050100
v -0.00955061 -0.05416442 0.35050100
v -0.01881108 -0.05168308 0.33750099
v -0.01881108 -0.05168308 0.35050100
v -0.02749996 -0.04763140 0.33750099
v -0.02749996 -0.04763141 0.35050100
v -0.03535328 -0.04213246 0.33750099
v -0.03535328 -0.04213246 0.35050100
v -0.04213242 -0.03535333 0.33750099
v -0.04213242 -0.03535333 0.35050100
v -0.04763137 -0.02750000 0.33750099
v -0.04763137 -0.02750000 0.35050100
v -0.05168305 -0.01881113 0.33750099
v -0.05168305 -0.01881113 0.35050100
v -0.05416439 -0.00955066 0.33750099
v -0.05416439 -0.00955066 0.35050100
v -0.05499994 -0.00000003 0.33750099
v -0.05499994 -0.00000003 0.35050100
v -0.05416440 0.00955060 0.33750099
v -0.05416440 0.00955060 0.35050100
v -0.05168307 0.01881107 0.33750099
v -0.05168307 0.01881107 0.35050100
v -0.04763139 0.02749994 0.33750099
v -0.04763139 0.02749994 0.35050100
v -0.04213244 0.03535327 0.33750099
v -0.04213244 0.03535327 0.35050100
v -0.03535331 0.04213240 0.33750099
v -0.03535331 0.04213240 0.35050100
v -0.02749998 0.04763136 0.33750099
v -0.02749998 0.04763135 0.35050100
v -0.01881112 0.05168304 0.33750099
v -0.01881112 0.05168304 0.35050100
v -0.00955065 0.05416438 0.33750099
v -0.00955065 0.05416438 0.35050100
v -0.00000002 0.05499993 0.33750099
v -0.00000002 0.05499993 0.35050100
v 0.00955061 0.05416439 0.33750099
v 0.00955061 0.05416439 0.35050100
v 0.01881108 0.05168305 0.33750099
v 0.01881108 0.05168305 0.35050100
v 0.02749996 0.04763137 0.35050100
v 0.02749996 0.04763137 0.33750099
v 0.03535328 0.04213243 0.33750099
v 0.03535328 0.04213243 0.35050100
v 0.04213242 0.03535330 0.33750099
v 0.04213242 0.03535330 0.35050100
v 0.04763137 0.02749997 0.33750099
v 0.04763137 0.02749997 0.35050100
v 0.05168305 0.01881110 0.33750099
v 0.05168305 0.01881110 0.35050100
v 0.05416439 0.00955063 0.33750099
v 0.05416439 0.00955063 0.35050100
v 0.05499994 0.00000000 0.33750099
v 0.05499994 0.00000000 0.35050100
v 0.05416440 -0.00955063 0.33750099
v 0.05416440 -0.00955063 0.35050100
v 0.05168307 -0.01881110 0.33750099
v 0.05168307 -0.01881110 0.35050100
v 0.04763139 -0.02749997 0.35050100
v 0.04763139 -0.02749997 0.33750099
v 0.04213244 -0.03535330 0.33750099
v 0.04213244 -0.03535330 0.35050100
v 0.03535331 -0.04213243 0.33750099
v 0.03535331 -0.04213243 0.35050100
v 0.02749998 -0.04763139 0.33750099
v 0.02749998 -0.04763139 0.35050100
v 0.01881112 -0.05168307 0.33750099
v 0.01881112 -0.05168307 0.35050100
v 0.00955065 -0.05416441 0.33750099
v 0.00955065 -0.05416441 0.35050100
v 0.00000002 -0.05499995 0.33750099
v 0.00000002 -0.05499995 0.35050100
v -0.03389744 -0.02844336 0.35050100
v -0.04213242 -0.03535333 0.35050100
v -0.03535328 -0.04213246 0.35050100
v -0.02844332 -0.03389747 0.35050100
v -0.02749996 -0.04763141 0.35050100
v -0.03832160 -0.02212503 0.35050100
v -0.04763137 -0.02750000 0.35050100
v -0.02212499 -0.03832163 0.35050100
v -0.04158138 -0.01513442 0.35050100
v -0.05168305 -0.01881113 0.35050100
v -0.04158138 -0.01513442 0.35050100
v -0.01513438 -0.04158141 0.35050100
v -0.01881108 -0.05168308 0.35050100
v -0.04357773 -0.00768390 0.35050100
v -0.05416439 -0.00955066 0.35050100
v -0.00768386 -0.04357775 0.35050100
v -0.00955061 -0.05416442 0.35050100
v -0.04424995 -0.00000003 0.35050100
v -0.05499994 -0.00000003 0.35050100
v 0.00000001 -0.04424997 0.35050100
v 0.00000002 -0.05499995 0.35050100
v -0.04357773 0.00768384 0.35050100
v -0.05416440 0.00955060 0.35050100
v 0.00768389 -0.04357774 0.35050100
v 0.00955065 -0.05416441 0.35050100
v -0.04158139 0.01513436 0.35050100
v -0.05168307 0.01881107 0.35050100
v -0.04158139 0.01513436 0.35050100
v 0.01513440 -0.04158140 0.35050100
v 0.01881112 -0.05168307 0.35050100
v -0.03832162 0.02212497 0.35050100
v -0.04763139 0.02749994 0.35050100
v -0.05168307 0.01881107 0.35050100
v 0.02212501 -0.03832162 0.35050100
v 0.02749998 -0.04763139 0.35050100
v -0.03389746 0.02844330 0.35050100
v -0.04213244 0.03535327 0.35050100
v -0.03389746 0.02844330 0.35050100
v 0.02844334 -0.03389746 0.35050100
v 0.03535331 -0.04213243 0.35050100
v -0.02844334 0.03389742 0.35050100
v -0.04213244 0.03535327 0.35050100
v -0.03535331 0.04213240 0.35050100
v 0.04213244 -0.03535330 0.35050100
v 0.04213244 -0.03535330 0.35050100
v 0.03389746 -0.02844333 0.35050100
v -0.02749998 0.04763135 0.35050100
v -0.02212501 0.03832159 0.35050100
v 0.04763139 -0.02749997 0.35050100
v 0.03389746 -0.02844333 0.35050100
v 0.03832162 -0.02212500 0.35050100
v -0.01513440 0.04158137 0.35050100
v -0.01881112 0.05168304 0.35050100
v 0.05168307 -0.01881110 0.35050100
v 0.04158139 -0.01513439 0.35050100
v -0.00768389 0.04357771 0.35050100
v 0.04357773 -0.00768387 0.35050100
v -0.00955065 0.05416438 0.35050100
v -0.00000001 0.04424994 0.35050100
v 0.05416440 -0.00955063 0.35050100
v -0.00000002 0.05499993 0.35050100
v 0.05499994 0.00000000 0.35050100
v 0.04424995 -0.00000000 0.35050100
v 0.00955061 0.05416439 0.35050100
v 0.00768386 0.04357772 0.35050100
v 0.01513438 0.04158138 0.35050100
v 0.05416439 0.00955063 0.35050100
v 0.04357773 0.00768387 0.35050100
v 0.01881108 0.05168305 0.35050100
v 0.02212499 0.03832160 0.35050100
v 0.05168305 0.01881110 0.35050100
v 0.04158138 0.01513439 0.35050100
v 0.02749996 0.04763137 0.35050100
v 0.04763137 0.02749997 0.35050100
v 0.03832160 0.02212500 0.35050100
v 0.03535328 0.04213243 0.35050100
v 0.02844332 0.03389744 0.35050100
v 0.04213242 0.03535330 0.35050100
v 0.04213242 0.03535330 0.35050100
v 0.03389744 0.02844333 0.35050100
v -0.00768386 -0.04357775 0.35050100
v 0.00000001 -0.04424997 0.35050100
v 0.00000001 -0.04424997 0.35300100
v -0.00768386 -0.04357775 0.35300100
v -0.01513438 -0.04158141 0.35050100
v -0.01513438 -0.04158141 0.35300100
v -0.02212499 -0.03832163 0.35050100
v -0.02212499 -0.03832163 0.35300100
v -0.02844332 -0.03389747 0.35050100
v -0.02844332 -0.03389747 0.35300100
v -0.03389744 -0.02844336 0.35050100
v -0.03389744 -0.02844336 0.35300100
v -0.03832160 -0.02212503 0.35050100
v -0.03832160 -0.02212503 0.35300100
v -0.04158138 -0.01513442 0.35300100
v -0.04158138 -0.01513442 0.35050100
v -0.04357773 -0.00768390 0.35050100
v -0.04357773 -0.00768390 0.35300100
v -0.04424995 -0.00000003 0.35300100
v -0.04424995 -0.00000003 0.35050100
v -0.04357773 0.00768384 0.35050100
v -0.04357773 0.00768384 0.35300100
v -0.04158139 0.01513436 0.35050100
v -0.04158139 0.01513436 0.35300100
v -0.03832162 0.02212497 0.35050100
v -0.03832162 0.02212497 0.35300100
v -0.03389746 0.02844330 0.35300100
v -0.03389746 0.02844330 0.35050100
v -0.02844334 0.03389742 0.35300100
v -0.02844334 0.03389742 0.35050100
v -0.02212501 0.03832159 0.35050100
v -0.02212501 0.03832159 0.35300100
v -0.01513440 0.04158137 0.35050100
v -0.01513440 0.04158137 0.35300100
v -0.00768389 0.04357771 0.35050100
v -0.00768389 0.04357771 0.35300100
v -0.00000001 0.04424994 0.35050100
v -0.00000001 0.04424994 0.35300100
v 0.00768386 0.04357772 0.35300100
v 0.00768386 0.04357772 0.35050100
v 0.01513438 0.04158138 0.35050100
v 0.01513438 0.04158138 0.35300100
v 0.02212499 0.03832160 0.35050100
v 0.02212499 0.03832160 0.35300100
v 0.02844332 0.03389744 0.35050100
v 0.02844332 0.03389744 0.35300100
v 0.03389744 0.02844333 0.35050100
v 0.03389744 0.02844333 0.35300100
v 0.03832160 0.02212500 0.35050100
v 0.03832160 0.02212500 0.35300100
v 0.04158138 0.01513439 0.35050100
v 0.04158138 0.01513439 0.35300100
v 0.04357773 0.00768387 0.35050100
v 0.04357773 0.00768387 0.35300100
v 0.04424995 -0.00000000 0.35050100
v 0.04424995 -0.00000000 0.35300100
v 0.04357773 -0.00768387 0.35050100
v 0.04357773 -0.00768387 0.35300100
v 0.04158139 -0.01513439 0.35050100
v 0.04158139 -0.01513439 0.35300100
v 0.03832162 -0.02212500 0.35050100
v 0.03832162 -0.02212500 0.35300100
v 0.03389746 -0.02844333 0.35050100
v 0.03389746 -0.02844333 0.35300100
v 0.02844334 -0.03389746 0.35050100
v 0.02844334 -0.03389746 0.35300100
v 0.02212501 -0.03832162 0.35050100
v 0.02212501 -0.03832162 0.35300100
v 0.01513440 -0.04158140 0.35050100
v 0.01513440 -0.04158140 0.35300100
v 0.00768389 -0.04357774 0.35300100
v 0.00768389 -0.04357774 0.35050100
v 0.00000001 -0.04424997 0.35300100
v 0.00000001 -0.04424997 0.35050100
v -0.04213242 -0.03535333 0.33750099
v -0.04519658 -0.03792449 0.33750099
v -0.03792445 -0.04519662 0.33750099
v -0.03535328 -0.04213246 0.33750099
v -0.03792445 -0.04519662 0.33750099
v -0.02949992 -0.05109550 0.33750099
v -0.04213242 -0.03535333 0.33750099
v -0.04763137 -0.02750000 0.33750099
v -0.05109547 -0.02949997 0.33750099
v -0.04519658 -0.03792449 0.33750099
v -0.02749996 -0.04763140 0.33750099
v -0.02017913 -0.05544187 0.33750099
v -0.05168305 -0.01881113 0.33750099
v -0.05544184 -0.02017918 0.33750099
v -0.01881108 -0.05168308 0.33750099
v -0.01024518 -0.05810364 0.33750099
v -0.05416439 -0.00955066 0.33750099
v -0.05810362 -0.01024523 0.33750099
v -0.00955061 -0.05416442 0.33750099
v -0.01881108 -0.05168308 0.33750099
v -0.01024518 -0.05810364 0.33750099
v 0.00000002 -0.05899996 0.33750099
v -0.00955061 -0.05416442 0.33750099
v -0.05499994 -0.00000003 0.33750099
v -0.05899995 -0.00000003 0.33750099
v 0.00000002 -0.05499995 0.33750099
v 0.01024522 -0.05810363 0.33750099
v -0.05416440 0.00955060 0.33750099
v -0.05810362 0.01024517 0.33750099
v 0.00955065 -0.05416441 0.33750099
v 0.00000002 -0.05499995 0.33750099
v 0.01024522 -0.05810363 0.33750099
v 0.02017917 -0.05544186 0.33750099
v 0.00955065 -0.05416441 0.33750099
v -0.05168307 0.01881107 0.33750099
v -0.05544186 0.02017912 0.33750099
v 0.01881112 -0.05168307 0.33750099
v 0.02949996 -0.05109548 0.33750099
v -0.04763139 0.02749994 0.33750099
v -0.05109549 0.02949991 0.33750099
v 0.02749998 -0.04763139 0.33750099
v 0.03792448 -0.04519659 0.33750099
v -0.04213244 0.03535327 0.33750099
v -0.04519660 0.03792443 0.33750099
v 0.03535331 -0.04213243 0.33750099
v -0.03535331 0.04213240 0.33750099
v 0.04519660 -0.03792446 0.33750099
v 0.04213244 -0.03535330 0.33750099
v -0.03792448 0.04519656 0.33750099
v -0.02749998 0.04763136 0.33750099
v 0.05109549 -0.02949994 0.33750099
v 0.04763139 -0.02749997 0.33750099
v -0.02949996 0.05109545 0.33750099
v -0.01881112 0.05168304 0.33750099
v 0.05544186 -0.02017915 0.33750099
v 0.05168307 -0.01881110 0.33750099
v -0.02017917 0.05544183 0.33750099
v -0.00955065 0.05416438 0.33750099
v 0.05810362 -0.01024520 0.33750099
v 0.05416440 -0.00955063 0.33750099
v -0.01024522 0.05810360 0.33750099
v -0.00000002 0.05499993 0.33750099
v 0.05899995 0.00000000 0.33750099
v 0.05899995 0.00000000 0.33750099
v 0.05499994 0.00000000 0.33750099
v -0.00000002 0.05899993 0.33750099
v 0.00955061 0.05416439 0.33750099
v 0.05810362 0.01024520 0.33750099
v 0.05416439 0.00955063 0.33750099
v 0.01024518 0.05810361 0.33750099
v -0.00000002 0.05899993 0.33750099
v 0.00955061 0.05416439 0.33750099
v 0.01881108 0.05168305 0.33750099
v 0.01024518 0.05810361 0.33750099
v 0.05544184 0.02017915 0.33750099
v 0.05168305 0.01881110 0.33750099
v 0.02017913 0.05544184 0.33750099
v 0.02749996 0.04763137 0.33750099
v 0.05109547 0.02949994 0.33750099
v 0.04763137 0.02749997 0.33750099
v 0.02949992 0.05109547 0.33750099
v 0.03535328 0.04213243 0.33750099
v 0.04519658 0.03792446 0.33750099
v 0.04213242 0.03535330 0.33750099
v 0.03792445 0.04519659 0.33750099
v 0.00000002 -0.07099997 0.08050096
v 0.00000002 -0.07099998 0.09650093
v -0.01199899 -0.06997871 0.09650093
v -0.01232896 -0.06992131 0.08050096
v -0.02365289 -0.06694432 0.09650093
v -0.02428338 -0.06671818 0.08050096
v -0.03462628 -0.06198401 0.09650093
v -0.03549996 -0.06148781 0.08050096
v -0.04460356 -0.05524053 0.09650093
v -0.04563788 -0.05438913 0.08050096
v -0.05329768 -0.04690792 0.09650093
v -0.05438910 -0.04563792 0.08050096
v -0.06045853 -0.03722580 0.09650093
v -0.06148778 -0.03550000 0.08050096
v -0.06588010 -0.02647283 0.09650093
v -0.06671815 -0.02428343 0.08050096
v -0.06940638 -0.01495823 0.09650093
v -0.06992130 -0.01232901 0.08050096
v -0.07093602 -0.00301334 0.09650093
v -0.07099997 -0.00000003 0.08050096
v -0.07042491 0.00901822 0.09650093
v -0.06992131 0.01232895 0.08050096
v -0.06788785 0.02079036 0.09650093
v -0.06671817 0.02428337 0.08050096
v -0.06339771 0.03196440 0.09650093
v -0.06148780 0.03549996 0.08050096
v -0.05708380 0.04221890 0.09650093
v -0.05438913 0.04563788 0.08050096
v -0.04912765 0.05125884 0.09650093
v -0.04563792 0.05438909 0.08050096
v -0.03975822 0.05882416 0.09650093
v -0.03550000 0.06148778 0.08050096
v -0.02924497 0.06469718 0.09650093
v -0.02428342 0.06671815 0.08050096
v -0.01789041 0.06870900 0.09650093
v -0.01232900 0.06992130 0.08050096
v -0.00602122 0.07074420 0.09650093
v -0.00000002 0.07099997 0.08050096
v 0.00602118 0.07074421 0.09650093
v 0.01232896 0.06992131 0.08050096
v 0.01789037 0.06870901 0.09650093
v 0.02428338 0.06671817 0.08050096
v 0.02924493 0.06469721 0.09650093
v 0.03549996 0.06148780 0.08050096
v 0.03975818 0.05882419 0.09650093
v 0.04563788 0.05438912 0.08050096
v 0.04912762 0.05125887 0.09650093
v 0.05438910 0.04563791 0.08050096
v 0.05708377 0.04221893 0.09650093
v 0.06148778 0.03549999 0.08050096
v 0.06339769 0.03196444 0.09650093
v 0.06671815 0.02428342 0.08050096
v 0.06788784 0.02079041 0.09650093
v 0.06992130 0.01232900 0.08050096
v 0.07042491 0.00901826 0.09650093
v 0.07099997 0.00000002 0.08050096
v 0.07093602 -0.00301329 0.09650093
v 0.06992131 -0.01232896 0.08050096
v 0.06940640 -0.01495818 0.09650093
v 0.06671817 -0.02428338 0.08050096
v 0.06588012 -0.02647278 0.09650093
v 0.06148780 -0.03549996 0.08050096
v 0.06045855 -0.03722576 0.09650093
v 0.05438913 -0.04563788 0.08050096
v 0.05329771 -0.04690789 0.09650093
v 0.04563792 -0.05438910 0.08050096
v 0.04460360 -0.05524050 0.09650093
v 0.03550000 -0.06148778 0.08050096
v 0.03462632 -0.06198399 0.09650093
v 0.02428342 -0.06671815 0.08050096
v 0.02365293 -0.06694430 0.09650093
v 0.01232900 -0.06992131 0.08050096
v 0.01199903 -0.06997871 0.09650093
v 0.00000002 -0.07099997 0.08050096
v 0.00000002 -0.07099998 0.09650093
f 1 2 3
f 4 1 3
f 5 4 6
f 5 1 4
f 7 6 8
f 7 5 6
f 9 7 8
f 10 9 11
f 10 7 9
f 12 11 13
f 12 10 11
f 14 13 15
f 14 12 13
f 16 15 17
f 16 14 15
f 18 17 19
f 18 16 17
f 20 19 21
f 20 18 19
f 22 21 23
f 22 20 21
f 24 25 26
f 27 25 24
f 28 29 30
f 31 28 32
f 31 29 28
f 33 31 32
f 34 33 35
f 34 31 33
f 36 35 37
f 36 34 35
f 38 39 40
f 38 37 39
f 38 36 37
f 41 40 42
f 41 38 40
f 43 42 44
f 43 41 42
f 45 44 46
f 45 43 44
f 47 46 48
f 47 45 46
f 29 49 30
f 50 51 52
f 53 54 55
f 53 52 54
f 53 50 52
f 56 57 58
f 56 55 57
f 56 53 55
f 59 58 60
f 59 56 58
f 61 62 63
f 61 60 62
f 61 59 60
f 64 61 63
f 65 64 63
f 66 64 65
f 67 66 65
f 68 66 67
f 69 68 67
f 70 68 69
f 71 70 69
f 72 70 71
f 73 72 71
f 74 72 73
f 75 76 77
f 78 79 80
f 78 77 79
f 78 75 77
f 81 82 83
f 81 80 82
f 81 78 80
f 84 85 86
f 84 83 85
f 84 81 83
f 87 86 88
f 87 84 86
f 89 88 90
f 89 87 88
f 91 90 92
f 91 89 90
f 93 91 92
f 94 91 93
f 95 94 93
f 96 94 95
f 97 96 95
f 98 96 97
f 99 100 101
f 99 102 100
f 103 104 105
f 106 107 108
f 109 110 111
f 112 113 114
f 115 116 117
f 118 119 120
f 121 106 104
f 122 123 106
f 124 122 106
f 125 126 127
f 128 129 130
f 131 106 121
f 131 124 106
f 132 133 134
f 135 136 131
f 137 138 139
f 140 131 121
f 141 142 143
f 144 145 146
f 147 148 149
f 150 144 151
f 152 153 154
f 155 156 157
f 158 121 159
f 158 140 121
f 160 158 159
f 160 159 147
f 161 162 163
f 161 163 164
f 165 162 161
f 165 166 162
f 165 161 167
f 168 160 147
f 168 166 165
f 168 165 169
f 170 171 172
f 168 173 160
f 168 147 166
f 174 175 176
f 177 174 176
f 178 177 179
f 178 174 177
f 180 179 181
f 180 178 179
f 182 180 181
f 183 182 184
f 183 180 182
f 185 184 186
f 185 183 184
f 187 186 188
f 187 185 186
f 189 188 190
f 189 187 188
f 191 190 192
f 191 189 190
f 193 192 194
f 193 191 192
f 195 194 196
f 195 193 194
f 197 198 199
f 197 200 198
f 201 202 203
f 204 201 205
f 204 202 201
f 206 204 205
f 207 206 208
f 207 204 206
f 209 208 210
f 209 207 208
f 211 212 213
f 211 210 212
f 211 209 210
f 214 213 215
f 214 211 213
f 216 215 217
f 216 214 215
f 218 217 219
f 218 216 217
f 220 219 221
f 220 218 219
f 202 222 203
f 223 224 225
f 226 227 228
f 226 225 227
f 226 223 225
f 229 230 231
f 229 228 230
f 229 226 228
f 232 231 233
f 232 229 231
f 234 235 236
f 234 233 235
f 234 232 233
f 237 234 236
f 238 237 236
f 239 237 238
f 240 239 238
f 241 239 240
f 242 241 240
f 243 241 242
f 244 243 242
f 245 243 244
f 246 245 244
f 247 245 246
f 248 249 250
f 251 252 253
f 251 250 252
f 251 248 250
f 254 255 256
f 254 253 255
f 254 251 253
f 257 258 259
f 257 256 258
f 257 254 256
f 260 259 261
f 260 257 259
f 262 261 263
f 262 260 261
f 264 263 265
f 264 262 263
f 266 264 265
f 267 264 266
f 268 267 266
f 269 267 268
f 270 269 268
f 271 269 270
f 272 273 274
f 272 275 273
f 276 277 278
f 279 278 280
f 281 282 276
f 283 279 284
f 283 276 278
f 285 286 287
f 283 281 276
f 288 289 290
f 288 290 281
f 291 292 293
f 294 295 288
f 296 297 298
f 296 298 288
f 299 300 301
f 302 303 296
f 302 281 283
f 302 288 281
f 302 296 304
f 305 306 307
f 308 309 310
f 311 312 313
f 314 312 311
f 315 283 316
f 315 302 283
f 317 318 319
f 317 319 320
f 321 322 323
f 324 318 317
f 324 314 325
f 324 325 318
f 324 317 326
f 327 328 321
f 329 315 316
f 330 331 332
f 329 314 324
f 329 333 334
f 329 316 312
f 329 312 314
f 335 336 337
f 338 339 340
f 338 341 339
f 342 338 340
f 342 340 343
f 344 342 343
f 344 343 336
f 344 336 335
f 345 346 341
f 345 341 338
f 347 338 342
f 347 345 338
f 348 347 342
f 348 335 349
f 348 344 335
f 348 342 344
f 350 351 346
f 350 346 345
f 352 345 347
f 352 347 348
f 352 350 345
f 353 349 354
f 353 348 349
f 353 352 348
f 355 351 350
f 355 356 351
f 357 355 350
f 357 350 352
f 358 354 359
f 358 357 352
f 358 359 360
f 358 352 353
f 358 353 354
f 361 356 355
f 361 362 356
f 363 355 357
f 363 361 355
f 364 357 358
f 364 358 360
f 364 363 357
f 365 366 362
f 365 362 361
f 367 365 361
f 367 363 364
f 367 361 363
f 368 360 369
f 368 369 370
f 368 364 360
f 368 367 364
f 371 366 365
f 371 372 366
f 373 371 365
f 373 365 367
f 374 373 367
f 374 367 368
f 374 368 370
f 375 372 371
f 375 376 372
f 377 371 373
f 377 373 374
f 377 375 371
f 378 370 379
f 378 377 374
f 378 374 370
f 380 376 375
f 380 381 376
f 382 375 377
f 382 380 375
f 383 379 384
f 383 378 379
f 383 377 378
f 383 382 377
f 385 381 380
f 385 386 381
f 387 385 380
f 387 380 382
f 388 384 389
f 388 387 382
f 388 382 383
f 388 383 384
f 390 386 385
f 390 391 386
f 392 390 385
f 392 385 387
f 392 387 388
f 393 388 389
f 393 389 394
f 393 392 388
f 395 391 390
f 395 396 391
f 397 390 392
f 397 395 390
f 398 394 399
f 398 397 392
f 398 393 394
f 398 392 393
f 400 396 395
f 400 401 396
f 402 400 395
f 402 395 397
f 403 399 404
f 403 404 405
f 403 398 399
f 403 397 398
f 403 402 397
f 406 401 400
f 406 407 401
f 408 400 402
f 408 406 400
f 409 405 410
f 409 403 405
f 409 402 403
f 409 408 402
f 411 406 408
f 411 412 407
f 411 407 406
f 413 411 408
f 414 409 410
f 414 408 409
f 414 413 408
f 415 416 412
f 415 412 411
f 417 411 413
f 417 415 411
f 418 410 419
f 418 414 410
f 418 417 413
f 418 413 414
f 420 421 416
f 420 416 415
f 422 420 415
f 422 415 417
f 423 422 417
f 423 419 424
f 423 418 419
f 423 417 418
f 425 421 420
f 425 426 421
f 427 425 420
f 427 420 422
f 428 427 422
f 428 424 429
f 428 429 430
f 428 422 423
f 428 423 424
f 431 426 425
f 431 432 426
f 433 425 427
f 433 431 425
f 434 427 428
f 434 433 427
f 434 428 430
f 435 432 431
f 435 436 432
f 437 435 431
f 437 431 433
f 438 433 434
f 438 430 439
f 438 434 430
f 438 437 433
f 440 436 435
f 440 441 436
f 440 435 437
f 442 440 437
f 443 438 439
f 443 439 444
f 443 444 445
f 443 437 438
f 443 442 437
f 446 441 440
f 446 447 441
f 448 446 440
f 448 440 442
f 449 443 445
f 449 442 443
f 449 448 442
f 450 447 446
f 450 451 447
f 452 446 448
f 452 450 446
f 453 445 454
f 453 452 448
f 453 448 449
f 453 449 445
f 455 451 450
f 455 456 451
f 457 450 452
f 457 455 450
f 458 454 459
f 458 457 452
f 458 453 454
f 458 452 453
f 460 461 456
f 460 456 455
f 460 455 457
f 462 457 458
f 462 460 457
f 463 459 464
f 463 462 458
f 463 458 459
f 465 466 461
f 465 461 460
f 467 460 462
f 467 465 460
f 468 464 469
f 468 463 464
f 468 467 462
f 468 462 463
f 470 471 466
f 470 466 465
f 472 465 467
f 472 467 468
f 472 470 465
f 473 469 474
f 473 468 469
f 473 472 468
f 475 476 471
f 475 470 472
f 475 471 470
f 477 475 472
f 478 477 472
f 478 474 479
f 478 473 474
f 478 472 473
f 480 476 475
f 480 481 476
f 482 475 477
f 482 480 475
f 483 482 477
f 483 479 484
f 483 477 478
f 483 478 479
f 485 480 482
f 485 481 480
f 485 486 481
f 487 482 483
f 487 485 482
f 488 487 483
f 488 483 484
f 488 484 489
f 490 486 485
f 490 485 487
f 490 491 492
f 490 492 486
f 493 487 488
f 493 490 487
f 494 488 489
f 494 493 488
f 494 489 495
f 496 491 490
f 497 490 493
f 497 496 490
f 498 493 494
f 498 494 495
f 498 497 493
f 498 495 499
f 500 491 496
f 500 496 497
f 500 501 491
f 502 500 497
f 502 497 498
f 503 499 504
f 503 498 499
f 503 502 498
f 505 501 500
f 505 506 507
f 505 507 501
f 508 505 500
f 508 500 502
f 508 502 503
f 509 504 510
f 509 503 504
f 509 508 503
f 511 512 513
f 511 513 506
f 511 506 505
f 514 515 512
f 514 505 508
f 514 511 505
f 514 512 511
f 516 517 515
f 516 518 517
f 516 514 508
f 516 510 519
f 516 519 518
f 516 508 509
f 516 509 510
f 516 515 514
f 520 521 522
f 523 520 522
f 524 523 522
f 525 524 522
f 526 525 522
f 527 526 522
f 528 527 522
f 529 528 522
f 530 529 522
f 531 530 522
f 532 531 522
f 532 533 534
f 532 534 531
f 535 533 532
f 337 536 537
f 337 537 538
f 337 538 539
f 337 539 540
f 337 540 541
f 337 541 542
f 337 542 543
f 337 543 544
f 337 544 545
f 337 545 546
f 547 535 532
f 547 337 546
f 547 546 548
f 547 548 549
f 547 549 550
f 547 550 535
f 349 547 532
f 349 532 551
f 354 349 551
f 354 551 552
f 553 354 552
f 553 552 554
f 555 553 554
f 555 554 556
f 557 555 556
f 557 556 558
f 559 557 558
f 559 558 560
f 379 559 560
f 379 560 561
f 384 379 561
f 384 561 562
f 389 384 562
f 389 562 563
f 394 389 563
f 394 563 564
f 399 564 565
f 399 394 564
f 566 565 567
f 566 399 565
f 405 567 568
f 405 566 567
f 569 568 570
f 569 405 568
f 419 569 570
f 419 570 571
f 572 573 574
f 575 574 573
f 576 572 574
f 576 574 577
f 578 576 577
f 579 578 577
f 580 579 577
f 581 580 577
f 582 581 577
f 583 582 577
f 584 583 577
f 585 584 577
f 586 585 577
f 587 586 577
f 588 587 577
f 589 588 577
f 590 589 577
f 591 590 577
f 592 591 577
f 593 574 575
f 594 592 577
f 595 594 577
f 596 595 577
f 597 596 577
f 598 597 577
f 599 598 577
f 600 419 571
f 600 593 601
f 600 601 602
f 600 574 593
f 600 571 574
f 603 604 605
f 603 605 599
f 603 599 577
f 606 604 603
f 607 602 608
f 607 608 609
f 607 609 610
f 607 610 611
f 607 611 612
f 607 612 613
f 607 613 614
f 607 614 615
f 607 615 616
f 607 616 617
f 607 617 618
f 607 618 619
f 607 619 620
f 607 620 621
f 607 621 622
f 607 622 623
f 607 623 624
f 607 624 625
f 607 625 626
f 607 626 627
f 607 600 602
f 628 606 603
f 628 627 629
f 628 629 630
f 628 630 631
f 628 631 606
f 628 607 627
f 439 628 603
f 439 603 632
f 633 439 632
f 633 632 634
f 635 633 634
f 635 634 636
f 454 635 636
f 454 636 637
f 459 454 637
f 459 637 638
f 464 459 638
f 464 638 639
f 469 464 639
f 469 639 640
f 474 469 640
f 474 640 641
f 479 474 641
f 479 641 642
f 484 479 642
f 484 642 643
f 489 484 643
f 489 643 644
f 495 489 644
f 495 644 645
f 499 645 646
f 499 495 645
f 504 647 648
f 504 646 647
f 504 499 646
f 510 504 648
f 649 650 651
f 652 651 650
f 653 651 654
f 653 649 651
f 655 653 654
f 656 655 654
f 657 656 654
f 658 657 654
f 659 658 654
f 660 659 654
f 661 660 654
f 662 661 654
f 663 662 654
f 664 663 654
f 665 664 654
f 666 651 652
f 667 666 668
f 667 668 669
f 667 651 666
f 667 648 651
f 667 510 648
f 670 669 671
f 670 671 672
f 670 672 673
f 670 673 674
f 670 674 675
f 670 675 676
f 670 676 677
f 670 677 678
f 670 678 679
f 670 679 680
f 670 667 669
f 681 682 683
f 684 685 681
f 686 687 688
f 689 690 686
f 691 692 684
f 691 693 692
f 691 694 695
f 691 683 694
f 691 681 683
f 691 684 681
f 696 697 693
f 696 698 697
f 696 699 700
f 696 695 699
f 696 693 691
f 696 691 695
f 701 702 698
f 701 703 702
f 701 704 705
f 701 700 704
f 701 696 700
f 701 698 696
f 706 701 705
f 706 703 701
f 706 707 703
f 706 708 707
f 706 709 710
f 706 705 709
f 711 706 710
f 711 708 706
f 711 712 708
f 711 710 713
f 714 715 712
f 714 716 715
f 714 712 711
f 714 711 713
f 714 717 718
f 714 713 717
f 719 716 714
f 719 720 716
f 719 721 720
f 719 722 723
f 719 718 722
f 719 714 718
f 724 725 721
f 724 726 725
f 724 727 728
f 724 723 727
f 724 719 723
f 724 721 719
f 729 724 728
f 729 730 726
f 729 731 730
f 729 726 724
f 729 732 733
f 729 728 732
f 734 735 731
f 734 731 729
f 734 736 735
f 734 737 738
f 734 733 737
f 734 729 733
f 739 740 736
f 739 741 740
f 739 734 738
f 739 742 743
f 739 738 742
f 739 736 734
f 744 745 741
f 744 746 745
f 744 741 739
f 744 747 748
f 744 743 747
f 744 739 743
f 749 746 744
f 749 744 748
f 749 750 746
f 749 751 750
f 749 752 753
f 749 748 752
f 754 755 751
f 754 751 749
f 754 749 753
f 754 753 756
f 757 758 755
f 757 759 758
f 757 755 754
f 757 754 756
f 757 760 761
f 757 756 760
f 762 757 761
f 762 763 759
f 762 764 763
f 762 759 757
f 762 765 492
f 762 761 765
f 766 767 764
f 766 768 767
f 766 769 770
f 766 492 769
f 766 762 492
f 766 764 762
f 771 772 768
f 771 690 772
f 771 686 690
f 771 687 686
f 771 773 687
f 771 770 773
f 771 768 766
f 771 766 770
f 774 775 776
f 774 776 777
f 778 775 774
f 778 779 775
f 780 730 781
f 780 781 782
f 780 782 779
f 780 779 778
f 783 774 777
f 783 777 784
f 785 774 783
f 785 778 774
f 786 787 730
f 786 780 778
f 786 730 780
f 786 778 785
f 788 783 784
f 788 784 789
f 790 785 783
f 790 783 788
f 790 786 785
f 791 725 787
f 791 786 790
f 791 787 786
f 792 788 789
f 792 789 793
f 794 790 788
f 794 788 792
f 795 721 725
f 795 790 794
f 795 725 791
f 795 791 790
f 796 792 793
f 796 794 792
f 796 793 797
f 798 794 796
f 799 800 721
f 799 795 794
f 799 721 795
f 799 794 798
f 801 797 802
f 801 802 803
f 801 796 797
f 804 796 801
f 804 798 796
f 805 798 804
f 805 716 800
f 805 799 798
f 805 800 799
f 806 801 803
f 807 804 801
f 807 801 806
f 808 804 807
f 808 809 716
f 808 716 805
f 808 805 804
f 810 806 803
f 810 803 811
f 810 811 812
f 813 806 810
f 813 807 806
f 813 808 807
f 814 808 813
f 814 809 808
f 814 712 809
f 815 810 812
f 815 812 816
f 817 810 815
f 817 813 810
f 818 712 814
f 818 813 817
f 818 814 813
f 818 819 712
f 820 815 816
f 821 817 815
f 821 815 820
f 822 823 819
f 822 818 817
f 822 819 818
f 822 817 821
f 824 820 816
f 824 816 825
f 826 821 820
f 826 820 824
f 827 703 823
f 827 823 822
f 827 822 821
f 827 821 826
f 828 824 825
f 828 826 824
f 828 825 829
f 830 826 828
f 831 832 703
f 831 703 827
f 831 827 826
f 831 826 830
f 833 829 834
f 833 828 829
f 835 830 828
f 835 828 833
f 836 837 832
f 836 831 830
f 836 830 835
f 836 832 831
f 838 835 833
f 838 834 839
f 838 833 834
f 840 835 838
f 841 842 837
f 841 835 840
f 841 837 836
f 841 836 835
f 843 839 844
f 843 838 839
f 845 840 838
f 845 838 843
f 846 847 842
f 846 840 845
f 846 842 841
f 846 841 840
f 848 844 849
f 848 843 844
f 850 845 843
f 850 843 848
f 851 852 847
f 851 847 846
f 851 846 845
f 851 845 850
f 853 848 849
f 853 849 854
f 853 854 855
f 853 850 848
f 856 850 853
f 857 850 856
f 857 858 852
f 857 852 851
f 857 851 850
f 859 853 855
f 860 853 859
f 860 856 853
f 861 857 856
f 861 858 857
f 861 862 858
f 861 856 860
f 863 859 855
f 863 855 864
f 863 864 865
f 863 860 859
f 866 860 863
f 867 861 860
f 867 862 861
f 867 860 866
f 867 868 862
f 869 863 865
f 870 866 863
f 870 863 869
f 871 872 868
f 871 866 870
f 871 867 866
f 871 868 867
f 873 869 865
f 873 865 874
f 875 869 873
f 875 870 869
f 876 877 872
f 876 871 870
f 876 870 875
f 876 872 871
f 878 873 874
f 878 874 879
f 880 875 873
f 880 873 878
f 881 882 877
f 881 877 876
f 881 875 880
f 881 876 875
f 883 878 879
f 883 879 884
f 885 878 883
f 885 880 878
f 886 887 882
f 886 882 881
f 886 881 880
f 886 880 885
f 888 883 884
f 888 884 889
f 890 885 883
f 890 886 885
f 890 883 888
f 891 892 887
f 891 887 886
f 891 886 890
f 893 888 889
f 893 889 894
f 895 890 888
f 895 888 893
f 896 897 892
f 896 892 891
f 896 890 895
f 896 891 890
f 898 894 899
f 898 893 894
f 900 895 893
f 900 893 898
f 901 902 897
f 901 897 896
f 901 896 895
f 901 895 900
f 903 899 904
f 903 898 899
f 903 900 898
f 905 900 903
f 906 907 902
f 906 902 901
f 906 901 900
f 906 900 905
f 908 903 904
f 908 904 909
f 908 909 910
f 911 903 908
f 911 905 903
f 912 905 911
f 912 913 907
f 912 906 905
f 912 907 906
f 914 908 910
f 915 911 908
f 915 908 914
f 916 913 912
f 916 911 915
f 916 917 913
f 916 912 911
f 918 914 910
f 918 910 919
f 918 919 920
f 921 914 918
f 921 915 914
f 922 746 917
f 922 916 915
f 922 917 916
f 922 915 921
f 923 921 918
f 923 918 920
f 924 921 923
f 925 926 746
f 925 921 924
f 925 746 922
f 925 922 921
f 927 923 920
f 927 920 928
f 929 923 927
f 929 924 923
f 930 931 926
f 930 926 925
f 930 925 924
f 930 924 929
f 932 927 928
f 932 928 933
f 934 929 927
f 934 927 932
f 935 740 931
f 935 931 930
f 935 930 929
f 935 929 934
f 936 932 933
f 936 933 937
f 938 934 932
f 938 932 936
f 939 940 740
f 939 740 935
f 939 934 938
f 939 935 934
f 941 936 937
f 941 938 936
f 941 937 942
f 941 942 943
f 941 944 945
f 941 943 944
f 946 941 945
f 946 938 941
f 947 948 949
f 947 949 940
f 947 940 939
f 947 938 946
f 947 946 945
f 947 939 938
f 947 950 948
f 947 945 950
f 951 952 953
f 954 951 953
f 955 953 956
f 955 954 953
f 957 956 844
f 957 955 956
f 958 844 959
f 958 957 844
f 960 959 834
f 960 958 959
f 961 960 834
f 961 834 829
f 962 961 829
f 962 829 825
f 963 962 825
f 963 825 964
f 965 963 964
f 965 964 812
f 966 965 812
f 966 812 967
f 968 966 967
f 968 967 969
f 970 968 969
f 970 969 971
f 972 970 971
f 972 971 973
f 974 972 973
f 974 973 793
f 975 974 793
f 975 793 976
f 977 975 976
f 977 976 784
f 978 784 979
f 978 977 784
f 980 979 981
f 980 978 979
f 982 980 981
f 982 981 983
f 984 982 983
f 984 983 985
f 986 984 985
f 986 985 933
f 987 986 933
f 987 933 988
f 989 987 988
f 989 988 990
f 991 990 992
f 991 989 990
f 993 992 994
f 993 991 992
f 995 994 996
f 995 993 994
f 997 996 904
f 997 995 996
f 998 904 899
f 998 997 904
f 999 899 1000
f 999 998 899
f 1001 1000 889
f 1001 999 1000
f 1002 889 1003
f 1002 1001 889
f 1004 1002 1003
f 1004 1003 879
f 1005 1004 879
f 1005 879 1006
f 1007 1005 1006
f 1007 1008 1009
f 1007 1006 1008
f 1010 1007 1009
f 1011 1010 1009
f 1011 1009 1012
f 1013 1014 1015
f 1016 1015 1017
f 1018 1019 1013
f 1018 1013 1015
f 1020 1021 1022
f 1023 1015 1016
f 1023 1018 1015
f 1024 1023 1025
f 1026 1027 1018
f 1026 1028 1027
f 1026 1029 1028
f 1030 1018 1023
f 1030 1023 1031
f 1032 1033 1026
f 1032 1026 1018
f 1034 1035 1036
f 1037 1035 1034
f 1038 1018 1030
f 1039 1040 1041
f 1042 1043 1032
f 1044 1045 1046
f 1047 1038 1048
f 1047 1049 1042
f 1047 1032 1018
f 1047 1042 1032
f 1047 1018 1038
f 1050 1051 1052
f 1053 1054 1055
f 1056 1057 1058
f 1059 1060 1061
f 1056 1062 1063
f 1064 1065 1066
f 1059 1052 1047
f 1067 1050 1052
f 1068 1069 1070
f 1071 1072 1073
f 1074 1073 1075
f 1074 1075 1076
f 1077 1078 1068
f 1079 1074 1080
f 1079 1080 1081
f 1082 1083 1084
f 1085 1073 1074
f 1085 1074 1079
f 1086 1073 1085
f 1087 1088 1082
f 1087 1082 1084
f 1089 1086 1090
f 1089 1071 1073
f 1089 1073 1086
f 1091 1071 1089
f 1092 1093 1094
f 1092 1094 1087
f 1095 1096 1092
f 1097 1084 1077
f 1097 1091 1098
f 1097 1098 1099
f 1097 1077 1071
f 1097 1087 1084
f 1097 1092 1087
f 1097 1071 1091
f 1097 1095 1092
f 1100 1099 1101
f 1102 1103 1104
f 1105 1099 1102
f 1105 1106 1107
f 1105 1107 1097
f 1105 1097 1099
f 1108 1109 1110
f 1108 1110 1111
f 1112 1111 1113
f 1112 1108 1111
f 1114 1113 1115
f 1114 1112 1113
f 1116 1115 1117
f 1116 1114 1115
f 1118 1117 1119
f 1118 1116 1117
f 1120 1118 1119
f 1120 1119 1121
f 1122 1120 1121
f 1122 1121 1123
f 1124 1122 1123
f 1124 1123 1125
f 1126 1124 1125
f 1126 1125 1127
f 1128 1126 1127
f 1128 1127 1129
f 1130 1128 1129
f 1130 1129 1131
f 1132 1130 1131
f 1132 1131 1133
f 1134 1132 1133
f 1134 1133 1135
f 1136 1134 1135
f 1136 1135 1137
f 1138 1136 1137
f 1138 1137 1139
f 1140 1138 1139
f 1140 1139 1141
f 1142 1140 1141
f 1142 1141 1143
f 1144 1142 1143
f 1144 1143 1145
f 1146 1145 1147
f 1146 1144 1145
f 1148 1147 1149
f 1148 1146 1147
f 1150 1149 1151
f 1150 1148 1149
f 1152 1151 1153
f 1152 1150 1151
f 1154 1153 1155
f 1154 1152 1153
f 1156 1155 1157
f 1156 1154 1155
f 1158 1157 1159
f 1158 1156 1157
f 1160 1159 1161
f 1160 1158 1159
f 1162 1163 1164
f 1162 1161 1163
f 1162 1160 1161
f 1165 1162 1164
f 1166 1164 1167
f 1166 1165 1164
f 1168 1167 1169
f 1168 1166 1167
f 1170 1169 1171
f 1170 1168 1169
f 1172 1170 1171
f 1172 1173 1174
f 1172 1171 1173
f 1175 1172 1174
f 1176 1175 1174
f 1176 1174 1177
f 1178 1176 1177
f 1178 1177 1179
f 1180 1178 1179
f 1180 1179 1181
f 1182 1183 1184
f 1185 1186 1183
f 1185 1183 1182
f 1187 1184 1188
f 1187 1182 1184
f 1189 1190 1186
f 1189 1186 1185
f 1191 1188 1192
f 1191 1187 1188
f 1193 1190 1189
f 1194 1190 1193
f 1195 1192 1196
f 1195 1191 1192
f 1197 1194 1193
f 1198 1195 1196
f 1199 1198 1196
f 1200 1194 1197
f 1201 1200 1197
f 1202 1198 1199
f 1203 1202 1199
f 1204 1200 1201
f 1205 1204 1201
f 1206 1202 1203
f 1207 1206 1203
f 1208 1204 1205
f 1209 1208 1205
f 1210 1206 1207
f 1211 1210 1207
f 1212 1208 1209
f 1213 1212 1209
f 1214 1210 1211
f 1215 1214 1211
f 1216 1212 1213
f 1217 1216 1213
f 1218 1214 1215
f 1219 1218 1215
f 1220 1216 1217
f 1221 1220 1217
f 1222 1218 1219
f 1223 1222 1219
f 1224 1220 1221
f 1224 1221 1225
f 1226 1222 1223
f 1227 1226 1223
f 1228 1224 1225
f 1228 1225 1229
f 1230 1226 1227
f 1231 1232 1230
f 1231 1230 1227
f 1233 1229 1234
f 1233 1228 1229
f 1235 1236 1232
f 1235 1232 1231
f 1237 1234 1238
f 1237 1233 1234
f 1239 1237 1238
f 1240 1241 1236
f 1240 1236 1235
f 1242 1237 1239
f 1243 1242 1239
f 1244 1245 1241
f 1244 1241 1240
f 1246 1243 1247
f 1246 1242 1243
f 1248 1245 1244
f 1248 1249 1245
f 1250 1246 1247
f 1250 1247 1251
f 1252 1249 1248
f 1252 1253 1249
f 1254 1250 1251
f 1254 1253 1252
f 1254 1251 1253
f 1255 1256 1257
f 1258 1257 1259
f 1258 1255 1257
f 1260 1261 1256
f 1260 1256 1255
f 1262 1259 1263
f 1262 1258 1259
f 1264 1265 1261
f 1264 1261 1260
f 1266 1263 1267
f 1266 1262 1263
f 1268 1269 1265
f 1268 1265 1264
f 1270 1267 1271
f 1270 1266 1267
f 1272 1273 1269
f 1272 1269 1268
f 1274 1271 1275
f 1274 1270 1271
f 1276 1273 1272
f 1276 1277 1273
f 1278 1274 1275
f 1279 1278 1275
f 1280 1277 1276
f 1280 1281 1277
f 1282 1278 1279
f 1283 1282 1279
f 1284 1281 1280
f 1284 1285 1281
f 1286 1282 1283
f 1287 1285 1284
f 1288 1286 1283
f 1289 1285 1287
f 1290 1286 1288
f 1291 1289 1287
f 1292 1290 1288
f 1293 1289 1291
f 1294 1290 1292
f 1295 1293 1291
f 1296 1294 1292
f 1296 1297 1294
f 1298 1293 1295
f 1299 1298 1295
f 1300 1301 1297
f 1300 1297 1296
f 1302 1298 1299
f 1303 1302 1299
f 1304 1305 1301
f 1304 1301 1300
f 1306 1302 1303
f 1306 1303 1307
f 1308 1309 1305
f 1308 1305 1304
f 1310 1307 1311
f 1310 1306 1307
f 1312 1313 1309
f 1312 1309 1308
f 1314 1311 1315
f 1314 1310 1311
f 1316 1317 1313
f 1316 1313 1312
f 1318 1314 1315
f 1318 1315 1319
f 1320 1317 1316
f 1320 1321 1317
f 1322 1318 1319
f 1322 1319 1323
f 1324 1325 1321
f 1324 1321 1320
f 1326 1322 1323
f 1326 1325 1324
f 1326 1323 1325
f 1327 1328 1329
f 1327 1329 1330
f 1331 1330 1332
f 1331 1327 1330
f 1333 1332 1334
f 1333 1331 1332
f 1335 1334 1336
f 1335 1333 1334
f 1337 1336 1338
f 1337 1335 1336
f 1339 1337 1338
f 1339 1338 1340
f 1341 1339 1340
f 1341 1340 1342
f 1343 1341 1342
f 1343 1342 1344
f 1345 1343 1344
f 1345 1344 1346
f 1347 1345 1346
f 1347 1346 1348
f 1349 1347 1348
f 1349 1348 1350
f 1351 1349 1350
f 1351 1350 1352
f 1353 1351 1352
f 1353 1352 1354
f 1355 1353 1354
f 1355 1354 1356
f 1357 1355 1356
f 1357 1356 1358
f 1359 1357 1358
f 1359 1358 1360
f 1361 1359 1360
f 1361 1360 1362
f 1363 1361 1362
f 1363 1362 1364
f 1365 1363 1364
f 1365 1364 1366
f 1367 1365 1366
f 1367 1366 1368
f 1367 1368 1369
f 1370 1367 1369
f 1371 1369 1372
f 1371 1370 1369
f 1373 1372 1374
f 1373 1371 1372
f 1375 1374 1376
f 1375 1373 1374
f 1377 1376 1378
f 1377 1375 1376
f 1379 1378 1380
f 1379 1377 1378
f 1381 1380 1382
f 1381 1379 1380
f 1383 1382 1384
f 1383 1381 1382
f 1385 1384 1386
f 1385 1386 1387
f 1385 1383 1384
f 1388 1385 1387
f 1389 1388 1387
f 1389 1387 1390
f 1391 1389 1390
f 1391 1390 1392
f 1393 1391 1392
f 1393 1392 1394
f 1395 1393 1394
f 1395 1394 1396
f 1397 1395 1396
f 1397 1396 1398
f 1399 1397 1398
f 1399 1398 1400
f 1401 1402 1403
f 1404 1403 1405
f 1404 1401 1403
f 1406 1407 1402
f 1406 1402 1401
f 1408 1404 1405
f 1409 1410 1407
f 1411 1407 1406
f 1412 1405 1413
f 1412 1408 1405
f 1414 1415 1410
f 1414 1410 1411
f 1416 1413 1417
f 1416 1412 1413
f 1418 1419 1415
f 1418 1415 1414
f 1420 1417 1421
f 1420 1416 1417
f 1422 1423 1419
f 1422 1419 1418
f 1424 1420 1421
f 1424 1421 1425
f 1426 1427 1423
f 1428 1423 1422
f 1429 1424 1425
f 1429 1425 1430
f 1431 1432 1427
f 1431 1433 1428
f 1434 1429 1430
f 1434 1430 1435
f 1436 1437 1432
f 1438 1432 1431
f 1439 1435 1440
f 1439 1434 1435
f 1441 1442 1438
f 1443 1442 1441
f 1444 1439 1440
f 1445 1446 1439
f 1447 1441 1448
f 1447 1443 1441
f 1449 1450 1444
f 1449 1451 1450
f 1452 1447 1448
f 1453 1447 1452
f 1454 1451 1449
f 1454 1455 1451
f 1456 1453 1452
f 1457 1455 1454
f 1458 1456 1459
f 1458 1453 1456
f 1460 1457 1454
f 1461 1458 1459
f 1462 1463 1457
f 1462 1457 1460
f 1464 1459 1465
f 1464 1465 1466
f 1464 1461 1459
f 1467 1468 1463
f 1467 1463 1462
f 1469 1466 1470
f 1469 1464 1466
f 1471 1468 1467
f 1471 1472 1468
f 1473 1469 1470
f 1474 1472 1471
f 1474 1475 1472
f 1476 1470 1477
f 1476 1473 1470
f 1478 1475 1474
f 1478 1476 1477
f 1479 1477 1480
f 1479 1480 1475
f 1481 1482 1483
f 1481 1483 1484
f 1485 1484 1486
f 1485 1481 1484
f 1487 1486 1488
f 1487 1485 1486
f 1489 1488 1490
f 1489 1487 1488
f 1491 1490 1492
f 1491 1489 1490
f 1493 1491 1492
f 1493 1492 1494
f 1493 1494 1495
f 1496 1493 1495
f 1497 1496 1495
f 1497 1495 1498
f 1497 1498 1499
f 1500 1497 1499
f 1501 1500 1499
f 1501 1499 1502
f 1503 1501 1502
f 1503 1502 1504
f 1505 1503 1504
f 1505 1504 1506
f 1505 1506 1507
f 1508 1505 1507
f 1508 1507 1509
f 1510 1508 1509
f 1511 1510 1509
f 1511 1509 1512
f 1513 1511 1512
f 1513 1512 1514
f 1515 1513 1514
f 1515 1514 1516
f 1517 1515 1516
f 1517 1516 1518
f 1517 1518 1519
f 1520 1517 1519
f 1521 1520 1519
f 1521 1519 1522
f 1523 1522 1524
f 1523 1521 1522
f 1525 1524 1526
f 1525 1523 1524
f 1527 1526 1528
f 1527 1525 1526
f 1529 1528 1530
f 1529 1527 1528
f 1531 1530 1532
f 1531 1529 1530
f 1533 1532 1534
f 1533 1531 1532
f 1535 1534 1536
f 1535 1533 1534
f 1537 1536 1538
f 1537 1535 1536
f 1539 1538 1540
f 1539 1537 1538
f 1541 1540 1542
f 1541 1539 1540
f 1543 1541 1542
f 1543 1542 1544
f 1545 1543 1544
f 1545 1544 1546
f 1547 1545 1546
f 1547 1546 1548
f 1549 1547 1548
f 1549 1548 1550
f 1549 1550 1551
f 1552 1551 1553
f 1552 1549 1551
f 1554 1552 1553
f 1555 1556 1557
f 1558 1559 1560
f 1558 1561 1559
f 1562 1563 1564
f 1562 1564 1561
f 1565 1560 1566
f 1565 1558 1560
f 1567 1568 1563
f 1567 1563 1562
f 1569 1565 1566
f 1570 1569 1566
f 1571 1572 1568
f 1571 1568 1567
f 1573 1574 1575
f 1576 1577 1570
f 1578 1579 1572
f 1578 1572 1571
f 1580 1577 1576
f 1581 1580 1576
f 1582 1579 1578
f 1582 1583 1579
f 1584 1585 1586
f 1587 1588 1581
f 1589 1583 1582
f 1589 1590 1583
f 1591 1588 1587
f 1592 1591 1587
f 1593 1590 1589
f 1593 1594 1590
f 1595 1591 1592
f 1596 1595 1592
f 1597 1598 1594
f 1597 1594 1593
f 1599 1595 1596
f 1600 1598 1597
f 1601 1599 1596
f 1601 1602 1599
f 1603 1598 1600
f 1604 1603 1600
f 1605 1602 1601
f 1605 1606 1602
f 1607 1603 1604
f 1608 1607 1604
f 1609 1606 1605
f 1609 1610 1606
f 1611 1607 1608
f 1612 1611 1608
f 1613 1610 1609
f 1613 1614 1610
f 1615 1611 1612
f 1616 1615 1612
f 1617 1614 1613
f 1618 1619 1614
f 1620 1615 1616
f 1621 1620 1616
f 1622 1623 1619
f 1622 1619 1618
f 1624 1625 1626
f 1627 1628 1621
f 1629 1630 1623
f 1629 1623 1622
f 1631 1627 1632
f 1631 1628 1627
f 1633 1630 1629
f 1633 1634 1630
f 1635 1631 1632
f 1635 1632 1636
f 1637 1634 1633
f 1637 1638 1634
f 1639 1635 1636
f 1639 1638 1637
f 1639 1636 1638
f 1640 1641 1642
f 1643 1642 1644
f 1643 1640 1642
f 1645 1644 1646
f 1645 1643 1644
f 1647 1646 1648
f 1647 1645 1646
f 1649 1648 1650
f 1649 1647 1648
f 1651 1649 1650
f 1651 1650 1652
f 1653 1651 1652
f 1653 1652 1654
f 1655 1653 1654
f 1655 1654 1656
f 1657 1655 1656
f 1657 1656 1658
f 1659 1657 1658
f 1659 1658 1660
f 1661 1659 1660
f 1661 1660 1662
f 1663 1661 1662
f 1663 1662 1664
f 1665 1663 1664
f 1665 1664 1666
f 1667 1665 1666
f 1667 1666 1668
f 1669 1667 1668
f 1669 1668 1670
f 1671 1669 1670
f 1671 1670 1672
f 1673 1671 1672
f 1673 1672 1674
f 1675 1673 1674
f 1675 1674 1676
f 1677 1675 1676
f 1677 1676 1678
f 1679 1678 1680
f 1679 1677 1678
f 1681 1680 1682
f 1681 1679 1680
f 1683 1682 1684
f 1683 1681 1682
f 1685 1684 1686
f 1685 1683 1684
f 1687 1686 1688
f 1687 1685 1686
f 1689 1688 1690
f 1689 1687 1688
f 1691 1690 1692
f 1691 1689 1690
f 1693 1692 1694
f 1693 1691 1692
f 1695 1694 1696
f 1695 1693 1694
f 1697 1696 1698
f 1697 1695 1696
f 1699 1698 1700
f 1699 1697 1698
f 1701 1700 1702
f 1701 1699 1700
f 1703 1701 1702
f 1703 1702 1704
f 1705 1703 1704
f 1705 1704 1706
f 1707 1705 1706
f 1707 1706 1708
f 1709 1707 1708
f 1709 1708 1710
f 1711 1709 1710
f 1711 1710 1712
f 1713 1711 1712
f 1713 1712 1714

