# https://github.com/mikedh/trimesh
v -0.04701447 0.05567181 -0.09099894
v -0.04906433 0.05804038 -0.09099894
v -0.03828835 0.06565058 -0.09099894
v -0.05596750 0.04666209 -0.09099894
v -0.05836200 0.04868131 -0.09099894
v -0.06590110 0.03785550 -0.09099894
v -0.03663289 0.06299000 -0.09099894
v -0.06322002 0.03623449 -0.09099894
v -0.02635866 0.07128268 -0.09099894
v -0.07145458 0.02588897 -0.09099894
v -0.02513825 0.06839430 -0.09099894
v -0.06855165 0.02470594 -0.09099894
v -0.01363474 0.07476687 -0.09099894
v -0.07485502 0.01314246 -0.09099894
v -0.01287978 0.07172048 -0.09099894
v -0.07180035 0.01242673 -0.09099894
v -0.00050006 0.07559996 -0.09099894
v -0.00050006 0.07599830 -0.09099894
v -0.07599997 -0.00000000 -0.09099894
v -0.00023001 0.07286745 -0.09099894
v 0.00049994 0.07559996 -0.09099894
v -0.07286745 -0.00023001 -0.09099894
v -0.07485496 -0.01314258 -0.09099894
v 0.01363462 0.07476693 -0.09099894
v 0.00049994 0.07599836 -0.09099894
v 0.01242673 0.07180035 -0.09099894
v -0.07172048 -0.01287978 -0.09099894
v -0.07145452 -0.02588909 -0.09099894
v 0.02470594 0.06855165 -0.09099894
v 0.02635854 0.07128268 -0.09099894
v -0.06839430 -0.02513825 -0.09099894
v -0.06590104 -0.03785562 -0.09099894
v 0.03623449 0.06322002 -0.09099894
v 0.03828823 0.06565064 -0.09099894
v -0.06299000 -0.03663289 -0.09099894
v -0.05836188 -0.04868143 -0.09099894
v 0.04666209 0.05596750 -0.09099894
v 0.04906427 0.05804044 -0.09099894
v -0.05567181 -0.04701447 -0.09099894
v 0.05567181 0.04701447 -0.09099894
v -0.04906427 -0.05804044 -0.09099894
v -0.04666209 -0.05596750 -0.09099894
v 0.05836188 0.04868143 -0.09099894
v 0.06299000 0.03663289 -0.09099894
v -0.03828823 -0.06565064 -0.09099894
v -0.03623449 -0.06322002 -0.09099894
v 0.06590104 0.03785562 -0.09099894
v 0.06839430 0.02513825 -0.09099894
v -0.02635854 -0.07128268 -0.09099894
v -0.02470594 -0.06855165 -0.09099894
v 0.07145452 0.02588909 -0.09099894
v 0.07172048 0.01287978 -0.09099894
v -0.01363462 -0.07476693 -0.09099894
v -0.01242673 -0.07180035 -0.09099894
v 0.07485496 0.01314258 -0.09099894
v 0.07286745 0.00023001 -0.09099894
v -0.00049994 -0.07559996 -0.09099894
v 0.00023001 -0.07286745 -0.09099894
v -0.00049994 -0.07599836 -0.09099894
v 0.07599997 -0.00000000 -0.09099894
v 0.00050006 -0.07559996 -0.09099894
v 0.07180035 -0.01242673 -0.09099894
v 0.01287978 -0.07172048 -0.09099894
v 0.07485502 -0.01314246 -0.09099894
v 0.01363474 -0.07476693 -0.09099894
v 0.00050006 -0.07599836 -0.09099894
v 0.06855165 -0.02470594 -0.09099894
v 0.02513825 -0.06839430 -0.09099894
v 0.07145458 -0.02588903 -0.09099894
v 0.02635866 -0.07128268 -0.09099894
v 0.06322002 -0.03623449 -0.09099894
v 0.03663289 -0.06299006 -0.09099894
v 0.06590110 -0.03785550 -0.09099894
v 0.05596750 -0.04666209 -0.09099894
v 0.03828835 -0.06565058 -0.09099894
v 0.04701447 -0.05567181 -0.09099894
v 0.05836200 -0.04868131 -0.09099894
v 0.04906433 -0.05804038 -0.09099894
v -0.02462536 -0.09000003 0.06765884
v -0.03599989 -0.09000003 0.06235480
v -0.04628062 -0.09000003 0.05515617
v -0.07090604 -0.09000003 0.01250362
v -0.06235373 -0.09000003 0.03600096
v -0.06765776 -0.09000003 0.02462643
v -0.07090604 -0.09000003 -0.01250165
v -0.07199990 -0.09000003 0.00000100
v 0.01250272 -0.08999997 0.07090711
v 0.00000000 -0.08999997 0.07200098
v -0.01250255 -0.09000003 0.07090711
v -0.05515509 -0.09000003 0.04628169
v 0.01250272 -0.08999997 0.07090711
v -0.06765776 -0.09000003 -0.02462440
v -0.05515509 -0.09000003 -0.04627966
v -0.06235373 -0.09000003 -0.03599900
v -0.03599989 -0.09000003 -0.06235277
v -0.04628062 -0.09000003 -0.05515414
v 0.06235384 -0.08999991 0.03600096
v 0.05515521 -0.08999997 0.04628169
v 0.04628074 -0.08999997 0.05515617
v 0.03600007 -0.08999997 0.06235480
v 0.07090622 -0.08999991 0.01250362
v 0.06765794 -0.08999991 0.02462643
v 0.02462548 -0.08999997 0.06765884
v 0.00000000 -0.08999997 -0.07199901
v -0.02462536 -0.09000003 -0.06765687
v -0.01250255 -0.08999997 -0.07090514
v 0.07090622 -0.08999991 -0.01250165
v 0.07200002 -0.08999991 0.00000100
v 0.02462548 -0.08999997 -0.06765687
v 0.00000000 -0.08999997 -0.07199901
v 0.01250272 -0.08999997 -0.07090514
v 0.02462548 -0.08999997 -0.06765687
v 0.04628074 -0.08999997 -0.05515414
v 0.03600007 -0.08999997 -0.06235277
v 0.05515521 -0.08999997 -0.04627966
v 0.06235384 -0.08999991 -0.03599900
v 0.06765794 -0.08999991 -0.02462440
v -0.01250255 -0.09000003 0.07090711
v 0.00000000 -0.08999997 0.07200098
v 0.00000000 -0.08849996 0.07200098
v -0.01250255 -0.08850002 0.07090711
v -0.02462536 -0.09000003 0.06765884
v -0.02462536 -0.08850002 0.06765884
v -0.03599989 -0.09000003 0.06235480
v -0.03599989 -0.08850002 0.06235480
v -0.04628062 -0.09000003 0.05515617
v -0.04628062 -0.08850002 0.05515617
v -0.05515509 -0.09000003 0.04628169
v -0.05515509 -0.08850002 0.04628169
v -0.06235373 -0.09000003 0.03600096
v -0.06235373 -0.08850002 0.03600096
v -0.06765776 -0.09000003 0.02462643
v -0.06765776 -0.08850002 0.02462643
v -0.07090604 -0.09000003 0.01250362
v -0.07090604 -0.08850002 0.01250362
v -0.07199990 -0.09000003 0.00000100
v -0.07199990 -0.08850002 0.00000100
v -0.07090604 -0.09000003 -0.01250165
v -0.07090604 -0.08850002 -0.01250165
v -0.06765776 -0.09000003 -0.02462440
v -0.06765776 -0.08850002 -0.02462440
v -0.06235373 -0.09000003 -0.03599900
v -0.06235373 -0.08850002 -0.03599900
v -0.05515509 -0.09000003 -0.04627966
v -0.05515509 -0.08850002 -0.04627966
v -0.04628062 -0.09000003 -0.05515414
v -0.04628062 -0.08850002 -0.05515414
v -0.03599989 -0.09000003 -0.06235277
v -0.03599989 -0.08850002 -0.06235277
v -0.02462536 -0.09000003 -0.06765687
v -0.02462536 -0.08850002 -0.06765687
v -0.01250255 -0.08999997 -0.07090514
v -0.01250255 -0.08850002 -0.07090514
v 0.00000000 -0.08999997 -0.07199901
v 0.00000000 -0.08849996 -0.07199901
v 0.01250272 -0.08999997 -0.07090514
v 0.01250272 -0.08849996 -0.07090514
v 0.02462548 -0.08999997 -0.06765687
v 0.02462548 -0.08849996 -0.06765687
v 0.03600007 -0.08999997 -0.06235277
v 0.03600007 -0.08849996 -0.06235277
v 0.04628074 -0.08999997 -0.05515414
v 0.04628074 -0.08849996 -0.05515414
v 0.05515521 -0.08999997 -0.04627966
v 0.05515521 -0.08849996 -0.04627966
v 0.06235384 -0.08999991 -0.03599900
v 0.06235384 -0.08849996 -0.03599900
v 0.06765794 -0.08999991 -0.02462440
v 0.06765794 -0.08849996 -0.02462440
v 0.07090622 -0.08999991 -0.01250165
v 0.07090622 -0.08849990 -0.01250165
v 0.07200002 -0.08999991 0.00000100
v 0.07200002 -0.08849990 0.00000100
v 0.07090622 -0.08999991 0.01250362
v 0.07090622 -0.08849990 0.01250362
v 0.06765794 -0.08999991 0.02462643
v 0.06765794 -0.08849996 0.02462643
v 0.06235384 -0.08849996 0.03600096
v 0.06235384 -0.08999991 0.03600096
v 0.05515521 -0.08999997 0.04628169
v 0.05515521 -0.08849996 0.04628169
v 0.04628074 -0.08999997 0.05515617
v 0.04628074 -0.08849996 0.05515617
v 0.03600007 -0.08849996 0.06235480
v 0.03600007 -0.08999997 0.06235480
v 0.02462548 -0.08999997 0.06765884
v 0.02462548 -0.08849996 0.06765884
v 0.01250272 -0.08999997 0.07090711
v 0.01250272 -0.08849996 0.07090711
v 0.00000000 -0.08849996 0.07200098
v 0.00000000 -0.08999997 0.07200098
v -0.04628062 -0.08850002 0.05515617
v -0.03838413 -0.08850002 0.06559556
v -0.04917728 -0.08850002 0.05794566
v -0.05515509 -0.08850002 0.04628169
v -0.05848032 -0.08850002 0.04854005
v -0.03599989 -0.08850002 0.06235480
v -0.06235373 -0.08850002 0.03600096
v -0.06601142 -0.08850002 0.03766369
v -0.02642798 -0.08850002 0.07125794
v -0.02462536 -0.08850002 0.06765884
v -0.06765776 -0.08850002 0.02462643
v -0.07154238 -0.08850002 0.02564615
v -0.01367104 -0.08850002 0.07476127
v -0.01250255 -0.08850002 0.07090711
v -0.07090604 -0.08850002 0.01250362
v -0.07490557 -0.08850002 0.01285159
v -0.00049993 -0.08849996 0.07569932
v -0.00049993 -0.08849996 0.07599931
v 0.00000000 -0.08849996 0.07200098
v 0.00050007 -0.08849996 0.07569932
v -0.07199990 -0.08850002 0.00000100
v -0.07599920 -0.08850002 -0.00033234
v 0.01363480 -0.08849996 0.07476788
v 0.00050007 -0.08849996 0.07599931
v 0.01250272 -0.08849996 0.07090711
v -0.07090604 -0.08850002 -0.01250165
v -0.07479000 -0.08850002 -0.01350617
v 0.02462548 -0.08849996 0.06765884
v 0.02635866 -0.08849996 0.07128369
v -0.06765776 -0.08850002 -0.02462440
v -0.07131469 -0.08850002 -0.02627074
v 0.03600007 -0.08849996 0.06235480
v 0.03828835 -0.08849996 0.06565159
v -0.06235373 -0.08850002 -0.03599900
v -0.06567853 -0.08850002 -0.03823930
v 0.04628074 -0.08849996 0.05515617
v 0.04906439 -0.08849996 0.05804139
v -0.05515509 -0.08850002 -0.04627966
v -0.05805230 -0.08850002 -0.04904913
v 0.05515521 -0.08849996 0.04628169
v -0.04628062 -0.08850002 -0.05515414
v 0.05836200 -0.08849996 0.04868239
v -0.04866707 -0.08850002 -0.05837279
v 0.06235384 -0.08849996 0.03600096
v -0.03599989 -0.08850002 -0.06235277
v 0.06590116 -0.08849996 0.03785657
v -0.03780728 -0.08850002 -0.06592774
v 0.06765794 -0.08849996 0.02462643
v -0.02462536 -0.08850002 -0.06765687
v 0.07145464 -0.08849990 0.02589005
v -0.02580189 -0.08850002 -0.07148504
v 0.07090622 -0.08849990 0.01250362
v -0.01250255 -0.08850002 -0.07090514
v 0.07485508 -0.08849990 0.01314353
v -0.01301473 -0.08850002 -0.07487630
v 0.07200002 -0.08849990 0.00000100
v 0.00000000 -0.08849996 -0.07199901
v 0.07600003 -0.08849990 0.00000100
v 0.00016674 -0.08849996 -0.07599878
v 0.01250272 -0.08849996 -0.07090514
v 0.07484865 -0.08849990 -0.01317799
v 0.07090622 -0.08849990 -0.01250165
v 0.01334315 -0.08849996 -0.07481849
v 0.02462548 -0.08849996 -0.06765687
v 0.07142937 -0.08849990 -0.02595770
v 0.06765794 -0.08849996 -0.02462440
v 0.02611535 -0.08849996 -0.07137119
v 0.03600007 -0.08849996 -0.06235277
v 0.06584572 -0.08849996 -0.03795087
v 0.06235384 -0.08849996 -0.03599900
v 0.03809624 -0.08849996 -0.06576126
v 0.04628074 -0.08849996 -0.05515414
v 0.05826699 -0.08849996 -0.04879409
v 0.05515521 -0.08849996 -0.04627966
v 0.04892277 -0.08849996 -0.05815881
v 0.00049994 0.07599836 -0.08799916
v 0.00049994 0.07599836 -0.09099894
v 0.00049994 0.07559996 -0.09099894
v 0.00049994 0.07559996 -0.08799916
v 0.00049033 0.07559996 -0.08790165
v 0.00041567 0.07559996 -0.08772140
v 0.00046188 0.07559996 -0.08780783
v 0.00049994 0.07559996 -0.08799916
v -0.00050006 0.07559996 -0.08799916
v -0.00049045 0.07559996 -0.08790165
v 0.00049994 0.07559996 -0.08799916
v -0.00049045 0.07559996 -0.08790165
v -0.00046200 0.07559996 -0.08780783
v 0.00049994 0.07559996 -0.08799916
v -0.00046200 0.07559996 -0.08780783
v -0.00041579 0.07559996 -0.08772140
v -0.00041579 0.07559996 -0.08772140
v -0.00035361 0.07559996 -0.08764564
v 0.00049994 0.07559996 -0.08799916
v -0.00035361 0.07559996 -0.08764564
v -0.00027785 0.07559996 -0.08758342
v 0.00049994 0.07559996 -0.08799916
v -0.00027785 0.07559996 -0.08758342
v -0.00019140 0.07559996 -0.08753722
v 0.00049994 0.07559996 -0.08799916
v -0.00019140 0.07559996 -0.08753722
v -0.00009761 0.07559996 -0.08750879
v 0.00049994 0.07559996 -0.08799916
v -0.00009761 0.07559996 -0.08750879
v 0.00000000 0.07559996 -0.08749920
v 0.00000000 0.07559996 -0.08749920
v 0.00009748 0.07559996 -0.08750879
v 0.00049994 0.07559996 -0.08799916
v 0.00009748 0.07559996 -0.08750879
v 0.00019128 0.07559996 -0.08753722
v 0.00049994 0.07559996 -0.08799916
v 0.00019128 0.07559996 -0.08753722
v 0.00027772 0.07559996 -0.08758342
v 0.00049994 0.07559996 -0.08799916
v 0.00027772 0.07559996 -0.08758342
v 0.00035349 0.07559996 -0.08764564
v 0.00041567 0.07559996 -0.08772140
v 0.00049033 0.07559996 -0.08790165
v 0.00049994 0.07559996 -0.09099894
v -0.00050006 0.07559996 -0.09099894
v -0.00050006 0.07559996 -0.08799916
v -0.00050006 0.07559996 -0.09099894
v -0.00050006 0.07599830 -0.08799916
v -0.00050006 0.07559996 -0.08799916
v -0.00050006 0.07599830 -0.09099894
v -0.00050006 0.07599830 -0.08799916
v -0.00049045 0.07559996 -0.08790165
v -0.00050006 0.07559996 -0.08799916
v -0.00046476 0.07599854 -0.08781462
v -0.00046200 0.07559996 -0.08780783
v -0.00041579 0.07559996 -0.08772140
v -0.00036416 0.07599908 -0.08765649
v -0.00035361 0.07559996 -0.08764564
v -0.00027785 0.07559996 -0.08758342
v -0.00021245 0.07599967 -0.08754652
v -0.00019140 0.07559996 -0.08753722
v -0.00010565 0.07599991 -0.08751046
v -0.00009761 0.07559996 -0.08750879
v 0.00000000 0.07559996 -0.08749920
v 0.00002947 0.07599997 -0.08750003
v 0.00009748 0.07559996 -0.08750879
v 0.00018794 0.07599973 -0.08753585
v 0.00019128 0.07559996 -0.08753722
v 0.00027772 0.07559996 -0.08758342
v 0.00035030 0.07599920 -0.08764249
v 0.00035349 0.07559996 -0.08764564
v 0.00041777 0.07599884 -0.08772456
v 0.00041567 0.07559996 -0.08772140
v 0.00046188 0.07559996 -0.08780783
v 0.00046984 0.07599854 -0.08782833
v 0.00049033 0.07559996 -0.08790165
v 0.00049994 0.07599836 -0.08799916
v 0.00049994 0.07559996 -0.08799916
v -0.00049994 -0.07599836 -0.09099894
v -0.00049994 -0.07559996 -0.08799916
v -0.00049994 -0.07599836 -0.08799916
v -0.00049994 -0.07559996 -0.09099894
v -0.00049994 -0.07559996 -0.08799916
v -0.00049994 -0.07559996 -0.09099894
v 0.00050006 -0.07559996 -0.09099894
v -0.00046188 -0.07559996 -0.08780783
v -0.00049033 -0.07559996 -0.08790165
v -0.00049994 -0.07559996 -0.08799916
v -0.00035349 -0.07559996 -0.08764564
v -0.00041567 -0.07559996 -0.08772140
v -0.00046188 -0.07559996 -0.08780783
v -0.00027772 -0.07559996 -0.08758342
v -0.00046188 -0.07559996 -0.08780783
v -0.00049994 -0.07559996 -0.08799916
v -0.00027772 -0.07559996 -0.08758342
v -0.00035349 -0.07559996 -0.08764564
v -0.00046188 -0.07559996 -0.08780783
v 0.00050006 -0.07559996 -0.08799916
v 0.00049045 -0.07559996 -0.08790165
v 0.00009761 -0.07559996 -0.08750879
v 0.00000000 -0.07559996 -0.08749920
v -0.00009748 -0.07559996 -0.08750879
v 0.00046200 -0.07559996 -0.08780783
v -0.00049994 -0.07559996 -0.08799916
v 0.00049045 -0.07559996 -0.08790165
v 0.00019140 -0.07559996 -0.08753722
v -0.00019128 -0.07559996 -0.08753722
v -0.00027772 -0.07559996 -0.08758342
v 0.00019140 -0.07559996 -0.08753722
v -0.00009748 -0.07559996 -0.08750879
v -0.00019128 -0.07559996 -0.08753722
v 0.00019140 -0.07559996 -0.08753722
v 0.00009761 -0.07559996 -0.08750879
v -0.00009748 -0.07559996 -0.08750879
v 0.00035361 -0.07559996 -0.08764564
v 0.00027785 -0.07559996 -0.08758342
v 0.00019140 -0.07559996 -0.08753722
v 0.00035361 -0.07559996 -0.08764564
v 0.00046200 -0.07559996 -0.08780783
v 0.00041579 -0.07559996 -0.08772140
v 0.00035361 -0.07559996 -0.08764564
v -0.00027772 -0.07559996 -0.08758342
v -0.00049994 -0.07559996 -0.08799916
v 0.00035361 -0.07559996 -0.08764564
v -0.00049994 -0.07559996 -0.08799916
v 0.00046200 -0.07559996 -0.08780783
v 0.00035361 -0.07559996 -0.08764564
v 0.00050006 -0.07559996 -0.08799916
v 0.00050006 -0.07559996 -0.09099894
v 0.00050006 -0.07599836 -0.09099894
v 0.00050006 -0.07599836 -0.08799916
v 0.00050006 -0.07599836 -0.08799916
v 0.00049045 -0.07559996 -0.08790165
v 0.00050006 -0.07559996 -0.08799916
v 0.00046476 -0.07599854 -0.08781462
v 0.00041579 -0.07559996 -0.08772140
v 0.00046200 -0.07559996 -0.08780783
v 0.00036416 -0.07599908 -0.08765649
v 0.00027785 -0.07559996 -0.08758342
v 0.00035361 -0.07559996 -0.08764564
v 0.00021245 -0.07599967 -0.08754652
v 0.00019140 -0.07559996 -0.08753722
v 0.00010565 -0.07599991 -0.08751046
v 0.00000000 -0.07559996 -0.08749920
v 0.00009761 -0.07559996 -0.08750879
v -0.00002947 -0.07599997 -0.08750003
v -0.00009748 -0.07559996 -0.08750879
v -0.00018794 -0.07599973 -0.08753585
v -0.00027772 -0.07559996 -0.08758342
v -0.00019128 -0.07559996 -0.08753722
v -0.00035030 -0.07599920 -0.08764249
v -0.00035349 -0.07559996 -0.08764564
v -0.00041777 -0.07599884 -0.08772456
v -0.00046188 -0.07559996 -0.08780783
v -0.00041567 -0.07559996 -0.08772140
v -0.00046984 -0.07599854 -0.08782833
v -0.00049033 -0.07559996 -0.08790165
v -0.00049994 -0.07559996 -0.08799916
v -0.00049993 -0.08849996 0.07599931
v -0.00049993 -0.08550000 0.07569932
v -0.00049993 -0.08550000 0.07599931
v -0.00049993 -0.08849996 0.07569932
v -0.00049993 -0.08550000 0.07569932
v -0.00049993 -0.08849996 0.07569932
v 0.00050007 -0.08849996 0.07569932
v -0.00041567 -0.08522218 0.07569932
v -0.00046187 -0.08530867 0.07569932
v -0.00049032 -0.08540242 0.07569932
v -0.00049993 -0.08550000 0.07569932
v -0.00027772 -0.08508425 0.07569932
v -0.00035348 -0.08514642 0.07569932
v -0.00041567 -0.08522218 0.07569932
v -0.00019127 -0.08503806 0.07569932
v 0.00050007 -0.08550000 0.07569932
v 0.00009761 -0.08500957 0.07569932
v 0.00000000 -0.08499997 0.07569932
v -0.00009748 -0.08500957 0.07569932
v -0.00019127 -0.08503806 0.07569932
v 0.00019141 -0.08503806 0.07569932
v 0.00027785 -0.08508425 0.07569932
v 0.00035362 -0.08514642 0.07569932
v 0.00049046 -0.08540242 0.07569932
v 0.00035362 -0.08514642 0.07569932
v 0.00049046 -0.08540242 0.07569932
v 0.00046201 -0.08530867 0.07569932
v 0.00035362 -0.08514642 0.07569932
v 0.00046201 -0.08530867 0.07569932
v 0.00041580 -0.08522218 0.07569932
v 0.00035362 -0.08514642 0.07569932
v -0.00041567 -0.08522218 0.07569932
v -0.00049993 -0.08550000 0.07569932
v -0.00041567 -0.08522218 0.07569932
v 0.00035362 -0.08514642 0.07569932
v -0.00049993 -0.08550000 0.07569932
v 0.00050007 -0.08550000 0.07569932
v 0.00035362 -0.08514642 0.07569932
v 0.00027785 -0.08508425 0.07569932
v -0.00019127 -0.08503806 0.07569932
v 0.00050007 -0.08849996 0.07599931
v 0.00050007 -0.08550000 0.07569932
v 0.00050007 -0.08849996 0.07569932
v 0.00050007 -0.08550000 0.07599931
v -0.00049032 -0.08540242 0.07569932
v -0.00049993 -0.08550000 0.07599931
v -0.00046983 -0.08532911 0.07599955
v -0.00046187 -0.08530867 0.07569932
v -0.00041776 -0.08522534 0.07599985
v -0.00041567 -0.08522218 0.07569932
v -0.00035348 -0.08514642 0.07569932
v -0.00035030 -0.08514326 0.07600015
v -0.00027772 -0.08508425 0.07569932
v -0.00018793 -0.08503669 0.07600075
v -0.00019127 -0.08503806 0.07569932
v -0.00009748 -0.08500957 0.07569932
v -0.00002946 -0.08500087 0.07600098
v 0.00000000 -0.08499997 0.07569932
v 0.00010566 -0.08501124 0.07600092
v 0.00009761 -0.08500957 0.07569932
v 0.00019141 -0.08503806 0.07569932
v 0.00021246 -0.08504736 0.07600069
v 0.00027785 -0.08508425 0.07569932
v 0.00036417 -0.08515733 0.07600009
v 0.00035362 -0.08514642 0.07569932
v 0.00041580 -0.08522218 0.07569932
v 0.00046476 -0.08531546 0.07599955
v 0.00046201 -0.08530867 0.07569932
v 0.00049046 -0.08540242 0.07569932
v 0.00050007 -0.08550000 0.07599931
f 1 2 3
f 4 5 2
f 4 6 5
f 4 2 1
f 7 1 3
f 8 6 4
f 9 7 3
f 10 6 8
f 11 7 9
f 12 10 8
f 13 11 9
f 14 10 12
f 15 11 13
f 16 14 12
f 17 15 13
f 17 13 18
f 19 14 16
f 20 15 17
f 20 17 21
f 22 19 16
f 23 19 22
f 24 21 25
f 26 20 21
f 26 21 24
f 27 23 22
f 28 23 27
f 29 24 30
f 29 26 24
f 31 28 27
f 32 28 31
f 33 30 34
f 33 29 30
f 35 32 31
f 36 32 35
f 37 33 34
f 38 37 34
f 39 36 35
f 40 37 38
f 41 36 39
f 42 41 39
f 43 40 38
f 44 40 43
f 45 41 42
f 45 42 46
f 47 44 43
f 48 44 47
f 49 46 50
f 49 45 46
f 51 48 47
f 52 48 51
f 53 50 54
f 53 49 50
f 55 52 51
f 56 52 55
f 57 54 58
f 57 53 54
f 59 53 57
f 60 56 55
f 61 57 58
f 62 56 60
f 63 61 58
f 64 62 60
f 65 61 63
f 65 66 61
f 67 62 64
f 68 65 63
f 69 67 64
f 70 65 68
f 71 67 69
f 72 70 68
f 73 71 69
f 73 74 71
f 75 70 72
f 75 72 76
f 77 74 73
f 78 74 77
f 78 75 76
f 78 76 74
f 79 80 81
f 82 83 84
f 85 82 86
f 87 88 89
f 87 89 79
f 87 81 90
f 91 90 83
f 91 83 82
f 91 79 81
f 92 82 85
f 93 92 94
f 95 93 96
f 97 98 99
f 97 99 100
f 101 102 97
f 101 100 103
f 101 103 91
f 101 97 100
f 104 95 105
f 104 105 106
f 104 93 95
f 107 108 101
f 109 110 111
f 112 91 82
f 112 82 92
f 112 92 93
f 112 93 104
f 113 112 114
f 113 101 91
f 113 91 112
f 115 101 113
f 115 116 117
f 115 117 107
f 115 107 101
f 118 119 120
f 118 120 121
f 122 121 123
f 122 118 121
f 124 123 125
f 124 122 123
f 126 125 127
f 126 124 125
f 128 127 129
f 128 126 127
f 130 128 129
f 130 129 131
f 132 130 131
f 132 131 133
f 134 132 133
f 134 133 135
f 136 134 135
f 136 135 137
f 138 136 137
f 138 137 139
f 140 138 139
f 140 139 141
f 142 140 141
f 142 141 143
f 144 142 143
f 144 143 145
f 146 144 145
f 146 145 147
f 148 146 147
f 148 147 149
f 150 148 149
f 150 149 151
f 152 150 151
f 152 151 153
f 154 152 153
f 154 153 155
f 156 155 157
f 156 154 155
f 158 157 159
f 158 156 157
f 160 159 161
f 160 158 159
f 162 161 163
f 162 160 161
f 164 163 165
f 164 162 163
f 166 165 167
f 166 164 165
f 168 167 169
f 168 166 167
f 170 169 171
f 170 168 169
f 172 171 173
f 172 170 171
f 174 173 175
f 174 172 173
f 176 177 178
f 176 175 177
f 176 174 175
f 179 176 178
f 180 178 181
f 180 179 178
f 182 180 181
f 182 183 184
f 182 181 183
f 185 182 184
f 186 185 184
f 186 184 187
f 188 186 187
f 188 189 190
f 188 187 189
f 191 188 190
f 192 193 194
f 195 194 196
f 195 192 194
f 197 193 192
f 198 196 199
f 198 195 196
f 200 193 197
f 201 200 197
f 202 199 203
f 202 198 199
f 204 200 201
f 205 204 201
f 206 203 207
f 206 202 203
f 208 204 205
f 208 209 204
f 210 211 208
f 210 208 205
f 212 206 207
f 212 207 213
f 214 215 211
f 216 211 210
f 216 214 211
f 217 212 213
f 217 213 218
f 219 220 214
f 219 214 216
f 221 217 218
f 221 218 222
f 223 224 220
f 223 220 219
f 225 222 226
f 225 221 222
f 227 228 224
f 227 224 223
f 229 225 226
f 229 226 230
f 231 228 227
f 232 229 230
f 233 228 231
f 234 232 230
f 235 233 231
f 236 232 234
f 237 233 235
f 238 236 234
f 239 237 235
f 240 236 238
f 241 237 239
f 242 240 238
f 243 241 239
f 244 240 242
f 245 241 243
f 246 244 242
f 247 245 243
f 248 244 246
f 249 245 247
f 250 248 246
f 251 248 250
f 252 247 253
f 252 249 247
f 254 251 250
f 255 251 254
f 256 253 257
f 256 252 253
f 258 255 254
f 259 255 258
f 260 256 257
f 260 257 261
f 262 259 258
f 262 263 259
f 264 260 261
f 264 261 265
f 266 263 262
f 266 264 265
f 266 265 263
f 267 268 269
f 270 267 269
f 271 272 273
f 274 275 276
f 277 278 279
f 280 281 282
f 274 283 284
f 285 286 287
f 288 289 290
f 291 292 293
f 294 295 296
f 280 297 298
f 299 300 301
f 302 303 304
f 305 306 307
f 305 307 308
f 305 308 309
f 310 311 312
f 310 312 305
f 313 314 315
f 313 316 314
f 317 318 319
f 320 321 318
f 320 322 321
f 320 318 317
f 323 324 322
f 323 325 324
f 323 322 320
f 326 327 325
f 326 325 323
f 328 329 327
f 328 330 329
f 328 327 326
f 331 332 330
f 331 330 328
f 333 334 332
f 333 335 334
f 333 332 331
f 336 337 335
f 336 335 333
f 338 339 337
f 338 340 339
f 338 337 336
f 341 342 340
f 341 340 338
f 343 344 342
f 343 342 341
f 345 346 347
f 345 348 346
f 349 350 351
f 352 353 354
f 355 356 357
f 358 359 360
f 361 362 363
f 364 349 351
f 365 349 364
f 366 367 368
f 369 370 371
f 372 373 374
f 375 376 377
f 378 379 380
f 381 382 383
f 384 385 386
f 387 388 389
f 390 391 392
f 393 372 374
f 394 395 396
f 397 394 396
f 398 399 400
f 401 402 403
f 401 403 399
f 401 399 398
f 404 405 406
f 404 406 402
f 404 402 401
f 407 408 405
f 407 405 404
f 409 410 411
f 409 411 408
f 409 408 407
f 412 413 410
f 412 410 409
f 414 415 416
f 414 416 413
f 414 413 412
f 417 418 415
f 417 415 414
f 419 420 421
f 419 421 418
f 419 418 417
f 422 423 420
f 422 420 419
f 347 424 423
f 347 423 422
f 425 426 427
f 428 426 425
f 429 430 431
f 432 433 434
f 432 434 435
f 436 437 438
f 439 436 438
f 440 429 431
f 441 442 443
f 441 443 444
f 445 441 444
f 446 445 444
f 447 440 448
f 449 450 451
f 452 453 454
f 455 456 457
f 447 444 458
f 459 460 461
f 462 463 464
f 465 466 467
f 465 468 466
f 469 470 426
f 469 471 470
f 472 473 471
f 472 471 469
f 474 473 472
f 475 476 473
f 475 473 474
f 477 478 476
f 477 476 475
f 479 478 477
f 480 481 478
f 480 478 479
f 482 483 481
f 482 481 480
f 484 483 482
f 485 486 483
f 485 483 484
f 487 488 486
f 487 486 485
f 489 488 487
f 490 491 488
f 490 488 489
f 492 491 490
f 493 494 491
f 493 491 492
f 466 494 493

