# https://github.com/mikedh/trimesh
v 0.03079998 0.00158578 0.09564995
v 0.03079998 -0.00158578 0.09564995
v 0.03079998 -0.00158578 0.09564995
v 0.03083407 -0.00184458 0.09564995
v 0.03083407 -0.00184458 0.09564995
v 0.03109288 -0.00229287 0.09564995
v 0.03093397 -0.00208575 0.09564995
v 0.03093397 -0.00208575 0.09564995
v 0.03109288 -0.00229287 0.09564995
v 0.03120726 -0.00240725 0.09564995
v 0.03139305 -0.00259304 0.09584999
v 0.03139305 -0.00259304 0.09584999
v 0.03060394 -0.00745964 0.09584999
v 0.03060394 -0.00745964 0.09584999
v 0.02906519 -0.01214343 0.09584999
v 0.02906519 -0.01214343 0.09584999
v 0.02681440 -0.01652979 0.09584999
v 0.02681440 -0.01652979 0.09584999
v 0.02390682 -0.02051126 0.09584999
v 0.02390682 -0.02051126 0.09584999
v 0.02041357 -0.02399027 0.09584999
v 0.02041357 -0.02399027 0.09584999
v 0.01642030 -0.02688157 0.09584999
v 0.01642030 -0.02688157 0.09584999
v 0.01202481 -0.02911442 0.09584999
v 0.01202481 -0.02911442 0.09584999
v 0.00733477 -0.03063410 0.09584999
v 0.00733477 -0.03063410 0.09584999
v 0.00246501 -0.03140336 0.09584999
v 0.00246501 -0.03140336 0.09584999
v -0.00246501 -0.03140336 0.09584999
v -0.00246501 -0.03140336 0.09584999
v -0.00733477 -0.03063410 0.09584999
v -0.00733477 -0.03063410 0.09584999
v -0.01202481 -0.02911442 0.09584999
v -0.01202481 -0.02911442 0.09584999
v -0.01642030 -0.02688157 0.09584999
v -0.01642030 -0.02688157 0.09584999
v -0.02041357 -0.02399027 0.09584999
v -0.02041357 -0.02399027 0.09584999
v -0.02390682 -0.02051126 0.09584999
v -0.02390682 -0.02051126 0.09584999
v -0.02681440 -0.01652979 0.09584999
v -0.02681440 -0.01652979 0.09584999
v -0.02906519 -0.01214343 0.09584999
v -0.02906519 -0.01214343 0.09584999
v -0.03060394 -0.00745964 0.09584999
v -0.03060394 -0.00745964 0.09584999
v -0.03139305 -0.00259304 0.09584999
v -0.03139305 -0.00259304 0.09584999
v -0.03120726 -0.00240725 0.09564995
v -0.03109288 -0.00229287 0.09564995
v -0.03109288 -0.00229287 0.09564995
v -0.03093397 -0.00208575 0.09564995
v -0.03093397 -0.00208575 0.09564995
v -0.03079998 -0.00158578 0.09564995
v -0.03083407 -0.00184458 0.09564995
v -0.03083407 -0.00184458 0.09564995
v -0.03109288 0.00229287 0.09564995
v -0.03120726 0.00240725 0.09564995
v -0.03139305 0.00259304 0.09584999
v 0.03109288 -0.00229287 0.09564995
v 0.03120726 -0.00240725 0.09564995
v 0.02939367 -0.00600076 0.09564995
v 0.03044527 -0.00726449 0.09564995
v 0.02805048 -0.01063811 0.09564995
v 0.02893209 -0.01194250 0.09564995
v 0.02598071 -0.01499998 0.09564995
v 0.02670496 -0.01632583 0.09564995
v 0.02323812 -0.01897335 0.09564995
v 0.02381896 -0.02030628 0.09564995
v 0.01989364 -0.02245527 0.09564995
v 0.02034521 -0.02378571 0.09564995
v 0.01603394 -0.02535569 0.09564995
v 0.01636946 -0.02667826 0.09564995
v 0.01175898 -0.02759933 0.09564995
v 0.01198977 -0.02891248 0.09564995
v 0.00717944 -0.02912825 0.09564995
v 0.00731426 -0.03043335 0.09564995
v 0.00241399 -0.02990269 0.09564995
v 0.00245827 -0.03120326 0.09564995
v -0.00241399 -0.02990269 0.09564995
v -0.00245827 -0.03120326 0.09564995
v -0.00731426 -0.03043335 0.09564995
v -0.00717944 -0.02912825 0.09564995
v -0.01198977 -0.02891248 0.09564995
v -0.01175898 -0.02759933 0.09564995
v -0.01636946 -0.02667826 0.09564995
v -0.01603394 -0.02535569 0.09564995
v -0.02034521 -0.02378571 0.09564995
v -0.01989364 -0.02245527 0.09564995
v -0.02381896 -0.02030628 0.09564995
v -0.02323812 -0.01897335 0.09564995
v -0.02670496 -0.01632583 0.09564995
v -0.02598071 -0.01499998 0.09564995
v -0.02893209 -0.01194250 0.09564995
v -0.02805048 -0.01063811 0.09564995
v -0.03044527 -0.00726449 0.09564995
v -0.02939367 -0.00600076 0.09564995
v -0.03120726 -0.00240725 0.09564995
v -0.03109288 -0.00229287 0.09564995
v -0.03093397 -0.00208575 0.09564995
v -0.02997565 -0.00120795 0.09564995
v -0.03083407 -0.00184458 0.09564995
v -0.03079998 -0.00158578 0.09564995
v -0.03079998 0.00158578 0.09564995
v -0.02978122 0.00361609 0.09564995
v -0.03083407 0.00184458 0.09564995
v -0.03093397 0.00208575 0.09564995
v -0.03109288 0.00229287 0.09564995
v -0.03120726 0.00240725 0.09564995
v -0.03044527 0.00726449 0.09564995
v -0.02881550 0.00834650 0.09564995
v -0.02893209 0.01194250 0.09564995
v -0.02710348 0.01286077 0.09564995
v -0.02670496 0.01632583 0.09564995
v -0.02468949 0.01704192 0.09564995
v -0.02381896 0.02030628 0.09564995
v -0.02163606 0.02078169 0.09564995
v -0.02034521 0.02378571 0.09564995
v -0.01802223 0.02398324 0.09564995
v -0.01636946 0.02667826 0.09564995
v -0.01394164 0.02656364 0.09564995
v -0.01198977 0.02891248 0.09564995
v -0.00950003 0.02845609 0.09564995
v -0.00731426 0.03043335 0.09564995
v -0.00481230 0.02961146 0.09564995
v -0.00245827 0.03120326 0.09564995
v 0.00000000 0.02999997 0.09564995
v 0.00245827 0.03120326 0.09564995
v 0.00481230 0.02961146 0.09564995
v 0.00731426 0.03043335 0.09564995
v 0.00950003 0.02845609 0.09564995
v 0.01198977 0.02891248 0.09564995
v 0.01394164 0.02656364 0.09564995
v 0.01636946 0.02667826 0.09564995
v 0.01802223 0.02398324 0.09564995
v 0.02034521 0.02378571 0.09564995
v 0.02163606 0.02078169 0.09564995
v 0.02381896 0.02030628 0.09564995
v 0.02468949 0.01704192 0.09564995
v 0.02670496 0.01632583 0.09564995
v 0.02710348 0.01286077 0.09564995
v 0.02893209 0.01194250 0.09564995
v 0.02881550 0.00834650 0.09564995
v 0.03044527 0.00726449 0.09564995
v 0.02978122 0.00361609 0.09564995
v 0.03120726 0.00240725 0.09564995
v 0.03109288 0.00229287 0.09564995
v 0.03093397 0.00208575 0.09564995
v 0.03083407 0.00184458 0.09564995
v 0.03079998 0.00158578 0.09564995
v 0.02997565 -0.00120795 0.09564995
v 0.03079998 -0.00158578 0.09564995
v 0.03083407 -0.00184458 0.09564995
v 0.03093397 -0.00208575 0.09564995
v -0.03139305 0.00259304 0.09584999
v -0.03060394 0.00745964 0.09584999
v -0.03060394 0.00745964 0.09584999
v -0.02906519 0.01214343 0.09584999
v -0.02906519 0.01214343 0.09584999
v -0.02681440 0.01652979 0.09584999
v -0.02681440 0.01652979 0.09584999
v -0.02390682 0.02051126 0.09584999
v -0.02390682 0.02051126 0.09584999
v -0.02041357 0.02399027 0.09584999
v -0.02041357 0.02399027 0.09584999
v -0.01642030 0.02688157 0.09584999
v -0.01642030 0.02688157 0.09584999
v -0.01202481 0.02911442 0.09584999
v -0.01202481 0.02911442 0.09584999
v -0.00733477 0.03063410 0.09584999
v -0.00733477 0.03063410 0.09584999
v -0.00246501 0.03140336 0.09584999
v -0.00246501 0.03140336 0.09584999
v 0.00246501 0.03140336 0.09584999
v 0.00246501 0.03140336 0.09584999
v 0.00733477 0.03063410 0.09584999
v 0.00733477 0.03063410 0.09584999
v 0.01202481 0.02911442 0.09584999
v 0.01202481 0.02911442 0.09584999
v 0.01642030 0.02688157 0.09584999
v 0.01642030 0.02688157 0.09584999
v 0.02041357 0.02399027 0.09584999
v 0.02041357 0.02399027 0.09584999
v 0.02390682 0.02051126 0.09584999
v 0.02390682 0.02051126 0.09584999
v 0.02681440 0.01652979 0.09584999
v 0.02681440 0.01652979 0.09584999
v 0.02906519 0.01214343 0.09584999
v 0.02906519 0.01214343 0.09584999
v 0.03060394 0.00745964 0.09584999
v 0.03060394 0.00745964 0.09584999
v 0.03139305 0.00259304 0.09584999
v -0.03079998 -0.00158578 0.09564995
v -0.03079998 0.00158578 0.09564995
v -0.03120726 -0.00240725 0.09564995
v -0.03044527 -0.00726449 0.09564995
v -0.03139305 -0.00259304 0.09584999
v -0.03139305 -0.00259304 0.09584999
v -0.03044527 -0.00726449 0.09564995
v -0.03060394 -0.00745964 0.09584999
v -0.03060394 -0.00745964 0.09584999
v -0.03044527 -0.00726449 0.09564995
v -0.02893209 -0.01194250 0.09564995
v -0.03060394 -0.00745964 0.09584999
v -0.02893209 -0.01194250 0.09564995
v -0.02906519 -0.01214343 0.09584999
v -0.02906519 -0.01214343 0.09584999
v -0.02893209 -0.01194250 0.09564995
v -0.02670496 -0.01632583 0.09564995
v -0.02906519 -0.01214343 0.09584999
v -0.02670496 -0.01632583 0.09564995
v -0.02681440 -0.01652979 0.09584999
v -0.02681440 -0.01652979 0.09584999
v -0.02670496 -0.01632583 0.09564995
v -0.02381896 -0.02030628 0.09564995
v -0.02681440 -0.01652979 0.09584999
v -0.02381896 -0.02030628 0.09564995
v -0.02390682 -0.02051126 0.09584999
v -0.02390682 -0.02051126 0.09584999
v -0.02381896 -0.02030628 0.09564995
v -0.02034521 -0.02378571 0.09564995
v -0.02390682 -0.02051126 0.09584999
v -0.02034521 -0.02378571 0.09564995
v -0.02041357 -0.02399027 0.09584999
v -0.02041357 -0.02399027 0.09584999
v -0.02034521 -0.02378571 0.09564995
v -0.01636946 -0.02667826 0.09564995
v -0.02041357 -0.02399027 0.09584999
v -0.01636946 -0.02667826 0.09564995
v -0.01642030 -0.02688157 0.09584999
v -0.01642030 -0.02688157 0.09584999
v -0.01636946 -0.02667826 0.09564995
v -0.01198977 -0.02891248 0.09564995
v -0.01642030 -0.02688157 0.09584999
v -0.01198977 -0.02891248 0.09564995
v -0.01202481 -0.02911442 0.09584999
v -0.01202481 -0.02911442 0.09584999
v -0.01198977 -0.02891248 0.09564995
v -0.00731426 -0.03043335 0.09564995
v -0.01202481 -0.02911442 0.09584999
v -0.00731426 -0.03043335 0.09564995
v -0.00733477 -0.03063410 0.09584999
v -0.00733477 -0.03063410 0.09584999
v -0.00731426 -0.03043335 0.09564995
v -0.00245827 -0.03120326 0.09564995
v -0.00733477 -0.03063410 0.09584999
v -0.00245827 -0.03120326 0.09564995
v -0.00246501 -0.03140336 0.09584999
v -0.00246501 -0.03140336 0.09584999
v -0.00245827 -0.03120326 0.09564995
v 0.00245827 -0.03120326 0.09564995
v 0.00246501 -0.03140336 0.09584999
v 0.00246501 -0.03140336 0.09584999
v 0.00245827 -0.03120326 0.09564995
v 0.00733477 -0.03063410 0.09584999
v 0.00733477 -0.03063410 0.09584999
v 0.00245827 -0.03120326 0.09564995
v 0.00731426 -0.03043335 0.09564995
v 0.00733477 -0.03063410 0.09584999
v 0.00731426 -0.03043335 0.09564995
v 0.01202481 -0.02911442 0.09584999
v 0.01202481 -0.02911442 0.09584999
v 0.00731426 -0.03043335 0.09564995
v 0.01198977 -0.02891248 0.09564995
v 0.01202481 -0.02911442 0.09584999
v 0.01198977 -0.02891248 0.09564995
v 0.01642030 -0.02688157 0.09584999
v 0.01642030 -0.02688157 0.09584999
v 0.01198977 -0.02891248 0.09564995
v 0.01636946 -0.02667826 0.09564995
v 0.01642030 -0.02688157 0.09584999
v 0.01636946 -0.02667826 0.09564995
v 0.02041357 -0.02399027 0.09584999
v 0.02041357 -0.02399027 0.09584999
v 0.01636946 -0.02667826 0.09564995
v 0.02034521 -0.02378571 0.09564995
v 0.02041357 -0.02399027 0.09584999
v 0.02034521 -0.02378571 0.09564995
v 0.02390682 -0.02051126 0.09584999
v 0.02390682 -0.02051126 0.09584999
v 0.02034521 -0.02378571 0.09564995
v 0.02381896 -0.02030628 0.09564995
v 0.02390682 -0.02051126 0.09584999
v 0.02381896 -0.02030628 0.09564995
v 0.02681440 -0.01652979 0.09584999
v 0.02681440 -0.01652979 0.09584999
v 0.02381896 -0.02030628 0.09564995
v 0.02670496 -0.01632583 0.09564995
v 0.02681440 -0.01652979 0.09584999
v 0.02670496 -0.01632583 0.09564995
v 0.02906519 -0.01214343 0.09584999
v 0.02906519 -0.01214343 0.09584999
v 0.02670496 -0.01632583 0.09564995
v 0.02893209 -0.01194250 0.09564995
v 0.02906519 -0.01214343 0.09584999
v 0.02893209 -0.01194250 0.09564995
v 0.03060394 -0.00745964 0.09584999
v 0.03060394 -0.00745964 0.09584999
v 0.02893209 -0.01194250 0.09564995
v 0.03044527 -0.00726449 0.09564995
v 0.03060394 -0.00745964 0.09584999
v 0.03044527 -0.00726449 0.09564995
v 0.03139305 -0.00259304 0.09584999
v 0.03139305 -0.00259304 0.09584999
v 0.03044527 -0.00726449 0.09564995
v 0.03120726 -0.00240725 0.09564995
v 0.03120726 0.00240725 0.09564995
v 0.03044527 0.00726449 0.09564995
v 0.03139305 0.00259304 0.09584999
v 0.03139305 0.00259304 0.09584999
v 0.03044527 0.00726449 0.09564995
v 0.03060394 0.00745964 0.09584999
v 0.03060394 0.00745964 0.09584999
v 0.03044527 0.00726449 0.09564995
v 0.02893209 0.01194250 0.09564995
v 0.03060394 0.00745964 0.09584999
v 0.02893209 0.01194250 0.09564995
v 0.02906519 0.01214343 0.09584999
v 0.02906519 0.01214343 0.09584999
v 0.02893209 0.01194250 0.09564995
v 0.02670496 0.01632583 0.09564995
v 0.02906519 0.01214343 0.09584999
v 0.02670496 0.01632583 0.09564995
v 0.02681440 0.01652979 0.09584999
v 0.02681440 0.01652979 0.09584999
v 0.02670496 0.01632583 0.09564995
v 0.02381896 0.02030628 0.09564995
v 0.02681440 0.01652979 0.09584999
v 0.02381896 0.02030628 0.09564995
v 0.02390682 0.02051126 0.09584999
v 0.02390682 0.02051126 0.09584999
v 0.02381896 0.02030628 0.09564995
v 0.02034521 0.02378571 0.09564995
v 0.02390682 0.02051126 0.09584999
v 0.02034521 0.02378571 0.09564995
v 0.02041357 0.02399027 0.09584999
v 0.02041357 0.02399027 0.09584999
v 0.02034521 0.02378571 0.09564995
v 0.01636946 0.02667826 0.09564995
v 0.02041357 0.02399027 0.09584999
v 0.01636946 0.02667826 0.09564995
v 0.01642030 0.02688157 0.09584999
v 0.01642030 0.02688157 0.09584999
v 0.01636946 0.02667826 0.09564995
v 0.01198977 0.02891248 0.09564995
v 0.01642030 0.02688157 0.09584999
v 0.01198977 0.02891248 0.09564995
v 0.01202481 0.02911442 0.09584999
v 0.01202481 0.02911442 0.09584999
v 0.01198977 0.02891248 0.09564995
v 0.00731426 0.03043335 0.09564995
v 0.01202481 0.02911442 0.09584999
v 0.00731426 0.03043335 0.09564995
v 0.00733477 0.03063410 0.09584999
v 0.00733477 0.03063410 0.09584999
v 0.00731426 0.03043335 0.09564995
v 0.00245827 0.03120326 0.09564995
v 0.00733477 0.03063410 0.09584999
v 0.00245827 0.03120326 0.09564995
v 0.00246501 0.03140336 0.09584999
v 0.00246501 0.03140336 0.09584999
v 0.00245827 0.03120326 0.09564995
v -0.00245827 0.03120326 0.09564995
v -0.00246501 0.03140336 0.09584999
v -0.00246501 0.03140336 0.09584999
v -0.00245827 0.03120326 0.09564995
v -0.00733477 0.03063410 0.09584999
v -0.00733477 0.03063410 0.09584999
v -0.00245827 0.03120326 0.09564995
v -0.00731426 0.03043335 0.09564995
v -0.00733477 0.03063410 0.09584999
v -0.00731426 0.03043335 0.09564995
v -0.01202481 0.02911442 0.09584999
v -0.01202481 0.02911442 0.09584999
v -0.00731426 0.03043335 0.09564995
v -0.01198977 0.02891248 0.09564995
v -0.01202481 0.02911442 0.09584999
v -0.01198977 0.02891248 0.09564995
v -0.01642030 0.02688157 0.09584999
v -0.01642030 0.02688157 0.09584999
v -0.01198977 0.02891248 0.09564995
v -0.01636946 0.02667826 0.09564995
v -0.01642030 0.02688157 0.09584999
v -0.01636946 0.02667826 0.09564995
v -0.02041357 0.02399027 0.09584999
v -0.02041357 0.02399027 0.09584999
v -0.01636946 0.02667826 0.09564995
v -0.02034521 0.02378571 0.09564995
v -0.02041357 0.02399027 0.09584999
v -0.02034521 0.02378571 0.09564995
v -0.02390682 0.02051126 0.09584999
v -0.02390682 0.02051126 0.09584999
v -0.02034521 0.02378571 0.09564995
v -0.02381896 0.02030628 0.09564995
v -0.02390682 0.02051126 0.09584999
v -0.02381896 0.02030628 0.09564995
v -0.02681440 0.01652979 0.09584999
v -0.02681440 0.01652979 0.09584999
v -0.02381896 0.02030628 0.09564995
v -0.02670496 0.01632583 0.09564995
v -0.02681440 0.01652979 0.09584999
v -0.02670496 0.01632583 0.09564995
v -0.02906519 0.01214343 0.09584999
v -0.02906519 0.01214343 0.09584999
v -0.02670496 0.01632583 0.09564995
v -0.02893209 0.01194250 0.09564995
v -0.02906519 0.01214343 0.09584999
v -0.02893209 0.01194250 0.09564995
v -0.03060394 0.00745964 0.09584999
v -0.03060394 0.00745964 0.09584999
v -0.02893209 0.01194250 0.09564995
v -0.03044527 0.00726449 0.09564995
v -0.03060394 0.00745964 0.09584999
v -0.03044527 0.00726449 0.09564995
v -0.03139305 0.00259304 0.09584999
v -0.03139305 0.00259304 0.09584999
v -0.03044527 0.00726449 0.09564995
v -0.03120726 0.00240725 0.09564995
v 0.03139305 0.00259304 0.09584999
v 0.03120726 0.00240725 0.09564995
v 0.03109288 0.00229287 0.09564995
v 0.03109288 0.00229287 0.09564995
v 0.03093397 0.00208575 0.09564995
v 0.03093397 0.00208575 0.09564995
v 0.03079998 0.00158578 0.09564995
v 0.03083407 0.00184458 0.09564995
v 0.03083407 0.00184458 0.09564995
v 0.00481230 0.02961146 0.09564995
v 0.00000000 0.02999997 0.09564995
v 0.00000000 0.02999997 0.09564995
v -0.00481230 0.02961146 0.09564995
v -0.00481230 0.02961146 0.09564995
v -0.00950003 0.02845609 0.09564995
v -0.00950003 0.02845609 0.09564995
v -0.01394164 0.02656364 0.09564995
v -0.01394164 0.02656364 0.09564995
v -0.01802223 0.02398324 0.09564995
v -0.01802223 0.02398324 0.09564995
v -0.02163606 0.02078169 0.09564995
v -0.02163606 0.02078169 0.09564995
v -0.02468949 0.01704192 0.09564995
v -0.02468949 0.01704192 0.09564995
v -0.02710348 0.01286077 0.09564995
v -0.02710348 0.01286077 0.09564995
v -0.02881550 0.00834650 0.09564995
v -0.02881550 0.00834650 0.09564995
v -0.02978122 0.00361609 0.09564995
v -0.02978122 0.00361609 0.09564995
v -0.02997565 -0.00120795 0.09564995
v -0.02997565 -0.00120795 0.09564995
v -0.02939367 -0.00600076 0.09564995
v -0.02939367 -0.00600076 0.09564995
v -0.02805048 -0.01063811 0.09564995
v -0.02805048 -0.01063811 0.09564995
v -0.02598071 -0.01499998 0.09564995
v -0.02598071 -0.01499998 0.09564995
v -0.02323812 -0.01897335 0.09564995
v -0.02323812 -0.01897335 0.09564995
v -0.01989364 -0.02245527 0.09564995
v -0.01989364 -0.02245527 0.09564995
v -0.01603394 -0.02535569 0.09564995
v -0.01603394 -0.02535569 0.09564995
v -0.01175898 -0.02759933 0.09564995
v -0.01175898 -0.02759933 0.09564995
v -0.00717944 -0.02912825 0.09564995
v -0.00717944 -0.02912825 0.09564995
v -0.00241399 -0.02990269 0.09564995
v -0.00241399 -0.02990269 0.09564995
v 0.00241399 -0.02990269 0.09564995
v 0.00241399 -0.02990269 0.09564995
v 0.00717944 -0.02912825 0.09564995
v 0.00717944 -0.02912825 0.09564995
v 0.01175898 -0.02759933 0.09564995
v 0.01175898 -0.02759933 0.09564995
v 0.01603394 -0.02535569 0.09564995
v 0.01603394 -0.02535569 0.09564995
v 0.01989364 -0.02245527 0.09564995
v 0.01989364 -0.02245527 0.09564995
v 0.02323812 -0.01897335 0.09564995
v 0.02323812 -0.01897335 0.09564995
v 0.02598071 -0.01499998 0.09564995
v 0.02598071 -0.01499998 0.09564995
v 0.02805048 -0.01063811 0.09564995
v 0.02805048 -0.01063811 0.09564995
v 0.02939367 -0.00600076 0.09564995
v 0.02939367 -0.00600076 0.09564995
v 0.02997565 -0.00120795 0.09564995
v 0.02997565 -0.00120795 0.09564995
v 0.02978122 0.00361609 0.09564995
v 0.02978122 0.00361609 0.09564995
v 0.02881550 0.00834650 0.09564995
v 0.02881550 0.00834650 0.09564995
v 0.02710348 0.01286077 0.09564995
v 0.02710348 0.01286077 0.09564995
v 0.02468949 0.01704192 0.09564995
v 0.02468949 0.01704192 0.09564995
v 0.02163606 0.02078169 0.09564995
v 0.02163606 0.02078169 0.09564995
v 0.01802223 0.02398324 0.09564995
v 0.01802223 0.02398324 0.09564995
v 0.01394164 0.02656364 0.09564995
v 0.01394164 0.02656364 0.09564995
v 0.00950003 0.02845609 0.09564995
v 0.00950003 0.02845609 0.09564995
v 0.00481230 0.02961146 0.09564995
v -0.03079998 0.00158578 0.09564995
v -0.03083407 0.00184458 0.09564995
v -0.03083407 0.00184458 0.09564995
v -0.03109288 0.00229287 0.09564995
v -0.03093397 0.00208575 0.09564995
v -0.03093397 0.00208575 0.09564995
v 0.00481230 0.02961146 0.09500000
v 0.00481202 0.02961148 0.09500000
v 0.00000000 0.02999997 0.09500000
v -0.00000028 0.02999995 0.09500000
v -0.00481230 0.02961146 0.09500000
v -0.00481258 0.02961139 0.09500000
v -0.00950003 0.02845609 0.09500000
v -0.00950029 0.02845598 0.09500000
v -0.01394164 0.02656364 0.09500000
v -0.01394188 0.02656349 0.09500000
v -0.01802223 0.02398324 0.09500000
v -0.01802244 0.02398305 0.09500000
v -0.02163606 0.02078169 0.09500000
v -0.02163624 0.02078147 0.09500000
v -0.02468949 0.01704192 0.09500000
v -0.02468963 0.01704167 0.09500000
v -0.02710348 0.01286077 0.09500000
v -0.02710358 0.01286050 0.09500000
v -0.02881550 0.00834650 0.09500000
v -0.02881556 0.00834622 0.09500000
v -0.02978122 0.00361609 0.09500000
v -0.02978123 0.00361581 0.09500000
v -0.02997565 -0.00120795 0.09500000
v -0.02997562 -0.00120823 0.09500000
v -0.02939367 -0.00600076 0.09500000
v -0.02939359 -0.00600103 0.09500000
v -0.02805048 -0.01063811 0.09500000
v -0.02805036 -0.01063837 0.09500000
v -0.02598071 -0.01499998 0.09500000
v -0.02598055 -0.01500022 0.09500000
v -0.02323812 -0.01897335 0.09500000
v -0.02323792 -0.01897356 0.09500000
v -0.01989364 -0.02245527 0.09500000
v -0.01989341 -0.02245544 0.09500000
v -0.01603394 -0.02535569 0.09500000
v -0.01603369 -0.02535582 0.09500000
v -0.01175898 -0.02759933 0.09500000
v -0.01175871 -0.02759942 0.09500000
v -0.00717944 -0.02912825 0.09500000
v -0.00717916 -0.02912830 0.09500000
v -0.00241399 -0.02990269 0.09500000
v -0.00241370 -0.02990269 0.09500000
v 0.00241399 -0.02990269 0.09500000
v 0.00241427 -0.02990264 0.09500000
v 0.00717944 -0.02912825 0.09500000
v 0.00717971 -0.02912816 0.09500000
v 0.01175898 -0.02759933 0.09500000
v 0.01175923 -0.02759920 0.09500000
v 0.01603394 -0.02535569 0.09500000
v 0.01603417 -0.02535552 0.09500000
v 0.01989364 -0.02245527 0.09500000
v 0.01989384 -0.02245506 0.09500000
v 0.02323812 -0.01897335 0.09500000
v 0.02323828 -0.01897312 0.09500000
v 0.02598071 -0.01499998 0.09500000
v 0.02598083 -0.01499972 0.09500000
v 0.02805048 -0.01063811 0.09500000
v 0.02805056 -0.01063784 0.09500000
v 0.02939367 -0.00600076 0.09500000
v 0.02939370 -0.00600047 0.09500000
v 0.02997565 -0.00120795 0.09500000
v 0.02997564 -0.00120766 0.09500000
v 0.02978122 0.00361609 0.09500000
v 0.02978116 0.00361637 0.09500000
v 0.02881550 0.00834650 0.09500000
v 0.02881540 0.00834677 0.09500000
v 0.02710348 0.01286077 0.09500000
v 0.02710334 0.01286102 0.09500000
v 0.02468949 0.01704192 0.09500000
v 0.02468931 0.01704214 0.09500000
v 0.02163606 0.02078169 0.09500000
v 0.02163585 0.02078188 0.09500000
v 0.01802223 0.02398324 0.09500000
v 0.01802199 0.02398339 0.09500000
v 0.01394164 0.02656364 0.09500000
v 0.01394138 0.02656375 0.09500000
v 0.00950003 0.02845609 0.09500000
v 0.00949975 0.02845616 0.09500000
v 0.00481202 0.02961148 0.09500000
v 0.00000000 0.02999997 0.09500000
v -0.00000028 0.02999995 0.09500000
v -0.00481230 0.02961146 0.09500000
v -0.00481258 0.02961139 0.09500000
v -0.00950003 0.02845609 0.09500000
v -0.00950029 0.02845598 0.09500000
v -0.01394164 0.02656364 0.09500000
v -0.01394188 0.02656349 0.09500000
v -0.01802223 0.02398324 0.09500000
v -0.01802244 0.02398305 0.09500000
v -0.02163606 0.02078169 0.09500000
v -0.02163624 0.02078147 0.09500000
v -0.02468949 0.01704192 0.09500000
v -0.02468963 0.01704167 0.09500000
v -0.02710348 0.01286077 0.09500000
v -0.02710358 0.01286050 0.09500000
v -0.02881550 0.00834650 0.09500000
v -0.02881556 0.00834622 0.09500000
v -0.02978122 0.00361609 0.09500000
v -0.02978123 0.00361581 0.09500000
v -0.02997565 -0.00120795 0.09500000
v -0.02997562 -0.00120823 0.09500000
v -0.02939367 -0.00600076 0.09500000
v -0.02939359 -0.00600103 0.09500000
v -0.02805048 -0.01063811 0.09500000
v -0.02805036 -0.01063837 0.09500000
v -0.02598071 -0.01499998 0.09500000
v -0.02598055 -0.01500022 0.09500000
v -0.02323812 -0.01897335 0.09500000
v -0.02323792 -0.01897356 0.09500000
v -0.01989364 -0.02245527 0.09500000
v -0.01989341 -0.02245544 0.09500000
v -0.01603394 -0.02535569 0.09500000
v -0.01603369 -0.02535582 0.09500000
v -0.01175898 -0.02759933 0.09500000
v -0.01175871 -0.02759942 0.09500000
v -0.00717944 -0.02912825 0.09500000
v -0.00717916 -0.02912830 0.09500000
v -0.00241399 -0.02990269 0.09500000
v -0.00241370 -0.02990269 0.09500000
v 0.00241399 -0.02990269 0.09500000
v 0.00241427 -0.02990264 0.09500000
v 0.00717944 -0.02912825 0.09500000
v 0.00717971 -0.02912816 0.09500000
v 0.01175898 -0.02759933 0.09500000
v 0.01175923 -0.02759920 0.09500000
v 0.01603394 -0.02535569 0.09500000
v 0.01603417 -0.02535552 0.09500000
v 0.01989364 -0.02245527 0.09500000
v 0.01989384 -0.02245506 0.09500000
v 0.02323812 -0.01897335 0.09500000
v 0.02323828 -0.01897312 0.09500000
v 0.02598071 -0.01499998 0.09500000
v 0.02598083 -0.01499972 0.09500000
v 0.02805048 -0.01063811 0.09500000
v 0.02805056 -0.01063784 0.09500000
v 0.02939367 -0.00600076 0.09500000
v 0.02939370 -0.00600047 0.09500000
v 0.02997565 -0.00120795 0.09500000
v 0.02997564 -0.00120766 0.09500000
v 0.02978122 0.00361609 0.09500000
v 0.02978116 0.00361637 0.09500000
v 0.02881550 0.00834650 0.09500000
v 0.02881540 0.00834677 0.09500000
v 0.02710348 0.01286077 0.09500000
v 0.02710334 0.01286102 0.09500000
v 0.02468949 0.01704192 0.09500000
v 0.02468931 0.01704214 0.09500000
v 0.02163606 0.02078169 0.09500000
v 0.02163585 0.02078188 0.09500000
v 0.01802223 0.02398324 0.09500000
v 0.01802199 0.02398339 0.09500000
v 0.01394164 0.02656364 0.09500000
v 0.01394138 0.02656375 0.09500000
v 0.00950003 0.02845609 0.09500000
v 0.00949975 0.02845616 0.09500000
v 0.00481230 0.02961146 0.09500000
v 0.03079998 -0.00148672 0.09720000
v 0.03079998 -0.00158578 0.09720000
v 0.03079998 -0.00158578 0.09720000
v 0.03080104 -0.00159386 0.09720000
v 0.03093397 -0.00208575 0.09720000
v 0.03093893 -0.00209221 0.09720000
v 0.03093085 -0.00207821 0.09720000
v 0.03093397 -0.00208575 0.09720000
v 0.03109288 -0.00229287 0.09720000
v 0.03109645 -0.00229644 0.09720000
v 0.03138725 -0.00258724 0.09720000
v 0.03139305 -0.00259304 0.09720000
v 0.03139305 -0.00259304 0.09720000
v 0.03136488 -0.00276677 0.09720000
v 0.03060394 -0.00745964 0.09720000
v 0.03054901 -0.00762684 0.09720000
v 0.02906519 -0.01214343 0.09720000
v 0.02898484 -0.01230002 0.09720000
v 0.02681440 -0.01652979 0.09720000
v 0.02671060 -0.01667192 0.09720000
v 0.02390682 -0.02051126 0.09720000
v 0.02378212 -0.02063546 0.09720000
v 0.02041357 -0.02399027 0.09720000
v 0.02027102 -0.02409348 0.09720000
v 0.01642030 -0.02688157 0.09720000
v 0.01626339 -0.02696128 0.09720000
v 0.01202481 -0.02911442 0.09720000
v 0.01185738 -0.02916867 0.09720000
v 0.00733477 -0.03063410 0.09720000
v 0.00716093 -0.03066156 0.09720000
v 0.00246501 -0.03140336 0.09720000
v 0.00228902 -0.03140336 0.09720000
v -0.00246501 -0.03140336 0.09720000
v -0.00263885 -0.03137590 0.09720000
v -0.00733477 -0.03063410 0.09720000
v -0.00750219 -0.03057985 0.09720000
v -0.01202481 -0.02911442 0.09720000
v -0.01218172 -0.02903471 0.09720000
v -0.01642030 -0.02688157 0.09720000
v -0.01656285 -0.02677836 0.09720000
v -0.02041357 -0.02399027 0.09720000
v -0.02053827 -0.02386607 0.09720000
v -0.02390682 -0.02051126 0.09720000
v -0.02401062 -0.02036913 0.09720000
v -0.02681440 -0.01652979 0.09720000
v -0.02689475 -0.01637320 0.09720000
v -0.02906519 -0.01214343 0.09720000
v -0.02912012 -0.01197623 0.09720000
v -0.03060394 -0.00745964 0.09720000
v -0.03063211 -0.00728591 0.09720000
v -0.03139305 -0.00259304 0.09720000
v -0.03138725 -0.00258724 0.09720000
v -0.03109645 -0.00229644 0.09720000
v -0.03109288 -0.00229287 0.09720000
v -0.03109288 -0.00229287 0.09720000
v -0.03108792 -0.00228640 0.09720000
v -0.03083407 -0.00184458 0.09720000
v -0.03083300 -0.00183650 0.09720000
v -0.03083719 -0.00185212 0.09720000
v -0.03083407 -0.00184458 0.09720000
v -0.03109288 0.00229287 0.09720000
v -0.03109645 0.00229644 0.09720000
v -0.03138725 0.00258724 0.09720000
v -0.03139305 0.00259304 0.09720000
v -0.03139305 0.00259304 0.09720000
v -0.03136488 0.00276677 0.09720000
v -0.03060394 0.00745964 0.09720000
v -0.03054901 0.00762684 0.09720000
v -0.02906519 0.01214343 0.09720000
v -0.02898484 0.01230002 0.09720000
v -0.02681440 0.01652979 0.09720000
v -0.02671060 0.01667192 0.09720000
v -0.02390682 0.02051126 0.09720000
v -0.02378212 0.02063546 0.09720000
v -0.02041357 0.02399027 0.09720000
v -0.02027102 0.02409348 0.09720000
v -0.01642030 0.02688157 0.09720000
v -0.01626339 0.02696128 0.09720000
v -0.01202481 0.02911442 0.09720000
v -0.01185738 0.02916867 0.09720000
v -0.00733477 0.03063410 0.09720000
v -0.00716093 0.03066156 0.09720000
v -0.00246501 0.03140336 0.09720000
v -0.00228902 0.03140336 0.09720000
v 0.00246501 0.03140336 0.09720000
v 0.00263885 0.03137590 0.09720000
v 0.00733477 0.03063410 0.09720000
v 0.00750219 0.03057985 0.09720000
v 0.01202481 0.02911442 0.09720000
v 0.01218172 0.02903471 0.09720000
v 0.01642030 0.02688157 0.09720000
v 0.01656285 0.02677836 0.09720000
v 0.02041357 0.02399027 0.09720000
v 0.02053827 0.02386607 0.09720000
v 0.02390682 0.02051126 0.09720000
v 0.02401062 0.02036913 0.09720000
v 0.02681440 0.01652979 0.09720000
v 0.02689475 0.01637320 0.09720000
v 0.02906519 0.01214343 0.09720000
v 0.02912012 0.01197623 0.09720000
v 0.03060394 0.00745964 0.09720000
v 0.03063211 0.00728591 0.09720000
v -0.03079998 0.00148672 0.09720000
v -0.03079998 0.00158578 0.09720000
v 0.03139305 0.00259304 0.09720000
v 0.03138725 0.00258724 0.09720000
v 0.03109645 0.00229644 0.09720000
v 0.03109288 0.00229287 0.09720000
v 0.03109288 0.00229287 0.09720000
v 0.03108792 0.00228640 0.09720000
v 0.03083407 0.00184458 0.09720000
v 0.03083300 0.00183650 0.09720000
v 0.03083719 0.00185212 0.09720000
v 0.03083407 0.00184458 0.09720000
v -0.03079998 0.00158578 0.09720000
v -0.03080104 0.00159386 0.09720000
v -0.03093397 0.00208575 0.09720000
v -0.03093893 0.00209221 0.09720000
v -0.03093085 0.00207821 0.09720000
v -0.03093397 0.00208575 0.09720000
v 0.03079998 0.00158578 0.09720000
v 0.03079998 -0.00148672 0.09720000
v 0.03080104 -0.00159386 0.09720000
v 0.03083407 -0.00184458 0.09720000
v 0.03083407 -0.00184458 0.09720000
v 0.03093085 -0.00207821 0.09720000
v 0.03093893 -0.00209221 0.09720000
v 0.03109288 -0.00229287 0.09720000
v 0.03109645 -0.00229644 0.09720000
v 0.03138725 -0.00258724 0.09720000
v 0.03136488 -0.00276677 0.09720000
v 0.03060394 -0.00745964 0.09720000
v 0.03054901 -0.00762684 0.09720000
v 0.02906519 -0.01214343 0.09720000
v 0.02898484 -0.01230002 0.09720000
v 0.02681440 -0.01652979 0.09720000
v 0.02671060 -0.01667192 0.09720000
v 0.02390682 -0.02051126 0.09720000
v 0.02378212 -0.02063546 0.09720000
v 0.02041357 -0.02399027 0.09720000
v 0.02027102 -0.02409348 0.09720000
v 0.01642030 -0.02688157 0.09720000
v 0.01626339 -0.02696128 0.09720000
v 0.01202481 -0.02911442 0.09720000
v 0.01185738 -0.02916867 0.09720000
v 0.00733477 -0.03063410 0.09720000
v 0.00716093 -0.03066156 0.09720000
v 0.00246501 -0.03140336 0.09720000
v 0.00228902 -0.03140336 0.09720000
v -0.00246501 -0.03140336 0.09720000
v -0.00263885 -0.03137590 0.09720000
v -0.00733477 -0.03063410 0.09720000
v -0.00750219 -0.03057985 0.09720000
v -0.01202481 -0.02911442 0.09720000
v -0.01218172 -0.02903471 0.09720000
v -0.01642030 -0.02688157 0.09720000
v -0.01656285 -0.02677836 0.09720000
v -0.02041357 -0.02399027 0.09720000
v -0.02053827 -0.02386607 0.09720000
v -0.02390682 -0.02051126 0.09720000
v -0.02401062 -0.02036913 0.09720000
v -0.02681440 -0.01652979 0.09720000
v -0.02689475 -0.01637320 0.09720000
v -0.02906519 -0.01214343 0.09720000
v -0.02912012 -0.01197623 0.09720000
v -0.03060394 -0.00745964 0.09720000
v -0.03063211 -0.00728591 0.09720000
v -0.03139305 -0.00259304 0.09720000
v -0.03138725 -0.00258724 0.09720000
v -0.03109645 -0.00229644 0.09720000
v -0.03108792 -0.00228640 0.09720000
v -0.03093397 -0.00208575 0.09720000
v -0.03093397 -0.00208575 0.09720000
v -0.03083719 -0.00185212 0.09720000
v -0.03083300 -0.00183650 0.09720000
v -0.03079998 -0.00158578 0.09720000
v -0.03109645 0.00229644 0.09720000
v -0.03138725 0.00258724 0.09720000
v -0.03136488 0.00276677 0.09720000
v -0.03060394 0.00745964 0.09720000
v -0.03054901 0.00762684 0.09720000
v -0.02906519 0.01214343 0.09720000
v -0.02898484 0.01230002 0.09720000
v -0.02681440 0.01652979 0.09720000
v -0.02671060 0.01667192 0.09720000
v -0.02390682 0.02051126 0.09720000
v -0.02378212 0.02063546 0.09720000
v -0.02041357 0.02399027 0.09720000
v -0.02027102 0.02409348 0.09720000
v -0.01642030 0.02688157 0.09720000
v -0.01626339 0.02696128 0.09720000
v -0.01202481 0.02911442 0.09720000
v -0.01185738 0.02916867 0.09720000
v -0.00733477 0.03063410 0.09720000
v -0.00716093 0.03066156 0.09720000
v -0.00246501 0.03140336 0.09720000
v -0.00228902 0.03140336 0.09720000
v 0.00246501 0.03140336 0.09720000
v 0.00263885 0.03137590 0.09720000
v 0.00733477 0.03063410 0.09720000
v 0.00750219 0.03057985 0.09720000
v 0.01202481 0.02911442 0.09720000
v 0.01218172 0.02903471 0.09720000
v 0.01642030 0.02688157 0.09720000
v 0.01656285 0.02677836 0.09720000
v 0.02041357 0.02399027 0.09720000
v 0.02053827 0.02386607 0.09720000
v 0.02390682 0.02051126 0.09720000
v 0.02401062 0.02036913 0.09720000
v 0.02681440 0.01652979 0.09720000
v 0.02689475 0.01637320 0.09720000
v 0.02906519 0.01214343 0.09720000
v 0.02912012 0.01197623 0.09720000
v 0.03060394 0.00745964 0.09720000
v 0.03063211 0.00728591 0.09720000
v 0.03139305 0.00259304 0.09720000
v -0.03079998 -0.00158578 0.09720000
v -0.03079998 0.00148672 0.09720000
v 0.03138725 0.00258724 0.09720000
v 0.03109645 0.00229644 0.09720000
v 0.03108792 0.00228640 0.09720000
v 0.03093397 0.00208575 0.09720000
v 0.03093397 0.00208575 0.09720000
v 0.03083719 0.00185212 0.09720000
v 0.03083300 0.00183650 0.09720000
v 0.03079998 0.00158578 0.09720000
v -0.03080104 0.00159386 0.09720000
v -0.03083407 0.00184458 0.09720000
v -0.03083407 0.00184458 0.09720000
v -0.03093085 0.00207821 0.09720000
v -0.03093893 0.00209221 0.09720000
v -0.03109288 0.00229287 0.09720000
f 62 63 64
f 64 63 65
f 64 65 66
f 66 65 67
f 66 67 68
f 68 67 69
f 68 69 70
f 70 69 71
f 70 71 72
f 72 71 73
f 72 73 74
f 74 73 75
f 74 75 76
f 76 75 77
f 76 77 78
f 78 77 79
f 78 79 80
f 80 79 81
f 80 81 82
f 82 81 83
f 82 83 84
f 82 84 85
f 85 84 86
f 85 86 87
f 87 86 88
f 87 88 89
f 89 88 90
f 89 90 91
f 91 90 92
f 91 92 93
f 93 92 94
f 93 94 95
f 95 94 96
f 95 96 97
f 97 96 98
f 97 98 99
f 99 98 100
f 99 100 101
f 101 102 99
f 99 102 103
f 103 102 104
f 103 104 105
f 105 106 103
f 103 106 107
f 107 106 108
f 107 108 109
f 109 110 107
f 107 110 111
f 107 111 112
f 107 112 113
f 113 112 114
f 113 114 115
f 115 114 116
f 115 116 117
f 117 116 118
f 117 118 119
f 119 118 120
f 119 120 121
f 121 120 122
f 121 122 123
f 123 122 124
f 123 124 125
f 125 124 126
f 125 126 127
f 127 126 128
f 127 128 129
f 129 128 130
f 129 130 131
f 131 130 132
f 131 132 133
f 133 132 134
f 133 134 135
f 135 134 136
f 135 136 137
f 137 136 138
f 137 138 139
f 139 138 140
f 139 140 141
f 141 140 142
f 141 142 143
f 143 142 144
f 143 144 145
f 145 144 146
f 145 146 147
f 147 146 148
f 147 148 149
f 149 150 147
f 147 150 151
f 147 151 152
f 147 152 153
f 153 152 154
f 153 154 155
f 155 156 153
f 153 156 64
f 64 156 62
f 197 198 199
f 200 201 202
f 203 204 205
f 206 207 208
f 209 210 211
f 212 213 214
f 215 216 217
f 218 219 220
f 221 222 223
f 224 225 226
f 227 228 229
f 230 231 232
f 233 234 235
f 236 237 238
f 239 240 241
f 242 243 244
f 245 246 247
f 248 249 250
f 251 252 253
f 251 253 254
f 255 256 257
f 258 259 260
f 261 262 263
f 264 265 266
f 267 268 269
f 270 271 272
f 273 274 275
f 276 277 278
f 279 280 281
f 282 283 284
f 285 286 287
f 288 289 290
f 291 292 293
f 294 295 296
f 297 298 299
f 300 301 302
f 303 304 305
f 306 307 308
f 309 310 311
f 312 313 314
f 315 316 317
f 318 319 320
f 321 322 323
f 324 325 326
f 327 328 329
f 330 331 332
f 333 334 335
f 336 337 338
f 339 340 341
f 342 343 344
f 345 346 347
f 348 349 350
f 351 352 353
f 354 355 356
f 357 358 359
f 360 361 362
f 363 364 365
f 363 365 366
f 367 368 369
f 370 371 372
f 373 374 375
f 376 377 378
f 379 380 381
f 382 383 384
f 385 386 387
f 388 389 390
f 391 392 393
f 394 395 396
f 397 398 399
f 400 401 402
f 403 404 405
f 406 407 408
f 409 410 411
f 412 413 414
f 415 416 417
f 418 419 420
f 431 430 514
f 433 432 516
f 435 434 518
f 437 436 520
f 439 438 522
f 441 440 524
f 443 442 526
f 445 444 528
f 447 446 530
f 449 448 532
f 451 450 534
f 453 452 536
f 455 454 538
f 457 456 540
f 459 458 542
f 461 460 544
f 463 462 546
f 465 464 548
f 467 466 550
f 469 468 552
f 471 470 554
f 473 472 556
f 475 474 558
f 477 476 560
f 479 478 562
f 481 480 564
f 483 482 566
f 485 484 568
f 487 486 570
f 489 488 572
f 491 490 574
f 493 492 576
f 495 494 578
f 497 496 580
f 499 498 582
f 501 500 584
f 503 502 586
f 505 504 588
f 507 506 590
f 514 515 431
f 516 517 433
f 518 519 435
f 520 521 437
f 522 523 439
f 524 525 441
f 526 527 443
f 528 529 445
f 530 531 447
f 532 533 449
f 534 535 451
f 536 537 453
f 538 539 455
f 540 541 457
f 542 543 459
f 544 545 461
f 546 547 463
f 548 549 465
f 550 551 467
f 552 553 469
f 554 555 471
f 556 557 473
f 558 559 475
f 560 561 477
f 562 563 479
f 564 565 481
f 566 567 483
f 568 569 485
f 570 571 487
f 572 573 489
f 574 575 491
f 576 577 493
f 578 579 495
f 580 581 497
f 582 583 499
f 584 585 501
f 586 587 503
f 588 589 505
f 590 591 507
f 431 592 593
f 433 594 595
f 435 596 597
f 437 598 599
f 439 600 601
f 441 602 603
f 443 604 605
f 445 606 607
f 447 608 609
f 449 610 611
f 451 612 613
f 453 614 615
f 455 616 617
f 457 618 619
f 459 620 621
f 461 622 623
f 463 624 625
f 465 626 627
f 467 628 629
f 469 630 631
f 471 632 633
f 473 634 635
f 475 636 637
f 477 638 639
f 479 640 641
f 481 642 643
f 483 644 645
f 485 646 647
f 487 648 649
f 489 650 651
f 491 652 653
f 493 654 655
f 495 656 657
f 497 658 659
f 499 660 661
f 501 662 663
f 503 664 665
f 505 666 667
f 507 668 669
f 2 1 670
f 4 3 672
f 6 7 674
f 8 5 676
f 10 9 678
f 11 10 680
f 13 12 682
f 15 14 684
f 17 16 686
f 19 18 688
f 21 20 690
f 23 22 692
f 25 24 694
f 27 26 696
f 29 28 698
f 31 30 700
f 33 32 702
f 35 34 704
f 37 36 706
f 39 38 708
f 41 40 710
f 43 42 712
f 45 44 714
f 47 46 716
f 49 48 718
f 51 50 720
f 52 51 722
f 54 53 724
f 56 57 726
f 58 55 728
f 60 59 730
f 61 60 732
f 158 157 734
f 160 159 736
f 162 161 738
f 164 163 740
f 166 165 742
f 168 167 744
f 170 169 746
f 172 171 748
f 174 173 750
f 176 175 752
f 178 177 754
f 180 179 756
f 182 181 758
f 184 183 760
f 186 185 762
f 188 187 764
f 190 189 766
f 192 191 768
f 194 193 770
f 196 195 772
f 422 421 774
f 423 422 776
f 425 424 778
f 427 428 780
f 429 426 782
f 509 508 784
f 511 512 786
f 513 510 788
f 670 671 2
f 672 673 4
f 674 675 6
f 676 677 8
f 678 679 10
f 680 681 11
f 682 683 13
f 684 685 15
f 686 687 17
f 688 689 19
f 690 691 21
f 692 693 23
f 694 695 25
f 696 697 27
f 698 699 29
f 700 701 31
f 702 703 33
f 704 705 35
f 706 707 37
f 708 709 39
f 710 711 41
f 712 713 43
f 714 715 45
f 716 717 47
f 718 719 49
f 720 721 51
f 722 723 52
f 724 725 54
f 726 727 56
f 728 729 58
f 730 731 60
f 732 733 61
f 734 735 158
f 736 737 160
f 738 739 162
f 740 741 164
f 742 743 166
f 744 745 168
f 746 747 170
f 748 749 172
f 750 751 174
f 752 753 176
f 754 755 178
f 756 757 180
f 758 759 182
f 760 761 184
f 762 763 186
f 764 765 188
f 766 767 190
f 768 769 192
f 770 771 194
f 772 773 196
f 774 775 422
f 776 777 423
f 778 779 425
f 780 781 427
f 782 783 429
f 784 785 509
f 786 787 511
f 788 789 513
f 1 790 791
f 4 792 793
f 5 794 795
f 6 796 797
f 10 798 799
f 13 800 801
f 15 802 803
f 17 804 805
f 19 806 807
f 21 808 809
f 23 810 811
f 25 812 813
f 27 814 815
f 29 816 817
f 31 818 819
f 33 820 821
f 35 822 823
f 37 824 825
f 39 826 827
f 41 828 829
f 43 830 831
f 45 832 833
f 47 834 835
f 49 836 837
f 51 838 839
f 54 840 841
f 55 842 843
f 56 844 845
f 60 846 847
f 158 848 849
f 160 850 851
f 162 852 853
f 164 854 855
f 166 856 857
f 168 858 859
f 170 860 861
f 172 862 863
f 174 864 865
f 176 866 867
f 178 868 869
f 180 870 871
f 182 872 873
f 184 874 875
f 186 876 877
f 188 878 879
f 190 880 881
f 192 882 883
f 194 884 885
f 195 886 887
f 422 888 889
f 425 890 891
f 426 892 893
f 427 894 895
f 509 896 897
f 510 898 899
f 511 900 901

