# https://github.com/mikedh/trimesh
v -0.00406575 0.03194224 0.06159996
v -0.00039814 0.03219753 0.06159996
v -0.00039814 0.03219753 0.06159996
v -0.00039814 0.03219753 0.06159996
v 0.00327468 0.03203302 0.06159996
v 0.00327468 0.03203302 0.06159996
v 0.00327468 0.03203302 0.06159996
v 0.00690484 0.03145092 0.06159996
v 0.00690484 0.03145092 0.06159996
v 0.00690484 0.03145092 0.06159996
v 0.01044493 0.03045886 0.06159996
v 0.01044493 0.03045886 0.06159996
v 0.01044493 0.03045886 0.06159996
v 0.01384890 0.02906966 0.06159996
v 0.01384890 0.02906966 0.06159996
v 0.01384890 0.02906966 0.06159996
v 0.01707231 0.02730154 0.06159996
v 0.01707231 0.02730154 0.06159996
v 0.01707231 0.02730154 0.06159996
v 0.02007317 0.02517747 0.06159996
v 0.02007317 0.02517747 0.06159996
v 0.02007317 0.02517747 0.06159996
v 0.02281236 0.02272516 0.06159996
v 0.02281236 0.02272516 0.06159996
v 0.02281236 0.02272516 0.06159996
v 0.02525413 0.01997661 0.06159996
v 0.02525413 0.01997661 0.06159996
v 0.02525413 0.01997661 0.06159996
v 0.02736669 0.01696765 0.06159996
v 0.02736669 0.01696765 0.06159996
v 0.02736669 0.01696765 0.06159996
v 0.02912247 0.01373749 0.06159996
v 0.02912247 0.01373749 0.06159996
v 0.02912247 0.01373749 0.06159996
v 0.03049862 0.01032823 0.06159996
v 0.03049862 0.01032823 0.06159996
v 0.03049862 0.01032823 0.06159996
v 0.03147715 0.00678432 0.06159996
v 0.03147715 0.00678432 0.06159996
v 0.03147715 0.00678432 0.06159996
v 0.03204530 0.00315195 0.06159996
v 0.03204530 0.00315195 0.06159996
v 0.03204530 0.00315195 0.06159996
v 0.03219574 -0.00052145 0.06159996
v 0.03219574 -0.00052145 0.06159996
v 0.03219574 -0.00052145 0.06159996
v 0.03192645 -0.00418806 0.06159996
v 0.03192645 -0.00418806 0.06159996
v 0.03192645 -0.00418806 0.06159996
v 0.03124094 -0.00780010 0.06159996
v 0.03124094 -0.00780010 0.06159996
v 0.03124094 -0.00780010 0.06159996
v 0.03014814 -0.01131045 0.06159996
v 0.03014814 -0.01131045 0.06159996
v 0.03014814 -0.01131045 0.06159996
v 0.02866232 -0.01467341 0.06159996
v 0.02866232 -0.01467341 0.06159996
v 0.02866232 -0.01467341 0.06159996
v 0.02680289 -0.01784497 0.06159996
v 0.02680289 -0.01784497 0.06159996
v 0.02680289 -0.01784497 0.06159996
v 0.02459400 -0.02078396 0.06159996
v 0.02459400 -0.02078396 0.06159996
v 0.02459400 -0.02078396 0.06159996
v 0.02206444 -0.02345198 0.06159996
v 0.02206444 -0.02345198 0.06159996
v 0.02206444 -0.02345198 0.06159996
v 0.01924729 -0.02581429 0.06159996
v 0.01924729 -0.02581429 0.06159996
v 0.01924729 -0.02581429 0.06159996
v 0.01617926 -0.02784007 0.06159996
v 0.01617926 -0.02784007 0.06159996
v 0.01617926 -0.02784007 0.06159996
v 0.01290023 -0.02950292 0.06159996
v 0.01290023 -0.02950292 0.06159996
v 0.01290023 -0.02950292 0.06159996
v 0.00945306 -0.03078109 0.06159996
v 0.00945306 -0.03078109 0.06159996
v 0.00945306 -0.03078109 0.06159996
v 0.00588268 -0.03165805 0.06159996
v 0.00588268 -0.03165805 0.06159996
v 0.00588268 -0.03165805 0.06159996
v 0.00223559 -0.03212225 0.06159996
v 0.00223559 -0.03212225 0.06159996
v 0.00223559 -0.03212225 0.06159996
v -0.00144058 -0.03216773 0.06159996
v -0.00144058 -0.03216773 0.06159996
v -0.00144058 -0.03216773 0.06159996
v -0.00509804 -0.03179383 0.06159996
v -0.00509804 -0.03179383 0.06159996
v -0.00509804 -0.03179383 0.06159996
v -0.00868904 -0.03100544 0.06159996
v -0.00868904 -0.03100544 0.06159996
v -0.00868904 -0.03100544 0.06159996
v -0.01216679 -0.02981287 0.06159996
v -0.01216679 -0.02981287 0.06159996
v -0.01216679 -0.02981287 0.06159996
v -0.01548588 -0.02823162 0.06159996
v -0.01548588 -0.02823162 0.06159996
v -0.01548588 -0.02823162 0.06159996
v -0.01860308 -0.02628237 0.06159996
v -0.01860308 -0.02628237 0.06159996
v -0.01860308 -0.02628237 0.06159996
v -0.02147781 -0.02399045 0.06159996
v -0.02147781 -0.02399045 0.06159996
v -0.02147781 -0.02399045 0.06159996
v -0.02407252 -0.02138578 0.06159996
v -0.02407252 -0.02138578 0.06159996
v -0.02407252 -0.02138578 0.06159996
v -0.02635341 -0.01850229 0.06159996
v -0.02635341 -0.01850229 0.06159996
v -0.02635341 -0.01850229 0.06159996
v -0.02829074 -0.01537764 0.06159996
v -0.02829074 -0.01537764 0.06159996
v -0.02829074 -0.01537764 0.06159996
v -0.02985924 -0.01205247 0.06159996
v -0.02985924 -0.01205247 0.06159996
v -0.02985924 -0.01205247 0.06159996
v -0.03103852 -0.00857025 0.06159996
v -0.03103852 -0.00857025 0.06159996
v -0.03103852 -0.00857025 0.06159996
v -0.03181314 -0.00497627 0.06159996
v -0.03181314 -0.00497627 0.06159996
v -0.03181314 -0.00497627 0.06159996
v -0.03217303 -0.00131738 0.06159996
v -0.03217303 -0.00131738 0.06159996
v -0.03217303 -0.00131738 0.06159996
v -0.03211349 0.00235861 0.06159996
v -0.03211349 0.00235861 0.06159996
v -0.03211349 0.00235861 0.06159996
v -0.03163528 0.00600386 0.06159996
v -0.03163528 0.00600386 0.06159996
v -0.03163528 0.00600386 0.06159996
v -0.03074467 0.00957090 0.06159996
v -0.03074467 0.00957090 0.06159996
v -0.03074467 0.00957090 0.06159996
v -0.02945327 0.01301312 0.06159996
v -0.02945327 0.01301312 0.06159996
v -0.02945327 0.01301312 0.06159996
v -0.02777791 0.01628577 0.06159996
v -0.02777791 0.01628577 0.06159996
v -0.02777791 0.01628577 0.06159996
v -0.02574038 0.01934605 0.06159996
v -0.02574038 0.01934605 0.06159996
v -0.02574038 0.01934605 0.06159996
v -0.02336734 0.02215415 0.06159996
v -0.02336734 0.02215415 0.06159996
v -0.02336734 0.02215415 0.06159996
v -0.02068966 0.02467340 0.06159996
v -0.02068966 0.02467340 0.06159996
v -0.02068966 0.02467340 0.06159996
v -0.01774221 0.02687102 0.06159996
v -0.01774221 0.02687102 0.06159996
v -0.01774221 0.02687102 0.06159996
v -0.01456350 0.02871835 0.06159996
v -0.01456350 0.02871835 0.06159996
v -0.01456350 0.02871835 0.06159996
v -0.01119494 0.03019124 0.06159996
v -0.01119494 0.03019124 0.06159996
v -0.01119494 0.03019124 0.06159996
v -0.00768042 0.03127056 0.06159996
v -0.00768042 0.03127056 0.06159996
v -0.00768042 0.03127056 0.06159996
v -0.00406575 0.03194224 0.06159996
v -0.00406575 0.03194224 0.06159996
v 0.03228813 0.00370467 0.06159996
v 0.03204530 0.00315195 0.06159996
v 0.03249996 0.00000000 0.06159996
v 0.03219574 -0.00052145 0.06159996
v 0.03228813 -0.00370467 0.06159996
v 0.03192645 -0.00418806 0.06159996
v 0.03165537 -0.00736111 0.06159996
v 0.03124094 -0.00780010 0.06159996
v 0.03060990 -0.01092159 0.06159996
v 0.03014814 -0.01131045 0.06159996
v 0.02916544 -0.01433968 0.06159996
v 0.02866232 -0.01467341 0.06159996
v 0.02734071 -0.01757079 0.06159996
v 0.02680289 -0.01784497 0.06159996
v 0.02515959 -0.02057290 0.06159996
v 0.02459400 -0.02078396 0.06159996
v 0.02265042 -0.02330678 0.06159996
v 0.02206444 -0.02345198 0.06159996
v 0.01984602 -0.02573680 0.06159996
v 0.01924729 -0.02581429 0.06159996
v 0.01678287 -0.02783131 0.06159996
v 0.01617926 -0.02784007 0.06159996
v 0.01350098 -0.02956300 0.06159996
v 0.01290023 -0.02950292 0.06159996
v 0.01004302 -0.03090929 0.06159996
v 0.00945306 -0.03078109 0.06159996
v 0.00645417 -0.03185266 0.06159996
v 0.00588268 -0.03165805 0.06159996
v 0.00278115 -0.03238075 0.06159996
v 0.00223559 -0.03212225 0.06159996
v -0.00092807 -0.03248673 0.06159996
v -0.00144058 -0.03216773 0.06159996
v -0.00462520 -0.03216916 0.06159996
v -0.00509804 -0.03179383 0.06159996
v -0.00826204 -0.03143227 0.06159996
v -0.00868904 -0.03100544 0.06159996
v -0.01179122 -0.03028553 0.06159996
v -0.01216679 -0.02981287 0.06159996
v -0.01516664 -0.02874404 0.06159996
v -0.01548588 -0.02823162 0.06159996
v -0.01834440 -0.02682781 0.06159996
v -0.01860308 -0.02628237 0.06159996
v -0.02128297 -0.02456182 0.06159996
v -0.02147781 -0.02399045 0.06159996
v -0.02394407 -0.02197563 0.06159996
v -0.02407252 -0.02138578 0.06159996
v -0.02629303 -0.01910299 0.06159996
v -0.02635341 -0.01850229 0.06159996
v -0.02829921 -0.01598131 0.06159996
v -0.02829074 -0.01537764 0.06159996
v -0.02993649 -0.01265126 0.06159996
v -0.02985924 -0.01205247 0.06159996
v -0.03118348 -0.00915629 0.06159996
v -0.03103852 -0.00857025 0.06159996
v -0.03202396 -0.00554192 0.06159996
v -0.03181314 -0.00497627 0.06159996
v -0.03244698 -0.00185537 0.06159996
v -0.03217303 -0.00131738 0.06159996
v -0.03244698 0.00185537 0.06159996
v -0.03211349 0.00235861 0.06159996
v -0.03202396 0.00554192 0.06159996
v -0.03163528 0.00600386 0.06159996
v -0.03118348 0.00915629 0.06159996
v -0.03074467 0.00957090 0.06159996
v -0.02993649 0.01265126 0.06159996
v -0.02945327 0.01301312 0.06159996
v -0.02829921 0.01598131 0.06159996
v -0.02777791 0.01628577 0.06159996
v -0.02629303 0.01910299 0.06159996
v -0.02574038 0.01934605 0.06159996
v -0.02394407 0.02197563 0.06159996
v -0.02336734 0.02215415 0.06159996
v -0.02128297 0.02456182 0.06159996
v -0.02068966 0.02467340 0.06159996
v -0.01834440 0.02682781 0.06159996
v -0.01774221 0.02687102 0.06159996
v -0.01516664 0.02874404 0.06159996
v -0.01456350 0.02871835 0.06159996
v -0.01179122 0.03028553 0.06159996
v -0.01119494 0.03019124 0.06159996
v -0.00826204 0.03143227 0.06159996
v -0.00768042 0.03127056 0.06159996
v -0.00462520 0.03216916 0.06159996
v -0.00406575 0.03194224 0.06159996
v -0.00092807 0.03248673 0.06159996
v -0.00039814 0.03219753 0.06159996
v 0.00278115 0.03238075 0.06159996
v 0.00327468 0.03203302 0.06159996
v 0.00645417 0.03185266 0.06159996
v 0.00690484 0.03145092 0.06159996
v 0.01004302 0.03090929 0.06159996
v 0.01044493 0.03045886 0.06159996
v 0.01350098 0.02956300 0.06159996
v 0.01384890 0.02906966 0.06159996
v 0.01678287 0.02783131 0.06159996
v 0.01707231 0.02730154 0.06159996
v 0.01984602 0.02573680 0.06159996
v 0.02007317 0.02517747 0.06159996
v 0.02265042 0.02330678 0.06159996
v 0.02281236 0.02272516 0.06159996
v 0.02515959 0.02057290 0.06159996
v 0.02525413 0.01997661 0.06159996
v 0.02734071 0.01757079 0.06159996
v 0.02736669 0.01696765 0.06159996
v 0.02916544 0.01433968 0.06159996
v 0.02912247 0.01373749 0.06159996
v 0.03060990 0.01092159 0.06159996
v 0.03049862 0.01032823 0.06159996
v 0.03165537 0.00736111 0.06159996
v 0.03147715 0.00678432 0.06159996
v -0.03244698 -0.00185537 0.06159996
v -0.03244698 -0.00185537 0.06159996
v -0.03244698 0.00185537 0.06159996
v -0.03244698 0.00185537 0.06159996
v -0.03244698 0.00185537 0.06159996
v -0.03202396 0.00554192 0.06159996
v -0.03202396 0.00554192 0.06159996
v -0.03202396 0.00554192 0.06159996
v -0.03118348 0.00915629 0.06159996
v -0.03118348 0.00915629 0.06159996
v -0.03118348 0.00915629 0.06159996
v -0.02993649 0.01265126 0.06159996
v -0.02993649 0.01265126 0.06159996
v -0.02993649 0.01265126 0.06159996
v -0.02829921 0.01598131 0.06159996
v -0.02829921 0.01598131 0.06159996
v -0.02829921 0.01598131 0.06159996
v -0.02629303 0.01910299 0.06159996
v -0.02629303 0.01910299 0.06159996
v -0.02629303 0.01910299 0.06159996
v -0.02394407 0.02197563 0.06159996
v -0.02394407 0.02197563 0.06159996
v -0.02394407 0.02197563 0.06159996
v -0.02128297 0.02456182 0.06159996
v -0.02128297 0.02456182 0.06159996
v -0.02128297 0.02456182 0.06159996
v -0.01834440 0.02682781 0.06159996
v -0.01834440 0.02682781 0.06159996
v -0.01834440 0.02682781 0.06159996
v -0.01516664 0.02874404 0.06159996
v -0.01516664 0.02874404 0.06159996
v -0.01516664 0.02874404 0.06159996
v -0.01179122 0.03028553 0.06159996
v -0.01179122 0.03028553 0.06159996
v -0.01179122 0.03028553 0.06159996
v -0.00826204 0.03143227 0.06159996
v -0.00826204 0.03143227 0.06159996
v -0.00826204 0.03143227 0.06159996
v -0.00462520 0.03216916 0.06159996
v -0.00462520 0.03216916 0.06159996
v -0.00462520 0.03216916 0.06159996
v -0.00092807 0.03248673 0.06159996
v -0.00092807 0.03248673 0.06159996
v -0.00092807 0.03248673 0.06159996
v 0.00278115 0.03238075 0.06159996
v 0.00278115 0.03238075 0.06159996
v 0.00278115 0.03238075 0.06159996
v 0.00645417 0.03185266 0.06159996
v 0.00645417 0.03185266 0.06159996
v 0.00645417 0.03185266 0.06159996
v 0.01004302 0.03090929 0.06159996
v 0.01004302 0.03090929 0.06159996
v 0.01004302 0.03090929 0.06159996
v 0.01350098 0.02956300 0.06159996
v 0.01350098 0.02956300 0.06159996
v 0.01350098 0.02956300 0.06159996
v 0.01678287 0.02783131 0.06159996
v 0.01678287 0.02783131 0.06159996
v 0.01678287 0.02783131 0.06159996
v 0.01984602 0.02573680 0.06159996
v 0.01984602 0.02573680 0.06159996
v 0.01984602 0.02573680 0.06159996
v 0.02265042 0.02330678 0.06159996
v 0.02265042 0.02330678 0.06159996
v 0.02265042 0.02330678 0.06159996
v 0.02515959 0.02057290 0.06159996
v 0.02515959 0.02057290 0.06159996
v 0.02515959 0.02057290 0.06159996
v 0.02734071 0.01757079 0.06159996
v 0.02734071 0.01757079 0.06159996
v 0.02734071 0.01757079 0.06159996
v 0.02916544 0.01433968 0.06159996
v 0.02916544 0.01433968 0.06159996
v 0.02916544 0.01433968 0.06159996
v 0.03060990 0.01092159 0.06159996
v 0.03060990 0.01092159 0.06159996
v 0.03060990 0.01092159 0.06159996
v 0.03165537 0.00736111 0.06159996
v 0.03165537 0.00736111 0.06159996
v 0.03165537 0.00736111 0.06159996
v 0.03228813 0.00370467 0.06159996
v 0.03228813 0.00370467 0.06159996
v 0.03228813 0.00370467 0.06159996
v 0.03249996 0.00000000 0.06159996
v 0.03249996 0.00000000 0.06159996
v 0.03249996 0.00000000 0.06159996
v 0.03228813 -0.00370467 0.06159996
v 0.03228813 -0.00370467 0.06159996
v 0.03228813 -0.00370467 0.06159996
v 0.03165537 -0.00736111 0.06159996
v 0.03165537 -0.00736111 0.06159996
v 0.03165537 -0.00736111 0.06159996
v 0.03060990 -0.01092159 0.06159996
v 0.03060990 -0.01092159 0.06159996
v 0.03060990 -0.01092159 0.06159996
v 0.02916544 -0.01433968 0.06159996
v 0.02916544 -0.01433968 0.06159996
v 0.02916544 -0.01433968 0.06159996
v 0.02734071 -0.01757079 0.06159996
v 0.02734071 -0.01757079 0.06159996
v 0.02734071 -0.01757079 0.06159996
v 0.02515959 -0.02057290 0.06159996
v 0.02515959 -0.02057290 0.06159996
v 0.02515959 -0.02057290 0.06159996
v 0.02265042 -0.02330678 0.06159996
v 0.02265042 -0.02330678 0.06159996
v 0.02265042 -0.02330678 0.06159996
v 0.01984602 -0.02573680 0.06159996
v 0.01984602 -0.02573680 0.06159996
v 0.01984602 -0.02573680 0.06159996
v 0.01678287 -0.02783131 0.06159996
v 0.01678287 -0.02783131 0.06159996
v 0.01678287 -0.02783131 0.06159996
v 0.01350098 -0.02956300 0.06159996
v 0.01350098 -0.02956300 0.06159996
v 0.01350098 -0.02956300 0.06159996
v 0.01004302 -0.03090929 0.06159996
v 0.01004302 -0.03090929 0.06159996
v 0.01004302 -0.03090929 0.06159996
v 0.00645417 -0.03185266 0.06159996
v 0.00645417 -0.03185266 0.06159996
v 0.00645417 -0.03185266 0.06159996
v 0.00278115 -0.03238075 0.06159996
v 0.00278115 -0.03238075 0.06159996
v 0.00278115 -0.03238075 0.06159996
v -0.00092807 -0.03248673 0.06159996
v -0.00092807 -0.03248673 0.06159996
v -0.00092807 -0.03248673 0.06159996
v -0.00462520 -0.03216916 0.06159996
v -0.00462520 -0.03216916 0.06159996
v -0.00462520 -0.03216916 0.06159996
v -0.00826204 -0.03143227 0.06159996
v -0.00826204 -0.03143227 0.06159996
v -0.00826204 -0.03143227 0.06159996
v -0.01179122 -0.03028553 0.06159996
v -0.01179122 -0.03028553 0.06159996
v -0.01179122 -0.03028553 0.06159996
v -0.01516664 -0.02874404 0.06159996
v -0.01516664 -0.02874404 0.06159996
v -0.01516664 -0.02874404 0.06159996
v -0.01834440 -0.02682781 0.06159996
v -0.01834440 -0.02682781 0.06159996
v -0.01834440 -0.02682781 0.06159996
v -0.02128297 -0.02456182 0.06159996
v -0.02128297 -0.02456182 0.06159996
v -0.02128297 -0.02456182 0.06159996
v -0.02394407 -0.02197563 0.06159996
v -0.02394407 -0.02197563 0.06159996
v -0.02394407 -0.02197563 0.06159996
v -0.02629303 -0.01910299 0.06159996
v -0.02629303 -0.01910299 0.06159996
v -0.02629303 -0.01910299 0.06159996
v -0.02829921 -0.01598131 0.06159996
v -0.02829921 -0.01598131 0.06159996
v -0.02829921 -0.01598131 0.06159996
v -0.02993649 -0.01265126 0.06159996
v -0.02993649 -0.01265126 0.06159996
v -0.02993649 -0.01265126 0.06159996
v -0.03118348 -0.00915629 0.06159996
v -0.03118348 -0.00915629 0.06159996
v -0.03118348 -0.00915629 0.06159996
v -0.03202396 -0.00554192 0.06159996
v -0.03202396 -0.00554192 0.06159996
v -0.03202396 -0.00554192 0.06159996
v -0.03244698 -0.00185537 0.06159996
v -0.03249996 0.00000001 0.05660000
v -0.03249996 -0.00000001 0.05660000
v -0.03228813 0.00370468 0.05660000
v -0.03228813 0.00370466 0.05660000
v -0.03165537 0.00736112 0.05660000
v -0.03165537 0.00736110 0.05660000
v -0.03060990 0.01092160 0.05660000
v -0.03060990 0.01092158 0.05660000
v -0.02916543 0.01433969 0.05660000
v -0.02916544 0.01433967 0.05660000
v -0.02734070 0.01757080 0.05660000
v -0.02734072 0.01757078 0.05660000
v -0.02515958 0.02057291 0.05660000
v -0.02515960 0.02057289 0.05660000
v -0.02265041 0.02330679 0.05660000
v -0.02265043 0.02330677 0.05660000
v -0.01984601 0.02573681 0.05660000
v -0.01984603 0.02573679 0.05660000
v -0.01678286 0.02783132 0.05660000
v -0.01678288 0.02783130 0.05660000
v -0.01350097 0.02956300 0.05660000
v -0.01350099 0.02956300 0.05660000
v -0.01004301 0.03090929 0.05660000
v -0.01004303 0.03090929 0.05660000
v -0.00645416 0.03185266 0.05660000
v -0.00645418 0.03185266 0.05660000
v -0.00278114 0.03238075 0.05660000
v -0.00278116 0.03238075 0.05660000
v 0.00092808 0.03248673 0.05660000
v 0.00092806 0.03248673 0.05660000
v 0.00462521 0.03216916 0.05660000
v 0.00462519 0.03216916 0.05660000
v 0.00826205 0.03143227 0.05660000
v 0.00826203 0.03143227 0.05660000
v 0.01179123 0.03028553 0.05660000
v 0.01179121 0.03028553 0.05660000
v 0.01516665 0.02874403 0.05660000
v 0.01516663 0.02874404 0.05660000
v 0.01834441 0.02682780 0.05660000
v 0.01834439 0.02682782 0.05660000
v 0.02128298 0.02456181 0.05660000
v 0.02128296 0.02456183 0.05660000
v 0.02394408 0.02197562 0.05660000
v 0.02394406 0.02197564 0.05660000
v 0.02629304 0.01910298 0.05660000
v 0.02629302 0.01910300 0.05660000
v 0.02829922 0.01598130 0.05660000
v 0.02829921 0.01598132 0.05660000
v 0.02993649 0.01265125 0.05660000
v 0.02993649 0.01265127 0.05660000
v 0.03118348 0.00915628 0.05660000
v 0.03118348 0.00915630 0.05660000
v 0.03202396 0.00554191 0.05660000
v 0.03202396 0.00554193 0.05660000
v 0.03244698 0.00185536 0.05660000
v 0.03244698 0.00185538 0.05660000
v 0.03244698 -0.00185538 0.05660000
v 0.03244698 -0.00185536 0.05660000
v 0.03202396 -0.00554193 0.05660000
v 0.03202396 -0.00554191 0.05660000
v 0.03118348 -0.00915630 0.05660000
v 0.03118348 -0.00915628 0.05660000
v 0.02993649 -0.01265127 0.05660000
v 0.02993649 -0.01265125 0.05660000
v 0.02829921 -0.01598132 0.05660000
v 0.02829922 -0.01598130 0.05660000
v 0.02629302 -0.01910300 0.05660000
v 0.02629304 -0.01910298 0.05660000
v 0.02394406 -0.02197564 0.05660000
v 0.02394408 -0.02197562 0.05660000
v 0.02128296 -0.02456183 0.05660000
v 0.02128298 -0.02456181 0.05660000
v 0.01834439 -0.02682782 0.05660000
v 0.01834441 -0.02682780 0.05660000
v 0.01516663 -0.02874404 0.05660000
v 0.01516665 -0.02874403 0.05660000
v 0.01179121 -0.03028553 0.05660000
v 0.01179123 -0.03028553 0.05660000
v 0.00826203 -0.03143227 0.05660000
v 0.00826205 -0.03143227 0.05660000
v 0.00462519 -0.03216916 0.05660000
v 0.00462521 -0.03216916 0.05660000
v 0.00092806 -0.03248673 0.05660000
v 0.00092808 -0.03248673 0.05660000
v -0.00278116 -0.03238075 0.05660000
v -0.00278114 -0.03238075 0.05660000
v -0.00645418 -0.03185266 0.05660000
v -0.00645416 -0.03185266 0.05660000
v -0.01004303 -0.03090929 0.05660000
v -0.01004301 -0.03090929 0.05660000
v -0.01350099 -0.02956300 0.05660000
v -0.01350097 -0.02956300 0.05660000
v -0.01678288 -0.02783130 0.05660000
v -0.01678286 -0.02783132 0.05660000
v -0.01984603 -0.02573679 0.05660000
v -0.01984601 -0.02573681 0.05660000
v -0.02265043 -0.02330677 0.05660000
v -0.02265041 -0.02330679 0.05660000
v -0.02515960 -0.02057289 0.05660000
v -0.02515958 -0.02057291 0.05660000
v -0.02734072 -0.01757078 0.05660000
v -0.02734070 -0.01757080 0.05660000
v -0.02916544 -0.01433967 0.05660000
v -0.02916543 -0.01433969 0.05660000
v -0.03060990 -0.01092158 0.05660000
v -0.03060990 -0.01092160 0.05660000
v -0.03165537 -0.00736110 0.05660000
v -0.03165537 -0.00736112 0.05660000
v -0.03228813 -0.00370466 0.05660000
v -0.03228813 -0.00370468 0.05660000
v -0.03249996 -0.00000001 0.05660000
v -0.03228813 -0.00370466 0.05660000
v -0.03228813 0.00370466 0.05660000
v -0.03249996 0.00000001 0.05660000
v -0.03165537 0.00736110 0.05660000
v -0.03228813 0.00370468 0.05660000
v -0.03060990 0.01092158 0.05660000
v -0.03165537 0.00736112 0.05660000
v -0.02916544 0.01433967 0.05660000
v -0.03060990 0.01092160 0.05660000
v -0.02734072 0.01757078 0.05660000
v -0.02916543 0.01433969 0.05660000
v -0.02515960 0.02057289 0.05660000
v -0.02734070 0.01757080 0.05660000
v -0.02265043 0.02330677 0.05660000
v -0.02515958 0.02057291 0.05660000
v -0.01984603 0.02573679 0.05660000
v -0.02265041 0.02330679 0.05660000
v -0.01678288 0.02783130 0.05660000
v -0.01984601 0.02573681 0.05660000
v -0.01350099 0.02956300 0.05660000
v -0.01678286 0.02783132 0.05660000
v -0.01004303 0.03090929 0.05660000
v -0.01350097 0.02956300 0.05660000
v -0.00645418 0.03185266 0.05660000
v -0.01004301 0.03090929 0.05660000
v -0.00278116 0.03238075 0.05660000
v -0.00645416 0.03185266 0.05660000
v 0.00092806 0.03248673 0.05660000
v -0.00278114 0.03238075 0.05660000
v 0.00462519 0.03216916 0.05660000
v 0.00092808 0.03248673 0.05660000
v 0.00826203 0.03143227 0.05660000
v 0.00462521 0.03216916 0.05660000
v 0.01179121 0.03028553 0.05660000
v 0.00826205 0.03143227 0.05660000
v 0.01516663 0.02874404 0.05660000
v 0.01179123 0.03028553 0.05660000
v 0.01834439 0.02682782 0.05660000
v 0.01516665 0.02874403 0.05660000
v 0.02128296 0.02456183 0.05660000
v 0.01834441 0.02682780 0.05660000
v 0.02394406 0.02197564 0.05660000
v 0.02128298 0.02456181 0.05660000
v 0.02629302 0.01910300 0.05660000
v 0.02394408 0.02197562 0.05660000
v 0.02829921 0.01598132 0.05660000
v 0.02629304 0.01910298 0.05660000
v 0.02993649 0.01265127 0.05660000
v 0.02829922 0.01598130 0.05660000
v 0.03118348 0.00915630 0.05660000
v 0.02993649 0.01265125 0.05660000
v 0.03202396 0.00554193 0.05660000
v 0.03118348 0.00915628 0.05660000
v 0.03244698 0.00185538 0.05660000
v 0.03202396 0.00554191 0.05660000
v 0.03244698 -0.00185536 0.05660000
v 0.03244698 0.00185536 0.05660000
v 0.03202396 -0.00554191 0.05660000
v 0.03244698 -0.00185538 0.05660000
v 0.03118348 -0.00915628 0.05660000
v 0.03202396 -0.00554193 0.05660000
v 0.02993649 -0.01265125 0.05660000
v 0.03118348 -0.00915630 0.05660000
v 0.02829922 -0.01598130 0.05660000
v 0.02993649 -0.01265127 0.05660000
v 0.02629304 -0.01910298 0.05660000
v 0.02829921 -0.01598132 0.05660000
v 0.02394408 -0.02197562 0.05660000
v 0.02629302 -0.01910300 0.05660000
v 0.02128298 -0.02456181 0.05660000
v 0.02394406 -0.02197564 0.05660000
v 0.01834441 -0.02682780 0.05660000
v 0.02128296 -0.02456183 0.05660000
v 0.01516665 -0.02874403 0.05660000
v 0.01834439 -0.02682782 0.05660000
v 0.01179123 -0.03028553 0.05660000
v 0.01516663 -0.02874404 0.05660000
v 0.00826205 -0.03143227 0.05660000
v 0.01179121 -0.03028553 0.05660000
v 0.00462521 -0.03216916 0.05660000
v 0.00826203 -0.03143227 0.05660000
v 0.00092808 -0.03248673 0.05660000
v 0.00462519 -0.03216916 0.05660000
v -0.00278114 -0.03238075 0.05660000
v 0.00092806 -0.03248673 0.05660000
v -0.00645416 -0.03185266 0.05660000
v -0.00278116 -0.03238075 0.05660000
v -0.01004301 -0.03090929 0.05660000
v -0.00645418 -0.03185266 0.05660000
v -0.01350097 -0.02956300 0.05660000
v -0.01004303 -0.03090929 0.05660000
v -0.01678286 -0.02783132 0.05660000
v -0.01350099 -0.02956300 0.05660000
v -0.01984601 -0.02573681 0.05660000
v -0.01678288 -0.02783130 0.05660000
v -0.02265041 -0.02330679 0.05660000
v -0.01984603 -0.02573679 0.05660000
v -0.02515958 -0.02057291 0.05660000
v -0.02265043 -0.02330677 0.05660000
v -0.02734070 -0.01757080 0.05660000
v -0.02515960 -0.02057289 0.05660000
v -0.02916543 -0.01433969 0.05660000
v -0.02734072 -0.01757078 0.05660000
v -0.03060990 -0.01092160 0.05660000
v -0.02916544 -0.01433967 0.05660000
v -0.03165537 -0.00736112 0.05660000
v -0.03060990 -0.01092158 0.05660000
v -0.03228813 -0.00370468 0.05660000
v -0.03165537 -0.00736110 0.05660000
v -0.00406526 0.03194232 0.06160000
v -0.00039816 0.03219757 0.06160000
v -0.00039765 0.03219755 0.06160000
v 0.00327467 0.03203306 0.06160000
v 0.00327517 0.03203298 0.06160000
v 0.00690484 0.03145096 0.06160000
v 0.00690533 0.03145083 0.06160000
v 0.01044493 0.03045890 0.06160000
v 0.01044540 0.03045871 0.06160000
v 0.01384891 0.02906970 0.06160000
v 0.01384935 0.02906946 0.06160000
v 0.01707232 0.02730158 0.06160000
v 0.01707274 0.02730129 0.06160000
v 0.02007319 0.02517751 0.06160000
v 0.02007357 0.02517717 0.06160000
v 0.02281238 0.02272520 0.06160000
v 0.02281272 0.02272482 0.06160000
v 0.02525415 0.01997665 0.06160000
v 0.02525445 0.01997623 0.06160000
v 0.02736672 0.01696768 0.06160000
v 0.02736696 0.01696724 0.06160000
v 0.02912250 0.01373752 0.06160000
v 0.02912269 0.01373705 0.06160000
v 0.03049865 0.01032826 0.06160000
v 0.03049879 0.01032776 0.06160000
v 0.03147719 0.00678434 0.06160000
v 0.03147727 0.00678384 0.06160000
v 0.03204534 0.00315197 0.06160000
v 0.03204536 0.00315146 0.06160000
v 0.03219578 -0.00052144 0.06160000
v 0.03219575 -0.00052195 0.06160000
v 0.03192649 -0.00418805 0.06160000
v 0.03192640 -0.00418855 0.06160000
v 0.03124098 -0.00780010 0.06160000
v 0.03124083 -0.00780059 0.06160000
v 0.03014818 -0.01131045 0.06160000
v 0.03014798 -0.01131092 0.06160000
v 0.02866236 -0.01467342 0.06160000
v 0.02866211 -0.01467386 0.06160000
v 0.02680293 -0.01784498 0.06160000
v 0.02680263 -0.01784539 0.06160000
v 0.02459404 -0.02078398 0.06160000
v 0.02459369 -0.02078435 0.06160000
v 0.02206448 -0.02345200 0.06160000
v 0.02206409 -0.02345233 0.06160000
v 0.01924733 -0.02581431 0.06160000
v 0.01924690 -0.02581460 0.06160000
v 0.01617929 -0.02784010 0.06160000
v 0.01617884 -0.02784033 0.06160000
v 0.01290026 -0.02950295 0.06160000
v 0.01289978 -0.02950313 0.06160000
v 0.00945308 -0.03078113 0.06160000
v 0.00945259 -0.03078125 0.06160000
v 0.00588270 -0.03165809 0.06160000
v 0.00588219 -0.03165815 0.06160000
v 0.00223561 -0.03212229 0.06160000
v 0.00223510 -0.03212230 0.06160000
v -0.00144057 -0.03216777 0.06160000
v -0.00144108 -0.03216772 0.06160000
v -0.00509804 -0.03179387 0.06160000
v -0.00509854 -0.03179376 0.06160000
v -0.00868904 -0.03100548 0.06160000
v -0.00868953 -0.03100532 0.06160000
v -0.01216679 -0.02981291 0.06160000
v -0.01216725 -0.02981270 0.06160000
v -0.01548589 -0.02823166 0.06160000
v -0.01548632 -0.02823139 0.06160000
v -0.01860309 -0.02628241 0.06160000
v -0.01860349 -0.02628209 0.06160000
v -0.02147783 -0.02399049 0.06160000
v -0.02147819 -0.02399013 0.06160000
v -0.02407254 -0.02138582 0.06160000
v -0.02407286 -0.02138542 0.06160000
v -0.02635344 -0.01850232 0.06160000
v -0.02635371 -0.01850189 0.06160000
v -0.02829077 -0.01537767 0.06160000
v -0.02829099 -0.01537721 0.06160000
v -0.02985927 -0.01205250 0.06160000
v -0.02985944 -0.01205201 0.06160000
v -0.03103856 -0.00857028 0.06160000
v -0.03103867 -0.00856978 0.06160000
v -0.03181318 -0.00497629 0.06160000
v -0.03181323 -0.00497578 0.06160000
v -0.03217307 -0.00131740 0.06160000
v -0.03217306 -0.00131689 0.06160000
v -0.03211353 0.00235860 0.06160000
v -0.03211347 0.00235911 0.06160000
v -0.03163532 0.00600385 0.06160000
v -0.03163520 0.00600435 0.06160000
v -0.03074471 0.00957090 0.06160000
v -0.03074454 0.00957137 0.06160000
v -0.02945331 0.01301312 0.06160000
v -0.02945308 0.01301358 0.06160000
v -0.02777795 0.01628578 0.06160000
v -0.02777767 0.01628621 0.06160000
v -0.02574042 0.01934606 0.06160000
v -0.02574009 0.01934646 0.06160000
v -0.02336738 0.02215417 0.06160000
v -0.02336701 0.02215452 0.06160000
v -0.02068970 0.02467342 0.06160000
v -0.02068929 0.02467373 0.06160000
v -0.01774224 0.02687105 0.06160000
v -0.01774180 0.02687131 0.06160000
v -0.01456353 0.02871838 0.06160000
v -0.01456306 0.02871859 0.06160000
v -0.01119497 0.03019127 0.06160000
v -0.01119448 0.03019143 0.06160000
v -0.00768044 0.03127060 0.06160000
v -0.00767994 0.03127069 0.06160000
v -0.00406577 0.03194228 0.06160000
v -0.00039816 0.03219757 0.06160000
v -0.00039765 0.03219755 0.06160000
v 0.00327467 0.03203306 0.06160000
v 0.00327517 0.03203298 0.06160000
v 0.00690484 0.03145096 0.06160000
v 0.00690533 0.03145083 0.06160000
v 0.01044493 0.03045890 0.06160000
v 0.01044540 0.03045871 0.06160000
v 0.01384891 0.02906970 0.06160000
v 0.01384935 0.02906946 0.06160000
v 0.01707232 0.02730158 0.06160000
v 0.01707274 0.02730129 0.06160000
v 0.02007319 0.02517751 0.06160000
v 0.02007357 0.02517717 0.06160000
v 0.02281238 0.02272520 0.06160000
v 0.02281272 0.02272482 0.06160000
v 0.02525415 0.01997665 0.06160000
v 0.02525445 0.01997623 0.06160000
v 0.02736672 0.01696768 0.06160000
v 0.02736696 0.01696724 0.06160000
v 0.02912250 0.01373752 0.06160000
v 0.02912269 0.01373705 0.06160000
v 0.03049865 0.01032826 0.06160000
v 0.03049879 0.01032776 0.06160000
v 0.03147719 0.00678434 0.06160000
v 0.03147727 0.00678384 0.06160000
v 0.03204534 0.00315197 0.06160000
v 0.03204536 0.00315146 0.06160000
v 0.03219578 -0.00052144 0.06160000
v 0.03219575 -0.00052195 0.06160000
v 0.03192649 -0.00418805 0.06160000
v 0.03192640 -0.00418855 0.06160000
v 0.03124098 -0.00780010 0.06160000
v 0.03124083 -0.00780059 0.06160000
v 0.03014818 -0.01131045 0.06160000
v 0.03014798 -0.01131092 0.06160000
v 0.02866236 -0.01467342 0.06160000
v 0.02866211 -0.01467386 0.06160000
v 0.02680293 -0.01784498 0.06160000
v 0.02680263 -0.01784539 0.06160000
v 0.02459404 -0.02078398 0.06160000
v 0.02459369 -0.02078435 0.06160000
v 0.02206448 -0.02345200 0.06160000
v 0.02206409 -0.02345233 0.06160000
v 0.01924733 -0.02581431 0.06160000
v 0.01924690 -0.02581460 0.06160000
v 0.01617929 -0.02784010 0.06160000
v 0.01617884 -0.02784033 0.06160000
v 0.01290026 -0.02950295 0.06160000
v 0.01289978 -0.02950313 0.06160000
v 0.00945308 -0.03078113 0.06160000
v 0.00945259 -0.03078125 0.06160000
v 0.00588270 -0.03165809 0.06160000
v 0.00588219 -0.03165815 0.06160000
v 0.00223561 -0.03212229 0.06160000
v 0.00223510 -0.03212230 0.06160000
v -0.00144057 -0.03216777 0.06160000
v -0.00144108 -0.03216772 0.06160000
v -0.00509804 -0.03179387 0.06160000
v -0.00509854 -0.03179376 0.06160000
v -0.00868904 -0.03100548 0.06160000
v -0.00868953 -0.03100532 0.06160000
v -0.01216679 -0.02981291 0.06160000
v -0.01216725 -0.02981270 0.06160000
v -0.01548589 -0.02823166 0.06160000
v -0.01548632 -0.02823139 0.06160000
v -0.01860309 -0.02628241 0.06160000
v -0.01860349 -0.02628209 0.06160000
v -0.02147783 -0.02399049 0.06160000
v -0.02147819 -0.02399013 0.06160000
v -0.02407254 -0.02138582 0.06160000
v -0.02407286 -0.02138542 0.06160000
v -0.02635344 -0.01850232 0.06160000
v -0.02635371 -0.01850189 0.06160000
v -0.02829077 -0.01537767 0.06160000
v -0.02829099 -0.01537721 0.06160000
v -0.02985927 -0.01205250 0.06160000
v -0.02985944 -0.01205201 0.06160000
v -0.03103856 -0.00857028 0.06160000
v -0.03103867 -0.00856978 0.06160000
v -0.03181318 -0.00497629 0.06160000
v -0.03181323 -0.00497578 0.06160000
v -0.03217307 -0.00131740 0.06160000
v -0.03217306 -0.00131689 0.06160000
v -0.03211353 0.00235860 0.06160000
v -0.03211347 0.00235911 0.06160000
v -0.03163532 0.00600385 0.06160000
v -0.03163520 0.00600435 0.06160000
v -0.03074471 0.00957090 0.06160000
v -0.03074454 0.00957137 0.06160000
v -0.02945331 0.01301312 0.06160000
v -0.02945308 0.01301358 0.06160000
v -0.02777795 0.01628578 0.06160000
v -0.02777767 0.01628621 0.06160000
v -0.02574042 0.01934606 0.06160000
v -0.02574009 0.01934646 0.06160000
v -0.02336738 0.02215417 0.06160000
v -0.02336701 0.02215452 0.06160000
v -0.02068970 0.02467342 0.06160000
v -0.02068929 0.02467373 0.06160000
v -0.01774224 0.02687105 0.06160000
v -0.01774180 0.02687131 0.06160000
v -0.01456353 0.02871838 0.06160000
v -0.01456306 0.02871859 0.06160000
v -0.01119497 0.03019127 0.06160000
v -0.01119448 0.03019143 0.06160000
v -0.00768044 0.03127060 0.06160000
v -0.00767994 0.03127069 0.06160000
v -0.00406577 0.03194228 0.06160000
v -0.00406526 0.03194232 0.06160000
f 166 167 168
f 168 167 169
f 168 169 170
f 170 169 171
f 170 171 172
f 172 171 173
f 172 173 174
f 174 173 175
f 174 175 176
f 176 175 177
f 176 177 178
f 178 177 179
f 178 179 180
f 180 179 181
f 180 181 182
f 182 181 183
f 182 183 184
f 184 183 185
f 184 185 186
f 186 185 187
f 186 187 188
f 188 187 189
f 188 189 190
f 190 189 191
f 190 191 192
f 192 191 193
f 192 193 194
f 194 193 195
f 194 195 196
f 196 195 197
f 196 197 198
f 198 197 199
f 198 199 200
f 200 199 201
f 200 201 202
f 202 201 203
f 202 203 204
f 204 203 205
f 204 205 206
f 206 205 207
f 206 207 208
f 208 207 209
f 208 209 210
f 210 209 211
f 210 211 212
f 212 211 213
f 212 213 214
f 214 213 215
f 214 215 216
f 216 215 217
f 216 217 218
f 218 217 219
f 218 219 220
f 220 219 221
f 220 221 222
f 222 221 223
f 222 223 224
f 224 223 225
f 224 225 226
f 226 225 227
f 226 227 228
f 228 227 229
f 228 229 230
f 230 229 231
f 230 231 232
f 232 231 233
f 232 233 234
f 234 233 235
f 234 235 236
f 236 235 237
f 236 237 238
f 238 237 239
f 238 239 240
f 240 239 241
f 240 241 242
f 242 241 243
f 242 243 244
f 244 243 245
f 244 245 246
f 246 245 247
f 246 247 248
f 248 247 249
f 248 249 250
f 250 249 251
f 250 251 252
f 252 251 253
f 252 253 254
f 254 253 255
f 254 255 256
f 256 255 257
f 256 257 258
f 258 257 259
f 258 259 260
f 260 259 261
f 260 261 262
f 262 261 263
f 262 263 264
f 264 263 265
f 264 265 266
f 266 265 267
f 266 267 268
f 268 267 269
f 268 269 270
f 270 269 271
f 270 271 272
f 272 271 273
f 272 273 274
f 274 273 275
f 274 275 166
f 166 275 167
f 277 278 441
f 280 281 443
f 283 284 445
f 286 287 447
f 289 290 449
f 292 293 451
f 295 296 453
f 298 299 455
f 301 302 457
f 304 305 459
f 307 308 461
f 310 311 463
f 313 314 465
f 316 317 467
f 319 320 469
f 322 323 471
f 325 326 473
f 328 329 475
f 331 332 477
f 334 335 479
f 337 338 481
f 340 341 483
f 343 344 485
f 346 347 487
f 349 350 489
f 352 353 491
f 355 356 493
f 358 359 495
f 361 362 497
f 364 365 499
f 367 368 501
f 370 371 503
f 373 374 505
f 376 377 507
f 379 380 509
f 382 383 511
f 385 386 513
f 388 389 515
f 391 392 517
f 394 395 519
f 397 398 521
f 400 401 523
f 403 404 525
f 406 407 527
f 409 410 529
f 412 413 531
f 415 416 533
f 418 419 535
f 421 422 537
f 424 425 539
f 427 428 541
f 430 431 543
f 433 434 545
f 436 437 547
f 439 440 549
f 441 442 277
f 443 444 280
f 445 446 283
f 447 448 286
f 449 450 289
f 451 452 292
f 453 454 295
f 455 456 298
f 457 458 301
f 459 460 304
f 461 462 307
f 463 464 310
f 465 466 313
f 467 468 316
f 469 470 319
f 471 472 322
f 473 474 325
f 475 476 328
f 477 478 331
f 479 480 334
f 481 482 337
f 483 484 340
f 485 486 343
f 487 488 346
f 489 490 349
f 491 492 352
f 493 494 355
f 495 496 358
f 497 498 361
f 499 500 364
f 501 502 367
f 503 504 370
f 505 506 373
f 507 508 376
f 509 510 379
f 511 512 382
f 513 514 385
f 515 516 388
f 517 518 391
f 519 520 394
f 521 522 397
f 523 524 400
f 525 526 403
f 527 528 406
f 529 530 409
f 531 532 412
f 533 534 415
f 535 536 418
f 537 538 421
f 539 540 424
f 541 542 427
f 543 544 430
f 545 546 433
f 547 548 436
f 549 550 439
f 276 551 552
f 279 553 554
f 282 555 556
f 285 557 558
f 288 559 560
f 291 561 562
f 294 563 564
f 297 565 566
f 300 567 568
f 303 569 570
f 306 571 572
f 309 573 574
f 312 575 576
f 315 577 578
f 318 579 580
f 321 581 582
f 324 583 584
f 327 585 586
f 330 587 588
f 333 589 590
f 336 591 592
f 339 593 594
f 342 595 596
f 345 597 598
f 348 599 600
f 351 601 602
f 354 603 604
f 357 605 606
f 360 607 608
f 363 609 610
f 366 611 612
f 369 613 614
f 372 615 616
f 375 617 618
f 378 619 620
f 381 621 622
f 384 623 624
f 387 625 626
f 390 627 628
f 393 629 630
f 396 631 632
f 399 633 634
f 402 635 636
f 405 637 638
f 408 639 640
f 411 641 642
f 414 643 644
f 417 645 646
f 420 647 648
f 423 649 650
f 426 651 652
f 429 653 654
f 432 655 656
f 435 657 658
f 438 659 660
f 2 1 661
f 5 4 663
f 8 7 665
f 11 10 667
f 14 13 669
f 17 16 671
f 20 19 673
f 23 22 675
f 26 25 677
f 29 28 679
f 32 31 681
f 35 34 683
f 38 37 685
f 41 40 687
f 44 43 689
f 47 46 691
f 50 49 693
f 53 52 695
f 56 55 697
f 59 58 699
f 62 61 701
f 65 64 703
f 68 67 705
f 71 70 707
f 74 73 709
f 77 76 711
f 80 79 713
f 83 82 715
f 86 85 717
f 89 88 719
f 92 91 721
f 95 94 723
f 98 97 725
f 101 100 727
f 104 103 729
f 107 106 731
f 110 109 733
f 113 112 735
f 116 115 737
f 119 118 739
f 122 121 741
f 125 124 743
f 128 127 745
f 131 130 747
f 134 133 749
f 137 136 751
f 140 139 753
f 143 142 755
f 146 145 757
f 149 148 759
f 152 151 761
f 155 154 763
f 158 157 765
f 161 160 767
f 164 163 769
f 661 662 2
f 663 664 5
f 665 666 8
f 667 668 11
f 669 670 14
f 671 672 17
f 673 674 20
f 675 676 23
f 677 678 26
f 679 680 29
f 681 682 32
f 683 684 35
f 685 686 38
f 687 688 41
f 689 690 44
f 691 692 47
f 693 694 50
f 695 696 53
f 697 698 56
f 699 700 59
f 701 702 62
f 703 704 65
f 705 706 68
f 707 708 71
f 709 710 74
f 711 712 77
f 713 714 80
f 715 716 83
f 717 718 86
f 719 720 89
f 721 722 92
f 723 724 95
f 725 726 98
f 727 728 101
f 729 730 104
f 731 732 107
f 733 734 110
f 735 736 113
f 737 738 116
f 739 740 119
f 741 742 122
f 743 744 125
f 745 746 128
f 747 748 131
f 749 750 134
f 751 752 137
f 753 754 140
f 755 756 143
f 757 758 146
f 759 760 149
f 761 762 152
f 763 764 155
f 765 766 158
f 767 768 161
f 769 770 164
f 3 771 772
f 6 773 774
f 9 775 776
f 12 777 778
f 15 779 780
f 18 781 782
f 21 783 784
f 24 785 786
f 27 787 788
f 30 789 790
f 33 791 792
f 36 793 794
f 39 795 796
f 42 797 798
f 45 799 800
f 48 801 802
f 51 803 804
f 54 805 806
f 57 807 808
f 60 809 810
f 63 811 812
f 66 813 814
f 69 815 816
f 72 817 818
f 75 819 820
f 78 821 822
f 81 823 824
f 84 825 826
f 87 827 828
f 90 829 830
f 93 831 832
f 96 833 834
f 99 835 836
f 102 837 838
f 105 839 840
f 108 841 842
f 111 843 844
f 114 845 846
f 117 847 848
f 120 849 850
f 123 851 852
f 126 853 854
f 129 855 856
f 132 857 858
f 135 859 860
f 138 861 862
f 141 863 864
f 144 865 866
f 147 867 868
f 150 869 870
f 153 871 872
f 156 873 874
f 159 875 876
f 162 877 878
f 165 879 880

