# https://github.com/mikedh/trimesh
mtllib mtl_body_link2

usemtl material_body_link2_0
v 0.05590100 0.12099998 0.33263499
v -0.04085000 0.12099998 0.36397100
v 0.04366000 0.12099998 0.38386700
v -0.02903800 0.12099999 0.31242201
v 0.05832800 0.12099999 0.31723801
v -0.02398500 0.12099999 0.29526800
v -0.00606700 0.12099999 0.27549100
v 0.05028700 0.12099999 0.28710500
v 0.00730900 0.12099999 0.27059800
v 0.04102500 0.12099999 0.27789000
v 0.02614200 0.12099999 0.27133200
v 0.03894300 0.12100098 0.39889700
v -0.04338500 0.12099998 0.38023902
v 0.03073900 0.12100098 0.41061000
v -0.04134900 0.12099998 0.39353499
v 0.02001300 0.12099998 0.41826702
v -0.03473800 0.12099998 0.40632502
v -0.02451300 0.12099998 0.41573301
v -0.00964900 0.12099998 0.42166299
v 0.00523600 0.12099998 0.42256702
v 0.06569000 0.12084898 0.33463902
v 0.04677200 0.12099998 0.38440401
v 0.05383300 0.12077998 0.38639901
v 0.05901300 0.12099998 0.33317900
v -0.04400400 0.12099998 0.36337701
v -0.03205200 0.12099999 0.31151701
v -0.03904800 0.12087599 0.31015599
v -0.05062300 0.12092198 0.36205102
v 0.04177200 0.12099998 0.40017900
v 0.04813500 0.12088498 0.40354801
v 0.03304400 0.12099998 0.41318101
v 0.03789300 0.12088698 0.41799301
v 0.02124500 0.12099998 0.42174900
v 0.02344100 0.12083298 0.42834500
v 0.00541700 0.12099998 0.42620701
v 0.00611600 0.12080998 0.43341199
v -0.01035200 0.12099998 0.42485601
v -0.01175800 0.12086798 0.43195701
v -0.02870500 0.12081398 0.42544902
v -0.02574400 0.12099998 0.41856799
v -0.04207300 0.12078298 0.41354600
v -0.03664100 0.12099998 0.40833602
v -0.05079200 0.12083998 0.39767501
v -0.04430000 0.12099998 0.39456100
v -0.04649400 0.12099998 0.38020599
v -0.05370700 0.12084498 0.37994502
v 0.06916700 0.12079599 0.31653199
v 0.06197600 0.12099999 0.31709502
v 0.06014800 0.12099999 0.29943401
v 0.06733700 0.12077598 0.29753700
v 0.07563500 0.11441498 0.29619501
v 0.06733700 0.12077598 0.29753700
v 0.06916700 0.12079599 0.31653199
v 0.05969500 0.12079999 0.28210000
v 0.05349800 0.12099999 0.28547401
v 0.04684000 0.12096899 0.26971201
v 0.04310500 0.12099999 0.27503700
v 0.02870500 0.12085699 0.26096800
v 0.02668100 0.12099999 0.26806900
v 0.00662200 0.12097499 0.25981302
v 0.00695600 0.12099999 0.26689500
v -0.01067000 0.12096799 0.26622201
v -0.00756700 0.12099999 0.27217100
v -0.02407100 0.12088599 0.27659101
v -0.01900700 0.12099999 0.28122801
v -0.02703200 0.12099999 0.29378000
v -0.03404000 0.12068499 0.29154000
v 0.06818500 0.11731399 0.27807999
v 0.05969500 0.12079999 0.28210000
v 0.07687600 0.11192299 0.27603901
v 0.08633700 0.10413198 0.29597700
v 0.05278100 0.11817099 0.26039300
v 0.04684000 0.12096899 0.26971201
v -0.01067000 0.12096799 0.26622201
v -0.03090200 0.11799499 0.26840601
v -0.02407100 0.12088599 0.27659101
v -0.01486200 0.11831199 0.25685201
v 0.00662200 0.12097499 0.25981302
v 0.00716400 0.11853999 0.24948501
v 0.02870500 0.12085699 0.26096800
v 0.03160800 0.11846799 0.25147400
v -0.04006600 0.11403898 0.28003300
v -0.03404000 0.12068499 0.29154000
v 0.03056300 0.11714700 -0.03787099
v 0.04278200 0.11730000 -0.02332299
v 0.05071000 0.11382200 -0.02907400
v 0.03379100 0.11367100 -0.04776199
v 0.05890100 0.11392400 -0.00274899
v 0.04853000 0.11743500 0.00025001
v -0.03569800 0.11715500 -0.03306899
v -0.05551700 0.11380200 -0.01847700
v -0.04639500 0.11727500 -0.01544199
v -0.04266400 0.11346100 -0.04075200
v -0.05914600 0.11371400 0.00819900
v -0.04825300 0.11744100 0.00723101
v 0.01369100 0.11703500 -0.04687799
v 0.01967900 0.11720900 -0.02227400
v 0.01462700 0.11344600 -0.05709400
v 0.02363800 0.11732500 0.00218801
v -0.02315500 0.11722000 -0.01890999
v -0.02060500 0.11704200 -0.04406499
v -0.02429300 0.11340900 -0.05390299
v -0.02361300 0.11733000 0.00618300
v -0.00403400 0.11328400 -0.05843399
v -0.00332600 0.11700600 -0.04829400
v -0.00171700 0.11711800 -0.02132299
v 0.00001800 0.11722500 0.00490601
v 0.06126100 0.11364500 0.02052100
v 0.05076300 0.11739900 0.02105601
v 0.05348000 0.11732699 0.06011700
v 0.06386200 0.11327500 0.05926500
v 0.02620300 0.11741700 0.02906601
v 0.02861100 0.11753200 0.06361501
v 0.00187100 0.11734100 0.03333201
v 0.00395300 0.11747700 0.06672300
v -0.02253500 0.11744000 0.03355301
v -0.02048300 0.11755300 0.06756800
v -0.04736700 0.11746200 0.02913501
v -0.04417600 0.11749900 0.06736201
v -0.05907100 0.11300300 0.02990301
v -0.05645500 0.11294300 0.06792000
v 0.06578000 0.11331500 0.09833201
v 0.05608900 0.11722000 0.09958800
v 0.06837800 0.11280299 0.13715001
v 0.05823500 0.11727899 0.13776000
v 0.03080000 0.11756200 0.10099000
v 0.03292400 0.11760999 0.13861301
v 0.00595500 0.11762099 0.10292400
v 0.00774800 0.11776199 0.13965300
v -0.01863700 0.11755999 0.10436301
v -0.01688900 0.11757299 0.14199500
v -0.04202400 0.11750099 0.10649401
v -0.03952300 0.11750199 0.14383801
v -0.05441600 0.11229100 0.10805900
v -0.05180100 0.11243399 0.14459101
v 0.06381200 0.11748999 0.24031701
v 0.07399900 0.11268699 0.23939300
v 0.06034300 0.11730299 0.17348500
v 0.07052600 0.11265099 0.17304200
v 0.07269100 0.11237999 0.20675301
v 0.06272800 0.11720899 0.20747100
v 0.03954200 0.11799099 0.23434000
v 0.03486800 0.11776199 0.17462001
v 0.03673000 0.11789399 0.20604800
v 0.00980500 0.11811299 0.23249001
v 0.00903000 0.11789599 0.17499900
v 0.00923100 0.11801399 0.20614501
v -0.01821600 0.11785299 0.23970101
v -0.01547900 0.11771899 0.17766901
v -0.01595500 0.11783899 0.21049500
v -0.03468700 0.11705799 0.25324801
v -0.03810800 0.11749499 0.17980300
v -0.03657200 0.11727199 0.21596401
v -0.04398500 0.11174899 0.25733400
v -0.04936500 0.11243499 0.18118501
v -0.04638800 0.11226599 0.22241401
v -0.05160200 0.10473798 0.28792900
v -0.05280100 0.10495099 0.25804702
v -0.05484100 0.10520199 0.22312500
v -0.05758000 0.10496199 0.18203001
v -0.06015200 0.10440900 0.14504901
v -0.05484100 0.10520199 0.22312500
v -0.05840900 0.09070499 0.18255800
v -0.05589500 0.09060599 0.22372100
v -0.05758000 0.10496199 0.18203001
v -0.06233400 0.10457800 0.10816900
v -0.06692600 0.10487500 0.03049600
v -0.06463600 0.10481400 0.06845300
v -0.06015200 0.10440900 0.14504901
v -0.06233400 0.10457800 0.10816900
v -0.06070900 0.09055799 0.14502401
v -0.06297300 0.09063199 0.10797201
v -0.06536800 0.09055300 0.06885001
v -0.06463600 0.10481400 0.06845300
v -0.06803500 0.10437600 0.00858500
v -0.06469200 0.10455900 -0.02198199
v -0.06760200 0.09055200 0.03044800
v -0.06692600 0.10487500 0.03049600
v -0.06862000 0.09081900 0.00890900
v -0.06803500 0.10437600 0.00858500
v -0.06565900 0.09067200 -0.02179700
v -0.06469200 0.10455900 -0.02198199
v -0.02962900 0.10388001 -0.06194100
v -0.04890800 0.10438000 -0.04787400
v -0.04890800 0.10438000 -0.04787400
v -0.04985700 0.09082100 -0.04809600
v -0.00510900 0.10458100 -0.06785000
v -0.02978700 0.09062501 -0.06260699
v -0.02962900 0.10388001 -0.06194100
v 0.01471100 0.10509900 -0.06656400
v -0.00529500 0.09057200 -0.06850300
v -0.00510900 0.10458100 -0.06785000
v 0.03567400 0.10480600 -0.05851199
v 0.01492500 0.09057200 -0.06752199
v 0.01471100 0.10509900 -0.06656400
v 0.05861500 0.10434000 -0.03519300
v 0.03617900 0.09068901 -0.05916199
v 0.03567400 0.10480600 -0.05851199
v 0.07002100 0.10455200 0.01933801
v 0.06788700 0.10407900 -0.00525900
v 0.05861500 0.10434000 -0.03519300
v 0.06862800 0.09065900 -0.00512900
v 0.05939900 0.09062700 -0.03568700
v 0.06788700 0.10407900 -0.00525900
v 0.08554800 0.10447799 0.27376602
v 0.08355100 0.10446899 0.23921100
v 0.08170000 0.10397499 0.20619700
v 0.07964400 0.10395999 0.17234800
v 0.07748200 0.10381899 0.13638901
v 0.07496000 0.10448700 0.09756800
v 0.07263800 0.10434900 0.05860400
v 0.07069900 0.09057000 0.01909300
v 0.07002100 0.10455200 0.01933801
v 0.07310200 0.09066800 0.05771200
v 0.07263800 0.10434900 0.05860400
v 0.07550700 0.09062899 0.09695001
v 0.07496000 0.10448700 0.09756800
v 0.07788400 0.09081400 0.13591101
v 0.07748200 0.10381899 0.13638901
v 0.08170000 0.10397499 0.20619700
v 0.08418600 0.09055699 0.23884100
v 0.08216400 0.09060799 0.20579401
v 0.08355100 0.10446899 0.23921100
v 0.07964400 0.10395999 0.17234800
v 0.08011300 0.09062199 0.17225300
v 0.08033000 0.10450298 0.33805201
v 0.08444500 0.10437399 0.31756601
v 0.06569000 0.12084898 0.33463902
v 0.08627000 0.09065899 0.27375800
v 0.08554800 0.10447799 0.27376602
v 0.05383300 0.12077998 0.38639901
v 0.06806300 0.10443798 0.39041201
v -0.05371900 0.10460599 0.30681199
v -0.03904800 0.12087599 0.31015599
v -0.05062300 0.12092198 0.36205102
v -0.06560300 0.10439499 0.35825199
v -0.06869100 0.10433198 0.37955299
v -0.05370700 0.12084498 0.37994502
v -0.05079200 0.12083998 0.39767501
v -0.06499500 0.10440799 0.40221802
v -0.06619500 0.09055599 0.35814399
v -0.06933600 0.09056698 0.37953300
v -0.06560300 0.10439499 0.35825199
v -0.06869100 0.10433198 0.37955299
v -0.05368100 0.10439898 0.42289702
v -0.04207300 0.12078298 0.41354600
v -0.06564300 0.09058298 0.40220300
v -0.06499500 0.10440799 0.40221802
v -0.02870500 0.12081398 0.42544902
v -0.03484500 0.10426498 0.43904001
v -0.05368100 0.10439898 0.42289702
v -0.05395200 0.09063898 0.42332101
v 0.06146300 0.10436298 0.41088000
v 0.04813500 0.12088498 0.40354801
v 0.08033000 0.10450298 0.33805201
v 0.06870700 0.09054498 0.39060399
v 0.08100400 0.09056599 0.33777601
v 0.06806300 0.10443798 0.39041201
v 0.04912600 0.10442698 0.42816902
v 0.03789300 0.12088698 0.41799301
v 0.06214700 0.09054498 0.41077599
v 0.06146300 0.10436298 0.41088000
v 0.02856200 0.10444098 0.44236801
v 0.02344100 0.12083298 0.42834500
v 0.04979900 0.09056098 0.42820400
v 0.04912600 0.10442698 0.42816902
v 0.00928200 0.10446298 0.44795099
v 0.00611600 0.12080998 0.43341199
v 0.02943400 0.09055798 0.44278402
v 0.02856200 0.10444098 0.44236801
v -0.01542300 0.10423098 0.44641301
v -0.01175800 0.12086798 0.43195701
v 0.05678400 0.12100098 0.30021102
v -0.01654500 0.12100099 0.28366501
v -0.05455500 0.09059299 0.30701599
v -0.05371900 0.10460599 0.30681199
v 0.00857400 0.09058198 0.44879002
v 0.00928200 0.10446298 0.44795099
v -0.03486900 0.09059598 0.43975601
v -0.03484500 0.10426498 0.43904001
v -0.01531600 0.09076998 0.44699100
v -0.01542300 0.10423098 0.44641301
v -0.05238300 0.09054799 0.28821901
v -0.05160200 0.10473798 0.28792900
v -0.05381400 0.09062999 0.25816000
v -0.05280100 0.10495099 0.25804702
v 0.08499100 0.09065598 0.31720400
v 0.08633700 0.10413198 0.29597700
v 0.08444500 0.10437399 0.31756601
v 0.08679200 0.09056699 0.29609600
v -0.05341800 0.09070499 0.18225301
v -0.05090400 0.09060599 0.22341700
v -0.05589500 0.09060599 0.22372100
v -0.05840900 0.09070499 0.18255800
v -0.05571900 0.09055799 0.14471901
v -0.06070900 0.09055799 0.14502401
v -0.06297300 0.09063199 0.10797201
v -0.05798200 0.09063199 0.10766700
v -0.06037700 0.09055300 0.06855201
v -0.06536800 0.09055300 0.06885001
v -0.06260900 0.09055200 0.03018500
v -0.06760200 0.09055200 0.03044800
v -0.06360800 0.09081900 0.00903200
v -0.06260900 0.09055200 0.03018500
v -0.06760200 0.09055200 0.03044800
v -0.06862000 0.09081900 0.00890900
v -0.06079100 0.09067200 -0.02019100
v -0.06360800 0.09081900 0.00903200
v -0.06862000 0.09081900 0.00890900
v -0.06565900 0.09067200 -0.02179700
v -0.04985700 0.09082100 -0.04809600
v -0.04609800 0.09082100 -0.04464399
v -0.02978700 0.09062501 -0.06260699
v -0.04609800 0.09082100 -0.04464399
v -0.04985700 0.09082100 -0.04809600
v -0.02765700 0.09062501 -0.05797699
v -0.02765700 0.09062501 -0.05797699
v -0.00529500 0.09057200 -0.06850300
v -0.00482100 0.09057100 -0.06347499
v -0.02978700 0.09062501 -0.06260699
v 0.01386100 0.09057100 -0.06256800
v 0.01492500 0.09057200 -0.06752199
v 0.03336700 0.09068800 -0.05489600
v 0.03617900 0.09068901 -0.05916199
v 0.05497200 0.09062700 -0.03305300
v 0.05939900 0.09062700 -0.03568700
v 0.06862800 0.09065900 -0.00512900
v 0.06369000 0.09065900 -0.00418300
v 0.07069900 0.09057000 0.01909300
v 0.06571300 0.09057000 0.01946100
v 0.07310200 0.09066800 0.05771200
v 0.06811200 0.09066800 0.05802000
v 0.07550700 0.09062899 0.09695001
v 0.07051700 0.09062899 0.09725500
v 0.07788400 0.09081400 0.13591101
v 0.07289300 0.09081400 0.13621600
v 0.07512200 0.09062199 0.17255900
v 0.07788400 0.09081400 0.13591101
v 0.08011300 0.09062199 0.17225300
v 0.07289300 0.09081400 0.13621600
v 0.08216400 0.09060799 0.20579401
v 0.07512200 0.09062199 0.17255900
v 0.08011300 0.09062199 0.17225300
v 0.07717400 0.09060799 0.20609901
v 0.07919500 0.09055699 0.23914200
v 0.08418600 0.09055699 0.23884100
v 0.08127300 0.09065899 0.27396602
v 0.08627000 0.09065899 0.27375800
v 0.08178700 0.09056699 0.29594100
v 0.08679200 0.09056699 0.29609600
v 0.08499100 0.09065598 0.31720400
v 0.08003200 0.09065598 0.31651399
v 0.08100400 0.09056599 0.33777601
v 0.07611300 0.09056599 0.33673302
v 0.06388600 0.09054498 0.38926101
v 0.06870700 0.09054498 0.39060399
v 0.05762700 0.09054498 0.40850601
v 0.06214700 0.09054498 0.41077599
v 0.04620500 0.09056098 0.42462799
v 0.04979900 0.09056098 0.42820400
v 0.02722300 0.09055798 0.43821702
v 0.02943400 0.09055798 0.44278402
v 0.00805400 0.09058198 0.44373599
v 0.00857400 0.09058198 0.44879002
v -0.01531600 0.09076998 0.44699100
v 0.00805400 0.09058198 0.44373599
v 0.00857400 0.09058198 0.44879002
v -0.01424000 0.09077098 0.44205702
v -0.03228900 0.09059698 0.43537900
v -0.01531600 0.09076998 0.44699100
v -0.03486900 0.09059598 0.43975601
v -0.01424000 0.09077098 0.44205702
v -0.03228900 0.09059698 0.43537900
v -0.05395200 0.09063898 0.42332101
v -0.05001100 0.09063898 0.42011601
v -0.03486900 0.09059598 0.43975601
v -0.06564300 0.09058298 0.40220300
v -0.06084800 0.09058298 0.40054101
v -0.06933600 0.09056698 0.37953300
v -0.06427700 0.09056698 0.37949300
v -0.06619500 0.09055599 0.35814399
v -0.06127600 0.09055599 0.35906402
v -0.05455500 0.09059299 0.30701599
v -0.04961900 0.09059299 0.30785999
v -0.05238300 0.09054799 0.28821901
v -0.04737000 0.09054799 0.28838802
v -0.04882100 0.09062999 0.25789100
v -0.05381400 0.09062999 0.25816000
v -0.04085000 -0.12100002 0.36397099
v 0.05590100 -0.12100001 0.33263498
v 0.04366000 -0.12100002 0.38386699
v -0.02903800 -0.12100001 0.31242200
v 0.05832800 -0.12100001 0.31723800
v -0.02398500 -0.12100001 0.29526799
v 0.05028700 -0.12100001 0.28710499
v -0.00606700 -0.12100001 0.27549099
v 0.00730900 -0.12100001 0.27059799
v 0.04102500 -0.12100001 0.27788999
v 0.02614200 -0.12100001 0.27133199
v 0.03894300 -0.12100102 0.39889699
v -0.04338500 -0.12100002 0.38023900
v 0.03073900 -0.12100102 0.41060999
v -0.04134900 -0.12100002 0.39353498
v 0.02001300 -0.12100002 0.41826701
v -0.03473800 -0.12100002 0.40632501
v -0.02451300 -0.12100002 0.41573300
v 0.00523600 -0.12100002 0.42256700
v -0.00964900 -0.12100002 0.42166298
v 0.06569000 -0.12084901 0.33463901
v 0.04677200 -0.12100002 0.38440400
v 0.05901300 -0.12100001 0.33317899
v 0.05383300 -0.12078002 0.38639900
v -0.03205200 -0.12100001 0.31151699
v -0.04400400 -0.12100002 0.36337700
v -0.03904800 -0.12087601 0.31015598
v -0.05062300 -0.12092202 0.36205100
v 0.04177200 -0.12100002 0.40017899
v 0.04813500 -0.12088502 0.40354800
v 0.03304400 -0.12100002 0.41318100
v 0.03789300 -0.12088701 0.41799300
v 0.02124500 -0.12100002 0.42174899
v 0.02344100 -0.12083302 0.42834499
v 0.00541700 -0.12100002 0.42620700
v 0.00611600 -0.12081002 0.43341198
v -0.01035200 -0.12100002 0.42485600
v -0.01175800 -0.12086802 0.43195700
v -0.02574400 -0.12100002 0.41856798
v -0.02870500 -0.12081402 0.42544901
v -0.04207300 -0.12078302 0.41354599
v -0.03664100 -0.12100002 0.40833601
v -0.05079200 -0.12084002 0.39767500
v -0.04430000 -0.12100002 0.39456099
v -0.04649400 -0.12100002 0.38020598
v -0.05370700 -0.12084501 0.37994500
v 0.06197600 -0.12100001 0.31709501
v 0.06916700 -0.12079602 0.31653198
v 0.06014800 -0.12100001 0.29943400
v 0.06733700 -0.12077601 0.29753699
v 0.07563500 -0.11441501 0.29619500
v 0.06916700 -0.12079602 0.31653198
v 0.06733700 -0.12077601 0.29753699
v 0.05969500 -0.12080002 0.28209999
v 0.05349800 -0.12100001 0.28547400
v 0.04684000 -0.12096901 0.26971200
v 0.04310500 -0.12100001 0.27503699
v 0.02870500 -0.12085701 0.26096799
v 0.02668100 -0.12100001 0.26806899
v 0.00662200 -0.12097501 0.25981301
v 0.00695600 -0.12100001 0.26689499
v -0.01067000 -0.12096801 0.26622199
v -0.00756700 -0.12100001 0.27217099
v -0.02407100 -0.12088601 0.27659100
v -0.01900700 -0.12100001 0.28122800
v -0.02703200 -0.12100001 0.29377999
v -0.03404000 -0.12068502 0.29153999
v 0.06818500 -0.11731402 0.27807998
v 0.05969500 -0.12080002 0.28209999
v 0.07687600 -0.11192301 0.27603900
v 0.08633700 -0.10413201 0.29597699
v 0.05278100 -0.11817101 0.26039299
v 0.04684000 -0.12096901 0.26971200
v -0.01067000 -0.12096801 0.26622199
v -0.03090200 -0.11799501 0.26840600
v -0.01486200 -0.11831201 0.25685200
v -0.02407100 -0.12088601 0.27659100
v 0.00662200 -0.12097501 0.25981301
v 0.00716400 -0.11854001 0.24948500
v 0.02870500 -0.12085701 0.26096799
v 0.03160800 -0.11846801 0.25147399
v -0.04006600 -0.11403901 0.28003299
v -0.03404000 -0.12068502 0.29153999
v 0.03379100 -0.11367100 -0.04776200
v 0.05071000 -0.11382200 -0.02907401
v 0.03056300 -0.11714700 -0.03787100
v 0.04278200 -0.11730000 -0.02332300
v 0.04853000 -0.11743500 0.00024999
v 0.05890100 -0.11392400 -0.00274900
v -0.05551700 -0.11380200 -0.01847701
v -0.03569800 -0.11715500 -0.03306900
v -0.04639500 -0.11727500 -0.01544200
v -0.04266400 -0.11346100 -0.04075201
v -0.05914600 -0.11371400 0.00819899
v -0.04825300 -0.11744100 0.00723099
v 0.01967900 -0.11720900 -0.02227401
v 0.01369100 -0.11703500 -0.04687800
v 0.01462700 -0.11344599 -0.05709401
v 0.02363800 -0.11732500 0.00218799
v -0.02315500 -0.11722000 -0.01891001
v -0.02060500 -0.11704200 -0.04406500
v -0.02429300 -0.11340900 -0.05390300
v -0.02361300 -0.11733000 0.00618299
v -0.00403400 -0.11328400 -0.05843400
v -0.00332600 -0.11700599 -0.04829401
v -0.00171700 -0.11711800 -0.02132300
v 0.00001800 -0.11722500 0.00490599
v 0.06126100 -0.11364500 0.02052100
v 0.05076300 -0.11739900 0.02105600
v 0.06386200 -0.11327500 0.05926499
v 0.05348000 -0.11732700 0.06011699
v 0.02620300 -0.11741700 0.02906600
v 0.02861100 -0.11753200 0.06361500
v 0.00187100 -0.11734100 0.03333200
v 0.00395300 -0.11747700 0.06672299
v -0.02253500 -0.11744000 0.03355300
v -0.02048300 -0.11755301 0.06756799
v -0.04736700 -0.11746200 0.02913499
v -0.04417600 -0.11749900 0.06736200
v -0.05907100 -0.11300300 0.02990300
v -0.05645500 -0.11294300 0.06791999
v 0.05608900 -0.11722000 0.09958799
v 0.06578000 -0.11331501 0.09833200
v 0.06837800 -0.11280300 0.13715000
v 0.05823500 -0.11727901 0.13775999
v 0.03080000 -0.11756201 0.10098999
v 0.03292400 -0.11761001 0.13861300
v 0.00595500 -0.11762100 0.10292399
v 0.00774800 -0.11776201 0.13965299
v -0.01863700 -0.11756000 0.10436300
v -0.01688900 -0.11757301 0.14199499
v -0.04202400 -0.11750100 0.10649400
v -0.03952300 -0.11750200 0.14383800
v -0.05441600 -0.11229101 0.10805899
v -0.05180100 -0.11243401 0.14459100
v 0.06381200 -0.11749001 0.24031700
v 0.07399900 -0.11268701 0.23939299
v 0.06034300 -0.11730301 0.17348499
v 0.07052600 -0.11265101 0.17304199
v 0.06272800 -0.11720901 0.20747099
v 0.07269100 -0.11238001 0.20675300
v 0.03954200 -0.11799101 0.23433999
v 0.03486800 -0.11776201 0.17462000
v 0.03673000 -0.11789401 0.20604799
v 0.00980500 -0.11811301 0.23249000
v 0.00903000 -0.11789601 0.17499899
v 0.00923100 -0.11801401 0.20614500
v -0.01821600 -0.11785301 0.23970100
v -0.01547900 -0.11771901 0.17766900
v -0.01595500 -0.11783901 0.21049499
v -0.03468700 -0.11705801 0.25324800
v -0.03810800 -0.11749501 0.17980299
v -0.03657200 -0.11727201 0.21596400
v -0.04398500 -0.11174901 0.25733399
v -0.04936500 -0.11243501 0.18118500
v -0.04638800 -0.11226601 0.22241400
v -0.05160200 -0.10473801 0.28792899
v -0.05280100 -0.10495101 0.25804701
v -0.05484100 -0.10520201 0.22312499
v -0.05758000 -0.10496201 0.18203000
v -0.06015200 -0.10440901 0.14504900
v -0.05484100 -0.10520201 0.22312499
v -0.05840900 -0.09070501 0.18255800
v -0.05758000 -0.10496201 0.18203000
v -0.05589500 -0.09060601 0.22372099
v -0.06233400 -0.10457801 0.10816899
v -0.06463600 -0.10481400 0.06845299
v -0.06692600 -0.10487500 0.03049599
v -0.06233400 -0.10457801 0.10816899
v -0.06015200 -0.10440901 0.14504900
v -0.06070900 -0.09055801 0.14502400
v -0.06297300 -0.09063200 0.10797200
v -0.06536800 -0.09055300 0.06885000
v -0.06463600 -0.10481400 0.06845299
v -0.06803500 -0.10437600 0.00858500
v -0.06469200 -0.10455900 -0.02198200
v -0.06760200 -0.09055200 0.03044800
v -0.06692600 -0.10487500 0.03049599
v -0.06862000 -0.09081900 0.00890900
v -0.06803500 -0.10437600 0.00858500
v -0.06565900 -0.09067200 -0.02179700
v -0.06469200 -0.10455900 -0.02198200
v -0.02962900 -0.10388000 -0.06194101
v -0.04890800 -0.10437999 -0.04787400
v -0.04890800 -0.10437999 -0.04787400
v -0.04985700 -0.09082100 -0.04809601
v -0.00510900 -0.10458100 -0.06785001
v -0.02978700 -0.09062500 -0.06260700
v -0.02962900 -0.10388000 -0.06194101
v 0.01471100 -0.10509900 -0.06656401
v -0.00529500 -0.09057200 -0.06850300
v -0.00510900 -0.10458100 -0.06785001
v 0.03567400 -0.10480600 -0.05851200
v 0.01492500 -0.09057200 -0.06752200
v 0.01471100 -0.10509900 -0.06656401
v 0.05861500 -0.10434000 -0.03519300
v 0.03567400 -0.10480600 -0.05851200
v 0.03617900 -0.09068900 -0.05916200
v 0.07002100 -0.10455200 0.01933800
v 0.06788700 -0.10407900 -0.00525900
v 0.05861500 -0.10434000 -0.03519300
v 0.06862800 -0.09065900 -0.00512900
v 0.06788700 -0.10407900 -0.00525900
v 0.05939900 -0.09062700 -0.03568700
v 0.08554800 -0.10447801 0.27376601
v 0.08355100 -0.10446901 0.23921099
v 0.08170000 -0.10397501 0.20619699
v 0.07964400 -0.10396001 0.17234799
v 0.07748200 -0.10381900 0.13638900
v 0.07496000 -0.10448701 0.09756799
v 0.07263800 -0.10434900 0.05860399
v 0.07069900 -0.09057000 0.01909300
v 0.07002100 -0.10455200 0.01933800
v 0.07310200 -0.09066800 0.05771200
v 0.07263800 -0.10434900 0.05860399
v 0.07550700 -0.09062900 0.09695000
v 0.07496000 -0.10448701 0.09756799
v 0.07788400 -0.09081401 0.13591100
v 0.07748200 -0.10381900 0.13638900
v 0.08170000 -0.10397501 0.20619699
v 0.08418600 -0.09055701 0.23884099
v 0.08355100 -0.10446901 0.23921099
v 0.08216400 -0.09060801 0.20579400
v 0.07964400 -0.10396001 0.17234799
v 0.08011300 -0.09062201 0.17225299
v 0.06569000 -0.12084901 0.33463901
v 0.08444500 -0.10437401 0.31756600
v 0.08033000 -0.10450301 0.33805200
v 0.08627000 -0.09065901 0.27375799
v 0.08554800 -0.10447801 0.27376601
v 0.05383300 -0.12078002 0.38639900
v 0.06806300 -0.10443802 0.39041200
v -0.05371900 -0.10460602 0.30681198
v -0.03904800 -0.12087601 0.31015598
v -0.05062300 -0.12092202 0.36205100
v -0.06560300 -0.10439502 0.35825198
v -0.05370700 -0.12084501 0.37994500
v -0.06869100 -0.10433202 0.37955299
v -0.05079200 -0.12084002 0.39767500
v -0.06499500 -0.10440802 0.40221801
v -0.06560300 -0.10439502 0.35825198
v -0.06869100 -0.10433202 0.37955299
v -0.06933600 -0.09056702 0.37953299
v -0.06619500 -0.09055602 0.35814398
v -0.05368100 -0.10439902 0.42289701
v -0.04207300 -0.12078302 0.41354599
v -0.06499500 -0.10440802 0.40221801
v -0.06564300 -0.09058301 0.40220299
v -0.02870500 -0.12081402 0.42544901
v -0.03484500 -0.10426502 0.43904000
v -0.05368100 -0.10439902 0.42289701
v -0.05395200 -0.09063902 0.42332100
v 0.04813500 -0.12088502 0.40354800
v 0.06146300 -0.10436302 0.41087999
v 0.08033000 -0.10450301 0.33805200
v 0.06870700 -0.09054502 0.39060399
v 0.06806300 -0.10443802 0.39041200
v 0.08100400 -0.09056602 0.33777600
v 0.03789300 -0.12088701 0.41799300
v 0.04912600 -0.10442702 0.42816901
v 0.06146300 -0.10436302 0.41087999
v 0.06214700 -0.09054502 0.41077599
v 0.02344100 -0.12083302 0.42834499
v 0.02856200 -0.10444102 0.44236800
v 0.04979900 -0.09056102 0.42820400
v 0.04912600 -0.10442702 0.42816901
v 0.00928200 -0.10446302 0.44795098
v 0.00611600 -0.12081002 0.43341198
v 0.02943400 -0.09055802 0.44278401
v 0.02856200 -0.10444102 0.44236800
v -0.01175800 -0.12086802 0.43195700
v -0.01542300 -0.10423102 0.44641301
v 0.05678400 -0.12100101 0.30021101
v -0.01654500 -0.12100101 0.28366500
v -0.05455500 -0.09059302 0.30701598
v -0.05371900 -0.10460602 0.30681198
v 0.00857400 -0.09058202 0.44879001
v 0.00928200 -0.10446302 0.44795098
v -0.03484500 -0.10426502 0.43904000
v -0.03486900 -0.09059602 0.43975600
v -0.01542300 -0.10423102 0.44641301
v -0.01531600 -0.09077002 0.44699099
v -0.05238300 -0.09054801 0.28821900
v -0.05160200 -0.10473801 0.28792899
v -0.05381400 -0.09063001 0.25815999
v -0.05280100 -0.10495101 0.25804701
v 0.08633700 -0.10413201 0.29597699
v 0.08499100 -0.09065601 0.31720399
v 0.08444500 -0.10437401 0.31756600
v 0.08679200 -0.09056701 0.29609599
v -0.05840900 -0.09070501 0.18255800
v -0.05589500 -0.09060601 0.22372099
v -0.05341800 -0.09070501 0.18225300
v -0.05090400 -0.09060601 0.22341700
v -0.06070900 -0.09055801 0.14502400
v -0.05571900 -0.09055801 0.14471900
v -0.06297300 -0.09063200 0.10797200
v -0.05798200 -0.09063200 0.10766700
v -0.06536800 -0.09055300 0.06885000
v -0.06037700 -0.09055300 0.06855200
v -0.06760200 -0.09055200 0.03044800
v -0.06260900 -0.09055200 0.03018500
v -0.06862000 -0.09081900 0.00890900
v -0.06760200 -0.09055200 0.03044800
v -0.06360800 -0.09081900 0.00903200
v -0.06260900 -0.09055200 0.03018500
v -0.06565900 -0.09067200 -0.02179700
v -0.06862000 -0.09081900 0.00890900
v -0.06079100 -0.09067200 -0.02019100
v -0.06360800 -0.09081900 0.00903200
v -0.04985700 -0.09082100 -0.04809601
v -0.04609800 -0.09082100 -0.04464400
v -0.04609800 -0.09082100 -0.04464400
v -0.02978700 -0.09062500 -0.06260700
v -0.04985700 -0.09082100 -0.04809601
v -0.02765700 -0.09062500 -0.05797700
v -0.02765700 -0.09062500 -0.05797700
v -0.00529500 -0.09057200 -0.06850300
v -0.02978700 -0.09062500 -0.06260700
v -0.00482100 -0.09057100 -0.06347500
v 0.01386100 -0.09057100 -0.06256801
v 0.01492500 -0.09057200 -0.06752200
v 0.03617900 -0.09068900 -0.05916200
v 0.03336700 -0.09068800 -0.05489600
v 0.05939900 -0.09062700 -0.03568700
v 0.05497200 -0.09062700 -0.03305300
v 0.06862800 -0.09065900 -0.00512900
v 0.06369000 -0.09065900 -0.00418300
v 0.07069900 -0.09057000 0.01909300
v 0.06571300 -0.09057000 0.01946100
v 0.07310200 -0.09066800 0.05771200
v 0.06811200 -0.09066800 0.05802000
v 0.07550700 -0.09062900 0.09695000
v 0.07051700 -0.09062900 0.09725500
v 0.07788400 -0.09081401 0.13591100
v 0.07289300 -0.09081401 0.13621600
v 0.07512200 -0.09062201 0.17255899
v 0.07788400 -0.09081401 0.13591100
v 0.07289300 -0.09081401 0.13621600
v 0.08011300 -0.09062201 0.17225299
v 0.07512200 -0.09062201 0.17255899
v 0.08216400 -0.09060801 0.20579400
v 0.08011300 -0.09062201 0.17225299
v 0.07717400 -0.09060801 0.20609900
v 0.07919500 -0.09055701 0.23914200
v 0.08418600 -0.09055701 0.23884099
v 0.08127300 -0.09065901 0.27396601
v 0.08627000 -0.09065901 0.27375799
v 0.08178700 -0.09056701 0.29594099
v 0.08679200 -0.09056701 0.29609599
v 0.08499100 -0.09065601 0.31720399
v 0.08003200 -0.09065601 0.31651398
v 0.08100400 -0.09056602 0.33777600
v 0.07611300 -0.09056602 0.33673301
v 0.06388600 -0.09054502 0.38926100
v 0.06870700 -0.09054502 0.39060399
v 0.05762700 -0.09054502 0.40850600
v 0.06214700 -0.09054502 0.41077599
v 0.04620500 -0.09056102 0.42462799
v 0.04979900 -0.09056102 0.42820400
v 0.02943400 -0.09055802 0.44278401
v 0.02722300 -0.09055802 0.43821701
v 0.00857400 -0.09058202 0.44879001
v 0.00805400 -0.09058202 0.44373598
v 0.00805400 -0.09058202 0.44373598
v -0.01531600 -0.09077002 0.44699099
v 0.00857400 -0.09058202 0.44879001
v -0.01424000 -0.09077102 0.44205701
v -0.03228900 -0.09059702 0.43537899
v -0.01531600 -0.09077002 0.44699099
v -0.01424000 -0.09077102 0.44205701
v -0.03486900 -0.09059602 0.43975600
v -0.03228900 -0.09059702 0.43537899
v -0.05395200 -0.09063902 0.42332100
v -0.03486900 -0.09059602 0.43975600
v -0.05001100 -0.09063902 0.42011600
v -0.06564300 -0.09058301 0.40220299
v -0.06084800 -0.09058301 0.40054100
v -0.06933600 -0.09056702 0.37953299
v -0.06427700 -0.09056702 0.37949299
v -0.06619500 -0.09055602 0.35814398
v -0.06127600 -0.09055602 0.35906401
v -0.05455500 -0.09059302 0.30701598
v -0.04961900 -0.09059302 0.30785998
v -0.05238300 -0.09054801 0.28821900
v -0.04737000 -0.09054801 0.28838801
v -0.05381400 -0.09063001 0.25815999
v -0.04882100 -0.09063001 0.25789100
v -0.05941400 -0.05997101 0.14246900
v -0.05940400 -0.06005201 0.14914700
v -0.05922200 -0.05702001 0.14560500
v -0.05972800 -0.06429001 0.14481000
v -0.05941400 0.05997099 0.14247000
v -0.05940400 0.06005199 0.14914701
v -0.05972800 0.06429000 0.14481001
v -0.05922300 0.05701999 0.14560500
v -0.05919600 -0.05344801 0.15190699
v -0.05911600 -0.05213101 0.14735800
v -0.05919600 0.05344799 0.15190700
v -0.05911500 0.05213099 0.14735800
v -0.05911200 0.04389799 0.15238400
v -0.05908400 0.04388699 0.14786600
v -0.05911200 -0.04389801 0.15238400
v -0.05908400 -0.04388701 0.14786599
v -0.05917900 -0.00000001 0.15204599
v -0.05909900 -0.00000001 0.14759900
v -0.06000000 0.06190799 0.13287701
v -0.06246400 0.06726899 0.10102500
v -0.06195700 0.06190799 0.10087300
v -0.06050400 0.06685499 0.13298101
v -0.06000000 -0.06190801 0.13287700
v -0.06246400 -0.06726900 0.10102500
v -0.06051000 -0.06685301 0.13298200
v -0.06195700 -0.06190800 0.10087300
v -0.06335300 0.06499300 0.08636400
v -0.06288300 0.05812600 0.08574701
v -0.06268500 0.06061700 0.08897500
v -0.06349100 0.06113699 0.08215800
v -0.06288200 -0.05812600 0.08574700
v -0.06333300 -0.06499800 0.08636000
v -0.06268500 -0.06061700 0.08897499
v -0.06349100 -0.06113700 0.08215800
v -0.06372600 0.05454900 0.07847701
v -0.06303000 0.05333000 0.08334900
v -0.06302900 -0.05333000 0.08334899
v -0.06371700 -0.05455000 0.07847500
v -0.06195800 0.05803800 0.10086600
v -0.06196300 0.05323199 0.10078400
v -0.06196300 -0.05323200 0.10078399
v -0.06195800 -0.05803800 0.10086599
v -0.06382200 0.04420000 0.07719300
v -0.06308000 0.04392300 0.08251900
v -0.05999200 0.04411600 0.13301800
v -0.05999700 0.05240299 0.13293500
v -0.06382200 -0.04420000 0.07719300
v -0.06308000 -0.04392301 0.08251900
v -0.05999200 -0.04411601 0.13301800
v -0.05999700 -0.05240301 0.13293500
v -0.06196300 0.04419900 0.10078400
v -0.06196300 -0.04419901 0.10078399
v -0.06379400 -0.00000000 0.07768600
v -0.06307500 -0.00000000 0.08260800
v -0.05998100 -0.00000001 0.13318400
v -0.06199900 -0.00000000 0.10020400
v -0.06237500 -0.06190800 0.09404800
v -0.06283800 -0.06677200 0.09335800
v -0.05999700 -0.05720901 0.13293500
v -0.06237500 0.06190800 0.09404800
v -0.06286400 0.06676299 0.09336100
v -0.05999700 0.05720899 0.13293500
v -0.05968900 -0.06117001 0.13795000
v -0.06001000 -0.06636000 0.13919200
v -0.05968900 0.06116999 0.13795001
v -0.06001000 0.06635999 0.13919200
v -0.05999500 -0.00000001 0.15752600
v -0.05998800 -0.04398901 0.15763500
v -0.05998800 0.04398899 0.15763501
v -0.06343800 -0.07186600 0.10123500
v -0.06148300 -0.07160500 0.13307200
v -0.06343800 0.07186599 0.10123501
v -0.06148300 0.07160499 0.13307201
v -0.06516100 -0.00000000 0.07291300
v -0.06516100 -0.04454100 0.07287900
v -0.06516100 0.04454100 0.07287900
v -0.06484800 -0.06428600 0.07818800
v -0.06448900 -0.06922301 0.08405500
v -0.06484800 0.06428600 0.07818800
v -0.06448900 0.06922300 0.08405500
v -0.06397600 -0.07164400 0.09243799
v -0.06397600 0.07164400 0.09243800
v -0.06508200 -0.05581100 0.07399700
v -0.06507500 0.05581100 0.07399500
v -0.06002700 -0.05478501 0.15699900
v -0.06002700 0.05478499 0.15699901
v -0.06027200 0.06313799 0.15300000
v -0.06062500 0.06849499 0.14723501
v -0.06104000 -0.07127301 0.14044700
v -0.06062300 -0.06849500 0.14723500
v -0.06104000 0.07127299 0.14044701
v -0.06027200 -0.06313701 0.15299500
v -0.05961700 -0.08878200 0.16370900
v -0.06062300 -0.06849500 0.14723500
v -0.06104000 -0.07127301 0.14044700
v -0.06104000 0.07127299 0.14044701
v -0.06062500 0.06849499 0.14723501
v -0.05961700 0.08878199 0.16370900
v -0.05936100 -0.04377301 0.16789000
v -0.05999500 -0.00000001 0.15752600
v -0.05998800 -0.04398901 0.15763500
v -0.05936200 -0.00000001 0.16785000
v -0.05831100 -0.04370101 0.16998300
v -0.05936200 -0.00000001 0.16785000
v -0.05936100 -0.04377301 0.16789000
v -0.05836800 -0.00000001 0.16989200
v -0.05936100 0.04377299 0.16789000
v -0.05998800 0.04398899 0.15763501
v -0.05831100 0.04370099 0.16998400
v -0.05936100 0.04377299 0.16789000
v -0.06002700 -0.05478501 0.15699900
v -0.05931700 -0.05166401 0.16847899
v -0.05931700 -0.05166401 0.16847899
v -0.05826300 -0.05133501 0.17051400
v -0.05932000 0.05166299 0.16848000
v -0.06002700 0.05478499 0.15699901
v -0.05827000 0.05133199 0.17052600
v -0.05932000 0.05166299 0.16848000
v -0.05922500 -0.05797501 0.17011900
v -0.05922500 0.05797499 0.17011900
v -0.05817800 -0.05682801 0.17220600
v -0.05922500 -0.05797501 0.17011900
v -0.05819600 0.05681499 0.17223400
v -0.05922500 0.05797499 0.17011900
v -0.06027200 -0.06313701 0.15299500
v -0.05895800 -0.06329701 0.17419600
v -0.06027200 0.06313799 0.15300000
v -0.05897100 0.06329499 0.17419900
v -0.05895800 -0.06329701 0.17419600
v -0.05791100 -0.06191601 0.17571100
v -0.05897100 0.06329499 0.17419900
v -0.05794300 0.06187899 0.17574801
v -0.05829400 -0.06979201 0.18525900
v -0.05865900 -0.06747001 0.17930500
v -0.05865900 0.06746999 0.17930501
v -0.05829900 0.06979299 0.18526100
v -0.05771500 -0.06563900 0.18028600
v -0.05865900 -0.06747001 0.17930500
v -0.05735300 -0.06775201 0.18576799
v -0.05829400 -0.06979201 0.18525900
v -0.05775700 0.06561399 0.18030200
v -0.05865900 0.06746999 0.17930501
v -0.05829900 0.06979299 0.18526100
v -0.05741000 0.06771399 0.18578101
v -0.05791400 -0.07051501 0.19146700
v -0.05704400 -0.06842700 0.19144499
v -0.05709000 0.06839699 0.19144801
v -0.05791400 0.07051499 0.19146701
v -0.05328800 -0.08355501 0.25064298
v -0.05352000 -0.07882601 0.24767699
v -0.05454600 -0.08016301 0.24618899
v -0.05440100 -0.08442601 0.24874399
v -0.05455900 0.08016099 0.24619200
v -0.05328800 0.08355499 0.25064299
v -0.05440100 0.08442599 0.24874400
v -0.05354800 0.07879699 0.24771300
v -0.05380400 -0.07520301 0.24389100
v -0.05479300 -0.07682301 0.24258199
v -0.05384800 0.07517899 0.24391400
v -0.05479400 0.07681999 0.24256601
v -0.05405800 -0.07206301 0.23957100
v -0.05503700 -0.07406801 0.23859700
v -0.05503700 0.07406799 0.23859901
v -0.05411000 0.07203299 0.23959400
v -0.05440800 -0.06940101 0.23376000
v -0.05535300 -0.07145401 0.23331600
v -0.05535300 0.07145399 0.23331601
v -0.05446800 0.06936099 0.23377501
v -0.05574100 -0.08879701 0.22707700
v -0.05535300 -0.07145401 0.23331600
v -0.05573800 -0.07049901 0.22675399
v -0.05503700 -0.07406801 0.23859700
v -0.05574100 0.08879699 0.22707701
v -0.05535300 0.07145399 0.23331601
v -0.05503700 0.07406799 0.23859901
v -0.05575700 0.07049499 0.22675500
v -0.05573800 -0.07049901 0.22675399
v -0.05481700 -0.06844701 0.22667700
v -0.05486300 0.06837799 0.22668100
v -0.05575700 0.07049499 0.22675500
v -0.05333400 -0.08879301 0.25124898
v -0.05438600 -0.08879601 0.24920199
v -0.05333400 0.08879299 0.25124899
v -0.05438600 0.08879599 0.24920200
v -0.05438600 -0.08879601 0.24920199
v -0.05454600 -0.08016301 0.24618899
v -0.05440100 -0.08442601 0.24874399
v -0.05479300 -0.07682301 0.24258199
v -0.05438600 0.08879599 0.24920200
v -0.05455900 0.08016099 0.24619200
v -0.05440100 0.08442599 0.24874400
v -0.05479400 0.07681999 0.24256601
v -0.06448900 -0.06922301 0.08405500
v -0.06484800 -0.06428600 0.07818800
v -0.06580500 -0.08868701 0.06254000
v -0.06580500 0.08868700 0.06254001
v -0.06484800 0.06428600 0.07818800
v -0.06448900 0.06922300 0.08405500
v -0.06516100 -0.04454100 0.07287900
v -0.06516100 -0.00000000 0.07291300
v -0.06580400 -0.04449400 0.06254799
v -0.06580400 -0.00000000 0.06255000
v -0.06580400 0.04449400 0.06254800
v -0.06516100 0.04454100 0.07287900
v -0.06580400 -0.04449400 0.06254799
v -0.06519900 -0.00000000 0.06061100
v -0.06510200 -0.04450400 0.06044500
v -0.06580400 -0.00000000 0.06255000
v -0.06580400 0.04449400 0.06254800
v -0.06510200 0.04450400 0.06044500
v -0.06298100 -0.04450000 0.05936000
v -0.06294400 -0.00000000 0.05935800
v -0.06298100 0.04450000 0.05936000
v -0.05788700 -0.08878301 0.19199700
v -0.05791400 -0.07051501 0.19146700
v -0.06147000 -0.08880100 0.13342100
v -0.06148300 -0.07160500 0.13307200
v -0.06147000 0.08880099 0.13342101
v -0.06148300 0.07160499 0.13307201
v -0.06341100 -0.08878100 0.10167899
v -0.06343800 -0.07186600 0.10123500
v -0.06341100 0.08878099 0.10167900
v -0.06343800 0.07186599 0.10123501
v -0.06508200 -0.05581100 0.07399700
v -0.06397600 -0.07164400 0.09243799
v -0.06507500 0.05581100 0.07399500
v -0.06397600 0.07164400 0.09243800
v -0.06580500 -0.08868701 0.06254000
v -0.06506600 -0.08868201 0.06038400
v -0.06580500 0.08868700 0.06254001
v -0.06506600 0.08868200 0.06038401
v -0.06301000 -0.08868500 0.05936500
v -0.06301000 0.08868500 0.05936500
v -0.05438600 -0.08879601 0.24920199
v -0.05574100 -0.08879701 0.22707700
v -0.05389000 -0.08930001 0.24916599
v -0.05526400 -0.08929601 0.22702300
v -0.05311900 -0.08930001 0.25076401
v -0.05124900 -0.08930001 0.25149598
v -0.05121200 -0.08873601 0.25200000
v -0.05333400 -0.08879301 0.25124898
v -0.05333400 0.08879299 0.25124899
v -0.05124900 0.08919999 0.25149599
v -0.05311900 0.08919999 0.25076402
v -0.05121200 0.08873399 0.25199300
v -0.05438600 0.08879599 0.24920200
v -0.05388900 0.08919999 0.24916600
v -0.05788700 -0.08878301 0.19199700
v -0.05738500 -0.08930001 0.19195100
v -0.05961700 -0.08878200 0.16370900
v -0.05911700 -0.08930001 0.16367200
v -0.06147000 -0.08880100 0.13342100
v -0.06098900 -0.08929700 0.13336299
v -0.05911700 0.08929999 0.16367200
v -0.06097200 0.08919999 0.13336200
v -0.06147000 0.08880099 0.13342101
v -0.05961700 0.08878199 0.16370900
v -0.05788700 0.08878299 0.19199701
v -0.05738500 0.08929999 0.19195101
v -0.05788700 0.08878299 0.19199701
v -0.05791400 0.07051499 0.19146701
v -0.05526400 0.08929599 0.22702301
v -0.05574100 0.08879699 0.22707701
v -0.06341100 -0.08878100 0.10167899
v -0.06292300 -0.08929801 0.10165599
v -0.06291200 0.08919999 0.10165500
v -0.06341100 0.08878099 0.10167900
v -0.06580500 -0.08868701 0.06254000
v -0.06531200 -0.08929900 0.06252899
v -0.06468600 -0.08930000 0.06070700
v -0.06506600 -0.08868201 0.06038400
v -0.06530500 0.08919999 0.06252800
v -0.06580500 0.08868700 0.06254001
v -0.06506600 0.08868200 0.06038401
v -0.06468600 0.08919999 0.06070700
v -0.06301000 -0.08868500 0.05936500
v -0.06297700 -0.08930000 0.05988400
v -0.06301000 0.08868500 0.05936500
v -0.06297700 0.08919999 0.05988400
v -0.05121200 -0.08873601 0.25200000
v -0.05104000 -0.08336901 0.25127801
v -0.05121200 0.08873399 0.25199300
v -0.05103900 0.08336099 0.25130600
v -0.05117900 -0.07827601 0.24814699
v -0.05117600 0.07823299 0.24819701
v -0.05148900 -0.07458901 0.24435399
v -0.05148600 0.07453199 0.24440401
v -0.05184700 -0.07131201 0.23983700
v -0.05184400 0.07123999 0.23988600
v -0.05221200 -0.06857301 0.23381100
v -0.05221200 0.06857299 0.23381101
v -0.05277100 -0.06761501 0.22657200
v -0.05279000 0.06751899 0.22657501
v -0.05496200 -0.06754701 0.19124700
v -0.05498000 0.06745199 0.19125501
v -0.05616700 -0.00000001 0.17065200
v -0.05618000 -0.04370201 0.17070299
v -0.05618000 0.04370199 0.17070601
v -0.05613400 -0.05132001 0.17123700
v -0.05613400 0.05131999 0.17123701
v -0.05521400 -0.06689101 0.18573200
v -0.05521300 0.06679899 0.18575800
v -0.05554000 -0.06495201 0.18071499
v -0.05554000 0.06495199 0.18071500
v -0.05583800 -0.06132001 0.17614799
v -0.05583800 0.06131999 0.17614800
v -0.05601000 -0.05660301 0.17291100
v -0.05600900 0.05658499 0.17295000
v -0.06298100 -0.04450000 0.05936000
v -0.05304400 -0.00000000 0.05875300
v -0.05306100 -0.04470100 0.05875400
v -0.06294400 -0.00000000 0.05935800
v -0.06298100 0.04450000 0.05936000
v -0.05306100 0.04470100 0.05875400
v -0.06301000 -0.08868500 0.05936500
v -0.05301900 -0.08869200 0.05875099
v -0.06301000 0.08868500 0.05936500
v -0.05301900 0.08869200 0.05875100
v -0.05301900 -0.08869200 0.05875099
v -0.05298300 -0.08930000 0.05926299
v -0.05301900 0.08869200 0.05875100
v -0.05298300 0.08930000 0.05926300
v -0.06098900 -0.08929700 0.13336299
v -0.06292300 -0.08929801 0.10165599
v -0.04855300 -0.08930000 0.13220499
v -0.05053400 -0.08930000 0.10054300
v -0.06291200 0.08919999 0.10165500
v -0.04855300 0.08929999 0.13220500
v -0.05053400 0.08929999 0.10054300
v -0.06097200 0.08919999 0.13336200
v -0.05911700 -0.08930001 0.16367200
v -0.04674900 -0.08930001 0.16245800
v -0.04674900 0.08929999 0.16245801
v -0.05911700 0.08929999 0.16367200
v -0.05738500 -0.08930001 0.19195100
v -0.04498100 -0.08930001 0.19067600
v -0.04498100 0.08929999 0.19067601
v -0.05738500 0.08929999 0.19195101
v -0.05526400 -0.08929601 0.22702300
v -0.04284100 -0.08930001 0.22586199
v -0.04284100 0.08929999 0.22586200
v -0.05526400 0.08929599 0.22702301
v -0.04126000 -0.08929801 0.25090301
v -0.04123000 -0.08879901 0.25139001
v -0.04126000 0.08929799 0.25090301
v -0.04123000 0.08879899 0.25139001
v -0.04123000 -0.08879901 0.25139001
v -0.05104000 -0.08336901 0.25127801
v -0.05121200 -0.08873601 0.25200000
v -0.04129000 -0.08335201 0.25050100
v -0.05103900 0.08336099 0.25130600
v -0.04129000 0.08335199 0.25050101
v -0.04123000 0.08879899 0.25139001
v -0.05121200 0.08873399 0.25199300
v -0.04150000 -0.07827901 0.24736799
v -0.05117900 -0.07827601 0.24814699
v -0.04150000 0.07827899 0.24736800
v -0.05117600 0.07823299 0.24819701
v -0.05148900 -0.07458901 0.24435399
v -0.04172800 -0.07450201 0.24357100
v -0.05148600 0.07453199 0.24440401
v -0.04172800 0.07450199 0.24357100
v -0.05184700 -0.07131201 0.23983700
v -0.04202400 -0.07121401 0.23900400
v -0.05184400 0.07123999 0.23988600
v -0.04202000 0.07113199 0.23904300
v -0.05221200 -0.06857301 0.23381100
v -0.04241600 -0.06852201 0.23282000
v -0.05221200 0.06857299 0.23381101
v -0.04241600 0.06852199 0.23282001
v -0.05277100 -0.06761501 0.22657200
v -0.04285500 -0.06767301 0.22518700
v -0.05279000 0.06751899 0.22657501
v -0.04285500 0.06767299 0.22518701
v -0.04621200 -0.04373701 0.17018699
v -0.04631100 -0.00010901 0.17004900
v -0.05618000 -0.04370201 0.17070299
v -0.05616700 -0.00000001 0.17065200
v -0.04621200 0.04373699 0.17018700
v -0.05618000 0.04370199 0.17070601
v -0.04618500 -0.05082901 0.17070400
v -0.05613400 -0.05132001 0.17123700
v -0.04618500 0.05082899 0.17070401
v -0.05613400 0.05131999 0.17123701
v -0.04607000 -0.05626501 0.17234900
v -0.05601000 -0.05660301 0.17291100
v -0.04607000 0.05626499 0.17234901
v -0.05600900 0.05658499 0.17295000
v -0.05583800 -0.06132001 0.17614799
v -0.04589800 -0.06107101 0.17560699
v -0.05583800 0.06131999 0.17614800
v -0.04589800 0.06107099 0.17560700
v -0.05554000 -0.06495201 0.18071499
v -0.04570100 -0.06482101 0.18026000
v -0.05554000 0.06495199 0.18071500
v -0.04570100 0.06482099 0.18026001
v -0.05521400 -0.06689101 0.18573200
v -0.04528300 -0.06681301 0.18531100
v -0.04528300 0.06681299 0.18531101
v -0.05521300 0.06679899 0.18575800
v -0.05496200 -0.06754701 0.19124700
v -0.04499600 -0.06750801 0.19085499
v -0.05498000 0.06745199 0.19125501
v -0.04499600 0.06740799 0.19086200
v -0.04629100 -0.00000001 0.16865000
v -0.04621200 0.04373699 0.17018700
v -0.04631100 -0.00010901 0.17004900
v -0.04628900 0.04374399 0.16867401
v -0.04628900 -0.04374401 0.16867401
v -0.04621200 -0.04373701 0.17018699
v -0.05304400 -0.00000000 0.05875300
v -0.05292900 0.04457500 0.06011800
v -0.05292800 -0.00000000 0.06012800
v -0.05306100 0.04470100 0.05875400
v -0.05306100 -0.04470100 0.05875400
v -0.05292900 -0.04457500 0.06011800
v -0.06531200 -0.08929900 0.06252899
v -0.05282900 -0.08930000 0.06198100
v -0.05282900 0.08930000 0.06198100
v -0.06530500 0.08919999 0.06252800
v -0.06297700 -0.08930000 0.05988400
v -0.06468600 -0.08930000 0.06070700
v -0.05298300 -0.08930000 0.05926299
v -0.06297700 0.08919999 0.05988400
v -0.06468600 0.08919999 0.06070700
v -0.05298300 0.08930000 0.05926300
v -0.04855300 -0.08930000 0.13220499
v -0.05053400 -0.08930000 0.10054300
v -0.05044200 -0.08774000 0.10076700
v -0.04850400 -0.08773701 0.13246099
v -0.05044200 0.08773999 0.10076701
v -0.04855300 0.08929999 0.13220500
v -0.04850400 0.08773700 0.13246100
v -0.05053400 0.08929999 0.10054300
v -0.05298300 -0.08930000 0.05926299
v -0.05301900 -0.08869200 0.05875099
v -0.05292700 -0.08773000 0.06014100
v -0.05292700 0.08773000 0.06014100
v -0.05301900 0.08869200 0.05875100
v -0.05298300 0.08930000 0.05926300
v -0.05282900 -0.08930000 0.06198100
v -0.05282900 0.08930000 0.06198100
v -0.04607000 -0.05626501 0.17234900
v -0.04593900 -0.06202201 0.17439399
v -0.04615300 -0.05695401 0.17089800
v -0.04589800 -0.06107101 0.17560699
v -0.04589800 0.06107099 0.17560700
v -0.04607000 0.05626499 0.17234901
v -0.04593900 0.06202199 0.17439400
v -0.04615300 0.05695399 0.17089801
v -0.04618500 -0.05082901 0.17070400
v -0.04625400 -0.05122601 0.16924900
v -0.04618500 0.05082899 0.17070401
v -0.04625400 0.05122599 0.16924900
v -0.04563800 -0.06600001 0.17932100
v -0.04570100 -0.06482101 0.18026000
v -0.04563800 0.06599999 0.17932101
v -0.04570100 0.06482099 0.18026001
v -0.04674900 -0.08930001 0.16245800
v -0.04665500 -0.08773901 0.16268500
v -0.04498100 -0.08930001 0.19067600
v -0.04494200 -0.08774301 0.19069700
v -0.04530900 -0.06815001 0.18470300
v -0.04494400 -0.06888301 0.19067099
v -0.04528300 -0.06681301 0.18531100
v -0.04499600 -0.06750801 0.19085499
v -0.04674900 0.08929999 0.16245801
v -0.04665500 0.08773899 0.16268501
v -0.04498100 0.08929999 0.19067601
v -0.04494200 0.08774299 0.19069700
v -0.04530900 0.06814999 0.18470301
v -0.04494400 0.06888299 0.19067100
v -0.04528300 0.06681299 0.18531101
v -0.04499600 0.06740799 0.19086200
v -0.04239100 -0.06977001 0.23240000
v -0.04283700 -0.06900601 0.22512100
v -0.04285500 -0.06767301 0.22518700
v -0.04241600 -0.06852201 0.23282000
v -0.04285500 0.06767299 0.22518701
v -0.04239100 0.06976999 0.23240000
v -0.04241600 0.06852199 0.23282001
v -0.04283700 0.06900599 0.22512101
v -0.05124900 -0.08930001 0.25149598
v -0.04143600 -0.08930001 0.24831900
v -0.04126000 -0.08929801 0.25090301
v -0.05311900 -0.08930001 0.25076401
v -0.04143600 0.08929999 0.24831900
v -0.05311900 0.08919999 0.25076402
v -0.05124900 0.08919999 0.25149599
v -0.04126000 0.08929799 0.25090301
v -0.05389000 -0.08930001 0.24916599
v -0.04123000 -0.08879901 0.25139001
v -0.04126000 -0.08929801 0.25090301
v -0.04131400 -0.08770001 0.25001201
v -0.05388900 0.08919999 0.24916600
v -0.04131400 0.08769999 0.25001201
v -0.04126000 0.08929799 0.25090301
v -0.04123000 0.08879899 0.25139001
v -0.04143600 -0.08930001 0.24831900
v -0.04129000 -0.08335201 0.25050100
v -0.04135500 -0.08380201 0.24934199
v -0.04143600 0.08929999 0.24831900
v -0.04126000 0.08929799 0.25090301
v -0.04135500 0.08380199 0.24934200
v -0.04129000 0.08335199 0.25050101
v -0.04279500 -0.08772301 0.22579899
v -0.04153300 -0.07915901 0.24643400
v -0.04150000 -0.07827901 0.24736799
v -0.04172800 -0.07450201 0.24357100
v -0.04176400 -0.07547401 0.24266299
v -0.04279500 0.08772299 0.22579900
v -0.04153300 0.07915899 0.24643401
v -0.04150000 0.07827899 0.24736800
v -0.04172800 0.07450199 0.24357100
v -0.04176400 0.07547399 0.24266300
v -0.04284100 -0.08930001 0.22586199
v -0.04203500 -0.07231501 0.23823100
v -0.04202400 -0.07121401 0.23900400
v -0.04284100 0.08929999 0.22586200
v -0.04203500 0.07231499 0.23823101
v -0.04202000 0.07113199 0.23904300
v -0.04697900 0.04374599 0.15739501
v -0.04701300 -0.00000001 0.15707099
v -0.04697900 -0.04374601 0.15739500
v -0.04823500 -0.00000001 0.15279800
v -0.04697900 0.04374599 0.15739501
v -0.04701300 -0.00000001 0.15707099
v -0.04833200 0.04395399 0.15297000
v -0.04833200 -0.04395401 0.15297000
v -0.04697900 -0.04374601 0.15739500
v -0.04699400 -0.05178101 0.15715500
v -0.04699400 0.05178099 0.15715501
v -0.04699400 -0.05178101 0.15715500
v -0.04835400 -0.05119601 0.15260100
v -0.04835100 0.05119599 0.15260001
v -0.04699400 0.05178099 0.15715501
v -0.04717400 -0.06178901 0.15420900
v -0.04717400 0.06178899 0.15420901
v -0.04852500 -0.05908001 0.14979700
v -0.04717400 -0.06178901 0.15420900
v -0.04851000 0.05907899 0.14979400
v -0.04717400 0.06178899 0.15420901
v -0.04748400 -0.06675000 0.14916099
v -0.04748400 0.06674999 0.14916100
v -0.04748400 -0.06675000 0.14916099
v -0.04877700 -0.06298101 0.14618100
v -0.04748400 0.06674999 0.14916100
v -0.04876300 0.06297899 0.14617801
v -0.04791600 -0.07086301 0.14207500
v -0.04791600 0.07086299 0.14207501
v -0.04791600 -0.07086301 0.14207500
v -0.04914000 -0.06603001 0.14014300
v -0.04912500 0.06602799 0.14014200
v -0.04791600 0.07086299 0.14207501
v -0.04850700 -0.07188801 0.13240699
v -0.04850700 -0.07188801 0.13240699
v -0.04960600 -0.06689401 0.13222000
v -0.04850700 0.07188799 0.13240700
v -0.04958400 0.06689000 0.13221801
v -0.04850700 0.07188799 0.13240700
v -0.05044100 -0.07172601 0.10081999
v -0.05043900 0.07172600 0.10082000
v -0.05044100 -0.07172601 0.10081999
v -0.05152600 -0.06689501 0.10087900
v -0.05150600 0.06689199 0.10087700
v -0.05043900 0.07172600 0.10082000
v -0.05103100 -0.07136600 0.09115100
v -0.05103100 0.07136599 0.09115100
v -0.05103100 -0.07136600 0.09115100
v -0.05204700 -0.06655401 0.09263500
v -0.05202900 0.06655100 0.09263400
v -0.05103100 0.07136599 0.09115100
v -0.05151900 -0.06859301 0.08330500
v -0.05151900 0.06859300 0.08330500
v -0.05151900 -0.06859301 0.08330500
v -0.05240900 -0.06477201 0.08650100
v -0.05239500 0.06476999 0.08650101
v -0.05151900 0.06859300 0.08330500
v -0.05193400 -0.06229300 0.07638100
v -0.05276900 -0.05966300 0.08079700
v -0.05193400 -0.06229300 0.07638100
v -0.05193400 0.06229300 0.07638100
v -0.05276200 0.05966300 0.08079800
v -0.05193400 0.06229300 0.07638100
v -0.05213800 -0.05355000 0.07304600
v -0.05213800 0.05355000 0.07304600
v -0.05213800 -0.05355000 0.07304600
v -0.05294700 -0.05221600 0.07771600
v -0.05213800 0.05355000 0.07304600
v -0.05294500 0.05221600 0.07771600
v -0.05217200 -0.04451300 0.07249000
v -0.05217200 -0.04451300 0.07249000
v -0.05296800 -0.04442900 0.07704500
v -0.05217200 0.04451300 0.07249000
v -0.05296800 0.04442900 0.07704500
v -0.05217200 0.04451300 0.07249000
v -0.05216200 -0.00000000 0.07281200
v -0.05216200 -0.00000000 0.07281200
v -0.05288700 -0.00000000 0.07731200
v -0.05291300 0.05662700 0.08494700
v -0.05263500 0.06110200 0.08946900
v -0.05291300 -0.05662701 0.08494699
v -0.05263500 -0.06110200 0.08946900
v -0.05303500 0.05060500 0.08295100
v -0.05303500 -0.05060500 0.08295100
v -0.05306300 0.04438000 0.08249200
v -0.05306300 -0.04438001 0.08249200
v -0.05307000 -0.00000000 0.08237300
v -0.05193200 0.06217899 0.10096300
v -0.05001600 0.06205600 0.13226700
v -0.05193300 -0.06217900 0.10096299
v -0.05001900 -0.06205601 0.13226700
v -0.04919600 0.05677999 0.14568201
v -0.04934800 0.05928299 0.14321400
v -0.04919700 -0.05678001 0.14568200
v -0.04934900 -0.05928301 0.14321400
v -0.04906400 0.04416299 0.14786500
v -0.04907400 0.05051299 0.14767300
v -0.04907400 -0.05051301 0.14767299
v -0.05001000 -0.05650700 0.13240900
v -0.05195900 -0.05057401 0.10054900
v -0.05000400 -0.05028101 0.13249799
v -0.05195300 -0.05659600 0.10063600
v -0.05197100 0.04441100 0.10033900
v -0.05195900 0.05057400 0.10054900
v -0.04906400 -0.04416301 0.14786500
v -0.05197100 -0.04441100 0.10033900
v -0.05001300 0.04427299 0.13234501
v -0.05000500 0.05028099 0.13249800
v -0.05001400 -0.04426700 0.13233900
v -0.04907800 -0.00000001 0.14765300
v -0.05198000 -0.00000000 0.10019700
v -0.05000600 -0.00005001 0.13247800
v -0.04963800 0.06162899 0.13849001
v -0.05001000 0.05650899 0.13241001
v -0.04963800 -0.06162901 0.13849000
v -0.05195400 0.05659600 0.10063600
v -0.05236200 0.06190700 0.09395700
v -0.05236200 -0.06190700 0.09395700
f 1 2 3
f 2 1 4
f 4 5 6
f 5 4 1
f 7 8 9
f 9 8 10
f 10 11 9
f 2 12 3
f 12 2 13
f 12 13 14
f 14 13 15
f 14 15 16
f 16 15 17
f 18 19 20
f 16 17 20
f 20 17 18
f 21 22 23
f 22 21 24
f 25 26 27
f 27 28 25
f 23 29 30
f 29 23 22
f 30 31 32
f 31 30 29
f 33 32 31
f 32 33 34
f 35 34 33
f 34 35 36
f 35 37 38
f 35 38 36
f 39 37 40
f 37 39 38
f 40 41 39
f 41 40 42
f 43 41 42
f 43 42 44
f 28 45 25
f 45 28 46
f 46 43 44
f 46 44 45
f 21 47 48
f 48 24 21
f 47 49 48
f 49 47 50
f 51 52 53
f 49 54 55
f 54 49 50
f 55 56 57
f 56 55 54
f 58 57 56
f 57 58 59
f 60 59 58
f 59 60 61
f 62 61 60
f 61 62 63
f 63 64 65
f 64 63 62
f 66 65 64
f 66 64 67
f 67 26 66
f 26 67 27
f 52 68 69
f 68 52 51
f 51 70 68
f 70 51 71
f 72 69 68
f 69 72 73
f 74 75 76
f 75 74 77
f 74 78 77
f 79 77 78
f 78 80 79
f 81 79 80
f 72 81 73
f 73 81 80
f 76 82 83
f 82 76 75
f 84 85 86
f 86 87 84
f 88 85 89
f 85 88 86
f 90 91 92
f 91 90 93
f 92 94 95
f 94 92 91
f 84 96 97
f 97 85 84
f 87 96 84
f 87 98 96
f 99 85 97
f 85 99 89
f 100 101 90
f 90 92 100
f 101 93 90
f 93 101 102
f 100 92 103
f 92 95 103
f 98 104 105
f 98 105 96
f 105 106 96
f 106 97 96
f 102 105 104
f 105 102 101
f 101 106 105
f 106 101 100
f 107 97 106
f 97 107 99
f 106 100 107
f 100 103 107
f 89 108 88
f 108 89 109
f 109 110 108
f 110 111 108
f 99 109 89
f 109 99 112
f 112 110 109
f 110 112 113
f 107 112 99
f 112 107 114
f 114 113 112
f 113 114 115
f 107 103 116
f 107 116 114
f 114 116 117
f 114 117 115
f 103 95 118
f 103 118 116
f 116 118 119
f 116 119 117
f 94 118 95
f 118 94 120
f 120 121 118
f 121 119 118
f 110 122 111
f 122 110 123
f 123 124 122
f 124 123 125
f 113 123 110
f 123 113 126
f 123 126 127
f 123 127 125
f 115 126 113
f 126 115 128
f 128 127 126
f 127 128 129
f 115 117 130
f 115 130 128
f 130 129 128
f 129 130 131
f 117 132 130
f 132 117 119
f 132 131 130
f 131 132 133
f 121 132 119
f 132 121 134
f 134 133 132
f 133 134 135
f 72 68 136
f 70 137 136
f 136 68 70
f 124 138 139
f 138 124 125
f 137 140 141
f 141 136 137
f 138 141 139
f 139 141 140
f 142 72 136
f 72 142 81
f 125 127 143
f 125 143 138
f 141 142 136
f 142 141 144
f 138 143 144
f 138 144 141
f 145 81 142
f 81 145 79
f 127 129 146
f 127 146 143
f 144 145 142
f 145 144 147
f 143 146 147
f 143 147 144
f 148 79 145
f 79 148 77
f 131 146 129
f 146 131 149
f 147 150 145
f 150 148 145
f 149 147 146
f 147 149 150
f 77 151 75
f 151 77 148
f 133 149 131
f 149 133 152
f 150 153 148
f 153 151 148
f 152 150 149
f 150 152 153
f 154 75 151
f 75 154 82
f 135 152 133
f 152 135 155
f 151 153 156
f 156 154 151
f 155 153 152
f 153 155 156
f 157 83 82
f 158 82 154
f 82 158 157
f 159 154 156
f 154 159 158
f 156 155 160
f 160 159 156
f 161 155 135
f 155 161 160
f 162 163 164
f 163 162 165
f 134 161 135
f 161 134 166
f 167 168 121
f 167 121 120
f 168 166 121
f 166 134 121
f 169 170 171
f 172 171 170
f 165 171 163
f 171 165 169
f 170 173 172
f 173 170 174
f 120 175 167
f 175 120 94
f 94 91 175
f 176 175 91
f 174 177 173
f 177 174 178
f 179 178 180
f 178 179 177
f 180 181 179
f 181 180 182
f 93 183 184
f 183 93 102
f 93 176 91
f 176 93 184
f 181 185 186
f 185 181 182
f 102 187 183
f 187 102 104
f 188 185 189
f 185 188 186
f 104 190 187
f 190 104 98
f 189 191 188
f 191 189 192
f 193 98 87
f 98 193 190
f 194 192 195
f 192 194 191
f 196 87 86
f 87 196 193
f 197 194 198
f 194 195 198
f 88 199 200
f 199 88 108
f 86 200 196
f 200 86 88
f 201 202 203
f 202 201 204
f 198 203 197
f 203 198 201
f 137 205 206
f 205 137 70
f 207 137 206
f 137 207 140
f 139 207 208
f 207 139 140
f 208 209 124
f 124 139 208
f 122 209 210
f 209 122 124
f 108 211 199
f 211 108 111
f 210 211 111
f 111 122 210
f 204 212 202
f 212 204 213
f 213 214 212
f 214 213 215
f 215 216 214
f 216 215 217
f 217 218 216
f 218 217 219
f 220 221 222
f 221 220 223
f 224 222 225
f 222 224 220
f 219 225 218
f 225 219 224
f 71 205 70
f 226 227 228
f 227 53 228
f 51 53 227
f 227 71 51
f 223 229 221
f 229 223 230
f 228 231 226
f 232 226 231
f 83 233 234
f 233 83 157
f 235 234 236
f 233 236 234
f 236 237 235
f 237 238 235
f 237 239 238
f 239 237 240
f 241 242 243
f 242 244 243
f 240 245 239
f 245 246 239
f 242 247 244
f 247 248 244
f 249 245 250
f 245 249 246
f 247 251 248
f 251 247 252
f 253 232 254
f 232 231 254
f 255 256 257
f 256 255 258
f 259 253 260
f 253 254 260
f 261 256 262
f 256 258 262
f 263 259 264
f 264 259 260
f 265 262 266
f 262 265 261
f 264 267 263
f 267 264 268
f 269 266 270
f 266 269 265
f 250 271 249
f 271 272 249
f 271 267 272
f 267 268 272
f 7 273 8
f 274 273 7
f 6 273 274
f 273 6 5
f 243 275 241
f 275 243 276
f 277 270 278
f 270 277 269
f 252 279 251
f 279 280 251
f 279 281 280
f 281 282 280
f 278 282 277
f 281 277 282
f 283 276 284
f 276 283 275
f 285 283 284
f 285 284 286
f 286 164 285
f 164 286 162
f 287 288 289
f 288 287 290
f 257 287 289
f 257 289 255
f 229 288 290
f 288 229 230
f 291 292 293
f 293 294 291
f 295 291 294
f 294 296 295
f 295 297 298
f 297 295 296
f 299 298 297
f 297 300 299
f 301 299 300
f 300 302 301
f 303 304 305
f 305 306 303
f 307 308 309
f 309 310 307
f 311 307 310
f 307 311 312
f 313 314 315
f 314 313 316
f 317 318 319
f 318 317 320
f 321 319 318
f 321 318 322
f 323 321 322
f 322 324 323
f 325 323 324
f 324 326 325
f 327 325 326
f 325 327 328
f 329 328 327
f 328 329 330
f 331 330 329
f 330 331 332
f 333 332 331
f 332 333 334
f 335 334 333
f 334 335 336
f 337 338 339
f 338 337 340
f 341 342 343
f 342 341 344
f 345 341 346
f 341 345 344
f 347 346 348
f 346 347 345
f 349 348 350
f 348 349 347
f 349 351 352
f 351 349 350
f 352 353 354
f 353 352 351
f 353 355 354
f 355 353 356
f 356 357 355
f 357 356 358
f 359 357 358
f 358 360 359
f 361 359 360
f 360 362 361
f 363 361 362
f 362 364 363
f 365 366 367
f 366 365 368
f 369 370 371
f 370 369 372
f 373 374 375
f 374 373 376
f 375 377 378
f 377 375 374
f 378 379 380
f 379 378 377
f 380 381 382
f 381 380 379
f 382 383 384
f 383 382 381
f 384 385 386
f 385 384 383
f 387 386 385
f 385 388 387
f 292 387 388
f 388 293 292
f 389 390 391
f 390 389 392
f 392 393 390
f 393 392 394
f 395 396 397
f 395 397 398
f 398 397 399
f 389 400 401
f 400 389 391
f 401 402 403
f 402 401 400
f 403 404 405
f 403 402 404
f 406 407 408
f 405 407 406
f 405 404 407
f 409 410 411
f 410 409 412
f 413 414 415
f 416 415 414
f 417 412 418
f 412 417 410
f 418 419 417
f 419 418 420
f 420 421 419
f 421 420 422
f 422 423 421
f 423 422 424
f 425 423 426
f 424 426 423
f 427 425 428
f 426 428 425
f 427 429 430
f 429 427 428
f 430 431 432
f 431 430 429
f 416 433 434
f 433 416 414
f 434 432 431
f 432 434 433
f 411 435 409
f 435 436 409
f 435 437 436
f 436 437 438
f 439 440 441
f 442 437 443
f 437 442 438
f 444 443 445
f 443 444 442
f 446 445 447
f 445 446 444
f 448 447 449
f 447 448 446
f 449 450 448
f 450 449 451
f 451 452 450
f 452 451 453
f 452 454 455
f 454 452 453
f 455 413 415
f 413 455 454
f 441 456 439
f 456 441 457
f 439 458 459
f 458 439 456
f 460 456 457
f 460 457 461
f 462 463 464
f 463 462 465
f 464 466 462
f 466 464 467
f 468 466 467
f 467 469 468
f 461 468 469
f 469 460 461
f 465 470 463
f 470 465 471
f 472 473 474
f 473 475 474
f 476 475 477
f 473 477 475
f 478 479 480
f 479 478 481
f 482 480 483
f 480 482 478
f 475 484 474
f 484 485 474
f 486 472 485
f 485 472 474
f 487 475 476
f 475 487 484
f 488 479 489
f 479 488 480
f 489 481 490
f 481 489 479
f 491 483 480
f 491 480 488
f 492 486 493
f 485 493 486
f 484 494 485
f 494 493 485
f 493 490 492
f 490 493 489
f 494 489 493
f 489 494 488
f 495 484 487
f 484 495 494
f 495 491 488
f 495 488 494
f 496 476 477
f 476 496 497
f 496 498 499
f 499 497 496
f 497 487 476
f 487 497 500
f 499 500 497
f 500 499 501
f 500 495 487
f 495 500 502
f 501 502 500
f 502 501 503
f 502 504 495
f 504 491 495
f 503 505 502
f 505 504 502
f 504 506 491
f 506 483 491
f 505 507 504
f 507 506 504
f 506 482 483
f 482 506 508
f 506 507 509
f 509 508 506
f 510 499 511
f 511 499 498
f 512 510 511
f 510 512 513
f 510 501 499
f 501 510 514
f 513 515 510
f 515 514 510
f 514 503 501
f 503 514 516
f 515 516 514
f 516 515 517
f 516 518 503
f 518 505 503
f 517 518 516
f 518 517 519
f 520 505 518
f 505 520 507
f 519 520 518
f 520 519 521
f 522 509 520
f 520 509 507
f 521 522 520
f 522 521 523
f 460 524 456
f 456 524 458
f 458 524 525
f 526 512 527
f 512 526 513
f 524 528 525
f 525 528 529
f 527 529 528
f 528 526 527
f 530 460 469
f 460 530 524
f 526 531 513
f 531 515 513
f 530 528 524
f 528 530 532
f 528 532 526
f 532 531 526
f 533 469 467
f 469 533 530
f 531 534 515
f 534 517 515
f 533 532 530
f 532 533 535
f 532 535 531
f 535 534 531
f 467 536 533
f 536 467 464
f 534 519 517
f 519 534 537
f 533 536 538
f 533 538 535
f 535 537 534
f 537 535 538
f 464 539 536
f 539 464 463
f 540 521 537
f 537 521 519
f 536 539 541
f 536 541 538
f 538 540 537
f 540 538 541
f 463 542 539
f 542 463 470
f 543 523 540
f 540 523 521
f 542 544 539
f 539 544 541
f 541 543 540
f 543 541 544
f 545 470 471
f 470 546 542
f 546 470 545
f 542 547 544
f 547 542 546
f 547 548 544
f 544 548 543
f 543 549 523
f 549 543 548
f 550 551 552
f 551 550 553
f 549 522 523
f 522 549 554
f 555 556 509
f 508 509 556
f 509 522 554
f 554 555 509
f 557 558 559
f 557 559 560
f 552 559 558
f 559 552 551
f 557 561 562
f 561 557 560
f 508 563 482
f 563 508 556
f 478 482 563
f 563 564 478
f 562 565 566
f 565 562 561
f 566 567 568
f 567 566 565
f 568 569 570
f 569 568 567
f 571 481 572
f 481 571 490
f 481 564 572
f 564 481 478
f 573 569 574
f 569 573 570
f 490 575 492
f 575 490 571
f 573 576 577
f 576 573 574
f 492 578 486
f 578 492 575
f 577 579 580
f 579 577 576
f 486 581 472
f 581 486 578
f 580 582 583
f 582 580 579
f 584 472 581
f 472 584 473
f 585 583 582
f 585 582 586
f 477 587 496
f 587 477 588
f 588 473 584
f 473 588 477
f 589 590 591
f 590 589 592
f 585 592 589
f 592 585 586
f 593 525 594
f 525 593 458
f 525 595 594
f 595 525 529
f 595 527 596
f 527 595 529
f 527 512 596
f 596 512 597
f 597 511 598
f 511 597 512
f 496 599 498
f 599 496 587
f 511 498 598
f 598 498 599
f 591 600 601
f 600 591 590
f 601 602 603
f 602 601 600
f 603 604 605
f 604 603 602
f 605 606 607
f 606 605 604
f 608 609 610
f 609 608 611
f 612 611 608
f 611 612 613
f 607 613 612
f 613 607 606
f 459 458 593
f 614 440 615
f 615 616 614
f 439 615 440
f 615 439 459
f 610 617 618
f 617 610 609
f 619 614 616
f 616 620 619
f 621 471 622
f 471 621 545
f 622 623 624
f 622 624 621
f 623 625 626
f 626 624 623
f 627 626 625
f 626 627 628
f 629 630 631
f 629 631 632
f 633 628 627
f 633 627 634
f 630 635 636
f 630 636 631
f 637 633 634
f 633 637 638
f 639 636 635
f 636 639 640
f 641 619 620
f 620 642 641
f 643 644 645
f 644 643 646
f 647 641 642
f 642 648 647
f 649 645 644
f 649 644 650
f 651 647 648
f 648 652 651
f 649 653 654
f 653 649 650
f 651 655 656
f 655 651 652
f 654 657 658
f 657 654 653
f 637 659 660
f 660 638 637
f 655 660 659
f 655 659 656
f 396 661 662
f 661 396 395
f 394 661 393
f 661 394 662
f 629 663 664
f 663 629 632
f 658 665 666
f 665 658 657
f 639 667 668
f 639 668 640
f 667 669 670
f 667 670 668
f 669 666 665
f 669 665 670
f 664 671 672
f 671 664 663
f 672 673 674
f 673 672 671
f 674 553 550
f 553 674 673
f 675 676 677
f 676 675 678
f 677 646 643
f 646 677 676
f 618 617 675
f 675 617 678
f 679 680 681
f 680 682 681
f 683 679 684
f 679 681 684
f 685 684 686
f 684 685 683
f 687 685 688
f 685 686 688
f 689 687 690
f 687 688 690
f 691 692 693
f 693 692 694
f 695 696 697
f 697 696 698
f 697 699 695
f 699 697 700
f 701 702 703
f 702 701 704
f 705 706 707
f 706 705 708
f 708 709 706
f 710 706 709
f 711 710 712
f 710 709 712
f 713 711 714
f 714 711 712
f 714 715 713
f 715 714 716
f 716 717 715
f 717 716 718
f 718 719 717
f 719 718 720
f 720 721 719
f 721 720 722
f 722 723 721
f 723 722 724
f 725 726 727
f 726 725 728
f 729 730 731
f 730 729 732
f 733 730 732
f 730 733 734
f 735 734 733
f 734 735 736
f 737 736 735
f 736 737 738
f 737 739 738
f 739 737 740
f 740 741 739
f 741 740 742
f 742 743 741
f 741 743 744
f 743 745 744
f 746 744 745
f 745 747 746
f 748 746 747
f 749 748 750
f 748 747 750
f 751 749 752
f 752 749 750
f 753 754 755
f 754 753 756
f 757 758 759
f 758 757 760
f 761 762 763
f 762 761 764
f 764 765 762
f 765 764 766
f 767 766 768
f 766 767 765
f 769 768 770
f 768 769 767
f 771 770 772
f 770 771 769
f 773 772 774
f 772 773 771
f 775 773 776
f 773 774 776
f 680 775 682
f 775 776 682
f 777 778 779
f 778 777 780
f 781 782 783
f 782 781 784
f 779 785 786
f 785 779 778
f 782 784 787
f 787 784 788
f 789 788 790
f 788 789 787
f 785 791 786
f 786 791 792
f 791 793 792
f 792 793 794
f 793 790 794
f 790 793 789
f 795 796 797
f 796 795 798
f 799 800 801
f 800 799 802
f 803 804 805
f 804 803 806
f 807 808 809
f 808 807 810
f 806 811 812
f 806 812 804
f 810 813 814
f 813 810 807
f 815 804 816
f 812 816 804
f 817 807 818
f 807 817 813
f 819 812 811
f 812 819 820
f 821 790 788
f 821 788 822
f 823 813 824
f 813 823 814
f 786 825 826
f 825 786 792
f 827 821 822
f 827 822 816
f 816 812 827
f 820 827 812
f 826 828 817
f 828 826 825
f 813 828 824
f 828 813 817
f 824 829 823
f 829 824 830
f 830 820 829
f 829 820 819
f 792 831 825
f 831 792 794
f 790 831 794
f 831 790 821
f 831 827 832
f 827 831 821
f 831 828 825
f 828 831 832
f 820 830 832
f 832 827 820
f 824 832 830
f 832 824 828
f 800 833 834
f 833 800 802
f 833 802 818
f 818 807 809
f 818 809 833
f 834 809 808
f 809 834 833
f 835 817 818
f 817 835 826
f 797 796 836
f 836 796 837
f 815 797 836
f 815 805 804
f 805 815 836
f 805 836 837
f 837 803 805
f 816 822 838
f 816 838 815
f 777 835 839
f 835 777 779
f 777 840 780
f 840 777 839
f 801 840 839
f 801 839 799
f 835 799 839
f 779 826 835
f 826 779 786
f 799 818 802
f 818 799 835
f 838 784 781
f 838 781 841
f 781 842 841
f 842 781 783
f 841 798 795
f 798 841 842
f 841 795 838
f 822 788 784
f 822 784 838
f 795 815 838
f 815 795 797
f 791 843 793
f 843 791 844
f 843 789 793
f 789 843 845
f 801 846 847
f 846 801 800
f 798 848 796
f 848 798 849
f 850 851 823
f 823 829 850
f 850 819 852
f 819 850 829
f 853 808 810
f 808 853 854
f 855 803 856
f 803 855 806
f 857 808 854
f 808 857 834
f 846 834 857
f 834 846 800
f 803 837 858
f 858 856 803
f 848 837 796
f 837 848 858
f 851 859 814
f 814 823 851
f 814 853 810
f 853 814 859
f 852 811 860
f 811 852 819
f 855 860 811
f 855 811 806
f 785 844 791
f 844 785 861
f 845 787 789
f 787 845 862
f 863 864 783
f 783 782 863
f 780 865 866
f 865 780 840
f 847 865 840
f 847 840 801
f 783 867 842
f 867 783 864
f 842 849 798
f 849 842 867
f 778 861 785
f 861 778 868
f 780 868 778
f 868 780 866
f 869 870 871
f 862 863 782
f 862 782 787
f 872 873 874
f 875 876 877
f 876 875 878
f 879 880 881
f 880 879 882
f 878 883 876
f 876 883 884
f 885 880 882
f 880 885 886
f 887 888 877
f 888 875 877
f 881 889 890
f 890 879 881
f 884 891 892
f 891 884 883
f 886 893 894
f 893 886 885
f 895 888 887
f 892 891 896
f 897 890 889
f 897 889 898
f 894 899 900
f 899 894 893
f 895 901 902
f 901 895 887
f 903 896 904
f 896 903 892
f 897 905 906
f 905 897 898
f 907 900 899
f 907 899 908
f 869 909 910
f 911 912 874
f 905 913 906
f 913 905 914
f 915 913 914
f 914 916 915
f 917 907 908
f 907 917 918
f 919 917 920
f 917 919 918
f 916 921 922
f 916 922 915
f 920 923 924
f 924 919 920
f 925 926 927
f 925 927 928
f 929 930 931
f 930 929 932
f 933 927 926
f 927 933 934
f 935 929 936
f 929 935 932
f 933 937 938
f 938 934 933
f 939 935 936
f 935 939 940
f 937 941 942
f 942 938 937
f 940 943 944
f 943 940 939
f 945 946 947
f 946 945 948
f 949 950 951
f 950 949 952
f 921 953 954
f 921 954 922
f 953 942 941
f 953 941 954
f 955 924 923
f 924 955 956
f 944 956 955
f 956 944 943
f 957 925 928
f 957 928 958
f 931 959 960
f 959 931 930
f 961 962 945
f 962 961 963
f 964 945 962
f 948 945 964
f 965 949 966
f 965 966 967
f 949 951 968
f 968 966 949
f 969 970 971
f 972 973 974
f 975 976 977
f 977 976 978
f 976 979 978
f 979 976 980
f 981 982 983
f 982 981 984
f 984 985 982
f 982 985 986
f 983 982 987
f 987 982 988
f 982 989 988
f 989 982 986
f 947 990 945
f 990 947 991
f 990 909 869
f 909 990 991
f 901 870 869
f 869 910 902
f 869 902 901
f 874 873 903
f 904 911 874
f 903 904 874
f 871 992 869
f 992 871 993
f 872 994 995
f 994 872 874
f 996 992 993
f 996 993 997
f 995 998 999
f 998 995 994
f 971 1000 977
f 1000 975 977
f 996 1001 971
f 1001 996 997
f 971 970 1000
f 1001 969 971
f 979 1002 972
f 1002 979 980
f 999 998 1003
f 998 972 1003
f 1002 973 972
f 972 974 1003
f 1004 983 1005
f 983 1004 981
f 985 1006 986
f 986 1006 1007
f 983 1008 1005
f 1008 983 987
f 986 1009 989
f 1009 986 1007
f 1010 1011 1012
f 1013 1012 1011
f 1014 1015 1016
f 1014 1016 1017
f 1017 1010 1014
f 1012 1014 1010
f 1018 1019 1020
f 1019 1018 1021
f 1022 1020 1023
f 1020 1022 1018
f 1013 1024 1025
f 1024 1013 1011
f 1024 1026 1025
f 1027 1025 1026
f 1027 1028 1029
f 1028 1027 1026
f 1030 1031 1032
f 1032 1033 1030
f 1033 1034 1035
f 1033 1035 1030
f 1036 912 1037
f 912 1036 874
f 952 1036 1037
f 1036 952 949
f 1038 1034 1039
f 1034 1038 1035
f 1023 1038 1039
f 1039 1022 1023
f 1029 1040 1041
f 1040 1029 1028
f 1031 1042 1043
f 1043 1032 1031
f 1041 1044 1045
f 1044 1041 1040
f 1044 1046 1045
f 1046 1044 1047
f 1048 1043 1042
f 1043 1048 1049
f 1050 1049 1051
f 1051 1049 1048
f 1046 1052 1053
f 1052 1046 1047
f 1051 1054 1050
f 1054 1051 1055
f 1056 925 957
f 925 1056 1057
f 930 1058 959
f 1058 930 1059
f 1057 926 925
f 926 1057 1060
f 932 1059 930
f 1059 932 1061
f 1062 926 1060
f 926 1062 933
f 935 1061 932
f 1061 935 1063
f 1064 933 1062
f 933 1064 937
f 935 1065 1063
f 1065 935 940
f 1066 937 1064
f 937 1066 941
f 940 1067 1065
f 1067 940 944
f 1068 941 1066
f 941 1068 954
f 944 1069 1067
f 1069 944 955
f 1068 1070 922
f 922 954 1068
f 1069 923 1071
f 923 1069 955
f 879 1072 882
f 1072 879 1073
f 1072 885 882
f 885 1072 1074
f 890 1073 879
f 1073 890 1075
f 1074 893 885
f 893 1074 1076
f 1070 1077 915
f 915 922 1070
f 1071 920 1078
f 920 1071 923
f 1079 915 1077
f 915 1079 913
f 920 1080 1078
f 1080 920 917
f 1081 913 1079
f 913 1081 906
f 917 1082 1080
f 1082 917 908
f 890 897 1083
f 1083 1075 890
f 1081 897 906
f 897 1081 1083
f 893 1084 899
f 1084 893 1076
f 899 1082 908
f 1082 899 1084
f 1085 1086 1087
f 1086 1085 1088
f 1089 1086 1088
f 1086 1089 1090
f 1091 1087 1092
f 1087 1091 1085
f 1089 1093 1090
f 1090 1093 1094
f 1053 1095 1096
f 1095 1053 1052
f 1097 1054 1055
f 1097 1055 1098
f 1099 1100 1101
f 1101 1100 1102
f 1103 1104 1105
f 1104 1103 1106
f 1107 1099 1108
f 1108 1099 1101
f 1106 1109 1104
f 1109 1106 1110
f 1111 1107 1112
f 1112 1107 1108
f 1110 1113 1109
f 1113 1110 1114
f 1115 1111 1116
f 1116 1111 1112
f 1114 1117 1113
f 1117 1114 1118
f 1119 1016 1015
f 1016 1119 1120
f 1021 1121 1019
f 1121 1021 1122
f 1123 1124 1125
f 1124 1123 1126
f 1127 1128 1129
f 1127 1129 1130
f 1124 1126 1131
f 1124 1131 1132
f 1133 1127 1134
f 1127 1133 1128
f 1135 1131 1136
f 1131 1135 1132
f 1133 1134 1137
f 1133 1137 1138
f 1139 1136 1140
f 1136 1139 1135
f 1138 1137 1141
f 1138 1141 1142
f 1143 1140 1144
f 1140 1143 1139
f 1142 1141 1145
f 1142 1145 1146
f 1147 1144 1148
f 1144 1147 1143
f 1145 1149 1146
f 1146 1149 1150
f 1151 1152 1153
f 1153 1152 1154
f 1152 1155 1154
f 1154 1155 1156
f 1157 1153 1158
f 1153 1157 1151
f 1156 1155 1159
f 1156 1159 1160
f 1157 1158 1161
f 1162 1161 1158
f 1160 1163 1164
f 1163 1160 1159
f 1161 1165 1166
f 1165 1161 1162
f 1163 1167 1164
f 1167 1163 1168
f 1166 1169 1170
f 1169 1166 1165
f 1167 1168 1171
f 1172 1171 1168
f 1170 1173 1174
f 1173 1170 1169
f 1175 1176 1172
f 1176 1171 1172
f 1177 1174 1173
f 1174 1177 1178
f 1177 1148 1178
f 1148 1177 1147
f 1179 1175 1180
f 1175 1179 1176
f 1149 1179 1150
f 1150 1179 1180
f 1181 1182 1183
f 1182 1181 1184
f 1185 1183 1186
f 1183 1185 1181
f 1187 1188 1189
f 1188 1187 1190
f 1191 1187 1192
f 1192 1187 1189
f 1102 1193 1194
f 1193 1102 1100
f 1105 1195 1196
f 1196 1103 1105
f 1197 1193 1198
f 1193 1197 1194
f 1197 1199 1194
f 1196 1200 1201
f 1196 1195 1200
f 1195 1202 1200
f 1203 1204 1205
f 1203 1205 1206
f 1207 1208 1209
f 1208 1207 1210
f 1211 1212 1213
f 1214 1215 1216
f 1213 1191 1192
f 1191 1213 1212
f 1217 1211 1213
f 1217 1205 1204
f 1205 1217 1213
f 1190 1214 1188
f 1190 1215 1214
f 1214 1216 1218
f 1218 1207 1214
f 1207 1218 1210
f 1219 1220 1221
f 1220 1219 1222
f 1223 1224 1225
f 1226 1225 1224
f 1227 1185 1186
f 1185 1227 1228
f 1228 1219 1221
f 1219 1228 1227
f 1229 1184 1230
f 1184 1229 1182
f 1224 1230 1226
f 1230 1224 1229
f 1231 1222 1232
f 1222 1231 1220
f 1233 1223 1225
f 1223 1233 1234
f 1235 1203 1206
f 1235 1206 1236
f 1237 1235 1236
f 1237 1236 1238
f 1236 1239 1238
f 1238 1239 1240
f 1236 1231 1239
f 1232 1239 1231
f 1239 1232 1241
f 1241 1240 1239
f 1240 1241 1242
f 1209 1243 1244
f 1243 1209 1208
f 1244 1245 1246
f 1245 1244 1243
f 1247 1246 1248
f 1246 1247 1244
f 1247 1233 1244
f 1247 1234 1233
f 1234 1247 1249
f 1249 1248 1250
f 1248 1249 1247
f 1251 1252 1253
f 1253 1254 1251
f 1242 1252 1240
f 1252 1242 1253
f 1255 1256 1257
f 1256 1255 1258
f 1250 1258 1255
f 1258 1250 1248
f 1259 1260 1261
f 1262 1260 1259
f 1263 1264 1265
f 1263 1265 1266
f 1260 1115 1116
f 1115 1260 1267
f 1262 1267 1260
f 1268 1269 1270
f 1118 1263 1117
f 1263 1118 1271
f 1263 1271 1264
f 1272 1273 1274
f 1270 1269 1275
f 1276 1270 1277
f 1270 1276 1268
f 1278 1279 1272
f 1280 1272 1281
f 1272 1274 1281
f 1238 1252 1282
f 1252 1238 1240
f 1276 1283 1284
f 1283 1276 1277
f 1285 1283 1286
f 1283 1285 1284
f 1258 1248 1246
f 1258 1246 1287
f 1281 1288 1280
f 1288 1281 1289
f 1289 1290 1288
f 1288 1290 1291
f 1237 1282 1292
f 1282 1237 1238
f 1282 1275 1292
f 1275 1282 1270
f 1282 1252 1251
f 1282 1251 1293
f 1282 1277 1270
f 1277 1282 1283
f 1286 1282 1293
f 1283 1282 1286
f 1286 1293 1294
f 1294 1285 1286
f 1254 1293 1251
f 1293 1254 1294
f 1245 1287 1246
f 1287 1245 1295
f 1295 1278 1287
f 1272 1287 1278
f 1287 1256 1258
f 1256 1287 1296
f 1287 1280 1288
f 1280 1287 1272
f 1287 1288 1291
f 1287 1291 1296
f 1291 1297 1296
f 1297 1291 1290
f 1297 1257 1296
f 1296 1257 1256
f 1181 1298 1184
f 1298 1181 1299
f 1300 1181 1185
f 1181 1300 1299
f 1301 1302 1303
f 1302 1301 1304
f 1305 1301 1306
f 1306 1301 1303
f 1228 1307 1185
f 1307 1300 1185
f 1228 1221 1307
f 1184 1308 1230
f 1308 1184 1298
f 1308 1226 1230
f 1309 1310 1306
f 1310 1305 1306
f 1302 1311 1312
f 1311 1302 1304
f 1307 1221 1313
f 1220 1313 1221
f 1236 1220 1231
f 1220 1236 1313
f 1314 1226 1308
f 1226 1314 1225
f 1314 1244 1225
f 1244 1233 1225
f 1315 1310 1309
f 1315 1309 1316
f 1312 1317 1318
f 1317 1312 1311
f 1319 1313 1236
f 1244 1314 1320
f 1315 1321 1322
f 1321 1315 1316
f 1323 1318 1317
f 1323 1317 1324
f 1325 1319 1236
f 1244 1320 1326
f 1322 1327 1328
f 1327 1322 1321
f 1329 1330 1324
f 1330 1323 1324
f 1236 1206 1325
f 1325 1206 1331
f 1332 1328 1327
f 1328 1332 1333
f 1209 1326 1334
f 1326 1209 1244
f 1329 1335 1336
f 1336 1330 1329
f 1205 1331 1206
f 1331 1205 1337
f 1334 1338 1207
f 1334 1207 1209
f 1339 1333 1332
f 1333 1339 1340
f 1335 1341 1342
f 1335 1342 1336
f 1205 1213 1343
f 1205 1343 1337
f 1344 1207 1338
f 1207 1344 1214
f 1339 1345 1346
f 1339 1346 1340
f 1347 1342 1341
f 1342 1347 1348
f 1349 1343 1213
f 1214 1344 1350
f 1345 1351 1352
f 1352 1346 1345
f 1353 1348 1347
f 1348 1353 1354
f 1355 1349 1213
f 1356 1352 1351
f 1356 1351 1357
f 1214 1350 1358
f 1354 1359 1360
f 1359 1354 1353
f 1361 1355 1213
f 1214 1358 1362
f 1356 1363 1364
f 1363 1356 1357
f 1365 1360 1359
f 1365 1359 1366
f 1213 1192 1361
f 1361 1192 1367
f 1364 1368 1369
f 1368 1364 1363
f 1188 1362 1370
f 1362 1188 1214
f 1371 1372 1366
f 1372 1365 1366
f 1367 1189 1373
f 1189 1367 1192
f 1369 1374 1375
f 1374 1369 1368
f 1370 1373 1189
f 1189 1188 1370
f 1371 1375 1374
f 1374 1372 1371
f 1353 1376 1359
f 1376 1353 1377
f 1378 1379 1352
f 1378 1352 1356
f 1359 1376 1366
f 1366 1376 1380
f 1378 1364 1381
f 1364 1378 1356
f 1382 1371 1380
f 1371 1366 1380
f 1381 1369 1383
f 1369 1381 1364
f 1383 1375 1384
f 1375 1383 1369
f 1382 1384 1375
f 1375 1371 1382
f 1385 1335 1386
f 1335 1385 1341
f 1333 1340 1387
f 1333 1387 1388
f 1324 1317 1389
f 1324 1389 1390
f 1391 1322 1392
f 1322 1391 1315
f 1304 1393 1394
f 1304 1394 1311
f 1317 1311 1394
f 1317 1394 1389
f 1395 1315 1391
f 1315 1395 1310
f 1396 1397 1398
f 1397 1396 1399
f 1380 1400 1382
f 1400 1380 1401
f 1395 1305 1310
f 1305 1395 1402
f 1381 1403 1397
f 1403 1381 1383
f 1393 1404 1405
f 1393 1405 1394
f 1401 1404 1400
f 1404 1401 1405
f 1398 1402 1395
f 1402 1398 1406
f 1397 1406 1398
f 1406 1397 1403
f 1304 1301 1407
f 1407 1393 1304
f 1305 1407 1301
f 1407 1305 1402
f 1408 1382 1400
f 1382 1408 1384
f 1383 1408 1403
f 1408 1383 1384
f 1409 1393 1407
f 1393 1409 1404
f 1406 1409 1402
f 1402 1409 1407
f 1409 1408 1404
f 1408 1400 1404
f 1406 1408 1409
f 1408 1406 1403
f 1335 1410 1386
f 1410 1335 1329
f 1411 1386 1410
f 1411 1390 1389
f 1390 1411 1410
f 1410 1329 1390
f 1329 1324 1390
f 1405 1389 1394
f 1389 1405 1411
f 1333 1412 1328
f 1412 1333 1388
f 1412 1388 1396
f 1396 1391 1392
f 1396 1392 1412
f 1392 1328 1412
f 1328 1392 1322
f 1391 1396 1398
f 1398 1395 1391
f 1377 1413 1376
f 1413 1377 1414
f 1377 1347 1414
f 1347 1377 1353
f 1414 1341 1385
f 1341 1414 1347
f 1414 1385 1413
f 1385 1411 1413
f 1411 1385 1386
f 1376 1401 1380
f 1401 1376 1413
f 1401 1411 1405
f 1411 1401 1413
f 1379 1399 1415
f 1399 1379 1378
f 1379 1346 1352
f 1346 1379 1415
f 1340 1346 1415
f 1340 1415 1387
f 1399 1387 1415
f 1387 1396 1388
f 1396 1387 1399
f 1378 1397 1399
f 1397 1378 1381

usemtl material_body_link2_1
v 0.07717400 0.09060797 0.20609902
v -0.05090400 0.09060596 0.22341701
v -0.05341800 0.09070497 0.18225302
v 0.07512200 0.09062197 0.17255901
v 0.06571300 0.09057000 0.01946102
v -0.06260900 0.09055200 0.03018501
v -0.06360800 0.09081900 0.00903201
v 0.06369000 0.09065900 -0.00418299
v 0.06811200 0.09066799 0.05802001
v -0.06037700 0.09055299 0.06855202
v 0.07051700 0.09062898 0.09725501
v -0.05798200 0.09063198 0.10766701
v 0.07289300 0.09081398 0.13621601
v -0.05571900 0.09055798 0.14471902
v 0.07919500 0.09055696 0.23914202
v -0.04882100 0.09062996 0.25789101
v -0.06127600 0.09055594 0.35906403
v 0.07611300 0.09056595 0.33673303
v 0.06388600 0.09054494 0.38926102
v -0.04961900 0.09059295 0.30786000
v 0.08003200 0.09065595 0.31651400
v -0.04737000 0.09054795 0.28838803
v -0.06427700 0.09056694 0.37949301
v 0.05762700 0.09054493 0.40850602
v -0.06079100 0.09067200 -0.02019099
v 0.05497200 0.09062701 -0.03305298
v -0.04609800 0.09082101 -0.04464398
v 0.03336700 0.09068801 -0.05489599
v 0.01386100 0.09057101 -0.06256799
v -0.02765700 0.09062501 -0.05797698
v -0.00482100 0.09057101 -0.06347498
v -0.06084800 0.09058293 0.40054102
v 0.04620500 0.09056093 0.42462800
v -0.05001100 0.09063893 0.42011602
v 0.02722300 0.09055793 0.43821703
v -0.03228900 0.09059693 0.43537901
v 0.00805400 0.09058193 0.44373600
v -0.01424000 0.09077093 0.44205703
v 0.08127300 0.09065896 0.27396603
v 0.08178700 0.09056695 0.29594101
v -0.01000000 0.12049993 0.42318301
v 0.00541700 0.12099993 0.42620703
v 0.00543300 0.12049993 0.42462101
v -0.01035200 0.12099993 0.42485603
v 0.02124500 0.12099993 0.42174902
v 0.02084900 0.12049993 0.42030301
v 0.03304400 0.12099993 0.41318103
v 0.03209100 0.12049993 0.41216602
v -0.02574400 0.12099993 0.41856801
v -0.02519500 0.12049993 0.41737803
v -0.03664100 0.12099993 0.40833603
v -0.03571800 0.12049993 0.40733503
v -0.04430000 0.12099994 0.39456101
v -0.04290700 0.12049993 0.39398502
v -0.04521600 0.12049994 0.38017901
v -0.04649400 0.12099994 0.38020601
v -0.04278900 0.12049994 0.36356102
v -0.04400400 0.12099994 0.36337702
v -0.03070900 0.12049995 0.31182401
v -0.03205200 0.12099995 0.31151702
v -0.02571100 0.12049995 0.29455702
v -0.02703200 0.12099995 0.29378002
v -0.01793600 0.12049995 0.28264203
v -0.01900700 0.12099995 0.28122803
v -0.00688000 0.12049995 0.27385803
v -0.00756700 0.12099996 0.27217101
v 0.00715400 0.12049995 0.26890602
v 0.00695600 0.12099996 0.26689502
v 0.02668100 0.12099996 0.26806902
v 0.02649100 0.12049995 0.26951202
v 0.04191500 0.12049995 0.27640002
v 0.04310500 0.12099995 0.27503701
v 0.05196200 0.12049995 0.28604301
v 0.05349800 0.12099995 0.28547402
v 0.05867500 0.12049995 0.29965501
v 0.06014800 0.12099995 0.29943403
v 0.06044200 0.12049995 0.31707301
v 0.06197600 0.12099995 0.31709503
v 0.05901300 0.12099995 0.33317902
v 0.05749900 0.12049994 0.33289902
v 0.04677200 0.12099994 0.38440402
v 0.04541500 0.12049994 0.38411303
v 0.04061900 0.12049993 0.39959203
v 0.04177200 0.12099993 0.40017902
v 0.05590100 0.12099995 0.33263501
v 0.04366000 0.12099994 0.38386702
v -0.02903800 0.12099995 0.31242203
v -0.04085000 0.12099994 0.36397101
v 0.05832800 0.12099995 0.31723802
v -0.02398500 0.12099995 0.29526802
v 0.05678400 0.12100095 0.30021103
v -0.01654500 0.12100095 0.28366502
v 0.05028700 0.12099995 0.28710501
v -0.00606700 0.12099995 0.27549102
v 0.04102500 0.12099995 0.27789002
v 0.02614200 0.12099996 0.27133202
v 0.00730900 0.12099996 0.27059801
v 0.03894300 0.12100093 0.39889701
v -0.04338500 0.12099994 0.38023903
v 0.03073900 0.12100093 0.41061001
v -0.04134900 0.12099994 0.39353501
v 0.02001300 0.12099993 0.41826703
v -0.03473800 0.12099993 0.40632503
v 0.00523600 0.12099993 0.42256703
v -0.00964900 0.12099993 0.42166301
v -0.02451300 0.12099993 0.41573303
v -0.05090400 -0.09060603 0.22341698
v 0.07717400 -0.09060803 0.20609899
v -0.05341800 -0.09070503 0.18225299
v 0.07512200 -0.09062203 0.17255898
v -0.06360800 -0.09081900 0.00903199
v 0.06571300 -0.09057001 0.01946099
v 0.06369000 -0.09065900 -0.00418301
v -0.06260900 -0.09055201 0.03018498
v 0.06811200 -0.09066801 0.05801998
v -0.06037700 -0.09055301 0.06855199
v 0.07051700 -0.09062901 0.09725498
v -0.05798200 -0.09063202 0.10766698
v 0.07289300 -0.09081402 0.13621598
v -0.05571900 -0.09055802 0.14471899
v -0.04882100 -0.09063004 0.25789098
v 0.07919500 -0.09055704 0.23914199
v 0.07611300 -0.09056606 0.33673300
v -0.06127600 -0.09055606 0.35906400
v 0.06388600 -0.09054506 0.38926099
v -0.04961900 -0.09059305 0.30785997
v 0.08003200 -0.09065605 0.31651397
v -0.04737000 -0.09054805 0.28838800
v -0.06427700 -0.09056706 0.37949298
v 0.05762700 -0.09054507 0.40850599
v -0.06079100 -0.09067200 -0.02019102
v 0.05497200 -0.09062699 -0.03305301
v -0.04609800 -0.09082099 -0.04464401
v 0.03336700 -0.09068799 -0.05489602
v 0.01386100 -0.09057099 -0.06256802
v -0.02765700 -0.09062499 -0.05797701
v -0.00482100 -0.09057099 -0.06347501
v -0.06084800 -0.09058306 0.40054099
v 0.04620500 -0.09056107 0.42462797
v -0.05001100 -0.09063907 0.42011599
v 0.02722300 -0.09055807 0.43821700
v -0.03228900 -0.09059707 0.43537898
v 0.00805400 -0.09058207 0.44373597
v -0.01424000 -0.09077107 0.44205700
v 0.08127300 -0.09065904 0.27396600
v 0.08178700 -0.09056705 0.29594098
v 0.00541700 -0.12100007 0.42620699
v -0.01000000 -0.12050007 0.42318297
v 0.00543300 -0.12050007 0.42462097
v -0.01035200 -0.12100007 0.42485599
v 0.02124500 -0.12100007 0.42174898
v 0.02084900 -0.12050007 0.42030297
v 0.03304400 -0.12100007 0.41318099
v 0.03209100 -0.12050007 0.41216598
v -0.02519500 -0.12050007 0.41737799
v -0.02574400 -0.12100007 0.41856797
v -0.03664100 -0.12100007 0.40833599
v -0.03571800 -0.12050006 0.40733499
v -0.04430000 -0.12100006 0.39456097
v -0.04290700 -0.12050006 0.39398498
v -0.04649400 -0.12100006 0.38020597
v -0.04521600 -0.12050006 0.38017897
v -0.04278900 -0.12050006 0.36356098
v -0.04400400 -0.12100006 0.36337699
v -0.03070900 -0.12050005 0.31182397
v -0.03205200 -0.12100005 0.31151698
v -0.02571100 -0.12050005 0.29455699
v -0.02703200 -0.12100005 0.29377998
v -0.01793600 -0.12050004 0.28264199
v -0.01900700 -0.12100005 0.28122799
v -0.00688000 -0.12050004 0.27385799
v -0.00756700 -0.12100004 0.27217097
v 0.00715400 -0.12050004 0.26890598
v 0.00695600 -0.12100004 0.26689498
v 0.02668100 -0.12100004 0.26806898
v 0.02649100 -0.12050004 0.26951198
v 0.04191500 -0.12050004 0.27639998
v 0.04310500 -0.12100004 0.27503697
v 0.05196200 -0.12050004 0.28604297
v 0.05349800 -0.12100005 0.28547398
v 0.05867500 -0.12050005 0.29965497
v 0.06014800 -0.12100005 0.29943399
v 0.06044200 -0.12050005 0.31707297
v 0.06197600 -0.12100005 0.31709499
v 0.05901300 -0.12100005 0.33317898
v 0.05749900 -0.12050005 0.33289898
v 0.04677200 -0.12100006 0.38440398
v 0.04541500 -0.12050006 0.38411299
v 0.04061900 -0.12050006 0.39959199
v 0.04177200 -0.12100006 0.40017898
v 0.05590100 -0.12100005 0.33263497
v 0.04366000 -0.12100006 0.38386698
v -0.02903800 -0.12100005 0.31242199
v -0.04085000 -0.12100006 0.36397098
v 0.05832800 -0.12100005 0.31723798
v -0.02398500 -0.12100005 0.29526798
v 0.05678400 -0.12100105 0.30021099
v -0.01654500 -0.12100104 0.28366498
v 0.05028700 -0.12100005 0.28710497
v -0.00606700 -0.12100004 0.27549098
v 0.04102500 -0.12100004 0.27788998
v 0.02614200 -0.12100004 0.27133198
v 0.00730900 -0.12100004 0.27059797
v 0.03894300 -0.12100106 0.39889697
v -0.04338500 -0.12100006 0.38023899
v 0.03073900 -0.12100106 0.41060997
v -0.04134900 -0.12100006 0.39353497
v 0.02001300 -0.12100007 0.41826699
v -0.03473800 -0.12100007 0.40632499
v 0.00523600 -0.12100007 0.42256699
v -0.00964900 -0.12100007 0.42166297
v -0.02451300 -0.12100007 0.41573299
f 1416 1417 1418
f 1416 1418 1419
f 1420 1421 1422
f 1420 1422 1423
f 1424 1425 1421
f 1424 1421 1420
f 1426 1427 1425
f 1426 1425 1424
f 1428 1429 1427
f 1428 1427 1426
f 1419 1418 1429
f 1419 1429 1428
f 1430 1431 1417
f 1430 1417 1416
f 1432 1433 1434
f 1433 1432 1435
f 1435 1436 1433
f 1437 1436 1435
f 1438 1434 1439
f 1434 1438 1432
f 1423 1422 1440
f 1423 1440 1441
f 1442 1441 1440
f 1441 1442 1443
f 1442 1444 1443
f 1444 1442 1445
f 1445 1446 1444
f 1447 1439 1448
f 1439 1447 1438
f 1449 1448 1450
f 1448 1449 1447
f 1451 1450 1452
f 1450 1451 1449
f 1452 1453 1451
f 1430 1454 1431
f 1437 1454 1455
f 1454 1437 1431
f 1455 1436 1437
f 1456 1457 1458
f 1457 1456 1459
f 1458 1460 1461
f 1460 1458 1457
f 1462 1461 1460
f 1461 1462 1463
f 1464 1456 1465
f 1456 1464 1459
f 1465 1466 1464
f 1466 1465 1467
f 1468 1466 1467
f 1468 1467 1469
f 1469 1470 1471
f 1471 1468 1469
f 1470 1472 1473
f 1473 1471 1470
f 1472 1474 1475
f 1475 1473 1472
f 1476 1475 1474
f 1475 1476 1477
f 1478 1477 1476
f 1477 1478 1479
f 1480 1479 1478
f 1479 1480 1481
f 1481 1482 1483
f 1482 1481 1480
f 1484 1483 1482
f 1484 1482 1485
f 1486 1484 1485
f 1484 1486 1487
f 1488 1487 1486
f 1487 1488 1489
f 1490 1489 1488
f 1489 1490 1491
f 1492 1491 1490
f 1491 1492 1493
f 1492 1494 1493
f 1494 1492 1495
f 1495 1496 1494
f 1496 1495 1497
f 1496 1498 1499
f 1498 1496 1497
f 1499 1463 1462
f 1463 1499 1498
f 1500 1497 1495
f 1497 1500 1501
f 1474 1472 1502
f 1502 1472 1503
f 1495 1492 1504
f 1504 1500 1495
f 1505 1474 1502
f 1474 1505 1476
f 1492 1490 1506
f 1506 1504 1492
f 1505 1507 1478
f 1505 1478 1476
f 1506 1488 1508
f 1488 1506 1490
f 1480 1507 1509
f 1507 1480 1478
f 1488 1510 1508
f 1510 1488 1486
f 1511 1510 1486
f 1486 1485 1511
f 1482 1511 1485
f 1511 1482 1512
f 1480 1512 1482
f 1512 1480 1509
f 1501 1498 1497
f 1498 1501 1513
f 1472 1514 1503
f 1514 1472 1470
f 1498 1515 1463
f 1515 1498 1513
f 1469 1514 1470
f 1514 1469 1516
f 1517 1463 1515
f 1463 1517 1461
f 1469 1467 1518
f 1469 1518 1516
f 1519 1520 1456
f 1519 1456 1458
f 1519 1461 1517
f 1461 1519 1458
f 1467 1465 1521
f 1521 1518 1467
f 1465 1520 1521
f 1520 1465 1456
f 1522 1523 1524
f 1525 1524 1523
f 1526 1527 1528
f 1527 1526 1529
f 1529 1530 1527
f 1530 1529 1531
f 1531 1532 1530
f 1532 1531 1533
f 1533 1534 1532
f 1534 1533 1535
f 1535 1525 1534
f 1525 1535 1524
f 1536 1537 1522
f 1523 1522 1537
f 1538 1539 1540
f 1539 1538 1541
f 1541 1538 1542
f 1542 1543 1541
f 1544 1540 1539
f 1540 1544 1545
f 1528 1546 1526
f 1546 1528 1547
f 1547 1548 1546
f 1548 1547 1549
f 1548 1550 1551
f 1550 1548 1549
f 1551 1550 1552
f 1553 1545 1544
f 1545 1553 1554
f 1555 1554 1553
f 1554 1555 1556
f 1557 1556 1555
f 1556 1557 1558
f 1558 1557 1559
f 1537 1536 1560
f 1560 1536 1543
f 1560 1543 1561
f 1561 1543 1542
f 1562 1563 1564
f 1563 1562 1565
f 1566 1564 1567
f 1564 1566 1562
f 1568 1567 1569
f 1567 1568 1566
f 1570 1563 1571
f 1565 1571 1563
f 1570 1572 1573
f 1572 1570 1571
f 1573 1574 1575
f 1574 1573 1572
f 1574 1576 1575
f 1575 1576 1577
f 1578 1577 1579
f 1576 1579 1577
f 1580 1578 1581
f 1579 1581 1578
f 1582 1581 1583
f 1581 1582 1580
f 1584 1583 1585
f 1583 1584 1582
f 1586 1585 1587
f 1585 1586 1584
f 1588 1587 1589
f 1587 1588 1586
f 1588 1590 1591
f 1590 1588 1589
f 1590 1592 1591
f 1592 1590 1593
f 1594 1593 1595
f 1593 1594 1592
f 1596 1595 1597
f 1595 1596 1594
f 1598 1597 1599
f 1597 1598 1596
f 1598 1600 1601
f 1600 1598 1599
f 1601 1602 1603
f 1602 1601 1600
f 1604 1602 1605
f 1602 1604 1603
f 1605 1569 1604
f 1569 1605 1568
f 1606 1603 1607
f 1603 1606 1601
f 1578 1580 1608
f 1578 1608 1609
f 1598 1601 1610
f 1606 1610 1601
f 1611 1580 1582
f 1580 1611 1608
f 1610 1612 1598
f 1598 1612 1596
f 1613 1611 1584
f 1582 1584 1611
f 1594 1612 1614
f 1612 1594 1596
f 1613 1586 1615
f 1584 1586 1613
f 1592 1594 1616
f 1616 1594 1614
f 1591 1592 1617
f 1617 1592 1616
f 1588 1617 1618
f 1617 1588 1591
f 1618 1586 1588
f 1586 1618 1615
f 1607 1604 1619
f 1604 1607 1603
f 1577 1578 1620
f 1620 1578 1609
f 1604 1621 1619
f 1621 1604 1569
f 1575 1620 1622
f 1620 1575 1577
f 1569 1623 1621
f 1623 1569 1567
f 1573 1575 1624
f 1624 1575 1622
f 1563 1625 1564
f 1625 1563 1626
f 1625 1567 1564
f 1567 1625 1623
f 1570 1573 1627
f 1624 1627 1573
f 1627 1626 1570
f 1563 1570 1626

