# https://github.com/mikedh/trimesh
v -0.06235378 0.03599995 0.09750002
v -0.05515515 0.04628067 0.09750002
v -0.04628068 0.05515515 0.09750002
v -0.01250268 0.07090616 0.09750002
v -0.03599995 0.06235377 0.09750002
v -0.02462543 0.06765782 0.09750002
v -0.07090616 0.01250266 0.09750002
v -0.06765782 0.02462541 0.09750002
v 0.01250266 0.07090616 0.09750002
v -0.00000001 0.07199996 0.09750002
v 0.03599995 0.06235378 0.09750002
v 0.02462541 0.06765782 0.09750002
v -0.06235377 -0.03599995 0.09750002
v -0.06765782 -0.02462543 0.09750002
v -0.07090616 -0.01250262 0.09750002
v -0.07199996 -0.00000001 0.09750002
v 0.04628067 0.05515515 0.09750002
v -0.05515515 -0.04628068 0.09750002
v -0.03599995 -0.06235378 0.09750002
v -0.04628067 -0.05515515 0.09750002
v -0.02462541 -0.06765782 0.09750002
v 0.07090616 0.01250268 0.09750002
v 0.05515515 0.04628068 0.09750002
v 0.06235377 0.03599995 0.09750002
v 0.06235377 0.03599995 0.09750002
v 0.06765782 0.02462543 0.09750002
v 0.07090616 -0.01250260 0.09750002
v 0.07199996 0.00000001 0.09750002
v 0.02462543 -0.06765782 0.09750002
v 0.00000001 -0.07199996 0.09750002
v -0.01250266 -0.07090616 0.09750002
v 0.01250268 -0.07090616 0.09750002
v 0.05515515 -0.04628067 0.09750002
v 0.06765782 -0.02462541 0.09750002
v 0.05515515 -0.04628067 0.09750002
v 0.06765782 -0.02462541 0.09750002
v 0.06235378 -0.03599995 0.09750002
v 0.04628068 -0.05515515 0.09750002
v 0.03599995 -0.06235377 0.09750002
v -0.04243521 -0.10470000 0.81550002
v -0.03149657 -0.09166383 0.81550002
v -0.03753613 -0.09770345 0.81550002
v -0.01675896 -0.08315509 0.81550002
v -0.02449994 -0.08676475 0.81550002
v -0.03149657 -0.09166383 0.81550002
v -0.04604487 -0.11244101 0.81550002
v -0.04243521 -0.10470000 0.81550002
v 0.01675898 -0.08315509 0.81550002
v 0.00850875 -0.08094441 0.81550002
v 0.00000001 -0.08020001 0.81550002
v -0.04604487 -0.14595900 0.81550002
v -0.04899995 -0.12920000 0.81550002
v -0.04825555 -0.13770880 0.81550002
v -0.04825555 -0.12069121 0.81550002
v 0.02449996 -0.08676475 0.81550002
v 0.00000001 -0.08020001 0.81550002
v -0.00850873 -0.08094441 0.81550002
v 0.02449996 -0.08676475 0.81550002
v 0.01675898 -0.08315509 0.81550002
v 0.00000001 -0.08020001 0.81550002
v -0.04243521 -0.15369999 0.81550002
v 0.03149659 -0.09166383 0.81550002
v 0.04604489 -0.11244100 0.81550002
v 0.03753615 -0.09770345 0.81550002
v 0.04604489 -0.11244100 0.81550002
v 0.04243523 -0.10470000 0.81550002
v 0.03753615 -0.09770345 0.81550002
v -0.01675896 -0.17524490 0.81550002
v -0.03149657 -0.16673620 0.81550002
v -0.02449994 -0.17163530 0.81550002
v -0.03753613 -0.16069660 0.81550002
v -0.01675896 -0.17524490 0.81550002
v -0.04243521 -0.15369999 0.81550002
v -0.03753613 -0.16069660 0.81550002
v 0.04825557 -0.12069120 0.81550002
v 0.04899997 -0.12920000 0.81550002
v 0.04825557 -0.13770880 0.81550002
v 0.00850876 -0.17745560 0.81550002
v -0.00850873 -0.17745560 0.81550002
v 0.00000002 -0.17820001 0.81550002
v 0.03753616 -0.16069660 0.81550002
v 0.04243524 -0.15369999 0.81550002
v 0.04604489 -0.14595900 0.81550002
v 0.03149660 -0.16673620 0.81550002
v 0.03753616 -0.16069660 0.81550002
v 0.04604489 -0.14595900 0.81550002
v 0.03149660 -0.16673620 0.81550002
v 0.04604489 -0.14595900 0.81550002
v 0.04825557 -0.13770880 0.81550002
v 0.03149660 -0.16673620 0.81550002
v 0.01675899 -0.17524490 0.81550002
v 0.02449997 -0.17163530 0.81550002
v 0.03149660 -0.16673620 0.81550002
v 0.01675899 -0.17524490 0.81550002
v -0.00033333 -0.07649922 0.10400000
v -0.00046146 -0.07630747 0.10400000
v -0.00041516 -0.07622134 0.10400000
v -0.00033333 -0.07649922 0.10400000
v -0.00049011 -0.07640105 0.10400000
v -0.00046146 -0.07630747 0.10400000
v -0.00033333 -0.07649922 0.10400000
v -0.00049999 -0.07649832 0.10400000
v -0.00049011 -0.07640105 0.10400000
v -0.00016666 -0.07649981 0.10400000
v -0.00027727 -0.07608389 0.10400000
v -0.00019096 -0.07603788 0.10400000
v -0.00035297 -0.07614582 0.10400000
v -0.00041516 -0.07622134 0.10400000
v -0.00035297 -0.07614582 0.10400000
v 0.00000001 -0.07649999 0.10400000
v 0.00009735 -0.07600957 0.10400000
v 0.00019097 -0.07603788 0.10400000
v 0.00000001 -0.07649999 0.10400000
v 0.00000001 -0.07599997 0.10400000
v 0.00009735 -0.07600957 0.10400000
v -0.00009734 -0.07600957 0.10400000
v 0.00000001 -0.07649999 0.10400000
v -0.00019096 -0.07603788 0.10400000
v -0.00009734 -0.07600957 0.10400000
v -0.00019096 -0.07603788 0.10400000
v 0.00016667 -0.07649981 0.10400000
v 0.00035298 -0.07614582 0.10400000
v 0.00041517 -0.07622134 0.10400000
v 0.00027728 -0.07608389 0.10400000
v 0.00035298 -0.07614582 0.10400000
v 0.00019097 -0.07603788 0.10400000
v 0.00019097 -0.07603788 0.10400000
v 0.00033334 -0.07649922 0.10400000
v 0.00041517 -0.07622134 0.10400000
v 0.00046148 -0.07630747 0.10400000
v 0.00033334 -0.07649922 0.10400000
v 0.00049012 -0.07640105 0.10400000
v 0.00046148 -0.07630747 0.10400000
v 0.00050000 -0.07649832 0.10400000
v 0.00033334 -0.07649922 0.10400000
v 0.00049012 -0.07640105 0.10400000
v 0.00050000 -0.07649832 0.10400000
v 0.00049012 -0.07640105 0.09900003
v 0.00050000 -0.07649832 0.09900003
v 0.00049012 -0.07640105 0.10400000
v 0.00046148 -0.07630747 0.09900003
v 0.00046148 -0.07630747 0.10400000
v 0.00041517 -0.07622134 0.09900003
v 0.00041517 -0.07622134 0.10400000
v 0.00035298 -0.07614582 0.09900003
v 0.00035298 -0.07614582 0.10400000
v 0.00027728 -0.07608389 0.09900003
v 0.00027728 -0.07608389 0.10400000
v 0.00019097 -0.07603788 0.09900003
v 0.00019097 -0.07603788 0.10400000
v 0.00009735 -0.07600957 0.09900003
v 0.00009735 -0.07600957 0.10400000
v 0.00000001 -0.07599997 0.09900003
v 0.00000001 -0.07599997 0.10400000
v -0.00009734 -0.07600957 0.09900003
v -0.00009734 -0.07600957 0.10400000
v -0.00019096 -0.07603788 0.09900003
v -0.00019096 -0.07603788 0.10400000
v -0.00027727 -0.07608389 0.09900003
v -0.00027727 -0.07608389 0.10400000
v -0.00035297 -0.07614582 0.09900003
v -0.00035297 -0.07614582 0.10400000
v -0.00041516 -0.07622134 0.09900003
v -0.00041516 -0.07622134 0.10400000
v -0.00046146 -0.07630747 0.09900003
v -0.00046146 -0.07630747 0.10400000
v -0.00049011 -0.07640105 0.10400000
v -0.00049011 -0.07640105 0.09900003
v -0.00049999 -0.07649832 0.09900003
v -0.00049999 -0.07649832 0.10400000
v -0.00016667 0.07649981 0.10400000
v -0.00049012 0.07640105 0.10400000
v -0.00050000 0.07649832 0.10400000
v -0.00016667 0.07649981 0.10400000
v -0.00046148 0.07630753 0.10400000
v -0.00049012 0.07640105 0.10400000
v -0.00041517 0.07622134 0.10400000
v -0.00046148 0.07630753 0.10400000
v -0.00016667 0.07649981 0.10400000
v -0.00035298 0.07614582 0.10400000
v -0.00041517 0.07622134 0.10400000
v -0.00016667 0.07649981 0.10400000
v -0.00027728 0.07608389 0.10400000
v -0.00035298 0.07614582 0.10400000
v -0.00019097 0.07603788 0.10400000
v -0.00009735 0.07600957 0.10400000
v -0.00000001 0.07599997 0.10400000
v 0.00016666 0.07649981 0.10400000
v 0.00009734 0.07600957 0.10400000
v 0.00049011 0.07640105 0.10400000
v 0.00049999 0.07649832 0.10400000
v 0.00019096 0.07603788 0.10400000
v 0.00046146 0.07630753 0.10400000
v 0.00016666 0.07649981 0.10400000
v 0.00049011 0.07640105 0.10400000
v 0.00027727 0.07608389 0.10400000
v 0.00041516 0.07622134 0.10400000
v 0.00046146 0.07630753 0.10400000
v 0.00035297 0.07614582 0.10400000
v 0.00035297 0.07614582 0.10400000
v 0.00016666 0.07649981 0.10400000
v 0.00041516 0.07622134 0.10400000
v -0.00049012 0.07640105 0.10400000
v -0.00050000 0.07649832 0.09900003
v -0.00050000 0.07649832 0.10400000
v -0.00049012 0.07640105 0.09900003
v -0.00046148 0.07630753 0.10400000
v -0.00046148 0.07630753 0.09900003
v -0.00041517 0.07622134 0.10400000
v -0.00041517 0.07622134 0.09900003
v -0.00035298 0.07614582 0.10400000
v -0.00035298 0.07614582 0.09900003
v -0.00027728 0.07608389 0.10400000
v -0.00027728 0.07608389 0.09900003
v -0.00019097 0.07603788 0.09900003
v -0.00019097 0.07603788 0.10400000
v -0.00009735 0.07600957 0.09900003
v -0.00009735 0.07600957 0.10400000
v -0.00000001 0.07599997 0.10400000
v -0.00000001 0.07599997 0.09900003
v 0.00009734 0.07600957 0.09900003
v 0.00009734 0.07600957 0.10400000
v 0.00019096 0.07603788 0.10400000
v 0.00019096 0.07603788 0.09900003
v 0.00027727 0.07608389 0.09900003
v 0.00027727 0.07608389 0.10400000
v 0.00035297 0.07614582 0.10400000
v 0.00035297 0.07614582 0.09900003
v 0.00041516 0.07622134 0.09900003
v 0.00041516 0.07622134 0.10400000
v 0.00046146 0.07630753 0.10400000
v 0.00046146 0.07630753 0.09900003
v 0.00049011 0.07640105 0.10400000
v 0.00049011 0.07640105 0.09900003
v 0.00049999 0.07649832 0.10400000
v 0.00049999 0.07649832 0.09900003
v 0.01372153 -0.07525932 0.09900003
v 0.00050000 -0.07649832 0.10400000
v 0.00050000 -0.07649832 0.09900003
v 0.00000001 -0.07649999 0.14666910
v 0.00000001 -0.07649999 0.10400000
v 0.00016667 -0.07649981 0.10400000
v 0.00033334 -0.07649922 0.10400000
v 0.01276303 -0.07542777 0.14666790
v 0.02516299 -0.07224309 0.14667030
v 0.02652962 -0.07175254 0.09900003
v 0.03684301 -0.06704354 0.14666830
v 0.03853828 -0.06608361 0.09900003
v 0.04748409 -0.05997920 0.14666930
v 0.04938566 -0.05842344 0.09900003
v 0.05418503 -0.05400210 0.14666900
v 0.05874496 -0.04900276 0.09900003
v 0.06052953 -0.04678052 0.14667059
v 0.06633412 -0.03810553 0.09900003
v 0.06591844 -0.03882019 0.14666919
v 0.07026654 -0.03024654 0.14666860
v 0.07192438 -0.02606003 0.09900003
v 0.07350528 -0.02119480 0.14667070
v 0.07534742 -0.01322936 0.09900003
v 0.07558310 -0.01180868 0.14666750
v 0.07646727 -0.00223642 0.14666811
v 0.07649999 0.00000001 0.09900003
v 0.07614415 0.00737006 0.14666900
v 0.07534742 0.01322938 0.09900003
v 0.07461929 0.01685834 0.14666951
v 0.07192438 0.02606011 0.09900003
v 0.07191854 0.02607631 0.14666989
v 0.06808161 0.03488750 0.14666490
v 0.06633412 0.03810555 0.09900003
v 0.06316994 0.04314863 0.14666900
v 0.05874496 0.04900276 0.09900003
v 0.05725157 0.05073958 0.14667021
v 0.04938566 0.05842345 0.09900003
v 0.05042594 0.05752802 0.14666860
v 0.04280066 0.06340623 0.14666900
v 0.03853826 0.06608361 0.09900003
v 0.03449677 0.06828045 0.14666870
v 0.02652960 0.07175254 0.09900003
v 0.02564424 0.07207369 0.14667000
v 0.00049999 0.07649832 0.10400000
v 0.01372151 0.07525932 0.09900003
v 0.00049999 0.07649832 0.09900003
v 0.01638184 0.07472538 0.14666919
v -0.01372153 0.07525932 0.09900003
v -0.00050000 0.07649832 0.10400000
v -0.00050000 0.07649832 0.09900003
v 0.00823885 0.07605504 0.14666609
v -0.00000001 0.07649999 0.14666900
v 0.00016666 0.07649981 0.10400000
v -0.00016667 0.07649981 0.10400000
v -0.01276267 0.07542783 0.14666820
v -0.02516204 0.07224345 0.14667021
v -0.02652962 0.07175254 0.09900003
v -0.03684122 0.06704455 0.14666849
v -0.03853828 0.06608361 0.09900003
v -0.04748255 0.05998039 0.14666919
v -0.04938566 0.05842344 0.09900003
v -0.05408686 0.05410045 0.14666900
v -0.05874496 0.04900276 0.09900003
v -0.06043916 0.04689723 0.14667051
v -0.06633412 0.03810553 0.09900003
v -0.06584316 0.03894769 0.14666620
v -0.07020741 0.03038364 0.14666860
v -0.07192438 0.02606010 0.09900003
v -0.07346153 0.02134590 0.14667051
v -0.07534742 0.01322936 0.09900003
v -0.07555651 0.01197760 0.14666849
v -0.07646185 0.00241482 0.14666910
v -0.07649999 -0.00000001 0.09900003
v -0.07616257 -0.00717706 0.14666671
v -0.07534742 -0.01322938 0.09900003
v -0.07466393 -0.01665968 0.14666930
v -0.07192438 -0.02606004 0.09900003
v -0.07199001 -0.02587832 0.14667021
v -0.06818473 -0.03468562 0.14666881
v -0.06633412 -0.03810555 0.09900003
v -0.06330322 -0.04295284 0.14666900
v -0.05874496 -0.04900276 0.09900003
v -0.05742799 -0.05053980 0.14667051
v -0.04938566 -0.05842345 0.09900003
v -0.05064570 -0.05733460 0.14666919
v -0.04307782 -0.06321824 0.14666881
v -0.03853826 -0.06608361 0.09900003
v -0.03485064 -0.06810045 0.14666820
v -0.02652960 -0.07175254 0.09900003
v -0.02657020 -0.07173752 0.14666981
v -0.00049999 -0.07649832 0.10400000
v -0.01372151 -0.07525932 0.09900003
v -0.00049999 -0.07649832 0.09900003
v -0.01839899 -0.07425445 0.14667070
v -0.00999885 -0.07584369 0.14666550
v -0.00500947 -0.07633578 0.14666550
v 0.00000001 -0.07649999 0.14666910
v -0.00033333 -0.07649922 0.10400000
v -0.00016666 -0.07649981 0.10400000
v 0.00000001 -0.07649999 0.10400000
v 0.00000001 -0.08020001 0.81550002
v 0.00000001 -0.08019983 0.51669961
v -0.00334858 -0.08031451 0.51685852
v -0.00850873 -0.08094441 0.81550002
v -0.00665253 -0.08065360 0.51732022
v -0.01162510 -0.08159857 0.51858729
v -0.01675896 -0.08315509 0.81550002
v -0.01666109 -0.08311975 0.52062237
v -0.02270155 -0.08577561 0.52419013
v -0.02449994 -0.08676475 0.81550002
v -0.02920972 -0.08985769 0.52967381
v -0.03149657 -0.09166383 0.81550002
v -0.03375594 -0.09368199 0.53479880
v -0.03753613 -0.09770345 0.81550002
v -0.03759716 -0.09777635 0.54029328
v -0.04243521 -0.10470000 0.54960853
v -0.04243521 -0.10470000 0.81550002
v -0.04635315 -0.11331361 0.56117821
v -0.04604487 -0.11244101 0.81550002
v -0.04825555 -0.12069121 0.81550002
v -0.04850958 -0.12228531 0.57323170
v -0.04899995 -0.12920000 0.81550002
v -0.04895090 -0.13137500 0.58544141
v -0.04825555 -0.13770880 0.81550002
v -0.04770122 -0.14040600 0.59757131
v -0.04665016 -0.14418820 0.60265309
v -0.04604487 -0.14595900 0.81550002
v -0.04436778 -0.14999430 0.61045218
v -0.04243521 -0.15369999 0.81550002
v -0.04159407 -0.15510270 0.61731392
v -0.03919999 -0.15859990 0.62201351
v -0.03753613 -0.16069660 0.81550002
v -0.03520636 -0.16328090 0.62830192
v -0.03149657 -0.16673620 0.81550002
v -0.03035006 -0.16766910 0.63419420
v -0.02449994 -0.17163530 0.81550002
v -0.02454362 -0.17161000 0.63948858
v -0.01972065 -0.17405680 0.64277393
v -0.01675896 -0.17524490 0.81550002
v -0.01462856 -0.17596450 0.64533401
v -0.00850873 -0.17745560 0.81550002
v -0.00937550 -0.17729470 0.64712387
v -0.00630854 -0.17779230 0.64779139
v -0.00317226 -0.17809740 0.64820093
v 0.00000002 -0.17820001 0.81550002
v 0.00000002 -0.17820001 0.64834023
v 0.00313498 -0.17809960 0.64820588
v 0.00850876 -0.17745560 0.81550002
v 0.00626446 -0.17779790 0.64780062
v 0.00937553 -0.17729470 0.64712387
v 0.01451238 -0.17600159 0.64538717
v 0.01675899 -0.17524490 0.81550002
v 0.01955833 -0.17412740 0.64287132
v 0.02449997 -0.17163530 0.81550002
v 0.02454365 -0.17161000 0.63948858
v 0.02995636 -0.16797650 0.63461059
v 0.03149660 -0.16673620 0.81550002
v 0.03485573 -0.16363950 0.62878507
v 0.03753616 -0.16069660 0.81550002
v 0.03920013 -0.15859990 0.62201363
v 0.04243524 -0.15369999 0.81550002
v 0.04159392 -0.15510270 0.61731380
v 0.04436798 -0.14999440 0.61045218
v 0.04604489 -0.14595900 0.81550002
v 0.04665047 -0.14418830 0.60265309
v 0.04825557 -0.13770880 0.81550002
v 0.04770124 -0.14040600 0.59757131
v 0.04894949 -0.13137500 0.58544141
v 0.04899997 -0.12920000 0.81550002
v 0.04835660 -0.12129299 0.57189882
v 0.04825557 -0.12069120 0.81550002
v 0.04604489 -0.11244100 0.81550002
v 0.04615772 -0.11274339 0.56041431
v 0.04243523 -0.10470000 0.81550002
v 0.04243702 -0.10469900 0.54960853
v 0.03884662 -0.09933465 0.54240400
v 0.03753615 -0.09770345 0.81550002
v 0.03445519 -0.09435981 0.53572011
v 0.03149659 -0.09166383 0.81550002
v 0.02920956 -0.08985793 0.52967381
v 0.02449996 -0.08676475 0.81550002
v 0.02312059 -0.08599728 0.52448970
v 0.01675898 -0.08315509 0.81550002
v 0.01734752 -0.08337396 0.52096319
v 0.01186693 -0.08165812 0.51865977
v 0.00850875 -0.08094441 0.81550002
v 0.00665493 -0.08065390 0.51731122
v 0.00332916 -0.08031320 0.51685250
v 0.00000001 -0.08020001 0.81550002
v 0.00000001 -0.08019983 0.51669961
v 0.01250268 -0.07090616 0.09900003
v 0.00000001 -0.07199996 0.09900003
v 0.00000001 -0.07199996 0.09750002
v 0.01250268 -0.07090616 0.09750002
v 0.02462543 -0.06765782 0.09900003
v 0.02462543 -0.06765782 0.09750002
v 0.03599995 -0.06235377 0.09900003
v 0.03599995 -0.06235377 0.09750002
v 0.04628068 -0.05515515 0.09900003
v 0.04628068 -0.05515515 0.09750002
v 0.05515515 -0.04628067 0.09900003
v 0.05515515 -0.04628067 0.09750002
v 0.06235378 -0.03599995 0.09900003
v 0.06235378 -0.03599995 0.09750002
v 0.06765782 -0.02462541 0.09900003
v 0.06765782 -0.02462541 0.09750002
v 0.07090616 -0.01250260 0.09900003
v 0.07090616 -0.01250260 0.09750002
v 0.07199996 0.00000001 0.09900003
v 0.07199996 0.00000001 0.09750002
v 0.07090616 0.01250268 0.09900003
v 0.07090616 0.01250268 0.09750002
v 0.06765782 0.02462543 0.09900003
v 0.06765782 0.02462543 0.09750002
v 0.06235377 0.03599995 0.09900003
v 0.06235377 0.03599995 0.09750002
v 0.05515515 0.04628068 0.09900003
v 0.05515515 0.04628068 0.09750002
v 0.04628067 0.05515515 0.09900003
v 0.04628067 0.05515515 0.09750002
v 0.03599995 0.06235378 0.09750002
v 0.03599995 0.06235378 0.09900003
v 0.02462541 0.06765782 0.09900003
v 0.02462541 0.06765782 0.09750002
v 0.01250266 0.07090616 0.09900003
v 0.01250266 0.07090616 0.09750002
v -0.00000001 0.07199996 0.09900003
v -0.00000001 0.07199996 0.09750002
v -0.01250268 0.07090616 0.09900003
v -0.01250268 0.07090616 0.09750002
v -0.02462543 0.06765782 0.09900003
v -0.02462543 0.06765782 0.09750002
v -0.03599995 0.06235377 0.09900003
v -0.03599995 0.06235377 0.09750002
v -0.04628068 0.05515515 0.09900003
v -0.04628068 0.05515515 0.09750002
v -0.05515515 0.04628067 0.09900003
v -0.05515515 0.04628067 0.09750002
v -0.06235378 0.03599995 0.09900003
v -0.06235378 0.03599995 0.09750002
v -0.06765782 0.02462541 0.09900003
v -0.06765782 0.02462541 0.09750002
v -0.07090616 0.01250266 0.09900003
v -0.07090616 0.01250266 0.09750002
v -0.07199996 -0.00000001 0.09900003
v -0.07199996 -0.00000001 0.09750002
v -0.07090616 -0.01250262 0.09900003
v -0.07090616 -0.01250262 0.09750002
v -0.06765782 -0.02462543 0.09750002
v -0.06765782 -0.02462543 0.09900003
v -0.06235377 -0.03599995 0.09900003
v -0.06235377 -0.03599995 0.09750002
v -0.05515515 -0.04628068 0.09900003
v -0.05515515 -0.04628068 0.09750002
v -0.04628067 -0.05515515 0.09900003
v -0.04628067 -0.05515515 0.09750002
v -0.03599995 -0.06235378 0.09900003
v -0.03599995 -0.06235378 0.09750002
v -0.02462541 -0.06765782 0.09900003
v -0.02462541 -0.06765782 0.09750002
v -0.01250266 -0.07090616 0.09900003
v -0.01250266 -0.07090616 0.09750002
v 0.00000001 -0.07199996 0.09900003
v 0.00000001 -0.07199996 0.09750002
v -0.04628068 0.05515515 0.09900003
v -0.04938566 0.05842344 0.09900003
v -0.03853828 0.06608361 0.09900003
v -0.05515515 0.04628067 0.09900003
v -0.05874496 0.04900276 0.09900003
v -0.03599995 0.06235377 0.09900003
v -0.06235378 0.03599995 0.09900003
v -0.06633412 0.03810553 0.09900003
v -0.02652962 0.07175254 0.09900003
v -0.02462543 0.06765782 0.09900003
v -0.06765782 0.02462541 0.09900003
v -0.07192438 0.02606010 0.09900003
v -0.01372153 0.07525932 0.09900003
v -0.01250268 0.07090616 0.09900003
v -0.07090616 0.01250266 0.09900003
v -0.07534742 0.01322936 0.09900003
v -0.00049012 0.07640105 0.09900003
v -0.01372153 0.07525932 0.09900003
v -0.00050000 0.07649832 0.09900003
v -0.00049012 0.07640105 0.09900003
v -0.00046148 0.07630753 0.09900003
v -0.00000001 0.07199996 0.09900003
v -0.00046148 0.07630753 0.09900003
v -0.00041517 0.07622134 0.09900003
v -0.00035298 0.07614582 0.09900003
v -0.00000001 0.07199996 0.09900003
v -0.00035298 0.07614582 0.09900003
v -0.00027728 0.07608389 0.09900003
v -0.00000001 0.07199996 0.09900003
v -0.00027728 0.07608389 0.09900003
v -0.00019097 0.07603788 0.09900003
v -0.00009735 0.07600957 0.09900003
v -0.00000001 0.07599997 0.09900003
v 0.00009734 0.07600957 0.09900003
v 0.00019096 0.07603788 0.09900003
v 0.00027727 0.07608389 0.09900003
v -0.00000001 0.07199996 0.09900003
v 0.00027727 0.07608389 0.09900003
v 0.00035297 0.07614582 0.09900003
v -0.00000001 0.07199996 0.09900003
v 0.00035297 0.07614582 0.09900003
v 0.00041516 0.07622134 0.09900003
v 0.00046146 0.07630753 0.09900003
v -0.07199996 -0.00000001 0.09900003
v -0.07649999 -0.00000001 0.09900003
v -0.07534742 -0.01322938 0.09900003
v 0.01372151 0.07525932 0.09900003
v 0.00049011 0.07640105 0.09900003
v 0.00049999 0.07649832 0.09900003
v 0.01250266 0.07090616 0.09900003
v 0.00049011 0.07640105 0.09900003
v 0.01372151 0.07525932 0.09900003
v 0.00046146 0.07630753 0.09900003
v -0.07090616 -0.01250262 0.09900003
v -0.07192438 -0.02606004 0.09900003
v 0.02462541 0.06765782 0.09900003
v 0.02652960 0.07175254 0.09900003
v -0.06765782 -0.02462543 0.09900003
v -0.06633412 -0.03810555 0.09900003
v 0.03599995 0.06235378 0.09900003
v 0.03853826 0.06608361 0.09900003
v -0.06235377 -0.03599995 0.09900003
v -0.05874496 -0.04900276 0.09900003
v 0.04628067 0.05515515 0.09900003
v 0.04938566 0.05842345 0.09900003
v -0.05515515 -0.04628068 0.09900003
v 0.05515515 0.04628068 0.09900003
v -0.04938566 -0.05842345 0.09900003
v -0.04628067 -0.05515515 0.09900003
v 0.05874496 0.04900276 0.09900003
v 0.06235377 0.03599995 0.09900003
v -0.03853826 -0.06608361 0.09900003
v -0.03599995 -0.06235378 0.09900003
v 0.06633412 0.03810555 0.09900003
v 0.06765782 0.02462543 0.09900003
v -0.02652960 -0.07175254 0.09900003
v -0.02462541 -0.06765782 0.09900003
v 0.07192438 0.02606011 0.09900003
v 0.07090616 0.01250268 0.09900003
v -0.01372151 -0.07525932 0.09900003
v -0.01250266 -0.07090616 0.09900003
v 0.07534742 0.01322938 0.09900003
v 0.07199996 0.00000001 0.09900003
v -0.00041516 -0.07622134 0.09900003
v 0.00000001 -0.07199996 0.09900003
v -0.00035297 -0.07614582 0.09900003
v -0.00027727 -0.07608389 0.09900003
v -0.00046146 -0.07630747 0.09900003
v -0.00019096 -0.07603788 0.09900003
v -0.00049011 -0.07640105 0.09900003
v -0.00009734 -0.07600957 0.09900003
v -0.00019096 -0.07603788 0.09900003
v 0.00000001 -0.07199996 0.09900003
v -0.00049999 -0.07649832 0.09900003
v 0.00000001 -0.07599997 0.09900003
v -0.00009734 -0.07600957 0.09900003
v 0.00000001 -0.07199996 0.09900003
v 0.00009735 -0.07600957 0.09900003
v 0.00000001 -0.07599997 0.09900003
v 0.00019097 -0.07603788 0.09900003
v 0.00009735 -0.07600957 0.09900003
v 0.00027728 -0.07608389 0.09900003
v 0.00019097 -0.07603788 0.09900003
v 0.00035298 -0.07614582 0.09900003
v 0.07649999 0.00000001 0.09900003
v 0.00041517 -0.07622134 0.09900003
v 0.00046148 -0.07630747 0.09900003
v 0.01250268 -0.07090616 0.09900003
v 0.00049012 -0.07640105 0.09900003
v 0.00046148 -0.07630747 0.09900003
v 0.01250268 -0.07090616 0.09900003
v 0.07534742 -0.01322936 0.09900003
v 0.07090616 -0.01250260 0.09900003
v 0.01372153 -0.07525932 0.09900003
v 0.00050000 -0.07649832 0.09900003
v 0.00049012 -0.07640105 0.09900003
v 0.02462543 -0.06765782 0.09900003
v 0.07192438 -0.02606003 0.09900003
v 0.06765782 -0.02462541 0.09900003
v 0.02652962 -0.07175254 0.09900003
v 0.03599995 -0.06235377 0.09900003
v 0.06633412 -0.03810553 0.09900003
v 0.06235378 -0.03599995 0.09900003
v 0.03853828 -0.06608361 0.09900003
v 0.04628068 -0.05515515 0.09900003
v 0.05874496 -0.04900276 0.09900003
v 0.05515515 -0.04628067 0.09900003
v 0.04938566 -0.05842344 0.09900003
v 0.01276303 -0.07542777 0.14666790
v 0.00000001 -0.07622432 0.14736760
v 0.00000001 -0.07649999 0.14666910
v 0.01261741 -0.07494503 0.14884840
v 0.00000001 -0.07605642 0.14809960
v 0.00000001 -0.07600003 0.14884840
v 0.02476335 -0.07185316 0.14884840
v 0.02516299 -0.07224309 0.14667030
v 0.03629751 -0.06677067 0.14884840
v 0.03684301 -0.06704354 0.14666830
v 0.04679423 -0.05988584 0.14884840
v 0.04748409 -0.05997920 0.14666930
v 0.05418503 -0.05400210 0.14666900
v 0.05605352 -0.05132317 0.14884840
v 0.06052953 -0.04678052 0.14667059
v 0.06372725 -0.04141038 0.14884840
v 0.06591844 -0.03882019 0.14666919
v 0.06969881 -0.03029924 0.14884840
v 0.07026654 -0.03024654 0.14666860
v 0.07350528 -0.02119480 0.14667070
v 0.07373243 -0.01842820 0.14884850
v 0.07558310 -0.01180868 0.14666750
v 0.07576221 -0.00598782 0.14884850
v 0.07646727 -0.00223642 0.14666811
v 0.07570832 0.00663597 0.14884850
v 0.07614415 0.00737006 0.14666900
v 0.07461929 0.01685834 0.14666951
v 0.07357197 0.01905913 0.14884850
v 0.07191854 0.02607631 0.14666989
v 0.06943696 0.03089393 0.14884850
v 0.06808161 0.03488750 0.14666490
v 0.06336998 0.04195511 0.14884850
v 0.06316994 0.04314863 0.14666900
v 0.05725157 0.05073958 0.14667021
v 0.05561292 0.05180001 0.14884850
v 0.05042594 0.05752802 0.14666860
v 0.04628843 0.06027883 0.14884850
v 0.04280066 0.06340623 0.14666900
v 0.03572188 0.06708246 0.14884850
v 0.03449677 0.06828045 0.14666870
v 0.02664243 0.07117736 0.14884850
v 0.02564424 0.07207369 0.14667000
v 0.01764540 0.07392346 0.14884850
v 0.01638184 0.07472538 0.14666919
v 0.00892013 0.07547372 0.14884850
v 0.00823885 0.07605504 0.14666609
v -0.00000001 0.07622426 0.14736760
v -0.00000001 0.07649999 0.14666900
v -0.00000001 0.07605636 0.14809960
v -0.00000001 0.07599991 0.14884850
v -0.00317226 -0.17809740 0.64820093
v 0.00000002 -0.17843920 0.64630097
v 0.00000002 -0.17825980 0.64739722
v 0.00000002 -0.17820001 0.64834023
v -0.00475155 -0.17820190 0.64614302
v -0.00630854 -0.17779230 0.64779139
v -0.00944130 -0.17727320 0.64671528
v -0.00937550 -0.17729470 0.64712387
v -0.00949858 -0.17732289 0.64630252
v -0.00953202 -0.17739570 0.64602500
v -0.00956081 -0.17750500 0.64573681
v -0.00956152 -0.17749980 0.64574540
v -0.00963221 -0.17800280 0.64335167
v -0.00543760 -0.17834049 0.64463443
v -0.00963007 -0.17800300 0.64338320
v -0.00601940 -0.17838490 0.60902250
v -0.00273697 -0.17847800 0.64510292
v 0.00000002 -0.17854410 0.64527732
v -0.00247435 -0.17862390 0.57294691
v 0.00000002 -0.17887810 0.49580300
v -0.00606893 -0.17846660 0.57262307
v -0.01010672 -0.17842241 0.49499699
v -0.00287180 -0.17871881 0.53665459
v -0.00637565 -0.17856760 0.53636622
v 0.00000001 -0.07612097 0.20288859
v -0.01295887 -0.07488250 0.18499990
v 0.00000001 -0.07600003 0.18499880
v -0.05276566 -0.05501049 0.19530670
v -0.05070136 -0.05661463 0.18499990
v -0.04302501 -0.06264300 0.18499990
v -0.05753856 -0.04964918 0.18499990
v -0.06342512 -0.04186345 0.18499990
v -0.06914752 -0.03186769 0.19537650
v -0.06827068 -0.03339059 0.18499990
v -0.07198673 -0.02436531 0.18499990
v -0.07451289 -0.01493729 0.18499990
v -0.07561182 -0.00764579 0.18499990
v -0.07599890 -0.00028235 0.18500030
v -0.03408168 -0.12037780 0.35379291
v 0.00000001 -0.08107936 0.23582980
v 0.00000001 -0.15865269 0.42488730
v -0.04106258 -0.08721143 0.28593820
v -0.04946230 -0.11262721 0.35792571
v -0.05386691 -0.14454810 0.43321109
v -0.02774237 -0.15506659 0.42657951
v -0.04153334 -0.15207741 0.43305251
v -0.04838077 -0.15840730 0.45814401
v -0.02022378 -0.16896360 0.46061340
v 0.00000002 -0.17278519 0.46767330
v -0.03048412 -0.16847280 0.46714291
v -0.04418883 -0.16369160 0.46785289
v -0.03859691 -0.16832361 0.47621021
v -0.03345117 -0.17148501 0.48186919
v -0.01341902 -0.17413850 0.47572821
v 0.00000002 -0.17880359 0.49491021
v -0.00500367 -0.17870951 0.49476010
v -0.02027391 -0.17444810 0.48105040
v -0.02678476 -0.17452259 0.48728970
v -0.02044193 -0.17654601 0.49090981
v -0.01520065 -0.17766830 0.49291149
v -0.01260898 -0.17806230 0.49360821
v -0.00995795 -0.17836860 0.49415439
v -0.02818076 -0.07073742 0.19908860
v -0.02553962 -0.07157927 0.18499990
v -0.03464238 -0.06764316 0.18499990
v -0.02750682 -0.07134449 0.20696680
v 0.00000001 -0.07754534 0.21854250
v -0.02677427 -0.07254552 0.21576449
v -0.03900568 -0.06696575 0.21583350
v -0.06312577 -0.04971933 0.23686031
v -0.06469904 -0.05947054 0.27328610
v -0.03641193 -0.07255178 0.23613530
v -0.04453873 0.05609035 0.23626700
v -0.03967261 0.05987459 0.23960730
v -0.03494244 0.06361734 0.23343509
v -0.04495996 0.05455641 0.24834950
v -0.04957550 0.04822862 0.25852549
v -0.05321169 0.04066681 0.27068481
v -0.06292867 0.04215598 0.18719950
v -0.05556327 0.05185276 0.18500111
v -0.06328272 0.04208672 0.18500330
v -0.05540400 0.03301113 0.28324130
v -0.04383361 0.05810475 0.22202760
v -0.04312927 0.06011849 0.20778599
v -0.02448810 0.07194668 0.18500219
v -0.03589863 0.06698715 0.18500189
v -0.01879621 0.07193863 0.21349651
v -0.00581062 0.07421469 0.21596280
v -0.00000001 0.07445323 0.21557170
v -0.01143790 0.07346761 0.21717089
v -0.01672036 0.07224178 0.21918941
v -0.02159733 0.07064908 0.22182660
v -0.02603508 0.06878918 0.22490060
v -0.03008730 0.06670004 0.22834870
v -0.04242593 0.06213092 0.19354770
v -0.04635286 0.06022793 0.18500140
v -0.01759499 0.07268065 0.20558131
v -0.00000001 0.07599991 0.18500011
v -0.01639379 0.07342267 0.19766609
v -0.01519275 0.07416462 0.18975100
v -0.01242167 0.07497793 0.18500170
v -0.03759716 -0.09777635 0.54029328
v -0.04316644 -0.10427780 0.54068822
v -0.04243521 -0.10470000 0.54960853
v -0.04513584 -0.10314081 0.53102791
v -0.03375594 -0.09368199 0.53479880
v -0.04731069 -0.09487230 0.51187032
v -0.04697554 -0.10207861 0.52495861
v -0.04912321 -0.10083871 0.51973319
v -0.04471736 -0.08868521 0.50432032
v -0.04172365 -0.08337604 0.49838990
v -0.02920972 -0.08985769 0.52967381
v -0.03837363 -0.07875645 0.49364060
v 0.00000001 -0.07994532 0.51359189
v -0.00334858 -0.08031451 0.51685852
v 0.00000001 -0.08019983 0.51669961
v -0.03420477 -0.07423174 0.48934799
v -0.02270155 -0.08577561 0.52419013
v 0.00000001 -0.07922428 0.51041353
v -0.00665253 -0.08065360 0.51732022
v 0.00000001 -0.07798147 0.50688660
v -0.01162510 -0.08159857 0.51858729
v -0.02915495 -0.06998217 0.48561820
v -0.01666109 -0.08311975 0.52062237
v 0.00000001 -0.07621091 0.50305462
v -0.02375077 -0.06652051 0.48277959
v -0.01873665 -0.06409448 0.48088351
v 0.00000001 -0.07084405 0.49399260
v -0.01225923 -0.06191152 0.47923991
v -0.00620692 -0.06073188 0.47837290
v 0.00000001 -0.06032997 0.47808039
v 0.00000044 0.06249147 0.26413581
v -0.03589916 0.06258726 0.23668119
v -0.04386741 0.05508500 0.24969110
v 0.00000048 0.05731624 0.27682811
v -0.04842734 0.04859262 0.26105949
v -0.00000000 0.05077368 0.28930691
v -0.05329465 0.03501033 0.28466880
v -0.05586397 0.00339734 0.33896020
v -0.02375077 -0.06652051 0.48277959
v -0.02915495 -0.06998217 0.48561820
v -0.01873665 -0.06409448 0.48088351
v -0.03420477 -0.07423174 0.48934799
v -0.01225923 -0.06191152 0.47923991
v -0.03837363 -0.07875645 0.49364060
v -0.00620692 -0.06073188 0.47837290
v -0.04172365 -0.08337604 0.49838990
v 0.00000001 -0.06032997 0.47808039
v -0.04471736 -0.08868521 0.50432032
v -0.05128829 -0.11228691 0.53612143
v -0.05120628 -0.11206961 0.53585708
v -0.04912321 -0.10083871 0.51973319
v -0.04731069 -0.09487230 0.51187032
v -0.02301723 0.06875091 0.22948539
v -0.02890981 0.06713819 0.22879191
v -0.02195900 0.07036602 0.22319910
v -0.01594770 0.07233655 0.21978781
v -0.00015943 0.07419466 0.21723370
v -0.00529582 0.07417237 0.21659569
v -0.01044018 0.07354390 0.21769220
v -0.00000001 0.07437670 0.21623529
v -0.00000001 0.06931143 0.24065250
v -0.01000149 0.06892144 0.23976091
v -0.00332279 0.06896197 0.24181961
v -0.04665016 -0.14418820 0.60265309
v -0.04773115 -0.14043580 0.59545302
v -0.04794042 -0.14051640 0.59334868
v -0.04770122 -0.14040600 0.59757131
v -0.04713516 -0.14514270 0.59861350
v -0.05036829 -0.14122200 0.58533490
v -0.04901557 -0.14658549 0.59459990
v -0.04885678 -0.14080340 0.58924150
v -0.04607998 -0.14809740 0.60293472
v -0.04436778 -0.14999430 0.61045218
v -0.04661480 -0.15168700 0.60379678
v -0.04482798 -0.15056551 0.60692948
v -0.04350410 -0.15315489 0.61061841
v -0.04159407 -0.15510270 0.61731392
v -0.04068229 -0.15948820 0.61800963
v -0.04062919 -0.15696260 0.61796278
v -0.03919999 -0.15859990 0.62201351
v -0.03942733 -0.15873940 0.62044311
v -0.03928088 -0.15865050 0.62119871
v -0.04072294 -0.15701281 0.61756968
v -0.03964071 -0.15886749 0.61974633
v -0.04083584 -0.15707330 0.61719078
v -0.04026822 -0.15924200 0.61852968
v -0.03992103 -0.15903510 0.61910862
v -0.04635315 -0.11331361 0.56117821
v -0.04243521 -0.10470000 0.54960853
v -0.04316644 -0.10427780 0.54068822
v -0.05120628 -0.11206961 0.53585708
v -0.04697554 -0.10207861 0.52495861
v -0.04912321 -0.10083871 0.51973319
v -0.04794775 -0.14041109 0.59329247
v -0.04895090 -0.13137500 0.58544141
v -0.04883949 -0.14061341 0.58910191
v -0.05077140 -0.13815790 0.57989979
v -0.05076514 -0.13821600 0.58000249
v -0.05075847 -0.13827351 0.58010542
v -0.05075143 -0.13833070 0.58020848
v -0.05034058 -0.14101040 0.58512080
v -0.04735754 -0.11314940 0.54782480
v -0.04513584 -0.10314081 0.53102791
v -0.04830651 -0.11780111 0.55471522
v -0.04850958 -0.12228531 0.57323170
v -0.05552988 -0.14162780 0.45266330
v -0.04969870 -0.15796950 0.46211910
v -0.04676889 -0.16177110 0.46795830
v -0.05363815 -0.14974169 0.44889730
v -0.05606399 -0.14162830 0.43514231
v -0.01258764 -0.17754510 0.64200372
v -0.01010672 -0.17842241 0.49499699
v -0.00963221 -0.17800280 0.64335167
v -0.01539603 -0.17699189 0.64042389
v -0.02300880 -0.17480350 0.63482767
v -0.01667915 -0.17748950 0.49348500
v -0.02016030 -0.17672990 0.49223790
v -0.03193723 -0.17070509 0.62583971
v -0.02459751 -0.17545120 0.49011850
v -0.02872615 -0.17392680 0.48760331
v -0.03377007 -0.17157011 0.48373470
v -0.03874931 -0.16859379 0.47886360
v -0.04022083 -0.16478010 0.61511469
v -0.04307662 -0.16533290 0.47358051
v -0.04344235 -0.16154380 0.60953051
v -0.04618327 -0.15783550 0.60398650
v -0.04922238 -0.15126020 0.59470159
v -0.05114298 -0.14439321 0.58371848
v -0.05114971 -0.14436370 0.58366692
v -0.05115639 -0.14433470 0.58361512
v -0.05173145 -0.14169000 0.57863611
v -0.05116294 -0.14430630 0.58356303
v -0.01428959 -0.17627890 0.64435267
v -0.00949858 -0.17732289 0.64630252
v -0.00944130 -0.17727320 0.64671528
v -0.00953202 -0.17739570 0.64602500
v -0.00956152 -0.17749980 0.64574540
v -0.03928088 -0.15865050 0.62119871
v -0.03520636 -0.16328090 0.62830192
v -0.03919999 -0.15859990 0.62201351
v -0.03942733 -0.15873940 0.62044311
v -0.04026822 -0.15924200 0.61852968
v -0.03612338 -0.16400670 0.62531871
v -0.03992103 -0.15903510 0.61910862
v -0.04073213 -0.15954220 0.61796719
v -0.04068229 -0.15948820 0.61800963
v -0.01446000 -0.17601150 0.64480269
v -0.00937550 -0.17729470 0.64712387
v -0.01462856 -0.17596450 0.64533401
v -0.01665792 -0.17527179 0.64383441
v -0.01972065 -0.17405680 0.64277393
v -0.01864753 -0.17475539 0.64226711
v -0.01916615 -0.17430910 0.64242589
v -0.02116797 -0.17342819 0.64116567
v -0.02454362 -0.17161000 0.63948858
v -0.02264564 -0.17303890 0.63963842
v -0.02356878 -0.17226040 0.63941699
v -0.02633742 -0.17110381 0.63661700
v -0.02538012 -0.17125741 0.63795698
v -0.02837173 -0.16934180 0.63517362
v -0.03035006 -0.16766910 0.63419420
v -0.03069763 -0.16828831 0.63218713
v -0.03040287 -0.16787550 0.63300341
v -0.03308760 -0.16573450 0.62973499
v -0.03545586 -0.16351409 0.62657219
v -0.03964071 -0.15886749 0.61974633
v -0.05381916 -0.11593321 0.53402948
v -0.05824309 0.00060151 0.33729520
v -0.07593935 -0.00000144 0.18552260
v -0.05553935 -0.14157800 0.45266390
v -0.05178384 -0.14136130 0.57832611
v -0.05606399 -0.14162830 0.43514231
v -0.05552988 -0.14162780 0.45266330
v -0.07593935 -0.00000144 0.18552260
v -0.07599997 -0.00000047 0.18499990
v -0.07599890 -0.00028235 0.18500030
v -0.07484722 0.01318662 0.18500111
v -0.06767970 0.03432475 0.18578210
v -0.06809407 0.03375183 0.18500540
v -0.07181239 0.02487914 0.18500270
v -0.06328272 0.04208672 0.18500330
v -0.06520330 0.03259258 0.20852350
v -0.06973946 0.01660232 0.21493360
v -0.06274175 0.03087007 0.23205170
v -0.05540400 0.03301113 0.28324130
v -0.06602597 0.01565295 0.24409820
v -0.05824309 0.00060151 0.33729520
v -0.06021261 0.02904849 0.25702801
v -0.06258916 0.01471828 0.27279291
v -0.05772930 0.02731608 0.28206441
v -0.05934661 0.01389877 0.30154091
v -0.00500947 -0.07633578 0.14666550
v 0.00000001 -0.07649999 0.14666910
v 0.00000001 -0.07622432 0.14736760
v 0.00000001 -0.07605642 0.14809960
v 0.00000001 -0.07600003 0.14884840
v -0.01261739 -0.07494503 0.14884840
v -0.00999885 -0.07584369 0.14666550
v -0.01839899 -0.07425445 0.14667070
v -0.02476333 -0.07185316 0.14884840
v -0.02657020 -0.07173752 0.14666981
v -0.03485064 -0.06810045 0.14666820
v -0.03629749 -0.06677067 0.14884840
v -0.04307782 -0.06321824 0.14666881
v -0.04679422 -0.05988585 0.14884840
v -0.05064570 -0.05733460 0.14666919
v -0.05605351 -0.05132318 0.14884840
v -0.05742799 -0.05053980 0.14667051
v -0.06330322 -0.04295284 0.14666900
v -0.06372725 -0.04141038 0.14884840
v -0.06818473 -0.03468562 0.14666881
v -0.06969881 -0.03029925 0.14884840
v -0.07199001 -0.02587832 0.14667021
v -0.07373243 -0.01842821 0.14884850
v -0.07466393 -0.01665968 0.14666930
v -0.07576221 -0.00598783 0.14884850
v -0.07616257 -0.00717706 0.14666671
v -0.07646185 0.00241482 0.14666910
v -0.07570832 0.00663596 0.14884850
v -0.07555651 0.01197760 0.14666849
v -0.07357197 0.01905911 0.14884850
v -0.07346153 0.02134590 0.14667051
v -0.06943696 0.03089391 0.14884850
v -0.07020741 0.03038364 0.14666860
v -0.06584316 0.03894769 0.14666620
v -0.06336998 0.04195511 0.14884850
v -0.06043916 0.04689723 0.14667051
v -0.05561293 0.05180001 0.14884850
v -0.05408686 0.05410045 0.14666900
v -0.04628843 0.06027883 0.14884850
v -0.04748255 0.05998039 0.14666919
v -0.03684122 0.06704455 0.14666849
v -0.03572190 0.06708246 0.14884850
v -0.02664245 0.07117736 0.14884850
v -0.02516204 0.07224345 0.14667021
v -0.01764541 0.07392346 0.14884850
v -0.01276267 0.07542783 0.14666820
v -0.00892014 0.07547372 0.14884850
v -0.00000001 0.07605636 0.14809960
v -0.00000001 0.07622426 0.14736760
v -0.00000001 0.07649999 0.14666900
v -0.07599890 -0.00028235 0.18500030
v -0.07593935 -0.00000144 0.18552260
v -0.07599890 -0.00028235 0.18500030
v -0.05624919 -0.13963650 0.42771509
v -0.05386691 -0.14454810 0.43321109
v -0.05441980 -0.14419930 0.43348229
v -0.05490868 -0.14378411 0.43378130
v -0.05532454 -0.14331010 0.43410251
v -0.05565976 -0.14278629 0.43444020
v -0.05590807 -0.14222200 0.43478799
v -0.05606399 -0.14162830 0.43514231
v -0.05994223 -0.11693791 0.38821459
v -0.06617634 -0.07171143 0.30951351
v -0.07119178 -0.03549696 0.24657319
v -0.07367104 -0.01735884 0.21511370
v -0.04418883 -0.16369160 0.46785289
v -0.04969870 -0.15796950 0.46211910
v -0.04838077 -0.15840730 0.45814401
v -0.04676889 -0.16177110 0.46795830
v -0.04307662 -0.16533290 0.47358051
v -0.03859691 -0.16832361 0.47621021
v -0.03874931 -0.16859379 0.47886360
v -0.03345117 -0.17148501 0.48186919
v -0.03377007 -0.17157011 0.48373470
v -0.02872615 -0.17392680 0.48760331
v -0.02678476 -0.17452259 0.48728970
v -0.02459751 -0.17545120 0.49011850
v -0.02044193 -0.17654601 0.49090981
v -0.02016030 -0.17672990 0.49223790
v -0.01667915 -0.17748950 0.49348500
v -0.01520065 -0.17766830 0.49291149
v -0.01260898 -0.17806230 0.49360821
v -0.01000885 -0.17840210 0.49443391
v -0.00995795 -0.17836860 0.49415439
v -0.01005850 -0.17842010 0.49471501
v -0.01010672 -0.17842241 0.49499699
v -0.05417292 -0.14728330 0.44101250
v -0.05386691 -0.14454810 0.43321109
v -0.05363815 -0.14974169 0.44889730
v -0.05606399 -0.14162830 0.43514231
v -0.05441980 -0.14419930 0.43348229
v -0.05490868 -0.14378411 0.43378130
v -0.05532454 -0.14331010 0.43410251
v -0.05565976 -0.14278629 0.43444020
v -0.05590807 -0.14222200 0.43478799
v -0.05142234 -0.15444569 0.45343700
v -0.00500367 -0.17870951 0.49476010
v -0.01000885 -0.17840210 0.49443391
v -0.00995795 -0.17836860 0.49415439
v -0.01005850 -0.17842010 0.49471501
v -0.01010672 -0.17842241 0.49499699
v 0.00000002 -0.17884560 0.49520621
v 0.00000002 -0.17880359 0.49491021
v 0.00000002 -0.17887039 0.49550420
v 0.00000002 -0.17887810 0.49580300
v -0.04773115 -0.14043580 0.59545302
v -0.04770122 -0.14040600 0.59757131
v -0.04770122 -0.14040600 0.59757131
v -0.04780625 -0.14043000 0.59449822
v -0.04794775 -0.14041109 0.59329247
v -0.04794042 -0.14051640 0.59334868
v -0.04827420 -0.14055310 0.59144050
v -0.04885678 -0.14080340 0.58924150
v -0.04883949 -0.14061341 0.58910191
v -0.04916535 -0.14079820 0.58818322
v -0.05036829 -0.14122200 0.58533490
v -0.05034058 -0.14101040 0.58512080
v -0.05035953 -0.14115080 0.58526409
v -0.05035029 -0.14108030 0.58519268
v -0.05552988 -0.14162780 0.45266330
v -0.05178384 -0.14136130 0.57832611
v -0.05553935 -0.14157800 0.45266390
v -0.05173145 -0.14169000 0.57863611
v -0.05175005 -0.14158119 0.57853210
v -0.05176751 -0.14147170 0.57842880
v -0.00543760 -0.17834049 0.64463443
v -0.00956081 -0.17750500 0.64573681
v -0.00956802 -0.17778420 0.64497513
v -0.00957207 -0.17795250 0.64418691
v -0.00959067 -0.17799240 0.64378673
v -0.00963007 -0.17800300 0.64338320
v -0.00475155 -0.17820190 0.64614302
v -0.00273697 -0.17847800 0.64510292
v 0.00000002 -0.17853180 0.64562058
v 0.00000002 -0.17854410 0.64527732
v 0.00000002 -0.17849670 0.64596230
v 0.00000002 -0.17843920 0.64630097
v -0.01428959 -0.17627890 0.64435267
v -0.00956802 -0.17778420 0.64497513
v -0.00956081 -0.17750500 0.64573681
v -0.00957207 -0.17795250 0.64418691
v -0.00956152 -0.17749980 0.64574540
v -0.01258764 -0.17754510 0.64200372
v -0.00959067 -0.17799240 0.64378673
v -0.00963007 -0.17800300 0.64338320
v -0.00963221 -0.17800280 0.64335167
v -0.01712999 -0.17623800 0.64143109
v -0.01864753 -0.17475539 0.64226711
v -0.01539603 -0.17699189 0.64042389
v -0.01922045 -0.17561319 0.64016938
v -0.02264564 -0.17303890 0.63963842
v -0.02300880 -0.17480350 0.63482767
v -0.02313320 -0.17421930 0.63742381
v -0.02633742 -0.17110381 0.63661700
v -0.02501594 -0.17343020 0.63591433
v -0.02743462 -0.17229410 0.63376909
v -0.03069763 -0.16828831 0.63218713
v -0.03193723 -0.17070509 0.62583971
v -0.03186302 -0.16983239 0.62931669
v -0.03482674 -0.16787121 0.62592030
v -0.03612338 -0.16400670 0.62531871
v -0.03896866 -0.16411281 0.62087339
v -0.04073213 -0.15954220 0.61796719
v -0.04105793 -0.16031680 0.61776727
v -0.04126202 -0.16110390 0.61749399
v -0.04134146 -0.16188531 0.61715460
v -0.03894858 -0.16439261 0.62072778
v -0.04129450 -0.16264451 0.61675620
v -0.03891078 -0.16467389 0.62057000
v -0.04112092 -0.16336089 0.61630869
v -0.04082505 -0.16401210 0.61582571
v -0.04054848 -0.16442031 0.61547238
v -0.04022083 -0.16478010 0.61511469
v -0.03571926 -0.16803060 0.62327731
v -0.03635690 -0.16614740 0.62455118
v -0.04901557 -0.14658549 0.59459990
v -0.05036829 -0.14122200 0.58533490
v -0.05072390 -0.14181431 0.58505952
v -0.05098347 -0.14244050 0.58475369
v -0.05114160 -0.14308800 0.58442372
v -0.05119513 -0.14374331 0.58407623
v -0.04950903 -0.14886150 0.59476471
v -0.05114298 -0.14439321 0.58371848
v -0.04922238 -0.15126020 0.59470159
v -0.04849831 -0.15167080 0.59929341
v -0.04661480 -0.15168700 0.60379678
v -0.04618327 -0.15783550 0.60398650
v -0.04709546 -0.15469749 0.60412288
v -0.04605303 -0.15651409 0.60702312
v -0.04068229 -0.15948820 0.61800963
v -0.04344235 -0.16154380 0.60953051
v -0.04273354 -0.16158150 0.61361653
v -0.04022083 -0.16478010 0.61511469
v -0.04082505 -0.16401210 0.61582571
v -0.04112092 -0.16336089 0.61630869
v -0.04054848 -0.16442031 0.61547238
v -0.04280309 -0.16120981 0.61384058
v -0.04129450 -0.16264451 0.61675620
v -0.04284059 -0.16080710 0.61406273
v -0.04283480 -0.16077700 0.61409712
v -0.04073213 -0.15954220 0.61796719
v -0.04105793 -0.16031680 0.61776727
v -0.04126202 -0.16110390 0.61749399
v -0.04134146 -0.16188531 0.61715460
v -0.05072390 -0.14181431 0.58505952
v -0.05036829 -0.14122200 0.58533490
v -0.05035953 -0.14115080 0.58526409
v -0.05035029 -0.14108030 0.58519268
v -0.05071615 -0.14162150 0.58485830
v -0.05034058 -0.14101040 0.58512080
v -0.05098347 -0.14244050 0.58475369
v -0.05099098 -0.14227089 0.58456469
v -0.05114160 -0.14308800 0.58442372
v -0.05115907 -0.14294460 0.58424628
v -0.05119513 -0.14374331 0.58407623
v -0.05121677 -0.14362800 0.58390993
v -0.05114971 -0.14436370 0.58366692
v -0.05114298 -0.14439321 0.58371848
v -0.05115639 -0.14433470 0.58361512
v -0.05116294 -0.14430630 0.58356303
v -0.05116783 -0.13894270 0.57994682
v -0.05071615 -0.14162150 0.58485830
v -0.05075143 -0.13833070 0.58020848
v -0.05147980 -0.13959980 0.57965147
v -0.05099098 -0.14227089 0.58456469
v -0.05168037 -0.14028729 0.57932973
v -0.05115907 -0.14294460 0.58424628
v -0.05176489 -0.14098930 0.57898867
v -0.05121677 -0.14362800 0.58390993
v -0.05116294 -0.14430630 0.58356303
v -0.05173145 -0.14169000 0.57863611
v -0.05116783 -0.13894270 0.57994682
v -0.05075143 -0.13833070 0.58020848
v -0.05075847 -0.13827351 0.58010542
v -0.05076514 -0.13821600 0.58000249
v -0.05117862 -0.13873941 0.57963407
v -0.05077140 -0.13815790 0.57989979
v -0.05147980 -0.13959980 0.57965147
v -0.05148892 -0.13936409 0.57933730
v -0.05168037 -0.14028729 0.57932973
v -0.05169581 -0.14001870 0.57901567
v -0.05176489 -0.14098930 0.57898867
v -0.05179481 -0.14068910 0.57867628
v -0.05175005 -0.14158119 0.57853210
v -0.05173145 -0.14169000 0.57863611
v -0.05176751 -0.14147170 0.57842880
v -0.05178384 -0.14136130 0.57832611
v -0.05234288 -0.13334049 0.56789422
v -0.05117862 -0.13873941 0.57963407
v -0.05077140 -0.13815790 0.57989979
v -0.05148892 -0.13936409 0.57933730
v -0.05169581 -0.14001870 0.57901567
v -0.05179481 -0.14068910 0.57867628
v -0.05178384 -0.14136130 0.57832611
v -0.05258273 -0.13009630 0.56230372
v -0.05272733 -0.12677740 0.55674380
v -0.05120628 -0.11206961 0.53585708
v -0.05128829 -0.11228691 0.53612143
v -0.05381916 -0.11593321 0.53402948
v -0.05293898 -0.12018231 0.54566920
v -0.05300598 -0.11684421 0.54017562
v -0.05198090 -0.11271971 0.53588319
v -0.05258374 -0.11324301 0.53558910
v -0.05308060 -0.11384281 0.53524709
v -0.05345832 -0.11450301 0.53486621
v -0.05370669 -0.11520611 0.53445667
v -0.05586397 0.00339734 0.33896020
v -0.05198090 -0.11271971 0.53588319
v -0.05128829 -0.11228691 0.53612143
v -0.05586397 0.00339734 0.33896020
v -0.05643016 0.00305998 0.33875629
v -0.05258374 -0.11324301 0.53558910
v -0.05693870 0.00266152 0.33851671
v -0.05308060 -0.11384281 0.53524709
v -0.05738121 0.00220864 0.33824530
v -0.05345832 -0.11450301 0.53486621
v -0.05774998 0.00170916 0.33794680
v -0.05370669 -0.11520611 0.53445667
v -0.05803865 0.00117176 0.33762640
v -0.05381916 -0.11593321 0.53402948
v -0.05824309 0.00060151 0.33729520
v -0.05329465 0.03501033 0.28466880
v -0.05643016 0.00305998 0.33875629
v -0.05586397 0.00339734 0.33896020
v -0.05396057 0.03463417 0.28436691
v -0.05693870 0.00266152 0.33851671
v -0.05454344 0.03416746 0.28402251
v -0.05738121 0.00220864 0.33824530
v -0.05774998 0.00170916 0.33794680
v -0.05502867 0.03362178 0.28364429
v -0.05803865 0.00117176 0.33762640
v -0.05540400 0.03301113 0.28324130
v -0.05824309 0.00060151 0.33729520
v -0.05321169 0.04066681 0.27068481
v -0.05396057 0.03463417 0.28436691
v -0.05329465 0.03501033 0.28466880
v -0.05454344 0.03416746 0.28402251
v -0.05502867 0.03362178 0.28364429
v -0.05540400 0.03301113 0.28324130
v -0.04842734 0.04859262 0.26105949
v -0.04957550 0.04822862 0.25852549
v -0.04386741 0.05508500 0.24969110
v -0.04495996 0.05455641 0.24834950
v -0.03967261 0.05987459 0.23960730
v -0.03589916 0.06258726 0.23668119
v -0.03494244 0.06361734 0.23343509
v -0.02890981 0.06713819 0.22879191
v -0.03008730 0.06670004 0.22834870
v -0.02603508 0.06878918 0.22490060
v -0.02195900 0.07036602 0.22319910
v -0.01594770 0.07233655 0.21978781
v -0.01672036 0.07224178 0.21918941
v -0.01143790 0.07346761 0.21717089
v -0.01044018 0.07354390 0.21769220
v -0.00581062 0.07421469 0.21596280
v -0.00529582 0.07417237 0.21659569
v -0.00000001 0.07441169 0.21601529
v -0.00000001 0.07437670 0.21623529
v -0.00000001 0.07443720 0.21579389
v -0.00000001 0.07445323 0.21557170
v -0.00000001 0.07599991 0.18500011
v -0.00000001 0.07599991 0.14884850
v -0.00892014 0.07547372 0.14884850
v -0.01242167 0.07497793 0.18500170
v -0.01764541 0.07392346 0.14884850
v -0.02448810 0.07194668 0.18500219
v -0.02664245 0.07117736 0.14884850
v -0.03589863 0.06698715 0.18500189
v -0.03572190 0.06708246 0.14884850
v -0.04628843 0.06027883 0.14884850
v -0.04635286 0.06022793 0.18500140
v -0.05561293 0.05180001 0.14884850
v -0.05556327 0.05185276 0.18500111
v -0.06328272 0.04208672 0.18500330
v -0.06336998 0.04195511 0.14884850
v -0.06809407 0.03375183 0.18500540
v -0.06943696 0.03089391 0.14884850
v -0.07181239 0.02487914 0.18500270
v -0.07357197 0.01905911 0.14884850
v -0.07484722 0.01318662 0.18500111
v -0.07570832 0.00663596 0.14884850
v -0.07599997 -0.00000047 0.18499990
v -0.07576221 -0.00598783 0.14884850
v -0.07599890 -0.00028235 0.18500030
v -0.07561182 -0.00764579 0.18499990
v -0.07451289 -0.01493729 0.18499990
v -0.07373243 -0.01842821 0.14884850
v -0.07198673 -0.02436531 0.18499990
v -0.06969881 -0.03029925 0.14884840
v -0.06827068 -0.03339059 0.18499990
v -0.06372725 -0.04141038 0.14884840
v -0.06342512 -0.04186345 0.18499990
v -0.05753856 -0.04964918 0.18499990
v -0.05605351 -0.05132318 0.14884840
v -0.05070136 -0.05661463 0.18499990
v -0.04679422 -0.05988585 0.14884840
v -0.04302501 -0.06264300 0.18499990
v -0.03629749 -0.06677067 0.14884840
v -0.03464238 -0.06764316 0.18499990
v -0.02476333 -0.07185316 0.14884840
v -0.02553962 -0.07157927 0.18499990
v -0.01295887 -0.07488250 0.18499990
v -0.01261739 -0.07494503 0.14884840
v 0.00000001 -0.07600003 0.18499880
v 0.00000001 -0.07600003 0.14884840
v 0.01261741 -0.07494503 0.14884840
v 0.01316637 -0.07485085 0.18499880
v 0.02476335 -0.07185316 0.14884840
v 0.02593458 -0.07143807 0.18499880
v 0.03629751 -0.06677067 0.14884840
v 0.03791851 -0.06586492 0.18499880
v 0.04679423 -0.05988584 0.14884840
v 0.04875571 -0.05829995 0.18499880
v 0.05605352 -0.05132317 0.14884840
v 0.05811846 -0.04897189 0.18499880
v 0.06372725 -0.04141038 0.14884840
v 0.06572365 -0.03816281 0.18499880
v 0.06969881 -0.03029924 0.14884840
v 0.07134127 -0.02619968 0.18499871
v 0.07373243 -0.01842820 0.14884850
v 0.07480138 -0.01344423 0.18499871
v 0.07576221 -0.00598782 0.14884850
v 0.07599943 -0.00028224 0.18499871
v 0.07599997 -0.00000046 0.18499990
v 0.07570832 0.00663597 0.14884850
v 0.07484722 0.01318664 0.18500111
v 0.07357197 0.01905913 0.14884850
v 0.07181239 0.02487916 0.18500270
v 0.06943696 0.03089393 0.14884850
v 0.06809407 0.03375185 0.18500540
v 0.06336998 0.04195511 0.14884850
v 0.06328386 0.04208750 0.18500330
v 0.05561292 0.05180001 0.14884850
v 0.05556380 0.05185694 0.18500160
v 0.04635012 0.06023126 0.18500170
v 0.04628843 0.06027883 0.14884850
v 0.03589563 0.06698977 0.18500219
v 0.03572188 0.06708246 0.14884850
v 0.02664243 0.07117736 0.14884850
v 0.02447961 0.07195031 0.18500240
v 0.01764540 0.07392346 0.14884850
v 0.01240723 0.07498079 0.18500170
v 0.00892013 0.07547372 0.14884850
v -0.00000001 0.07599991 0.18500011
v -0.00000001 0.07599991 0.14884850
v 0.00313498 -0.17809960 0.64820588
v 0.00000002 -0.17825980 0.64739722
v 0.00000002 -0.17843920 0.64630097
v 0.00000002 -0.17820001 0.64834023
v 0.00475158 -0.17820190 0.64614302
v 0.00626446 -0.17779790 0.64780062
v 0.00944133 -0.17727320 0.64671528
v 0.00937553 -0.17729470 0.64712387
v 0.00949861 -0.17732289 0.64630252
v 0.00953205 -0.17739570 0.64602500
v 0.00956084 -0.17750500 0.64573681
v 0.00956155 -0.17749980 0.64574540
v 0.00963224 -0.17800280 0.64335167
v 0.00963010 -0.17800300 0.64338320
v 0.00543763 -0.17834049 0.64463443
v 0.00601943 -0.17838490 0.60902250
v 0.00273700 -0.17847800 0.64510292
v 0.00000002 -0.17854410 0.64527732
v 0.00247438 -0.17862390 0.57294691
v 0.00000002 -0.17887810 0.49580300
v 0.00606896 -0.17846660 0.57262307
v 0.01010676 -0.17842241 0.49499699
v 0.00287183 -0.17871881 0.53665459
v 0.00637569 -0.17856760 0.53636622
v 0.00000001 -0.07612097 0.20288859
v 0.00000001 -0.07600003 0.18499880
v 0.01316637 -0.07485085 0.18499880
v 0.05276566 -0.05501049 0.19530670
v 0.03791851 -0.06586492 0.18499880
v 0.04875571 -0.05829995 0.18499880
v 0.05811846 -0.04897189 0.18499880
v 0.06572365 -0.03816281 0.18499880
v 0.06914752 -0.03186767 0.19537650
v 0.07134127 -0.02619968 0.18499871
v 0.07480138 -0.01344423 0.18499871
v 0.07599943 -0.00028224 0.18499871
v 0.03408170 -0.12037780 0.35379291
v 0.00000001 -0.15865269 0.42488730
v 0.00000001 -0.08107936 0.23582980
v 0.04106260 -0.08721143 0.28593820
v 0.04946232 -0.11262719 0.35792571
v 0.05386693 -0.14454810 0.43321109
v 0.02774239 -0.15506659 0.42657951
v 0.04153337 -0.15207741 0.43305251
v 0.04838080 -0.15840730 0.45814401
v 0.02022381 -0.16896360 0.46061340
v 0.00000002 -0.17278519 0.46767330
v 0.03048415 -0.16847280 0.46714291
v 0.04418886 -0.16369160 0.46785289
v 0.03859694 -0.16832361 0.47621021
v 0.03345120 -0.17148501 0.48186919
v 0.01341905 -0.17413850 0.47572821
v 0.00500371 -0.17870951 0.49476010
v 0.00000002 -0.17880359 0.49491021
v 0.02027394 -0.17444810 0.48105040
v 0.02678479 -0.17452259 0.48728970
v 0.02044195 -0.17654601 0.49090981
v 0.01520069 -0.17766830 0.49291149
v 0.01260902 -0.17806230 0.49360821
v 0.00995799 -0.17836860 0.49415439
v 0.02818071 -0.07073748 0.19908860
v 0.02593458 -0.07143807 0.18499880
v 0.02750683 -0.07134449 0.20696680
v 0.00000001 -0.07754534 0.21854250
v 0.02677429 -0.07254552 0.21576449
v 0.03900570 -0.06696575 0.21583350
v 0.06312579 -0.04971915 0.23686001
v 0.06469912 -0.05947034 0.27328581
v 0.03641201 -0.07255172 0.23613510
v 0.04453873 0.05609035 0.23626700
v 0.03494244 0.06361728 0.23343520
v 0.03967261 0.05987453 0.23960730
v 0.04496001 0.05455636 0.24834961
v 0.04957556 0.04822856 0.25852561
v 0.05321174 0.04066676 0.27068490
v 0.06292867 0.04215598 0.18719950
v 0.06328386 0.04208750 0.18500330
v 0.05556380 0.05185694 0.18500160
v 0.05540400 0.03301108 0.28324139
v 0.04383361 0.05810475 0.22202760
v 0.04312926 0.06011849 0.20778599
v 0.03589563 0.06698977 0.18500219
v 0.02447961 0.07195031 0.18500240
v 0.01879619 0.07193863 0.21349651
v -0.00000001 0.07445323 0.21557170
v 0.00581061 0.07421469 0.21596280
v 0.01143794 0.07346761 0.21717100
v 0.01672035 0.07224172 0.21918941
v 0.02159731 0.07064908 0.22182670
v 0.02603512 0.06878918 0.22490060
v 0.03008728 0.06669998 0.22834870
v 0.04242593 0.06213092 0.19354770
v 0.04635012 0.06023126 0.18500170
v 0.01759498 0.07268065 0.20558131
v -0.00000001 0.07599991 0.18500011
v 0.01639378 0.07342267 0.19766609
v 0.01519273 0.07416462 0.18975100
v 0.01240723 0.07498079 0.18500170
v 0.04316646 -0.10427779 0.54068822
v 0.03884662 -0.09933465 0.54240400
v 0.04243702 -0.10469900 0.54960853
v 0.03445519 -0.09435981 0.53572011
v 0.04513586 -0.10314079 0.53102791
v 0.04763973 -0.09582137 0.51308417
v 0.04697556 -0.10207859 0.52495861
v 0.04912323 -0.10083869 0.51973319
v 0.04582805 -0.09109312 0.50718027
v 0.04284621 -0.08520238 0.50037241
v 0.03947258 -0.08015483 0.49503821
v 0.02920956 -0.08985793 0.52967381
v 0.03639651 -0.07647281 0.49143139
v 0.02312059 -0.08599728 0.52448970
v 0.00000001 -0.07994532 0.51359189
v 0.00000001 -0.08019983 0.51669961
v 0.00332916 -0.08031320 0.51685250
v 0.03266347 -0.07281213 0.48807049
v 0.00000001 -0.07922428 0.51041353
v 0.00665493 -0.08065390 0.51731122
v 0.00000001 -0.07798147 0.50688660
v 0.01186693 -0.08165812 0.51865977
v 0.02826101 -0.06933999 0.48507851
v 0.01734752 -0.08337396 0.52096319
v 0.00000001 -0.07621091 0.50305462
v 0.02336604 -0.06630986 0.48261240
v 0.01798559 -0.06379151 0.48065379
v 0.01224959 -0.06190967 0.47923920
v 0.00620086 -0.06073206 0.47837409
v 0.00000001 -0.06032997 0.47808039
v 0.00000044 0.06249147 0.26413581
v 0.04386740 0.05508500 0.24969110
v 0.03589915 0.06258726 0.23668119
v 0.00000048 0.05731624 0.27682811
v 0.04842734 0.04859262 0.26105949
v -0.00000000 0.05077368 0.28930691
v 0.05329465 0.03501033 0.28466880
v 0.05586373 0.00339759 0.33896029
v 0.02336604 -0.06630986 0.48261240
v 0.02826101 -0.06933999 0.48507851
v 0.03266347 -0.07281213 0.48807049
v 0.01798559 -0.06379151 0.48065379
v 0.03639651 -0.07647281 0.49143139
v 0.01224959 -0.06190967 0.47923920
v 0.03947258 -0.08015483 0.49503821
v 0.00620086 -0.06073206 0.47837409
v 0.04284621 -0.08520238 0.50037241
v 0.00000001 -0.06032997 0.47808039
v 0.04582805 -0.09109312 0.50718027
v 0.05128831 -0.11228690 0.53612143
v 0.04912323 -0.10083869 0.51973319
v 0.05120630 -0.11206959 0.53585708
v 0.04763973 -0.09582137 0.51308417
v 0.02301721 0.06875091 0.22948539
v 0.02890979 0.06713819 0.22879191
v 0.02195899 0.07036602 0.22319910
v 0.01594768 0.07233655 0.21978781
v 0.00015941 0.07419466 0.21723370
v 0.01044016 0.07354390 0.21769220
v 0.00529581 0.07417237 0.21659569
v -0.00000001 0.07437670 0.21623529
v -0.00000001 0.06931143 0.24065250
v 0.01000147 0.06892144 0.23976091
v 0.00332277 0.06896197 0.24181961
v 0.04665047 -0.14418830 0.60265309
v 0.04794044 -0.14051640 0.59334868
v 0.04773117 -0.14043580 0.59545302
v 0.04770124 -0.14040600 0.59757131
v 0.04713518 -0.14514279 0.59861350
v 0.04901565 -0.14658560 0.59459990
v 0.05036831 -0.14122200 0.58533490
v 0.04885680 -0.14080340 0.58924150
v 0.04608000 -0.14809740 0.60293472
v 0.04436798 -0.14999440 0.61045218
v 0.04661537 -0.15168740 0.60379702
v 0.04482806 -0.15056580 0.60692942
v 0.04350419 -0.15315519 0.61061829
v 0.04159392 -0.15510270 0.61731380
v 0.04068245 -0.15948820 0.61800969
v 0.04062922 -0.15696260 0.61796278
v 0.03920013 -0.15859990 0.62201363
v 0.03928091 -0.15865050 0.62119871
v 0.03942735 -0.15873940 0.62044311
v 0.04072297 -0.15701281 0.61756968
v 0.03964074 -0.15886749 0.61974633
v 0.04083586 -0.15707330 0.61719078
v 0.04026825 -0.15924200 0.61852968
v 0.03992106 -0.15903510 0.61910862
v 0.04615772 -0.11274339 0.56041431
v 0.04316646 -0.10427779 0.54068822
v 0.04243702 -0.10469900 0.54960853
v 0.05120630 -0.11206959 0.53585708
v 0.04912323 -0.10083869 0.51973319
v 0.04697556 -0.10207859 0.52495861
v 0.04794777 -0.14041109 0.59329247
v 0.04894949 -0.13137500 0.58544141
v 0.04770124 -0.14040600 0.59757131
v 0.04883951 -0.14061341 0.58910191
v 0.05077142 -0.13815790 0.57989979
v 0.05076516 -0.13821600 0.58000249
v 0.05075849 -0.13827351 0.58010542
v 0.05075145 -0.13833070 0.58020848
v 0.05034060 -0.14101040 0.58512080
v 0.04728574 -0.11284620 0.54738569
v 0.04513586 -0.10314079 0.53102791
v 0.04822147 -0.11729550 0.55396122
v 0.04835660 -0.12129299 0.57189882
v 0.05552990 -0.14162780 0.45266330
v 0.04676897 -0.16177110 0.46795821
v 0.04969878 -0.15796940 0.46211889
v 0.05363818 -0.14974150 0.44889700
v 0.05606413 -0.14162830 0.43514201
v 0.01258768 -0.17754510 0.64200372
v 0.00963224 -0.17800280 0.64335167
v 0.01010676 -0.17842241 0.49499699
v 0.01539607 -0.17699189 0.64042389
v 0.02300883 -0.17480350 0.63482767
v 0.01667918 -0.17748950 0.49348491
v 0.02016032 -0.17672990 0.49223790
v 0.03193726 -0.17070509 0.62583971
v 0.02459759 -0.17545120 0.49011841
v 0.02872624 -0.17392680 0.48760331
v 0.03377016 -0.17157011 0.48373470
v 0.03874940 -0.16859370 0.47886351
v 0.04022086 -0.16478010 0.61511469
v 0.04307671 -0.16533279 0.47358051
v 0.04344238 -0.16154380 0.60953051
v 0.04618330 -0.15783550 0.60398650
v 0.04922241 -0.15126020 0.59470159
v 0.05114300 -0.14439321 0.58371848
v 0.05114973 -0.14436370 0.58366692
v 0.05115641 -0.14433470 0.58361512
v 0.05173147 -0.14169000 0.57863611
v 0.05116296 -0.14430630 0.58356303
v 0.01428963 -0.17627890 0.64435267
v 0.00949861 -0.17732289 0.64630252
v 0.00953205 -0.17739570 0.64602500
v 0.00956155 -0.17749980 0.64574540
v 0.04073216 -0.15954220 0.61796719
v 0.04068245 -0.15948820 0.61800969
v 0.04026825 -0.15924200 0.61852968
v 0.03920133 -0.15860111 0.62201327
v 0.03928091 -0.15865050 0.62119871
v 0.03920013 -0.15859990 0.62201363
v 0.01440139 -0.17602910 0.64482999
v 0.01451238 -0.17600159 0.64538717
v 0.00937553 -0.17729470 0.64712387
v 0.00944133 -0.17727320 0.64671528
v 0.01660169 -0.17529140 0.64386529
v 0.01955833 -0.17412740 0.64287132
v 0.01864756 -0.17475539 0.64226711
v 0.01908446 -0.17434260 0.64247638
v 0.02108938 -0.17346400 0.64122021
v 0.02454365 -0.17161000 0.63948858
v 0.02264567 -0.17303890 0.63963842
v 0.02356881 -0.17226040 0.63941699
v 0.02633745 -0.17110381 0.63661700
v 0.02538015 -0.17125741 0.63795698
v 0.02816023 -0.16948710 0.63538539
v 0.02995636 -0.16797650 0.63461059
v 0.03069765 -0.16828831 0.63218713
v 0.03020329 -0.16802740 0.63322401
v 0.03279079 -0.16592340 0.63020527
v 0.03485573 -0.16363950 0.62878507
v 0.03612341 -0.16400670 0.62531871
v 0.03527648 -0.16369230 0.62682551
v 0.03761216 -0.16120970 0.62332880
v 0.03964074 -0.15886749 0.61974633
v 0.03942735 -0.15873940 0.62044311
v 0.03772248 -0.16128200 0.62302297
v 0.03992106 -0.15903510 0.61910862
v 0.05381918 -0.11593319 0.53402948
v 0.07593983 -0.00000145 0.18552260
v 0.05824309 0.00060125 0.33729509
v 0.05553937 -0.14157800 0.45266390
v 0.05178386 -0.14136130 0.57832611
v 0.05606413 -0.14162830 0.43514201
v 0.05552990 -0.14162780 0.45266330
v 0.07593983 -0.00000145 0.18552260
v 0.07599943 -0.00028224 0.18499871
v 0.07599997 -0.00000046 0.18499990
v 0.07484722 0.01318664 0.18500111
v 0.06767970 0.03432477 0.18578210
v 0.07181239 0.02487916 0.18500270
v 0.06809407 0.03375185 0.18500540
v 0.06328386 0.04208750 0.18500330
v 0.06520330 0.03259260 0.20852350
v 0.06973946 0.01660234 0.21493360
v 0.06274175 0.03087008 0.23205170
v 0.05540400 0.03301108 0.28324139
v 0.06602597 0.01565296 0.24409820
v 0.05824309 0.00060125 0.33729509
v 0.06021260 0.02904851 0.25702801
v 0.06258916 0.01471830 0.27279291
v 0.05772930 0.02731610 0.28206441
v 0.05934661 0.01389879 0.30154091
v 0.07593983 -0.00000145 0.18552260
v 0.07599943 -0.00028224 0.18499871
v 0.07599943 -0.00028224 0.18499871
v 0.06616569 -0.07178818 0.30964670
v 0.05452312 -0.14412120 0.43354020
v 0.05386693 -0.14454810 0.43321109
v 0.05508453 -0.14360081 0.43390781
v 0.06625200 -0.07150380 0.30981359
v 0.05553610 -0.14300071 0.43430400
v 0.06631536 -0.07122092 0.30997789
v 0.05606413 -0.14162830 0.43514201
v 0.05586589 -0.14233699 0.43471840
v 0.04418886 -0.16369160 0.46785289
v 0.04969878 -0.15796940 0.46211889
v 0.04676897 -0.16177110 0.46795821
v 0.04838080 -0.15840730 0.45814401
v 0.04307671 -0.16533279 0.47358051
v 0.03859694 -0.16832361 0.47621021
v 0.03874940 -0.16859370 0.47886351
v 0.03345120 -0.17148501 0.48186919
v 0.03377016 -0.17157011 0.48373470
v 0.02872624 -0.17392680 0.48760331
v 0.02678479 -0.17452259 0.48728970
v 0.02459759 -0.17545120 0.49011841
v 0.02044195 -0.17654601 0.49090981
v 0.02016032 -0.17672990 0.49223790
v 0.01667918 -0.17748950 0.49348491
v 0.01520069 -0.17766830 0.49291149
v 0.01260902 -0.17806230 0.49360821
v 0.01010676 -0.17842241 0.49499699
v 0.01005854 -0.17842010 0.49471501
v 0.01000889 -0.17840210 0.49443391
v 0.00995799 -0.17836860 0.49415439
v 0.05417294 -0.14728330 0.44101229
v 0.05606413 -0.14162830 0.43514201
v 0.05363818 -0.14974150 0.44889700
v 0.05386693 -0.14454810 0.43321109
v 0.05452312 -0.14412120 0.43354020
v 0.05508453 -0.14360081 0.43390781
v 0.05553610 -0.14300071 0.43430400
v 0.05586589 -0.14233699 0.43471840
v 0.05142237 -0.15444569 0.45343691
v 0.00500371 -0.17870951 0.49476010
v 0.00995799 -0.17836860 0.49415439
v 0.01000889 -0.17840210 0.49443391
v 0.01005854 -0.17842010 0.49471501
v 0.01010676 -0.17842241 0.49499699
v 0.00000002 -0.17887810 0.49580300
v 0.00000002 -0.17887039 0.49550420
v 0.00000002 -0.17884560 0.49520621
v 0.00000002 -0.17880359 0.49491021
v 0.04773117 -0.14043580 0.59545302
v 0.04770124 -0.14040600 0.59757131
v 0.04770124 -0.14040600 0.59757131
v 0.04780627 -0.14043000 0.59449822
v 0.04794777 -0.14041109 0.59329247
v 0.04794044 -0.14051640 0.59334868
v 0.04827422 -0.14055310 0.59144050
v 0.04883951 -0.14061341 0.58910191
v 0.04885680 -0.14080340 0.58924150
v 0.04916537 -0.14079820 0.58818322
v 0.05034060 -0.14101040 0.58512080
v 0.05036831 -0.14122200 0.58533490
v 0.05035955 -0.14115080 0.58526409
v 0.05035031 -0.14108030 0.58519268
v 0.05552990 -0.14162780 0.45266330
v 0.05178386 -0.14136130 0.57832611
v 0.05176753 -0.14147170 0.57842880
v 0.05175007 -0.14158119 0.57853210
v 0.05173147 -0.14169000 0.57863611
v 0.05553937 -0.14157800 0.45266390
v 0.00543763 -0.17834049 0.64463443
v 0.00956084 -0.17750500 0.64573681
v 0.00475158 -0.17820190 0.64614302
v 0.00956805 -0.17778420 0.64497513
v 0.00957210 -0.17795250 0.64418691
v 0.00959070 -0.17799240 0.64378673
v 0.00963010 -0.17800300 0.64338320
v 0.00273700 -0.17847800 0.64510292
v 0.00000002 -0.17843920 0.64630097
v 0.00000002 -0.17849670 0.64596230
v 0.00000002 -0.17853180 0.64562058
v 0.00000002 -0.17854410 0.64527732
v 0.01258768 -0.17754510 0.64200372
v 0.00963010 -0.17800300 0.64338320
v 0.00963224 -0.17800280 0.64335167
v 0.00959070 -0.17799240 0.64378673
v 0.01428963 -0.17627890 0.64435267
v 0.00956155 -0.17749980 0.64574540
v 0.00956084 -0.17750500 0.64573681
v 0.01036520 -0.17774370 0.64439070
v 0.00956805 -0.17778420 0.64497513
v 0.00957210 -0.17795250 0.64418691
v 0.01954306 -0.17550960 0.63996053
v 0.01539607 -0.17699189 0.64042389
v 0.02300883 -0.17480350 0.63482767
v 0.02264567 -0.17303890 0.63963842
v 0.01864756 -0.17475539 0.64226711
v 0.02414173 -0.17380670 0.63663280
v 0.02633745 -0.17110381 0.63661700
v 0.02829261 -0.17185719 0.63295829
v 0.03193726 -0.17070509 0.62583971
v 0.03069765 -0.16828831 0.63218713
v 0.01713002 -0.17623800 0.64143109
v 0.03186304 -0.16983239 0.62931669
v 0.03894861 -0.16439261 0.62072778
v 0.04129453 -0.16264451 0.61675620
v 0.04134149 -0.16188531 0.61715460
v 0.04112095 -0.16336089 0.61630869
v 0.04082508 -0.16401210 0.61582571
v 0.04054851 -0.16442031 0.61547238
v 0.04022086 -0.16478010 0.61511469
v 0.03896869 -0.16411281 0.62087339
v 0.04105796 -0.16031680 0.61776727
v 0.04073216 -0.15954220 0.61796719
v 0.04126205 -0.16110390 0.61749399
v 0.03612341 -0.16400670 0.62531871
v 0.03433134 -0.16702710 0.62748361
v 0.03549726 -0.16739240 0.62509573
v 0.03578563 -0.16792670 0.62337142
v 0.03348918 -0.16921170 0.62678152
v 0.03636241 -0.16607741 0.62458688
v 0.04901565 -0.14658560 0.59459990
v 0.05072392 -0.14181431 0.58505952
v 0.05036831 -0.14122200 0.58533490
v 0.05098349 -0.14244050 0.58475369
v 0.05114162 -0.14308800 0.58442372
v 0.05119515 -0.14374331 0.58407623
v 0.04950905 -0.14886160 0.59476471
v 0.04922241 -0.15126020 0.59470159
v 0.05114300 -0.14439321 0.58371848
v 0.04849834 -0.15167110 0.59929329
v 0.04618330 -0.15783550 0.60398650
v 0.04661537 -0.15168740 0.60379702
v 0.04709549 -0.15469790 0.60412282
v 0.04605306 -0.15651450 0.60702300
v 0.04344238 -0.16154380 0.60953051
v 0.04068245 -0.15948820 0.61800969
v 0.04283483 -0.16077700 0.61409712
v 0.04073216 -0.15954220 0.61796719
v 0.04105796 -0.16031680 0.61776727
v 0.04126205 -0.16110390 0.61749399
v 0.04134149 -0.16188531 0.61715460
v 0.04129453 -0.16264451 0.61675620
v 0.04284061 -0.16080710 0.61406273
v 0.04280312 -0.16120981 0.61384058
v 0.04112095 -0.16336089 0.61630869
v 0.04273356 -0.16158150 0.61361653
v 0.04082508 -0.16401210 0.61582571
v 0.04054851 -0.16442031 0.61547238
v 0.04022086 -0.16478010 0.61511469
v 0.05119515 -0.14374331 0.58407623
v 0.05114300 -0.14439321 0.58371848
v 0.05114973 -0.14436370 0.58366692
v 0.05121679 -0.14362800 0.58390993
v 0.05115641 -0.14433470 0.58361512
v 0.05116296 -0.14430630 0.58356303
v 0.05115909 -0.14294460 0.58424628
v 0.05114162 -0.14308800 0.58442372
v 0.05099100 -0.14227089 0.58456469
v 0.05098349 -0.14244050 0.58475369
v 0.05071617 -0.14162150 0.58485830
v 0.05072392 -0.14181431 0.58505952
v 0.05035955 -0.14115080 0.58526409
v 0.05036831 -0.14122200 0.58533490
v 0.05035031 -0.14108030 0.58519268
v 0.05034060 -0.14101040 0.58512080
v 0.05176491 -0.14098930 0.57898867
v 0.05115909 -0.14294460 0.58424628
v 0.05121679 -0.14362800 0.58390993
v 0.05116296 -0.14430630 0.58356303
v 0.05173147 -0.14169000 0.57863611
v 0.05168039 -0.14028729 0.57932973
v 0.05099100 -0.14227089 0.58456469
v 0.05147982 -0.13959980 0.57965147
v 0.05071617 -0.14162150 0.58485830
v 0.05116785 -0.13894270 0.57994682
v 0.05034060 -0.14101040 0.58512080
v 0.05075145 -0.13833070 0.58020848
v 0.05176491 -0.14098930 0.57898867
v 0.05175007 -0.14158119 0.57853210
v 0.05179483 -0.14068910 0.57867628
v 0.05176753 -0.14147170 0.57842880
v 0.05178386 -0.14136130 0.57832611
v 0.05169583 -0.14001870 0.57901567
v 0.05168039 -0.14028729 0.57932973
v 0.05148894 -0.13936409 0.57933730
v 0.05147982 -0.13959980 0.57965147
v 0.05117864 -0.13873941 0.57963407
v 0.05116785 -0.13894270 0.57994682
v 0.05075849 -0.13827351 0.58010542
v 0.05075145 -0.13833070 0.58020848
v 0.05076516 -0.13821600 0.58000249
v 0.05077142 -0.13815790 0.57989979
v 0.05234290 -0.13334049 0.56789422
v 0.05077142 -0.13815790 0.57989979
v 0.05117864 -0.13873941 0.57963407
v 0.05169583 -0.14001870 0.57901567
v 0.05179483 -0.14068910 0.57867628
v 0.05178386 -0.14136130 0.57832611
v 0.05258275 -0.13009630 0.56230372
v 0.05272735 -0.12677740 0.55674380
v 0.05120630 -0.11206959 0.53585708
v 0.05381918 -0.11593319 0.53402948
v 0.05128831 -0.11228690 0.53612143
v 0.05293900 -0.12018229 0.54566920
v 0.05300600 -0.11684419 0.54017562
v 0.05198092 -0.11271969 0.53588319
v 0.05258376 -0.11324299 0.53558910
v 0.05308062 -0.11384279 0.53524709
v 0.05345834 -0.11450300 0.53486621
v 0.05370671 -0.11520609 0.53445667
v 0.05824309 0.00060125 0.33729509
v 0.05370671 -0.11520609 0.53445667
v 0.05381918 -0.11593319 0.53402948
v 0.05775034 0.00170857 0.33794650
v 0.05345834 -0.11450300 0.53486621
v 0.05803906 0.00117088 0.33762589
v 0.05738133 0.00220848 0.33824530
v 0.05308062 -0.11384279 0.53524709
v 0.05693846 0.00266171 0.33851680
v 0.05258376 -0.11324299 0.53558910
v 0.05642962 0.00306034 0.33875659
v 0.05198092 -0.11271969 0.53588319
v 0.05586373 0.00339759 0.33896029
v 0.05128831 -0.11228690 0.53612143
v 0.05540400 0.03301108 0.28324139
v 0.05803906 0.00117088 0.33762589
v 0.05824309 0.00060125 0.33729509
v 0.05502867 0.03362178 0.28364429
v 0.05775034 0.00170857 0.33794650
v 0.05454343 0.03416746 0.28402251
v 0.05693846 0.00266171 0.33851680
v 0.05738133 0.00220848 0.33824530
v 0.05396056 0.03463417 0.28436691
v 0.05642962 0.00306034 0.33875659
v 0.05329465 0.03501033 0.28466880
v 0.05586373 0.00339759 0.33896029
v 0.05321174 0.04066676 0.27068490
v 0.05329465 0.03501033 0.28466880
v 0.05396056 0.03463417 0.28436691
v 0.05454343 0.03416746 0.28402251
v 0.05502867 0.03362178 0.28364429
v 0.04842734 0.04859262 0.26105949
v 0.04957556 0.04822856 0.25852561
v 0.04386740 0.05508500 0.24969110
v 0.04496001 0.05455636 0.24834961
v 0.03967261 0.05987453 0.23960730
v 0.03589915 0.06258726 0.23668119
v 0.03494244 0.06361728 0.23343520
v 0.02890979 0.06713819 0.22879191
v 0.03008728 0.06669998 0.22834870
v 0.02603512 0.06878918 0.22490060
v 0.02195899 0.07036602 0.22319910
v 0.02159731 0.07064908 0.22182670
v 0.01594768 0.07233655 0.21978781
v 0.01672035 0.07224172 0.21918941
v 0.01143794 0.07346761 0.21717100
v 0.01044016 0.07354390 0.21769220
v 0.00581061 0.07421469 0.21596280
v 0.00529581 0.07417237 0.21659569
v -0.00000001 0.07443720 0.21579389
v -0.00000001 0.07445323 0.21557170
v -0.00000001 0.07441169 0.21601529
v -0.00000001 0.07437670 0.21623529
f 1 2 3
f 4 3 5
f 4 5 6
f 7 8 1
f 9 4 10
f 11 9 12
f 13 14 15
f 13 15 16
f 13 16 7
f 17 9 11
f 18 13 7
f 19 20 18
f 19 18 7
f 21 1 3
f 21 7 1
f 21 19 7
f 22 17 23
f 22 23 24
f 22 25 26
f 27 22 28
f 27 17 22
f 29 30 31
f 29 32 30
f 33 27 34
f 35 36 37
f 35 17 27
f 38 31 21
f 38 17 35
f 38 39 29
f 38 3 4
f 38 4 9
f 38 21 3
f 38 9 17
f 38 29 31
f 40 41 42
f 43 44 45
f 46 45 47
f 46 43 45
f 48 49 50
f 51 52 53
f 51 54 52
f 55 56 57
f 58 59 60
f 61 54 51
f 62 57 43
f 62 55 57
f 63 64 62
f 65 66 67
f 68 69 70
f 68 71 69
f 72 73 74
f 75 62 43
f 75 63 62
f 76 46 54
f 76 43 46
f 76 75 43
f 77 76 54
f 78 79 80
f 78 68 79
f 78 54 61
f 78 61 68
f 78 77 54
f 81 82 83
f 84 85 86
f 87 88 89
f 90 91 92
f 93 78 94
f 93 77 78
f 95 96 97
f 98 99 100
f 101 102 103
f 104 105 106
f 104 107 105
f 104 108 109
f 104 98 108
f 110 111 112
f 113 114 115
f 113 116 114
f 117 118 119
f 113 104 120
f 121 122 123
f 121 124 125
f 121 126 124
f 121 113 127
f 128 129 130
f 131 121 123
f 132 131 133
f 134 135 136
f 137 138 139
f 140 141 138
f 140 138 137
f 142 143 141
f 142 141 140
f 144 145 143
f 144 143 142
f 146 147 145
f 146 145 144
f 148 149 147
f 148 147 146
f 150 151 149
f 150 149 148
f 152 153 151
f 152 151 150
f 154 155 153
f 154 153 152
f 156 157 155
f 156 155 154
f 158 159 157
f 158 157 156
f 160 161 159
f 160 159 158
f 162 163 161
f 162 161 160
f 164 165 163
f 164 163 162
f 166 165 164
f 167 168 165
f 167 169 168
f 167 165 166
f 170 169 167
f 171 172 173
f 174 175 176
f 177 178 179
f 180 181 182
f 183 184 179
f 185 183 179
f 186 185 179
f 187 179 188
f 187 186 179
f 189 187 188
f 190 188 191
f 192 189 188
f 193 194 195
f 196 192 188
f 197 188 198
f 199 196 188
f 200 201 202
f 203 204 205
f 203 206 204
f 207 208 206
f 207 206 203
f 209 210 208
f 209 208 207
f 211 212 210
f 211 210 209
f 213 214 212
f 213 215 214
f 213 212 211
f 216 217 215
f 216 215 213
f 218 217 216
f 219 220 217
f 219 221 220
f 219 217 218
f 222 221 219
f 223 224 221
f 223 225 224
f 223 221 222
f 226 225 223
f 227 228 225
f 227 229 228
f 227 225 226
f 230 229 227
f 231 232 229
f 231 229 230
f 233 234 232
f 233 232 231
f 235 234 233
f 235 236 234
f 237 238 239
f 240 241 242
f 240 242 243
f 240 243 238
f 244 240 238
f 244 238 237
f 245 244 237
f 245 237 246
f 247 245 246
f 247 246 248
f 249 247 248
f 249 248 250
f 251 249 250
f 251 250 252
f 253 251 252
f 253 252 254
f 255 253 254
f 256 255 254
f 256 254 257
f 258 256 257
f 258 257 259
f 260 258 259
f 261 260 259
f 261 259 262
f 263 261 262
f 263 262 264
f 265 263 264
f 265 264 266
f 267 265 266
f 268 267 266
f 268 266 269
f 270 269 271
f 270 268 269
f 272 271 273
f 272 270 271
f 274 272 273
f 275 273 276
f 275 274 273
f 277 276 278
f 277 275 276
f 279 277 278
f 280 281 282
f 283 278 281
f 283 279 278
f 284 285 286
f 287 281 280
f 287 283 281
f 288 287 280
f 288 280 289
f 288 289 290
f 288 290 285
f 291 285 284
f 291 288 285
f 292 291 284
f 292 284 293
f 294 292 293
f 294 293 295
f 296 294 295
f 296 295 297
f 298 296 297
f 298 297 299
f 300 298 299
f 300 299 301
f 302 300 301
f 303 302 301
f 303 301 304
f 305 303 304
f 305 304 306
f 307 305 306
f 308 307 306
f 308 306 309
f 310 308 309
f 310 309 311
f 312 310 311
f 312 311 313
f 314 312 313
f 315 314 313
f 315 313 316
f 317 315 316
f 317 316 318
f 319 317 318
f 319 318 320
f 321 319 320
f 322 321 320
f 322 320 323
f 324 322 323
f 324 323 325
f 326 324 325
f 327 328 329
f 330 326 325
f 330 325 328
f 331 330 328
f 331 328 327
f 332 331 327
f 333 327 334
f 333 332 327
f 333 334 335
f 333 335 336
f 337 338 339
f 340 337 339
f 340 341 342
f 340 339 341
f 343 340 342
f 343 344 345
f 343 342 344
f 346 343 345
f 346 345 347
f 348 346 347
f 348 347 349
f 350 348 349
f 350 351 352
f 350 349 351
f 353 350 352
f 353 352 354
f 355 353 354
f 356 355 354
f 356 354 357
f 358 356 357
f 358 357 359
f 360 361 362
f 360 358 359
f 360 359 361
f 363 362 364
f 363 360 362
f 365 364 366
f 365 366 367
f 365 363 364
f 368 367 369
f 368 365 367
f 370 369 371
f 370 368 369
f 372 371 373
f 372 373 374
f 372 370 371
f 375 374 376
f 375 372 374
f 377 376 378
f 377 379 380
f 377 378 379
f 377 375 376
f 381 380 382
f 381 382 383
f 381 377 380
f 384 383 385
f 384 385 386
f 384 386 387
f 384 381 383
f 388 387 389
f 388 384 387
f 390 389 391
f 390 391 392
f 390 388 389
f 393 390 392
f 393 392 394
f 395 393 394
f 395 394 396
f 397 395 396
f 397 396 398
f 397 398 399
f 400 397 399
f 400 399 401
f 402 400 401
f 402 401 403
f 402 403 404
f 405 404 406
f 405 402 404
f 407 405 406
f 408 407 406
f 408 406 409
f 410 408 409
f 410 409 411
f 410 411 412
f 413 412 414
f 413 410 412
f 415 414 416
f 415 413 414
f 417 416 418
f 417 415 416
f 419 418 420
f 419 420 421
f 419 417 418
f 422 421 423
f 422 423 424
f 422 419 421
f 425 424 426
f 425 422 424
f 427 428 429
f 427 429 430
f 431 430 432
f 431 427 430
f 433 432 434
f 433 431 432
f 435 434 436
f 435 433 434
f 437 436 438
f 437 435 436
f 439 437 438
f 439 438 440
f 441 439 440
f 441 440 442
f 443 441 442
f 443 442 444
f 445 443 444
f 445 444 446
f 447 445 446
f 447 446 448
f 449 447 448
f 449 448 450
f 451 449 450
f 451 450 452
f 453 451 452
f 453 452 454
f 455 453 454
f 455 456 457
f 455 454 456
f 458 455 457
f 459 458 457
f 459 457 460
f 461 459 460
f 461 460 462
f 463 461 462
f 463 462 464
f 465 464 466
f 465 463 464
f 467 466 468
f 467 465 466
f 469 467 468
f 469 468 470
f 471 470 472
f 471 469 470
f 473 471 472
f 473 472 474
f 475 474 476
f 475 473 474
f 477 476 478
f 477 475 476
f 479 478 480
f 479 477 478
f 481 480 482
f 481 479 480
f 483 484 485
f 483 482 484
f 483 481 482
f 486 483 485
f 487 485 488
f 487 486 485
f 489 487 488
f 489 488 490
f 491 489 490
f 491 490 492
f 493 491 492
f 493 492 494
f 495 493 494
f 495 494 496
f 497 495 496
f 497 496 498
f 499 497 498
f 499 498 500
f 501 502 503
f 504 502 501
f 504 505 502
f 506 501 503
f 507 505 504
f 507 508 505
f 509 506 503
f 510 506 509
f 511 508 507
f 511 512 508
f 513 510 509
f 514 510 513
f 515 512 511
f 515 516 512
f 517 518 519
f 520 514 513
f 521 514 520
f 522 523 524
f 522 524 525
f 526 527 528
f 529 530 531
f 529 531 532
f 529 532 533
f 529 533 534
f 529 534 535
f 529 535 536
f 529 514 521
f 537 538 539
f 540 541 542
f 540 542 543
f 544 545 516
f 544 516 515
f 546 545 544
f 547 548 549
f 550 551 552
f 550 553 551
f 550 529 553
f 554 546 544
f 555 546 554
f 556 552 557
f 556 550 552
f 558 555 554
f 559 555 558
f 560 557 561
f 560 556 557
f 562 559 558
f 563 559 562
f 564 561 565
f 564 560 561
f 566 563 562
f 567 564 565
f 568 563 566
f 568 566 569
f 570 567 565
f 571 567 570
f 572 568 569
f 572 569 573
f 574 571 570
f 575 571 574
f 576 572 573
f 576 573 577
f 578 575 574
f 579 575 578
f 580 576 577
f 580 577 581
f 582 579 578
f 583 579 582
f 584 585 586
f 587 586 585
f 588 585 584
f 588 581 585
f 589 587 585
f 590 580 581
f 590 581 588
f 591 592 593
f 594 580 590
f 595 596 597
f 598 599 593
f 600 601 597
f 602 603 585
f 604 602 585
f 605 583 582
f 606 604 585
f 607 606 585
f 608 609 610
f 611 607 585
f 612 583 605
f 612 613 583
f 614 615 616
f 614 616 611
f 617 614 611
f 618 613 612
f 618 619 613
f 620 614 617
f 621 620 617
f 622 619 618
f 622 623 619
f 624 621 625
f 624 620 621
f 626 623 622
f 626 627 623
f 628 624 625
f 628 627 626
f 628 625 627
f 629 630 631
f 632 633 630
f 632 634 633
f 632 630 629
f 635 629 636
f 635 632 629
f 637 636 638
f 637 635 636
f 639 638 640
f 639 637 638
f 641 639 640
f 642 639 641
f 643 642 641
f 644 642 643
f 645 644 643
f 646 645 647
f 646 644 645
f 648 646 647
f 649 646 648
f 650 649 648
f 651 649 650
f 652 651 650
f 653 651 652
f 653 652 654
f 655 653 654
f 656 653 655
f 657 656 655
f 658 656 657
f 659 658 657
f 660 658 659
f 660 659 661
f 662 660 661
f 663 660 662
f 664 663 662
f 665 663 664
f 666 665 664
f 667 666 668
f 667 665 666
f 669 668 670
f 669 667 668
f 671 670 672
f 671 669 670
f 673 672 674
f 673 671 672
f 675 674 676
f 677 674 675
f 678 673 674
f 678 674 677
f 679 680 681
f 679 681 682
f 683 679 684
f 683 680 679
f 685 684 686
f 687 684 685
f 688 684 687
f 689 688 690
f 689 683 684
f 689 684 688
f 691 692 693
f 694 695 692
f 694 696 695
f 694 692 691
f 697 698 696
f 697 696 694
f 699 691 700
f 699 694 691
f 699 697 694
f 701 698 697
f 702 700 698
f 702 701 697
f 702 698 701
f 702 699 700
f 702 697 699
f 703 704 705
f 706 707 708
f 706 709 707
f 706 710 709
f 711 712 710
f 711 713 712
f 711 714 713
f 711 715 714
f 711 716 715
f 711 710 706
f 717 718 719
f 717 720 718
f 721 720 717
f 721 717 722
f 723 717 719
f 723 722 717
f 724 725 722
f 724 722 723
f 726 719 727
f 726 723 719
f 728 729 725
f 728 730 729
f 728 731 730
f 728 724 723
f 728 725 724
f 728 723 726
f 732 733 734
f 732 727 733
f 732 726 727
f 735 736 731
f 735 737 736
f 735 738 737
f 735 739 738
f 735 740 739
f 735 734 740
f 735 731 728
f 735 732 734
f 735 726 732
f 735 728 726
f 741 742 704
f 741 743 742
f 741 708 743
f 741 704 703
f 741 706 708
f 744 703 745
f 744 706 741
f 744 741 703
f 746 745 718
f 746 744 745
f 747 711 706
f 747 706 744
f 747 744 746
f 748 716 711
f 748 711 747
f 749 722 716
f 749 716 748
f 749 721 722
f 749 720 721
f 750 747 746
f 750 748 747
f 750 749 748
f 750 720 749
f 750 718 720
f 750 746 718
f 751 752 753
f 751 754 752
f 751 755 754
f 751 756 755
f 757 758 759
f 757 759 760
f 761 760 756
f 761 757 760
f 761 756 751
f 762 763 764
f 762 758 757
f 762 757 761
f 765 766 767
f 765 768 766
f 765 769 768
f 765 770 769
f 765 771 770
f 765 772 771
f 765 753 772
f 765 751 753
f 773 774 758
f 773 764 774
f 773 758 762
f 773 762 764
f 775 767 776
f 775 751 765
f 775 765 767
f 775 761 751
f 777 775 776
f 777 762 761
f 777 763 762
f 777 761 775
f 778 779 763
f 778 776 779
f 778 763 777
f 778 777 776
f 780 781 782
f 783 781 780
f 784 783 780
f 785 786 783
f 785 787 786
f 788 783 784
f 788 785 783
f 789 784 790
f 789 788 784
f 791 789 790
f 792 793 794
f 795 790 796
f 795 791 790
f 797 798 793
f 797 793 792
f 799 800 798
f 799 798 797
f 801 796 802
f 801 795 796
f 803 802 800
f 803 800 799
f 804 801 802
f 805 804 802
f 806 802 803
f 806 805 802
f 807 805 806
f 808 807 806
f 809 808 806
f 810 811 812
f 813 812 814
f 813 810 812
f 815 814 816
f 815 813 814
f 817 815 816
f 818 817 819
f 820 817 818
f 821 819 817
f 822 817 820
f 823 821 817
f 824 817 822
f 825 823 817
f 826 815 817
f 826 817 824
f 827 825 817
f 828 829 830
f 828 830 817
f 830 831 817
f 831 827 817
f 832 833 811
f 832 834 833
f 832 835 834
f 836 837 838
f 836 839 837
f 836 840 839
f 841 838 835
f 841 835 832
f 841 832 811
f 841 811 810
f 841 836 838
f 842 810 840
f 842 841 810
f 842 840 836
f 842 836 841
f 843 844 845
f 843 846 844
f 847 848 849
f 847 850 848
f 847 845 850
f 847 843 845
f 851 852 843
f 851 849 853
f 851 843 847
f 851 847 849
f 854 851 853
f 854 852 851
f 855 856 852
f 855 853 857
f 855 854 853
f 855 852 854
f 858 859 856
f 858 860 861
f 858 861 859
f 862 863 860
f 862 860 858
f 862 858 856
f 864 857 865
f 864 865 866
f 864 866 863
f 864 856 855
f 864 855 857
f 864 862 856
f 864 863 862
f 867 868 869
f 870 871 872
f 873 846 874
f 875 873 874
f 876 875 874
f 877 875 876
f 878 875 877
f 879 875 878
f 880 875 879
f 881 869 882
f 881 882 871
f 881 867 869
f 881 871 870
f 883 870 876
f 883 874 884
f 883 884 867
f 883 876 874
f 883 881 870
f 883 867 881
f 885 886 887
f 885 888 886
f 885 889 888
f 890 891 892
f 893 891 890
f 894 895 891
f 894 896 895
f 894 891 893
f 897 898 896
f 897 899 898
f 897 900 899
f 897 901 900
f 897 896 894
f 902 903 901
f 902 887 903
f 902 901 897
f 902 885 887
f 904 885 902
f 905 885 904
f 906 885 905
f 907 885 906
f 908 885 907
f 909 885 908
f 910 909 911
f 910 885 909
f 912 913 914
f 912 915 913
f 912 916 915
f 917 918 919
f 920 918 917
f 921 922 923
f 924 921 925
f 924 922 921
f 926 927 928
f 926 914 927
f 926 912 914
f 929 928 930
f 929 931 912
f 929 912 926
f 929 926 928
f 932 929 930
f 932 931 929
f 933 930 934
f 933 935 931
f 933 931 932
f 933 932 930
f 936 937 935
f 936 933 934
f 936 935 933
f 938 936 934
f 938 937 936
f 939 934 940
f 939 941 937
f 939 938 934
f 939 937 938
f 942 941 939
f 942 939 940
f 943 940 918
f 943 922 941
f 943 941 942
f 943 942 940
f 944 945 923
f 944 920 945
f 944 922 943
f 944 943 918
f 944 918 920
f 944 923 922
f 946 947 948
f 949 950 946
f 949 946 948
f 951 952 949
f 951 949 948
f 953 954 955
f 953 956 954
f 957 958 959
f 957 960 958
f 961 957 959
f 961 960 957
f 962 959 956
f 962 961 959
f 962 956 953
f 963 964 960
f 963 960 961
f 963 961 962
f 965 953 966
f 965 963 962
f 965 962 953
f 967 963 965
f 967 964 963
f 968 965 966
f 968 967 965
f 969 964 967
f 970 966 964
f 970 964 969
f 970 968 966
f 970 967 968
f 970 969 967
f 971 972 973
f 971 973 974
f 971 974 975
f 976 977 971
f 976 971 975
f 978 977 976
f 979 978 976
f 980 978 979
f 981 979 982
f 981 980 979
f 983 981 982
f 984 983 982
f 985 983 984
f 986 985 984
f 987 985 986
f 988 986 989
f 988 987 986
f 990 988 989
f 991 990 989
f 992 990 991
f 993 992 991
f 994 992 993
f 995 994 993
f 996 994 995
f 997 996 995
f 998 997 995
f 999 997 998
f 1000 999 998
f 1001 999 1000
f 1002 1001 1000
f 1003 1001 1002
f 1004 1003 1002
f 1005 1004 1002
f 1006 1004 1005
f 1007 1006 1005
f 1008 1006 1007
f 1009 1008 1007
f 1010 1008 1009
f 1011 1010 1009
f 1011 1009 1012
f 1013 1011 1012
f 1014 1011 1013
f 1015 1014 1013
f 1016 1014 1015
f 1017 1016 1015
f 1018 1017 678
f 1019 1017 1018
f 1020 1016 1017
f 1020 1017 1019
f 1021 1022 1023
f 1024 1025 1026
f 1024 1026 1027
f 1024 1027 1028
f 1024 1028 1029
f 1024 1029 1030
f 1024 1030 1031
f 1032 1024 1031
f 1032 1025 1024
f 1033 1021 1025
f 1033 1031 1022
f 1033 1025 1032
f 1033 1032 1031
f 1034 1033 1022
f 1034 1021 1033
f 1035 1034 1022
f 1035 1021 1034
f 1035 1022 1021
f 1036 1037 1038
f 1039 1037 1036
f 1040 1039 1036
f 1041 1040 1036
f 1042 1040 1041
f 1043 1042 1041
f 1044 1042 1043
f 1045 1043 1046
f 1045 1044 1043
f 1047 1045 1046
f 1048 1047 1046
f 1049 1047 1048
f 1050 1048 1051
f 1050 1049 1048
f 1052 1050 1051
f 1053 1052 1054
f 1055 1052 1053
f 1056 1050 1052
f 1056 1052 1055
f 1057 1058 1038
f 1057 1059 1060
f 1057 1061 1058
f 1057 1062 1061
f 1057 1063 1062
f 1057 1064 1063
f 1057 1065 1064
f 1057 1060 1065
f 1066 1037 1059
f 1066 1038 1037
f 1066 1057 1038
f 1066 1059 1057
f 1067 1068 1069
f 1067 1070 1068
f 1067 1071 1070
f 1072 1067 1073
f 1074 1067 1072
f 1075 1067 1074
f 1075 1071 1067
f 1076 1077 1078
f 1079 1078 1080
f 1079 1081 1076
f 1079 1076 1078
f 1079 1080 1081
f 1082 1083 1081
f 1082 1080 1084
f 1082 1081 1080
f 1082 1084 1083
f 1085 1086 1083
f 1085 1084 1087
f 1085 1088 1086
f 1085 1089 1088
f 1085 1087 1089
f 1085 1083 1084
f 1090 1091 1092
f 1090 1093 1094
f 1090 1094 1095
f 1090 1095 1091
f 1096 1097 1098
f 1096 1098 1099
f 1096 1099 1100
f 1096 1100 1101
f 1102 1097 1096
f 1103 1102 1096
f 1104 1103 1105
f 1106 1103 1104
f 1107 1102 1103
f 1107 1103 1106
f 1108 1109 1110
f 1108 1111 1109
f 1108 1110 1112
f 1113 1114 1111
f 1113 1115 1114
f 1113 1116 1115
f 1113 1111 1108
f 1117 1108 1118
f 1117 1119 1113
f 1117 1113 1108
f 1120 1118 1121
f 1120 1122 1119
f 1120 1119 1117
f 1120 1117 1118
f 1123 1121 1124
f 1123 1120 1121
f 1123 1122 1120
f 1125 1123 1124
f 1125 1122 1123
f 1126 1124 1127
f 1126 1128 1122
f 1126 1125 1124
f 1126 1122 1125
f 1129 1128 1126
f 1129 1126 1127
f 1130 1127 1131
f 1130 1129 1127
f 1130 1128 1129
f 1132 1131 1133
f 1132 1133 1134
f 1132 1134 1135
f 1132 1135 1136
f 1137 1136 1138
f 1137 1132 1136
f 1139 1138 1140
f 1139 1140 1141
f 1139 1141 1142
f 1139 1142 1143
f 1139 1137 1138
f 1144 1143 1128
f 1144 1139 1143
f 1144 1128 1130
f 1145 1131 1132
f 1145 1130 1131
f 1145 1132 1137
f 1145 1144 1130
f 1145 1139 1144
f 1145 1137 1139
f 1146 1147 1148
f 1146 1148 1149
f 1146 1149 1150
f 1146 1150 1151
f 1152 1151 1153
f 1152 1153 1154
f 1152 1146 1151
f 1155 1156 1146
f 1155 1154 1157
f 1155 1152 1154
f 1155 1146 1152
f 1158 1156 1155
f 1158 1155 1157
f 1159 1160 1156
f 1159 1157 1161
f 1159 1156 1158
f 1159 1158 1157
f 1162 1161 1163
f 1162 1164 1165
f 1162 1166 1164
f 1162 1163 1166
f 1167 1165 1168
f 1167 1162 1165
f 1167 1161 1162
f 1169 1161 1167
f 1170 1171 1160
f 1170 1172 1171
f 1170 1173 1172
f 1170 1174 1173
f 1170 1168 1174
f 1170 1159 1161
f 1170 1169 1167
f 1170 1167 1168
f 1170 1160 1159
f 1170 1161 1169
f 1175 1176 1177
f 1175 1177 1178
f 1179 1178 1180
f 1179 1175 1178
f 1181 1175 1179
f 1182 1181 1179
f 1183 1181 1182
f 1184 1183 1182
f 1185 1183 1184
f 1186 1185 1184
f 1187 1188 1185
f 1187 1185 1186
f 1189 1187 1186
f 1190 1189 1186
f 1191 1192 880
f 1191 880 1193
f 1194 1195 1192
f 1194 1192 1191
f 1196 1197 1195
f 1196 1195 1194
f 1198 1199 1197
f 1198 1200 1199
f 1198 1197 1196
f 1201 1200 1198
f 1202 1203 1204
f 1202 1204 1205
f 1206 1205 1207
f 1206 1202 1205
f 1208 1202 1206
f 1209 1208 1206
f 1210 1208 1209
f 1211 1210 1209
f 1212 1210 1211
f 1213 1212 1211
f 1214 1215 1212
f 1214 1212 1213
f 1216 1214 1213
f 1217 1216 1213
f 1218 1219 1220
f 1218 1221 1219
f 1218 1222 1221
f 1218 1223 1222
f 1218 1224 1223
f 1225 1218 1220
f 1225 1224 1218
f 1226 1227 1228
f 1226 1229 1224
f 1226 1220 1227
f 1226 1224 1225
f 1226 1225 1220
f 1230 1229 1226
f 1230 1226 1228
f 1231 1228 1232
f 1231 1232 1233
f 1231 1233 1234
f 1231 1234 1235
f 1231 1235 1236
f 1231 1236 1229
f 1231 1229 1230
f 1231 1230 1228
f 1237 1238 1239
f 1240 1238 1237
f 1241 1242 1238
f 1241 1238 1240
f 1243 1244 1242
f 1243 1242 1241
f 1245 1246 1244
f 1245 1244 1243
f 1247 1248 1246
f 1247 1246 1245
f 1249 1250 1248
f 1249 1248 1247
f 1251 1250 1249
f 1252 1253 1254
f 1255 1256 1253
f 1255 1253 1252
f 1257 1258 1256
f 1257 1259 1258
f 1257 1256 1255
f 1260 1261 1259
f 1260 1259 1257
f 1262 1263 1261
f 1262 1261 1260
f 1264 1265 1266
f 1264 1267 1265
f 1264 1268 1267
f 1264 1269 1268
f 1270 1264 1266
f 1271 1264 1270
f 1272 1271 1270
f 1273 1271 1272
f 1274 1273 1272
f 1275 1274 1272
f 1276 1274 1275
f 1277 1276 1275
f 1278 1276 1277
f 1279 1278 1277
f 1280 1279 1277
f 770 1279 1280
f 1281 770 1280
f 1282 770 1281
f 1283 1281 1284
f 1283 1282 1281
f 1285 1284 1286
f 1285 1283 1284
f 1287 1286 1288
f 1289 1285 1286
f 1289 1286 1287
f 1290 1285 1289
f 1291 1292 1293
f 1294 1293 1295
f 1294 1291 1293
f 1296 1295 1297
f 1296 1294 1295
f 1298 1296 1297
f 1298 1299 1300
f 1298 1297 1299
f 1301 1298 1300
f 1301 1300 1302
f 1303 1301 1302
f 1304 1303 1302
f 1304 1302 1305
f 1306 1305 1307
f 1306 1304 1305
f 1308 1307 1309
f 1308 1306 1307
f 1310 1309 1311
f 1310 1308 1309
f 1312 1311 1313
f 1312 1310 1311
f 1314 1312 1313
f 1315 1314 1313
f 1316 1313 1317
f 1316 1315 1313
f 1318 1317 1319
f 1318 1316 1317
f 1320 1319 1321
f 1320 1318 1319
f 1322 1320 1321
f 1323 1321 1324
f 1323 1322 1321
f 1325 1324 1326
f 1325 1323 1324
f 1327 1326 1328
f 1327 1325 1326
f 1329 1328 1330
f 1329 1327 1328
f 1331 1329 1330
f 1332 1330 1333
f 1332 1331 1330
f 1334 1333 1335
f 1334 1335 1336
f 1334 1332 1333
f 1337 1336 1338
f 1337 1334 1336
f 1339 1338 1340
f 1339 1337 1338
f 1341 1340 1342
f 1341 1339 1340
f 1343 1342 1344
f 1343 1341 1342
f 1345 1344 1346
f 1345 1343 1344
f 1347 1346 1348
f 1347 1345 1346
f 1349 1347 1348
f 1349 1348 1350
f 1351 1349 1350
f 1351 1350 1352
f 1353 1351 1352
f 1354 1353 1352
f 1354 1352 1355
f 1356 1354 1355
f 1356 1355 1357
f 1358 1356 1357
f 1358 1357 1359
f 1360 1358 1359
f 1360 1359 1361
f 1362 1360 1361
f 1362 1361 1363
f 1364 1362 1363
f 1365 1364 1363
f 1365 1363 1366
f 1367 1365 1366
f 1367 1366 1368
f 1367 1368 1369
f 1370 1367 1369
f 1370 1369 1371
f 1372 1371 1373
f 1372 1370 1371
f 1374 1373 1375
f 1374 1372 1373
f 1376 1377 1378
f 1376 1379 1377
f 1380 1381 1376
f 1380 1376 1378
f 1382 1383 1381
f 1384 1382 1381
f 1385 1384 1381
f 1386 1387 1385
f 1386 1381 1380
f 1386 1385 1381
f 1388 1389 1390
f 1391 1390 1392
f 1391 1392 1393
f 1391 1388 1390
f 1394 1393 1395
f 1394 1391 1393
f 1396 1397 1388
f 1396 1388 1391
f 1396 1391 1394
f 1398 1394 1395
f 1399 1395 1397
f 1399 1394 1398
f 1399 1398 1395
f 1399 1397 1396
f 1399 1396 1394
f 1400 1401 1402
f 1403 1404 1405
f 1403 1405 1406
f 1403 1406 1407
f 1408 1407 1409
f 1408 1409 1410
f 1408 1410 1411
f 1408 1403 1407
f 1412 1413 1414
f 1412 1414 1415
f 1416 1412 1415
f 1416 1417 1412
f 1418 1412 1417
f 1418 1413 1412
f 1419 1417 1420
f 1419 1418 1417
f 1421 1422 1413
f 1421 1418 1419
f 1421 1413 1418
f 1423 1420 1424
f 1423 1424 1425
f 1423 1425 1426
f 1423 1419 1420
f 1423 1421 1419
f 1427 1428 1429
f 1427 1429 1422
f 1427 1422 1421
f 1430 1426 1431
f 1430 1431 1432
f 1430 1432 1433
f 1430 1433 1434
f 1430 1434 1435
f 1430 1435 1428
f 1430 1427 1421
f 1430 1428 1427
f 1430 1423 1426
f 1430 1421 1423
f 1436 1402 1437
f 1436 1437 1404
f 1436 1400 1402
f 1436 1404 1403
f 1438 1439 1400
f 1438 1400 1436
f 1438 1436 1403
f 1440 1414 1439
f 1440 1439 1438
f 1441 1403 1408
f 1441 1438 1403
f 1441 1440 1438
f 1442 1408 1411
f 1442 1441 1408
f 1443 1411 1417
f 1443 1442 1411
f 1443 1417 1416
f 1443 1416 1415
f 1444 1443 1415
f 1444 1415 1414
f 1444 1414 1440
f 1444 1440 1441
f 1444 1441 1442
f 1444 1442 1443
f 1445 1446 1447
f 1445 1447 1448
f 1445 1448 1449
f 1445 1449 1450
f 1451 1452 1453
f 1451 1454 1452
f 1455 1450 1454
f 1455 1454 1451
f 1455 1445 1450
f 1456 1457 1458
f 1456 1451 1453
f 1456 1455 1451
f 1459 1460 1461
f 1459 1461 1462
f 1459 1462 1463
f 1459 1463 1464
f 1459 1464 1465
f 1459 1465 1466
f 1459 1466 1446
f 1459 1446 1445
f 1467 1453 1468
f 1467 1468 1457
f 1467 1456 1453
f 1467 1457 1456
f 1469 1470 1460
f 1469 1459 1445
f 1469 1460 1459
f 1469 1445 1455
f 1471 1470 1469
f 1471 1455 1456
f 1471 1456 1458
f 1471 1469 1455
f 1472 1458 1473
f 1472 1473 1470
f 1472 1471 1458
f 1472 1470 1471
f 1474 1475 1476
f 1477 1475 1474
f 1478 1477 1474
f 1479 1480 1481
f 1482 1478 1480
f 1482 1480 1479
f 1483 1477 1478
f 1483 1478 1482
f 1484 1485 1477
f 1484 1477 1483
f 1486 1487 1485
f 1486 1485 1484
f 1488 1489 1490
f 1491 1487 1486
f 1492 1490 1493
f 1492 1488 1490
f 1494 1493 1495
f 1494 1492 1493
f 1496 1497 1487
f 1496 1487 1491
f 1498 1495 1497
f 1498 1494 1495
f 1499 1497 1496
f 806 1498 1497
f 806 1497 1499
f 1500 806 1499
f 1501 806 1500
f 1502 806 1501
f 1503 806 1502
f 1504 1505 1506
f 1507 1508 1505
f 1507 1505 1504
f 1509 1510 1508
f 1509 1508 1507
f 1511 1510 1509
f 1512 1513 1511
f 1514 1511 1513
f 1515 1512 1511
f 1516 1511 1514
f 1517 1515 1511
f 1518 1511 1516
f 1519 1517 1511
f 1520 1511 1518
f 1521 1511 1509
f 1521 1519 1511
f 1522 1511 1520
f 1523 1524 1525
f 1523 1511 1524
f 1524 1511 1526
f 1526 1511 1522
f 1527 1506 1528
f 1527 1528 1529
f 1527 1529 1530
f 1531 1532 1533
f 1531 1533 1534
f 1531 1534 1535
f 1536 1530 1532
f 1536 1527 1530
f 1536 1506 1527
f 1536 1504 1506
f 1536 1532 1531
f 1537 1535 1504
f 1537 1531 1535
f 1537 1504 1536
f 1537 1536 1531
f 1538 1539 1540
f 1538 1540 1541
f 1542 1543 1544
f 1542 1544 1545
f 1542 1545 1539
f 1542 1539 1538
f 1546 1538 1547
f 1546 1548 1543
f 1546 1542 1538
f 1546 1543 1542
f 1549 1548 1546
f 1549 1546 1547
f 1550 1547 1551
f 1550 1552 1548
f 1550 1548 1549
f 1550 1549 1547
f 1553 1551 1554
f 1553 1555 1556
f 1553 1554 1555
f 1557 1556 1558
f 1557 1553 1556
f 1557 1551 1553
f 1559 1560 1552
f 1559 1561 1560
f 1559 1558 1561
f 1559 1550 1551
f 1559 1557 1558
f 1559 1552 1550
f 1559 1551 1557
f 1562 1563 1564
f 1565 1566 1567
f 1568 1569 1570
f 1571 1569 1568
f 1572 1569 1571
f 1573 1572 1571
f 1574 1573 1571
f 1575 1574 1571
f 1576 1575 1571
f 1577 1578 1563
f 1577 1567 1578
f 1577 1563 1562
f 1577 1565 1567
f 1579 1572 1565
f 1579 1580 1569
f 1579 1562 1580
f 1579 1569 1572
f 1579 1565 1577
f 1579 1577 1562
f 1581 1582 1583
f 1581 1583 1584
f 1581 1584 1585
f 1586 1587 1588
f 1589 1586 1588
f 1590 1588 1591
f 1590 1591 1592
f 1590 1589 1588
f 1593 1592 1594
f 1593 1594 1595
f 1593 1595 1596
f 1593 1596 1597
f 1593 1590 1592
f 1598 1597 1599
f 1598 1599 1582
f 1598 1593 1597
f 1598 1582 1581
f 1600 1598 1581
f 1601 1600 1581
f 1602 1601 1581
f 1603 1602 1581
f 1604 1603 1581
f 1605 1604 1581
f 1606 1607 1605
f 1606 1605 1581
f 1608 1609 1610
f 1608 1610 1611
f 1612 1613 1614
f 1615 1616 1617
f 1618 1619 1620
f 1618 1620 1621
f 1618 1621 1609
f 1618 1609 1608
f 1622 1623 1619
f 1622 1608 1624
f 1622 1619 1618
f 1622 1618 1608
f 1625 1623 1622
f 1625 1622 1624
f 1626 1627 1623
f 1626 1624 1628
f 1626 1623 1625
f 1626 1625 1624
f 1629 1628 1630
f 1629 1627 1626
f 1629 1626 1628
f 1631 1627 1629
f 1631 1629 1630
f 1632 1633 1627
f 1632 1630 1634
f 1632 1627 1631
f 1632 1631 1630
f 1635 1633 1632
f 1635 1632 1634
f 1636 1637 1633
f 1636 1634 1638
f 1636 1633 1635
f 1636 1635 1634
f 1639 1637 1636
f 1639 1636 1638
f 1640 1617 1637
f 1640 1641 1642
f 1640 1642 1616
f 1640 1616 1615
f 1640 1637 1639
f 1640 1615 1617
f 1640 1639 1638
f 1643 1638 1612
f 1643 1614 1644
f 1643 1644 1641
f 1643 1640 1638
f 1643 1612 1614
f 1643 1641 1640
f 1645 1646 1647
f 1648 1645 1649
f 1648 1646 1645
f 1650 1648 1651
f 1650 1646 1648
f 1652 1653 1654
f 1652 1654 1655
f 1656 1657 1658
f 1656 1658 1659
f 1660 1657 1656
f 1660 1656 1659
f 1661 1655 1657
f 1661 1657 1660
f 1661 1652 1655
f 1662 1659 1663
f 1662 1660 1659
f 1664 1665 1652
f 1664 1660 1662
f 1664 1661 1660
f 1664 1652 1661
f 1666 1664 1662
f 1666 1662 1663
f 1667 1665 1664
f 1667 1664 1666
f 1668 1666 1663
f 1669 1663 1665
f 1669 1668 1663
f 1669 1665 1667
f 1669 1667 1666
f 1669 1666 1668
f 1670 1671 1672
f 1673 1674 1675
f 1673 1676 1674
f 1673 1675 1671
f 1673 1671 1670
f 1677 1678 1676
f 1677 1673 1670
f 1677 1676 1673
f 1679 1670 1680
f 1679 1681 1678
f 1679 1680 1681
f 1679 1677 1670
f 1679 1678 1677
f 1682 1683 1684
f 1682 1685 1683
f 1686 1682 1684
f 1687 1686 1688
f 1687 1682 1686
f 1689 1688 1690
f 1689 1687 1688
f 1691 1689 1690
f 1692 1689 1691
f 1693 1692 1691
f 1694 1693 1695
f 1694 1692 1693
f 1696 1694 1695
f 1697 1694 1696
f 1698 1697 1696
f 1699 1698 1696
f 1700 1698 1699
f 1701 1698 1700
f 1702 1698 1701
f 1703 1704 1705
f 1703 1685 1706
f 1703 1706 1707
f 1703 1707 1708
f 1703 1708 1709
f 1703 1709 1710
f 1703 1710 1704
f 1711 1705 1683
f 1711 1683 1685
f 1711 1685 1703
f 1711 1703 1705
f 1712 1713 1714
f 1712 1714 1715
f 1712 1715 1716
f 1717 1712 1716
f 1718 1712 1717
f 1719 1712 1718
f 1720 1712 1719
f 1721 1722 1723
f 1724 1725 1722
f 1724 1721 1726
f 1724 1722 1721
f 1724 1726 1725
f 1727 1728 1725
f 1727 1726 1729
f 1727 1725 1726
f 1727 1729 1728
f 1730 1731 1728
f 1730 1732 1733
f 1730 1733 1734
f 1730 1734 1731
f 1730 1729 1732
f 1730 1728 1729
f 1735 1736 1737
f 1735 1737 1738
f 1735 1738 1739
f 1740 1736 1735
f 1741 1742 1743
f 1741 1744 1742
f 1741 1745 1744
f 1741 1746 1745
f 1741 1747 1746
f 1748 1741 1743
f 1749 1748 1743
f 1750 1748 1749
f 1751 1748 1750
f 1752 1748 1751
f 1753 1754 1755
f 1753 1756 1754
f 1757 1758 1759
f 1760 1759 1761
f 1760 1761 1762
f 1760 1762 1756
f 1760 1756 1753
f 1760 1757 1759
f 1760 1753 1757
f 1763 1764 1765
f 1763 1766 1767
f 1768 1769 1766
f 1768 1766 1763
f 1768 1763 1765
f 1770 1765 1771
f 1770 1772 1769
f 1770 1768 1765
f 1770 1769 1768
f 1773 1753 1764
f 1773 1767 1757
f 1773 1757 1753
f 1773 1763 1767
f 1773 1764 1763
f 1774 1770 1771
f 1774 1772 1770
f 1775 1776 1777
f 1775 1778 1776
f 1775 1779 1778
f 1775 1780 1779
f 1775 1781 1780
f 1782 1783 1784
f 1782 1785 1783
f 1782 1777 1785
f 1782 1784 1786
f 1782 1775 1777
f 1787 1786 1772
f 1787 1788 1786
f 1787 1772 1774
f 1789 1771 1781
f 1789 1788 1771
f 1789 1781 1775
f 1790 1771 1788
f 1790 1774 1771
f 1790 1787 1774
f 1790 1788 1787
f 1791 1786 1788
f 1791 1789 1775
f 1791 1788 1789
f 1791 1782 1786
f 1791 1775 1782
f 1792 1793 1794
f 1792 1795 1793
f 1792 1796 1795
f 1792 1797 1796
f 1798 1799 1800
f 1798 1800 1797
f 1798 1797 1792
f 1801 1802 1799
f 1801 1792 1803
f 1801 1799 1798
f 1801 1798 1792
f 1804 1801 1803
f 1804 1802 1801
f 1805 1806 1802
f 1805 1803 1807
f 1805 1804 1803
f 1805 1802 1804
f 1808 1809 1810
f 1808 1810 1811
f 1808 1811 1812
f 1808 1812 1813
f 1808 1807 1809
f 1808 1805 1807
f 1808 1806 1805
f 1814 1806 1808
f 1815 1813 1816
f 1815 1806 1814
f 1815 1814 1808
f 1815 1808 1813
f 1817 1816 1818
f 1817 1818 1819
f 1817 1819 1820
f 1817 1820 1806
f 1817 1815 1816
f 1817 1806 1815
f 1821 1822 1823
f 1824 1825 1826
f 1824 1823 1825
f 1824 1821 1823
f 1827 1828 1821
f 1827 1821 1824
f 1829 1830 1828
f 1829 1828 1827
f 1831 1832 1830
f 1831 1830 1829
f 1833 1834 1832
f 1835 1832 1831
f 1835 1833 1832
f 1836 1835 1831
f 1837 1838 1839
f 1837 1839 1840
f 1837 1840 1841
f 1842 1843 1838
f 1842 1838 1837
f 1844 1845 1843
f 1844 1843 1842
f 1846 1847 1845
f 1846 1845 1844
f 1848 1847 1846
f 1849 1739 1850
f 1851 1852 1853
f 1851 1850 1852
f 1851 1849 1850
f 1854 1855 1849
f 1854 1849 1851
f 1856 1857 1855
f 1856 1855 1854
f 1858 1859 1857
f 1858 1857 1856
f 1860 1861 1859
f 1862 1859 1858
f 1862 1860 1859
f 1863 1862 1858
f 1864 1865 1866
f 1864 1866 1856
f 1864 1856 1867
f 1864 1867 1868
f 1864 1868 1869
f 1870 1865 1864
f 1870 1864 1869
f 1871 1872 1865
f 1871 1869 1873
f 1871 1874 1872
f 1871 1865 1870
f 1871 1870 1869
f 1875 1874 1871
f 1875 1871 1873
f 1876 1877 1874
f 1876 1878 1877
f 1876 1879 1878
f 1876 1880 1879
f 1876 1881 1880
f 1876 1873 1881
f 1876 1874 1875
f 1876 1875 1873
f 1882 1883 1884
f 1885 1886 1883
f 1885 1882 1887
f 1885 1883 1882
f 1888 1889 1886
f 1888 1886 1885
f 1890 1891 1889
f 1890 1889 1888
f 1892 1893 1891
f 1892 1891 1890
f 1894 1895 1893
f 1894 1893 1892
f 1896 1897 1898
f 1899 1900 1897
f 1899 1897 1896
f 1901 1902 1903
f 1901 1903 1900
f 1901 1900 1899
f 1904 1905 1902
f 1904 1902 1901
f 1906 1907 1905
f 1906 1905 1904
f 1908 1909 1910
f 1908 1910 1911
f 1908 1911 1912
f 1908 1912 1454
f 1913 1908 1914
f 1913 1909 1908
f 1915 1914 1916
f 1915 1913 1914
f 1917 1915 1916
f 1918 1915 1917
f 1919 1918 1917
f 1920 1919 1921
f 1920 1918 1919
f 1922 1920 1921
f 1923 1922 1924
f 1923 1920 1922
f 1925 1924 1926
f 1925 1923 1924
f 1927 1925 1926
f 1928 1925 1927
f 1929 1928 1927
f 1930 1928 1929
f 1931 1929 1932
f 1931 1930 1929
f 1933 1930 1931
f 1934 1930 1933

