# https://github.com/mikedh/trimesh
v 0.06538491 0.14975004 0.09099997
v 0.04853046 0.12966362 0.09099997
v 0.05783632 0.13896948 0.09099997
v 0.03775000 0.12211505 0.09099997
v 0.02582248 0.11655317 0.09099997
v 0.07549998 0.18750000 0.09099997
v 0.07094673 0.16167742 0.09099997
v 0.07435296 0.17438951 0.09099997
v 0.07094675 0.21332245 0.09099997
v 0.07435294 0.20061047 0.09099997
v -0.03774999 0.12211504 0.09099997
v 0.01311046 0.11314706 0.09099997
v -0.00000001 0.11199997 0.09099997
v -0.01311043 0.11314701 0.09099997
v -0.02582248 0.11655322 0.09099997
v -0.01311043 0.11314701 0.09099997
v 0.05783634 0.23603041 0.09099997
v 0.06538492 0.22525004 0.09099997
v -0.05783636 0.13896954 0.09099997
v -0.04853043 0.12966365 0.09099997
v 0.03774998 0.25288492 0.09099997
v 0.04853041 0.24533632 0.09099997
v -0.07094678 0.16167744 0.09099997
v -0.06538492 0.14974992 0.09099997
v 0.01311050 0.26185307 0.09099998
v 0.02582253 0.25844684 0.09099998
v 0.00000006 0.26299998 0.09099998
v -0.07435297 0.20061046 0.09099997
v -0.07435295 0.17438948 0.09099997
v -0.07550000 0.18749997 0.09099997
v -0.02582248 0.25844678 0.09099997
v -0.01311040 0.26185301 0.09099998
v -0.06538494 0.22524995 0.09099997
v -0.07094676 0.21332246 0.09099997
v -0.05783633 0.23603050 0.09099997
v -0.03774995 0.25288492 0.09099997
v -0.04853041 0.24533635 0.09099997
v -0.05783633 0.23603050 0.09099997
v -0.03774995 0.25288492 0.09099997
v 0.00050005 0.11150171 0.09050000
v 0.00050001 0.11189996 0.08800018
v 0.00050005 0.11150171 0.08800018
v 0.00050001 0.11189996 0.09089839
v 0.00050001 0.11189996 0.08800018
v 0.00050001 0.11189996 0.09089839
v 0.00016669 0.11189998 0.09089983
v 0.00041579 0.11190002 0.08772243
v 0.00046199 0.11190003 0.08780885
v 0.00049039 0.11189996 0.08790267
v -0.00049995 0.11190001 0.08800018
v 0.00049039 0.11189996 0.08790267
v 0.00050001 0.11189996 0.08800018
v -0.00049995 0.11190001 0.08800018
v 0.00035360 0.11190002 0.08764661
v 0.00041579 0.11190002 0.08772243
v -0.00049995 0.11190001 0.08800018
v 0.00027783 0.11189993 0.08758450
v 0.00035360 0.11190002 0.08764661
v -0.00049995 0.11190001 0.08800018
v 0.00019138 0.11189998 0.08753825
v 0.00027783 0.11189993 0.08758450
v -0.00049995 0.11190001 0.08800018
v -0.00016663 0.11189999 0.09089983
v -0.00049995 0.11190001 0.09089839
v -0.00049995 0.11190001 0.08800018
v 0.00016669 0.11189998 0.09089983
v -0.00016663 0.11189999 0.09089983
v -0.00049995 0.11190001 0.08800018
v 0.00041579 0.11190002 0.08772243
v 0.00049039 0.11189996 0.08790267
v 0.00000003 0.11189999 0.08750021
v 0.00009760 0.11189994 0.08750988
v 0.00019138 0.11189998 0.08753825
v 0.00000003 0.11189999 0.08750021
v 0.00019138 0.11189998 0.08753825
v -0.00049995 0.11190001 0.08800018
v -0.00046193 0.11189994 0.08780885
v -0.00049995 0.11190001 0.08800018
v -0.00049033 0.11189999 0.08790267
v -0.00019132 0.11189999 0.08753825
v -0.00009755 0.11189993 0.08750988
v 0.00000003 0.11189999 0.08750021
v -0.00041571 0.11190004 0.08772243
v -0.00049995 0.11190001 0.08800018
v -0.00046193 0.11189994 0.08780885
v -0.00027777 0.11190003 0.08758450
v 0.00000003 0.11189999 0.08750021
v -0.00027777 0.11190003 0.08758450
v -0.00035354 0.11189994 0.08764661
v -0.00049995 0.11190001 0.08800018
v -0.00041571 0.11190004 0.08772243
v -0.00035354 0.11189994 0.08764661
v -0.00027777 0.11190003 0.08758450
v -0.00049995 0.11190001 0.08800018
v -0.00049995 0.11190001 0.08800018
v -0.00049995 0.11190001 0.09089839
v -0.00049997 0.11150167 0.09050000
v -0.00049997 0.11150167 0.08800018
v 0.00050005 0.10200004 -0.07569836
v 0.00050002 0.09920000 -0.07569836
v 0.00016670 0.09919852 -0.07569836
v 0.00035357 0.10235351 -0.07569836
v 0.00041580 0.10227782 -0.07569836
v 0.00046199 0.10219133 -0.07569836
v 0.00049045 0.10209752 -0.07569836
v -0.00049998 0.10200001 -0.07569836
v 0.00027781 0.10241571 -0.07569836
v 0.00035357 0.10235351 -0.07569836
v -0.00049998 0.10200001 -0.07569836
v 0.00049045 0.10209752 -0.07569836
v 0.00050005 0.10200004 -0.07569836
v -0.00049998 0.10200001 -0.07569836
v -0.00016663 0.09919850 -0.07569836
v -0.00049995 0.09919998 -0.07569836
v 0.00049045 0.10209752 -0.07569836
v -0.00046190 0.10219134 -0.07569836
v -0.00049998 0.10200001 -0.07569836
v -0.00049034 0.10209756 -0.07569836
v -0.00027774 0.10241571 -0.07569836
v -0.00019133 0.10246193 -0.07569836
v -0.00009750 0.10249038 -0.07569836
v 0.00000003 0.10250002 -0.07569836
v -0.00027774 0.10241571 -0.07569836
v 0.00000003 0.10250002 -0.07569836
v 0.00009759 0.10249041 -0.07569836
v -0.00027774 0.10241571 -0.07569836
v 0.00009759 0.10249041 -0.07569836
v 0.00019137 0.10246192 -0.07569836
v -0.00041570 0.10227782 -0.07569836
v -0.00035356 0.10235353 -0.07569836
v 0.00019137 0.10246192 -0.07569836
v 0.00027781 0.10241571 -0.07569836
v -0.00035356 0.10235353 -0.07569836
v 0.00027781 0.10241571 -0.07569836
v -0.00027774 0.10241571 -0.07569836
v 0.00019137 0.10246192 -0.07569836
v -0.00035356 0.10235353 -0.07569836
v -0.00049998 0.09949996 -0.07599835
v -0.00049998 0.10200001 -0.07569836
v -0.00049995 0.09919998 -0.07569836
v -0.00049998 0.10200001 -0.07599835
v 0.04628068 0.09900001 -0.05515521
v 0.04853042 0.09899996 -0.05783635
v 0.05783634 0.09899998 -0.04853044
v 0.05515520 0.09900005 -0.04628074
v 0.06538489 0.09899998 -0.03774999
v 0.03599998 0.09899998 -0.06235383
v 0.03774996 0.09899993 -0.06538491
v 0.06235376 0.09899995 -0.03600001
v 0.07094674 0.09900001 -0.02582252
v 0.02462540 0.09899998 -0.06765787
v 0.02582248 0.09900001 -0.07094681
v 0.06765781 0.09900003 -0.02462542
v 0.07435293 0.09899999 -0.01311039
v 0.01250267 0.09899998 -0.07090615
v 0.01311043 0.09899996 -0.07435296
v 0.07090613 0.09900001 -0.01250267
v 0.00000005 0.09900001 -0.07550000
v 0.07549997 0.09899998 0.00000000
v 0.00000005 0.09900001 -0.07200001
v 0.07199998 0.09899998 0.00000000
v -0.01311041 0.09900000 -0.07435296
v 0.07435293 0.09899999 0.01311039
v -0.01250265 0.09899998 -0.07090615
v 0.07090613 0.09900001 0.01250267
v 0.07435293 0.09899999 0.01311039
v -0.02582247 0.09900002 -0.07094681
v 0.07094674 0.09900001 0.02582252
v -0.02462545 0.09899998 -0.06765787
v 0.06765781 0.09900003 0.02462542
v -0.03774995 0.09900001 -0.06538491
v -0.03599996 0.09899999 -0.06235383
v 0.06235376 0.09899995 0.03600001
v 0.06538489 0.09899998 0.03775000
v -0.04853041 0.09899998 -0.05783635
v -0.04628068 0.09899997 -0.05515521
v 0.05515520 0.09900005 0.04628075
v 0.05783634 0.09899998 0.04853045
v -0.05783634 0.09899999 -0.04853044
v -0.05515518 0.09899998 -0.04628074
v 0.04853042 0.09899996 0.05783641
v 0.04628068 0.09900000 0.05515515
v -0.06538488 0.09899999 -0.03774999
v -0.06235381 0.09900001 -0.03600001
v 0.03774997 0.09900002 0.06538486
v 0.03599998 0.09899997 0.06235384
v 0.02462540 0.09899997 0.06765783
v -0.07094678 0.09899998 -0.02582252
v -0.06765786 0.09900000 -0.02462542
v 0.02582248 0.09900000 0.07094682
v -0.07435298 0.09899999 -0.01311039
v -0.07090610 0.09900000 -0.01250267
v 0.01311044 0.09900001 0.07435298
v 0.01250267 0.09899998 0.07090617
v -0.07549994 0.09900001 0.00000000
v -0.07199997 0.09899995 0.00000000
v 0.00000005 0.09900000 0.07550002
v 0.00000005 0.09900000 0.07200003
v -0.07090610 0.09900000 0.01250267
v -0.01250265 0.09899998 0.07090617
v -0.07435298 0.09899999 0.01311039
v -0.01311041 0.09899999 0.07435298
v -0.07094678 0.09899998 0.02582252
v -0.06765786 0.09900000 0.02462542
v -0.02582247 0.09900001 0.07094682
v -0.02462545 0.09899998 0.06765783
v -0.06538488 0.09899999 0.03775000
v -0.06235381 0.09900001 0.03600001
v -0.05515518 0.09899997 0.04628075
v -0.03774995 0.09900001 0.06538486
v -0.03599996 0.09899998 0.06235384
v -0.05783634 0.09899999 0.04853045
v -0.04628068 0.09899996 0.05515515
v -0.04853041 0.09899998 0.05783641
v 0.07090610 0.09749996 -0.01250267
v 0.05515516 0.09749991 -0.04628074
v 0.06235382 0.09749999 -0.03600001
v 0.06765786 0.09749997 -0.02462542
v 0.01250267 0.09749999 -0.07090615
v 0.02462545 0.09749998 -0.06765787
v 0.03599997 0.09750003 -0.06235383
v 0.04628068 0.09749996 -0.05515521
v -0.01250266 0.09749998 -0.07090615
v 0.00000003 0.09749995 -0.07200001
v 0.06765786 0.09749997 0.02462542
v 0.07199997 0.09749993 0.00000000
v 0.07090610 0.09749996 0.01250267
v 0.06235382 0.09749999 0.03600001
v 0.04628068 0.09749995 0.05515515
v 0.05515516 0.09749990 0.04628075
v 0.03599997 0.09750003 0.06235384
v 0.06235382 0.09749999 0.03600001
v 0.04628068 0.09749995 0.05515515
v -0.06235384 0.09749996 -0.03600001
v -0.05515518 0.09749997 -0.04628074
v -0.04628069 0.09749997 -0.05515521
v -0.03599998 0.09750000 -0.06235383
v 0.02462545 0.09749997 0.06765783
v -0.07090612 0.09750000 -0.01250267
v -0.06765787 0.09749995 -0.02462542
v -0.06235384 0.09749996 -0.03600001
v -0.07090612 0.09750000 -0.01250267
v -0.02462540 0.09749998 -0.06765787
v -0.02462540 0.09749997 0.06765783
v 0.01250267 0.09749998 0.07090617
v 0.00000003 0.09750000 0.07200003
v -0.01250266 0.09749998 0.07090617
v -0.04628069 0.09749997 0.05515515
v -0.03599998 0.09749999 0.06235384
v -0.05515518 0.09749997 0.04628075
v -0.06235384 0.09749995 0.03600001
v -0.06765787 0.09749994 0.02462542
v -0.07090612 0.09750000 0.01250267
v -0.07199999 0.09749997 0.00000000
v 0.01250267 0.09749999 -0.07090615
v 0.00000003 0.09749995 -0.07200001
v 0.00000005 0.09900001 -0.07200001
v 0.01250267 0.09899998 -0.07090615
v 0.02462545 0.09749998 -0.06765787
v 0.02462540 0.09899998 -0.06765787
v 0.03599997 0.09750003 -0.06235383
v 0.03599998 0.09899998 -0.06235383
v 0.04628068 0.09749996 -0.05515521
v 0.04628068 0.09900001 -0.05515521
v 0.05515516 0.09749991 -0.04628074
v 0.05515520 0.09900005 -0.04628074
v 0.06235382 0.09749999 -0.03600001
v 0.06235376 0.09899995 -0.03600001
v 0.06765786 0.09749997 -0.02462542
v 0.06765781 0.09900003 -0.02462542
v 0.07090610 0.09749996 -0.01250267
v 0.07090613 0.09900001 -0.01250267
v 0.07199997 0.09749993 0.00000000
v 0.07199998 0.09899998 0.00000000
v 0.07090610 0.09749996 0.01250267
v 0.07090613 0.09900001 0.01250267
v 0.06765786 0.09749997 0.02462542
v 0.06765781 0.09900003 0.02462542
v 0.06235382 0.09749999 0.03600001
v 0.06235376 0.09899995 0.03600001
v 0.05515516 0.09749990 0.04628075
v 0.05515520 0.09900005 0.04628075
v 0.04628068 0.09749995 0.05515515
v 0.04628068 0.09900000 0.05515515
v 0.03599997 0.09750003 0.06235384
v 0.03599998 0.09899997 0.06235384
v 0.02462545 0.09749997 0.06765783
v 0.02462540 0.09899997 0.06765783
v 0.01250267 0.09749998 0.07090617
v 0.01250267 0.09899998 0.07090617
v 0.00000003 0.09750000 0.07200003
v 0.00000005 0.09900000 0.07200003
v -0.01250266 0.09749998 0.07090617
v -0.01250265 0.09899998 0.07090617
v -0.02462540 0.09749997 0.06765783
v -0.02462545 0.09899998 0.06765783
v -0.03599998 0.09749999 0.06235384
v -0.03599996 0.09899998 0.06235384
v -0.04628068 0.09899996 0.05515515
v -0.04628069 0.09749997 0.05515515
v -0.05515518 0.09749997 0.04628075
v -0.05515518 0.09899997 0.04628075
v -0.06235384 0.09749995 0.03600001
v -0.06235381 0.09900001 0.03600001
v -0.06765787 0.09749994 0.02462542
v -0.06765786 0.09900000 0.02462542
v -0.07090612 0.09750000 0.01250267
v -0.07090610 0.09900000 0.01250267
v -0.07199999 0.09749997 0.00000000
v -0.07199997 0.09899995 0.00000000
v -0.07090612 0.09750000 -0.01250267
v -0.07090610 0.09900000 -0.01250267
v -0.06765787 0.09749995 -0.02462542
v -0.06765786 0.09900000 -0.02462542
v -0.06235384 0.09749996 -0.03600001
v -0.06235381 0.09900001 -0.03600001
v -0.05515518 0.09749997 -0.04628074
v -0.05515518 0.09899998 -0.04628074
v -0.04628069 0.09749997 -0.05515521
v -0.04628068 0.09899997 -0.05515521
v -0.03599998 0.09750000 -0.06235383
v -0.03599996 0.09899999 -0.06235383
v -0.02462545 0.09899998 -0.06765787
v -0.02462540 0.09749998 -0.06765787
v -0.01250266 0.09749998 -0.07090615
v -0.01250265 0.09899998 -0.07090615
v 0.00000003 0.09749995 -0.07200001
v 0.00000005 0.09900001 -0.07200001
v -0.00049995 0.26310000 0.08800019
v -0.00049999 0.26349837 0.08800019
v -0.00049999 0.26349837 0.09050000
v -0.00049995 0.26310000 0.09089840
v 0.00049038 0.26309994 0.08790267
v 0.00046198 0.26310003 0.08780885
v 0.00041578 0.26310003 0.08772244
v 0.00049038 0.26309994 0.08790267
v 0.00041578 0.26310003 0.08772244
v 0.00035359 0.26310003 0.08764662
v 0.00049038 0.26309994 0.08790267
v 0.00035359 0.26310003 0.08764662
v 0.00027784 0.26310003 0.08758450
v 0.00049038 0.26309994 0.08790267
v 0.00027784 0.26310003 0.08758450
v 0.00019138 0.26309997 0.08753826
v 0.00009759 0.26309994 0.08750989
v 0.00049038 0.26309994 0.08790267
v 0.00019138 0.26309997 0.08753826
v -0.00046192 0.26310003 0.08780885
v -0.00035354 0.26310003 0.08764662
v -0.00041572 0.26310003 0.08772244
v -0.00049995 0.26310000 0.08800019
v 0.00050000 0.26309994 0.08800019
v 0.00049038 0.26309994 0.08790267
v -0.00049995 0.26310000 0.08800019
v 0.00009759 0.26309994 0.08750989
v 0.00000002 0.26309997 0.08750022
v -0.00049995 0.26310000 0.08800019
v 0.00000002 0.26309997 0.08750022
v -0.00009755 0.26310003 0.08750989
v -0.00049995 0.26310000 0.08800019
v -0.00009755 0.26310003 0.08750989
v -0.00019133 0.26309997 0.08753826
v -0.00049995 0.26310000 0.08800019
v -0.00019133 0.26309997 0.08753826
v -0.00027778 0.26310003 0.08758450
v -0.00049995 0.26310000 0.08800019
v -0.00027778 0.26310003 0.08758450
v -0.00035354 0.26310003 0.08764662
v -0.00049995 0.26310000 0.08800019
v -0.00046192 0.26310003 0.08780885
v -0.00049034 0.26310000 0.08790267
v -0.00049995 0.26310000 0.08800019
v 0.00049038 0.26309994 0.08790267
v 0.00009759 0.26309994 0.08750989
v -0.00049995 0.26310000 0.08800019
v -0.00035354 0.26310003 0.08764662
v -0.00046192 0.26310003 0.08780885
v 0.00016668 0.26309997 0.09089983
v 0.00050000 0.26309994 0.09089840
v 0.00050000 0.26309994 0.08800019
v -0.00016664 0.26309997 0.09089983
v 0.00050000 0.26309994 0.08800019
v -0.00049995 0.26310000 0.08800019
v -0.00016664 0.26309997 0.09089983
v 0.00016668 0.26309997 0.09089983
v 0.00050000 0.26309994 0.08800019
v -0.00049995 0.26310000 0.09089840
v -0.00016664 0.26309997 0.09089983
v -0.00049995 0.26310000 0.08800019
v 0.00050003 0.26349837 0.09050000
v 0.00050003 0.26349837 0.08800019
v 0.00050000 0.26309994 0.08800019
v 0.00050000 0.26309994 0.09089840
v 0.00050003 0.26349837 0.08800019
v 0.00049038 0.26309994 0.08790267
v 0.00050000 0.26309994 0.08800019
v 0.00046472 0.26349851 0.08781566
v 0.00046198 0.26310003 0.08780885
v 0.00041578 0.26310003 0.08772244
v 0.00036412 0.26349914 0.08765759
v 0.00035359 0.26310003 0.08764662
v 0.00027784 0.26310003 0.08758450
v 0.00021242 0.26349968 0.08754756
v 0.00019138 0.26309997 0.08753826
v 0.00010563 0.26349989 0.08751155
v 0.00009759 0.26309994 0.08750989
v 0.00000002 0.26309997 0.08750022
v -0.00002947 0.26350003 0.08750106
v -0.00009755 0.26310003 0.08750989
v -0.00018801 0.26349971 0.08753695
v -0.00019133 0.26309997 0.08753826
v -0.00027778 0.26310003 0.08758450
v -0.00035034 0.26349917 0.08764351
v -0.00035354 0.26310003 0.08764662
v -0.00041780 0.26349887 0.08772565
v -0.00041572 0.26310003 0.08772244
v -0.00046192 0.26310003 0.08780885
v -0.00046985 0.26349857 0.08782937
v -0.00049034 0.26310000 0.08790267
v -0.00049999 0.26349837 0.08800019
v -0.00049995 0.26310000 0.08800019
v -0.00049997 0.11150167 0.08800018
v -0.00049033 0.11189999 0.08790267
v -0.00049995 0.11190001 0.08800018
v -0.00046467 0.11150143 0.08781565
v -0.00041571 0.11190004 0.08772243
v -0.00046193 0.11189994 0.08780885
v -0.00036404 0.11150090 0.08765758
v -0.00027777 0.11190003 0.08758450
v -0.00035354 0.11189994 0.08764661
v -0.00021236 0.11150027 0.08754755
v -0.00019132 0.11189999 0.08753825
v -0.00010557 0.11150008 0.08751154
v 0.00000003 0.11189999 0.08750021
v -0.00009755 0.11189993 0.08750988
v 0.00002954 0.11150002 0.08750105
v 0.00009760 0.11189994 0.08750988
v 0.00018799 0.11150025 0.08753694
v 0.00027783 0.11189993 0.08758450
v 0.00019138 0.11189998 0.08753825
v 0.00035039 0.11150077 0.08764350
v 0.00035360 0.11190002 0.08764661
v 0.00041786 0.11150121 0.08772564
v 0.00046199 0.11190003 0.08780885
v 0.00041579 0.11190002 0.08772243
v 0.00046993 0.11150149 0.08782936
v 0.00049039 0.11189996 0.08790267
v 0.00050005 0.11150171 0.08800018
v 0.00050001 0.11189996 0.08800018
v 0.00050004 0.09949996 -0.07599835
v 0.00050005 0.10200004 -0.07569836
v 0.00050005 0.10200004 -0.07599835
v 0.00050002 0.09920000 -0.07569836
v 0.00049045 0.10209752 -0.07569836
v 0.00050005 0.10200004 -0.07599835
v 0.00046992 0.10217088 -0.07599853
v 0.00046199 0.10219133 -0.07569836
v 0.00041786 0.10227463 -0.07599884
v 0.00041580 0.10227782 -0.07569836
v 0.00035357 0.10235351 -0.07569836
v 0.00035037 0.10235673 -0.07599919
v 0.00027781 0.10241571 -0.07569836
v 0.00018801 0.10246336 -0.07599972
v 0.00019137 0.10246192 -0.07569836
v 0.00009759 0.10249041 -0.07569836
v 0.00002953 0.10249911 -0.07599996
v 0.00000003 0.10250002 -0.07569836
v -0.00010559 0.10248868 -0.07599990
v -0.00009750 0.10249038 -0.07569836
v -0.00019133 0.10246193 -0.07569836
v -0.00021240 0.10245260 -0.07599966
v -0.00027774 0.10241571 -0.07569836
v -0.00036407 0.10234265 -0.07599913
v -0.00035356 0.10235353 -0.07569836
v -0.00041570 0.10227782 -0.07569836
v -0.00046469 0.10218453 -0.07599859
v -0.00046190 0.10219134 -0.07569836
v -0.00049034 0.10209756 -0.07569836
v -0.00049998 0.10200001 -0.07599835
v -0.00049998 0.10200001 -0.07569836
f 1 2 3
f 1 4 2
f 5 4 1
f 6 7 8
f 6 1 7
f 9 6 10
f 9 1 6
f 11 12 5
f 11 13 12
f 11 14 13
f 11 15 16
f 17 9 18
f 19 20 11
f 19 5 1
f 19 11 5
f 21 17 22
f 21 9 17
f 23 24 19
f 25 21 26
f 27 21 25
f 28 29 23
f 28 30 29
f 28 23 19
f 31 27 32
f 31 21 27
f 33 34 28
f 35 33 28
f 35 21 31
f 35 31 36
f 35 1 9
f 35 19 1
f 35 9 21
f 35 28 19
f 37 38 39
f 40 41 42
f 40 43 41
f 44 45 46
f 47 48 49
f 50 51 52
f 53 54 55
f 56 57 58
f 59 60 61
f 62 63 64
f 65 66 67
f 56 44 46
f 68 69 70
f 71 72 73
f 74 75 76
f 77 78 79
f 80 81 82
f 83 84 85
f 86 87 65
f 88 80 82
f 89 90 91
f 92 93 94
f 95 96 97
f 98 95 97
f 99 100 101
f 102 103 104
f 102 104 105
f 106 107 108
f 109 110 111
f 112 113 114
f 112 101 113
f 112 99 101
f 106 108 115
f 116 117 118
f 119 120 121
f 119 121 122
f 123 124 125
f 126 127 128
f 129 117 116
f 130 131 132
f 133 134 112
f 133 135 136
f 137 117 129
f 138 139 140
f 138 141 139
f 142 143 144
f 145 144 146
f 145 142 144
f 147 148 143
f 147 143 142
f 149 145 146
f 150 149 146
f 151 152 148
f 151 148 147
f 153 149 150
f 154 153 150
f 155 156 152
f 155 152 151
f 157 153 154
f 158 156 155
f 159 157 154
f 160 158 155
f 161 157 159
f 162 158 160
f 163 161 159
f 164 162 160
f 165 161 166
f 167 162 164
f 168 165 166
f 169 167 164
f 170 165 168
f 171 167 169
f 172 171 169
f 173 168 174
f 173 170 168
f 175 171 172
f 176 175 172
f 177 174 178
f 177 173 174
f 179 175 176
f 179 176 180
f 181 177 178
f 181 182 177
f 183 180 184
f 183 179 180
f 185 182 181
f 185 186 182
f 187 186 185
f 188 184 189
f 188 183 184
f 190 187 185
f 191 189 192
f 191 188 189
f 193 194 187
f 193 187 190
f 195 192 196
f 195 191 192
f 197 194 193
f 197 198 194
f 199 195 196
f 200 198 197
f 201 195 199
f 202 200 197
f 203 199 204
f 203 201 199
f 205 206 200
f 205 200 202
f 207 204 208
f 207 208 209
f 207 203 204
f 210 211 206
f 210 206 205
f 212 207 209
f 212 209 213
f 214 213 211
f 214 212 213
f 214 211 210
f 215 216 217
f 215 217 218
f 219 220 221
f 219 221 222
f 219 222 216
f 223 224 219
f 225 215 226
f 225 226 227
f 225 216 215
f 225 219 216
f 228 219 225
f 229 228 230
f 231 232 233
f 234 235 236
f 234 236 237
f 238 232 231
f 239 240 241
f 242 237 243
f 242 243 223
f 242 234 237
f 244 238 245
f 244 245 246
f 244 246 247
f 244 228 238
f 248 228 244
f 248 244 249
f 248 223 219
f 248 219 232
f 250 223 248
f 250 251 252
f 250 252 253
f 250 253 254
f 250 254 242
f 250 242 223
f 255 256 257
f 255 257 258
f 259 258 260
f 259 255 258
f 261 260 262
f 261 259 260
f 263 262 264
f 263 261 262
f 265 264 266
f 265 263 264
f 267 265 266
f 267 266 268
f 269 267 268
f 269 268 270
f 271 269 270
f 271 270 272
f 273 271 272
f 273 272 274
f 275 273 274
f 275 274 276
f 277 275 276
f 277 276 278
f 279 277 278
f 279 278 280
f 281 279 280
f 281 280 282
f 283 281 282
f 283 282 284
f 285 283 284
f 285 284 286
f 287 285 286
f 287 286 288
f 289 287 288
f 289 288 290
f 291 289 290
f 291 290 292
f 293 292 294
f 293 291 292
f 295 294 296
f 295 293 294
f 297 298 299
f 297 296 298
f 297 295 296
f 300 297 299
f 301 299 302
f 301 300 299
f 303 302 304
f 303 301 302
f 305 304 306
f 305 303 304
f 307 306 308
f 307 305 306
f 309 308 310
f 309 307 308
f 311 310 312
f 311 309 310
f 313 312 314
f 313 311 312
f 315 314 316
f 315 313 314
f 317 316 318
f 317 315 316
f 319 317 318
f 319 318 320
f 321 319 320
f 321 322 323
f 321 320 322
f 324 321 323
f 325 324 323
f 325 323 326
f 327 325 326
f 327 326 328
f 329 330 331
f 329 331 332
f 333 334 335
f 336 337 338
f 339 340 341
f 342 343 344
f 345 346 347
f 348 349 350
f 351 352 353
f 354 355 356
f 357 358 359
f 360 361 362
f 363 364 365
f 366 367 368
f 369 370 371
f 372 373 374
f 375 376 377
f 378 379 380
f 381 382 383
f 384 385 386
f 387 388 389
f 390 391 392
f 393 390 392
f 394 395 396
f 397 398 395
f 397 399 398
f 397 395 394
f 400 401 399
f 400 402 401
f 400 399 397
f 403 404 402
f 403 402 400
f 405 406 404
f 405 407 406
f 405 404 403
f 408 409 407
f 408 407 405
f 410 411 409
f 410 412 411
f 410 409 408
f 413 414 412
f 413 412 410
f 415 416 414
f 415 417 416
f 415 414 413
f 418 419 417
f 418 417 415
f 420 421 419
f 420 419 418
f 422 423 424
f 425 426 427
f 425 427 423
f 425 423 422
f 428 429 430
f 428 430 426
f 428 426 425
f 431 432 429
f 431 429 428
f 433 434 435
f 433 435 432
f 433 432 431
f 436 437 434
f 436 434 433
f 438 439 440
f 438 440 437
f 438 437 436
f 441 442 439
f 441 439 438
f 443 444 445
f 443 445 442
f 443 442 441
f 446 447 444
f 446 444 443
f 448 449 447
f 448 447 446
f 450 451 452
f 453 451 450
f 454 455 451
f 454 456 455
f 457 458 456
f 457 456 454
f 459 458 457
f 460 461 458
f 460 458 459
f 462 463 461
f 462 461 460
f 464 463 462
f 465 466 463
f 465 463 464
f 467 468 466
f 467 466 465
f 469 468 467
f 470 471 468
f 470 468 469
f 472 473 471
f 472 471 470
f 474 473 472
f 475 476 473
f 475 473 474
f 477 476 475
f 478 479 476
f 478 476 477
f 480 479 478

