# https://github.com/mikedh/trimesh
v 0.02837079 0.15872160 0.02315770
v 0.02542471 0.16843431 0.03287034
v 0.02881795 0.16593070 0.03036676
v 0.03196632 0.16312520 0.02756129
v 0.02792388 0.15805620 0.02249227
v 0.02132129 0.17087901 0.03531502
v 0.02792388 0.15805620 0.02249227
v 0.02542471 0.16843431 0.03287034
v 0.02837079 0.15872160 0.02315770
v 0.04227072 0.14787871 0.01231478
v 0.03860545 0.15318009 0.01761620
v 0.03931719 0.15377989 0.01821600
v 0.04227072 0.14787871 0.01231478
v 0.03776013 0.15267441 0.01711051
v 0.03860545 0.15318009 0.01761620
v 0.03680568 0.15227750 0.01671360
v 0.03776013 0.15267441 0.01711051
v 0.03576982 0.15200099 0.01643704
v 0.02763307 0.15734890 0.02178495
v 0.01246428 0.17442250 0.03885858
v 0.01698541 0.17288230 0.03731839
v 0.03468257 0.15185270 0.01628880
v 0.03576982 0.15200099 0.01643704
v 0.02750575 0.15661781 0.02105384
v 0.00306517 0.17605130 0.04048733
v 0.00780725 0.17548260 0.03991871
v 0.02750575 0.15661781 0.02105384
v 0.00780725 0.17548260 0.03991871
v 0.01246428 0.17442250 0.03885858
v 0.03357553 0.15183710 0.01627319
v 0.03468257 0.15185270 0.01628880
v -0.00171029 0.17612210 0.04055820
v 0.04367327 0.14399770 0.00843375
v 0.03248083 0.15195461 0.01639067
v 0.04448205 0.13971379 0.00414991
v 0.04448205 0.13971379 0.00414991
v 0.03143018 0.15220180 0.01663785
v 0.03248083 0.15195461 0.01639067
v 0.03045409 0.15257140 0.01700751
v 0.03143018 0.15220180 0.01663785
v 0.04448205 0.13971379 0.00414991
v 0.02958095 0.15305290 0.01748894
v 0.03045409 0.15257140 0.01700751
v 0.04472053 0.14000601 0.00444209
v 0.04448205 0.13971379 0.00414991
v 0.04472053 0.14000601 0.00444209
v 0.04472345 0.13990299 0.00433903
v 0.04472345 0.13990299 0.00433903
v 0.04469013 0.13981730 0.00425338
v 0.04448205 0.13971379 0.00414991
v 0.04469013 0.13981730 0.00425338
v 0.04460167 0.13974009 0.00417619
v -0.02837085 0.15872160 0.02315770
v -0.03196638 0.16312520 0.02756129
v -0.02749323 0.16696601 0.03140216
v -0.02256345 0.17019950 0.03463559
v -0.02790307 0.15801691 0.02245294
v -0.02761024 0.15726639 0.02170251
v -0.01725894 0.17277190 0.03720795
v -0.01166772 0.17464040 0.03907649
v -0.02750068 0.15649180 0.02092789
v -0.00646722 0.17569441 0.04013054
v 0.02750575 0.15661781 0.02105384
v 0.02754527 0.15588170 0.02031778
v -0.02757763 0.15571530 0.02015136
v 0.02754527 0.15588170 0.02031778
v 0.02775061 0.15515950 0.01959561
v -0.02783876 0.15495899 0.01939510
v -0.02827668 0.15424480 0.01868086
v 0.02958095 0.15305290 0.01748894
v -0.02887880 0.15359309 0.01802914
v -0.02962779 0.15302250 0.01745854
v -0.02962779 0.15302250 0.01745854
v -0.02887880 0.15359309 0.01802914
v 0.02958095 0.15305290 0.01748894
v -0.04126334 0.15014111 0.01457714
v -0.03579431 0.15200590 0.01644199
v -0.03471422 0.15185520 0.01629125
v -0.04126334 0.15014111 0.01457714
v -0.03682291 0.15228340 0.01671945
v -0.03579431 0.15200590 0.01644199
v -0.03777056 0.15267961 0.01711570
v -0.03682291 0.15228340 0.01671945
v -0.03860998 0.15318330 0.01761936
v -0.04126334 0.15014111 0.01457714
v -0.03931725 0.15377989 0.01821600
v -0.03860998 0.15318330 0.01761936
v -0.04287374 0.14634161 0.01077770
v -0.03361362 0.15183550 0.01627152
v -0.03252416 0.15194739 0.01638345
v -0.04287374 0.14634161 0.01077770
v -0.03471422 0.15185520 0.01629125
v -0.03361362 0.15183550 0.01627152
v -0.04448205 0.13971379 0.00414991
v -0.04472345 0.13990270 0.00433873
v -0.04472059 0.14000601 0.00444209
v -0.04448205 0.13971379 0.00414991
v -0.04472059 0.14000601 0.00444209
v -0.04448205 0.13971379 0.00414991
v -0.03050220 0.15254951 0.01698558
v -0.02962779 0.15302250 0.01745854
v -0.03147697 0.15218771 0.01662378
v -0.04448205 0.13971379 0.00414991
v -0.03147697 0.15218771 0.01662378
v -0.04469013 0.13981730 0.00425338
v -0.04472345 0.13990270 0.00433873
v -0.04448205 0.13971379 0.00414991
v -0.04460173 0.13974009 0.00417619
v -0.04469013 0.13981730 0.00425338
v -0.04551893 0.13334990 0.00414991
v -0.04562664 0.13337050 0.00417047
v -0.04571765 0.13343111 0.00423115
v -0.04564392 0.13416390 0.00423115
v -0.04568397 0.13416819 0.00427764
v -0.04556161 0.13415490 0.00417607
v -0.04527330 0.13548671 0.00414991
v -0.04561382 0.13477559 0.00427764
v -0.04565155 0.13478020 0.00435244
v -0.04564040 0.13496301 0.00439601
v -0.04557383 0.13477071 0.00423115
v -0.04562866 0.13505560 0.00439601
v -0.04563337 0.13505630 0.00444209
v -0.04549169 0.13476060 0.00417607
v -0.04561734 0.13505420 0.00435244
v -0.04557955 0.13504940 0.00427764
v -0.04553955 0.13504420 0.00423115
v -0.04545748 0.13503370 0.00417607
v -0.04547667 0.13551490 0.00423115
v -0.04538941 0.13671690 0.00444209
v -0.04539471 0.13550350 0.00417607
v -0.04538470 0.13671610 0.00439601
v -0.04537343 0.13671421 0.00435244
v -0.04533582 0.13670801 0.00427764
v -0.04529607 0.13670141 0.00423115
v -0.04521441 0.13668790 0.00417607
v -0.04492747 0.13760960 0.00414991
v -0.04512923 0.13764730 0.00423115
v -0.04508501 0.13836750 0.00444209
v -0.04504787 0.13763210 0.00417607
v -0.04508030 0.13836659 0.00439601
v -0.04506915 0.13836430 0.00435244
v -0.04503178 0.13835670 0.00427764
v -0.04499232 0.13834870 0.00423115
v -0.04491120 0.13833220 0.00417607
v -0.04460173 0.13974009 0.00417619
v -0.04448205 0.13971379 0.00414991
v -0.04475861 0.13977720 0.00435244
v -0.04472345 0.13990270 0.00433873
v -0.04469013 0.13981730 0.00425338
v -0.04472059 0.14000601 0.00444209
v -0.04472154 0.13976841 0.00427764
v -0.04468232 0.13975909 0.00423115
v 0.04492741 0.13760960 0.00414991
v 0.04527330 0.13548671 0.00414991
v 0.04551893 0.13334990 0.00414991
v -0.04551893 0.13334990 0.00414991
v 0.04448205 0.13971379 0.00414991
v -0.04527330 0.13548671 0.00414991
v -0.04492747 0.13760960 0.00414991
v -0.04448205 0.13971379 0.00414991
v 0.02837079 0.15553960 0.02633964
v 0.03196632 0.16312520 0.02756129
v 0.03196632 0.15994319 0.03074329
v 0.02837079 0.15872160 0.02315770
v 0.03635227 0.15816890 0.02260493
v 0.03931719 0.15377989 0.01821600
v 0.03931719 0.15059790 0.02139799
v 0.03635227 0.15498690 0.02578692
v 0.03424900 0.16072650 0.02516256
v 0.03424900 0.15754449 0.02834456
v 0.03196632 0.15994319 0.03074329
v 0.03196632 0.16312520 0.02756129
v 0.03045409 0.14938951 0.02018951
v 0.02958095 0.15305290 0.01748894
v 0.02958095 0.14987090 0.02067094
v 0.03045409 0.15257140 0.01700751
v 0.03143018 0.14901979 0.01981984
v 0.03143018 0.15220180 0.01663785
v 0.03248083 0.14877260 0.01957266
v 0.03248083 0.15195461 0.01639067
v 0.03357553 0.14865510 0.01945519
v 0.03357553 0.15183710 0.01627319
v 0.03468257 0.14867070 0.01947081
v 0.03468257 0.15185270 0.01628880
v 0.03576982 0.14881900 0.01961903
v 0.03576982 0.15200099 0.01643704
v 0.03680568 0.14909559 0.01989560
v 0.03680568 0.15227750 0.01671360
v 0.03776013 0.14949250 0.02029251
v 0.03776013 0.15267441 0.01711051
v 0.03860545 0.14999810 0.02079819
v 0.03860545 0.15318009 0.01761620
v 0.03931719 0.15059790 0.02139799
v 0.03931719 0.15377989 0.01821600
v 0.02775061 0.15197749 0.02277754
v 0.02958095 0.14987090 0.02067094
v 0.02958095 0.15305290 0.01748894
v 0.02775061 0.15515950 0.01959561
v 0.02792388 0.15487421 0.02567427
v 0.02837079 0.15553960 0.02633964
v 0.02792388 0.15805620 0.02249227
v 0.02763307 0.15416691 0.02496694
v 0.02763307 0.15734890 0.02178495
v 0.02750575 0.15343580 0.02423583
v 0.02750575 0.15661781 0.02105384
v 0.02754527 0.15269969 0.02349971
v 0.02754527 0.15588170 0.02031778
v 0.02775061 0.15197749 0.02277754
v 0.02775061 0.15515950 0.01959561
v 0.03860545 0.14999810 0.02079819
v 0.03635227 0.15498690 0.02578692
v 0.03931719 0.15059790 0.02139799
v 0.03776013 0.14949250 0.02029251
v 0.03635227 0.15498690 0.02578692
v 0.03860545 0.14999810 0.02079819
v 0.02837079 0.15553960 0.02633964
v 0.03424900 0.15754449 0.02834456
v 0.03196632 0.15994319 0.03074329
v 0.03680568 0.14909559 0.01989560
v 0.03776013 0.14949250 0.02029251
v 0.02792388 0.15487421 0.02567427
v 0.03576982 0.14881900 0.01961903
v 0.02763307 0.15416691 0.02496694
v 0.03468257 0.14867070 0.01947081
v 0.03635227 0.15498690 0.02578692
v 0.03576982 0.14881900 0.01961903
v 0.02750575 0.15343580 0.02423583
v 0.02763307 0.15416691 0.02496694
v 0.03357553 0.14865510 0.01945519
v 0.03468257 0.14867070 0.01947081
v 0.02754527 0.15269969 0.02349971
v 0.02750575 0.15343580 0.02423583
v 0.03248083 0.14877260 0.01957266
v 0.02775061 0.15197749 0.02277754
v 0.03143018 0.14901979 0.01981984
v 0.03248083 0.14877260 0.01957266
v 0.03045409 0.14938951 0.02018951
v 0.03143018 0.14901979 0.01981984
v 0.02958095 0.14987090 0.02067094
v 0.02958095 0.14987090 0.02067094
v 0.03045409 0.14938951 0.02018951
v -0.03553324 0.15602820 0.02682821
v -0.03196638 0.15994319 0.03074329
v -0.02837085 0.15553960 0.02633964
v -0.02761024 0.15408450 0.02488451
v -0.02750068 0.15330990 0.02410988
v -0.02790307 0.15483490 0.02563493
v -0.03752356 0.15338160 0.02418159
v -0.02962779 0.14984050 0.02064054
v -0.03050220 0.14936760 0.02016757
v -0.02887880 0.15041110 0.02121107
v -0.02827668 0.15106280 0.02186285
v -0.02783876 0.15177700 0.02257709
v -0.03752356 0.15338160 0.02418159
v -0.02757763 0.15253329 0.02333336
v -0.03147697 0.14900570 0.01980571
v -0.03752356 0.15338160 0.02418159
v -0.03050220 0.14936760 0.02016757
v -0.03252416 0.14876540 0.01956539
v -0.03147697 0.14900570 0.01980571
v -0.03361362 0.14865351 0.01945351
v -0.03752356 0.15338160 0.02418159
v -0.03252416 0.14876540 0.01956539
v -0.03471422 0.14867321 0.01947318
v -0.03752356 0.15338160 0.02418159
v -0.03361362 0.14865351 0.01945351
v -0.03579431 0.14882390 0.01962398
v -0.03471422 0.14867321 0.01947318
v -0.03682291 0.14910141 0.01990145
v -0.03579431 0.14882390 0.01962398
v -0.03777056 0.14949770 0.02029769
v -0.03682291 0.14910141 0.01990145
v -0.03860998 0.15000141 0.02080135
v -0.03931725 0.15059790 0.02139799
v -0.03860998 0.15000141 0.02080135
v -0.03931725 0.15059790 0.02139799
v -0.03860998 0.15318330 0.01761936
v -0.03931725 0.15377989 0.01821600
v -0.03860998 0.15000141 0.02080135
v -0.03777056 0.15267961 0.01711570
v -0.03777056 0.14949770 0.02029769
v -0.03682291 0.15228340 0.01671945
v -0.03682291 0.14910141 0.01990145
v -0.03579431 0.15200590 0.01644199
v -0.03579431 0.14882390 0.01962398
v -0.03471422 0.14867321 0.01947318
v -0.03471422 0.15185520 0.01629125
v -0.03361362 0.14865351 0.01945351
v -0.03361362 0.15183550 0.01627152
v -0.03252416 0.14876540 0.01956539
v -0.03252416 0.15194739 0.01638345
v -0.03147697 0.14900570 0.01980571
v -0.03147697 0.15218771 0.01662378
v -0.03050220 0.14936760 0.02016757
v -0.03050220 0.15254951 0.01698558
v -0.02962779 0.14984050 0.02064054
v -0.02962779 0.15302250 0.01745854
v -0.02887880 0.15041110 0.02121107
v -0.02887880 0.15359309 0.01802914
v -0.02827668 0.15106280 0.02186285
v -0.02827668 0.15424480 0.01868086
v -0.02783876 0.15177700 0.02257709
v -0.02783876 0.15495899 0.01939510
v -0.02757763 0.15253329 0.02333336
v -0.02757763 0.15571530 0.02015136
v -0.02750068 0.15330990 0.02410988
v -0.02750068 0.15649180 0.02092789
v -0.02761024 0.15408450 0.02488451
v -0.02761024 0.15726639 0.02170251
v -0.02790307 0.15483490 0.02563493
v -0.02790307 0.15801691 0.02245294
v -0.02837085 0.15553960 0.02633964
v -0.02837085 0.15872160 0.02315770
v -0.03196638 0.15994319 0.03074329
v -0.02837085 0.15872160 0.02315770
v -0.02837085 0.15553960 0.02633964
v -0.03196638 0.16312520 0.02756129
v -0.03553324 0.15921021 0.02364622
v -0.03196638 0.16312520 0.02756129
v -0.03196638 0.15994319 0.03074329
v -0.03553324 0.15602820 0.02682821
v -0.03752356 0.15656359 0.02099966
v -0.03752356 0.15338160 0.02418159
v -0.03931725 0.15377989 0.01821600
v -0.03931725 0.15059790 0.02139799
v 0.02813518 0.16593480 0.03673480
v 0.02549117 0.17108120 0.04188125
v 0.03139519 0.16685040 0.03765045
v 0.02379381 0.16892400 0.03972404
v 0.02549117 0.17108120 0.04188125
v 0.02813518 0.16593480 0.03673480
v 0.03210508 0.16246711 0.03326718
v 0.03717803 0.16114740 0.03194736
v 0.03139519 0.16685040 0.03765045
v 0.01913833 0.17139530 0.04219536
v 0.01980912 0.17405730 0.04485731
v 0.03565114 0.15856680 0.02936690
v 0.04068058 0.15654621 0.02734618
v 0.01423025 0.17331611 0.04411618
v 0.01436501 0.17609310 0.04689305
v 0.03872662 0.15428540 0.02508543
v 0.00913429 0.17466110 0.04546110
v 0.00936323 0.17734760 0.04814754
v 0.04543191 0.14759649 0.01839655
v 0.00391769 0.17541240 0.04621248
v 0.00483656 0.17801410 0.04881416
v 0.00242656 0.17819420 0.04899423
v 0.04202586 0.14808220 0.01888220
v 0.03872662 0.15428540 0.02508543
v 0.04543191 0.14759649 0.01839655
v -0.00135052 0.17556021 0.04636024
v 0.00000000 0.17825460 0.04905467
v -0.00601572 0.17788219 0.04868220
v 0.04447871 0.14090970 0.01170973
v 0.04202586 0.14808220 0.01888220
v 0.04788440 0.13963351 0.01043354
v -0.00660098 0.17510250 0.04590254
v -0.01186108 0.17679100 0.04759102
v 0.04571759 0.13343111 0.00423115
v -0.01176428 0.17404529 0.04484533
v 0.04899591 0.12919991 -0.00000001
v 0.04571759 0.13343111 0.00423115
v 0.04899591 0.12919991 -0.00000001
v 0.04562664 0.13337050 0.00417047
v 0.04571759 0.13343111 0.00423115
v 0.04899591 0.12919991 -0.00000001
v 0.04551893 0.13334990 0.00414991
v 0.04562664 0.13337050 0.00417047
v -0.01740026 0.17504901 0.04584901
v -0.01731622 0.17218480 0.04298489
v -0.02252006 0.17275541 0.04355548
v 0.04840284 0.12157370 -0.00762618
v 0.04551893 0.13334990 0.00414991
v -0.02315038 0.16930740 0.04010741
v -0.02718234 0.17000151 0.04080151
v 0.04662615 0.11413340 -0.01506650
v 0.04551893 0.13334990 0.00414991
v 0.04840284 0.12157370 -0.00762618
v -0.02908200 0.16517900 0.03597902
v -0.03099662 0.16718040 0.03798042
v -0.03507614 0.16344410 0.03424411
v -0.03482037 0.15956430 0.03036426
v -0.03907305 0.15879950 0.02959947
v -0.03993922 0.15226130 0.02306138
v -0.04250645 0.15361200 0.02441196
v -0.04530322 0.14791170 0.01871173
v -0.04385042 0.14316010 0.01396011
v -0.04773628 0.14028490 0.01108496
v -0.04551893 0.13334990 0.00414991
v -0.04888612 0.13279000 0.00359010
v -0.04571765 0.13343111 0.00423115
v -0.04562664 0.13337050 0.00417047
v -0.04888612 0.13279000 0.00359010
v -0.04571765 0.13343111 0.00423115
v -0.04899865 0.12919991 -0.00000001
v -0.04562664 0.13337050 0.00417047
v -0.04551893 0.13334990 0.00414991
v -0.04899865 0.12919991 -0.00000001
v -0.04562664 0.13337050 0.00417047
v -0.04792892 0.11901080 -0.01018918
v -0.00289148 0.08028525 -0.04891467
v 0.00798052 0.08085417 -0.04834574
v 0.00256032 0.08026683 -0.04893309
v -0.04476249 0.10926710 -0.01993287
v 0.04347348 0.10659340 -0.02260650
v -0.00830758 0.08090925 -0.04829066
v 0.01330190 0.08203995 -0.04715996
v -0.03963917 0.10039480 -0.02880513
v 0.03965234 0.10041300 -0.02878695
v 0.03620892 0.09618610 -0.03301382
v -0.01420193 0.08230316 -0.04689675
v 0.01845860 0.08380961 -0.04539030
v -0.02049297 0.08469104 -0.04450887
v 0.02338683 0.08614116 -0.04305875
v -0.03353852 0.09347641 -0.03572350
v 0.03231728 0.09236794 -0.03683197
v -0.02702474 0.08832615 -0.04087376
v 0.02802550 0.08900576 -0.04019415
v 0.04874897 0.12033950 0.05553275
v 0.04951190 0.12719980 0.05499988
v 0.04947090 0.12719990 0.05969995
v 0.04843050 0.11891130 0.05969995
v 0.04715746 0.11400830 0.05594915
v 0.04601150 0.11091570 0.05969995
v 0.04472649 0.10789680 0.05633282
v 0.04435580 0.10713640 0.05637912
v 0.04228264 0.10344050 0.05969995
v 0.04397225 0.10638230 0.05642461
v 0.04357498 0.10563530 0.05646926
v 0.04059803 0.10081900 0.05674803
v 0.03735017 0.09669864 0.05969995
v 0.03713339 0.09641700 0.05698781
v 0.03268408 0.09198117 0.05721271
v 0.03135448 0.09088194 0.05969995
v 0.02766764 0.08811914 0.05739122
v 0.02446621 0.08615601 0.05969995
v 0.02213650 0.08489274 0.05752378
v 0.01688152 0.08265542 0.05969995
v 0.01676666 0.08259475 0.05760328
v 0.01133954 0.08098816 0.05764389
v 0.00881618 0.08047980 0.05969995
v 0.00458729 0.07988482 0.05766534
v 0.00049997 0.07969105 0.05969995
v 0.00049997 0.07968527 0.05903327
v 0.00049990 0.07967942 0.05836665
v 0.00049976 0.07967358 0.05769997
v -0.00323558 0.07977730 0.05766701
v -0.00049980 0.07967358 0.05769997
v -0.00049994 0.07967942 0.05836665
v -0.00050001 0.07968527 0.05903327
v -0.00050001 0.07969105 0.05969995
v -0.00881624 0.08047980 0.05969995
v -0.01091897 0.08089148 0.05764597
v -0.01688152 0.08265542 0.05969995
v -0.01754069 0.08288019 0.05759471
v -0.02446627 0.08615601 0.05969995
v -0.02440530 0.08610171 0.05747627
v -0.03091329 0.09049987 0.05728327
v -0.03135454 0.09088194 0.05969995
v -0.03658759 0.09580892 0.05701977
v -0.03735023 0.09669864 0.05969995
v -0.03874921 0.09834372 0.05688475
v -0.04074692 0.10103300 0.05673604
v -0.04228270 0.10344050 0.05969995
v -0.04357498 0.10563530 0.05646932
v -0.04397225 0.10638230 0.05642461
v -0.04435586 0.10713640 0.05637912
v -0.04601150 0.11091570 0.05969995
v -0.04472655 0.10789680 0.05633282
v -0.04716211 0.11402300 0.05594825
v -0.04843056 0.11891130 0.05969995
v -0.04875004 0.12034480 0.05553245
v -0.04947096 0.12719990 0.05969995
v -0.04951196 0.12719980 0.05499988
v -0.00016662 0.07967138 0.05769997
v 0.00016657 0.07967138 0.05769997
v -0.04743957 0.11407010 0.05414426
v -0.04716211 0.11402300 0.05594825
v -0.04875004 0.12034480 0.05553245
v -0.04886740 0.12057100 0.05454778
v -0.04521280 0.10778740 0.05382090
v -0.04435586 0.10713640 0.05637912
v -0.04472655 0.10789680 0.05633282
v -0.04410290 0.10536790 0.05371135
v -0.04397225 0.10638230 0.05642461
v -0.04357498 0.10563530 0.05646932
v -0.04234433 0.10209070 0.05357658
v -0.04074692 0.10103300 0.05673604
v -0.04034888 0.09895062 0.05346071
v -0.03874921 0.09834372 0.05688475
v -0.03668534 0.09426206 0.05331087
v -0.03658759 0.09580892 0.05701977
v -0.03166085 0.08934319 0.05318766
v -0.03091329 0.09049987 0.05728327
v -0.03426349 0.09171259 0.05324256
v -0.02715766 0.08596080 0.05312138
v -0.02440530 0.08610171 0.05747627
v -0.02128326 0.08262711 0.05306756
v 0.02715778 0.08596074 0.05312126
v 0.02766764 0.08811914 0.05739122
v 0.02213650 0.08489274 0.05752378
v 0.02128344 0.08262789 0.05306828
v 0.03099620 0.08879095 0.05317610
v 0.03268408 0.09198117 0.05721271
v 0.03453934 0.09198647 0.05325096
v 0.04059803 0.10081900 0.05674803
v 0.03713339 0.09641700 0.05698781
v 0.03962194 0.09792596 0.05342787
v 0.04410284 0.10536800 0.05371147
v 0.04397225 0.10638230 0.05642461
v 0.04357498 0.10563530 0.05646926
v 0.04435580 0.10713640 0.05637912
v 0.04521280 0.10778740 0.05382065
v 0.04472649 0.10789680 0.05633282
v 0.04715746 0.11400830 0.05594915
v 0.04744088 0.11407260 0.05414253
v 0.04874897 0.12033950 0.05553275
v 0.04887300 0.12057930 0.05452013
v -0.04948431 0.12660700 0.05503445
v -0.04951196 0.12719980 0.05499988
v -0.04948496 0.12660560 0.05500125
v -0.04951196 0.12719980 0.05499988
v -0.04948580 0.12660430 0.05496972
v -0.04525876 0.10876160 0.05505287
v -0.04537540 0.10867630 0.05444675
v -0.03448557 0.09320443 0.05512303
v -0.03472936 0.09290796 0.05415487
v -0.01851862 0.08314937 0.05644803
v -0.01754069 0.08288019 0.05759471
v -0.01863378 0.08282583 0.05517965
v -0.01882547 0.08231633 0.05405287
v -0.01500689 0.08014971 0.05303936
v 0.00000000 0.07955980 0.05649912
v -0.00050002 0.07919991 0.05519819
v -0.00016670 0.07919991 0.05520403
v 0.00016666 0.07919991 0.05520403
v 0.00049998 0.07919991 0.05519824
v 0.00458729 0.07988482 0.05766534
v -0.00323558 0.07977730 0.05766701
v 0.01851892 0.08314949 0.05644798
v 0.01676666 0.08259475 0.05760328
v 0.01863414 0.08282601 0.05517965
v 0.01882582 0.08231651 0.05405287
v 0.01500493 0.08015608 0.05304694
v 0.03448534 0.09320425 0.05512303
v 0.03472912 0.09290778 0.05415487
v 0.04924559 0.12363790 0.05500888
v 0.04951190 0.12719980 0.05499988
v 0.04951190 0.12719980 0.05499988
v -0.01616883 0.08189541 0.05516976
v -0.01283615 0.08087664 0.05517256
v -0.00844884 0.07856565 0.05302858
v -0.01091897 0.08089148 0.05764597
v -0.00962806 0.08013212 0.05517518
v -0.00575781 0.07952547 0.05517804
v -0.00050002 0.07785689 0.05302500
v -0.00187701 0.07922565 0.05517923
v -0.00050002 0.07839328 0.05369544
v -0.00050002 0.07884365 0.05442500
v 0.00256067 0.07925611 0.05517882
v 0.00049998 0.07884359 0.05442487
v 0.00049998 0.07839316 0.05369526
v 0.00049998 0.07785671 0.05302482
v 0.00844872 0.07856583 0.05302881
v 0.00643635 0.07960921 0.05517780
v 0.01133954 0.08098816 0.05764389
v 0.00984138 0.08017456 0.05517530
v 0.01304548 0.08093488 0.05517733
v 0.01577478 0.08176332 0.05517505
v -0.04903864 0.07819896 0.00414991
v -0.04886740 0.12057100 0.05454778
v -0.04951196 0.12719980 0.05499988
v -0.04892587 0.07719987 0.00620621
v -0.04902899 0.07719987 0.00311315
v -0.04862862 0.07719987 0.00928181
v -0.04772919 0.07719987 0.01424819
v -0.04743957 0.11407010 0.05414426
v -0.04632437 0.07719987 0.01909959
v -0.04521280 0.10778740 0.05382090
v -0.04442453 0.07719987 0.02379012
v -0.04410290 0.10536790 0.05371135
v -0.04205691 0.07719987 0.02825278
v -0.04034888 0.09895062 0.05346071
v -0.04234433 0.10209070 0.05357658
v -0.03924739 0.07719987 0.03244632
v -0.03668534 0.09426206 0.05331087
v -0.03601962 0.07719987 0.03633600
v -0.03426349 0.09171259 0.05324256
v -0.03240531 0.07719987 0.03988039
v -0.03166085 0.08934319 0.05318766
v -0.02845579 0.07719987 0.04303151
v -0.02715766 0.08596080 0.05312138
v -0.02420735 0.07719987 0.04576509
v -0.02128326 0.08262711 0.05306756
v -0.01912540 0.07719987 0.04830795
v -0.01500689 0.08014971 0.05303936
v -0.01311177 0.07719987 0.05045235
v -0.00844884 0.07856565 0.05302858
v -0.00687009 0.07719987 0.05179840
v -0.00050002 0.07785689 0.05302500
v -0.00050002 0.07720232 0.05230408
v -0.00050001 0.07719987 0.05230140
v -0.04900002 0.07719987 -0.00000000
v -0.04899865 0.12919991 -0.00000001
v -0.04792892 0.11901080 -0.01018918
v -0.04826521 0.07719987 -0.00845409
v -0.04608279 0.07719987 -0.01665455
v -0.04476249 0.10926710 -0.01993287
v -0.04251831 0.07719987 -0.02435553
v -0.03963917 0.10039480 -0.02880513
v -0.03767865 0.07719987 -0.03132606
v -0.03353852 0.09347641 -0.03572350
v -0.03170889 0.07719987 -0.03735703
v -0.02702474 0.08832615 -0.04087376
v -0.02478808 0.07719987 -0.04226762
v -0.02049297 0.08469104 -0.04450887
v -0.01712387 0.07719987 -0.04591053
v -0.01420193 0.08230316 -0.04689675
v -0.00894612 0.07719987 -0.04817646
v -0.00830758 0.08090925 -0.04829066
v -0.00289148 0.08028525 -0.04891467
v -0.00016669 0.07919991 -0.04899972
v -0.00050001 0.07919991 -0.04899747
v -0.00050001 0.07719987 -0.04899747
v 0.00256032 0.08026683 -0.04893309
v 0.00049997 0.07719987 -0.04899747
v 0.00049997 0.07919991 -0.04899747
v 0.00016665 0.07919991 -0.04899972
v 0.00894606 0.07719987 -0.04817646
v 0.00798052 0.08085417 -0.04834574
v 0.01330190 0.08203995 -0.04715996
v 0.01712387 0.07719987 -0.04591053
v 0.01845860 0.08380961 -0.04539030
v 0.02478808 0.07719987 -0.04226762
v 0.02338683 0.08614116 -0.04305875
v 0.02802550 0.08900576 -0.04019415
v 0.03170883 0.07719987 -0.03735703
v 0.03231728 0.09236794 -0.03683197
v 0.03767859 0.07719987 -0.03132606
v 0.03620892 0.09618610 -0.03301382
v 0.03965234 0.10041300 -0.02878695
v 0.04251825 0.07719987 -0.02435553
v 0.04347348 0.10659340 -0.02260650
v 0.04608279 0.07719987 -0.01665455
v 0.04662615 0.11413340 -0.01506650
v 0.04826515 0.07719987 -0.00845409
v 0.04840284 0.12157370 -0.00762618
v 0.04899996 0.07719987 -0.00000000
v 0.04899591 0.12919991 -0.00000001
v -0.03332293 0.07719987 0.02796125
v -0.03601962 0.07719987 0.03633600
v -0.03924739 0.07719987 0.03244632
v -0.04205691 0.07719987 0.02825278
v -0.02796125 0.07719987 0.03332293
v -0.02845579 0.07719987 0.04303151
v -0.03240531 0.07719987 0.03988039
v -0.03767210 0.07719987 0.02174997
v -0.04442453 0.07719987 0.02379012
v -0.04632437 0.07719987 0.01909959
v -0.02174997 0.07719987 0.03767210
v -0.02420735 0.07719987 0.04576509
v -0.04087662 0.07719987 0.01487785
v -0.04772919 0.07719987 0.01424819
v -0.01487785 0.07719987 0.04087662
v -0.01311177 0.07719987 0.05045235
v -0.01912540 0.07719987 0.04830795
v -0.00048995 0.07719987 0.05220425
v -0.00050001 0.07719987 0.05230140
v -0.00687009 0.07719987 0.05179840
v -0.00046119 0.07719987 0.05211091
v -0.00041482 0.07719987 0.05202490
v -0.00035262 0.07719987 0.05194962
v -0.00027697 0.07719987 0.05188781
v -0.04283910 0.07719987 0.00755363
v -0.04862862 0.07719987 0.00928181
v -0.04892587 0.07719987 0.00620621
v -0.04902899 0.07719987 0.00311315
v -0.00755370 0.07719987 0.04283909
v 0.00572890 0.07719987 0.05195248
v 0.00049997 0.07719987 0.05230140
v 0.00048991 0.07719987 0.05220425
v 0.00046115 0.07719987 0.05211091
v 0.00041478 0.07719987 0.05202490
v 0.00035258 0.07719987 0.05194962
v 0.00027693 0.07719987 0.05188781
v -0.04350000 0.07719987 -0.00000000
v -0.04900002 0.07719987 -0.00000000
v 0.00000000 0.07719987 0.04349994
v 0.00000000 0.07719987 0.04349994
v 0.00027693 0.07719987 0.05188781
v 0.00019070 0.07719987 0.05184191
v 0.00000000 0.07719987 0.04349994
v 0.00019070 0.07719987 0.05184191
v 0.00009720 0.07719987 0.05181365
v 0.00000000 0.07719987 0.04349994
v 0.00009720 0.07719987 0.05181365
v 0.00000000 0.07719987 0.05180412
v 0.00000000 0.07719987 0.04349994
v 0.00000000 0.07719987 0.05180412
v -0.00009724 0.07719987 0.05181365
v 0.00000000 0.07719987 0.04349994
v -0.00009724 0.07719987 0.05181365
v -0.00019074 0.07719987 0.05184191
v 0.00000000 0.07719987 0.04349994
v -0.00019074 0.07719987 0.05184191
v -0.00027697 0.07719987 0.05188781
v -0.04826521 0.07719987 -0.00845409
v -0.04283910 0.07719987 -0.00755370
v 0.00755364 0.07719987 0.04283909
v 0.01088374 0.07719987 0.05103170
v 0.01625722 0.07719987 0.04943978
v -0.04608279 0.07719987 -0.01665455
v -0.04087662 0.07719987 -0.01487785
v 0.01487785 0.07719987 0.04087662
v 0.02171224 0.07719987 0.04710422
v -0.04251831 0.07719987 -0.02435553
v -0.03767210 0.07719987 -0.02174997
v 0.02174997 0.07719987 0.03767210
v 0.02713149 0.07719987 0.04394984
v 0.03210800 0.07719987 0.04014128
v -0.03767865 0.07719987 -0.03132606
v -0.03332293 0.07719987 -0.02796125
v 0.02796119 0.07719987 0.03332293
v 0.03657114 0.07719987 0.03572654
v 0.03332287 0.07719987 0.02796125
v -0.03170889 0.07719987 -0.03735703
v -0.02796125 0.07719987 -0.03332293
v 0.04043054 0.07719987 0.03079175
v 0.03767204 0.07719987 0.02174997
v -0.02478808 0.07719987 -0.04226762
v -0.02174997 0.07719987 -0.03767210
v 0.04363214 0.07719987 0.02541059
v 0.04618233 0.07719987 0.01950401
v 0.04087656 0.07719987 0.01487785
v -0.01712387 0.07719987 -0.04591053
v -0.01487785 0.07719987 -0.04087662
v 0.04830354 0.07719987 0.01143312
v 0.04283910 0.07719987 0.00755363
v -0.00894612 0.07719987 -0.04817646
v -0.00755370 0.07719987 -0.04283910
v 0.04902893 0.07719987 0.00311315
v 0.04349994 0.07719987 -0.00000000
v -0.00041487 0.07719987 -0.04872089
v -0.00035267 0.07719987 -0.04864555
v 0.00000000 0.07719987 -0.04350000
v -0.00027701 0.07719987 -0.04858374
v 0.00000000 0.07719987 -0.04350000
v -0.00035267 0.07719987 -0.04864555
v -0.00046122 0.07719987 -0.04880690
v -0.00019077 0.07719987 -0.04853785
v -0.00027701 0.07719987 -0.04858374
v -0.00048997 0.07719987 -0.04890030
v -0.00009725 0.07719987 -0.04850959
v 0.00000000 0.07719987 -0.04350000
v -0.00019077 0.07719987 -0.04853785
v -0.00050001 0.07719987 -0.04899747
v 0.00000000 0.07719987 -0.04850001
v 0.00000000 0.07719987 -0.04350000
v -0.00009725 0.07719987 -0.04850959
v 0.00009721 0.07719987 -0.04850959
v 0.00000000 0.07719987 -0.04850001
v 0.00019073 0.07719987 -0.04853785
v 0.00009721 0.07719987 -0.04850959
v 0.00027697 0.07719987 -0.04858374
v 0.00019073 0.07719987 -0.04853785
v 0.00035263 0.07719987 -0.04864555
v 0.00000000 0.07719987 -0.04350000
v 0.00027697 0.07719987 -0.04858374
v 0.04899996 0.07719987 -0.00000000
v 0.00041483 0.07719987 -0.04872089
v 0.00035263 0.07719987 -0.04864555
v 0.00755364 0.07719987 -0.04283910
v 0.04826515 0.07719987 -0.00845409
v 0.04283910 0.07719987 -0.00755370
v 0.00894606 0.07719987 -0.04817646
v 0.00046118 0.07719987 -0.04880690
v 0.00048993 0.07719987 -0.04890030
v 0.00049997 0.07719987 -0.04899747
v 0.01487785 0.07719987 -0.04087662
v 0.04608279 0.07719987 -0.01665455
v 0.04087656 0.07719987 -0.01487785
v 0.01712387 0.07719987 -0.04591053
v 0.02174997 0.07719987 -0.03767210
v 0.04251825 0.07719987 -0.02435553
v 0.03767204 0.07719987 -0.02174997
v 0.02478808 0.07719987 -0.04226762
v 0.02796119 0.07719987 -0.03332293
v 0.03767859 0.07719987 -0.03132606
v 0.03332287 0.07719987 -0.02796125
v 0.03170883 0.07719987 -0.03735703
v 0.00000000 0.07719987 0.04349994
v 0.00000000 0.06979990 0.04349994
v 0.00715983 0.06979990 0.04290670
v 0.00755364 0.07719987 0.04283909
v 0.01412439 0.06979990 0.04114300
v 0.01487785 0.07719987 0.04087662
v 0.02070367 0.06979990 0.03825705
v 0.02174997 0.07719987 0.03767210
v 0.02671819 0.06979990 0.03432756
v 0.02796119 0.07719987 0.03332293
v 0.03200393 0.06979990 0.02946174
v 0.03332287 0.07719987 0.02796125
v 0.03641670 0.06979990 0.02379220
v 0.03767204 0.07719987 0.02174997
v 0.03983610 0.06979990 0.01747369
v 0.04087656 0.07719987 0.01487785
v 0.04216885 0.06979990 0.01067858
v 0.04283910 0.07719987 0.00755363
v 0.04335135 0.06979990 0.00359219
v 0.04349994 0.07719987 -0.00000000
v 0.04335135 0.06979990 -0.00359220
v 0.04283910 0.07719987 -0.00755370
v 0.04216885 0.06979990 -0.01067858
v 0.04087656 0.07719987 -0.01487785
v 0.03983610 0.06979990 -0.01747375
v 0.03767204 0.07719987 -0.02174997
v 0.03641670 0.06979990 -0.02379220
v 0.03332287 0.07719987 -0.02796125
v 0.03200393 0.06979990 -0.02946174
v 0.02796119 0.07719987 -0.03332293
v 0.02671819 0.06979990 -0.03432756
v 0.02174997 0.07719987 -0.03767210
v 0.02070367 0.06979990 -0.03825706
v 0.01487785 0.07719987 -0.04087662
v 0.01412439 0.06979990 -0.04114305
v 0.00755364 0.07719987 -0.04283910
v 0.00715983 0.06979990 -0.04290671
v 0.00000000 0.07719987 -0.04350000
v 0.00000000 0.06979990 -0.04350000
v -0.00755370 0.07719987 -0.04283910
v -0.00755370 0.06979990 -0.04283910
v -0.01487785 0.07719987 -0.04087662
v -0.01487785 0.06979990 -0.04087662
v -0.02174997 0.07719987 -0.03767210
v -0.02174997 0.06979990 -0.03767210
v -0.02796125 0.07719987 -0.03332293
v -0.02796125 0.06979990 -0.03332293
v -0.03332293 0.07719987 -0.02796125
v -0.03332293 0.06979990 -0.02796125
v -0.03767210 0.07719987 -0.02174997
v -0.03767210 0.06979990 -0.02174997
v -0.04087662 0.07719987 -0.01487785
v -0.04087662 0.06979990 -0.01487785
v -0.04283910 0.07719987 -0.00755370
v -0.04283910 0.06979990 -0.00755370
v -0.04350000 0.07719987 -0.00000000
v -0.04350000 0.06979990 -0.00000000
v -0.04283910 0.07719987 0.00755363
v -0.04283910 0.06979990 0.00755363
v -0.04087662 0.07719987 0.01487785
v -0.04087662 0.06979990 0.01487785
v -0.03767210 0.07719987 0.02174997
v -0.03767210 0.06979990 0.02174997
v -0.03332293 0.07719987 0.02796125
v -0.03332293 0.06979990 0.02796125
v -0.02796125 0.07719987 0.03332293
v -0.02796125 0.06979990 0.03332293
v -0.02174997 0.07719987 0.03767210
v -0.02174997 0.06979990 0.03767210
v -0.01487785 0.07719987 0.04087662
v -0.01487785 0.06979990 0.04087662
v -0.00755370 0.07719987 0.04283909
v -0.00755370 0.06979990 0.04283909
v 0.00000000 0.07719987 0.04349994
v 0.00000000 0.06979990 0.04349994
v -0.00755370 0.06979990 -0.04283910
v 0.00000000 0.06979990 -0.04350000
v 0.00000000 0.06949990 -0.04319995
v -0.00750160 0.06949990 -0.04254364
v -0.01487785 0.06979990 -0.04087662
v -0.01477527 0.06949990 -0.04059469
v -0.02174997 0.06979990 -0.03767210
v -0.02160000 0.06949990 -0.03741228
v -0.02796125 0.06979990 -0.03332293
v -0.02776843 0.06949990 -0.03309309
v -0.03332293 0.06979990 -0.02796125
v -0.03309309 0.06949990 -0.02776843
v -0.03767210 0.06979990 -0.02174997
v -0.03741228 0.06949990 -0.02160000
v -0.04087662 0.06979990 -0.01487785
v -0.04059469 0.06949990 -0.01477527
v -0.04283910 0.06979990 -0.00755370
v -0.04254370 0.06949990 -0.00750161
v -0.04350000 0.06979990 -0.00000000
v -0.04320001 0.06949990 -0.00000000
v -0.04283910 0.06979990 0.00755363
v -0.04254370 0.06949990 0.00750154
v -0.04087662 0.06979990 0.01487785
v -0.04059469 0.06949990 0.01477521
v -0.03767210 0.06979990 0.02174997
v -0.03741228 0.06949990 0.02159994
v -0.03332293 0.06979990 0.02796125
v -0.03309309 0.06949990 0.02776837
v -0.02796125 0.06979990 0.03332293
v -0.02776843 0.06949990 0.03309309
v -0.02174997 0.06979990 0.03767210
v -0.02160000 0.06949990 0.03741227
v -0.01487785 0.06979990 0.04087662
v -0.01477527 0.06949990 0.04059469
v -0.00755370 0.06979990 0.04283909
v -0.00750160 0.06949990 0.04254363
v 0.00000000 0.06979990 0.04349994
v 0.00000000 0.06949990 0.04319995
v 0.00715983 0.06979990 0.04290670
v 0.00750154 0.06949990 0.04254363
v 0.01412439 0.06979990 0.04114300
v 0.01477521 0.06949990 0.04059469
v 0.02070367 0.06979990 0.03825705
v 0.02159994 0.06949990 0.03741227
v 0.02671819 0.06979990 0.03432756
v 0.02776837 0.06949990 0.03309309
v 0.03200393 0.06979990 0.02946174
v 0.03309309 0.06949990 0.02776837
v 0.03641670 0.06979990 0.02379220
v 0.03741222 0.06949990 0.02159994
v 0.03983610 0.06979990 0.01747369
v 0.04059469 0.06949990 0.01477521
v 0.04216885 0.06979990 0.01067858
v 0.04254364 0.06949990 0.00750154
v 0.04335135 0.06979990 0.00359219
v 0.04319995 0.06949990 -0.00000000
v 0.04335135 0.06979990 -0.00359220
v 0.04254364 0.06949990 -0.00750161
v 0.04216885 0.06979990 -0.01067858
v 0.04059469 0.06949990 -0.01477527
v 0.03983610 0.06979990 -0.01747375
v 0.03741222 0.06949990 -0.02160000
v 0.03641670 0.06979990 -0.02379220
v 0.03309309 0.06949990 -0.02776843
v 0.03200393 0.06979990 -0.02946174
v 0.02776837 0.06949990 -0.03309309
v 0.02671819 0.06979990 -0.03432756
v 0.02159994 0.06949990 -0.03741228
v 0.02070367 0.06979990 -0.03825706
v 0.01477521 0.06949990 -0.04059469
v 0.01412439 0.06979990 -0.04114305
v 0.00750154 0.06949990 -0.04254364
v 0.00715983 0.06979990 -0.04290671
v 0.00000000 0.06979990 -0.04350000
v 0.04059469 0.06949990 -0.01477527
v 0.03309309 0.06949990 -0.02776843
v 0.03741222 0.06949990 -0.02160000
v 0.01477521 0.06949990 -0.04059469
v 0.02776837 0.06949990 -0.03309309
v 0.02159994 0.06949990 -0.03741228
v 0.04254364 0.06949990 -0.00750161
v -0.00750160 0.06949990 -0.04254364
v 0.00750154 0.06949990 -0.04254364
v 0.00000000 0.06949990 -0.04319995
v 0.04059469 0.06949990 0.01477521
v 0.04319995 0.06949990 -0.00000000
v 0.04254364 0.06949990 0.00750154
v -0.02160000 0.06949990 -0.03741228
v -0.01477527 0.06949990 -0.04059469
v 0.03309309 0.06949990 0.02776837
v 0.04059469 0.06949990 0.01477521
v 0.03741222 0.06949990 0.02159994
v 0.04319995 0.06949990 -0.00000000
v -0.02776843 0.06949990 -0.03309309
v 0.02159994 0.06949990 0.03741227
v 0.02776837 0.06949990 0.03309309
v 0.01477521 0.06949990 0.04059469
v -0.04059469 0.06949990 -0.01477527
v -0.03309309 0.06949990 -0.02776843
v -0.03741228 0.06949990 -0.02160000
v -0.04320001 0.06949990 -0.00000000
v -0.04254370 0.06949990 -0.00750161
v -0.00750160 0.06949990 0.04254363
v 0.00750154 0.06949990 0.04254363
v 0.00000000 0.06949990 0.04319995
v -0.01477527 0.06949990 0.04059469
v -0.04059469 0.06949990 0.01477521
v -0.04254370 0.06949990 0.00750154
v -0.03741228 0.06949990 0.02159994
v -0.04320001 0.06949990 -0.00000000
v -0.04059469 0.06949990 0.01477521
v -0.02776843 0.06949990 0.03309309
v -0.02160000 0.06949990 0.03741227
v -0.03309309 0.06949990 0.02776837
v -0.04900002 0.07719987 -0.00000000
v -0.04902899 0.07719987 0.00311315
v -0.04903864 0.07819896 0.00414991
v -0.04899865 0.12919991 -0.00000001
v -0.04903864 0.07819896 0.00414991
v -0.04951196 0.12719980 0.05499988
v -0.04899865 0.12919991 -0.00000001
v -0.04900002 0.07719987 -0.00000000
v -0.04903864 0.07819896 0.00414991
v -0.04843986 0.13932940 0.05969994
v -0.04941028 0.13119981 0.05499987
v -0.04944860 0.13119981 0.05969994
v -0.04920578 0.13015440 0.02624480
v -0.04610413 0.14717710 0.05969994
v -0.04888612 0.13279000 0.00359010
v -0.04899865 0.12919991 -0.00000001
v -0.04902940 0.12935109 0.00414991
v -0.04773628 0.14028490 0.01108496
v -0.04530322 0.14791170 0.01871173
v -0.04335463 0.15304980 0.05969994
v -0.04250645 0.15361200 0.02441196
v -0.04005521 0.15824580 0.05969994
v -0.03907305 0.15879950 0.02959947
v -0.03613418 0.16299351 0.05969994
v -0.03507614 0.16344410 0.03424411
v -0.03164023 0.16722740 0.05969994
v -0.03099662 0.16718040 0.03798042
v -0.02666455 0.17086150 0.05969994
v -0.02718234 0.17000151 0.04080151
v -0.02127629 0.17384930 0.05969994
v -0.00049405 0.17857440 0.05769996
v -0.00989974 0.17765200 0.05969994
v -0.00522745 0.17837460 0.05969994
v -0.00050001 0.17864890 0.05969994
v -0.02252006 0.17275541 0.04355548
v -0.01565068 0.17611399 0.05969994
v -0.01740026 0.17504901 0.04584901
v -0.01186108 0.17679100 0.04759102
v -0.00601572 0.17788219 0.04868220
v 0.00000000 0.17825460 0.04905467
v -0.00032938 0.17857580 0.05769996
v -0.00016470 0.17857660 0.05769996
v 0.00000000 0.17857690 0.05769996
v -0.04920578 0.13015440 0.02624480
v -0.04951196 0.12719980 0.05499988
v -0.04941028 0.13119981 0.05499987
v -0.04899865 0.12919991 -0.00000001
v -0.04902940 0.12935109 0.00414991
v 0.00048994 0.07978826 0.05969995
v 0.00049997 0.07969105 0.05969995
v 0.00881618 0.08047980 0.05969995
v 0.00046119 0.07988166 0.05969995
v 0.00041483 0.07996761 0.05969995
v 0.00035264 0.08004301 0.05969995
v 0.00027698 0.08010482 0.05969995
v 0.00019074 0.08015072 0.05969995
v 0.00009721 0.08017897 0.05969995
v 0.00019074 0.08015072 0.05969995
v 0.00881618 0.08047980 0.05969995
v 0.00000000 0.08018857 0.05969995
v 0.00009721 0.08017897 0.05969995
v 0.04601150 0.11091570 0.05969995
v 0.04843050 0.11891130 0.05969995
v 0.04228264 0.10344050 0.05969995
v 0.03735017 0.09669864 0.05969995
v 0.03135448 0.09088194 0.05969995
v 0.02446621 0.08615601 0.05969995
v 0.01688152 0.08265542 0.05969995
v 0.04947084 0.13033310 0.05969994
v 0.04947090 0.12719990 0.05969995
v 0.04885268 0.13710490 0.05969994
v 0.04944860 0.13119990 0.05969994
v -0.00881624 0.08047980 0.05969995
v -0.00050001 0.07969105 0.05969995
v -0.00048998 0.07978826 0.05969995
v -0.00881624 0.08047980 0.05969995
v -0.00048998 0.07978826 0.05969995
v -0.00046123 0.07988166 0.05969995
v -0.00881624 0.08047980 0.05969995
v -0.00046123 0.07988166 0.05969995
v -0.00041488 0.07996761 0.05969995
v -0.00041488 0.07996761 0.05969995
v -0.00035268 0.08004301 0.05969995
v -0.00027702 0.08010482 0.05969995
v -0.00881624 0.08047980 0.05969995
v -0.00027702 0.08010482 0.05969995
v -0.00019078 0.08015072 0.05969995
v -0.00881624 0.08047980 0.05969995
v -0.00019078 0.08015072 0.05969995
v -0.00009726 0.08017897 0.05969995
v -0.00009726 0.08017897 0.05969995
v 0.00000000 0.08018857 0.05969995
v -0.01688152 0.08265542 0.05969995
v -0.00881624 0.08047980 0.05969995
v -0.02446627 0.08615601 0.05969995
v -0.01688152 0.08265542 0.05969995
v -0.03135454 0.09088194 0.05969995
v -0.03735023 0.09669864 0.05969995
v -0.04228270 0.10344050 0.05969995
v -0.04601150 0.11091570 0.05969995
v -0.04843056 0.11891130 0.05969995
v 0.00041483 0.17837229 0.05969994
v 0.00035264 0.17829700 0.05969994
v 0.00871390 0.17787880 0.05969994
v 0.00027697 0.17823520 0.05969994
v 0.00871390 0.17787880 0.05969994
v 0.00035264 0.17829700 0.05969994
v 0.00046119 0.17845830 0.05969994
v 0.00019074 0.17818920 0.05969994
v 0.00871390 0.17787880 0.05969994
v 0.00027697 0.17823520 0.05969994
v 0.00048993 0.17855170 0.05969994
v 0.00046119 0.17845830 0.05969994
v 0.00871390 0.17787880 0.05969994
v 0.00009721 0.17816100 0.05969994
v 0.00019074 0.17818920 0.05969994
v 0.00049997 0.17864890 0.05969994
v 0.00048993 0.17855170 0.05969994
v 0.00000000 0.17815140 0.05969994
v 0.01666557 0.17576361 0.05969994
v 0.02415215 0.17236440 0.05969994
v 0.03096503 0.16777830 0.05969994
v 0.03521430 0.16394970 0.05969994
v 0.03925788 0.15931410 0.05969994
v 0.04269343 0.15421300 0.05969994
v 0.04547661 0.14870811 0.05969994
v 0.04754942 0.14290950 0.05969994
v 0.04885268 0.13710490 0.05969994
v -0.04947084 0.13033310 0.05969994
v -0.04947096 0.12719990 0.05969995
v -0.00522745 0.17837460 0.05969994
v -0.00009726 0.17816100 0.05969994
v -0.00019078 0.17818920 0.05969994
v -0.00522745 0.17837460 0.05969994
v -0.00019078 0.17818920 0.05969994
v -0.00027702 0.17823520 0.05969994
v -0.00522745 0.17837460 0.05969994
v -0.00027702 0.17823520 0.05969994
v -0.00035268 0.17829700 0.05969994
v -0.00522745 0.17837460 0.05969994
v -0.00035268 0.17829700 0.05969994
v -0.00041487 0.17837229 0.05969994
v -0.00522745 0.17837460 0.05969994
v -0.00041487 0.17837229 0.05969994
v -0.00046123 0.17845830 0.05969994
v -0.00522745 0.17837460 0.05969994
v -0.00046123 0.17845830 0.05969994
v -0.00048998 0.17855170 0.05969994
v -0.00522745 0.17837460 0.05969994
v -0.00048998 0.17855170 0.05969994
v -0.00050001 0.17864890 0.05969994
v -0.00989974 0.17765200 0.05969994
v -0.00009726 0.17816100 0.05969994
v -0.00989974 0.17765200 0.05969994
v 0.00000000 0.17815140 0.05969994
v -0.00009726 0.17816100 0.05969994
v -0.04843986 0.13932940 0.05969994
v -0.04944860 0.13119981 0.05969994
v -0.01565068 0.17611399 0.05969994
v 0.00000000 0.17815140 0.05969994
v -0.00989974 0.17765200 0.05969994
v -0.04610413 0.14717710 0.05969994
v -0.02127629 0.17384930 0.05969994
v -0.04335463 0.15304980 0.05969994
v -0.02666455 0.17086150 0.05969994
v -0.04005521 0.15824580 0.05969994
v -0.03164023 0.16722740 0.05969994
v -0.03613418 0.16299351 0.05969994
v 0.04563337 0.13505630 0.00444209
v 0.04568022 0.13424300 0.00428420
v 0.04565036 0.13480160 0.00435650
v 0.04571759 0.13343111 0.00423115
v 0.04447871 0.14090970 0.01170973
v 0.04447191 0.14164390 0.01102971
v 0.04236531 0.14799260 0.01737843
v 0.04202586 0.14808220 0.01888220
v 0.03918534 0.15425420 0.02364002
v 0.03872662 0.15428540 0.02508543
v 0.03619301 0.15859130 0.02797709
v 0.03565114 0.15856680 0.02936690
v 0.03272330 0.16255650 0.03194229
v 0.03210508 0.16246711 0.03326718
v 0.02882206 0.16609770 0.03548346
v 0.02813518 0.16593480 0.03673480
v 0.02454060 0.16916800 0.03855382
v 0.02379381 0.16892400 0.03972404
v 0.01993554 0.17172700 0.04111283
v 0.01913833 0.17139530 0.04219536
v 0.01506751 0.17374100 0.04312681
v 0.01423025 0.17331611 0.04411618
v 0.01000070 0.17518340 0.04456918
v 0.00913429 0.17466110 0.04546110
v 0.00480205 0.17603511 0.04542087
v 0.00391769 0.17541240 0.04621248
v -0.00045993 0.17628489 0.04567073
v -0.00135052 0.17556021 0.04636024
v -0.00571585 0.17592961 0.04531537
v -0.00660098 0.17510250 0.04590254
v -0.01089638 0.17497370 0.04435955
v -0.01176428 0.17404529 0.04484533
v -0.01648110 0.17322300 0.04260884
v -0.01731622 0.17218480 0.04298489
v -0.02236783 0.17046189 0.03984772
v -0.02315038 0.16930740 0.04010741
v -0.02837675 0.16645290 0.03583871
v -0.02908200 0.16517900 0.03597902
v -0.03422230 0.16095529 0.03034107
v -0.03482037 0.15956430 0.03036426
v -0.03948259 0.15375870 0.02314447
v -0.03993922 0.15226130 0.02306138
v -0.04357254 0.14474140 0.01412718
v -0.04385042 0.14316010 0.01396011
v -0.04563337 0.13505630 0.00444209
v -0.04565155 0.13478020 0.00435244
v -0.04564040 0.13496301 0.00439601
v -0.04568397 0.13416819 0.00427764
v -0.04571765 0.13343111 0.00423115
v 0.00572890 0.07719987 0.05195248
v 0.00049998 0.07720232 0.05230408
v 0.00049997 0.07719987 0.05230140
v 0.00049998 0.07785671 0.05302482
v 0.00844872 0.07856583 0.05302881
v 0.01088374 0.07719987 0.05103170
v 0.01500493 0.08015608 0.05304694
v 0.01625722 0.07719987 0.04943978
v 0.02128344 0.08262789 0.05306828
v 0.02171224 0.07719987 0.04710422
v 0.02715778 0.08596074 0.05312126
v 0.02713149 0.07719987 0.04394984
v 0.03099620 0.08879095 0.05317610
v 0.03210800 0.07719987 0.04014128
v 0.03453934 0.09198647 0.05325096
v 0.03657114 0.07719987 0.03572654
v 0.03962194 0.09792596 0.05342787
v 0.04043054 0.07719987 0.03079175
v 0.04410284 0.10536800 0.05371147
v 0.04363214 0.07719987 0.02541059
v 0.04521280 0.10778740 0.05382065
v 0.04618233 0.07719987 0.01950401
v 0.04744088 0.11407260 0.05414253
v 0.04830354 0.07719987 0.01143312
v 0.04887300 0.12057930 0.05452013
v 0.04902893 0.07719987 0.00311315
v 0.04951190 0.12719980 0.05499988
v 0.04447191 0.14164390 0.01102971
v 0.04563337 0.13505630 0.00444209
v 0.04538935 0.13671690 0.00444209
v 0.04508495 0.13836750 0.00444209
v 0.04472053 0.14000601 0.00444209
v 0.04367327 0.14399770 0.00843375
v 0.04227072 0.14787871 0.01231478
v 0.04236531 0.14799260 0.01737843
v 0.03931719 0.15377989 0.01821600
v 0.03918534 0.15425420 0.02364002
v 0.03635227 0.15816890 0.02260493
v 0.03619301 0.15859130 0.02797709
v 0.03424900 0.16072650 0.02516256
v 0.03196632 0.16312520 0.02756129
v 0.03272330 0.16255650 0.03194229
v 0.02881795 0.16593070 0.03036676
v 0.02882206 0.16609770 0.03548346
v 0.02542471 0.16843431 0.03287034
v 0.02454060 0.16916800 0.03855382
v 0.02132129 0.17087901 0.03531502
v 0.01993554 0.17172700 0.04111283
v 0.01698541 0.17288230 0.03731839
v 0.01506751 0.17374100 0.04312681
v 0.01246428 0.17442250 0.03885858
v 0.01000070 0.17518340 0.04456918
v 0.00780725 0.17548260 0.03991871
v 0.00480205 0.17603511 0.04542087
v 0.00306517 0.17605130 0.04048733
v -0.00045993 0.17628489 0.04567073
v -0.00171029 0.17612210 0.04055820
v -0.00571585 0.17592961 0.04531537
v -0.00646722 0.17569441 0.04013054
v -0.01089638 0.17497370 0.04435955
v -0.01166772 0.17464040 0.03907649
v -0.01648110 0.17322300 0.04260884
v -0.01725894 0.17277190 0.03720795
v -0.02236783 0.17046189 0.03984772
v -0.02256345 0.17019950 0.03463559
v -0.02837675 0.16645290 0.03583871
v -0.02749323 0.16696601 0.03140216
v -0.03422230 0.16095529 0.03034107
v -0.03196638 0.16312520 0.02756129
v -0.03553324 0.15921021 0.02364622
v -0.03948259 0.15375870 0.02314447
v -0.03752356 0.15656359 0.02099966
v -0.03931725 0.15377989 0.01821600
v -0.04126334 0.15014111 0.01457714
v -0.04357254 0.14474140 0.01412718
v -0.04287374 0.14634161 0.01077770
v -0.04472059 0.14000601 0.00444209
v -0.04508501 0.13836750 0.00444209
v -0.04538941 0.13671690 0.00444209
v -0.04563337 0.13505630 0.00444209
v 0.00016657 0.07967138 0.05769997
v 0.00049372 0.07976746 0.05769997
v 0.00047022 0.07985848 0.05769997
v 0.00016657 0.07967138 0.05769997
v 0.00049976 0.07967358 0.05769997
v 0.00049372 0.07976746 0.05769997
v 0.00043009 0.07994347 0.05769997
v 0.00037476 0.08001953 0.05769997
v 0.00030618 0.08008384 0.05769997
v 0.00022677 0.08013415 0.05769997
v 0.00013934 0.08016872 0.05769997
v 0.00016657 0.07967138 0.05769997
v 0.00022677 0.08013415 0.05769997
v 0.00004699 0.08018630 0.05769997
v -0.00004703 0.08018630 0.05769997
v -0.00016662 0.07967138 0.05769997
v -0.00004703 0.08018630 0.05769997
v 0.00016657 0.07967138 0.05769997
v 0.00004699 0.08018630 0.05769997
v -0.00049376 0.07976746 0.05769997
v -0.00049980 0.07967358 0.05769997
v -0.00013938 0.08016872 0.05769997
v -0.00047026 0.07985848 0.05769997
v -0.00022681 0.08013415 0.05769997
v -0.00043014 0.07994347 0.05769997
v -0.00030622 0.08008384 0.05769997
v -0.00016662 0.07967138 0.05769997
v -0.00037480 0.08001953 0.05769997
v -0.00037480 0.08001953 0.05769997
v -0.00016662 0.07967138 0.05769997
v -0.00030622 0.08008384 0.05769997
v -0.00048998 0.07978826 0.05969995
v -0.00050001 0.07969105 0.05969995
v -0.00050001 0.07968527 0.05903327
v -0.00049376 0.07976746 0.05769997
v -0.00049994 0.07967942 0.05836665
v -0.00049980 0.07967358 0.05769997
v -0.00047026 0.07985848 0.05769997
v -0.00046123 0.07988166 0.05969995
v -0.00043014 0.07994347 0.05769997
v -0.00041488 0.07996761 0.05969995
v -0.00037480 0.08001953 0.05769997
v -0.00035268 0.08004301 0.05969995
v -0.00030622 0.08008384 0.05769997
v -0.00027702 0.08010482 0.05969995
v -0.00022681 0.08013415 0.05769997
v -0.00019078 0.08015072 0.05969995
v -0.00013938 0.08016872 0.05769997
v -0.00009726 0.08017897 0.05969995
v -0.00004703 0.08018630 0.05769997
v 0.00000000 0.08018857 0.05969995
v 0.00004699 0.08018630 0.05769997
v 0.00009721 0.08017897 0.05969995
v 0.00013934 0.08016872 0.05769997
v 0.00019074 0.08015072 0.05969995
v 0.00022677 0.08013415 0.05769997
v 0.00027698 0.08010482 0.05969995
v 0.00030618 0.08008384 0.05769997
v 0.00035264 0.08004301 0.05969995
v 0.00037476 0.08001953 0.05769997
v 0.00041483 0.07996761 0.05969995
v 0.00043009 0.07994347 0.05769997
v 0.00046119 0.07988166 0.05969995
v 0.00047022 0.07985848 0.05769997
v 0.00048994 0.07978826 0.05969995
v 0.00049997 0.07968527 0.05903327
v 0.00049997 0.07969105 0.05969995
v 0.00049372 0.07976746 0.05769997
v 0.00049990 0.07967942 0.05836665
v 0.00049976 0.07967358 0.05769997
v 0.00032934 0.17857580 0.05769996
v 0.00047078 0.17848310 0.05769996
v 0.00049401 0.17857440 0.05769996
v 0.00032934 0.17857580 0.05769996
v 0.00043080 0.17839770 0.05769996
v 0.00047078 0.17848310 0.05769996
v 0.00037552 0.17832130 0.05769996
v 0.00016466 0.17857660 0.05769996
v 0.00030688 0.17825671 0.05769996
v 0.00037552 0.17832130 0.05769996
v 0.00016466 0.17857660 0.05769996
v 0.00022734 0.17820610 0.05769996
v 0.00030688 0.17825671 0.05769996
v 0.00013971 0.17817131 0.05769996
v 0.00000000 0.17857690 0.05769996
v 0.00004711 0.17815360 0.05769996
v 0.00013971 0.17817131 0.05769996
v 0.00000000 0.17857690 0.05769996
v -0.00004716 0.17815360 0.05769996
v 0.00004711 0.17815360 0.05769996
v 0.00000000 0.17857690 0.05769996
v -0.00013975 0.17817131 0.05769996
v -0.00004716 0.17815360 0.05769996
v 0.00016466 0.17857660 0.05769996
v -0.00016470 0.17857660 0.05769996
v -0.00022738 0.17820610 0.05769996
v -0.00013975 0.17817131 0.05769996
v -0.00030692 0.17825671 0.05769996
v -0.00016470 0.17857660 0.05769996
v -0.00037556 0.17832130 0.05769996
v -0.00030692 0.17825671 0.05769996
v -0.00032938 0.17857580 0.05769996
v -0.00043085 0.17839770 0.05769996
v -0.00037556 0.17832130 0.05769996
v -0.00047082 0.17848310 0.05769996
v -0.00049405 0.17857440 0.05769996
v 0.00049401 0.17857440 0.05769996
v 0.00048993 0.17855170 0.05969994
v 0.00049997 0.17864890 0.05969994
v 0.00047078 0.17848310 0.05769996
v 0.00046119 0.17845830 0.05969994
v 0.00043080 0.17839770 0.05769996
v 0.00041483 0.17837229 0.05969994
v 0.00037552 0.17832130 0.05769996
v 0.00035264 0.17829700 0.05969994
v 0.00030688 0.17825671 0.05769996
v 0.00027697 0.17823520 0.05969994
v 0.00022734 0.17820610 0.05769996
v 0.00019074 0.17818920 0.05969994
v 0.00013971 0.17817131 0.05769996
v 0.00009721 0.17816100 0.05969994
v 0.00004711 0.17815360 0.05769996
v 0.00000000 0.17815140 0.05969994
v -0.00004716 0.17815360 0.05769996
v -0.00009726 0.17816100 0.05969994
v -0.00013975 0.17817131 0.05769996
v -0.00019078 0.17818920 0.05969994
v -0.00022738 0.17820610 0.05769996
v -0.00027702 0.17823520 0.05969994
v -0.00030692 0.17825671 0.05769996
v -0.00035268 0.17829700 0.05969994
v -0.00037556 0.17832130 0.05769996
v -0.00041487 0.17837229 0.05969994
v -0.00043085 0.17839770 0.05769996
v -0.00046123 0.17845830 0.05969994
v -0.00047082 0.17848310 0.05769996
v -0.00048998 0.17855170 0.05969994
v -0.00049405 0.17857440 0.05769996
v -0.00050001 0.17864890 0.05969994
v 0.04885268 0.13710490 0.05969994
v 0.04944860 0.13119990 0.05969994
v 0.04941022 0.13119981 0.05499987
v 0.04920607 0.13015451 0.02625625
v 0.04754942 0.14290950 0.05969994
v 0.04788440 0.13963351 0.01043354
v 0.04899591 0.12919991 -0.00000001
v 0.04543191 0.14759649 0.01839655
v 0.04269343 0.15421300 0.05969994
v 0.04547661 0.14870811 0.05969994
v 0.04068058 0.15654621 0.02734618
v 0.03925788 0.15931410 0.05969994
v 0.03717803 0.16114740 0.03194736
v 0.03096503 0.16777830 0.05969994
v 0.03521430 0.16394970 0.05969994
v 0.03139519 0.16685040 0.03765045
v 0.02415215 0.17236440 0.05969994
v 0.02549117 0.17108120 0.04188125
v 0.01666557 0.17576361 0.05969994
v 0.00049401 0.17857440 0.05769996
v 0.00049997 0.17864890 0.05969994
v 0.00871390 0.17787880 0.05969994
v 0.01980912 0.17405730 0.04485731
v 0.01436501 0.17609310 0.04689305
v 0.00936323 0.17734760 0.04814754
v 0.00483656 0.17801410 0.04881416
v 0.00242656 0.17819420 0.04899423
v 0.00000000 0.17825460 0.04905467
v 0.00000000 0.17857690 0.05769996
v 0.00016466 0.17857660 0.05769996
v 0.00032934 0.17857580 0.05769996
v 0.00049998 0.07919991 0.05230408
v 0.00049997 0.07719987 0.05230140
v 0.00049998 0.07720232 0.05230408
v 0.00049037 0.07919991 0.05220656
v 0.00048991 0.07719987 0.05220425
v 0.00046192 0.07919991 0.05211275
v 0.00046115 0.07719987 0.05211091
v 0.00041571 0.07919991 0.05202633
v 0.00041478 0.07719987 0.05202490
v 0.00035353 0.07919991 0.05195057
v 0.00035258 0.07719987 0.05194962
v 0.00027776 0.07919991 0.05188834
v 0.00027693 0.07719987 0.05188781
v 0.00019132 0.07919991 0.05184215
v 0.00019070 0.07719987 0.05184191
v 0.00009752 0.07919991 0.05181372
v 0.00009720 0.07719987 0.05181365
v 0.00000000 0.07919991 0.05180412
v 0.00000000 0.07719987 0.05180412
v -0.00009724 0.07719987 0.05181365
v -0.00009757 0.07919991 0.05181372
v -0.00019074 0.07719987 0.05184191
v -0.00019136 0.07919991 0.05184215
v -0.00027697 0.07719987 0.05188781
v -0.00027781 0.07919991 0.05188834
v -0.00035262 0.07719987 0.05194962
v -0.00035357 0.07919991 0.05195057
v -0.00041482 0.07719987 0.05202490
v -0.00041576 0.07919991 0.05202633
v -0.00046119 0.07719987 0.05211091
v -0.00046196 0.07919991 0.05211275
v -0.00048995 0.07719987 0.05220425
v -0.00049041 0.07919991 0.05220656
v -0.00050001 0.07719987 0.05230140
v -0.00050002 0.07919991 0.05230408
v -0.00050002 0.07720232 0.05230408
v -0.00050002 0.07919991 0.05230408
v -0.00050002 0.07785689 0.05302500
v -0.00050002 0.07720232 0.05230408
v -0.00050002 0.07839328 0.05369544
v -0.00050002 0.07884365 0.05442500
v -0.00050002 0.07919991 0.05519819
v 0.00049998 0.07919991 0.05230408
v 0.00049998 0.07720232 0.05230408
v 0.00049998 0.07785671 0.05302482
v 0.00049998 0.07839316 0.05369526
v 0.00049998 0.07884359 0.05442487
v 0.00049998 0.07919991 0.05519824
v -0.00027781 0.07919991 0.05188834
v -0.00019136 0.07919991 0.05184215
v -0.00009757 0.07919991 0.05181372
v -0.00041576 0.07919991 0.05202633
v 0.00009752 0.07919991 0.05181372
v 0.00019132 0.07919991 0.05184215
v -0.00041576 0.07919991 0.05202633
v 0.00000000 0.07919991 0.05180412
v 0.00009752 0.07919991 0.05181372
v -0.00041576 0.07919991 0.05202633
v -0.00009757 0.07919991 0.05181372
v 0.00000000 0.07919991 0.05180412
v -0.00041576 0.07919991 0.05202633
v -0.00035357 0.07919991 0.05195057
v -0.00049041 0.07919991 0.05220656
v 0.00027776 0.07919991 0.05188834
v 0.00035353 0.07919991 0.05195057
v 0.00019132 0.07919991 0.05184215
v -0.00049041 0.07919991 0.05220656
v -0.00046196 0.07919991 0.05211275
v -0.00041576 0.07919991 0.05202633
v -0.00049041 0.07919991 0.05220656
v -0.00041576 0.07919991 0.05202633
v 0.00019132 0.07919991 0.05184215
v -0.00050002 0.07919991 0.05230408
v 0.00049037 0.07919991 0.05220656
v 0.00049998 0.07919991 0.05230408
v 0.00046192 0.07919991 0.05211275
v 0.00041571 0.07919991 0.05202633
v 0.00046192 0.07919991 0.05211275
v -0.00050002 0.07919991 0.05230408
v 0.00035353 0.07919991 0.05195057
v 0.00041571 0.07919991 0.05202633
v 0.00016666 0.07919991 0.05520403
v 0.00049998 0.07919991 0.05519824
v -0.00016670 0.07919991 0.05520403
v -0.00050002 0.07919991 0.05519819
v 0.00016665 0.07919991 -0.04899972
v 0.00048993 0.07919991 -0.04890030
v 0.00046118 0.07919991 -0.04880690
v 0.00016665 0.07919991 -0.04899972
v 0.00049997 0.07919991 -0.04899747
v 0.00048993 0.07919991 -0.04890030
v 0.00041483 0.07919991 -0.04872089
v 0.00016665 0.07919991 -0.04899972
v 0.00046118 0.07919991 -0.04880690
v 0.00035263 0.07919991 -0.04864555
v 0.00041483 0.07919991 -0.04872089
v 0.00027697 0.07919991 -0.04858374
v 0.00016665 0.07919991 -0.04899972
v 0.00035263 0.07919991 -0.04864555
v 0.00019073 0.07919991 -0.04853785
v 0.00016665 0.07919991 -0.04899972
v 0.00027697 0.07919991 -0.04858374
v 0.00009721 0.07919991 -0.04850959
v 0.00019073 0.07919991 -0.04853785
v 0.00000000 0.07919991 -0.04850001
v -0.00016669 0.07919991 -0.04899972
v -0.00009725 0.07919991 -0.04850959
v -0.00048997 0.07919991 -0.04890030
v -0.00050001 0.07919991 -0.04899747
v -0.00019077 0.07919991 -0.04853785
v -0.00046122 0.07919991 -0.04880690
v -0.00027701 0.07919991 -0.04858374
v -0.00016669 0.07919991 -0.04899972
v -0.00019077 0.07919991 -0.04853785
v -0.00041487 0.07919991 -0.04872089
v -0.00046122 0.07919991 -0.04880690
v -0.00016669 0.07919991 -0.04899972
v -0.00035267 0.07919991 -0.04864555
v -0.00041487 0.07919991 -0.04872089
v -0.00035267 0.07919991 -0.04864555
v -0.00016669 0.07919991 -0.04899972
v -0.00027701 0.07919991 -0.04858374
v -0.00050001 0.07919991 -0.04899747
v -0.00048997 0.07719987 -0.04890030
v -0.00050001 0.07719987 -0.04899747
v -0.00048997 0.07919991 -0.04890030
v -0.00046122 0.07719987 -0.04880690
v -0.00046122 0.07919991 -0.04880690
v -0.00041487 0.07719987 -0.04872089
v -0.00041487 0.07919991 -0.04872089
v -0.00035267 0.07719987 -0.04864555
v -0.00035267 0.07919991 -0.04864555
v -0.00027701 0.07719987 -0.04858374
v -0.00027701 0.07919991 -0.04858374
v -0.00019077 0.07719987 -0.04853785
v -0.00019077 0.07919991 -0.04853785
v -0.00009725 0.07719987 -0.04850959
v -0.00009725 0.07919991 -0.04850959
v 0.00000000 0.07719987 -0.04850001
v 0.00000000 0.07919991 -0.04850001
v 0.00009721 0.07719987 -0.04850959
v 0.00009721 0.07919991 -0.04850959
v 0.00019073 0.07719987 -0.04853785
v 0.00019073 0.07919991 -0.04853785
v 0.00027697 0.07719987 -0.04858374
v 0.00027697 0.07919991 -0.04858374
v 0.00035263 0.07719987 -0.04864555
v 0.00035263 0.07919991 -0.04864555
v 0.00041483 0.07719987 -0.04872089
v 0.00041483 0.07919991 -0.04872089
v 0.00046118 0.07719987 -0.04880690
v 0.00046118 0.07919991 -0.04880690
v 0.00048993 0.07719987 -0.04890030
v 0.00048993 0.07919991 -0.04890030
v 0.00049997 0.07919991 -0.04899747
v 0.00049997 0.07719987 -0.04899747
v -0.04941028 0.13119981 0.05499987
v -0.04951196 0.12719980 0.05499988
v -0.04947084 0.13033310 0.05969994
v -0.04941028 0.13119981 0.05499987
v -0.04947084 0.13033310 0.05969994
v -0.04944860 0.13119981 0.05969994
v 0.04902893 0.07719987 0.00311315
v 0.04899591 0.12919991 -0.00000001
v 0.04951190 0.12719980 0.05499988
v 0.04899996 0.07719987 -0.00000000
v 0.04899591 0.12919991 -0.00000001
v 0.04902893 0.07719987 0.00311315
v 0.04951190 0.12719980 0.05499988
v 0.04920607 0.13015451 0.02625625
v 0.04941022 0.13119981 0.05499987
v 0.04899591 0.12919991 -0.00000001
v -0.04951196 0.12719980 0.05499988
v -0.04947096 0.12719990 0.05969995
v -0.04947084 0.13033310 0.05969994
v 0.04941022 0.13119981 0.05499987
v 0.04947084 0.13033310 0.05969994
v 0.04951190 0.12719980 0.05499988
v 0.04941022 0.13119981 0.05499987
v 0.04944860 0.13119990 0.05969994
v 0.04947084 0.13033310 0.05969994
v 0.04951190 0.12719980 0.05499988
v 0.04947084 0.13033310 0.05969994
v 0.04947090 0.12719990 0.05969995
v 0.04508495 0.13836750 0.00444209
v 0.04472345 0.13990299 0.00433903
v 0.04472053 0.14000601 0.00444209
v 0.04469013 0.13981730 0.00425338
v 0.04460167 0.13974009 0.00417619
v 0.04507040 0.13836460 0.00435644
v 0.04503613 0.13835759 0.00428420
v 0.04501307 0.13835290 0.00425320
v 0.04491114 0.13833220 0.00417607
v 0.04448205 0.13971379 0.00414991
v 0.04492741 0.13760960 0.00414991
v 0.04504781 0.13763210 0.00417607
v 0.04538935 0.13671690 0.00444209
v 0.04537475 0.13671450 0.00435644
v 0.04534018 0.13670871 0.00428420
v 0.04531699 0.13670491 0.00425320
v 0.04521435 0.13668790 0.00417607
v 0.04527330 0.13548671 0.00414991
v 0.04549765 0.13551781 0.00425320
v 0.04563337 0.13505630 0.00444209
v 0.04539465 0.13550350 0.00417607
v 0.04561865 0.13505439 0.00435644
v 0.04565036 0.13480160 0.00435650
v 0.04558390 0.13504989 0.00428420
v 0.04556053 0.13504690 0.00425320
v 0.04545742 0.13503370 0.00417607
v 0.04561561 0.13479730 0.00428420
v 0.04568022 0.13424300 0.00428420
v 0.04559224 0.13479450 0.00425320
v 0.04548901 0.13478179 0.00417607
v 0.04565680 0.13424049 0.00425320
v 0.04571759 0.13343111 0.00423115
v 0.04555344 0.13422909 0.00417607
v 0.04551893 0.13334990 0.00414991
v 0.04563522 0.13342351 0.00417607
v 0.04562664 0.13337050 0.00417047
f 1 2 3
f 1 3 4
f 5 6 2
f 7 8 9
f 10 11 12
f 13 14 15
f 10 16 17
f 18 16 10
f 19 20 21
f 19 21 6
f 19 6 5
f 22 23 13
f 24 25 26
f 27 28 29
f 24 20 19
f 30 31 10
f 32 25 24
f 33 30 10
f 33 34 30
f 35 34 33
f 36 37 38
f 35 39 40
f 41 42 43
f 35 33 44
f 45 46 47
f 35 48 49
f 50 51 52
f 53 54 55
f 53 55 56
f 57 53 56
f 58 57 56
f 58 56 59
f 58 59 60
f 61 32 27
f 61 60 62
f 61 62 32
f 61 58 60
f 61 63 64
f 65 66 67
f 65 61 66
f 68 65 67
f 69 67 70
f 69 68 67
f 71 69 70
f 72 70 35
f 73 74 75
f 76 77 78
f 79 80 81
f 76 82 83
f 79 84 82
f 85 86 87
f 88 89 90
f 91 92 93
f 88 76 78
f 94 95 96
f 97 98 88
f 99 100 101
f 99 102 100
f 103 90 104
f 97 72 35
f 97 88 90
f 105 106 107
f 108 109 97
f 110 111 112
f 113 112 114
f 115 116 110
f 115 110 112
f 115 112 113
f 117 114 118
f 117 118 119
f 120 114 117
f 120 113 114
f 121 119 122
f 123 116 115
f 123 115 113
f 123 113 120
f 124 119 121
f 125 117 119
f 125 119 124
f 126 123 120
f 126 120 117
f 126 117 125
f 127 116 123
f 127 123 126
f 128 122 129
f 128 124 121
f 128 121 122
f 128 125 124
f 128 126 125
f 130 116 127
f 130 127 126
f 130 126 128
f 131 128 129
f 132 128 131
f 133 128 132
f 134 130 128
f 134 128 133
f 135 136 116
f 135 116 130
f 135 130 134
f 137 129 138
f 137 131 129
f 137 132 131
f 137 133 132
f 137 134 133
f 139 136 135
f 139 135 134
f 139 134 137
f 140 137 138
f 141 137 140
f 142 137 141
f 143 139 137
f 143 137 142
f 144 145 146
f 144 146 136
f 144 136 139
f 144 139 143
f 147 148 149
f 147 150 148
f 147 138 150
f 147 140 138
f 147 141 140
f 151 141 147
f 151 147 149
f 151 142 141
f 152 144 143
f 152 151 149
f 152 149 145
f 152 142 151
f 152 145 144
f 152 143 142
f 153 154 155
f 153 155 156
f 157 156 158
f 157 158 159
f 157 159 160
f 157 153 156
f 161 162 163
f 161 164 162
f 165 166 167
f 168 169 165
f 168 165 167
f 170 169 168
f 171 172 169
f 171 169 170
f 173 174 175
f 173 176 174
f 177 178 176
f 177 176 173
f 179 180 178
f 179 178 177
f 181 182 180
f 181 180 179
f 183 184 182
f 183 182 181
f 185 186 184
f 185 184 183
f 187 188 186
f 187 186 185
f 189 190 188
f 189 188 187
f 191 192 190
f 191 190 189
f 193 194 192
f 193 192 191
f 195 196 197
f 195 197 198
f 199 164 200
f 199 201 164
f 202 203 201
f 202 201 199
f 204 205 203
f 204 203 202
f 206 207 205
f 206 205 204
f 208 209 207
f 208 207 206
f 210 211 212
f 213 214 215
f 216 217 211
f 216 218 217
f 219 211 220
f 221 216 211
f 222 211 219
f 223 221 211
f 224 225 226
f 227 228 211
f 229 211 230
f 231 232 211
f 233 211 229
f 234 231 211
f 235 225 236
f 237 211 238
f 239 234 225
f 240 214 241
f 242 243 244
f 242 245 246
f 242 247 245
f 242 244 247
f 248 249 250
f 248 251 249
f 248 252 251
f 248 253 252
f 254 255 253
f 254 246 255
f 254 242 246
f 256 257 258
f 259 248 260
f 261 262 263
f 264 265 266
f 267 248 268
f 269 262 270
f 271 254 272
f 273 274 265
f 275 248 271
f 276 277 278
f 279 280 277
f 279 277 276
f 281 282 280
f 281 280 279
f 283 284 282
f 283 282 281
f 285 284 283
f 286 287 284
f 286 284 285
f 288 289 287
f 288 287 286
f 290 291 289
f 290 289 288
f 292 293 291
f 292 291 290
f 294 295 293
f 294 293 292
f 296 297 295
f 296 295 294
f 298 299 297
f 298 297 296
f 300 301 299
f 300 299 298
f 302 303 301
f 302 301 300
f 304 305 303
f 304 303 302
f 306 305 304
f 306 307 305
f 308 309 307
f 308 307 306
f 310 309 308
f 310 311 309
f 312 313 311
f 312 311 310
f 314 315 316
f 314 317 315
f 318 319 320
f 321 322 318
f 321 318 320
f 323 324 322
f 323 322 321
f 325 324 323
f 326 327 328
f 329 330 331
f 332 328 333
f 332 331 334
f 335 336 330
f 335 330 329
f 337 333 338
f 337 332 333
f 339 340 336
f 339 336 335
f 341 337 338
f 342 343 340
f 342 340 339
f 344 341 338
f 345 343 342
f 345 346 343
f 345 347 346
f 348 349 350
f 351 347 345
f 351 352 347
f 353 352 351
f 354 355 344
f 354 350 356
f 357 353 351
f 358 353 357
f 359 354 356
f 360 358 357
f 361 362 356
f 363 364 365
f 366 367 368
f 369 358 360
f 370 369 360
f 371 369 370
f 372 373 361
f 374 371 370
f 375 371 374
f 376 377 378
f 379 380 375
f 379 375 374
f 381 380 379
f 382 381 379
f 383 381 382
f 384 383 382
f 385 383 384
f 386 385 384
f 387 386 384
f 388 386 387
f 389 377 376
f 390 391 392
f 393 388 394
f 395 396 397
f 398 393 399
f 400 389 376
f 400 398 389
f 401 402 403
f 404 400 376
f 404 376 405
f 406 407 402
f 406 402 401
f 408 404 405
f 408 409 410
f 408 405 409
f 411 407 406
f 411 412 407
f 413 412 411
f 413 414 412
f 415 408 410
f 415 410 416
f 417 415 416
f 417 418 414
f 417 416 418
f 417 414 413
f 387 394 388
f 419 420 421
f 419 421 422
f 423 422 424
f 423 419 422
f 425 423 424
f 426 425 424
f 427 428 426
f 427 426 424
f 429 428 427
f 430 429 427
f 431 430 427
f 432 430 431
f 433 431 434
f 433 432 431
f 435 433 434
f 436 435 434
f 437 435 436
f 438 437 436
f 439 437 438
f 440 439 438
f 441 440 438
f 442 440 441
f 443 442 441
f 444 442 443
f 445 442 444
f 446 442 445
f 447 448 449
f 447 449 450
f 447 450 451
f 452 447 451
f 453 447 452
f 454 453 452
f 455 453 454
f 456 455 454
f 457 455 456
f 458 457 456
f 458 456 459
f 460 458 459
f 460 459 461
f 462 460 461
f 463 462 461
f 463 461 464
f 465 463 464
f 466 465 464
f 467 466 464
f 468 467 464
f 469 467 468
f 470 469 468
f 471 470 468
f 472 470 471
f 473 472 471
f 474 472 473
f 447 442 448
f 448 442 475
f 475 442 476
f 476 442 446
f 477 478 479
f 477 479 480
f 481 482 483
f 484 485 482
f 484 486 485
f 484 482 481
f 487 486 484
f 488 486 487
f 489 490 488
f 489 488 487
f 491 492 490
f 491 490 489
f 493 494 495
f 496 494 493
f 497 494 496
f 498 497 496
f 499 500 501
f 499 501 502
f 503 500 499
f 504 500 503
f 505 504 503
f 506 507 508
f 509 510 511
f 509 512 510
f 509 511 506
f 509 506 508
f 513 514 512
f 513 512 509
f 515 514 513
f 516 515 513
f 517 515 516
f 518 517 516
f 519 479 520
f 519 480 479
f 521 520 522
f 521 480 519
f 521 519 520
f 523 522 480
f 523 521 522
f 523 480 521
f 524 483 478
f 524 481 483
f 525 481 524
f 525 477 481
f 525 524 478
f 525 478 477
f 526 492 491
f 526 495 494
f 526 494 492
f 527 491 495
f 527 526 491
f 527 495 526
f 528 497 498
f 528 529 497
f 530 529 528
f 530 528 498
f 531 498 532
f 531 530 498
f 531 529 530
f 533 534 535
f 533 535 536
f 533 536 537
f 533 538 539
f 540 501 541
f 540 502 501
f 542 502 540
f 542 540 541
f 543 544 502
f 543 502 542
f 543 542 541
f 545 507 504
f 545 504 505
f 546 545 505
f 546 505 508
f 546 508 507
f 546 507 545
f 547 518 548
f 547 548 549
f 547 549 517
f 547 517 518
f 550 531 532
f 550 529 531
f 551 532 552
f 551 553 529
f 551 550 532
f 551 529 550
f 554 551 552
f 554 553 551
f 555 554 552
f 555 552 556
f 555 539 553
f 555 553 554
f 557 533 539
f 557 556 558
f 557 558 559
f 557 559 534
f 557 555 556
f 557 539 555
f 557 534 533
f 560 533 537
f 560 538 533
f 560 537 561
f 560 561 562
f 560 562 563
f 560 563 564
f 565 538 560
f 565 560 564
f 565 566 538
f 567 565 564
f 567 566 565
f 568 566 567
f 568 564 544
f 568 567 564
f 568 541 566
f 569 568 544
f 569 541 568
f 569 544 543
f 569 543 541
f 570 571 572
f 573 570 574
f 575 571 570
f 575 570 573
f 576 577 571
f 576 571 575
f 578 579 577
f 578 577 576
f 580 581 579
f 580 579 578
f 582 583 584
f 582 584 581
f 582 581 580
f 585 586 583
f 585 583 582
f 587 588 586
f 587 586 585
f 589 590 588
f 589 588 587
f 591 592 590
f 591 590 589
f 593 594 592
f 593 592 591
f 595 596 594
f 595 594 593
f 597 598 596
f 597 596 595
f 599 600 598
f 599 598 597
f 601 600 599
f 602 601 599
f 603 604 605
f 606 603 605
f 607 605 608
f 607 606 605
f 609 608 610
f 609 607 608
f 611 609 610
f 612 611 610
f 613 611 612
f 614 613 612
f 615 613 614
f 616 615 614
f 617 615 616
f 618 617 616
f 619 618 620
f 619 617 618
f 621 619 620
f 622 623 621
f 624 619 621
f 624 621 623
f 625 626 627
f 625 627 628
f 625 628 622
f 625 622 621
f 629 625 630
f 629 626 625
f 631 629 630
f 632 631 633
f 632 629 631
f 634 633 635
f 634 635 636
f 634 632 633
f 637 636 638
f 637 634 636
f 639 638 640
f 639 640 641
f 639 637 638
f 642 641 643
f 642 639 641
f 644 643 645
f 644 642 643
f 646 645 647
f 646 644 645
f 648 647 649
f 648 646 647
f 650 651 652
f 650 652 653
f 654 655 656
f 654 656 651
f 654 651 650
f 657 653 658
f 657 658 659
f 657 650 653
f 660 661 655
f 660 655 654
f 662 659 663
f 662 657 659
f 664 665 666
f 664 666 661
f 664 661 660
f 667 668 669
f 670 667 669
f 671 670 669
f 672 671 669
f 673 672 669
f 674 663 675
f 674 675 676
f 674 676 677
f 674 662 663
f 678 669 665
f 678 665 664
f 679 680 681
f 679 681 682
f 679 682 683
f 679 683 684
f 679 684 685
f 686 677 687
f 686 674 677
f 688 679 685
f 688 669 678
f 689 690 691
f 688 673 669
f 692 693 694
f 695 696 697
f 698 699 700
f 701 702 703
f 704 705 706
f 707 686 687
f 708 686 707
f 709 710 679
f 709 679 688
f 711 710 709
f 712 708 707
f 713 708 712
f 714 711 709
f 715 711 714
f 716 713 712
f 717 713 716
f 718 715 714
f 718 719 715
f 720 719 718
f 721 717 716
f 722 717 721
f 723 720 718
f 724 720 723
f 725 724 723
f 726 722 721
f 726 727 722
f 728 724 725
f 729 728 725
f 730 727 726
f 730 731 727
f 732 728 729
f 733 729 734
f 733 732 729
f 735 731 730
f 735 736 731
f 737 734 738
f 737 733 734
f 739 736 735
f 739 740 736
f 741 738 742
f 741 737 738
f 743 740 739
f 743 744 745
f 743 745 740
f 746 747 748
f 749 743 739
f 750 745 751
f 752 749 739
f 753 754 755
f 756 752 739
f 757 758 759
f 760 754 761
f 762 758 763
f 764 745 765
f 766 767 768
f 769 741 742
f 770 745 771
f 772 745 770
f 773 742 774
f 773 769 742
f 775 772 770
f 775 770 776
f 775 776 777
f 775 777 778
f 775 779 772
f 780 774 781
f 780 773 774
f 782 779 775
f 782 783 779
f 784 781 785
f 784 780 781
f 786 787 783
f 786 783 782
f 788 785 789
f 788 784 785
f 790 789 787
f 790 787 786
f 790 788 789
f 791 792 793
f 794 793 795
f 794 791 793
f 796 795 797
f 796 794 795
f 798 797 799
f 798 796 797
f 800 799 801
f 800 798 799
f 802 800 801
f 802 801 803
f 804 802 803
f 804 803 805
f 806 804 805
f 806 805 807
f 808 806 807
f 808 807 809
f 810 808 809
f 810 809 811
f 812 810 811
f 812 811 813
f 814 812 813
f 814 813 815
f 816 814 815
f 816 815 817
f 818 816 817
f 818 817 819
f 820 818 819
f 820 819 821
f 822 821 823
f 822 820 821
f 824 822 823
f 824 823 825
f 826 825 827
f 826 824 825
f 828 827 829
f 828 826 827
f 830 828 829
f 830 829 831
f 832 830 831
f 832 831 833
f 834 832 833
f 834 833 835
f 836 834 835
f 836 835 837
f 838 836 837
f 838 837 839
f 840 839 841
f 840 838 839
f 842 841 843
f 842 840 841
f 844 843 845
f 844 842 843
f 846 845 847
f 846 844 845
f 848 847 849
f 848 846 847
f 850 849 851
f 850 848 849
f 852 851 853
f 852 850 851
f 854 852 853
f 854 853 855
f 856 854 855
f 856 855 857
f 858 856 857
f 858 857 859
f 860 858 859
f 860 859 861
f 862 860 861
f 862 861 863
f 864 862 863
f 864 863 865
f 866 867 868
f 866 868 869
f 870 869 871
f 870 866 869
f 872 871 873
f 872 870 871
f 874 873 875
f 874 872 873
f 876 875 877
f 876 874 875
f 878 877 879
f 878 876 877
f 880 878 879
f 880 879 881
f 882 880 881
f 882 881 883
f 884 882 883
f 884 883 885
f 886 884 885
f 886 885 887
f 888 886 887
f 888 887 889
f 890 888 889
f 890 889 891
f 892 890 891
f 892 891 893
f 894 892 893
f 894 893 895
f 896 894 895
f 896 895 897
f 898 896 897
f 898 897 899
f 900 898 899
f 900 899 901
f 902 900 901
f 902 901 903
f 904 902 903
f 904 903 905
f 906 904 905
f 907 906 905
f 908 906 907
f 909 908 907
f 910 908 909
f 911 910 909
f 912 910 911
f 913 912 911
f 914 912 913
f 915 914 913
f 916 914 915
f 917 916 915
f 918 916 917
f 919 918 917
f 920 918 919
f 921 920 919
f 922 920 921
f 923 922 921
f 924 922 923
f 925 924 923
f 926 924 925
f 927 926 925
f 928 926 927
f 929 928 927
f 930 928 929
f 931 930 929
f 932 930 931
f 933 932 931
f 934 932 933
f 935 934 933
f 936 934 935
f 937 936 935
f 938 936 937
f 868 938 937
f 939 938 868
f 940 941 942
f 943 944 941
f 943 945 944
f 946 941 940
f 947 948 943
f 947 949 948
f 950 951 952
f 953 954 947
f 955 956 957
f 955 946 951
f 955 943 941
f 955 941 946
f 955 958 956
f 959 953 947
f 960 955 961
f 962 955 960
f 963 964 959
f 963 965 964
f 963 959 947
f 966 967 963
f 968 969 970
f 968 962 969
f 968 955 962
f 971 947 943
f 971 943 955
f 971 955 968
f 972 973 966
f 974 947 971
f 974 963 947
f 974 975 963
f 974 976 975
f 977 971 978
f 977 974 971
f 979 974 977
f 980 981 982
f 983 984 985
f 986 987 988
f 989 990 991
f 992 989 993
f 992 990 989
f 994 995 996
f 994 996 992
f 997 992 993
f 997 994 992
f 998 993 999
f 998 997 993
f 1000 999 1001
f 1000 998 999
f 1002 1001 1003
f 1002 1000 1001
f 1004 1003 1005
f 1004 1002 1003
f 1006 1005 1007
f 1006 1004 1005
f 1008 1007 1009
f 1008 1006 1007
f 1010 1011 1012
f 1010 1012 1013
f 1014 1009 1015
f 1014 1008 1009
f 1016 1014 1015
f 1017 1015 1011
f 1017 1011 1010
f 1017 1016 1015
f 1018 1017 1010
f 1019 1010 1020
f 1019 1020 1021
f 1019 1021 1022
f 1019 1018 1010
f 1023 1024 1025
f 1026 1024 1027
f 1027 1024 1023
f 1028 1029 1030
f 1031 1028 1030
f 1032 1031 1030
f 1033 1032 1030
f 1034 1033 1030
f 1035 1034 1030
f 1036 1037 1038
f 1039 1040 1030
f 1039 1041 1042
f 1039 1043 1041
f 1039 1044 1043
f 1039 1045 1044
f 1039 1046 1045
f 1039 1047 1046
f 1039 1030 1047
f 1048 1039 1042
f 1048 1042 1049
f 1050 1048 1051
f 1052 1053 1054
f 1055 1056 1057
f 1058 1059 1060
f 1055 1061 1062
f 1055 1062 1063
f 1064 1065 1066
f 1067 1068 1069
f 1064 1070 1071
f 1072 1073 1039
f 1074 1075 1039
f 1076 1074 1039
f 1077 1076 1039
f 1078 1077 1039
f 1079 1078 1039
f 1080 1079 1039
f 1081 1082 1083
f 1084 1085 1086
f 1087 1081 1083
f 1088 1089 1090
f 1091 1092 1093
f 1094 1083 1095
f 1096 1097 1083
f 1098 1099 1083
f 1098 1100 1099
f 1098 1101 1100
f 1098 1102 1101
f 1098 1103 1102
f 1098 1104 1103
f 1098 1105 1104
f 1098 1106 1105
f 1098 1050 1106
f 1098 1048 1107
f 1098 1083 1094
f 1098 1039 1048
f 1108 1039 1098
f 1108 1109 1080
f 1108 1080 1039
f 1110 1111 1112
f 1113 1114 1115
f 1116 1117 1118
f 1119 1120 1121
f 1122 1123 1124
f 1125 1126 1127
f 1128 1129 1130
f 1131 1132 1119
f 1133 1134 1135
f 1136 1137 1108
f 1136 1108 1098
f 1138 1139 1140
f 1141 1136 1139
f 1142 1139 1138
f 1143 1141 1139
f 1144 1139 1142
f 1145 1143 1139
f 1146 1098 1144
f 1147 1145 1139
f 1147 1139 1146
f 1148 1149 1150
f 1148 1151 1149
f 1152 1148 1153
f 1152 1151 1148
f 1154 1152 1153
f 1155 1152 1154
f 1156 1155 1154
f 1157 1155 1156
f 1158 1157 1156
f 1159 1157 1158
f 1160 1159 1158
f 1161 1159 1160
f 1162 1161 1160
f 1163 1161 1162
f 1164 1163 1162
f 1165 1163 1164
f 1166 1165 1164
f 1167 1165 1166
f 1168 1167 1166
f 1169 1167 1168
f 1170 1169 1168
f 1171 1169 1170
f 1172 1171 1170
f 1173 1171 1172
f 1174 1173 1172
f 1175 1173 1174
f 1176 1175 1174
f 1177 1175 1176
f 1178 1177 1176
f 1179 1177 1178
f 1180 1179 1178
f 1181 1179 1180
f 1182 1181 1180
f 1183 1181 1182
f 1184 1183 1182
f 1185 1183 1184
f 1186 1185 1184
f 1187 1185 1186
f 1188 1187 1186
f 1189 1187 1188
f 1190 1189 1188
f 1191 1189 1190
f 1192 1191 1190
f 1193 1192 1194
f 1195 1192 1193
f 1196 1191 1192
f 1196 1192 1195
f 1197 1198 1199
f 1197 1200 1198
f 1197 1201 1200
f 1202 1203 1201
f 1202 1201 1197
f 1204 1205 1203
f 1204 1203 1202
f 1206 1207 1205
f 1206 1205 1204
f 1208 1209 1207
f 1208 1207 1206
f 1210 1211 1209
f 1210 1209 1208
f 1212 1213 1211
f 1212 1211 1210
f 1214 1215 1213
f 1214 1213 1212
f 1216 1217 1215
f 1216 1215 1214
f 1218 1219 1217
f 1218 1217 1216
f 1220 1221 1219
f 1220 1219 1218
f 1222 1223 1221
f 1222 1221 1220
f 1224 1225 1226
f 1224 1226 1227
f 1224 1227 1228
f 1224 1228 1229
f 1230 1224 1229
f 1231 1224 1230
f 1232 1231 1230
f 1233 1231 1232
f 1234 1233 1232
f 1235 1233 1234
f 1236 1235 1234
f 1237 1235 1236
f 1238 1235 1237
f 1239 1238 1237
f 1240 1238 1239
f 1241 1240 1239
f 1242 1240 1241
f 1243 1242 1241
f 1244 1243 1245
f 1244 1242 1243
f 1246 1245 1247
f 1246 1244 1245
f 1248 1246 1247
f 1248 1247 1249
f 1250 1248 1249
f 1250 1249 1251
f 1252 1250 1251
f 1252 1251 1253
f 1254 1253 1255
f 1254 1252 1253
f 1256 1255 1257
f 1256 1254 1255
f 1258 1257 1259
f 1258 1256 1257
f 1260 1259 1261
f 1260 1258 1259
f 1262 1261 1263
f 1262 1260 1261
f 1264 1263 1265
f 1264 1262 1263
f 1264 1265 1266
f 1267 1266 1268
f 1267 1268 1269
f 1267 1269 1270
f 1267 1264 1266
f 1271 1272 1273
f 1271 1270 1272
f 1271 1273 1274
f 1271 1274 1275
f 1271 1267 1270
f 1276 1271 1275
f 1277 1278 1279
f 1280 1281 1282
f 1283 1277 1279
f 1284 1277 1283
f 1285 1277 1284
f 1286 1277 1285
f 1287 1288 1289
f 1290 1288 1287
f 1291 1292 1277
f 1293 1294 1295
f 1296 1297 1292
f 1298 1292 1291
f 1299 1296 1292
f 1300 1292 1298
f 1301 1299 1292
f 1302 1303 1300
f 1304 1301 1292
f 1305 1306 1307
f 1308 1309 1310
f 1311 1312 1313
f 1311 1310 1312
f 1311 1308 1310
f 1314 1315 1308
f 1314 1308 1311
f 1316 1317 1315
f 1316 1315 1314
f 1318 1319 1317
f 1318 1317 1316
f 1320 1321 1319
f 1320 1319 1318
f 1322 1323 1321
f 1322 1321 1320
f 1324 1325 1323
f 1324 1323 1322
f 1326 1327 1325
f 1326 1325 1324
f 1328 1329 1327
f 1328 1327 1326
f 1330 1331 1329
f 1330 1329 1328
f 1332 1333 1331
f 1332 1331 1330
f 1334 1335 1333
f 1334 1333 1332
f 1336 1337 1335
f 1336 1335 1334
f 1338 1337 1336
f 1338 1339 1337
f 1340 1339 1338
f 1340 1341 1339
f 1342 1343 1341
f 1344 1341 1340
f 1344 1342 1341
f 1345 1342 1344
f 1346 1345 1344
f 1347 1348 1349
f 1350 1351 1352
f 1350 1353 1351
f 1354 1355 1356
f 1357 1358 1359
f 1357 1360 1358
f 1357 1353 1350
f 1361 1362 1363
f 1364 1365 1366
f 1367 1368 1369
f 1361 1363 1370
f 1371 1372 1373
f 1371 1374 1372
f 1375 1376 1377
f 1371 1373 1364
f 1378 1379 1380
f 1378 1380 1371
f 1381 1379 1378
f 1382 1381 1378
f 1383 1384 1385
f 1386 1387 1384
f 1386 1384 1383
f 1388 1389 1387
f 1388 1387 1386
f 1390 1391 1389
f 1390 1389 1388
f 1392 1393 1391
f 1392 1391 1390
f 1394 1395 1393
f 1394 1393 1392
f 1396 1397 1395
f 1396 1395 1394
f 1398 1399 1397
f 1398 1397 1396
f 1400 1401 1399
f 1400 1399 1398
f 1402 1403 1401
f 1402 1401 1400
f 1404 1405 1403
f 1404 1403 1402
f 1406 1407 1405
f 1406 1405 1404
f 1408 1409 1407
f 1408 1407 1406
f 1410 1411 1409
f 1410 1409 1408
f 1412 1413 1411
f 1412 1411 1410
f 1414 1415 1413
f 1414 1413 1412
f 1416 1417 1418
f 1419 1420 1416
f 1419 1416 1418
f 1421 1419 1422
f 1423 1424 1425
f 1423 1425 1420
f 1423 1420 1419
f 1423 1419 1421
f 1426 1427 1424
f 1426 1424 1423
f 1428 1429 1430
f 1428 1430 1427
f 1428 1427 1426
f 1431 1432 1429
f 1431 1429 1428
f 1433 1434 1432
f 1433 1432 1431
f 1435 1436 1437
f 1438 1434 1433
f 1439 1437 1434
f 1439 1435 1437
f 1439 1434 1438
f 1440 1435 1439
f 1441 1435 1440
f 1442 1435 1441
f 1443 1444 1445
f 1443 1445 1446
f 1443 1446 1435
f 1443 1435 1442
f 1447 1448 1449
f 1450 1451 1448
f 1450 1448 1447
f 1452 1453 1451
f 1452 1451 1450
f 1454 1455 1453
f 1454 1453 1452
f 1456 1457 1455
f 1456 1455 1454
f 1458 1459 1457
f 1458 1457 1456
f 1460 1461 1459
f 1460 1459 1458
f 1462 1463 1461
f 1462 1461 1460
f 1464 1465 1463
f 1464 1466 1465
f 1464 1463 1462
f 1467 1468 1466
f 1467 1466 1464
f 1469 1470 1468
f 1469 1468 1467
f 1471 1472 1470
f 1471 1470 1469
f 1473 1474 1472
f 1473 1472 1471
f 1475 1476 1474
f 1475 1474 1473
f 1477 1478 1476
f 1477 1476 1475
f 1479 1480 1478
f 1479 1478 1477
f 1481 1480 1479
f 1481 1482 1480
f 1483 1484 1485
f 1486 1484 1483
f 1487 1486 1483
f 1488 1487 1483
f 1489 1490 1491
f 1489 1492 1493
f 1489 1491 1492
f 1489 1493 1494
f 1495 1496 1497
f 1498 1499 1500
f 1501 1502 1503
f 1504 1505 1506
f 1507 1508 1495
f 1507 1495 1497
f 1509 1510 1511
f 1509 1512 1510
f 1513 1514 1515
f 1516 1517 1518
f 1519 1520 1521
f 1519 1522 1520
f 1519 1523 1524
f 1525 1526 1527
f 1519 1509 1511
f 1528 1521 1529
f 1530 1519 1521
f 1530 1521 1528
f 1531 1519 1530
f 1532 1533 1534
f 1535 1536 1537
f 1538 1539 1540
f 1541 1535 1542
f 1543 1544 1545
f 1546 1547 1548
f 1549 1535 1550
f 1551 1552 1535
f 1551 1535 1549
f 1553 1552 1551
f 1554 1555 1552
f 1556 1552 1553
f 1557 1554 1552
f 1558 1559 1560
f 1561 1562 1563
f 1564 1565 1552
f 1566 1567 1568
f 1569 1570 1571
f 1572 1573 1570
f 1572 1570 1569
f 1574 1575 1573
f 1574 1573 1572
f 1576 1577 1575
f 1576 1575 1574
f 1578 1579 1577
f 1578 1577 1576
f 1580 1581 1579
f 1580 1579 1578
f 1582 1583 1581
f 1582 1581 1580
f 1584 1585 1583
f 1584 1583 1582
f 1586 1587 1585
f 1586 1585 1584
f 1588 1589 1587
f 1588 1587 1586
f 1590 1591 1589
f 1590 1589 1588
f 1592 1593 1591
f 1592 1591 1590
f 1594 1595 1593
f 1594 1593 1592
f 1596 1597 1595
f 1596 1595 1594
f 1598 1599 1597
f 1598 1597 1596
f 1600 1599 1598
f 1601 1599 1600
f 1601 1602 1599
f 1603 1604 1605
f 1606 1607 1608
f 1609 1610 1611
f 1612 1613 1614
f 1615 1616 1617
f 1615 1618 1616
f 1619 1620 1621
f 1622 1623 1624
f 1625 1626 1627
f 1628 1629 1630
f 1631 1632 1633
f 1631 1634 1632
f 1631 1635 1634
f 1636 1635 1631
f 1637 1635 1636
f 1638 1635 1637
f 1639 1640 1635
f 1639 1641 1640
f 1639 1635 1638
f 1642 1631 1643
f 1642 1638 1637
f 1642 1637 1636
f 1642 1641 1639
f 1642 1639 1638
f 1642 1636 1631
f 1644 1642 1643
f 1645 1642 1644
f 1646 1642 1645
f 1647 1648 1641
f 1647 1641 1642
f 1647 1642 1646
f 1649 1643 1650
f 1649 1645 1644
f 1649 1644 1643
f 1649 1646 1645
f 1649 1647 1646
f 1651 1648 1647
f 1651 1647 1649
f 1652 1650 1653
f 1652 1649 1650
f 1654 1649 1652
f 1655 1649 1654
f 1656 1648 1651
f 1656 1651 1649
f 1656 1649 1655
f 1657 1653 1658
f 1657 1652 1653
f 1657 1654 1652
f 1657 1655 1654
f 1659 1655 1657
f 1660 1648 1656
f 1660 1656 1655
f 1660 1655 1659
f 1661 1658 1662
f 1661 1657 1658
f 1661 1659 1657
f 1663 1664 1648
f 1663 1661 1662
f 1663 1648 1660
f 1663 1660 1659
f 1663 1659 1661
f 1665 1662 1666
f 1665 1666 1664
f 1665 1663 1662
f 1665 1664 1663

