# https://github.com/mikedh/trimesh
v -0.00547688 -0.06566861 0.93865663
v -0.00000005 -0.06672378 0.93805331
v -0.00000006 -0.06663586 0.93815958
v -0.00000006 -0.06650873 0.93825227
v -0.00000006 -0.06609656 0.93844020
v -0.00000006 -0.06598051 0.93849969
v -0.00000006 -0.06588991 0.93856049
v 0.00000052 -0.06576349 0.93870091
v -0.01079409 -0.06639017 0.93783158
v -0.01021777 -0.06542714 0.93855631
v -0.01064317 -0.06540711 0.93853021
v -0.01098667 -0.06541231 0.93847150
v -0.01129238 -0.06544043 0.93837839
v -0.01156901 -0.06549224 0.93824887
v -0.01095079 -0.06639905 0.93779361
v -0.01181410 -0.06556614 0.93808568
v -0.01107369 -0.06641723 0.93774420
v -0.01197152 -0.06563224 0.93794912
v -0.01122372 -0.06646086 0.93764710
v -0.01211093 -0.06570758 0.93779892
v -0.01134704 -0.06652732 0.93751460
v -0.01139943 -0.06656988 0.93743372
v -0.01228706 -0.06583823 0.93754822
v -0.01148669 -0.06668022 0.93723100
v -0.01144312 -0.06661572 0.93734848
v -0.01151495 -0.06675227 0.93710238
v -0.01242052 -0.06599088 0.93726569
v -0.01154719 -0.06696697 0.93672621
v -0.01152413 -0.06844421 0.93410969
v -0.01153080 -0.07042363 0.93039840
v -0.01252983 -0.07286336 0.92408752
v -0.01153056 -0.07364382 0.92377830
v -0.01252566 -0.07425095 0.92099810
v -0.01153110 -0.07525839 0.92012358
v -0.01253150 -0.07550372 0.91803879
v -0.01152043 -0.07604672 0.91824269
v -0.01251166 -0.07564558 0.91769677
v -0.01243673 -0.07578166 0.91737843
v -0.01234142 -0.07588770 0.91713679
v -0.01150070 -0.07614955 0.91799581
v -0.01221399 -0.07599028 0.91690922
v -0.01146571 -0.07621808 0.91783482
v -0.01138906 -0.07630684 0.91763133
v -0.01205806 -0.07608886 0.91669601
v -0.01129352 -0.07637616 0.91747880
v -0.01067315 -0.07656379 0.91702950
v -0.01054858 -0.07654908 0.91718960
v -0.01076655 -0.07652916 0.91719908
v -0.01073377 -0.07654829 0.91692930
v -0.01095711 -0.07649709 0.91724330
v -0.01187347 -0.07618041 0.91650498
v -0.01120530 -0.07642080 0.91738540
v -0.01112030 -0.07645293 0.91732192
v -0.01079832 -0.07651652 0.91680759
v -0.01166545 -0.07626130 0.91634411
v -0.01101057 -0.07638706 0.91638321
v -0.01143829 -0.07633008 0.91621649
v -0.01110123 -0.07636942 0.91623950
v -0.01119439 -0.07638516 0.91612548
v -0.01095544 -0.07642068 0.91608191
v -0.01110123 -0.07636942 0.91623950
v -0.01119439 -0.07638516 0.91612548
v -0.01101057 -0.07638706 0.91638321
v -0.01063190 -0.07645305 0.91606110
v -0.01079832 -0.07651652 0.91680759
v -0.01073377 -0.07654829 0.91692930
v -0.00996923 -0.07649840 0.91606522
v -0.01067315 -0.07656379 0.91702950
v -0.01054858 -0.07654908 0.91718960
v -0.00000005 -0.07687040 0.91734421
v -0.00000005 -0.07690188 0.91721058
v -0.00000005 -0.07689668 0.91705418
v -0.00000005 -0.07678892 0.91661638
v -0.00000005 -0.07676555 0.91650021
v -0.00000005 -0.07675602 0.91640049
v -0.00000005 -0.07676233 0.91629177
v 0.00000007 -0.07678856 0.91619468
v -0.00576501 -0.07151593 0.92813241
v -0.00576525 -0.07504185 0.92143840
v -0.00572871 -0.07171078 0.92859131
v -0.00576525 -0.07475723 0.92115378
v -0.00574397 -0.07145144 0.92826420
v -0.00569199 -0.07139172 0.92838871
v -0.00561200 -0.07133962 0.92849988
v -0.00567685 -0.07166101 0.92869568
v -0.00561773 -0.07162394 0.92877501
v -0.00551175 -0.07129975 0.92858779
v -0.00553327 -0.07158823 0.92885351
v -0.00541978 -0.07127674 0.92864120
v -0.00543206 -0.07156082 0.92891657
v -0.00528215 -0.07125738 0.92869037
v -0.00531732 -0.07154246 0.92896241
v -0.00519549 -0.07153417 0.92898840
v -0.00513266 -0.07125212 0.92871201
v -0.00374084 -0.07157047 0.92901170
v -0.00323795 -0.07129838 0.92873430
v -0.00128119 -0.07160689 0.92902941
v -0.00128119 -0.07132395 0.92874640
v -0.00661956 -0.07501043 0.92142510
v -0.00576525 -0.07504185 0.92143840
v -0.00576525 -0.07475723 0.92115378
v -0.00661956 -0.07501043 0.92142510
v -0.00576525 -0.07475723 0.92115378
v -0.00661956 -0.07472564 0.92114031
v -0.00747370 -0.07497545 0.92140818
v -0.00661956 -0.07472564 0.92114031
v -0.00747370 -0.07469042 0.92112321
v -0.00747370 -0.07497545 0.92140818
v -0.00661956 -0.07501043 0.92142510
v -0.00661956 -0.07472564 0.92114031
v -0.00832759 -0.07493682 0.92138779
v -0.00747370 -0.07469042 0.92112321
v -0.00832759 -0.07465161 0.92110252
v -0.00832759 -0.07493682 0.92138779
v -0.00747370 -0.07497545 0.92140818
v -0.00747370 -0.07469042 0.92112321
v -0.00521540 -0.07036592 0.93127441
v -0.00128119 -0.07015778 0.93102813
v -0.00128119 -0.07044198 0.93131232
v -0.00558482 -0.07008691 0.93095797
v -0.00572317 -0.07037474 0.93121749
v -0.00604706 -0.07011820 0.93086028
v -0.00612127 -0.07040770 0.93111998
v -0.00646834 -0.07017644 0.93071133
v -0.00656312 -0.07047495 0.93094993
v -0.00681924 -0.07025017 0.93053621
v -0.00688689 -0.07054807 0.93077707
v -0.00722139 -0.07065029 0.93054497
v -0.00716566 -0.07035054 0.93030763
v -0.00755112 -0.07078679 0.93024391
v -0.00749527 -0.07048030 0.93002111
v -0.00775282 -0.07089563 0.93000847
v -0.00780838 -0.07065024 0.92965460
v -0.00794725 -0.07102992 0.92972249
v -0.00804799 -0.07083805 0.92925751
v -0.00812822 -0.07120259 0.92936027
v -0.00821279 -0.07103784 0.92884201
v -0.00822901 -0.07134350 0.92906833
v -0.00830435 -0.07152142 0.92870378
v -0.00829552 -0.07121421 0.92847967
v -0.00832759 -0.07318284 0.92526680
v -0.00832759 -0.07302584 0.92471802
v -0.00832759 -0.07493682 0.92138779
v -0.00832759 -0.07302584 0.92471802
v -0.00832759 -0.07318284 0.92526680
v -0.00832759 -0.07465161 0.92110252
v 0.00128109 -0.06944205 0.93319970
v 0.00128109 -0.06893285 0.93413830
v 0.00128109 -0.06864603 0.93385148
v 0.00128109 -0.06915619 0.93291378
v 0.00128109 -0.06994487 0.93225747
v 0.00128109 -0.06965996 0.93197250
v 0.00128109 -0.07044120 0.93131202
v 0.00128109 -0.07015701 0.93102783
v 0.00576515 -0.07231392 0.92648882
v 0.00576515 -0.07372804 0.92436272
v 0.00576515 -0.07344575 0.92408037
v 0.00576515 -0.07228793 0.92740703
v 0.00576515 -0.07153614 0.92808318
v 0.00576503 -0.07179710 0.92840731
v 0.00576515 -0.07153614 0.92808318
v 0.00575382 -0.07146521 0.92822742
v 0.00576515 -0.07228793 0.92740703
v 0.00573904 -0.07171966 0.92856568
v 0.00568892 -0.07138415 0.92839599
v 0.00570018 -0.07167549 0.92865771
v 0.00564737 -0.07163711 0.92873931
v 0.00557722 -0.07132013 0.92853361
v 0.00558348 -0.07160468 0.92880970
v 0.00549937 -0.07157482 0.92887640
v 0.00549431 -0.07129146 0.92859781
v 0.00540365 -0.07155223 0.92892933
v 0.00540049 -0.07126971 0.92864883
v 0.00529779 -0.07153739 0.92896718
v 0.00529702 -0.07125546 0.92868561
v 0.00518854 -0.07124932 0.92870629
v 0.00518639 -0.07153119 0.92898852
v 0.00388486 -0.07128270 0.92872679
v 0.00379897 -0.07156678 0.92900980
v 0.00128109 -0.07132317 0.92874610
v 0.00128109 -0.07160588 0.92902881
v 0.00128109 -0.07318021 0.92578948
v 0.00128109 -0.07160588 0.92902881
v 0.00128109 -0.07132317 0.92874610
v 0.00128109 -0.07342251 0.92438102
v 0.00127555 -0.07368936 0.92469931
v 0.00128109 -0.07342251 0.92438102
v 0.00128723 -0.07385619 0.92433721
v 0.00129009 -0.07357951 0.92403972
v 0.00131310 -0.07390352 0.92423332
v 0.00132037 -0.07362910 0.92393082
v 0.00140131 -0.07397617 0.92407262
v 0.00141186 -0.07369883 0.92377621
v 0.00153662 -0.07403293 0.92394489
v 0.00154317 -0.07375164 0.92365718
v 0.00163723 -0.07405783 0.92388749
v 0.00171793 -0.07378776 0.92357308
v 0.00177670 -0.07407732 0.92384070
v 0.00191308 -0.07380016 0.92354012
v 0.00192852 -0.07408316 0.92382312
v 0.00433941 -0.07403769 0.92380041
v 0.00493682 -0.07374045 0.92350572
v 0.00518383 -0.07401194 0.92379260
v 0.00522001 -0.07372625 0.92351383
v 0.00532092 -0.07399561 0.92381692
v 0.00536675 -0.07370468 0.92354912
v 0.00545997 -0.07396455 0.92387313
v 0.00549335 -0.07367189 0.92360997
v 0.00556160 -0.07392927 0.92394161
v 0.00558485 -0.07363667 0.92367941
v 0.00566412 -0.07387509 0.92405111
v 0.00567634 -0.07358404 0.92378652
v 0.00573284 -0.07381304 0.92418051
v 0.00573702 -0.07352509 0.92390990
v 0.00575728 -0.07377055 0.92427099
v 0.00576515 -0.07344575 0.92408037
v 0.00576515 -0.07372804 0.92436272
v 0.00163723 -0.07405783 0.92388749
v 0.00140131 -0.07397617 0.92407262
v 0.00153662 -0.07403293 0.92394489
v 0.00131310 -0.07390352 0.92423332
v 0.00128723 -0.07385619 0.92433721
v 0.00177670 -0.07407732 0.92384070
v 0.00192852 -0.07408316 0.92382312
v 0.00127555 -0.07368936 0.92469931
v 0.00433941 -0.07403769 0.92380041
v 0.00128109 -0.07318021 0.92578948
v 0.00576515 -0.07372804 0.92436272
v 0.00518383 -0.07401194 0.92379260
v 0.00532092 -0.07399561 0.92381692
v 0.00545997 -0.07396455 0.92387313
v 0.00556160 -0.07392927 0.92394161
v 0.00566412 -0.07387509 0.92405111
v 0.00573284 -0.07381304 0.92418051
v 0.00575728 -0.07377055 0.92427099
v 0.00379897 -0.07156678 0.92900980
v 0.00128109 -0.07160588 0.92902881
v 0.00576515 -0.07228793 0.92740703
v 0.00518639 -0.07153119 0.92898852
v 0.00576503 -0.07179710 0.92840731
v 0.00573904 -0.07171966 0.92856568
v 0.00529779 -0.07153739 0.92896718
v 0.00570018 -0.07167549 0.92865771
v 0.00564737 -0.07163711 0.92873931
v 0.00540365 -0.07155223 0.92892933
v 0.00558348 -0.07160468 0.92880970
v 0.00549937 -0.07157482 0.92887640
v 0.00542290 -0.07669540 0.91616791
v -0.00000005 -0.07687040 0.91734421
v -0.00000005 -0.07690188 0.91721058
v -0.00000005 -0.07689668 0.91705418
v -0.00000005 -0.07678892 0.91661638
v -0.00000005 -0.07676555 0.91650021
v -0.00000005 -0.07675602 0.91640049
v -0.00000005 -0.07676233 0.91629177
v 0.00000007 -0.07678856 0.91619468
v 0.01042700 -0.07655223 0.91718620
v 0.01089520 -0.07642014 0.91607600
v 0.01118023 -0.07637395 0.91613752
v 0.01068426 -0.07653005 0.91719431
v 0.01144982 -0.07631417 0.91623491
v 0.01087517 -0.07650198 0.91722840
v 0.01097912 -0.07647951 0.91726452
v 0.01175231 -0.07622226 0.91640460
v 0.01107961 -0.07645078 0.91731668
v 0.01117540 -0.07641549 0.91738582
v 0.01125300 -0.07638069 0.91745651
v 0.01198209 -0.07613088 0.91658640
v 0.01233113 -0.07592376 0.91702873
v 0.01143891 -0.07618941 0.91789991
v 0.01217491 -0.07603140 0.91679430
v 0.01149697 -0.07602830 0.91827601
v 0.01244253 -0.07581301 0.91727912
v 0.01250566 -0.07570006 0.91754383
v 0.01252902 -0.07545611 0.91813421
v 0.01153040 -0.07475431 0.92127532
v 0.01256204 -0.07400347 0.92153591
v 0.01153046 -0.07292755 0.92530727
v 0.01252789 -0.06960757 0.93069082
v 0.01152736 -0.06703968 0.93658769
v 0.01246846 -0.06778719 0.93408668
v 0.01243288 -0.06612064 0.93702501
v 0.01149947 -0.06683096 0.93695402
v 0.01236111 -0.06595834 0.93731499
v 0.01143730 -0.06666531 0.93724900
v 0.01226897 -0.06584252 0.93752772
v 0.01139415 -0.06659880 0.93736988
v 0.01215768 -0.06575175 0.93770039
v 0.01134325 -0.06654324 0.93747312
v 0.01121235 -0.06646241 0.93763149
v 0.01200301 -0.06565906 0.93788278
v 0.01182789 -0.06558533 0.93803573
v 0.01104045 -0.06642665 0.93771857
v 0.01171810 -0.06555207 0.93810928
v 0.01131344 -0.06543811 0.93836421
v 0.01153148 -0.06550796 0.93821299
v 0.01151670 -0.06548001 0.93826240
v 0.01054317 -0.06540866 0.93852800
v 0.01075435 -0.06640925 0.93778902
v 0.01081569 -0.06540133 0.93850070
v 0.00496889 -0.06664343 0.93801528
v -0.00000006 -0.06663586 0.93815958
v -0.00000005 -0.06672378 0.93805331
v -0.00000006 -0.06650873 0.93825227
v -0.00000006 -0.06609656 0.93844020
v -0.00000006 -0.06598051 0.93849969
v -0.00000006 -0.06588991 0.93856049
v 0.00000052 -0.06576349 0.93870091
v 0.01136435 -0.07631536 0.91759598
v 0.01135386 -0.07630695 0.91762269
v 0.01081437 -0.06638064 0.93783081
v 0.01106477 -0.06541021 0.93844879
v 0.01134325 -0.06654324 0.93747312
v 0.01121235 -0.06646241 0.93763149
v 0.01104045 -0.06642665 0.93771857
v 0.01139415 -0.06659880 0.93736988
v 0.01143730 -0.06666531 0.93724900
v 0.01075435 -0.06640925 0.93778902
v 0.01149947 -0.06683096 0.93695402
v 0.01152736 -0.06703968 0.93658769
v 0.00575299 -0.07037307 0.93121010
v 0.00608082 -0.07039978 0.93113029
v 0.00496889 -0.06664343 0.93801528
v 0.00520654 -0.07036300 0.93127340
v 0.00128109 -0.06893285 0.93413830
v -0.00000005 -0.06672378 0.93805331
v 0.00394822 -0.07039800 0.93129110
v 0.00128109 -0.06944205 0.93319970
v 0.01153046 -0.07292755 0.92530727
v 0.00823380 -0.07134749 0.92904782
v 0.00831587 -0.07156701 0.92859882
v 0.00128109 -0.06994487 0.93225747
v 0.00128109 -0.07044120 0.93131202
v 0.00831784 -0.07368609 0.92417133
v 0.00827301 -0.07386120 0.92379481
v 0.01153040 -0.07475431 0.92127532
v 0.00820065 -0.07399769 0.92350388
v 0.00806732 -0.07415833 0.92316580
v 0.00785942 -0.07433309 0.92280322
v 0.00759680 -0.07449539 0.92247212
v 0.00731827 -0.07462819 0.92220610
v 0.00707335 -0.07472284 0.92202032
v 0.00679548 -0.07481130 0.92185068
v 0.01149697 -0.07602830 0.91827601
v 0.00648422 -0.07489087 0.92170292
v -0.00521540 -0.07036592 0.93127441
v -0.00128119 -0.06944276 0.93320000
v -0.00128119 -0.06893362 0.93413872
v -0.00128119 -0.06994559 0.93225777
v -0.00128119 -0.07044198 0.93131232
v -0.00572317 -0.07037474 0.93121749
v 0.01117540 -0.07641549 0.91738582
v 0.01125300 -0.07638069 0.91745651
v 0.01135386 -0.07630695 0.91762269
v 0.01087517 -0.07650198 0.91722840
v 0.01097912 -0.07647951 0.91726452
v 0.01107961 -0.07645078 0.91731668
v 0.01068426 -0.07653005 0.91719431
v 0.01042700 -0.07655223 0.91718620
v 0.01143891 -0.07618941 0.91789991
v 0.00609834 -0.07496573 0.92157131
v 0.00558836 -0.07503028 0.92147231
v -0.01134704 -0.06652732 0.93751460
v -0.01107369 -0.06641723 0.93774420
v -0.01122372 -0.06646086 0.93764710
v -0.01139943 -0.06656988 0.93743372
v -0.01095079 -0.06639905 0.93779361
v -0.01144312 -0.06661572 0.93734848
v -0.01148669 -0.06668022 0.93723100
v -0.01079409 -0.06639017 0.93783158
v -0.01151495 -0.06675227 0.93710238
v -0.01154719 -0.06696697 0.93672621
v -0.00561773 -0.07162394 0.92877501
v -0.00543206 -0.07156082 0.92891657
v -0.00553327 -0.07158823 0.92885351
v -0.00531732 -0.07154246 0.92896241
v -0.00567685 -0.07166101 0.92869568
v -0.00519549 -0.07153417 0.92898840
v -0.00572871 -0.07171078 0.92859131
v -0.00374084 -0.07157047 0.92901170
v -0.00128077 -0.07384260 0.92436761
v -0.00128119 -0.07160689 0.92902941
v -0.01152413 -0.06844421 0.93410969
v -0.00688689 -0.07054807 0.93077707
v -0.00656312 -0.07047495 0.93094993
v -0.00722139 -0.07065029 0.93054497
v -0.01153080 -0.07042363 0.93039840
v -0.00755112 -0.07078679 0.93024391
v -0.00775282 -0.07089563 0.93000847
v -0.00794725 -0.07102992 0.92972249
v -0.00812822 -0.07120259 0.92936027
v -0.00822901 -0.07134350 0.92906833
v -0.00830435 -0.07152142 0.92870378
v -0.00000005 -0.07687040 0.91734421
v 0.00031602 -0.07496382 0.92188108
v -0.00013236 -0.07483758 0.92216933
v 0.00070682 -0.07503970 0.92170417
v 0.00110347 -0.07509036 0.92158222
v 0.00147695 -0.07511611 0.92151511
v 0.00194831 -0.07512452 0.92148221
v -0.00576525 -0.07504185 0.92143840
v -0.00125801 -0.07398249 0.92406273
v -0.00120096 -0.07411964 0.92376268
v -0.00108777 -0.07427938 0.92341179
v -0.00092674 -0.07443185 0.92307550
v -0.00070828 -0.07458122 0.92274398
v -0.00044333 -0.07471676 0.92244142
v -0.01153056 -0.07364382 0.92377830
v -0.00832759 -0.07318284 0.92526680
v -0.00832759 -0.07493682 0.92138779
v -0.01153110 -0.07525839 0.92012358
v -0.01152043 -0.07604672 0.91824269
v -0.01054858 -0.07654908 0.91718960
v -0.00747370 -0.07497545 0.92140818
v -0.00661956 -0.07501043 0.92142510
v -0.01150070 -0.07614955 0.91799581
v -0.01146571 -0.07621808 0.91783482
v -0.01138906 -0.07630684 0.91763133
v -0.01129352 -0.07637616 0.91747880
v -0.01076655 -0.07652916 0.91719908
v -0.01112030 -0.07645293 0.91732192
v -0.01095711 -0.07649709 0.91724330
v -0.01120530 -0.07642080 0.91738540
v 0.01039881 -0.06758554 0.93580288
v 0.00813277 -0.07120355 0.92934620
v 0.00799603 -0.07106610 0.92963421
v 0.00772388 -0.07087399 0.93004310
v 0.00750251 -0.07075937 0.93029177
v 0.00725199 -0.07065703 0.93051839
v 0.00698770 -0.07057156 0.93071169
v 0.00670243 -0.07049961 0.93087947
v 0.00639845 -0.07044210 0.93101978
v -0.00004849 -0.06830503 0.93528771
v 0.00042700 -0.06893678 0.93414211
v -0.00042712 -0.06893709 0.93414229
v -0.01049571 -0.06758554 0.93580288
v -0.00612127 -0.07040770 0.93111998
v -0.00042712 -0.06865008 0.93385518
v -0.00128119 -0.06893362 0.93413872
v -0.00128119 -0.06864674 0.93385178
v -0.00042712 -0.06893709 0.93414229
v -0.00128119 -0.06893362 0.93413872
v -0.00042712 -0.06865008 0.93385518
v 0.00042700 -0.06893678 0.93414211
v 0.00042700 -0.06864978 0.93385512
v 0.00042700 -0.06893678 0.93414211
v -0.00042712 -0.06893709 0.93414229
v -0.00042712 -0.06865008 0.93385518
v 0.00128109 -0.06893285 0.93413830
v 0.00042700 -0.06864978 0.93385512
v 0.00128109 -0.06864603 0.93385148
v 0.00128109 -0.06893285 0.93413830
v 0.00042700 -0.06893678 0.93414211
v 0.00042700 -0.06864978 0.93385512
v -0.00128119 -0.07308854 0.92510158
v -0.00128119 -0.07132395 0.92874640
v -0.00128119 -0.07160689 0.92902941
v -0.00128077 -0.07384260 0.92436761
v -0.00128119 -0.07308854 0.92510158
v -0.00128119 -0.07160689 0.92902941
v -0.00124835 -0.07373001 0.92371333
v -0.00125801 -0.07398249 0.92406273
v -0.00120096 -0.07411964 0.92376268
v -0.00116276 -0.07389946 0.92334181
v -0.00108777 -0.07427938 0.92341179
v -0.00102489 -0.07406218 0.92298323
v -0.00092674 -0.07443185 0.92307550
v -0.00083634 -0.07421596 0.92264271
v -0.00070828 -0.07458122 0.92274398
v -0.00052169 -0.07439692 0.92223912
v -0.00044333 -0.07471676 0.92244142
v -0.00023419 -0.07451786 0.92196691
v -0.00013236 -0.07483758 0.92216933
v 0.00009000 -0.07462229 0.92172968
v 0.00031602 -0.07496382 0.92188108
v 0.00043914 -0.07470676 0.92153490
v 0.00070682 -0.07503970 0.92170417
v 0.00081342 -0.07477178 0.92138177
v 0.00110347 -0.07509036 0.92158222
v 0.00119198 -0.07481445 0.92127728
v 0.00147695 -0.07511611 0.92151511
v 0.00154884 -0.07483520 0.92122149
v 0.00194831 -0.07512452 0.92148221
v 0.00201304 -0.07484008 0.92119622
v 0.00530870 -0.07476504 0.92116952
v 0.00558836 -0.07503028 0.92147231
v 0.00587780 -0.07471313 0.92123562
v 0.00609834 -0.07496573 0.92157131
v 0.00635649 -0.07463373 0.92136878
v 0.00648422 -0.07489087 0.92170292
v 0.00674529 -0.07454087 0.92153960
v 0.00679548 -0.07481130 0.92185068
v 0.00707335 -0.07472284 0.92202032
v 0.00717551 -0.07440122 0.92180878
v 0.00731827 -0.07462819 0.92220610
v 0.00747628 -0.07427260 0.92206442
v 0.00759680 -0.07449539 0.92247212
v 0.00770844 -0.07414801 0.92231679
v 0.00785942 -0.07433309 0.92280322
v 0.00790675 -0.07401438 0.92259163
v 0.00806732 -0.07415833 0.92316580
v 0.00806935 -0.07387282 0.92288661
v 0.00819344 -0.07372566 0.92319691
v 0.00820065 -0.07399769 0.92350388
v 0.00827737 -0.07357509 0.92351788
v 0.00827301 -0.07386120 0.92379481
v 0.00832088 -0.07342257 0.92384648
v 0.00831784 -0.07368609 0.92417133
v 0.00832743 -0.07153834 0.92781031
v 0.00831587 -0.07156701 0.92859882
v 0.00829394 -0.07120897 0.92847872
v 0.00823380 -0.07134749 0.92904782
v 0.00818152 -0.07098635 0.92893642
v 0.00813277 -0.07120355 0.92934620
v 0.00797678 -0.07076974 0.92938900
v 0.00799603 -0.07106610 0.92963421
v 0.00776453 -0.07061841 0.92971081
v 0.00772388 -0.07087399 0.93004310
v 0.00750763 -0.07048167 0.93000650
v 0.00750251 -0.07075937 0.93029177
v 0.00725199 -0.07065703 0.93051839
v 0.00720991 -0.07036157 0.93027151
v 0.00698770 -0.07057156 0.93071169
v 0.00687892 -0.07026114 0.93049949
v 0.00670243 -0.07049961 0.93087947
v 0.00651778 -0.07018144 0.93068790
v 0.00639845 -0.07044210 0.93101978
v 0.00613243 -0.07012405 0.93083328
v 0.00608082 -0.07039978 0.93113029
v 0.00560672 -0.07008447 0.93095338
v 0.00575299 -0.07037307 0.93121010
v 0.00520654 -0.07036300 0.93127340
v 0.00416441 -0.07010956 0.93100572
v 0.00394822 -0.07039800 0.93129110
v 0.00128109 -0.07015701 0.93102783
v 0.00128109 -0.07044120 0.93131202
v -0.00832759 -0.07302584 0.92471802
v -0.00832759 -0.07465161 0.92110252
v -0.00747370 -0.07469042 0.92112321
v -0.00661956 -0.07472564 0.92114031
v -0.00576525 -0.07475723 0.92115378
v -0.00576501 -0.07151593 0.92813241
v -0.00829552 -0.07121421 0.92847967
v -0.00574397 -0.07145144 0.92826420
v -0.00804799 -0.07083805 0.92925751
v -0.00821279 -0.07103784 0.92884201
v -0.00569199 -0.07139172 0.92838871
v -0.00780838 -0.07065024 0.92965460
v -0.00561200 -0.07133962 0.92849988
v -0.00749527 -0.07048030 0.93002111
v -0.00551175 -0.07129975 0.92858779
v -0.00716566 -0.07035054 0.93030763
v -0.00681924 -0.07025017 0.93053621
v -0.00541978 -0.07127674 0.92864120
v -0.00646834 -0.07017644 0.93071133
v -0.00528215 -0.07125738 0.92869037
v 0.00141186 -0.07369883 0.92377621
v -0.00083634 -0.07421596 0.92264271
v -0.00052169 -0.07439692 0.92223912
v -0.00023419 -0.07451786 0.92196691
v 0.00154317 -0.07375164 0.92365718
v 0.00009000 -0.07462229 0.92172968
v 0.00043914 -0.07470676 0.92153490
v 0.00132037 -0.07362910 0.92393082
v -0.00116276 -0.07389946 0.92334181
v -0.00102489 -0.07406218 0.92298323
v 0.00171793 -0.07378776 0.92357308
v 0.00081342 -0.07477178 0.92138177
v 0.00119198 -0.07481445 0.92127728
v 0.00154884 -0.07483520 0.92122149
v 0.00129009 -0.07357951 0.92403972
v -0.00124835 -0.07373001 0.92371333
v 0.00191308 -0.07380016 0.92354012
v 0.00201304 -0.07484008 0.92119622
v 0.00128109 -0.07342251 0.92438102
v -0.00128119 -0.07308854 0.92510158
v -0.00604706 -0.07011820 0.93086028
v -0.00558482 -0.07008691 0.93095797
v -0.00513266 -0.07125212 0.92871201
v -0.00323795 -0.07129838 0.92873430
v 0.00493682 -0.07374045 0.92350572
v 0.00530870 -0.07476504 0.92116952
v 0.00522001 -0.07372625 0.92351383
v 0.00587780 -0.07471313 0.92123562
v 0.00536675 -0.07370468 0.92354912
v 0.00635649 -0.07463373 0.92136878
v 0.00674529 -0.07454087 0.92153960
v 0.00549335 -0.07367189 0.92360997
v 0.00717551 -0.07440122 0.92180878
v 0.00558485 -0.07363667 0.92367941
v 0.00747628 -0.07427260 0.92206442
v 0.00770844 -0.07414801 0.92231679
v 0.00567634 -0.07358404 0.92378652
v 0.00128109 -0.07132317 0.92874610
v -0.00128119 -0.07132395 0.92874640
v -0.00128119 -0.07015778 0.93102813
v 0.00790675 -0.07401438 0.92259163
v 0.00806935 -0.07387282 0.92288661
v 0.00573702 -0.07352509 0.92390990
v 0.00819344 -0.07372566 0.92319691
v 0.00827737 -0.07357509 0.92351788
v 0.00576515 -0.07344575 0.92408037
v 0.00832088 -0.07342257 0.92384648
v 0.00576515 -0.07231392 0.92648882
v 0.00128109 -0.07015701 0.93102783
v -0.00128119 -0.06966062 0.93197292
v 0.00388486 -0.07128270 0.92872679
v 0.00128109 -0.06965996 0.93197250
v -0.00128119 -0.06915702 0.93291408
v -0.00042712 -0.06865008 0.93385518
v -0.00128119 -0.06864674 0.93385178
v 0.00128109 -0.06915619 0.93291378
v 0.00042700 -0.06864978 0.93385512
v 0.00416441 -0.07010956 0.93100572
v 0.00518854 -0.07124932 0.92870629
v 0.00128109 -0.06864603 0.93385148
v 0.00832743 -0.07153834 0.92781031
v 0.00576515 -0.07153614 0.92808318
v 0.00829394 -0.07120897 0.92847872
v 0.00575382 -0.07146521 0.92822742
v 0.00560672 -0.07008447 0.93095338
v 0.00529702 -0.07125546 0.92868561
v 0.00818152 -0.07098635 0.92893642
v 0.00568892 -0.07138415 0.92839599
v 0.00613243 -0.07012405 0.93083328
v 0.00651778 -0.07018144 0.93068790
v 0.00540049 -0.07126971 0.92864883
v 0.00797678 -0.07076974 0.92938900
v 0.00687892 -0.07026114 0.93049949
v 0.00549431 -0.07129146 0.92859781
v 0.00776453 -0.07061841 0.92971081
v 0.00557722 -0.07132013 0.92853361
v 0.00720991 -0.07036157 0.93027151
v 0.00750763 -0.07048167 0.93000650
f 1 2 3
f 1 3 4
f 1 4 5
f 1 5 6
f 1 6 7
f 1 7 8
f 9 1 10
f 9 2 1
f 11 9 10
f 12 9 11
f 13 9 12
f 14 15 9
f 14 9 13
f 16 15 14
f 16 17 15
f 18 19 17
f 18 17 16
f 20 19 18
f 20 21 19
f 20 22 21
f 23 22 20
f 23 24 25
f 23 26 24
f 23 25 22
f 27 26 23
f 27 28 26
f 29 28 27
f 30 29 27
f 31 30 27
f 31 32 30
f 33 32 31
f 34 32 33
f 35 34 33
f 35 36 34
f 37 36 35
f 38 36 37
f 39 36 38
f 39 40 36
f 41 42 40
f 41 43 42
f 41 40 39
f 44 43 41
f 44 45 43
f 46 47 48
f 49 48 50
f 49 46 48
f 51 52 45
f 51 53 52
f 51 45 44
f 54 49 50
f 54 50 53
f 55 54 53
f 55 53 51
f 56 54 55
f 57 56 55
f 58 56 57
f 59 58 57
f 60 61 62
f 60 63 61
f 64 65 63
f 64 66 65
f 64 63 60
f 67 68 66
f 67 69 68
f 67 66 64
f 70 69 67
f 71 70 67
f 72 71 67
f 73 72 67
f 74 73 67
f 75 74 67
f 76 75 67
f 77 76 67
f 78 79 80
f 78 81 79
f 82 78 80
f 83 82 80
f 84 80 85
f 84 85 86
f 84 83 80
f 87 86 88
f 87 84 86
f 89 88 90
f 89 87 88
f 91 90 92
f 91 92 93
f 91 89 90
f 94 91 93
f 95 94 93
f 96 94 95
f 97 96 95
f 98 96 97
f 99 100 101
f 102 103 104
f 105 106 107
f 108 109 110
f 111 112 113
f 114 115 116
f 117 118 119
f 120 117 121
f 120 118 117
f 122 121 123
f 122 120 121
f 124 123 125
f 124 122 123
f 126 125 127
f 126 124 125
f 128 126 127
f 129 126 128
f 130 129 128
f 131 129 130
f 132 131 130
f 133 132 134
f 133 131 132
f 135 134 136
f 135 133 134
f 137 136 138
f 137 135 136
f 139 137 138
f 140 137 139
f 141 140 139
f 142 140 141
f 143 144 145
f 146 144 143
f 147 148 149
f 147 149 150
f 151 150 152
f 151 147 150
f 153 152 154
f 153 151 152
f 155 156 157
f 158 156 155
f 159 158 155
f 160 161 162
f 160 163 161
f 164 162 165
f 164 160 162
f 166 164 165
f 167 165 168
f 167 166 165
f 169 167 168
f 170 168 171
f 170 169 168
f 172 171 173
f 172 170 171
f 174 173 175
f 174 175 176
f 174 172 173
f 177 174 176
f 178 177 176
f 179 177 178
f 180 179 178
f 181 179 180
f 182 183 184
f 185 182 184
f 186 182 187
f 188 187 189
f 188 186 187
f 190 189 191
f 190 188 189
f 192 191 193
f 192 190 191
f 194 193 195
f 194 192 193
f 196 195 197
f 196 194 195
f 198 197 199
f 198 196 197
f 200 198 199
f 201 200 199
f 202 201 199
f 203 202 204
f 203 201 202
f 205 204 206
f 205 203 204
f 207 206 208
f 207 205 206
f 209 208 210
f 209 207 208
f 211 210 212
f 211 209 210
f 213 212 214
f 213 211 212
f 215 213 214
f 215 214 216
f 217 215 216
f 218 219 220
f 221 219 218
f 222 218 223
f 222 221 218
f 224 222 223
f 225 222 224
f 226 227 225
f 226 225 224
f 228 226 229
f 228 229 230
f 228 230 231
f 228 231 232
f 228 232 233
f 228 233 234
f 228 234 235
f 236 237 227
f 238 227 226
f 238 226 228
f 238 236 227
f 239 238 240
f 239 236 238
f 241 242 239
f 241 239 240
f 243 242 241
f 244 245 242
f 244 242 243
f 246 247 245
f 246 245 244
f 248 249 250
f 248 250 251
f 248 251 252
f 248 252 253
f 248 253 254
f 248 254 255
f 248 255 256
f 257 249 248
f 258 257 248
f 259 260 257
f 259 257 258
f 261 262 260
f 261 263 262
f 261 260 259
f 264 263 261
f 264 265 263
f 264 266 265
f 264 267 266
f 268 267 264
f 269 270 271
f 269 272 270
f 273 272 269
f 274 272 273
f 275 272 274
f 276 272 275
f 277 276 275
f 278 276 277
f 279 278 277
f 280 278 279
f 280 279 281
f 282 283 280
f 282 280 281
f 284 285 283
f 284 283 282
f 286 287 285
f 286 285 284
f 288 289 287
f 288 290 289
f 288 287 286
f 291 290 288
f 292 293 290
f 292 290 291
f 294 293 292
f 295 296 297
f 298 299 300
f 301 299 298
f 302 303 301
f 304 302 301
f 305 304 301
f 306 305 301
f 307 306 301
f 308 301 298
f 308 307 301
f 309 267 268
f 309 271 270
f 309 310 267
f 309 270 310
f 309 268 271
f 311 299 293
f 311 294 296
f 311 312 300
f 311 295 312
f 311 293 294
f 311 296 295
f 311 300 299
f 313 314 315
f 316 313 315
f 317 315 318
f 317 316 315
f 319 317 318
f 320 319 318
f 321 322 323
f 324 321 323
f 325 323 326
f 325 324 323
f 327 324 325
f 328 327 325
f 329 330 331
f 332 327 328
f 333 327 332
f 334 329 331
f 335 329 334
f 336 329 335
f 337 336 335
f 338 336 337
f 339 336 338
f 340 336 339
f 341 336 340
f 342 336 341
f 343 336 342
f 344 336 343
f 345 344 343
f 346 347 348
f 346 349 347
f 346 350 349
f 351 346 348
f 352 353 354
f 355 356 357
f 358 357 352
f 358 352 354
f 358 355 357
f 359 354 360
f 359 360 344
f 359 344 345
f 359 358 354
f 359 361 362
f 359 345 361
f 363 364 365
f 366 367 364
f 366 364 363
f 368 367 366
f 369 370 367
f 369 367 368
f 371 370 369
f 372 370 371
f 373 374 375
f 373 376 374
f 377 378 376
f 377 376 373
f 379 380 378
f 379 378 377
f 381 382 380
f 381 380 379
f 383 384 385
f 383 386 384
f 387 388 386
f 387 389 388
f 387 390 389
f 387 391 390
f 387 392 391
f 387 393 392
f 387 386 383
f 394 359 362
f 394 395 396
f 394 397 395
f 394 398 397
f 394 399 398
f 394 400 399
f 394 362 400
f 401 394 396
f 401 402 381
f 401 403 402
f 401 404 403
f 401 405 404
f 401 406 405
f 401 407 406
f 401 396 407
f 408 409 393
f 408 410 409
f 408 393 387
f 411 410 408
f 412 410 411
f 413 414 410
f 413 415 414
f 413 401 415
f 413 394 401
f 413 412 416
f 413 410 412
f 417 413 416
f 418 413 417
f 419 420 413
f 419 413 418
f 421 422 420
f 423 420 419
f 423 421 420
f 379 401 381
f 424 329 320
f 424 318 323
f 424 320 318
f 424 323 322
f 424 330 329
f 424 425 330
f 424 426 425
f 424 427 426
f 424 428 427
f 424 429 428
f 424 430 429
f 424 431 430
f 424 432 431
f 424 322 432
f 433 325 326
f 433 434 325
f 433 435 434
f 433 348 435
f 433 326 348
f 436 437 351
f 436 385 437
f 436 326 370
f 436 372 383
f 436 351 348
f 436 370 372
f 436 348 326
f 436 383 385
f 438 439 440
f 441 442 443
f 444 443 445
f 446 447 448
f 449 450 451
f 452 453 454
f 455 456 457
f 458 459 460
f 461 459 458
f 462 461 458
f 463 464 461
f 463 461 462
f 465 466 464
f 465 464 463
f 467 466 465
f 467 468 466
f 469 470 468
f 469 468 467
f 471 472 470
f 471 470 469
f 473 474 472
f 473 472 471
f 475 476 474
f 475 474 473
f 477 478 476
f 477 476 475
f 479 480 478
f 479 478 477
f 481 482 480
f 481 480 479
f 483 484 482
f 483 482 481
f 485 484 483
f 486 487 485
f 486 485 483
f 488 489 487
f 488 487 486
f 490 491 489
f 490 489 488
f 492 491 490
f 493 494 491
f 493 491 492
f 495 496 494
f 495 494 493
f 497 498 496
f 497 496 495
f 499 500 498
f 499 498 497
f 501 502 500
f 501 503 502
f 501 500 499
f 504 505 503
f 504 503 501
f 506 507 505
f 506 505 504
f 508 507 506
f 509 507 508
f 510 511 509
f 510 509 508
f 512 513 511
f 512 511 510
f 514 515 513
f 514 513 512
f 516 515 514
f 517 515 516
f 518 519 517
f 518 517 516
f 520 519 518
f 521 519 520
f 521 522 519
f 523 522 521
f 523 524 522
f 525 524 523
f 525 526 524
f 527 526 525
f 527 528 526
f 529 528 527
f 529 530 528
f 531 530 529
f 532 530 531
f 533 530 532
f 534 533 532
f 535 533 534
f 536 535 534
f 537 538 539
f 537 539 540
f 537 540 541
f 542 543 537
f 544 543 542
f 544 545 546
f 544 546 543
f 547 548 545
f 547 545 544
f 549 550 548
f 549 548 547
f 551 550 549
f 552 550 551
f 553 551 554
f 553 552 551
f 555 554 556
f 555 553 554
f 557 558 559
f 557 559 560
f 561 557 560
f 561 560 562
f 561 562 563
f 564 565 566
f 564 566 558
f 564 558 557
f 567 561 563
f 567 563 568
f 567 568 569
f 567 569 570
f 571 565 564
f 571 572 565
f 573 570 574
f 573 567 570
f 575 576 572
f 575 572 571
f 577 555 556
f 578 556 579
f 578 579 580
f 578 577 556
f 581 573 574
f 581 574 582
f 583 582 584
f 583 581 582
f 585 584 586
f 585 586 587
f 585 583 584
f 588 585 587
f 588 587 589
f 590 588 589
f 591 590 589
f 592 590 591
f 592 593 590
f 594 595 576
f 594 576 575
f 596 580 595
f 596 595 594
f 596 578 580
f 597 593 592
f 598 593 597
f 598 599 593
f 600 599 598
f 601 599 600
f 601 602 599
f 603 602 601
f 604 602 603
f 605 606 596
f 605 596 594
f 607 605 594
f 608 609 606
f 608 606 605
f 610 611 609
f 612 610 609
f 612 609 608
f 613 610 612
f 614 605 607
f 614 607 615
f 616 613 612
f 617 604 603
f 617 618 604
f 619 618 617
f 619 620 618
f 621 614 615
f 621 615 622
f 623 620 619
f 623 624 620
f 625 621 622
f 626 622 627
f 626 625 622
f 628 624 623
f 629 627 630
f 629 626 627
f 631 632 624
f 631 624 628
f 633 630 632
f 633 629 630
f 634 632 631
f 634 633 632
f 541 542 537

