# https://github.com/mikedh/trimesh
v 0.01580196 -0.08961749 -0.12200000
v -0.00000000 -0.09099996 -0.12200000
v -0.00000000 -0.09099996 -0.13500001
v 0.01580196 -0.08961749 -0.13500001
v 0.03112381 -0.08551198 -0.12200000
v 0.03112381 -0.08551198 -0.13500001
v 0.04549998 -0.07880830 -0.13500001
v 0.04549998 -0.07880830 -0.12200000
v 0.05849367 -0.06971001 -0.12200000
v 0.05849367 -0.06971001 -0.13499990
v 0.06971001 -0.05849367 -0.13499990
v 0.06971001 -0.05849367 -0.12200000
v 0.07880830 -0.04549998 -0.13499990
v 0.07880830 -0.04549998 -0.12200000
v 0.08551204 -0.03112381 -0.12200000
v 0.08551204 -0.03112381 -0.13499990
v 0.08961749 -0.01580196 -0.12200000
v 0.08961749 -0.01580196 -0.13499990
v 0.09099996 -0.00000000 -0.12200000
v 0.09099996 -0.00000000 -0.13499990
v 0.08961749 0.01580196 -0.12200000
v 0.08961749 0.01580196 -0.13499990
v 0.08551204 0.03112381 -0.12200000
v 0.08551204 0.03112381 -0.13499990
v 0.07880830 0.04549998 -0.12200000
v 0.07880830 0.04549998 -0.13499990
v 0.06971001 0.05849367 -0.12200000
v 0.06971001 0.05849367 -0.13499990
v 0.05849367 0.06971001 -0.12200000
v 0.05849367 0.06971001 -0.13499990
v 0.04549998 0.07880830 -0.12200000
v 0.04549998 0.07880830 -0.13500001
v 0.03112381 0.08551198 -0.12200000
v 0.03112381 0.08551198 -0.13500001
v 0.01580196 0.08961749 -0.12200000
v 0.01580196 0.08961749 -0.13500001
v 0.00000000 0.09099996 -0.12200000
v 0.00000000 0.09099996 -0.13500001
v -0.01580196 0.08961749 -0.12200000
v -0.01580196 0.08961749 -0.13500001
v -0.03112381 0.08551198 -0.12200000
v -0.03112381 0.08551198 -0.13500001
v -0.04549998 0.07880830 -0.12200000
v -0.04549998 0.07880830 -0.13500001
v -0.05849367 0.06971001 -0.12200000
v -0.05849367 0.06971001 -0.13500001
v -0.06971001 0.05849367 -0.12200000
v -0.06971001 0.05849367 -0.13500001
v -0.07880830 0.04549998 -0.12200000
v -0.07880830 0.04549998 -0.13500001
v -0.08551204 0.03112381 -0.12200000
v -0.08551204 0.03112381 -0.13500001
v -0.08961749 0.01580196 -0.12200000
v -0.08961749 0.01580196 -0.13500001
v -0.09099996 0.00000000 -0.12200000
v -0.09099996 0.00000000 -0.13500001
v -0.08961749 -0.01580196 -0.12200000
v -0.08961749 -0.01580196 -0.13500001
v -0.08551204 -0.03112381 -0.12200000
v -0.08551204 -0.03112381 -0.13500001
v -0.07880830 -0.04549998 -0.12200000
v -0.07880830 -0.04549998 -0.13500001
v -0.06971001 -0.05849367 -0.12200000
v -0.06971001 -0.05849367 -0.13500001
v -0.05849367 -0.06971001 -0.12200000
v -0.05849367 -0.06971001 -0.13500001
v -0.04549998 -0.07880830 -0.12200000
v -0.04549998 -0.07880830 -0.13500001
v -0.03112381 -0.08551198 -0.12200000
v -0.03112381 -0.08551198 -0.13500001
v -0.01580196 -0.08961749 -0.12200000
v -0.01580196 -0.08961749 -0.13500001
v -0.00000000 -0.09099996 -0.12200000
v -0.00000000 -0.09099996 -0.13500001
v 0.07880830 0.04549998 -0.12200000
v 0.06971001 0.05849367 -0.12200000
v 0.05849367 0.06971001 -0.12200000
v 0.03112381 0.08551198 -0.12200000
v 0.04549998 0.07880830 -0.12200000
v 0.08961749 0.01580196 -0.12200000
v 0.08551204 0.03112381 -0.12200000
v 0.00000000 0.09099996 -0.12200000
v 0.03112381 0.08551198 -0.12200000
v 0.01580196 0.08961749 -0.12200000
v 0.09099996 -0.00000000 -0.12200000
v 0.08551204 -0.03112381 -0.12200000
v 0.08961749 -0.01580196 -0.12200000
v -0.04549998 0.07880830 -0.12200000
v -0.01580196 0.08961749 -0.12200000
v -0.03112381 0.08551198 -0.12200000
v 0.06971001 -0.05849367 -0.12200000
v 0.07880830 -0.04549998 -0.12200000
v -0.06971001 0.05849367 -0.12200000
v -0.04549998 0.07880830 -0.12200000
v -0.05849367 0.06971001 -0.12200000
v 0.05849367 -0.06971001 -0.12200000
v -0.07880830 0.04549998 -0.12200000
v 0.03112381 -0.08551198 -0.12200000
v 0.04549998 -0.07880830 -0.12200000
v 0.01580196 -0.08961749 -0.12200000
v -0.09099996 0.00000000 -0.12200000
v -0.08551204 0.03112381 -0.12200000
v -0.08961749 0.01580196 -0.12200000
v -0.08961749 -0.01580196 -0.12200000
v -0.01580196 -0.08961749 -0.12200000
v -0.00000000 -0.09099996 -0.12200000
v -0.03112381 -0.08551198 -0.12200000
v -0.07880830 -0.04549998 -0.12200000
v -0.08551204 -0.03112381 -0.12200000
v -0.04549998 -0.07880830 -0.12200000
v -0.06971001 -0.05849367 -0.12200000
v -0.05849367 -0.06971001 -0.12200000
v 0.07880830 0.04549998 -0.13499990
v 0.05849367 0.06971001 -0.13499990
v 0.06971001 0.05849367 -0.13499990
v 0.03112381 0.08551198 -0.13500001
v 0.04549998 0.07880830 -0.13500001
v 0.08961749 0.01580196 -0.13499990
v 0.08551204 0.03112381 -0.13499990
v 0.00000000 0.09099996 -0.13500001
v 0.01580196 0.08961749 -0.13500001
v 0.03112381 0.08551198 -0.13500001
v 0.09099996 -0.00000000 -0.13499990
v 0.08551204 -0.03112381 -0.13499990
v 0.08961749 -0.01580196 -0.13499990
v -0.04549998 0.07880830 -0.13500001
v -0.03112381 0.08551198 -0.13500001
v -0.01580196 0.08961749 -0.13500001
v 0.06971001 -0.05849367 -0.13499990
v 0.07880830 -0.04549998 -0.13499990
v -0.06971001 0.05849367 -0.13500001
v -0.05849367 0.06971001 -0.13500001
v -0.04549998 0.07880830 -0.13500001
v 0.05849367 -0.06971001 -0.13499990
v -0.07880830 0.04549998 -0.13500001
v 0.03112381 -0.08551198 -0.13500001
v 0.05849367 -0.06971001 -0.13499990
v 0.04549998 -0.07880830 -0.13500001
v 0.01580196 -0.08961749 -0.13500001
v -0.09099996 0.00000000 -0.13500001
v -0.08961749 0.01580196 -0.13500001
v -0.08551204 0.03112381 -0.13500001
v -0.08961749 -0.01580196 -0.13500001
v -0.01580196 -0.08961749 -0.13500001
v 0.01580196 -0.08961749 -0.13500001
v -0.00000000 -0.09099996 -0.13500001
v -0.03112381 -0.08551198 -0.13500001
v -0.01580196 -0.08961749 -0.13500001
v -0.07880830 -0.04549998 -0.13500001
v -0.08551204 -0.03112381 -0.13500001
v -0.04549998 -0.07880830 -0.13500001
v -0.03112381 -0.08551198 -0.13500001
v -0.06971001 -0.05849367 -0.13500001
v -0.05849367 -0.06971001 -0.13500001
f 1 2 3
f 1 3 4
f 5 4 6
f 5 6 7
f 5 1 4
f 8 5 7
f 9 7 10
f 9 10 11
f 9 8 7
f 12 11 13
f 12 9 11
f 14 12 13
f 15 14 13
f 15 13 16
f 17 15 16
f 17 16 18
f 19 17 18
f 19 18 20
f 21 19 20
f 21 20 22
f 23 21 22
f 23 22 24
f 25 23 24
f 25 24 26
f 27 25 26
f 27 26 28
f 29 27 28
f 29 28 30
f 31 29 30
f 31 30 32
f 33 31 32
f 33 32 34
f 35 33 34
f 35 34 36
f 37 35 36
f 37 36 38
f 39 38 40
f 39 37 38
f 41 40 42
f 41 39 40
f 43 42 44
f 43 41 42
f 45 44 46
f 45 43 44
f 47 46 48
f 47 45 46
f 49 48 50
f 49 47 48
f 51 50 52
f 51 49 50
f 53 52 54
f 53 51 52
f 55 54 56
f 55 53 54
f 57 56 58
f 57 55 56
f 59 58 60
f 59 57 58
f 61 60 62
f 61 59 60
f 63 61 62
f 63 62 64
f 65 63 64
f 65 64 66
f 67 65 66
f 67 66 68
f 69 67 68
f 69 68 70
f 71 69 70
f 71 70 72
f 73 71 72
f 73 72 74
f 75 76 77
f 78 77 79
f 80 81 75
f 82 83 84
f 85 75 77
f 85 77 83
f 85 80 75
f 85 83 82
f 86 87 85
f 88 89 90
f 91 92 86
f 93 94 95
f 96 91 86
f 96 86 85
f 97 82 89
f 97 89 94
f 97 94 93
f 98 99 96
f 100 98 96
f 101 102 103
f 104 102 101
f 105 106 100
f 107 105 100
f 108 97 102
f 108 104 109
f 108 102 104
f 110 107 100
f 111 110 100
f 111 85 82
f 111 82 97
f 111 96 85
f 111 100 96
f 111 97 108
f 112 110 111
f 113 114 115
f 116 117 114
f 118 113 119
f 120 121 122
f 123 114 113
f 123 122 114
f 123 113 118
f 123 120 122
f 124 123 125
f 126 127 128
f 129 124 130
f 131 132 133
f 134 124 129
f 134 123 124
f 135 128 120
f 135 133 128
f 135 131 133
f 136 137 138
f 139 137 136
f 140 141 142
f 143 140 142
f 144 145 146
f 147 139 148
f 149 142 135
f 149 150 143
f 149 143 142
f 151 145 152
f 153 139 151
f 153 120 123
f 153 135 120
f 153 123 134
f 153 134 139
f 153 149 135
f 154 153 151

