# https://github.com/mikedh/trimesh
v -0.00947194 0.09899989 0.95990342
v 0.05129093 0.09899995 0.94040293
v 0.06013233 0.09900001 0.93065453
v 0.04089106 0.09899989 0.94846767
v -0.00947194 0.09899989 0.95990342
v 0.02924878 0.09899989 0.95460421
v 0.01671774 0.09899989 0.95862579
v -0.00947194 0.09899989 0.95990342
v 0.00367881 0.09899995 0.96041018
v 0.01671774 0.09899989 0.95862579
v 0.07490343 0.09899995 0.89447188
v 0.06714660 0.09899989 0.91951913
v 0.07212067 0.09899995 0.90733480
v 0.07490343 0.09899995 0.89447188
v 0.06013233 0.09900001 0.93065453
v 0.06714660 0.09899989 0.91951913
v -0.03451918 0.09899989 0.95214659
v -0.02233486 0.09899989 0.95712072
v 0.06960422 0.09899990 0.85575098
v 0.07541025 0.09900007 0.88132101
v 0.07362574 0.09899995 0.86828202
v -0.05540298 0.09900001 0.93629092
v -0.04565470 0.09899995 0.94513232
v -0.03451918 0.09899989 0.95214659
v -0.06346785 0.09899995 0.92589110
v 0.06013233 0.09900001 0.93065453
v -0.06346785 0.09899995 0.92589110
v -0.05540298 0.09900001 0.93629092
v -0.00947194 0.09899989 0.95990342
v 0.05540287 0.09899995 0.83370900
v 0.06960422 0.09899990 0.85575098
v 0.06346775 0.09899995 0.84410882
v 0.07490343 0.09899995 0.89447188
v 0.07541025 0.09900007 0.88132101
v 0.05540287 0.09899995 0.83370900
v 0.07490343 0.09899995 0.89447188
v 0.05540287 0.09899995 0.83370900
v 0.07541025 0.09900007 0.88132101
v 0.06960422 0.09899990 0.85575098
v 0.03451907 0.09899995 0.81785321
v 0.05540287 0.09899995 0.83370900
v 0.04565459 0.09899995 0.82486761
v -0.07541035 0.09900001 0.88867879
v -0.06960432 0.09900001 0.91424882
v -0.06346785 0.09899995 0.92589110
v -0.07541035 0.09900001 0.88867879
v -0.07362586 0.09899995 0.90171772
v -0.06960432 0.09900001 0.91424882
v -0.07541035 0.09900001 0.88867879
v 0.02233475 0.09900001 0.81287920
v 0.05540287 0.09899995 0.83370900
v 0.03451907 0.09899995 0.81785321
v -0.06714670 0.09899995 0.85048068
v -0.07490353 0.09899995 0.87552798
v -0.07541035 0.09900001 0.88867879
v -0.06714670 0.09899995 0.85048068
v -0.07212077 0.09900001 0.86266512
v -0.07490353 0.09899995 0.87552798
v -0.01671785 0.09899995 0.81137413
v 0.02233475 0.09900001 0.81287920
v 0.00947184 0.09900001 0.81009638
v -0.01671785 0.09899995 0.81137413
v 0.00947184 0.09900001 0.81009638
v -0.00367886 0.09900002 0.80958962
v -0.06013238 0.09899995 0.83934528
v -0.06714670 0.09899995 0.85048068
v -0.02924889 0.09900001 0.81539559
v 0.02233475 0.09900001 0.81287920
v -0.01671785 0.09899995 0.81137413
v -0.05129104 0.09899995 0.82959688
v -0.04089117 0.09900001 0.82153207
v -0.04089117 0.09900001 0.82153207
v -0.02924889 0.09900001 0.81539559
v 0.01671774 0.09099994 0.95862579
v 0.06013233 0.09100000 0.93065453
v 0.05129093 0.09099994 0.94040293
v 0.01671774 0.09099994 0.95862579
v 0.05129093 0.09099994 0.94040293
v 0.04089106 0.09099994 0.94846767
v 0.01671774 0.09099994 0.95862579
v 0.04089106 0.09099994 0.94846767
v 0.02924878 0.09100000 0.95460421
v -0.00947194 0.09100000 0.95990342
v 0.01671774 0.09099994 0.95862579
v 0.00367881 0.09099988 0.96041018
v 0.07490343 0.09099995 0.89447188
v 0.07212067 0.09099994 0.90733480
v 0.06714660 0.09099994 0.91951913
v 0.07490343 0.09099995 0.89447188
v 0.06714660 0.09099994 0.91951913
v 0.06013233 0.09100000 0.93065453
v -0.04565470 0.09100000 0.94513232
v -0.00947194 0.09100000 0.95990342
v -0.02233486 0.09099994 0.95712072
v -0.03451918 0.09099994 0.95214671
v -0.06346785 0.09100000 0.92589110
v -0.04565470 0.09100000 0.94513232
v -0.05540298 0.09100000 0.93629092
v 0.05540287 0.09099995 0.83370888
v 0.06346775 0.09099995 0.84410870
v 0.06960422 0.09099995 0.85575098
v 0.05540287 0.09099995 0.83370888
v 0.06960422 0.09099995 0.85575098
v 0.07362574 0.09100001 0.86828202
v 0.07362574 0.09100001 0.86828202
v 0.07541025 0.09099995 0.88132101
v 0.07490343 0.09099995 0.89447188
v 0.06013233 0.09100000 0.93065453
v -0.07541035 0.09099995 0.88867879
v -0.06346785 0.09100000 0.92589110
v -0.06960432 0.09100005 0.91424882
v -0.07541035 0.09099995 0.88867879
v -0.06960432 0.09100005 0.91424882
v -0.07362586 0.09099994 0.90171772
v 0.00947184 0.09100001 0.81009638
v 0.02233475 0.09099995 0.81287920
v 0.03451907 0.09099995 0.81785321
v 0.00947184 0.09100001 0.81009638
v 0.03451907 0.09099995 0.81785321
v 0.04565459 0.09100001 0.82486749
v 0.00947184 0.09100001 0.81009638
v 0.04565459 0.09100001 0.82486749
v 0.05540287 0.09099995 0.83370888
v -0.06714670 0.09100001 0.85048068
v -0.07490353 0.09099995 0.87552798
v -0.07212077 0.09100001 0.86266512
v -0.01671785 0.09100001 0.81137413
v -0.00367886 0.09100001 0.80958962
v 0.00947184 0.09100001 0.81009638
v -0.06013238 0.09099995 0.83934528
v -0.07541035 0.09099995 0.88867879
v -0.07490353 0.09099995 0.87552798
v -0.06346785 0.09100000 0.92589110
v -0.04565470 0.09100000 0.94513232
v -0.05129104 0.09099995 0.82959700
v -0.00947194 0.09100000 0.95990342
v -0.04089117 0.09099995 0.82153207
v -0.01671785 0.09100001 0.81137413
v -0.04089117 0.09099995 0.82153207
v -0.02924889 0.09100001 0.81539559
v -0.01671785 0.09100001 0.81137413
v 0.02233475 0.09099995 0.81287920
v 0.00947184 0.09100001 0.81009638
v 0.00947184 0.09900001 0.81009638
v 0.02233475 0.09900001 0.81287920
v 0.03451907 0.09099995 0.81785321
v 0.03451907 0.09899995 0.81785321
v 0.04565459 0.09100001 0.82486749
v 0.04565459 0.09899995 0.82486761
v 0.05540287 0.09099995 0.83370888
v 0.05540287 0.09899995 0.83370900
v 0.06346775 0.09099995 0.84410870
v 0.06346775 0.09899995 0.84410882
v 0.06960422 0.09099995 0.85575098
v 0.06960422 0.09899990 0.85575098
v 0.07362574 0.09899995 0.86828202
v 0.07362574 0.09100001 0.86828202
v 0.07541025 0.09099995 0.88132101
v 0.07541025 0.09900007 0.88132101
v 0.07490343 0.09099995 0.89447188
v 0.07490343 0.09899995 0.89447188
v 0.07212067 0.09099994 0.90733480
v 0.07212067 0.09899995 0.90733480
v 0.06714660 0.09099994 0.91951913
v 0.06714660 0.09899989 0.91951913
v 0.06013233 0.09900001 0.93065453
v 0.06013233 0.09100000 0.93065453
v 0.05129093 0.09099994 0.94040293
v 0.05129093 0.09899995 0.94040293
v 0.04089106 0.09099994 0.94846767
v 0.04089106 0.09899989 0.94846767
v 0.02924878 0.09100000 0.95460421
v 0.02924878 0.09899989 0.95460421
v 0.01671774 0.09099994 0.95862579
v 0.01671774 0.09899989 0.95862579
v 0.00367881 0.09099988 0.96041018
v 0.00367881 0.09899995 0.96041018
v -0.00947194 0.09100000 0.95990342
v -0.00947194 0.09899989 0.95990342
v -0.02233486 0.09099994 0.95712072
v -0.02233486 0.09899989 0.95712072
v -0.03451918 0.09099994 0.95214671
v -0.03451918 0.09899989 0.95214659
v -0.04565470 0.09100000 0.94513232
v -0.04565470 0.09899995 0.94513232
v -0.05540298 0.09100000 0.93629092
v -0.05540298 0.09900001 0.93629092
v -0.06346785 0.09100000 0.92589110
v -0.06346785 0.09899995 0.92589110
v -0.06960432 0.09100005 0.91424882
v -0.06960432 0.09900001 0.91424882
v -0.07362586 0.09099994 0.90171772
v -0.07362586 0.09899995 0.90171772
v -0.07541035 0.09099995 0.88867879
v -0.07541035 0.09900001 0.88867879
v -0.07490353 0.09099995 0.87552798
v -0.07490353 0.09899995 0.87552798
v -0.07212077 0.09100001 0.86266512
v -0.07212077 0.09900001 0.86266512
v -0.06714670 0.09100001 0.85048068
v -0.06714670 0.09899995 0.85048068
v -0.06013238 0.09099995 0.83934528
v -0.06013238 0.09899995 0.83934528
v -0.05129104 0.09099995 0.82959700
v -0.05129104 0.09899995 0.82959688
v -0.04089117 0.09099995 0.82153207
v -0.04089117 0.09900001 0.82153207
v -0.02924889 0.09100001 0.81539559
v -0.02924889 0.09900001 0.81539559
v -0.01671785 0.09100001 0.81137413
v -0.01671785 0.09899995 0.81137413
v -0.00367886 0.09100001 0.80958962
v -0.00367886 0.09900002 0.80958962
v 0.00947184 0.09100001 0.81009638
v 0.00947184 0.09900001 0.81009638
v 0.07347118 -0.01738453 0.79649991
v 0.06054365 0.04510765 0.79649991
v 0.05179095 0.05493568 0.79649991
v 0.06745672 0.03390907 0.79649991
v 0.07232016 0.02168016 0.79649991
v 0.07498616 0.00879251 0.79649991
v 0.07537382 -0.00436223 0.79649991
v 0.01738441 0.07347117 0.79649991
v 0.04146462 0.06309448 0.79649991
v 0.02987843 0.06933622 0.79649991
v 0.01738441 0.07347117 0.79649991
v 0.05179095 0.05493568 0.79649991
v 0.04146462 0.06309448 0.79649991
v 0.06309449 -0.04146475 0.79649991
v 0.06933623 -0.02987856 0.79649991
v -0.02168023 0.07232016 0.79649991
v 0.00436217 0.07537375 0.79649991
v -0.00879258 0.07498614 0.79649991
v 0.04510766 -0.06054372 0.79649991
v 0.05493569 -0.05179108 0.79649991
v 0.03390908 -0.06745679 0.79649991
v -0.04510778 0.06054364 0.79649991
v -0.02168023 0.07232016 0.79649991
v -0.03390914 0.06745671 0.79649991
v 0.01738441 0.07347117 0.79649991
v 0.00436217 0.07537375 0.79649991
v 0.05179095 0.05493568 0.79649991
v -0.04510778 0.06054364 0.79649991
v 0.00436217 0.07537375 0.79649991
v -0.02168023 0.07232016 0.79649991
v -0.06309461 0.04146461 0.79649991
v -0.05493575 0.05179094 0.79649991
v -0.00436223 -0.07537389 0.79649991
v 0.02168017 -0.07232023 0.79649991
v 0.03390908 -0.06745679 0.79649991
v -0.00436223 -0.07537389 0.79649991
v 0.00879252 -0.07498628 0.79649991
v 0.02168017 -0.07232023 0.79649991
v -0.00436223 -0.07537389 0.79649991
v -0.06933635 0.02987842 0.79649991
v -0.04146474 -0.06309462 0.79649991
v -0.01738446 -0.07347131 0.79649991
v -0.04146474 -0.06309462 0.79649991
v -0.02987855 -0.06933630 0.79649991
v -0.01738446 -0.07347131 0.79649991
v -0.07498627 -0.00879259 0.79649991
v -0.07347130 0.01738439 0.79649991
v -0.07537388 0.00436216 0.79649991
v -0.05179107 -0.05493576 0.79649991
v -0.05179107 -0.05493576 0.79649991
v -0.04146474 -0.06309462 0.79649991
v -0.07232022 -0.02168024 0.79649991
v -0.06054371 -0.04510773 0.79649991
v -0.06745684 -0.03390915 0.79649991
v 0.07498621 0.00879251 0.78849989
v 0.05179095 0.05493568 0.78849989
v 0.06054365 0.04510765 0.78849989
v 0.07498621 0.00879251 0.78849989
v 0.06054365 0.04510765 0.78849989
v 0.06745672 0.03390907 0.78849989
v 0.07232016 0.02168016 0.78849989
v 0.07347118 -0.01738453 0.78849989
v 0.07537382 -0.00436223 0.78849989
v 0.01738441 0.07347117 0.78849989
v 0.02987843 0.06933622 0.78849989
v 0.04146462 0.06309448 0.78849989
v 0.01738441 0.07347117 0.78849989
v 0.04146462 0.06309448 0.78849989
v 0.05179095 0.05493568 0.78849989
v 0.05493569 -0.05179108 0.78849989
v 0.06933623 -0.02987856 0.78849989
v 0.05493569 -0.05179108 0.78849989
v 0.06933623 -0.02987856 0.78849989
v 0.06309449 -0.04146475 0.78849989
v 0.03390908 -0.06745679 0.78849989
v 0.05493569 -0.05179108 0.78849989
v 0.04510766 -0.06054372 0.78849989
v -0.04510778 0.06054364 0.78849989
v -0.03390914 0.06745671 0.78849989
v -0.02168023 0.07232016 0.78849989
v -0.04510778 0.06054364 0.78849989
v -0.02168023 0.07232016 0.78849989
v -0.00879258 0.07498614 0.78849989
v -0.04510778 0.06054364 0.78849989
v -0.00879258 0.07498614 0.78849989
v 0.00436217 0.07537375 0.78849989
v -0.04510778 0.06054364 0.78849989
v 0.00436217 0.07537375 0.78849989
v -0.00436223 -0.07537389 0.78849989
v 0.03390908 -0.06745679 0.78849989
v 0.02168017 -0.07232023 0.78849989
v -0.00436223 -0.07537389 0.78849989
v 0.02168017 -0.07232023 0.78849989
v 0.00879252 -0.07498628 0.78849989
v -0.07347130 0.01738439 0.78849989
v -0.06933635 0.02987842 0.78849989
v -0.06309461 0.04146461 0.78849989
v -0.07347130 0.01738439 0.78849989
v -0.06309461 0.04146461 0.78849989
v -0.05493575 0.05179094 0.78849989
v -0.04146474 -0.06309462 0.78849989
v -0.01738446 -0.07347131 0.78849989
v -0.02987855 -0.06933630 0.78849989
v -0.07498627 -0.00879259 0.78849989
v -0.07537388 0.00436216 0.78849989
v -0.05179107 -0.05493576 0.78849989
v -0.01738446 -0.07347131 0.78849989
v -0.05179107 -0.05493576 0.78849989
v 0.03390908 -0.06745679 0.78849989
v -0.01738446 -0.07347131 0.78849989
v -0.04146474 -0.06309462 0.78849989
v -0.06054371 -0.04510773 0.78849989
v -0.06054371 -0.04510773 0.78849989
v 0.05493569 -0.05179108 0.78849989
v -0.06745684 -0.03390915 0.78849989
v -0.07232022 -0.02168024 0.78849989
v -0.06933635 0.02987842 0.78849989
v -0.07347130 0.01738439 0.78849989
v -0.07347130 0.01738439 0.79649991
v -0.06933635 0.02987842 0.79649991
v -0.06309461 0.04146461 0.78849989
v -0.06309461 0.04146461 0.79649991
v -0.05493575 0.05179094 0.78849989
v -0.05493575 0.05179094 0.79649991
v -0.04510778 0.06054364 0.78849989
v -0.04510778 0.06054364 0.79649991
v -0.03390914 0.06745671 0.78849989
v -0.03390914 0.06745671 0.79649991
v -0.02168023 0.07232016 0.78849989
v -0.02168023 0.07232016 0.79649991
v -0.00879258 0.07498614 0.79649991
v -0.00879258 0.07498614 0.78849989
v 0.00436217 0.07537375 0.78849989
v 0.00436217 0.07537375 0.79649991
v 0.01738441 0.07347117 0.78849989
v 0.01738441 0.07347117 0.79649991
v 0.02987843 0.06933622 0.78849989
v 0.02987843 0.06933622 0.79649991
v 0.04146462 0.06309448 0.78849989
v 0.04146462 0.06309448 0.79649991
v 0.05179095 0.05493568 0.79649991
v 0.05179095 0.05493568 0.78849989
v 0.06054365 0.04510765 0.78849989
v 0.06054365 0.04510765 0.79649991
v 0.06745672 0.03390907 0.78849989
v 0.06745672 0.03390907 0.79649991
v 0.07232016 0.02168016 0.78849989
v 0.07232016 0.02168016 0.79649991
v 0.07498621 0.00879251 0.78849989
v 0.07498616 0.00879251 0.79649991
v 0.07537382 -0.00436223 0.78849989
v 0.07537382 -0.00436223 0.79649991
v 0.07347118 -0.01738453 0.78849989
v 0.07347118 -0.01738453 0.79649991
v 0.06933623 -0.02987856 0.78849989
v 0.06933623 -0.02987856 0.79649991
v 0.06309449 -0.04146475 0.78849989
v 0.06309449 -0.04146475 0.79649991
v 0.05493569 -0.05179108 0.78849989
v 0.05493569 -0.05179108 0.79649991
v 0.04510766 -0.06054372 0.78849989
v 0.04510766 -0.06054372 0.79649991
v 0.03390908 -0.06745679 0.78849989
v 0.03390908 -0.06745679 0.79649991
v 0.02168017 -0.07232023 0.78849989
v 0.02168017 -0.07232023 0.79649991
v 0.00879252 -0.07498628 0.78849989
v 0.00879252 -0.07498628 0.79649991
v -0.00436223 -0.07537389 0.78849989
v -0.00436223 -0.07537389 0.79649991
v -0.01738446 -0.07347131 0.78849989
v -0.01738446 -0.07347131 0.79649991
v -0.02987855 -0.06933630 0.78849989
v -0.02987855 -0.06933630 0.79649991
v -0.04146474 -0.06309462 0.78849989
v -0.04146474 -0.06309462 0.79649991
v -0.05179107 -0.05493576 0.78849989
v -0.05179107 -0.05493576 0.79649991
v -0.06054371 -0.04510773 0.78849989
v -0.06054371 -0.04510773 0.79649991
v -0.06745684 -0.03390915 0.78849989
v -0.06745684 -0.03390915 0.79649991
v -0.07232022 -0.02168024 0.78849989
v -0.07232022 -0.02168024 0.79649991
v -0.07498627 -0.00879259 0.78849989
v -0.07498627 -0.00879259 0.79649991
v -0.07537388 0.00436216 0.78849989
v -0.07537388 0.00436216 0.79649991
v -0.07347130 0.01738439 0.78849989
v -0.07347130 0.01738439 0.79649991
f 1 2 3
f 1 4 2
f 5 6 4
f 5 7 6
f 8 9 10
f 11 12 13
f 14 15 16
f 17 18 5
f 19 20 21
f 22 23 24
f 22 24 1
f 25 5 26
f 27 28 29
f 30 31 32
f 30 33 34
f 35 26 36
f 37 38 39
f 40 41 42
f 43 44 45
f 46 47 48
f 49 25 26
f 50 51 52
f 53 54 55
f 56 57 58
f 59 60 61
f 62 63 64
f 65 49 26
f 65 66 43
f 67 68 69
f 70 26 35
f 70 35 60
f 70 65 26
f 71 70 60
f 72 60 73
f 74 75 76
f 77 78 79
f 80 81 82
f 83 84 85
f 86 87 88
f 89 90 91
f 92 93 94
f 92 94 95
f 96 97 98
f 99 100 101
f 102 103 104
f 99 105 106
f 99 106 107
f 99 108 77
f 102 107 108
f 109 110 111
f 112 113 114
f 115 116 117
f 118 119 120
f 121 122 123
f 124 125 126
f 127 128 129
f 130 131 132
f 130 133 131
f 130 134 133
f 130 132 124
f 135 77 136
f 135 136 134
f 135 134 130
f 137 138 121
f 139 140 141
f 137 99 77
f 137 121 99
f 137 77 135
f 142 143 144
f 142 144 145
f 146 145 147
f 146 142 145
f 148 147 149
f 148 146 147
f 150 149 151
f 150 148 149
f 152 151 153
f 152 150 151
f 154 153 155
f 154 155 156
f 154 152 153
f 157 154 156
f 158 157 156
f 158 156 159
f 160 158 159
f 160 159 161
f 162 160 161
f 162 161 163
f 164 162 163
f 164 163 165
f 164 165 166
f 167 164 166
f 168 167 166
f 168 166 169
f 170 168 169
f 170 169 171
f 172 170 171
f 172 171 173
f 174 172 173
f 174 173 175
f 176 174 175
f 176 175 177
f 178 176 177
f 178 177 179
f 180 178 179
f 180 179 181
f 182 181 183
f 182 180 181
f 184 182 183
f 184 183 185
f 186 185 187
f 186 184 185
f 188 187 189
f 188 186 187
f 190 189 191
f 190 188 189
f 192 191 193
f 192 190 191
f 194 193 195
f 194 192 193
f 196 195 197
f 196 194 195
f 198 197 199
f 198 196 197
f 200 199 201
f 200 198 199
f 202 201 203
f 202 200 201
f 204 202 203
f 204 203 205
f 206 204 205
f 206 205 207
f 208 206 207
f 208 207 209
f 210 208 209
f 210 209 211
f 212 210 211
f 212 211 213
f 214 212 213
f 214 213 215
f 216 217 218
f 216 219 217
f 216 220 219
f 216 221 220
f 216 222 221
f 223 224 225
f 226 227 228
f 229 230 216
f 231 232 233
f 234 235 229
f 234 229 216
f 236 216 218
f 236 234 216
f 237 238 239
f 237 240 241
f 237 242 240
f 243 244 245
f 246 237 247
f 248 249 250
f 251 252 253
f 254 236 242
f 255 237 246
f 256 257 251
f 258 259 260
f 261 255 262
f 261 262 263
f 264 254 218
f 265 266 248
f 267 255 261
f 268 218 237
f 268 237 255
f 268 264 218
f 269 268 255
f 269 255 267
f 270 271 272
f 273 274 275
f 273 275 276
f 277 273 278
f 279 280 281
f 282 283 284
f 285 277 286
f 287 288 289
f 290 291 292
f 293 294 295
f 296 297 298
f 299 300 301
f 302 303 282
f 302 284 273
f 302 282 284
f 304 305 306
f 307 308 309
f 310 311 312
f 313 314 315
f 313 315 302
f 316 317 318
f 319 320 313
f 321 304 322
f 323 324 307
f 323 285 324
f 323 325 326
f 327 273 277
f 327 277 285
f 328 329 321
f 330 319 313
f 330 331 319
f 330 302 273
f 330 313 302
f 330 273 327
f 332 333 334
f 332 334 335
f 336 335 337
f 336 332 335
f 338 337 339
f 338 336 337
f 340 339 341
f 340 338 339
f 342 341 343
f 342 340 341
f 344 343 345
f 344 345 346
f 344 342 343
f 347 344 346
f 348 347 346
f 348 346 349
f 350 348 349
f 350 349 351
f 352 350 351
f 352 351 353
f 354 352 353
f 354 353 355
f 354 355 356
f 357 354 356
f 358 357 356
f 358 356 359
f 360 358 359
f 360 359 361
f 362 360 361
f 362 361 363
f 364 362 363
f 364 363 365
f 366 364 365
f 366 365 367
f 368 366 367
f 368 367 369
f 370 368 369
f 370 369 371
f 372 371 373
f 372 370 371
f 374 372 373
f 374 373 375
f 376 375 377
f 376 374 375
f 378 377 379
f 378 376 377
f 380 379 381
f 380 378 379
f 382 381 383
f 382 380 381
f 384 383 385
f 384 382 383
f 386 385 387
f 386 384 385
f 388 387 389
f 388 386 387
f 390 389 391
f 390 388 389
f 392 391 393
f 392 390 391
f 394 392 393
f 394 393 395
f 396 394 395
f 396 395 397
f 398 396 397
f 398 397 399
f 400 398 399
f 400 399 401
f 402 400 401
f 402 401 403
f 404 402 403
f 404 403 405

