# https://github.com/mikedh/trimesh
v 0.03398548 0.15682769 -0.07934415
v 0.03399613 0.15684973 -0.07926290
v 0.03398552 0.15681700 -0.07934324
v 0.03399557 0.15686040 -0.07926308
v 0.03396017 0.15679531 -0.07942198
v 0.03395995 0.15678446 -0.07942019
v 0.03392055 0.15676413 -0.07949410
v 0.03392023 0.15675309 -0.07949148
v 0.03386775 0.15673523 -0.07955831
v 0.03386770 0.15672396 -0.07955484
v 0.03380350 0.15670940 -0.07961261
v 0.03380378 0.15669787 -0.07960843
v 0.03372971 0.15668747 -0.07965527
v 0.03373057 0.15667567 -0.07965063
v 0.00128122 0.23570018 -0.06944285
v 0.00128121 0.23635201 -0.06864677
v 0.00128119 0.23663878 -0.06893365
v 0.00128118 0.23541431 -0.06915699
v 0.00128121 0.23635201 -0.06864677
v 0.00128122 0.23570018 -0.06944285
v 0.00128122 0.23475803 -0.06994563
v 0.00128118 0.23541431 -0.06915699
v 0.00128122 0.23570018 -0.06944285
v 0.00128122 0.23447298 -0.06966066
v 0.00128118 0.23541431 -0.06915699
v 0.00128122 0.23475803 -0.06994563
v 0.00128120 0.23381245 -0.07044201
v 0.00128122 0.23447298 -0.06966066
v 0.00128122 0.23475803 -0.06994563
v 0.00128119 0.23352832 -0.07015775
f 1 2 3
f 1 4 2
f 5 3 6
f 5 1 3
f 7 6 8
f 7 5 6
f 9 8 10
f 9 7 8
f 11 10 12
f 11 9 10
f 13 12 14
f 13 11 12
f 15 16 17
f 18 19 20
f 21 22 23
f 24 25 26
f 27 28 29
f 30 28 27

