# https://github.com/mikedh/trimesh
v -0.06538498 0.09099989 0.84724993
v -0.04853051 0.09099989 0.82716352
v -0.05783641 0.09099989 0.83646929
v -0.06538498 0.09099989 0.84724993
v -0.03775000 0.09099995 0.81961501
v -0.04853051 0.09099989 0.82716352
v -0.02582257 0.09099995 0.81405312
v -0.03775000 0.09099995 0.81961501
v -0.06538498 0.09099989 0.84724993
v -0.07550006 0.09099989 0.88499981
v -0.07094681 0.09099989 0.85917717
v -0.07435302 0.09099989 0.87188941
v -0.07094681 0.09099982 0.91082227
v -0.07550006 0.09099989 0.88499981
v -0.07435302 0.09099988 0.89811027
v -0.07094681 0.09099982 0.91082227
v 0.03774994 0.09099995 0.81961501
v -0.01311045 0.09099989 0.81064677
v -0.02582257 0.09099995 0.81405312
v 0.03774994 0.09099995 0.81961501
v 0.00000006 0.09099995 0.80949992
v -0.01311045 0.09099989 0.81064677
v 0.01311034 0.09099989 0.81064677
v 0.00000006 0.09099995 0.80949992
v 0.02582246 0.09099995 0.81405312
v 0.01311034 0.09099989 0.81064677
v -0.05783640 0.09099988 0.93353027
v -0.07094681 0.09099982 0.91082227
v -0.06538498 0.09099994 0.92274982
v 0.05783629 0.09099989 0.83646929
v 0.04853040 0.09099989 0.82716352
v 0.03774994 0.09099995 0.81961501
v 0.05783629 0.09099989 0.83646929
v -0.03775005 0.09099982 0.95038468
v -0.05783640 0.09099988 0.93353027
v -0.04853050 0.09099982 0.94283628
v -0.03775005 0.09099982 0.95038468
v -0.07094681 0.09099982 0.91082227
v -0.05783640 0.09099988 0.93353027
v 0.07094669 0.09099989 0.85917717
v 0.06538486 0.09099989 0.84724993
v 0.05783629 0.09099989 0.83646929
v -0.01311044 0.09099988 0.95935291
v -0.03775005 0.09099982 0.95038468
v -0.02582256 0.09099988 0.95594662
v -0.00000006 0.09099988 0.96049982
v 0.07435293 0.09099988 0.89811027
v 0.07435293 0.09099989 0.87188941
v 0.07094669 0.09099989 0.85917717
v 0.07549996 0.09099989 0.88499981
v 0.07435293 0.09099988 0.89811027
v 0.07094669 0.09099989 0.85917717
v 0.02582247 0.09099988 0.95594662
v 0.01311035 0.09099988 0.95935291
v 0.02582247 0.09099988 0.95594662
v -0.03775005 0.09099982 0.95038468
v -0.00000006 0.09099988 0.96049982
v 0.06538486 0.09099994 0.92274982
v 0.07094669 0.09099982 0.91082227
v 0.07435293 0.09099988 0.89811027
v 0.05783630 0.09099988 0.93353027
v 0.06538486 0.09099994 0.92274982
v 0.07435293 0.09099988 0.89811027
v 0.05783630 0.09099988 0.93353027
v 0.05783630 0.09099988 0.93353027
v 0.02582247 0.09099988 0.95594662
v 0.03774989 0.09099982 0.95038468
v 0.04853041 0.09099982 0.94283628
v 0.05783630 0.09099988 0.93353027
v 0.03774989 0.09099982 0.95038468
v -0.00050005 0.09049992 0.80900151
v -0.00050005 0.08800010 0.80939990
v -0.00050005 0.08800010 0.80900151
v -0.00050005 0.09089832 0.80939990
v -0.00050005 0.08800010 0.80939990
v -0.00050005 0.09089832 0.80939990
v -0.00016672 0.09089975 0.80939972
v -0.00041578 0.08772235 0.80939990
v -0.00046199 0.08780877 0.80939990
v -0.00049044 0.08790259 0.80939978
v 0.00049995 0.08800010 0.80939990
v -0.00049044 0.08790259 0.80939978
v -0.00050005 0.08800010 0.80939990
v 0.00049995 0.08800010 0.80939990
v -0.00035360 0.08764654 0.80939972
v -0.00041578 0.08772235 0.80939990
v 0.00049995 0.08800010 0.80939990
v -0.00027783 0.08758442 0.80939990
v -0.00035360 0.08764654 0.80939972
v 0.00049995 0.08800010 0.80939990
v -0.00019139 0.08753823 0.80939990
v -0.00027783 0.08758442 0.80939990
v 0.00049995 0.08800010 0.80939990
v 0.00016662 0.09089975 0.80939972
v 0.00049995 0.09089832 0.80939990
v 0.00049995 0.08800010 0.80939990
v -0.00016672 0.09089975 0.80939972
v 0.00016662 0.09089975 0.80939972
v 0.00049995 0.08800010 0.80939990
v -0.00050005 0.08800010 0.80939990
v -0.00016672 0.09089975 0.80939972
v 0.00049995 0.08800010 0.80939990
v -0.00041578 0.08772235 0.80939990
v -0.00049044 0.08790259 0.80939978
v 0.00000006 0.08750014 0.80939990
v -0.00009759 0.08750980 0.80939972
v -0.00019139 0.08753823 0.80939990
v 0.00000006 0.08750014 0.80939990
v -0.00019139 0.08753823 0.80939990
v 0.00049995 0.08800010 0.80939990
v 0.00046189 0.08780877 0.80939990
v 0.00049995 0.08800010 0.80939990
v 0.00049035 0.08790259 0.80939978
v 0.00019129 0.08753823 0.80939990
v 0.00009750 0.08750980 0.80939972
v 0.00000006 0.08750014 0.80939990
v 0.00041569 0.08772235 0.80939990
v 0.00049995 0.08800010 0.80939990
v 0.00046189 0.08780877 0.80939990
v 0.00027774 0.08758442 0.80939990
v 0.00000006 0.08750014 0.80939990
v 0.00027774 0.08758442 0.80939990
v 0.00035351 0.08764654 0.80939972
v 0.00049995 0.08800010 0.80939990
v 0.00041569 0.08772235 0.80939990
v 0.00035351 0.08764654 0.80939972
v 0.00027774 0.08758442 0.80939990
v 0.00049995 0.08800010 0.80939990
v 0.00049995 0.08800010 0.80939990
v 0.00049995 0.09089832 0.80939990
v 0.00049995 0.09049992 0.80900151
v 0.00049995 0.08800010 0.80900151
v -0.00050005 -0.07569838 0.79949993
v -0.00050005 -0.07569838 0.79669982
v -0.00016671 -0.07569838 0.79669851
v -0.00035360 -0.07569838 0.79985350
v -0.00041578 -0.07569832 0.79977769
v -0.00046199 -0.07569838 0.79969120
v -0.00049044 -0.07569832 0.79959750
v 0.00049995 -0.07569838 0.79949993
v -0.00027783 -0.07569838 0.79991561
v -0.00035360 -0.07569838 0.79985350
v 0.00049995 -0.07569838 0.79949993
v -0.00049044 -0.07569832 0.79959750
v -0.00050005 -0.07569838 0.79949993
v 0.00049995 -0.07569838 0.79949993
v 0.00016662 -0.07569838 0.79669851
v 0.00049995 -0.07569838 0.79669982
v 0.00049995 -0.07569838 0.79949993
v -0.00016671 -0.07569838 0.79669851
v 0.00016662 -0.07569838 0.79669851
v -0.00050005 -0.07569838 0.79949993
v 0.00049995 -0.07569838 0.79949993
v -0.00035360 -0.07569838 0.79985350
v -0.00049044 -0.07569832 0.79959750
v 0.00046189 -0.07569838 0.79969120
v 0.00049995 -0.07569838 0.79949993
v 0.00049035 -0.07569832 0.79959750
v 0.00027774 -0.07569838 0.79991561
v 0.00019129 -0.07569838 0.79996181
v 0.00009750 -0.07569838 0.79999018
v 0.00000006 -0.07569832 0.79999989
v 0.00027774 -0.07569838 0.79991561
v 0.00000006 -0.07569832 0.79999989
v -0.00009759 -0.07569838 0.79999018
v 0.00027774 -0.07569838 0.79991561
v -0.00009759 -0.07569838 0.79999018
v -0.00019139 -0.07569838 0.79996181
v 0.00041569 -0.07569832 0.79977769
v 0.00035351 -0.07569838 0.79985350
v -0.00019139 -0.07569838 0.79996181
v -0.00027783 -0.07569838 0.79991561
v 0.00035351 -0.07569838 0.79985350
v -0.00027783 -0.07569838 0.79991561
v 0.00049995 -0.07569838 0.79949993
v 0.00035351 -0.07569838 0.79985350
v 0.00027774 -0.07569838 0.79991561
v -0.00019139 -0.07569838 0.79996181
v 0.00035351 -0.07569838 0.79985350
v 0.00049995 -0.07599831 0.79699987
v 0.00049995 -0.07569838 0.79949993
v 0.00049995 -0.07569838 0.79669982
v 0.00049995 -0.07599837 0.79949981
v -0.04628074 -0.05515516 0.79649991
v -0.04853051 -0.05783636 0.79649991
v -0.05783635 -0.04853046 0.79649991
v -0.05515521 -0.04628075 0.79649991
v -0.06538498 -0.03775001 0.79649991
v -0.05515521 -0.04628075 0.79649991
v -0.04628074 -0.05515516 0.79649991
v -0.05783635 -0.04853046 0.79649991
v -0.03600001 -0.06235385 0.79649991
v -0.03775000 -0.06538486 0.79649991
v -0.04853051 -0.05783636 0.79649991
v -0.06235384 -0.03600008 0.79649991
v -0.06538498 -0.03775001 0.79649991
v -0.07094681 -0.02582247 0.79649991
v -0.06235384 -0.03600008 0.79649991
v -0.06538498 -0.03775001 0.79649991
v -0.02462547 -0.06765789 0.79649991
v -0.02582251 -0.07094676 0.79649991
v -0.02462547 -0.06765789 0.79649991
v -0.03775000 -0.06538486 0.79649991
v -0.03600001 -0.06235385 0.79649991
v -0.06765788 -0.02462549 0.79649991
v -0.07094681 -0.02582247 0.79649991
v -0.07435303 -0.01311046 0.79649991
v -0.06765788 -0.02462549 0.79649991
v -0.01250266 -0.07090611 0.79649991
v -0.01311045 -0.07435304 0.79649991
v -0.02582251 -0.07094676 0.79649991
v -0.01250266 -0.07090611 0.79649991
v -0.02582251 -0.07094676 0.79649991
v -0.02462547 -0.06765789 0.79649991
v -0.07090616 -0.01250268 0.79649991
v -0.07435303 -0.01311046 0.79649991
v 0.00000006 -0.07549996 0.79649991
v -0.01311045 -0.07435304 0.79649991
v -0.07550001 -0.00000007 0.79649991
v -0.07090616 -0.01250268 0.79649991
v -0.07435303 -0.01311046 0.79649991
v 0.00000006 -0.07200003 0.79649991
v 0.00000006 -0.07549996 0.79649991
v -0.01250266 -0.07090611 0.79649991
v -0.07200002 -0.00000007 0.79649991
v -0.07550001 -0.00000007 0.79649991
v 0.01311034 -0.07435304 0.79649991
v -0.07435303 0.01311038 0.79649991
v -0.07200002 -0.00000007 0.79649991
v -0.07550001 -0.00000007 0.79649991
v 0.01250261 -0.07090611 0.79649991
v -0.07090616 0.01250260 0.79649991
v -0.07435303 0.01311038 0.79649991
v 0.02582246 -0.07094676 0.79649991
v 0.01311034 -0.07435304 0.79649991
v 0.01250261 -0.07090611 0.79649991
v -0.07094681 0.02582245 0.79649991
v -0.07090616 0.01250260 0.79649991
v -0.07435303 0.01311038 0.79649991
v 0.02462536 -0.06765789 0.79649991
v 0.02582246 -0.07094676 0.79649991
v 0.01250261 -0.07090611 0.79649991
v -0.06765788 0.02462541 0.79649991
v 0.03774994 -0.06538486 0.79649991
v 0.02462536 -0.06765789 0.79649991
v 0.03599995 -0.06235385 0.79649991
v 0.03774994 -0.06538486 0.79649991
v -0.06235384 0.03600000 0.79649991
v -0.07094681 0.02582245 0.79649991
v -0.06538498 0.03774993 0.79649991
v -0.06235384 0.03600000 0.79649991
v -0.06765788 0.02462541 0.79649991
v -0.07094681 0.02582245 0.79649991
v 0.04853040 -0.05783636 0.79649991
v 0.03599995 -0.06235385 0.79649991
v 0.04628062 -0.05515516 0.79649991
v 0.04853040 -0.05783636 0.79649991
v 0.03599995 -0.06235385 0.79649991
v -0.05515521 0.04628067 0.79649991
v -0.05783635 0.04853044 0.79649991
v -0.05515521 0.04628067 0.79649991
v -0.06538498 0.03774993 0.79649991
v 0.05783629 -0.04853046 0.79649991
v 0.04853040 -0.05783636 0.79649991
v 0.04628062 -0.05515516 0.79649991
v 0.05783629 -0.04853046 0.79649991
v 0.05515515 -0.04628075 0.79649991
v -0.04853051 0.05783634 0.79649991
v -0.05515521 0.04628067 0.79649991
v -0.05783635 0.04853044 0.79649991
v -0.04853051 0.05783634 0.79649991
v -0.04628074 0.05515508 0.79649991
v -0.05515521 0.04628067 0.79649991
v 0.06538486 -0.03775001 0.79649991
v 0.06235379 -0.03600008 0.79649991
v 0.06538486 -0.03775001 0.79649991
v 0.05783629 -0.04853046 0.79649991
v 0.05515515 -0.04628075 0.79649991
v -0.03775000 0.06538479 0.79649991
v -0.03600001 0.06235377 0.79649991
v -0.02462547 0.06765775 0.79649991
v -0.03600001 0.06235377 0.79649991
v -0.03775000 0.06538479 0.79649991
v 0.07094675 -0.02582247 0.79649991
v 0.06235379 -0.03600008 0.79649991
v 0.06765782 -0.02462549 0.79649991
v 0.07094675 -0.02582247 0.79649991
v -0.02582251 0.07094669 0.79649991
v -0.02462547 0.06765775 0.79649991
v 0.07435292 -0.01311046 0.79649991
v 0.06765782 -0.02462549 0.79649991
v 0.07090610 -0.01250268 0.79649991
v 0.07435292 -0.01311046 0.79649991
v 0.07094675 -0.02582247 0.79649991
v 0.06765782 -0.02462549 0.79649991
v -0.01311045 0.07435291 0.79649979
v -0.01250266 0.07090610 0.79649991
v -0.02462547 0.06765775 0.79649991
v -0.01311045 0.07435291 0.79649979
v -0.02462547 0.06765775 0.79649991
v -0.02582251 0.07094669 0.79649991
v 0.07549995 -0.00000007 0.79649991
v 0.07199996 -0.00000007 0.79649991
v 0.07549995 -0.00000007 0.79649991
v 0.07435292 -0.01311046 0.79649991
v 0.07090610 -0.01250268 0.79649991
v 0.00000006 0.07549994 0.79649991
v -0.01250266 0.07090610 0.79649991
v -0.01311045 0.07435291 0.79649979
v 0.00000006 0.07549994 0.79649991
v 0.00000006 0.07200001 0.79649991
v -0.01250266 0.07090610 0.79649991
v 0.07090610 0.01250260 0.79649991
v 0.01250261 0.07090610 0.79649991
v 0.07435292 0.01311038 0.79649991
v 0.07549995 -0.00000007 0.79649991
v 0.07090610 0.01250260 0.79649991
v 0.01311034 0.07435291 0.79649979
v 0.07094675 0.02582245 0.79649991
v 0.06765782 0.02462541 0.79649991
v 0.07094675 0.02582245 0.79649991
v 0.07435292 0.01311038 0.79649991
v 0.07090610 0.01250260 0.79649991
v 0.02582246 0.07094669 0.79649991
v 0.02462536 0.06765775 0.79649991
v 0.01250261 0.07090610 0.79649991
v 0.02582246 0.07094669 0.79649991
v 0.01250261 0.07090610 0.79649991
v 0.01311034 0.07435291 0.79649979
v 0.06538486 0.03774993 0.79649991
v 0.06235379 0.03600000 0.79649991
v 0.05515515 0.04628067 0.79649991
v 0.06538486 0.03774993 0.79649991
v 0.07094675 0.02582245 0.79649991
v 0.06765782 0.02462541 0.79649991
v 0.03774994 0.06538479 0.79649991
v 0.03599995 0.06235377 0.79649991
v 0.03774994 0.06538479 0.79649991
v 0.02462536 0.06765775 0.79649991
v 0.05783629 0.04853044 0.79649991
v 0.04628062 0.05515508 0.79649991
v 0.04853040 0.05783634 0.79649991
v 0.03599995 0.06235377 0.79649991
v 0.04853040 0.05783634 0.79649991
v 0.03599995 0.06235377 0.79649991
v -0.07090616 -0.01250262 0.79499978
v -0.05515521 -0.04628075 0.79499978
v -0.06235384 -0.03600002 0.79499978
v -0.06765788 -0.02462543 0.79499978
v -0.01250266 -0.07090617 0.79499978
v -0.02462547 -0.06765789 0.79499978
v -0.03600001 -0.06235391 0.79499978
v -0.01250266 -0.07090617 0.79499978
v -0.03600001 -0.06235391 0.79499978
v -0.04628074 -0.05515522 0.79499978
v -0.04628074 -0.05515522 0.79499978
v 0.01250261 -0.07090617 0.79499978
v 0.00000006 -0.07200003 0.79499978
v -0.01250266 -0.07090617 0.79499978
v -0.06765788 0.02462541 0.79499978
v -0.07200002 -0.00000007 0.79499978
v -0.07090616 0.01250260 0.79499978
v -0.06235384 0.03600000 0.79499978
v -0.04628074 0.05515508 0.79499978
v -0.06235384 0.03600000 0.79499978
v -0.05515521 0.04628073 0.79499978
v -0.03600001 0.06235377 0.79499978
v -0.06235384 0.03600000 0.79499978
v -0.04628074 0.05515508 0.79499978
v 0.06235379 -0.03600002 0.79499978
v 0.05515515 -0.04628075 0.79499978
v 0.04628062 -0.05515522 0.79499978
v 0.06235379 -0.03600002 0.79499978
v 0.04628062 -0.05515522 0.79499978
v 0.03599995 -0.06235391 0.79499978
v -0.02462547 0.06765775 0.79499978
v -0.06235384 0.03600000 0.79499978
v -0.03600001 0.06235377 0.79499978
v 0.07090610 -0.01250262 0.79499978
v 0.06765782 -0.02462543 0.79499978
v 0.02462536 -0.06765789 0.79499978
v 0.02462536 -0.06765789 0.79499978
v 0.01250261 -0.07090617 0.79499978
v 0.02462536 0.06765775 0.79499978
v -0.02462547 0.06765775 0.79499978
v -0.01250266 0.07090615 0.79499978
v 0.02462536 0.06765775 0.79499978
v -0.01250266 0.07090615 0.79499978
v 0.00000006 0.07199995 0.79499978
v 0.02462536 0.06765775 0.79499978
v 0.00000006 0.07199995 0.79499978
v 0.01250261 0.07090615 0.79499978
v 0.02462536 0.06765775 0.79499978
v -0.02462547 0.06765775 0.79499978
v 0.04628062 0.05515508 0.79499978
v 0.04628062 0.05515508 0.79499978
v 0.02462536 0.06765775 0.79499978
v 0.03599995 0.06235377 0.79499978
v 0.05515515 0.04628073 0.79499978
v 0.01250261 -0.07090617 0.79499978
v 0.05515515 0.04628073 0.79499978
v 0.06235379 0.03600000 0.79499978
v 0.06765782 0.02462541 0.79499978
v 0.05515515 0.04628073 0.79499978
v 0.06765782 0.02462541 0.79499978
v 0.07090610 0.01250260 0.79499978
v 0.07090610 0.01250260 0.79499978
v 0.07199996 -0.00000007 0.79499978
v -0.01250266 -0.07090617 0.79499978
v 0.00000006 -0.07200003 0.79499978
v 0.00000006 -0.07200003 0.79649991
v -0.01250266 -0.07090611 0.79649991
v -0.02462547 -0.06765789 0.79499978
v -0.02462547 -0.06765789 0.79649991
v -0.03600001 -0.06235391 0.79499978
v -0.03600001 -0.06235385 0.79649991
v -0.04628074 -0.05515522 0.79499978
v -0.04628074 -0.05515516 0.79649991
v -0.05515521 -0.04628075 0.79499978
v -0.05515521 -0.04628075 0.79649991
v -0.06235384 -0.03600002 0.79499978
v -0.06235384 -0.03600008 0.79649991
v -0.06765788 -0.02462543 0.79499978
v -0.06765788 -0.02462549 0.79649991
v -0.07090616 -0.01250262 0.79499978
v -0.07090616 -0.01250268 0.79649991
v -0.07200002 -0.00000007 0.79499978
v -0.07200002 -0.00000007 0.79649991
v -0.07090616 0.01250260 0.79499978
v -0.07090616 0.01250260 0.79649991
v -0.06765788 0.02462541 0.79499978
v -0.06765788 0.02462541 0.79649991
v -0.06235384 0.03600000 0.79499978
v -0.06235384 0.03600000 0.79649991
v -0.05515521 0.04628073 0.79499978
v -0.05515521 0.04628067 0.79649991
v -0.04628074 0.05515508 0.79499978
v -0.04628074 0.05515508 0.79649991
v -0.03600001 0.06235377 0.79499978
v -0.03600001 0.06235377 0.79649991
v -0.02462547 0.06765775 0.79499978
v -0.02462547 0.06765775 0.79649991
v -0.01250266 0.07090615 0.79499978
v -0.01250266 0.07090610 0.79649991
v 0.00000006 0.07199995 0.79499978
v 0.00000006 0.07200001 0.79649991
v 0.01250261 0.07090615 0.79499978
v 0.01250261 0.07090610 0.79649991
v 0.02462536 0.06765775 0.79499978
v 0.02462536 0.06765775 0.79649991
v 0.03599995 0.06235377 0.79499978
v 0.03599995 0.06235377 0.79649991
v 0.04628062 0.05515508 0.79649991
v 0.04628062 0.05515508 0.79499978
v 0.05515515 0.04628073 0.79499978
v 0.05515515 0.04628067 0.79649991
v 0.06235379 0.03600000 0.79499978
v 0.06235379 0.03600000 0.79649991
v 0.06765782 0.02462541 0.79499978
v 0.06765782 0.02462541 0.79649991
v 0.07090610 0.01250260 0.79499978
v 0.07090610 0.01250260 0.79649991
v 0.07199996 -0.00000007 0.79499978
v 0.07199996 -0.00000007 0.79649991
v 0.07090610 -0.01250262 0.79499978
v 0.07090610 -0.01250268 0.79649991
v 0.06765782 -0.02462543 0.79499978
v 0.06765782 -0.02462549 0.79649991
v 0.06235379 -0.03600002 0.79499978
v 0.06235379 -0.03600008 0.79649991
v 0.05515515 -0.04628075 0.79499978
v 0.05515515 -0.04628075 0.79649991
v 0.04628062 -0.05515522 0.79499978
v 0.04628062 -0.05515516 0.79649991
v 0.03599995 -0.06235391 0.79499978
v 0.03599995 -0.06235385 0.79649991
v 0.02462536 -0.06765789 0.79649991
v 0.02462536 -0.06765789 0.79499978
v 0.01250261 -0.07090617 0.79499978
v 0.01250261 -0.07090611 0.79649991
v 0.00000006 -0.07200003 0.79499978
v 0.00000006 -0.07200003 0.79649991
v 0.00049994 0.08800009 0.96059978
v 0.00049994 0.08800009 0.96099818
v 0.00049994 0.09049991 0.96099818
v 0.00049994 0.09089836 0.96059978
v -0.00049045 0.08790252 0.96059978
v -0.00046200 0.08780876 0.96059978
v -0.00041579 0.08772234 0.96059978
v -0.00049045 0.08790252 0.96059978
v -0.00041579 0.08772234 0.96059978
v -0.00035361 0.08764645 0.96059972
v -0.00049045 0.08790252 0.96059978
v -0.00035361 0.08764645 0.96059972
v -0.00027784 0.08758441 0.96059978
v -0.00027784 0.08758441 0.96059978
v -0.00019140 0.08753816 0.96059978
v -0.00009760 0.08750973 0.96059978
v -0.00049045 0.08790252 0.96059978
v -0.00019140 0.08753816 0.96059978
v 0.00046188 0.08780876 0.96059978
v 0.00035350 0.08764645 0.96059972
v 0.00041568 0.08772234 0.96059978
v 0.00049994 0.08800009 0.96059978
v -0.00050006 0.08800009 0.96059978
v -0.00049045 0.08790252 0.96059978
v 0.00049994 0.08800009 0.96059978
v -0.00009760 0.08750973 0.96059978
v -0.00000006 0.08750013 0.96059978
v 0.00049994 0.08800009 0.96059978
v -0.00000006 0.08750013 0.96059978
v 0.00009749 0.08750973 0.96059978
v 0.00049994 0.08800009 0.96059978
v 0.00009749 0.08750973 0.96059978
v 0.00019129 0.08753816 0.96059978
v 0.00049994 0.08800009 0.96059978
v 0.00019129 0.08753816 0.96059978
v 0.00027773 0.08758441 0.96059978
v 0.00049994 0.08800009 0.96059978
v 0.00027773 0.08758441 0.96059978
v 0.00035350 0.08764645 0.96059972
v 0.00049994 0.08800009 0.96059978
v 0.00046188 0.08780876 0.96059978
v 0.00049034 0.08790252 0.96059978
v 0.00049994 0.08800009 0.96059978
v -0.00049045 0.08790252 0.96059978
v -0.00009760 0.08750973 0.96059978
v 0.00049994 0.08800009 0.96059978
v 0.00035350 0.08764645 0.96059972
v 0.00046188 0.08780876 0.96059978
v -0.00016672 0.09089968 0.96059978
v -0.00050006 0.09089836 0.96059978
v -0.00050006 0.08800009 0.96059978
v 0.00016661 0.09089968 0.96059978
v -0.00050006 0.08800009 0.96059978
v 0.00049994 0.08800009 0.96059978
v 0.00016661 0.09089968 0.96059978
v 0.00049994 0.09089836 0.96059978
v -0.00050006 0.09049991 0.96099818
v -0.00050006 0.08800009 0.96099818
v -0.00050006 0.08800009 0.96059978
v -0.00050006 0.09089836 0.96059978
v -0.00050006 0.08800009 0.96099818
v -0.00049045 0.08790252 0.96059978
v -0.00050006 0.08800009 0.96059978
v -0.00046475 0.08781556 0.96099842
v -0.00046200 0.08780876 0.96059978
v -0.00041579 0.08772234 0.96059978
v -0.00036416 0.08765749 0.96099889
v -0.00035361 0.08764645 0.96059972
v -0.00027784 0.08758441 0.96059978
v -0.00021245 0.08754746 0.96099961
v -0.00019140 0.08753816 0.96059978
v -0.00010565 0.08751145 0.96099979
v -0.00009760 0.08750973 0.96059978
v -0.00000006 0.08750013 0.96059978
v 0.00002947 0.08750096 0.96099991
v 0.00009749 0.08750973 0.96059978
v 0.00018794 0.08753685 0.96099961
v 0.00019129 0.08753816 0.96059978
v 0.00027773 0.08758441 0.96059978
v 0.00035031 0.08764341 0.96099901
v 0.00035350 0.08764645 0.96059972
v 0.00041777 0.08772555 0.96099871
v 0.00041568 0.08772234 0.96059978
v 0.00046188 0.08780876 0.96059978
v 0.00046984 0.08782933 0.96099842
v 0.00049034 0.08790252 0.96059978
v 0.00049994 0.08800009 0.96099818
v 0.00049994 0.08800009 0.96059978
v 0.00049995 0.08800010 0.80900151
v 0.00049035 0.08790259 0.80939978
v 0.00049995 0.08800010 0.80939990
v 0.00046465 0.08781563 0.80900121
v 0.00041569 0.08772235 0.80939990
v 0.00046189 0.08780877 0.80939990
v 0.00036406 0.08765750 0.80900067
v 0.00027774 0.08758442 0.80939990
v 0.00035351 0.08764654 0.80939972
v 0.00021234 0.08754747 0.80900007
v 0.00019129 0.08753823 0.80939990
v 0.00010554 0.08751146 0.80899990
v 0.00000006 0.08750014 0.80939990
v 0.00009750 0.08750980 0.80939972
v -0.00002957 0.08750103 0.80899978
v -0.00009759 0.08750980 0.80939972
v -0.00018804 0.08753692 0.80900002
v -0.00027783 0.08758442 0.80939990
v -0.00019139 0.08753823 0.80939990
v -0.00035041 0.08764356 0.80900067
v -0.00035360 0.08764654 0.80939972
v -0.00041787 0.08772556 0.80900109
v -0.00046199 0.08780877 0.80939990
v -0.00041578 0.08772235 0.80939990
v -0.00046995 0.08782934 0.80900121
v -0.00049044 0.08790259 0.80939978
v -0.00050005 0.08800010 0.80900151
v -0.00050005 0.08800010 0.80939990
v -0.00050005 -0.07599831 0.79699987
v -0.00050005 -0.07569838 0.79949993
v -0.00050005 -0.07599837 0.79949981
v -0.00050005 -0.07569838 0.79669982
v -0.00049044 -0.07569832 0.79959750
v -0.00050005 -0.07599837 0.79949981
v -0.00050005 -0.07569838 0.79949993
v -0.00046995 -0.07599849 0.79967070
v -0.00046199 -0.07569838 0.79969120
v -0.00041787 -0.07599879 0.79977453
v -0.00041578 -0.07569832 0.79977769
v -0.00035360 -0.07569838 0.79985350
v -0.00035041 -0.07599921 0.79985648
v -0.00027783 -0.07569838 0.79991561
v -0.00018804 -0.07599968 0.79996318
v -0.00019139 -0.07569838 0.79996181
v -0.00009759 -0.07569838 0.79999018
v -0.00002957 -0.07599992 0.79999900
v 0.00000006 -0.07569832 0.79999989
v 0.00010554 -0.07599992 0.79998851
v 0.00009750 -0.07569838 0.79999018
v 0.00019129 -0.07569838 0.79996181
v 0.00021234 -0.07599962 0.79995251
v 0.00027774 -0.07569838 0.79991561
v 0.00036406 -0.07599909 0.79984260
v 0.00035351 -0.07569838 0.79985350
v 0.00041569 -0.07569832 0.79977769
v 0.00046465 -0.07599854 0.79968441
v 0.00046189 -0.07569838 0.79969120
v 0.00049035 -0.07569832 0.79959750
v 0.00049995 -0.07599837 0.79949981
v 0.00049995 -0.07569838 0.79949993
f 1 2 3
f 4 5 6
f 7 8 9
f 10 11 12
f 10 9 11
f 13 14 15
f 16 9 10
f 17 18 19
f 20 21 22
f 17 23 24
f 20 25 26
f 27 28 29
f 30 31 32
f 33 7 9
f 33 17 7
f 34 35 36
f 37 38 39
f 40 41 42
f 43 44 45
f 46 44 43
f 47 48 49
f 47 50 48
f 51 52 33
f 53 46 54
f 55 56 57
f 58 59 60
f 61 62 63
f 64 56 55
f 65 66 67
f 64 9 16
f 64 33 9
f 64 16 56
f 64 51 33
f 68 69 70
f 71 72 73
f 71 74 72
f 75 76 77
f 78 79 80
f 81 82 83
f 84 85 86
f 87 88 89
f 90 91 92
f 93 94 95
f 96 97 98
f 99 100 101
f 102 103 104
f 105 106 107
f 108 109 110
f 111 112 113
f 114 115 116
f 117 118 119
f 120 121 90
f 122 114 116
f 123 124 125
f 126 127 128
f 129 130 131
f 132 129 131
f 133 134 135
f 136 137 138
f 136 138 139
f 140 141 142
f 143 144 145
f 146 147 148
f 149 150 151
f 149 152 150
f 153 154 155
f 156 157 158
f 159 160 161
f 159 161 162
f 163 164 165
f 166 167 168
f 169 157 156
f 170 171 172
f 173 174 175
f 176 177 178
f 179 157 169
f 180 181 182
f 180 183 181
f 184 185 186
f 187 186 188
f 189 190 191
f 192 193 194
f 192 194 190
f 195 189 196
f 197 198 199
f 200 201 193
f 202 203 204
f 205 195 206
f 207 208 197
f 209 210 211
f 212 213 214
f 215 205 216
f 217 218 212
f 219 220 221
f 222 223 224
f 225 215 226
f 227 223 222
f 228 229 230
f 231 227 222
f 232 225 233
f 234 235 236
f 237 238 239
f 240 241 242
f 243 238 237
f 244 234 245
f 246 247 240
f 248 249 250
f 251 252 253
f 254 244 255
f 256 257 258
f 259 250 260
f 261 251 262
f 263 264 265
f 266 256 267
f 268 269 270
f 271 272 273
f 274 267 275
f 276 277 278
f 279 272 271
f 279 280 272
f 281 282 283
f 284 285 286
f 287 274 275
f 288 289 279
f 290 291 292
f 293 294 295
f 296 297 298
f 299 300 301
f 302 292 303
f 304 305 306
f 307 308 309
f 310 311 312
f 313 302 303
f 314 311 310
f 315 316 317
f 318 314 310
f 319 313 320
f 321 322 323
f 324 325 326
f 327 328 329
f 330 320 331
f 330 331 332
f 333 334 335
f 336 337 325
f 338 339 327
f 340 330 332
f 340 332 341
f 342 341 343
f 342 340 341
f 344 345 338
f 346 347 348
f 346 348 349
f 350 351 352
f 353 354 355
f 350 356 347
f 357 358 359
f 360 346 361
f 360 361 362
f 360 347 346
f 360 350 347
f 363 350 360
f 364 365 366
f 367 368 369
f 370 371 372
f 373 374 375
f 376 377 378
f 379 380 373
f 379 375 381
f 379 382 383
f 379 373 375
f 384 385 386
f 387 388 389
f 390 391 392
f 393 363 394
f 395 363 393
f 396 397 398
f 395 383 350
f 395 350 363
f 399 400 395
f 401 402 403
f 404 405 406
f 399 407 408
f 404 408 379
f 399 379 400
f 409 410 411
f 409 411 412
f 413 412 414
f 413 409 412
f 415 414 416
f 415 413 414
f 417 416 418
f 417 415 416
f 419 418 420
f 419 417 418
f 421 419 420
f 421 420 422
f 423 421 422
f 423 422 424
f 425 423 424
f 425 424 426
f 427 425 426
f 427 426 428
f 429 427 428
f 429 428 430
f 431 429 430
f 431 430 432
f 433 431 432
f 433 432 434
f 435 433 434
f 435 434 436
f 437 435 436
f 437 436 438
f 439 437 438
f 439 438 440
f 441 439 440
f 441 440 442
f 443 441 442
f 443 442 444
f 445 443 444
f 445 444 446
f 447 446 448
f 447 445 446
f 449 448 450
f 449 447 448
f 451 452 453
f 451 450 452
f 451 449 450
f 454 451 453
f 455 453 456
f 455 454 453
f 457 456 458
f 457 455 456
f 459 458 460
f 459 457 458
f 461 460 462
f 461 459 460
f 463 462 464
f 463 461 462
f 465 464 466
f 465 463 464
f 467 466 468
f 467 465 466
f 469 468 470
f 469 467 468
f 471 470 472
f 471 469 470
f 473 471 472
f 473 472 474
f 475 473 474
f 475 476 477
f 475 474 476
f 478 475 477
f 479 478 477
f 479 477 480
f 481 479 480
f 481 480 482
f 483 484 485
f 483 485 486
f 487 488 489
f 490 491 492
f 493 494 495
f 487 496 497
f 498 499 500
f 501 502 503
f 504 505 506
f 507 508 509
f 510 511 512
f 513 514 515
f 516 517 518
f 519 520 521
f 522 523 524
f 525 526 527
f 528 529 530
f 531 532 533
f 534 535 536
f 537 531 533
f 538 537 522
f 539 540 541
f 542 539 541
f 543 544 545
f 546 547 544
f 546 548 547
f 546 544 543
f 549 550 548
f 549 551 550
f 549 548 546
f 552 553 551
f 552 551 549
f 554 555 553
f 554 556 555
f 554 553 552
f 557 558 556
f 557 556 554
f 559 560 558
f 559 561 560
f 559 558 557
f 562 563 561
f 562 561 559
f 564 565 563
f 564 566 565
f 564 563 562
f 567 568 566
f 567 566 564
f 569 570 568
f 569 568 567
f 571 572 573
f 574 575 576
f 574 576 572
f 574 572 571
f 577 578 579
f 577 579 575
f 577 575 574
f 580 581 578
f 580 578 577
f 582 583 584
f 582 584 581
f 582 581 580
f 585 586 583
f 585 583 582
f 587 588 589
f 587 589 586
f 587 586 585
f 590 591 588
f 590 588 587
f 592 593 594
f 592 594 591
f 592 591 590
f 595 596 593
f 595 593 592
f 597 598 596
f 597 596 595
f 599 600 601
f 602 600 599
f 603 604 605
f 603 606 604
f 607 608 606
f 607 606 603
f 609 608 607
f 610 611 608
f 610 608 609
f 612 613 611
f 612 611 610
f 614 613 612
f 615 616 613
f 615 613 614
f 617 618 616
f 617 616 615
f 619 618 617
f 620 621 618
f 620 618 619
f 622 623 621
f 622 621 620
f 624 623 622
f 625 626 623
f 625 623 624
f 627 626 625
f 628 629 626
f 628 626 627
f 630 629 628

