# https://github.com/mikedh/trimesh
v 0.00547683 0.24115661 -0.06566858
v 0.00000003 0.24055344 -0.06672375
v 0.00000001 0.24065968 -0.06663583
v 0.00000003 0.24075252 -0.06650876
v 0.00000005 0.24094030 -0.06609653
v 0.00000001 0.24099989 -0.06598048
v 0.00000001 0.24106066 -0.06589000
v -0.00000057 0.24120104 -0.06576353
v 0.01079409 0.24033183 -0.06639020
v 0.01021777 0.24105644 -0.06542717
v 0.01064318 0.24103028 -0.06540714
v 0.01098668 0.24097152 -0.06541234
v 0.01129238 0.24087852 -0.06544046
v 0.01156902 0.24074911 -0.06549221
v 0.01095083 0.24029377 -0.06639902
v 0.01181410 0.24058586 -0.06556623
v 0.01107368 0.24024424 -0.06641732
v 0.01197152 0.24044913 -0.06563221
v 0.01122374 0.24014716 -0.06646095
v 0.01211092 0.24029906 -0.06570761
v 0.01134704 0.24001475 -0.06652741
v 0.01139943 0.23993394 -0.06656991
v 0.01228702 0.24004829 -0.06583826
v 0.01148673 0.23973107 -0.06668019
v 0.01144313 0.23984867 -0.06661569
v 0.01151498 0.23960252 -0.06675230
v 0.01242054 0.23976581 -0.06599091
v 0.01154721 0.23922640 -0.06696694
v 0.01152411 0.23660983 -0.06844418
v 0.01153081 0.23289846 -0.07042360
v 0.01252986 0.22658767 -0.07286339
v 0.01153052 0.22627850 -0.07364380
v 0.01252563 0.22349830 -0.07425104
v 0.01153110 0.22262375 -0.07525842
v 0.01253154 0.22053897 -0.07550369
v 0.01152046 0.22074282 -0.07604675
v 0.01251166 0.22019696 -0.07564561
v 0.01243672 0.21987855 -0.07578170
v 0.01234140 0.21963689 -0.07588772
v 0.01150067 0.22049595 -0.07614952
v 0.01221397 0.21940929 -0.07599024
v 0.01146575 0.22033486 -0.07621805
v 0.01138902 0.22013138 -0.07630692
v 0.01205802 0.21919608 -0.07608883
v 0.01129350 0.21997896 -0.07637618
v 0.01067314 0.21952963 -0.07656382
v 0.01054853 0.21968973 -0.07654911
v 0.01076657 0.21969926 -0.07652919
v 0.01073377 0.21942945 -0.07654826
v 0.01095713 0.21974340 -0.07649712
v 0.01187345 0.21900511 -0.07618044
v 0.01120533 0.21988559 -0.07642077
v 0.01112029 0.21982215 -0.07645296
v 0.01079828 0.21930780 -0.07651649
v 0.01166549 0.21884423 -0.07626133
v 0.01101059 0.21888340 -0.07638709
v 0.01143830 0.21871664 -0.07633011
v 0.01110121 0.21873960 -0.07636939
v 0.01119435 0.21862571 -0.07638513
v 0.01095542 0.21858205 -0.07642065
v 0.01110121 0.21873960 -0.07636939
v 0.01119435 0.21862571 -0.07638513
v 0.01101059 0.21888340 -0.07638709
v 0.01063191 0.21856128 -0.07645302
v 0.01079828 0.21930780 -0.07651649
v 0.01073377 0.21942945 -0.07654826
v 0.00996927 0.21856532 -0.07649843
v 0.01067314 0.21952963 -0.07656382
v 0.01054853 0.21968973 -0.07654911
v 0.00000003 0.21984445 -0.07687043
v 0.00000002 0.21971089 -0.07690191
v 0.00000004 0.21955433 -0.07689671
v 0.00000002 0.21911658 -0.07678895
v 0.00000003 0.21900027 -0.07676558
v -0.00000000 0.21890068 -0.07675605
v 0.00000001 0.21879201 -0.07676236
v -0.00000006 0.21869496 -0.07678859
v 0.00576499 0.23063262 -0.07151596
v 0.00576524 0.22393849 -0.07504182
v 0.00572875 0.23109150 -0.07171075
v 0.00576525 0.22365396 -0.07475720
v 0.00574397 0.23076430 -0.07145153
v 0.00569200 0.23088881 -0.07139175
v 0.00561200 0.23100011 -0.07133959
v 0.00567688 0.23119582 -0.07166104
v 0.00561774 0.23127507 -0.07162397
v 0.00551176 0.23108789 -0.07129978
v 0.00553324 0.23135370 -0.07158820
v 0.00541980 0.23114124 -0.07127677
v 0.00543205 0.23141678 -0.07156079
v 0.00528216 0.23119061 -0.07125740
v 0.00531732 0.23146255 -0.07154249
v 0.00519547 0.23148853 -0.07153420
v 0.00513271 0.23121223 -0.07125215
v 0.00374084 0.23151192 -0.07157050
v 0.00323798 0.23123451 -0.07129841
v 0.00128120 0.23152953 -0.07160692
v 0.00128121 0.23124649 -0.07132392
v 0.00661958 0.22392531 -0.07501046
v 0.00576524 0.22393849 -0.07504182
v 0.00576525 0.22365396 -0.07475720
v 0.00661958 0.22392531 -0.07501046
v 0.00576525 0.22365396 -0.07475720
v 0.00661956 0.22364047 -0.07472561
v 0.00747370 0.22390842 -0.07497542
v 0.00661956 0.22364047 -0.07472561
v 0.00747370 0.22362338 -0.07469045
v 0.00747370 0.22390842 -0.07497542
v 0.00661958 0.22392531 -0.07501046
v 0.00661956 0.22364047 -0.07472561
v 0.00832760 0.22388794 -0.07493685
v 0.00747370 0.22362338 -0.07469045
v 0.00832757 0.22360268 -0.07465158
v 0.00832760 0.22388794 -0.07493685
v 0.00747370 0.22390842 -0.07497542
v 0.00747370 0.22362338 -0.07469045
v 0.00521540 0.23377459 -0.07036595
v 0.00128119 0.23352832 -0.07015775
v 0.00128120 0.23381245 -0.07044201
v 0.00558482 0.23345824 -0.07008694
v 0.00572313 0.23371764 -0.07037471
v 0.00604709 0.23336048 -0.07011823
v 0.00612126 0.23362012 -0.07040767
v 0.00646832 0.23321146 -0.07017642
v 0.00656310 0.23345014 -0.07047492
v 0.00681922 0.23303635 -0.07025015
v 0.00688688 0.23327726 -0.07054810
v 0.00722136 0.23304518 -0.07065021
v 0.00716569 0.23280779 -0.07035057
v 0.00755109 0.23274402 -0.07078676
v 0.00749527 0.23252116 -0.07048033
v 0.00775281 0.23250866 -0.07089566
v 0.00780833 0.23215470 -0.07065026
v 0.00794723 0.23222262 -0.07102995
v 0.00804800 0.23175770 -0.07083808
v 0.00812815 0.23186034 -0.07120262
v 0.00821281 0.23134202 -0.07103787
v 0.00822899 0.23156838 -0.07134353
v 0.00830439 0.23120394 -0.07152139
v 0.00829552 0.23097989 -0.07121424
v 0.00832758 0.22776699 -0.07318287
v 0.00832755 0.22721805 -0.07302582
v 0.00832760 0.22388794 -0.07493685
v 0.00832755 0.22721805 -0.07302582
v 0.00832758 0.22776699 -0.07318287
v 0.00832757 0.22360268 -0.07465158
v 0.00832755 0.22721805 -0.07302582
v 0.00832760 0.22388794 -0.07493685
v -0.00128115 0.23569983 -0.06944209
v -0.00128112 0.23663844 -0.06893288
v -0.00128115 0.23635168 -0.06864607
v -0.00128115 0.23569983 -0.06944209
v -0.00128115 0.23635168 -0.06864607
v -0.00128113 0.23541397 -0.06915627
v -0.00128116 0.23475759 -0.06994484
v -0.00128113 0.23541397 -0.06915627
v -0.00128115 0.23447263 -0.06965993
v -0.00128116 0.23475759 -0.06994484
v -0.00128115 0.23569983 -0.06944209
v -0.00128113 0.23541397 -0.06915627
v -0.00128110 0.23381212 -0.07044123
v -0.00128115 0.23447263 -0.06965993
v -0.00128111 0.23352797 -0.07015704
v -0.00128110 0.23381212 -0.07044123
v -0.00576519 0.22898886 -0.07231395
v -0.00576516 0.22686285 -0.07372807
v -0.00576519 0.22658053 -0.07344572
v -0.00576518 0.22990721 -0.07228802
v -0.00576516 0.22686285 -0.07372807
v -0.00576519 0.22898886 -0.07231395
v -0.00576518 0.23058334 -0.07153618
v -0.00576518 0.22990721 -0.07228802
v -0.00576519 0.22898886 -0.07231395
v -0.00576510 0.23090750 -0.07179707
v -0.00576518 0.23058334 -0.07153618
v -0.00575386 0.23072748 -0.07146518
v -0.00576518 0.22990721 -0.07228802
v -0.00573908 0.23106579 -0.07171963
v -0.00568897 0.23089616 -0.07138412
v -0.00570022 0.23115785 -0.07167552
v -0.00564742 0.23123947 -0.07163715
v -0.00557731 0.23103374 -0.07132016
v -0.00558356 0.23130982 -0.07160471
v -0.00549943 0.23137647 -0.07157485
v -0.00549432 0.23109806 -0.07129149
v -0.00540368 0.23142949 -0.07155226
v -0.00540053 0.23114899 -0.07126974
v -0.00529784 0.23146740 -0.07153748
v -0.00529711 0.23118569 -0.07125549
v -0.00518862 0.23120645 -0.07124929
v -0.00518641 0.23148860 -0.07153116
v -0.00388489 0.23122706 -0.07128273
v -0.00379900 0.23151000 -0.07156675
v -0.00128115 0.23124614 -0.07132320
v -0.00128115 0.23152888 -0.07160591
v -0.00128115 0.22828969 -0.07318018
v -0.00128115 0.23152888 -0.07160591
v -0.00128115 0.23124614 -0.07132320
v -0.00128111 0.22688125 -0.07342254
v -0.00128115 0.22828969 -0.07318018
v -0.00128115 0.23124614 -0.07132320
v -0.00127559 0.22719948 -0.07368939
v -0.00128111 0.22688125 -0.07342254
v -0.00128733 0.22683729 -0.07385622
v -0.00129015 0.22653989 -0.07357953
v -0.00131319 0.22673351 -0.07390355
v -0.00132045 0.22643092 -0.07362913
v -0.00140135 0.22657271 -0.07397620
v -0.00141192 0.22627628 -0.07369886
v -0.00153669 0.22644506 -0.07403295
v -0.00154329 0.22615722 -0.07375167
v -0.00163731 0.22638765 -0.07405786
v -0.00171804 0.22607329 -0.07378779
v -0.00177674 0.22634077 -0.07407735
v -0.00191315 0.22604030 -0.07380019
v -0.00192856 0.22632317 -0.07408319
v -0.00433942 0.22630045 -0.07403772
v -0.00493690 0.22600587 -0.07374047
v -0.00518391 0.22629263 -0.07401197
v -0.00522006 0.22601397 -0.07372628
v -0.00532098 0.22631712 -0.07399563
v -0.00536682 0.22604915 -0.07370465
v -0.00545999 0.22637330 -0.07396458
v -0.00549344 0.22611022 -0.07367192
v -0.00556163 0.22644180 -0.07392929
v -0.00558489 0.22617954 -0.07363664
v -0.00566416 0.22655134 -0.07387511
v -0.00567636 0.22628666 -0.07358406
v -0.00573288 0.22668067 -0.07381307
v -0.00573706 0.22641005 -0.07352512
v -0.00575737 0.22677104 -0.07377058
v -0.00576519 0.22658053 -0.07344572
v -0.00576516 0.22686285 -0.07372807
v -0.00163731 0.22638765 -0.07405786
v -0.00140135 0.22657271 -0.07397620
v -0.00153669 0.22644506 -0.07403295
v -0.00131319 0.22673351 -0.07390355
v -0.00128733 0.22683729 -0.07385622
v -0.00177674 0.22634077 -0.07407735
v -0.00192856 0.22632317 -0.07408319
v -0.00127559 0.22719948 -0.07368939
v -0.00433942 0.22630045 -0.07403772
v -0.00128115 0.22828969 -0.07318018
v -0.00576516 0.22686285 -0.07372807
v -0.00518391 0.22629263 -0.07401197
v -0.00532098 0.22631712 -0.07399563
v -0.00545999 0.22637330 -0.07396458
v -0.00556163 0.22644180 -0.07392929
v -0.00566416 0.22655134 -0.07387511
v -0.00573288 0.22668067 -0.07381307
v -0.00575737 0.22677104 -0.07377058
v -0.00379900 0.23151000 -0.07156675
v -0.00128115 0.23152888 -0.07160591
v -0.00576518 0.22990721 -0.07228802
v -0.00518641 0.23148860 -0.07153116
v -0.00576510 0.23090750 -0.07179707
v -0.00573908 0.23106579 -0.07171963
v -0.00529784 0.23146740 -0.07153748
v -0.00570022 0.23115785 -0.07167552
v -0.00564742 0.23123947 -0.07163715
v -0.00540368 0.23142949 -0.07155226
v -0.00558356 0.23130982 -0.07160471
v -0.00549943 0.23137647 -0.07157485
v -0.00542298 0.21866809 -0.07669543
v 0.00000003 0.21984445 -0.07687043
v 0.00000002 0.21971089 -0.07690191
v 0.00000004 0.21955433 -0.07689671
v 0.00000002 0.21911658 -0.07678895
v 0.00000003 0.21900027 -0.07676558
v -0.00000000 0.21890068 -0.07675605
v 0.00000001 0.21879201 -0.07676236
v -0.00000006 0.21869496 -0.07678859
v -0.01042703 0.21968631 -0.07655220
v -0.01089520 0.21857618 -0.07642017
v -0.01118027 0.21863762 -0.07637398
v -0.01068430 0.21969435 -0.07653008
v -0.01144984 0.21873502 -0.07631420
v -0.01087519 0.21972847 -0.07650201
v -0.01097917 0.21976461 -0.07647954
v -0.01175238 0.21890481 -0.07622235
v -0.01107970 0.21981682 -0.07645081
v -0.01117544 0.21988587 -0.07641552
v -0.01125306 0.21995667 -0.07638071
v -0.01198215 0.21908648 -0.07613091
v -0.01233122 0.21952885 -0.07592379
v -0.01143900 0.22040001 -0.07618944
v -0.01217496 0.21929450 -0.07603143
v -0.01149700 0.22077604 -0.07602833
v -0.01244261 0.21977922 -0.07581304
v -0.01250567 0.22004391 -0.07570009
v -0.01252907 0.22063431 -0.07545613
v -0.01153047 0.22377545 -0.07475428
v -0.01256212 0.22403604 -0.07400350
v -0.01153055 0.22780743 -0.07292752
v -0.01252798 0.23319100 -0.06960760
v -0.01152743 0.23908785 -0.06703971
v -0.01246852 0.23658685 -0.06778722
v -0.01243291 0.23952520 -0.06612067
v -0.01149955 0.23945415 -0.06683093
v -0.01236117 0.23981509 -0.06595837
v -0.01143738 0.23974916 -0.06666534
v -0.01226902 0.24002782 -0.06584255
v -0.01139421 0.23987013 -0.06659883
v -0.01215771 0.24020062 -0.06575178
v -0.01134326 0.23997325 -0.06654327
v -0.01121245 0.24013159 -0.06646244
v -0.01200310 0.24038287 -0.06565915
v -0.01182796 0.24053589 -0.06558530
v -0.01104054 0.24021871 -0.06642662
v -0.01171819 0.24060951 -0.06555210
v -0.01131348 0.24086434 -0.06543814
v -0.01153152 0.24071319 -0.06550799
v -0.01151682 0.24076246 -0.06548005
v -0.01054327 0.24102812 -0.06540863
v -0.01075442 0.24028917 -0.06640927
v -0.01081575 0.24100088 -0.06540130
v -0.00496894 0.24051543 -0.06664346
v 0.00000001 0.24065968 -0.06663583
v 0.00000003 0.24055344 -0.06672375
v 0.00000003 0.24075252 -0.06650876
v 0.00000005 0.24094030 -0.06609653
v 0.00000001 0.24099989 -0.06598048
v -0.00000057 0.24120104 -0.06576353
v -0.01136442 0.22009616 -0.07631540
v -0.01135390 0.22012284 -0.07630698
v -0.01081443 0.24033102 -0.06638061
v -0.01106480 0.24094902 -0.06541018
v -0.01134326 0.23997325 -0.06654327
v -0.01121245 0.24013159 -0.06646244
v -0.01104054 0.24021871 -0.06642662
v -0.01139421 0.23987013 -0.06659883
v -0.01143738 0.23974916 -0.06666534
v -0.01075442 0.24028917 -0.06640927
v -0.01149955 0.23945415 -0.06683093
v -0.01152743 0.23908785 -0.06703971
v -0.00575308 0.23371024 -0.07037304
v -0.00608087 0.23363045 -0.07039975
v -0.00496894 0.24051543 -0.06664346
v -0.00520657 0.23377357 -0.07036303
v -0.00128112 0.23663844 -0.06893288
v 0.00000003 0.24055344 -0.06672375
v -0.00394827 0.23379126 -0.07039803
v -0.00128115 0.23569983 -0.06944209
v -0.01153055 0.22780743 -0.07292752
v -0.00823381 0.23154798 -0.07134752
v -0.00831595 0.23109895 -0.07156704
v -0.00128116 0.23475759 -0.06994484
v -0.00128110 0.23381212 -0.07044123
v -0.00831787 0.22667150 -0.07368612
v -0.00827302 0.22629489 -0.07386117
v -0.01153047 0.22377545 -0.07475428
v -0.00820070 0.22600403 -0.07399772
v -0.00806736 0.22566593 -0.07415830
v -0.00785951 0.22530329 -0.07433306
v -0.00759684 0.22497211 -0.07449536
v -0.00731829 0.22470626 -0.07462822
v -0.00707342 0.22452049 -0.07472287
v -0.00679550 0.22435077 -0.07481132
v -0.01149700 0.22077604 -0.07602833
v -0.00648428 0.22420307 -0.07489090
v 0.00521540 0.23377459 -0.07036595
v 0.00128122 0.23570018 -0.06944285
v 0.00128119 0.23663878 -0.06893365
v 0.00128122 0.23475803 -0.06994563
v 0.00128120 0.23381245 -0.07044201
v 0.00572313 0.23371764 -0.07037471
v -0.01117544 0.21988587 -0.07641552
v -0.01125306 0.21995667 -0.07638071
v -0.01135390 0.22012284 -0.07630698
v -0.01087519 0.21972847 -0.07650201
v -0.01097917 0.21976461 -0.07647954
v -0.01107970 0.21981682 -0.07645081
v -0.01068430 0.21969435 -0.07653008
v -0.01042703 0.21968631 -0.07655220
v -0.01143900 0.22040001 -0.07618944
v -0.00609840 0.22407140 -0.07496576
v -0.00558840 0.22397244 -0.07503031
v 0.01134704 0.24001475 -0.06652741
v 0.01107368 0.24024424 -0.06641732
v 0.01122374 0.24014716 -0.06646095
v 0.01139943 0.23993394 -0.06656991
v 0.01095083 0.24029377 -0.06639902
v 0.01144313 0.23984867 -0.06661569
v 0.01148673 0.23973107 -0.06668019
v 0.01079409 0.24033183 -0.06639020
v 0.01151498 0.23960252 -0.06675230
v 0.01154721 0.23922640 -0.06696694
v 0.00561774 0.23127507 -0.07162397
v 0.00543205 0.23141678 -0.07156079
v 0.00553324 0.23135370 -0.07158820
v 0.00531732 0.23146255 -0.07154249
v 0.00567688 0.23119582 -0.07166104
v 0.00519547 0.23148853 -0.07153420
v 0.00572875 0.23109150 -0.07171075
v 0.00374084 0.23151192 -0.07157050
v 0.00128075 0.22686763 -0.07384263
v 0.00128120 0.23152953 -0.07160692
v 0.01152411 0.23660983 -0.06844418
v 0.00688688 0.23327726 -0.07054810
v 0.00656310 0.23345014 -0.07047492
v 0.00722136 0.23304518 -0.07065021
v 0.01153081 0.23289846 -0.07042360
v 0.00755109 0.23274402 -0.07078676
v 0.00775281 0.23250866 -0.07089566
v 0.00794723 0.23222262 -0.07102995
v 0.00812815 0.23186034 -0.07120262
v 0.00822899 0.23156838 -0.07134353
v 0.00830439 0.23120394 -0.07152139
v 0.00000003 0.21984445 -0.07687043
v -0.00031604 0.22438133 -0.07496385
v 0.00013236 0.22466946 -0.07483755
v -0.00070683 0.22420435 -0.07503979
v -0.00110352 0.22408237 -0.07509039
v -0.00147698 0.22401528 -0.07511614
v -0.00194837 0.22398247 -0.07512455
v 0.00576524 0.22393849 -0.07504182
v 0.00125796 0.22656290 -0.07398246
v 0.00120096 0.22626278 -0.07411967
v 0.00108782 0.22591200 -0.07427941
v 0.00092669 0.22557566 -0.07443182
v 0.00070827 0.22524422 -0.07458125
v 0.00044330 0.22494149 -0.07471679
v 0.01153052 0.22627850 -0.07364380
v 0.00832758 0.22776699 -0.07318287
v 0.00832760 0.22388794 -0.07493685
v 0.01153110 0.22262375 -0.07525842
v 0.01152046 0.22074282 -0.07604675
v 0.01054853 0.21968973 -0.07654911
v 0.00747370 0.22390842 -0.07497542
v 0.00661958 0.22392531 -0.07501046
v 0.01150067 0.22049595 -0.07614952
v 0.01146575 0.22033486 -0.07621805
v 0.01138902 0.22013138 -0.07630692
v 0.01129350 0.21997896 -0.07637618
v 0.01076657 0.21969926 -0.07652919
v 0.01112029 0.21982215 -0.07645296
v 0.01095713 0.21974340 -0.07649712
v 0.01120533 0.21988559 -0.07642077
v -0.01039889 0.23830308 -0.06758557
v -0.00813282 0.23184635 -0.07120351
v -0.00799607 0.23213439 -0.07106607
v -0.00772393 0.23254327 -0.07087402
v -0.00750257 0.23279196 -0.07075946
v -0.00725205 0.23301853 -0.07065700
v -0.00698776 0.23321189 -0.07057153
v -0.00670245 0.23337953 -0.07049964
v -0.00639849 0.23351991 -0.07044201
v 0.00004847 0.23778793 -0.06830500
v -0.00042704 0.23664221 -0.06893681
v 0.00042707 0.23664236 -0.06893706
v 0.01049573 0.23830302 -0.06758563
v 0.00612126 0.23362012 -0.07040767
v 0.00042708 0.23635539 -0.06865005
v 0.00128119 0.23663878 -0.06893365
v 0.00128121 0.23635201 -0.06864677
v 0.00042707 0.23664236 -0.06893706
v 0.00128119 0.23663878 -0.06893365
v 0.00042708 0.23635539 -0.06865005
v -0.00042704 0.23664221 -0.06893681
v 0.00042708 0.23635539 -0.06865005
v -0.00042702 0.23635526 -0.06864981
v -0.00042704 0.23664221 -0.06893681
v 0.00042707 0.23664236 -0.06893706
v 0.00042708 0.23635539 -0.06865005
v -0.00128112 0.23663844 -0.06893288
v -0.00042702 0.23635526 -0.06864981
v -0.00128115 0.23635168 -0.06864607
v -0.00128112 0.23663844 -0.06893288
v -0.00042704 0.23664221 -0.06893681
v -0.00042702 0.23635526 -0.06864981
v 0.00128119 0.22760178 -0.07308851
v 0.00128121 0.23124649 -0.07132392
v 0.00128120 0.23152953 -0.07160692
v 0.00128075 0.22686763 -0.07384263
v 0.00128120 0.23152953 -0.07160692
v 0.00124837 0.22621346 -0.07373004
v 0.00125796 0.22656290 -0.07398246
v 0.00120096 0.22626278 -0.07411967
v 0.00116270 0.22584185 -0.07389949
v 0.00108782 0.22591200 -0.07427941
v 0.00102490 0.22548340 -0.07406221
v 0.00092669 0.22557566 -0.07443182
v 0.00083633 0.22514288 -0.07421599
v 0.00070827 0.22524422 -0.07458125
v 0.00052165 0.22473916 -0.07439695
v 0.00044330 0.22494149 -0.07471679
v 0.00023419 0.22446708 -0.07451789
v 0.00013236 0.22466946 -0.07483755
v -0.00009002 0.22422978 -0.07462227
v -0.00031604 0.22438133 -0.07496385
v -0.00043920 0.22403505 -0.07470679
v -0.00070683 0.22420435 -0.07503979
v -0.00081344 0.22388199 -0.07477181
v -0.00110352 0.22408237 -0.07509039
v -0.00119206 0.22377746 -0.07481454
v -0.00147698 0.22401528 -0.07511614
v -0.00154889 0.22372168 -0.07483523
v -0.00194837 0.22398247 -0.07512455
v -0.00201314 0.22369643 -0.07484011
v -0.00530881 0.22366968 -0.07476507
v -0.00558840 0.22397244 -0.07503031
v -0.00587789 0.22373569 -0.07471316
v -0.00609840 0.22407140 -0.07496576
v -0.00635655 0.22386901 -0.07463382
v -0.00648428 0.22420307 -0.07489090
v -0.00674535 0.22403984 -0.07454091
v -0.00679550 0.22435077 -0.07481132
v -0.00707342 0.22452049 -0.07472287
v -0.00717555 0.22430903 -0.07440118
v -0.00731829 0.22470626 -0.07462822
v -0.00747631 0.22456458 -0.07427263
v -0.00759684 0.22497211 -0.07449536
v -0.00770852 0.22481690 -0.07414804
v -0.00785951 0.22530329 -0.07433306
v -0.00790681 0.22509176 -0.07401441
v -0.00806736 0.22566593 -0.07415830
v -0.00806940 0.22538668 -0.07387285
v -0.00819350 0.22569709 -0.07372563
v -0.00820070 0.22600403 -0.07399772
v -0.00827747 0.22601795 -0.07357512
v -0.00827302 0.22629489 -0.07386117
v -0.00832093 0.22634661 -0.07342254
v -0.00831787 0.22667150 -0.07368612
v -0.00832752 0.23031044 -0.07153831
v -0.00831595 0.23109895 -0.07156704
v -0.00829395 0.23097883 -0.07120894
v -0.00823381 0.23154798 -0.07134752
v -0.00818158 0.23143655 -0.07098638
v -0.00813282 0.23184635 -0.07120351
v -0.00797678 0.23188923 -0.07076983
v -0.00799607 0.23213439 -0.07106607
v -0.00776463 0.23221095 -0.07061844
v -0.00772393 0.23254327 -0.07087402
v -0.00750771 0.23250666 -0.07048164
v -0.00750257 0.23279196 -0.07075946
v -0.00725205 0.23301853 -0.07065700
v -0.00720997 0.23277169 -0.07036160
v -0.00698776 0.23321189 -0.07057153
v -0.00687900 0.23299968 -0.07026117
v -0.00670245 0.23337953 -0.07049964
v -0.00651782 0.23318815 -0.07018147
v -0.00639849 0.23351991 -0.07044201
v -0.00613249 0.23333336 -0.07012407
v -0.00608087 0.23363045 -0.07039975
v -0.00560679 0.23345356 -0.07008445
v -0.00575308 0.23371024 -0.07037304
v -0.00520657 0.23377357 -0.07036303
v -0.00416447 0.23350583 -0.07010959
v -0.00394827 0.23379126 -0.07039803
v -0.00128111 0.23352797 -0.07015704
v -0.00128110 0.23381212 -0.07044123
v 0.00832755 0.22721805 -0.07302582
v 0.00832757 0.22360268 -0.07465158
v 0.00747370 0.22362338 -0.07469045
v 0.00661956 0.22364047 -0.07472561
v 0.00576525 0.22365396 -0.07475720
v 0.00576499 0.23063262 -0.07151596
v 0.00829552 0.23097989 -0.07121424
v 0.00574397 0.23076430 -0.07145153
v 0.00804800 0.23175770 -0.07083808
v 0.00821281 0.23134202 -0.07103787
v 0.00569200 0.23088881 -0.07139175
v 0.00780833 0.23215470 -0.07065026
v 0.00561200 0.23100011 -0.07133959
v 0.00749527 0.23252116 -0.07048033
v 0.00551176 0.23108789 -0.07129978
v 0.00716569 0.23280779 -0.07035057
v 0.00681922 0.23303635 -0.07025015
v 0.00541980 0.23114124 -0.07127677
v 0.00646832 0.23321146 -0.07017642
v 0.00528216 0.23119061 -0.07125740
v -0.00141192 0.22627628 -0.07369886
v 0.00083633 0.22514288 -0.07421599
v 0.00052165 0.22473916 -0.07439695
v 0.00023419 0.22446708 -0.07451789
v -0.00154329 0.22615722 -0.07375167
v -0.00009002 0.22422978 -0.07462227
v -0.00043920 0.22403505 -0.07470679
v -0.00132045 0.22643092 -0.07362913
v 0.00116270 0.22584185 -0.07389949
v 0.00102490 0.22548340 -0.07406221
v -0.00171804 0.22607329 -0.07378779
v -0.00081344 0.22388199 -0.07477181
v -0.00119206 0.22377746 -0.07481454
v -0.00154889 0.22372168 -0.07483523
v -0.00129015 0.22653989 -0.07357953
v 0.00124837 0.22621346 -0.07373004
v -0.00191315 0.22604030 -0.07380019
v -0.00201314 0.22369643 -0.07484011
v -0.00128111 0.22688125 -0.07342254
v 0.00128119 0.22760178 -0.07308851
v 0.00604709 0.23336048 -0.07011823
v 0.00558482 0.23345824 -0.07008694
v 0.00513271 0.23121223 -0.07125215
v 0.00323798 0.23123451 -0.07129841
v -0.00493690 0.22600587 -0.07374047
v -0.00530881 0.22366968 -0.07476507
v -0.00522006 0.22601397 -0.07372628
v -0.00587789 0.22373569 -0.07471316
v -0.00536682 0.22604915 -0.07370465
v -0.00635655 0.22386901 -0.07463382
v -0.00674535 0.22403984 -0.07454091
v -0.00549344 0.22611022 -0.07367192
v -0.00717555 0.22430903 -0.07440118
v -0.00558489 0.22617954 -0.07363664
v -0.00747631 0.22456458 -0.07427263
v -0.00770852 0.22481690 -0.07414804
v -0.00567636 0.22628666 -0.07358406
v -0.00128115 0.23124614 -0.07132320
v 0.00128121 0.23124649 -0.07132392
v 0.00128119 0.23352832 -0.07015775
v -0.00790681 0.22509176 -0.07401441
v -0.00806940 0.22538668 -0.07387285
v -0.00573706 0.22641005 -0.07352512
v -0.00819350 0.22569709 -0.07372563
v -0.00827747 0.22601795 -0.07357512
v -0.00576519 0.22658053 -0.07344572
v -0.00832093 0.22634661 -0.07342254
v -0.00576519 0.22898886 -0.07231395
v -0.00128111 0.23352797 -0.07015704
v 0.00128122 0.23447298 -0.06966066
v -0.00388489 0.23122706 -0.07128273
v -0.00128115 0.23447263 -0.06965993
v 0.00128118 0.23541431 -0.06915699
v 0.00042708 0.23635539 -0.06865005
v 0.00128121 0.23635201 -0.06864677
v -0.00128113 0.23541397 -0.06915627
v -0.00042702 0.23635526 -0.06864981
v -0.00416447 0.23350583 -0.07010959
v -0.00518862 0.23120645 -0.07124929
v -0.00128115 0.23635168 -0.06864607
v -0.00832752 0.23031044 -0.07153831
v -0.00576518 0.23058334 -0.07153618
v -0.00829395 0.23097883 -0.07120894
v -0.00575386 0.23072748 -0.07146518
v -0.00560679 0.23345356 -0.07008445
v -0.00529711 0.23118569 -0.07125549
v -0.00818158 0.23143655 -0.07098638
v -0.00568897 0.23089616 -0.07138412
v -0.00613249 0.23333336 -0.07012407
v -0.00651782 0.23318815 -0.07018147
v -0.00540053 0.23114899 -0.07126974
v -0.00797678 0.23188923 -0.07076983
v -0.00687900 0.23299968 -0.07026117
v -0.00549432 0.23109806 -0.07129149
v -0.00776463 0.23221095 -0.07061844
v -0.00557731 0.23103374 -0.07132016
v -0.00720997 0.23277169 -0.07036160
v -0.00750771 0.23250666 -0.07048164
f 1 2 3
f 1 3 4
f 1 4 5
f 1 5 6
f 1 6 7
f 1 7 8
f 9 1 10
f 9 2 1
f 11 9 10
f 12 9 11
f 13 9 12
f 14 15 9
f 14 9 13
f 16 15 14
f 16 17 15
f 18 19 17
f 18 17 16
f 20 19 18
f 20 21 19
f 20 22 21
f 23 22 20
f 23 24 25
f 23 26 24
f 23 25 22
f 27 26 23
f 27 28 26
f 29 28 27
f 30 29 27
f 31 30 27
f 31 32 30
f 33 32 31
f 34 32 33
f 35 34 33
f 35 36 34
f 37 36 35
f 38 36 37
f 39 36 38
f 39 40 36
f 41 42 40
f 41 43 42
f 41 40 39
f 44 43 41
f 44 45 43
f 46 47 48
f 49 48 50
f 49 46 48
f 51 52 45
f 51 53 52
f 51 45 44
f 54 49 50
f 54 50 53
f 55 54 53
f 55 53 51
f 56 54 55
f 57 56 55
f 58 56 57
f 59 58 57
f 60 61 62
f 60 63 61
f 64 65 63
f 64 66 65
f 64 63 60
f 67 68 66
f 67 69 68
f 67 66 64
f 70 69 67
f 71 70 67
f 72 71 67
f 73 72 67
f 74 73 67
f 75 74 67
f 76 75 67
f 77 76 67
f 78 79 80
f 78 81 79
f 82 78 80
f 83 82 80
f 84 80 85
f 84 85 86
f 84 83 80
f 87 86 88
f 87 84 86
f 89 88 90
f 89 87 88
f 91 90 92
f 91 92 93
f 91 89 90
f 94 91 93
f 95 94 93
f 96 94 95
f 97 96 95
f 98 96 97
f 99 100 101
f 102 103 104
f 105 106 107
f 108 109 110
f 111 112 113
f 114 115 116
f 117 118 119
f 120 117 121
f 120 118 117
f 122 121 123
f 122 120 121
f 124 123 125
f 124 122 123
f 126 125 127
f 126 124 125
f 128 126 127
f 129 126 128
f 130 129 128
f 131 129 130
f 132 131 130
f 133 132 134
f 133 131 132
f 135 134 136
f 135 133 134
f 137 136 138
f 137 135 136
f 139 137 138
f 140 137 139
f 141 140 139
f 142 140 141
f 143 144 145
f 146 147 148
f 149 150 151
f 152 153 154
f 155 156 157
f 158 159 160
f 161 162 163
f 164 155 157
f 165 166 167
f 168 169 170
f 171 172 173
f 174 175 176
f 174 177 175
f 178 176 179
f 178 174 176
f 180 178 179
f 181 179 182
f 181 180 179
f 183 181 182
f 184 182 185
f 184 183 182
f 186 185 187
f 186 184 185
f 188 187 189
f 188 189 190
f 188 186 187
f 191 188 190
f 192 191 190
f 193 191 192
f 194 193 192
f 195 193 194
f 196 197 198
f 199 200 201
f 202 200 203
f 204 203 205
f 204 202 203
f 206 205 207
f 206 204 205
f 208 207 209
f 208 206 207
f 210 209 211
f 210 208 209
f 212 211 213
f 212 210 211
f 214 213 215
f 214 212 213
f 216 214 215
f 217 216 215
f 218 217 215
f 219 218 220
f 219 217 218
f 221 220 222
f 221 219 220
f 223 222 224
f 223 221 222
f 225 224 226
f 225 223 224
f 227 226 228
f 227 225 226
f 229 228 230
f 229 227 228
f 231 229 230
f 231 230 232
f 233 231 232
f 234 235 236
f 237 235 234
f 238 234 239
f 238 237 234
f 240 238 239
f 241 238 240
f 242 243 241
f 242 241 240
f 244 242 245
f 244 245 246
f 244 246 247
f 244 247 248
f 244 248 249
f 244 249 250
f 244 250 251
f 252 253 243
f 254 243 242
f 254 242 244
f 254 252 243
f 255 254 256
f 255 252 254
f 257 258 255
f 257 255 256
f 259 258 257
f 260 261 258
f 260 258 259
f 262 263 261
f 262 261 260
f 264 265 266
f 264 266 267
f 264 267 268
f 264 268 269
f 264 269 270
f 264 270 271
f 264 271 272
f 273 265 264
f 274 273 264
f 275 276 273
f 275 273 274
f 277 278 276
f 277 279 278
f 277 276 275
f 280 279 277
f 280 281 279
f 280 282 281
f 280 283 282
f 284 283 280
f 285 286 287
f 285 288 286
f 289 288 285
f 290 288 289
f 291 288 290
f 292 288 291
f 293 292 291
f 294 292 293
f 295 294 293
f 296 294 295
f 296 295 297
f 298 299 296
f 298 296 297
f 300 301 299
f 300 299 298
f 302 303 301
f 302 301 300
f 304 305 303
f 304 306 305
f 304 303 302
f 307 306 304
f 308 309 306
f 308 306 307
f 310 309 308
f 311 312 313
f 314 315 316
f 317 315 314
f 318 319 317
f 320 318 317
f 321 320 317
f 322 321 317
f 7 322 317
f 323 317 314
f 323 7 317
f 324 283 284
f 324 287 286
f 324 325 283
f 324 286 325
f 324 284 287
f 326 315 309
f 326 310 312
f 326 327 316
f 326 311 327
f 326 309 310
f 326 312 311
f 326 316 315
f 328 329 330
f 331 328 330
f 332 330 333
f 332 331 330
f 334 332 333
f 335 334 333
f 336 337 338
f 339 336 338
f 340 338 341
f 340 339 338
f 342 339 340
f 343 342 340
f 344 345 346
f 347 342 343
f 348 342 347
f 349 344 346
f 350 344 349
f 351 344 350
f 352 351 350
f 353 351 352
f 354 351 353
f 355 351 354
f 356 351 355
f 357 351 356
f 358 351 357
f 359 351 358
f 360 359 358
f 361 362 363
f 361 364 362
f 361 365 364
f 366 361 363
f 367 368 369
f 370 371 372
f 373 372 367
f 373 367 369
f 373 370 372
f 374 369 375
f 374 375 359
f 374 359 360
f 374 373 369
f 374 376 377
f 374 360 376
f 378 379 380
f 381 382 379
f 381 379 378
f 383 382 381
f 384 385 382
f 384 382 383
f 386 385 384
f 387 385 386
f 388 389 390
f 388 391 389
f 392 393 391
f 392 391 388
f 394 395 393
f 394 393 392
f 396 397 395
f 396 395 394
f 398 399 400
f 398 401 399
f 402 403 401
f 402 404 403
f 402 405 404
f 402 406 405
f 402 407 406
f 402 408 407
f 402 401 398
f 409 374 377
f 409 410 411
f 409 412 410
f 409 413 412
f 409 414 413
f 409 415 414
f 409 377 415
f 416 409 411
f 416 417 396
f 416 418 417
f 416 419 418
f 416 420 419
f 416 421 420
f 416 422 421
f 416 411 422
f 423 424 408
f 423 425 424
f 423 408 402
f 426 425 423
f 427 425 426
f 428 429 425
f 428 430 429
f 428 416 430
f 428 409 416
f 428 427 431
f 428 425 427
f 432 428 431
f 433 428 432
f 434 435 428
f 434 428 433
f 436 437 435
f 438 435 434
f 438 436 435
f 394 416 396
f 439 344 335
f 439 333 338
f 439 335 333
f 439 338 337
f 439 345 344
f 439 440 345
f 439 441 440
f 439 442 441
f 439 443 442
f 439 444 443
f 439 445 444
f 439 446 445
f 439 447 446
f 439 337 447
f 448 340 341
f 448 449 340
f 448 450 449
f 448 363 450
f 448 341 363
f 451 452 366
f 451 400 452
f 451 341 385
f 451 387 398
f 451 366 363
f 451 385 387
f 451 363 341
f 451 398 400
f 453 454 455
f 456 457 458
f 459 460 461
f 462 463 464
f 465 466 467
f 468 469 470
f 471 472 473
f 474 471 475
f 476 471 474
f 477 476 474
f 478 479 476
f 478 476 477
f 480 481 479
f 480 479 478
f 482 481 480
f 482 483 481
f 484 485 483
f 484 483 482
f 486 487 485
f 486 485 484
f 488 489 487
f 488 487 486
f 490 491 489
f 490 489 488
f 492 493 491
f 492 491 490
f 494 495 493
f 494 493 492
f 496 497 495
f 496 495 494
f 498 499 497
f 498 497 496
f 500 499 498
f 501 502 500
f 501 500 498
f 503 504 502
f 503 502 501
f 505 506 504
f 505 504 503
f 507 506 505
f 508 509 506
f 508 506 507
f 510 511 509
f 510 509 508
f 512 513 511
f 512 511 510
f 514 515 513
f 514 513 512
f 516 517 515
f 516 518 517
f 516 515 514
f 519 520 518
f 519 518 516
f 521 522 520
f 521 520 519
f 523 522 521
f 524 522 523
f 525 526 524
f 525 524 523
f 527 528 526
f 527 526 525
f 529 530 528
f 529 528 527
f 531 530 529
f 532 530 531
f 533 534 532
f 533 532 531
f 535 534 533
f 536 534 535
f 536 537 534
f 538 537 536
f 538 539 537
f 540 539 538
f 540 541 539
f 542 541 540
f 542 543 541
f 544 543 542
f 544 545 543
f 546 545 544
f 547 545 546
f 548 545 547
f 549 548 547
f 550 548 549
f 551 550 549
f 552 553 554
f 552 554 555
f 552 555 556
f 557 558 552
f 559 558 557
f 559 560 561
f 559 561 558
f 562 563 560
f 562 560 559
f 564 565 563
f 564 563 562
f 566 565 564
f 567 565 566
f 568 566 569
f 568 567 566
f 570 569 571
f 570 568 569
f 572 573 574
f 572 574 575
f 576 572 575
f 576 575 577
f 576 577 578
f 579 580 581
f 579 581 573
f 579 573 572
f 582 576 578
f 582 578 583
f 582 583 584
f 582 584 585
f 586 580 579
f 586 587 580
f 588 585 589
f 588 582 585
f 590 591 587
f 590 587 586
f 592 570 571
f 593 571 594
f 593 594 595
f 593 592 571
f 596 588 589
f 596 589 597
f 598 597 599
f 598 596 597
f 600 599 601
f 600 601 602
f 600 598 599
f 603 600 602
f 603 602 604
f 605 603 604
f 606 605 604
f 607 605 606
f 607 608 605
f 609 610 591
f 609 591 590
f 611 595 610
f 611 610 609
f 611 593 595
f 612 608 607
f 613 608 612
f 613 614 608
f 615 614 613
f 616 614 615
f 616 617 614
f 618 617 616
f 619 617 618
f 620 621 611
f 620 611 609
f 622 620 609
f 623 624 621
f 623 621 620
f 625 626 624
f 627 625 624
f 627 624 623
f 628 625 627
f 629 620 622
f 629 622 630
f 631 628 627
f 632 619 618
f 632 633 619
f 634 633 632
f 634 635 633
f 636 629 630
f 636 630 637
f 638 635 634
f 638 639 635
f 640 636 637
f 641 637 642
f 641 640 637
f 643 639 638
f 644 642 645
f 644 641 642
f 646 647 639
f 646 639 643
f 648 645 647
f 648 644 645
f 649 647 646
f 649 648 647
f 556 557 552

