# https://github.com/mikedh/trimesh
v 0.05438898 0.04563796 0.09901041
v 0.05507897 0.04651296 0.09901041
v 0.06231897 0.03624194 0.09901041
v 0.06148796 0.03549998 0.09901041
v 0.04563795 0.05438899 0.09901041
v 0.04616497 0.05537098 0.09901041
v 0.06766497 0.02486997 0.09901041
v 0.06671797 0.02428299 0.09901041
v 0.03549997 0.06148797 0.09901040
v 0.03584795 0.06254595 0.09901040
v 0.07095598 0.01274299 0.09901041
v 0.06992100 0.01232898 0.09901041
v 0.02428298 0.06671798 0.09901040
v 0.02444296 0.06782096 0.09901040
v 0.07209098 0.00022800 0.09901041
v 0.07099997 0.00000000 0.09901041
v 0.01232897 0.06992095 0.09901040
v 0.01229398 0.07103496 0.09901040
v 0.07103495 -0.01229399 0.09901041
v 0.06992100 -0.01232898 0.09901041
v -0.00000001 0.07099997 0.09901040
v -0.00022800 0.07209098 0.09901040
v 0.06782095 -0.02444297 0.09901041
v 0.06671797 -0.02428299 0.09901041
v -0.01232899 0.06992095 0.09901040
v -0.01274300 0.07095599 0.09901040
v 0.06254600 -0.03584796 0.09901041
v 0.06148796 -0.03549998 0.09901041
v -0.02428300 0.06671798 0.09901040
v -0.02486998 0.06766498 0.09901040
v 0.05537097 -0.04616498 0.09901041
v 0.05438898 -0.04563796 0.09901041
v -0.03549999 0.06148797 0.09901040
v -0.03624195 0.06231898 0.09901040
v 0.04651295 -0.05507898 0.09901041
v 0.04563795 -0.05438899 0.09901041
v -0.04563797 0.05438899 0.09901039
v -0.04651297 0.05507898 0.09901039
v 0.03624199 -0.06231898 0.09901040
v 0.03549997 -0.06148797 0.09901040
v -0.05438895 0.04563796 0.09901039
v -0.05537099 0.04616498 0.09901039
v 0.02486996 -0.06766498 0.09901040
v 0.02428298 -0.06671798 0.09901040
v -0.06148798 0.03549998 0.09901039
v -0.06254596 0.03584796 0.09901039
v 0.01274298 -0.07095599 0.09901040
v 0.01232897 -0.06992095 0.09901040
v -0.06671799 0.02428299 0.09901039
v -0.06782097 0.02444297 0.09901039
v 0.00022800 -0.07209098 0.09901040
v -0.00000001 -0.07099997 0.09901040
v -0.06992096 0.01232898 0.09901039
v -0.07103497 0.01229399 0.09901039
v -0.01229400 -0.07103496 0.09901040
v -0.01232899 -0.06992095 0.09901040
v -0.07099998 0.00000000 0.09901039
v -0.07209099 -0.00022800 0.09901039
v -0.02444298 -0.06782096 0.09901040
v -0.02428300 -0.06671798 0.09901040
v -0.06992096 -0.01232898 0.09901039
v -0.07095600 -0.01274299 0.09901039
v -0.06671799 -0.02428299 0.09901039
v -0.03584797 -0.06254595 0.09901040
v -0.03549999 -0.06148797 0.09901040
v -0.06766499 -0.02486997 0.09901039
v -0.06148798 -0.03549998 0.09901039
v -0.04616499 -0.05537098 0.09901039
v -0.04563797 -0.05438899 0.09901039
v -0.06231899 -0.03624194 0.09901039
v -0.05438895 -0.04563796 0.09901039
v -0.05507899 -0.04651296 0.09901039
v 0.05568497 0.04702597 0.10501041
v 0.06242399 0.04246699 0.10501041
v 0.05410098 0.05266195 0.10501041
v 0.06300496 0.03664195 0.10501041
v 0.06884997 0.03098195 0.10501041
v 0.04667298 0.05598098 0.10501041
v 0.04413496 0.06125700 0.10501041
v 0.06841099 0.02514398 0.10501041
v 0.07318401 0.01855599 0.10501041
v 0.03624295 0.06323498 0.10501040
v 0.03282695 0.06799000 0.10501040
v 0.07173799 0.01288294 0.10501041
v 0.02471195 0.06856799 0.10501040
v 0.02052198 0.07265698 0.10501040
v 0.07529496 0.00556594 0.10501041
v 0.07288496 0.00023000 0.10501041
v 0.01243000 0.07181799 0.10501040
v 0.00759398 0.07511699 0.10501040
v 0.07511698 -0.00759399 0.10501041
v 0.07181798 -0.01242995 0.10501041
v -0.00023000 0.07288497 0.10501040
v -0.00556595 0.07529497 0.10501040
v 0.07265697 -0.02052199 0.10501041
v 0.06856798 -0.02471196 0.10501041
v -0.01288295 0.07173800 0.10501040
v -0.01855600 0.07318395 0.10501040
v 0.06798999 -0.03282696 0.10501041
v 0.06323497 -0.03624296 0.10501041
v -0.02514399 0.06841099 0.10501040
v -0.03098196 0.06884998 0.10501040
v 0.06125699 -0.04413497 0.10501041
v 0.05598097 -0.04667299 0.10501041
v -0.03664196 0.06300497 0.10501040
v -0.04246700 0.06242400 0.10501040
v 0.05266194 -0.05410099 0.10501041
v 0.04702596 -0.05568498 0.10501041
v -0.04702598 0.05568498 0.10501039
v -0.05266196 0.05410099 0.10501039
v 0.04246698 -0.06242400 0.10501040
v 0.03664194 -0.06300497 0.10501040
v -0.05598099 0.04667299 0.10501039
v -0.06125695 0.04413497 0.10501039
v 0.03098194 -0.06884998 0.10501040
v 0.02514397 -0.06841099 0.10501040
v -0.06323498 0.03624296 0.10501039
v -0.06798995 0.03282696 0.10501039
v 0.01855598 -0.07318395 0.10501040
v 0.01288299 -0.07173800 0.10501040
v -0.06856800 0.02471196 0.10501039
v -0.07265699 0.02052199 0.10501039
v 0.00556599 -0.07529497 0.10501040
v 0.00023000 -0.07288497 0.10501040
v -0.07181799 0.01242995 0.10501039
v -0.07511700 0.00759399 0.10501039
v -0.00759400 -0.07511699 0.10501040
v -0.01242996 -0.07181799 0.10501040
v -0.07288498 -0.00023000 0.10501039
v -0.07529498 -0.00556594 0.10501039
v -0.02052200 -0.07265698 0.10501040
v -0.02471197 -0.06856799 0.10501040
v -0.07173795 -0.01288294 0.10501039
v -0.07318395 -0.01855599 0.10501039
v -0.03282697 -0.06799000 0.10501040
v -0.03624297 -0.06323498 0.10501040
v -0.06841100 -0.02514398 0.10501039
v -0.06884999 -0.03098195 0.10501039
v -0.06300498 -0.03664195 0.10501039
v -0.04413498 -0.06125700 0.10501039
v -0.04667295 -0.05598098 0.10501039
v -0.06242395 -0.04246699 0.10501039
v -0.05568499 -0.04702597 0.10501039
v -0.05410100 -0.05266195 0.10501039
v 0.00556599 -0.07529497 0.10501040
v -0.00759400 -0.07511699 0.10501040
v -0.00759400 -0.07511699 0.09901040
v 0.00556599 -0.07529497 0.09901040
v 0.01855598 -0.07318395 0.10501040
v 0.01855598 -0.07318395 0.09901040
v 0.03098194 -0.06884998 0.10501040
v 0.03098194 -0.06884998 0.09901040
v 0.04246698 -0.06242400 0.10501040
v 0.04246698 -0.06242400 0.09901040
v 0.05266194 -0.05410099 0.10501041
v 0.05266194 -0.05410099 0.09901041
v 0.06125699 -0.04413497 0.10501041
v 0.06125699 -0.04413497 0.09901041
v 0.06798999 -0.03282696 0.10501041
v 0.06798999 -0.03282696 0.09901041
v 0.07265697 -0.02052199 0.10501041
v 0.07265697 -0.02052199 0.09901041
v 0.07511698 -0.00759399 0.10501041
v 0.07511698 -0.00759399 0.09901041
v 0.07529496 0.00556594 0.10501041
v 0.07529496 0.00556594 0.09901041
v 0.07318401 0.01855599 0.10501041
v 0.07318401 0.01855599 0.09901041
v 0.06884997 0.03098195 0.10501041
v 0.06884997 0.03098195 0.09901041
v 0.06242399 0.04246699 0.10501041
v 0.06242399 0.04246699 0.09901041
v 0.05410098 0.05266195 0.10501041
v 0.05410098 0.05266195 0.09901041
v 0.04413496 0.06125700 0.10501041
v 0.04413496 0.06125700 0.09901041
v 0.03282695 0.06799000 0.10501040
v 0.03282695 0.06799000 0.09901040
v 0.02052198 0.07265698 0.10501040
v 0.02052198 0.07265698 0.09901040
v 0.00759398 0.07511699 0.10501040
v 0.00759398 0.07511699 0.09901040
v -0.00556595 0.07529497 0.10501040
v -0.00556595 0.07529497 0.09901040
v -0.01855600 0.07318395 0.10501040
v -0.01855600 0.07318395 0.09901040
v -0.03098196 0.06884998 0.10501040
v -0.03098196 0.06884998 0.09901040
v -0.04246700 0.06242400 0.10501040
v -0.04246700 0.06242400 0.09901040
v -0.05266196 0.05410099 0.10501039
v -0.05266196 0.05410099 0.09901039
v -0.06125695 0.04413497 0.10501039
v -0.06125695 0.04413497 0.09901039
v -0.06798995 0.03282696 0.10501039
v -0.06798995 0.03282696 0.09901039
v -0.07265699 0.02052199 0.10501039
v -0.07265699 0.02052199 0.09901039
v -0.07511700 0.00759399 0.10501039
v -0.07511700 0.00759399 0.09901039
v -0.07529498 -0.00556594 0.10501039
v -0.07529498 -0.00556594 0.09901039
v -0.07318395 -0.01855599 0.10501039
v -0.07318395 -0.01855599 0.09901039
v -0.06884999 -0.03098195 0.10501039
v -0.06884999 -0.03098195 0.09901039
v -0.06242395 -0.04246699 0.10501039
v -0.06242395 -0.04246699 0.09901039
v -0.05410100 -0.05266195 0.10501039
v -0.05410100 -0.05266195 0.09901039
v -0.04413498 -0.06125700 0.10501039
v -0.04413498 -0.06125700 0.09901039
v -0.03282697 -0.06799000 0.10501040
v -0.03282697 -0.06799000 0.09901040
v -0.02052200 -0.07265698 0.10501040
v -0.02052200 -0.07265698 0.09901040
v -0.00759400 -0.07511699 0.10501040
v -0.00759400 -0.07511699 0.09901040
f 1 2 3
f 4 1 3
f 5 6 2
f 5 2 1
f 7 4 3
f 8 4 7
f 9 10 6
f 9 6 5
f 11 8 7
f 12 8 11
f 13 14 10
f 13 10 9
f 15 12 11
f 16 12 15
f 17 14 13
f 17 18 14
f 19 16 15
f 20 16 19
f 21 22 18
f 21 18 17
f 23 20 19
f 24 20 23
f 25 26 22
f 25 22 21
f 27 24 23
f 28 24 27
f 29 30 26
f 29 26 25
f 31 28 27
f 32 28 31
f 33 30 29
f 34 30 33
f 35 32 31
f 36 32 35
f 37 34 33
f 38 34 37
f 39 36 35
f 40 36 39
f 41 38 37
f 42 38 41
f 43 40 39
f 43 44 40
f 45 42 41
f 46 42 45
f 47 44 43
f 47 48 44
f 49 46 45
f 50 46 49
f 51 48 47
f 51 52 48
f 53 50 49
f 54 50 53
f 55 56 52
f 55 52 51
f 57 54 53
f 58 54 57
f 59 60 56
f 59 56 55
f 61 58 57
f 62 58 61
f 63 62 61
f 64 65 60
f 64 60 59
f 66 62 63
f 67 66 63
f 68 69 65
f 68 65 64
f 70 67 71
f 70 66 67
f 72 71 69
f 72 69 68
f 72 70 71
f 73 74 75
f 76 77 74
f 76 74 73
f 78 75 79
f 78 73 75
f 80 77 76
f 81 77 80
f 82 79 83
f 82 78 79
f 84 81 80
f 85 82 83
f 86 85 83
f 87 81 84
f 88 87 84
f 89 85 86
f 90 89 86
f 91 87 88
f 92 91 88
f 93 89 90
f 94 93 90
f 95 91 92
f 96 95 92
f 97 93 94
f 98 97 94
f 99 95 96
f 100 99 96
f 101 97 98
f 102 101 98
f 103 99 100
f 104 103 100
f 105 101 102
f 106 105 102
f 107 103 104
f 108 107 104
f 109 105 106
f 110 109 106
f 111 107 108
f 112 111 108
f 113 109 110
f 114 113 110
f 115 111 112
f 116 115 112
f 117 113 114
f 118 117 114
f 119 115 116
f 120 119 116
f 121 117 118
f 122 121 118
f 123 119 120
f 124 123 120
f 125 121 122
f 126 125 122
f 127 123 124
f 128 127 124
f 129 125 126
f 130 129 126
f 131 127 128
f 132 131 128
f 133 129 130
f 134 133 130
f 135 132 136
f 135 131 132
f 137 133 134
f 138 139 137
f 138 137 134
f 140 136 141
f 140 135 136
f 142 139 138
f 142 143 139
f 144 140 141
f 144 143 142
f 144 141 143
f 145 146 147
f 145 147 148
f 149 148 150
f 149 145 148
f 151 150 152
f 151 149 150
f 153 152 154
f 153 151 152
f 155 154 156
f 155 153 154
f 157 155 156
f 157 156 158
f 159 157 158
f 159 158 160
f 161 159 160
f 161 160 162
f 163 161 162
f 163 162 164
f 165 163 164
f 165 164 166
f 167 165 166
f 167 166 168
f 169 167 168
f 169 168 170
f 171 169 170
f 171 170 172
f 173 171 172
f 173 172 174
f 175 173 174
f 175 174 176
f 177 175 176
f 177 176 178
f 179 177 178
f 179 178 180
f 181 179 180
f 181 180 182
f 183 181 182
f 183 182 184
f 185 183 184
f 185 184 186
f 187 186 188
f 187 185 186
f 189 188 190
f 189 187 188
f 191 190 192
f 191 189 190
f 193 192 194
f 193 191 192
f 195 194 196
f 195 193 194
f 197 196 198
f 197 195 196
f 199 198 200
f 199 197 198
f 201 200 202
f 201 199 200
f 203 202 204
f 203 201 202
f 205 204 206
f 205 203 204
f 207 205 206
f 207 206 208
f 209 207 208
f 209 208 210
f 211 209 210
f 211 210 212
f 213 211 212
f 213 212 214
f 215 213 214
f 215 214 216
f 217 215 216
f 217 216 218

