# https://github.com/mikedh/trimesh
v 0.04425299 -0.26439399 0.01602536
v 0.03401297 -0.26902401 0.02065539
v 0.03400796 -0.26898199 0.02046334
v 0.04417496 -0.26438400 0.01586234
v 0.04412198 -0.26435801 0.01575535
v 0.03400397 -0.26890701 0.02027535
v 0.04407495 -0.26431900 0.01565837
v 0.03400099 -0.26880100 0.02009838
v 0.04403793 -0.26426801 0.01556736
v 0.03399997 -0.26873001 0.02000534
v 0.04401093 -0.26420301 0.01547837
v 0.03399997 -0.26865000 0.01991939
v 0.04399996 -0.26412800 0.01539736
v -0.04449796 -0.26406500 0.01710540
v -0.04458200 -0.26401600 0.01719337
v -0.04458200 -0.26401600 0.01719337
v -0.04454600 -0.26407301 0.01704239
v -0.04441297 -0.26409701 0.01701337
v -0.04449796 -0.26406500 0.01710540
v -0.04458200 -0.26401600 0.01719337
v -0.04463297 -0.26399601 0.01718938
v -0.04468101 -0.26396999 0.01718437
v -0.04450196 -0.26410699 0.01696038
v -0.04444396 -0.26414800 0.01683437
v -0.04431098 -0.26412001 0.01687836
v -0.04438799 -0.26418301 0.01670235
v -0.04421699 -0.26413199 0.01669937
v -0.04409599 -0.26455000 0.01425635
v -0.04411298 -0.26469901 0.01292234
v -0.04399299 -0.26402101 0.01548635
v -0.04458099 -0.26409101 0.01695036
v -0.04472601 -0.26393899 0.01717835
v -0.04419201 -0.26418701 0.01643037
v -0.04411697 -0.26413101 0.01642239
v -0.04463100 -0.26438200 0.01592135
v -0.04492300 -0.26505601 0.01305037
v -0.04413098 -0.26445100 0.01507639
v -0.04430997 -0.26473901 0.01447236
v -0.04441398 -0.26478299 0.01446837
v -0.04434096 -0.26478899 0.01433140
v -0.04448699 -0.26475301 0.01464039
v -0.04426997 -0.26471600 0.01446437
v -0.04423999 -0.26473001 0.01431035
v -0.04424697 -0.26470101 0.01445937
v -0.04416996 -0.26466301 0.01429039
v -0.04411900 -0.26459399 0.01426935
v -0.04472899 -0.26493701 0.01385438
v -0.04469799 -0.26496899 0.01377338
v -0.04466301 -0.26499301 0.01371037
v -0.04455196 -0.26499999 0.01370638
v -0.04441297 -0.26432899 0.01618838
v -0.04443800 -0.26447201 0.01567238
v -0.04408997 -0.26428899 0.01558935
v -0.04400098 -0.26407701 0.01577335
v -0.04405498 -0.26426101 0.01544338
v -0.04424101 -0.26447400 0.01540035
v -0.04404199 -0.26425099 0.01535236
v -0.04418200 -0.26447201 0.01522040
v -0.04429095 -0.26463300 0.01486635
v -0.04453998 -0.26489699 0.01410239
v -0.04434198 -0.26486701 0.01400738
v -0.04429996 -0.26484501 0.01399940
v -0.04427701 -0.26482999 0.01399439
v -0.04434996 -0.26502201 0.01335936
v -0.04438698 -0.26511499 0.01304036
v -0.04429298 -0.26505601 0.01302134
v -0.04428398 -0.26497900 0.01334434
v -0.04421895 -0.26491901 0.01332634
v -0.04413700 -0.26483601 0.01295834
v -0.04420101 -0.26495999 0.01299238
v -0.04420399 -0.26425901 0.01617234
v -0.04404896 -0.26411399 0.01613837
v -0.04431200 -0.26434201 0.01605439
v -0.04443997 -0.26440799 0.01591038
v -0.04424196 -0.26435599 0.01587837
v -0.04408699 -0.26423299 0.01582837
v -0.04424196 -0.26441500 0.01563936
v -0.04436796 -0.26499400 0.01352435
v -0.04455500 -0.26512200 0.01322138
v -0.04456800 -0.26516300 0.01306039
v -0.04476296 -0.26511899 0.01314437
v -0.04475498 -0.26514301 0.01306438
v 0.04462194 -0.26427701 0.01652640
v 0.04472595 -0.26426101 0.01640337
v 0.04472595 -0.26426101 0.01640337
v 0.04462194 -0.26427701 0.01652640
v 0.04453498 -0.26432899 0.01642835
v 0.04472595 -0.26426101 0.01640337
v 0.04469794 -0.26418799 0.01669734
v 0.04462194 -0.26427701 0.01652640
v 0.04472595 -0.26426101 0.01640337
v 0.04479795 -0.26535299 0.01251935
v 0.04479396 -0.26540801 0.01231634
v 0.04496097 -0.26532099 0.01230239
v 0.04494297 -0.26521900 0.01271235
v 0.04471498 -0.26537400 0.01252138
v 0.04460698 -0.26542899 0.01231235
v 0.04466193 -0.26537901 0.01252037
v 0.04459398 -0.26537800 0.01251637
v 0.04451495 -0.26536599 0.01251035
v 0.04442495 -0.26538101 0.01229238
v 0.04442894 -0.26533699 0.01249837
v 0.04432994 -0.26532099 0.01227337
v 0.04447698 -0.26451999 0.01576340
v 0.04417496 -0.26438400 0.01586234
v 0.04443794 -0.26452899 0.01572138
v 0.04439395 -0.26453200 0.01568335
v 0.04434394 -0.26452899 0.01564538
v 0.04412198 -0.26435801 0.01575535
v 0.04428797 -0.26451600 0.01560837
v 0.04449695 -0.26447499 0.01592534
v 0.04425299 -0.26439399 0.01602536
v 0.04451298 -0.26450700 0.01580935
v 0.04454094 -0.26445100 0.01599937
v 0.04434394 -0.26438200 0.01620137
v 0.04477393 -0.26437300 0.01593339
v 0.04458397 -0.26441899 0.01608037
v 0.04475098 -0.26431701 0.01616835
v 0.04456895 -0.26438901 0.01619738
v 0.04444193 -0.26436201 0.01633137
v 0.04479193 -0.26532799 0.01262235
v 0.04475796 -0.26533800 0.01262336
v 0.04471695 -0.26534700 0.01262336
v 0.04426497 -0.26523900 0.01235836
v 0.04423797 -0.26522401 0.01224535
v 0.04421496 -0.26517200 0.01233935
v 0.04414993 -0.26496401 0.01217639
v 0.04417496 -0.26510000 0.01221138
v 0.04468297 -0.26514000 0.01343339
v 0.04436093 -0.26492199 0.01411736
v 0.04435396 -0.26492000 0.01411336
v 0.04467993 -0.26514101 0.01343137
v 0.04417794 -0.26496801 0.01314640
v 0.04399996 -0.26412001 0.01538836
v 0.04460996 -0.26474199 0.01492840
v 0.04479795 -0.26442900 0.01569837
v 0.04410797 -0.26455000 0.01476240
v 0.04399996 -0.26412800 0.01539736
v 0.04410398 -0.26454499 0.01475739
v 0.04410296 -0.26454300 0.01475536
v 0.04464095 -0.26450801 0.01571935
v 0.04462194 -0.26451901 0.01570236
v 0.04459995 -0.26452899 0.01568734
v 0.04457294 -0.26453799 0.01567339
v 0.04413598 -0.26441100 0.01559239
v 0.04407495 -0.26431900 0.01565837
v 0.04410398 -0.26438200 0.01554834
v 0.04403793 -0.26426801 0.01556736
v 0.04407197 -0.26434499 0.01550638
v 0.04401093 -0.26420301 0.01547837
v 0.04441094 -0.26523501 0.01290339
v 0.04439198 -0.26513201 0.01330739
v 0.04432499 -0.26472101 0.01486438
v 0.04470795 -0.26529601 0.01282536
v 0.04399996 -0.26194599 0.01321536
v 0.04414993 -0.26496401 0.01217639
v 0.04399996 -0.26412001 0.01538836
v 0.04426795 -0.26556599 0.00959635
v 0.04412895 -0.26674899 0.00579536
v 0.04428094 -0.26633900 0.00728637
v 0.04425299 -0.26625299 0.00726337
v 0.04432499 -0.26641801 0.00730539
v 0.04438197 -0.26648799 0.00732136
v 0.04416793 -0.26685101 0.00578440
v 0.04445296 -0.26654699 0.00733435
v 0.04453194 -0.26659200 0.00734240
v 0.04429894 -0.26701999 0.00575036
v 0.04461896 -0.26662299 0.00734538
v 0.04471099 -0.26663801 0.00734335
v 0.04422599 -0.26694301 0.00576836
v 0.04438495 -0.26708001 0.00573039
v 0.04480296 -0.26663700 0.00733739
v 0.04447793 -0.26711899 0.00570935
v 0.04461598 -0.26713800 0.00567937
v 0.04489296 -0.26661900 0.00732637
v 0.04497796 -0.26658601 0.00731141
v 0.04505395 -0.26653799 0.00729341
v 0.04475593 -0.26712400 0.00561238
v 0.04487293 -0.26708499 0.00548238
v -0.04411298 -0.26469901 0.01292234
v -0.04399996 -0.26194599 0.01321536
v -0.04399996 -0.26385200 0.01512140
v -0.04399698 -0.26395300 0.01530539
v -0.04399299 -0.26402101 0.01548635
v -0.04412096 -0.26474401 0.01274240
v -0.04412996 -0.26478800 0.01256334
v -0.04413801 -0.26483300 0.01238340
v -0.04425996 -0.26546001 0.00970238
v -0.04495096 -0.26518899 0.01250737
v -0.04475498 -0.26514301 0.01306438
v -0.04492300 -0.26505601 0.01305037
v -0.04477798 -0.26527700 0.01252138
v -0.04456800 -0.26516300 0.01306039
v -0.04458600 -0.26529700 0.01251739
v -0.04438698 -0.26511499 0.01304036
v -0.04440701 -0.26524800 0.01249736
v -0.04429298 -0.26505601 0.01302134
v -0.04432296 -0.26519400 0.01248037
v -0.04412096 -0.26474401 0.01274240
v -0.04411298 -0.26469901 0.01292234
v -0.04413700 -0.26483601 0.01295834
v -0.04420101 -0.26495999 0.01299238
v -0.04425096 -0.26512301 0.01245939
v -0.04412996 -0.26478800 0.01256334
v -0.04418498 -0.26502201 0.01243138
v -0.04415100 -0.26493001 0.01240736
v -0.04413801 -0.26483300 0.01238340
v -0.04379296 -0.26207501 0.01061940
v -0.04399996 -0.26194599 0.01321536
v -0.04425996 -0.26546001 0.00970238
v -0.04392397 -0.26133299 0.01260137
v -0.04369801 -0.26073700 0.01200640
v -0.04333001 -0.26017901 0.01144737
v -0.04290801 -0.26098999 0.00953435
v -0.04282999 -0.25967401 0.01094335
v -0.04221397 -0.25923800 0.01050734
v -0.04388797 -0.26341301 0.00923240
v -0.04154998 -0.26018500 0.00872939
v -0.04149997 -0.25888500 0.01015335
v -0.04070997 -0.25862399 0.00989335
v -0.04298496 -0.26230699 0.00812637
v -0.04398298 -0.26475099 0.00784635
v -0.04426598 -0.26602599 0.00775736
v -0.03988599 -0.25975701 0.00830137
v -0.03986799 -0.25846499 0.00973337
v -0.03899997 -0.25841099 0.00968039
v -0.04160100 -0.26148599 0.00730538
v -0.04306197 -0.26362300 0.00671839
v -0.04407799 -0.26608899 0.00645935
v -0.04409998 -0.26672101 0.00570136
v -0.04368698 -0.26639500 0.00475639
v -0.03811401 -0.25975701 0.00830137
v -0.03813201 -0.25846499 0.00973337
v -0.03728997 -0.25862399 0.00989335
v -0.03990298 -0.26104900 0.00686836
v -0.04165101 -0.26278600 0.00588137
v -0.04313999 -0.26493999 0.00530940
v -0.03644996 -0.26018500 0.00872940
v -0.03649997 -0.25888500 0.01015335
v -0.03578597 -0.25923800 0.01050734
v -0.03809696 -0.26104900 0.00686836
v -0.03992098 -0.26234099 0.00543534
v -0.04170197 -0.26408699 0.00445640
v -0.04321700 -0.26625600 0.00390136
v -0.04336899 -0.26641199 0.00400740
v -0.04298996 -0.26644701 0.00328838
v -0.03509199 -0.26098999 0.00953436
v -0.03516995 -0.25967401 0.01094335
v -0.03466999 -0.26017901 0.01144737
v -0.03639900 -0.26148599 0.00730538
v -0.03807896 -0.26234099 0.00543534
v -0.03993797 -0.26363301 0.00400334
v -0.04175198 -0.26538700 0.00303238
v -0.04249697 -0.26650599 0.00253135
v -0.04192900 -0.26659000 0.00183135
v -0.03420698 -0.26207501 0.01061940
v -0.03430199 -0.26073700 0.01200640
v -0.03407597 -0.26133299 0.01260137
v -0.03399997 -0.26194599 0.01321536
v -0.03501498 -0.26230699 0.00812638
v -0.03634899 -0.26278600 0.00588137
v -0.03806197 -0.26363301 0.00400334
v -0.03995597 -0.26492500 0.00257039
v -0.04128700 -0.26669800 0.00120234
v -0.03411197 -0.26341301 0.00923240
v -0.03493797 -0.26362300 0.00671839
v -0.03629797 -0.26408699 0.00445640
v -0.03804397 -0.26492500 0.00257039
v -0.03997296 -0.26621699 0.00113737
v -0.04014897 -0.26691899 0.00040640
v -0.03961396 -0.26703501 0.00015240
v -0.04065698 -0.26681599 0.00071640
v -0.03401696 -0.26475099 0.00784635
v -0.03345900 -0.26924500 0.00591737
v -0.03486001 -0.26493999 0.00530940
v -0.03624796 -0.26538700 0.00303238
v -0.03802698 -0.26621699 0.00113737
v -0.03789800 -0.26745200 -0.00020060
v -0.03731697 -0.26761100 -0.00015860
v -0.03848099 -0.26730201 -0.00015860
v -0.03905600 -0.26716301 -0.00003860
v -0.03392201 -0.26608899 0.00645935
v -0.03478300 -0.26625600 0.00390136
v -0.03619700 -0.26668799 0.00160837
v -0.03565496 -0.26812300 0.00051240
v -0.03510499 -0.26831800 0.00097840
v -0.03621101 -0.26794100 0.00018340
v -0.03675097 -0.26777500 -0.00002960
v -0.03382700 -0.26742700 0.00507235
v -0.03351998 -0.26909801 0.00452435
v -0.03470599 -0.26757300 0.00249338
v -0.03413599 -0.26872101 0.00236737
v -0.03377395 -0.26891199 0.00330335
v -0.03459000 -0.26852000 0.00159335
v -0.03373199 -0.26876500 0.00368535
v 0.04421597 -0.26692301 0.00545335
v 0.04422599 -0.26694301 0.00576836
v 0.04416793 -0.26685101 0.00578440
v 0.04412895 -0.26674899 0.00579536
v 0.04426294 -0.26695499 0.00544238
v 0.04429894 -0.26701999 0.00575036
v 0.04441696 -0.26692501 0.00511539
v 0.04431194 -0.26698300 0.00543636
v 0.04461598 -0.26713800 0.00567937
v 0.04447793 -0.26711899 0.00570935
v 0.04438495 -0.26708001 0.00573039
v 0.04408597 -0.26678100 0.00492937
v 0.04402494 -0.26670700 0.00464440
v 0.04416394 -0.26671800 0.00457740
v 0.04389894 -0.26664999 0.00471336
v 0.04387795 -0.26662001 0.00488741
v 0.04372894 -0.26641801 0.00483936
v 0.04379594 -0.26655000 0.00478137
v 0.03420597 -0.26207799 0.01061737
v 0.03407597 -0.26133299 0.01260137
v 0.03399997 -0.26194599 0.01321536
v 0.03430193 -0.26073700 0.01200640
v 0.03466993 -0.26017901 0.01144737
v 0.03509193 -0.26099300 0.00953239
v 0.03516995 -0.25967401 0.01094335
v 0.03578597 -0.25923800 0.01050734
v 0.03411096 -0.26341799 0.00922740
v 0.03644895 -0.26018801 0.00872636
v 0.03649997 -0.25888500 0.01015335
v 0.03728997 -0.25862399 0.00989336
v 0.03501498 -0.26231200 0.00812137
v 0.03401595 -0.26475799 0.00783837
v 0.03345793 -0.26926401 0.00589836
v 0.03811395 -0.25975901 0.00829840
v 0.03813195 -0.25846499 0.00973338
v 0.03899997 -0.25841099 0.00968039
v 0.03639894 -0.26148999 0.00730038
v 0.03493696 -0.26363099 0.00671035
v 0.03392094 -0.26609901 0.00644940
v 0.03988593 -0.25975901 0.00829840
v 0.03986793 -0.25846499 0.00973338
v 0.04070997 -0.25862399 0.00989336
v 0.03809696 -0.26105300 0.00686336
v 0.03634798 -0.26279300 0.00587339
v 0.03485995 -0.26494899 0.00529939
v 0.03382599 -0.26743901 0.00505936
v 0.03345793 -0.26920500 0.00526339
v 0.03350394 -0.26913300 0.00463140
v 0.04155099 -0.26018801 0.00872636
v 0.04149997 -0.25888500 0.01015335
v 0.04221397 -0.25923800 0.01050734
v 0.03990298 -0.26105300 0.00686336
v 0.03807896 -0.26234800 0.00542736
v 0.03629797 -0.26409599 0.00444639
v 0.03478199 -0.26626799 0.00388837
v 0.03373098 -0.26877999 0.00367040
v 0.03365594 -0.26900500 0.00372637
v 0.03384196 -0.26888999 0.00306738
v 0.04290795 -0.26099300 0.00953240
v 0.04282999 -0.25967401 0.01094335
v 0.04332995 -0.26017901 0.01144737
v 0.04160094 -0.26148999 0.00730038
v 0.03992098 -0.26234800 0.00542736
v 0.03806096 -0.26364201 0.00399238
v 0.03624695 -0.26539901 0.00301940
v 0.03470498 -0.26758701 0.00247735
v 0.03480798 -0.26845101 0.00128538
v 0.03527194 -0.26827601 0.00079740
v 0.03441494 -0.26861200 0.00183535
v 0.03409397 -0.26875901 0.00243336
v 0.04379397 -0.26207799 0.01061737
v 0.04369795 -0.26073700 0.01200640
v 0.04392397 -0.26133299 0.01260137
v 0.04399996 -0.26194599 0.01321536
v 0.04426795 -0.26556599 0.00959635
v 0.04298496 -0.26231200 0.00812137
v 0.04165196 -0.26279300 0.00587339
v 0.03993898 -0.26364201 0.00399238
v 0.03804397 -0.26493701 0.00255740
v 0.03619694 -0.26670200 0.00159240
v 0.03639698 -0.26790199 0.00007740
v 0.03703296 -0.26771200 -0.00012660
v 0.03580498 -0.26809201 0.00038940
v 0.04388898 -0.26341799 0.00922740
v 0.04306298 -0.26363099 0.00671035
v 0.04170197 -0.26409599 0.00444639
v 0.03995597 -0.26493701 0.00255740
v 0.03802597 -0.26623100 0.00112140
v 0.03836697 -0.26735201 -0.00019659
v 0.03910297 -0.26717299 -0.00004860
v 0.03769594 -0.26752701 -0.00021860
v 0.04398393 -0.26475799 0.00783837
v 0.04425299 -0.26625299 0.00726337
v 0.04313999 -0.26494899 0.00529939
v 0.04175299 -0.26539901 0.00301940
v 0.04239296 -0.26654401 0.00236440
v 0.04315298 -0.26645401 0.00355137
v 0.04155397 -0.26667401 0.00142038
v 0.03997397 -0.26623100 0.00112140
v 0.04067695 -0.26683399 0.00070540
v 0.03988796 -0.26699600 0.00024940
v 0.04407894 -0.26609901 0.00644940
v 0.04372894 -0.26641801 0.00483936
v 0.04412895 -0.26674899 0.00579536
v 0.04321795 -0.26626799 0.00388837
v 0.04496097 -0.26532099 0.01230239
v 0.04500496 -0.26597500 0.00971937
v 0.04508197 -0.26592401 0.00971139
v 0.04479396 -0.26540801 0.01231634
v 0.04491996 -0.26601100 0.00972337
v 0.04482996 -0.26603100 0.00972438
v 0.04460698 -0.26542899 0.01231235
v 0.04473698 -0.26603499 0.00972039
v 0.04464596 -0.26602200 0.00971335
v 0.04442495 -0.26538101 0.01229238
v 0.04455894 -0.26599300 0.00970340
v 0.04447895 -0.26594800 0.00969041
v 0.04432994 -0.26532099 0.01227337
v 0.04440897 -0.26589000 0.00967437
v 0.04423797 -0.26522401 0.01224535
v 0.04435098 -0.26582000 0.00965637
v 0.04430699 -0.26574099 0.00963641
v 0.04417496 -0.26510000 0.01221138
v 0.04427897 -0.26565501 0.00961638
v 0.04414993 -0.26496401 0.01217639
v 0.04426795 -0.26556599 0.00959635
v 0.04427897 -0.26565501 0.00961638
v 0.04426795 -0.26556599 0.00959635
v 0.04428094 -0.26633900 0.00728637
v 0.04430699 -0.26574099 0.00963641
v 0.04435098 -0.26582000 0.00965637
v 0.04438197 -0.26648799 0.00732136
v 0.04440897 -0.26589000 0.00967437
v 0.04445296 -0.26654699 0.00733435
v 0.04447895 -0.26594800 0.00969041
v 0.04453194 -0.26659200 0.00734240
v 0.04455894 -0.26599300 0.00970340
v 0.04461896 -0.26662299 0.00734538
v 0.04464596 -0.26602200 0.00971335
v 0.04471099 -0.26663801 0.00734335
v 0.04473698 -0.26603499 0.00972039
v 0.04482996 -0.26603100 0.00972438
v 0.04489296 -0.26661900 0.00732637
v 0.04491996 -0.26601100 0.00972337
v 0.04497796 -0.26658601 0.00731141
v 0.04500496 -0.26597500 0.00971937
v 0.04505395 -0.26653799 0.00729341
v 0.04508197 -0.26592401 0.00971139
v -0.04427701 -0.26695099 0.00534534
v -0.04458498 -0.26710501 0.00558137
v -0.04437798 -0.26689401 0.00502234
v -0.04444795 -0.26708600 0.00561338
v -0.04435598 -0.26704699 0.00563538
v -0.04426896 -0.26698700 0.00565636
v -0.04422998 -0.26692501 0.00535237
v -0.04419398 -0.26690799 0.00567537
v -0.04418396 -0.26689401 0.00536239
v -0.04413801 -0.26681900 0.00569039
v -0.04409998 -0.26672101 0.00570136
v -0.04404699 -0.26675299 0.00484240
v -0.04411900 -0.26668999 0.00449037
v -0.04398196 -0.26668000 0.00455838
v -0.04385697 -0.26662400 0.00462836
v -0.04383701 -0.26659501 0.00480234
v -0.04375499 -0.26652601 0.00469738
v -0.04368698 -0.26639500 0.00475639
v -0.04437297 -0.26595899 0.00878435
v -0.04426598 -0.26602599 0.00775736
v -0.04425996 -0.26546001 0.00970238
v -0.04478800 -0.26677099 0.00660139
v -0.04505699 -0.26638299 0.00759035
v -0.04483801 -0.26705399 0.00538736
v -0.04478496 -0.26604301 0.00933134
v -0.04495096 -0.26588899 0.00982838
v -0.04507297 -0.26581901 0.00981837
v -0.04480999 -0.26592499 0.00982940
v -0.04467397 -0.26592201 0.00982338
v -0.04469901 -0.26603800 0.00932836
v -0.04478996 -0.26631901 0.00823336
v -0.04484599 -0.26646101 0.00768035
v -0.04486900 -0.26660299 0.00712639
v -0.04468899 -0.26677501 0.00663739
v -0.04463499 -0.26676801 0.00665736
v -0.04474097 -0.26677600 0.00661838
v -0.04484295 -0.26660800 0.00713938
v -0.04481595 -0.26661101 0.00715136
v -0.04457896 -0.26675400 0.00667637
v -0.04451996 -0.26673299 0.00669437
v -0.04434001 -0.26641101 0.00724035
v -0.04409998 -0.26672101 0.00570136
v -0.04436099 -0.26625100 0.00775939
v -0.04457801 -0.26642200 0.00774037
v -0.04439699 -0.26686299 0.00617438
v -0.04426896 -0.26698700 0.00565636
v -0.04419398 -0.26690799 0.00567537
v -0.04430598 -0.26679099 0.00619834
v -0.04413801 -0.26681900 0.00569039
v -0.04426497 -0.26674601 0.00620734
v -0.04442995 -0.26585799 0.00953936
v -0.04456496 -0.26589301 0.00981140
v -0.04440897 -0.26578999 0.00978237
v -0.04462200 -0.26602000 0.00932234
v -0.04435700 -0.26577601 0.00951838
v -0.04430299 -0.26563901 0.00974339
v -0.04460597 -0.26607299 0.00907337
v -0.04445099 -0.26604301 0.00880539
v -0.04440397 -0.26599801 0.00879335
v -0.04461395 -0.26621300 0.00852936
v -0.04458200 -0.26620099 0.00852739
v -0.04455798 -0.26618999 0.00852435
v -0.04454898 -0.26633099 0.00800836
v -0.04443299 -0.26624700 0.00801837
v -0.04455500 -0.26657501 0.00721639
v -0.04459100 -0.26684600 0.00639540
v -0.04456800 -0.26701701 0.00585836
v -0.04458498 -0.26710501 0.00558137
v -0.04444795 -0.26708600 0.00561338
v -0.04435598 -0.26704699 0.00563538
v -0.04459899 -0.26631600 0.00813436
v -0.04441195 -0.26682001 0.00631040
v -0.04472297 -0.26706001 0.00562936
v -0.04472297 -0.26709101 0.00551539
v -0.04495096 -0.26588899 0.00982838
v -0.04477798 -0.26527700 0.01252138
v -0.04495096 -0.26518899 0.01250737
v -0.04507297 -0.26581901 0.00981837
v -0.04480999 -0.26592499 0.00982940
v -0.04458600 -0.26529700 0.01251739
v -0.04467397 -0.26592201 0.00982338
v -0.04456496 -0.26589301 0.00981140
v -0.04432296 -0.26519400 0.01248037
v -0.04440701 -0.26524800 0.01249736
v -0.04440897 -0.26578999 0.00978237
v -0.04425096 -0.26512301 0.01245939
v -0.04430299 -0.26563901 0.00974339
v -0.04415100 -0.26493001 0.01240736
v -0.04418498 -0.26502201 0.01243138
v -0.04425996 -0.26546001 0.00970238
v -0.04413801 -0.26483300 0.01238340
v -0.03401297 -0.26892000 0.02050238
v -0.03398495 -0.26952100 0.02037137
v -0.03404498 -0.26911801 0.02159839
v -0.03400701 -0.26888701 0.02035635
v -0.03400498 -0.26884800 0.02025038
v -0.03400295 -0.26879799 0.02014338
v -0.03399997 -0.26866800 0.01993638
v -0.03392398 -0.26991999 0.01914334
v -0.03386396 -0.27031401 0.01791435
v -0.03399997 -0.26194599 0.01321536
v -0.03345900 -0.26924500 0.00591737
v -0.03343701 -0.27028000 0.01190334
v -0.03306496 -0.26971099 0.00587135
v -0.03347301 -0.27079099 0.01802939
v -0.03349196 -0.27023700 0.01189535
v -0.03354096 -0.27018499 0.01188737
v -0.03315496 -0.26968199 0.00587237
v -0.03323698 -0.26963800 0.00587439
v -0.03330999 -0.26957899 0.00588035
v -0.03337097 -0.26950699 0.00588739
v -0.03356999 -0.27014700 0.01189035
v -0.03359597 -0.27010500 0.01189237
v -0.03341698 -0.26942599 0.00589537
v -0.03361696 -0.27006200 0.01189637
v -0.03386396 -0.27031401 0.01791435
v -0.03345900 -0.26924500 0.00591737
v -0.03344601 -0.26933700 0.00590539
v -0.03369998 -0.27034399 0.01490736
v -0.03360897 -0.27061400 0.01646339
v -0.03378295 -0.27048400 0.01718640
v -0.03365296 -0.27067900 0.01760435
v -0.03357601 -0.27075300 0.01798236
v -0.03369098 -0.27067900 0.01796740
v -0.03380399 -0.27051401 0.01775640
v -0.03384101 -0.27045000 0.01793235
v -0.03378200 -0.27057499 0.01795035
v -0.03351998 -0.26909801 0.00452435
v -0.03341698 -0.26942599 0.00589537
v -0.03344601 -0.26933700 0.00590539
v -0.03345900 -0.26924500 0.00591737
v -0.03313899 -0.26949099 0.00438738
v -0.03306496 -0.26971099 0.00587135
v -0.03315496 -0.26968199 0.00587237
v -0.03323698 -0.26963800 0.00587439
v -0.03339296 -0.26935500 0.00445336
v -0.03330999 -0.26957899 0.00588035
v -0.03337097 -0.26950699 0.00588739
v -0.03349399 -0.26924899 0.00382137
v -0.03377395 -0.26891199 0.00330335
v -0.03342300 -0.26924101 0.00310236
v -0.03364801 -0.26913100 0.00320536
v -0.03381401 -0.26902401 0.00271737
v -0.03413599 -0.26872101 0.00236737
v -0.03381496 -0.26900399 0.00213039
v -0.03401499 -0.26891199 0.00225436
v -0.03422796 -0.26880500 0.00185638
v -0.03459000 -0.26852000 0.00159335
v -0.03430098 -0.26876599 0.00132835
v -0.03447800 -0.26868901 0.00146836
v -0.03473198 -0.26857799 0.00114637
v -0.03510499 -0.26831800 0.00097840
v -0.03486400 -0.26853001 0.00068540
v -0.03501099 -0.26846600 0.00084040
v -0.03528100 -0.26836199 0.00059440
v -0.03565496 -0.26812300 0.00051240
v -0.03545200 -0.26831099 0.00019940
v -0.03557497 -0.26825500 0.00036540
v -0.03588199 -0.26815000 0.00016540
v -0.03621101 -0.26794100 0.00018340
v -0.03610998 -0.26808700 -0.00018760
v -0.03617799 -0.26805300 0.00000940
v -0.03645497 -0.26796600 -0.00011060
v -0.03675097 -0.26777500 -0.00002960
v -0.03681999 -0.26786801 -0.00045760
v -0.03679800 -0.26786301 -0.00023160
v -0.03709095 -0.26777801 -0.00030461
v -0.03731697 -0.26761100 -0.00015860
v -0.03748899 -0.26767901 -0.00058861
v -0.03741198 -0.26768899 -0.00036160
v -0.03771400 -0.26760799 -0.00038860
v -0.03789800 -0.26745200 -0.00020060
v -0.03810000 -0.26752099 -0.00061161
v -0.03800696 -0.26753199 -0.00039360
v -0.03830999 -0.26745600 -0.00037761
v -0.03848099 -0.26730201 -0.00015860
v -0.03872096 -0.26737201 -0.00055060
v -0.03860700 -0.26738501 -0.00034061
v -0.03890699 -0.26731601 -0.00028561
v -0.03905600 -0.26716301 -0.00003860
v -0.03933000 -0.26723799 -0.00041360
v -0.03919696 -0.26725101 -0.00021160
v -0.03948795 -0.26718801 -0.00011960
v -0.03961396 -0.26703501 0.00015240
v -0.03992795 -0.26711699 -0.00020460
v -0.03977197 -0.26712900 -0.00001061
v -0.04005199 -0.26707399 0.00011440
v -0.04014897 -0.26691899 0.00040640
v -0.04050397 -0.26700899 0.00006739
v -0.04032498 -0.26702300 0.00025340
v -0.04059100 -0.26697499 0.00040739
v -0.04065698 -0.26681599 0.00071640
v -0.04105401 -0.26691699 0.00039640
v -0.04085099 -0.26693100 0.00057339
v -0.04118299 -0.26687700 0.00081540
v -0.04128700 -0.26669800 0.00120234
v -0.04172998 -0.26681799 0.00090839
v -0.04149997 -0.26683000 0.00107437
v -0.04183900 -0.26678300 0.00138837
v -0.04192900 -0.26659000 0.00183135
v -0.04241001 -0.26673600 0.00156039
v -0.04215401 -0.26674399 0.00171536
v -0.04245400 -0.26671100 0.00206637
v -0.04249697 -0.26650599 0.00253135
v -0.04302996 -0.26668200 0.00230836
v -0.04273897 -0.26668501 0.00243938
v -0.04299998 -0.26666501 0.00282138
v -0.04298996 -0.26644701 0.00328838
v -0.04355901 -0.26665601 0.00310635
v -0.04324096 -0.26665199 0.00321638
v -0.04344099 -0.26664501 0.00358039
v -0.04390197 -0.26665401 0.00373536
v -0.04364496 -0.26657301 0.00429040
v -0.04336899 -0.26641199 0.00400740
v -0.04368698 -0.26639500 0.00475639
v -0.04375499 -0.26652601 0.00469738
v -0.04338598 -0.26655000 0.00380539
v -0.04359501 -0.26664299 0.00389039
v -0.04346001 -0.26654601 0.00395935
v -0.04375201 -0.26667899 0.00381034
v -0.04377597 -0.26667401 0.00401538
v -0.04420596 -0.26666600 0.00440538
v -0.04387199 -0.26666501 0.00439035
v -0.04385697 -0.26662400 0.00462836
v -0.04398196 -0.26668000 0.00455838
v -0.04391998 -0.26667899 0.00434535
v -0.04411900 -0.26668999 0.00449037
v 0.03338694 -0.26945001 0.00555140
v 0.03341495 -0.26944500 0.00587636
v 0.03336894 -0.26952600 0.00586838
v 0.03340798 -0.26940799 0.00555736
v 0.03344494 -0.26935601 0.00588739
v 0.03345793 -0.26926401 0.00589836
v 0.03345793 -0.26920500 0.00526339
v 0.03335797 -0.26942500 0.00476939
v 0.03350394 -0.26913300 0.00463140
v 0.03333795 -0.26947001 0.00509238
v 0.03307998 -0.26960099 0.00492740
v 0.03340399 -0.26935801 0.00433439
v 0.03318995 -0.26945001 0.00403136
v 0.03365594 -0.26900500 0.00372637
v 0.03347897 -0.26927999 0.00387138
v 0.03358095 -0.26919699 0.00342137
v 0.03341394 -0.26926500 0.00310540
v 0.03384196 -0.26888999 0.00306738
v 0.03367793 -0.26912799 0.00308538
v 0.03380995 -0.26904500 0.00270540
v 0.03370994 -0.26908001 0.00232536
v 0.03409397 -0.26875901 0.00243336
v 0.03394496 -0.26896799 0.00238335
v 0.03407394 -0.26890001 0.00211436
v 0.03399395 -0.26892900 0.00177539
v 0.03424197 -0.26881599 0.00180936
v 0.03440195 -0.26874101 0.00155640
v 0.03433698 -0.26876801 0.00125736
v 0.03480798 -0.26845101 0.00128538
v 0.03460496 -0.26865101 0.00127435
v 0.03474497 -0.26859599 0.00078141
v 0.03479897 -0.26856899 0.00104440
v 0.03503698 -0.26847401 0.00079140
v 0.03520798 -0.26841801 0.00036140
v 0.03527194 -0.26827601 0.00079740
v 0.03525996 -0.26838899 0.00059040
v 0.03553193 -0.26829001 0.00037440
v 0.03571897 -0.26823699 0.00000340
v 0.03580498 -0.26809201 0.00038940
v 0.03577995 -0.26820299 0.00020741
v 0.03608196 -0.26810300 0.00003641
v 0.03626894 -0.26805601 -0.00028160
v 0.03639698 -0.26790199 0.00007740
v 0.03634995 -0.26801801 -0.00009159
v 0.03662693 -0.26793399 -0.00019960
v 0.03685396 -0.26787800 -0.00048860
v 0.03703296 -0.26771200 -0.00012660
v 0.03696095 -0.26783499 -0.00029760
v 0.03728097 -0.26774499 -0.00036460
v 0.03752696 -0.26768899 -0.00061459
v 0.03769594 -0.26752701 -0.00021860
v 0.03762793 -0.26765099 -0.00040560
v 0.03798395 -0.26755801 -0.00041660
v 0.03827399 -0.26749799 -0.00062660
v 0.03836697 -0.26735201 -0.00019659
v 0.03833395 -0.26747099 -0.00039860
v 0.03873896 -0.26737499 -0.00034160
v 0.03912097 -0.26730400 -0.00049360
v 0.03910297 -0.26717299 -0.00004860
v 0.03912097 -0.26728800 -0.00025659
v 0.03957295 -0.26719201 -0.00011260
v 0.04005795 -0.26711300 -0.00017360
v 0.03988796 -0.26699600 0.00024940
v 0.03997594 -0.26711100 0.00005440
v 0.04039698 -0.26703200 0.00026840
v 0.04092395 -0.26696000 0.00028740
v 0.04067695 -0.26683399 0.00070540
v 0.04079997 -0.26696101 0.00051540
v 0.04122298 -0.26689401 0.00082040
v 0.04179394 -0.26683199 0.00093741
v 0.04155397 -0.26667401 0.00142038
v 0.04166895 -0.26682901 0.00120038
v 0.04212194 -0.26677099 0.00165540
v 0.04272294 -0.26672900 0.00189138
v 0.04239296 -0.26654401 0.00236440
v 0.04254198 -0.26672599 0.00214941
v 0.04296493 -0.26669100 0.00273937
v 0.04358494 -0.26667899 0.00312341
v 0.04357296 -0.26659700 0.00409437
v 0.04372894 -0.26641801 0.00483936
v 0.04315298 -0.26645401 0.00355137
v 0.03324598 -0.26962599 0.00569338
v 0.03315293 -0.26970100 0.00585336
v 0.03306394 -0.26973000 0.00585240
v 0.03323596 -0.26965699 0.00585640
v 0.03330898 -0.26959801 0.00586140
v 0.03324699 -0.26956701 0.00524038
v 0.04305094 -0.26659399 0.00315535
v 0.04333698 -0.26667100 0.00335837
v 0.04364496 -0.26670200 0.00356835
v 0.04425299 -0.26669300 0.00449241
v 0.04396396 -0.26670900 0.00424636
v 0.04366695 -0.26666701 0.00401736
v 0.04416394 -0.26671800 0.00457740
v 0.03339499 -0.26940501 0.00525040
v 0.04331094 -0.26669800 0.00314141
v 0.04336398 -0.26662901 0.00357640
v 0.04386895 -0.26666701 0.00452137
v 0.04402494 -0.26670700 0.00464440
v 0.04389894 -0.26664999 0.00471336
v 0.04377496 -0.26656201 0.00469035
v 0.04379594 -0.26655000 0.00478137
v 0.03361696 -0.27008599 0.01192337
v 0.03341495 -0.26944500 0.00587636
v 0.03344494 -0.26935601 0.00588739
v 0.03345793 -0.26926401 0.00589836
v 0.03386598 -0.27033901 0.01798838
v 0.03359597 -0.27012900 0.01192039
v 0.03336894 -0.26952600 0.00586838
v 0.03356999 -0.27017000 0.01191735
v 0.03354096 -0.27020901 0.01191538
v 0.03306394 -0.26973000 0.00585240
v 0.03315293 -0.26970100 0.00585336
v 0.03323596 -0.26965699 0.00585640
v 0.03330898 -0.26959801 0.00586140
v 0.03349196 -0.27026001 0.01192235
v 0.03343695 -0.27030399 0.01193135
v 0.03347498 -0.27081600 0.01810437
v 0.03369998 -0.27036899 0.01495838
v 0.03360998 -0.27063799 0.01652640
v 0.03378498 -0.27050900 0.01725536
v 0.03365397 -0.27070400 0.01767635
v 0.03369295 -0.27070299 0.01804238
v 0.03357797 -0.27077800 0.01805734
v 0.03380596 -0.27053899 0.01782935
v 0.03384298 -0.27047500 0.01800638
v 0.03378397 -0.27059999 0.01802539
v 0.03398495 -0.26954600 0.02040737
v 0.03400796 -0.26898199 0.02046334
v 0.03401297 -0.26902401 0.02065539
v 0.03400397 -0.26890701 0.02027535
v 0.03400099 -0.26880100 0.02009838
v 0.03404498 -0.26914400 0.02161538
v 0.03392493 -0.26994401 0.01919835
v 0.03399997 -0.26873001 0.02000534
v 0.03399997 -0.26865000 0.01991939
v 0.03386598 -0.27033901 0.01798838
v 0.03399997 -0.26194599 0.01321536
v 0.03345793 -0.26926401 0.00589836
v 0.03967493 -0.26662299 0.02002936
v 0.03536193 -0.26862901 0.02160638
v 0.03957998 -0.26670700 0.01959437
v 0.03540998 -0.26861799 0.02173835
v 0.03544998 -0.26858801 0.02186936
v 0.03548096 -0.26854199 0.02199834
v 0.04233795 -0.26536500 0.01846635
v 0.04210096 -0.26551899 0.01810538
v 0.04444193 -0.26436201 0.01633137
v 0.04453498 -0.26432899 0.01642835
v 0.04469794 -0.26418799 0.01669734
v 0.04462194 -0.26427701 0.01652640
v -0.04465299 -0.26395699 0.01727038
v -0.04112499 -0.26584300 0.01935434
v -0.04471701 -0.26389000 0.01734536
v -0.04458200 -0.26401600 0.01719337
v -0.04449796 -0.26406500 0.01710540
v -0.04441297 -0.26409701 0.01701337
v -0.04109299 -0.26589099 0.01923835
v -0.04105299 -0.26592499 0.01912039
v -0.04098600 -0.26594901 0.01894539
v -0.03911399 -0.26689899 0.02009534
v -0.04109299 -0.26589099 0.01923835
v -0.04105299 -0.26592499 0.01912039
v -0.03916996 -0.26682901 0.02026134
v -0.04112499 -0.26584300 0.01935434
v -0.04098099 -0.26594901 0.01895439
v -0.03906601 -0.26692900 0.01997536
v -0.03901296 -0.26694399 0.01986235
v -0.04098600 -0.26594901 0.01894539
v -0.03535699 -0.26860699 0.02157235
v -0.03906601 -0.26692900 0.01997536
v -0.03901296 -0.26694399 0.01986235
v -0.03540700 -0.26859701 0.02170735
v -0.03911399 -0.26689899 0.02009534
v -0.03544896 -0.26856801 0.02184236
v -0.03916996 -0.26682901 0.02026134
v -0.03548097 -0.26852101 0.02197539
v 0.02847899 -0.16850390 -0.07294756
v 0.02899999 -0.15504999 -0.07235455
v 0.02899999 -0.16148099 -0.06592357
v 0.02900499 -0.15445600 -0.07280355
v 0.02900297 -0.15463100 -0.07269656
v 0.02900094 -0.15479989 -0.07257556
v 0.03908200 -0.16259301 -0.06703555
v 0.03892398 -0.16209500 -0.06530958
v 0.03899998 -0.16148099 -0.06592357
v 0.03884995 -0.16393800 -0.06615257
v 0.03869796 -0.16269000 -0.06471461
v 0.03832996 -0.16324800 -0.06415557
v 0.03904194 -0.16413900 -0.06711256
v 0.03882194 -0.16566101 -0.06730055
v 0.03812600 -0.16494390 -0.06514757
v 0.03782994 -0.16375300 -0.06365156
v 0.03721398 -0.16418900 -0.06321555
v 0.03699697 -0.16574100 -0.06434959
v 0.03649997 -0.16454300 -0.06286156
v 0.03820599 -0.16632800 -0.06644958
v 0.03843195 -0.16720000 -0.06759256
v 0.03557598 -0.16625400 -0.06383758
v 0.03570997 -0.16480300 -0.06260156
v 0.03486794 -0.16496301 -0.06244158
v 0.03705597 -0.16714200 -0.06563657
v 0.03399997 -0.16642991 -0.06366157
v 0.03399997 -0.16501591 -0.06238859
v 0.03313195 -0.16496301 -0.06244158
v 0.03560699 -0.16766401 -0.06511455
v 0.03711397 -0.16854200 -0.06692260
v 0.03790296 -0.16867889 -0.06796258
v 0.03242397 -0.16625400 -0.06383758
v 0.03228999 -0.16480300 -0.06260156
v 0.03149998 -0.16454300 -0.06286156
v 0.03399998 -0.16784389 -0.06493461
v 0.03563697 -0.16907389 -0.06639057
v 0.03717298 -0.16994201 -0.06820958
v 0.03724695 -0.17008790 -0.06840056
v 0.03100294 -0.16574100 -0.06434959
v 0.03078598 -0.16418900 -0.06321555
v 0.03016997 -0.16375300 -0.06365156
v 0.03239298 -0.16766401 -0.06511455
v 0.03399998 -0.16925789 -0.06620758
v 0.03566796 -0.17048500 -0.06766659
v 0.03645397 -0.17140000 -0.06890559
v 0.02987397 -0.16494390 -0.06514757
v 0.02966995 -0.16324800 -0.06415557
v 0.03094399 -0.16714200 -0.06563657
v 0.03236294 -0.16907389 -0.06639057
v 0.03399998 -0.17067100 -0.06748056
v 0.03569896 -0.17189500 -0.06894356
v 0.03562499 -0.17245600 -0.06941157
v 0.02914995 -0.16393800 -0.06615257
v 0.02930195 -0.16269000 -0.06471461
v 0.02907599 -0.16209500 -0.06530958
v 0.02899999 -0.16148099 -0.06592357
v 0.02979398 -0.16632800 -0.06644958
v 0.03088600 -0.16854200 -0.06692260
v 0.03233195 -0.17048500 -0.06766659
v 0.03399998 -0.17208500 -0.06875360
v 0.03492398 -0.17316000 -0.06982457
v 0.02905494 -0.16530401 -0.06747460
v 0.02971298 -0.16771300 -0.06775158
v 0.03082699 -0.16994201 -0.06820958
v 0.03230095 -0.17189500 -0.06894356
v 0.03399998 -0.17349900 -0.07002657
v 0.03423900 -0.17370200 -0.07021456
v 0.03368497 -0.17403790 -0.07052260
v 0.02896095 -0.16666900 -0.06879657
v 0.02847899 -0.16850390 -0.07294756
v 0.02963299 -0.16909800 -0.06905359
v 0.03076798 -0.17134300 -0.06949555
v 0.03226996 -0.17330500 -0.07021957
v 0.03190899 -0.17448400 -0.07145458
v 0.03148294 -0.17443600 -0.07166761
v 0.03233499 -0.17447001 -0.07123756
v 0.03275496 -0.17439701 -0.07102060
v 0.03316296 -0.17427100 -0.07080459
v 0.02886599 -0.16803400 -0.07011759
v 0.02955198 -0.17048290 -0.07035559
v 0.03070999 -0.17274299 -0.07078260
v 0.03025198 -0.17387600 -0.07225656
v 0.02984595 -0.17348900 -0.07244056
v 0.03066499 -0.17414799 -0.07206356
v 0.03106499 -0.17432500 -0.07187157
v 0.02877099 -0.16939899 -0.07143956
v 0.02853196 -0.17010300 -0.07296460
v 0.02947200 -0.17186700 -0.07165759
v 0.02876997 -0.17137299 -0.07288759
v 0.02908898 -0.17228290 -0.07276457
v 0.02946300 -0.17298400 -0.07260859
v 0.03905499 -0.16182400 -0.06706357
v 0.03908200 -0.16259301 -0.06703555
v 0.03899998 -0.16148099 -0.06592357
v 0.03902698 -0.16105500 -0.06709158
v 0.03899998 -0.16033401 -0.06707060
v 0.03899998 -0.16028599 -0.06711757
v -0.03903095 -0.16100200 -0.06723356
v -0.03899996 -0.16013999 -0.06726360
v -0.03899996 -0.16018300 -0.06722158
v -0.03899996 -0.16148099 -0.06592357
v -0.03906195 -0.16186400 -0.06720155
v -0.03909199 -0.16272600 -0.06716960
v -0.03909199 -0.16272600 -0.06716960
v -0.03899996 -0.16148099 -0.06592357
v -0.03892396 -0.16209500 -0.06530958
v -0.02914898 -0.16394700 -0.06616157
v -0.02907597 -0.16209500 -0.06530958
v -0.02899997 -0.16148099 -0.06592357
v -0.02930199 -0.16269000 -0.06471461
v -0.02966999 -0.16324800 -0.06415557
v -0.02987395 -0.16495200 -0.06515556
v -0.03016995 -0.16375300 -0.06365156
v -0.03078596 -0.16418900 -0.06321555
v -0.02905397 -0.16532101 -0.06749057
v -0.03100197 -0.16575000 -0.06435757
v -0.03149997 -0.16454300 -0.06286156
v -0.02979296 -0.16634600 -0.06646555
v -0.02895897 -0.16669400 -0.06882059
v -0.02847497 -0.16855800 -0.07300156
v -0.03242397 -0.16626200 -0.06384557
v -0.03228998 -0.16480300 -0.06260156
v -0.03313201 -0.16496301 -0.06244158
v -0.03094297 -0.16715901 -0.06565260
v -0.02971195 -0.16773900 -0.06777560
v -0.02886396 -0.16806801 -0.07015055
v -0.03399996 -0.16643891 -0.06366956
v -0.03399996 -0.16501591 -0.06238860
v -0.03486799 -0.16496301 -0.06244158
v -0.03239296 -0.16768099 -0.06512957
v -0.03088395 -0.16856800 -0.06694656
v -0.02963094 -0.16913190 -0.06908661
v -0.02876799 -0.16944100 -0.07148057
v -0.02846996 -0.16927899 -0.07302159
v -0.02851301 -0.16999900 -0.07302159
v -0.03557597 -0.16626200 -0.06384557
v -0.03570997 -0.16480300 -0.06260156
v -0.03649997 -0.16454300 -0.06286156
v -0.03399996 -0.16786100 -0.06495058
v -0.03236197 -0.16910090 -0.06641459
v -0.03082597 -0.16997699 -0.06824159
v -0.02954995 -0.17052600 -0.07039660
v -0.02867298 -0.17081501 -0.07281059
v -0.02862095 -0.17078701 -0.07299059
v -0.02880399 -0.17155799 -0.07292658
v -0.03699796 -0.16575000 -0.06435757
v -0.03721398 -0.16418900 -0.06321555
v -0.03782999 -0.16375300 -0.06365156
v -0.03560697 -0.16768099 -0.06512957
v -0.03399996 -0.16928400 -0.06623059
v -0.03233097 -0.17051999 -0.06769859
v -0.03076695 -0.17138600 -0.06953555
v -0.02946900 -0.17191900 -0.07170659
v -0.02952395 -0.17313799 -0.07263457
v -0.02983795 -0.17354301 -0.07249760
v -0.02925698 -0.17269400 -0.07274758
v -0.02903496 -0.17222001 -0.07283759
v -0.03812598 -0.16495200 -0.06515556
v -0.03832994 -0.16324800 -0.06415557
v -0.03705697 -0.16715901 -0.06565260
v -0.03563796 -0.16910090 -0.06641459
v -0.03399996 -0.17070700 -0.06751155
v -0.03229998 -0.17193900 -0.06898355
v -0.03070800 -0.17279489 -0.07083058
v -0.03104400 -0.17438900 -0.07193756
v -0.03150795 -0.17451499 -0.07171159
v -0.03060399 -0.17418100 -0.07214760
v -0.03019898 -0.17389600 -0.07233560
v -0.03885095 -0.16394700 -0.06616157
v -0.03869794 -0.16269000 -0.06471461
v -0.03902398 -0.16449501 -0.06726455
v -0.03820698 -0.16634600 -0.06646555
v -0.03872995 -0.16622791 -0.06750059
v -0.03824995 -0.16790000 -0.06784355
v -0.03711598 -0.16856800 -0.06694656
v -0.03760295 -0.16949400 -0.06827861
v -0.03566895 -0.17051999 -0.06769859
v -0.03399996 -0.17212901 -0.06879258
v -0.03477399 -0.17338400 -0.06999558
v -0.03581600 -0.17233799 -0.06939256
v -0.03226899 -0.17335799 -0.07026755
v -0.03312097 -0.17436700 -0.07089960
v -0.03391097 -0.17399789 -0.07047659
v -0.03250895 -0.17452399 -0.07121658
v -0.03198294 -0.17456099 -0.07147860
v -0.03717397 -0.16997699 -0.06824159
v -0.03679596 -0.17098500 -0.06879758
v -0.03569995 -0.17193900 -0.06898355
v -0.03399996 -0.17355201 -0.07007360
v -0.02899997 -0.15497600 -0.07242858
v -0.02847497 -0.16855800 -0.07300156
v -0.02899997 -0.16148099 -0.06592357
v -0.02900498 -0.15439300 -0.07287061
v -0.02900201 -0.15466490 -0.07269555
v -0.02899997 -0.15482500 -0.07256859
v -0.03400295 -0.26920500 0.02206134
v -0.03548097 -0.26852101 0.02197539
v -0.03544896 -0.26856801 0.02184236
v -0.03540700 -0.26859701 0.02170735
v -0.03535699 -0.26860699 0.02157235
v -0.03396099 -0.26923400 0.02220034
v -0.03390896 -0.26925299 0.02233839
v -0.03380995 -0.26925901 0.02255338
v -0.03381299 -0.27037600 0.01857239
v -0.03384101 -0.27045000 0.01793235
v -0.03378200 -0.27057499 0.01795035
v -0.03369098 -0.27067900 0.01796740
v -0.03357601 -0.27075300 0.01798236
v -0.03384697 -0.27031401 0.01856237
v -0.03386396 -0.27031401 0.01791435
v -0.03392398 -0.26991999 0.01914334
v -0.03384298 -0.27017701 0.01918739
v -0.03380995 -0.26925901 0.02255338
v -0.03398495 -0.26952100 0.02037137
v -0.03398496 -0.26940301 0.02135837
v -0.03404498 -0.26911801 0.02159839
v -0.03395700 -0.26943001 0.02147239
v -0.03390896 -0.26925299 0.02233839
v -0.03396099 -0.26923400 0.02220034
v -0.03400295 -0.26920500 0.02206134
v -0.03404098 -0.26915401 0.02182334
v -0.03402596 -0.26917899 0.02194935
v 0.03384798 -0.27033901 0.01862734
v 0.03386598 -0.27033901 0.01798838
v 0.03392493 -0.26994401 0.01919835
v 0.03384298 -0.27047500 0.01800638
v 0.03381395 -0.27039999 0.01863735
v 0.03378397 -0.27059999 0.01802539
v 0.03369295 -0.27070299 0.01804238
v 0.03357797 -0.27077800 0.01805734
v 0.03384399 -0.27020201 0.01924335
v 0.03398495 -0.26954600 0.02040737
v 0.03380994 -0.26927799 0.02258235
v 0.03398298 -0.26942801 0.02140039
v 0.03404498 -0.26914400 0.02161538
v 0.03402298 -0.26920500 0.02199739
v 0.03399996 -0.26922801 0.02210235
v 0.03403794 -0.26918301 0.02188038
v 0.03390097 -0.26927400 0.02238637
v 0.03395599 -0.26925701 0.02224338
v 0.03390097 -0.26927400 0.02238637
v 0.03548096 -0.26854199 0.02199834
v 0.03380994 -0.26927799 0.02258235
v 0.03395599 -0.26925701 0.02224338
v 0.03399996 -0.26922801 0.02210235
v 0.03536193 -0.26862901 0.02160638
v 0.03540998 -0.26861799 0.02173835
v 0.03544998 -0.26858801 0.02186936
v 0.02865196 -0.16147301 -0.07317757
v 0.02825594 -0.16849600 -0.07334655
v 0.02817195 -0.16849300 -0.07339060
v 0.02832896 -0.16849890 -0.07328659
v 0.02839095 -0.16850100 -0.07321459
v 0.02862496 -0.16138490 -0.07321560
v 0.02867795 -0.16147400 -0.07313555
v 0.02843696 -0.16850300 -0.07313156
v 0.02859396 -0.16128200 -0.07325160
v 0.02874595 -0.15319000 -0.07322061
v 0.02870000 -0.16147500 -0.07309257
v 0.02900499 -0.15445600 -0.07280355
v 0.02847899 -0.16850390 -0.07294756
v 0.02846694 -0.16850390 -0.07304155
v 0.02883399 -0.15786900 -0.07304757
v 0.02881199 -0.15553001 -0.07316559
v 0.02887995 -0.15363400 -0.07313156
v 0.02894295 -0.15499400 -0.07299655
v 0.02897496 -0.15407400 -0.07298457
v 0.02899999 -0.15428200 -0.07289260
v 0.02853196 -0.17010300 -0.07296460
v 0.02843696 -0.16850300 -0.07313156
v 0.02846694 -0.16850390 -0.07304155
v 0.02847899 -0.16850390 -0.07294756
v 0.02823598 -0.17017099 -0.07333660
v 0.02817195 -0.16849300 -0.07339060
v 0.02825594 -0.16849600 -0.07334655
v 0.03045296 -0.17435500 -0.07227456
v 0.03001297 -0.17403901 -0.07248258
v 0.03025198 -0.17387600 -0.07225656
v 0.03066499 -0.17414799 -0.07206356
v 0.03093100 -0.17458799 -0.07204657
v 0.03106499 -0.17432500 -0.07187157
v 0.03143496 -0.17473900 -0.07180458
v 0.03148294 -0.17443600 -0.07166761
v 0.02843093 -0.17013399 -0.07318955
v 0.02832896 -0.16849890 -0.07328659
v 0.02839095 -0.16850100 -0.07321459
v 0.02849895 -0.17063300 -0.07315659
v 0.02876997 -0.17137299 -0.07288759
v 0.02841896 -0.17118789 -0.07324057
v 0.02863199 -0.17127900 -0.07309460
v 0.02877099 -0.17176300 -0.07303059
v 0.02908898 -0.17228290 -0.07276457
v 0.02873397 -0.17217401 -0.07308655
v 0.02894199 -0.17222600 -0.07295155
v 0.02913195 -0.17263789 -0.07286459
v 0.02946300 -0.17298400 -0.07260859
v 0.02914995 -0.17300799 -0.07288956
v 0.02933199 -0.17299300 -0.07277256
v 0.02953196 -0.17328900 -0.07267957
v 0.02984595 -0.17348900 -0.07244056
v 0.02958298 -0.17360900 -0.07268458
v 0.02973497 -0.17354400 -0.07258456
v 0.02993596 -0.17375800 -0.07249158
v 0.03194398 -0.17463601 -0.07153058
v 0.03190899 -0.17448400 -0.07145458
v 0.03195298 -0.17480800 -0.07155358
v 0.03216696 -0.17463900 -0.07142060
v 0.03233499 -0.17447001 -0.07123756
v 0.03247494 -0.17479689 -0.07129961
v 0.03241599 -0.17462300 -0.07129758
v 0.03263695 -0.17459300 -0.07118755
v 0.03275496 -0.17439701 -0.07102060
v 0.03298694 -0.17470901 -0.07104659
v 0.03288097 -0.17454091 -0.07106459
v 0.03309495 -0.17448100 -0.07095658
v 0.03316296 -0.17427100 -0.07080459
v 0.03348494 -0.17455600 -0.07079756
v 0.03333200 -0.17440000 -0.07083660
v 0.03360695 -0.17428701 -0.07069557
v 0.03368497 -0.17403790 -0.07052260
v 0.03412098 -0.17426690 -0.07047557
v 0.03390998 -0.17413799 -0.07053959
v 0.03420097 -0.17397089 -0.07038760
v 0.03423900 -0.17370200 -0.07021456
v 0.03479696 -0.17384601 -0.07012856
v 0.03452397 -0.17375800 -0.07021856
v 0.03488398 -0.17348590 -0.07002758
v 0.03492398 -0.17316000 -0.06982457
v 0.03542799 -0.17334691 -0.06980156
v 0.03518296 -0.17323300 -0.06986856
v 0.03555400 -0.17288201 -0.06966757
v 0.03562499 -0.17245600 -0.06941157
v 0.03619797 -0.17259400 -0.06939458
v 0.03591496 -0.17250000 -0.06947058
v 0.03635699 -0.17197400 -0.06922757
v 0.03645397 -0.17140000 -0.06890559
v 0.03697396 -0.17164700 -0.06897956
v 0.03671498 -0.17149401 -0.06902760
v 0.03704894 -0.17099100 -0.06883859
v 0.03765697 -0.17061201 -0.06860858
v 0.03969098 -0.16331300 -0.06749260
v 0.03984696 -0.16258100 -0.06744158
v 0.03980995 -0.16405199 -0.06744158
v 0.03714598 -0.17052700 -0.06864255
v 0.03724695 -0.17008790 -0.06840056
v 0.03744895 -0.17031400 -0.06861060
v 0.03776497 -0.17010100 -0.06852459
v 0.03842897 -0.16913000 -0.06818455
v 0.03785199 -0.16911800 -0.06820458
v 0.03782297 -0.16958800 -0.06839358
v 0.03790296 -0.16867889 -0.06796258
v 0.03813696 -0.16936000 -0.06831860
v 0.03800500 -0.16875599 -0.06810659
v 0.03830296 -0.16899399 -0.06822556
v 0.03817195 -0.16833100 -0.06799858
v 0.03843195 -0.16720000 -0.06759256
v 0.03848595 -0.16856401 -0.06812357
v 0.03911996 -0.16736300 -0.06780457
v 0.03843397 -0.16758600 -0.06782656
v 0.03848500 -0.16800299 -0.06800359
v 0.03881497 -0.16768689 -0.06793957
v 0.03855098 -0.16720700 -0.06774759
v 0.03894300 -0.16730089 -0.06786859
v 0.03873599 -0.16724300 -0.06785255
v 0.03865999 -0.16682491 -0.06767356
v 0.03882194 -0.16566101 -0.06730055
v 0.03906096 -0.16691101 -0.06780356
v 0.03884894 -0.16605100 -0.06754159
v 0.03894896 -0.16646899 -0.06772255
v 0.03929598 -0.16599500 -0.06767356
v 0.03960598 -0.16550601 -0.06754261
v 0.03900397 -0.16521899 -0.06742656
v 0.03904194 -0.16413900 -0.06711256
v 0.03893996 -0.16559801 -0.06747555
v 0.03939194 -0.16553099 -0.06762057
v 0.03945995 -0.16514300 -0.06758356
v 0.03910298 -0.16445491 -0.06734657
v 0.03926397 -0.16478901 -0.06752461
v 0.03913296 -0.16410489 -0.06731855
v 0.03955699 -0.16442700 -0.06753361
v 0.03959096 -0.16406800 -0.06751656
v 0.03933394 -0.16408300 -0.06747758
v 0.03920198 -0.16372199 -0.06735259
v 0.03920794 -0.16294900 -0.06733059
v 0.03917200 -0.16259900 -0.06730258
v 0.03923297 -0.16260000 -0.06737458
v 0.03912497 -0.16259800 -0.06721955
v 0.03909499 -0.16259600 -0.06712961
v 0.03908200 -0.16259301 -0.06703555
v 0.03924698 -0.16294999 -0.06737256
v 0.03740997 -0.17055801 -0.06868559
v 0.03748495 -0.17006800 -0.06851857
v 0.03799099 -0.16922800 -0.06829559
v 0.03807098 -0.16904600 -0.06824856
v 0.03814996 -0.16886400 -0.06820160
v 0.03823799 -0.16865000 -0.06814956
v 0.03832299 -0.16843601 -0.06809955
v 0.03861499 -0.16762500 -0.06792557
v 0.03884697 -0.16685700 -0.06778460
v 0.03905398 -0.16601400 -0.06765758
v 0.03910196 -0.16578600 -0.06762760
v 0.03914595 -0.16555700 -0.06760060
v 0.03917897 -0.16536500 -0.06757956
v 0.03920997 -0.16517401 -0.06755959
v 0.03930396 -0.16443600 -0.06749856
v 0.03938300 -0.16389100 -0.06748360
v 0.03951300 -0.16388200 -0.06751155
v 0.03938795 -0.16351800 -0.06746858
v 0.03936697 -0.16351689 -0.06745958
v 0.03951699 -0.16330899 -0.06749957
v 0.03940899 -0.16351900 -0.06747657
v 0.03943098 -0.16351999 -0.06748360
v 0.03956295 -0.16331001 -0.06750357
v 0.03960699 -0.16331100 -0.06750357
v 0.03964896 -0.16331200 -0.06749957
v 0.03912497 -0.16315700 -0.06719255
v 0.03934896 -0.16312800 -0.06744360
v 0.03928799 -0.16295090 -0.06740659
v 0.03932995 -0.16295090 -0.06743460
v 0.03951300 -0.16313000 -0.06749957
v 0.03949899 -0.16277400 -0.06750357
v 0.03939099 -0.16259800 -0.06747859
v 0.03948194 -0.16259600 -0.06750661
v 0.03930694 -0.16260000 -0.06743460
v 0.03955198 -0.16277300 -0.06750959
v 0.03957600 -0.16259301 -0.06751656
v 0.03960795 -0.16277190 -0.06751060
v 0.03976197 -0.16258501 -0.06748360
v 0.03967095 -0.16258900 -0.06750857
v 0.03804797 -0.16865000 -0.06807959
v 0.03891796 -0.16571189 -0.06749159
v 0.03934294 -0.16379900 -0.06746160
v 0.03921897 -0.16333599 -0.06734657
v 0.03927500 -0.16323200 -0.06739556
v 0.03965098 -0.15883900 -0.06760257
v 0.03975297 -0.16000500 -0.06753259
v 0.03958095 -0.15898000 -0.06762456
v 0.03970695 -0.15871800 -0.06757456
v 0.03910596 -0.16221300 -0.06722259
v 0.03912497 -0.16259800 -0.06721955
v 0.03909499 -0.16259600 -0.06712961
v 0.03908200 -0.16259301 -0.06703555
v 0.03912497 -0.16221400 -0.06726157
v 0.03917200 -0.16259900 -0.06730258
v 0.03914696 -0.16221491 -0.06729960
v 0.03965998 -0.16194500 -0.06753057
v 0.03979999 -0.16129300 -0.06748861
v 0.03984696 -0.16258100 -0.06744158
v 0.03976197 -0.16258501 -0.06748360
v 0.03967095 -0.16258900 -0.06750857
v 0.03939599 -0.15999900 -0.06759959
v 0.03932697 -0.16008499 -0.06757760
v 0.03914196 -0.15979300 -0.06748259
v 0.03946096 -0.15990201 -0.06761056
v 0.03924996 -0.15958300 -0.06756860
v 0.03952295 -0.15979500 -0.06761360
v 0.03957195 -0.15970300 -0.06760960
v 0.03935099 -0.15940000 -0.06761360
v 0.03947396 -0.15918000 -0.06763458
v 0.03930998 -0.16240700 -0.06744760
v 0.03957600 -0.16259301 -0.06751656
v 0.03948194 -0.16259600 -0.06750661
v 0.03939099 -0.16259800 -0.06747859
v 0.03930694 -0.16260000 -0.06743460
v 0.03923297 -0.16260000 -0.06737458
v 0.03917295 -0.16221491 -0.06733655
v 0.03939498 -0.16208300 -0.06750661
v 0.03910298 -0.16131601 -0.06731259
v 0.03902698 -0.16105500 -0.06709158
v 0.03911698 -0.16170000 -0.06729859
v 0.03929699 -0.16118599 -0.06750959
v 0.03931100 -0.16157000 -0.06749558
v 0.03909594 -0.16112299 -0.06731957
v 0.03957695 -0.16143300 -0.06755757
v 0.03910697 -0.16089600 -0.06735759
v 0.03935099 -0.16072901 -0.06755560
v 0.03956998 -0.16124091 -0.06756460
v 0.03909296 -0.16051200 -0.06737059
v 0.03899998 -0.16028599 -0.06711757
v 0.03959698 -0.16101190 -0.06756860
v 0.03913600 -0.16044100 -0.06743055
v 0.03912396 -0.16011889 -0.06744158
v 0.03901399 -0.16014799 -0.06724256
v 0.03906197 -0.15998100 -0.06737059
v 0.03957296 -0.16036800 -0.06759059
v 0.03956199 -0.16004600 -0.06760156
v 0.03959299 -0.16000190 -0.06759756
v 0.03923399 -0.16189300 -0.06742459
v 0.03903497 -0.16036500 -0.06727457
v 0.03933895 -0.16040701 -0.06756657
v 0.03910000 -0.16186000 -0.06724959
v 0.03943998 -0.16192099 -0.06752759
v -0.03970395 -0.15857799 -0.06772357
v -0.03957896 -0.15883601 -0.06777155
v -0.03975396 -0.15995701 -0.06767755
v -0.03915398 -0.16230200 -0.06743460
v -0.03918098 -0.16273300 -0.06743460
v -0.03917997 -0.16230200 -0.06747156
v -0.03913300 -0.16230100 -0.06739658
v -0.03913496 -0.16273201 -0.06735259
v -0.03911398 -0.16230001 -0.06735759
v -0.03910498 -0.16272900 -0.06726258
v -0.03909199 -0.16272600 -0.06716960
v -0.03953896 -0.15966991 -0.06775760
v -0.03942899 -0.15911400 -0.06777757
v -0.03928195 -0.15938000 -0.06773257
v -0.03953998 -0.16251300 -0.06765657
v -0.03976898 -0.16271900 -0.06761759
v -0.03985398 -0.16271500 -0.06757658
v -0.03967796 -0.16272300 -0.06764256
v -0.03958295 -0.16272689 -0.06765055
v -0.03948997 -0.16272999 -0.06763958
v -0.03948300 -0.16251400 -0.06764757
v -0.03942995 -0.16251589 -0.06763356
v -0.03939895 -0.16273201 -0.06761157
v -0.03938197 -0.16251700 -0.06761556
v -0.03931598 -0.16273300 -0.06756657
v -0.03924195 -0.16273400 -0.06750756
v -0.03921096 -0.16230200 -0.06750756
v -0.03960596 -0.16216500 -0.06767058
v -0.03980397 -0.16133600 -0.06762856
v -0.03910296 -0.16208400 -0.06735557
v -0.03958099 -0.16147600 -0.06769657
v -0.03930096 -0.16118100 -0.06764858
v -0.03931598 -0.16161200 -0.06763356
v -0.03957300 -0.16125999 -0.06770360
v -0.03912298 -0.16174100 -0.06743657
v -0.03956096 -0.16091500 -0.06771659
v -0.03910796 -0.16131000 -0.06745260
v -0.03903095 -0.16100200 -0.06723356
v -0.03909998 -0.16109499 -0.06745958
v -0.03953598 -0.16022600 -0.06774055
v -0.03927599 -0.16049200 -0.06767356
v -0.03930198 -0.16001700 -0.06771057
v -0.03908800 -0.16075000 -0.06747257
v -0.03899996 -0.16013999 -0.06726360
v -0.03954898 -0.15998800 -0.06774657
v -0.03934495 -0.15996800 -0.06772756
v -0.03941099 -0.15988000 -0.06774759
v -0.03956895 -0.15996300 -0.06774461
v -0.03960000 -0.15991899 -0.06774055
v -0.03947495 -0.15978201 -0.06775659
v -0.03909497 -0.16027699 -0.06752657
v -0.03907196 -0.16031900 -0.06748759
v -0.03900497 -0.16005699 -0.06734156
v -0.03909998 -0.16004001 -0.06755357
v -0.03902297 -0.15996300 -0.06742155
v -0.03912698 -0.15999199 -0.06758958
v -0.03907900 -0.15979300 -0.06754457
v -0.03922300 -0.15983801 -0.06767857
v -0.03916495 -0.15960100 -0.06765156
v -0.03934495 -0.15963700 -0.06774258
v -0.03939299 -0.16223601 -0.06763559
v -0.03929900 -0.16212989 -0.06759256
v -0.03932898 -0.16195700 -0.06762057
v -0.03928797 -0.16083600 -0.06766158
v -0.03918897 -0.16202191 -0.06750458
v -0.03113799 -0.17473000 -0.07200759
v -0.03150795 -0.17451499 -0.07171159
v -0.03104400 -0.17438900 -0.07193756
v -0.03173499 -0.17486100 -0.07172358
v -0.03062497 -0.17451800 -0.07225060
v -0.03060399 -0.17418100 -0.07214760
v -0.03514998 -0.17335591 -0.06997156
v -0.03468399 -0.17401400 -0.07026857
v -0.03578095 -0.17312101 -0.06970560
v -0.03273700 -0.17465100 -0.07120656
v -0.03312097 -0.17436700 -0.07089960
v -0.03250895 -0.17452399 -0.07121658
v -0.03234296 -0.17488299 -0.07143056
v -0.03300999 -0.17478199 -0.07110559
v -0.03016399 -0.17402799 -0.07244056
v -0.03019898 -0.17389600 -0.07233560
v -0.03019296 -0.17424890 -0.07245355
v -0.02980195 -0.17391001 -0.07263660
v -0.02868496 -0.17154901 -0.07312059
v -0.02839999 -0.17118400 -0.07330060
v -0.02862696 -0.17196199 -0.07318860
v -0.03969495 -0.16354790 -0.06762558
v -0.03979699 -0.16438800 -0.06758159
v -0.03985398 -0.16271500 -0.06757658
v -0.03826700 -0.16821399 -0.06805658
v -0.03824995 -0.16790000 -0.06784355
v -0.03760295 -0.16949400 -0.06827861
v -0.03832696 -0.16856000 -0.06821459
v -0.03871594 -0.16810390 -0.06811559
v -0.03847598 -0.16915500 -0.06827455
v -0.03907697 -0.16763200 -0.06795156
v -0.03841995 -0.16885389 -0.06827658
v -0.03802095 -0.16929200 -0.06839156
v -0.03725700 -0.17077000 -0.06882560
v -0.03683697 -0.17193800 -0.06915158
v -0.03773294 -0.17060100 -0.06867456
v -0.03767596 -0.17001000 -0.06858855
v -0.03683399 -0.17143400 -0.06906157
v -0.03679596 -0.17098500 -0.06879758
v -0.03632496 -0.17212200 -0.06934159
v -0.03581600 -0.17233799 -0.06939256
v -0.03581999 -0.17270701 -0.06961458
v -0.03477399 -0.17338400 -0.06999558
v -0.03475098 -0.17368300 -0.07018160
v -0.03429995 -0.17399700 -0.07041555
v -0.03391097 -0.17399789 -0.07047659
v -0.03379796 -0.17451000 -0.07071560
v -0.03387396 -0.17424200 -0.07063460
v -0.03346197 -0.17443199 -0.07084357
v -0.03308396 -0.17456400 -0.07103359
v -0.03244399 -0.17469600 -0.07135057
v -0.03216897 -0.17471300 -0.07148456
v -0.03198294 -0.17456099 -0.07147860
v -0.03187798 -0.17470500 -0.07162660
v -0.02983497 -0.17371900 -0.07259255
v -0.02983795 -0.17354301 -0.07249760
v -0.02966999 -0.17353091 -0.07266956
v -0.02952395 -0.17313799 -0.07263457
v -0.02945696 -0.17352191 -0.07279759
v -0.02950799 -0.17332201 -0.07274359
v -0.02936594 -0.17311300 -0.07280856
v -0.02925698 -0.17269400 -0.07274758
v -0.02915899 -0.17309000 -0.07293760
v -0.02922897 -0.17288400 -0.07287257
v -0.02910797 -0.17265700 -0.07292759
v -0.02903496 -0.17222001 -0.07283759
v -0.02890299 -0.17262401 -0.07305759
v -0.02899395 -0.17241400 -0.07297956
v -0.02886198 -0.17209201 -0.07303959
v -0.02880399 -0.17155799 -0.07292658
v -0.02854697 -0.17097691 -0.07318460
v -0.02862095 -0.17078701 -0.07299059
v -0.02847897 -0.17059091 -0.07321757
v -0.02851301 -0.16999900 -0.07302159
v -0.02825098 -0.17038999 -0.07337760
v -0.02842598 -0.17018799 -0.07324260
v -0.02838896 -0.16974200 -0.07326060
v -0.02846996 -0.16927899 -0.07302159
v -0.02816795 -0.16947500 -0.07342857
v -0.02837394 -0.16937400 -0.07326960
v -0.02842097 -0.16892201 -0.07319056
v -0.02847497 -0.16855800 -0.07300156
v -0.02846299 -0.16855800 -0.07309556
v -0.02843295 -0.16855700 -0.07318556
v -0.03920297 -0.16313089 -0.06744456
v -0.03913496 -0.16273201 -0.06735259
v -0.03910498 -0.16272900 -0.06726258
v -0.03909199 -0.16272600 -0.06716960
v -0.03918700 -0.16401491 -0.06747460
v -0.03902398 -0.16449501 -0.06726455
v -0.03947495 -0.16354001 -0.06762355
v -0.03966396 -0.16395900 -0.06763356
v -0.03952299 -0.16354200 -0.06763160
v -0.03965400 -0.16354600 -0.06763255
v -0.03961198 -0.16354500 -0.06763660
v -0.03956799 -0.16354300 -0.06763660
v -0.03912400 -0.16445491 -0.06746459
v -0.03908198 -0.16485301 -0.06749957
v -0.03953294 -0.16481701 -0.06767857
v -0.03952800 -0.16603491 -0.06771355
v -0.03957896 -0.16440800 -0.06765657
v -0.03894900 -0.16572399 -0.06760060
v -0.03872995 -0.16622791 -0.06750059
v -0.03922896 -0.16523001 -0.06767958
v -0.03940497 -0.16562700 -0.06774461
v -0.03886197 -0.16615500 -0.06766158
v -0.03921996 -0.16646899 -0.06784260
v -0.03931396 -0.16607000 -0.06779259
v -0.03854196 -0.16738801 -0.06787860
v -0.03877299 -0.16654401 -0.06772357
v -0.03887998 -0.16688789 -0.06788957
v -0.03900199 -0.16725589 -0.06796056
v -0.03840999 -0.16780300 -0.06796455
v -0.03862695 -0.16773200 -0.06803959
v -0.03886496 -0.16768099 -0.06803458
v -0.03844295 -0.16797200 -0.06805360
v -0.03848295 -0.16814891 -0.06812357
v -0.03779398 -0.16937999 -0.06835460
v -0.03825895 -0.16922300 -0.06836456
v -0.03762697 -0.16973700 -0.06845760
v -0.03808896 -0.16958800 -0.06845760
v -0.02831000 -0.16919491 -0.07334059
v -0.02816598 -0.16854700 -0.07344555
v -0.02831499 -0.16873799 -0.07334357
v -0.02824996 -0.16855000 -0.07340055
v -0.02832399 -0.16855291 -0.07334160
v -0.02838598 -0.16855501 -0.07326859
v -0.03949599 -0.16293199 -0.06763255
v -0.03927796 -0.16313300 -0.06752258
v -0.03931795 -0.16313300 -0.06755256
v -0.03954796 -0.16293199 -0.06764060
v -0.03958295 -0.16272689 -0.06765055
v -0.03948997 -0.16272999 -0.06763958
v -0.03960399 -0.16293100 -0.06764358
v -0.03976898 -0.16271900 -0.06761759
v -0.03967796 -0.16272300 -0.06764256
v -0.03948598 -0.16333701 -0.06762456
v -0.03923999 -0.16313200 -0.06748759
v -0.03950797 -0.16333801 -0.06762856
v -0.03940700 -0.16398500 -0.06761759
v -0.03936695 -0.16420700 -0.06761759
v -0.03932498 -0.16442700 -0.06761860
v -0.03930597 -0.16462800 -0.06763160
v -0.03928296 -0.16482900 -0.06764560
v -0.03915595 -0.16566800 -0.06772458
v -0.03911500 -0.16588689 -0.06774955
v -0.03907000 -0.16610400 -0.06777656
v -0.03902595 -0.16630100 -0.06780260
v -0.03897999 -0.16649801 -0.06783056
v -0.03875898 -0.16731200 -0.06796157
v -0.03869395 -0.16752300 -0.06799960
v -0.03793798 -0.16947401 -0.06843960
v -0.03785299 -0.16965400 -0.06848859
v -0.03931896 -0.16283301 -0.06756258
v -0.03939895 -0.16273201 -0.06761157
v -0.03931598 -0.16273300 -0.06756657
v -0.03924195 -0.16273400 -0.06750756
v -0.03918098 -0.16273300 -0.06743460
v -0.03960197 -0.16429600 -0.06764960
v -0.03933798 -0.16595900 -0.06777960
v -0.03884099 -0.16625300 -0.06767660
v -0.03893499 -0.16746899 -0.06799656
v -0.03889994 -0.16757600 -0.06801557
v -0.03771095 -0.16955900 -0.06840556
v -0.02869700 -0.16147099 -0.07315355
v -0.02843295 -0.16855700 -0.07318556
v -0.02846299 -0.16855800 -0.07309556
v -0.02847497 -0.16855800 -0.07300156
v -0.02900498 -0.15439300 -0.07287061
v -0.02867596 -0.16146991 -0.07319760
v -0.02838598 -0.16855501 -0.07326859
v -0.02864997 -0.16146800 -0.07323956
v -0.02824996 -0.16855000 -0.07340055
v -0.02832399 -0.16855291 -0.07334160
v -0.02860294 -0.16131900 -0.07330060
v -0.02874295 -0.15312600 -0.07328957
v -0.02883600 -0.15785600 -0.07310360
v -0.02881395 -0.15549199 -0.07322961
v -0.02891897 -0.15372901 -0.07315456
v -0.02883194 -0.15340389 -0.07324057
v -0.02894299 -0.15494300 -0.07306158
v -0.02898596 -0.15409400 -0.07301759
f 1 2 3
f 4 1 3
f 5 3 6
f 5 4 3
f 7 6 8
f 7 5 6
f 9 8 10
f 9 7 8
f 11 10 12
f 11 9 10
f 13 11 12
f 14 15 16
f 17 18 19
f 17 20 21
f 17 21 22
f 17 19 20
f 23 18 17
f 24 25 18
f 24 18 23
f 26 27 25
f 26 25 24
f 28 29 30
f 31 22 32
f 31 26 24
f 31 24 23
f 31 23 17
f 31 17 22
f 33 34 27
f 33 27 26
f 35 32 36
f 35 31 32
f 37 28 30
f 38 39 40
f 38 41 39
f 42 40 43
f 42 41 38
f 42 38 40
f 44 43 45
f 44 45 46
f 44 46 28
f 44 42 43
f 47 35 36
f 47 41 35
f 48 47 36
f 49 48 36
f 50 47 48
f 50 48 49
f 51 31 35
f 51 26 31
f 51 33 26
f 52 35 41
f 53 30 54
f 55 30 53
f 55 53 56
f 57 30 55
f 57 55 56
f 57 56 58
f 57 37 30
f 57 58 37
f 59 52 41
f 59 41 42
f 59 58 56
f 59 56 52
f 59 28 37
f 59 37 58
f 59 42 44
f 59 44 28
f 60 41 47
f 60 47 50
f 60 40 39
f 60 39 41
f 61 40 60
f 61 60 50
f 62 40 61
f 62 61 50
f 62 43 40
f 63 45 43
f 63 62 50
f 63 43 62
f 63 46 45
f 63 28 46
f 64 65 66
f 67 64 66
f 68 69 29
f 68 70 69
f 68 66 70
f 68 28 63
f 68 67 66
f 68 29 28
f 71 33 51
f 71 72 34
f 71 34 33
f 71 51 73
f 74 51 35
f 74 75 73
f 74 52 75
f 74 35 52
f 74 73 51
f 76 73 75
f 76 53 54
f 76 54 72
f 76 72 71
f 76 71 73
f 77 53 76
f 77 75 52
f 77 56 53
f 77 76 75
f 77 52 56
f 78 50 49
f 78 68 63
f 78 63 50
f 78 64 67
f 78 67 68
f 79 80 65
f 79 65 64
f 79 78 49
f 79 64 78
f 81 49 36
f 81 82 80
f 81 36 82
f 81 80 79
f 81 79 49
f 83 84 85
f 86 87 88
f 89 90 91
f 92 93 94
f 92 94 95
f 96 97 93
f 96 93 92
f 98 97 96
f 99 97 98
f 100 101 97
f 100 97 99
f 102 103 101
f 102 101 100
f 104 105 106
f 107 106 105
f 108 105 109
f 108 107 105
f 110 108 109
f 111 112 105
f 111 105 104
f 111 104 113
f 114 115 112
f 114 111 116
f 114 112 111
f 117 116 118
f 117 115 114
f 117 114 116
f 119 117 118
f 119 120 115
f 119 118 88
f 119 87 120
f 119 88 87
f 119 115 117
f 121 92 95
f 122 92 121
f 122 96 92
f 123 96 122
f 123 100 99
f 123 98 96
f 123 99 98
f 124 125 103
f 124 103 102
f 126 127 128
f 126 128 125
f 126 124 102
f 126 125 124
f 129 130 131
f 132 129 131
f 133 134 127
f 133 127 126
f 135 95 136
f 135 130 129
f 135 129 95
f 137 138 134
f 139 130 137
f 139 137 134
f 140 134 133
f 140 139 134
f 140 133 131
f 140 130 139
f 140 131 130
f 141 136 116
f 141 116 111
f 141 111 113
f 142 141 113
f 142 136 141
f 143 136 142
f 143 142 113
f 143 113 104
f 144 110 135
f 144 135 136
f 144 136 143
f 144 143 104
f 144 104 106
f 144 106 107
f 144 107 108
f 144 108 110
f 145 109 146
f 145 110 109
f 147 146 148
f 147 145 146
f 147 110 145
f 149 148 150
f 149 150 138
f 149 147 148
f 149 110 147
f 149 138 137
f 151 126 102
f 151 133 126
f 151 102 100
f 152 133 151
f 152 132 131
f 152 131 133
f 153 135 110
f 153 137 130
f 153 149 137
f 153 110 149
f 153 130 135
f 154 100 123
f 154 151 100
f 154 129 132
f 154 123 122
f 154 95 129
f 154 121 95
f 154 122 121
f 154 152 151
f 154 132 152
f 155 156 157
f 155 158 156
f 159 160 161
f 159 162 160
f 159 163 162
f 164 165 163
f 164 166 165
f 164 163 159
f 167 168 166
f 167 169 168
f 167 164 170
f 167 166 164
f 171 172 169
f 171 169 167
f 173 172 171
f 174 175 172
f 174 176 175
f 174 177 176
f 174 172 173
f 178 177 174
f 179 177 178
f 180 181 182
f 180 183 184
f 180 182 183
f 185 181 180
f 186 181 185
f 187 181 186
f 188 181 187
f 189 190 191
f 192 193 190
f 192 190 189
f 194 195 193
f 194 193 192
f 196 197 195
f 196 195 194
f 198 197 196
f 199 200 201
f 199 201 202
f 203 202 197
f 203 197 198
f 204 203 205
f 204 199 202
f 204 202 203
f 206 204 205
f 207 204 206
f 208 209 210
f 208 211 209
f 208 212 211
f 208 213 212
f 214 215 213
f 214 216 215
f 214 213 208
f 217 208 210
f 218 219 216
f 218 220 219
f 218 216 214
f 221 214 208
f 221 208 217
f 222 210 223
f 222 217 210
f 224 220 218
f 224 225 220
f 224 226 225
f 227 218 214
f 227 214 221
f 228 217 222
f 228 221 217
f 229 230 231
f 229 223 230
f 229 222 223
f 232 233 226
f 232 234 233
f 232 226 224
f 235 224 218
f 235 218 227
f 236 221 228
f 236 227 221
f 237 229 231
f 237 228 222
f 237 222 229
f 238 239 234
f 238 240 239
f 238 234 232
f 241 232 224
f 241 224 235
f 242 235 227
f 242 227 236
f 243 236 228
f 243 228 237
f 244 245 246
f 244 231 245
f 244 237 231
f 247 248 240
f 247 249 248
f 247 240 238
f 250 238 232
f 250 232 241
f 251 235 242
f 251 241 235
f 252 236 243
f 252 242 236
f 253 244 246
f 253 237 244
f 253 254 255
f 253 246 254
f 253 243 237
f 256 249 247
f 256 257 249
f 256 258 257
f 256 259 258
f 260 247 238
f 260 238 250
f 261 250 241
f 261 241 251
f 262 251 242
f 262 242 252
f 263 255 264
f 263 253 255
f 263 243 253
f 263 252 243
f 265 256 247
f 265 259 256
f 265 247 260
f 266 260 250
f 266 250 261
f 267 251 262
f 267 261 251
f 268 262 252
f 268 252 263
f 269 270 271
f 269 272 270
f 269 264 272
f 269 263 264
f 273 274 259
f 273 259 265
f 273 265 260
f 273 260 266
f 275 266 261
f 275 261 267
f 276 267 262
f 276 262 268
f 277 278 279
f 277 280 278
f 277 281 280
f 277 271 281
f 277 269 271
f 277 268 263
f 277 263 269
f 282 274 273
f 282 273 266
f 282 266 275
f 283 275 267
f 283 267 276
f 284 285 286
f 284 287 285
f 284 288 287
f 284 279 288
f 284 277 279
f 284 276 268
f 284 268 277
f 289 275 283
f 289 290 274
f 289 274 282
f 289 282 275
f 291 276 284
f 291 284 286
f 291 292 293
f 291 294 292
f 291 286 294
f 291 283 276
f 295 289 283
f 295 283 291
f 295 290 289
f 295 293 290
f 295 291 293
f 296 297 298
f 296 298 299
f 300 301 297
f 300 296 302
f 300 297 296
f 303 304 305
f 303 305 306
f 303 306 301
f 303 302 304
f 303 301 300
f 303 300 302
f 307 308 309
f 307 310 308
f 307 309 302
f 307 302 296
f 311 299 312
f 311 313 310
f 311 312 313
f 311 310 307
f 311 307 296
f 311 296 299
f 314 315 316
f 314 317 315
f 314 318 317
f 319 320 318
f 319 321 320
f 319 318 314
f 322 314 316
f 323 324 321
f 323 325 324
f 323 321 319
f 326 319 314
f 326 314 322
f 327 316 328
f 327 322 316
f 329 330 325
f 329 331 330
f 329 325 323
f 332 323 319
f 332 319 326
f 333 322 327
f 333 326 322
f 334 327 328
f 335 336 331
f 335 337 336
f 335 331 329
f 338 323 332
f 338 329 323
f 339 326 333
f 339 332 326
f 340 333 327
f 340 327 334
f 341 342 343
f 341 328 342
f 341 334 328
f 344 337 335
f 344 345 337
f 344 346 345
f 347 335 329
f 347 329 338
f 348 332 339
f 348 338 332
f 349 339 333
f 349 333 340
f 350 340 334
f 350 334 341
f 351 352 353
f 351 343 352
f 351 341 343
f 354 355 346
f 354 356 355
f 354 346 344
f 357 344 335
f 357 335 347
f 358 347 338
f 358 338 348
f 359 348 339
f 359 339 349
f 360 340 350
f 360 349 340
f 361 362 363
f 361 364 362
f 361 365 364
f 361 353 365
f 361 350 341
f 361 341 351
f 361 351 353
f 366 367 356
f 366 368 367
f 366 369 368
f 366 370 369
f 366 356 354
f 371 354 344
f 371 344 357
f 372 347 358
f 372 357 347
f 373 358 348
f 373 348 359
f 374 359 349
f 374 349 360
f 375 376 377
f 375 378 376
f 375 363 378
f 375 350 361
f 375 361 363
f 375 360 350
f 379 354 371
f 379 366 354
f 379 370 366
f 380 371 357
f 380 357 372
f 381 372 358
f 381 358 373
f 382 373 359
f 382 359 374
f 383 384 385
f 383 386 384
f 383 377 386
f 383 375 377
f 383 374 360
f 383 360 375
f 387 388 370
f 387 379 371
f 387 370 379
f 387 371 380
f 389 380 372
f 389 372 381
f 390 391 392
f 390 393 391
f 390 382 393
f 390 381 373
f 390 373 382
f 394 395 393
f 394 396 395
f 394 385 396
f 394 383 385
f 394 393 382
f 394 382 374
f 394 374 383
f 397 398 399
f 397 380 389
f 397 399 388
f 397 389 398
f 397 388 387
f 397 387 380
f 400 381 390
f 400 392 398
f 400 389 381
f 400 398 389
f 400 390 392
f 401 402 403
f 404 405 402
f 404 406 405
f 404 402 401
f 407 408 406
f 407 409 408
f 407 406 404
f 410 411 409
f 410 412 411
f 410 409 407
f 413 414 412
f 413 412 410
f 415 416 414
f 415 417 416
f 415 414 413
f 418 419 417
f 418 417 415
f 420 421 419
f 420 419 418
f 161 422 423
f 424 425 422
f 424 422 161
f 162 426 425
f 162 425 424
f 427 428 426
f 427 426 162
f 429 430 428
f 429 428 427
f 431 432 430
f 431 430 429
f 433 434 432
f 433 432 431
f 435 436 434
f 435 434 433
f 172 437 436
f 172 436 435
f 438 439 437
f 438 437 172
f 440 441 439
f 440 439 438
f 442 443 441
f 442 441 440
f 444 445 446
f 444 447 445
f 444 448 447
f 444 449 448
f 450 451 449
f 450 449 444
f 450 444 446
f 452 453 451
f 452 454 453
f 452 451 450
f 452 450 446
f 455 446 456
f 455 457 458
f 455 456 457
f 455 452 446
f 459 460 461
f 459 458 460
f 459 461 454
f 459 454 452
f 459 452 455
f 459 455 458
f 462 463 464
f 465 466 467
f 468 469 470
f 468 471 469
f 468 472 471
f 473 472 468
f 474 470 466
f 474 468 470
f 475 474 466
f 476 466 465
f 476 477 478
f 476 479 477
f 476 465 479
f 480 466 476
f 480 476 478
f 481 475 466
f 481 480 478
f 481 478 482
f 481 482 483
f 481 466 480
f 484 485 463
f 484 463 486
f 484 486 487
f 488 489 490
f 491 490 492
f 491 488 490
f 493 492 485
f 493 484 483
f 493 491 492
f 493 485 484
f 494 495 472
f 494 496 495
f 494 472 473
f 494 473 497
f 498 494 497
f 498 499 496
f 498 464 499
f 498 462 464
f 498 496 494
f 500 462 498
f 500 501 502
f 500 502 462
f 500 498 497
f 500 473 468
f 500 497 473
f 503 500 468
f 503 501 500
f 503 468 474
f 504 501 503
f 505 502 501
f 505 462 502
f 505 501 504
f 506 474 475
f 506 475 487
f 506 487 486
f 507 462 505
f 507 463 462
f 507 506 486
f 507 486 463
f 508 483 484
f 508 487 475
f 508 475 481
f 508 481 483
f 508 484 487
f 509 478 477
f 509 477 479
f 509 479 465
f 509 482 478
f 509 483 482
f 510 511 512
f 510 512 513
f 510 513 489
f 510 489 488
f 510 488 509
f 510 509 465
f 514 503 474
f 514 505 504
f 514 474 506
f 514 506 507
f 514 504 503
f 514 507 505
f 515 488 491
f 515 493 483
f 515 491 493
f 515 483 509
f 515 509 488
f 516 517 511
f 516 467 517
f 516 510 465
f 516 465 467
f 516 511 510
f 518 519 520
f 518 520 521
f 522 523 519
f 522 519 518
f 524 523 522
f 525 526 527
f 525 527 523
f 525 523 524
f 528 529 526
f 528 526 525
f 530 531 532
f 530 532 529
f 530 529 528
f 533 534 531
f 533 531 530
f 535 536 537
f 538 536 535
f 539 536 538
f 540 536 539
f 541 542 536
f 541 536 540
f 543 542 541
f 544 545 543
f 544 543 541
f 546 547 548
f 549 547 546
f 550 551 547
f 550 552 551
f 550 553 552
f 550 554 553
f 550 547 549
f 555 554 550
f 555 550 549
f 556 557 554
f 556 549 546
f 556 554 555
f 556 555 549
f 558 559 560
f 558 561 557
f 558 560 561
f 558 557 556
f 562 556 546
f 562 559 558
f 562 558 556
f 563 562 546
f 563 546 548
f 564 559 562
f 564 562 563
f 565 548 566
f 565 566 567
f 565 563 548
f 565 564 563
f 568 569 559
f 568 570 569
f 568 567 570
f 568 559 564
f 568 565 567
f 568 564 565
f 571 572 573
f 571 573 574
f 575 576 577
f 575 577 578
f 579 578 580
f 579 580 581
f 579 581 572
f 579 575 578
f 579 572 571
f 582 571 583
f 582 584 575
f 582 579 571
f 582 575 579
f 585 582 583
f 585 584 582
f 586 583 587
f 586 585 583
f 586 588 584
f 586 584 585
f 589 586 587
f 589 588 586
f 590 587 591
f 590 592 588
f 590 589 587
f 590 588 589
f 593 590 591
f 593 592 590
f 594 591 595
f 594 593 591
f 594 596 592
f 594 592 593
f 597 594 595
f 597 596 594
f 598 595 599
f 598 600 596
f 598 596 597
f 598 597 595
f 601 598 599
f 601 600 598
f 602 599 603
f 602 604 600
f 602 601 599
f 602 600 601
f 605 602 603
f 605 604 602
f 606 603 607
f 606 608 604
f 606 604 605
f 606 605 603
f 609 608 606
f 609 606 607
f 610 607 611
f 610 612 608
f 610 609 607
f 610 608 609
f 613 610 611
f 613 612 610
f 614 611 615
f 614 616 612
f 614 612 613
f 614 613 611
f 617 616 614
f 617 614 615
f 618 616 617
f 618 617 615
f 618 615 619
f 618 620 616
f 621 618 619
f 621 620 618
f 622 619 623
f 622 621 619
f 622 624 620
f 622 620 621
f 625 622 623
f 625 624 622
f 626 623 627
f 626 625 623
f 626 628 624
f 626 624 625
f 629 626 627
f 629 628 626
f 630 627 631
f 630 629 627
f 630 632 628
f 630 628 629
f 633 630 631
f 633 632 630
f 634 631 635
f 634 633 631
f 634 636 632
f 634 632 633
f 637 634 635
f 637 636 634
f 638 635 639
f 638 637 635
f 638 640 636
f 638 636 637
f 641 638 639
f 641 640 638
f 642 639 643
f 642 641 639
f 642 644 640
f 642 640 641
f 645 642 643
f 645 644 642
f 646 644 645
f 646 643 647
f 646 645 643
f 646 648 644
f 649 646 647
f 649 648 646
f 650 649 647
f 650 648 649
f 650 647 651
f 650 652 648
f 653 650 651
f 653 652 650
f 654 652 653
f 654 655 652
f 654 653 651
f 656 657 658
f 656 658 659
f 660 654 651
f 660 651 657
f 660 661 654
f 662 657 656
f 662 660 657
f 662 661 660
f 663 655 654
f 663 654 661
f 664 662 656
f 664 661 662
f 664 663 661
f 664 665 655
f 664 655 663
f 666 656 659
f 666 659 667
f 666 667 668
f 669 656 666
f 669 664 656
f 669 668 670
f 669 670 665
f 669 665 664
f 669 666 668
f 671 672 673
f 674 675 672
f 674 676 675
f 674 677 676
f 674 672 671
f 678 679 677
f 678 680 681
f 678 677 680
f 682 681 683
f 682 684 679
f 682 679 678
f 682 678 681
f 685 684 682
f 685 682 683
f 686 684 685
f 686 685 683
f 686 683 687
f 686 688 684
f 689 688 686
f 689 686 687
f 690 687 691
f 690 692 688
f 690 688 689
f 690 689 687
f 693 692 690
f 693 690 691
f 694 691 695
f 694 692 693
f 694 364 692
f 694 693 691
f 696 694 695
f 696 364 694
f 697 695 698
f 697 699 364
f 697 364 696
f 697 696 695
f 700 698 701
f 700 699 697
f 700 697 698
f 702 700 701
f 702 699 700
f 703 701 704
f 703 705 699
f 703 702 701
f 703 699 702
f 706 705 703
f 706 703 704
f 707 704 708
f 707 709 705
f 707 705 706
f 707 706 704
f 710 709 707
f 710 707 708
f 711 708 712
f 711 713 709
f 711 710 708
f 711 709 710
f 714 713 711
f 714 711 712
f 715 713 714
f 715 712 716
f 715 717 713
f 715 714 712
f 718 715 716
f 718 717 715
f 719 716 720
f 719 721 717
f 719 717 718
f 719 718 716
f 722 719 720
f 722 721 719
f 723 720 724
f 723 722 720
f 723 725 721
f 723 721 722
f 726 725 723
f 726 723 724
f 727 726 724
f 727 724 728
f 727 729 725
f 727 725 726
f 730 727 728
f 730 729 727
f 731 728 732
f 731 730 728
f 731 733 729
f 731 729 730
f 734 731 732
f 734 733 731
f 735 732 736
f 735 734 732
f 735 737 733
f 735 733 734
f 738 735 736
f 738 737 735
f 739 736 740
f 739 738 736
f 739 741 737
f 739 737 738
f 742 741 739
f 742 739 740
f 743 742 740
f 743 740 744
f 743 745 741
f 743 741 742
f 746 743 744
f 746 745 743
f 747 746 744
f 747 744 748
f 747 745 746
f 749 750 751
f 752 753 754
f 752 755 753
f 752 756 755
f 752 673 756
f 752 671 673
f 757 671 752
f 757 754 681
f 757 752 754
f 757 681 680
f 758 745 747
f 758 759 751
f 758 751 745
f 760 748 761
f 760 759 748
f 762 749 763
f 762 761 764
f 762 763 760
f 762 760 761
f 765 677 674
f 765 671 757
f 765 757 680
f 765 674 671
f 765 680 677
f 766 747 748
f 766 758 747
f 766 759 758
f 766 748 759
f 767 751 759
f 767 749 751
f 767 763 749
f 767 759 760
f 767 760 763
f 768 764 769
f 768 769 770
f 768 762 764
f 768 749 762
f 771 750 749
f 771 770 772
f 771 772 750
f 771 749 768
f 771 768 770
f 773 774 775
f 773 775 776
f 773 776 777
f 778 779 774
f 778 774 773
f 780 779 778
f 781 782 783
f 781 783 784
f 781 784 785
f 781 785 779
f 781 779 780
f 786 781 780
f 786 780 778
f 786 782 781
f 787 788 782
f 787 786 778
f 787 782 786
f 789 787 778
f 789 778 773
f 789 773 777
f 790 787 789
f 790 788 787
f 791 789 777
f 791 790 789
f 792 793 794
f 792 794 788
f 792 788 790
f 792 790 791
f 795 777 796
f 795 796 797
f 795 797 793
f 795 793 792
f 795 791 777
f 795 792 791
f 798 799 800
f 798 801 799
f 798 802 801
f 798 800 803
f 804 805 802
f 804 806 805
f 804 802 798
f 807 808 806
f 807 806 804
f 809 808 807
f 810 811 812
f 810 813 811
f 810 814 813
f 810 815 814
f 816 812 817
f 816 810 812
f 818 816 817
f 819 816 818
f 820 819 821
f 820 816 819
f 822 823 824
f 825 823 822
f 826 823 825
f 827 828 823
f 827 829 828
f 827 830 829
f 827 823 826
f 831 832 833
f 834 835 832
f 834 832 831
f 836 837 831
f 836 838 837
f 836 833 839
f 836 839 838
f 836 831 833
f 840 841 842
f 843 844 841
f 843 841 840
f 845 846 844
f 845 844 843
f 847 846 845
f 848 849 850
f 848 851 852
f 848 852 853
f 848 853 849
f 854 855 856
f 857 858 855
f 857 859 858
f 857 860 861
f 857 854 860
f 857 855 854
f 862 863 859
f 862 864 863
f 862 859 857
f 862 857 861
f 865 866 864
f 865 864 862
f 867 861 868
f 867 862 861
f 869 870 866
f 869 871 870
f 869 866 865
f 872 862 867
f 872 865 862
f 872 867 868
f 873 874 871
f 873 875 874
f 873 871 869
f 876 869 865
f 876 865 872
f 877 868 878
f 877 872 868
f 879 880 875
f 879 881 880
f 879 875 873
f 882 869 876
f 882 873 869
f 883 872 877
f 883 876 872
f 884 878 885
f 884 877 878
f 886 887 881
f 886 888 887
f 886 881 879
f 889 879 873
f 889 873 882
f 890 882 876
f 890 876 883
f 891 884 885
f 891 885 892
f 891 883 877
f 891 877 884
f 893 894 888
f 893 888 886
f 895 879 889
f 895 886 879
f 896 889 882
f 896 882 890
f 897 890 883
f 897 883 891
f 898 891 892
f 898 892 899
f 900 901 894
f 900 902 901
f 900 903 902
f 900 894 893
f 904 893 886
f 904 886 895
f 905 889 896
f 905 895 889
f 906 890 897
f 906 896 890
f 907 891 898
f 907 899 908
f 907 897 891
f 907 898 899
f 909 903 900
f 909 900 893
f 909 893 904
f 910 904 895
f 910 895 905
f 911 905 896
f 911 896 906
f 912 906 897
f 912 897 907
f 913 914 915
f 913 908 914
f 913 907 908
f 916 917 903
f 916 904 910
f 916 903 909
f 916 909 904
f 918 910 905
f 918 905 911
f 919 911 906
f 919 906 912
f 920 912 907
f 920 921 922
f 920 923 921
f 920 924 923
f 920 925 924
f 920 915 925
f 920 907 913
f 920 913 915
f 926 916 910
f 926 917 916
f 926 910 918
f 927 911 919
f 927 918 911
f 928 929 930
f 928 931 929
f 928 932 931
f 928 922 932
f 928 920 922
f 928 912 920
f 928 919 912
f 933 934 917
f 933 917 926
f 933 926 918
f 933 918 927
f 935 933 927
f 935 928 930
f 935 936 934
f 935 937 936
f 935 938 937
f 935 930 938
f 935 927 919
f 935 934 933
f 935 919 928
f 939 940 941
f 942 939 941
f 943 942 941
f 944 942 943
f 945 946 947
f 945 947 948
f 949 945 948
f 950 949 948
f 951 952 953
f 954 955 956
f 954 957 955
f 954 958 957
f 959 960 958
f 959 961 960
f 959 958 954
f 962 954 956
f 963 964 961
f 963 961 959
f 965 959 954
f 965 954 962
f 966 956 967
f 966 962 956
f 968 969 964
f 968 970 969
f 968 964 963
f 971 959 965
f 971 963 959
f 972 962 966
f 972 965 962
f 973 966 967
f 974 975 970
f 974 976 975
f 974 970 968
f 977 968 963
f 977 963 971
f 978 965 972
f 978 971 965
f 979 972 966
f 979 966 973
f 980 981 982
f 980 967 981
f 980 973 967
f 983 984 976
f 983 985 984
f 983 976 974
f 986 968 977
f 986 974 968
f 987 977 971
f 987 971 978
f 988 972 979
f 988 978 972
f 989 979 973
f 989 973 980
f 990 980 982
f 990 991 992
f 990 982 991
f 993 994 985
f 993 995 994
f 993 985 983
f 996 974 986
f 996 983 974
f 997 977 987
f 997 986 977
f 998 987 978
f 998 978 988
f 999 988 979
f 999 979 989
f 1000 980 990
f 1000 1001 1002
f 1000 1003 1001
f 1000 1004 1003
f 1000 989 980
f 1000 992 1004
f 1000 990 992
f 1005 1006 995
f 1005 995 993
f 1007 993 983
f 1007 983 996
f 1008 996 986
f 1008 986 997
f 1009 997 987
f 1009 987 998
f 1010 998 988
f 1010 988 999
f 1011 1012 1013
f 1011 1014 1012
f 1011 1015 1014
f 1011 1002 1015
f 1011 1000 1002
f 1011 999 989
f 1011 989 1000
f 1016 951 953
f 1016 1017 1006
f 1016 953 1017
f 1016 1018 951
f 1016 1006 1005
f 1019 1020 1018
f 1019 1021 1020
f 1019 1005 993
f 1019 993 1007
f 1019 1018 1016
f 1019 1016 1005
f 1022 1023 1021
f 1022 1021 1019
f 1022 1019 1007
f 1022 1007 996
f 1022 996 1008
f 1024 997 1009
f 1024 1008 997
f 1025 1026 1027
f 1025 1009 998
f 1025 998 1010
f 1028 1029 1030
f 1028 1031 1029
f 1028 1032 1031
f 1028 1013 1032
f 1028 1010 999
f 1028 999 1011
f 1028 1011 1013
f 1033 1034 1023
f 1033 1024 1034
f 1033 1022 1008
f 1033 1023 1022
f 1033 1008 1024
f 1035 1025 1027
f 1035 1027 1034
f 1035 1034 1024
f 1035 1024 1009
f 1035 1009 1025
f 1036 1030 1026
f 1036 1026 1025
f 1036 1028 1030
f 1036 1025 1010
f 1036 1010 1028
f 1037 1038 1039
f 1040 1038 1041
f 1041 1038 1042
f 1042 1038 1037
f 1043 1044 1045
f 1043 1045 1046
f 1043 1046 1047
f 1048 1044 1043
f 1049 1044 1048
f 1050 1044 1049
f 1051 1052 1053
f 1051 1053 1054
f 1051 1054 1055
f 1056 1057 1052
f 1056 1058 1057
f 1056 1052 1051
f 1059 1055 1060
f 1059 1061 1058
f 1059 1056 1051
f 1059 1058 1056
f 1059 1051 1055
f 1062 1063 1061
f 1064 1060 1065
f 1064 1065 1066
f 1064 1066 1067
f 1064 1068 1063
f 1064 1069 1068
f 1064 1067 1069
f 1064 1059 1060
f 1064 1061 1059
f 1064 1062 1061
f 1064 1063 1062
f 1070 1071 1072
f 1070 1073 1071
f 1074 1075 1073
f 1074 1076 1075
f 1074 1077 1076
f 1074 1073 1070
f 1078 1072 1079
f 1078 1080 1077
f 1078 1077 1074
f 1078 1074 1070
f 1078 1070 1072
f 1081 1079 1082
f 1081 1083 1084
f 1081 1085 1083
f 1081 1082 1085
f 1081 1086 1080
f 1081 1087 1086
f 1081 1084 1087
f 1081 1078 1079
f 1081 1080 1078
f 1088 1089 1090
f 1091 1089 1088
f 1092 1093 1094
f 1092 1094 1095
f 1092 1095 1089
f 1092 1089 1091
f 1096 1097 1098
f 1096 1099 1097
f 1096 1100 1099
f 1101 1096 1098
f 1102 1103 1100
f 1102 1100 1096
f 1102 1096 1101
f 1104 1098 1105
f 1104 1101 1098
f 1106 1107 1108
f 1106 1109 1103
f 1106 1108 1109
f 1106 1101 1104
f 1106 1102 1101
f 1106 1103 1102
f 1110 1107 1106
f 1110 1106 1104
f 1111 1105 1112
f 1111 1104 1105
f 1111 1110 1104
f 1113 1112 1114
f 1113 1114 1115
f 1113 1115 1107
f 1113 1107 1110
f 1113 1111 1112
f 1113 1110 1111
f 1116 1117 1118
f 1116 1118 1119
f 1120 1121 1122
f 1123 1124 1125
f 1123 1125 1126
f 1127 1123 1126
f 1127 1126 1128
f 1129 1128 1130
f 1129 1127 1128
f 1131 1122 1132
f 1131 1132 1133
f 1131 1133 1117
f 1131 1117 1116
f 1131 1120 1122
f 1134 1116 1135
f 1134 1136 1120
f 1134 1120 1131
f 1134 1131 1116
f 1137 1134 1135
f 1137 1136 1134
f 1138 1136 1137
f 1138 1135 1139
f 1138 1137 1135
f 1138 1140 1136
f 1141 1138 1139
f 1141 1140 1138
f 1142 1139 1143
f 1142 1144 1140
f 1142 1140 1141
f 1142 1141 1139
f 1145 1144 1142
f 1145 1142 1143
f 1146 1143 1147
f 1146 1148 1144
f 1146 1144 1145
f 1146 1145 1143
f 1149 1146 1147
f 1149 1148 1146
f 1150 1125 1124
f 1150 1148 1149
f 1150 1147 1125
f 1150 1124 1148
f 1150 1149 1147
f 1151 1130 1152
f 1151 1129 1130
f 1151 1153 1129
f 1154 1152 1155
f 1154 1151 1152
f 1154 1156 1153
f 1154 1153 1151
f 1157 1154 1155
f 1157 1156 1154
f 1158 1155 1159
f 1158 1157 1155
f 1158 1156 1157
f 1158 1160 1156
f 1161 1158 1159
f 1161 1160 1158
f 1162 1159 1163
f 1162 1164 1160
f 1162 1160 1161
f 1162 1161 1159
f 1165 1162 1163
f 1165 1164 1162
f 1166 1163 1167
f 1166 1168 1164
f 1166 1164 1165
f 1166 1165 1163
f 1169 1166 1167
f 1169 1168 1166
f 1170 1169 1167
f 1170 1167 1171
f 1170 1168 1169
f 1170 1172 1168
f 1173 1170 1171
f 1173 1172 1170
f 1174 1171 1175
f 1174 1173 1171
f 1174 1176 1172
f 1174 1172 1173
f 1177 1174 1175
f 1177 1176 1174
f 1178 1175 1179
f 1178 1177 1175
f 1178 1176 1177
f 1178 1180 1176
f 1181 1178 1179
f 1181 1180 1178
f 1182 1180 1181
f 1182 1179 1183
f 1182 1181 1179
f 1182 1184 1180
f 1185 1182 1183
f 1185 1184 1182
f 1186 1185 1183
f 1186 1184 1185
f 1186 1187 1184
f 1188 1189 1190
f 1191 1192 1193
f 1191 1183 1192
f 1191 1186 1183
f 1194 1187 1193
f 1194 1195 1187
f 1196 1197 1192
f 1196 1192 1198
f 1199 1194 1197
f 1199 1195 1194
f 1200 1196 1198
f 1201 1195 1199
f 1202 1198 1203
f 1204 1205 1195
f 1204 1195 1201
f 1206 1207 1202
f 1206 1202 1203
f 1208 1205 1204
f 1208 1204 1207
f 1209 1206 1203
f 1210 1208 1211
f 1210 1205 1208
f 1212 1209 1203
f 1212 1203 1213
f 1212 1211 1209
f 1214 1205 1210
f 1215 1216 1212
f 1215 1212 1213
f 1217 1218 1205
f 1217 1214 1216
f 1217 1205 1214
f 1219 1213 1220
f 1219 1221 1213
f 1222 1218 1217
f 1223 1218 1222
f 1224 1219 1220
f 1224 1225 1219
f 1226 1224 1220
f 1227 1218 1223
f 1227 1223 1225
f 1227 1190 1218
f 1228 1227 1229
f 1228 1190 1227
f 1230 1226 1220
f 1231 1232 1233
f 1231 1234 1232
f 1231 1235 1234
f 1231 1236 1235
f 1237 1231 1233
f 1238 1187 1186
f 1238 1193 1187
f 1238 1191 1193
f 1238 1186 1191
f 1239 1193 1192
f 1239 1192 1197
f 1239 1194 1193
f 1239 1197 1194
f 1240 1197 1196
f 1240 1199 1197
f 1241 1240 1196
f 1241 1199 1240
f 1241 1201 1199
f 1241 1200 1242
f 1241 1196 1200
f 1241 1242 1201
f 1243 1242 1200
f 1243 1201 1242
f 1243 1204 1201
f 1244 1202 1207
f 1244 1204 1243
f 1244 1207 1204
f 1245 1207 1206
f 1245 1208 1207
f 1245 1211 1208
f 1245 1209 1211
f 1245 1206 1209
f 1246 1212 1216
f 1246 1210 1211
f 1246 1211 1212
f 1246 1216 1214
f 1246 1214 1210
f 1247 1216 1215
f 1247 1217 1216
f 1248 1222 1217
f 1248 1249 1222
f 1248 1217 1247
f 1248 1221 1249
f 1250 1221 1219
f 1250 1222 1249
f 1250 1223 1222
f 1250 1249 1221
f 1251 1219 1225
f 1251 1250 1219
f 1251 1225 1223
f 1251 1223 1250
f 1252 1227 1225
f 1252 1225 1224
f 1252 1224 1226
f 1252 1229 1227
f 1252 1226 1229
f 1253 1228 1229
f 1253 1229 1226
f 1253 1226 1230
f 1254 1228 1253
f 1254 1190 1228
f 1254 1188 1190
f 1255 1256 1257
f 1258 1255 1257
f 1259 1257 1260
f 1259 1260 1261
f 1259 1261 1262
f 1259 1262 1188
f 1259 1188 1254
f 1259 1258 1257
f 1263 1230 1220
f 1263 1220 1236
f 1263 1236 1231
f 1264 1231 1237
f 1264 1265 1266
f 1264 1237 1265
f 1264 1263 1231
f 1267 1264 1266
f 1267 1257 1264
f 1267 1260 1257
f 1267 1261 1260
f 1267 1262 1261
f 1267 1188 1262
f 1268 1266 1265
f 1268 1265 1237
f 1268 1269 1270
f 1268 1271 1269
f 1268 1233 1271
f 1268 1237 1233
f 1272 1268 1270
f 1272 1266 1268
f 1272 1270 1273
f 1274 1272 1273
f 1274 1275 1189
f 1274 1276 1275
f 1274 1273 1276
f 1274 1189 1188
f 1274 1188 1267
f 1274 1267 1266
f 1274 1266 1272
f 1277 1198 1202
f 1277 1243 1200
f 1277 1244 1243
f 1277 1200 1198
f 1277 1202 1244
f 1278 1221 1248
f 1278 1247 1215
f 1278 1215 1213
f 1278 1213 1221
f 1278 1248 1247
f 1279 1253 1230
f 1279 1230 1256
f 1279 1254 1253
f 1279 1256 1255
f 1279 1255 1258
f 1279 1259 1254
f 1279 1258 1259
f 1280 1256 1230
f 1280 1230 1263
f 1280 1257 1256
f 1281 1257 1280
f 1281 1280 1263
f 1281 1264 1257
f 1281 1263 1264
f 1282 1283 1284
f 1285 1283 1282
f 1286 1287 1288
f 1286 1288 1289
f 1286 1289 939
f 1290 1291 1287
f 1290 1287 1286
f 1292 1291 1290
f 1293 1294 1295
f 1293 1295 1296
f 1293 1296 1297
f 1298 1299 1300
f 1301 1300 1302
f 1301 1298 1300
f 1303 1301 1302
f 1304 1302 1305
f 1304 1305 1306
f 1304 1306 1284
f 1304 1303 1302
f 1304 1284 1283
f 1304 1283 1303
f 1307 1308 1309
f 1307 1309 1310
f 1307 1310 1311
f 1307 1311 1312
f 1307 1312 1291
f 1307 1291 1292
f 1307 1292 1313
f 1314 1297 1308
f 1314 1308 1307
f 1314 1293 1297
f 1314 1307 1313
f 1315 939 1316
f 1315 1317 939
f 1315 1318 1319
f 1315 1319 1317
f 1320 1315 1316
f 1320 1318 1315
f 1321 1294 1293
f 1321 1319 1318
f 1322 1318 1320
f 1322 1320 1316
f 1322 1323 1318
f 1324 1294 1321
f 1324 1321 1318
f 1325 1322 1316
f 1325 1323 1322
f 1325 1316 1326
f 1327 1324 1318
f 1327 1294 1324
f 1327 1318 1323
f 1328 1323 1325
f 1329 1330 1331
f 1329 1331 1300
f 1329 1300 1299
f 1332 1283 1294
f 1332 1327 1323
f 1332 1294 1327
f 1333 1332 1299
f 1333 1283 1332
f 1333 1299 1298
f 1333 1298 1301
f 1334 1333 1301
f 1334 1283 1333
f 1334 1301 1303
f 1334 1303 1283
f 1335 1314 1313
f 1335 1313 1292
f 1335 1317 1319
f 1336 1325 1326
f 1336 1328 1325
f 1336 1330 1329
f 1336 1326 1330
f 1336 1329 1328
f 1337 1323 1328
f 1337 1329 1299
f 1337 1328 1329
f 1337 1299 1332
f 1337 1332 1323
f 1338 1335 1292
f 1338 1286 939
f 1338 939 1317
f 1338 1290 1286
f 1338 1292 1290
f 1338 1317 1335
f 1339 1321 1293
f 1339 1319 1321
f 1339 1335 1319
f 1339 1314 1335
f 1339 1293 1314
f 1340 1341 1342
f 1343 1344 1345
f 1346 1347 1344
f 1346 1344 1343
f 1348 1349 1347
f 1348 1350 1349
f 1348 949 1350
f 1348 1347 1346
f 1351 1341 1352
f 1351 1352 1353
f 1351 1342 1341
f 1354 1355 1356
f 1354 1357 1355
f 1354 1358 1357
f 1354 1359 1358
f 1360 1359 1354
f 1361 1362 1359
f 1361 1359 1360
f 1363 1364 1362
f 1363 1365 1364
f 1363 1344 1365
f 1363 1366 1345
f 1363 1345 1344
f 1363 1362 1361
f 1367 1356 1368
f 1367 1354 1356
f 1369 1346 1343
f 1369 1348 1346
f 1369 949 1348
f 1369 1343 1345
f 1370 1371 1372
f 1370 1367 1368
f 1373 1371 1370
f 1373 1370 1368
f 1374 949 1369
f 1375 1373 1368
f 1375 1368 1342
f 1375 1371 1373
f 1376 1374 1372
f 1376 1377 949
f 1376 949 1374
f 1376 1372 1371
f 1378 1377 1376
f 1378 1376 1371
f 1379 1375 1342
f 1379 1380 1375
f 1379 1381 1380
f 1382 1377 1378
f 1382 1383 1377
f 1384 1381 1379
f 1384 1379 1342
f 1384 1385 1381
f 1384 1386 1385
f 1387 1386 1384
f 1387 1384 1342
f 1388 1386 1387
f 1388 1387 1342
f 1388 1389 1386
f 1388 1342 1351
f 1388 1351 1389
f 1390 1380 1381
f 1391 1392 1383
f 1391 1383 1382
f 1391 1380 1390
f 1391 1382 1380
f 1391 1390 1392
f 1393 1394 1392
f 1393 1390 1381
f 1393 1392 1390
f 1395 1396 1394
f 1395 1393 1381
f 1395 1394 1393
f 1397 1398 1396
f 1397 1395 1381
f 1397 1396 1395
f 1397 1381 1385
f 1397 1385 1386
f 1399 1353 1398
f 1399 1397 1386
f 1399 1398 1397
f 1399 1351 1353
f 1399 1386 1389
f 1399 1389 1351
f 1400 1360 1354
f 1400 1361 1360
f 1400 1366 1363
f 1400 1363 1361
f 1400 1354 1367
f 1401 1366 1400
f 1401 1345 1366
f 1401 1400 1367
f 1402 1370 1372
f 1402 1367 1370
f 1402 1372 1374
f 1402 1401 1367
f 1403 1375 1380
f 1403 1371 1375
f 1403 1378 1371
f 1403 1382 1378
f 1403 1380 1382
f 1404 1369 1345
f 1404 1374 1369
f 1404 1345 1401
f 1404 1402 1374
f 1404 1401 1402
f 1405 1406 1407
f 1405 1408 1406
f 1409 1407 1410
f 1409 1405 1407
f 1411 1412 1413
f 1414 1415 1416
f 1414 1417 1418
f 1419 1410 1420
f 1419 1409 1410
f 1419 1421 1409
f 1419 1422 1421
f 1423 1424 1425
f 1426 1427 1428
f 1429 1430 1431
f 1429 1431 1432
f 1433 1434 1435
f 1436 1434 1433
f 1436 1433 1432
f 1437 1436 1432
f 1438 1439 1440
f 1438 1440 1441
f 1442 1439 1438
f 1442 1438 1443
f 1444 1439 1442
f 1444 1443 1445
f 1444 1413 1439
f 1444 1442 1443
f 1446 1413 1444
f 1446 1445 1447
f 1446 1444 1445
f 1446 1447 1411
f 1446 1411 1413
f 1448 1412 1411
f 1448 1411 1447
f 1449 1412 1448
f 1449 1447 1450
f 1449 1448 1447
f 1449 1451 1412
f 1452 1449 1450
f 1452 1451 1449
f 1453 1452 1450
f 1453 1451 1452
f 1453 1450 1415
f 1453 1418 1451
f 1454 1453 1415
f 1454 1418 1453
f 1454 1414 1418
f 1454 1415 1414
f 1455 1417 1414
f 1455 1414 1416
f 1456 1417 1455
f 1456 1416 1457
f 1456 1455 1416
f 1456 1408 1417
f 1458 1456 1457
f 1458 1408 1456
f 1458 1457 1406
f 1458 1406 1408
f 1459 1419 1420
f 1459 1422 1419
f 1459 1420 1460
f 1461 1459 1460
f 1461 1460 1462
f 1461 1422 1459
f 1461 1463 1422
f 1464 1461 1462
f 1464 1463 1461
f 1465 1462 1466
f 1465 1463 1464
f 1465 1467 1463
f 1465 1464 1462
f 1468 1465 1466
f 1468 1467 1465
f 1469 1466 1470
f 1469 1467 1468
f 1469 1471 1467
f 1469 1468 1466
f 1472 1471 1469
f 1472 1469 1470
f 1473 1470 1474
f 1473 1474 1423
f 1473 1472 1470
f 1473 1423 1425
f 1473 1425 1471
f 1473 1471 1472
f 1475 1474 1476
f 1475 1423 1474
f 1475 1424 1423
f 1477 1476 1478
f 1477 1424 1475
f 1477 1479 1424
f 1477 1475 1476
f 1480 1479 1477
f 1480 1477 1478
f 1481 1478 1482
f 1481 1480 1478
f 1481 1483 1479
f 1481 1479 1480
f 1484 1483 1481
f 1484 1481 1482
f 1485 1482 1486
f 1485 1487 1488
f 1485 1486 1487
f 1485 1484 1482
f 1489 1490 1491
f 1489 1491 1492
f 1493 1492 1494
f 1493 1495 1489
f 1493 1489 1492
f 1496 1497 1495
f 1496 1498 1499
f 1496 1500 1497
f 1496 1426 1498
f 1496 1499 1500
f 1496 1427 1426
f 1501 1493 1494
f 1502 1501 1494
f 1503 1504 1427
f 1503 1427 1505
f 1506 1494 1507
f 1506 1508 1502
f 1506 1502 1494
f 1509 1503 1508
f 1509 1504 1503
f 1510 1506 1507
f 1511 1435 1504
f 1511 1504 1512
f 1513 1514 1507
f 1513 1515 1514
f 1513 1507 1430
f 1516 1511 1515
f 1516 1435 1511
f 1517 1513 1430
f 1517 1518 1513
f 1519 1518 1433
f 1519 1433 1435
f 1520 1517 1430
f 1520 1518 1517
f 1520 1433 1518
f 1520 1430 1429
f 1521 1433 1520
f 1521 1432 1433
f 1521 1429 1432
f 1521 1520 1429
f 1522 1432 1431
f 1522 1437 1432
f 1523 1434 1436
f 1523 1436 1437
f 1524 1431 1443
f 1524 1438 1441
f 1524 1443 1438
f 1525 1434 1523
f 1525 1523 1437
f 1525 1440 1434
f 1525 1441 1440
f 1526 1483 1484
f 1526 1527 1483
f 1526 1484 1485
f 1528 1529 1527
f 1528 1530 1529
f 1528 1531 1530
f 1528 1488 1531
f 1528 1526 1485
f 1528 1485 1488
f 1528 1527 1526
f 1532 1533 1534
f 1535 1536 1537
f 1535 1532 1534
f 1535 1537 1532
f 1538 1428 1539
f 1538 1539 1540
f 1538 1540 1536
f 1538 1536 1535
f 1538 1426 1428
f 1538 1535 1534
f 1541 1489 1495
f 1541 1533 1542
f 1541 1534 1533
f 1541 1542 1489
f 1543 1495 1497
f 1543 1499 1498
f 1543 1497 1500
f 1543 1426 1538
f 1543 1538 1534
f 1543 1534 1541
f 1543 1498 1426
f 1543 1541 1495
f 1543 1500 1499
f 1544 1496 1495
f 1544 1495 1493
f 1545 1544 1493
f 1545 1501 1546
f 1545 1493 1501
f 1545 1546 1505
f 1547 1546 1501
f 1547 1501 1502
f 1547 1505 1546
f 1547 1503 1505
f 1548 1502 1508
f 1548 1508 1503
f 1548 1547 1502
f 1548 1503 1547
f 1549 1509 1508
f 1549 1508 1506
f 1550 1510 1551
f 1550 1551 1512
f 1550 1506 1510
f 1550 1549 1506
f 1552 1551 1510
f 1552 1512 1551
f 1552 1511 1512
f 1553 1514 1515
f 1553 1515 1511
f 1553 1511 1552
f 1554 1516 1515
f 1554 1515 1513
f 1555 1513 1518
f 1555 1554 1513
f 1555 1518 1519
f 1556 1525 1437
f 1556 1437 1522
f 1557 1524 1441
f 1557 1441 1525
f 1557 1525 1556
f 1558 1537 1559
f 1558 1559 1560
f 1558 1560 1561
f 1558 1561 1562
f 1558 1562 1490
f 1558 1490 1489
f 1558 1533 1532
f 1558 1532 1537
f 1558 1542 1533
f 1558 1489 1542
f 1563 1544 1545
f 1563 1545 1505
f 1563 1427 1496
f 1563 1496 1544
f 1563 1505 1427
f 1564 1504 1509
f 1564 1550 1512
f 1564 1549 1550
f 1564 1512 1504
f 1564 1509 1549
f 1565 1510 1507
f 1565 1507 1514
f 1565 1552 1510
f 1565 1514 1553
f 1565 1553 1552
f 1566 1435 1516
f 1566 1516 1554
f 1566 1554 1555
f 1567 1566 1555
f 1567 1519 1435
f 1567 1555 1519
f 1567 1435 1566
f 1568 1431 1524
f 1568 1522 1431
f 1568 1556 1522
f 1568 1524 1557
f 1568 1557 1556
f 1569 1570 1571
f 1569 1571 1572
f 1569 1572 1573
f 1574 1575 1570
f 1574 1570 1569
f 1576 1527 1577
f 1576 1577 1578
f 1576 1578 1575
f 1576 1575 1574
f 1579 1580 1527
f 1579 1574 1569
f 1579 1576 1574
f 1579 1527 1576
f 1581 1569 1573
f 1581 1579 1569
f 1582 1583 1584
f 1582 1584 1580
f 1582 1579 1581
f 1582 1580 1579
f 1585 1573 1586
f 1585 1586 1583
f 1585 1581 1573
f 1585 1583 1582
f 1585 1582 1581

