# https://github.com/mikedh/trimesh
v -0.04278402 -0.22339991 0.54501039
v -0.04519706 -0.22542401 0.54501039
v -0.03792404 -0.23269700 0.54501039
v -0.03590004 -0.23028401 0.54501039
v -0.02792506 -0.23586801 0.54501039
v -0.02950005 -0.23859601 0.54501039
v -0.04836802 -0.21542500 0.54501039
v -0.05109601 -0.21699999 0.54501039
v -0.01910202 -0.23998199 0.54501039
v -0.02017902 -0.24294201 0.54501039
v -0.05248205 -0.20660201 0.54501039
v -0.05544202 -0.20767900 0.54501039
v -0.00969802 -0.24250200 0.54501039
v -0.01024501 -0.24560399 0.54501039
v -0.05500202 -0.19719800 0.54501039
v -0.05810402 -0.19774500 0.54501039
v -0.00000005 -0.24335000 0.54501039
v -0.00000005 -0.24650000 0.54501039
v -0.05585001 -0.18750000 0.54501039
v -0.05900006 -0.18750000 0.54501039
v 0.00969793 -0.24250200 0.54501039
v 0.01024491 -0.24560399 0.54501039
v -0.05500202 -0.17780200 0.54501039
v -0.05810402 -0.17725500 0.54501039
v 0.01910192 -0.23998199 0.54501039
v 0.02017892 -0.24294201 0.54501039
v -0.05248205 -0.16839799 0.54501039
v -0.05544202 -0.16732100 0.54501039
v 0.02792490 -0.23586801 0.54501039
v 0.02949989 -0.23859601 0.54501039
v -0.04836802 -0.15957500 0.54501039
v -0.05109601 -0.15800001 0.54501039
v 0.03589988 -0.23028401 0.54501039
v 0.03792394 -0.23269700 0.54501039
v -0.04278402 -0.15160000 0.54501039
v -0.04519706 -0.14957599 0.54501039
v 0.04519690 -0.22542401 0.54501039
v 0.04278392 -0.22339991 0.54501039
v -0.03792404 -0.14230300 0.54501039
v -0.03590004 -0.14471599 0.54501039
v 0.05109591 -0.21699999 0.54501039
v 0.04836792 -0.21542500 0.54501039
v -0.02950005 -0.13640399 0.54501039
v -0.02792506 -0.13913199 0.54501039
v 0.05544192 -0.20767900 0.54501039
v 0.05248189 -0.20660201 0.54501039
v -0.02017902 -0.13205799 0.54501039
v -0.01910202 -0.13501801 0.54501039
v 0.05810392 -0.19774500 0.54501039
v 0.05500192 -0.19719800 0.54501039
v -0.01024501 -0.12939601 0.54501039
v -0.00969802 -0.13249800 0.54501039
v 0.05899990 -0.18750000 0.54501039
v 0.05584991 -0.18750000 0.54501039
v -0.00000005 -0.12850000 0.54501039
v -0.00000005 -0.13165000 0.54501039
v 0.05810392 -0.17725500 0.54501039
v 0.05500192 -0.17780200 0.54501039
v 0.01024491 -0.12939601 0.54501039
v 0.00969793 -0.13249800 0.54501039
v 0.05544192 -0.16732100 0.54501039
v 0.05248189 -0.16839799 0.54501039
v 0.02017892 -0.13205799 0.54501039
v 0.01910192 -0.13501801 0.54501039
v 0.05109591 -0.15800001 0.54501039
v 0.04836792 -0.15957500 0.54501039
v 0.02949989 -0.13640399 0.54501039
v 0.02792490 -0.13913199 0.54501039
v 0.04519690 -0.14957599 0.54501039
v 0.04278392 -0.15160000 0.54501039
v 0.03792394 -0.14230300 0.54501039
v 0.03589988 -0.14471599 0.54501039
v -0.01024501 -0.12939601 0.54501039
v -0.00000005 -0.12850000 0.54501039
v -0.00000005 -0.12850000 0.54351038
v -0.01024501 -0.12939601 0.54351038
v -0.02017902 -0.13205799 0.54501039
v -0.02017902 -0.13205799 0.54351038
v -0.02950005 -0.13640399 0.54501039
v -0.02950005 -0.13640399 0.54351038
v -0.03792404 -0.14230300 0.54501039
v -0.03792404 -0.14230300 0.54351038
v -0.04519706 -0.14957599 0.54501039
v -0.04519706 -0.14957599 0.54351038
v -0.05109601 -0.15800001 0.54501039
v -0.05109601 -0.15800001 0.54351038
v -0.05544202 -0.16732100 0.54501039
v -0.05544202 -0.16732100 0.54351038
v -0.05810402 -0.17725500 0.54501039
v -0.05810402 -0.17725500 0.54351038
v -0.05900006 -0.18750000 0.54501039
v -0.05900006 -0.18750000 0.54351038
v -0.05810402 -0.19774500 0.54501039
v -0.05810402 -0.19774500 0.54351038
v -0.05544202 -0.20767900 0.54501039
v -0.05544202 -0.20767900 0.54351038
v -0.05109601 -0.21699999 0.54501039
v -0.05109601 -0.21699999 0.54351038
v -0.04519706 -0.22542401 0.54501039
v -0.04519706 -0.22542401 0.54351038
v -0.03792404 -0.23269700 0.54501039
v -0.03792404 -0.23269700 0.54351038
v -0.02950005 -0.23859601 0.54501039
v -0.02950005 -0.23859601 0.54351038
v -0.02017902 -0.24294201 0.54501039
v -0.02017902 -0.24294201 0.54351038
v -0.01024501 -0.24560399 0.54501039
v -0.01024501 -0.24560399 0.54351038
v -0.00000005 -0.24650000 0.54501039
v -0.00000005 -0.24650000 0.54351038
v 0.01024491 -0.24560399 0.54501039
v 0.01024491 -0.24560399 0.54351038
v 0.02017892 -0.24294201 0.54501039
v 0.02017892 -0.24294201 0.54351038
v 0.02949989 -0.23859601 0.54501039
v 0.02949989 -0.23859601 0.54351038
v 0.03792394 -0.23269700 0.54501039
v 0.03792394 -0.23269700 0.54351038
v 0.04519690 -0.22542401 0.54501039
v 0.04519690 -0.22542401 0.54351038
v 0.05109591 -0.21699999 0.54501039
v 0.05109591 -0.21699999 0.54351038
v 0.05544192 -0.20767900 0.54501039
v 0.05544192 -0.20767900 0.54351038
v 0.05810392 -0.19774500 0.54501039
v 0.05810392 -0.19774500 0.54351038
v 0.05899990 -0.18750000 0.54501039
v 0.05899990 -0.18750000 0.54351038
v 0.05810392 -0.17725500 0.54501039
v 0.05810392 -0.17725500 0.54351038
v 0.05544192 -0.16732100 0.54501039
v 0.05544192 -0.16732100 0.54351038
v 0.05109591 -0.15800001 0.54501039
v 0.05109591 -0.15800001 0.54351038
v 0.04519690 -0.14957599 0.54501039
v 0.04519690 -0.14957599 0.54351038
v 0.03792394 -0.14230300 0.54501039
v 0.03792394 -0.14230300 0.54351038
v 0.02949989 -0.13640399 0.54501039
v 0.02949989 -0.13640399 0.54351038
v 0.02017892 -0.13205799 0.54501039
v 0.02017892 -0.13205799 0.54351038
v 0.01024491 -0.12939601 0.54501039
v 0.01024491 -0.12939601 0.54351038
v -0.00000005 -0.12850000 0.54501039
v -0.00000005 -0.12850000 0.54351038
v -0.03651004 -0.14398900 0.54351038
v -0.04519706 -0.14957599 0.54351038
v -0.03792404 -0.14230300 0.54351038
v -0.04351102 -0.15098999 0.54351038
v -0.04919003 -0.15909991 0.54351038
v -0.05109601 -0.15800001 0.54351038
v -0.02840005 -0.13831000 0.54351038
v -0.02950005 -0.13640399 0.54351038
v -0.05337505 -0.16807289 0.54351038
v -0.05544202 -0.16732100 0.54351038
v -0.01942705 -0.13412490 0.54351038
v -0.02017902 -0.13205799 0.54351038
v -0.05593704 -0.17763700 0.54351038
v -0.05810402 -0.17725500 0.54351038
v -0.00986301 -0.13156299 0.54351038
v -0.01024501 -0.12939601 0.54351038
v -0.05680005 -0.18750000 0.54351038
v -0.05900006 -0.18750000 0.54351038
v -0.00000005 -0.13070001 0.54351038
v -0.00000005 -0.12850000 0.54351038
v -0.05593704 -0.19736300 0.54351038
v -0.05810402 -0.19774500 0.54351038
v 0.00986291 -0.13156299 0.54351038
v 0.01024491 -0.12939601 0.54351038
v -0.05337505 -0.20692700 0.54351038
v -0.05544202 -0.20767900 0.54351038
v 0.01942689 -0.13412490 0.54351038
v 0.02017892 -0.13205799 0.54351038
v -0.04919003 -0.21590000 0.54351038
v -0.05109601 -0.21699999 0.54351038
v 0.02839989 -0.13831000 0.54351038
v 0.02949989 -0.13640399 0.54351038
v -0.04351102 -0.22401001 0.54351038
v -0.04519706 -0.22542401 0.54351038
v 0.03650994 -0.14398900 0.54351038
v 0.03792394 -0.14230300 0.54351038
v -0.03792404 -0.23269700 0.54351038
v -0.03651004 -0.23101100 0.54351038
v 0.04519690 -0.14957599 0.54351038
v 0.04351092 -0.15098999 0.54351038
v -0.02950005 -0.23859601 0.54351038
v -0.02840005 -0.23669000 0.54351038
v 0.05109591 -0.15800001 0.54351038
v 0.04918993 -0.15909991 0.54351038
v -0.02017902 -0.24294201 0.54351038
v -0.01942705 -0.24087501 0.54351038
v 0.05544192 -0.16732100 0.54351038
v 0.05337489 -0.16807289 0.54351038
v -0.01024501 -0.24560399 0.54351038
v -0.00986301 -0.24343701 0.54351038
v 0.05810392 -0.17725500 0.54351038
v 0.05593694 -0.17763700 0.54351038
v -0.00000005 -0.24650000 0.54351038
v -0.00000005 -0.24429999 0.54351038
v 0.05899990 -0.18750000 0.54351038
v 0.05679989 -0.18750000 0.54351038
v 0.01024491 -0.24560399 0.54351038
v 0.00986291 -0.24343701 0.54351038
v 0.05810392 -0.19774500 0.54351038
v 0.05593694 -0.19736300 0.54351038
v 0.02017892 -0.24294201 0.54351038
v 0.01942689 -0.24087501 0.54351038
v 0.05544192 -0.20767900 0.54351038
v 0.05337489 -0.20692700 0.54351038
v 0.02949989 -0.23859601 0.54351038
v 0.02839989 -0.23669000 0.54351038
v 0.05109591 -0.21699999 0.54351038
v 0.04918993 -0.21590000 0.54351038
v 0.03792394 -0.23269700 0.54351038
v 0.03650994 -0.23101100 0.54351038
v 0.04519690 -0.22542401 0.54351038
v 0.04351092 -0.22401001 0.54351038
v -0.00986301 -0.13156299 0.54351038
v -0.00000005 -0.13070001 0.54351038
v -0.00000005 -0.13081300 0.53701037
v -0.00984405 -0.13167500 0.53701037
v -0.01942705 -0.13412490 0.54351038
v -0.01938801 -0.13423200 0.53701037
v -0.02840005 -0.13831000 0.54351038
v -0.02834301 -0.13840801 0.53701037
v -0.03651004 -0.14398900 0.54351038
v -0.03643702 -0.14407600 0.53701037
v -0.04351102 -0.15098999 0.54351038
v -0.04342406 -0.15106300 0.53701037
v -0.04919003 -0.15909991 0.54351038
v -0.04909204 -0.15915699 0.53701037
v -0.05337505 -0.16807289 0.54351038
v -0.05326806 -0.16811199 0.53701037
v -0.05593704 -0.17763700 0.54351038
v -0.05582504 -0.17765591 0.53701037
v -0.05680005 -0.18750000 0.54351038
v -0.05668704 -0.18750000 0.53701037
v -0.05593704 -0.19736300 0.54351038
v -0.05582504 -0.19734401 0.53701037
v -0.05337505 -0.20692700 0.54351038
v -0.05326806 -0.20688801 0.53701037
v -0.04919003 -0.21590000 0.54351038
v -0.04909204 -0.21584301 0.53701037
v -0.04351102 -0.22401001 0.54351038
v -0.04342406 -0.22393700 0.53701037
v -0.03651004 -0.23101100 0.54351038
v -0.03643702 -0.23092400 0.53701037
v -0.02840005 -0.23669000 0.54351038
v -0.02834301 -0.23659191 0.53701037
v -0.01942705 -0.24087501 0.54351038
v -0.01938801 -0.24076800 0.53701037
v -0.00986301 -0.24343701 0.54351038
v -0.00984405 -0.24332491 0.53701037
v -0.00000005 -0.24429999 0.54351038
v -0.00000005 -0.24418689 0.53701037
v 0.00986291 -0.24343701 0.54351038
v 0.00984390 -0.24332491 0.53701037
v 0.01942689 -0.24087501 0.54351038
v 0.01938791 -0.24076800 0.53701037
v 0.02839989 -0.23669000 0.54351038
v 0.02834291 -0.23659191 0.53701037
v 0.03650994 -0.23101100 0.54351038
v 0.03643692 -0.23092400 0.53701037
v 0.04351092 -0.22401001 0.54351038
v 0.04342390 -0.22393700 0.53701037
v 0.04918993 -0.21590000 0.54351038
v 0.04909188 -0.21584301 0.53701037
v 0.05337489 -0.20692700 0.54351038
v 0.05326790 -0.20688801 0.53701037
v 0.05593694 -0.19736300 0.54351038
v 0.05582488 -0.19734401 0.53701037
v 0.05679989 -0.18750000 0.54351038
v 0.05668688 -0.18750000 0.53701037
v 0.05593694 -0.17763700 0.54351038
v 0.05582488 -0.17765591 0.53701037
v 0.05326790 -0.16811199 0.53701037
v 0.05337489 -0.16807289 0.54351038
v 0.04918993 -0.15909991 0.54351038
v 0.04909188 -0.15915699 0.53701037
v 0.04351092 -0.15098999 0.54351038
v 0.04342390 -0.15106300 0.53701037
v 0.03650994 -0.14398900 0.54351038
v 0.03643692 -0.14407600 0.53701037
v 0.02839989 -0.13831000 0.54351038
v 0.02834291 -0.13840801 0.53701037
v 0.01942689 -0.13412490 0.54351038
v 0.01938791 -0.13423200 0.53701037
v 0.00984390 -0.13167500 0.53701037
v 0.00986291 -0.13156299 0.54351038
v -0.00000005 -0.13070001 0.54351038
v -0.00000005 -0.13081300 0.53701037
v -0.03585504 -0.14477000 0.53701037
v -0.04342406 -0.15106300 0.53701037
v -0.03643702 -0.14407600 0.53701037
v -0.04273002 -0.15164500 0.53701037
v -0.04830705 -0.15961000 0.53701037
v -0.04909204 -0.15915699 0.53701037
v -0.02789001 -0.13919289 0.53701037
v -0.02834301 -0.13840801 0.53701037
v -0.05241601 -0.16842200 0.53701037
v -0.05326806 -0.16811199 0.53701037
v -0.01907800 -0.13508400 0.53701037
v -0.01938801 -0.13423200 0.53701037
v -0.05493306 -0.17781401 0.53701037
v -0.05582504 -0.17765591 0.53701037
v -0.00968604 -0.13256700 0.53701037
v -0.00984405 -0.13167500 0.53701037
v -0.05578004 -0.18750000 0.53701037
v -0.05668704 -0.18750000 0.53701037
v -0.00000005 -0.13172001 0.53701037
v -0.00000005 -0.13081300 0.53701037
v -0.05493306 -0.19718590 0.53701037
v -0.05582504 -0.19734401 0.53701037
v 0.00968589 -0.13256700 0.53701037
v 0.00984390 -0.13167500 0.53701037
v -0.05241601 -0.20657800 0.53701037
v -0.05326806 -0.20688801 0.53701037
v 0.01907790 -0.13508400 0.53701037
v 0.01938791 -0.13423200 0.53701037
v -0.04830705 -0.21539000 0.53701037
v -0.04909204 -0.21584301 0.53701037
v 0.02788991 -0.13919289 0.53701037
v 0.02834291 -0.13840801 0.53701037
v -0.04273002 -0.22335491 0.53701037
v -0.04342406 -0.22393700 0.53701037
v 0.03585488 -0.14477000 0.53701037
v 0.03643692 -0.14407600 0.53701037
v -0.03643702 -0.23092400 0.53701037
v -0.03585504 -0.23023000 0.53701037
v 0.04342390 -0.15106300 0.53701037
v 0.04272992 -0.15164500 0.53701037
v -0.02834301 -0.23659191 0.53701037
v -0.02789001 -0.23580700 0.53701037
v 0.04909188 -0.15915699 0.53701037
v 0.04830689 -0.15961000 0.53701037
v -0.01938801 -0.24076800 0.53701037
v -0.01907800 -0.23991600 0.53701037
v 0.05326790 -0.16811199 0.53701037
v 0.05241591 -0.16842200 0.53701037
v -0.00984405 -0.24332491 0.53701037
v -0.00968604 -0.24243300 0.53701037
v 0.05582488 -0.17765591 0.53701037
v 0.05493290 -0.17781401 0.53701037
v -0.00000005 -0.24418689 0.53701037
v -0.00000005 -0.24327990 0.53701037
v 0.05668688 -0.18750000 0.53701037
v 0.05577994 -0.18750000 0.53701037
v 0.00984390 -0.24332491 0.53701037
v 0.00968589 -0.24243300 0.53701037
v 0.05582488 -0.19734401 0.53701037
v 0.05493290 -0.19718590 0.53701037
v 0.01938791 -0.24076800 0.53701037
v 0.01907790 -0.23991600 0.53701037
v 0.05326790 -0.20688801 0.53701037
v 0.05241591 -0.20657800 0.53701037
v 0.02834291 -0.23659191 0.53701037
v 0.02788991 -0.23580700 0.53701037
v 0.04909188 -0.21584301 0.53701037
v 0.04830689 -0.21539000 0.53701037
v 0.03643692 -0.23092400 0.53701037
v 0.03585488 -0.23023000 0.53701037
v 0.04342390 -0.22393700 0.53701037
v 0.04272992 -0.22335491 0.53701037
v -0.00969802 -0.13249800 0.54501039
v -0.00000005 -0.13172001 0.53701037
v -0.00000005 -0.13165000 0.54501039
v -0.00968604 -0.13256700 0.53701037
v -0.01910202 -0.13501801 0.54501039
v -0.01907800 -0.13508400 0.53701037
v -0.02792506 -0.13913199 0.54501039
v -0.02789001 -0.13919289 0.53701037
v -0.03590004 -0.14471599 0.54501039
v -0.03585504 -0.14477000 0.53701037
v -0.04278402 -0.15160000 0.54501039
v -0.04273002 -0.15164500 0.53701037
v -0.04836802 -0.15957500 0.54501039
v -0.04830705 -0.15961000 0.53701037
v -0.05248205 -0.16839799 0.54501039
v -0.05241601 -0.16842200 0.53701037
v -0.05500202 -0.17780200 0.54501039
v -0.05493306 -0.17781401 0.53701037
v -0.05585001 -0.18750000 0.54501039
v -0.05578004 -0.18750000 0.53701037
v -0.05500202 -0.19719800 0.54501039
v -0.05493306 -0.19718590 0.53701037
v -0.05248205 -0.20660201 0.54501039
v -0.05241601 -0.20657800 0.53701037
v -0.04836802 -0.21542500 0.54501039
v -0.04830705 -0.21539000 0.53701037
v -0.04278402 -0.22339991 0.54501039
v -0.04273002 -0.22335491 0.53701037
v -0.03590004 -0.23028401 0.54501039
v -0.03585504 -0.23023000 0.53701037
v -0.02792506 -0.23586801 0.54501039
v -0.02789001 -0.23580700 0.53701037
v -0.01910202 -0.23998199 0.54501039
v -0.01907800 -0.23991600 0.53701037
v -0.00969802 -0.24250200 0.54501039
v -0.00968604 -0.24243300 0.53701037
v -0.00000005 -0.24335000 0.54501039
v -0.00000005 -0.24327990 0.53701037
v 0.00969793 -0.24250200 0.54501039
v 0.00968589 -0.24243300 0.53701037
v 0.01910192 -0.23998199 0.54501039
v 0.01907790 -0.23991600 0.53701037
v 0.02792490 -0.23586801 0.54501039
v 0.02788991 -0.23580700 0.53701037
v 0.03589988 -0.23028401 0.54501039
v 0.03585488 -0.23023000 0.53701037
v 0.04278392 -0.22339991 0.54501039
v 0.04272992 -0.22335491 0.53701037
v 0.04836792 -0.21542500 0.54501039
v 0.04830689 -0.21539000 0.53701037
v 0.05248189 -0.20660201 0.54501039
v 0.05241591 -0.20657800 0.53701037
v 0.05500192 -0.19719800 0.54501039
v 0.05493290 -0.19718590 0.53701037
v 0.05584991 -0.18750000 0.54501039
v 0.05577994 -0.18750000 0.53701037
v 0.05500192 -0.17780200 0.54501039
v 0.05493290 -0.17781401 0.53701037
v 0.05248189 -0.16839799 0.54501039
v 0.05241591 -0.16842200 0.53701037
v 0.04836792 -0.15957500 0.54501039
v 0.04830689 -0.15961000 0.53701037
v 0.04278392 -0.15160000 0.54501039
v 0.04272992 -0.15164500 0.53701037
v 0.03589988 -0.14471599 0.54501039
v 0.03585488 -0.14477000 0.53701037
v 0.02788991 -0.13919289 0.53701037
v 0.02792490 -0.13913199 0.54501039
v 0.01910192 -0.13501801 0.54501039
v 0.01907790 -0.13508400 0.53701037
v 0.00969793 -0.13249800 0.54501039
v 0.00968589 -0.13256700 0.53701037
v -0.00000005 -0.13165000 0.54501039
v -0.00000005 -0.13172001 0.53701037
v 0.05737095 -0.23116900 0.08851039
v 0.06047396 -0.23353089 0.08851039
v 0.05156194 -0.24333300 0.08851039
v 0.04891597 -0.24046800 0.08851039
v 0.03897594 -0.24815699 0.08851039
v 0.04108398 -0.25143799 0.08851039
v 0.06408195 -0.22054300 0.08851039
v 0.06754898 -0.22233000 0.08851039
v 0.02784996 -0.25400400 0.08851039
v 0.02935694 -0.25760099 0.08851039
v 0.06884699 -0.20891300 0.08851039
v 0.07257096 -0.21007200 0.08851039
v 0.01587896 -0.25782999 0.08851039
v 0.01673792 -0.26163399 0.08851039
v 0.07151894 -0.19663300 0.08851039
v 0.07538794 -0.19712700 0.08851039
v 0.00342493 -0.25951901 0.08851039
v 0.00360995 -0.26341400 0.08851039
v 0.07201897 -0.18407489 0.08851039
v 0.07591395 -0.18389000 0.08851039
v -0.00913299 -0.25901899 0.08851039
v -0.00962699 -0.26288801 0.08851039
v 0.07032995 -0.17162099 0.08851039
v 0.07413398 -0.17076200 0.08851039
v -0.02141297 -0.25634700 0.08851039
v -0.02257199 -0.26007101 0.08851039
v 0.06650399 -0.15965000 0.08851039
v 0.07010096 -0.15814300 0.08851039
v -0.03304297 -0.25158200 0.08851039
v -0.03482998 -0.25504899 0.08851039
v 0.06065695 -0.14852400 0.08851039
v 0.06393795 -0.14641599 0.08851039
v -0.04366899 -0.24487101 0.08851038
v -0.04603100 -0.24797399 0.08851038
v 0.05296795 -0.13858400 0.08851039
v 0.05583297 -0.13593800 0.08851039
v -0.05583299 -0.23906200 0.08851038
v -0.05296797 -0.23641600 0.08851038
v 0.04603092 -0.12702601 0.08851039
v 0.04366897 -0.13012899 0.08851039
v -0.06393797 -0.22858401 0.08851038
v -0.06065697 -0.22647600 0.08851038
v 0.03482996 -0.11995100 0.08851039
v 0.03304295 -0.12341800 0.08851039
v -0.07010097 -0.21685700 0.08851038
v -0.06650401 -0.21535000 0.08851038
v 0.02257197 -0.11492900 0.08851039
v 0.02141295 -0.11865290 0.08851039
v -0.07413400 -0.20423789 0.08851038
v -0.07032996 -0.20337901 0.08851038
v 0.00962698 -0.11211200 0.08851039
v 0.00913297 -0.11598100 0.08851039
v -0.07591397 -0.19111000 0.08851038
v -0.07201899 -0.19092500 0.08851038
v -0.00360996 -0.11158600 0.08851039
v -0.00342501 -0.11548100 0.08851039
v -0.07538801 -0.17787300 0.08851038
v -0.07151902 -0.17836700 0.08851038
v -0.01673800 -0.11336600 0.08851039
v -0.01587898 -0.11717000 0.08851039
v -0.07257098 -0.16492800 0.08851038
v -0.06884701 -0.16608700 0.08851038
v -0.02935696 -0.11739900 0.08851039
v -0.02784998 -0.12099590 0.08851039
v -0.06754900 -0.15267000 0.08851038
v -0.06408197 -0.15445700 0.08851038
v -0.04108400 -0.12356200 0.08851039
v -0.03897602 -0.12684301 0.08851039
v -0.06047398 -0.14146900 0.08851038
v -0.05737097 -0.14383100 0.08851038
v -0.05156202 -0.13166700 0.08851038
v -0.04891599 -0.13453200 0.08851038
v 0.00962698 -0.11211200 0.08851039
v -0.00360996 -0.11158600 0.08851039
v -0.00360996 -0.11158600 0.08951038
v 0.00962698 -0.11211200 0.08951038
v 0.02257197 -0.11492900 0.08851039
v 0.02257197 -0.11492900 0.08951038
v 0.03482996 -0.11995100 0.08851039
v 0.03482996 -0.11995100 0.08951038
v 0.04603092 -0.12702601 0.08851039
v 0.04603092 -0.12702601 0.08951039
v 0.05583297 -0.13593800 0.08851039
v 0.05583297 -0.13593800 0.08951039
v 0.06393795 -0.14641599 0.08851039
v 0.06393795 -0.14641599 0.08951039
v 0.07010096 -0.15814300 0.08851039
v 0.07010096 -0.15814300 0.08951039
v 0.07413398 -0.17076200 0.08851039
v 0.07413398 -0.17076200 0.08951039
v 0.07591395 -0.18389000 0.08851039
v 0.07591395 -0.18389000 0.08951039
v 0.07538794 -0.19712700 0.08851039
v 0.07538794 -0.19712700 0.08951039
v 0.07257096 -0.21007200 0.08851039
v 0.07257096 -0.21007200 0.08951039
v 0.06754898 -0.22233000 0.08851039
v 0.06754898 -0.22233000 0.08951039
v 0.06047396 -0.23353089 0.08851039
v 0.06047396 -0.23353089 0.08951039
v 0.05156194 -0.24333300 0.08851039
v 0.05156194 -0.24333300 0.08951039
v 0.04108398 -0.25143799 0.08851039
v 0.04108398 -0.25143799 0.08951038
v 0.02935694 -0.25760099 0.08851039
v 0.02935694 -0.25760099 0.08951038
v 0.01673792 -0.26163399 0.08851039
v 0.01673792 -0.26163399 0.08951038
v 0.00360995 -0.26341400 0.08851039
v 0.00360995 -0.26341400 0.08951038
v -0.00962699 -0.26288801 0.08851039
v -0.00962699 -0.26288801 0.08951038
v -0.02257199 -0.26007101 0.08851039
v -0.02257199 -0.26007101 0.08951038
v -0.03482998 -0.25504899 0.08851039
v -0.03482998 -0.25504899 0.08951038
v -0.04603100 -0.24797399 0.08851038
v -0.04603100 -0.24797399 0.08951037
v -0.05583299 -0.23906200 0.08851038
v -0.05583299 -0.23906200 0.08951037
v -0.06393797 -0.22858401 0.08851038
v -0.06393797 -0.22858401 0.08951037
v -0.07010097 -0.21685700 0.08851038
v -0.07010097 -0.21685700 0.08951037
v -0.07413400 -0.20423789 0.08851038
v -0.07413400 -0.20423789 0.08951037
v -0.07591397 -0.19111000 0.08851038
v -0.07591397 -0.19111000 0.08951037
v -0.07538801 -0.17787300 0.08851038
v -0.07538801 -0.17787300 0.08951037
v -0.07257098 -0.16492800 0.08851038
v -0.07257098 -0.16492800 0.08951037
v -0.06754900 -0.15267000 0.08851038
v -0.06754900 -0.15267000 0.08951037
v -0.06047398 -0.14146900 0.08851038
v -0.06047398 -0.14146900 0.08951037
v -0.05156202 -0.13166700 0.08851038
v -0.05156202 -0.13166700 0.08951037
v -0.04108400 -0.12356200 0.08851039
v -0.04108400 -0.12356200 0.08951038
v -0.02935696 -0.11739900 0.08851039
v -0.02935696 -0.11739900 0.08951038
v -0.01673800 -0.11336600 0.08851039
v -0.01673800 -0.11336600 0.08951038
v -0.00360996 -0.11158600 0.08851039
v -0.00360996 -0.11158600 0.08951038
v 0.04420798 -0.12942091 0.08951039
v 0.05583297 -0.13593800 0.08951039
v 0.04603092 -0.12702601 0.08951039
v 0.05362193 -0.13798000 0.08951039
v 0.06140594 -0.14804301 0.08951039
v 0.06393795 -0.14641599 0.08951039
v 0.03345095 -0.12262600 0.08951038
v 0.03482996 -0.11995100 0.08951038
v 0.06732498 -0.15930600 0.08951039
v 0.07010096 -0.15814300 0.08951039
v 0.02167796 -0.11780300 0.08951038
v 0.02257197 -0.11492900 0.08951038
v 0.07119797 -0.17142500 0.08951039
v 0.07413398 -0.17076200 0.08951039
v 0.00924598 -0.11509790 0.08951038
v 0.00962698 -0.11211200 0.08951038
v 0.07290797 -0.18403301 0.08951039
v 0.07591395 -0.18389000 0.08951039
v -0.00346697 -0.11459200 0.08951038
v -0.00360996 -0.11158600 0.08951038
v 0.07240199 -0.19674601 0.08951039
v 0.07538794 -0.19712700 0.08951039
v -0.01607502 -0.11630200 0.08951038
v -0.01673800 -0.11336600 0.08951038
v 0.06969696 -0.20917800 0.08951039
v 0.07257096 -0.21007200 0.08951039
v -0.02819402 -0.12017500 0.08951038
v -0.02935696 -0.11739900 0.08951038
v 0.06487399 -0.22095101 0.08951039
v 0.06754898 -0.22233000 0.08951039
v -0.03945697 -0.12609400 0.08951038
v -0.04108400 -0.12356200 0.08951038
v 0.05807893 -0.23170801 0.08951039
v 0.06047396 -0.23353089 0.08951039
v -0.04952002 -0.13387790 0.08951037
v -0.05156202 -0.13166700 0.08951037
v 0.05156194 -0.24333300 0.08951039
v 0.04951994 -0.24112201 0.08951039
v -0.06047398 -0.14146900 0.08951037
v -0.05807901 -0.14329199 0.08951037
v 0.04108398 -0.25143799 0.08951038
v 0.03945695 -0.24890600 0.08951038
v -0.06754900 -0.15267000 0.08951037
v -0.06487400 -0.15404899 0.08951037
v 0.02935694 -0.25760099 0.08951038
v 0.02819394 -0.25482500 0.08951038
v -0.07257098 -0.16492800 0.08951037
v -0.06969697 -0.16582200 0.08951037
v 0.01673792 -0.26163399 0.08951038
v 0.01607494 -0.25869799 0.08951038
v -0.07538801 -0.17787300 0.08951037
v -0.07240201 -0.17825399 0.08951037
v 0.00360995 -0.26341400 0.08951038
v 0.00346696 -0.26040801 0.08951038
v -0.07591397 -0.19111000 0.08951037
v -0.07290798 -0.19096699 0.08951037
v -0.00962699 -0.26288801 0.08951038
v -0.00924600 -0.25990200 0.08951038
v -0.07413400 -0.20423789 0.08951037
v -0.07119799 -0.20357500 0.08951037
v -0.02257199 -0.26007101 0.08951038
v -0.02167798 -0.25719699 0.08951038
v -0.07010097 -0.21685700 0.08951037
v -0.06732500 -0.21569400 0.08951037
v -0.03482998 -0.25504899 0.08951038
v -0.03345097 -0.25237399 0.08951038
v -0.06393797 -0.22858401 0.08951037
v -0.06140602 -0.22695699 0.08951037
v -0.04603100 -0.24797399 0.08951037
v -0.04420800 -0.24557900 0.08951037
v -0.05583299 -0.23906200 0.08951037
v -0.05362201 -0.23702000 0.08951037
v 0.00924598 -0.11509790 0.08951038
v -0.00346697 -0.11459200 0.08951038
v -0.00346101 -0.11473200 0.09751039
v 0.00922798 -0.11523600 0.09751039
v 0.02167796 -0.11780300 0.08951038
v 0.02163593 -0.11793700 0.09751039
v 0.03345095 -0.12262600 0.08951038
v 0.03338693 -0.12275090 0.09751039
v 0.04420798 -0.12942091 0.08951039
v 0.04412298 -0.12953199 0.09751040
v 0.05362193 -0.13798000 0.08951039
v 0.05351894 -0.13807400 0.09751040
v 0.06140594 -0.14804301 0.08951039
v 0.06128894 -0.14811900 0.09751040
v 0.06732498 -0.15930600 0.08951039
v 0.06719594 -0.15936001 0.09751040
v 0.07119797 -0.17142500 0.08951039
v 0.07106195 -0.17145599 0.09751040
v 0.07290797 -0.18403301 0.08951039
v 0.07276797 -0.18403891 0.09751040
v 0.07240199 -0.19674601 0.08951039
v 0.07226394 -0.19672801 0.09751040
v 0.06969696 -0.20917800 0.08951039
v 0.06956296 -0.20913599 0.09751040
v 0.06487399 -0.22095101 0.08951039
v 0.06474900 -0.22088701 0.09751040
v 0.05807893 -0.23170801 0.08951039
v 0.05796795 -0.23162290 0.09751040
v 0.04951994 -0.24112201 0.08951039
v 0.04942594 -0.24101900 0.09751040
v 0.03945695 -0.24890600 0.08951038
v 0.03938095 -0.24878900 0.09751039
v 0.02819394 -0.25482500 0.08951038
v 0.02813993 -0.25469601 0.09751039
v 0.01607494 -0.25869799 0.08951038
v 0.01604395 -0.25856200 0.09751039
v 0.00346696 -0.26040801 0.08951038
v 0.00346093 -0.26026800 0.09751039
v -0.00924600 -0.25990200 0.08951038
v -0.00922800 -0.25976399 0.09751039
v -0.02167798 -0.25719699 0.08951038
v -0.02163601 -0.25706300 0.09751039
v -0.03345097 -0.25237399 0.08951038
v -0.03338701 -0.25224900 0.09751039
v -0.04420800 -0.24557900 0.08951037
v -0.04412300 -0.24546801 0.09751038
v -0.05362201 -0.23702000 0.08951037
v -0.05351902 -0.23692600 0.09751038
v -0.06140602 -0.22695699 0.08951037
v -0.06128902 -0.22688100 0.09751038
v -0.06732500 -0.21569400 0.08951037
v -0.06719602 -0.21563999 0.09751038
v -0.07119799 -0.20357500 0.08951037
v -0.07106197 -0.20354401 0.09751038
v -0.07290798 -0.19096699 0.08951037
v -0.07276798 -0.19096100 0.09751038
v -0.07240201 -0.17825399 0.08951037
v -0.07226402 -0.17827199 0.09751038
v -0.06969697 -0.16582200 0.08951037
v -0.06956298 -0.16586401 0.09751038
v -0.06474901 -0.15411291 0.09751038
v -0.06487400 -0.15404899 0.08951037
v -0.05807901 -0.14329199 0.08951037
v -0.05796797 -0.14337701 0.09751038
v -0.04942596 -0.13398100 0.09751038
v -0.04952002 -0.13387790 0.08951037
v -0.03945697 -0.12609400 0.08951038
v -0.03938097 -0.12621100 0.09751039
v -0.02819402 -0.12017500 0.08951038
v -0.02814001 -0.12030400 0.09751039
v -0.01607502 -0.11630200 0.08951038
v -0.01604397 -0.11643800 0.09751039
v -0.00346697 -0.11459200 0.08951038
v -0.00346101 -0.11473200 0.09751039
v 0.04362093 -0.13019100 0.09751040
v 0.05351894 -0.13807400 0.09751040
v 0.04412298 -0.12953199 0.09751040
v 0.05290996 -0.13863701 0.09751040
v 0.06059097 -0.14856701 0.09751040
v 0.06128894 -0.14811900 0.09751040
v 0.03300695 -0.12348700 0.09751039
v 0.03338693 -0.12275090 0.09751039
v 0.06643097 -0.15967999 0.09751040
v 0.06719594 -0.15936001 0.09751040
v 0.02138995 -0.11872800 0.09751039
v 0.02163593 -0.11793700 0.09751039
v 0.07025294 -0.17163800 0.09751040
v 0.07106195 -0.17145599 0.09751040
v 0.00912296 -0.11605900 0.09751039
v 0.00922798 -0.11523600 0.09751039
v 0.07193993 -0.18407901 0.09751040
v 0.07276797 -0.18403891 0.09751040
v -0.00342102 -0.11556000 0.09751039
v -0.00346101 -0.11473200 0.09751039
v 0.07144098 -0.19662300 0.09751040
v 0.07226394 -0.19672801 0.09751040
v -0.01586199 -0.11724700 0.09751039
v -0.01604397 -0.11643800 0.09751039
v 0.06877194 -0.20889001 0.09751040
v 0.06956296 -0.20913599 0.09751040
v -0.02782000 -0.12106900 0.09751039
v -0.02814001 -0.12030400 0.09751039
v 0.06401293 -0.22050700 0.09751040
v 0.06474900 -0.22088701 0.09751040
v -0.03893298 -0.12690900 0.09751039
v -0.03938097 -0.12621100 0.09751039
v 0.05730896 -0.23112100 0.09751040
v 0.05796795 -0.23162290 0.09751040
v -0.04886300 -0.13459000 0.09751038
v -0.04942596 -0.13398100 0.09751038
v 0.04942594 -0.24101900 0.09751040
v 0.04886298 -0.24041000 0.09751040
v -0.05796797 -0.14337701 0.09751038
v -0.05730898 -0.14387891 0.09751038
v 0.03938095 -0.24878900 0.09751039
v 0.03893296 -0.24809100 0.09751039
v -0.06474901 -0.15411291 0.09751038
v -0.06401300 -0.15449300 0.09751038
v 0.02813993 -0.25469601 0.09751039
v 0.02781998 -0.25393099 0.09751039
v -0.06956298 -0.16586401 0.09751038
v -0.06877202 -0.16610999 0.09751038
v 0.01604395 -0.25856200 0.09751039
v 0.01586197 -0.25775301 0.09751039
v -0.07226402 -0.17827199 0.09751038
v -0.07144099 -0.17837700 0.09751038
v 0.00346093 -0.26026800 0.09751039
v 0.00342094 -0.25944000 0.09751039
v -0.07276798 -0.19096100 0.09751038
v -0.07194000 -0.19092099 0.09751038
v -0.00912298 -0.25894099 0.09751039
v -0.00922800 -0.25976399 0.09751039
v -0.07106197 -0.20354401 0.09751038
v -0.07025301 -0.20336200 0.09751038
v -0.02163601 -0.25706300 0.09751039
v -0.02138997 -0.25627199 0.09751039
v -0.06719602 -0.21563999 0.09751038
v -0.06643099 -0.21532001 0.09751038
v -0.03338701 -0.25224900 0.09751039
v -0.03300697 -0.25151300 0.09751039
v -0.06128902 -0.22688100 0.09751038
v -0.06059099 -0.22643299 0.09751038
v -0.04412300 -0.24546801 0.09751038
v -0.04362101 -0.24480900 0.09751038
v -0.05351902 -0.23692600 0.09751038
v -0.05290998 -0.23636290 0.09751038
v 0.00913297 -0.11598100 0.08851039
v -0.00342102 -0.11556000 0.09751039
v -0.00342501 -0.11548100 0.08851039
v 0.00912296 -0.11605900 0.09751039
v 0.02141295 -0.11865290 0.08851039
v 0.02138995 -0.11872800 0.09751039
v 0.03304295 -0.12341800 0.08851039
v 0.03300695 -0.12348700 0.09751039
v 0.04366897 -0.13012899 0.08851039
v 0.04362093 -0.13019100 0.09751040
v 0.05296795 -0.13858400 0.08851039
v 0.05290996 -0.13863701 0.09751040
v 0.06065695 -0.14852400 0.08851039
v 0.06059097 -0.14856701 0.09751040
v 0.06650399 -0.15965000 0.08851039
v 0.06643097 -0.15967999 0.09751040
v 0.07032995 -0.17162099 0.08851039
v 0.07025294 -0.17163800 0.09751040
v 0.07201897 -0.18407489 0.08851039
v 0.07193993 -0.18407901 0.09751040
v 0.07151894 -0.19663300 0.08851039
v 0.07144098 -0.19662300 0.09751040
v 0.06884699 -0.20891300 0.08851039
v 0.06877194 -0.20889001 0.09751040
v 0.06408195 -0.22054300 0.08851039
v 0.06401293 -0.22050700 0.09751040
v 0.05737095 -0.23116900 0.08851039
v 0.05730896 -0.23112100 0.09751040
v 0.04891597 -0.24046800 0.08851039
v 0.04886298 -0.24041000 0.09751040
v 0.03897594 -0.24815699 0.08851039
v 0.03893296 -0.24809100 0.09751039
v 0.02784996 -0.25400400 0.08851039
v 0.02781998 -0.25393099 0.09751039
v 0.01587896 -0.25782999 0.08851039
v 0.01586197 -0.25775301 0.09751039
v 0.00342493 -0.25951901 0.08851039
v 0.00342094 -0.25944000 0.09751039
v -0.00913299 -0.25901899 0.08851039
v -0.00912298 -0.25894099 0.09751039
v -0.02141297 -0.25634700 0.08851039
v -0.02138997 -0.25627199 0.09751039
v -0.03304297 -0.25158200 0.08851039
v -0.03300697 -0.25151300 0.09751039
v -0.04366899 -0.24487101 0.08851038
v -0.04362101 -0.24480900 0.09751038
v -0.05296797 -0.23641600 0.08851038
v -0.05290998 -0.23636290 0.09751038
v -0.06065697 -0.22647600 0.08851038
v -0.06059099 -0.22643299 0.09751038
v -0.06650401 -0.21535000 0.08851038
v -0.06643099 -0.21532001 0.09751038
v -0.07032996 -0.20337901 0.08851038
v -0.07025301 -0.20336200 0.09751038
v -0.07201899 -0.19092500 0.08851038
v -0.07194000 -0.19092099 0.09751038
v -0.07151902 -0.17836700 0.08851038
v -0.07144099 -0.17837700 0.09751038
v -0.06884701 -0.16608700 0.08851038
v -0.06877202 -0.16610999 0.09751038
v -0.06408197 -0.15445700 0.08851038
v -0.06401300 -0.15449300 0.09751038
v -0.05737097 -0.14383100 0.08851038
v -0.05730898 -0.14387891 0.09751038
v -0.04891599 -0.13453200 0.08851038
v -0.04886300 -0.13459000 0.09751038
v -0.03897602 -0.12684301 0.08851039
v -0.03893298 -0.12690900 0.09751039
v -0.02782000 -0.12106900 0.09751039
v -0.02784998 -0.12099590 0.08851039
v -0.01587898 -0.11717000 0.08851039
v -0.01586199 -0.11724700 0.09751039
v -0.00342501 -0.11548100 0.08851039
v 0.05582989 -0.11330000 0.60274339
v 0.05671293 -0.11330000 0.61258942
v 0.05669493 -0.11430000 0.61258942
v 0.05581290 -0.11430000 0.60274643
v 0.05325091 -0.11330000 0.59319937
v 0.05323494 -0.11430000 0.59320539
v 0.04905391 -0.11330000 0.58424938
v 0.04903889 -0.11430000 0.58425742
v 0.04336590 -0.11330000 0.57616341
v 0.04335291 -0.11430000 0.57617438
v 0.03636092 -0.11330000 0.56918842
v 0.03634990 -0.11430000 0.56920141
v 0.02825094 -0.11330000 0.56353539
v 0.02824289 -0.11430000 0.56355041
v 0.01928294 -0.11330000 0.55937642
v 0.01927692 -0.11430000 0.55939341
v 0.00972892 -0.11330000 0.55683839
v 0.00972594 -0.11430000 0.55685538
v -0.00012106 -0.11330000 0.55599737
v -0.00012106 -0.11430000 0.55601537
v -0.00996702 -0.11330000 0.55688041
v -0.00996404 -0.11430000 0.55689740
v -0.01951103 -0.11330000 0.55945939
v -0.01950501 -0.11430000 0.55947542
v -0.02846102 -0.11330000 0.56365639
v -0.02845304 -0.11430000 0.56367141
v -0.03654705 -0.11330000 0.56934440
v -0.03653602 -0.11430000 0.56935740
v -0.04352205 -0.11330000 0.57634938
v -0.04350905 -0.11430000 0.57636040
v -0.04917501 -0.11330000 0.58445942
v -0.04916005 -0.11430000 0.58446741
v -0.05333404 -0.11330000 0.59342742
v -0.05331706 -0.11430000 0.59343338
v -0.05587201 -0.11330000 0.60298139
v -0.05585502 -0.11430000 0.60298443
v -0.05671303 -0.11330000 0.61283141
v -0.05669503 -0.11430000 0.61283141
v -0.05583006 -0.11330000 0.62267739
v -0.05581307 -0.11430000 0.62267441
v -0.05325102 -0.11330000 0.63222140
v -0.05323505 -0.11430000 0.63221538
v -0.04905402 -0.11330000 0.64117140
v -0.04903905 -0.11430000 0.64116341
v -0.04336607 -0.11330000 0.64925742
v -0.04335302 -0.11430000 0.64924639
v -0.03636103 -0.11330000 0.65623242
v -0.03635007 -0.11430000 0.65621942
v -0.02825105 -0.11330000 0.66188538
v -0.02824306 -0.11430000 0.66187042
v -0.01928305 -0.11330000 0.66604441
v -0.01927703 -0.11430000 0.66602743
v -0.00972903 -0.11330000 0.66858238
v -0.00972605 -0.11430000 0.66856539
v 0.00012093 -0.11330000 0.66942340
v 0.00012093 -0.11430000 0.66940540
v 0.00996691 -0.11330000 0.66854042
v 0.00996393 -0.11430000 0.66852337
v 0.01951092 -0.11330000 0.66596138
v 0.01950490 -0.11430000 0.66594541
v 0.02846091 -0.11330000 0.66176438
v 0.02845293 -0.11430000 0.66174942
v 0.03654689 -0.11330000 0.65607637
v 0.03653591 -0.11430000 0.65606338
v 0.04352188 -0.11330000 0.64907140
v 0.04350888 -0.11430000 0.64906043
v 0.04917490 -0.11330000 0.64096141
v 0.04915988 -0.11430000 0.64095342
v 0.05333387 -0.11330000 0.63199341
v 0.05331689 -0.11430000 0.63198739
v 0.05587190 -0.11330000 0.62243938
v 0.05585491 -0.11430000 0.62243640
v 0.05671293 -0.11330000 0.61258942
v 0.05669493 -0.11430000 0.61258942
v 0.05498094 -0.10680000 0.60289443
v 0.05578393 -0.11430000 0.61259139
v 0.05584991 -0.10680000 0.61259139
v 0.05491591 -0.11430000 0.60290641
v 0.05244089 -0.10680000 0.59349638
v 0.05237890 -0.11430000 0.59351838
v 0.04830790 -0.10680000 0.58468240
v 0.04825092 -0.11430000 0.58471441
v 0.04270691 -0.10680000 0.57671940
v 0.04265690 -0.11430000 0.57676142
v 0.03580791 -0.10680000 0.56985039
v 0.03576589 -0.11430000 0.56990039
v 0.02782089 -0.10680000 0.56428337
v 0.02778894 -0.11430000 0.56434041
v 0.01898993 -0.10680000 0.56018740
v 0.01896692 -0.11430000 0.56024939
v 0.00958092 -0.10680000 0.55768842
v 0.00956894 -0.11430000 0.55775237
v -0.00011906 -0.10680000 0.55686039
v -0.00011906 -0.11430000 0.55692643
v -0.00981604 -0.10680000 0.55772942
v -0.00980406 -0.11430000 0.55779439
v -0.01921402 -0.10680000 0.56026942
v -0.01919203 -0.11430000 0.56033140
v -0.02802806 -0.10680000 0.56440240
v -0.02799605 -0.11430000 0.56445938
v -0.03599106 -0.10680000 0.57000339
v -0.03594904 -0.11430000 0.57005340
v -0.04286002 -0.10680000 0.57690239
v -0.04281001 -0.11430000 0.57694441
v -0.04842703 -0.10680000 0.58488840
v -0.04837005 -0.11430000 0.58492142
v -0.05252300 -0.10680000 0.59372038
v -0.05246101 -0.11430000 0.59374338
v -0.05502205 -0.10680000 0.60312939
v -0.05495803 -0.11430000 0.60314143
v -0.05585001 -0.10680000 0.61282939
v -0.05578403 -0.11430000 0.61282939
v -0.05498105 -0.10680000 0.62252641
v -0.05491602 -0.11430000 0.62251443
v -0.05244106 -0.10680000 0.63192439
v -0.05237906 -0.11430000 0.63190138
v -0.04830807 -0.10680000 0.64073843
v -0.04825103 -0.11430000 0.64070642
v -0.04270701 -0.10680000 0.64870143
v -0.04265701 -0.11430000 0.64865941
v -0.03580802 -0.10680000 0.65557039
v -0.03576606 -0.11430000 0.65552038
v -0.02782106 -0.10680000 0.66113740
v -0.02778905 -0.11430000 0.66108042
v -0.01899004 -0.10680000 0.66523337
v -0.01896703 -0.11430000 0.66517138
v -0.00958103 -0.10680000 0.66773242
v -0.00956905 -0.11430000 0.66766840
v 0.00011893 -0.10680000 0.66856039
v 0.00011893 -0.11430000 0.66849440
v 0.00981593 -0.10680000 0.66769141
v 0.00980389 -0.11430000 0.66762638
v 0.01919192 -0.11430000 0.66508943
v 0.01921391 -0.10680000 0.66515142
v 0.02802789 -0.10680000 0.66101837
v 0.02799588 -0.11430000 0.66096139
v 0.03599089 -0.10680000 0.65541738
v 0.03594894 -0.11430000 0.65536737
v 0.04285992 -0.10680000 0.64851838
v 0.04280990 -0.11430000 0.64847642
v 0.04842692 -0.10680000 0.64053237
v 0.04836988 -0.11430000 0.64049941
v 0.05252289 -0.10680000 0.63170040
v 0.05246091 -0.11430000 0.63167739
v 0.05502189 -0.10680000 0.62229139
v 0.05495792 -0.11430000 0.62227941
v 0.05578393 -0.11430000 0.61259139
v 0.05584991 -0.10680000 0.61259139
v -0.03599106 -0.10680000 0.57000339
v -0.03802101 -0.10680000 0.56759542
v -0.04527806 -0.10680000 0.57488239
v -0.04286002 -0.10680000 0.57690239
v -0.04842703 -0.10680000 0.58488840
v -0.05115806 -0.10680000 0.58331943
v -0.02802806 -0.10680000 0.56440240
v -0.02960901 -0.10680000 0.56167841
v -0.05252300 -0.10680000 0.59372038
v -0.05548506 -0.10680000 0.59264940
v -0.01921402 -0.10680000 0.56026942
v -0.02029805 -0.10680000 0.55731142
v -0.05502205 -0.10680000 0.60312939
v -0.05812500 -0.10680000 0.60258943
v -0.00981604 -0.10680000 0.55772942
v -0.01036905 -0.10680000 0.55462837
v -0.05585001 -0.10680000 0.61282939
v -0.05900006 -0.10680000 0.61283642
v -0.00011906 -0.10680000 0.55686039
v -0.00012606 -0.10680000 0.55371040
v -0.05498105 -0.10680000 0.62252641
v -0.05808204 -0.10680000 0.62307942
v 0.00958092 -0.10680000 0.55768842
v 0.01012093 -0.10680000 0.55458540
v -0.05244106 -0.10680000 0.63192439
v -0.05539906 -0.10680000 0.63300842
v 0.01898993 -0.10680000 0.56018740
v 0.02006090 -0.10680000 0.55722541
v -0.04830807 -0.10680000 0.64073843
v -0.05103206 -0.10680000 0.64231938
v 0.02782089 -0.10680000 0.56428337
v 0.02939094 -0.10680000 0.56155241
v -0.04270701 -0.10680000 0.64870143
v -0.04511505 -0.10680000 0.65073138
v 0.03580791 -0.10680000 0.56985039
v 0.03782791 -0.10680000 0.56743240
v -0.03782802 -0.10680000 0.65798843
v -0.03580802 -0.10680000 0.65557039
v 0.04511494 -0.10680000 0.57468939
v 0.04270691 -0.10680000 0.57671940
v -0.02939105 -0.10680000 0.66386843
v -0.02782106 -0.10680000 0.66113740
v 0.05103189 -0.10680000 0.58310139
v 0.04830790 -0.10680000 0.58468240
v -0.02006101 -0.10680000 0.66819543
v -0.01899004 -0.10680000 0.66523337
v 0.05539889 -0.10680000 0.59241241
v 0.05244089 -0.10680000 0.59349638
v -0.01012104 -0.10680000 0.67083538
v -0.00958103 -0.10680000 0.66773242
v 0.05808193 -0.10680000 0.60234040
v 0.05498094 -0.10680000 0.60289443
v 0.00012593 -0.10680000 0.67171037
v 0.00011893 -0.10680000 0.66856039
v 0.05899990 -0.10680000 0.61258441
v 0.05584991 -0.10680000 0.61259139
v 0.01036888 -0.10680000 0.67079240
v 0.00981593 -0.10680000 0.66769141
v 0.05812489 -0.10680000 0.62283140
v 0.05502189 -0.10680000 0.62229139
v 0.02029788 -0.10680000 0.66810942
v 0.01921391 -0.10680000 0.66515142
v 0.05548489 -0.10680000 0.63277137
v 0.05252289 -0.10680000 0.63170040
v 0.02960890 -0.10680000 0.66374242
v 0.02802789 -0.10680000 0.66101837
v 0.05115790 -0.10680000 0.64210141
v 0.04842692 -0.10680000 0.64053237
v 0.03802091 -0.10680000 0.65782541
v 0.03599089 -0.10680000 0.65541738
v 0.04527789 -0.10680000 0.65053838
v 0.04285992 -0.10680000 0.64851838
v 0.05899990 -0.10680000 0.61258441
v 0.05899990 -0.10830000 0.61258441
v 0.05823893 -0.10830000 0.60326737
v 0.05808193 -0.10680000 0.60234040
v 0.05601693 -0.10830000 0.59418738
v 0.05539889 -0.10680000 0.59241241
v 0.05238790 -0.10830000 0.58557141
v 0.05103189 -0.10680000 0.58310139
v 0.04744393 -0.10830000 0.57763839
v 0.04511494 -0.10680000 0.57468939
v 0.04130888 -0.10830000 0.57058442
v 0.03782791 -0.10680000 0.56743240
v 0.03413690 -0.10830000 0.56458938
v 0.02939094 -0.10680000 0.56155241
v 0.02610791 -0.10830000 0.55980140
v 0.02006090 -0.10680000 0.55722541
v 0.01742292 -0.10830000 0.55634141
v 0.01012093 -0.10680000 0.55458540
v 0.00830192 -0.10830000 0.55429739
v -0.00012606 -0.10680000 0.55371040
v -0.00102900 -0.10830000 0.55371940
v -0.01036905 -0.10680000 0.55462837
v -0.01122402 -0.10830000 0.55478740
v -0.02029805 -0.10680000 0.55731142
v -0.02108000 -0.10830000 0.55760437
v -0.02960901 -0.10680000 0.56167841
v -0.03030001 -0.10830000 0.56208539
v -0.03802101 -0.10680000 0.56759542
v -0.03860603 -0.10830000 0.56809437
v -0.04527806 -0.10680000 0.57488239
v -0.04574601 -0.10830000 0.57545042
v -0.05115806 -0.10680000 0.58331943
v -0.05150501 -0.10830000 0.58393037
v -0.05548506 -0.10680000 0.59264940
v -0.05570905 -0.10830000 0.59327942
v -0.05812500 -0.10680000 0.60258943
v -0.05823104 -0.10830000 0.60321540
v -0.05900006 -0.10680000 0.61283642
v -0.05899601 -0.10830000 0.61343843
v -0.05808204 -0.10680000 0.62307942
v -0.05797904 -0.10830000 0.62363839
v -0.05539906 -0.10680000 0.63300842
v -0.05521202 -0.10830000 0.63350940
v -0.05103206 -0.10680000 0.64231938
v -0.05077904 -0.10830000 0.64275241
v -0.04511505 -0.10680000 0.65073138
v -0.04481202 -0.10830000 0.65108842
v -0.03782802 -0.10680000 0.65798843
v -0.03749305 -0.10830000 0.65826541
v -0.02939105 -0.10680000 0.66386843
v -0.02904206 -0.10830000 0.66406739
v -0.02006101 -0.10680000 0.66819543
v -0.01971405 -0.10830000 0.66831940
v -0.01012104 -0.10680000 0.67083538
v -0.00979101 -0.10830000 0.67089242
v 0.00012593 -0.10680000 0.67171037
v 0.00042693 -0.10830000 0.67170841
v 0.01036888 -0.10680000 0.67079240
v 0.01063293 -0.10830000 0.67074442
v 0.02029788 -0.10680000 0.66810942
v 0.02051693 -0.10830000 0.66802841
v 0.02960890 -0.10680000 0.66374242
v 0.02978289 -0.10830000 0.66364139
v 0.03802091 -0.10680000 0.65782541
v 0.03814887 -0.10830000 0.65771842
v 0.04527789 -0.10680000 0.65053838
v 0.04536288 -0.10830000 0.65043539
v 0.05115790 -0.10680000 0.64210141
v 0.05120789 -0.10830000 0.64201438
v 0.05548489 -0.10680000 0.63277137
v 0.05550789 -0.10830000 0.63270837
v 0.05812489 -0.10680000 0.62283140
v 0.05813091 -0.10830000 0.62279838
v 0.05899990 -0.10680000 0.61258441
v 0.05899990 -0.10830000 0.61258441
v -0.07181799 -0.09549999 0.01244037
v -0.07288497 -0.09549999 -0.00021960
v -0.07286697 -0.09649997 -0.00021960
v -0.07179999 -0.09649997 0.01243739
v -0.06856799 -0.09549999 0.02472238
v -0.06855201 -0.09649997 0.02471636
v -0.06323498 -0.09549999 0.03625339
v -0.06321996 -0.09649997 0.03624533
v -0.05598098 -0.09549999 0.04668337
v -0.05596798 -0.09649997 0.04667234
v -0.04702597 -0.09549999 0.05569535
v -0.04701399 -0.09649997 0.05568236
v -0.03664201 -0.09549999 0.06301540
v -0.03663301 -0.09649997 0.06300038
v -0.02514398 -0.09549999 0.06842136
v -0.02513797 -0.09649997 0.06840437
v -0.01288301 -0.09549999 0.07174837
v -0.01287997 -0.09649997 0.07173138
v -0.00023002 -0.09549999 0.07289540
v -0.00023002 -0.09649997 0.07287740
v 0.01242994 -0.09549999 0.07182836
v 0.01242696 -0.09649997 0.07181036
v 0.02471196 -0.09549999 0.06857836
v 0.02470594 -0.09649997 0.06856238
v 0.03624295 -0.09549999 0.06324535
v 0.03623497 -0.09649997 0.06323039
v 0.04667294 -0.09549999 0.05599136
v 0.04666197 -0.09649997 0.05597835
v 0.05568498 -0.09549999 0.04703634
v 0.05567198 -0.09649997 0.04702437
v 0.06300497 -0.09549999 0.03665238
v 0.06298995 -0.09649997 0.03664338
v 0.06841099 -0.09549999 0.02515436
v 0.06839394 -0.09649997 0.02514840
v 0.07173794 -0.09549999 0.01289338
v 0.07172095 -0.09649997 0.01289040
v 0.07288497 -0.09549999 0.00024041
v 0.07286697 -0.09649997 0.00024041
v 0.07181799 -0.09549999 -0.01241957
v 0.07179999 -0.09649997 -0.01241659
v 0.06856799 -0.09549999 -0.02470158
v 0.06855195 -0.09649997 -0.02469556
v 0.06323498 -0.09549999 -0.03623259
v 0.06321996 -0.09649997 -0.03622454
v 0.05598098 -0.09549999 -0.04666256
v 0.05596798 -0.09649997 -0.04665160
v 0.04702597 -0.09549999 -0.05567455
v 0.04701393 -0.09649997 -0.05566155
v 0.03664196 -0.09549999 -0.06299459
v 0.03663296 -0.09649997 -0.06297957
v 0.02514398 -0.09549999 -0.06840056
v 0.02513797 -0.09649997 -0.06838357
v 0.01288295 -0.09549999 -0.07172757
v 0.01287997 -0.09649997 -0.07170957
v 0.00023000 -0.09549999 -0.07287460
v 0.00023000 -0.09649997 -0.07285660
v -0.01243000 -0.09549999 -0.07180756
v -0.01242696 -0.09649997 -0.07178956
v -0.02471196 -0.09549999 -0.06855756
v -0.02470599 -0.09649997 -0.06854158
v -0.03624295 -0.09549999 -0.06322455
v -0.03623497 -0.09649997 -0.06320959
v -0.04666197 -0.09649997 -0.05595755
v -0.04667298 -0.09549999 -0.05597054
v -0.05568498 -0.09549999 -0.04701554
v -0.05567198 -0.09649997 -0.04700356
v -0.06300497 -0.09549999 -0.03663158
v -0.06299000 -0.09649997 -0.03662258
v -0.06841099 -0.09549999 -0.02513356
v -0.06839400 -0.09649997 -0.02512759
v -0.07172101 -0.09649997 -0.01286960
v -0.07173800 -0.09549999 -0.01287258
v -0.07288497 -0.09549999 -0.00021960
v -0.07286697 -0.09649997 -0.00021960
v -0.07104396 -0.08849996 0.01230638
v -0.07209098 -0.08950001 -0.00021761
v -0.07209998 -0.08849996 -0.00021761
v -0.07103496 -0.08950001 0.01230435
v -0.06782901 -0.08849996 0.02445637
v -0.06782096 -0.08950001 0.02445333
v -0.06255400 -0.08849996 0.03586338
v -0.06254601 -0.08950001 0.03585839
v -0.05537796 -0.08849996 0.04618036
v -0.05537098 -0.08950001 0.04617536
v -0.04651899 -0.08849996 0.05509537
v -0.04651297 -0.08950001 0.05508935
v -0.03624701 -0.08849996 0.06233638
v -0.03624200 -0.08950001 0.06232934
v -0.02487295 -0.08849996 0.06768441
v -0.02486997 -0.08950001 0.06767541
v -0.01274401 -0.08849996 0.07097536
v -0.01274300 -0.08950001 0.07096636
v -0.00022802 -0.08849996 0.07211041
v -0.00022802 -0.08950001 0.07210141
v 0.01229595 -0.08849996 0.07105439
v 0.01229398 -0.08950001 0.07104539
v 0.02444594 -0.08849996 0.06783938
v 0.02444297 -0.08950001 0.06783139
v 0.03585296 -0.08849996 0.06256437
v 0.03584795 -0.08950001 0.06255638
v 0.04616993 -0.08849996 0.05538839
v 0.04616497 -0.08950001 0.05538135
v 0.05508494 -0.08849996 0.04652935
v 0.05507898 -0.08950001 0.04652339
v 0.06232595 -0.08849996 0.03625738
v 0.06231898 -0.08950001 0.03625237
v 0.06767398 -0.08849996 0.02488339
v 0.06766498 -0.08950001 0.02488035
v 0.07096499 -0.08849996 0.01275439
v 0.07095599 -0.08950001 0.01275337
v 0.07209998 -0.08849996 0.00023841
v 0.07209098 -0.08950001 0.00023841
v 0.07104396 -0.08849996 -0.01228558
v 0.07103496 -0.08950001 -0.01228355
v 0.06782895 -0.08849996 -0.02443556
v 0.06782096 -0.08950001 -0.02443258
v 0.06255400 -0.08849996 -0.03584259
v 0.06254595 -0.08950001 -0.03583759
v 0.05537796 -0.08849996 -0.04615956
v 0.05537098 -0.08950001 -0.04615455
v 0.04651899 -0.08849996 -0.05507457
v 0.04651297 -0.08950001 -0.05506855
v 0.03624696 -0.08849996 -0.06231558
v 0.03624194 -0.08950001 -0.06230853
v 0.02487295 -0.08849996 -0.06766360
v 0.02486997 -0.08950001 -0.06765460
v 0.01274395 -0.08849996 -0.07095456
v 0.01274294 -0.08950001 -0.07094556
v 0.00022800 -0.08849996 -0.07208961
v 0.00022800 -0.08950001 -0.07208061
v -0.01229595 -0.08849996 -0.07103359
v -0.01229398 -0.08950001 -0.07102459
v -0.02444601 -0.08849996 -0.06781858
v -0.02444297 -0.08950001 -0.06781059
v -0.03585296 -0.08849996 -0.06254357
v -0.03584795 -0.08950001 -0.06253558
v -0.04616999 -0.08849996 -0.05536759
v -0.04616497 -0.08950001 -0.05536055
v -0.05508500 -0.08849996 -0.04650855
v -0.05507898 -0.08950001 -0.04650259
v -0.06232601 -0.08849996 -0.03623658
v -0.06231898 -0.08950001 -0.03623157
v -0.06767398 -0.08849996 -0.02486259
v -0.06766498 -0.08950001 -0.02485955
v -0.07096499 -0.08849996 -0.01273358
v -0.07095599 -0.08950001 -0.01273257
v -0.07209998 -0.08849996 -0.00021761
v -0.07209098 -0.08950001 -0.00021761
v 0.04616993 -0.08849996 0.05538839
v 0.04866796 -0.08849996 0.05838334
v 0.05806493 -0.08849996 0.04904538
v 0.05508494 -0.08849996 0.04652935
v 0.06232595 -0.08849996 0.03625738
v 0.06569796 -0.08849996 0.03821838
v 0.03585296 -0.08849996 0.06256437
v 0.03779195 -0.08849996 0.06594836
v 0.06767398 -0.08849996 0.02488339
v 0.07133394 -0.08849996 0.02622939
v 0.02444594 -0.08849996 0.06783938
v 0.02576797 -0.08849996 0.07150840
v 0.07096499 -0.08849996 0.01275439
v 0.07480299 -0.08849996 0.01344336
v 0.01229595 -0.08849996 0.07105439
v 0.01296096 -0.08849996 0.07489740
v 0.07209998 -0.08849996 0.00023841
v 0.07599997 -0.08849996 0.00025041
v -0.00022802 -0.08849996 0.07211041
v -0.00024002 -0.08849996 0.07601040
v 0.07104396 -0.08849996 -0.01228558
v 0.07488697 -0.08849996 -0.01295058
v -0.01274401 -0.08849996 0.07097536
v -0.01343298 -0.08849996 0.07481336
v 0.06782895 -0.08849996 -0.02443556
v 0.07149797 -0.08849996 -0.02575754
v -0.02487295 -0.08849996 0.06768441
v -0.02621902 -0.08849996 0.07134437
v 0.06255400 -0.08849996 -0.03584259
v 0.06593799 -0.08849996 -0.03778158
v -0.03624701 -0.08849996 0.06233638
v -0.03820801 -0.08849996 0.06570839
v 0.05537796 -0.08849996 -0.04615956
v 0.05837297 -0.08849996 -0.04865758
v -0.04651899 -0.08849996 0.05509537
v -0.04903501 -0.08849996 0.05807536
v 0.04903495 -0.08849996 -0.05805456
v 0.04651899 -0.08849996 -0.05507457
v -0.05837297 -0.08849996 0.04867839
v -0.05537796 -0.08849996 0.04618036
v 0.03820795 -0.08849996 -0.06568759
v 0.03624696 -0.08849996 -0.06231558
v -0.06593799 -0.08849996 0.03780238
v -0.06255400 -0.08849996 0.03586338
v 0.02621896 -0.08849996 -0.07132357
v 0.02487295 -0.08849996 -0.06766360
v -0.07149797 -0.08849996 0.02577834
v -0.06782901 -0.08849996 0.02445637
v 0.01343298 -0.08849996 -0.07479256
v 0.01274395 -0.08849996 -0.07095456
v -0.07488697 -0.08849996 0.01297139
v -0.07104396 -0.08849996 0.01230638
v 0.00024000 -0.08849996 -0.07598960
v 0.00022800 -0.08849996 -0.07208961
v -0.07599997 -0.08849996 -0.00022960
v -0.07209998 -0.08849996 -0.00021761
v -0.01296096 -0.08849996 -0.07487660
v -0.01229595 -0.08849996 -0.07103359
v -0.07480299 -0.08849996 -0.01342255
v -0.07096499 -0.08849996 -0.01273358
v -0.02576797 -0.08849996 -0.07148760
v -0.02444601 -0.08849996 -0.06781858
v -0.07133400 -0.08849996 -0.02620858
v -0.06767398 -0.08849996 -0.02486259
v -0.03779195 -0.08849996 -0.06592756
v -0.03585296 -0.08849996 -0.06254357
v -0.06569796 -0.08849996 -0.03819758
v -0.06232601 -0.08849996 -0.03623658
v -0.04866796 -0.08849996 -0.05836260
v -0.04616999 -0.08849996 -0.05536759
v -0.05806499 -0.08849996 -0.04902458
v -0.05508500 -0.08849996 -0.04650855
v -0.07488697 -0.08849996 0.01297139
v -0.07599997 -0.08849996 -0.00022960
v -0.07599997 -0.08950001 -0.00022960
v -0.07488697 -0.08950001 0.01297139
v -0.07149797 -0.08849996 0.02577834
v -0.07149797 -0.08950001 0.02577834
v -0.06593799 -0.08849996 0.03780238
v -0.06593799 -0.08950001 0.03780238
v -0.05837297 -0.08849996 0.04867839
v -0.05837297 -0.08950001 0.04867839
v -0.04903501 -0.08849996 0.05807536
v -0.04903501 -0.08950001 0.05807536
v -0.03820801 -0.08849996 0.06570839
v -0.03820801 -0.08950001 0.06570839
v -0.02621902 -0.08849996 0.07134437
v -0.02621902 -0.08950001 0.07134437
v -0.01343298 -0.08849996 0.07481336
v -0.01343298 -0.08950001 0.07481336
v -0.00024002 -0.08849996 0.07601040
v -0.00024002 -0.08950001 0.07601040
v 0.01296096 -0.08849996 0.07489740
v 0.01296096 -0.08950001 0.07489740
v 0.02576797 -0.08849996 0.07150840
v 0.02576797 -0.08950001 0.07150840
v 0.03779195 -0.08849996 0.06594836
v 0.03779195 -0.08950001 0.06594836
v 0.04866796 -0.08849996 0.05838334
v 0.04866796 -0.08950001 0.05838334
v 0.05806493 -0.08849996 0.04904538
v 0.05806493 -0.08950001 0.04904538
v 0.06569796 -0.08849996 0.03821838
v 0.06569796 -0.08950001 0.03821838
v 0.07133394 -0.08849996 0.02622939
v 0.07133394 -0.08950001 0.02622939
v 0.07480299 -0.08849996 0.01344336
v 0.07480299 -0.08950001 0.01344336
v 0.07599997 -0.08849996 0.00025041
v 0.07599997 -0.08950001 0.00025041
v 0.07488697 -0.08849996 -0.01295058
v 0.07488697 -0.08950001 -0.01295058
v 0.07149797 -0.08849996 -0.02575754
v 0.07149797 -0.08950001 -0.02575754
v 0.06593799 -0.08849996 -0.03778158
v 0.06593799 -0.08950001 -0.03778158
v 0.05837297 -0.08849996 -0.04865758
v 0.05837297 -0.08950001 -0.04865758
v 0.04903495 -0.08849996 -0.05805456
v 0.04903495 -0.08950001 -0.05805456
v 0.03820795 -0.08849996 -0.06568759
v 0.03820795 -0.08950001 -0.06568759
v 0.02621896 -0.08849996 -0.07132357
v 0.02621896 -0.08950001 -0.07132357
v 0.01343298 -0.08849996 -0.07479256
v 0.01343298 -0.08950001 -0.07479256
v 0.00024000 -0.08849996 -0.07598960
v 0.00024000 -0.08950001 -0.07598960
v -0.01296096 -0.08849996 -0.07487660
v -0.01296096 -0.08950001 -0.07487660
v -0.02576797 -0.08849996 -0.07148760
v -0.02576797 -0.08950001 -0.07148760
v -0.03779195 -0.08849996 -0.06592756
v -0.03779195 -0.08950001 -0.06592756
v -0.04866796 -0.08849996 -0.05836260
v -0.04866796 -0.08950001 -0.05836260
v -0.05806499 -0.08849996 -0.04902458
v -0.05806499 -0.08950001 -0.04902458
v -0.06569796 -0.08849996 -0.03819758
v -0.06569796 -0.08950001 -0.03819758
v -0.07133400 -0.08849996 -0.02620858
v -0.07133400 -0.08950001 -0.02620858
v -0.07480299 -0.08849996 -0.01342255
v -0.07480299 -0.08950001 -0.01342255
v -0.07599997 -0.08849996 -0.00022960
v -0.07599997 -0.08950001 -0.00022960
v -0.05266201 -0.08950001 0.05411136
v -0.04903501 -0.08950001 0.05807536
v -0.05837297 -0.08950001 0.04867839
v -0.06125700 -0.08950001 0.04414533
v -0.04246699 -0.08950001 0.06243437
v -0.03820801 -0.08950001 0.06570839
v -0.06593799 -0.08950001 0.03780238
v -0.06799000 -0.08950001 0.03283738
v -0.03098196 -0.08950001 0.06886041
v -0.02621902 -0.08950001 0.07134437
v -0.07149797 -0.08950001 0.02577834
v -0.07265698 -0.08950001 0.02053235
v -0.01855600 -0.08950001 0.07319438
v -0.01343298 -0.08950001 0.07481336
v -0.07488697 -0.08950001 0.01297139
v -0.07511699 -0.08950001 0.00760435
v -0.00556601 -0.08950001 0.07530540
v -0.00024002 -0.08950001 0.07601040
v -0.07599997 -0.08950001 -0.00022960
v -0.07529497 -0.08950001 -0.00555558
v 0.00759398 -0.08950001 0.07512736
v 0.01296096 -0.08950001 0.07489740
v -0.07480299 -0.08950001 -0.01342255
v -0.07318401 -0.08950001 -0.01854557
v 0.02052192 -0.08950001 0.07266736
v 0.02576797 -0.08950001 0.07150840
v -0.07133400 -0.08950001 -0.02620858
v -0.06884998 -0.08950001 -0.03097158
v 0.03282695 -0.08950001 0.06800037
v 0.03779195 -0.08950001 0.06594836
v -0.06569796 -0.08950001 -0.03819758
v -0.06242400 -0.08950001 -0.04245656
v 0.04413497 -0.08950001 0.06126737
v 0.04866796 -0.08950001 0.05838334
v -0.05806499 -0.08950001 -0.04902458
v -0.05410099 -0.08950001 -0.05265158
v 0.05410099 -0.08950001 0.05267238
v 0.05806493 -0.08950001 0.04904538
v -0.04866796 -0.08950001 -0.05836260
v -0.04413497 -0.08950001 -0.06124657
v 0.06242394 -0.08950001 0.04247737
v 0.06569796 -0.08950001 0.03821838
v -0.03779195 -0.08950001 -0.06592756
v -0.03282695 -0.08950001 -0.06797957
v 0.06884998 -0.08950001 0.03099238
v 0.07133394 -0.08950001 0.02622939
v -0.02576797 -0.08950001 -0.07148760
v -0.02052198 -0.08950001 -0.07264655
v 0.07318395 -0.08950001 0.01856638
v 0.07480299 -0.08950001 0.01344336
v -0.00759398 -0.08950001 -0.07510656
v -0.01296096 -0.08950001 -0.07487660
v 0.07529497 -0.08950001 0.00557638
v 0.07599997 -0.08950001 0.00025041
v 0.00556595 -0.08950001 -0.07528460
v 0.00024000 -0.08950001 -0.07598960
v 0.07511699 -0.08950001 -0.00758355
v 0.07488697 -0.08950001 -0.01295058
v 0.01855594 -0.08950001 -0.07317358
v 0.01343298 -0.08950001 -0.07479256
v 0.07265698 -0.08950001 -0.02051155
v 0.07149797 -0.08950001 -0.02575754
v 0.03098196 -0.08950001 -0.06883960
v 0.02621896 -0.08950001 -0.07132357
v 0.06798994 -0.08950001 -0.03281657
v 0.06593799 -0.08950001 -0.03778158
v 0.03820795 -0.08950001 -0.06568759
v 0.04246693 -0.08950001 -0.06241357
v 0.06125695 -0.08950001 -0.04412460
v 0.05837297 -0.08950001 -0.04865758
v 0.05266196 -0.08950001 -0.05409054
v 0.04903495 -0.08950001 -0.05805456
f 1 2 3
f 1 3 4
f 5 3 6
f 5 4 3
f 7 8 2
f 7 2 1
f 9 6 10
f 9 5 6
f 11 12 8
f 11 8 7
f 13 10 14
f 13 9 10
f 15 16 12
f 15 12 11
f 17 14 18
f 17 13 14
f 19 20 16
f 19 16 15
f 21 17 18
f 21 18 22
f 23 20 19
f 23 24 20
f 25 21 22
f 25 22 26
f 27 28 24
f 27 24 23
f 29 25 26
f 29 26 30
f 31 32 28
f 31 28 27
f 33 30 34
f 33 29 30
f 35 36 32
f 35 32 31
f 37 33 34
f 37 38 33
f 39 36 35
f 39 35 40
f 41 38 37
f 41 42 38
f 43 39 40
f 43 40 44
f 45 42 41
f 45 46 42
f 47 43 44
f 47 44 48
f 49 46 45
f 49 50 46
f 51 48 52
f 51 47 48
f 53 50 49
f 53 54 50
f 55 52 56
f 55 51 52
f 57 54 53
f 57 58 54
f 59 56 60
f 59 55 56
f 61 58 57
f 61 62 58
f 63 60 64
f 63 59 60
f 65 66 62
f 65 62 61
f 67 64 68
f 67 63 64
f 69 66 65
f 69 70 66
f 71 70 69
f 71 72 70
f 71 68 72
f 71 67 68
f 73 74 75
f 73 75 76
f 77 76 78
f 77 73 76
f 79 78 80
f 79 77 78
f 81 80 82
f 81 79 80
f 83 82 84
f 83 81 82
f 85 83 84
f 85 84 86
f 87 85 86
f 87 86 88
f 89 87 88
f 89 88 90
f 91 89 90
f 91 90 92
f 93 91 92
f 93 92 94
f 95 93 94
f 95 94 96
f 97 95 96
f 97 96 98
f 99 97 98
f 99 98 100
f 101 99 100
f 101 100 102
f 103 101 102
f 103 102 104
f 105 103 104
f 105 104 106
f 107 105 106
f 107 106 108
f 109 107 108
f 109 108 110
f 111 109 110
f 111 110 112
f 113 111 112
f 113 112 114
f 115 114 116
f 115 113 114
f 117 116 118
f 117 115 116
f 119 118 120
f 119 117 118
f 121 120 122
f 121 119 120
f 123 122 124
f 123 121 122
f 125 124 126
f 125 123 124
f 127 126 128
f 127 125 126
f 129 128 130
f 129 127 128
f 131 130 132
f 131 129 130
f 133 132 134
f 133 131 132
f 135 133 134
f 135 134 136
f 137 135 136
f 137 136 138
f 139 137 138
f 139 138 140
f 141 139 140
f 141 140 142
f 143 141 142
f 143 142 144
f 145 143 144
f 145 144 146
f 147 148 149
f 147 150 148
f 151 152 148
f 151 148 150
f 153 149 154
f 153 147 149
f 155 156 152
f 155 152 151
f 157 154 158
f 157 153 154
f 159 160 156
f 159 156 155
f 161 158 162
f 161 157 158
f 163 164 160
f 163 160 159
f 165 162 166
f 165 161 162
f 167 164 163
f 167 168 164
f 169 165 166
f 169 166 170
f 171 172 168
f 171 168 167
f 173 169 170
f 173 170 174
f 175 176 172
f 175 172 171
f 177 173 174
f 177 174 178
f 179 180 176
f 179 176 175
f 181 177 178
f 181 178 182
f 183 180 179
f 183 179 184
f 185 181 182
f 185 186 181
f 187 184 188
f 187 183 184
f 189 186 185
f 189 190 186
f 191 188 192
f 191 187 188
f 193 190 189
f 193 194 190
f 195 191 192
f 195 192 196
f 197 194 193
f 197 198 194
f 199 196 200
f 199 195 196
f 201 202 198
f 201 198 197
f 203 200 204
f 203 199 200
f 205 206 202
f 205 202 201
f 207 204 208
f 207 203 204
f 209 206 205
f 209 210 206
f 211 208 212
f 211 207 208
f 213 210 209
f 213 214 210
f 215 211 212
f 215 212 216
f 217 215 216
f 217 216 218
f 217 218 214
f 217 214 213
f 219 220 221
f 219 221 222
f 223 222 224
f 223 219 222
f 225 224 226
f 225 223 224
f 227 226 228
f 227 225 226
f 229 228 230
f 229 227 228
f 231 230 232
f 231 229 230
f 233 231 232
f 233 232 234
f 235 233 234
f 235 234 236
f 237 235 236
f 237 236 238
f 239 237 238
f 239 238 240
f 241 239 240
f 241 240 242
f 243 241 242
f 243 242 244
f 245 243 244
f 245 244 246
f 247 245 246
f 247 246 248
f 249 247 248
f 249 248 250
f 251 249 250
f 251 250 252
f 253 251 252
f 253 252 254
f 255 253 254
f 255 254 256
f 257 255 256
f 257 256 258
f 259 257 258
f 259 258 260
f 261 260 262
f 261 259 260
f 263 262 264
f 263 261 262
f 265 264 266
f 265 263 264
f 267 266 268
f 267 265 266
f 269 268 270
f 269 267 268
f 271 270 272
f 271 269 270
f 273 272 274
f 273 271 272
f 275 274 276
f 275 273 274
f 277 275 276
f 278 275 277
f 279 277 280
f 279 278 277
f 281 280 282
f 281 279 280
f 283 281 282
f 283 282 284
f 285 283 284
f 285 284 286
f 287 285 286
f 287 286 288
f 289 287 288
f 290 287 289
f 291 290 289
f 291 289 292
f 293 294 295
f 293 296 294
f 297 298 294
f 297 294 296
f 299 295 300
f 299 293 295
f 301 302 298
f 301 298 297
f 303 300 304
f 303 299 300
f 305 306 302
f 305 302 301
f 307 304 308
f 307 303 304
f 309 310 306
f 309 306 305
f 311 308 312
f 311 307 308
f 313 314 310
f 313 310 309
f 315 311 312
f 315 312 316
f 317 314 313
f 317 318 314
f 319 315 316
f 319 316 320
f 321 322 318
f 321 318 317
f 323 320 324
f 323 319 320
f 325 326 322
f 325 322 321
f 327 324 328
f 327 323 324
f 329 326 325
f 329 325 330
f 331 327 328
f 331 332 327
f 333 329 330
f 333 330 334
f 335 332 331
f 335 336 332
f 337 334 338
f 337 333 334
f 339 336 335
f 339 340 336
f 341 338 342
f 341 337 338
f 343 340 339
f 343 344 340
f 345 342 346
f 345 341 342
f 347 348 344
f 347 344 343
f 349 346 350
f 349 345 346
f 351 352 348
f 351 348 347
f 353 349 350
f 353 350 354
f 355 356 352
f 355 352 351
f 357 353 354
f 357 354 358
f 359 356 355
f 359 360 356
f 361 357 358
f 361 358 362
f 363 360 359
f 363 362 364
f 363 364 360
f 363 361 362
f 365 366 367
f 365 368 366
f 369 370 368
f 369 368 365
f 371 372 370
f 371 370 369
f 373 374 372
f 373 372 371
f 375 376 374
f 375 374 373
f 377 378 376
f 377 376 375
f 379 378 377
f 379 380 378
f 381 380 379
f 381 382 380
f 383 382 381
f 383 384 382
f 385 384 383
f 385 386 384
f 387 386 385
f 387 388 386
f 389 388 387
f 389 390 388
f 391 390 389
f 391 392 390
f 393 392 391
f 393 394 392
f 395 394 393
f 395 396 394
f 397 396 395
f 397 398 396
f 399 398 397
f 399 400 398
f 401 400 399
f 401 402 400
f 403 402 401
f 403 404 402
f 405 404 403
f 405 406 404
f 407 408 406
f 407 406 405
f 409 410 408
f 409 408 407
f 411 412 410
f 411 410 409
f 413 414 412
f 413 412 411
f 415 416 414
f 415 414 413
f 417 418 416
f 417 416 415
f 419 420 418
f 419 418 417
f 421 422 420
f 421 420 419
f 423 424 422
f 423 422 421
f 425 426 424
f 425 424 423
f 427 428 426
f 427 426 425
f 429 428 427
f 429 430 428
f 431 430 429
f 432 431 429
f 433 431 432
f 433 434 431
f 435 434 433
f 435 436 434
f 437 436 435
f 437 438 436
f 439 440 441
f 439 441 442
f 443 441 444
f 443 442 441
f 445 446 440
f 445 440 439
f 447 444 448
f 447 443 444
f 449 450 446
f 449 446 445
f 451 448 452
f 451 447 448
f 453 454 450
f 453 450 449
f 455 452 456
f 455 451 452
f 457 458 454
f 457 454 453
f 459 455 456
f 459 456 460
f 461 458 457
f 461 462 458
f 463 460 464
f 463 459 460
f 465 462 461
f 465 466 462
f 467 463 464
f 467 464 468
f 469 470 466
f 469 466 465
f 471 467 468
f 471 468 472
f 473 474 470
f 473 470 469
f 475 471 472
f 475 476 471
f 477 474 473
f 477 473 478
f 479 476 475
f 479 480 476
f 481 478 482
f 481 477 478
f 483 480 479
f 483 484 480
f 485 482 486
f 485 481 482
f 487 484 483
f 487 488 484
f 489 486 490
f 489 485 486
f 491 488 487
f 491 492 488
f 493 490 494
f 493 489 490
f 495 492 491
f 495 496 492
f 497 493 494
f 497 494 498
f 499 500 496
f 499 496 495
f 501 498 502
f 501 497 498
f 503 504 500
f 503 500 499
f 505 502 506
f 505 501 502
f 507 504 503
f 507 508 504
f 509 508 507
f 509 510 508
f 509 506 510
f 509 505 506
f 511 512 513
f 511 513 514
f 515 514 516
f 515 511 514
f 517 516 518
f 517 515 516
f 519 518 520
f 519 517 518
f 521 520 522
f 521 519 520
f 523 521 522
f 523 522 524
f 525 523 524
f 525 524 526
f 527 525 526
f 527 526 528
f 529 527 528
f 529 528 530
f 531 529 530
f 531 530 532
f 533 531 532
f 533 532 534
f 535 533 534
f 535 534 536
f 537 535 536
f 537 536 538
f 539 537 538
f 539 538 540
f 541 539 540
f 541 540 542
f 543 541 542
f 543 542 544
f 545 543 544
f 545 544 546
f 547 545 546
f 547 546 548
f 549 547 548
f 549 548 550
f 551 549 550
f 551 550 552
f 553 552 554
f 553 551 552
f 555 554 556
f 555 553 554
f 557 556 558
f 557 555 556
f 559 558 560
f 559 557 558
f 561 560 562
f 561 559 560
f 563 562 564
f 563 561 562
f 565 563 564
f 565 564 566
f 567 566 568
f 567 565 566
f 569 568 570
f 569 567 568
f 571 570 572
f 571 569 570
f 573 572 574
f 573 571 572
f 575 573 574
f 575 574 576
f 577 575 576
f 577 576 578
f 579 577 578
f 579 578 580
f 581 579 580
f 581 580 582
f 583 581 582
f 583 582 584
f 585 586 587
f 585 588 586
f 589 590 586
f 589 586 588
f 591 587 592
f 591 585 587
f 593 594 590
f 593 590 589
f 595 592 596
f 595 591 592
f 597 598 594
f 597 594 593
f 599 596 600
f 599 595 596
f 601 602 598
f 601 598 597
f 603 600 604
f 603 599 600
f 605 602 601
f 605 606 602
f 607 603 604
f 607 604 608
f 609 606 605
f 609 610 606
f 611 607 608
f 611 608 612
f 613 614 610
f 613 610 609
f 615 611 612
f 615 612 616
f 617 618 614
f 617 614 613
f 619 615 616
f 619 616 620
f 621 618 617
f 621 617 622
f 623 619 620
f 623 624 619
f 625 622 626
f 625 621 622
f 627 624 623
f 627 628 624
f 629 626 630
f 629 625 626
f 631 628 627
f 631 632 628
f 633 629 630
f 633 630 634
f 635 636 632
f 635 632 631
f 637 634 638
f 637 633 634
f 639 640 636
f 639 636 635
f 641 637 638
f 641 638 642
f 643 644 640
f 643 640 639
f 645 642 646
f 645 641 642
f 647 648 644
f 647 644 643
f 649 645 646
f 649 646 650
f 651 648 647
f 651 652 648
f 653 649 650
f 653 650 654
f 655 652 651
f 655 653 654
f 655 654 656
f 655 656 652
f 657 658 659
f 657 659 660
f 661 660 662
f 661 657 660
f 663 662 664
f 663 661 662
f 665 664 666
f 665 663 664
f 667 666 668
f 667 665 666
f 669 668 670
f 669 667 668
f 671 669 670
f 671 670 672
f 673 671 672
f 673 672 674
f 675 673 674
f 675 674 676
f 677 675 676
f 677 676 678
f 679 677 678
f 679 678 680
f 681 679 680
f 681 680 682
f 683 681 682
f 683 682 684
f 685 683 684
f 685 684 686
f 687 685 686
f 687 686 688
f 689 687 688
f 689 688 690
f 691 689 690
f 691 690 692
f 693 691 692
f 693 692 694
f 695 693 694
f 695 694 696
f 697 695 696
f 697 696 698
f 699 698 700
f 699 697 698
f 701 700 702
f 701 699 700
f 703 702 704
f 703 701 702
f 705 704 706
f 705 703 704
f 707 706 708
f 707 705 706
f 709 708 710
f 709 707 708
f 711 710 712
f 711 709 710
f 713 712 714
f 713 711 712
f 715 714 716
f 715 713 714
f 717 715 716
f 718 715 717
f 719 718 717
f 719 717 720
f 721 719 720
f 722 719 721
f 723 722 721
f 723 721 724
f 725 723 724
f 725 724 726
f 727 725 726
f 727 726 728
f 729 727 728
f 729 728 730
f 731 732 733
f 731 734 732
f 735 736 732
f 735 732 734
f 737 733 738
f 737 731 733
f 739 740 736
f 739 736 735
f 741 738 742
f 741 737 738
f 743 744 740
f 743 740 739
f 745 742 746
f 745 741 742
f 747 748 744
f 747 744 743
f 749 746 750
f 749 745 746
f 751 752 748
f 751 748 747
f 753 749 750
f 753 750 754
f 755 752 751
f 755 756 752
f 757 753 754
f 757 754 758
f 759 760 756
f 759 756 755
f 761 758 762
f 761 757 758
f 763 764 760
f 763 760 759
f 765 761 762
f 765 762 766
f 767 764 763
f 767 763 768
f 769 765 766
f 769 770 765
f 771 768 772
f 771 767 768
f 773 770 769
f 773 774 770
f 775 771 772
f 775 772 776
f 777 774 773
f 777 778 774
f 779 775 776
f 779 776 780
f 781 778 777
f 781 782 778
f 783 780 784
f 783 779 780
f 785 786 782
f 785 782 781
f 787 783 784
f 788 783 787
f 789 790 786
f 789 786 785
f 791 787 792
f 791 788 787
f 793 794 790
f 793 790 789
f 795 791 792
f 795 792 796
f 797 794 793
f 797 798 794
f 799 795 796
f 799 796 800
f 801 798 797
f 801 799 800
f 801 800 802
f 801 802 798
f 803 804 805
f 803 806 804
f 807 808 806
f 807 806 803
f 809 810 808
f 809 808 807
f 811 812 810
f 811 810 809
f 813 814 812
f 813 812 811
f 815 816 814
f 815 814 813
f 817 816 815
f 817 818 816
f 819 818 817
f 819 820 818
f 821 820 819
f 821 822 820
f 823 822 821
f 823 824 822
f 825 824 823
f 825 826 824
f 827 826 825
f 827 828 826
f 829 828 827
f 829 830 828
f 831 830 829
f 831 832 830
f 833 832 831
f 833 834 832
f 835 834 833
f 835 836 834
f 837 836 835
f 837 838 836
f 839 838 837
f 839 840 838
f 841 840 839
f 841 842 840
f 843 842 841
f 843 844 842
f 845 846 844
f 845 844 843
f 847 848 846
f 847 846 845
f 849 850 848
f 849 848 847
f 851 852 850
f 851 850 849
f 853 854 852
f 853 852 851
f 855 856 854
f 855 854 853
f 857 858 856
f 857 856 855
f 859 860 858
f 859 858 857
f 861 862 860
f 861 860 859
f 863 864 862
f 863 862 861
f 865 866 864
f 865 864 863
f 867 866 865
f 867 868 866
f 869 868 867
f 869 870 868
f 871 870 869
f 872 871 869
f 873 871 872
f 873 874 871
f 875 874 873
f 875 804 874
f 876 877 878
f 876 878 879
f 880 879 881
f 880 876 879
f 882 881 883
f 882 880 881
f 884 883 885
f 884 882 883
f 886 885 887
f 886 884 885
f 888 887 889
f 888 886 887
f 890 888 889
f 890 889 891
f 892 890 891
f 892 891 893
f 894 892 893
f 894 893 895
f 896 894 895
f 896 895 897
f 898 896 897
f 898 897 899
f 900 898 899
f 900 899 901
f 902 900 901
f 902 901 903
f 904 902 903
f 904 903 905
f 906 904 905
f 906 905 907
f 908 906 907
f 908 907 909
f 910 908 909
f 910 909 911
f 912 910 911
f 912 911 913
f 914 912 913
f 914 913 915
f 916 915 917
f 916 914 915
f 918 917 919
f 918 916 917
f 920 919 921
f 920 918 919
f 922 921 923
f 922 920 921
f 924 923 925
f 924 922 923
f 926 925 927
f 926 924 925
f 928 927 929
f 928 926 927
f 930 929 931
f 930 928 929
f 932 931 933
f 932 930 931
f 934 933 935
f 934 932 933
f 936 935 937
f 936 934 935
f 938 937 939
f 938 936 937
f 940 938 939
f 940 939 941
f 942 940 941
f 942 941 943
f 944 942 943
f 944 943 945
f 946 944 945
f 946 945 947
f 948 946 947
f 948 947 949
f 950 951 952
f 950 953 951
f 954 955 953
f 954 953 950
f 956 957 955
f 956 955 954
f 958 959 957
f 958 957 956
f 960 961 959
f 960 959 958
f 962 963 961
f 962 961 960
f 964 963 962
f 964 965 963
f 966 965 964
f 966 967 965
f 968 967 966
f 968 969 967
f 970 969 968
f 970 971 969
f 972 971 970
f 972 973 971
f 974 973 972
f 974 975 973
f 976 975 974
f 976 977 975
f 978 977 976
f 978 979 977
f 980 979 978
f 980 981 979
f 982 981 980
f 982 983 981
f 984 983 982
f 984 985 983
f 986 985 984
f 986 987 985
f 988 987 986
f 988 989 987
f 990 989 988
f 990 991 989
f 992 993 991
f 992 991 990
f 994 995 993
f 994 993 992
f 996 997 995
f 996 995 994
f 998 999 997
f 998 997 996
f 1000 1001 999
f 1000 999 998
f 1002 1003 1001
f 1002 1001 1000
f 1004 1005 1003
f 1004 1003 1002
f 1006 1007 1005
f 1006 1005 1004
f 1008 1007 1006
f 1009 1008 1006
f 1010 1011 1008
f 1010 1008 1009
f 1012 1013 1011
f 1012 1011 1010
f 1014 1013 1012
f 1014 1015 1013
f 1016 1015 1014
f 1016 1017 1015
f 1018 1017 1016
f 1018 1019 1017
f 1020 1019 1018
f 1020 1021 1019
f 1022 1021 1020
f 1023 1022 1020
f 1024 1025 1026
f 1024 1026 1027
f 1028 1026 1029
f 1028 1027 1026
f 1030 1031 1025
f 1030 1025 1024
f 1032 1029 1033
f 1032 1028 1029
f 1034 1035 1031
f 1034 1031 1030
f 1036 1033 1037
f 1036 1032 1033
f 1038 1039 1035
f 1038 1035 1034
f 1040 1037 1041
f 1040 1036 1037
f 1042 1043 1039
f 1042 1039 1038
f 1044 1040 1041
f 1044 1041 1045
f 1046 1043 1042
f 1046 1047 1043
f 1048 1044 1045
f 1048 1045 1049
f 1050 1051 1047
f 1050 1047 1046
f 1052 1048 1049
f 1052 1049 1053
f 1054 1055 1051
f 1054 1051 1050
f 1056 1053 1057
f 1056 1052 1053
f 1058 1059 1055
f 1058 1055 1054
f 1060 1056 1057
f 1060 1061 1056
f 1062 1059 1058
f 1062 1058 1063
f 1064 1061 1060
f 1064 1065 1061
f 1066 1063 1067
f 1066 1062 1063
f 1068 1065 1064
f 1068 1069 1065
f 1070 1067 1071
f 1070 1066 1067
f 1072 1069 1068
f 1072 1073 1069
f 1074 1071 1075
f 1074 1070 1071
f 1076 1073 1072
f 1076 1077 1073
f 1078 1075 1079
f 1078 1074 1075
f 1080 1077 1076
f 1080 1081 1077
f 1082 1079 1083
f 1082 1078 1079
f 1084 1081 1080
f 1084 1085 1081
f 1086 1083 1087
f 1086 1082 1083
f 1088 1089 1085
f 1088 1085 1084
f 1090 1087 1091
f 1090 1086 1087
f 1092 1089 1088
f 1092 1093 1089
f 1094 1093 1092
f 1094 1095 1093
f 1094 1091 1095
f 1094 1090 1091
f 1096 1097 1098
f 1099 1098 1100
f 1099 1096 1098
f 1101 1100 1102
f 1101 1099 1100
f 1103 1102 1104
f 1103 1101 1102
f 1105 1104 1106
f 1105 1103 1104
f 1107 1106 1108
f 1107 1105 1106
f 1109 1107 1108
f 1109 1108 1110
f 1111 1109 1110
f 1111 1110 1112
f 1113 1111 1112
f 1113 1112 1114
f 1115 1113 1114
f 1115 1114 1116
f 1117 1115 1116
f 1117 1116 1118
f 1119 1117 1118
f 1119 1118 1120
f 1121 1119 1120
f 1121 1120 1122
f 1123 1121 1122
f 1123 1122 1124
f 1125 1123 1124
f 1125 1124 1126
f 1127 1125 1126
f 1127 1126 1128
f 1129 1127 1128
f 1129 1128 1130
f 1131 1129 1130
f 1131 1130 1132
f 1133 1131 1132
f 1133 1132 1134
f 1135 1133 1134
f 1135 1134 1136
f 1137 1135 1136
f 1137 1136 1138
f 1139 1138 1140
f 1139 1137 1138
f 1141 1140 1142
f 1141 1139 1140
f 1143 1142 1144
f 1143 1141 1142
f 1145 1144 1146
f 1145 1143 1144
f 1147 1146 1148
f 1147 1145 1146
f 1149 1148 1150
f 1149 1147 1148
f 1151 1150 1152
f 1151 1149 1150
f 1153 1152 1154
f 1153 1151 1152
f 1155 1154 1156
f 1155 1153 1154
f 1157 1156 1158
f 1157 1155 1156
f 1159 1157 1158
f 1159 1158 1160
f 1161 1159 1160
f 1161 1160 1162
f 1163 1161 1162
f 1163 1162 1164
f 1165 1163 1164
f 1165 1164 1166
f 1167 1165 1166
f 1167 1166 1168
f 1169 1167 1168
f 1169 1168 1170
f 1171 1172 1173
f 1171 1173 1174
f 1175 1174 1176
f 1175 1171 1174
f 1177 1176 1178
f 1177 1175 1176
f 1179 1178 1180
f 1179 1177 1178
f 1181 1180 1182
f 1181 1179 1180
f 1183 1182 1184
f 1183 1181 1182
f 1185 1183 1184
f 1185 1184 1186
f 1187 1185 1186
f 1187 1186 1188
f 1189 1187 1188
f 1189 1188 1190
f 1191 1189 1190
f 1191 1190 1192
f 1193 1191 1192
f 1193 1192 1194
f 1195 1193 1194
f 1195 1194 1196
f 1197 1195 1196
f 1197 1196 1198
f 1199 1197 1198
f 1199 1198 1200
f 1201 1199 1200
f 1201 1200 1202
f 1203 1201 1202
f 1203 1202 1204
f 1205 1203 1204
f 1205 1204 1206
f 1207 1205 1206
f 1207 1206 1208
f 1209 1207 1208
f 1209 1208 1210
f 1211 1210 1212
f 1211 1209 1210
f 1213 1212 1214
f 1213 1211 1212
f 1215 1214 1216
f 1215 1213 1214
f 1217 1216 1218
f 1217 1215 1216
f 1219 1218 1220
f 1219 1217 1218
f 1221 1220 1222
f 1221 1219 1220
f 1223 1222 1224
f 1223 1221 1222
f 1225 1224 1226
f 1225 1223 1224
f 1227 1226 1228
f 1227 1225 1226
f 1229 1228 1230
f 1229 1227 1228
f 1231 1230 1232
f 1231 1229 1230
f 1233 1231 1232
f 1234 1231 1233
f 1235 1234 1233
f 1235 1233 1236
f 1237 1235 1236
f 1237 1236 1238
f 1239 1237 1238
f 1239 1238 1240
f 1241 1239 1240
f 1242 1239 1241
f 1243 1242 1241
f 1243 1241 1244
f 1245 1246 1247
f 1245 1248 1246
f 1249 1250 1248
f 1249 1248 1245
f 1251 1252 1250
f 1251 1250 1249
f 1253 1254 1252
f 1253 1252 1251
f 1255 1256 1254
f 1255 1254 1253
f 1257 1258 1256
f 1257 1256 1255
f 1259 1258 1257
f 1259 1260 1258
f 1261 1260 1259
f 1261 1262 1260
f 1263 1262 1261
f 1263 1264 1262
f 1265 1264 1263
f 1265 1266 1264
f 1267 1266 1265
f 1267 1268 1266
f 1269 1268 1267
f 1269 1270 1268
f 1271 1270 1269
f 1271 1272 1270
f 1273 1272 1271
f 1273 1274 1272
f 1275 1274 1273
f 1275 1276 1274
f 1277 1276 1275
f 1277 1278 1276
f 1279 1278 1277
f 1279 1280 1278
f 1281 1280 1279
f 1281 1282 1280
f 1283 1282 1281
f 1283 1284 1282
f 1285 1286 1284
f 1285 1284 1283
f 1287 1288 1286
f 1287 1286 1285
f 1289 1290 1288
f 1289 1288 1287
f 1291 1292 1290
f 1291 1290 1289
f 1293 1294 1292
f 1293 1292 1291
f 1295 1296 1294
f 1295 1294 1293
f 1297 1298 1296
f 1297 1296 1295
f 1299 1300 1298
f 1299 1298 1297
f 1301 1302 1300
f 1301 1300 1299
f 1303 1304 1302
f 1303 1302 1301
f 1305 1306 1304
f 1305 1304 1303
f 1307 1308 1306
f 1307 1306 1305
f 1309 1308 1307
f 1309 1310 1308
f 1311 1310 1309
f 1311 1312 1310
f 1313 1312 1311
f 1313 1314 1312
f 1315 1314 1313
f 1315 1316 1314
f 1317 1316 1315
f 1317 1318 1316
f 1319 1320 1321
f 1319 1321 1322
f 1323 1321 1324
f 1323 1322 1321
f 1325 1326 1320
f 1325 1320 1319
f 1327 1324 1328
f 1327 1323 1324
f 1329 1330 1326
f 1329 1326 1325
f 1331 1328 1332
f 1331 1327 1328
f 1333 1334 1330
f 1333 1330 1329
f 1335 1332 1336
f 1335 1331 1332
f 1337 1338 1334
f 1337 1334 1333
f 1339 1335 1336
f 1339 1336 1340
f 1341 1338 1337
f 1341 1342 1338
f 1343 1340 1344
f 1343 1339 1340
f 1345 1342 1341
f 1345 1346 1342
f 1347 1343 1344
f 1347 1344 1348
f 1349 1350 1346
f 1349 1346 1345
f 1351 1348 1352
f 1351 1347 1348
f 1353 1354 1350
f 1353 1350 1349
f 1355 1351 1352
f 1355 1356 1351
f 1357 1354 1353
f 1357 1353 1358
f 1359 1356 1355
f 1359 1360 1356
f 1361 1358 1362
f 1361 1357 1358
f 1363 1360 1359
f 1363 1364 1360
f 1365 1362 1366
f 1365 1361 1362
f 1367 1368 1364
f 1367 1364 1363
f 1369 1366 1370
f 1369 1365 1366
f 1371 1372 1368
f 1371 1368 1367
f 1373 1370 1374
f 1373 1369 1370
f 1375 1372 1371
f 1375 1376 1372
f 1377 1374 1378
f 1377 1373 1374
f 1379 1380 1376
f 1379 1376 1375
f 1381 1378 1382
f 1381 1377 1378
f 1383 1380 1379
f 1383 1384 1380
f 1385 1382 1386
f 1385 1381 1382
f 1387 1384 1383
f 1387 1388 1384
f 1389 1385 1386
f 1389 1388 1387
f 1389 1390 1388
f 1389 1386 1390
f 1391 1392 1393
f 1391 1393 1394
f 1395 1394 1396
f 1395 1391 1394
f 1397 1396 1398
f 1397 1395 1396
f 1399 1398 1400
f 1399 1397 1398
f 1401 1400 1402
f 1401 1399 1400
f 1403 1401 1402
f 1403 1402 1404
f 1405 1403 1404
f 1405 1404 1406
f 1407 1405 1406
f 1407 1406 1408
f 1409 1407 1408
f 1409 1408 1410
f 1411 1409 1410
f 1411 1410 1412
f 1413 1411 1412
f 1413 1412 1414
f 1415 1413 1414
f 1415 1414 1416
f 1417 1415 1416
f 1417 1416 1418
f 1419 1417 1418
f 1419 1418 1420
f 1421 1419 1420
f 1421 1420 1422
f 1423 1421 1422
f 1423 1422 1424
f 1425 1423 1424
f 1425 1424 1426
f 1427 1425 1426
f 1427 1426 1428
f 1429 1427 1428
f 1429 1428 1430
f 1431 1429 1430
f 1431 1430 1432
f 1433 1432 1434
f 1433 1431 1432
f 1435 1434 1436
f 1435 1433 1434
f 1437 1436 1438
f 1437 1435 1436
f 1439 1438 1440
f 1439 1437 1438
f 1441 1440 1442
f 1441 1439 1440
f 1443 1442 1444
f 1443 1441 1442
f 1445 1444 1446
f 1445 1443 1444
f 1447 1446 1448
f 1447 1445 1446
f 1449 1448 1450
f 1449 1447 1448
f 1451 1450 1452
f 1451 1449 1450
f 1453 1451 1452
f 1453 1452 1454
f 1455 1453 1454
f 1455 1454 1456
f 1457 1455 1456
f 1457 1456 1458
f 1459 1457 1458
f 1459 1458 1460
f 1461 1459 1460
f 1461 1460 1462
f 1463 1461 1462
f 1463 1462 1464
f 1465 1466 1467
f 1468 1465 1467
f 1469 1466 1465
f 1470 1466 1469
f 1471 1468 1467
f 1472 1468 1471
f 1473 1470 1469
f 1474 1470 1473
f 1475 1472 1471
f 1476 1472 1475
f 1477 1474 1473
f 1478 1474 1477
f 1479 1476 1475
f 1480 1476 1479
f 1481 1478 1477
f 1482 1478 1481
f 1483 1480 1479
f 1484 1480 1483
f 1485 1482 1481
f 1486 1482 1485
f 1487 1484 1483
f 1488 1484 1487
f 1489 1486 1485
f 1490 1486 1489
f 1491 1488 1487
f 1492 1488 1491
f 1493 1490 1489
f 1494 1490 1493
f 1495 1492 1491
f 1496 1492 1495
f 1497 1494 1493
f 1498 1494 1497
f 1499 1496 1495
f 1500 1496 1499
f 1501 1498 1497
f 1502 1498 1501
f 1503 1500 1499
f 1504 1500 1503
f 1505 1502 1501
f 1506 1502 1505
f 1507 1504 1503
f 1508 1504 1507
f 1509 1506 1505
f 1510 1506 1509
f 1511 1508 1507
f 1512 1508 1511
f 1513 1510 1509
f 1514 1510 1513
f 1515 1512 1516
f 1517 1514 1513
f 1518 1514 1517
f 1519 1515 1520
f 1521 1518 1517
f 1522 1518 1521
f 1523 1519 1524
f 1525 1522 1521
f 1526 1522 1525
f 1527 1523 1528
f 1529 1526 1525
f 1530 1526 1529
f 1531 1527 1528
f 1532 1527 1531
f 1533 1530 1529
f 1534 1533 1535
f 1534 1530 1533
f 1536 1532 1531
f 1536 1534 1535
f 1536 1535 1532
f 1528 1523 1524
f 1524 1519 1520
f 1520 1515 1516
f 1516 1512 1511

