# https://github.com/mikedh/trimesh
v -0.05438895 0.04563796 0.10601039
v -0.05532396 0.04612594 0.10601039
v -0.04647398 0.05503195 0.10601039
v -0.04563797 0.05438899 0.10601039
v -0.03621197 0.06226599 0.10601040
v -0.06148798 0.03549998 0.10601039
v -0.06249297 0.03581798 0.10601039
v -0.03549999 0.06148797 0.10601040
v -0.02484900 0.06760799 0.10601040
v -0.06671799 0.02428299 0.10601039
v -0.06776398 0.02442198 0.10601039
v -0.02428300 0.06671798 0.10601040
v -0.01273197 0.07089596 0.10601040
v -0.06992096 0.01232898 0.10601039
v -0.07097495 0.01228398 0.10601039
v -0.01232899 0.06992095 0.10601040
v -0.00022700 0.07203000 0.10601040
v -0.07099998 0.00000000 0.10601039
v -0.07202995 -0.00022700 0.10601039
v -0.00000001 0.07099997 0.10601040
v 0.01228397 0.07097500 0.10601040
v -0.06992096 -0.01232898 0.10601039
v -0.07089597 -0.01273196 0.10601039
v 0.01232897 0.06992095 0.10601040
v 0.02442197 0.06776398 0.10601040
v -0.06671799 -0.02428299 0.10601039
v -0.06760800 -0.02484899 0.10601039
v 0.02428298 0.06671798 0.10601040
v 0.03581797 0.06249296 0.10601040
v -0.06148798 -0.03549998 0.10601039
v -0.06226600 -0.03621196 0.10601039
v 0.03549997 0.06148797 0.10601040
v 0.04612599 0.05532395 0.10601041
v -0.05438895 -0.04563796 0.10601039
v 0.04563795 0.05438899 0.10601041
v -0.05503196 -0.04647397 0.10601039
v 0.05503194 0.04647397 0.10601041
v -0.04563797 -0.05438899 0.10601039
v 0.05438898 0.04563796 0.10601041
v -0.04612595 -0.05532395 0.10601039
v -0.03549999 -0.06148797 0.10601040
v 0.06226598 0.03621196 0.10601041
v 0.06148796 0.03549998 0.10601041
v -0.03581799 -0.06249296 0.10601040
v -0.02428300 -0.06671798 0.10601040
v 0.06760798 0.02484899 0.10601041
v 0.06671797 0.02428299 0.10601041
v -0.02442199 -0.06776398 0.10601040
v -0.01232899 -0.06992095 0.10601040
v 0.07089595 0.01273196 0.10601041
v 0.06992100 0.01232898 0.10601041
v -0.01228399 -0.07097500 0.10601040
v -0.00000001 -0.07099997 0.10601040
v 0.07202999 0.00022700 0.10601041
v 0.07099997 0.00000000 0.10601041
v 0.00022700 -0.07203000 0.10601040
v 0.01232897 -0.06992095 0.10601040
v 0.07097499 -0.01228398 0.10601041
v 0.06992100 -0.01232898 0.10601041
v 0.01273195 -0.07089596 0.10601040
v 0.02428298 -0.06671798 0.10601040
v 0.06776397 -0.02442198 0.10601041
v 0.06671797 -0.02428299 0.10601041
v 0.02484898 -0.06760799 0.10601040
v 0.03549997 -0.06148797 0.10601040
v 0.06249295 -0.03581798 0.10601041
v 0.06148796 -0.03549998 0.10601041
v 0.03621195 -0.06226599 0.10601040
v 0.04563795 -0.05438899 0.10601041
v 0.05532394 -0.04612594 0.10601041
v 0.05438898 -0.04563796 0.10601041
v 0.04647396 -0.05503195 0.10601041
v -0.01232899 -0.06992095 0.10501040
v -0.00000001 -0.07099997 0.10501040
v -0.00000001 -0.07099997 0.10601040
v -0.01232899 -0.06992095 0.10601040
v -0.02428300 -0.06671798 0.10501040
v -0.02428300 -0.06671798 0.10601040
v -0.03549999 -0.06148797 0.10501040
v -0.03549999 -0.06148797 0.10601040
v -0.04563797 -0.05438899 0.10501039
v -0.04563797 -0.05438899 0.10601039
v -0.05438895 -0.04563796 0.10501039
v -0.05438895 -0.04563796 0.10601039
v -0.06148798 -0.03549998 0.10501039
v -0.06148798 -0.03549998 0.10601039
v -0.06671799 -0.02428299 0.10501039
v -0.06671799 -0.02428299 0.10601039
v -0.06992096 -0.01232898 0.10501039
v -0.06992096 -0.01232898 0.10601039
v -0.07099998 0.00000000 0.10501039
v -0.07099998 0.00000000 0.10601039
v -0.06992096 0.01232898 0.10501039
v -0.06992096 0.01232898 0.10601039
v -0.06671799 0.02428299 0.10501039
v -0.06671799 0.02428299 0.10601039
v -0.06148798 0.03549998 0.10501039
v -0.06148798 0.03549998 0.10601039
v -0.05438895 0.04563796 0.10501039
v -0.05438895 0.04563796 0.10601039
v -0.04563797 0.05438899 0.10501039
v -0.04563797 0.05438899 0.10601039
v -0.03549999 0.06148797 0.10501040
v -0.03549999 0.06148797 0.10601040
v -0.02428300 0.06671798 0.10501040
v -0.02428300 0.06671798 0.10601040
v -0.01232899 0.06992095 0.10501040
v -0.01232899 0.06992095 0.10601040
v -0.00000001 0.07099997 0.10501040
v -0.00000001 0.07099997 0.10601040
v 0.01232897 0.06992095 0.10501040
v 0.01232897 0.06992095 0.10601040
v 0.02428298 0.06671798 0.10501040
v 0.02428298 0.06671798 0.10601040
v 0.03549997 0.06148797 0.10501040
v 0.03549997 0.06148797 0.10601040
v 0.04563795 0.05438899 0.10501041
v 0.04563795 0.05438899 0.10601041
v 0.05438898 0.04563796 0.10501041
v 0.05438898 0.04563796 0.10601041
v 0.06148796 0.03549998 0.10501041
v 0.06148796 0.03549998 0.10601041
v 0.06671797 0.02428299 0.10501041
v 0.06671797 0.02428299 0.10601041
v 0.06992100 0.01232898 0.10501041
v 0.06992100 0.01232898 0.10601041
v 0.07099997 0.00000000 0.10501041
v 0.07099997 0.00000000 0.10601041
v 0.06992100 -0.01232898 0.10501041
v 0.06992100 -0.01232898 0.10601041
v 0.06671797 -0.02428299 0.10501041
v 0.06671797 -0.02428299 0.10601041
v 0.06148796 -0.03549998 0.10501041
v 0.06148796 -0.03549998 0.10601041
v 0.05438898 -0.04563796 0.10501041
v 0.05438898 -0.04563796 0.10601041
v 0.04563795 -0.05438899 0.10501041
v 0.04563795 -0.05438899 0.10601041
v 0.03549997 -0.06148797 0.10501040
v 0.03549997 -0.06148797 0.10601040
v 0.02428298 -0.06671798 0.10501040
v 0.02428298 -0.06671798 0.10601040
v 0.01232897 -0.06992095 0.10501040
v 0.01232897 -0.06992095 0.10601040
v -0.00000001 -0.07099997 0.10501040
v 0.07098399 -0.01228499 0.10501041
v 0.07202999 0.00022700 0.10601041
v 0.07203899 0.00022700 0.10501041
v 0.07097499 -0.01228398 0.10601041
v 0.06777196 -0.02442497 0.10501041
v 0.06776397 -0.02442198 0.10601041
v 0.06250101 -0.03582197 0.10501041
v 0.06249295 -0.03581798 0.10601041
v 0.05533098 -0.04613095 0.10501041
v 0.05532394 -0.04612594 0.10601041
v 0.04647999 -0.05503898 0.10501041
v 0.04647396 -0.05503195 0.10601041
v 0.03621595 -0.06227397 0.10501040
v 0.03621195 -0.06226599 0.10601040
v 0.02485196 -0.06761598 0.10501040
v 0.02484898 -0.06760799 0.10601040
v 0.01273297 -0.07090497 0.10501040
v 0.01273195 -0.07089596 0.10601040
v 0.00022700 -0.07203900 0.10501040
v 0.00022700 -0.07203000 0.10601040
v -0.01228500 -0.07098400 0.10501040
v -0.01228399 -0.07097500 0.10601040
v -0.02442498 -0.06777197 0.10501040
v -0.02442199 -0.06776398 0.10601040
v -0.03582198 -0.06250095 0.10501040
v -0.03581799 -0.06249296 0.10601040
v -0.04613096 -0.05533099 0.10501039
v -0.04612595 -0.05532395 0.10601039
v -0.05503899 -0.04648000 0.10501039
v -0.05503196 -0.04647397 0.10601039
v -0.06227398 -0.03621596 0.10501039
v -0.06226600 -0.03621196 0.10601039
v -0.06761599 -0.02485197 0.10501039
v -0.06760800 -0.02484899 0.10601039
v -0.07090498 -0.01273298 0.10501039
v -0.07089597 -0.01273196 0.10601039
v -0.07203895 -0.00022700 0.10501039
v -0.07202995 -0.00022700 0.10601039
v -0.07098395 0.01228499 0.10501039
v -0.07097495 0.01228398 0.10601039
v -0.06777198 0.02442497 0.10501039
v -0.06776398 0.02442198 0.10601039
v -0.06250096 0.03582197 0.10501039
v -0.06249297 0.03581798 0.10601039
v -0.05533100 0.04613095 0.10501039
v -0.05532396 0.04612594 0.10601039
v -0.04647995 0.05503898 0.10501039
v -0.04647398 0.05503195 0.10601039
v -0.03621197 0.06226599 0.10601040
v -0.03621597 0.06227397 0.10501040
v -0.02485198 0.06761598 0.10501040
v -0.02484900 0.06760799 0.10601040
v -0.01273197 0.07089596 0.10601040
v -0.01273299 0.07090497 0.10501040
v -0.00022700 0.07203900 0.10501040
v -0.00022700 0.07203000 0.10601040
v 0.01228498 0.07098400 0.10501040
v 0.01228397 0.07097500 0.10601040
v 0.02442197 0.06776398 0.10601040
v 0.02442496 0.06777197 0.10501040
v 0.03582196 0.06250095 0.10501040
v 0.03581797 0.06249296 0.10601040
v 0.04612599 0.05532395 0.10601041
v 0.04613094 0.05533099 0.10501041
v 0.05503897 0.04648000 0.10501041
v 0.05503194 0.04647397 0.10601041
v 0.06226598 0.03621196 0.10601041
v 0.06227396 0.03621596 0.10501041
v 0.06761597 0.02485197 0.10501041
v 0.06760798 0.02484899 0.10601041
v 0.07089595 0.01273196 0.10601041
v 0.07090496 0.01273298 0.10501041
v 0.07203899 0.00022700 0.10501041
v 0.07202999 0.00022700 0.10601041
v 0.05438898 0.04563796 0.10501041
v 0.06227396 0.03621596 0.10501041
v 0.05503897 0.04648000 0.10501041
v 0.06148796 0.03549998 0.10501041
v 0.04563795 0.05438899 0.10501041
v 0.04613094 0.05533099 0.10501041
v 0.06761597 0.02485197 0.10501041
v 0.06671797 0.02428299 0.10501041
v 0.03549997 0.06148797 0.10501040
v 0.03582196 0.06250095 0.10501040
v 0.07090496 0.01273298 0.10501041
v 0.06992100 0.01232898 0.10501041
v 0.02428298 0.06671798 0.10501040
v 0.02442496 0.06777197 0.10501040
v 0.07203899 0.00022700 0.10501041
v 0.07099997 0.00000000 0.10501041
v 0.01232897 0.06992095 0.10501040
v 0.01228498 0.07098400 0.10501040
v 0.07098399 -0.01228499 0.10501041
v 0.06992100 -0.01232898 0.10501041
v -0.00000001 0.07099997 0.10501040
v -0.00022700 0.07203900 0.10501040
v 0.06777196 -0.02442497 0.10501041
v 0.06671797 -0.02428299 0.10501041
v -0.01232899 0.06992095 0.10501040
v -0.01273299 0.07090497 0.10501040
v 0.06250101 -0.03582197 0.10501041
v 0.06148796 -0.03549998 0.10501041
v -0.02428300 0.06671798 0.10501040
v -0.02485198 0.06761598 0.10501040
v 0.05533098 -0.04613095 0.10501041
v 0.05438898 -0.04563796 0.10501041
v -0.03549999 0.06148797 0.10501040
v -0.03621597 0.06227397 0.10501040
v 0.04647999 -0.05503898 0.10501041
v 0.04563795 -0.05438899 0.10501041
v -0.04563797 0.05438899 0.10501039
v -0.04647995 0.05503898 0.10501039
v 0.03621595 -0.06227397 0.10501040
v 0.03549997 -0.06148797 0.10501040
v -0.05438895 0.04563796 0.10501039
v -0.05533100 0.04613095 0.10501039
v 0.02485196 -0.06761598 0.10501040
v 0.02428298 -0.06671798 0.10501040
v -0.06148798 0.03549998 0.10501039
v -0.06250096 0.03582197 0.10501039
v 0.01273297 -0.07090497 0.10501040
v 0.01232897 -0.06992095 0.10501040
v -0.06671799 0.02428299 0.10501039
v -0.06777198 0.02442497 0.10501039
v 0.00022700 -0.07203900 0.10501040
v -0.00000001 -0.07099997 0.10501040
v -0.06992096 0.01232898 0.10501039
v -0.07098395 0.01228499 0.10501039
v -0.01228500 -0.07098400 0.10501040
v -0.01232899 -0.06992095 0.10501040
v -0.07099998 0.00000000 0.10501039
v -0.07203895 -0.00022700 0.10501039
v -0.02442498 -0.06777197 0.10501040
v -0.02428300 -0.06671798 0.10501040
v -0.06992096 -0.01232898 0.10501039
v -0.07090498 -0.01273298 0.10501039
v -0.06671799 -0.02428299 0.10501039
v -0.03582198 -0.06250095 0.10501040
v -0.03549999 -0.06148797 0.10501040
v -0.06761599 -0.02485197 0.10501039
v -0.06148798 -0.03549998 0.10501039
v -0.04613096 -0.05533099 0.10501039
v -0.04563797 -0.05438899 0.10501039
v -0.06227398 -0.03621596 0.10501039
v -0.05438895 -0.04563796 0.10501039
v -0.05503899 -0.04648000 0.10501039
f 1 2 3
f 4 1 3
f 5 4 3
f 6 7 2
f 6 2 1
f 8 4 5
f 9 8 5
f 10 11 7
f 10 7 6
f 12 8 9
f 13 12 9
f 14 15 11
f 14 11 10
f 16 12 13
f 17 16 13
f 18 15 14
f 18 19 15
f 20 16 17
f 21 20 17
f 22 19 18
f 22 23 19
f 24 20 21
f 25 24 21
f 26 23 22
f 26 27 23
f 28 24 25
f 29 28 25
f 30 27 26
f 30 31 27
f 32 28 29
f 33 32 29
f 34 31 30
f 35 32 33
f 36 31 34
f 37 35 33
f 38 36 34
f 39 35 37
f 40 36 38
f 41 40 38
f 42 39 37
f 42 43 39
f 44 40 41
f 45 44 41
f 46 47 43
f 46 43 42
f 48 44 45
f 49 48 45
f 50 51 47
f 50 47 46
f 52 48 49
f 53 52 49
f 54 55 51
f 54 51 50
f 56 52 53
f 57 56 53
f 58 59 55
f 58 55 54
f 60 56 57
f 61 60 57
f 62 63 59
f 62 59 58
f 64 60 61
f 65 64 61
f 66 63 62
f 66 67 63
f 68 64 65
f 69 68 65
f 70 67 66
f 70 71 67
f 72 71 70
f 72 69 71
f 72 68 69
f 73 74 75
f 73 75 76
f 77 76 78
f 77 73 76
f 79 78 80
f 79 77 78
f 81 80 82
f 81 79 80
f 83 82 84
f 83 81 82
f 85 83 84
f 85 84 86
f 87 85 86
f 87 86 88
f 89 87 88
f 89 88 90
f 91 89 90
f 91 90 92
f 93 91 92
f 93 92 94
f 95 93 94
f 95 94 96
f 97 95 96
f 97 96 98
f 99 97 98
f 99 98 100
f 101 99 100
f 101 100 102
f 103 101 102
f 103 102 104
f 105 103 104
f 105 104 106
f 107 105 106
f 107 106 108
f 109 107 108
f 109 108 110
f 111 110 112
f 111 109 110
f 113 112 114
f 113 111 112
f 115 114 116
f 115 113 114
f 117 116 118
f 117 115 116
f 119 118 120
f 119 117 118
f 121 120 122
f 121 119 120
f 123 122 124
f 123 121 122
f 125 124 126
f 125 123 124
f 127 126 128
f 127 125 126
f 129 128 130
f 129 127 128
f 131 130 132
f 131 129 130
f 133 132 134
f 133 131 132
f 135 134 136
f 135 133 134
f 137 135 136
f 137 136 138
f 139 137 138
f 139 138 140
f 141 139 140
f 141 140 142
f 143 141 142
f 143 142 144
f 145 143 144
f 145 144 75
f 146 147 148
f 146 149 147
f 150 151 149
f 150 149 146
f 152 153 151
f 152 151 150
f 154 155 153
f 154 153 152
f 156 157 155
f 156 155 154
f 158 159 157
f 158 157 156
f 160 159 158
f 160 161 159
f 162 161 160
f 162 163 161
f 164 163 162
f 164 165 163
f 166 165 164
f 166 167 165
f 168 167 166
f 168 169 167
f 170 169 168
f 170 171 169
f 172 171 170
f 172 173 171
f 174 173 172
f 174 175 173
f 176 175 174
f 176 177 175
f 178 177 176
f 178 179 177
f 180 179 178
f 180 181 179
f 182 181 180
f 182 183 181
f 184 183 182
f 184 185 183
f 186 185 184
f 186 187 185
f 188 189 187
f 188 187 186
f 190 191 189
f 190 189 188
f 192 193 191
f 192 191 190
f 194 193 192
f 195 194 192
f 196 197 194
f 196 194 195
f 198 197 196
f 199 198 196
f 200 201 198
f 200 198 199
f 202 203 201
f 202 201 200
f 204 203 202
f 205 204 202
f 206 207 204
f 206 204 205
f 208 207 206
f 209 208 206
f 210 208 209
f 210 211 208
f 212 211 210
f 213 212 210
f 214 212 213
f 214 215 212
f 216 215 214
f 217 216 214
f 218 216 217
f 218 219 216
f 220 221 222
f 223 221 220
f 224 222 225
f 224 220 222
f 226 221 223
f 227 226 223
f 228 225 229
f 228 224 225
f 230 226 227
f 231 230 227
f 232 229 233
f 232 228 229
f 234 230 231
f 235 234 231
f 236 232 233
f 236 233 237
f 238 234 235
f 239 238 235
f 240 237 241
f 240 236 237
f 242 238 239
f 243 242 239
f 244 240 241
f 244 241 245
f 246 242 243
f 247 246 243
f 248 244 245
f 248 245 249
f 250 246 247
f 251 250 247
f 252 248 249
f 253 252 249
f 254 250 251
f 255 254 251
f 256 252 253
f 257 256 253
f 258 254 255
f 259 258 255
f 260 256 257
f 261 260 257
f 262 259 263
f 262 258 259
f 264 260 261
f 265 264 261
f 266 263 267
f 266 262 263
f 268 264 265
f 269 268 265
f 270 267 271
f 270 266 267
f 272 268 269
f 273 272 269
f 274 270 271
f 274 271 275
f 276 272 273
f 277 276 273
f 278 275 279
f 278 274 275
f 280 276 277
f 281 280 277
f 282 280 281
f 283 279 284
f 283 278 279
f 285 282 281
f 286 282 285
f 287 283 284
f 287 284 288
f 289 290 286
f 289 286 285
f 291 287 288
f 291 290 289
f 291 288 290

