# https://github.com/mikedh/trimesh
v 0.02731787 -0.15020700 0.06631004
v 0.02892487 -0.15212201 0.06631004
v 0.03447185 -0.14657500 0.06631004
v 0.03255688 -0.14496800 0.06631004
v 0.03680585 -0.13890000 0.06631004
v 0.03897087 -0.14015000 0.06631004
v 0.02124988 -0.15445600 0.06631004
v 0.02249984 -0.15662099 0.06631004
v 0.03993683 -0.13218591 0.06631004
v 0.04228584 -0.13304099 0.06631004
v 0.01453583 -0.15758690 0.06631004
v 0.01539086 -0.15993600 0.06631004
v 0.04185383 -0.12503000 0.06631004
v 0.04431586 -0.12546401 0.06631005
v 0.00737982 -0.15950391 0.06631004
v 0.00781386 -0.16196600 0.06631004
v 0.04249983 -0.11765000 0.06631004
v 0.04499982 -0.11765000 0.06631005
v -0.00000001 -0.16014990 0.06631004
v -0.00000001 -0.16264990 0.06631004
v 0.04185383 -0.11027000 0.06631004
v 0.04431586 -0.10983600 0.06631005
v -0.00738007 -0.15950391 0.06631004
v -0.00781411 -0.16196600 0.06631004
v 0.03993683 -0.10311400 0.06631004
v 0.04228584 -0.10225900 0.06631004
v -0.01453609 -0.15758690 0.06631004
v -0.01539112 -0.15993600 0.06631004
v 0.03680585 -0.09639996 0.06631004
v 0.03897087 -0.09514999 0.06631004
v -0.02125007 -0.15445600 0.06631004
v -0.02250010 -0.15662099 0.06631004
v 0.03255688 -0.09033197 0.06631004
v 0.03447185 -0.08872497 0.06631004
v -0.02731813 -0.15020700 0.06631004
v -0.02892506 -0.15212201 0.06631004
v 0.02892487 -0.08317798 0.06631004
v 0.02731787 -0.08509296 0.06631004
v -0.03447211 -0.14657500 0.06631004
v -0.03255708 -0.14496800 0.06631004
v 0.02249984 -0.07867896 0.06631004
v 0.02124988 -0.08084398 0.06631004
v -0.03897107 -0.14015000 0.06631004
v -0.03680611 -0.13890000 0.06631004
v 0.01539086 -0.07536399 0.06631004
v 0.01453583 -0.07771295 0.06631004
v -0.04228610 -0.13304099 0.06631004
v -0.03993708 -0.13218591 0.06631004
v 0.00781386 -0.07333397 0.06631004
v 0.00737982 -0.07579600 0.06631004
v -0.04431612 -0.12546401 0.06631003
v -0.04185409 -0.12503000 0.06631004
v -0.00000001 -0.07264995 0.06631004
v -0.00000001 -0.07514995 0.06631004
v -0.04500008 -0.11765000 0.06631003
v -0.04250008 -0.11765000 0.06631004
v -0.04431612 -0.10983600 0.06631003
v -0.04185409 -0.11027000 0.06631004
v -0.00781411 -0.07333397 0.06631004
v -0.00738007 -0.07579600 0.06631004
v -0.04228610 -0.10225900 0.06631004
v -0.03993708 -0.10311400 0.06631004
v -0.01539112 -0.07536399 0.06631004
v -0.01453609 -0.07771295 0.06631004
v -0.02250010 -0.07867896 0.06631004
v -0.02125007 -0.08084398 0.06631004
v -0.03897107 -0.09514999 0.06631004
v -0.03680611 -0.09639996 0.06631004
v -0.02892506 -0.08317798 0.06631004
v -0.02731813 -0.08509296 0.06631004
v -0.03447211 -0.08872497 0.06631004
v -0.03255708 -0.09033197 0.06631004
v 0.02731787 -0.15020700 0.06131005
v 0.03447185 -0.14657500 0.06131005
v 0.02892487 -0.15212201 0.06131005
v 0.03255689 -0.14496800 0.06131005
v 0.03680586 -0.13890000 0.06131005
v 0.03897088 -0.14015000 0.06131005
v 0.02124988 -0.15445600 0.06131005
v 0.02249984 -0.15662099 0.06131005
v 0.03993684 -0.13218591 0.06131005
v 0.04228584 -0.13304099 0.06131005
v 0.01453583 -0.15758690 0.06131005
v 0.01539086 -0.15993600 0.06131005
v 0.04185384 -0.12503000 0.06131005
v 0.04431587 -0.12546401 0.06131005
v 0.00737982 -0.15950391 0.06131005
v 0.00781386 -0.16196600 0.06131005
v 0.04249984 -0.11765000 0.06131005
v 0.04499983 -0.11765000 0.06131005
v -0.00000001 -0.16014990 0.06131005
v -0.00000001 -0.16264990 0.06131005
v 0.04185384 -0.11027000 0.06131005
v 0.04431587 -0.10983600 0.06131005
v -0.00738007 -0.15950391 0.06131005
v -0.00781411 -0.16196600 0.06131005
v 0.03993684 -0.10311400 0.06131005
v 0.04228584 -0.10225900 0.06131005
v -0.01453609 -0.15758690 0.06131005
v -0.01539112 -0.15993600 0.06131005
v 0.03680586 -0.09639996 0.06131005
v 0.03897088 -0.09514999 0.06131005
v -0.02125007 -0.15445600 0.06131005
v -0.02250010 -0.15662099 0.06131005
v 0.03255689 -0.09033197 0.06131005
v 0.03447185 -0.08872497 0.06131005
v -0.02731813 -0.15020700 0.06131005
v -0.02892506 -0.15212201 0.06131005
v 0.02892487 -0.08317798 0.06131005
v 0.02731787 -0.08509296 0.06131005
v -0.03447210 -0.14657500 0.06131005
v -0.03255707 -0.14496800 0.06131005
v 0.02249984 -0.07867896 0.06131005
v 0.02124988 -0.08084398 0.06131005
v -0.03897106 -0.14015000 0.06131005
v -0.03680610 -0.13890000 0.06131005
v 0.01539086 -0.07536399 0.06131005
v 0.01453583 -0.07771295 0.06131005
v -0.04228609 -0.13304099 0.06131005
v -0.03993708 -0.13218591 0.06131005
v 0.00781386 -0.07333397 0.06131005
v 0.00737982 -0.07579600 0.06131005
v -0.04431611 -0.12546401 0.06131005
v -0.04185408 -0.12503000 0.06131005
v -0.00000001 -0.07264995 0.06131005
v -0.00000001 -0.07514995 0.06131005
v -0.04500007 -0.11765000 0.06131005
v -0.04250007 -0.11765000 0.06131005
v -0.04431611 -0.10983600 0.06131005
v -0.04185408 -0.11027000 0.06131005
v -0.00781411 -0.07333397 0.06131005
v -0.00738007 -0.07579600 0.06131005
v -0.04228609 -0.10225900 0.06131005
v -0.03993708 -0.10311400 0.06131005
v -0.01539112 -0.07536399 0.06131005
v -0.01453609 -0.07771295 0.06131005
v -0.02250010 -0.07867896 0.06131005
v -0.02125007 -0.08084398 0.06131005
v -0.03897106 -0.09514999 0.06131005
v -0.03680610 -0.09639996 0.06131005
v -0.02892506 -0.08317798 0.06131005
v -0.02731813 -0.08509296 0.06131005
v -0.03447210 -0.08872497 0.06131005
v -0.03255707 -0.09033197 0.06131005
v 0.00781386 -0.07333397 0.06131005
v -0.00000001 -0.07264995 0.06131005
v -0.00000001 -0.07264995 0.06631004
v 0.00781386 -0.07333397 0.06631004
v 0.01539086 -0.07536399 0.06131005
v 0.01539086 -0.07536399 0.06631004
v 0.02249984 -0.07867896 0.06131005
v 0.02249984 -0.07867896 0.06631004
v 0.02892487 -0.08317798 0.06131005
v 0.02892487 -0.08317798 0.06631004
v 0.03447185 -0.08872497 0.06131005
v 0.03447185 -0.08872497 0.06631004
v 0.03897088 -0.09514999 0.06131005
v 0.03897087 -0.09514999 0.06631004
v 0.04228584 -0.10225900 0.06131005
v 0.04228584 -0.10225900 0.06631004
v 0.04431587 -0.10983600 0.06131005
v 0.04431586 -0.10983600 0.06631005
v 0.04499983 -0.11765000 0.06131005
v 0.04499982 -0.11765000 0.06631005
v 0.04431587 -0.12546401 0.06131005
v 0.04431586 -0.12546401 0.06631005
v 0.04228584 -0.13304099 0.06131005
v 0.04228584 -0.13304099 0.06631004
v 0.03897088 -0.14015000 0.06131005
v 0.03897087 -0.14015000 0.06631004
v 0.03447185 -0.14657500 0.06131005
v 0.03447185 -0.14657500 0.06631004
v 0.02892487 -0.15212201 0.06131005
v 0.02892487 -0.15212201 0.06631004
v 0.02249984 -0.15662099 0.06131005
v 0.02249984 -0.15662099 0.06631004
v 0.01539086 -0.15993600 0.06131005
v 0.01539086 -0.15993600 0.06631004
v 0.00781386 -0.16196600 0.06131005
v 0.00781386 -0.16196600 0.06631004
v -0.00000001 -0.16264990 0.06131005
v -0.00000001 -0.16264990 0.06631004
v -0.00781411 -0.16196600 0.06131005
v -0.00781411 -0.16196600 0.06631004
v -0.01539112 -0.15993600 0.06131005
v -0.01539112 -0.15993600 0.06631004
v -0.02250010 -0.15662099 0.06131005
v -0.02250010 -0.15662099 0.06631004
v -0.02892506 -0.15212201 0.06131005
v -0.02892506 -0.15212201 0.06631004
v -0.03447210 -0.14657500 0.06131005
v -0.03447211 -0.14657500 0.06631004
v -0.03897106 -0.14015000 0.06131005
v -0.03897107 -0.14015000 0.06631004
v -0.04228609 -0.13304099 0.06131005
v -0.04228610 -0.13304099 0.06631004
v -0.04431611 -0.12546401 0.06131005
v -0.04431612 -0.12546401 0.06631003
v -0.04500007 -0.11765000 0.06131005
v -0.04500008 -0.11765000 0.06631003
v -0.04431611 -0.10983600 0.06131005
v -0.04431612 -0.10983600 0.06631003
v -0.04228609 -0.10225900 0.06131005
v -0.04228610 -0.10225900 0.06631004
v -0.03897106 -0.09514999 0.06131005
v -0.03897107 -0.09514999 0.06631004
v -0.03447210 -0.08872497 0.06131005
v -0.03447211 -0.08872497 0.06631004
v -0.02892506 -0.08317798 0.06131005
v -0.02892506 -0.08317798 0.06631004
v -0.02250010 -0.07867896 0.06131005
v -0.02250010 -0.07867896 0.06631004
v -0.01539112 -0.07536399 0.06131005
v -0.01539112 -0.07536399 0.06631004
v -0.00781411 -0.07333397 0.06131005
v -0.00781411 -0.07333397 0.06631004
v -0.00000001 -0.07264995 0.06131005
v -0.00000001 -0.07264995 0.06631004
v 0.00737982 -0.07579600 0.06131005
v -0.00000001 -0.07514995 0.06631004
v -0.00000001 -0.07514995 0.06131005
v 0.00737982 -0.07579600 0.06631004
v 0.01453583 -0.07771295 0.06131005
v 0.01453583 -0.07771295 0.06631004
v 0.02124988 -0.08084398 0.06131005
v 0.02124988 -0.08084398 0.06631004
v 0.02731787 -0.08509296 0.06131005
v 0.02731787 -0.08509296 0.06631004
v 0.03255689 -0.09033197 0.06131005
v 0.03255688 -0.09033197 0.06631004
v 0.03680586 -0.09639996 0.06131005
v 0.03680585 -0.09639996 0.06631004
v 0.03993684 -0.10311400 0.06131005
v 0.03993683 -0.10311400 0.06631004
v 0.04185384 -0.11027000 0.06131005
v 0.04185383 -0.11027000 0.06631004
v 0.04249984 -0.11765000 0.06131005
v 0.04249983 -0.11765000 0.06631004
v 0.04185384 -0.12503000 0.06131005
v 0.04185383 -0.12503000 0.06631004
v 0.03993684 -0.13218591 0.06131005
v 0.03993683 -0.13218591 0.06631004
v 0.03680586 -0.13890000 0.06131005
v 0.03680585 -0.13890000 0.06631004
v 0.03255689 -0.14496800 0.06131005
v 0.03255688 -0.14496800 0.06631004
v 0.02731787 -0.15020700 0.06131005
v 0.02731787 -0.15020700 0.06631004
v 0.02124988 -0.15445600 0.06131005
v 0.02124988 -0.15445600 0.06631004
v 0.01453583 -0.15758690 0.06131005
v 0.01453583 -0.15758690 0.06631004
v 0.00737982 -0.15950391 0.06131005
v 0.00737982 -0.15950391 0.06631004
v -0.00000001 -0.16014990 0.06131005
v -0.00000001 -0.16014990 0.06631004
v -0.00738007 -0.15950391 0.06131005
v -0.00738007 -0.15950391 0.06631004
v -0.01453609 -0.15758690 0.06131005
v -0.01453609 -0.15758690 0.06631004
v -0.02125007 -0.15445600 0.06131005
v -0.02125007 -0.15445600 0.06631004
v -0.02731813 -0.15020700 0.06131005
v -0.02731813 -0.15020700 0.06631004
v -0.03255707 -0.14496800 0.06131005
v -0.03255708 -0.14496800 0.06631004
v -0.03680610 -0.13890000 0.06131005
v -0.03680611 -0.13890000 0.06631004
v -0.03993708 -0.13218591 0.06131005
v -0.03993708 -0.13218591 0.06631004
v -0.04185408 -0.12503000 0.06131005
v -0.04185409 -0.12503000 0.06631004
v -0.04250007 -0.11765000 0.06131005
v -0.04250008 -0.11765000 0.06631004
v -0.04185408 -0.11027000 0.06131005
v -0.04185409 -0.11027000 0.06631004
v -0.03993708 -0.10311400 0.06131005
v -0.03993708 -0.10311400 0.06631004
v -0.03680610 -0.09639996 0.06131005
v -0.03680611 -0.09639996 0.06631004
v -0.03255707 -0.09033197 0.06131005
v -0.03255708 -0.09033197 0.06631004
v -0.02731813 -0.08509296 0.06131005
v -0.02731813 -0.08509296 0.06631004
v -0.02125007 -0.08084398 0.06131005
v -0.02125007 -0.08084398 0.06631004
v -0.01453609 -0.07771295 0.06131005
v -0.01453609 -0.07771295 0.06631004
v -0.00738007 -0.07579600 0.06131005
v -0.00738007 -0.07579600 0.06631004
v -0.00000001 -0.07514995 0.06131005
v -0.00000001 -0.07514995 0.06631004
f 1 2 3
f 1 3 4
f 5 3 6
f 5 4 3
f 7 8 2
f 7 2 1
f 9 6 10
f 9 5 6
f 11 12 8
f 11 8 7
f 13 10 14
f 13 9 10
f 15 16 12
f 15 12 11
f 17 13 14
f 17 14 18
f 19 20 16
f 19 16 15
f 21 17 18
f 21 18 22
f 23 20 19
f 23 24 20
f 25 21 22
f 25 22 26
f 27 24 23
f 27 28 24
f 29 25 26
f 29 26 30
f 31 28 27
f 31 32 28
f 33 30 34
f 33 29 30
f 35 36 32
f 35 32 31
f 37 33 34
f 37 38 33
f 39 36 35
f 39 35 40
f 41 38 37
f 41 42 38
f 43 39 40
f 43 40 44
f 45 42 41
f 45 46 42
f 47 44 48
f 47 43 44
f 49 46 45
f 49 50 46
f 51 48 52
f 51 47 48
f 53 50 49
f 53 54 50
f 55 52 56
f 55 51 52
f 57 56 58
f 57 55 56
f 59 60 54
f 59 54 53
f 61 58 62
f 61 57 58
f 63 64 60
f 63 60 59
f 65 64 63
f 65 66 64
f 67 62 68
f 67 61 62
f 69 70 66
f 69 66 65
f 71 67 68
f 71 70 69
f 71 72 70
f 71 68 72
f 73 74 75
f 73 76 74
f 77 78 74
f 77 74 76
f 79 75 80
f 79 73 75
f 81 82 78
f 81 78 77
f 83 80 84
f 83 79 80
f 85 86 82
f 85 82 81
f 87 84 88
f 87 83 84
f 89 86 85
f 89 90 86
f 91 88 92
f 91 87 88
f 93 90 89
f 93 94 90
f 95 91 92
f 95 92 96
f 97 94 93
f 97 98 94
f 99 95 96
f 99 96 100
f 101 98 97
f 101 102 98
f 103 99 100
f 103 100 104
f 105 106 102
f 105 102 101
f 107 104 108
f 107 103 104
f 109 106 105
f 109 105 110
f 111 107 108
f 111 112 107
f 113 109 110
f 113 110 114
f 115 112 111
f 115 116 112
f 117 113 114
f 117 114 118
f 119 120 116
f 119 116 115
f 121 117 118
f 121 118 122
f 123 124 120
f 123 120 119
f 125 121 122
f 125 122 126
f 127 128 124
f 127 124 123
f 129 130 128
f 129 128 127
f 131 126 132
f 131 125 126
f 133 134 130
f 133 130 129
f 135 132 136
f 135 131 132
f 137 135 136
f 137 136 138
f 139 140 134
f 139 134 133
f 141 138 142
f 141 137 138
f 143 140 139
f 143 141 142
f 143 142 144
f 143 144 140
f 145 146 147
f 145 147 148
f 149 148 150
f 149 145 148
f 151 150 152
f 151 149 150
f 153 152 154
f 153 151 152
f 155 154 156
f 155 153 154
f 157 155 156
f 157 156 158
f 159 157 158
f 159 158 160
f 161 159 160
f 161 160 162
f 163 161 162
f 163 162 164
f 165 163 164
f 165 164 166
f 167 165 166
f 167 166 168
f 169 167 168
f 169 168 170
f 171 169 170
f 171 170 172
f 173 171 172
f 173 172 174
f 175 173 174
f 175 174 176
f 177 175 176
f 177 176 178
f 179 177 178
f 179 178 180
f 181 179 180
f 181 180 182
f 183 182 184
f 183 181 182
f 185 184 186
f 185 183 184
f 187 186 188
f 187 185 186
f 189 188 190
f 189 187 188
f 191 190 192
f 191 189 190
f 193 192 194
f 193 191 192
f 195 194 196
f 195 193 194
f 197 196 198
f 197 195 196
f 199 198 200
f 199 197 198
f 201 200 202
f 201 199 200
f 203 202 204
f 203 201 202
f 205 204 206
f 205 203 204
f 207 206 208
f 207 205 206
f 209 207 208
f 209 208 210
f 211 209 210
f 211 210 212
f 213 211 212
f 213 212 214
f 215 213 214
f 215 214 216
f 217 215 216
f 217 216 218
f 219 220 221
f 219 222 220
f 223 224 222
f 223 222 219
f 225 226 224
f 225 224 223
f 227 228 226
f 227 226 225
f 229 230 228
f 229 228 227
f 231 230 229
f 231 232 230
f 233 232 231
f 233 234 232
f 235 234 233
f 235 236 234
f 237 236 235
f 237 238 236
f 239 238 237
f 239 240 238
f 241 240 239
f 241 242 240
f 243 242 241
f 243 244 242
f 245 244 243
f 245 246 244
f 247 246 245
f 247 248 246
f 249 248 247
f 249 250 248
f 251 250 249
f 251 252 250
f 253 252 251
f 253 254 252
f 255 254 253
f 255 256 254
f 257 258 256
f 257 256 255
f 259 260 258
f 259 258 257
f 261 260 259
f 261 262 260
f 263 264 262
f 263 262 261
f 265 266 264
f 265 264 263
f 267 268 266
f 267 266 265
f 269 270 268
f 269 268 267
f 271 272 270
f 271 270 269
f 273 274 272
f 273 272 271
f 275 276 274
f 275 274 273
f 277 278 276
f 277 276 275
f 279 280 278
f 279 278 277
f 281 282 280
f 281 280 279
f 283 282 281
f 283 284 282
f 285 284 283
f 285 286 284
f 287 286 285
f 287 288 286
f 289 288 287
f 289 290 288
f 291 290 289
f 291 292 290

