# https://github.com/mikedh/trimesh
v -0.00299305 0.09217995 0.06920999
v -0.00313604 0.08948296 0.06920999
v -0.01332003 0.09092295 0.06920999
v -0.01271004 0.09355300 0.06920999
v -0.02204103 0.09659397 0.06920999
v -0.02309806 0.09410899 0.06920999
v 0.00681489 0.09251397 0.06920999
v 0.00714188 0.08983397 0.06920999
v -0.03070206 0.10120800 0.06920999
v -0.03217507 0.09894496 0.06920999
v 0.01641588 0.09454596 0.06920999
v 0.01720290 0.09196400 0.06920999
v -0.03843105 0.10725700 0.06920999
v -0.04027403 0.10528300 0.06920999
v 0.02551793 0.09821498 0.06920999
v 0.02674191 0.09580898 0.06920999
v -0.04499102 0.11455500 0.06920999
v -0.04714907 0.11293200 0.06920999
v 0.03384487 0.10340900 0.06920999
v 0.03546791 0.10125100 0.06920999
v -0.05018503 0.12288200 0.06920999
v -0.05259103 0.12165800 0.06920999
v 0.04114293 0.10996900 0.06920999
v 0.04311691 0.10812600 0.06921000
v -0.05385405 0.13198391 0.06920999
v -0.05643607 0.13119701 0.06920999
v 0.04719190 0.11769800 0.06921000
v 0.04945491 0.11622500 0.06921000
v -0.05588604 0.14158490 0.06920999
v -0.05856604 0.14125800 0.06920999
v 0.05180590 0.12635900 0.06921000
v 0.05429088 0.12530200 0.06921000
v -0.05622006 0.15139291 0.06920999
v -0.05891705 0.15153600 0.06920999
v 0.05484687 0.13569000 0.06921000
v 0.05747692 0.13507999 0.06921000
v -0.05747706 0.16171999 0.06920999
v -0.05484707 0.16111000 0.06920999
v 0.05891691 0.14526400 0.06921000
v 0.05621992 0.14540701 0.06921000
v -0.05429101 0.17149800 0.06920999
v -0.05180604 0.17044100 0.06920999
v 0.05856590 0.15554200 0.06921000
v 0.05588590 0.15521500 0.06921000
v -0.04945505 0.18057500 0.06920999
v -0.04719204 0.17910200 0.06920999
v 0.05643587 0.16560300 0.06921000
v 0.05385391 0.16481601 0.06921000
v -0.04311705 0.18867400 0.06920999
v -0.04114306 0.18683089 0.06920999
v 0.05259089 0.17514201 0.06921000
v 0.05018489 0.17391799 0.06921000
v -0.03546805 0.19554900 0.06920999
v -0.03384507 0.19339100 0.06920999
v 0.04714887 0.18386801 0.06921000
v 0.04499088 0.18224500 0.06921000
v 0.04027389 0.19151691 0.06920999
v 0.03843091 0.18954299 0.06920999
v -0.02674204 0.20099100 0.06920999
v -0.02551806 0.19858500 0.06920999
v 0.03217487 0.19785491 0.06920999
v 0.03070192 0.19559200 0.06920999
v -0.01720303 0.20483600 0.06920999
v -0.01641602 0.20225389 0.06920999
v -0.00714201 0.20696600 0.06920999
v -0.00681502 0.20428599 0.06920999
v 0.02309792 0.20269100 0.06920999
v 0.02204089 0.20020600 0.06920999
v 0.00313591 0.20731691 0.06920999
v 0.00299292 0.20462000 0.06920999
v 0.01331989 0.20587701 0.06920999
v 0.01270990 0.20324700 0.06920999
v -0.00299305 0.09217995 0.07420998
v -0.01332003 0.09092295 0.07420998
v -0.00313604 0.08948296 0.07420998
v -0.01271004 0.09355300 0.07420998
v -0.02204103 0.09659397 0.07420998
v -0.02309806 0.09410899 0.07420998
v 0.00681489 0.09251397 0.07420998
v 0.00714188 0.08983397 0.07420998
v -0.03070206 0.10120800 0.07420998
v -0.03217507 0.09894496 0.07420998
v 0.01641588 0.09454596 0.07420998
v 0.01720290 0.09196400 0.07420998
v -0.03843105 0.10725700 0.07420998
v -0.04027403 0.10528300 0.07420998
v 0.02551793 0.09821498 0.07420998
v 0.02674191 0.09580898 0.07420998
v -0.04499102 0.11455500 0.07420997
v -0.04714907 0.11293200 0.07420997
v 0.03384487 0.10340900 0.07420998
v 0.03546791 0.10125100 0.07420998
v -0.05018503 0.12288200 0.07420997
v -0.05259103 0.12165800 0.07420997
v 0.04114293 0.10996900 0.07420998
v 0.04311691 0.10812600 0.07420999
v -0.05385405 0.13198391 0.07420997
v -0.05643607 0.13119701 0.07420997
v 0.04719190 0.11769800 0.07420999
v 0.04945491 0.11622500 0.07420999
v -0.05588604 0.14158490 0.07420997
v -0.05856604 0.14125800 0.07420997
v 0.05180590 0.12635900 0.07420999
v 0.05429088 0.12530200 0.07420999
v -0.05622006 0.15139291 0.07420997
v -0.05891705 0.15153600 0.07420997
v 0.05484687 0.13569000 0.07420999
v 0.05747692 0.13507999 0.07420999
v -0.05747706 0.16171999 0.07420997
v -0.05484707 0.16111000 0.07420997
v 0.05891691 0.14526400 0.07420999
v 0.05621992 0.14540701 0.07420999
v -0.05429101 0.17149800 0.07420997
v -0.05180604 0.17044100 0.07420997
v 0.05856590 0.15554200 0.07420999
v 0.05588590 0.15521500 0.07420999
v -0.04945505 0.18057500 0.07420997
v -0.04719204 0.17910200 0.07420997
v 0.05643587 0.16560300 0.07420999
v 0.05385391 0.16481601 0.07420999
v -0.04311705 0.18867400 0.07420997
v -0.04114306 0.18683089 0.07420998
v 0.05259089 0.17514201 0.07420999
v 0.05018489 0.17391799 0.07420999
v -0.03546805 0.19554900 0.07420998
v -0.03384507 0.19339100 0.07420998
v 0.04714887 0.18386801 0.07420999
v 0.04499088 0.18224500 0.07420999
v 0.04027389 0.19151691 0.07420998
v 0.03843091 0.18954299 0.07420998
v -0.02674204 0.20099100 0.07420998
v -0.02551806 0.19858500 0.07420998
v 0.03217487 0.19785491 0.07420998
v 0.03070192 0.19559200 0.07420998
v -0.01720303 0.20483600 0.07420998
v -0.01641602 0.20225389 0.07420998
v -0.00714201 0.20696600 0.07420998
v -0.00681502 0.20428599 0.07420998
v 0.02309792 0.20269100 0.07420998
v 0.02204089 0.20020600 0.07420998
v 0.00313591 0.20731691 0.07420998
v 0.00299292 0.20462000 0.07420998
v 0.01331989 0.20587701 0.07420998
v 0.01270990 0.20324700 0.07420998
v -0.04311705 0.18867400 0.07420997
v -0.03546805 0.19554900 0.07420998
v -0.03546805 0.19554900 0.06920999
v -0.04311705 0.18867400 0.06920999
v -0.04945505 0.18057500 0.07420997
v -0.04945505 0.18057500 0.06920999
v -0.05429101 0.17149800 0.07420997
v -0.05429101 0.17149800 0.06920999
v -0.05747706 0.16171999 0.07420997
v -0.05747706 0.16171999 0.06920999
v -0.05891705 0.15153600 0.07420997
v -0.05891705 0.15153600 0.06920999
v -0.05856604 0.14125800 0.07420997
v -0.05856604 0.14125800 0.06920999
v -0.05643607 0.13119701 0.07420997
v -0.05643607 0.13119701 0.06920999
v -0.05259103 0.12165800 0.07420997
v -0.05259103 0.12165800 0.06920999
v -0.04714907 0.11293200 0.07420997
v -0.04714907 0.11293200 0.06920999
v -0.04027403 0.10528300 0.07420998
v -0.04027403 0.10528300 0.06920999
v -0.03217507 0.09894496 0.07420998
v -0.03217507 0.09894496 0.06920999
v -0.02309806 0.09410899 0.07420998
v -0.02309806 0.09410899 0.06920999
v -0.01332003 0.09092295 0.07420998
v -0.01332003 0.09092295 0.06920999
v -0.00313604 0.08948296 0.07420998
v -0.00313604 0.08948296 0.06920999
v 0.00714188 0.08983397 0.07420998
v 0.00714188 0.08983397 0.06920999
v 0.01720290 0.09196400 0.07420998
v 0.01720290 0.09196400 0.06920999
v 0.02674191 0.09580898 0.07420998
v 0.02674191 0.09580898 0.06920999
v 0.03546791 0.10125100 0.07420998
v 0.03546791 0.10125100 0.06920999
v 0.04311691 0.10812600 0.07420999
v 0.04311691 0.10812600 0.06921000
v 0.04945491 0.11622500 0.07420999
v 0.04945491 0.11622500 0.06921000
v 0.05429088 0.12530200 0.07420999
v 0.05429088 0.12530200 0.06921000
v 0.05747692 0.13507999 0.07420999
v 0.05747692 0.13507999 0.06921000
v 0.05891691 0.14526400 0.07420999
v 0.05891691 0.14526400 0.06921000
v 0.05856590 0.15554200 0.07420999
v 0.05856590 0.15554200 0.06921000
v 0.05643587 0.16560300 0.07420999
v 0.05643587 0.16560300 0.06921000
v 0.05259089 0.17514201 0.07420999
v 0.05259089 0.17514201 0.06921000
v 0.04714887 0.18386801 0.07420999
v 0.04714887 0.18386801 0.06921000
v 0.04027389 0.19151691 0.07420998
v 0.04027389 0.19151691 0.06920999
v 0.03217487 0.19785491 0.07420998
v 0.03217487 0.19785491 0.06920999
v 0.02309792 0.20269100 0.07420998
v 0.02309792 0.20269100 0.06920999
v 0.01331989 0.20587701 0.07420998
v 0.01331989 0.20587701 0.06920999
v 0.00313591 0.20731691 0.07420998
v 0.00313591 0.20731691 0.06920999
v -0.00714201 0.20696600 0.07420998
v -0.00714201 0.20696600 0.06920999
v -0.01720303 0.20483600 0.07420998
v -0.01720303 0.20483600 0.06920999
v -0.02674204 0.20099100 0.07420998
v -0.02674204 0.20099100 0.06920999
v -0.03546805 0.19554900 0.07420998
v -0.03546805 0.19554900 0.06920999
v -0.04114306 0.18683089 0.07420998
v -0.03384507 0.19339100 0.06920999
v -0.03384507 0.19339100 0.07420998
v -0.04114306 0.18683089 0.06920999
v -0.04719204 0.17910200 0.07420997
v -0.04719204 0.17910200 0.06920999
v -0.05180604 0.17044100 0.07420997
v -0.05180604 0.17044100 0.06920999
v -0.05484707 0.16111000 0.07420997
v -0.05484707 0.16111000 0.06920999
v -0.05622006 0.15139291 0.07420997
v -0.05622006 0.15139291 0.06920999
v -0.05588604 0.14158490 0.07420997
v -0.05588604 0.14158490 0.06920999
v -0.05385405 0.13198391 0.07420997
v -0.05385405 0.13198391 0.06920999
v -0.05018503 0.12288200 0.07420997
v -0.05018503 0.12288200 0.06920999
v -0.04499102 0.11455500 0.07420997
v -0.04499102 0.11455500 0.06920999
v -0.03843105 0.10725700 0.07420998
v -0.03843105 0.10725700 0.06920999
v -0.03070206 0.10120800 0.07420998
v -0.03070206 0.10120800 0.06920999
v -0.02204103 0.09659397 0.07420998
v -0.02204103 0.09659397 0.06920999
v -0.01271004 0.09355300 0.07420998
v -0.01271004 0.09355300 0.06920999
v -0.00299305 0.09217995 0.07420998
v -0.00299305 0.09217995 0.06920999
v 0.00681489 0.09251397 0.07420998
v 0.00681489 0.09251397 0.06920999
v 0.01641588 0.09454596 0.07420998
v 0.01641588 0.09454596 0.06920999
v 0.02551793 0.09821498 0.07420998
v 0.02551793 0.09821498 0.06920999
v 0.03384487 0.10340900 0.07420998
v 0.03384487 0.10340900 0.06920999
v 0.04114293 0.10996900 0.07420998
v 0.04114293 0.10996900 0.06920999
v 0.04719190 0.11769800 0.07420999
v 0.04719190 0.11769800 0.06921000
v 0.05180590 0.12635900 0.07420999
v 0.05180590 0.12635900 0.06921000
v 0.05484687 0.13569000 0.07420999
v 0.05484687 0.13569000 0.06921000
v 0.05621992 0.14540701 0.07420999
v 0.05621992 0.14540701 0.06921000
v 0.05588590 0.15521500 0.07420999
v 0.05588590 0.15521500 0.06921000
v 0.05385391 0.16481601 0.07420999
v 0.05385391 0.16481601 0.06921000
v 0.05018489 0.17391799 0.07420999
v 0.05018489 0.17391799 0.06921000
v 0.04499088 0.18224500 0.07420999
v 0.04499088 0.18224500 0.06921000
v 0.03843091 0.18954299 0.07420998
v 0.03843091 0.18954299 0.06920999
v 0.03070192 0.19559200 0.07420998
v 0.03070192 0.19559200 0.06920999
v 0.02204089 0.20020600 0.07420998
v 0.02204089 0.20020600 0.06920999
v 0.01270990 0.20324700 0.07420998
v 0.01270990 0.20324700 0.06920999
v 0.00299292 0.20462000 0.07420998
v 0.00299292 0.20462000 0.06920999
v -0.00681502 0.20428599 0.07420998
v -0.00681502 0.20428599 0.06920999
v -0.01641602 0.20225389 0.07420998
v -0.01641602 0.20225389 0.06920999
v -0.02551806 0.19858500 0.07420998
v -0.02551806 0.19858500 0.06920999
v -0.03384507 0.19339100 0.07420998
v -0.03384507 0.19339100 0.06920999
v -0.02731811 0.08709996 0.60271698
v -0.03447209 0.08709996 0.59908497
v -0.02892511 0.08709996 0.60463202
v -0.03255706 0.08709996 0.59747797
v -0.03680609 0.08709996 0.59140998
v -0.03897111 0.08709996 0.59266001
v -0.02125011 0.08709996 0.60696602
v -0.02250008 0.08709996 0.60913092
v -0.03993706 0.08709996 0.58469599
v -0.04228608 0.08709996 0.58555102
v -0.01453607 0.08709996 0.61009699
v -0.01539110 0.08709996 0.61244601
v -0.04185407 0.08709996 0.57753998
v -0.04431610 0.08709996 0.57797402
v -0.00738006 0.08709996 0.61201400
v -0.00781410 0.08709996 0.61447603
v -0.04250006 0.08709996 0.57015997
v -0.04500006 0.08709996 0.57015997
v -0.00000005 0.08709996 0.61265999
v -0.00000005 0.08709996 0.61515993
v -0.04185407 0.08709996 0.56278002
v -0.04431610 0.08709996 0.56234592
v 0.00737984 0.08709996 0.61201400
v 0.00781388 0.08709996 0.61447603
v -0.03993706 0.08709996 0.55562401
v -0.04228608 0.08709996 0.55476898
v 0.01453585 0.08709996 0.61009699
v 0.01539088 0.08709996 0.61244601
v -0.03680609 0.08709996 0.54891002
v -0.03897111 0.08709996 0.54765987
v 0.02124984 0.08709996 0.60696602
v 0.02249986 0.08709996 0.60913092
v -0.03255706 0.08709996 0.54284197
v -0.03447209 0.08709996 0.54123503
v 0.02731789 0.08709996 0.60271698
v 0.02892489 0.08709996 0.60463202
v -0.02892511 0.08709996 0.53568798
v -0.02731811 0.08709996 0.53760302
v 0.03447187 0.08709996 0.59908497
v 0.03255684 0.08709996 0.59747797
v -0.02250008 0.08709996 0.53118902
v -0.02125011 0.08709996 0.53335398
v 0.03897083 0.08709996 0.59266001
v 0.03680587 0.08709996 0.59140998
v -0.01539110 0.08709996 0.52787387
v -0.01453607 0.08709996 0.53022301
v 0.04228586 0.08709996 0.58555102
v 0.03993685 0.08709996 0.58469599
v -0.00781409 0.08709996 0.52584392
v -0.00738005 0.08709996 0.52830601
v 0.04431588 0.08709996 0.57797402
v 0.04185385 0.08709996 0.57753998
v -0.00000005 0.08709996 0.52516001
v -0.00000005 0.08709996 0.52766001
v 0.04499984 0.08709996 0.57015997
v 0.04249984 0.08709996 0.57015997
v 0.00781388 0.08709996 0.52584392
v 0.00737984 0.08709996 0.52830601
v 0.04431588 0.08709996 0.56234592
v 0.04185385 0.08709996 0.56278002
v 0.01539088 0.08709996 0.52787387
v 0.01453585 0.08709996 0.53022301
v 0.04228586 0.08709996 0.55476898
v 0.03993685 0.08709996 0.55562401
v 0.02249986 0.08709996 0.53118902
v 0.02124984 0.08709996 0.53335398
v 0.03897083 0.08709996 0.54765987
v 0.03680587 0.08709996 0.54891002
v 0.02892489 0.08709996 0.53568798
v 0.02731789 0.08709996 0.53760302
v 0.03447187 0.08709996 0.54123503
v 0.03255684 0.08709996 0.54284197
v -0.00781409 0.08709996 0.52584392
v -0.00000005 0.08709996 0.52516001
v -0.00000005 0.08209997 0.52516001
v -0.00781409 0.08209997 0.52584392
v -0.01539110 0.08709996 0.52787387
v -0.01539110 0.08209997 0.52787387
v -0.02250008 0.08709996 0.53118902
v -0.02250008 0.08209997 0.53118902
v -0.02892511 0.08709996 0.53568798
v -0.02892511 0.08209997 0.53568798
v -0.03447209 0.08709996 0.54123503
v -0.03447209 0.08209997 0.54123503
v -0.03897111 0.08709996 0.54765987
v -0.03897111 0.08209997 0.54765987
v -0.04228608 0.08709996 0.55476898
v -0.04228608 0.08209997 0.55476898
v -0.04431610 0.08709996 0.56234592
v -0.04431610 0.08209997 0.56234592
v -0.04500006 0.08709996 0.57015997
v -0.04500006 0.08209997 0.57015997
v -0.04431610 0.08709996 0.57797402
v -0.04431610 0.08209997 0.57797402
v -0.04228608 0.08709996 0.58555102
v -0.04228608 0.08209997 0.58555102
v -0.03897111 0.08709996 0.59266001
v -0.03897111 0.08209997 0.59266001
v -0.03447209 0.08709996 0.59908497
v -0.03447209 0.08209997 0.59908497
v -0.02892511 0.08709996 0.60463202
v -0.02892511 0.08209997 0.60463202
v -0.02250008 0.08709996 0.60913092
v -0.02250008 0.08209997 0.60913092
v -0.01539110 0.08709996 0.61244601
v -0.01539110 0.08209997 0.61244601
v -0.00781410 0.08709996 0.61447603
v -0.00781410 0.08209997 0.61447603
v -0.00000005 0.08709996 0.61515993
v -0.00000005 0.08209997 0.61515993
v 0.00781388 0.08709996 0.61447603
v 0.00781388 0.08209997 0.61447603
v 0.01539088 0.08709996 0.61244601
v 0.01539088 0.08209997 0.61244601
v 0.02249986 0.08709996 0.60913092
v 0.02249986 0.08209997 0.60913092
v 0.02892489 0.08709996 0.60463202
v 0.02892489 0.08209997 0.60463202
v 0.03447187 0.08709996 0.59908497
v 0.03447187 0.08209997 0.59908497
v 0.03897083 0.08709996 0.59266001
v 0.03897083 0.08209997 0.59266001
v 0.04228586 0.08709996 0.58555102
v 0.04228586 0.08209997 0.58555102
v 0.04431588 0.08709996 0.57797402
v 0.04431588 0.08209997 0.57797402
v 0.04499984 0.08709996 0.57015997
v 0.04499984 0.08209997 0.57015997
v 0.04431588 0.08709996 0.56234592
v 0.04431588 0.08209997 0.56234592
v 0.04228586 0.08709996 0.55476898
v 0.04228586 0.08209997 0.55476898
v 0.03897083 0.08709996 0.54765987
v 0.03897083 0.08209997 0.54765987
v 0.03447187 0.08709996 0.54123503
v 0.03447187 0.08209997 0.54123503
v 0.02892489 0.08709996 0.53568798
v 0.02892489 0.08209997 0.53568798
v 0.02249986 0.08709996 0.53118902
v 0.02249986 0.08209997 0.53118902
v 0.01539088 0.08709996 0.52787387
v 0.01539088 0.08209997 0.52787387
v 0.00781388 0.08709996 0.52584392
v 0.00781388 0.08209997 0.52584392
v -0.00000005 0.08709996 0.52516001
v -0.00000005 0.08209997 0.52516001
v -0.00738005 0.08709996 0.52830601
v -0.00000005 0.08209997 0.52766001
v -0.00000005 0.08709996 0.52766001
v -0.00738005 0.08209997 0.52830601
v -0.01453607 0.08709996 0.53022301
v -0.01453607 0.08209997 0.53022301
v -0.02125011 0.08709996 0.53335398
v -0.02125011 0.08209997 0.53335398
v -0.02731811 0.08709996 0.53760302
v -0.02731811 0.08209997 0.53760302
v -0.03255706 0.08709996 0.54284197
v -0.03255706 0.08209997 0.54284197
v -0.03680609 0.08709996 0.54891002
v -0.03680609 0.08209997 0.54891002
v -0.03993706 0.08709996 0.55562401
v -0.03993706 0.08209997 0.55562401
v -0.04185407 0.08709996 0.56278002
v -0.04185407 0.08209997 0.56278002
v -0.04250006 0.08709996 0.57015997
v -0.04250006 0.08209997 0.57015997
v -0.04185407 0.08709996 0.57753998
v -0.04185407 0.08209997 0.57753998
v -0.03993706 0.08709996 0.58469599
v -0.03993706 0.08209997 0.58469599
v -0.03680609 0.08709996 0.59140998
v -0.03680609 0.08209997 0.59140998
v -0.03255706 0.08709996 0.59747797
v -0.03255706 0.08209997 0.59747797
v -0.02731811 0.08709996 0.60271698
v -0.02731811 0.08209997 0.60271698
v -0.02125011 0.08709996 0.60696602
v -0.02125011 0.08209997 0.60696602
v -0.01453607 0.08709996 0.61009699
v -0.01453607 0.08209997 0.61009699
v -0.00738006 0.08709996 0.61201400
v -0.00738006 0.08209997 0.61201400
v -0.00000005 0.08709996 0.61265999
v -0.00000005 0.08209997 0.61265999
v 0.00737984 0.08709996 0.61201400
v 0.00737984 0.08209997 0.61201400
v 0.01453585 0.08709996 0.61009699
v 0.01453585 0.08209997 0.61009699
v 0.02124984 0.08709996 0.60696602
v 0.02124984 0.08209997 0.60696602
v 0.02731789 0.08709996 0.60271698
v 0.02731789 0.08209997 0.60271698
v 0.03255684 0.08709996 0.59747797
v 0.03255684 0.08209997 0.59747797
v 0.03680587 0.08709996 0.59140998
v 0.03680587 0.08209997 0.59140998
v 0.03993685 0.08709996 0.58469599
v 0.03993685 0.08209997 0.58469599
v 0.04185385 0.08709996 0.57753998
v 0.04185385 0.08209997 0.57753998
v 0.04249984 0.08709996 0.57015997
v 0.04249984 0.08209997 0.57015997
v 0.04185385 0.08709996 0.56278002
v 0.04185385 0.08209997 0.56278002
v 0.03993685 0.08709996 0.55562401
v 0.03993685 0.08209997 0.55562401
v 0.03680587 0.08709996 0.54891002
v 0.03680587 0.08209997 0.54891002
v 0.03255684 0.08709996 0.54284197
v 0.03255684 0.08209997 0.54284197
v 0.02731789 0.08709996 0.53760302
v 0.02731789 0.08209997 0.53760302
v 0.02124984 0.08709996 0.53335398
v 0.02124984 0.08209997 0.53335398
v 0.01453585 0.08709996 0.53022301
v 0.01453585 0.08209997 0.53022301
v 0.00737984 0.08709996 0.52830601
v 0.00737984 0.08209997 0.52830601
v -0.00000005 0.08709996 0.52766001
v -0.00000005 0.08209997 0.52766001
v -0.01599107 0.18777700 0.51880997
v -0.01693206 0.19009300 0.51880997
v -0.02391510 0.18651900 0.51880997
v -0.02258608 0.18440200 0.51880997
v -0.02849505 0.17993300 0.51880997
v -0.03017107 0.18178700 0.51880997
v -0.00891106 0.18995491 0.51880997
v -0.00943510 0.19239999 0.51880997
v -0.03353707 0.17450491 0.51880997
v -0.03551010 0.17604101 0.51880997
v -0.00155906 0.19087100 0.51880997
v -0.00165109 0.19337000 0.51880997
v -0.03756110 0.16828500 0.51880997
v -0.03977010 0.16945490 0.51880997
v 0.00583888 0.19049700 0.51880997
v 0.00618286 0.19297300 0.51880997
v -0.04044310 0.16146091 0.51880997
v -0.04282210 0.16222900 0.51880997
v 0.01306087 0.18884300 0.51880997
v 0.01382888 0.19122200 0.51880997
v -0.04209707 0.15423889 0.51880997
v -0.04457311 0.15458301 0.51880997
v 0.01988484 0.18596099 0.51880997
v 0.02105488 0.18817000 0.51880997
v -0.04247110 0.14684100 0.51880997
v -0.04497008 0.14674900 0.51880997
v 0.02610487 0.18193699 0.51880997
v 0.02764088 0.18391000 0.51880997
v -0.04155508 0.13948891 0.51880997
v -0.04400006 0.13896500 0.51880997
v 0.03153284 0.17689499 0.51880997
v 0.03338683 0.17857100 0.51880997
v -0.03937707 0.13240901 0.51880997
v -0.04169308 0.13146789 0.51880997
v 0.03600188 0.17098591 0.51880997
v 0.03811885 0.17231500 0.51880997
v -0.03811906 0.12448500 0.51880997
v -0.03600207 0.12581401 0.51880997
v 0.04169286 0.16533200 0.51880997
v 0.03937687 0.16439100 0.51880997
v -0.03338711 0.11822900 0.51880997
v -0.03153310 0.11990500 0.51880997
v 0.04399987 0.15783501 0.51880997
v 0.04155488 0.15731101 0.51880997
v -0.02764110 0.11289000 0.51880997
v -0.02610509 0.11486300 0.51880997
v 0.04496986 0.15005089 0.51880997
v 0.04247088 0.14995900 0.51880997
v -0.02105509 0.10863000 0.51880997
v -0.01988510 0.11083900 0.51880997
v 0.04457283 0.14221700 0.51880997
v 0.04209686 0.14256100 0.51880997
v -0.01382910 0.10557800 0.51880997
v -0.01306109 0.10795700 0.51880997
v 0.04282184 0.13457100 0.51880997
v 0.04044284 0.13533901 0.51880997
v 0.03976984 0.12734500 0.51880997
v 0.03756088 0.12851501 0.51880997
v -0.00618307 0.10382690 0.51880997
v -0.00583909 0.10630300 0.51880997
v 0.03550984 0.12075900 0.51880997
v 0.03353687 0.12229500 0.51880997
v 0.00165088 0.10343000 0.51880997
v 0.00155885 0.10592900 0.51880997
v 0.00943483 0.10440000 0.51880997
v 0.00891085 0.10684500 0.51880997
v 0.03017087 0.11501300 0.51880997
v 0.02849485 0.11686700 0.51880997
v 0.01693184 0.10670700 0.51880997
v 0.01599086 0.10902300 0.51880997
v 0.02391488 0.11028100 0.51880997
v 0.02258587 0.11239800 0.51880997
v -0.01599107 0.18777700 0.51380998
v -0.02391510 0.18651900 0.51380998
v -0.01693206 0.19009300 0.51380998
v -0.02258608 0.18440200 0.51380998
v -0.02849505 0.17993300 0.51380998
v -0.03017107 0.18178700 0.51380998
v -0.00891106 0.18995491 0.51380998
v -0.00943510 0.19239999 0.51380998
v -0.03353707 0.17450491 0.51380998
v -0.03551010 0.17604101 0.51380998
v -0.00155906 0.19087100 0.51380998
v -0.00165109 0.19337000 0.51380998
v -0.03756110 0.16828500 0.51380998
v -0.03977010 0.16945490 0.51380998
v 0.00583889 0.19049700 0.51380998
v 0.00618286 0.19297300 0.51380998
v -0.04044310 0.16146091 0.51380998
v -0.04282210 0.16222900 0.51380998
v 0.01306088 0.18884300 0.51380998
v 0.01382889 0.19122200 0.51380998
v -0.04209707 0.15423889 0.51380998
v -0.04457311 0.15458301 0.51380998
v 0.01988484 0.18596099 0.51380998
v 0.02105488 0.18817000 0.51380998
v -0.04247110 0.14684100 0.51380998
v -0.04497008 0.14674900 0.51380998
v 0.02610487 0.18193699 0.51380998
v 0.02764088 0.18391000 0.51380998
v -0.04155508 0.13948891 0.51380998
v -0.04400006 0.13896500 0.51380998
v 0.03153284 0.17689499 0.51380998
v 0.03338683 0.17857100 0.51380998
v -0.03937707 0.13240901 0.51380998
v -0.04169308 0.13146789 0.51380998
v 0.03600188 0.17098591 0.51380998
v 0.03811885 0.17231500 0.51380998
v -0.03811906 0.12448500 0.51380998
v -0.03600207 0.12581401 0.51380998
v 0.04169286 0.16533200 0.51380998
v 0.03937687 0.16439100 0.51380998
v -0.03338711 0.11822900 0.51380998
v -0.03153310 0.11990500 0.51380998
v 0.04399987 0.15783501 0.51380998
v 0.04155488 0.15731101 0.51380998
v -0.02764110 0.11289000 0.51380998
v -0.02610509 0.11486300 0.51380998
v 0.04496986 0.15005089 0.51380998
v 0.04247088 0.14995900 0.51380998
v -0.02105509 0.10863000 0.51380998
v -0.01988510 0.11083900 0.51380998
v 0.04457283 0.14221700 0.51380998
v 0.04209686 0.14256100 0.51380998
v -0.01382909 0.10557800 0.51380998
v -0.01306108 0.10795700 0.51380998
v 0.04282184 0.13457100 0.51380998
v 0.04044284 0.13533901 0.51380998
v 0.03976984 0.12734500 0.51380998
v 0.03756088 0.12851501 0.51380998
v -0.00618307 0.10382690 0.51380998
v -0.00583909 0.10630300 0.51380998
v 0.03550984 0.12075900 0.51380998
v 0.03353687 0.12229500 0.51380998
v 0.00165088 0.10343000 0.51380998
v 0.00155885 0.10592900 0.51380998
v 0.00943483 0.10440000 0.51380998
v 0.00891085 0.10684500 0.51380998
v 0.03017087 0.11501300 0.51380998
v 0.02849485 0.11686700 0.51380998
v 0.01693184 0.10670700 0.51380998
v 0.01599086 0.10902300 0.51380998
v 0.02391488 0.11028100 0.51380998
v 0.02258587 0.11239800 0.51380998
v -0.02105509 0.10863000 0.51380998
v -0.01382909 0.10557800 0.51380998
v -0.01382910 0.10557800 0.51880997
v -0.02105509 0.10863000 0.51880997
v -0.02764110 0.11289000 0.51380998
v -0.02764110 0.11289000 0.51880997
v -0.03338711 0.11822900 0.51380998
v -0.03338711 0.11822900 0.51880997
v -0.03811906 0.12448500 0.51380998
v -0.03811906 0.12448500 0.51880997
v -0.04169308 0.13146789 0.51380998
v -0.04169308 0.13146789 0.51880997
v -0.04400006 0.13896500 0.51380998
v -0.04400006 0.13896500 0.51880997
v -0.04497008 0.14674900 0.51380998
v -0.04497008 0.14674900 0.51880997
v -0.04457311 0.15458301 0.51380998
v -0.04457311 0.15458301 0.51880997
v -0.04282210 0.16222900 0.51380998
v -0.04282210 0.16222900 0.51880997
v -0.03977010 0.16945490 0.51380998
v -0.03977010 0.16945490 0.51880997
v -0.03551010 0.17604101 0.51380998
v -0.03551010 0.17604101 0.51880997
v -0.03017107 0.18178700 0.51380998
v -0.03017107 0.18178700 0.51880997
v -0.02391510 0.18651900 0.51380998
v -0.02391510 0.18651900 0.51880997
v -0.01693206 0.19009300 0.51380998
v -0.01693206 0.19009300 0.51880997
v -0.00943510 0.19239999 0.51380998
v -0.00943510 0.19239999 0.51880997
v -0.00165109 0.19337000 0.51380998
v -0.00165109 0.19337000 0.51880997
v 0.00618286 0.19297300 0.51380998
v 0.00618286 0.19297300 0.51880997
v 0.01382889 0.19122200 0.51380998
v 0.01382888 0.19122200 0.51880997
v 0.02105488 0.18817000 0.51380998
v 0.02105488 0.18817000 0.51880997
v 0.02764088 0.18391000 0.51380998
v 0.02764088 0.18391000 0.51880997
v 0.03338683 0.17857100 0.51380998
v 0.03338683 0.17857100 0.51880997
v 0.03811885 0.17231500 0.51380998
v 0.03811885 0.17231500 0.51880997
v 0.04169286 0.16533200 0.51380998
v 0.04169286 0.16533200 0.51880997
v 0.04399987 0.15783501 0.51380998
v 0.04399987 0.15783501 0.51880997
v 0.04496986 0.15005089 0.51380998
v 0.04496986 0.15005089 0.51880997
v 0.04457283 0.14221700 0.51380998
v 0.04457283 0.14221700 0.51880997
v 0.04282184 0.13457100 0.51380998
v 0.04282184 0.13457100 0.51880997
v 0.03976984 0.12734500 0.51380998
v 0.03976984 0.12734500 0.51880997
v 0.03550984 0.12075900 0.51380998
v 0.03550984 0.12075900 0.51880997
v 0.03017087 0.11501300 0.51380998
v 0.03017087 0.11501300 0.51880997
v 0.02391488 0.11028100 0.51380998
v 0.02391488 0.11028100 0.51880997
v 0.01693184 0.10670700 0.51380998
v 0.01693184 0.10670700 0.51880997
v 0.00943483 0.10440000 0.51380998
v 0.00943483 0.10440000 0.51880997
v 0.00165088 0.10343000 0.51380998
v 0.00165088 0.10343000 0.51880997
v -0.00618307 0.10382690 0.51380998
v -0.00618307 0.10382690 0.51880997
v -0.01382909 0.10557800 0.51380998
v -0.01382910 0.10557800 0.51880997
v -0.01988510 0.11083900 0.51380998
v -0.01306109 0.10795700 0.51880997
v -0.01306108 0.10795700 0.51380998
v -0.01988510 0.11083900 0.51880997
v -0.02610509 0.11486300 0.51380998
v -0.02610509 0.11486300 0.51880997
v -0.03153310 0.11990500 0.51380998
v -0.03153310 0.11990500 0.51880997
v -0.03600207 0.12581401 0.51380998
v -0.03600207 0.12581401 0.51880997
v -0.03937707 0.13240901 0.51380998
v -0.03937707 0.13240901 0.51880997
v -0.04155508 0.13948891 0.51380998
v -0.04155508 0.13948891 0.51880997
v -0.04247110 0.14684100 0.51380998
v -0.04247110 0.14684100 0.51880997
v -0.04209707 0.15423889 0.51380998
v -0.04209707 0.15423889 0.51880997
v -0.04044310 0.16146091 0.51380998
v -0.04044310 0.16146091 0.51880997
v -0.03756110 0.16828500 0.51380998
v -0.03756110 0.16828500 0.51880997
v -0.03353707 0.17450491 0.51380998
v -0.03353707 0.17450491 0.51880997
v -0.02849505 0.17993300 0.51380998
v -0.02849505 0.17993300 0.51880997
v -0.02258608 0.18440200 0.51380998
v -0.02258608 0.18440200 0.51880997
v -0.01599107 0.18777700 0.51380998
v -0.01599107 0.18777700 0.51880997
v -0.00891106 0.18995491 0.51380998
v -0.00891106 0.18995491 0.51880997
v -0.00155906 0.19087100 0.51380998
v -0.00155906 0.19087100 0.51880997
v 0.00583889 0.19049700 0.51380998
v 0.00583888 0.19049700 0.51880997
v 0.01306088 0.18884300 0.51380998
v 0.01306087 0.18884300 0.51880997
v 0.01988484 0.18596099 0.51380998
v 0.01988484 0.18596099 0.51880997
v 0.02610487 0.18193699 0.51380998
v 0.02610487 0.18193699 0.51880997
v 0.03153284 0.17689499 0.51380998
v 0.03153284 0.17689499 0.51880997
v 0.03600188 0.17098591 0.51380998
v 0.03600188 0.17098591 0.51880997
v 0.03937687 0.16439100 0.51380998
v 0.03937687 0.16439100 0.51880997
v 0.04155488 0.15731101 0.51380998
v 0.04155488 0.15731101 0.51880997
v 0.04247088 0.14995900 0.51380998
v 0.04247088 0.14995900 0.51880997
v 0.04209686 0.14256100 0.51380998
v 0.04209686 0.14256100 0.51880997
v 0.04044284 0.13533901 0.51380998
v 0.04044284 0.13533901 0.51880997
v 0.03756088 0.12851501 0.51380998
v 0.03756088 0.12851501 0.51880997
v 0.03353687 0.12229500 0.51380998
v 0.03353687 0.12229500 0.51880997
v 0.02849485 0.11686700 0.51380998
v 0.02849485 0.11686700 0.51880997
v 0.02258587 0.11239800 0.51380998
v 0.02258587 0.11239800 0.51880997
v 0.01599086 0.10902300 0.51380998
v 0.01599086 0.10902300 0.51880997
v 0.00891085 0.10684500 0.51380998
v 0.00891085 0.10684500 0.51880997
v 0.00155885 0.10592900 0.51380998
v 0.00155885 0.10592900 0.51880997
v -0.00583909 0.10630300 0.51380998
v -0.00583909 0.10630300 0.51880997
v -0.01306108 0.10795700 0.51380998
v -0.01306109 0.10795700 0.51880997
f 1 2 3
f 1 3 4
f 5 3 6
f 5 4 3
f 7 8 2
f 7 2 1
f 9 6 10
f 9 5 6
f 11 12 8
f 11 8 7
f 13 10 14
f 13 9 10
f 15 16 12
f 15 12 11
f 17 14 18
f 17 13 14
f 19 20 16
f 19 16 15
f 21 17 18
f 21 18 22
f 23 24 20
f 23 20 19
f 25 21 22
f 25 22 26
f 27 24 23
f 27 28 24
f 29 25 26
f 29 26 30
f 31 32 28
f 31 28 27
f 33 29 30
f 33 30 34
f 35 32 31
f 35 36 32
f 37 33 34
f 37 38 33
f 39 36 35
f 39 35 40
f 41 38 37
f 41 42 38
f 43 40 44
f 43 39 40
f 45 42 41
f 45 46 42
f 47 43 44
f 47 44 48
f 49 46 45
f 49 50 46
f 51 48 52
f 51 47 48
f 53 50 49
f 53 54 50
f 55 52 56
f 55 51 52
f 57 56 58
f 57 55 56
f 59 54 53
f 59 60 54
f 61 58 62
f 61 57 58
f 63 64 60
f 63 60 59
f 65 64 63
f 65 66 64
f 67 62 68
f 67 61 62
f 69 70 66
f 69 66 65
f 71 67 68
f 71 72 70
f 71 68 72
f 71 70 69
f 73 74 75
f 73 76 74
f 77 78 74
f 77 74 76
f 79 75 80
f 79 73 75
f 81 82 78
f 81 78 77
f 83 80 84
f 83 79 80
f 85 86 82
f 85 82 81
f 87 84 88
f 87 83 84
f 89 90 86
f 89 86 85
f 91 88 92
f 91 87 88
f 93 90 89
f 93 94 90
f 95 92 96
f 95 91 92
f 97 94 93
f 97 98 94
f 99 95 96
f 99 96 100
f 101 98 97
f 101 102 98
f 103 100 104
f 103 99 100
f 105 102 101
f 105 106 102
f 107 103 104
f 107 104 108
f 109 106 105
f 109 105 110
f 111 107 108
f 111 112 107
f 113 109 110
f 113 110 114
f 115 116 112
f 115 112 111
f 117 113 114
f 117 114 118
f 119 116 115
f 119 120 116
f 121 117 118
f 121 118 122
f 123 124 120
f 123 120 119
f 125 121 122
f 125 122 126
f 127 128 124
f 127 124 123
f 129 130 128
f 129 128 127
f 131 125 126
f 131 126 132
f 133 134 130
f 133 130 129
f 135 132 136
f 135 131 132
f 137 135 136
f 137 136 138
f 139 140 134
f 139 134 133
f 141 138 142
f 141 137 138
f 143 140 139
f 143 142 144
f 143 144 140
f 143 141 142
f 145 146 147
f 145 147 148
f 149 148 150
f 149 145 148
f 151 150 152
f 151 149 150
f 153 152 154
f 153 151 152
f 155 154 156
f 155 153 154
f 157 155 156
f 157 156 158
f 159 157 158
f 159 158 160
f 161 159 160
f 161 160 162
f 163 161 162
f 163 162 164
f 165 163 164
f 165 164 166
f 167 165 166
f 167 166 168
f 169 167 168
f 169 168 170
f 171 169 170
f 171 170 172
f 173 171 172
f 173 172 174
f 175 173 174
f 175 174 176
f 177 175 176
f 177 176 178
f 179 177 178
f 179 178 180
f 181 179 180
f 181 180 182
f 183 182 184
f 183 181 182
f 185 184 186
f 185 183 184
f 187 186 188
f 187 185 186
f 189 188 190
f 189 187 188
f 191 190 192
f 191 189 190
f 193 192 194
f 193 191 192
f 195 194 196
f 195 193 194
f 197 196 198
f 197 195 196
f 199 198 200
f 199 197 198
f 201 200 202
f 201 199 200
f 203 202 204
f 203 201 202
f 205 204 206
f 205 203 204
f 207 206 208
f 207 205 206
f 209 207 208
f 209 208 210
f 211 209 210
f 211 210 212
f 213 211 212
f 213 212 214
f 215 213 214
f 215 214 216
f 217 215 216
f 217 216 218
f 219 220 221
f 219 222 220
f 223 224 222
f 223 222 219
f 225 226 224
f 225 224 223
f 227 228 226
f 227 226 225
f 229 230 228
f 229 228 227
f 231 230 229
f 231 232 230
f 233 232 231
f 233 234 232
f 235 234 233
f 235 236 234
f 237 236 235
f 237 238 236
f 239 238 237
f 239 240 238
f 241 240 239
f 241 242 240
f 243 242 241
f 243 244 242
f 245 244 243
f 245 246 244
f 247 246 245
f 247 248 246
f 249 248 247
f 249 250 248
f 251 250 249
f 251 252 250
f 253 252 251
f 253 254 252
f 255 254 253
f 255 256 254
f 257 256 255
f 257 258 256
f 259 258 257
f 259 260 258
f 261 262 260
f 261 260 259
f 263 264 262
f 263 262 261
f 265 266 264
f 265 264 263
f 267 268 266
f 267 266 265
f 269 270 268
f 269 268 267
f 271 272 270
f 271 270 269
f 273 274 272
f 273 272 271
f 275 276 274
f 275 274 273
f 277 278 276
f 277 276 275
f 279 280 278
f 279 278 277
f 281 282 280
f 281 280 279
f 283 282 281
f 283 284 282
f 285 284 283
f 285 286 284
f 287 286 285
f 287 288 286
f 289 288 287
f 289 290 288
f 291 290 289
f 291 292 290
f 293 294 295
f 293 296 294
f 297 298 294
f 297 294 296
f 299 295 300
f 299 293 295
f 301 302 298
f 301 298 297
f 303 300 304
f 303 299 300
f 305 306 302
f 305 302 301
f 307 304 308
f 307 303 304
f 309 306 305
f 309 310 306
f 311 308 312
f 311 307 308
f 313 310 309
f 313 314 310
f 315 311 312
f 315 312 316
f 317 314 313
f 317 318 314
f 319 315 316
f 319 316 320
f 321 318 317
f 321 322 318
f 323 320 324
f 323 319 320
f 325 326 322
f 325 322 321
f 327 324 328
f 327 323 324
f 329 326 325
f 329 325 330
f 331 327 328
f 331 332 327
f 333 329 330
f 333 330 334
f 335 336 332
f 335 332 331
f 337 333 334
f 337 334 338
f 339 340 336
f 339 336 335
f 341 337 338
f 341 338 342
f 343 340 339
f 343 344 340
f 345 341 342
f 345 342 346
f 347 348 344
f 347 344 343
f 349 346 350
f 349 345 346
f 351 352 348
f 351 348 347
f 353 350 354
f 353 349 350
f 355 356 352
f 355 352 351
f 357 354 358
f 357 353 354
f 359 356 355
f 359 360 356
f 361 357 358
f 361 358 362
f 363 360 359
f 363 361 362
f 363 362 364
f 363 364 360
f 365 366 367
f 365 367 368
f 369 368 370
f 369 365 368
f 371 370 372
f 371 369 370
f 373 372 374
f 373 371 372
f 375 374 376
f 375 373 374
f 377 375 376
f 377 376 378
f 379 377 378
f 379 378 380
f 381 379 380
f 381 380 382
f 383 381 382
f 383 382 384
f 385 383 384
f 385 384 386
f 387 385 386
f 387 386 388
f 389 387 388
f 389 388 390
f 391 389 390
f 391 390 392
f 393 391 392
f 393 392 394
f 395 393 394
f 395 394 396
f 397 395 396
f 397 396 398
f 399 397 398
f 399 398 400
f 401 399 400
f 401 400 402
f 403 401 402
f 403 402 404
f 405 403 404
f 405 404 406
f 407 406 408
f 407 405 406
f 409 408 410
f 409 407 408
f 411 410 412
f 411 409 410
f 413 412 414
f 413 411 412
f 415 414 416
f 415 413 414
f 417 416 418
f 417 415 416
f 419 418 420
f 419 417 418
f 421 420 422
f 421 419 420
f 423 422 424
f 423 421 422
f 425 424 426
f 425 423 424
f 427 426 428
f 427 425 426
f 429 427 428
f 429 428 430
f 431 429 430
f 431 430 432
f 433 431 432
f 433 432 434
f 435 433 434
f 435 434 436
f 437 435 436
f 437 436 438
f 439 440 441
f 439 442 440
f 443 444 442
f 443 442 439
f 445 446 444
f 445 444 443
f 447 448 446
f 447 446 445
f 449 450 448
f 449 448 447
f 451 452 450
f 451 450 449
f 453 452 451
f 453 454 452
f 455 454 453
f 455 456 454
f 457 456 455
f 457 458 456
f 459 458 457
f 459 460 458
f 461 460 459
f 461 462 460
f 463 462 461
f 463 464 462
f 465 464 463
f 465 466 464
f 467 466 465
f 467 468 466
f 469 468 467
f 469 470 468
f 471 470 469
f 471 472 470
f 473 472 471
f 473 474 472
f 475 474 473
f 475 476 474
f 477 476 475
f 477 478 476
f 479 478 477
f 479 480 478
f 481 482 480
f 481 480 479
f 483 484 482
f 483 482 481
f 485 486 484
f 485 484 483
f 487 488 486
f 487 486 485
f 489 490 488
f 489 488 487
f 491 492 490
f 491 490 489
f 493 494 492
f 493 492 491
f 495 496 494
f 495 494 493
f 497 498 496
f 497 496 495
f 499 500 498
f 499 498 497
f 501 500 499
f 501 502 500
f 503 502 501
f 503 504 502
f 505 504 503
f 505 506 504
f 507 506 505
f 507 508 506
f 509 508 507
f 509 510 508
f 511 510 509
f 511 512 510
f 513 514 515
f 513 515 516
f 517 515 518
f 517 516 515
f 519 520 514
f 519 514 513
f 521 518 522
f 521 517 518
f 523 524 520
f 523 520 519
f 525 522 526
f 525 521 522
f 527 528 524
f 527 524 523
f 529 525 526
f 529 526 530
f 531 532 528
f 531 528 527
f 533 529 530
f 533 530 534
f 535 532 531
f 535 536 532
f 537 533 534
f 537 534 538
f 539 536 535
f 539 540 536
f 541 537 538
f 541 538 542
f 543 544 540
f 543 540 539
f 545 542 546
f 545 541 542
f 547 548 544
f 547 544 543
f 549 545 546
f 549 550 545
f 551 548 547
f 551 547 552
f 553 550 549
f 553 554 550
f 555 551 552
f 555 552 556
f 557 554 553
f 557 558 554
f 559 556 560
f 559 555 556
f 561 558 557
f 561 562 558
f 563 559 560
f 563 560 564
f 565 562 561
f 565 566 562
f 567 564 568
f 567 563 564
f 569 568 570
f 569 567 568
f 571 572 566
f 571 566 565
f 573 570 574
f 573 569 570
f 575 576 572
f 575 572 571
f 577 576 575
f 577 578 576
f 579 574 580
f 579 573 574
f 581 578 577
f 581 582 578
f 583 579 580
f 583 582 581
f 583 584 582
f 583 580 584
f 585 586 587
f 585 588 586
f 589 590 586
f 589 586 588
f 591 587 592
f 591 585 587
f 593 594 590
f 593 590 589
f 595 592 596
f 595 591 592
f 597 598 594
f 597 594 593
f 599 596 600
f 599 595 596
f 601 598 597
f 601 602 598
f 603 600 604
f 603 599 600
f 605 602 601
f 605 606 602
f 607 603 604
f 607 604 608
f 609 606 605
f 609 610 606
f 611 607 608
f 611 608 612
f 613 610 609
f 613 614 610
f 615 612 616
f 615 611 612
f 617 618 614
f 617 614 613
f 619 616 620
f 619 615 616
f 621 618 617
f 621 617 622
f 623 619 620
f 623 624 619
f 625 621 622
f 625 622 626
f 627 624 623
f 627 628 624
f 629 625 626
f 629 626 630
f 631 632 628
f 631 628 627
f 633 629 630
f 633 630 634
f 635 632 631
f 635 636 632
f 637 633 634
f 637 634 638
f 639 640 636
f 639 636 635
f 641 642 640
f 641 640 639
f 643 638 644
f 643 637 638
f 645 646 642
f 645 642 641
f 647 644 648
f 647 643 644
f 649 647 648
f 649 648 650
f 651 652 646
f 651 646 645
f 653 649 650
f 653 650 654
f 655 652 651
f 655 653 654
f 655 654 656
f 655 656 652
f 657 658 659
f 657 659 660
f 661 660 662
f 661 657 660
f 663 662 664
f 663 661 662
f 665 664 666
f 665 663 664
f 667 666 668
f 667 665 666
f 669 667 668
f 669 668 670
f 671 669 670
f 671 670 672
f 673 671 672
f 673 672 674
f 675 673 674
f 675 674 676
f 677 675 676
f 677 676 678
f 679 677 678
f 679 678 680
f 681 679 680
f 681 680 682
f 683 681 682
f 683 682 684
f 685 683 684
f 685 684 686
f 687 685 686
f 687 686 688
f 689 687 688
f 689 688 690
f 691 689 690
f 691 690 692
f 693 691 692
f 693 692 694
f 695 694 696
f 695 693 694
f 697 696 698
f 697 695 696
f 699 698 700
f 699 697 698
f 701 700 702
f 701 699 700
f 703 702 704
f 703 701 702
f 705 704 706
f 705 703 704
f 707 706 708
f 707 705 706
f 709 708 710
f 709 707 708
f 711 710 712
f 711 709 710
f 713 712 714
f 713 711 712
f 715 714 716
f 715 713 714
f 717 716 718
f 717 715 716
f 719 718 720
f 719 717 718
f 721 719 720
f 721 720 722
f 723 721 722
f 723 722 724
f 725 723 724
f 725 724 726
f 727 725 726
f 727 726 728
f 729 727 728
f 729 728 730
f 731 732 733
f 731 734 732
f 735 736 734
f 735 734 731
f 737 738 736
f 737 736 735
f 739 740 738
f 739 738 737
f 741 742 740
f 741 740 739
f 743 742 741
f 743 744 742
f 745 744 743
f 745 746 744
f 747 746 745
f 747 748 746
f 749 748 747
f 749 750 748
f 751 750 749
f 751 752 750
f 753 752 751
f 753 754 752
f 755 754 753
f 755 756 754
f 757 756 755
f 757 758 756
f 759 758 757
f 759 760 758
f 761 760 759
f 761 762 760
f 763 762 761
f 763 764 762
f 765 764 763
f 765 766 764
f 767 766 765
f 767 768 766
f 769 768 767
f 769 770 768
f 771 770 769
f 771 772 770
f 773 774 772
f 773 772 771
f 775 776 774
f 775 774 773
f 777 778 776
f 777 776 775
f 779 780 778
f 779 778 777
f 781 782 780
f 781 780 779
f 783 784 782
f 783 782 781
f 785 786 784
f 785 784 783
f 787 788 786
f 787 786 785
f 789 790 788
f 789 788 787
f 791 792 790
f 791 790 789
f 793 794 792
f 793 792 791
f 795 794 793
f 795 796 794
f 797 796 795
f 797 798 796
f 799 798 797
f 799 800 798
f 801 800 799
f 801 802 800
f 803 802 801
f 803 804 802

