# https://github.com/mikedh/trimesh
v -0.05694496 -0.06786495 0.12000000
v -0.05913096 -0.07046896 0.12000000
v -0.04599595 -0.07966697 0.12000000
v -0.06786495 -0.05694496 0.12000000
v -0.07046896 -0.05913096 0.12000000
v -0.04429596 -0.07672196 0.12000000
v -0.07672196 -0.04429596 0.12000000
v -0.07966697 -0.04599595 0.12000000
v -0.03029996 -0.08324897 0.12000000
v -0.03146296 -0.08644396 0.12000000
v -0.08324897 -0.03029996 0.12000000
v -0.08644396 -0.03146296 0.12000000
v -0.01597398 -0.09059393 0.12000000
v -0.09059399 -0.01597392 0.12000000
v -0.01538395 -0.08724492 0.12000000
v -0.08724498 -0.01538395 0.12000000
v -0.09199100 0.00000000 0.12000000
v 0.00000000 -0.08859097 0.12000000
v 0.00000000 -0.09199094 0.12000000
v -0.08859097 0.00000000 0.12000000
v -0.09059399 0.01597398 0.12000000
v 0.01538395 -0.08724492 0.12000000
v 0.01597398 -0.09059393 0.12000000
v -0.08724498 0.01538401 0.12000000
v 0.03029996 -0.08324897 0.12000000
v 0.03146296 -0.08644396 0.12000000
v -0.08324897 0.03030002 0.12000000
v -0.08644396 0.03146302 0.12000000
v 0.04429596 -0.07672196 0.12000000
v 0.04599595 -0.07966697 0.12000000
v -0.07672196 0.04429602 0.12000000
v -0.07966697 0.04599601 0.12000000
v -0.07046896 0.05913102 0.12000000
v 0.05694496 -0.06786495 0.12000000
v 0.05913096 -0.07046896 0.12000000
v -0.06786495 0.05694502 0.12000000
v -0.05694496 0.06786501 0.12000000
v 0.07046896 -0.05913096 0.12000000
v 0.06786495 -0.05694496 0.12000000
v -0.05913096 0.07046902 0.12000000
v 0.07966697 -0.04599595 0.12000000
v 0.07672196 -0.04429596 0.12000000
v -0.04599595 0.07966703 0.12000000
v -0.04429596 0.07672202 0.12000000
v 0.08644396 -0.03146296 0.12000000
v 0.08324897 -0.03029996 0.12000000
v -0.03146296 0.08644402 0.12000000
v -0.03029996 0.08324903 0.12000000
v 0.08724498 -0.01538395 0.12000000
v -0.01538395 0.08724498 0.12000000
v 0.09059399 -0.01597392 0.12000000
v -0.01597398 0.09059399 0.12000000
v 0.09199100 0.00000000 0.12000000
v 0.08859097 0.00000000 0.12000000
v 0.00000000 0.09199100 0.12000000
v 0.00000000 0.08859097 0.12000000
v 0.08724498 0.01538401 0.12000000
v 0.01538395 0.08724498 0.12000000
v 0.09059399 0.01597398 0.12000000
v 0.01597398 0.09059399 0.12000000
v 0.03029996 0.08324903 0.12000000
v 0.08644396 0.03146302 0.12000000
v 0.08324897 0.03030002 0.12000000
v 0.03146296 0.08644402 0.12000000
v 0.07966697 0.04599601 0.12000000
v 0.07672196 0.04429602 0.12000000
v 0.04599595 0.07966703 0.12000000
v 0.04429596 0.07672202 0.12000000
v 0.07046896 0.05913102 0.12000000
v 0.06786495 0.05694502 0.12000000
v 0.05913096 0.07046902 0.12000000
v 0.05694496 0.06786501 0.12000000
v 0.01538395 0.08724498 0.12000000
v 0.00000000 0.08846503 0.13450000
v 0.01536196 0.08712100 0.13450000
v 0.00000000 0.08859097 0.12000000
v 0.03029996 0.08324903 0.12000000
v 0.03025698 0.08313000 0.13450000
v 0.04429596 0.07672202 0.12000000
v 0.04423195 0.07661300 0.13450000
v 0.05686396 0.06776803 0.13450000
v 0.05694496 0.06786501 0.12000000
v 0.06776797 0.05686402 0.13450000
v 0.06786495 0.05694502 0.12000000
v 0.07672196 0.04429602 0.12000000
v 0.07661300 0.04423201 0.13450000
v 0.08313000 0.03025698 0.13450000
v 0.08324897 0.03030002 0.12000000
v 0.08712100 0.01536202 0.13450000
v 0.08724498 0.01538401 0.12000000
v 0.08859097 0.00000000 0.12000000
v 0.08846497 0.00000000 0.13450000
v 0.08724498 -0.01538395 0.12000000
v 0.08712100 -0.01536196 0.13450000
v 0.08324897 -0.03029996 0.12000000
v 0.08313000 -0.03025692 0.13450000
v 0.07672196 -0.04429596 0.12000000
v 0.07661300 -0.04423195 0.13450000
v 0.06786495 -0.05694496 0.12000000
v 0.06776797 -0.05686396 0.13450000
v 0.05694496 -0.06786495 0.12000000
v 0.05686396 -0.06776797 0.13450000
v 0.04429596 -0.07672196 0.12000000
v 0.04423195 -0.07661294 0.13450000
v 0.03029996 -0.08324897 0.12000000
v 0.03025698 -0.08312994 0.13450000
v 0.01538395 -0.08724492 0.12000000
v 0.01536196 -0.08712095 0.13450000
v 0.00000000 -0.08846497 0.13450000
v 0.00000000 -0.08859097 0.12000000
v -0.01538395 -0.08724492 0.12000000
v -0.01536196 -0.08712095 0.13450000
v -0.03029996 -0.08324897 0.12000000
v -0.03025698 -0.08312994 0.13450000
v -0.04429596 -0.07672196 0.12000000
v -0.04423195 -0.07661294 0.13450000
v -0.05694496 -0.06786495 0.12000000
v -0.05686396 -0.06776797 0.13450000
v -0.06786495 -0.05694496 0.12000000
v -0.06776797 -0.05686396 0.13450000
v -0.07672196 -0.04429596 0.12000000
v -0.07661300 -0.04423195 0.13450000
v -0.08313000 -0.03025692 0.13450000
v -0.08324897 -0.03029996 0.12000000
v -0.08724498 -0.01538395 0.12000000
v -0.08712100 -0.01536196 0.13450000
v -0.08846497 0.00000000 0.13450000
v -0.08859097 0.00000000 0.12000000
v -0.08724498 0.01538401 0.12000000
v -0.08712100 0.01536202 0.13450000
v -0.08313000 0.03025698 0.13450000
v -0.08324897 0.03030002 0.12000000
v -0.07661300 0.04423201 0.13450000
v -0.07672196 0.04429602 0.12000000
v -0.06786495 0.05694502 0.12000000
v -0.06776797 0.05686402 0.13450000
v -0.05686396 0.06776803 0.13450000
v -0.05694496 0.06786501 0.12000000
v -0.04423195 0.07661300 0.13450000
v -0.04429596 0.07672202 0.12000000
v -0.03029996 0.08324903 0.12000000
v -0.03025698 0.08313000 0.13450000
v -0.01538395 0.08724498 0.12000000
v -0.01536196 0.08712100 0.13450000
v 0.00000000 0.08859097 0.12000000
v 0.00000000 0.08846503 0.13450000
v -0.08313000 -0.03025692 0.13450000
v -0.07661300 -0.04423195 0.13450000
v -0.06776797 -0.05686396 0.13450000
v -0.05686396 -0.06776797 0.13450000
v -0.04423195 -0.07661294 0.13450000
v 0.00000000 -0.08846497 0.13450000
v -0.03025698 -0.08312994 0.13450000
v -0.01536196 -0.08712095 0.13450000
v -0.08846497 0.00000000 0.13450000
v -0.08712100 -0.01536196 0.13450000
v 0.04423195 -0.07661294 0.13450000
v 0.01536196 -0.08712095 0.13450000
v 0.03025698 -0.08312994 0.13450000
v -0.07661300 0.04423201 0.13450000
v -0.08313000 0.03025698 0.13450000
v -0.08712100 0.01536202 0.13450000
v 0.05686396 -0.06776797 0.13450000
v -0.05686396 0.06776803 0.13450000
v -0.06776797 0.05686402 0.13450000
v 0.08313000 -0.03025692 0.13450000
v 0.06776797 -0.05686396 0.13450000
v 0.07661300 -0.04423195 0.13450000
v -0.03025698 0.08313000 0.13450000
v -0.04423195 0.07661300 0.13450000
v 0.08712100 0.01536202 0.13450000
v 0.08712100 -0.01536196 0.13450000
v 0.08846497 0.00000000 0.13450000
v 0.01536196 0.08712100 0.13450000
v 0.00000000 0.08846503 0.13450000
v -0.01536196 0.08712100 0.13450000
v 0.08313000 0.03025698 0.13450000
v 0.03025698 0.08313000 0.13450000
v 0.04423195 0.07661300 0.13450000
v 0.06776797 0.05686402 0.13450000
v 0.07661300 0.04423201 0.13450000
v 0.05686396 0.06776803 0.13450000
v 0.03146594 -0.08645194 0.11900000
v 0.05913597 -0.07047593 0.11900000
v 0.04600000 -0.07967394 0.11900000
v 0.09060198 0.01597601 0.11900000
v 0.09200000 0.00000000 0.11900000
v 0.09060198 -0.01597595 0.11900000
v 0.08645200 0.03146600 0.11900000
v -0.03146594 -0.08645194 0.11900000
v 0.00000000 -0.09199994 0.11900000
v -0.01597595 -0.09060198 0.11900000
v 0.07967400 0.04600000 0.11900000
v 0.08645200 -0.03146594 0.11900000
v 0.05913597 0.07047599 0.11900000
v 0.01597595 -0.09060198 0.11900000
v 0.07047599 -0.05913597 0.11900000
v 0.07967400 -0.04599994 0.11900000
v 0.07047599 0.05913603 0.11900000
v 0.03146594 0.08645200 0.11900000
v 0.04600000 0.07967400 0.11900000
v 0.01597595 0.09060198 0.11900000
v 0.00000000 0.09200000 0.11900000
v -0.09200000 0.00000000 0.11900000
v -0.08645200 -0.03146594 0.11900000
v -0.09060198 -0.01597595 0.11900000
v -0.07967400 -0.04599994 0.11900000
v -0.07047599 -0.05913597 0.11900000
v -0.01597595 0.09060198 0.11900000
v -0.09060198 0.01597601 0.11900000
v -0.07967400 0.04600000 0.11900000
v -0.08645200 0.03146600 0.11900000
v -0.05913597 -0.07047593 0.11900000
v -0.05913597 0.07047599 0.11900000
v -0.03146594 0.08645200 0.11900000
v -0.04600000 0.07967400 0.11900000
v -0.04600000 -0.07967394 0.11900000
v -0.07047599 0.05913603 0.11900000
v 0.01597595 0.09060198 0.11900000
v 0.00000000 0.09199100 0.12000000
v 0.01597398 0.09059399 0.12000000
v 0.00000000 0.09200000 0.11900000
v 0.03146594 0.08645200 0.11900000
v 0.03146296 0.08644402 0.12000000
v 0.04600000 0.07967400 0.11900000
v 0.04599595 0.07966703 0.12000000
v 0.05913597 0.07047599 0.11900000
v 0.05913096 0.07046902 0.12000000
v 0.07047599 0.05913603 0.11900000
v 0.07046896 0.05913102 0.12000000
v 0.07967400 0.04600000 0.11900000
v 0.07966697 0.04599601 0.12000000
v 0.08645200 0.03146600 0.11900000
v 0.08644396 0.03146302 0.12000000
v 0.09060198 0.01597601 0.11900000
v 0.09059399 0.01597398 0.12000000
v 0.09200000 0.00000000 0.11900000
v 0.09199100 0.00000000 0.12000000
v 0.09060198 -0.01597595 0.11900000
v 0.09059399 -0.01597392 0.12000000
v 0.08645200 -0.03146594 0.11900000
v 0.08644396 -0.03146296 0.12000000
v 0.07967400 -0.04599994 0.11900000
v 0.07966697 -0.04599595 0.12000000
v 0.07047599 -0.05913597 0.11900000
v 0.07046896 -0.05913096 0.12000000
v 0.05913597 -0.07047593 0.11900000
v 0.05913096 -0.07046896 0.12000000
v 0.04600000 -0.07967394 0.11900000
v 0.04599595 -0.07966697 0.12000000
v 0.03146594 -0.08645194 0.11900000
v 0.03146296 -0.08644396 0.12000000
v 0.01597595 -0.09060198 0.11900000
v 0.01597398 -0.09059393 0.12000000
v 0.00000000 -0.09199994 0.11900000
v 0.00000000 -0.09199094 0.12000000
v -0.01597595 -0.09060198 0.11900000
v -0.01597398 -0.09059393 0.12000000
v -0.03146594 -0.08645194 0.11900000
v -0.03146296 -0.08644396 0.12000000
v -0.04600000 -0.07967394 0.11900000
v -0.04599595 -0.07966697 0.12000000
v -0.05913597 -0.07047593 0.11900000
v -0.05913096 -0.07046896 0.12000000
v -0.07046896 -0.05913096 0.12000000
v -0.07047599 -0.05913597 0.11900000
v -0.07967400 -0.04599994 0.11900000
v -0.07966697 -0.04599595 0.12000000
v -0.08645200 -0.03146594 0.11900000
v -0.08644396 -0.03146296 0.12000000
v -0.09060198 -0.01597595 0.11900000
v -0.09059399 -0.01597392 0.12000000
v -0.09200000 0.00000000 0.11900000
v -0.09199100 0.00000000 0.12000000
v -0.09060198 0.01597601 0.11900000
v -0.09059399 0.01597398 0.12000000
v -0.08644396 0.03146302 0.12000000
v -0.08645200 0.03146600 0.11900000
v -0.07967400 0.04600000 0.11900000
v -0.07966697 0.04599601 0.12000000
v -0.07047599 0.05913603 0.11900000
v -0.07046896 0.05913102 0.12000000
v -0.05913597 0.07047599 0.11900000
v -0.05913096 0.07046902 0.12000000
v -0.04600000 0.07967400 0.11900000
v -0.04599595 0.07966703 0.12000000
v -0.03146594 0.08645200 0.11900000
v -0.03146296 0.08644402 0.12000000
v -0.01597595 0.09060198 0.11900000
v -0.01597398 0.09059399 0.12000000
v 0.00000000 0.09199100 0.12000000
v 0.00000000 0.09200000 0.11900000
f 1 2 3
f 4 5 2
f 4 2 1
f 6 1 3
f 7 8 5
f 7 5 4
f 9 3 10
f 9 6 3
f 11 12 8
f 11 8 7
f 13 9 10
f 14 12 11
f 15 9 13
f 16 14 11
f 17 14 16
f 18 15 13
f 18 13 19
f 20 17 16
f 21 17 20
f 22 18 19
f 22 19 23
f 24 21 20
f 25 22 23
f 25 23 26
f 27 28 21
f 27 21 24
f 29 26 30
f 29 25 26
f 31 32 28
f 31 28 27
f 33 32 31
f 34 30 35
f 34 29 30
f 36 33 31
f 37 33 36
f 38 34 35
f 38 39 34
f 40 33 37
f 41 39 38
f 41 42 39
f 43 37 44
f 43 40 37
f 45 46 42
f 45 42 41
f 47 44 48
f 47 43 44
f 49 46 45
f 50 47 48
f 51 49 45
f 52 47 50
f 53 54 49
f 53 49 51
f 55 50 56
f 55 52 50
f 57 54 53
f 58 55 56
f 59 57 53
f 60 55 58
f 61 60 58
f 62 63 57
f 62 57 59
f 64 60 61
f 65 66 63
f 65 63 62
f 67 64 61
f 67 61 68
f 69 66 65
f 69 70 66
f 71 67 68
f 71 70 69
f 71 72 70
f 71 68 72
f 73 74 75
f 73 76 74
f 77 75 78
f 77 73 75
f 79 78 80
f 79 77 78
f 81 79 80
f 82 79 81
f 83 82 81
f 84 82 83
f 85 84 83
f 85 83 86
f 87 85 86
f 88 85 87
f 89 88 87
f 90 88 89
f 91 90 89
f 91 89 92
f 93 91 92
f 93 92 94
f 95 93 94
f 95 94 96
f 97 95 96
f 97 96 98
f 99 98 100
f 99 97 98
f 101 100 102
f 101 99 100
f 103 102 104
f 103 101 102
f 105 104 106
f 105 103 104
f 107 106 108
f 107 105 106
f 109 107 108
f 110 107 109
f 111 109 112
f 111 110 109
f 113 112 114
f 113 111 112
f 115 114 116
f 115 113 114
f 117 116 118
f 117 115 116
f 119 118 120
f 119 117 118
f 121 120 122
f 121 119 120
f 123 121 122
f 124 121 123
f 125 123 126
f 125 124 123
f 127 125 126
f 128 125 127
f 129 127 130
f 129 128 127
f 131 129 130
f 132 129 131
f 133 132 131
f 134 132 133
f 135 134 133
f 135 133 136
f 137 135 136
f 138 135 137
f 139 138 137
f 140 138 139
f 141 139 142
f 141 140 139
f 143 142 144
f 143 141 142
f 145 144 146
f 145 143 144
f 147 148 149
f 147 149 150
f 147 150 151
f 152 151 153
f 152 153 154
f 155 156 147
f 157 152 158
f 157 158 159
f 157 151 152
f 160 161 162
f 163 151 157
f 164 165 160
f 164 162 155
f 164 160 162
f 166 163 167
f 166 167 168
f 166 147 151
f 166 151 163
f 169 170 164
f 171 166 172
f 171 172 173
f 174 175 176
f 177 155 147
f 177 164 155
f 177 147 166
f 177 166 171
f 178 176 169
f 178 174 176
f 179 169 164
f 179 178 169
f 179 164 177
f 180 177 181
f 182 177 180
f 182 179 177
f 183 184 185
f 186 187 188
f 189 186 188
f 190 191 192
f 193 188 194
f 193 189 188
f 195 183 196
f 195 197 184
f 195 198 197
f 195 194 198
f 195 199 193
f 195 184 183
f 195 193 194
f 200 201 195
f 202 196 191
f 202 195 196
f 202 200 195
f 203 202 191
f 204 205 206
f 204 207 205
f 204 208 207
f 209 203 191
f 210 208 204
f 211 210 212
f 211 213 208
f 211 208 210
f 214 215 209
f 214 216 215
f 214 217 213
f 214 190 217
f 214 191 190
f 214 209 191
f 218 213 211
f 218 214 213
f 219 220 221
f 219 222 220
f 223 221 224
f 223 219 221
f 225 224 226
f 225 223 224
f 227 226 228
f 227 225 226
f 229 228 230
f 229 227 228
f 231 230 232
f 231 229 230
f 233 231 232
f 233 232 234
f 235 233 234
f 235 234 236
f 237 235 236
f 237 236 238
f 239 237 238
f 239 238 240
f 241 239 240
f 241 240 242
f 243 241 242
f 243 242 244
f 245 244 246
f 245 243 244
f 247 246 248
f 247 245 246
f 249 248 250
f 249 247 248
f 251 250 252
f 251 249 250
f 253 252 254
f 253 251 252
f 255 254 256
f 255 253 254
f 257 256 258
f 257 255 256
f 259 258 260
f 259 257 258
f 261 260 262
f 261 259 260
f 263 262 264
f 263 261 262
f 265 263 264
f 266 263 265
f 267 265 268
f 267 266 265
f 269 268 270
f 269 267 268
f 271 270 272
f 271 269 270
f 273 272 274
f 273 271 272
f 275 274 276
f 275 273 274
f 277 275 276
f 278 275 277
f 279 277 280
f 279 278 277
f 281 280 282
f 281 279 280
f 283 281 282
f 283 282 284
f 285 283 284
f 285 284 286
f 287 286 288
f 287 285 286
f 289 288 290
f 289 287 288
f 291 289 290
f 292 289 291

