# https://github.com/mikedh/trimesh
v 0.07133096 -0.02622795 0.79650003
v 0.05805796 -0.04904294 0.79650003
v 0.06569200 -0.03821593 0.79650003
v 0.01295095 -0.07488793 0.79650003
v 0.02575796 -0.07150197 0.79650003
v 0.03778296 -0.06594294 0.79650003
v 0.04865998 -0.05837994 0.79650003
v 0.07480198 -0.01344394 0.79650003
v -0.01344394 -0.07480198 0.79650003
v -0.00025000 -0.07599997 0.79650003
v 0.07150197 0.02575802 0.79650003
v 0.07599997 -0.00024998 0.79650003
v 0.07488799 0.01295101 0.79650003
v -0.03821599 -0.06569194 0.79650003
v -0.02622795 -0.07133096 0.79650003
v 0.05837994 0.04865998 0.79650003
v 0.06594300 0.03778302 0.79650003
v 0.04904299 0.05805802 0.79650003
v -0.05837994 -0.04865998 0.79650003
v -0.04904299 -0.05805796 0.79650003
v 0.01344394 0.07480198 0.79650003
v 0.03821599 0.06569200 0.79650003
v 0.02622795 0.07133102 0.79650003
v -0.07488799 -0.01295095 0.79650003
v -0.07150197 -0.02575796 0.79650003
v -0.06594300 -0.03778296 0.79650003
v -0.07599997 0.00025004 0.79650003
v -0.01295095 0.07488799 0.79650003
v 0.00025000 0.07600003 0.79650003
v -0.07133096 0.02622902 0.79650003
v -0.07480198 0.01344400 0.79650003
v -0.03778296 0.06594300 0.79650003
v -0.02575796 0.07150202 0.79650003
v -0.04865998 0.05838000 0.79650003
v -0.05805796 0.04904299 0.79650003
v -0.06569200 0.03821599 0.79650003
v -0.07488799 -0.01295095 0.79650003
v -0.07599997 0.00025004 0.79650003
v -0.07599997 0.00025004 0.79549998
v -0.07488799 -0.01295095 0.79549998
v -0.07150197 -0.02575796 0.79650003
v -0.07150197 -0.02575796 0.79549998
v -0.06594300 -0.03778296 0.79650003
v -0.06594300 -0.03778296 0.79549998
v -0.05837994 -0.04865998 0.79650003
v -0.05837994 -0.04865998 0.79549998
v -0.04904299 -0.05805796 0.79650003
v -0.04904299 -0.05805796 0.79549998
v -0.03821599 -0.06569194 0.79650003
v -0.03821599 -0.06569194 0.79549998
v -0.02622795 -0.07133096 0.79549998
v -0.02622795 -0.07133096 0.79650003
v -0.01344394 -0.07480198 0.79650003
v -0.01344394 -0.07480198 0.79549998
v -0.00025000 -0.07599997 0.79650003
v -0.00025000 -0.07599997 0.79549998
v 0.01295095 -0.07488793 0.79650003
v 0.01295095 -0.07488793 0.79549998
v 0.02575796 -0.07150197 0.79650003
v 0.02575796 -0.07150197 0.79549998
v 0.03778296 -0.06594294 0.79549998
v 0.03778296 -0.06594294 0.79650003
v 0.04865998 -0.05837994 0.79650003
v 0.04865998 -0.05837994 0.79549998
v 0.05805796 -0.04904294 0.79650003
v 0.05805796 -0.04904294 0.79549998
v 0.06569200 -0.03821593 0.79650003
v 0.06569200 -0.03821593 0.79549998
v 0.07133096 -0.02622795 0.79650003
v 0.07133096 -0.02622795 0.79549998
v 0.07480198 -0.01344394 0.79650003
v 0.07480198 -0.01344394 0.79549998
v 0.07599997 -0.00024998 0.79650003
v 0.07599997 -0.00024998 0.79549998
v 0.07488799 0.01295101 0.79650003
v 0.07488799 0.01295101 0.79549998
v 0.07150197 0.02575802 0.79650003
v 0.07150197 0.02575802 0.79549998
v 0.06594300 0.03778302 0.79650003
v 0.06594300 0.03778302 0.79549998
v 0.05837994 0.04865998 0.79650003
v 0.05837994 0.04865998 0.79549998
v 0.04904299 0.05805802 0.79650003
v 0.04904299 0.05805802 0.79549998
v 0.03821599 0.06569200 0.79650003
v 0.03821599 0.06569200 0.79549998
v 0.02622795 0.07133102 0.79650003
v 0.02622795 0.07133102 0.79549998
v 0.01344394 0.07480198 0.79650003
v 0.01344394 0.07480198 0.79549998
v 0.00025000 0.07600003 0.79650003
v 0.00025000 0.07600003 0.79549998
v -0.01295095 0.07488799 0.79650003
v -0.01295095 0.07488799 0.79549998
v -0.02575796 0.07150202 0.79650003
v -0.02575796 0.07150202 0.79549998
v -0.03778296 0.06594300 0.79650003
v -0.03778296 0.06594300 0.79549998
v -0.04865998 0.05838000 0.79650003
v -0.04865998 0.05838000 0.79549998
v -0.05805796 0.04904299 0.79650003
v -0.05805796 0.04904299 0.79549998
v -0.06569200 0.03821599 0.79650003
v -0.06569200 0.03821599 0.79549998
v -0.07133096 0.02622902 0.79650003
v -0.07133096 0.02622902 0.79549998
v -0.07480198 0.01344400 0.79650003
v -0.07480198 0.01344400 0.79549998
v -0.07599997 0.00025004 0.79549998
v -0.05606800 -0.04673296 0.79549998
v -0.05837994 -0.04865998 0.79549998
v -0.06594300 -0.03778296 0.79549998
v -0.04904299 -0.05805796 0.79549998
v -0.04710096 -0.05575895 0.79549998
v -0.03670299 -0.06309098 0.79549998
v -0.03821599 -0.06569194 0.79549998
v -0.06333100 -0.03628695 0.79549998
v -0.02622795 -0.07133096 0.79549998
v -0.07150197 -0.02575796 0.79549998
v -0.02518999 -0.06850594 0.79549998
v -0.06866997 -0.02473795 0.79549998
v -0.01291096 -0.07183897 0.79549998
v -0.01344394 -0.07480198 0.79549998
v -0.07192200 -0.01243793 0.79549998
v -0.07488799 -0.01295095 0.79549998
v -0.07599997 0.00025004 0.79549998
v -0.00024000 -0.07298994 0.79549998
v -0.00025000 -0.07599997 0.79549998
v -0.07299000 0.00024003 0.79549998
v 0.01243799 -0.07192194 0.79549998
v 0.01295095 -0.07488793 0.79549998
v -0.07183897 0.01291102 0.79549998
v -0.07480198 0.01344400 0.79549998
v -0.07133096 0.02622902 0.79549998
v 0.02473795 -0.06866997 0.79549998
v 0.02575796 -0.07150197 0.79549998
v -0.06850600 0.02518999 0.79549998
v 0.03778296 -0.06594294 0.79549998
v 0.03628695 -0.06333094 0.79549998
v -0.06309098 0.03670299 0.79549998
v -0.06569200 0.03821599 0.79549998
v -0.05805796 0.04904299 0.79549998
v 0.04673296 -0.05606794 0.79549998
v 0.04865998 -0.05837994 0.79549998
v -0.05575895 0.04710102 0.79549998
v 0.05805796 -0.04904294 0.79549998
v 0.05575895 -0.04710096 0.79549998
v -0.04865998 0.05838000 0.79549998
v -0.04673296 0.05606800 0.79549998
v 0.06309098 -0.03670293 0.79549998
v 0.06569200 -0.03821593 0.79549998
v -0.03778296 0.06594300 0.79549998
v -0.03628695 0.06333100 0.79549998
v 0.06850600 -0.02518993 0.79549998
v -0.02473795 0.06867003 0.79549998
v 0.07133096 -0.02622795 0.79549998
v -0.02575796 0.07150202 0.79549998
v -0.01243799 0.07192200 0.79549998
v 0.07480198 -0.01344394 0.79549998
v 0.07183897 -0.01291096 0.79549998
v -0.01295095 0.07488799 0.79549998
v 0.00024000 0.07299000 0.79549998
v 0.07599997 -0.00024998 0.79549998
v 0.07299000 -0.00023997 0.79549998
v 0.00025000 0.07600003 0.79549998
v 0.07488799 0.01295101 0.79549998
v 0.07192200 0.01243799 0.79549998
v 0.01344394 0.07480198 0.79549998
v 0.01291096 0.07183903 0.79549998
v 0.02518999 0.06850600 0.79549998
v 0.07150197 0.02575802 0.79549998
v 0.06866997 0.02473801 0.79549998
v 0.02622795 0.07133102 0.79549998
v 0.06594300 0.03778302 0.79549998
v 0.06333100 0.03628700 0.79549998
v 0.03821599 0.06569200 0.79549998
v 0.03670299 0.06309098 0.79549998
v 0.05837994 0.04865998 0.79549998
v 0.05606800 0.04673302 0.79549998
v 0.04710096 0.05575901 0.79549998
v 0.04904299 0.05805802 0.79549998
v -0.07178497 -0.01241397 0.78750002
v -0.07299000 0.00024003 0.79549998
v -0.07284998 0.00024003 0.78750002
v -0.07192200 -0.01243793 0.79549998
v -0.06853896 -0.02469092 0.78750002
v -0.06866997 -0.02473795 0.79549998
v -0.06333100 -0.03628695 0.79549998
v -0.06321001 -0.03621697 0.78750002
v -0.05606800 -0.04673296 0.79549998
v -0.05595999 -0.04664295 0.78750002
v -0.04710096 -0.05575895 0.79549998
v -0.04701095 -0.05565196 0.78750002
v -0.03663295 -0.06296998 0.78750002
v -0.03670299 -0.06309098 0.79549998
v -0.02518999 -0.06850594 0.79549998
v -0.02514195 -0.06837493 0.78750002
v -0.01288598 -0.07170194 0.78750002
v -0.01291096 -0.07183897 0.79549998
v -0.00024000 -0.07298994 0.79549998
v -0.00024000 -0.07284992 0.78750002
v 0.01243799 -0.07192194 0.79549998
v 0.01241397 -0.07178497 0.78750002
v 0.02469098 -0.06853896 0.78750002
v 0.02473795 -0.06866997 0.79549998
v 0.03628695 -0.06333094 0.79549998
v 0.03621697 -0.06320995 0.78750002
v 0.04673296 -0.05606794 0.79549998
v 0.04664295 -0.05595993 0.78750002
v 0.05575895 -0.04710096 0.79549998
v 0.05565196 -0.04701095 0.78750002
v 0.06309098 -0.03670293 0.79549998
v 0.06296998 -0.03663295 0.78750002
v 0.06837499 -0.02514195 0.78750002
v 0.06850600 -0.02518993 0.79549998
v 0.07183897 -0.01291096 0.79549998
v 0.07170200 -0.01288592 0.78750002
v 0.07284998 -0.00023997 0.78750002
v 0.07299000 -0.00023997 0.79549998
v 0.07192200 0.01243799 0.79549998
v 0.07178497 0.01241403 0.78750002
v 0.06866997 0.02473801 0.79549998
v 0.06853896 0.02469098 0.78750002
v 0.06333100 0.03628700 0.79549998
v 0.06321001 0.03621703 0.78750002
v 0.05606800 0.04673302 0.79549998
v 0.05595999 0.04664301 0.78750002
v 0.04710096 0.05575901 0.79549998
v 0.04701095 0.05565202 0.78750002
v 0.03670299 0.06309098 0.79549998
v 0.03663295 0.06296998 0.78750002
v 0.02518999 0.06850600 0.79549998
v 0.02514195 0.06837499 0.78750002
v 0.01291096 0.07183903 0.79549998
v 0.01288598 0.07170200 0.78750002
v 0.00024000 0.07299000 0.79549998
v 0.00024000 0.07284998 0.78750002
v -0.01243799 0.07192200 0.79549998
v -0.01241397 0.07178503 0.78750002
v -0.02469098 0.06853902 0.78750002
v -0.02473795 0.06867003 0.79549998
v -0.03628695 0.06333100 0.79549998
v -0.03621697 0.06321001 0.78750002
v -0.04673296 0.05606800 0.79549998
v -0.04664295 0.05595999 0.78750002
v -0.05575895 0.04710102 0.79549998
v -0.05565196 0.04701101 0.78750002
v -0.06309098 0.03670299 0.79549998
v -0.06296998 0.03663301 0.78750002
v -0.06850600 0.02518999 0.79549998
v -0.06837499 0.02514201 0.78750002
v -0.07183897 0.01291102 0.79549998
v -0.07170200 0.01288598 0.78750002
v -0.07299000 0.00024003 0.79549998
v -0.07284998 0.00024003 0.78750002
v -0.00024000 -0.07284992 0.78750002
v -0.02514195 -0.06837493 0.78750002
v -0.03663295 -0.06296998 0.78750002
v -0.01288598 -0.07170194 0.78750002
v -0.07284998 0.00024003 0.78750002
v -0.06853896 -0.02469092 0.78750002
v -0.07178497 -0.01241397 0.78750002
v -0.06321001 -0.03621697 0.78750002
v -0.05595999 -0.04664295 0.78750002
v 0.01241397 -0.07178497 0.78750002
v -0.04701095 -0.05565196 0.78750002
v 0.03621697 -0.06320995 0.78750002
v 0.02469098 -0.06853896 0.78750002
v 0.04664295 -0.05595993 0.78750002
v -0.05565196 0.04701101 0.78750002
v -0.06837499 0.02514201 0.78750002
v -0.06296998 0.03663301 0.78750002
v -0.07170200 0.01288598 0.78750002
v 0.05565196 -0.04701095 0.78750002
v -0.02469098 0.06853902 0.78750002
v -0.04664295 0.05595999 0.78750002
v -0.03621697 0.06321001 0.78750002
v 0.07170200 -0.01288592 0.78750002
v 0.06296998 -0.03663295 0.78750002
v 0.06837499 -0.02514195 0.78750002
v 0.01288598 0.07170200 0.78750002
v -0.01241397 0.07178503 0.78750002
v 0.00024000 0.07284998 0.78750002
v 0.06853896 0.02469098 0.78750002
v 0.07284998 -0.00023997 0.78750002
v 0.07178497 0.01241403 0.78750002
v 0.02514195 0.06837499 0.78750002
v 0.04701095 0.05565202 0.78750002
v 0.06321001 0.03621703 0.78750002
v 0.05595999 0.04664301 0.78750002
v 0.03663295 0.06296998 0.78750002
f 1 2 3
f 4 5 6
f 4 6 7
f 4 7 2
f 4 1 8
f 4 2 1
f 9 10 4
f 9 4 8
f 11 12 13
f 14 15 9
f 16 8 12
f 16 11 17
f 16 9 8
f 16 12 11
f 16 14 9
f 18 14 16
f 19 20 14
f 21 22 23
f 24 25 26
f 24 26 19
f 24 19 14
f 27 24 14
f 28 18 22
f 28 21 29
f 28 22 21
f 30 31 27
f 32 28 33
f 34 28 32
f 34 14 18
f 34 18 28
f 34 27 14
f 34 30 27
f 35 30 34
f 35 36 30
f 37 38 39
f 37 39 40
f 41 40 42
f 41 37 40
f 43 42 44
f 43 41 42
f 45 44 46
f 45 43 44
f 47 46 48
f 47 45 46
f 49 48 50
f 49 50 51
f 49 47 48
f 52 49 51
f 53 52 51
f 53 51 54
f 55 53 54
f 55 54 56
f 57 55 56
f 57 56 58
f 59 57 58
f 59 58 60
f 59 60 61
f 62 59 61
f 63 62 61
f 63 61 64
f 65 63 64
f 65 64 66
f 67 65 66
f 67 66 68
f 69 67 68
f 69 68 70
f 71 69 70
f 71 70 72
f 73 71 72
f 73 72 74
f 75 73 74
f 75 74 76
f 77 76 78
f 77 75 76
f 79 77 78
f 79 78 80
f 81 80 82
f 81 79 80
f 83 82 84
f 83 81 82
f 85 84 86
f 85 83 84
f 87 86 88
f 87 85 86
f 89 88 90
f 89 87 88
f 91 90 92
f 91 89 90
f 93 92 94
f 93 91 92
f 95 94 96
f 95 93 94
f 97 96 98
f 97 95 96
f 99 97 98
f 99 98 100
f 101 99 100
f 101 100 102
f 103 101 102
f 103 102 104
f 105 103 104
f 105 104 106
f 107 105 106
f 107 106 108
f 38 107 108
f 38 108 109
f 110 111 112
f 110 113 111
f 110 114 113
f 115 116 113
f 115 113 114
f 117 110 112
f 118 116 115
f 119 117 112
f 120 118 115
f 121 117 119
f 122 123 118
f 122 118 120
f 124 121 119
f 124 119 125
f 126 124 125
f 127 123 122
f 127 128 123
f 129 124 126
f 130 131 128
f 130 128 127
f 132 126 133
f 132 129 126
f 134 132 133
f 135 131 130
f 135 136 131
f 137 132 134
f 138 136 135
f 139 138 135
f 140 137 134
f 140 134 141
f 142 140 141
f 143 144 138
f 143 138 139
f 145 140 142
f 146 144 143
f 146 143 147
f 148 145 142
f 148 149 145
f 150 146 147
f 151 146 150
f 152 149 148
f 152 153 149
f 154 151 150
f 155 153 152
f 156 151 154
f 157 155 152
f 158 155 157
f 159 154 160
f 159 156 154
f 161 158 157
f 162 158 161
f 163 160 164
f 163 159 160
f 165 162 161
f 166 164 167
f 166 163 164
f 168 169 162
f 168 162 165
f 170 169 168
f 171 167 172
f 171 166 167
f 173 170 168
f 174 172 175
f 174 171 172
f 176 170 173
f 176 177 170
f 178 174 175
f 178 175 179
f 178 179 180
f 181 178 180
f 181 177 176
f 181 180 177
f 182 183 184
f 185 183 182
f 186 185 182
f 187 185 186
f 188 186 189
f 188 187 186
f 190 189 191
f 190 188 189
f 192 191 193
f 192 190 191
f 194 192 193
f 195 192 194
f 196 195 194
f 196 194 197
f 198 196 197
f 199 196 198
f 200 199 198
f 200 198 201
f 202 200 201
f 202 201 203
f 204 202 203
f 205 202 204
f 206 205 204
f 206 204 207
f 208 206 207
f 208 207 209
f 210 208 209
f 210 209 211
f 212 210 211
f 212 211 213
f 214 212 213
f 215 212 214
f 216 215 214
f 216 214 217
f 218 216 217
f 219 216 218
f 220 219 218
f 220 218 221
f 222 220 221
f 222 221 223
f 224 223 225
f 224 222 223
f 226 225 227
f 226 224 225
f 228 227 229
f 228 226 227
f 230 229 231
f 230 228 229
f 232 231 233
f 232 230 231
f 234 233 235
f 234 232 233
f 236 235 237
f 236 234 235
f 238 237 239
f 238 236 237
f 240 238 239
f 241 238 240
f 242 240 243
f 242 241 240
f 244 243 245
f 244 242 243
f 246 244 245
f 246 245 247
f 248 246 247
f 248 247 249
f 250 248 249
f 250 249 251
f 252 250 251
f 252 251 253
f 254 252 253
f 254 253 255
f 256 257 258
f 256 259 257
f 260 261 262
f 260 263 261
f 260 264 263
f 265 266 264
f 265 258 266
f 265 256 258
f 267 268 265
f 269 267 265
f 270 271 272
f 270 273 271
f 270 260 273
f 274 265 264
f 274 269 265
f 275 276 277
f 275 270 276
f 275 260 270
f 278 279 274
f 278 280 279
f 278 264 260
f 278 274 264
f 281 282 283
f 284 285 278
f 284 286 285
f 284 278 260
f 284 260 275
f 287 275 282
f 287 282 281
f 288 289 284
f 288 290 289
f 288 287 291
f 288 284 275
f 288 275 287

