# https://github.com/mikedh/trimesh
v 0.01689499 -0.10554790 0.04298114
v 0.01648896 -0.10545790 0.04310011
v 0.01645398 -0.10549080 0.04298114
v 0.01710498 -0.10045180 0.04298114
v 0.01751095 -0.10054180 0.04310011
v 0.01754599 -0.10050880 0.04298114
v 0.01604497 -0.10532180 0.04310011
v 0.01590299 -0.10525880 0.04310011
v 0.01603698 -0.10534190 0.04306411
v 0.01618295 -0.10539680 0.04306411
v 0.01618999 -0.10537580 0.04310011
v 0.01604497 -0.10532180 0.04310011
v 0.01603698 -0.10534190 0.04306411
v 0.01603198 -0.10535380 0.04302310
v 0.01602995 -0.10535780 0.04298114
v 0.01632899 -0.10545480 0.04302310
v 0.01633197 -0.10544280 0.04306411
v 0.01633799 -0.10542190 0.04310011
v 0.01645499 -0.10548580 0.04302310
v 0.01645797 -0.10547380 0.04306411
v 0.01689499 -0.10554280 0.04302310
v 0.01689594 -0.10552990 0.04306411
v 0.01689594 -0.10550880 0.04310011
v 0.01692998 -0.10546080 0.04314708
v 0.01650798 -0.10541180 0.04314708
v 0.01733797 -0.10552280 0.04302310
v 0.01733899 -0.10552680 0.04298114
v 0.01733696 -0.10550980 0.04306411
v 0.01733398 -0.10548780 0.04310011
v 0.01735395 -0.10543590 0.04314708
v 0.01777100 -0.10542580 0.04302310
v 0.01777297 -0.10542980 0.04298114
v 0.01776695 -0.10541290 0.04306411
v 0.01776099 -0.10539280 0.04310011
v 0.01776695 -0.10533880 0.04314708
v 0.01818096 -0.10525480 0.04302310
v 0.01818299 -0.10525880 0.04298114
v 0.01817500 -0.10524290 0.04306411
v 0.01816499 -0.10522380 0.04310011
v 0.01815795 -0.10517280 0.04314708
v 0.01855397 -0.10501580 0.04302310
v 0.01855695 -0.10501880 0.04298114
v 0.01854598 -0.10500490 0.04306411
v 0.01853299 -0.10498780 0.04310011
v 0.01851397 -0.10494080 0.04314708
v 0.01888096 -0.10471480 0.04302310
v 0.01888400 -0.10471790 0.04298114
v 0.01887094 -0.10470580 0.04306411
v 0.01885497 -0.10469180 0.04310011
v 0.01882499 -0.10465180 0.04314708
v 0.01914995 -0.10436290 0.04302310
v 0.01915395 -0.10436480 0.04298114
v 0.01935797 -0.10396980 0.04298114
v 0.01913899 -0.10435480 0.04306411
v 0.01912099 -0.10434380 0.04310011
v 0.01908195 -0.10431390 0.04314708
v 0.01935398 -0.10396790 0.04302310
v 0.01934200 -0.10396280 0.04306411
v 0.01932197 -0.10395490 0.04310011
v 0.01927697 -0.10393690 0.04314708
v 0.01948499 -0.10354880 0.04302310
v 0.01949095 -0.10354590 0.04298114
v 0.01947295 -0.10354680 0.04306411
v 0.01945197 -0.10354190 0.04310011
v 0.01940399 -0.10353080 0.04314708
v 0.01954299 -0.10311380 0.04302310
v 0.01954799 -0.10310480 0.04298114
v 0.01952999 -0.10311380 0.04306411
v 0.01950800 -0.10311280 0.04310011
v 0.01945894 -0.10310980 0.04314708
v 0.01952499 -0.10267490 0.04302310
v 0.01952695 -0.10266080 0.04298114
v 0.01951199 -0.10267680 0.04306411
v 0.01949000 -0.10267990 0.04310011
v 0.01944196 -0.10268580 0.04314708
v 0.01943099 -0.10224580 0.04302310
v 0.01942998 -0.10222680 0.04298114
v 0.01941895 -0.10224980 0.04306411
v 0.01939797 -0.10225680 0.04310011
v 0.01919096 -0.10187780 0.04314708
v 0.01935195 -0.10227090 0.04314708
v 0.01926594 -0.10183990 0.04302310
v 0.01925897 -0.10181680 0.04298114
v 0.01925396 -0.10184580 0.04306411
v 0.01923495 -0.10185480 0.04310011
v 0.01903295 -0.10146790 0.04302310
v 0.01901894 -0.10144280 0.04298114
v 0.01902198 -0.10147480 0.04306411
v 0.01900500 -0.10148780 0.04310011
v 0.01896595 -0.10151780 0.04314708
v 0.01873898 -0.10114080 0.04302310
v 0.01871800 -0.10111580 0.04298114
v 0.01872998 -0.10115080 0.04306411
v 0.01871496 -0.10116580 0.04310011
v 0.01834797 -0.10093980 0.04314708
v 0.01868200 -0.10120180 0.04314708
v 0.01839298 -0.10086980 0.04302310
v 0.01836496 -0.10084580 0.04298114
v 0.01838600 -0.10088080 0.04306411
v 0.01836699 -0.10089380 0.04310011
v 0.01837396 -0.10089880 0.04310011
v 0.01810598 -0.10072180 0.04306411
v 0.01796996 -0.10064190 0.04298114
v 0.01809698 -0.10074090 0.04310011
v 0.01796799 -0.10064580 0.04302310
v 0.01796299 -0.10065780 0.04306411
v 0.01780998 -0.10062390 0.04310011
v 0.01781696 -0.10060280 0.04306411
v 0.01754498 -0.10051380 0.04302310
v 0.01754200 -0.10052580 0.04306411
v 0.01710498 -0.10045680 0.04302310
v 0.01710397 -0.10046980 0.04306411
v 0.01710397 -0.10049080 0.04310011
v 0.01706999 -0.10053890 0.04314708
v 0.01749199 -0.10058790 0.04314708
v 0.01666200 -0.10047680 0.04302310
v 0.01666098 -0.10047280 0.04298114
v 0.01666295 -0.10048980 0.04306411
v 0.01666599 -0.10051190 0.04310011
v 0.01664596 -0.10056380 0.04314708
v 0.01622897 -0.10057380 0.04302310
v 0.01622694 -0.10056990 0.04298114
v 0.01623296 -0.10058680 0.04306411
v 0.01623898 -0.10060680 0.04310011
v 0.01623296 -0.10066080 0.04314708
v 0.01581895 -0.10074490 0.04302310
v 0.01581698 -0.10074090 0.04298114
v 0.01582497 -0.10075680 0.04306411
v 0.01583498 -0.10077580 0.04310011
v 0.01584196 -0.10082680 0.04314708
v 0.01544594 -0.10098380 0.04302310
v 0.01544296 -0.10098080 0.04298114
v 0.01545399 -0.10099480 0.04306411
v 0.01546698 -0.10101180 0.04310011
v 0.01548600 -0.10105890 0.04314708
v 0.01511895 -0.10128480 0.04302310
v 0.01511597 -0.10128180 0.04298114
v 0.01512897 -0.10129380 0.04306411
v 0.01514500 -0.10130780 0.04310011
v 0.01517498 -0.10134780 0.04314708
v 0.01484996 -0.10163680 0.04302310
v 0.01484596 -0.10163480 0.04298114
v 0.01486098 -0.10164480 0.04306411
v 0.01487898 -0.10165590 0.04310011
v 0.01491796 -0.10168580 0.04314708
v 0.01464599 -0.10203180 0.04302310
v 0.01464200 -0.10202980 0.04298114
v 0.01465797 -0.10203680 0.04306411
v 0.01467800 -0.10204480 0.04310011
v 0.01472300 -0.10206280 0.04314708
v 0.01451498 -0.10245090 0.04302310
v 0.01450896 -0.10245380 0.04298114
v 0.01452696 -0.10245280 0.04306411
v 0.01454800 -0.10245780 0.04310011
v 0.01454097 -0.10288980 0.04314708
v 0.01459598 -0.10246890 0.04314708
v 0.01445698 -0.10288590 0.04302310
v 0.01445198 -0.10289490 0.04298114
v 0.01446998 -0.10288590 0.04306411
v 0.01449197 -0.10288680 0.04310011
v 0.01455795 -0.10331380 0.04314708
v 0.01447498 -0.10332480 0.04302310
v 0.01447296 -0.10333880 0.04298114
v 0.01448798 -0.10332280 0.04306411
v 0.01450997 -0.10331980 0.04310011
v 0.01464796 -0.10372880 0.04314708
v 0.01456898 -0.10375380 0.04302310
v 0.01456999 -0.10377280 0.04298114
v 0.01458096 -0.10374980 0.04306411
v 0.01460194 -0.10374280 0.04310011
v 0.01480895 -0.10412180 0.04314708
v 0.01473397 -0.10415980 0.04302310
v 0.01474100 -0.10418280 0.04298114
v 0.01474595 -0.10415380 0.04306411
v 0.01476496 -0.10414480 0.04310011
v 0.01503396 -0.10448180 0.04314708
v 0.01496696 -0.10453180 0.04302310
v 0.01498097 -0.10455680 0.04298114
v 0.01497799 -0.10452490 0.04306411
v 0.01499497 -0.10451180 0.04310011
v 0.01526099 -0.10485880 0.04302310
v 0.01528197 -0.10488390 0.04298114
v 0.01526999 -0.10484880 0.04306411
v 0.01528495 -0.10483390 0.04310011
v 0.01565200 -0.10505980 0.04314708
v 0.01531797 -0.10479780 0.04314708
v 0.01560699 -0.10512980 0.04302310
v 0.01563495 -0.10515380 0.04298114
v 0.01561397 -0.10511880 0.04306411
v 0.01562595 -0.10510080 0.04310011
v 0.01563298 -0.10510580 0.04310011
v 0.01575499 -0.10520480 0.04306411
v 0.01576596 -0.10518680 0.04310011
v 0.01574897 -0.10521680 0.04302310
v 0.01588797 -0.10528980 0.04302310
v 0.01602995 -0.10535780 0.04298114
v 0.01603198 -0.10535380 0.04302310
v 0.01589399 -0.10527780 0.04306411
v 0.01639598 -0.10325180 0.04310011
v 0.01565200 -0.10505980 0.04314708
v 0.01563298 -0.10510580 0.04310011
v 0.01639598 -0.10325180 0.04385113
v 0.01613497 -0.10388690 0.04372215
v 0.01588499 -0.10449480 0.04348516
v 0.01760399 -0.10274780 0.04310011
v 0.01836699 -0.10089380 0.04310011
v 0.01809698 -0.10074090 0.04310011
v 0.01725196 -0.10360380 0.04310011
v 0.01888698 -0.10327580 0.04310011
v 0.01853495 -0.10413180 0.04310011
v 0.01674795 -0.10239580 0.04310011
v 0.01780998 -0.10062390 0.04310011
v 0.01751095 -0.10054180 0.04310011
v 0.01639598 -0.10325180 0.04310011
v 0.01633799 -0.10542190 0.04310011
v 0.01648896 -0.10545790 0.04310011
v 0.01511299 -0.10272380 0.04310011
v 0.01546496 -0.10186780 0.04310011
v 0.01618999 -0.10537580 0.04310011
v 0.01604497 -0.10532180 0.04310011
v 0.01590299 -0.10525880 0.04310011
v 0.01576596 -0.10518680 0.04310011
v 0.01563298 -0.10510580 0.04310011
v 0.01725196 -0.10360380 0.04310011
v 0.01648896 -0.10545790 0.04310011
v 0.01650798 -0.10541180 0.04314708
v 0.01673996 -0.10484680 0.04348516
v 0.01699000 -0.10423880 0.04372215
v 0.01725196 -0.10360380 0.04385113
v 0.01811498 -0.10150480 0.04348516
v 0.01868200 -0.10120180 0.04314708
v 0.01834797 -0.10093980 0.04314708
v 0.01888698 -0.10327580 0.04346513
v 0.01945894 -0.10310980 0.04314708
v 0.01944196 -0.10268580 0.04314708
v 0.01940399 -0.10353080 0.04314708
v 0.01876997 -0.10356080 0.04348921
v 0.01927697 -0.10393690 0.04314708
v 0.01865196 -0.10384690 0.04348921
v 0.01908195 -0.10431390 0.04314708
v 0.01760399 -0.10274780 0.04385113
v 0.01804399 -0.10292880 0.04377412
v 0.01786500 -0.10211280 0.04372215
v 0.01699000 -0.10423880 0.04372215
v 0.01769196 -0.10378480 0.04377412
v 0.01725196 -0.10360380 0.04385113
v 0.01692998 -0.10546080 0.04314708
v 0.01735395 -0.10543590 0.04314708
v 0.01673996 -0.10484680 0.04348516
v 0.01650798 -0.10541180 0.04314708
v 0.01931095 -0.10232280 0.04318308
v 0.01935195 -0.10227090 0.04314708
v 0.01919096 -0.10187780 0.04314708
v 0.01847296 -0.10310590 0.04364514
v 0.01843595 -0.10196380 0.04352807
v 0.01896595 -0.10151780 0.04314708
v 0.01864296 -0.10422790 0.04339313
v 0.01882499 -0.10465180 0.04314708
v 0.01851397 -0.10494080 0.04314708
v 0.01853495 -0.10413180 0.04346513
v 0.01773798 -0.10493080 0.04338407
v 0.01815795 -0.10517280 0.04314708
v 0.01776695 -0.10533880 0.04314708
v 0.01812100 -0.10396080 0.04364514
v 0.01645398 -0.10549080 0.04298114
v 0.01602995 -0.10535780 0.04298114
v 0.01602995 -0.10535780 0.04270005
v 0.01645398 -0.10549080 0.04270005
v 0.01689499 -0.10554790 0.04298114
v 0.01689499 -0.10554790 0.04270005
v 0.01733899 -0.10552680 0.04298114
v 0.01733899 -0.10552680 0.04270005
v 0.01777297 -0.10542980 0.04298114
v 0.01777297 -0.10542980 0.04270005
v 0.01818299 -0.10525880 0.04298114
v 0.01818299 -0.10525880 0.04270005
v 0.01855695 -0.10501880 0.04298114
v 0.01855695 -0.10501880 0.04270005
v 0.01888400 -0.10471790 0.04298114
v 0.01888400 -0.10471790 0.04270005
v 0.01915395 -0.10436480 0.04298114
v 0.01915395 -0.10436480 0.04270005
v 0.01935797 -0.10396980 0.04298114
v 0.01935797 -0.10396980 0.04270005
v 0.01949095 -0.10354590 0.04298114
v 0.01949095 -0.10354590 0.04270005
v 0.01954799 -0.10310480 0.04298114
v 0.01954799 -0.10310480 0.04270005
v 0.01952695 -0.10266080 0.04298114
v 0.01952695 -0.10266080 0.04270005
v 0.01942998 -0.10222680 0.04298114
v 0.01942998 -0.10222680 0.04270005
v 0.01925897 -0.10181680 0.04298114
v 0.01925897 -0.10181680 0.04270005
v 0.01901894 -0.10144280 0.04298114
v 0.01901894 -0.10144280 0.04270005
v 0.01871800 -0.10111580 0.04298114
v 0.01871800 -0.10111580 0.04270005
v 0.01836496 -0.10084580 0.04298114
v 0.01836496 -0.10084580 0.04270005
v 0.01796996 -0.10064190 0.04298114
v 0.01796996 -0.10064190 0.04270005
v 0.01754599 -0.10050880 0.04298114
v 0.01754599 -0.10050880 0.04270005
v 0.01710498 -0.10045180 0.04298114
v 0.01710498 -0.10045180 0.04270005
v 0.01666098 -0.10047280 0.04298114
v 0.01666098 -0.10047280 0.04270005
v 0.01622694 -0.10056990 0.04298114
v 0.01622694 -0.10056990 0.04270005
v 0.01581698 -0.10074090 0.04298114
v 0.01581698 -0.10074090 0.04270005
v 0.01544296 -0.10098080 0.04298114
v 0.01544296 -0.10098080 0.04270005
v 0.01511597 -0.10128180 0.04298114
v 0.01511597 -0.10128180 0.04270005
v 0.01484596 -0.10163480 0.04298114
v 0.01484596 -0.10163480 0.04270005
v 0.01464200 -0.10202980 0.04298114
v 0.01464200 -0.10202980 0.04270005
v 0.01450896 -0.10245380 0.04298114
v 0.01450896 -0.10245380 0.04270005
v 0.01445198 -0.10289490 0.04298114
v 0.01445198 -0.10289490 0.04270005
v 0.01447296 -0.10333880 0.04298114
v 0.01447296 -0.10333880 0.04270005
v 0.01456999 -0.10377280 0.04298114
v 0.01456999 -0.10377280 0.04270005
v 0.01474100 -0.10418280 0.04298114
v 0.01474100 -0.10418280 0.04270005
v 0.01498097 -0.10455680 0.04298114
v 0.01498097 -0.10455680 0.04270005
v 0.01528197 -0.10488390 0.04298114
v 0.01528197 -0.10488390 0.04270005
v 0.01563495 -0.10515380 0.04298114
v 0.01563495 -0.10515380 0.04270005
v 0.01602995 -0.10535780 0.04298114
v 0.01602995 -0.10535780 0.04270005
v 0.01607698 -0.10524380 0.04251503
v 0.01574200 -0.10498480 0.04250001
v 0.01610594 -0.10517280 0.04250001
v 0.01647996 -0.10536980 0.04251503
v 0.01607698 -0.10524380 0.04251503
v 0.01610594 -0.10517280 0.04250001
v 0.01649695 -0.10529480 0.04250001
v 0.01646697 -0.10543380 0.04255914
v 0.01605194 -0.10530380 0.04255914
v 0.01645696 -0.10547590 0.04262304
v 0.01645398 -0.10549080 0.04270005
v 0.01602995 -0.10535780 0.04270005
v 0.01603597 -0.10534380 0.04262304
v 0.01690000 -0.10542380 0.04251503
v 0.01690298 -0.10534780 0.04250001
v 0.01689696 -0.10548880 0.04255914
v 0.01689499 -0.10553280 0.04262304
v 0.01689499 -0.10554790 0.04270005
v 0.01732200 -0.10540480 0.04251503
v 0.01731199 -0.10532880 0.04250001
v 0.01733100 -0.10546880 0.04255914
v 0.01733696 -0.10551190 0.04262304
v 0.01733899 -0.10552680 0.04270005
v 0.01773500 -0.10531180 0.04251503
v 0.01771199 -0.10523980 0.04250001
v 0.01775497 -0.10537380 0.04255914
v 0.01776796 -0.10541580 0.04262304
v 0.01777297 -0.10542980 0.04270005
v 0.01812595 -0.10514980 0.04251503
v 0.01808995 -0.10508180 0.04250001
v 0.01815599 -0.10520690 0.04255914
v 0.01817595 -0.10524580 0.04262304
v 0.01818299 -0.10525880 0.04270005
v 0.01848196 -0.10492180 0.04251503
v 0.01843500 -0.10486090 0.04250001
v 0.01852095 -0.10497280 0.04255914
v 0.01854795 -0.10500680 0.04262304
v 0.01855695 -0.10501880 0.04270005
v 0.01879298 -0.10463480 0.04251503
v 0.01873600 -0.10458290 0.04250001
v 0.01884096 -0.10467880 0.04255914
v 0.01887297 -0.10470780 0.04262304
v 0.01888400 -0.10471790 0.04270005
v 0.01905000 -0.10429880 0.04251503
v 0.01898497 -0.10425780 0.04250001
v 0.01910400 -0.10433380 0.04255914
v 0.01914095 -0.10435680 0.04262304
v 0.01915395 -0.10436480 0.04270005
v 0.01924395 -0.10392290 0.04251503
v 0.01917296 -0.10389380 0.04250001
v 0.01930397 -0.10394780 0.04255914
v 0.01934397 -0.10396390 0.04262304
v 0.01935797 -0.10396980 0.04270005
v 0.01936995 -0.10351980 0.04251503
v 0.01929599 -0.10350280 0.04250001
v 0.01943397 -0.10353290 0.04255914
v 0.01947599 -0.10354280 0.04262304
v 0.01949095 -0.10354590 0.04270005
v 0.01942396 -0.10309980 0.04251503
v 0.01934796 -0.10309690 0.04250001
v 0.01948899 -0.10310280 0.04255914
v 0.01953297 -0.10310480 0.04262304
v 0.01954799 -0.10310480 0.04270005
v 0.01940494 -0.10267780 0.04251503
v 0.01932895 -0.10268780 0.04250001
v 0.01923996 -0.10228780 0.04250001
v 0.01946896 -0.10266880 0.04255914
v 0.01951199 -0.10266280 0.04262304
v 0.01952695 -0.10266080 0.04270005
v 0.01931196 -0.10226480 0.04251503
v 0.01937395 -0.10224480 0.04255914
v 0.01941597 -0.10223180 0.04262304
v 0.01942998 -0.10222680 0.04270005
v 0.01914995 -0.10187380 0.04251503
v 0.01908195 -0.10190980 0.04250001
v 0.01886099 -0.10156480 0.04250001
v 0.01920700 -0.10184380 0.04255914
v 0.01924598 -0.10182380 0.04262304
v 0.01925897 -0.10181680 0.04270005
v 0.01892197 -0.10151780 0.04251503
v 0.01897299 -0.10147880 0.04255914
v 0.01900696 -0.10145180 0.04262304
v 0.01901894 -0.10144280 0.04270005
v 0.01863497 -0.10120680 0.04251503
v 0.01858299 -0.10126380 0.04250001
v 0.01867896 -0.10115880 0.04255914
v 0.01870799 -0.10112690 0.04262304
v 0.01871800 -0.10111580 0.04270005
v 0.01829898 -0.10094980 0.04251503
v 0.01825797 -0.10101490 0.04250001
v 0.01833397 -0.10089580 0.04255914
v 0.01835697 -0.10085880 0.04262304
v 0.01836496 -0.10084580 0.04270005
v 0.01792299 -0.10075580 0.04251503
v 0.01789397 -0.10082680 0.04250001
v 0.01794797 -0.10069590 0.04255914
v 0.01796400 -0.10065580 0.04262304
v 0.01796996 -0.10064190 0.04270005
v 0.01751995 -0.10062980 0.04251503
v 0.01750296 -0.10070490 0.04250001
v 0.01753300 -0.10056590 0.04255914
v 0.01754295 -0.10052380 0.04262304
v 0.01754599 -0.10050880 0.04270005
v 0.01709997 -0.10057580 0.04251503
v 0.01709699 -0.10065180 0.04250001
v 0.01710295 -0.10051080 0.04255914
v 0.01710498 -0.10046690 0.04262304
v 0.01710498 -0.10045180 0.04270005
v 0.01667797 -0.10059480 0.04251503
v 0.01668798 -0.10067080 0.04250001
v 0.01666897 -0.10053080 0.04255914
v 0.01666295 -0.10048780 0.04262304
v 0.01666098 -0.10047280 0.04270005
v 0.01626497 -0.10068780 0.04251503
v 0.01628798 -0.10075980 0.04250001
v 0.01624494 -0.10062580 0.04255914
v 0.01623195 -0.10058390 0.04262304
v 0.01622694 -0.10056990 0.04270005
v 0.01587396 -0.10084980 0.04251503
v 0.01590996 -0.10091780 0.04250001
v 0.01584398 -0.10079280 0.04255914
v 0.01582396 -0.10075390 0.04262304
v 0.01581698 -0.10074090 0.04270005
v 0.01551795 -0.10107780 0.04251503
v 0.01556497 -0.10113880 0.04250001
v 0.01547896 -0.10102680 0.04255914
v 0.01545196 -0.10099280 0.04262304
v 0.01544296 -0.10098080 0.04270005
v 0.01520699 -0.10136490 0.04251503
v 0.01526397 -0.10141680 0.04250001
v 0.01515895 -0.10132080 0.04255914
v 0.01512700 -0.10129180 0.04262304
v 0.01511597 -0.10128180 0.04270005
v 0.01494997 -0.10170090 0.04251503
v 0.01501494 -0.10174190 0.04250001
v 0.01489597 -0.10166580 0.04255914
v 0.01485896 -0.10164290 0.04262304
v 0.01484596 -0.10163480 0.04270005
v 0.01475596 -0.10207680 0.04251503
v 0.01482695 -0.10210580 0.04250001
v 0.01469600 -0.10205180 0.04255914
v 0.01465594 -0.10203580 0.04262304
v 0.01464200 -0.10202980 0.04270005
v 0.01462996 -0.10247980 0.04251503
v 0.01470398 -0.10249680 0.04250001
v 0.01465195 -0.10290280 0.04250001
v 0.01456600 -0.10246680 0.04255914
v 0.01452398 -0.10245680 0.04262304
v 0.01450896 -0.10245380 0.04270005
v 0.01457595 -0.10289990 0.04251503
v 0.01451098 -0.10289680 0.04255914
v 0.01446700 -0.10289490 0.04262304
v 0.01447296 -0.10333880 0.04270005
v 0.01445198 -0.10289490 0.04270005
v 0.01459497 -0.10332190 0.04251503
v 0.01467096 -0.10331180 0.04250001
v 0.01453095 -0.10333090 0.04255914
v 0.01448798 -0.10333680 0.04262304
v 0.01468795 -0.10373490 0.04251503
v 0.01475995 -0.10371190 0.04250001
v 0.01462596 -0.10375480 0.04255914
v 0.01458400 -0.10376780 0.04262304
v 0.01474100 -0.10418280 0.04270005
v 0.01456999 -0.10377280 0.04270005
v 0.01484996 -0.10412580 0.04251503
v 0.01491796 -0.10408980 0.04250001
v 0.01513898 -0.10443490 0.04250001
v 0.01479297 -0.10415580 0.04255914
v 0.01475399 -0.10417580 0.04262304
v 0.01507794 -0.10448180 0.04251503
v 0.01541697 -0.10473590 0.04250001
v 0.01502698 -0.10452080 0.04255914
v 0.01499295 -0.10454780 0.04262304
v 0.01498097 -0.10455680 0.04270005
v 0.01536500 -0.10479280 0.04251503
v 0.01532095 -0.10484080 0.04255914
v 0.01529198 -0.10487280 0.04262304
v 0.01528197 -0.10488390 0.04270005
v 0.01570099 -0.10504990 0.04251503
v 0.01566594 -0.10510390 0.04255914
v 0.01605194 -0.10530380 0.04255914
v 0.01564300 -0.10514080 0.04262304
v 0.01602995 -0.10535780 0.04270005
v 0.01563495 -0.10515380 0.04270005
v 0.01603597 -0.10534380 0.04262304
v 0.01737898 -0.10419080 0.04250001
v 0.01808995 -0.10508180 0.04250001
v 0.01771199 -0.10523980 0.04250001
v 0.01757997 -0.10410690 0.04250001
v 0.01843500 -0.10486090 0.04250001
v 0.01716595 -0.10423880 0.04250001
v 0.01731199 -0.10532880 0.04250001
v 0.01776295 -0.10398980 0.04250001
v 0.01873600 -0.10458290 0.04250001
v 0.01694798 -0.10424880 0.04250001
v 0.01690298 -0.10534780 0.04250001
v 0.01792395 -0.10384190 0.04250001
v 0.01898497 -0.10425780 0.04250001
v 0.01673197 -0.10422080 0.04250001
v 0.01649695 -0.10529480 0.04250001
v 0.01805597 -0.10366880 0.04250001
v 0.01917296 -0.10389380 0.04250001
v 0.01652395 -0.10415580 0.04250001
v 0.01610594 -0.10517280 0.04250001
v 0.01815599 -0.10347580 0.04250001
v 0.01929599 -0.10350280 0.04250001
v 0.01633095 -0.10405580 0.04250001
v 0.01574200 -0.10498480 0.04250001
v 0.01822096 -0.10326790 0.04250001
v 0.01934796 -0.10309690 0.04250001
v 0.01615798 -0.10392380 0.04250001
v 0.01541697 -0.10473590 0.04250001
v 0.01824897 -0.10305190 0.04250001
v 0.01932895 -0.10268780 0.04250001
v 0.01600998 -0.10376280 0.04250001
v 0.01513898 -0.10443490 0.04250001
v 0.01823896 -0.10283380 0.04250001
v 0.01589298 -0.10357980 0.04250001
v 0.01491796 -0.10408980 0.04250001
v 0.01819097 -0.10262080 0.04250001
v 0.01923996 -0.10228780 0.04250001
v 0.01580899 -0.10337880 0.04250001
v 0.01908195 -0.10190980 0.04250001
v 0.01810699 -0.10241980 0.04250001
v 0.01475995 -0.10371190 0.04250001
v 0.01576095 -0.10316580 0.04250001
v 0.01886099 -0.10156480 0.04250001
v 0.01798999 -0.10223680 0.04250001
v 0.01467096 -0.10331180 0.04250001
v 0.01575100 -0.10294780 0.04250001
v 0.01858299 -0.10126380 0.04250001
v 0.01784199 -0.10207580 0.04250001
v 0.01465195 -0.10290280 0.04250001
v 0.01577895 -0.10273180 0.04250001
v 0.01825797 -0.10101490 0.04250001
v 0.01766896 -0.10194390 0.04250001
v 0.01470398 -0.10249680 0.04250001
v 0.01789397 -0.10082680 0.04250001
v 0.01747596 -0.10184380 0.04250001
v 0.01482695 -0.10210580 0.04250001
v 0.01584398 -0.10252380 0.04250001
v 0.01594400 -0.10233080 0.04250001
v 0.01750296 -0.10070490 0.04250001
v 0.01726800 -0.10177880 0.04250001
v 0.01501494 -0.10174190 0.04250001
v 0.01607596 -0.10215780 0.04250001
v 0.01709699 -0.10065180 0.04250001
v 0.01705199 -0.10175090 0.04250001
v 0.01526397 -0.10141680 0.04250001
v 0.01623696 -0.10200980 0.04250001
v 0.01668798 -0.10067080 0.04250001
v 0.01683396 -0.10176080 0.04250001
v 0.01556497 -0.10113880 0.04250001
v 0.01628798 -0.10075980 0.04250001
v 0.01662099 -0.10180890 0.04250001
v 0.01590996 -0.10091780 0.04250001
v 0.01641994 -0.10189280 0.04250001
v 0.01673197 -0.10422080 0.04250001
v 0.01652395 -0.10415580 0.04250001
v 0.01652395 -0.10415580 0.03750014
v 0.01673197 -0.10422080 0.03750014
v 0.01694798 -0.10424880 0.04250001
v 0.01694798 -0.10424880 0.03750014
v 0.01716595 -0.10423880 0.03750014
v 0.01716595 -0.10423880 0.04250001
v 0.01737898 -0.10419080 0.04250001
v 0.01737898 -0.10419080 0.03750014
v 0.01757997 -0.10410690 0.04250001
v 0.01757997 -0.10410690 0.03750014
v 0.01776295 -0.10398980 0.04250001
v 0.01776295 -0.10398980 0.03750014
v 0.01792395 -0.10384190 0.03750014
v 0.01792395 -0.10384190 0.04250001
v 0.01805597 -0.10366880 0.04250001
v 0.01805597 -0.10366880 0.03750014
v 0.01815599 -0.10347580 0.04250001
v 0.01815599 -0.10347580 0.03750014
v 0.01822096 -0.10326790 0.04250001
v 0.01822096 -0.10326790 0.03750014
v 0.01824897 -0.10305190 0.04250001
v 0.01824897 -0.10305190 0.03750014
v 0.01823896 -0.10283380 0.03750014
v 0.01823896 -0.10283380 0.04250001
v 0.01819097 -0.10262080 0.04250001
v 0.01819097 -0.10262080 0.03750014
v 0.01810699 -0.10241980 0.04250001
v 0.01810699 -0.10241980 0.03750014
v 0.01798999 -0.10223680 0.03750014
v 0.01798999 -0.10223680 0.04250001
v 0.01784199 -0.10207580 0.04250001
v 0.01784199 -0.10207580 0.03750014
v 0.01766896 -0.10194390 0.04250001
v 0.01766896 -0.10194390 0.03750014
v 0.01747596 -0.10184380 0.04250001
v 0.01747596 -0.10184380 0.03750014
v 0.01726800 -0.10177880 0.04250001
v 0.01726800 -0.10177880 0.03750014
v 0.01705199 -0.10175090 0.04250001
v 0.01705199 -0.10175090 0.03750014
v 0.01683396 -0.10176080 0.04250001
v 0.01683396 -0.10176080 0.03750014
v 0.01662099 -0.10180890 0.04250001
v 0.01662099 -0.10180890 0.03750014
v 0.01641994 -0.10189280 0.04250001
v 0.01641994 -0.10189280 0.03750014
v 0.01623696 -0.10200980 0.04250001
v 0.01623696 -0.10200980 0.03750014
v 0.01607596 -0.10215780 0.04250001
v 0.01607596 -0.10215780 0.03750014
v 0.01594400 -0.10233080 0.04250001
v 0.01594400 -0.10233080 0.03750014
v 0.01584398 -0.10252380 0.04250001
v 0.01584398 -0.10252380 0.03750014
v 0.01577895 -0.10273180 0.04250001
v 0.01577895 -0.10273180 0.03750014
v 0.01575100 -0.10294780 0.04250001
v 0.01575100 -0.10294780 0.03750014
v 0.01576095 -0.10316580 0.04250001
v 0.01576095 -0.10316580 0.03750014
v 0.01580899 -0.10337880 0.04250001
v 0.01580899 -0.10337880 0.03750014
v 0.01589298 -0.10357980 0.04250001
v 0.01589298 -0.10357980 0.03750014
v 0.01600998 -0.10376280 0.04250001
v 0.01600998 -0.10376280 0.03750014
v 0.01615798 -0.10392380 0.04250001
v 0.01615798 -0.10392380 0.03750014
v 0.01633095 -0.10405580 0.04250001
v 0.01633095 -0.10405580 0.03750014
v 0.01652395 -0.10415580 0.04250001
v 0.01652395 -0.10415580 0.03750014
v 0.01725995 -0.10115280 0.04348516
v 0.01749199 -0.10058790 0.04314708
v 0.01706999 -0.10053890 0.04314708
v 0.01630795 -0.10221480 0.04377412
v 0.01674795 -0.10239580 0.04385113
v 0.01700997 -0.10176080 0.04372215
v 0.01517498 -0.10134780 0.04314708
v 0.01546496 -0.10186780 0.04346513
v 0.01548600 -0.10105890 0.04314708
v 0.01613497 -0.10388690 0.04372215
v 0.01639598 -0.10325180 0.04385113
v 0.01595598 -0.10307080 0.04377412
v 0.01491796 -0.10168580 0.04314708
v 0.01534795 -0.10215280 0.04348921
v 0.01472300 -0.10206280 0.04314708
v 0.01523000 -0.10243880 0.04348921
v 0.01459598 -0.10246890 0.04314708
v 0.01531797 -0.10479780 0.04314708
v 0.01565200 -0.10505980 0.04314708
v 0.01588499 -0.10449480 0.04348516
v 0.01503396 -0.10448180 0.04314708
v 0.01670897 -0.10125280 0.04352807
v 0.01664596 -0.10056380 0.04314708
v 0.01623296 -0.10066080 0.04314708
v 0.01587897 -0.10203880 0.04364514
v 0.01583498 -0.10089290 0.04318308
v 0.01584196 -0.10082680 0.04314708
v 0.01496899 -0.10271680 0.04339313
v 0.01454097 -0.10288980 0.04314708
v 0.01455795 -0.10331380 0.04314708
v 0.01511299 -0.10272380 0.04346513
v 0.01511698 -0.10385280 0.04338407
v 0.01480895 -0.10412180 0.04314708
v 0.01464796 -0.10372880 0.04314708
v 0.01552695 -0.10289380 0.04364514
v 0.01694798 -0.10424880 0.03750014
v 0.01737898 -0.10419080 0.03750014
v 0.01716595 -0.10423880 0.03750014
v 0.01823896 -0.10283380 0.03750014
v 0.01824897 -0.10305190 0.03750014
v 0.01822096 -0.10326790 0.03750014
v 0.01815599 -0.10347580 0.03750014
v 0.01805597 -0.10366880 0.03750014
v 0.01575100 -0.10294780 0.03750014
v 0.01580899 -0.10337880 0.03750014
v 0.01576095 -0.10316580 0.03750014
v 0.01784199 -0.10207580 0.03750014
v 0.01798999 -0.10223680 0.03750014
v 0.01810699 -0.10241980 0.03750014
v 0.01766896 -0.10194390 0.03750014
v 0.01747596 -0.10184380 0.03750014
v 0.01819097 -0.10262080 0.03750014
v 0.01792395 -0.10384190 0.03750014
v 0.01776295 -0.10398980 0.03750014
v 0.01757997 -0.10410690 0.03750014
v 0.01726800 -0.10177880 0.03750014
v 0.01607596 -0.10215780 0.03750014
v 0.01577895 -0.10273180 0.03750014
v 0.01584398 -0.10252380 0.03750014
v 0.01594400 -0.10233080 0.03750014
v 0.01683396 -0.10176080 0.03750014
v 0.01705199 -0.10175090 0.03750014
v 0.01641994 -0.10189280 0.03750014
v 0.01623696 -0.10200980 0.03750014
v 0.01662099 -0.10180890 0.03750014
v 0.01652395 -0.10415580 0.03750014
v 0.01633095 -0.10405580 0.03750014
v 0.01615798 -0.10392380 0.03750014
v 0.01600998 -0.10376280 0.03750014
v 0.01589298 -0.10357980 0.03750014
v 0.01673197 -0.10422080 0.03750014
v 0.01639598 -0.10325180 0.04310011
v 0.01595598 -0.10307080 0.04377412
v 0.01639598 -0.10325180 0.04385113
v 0.01552695 -0.10289380 0.04364514
v 0.01511299 -0.10272380 0.04310011
v 0.01511299 -0.10272380 0.04346513
v 0.01511299 -0.10272380 0.04310011
v 0.01523000 -0.10243880 0.04348921
v 0.01511299 -0.10272380 0.04346513
v 0.01546496 -0.10186780 0.04310011
v 0.01546496 -0.10186780 0.04346513
v 0.01534795 -0.10215280 0.04348921
v 0.01630795 -0.10221480 0.04377412
v 0.01674795 -0.10239580 0.04310011
v 0.01674795 -0.10239580 0.04385113
v 0.01587897 -0.10203880 0.04364514
v 0.01546496 -0.10186780 0.04310011
v 0.01546496 -0.10186780 0.04346513
v 0.01700997 -0.10176080 0.04372215
v 0.01674795 -0.10239580 0.04385113
v 0.01674795 -0.10239580 0.04310011
v 0.01725995 -0.10115280 0.04348516
v 0.01749199 -0.10058790 0.04314708
v 0.01751095 -0.10054180 0.04310011
v 0.01786500 -0.10211280 0.04372215
v 0.01760399 -0.10274780 0.04310011
v 0.01760399 -0.10274780 0.04385113
v 0.01811498 -0.10150480 0.04348516
v 0.01834797 -0.10093980 0.04314708
v 0.01836699 -0.10089380 0.04310011
v 0.01847296 -0.10310590 0.04364514
v 0.01888698 -0.10327580 0.04310011
v 0.01888698 -0.10327580 0.04346513
v 0.01760399 -0.10274780 0.04310011
v 0.01804399 -0.10292880 0.04377412
v 0.01760399 -0.10274780 0.04385113
v 0.01865196 -0.10384690 0.04348921
v 0.01853495 -0.10413180 0.04310011
v 0.01853495 -0.10413180 0.04346513
v 0.01876997 -0.10356080 0.04348921
v 0.01888698 -0.10327580 0.04310011
v 0.01888698 -0.10327580 0.04346513
v 0.01812100 -0.10396080 0.04364514
v 0.01853495 -0.10413180 0.04346513
v 0.01853495 -0.10413180 0.04310011
v 0.01725196 -0.10360380 0.04310011
v 0.01769196 -0.10378480 0.04377412
v 0.01725196 -0.10360380 0.04385113
v -0.01496899 -0.10145780 0.04298114
v -0.01477897 -0.10182880 0.04310011
v -0.01473200 -0.10183480 0.04298114
v -0.01903098 -0.10454180 0.04298114
v -0.01922094 -0.10417080 0.04310011
v -0.01926797 -0.10416480 0.04298114
v -0.01460099 -0.10225790 0.04310011
v -0.01455998 -0.10240680 0.04310011
v -0.01458096 -0.10225080 0.04306411
v -0.01463198 -0.10210280 0.04306411
v -0.01465195 -0.10211080 0.04310011
v -0.01460099 -0.10225790 0.04310011
v -0.01458096 -0.10225080 0.04306411
v -0.01456797 -0.10224680 0.04302310
v -0.01456397 -0.10224580 0.04298114
v -0.01467996 -0.10195380 0.04302310
v -0.01469194 -0.10195880 0.04306411
v -0.01471096 -0.10196780 0.04310011
v -0.01473599 -0.10183680 0.04302310
v -0.01474797 -0.10184280 0.04306411
v -0.01497197 -0.10146080 0.04302310
v -0.01498299 -0.10146880 0.04306411
v -0.01499998 -0.10148180 0.04310011
v -0.01505798 -0.10148680 0.04314708
v -0.01482695 -0.10184280 0.04314708
v -0.01526999 -0.10113180 0.04302310
v -0.01526695 -0.10112880 0.04298114
v -0.01527899 -0.10114180 0.04306411
v -0.01529395 -0.10115790 0.04310011
v -0.01534700 -0.10117590 0.04314708
v -0.01562094 -0.10085980 0.04302310
v -0.01561897 -0.10085690 0.04298114
v -0.01562798 -0.10087180 0.04306411
v -0.01563996 -0.10088980 0.04310011
v -0.01568496 -0.10091880 0.04314708
v -0.01601296 -0.10065280 0.04302310
v -0.01601195 -0.10064880 0.04298114
v -0.01601898 -0.10066580 0.04306411
v -0.01602697 -0.10068480 0.04310011
v -0.01606196 -0.10072380 0.04314708
v -0.01643598 -0.10051780 0.04302310
v -0.01643496 -0.10051280 0.04298114
v -0.01643896 -0.10053080 0.04306411
v -0.01644396 -0.10055190 0.04310011
v -0.01646697 -0.10059580 0.04314708
v -0.01687598 -0.10045790 0.04302310
v -0.01687496 -0.10045280 0.04298114
v -0.01687598 -0.10047090 0.04306411
v -0.01687699 -0.10049180 0.04310011
v -0.01688897 -0.10054080 0.04314708
v -0.01731896 -0.10047480 0.04302310
v -0.01731896 -0.10046980 0.04298114
v -0.01775395 -0.10056380 0.04298114
v -0.01731699 -0.10048780 0.04306411
v -0.01731497 -0.10050880 0.04310011
v -0.01731300 -0.10055780 0.04314708
v -0.01775300 -0.10056780 0.04302310
v -0.01774895 -0.10058080 0.04306411
v -0.01774197 -0.10060080 0.04310011
v -0.01772797 -0.10064780 0.04314708
v -0.01815897 -0.10073380 0.04302310
v -0.01816499 -0.10073190 0.04298114
v -0.01815295 -0.10074580 0.04306411
v -0.01814395 -0.10076480 0.04310011
v -0.01812100 -0.10080790 0.04314708
v -0.01853197 -0.10096680 0.04302310
v -0.01854199 -0.10096880 0.04298114
v -0.01852399 -0.10097680 0.04306411
v -0.01851099 -0.10099480 0.04310011
v -0.01848095 -0.10103380 0.04314708
v -0.01885795 -0.10125980 0.04302310
v -0.01887094 -0.10126680 0.04298114
v -0.01884895 -0.10126880 0.04306411
v -0.01883298 -0.10128390 0.04310011
v -0.01879698 -0.10131680 0.04314708
v -0.01912999 -0.10160580 0.04302310
v -0.01914298 -0.10161880 0.04298114
v -0.01911795 -0.10161280 0.04306411
v -0.01910096 -0.10162490 0.04310011
v -0.01926100 -0.10202480 0.04314708
v -0.01905995 -0.10165080 0.04314708
v -0.01933795 -0.10199180 0.04302310
v -0.01935100 -0.10201180 0.04298114
v -0.01932495 -0.10199790 0.04306411
v -0.01930600 -0.10200580 0.04310011
v -0.01947599 -0.10240880 0.04302310
v -0.01948696 -0.10243480 0.04298114
v -0.01946300 -0.10241180 0.04306411
v -0.01944196 -0.10241680 0.04310011
v -0.01939499 -0.10242780 0.04314708
v -0.01954096 -0.10284280 0.04302310
v -0.01954698 -0.10287480 0.04298114
v -0.01952695 -0.10284380 0.04306411
v -0.01950597 -0.10284590 0.04310011
v -0.01944696 -0.10327280 0.04314708
v -0.01945698 -0.10284880 0.04314708
v -0.01952999 -0.10328180 0.04302310
v -0.01952999 -0.10331880 0.04298114
v -0.01951700 -0.10328090 0.04306411
v -0.01949399 -0.10328780 0.04310011
v -0.01949495 -0.10327880 0.04310011
v -0.01946097 -0.10359780 0.04306411
v -0.01943600 -0.10375380 0.04298114
v -0.01943999 -0.10359280 0.04310011
v -0.01943194 -0.10375290 0.04302310
v -0.01941895 -0.10374880 0.04306411
v -0.01934796 -0.10388880 0.04310011
v -0.01936799 -0.10389680 0.04306411
v -0.01926398 -0.10416280 0.04302310
v -0.01925200 -0.10415690 0.04306411
v -0.01902794 -0.10453880 0.04302310
v -0.01901698 -0.10453080 0.04306411
v -0.01899999 -0.10451780 0.04310011
v -0.01894199 -0.10451280 0.04314708
v -0.01917296 -0.10415690 0.04314708
v -0.01872998 -0.10486780 0.04302310
v -0.01873296 -0.10487080 0.04298114
v -0.01872098 -0.10485780 0.04306411
v -0.01870596 -0.10484180 0.04310011
v -0.01865297 -0.10482380 0.04314708
v -0.01837897 -0.10513990 0.04302310
v -0.01838099 -0.10514280 0.04298114
v -0.01837199 -0.10512780 0.04306411
v -0.01835995 -0.10510980 0.04310011
v -0.01831495 -0.10508090 0.04314708
v -0.01798695 -0.10534680 0.04302310
v -0.01798796 -0.10535090 0.04298114
v -0.01798099 -0.10533380 0.04306411
v -0.01797300 -0.10531490 0.04310011
v -0.01793795 -0.10527580 0.04314708
v -0.01756399 -0.10548180 0.04302310
v -0.01756495 -0.10548680 0.04298114
v -0.01756095 -0.10546880 0.04306411
v -0.01755595 -0.10544780 0.04310011
v -0.01753300 -0.10540390 0.04314708
v -0.01712399 -0.10554180 0.04302310
v -0.01712495 -0.10554680 0.04298114
v -0.01712399 -0.10552880 0.04306411
v -0.01712298 -0.10550790 0.04310011
v -0.01711100 -0.10545880 0.04314708
v -0.01668095 -0.10552480 0.04302310
v -0.01668095 -0.10552990 0.04298114
v -0.01668298 -0.10551190 0.04306411
v -0.01668494 -0.10549080 0.04310011
v -0.01668697 -0.10544180 0.04314708
v -0.01624697 -0.10543180 0.04302310
v -0.01624596 -0.10543590 0.04298114
v -0.01625096 -0.10541880 0.04306411
v -0.01625800 -0.10539880 0.04310011
v -0.01627194 -0.10535180 0.04314708
v -0.01584094 -0.10526580 0.04302310
v -0.01583498 -0.10526780 0.04298114
v -0.01584696 -0.10525380 0.04306411
v -0.01585596 -0.10523480 0.04310011
v -0.01551896 -0.10496580 0.04314708
v -0.01587897 -0.10519180 0.04314708
v -0.01546800 -0.10503280 0.04302310
v -0.01545798 -0.10503080 0.04298114
v -0.01547598 -0.10502290 0.04306411
v -0.01548898 -0.10500490 0.04310011
v -0.01520299 -0.10468280 0.04314708
v -0.01514196 -0.10473990 0.04302310
v -0.01512897 -0.10473280 0.04298114
v -0.01515096 -0.10473090 0.04306411
v -0.01516699 -0.10471580 0.04310011
v -0.01493996 -0.10434880 0.04314708
v -0.01486998 -0.10439380 0.04302310
v -0.01485699 -0.10438090 0.04298114
v -0.01488196 -0.10438680 0.04306411
v -0.01489895 -0.10437480 0.04310011
v -0.01473897 -0.10397480 0.04314708
v -0.01466196 -0.10400780 0.04302310
v -0.01464897 -0.10398780 0.04298114
v -0.01467496 -0.10400180 0.04306411
v -0.01469397 -0.10399380 0.04310011
v -0.01460498 -0.10357180 0.04314708
v -0.01452398 -0.10359090 0.04302310
v -0.01451295 -0.10356480 0.04298114
v -0.01453697 -0.10358780 0.04306411
v -0.01455795 -0.10358280 0.04310011
v -0.01445895 -0.10315680 0.04302310
v -0.01445299 -0.10312480 0.04298114
v -0.01447296 -0.10315590 0.04306411
v -0.01449400 -0.10315380 0.04310011
v -0.01455295 -0.10272680 0.04314708
v -0.01454299 -0.10315090 0.04314708
v -0.01446998 -0.10271780 0.04302310
v -0.01446998 -0.10268080 0.04298114
v -0.01448297 -0.10271880 0.04306411
v -0.01450496 -0.10272080 0.04310011
v -0.01450598 -0.10271180 0.04310011
v -0.01450699 -0.10255480 0.04306411
v -0.01452797 -0.10255890 0.04310011
v -0.01449400 -0.10255280 0.04302310
v -0.01452594 -0.10239880 0.04302310
v -0.01456397 -0.10224580 0.04298114
v -0.01456797 -0.10224680 0.04302310
v -0.01453900 -0.10240190 0.04306411
v -0.01642096 -0.10330480 0.04310011
v -0.01455295 -0.10272680 0.04314708
v -0.01450598 -0.10271180 0.04310011
v -0.01642096 -0.10330480 0.04385113
v -0.01576495 -0.10310190 0.04372215
v -0.01513695 -0.10290780 0.04348516
v -0.01757895 -0.10269480 0.04310011
v -0.01949399 -0.10328780 0.04310011
v -0.01943999 -0.10359280 0.04310011
v -0.01669496 -0.10242080 0.04310011
v -0.01798897 -0.10136890 0.04310011
v -0.01710498 -0.10109580 0.04310011
v -0.01730495 -0.10357880 0.04310011
v -0.01934796 -0.10388880 0.04310011
v -0.01922094 -0.10417080 0.04310011
v -0.01642096 -0.10330480 0.04310011
v -0.01471096 -0.10196780 0.04310011
v -0.01477897 -0.10182880 0.04310011
v -0.01601099 -0.10463080 0.04310011
v -0.01689499 -0.10490380 0.04310011
v -0.01465195 -0.10211080 0.04310011
v -0.01460099 -0.10225790 0.04310011
v -0.01455998 -0.10240680 0.04310011
v -0.01452797 -0.10255890 0.04310011
v -0.01450598 -0.10271180 0.04310011
v -0.01669496 -0.10242080 0.04310011
v -0.01477897 -0.10182880 0.04310011
v -0.01482695 -0.10184280 0.04314708
v -0.01541095 -0.10202380 0.04348516
v -0.01603895 -0.10221780 0.04372215
v -0.01669496 -0.10242080 0.04385113
v -0.01886296 -0.10309180 0.04348516
v -0.01945698 -0.10284880 0.04314708
v -0.01944696 -0.10327280 0.04314708
v -0.01798897 -0.10136890 0.04346513
v -0.01848095 -0.10103380 0.04314708
v -0.01879698 -0.10131680 0.04314708
v -0.01812100 -0.10080790 0.04314708
v -0.01769495 -0.10127780 0.04348921
v -0.01772797 -0.10064780 0.04314708
v -0.01739895 -0.10118680 0.04348921
v -0.01731300 -0.10055780 0.04314708
v -0.01757895 -0.10269480 0.04385113
v -0.01771897 -0.10223990 0.04377412
v -0.01823496 -0.10289780 0.04372215
v -0.01603895 -0.10221780 0.04372215
v -0.01683598 -0.10196680 0.04377412
v -0.01669496 -0.10242080 0.04385113
v -0.01505798 -0.10148680 0.04314708
v -0.01534700 -0.10117590 0.04314708
v -0.01541095 -0.10202380 0.04348516
v -0.01482695 -0.10184280 0.04314708
v -0.01899296 -0.10164980 0.04318308
v -0.01905995 -0.10165080 0.04314708
v -0.01926100 -0.10202480 0.04314708
v -0.01785695 -0.10179680 0.04364514
v -0.01871395 -0.10255280 0.04352807
v -0.01939499 -0.10242780 0.04314708
v -0.01709896 -0.10095080 0.04339313
v -0.01688897 -0.10054080 0.04314708
v -0.01646697 -0.10059580 0.04314708
v -0.01710498 -0.10109580 0.04346513
v -0.01598095 -0.10120080 0.04338407
v -0.01606196 -0.10072380 0.04314708
v -0.01568496 -0.10091880 0.04314708
v -0.01697295 -0.10152280 0.04364514
v -0.01473200 -0.10183480 0.04298114
v -0.01456397 -0.10224580 0.04298114
v -0.01456397 -0.10224580 0.04270005
v -0.01473200 -0.10183480 0.04270005
v -0.01496899 -0.10145780 0.04298114
v -0.01496899 -0.10145780 0.04270005
v -0.01526695 -0.10112880 0.04298114
v -0.01526695 -0.10112880 0.04270005
v -0.01561897 -0.10085690 0.04298114
v -0.01561897 -0.10085690 0.04270005
v -0.01601195 -0.10064880 0.04298114
v -0.01601195 -0.10064880 0.04270005
v -0.01643496 -0.10051280 0.04298114
v -0.01643496 -0.10051280 0.04270005
v -0.01687496 -0.10045280 0.04298114
v -0.01687496 -0.10045280 0.04270005
v -0.01731896 -0.10046980 0.04298114
v -0.01731896 -0.10046980 0.04270005
v -0.01775395 -0.10056380 0.04298114
v -0.01775395 -0.10056380 0.04270005
v -0.01816499 -0.10073190 0.04298114
v -0.01816499 -0.10073190 0.04270005
v -0.01854199 -0.10096880 0.04298114
v -0.01854199 -0.10096880 0.04270005
v -0.01887094 -0.10126680 0.04298114
v -0.01887094 -0.10126680 0.04270005
v -0.01914298 -0.10161880 0.04298114
v -0.01914298 -0.10161880 0.04270005
v -0.01935100 -0.10201180 0.04298114
v -0.01935100 -0.10201180 0.04270005
v -0.01948696 -0.10243480 0.04298114
v -0.01948696 -0.10243480 0.04270005
v -0.01954698 -0.10287480 0.04298114
v -0.01954698 -0.10287480 0.04270005
v -0.01952999 -0.10331880 0.04298114
v -0.01952999 -0.10331880 0.04270005
v -0.01943600 -0.10375380 0.04298114
v -0.01943600 -0.10375380 0.04270005
v -0.01926797 -0.10416480 0.04298114
v -0.01926797 -0.10416480 0.04270005
v -0.01903098 -0.10454180 0.04298114
v -0.01903098 -0.10454180 0.04270005
v -0.01873296 -0.10487080 0.04298114
v -0.01873296 -0.10487080 0.04270005
v -0.01838099 -0.10514280 0.04298114
v -0.01838099 -0.10514280 0.04270005
v -0.01798796 -0.10535090 0.04298114
v -0.01798796 -0.10535090 0.04270005
v -0.01756495 -0.10548680 0.04298114
v -0.01756495 -0.10548680 0.04270005
v -0.01712495 -0.10554680 0.04298114
v -0.01712495 -0.10554680 0.04270005
v -0.01668095 -0.10552990 0.04298114
v -0.01668095 -0.10552990 0.04270005
v -0.01624596 -0.10543590 0.04298114
v -0.01624596 -0.10543590 0.04270005
v -0.01583498 -0.10526780 0.04298114
v -0.01583498 -0.10526780 0.04270005
v -0.01545798 -0.10503080 0.04298114
v -0.01545798 -0.10503080 0.04270005
v -0.01512897 -0.10473280 0.04298114
v -0.01512897 -0.10473280 0.04270005
v -0.01485699 -0.10438090 0.04298114
v -0.01485699 -0.10438090 0.04270005
v -0.01464897 -0.10398780 0.04298114
v -0.01464897 -0.10398780 0.04270005
v -0.01451295 -0.10356480 0.04298114
v -0.01451295 -0.10356480 0.04270005
v -0.01445299 -0.10312480 0.04298114
v -0.01445299 -0.10312480 0.04270005
v -0.01446998 -0.10268080 0.04298114
v -0.01446998 -0.10268080 0.04270005
v -0.01456397 -0.10224580 0.04298114
v -0.01456397 -0.10224580 0.04270005
v -0.01468199 -0.10228280 0.04251503
v -0.01466900 -0.10270580 0.04250001
v -0.01475495 -0.10230480 0.04250001
v -0.01484197 -0.10189080 0.04251503
v -0.01468199 -0.10228280 0.04251503
v -0.01475495 -0.10230480 0.04250001
v -0.01490998 -0.10192590 0.04250001
v -0.01478397 -0.10186080 0.04255914
v -0.01461994 -0.10226280 0.04255914
v -0.01474499 -0.10184080 0.04262304
v -0.01473200 -0.10183480 0.04270005
v -0.01456397 -0.10224580 0.04270005
v -0.01457899 -0.10225080 0.04262304
v -0.01506698 -0.10153280 0.04251503
v -0.01512795 -0.10157880 0.04250001
v -0.01501494 -0.10149380 0.04255914
v -0.01498097 -0.10146790 0.04262304
v -0.01496899 -0.10145780 0.04270005
v -0.01535099 -0.10121980 0.04251503
v -0.01540297 -0.10127580 0.04250001
v -0.01530694 -0.10117190 0.04255914
v -0.01527798 -0.10113990 0.04262304
v -0.01526695 -0.10112880 0.04270005
v -0.01568496 -0.10095980 0.04251503
v -0.01572698 -0.10102480 0.04250001
v -0.01564997 -0.10090580 0.04255914
v -0.01562696 -0.10086880 0.04262304
v -0.01561897 -0.10085690 0.04270005
v -0.01605999 -0.10076290 0.04251503
v -0.01608896 -0.10083380 0.04250001
v -0.01603394 -0.10070280 0.04255914
v -0.01601797 -0.10066280 0.04262304
v -0.01601195 -0.10064880 0.04270005
v -0.01646196 -0.10063380 0.04251503
v -0.01647895 -0.10070780 0.04250001
v -0.01644796 -0.10057080 0.04255914
v -0.01643794 -0.10052780 0.04262304
v -0.01643496 -0.10051280 0.04270005
v -0.01688098 -0.10057580 0.04251503
v -0.01688498 -0.10065280 0.04250001
v -0.01687794 -0.10051190 0.04255914
v -0.01687598 -0.10046780 0.04262304
v -0.01687496 -0.10045280 0.04270005
v -0.01730400 -0.10059290 0.04251503
v -0.01729398 -0.10066890 0.04250001
v -0.01731199 -0.10052780 0.04255914
v -0.01731795 -0.10048490 0.04262304
v -0.01731896 -0.10046980 0.04270005
v -0.01771700 -0.10068190 0.04251503
v -0.01769495 -0.10075480 0.04250001
v -0.01773697 -0.10061990 0.04255914
v -0.01774895 -0.10057890 0.04262304
v -0.01775395 -0.10056380 0.04270005
v -0.01810896 -0.10084180 0.04251503
v -0.01807397 -0.10090980 0.04250001
v -0.01813900 -0.10078380 0.04255914
v -0.01815897 -0.10074490 0.04262304
v -0.01816499 -0.10073190 0.04270005
v -0.01846694 -0.10106680 0.04251503
v -0.01842099 -0.10112780 0.04250001
v -0.01850599 -0.10101490 0.04255914
v -0.01853197 -0.10098080 0.04262304
v -0.01854199 -0.10096880 0.04270005
v -0.01877999 -0.10135090 0.04251503
v -0.01872396 -0.10140280 0.04250001
v -0.01897495 -0.10172680 0.04250001
v -0.01882797 -0.10130680 0.04255914
v -0.01885998 -0.10127780 0.04262304
v -0.01887094 -0.10126680 0.04270005
v -0.01903998 -0.10168480 0.04251503
v -0.01909399 -0.10164980 0.04255914
v -0.01913100 -0.10162680 0.04262304
v -0.01914298 -0.10161880 0.04270005
v -0.01923698 -0.10205990 0.04251503
v -0.01916599 -0.10208880 0.04250001
v -0.01929199 -0.10247880 0.04250001
v -0.01929700 -0.10203380 0.04255914
v -0.01933699 -0.10201780 0.04262304
v -0.01935100 -0.10201180 0.04270005
v -0.01936596 -0.10246180 0.04251503
v -0.01942896 -0.10244780 0.04255914
v -0.01947200 -0.10243780 0.04262304
v -0.01948696 -0.10243480 0.04270005
v -0.01942396 -0.10288080 0.04251503
v -0.01934695 -0.10288480 0.04250001
v -0.01948797 -0.10287780 0.04255914
v -0.01953196 -0.10287580 0.04262304
v -0.01954698 -0.10287480 0.04270005
v -0.01940697 -0.10330390 0.04251503
v -0.01933097 -0.10329380 0.04250001
v -0.01947200 -0.10331180 0.04255914
v -0.01951497 -0.10331780 0.04262304
v -0.01952999 -0.10331880 0.04270005
v -0.01931798 -0.10371690 0.04251503
v -0.01924496 -0.10369480 0.04250001
v -0.01937997 -0.10373680 0.04255914
v -0.01942098 -0.10374880 0.04262304
v -0.01943600 -0.10375380 0.04270005
v -0.01915800 -0.10410880 0.04251503
v -0.01908999 -0.10407380 0.04250001
v -0.01921600 -0.10413890 0.04255914
v -0.01925498 -0.10415880 0.04262304
v -0.01926797 -0.10416480 0.04270005
v -0.01893299 -0.10446680 0.04251503
v -0.01887196 -0.10442090 0.04250001
v -0.01898497 -0.10450580 0.04255914
v -0.01901894 -0.10453180 0.04262304
v -0.01903098 -0.10454180 0.04270005
v -0.01864898 -0.10477980 0.04251503
v -0.01859694 -0.10472380 0.04250001
v -0.01869297 -0.10482780 0.04255914
v -0.01872199 -0.10485980 0.04262304
v -0.01873296 -0.10487080 0.04270005
v -0.01831495 -0.10503980 0.04251503
v -0.01827299 -0.10497480 0.04250001
v -0.01835000 -0.10509380 0.04255914
v -0.01837295 -0.10513090 0.04262304
v -0.01838099 -0.10514280 0.04270005
v -0.01793998 -0.10523680 0.04251503
v -0.01791095 -0.10516580 0.04250001
v -0.01796597 -0.10529690 0.04255914
v -0.01798200 -0.10533690 0.04262304
v -0.01798796 -0.10535090 0.04270005
v -0.01753795 -0.10536580 0.04251503
v -0.01752096 -0.10529190 0.04250001
v -0.01755195 -0.10542880 0.04255914
v -0.01756197 -0.10547190 0.04262304
v -0.01756495 -0.10548680 0.04270005
v -0.01711899 -0.10542380 0.04251503
v -0.01711499 -0.10534680 0.04250001
v -0.01712197 -0.10548780 0.04255914
v -0.01712399 -0.10553180 0.04262304
v -0.01712495 -0.10554680 0.04270005
v -0.01669597 -0.10540680 0.04251503
v -0.01670598 -0.10533080 0.04250001
v -0.01668798 -0.10547190 0.04255914
v -0.01668196 -0.10551480 0.04262304
v -0.01668095 -0.10552990 0.04270005
v -0.01628297 -0.10531780 0.04251503
v -0.01630496 -0.10524480 0.04250001
v -0.01626294 -0.10537980 0.04255914
v -0.01625096 -0.10542080 0.04262304
v -0.01624596 -0.10543590 0.04270005
v -0.01589095 -0.10515790 0.04251503
v -0.01592600 -0.10508990 0.04250001
v -0.01557898 -0.10487180 0.04250001
v -0.01586097 -0.10521590 0.04255914
v -0.01584094 -0.10525480 0.04262304
v -0.01583498 -0.10526780 0.04270005
v -0.01553297 -0.10493290 0.04251503
v -0.01549398 -0.10498480 0.04255914
v -0.01546800 -0.10501880 0.04262304
v -0.01512897 -0.10473280 0.04270005
v -0.01545798 -0.10503080 0.04270005
v -0.01521998 -0.10464880 0.04251503
v -0.01527595 -0.10459680 0.04250001
v -0.01517200 -0.10469280 0.04255914
v -0.01513999 -0.10472190 0.04262304
v -0.01495999 -0.10431480 0.04251503
v -0.01502496 -0.10427290 0.04250001
v -0.01490598 -0.10434990 0.04255914
v -0.01486897 -0.10437280 0.04262304
v -0.01464897 -0.10398780 0.04270005
v -0.01485699 -0.10438090 0.04270005
v -0.01476299 -0.10393980 0.04251503
v -0.01483398 -0.10391080 0.04250001
v -0.01470798 -0.10352080 0.04250001
v -0.01470297 -0.10396580 0.04255914
v -0.01466298 -0.10398190 0.04262304
v -0.01463395 -0.10353780 0.04251503
v -0.01465296 -0.10311490 0.04250001
v -0.01457095 -0.10355180 0.04255914
v -0.01452797 -0.10356180 0.04262304
v -0.01451295 -0.10356480 0.04270005
v -0.01457595 -0.10311880 0.04251503
v -0.01451200 -0.10312180 0.04255914
v -0.01446795 -0.10312390 0.04262304
v -0.01445299 -0.10312480 0.04270005
v -0.01459294 -0.10269580 0.04251503
v -0.01452797 -0.10268780 0.04255914
v -0.01461994 -0.10226280 0.04255914
v -0.01448500 -0.10268180 0.04262304
v -0.01456397 -0.10224580 0.04270005
v -0.01446998 -0.10268080 0.04270005
v -0.01457899 -0.10225080 0.04262304
v -0.01632297 -0.10194880 0.04250001
v -0.01608896 -0.10083380 0.04250001
v -0.01572698 -0.10102480 0.04250001
v -0.01651597 -0.10184780 0.04250001
v -0.01647895 -0.10070780 0.04250001
v -0.01615095 -0.10208290 0.04250001
v -0.01540297 -0.10127580 0.04250001
v -0.01672297 -0.10178080 0.04250001
v -0.01688498 -0.10065280 0.04250001
v -0.01600396 -0.10224390 0.04250001
v -0.01512795 -0.10157880 0.04250001
v -0.01693898 -0.10175090 0.04250001
v -0.01729398 -0.10066890 0.04250001
v -0.01588797 -0.10242880 0.04250001
v -0.01490998 -0.10192590 0.04250001
v -0.01715695 -0.10175990 0.04250001
v -0.01769495 -0.10075480 0.04250001
v -0.01580595 -0.10262980 0.04250001
v -0.01475495 -0.10230480 0.04250001
v -0.01736998 -0.10180580 0.04250001
v -0.01807397 -0.10090980 0.04250001
v -0.01576000 -0.10284280 0.04250001
v -0.01466900 -0.10270580 0.04250001
v -0.01757097 -0.10188780 0.04250001
v -0.01842099 -0.10112780 0.04250001
v -0.01575100 -0.10306090 0.04250001
v -0.01465296 -0.10311490 0.04250001
v -0.01775598 -0.10200380 0.04250001
v -0.01872396 -0.10140280 0.04250001
v -0.01578098 -0.10327690 0.04250001
v -0.01470798 -0.10352080 0.04250001
v -0.01791697 -0.10215080 0.04250001
v -0.01584798 -0.10348380 0.04250001
v -0.01483398 -0.10391080 0.04250001
v -0.01805096 -0.10232280 0.04250001
v -0.01897495 -0.10172680 0.04250001
v -0.01594895 -0.10367680 0.04250001
v -0.01916599 -0.10208880 0.04250001
v -0.01815199 -0.10251580 0.04250001
v -0.01502496 -0.10427290 0.04250001
v -0.01608300 -0.10384880 0.04250001
v -0.01929199 -0.10247880 0.04250001
v -0.01821899 -0.10272280 0.04250001
v -0.01527595 -0.10459680 0.04250001
v -0.01624399 -0.10399580 0.04250001
v -0.01934695 -0.10288480 0.04250001
v -0.01824897 -0.10293880 0.04250001
v -0.01557898 -0.10487180 0.04250001
v -0.01642894 -0.10411190 0.04250001
v -0.01933097 -0.10329380 0.04250001
v -0.01823997 -0.10315680 0.04250001
v -0.01592600 -0.10508990 0.04250001
v -0.01924496 -0.10369480 0.04250001
v -0.01819396 -0.10336980 0.04250001
v -0.01630496 -0.10524480 0.04250001
v -0.01662999 -0.10419380 0.04250001
v -0.01684296 -0.10423980 0.04250001
v -0.01908999 -0.10407380 0.04250001
v -0.01811200 -0.10357080 0.04250001
v -0.01670598 -0.10533080 0.04250001
v -0.01706099 -0.10424880 0.04250001
v -0.01887196 -0.10442090 0.04250001
v -0.01799595 -0.10375580 0.04250001
v -0.01711499 -0.10534680 0.04250001
v -0.01727700 -0.10421890 0.04250001
v -0.01859694 -0.10472380 0.04250001
v -0.01784896 -0.10391680 0.04250001
v -0.01752096 -0.10529190 0.04250001
v -0.01827299 -0.10497480 0.04250001
v -0.01767694 -0.10405080 0.04250001
v -0.01791095 -0.10516580 0.04250001
v -0.01748394 -0.10415190 0.04250001
v -0.01588797 -0.10242880 0.04250001
v -0.01580595 -0.10262980 0.04250001
v -0.01580595 -0.10262980 0.03750014
v -0.01588797 -0.10242880 0.03750014
v -0.01600396 -0.10224390 0.04250001
v -0.01600396 -0.10224390 0.03750014
v -0.01615095 -0.10208290 0.03750014
v -0.01615095 -0.10208290 0.04250001
v -0.01632297 -0.10194880 0.04250001
v -0.01632297 -0.10194880 0.03750014
v -0.01651597 -0.10184780 0.04250001
v -0.01651597 -0.10184780 0.03750014
v -0.01672297 -0.10178080 0.04250001
v -0.01672297 -0.10178080 0.03750014
v -0.01693898 -0.10175090 0.03750014
v -0.01693898 -0.10175090 0.04250001
v -0.01715695 -0.10175990 0.04250001
v -0.01715695 -0.10175990 0.03750014
v -0.01736998 -0.10180580 0.04250001
v -0.01736998 -0.10180580 0.03750014
v -0.01757097 -0.10188780 0.04250001
v -0.01757097 -0.10188780 0.03750014
v -0.01775598 -0.10200380 0.04250001
v -0.01775598 -0.10200380 0.03750014
v -0.01791697 -0.10215080 0.03750014
v -0.01791697 -0.10215080 0.04250001
v -0.01805096 -0.10232280 0.04250001
v -0.01805096 -0.10232280 0.03750014
v -0.01815199 -0.10251580 0.04250001
v -0.01815199 -0.10251580 0.03750014
v -0.01821899 -0.10272280 0.03750014
v -0.01821899 -0.10272280 0.04250001
v -0.01824897 -0.10293880 0.04250001
v -0.01824897 -0.10293880 0.03750014
v -0.01823997 -0.10315680 0.04250001
v -0.01823997 -0.10315680 0.03750014
v -0.01819396 -0.10336980 0.04250001
v -0.01819396 -0.10336980 0.03750014
v -0.01811200 -0.10357080 0.04250001
v -0.01811200 -0.10357080 0.03750014
v -0.01799595 -0.10375580 0.04250001
v -0.01799595 -0.10375580 0.03750014
v -0.01784896 -0.10391680 0.04250001
v -0.01784896 -0.10391680 0.03750014
v -0.01767694 -0.10405080 0.04250001
v -0.01767694 -0.10405080 0.03750014
v -0.01748394 -0.10415190 0.04250001
v -0.01748394 -0.10415190 0.03750014
v -0.01727700 -0.10421890 0.04250001
v -0.01727700 -0.10421890 0.03750014
v -0.01706099 -0.10424880 0.04250001
v -0.01706099 -0.10424880 0.03750014
v -0.01684296 -0.10423980 0.04250001
v -0.01684296 -0.10423980 0.03750014
v -0.01662999 -0.10419380 0.04250001
v -0.01662999 -0.10419380 0.03750014
v -0.01642894 -0.10411190 0.04250001
v -0.01642894 -0.10411190 0.03750014
v -0.01624399 -0.10399580 0.04250001
v -0.01624399 -0.10399580 0.03750014
v -0.01608300 -0.10384880 0.04250001
v -0.01608300 -0.10384880 0.03750014
v -0.01594895 -0.10367680 0.04250001
v -0.01594895 -0.10367680 0.03750014
v -0.01584798 -0.10348380 0.04250001
v -0.01584798 -0.10348380 0.03750014
v -0.01578098 -0.10327690 0.04250001
v -0.01578098 -0.10327690 0.03750014
v -0.01575100 -0.10306090 0.04250001
v -0.01575100 -0.10306090 0.03750014
v -0.01576000 -0.10284280 0.04250001
v -0.01576000 -0.10284280 0.03750014
v -0.01580595 -0.10262980 0.04250001
v -0.01580595 -0.10262980 0.03750014
v -0.01858896 -0.10397580 0.04348516
v -0.01917296 -0.10415690 0.04314708
v -0.01894199 -0.10451280 0.04314708
v -0.01716399 -0.10403280 0.04377412
v -0.01730495 -0.10357880 0.04385113
v -0.01796096 -0.10378180 0.04372215
v -0.01711100 -0.10545880 0.04314708
v -0.01689499 -0.10490380 0.04346513
v -0.01753300 -0.10540390 0.04314708
v -0.01576495 -0.10310190 0.04372215
v -0.01642096 -0.10330480 0.04385113
v -0.01628094 -0.10375980 0.04377412
v -0.01668697 -0.10544180 0.04314708
v -0.01660096 -0.10481280 0.04348921
v -0.01627194 -0.10535180 0.04314708
v -0.01630496 -0.10472190 0.04348921
v -0.01587897 -0.10519180 0.04314708
v -0.01454299 -0.10315090 0.04314708
v -0.01455295 -0.10272680 0.04314708
v -0.01513695 -0.10290780 0.04348516
v -0.01460498 -0.10357180 0.04314708
v -0.01816195 -0.10433680 0.04352807
v -0.01865297 -0.10482380 0.04314708
v -0.01831495 -0.10508090 0.04314708
v -0.01702696 -0.10447680 0.04364514
v -0.01788198 -0.10523980 0.04318308
v -0.01793795 -0.10527580 0.04314708
v -0.01592499 -0.10474680 0.04339313
v -0.01551896 -0.10496580 0.04314708
v -0.01520299 -0.10468280 0.04314708
v -0.01601099 -0.10463080 0.04346513
v -0.01514297 -0.10390880 0.04338407
v -0.01473897 -0.10397480 0.04314708
v -0.01493996 -0.10434880 0.04314708
v -0.01614296 -0.10420280 0.04364514
v -0.01600396 -0.10224390 0.03750014
v -0.01632297 -0.10194880 0.03750014
v -0.01615095 -0.10208290 0.03750014
v -0.01791697 -0.10215080 0.03750014
v -0.01775598 -0.10200380 0.03750014
v -0.01757097 -0.10188780 0.03750014
v -0.01736998 -0.10180580 0.03750014
v -0.01715695 -0.10175990 0.03750014
v -0.01624399 -0.10399580 0.03750014
v -0.01594895 -0.10367680 0.03750014
v -0.01608300 -0.10384880 0.03750014
v -0.01824897 -0.10293880 0.03750014
v -0.01821899 -0.10272280 0.03750014
v -0.01815199 -0.10251580 0.03750014
v -0.01823997 -0.10315680 0.03750014
v -0.01819396 -0.10336980 0.03750014
v -0.01805096 -0.10232280 0.03750014
v -0.01693898 -0.10175090 0.03750014
v -0.01672297 -0.10178080 0.03750014
v -0.01651597 -0.10184780 0.03750014
v -0.01811200 -0.10357080 0.03750014
v -0.01706099 -0.10424880 0.03750014
v -0.01642894 -0.10411190 0.03750014
v -0.01662999 -0.10419380 0.03750014
v -0.01684296 -0.10423980 0.03750014
v -0.01784896 -0.10391680 0.03750014
v -0.01799595 -0.10375580 0.03750014
v -0.01748394 -0.10415190 0.03750014
v -0.01727700 -0.10421890 0.03750014
v -0.01767694 -0.10405080 0.03750014
v -0.01580595 -0.10262980 0.03750014
v -0.01576000 -0.10284280 0.03750014
v -0.01575100 -0.10306090 0.03750014
v -0.01578098 -0.10327690 0.03750014
v -0.01584798 -0.10348380 0.03750014
v -0.01588797 -0.10242880 0.03750014
v -0.01642096 -0.10330480 0.04310011
v -0.01628094 -0.10375980 0.04377412
v -0.01642096 -0.10330480 0.04385113
v -0.01614296 -0.10420280 0.04364514
v -0.01601099 -0.10463080 0.04310011
v -0.01601099 -0.10463080 0.04346513
v -0.01601099 -0.10463080 0.04310011
v -0.01630496 -0.10472190 0.04348921
v -0.01601099 -0.10463080 0.04346513
v -0.01689499 -0.10490380 0.04310011
v -0.01689499 -0.10490380 0.04346513
v -0.01660096 -0.10481280 0.04348921
v -0.01716399 -0.10403280 0.04377412
v -0.01730495 -0.10357880 0.04310011
v -0.01730495 -0.10357880 0.04385113
v -0.01702696 -0.10447680 0.04364514
v -0.01689499 -0.10490380 0.04310011
v -0.01689499 -0.10490380 0.04346513
v -0.01796096 -0.10378180 0.04372215
v -0.01730495 -0.10357880 0.04385113
v -0.01730495 -0.10357880 0.04310011
v -0.01858896 -0.10397580 0.04348516
v -0.01917296 -0.10415690 0.04314708
v -0.01922094 -0.10417080 0.04310011
v -0.01823496 -0.10289780 0.04372215
v -0.01757895 -0.10269480 0.04310011
v -0.01757895 -0.10269480 0.04385113
v -0.01886296 -0.10309180 0.04348516
v -0.01944696 -0.10327280 0.04314708
v -0.01949399 -0.10328780 0.04310011
v -0.01785695 -0.10179680 0.04364514
v -0.01798897 -0.10136890 0.04310011
v -0.01798897 -0.10136890 0.04346513
v -0.01757895 -0.10269480 0.04310011
v -0.01771897 -0.10223990 0.04377412
v -0.01757895 -0.10269480 0.04385113
v -0.01739895 -0.10118680 0.04348921
v -0.01710498 -0.10109580 0.04310011
v -0.01710498 -0.10109580 0.04346513
v -0.01769495 -0.10127780 0.04348921
v -0.01798897 -0.10136890 0.04310011
v -0.01798897 -0.10136890 0.04346513
v -0.01697295 -0.10152280 0.04364514
v -0.01710498 -0.10109580 0.04346513
v -0.01710498 -0.10109580 0.04310011
v -0.01669496 -0.10242080 0.04310011
v -0.01683598 -0.10196680 0.04377412
v -0.01669496 -0.10242080 0.04385113
f 1 2 3
f 4 5 6
f 7 8 9
f 10 11 12
f 10 12 13
f 10 13 14
f 10 14 15
f 16 15 3
f 16 10 15
f 17 18 11
f 17 10 16
f 17 11 10
f 19 3 2
f 19 16 3
f 20 16 19
f 20 18 17
f 20 2 18
f 20 19 2
f 20 17 16
f 21 2 1
f 22 2 21
f 23 24 25
f 23 25 2
f 23 22 24
f 23 2 22
f 26 1 27
f 26 21 1
f 28 21 26
f 28 24 22
f 28 22 21
f 29 30 24
f 29 28 30
f 29 24 28
f 31 26 27
f 31 27 32
f 33 28 26
f 33 30 28
f 33 26 31
f 34 35 30
f 34 30 33
f 34 33 35
f 36 32 37
f 36 31 32
f 38 31 36
f 38 35 33
f 38 33 31
f 39 40 35
f 39 38 40
f 39 35 38
f 41 36 37
f 41 37 42
f 43 38 36
f 43 40 38
f 43 36 41
f 44 45 40
f 44 40 43
f 46 42 47
f 46 41 42
f 48 41 46
f 48 43 41
f 49 50 45
f 49 45 44
f 49 43 48
f 49 44 43
f 51 46 47
f 51 47 52
f 51 52 53
f 54 48 46
f 54 46 51
f 55 56 50
f 55 49 48
f 55 50 49
f 55 48 54
f 57 51 53
f 58 51 57
f 58 54 51
f 59 54 58
f 59 60 56
f 59 55 54
f 59 56 55
f 61 57 53
f 61 53 62
f 63 57 61
f 63 58 57
f 64 65 60
f 64 59 58
f 64 60 59
f 64 58 63
f 66 63 61
f 66 62 67
f 66 61 62
f 68 63 66
f 68 66 67
f 69 70 65
f 69 64 63
f 69 63 68
f 69 65 64
f 71 67 72
f 73 67 71
f 73 68 67
f 73 71 72
f 74 68 73
f 74 75 70
f 74 70 69
f 74 69 68
f 76 72 77
f 78 72 76
f 78 73 72
f 78 76 77
f 79 80 81
f 79 81 75
f 79 74 73
f 79 75 74
f 79 73 78
f 82 77 83
f 84 77 82
f 84 82 83
f 84 78 77
f 84 79 78
f 85 80 79
f 85 79 84
f 86 83 87
f 88 83 86
f 88 86 87
f 88 84 83
f 89 85 84
f 89 90 80
f 89 88 87
f 89 84 88
f 89 80 85
f 91 87 92
f 93 87 91
f 93 91 92
f 94 95 96
f 94 96 90
f 94 89 87
f 94 87 93
f 94 93 92
f 94 90 89
f 97 92 98
f 99 92 97
f 99 97 98
f 99 98 100
f 101 100 95
f 101 94 92
f 101 99 100
f 101 92 99
f 101 95 94
f 102 98 103
f 102 100 98
f 102 104 100
f 105 102 103
f 106 104 102
f 106 102 105
f 106 107 104
f 108 105 103
f 108 106 105
f 108 107 106
f 108 103 6
f 109 108 6
f 109 6 5
f 110 107 108
f 110 108 109
f 110 109 5
f 110 5 107
f 111 5 4
f 112 5 111
f 113 5 112
f 113 112 114
f 113 114 115
f 113 115 5
f 116 4 117
f 116 111 4
f 118 112 111
f 118 114 112
f 118 111 116
f 119 118 120
f 119 120 114
f 119 114 118
f 121 117 122
f 121 116 117
f 123 118 116
f 123 120 118
f 123 116 121
f 124 120 123
f 124 123 125
f 124 125 120
f 126 122 127
f 126 121 122
f 128 125 123
f 128 123 121
f 128 121 126
f 129 125 128
f 129 128 130
f 129 130 125
f 131 126 127
f 131 127 132
f 133 126 131
f 133 130 128
f 133 128 126
f 134 135 130
f 134 130 133
f 136 132 137
f 136 131 132
f 138 133 131
f 138 131 136
f 139 133 138
f 139 140 135
f 139 134 133
f 139 135 134
f 141 137 142
f 141 136 137
f 143 136 141
f 143 139 138
f 143 138 136
f 144 139 143
f 144 145 140
f 144 140 139
f 146 143 141
f 146 141 142
f 146 142 147
f 148 143 146
f 149 145 144
f 149 143 148
f 149 150 145
f 149 144 143
f 151 146 147
f 151 147 152
f 153 148 146
f 153 146 151
f 154 149 148
f 154 150 149
f 154 148 153
f 154 155 156
f 154 156 150
f 157 151 152
f 157 152 158
f 159 153 151
f 159 151 157
f 159 154 153
f 159 157 158
f 160 154 159
f 160 155 154
f 160 161 155
f 162 158 163
f 164 162 163
f 164 159 158
f 164 158 162
f 165 159 164
f 165 160 159
f 165 161 160
f 165 166 161
f 167 163 168
f 169 167 168
f 169 164 163
f 169 163 167
f 170 164 169
f 170 166 165
f 170 165 164
f 170 171 166
f 172 168 173
f 174 172 173
f 174 169 168
f 174 168 172
f 175 169 174
f 175 170 169
f 175 171 170
f 175 176 171
f 177 173 178
f 179 177 178
f 179 174 173
f 179 173 177
f 180 174 179
f 180 176 175
f 180 175 174
f 180 179 178
f 181 178 182
f 183 178 181
f 183 181 182
f 184 180 178
f 184 183 182
f 184 178 183
f 184 185 186
f 184 176 180
f 184 186 176
f 187 182 188
f 189 182 187
f 189 187 188
f 190 191 185
f 190 189 191
f 190 184 182
f 190 185 184
f 190 182 189
f 192 193 191
f 192 191 189
f 192 189 188
f 192 188 194
f 195 188 196
f 195 196 197
f 195 194 188
f 198 193 192
f 198 9 8
f 198 197 9
f 198 8 193
f 198 192 194
f 198 195 197
f 198 194 195
f 199 200 201
f 199 202 203
f 199 203 204
f 199 204 200
f 205 206 207
f 208 209 205
f 208 210 209
f 211 212 213
f 211 207 212
f 211 205 207
f 214 205 211
f 214 208 205
f 215 216 208
f 217 211 218
f 217 214 211
f 219 215 208
f 220 208 214
f 220 219 208
f 221 220 214
f 222 221 214
f 223 222 214
f 224 225 226
f 224 226 227
f 224 227 228
f 229 224 228
f 230 231 232
f 233 234 235
f 233 236 234
f 237 238 236
f 237 236 233
f 239 240 238
f 239 238 237
f 241 242 243
f 244 245 246
f 247 248 249
f 250 247 249
f 251 252 253
f 251 235 252
f 251 254 233
f 251 233 235
f 255 256 231
f 255 253 256
f 255 230 243
f 255 242 254
f 255 251 253
f 255 254 251
f 255 231 230
f 255 243 242
f 257 258 240
f 257 259 258
f 257 239 260
f 257 240 239
f 257 260 259
f 261 262 259
f 261 263 262
f 261 248 263
f 261 264 245
f 261 260 264
f 261 244 249
f 261 259 260
f 261 245 244
f 261 249 248
f 265 266 267
f 265 267 268
f 269 268 270
f 269 265 268
f 271 270 272
f 271 269 270
f 273 272 274
f 273 271 272
f 275 274 276
f 275 273 274
f 277 275 276
f 277 276 278
f 279 277 278
f 279 278 280
f 281 279 280
f 281 280 282
f 283 281 282
f 283 282 284
f 285 283 284
f 285 284 286
f 287 285 286
f 287 286 288
f 289 287 288
f 289 288 290
f 291 289 290
f 291 290 292
f 293 291 292
f 293 292 294
f 295 293 294
f 295 294 296
f 297 295 296
f 297 296 298
f 299 297 298
f 299 298 300
f 301 299 300
f 301 300 302
f 303 302 304
f 303 301 302
f 305 304 306
f 305 303 304
f 307 306 308
f 307 305 306
f 309 308 310
f 309 307 308
f 311 310 312
f 311 309 310
f 313 312 314
f 313 311 312
f 315 314 316
f 315 313 314
f 317 316 318
f 317 315 316
f 319 318 320
f 319 317 318
f 321 320 322
f 321 319 320
f 323 322 324
f 323 321 322
f 325 324 326
f 325 323 324
f 327 326 328
f 327 325 326
f 329 327 328
f 329 328 330
f 331 329 330
f 331 330 332
f 333 331 332
f 333 332 334
f 335 333 334
f 335 334 336
f 337 335 336
f 337 336 338
f 339 340 341
f 342 343 344
f 342 344 345
f 346 343 342
f 346 347 343
f 348 349 350
f 348 350 351
f 348 351 347
f 348 347 346
f 352 345 353
f 352 342 345
f 354 342 352
f 354 346 342
f 355 356 349
f 355 348 346
f 355 349 348
f 355 346 354
f 357 352 353
f 357 353 358
f 359 352 357
f 359 354 352
f 360 361 356
f 360 354 359
f 360 356 355
f 360 355 354
f 362 357 358
f 362 358 363
f 364 357 362
f 364 359 357
f 365 366 361
f 365 359 364
f 365 361 360
f 365 360 359
f 367 362 363
f 367 363 368
f 369 364 362
f 369 365 364
f 369 362 367
f 370 371 366
f 370 366 365
f 370 365 369
f 372 367 368
f 372 368 373
f 374 367 372
f 374 370 369
f 374 369 367
f 375 371 370
f 375 370 374
f 375 376 371
f 377 372 373
f 377 373 378
f 379 374 372
f 379 372 377
f 380 381 376
f 380 374 379
f 380 376 375
f 380 375 374
f 382 377 378
f 382 378 383
f 384 377 382
f 384 379 377
f 385 386 381
f 385 379 384
f 385 380 379
f 385 381 380
f 387 384 382
f 387 383 388
f 387 382 383
f 389 384 387
f 390 386 385
f 390 384 389
f 390 385 384
f 390 391 386
f 392 387 388
f 392 388 393
f 394 387 392
f 394 389 387
f 395 391 390
f 395 390 389
f 395 396 391
f 395 389 394
f 397 392 393
f 397 393 398
f 399 394 392
f 399 395 394
f 399 392 397
f 400 401 396
f 400 395 399
f 400 396 395
f 402 397 398
f 402 399 397
f 402 398 403
f 402 403 404
f 405 399 402
f 406 407 401
f 406 401 400
f 406 400 399
f 406 399 405
f 408 402 404
f 409 402 408
f 409 405 402
f 409 406 405
f 410 411 407
f 410 407 406
f 410 406 409
f 412 404 413
f 412 413 414
f 412 408 404
f 415 409 408
f 415 408 412
f 416 417 411
f 416 409 415
f 416 411 410
f 416 410 409
f 418 412 414
f 419 412 418
f 419 415 412
f 419 416 415
f 420 421 417
f 420 417 416
f 420 416 419
f 422 418 414
f 422 414 423
f 424 419 418
f 424 418 422
f 425 426 421
f 425 421 420
f 425 419 424
f 425 420 419
f 427 422 423
f 427 423 428
f 427 424 422
f 429 424 427
f 430 431 426
f 430 426 425
f 430 424 429
f 430 425 424
f 432 428 433
f 432 429 427
f 432 427 428
f 434 429 432
f 435 429 434
f 435 430 429
f 435 436 431
f 435 431 430
f 437 432 433
f 437 433 438
f 439 432 437
f 439 434 432
f 440 435 434
f 440 436 435
f 440 441 436
f 440 434 439
f 442 439 437
f 442 437 438
f 442 438 443
f 444 439 442
f 445 446 441
f 445 439 444
f 445 441 440
f 445 440 439
f 447 442 443
f 447 443 448
f 449 444 442
f 449 442 447
f 450 451 446
f 450 444 449
f 450 445 444
f 450 446 445
f 452 447 448
f 452 448 453
f 454 447 452
f 454 449 447
f 455 456 451
f 455 451 450
f 455 450 449
f 455 449 454
f 457 454 452
f 457 452 453
f 457 453 458
f 459 454 457
f 460 461 456
f 460 456 455
f 460 455 454
f 460 454 459
f 462 457 458
f 462 458 463
f 464 459 457
f 464 457 462
f 465 466 461
f 465 461 460
f 465 459 464
f 465 460 459
f 467 462 463
f 467 463 468
f 467 464 462
f 469 464 467
f 470 471 466
f 470 466 465
f 470 465 464
f 470 464 469
f 472 468 473
f 472 467 468
f 474 469 467
f 474 467 472
f 475 476 471
f 475 471 470
f 475 469 474
f 475 470 469
f 477 473 478
f 477 472 473
f 479 474 472
f 479 472 477
f 480 481 476
f 480 476 475
f 480 475 474
f 480 474 479
f 482 477 478
f 482 478 483
f 482 483 484
f 485 479 477
f 485 477 482
f 486 479 485
f 486 487 481
f 486 480 479
f 486 481 480
f 488 482 484
f 489 485 482
f 489 486 485
f 489 482 488
f 490 487 486
f 490 486 489
f 490 491 492
f 490 492 487
f 493 488 484
f 493 484 494
f 493 489 488
f 495 489 493
f 496 490 489
f 496 491 490
f 496 489 495
f 497 493 494
f 497 494 498
f 499 493 497
f 499 495 493
f 500 501 502
f 500 502 491
f 500 491 496
f 500 496 495
f 500 495 499
f 503 497 498
f 503 498 504
f 503 504 505
f 506 499 497
f 506 497 503
f 507 501 500
f 507 499 506
f 507 500 499
f 508 503 505
f 508 505 509
f 510 506 503
f 510 503 508
f 511 512 501
f 511 501 507
f 511 506 510
f 511 507 506
f 513 508 509
f 514 508 513
f 514 510 508
f 515 516 512
f 515 512 511
f 515 511 510
f 515 510 514
f 517 340 339
f 517 513 509
f 517 509 340
f 518 517 339
f 518 513 517
f 518 514 513
f 518 339 519
f 520 521 522
f 520 522 516
f 520 514 518
f 520 516 515
f 520 515 514
f 520 518 519
f 520 523 521
f 520 519 523
f 524 525 526
f 527 528 525
f 527 525 524
f 529 526 530
f 529 524 526
f 531 532 528
f 531 528 527
f 533 530 534
f 533 529 530
f 535 536 532
f 535 532 531
f 537 534 538
f 537 533 534
f 539 536 535
f 539 540 536
f 541 538 542
f 541 537 538
f 543 544 540
f 543 540 539
f 545 541 542
f 545 542 546
f 547 548 544
f 547 544 543
f 549 545 546
f 549 546 550
f 551 548 547
f 551 552 548
f 553 549 550
f 553 550 554
f 555 552 551
f 556 553 554
f 556 554 557
f 558 559 552
f 558 552 555
f 560 556 557
f 561 559 558
f 561 558 562
f 563 560 557
f 564 560 563
f 565 561 562
f 565 562 566
f 567 568 564
f 567 564 563
f 569 566 570
f 569 565 566
f 571 572 568
f 571 568 567
f 573 569 570
f 573 570 574
f 575 572 571
f 576 574 577
f 576 573 574
f 578 579 572
f 578 580 579
f 578 572 575
f 581 576 577
f 581 577 582
f 583 584 580
f 583 580 578
f 585 582 586
f 585 581 582
f 587 588 584
f 587 584 583
f 589 586 590
f 589 585 586
f 591 588 587
f 592 589 590
f 592 590 593
f 594 588 591
f 594 592 593
f 594 595 588
f 594 593 595
f 596 597 598
f 596 598 599
f 600 601 602
f 600 599 601
f 600 596 599
f 603 600 602
f 604 602 605
f 604 603 602
f 606 605 607
f 606 604 605
f 608 606 607
f 608 609 610
f 608 607 609
f 611 608 610
f 612 611 610
f 612 610 613
f 614 612 613
f 614 613 615
f 616 614 615
f 616 615 617
f 618 616 617
f 618 619 620
f 618 617 619
f 621 618 620
f 622 621 620
f 622 620 623
f 624 622 623
f 624 625 626
f 624 623 625
f 627 624 626
f 628 627 626
f 628 626 629
f 630 628 629
f 630 629 631
f 632 630 631
f 632 631 633
f 634 633 635
f 634 632 633
f 636 635 637
f 636 634 635
f 638 636 637
f 638 637 639
f 640 639 641
f 640 638 639
f 642 641 643
f 642 640 641
f 644 643 645
f 644 642 643
f 646 645 647
f 646 644 645
f 648 647 649
f 648 646 647
f 650 649 651
f 650 648 649
f 652 651 653
f 652 650 651
f 654 653 655
f 654 652 653
f 656 655 657
f 656 654 655
f 658 657 659
f 658 656 657
f 660 658 659
f 660 659 661
f 662 660 661
f 662 661 663
f 664 662 663
f 664 663 665
f 666 664 665
f 666 665 667
f 668 666 667
f 668 667 669
f 670 671 672
f 673 674 675
f 676 677 678
f 679 680 681
f 682 683 677
f 682 677 676
f 684 685 683
f 684 683 682
f 686 685 684
f 687 688 689
f 690 687 689
f 691 692 693
f 691 672 692
f 691 694 673
f 691 675 670
f 691 670 672
f 691 673 675
f 695 696 678
f 695 693 696
f 695 677 694
f 695 678 677
f 695 694 691
f 695 691 693
f 697 698 699
f 697 686 698
f 697 700 685
f 697 699 700
f 697 685 686
f 701 702 690
f 701 703 702
f 701 699 703
f 701 689 679
f 701 704 700
f 701 681 704
f 701 679 681
f 701 700 699
f 701 690 689
f 705 706 707
f 708 709 710
f 708 710 711
f 708 711 712
f 713 714 715
f 716 717 718
f 719 716 718
f 720 718 721
f 720 721 708
f 720 712 722
f 720 722 723
f 720 723 724
f 720 708 712
f 720 719 718
f 725 724 706
f 725 720 724
f 726 713 727
f 726 727 728
f 726 728 729
f 726 714 713
f 730 731 725
f 732 726 733
f 734 735 736
f 734 736 737
f 734 737 738
f 734 738 739
f 734 739 714
f 734 730 725
f 734 726 732
f 734 705 740
f 734 740 735
f 734 706 705
f 734 714 726
f 734 725 706
f 741 742 743
f 744 742 741
f 745 746 744
f 745 744 741
f 747 748 749
f 750 751 752
f 750 752 748
f 750 748 747
f 753 754 755
f 756 757 754
f 756 754 753
f 758 757 756
f 759 760 761
f 762 759 761
f 763 762 761
f 764 763 761
f 765 766 767
f 768 766 765
f 769 766 768
f 770 766 769
f 771 772 773
f 774 772 771
f 775 774 771
f 776 774 775
f 777 778 779
f 780 781 778
f 780 778 777
f 782 781 780
f 783 784 785
f 786 783 785
f 787 783 786
f 788 787 786
f 789 790 791
f 792 793 794
f 795 796 797
f 798 799 800
f 798 800 801
f 798 801 802
f 798 802 803
f 804 803 791
f 804 798 803
f 805 806 799
f 805 798 804
f 805 799 798
f 807 791 790
f 807 804 791
f 808 804 807
f 808 806 805
f 808 790 806
f 808 807 790
f 808 805 804
f 809 790 789
f 810 790 809
f 811 812 813
f 811 813 790
f 811 810 812
f 811 790 810
f 814 789 815
f 814 809 789
f 816 809 814
f 816 812 810
f 816 810 809
f 817 818 812
f 817 816 818
f 817 812 816
f 819 814 815
f 819 815 820
f 821 816 814
f 821 818 816
f 821 814 819
f 822 823 818
f 822 818 821
f 822 821 823
f 824 820 825
f 824 819 820
f 826 819 824
f 826 823 821
f 826 821 819
f 827 828 823
f 827 826 828
f 827 823 826
f 829 824 825
f 829 825 830
f 831 826 824
f 831 828 826
f 831 824 829
f 832 833 828
f 832 828 831
f 834 830 835
f 834 829 830
f 836 829 834
f 836 831 829
f 837 838 833
f 837 833 832
f 837 831 836
f 837 832 831
f 839 834 835
f 839 835 840
f 839 840 841
f 842 836 834
f 842 834 839
f 843 844 838
f 843 837 836
f 843 838 837
f 843 836 842
f 845 839 841
f 846 839 845
f 846 842 839
f 847 842 846
f 847 848 844
f 847 843 842
f 847 844 843
f 849 845 841
f 849 841 850
f 851 845 849
f 851 846 845
f 852 853 848
f 852 847 846
f 852 848 847
f 852 846 851
f 854 851 849
f 854 850 855
f 854 849 850
f 856 851 854
f 856 854 855
f 857 858 853
f 857 852 851
f 857 851 856
f 857 853 852
f 859 855 860
f 861 855 859
f 861 856 855
f 861 859 860
f 862 856 861
f 862 863 858
f 862 858 857
f 862 857 856
f 864 860 865
f 866 860 864
f 866 861 860
f 866 864 865
f 867 868 869
f 867 869 863
f 867 862 861
f 867 863 862
f 867 861 866
f 870 865 871
f 872 865 870
f 872 870 871
f 872 866 865
f 872 867 866
f 873 868 867
f 873 867 872
f 874 871 875
f 876 871 874
f 876 874 875
f 876 872 871
f 877 873 872
f 877 878 868
f 877 876 875
f 877 872 876
f 877 868 873
f 879 875 880
f 881 875 879
f 881 879 880
f 882 883 884
f 882 884 878
f 882 877 875
f 882 875 881
f 882 881 880
f 882 878 877
f 885 880 886
f 887 880 885
f 887 885 886
f 887 886 888
f 889 888 883
f 889 882 880
f 889 887 888
f 889 880 887
f 889 883 882
f 890 886 891
f 890 888 886
f 890 892 888
f 893 890 891
f 894 892 890
f 894 890 893
f 894 895 892
f 896 893 891
f 896 894 893
f 896 895 894
f 896 891 794
f 897 896 794
f 897 794 793
f 898 895 896
f 898 896 897
f 898 897 793
f 898 793 895
f 899 793 792
f 900 793 899
f 901 793 900
f 901 900 902
f 901 902 903
f 901 903 793
f 904 792 905
f 904 899 792
f 906 900 899
f 906 902 900
f 906 899 904
f 907 906 908
f 907 908 902
f 907 902 906
f 909 905 910
f 909 904 905
f 911 906 904
f 911 908 906
f 911 904 909
f 912 908 911
f 912 911 913
f 912 913 908
f 914 910 915
f 914 909 910
f 916 913 911
f 916 911 909
f 916 909 914
f 917 913 916
f 917 916 918
f 917 918 913
f 919 914 915
f 919 915 920
f 921 914 919
f 921 918 916
f 921 916 914
f 922 923 918
f 922 918 921
f 924 920 925
f 924 919 920
f 926 921 919
f 926 919 924
f 927 921 926
f 927 928 923
f 927 922 921
f 927 923 922
f 929 925 930
f 929 924 925
f 931 924 929
f 931 927 926
f 931 926 924
f 932 927 931
f 932 933 928
f 932 928 927
f 934 931 929
f 934 929 930
f 934 930 935
f 936 931 934
f 937 933 932
f 937 931 936
f 937 938 933
f 937 932 931
f 939 934 935
f 939 935 940
f 941 936 934
f 941 934 939
f 942 937 936
f 942 938 937
f 942 936 941
f 942 943 944
f 942 944 938
f 945 939 940
f 945 940 946
f 947 941 939
f 947 939 945
f 947 942 941
f 947 945 946
f 948 942 947
f 948 943 942
f 948 949 943
f 950 946 951
f 952 950 951
f 952 947 946
f 952 946 950
f 953 947 952
f 953 948 947
f 953 949 948
f 953 954 949
f 955 951 956
f 957 955 956
f 957 952 951
f 957 951 955
f 958 952 957
f 958 954 953
f 958 953 952
f 958 959 954
f 960 956 961
f 962 960 961
f 962 957 956
f 962 956 960
f 963 957 962
f 963 958 957
f 963 959 958
f 963 964 959
f 965 961 966
f 967 965 966
f 967 962 961
f 967 961 965
f 968 962 967
f 968 964 963
f 968 963 962
f 968 967 966
f 969 966 970
f 971 966 969
f 971 969 970
f 972 968 966
f 972 971 970
f 972 966 971
f 972 973 974
f 972 964 968
f 972 974 964
f 975 970 976
f 977 970 975
f 977 975 976
f 978 979 973
f 978 977 979
f 978 972 970
f 978 973 972
f 978 970 977
f 980 981 979
f 980 979 977
f 980 977 976
f 980 976 982
f 983 976 984
f 983 984 985
f 983 982 976
f 986 981 980
f 986 797 796
f 986 985 797
f 986 796 981
f 986 980 982
f 986 983 985
f 986 982 983
f 987 988 989
f 987 990 991
f 987 991 992
f 987 992 988
f 993 994 995
f 996 997 993
f 996 998 997
f 999 1000 1001
f 999 995 1000
f 999 993 995
f 1002 993 999
f 1002 996 993
f 1003 1004 996
f 1005 999 1006
f 1005 1002 999
f 1007 1003 996
f 1008 996 1002
f 1008 1007 996
f 1009 1008 1002
f 1010 1009 1002
f 1011 1010 1002
f 1012 1013 1014
f 1012 1014 1015
f 1012 1015 1016
f 1017 1012 1016
f 1018 1019 1020
f 1021 1022 1023
f 1021 1024 1022
f 1025 1026 1024
f 1025 1024 1021
f 1027 1028 1026
f 1027 1026 1025
f 1029 1030 1031
f 1032 1033 1034
f 1035 1036 1037
f 1038 1035 1037
f 1039 1040 1041
f 1039 1023 1040
f 1039 1042 1021
f 1039 1021 1023
f 1043 1044 1019
f 1043 1041 1044
f 1043 1018 1031
f 1043 1030 1042
f 1043 1039 1041
f 1043 1042 1039
f 1043 1019 1018
f 1043 1031 1030
f 1045 1046 1028
f 1045 1047 1046
f 1045 1027 1048
f 1045 1028 1027
f 1045 1048 1047
f 1049 1050 1047
f 1049 1051 1050
f 1049 1036 1051
f 1049 1052 1033
f 1049 1048 1052
f 1049 1032 1037
f 1049 1047 1048
f 1049 1033 1032
f 1049 1037 1036
f 1053 1054 1055
f 1053 1055 1056
f 1057 1056 1058
f 1057 1053 1056
f 1059 1058 1060
f 1059 1057 1058
f 1061 1060 1062
f 1061 1059 1060
f 1063 1062 1064
f 1063 1061 1062
f 1065 1063 1064
f 1065 1064 1066
f 1067 1065 1066
f 1067 1066 1068
f 1069 1067 1068
f 1069 1068 1070
f 1071 1069 1070
f 1071 1070 1072
f 1073 1071 1072
f 1073 1072 1074
f 1075 1073 1074
f 1075 1074 1076
f 1077 1075 1076
f 1077 1076 1078
f 1079 1077 1078
f 1079 1078 1080
f 1081 1079 1080
f 1081 1080 1082
f 1083 1081 1082
f 1083 1082 1084
f 1085 1083 1084
f 1085 1084 1086
f 1087 1085 1086
f 1087 1086 1088
f 1089 1087 1088
f 1089 1088 1090
f 1091 1090 1092
f 1091 1089 1090
f 1093 1092 1094
f 1093 1091 1092
f 1095 1094 1096
f 1095 1093 1094
f 1097 1096 1098
f 1097 1095 1096
f 1099 1098 1100
f 1099 1097 1098
f 1101 1100 1102
f 1101 1099 1100
f 1103 1102 1104
f 1103 1101 1102
f 1105 1104 1106
f 1105 1103 1104
f 1107 1106 1108
f 1107 1105 1106
f 1109 1108 1110
f 1109 1107 1108
f 1111 1110 1112
f 1111 1109 1110
f 1113 1112 1114
f 1113 1111 1112
f 1115 1114 1116
f 1115 1113 1114
f 1117 1115 1116
f 1117 1116 1118
f 1119 1117 1118
f 1119 1118 1120
f 1121 1119 1120
f 1121 1120 1122
f 1123 1121 1122
f 1123 1122 1124
f 1125 1123 1124
f 1125 1124 1126
f 1127 1128 1129
f 1130 1131 1132
f 1130 1132 1133
f 1134 1131 1130
f 1134 1135 1131
f 1136 1137 1138
f 1136 1138 1139
f 1136 1139 1135
f 1136 1135 1134
f 1140 1133 1141
f 1140 1130 1133
f 1142 1130 1140
f 1142 1134 1130
f 1143 1144 1137
f 1143 1136 1134
f 1143 1137 1136
f 1143 1134 1142
f 1145 1140 1141
f 1145 1141 1146
f 1147 1140 1145
f 1147 1142 1140
f 1148 1149 1144
f 1148 1142 1147
f 1148 1144 1143
f 1148 1143 1142
f 1150 1145 1146
f 1150 1146 1151
f 1152 1145 1150
f 1152 1147 1145
f 1153 1154 1149
f 1153 1147 1152
f 1153 1149 1148
f 1153 1148 1147
f 1155 1150 1151
f 1155 1151 1156
f 1157 1152 1150
f 1157 1153 1152
f 1157 1150 1155
f 1158 1159 1154
f 1158 1154 1153
f 1158 1153 1157
f 1160 1155 1156
f 1160 1156 1161
f 1162 1155 1160
f 1162 1158 1157
f 1162 1157 1155
f 1163 1159 1158
f 1163 1158 1162
f 1163 1164 1159
f 1165 1160 1161
f 1165 1161 1166
f 1167 1162 1160
f 1167 1160 1165
f 1168 1169 1164
f 1168 1162 1167
f 1168 1164 1163
f 1168 1163 1162
f 1170 1165 1166
f 1170 1166 1171
f 1172 1165 1170
f 1172 1167 1165
f 1173 1174 1169
f 1173 1167 1172
f 1173 1168 1167
f 1173 1169 1168
f 1175 1172 1170
f 1175 1171 1176
f 1175 1170 1171
f 1177 1172 1175
f 1178 1174 1173
f 1178 1172 1177
f 1178 1173 1172
f 1178 1179 1174
f 1180 1175 1176
f 1180 1176 1181
f 1182 1175 1180
f 1182 1177 1175
f 1183 1179 1178
f 1183 1178 1177
f 1183 1184 1179
f 1183 1177 1182
f 1185 1180 1181
f 1185 1181 1186
f 1187 1182 1180
f 1187 1183 1182
f 1187 1180 1185
f 1188 1189 1184
f 1188 1183 1187
f 1188 1184 1183
f 1190 1185 1186
f 1190 1187 1185
f 1190 1186 1191
f 1190 1191 1192
f 1193 1187 1190
f 1194 1195 1189
f 1194 1189 1188
f 1194 1188 1187
f 1194 1187 1193
f 1196 1190 1192
f 1197 1190 1196
f 1197 1193 1190
f 1197 1194 1193
f 1198 1199 1195
f 1198 1195 1194
f 1198 1194 1197
f 1200 1192 1201
f 1200 1201 1202
f 1200 1196 1192
f 1203 1197 1196
f 1203 1196 1200
f 1204 1205 1199
f 1204 1197 1203
f 1204 1199 1198
f 1204 1198 1197
f 1206 1200 1202
f 1207 1200 1206
f 1207 1203 1200
f 1207 1204 1203
f 1208 1209 1205
f 1208 1205 1204
f 1208 1204 1207
f 1210 1206 1202
f 1210 1202 1211
f 1212 1207 1206
f 1212 1206 1210
f 1213 1214 1209
f 1213 1209 1208
f 1213 1207 1212
f 1213 1208 1207
f 1215 1210 1211
f 1215 1211 1216
f 1215 1212 1210
f 1217 1212 1215
f 1218 1219 1214
f 1218 1214 1213
f 1218 1212 1217
f 1218 1213 1212
f 1220 1216 1221
f 1220 1217 1215
f 1220 1215 1216
f 1222 1217 1220
f 1223 1217 1222
f 1223 1218 1217
f 1223 1224 1219
f 1223 1219 1218
f 1225 1220 1221
f 1225 1221 1226
f 1227 1220 1225
f 1227 1222 1220
f 1228 1223 1222
f 1228 1224 1223
f 1228 1229 1224
f 1228 1222 1227
f 1230 1227 1225
f 1230 1225 1226
f 1230 1226 1231
f 1232 1227 1230
f 1233 1234 1229
f 1233 1227 1232
f 1233 1229 1228
f 1233 1228 1227
f 1235 1230 1231
f 1235 1231 1236
f 1237 1232 1230
f 1237 1230 1235
f 1238 1239 1234
f 1238 1232 1237
f 1238 1233 1232
f 1238 1234 1233
f 1240 1235 1236
f 1240 1236 1241
f 1242 1235 1240
f 1242 1237 1235
f 1243 1244 1239
f 1243 1239 1238
f 1243 1238 1237
f 1243 1237 1242
f 1245 1242 1240
f 1245 1240 1241
f 1245 1241 1246
f 1247 1242 1245
f 1248 1249 1244
f 1248 1244 1243
f 1248 1243 1242
f 1248 1242 1247
f 1250 1245 1246
f 1250 1246 1251
f 1252 1247 1245
f 1252 1245 1250
f 1253 1254 1249
f 1253 1249 1248
f 1253 1247 1252
f 1253 1248 1247
f 1255 1250 1251
f 1255 1251 1256
f 1255 1252 1250
f 1257 1252 1255
f 1258 1259 1254
f 1258 1254 1253
f 1258 1253 1252
f 1258 1252 1257
f 1260 1256 1261
f 1260 1255 1256
f 1262 1257 1255
f 1262 1255 1260
f 1263 1264 1259
f 1263 1259 1258
f 1263 1257 1262
f 1263 1258 1257
f 1265 1261 1266
f 1265 1260 1261
f 1267 1262 1260
f 1267 1260 1265
f 1268 1269 1264
f 1268 1264 1263
f 1268 1263 1262
f 1268 1262 1267
f 1270 1265 1266
f 1270 1266 1271
f 1270 1271 1272
f 1273 1267 1265
f 1273 1265 1270
f 1274 1267 1273
f 1274 1275 1269
f 1274 1268 1267
f 1274 1269 1268
f 1276 1270 1272
f 1277 1273 1270
f 1277 1274 1273
f 1277 1270 1276
f 1278 1275 1274
f 1278 1274 1277
f 1278 1279 1280
f 1278 1280 1275
f 1281 1276 1272
f 1281 1272 1282
f 1281 1277 1276
f 1283 1277 1281
f 1284 1278 1277
f 1284 1279 1278
f 1284 1277 1283
f 1285 1281 1282
f 1285 1282 1286
f 1287 1281 1285
f 1287 1283 1281
f 1288 1289 1290
f 1288 1290 1279
f 1288 1279 1284
f 1288 1284 1283
f 1288 1283 1287
f 1291 1285 1286
f 1291 1286 1292
f 1291 1292 1293
f 1294 1287 1285
f 1294 1285 1291
f 1295 1289 1288
f 1295 1287 1294
f 1295 1288 1287
f 1296 1291 1293
f 1296 1293 1297
f 1298 1294 1291
f 1298 1291 1296
f 1299 1300 1289
f 1299 1289 1295
f 1299 1294 1298
f 1299 1295 1294
f 1301 1296 1297
f 1302 1296 1301
f 1302 1298 1296
f 1303 1304 1300
f 1303 1300 1299
f 1303 1299 1298
f 1303 1298 1302
f 1305 1128 1127
f 1305 1301 1297
f 1305 1297 1128
f 1306 1305 1127
f 1306 1301 1305
f 1306 1302 1301
f 1306 1127 1307
f 1308 1309 1310
f 1308 1310 1304
f 1308 1302 1306
f 1308 1304 1303
f 1308 1303 1302
f 1308 1306 1307
f 1308 1311 1309
f 1308 1307 1311
f 1312 1313 1314
f 1315 1316 1313
f 1315 1313 1312
f 1317 1314 1318
f 1317 1312 1314
f 1319 1320 1316
f 1319 1316 1315
f 1321 1318 1322
f 1321 1317 1318
f 1323 1324 1320
f 1323 1320 1319
f 1325 1322 1326
f 1325 1321 1322
f 1327 1324 1323
f 1327 1328 1324
f 1329 1326 1330
f 1329 1325 1326
f 1331 1332 1328
f 1331 1328 1327
f 1333 1329 1330
f 1333 1330 1334
f 1335 1336 1332
f 1335 1332 1331
f 1337 1333 1334
f 1337 1334 1338
f 1339 1336 1335
f 1339 1340 1336
f 1341 1337 1338
f 1341 1338 1342
f 1343 1340 1339
f 1344 1341 1342
f 1344 1342 1345
f 1346 1347 1340
f 1346 1340 1343
f 1348 1344 1345
f 1349 1347 1346
f 1349 1346 1350
f 1351 1348 1345
f 1352 1348 1351
f 1353 1349 1350
f 1353 1350 1354
f 1355 1356 1352
f 1355 1352 1351
f 1357 1354 1358
f 1357 1353 1354
f 1359 1360 1356
f 1359 1356 1355
f 1361 1357 1358
f 1361 1358 1362
f 1363 1360 1359
f 1364 1362 1365
f 1364 1361 1362
f 1366 1367 1360
f 1366 1368 1367
f 1366 1360 1363
f 1369 1364 1365
f 1369 1365 1370
f 1371 1372 1368
f 1371 1368 1366
f 1373 1370 1374
f 1373 1369 1370
f 1375 1376 1372
f 1375 1372 1371
f 1377 1374 1378
f 1377 1373 1374
f 1379 1376 1375
f 1380 1377 1378
f 1380 1378 1381
f 1382 1376 1379
f 1382 1380 1381
f 1382 1383 1376
f 1382 1381 1383
f 1384 1385 1386
f 1384 1386 1387
f 1388 1389 1390
f 1388 1387 1389
f 1388 1384 1387
f 1391 1388 1390
f 1392 1390 1393
f 1392 1391 1390
f 1394 1393 1395
f 1394 1392 1393
f 1396 1394 1395
f 1396 1397 1398
f 1396 1395 1397
f 1399 1396 1398
f 1400 1399 1398
f 1400 1398 1401
f 1402 1400 1401
f 1402 1401 1403
f 1404 1402 1403
f 1404 1403 1405
f 1406 1404 1405
f 1406 1407 1408
f 1406 1405 1407
f 1409 1406 1408
f 1410 1409 1408
f 1410 1408 1411
f 1412 1410 1411
f 1412 1413 1414
f 1412 1411 1413
f 1415 1412 1414
f 1416 1415 1414
f 1416 1414 1417
f 1418 1416 1417
f 1418 1417 1419
f 1420 1418 1419
f 1420 1419 1421
f 1422 1421 1423
f 1422 1420 1421
f 1424 1423 1425
f 1424 1422 1423
f 1426 1424 1425
f 1426 1425 1427
f 1428 1427 1429
f 1428 1426 1427
f 1430 1429 1431
f 1430 1428 1429
f 1432 1431 1433
f 1432 1430 1431
f 1434 1433 1435
f 1434 1432 1433
f 1436 1435 1437
f 1436 1434 1435
f 1438 1437 1439
f 1438 1436 1437
f 1440 1439 1441
f 1440 1438 1439
f 1442 1441 1443
f 1442 1440 1441
f 1444 1443 1445
f 1444 1442 1443
f 1446 1445 1447
f 1446 1444 1445
f 1448 1446 1447
f 1448 1447 1449
f 1450 1448 1449
f 1450 1449 1451
f 1452 1450 1451
f 1452 1451 1453
f 1454 1452 1453
f 1454 1453 1455
f 1456 1454 1455
f 1456 1455 1457
f 1458 1459 1460
f 1461 1462 1463
f 1464 1465 1466
f 1467 1468 1469
f 1470 1471 1465
f 1470 1465 1464
f 1472 1473 1471
f 1472 1471 1470
f 1474 1473 1472
f 1475 1476 1477
f 1478 1475 1477
f 1479 1480 1481
f 1479 1460 1480
f 1479 1482 1461
f 1479 1463 1458
f 1479 1458 1460
f 1479 1461 1463
f 1483 1484 1466
f 1483 1481 1484
f 1483 1465 1482
f 1483 1466 1465
f 1483 1482 1479
f 1483 1479 1481
f 1485 1486 1487
f 1485 1474 1486
f 1485 1488 1473
f 1485 1487 1488
f 1485 1473 1474
f 1489 1490 1478
f 1489 1491 1490
f 1489 1487 1491
f 1489 1477 1467
f 1489 1492 1488
f 1489 1469 1492
f 1489 1467 1469
f 1489 1488 1487
f 1489 1478 1477
f 1493 1494 1495
f 1496 1497 1498
f 1496 1498 1499
f 1496 1499 1500
f 1501 1502 1503
f 1504 1505 1506
f 1507 1504 1506
f 1508 1506 1509
f 1508 1509 1496
f 1508 1500 1510
f 1508 1510 1511
f 1508 1511 1512
f 1508 1496 1500
f 1508 1507 1506
f 1513 1512 1494
f 1513 1508 1512
f 1514 1501 1515
f 1514 1515 1516
f 1514 1516 1517
f 1514 1502 1501
f 1518 1519 1513
f 1520 1514 1521
f 1522 1523 1524
f 1522 1524 1525
f 1522 1525 1526
f 1522 1526 1527
f 1522 1527 1502
f 1522 1518 1513
f 1522 1514 1520
f 1522 1493 1528
f 1522 1528 1523
f 1522 1494 1493
f 1522 1502 1514
f 1522 1513 1494
f 1529 1530 1531
f 1532 1530 1529
f 1533 1534 1532
f 1533 1532 1529
f 1535 1536 1537
f 1538 1539 1540
f 1538 1540 1536
f 1538 1536 1535
f 1541 1542 1543
f 1544 1545 1542
f 1544 1542 1541
f 1546 1545 1544
f 1547 1548 1549
f 1550 1547 1549
f 1551 1550 1549
f 1552 1551 1549
f 1553 1554 1555
f 1556 1554 1553
f 1557 1554 1556
f 1558 1554 1557
f 1559 1560 1561
f 1562 1560 1559
f 1563 1562 1559
f 1564 1562 1563
f 1565 1566 1567
f 1568 1569 1566
f 1568 1566 1565
f 1570 1569 1568
f 1571 1572 1573
f 1574 1571 1573
f 1575 1571 1574
f 1576 1575 1574

