mtllib material.mtl
usemtl material_body_link5_0
v 0.11900800 -0.01817101 0.35771799
v 0.10723800 -0.00001102 0.37385100
v 0.10644100 -0.01691902 0.37491700
v 0.12016500 -0.00007902 0.35714301
v 0.11896400 0.01808498 0.35768899
v 0.10643400 0.01689598 0.37490100
v 0.11521900 -0.03665702 0.36013201
v 0.10204500 -0.03293201 0.37754601
v 0.11520600 0.03663698 0.36008400
v 0.10202800 0.03291598 0.37752199
v 0.13068600 -0.01837802 0.33746001
v 0.13144600 -0.00009701 0.33707801
v 0.12812001 -0.03663301 0.33850899
v 0.13069800 0.01826999 0.33745900
v 0.12813599 0.03658399 0.33849600
v 0.13946000 -0.01769501 0.31633699
v 0.14013000 -0.00012601 0.31620300
v 0.13947199 0.01756899 0.31633499
v 0.13758899 -0.03513301 0.31630200
v 0.13760100 0.03506298 0.31629199
v 0.14499800 -0.01664701 0.29485801
v 0.14559700 -0.00007701 0.29484701
v 0.14340800 -0.03298201 0.29464701
v 0.14500301 0.01656399 0.29485300
v 0.14345901 0.03291599 0.29464400
v 0.09390200 0.04662998 0.38282702
v 0.10747600 0.05793498 0.36428499
v 0.09395400 -0.04665202 0.38287601
v 0.10749600 -0.05789002 0.36440599
v 0.12418800 0.05526498 0.33845601
v 0.12417100 -0.05527202 0.33848399
v 0.13462099 0.05233999 0.31565401
v 0.13458000 -0.05237402 0.31566000
v 0.14064300 0.04931999 0.29392201
v 0.14062500 -0.04933801 0.29393700
v 0.05554900 0.06908399 0.40734601
v 0.07292900 0.07870998 0.39093000
v 0.05624700 0.08573799 0.40064299
v 0.06894900 0.06367399 0.39931500
v 0.07294400 -0.07869201 0.39092400
v 0.05555600 -0.06908602 0.40735200
v 0.05625100 -0.08573102 0.40064299
v 0.06895400 -0.06367102 0.39931300
v 0.08922100 0.07076099 0.37971199
v 0.08187600 0.05674898 0.39114800
v 0.08933300 -0.07073902 0.37978801
v 0.08188300 -0.05674202 0.39113900
v 0.10754200 0.07744198 0.35507000
v 0.12143600 0.07264899 0.33465800
v 0.10752000 -0.07740702 0.35511198
v 0.12143100 -0.07264101 0.33467200
v 0.11960100 0.09760399 0.30825401
v 0.10652600 0.11367399 0.32314301
v 0.11228800 0.10139898 0.32651699
v 0.11250400 0.11034998 0.30566299
v 0.10652100 -0.11366501 0.32312899
v 0.11252700 -0.11035401 0.30563899
v 0.11966100 -0.09762201 0.30825200
v 0.11233100 -0.10139602 0.32653901
v 0.13669600 0.06449299 0.29241801
v 0.13104400 0.06852399 0.31360001
v 0.11743000 0.08759598 0.33036900
v 0.12588701 0.08355299 0.31096200
v 0.13670200 -0.06450301 0.29241499
v 0.13104500 -0.06853802 0.31360998
v 0.11743700 -0.08758201 0.33038601
v 0.12590300 -0.08355001 0.31096699
v 0.09185900 0.08493598 0.37095401
v 0.09191600 -0.08491501 0.37105301
v 0.07587400 0.09193298 0.38331402
v 0.07586100 -0.09191302 0.38332501
v 0.10578800 0.09247599 0.34835700
v 0.10578100 -0.09245101 0.34839299
v 0.10249900 0.10534798 0.34327302
v 0.10255000 -0.10534801 0.34332698
v 0.09824700 0.11686798 0.33876899
v 0.09819100 -0.11682702 0.33871999
v 0.09031100 0.10933699 0.35773302
v 0.08789200 0.12060399 0.35321400
v 0.08789500 -0.12059601 0.35321798
v 0.09056600 -0.10945702 0.35797399
v 0.09219700 0.09754398 0.36356101
v 0.09223100 -0.09757002 0.36365199
v 0.07872900 0.10238498 0.37556500
v 0.07871700 -0.10240001 0.37559300
v 0.07777800 0.11301798 0.37031100
v 0.07784000 -0.11306102 0.37035700
v 0.07568400 0.12424099 0.36577201
v 0.07556900 -0.12415302 0.36563399
v 0.06520200 0.11534798 0.38088400
v 0.06244600 0.12720299 0.37673301
v 0.06751200 0.10622798 0.38346699
v 0.05803000 0.10061398 0.39326999
v 0.06520300 -0.11535302 0.38087901
v 0.06244700 -0.12720202 0.37673100
v 0.06752500 -0.10625202 0.38350701
v 0.05798500 -0.10058802 0.39322099
v 0.05187400 0.11411198 0.39160499
v 0.04808100 0.12650598 0.38849101
v 0.05180800 -0.11406702 0.39150801
v 0.04808900 -0.12650702 0.38849601
v 0.14279100 -0.04657101 0.27246499
v 0.14559500 -0.02992601 0.27332100
v 0.14279200 0.04657099 0.27246499
v 0.14559600 0.02992599 0.27332100
v 0.14695500 -0.01545501 0.27357200
v 0.14773300 -0.00000001 0.27390099
v 0.14695500 0.01545499 0.27357200
v 0.14773300 -0.00000001 0.27390099
v 0.14511800 0.01530799 0.27012700
v 0.14695500 0.01545499 0.27357200
v 0.14589100 -0.00000301 0.27033401
v 0.14695500 -0.01545501 0.27357200
v 0.14511800 -0.01530801 0.27012700
v 0.14371200 0.02978999 0.26973000
v 0.14559600 0.02992599 0.27332100
v 0.14559500 -0.02992601 0.27332100
v 0.14371200 -0.02979001 0.26973000
v 0.14279200 0.04657099 0.27246499
v 0.13830701 0.05686099 0.26666600
v 0.13941000 0.05934099 0.27076599
v 0.14101601 0.04645699 0.26904699
v 0.14279100 -0.04657101 0.27246499
v 0.14101499 -0.04645701 0.26904800
v 0.14511800 0.01530799 0.27012700
v 0.13083400 0.02612399 0.25911200
v 0.14371200 0.02978999 0.26973000
v 0.13070799 0.01462999 0.25968200
v 0.13055800 0.03059399 0.25770599
v 0.14101601 0.04645699 0.26904699
v 0.14371200 -0.02979001 0.26973000
v 0.13083400 -0.02612401 0.25911200
v 0.14511800 -0.01530801 0.27012700
v 0.13070799 -0.01463001 0.25968200
v 0.13054600 -0.03059501 0.25771299
v 0.14101499 -0.04645701 0.26904800
v 0.12963700 0.03395299 0.25491801
v 0.13830701 0.05686099 0.26666600
v 0.13689500 0.06017599 0.26347399
v 0.13224000 0.06209699 0.24858301
v 0.13468599 0.06206099 0.25593201
v 0.12769300 0.03545099 0.24949300
v 0.12964401 -0.03395201 0.25491500
v 0.13830701 -0.05686101 0.26666599
v 0.13689500 -0.06017601 0.26347398
v 0.12769300 -0.03545101 0.24949300
v 0.13468599 -0.06206101 0.25593200
v 0.13224000 -0.06209701 0.24858300
v 0.12972300 0.06076399 0.24169000
v 0.12585500 0.03547199 0.24439000
v 0.12972300 -0.06076401 0.24168999
v 0.12585500 -0.03547201 0.24438999
v 0.14589100 -0.00000301 0.27033401
v 0.13061100 -0.00000001 0.25966901
v 0.13941000 -0.05934101 0.27076599
v 0.13941000 -0.05934101 0.27076599
v 0.13830701 -0.05686101 0.26666599
v 0.13941000 0.05934099 0.27076599
v 0.11550300 -0.10692201 0.28754800
v 0.12384600 -0.09385201 0.28921800
v 0.11552300 0.10695699 0.28757900
v 0.12382200 0.09385599 0.28920600
v 0.13123900 -0.07937401 0.29084599
v 0.13123100 0.07937999 0.29086101
v 0.13224000 -0.06209701 0.24858300
v 0.13468599 -0.06206101 0.25593200
v 0.13331001 -0.07062201 0.25428798
v 0.11515600 -0.10461301 0.26934298
v 0.12462800 -0.09063801 0.27040600
v 0.11515200 0.10462299 0.26935000
v 0.12451800 0.09059299 0.27039999
v 0.13375600 -0.07349301 0.27033001
v 0.13331001 0.07062199 0.25428799
v 0.13468599 0.06206099 0.25593201
v 0.13224000 0.06209699 0.24858301
v 0.13371401 0.07349298 0.27033100
v 0.13689500 -0.06017601 0.26347398
v 0.13665800 -0.06613601 0.26561299
v 0.13665800 -0.06613601 0.26561299
v 0.13331001 -0.07062201 0.25428798
v 0.13689500 0.06017599 0.26347399
v 0.13665900 0.06613599 0.26561299
v 0.13665900 0.06613599 0.26561299
v 0.13331001 0.07062199 0.25428799
v 0.12755001 -0.07529301 0.23765400
v 0.12972300 -0.06076401 0.24168999
v 0.12755001 0.07529299 0.23765400
v 0.12972300 0.06076399 0.24169000
v 0.12274900 -0.08897001 0.25310000
v 0.12259000 0.08890999 0.25312701
v 0.11238800 -0.10331701 0.25178700
v 0.11234000 0.10331199 0.25180102
v 0.12755001 -0.07529301 0.23765400
v 0.11801500 -0.08999201 0.23642300
v 0.10755400 -0.10308101 0.23482200
v 0.12755001 0.07529299 0.23765400
v 0.11775700 0.08984699 0.23647601
v 0.10732100 0.10294799 0.23488901
v 0.06893500 -0.10762401 0.15850199
v 0.06927600 -0.10233001 0.13875800
v 0.07984800 -0.10020801 0.15633699
v 0.05804600 -0.10860601 0.14191299
v 0.05851200 -0.10397500 0.12169999
v 0.04688600 -0.10936700 0.12618100
v 0.05807700 0.10865700 0.14194000
v 0.06893600 0.10762699 0.15850500
v 0.06928000 0.10233200 0.13878701
v 0.07978700 0.10011199 0.15635300
v 0.04689200 0.10937199 0.12619800
v 0.05852000 0.10399000 0.12171200
v 0.08747000 -0.10520301 0.19030800
v 0.08938700 -0.09802901 0.17320199
v 0.09815500 -0.09581801 0.18937200
v 0.07904400 -0.10645001 0.17530499
v 0.07903300 0.10639599 0.17530601
v 0.08750000 0.10532699 0.19029901
v 0.08937900 0.09803699 0.17319800
v 0.09800000 0.09573200 0.18942701
v 0.11212700 -0.09160201 0.22057099
v 0.10167900 -0.10333601 0.22007599
v 0.10554600 -0.09348701 0.20498000
v 0.09489300 -0.10419001 0.20490600
v 0.11216900 0.09166899 0.22056300
v 0.10167100 0.10337499 0.22007600
v 0.10541700 0.09344199 0.20502401
v 0.09494600 0.10435199 0.20488300
v 0.04883600 -0.10533400 0.10562200
v 0.03619500 -0.10999500 0.11123199
v 0.04883900 0.10533600 0.10563101
v 0.03619000 0.10998199 0.11125201
v 0.12114400 -0.07894901 0.22114199
v 0.12114400 0.07894899 0.22114200
v 0.12706199 -0.05744301 0.23527899
v 0.12706199 -0.05744301 0.23527899
v 0.12706199 0.05744299 0.23527900
v 0.12706199 0.05744299 0.23527900
v 0.11434800 -0.08232601 0.20498600
v 0.11434800 0.08232599 0.20498601
v 0.12527201 -0.04840101 0.23128600
v 0.12434500 -0.03297601 0.24032000
v 0.12527201 0.04840099 0.23128601
v 0.12434400 0.03297599 0.24032100
v 0.12504099 -0.03041001 0.23049500
v 0.12294000 -0.02646501 0.23686699
v 0.12504099 0.03042299 0.23049399
v 0.12294300 0.02646499 0.23686600
v 0.12509200 -0.01462001 0.23054400
v 0.12267400 -0.01385501 0.23646501
v 0.12267400 0.01385499 0.23646501
v 0.12509100 0.01461999 0.23054400
v 0.12517300 -0.00000001 0.23056801
v 0.12264400 -0.00000001 0.23656000
v 0.12509200 -0.01462001 0.23054400
v 0.12254700 -0.00002001 0.21565300
v 0.12517300 -0.00000001 0.23056801
v 0.12222900 -0.01562701 0.21571399
v 0.12509100 0.01461999 0.23054400
v 0.12214400 0.01560399 0.21573100
v 0.12504099 -0.03041001 0.23049500
v 0.12184400 -0.03167701 0.21604200
v 0.12504099 0.03042299 0.23049399
v 0.12161800 0.03165599 0.21609400
v 0.12527201 -0.04840101 0.23128600
v 0.12131700 -0.04792401 0.21721400
v 0.12110300 0.04790199 0.21726500
v 0.12527201 0.04840099 0.23128601
v 0.12056000 -0.06237201 0.21967600
v 0.12114400 -0.07894901 0.22114199
v 0.12056300 0.06237599 0.21967401
v 0.12114400 0.07894899 0.22114200
v 0.11485700 -0.06539501 0.20386600
v 0.11434800 -0.08232601 0.20498600
v 0.11479300 0.06538299 0.20388000
v 0.11434800 0.08232599 0.20498601
v 0.10719000 -0.08529601 0.18920900
v 0.10719000 0.08529599 0.18920900
v 0.09885600 -0.08863401 0.17187100
v 0.09885600 0.08863399 0.17187101
v 0.09024300 -0.09094600 0.15503400
v 0.09024800 0.09094299 0.15503000
v 0.11661900 -0.04926701 0.20194700
v 0.11621600 0.04921099 0.20206100
v 0.10898200 -0.06793401 0.18801699
v 0.10719000 -0.08529601 0.18920900
v 0.10887500 0.06792399 0.18806100
v 0.10719000 0.08529599 0.18920900
v 0.10231200 -0.07053901 0.17076900
v 0.09885600 -0.08863401 0.17187100
v 0.10230200 0.07053399 0.17076901
v 0.09885600 0.08863399 0.17187101
v 0.11769800 -0.03277701 0.20075400
v 0.11748800 0.03276399 0.20078801
v 0.11144200 -0.05094801 0.18605900
v 0.11160600 0.05098199 0.18599700
v 0.10610200 -0.05305601 0.16919699
v 0.10617100 0.05307399 0.16914401
v 0.11830300 -0.01630301 0.20022499
v 0.11818000 0.01629199 0.20020901
v 0.11308200 -0.03392801 0.18480500
v 0.11307700 0.03401399 0.18475600
v 0.11400300 -0.01688501 0.18418200
v 0.11396000 0.01696199 0.18415099
v 0.10827300 -0.03534201 0.16827001
v 0.10830700 0.03544699 0.16827800
v 0.10951100 -0.01762701 0.16776100
v 0.10948300 0.01771099 0.16784200
v 0.11874500 -0.00002701 0.20000100
v 0.11005200 -0.00000501 0.16763100
v 0.11453400 -0.00001601 0.18389501
v 0.07967500 -0.09422400 0.13571000
v 0.07965300 0.09421399 0.13572400
v 0.10605100 -0.00000901 0.15130800
v 0.10525600 0.01851699 0.15147100
v 0.10524300 -0.01848601 0.15137100
v 0.10307300 -0.00000701 0.13506299
v 0.10221100 0.01940699 0.13508099
v 0.10218100 -0.01942801 0.13501699
v 0.10358300 0.03702099 0.15165501
v 0.10356300 -0.03697701 0.15162100
v 0.09977300 0.03877200 0.13499901
v 0.09989800 -0.03880101 0.13494299
v 0.10200600 0.00000199 0.11894100
v 0.10090500 0.02035699 0.11883400
v 0.10090700 -0.02042401 0.11882600
v 0.10271600 0.00000500 0.10306300
v 0.10138800 0.02129900 0.10286500
v 0.10132900 -0.02144200 0.10291900
v 0.10414500 0.00001300 0.08732400
v 0.10236800 0.02197400 0.08707200
v 0.10231900 -0.02221600 0.08719300
v 0.10552000 0.00002100 0.07150600
v 0.10358400 0.02237200 0.07120100
v 0.10351500 -0.02268700 0.07142000
v 0.10075200 0.05538999 0.15200100
v 0.10069300 -0.05537701 0.15206499
v 0.09587500 0.05803599 0.13478101
v 0.09577000 -0.05800301 0.13487500
v 0.09786400 0.04068100 0.11847800
v 0.09784300 -0.04078500 0.11850100
v 0.09711200 0.04242200 0.10237200
v 0.09686900 -0.04265200 0.10248300
v 0.09670600 0.04353800 0.08656500
v 0.09684400 -0.04417700 0.08670300
v 0.09723800 0.04399000 0.07071500
v 0.09696000 -0.04469600 0.07103400
v 0.09543500 0.07320000 0.15321300
v 0.09024800 0.09094299 0.15503000
v 0.09543400 -0.07321401 0.15322899
v 0.09024300 -0.09094600 0.15503400
v 0.08869200 0.07641699 0.13497600
v 0.07965300 0.09421399 0.13572400
v 0.08873800 -0.07647300 0.13498799
v 0.07967500 -0.09422400 0.13571000
v 0.06867900 0.09731400 0.11649100
v 0.09198600 0.06070899 0.11790400
v 0.06867900 -0.09731401 0.11649099
v 0.09180200 -0.06070300 0.11807400
v 0.08201900 0.07975599 0.11731901
v 0.06867900 0.09731400 0.11649100
v 0.08175100 -0.07963101 0.11749300
v 0.06867900 -0.09731401 0.11649099
v 0.05805700 0.09999600 0.09920901
v 0.08931700 0.06305500 0.10161000
v 0.05805700 -0.09999600 0.09920900
v 0.08909100 -0.06312301 0.10180400
v 0.07641100 0.08245799 0.10080400
v 0.07622900 -0.08240100 0.10097099
v 0.08750200 0.06436800 0.08581601
v 0.08752500 -0.06451200 0.08587999
v 0.05180400 0.09996099 0.08291801
v 0.07239900 0.08381800 0.08496000
v 0.07253900 -0.08379800 0.08493799
v 0.05180400 -0.09996100 0.08291800
v 0.08737300 0.06408599 0.07014200
v 0.08684000 -0.06429300 0.07031899
v 0.07273100 0.08177600 0.06987300
v 0.07281400 -0.08187101 0.06985300
v 0.08732500 -0.06392400 0.05439200
v 0.09774000 -0.04497200 0.05506600
v 0.09814700 0.04422700 0.05465900
v 0.08758500 0.06350700 0.05419100
v 0.10455000 -0.02302600 0.05536800
v 0.10464400 0.02269000 0.05510600
v 0.10685100 0.00002600 0.05547800
v 0.04148300 -0.10571900 0.08960399
v 0.04146400 0.10563700 0.08962100
v 0.07369600 -0.08016900 0.05407200
v 0.07387100 0.08002300 0.05397700
v 0.02743400 -0.11001100 0.09586899
v 0.02745300 0.11011599 0.09590000
v 0.05483100 -0.09552300 0.07033199
v 0.05488100 0.09581500 0.07035600
v 0.02532900 -0.10852200 0.07604800
v 0.04100100 -0.10392400 0.07286500
v 0.04097800 0.10393500 0.07288401
v 0.02532200 0.10852600 0.07605801
v 0.05758900 -0.09283401 0.05441200
v 0.05765900 0.09279100 0.05436600
v 0.04134500 -0.10144800 0.05561399
v 0.02508200 -0.10727700 0.05684600
v 0.04135500 0.10144499 0.05559401
v 0.02508200 0.10728000 0.05682200
v 0.10821200 -0.00001000 0.03907700
v 0.10591200 0.02284700 0.03867900
v 0.10962600 -0.00002800 0.02205000
v 0.10711000 0.02306500 0.02179300
v 0.10576800 -0.02327200 0.03897300
v 0.10709000 -0.02323300 0.02188200
v 0.09894100 0.04386400 0.03809300
v 0.10035000 0.04382700 0.02103100
v 0.09869500 -0.04449300 0.03842900
v 0.10014100 -0.04423000 0.02123700
v 0.08860400 0.06297300 0.03766400
v 0.08827200 -0.06338800 0.03790300
v 0.07509400 0.07886700 0.03736901
v 0.07487400 -0.07907700 0.03752100
v 0.05935200 0.09150200 0.03748700
v 0.06041700 0.09098700 0.02018900
v 0.07614600 0.07837200 0.02028100
v 0.05919800 -0.09159100 0.03759100
v 0.06044400 -0.09135800 0.02034600
v 0.07612800 -0.07877000 0.02046000
v 0.04241800 0.09989400 0.03793000
v 0.04249100 -0.10038100 0.03801399
v 0.02536500 0.10592200 0.03837700
v 0.02537900 -0.10617700 0.03844099
v 0.02597300 -0.10600800 0.02046800
v 0.04348800 -0.10036900 0.02038800
v 0.04344900 0.10006900 0.02027500
v 0.06123500 -0.09201800 0.00275800
v 0.04411500 -0.10134600 0.00259900
v 0.04507700 -0.10253000 -0.01532000
v 0.06231800 -0.09303100 -0.01531600
v 0.04507700 0.10253000 -0.01532000
v 0.06129500 0.09169600 0.00264600
v 0.06231800 0.09303100 -0.01531600
v 0.04396500 0.10080300 0.00251600
v 0.02638200 -0.10709300 0.00258100
v 0.02649800 -0.10877000 -0.01531000
v 0.02599000 0.10600300 0.02041501
v 0.02637400 0.10707200 0.00255800
v 0.02649800 0.10877000 -0.01530999
v 0.07734000 -0.07883700 0.00286600
v 0.07925000 -0.07909200 -0.01523000
v 0.07747400 0.07873200 0.00279300
v 0.07925000 0.07909200 -0.01523000
v 0.08948700 -0.06298500 0.02080700
v 0.08981900 0.06252500 0.02057400
v 0.09111000 -0.06264100 0.00305300
v 0.09323600 -0.06200400 -0.01529800
v 0.09323600 0.06200400 -0.01529800
v 0.09122100 0.06251200 0.00297300
v 0.10158200 -0.04388000 0.00331600
v 0.10323000 -0.04355600 -0.01526400
v 0.10323000 0.04355600 -0.01526400
v 0.10174700 0.04377300 0.00324100
v 0.10840600 -0.02276000 0.00361200
v 0.10968800 -0.02257300 -0.01524800
v 0.10968800 0.02257300 -0.01524800
v 0.10841400 0.02277800 0.00362100
v 0.11086600 -0.00001700 0.00388300
v 0.11212400 0.00000000 -0.01531400
v 0.00824100 0.11186200 -0.01523599
v 0.00830000 0.10923600 0.00252000
v 0.00830000 -0.10925600 0.00254900
v 0.00824100 -0.11186200 -0.01523600
v 0.00830000 0.10833700 0.02039301
v 0.00830000 -0.10837100 0.02045599
v 0.00787700 0.10930600 0.03846001
v 0.00788900 -0.10930401 0.03849900
v -0.01049800 0.11112600 -0.01522000
v -0.01059800 0.10964200 0.00259100
v -0.01034600 0.10878900 0.02025500
v -0.01056700 -0.10966500 0.00263700
v -0.01049800 -0.11112600 -0.01522001
v -0.01021700 -0.10890200 0.02039300
v -0.02975100 0.10724400 -0.01526600
v -0.02935900 0.10561700 0.00258000
v -0.02847300 0.10505700 0.02021600
v -0.02934100 -0.10567400 0.00261800
v -0.02975100 -0.10724400 -0.01526600
v -0.02835000 -0.10485800 0.02026600
v -0.04972500 0.09895900 -0.01518100
v -0.04768400 0.09813300 0.00279400
v -0.04551200 0.09766800 0.02063500
v -0.04759000 -0.09803700 0.00281300
v -0.04972500 -0.09895900 -0.01518100
v -0.04555600 -0.09764200 0.02067500
v -0.06657000 0.08799600 -0.01522700
v -0.06441400 0.08716900 0.00288000
v -0.06142800 0.08693900 0.02126300
v -0.06442900 -0.08716800 0.00290100
v -0.06657000 -0.08799600 -0.01522700
v -0.06178000 -0.08721300 0.02135600
v -0.08201700 0.07319800 -0.01520500
v -0.07920300 0.07237700 0.00236600
v -0.07664800 0.07211200 0.01986500
v -0.07920700 -0.07234100 0.00235600
v -0.08201700 -0.07319800 -0.01520500
v -0.07662900 -0.07200400 0.01985000
v -0.09462000 0.05530300 -0.01518900
v -0.09041100 0.05516000 0.00166100
v -0.08736500 0.05484100 0.01821400
v -0.09462000 -0.05530300 -0.01518900
v -0.09040400 -0.05515700 0.00165500
v -0.08724900 -0.05486200 0.01820800
v -0.10272000 0.03746700 -0.01525500
v -0.09765900 0.03724600 0.00107200
v -0.09387500 0.03705700 0.01698900
v -0.09767900 -0.03726300 0.00107900
v -0.10272000 -0.03746700 -0.01525500
v -0.09391700 -0.03707100 0.01698100
v -0.10728600 0.01996100 -0.01529300
v -0.10173600 0.01897600 0.00063700
v -0.10904200 0.00000000 -0.01528100
v -0.10321700 -0.00004700 0.00047600
v -0.09727800 0.01871700 0.01620300
v -0.09828700 -0.00000000 0.01591700
v -0.10728600 -0.01996100 -0.01529300
v -0.10173800 -0.01902600 0.00063500
v -0.09730400 -0.01873600 0.01619700
v -0.09439800 -0.00000300 0.03067100
v -0.09367800 -0.01868700 0.03098100
v -0.09360900 0.01867200 0.03097000
v -0.09066000 -0.03671200 0.03206800
v -0.09058200 0.03675000 0.03206000
v -0.08493900 -0.05408900 0.03413400
v -0.08491700 0.05414200 0.03414600
v -0.07494600 -0.07151800 0.03729300
v -0.07469300 0.07160100 0.03732300
v 0.00767400 -0.10981700 0.05740600
v 0.00765300 0.10983599 0.05740000
v 0.00754400 -0.11107900 0.07854600
v 0.00754100 0.11108800 0.07854900
v -0.01007000 -0.10865100 0.03798500
v -0.01010300 0.10868900 0.03793800
v -0.00999400 -0.10899800 0.05594500
v -0.00999700 0.10900499 0.05593401
v -0.00998300 -0.10968800 0.07419899
v -0.00997200 0.10969100 0.07419400
v -0.05765600 -0.08897000 0.04177600
v -0.04326800 -0.09837800 0.03817899
v -0.04072800 -0.09954600 0.05307000
v -0.05751800 0.08902599 0.04179100
v -0.04320500 0.09840700 0.03817101
v -0.04068700 0.09957000 0.05307600
v -0.02746000 -0.10504100 0.03726600
v -0.02693000 -0.10514600 0.05265599
v -0.02765500 -0.10505900 0.06438399
v -0.02745500 0.10505600 0.03723900
v -0.02691600 0.10515700 0.05265201
v -0.02758300 0.10498900 0.06440800
v -0.05078400 0.08580798 0.44067499
v -0.06162200 0.09598598 0.42626802
v -0.06234400 0.08202098 0.43786401
v -0.05019700 0.09794798 0.43013600
v -0.06161200 -0.09600602 0.42629799
v -0.05077500 -0.08578902 0.44065401
v -0.06229900 -0.08201802 0.43785700
v -0.05019300 -0.09798202 0.43018299
v -0.06071400 0.10892098 0.41607300
v -0.04946200 0.11002198 0.42051602
v -0.06073600 -0.10897702 0.41614499
v -0.04947100 -0.11007102 0.42057499
v -0.06010500 0.12181798 0.40579600
v -0.04866600 0.12227899 0.41105801
v -0.05927200 0.13562399 0.39496202
v -0.04772500 0.13551298 0.40092001
v -0.06016500 -0.12194202 0.40594199
v -0.04866900 -0.12230202 0.41108500
v -0.05929400 -0.13565801 0.39499300
v -0.04771200 -0.13549201 0.40088498
v -0.15379100 -0.00004701 0.20984600
v -0.14523600 0.02475699 0.19791900
v -0.14499500 -0.00003101 0.19441301
v -0.15361300 0.02240899 0.21292900
v -0.07240200 -0.09474902 0.41981500
v -0.07361300 -0.07941702 0.43145901
v -0.07242200 0.09474398 0.41980002
v -0.07370900 0.07943698 0.43146000
v -0.07066900 -0.10760901 0.41056200
v -0.07068100 0.10760098 0.41054202
v -0.07077400 -0.12006502 0.40039300
v -0.07079400 0.12004998 0.40037200
v -0.07041700 -0.13432801 0.38871198
v -0.07042500 0.13432698 0.38870800
v -0.08037200 -0.11530702 0.39509999
v -0.07787400 -0.10628902 0.40517398
v -0.08036900 0.11528899 0.39507202
v -0.07788700 0.10628298 0.40516201
v -0.08175300 -0.09571902 0.40973299
v -0.08178800 0.09573298 0.40974799
v -0.08402500 -0.07859602 0.42133400
v -0.08410000 0.07863798 0.42139301
v -0.08088500 -0.13092502 0.38152900
v -0.08084300 0.13089198 0.38147700
v -0.09057100 -0.10314302 0.39247500
v -0.09057600 0.10313998 0.39246899
v -0.09093700 -0.12508002 0.37330600
v -0.09094100 0.12508099 0.37330202
v -0.10256100 -0.09917802 0.37570700
v -0.10088600 -0.12035102 0.35968700
v -0.10257100 0.09917699 0.37571001
v -0.10088300 0.12035499 0.35968301
v -0.10952900 -0.11552201 0.34410899
v -0.11196900 -0.09534302 0.35894501
v -0.11198000 0.09533998 0.35893602
v -0.10953000 0.11553199 0.34410102
v -0.11766900 -0.10994302 0.32658800
v -0.12061200 -0.09115902 0.34131601
v -0.12061500 0.09115998 0.34130800
v -0.11770300 0.10993999 0.32656900
v -0.12186800 -0.07331102 0.35617798
v -0.11348500 -0.07510401 0.37443000
v -0.12186900 0.07331099 0.35617799
v -0.11349000 0.07510099 0.37443400
v -0.09417800 -0.07933602 0.40750101
v -0.10446700 -0.07734902 0.39141300
v -0.09418700 0.07933898 0.40750599
v -0.10446600 0.07734898 0.39141801
v -0.14521900 -0.02475901 0.19791900
v -0.15358301 -0.02244301 0.21292500
v -0.13922200 0.08344099 0.24721700
v -0.15009400 0.06055699 0.23793501
v -0.14644000 0.07256899 0.25678900
v -0.14221500 0.06852299 0.22536201
v -0.15009400 -0.06055701 0.23793500
v -0.13922200 -0.08344101 0.24721700
v -0.14644000 -0.07256901 0.25678900
v -0.14221500 -0.06852301 0.22536200
v -0.14463300 0.04815099 0.20801901
v -0.15265401 0.04310999 0.22208700
v -0.14434201 -0.04814601 0.20812499
v -0.15260801 -0.04319001 0.22209300
v -0.13463899 -0.09431401 0.26835098
v -0.13986400 -0.08287401 0.28430199
v -0.12802701 -0.10490201 0.28553500
v -0.12716100 -0.10143601 0.30359599
v -0.13973400 0.08276799 0.28423602
v -0.13460501 0.09428399 0.26833901
v -0.12817000 0.10490999 0.28550500
v -0.12717600 0.10141698 0.30357799
v -0.13882001 -0.07553201 0.30683499
v -0.12940000 -0.08505902 0.32233700
v -0.13860600 0.07547399 0.30678901
v -0.12955800 0.08513898 0.32238099
v -0.13022199 -0.07168502 0.33716499
v -0.13752900 -0.06956401 0.31967398
v -0.13021100 0.07167798 0.33716199
v -0.13751800 0.06956998 0.31968201
v -0.03291400 0.13749899 0.40328900
v -0.04710500 0.15155098 0.38785801
v -0.03488500 0.13310998 0.40652401
v 0.04144900 0.07284798 0.41568899
v 0.03892800 0.09166598 0.40992999
v 0.04144900 -0.07284802 0.41568899
v 0.03892800 -0.09166602 0.40992999
v -0.03901600 0.08815098 0.44167102
v -0.03841200 0.10001398 0.43153799
v -0.03901600 -0.08815102 0.44167101
v -0.03841200 -0.10001402 0.43153798
v -0.03765700 0.11126098 0.42267401
v -0.03765700 -0.11126102 0.42267400
v 0.03704700 0.10427298 0.40583900
v 0.03704700 -0.10427302 0.40583899
v 0.03552600 0.11366098 0.40273700
v 0.03318200 0.12204898 0.40024001
v 0.03552600 -0.11366102 0.40273699
v 0.03318200 -0.12204901 0.40024000
v -0.03671200 0.12121298 0.41535900
v -0.03671200 -0.12121301 0.41535899
v -0.03488500 -0.13311002 0.40652400
v 0.04144900 0.07284798 0.41568899
v 0.03892800 0.09166598 0.40992999
v 0.02696300 0.07836098 0.42297301
v 0.02484900 0.09337498 0.41753102
v 0.03892800 -0.09166602 0.40992999
v 0.02696300 -0.07836102 0.42297300
v 0.02484900 -0.09337502 0.41753101
v 0.04144900 -0.07284802 0.41568899
v 0.01130400 0.08335498 0.42984799
v 0.00957200 0.09653798 0.42349700
v 0.01130400 -0.08335502 0.42984798
v 0.00957200 -0.09653802 0.42349699
v -0.00568600 0.08758498 0.43552700
v -0.00656000 0.09927198 0.42806000
v -0.00568600 -0.08758502 0.43552699
v -0.00656000 -0.09927202 0.42805999
v -0.02226900 0.08921898 0.43983502
v -0.02259100 0.10061598 0.43108201
v -0.03841200 0.10001398 0.43153799
v -0.03901600 0.08815098 0.44167102
v -0.02226900 -0.08921902 0.43983501
v -0.02259100 -0.10061602 0.43108201
v -0.03841200 -0.10001402 0.43153798
v -0.03901600 -0.08815102 0.44167101
v -0.03765700 0.11126098 0.42267401
v -0.02274000 0.11161398 0.42309499
v -0.03765700 -0.11126102 0.42267400
v -0.02274000 -0.11161401 0.42309498
v -0.02671800 0.14064099 0.40175799
v -0.03291400 0.13749899 0.40328900
v -0.02352200 0.13207999 0.40843499
v -0.03488500 0.13310998 0.40652401
v -0.02290300 0.12193298 0.41579700
v -0.03671200 0.12121298 0.41535900
v -0.02352200 -0.13208002 0.40843498
v -0.03291400 -0.13749902 0.40328898
v -0.02671800 -0.14064102 0.40175798
v -0.03488500 -0.13311002 0.40652400
v -0.02290300 -0.12193302 0.41579699
v -0.03671200 -0.12121301 0.41535899
v -0.00892600 0.13136299 0.40797499
v -0.01191600 0.14196498 0.40096900
v -0.01191600 -0.14196502 0.40096899
v -0.00892600 -0.13136302 0.40797498
v -0.00726100 0.11051198 0.42103601
v -0.00781200 0.12113498 0.41450200
v -0.00726100 -0.11051202 0.42103600
v -0.00781200 -0.12113501 0.41450199
v 0.00840200 0.10847198 0.41746301
v 0.00840200 -0.10847202 0.41746300
v 0.00756700 0.12911299 0.40614600
v 0.00844800 0.13904598 0.39954502
v 0.00780600 0.11933698 0.41173101
v 0.00844800 -0.13904502 0.39954399
v 0.00756700 -0.12911302 0.40614598
v 0.00780600 -0.11933702 0.41173100
v 0.02508100 0.13402799 0.39758102
v 0.02224700 0.12566699 0.40345902
v 0.03061500 0.12831399 0.39837000
v 0.03318200 0.12204898 0.40024001
v 0.03318200 -0.12204901 0.40024000
v 0.02224700 -0.12566702 0.40345901
v 0.03061500 -0.12831402 0.39836999
v 0.02508100 -0.13402802 0.39758101
v 0.02332800 0.10597399 0.41258902
v 0.02239800 0.11640798 0.40802199
v 0.03704700 0.10427298 0.40583900
v 0.03552600 0.11366098 0.40273700
v 0.02332800 -0.10597402 0.41258901
v 0.02239800 -0.11640802 0.40802198
v 0.03704700 -0.10427302 0.40583899
v 0.03552600 -0.11366102 0.40273699
v -0.13414800 -0.02790501 0.17890599
v -0.13394000 -0.00000001 0.17556500
v -0.13414800 0.02790499 0.17890599
v -0.12518400 -0.02963701 0.16944700
v -0.13394000 -0.00000001 0.17556500
v -0.12563001 -0.00000001 0.16564500
v -0.13414800 -0.02790501 0.17890599
v -0.12518400 0.02963699 0.16944701
v -0.13414800 0.02790499 0.17890599
v -0.13387200 -0.05495701 0.19008000
v -0.12420100 -0.05772301 0.18230399
v -0.13387200 -0.05495701 0.19008000
v -0.13385300 0.05494599 0.19009400
v -0.12420100 0.05772299 0.18230400
v -0.13385300 0.05494599 0.19009400
v -0.13260400 -0.07743001 0.21075000
v -0.12244800 -0.07915301 0.20364800
v -0.13260400 -0.07743001 0.21075000
v -0.13260400 0.07742999 0.21075000
v -0.13260400 0.07742999 0.21075000
v -0.12244800 0.07915299 0.20364800
v -0.13056999 -0.09570901 0.23781099
v -0.12071600 -0.09781501 0.23299700
v -0.13056999 -0.09570901 0.23781099
v -0.13056800 0.09570699 0.23781100
v -0.12071400 0.09780999 0.23300000
v -0.13056800 0.09570699 0.23781100
v -0.12810799 -0.10547601 0.25733101
v -0.11782000 -0.10783601 0.25217598
v -0.12810799 -0.10547601 0.25733101
v -0.12813500 0.10548999 0.25732899
v -0.12813500 0.10548999 0.25732899
v -0.11783300 0.10788599 0.25215400
v -0.12397700 -0.11480202 0.27742698
v -0.11426400 -0.11738601 0.27223899
v -0.12397700 -0.11480202 0.27742698
v -0.12397700 0.11480199 0.27742699
v -0.12397700 0.11480199 0.27742699
v -0.11426500 0.11738899 0.27223799
v -0.11883600 -0.12316102 0.29545399
v -0.11034100 -0.12503601 0.28962400
v -0.11883600 -0.12316102 0.29545399
v -0.11883600 0.12316099 0.29545400
v -0.11883600 0.12316099 0.29545400
v -0.11034400 0.12505099 0.28961900
v -0.11234300 -0.13022601 0.31509900
v -0.10425000 -0.13315402 0.30909401
v -0.11234300 -0.13022601 0.31509900
v -0.11235200 0.13022898 0.31510202
v -0.11235200 0.13022898 0.31510202
v -0.10425000 0.13315399 0.30909402
v -0.10581700 -0.13590902 0.33075198
v -0.10588100 0.13593398 0.33077202
v -0.09839800 -0.14093602 0.34504198
v -0.09839000 0.14093198 0.34503800
v -0.09848600 -0.13892701 0.32426500
v -0.10581700 -0.13590902 0.33075198
v -0.10588100 0.13593398 0.33077202
v -0.09848600 0.13892698 0.32426501
v -0.09224500 -0.14353901 0.33749398
v -0.09839800 -0.14093602 0.34504198
v -0.09223600 0.14350398 0.33750100
v -0.09839000 0.14093198 0.34503800
v -0.08935900 -0.14488901 0.35845398
v -0.08935900 0.14488898 0.35845400
v -0.08410400 -0.14776202 0.35062000
v -0.08935900 -0.14488901 0.35845398
v -0.08935900 0.14488898 0.35845400
v -0.08410400 0.14776199 0.35062001
v -0.08028100 -0.14795801 0.36785399
v -0.08028100 0.14795798 0.36785401
v -0.06872000 -0.15006602 0.37687298
v -0.06872000 0.15006599 0.37687299
v -0.07544600 -0.15054101 0.35994699
v -0.08028100 -0.14795801 0.36785399
v -0.08028100 0.14795798 0.36785401
v -0.07539800 0.15056698 0.35989202
v -0.05829800 -0.15112202 0.38288098
v -0.05829800 0.15112299 0.38288201
v -0.06872000 -0.15006602 0.37687298
v -0.06424800 -0.15295002 0.36883500
v -0.05502300 -0.15390101 0.37439900
v -0.05829800 -0.15112202 0.38288098
v -0.05502300 0.15390098 0.37439901
v -0.06872000 0.15006599 0.37687299
v -0.05829800 0.15112299 0.38288201
v -0.06424800 0.15294999 0.36883501
v -0.03291400 -0.13749902 0.40328898
v -0.04706200 -0.15145502 0.38774499
v -0.04393100 -0.15471101 0.37885099
v -0.04706200 -0.15145502 0.38774499
v -0.04710500 0.15155098 0.38785801
v -0.04393100 0.15471098 0.37885100
v -0.02895800 -0.15154901 0.39225199
v -0.02671800 -0.14064102 0.40175798
v -0.02895800 -0.15154901 0.39225199
v -0.02728000 -0.15446101 0.38289499
v -0.02895800 0.15154898 0.39225200
v -0.02671800 0.14064099 0.40175799
v -0.02895800 0.15154898 0.39225200
v -0.02728000 0.15446798 0.38289601
v -0.01162200 -0.15033202 0.39394399
v -0.01191600 -0.14196502 0.40096899
v 0.00844800 -0.13904502 0.39954399
v 0.00824700 -0.14833902 0.39288499
v -0.01162200 -0.15033202 0.39394399
v -0.00977500 -0.15308702 0.38463699
v -0.01162200 0.15033199 0.39394400
v -0.01191600 0.14196498 0.40096900
v 0.00824700 0.14833899 0.39288501
v 0.00844800 0.13904598 0.39954502
v -0.01162200 0.15033199 0.39394400
v -0.00977500 0.15308799 0.38463700
v 0.02656400 -0.14500302 0.38874098
v 0.02508100 -0.13402802 0.39758101
v 0.02508100 0.13402799 0.39758102
v 0.02656400 0.14500299 0.38874099
v 0.04278600 -0.14135702 0.38269498
v 0.03061500 -0.12831402 0.39836999
v 0.04278600 0.14135699 0.38269500
v 0.03061500 0.12831399 0.39837000
v 0.06063100 -0.13750601 0.37191399
v 0.06063200 0.13750699 0.37191502
v 0.00824700 -0.14833902 0.39288499
v 0.00866700 -0.15053001 0.38343199
v 0.02656400 -0.14500302 0.38874098
v 0.02559700 -0.14787102 0.37963101
v 0.04278600 -0.14135702 0.38269498
v 0.04068500 -0.14499302 0.37371599
v 0.00824700 0.14833899 0.39288501
v 0.00866700 0.15052998 0.38343201
v 0.02656400 0.14500299 0.38874099
v 0.02559600 0.14786698 0.37963102
v 0.04278600 0.14135699 0.38269500
v 0.04068800 0.14500198 0.37371702
v 0.07366100 -0.13390702 0.36119601
v 0.07366100 0.13390699 0.36119602
v 0.06063100 -0.13750601 0.37191399
v 0.05740200 -0.14123102 0.36365300
v 0.06063200 0.13750699 0.37191502
v 0.05740700 0.14124498 0.36365399
v 0.08404600 -0.13118102 0.34918200
v 0.08404800 0.13118298 0.34918300
v 0.07366100 -0.13390702 0.36119601
v 0.06852500 -0.13826801 0.35455000
v 0.07366100 0.13390699 0.36119602
v 0.06852500 0.13826798 0.35455001
v 0.08404600 -0.13118102 0.34918200
v 0.07828100 -0.13528702 0.34380400
v 0.08404800 0.13118298 0.34918300
v 0.07828200 0.13528998 0.34380499
v 0.09313600 -0.12817301 0.33507600
v 0.09315200 0.12818399 0.33508200
v 0.08673700 -0.13227601 0.33139100
v 0.09313600 -0.12817301 0.33507600
v 0.09315200 0.12818399 0.33508200
v 0.08673900 0.13227999 0.33139101
v 0.09985000 -0.12511602 0.32072898
v 0.09984300 0.12510999 0.32072700
v 0.09273600 -0.12973702 0.31768199
v 0.09985000 -0.12511602 0.32072898
v 0.09984300 0.12510999 0.32072700
v 0.09273600 0.12973699 0.31768200
v 0.10476400 -0.12204601 0.30317699
v 0.10477000 0.12205099 0.30317700
v 0.09706800 -0.12709002 0.30039098
v 0.10476400 -0.12204601 0.30317699
v 0.10477000 0.12205099 0.30317700
v 0.09706900 0.12709299 0.30039099
v 0.10613500 -0.11997701 0.28646799
v 0.10613500 0.11997698 0.28646800
v 0.10493600 -0.11813301 0.26807799
v 0.10490200 0.11810399 0.26808599
v 0.10613500 -0.11997701 0.28646799
v 0.09802600 -0.12523101 0.28513601
v 0.10613500 0.11997698 0.28646800
v 0.09803000 0.12523699 0.28513602
v 0.10493600 -0.11813301 0.26807799
v 0.09700100 -0.12325401 0.26870900
v 0.09700000 0.12325099 0.26870901
v 0.10490200 0.11810399 0.26808599
v 0.10190700 -0.11654601 0.25143399
v 0.10190700 0.11654599 0.25143400
v 0.10190700 -0.11654601 0.25143399
v 0.09345300 -0.12167701 0.25226899
v 0.10190700 0.11654599 0.25143400
v 0.09345300 0.12167699 0.25226901
v 0.09661700 -0.11515901 0.23434400
v 0.09661700 0.11515899 0.23434401
v 0.09661700 -0.11515901 0.23434400
v 0.08827100 -0.12020201 0.23643900
v 0.09661700 0.11515899 0.23434401
v 0.08827400 0.12020799 0.23643700
v 0.09078900 -0.11443901 0.22007900
v 0.09078900 0.11443899 0.22007901
v 0.08368600 -0.11393001 0.20540499
v 0.08368600 0.11392999 0.20540500
v 0.09078900 -0.11443901 0.22007900
v 0.08295100 -0.11909501 0.22336600
v 0.09078900 0.11443899 0.22007901
v 0.08295100 0.11909499 0.22336601
v 0.07705000 -0.11367201 0.19282099
v 0.07705000 0.11367199 0.19282100
v 0.08368600 -0.11393001 0.20540499
v 0.07579600 -0.11811101 0.20853200
v 0.07579600 0.11811099 0.20853201
v 0.08368600 0.11392999 0.20540500
v 0.06886500 -0.11342201 0.17827600
v 0.06886500 0.11342199 0.17827601
v 0.07705000 -0.11367201 0.19282099
v 0.06951800 -0.11743401 0.19651100
v 0.06952200 0.11744799 0.19650801
v 0.07705000 0.11367199 0.19282100
v 0.06886500 -0.11342201 0.17827600
v 0.06124300 -0.11691901 0.18238900
v 0.06886500 0.11342199 0.17827601
v 0.06124500 0.11692299 0.18238901
v 0.00704100 -0.11357601 0.10576099
v 0.00704100 0.11358699 0.10576001
v 0.02157300 -0.11416300 0.11726800
v 0.02157300 0.11416299 0.11726801
v 0.03470200 -0.11409700 0.13006900
v 0.03470200 -0.11409700 0.13006900
v 0.01784800 -0.11551901 0.12551100
v 0.02157300 -0.11416300 0.11726800
v 0.02818200 -0.11608301 0.13688400
v 0.03470200 0.11409699 0.13006901
v 0.01784800 0.11551900 0.12551101
v 0.02818200 0.11608300 0.13688401
v 0.03470200 0.11409699 0.13006901
v 0.02157300 0.11416299 0.11726801
v 0.04670300 -0.11382101 0.14461800
v 0.04670300 -0.11382101 0.14461800
v 0.03977300 -0.11636801 0.15104299
v 0.04670300 0.11382099 0.14461801
v 0.03977300 0.11636499 0.15104400
v 0.04670300 0.11382099 0.14461801
v 0.05887200 -0.11346101 0.16182300
v 0.05887200 -0.11346101 0.16182300
v 0.05067000 -0.11661201 0.16635799
v 0.05887200 0.11346100 0.16182301
v 0.05887200 0.11346100 0.16182301
v 0.05067000 0.11661199 0.16635800
v 0.00614700 -0.11441000 0.11384999
v 0.00704100 -0.11357601 0.10576099
v 0.00614700 0.11440999 0.11385000
v 0.00704100 0.11358699 0.10576001
v -0.00980800 -0.11077800 0.09332399
v -0.00980800 0.11077799 0.09332400
v -0.01144200 -0.11071200 0.09692200
v -0.00980800 -0.11077800 0.09332399
v -0.01144200 0.11071200 0.09692201
v -0.00980800 0.11077799 0.09332400
v -0.02967000 -0.10471201 0.07876800
v -0.03106000 -0.10441200 0.08176500
v -0.02967000 -0.10471201 0.07876800
v -0.02967000 0.10471200 0.07876800
v -0.03105800 0.10440800 0.08176501
v -0.04507700 -0.09706500 0.06883300
v -0.04630000 -0.09647400 0.07150200
v -0.04507700 -0.09706500 0.06883300
v -0.04507700 0.09706500 0.06883301
v -0.04631200 0.09649600 0.07150101
v -0.06283500 -0.08353400 0.05899899
v -0.06345800 -0.08278900 0.06195600
v -0.06283500 -0.08353400 0.05899899
v -0.06285900 0.08355900 0.05900000
v -0.06347500 0.08280300 0.06195701
v -0.07519100 -0.06852000 0.05383800
v -0.07535300 -0.06780500 0.05640800
v -0.07519100 -0.06852000 0.05383800
v -0.07517800 0.06851200 0.05383600
v -0.07531600 0.06777800 0.05640900
v -0.08317600 -0.05267600 0.04966800
v -0.08317600 -0.05267600 0.04966800
v -0.08306300 -0.05182500 0.05261900
v -0.08307500 0.05263500 0.04965100
v -0.08303400 0.05181400 0.05261600
v -0.08797600 -0.03669900 0.04604700
v -0.08768200 -0.03654700 0.04934100
v -0.08797600 0.03669900 0.04604700
v -0.08765800 0.03654200 0.04933900
v -0.09143400 -0.00000000 0.04480100
v -0.09050300 -0.01912200 0.04470200
v -0.09103500 -0.00000000 0.04768200
v -0.09018900 -0.01942700 0.04801400
v -0.09050300 0.01912200 0.04470200
v -0.09017000 0.01942500 0.04801100
v -0.16081300 -0.00000001 0.22217700
v -0.16002300 -0.02097501 0.22446699
v -0.16002300 0.02097499 0.22446700
v -0.16081300 -0.00000001 0.22217700
v -0.16002300 -0.02097501 0.22446699
v -0.15921301 -0.01999101 0.22777600
v -0.15987900 -0.00000001 0.22509301
v -0.15921301 0.01999099 0.22777601
v -0.16002300 0.02097499 0.22446700
v -0.15816200 -0.03915401 0.23270300
v -0.15507001 -0.05502301 0.24765900
v -0.15816200 -0.03915401 0.23270300
v -0.15737399 -0.03706901 0.23594600
v -0.15816200 0.03915399 0.23270300
v -0.15507001 0.05502299 0.24765900
v -0.15816200 0.03915399 0.23270300
v -0.15737399 0.03706899 0.23594600
v -0.15507001 -0.05502301 0.24765900
v -0.15436400 -0.05160801 0.25036001
v -0.15436400 0.05160799 0.25036001
v -0.15507001 0.05502299 0.24765900
v -0.15174600 -0.06432001 0.26508099
v -0.15174600 0.06431999 0.26508099
v -0.14790601 -0.06822001 0.28454199
v -0.14790601 0.06821998 0.28454200
v -0.15148300 -0.06018501 0.26624000
v -0.15174600 -0.06432001 0.26508099
v -0.15148300 0.06018499 0.26624000
v -0.15174600 0.06431999 0.26508099
v -0.14790601 -0.06822001 0.28454199
v -0.14712501 -0.06450801 0.28927600
v -0.14790601 0.06821998 0.28454200
v -0.14712501 0.06450799 0.28927601
v -0.14375900 -0.06658301 0.30584600
v -0.14375900 0.06658299 0.30584601
v -0.14027400 -0.06236401 0.32217699
v -0.14027400 0.06236399 0.32217700
v -0.14375900 -0.06658301 0.30584600
v -0.14395900 -0.06332701 0.30523100
v -0.14395800 0.06332699 0.30523101
v -0.14375900 0.06658299 0.30584601
v -0.14042200 -0.05996801 0.32139998
v -0.14027400 -0.06236401 0.32217699
v -0.14027400 0.06236399 0.32217700
v -0.14042200 0.05996798 0.32139999
v -0.13230900 -0.05580901 0.34876400
v -0.13230900 0.05580898 0.34876400
v -0.12356500 -0.05465802 0.37008101
v -0.12356500 0.05465798 0.37008101
v -0.13230900 -0.05580901 0.34876400
v -0.13257000 -0.05314402 0.34805500
v -0.13256900 0.05314399 0.34805501
v -0.13230900 0.05580898 0.34876400
v -0.11390500 -0.05489802 0.39118600
v -0.11390500 0.05489798 0.39118600
v -0.12356500 -0.05465802 0.37008101
v -0.12391100 -0.05155502 0.37051600
v -0.12356500 0.05465798 0.37008101
v -0.12391100 0.05155498 0.37051600
v -0.11390500 -0.05489802 0.39118600
v -0.11379200 -0.05197302 0.39250698
v -0.11390500 0.05489798 0.39118600
v -0.11387800 0.05198598 0.39254901
v -0.10500400 -0.05594502 0.40865999
v -0.09493500 -0.05781002 0.42426499
v -0.10500400 -0.05594502 0.40865999
v -0.10492400 -0.05294102 0.40975499
v -0.09493500 0.05780998 0.42426500
v -0.10500700 0.05594698 0.40866199
v -0.10491000 0.05293698 0.40974799
v -0.10500700 0.05594698 0.40866199
v -0.08489300 -0.06004702 0.43584800
v -0.08494800 0.06005998 0.43590302
v -0.09493500 -0.05781002 0.42426499
v -0.09483400 -0.05480202 0.42579698
v -0.09482700 0.05479998 0.42579201
v -0.09493500 0.05780998 0.42426500
v 0.09389500 0.01547598 0.38841000
v 0.09458700 -0.00000002 0.38793501
v 0.09389500 -0.01547602 0.38841000
v 0.08989000 0.02838598 0.39125401
v 0.08989000 -0.02838602 0.39125401
v 0.09458700 -0.00000002 0.38793501
v 0.09148200 0.01493198 0.38913000
v 0.09236200 -0.00000002 0.38849199
v 0.09389500 0.01547598 0.38841000
v 0.09389500 -0.01547602 0.38841000
v 0.09152600 -0.01493902 0.38907599
v 0.08273000 0.03563798 0.39621800
v 0.08273000 -0.03563802 0.39621800
v 0.08806700 0.02746798 0.39182299
v 0.08989000 0.02838598 0.39125401
v 0.08989000 -0.02838602 0.39125401
v 0.08806800 -0.02746702 0.39182600
v 0.07411200 0.04171198 0.40200600
v 0.07411200 -0.04171202 0.40200600
v 0.08273000 0.03563798 0.39621800
v 0.08124100 0.03452598 0.39696101
v 0.08273000 -0.03563802 0.39621800
v 0.08124000 -0.03452602 0.39695799
v 0.06426500 0.04758598 0.40816900
v 0.06426500 -0.04758602 0.40816900
v 0.07411200 0.04171198 0.40200600
v 0.07300900 0.04032798 0.40272200
v 0.07411200 -0.04171202 0.40200600
v 0.07301900 -0.04032802 0.40273699
v 0.06364200 0.04577798 0.40882001
v 0.06426500 0.04758598 0.40816900
v 0.06364200 -0.04577802 0.40882000
v 0.06426500 -0.04758602 0.40816900
v 0.04332900 0.05783398 0.42048002
v 0.05393000 0.05296798 0.41429001
v 0.05393000 0.05296798 0.41429001
v 0.05346300 0.05101798 0.41494599
v 0.04332900 -0.05783402 0.42048001
v 0.05393000 -0.05296802 0.41429001
v 0.05347000 -0.05101902 0.41495600
v 0.05393000 -0.05296802 0.41429001
v 0.04332900 0.05783398 0.42048002
v 0.02852500 0.06373798 0.42858601
v 0.02852500 -0.06373802 0.42858600
v 0.04332900 -0.05783402 0.42048001
v 0.04332900 0.05783398 0.42048002
v 0.04340000 0.05566498 0.42083699
v 0.04340000 -0.05566502 0.42083698
v 0.04332900 -0.05783402 0.42048001
v 0.01260200 0.06966998 0.43651599
v 0.01260200 -0.06967002 0.43651598
v 0.02839400 0.06180298 0.42894000
v 0.02852500 0.06373798 0.42858601
v 0.02839400 -0.06180302 0.42894000
v 0.02852500 -0.06373802 0.42858600
v -0.00449600 0.07512798 0.44353500
v -0.00449600 -0.07512802 0.44353500
v 0.01217900 0.06739098 0.43693301
v 0.01260200 0.06966998 0.43651599
v 0.01217900 -0.06739102 0.43693301
v 0.01260200 -0.06967002 0.43651598
v -0.02176100 0.07795998 0.44894201
v -0.02176100 -0.07796002 0.44894200
v -0.00442000 0.07258898 0.44424901
v -0.00449600 0.07512798 0.44353500
v -0.00442000 -0.07258902 0.44424900
v -0.00449600 -0.07512802 0.44353500
v -0.03969500 0.07701298 0.45172102
v -0.03969500 -0.07701302 0.45172101
v -0.02157500 0.07565398 0.44978401
v -0.02176100 0.07795998 0.44894201
v -0.02157500 -0.07565402 0.44978401
v -0.02176100 -0.07796002 0.44894200
v -0.07455000 0.06416298 0.44349501
v -0.07453000 -0.06414202 0.44347301
v -0.08494800 0.06005998 0.43590302
v -0.08456700 0.05737998 0.43710301
v -0.08489300 -0.06004702 0.43584800
v -0.08456700 -0.05738002 0.43710300
v -0.06280200 0.06942598 0.44877801
v -0.06275600 -0.06937702 0.44868400
v -0.07455000 0.06416298 0.44349501
v -0.07410900 0.06166898 0.44473902
v -0.07411000 -0.06166902 0.44474101
v -0.07453000 -0.06414202 0.44347301
v -0.03969500 0.07701298 0.45172102
v -0.05097300 0.07448098 0.45112402
v -0.03969500 -0.07701302 0.45172101
v -0.05097300 -0.07448102 0.45112401
v -0.06280200 0.06942598 0.44877801
v -0.06218300 0.06745998 0.44993401
v -0.06214200 -0.06742402 0.44984901
v -0.06275600 -0.06937702 0.44868400
v -0.03969500 0.07701298 0.45172102
v -0.05097300 0.07448098 0.45112402
v -0.03969200 0.07482298 0.45305899
v -0.05103500 0.07181098 0.45266101
v -0.05097300 -0.07448102 0.45112401
v -0.03969200 -0.07482302 0.45305898
v -0.05103500 -0.07181102 0.45265999
v -0.03969500 -0.07701302 0.45172101
f 1 2 3
f 2 1 4
f 2 4 5
f 2 5 6
f 7 3 8
f 3 7 1
f 6 5 9
f 9 10 6
f 11 4 1
f 4 11 12
f 13 1 7
f 1 13 11
f 4 12 14
f 4 14 5
f 5 14 15
f 5 15 9
f 16 12 11
f 12 16 17
f 12 17 18
f 12 18 14
f 19 11 13
f 11 19 16
f 14 18 20
f 14 20 15
f 21 17 16
f 17 21 22
f 23 16 19
f 16 23 21
f 17 22 24
f 17 24 18
f 18 24 25
f 18 25 20
f 9 26 10
f 26 9 27
f 7 28 29
f 28 7 8
f 9 15 30
f 30 27 9
f 31 7 29
f 7 31 13
f 15 20 32
f 15 32 30
f 33 13 31
f 13 33 19
f 20 25 34
f 20 34 32
f 35 19 33
f 19 35 23
f 36 37 38
f 37 36 39
f 40 41 42
f 41 40 43
f 44 26 27
f 26 44 45
f 39 44 37
f 44 39 45
f 46 28 47
f 28 46 29
f 46 43 40
f 43 46 47
f 30 48 27
f 48 30 49
f 50 51 31
f 31 29 50
f 52 53 54
f 53 52 55
f 56 57 58
f 58 59 56
f 32 34 60
f 32 60 61
f 32 49 30
f 49 32 61
f 61 62 49
f 62 61 63
f 63 54 62
f 54 63 52
f 64 33 65
f 33 64 35
f 51 65 33
f 33 31 51
f 66 67 65
f 65 51 66
f 59 58 67
f 67 66 59
f 68 44 48
f 44 27 48
f 50 46 69
f 46 50 29
f 70 37 68
f 37 44 68
f 69 40 71
f 40 69 46
f 49 72 48
f 72 49 62
f 51 73 66
f 73 51 50
f 62 74 72
f 74 62 54
f 66 75 59
f 75 66 73
f 54 76 74
f 76 54 53
f 59 77 56
f 77 59 75
f 78 74 79
f 74 76 79
f 75 80 77
f 80 75 81
f 78 82 72
f 72 74 78
f 68 48 82
f 82 48 72
f 73 81 75
f 81 73 83
f 50 83 73
f 83 50 69
f 70 68 84
f 84 68 82
f 69 85 83
f 85 69 71
f 82 86 84
f 86 82 78
f 83 87 81
f 87 83 85
f 78 88 86
f 88 78 79
f 81 89 80
f 89 81 87
f 88 90 86
f 90 88 91
f 70 92 93
f 92 70 84
f 89 94 95
f 94 89 87
f 71 96 85
f 71 97 96
f 93 38 70
f 38 37 70
f 71 42 97
f 42 71 40
f 91 98 90
f 98 91 99
f 90 93 92
f 93 90 98
f 86 92 84
f 92 86 90
f 95 100 101
f 100 95 94
f 97 100 94
f 97 94 96
f 94 87 96
f 87 85 96
f 102 23 35
f 23 102 103
f 25 104 34
f 104 25 105
f 21 106 22
f 106 107 22
f 103 21 23
f 21 103 106
f 22 108 24
f 108 22 107
f 24 105 25
f 105 24 108
f 109 110 111
f 110 109 112
f 109 113 114
f 114 112 109
f 111 115 116
f 115 111 110
f 113 117 118
f 118 114 113
f 119 120 121
f 120 119 122
f 115 119 116
f 119 115 122
f 123 118 117
f 118 123 124
f 125 126 127
f 126 125 128
f 127 129 130
f 127 126 129
f 131 132 133
f 132 134 133
f 131 135 132
f 135 131 136
f 137 138 130
f 137 130 129
f 139 138 137
f 140 141 142
f 136 143 135
f 143 136 144
f 143 144 145
f 146 147 148
f 142 149 140
f 149 142 150
f 137 141 139
f 141 137 142
f 151 146 148
f 146 151 152
f 147 143 145
f 143 147 146
f 153 154 128
f 153 128 125
f 134 153 133
f 153 134 154
f 102 35 155
f 64 155 35
f 123 156 157
f 157 124 123
f 34 158 60
f 158 34 104
f 58 159 160
f 159 58 57
f 52 161 55
f 161 52 162
f 64 65 163
f 163 65 67
f 67 160 163
f 160 67 58
f 61 164 63
f 164 61 60
f 63 162 52
f 162 63 164
f 165 166 167
f 168 160 159
f 160 168 169
f 162 170 161
f 170 162 171
f 169 163 160
f 163 169 172
f 173 174 175
f 164 171 162
f 171 164 176
f 156 177 157
f 177 156 178
f 179 155 172
f 178 167 166
f 178 166 177
f 172 180 179
f 155 64 172
f 163 172 64
f 121 181 182
f 181 121 120
f 176 158 183
f 174 182 181
f 182 174 173
f 183 184 176
f 60 176 164
f 176 60 158
f 185 165 167
f 165 185 186
f 187 173 175
f 187 175 188
f 169 189 172
f 189 180 172
f 176 190 171
f 190 176 184
f 168 191 169
f 191 189 169
f 171 192 170
f 192 171 190
f 189 193 180
f 193 189 194
f 191 194 189
f 194 191 195
f 196 190 184
f 190 196 197
f 190 197 192
f 197 198 192
f 199 200 201
f 200 199 202
f 202 203 200
f 203 202 204
f 205 206 207
f 206 208 207
f 209 205 210
f 205 207 210
f 211 212 213
f 212 211 214
f 214 201 212
f 201 214 199
f 215 216 217
f 216 218 217
f 206 215 208
f 215 217 208
f 195 219 194
f 219 195 220
f 220 221 219
f 221 220 222
f 222 213 221
f 213 222 211
f 223 198 197
f 198 223 224
f 225 224 223
f 224 225 226
f 216 226 218
f 226 225 218
f 227 204 228
f 204 227 203
f 209 229 230
f 229 209 210
f 194 219 231
f 194 231 193
f 232 197 196
f 197 232 223
f 233 186 185
f 152 151 234
f 187 188 235
f 236 149 150
f 219 221 237
f 219 237 231
f 238 223 232
f 223 238 225
f 152 239 240
f 239 152 234
f 236 150 241
f 241 150 242
f 240 243 244
f 243 240 239
f 241 242 245
f 245 242 246
f 244 247 248
f 247 244 243
f 249 250 246
f 250 245 246
f 247 251 248
f 248 251 252
f 251 249 252
f 249 251 250
f 253 254 255
f 254 253 256
f 254 257 255
f 257 254 258
f 259 256 253
f 256 259 260
f 258 261 257
f 261 258 262
f 263 264 259
f 264 260 259
f 261 265 266
f 265 261 262
f 185 267 233
f 267 185 268
f 267 263 233
f 263 267 264
f 235 269 187
f 269 270 187
f 266 265 269
f 269 235 266
f 268 271 267
f 271 268 272
f 269 273 270
f 273 274 270
f 221 213 275
f 221 275 237
f 276 225 238
f 225 276 218
f 213 212 277
f 213 277 275
f 278 218 276
f 218 278 217
f 212 279 277
f 279 212 201
f 217 280 208
f 280 217 278
f 271 264 267
f 264 271 281
f 273 265 282
f 265 273 269
f 272 283 271
f 283 272 284
f 273 285 274
f 285 286 274
f 284 287 283
f 287 284 288
f 285 289 286
f 289 290 286
f 264 291 260
f 291 264 281
f 262 292 265
f 292 282 265
f 271 293 281
f 293 271 283
f 282 294 273
f 294 285 273
f 283 295 293
f 295 283 287
f 294 296 285
f 296 289 285
f 260 297 256
f 297 260 291
f 258 298 262
f 298 292 262
f 281 299 291
f 299 281 293
f 292 300 282
f 300 294 282
f 291 301 297
f 301 291 299
f 298 302 292
f 302 300 292
f 293 303 299
f 303 293 295
f 300 304 294
f 304 296 294
f 299 305 301
f 305 299 303
f 302 306 300
f 306 304 300
f 254 307 258
f 307 298 258
f 301 308 309
f 308 301 305
f 256 307 254
f 307 256 297
f 297 309 307
f 309 297 301
f 307 309 298
f 309 302 298
f 309 308 302
f 308 306 302
f 310 279 201
f 310 201 200
f 208 311 207
f 311 208 280
f 312 306 308
f 306 312 313
f 305 314 312
f 305 312 308
f 315 313 312
f 313 315 316
f 314 315 312
f 315 314 317
f 313 304 306
f 304 313 318
f 303 319 314
f 303 314 305
f 316 318 313
f 318 316 320
f 319 317 314
f 317 319 321
f 322 316 315
f 316 322 323
f 317 324 322
f 317 322 315
f 325 323 322
f 323 325 326
f 324 327 325
f 324 325 322
f 328 326 325
f 326 328 329
f 327 330 328
f 327 328 325
f 331 329 328
f 329 331 332
f 330 333 331
f 330 331 328
f 318 296 304
f 296 318 334
f 295 335 319
f 295 319 303
f 320 334 318
f 334 320 336
f 335 321 319
f 321 335 337
f 323 320 316
f 320 323 338
f 321 339 324
f 321 324 317
f 326 338 323
f 338 326 340
f 339 341 327
f 339 327 324
f 329 340 326
f 340 329 342
f 341 343 330
f 341 330 327
f 332 342 329
f 342 332 344
f 343 345 333
f 343 333 330
f 289 346 290
f 346 347 290
f 334 289 296
f 289 334 346
f 288 348 287
f 348 288 349
f 287 348 335
f 287 335 295
f 346 350 347
f 350 351 347
f 336 346 334
f 346 336 350
f 349 352 348
f 352 349 353
f 348 337 335
f 337 348 352
f 207 354 210
f 354 207 311
f 338 336 320
f 336 338 355
f 356 310 200
f 356 200 203
f 337 357 339
f 337 339 321
f 350 358 351
f 358 359 351
f 355 350 336
f 350 355 358
f 353 360 352
f 360 353 361
f 352 360 357
f 352 357 337
f 210 362 229
f 362 210 354
f 340 355 338
f 355 340 363
f 364 356 203
f 364 203 227
f 357 365 341
f 357 341 339
f 358 366 359
f 366 362 359
f 363 358 355
f 358 363 366
f 361 367 360
f 367 361 364
f 360 367 365
f 360 365 357
f 342 363 340
f 363 342 368
f 365 369 343
f 365 343 341
f 370 362 371
f 371 362 366
f 368 366 363
f 366 368 371
f 364 372 367
f 372 364 373
f 367 372 369
f 367 369 365
f 344 368 342
f 368 344 374
f 369 375 345
f 369 345 343
f 368 374 376
f 368 376 371
f 377 369 372
f 369 377 375
f 375 378 379
f 375 379 345
f 380 374 344
f 374 380 381
f 345 379 382
f 345 382 333
f 383 344 332
f 344 383 380
f 333 382 384
f 333 384 331
f 384 332 331
f 332 384 383
f 364 385 373
f 385 364 227
f 386 362 370
f 362 386 229
f 387 375 377
f 375 387 378
f 374 381 388
f 374 388 376
f 385 228 389
f 228 385 227
f 230 386 390
f 386 230 229
f 372 391 377
f 391 372 373
f 376 392 371
f 392 370 371
f 385 393 394
f 393 385 389
f 394 373 385
f 373 394 391
f 395 396 386
f 396 390 386
f 392 395 370
f 395 386 370
f 377 397 387
f 397 377 391
f 388 398 376
f 398 392 376
f 399 391 394
f 391 399 397
f 394 400 399
f 400 394 393
f 398 401 392
f 401 395 392
f 401 402 395
f 402 396 395
f 403 383 384
f 383 403 404
f 405 404 403
f 404 405 406
f 382 403 384
f 403 382 407
f 407 405 403
f 405 407 408
f 404 380 383
f 380 404 409
f 406 409 404
f 409 406 410
f 379 407 382
f 407 379 411
f 411 408 407
f 408 411 412
f 380 413 381
f 413 380 409
f 378 411 379
f 411 378 414
f 381 415 388
f 415 381 413
f 387 416 378
f 416 414 378
f 415 417 388
f 417 398 388
f 418 415 419
f 415 418 417
f 387 420 416
f 420 387 397
f 416 420 421
f 416 421 422
f 423 398 417
f 398 423 401
f 397 399 424
f 397 424 420
f 423 425 401
f 425 402 401
f 399 426 424
f 426 399 400
f 424 426 427
f 424 427 428
f 420 424 428
f 420 428 421
f 429 417 418
f 417 429 423
f 430 431 432
f 430 432 433
f 434 435 436
f 435 434 437
f 431 438 439
f 431 439 432
f 440 423 429
f 423 440 425
f 428 438 431
f 438 428 427
f 437 441 429
f 441 440 429
f 442 437 434
f 437 442 441
f 443 433 444
f 433 443 430
f 421 431 430
f 431 421 428
f 436 445 446
f 445 436 435
f 435 437 418
f 437 429 418
f 416 447 414
f 447 416 422
f 414 412 411
f 412 414 447
f 413 419 415
f 419 413 448
f 410 413 409
f 413 410 448
f 444 449 443
f 449 444 450
f 422 430 443
f 430 422 421
f 451 446 452
f 452 446 445
f 445 435 419
f 435 418 419
f 450 453 449
f 453 450 454
f 422 443 449
f 422 449 447
f 455 451 456
f 456 451 452
f 452 419 448
f 419 452 445
f 454 457 453
f 457 454 458
f 449 412 447
f 412 449 453
f 459 455 460
f 460 455 456
f 456 448 410
f 448 456 452
f 458 461 457
f 461 458 462
f 453 408 412
f 408 453 457
f 457 405 408
f 405 457 461
f 461 406 405
f 406 461 460
f 459 461 462
f 461 459 460
f 460 410 406
f 410 460 456
f 463 441 442
f 441 463 464
f 438 465 466
f 438 466 439
f 464 440 441
f 440 464 467
f 427 465 438
f 465 427 468
f 467 425 440
f 425 467 469
f 426 468 427
f 468 426 470
f 471 464 463
f 464 471 472
f 464 472 473
f 464 473 467
f 465 474 475
f 465 475 466
f 476 465 468
f 465 476 474
f 471 477 478
f 471 478 472
f 472 478 479
f 472 479 473
f 480 475 474
f 475 480 481
f 482 474 476
f 474 482 480
f 477 483 484
f 477 484 478
f 478 484 485
f 478 485 479
f 486 481 480
f 481 486 487
f 488 480 482
f 480 488 486
f 483 489 490
f 483 490 484
f 484 490 491
f 484 491 485
f 492 487 486
f 487 492 493
f 494 486 488
f 486 494 492
f 489 495 496
f 489 496 490
f 490 496 497
f 497 491 490
f 498 493 492
f 493 498 499
f 492 500 498
f 500 492 494
f 501 496 495
f 496 501 502
f 502 503 496
f 503 497 496
f 498 504 499
f 504 498 505
f 498 506 505
f 506 498 500
f 507 508 501
f 508 502 501
f 508 509 502
f 509 503 502
f 504 510 511
f 510 504 505
f 505 512 510
f 512 505 506
f 513 508 507
f 508 513 514
f 515 514 513
f 514 515 516
f 514 517 508
f 517 509 508
f 518 514 516
f 514 518 517
f 510 519 511
f 519 510 520
f 519 520 515
f 520 516 515
f 510 521 520
f 521 510 512
f 520 518 516
f 518 520 521
f 521 522 518
f 522 521 523
f 522 517 518
f 517 522 524
f 512 523 521
f 523 512 525
f 524 509 517
f 509 524 526
f 506 525 512
f 525 506 527
f 526 503 509
f 503 526 528
f 500 527 506
f 527 500 529
f 528 497 503
f 497 528 530
f 400 470 426
f 470 400 531
f 469 402 425
f 402 469 532
f 393 531 400
f 531 393 533
f 532 396 402
f 396 532 534
f 535 468 470
f 468 535 476
f 467 473 536
f 467 536 469
f 537 470 531
f 470 537 535
f 469 536 538
f 469 538 532
f 539 531 533
f 531 539 537
f 532 538 540
f 532 540 534
f 494 529 500
f 529 494 541
f 541 488 542
f 488 541 494
f 541 542 543
f 530 491 497
f 491 530 544
f 485 491 544
f 485 544 545
f 546 545 544
f 542 482 547
f 482 542 488
f 543 547 548
f 547 543 542
f 547 476 535
f 476 547 482
f 548 535 537
f 535 548 547
f 549 537 539
f 537 549 548
f 548 549 543
f 545 479 485
f 479 545 550
f 546 550 545
f 550 546 551
f 473 479 550
f 473 550 536
f 536 550 551
f 536 551 538
f 538 552 540
f 538 551 552
f 546 552 551
f 553 554 555
f 554 553 556
f 557 558 559
f 558 557 560
f 556 561 554
f 561 556 562
f 563 560 557
f 560 563 564
f 562 565 561
f 565 562 566
f 565 566 567
f 566 568 567
f 569 564 563
f 564 569 570
f 571 570 569
f 570 571 572
f 573 574 575
f 574 573 576
f 577 559 578
f 559 577 557
f 555 579 580
f 579 555 554
f 557 581 563
f 581 557 577
f 554 582 579
f 582 554 561
f 583 563 581
f 563 583 569
f 561 584 582
f 584 561 565
f 571 569 585
f 585 569 583
f 565 586 584
f 586 565 567
f 587 581 588
f 581 587 583
f 582 584 589
f 582 589 590
f 577 588 581
f 588 577 591
f 590 592 579
f 579 582 590
f 593 591 577
f 593 577 578
f 579 594 580
f 594 579 592
f 595 583 587
f 583 595 585
f 584 596 589
f 596 584 586
f 597 587 588
f 597 588 591
f 598 590 589
f 590 598 592
f 599 587 597
f 587 599 595
f 589 596 600
f 600 598 589
f 599 601 602
f 601 599 597
f 600 603 598
f 603 600 604
f 605 602 606
f 606 602 601
f 604 607 603
f 607 604 608
f 609 605 610
f 610 605 606
f 608 611 607
f 611 608 612
f 610 606 613
f 613 606 614
f 607 615 616
f 615 607 611
f 597 591 617
f 617 591 593
f 601 597 618
f 618 597 617
f 606 601 614
f 614 601 618
f 592 619 594
f 619 592 598
f 598 620 619
f 620 598 603
f 603 616 620
f 616 603 607
f 573 621 622
f 621 573 575
f 623 624 625
f 623 626 624
f 627 628 629
f 628 627 630
f 576 631 574
f 631 576 632
f 626 631 632
f 626 632 624
f 622 633 634
f 633 622 621
f 634 630 627
f 630 634 633
f 635 629 628
f 629 635 636
f 635 637 636
f 638 636 637
f 639 640 625
f 640 623 625
f 639 641 640
f 641 639 642
f 643 636 638
f 643 638 644
f 638 609 644
f 644 609 610
f 642 645 646
f 645 642 639
f 612 646 611
f 646 612 642
f 644 610 647
f 647 610 613
f 643 644 648
f 648 644 647
f 611 649 615
f 649 611 646
f 646 650 649
f 650 646 645
f 568 651 652
f 651 568 653
f 36 38 654
f 654 38 655
f 42 656 657
f 656 42 41
f 658 556 553
f 556 658 659
f 560 660 558
f 660 560 661
f 659 562 556
f 562 659 662
f 564 661 560
f 661 564 663
f 655 93 664
f 93 655 38
f 42 657 97
f 665 97 657
f 664 98 666
f 98 664 93
f 99 666 98
f 666 99 667
f 668 100 665
f 100 97 665
f 101 668 669
f 668 101 100
f 662 566 562
f 566 662 670
f 566 653 568
f 653 566 670
f 570 663 564
f 663 570 671
f 672 570 572
f 570 672 671
f 673 674 675
f 675 674 676
f 677 678 679
f 678 677 680
f 675 676 681
f 681 676 682
f 679 683 684
f 683 679 678
f 681 682 685
f 685 682 686
f 684 687 688
f 687 684 683
f 685 686 689
f 689 686 690
f 689 691 692
f 691 689 690
f 688 693 694
f 693 688 687
f 695 694 693
f 695 693 696
f 690 697 691
f 697 690 698
f 699 700 694
f 699 694 695
f 701 702 703
f 704 703 702
f 705 704 706
f 704 705 703
f 698 706 697
f 706 698 705
f 707 708 709
f 708 707 710
f 710 707 711
f 710 711 712
f 712 711 700
f 712 700 699
f 703 713 714
f 714 701 703
f 715 707 709
f 707 715 716
f 690 686 717
f 690 717 698
f 698 717 718
f 698 718 705
f 705 718 713
f 705 713 703
f 719 694 700
f 694 719 688
f 720 700 711
f 700 720 719
f 716 711 707
f 711 716 720
f 686 682 721
f 686 721 717
f 722 688 719
f 688 722 684
f 713 723 724
f 724 714 713
f 718 725 723
f 718 723 713
f 717 721 725
f 717 725 718
f 726 716 715
f 716 726 727
f 727 720 716
f 720 727 728
f 728 719 720
f 719 728 722
f 729 730 731
f 730 732 731
f 723 729 724
f 729 723 730
f 733 734 735
f 736 735 734
f 736 727 726
f 727 736 734
f 682 676 737
f 682 737 721
f 721 737 738
f 721 738 725
f 674 739 676
f 676 739 737
f 739 740 737
f 737 740 738
f 738 740 732
f 738 732 730
f 725 738 730
f 725 730 723
f 741 684 722
f 684 741 679
f 742 722 728
f 722 742 741
f 743 679 741
f 679 743 677
f 744 741 742
f 741 744 743
f 733 742 734
f 742 733 744
f 734 728 727
f 728 734 742
f 575 745 621
f 745 575 746
f 575 747 746
f 747 575 574
f 748 749 750
f 749 748 751
f 749 752 750
f 752 749 753
f 621 754 633
f 754 621 745
f 751 755 756
f 755 751 748
f 574 757 747
f 757 574 631
f 753 758 752
f 758 753 759
f 633 760 630
f 760 633 754
f 761 756 755
f 756 761 762
f 763 757 631
f 763 631 626
f 759 764 765
f 765 758 759
f 630 766 628
f 766 630 760
f 767 762 761
f 762 767 768
f 623 769 626
f 769 763 626
f 764 770 765
f 764 771 770
f 628 766 772
f 628 772 635
f 773 768 767
f 768 773 774
f 775 623 640
f 623 775 769
f 771 776 777
f 771 777 770
f 635 772 778
f 635 778 637
f 779 774 773
f 774 779 780
f 781 640 641
f 640 781 775
f 776 782 783
f 776 783 777
f 637 778 784
f 784 638 637
f 785 780 779
f 780 785 786
f 787 641 642
f 641 787 781
f 782 788 789
f 782 789 783
f 638 784 790
f 790 609 638
f 791 786 785
f 786 791 792
f 793 642 612
f 642 793 787
f 788 794 795
f 788 795 789
f 796 609 790
f 609 796 605
f 608 797 612
f 797 793 612
f 798 605 796
f 605 798 602
f 604 799 608
f 799 797 608
f 800 792 791
f 792 800 801
f 794 802 803
f 794 803 795
f 800 804 801
f 804 805 801
f 806 802 807
f 802 806 803
f 808 602 798
f 602 808 599
f 799 604 809
f 600 809 604
f 810 805 804
f 805 810 811
f 807 812 813
f 813 806 807
f 599 808 814
f 599 814 595
f 815 600 596
f 600 815 809
f 814 585 595
f 585 814 816
f 586 815 596
f 815 586 817
f 818 811 810
f 811 818 819
f 812 820 821
f 821 813 812
f 816 822 571
f 816 571 585
f 567 817 586
f 817 567 823
f 824 825 826
f 824 826 827
f 818 825 819
f 825 824 819
f 828 829 830
f 829 828 831
f 831 820 829
f 820 831 821
f 672 572 832
f 833 832 572
f 822 572 571
f 572 822 833
f 827 834 835
f 834 827 826
f 568 823 567
f 823 568 652
f 836 837 830
f 837 828 830
f 832 833 838
f 832 838 839
f 834 840 835
f 840 834 841
f 842 651 843
f 651 842 652
f 837 844 845
f 844 837 836
f 838 846 839
f 846 847 839
f 848 847 849
f 846 849 847
f 841 850 840
f 850 841 851
f 852 843 853
f 843 852 842
f 853 854 852
f 854 853 855
f 845 856 857
f 856 845 844
f 858 848 849
f 848 858 859
f 855 860 861
f 855 861 854
f 862 859 858
f 859 862 863
f 101 863 862
f 863 101 669
f 864 860 865
f 860 864 861
f 99 864 865
f 99 865 667
f 866 101 862
f 101 866 95
f 99 91 867
f 867 864 99
f 868 850 851
f 868 851 869
f 870 869 871
f 869 870 868
f 872 871 873
f 871 872 870
f 857 874 875
f 874 857 856
f 874 876 875
f 877 875 876
f 876 878 877
f 877 878 879
f 880 95 866
f 95 880 89
f 91 88 881
f 881 867 91
f 882 873 883
f 873 882 872
f 878 884 879
f 879 884 885
f 880 886 80
f 80 89 880
f 79 881 88
f 881 79 887
f 888 883 889
f 883 888 882
f 884 890 885
f 885 890 891
f 892 889 893
f 889 892 888
f 894 891 890
f 891 894 895
f 77 886 896
f 886 77 80
f 76 887 79
f 887 76 897
f 893 898 899
f 899 892 893
f 900 895 894
f 895 900 901
f 896 902 56
f 56 77 896
f 53 897 76
f 897 53 903
f 898 904 905
f 898 905 899
f 906 901 900
f 901 906 907
f 902 908 57
f 57 56 902
f 55 903 53
f 903 55 909
f 904 910 911
f 904 911 905
f 912 907 906
f 907 912 913
f 159 57 914
f 914 57 908
f 55 915 909
f 915 55 161
f 916 159 914
f 159 916 168
f 161 170 917
f 161 917 915
f 910 918 911
f 918 910 919
f 920 913 912
f 913 920 921
f 919 922 918
f 922 919 923
f 924 921 925
f 925 921 920
f 926 168 916
f 168 926 191
f 170 192 927
f 170 927 917
f 923 928 922
f 928 923 929
f 924 930 931
f 930 924 925
f 926 932 191
f 932 195 191
f 192 933 927
f 933 192 198
f 929 934 928
f 934 929 935
f 931 936 937
f 936 931 930
f 932 938 220
f 932 220 195
f 224 933 198
f 933 224 939
f 938 222 220
f 222 938 940
f 939 226 941
f 226 939 224
f 935 942 934
f 942 935 943
f 937 944 945
f 944 937 936
f 222 940 211
f 211 940 946
f 941 216 947
f 216 941 226
f 948 943 949
f 943 948 942
f 950 945 951
f 945 944 951
f 211 946 214
f 214 946 952
f 947 215 953
f 215 947 216
f 954 949 955
f 949 954 948
f 956 950 957
f 950 951 957
f 958 955 959
f 955 958 954
f 957 960 956
f 961 956 960
f 389 962 533
f 389 533 393
f 534 390 396
f 390 534 963
f 389 228 964
f 389 964 962
f 965 390 963
f 390 965 230
f 228 204 966
f 966 964 228
f 967 968 969
f 968 967 970
f 971 230 965
f 230 971 209
f 972 973 974
f 974 975 972
f 204 202 976
f 976 966 204
f 977 970 967
f 970 977 978
f 979 209 971
f 209 979 205
f 973 980 981
f 981 974 973
f 214 952 199
f 199 952 982
f 983 958 959
f 983 959 984
f 202 199 982
f 982 976 202
f 983 978 977
f 978 983 984
f 953 206 985
f 206 953 215
f 961 986 987
f 986 961 960
f 985 205 979
f 205 985 206
f 980 987 986
f 986 981 980
f 969 988 989
f 988 969 968
f 975 990 972
f 975 991 990
f 533 992 539
f 992 533 962
f 534 993 963
f 534 540 993
f 994 989 988
f 989 994 995
f 991 996 990
f 996 991 997
f 998 539 992
f 539 998 549
f 999 995 994
f 995 999 1000
f 540 1001 993
f 1001 540 552
f 997 1002 996
f 1002 997 1001
f 1003 549 998
f 549 1003 543
f 1004 1000 999
f 1000 1004 1005
f 552 1006 1001
f 1006 552 546
f 1001 1007 1002
f 1007 1001 1006
f 1008 543 1003
f 543 1008 541
f 1009 1005 1004
f 1005 1009 1010
f 546 1011 1006
f 1011 546 544
f 1006 1012 1007
f 1006 1011 1012
f 1013 541 1008
f 541 1013 529
f 1014 1010 1009
f 1010 1014 1015
f 530 1016 544
f 1016 1011 544
f 1011 1016 1017
f 1017 1012 1011
f 1018 529 1013
f 529 1018 527
f 1019 1014 1020
f 1014 1019 1015
f 528 1021 530
f 1021 1016 530
f 1021 1017 1016
f 1017 1021 1022
f 527 1023 525
f 1023 527 1018
f 1024 1019 1020
f 1019 1024 1023
f 526 1025 528
f 1025 1021 528
f 1021 1025 1026
f 1026 1022 1021
f 523 1027 522
f 1027 523 1028
f 1028 1029 1027
f 1029 1028 1030
f 525 1028 523
f 1028 525 1023
f 1030 1023 1024
f 1023 1030 1028
f 1027 524 522
f 524 1027 1031
f 1029 1031 1027
f 1031 1029 1032
f 524 1031 526
f 1031 1025 526
f 1025 1031 1032
f 1032 1026 1025
f 1033 622 1034
f 622 1033 573
f 1033 576 573
f 576 1033 1035
f 1036 1037 1038
f 1038 1039 1036
f 1036 1040 1041
f 1040 1036 1039
f 1042 627 1043
f 627 1042 634
f 1034 634 1042
f 634 1034 622
f 1038 1044 1045
f 1044 1038 1037
f 624 632 1046
f 624 1046 1047
f 1035 632 576
f 632 1035 1046
f 1040 1048 1041
f 1048 1040 1049
f 1045 1050 1051
f 1050 1045 1044
f 1049 1052 1053
f 1053 1048 1049
f 1043 629 1054
f 629 1043 627
f 1055 625 1047
f 625 624 1047
f 636 1054 629
f 1054 636 1056
f 1055 1057 639
f 639 625 1055
f 1050 1058 1051
f 1058 1050 1059
f 1060 1053 1052
f 1053 1060 1061
f 1062 1058 1059
f 1063 1058 1062
f 1064 1060 1065
f 1060 1064 1061
f 643 1056 636
f 1056 643 1066
f 1057 1067 645
f 1057 645 639
f 648 1066 643
f 1066 648 1068
f 1067 1069 650
f 1067 650 645
f 1070 1063 1062
f 1063 1070 1071
f 1065 1072 1073
f 1073 1064 1065
f 1070 1074 1071
f 1074 1070 1075
f 1076 1073 1077
f 1072 1077 1073
f 647 1068 648
f 1068 647 1078
f 1069 1079 649
f 649 650 1069
f 613 1078 647
f 1078 613 1080
f 1081 615 1079
f 615 649 1079
f 1075 1082 1083
f 1083 1074 1075
f 1084 1076 1077
f 1076 1084 1085
f 614 1080 613
f 1080 614 1086
f 1087 616 1081
f 616 615 1081
f 1083 1088 1089
f 1088 1083 1082
f 1090 1084 1091
f 1084 1090 1085
f 1092 1089 1088
f 1089 1092 1093
f 1094 1091 1095
f 1091 1094 1090
f 617 1096 618
f 1096 617 1097
f 618 1086 614
f 1086 618 1096
f 1098 1093 1092
f 1093 1098 1099
f 1100 619 1101
f 1101 619 620
f 1101 620 1087
f 620 616 1087
f 1095 1102 1103
f 1103 1094 1095
f 593 1097 617
f 1097 593 1104
f 619 1100 594
f 1105 594 1100
f 1106 1099 1098
f 1099 1106 1107
f 1102 1108 1109
f 1109 1103 1102
f 2 1110 1111
f 1110 2 6
f 1112 2 1111
f 2 1112 3
f 1113 6 10
f 6 1113 1110
f 1114 3 1112
f 3 1114 8
f 1115 1116 1117
f 1116 1115 1118
f 1119 1115 1120
f 1120 1115 1117
f 10 26 1121
f 10 1121 1113
f 28 8 1114
f 28 1114 1122
f 1118 1123 1116
f 1123 1118 1124
f 1125 1119 1126
f 1126 1119 1120
f 45 1127 26
f 1127 1121 26
f 1128 28 1122
f 28 1128 47
f 1129 1123 1124
f 1130 1123 1129
f 1131 1126 1132
f 1126 1131 1125
f 39 1133 45
f 1133 1127 45
f 47 1134 43
f 1134 47 1128
f 1135 1130 1129
f 1136 1130 1135
f 1132 1137 1131
f 1137 1132 1138
f 1139 1135 1140
f 1135 1139 1136
f 1138 1141 1137
f 1137 1141 1142
f 1143 1144 36
f 36 654 1143
f 1133 39 1144
f 36 1144 39
f 1140 1145 1146
f 1146 1139 1140
f 41 1147 656
f 1147 41 1148
f 43 1148 41
f 1148 43 1134
f 1142 1149 1150
f 1149 1142 1141
f 1151 673 1152
f 1152 673 675
f 680 1153 678
f 1153 680 1154
f 1145 1155 1156
f 1156 1146 1145
f 1150 1157 1158
f 1157 1150 1149
f 1152 675 1159
f 1159 675 681
f 678 1160 683
f 1160 678 1153
f 1155 1161 1156
f 1161 1155 1162
f 1158 1163 1164
f 1157 1163 1158
f 1165 1159 681
f 1165 681 685
f 683 1166 687
f 1166 683 1160
f 1162 1167 1161
f 1167 1162 1168
f 1164 1169 1170
f 1163 1169 1164
f 1165 685 1171
f 1171 685 689
f 687 1172 693
f 1172 687 1166
f 1168 1173 1167
f 1173 1168 1174
f 1170 1175 1176
f 1169 1175 1170
f 1177 1171 692
f 1171 689 692
f 696 1172 1178
f 1172 696 693
f 1174 1179 1173
f 1179 1174 1180
f 1176 1181 1182
f 1175 1181 1176
f 594 1105 580
f 1183 580 1105
f 1104 578 1184
f 578 1104 593
f 1185 1108 1186
f 1108 1185 1109
f 1106 1187 1107
f 1107 1187 1188
f 1189 580 1183
f 580 1189 555
f 578 1190 1184
f 578 559 1190
f 1191 1185 1192
f 1186 1192 1185
f 1187 1193 1188
f 1193 1187 1194
f 1195 553 1196
f 553 1195 658
f 1196 555 1189
f 555 1196 553
f 660 1197 558
f 558 1197 1198
f 559 1198 1190
f 559 558 1198
f 1199 1191 1200
f 1192 1200 1191
f 1194 1201 1193
f 1201 1194 1202
f 1203 1204 1205
f 1206 1205 1204
f 1180 1203 1179
f 1205 1179 1203
f 1204 1199 1206
f 1206 1199 1200
f 1207 1208 1209
f 1208 1207 1210
f 1210 1181 1208
f 1181 1210 1182
f 1202 1209 1201
f 1209 1202 1207

