# https://github.com/mikedh/trimesh

o head_link2.stl
v 8.61162567 -32.00000000 22.79063797
v 8.61162567 -47.00000000 21.64476395
v 8.61162567 -47.00000000 22.79063797
v 11.11162567 -47.00000000 20.14476395
v 9.11162567 -32.00000000 22.79063797
v 9.11162567 -47.00000000 22.79063797
v 8.61162567 -32.00000000 21.64476395
v 6.61162567 -47.00000000 21.64476395
v 11.11162567 -32.00000000 20.79063797
v 1.61162579 -32.00000000 20.14476395
v 6.61162567 -32.00000000 21.64476395
v 8.61162567 32.00000000 21.64476395
v 8.61162567 47.00000000 22.79063797
v 8.61162567 47.00000000 21.64476395
v 9.11162567 47.00000000 22.79063797
v 6.61162567 32.00000000 21.64476395
v 11.11162567 47.00000000 20.79063797
v 1.61162579 47.00000000 20.14476395
v 6.61162567 47.00000000 21.64476395
v 8.61162567 32.00000000 22.79063797
v 11.11162567 32.00000000 20.14476395
v 9.11162567 32.00000000 22.79063797
v 11.11162567 -47.00000000 20.79063797
v 11.11162567 -32.00000000 20.14476395
v 1.61162579 -47.00000000 21.67778206
v 1.61162579 -47.00000000 20.14476395
v 3.61164546 -47.00000000 21.66381264
v 5.61162567 -47.00000000 21.64476395
v 11.11162567 32.00000000 20.79063797
v 11.11162567 47.00000000 20.14476395
v 1.61162579 32.00000000 21.67778206
v 1.61162579 32.00000000 20.14476395
v 3.61164546 32.00000000 21.66381264
v 5.61162567 32.00000000 21.64476395
v 1.61162579 -32.00000000 21.67778206
v -16.81814003 -49.25487137 21.56743050
v 6.61162567 -51.04337692 21.64476395
v 5.61162567 -51.04337692 21.64476395
v 6.61162567 -51.04337692 22.54476357
v 5.61162567 -32.00000000 21.64476395
v 3.61164546 -32.00000000 21.66381264
v 1.61162579 47.00000000 21.67778206
v 5.61162567 47.00000000 21.64476395
v 5.61162567 51.23798370 21.64476395
v 6.61162567 51.23798370 21.64476395
v 3.61164546 47.00000000 21.66381264
v -15.06508446 49.75041962 21.59649277
v -17.11624908 49.40334320 23.56242561
v -16.82103729 -49.26028061 23.56769180
v 5.61162567 -51.04365921 23.64488029
v -22.46573448 -59.92514801 22.42450142
v 5.61162567 51.23818207 23.64488029
v 5.61162567 51.23798370 22.54476357
v 5.61162567 -58.05406952 23.25037956
v 5.61162567 -58.00654984 22.14863586
v 5.61162567 -51.04337692 22.54476357
v -20.30965042 -48.57789230 23.49840355
v -41.21159744 -41.55607224 22.75996399
v -35.65329742 -43.98422623 23.01045990
v -35.70592117 44.16130829 23.00827217
v -47.37048340 -51.88397980 21.60739899
v -50.46609116 36.50443268 22.25574493
v -50.51780701 -36.26929474 22.25262070
v -66.95832825 -39.58722687 20.55301094
v -61.49888229 27.32910728 21.51208496
v -56.69657516 -31.63661385 21.85486031
v -66.77635193 -20.66680908 21.10141945
v -61.58942032 -27.04027176 21.50533867
v -80.17189789 -25.90078354 19.58506966
v -61.59682083 27.22649765 21.50478745
v -68.64205933 17.92209816 20.94771957
v -68.67742920 -17.66653633 20.94476128
v -68.68907928 17.84082031 20.94378662
v -72.05023193 -10.10425949 20.65544319
v -87.52937317 -12.56945705 18.94444084
v -72.48793030 8.84958076 20.61682892
v -72.47944641 -8.67068672 20.61757851
v -89.71806335 0.10057661 18.74325943
v -73.72328949 0.11046860 20.50651932
v -88.13263702 10.83311176 18.89006996
v -82.95144653 22.21714783 19.34654045
v -74.20948029 34.37583542 19.97190285
v -59.68397141 45.74738693 20.92885971
v -41.03874207 55.15886688 21.80673218
v -18.91301346 60.79816055 22.48312187
v 5.61162567 58.24641037 23.25041389
v 5.61162567 58.20579147 22.14789200
v -48.32942581 77.54274750 -23.71084785
v -40.00949860 82.34487152 -19.59339333
v -38.43496323 82.75911713 -20.26641846
v -38.43496323 80.57118225 -20.26641846
v -21.73132706 87.13373566 -22.33378983
v -21.24313736 85.13475800 -22.37710381
v -49.76121521 79.40019989 -14.75549793
v -41.03277206 82.24742889 -18.34648895
v -40.01360703 80.15091705 -19.59025574
v -41.38425064 82.45991516 -16.63952637
v -41.38510895 80.28634644 -16.65820503
v -41.02858353 80.06051636 -18.35502815
v -40.78863907 82.96926880 -14.85016060
v -40.80021667 80.81568146 -14.86740780
v -50.54740143 79.76264954 -6.25004768
v -39.30848694 83.64061737 -13.61041069
v -39.31621170 81.51157379 -13.61385155
v -37.43764877 84.28680420 -13.33850479
v -22.15269470 88.15496063 -15.02533531
v -37.43764877 82.17456055 -13.33850479
v -22.37934113 88.00954437 -6.36961555
v -2.59436679 90.67486572 -16.32173157
v -20.24800491 88.51848602 -15.19395924
v -21.70611382 86.19481659 -15.06569576
v -50.57918549 78.51517487 1.57940733
v -22.34586143 86.22019196 1.65741110
v 5.61162567 89.92914581 -3.64677548
v 5.61162567 90.80261993 -9.13442421
v 5.61162567 90.99383545 -15.17721653
v -49.75038910 75.54442596 8.51633930
v -22.00515556 82.69903564 8.81750584
v 5.61162567 88.46848297 1.26411843
v -47.95483398 70.73703003 14.34422207
v -21.33455658 77.35141754 14.84936142
v 5.61162567 84.05257416 9.50370312
v 5.61162567 86.49185181 5.64114094
v -45.08634567 63.97963333 18.84652901
v -20.31139755 70.08267975 19.49166870
v 5.61162567 73.91408539 18.41984749
v 5.61162567 81.14502716 12.91843224
v 5.61162567 69.44515228 20.53146935
v 5.61162567 64.27066040 22.16779327
v -66.66693878 53.11085129 18.27990532
v -71.61106110 58.70938492 14.42266178
v -74.71262360 62.65729141 9.47088909
v -76.16791534 65.06887817 3.53835249
v -76.17321014 66.05845642 -3.26118588
v -74.92480469 65.74032593 -10.81396389
v -72.62087250 64.22872162 -18.99799728
v -21.05444145 84.66918945 -31.07854843
v -46.40355301 74.33039856 -32.73422623
v -69.50365448 61.63619614 -27.49983978
v -20.23267937 80.97080994 -39.56782150
v -44.16984558 69.92375946 -41.31708527
v -65.85978699 58.07361984 -35.81324005
v -19.34027290 76.19070435 -47.39148712
v -41.81556702 64.48403168 -48.94718933
v -61.97783279 53.65177536 -43.42345047
v -18.45440292 70.47570801 -54.16058350
v -39.52797318 58.17241287 -55.11231995
v -58.22666168 48.62282181 -49.68057632
v -17.65226173 63.97266006 -59.48615646
v -37.49433136 51.15010452 -59.30023956
v -51.78485870 48.19764328 -53.95040131
v -56.47440720 48.66044617 -50.85602570
v -16.92844963 49.12831879 -64.21160126
v -35.89699554 43.58088684 -60.99965668
v -42.21523285 45.09693146 -59.15652466
v -16.60228157 49.19076157 -64.25152588
v -17.01103401 56.82839203 -62.97924042
v -47.53667831 47.03377914 -56.56960297
v -21.65013123 37.61184692 -63.57630157
v -36.90663910 43.16476059 -60.77884293
v 5.61162567 51.23612595 -65.78060150
v -6.23169899 31.99999619 -65.25601959
v 5.61162567 59.03709793 -64.57926178
v 5.61162567 67.10183716 -60.72480774
v 5.61162567 63.01602173 -63.02279663
v 5.61162567 75.49493408 -53.45923233
v 5.61162567 71.28346252 -57.57322693
v 5.61162567 79.59977722 -48.33642960
v 5.61162567 86.54978180 -35.57395172
v 5.61162567 83.37660980 -42.27757645
v 5.61162567 88.92258453 -28.58997154
v -20.83969688 87.31202698 -22.41217041
v -2.88837409 89.74755859 -23.30936050
v -2.88837409 87.70288849 -23.30936050
v -20.80173111 85.22398376 -22.41543770
v 5.61162567 51.23606491 -64.68032837
v 0.86008996 36.94785690 -65.64945221
v 1.98684084 38.50602341 -65.69017029
v 3.81162596 39.09999847 -65.74340820
v 4.71148682 39.09999847 -65.76390839
v 5.61162567 39.09999847 -65.78060150
v 5.61162567 39.09999847 -64.68032837
v 5.61162567 58.63344574 -63.55257797
v 5.61162567 66.43071747 -59.84880066
v 5.61162567 70.51996613 -56.77765274
v 5.61162567 74.66378021 -52.73392487
v 5.61162567 78.72403717 -47.66490936
v 5.61162567 82.45306396 -41.67203903
v 5.61162567 85.58547211 -35.02258301
v 5.61162567 87.91108704 -28.11739922
v -0.07363473 90.18533325 -21.88956451
v 5.61162567 90.39668274 -21.71271133
v 5.61162567 89.33820343 -21.35411453
v -0.85381860 90.00943756 -22.65727043
v -0.68775094 90.72942352 -17.08773422
v 5.61162567 89.89940643 -14.95662975
v 0.46683100 90.62727356 -18.81306839
v 0.42625833 90.35848999 -20.93328857
v 5.61162567 89.69020844 -9.06116772
v 5.61162567 87.38803864 1.01171374
v 5.61162567 88.82019043 -3.73396206
v 5.61162567 85.47116852 5.21481133
v 5.61162567 80.32901764 12.17852211
v 5.61162567 73.37348175 17.46111488
v 5.61162567 69.07506561 19.49469566
v 5.61162567 64.07745361 21.08213615
v -20.21995354 86.48043823 -15.19637394
v -2.59436679 88.66654205 -16.32173157
v 0.46603104 88.61383820 -18.81037903
v -0.69124484 88.72094727 -17.08491135
v 0.42979583 88.33609772 -20.92280006
v -0.06970605 88.15599823 -21.88423729
v -0.85058510 87.97349548 -22.65495682
v -1.81576765 87.81671906 -23.14095497
v -101.04792023 30.12139702 -16.38493538
v -103.25402832 25.18188858 -16.05014038
v -103.68245697 25.25647163 -15.42147923
v -103.67359924 25.11479759 -15.41509819
v -104.35377502 25.11429787 -14.55418301
v -104.37751770 24.95613480 -14.51270103
v -95.91259766 28.81801224 -23.78970528
v -102.73931122 24.78829002 -16.94099045
v -103.03222656 24.89991379 -16.35109520
v -102.51197052 24.32330704 -17.46276855
v -102.57739258 24.30734253 -17.19961357
v -102.41690826 23.71504021 -17.86233139
v -102.47052002 23.04703331 -18.08033943
v -102.44858551 23.37172890 -17.77459526
v -102.66620636 22.33750343 -18.11875343
v -102.99839020 21.63107109 -17.96720886
v -102.70485687 22.29899025 -17.91723633
v -107.00350189 14.22364712 -15.12986565
v -103.45304871 20.97750854 -17.62504959
v -103.24133301 21.32915306 -17.64934158
v -104.00389862 20.43099403 -17.10651970
v -103.92506409 20.57779121 -17.08539772
v -104.55844879 20.06934166 -16.50529099
v -105.42314911 19.84434700 -15.42486668
v -104.66889191 20.08553886 -16.31945038
v -111.68942261 14.64943123 -8.26811695
v -105.88102722 19.92606926 -14.76660061
v -3.88837409 -87.00000000 -14.90936089
v -3.88837409 -87.00000000 -14.10936165
v -3.88837409 -84.50000000 -12.10936165
v -3.88837409 -86.50000000 -14.90936089
v -106.43301392 20.37441254 -13.81928539
v -105.99362946 20.02935028 -14.56103611
v -105.36653900 19.95631599 -15.38325405
v -106.65556335 20.89715385 -13.28480530
v -106.47033691 20.45792198 -13.73127079
v -106.70932770 21.24450493 -13.05670738
v -106.71542358 21.54251480 -12.91505146
v -106.49683380 20.97118759 -13.33129883
v -106.70463562 21.71558762 -12.85214806
v -106.55653381 21.56714630 -12.98992538
v -106.61415863 22.24753761 -12.73647785
v -106.39756775 22.86315346 -12.75411701
v -106.45531464 22.21839333 -12.82527256
v -106.35237122 22.99822426 -12.75589848
v -105.93062592 23.74664307 -12.99602413
v -105.37654114 24.41143990 -13.45791435
v -105.81885529 23.83322334 -13.09860706
v -104.81761169 24.86756134 -14.02349472
v -105.11747742 24.53553581 -13.72081089
v -100.00363159 12.37751293 16.78156281
v -99.61442566 0.09540674 17.11547852
v -108.00308990 0.09197767 15.00118732
v -99.28098297 -14.48709774 16.83244514
v -108.45283508 13.52254772 14.21306801
v -114.03519440 0.09054477 12.40183926
v -107.65136719 -15.90953732 14.24519634
v -113.83217621 14.30799294 11.10633278
v -117.47565460 0.09073800 9.48765182
v -112.98640442 -16.88615227 11.10843182
v -116.49358368 14.77362633 7.38309860
v -118.85363770 0.09182518 6.47153807
v -115.63200378 -17.46631813 7.34788942
v -116.78897858 14.95922565 2.96511030
v -118.77896118 0.09352591 2.85447717
v -115.93405914 -17.69940567 2.88930821
v -115.07028198 14.90456963 -2.22588825
v -117.20508575 0.09557871 -1.59595597
v -113.89032745 0.09763015 -7.38279772
v -114.23847198 -17.63479042 -2.34157467
v -111.57213593 0.09842430 -10.81817627
v -110.89112854 -17.32184601 -8.41898918
v -108.68917084 0.09903684 -14.78020287
v -106.24436951 -16.79866028 -15.30891514
v -101.38621521 13.62519836 -22.42714882
v -105.43177795 0.09942495 -18.97678947
v -101.67501831 0.09961567 -23.54066658
v -100.67135620 -16.06681061 -22.62698174
v -95.21457672 12.84569931 -29.70555687
v -97.57244873 0.09961420 -28.24500656
v -93.35217285 0.09945779 -32.80569458
v -94.54944611 -15.12050343 -29.91806793
v -88.86157227 12.03357029 -36.49170685
v -91.91629791 0.09937849 -34.29324341
v -89.80674744 7.87052202 -36.06471252
v -90.50026703 0.09929016 -35.72724915
v -90.50025177 0.10388482 -32.88074493
v -89.82798004 -7.75005388 -36.02119827
v -89.82846832 -7.74725962 -33.17139435
v -89.79486847 7.93710899 -33.22167587
v -85.00615692 23.02994537 -37.94497681
v -87.78654480 15.39090633 -36.99436188
v -88.83511353 12.12848568 -33.65200806
v -90.24179077 27.12923813 -31.12531281
v -84.25464630 25.09470558 -38.06815720
v -105.29186249 31.03397751 -9.35769749
v -108.29602814 31.54015160 -3.08085847
v -109.74516296 31.57936287 2.39872503
v -109.33315277 31.07864380 7.12415791
v -106.75388336 29.96502876 11.13854790
v -101.70125580 28.16555214 14.48500347
v -93.86914825 25.60724640 17.20663071
v -87.78654480 15.39090633 -34.14007187
v -85.44403839 21.82687569 -34.97514725
v -82.14292145 30.89662170 -38.08026505
v -84.32134247 24.91146851 -35.17031860
v -81.87895966 43.02748489 -31.79479027
v -78.57484436 37.58696365 -38.53812790
v -76.72608185 39.85008621 -39.13857651
v -86.86081696 45.67958832 -23.70811844
v -91.16245270 47.62681198 -15.60584068
v -94.40451813 48.81473160 -8.01283932
v -96.24847412 49.16162872 -1.21521783
v -96.39920044 48.55673981 4.75510788
v -94.56367493 46.88788986 9.87856102
v -90.44889069 44.04290390 14.13556290
v -83.76182556 39.90961075 17.50653648
v -82.14292145 30.89662170 -35.13355255
v -78.58509827 37.57292175 -35.51824951
v -73.13267517 43.14004135 -40.67729568
v -76.64395142 39.93978882 -36.13866425
v -47.53667831 47.03377914 -54.24911118
v -51.86917114 48.21334839 -51.40436554
v -42.04166031 45.03375626 -57.08523560
v -36.67399597 43.08008575 -58.78183365
v -65.70814514 47.14013672 -44.81879425
v -57.77914429 48.64325714 -47.27753448
v -65.98468018 47.04144669 -41.72164536
v -56.69444656 48.66196823 -48.04155731
v -73.26274872 43.04032898 -37.58881378
v 5.61162567 -90.20169830 -21.71109009
v -0.85483885 -89.81389618 -22.65799904
v -2.88837409 -89.55195618 -23.30936050
v -2.88837409 -87.50720215 -23.30936050
v 5.61162567 -88.72731018 -28.59024429
v -21.13951683 -87.05463409 -22.38617325
v -20.76137924 -85.03421783 -22.41890144
v -0.07460377 -89.98986053 -21.89087486
v -0.85060322 -87.77807617 -22.65497017
v -1.81569636 -87.62116241 -23.14093208
v 0.42564943 -90.16314697 -20.93508148
v -0.06994200 -87.96067810 -21.88455772
v 5.61162567 -90.79904938 -15.17376518
v 0.46741763 -90.43236542 -18.81504631
v 0.42944860 -88.14082336 -20.92383575
v -0.68712562 -90.53504944 -17.08823967
v 0.46706158 -88.41873932 -18.81384659
v -2.59436679 -90.48075867 -16.32173157
v -0.68886608 -88.52651215 -17.08683205
v -26.54659271 -87.02884674 -14.60129547
v -20.45786476 -88.28822327 -15.17582989
v -2.59436679 -88.47240448 -16.32173157
v -21.20545387 -86.10230255 -15.11034298
v -20.18682671 -86.29577637 -15.19922352
v 5.61162567 -90.60792542 -9.12983418
v -26.60007286 -86.94741058 -6.02303362
v -37.43764877 -84.10433197 -13.33850479
v 5.61162567 -89.73457336 -3.64189649
v -26.55505371 -85.18231964 1.90530622
v -58.79331207 -74.33911896 3.43748593
v -58.92696762 -75.77439117 -3.66340971
v 5.61162567 -86.29803467 5.64491367
v -26.14762497 -81.69495392 8.96575928
v -57.68574905 -71.34016418 9.68134022
v 5.61162567 -88.27418518 1.26865625
v 5.61162567 -80.95259857 12.92036247
v -25.34926987 -76.38791656 14.90679550
v -55.48936844 -66.66980743 14.90182686
v 5.61162567 -83.85941315 9.50653934
v 5.61162567 -73.72299194 18.42034721
v -24.13147736 -69.16378021 19.47688675
v -52.08925247 -60.22031784 18.93262100
v 5.61162567 -64.07946014 22.16775894
v 5.61162567 -69.25429535 20.53159142
v 5.61162567 -63.86527634 21.08732414
v 5.61162567 -68.85076141 19.50788879
v 5.61162567 -73.14270782 17.48374557
v 5.61162567 -80.10250854 12.21478271
v 5.61162567 -85.26393127 5.24312353
v 5.61162567 -87.19038391 1.02497542
v 5.61162567 -88.62877655 -3.74283290
v 5.61162567 -89.70278931 -15.02237797
v 5.61162567 -89.49952698 -9.09731197
v -25.06198502 -83.59828949 -30.58060455
v 5.61162567 -86.35428619 -35.57555008
v 5.61162567 -87.68331146 -28.23635292
v 5.61162567 -89.12883759 -21.44872093
v -24.10179901 -79.91734314 -39.06193924
v 5.61162567 -83.18120575 -42.27947998
v 5.61162567 -85.33723450 -35.15472031
v -23.05205727 -75.16478729 -46.89426422
v 5.61162567 -79.40489197 -48.33786011
v 5.61162567 -82.18838501 -41.80078506
v 5.61162567 -75.30074310 -53.45999527
v 5.61162567 -78.45163727 -47.77551651
v -21.99917603 -69.48692322 -53.68359375
v 5.61162567 -71.08995056 -57.57343292
v 5.61162567 -74.39469147 -52.81700134
v -21.02956581 -63.03004456 -59.03594208
v 5.61162567 -66.90880585 -60.72467422
v 5.61162567 -70.26400757 -56.83121490
v 5.61162567 -62.82315445 -63.02255249
v 5.61162567 -66.19326019 -59.87752533
v -20.22963905 -55.94043732 -62.55732346
v 5.61162567 -58.84398651 -64.57906342
v -16.78283119 -48.96093750 -64.22948456
v 5.61162567 -51.04086304 -65.78060150
v 5.61162567 -58.43127823 -63.55513000
v -19.66276360 -48.36935806 -63.85680771
v 5.61162567 -39.09999847 -65.78060150
v 5.61162567 -51.04080200 -64.68032837
v -6.23169470 -31.99999428 -65.25601959
v 4.71148682 -39.09999847 -65.76390839
v 3.81162596 -39.09999847 -65.74340820
v 1.98790884 -38.50680161 -65.69020081
v 0.85975695 -36.94681931 -65.64944458
v -0.31191599 -31.99996185 -65.60079193
v -42.08087921 -45.04803085 -59.17181015
v -36.65981674 -43.07492447 -60.83338928
v -21.51566696 -37.56290436 -63.59588623
v -44.23997879 -51.77549362 -56.14821625
v -46.77430725 -57.94788361 -51.09180832
v -49.48686981 -63.43080902 -44.46419144
v -52.18152237 -68.08847046 -36.72695541
v -54.66212463 -71.78507996 -28.34167290
v -26.01924896 -86.00189209 -21.91183090
v -56.73253250 -74.38483429 -19.76993561
v -38.43496323 -80.37429810 -20.26641846
v -38.43496323 -82.56331635 -20.26641846
v -40.01601410 -82.14882660 -19.58841515
v -40.01321411 -79.95499420 -19.59055710
v -41.90564346 -44.98424911 -57.09904861
v -36.42929459 -42.99102020 -58.83614349
v -47.53667831 -47.03377914 -56.48596191
v -51.83517456 -48.20704651 -53.79818726
v -65.68504333 -47.14822769 -44.64485168
v -56.56876755 -48.66131973 -50.64098740
v -61.27025604 -48.28459930 -47.48292160
v -72.70166779 -49.67422104 -36.33024597
v -68.54597473 -45.95930481 -42.92881393
v -76.89057159 -52.90728378 -28.78143883
v -80.66289520 -55.42655182 -20.96581268
v -39.31433487 -83.45581055 -13.61301327
v -58.20163727 -75.75368500 -11.45502186
v -83.73932648 -57.15930557 -13.31795406
v -40.79259491 -82.78205109 -14.85603142
v -41.38434982 -82.27066040 -16.64154053
v -41.03557968 -82.05517578 -18.34073448
v -85.85348511 -58.02843857 -6.21229839
v -86.79336548 -57.93840790 0.22958769
v -86.36123657 -56.78882217 5.95257616
v -84.35939026 -54.47929764 10.90153980
v -80.59010315 -50.90944672 15.02135181
v -74.85565186 -45.97888565 18.25688553
v -37.43764877 -81.99191284 -13.33850479
v -39.31650162 -81.32859039 -13.61398220
v -40.80071259 -80.62976837 -14.86815262
v -41.38518143 -80.09616089 -16.65986443
v -41.02782822 -79.86683655 -18.35656166
v -104.53347015 -20.04738808 -16.45312691
v -105.35480499 -19.84483337 -15.42493153
v -3.88837409 -84.50000000 -12.90936089
v -105.82101440 -19.93049049 -14.75443649
v -105.88525391 -20.01097488 -14.62372875
v -2.13837409 -84.50000000 -12.10936165
v -104.06304932 -20.33044815 -16.97085762
v -104.49124146 -20.13875771 -16.43853378
v -103.52338409 -20.81303406 -17.49781990
v -103.64779663 -20.76639938 -17.26993561
v -103.00829315 -21.48624802 -17.91001129
v -102.62354279 -22.23975563 -18.10933876
v -102.90997314 -21.71987343 -17.80665588
v -93.30777740 -34.49944687 -23.73868942
v -102.39576721 -23.00184059 -18.08862686
v -102.43257904 -22.90964699 -17.89224243
v -98.07087708 -36.01924133 -16.36502075
v -102.33125305 -23.70382309 -17.86782455
v -102.41975403 -24.30889511 -17.47653008
v -102.41453552 -24.06736946 -17.40270233
v -102.65965271 -24.79932594 -16.92483139
v -103.06263733 -25.13698959 -16.21418381
v -102.86429596 -24.83852959 -16.48234940
v -103.59529877 -25.25693321 -15.42156982
v -104.22444916 -25.13189125 -14.60749340
v -103.56980896 -25.08038902 -15.40317249
v -101.95730591 -37.06913757 -9.37347889
v -104.84702301 -24.79092789 -13.90297890
v -104.36510468 -24.92810249 -14.43034744
v -2.13837409 -87.50000000 -9.10936165
v -0.63837415 -84.50000000 -12.10936165
v -105.42594147 -24.27832794 -13.33958626
v -105.17731476 -24.42144203 -13.58432198
v -105.91860199 -23.64906883 -12.95034122
v -106.29508972 -22.95894432 -12.74961472
v -105.92715454 -23.57843208 -12.96371746
v -106.53633881 -22.26802063 -12.73446846
v -106.48605347 -22.43001556 -12.72951412
v -106.63394928 -21.18110275 -13.09303093
v -106.61941528 -21.06629944 -13.16442871
v -106.37770081 -22.23686790 -12.82324791
v 1.11162579 -84.50000000 -12.90936089
v -106.46083069 -21.12717438 -13.22001934
v -106.21755981 -20.19220924 -14.10057259
v -106.34439087 -20.37277412 -13.84753036
v -85.26910400 -22.30751228 -37.79283905
v -88.22789001 -14.11946487 -36.72533417
v -87.78654480 -15.39090633 -36.92889023
v -87.78654480 -15.39090633 -34.07160950
v -85.43584442 -21.84939003 -34.87963104
v -82.45249176 -30.04609489 -37.97698975
v -88.83703613 -12.12162876 -33.59710312
v -88.00157166 -32.52920151 -31.06502342
v -104.64601135 -37.61663055 -3.09966350
v -105.85603333 -37.58745575 2.42102885
v -105.31439209 -36.89902115 7.21309566
v -102.74813080 -35.46873474 11.30103493
v -97.88427734 -33.21399307 14.70934486
v -90.44985199 -30.05220795 17.46252441
v -84.27780914 -25.03107071 -35.06352234
v -82.14292145 -30.89662170 -37.94484329
v -82.14292145 -30.89662170 -34.99140549
v -78.54487610 -37.62791443 -38.37837982
v -78.58666992 -37.57076263 -35.34134293
v -73.12145233 -43.14858627 -40.49375153
v -66.02252960 -47.02767181 -41.49533844
v -73.27703857 -43.02929688 -37.38230515
v -76.42887115 -40.17090988 -36.02972031
v -47.53667831 -47.03377914 -54.15457153
v -51.89374542 -48.21787262 -51.25418472
v -56.73806763 -48.66205978 -47.84377289
v -61.82911301 -48.18410110 -44.27414322
v -57.25599289 -48.65772629 -47.47612000
v 5.61162567 -39.09999847 -64.68032837
v 3.81162596 -39.09999847 -63.80936050
v 6.61162567 -39.09999847 -63.80936050
v 0.86345845 -36.95819473 -63.80936050
v 1.98942101 -38.50782394 -63.80936050
v 0.86008996 -35.05214310 -65.64945221
v 1.98684084 -33.49397659 -65.69017029
v 0.86345845 -35.04180527 -63.80936050
v 5.61162567 -32.00000000 -65.78060150
v 3.81162596 -32.90000153 -65.74340820
v 1.98942101 -33.49217606 -63.80936050
v 4.71148682 -32.90000153 -65.76390839
v 3.81162596 -32.90000153 -63.80936050
v 5.61162567 -32.90000153 -65.78060150
v 5.61162567 -32.90000153 -64.68032837
v 5.61162567 -31.49985695 -65.28039551
v -3.48423219 -31.00000000 -64.43487549
v 1.06102169 -31.00000000 -64.65647125
v 5.61162567 -31.00000000 -64.78046417
v -20.04635048 -37.02811813 -61.78496552
v -3.48423219 -31.00000000 -63.43306351
v -4.85621500 -31.49936104 -64.84918213
v -0.31284991 31.99998093 -65.60075378
v -4.85629797 31.49939156 -64.84919739
v -20.16454124 37.07113647 -61.76844406
v 5.61162567 32.90000153 -65.78060150
v 5.61162567 32.00000000 -65.78060150
v 1.06045806 31.00000000 -64.65643311
v 4.71148682 32.90000153 -65.76390839
v 3.81162596 32.90000153 -65.74340820
v 1.98790884 33.49319839 -65.69020081
v 0.85975695 35.05318069 -65.64944458
v -3.48423219 31.00000000 -64.43486023
v 5.61162567 31.00000000 -64.68032837
v 5.61162567 31.49985695 -65.28039551
v 5.61162567 31.00000000 -64.78046417
v 5.61162567 32.90000153 -64.68032837
v 3.81162596 32.90000153 -63.80936050
v 6.61162567 32.90000153 -63.80936050
v 0.86345845 35.04180527 -63.80936050
v 1.98942101 33.49217606 -63.80936050
v 0.86345845 36.95819473 -63.80936050
v 1.98942101 38.50782394 -63.80936050
v 3.81162596 39.09999847 -63.80936050
v 1.11162579 -84.50000000 -12.10936165
v -65.88837433 -21.75000000 19.16668510
v -68.54835510 -17.59593582 18.94857407
v -65.88837433 21.75000000 19.16659355
v -61.35215378 27.32840157 19.51747322
v -65.88837433 21.88705254 19.16664696
v -65.88837433 22.50000000 -11.30939674
v -65.88837433 21.75000000 -11.38030243
v -65.98748016 21.75000000 19.15869141
v -68.47720337 17.91719055 18.95452309
v -80.41675568 21.75000000 17.67784119
v -71.70738220 -10.61181736 18.67785645
v -71.74369812 10.70915890 18.67466927
v -81.58219147 21.75000000 17.52636337
v -72.31275177 -8.63708115 18.62451553
v -72.30793762 8.86392593 18.62494087
v -86.59043121 10.64851856 17.08121109
v -73.54384613 0.11046860 18.51458549
v -82.48376465 0.10457475 17.62014771
v -75.85399628 -19.86439133 18.24262238
v -86.57708740 -10.50748062 17.08277130
v -61.52917480 -26.94696617 19.50427437
v -65.88837433 -22.50746727 19.16634560
v -79.74893188 -21.75000000 17.75657463
v -105.12396240 -21.75000000 -11.38030243
v -65.88837433 -21.75000000 -11.38030243
v -58.05083466 30.53465652 19.75626564
v -55.52342987 -32.49482727 19.92965508
v -58.10152817 -44.01969528 19.25582123
v -71.67340851 -32.76609039 18.37225533
v -65.88837433 -23.25000000 19.16540909
v -50.33722687 36.51043320 20.25988197
v -50.55683136 -36.16262436 20.24659538
v -35.71982193 -43.92544174 21.00595856
v -40.10282898 -42.03473663 20.81083488
v -46.92672348 38.65116882 20.45832443
v -40.12936020 -53.50923157 20.08771324
v -35.61293793 44.16575241 21.01041031
v -32.64925385 45.27997971 21.12808228
v -19.63465309 -48.71061707 21.51256371
v -18.27393150 -59.07584381 20.75679016
v -17.05108452 49.40876389 21.56327438
v 5.61138535 -57.73669815 21.27299881
v 6.61162567 -57.91276932 21.25357819
v -18.60406494 59.19606018 20.75215912
v 5.61138010 57.90990829 21.27533722
v -40.24315262 53.63148117 20.08615685
v -58.10297394 44.20549011 19.25866508
v -71.63983917 32.97771454 18.37790680
v -65.88837433 22.57417488 19.16645813
v -73.86727142 23.25000000 18.41366005
v -65.88837433 23.25000000 19.16574097
v -0.08189201 -33.74378204 -63.60897064
v 1.05996180 -31.00000000 -63.65567398
v -0.68832636 -35.97925568 -63.58164978
v -0.10149892 -38.22203827 -63.60811234
v 5.61162567 -51.04073334 -63.78033066
v -16.00282478 -49.06347656 -62.30937958
v 5.61162567 -31.50022507 -63.78033066
v 5.61162567 -31.00000000 -63.78033066
v 4.73396778 -31.50022507 -63.76394272
v 3.85658956 -31.50022507 -63.74390793
v 1.58704972 -32.08831787 -63.67515182
v 6.61162567 -31.00000000 -63.78033066
v 5.61162567 -31.00000000 -64.68032837
v 6.61162567 -31.50022507 -63.79484558
v 3.85658956 -31.50022507 -60.80936050
v -0.07041395 -33.72409058 -60.80936050
v 1.59415376 -32.08428574 -60.80936050
v -0.68831801 -35.97751617 -60.80936050
v 1.55005443 -39.89041138 -63.67383194
v -0.09296093 -38.23700714 -60.80936050
v 3.81162596 -40.50000000 -63.74278259
v 1.55513895 -39.89336014 -60.80936050
v 4.71147871 -40.50000000 -63.76347733
v 6.61162567 -40.50000000 -60.80936050
v 3.81162596 -40.50000000 -60.80936050
v 5.61162567 -40.50000000 -63.78033066
v 6.61162567 -40.50000000 -63.79484558
v -16.23270226 -55.18960953 -61.42778778
v 6.61162567 -51.04080582 -63.78033066
v 5.61157942 -54.68646622 -63.49651718
v -35.04510498 -43.56018829 -59.13715744
v -16.67016029 -48.93565750 -62.22830200
v -36.18449020 -49.67918015 -57.93135834
v -35.45976639 43.58763123 -59.04797745
v -36.63198090 49.71572876 -57.83390427
v -16.81259918 49.10321426 -62.21071625
v -16.58617973 55.32572937 -61.38449478
v -3.48423219 31.00000000 -63.43306351
v -16.33869743 49.19507217 -62.26884079
v 5.61162567 40.50000000 -63.78033066
v 5.61162567 51.23599625 -63.78033066
v 5.61158848 54.89305878 -63.49460602
v 4.71147871 40.50000000 -63.76347733
v 3.81162596 40.50000000 -63.74278259
v 1.54870391 39.88962555 -63.67378235
v -0.10383905 38.21791077 -63.60801315
v -0.68831593 35.97711182 -63.58164978
v 6.61162567 51.23606873 -63.78033066
v 6.61162567 58.30852890 -62.71066666
v 6.61162567 40.50000000 -63.79484558
v 3.81162596 40.50000000 -60.80936050
v -0.09296093 38.23700714 -60.80936050
v 1.55513895 39.89336014 -60.80936050
v -0.68831801 35.97751617 -60.80936050
v -0.07955402 33.73975372 -63.60906982
v 1.05995357 31.00000000 -63.65567398
v 1.58833158 32.08758926 -63.67520142
v -0.07041395 33.72409058 -60.80936050
v 5.61162567 31.00000000 -63.78033066
v 3.85658956 31.50022507 -63.74390793
v 1.59415376 32.08428574 -60.80936050
v 4.73396778 31.50022507 -63.76394272
v 6.61162567 31.50022507 -60.80936050
v 3.85658956 31.50022507 -60.80936050
v 5.61162567 31.50022507 -63.78033066
v 6.61162567 31.50022507 -63.79484558
v 6.61162567 31.00000000 -64.68032837
v 6.61162567 31.00000000 -63.78033066
v 5.61157513 89.01473236 -14.02497673
v -3.88837409 88.68151855 -14.10936165
v 1.11162579 88.93879700 -14.10936165
v 5.61287928 88.57373047 -20.31902313
v 5.61315298 87.27301788 -27.01392365
v 5.61344719 -87.01671600 -27.24985886
v 5.61327648 -88.34560394 -20.56543350
v -3.88837409 -88.48812103 -14.10936165
v -21.46187401 -86.09163666 -7.79793072
v -20.64077950 83.07765961 -29.74548340
v -47.69499588 76.14125061 -21.97668457
v -45.17983246 78.12705994 -19.29231262
v -47.05283737 -76.20791626 -22.06668472
v -45.17519760 -77.93061829 -19.29285431
v -20.17280006 -82.96636963 -29.80053329
v -43.82419205 78.76274872 -19.07155418
v -42.38837433 79.86991119 -16.80936050
v -42.77037811 79.42656708 -18.13755608
v -42.80271149 79.97048187 -15.43095207
v -44.64985657 79.42988586 -14.32076550
v -43.89724350 79.69713593 -14.51422310
v -48.94163132 77.60624695 -14.42307568
v -21.96478844 86.17720795 -7.75711584
v -49.70542145 77.96238708 -7.28469467
v -49.05169678 -78.06269836 -7.34704256
v -44.64875412 -79.24516296 -14.32087135
v -42.80288696 -79.78311920 -15.43068409
v -43.89662170 -79.51193237 -14.51449108
v -42.38837433 -79.67938995 -16.80936050
v -42.76882935 -79.23387909 -18.13507843
v -43.82017899 -78.56811523 -19.06966209
v -2.13837409 88.73641968 -10.58860970
v -3.88837409 88.68863678 -12.10936165
v -3.88837409 88.69565582 -13.10138035
v 6.61162567 32.90000153 -64.68032837
v 6.61162567 -31.00000000 -64.68032837
v 6.61162567 -32.90000153 -64.68032837
v 6.61162567 -32.90000153 -63.80936050
v 6.61162567 39.09999847 -64.68032837
v 6.61162567 51.23606491 -64.68032837
v 6.61162567 66.33256531 -59.91235733
v 6.61162567 58.54695511 -63.57881927
v 6.61162567 70.42855835 -56.85581589
v 6.61162567 74.59422302 -52.81026840
v 6.61162567 78.68712616 -47.71680832
v 6.61162567 82.43763733 -41.70035934
v 6.61162567 85.58699036 -35.01824951
v 6.61162567 87.92404938 -28.06950569
v 6.61162567 89.34770966 -21.28986549
v 6.61162567 89.90137482 -14.87161541
v 6.61162567 89.67877960 -8.94789410
v 6.61162567 88.79085541 -3.60818911
v 6.61162567 87.34020233 1.13764107
v 6.61162567 85.41093445 5.32528830
v 6.61162567 80.27843475 12.22976685
v 6.61162567 73.36524963 17.46583557
v 6.61162567 64.09398651 21.07795715
v 6.61162567 69.08583832 19.49048996
v 6.61162567 58.22435379 22.14587784
v 6.61162567 51.23798370 22.54476357
v 6.61162567 -58.03231812 22.14570999
v 6.61162567 -63.90355682 21.07773018
v 6.61162567 -68.89535522 19.49039268
v 6.61162567 -73.17483521 17.46586609
v 6.61162567 -85.21726990 5.32862568
v 6.61162567 -80.08637238 12.23118019
v 6.61162567 -87.14603424 1.14170456
v 6.61162567 -88.59637451 -3.60380054
v 6.61162567 -89.48413849 -8.94388771
v 6.61162567 -89.70658112 -14.86884594
v 6.61162567 -89.15258789 -21.28916740
v 6.61162567 -87.72841644 -28.07106972
v 6.61162567 -85.39097595 -35.02108383
v 6.61162567 -82.24163818 -41.70330048
v 6.61162567 -78.49155426 -47.71914673
v 6.61162567 -74.39933014 -52.81176758
v 6.61162567 -70.23436737 -56.85656738
v 6.61162567 -66.13894653 -59.91259003
v 6.61162567 -58.35350418 -63.57871628
v 6.61162567 -51.04080200 -64.68032837
v 6.61162567 -39.09999847 -64.68032837
v 6.61162567 -31.50022507 -60.80936050
v 4.37716055 -36.56578445 -60.80936050
v 3.81162596 -35.20000076 -60.80936050
v 4.61156225 -36.00000000 -60.80936050
v 4.37716055 -35.43421555 -60.80936050
v 3.81162596 -36.79999924 -63.80936050
v 4.37716055 -35.43421555 -63.80936050
v 4.37716055 -36.56578445 -63.80936050
v 4.61156225 -36.00000000 -63.80936050
v 6.61162567 -58.11508560 -62.71056366
v 6.61162567 -65.68653107 -59.13337326
v 6.61162567 -69.68791199 -56.13975525
v 6.61162567 -73.76651764 -52.16997528
v 6.61162567 -77.78144836 -47.16464996
v 6.61162567 -81.46535492 -41.24695587
v 6.61162567 -84.56119537 -34.67231750
v 6.61162567 -86.85933685 -27.83717537
v 6.61162567 -88.80631256 -14.86901951
v 6.61162567 -88.25994873 -21.17316437
v 6.61162567 -87.72605896 -3.83442497
v 6.61162567 -88.59131622 -9.06018925
v 6.61162567 -86.31263733 0.80119085
v 6.61162567 -84.43485260 4.88361502
v 6.61162567 -79.45004272 11.59465885
v 6.61162567 -72.72405243 16.68684387
v 6.61162567 -68.55129242 18.65861702
v 6.61162567 -63.66935730 20.20857048
v 6.61162567 58.10482788 21.25374413
v 6.61162567 63.85981750 20.20878983
v 6.61162567 68.74183655 18.65869141
v 6.61162567 72.91450500 16.68679237
v 6.61162567 79.64216614 11.59318829
v 6.61162567 84.62854767 4.88022184
v 6.61162567 86.50684357 0.79704100
v 6.61162567 88.78596497 -9.06426334
v 6.61162567 87.92055511 -3.83888173
v 6.61162567 89.00111389 -14.87184048
v 6.61162567 88.45507050 -21.17387772
v 6.61162567 87.05496979 -27.83562088
v 6.61162567 84.75720215 -34.66950607
v 6.61162567 81.66134644 -41.24403381
v 6.61162567 77.97700500 -47.16231918
v 6.61162567 73.96140289 -52.16848755
v 6.61162567 69.88208771 -56.13900757
v 6.61162567 65.88014221 -59.13314819
v 6.61162567 39.09999847 -63.80936050
v 3.81162596 35.20000076 -63.80936050
v 4.37716055 36.56578445 -63.80936050
v 4.37716055 35.43421555 -63.80936050
v 4.61156225 36.00000000 -63.80936050
v 6.61162567 40.50000000 -60.80936050
v 4.37716055 35.43421555 -60.80936050
v 3.81162596 36.79999924 -60.80936050
v 4.61156225 36.00000000 -60.80936050
v 4.37716055 36.56578445 -60.80936050
v 5.61152554 58.59558868 -62.62113953
v 5.61179781 66.29468536 -58.86030579
v 5.61152172 62.37568283 -61.11183548
v 5.61112404 70.33226013 -55.74805450
v 5.61196518 74.42424774 -51.65397644
v 5.61221313 78.41500854 -46.53559494
v 5.61159420 82.05533600 -40.50859070
v 5.61177921 85.07659912 -33.86105347
v 5.60967922 88.71703339 -8.42520046
v 5.61140251 87.80512238 -3.36331677
v 5.61223269 86.37036133 1.15008903
v 5.61248398 84.47707367 5.15378380
v 5.61247778 79.44210052 11.79296207
v 5.61241579 82.16515350 8.68672752
v 5.61152935 72.65708923 16.82896805
v 5.61314869 76.27925110 14.50944424
v 5.61137533 68.47570038 18.76152420
v 5.61162090 63.60407639 20.27229691
v 5.61163855 -63.44631958 20.26412773
v 5.61139154 -68.32883453 18.74461937
v 5.61153173 -72.51769257 16.80096817
v 5.61295176 -76.14489746 14.46770096
v 5.61235380 -82.03276062 8.60912228
v 5.61236763 -79.31023407 11.73460293
v 5.61224699 -86.22866058 1.01996505
v 5.61243153 -84.34206390 5.05194187
v 5.61143637 -87.65222931 -3.52815533
v 5.60953808 -88.54608917 -8.62910080
v 5.61158085 -88.81752014 -14.27256966
v 5.61190462 -84.79877472 -34.07463837
v 5.61169338 -81.76654053 -40.68692398
v 5.61236429 -78.12651062 -46.67244720
v 5.61207724 -74.14552307 -51.75004959
v 5.61103582 -70.06815338 -55.81010818
v 5.61183882 -66.04647827 -58.89693069
v 5.61149502 -62.14289093 -61.13085175
v 5.61149597 -58.37664032 -62.62908936
v -19.44311523 -67.19802856 18.52246284
v -20.33830261 -73.72123718 15.07107925
v -20.97285843 -78.77095032 10.58137798
v -21.36225891 -82.46694183 5.19089794
v -21.52098656 -84.89134216 -0.98093760
v -0.63837415 -88.50373077 -9.10936165
v 1.11162579 -88.74491882 -14.10936165
v -0.63837415 -88.61193085 -10.58931255
v 1.11162579 -88.73544312 -12.10936165
v 1.11162579 -88.75066376 -13.10155869
v -1.38440037 -88.63948822 -14.10936165
v -19.47736359 -79.98725891 -37.01577377
v -18.72579193 -76.19522858 -43.79614258
v -17.97077942 -71.70025635 -49.87910080
v -17.26651955 -66.62001038 -55.00675201
v -16.66803169 -61.07450485 -58.92973709
v -17.04194450 61.21167374 -58.88296127
v -17.66100693 66.75552368 -54.95655441
v -18.38536263 71.83193970 -49.82598877
v -19.15957069 76.32133484 -43.74100876
v -19.92905045 80.10644531 -36.95986938
v 1.11162579 88.94431305 -13.10156631
v -0.63837415 88.69603729 -9.10936165
v -0.63837415 88.80469513 -10.58933258
v 1.11162579 88.92884827 -12.10936165
v -22.02569199 84.97063446 -0.94989151
v -21.85999107 82.54337311 5.21214342
v -21.45244980 78.84889984 10.59359550
v -20.78590775 73.80615997 15.07559490
v -19.84199524 67.29694366 18.52113914
v 3.24609089 -36.56578445 -63.80936050
v 3.81162596 -35.20000076 -63.80936050
v 3.01168942 -36.00000000 -63.80936050
v 3.24609089 -35.43421555 -63.80936050
v 3.24609089 35.43421555 -63.80936050
v 3.81162596 36.79999924 -63.80936050
v 3.01168942 36.00000000 -63.80936050
v 3.24609089 36.56578445 -63.80936050
v 3.81162596 -36.79999924 -60.80936050
v 3.24609089 -36.56578445 -60.80936050
v 3.01168942 -36.00000000 -60.80936050
v 3.24609089 -35.43421555 -60.80936050
v 3.81162596 35.20000076 -60.80936050
v 3.24609089 35.43421555 -60.80936050
v 3.01168942 36.00000000 -60.80936050
v 3.24609089 36.56578445 -60.80936050
v -104.82100677 19.23261070 -13.00194550
v -104.93489075 14.05377388 -14.55936146
v -103.86694336 18.57094193 -14.55936146
v -104.88149261 -14.07063961 -14.55936146
v -55.88837433 18.69591331 -14.07297993
v -103.80132294 -18.57094193 -14.55936146
v -65.88837433 -18.57094193 -14.55936146
v -65.88837433 18.57094193 -14.55936146
v -105.19612885 21.75000000 -11.38030243
v -109.33457947 14.23113251 -8.29688931
v -109.29871368 0.10208298 -10.56802940
v -105.25216675 20.36343002 -11.92778301
v -106.34681702 0.10306027 -14.55936146
v -105.71831512 9.46997452 -14.55936146
v -105.69804382 -9.37212372 -14.55936146
v -108.91970825 21.75000000 -5.55294037
v -112.59996033 14.44389629 -2.81074476
v -111.70465851 0.10087568 -7.07175875
v -111.33138275 21.75000000 -0.73872769
v -114.52650452 14.48303986 1.75943553
v -115.12798309 0.09786853 -1.29238367
v -113.69956207 0.09940036 -3.89652967
v -112.41131592 21.75000000 3.22236371
v -114.97927094 14.35938263 5.29828644
v -116.74016571 0.09463611 2.89523053
v -112.03430176 21.75000000 6.57023287
v -113.99653625 14.14487076 8.04895878
v -116.93175507 0.09154341 5.85505676
v -109.91098785 21.75000000 9.40996647
v -111.14866638 13.77123165 10.63229656
v -116.01129913 0.08939234 8.10407829
v -106.12814331 21.75000000 11.75998306
v -105.80159760 13.08846760 13.08431816
v -113.22908020 0.08893629 10.55189705
v -100.47834015 21.75000000 13.85189533
v -97.68081665 12.05265999 15.24465656
v -107.62185669 0.09069246 13.02167892
v -92.14199829 21.75000000 15.83914185
v -99.47165680 0.09455545 15.10416698
v -89.55852509 0.10017519 16.74615097
v -55.88837433 20.14876747 -12.07345867
v -55.88837433 21.26361847 -11.50527477
v -55.88837433 19.26409721 -12.95812893
v -109.28661346 -14.25452900 -8.29408073
v -112.55448151 -14.47349358 -2.80710340
v -114.48281097 -14.51412201 1.76341593
v -114.93733978 -14.38601303 5.30215025
v -113.95696259 -14.16028404 8.05255795
v -111.11228180 -13.76637459 10.63578510
v -105.77017975 -13.05181980 13.08738232
v -97.65709686 -11.97130489 15.24686813
v -49.91907501 77.16825104 -0.71729594
v -1.38795877 88.66578674 -9.10936165
v -2.13837409 88.63148499 -9.10936165
v -49.51849747 75.19094849 5.15782356
v -48.43453217 71.97718811 10.26252747
v -46.58489990 67.41434479 14.53457355
v -43.88112259 61.34647751 17.86515808
v -38.23180389 55.58759308 -54.74031830
v -40.11777878 61.05930328 -50.04424286
v -42.14246750 65.98045349 -44.06815720
v -44.16893387 70.21801758 -37.16125107
v -46.06265640 73.64344788 -29.67737389
v -60.81145859 52.58357239 -42.19349670
v -63.97395706 56.14688110 -36.17034149
v -67.02906036 59.16257858 -29.60980034
v -69.81082153 61.56028748 -22.80761528
v -65.88837433 67.84178162 -16.05936050
v -47.38837433 77.79296112 -16.80936050
v -72.02338409 63.38487625 -16.05936050
v -47.08678436 77.63430786 -17.99973297
v -46.33222198 77.74359131 -18.85026932
v -74.24913025 64.37278748 -8.17035580
v -65.88837433 68.11335754 -15.30403328
v -65.88837433 68.36521912 -14.55936146
v -47.25951385 78.02639008 -16.01708603
v -45.47431183 79.08784485 -14.37899590
v -46.25060654 78.71074677 -14.71309757
v -46.87272644 78.34156036 -15.28872204
v -75.11959839 64.35443878 -2.34735322
v -75.13393402 63.49851227 2.83273983
v -74.19548798 61.79231644 7.36844778
v -72.17534637 59.15810394 11.31227970
v -68.91370392 55.44083405 14.67092609
v -64.26274109 50.49030304 17.35980606
v -94.07949829 12.64844131 -27.99310112
v -89.55704498 26.85504532 -28.90170860
v -99.16854095 13.26945400 -22.01415062
v -96.53875732 0.10419378 -26.40077400
v -91.91582489 0.10401303 -31.41382790
v -93.35047913 0.10411163 -29.89425278
v -101.15686798 19.39592171 -17.83219719
v -103.91669464 13.43986225 -16.05936050
v -104.66254425 8.76091766 -16.05936050
v -99.86870575 20.84852600 -18.95252419
v -99.06140900 22.57921600 -19.30857658
v -94.51011658 28.25773048 -22.47095490
v -99.64417267 0.10408715 -22.84162712
v -105.18811035 0.10333696 -16.05936050
v -102.74195099 18.57094193 -16.05936050
v -103.86731720 -13.44436264 -16.05936050
v -104.64470673 -8.64869499 -16.05936050
v -65.88837433 18.57094193 -16.05936050
v -102.67453766 -18.57094193 -16.05936050
v -55.88837433 20.14876747 -18.54526520
v -55.88837433 19.26409721 -17.66059303
v -55.88837433 18.69591331 -16.54574203
v -55.88837433 21.26361847 -19.11344910
v -98.82573700 24.25111008 -18.90569496
v -55.88837433 23.73638153 -19.11344910
v -55.88837433 22.50000000 -19.30936050
v -99.08823395 29.15645599 -16.05936050
v -99.18260193 25.61951256 -17.81308746
v -55.88837433 24.85123253 -18.54526520
v -100.19403076 26.42905807 -16.05936050
v -55.88837433 25.73590279 -17.66059303
v -65.88837433 26.42905807 -16.05936050
v -55.88837433 26.30408669 -16.54574203
v -85.32592010 44.64701843 -22.89027786
v -94.18027496 38.73651505 -16.05936050
v -81.04949188 42.46939087 -29.79470825
v -89.20611572 46.09298706 -16.05936050
v -82.92617798 53.49377823 -16.05936050
v -94.06253052 -12.64168644 -27.95342827
v -99.13273621 -13.27187824 -21.99303246
v -65.88837433 26.42905807 -14.55936146
v -65.88837433 26.48211288 -14.93150902
v -65.88837433 26.50000000 -15.30936146
v -65.88837433 26.48211288 -15.68721390
v -72.46958160 63.68239975 -14.55936146
v -89.72975922 46.67866898 -14.55936146
v -93.98246002 40.69024277 -14.55936146
v -100.10429382 29.30830193 -14.55936146
v -101.28588867 26.42905807 -14.55936146
v -92.48607635 47.47172546 -8.58318233
v -94.27196503 47.83454514 -3.27972579
v -95.08515167 47.65364075 1.34390020
v -94.83797455 46.95412445 5.29292488
v -93.41658020 45.73939514 8.70766640
v -90.59714508 43.87780380 11.75663090
v -86.13701630 41.19304657 14.44089890
v -79.86244202 37.57880402 16.67204475
v -103.52111816 30.24802399 -8.73126698
v -106.13362885 30.62621117 -3.58037353
v -107.68863678 30.67482567 0.83788687
v -108.09059906 30.41072655 4.46659517
v -107.30158997 29.89995575 7.44189405
v -105.09973907 29.09113312 10.11604500
v -101.08905792 27.79478073 12.61265850
v -95.01537323 25.90226364 14.83300400
v -86.60881805 23.25000000 16.73207664
v -82.72683716 23.25000000 17.32045746
v -102.31155396 25.99012566 -13.35512829
v -108.39733124 23.25000000 -5.51802015
v -103.26538086 25.24194908 -12.39702320
v -104.07034302 24.29874992 -11.73661709
v -104.68907166 23.25000000 -11.38030243
v -110.74622345 23.25000000 -0.73854584
v -111.77540588 23.25000000 3.19169283
v -111.38468170 23.25000000 6.49541473
v -109.31531525 23.25000000 9.31603336
v -105.63874054 23.25000000 11.66070461
v -100.29489899 23.25000000 13.71004963
v -92.37377167 23.25000000 15.68538952
v -65.88837433 23.25000000 -11.38030243
v -55.88837433 25.73590279 -12.95812893
v -55.88837433 26.30408669 -14.07297993
v -55.88837433 24.85123253 -12.07345867
v -55.88837433 23.73638153 -11.50527477
v -47.38837433 75.00000000 -16.80936050
v -46.91106796 75.00000000 -15.34016418
v -46.91106796 75.00000000 -18.27855873
v -45.66103745 75.00000000 -19.18688011
v -44.11571121 75.00000000 -19.18688011
v -42.86568069 75.00000000 -18.27855873
v -42.38837433 75.00000000 -16.80936050
v -42.86568069 75.00000000 -15.34016418
v -44.11571121 75.00000000 -14.43184280
v -45.66103745 75.00000000 -14.43184280
v -0.63837415 88.86530304 -12.10936165
v 0.23695666 88.89985657 -12.10936165
v -0.63837415 87.50000000 -9.10936165
v 1.11162579 84.50000000 -12.10936165
v -0.63837415 84.50000000 -12.10936165
v -2.13837409 84.50000000 -12.10936165
v -2.13837409 87.50000000 -9.10936165
v -3.01308799 88.74371338 -12.10936165
v -2.13837409 88.79322815 -12.10936165
v -3.88837409 87.00000000 -14.10936165
v -3.88837409 84.50000000 -12.10936165
v -3.88837409 84.50000000 -12.90936089
v -1.38693905 88.83300781 -14.10936165
v 1.11162579 87.00000000 -14.10936165
v -105.83195496 -21.75000000 11.87169361
v -108.95590973 -21.75000000 -5.38087654
v -100.10594940 -21.75000000 13.94299603
v -91.63941956 -21.75000000 15.92324924
v -82.44402313 -21.75000000 17.40396500
v -105.18397522 -20.36459732 -11.92704678
v -55.88837433 -21.26361847 -11.50527477
v -109.68422699 -21.75000000 9.55736542
v -111.35493469 -21.75000000 -0.53606951
v -111.91635132 -21.75000000 6.73581982
v -112.37931061 -21.75000000 3.42500615
v -104.75573730 -19.23355675 -13.00060654
v -55.88837433 -19.26409721 -12.95812893
v -55.88837433 -18.69591331 -14.07297993
v -55.88837433 -20.14876747 -12.07345867
v -49.28296280 -77.27319336 -0.76340413
v -2.13837409 -88.43943024 -9.10936165
v -3.88837409 -88.50258636 -13.10137272
v -3.88837409 -88.49588776 -12.10936165
v -3.01271915 -88.55084991 -12.10936165
v -2.13837409 -88.60021973 -12.10936165
v -2.13837409 -88.54387665 -10.58858681
v -48.92190933 -75.28819275 5.12720776
v -1.38758945 -88.47360992 -9.10936165
v -47.90444183 -72.05149841 10.24527454
v -46.15370560 -67.44705200 14.52784061
v -43.58662415 -61.31476974 17.86507416
v -64.06800079 -50.44675446 17.36284256
v -68.57114410 -55.50674438 14.67671967
v -71.72446442 -59.30460739 11.31792831
v -73.67053223 -61.99417877 7.37225914
v -74.56369781 -63.73455048 2.83405137
v -74.52783966 -64.60739899 -2.34831357
v -73.65501404 -64.62902069 -8.17234802
v -48.28744125 -77.69269562 -14.50062275
v -46.24968719 -78.52448273 -14.71250057
v -45.47305679 -78.90283966 -14.37869263
v -65.88837433 -68.17345428 -14.55936146
v -47.08478928 -77.43808746 -18.00341225
v -47.38837433 -77.59992981 -16.80936050
v -47.25942612 -77.83571625 -16.01682472
v -46.87231827 -78.15326691 -15.28818893
v -45.44173431 -73.68724060 -29.77640343
v -69.24372101 -61.78185654 -22.84237099
v -65.88837433 -67.91868591 -15.30334377
v -65.88837433 -67.64365387 -16.05936050
v -71.46470642 -63.61620331 -16.05936050
v -46.32962036 -77.54627991 -18.85210609
v -43.57646179 -70.23808289 -37.26606369
v -66.47564697 -59.34919357 -29.67933464
v -41.58365631 -65.97815704 -44.17564392
v -63.43777466 -56.29250336 -36.27225113
v -39.59577560 -61.03837967 -50.15132904
v -60.29653168 -52.68609619 -42.32182312
v -37.74765396 -55.55424881 -54.84397507
v -89.46577454 -26.98625374 -28.81962776
v -99.79870605 -20.83404350 -18.94592476
v -94.37515259 -28.39741707 -22.42742157
v -101.09175110 -19.38990784 -17.82477951
v -80.77652740 -42.69910431 -29.71848106
v -100.09774780 -26.42905807 -16.05936050
v -98.91867065 -29.30097771 -16.05936050
v -85.00171661 -44.88486099 -22.85126305
v -99.08550262 -25.61785507 -17.81515121
v -98.73200226 -24.21110725 -18.92489815
v -98.98319244 -22.55193138 -19.30902481
v -94.04873657 -38.71780777 -16.05936050
v -65.88837433 -26.42905807 -16.05936050
v -55.88837433 -24.85123253 -18.54526520
v -55.88837433 -25.73590279 -17.66059303
v -55.88837433 -26.30408669 -16.54574203
v -55.88837433 -23.73638153 -19.11344910
v -55.88837433 -22.50000000 -19.30936050
v -55.88837433 -20.14876747 -18.54526520
v -55.88837433 -21.26361847 -19.11344910
v -55.88837433 -19.26409721 -17.66059303
v -55.88837433 -18.69591331 -16.54574203
v -65.88837433 -18.57094193 -16.05936050
v -88.83783722 -46.35014343 -16.05936050
v -82.82387543 -53.38505173 -16.05936050
v -79.76486206 -37.51354218 16.67101097
v -85.93806458 -41.24276352 14.44250774
v -90.32316589 -44.01501083 11.75860596
v -93.09043884 -45.93920135 8.70837307
v -94.47849274 -47.19481277 5.29157066
v -94.70747375 -47.91708374 1.34088206
v -93.88851166 -48.10590744 -3.28327680
v -71.90280914 -63.91962814 -14.55936146
v -92.10664368 -47.73902893 -8.58587265
v -65.88837433 -26.42905807 -14.55936146
v -81.98828888 -55.17825317 -14.55936146
v -65.88837433 -26.50000000 -15.30936146
v -65.88837433 -26.48211288 -14.93150902
v -65.88837433 -26.48211288 -15.68721390
v -65.88837433 -22.50000000 -11.30939674
v -74.73776245 -23.25000000 18.31523323
v -65.88837433 -23.25000000 -11.38030243
v -83.83676910 -23.25000000 17.15089607
v -86.91581726 -23.25000000 16.67063713
v -96.03044891 -26.22782326 14.50771904
v -93.06996155 -23.25000000 15.52600193
v -102.27957916 -28.27595329 11.94506264
v -100.83188629 -23.25000000 13.51894379
v -106.02444458 -29.57949257 9.07325840
v -105.97517395 -23.25000000 11.46347713
v -107.70074463 -30.34509468 5.96378088
v -109.52001190 -23.25000000 9.07934952
v -107.79703522 -30.78303528 2.23992920
v -111.68934631 -23.25000000 2.92825103
v -111.41881561 -23.25000000 6.25632906
v -106.43449402 -30.84370804 -2.44549680
v -110.58874512 -23.25000000 -0.98205370
v -103.71112061 -30.47885513 -8.07315159
v -108.21926117 -23.25000000 -5.70971298
v -93.87837219 -40.62526321 -14.55936146
v -99.93373108 -29.45730591 -14.55936146
v -103.73824310 -24.62915039 -11.92310715
v -89.36305237 -46.92935562 -14.55936146
v -104.61191559 -23.25000000 -11.38030243
v -102.55683899 -25.76706123 -13.00148201
v -101.19226074 -26.42905807 -14.55936146
v -55.88837433 -24.85123253 -12.07345867
v -55.88837433 -23.73638153 -11.50527477
v -55.88837433 -26.30408669 -14.07297993
v -55.88837433 -25.73590279 -12.95812893
v -42.38837433 -75.00000000 -16.80936050
v -42.86568069 -75.00000000 -15.34016418
v -42.86568069 -75.00000000 -18.27855873
v -44.11571121 -75.00000000 -19.18688011
v -45.66103745 -75.00000000 -19.18688011
v -46.91106796 -75.00000000 -18.27855873
v -47.38837433 -75.00000000 -16.80936050
v -46.91106796 -75.00000000 -15.34016418
v -45.66103745 -75.00000000 -14.43184280
v -44.11571121 -75.00000000 -14.43184280
v -0.63837415 -87.50000000 -9.10936165
v 0.23733222 -88.70657349 -12.10936165
v -0.63837415 -88.67211151 -12.10936165
v 1.11162579 -87.00000000 -14.10936165
v -55.88837433 23.49012375 -14.31967545
v -55.88837433 23.89999962 -15.30936146
v -57.88837433 23.89999962 -15.30936146
v -55.88837433 23.49012375 -16.29904747
v -57.88837433 23.49012375 -16.29904747
v -55.88837433 22.50000000 -11.30936146
v -55.88837433 22.50000000 -13.90947247
v -57.88837433 23.49012375 -14.31967545
v -55.88837433 21.50987625 -14.31967545
v -57.88837433 22.50000000 -13.90947247
v -55.88837433 21.10000038 -15.30936146
v -57.88837433 21.50987625 -14.31967545
v -55.88837433 21.50987625 -16.29904747
v -57.88837433 21.10000038 -15.30936146
v -55.88837433 22.50000000 -16.70924950
v -57.88837433 21.50987625 -16.29904747
v -57.88837433 22.50000000 -16.70924950
v -55.88837433 -21.50987625 -14.31967545
v -55.88837433 -21.10000038 -15.30936146
v -57.88837433 -21.10000038 -15.30936146
v -55.88837433 -21.50987625 -16.29904747
v -57.88837433 -21.50987625 -16.29904747
v -55.88837433 -22.50000000 -11.30936146
v -55.88837433 -22.50000000 -13.90947247
v -57.88837433 -21.50987625 -14.31967545
v -55.88837433 -23.49012375 -14.31967545
v -57.88837433 -22.50000000 -13.90947247
v -55.88837433 -23.89999962 -15.30936146
v -57.88837433 -23.49012375 -14.31967545
v -55.88837433 -23.49012375 -16.29904747
v -57.88837433 -23.89999962 -15.30936146
v -55.88837433 -22.50000000 -16.70924950
v -57.88837433 -23.49012375 -16.29904747
v -57.88837433 -22.50000000 -16.70924950
v -55.88837433 26.50000000 -15.30936146
v -55.88837433 18.50000000 -15.30936146
v -65.88837433 18.50000000 -15.30936146
v -65.88837433 18.51788712 -15.68721390
v -65.88837433 18.51788712 -14.93150902
v -55.88837433 -18.50000000 -15.30936146
v -65.88837433 -18.50000000 -15.30936146
v -65.88837433 -18.51788712 -14.93150902
v -65.88837433 -18.51788712 -15.68721390
v -55.88837433 -26.50000000 -15.30936146
v -57.88837433 20.47743416 -16.77868462
v -104.40223694 20.20835304 -16.30853844
v -105.26601410 20.00000000 -15.30936146
v -57.88837433 20.00000000 -15.30936146
v -105.72336578 20.07520103 -14.70080090
v -103.84824371 20.54289627 -16.86491394
v 1.11162579 -87.00000000 -14.90936089
v -57.88837433 21.72770691 -17.68705368
v -103.29793549 21.04797935 -17.34446144
v -102.84368134 21.65215874 -17.66120338
v -102.51178741 22.30511856 -17.80175400
v -57.88837433 23.27229309 -17.68705368
v -102.31624603 22.96048355 -17.76658630
v -102.26265717 23.57734680 -17.56531334
v -57.88837433 24.52256584 -16.77868462
v -102.35755157 24.13966179 -17.19655609
v -102.58467865 24.56827545 -16.71372604
v -57.88837433 25.00000000 -15.30936146
v -103.09880829 24.93150902 -15.89053440
v -103.52676392 25.00000000 -15.30936146
v -57.88837433 24.52256584 -13.84003735
v -104.19734955 24.86792946 -14.50754452
v -57.88837433 20.47743416 -13.84003735
v -57.88837433 21.72770691 -12.93166828
v -104.66065216 24.63982582 -14.01663208
v -105.21894836 24.21802711 -13.49321651
v -57.88837433 23.27229309 -12.93166828
v -105.77244568 23.60356331 -13.06611633
v -106.19374847 22.91203690 -12.84354973
v -106.27460480 20.48848152 -13.82484245
v -57.88837433 -24.52256584 -16.77868462
v -102.90774536 -24.89021492 -16.04207993
v -103.43984222 -25.00000000 -15.30936146
v -57.88837433 -25.00000000 -15.30936146
v -104.06829071 -24.88399696 -14.55666256
v -102.50521851 -24.57817841 -16.69902802
v -102.26559448 -24.12533951 -17.20890808
v -57.88837433 -23.27229309 -17.68705368
v -102.17721558 -23.56670952 -17.57036400
v -102.24170685 -22.91844368 -17.77409363
v -57.88837433 -21.72770691 -17.68705368
v -102.46929169 -22.21420288 -17.79297066
v -102.85370636 -21.51765823 -17.60827446
v -57.88837433 -20.47743416 -16.77868462
v -103.36831665 -20.89566994 -17.22668457
v -103.90744781 -20.44933510 -16.73931694
v -57.88837433 -20.00000000 -15.30936146
v -104.37741089 -20.18784332 -16.26011467
v -105.19785309 -20.00000000 -15.30936146
v -57.88837433 -20.47743416 -13.84003735
v -105.66349030 -20.07808685 -14.68941498
v -105.32692719 -19.91961098 -15.40440464
v -57.88837433 -24.52256584 -13.84003735
v -57.88837433 -23.27229309 -12.93166828
v -104.69017792 -24.56824112 -13.90494728
v -106.05957031 -20.32037354 -14.08493233
v 1.11162579 -86.50000000 -14.90936089
v -57.88837433 -21.72770691 -12.93166828
v -106.13666534 -22.87530899 -12.83769321
v -105.76056671 -23.51270676 -13.02366066
v -105.26844025 -24.09467316 -13.38399982
v -44.88837433 75.00000000 -16.00936127
v -45.68830872 75.00000000 -16.80936050
v -45.45391083 75.00000000 -16.24357605
v -44.08843613 75.00000000 -16.80936050
v -44.32283783 75.00000000 -16.24357605
v -44.88837433 75.00000000 -17.60936165
v -44.32283783 75.00000000 -17.37514687
v -45.45391083 75.00000000 -17.37514687
v -44.88837433 79.00000000 -16.00936127
v -44.32268906 79.00000000 -16.24367523
v -45.45405960 79.00000000 -16.24367523
v -45.68837357 79.00000000 -16.80936050
v -45.45405960 79.00000000 -17.37504578
v -44.88837433 79.00000000 -17.60936165
v -44.32268906 79.00000000 -17.37504578
v -44.08837509 79.00000000 -16.80936050
v -44.88837433 79.48069000 -16.80936050
v -44.88837433 -75.00000000 -17.60936165
v -45.68830872 -75.00000000 -16.80936050
v -45.45391083 -75.00000000 -17.37514687
v -44.08843613 -75.00000000 -16.80936050
v -44.32283783 -75.00000000 -17.37514687
v -44.88837433 -75.00000000 -16.00936127
v -44.32283783 -75.00000000 -16.24357605
v -45.45391083 -75.00000000 -16.24357605
v -44.88837433 -79.00000000 -16.00936127
v -45.45405960 -79.00000000 -16.24367523
v -44.32268906 -79.00000000 -16.24367523
v -44.08837509 -79.00000000 -16.80936050
v -44.32268906 -79.00000000 -17.37504578
v -44.88837433 -79.00000000 -17.60936165
v -45.45405960 -79.00000000 -17.37504578
v -45.68837357 -79.00000000 -16.80936050
v -44.88837433 -79.48069000 -16.80936050
v 1.11162579 86.50000000 -14.90936089
v 1.11162579 84.50000000 -12.90936089
v 1.11162579 87.00000000 -14.90936089
v -3.88837409 87.00000000 -14.90936089
v -3.88837409 86.50000000 -14.90936089
f 1 2 3
f 4 3 2
f 5 1 3
f 6 3 4
f 5 3 6
f 1 7 2
f 8 2 7
f 8 4 2
f 5 7 1
f 5 9 7
f 10 7 9
f 11 8 7
f 10 11 7
f 12 13 14
f 15 14 13
f 16 12 14
f 15 17 14
f 18 14 17
f 19 16 14
f 18 19 14
f 12 20 13
f 15 13 20
f 21 20 12
f 22 20 21
f 22 15 20
f 16 21 12
f 23 24 9
f 10 9 24
f 6 23 9
f 5 6 9
f 23 4 24
f 10 24 4
f 6 4 23
f 25 26 4
f 10 4 26
f 27 25 4
f 28 27 4
f 8 28 4
f 29 30 17
f 18 17 30
f 22 29 17
f 22 17 15
f 29 21 30
f 18 30 21
f 22 21 29
f 31 32 21
f 18 21 32
f 33 31 21
f 34 33 21
f 16 34 21
f 35 26 25
f 10 26 35
f 36 25 27
f 36 35 25
f 36 27 28
f 37 28 8
f 38 36 28
f 37 38 28
f 39 8 11
f 37 8 39
f 10 40 11
f 34 11 40
f 16 11 34
f 39 11 16
f 10 41 40
f 34 40 41
f 10 35 41
f 33 41 35
f 34 41 33
f 33 35 31
f 36 31 35
f 42 32 31
f 18 32 42
f 36 42 31
f 39 16 19
f 18 43 19
f 44 19 43
f 45 19 44
f 45 39 19
f 18 46 43
f 44 43 46
f 18 42 46
f 44 46 42
f 47 42 36
f 47 44 42
f 48 49 50
f 51 50 49
f 52 48 50
f 53 52 50
f 54 50 51
f 55 50 54
f 56 53 50
f 55 56 50
f 48 57 49
f 51 49 57
f 58 57 59
f 60 59 57
f 61 57 58
f 48 60 57
f 61 51 57
f 60 58 59
f 62 63 58
f 64 58 63
f 60 62 58
f 64 61 58
f 65 66 63
f 64 63 66
f 62 65 63
f 67 66 68
f 65 68 66
f 69 66 67
f 64 66 69
f 70 67 68
f 65 70 68
f 71 72 67
f 69 67 72
f 70 71 67
f 73 74 72
f 75 72 74
f 71 73 72
f 69 72 75
f 76 77 74
f 78 74 77
f 73 76 74
f 75 74 78
f 76 79 77
f 78 77 79
f 80 79 76
f 80 78 79
f 81 76 73
f 81 80 76
f 81 73 71
f 82 71 70
f 82 81 71
f 82 70 65
f 83 65 62
f 83 82 65
f 84 62 60
f 83 62 84
f 85 60 48
f 84 60 85
f 86 48 52
f 86 85 48
f 87 86 52
f 53 87 52
f 88 89 90
f 91 90 89
f 92 88 90
f 93 92 90
f 91 93 90
f 94 95 89
f 96 89 95
f 88 94 89
f 96 91 89
f 94 97 95
f 98 95 97
f 99 96 95
f 98 99 95
f 94 100 97
f 101 97 100
f 101 98 97
f 102 103 100
f 104 100 103
f 94 102 100
f 104 101 100
f 102 105 103
f 104 103 105
f 102 106 105
f 107 105 106
f 107 104 105
f 102 108 106
f 109 106 108
f 109 110 106
f 111 106 110
f 111 107 106
f 112 113 108
f 114 108 113
f 102 112 108
f 115 116 108
f 109 108 116
f 114 115 108
f 117 118 113
f 119 113 118
f 112 117 113
f 119 114 113
f 120 121 118
f 122 118 121
f 117 120 118
f 123 119 118
f 122 123 118
f 124 125 121
f 126 121 125
f 120 124 121
f 127 122 121
f 126 127 121
f 84 85 125
f 128 125 85
f 124 84 125
f 128 126 125
f 129 128 85
f 86 129 85
f 130 84 124
f 130 83 84
f 131 124 120
f 131 130 124
f 132 120 117
f 132 131 120
f 133 117 112
f 133 132 117
f 134 112 102
f 134 133 112
f 135 102 94
f 135 134 102
f 136 94 88
f 136 135 94
f 137 138 88
f 139 88 138
f 92 137 88
f 139 136 88
f 140 141 138
f 142 138 141
f 137 140 138
f 142 139 138
f 143 144 141
f 145 141 144
f 140 143 141
f 145 142 141
f 146 147 144
f 148 144 147
f 143 146 144
f 148 145 144
f 149 150 147
f 151 147 150
f 146 149 147
f 152 148 147
f 151 152 147
f 153 154 150
f 155 150 154
f 156 153 150
f 157 156 150
f 149 157 150
f 155 158 150
f 151 150 158
f 159 154 153
f 160 155 154
f 159 160 154
f 159 153 156
f 161 156 157
f 162 156 161
f 159 156 162
f 163 157 149
f 163 161 157
f 164 149 146
f 165 163 149
f 164 165 149
f 166 146 143
f 167 164 146
f 166 167 146
f 168 143 140
f 168 166 143
f 169 140 137
f 170 168 140
f 169 170 140
f 171 137 92
f 171 169 137
f 171 92 172
f 93 172 92
f 173 171 172
f 174 173 172
f 175 174 172
f 93 175 172
f 176 161 163
f 177 162 161
f 178 177 161
f 179 178 161
f 180 179 161
f 181 180 161
f 182 181 161
f 176 182 161
f 183 163 165
f 183 176 163
f 184 165 164
f 184 183 165
f 185 164 167
f 185 184 164
f 186 167 166
f 186 185 167
f 187 166 168
f 187 186 166
f 188 168 170
f 188 187 168
f 189 170 169
f 189 188 170
f 190 169 171
f 190 189 169
f 191 192 171
f 193 171 192
f 194 191 171
f 173 194 171
f 193 190 171
f 115 192 116
f 195 116 192
f 114 192 115
f 196 192 114
f 197 195 192
f 198 197 192
f 191 198 192
f 196 193 192
f 195 109 116
f 199 114 119
f 199 196 114
f 200 119 123
f 201 199 119
f 200 201 119
f 202 123 122
f 202 200 123
f 202 122 127
f 203 127 126
f 203 202 127
f 204 126 128
f 204 203 126
f 205 128 129
f 205 204 128
f 206 129 86
f 206 205 129
f 87 206 86
f 207 110 109
f 207 111 110
f 208 109 195
f 207 109 208
f 209 195 197
f 210 208 195
f 209 210 195
f 211 197 198
f 211 209 197
f 212 198 191
f 212 211 198
f 213 191 194
f 213 212 191
f 214 194 173
f 214 213 194
f 174 214 173
f 215 216 217
f 218 217 216
f 215 217 219
f 220 219 217
f 220 217 218
f 221 222 216
f 223 216 222
f 215 221 216
f 223 218 216
f 221 224 222
f 225 222 224
f 225 223 222
f 221 226 224
f 225 224 226
f 221 227 226
f 228 226 227
f 228 225 226
f 221 229 227
f 228 227 229
f 221 230 229
f 231 229 230
f 231 228 229
f 232 233 230
f 234 230 233
f 221 232 230
f 234 231 230
f 232 235 233
f 236 233 235
f 236 234 233
f 232 237 235
f 236 235 237
f 232 238 237
f 239 237 238
f 239 236 237
f 240 241 238
f 242 243 244
f 240 238 232
f 245 242 244
f 240 246 241
f 247 241 246
f 248 238 241
f 247 248 241
f 240 249 246
f 250 246 249
f 247 246 250
f 240 251 249
f 250 249 251
f 240 252 251
f 253 251 252
f 250 251 253
f 240 254 252
f 255 252 254
f 253 252 255
f 240 256 254
f 257 254 256
f 255 254 258
f 257 258 254
f 240 259 256
f 257 256 259
f 240 260 259
f 257 259 260
f 215 261 260
f 262 260 261
f 215 260 240
f 262 257 260
f 215 263 261
f 264 261 263
f 264 262 261
f 215 219 263
f 220 263 219
f 220 264 263
f 265 266 78
f 75 78 266
f 80 265 78
f 265 267 266
f 268 266 267
f 75 266 268
f 269 270 267
f 271 267 270
f 265 269 267
f 268 267 271
f 272 273 270
f 274 270 273
f 269 272 270
f 271 270 274
f 275 276 273
f 277 273 276
f 272 275 273
f 274 273 277
f 278 279 276
f 280 276 279
f 275 278 276
f 277 276 280
f 281 282 279
f 280 279 282
f 278 281 279
f 281 283 282
f 284 282 283
f 280 282 284
f 240 285 283
f 286 283 285
f 281 240 283
f 284 283 286
f 232 287 285
f 288 285 287
f 240 232 285
f 286 285 288
f 289 290 287
f 288 287 290
f 232 289 287
f 289 291 290
f 292 290 291
f 288 290 292
f 293 294 291
f 292 291 294
f 289 293 291
f 293 295 294
f 296 294 295
f 292 294 296
f 297 298 295
f 296 295 298
f 293 297 295
f 299 300 298
f 296 298 300
f 297 299 298
f 301 300 299
f 302 296 300
f 303 302 300
f 303 300 301
f 304 299 297
f 304 301 299
f 305 297 293
f 305 306 297
f 307 297 306
f 304 297 307
f 308 293 289
f 309 305 293
f 308 309 293
f 221 289 232
f 221 308 289
f 310 240 281
f 310 215 240
f 311 281 278
f 311 310 281
f 312 278 275
f 312 311 278
f 313 275 272
f 313 312 275
f 314 272 269
f 314 313 272
f 315 269 265
f 315 314 269
f 316 265 80
f 316 315 265
f 81 316 80
f 317 306 305
f 307 306 317
f 318 305 309
f 318 317 305
f 319 309 308
f 320 309 319
f 318 309 320
f 321 308 221
f 322 319 308
f 323 322 308
f 321 323 308
f 324 221 215
f 324 321 221
f 325 215 310
f 325 324 215
f 326 310 311
f 326 325 310
f 327 311 312
f 327 326 311
f 328 312 313
f 328 327 312
f 329 313 314
f 329 328 313
f 330 314 315
f 330 329 314
f 331 315 316
f 331 330 315
f 82 316 81
f 82 331 316
f 332 319 322
f 332 320 319
f 333 322 323
f 333 332 322
f 145 323 321
f 334 323 145
f 335 323 334
f 333 323 335
f 142 321 324
f 145 321 142
f 139 324 325
f 142 324 139
f 136 325 326
f 139 325 136
f 135 326 327
f 136 326 135
f 134 327 328
f 135 327 134
f 133 328 329
f 134 328 133
f 132 329 330
f 133 329 132
f 131 330 331
f 132 330 131
f 130 331 82
f 131 331 130
f 130 82 83
f 336 158 155
f 337 151 158
f 337 158 336
f 338 155 160
f 336 155 338
f 339 160 159
f 338 160 339
f 340 145 148
f 334 145 340
f 341 148 152
f 342 340 148
f 342 148 341
f 337 152 151
f 343 341 152
f 343 152 337
f 342 334 340
f 344 335 334
f 344 334 342
f 345 346 347
f 348 347 346
f 349 345 347
f 350 349 347
f 351 350 347
f 351 347 348
f 345 352 346
f 353 346 352
f 354 348 346
f 353 354 346
f 345 355 352
f 356 352 355
f 356 353 352
f 357 358 355
f 359 355 358
f 345 357 355
f 359 356 355
f 357 360 358
f 361 358 360
f 361 359 358
f 357 362 360
f 363 360 362
f 363 361 360
f 364 365 362
f 366 362 365
f 357 364 362
f 366 363 362
f 367 365 364
f 368 366 365
f 367 368 365
f 369 370 364
f 371 364 370
f 357 369 364
f 367 364 371
f 372 373 370
f 374 370 373
f 369 372 370
f 374 375 370
f 371 370 375
f 376 377 373
f 378 373 377
f 379 376 373
f 372 379 373
f 378 374 373
f 380 381 377
f 382 377 381
f 383 380 377
f 376 383 377
f 382 378 377
f 384 385 381
f 386 381 385
f 380 384 381
f 386 382 381
f 387 51 385
f 61 385 51
f 388 387 385
f 384 388 385
f 61 386 385
f 387 54 51
f 389 54 387
f 389 55 54
f 390 387 388
f 390 389 387
f 391 388 384
f 391 390 388
f 392 384 380
f 392 391 384
f 392 380 383
f 393 383 376
f 393 392 383
f 394 376 379
f 394 393 376
f 395 379 372
f 395 394 379
f 345 372 369
f 396 372 345
f 397 395 372
f 396 397 372
f 345 369 357
f 396 345 349
f 398 399 349
f 400 349 399
f 350 398 349
f 401 396 349
f 400 401 349
f 402 403 399
f 404 399 403
f 398 402 399
f 404 400 399
f 405 406 403
f 407 403 406
f 402 405 403
f 407 404 403
f 405 408 406
f 409 406 408
f 409 407 406
f 410 411 408
f 412 408 411
f 405 410 408
f 412 409 408
f 413 414 411
f 415 411 414
f 410 413 411
f 415 412 411
f 413 416 414
f 417 414 416
f 417 415 414
f 418 419 416
f 417 416 419
f 413 418 416
f 420 421 419
f 422 419 421
f 423 420 419
f 418 423 419
f 422 417 419
f 424 421 420
f 425 421 424
f 425 422 421
f 426 420 423
f 427 424 420
f 428 427 420
f 429 428 420
f 430 429 420
f 431 430 420
f 426 431 420
f 432 423 418
f 432 433 423
f 434 423 433
f 434 426 423
f 435 418 413
f 435 432 418
f 436 413 410
f 436 435 413
f 437 410 405
f 437 436 410
f 438 405 402
f 438 437 405
f 439 402 398
f 439 438 402
f 350 440 398
f 441 398 440
f 441 439 398
f 442 440 350
f 441 440 443
f 442 443 440
f 351 442 350
f 444 441 443
f 445 444 443
f 445 443 442
f 446 433 432
f 447 434 433
f 446 447 433
f 448 432 435
f 446 432 448
f 449 435 436
f 449 448 435
f 450 436 437
f 451 449 436
f 452 451 436
f 450 452 436
f 453 437 438
f 454 437 453
f 450 437 454
f 455 438 439
f 453 438 455
f 456 439 441
f 455 439 456
f 457 458 441
f 459 441 458
f 460 457 441
f 461 460 441
f 462 461 441
f 444 462 441
f 456 441 459
f 371 375 458
f 463 458 375
f 457 371 458
f 459 458 463
f 464 375 374
f 463 375 464
f 465 374 378
f 464 374 465
f 466 378 382
f 465 378 466
f 467 382 386
f 466 382 467
f 468 386 61
f 467 386 468
f 468 61 64
f 469 371 457
f 367 371 469
f 470 457 460
f 470 469 457
f 471 460 461
f 471 470 460
f 472 461 462
f 472 471 461
f 473 462 444
f 473 472 462
f 445 473 444
f 288 474 475
f 245 244 476
f 288 475 477
f 478 477 475
f 476 244 479
f 292 480 474
f 481 474 480
f 288 292 474
f 481 475 474
f 292 482 480
f 483 480 482
f 483 481 480
f 292 484 482
f 483 482 484
f 292 485 484
f 486 484 485
f 486 483 484
f 487 488 485
f 489 485 488
f 487 485 292
f 489 486 485
f 490 491 488
f 489 488 491
f 487 490 488
f 490 492 491
f 493 491 492
f 493 489 491
f 490 494 492
f 493 492 494
f 490 495 494
f 496 494 495
f 496 493 494
f 490 497 495
f 496 495 497
f 490 498 497
f 499 497 498
f 499 496 497
f 500 501 498
f 502 498 501
f 490 500 498
f 503 504 479
f 502 499 498
f 500 505 501
f 506 501 505
f 502 501 506
f 500 507 505
f 506 505 507
f 500 508 507
f 509 507 508
f 506 507 509
f 286 510 508
f 511 508 510
f 500 286 508
f 509 508 511
f 286 512 510
f 511 510 512
f 286 513 512
f 514 512 513
f 511 512 514
f 476 479 504
f 245 476 515
f 286 288 513
f 514 513 516
f 288 517 513
f 518 513 517
f 518 516 513
f 288 477 517
f 478 517 477
f 478 518 517
f 519 520 521
f 522 521 520
f 523 519 521
f 523 521 522
f 524 296 520
f 302 520 296
f 519 524 520
f 525 520 302
f 522 520 525
f 526 292 296
f 524 526 296
f 526 487 292
f 500 284 286
f 527 280 284
f 500 527 284
f 528 277 280
f 527 528 280
f 529 274 277
f 528 529 277
f 530 271 274
f 529 530 274
f 531 268 271
f 530 531 271
f 532 75 268
f 531 532 268
f 532 69 75
f 64 69 532
f 468 532 531
f 468 64 532
f 467 531 530
f 467 468 531
f 466 530 529
f 466 467 530
f 465 529 528
f 465 466 529
f 464 528 527
f 464 465 528
f 463 527 500
f 463 464 527
f 459 500 490
f 459 463 500
f 456 490 487
f 456 459 490
f 455 487 526
f 455 456 487
f 453 526 524
f 453 455 526
f 533 524 519
f 453 524 534
f 535 534 524
f 535 524 533
f 533 519 523
f 536 453 534
f 537 536 534
f 537 534 535
f 538 454 453
f 536 538 453
f 539 454 538
f 539 450 454
f 540 538 536
f 539 538 540
f 541 536 537
f 540 536 541
f 525 302 303
f 542 448 449
f 446 448 542
f 543 449 451
f 543 542 449
f 544 451 452
f 543 451 544
f 545 452 450
f 544 452 546
f 545 546 452
f 539 545 450
f 547 424 427
f 547 425 424
f 547 427 428
f 548 428 429
f 549 547 428
f 548 549 428
f 550 429 430
f 551 548 429
f 550 551 429
f 431 552 430
f 550 430 552
f 431 553 552
f 554 552 553
f 554 550 552
f 555 556 553
f 557 553 556
f 431 555 553
f 557 554 553
f 555 558 556
f 559 556 558
f 559 557 556
f 555 560 558
f 559 558 560
f 561 560 555
f 559 560 561
f 562 555 431
f 561 555 562
f 563 431 426
f 564 431 563
f 565 431 564
f 562 431 565
f 566 426 434
f 566 567 426
f 568 426 567
f 568 563 426
f 566 434 447
f 177 569 162
f 570 162 569
f 571 159 162
f 570 571 162
f 572 573 569
f 574 569 573
f 575 572 569
f 576 575 569
f 577 576 569
f 578 577 569
f 177 578 569
f 579 569 574
f 570 569 579
f 580 573 572
f 581 573 580
f 574 573 581
f 581 582 574
f 583 572 575
f 583 580 572
f 583 575 576
f 584 576 577
f 585 583 576
f 584 585 576
f 586 577 578
f 587 584 577
f 586 587 577
f 586 578 177
f 588 177 178
f 588 586 177
f 589 178 179
f 589 588 178
f 590 179 180
f 590 589 179
f 590 180 181
f 590 181 182
f 571 339 159
f 476 504 591
f 476 591 515
f 592 593 594
f 595 592 594
f 596 595 594
f 597 596 594
f 597 594 598
f 593 599 594
f 598 594 599
f 593 600 599
f 601 599 600
f 598 599 601
f 602 603 600
f 604 600 603
f 593 602 600
f 601 600 604
f 605 606 603
f 607 603 606
f 602 605 603
f 604 603 607
f 605 608 606
f 609 606 608
f 609 607 606
f 609 608 605
f 593 605 602
f 610 605 593
f 611 609 605
f 611 605 610
f 610 593 592
f 595 612 592
f 613 592 612
f 614 592 615
f 616 615 592
f 614 610 592
f 616 592 613
f 617 618 612
f 619 612 618
f 595 617 612
f 620 612 619
f 621 613 612
f 620 621 612
f 622 623 618
f 619 618 623
f 617 622 618
f 624 623 625
f 626 625 623
f 627 623 624
f 622 626 623
f 619 623 627
f 628 624 625
f 626 628 625
f 629 630 624
f 631 624 630
f 628 629 624
f 627 624 631
f 632 36 630
f 631 630 36
f 629 632 630
f 633 36 38
f 632 47 36
f 631 36 633
f 634 38 37
f 633 38 634
f 635 44 47
f 636 45 44
f 635 636 44
f 635 47 632
f 637 632 629
f 637 635 632
f 637 629 628
f 638 628 626
f 638 637 628
f 638 626 622
f 639 622 617
f 639 638 622
f 639 617 595
f 640 595 596
f 641 639 595
f 642 641 595
f 640 642 595
f 597 640 596
f 643 644 567
f 563 567 644
f 645 643 567
f 646 645 567
f 647 646 567
f 648 647 567
f 566 648 567
f 568 567 563
f 649 650 644
f 564 644 650
f 651 649 644
f 652 651 644
f 653 652 644
f 643 653 644
f 564 563 644
f 654 650 649
f 655 564 650
f 654 655 650
f 656 649 651
f 656 654 649
f 656 651 652
f 657 652 653
f 657 656 652
f 658 653 643
f 659 653 658
f 657 653 659
f 660 643 645
f 658 643 660
f 660 645 646
f 647 661 646
f 662 646 661
f 660 646 662
f 647 663 661
f 664 661 663
f 662 661 664
f 647 665 663
f 666 663 665
f 667 663 666
f 664 663 667
f 647 668 665
f 666 665 668
f 669 668 647
f 669 666 668
f 670 647 648
f 669 647 671
f 672 671 647
f 670 672 647
f 673 648 674
f 566 674 648
f 670 648 673
f 566 673 674
f 566 447 673
f 446 673 447
f 670 673 675
f 446 675 673
f 571 676 339
f 677 339 676
f 338 339 677
f 571 678 676
f 679 676 678
f 677 676 679
f 680 681 678
f 679 678 681
f 571 680 678
f 682 683 681
f 684 681 683
f 685 682 681
f 686 685 681
f 687 686 681
f 688 687 681
f 689 688 681
f 680 689 681
f 679 681 684
f 690 683 682
f 691 683 690
f 684 683 691
f 692 682 685
f 690 682 692
f 692 685 686
f 693 686 687
f 693 692 686
f 694 687 688
f 695 693 687
f 695 687 694
f 696 688 689
f 694 688 696
f 680 697 689
f 696 689 697
f 698 699 697
f 700 697 699
f 680 698 697
f 696 697 700
f 701 702 699
f 703 699 702
f 698 701 699
f 700 699 703
f 701 704 702
f 705 702 704
f 706 702 705
f 703 702 706
f 701 707 704
f 705 704 707
f 708 707 701
f 705 707 708
f 580 701 698
f 709 710 701
f 708 701 710
f 580 709 701
f 574 698 680
f 582 580 698
f 574 582 698
f 579 680 571
f 579 574 680
f 570 579 571
f 711 208 210
f 207 208 111
f 712 111 208
f 713 208 711
f 713 712 208
f 711 210 209
f 714 209 211
f 711 209 714
f 714 211 212
f 714 212 213
f 714 213 214
f 715 214 174
f 714 214 715
f 715 174 175
f 716 348 354
f 716 351 348
f 716 354 353
f 716 353 356
f 716 356 359
f 717 359 361
f 716 359 717
f 717 361 363
f 718 363 366
f 718 717 363
f 367 366 368
f 719 366 367
f 718 366 719
f 720 175 93
f 720 715 175
f 721 93 91
f 721 720 93
f 722 91 96
f 722 721 91
f 723 442 351
f 724 445 442
f 724 442 723
f 725 351 716
f 725 723 351
f 726 96 99
f 726 722 96
f 727 99 98
f 728 726 99
f 727 728 99
f 729 98 101
f 729 727 98
f 730 101 104
f 731 729 101
f 730 731 101
f 732 104 107
f 730 104 732
f 733 107 111
f 734 107 733
f 734 732 107
f 735 469 470
f 735 367 469
f 736 470 471
f 736 735 470
f 737 471 472
f 738 736 471
f 737 738 471
f 739 472 473
f 737 472 739
f 740 473 445
f 740 739 473
f 741 740 445
f 724 741 445
f 742 733 111
f 743 742 111
f 744 743 111
f 712 744 111
f 735 719 367
f 745 710 709
f 708 710 745
f 583 709 580
f 745 709 583
f 581 580 582
f 655 565 564
f 561 565 655
f 561 562 565
f 654 746 655
f 747 655 746
f 747 561 655
f 656 746 654
f 748 746 656
f 748 747 746
f 749 182 176
f 590 182 749
f 750 176 183
f 749 176 750
f 751 183 184
f 752 183 751
f 750 183 752
f 753 184 185
f 751 184 753
f 754 185 186
f 753 185 754
f 755 186 187
f 754 186 755
f 756 187 188
f 755 187 756
f 756 188 189
f 757 189 190
f 756 189 757
f 758 190 193
f 757 190 758
f 759 193 196
f 758 193 759
f 760 196 199
f 759 196 760
f 761 199 201
f 760 199 761
f 762 201 200
f 761 201 762
f 763 200 202
f 762 200 763
f 764 202 203
f 763 202 764
f 765 203 204
f 764 203 765
f 766 204 205
f 765 204 766
f 767 205 206
f 768 205 767
f 766 205 768
f 769 206 87
f 767 206 769
f 769 87 53
f 770 53 56
f 769 53 770
f 39 56 55
f 770 56 39
f 771 55 389
f 39 55 771
f 772 389 390
f 771 389 772
f 773 390 391
f 772 390 773
f 774 391 392
f 773 391 774
f 775 392 393
f 776 392 775
f 774 392 776
f 777 393 394
f 775 393 777
f 778 394 395
f 777 394 778
f 779 395 397
f 778 395 779
f 780 397 396
f 779 397 780
f 781 396 401
f 780 396 781
f 782 401 400
f 781 401 782
f 783 400 404
f 782 400 783
f 784 404 407
f 783 404 784
f 785 407 409
f 784 407 785
f 786 409 412
f 785 409 786
f 786 412 415
f 787 415 417
f 786 415 787
f 788 417 422
f 787 417 788
f 789 422 425
f 788 422 789
f 790 425 547
f 789 425 790
f 791 547 549
f 790 547 791
f 559 561 747
f 745 583 585
f 656 792 666
f 667 666 792
f 748 656 666
f 549 748 666
f 791 549 666
f 669 791 666
f 657 792 656
f 793 667 792
f 659 658 792
f 794 792 658
f 657 659 792
f 795 793 792
f 796 795 792
f 794 796 792
f 559 747 748
f 559 748 549
f 551 549 548
f 550 549 551
f 797 549 550
f 798 559 549
f 799 549 797
f 800 798 549
f 799 800 549
f 671 790 791
f 669 671 791
f 801 789 790
f 671 801 790
f 802 788 789
f 801 802 789
f 803 787 788
f 802 803 788
f 804 786 787
f 803 804 787
f 805 785 786
f 804 805 786
f 806 784 785
f 805 806 785
f 807 783 784
f 806 807 784
f 808 782 783
f 807 808 783
f 809 781 782
f 810 809 782
f 808 810 782
f 779 780 781
f 809 779 781
f 809 778 779
f 811 777 778
f 812 811 778
f 809 812 778
f 813 775 777
f 811 813 777
f 814 776 775
f 813 814 775
f 815 774 776
f 814 815 776
f 816 773 774
f 815 816 774
f 817 772 773
f 816 817 773
f 818 771 772
f 817 818 772
f 37 39 771
f 634 37 771
f 818 634 771
f 45 770 39
f 819 769 770
f 45 819 770
f 820 767 769
f 819 820 769
f 821 768 767
f 820 821 767
f 822 766 768
f 821 822 768
f 823 765 766
f 822 823 766
f 824 764 765
f 823 824 765
f 825 763 764
f 824 825 764
f 826 762 763
f 827 826 763
f 825 827 763
f 759 761 762
f 828 759 762
f 826 828 762
f 759 760 761
f 829 758 759
f 828 829 759
f 830 757 758
f 829 830 758
f 831 756 757
f 830 831 757
f 832 755 756
f 831 832 756
f 833 754 755
f 832 833 755
f 834 753 754
f 833 834 754
f 835 751 753
f 834 835 753
f 836 752 751
f 835 836 751
f 690 750 752
f 691 690 752
f 836 691 752
f 837 749 750
f 692 837 750
f 690 692 750
f 590 749 837
f 705 585 837
f 590 837 585
f 692 705 837
f 705 745 585
f 587 585 584
f 586 585 587
f 838 585 586
f 839 590 585
f 840 585 838
f 841 839 585
f 840 841 585
f 705 708 745
f 692 842 705
f 706 705 842
f 693 842 692
f 695 842 693
f 843 706 842
f 695 694 842
f 844 842 694
f 845 843 842
f 846 845 842
f 844 846 842
f 847 691 836
f 847 684 691
f 848 836 835
f 849 847 836
f 848 849 836
f 850 835 834
f 850 848 835
f 851 834 833
f 851 850 834
f 852 833 832
f 852 851 833
f 853 832 831
f 853 852 832
f 854 831 830
f 854 853 831
f 715 830 829
f 715 854 830
f 714 829 828
f 714 715 829
f 711 828 826
f 711 714 828
f 855 826 827
f 855 711 826
f 856 827 825
f 856 855 827
f 857 825 824
f 857 856 825
f 858 824 823
f 858 857 824
f 859 823 822
f 860 858 823
f 859 860 823
f 861 822 821
f 862 859 822
f 861 862 822
f 863 821 820
f 863 861 821
f 864 820 819
f 864 863 820
f 636 819 45
f 636 864 819
f 865 634 818
f 865 633 634
f 866 818 817
f 866 865 818
f 867 817 816
f 867 866 817
f 868 816 815
f 868 867 816
f 869 815 814
f 870 868 815
f 869 870 815
f 871 814 813
f 872 869 814
f 871 872 814
f 873 813 811
f 873 871 813
f 874 811 812
f 874 873 811
f 875 812 809
f 875 874 812
f 717 809 810
f 717 875 809
f 716 810 808
f 716 717 810
f 876 808 807
f 876 716 808
f 877 807 806
f 877 876 807
f 878 806 805
f 878 877 806
f 879 805 804
f 879 878 805
f 880 804 803
f 880 879 804
f 881 803 802
f 881 880 803
f 882 802 801
f 882 881 802
f 672 801 671
f 883 882 801
f 672 883 801
f 631 633 865
f 631 865 866
f 884 866 867
f 631 866 884
f 885 867 868
f 884 867 885
f 885 868 870
f 886 870 869
f 885 870 886
f 886 869 872
f 887 872 871
f 886 872 887
f 888 871 873
f 887 871 888
f 888 873 874
f 889 874 875
f 889 888 874
f 890 875 717
f 891 889 875
f 892 891 875
f 893 892 875
f 890 893 875
f 894 890 717
f 718 894 717
f 725 716 876
f 895 876 877
f 725 876 895
f 896 877 878
f 895 877 896
f 896 878 879
f 897 879 880
f 896 879 897
f 898 880 881
f 897 880 898
f 899 881 882
f 898 881 899
f 899 882 883
f 670 883 672
f 899 883 670
f 679 684 847
f 679 847 849
f 900 849 848
f 900 679 849
f 901 848 850
f 901 900 848
f 902 850 851
f 902 901 850
f 902 851 852
f 903 852 853
f 903 902 852
f 904 853 854
f 904 903 853
f 720 854 715
f 720 904 854
f 905 711 855
f 905 713 711
f 733 855 856
f 906 855 733
f 906 907 855
f 908 855 907
f 908 905 855
f 909 856 857
f 909 733 856
f 910 857 858
f 910 909 857
f 910 858 860
f 911 860 859
f 911 910 860
f 911 859 862
f 912 862 861
f 912 911 862
f 913 861 863
f 913 912 861
f 913 863 864
f 635 864 636
f 635 913 864
f 914 550 554
f 914 797 550
f 915 554 557
f 916 914 554
f 917 916 554
f 915 917 554
f 798 557 559
f 798 915 557
f 918 586 588
f 918 838 586
f 919 588 589
f 920 918 588
f 921 920 588
f 919 921 588
f 839 589 590
f 839 919 589
f 922 797 914
f 793 799 797
f 793 797 922
f 923 914 916
f 923 922 914
f 924 916 917
f 923 916 924
f 925 917 915
f 924 917 925
f 794 915 798
f 925 915 794
f 796 798 800
f 794 798 796
f 795 800 799
f 796 800 795
f 795 799 793
f 926 838 918
f 843 840 838
f 843 838 926
f 927 918 920
f 927 926 918
f 928 920 921
f 927 920 928
f 929 921 919
f 928 921 929
f 844 919 839
f 929 919 844
f 846 839 841
f 844 839 846
f 845 841 840
f 846 841 845
f 845 840 843
f 793 664 667
f 922 662 664
f 793 922 664
f 924 660 662
f 923 662 922
f 923 924 662
f 794 658 660
f 925 794 660
f 924 925 660
f 843 703 706
f 926 700 703
f 843 926 703
f 927 696 700
f 927 700 926
f 844 694 696
f 929 844 696
f 928 929 696
f 927 928 696
f 930 931 932
f 933 932 931
f 934 930 932
f 935 932 933
f 936 932 935
f 937 934 932
f 936 937 932
f 938 939 931
f 940 931 939
f 941 938 931
f 930 941 931
f 942 943 931
f 944 931 943
f 940 942 931
f 944 933 931
f 945 946 939
f 947 939 946
f 938 945 939
f 947 940 939
f 948 949 946
f 950 946 949
f 945 948 946
f 951 947 946
f 950 951 946
f 952 953 949
f 954 949 953
f 948 952 949
f 954 950 949
f 955 956 953
f 957 953 956
f 952 955 953
f 957 954 953
f 958 959 956
f 960 956 959
f 955 958 956
f 960 957 956
f 961 962 959
f 963 959 962
f 958 961 959
f 963 960 959
f 964 965 962
f 966 962 965
f 961 964 962
f 966 963 962
f 967 607 965
f 968 965 607
f 964 967 965
f 968 966 965
f 967 604 607
f 969 968 607
f 609 969 607
f 598 604 967
f 598 601 604
f 598 967 964
f 938 964 961
f 598 964 938
f 945 961 958
f 938 961 945
f 948 958 955
f 945 958 948
f 948 955 952
f 598 938 941
f 970 941 930
f 971 941 970
f 598 941 971
f 972 930 934
f 970 930 972
f 944 943 942
f 944 942 940
f 973 940 947
f 933 940 973
f 944 940 933
f 973 947 951
f 974 951 950
f 973 951 974
f 975 950 954
f 974 950 975
f 976 954 957
f 975 954 976
f 977 957 960
f 976 957 977
f 977 960 963
f 978 963 966
f 977 963 978
f 979 966 968
f 978 966 979
f 980 968 969
f 979 968 980
f 611 969 609
f 980 969 611
f 981 733 909
f 981 734 733
f 982 906 733
f 983 982 733
f 742 983 733
f 984 909 910
f 984 981 909
f 985 910 911
f 985 984 910
f 986 911 912
f 986 985 911
f 987 912 913
f 987 986 912
f 637 913 635
f 637 987 913
f 677 679 900
f 988 900 901
f 988 677 900
f 989 901 902
f 989 988 901
f 990 902 903
f 990 989 902
f 991 903 904
f 991 990 903
f 992 904 720
f 992 991 904
f 721 992 720
f 336 677 988
f 336 338 677
f 343 988 989
f 337 336 988
f 343 337 988
f 993 989 990
f 341 989 993
f 343 989 341
f 994 990 991
f 993 990 994
f 995 991 992
f 994 991 995
f 996 992 721
f 995 992 996
f 997 721 732
f 998 732 721
f 996 721 999
f 997 999 721
f 1000 998 721
f 1001 1000 721
f 722 1001 721
f 1002 732 734
f 1003 997 732
f 1004 1003 732
f 1002 1004 732
f 1005 732 998
f 1006 730 732
f 1007 1006 732
f 1008 1007 732
f 1005 1008 732
f 1009 734 981
f 1009 1002 734
f 1010 981 984
f 1010 1009 981
f 1011 984 985
f 1011 1010 984
f 1012 985 986
f 1012 1011 985
f 1013 986 987
f 1013 1012 986
f 1014 987 637
f 1014 1013 987
f 638 1014 637
f 318 307 317
f 320 1015 307
f 304 307 1015
f 318 320 307
f 1016 1017 1015
f 1018 1015 1017
f 320 1016 1015
f 1019 301 1015
f 304 1015 301
f 1020 1019 1015
f 1018 1020 1015
f 1021 1022 1017
f 1023 1017 1022
f 1024 1021 1017
f 1025 1024 1017
f 1026 1025 1017
f 1016 1026 1017
f 1027 1018 1017
f 1028 1027 1017
f 1023 1028 1017
f 1021 1029 1022
f 1030 1022 1029
f 1031 1023 1022
f 1031 1022 1030
f 1032 1029 1021
f 1033 1030 1029
f 1032 1033 1029
f 1034 1021 1024
f 1035 1021 1034
f 1036 1021 1035
f 1032 1021 1036
f 1037 1024 1025
f 1034 1024 1037
f 1026 1038 1025
f 1039 1025 1038
f 1040 1025 1039
f 1037 1025 1040
f 1041 1042 1038
f 1043 1038 1042
f 1026 1041 1038
f 1039 1038 1043
f 1041 1044 1042
f 1045 1042 1044
f 1043 1042 1045
f 1046 1044 1041
f 1045 1044 1047
f 1046 1047 1044
f 1048 1041 1026
f 1048 1049 1041
f 1046 1041 1049
f 1050 1026 1016
f 1050 1048 1026
f 333 1016 320
f 333 1050 1016
f 333 320 332
f 1048 1051 1049
f 1046 1049 1051
f 996 1051 1048
f 996 1052 1051
f 1046 1051 1052
f 995 1048 1050
f 995 996 1048
f 333 335 1050
f 994 1050 335
f 994 995 1050
f 344 994 335
f 303 301 1019
f 525 1019 1020
f 525 303 1019
f 1053 1020 1018
f 1053 525 1020
f 1053 1018 1027
f 1054 1027 1028
f 1054 1053 1027
f 1031 1028 1023
f 1031 1054 1028
f 996 999 1052
f 1046 1052 999
f 1046 999 997
f 344 993 994
f 342 341 993
f 344 342 993
f 1055 997 1003
f 1056 997 1055
f 1057 997 1056
f 1058 997 1057
f 1046 997 1058
f 1055 1003 1004
f 1002 1059 1004
f 1060 1004 1059
f 1061 1004 1060
f 1062 1004 1061
f 1063 1004 1062
f 1055 1004 1063
f 1064 1059 1002
f 1064 1060 1059
f 1065 1002 1009
f 1065 1064 1002
f 1066 1009 1010
f 1066 1065 1009
f 1067 1010 1011
f 1067 1066 1010
f 1068 1011 1012
f 1068 1067 1011
f 1069 1012 1013
f 1069 1068 1012
f 1070 1013 1014
f 1070 1069 1013
f 1071 1014 638
f 1071 1070 1014
f 639 1071 638
f 1072 1060 1064
f 1062 1061 1060
f 1072 1062 1060
f 1073 1064 1065
f 1073 1072 1064
f 1074 1065 1066
f 1074 1073 1065
f 1075 1066 1067
f 1075 1074 1066
f 1076 1067 1068
f 1076 1075 1067
f 1077 1068 1069
f 1077 1076 1068
f 1078 1069 1070
f 1078 1077 1069
f 1079 1070 1071
f 1079 1078 1070
f 1080 1071 639
f 1080 1079 1071
f 1081 1080 639
f 641 1081 639
f 1082 1062 1072
f 1082 1063 1062
f 1083 1072 1073
f 1084 1082 1072
f 1085 1084 1072
f 1086 1085 1072
f 1083 1086 1072
f 1087 1073 1074
f 1087 1083 1073
f 1088 1074 1075
f 1088 1087 1074
f 1089 1075 1076
f 1089 1088 1075
f 1090 1076 1077
f 1090 1089 1076
f 1091 1077 1078
f 1091 1090 1077
f 1092 1078 1079
f 1092 1091 1078
f 1093 1079 1080
f 1093 1092 1079
f 1086 1080 1081
f 1093 1080 1086
f 1086 1081 641
f 1086 641 642
f 1094 642 640
f 1094 1086 642
f 1094 640 597
f 1055 1063 1082
f 1095 1082 1084
f 1096 1082 1095
f 1055 1082 1096
f 1097 1084 1085
f 1095 1084 1097
f 1098 1085 1086
f 1097 1085 1098
f 1091 1086 1083
f 1092 1086 1091
f 1093 1086 1092
f 1094 1098 1086
f 1090 1083 1087
f 1091 1083 1090
f 1089 1087 1088
f 1090 1087 1089
f 1099 998 1000
f 1100 1005 998
f 1100 998 1099
f 1101 1000 1001
f 1101 1099 1000
f 1102 1001 722
f 1101 1001 1102
f 1103 722 726
f 1102 722 1103
f 1104 726 728
f 1103 726 1104
f 1104 728 727
f 1105 727 729
f 1104 727 1105
f 1106 729 731
f 1105 729 1106
f 1107 731 730
f 1106 731 1107
f 1107 730 1006
f 1108 1006 1007
f 1107 1006 1108
f 1108 1007 1008
f 1100 1008 1005
f 1108 1008 1100
f 906 1109 907
f 1110 907 1109
f 1111 1109 906
f 1112 1110 1109
f 1113 1112 1109
f 1111 1113 1109
f 1110 908 907
f 1111 906 982
f 1111 982 983
f 1114 983 742
f 1115 983 1114
f 1115 1111 983
f 1116 1117 742
f 1114 742 1117
f 743 1116 742
f 1114 1117 1116
f 1114 1116 743
f 712 743 744
f 1118 743 712
f 1119 1114 743
f 1120 1119 743
f 1120 743 1118
f 713 1121 712
f 1118 712 1121
f 1118 1121 713
f 908 713 905
f 1122 713 908
f 1118 713 1122
f 1112 908 1110
f 1122 908 1112
f 1123 615 1124
f 973 1124 615
f 1125 615 1123
f 1126 615 1125
f 1127 615 1126
f 614 615 1127
f 1128 973 615
f 1129 1128 615
f 616 1129 615
f 1130 1124 1131
f 974 1131 1124
f 1123 1124 1130
f 973 974 1124
f 1132 1131 1133
f 975 1133 1131
f 1130 1131 1132
f 974 975 1131
f 976 1132 1133
f 975 976 1133
f 977 1130 1132
f 976 977 1132
f 978 1123 1130
f 977 978 1130
f 979 1125 1123
f 978 979 1123
f 980 1126 1125
f 979 980 1125
f 611 1127 1126
f 980 611 1126
f 611 610 1127
f 614 1127 610
f 935 933 973
f 1134 935 973
f 1128 1134 973
f 936 935 1134
f 1135 1134 1128
f 1136 1134 1135
f 936 1134 1136
f 1137 1128 1129
f 1135 1128 1137
f 1138 888 719
f 1139 719 888
f 735 1138 719
f 1140 718 719
f 1141 1140 719
f 1142 1141 719
f 1143 1142 719
f 1144 1143 719
f 1139 1144 719
f 1145 887 888
f 1138 1145 888
f 1146 888 889
f 1146 1139 888
f 1147 886 887
f 1145 1147 887
f 1148 885 886
f 1147 1148 886
f 1149 884 885
f 1148 1149 885
f 627 631 884
f 1149 627 884
f 1150 627 1149
f 1150 619 627
f 1151 1149 1148
f 1151 1150 1149
f 1152 1148 1147
f 1152 1151 1148
f 1153 1147 1145
f 1153 1152 1147
f 1154 1145 1138
f 1154 1153 1145
f 1155 1138 735
f 1155 1154 1138
f 1156 735 1157
f 1158 1157 735
f 1156 1155 735
f 1159 1158 735
f 736 1159 735
f 1160 1157 723
f 1161 723 1157
f 1160 1156 1157
f 1162 1161 1157
f 1163 1162 1157
f 1164 1163 1157
f 1158 1164 1157
f 725 1165 723
f 1166 723 1165
f 1167 1160 723
f 1168 1167 723
f 1169 1168 723
f 1166 1169 723
f 1170 724 723
f 1161 1170 723
f 895 1171 1165
f 1172 1165 1171
f 725 895 1165
f 1172 1166 1165
f 896 1173 1171
f 1174 1171 1173
f 895 896 1171
f 1174 1172 1171
f 897 1175 1173
f 1176 1173 1175
f 896 897 1173
f 1176 1174 1173
f 898 1177 1175
f 546 1175 1177
f 897 898 1175
f 546 1176 1175
f 899 675 1177
f 542 1177 675
f 898 899 1177
f 543 1177 542
f 544 546 1177
f 543 544 1177
f 899 670 675
f 446 542 675
f 523 525 1053
f 523 522 525
f 1178 1053 1054
f 533 523 1053
f 1178 533 1053
f 1031 1030 1054
f 1179 1054 1030
f 1180 1178 1054
f 1179 1180 1054
f 1181 1179 1030
f 1033 1181 1030
f 535 533 1178
f 1182 1178 1180
f 537 535 1178
f 541 537 1178
f 1182 541 1178
f 1183 1184 1180
f 1185 1180 1184
f 1186 1183 1180
f 1187 1186 1180
f 1188 1187 1180
f 1179 1188 1180
f 1185 1182 1180
f 1168 1184 1183
f 1189 1185 1184
f 1168 1189 1184
f 1190 1183 1186
f 1190 1168 1183
f 1191 1186 1187
f 1192 1186 1191
f 1193 1186 1192
f 1190 1186 1193
f 1194 1187 1188
f 1191 1187 1194
f 1195 1188 1179
f 1194 1188 1195
f 1196 1179 1181
f 1197 1179 1196
f 1195 1179 1197
f 1198 1181 1033
f 1196 1181 1198
f 1198 1033 1199
f 1200 1199 1033
f 1200 1033 1032
f 1174 541 1182
f 540 541 1174
f 1172 1182 1185
f 1174 1182 1172
f 1189 1201 1185
f 1166 1185 1201
f 1172 1185 1166
f 1168 1201 1189
f 1169 1201 1168
f 1202 1201 1169
f 1202 1166 1201
f 1203 619 1150
f 620 619 1203
f 1204 1150 1151
f 1203 1150 1204
f 1205 1151 1152
f 1204 1151 1205
f 1206 1152 1153
f 1205 1152 1206
f 1207 1153 1154
f 1206 1153 1207
f 1208 1154 1155
f 1207 1154 1208
f 1209 1155 1156
f 1208 1155 1209
f 1160 1210 1156
f 1211 1156 1210
f 1209 1156 1211
f 1212 1210 1160
f 1213 1211 1210
f 1212 1213 1210
f 1168 1160 1167
f 1214 1160 1168
f 1215 1212 1160
f 1215 1160 1214
f 1216 1214 1168
f 1216 1168 1190
f 1202 1169 1166
f 540 1174 1176
f 545 1176 546
f 539 1176 545
f 539 540 1176
f 1217 613 621
f 616 613 1217
f 620 1218 621
f 1219 621 1218
f 1217 621 1219
f 620 1220 1218
f 1219 1218 1220
f 1203 1221 1220
f 1219 1220 1221
f 620 1203 1220
f 1203 1222 1221
f 1223 1221 1222
f 1219 1221 1223
f 1204 1224 1222
f 1225 1222 1224
f 1203 1204 1222
f 1225 1223 1222
f 1205 1226 1224
f 1227 1224 1226
f 1204 1205 1224
f 1227 1225 1224
f 1207 1228 1226
f 1229 1226 1228
f 1206 1207 1226
f 1205 1206 1226
f 1229 1227 1226
f 1208 1230 1228
f 1231 1228 1230
f 1207 1208 1228
f 1232 1229 1228
f 1231 1232 1228
f 1209 1233 1230
f 1234 1230 1233
f 1208 1209 1230
f 1234 1231 1230
f 1211 1235 1233
f 1236 1233 1235
f 1209 1211 1233
f 1236 1234 1233
f 1237 1238 1235
f 1239 1235 1238
f 1240 1237 1235
f 1211 1240 1235
f 1241 1236 1235
f 1239 1241 1235
f 1212 1238 1237
f 1242 1239 1238
f 1243 1242 1238
f 1212 1243 1238
f 1212 1237 1240
f 1213 1240 1211
f 1212 1240 1213
f 1219 1223 1225
f 1241 1225 1227
f 1219 1225 1241
f 1236 1227 1229
f 1241 1227 1236
f 1234 1229 1232
f 1236 1229 1234
f 1234 1232 1231
f 1219 1241 1239
f 1244 1239 1242
f 1245 1239 1244
f 1219 1239 1245
f 1246 1242 1243
f 1247 1242 1246
f 1244 1242 1247
f 1212 1246 1243
f 1248 739 740
f 1249 737 739
f 1249 739 1248
f 1250 740 741
f 1248 740 1250
f 1251 741 724
f 1250 741 1251
f 1252 724 1170
f 1251 724 1252
f 1253 1170 1161
f 1252 1170 1253
f 1253 1161 1162
f 1254 1162 1163
f 1253 1162 1254
f 1255 1163 1164
f 1255 1254 1163
f 1255 1164 1158
f 1256 1158 1159
f 1255 1158 1256
f 1256 1159 736
f 1257 736 738
f 1256 736 1257
f 1249 738 737
f 1257 738 1249
f 504 889 891
f 503 1146 889
f 1258 889 504
f 503 889 1258
f 1259 1260 891
f 504 891 1260
f 892 1259 891
f 504 1260 1259
f 504 1259 892
f 890 892 893
f 1261 892 890
f 515 892 1261
f 515 591 892
f 504 892 591
f 1261 890 894
f 1261 894 718
f 1141 718 1140
f 244 718 1141
f 243 1261 718
f 243 718 244
f 244 1141 1142
f 244 1142 1143
f 1139 1143 1144
f 503 1143 1139
f 479 244 1143
f 503 479 1143
f 503 1139 1146
f 1098 1262 1263
f 1264 1263 1262
f 1039 1263 1265
f 1266 1265 1263
f 1039 1043 1263
f 1098 1263 1043
f 1266 1263 1264
f 1267 1268 1262
f 1269 1262 1268
f 1098 1267 1262
f 1269 1264 1262
f 971 1270 1268
f 1271 1268 1270
f 1267 971 1268
f 1269 1268 1271
f 971 1272 1270
f 1273 1270 1272
f 1271 1270 1273
f 1037 1274 1272
f 1275 1272 1274
f 970 1037 1272
f 971 970 1272
f 1273 1272 1275
f 1040 1276 1274
f 1277 1274 1276
f 1037 1040 1274
f 1275 1274 1277
f 1039 1265 1276
f 1278 1276 1265
f 1040 1039 1276
f 1277 1276 1278
f 1278 1265 1266
f 1129 1279 1280
f 1281 1280 1279
f 1197 1280 1282
f 1283 1282 1280
f 1197 1196 1280
f 1129 1280 1196
f 1283 1280 1281
f 1284 1285 1279
f 1286 1279 1285
f 1129 1284 1279
f 1286 1281 1279
f 1245 1287 1285
f 1288 1285 1287
f 1284 1245 1285
f 1286 1285 1288
f 1245 1289 1287
f 1290 1287 1289
f 1288 1287 1290
f 1194 1291 1289
f 1292 1289 1291
f 1244 1194 1289
f 1245 1244 1289
f 1290 1289 1292
f 1195 1293 1291
f 1294 1291 1293
f 1194 1195 1291
f 1292 1291 1294
f 1197 1282 1293
f 1295 1293 1282
f 1195 1197 1293
f 1294 1293 1295
f 1295 1282 1283
f 1096 1047 1296
f 1057 1296 1047
f 1055 1096 1296
f 1056 1055 1296
f 1057 1056 1296
f 1095 1045 1047
f 1096 1095 1047
f 1058 1057 1047
f 1046 1058 1047
f 1097 1043 1045
f 1095 1097 1045
f 1097 1098 1043
f 970 1034 1037
f 972 1035 1034
f 970 972 1034
f 934 1036 1035
f 972 934 1035
f 934 1297 1036
f 1032 1036 1297
f 1298 1297 934
f 1299 1297 1298
f 1299 1032 1297
f 1300 934 937
f 1300 1298 934
f 598 971 1267
f 597 1267 1098
f 597 598 1267
f 1094 597 1098
f 1136 1199 1301
f 1302 1301 1199
f 936 1136 1301
f 1303 936 1301
f 1302 1303 1301
f 1135 1198 1199
f 1136 1135 1199
f 1304 1302 1199
f 1200 1304 1199
f 1137 1196 1198
f 1135 1137 1198
f 1137 1129 1196
f 1244 1191 1194
f 1247 1192 1191
f 1244 1247 1191
f 1246 1193 1192
f 1247 1246 1192
f 1246 1305 1193
f 1190 1193 1305
f 1214 1305 1246
f 1216 1305 1214
f 1216 1190 1305
f 1215 1246 1212
f 1215 1214 1246
f 1219 1245 1284
f 1217 1284 1129
f 1217 1219 1284
f 616 1217 1129
f 1306 1307 1308
f 248 1308 1307
f 1309 1306 1308
f 1310 1309 1308
f 247 1310 1308
f 247 1308 248
f 1306 1311 1307
f 239 1307 1311
f 238 1307 239
f 248 1307 238
f 242 1312 243
f 1313 1314 1311
f 236 1311 1314
f 1306 1313 1311
f 239 1311 236
f 1313 1315 1314
f 234 1314 1315
f 236 1314 234
f 1313 1316 1315
f 231 1315 1316
f 234 1315 231
f 1317 1318 1316
f 231 1316 1318
f 1313 1317 1316
f 1317 1319 1318
f 228 1318 1319
f 231 1318 228
f 1320 1321 1319
f 228 1319 1321
f 1317 1320 1319
f 1320 1322 1321
f 225 1321 1322
f 228 1321 225
f 1323 1324 1322
f 223 1322 1324
f 1320 1323 1322
f 225 1322 223
f 1323 1325 1324
f 223 1324 1325
f 1326 1325 1323
f 1326 1327 1325
f 218 1325 1327
f 218 223 1325
f 1326 1323 1320
f 1326 1320 1317
f 1278 1317 1313
f 1264 1326 1317
f 1266 1264 1317
f 1278 1266 1317
f 1277 1313 1306
f 1277 1278 1313
f 1328 1306 1309
f 1329 1306 1328
f 1275 1306 1329
f 1275 1277 1306
f 1328 1309 1310
f 1326 1330 1327
f 220 1327 1330
f 220 218 1327
f 1326 1331 1330
f 264 1330 1331
f 220 1330 264
f 1332 1333 1331
f 262 1331 1333
f 1326 1332 1331
f 264 1331 262
f 1332 1334 1333
f 262 1333 1334
f 1329 258 1334
f 257 1334 258
f 1332 1329 1334
f 262 1334 257
f 1329 255 258
f 1328 253 255
f 1329 1328 255
f 1328 1335 253
f 250 253 1335
f 1328 1310 1335
f 247 1335 1310
f 247 250 1335
f 1271 1329 1332
f 1273 1275 1329
f 1271 1273 1329
f 1269 1332 1326
f 1269 1271 1332
f 1269 1326 1264
f 936 1300 937
f 936 1298 1300
f 1302 1299 1298
f 1303 1298 936
f 1302 1298 1303
f 1302 1032 1299
f 1304 1032 1302
f 1200 1032 1304
f 1336 1337 1338
f 499 1338 1337
f 1339 1336 1338
f 1340 1339 1338
f 502 1340 1338
f 502 1338 499
f 1336 1341 1337
f 496 1337 1341
f 499 1337 496
f 503 1258 504
f 1336 1342 1341
f 496 1341 1342
f 1343 1344 1342
f 493 1342 1344
f 1336 1343 1342
f 496 1342 493
f 1343 1345 1344
f 493 1344 1345
f 1346 1347 1345
f 489 1345 1347
f 1343 1346 1345
f 493 1345 489
f 1346 1348 1347
f 486 1347 1348
f 489 1347 486
f 1349 1350 1348
f 486 1348 1350
f 1346 1349 1348
f 1349 1351 1350
f 483 1350 1351
f 486 1350 483
f 1352 1353 1351
f 481 1351 1353
f 1349 1352 1351
f 483 1351 481
f 1352 1354 1353
f 481 1353 1354
f 1355 1354 1352
f 1355 1356 1354
f 1357 1354 1356
f 1357 481 1354
f 1355 1352 1349
f 1355 1349 1346
f 1295 1346 1343
f 1281 1355 1346
f 1283 1281 1346
f 1295 1283 1346
f 1294 1343 1336
f 1294 1295 1343
f 1358 1336 1339
f 1359 1336 1358
f 1292 1336 1359
f 1292 1294 1336
f 1340 1360 1339
f 1358 1339 1360
f 1355 1361 1356
f 478 1356 1361
f 245 515 1362
f 478 1357 1356
f 1355 516 1361
f 518 1361 516
f 478 1361 518
f 1363 514 516
f 1355 1363 516
f 1359 1364 514
f 511 514 1364
f 1363 1359 514
f 1359 1365 1364
f 509 1364 1365
f 509 511 1364
f 1358 1366 1365
f 509 1365 1366
f 1359 1358 1365
f 1358 1360 1366
f 506 1366 1360
f 506 509 1366
f 502 1360 1340
f 502 506 1360
f 1288 1359 1363
f 1290 1292 1359
f 1288 1290 1359
f 1286 1363 1355
f 1286 1288 1363
f 1286 1355 1281
f 1357 475 481
f 478 475 1357
f 245 1362 242
f 515 1261 1362
f 242 1362 1312
f 243 1312 1261
f 1106 1100 1099
f 1367 1106 1099
f 1368 1099 1101
f 1369 1367 1099
f 1368 1369 1099
f 1107 1108 1100
f 1106 1107 1100
f 1370 1105 1106
f 1371 1106 1367
f 1371 1370 1106
f 1101 1104 1105
f 1372 1101 1105
f 1373 1372 1105
f 1370 1373 1105
f 1102 1103 1104
f 1101 1102 1104
f 1374 1368 1101
f 1372 1374 1101
f 1375 1367 1369
f 1376 1371 1367
f 1376 1367 1375
f 1377 1369 1368
f 1375 1369 1377
f 1378 1368 1374
f 1377 1368 1378
f 1379 1374 1372
f 1378 1374 1379
f 1380 1372 1373
f 1379 1372 1380
f 1381 1373 1370
f 1381 1380 1373
f 1382 1370 1371
f 1381 1370 1382
f 1382 1371 1376
f 1379 1380 1383
f 1381 1383 1380
f 1378 1379 1383
f 1377 1378 1383
f 1375 1377 1383
f 1376 1375 1383
f 1382 1376 1383
f 1381 1382 1383
f 1250 1253 1254
f 1384 1250 1254
f 1385 1254 1255
f 1386 1384 1254
f 1385 1386 1254
f 1251 1252 1253
f 1250 1251 1253
f 1387 1248 1250
f 1388 1387 1250
f 1384 1388 1250
f 1255 1249 1248
f 1389 1255 1248
f 1390 1389 1248
f 1387 1390 1248
f 1256 1257 1249
f 1255 1256 1249
f 1391 1255 1389
f 1391 1385 1255
f 1392 1389 1390
f 1393 1391 1389
f 1393 1389 1392
f 1394 1390 1387
f 1394 1392 1390
f 1395 1387 1388
f 1394 1387 1395
f 1396 1388 1384
f 1395 1388 1396
f 1397 1384 1386
f 1396 1384 1397
f 1398 1386 1385
f 1397 1386 1398
f 1399 1385 1391
f 1398 1385 1399
f 1399 1391 1393
f 1393 1392 1400
f 1394 1400 1392
f 1399 1393 1400
f 1398 1399 1400
f 1397 1398 1400
f 1396 1397 1400
f 1395 1396 1400
f 1394 1395 1400
f 1401 1112 1402
f 1113 1402 1112
f 1120 1401 1402
f 1114 1402 1113
f 1119 1402 1114
f 1120 1402 1119
f 1403 1122 1112
f 1401 1403 1112
f 1404 1122 1403
f 1118 1122 1404
f 1405 1403 1401
f 1404 1403 1405
f 1120 1405 1401
f 1111 1114 1113
f 1115 1114 1111
f 1118 1404 1405
f 1120 1118 1405
f 1261 1312 1362

