# https://github.com/mikedh/trimesh
v 0.00054700 0.04224002 0.41535500
v -0.00000700 0.04220104 0.41543600
v 0.00054700 0.04182404 0.41615900
v 0.00054700 0.04182404 0.41615900
v -0.00000700 0.04220104 0.41543600
v -0.00055400 0.04130607 0.41712999
v 0.00054700 0.04182404 0.41615900
v -0.00055400 0.04130607 0.41712999
v 0.00054800 0.04130607 0.41712999
v 0.00054800 0.04130607 0.41712999
v -0.00055400 0.04130607 0.41712999
v -0.00018700 0.04051107 0.41856501
v 0.00054800 0.04130607 0.41712999
v -0.00018700 0.04051107 0.41856501
v 0.00018000 0.04051202 0.41856501
v 0.00054700 0.04224002 0.41535500
v 0.00054700 0.04264807 0.41454700
v -0.00000700 0.04220104 0.41543600
v 0.00054700 0.04264807 0.41454700
v -0.00064200 0.04264706 0.41454601
v -0.00000700 0.04220104 0.41543600
v -0.00064200 0.04264706 0.41454601
v -0.00064200 0.04224002 0.41535500
v 0.00054700 0.04264807 0.41454700
v -0.00064200 0.04304504 0.41373301
v -0.00064200 0.04304504 0.41373301
v 0.00054700 0.04304605 0.41373301
v -0.00064200 0.04304504 0.41373301
v 0.00054700 0.04304605 0.41373301
v 0.00043100 0.04329806 0.41320691
v 0.00043100 0.04329806 0.41320691
v 0.00010000 0.04351007 0.41275999
v -0.00064200 0.04304504 0.41373301
v -0.00039500 0.04364806 0.41246000
v -0.00064200 0.04304504 0.41373301
v -0.00039500 0.04364806 0.41246000
v -0.00067600 0.04311603 0.41358501
v -0.00067600 0.04311603 0.41358501
v -0.00039500 0.04364806 0.41246000
v -0.00077700 0.04317802 0.41345501
v -0.00077700 0.04317802 0.41345501
v -0.00097800 0.04369103 0.41235399
v -0.00077700 0.04317802 0.41345501
v -0.00097800 0.04369103 0.41235399
v -0.00090500 0.04321402 0.41337401
v -0.00090500 0.04321402 0.41337401
v -0.00097800 0.04369103 0.41235399
v -0.00106800 0.04322803 0.41334090
v -0.00106800 0.04322803 0.41334090
v -0.00097800 0.04369103 0.41235399
v -0.00151998 0.04368305 0.41234991
v -0.00106800 0.04322803 0.41334090
v -0.00151998 0.04368305 0.41234991
v -0.00160998 0.04321902 0.41333801
v -0.00160998 0.04321902 0.41333801
v -0.00206196 0.04367202 0.41234601
v -0.00160998 0.04321902 0.41333801
v -0.00206196 0.04367202 0.41234601
v -0.00215197 0.04320704 0.41333291
v -0.00215197 0.04320704 0.41333291
v -0.00206196 0.04367202 0.41234601
v -0.00260395 0.04365706 0.41233990
v -0.00215197 0.04320704 0.41333291
v -0.00260395 0.04365706 0.41233990
v -0.00269496 0.04319107 0.41332701
v -0.00269496 0.04319107 0.41332701
v -0.00260395 0.04365706 0.41233990
v -0.00282198 0.04364407 0.41235101
v -0.00269496 0.04319107 0.41332701
v -0.00282198 0.04364407 0.41235101
v -0.00295597 0.04314106 0.41341099
v -0.00295597 0.04314106 0.41341099
v -0.00282198 0.04364407 0.41235101
v -0.00355500 0.04348307 0.41262701
v -0.00295597 0.04314106 0.41341099
v -0.00355500 0.04348307 0.41262701
v -0.00305295 0.04308903 0.41350901
v -0.00305295 0.04308903 0.41350901
v -0.00355500 0.04348307 0.41262701
v -0.00310296 0.04303902 0.41360900
v -0.00310296 0.04303902 0.41360900
v -0.00355500 0.04348307 0.41262701
v -0.00311798 0.04299002 0.41370910
v -0.00311798 0.04299002 0.41370910
v -0.00355500 0.04348307 0.41262701
v -0.00402796 0.04318803 0.41319999
v -0.00311798 0.04299002 0.41370910
v -0.00402796 0.04318803 0.41319999
v -0.00410497 0.04306805 0.41344300
v -0.00413096 0.04261004 0.41437900
v -0.00311798 0.04265505 0.41439301
v -0.00410497 0.04306805 0.41344300
v -0.00311798 0.04265505 0.41439301
v -0.00311798 0.04299002 0.41370910
v -0.00311798 0.04265505 0.41439301
v -0.00413096 0.04261004 0.41437900
v -0.00311798 0.04231405 0.41507399
v -0.00311798 0.04231405 0.41507399
v -0.00413096 0.04261004 0.41437900
v -0.00413096 0.04226803 0.41506010
v -0.00311798 0.04231405 0.41507399
v -0.00413096 0.04226803 0.41506010
v -0.00311798 0.04196602 0.41575190
v -0.00311798 0.04196602 0.41575190
v -0.00413096 0.04191905 0.41573700
v -0.00311798 0.04196602 0.41575190
v -0.00413096 0.04191905 0.41573700
v -0.00368500 0.04143607 0.41670200
v -0.00368500 0.04143607 0.41670200
v -0.00413096 0.04191905 0.41573700
v -0.00400800 0.04164606 0.41627300
v -0.00368500 0.04143607 0.41670200
v -0.00324094 0.04130804 0.41698191
v -0.00311798 0.04196602 0.41575190
v -0.00311798 0.04196602 0.41575190
v -0.00324094 0.04130804 0.41698191
v -0.00308394 0.04189205 0.41589701
v -0.00308394 0.04189205 0.41589701
v -0.00324094 0.04130804 0.41698191
v -0.00297600 0.04182606 0.41603401
v -0.00297600 0.04182606 0.41603401
v -0.00324094 0.04130804 0.41698191
v -0.00260597 0.04126507 0.41711399
v -0.00297600 0.04182606 0.41603401
v -0.00260597 0.04126507 0.41711399
v -0.00284898 0.04179102 0.41611001
v -0.00284898 0.04179102 0.41611001
v -0.00260597 0.04126507 0.41711399
v -0.00269198 0.04178106 0.41614199
v -0.00269198 0.04178106 0.41614199
v -0.00260597 0.04126507 0.41711399
v -0.00192195 0.04128503 0.41712201
v -0.00269198 0.04178106 0.41614199
v -0.00192195 0.04128503 0.41712201
v -0.00200897 0.04180103 0.41615000
v -0.00200897 0.04180103 0.41615000
v -0.00192195 0.04128503 0.41712201
v -0.00132596 0.04181504 0.41615590
v -0.00132596 0.04181504 0.41615590
v -0.00192195 0.04128503 0.41712201
v -0.00123799 0.04129803 0.41712701
v -0.00132596 0.04181504 0.41615590
v -0.00123799 0.04129803 0.41712701
v -0.00064200 0.04182302 0.41615900
v -0.00064200 0.04182302 0.41615900
v -0.00123799 0.04129803 0.41712701
v -0.00055400 0.04130607 0.41712999
v -0.00064200 0.04182302 0.41615900
v -0.00055400 0.04130607 0.41712999
v -0.00000700 0.04220104 0.41543600
v -0.00055400 0.04130607 0.41712999
v -0.00055400 0.04104405 0.41760990
v -0.00018700 0.04051107 0.41856501
v -0.00018700 0.04051107 0.41856501
v -0.00055400 0.04104405 0.41760990
v -0.00055400 0.04077804 0.41808799
v -0.00018700 0.04051107 0.41856501
v -0.00055400 0.04077804 0.41808799
v -0.00055400 0.04051005 0.41856399
v 0.00054700 0.04051005 0.41856399
v 0.00054700 0.04077804 0.41808799
v 0.00018000 0.04051202 0.41856501
v 0.00018000 0.04051202 0.41856501
v 0.00054700 0.04077804 0.41808799
v 0.00054700 0.04104405 0.41760990
v 0.00018000 0.04051202 0.41856501
v 0.00054700 0.04104405 0.41760990
v 0.00054800 0.04130607 0.41712999
v 0.00259894 0.04126507 0.41711399
v 0.00191396 0.04180306 0.41615090
v 0.00054800 0.04130607 0.41712999
v 0.00191396 0.04180306 0.41615090
v 0.00123096 0.04181605 0.41615590
v 0.00054800 0.04130607 0.41712999
v 0.00123096 0.04181605 0.41615590
v 0.00054700 0.04182404 0.41615900
v 0.00318295 0.04130005 0.41700301
v 0.00287294 0.04182302 0.41604790
v 0.00259894 0.04126507 0.41711399
v 0.00259894 0.04126507 0.41711399
v 0.00287294 0.04182302 0.41604790
v 0.00268298 0.04178506 0.41613400
v 0.00259894 0.04126507 0.41711399
v 0.00268298 0.04178506 0.41613400
v 0.00259697 0.04178404 0.41614300
v 0.00367796 0.04143607 0.41670200
v 0.00301600 0.04193407 0.41582391
v 0.00318295 0.04130005 0.41700301
v 0.00318295 0.04130005 0.41700301
v 0.00301600 0.04193407 0.41582391
v 0.00299495 0.04189902 0.41589200
v 0.00318295 0.04130005 0.41700301
v 0.00299495 0.04189902 0.41589200
v 0.00287294 0.04182302 0.41604790
v 0.00400895 0.04165405 0.41625699
v 0.00412398 0.04192006 0.41573700
v 0.00367796 0.04143607 0.41670200
v 0.00367796 0.04143607 0.41670200
v 0.00412398 0.04192006 0.41573700
v 0.00302297 0.04197007 0.41575301
v 0.00367796 0.04143607 0.41670200
v 0.00302297 0.04197007 0.41575301
v 0.00301600 0.04193407 0.41582391
v 0.00412398 0.04192006 0.41573700
v 0.00412398 0.04249703 0.41460600
v 0.00302297 0.04197007 0.41575301
v 0.00302297 0.04197007 0.41575301
v 0.00412398 0.04249703 0.41460600
v 0.00302297 0.04254502 0.41462201
v 0.00302297 0.04254502 0.41462201
v 0.00412398 0.04249703 0.41460600
v 0.00412398 0.04305607 0.41346499
v 0.00302297 0.04254502 0.41462201
v 0.00412398 0.04305607 0.41346499
v 0.00302297 0.04310303 0.41348299
v 0.00302297 0.04310303 0.41348299
v 0.00412398 0.04305607 0.41346499
v 0.00375700 0.04361402 0.41232210
v 0.00302297 0.04310303 0.41348299
v 0.00375700 0.04361402 0.41232210
v 0.00338995 0.04362905 0.41232899
v 0.00412398 0.04359704 0.41231501
v 0.00375700 0.04361402 0.41232210
v 0.00338995 0.04362905 0.41232899
v 0.00302297 0.04364305 0.41233400
v 0.00302297 0.04310303 0.41348299
v 0.00259697 0.04178404 0.41614300
v 0.00191396 0.04180306 0.41615090
v 0.00259894 0.04126507 0.41711399
v -0.00064200 0.04224002 0.41535500
v -0.00064200 0.04182302 0.41615900
v -0.00000700 0.04220104 0.41543600
f 1 2 3
f 4 5 6
f 7 8 9
f 10 11 12
f 13 14 15
f 16 17 18
f 5 19 20
f 21 22 23
f 22 24 25
f 26 24 27
f 28 29 30
f 31 32 26
f 33 32 34
f 35 36 37
f 38 39 40
f 41 34 42
f 43 44 45
f 46 47 48
f 49 50 51
f 52 53 54
f 55 51 56
f 57 58 59
f 60 61 62
f 63 64 65
f 66 67 68
f 69 70 71
f 72 73 74
f 75 76 77
f 78 79 80
f 81 82 83
f 84 85 86
f 87 88 89
f 89 90 91
f 92 93 94
f 95 96 97
f 98 99 100
f 101 102 103
f 104 102 105
f 106 107 108
f 109 110 111
f 112 113 114
f 115 116 117
f 118 119 120
f 121 122 123
f 124 125 126
f 127 128 129
f 130 131 132
f 133 134 135
f 136 137 138
f 139 140 141
f 142 143 144
f 145 146 147
f 148 149 150
f 151 152 153
f 154 155 156
f 157 158 159
f 160 161 162
f 163 164 165
f 166 167 168
f 169 170 13
f 171 172 173
f 174 175 176
f 177 178 179
f 180 181 182
f 183 184 185
f 186 187 188
f 189 190 191
f 192 193 194
f 195 196 197
f 198 199 200
f 201 202 203
f 204 205 206
f 207 208 209
f 210 211 212
f 213 214 215
f 216 217 218
f 219 220 221
f 217 222 223
f 224 225 226
f 227 228 229
f 230 231 232

