# https://github.com/mikedh/trimesh
v 0.00054700 0.04224002 0.02335500
v -0.00000700 0.04220104 0.02343606
v 0.00054700 0.04182404 0.02415895
v 0.00054700 0.04182404 0.02415895
v -0.00000700 0.04220104 0.02343606
v -0.00055400 0.04130607 0.02513003
v 0.00054700 0.04182404 0.02415895
v -0.00055400 0.04130607 0.02513003
v 0.00054800 0.04130607 0.02513003
v 0.00054800 0.04130607 0.02513003
v -0.00055400 0.04130607 0.02513003
v -0.00018700 0.04051107 0.02656495
v 0.00054800 0.04130607 0.02513003
v -0.00018700 0.04051107 0.02656495
v 0.00018000 0.04051202 0.02656495
v 0.00054700 0.04224002 0.02335500
v 0.00054700 0.04264807 0.02254605
v -0.00000700 0.04220104 0.02343606
v -0.00000700 0.04220104 0.02343606
v 0.00054700 0.04264807 0.02254605
v -0.00064200 0.04264706 0.02254605
v -0.00000700 0.04220104 0.02343606
v -0.00064200 0.04264706 0.02254605
v -0.00064200 0.04224002 0.02335500
v -0.00064200 0.04264706 0.02254605
v 0.00054700 0.04264807 0.02254605
v -0.00064200 0.04304504 0.02173304
v -0.00064200 0.04304504 0.02173304
v 0.00054700 0.04304605 0.02173304
v -0.00064200 0.04304504 0.02173304
v 0.00054700 0.04304605 0.02173304
v 0.00043100 0.04329806 0.02120697
v 0.00043100 0.04329806 0.02120697
v 0.00010000 0.04351007 0.02076005
v -0.00064200 0.04304504 0.02173304
v -0.00064200 0.04304504 0.02173304
v 0.00010000 0.04351007 0.02076005
v -0.00039500 0.04364806 0.02046000
v -0.00064200 0.04304504 0.02173304
v -0.00039500 0.04364806 0.02046000
v -0.00067600 0.04311603 0.02158498
v -0.00067600 0.04311603 0.02158498
v -0.00039500 0.04364806 0.02046000
v -0.00077700 0.04317808 0.02145504
v -0.00077700 0.04317808 0.02145504
v -0.00039500 0.04364806 0.02046000
v -0.00097800 0.04369103 0.02035403
v -0.00077700 0.04317808 0.02145504
v -0.00097800 0.04369103 0.02035403
v -0.00090500 0.04321402 0.02137398
v -0.00097800 0.04369103 0.02035403
v -0.00106800 0.04322803 0.02134096
v -0.00106800 0.04322803 0.02134096
v -0.00097800 0.04369103 0.02035403
v -0.00151998 0.04368305 0.02034997
v -0.00106800 0.04322803 0.02134096
v -0.00151998 0.04368305 0.02034997
v -0.00160998 0.04321902 0.02133798
v -0.00160998 0.04321902 0.02133798
v -0.00151998 0.04368305 0.02034997
v -0.00206196 0.04367202 0.02034604
v -0.00160998 0.04321902 0.02133798
v -0.00206196 0.04367202 0.02034604
v -0.00215197 0.04320704 0.02133297
v -0.00215197 0.04320704 0.02133297
v -0.00206196 0.04367202 0.02034604
v -0.00260395 0.04365706 0.02033996
v -0.00215197 0.04320704 0.02133297
v -0.00260395 0.04365706 0.02033996
v -0.00269496 0.04319107 0.02132701
v -0.00269496 0.04319107 0.02132701
v -0.00260395 0.04365706 0.02033996
v -0.00282198 0.04364407 0.02035105
v -0.00269496 0.04319107 0.02132701
v -0.00282198 0.04364407 0.02035105
v -0.00295597 0.04314106 0.02141106
v -0.00295597 0.04314106 0.02141106
v -0.00282198 0.04364407 0.02035105
v -0.00355500 0.04348307 0.02062702
v -0.00295597 0.04314106 0.02141106
v -0.00355500 0.04348307 0.02062702
v -0.00305295 0.04308903 0.02150905
v -0.00305295 0.04308903 0.02150905
v -0.00355500 0.04348307 0.02062702
v -0.00310296 0.04303902 0.02160906
v -0.00310296 0.04303902 0.02160906
v -0.00355500 0.04348307 0.02062702
v -0.00311798 0.04299002 0.02170896
v -0.00311798 0.04299002 0.02170896
v -0.00355500 0.04348307 0.02062702
v -0.00402796 0.04318803 0.02120006
v -0.00311798 0.04299002 0.02170896
v -0.00402796 0.04318803 0.02120006
v -0.00410497 0.04306805 0.02144300
v -0.00410497 0.04306805 0.02144300
v -0.00413096 0.04261004 0.02237904
v -0.00311798 0.04265505 0.02239298
v -0.00410497 0.04306805 0.02144300
v -0.00311798 0.04265505 0.02239298
v -0.00311798 0.04299002 0.02170896
v -0.00311798 0.04265505 0.02239298
v -0.00413096 0.04261004 0.02237904
v -0.00311798 0.04231405 0.02307403
v -0.00311798 0.04231405 0.02307403
v -0.00413096 0.04261004 0.02237904
v -0.00413096 0.04226803 0.02305996
v -0.00311798 0.04231405 0.02307403
v -0.00413096 0.04226803 0.02305996
v -0.00311798 0.04196608 0.02375197
v -0.00311798 0.04196608 0.02375197
v -0.00413096 0.04226803 0.02305996
v -0.00413096 0.04191905 0.02373707
v -0.00311798 0.04196608 0.02375197
v -0.00413096 0.04191905 0.02373707
v -0.00368500 0.04143607 0.02470207
v -0.00368500 0.04143607 0.02470207
v -0.00413096 0.04191905 0.02373707
v -0.00400800 0.04164606 0.02427303
v -0.00368500 0.04143607 0.02470207
v -0.00324094 0.04130804 0.02498197
v -0.00311798 0.04196608 0.02375197
v -0.00324094 0.04130804 0.02498197
v -0.00308394 0.04189205 0.02389705
v -0.00308394 0.04189205 0.02389705
v -0.00324094 0.04130804 0.02498197
v -0.00297600 0.04182606 0.02403402
v -0.00297600 0.04182606 0.02403402
v -0.00324094 0.04130804 0.02498197
v -0.00260597 0.04126507 0.02511405
v -0.00297600 0.04182606 0.02403402
v -0.00260597 0.04126507 0.02511405
v -0.00284898 0.04179108 0.02410995
v -0.00284898 0.04179108 0.02410995
v -0.00260597 0.04126507 0.02511405
v -0.00269198 0.04178106 0.02414202
v -0.00269198 0.04178106 0.02414202
v -0.00260597 0.04126507 0.02511405
v -0.00192195 0.04128503 0.02512204
v -0.00269198 0.04178106 0.02414202
v -0.00192195 0.04128503 0.02512204
v -0.00200897 0.04180103 0.02415001
v -0.00200897 0.04180103 0.02415001
v -0.00192195 0.04128503 0.02512204
v -0.00132596 0.04181504 0.02415597
v -0.00132596 0.04181504 0.02415597
v -0.00192195 0.04128503 0.02512204
v -0.00123799 0.04129803 0.02512705
v -0.00132596 0.04181504 0.02415597
v -0.00064200 0.04182302 0.02415895
v -0.00064200 0.04182302 0.02415895
v -0.00123799 0.04129803 0.02512705
v -0.00055400 0.04130607 0.02513003
v -0.00064200 0.04182302 0.02415895
v -0.00055400 0.04130607 0.02513003
v -0.00000700 0.04220104 0.02343606
v -0.00055400 0.04130607 0.02513003
v -0.00055400 0.04104405 0.02560997
v -0.00018700 0.04051107 0.02656495
v -0.00018700 0.04051107 0.02656495
v -0.00055400 0.04104405 0.02560997
v -0.00055400 0.04077804 0.02608799
v -0.00018700 0.04051107 0.02656495
v -0.00055400 0.04077804 0.02608799
v -0.00055400 0.04051005 0.02656400
v 0.00054700 0.04051005 0.02656400
v 0.00054700 0.04077804 0.02608799
v 0.00018000 0.04051202 0.02656495
v 0.00018000 0.04051202 0.02656495
v 0.00054700 0.04077804 0.02608799
v 0.00054700 0.04104405 0.02560997
v 0.00018000 0.04051202 0.02656495
v 0.00054700 0.04104405 0.02560997
v 0.00054800 0.04130607 0.02513003
v 0.00259894 0.04126507 0.02511405
v 0.00191396 0.04180306 0.02415096
v 0.00054800 0.04130607 0.02513003
v 0.00054800 0.04130607 0.02513003
v 0.00191396 0.04180306 0.02415096
v 0.00123096 0.04181605 0.02415597
v 0.00054800 0.04130607 0.02513003
v 0.00123096 0.04181605 0.02415597
v 0.00054700 0.04182404 0.02415895
v 0.00318295 0.04130005 0.02500295
v 0.00287294 0.04182302 0.02404797
v 0.00259894 0.04126507 0.02511405
v 0.00259894 0.04126507 0.02511405
v 0.00287294 0.04182302 0.02404797
v 0.00268298 0.04178506 0.02413403
v 0.00259894 0.04126507 0.02511405
v 0.00268298 0.04178506 0.02413403
v 0.00259697 0.04178404 0.02414298
v 0.00367796 0.04143607 0.02470207
v 0.00301600 0.04193407 0.02382397
v 0.00318295 0.04130005 0.02500295
v 0.00301600 0.04193407 0.02382397
v 0.00299495 0.04189902 0.02389204
v 0.00318295 0.04130005 0.02500295
v 0.00299495 0.04189902 0.02389204
v 0.00287294 0.04182302 0.02404797
v 0.00400895 0.04165405 0.02425706
v 0.00412398 0.04192006 0.02373707
v 0.00367796 0.04143607 0.02470207
v 0.00367796 0.04143607 0.02470207
v 0.00412398 0.04192006 0.02373707
v 0.00302297 0.04197007 0.02375304
v 0.00367796 0.04143607 0.02470207
v 0.00302297 0.04197007 0.02375304
v 0.00301600 0.04193407 0.02382397
v 0.00412398 0.04249703 0.02260601
v 0.00302297 0.04197007 0.02375304
v 0.00302297 0.04197007 0.02375304
v 0.00412398 0.04249703 0.02260601
v 0.00302297 0.04254508 0.02262198
v 0.00302297 0.04254508 0.02262198
v 0.00412398 0.04305607 0.02146506
v 0.00302297 0.04254508 0.02262198
v 0.00412398 0.04305607 0.02146506
v 0.00302297 0.04310303 0.02148306
v 0.00302297 0.04310303 0.02148306
v 0.00375700 0.04361402 0.02032196
v 0.00302297 0.04310303 0.02148306
v 0.00375700 0.04361402 0.02032196
v 0.00338995 0.04362905 0.02032899
v 0.00412398 0.04305607 0.02146506
v 0.00412398 0.04359704 0.02031505
v 0.00338995 0.04362905 0.02032899
v 0.00302297 0.04364305 0.02033400
v 0.00302297 0.04310303 0.02148306
v 0.00259697 0.04178404 0.02414298
v 0.00191396 0.04180306 0.02415096
v 0.00259894 0.04126507 0.02511405
v -0.00064200 0.04224002 0.02335500
v -0.00064200 0.04182302 0.02415895
v -0.00000700 0.04220104 0.02343606
f 1 2 3
f 4 5 6
f 7 8 9
f 10 11 12
f 13 14 15
f 16 17 18
f 19 20 21
f 22 23 24
f 25 26 27
f 28 26 29
f 30 31 32
f 33 34 35
f 36 37 38
f 39 40 41
f 42 43 44
f 45 46 47
f 48 49 50
f 50 51 52
f 53 54 55
f 56 57 58
f 59 60 61
f 62 63 64
f 65 66 67
f 68 69 70
f 71 72 73
f 74 75 76
f 77 78 79
f 80 81 82
f 83 84 85
f 86 87 88
f 89 90 91
f 92 93 94
f 95 96 97
f 98 99 100
f 101 102 103
f 104 105 106
f 107 108 109
f 110 111 112
f 113 114 115
f 116 117 118
f 119 120 110
f 121 122 123
f 124 125 126
f 127 128 129
f 130 131 132
f 133 134 135
f 136 137 138
f 139 140 141
f 142 143 144
f 145 146 147
f 148 147 149
f 150 151 152
f 153 154 155
f 156 157 158
f 159 160 161
f 162 163 164
f 165 166 167
f 168 169 170
f 171 172 173
f 174 175 176
f 177 178 179
f 180 181 182
f 183 184 185
f 186 187 188
f 189 190 191
f 192 193 183
f 194 195 196
f 197 198 199
f 200 201 202
f 203 204 205
f 206 207 208
f 204 209 210
f 211 212 213
f 214 209 215
f 216 217 218
f 219 215 220
f 221 222 223
f 224 225 220
f 226 227 228
f 229 230 231
f 232 233 234

