# https://github.com/mikedh/trimesh
v 0.00693470 0.20214377 0.05934989
v -0.00000000 0.20255016 0.05976130
v -0.00000000 0.20249727 0.06846116
v 0.01024520 0.20160101 0.06845572
v 0.01377326 0.20092991 0.05812125
v 0.02017915 0.19893925 0.06843954
v 0.02042090 0.19892570 0.05609248
v 0.02678543 0.19615877 0.05329172
v 0.02949994 0.19459292 0.06841312
v 0.03277862 0.19266750 0.04975775
v 0.03792446 0.18869425 0.06837726
v 0.03831738 0.18850026 0.04553957
v 0.04332500 0.18371503 0.04069570
v 0.04519659 0.18142219 0.06833305
v 0.04773199 0.17837787 0.03529326
v 0.05109548 0.17299783 0.06828184
v 0.05147725 0.17256284 0.02940713
v 0.05544185 0.16367722 0.06822518
v 0.05535328 0.16420630 0.02094841
v 0.05810362 0.15374349 0.06816480
v 0.05899995 0.14352572 0.06360257
v 0.05899995 0.14349838 0.06810252
v 0.05808115 0.15421867 0.01083858
v 0.05826210 0.13422111 0.06400622
v 0.05810362 0.13325326 0.06804024
v 0.05899995 0.14378832 0.02040335
v 0.05607163 0.12516391 0.06438605
v 0.05899995 0.14390990 0.00040377
v 0.05544185 0.12331954 0.06797986
v 0.05899995 0.14373541 0.00040271
v 0.05899971 0.14373487 0.00022964
v 0.05246782 0.11653460 0.06472681
v 0.05109548 0.11399891 0.06792320
v 0.04757118 0.10861690 0.06501540
v 0.04519659 0.10557457 0.06787199
v 0.04145097 0.10152903 0.06525133
v 0.03792446 0.09830260 0.06782778
v 0.03433525 0.09553363 0.06543370
v 0.02949994 0.09240381 0.06779192
v 0.02630525 0.09070151 0.06556936
v 0.02017915 0.08805753 0.06776550
v 0.01767724 0.08722261 0.06566110
v 0.01024520 0.08539581 0.06774932
v 0.00853002 0.08513173 0.06571385
v -0.00000000 0.08449949 0.06774388
v -0.00083779 0.08451764 0.06572901
v -0.01024520 0.08539581 0.06774932
v -0.01012682 0.08538742 0.06570765
v -0.01916795 0.08771270 0.06564854
v -0.02017915 0.08805753 0.06776550
v -0.02773785 0.09143980 0.06554929
v -0.02949994 0.09240381 0.06779192
v -0.03559201 0.09645858 0.06540646
v -0.03792446 0.09830260 0.06782778
v -0.04258352 0.10267847 0.06521445
v -0.04519659 0.10557457 0.06787199
v -0.04847604 0.10988539 0.06497101
v -0.05109548 0.11399891 0.06792320
v -0.05318593 0.11797945 0.06467175
v -0.05544185 0.12331954 0.06797986
v -0.05653792 0.12665512 0.06432490
v -0.05810362 0.13325326 0.06804024
v -0.05838137 0.13500212 0.06397228
v -0.05899995 0.14349838 0.06810252
v -0.05899995 0.14352572 0.06360257
v -0.05810362 0.15374349 0.06816480
v -0.05736982 0.15759923 0.01426047
v -0.05899995 0.14390990 0.00040377
v -0.05544185 0.16367722 0.06822518
v -0.05318582 0.16929369 0.02609804
v -0.05109548 0.17299783 0.06828184
v -0.04737544 0.17886040 0.03578174
v -0.04519659 0.18142219 0.06833305
v -0.03984463 0.18715790 0.04418074
v -0.03792446 0.18869425 0.06837726
v -0.03266948 0.19273975 0.04983091
v -0.02949994 0.19459292 0.06841312
v -0.02532702 0.19687229 0.05401401
v -0.02017915 0.19893925 0.06843954
v -0.01827144 0.19966735 0.05684325
v -0.01165896 0.20139375 0.05859083
v -0.01024520 0.20160101 0.06845572
v -0.00585842 0.20226036 0.05946796
v -0.00000000 0.20249727 0.06846116
v -0.00000000 0.20255016 0.05976130
v 0.00582391 0.07787795 0.05871532
v -0.00000000 0.07786720 0.05900338
v -0.00000000 0.07585253 0.05899113
v 0.01024520 0.07585797 0.05809481
v 0.01158469 0.07790945 0.05785509
v 0.02017915 0.07587416 0.05543304
v 0.02131438 0.07801653 0.05501964
v 0.02949994 0.07590058 0.05108675
v 0.03038990 0.07819099 0.05057644
v 0.03792446 0.07593643 0.04518802
v 0.03859108 0.07843757 0.04463531
v 0.04519659 0.07598064 0.03791597
v 0.04564166 0.07875875 0.03739605
v 0.05109548 0.07603185 0.02949167
v 0.05135947 0.07915669 0.02904866
v 0.05544185 0.07608851 0.02017104
v 0.05556160 0.07962555 0.01986036
v 0.05810362 0.07614889 0.01023729
v 0.05813443 0.08015180 0.01008519
v 0.05899995 0.07621117 -0.00000776
v 0.05899995 0.08071106 0.00001960
v 0.05810362 0.07627345 -0.01025279
v 0.05899971 0.14373487 0.00022964
v 0.05899995 0.14373541 0.00040271
v 0.05899971 0.14373489 0.00022663
v 0.05742973 0.13047104 -0.01319944
v 0.05544185 0.07633384 -0.02018656
v 0.05288082 0.11790424 -0.02591995
v 0.05109548 0.07639050 -0.02950719
v 0.04643183 0.10773025 -0.03621848
v 0.04519659 0.07644171 -0.03793149
v 0.03894895 0.09986333 -0.04418153
v 0.03792446 0.07648591 -0.04520354
v 0.03107112 0.09406012 -0.05005579
v 0.02949994 0.07652177 -0.05110227
v 0.02324050 0.09001069 -0.05415470
v 0.02017915 0.07654819 -0.05544856
v 0.01574295 0.08739572 -0.05680165
v 0.01024520 0.07656437 -0.05811033
v 0.00874698 0.08591766 -0.05829779
v 0.00162250 0.08529183 -0.05893127
v -0.00000000 0.07656982 -0.05900665
v -0.00552577 0.08552743 -0.05869285
v -0.01024520 0.07656437 -0.05811033
v -0.01259285 0.08662090 -0.05758594
v -0.02017915 0.07654819 -0.05544856
v -0.01947492 0.08855638 -0.05562685
v -0.02607083 0.09130522 -0.05284438
v -0.02949994 0.07652177 -0.05110227
v -0.03228354 0.09482712 -0.04927941
v -0.03792446 0.07648591 -0.04520354
v -0.03802186 0.09907033 -0.04498430
v -0.04320144 0.10397241 -0.04002218
v -0.04519659 0.07644171 -0.03793149
v -0.04774618 0.10946153 -0.03446604
v -0.05109548 0.07639050 -0.02950719
v -0.05158925 0.11545675 -0.02839743
v -0.05544185 0.07633384 -0.02018656
v -0.05552583 0.12408473 -0.01966394
v -0.05810362 0.07627345 -0.01025279
v -0.05899995 0.08071106 0.00001960
v -0.05899995 0.07621117 -0.00000776
v -0.05871260 0.08038896 0.00583376
v -0.05812495 0.13384813 -0.00978109
v -0.05810362 0.07614889 0.01023729
v -0.05785459 0.08006919 0.01158501
v -0.05544185 0.07608851 0.02017104
v -0.05899995 0.14390990 0.00040377
v -0.05502408 0.07954966 0.02130486
v -0.05109548 0.07603185 0.02949167
v -0.05058819 0.07909161 0.03037193
v -0.04519659 0.07598064 0.03791597
v -0.04465138 0.07870498 0.03857300
v -0.03792446 0.07593643 0.04518802
v -0.03741550 0.07839555 0.04562516
v -0.02949994 0.07590058 0.05108675
v -0.02906411 0.07816017 0.05134970
v -0.02017915 0.07587416 0.05543304
v -0.01986956 0.07799602 0.05555763
v -0.01024520 0.07585797 0.05809481
v -0.01008081 0.07789910 0.05813595
v -0.00000000 0.07585253 0.05899113
v -0.00000000 0.07786720 0.05900338
v 0.05899995 0.14390990 0.00040377
v 0.05899971 0.14373487 0.00022964
v 0.05899971 0.14373489 0.00022663
v -0.05873101 0.13762155 0.06328636
v -0.05899995 0.14352572 0.06360257
v -0.05899995 0.08071106 0.00001960
v -0.05833989 0.08108570 0.00925340
v -0.05797708 0.13205896 0.06300195
v -0.05654847 0.08139518 0.01764545
v -0.05543899 0.12242302 0.06255260
v -0.05358231 0.08164796 0.02581619
v -0.05190891 0.11428908 0.06222408
v -0.04905414 0.08184620 0.03415230
v -0.04785209 0.10763472 0.06199778
v -0.04423344 0.08195607 0.04056291
v -0.04365813 0.10234553 0.06184797
v -0.03836572 0.08202715 0.04644929
v -0.03764700 0.09650066 0.06170878
v -0.03160196 0.08206750 0.05152121
v -0.03059154 0.09140987 0.06160828
v -0.02404284 0.08208756 0.05562245
v -0.02292472 0.08745395 0.06154263
v -0.01648706 0.08209644 0.05841884
v -0.01510834 0.08476061 0.06150128
v -0.00718433 0.08209814 0.06034371
v -0.00569916 0.08305798 0.06147936
v 0.00109053 0.08209885 0.06077609
v 0.00309706 0.08286273 0.06147753
v 0.00945866 0.08209733 0.06001694
v 0.01215559 0.08405510 0.06149305
v 0.01829940 0.08209450 0.05785431
v 0.02066254 0.08654600 0.06152847
v 0.02606862 0.08208428 0.05466266
v 0.02843332 0.09014816 0.06158577
v 0.03364849 0.08205798 0.05014462
v 0.03581690 0.09502245 0.06167799
v 0.04019582 0.08200965 0.04478809
v 0.04296916 0.10158573 0.06182845
v 0.04553800 0.08193307 0.03900033
v 0.04755550 0.10721709 0.06198499
v 0.05033582 0.08180305 0.03209206
v 0.05093151 0.11249703 0.06215913
v 0.05402380 0.11876310 0.06239833
v 0.05466729 0.08157326 0.02322079
v 0.05658698 0.12604889 0.06271478
v 0.05712884 0.08131956 0.01546676
v 0.05834531 0.13433382 0.06311676
v 0.05850154 0.08103883 0.00805033
v 0.05899995 0.14352572 0.06360257
v 0.05850154 0.08103883 0.00805033
v 0.05899995 0.08071106 0.00001960
v 0.05899995 0.08071106 0.00001960
v 0.05813443 0.08015180 0.01008519
v 0.05712884 0.08131956 0.01546676
v 0.05556160 0.07962555 0.01986036
v 0.05466729 0.08157326 0.02322079
v 0.05033582 0.08180305 0.03209206
v 0.05135947 0.07915669 0.02904866
v 0.04564166 0.07875875 0.03739605
v 0.04553800 0.08193307 0.03900033
v 0.03364849 0.08205798 0.05014462
v 0.03859108 0.07843757 0.04463531
v 0.04019582 0.08200965 0.04478809
v 0.03038990 0.07819099 0.05057644
v -0.04905414 0.08184620 0.03415230
v -0.04465138 0.07870498 0.03857300
v -0.04423344 0.08195607 0.04056291
v -0.05058819 0.07909161 0.03037193
v -0.05358231 0.08164796 0.02581619
v -0.05785459 0.08006919 0.01158501
v -0.05502408 0.07954966 0.02130486
v -0.05654847 0.08139518 0.01764545
v -0.05833989 0.08108570 0.00925340
v -0.05871260 0.08038896 0.00583376
v 0.05465334 0.08054056 0.02248977
v 0.04216223 0.08036001 0.04167761
v 0.02327108 0.08021691 0.05467789
v 0.02606862 0.08208428 0.05466266
v 0.01829940 0.08209450 0.05785431
v -0.04110485 0.08034892 0.04273650
v -0.03741550 0.07839555 0.04562516
v -0.03836572 0.08202715 0.04644929
v -0.05407470 0.08052891 0.02387560
v -0.05898231 0.08070224 0.00148066
v -0.05899995 0.08071106 0.00001960
v -0.05899995 0.08071106 0.00001960
v 0.02810084 0.08024369 0.05233143
v 0.02131438 0.07801653 0.05501964
v 0.01970458 0.08020030 0.05607745
v 0.01483470 0.08018285 0.05757381
v 0.01158469 0.07790945 0.05785509
v 0.00945866 0.08209733 0.06001694
v 0.01046425 0.08017075 0.05853613
v 0.00756746 0.08016569 0.05898529
v 0.00582391 0.07787795 0.05871532
v 0.00347042 0.08016168 0.05937157
v 0.00073736 0.08016120 0.05946967
v -0.00000000 0.07786720 0.05900338
v 0.00109053 0.08209885 0.06077609
v 0.00053419 0.08016036 0.05947157
v -0.00353664 0.08016146 0.05936751
v -0.01008081 0.07789910 0.05813595
v -0.00718433 0.08209814 0.06034371
v -0.00859523 0.08016751 0.05884290
v -0.01316857 0.08017841 0.05798214
v -0.01986956 0.07799602 0.05555763
v -0.01648706 0.08209644 0.05841884
v -0.01808261 0.08019444 0.05662758
v -0.02187341 0.08021023 0.05525847
v -0.02404284 0.08208756 0.05562245
v -0.02645117 0.08023368 0.05319453
v -0.02906411 0.07816017 0.05134970
v -0.03160196 0.08206750 0.05152121
v -0.03015267 0.08025670 0.05116216
v -0.03439736 0.08028778 0.04837364
v 0.05834531 0.13433382 0.06311676
v 0.05899995 0.14352572 0.06360257
v 0.05899995 0.14352572 0.06360257
v 0.05826210 0.13422111 0.06400622
v 0.05658698 0.12604889 0.06271478
v 0.05607163 0.12516391 0.06438605
v 0.05093151 0.11249703 0.06215913
v 0.05402380 0.11876310 0.06239833
v 0.05246782 0.11653460 0.06472681
v 0.04757118 0.10861690 0.06501540
v 0.04755550 0.10721709 0.06198499
v 0.03581690 0.09502245 0.06167799
v 0.04296916 0.10158573 0.06182845
v 0.04145097 0.10152903 0.06525133
v 0.03433525 0.09553363 0.06543370
v -0.04785209 0.10763472 0.06199778
v -0.04365813 0.10234553 0.06184797
v -0.04258352 0.10267847 0.06521445
v -0.04847604 0.10988539 0.06497101
v -0.05190891 0.11428908 0.06222408
v -0.05318593 0.11797945 0.06467175
v -0.05797708 0.13205896 0.06300195
v -0.05543899 0.12242302 0.06255260
v -0.05653792 0.12665512 0.06432490
v -0.05838137 0.13500212 0.06397228
v -0.05873101 0.13762155 0.06328636
v 0.05465352 0.12105504 0.06349888
v 0.04216259 0.10186611 0.06344546
v 0.02327138 0.08886472 0.06343016
v 0.02843332 0.09014816 0.06158577
v 0.02630525 0.09070151 0.06556936
v 0.01767724 0.08722261 0.06566110
v -0.04110521 0.10080711 0.06344362
v -0.03764700 0.09650066 0.06170878
v -0.03559201 0.09645858 0.06540646
v -0.05407482 0.11966915 0.06349361
v -0.05898231 0.14206466 0.06359357
v -0.05899995 0.14352572 0.06360257
v -0.05899995 0.14352572 0.06360257
v 0.03128850 0.09307678 0.06343567
v 0.02719795 0.09073131 0.06343345
v 0.01903432 0.08723211 0.06343155
v 0.01487880 0.08598080 0.06343110
v 0.01215559 0.08405510 0.06149305
v 0.00853002 0.08513173 0.06571385
v 0.01025187 0.08496870 0.06343073
v 0.00581723 0.08435733 0.06343070
v 0.00073737 0.08407243 0.06342755
v 0.00309706 0.08286273 0.06147753
v -0.00083779 0.08451764 0.06572901
v -0.00322104 0.08415718 0.06343021
v -0.01012682 0.08538742 0.06570765
v -0.00789571 0.08460099 0.06343046
v -0.01250958 0.08541343 0.06343004
v -0.01510834 0.08476061 0.06150128
v -0.01916795 0.08771270 0.06564854
v -0.01705604 0.08659433 0.06343036
v -0.02292472 0.08745395 0.06154263
v -0.02090400 0.08790679 0.06343219
v -0.02187371 0.08828404 0.06342979
v -0.02523231 0.08975305 0.06343329
v -0.03059154 0.09140987 0.06160828
v -0.02773785 0.09143980 0.06554929
v -0.02898967 0.09170520 0.06343442
v -0.03296726 0.09417132 0.06343701
v 0.05899995 0.14378832 0.02040335
v 0.05899995 0.14352572 0.06360257
v 0.05899995 0.14373541 0.00040271
v -0.05899995 0.14390990 0.00040377
f 1 2 3
f 4 1 3
f 5 1 4
f 6 5 4
f 7 5 6
f 8 6 9
f 8 7 6
f 10 8 9
f 11 10 9
f 12 10 11
f 13 12 11
f 13 11 14
f 15 13 14
f 15 14 16
f 17 15 16
f 17 16 18
f 19 17 18
f 19 18 20
f 21 20 22
f 23 19 20
f 24 21 22
f 24 22 25
f 26 20 21
f 26 23 20
f 27 24 25
f 28 23 26
f 29 27 25
f 30 28 26
f 31 28 30
f 32 27 29
f 33 32 29
f 34 32 33
f 35 34 33
f 36 34 35
f 37 36 35
f 38 36 37
f 39 38 37
f 40 38 39
f 41 40 39
f 42 40 41
f 43 42 41
f 44 42 43
f 45 44 43
f 46 44 45
f 47 46 45
f 48 46 47
f 49 48 47
f 50 49 47
f 51 49 50
f 52 51 50
f 53 51 52
f 54 53 52
f 55 53 54
f 56 55 54
f 57 55 56
f 58 57 56
f 59 57 58
f 60 59 58
f 61 59 60
f 62 61 60
f 63 61 62
f 64 63 62
f 65 63 64
f 66 65 64
f 67 68 65
f 67 65 66
f 67 66 69
f 70 67 69
f 70 69 71
f 72 70 71
f 72 71 73
f 74 72 73
f 74 73 75
f 76 74 75
f 76 75 77
f 78 76 77
f 79 78 77
f 80 78 79
f 81 80 79
f 81 79 82
f 83 81 82
f 84 83 82
f 85 83 84
f 86 87 88
f 89 86 88
f 90 86 89
f 91 90 89
f 92 90 91
f 93 92 91
f 94 92 93
f 95 94 93
f 96 94 95
f 97 96 95
f 98 96 97
f 99 98 97
f 100 98 99
f 101 100 99
f 102 100 101
f 103 102 101
f 104 102 103
f 105 104 103
f 106 104 105
f 107 106 105
f 108 109 106
f 110 108 106
f 111 106 107
f 111 110 106
f 111 107 112
f 113 111 112
f 113 112 114
f 115 113 114
f 115 114 116
f 117 115 116
f 117 116 118
f 119 117 118
f 119 118 120
f 121 119 120
f 121 120 122
f 123 121 122
f 124 123 122
f 125 123 124
f 126 124 127
f 126 125 124
f 128 126 127
f 129 128 127
f 130 128 129
f 131 130 129
f 132 130 131
f 133 131 134
f 133 132 131
f 135 133 134
f 136 135 134
f 137 135 136
f 138 136 139
f 138 137 136
f 140 139 141
f 140 138 139
f 142 141 143
f 142 140 141
f 144 143 145
f 144 142 143
f 146 145 147
f 148 146 147
f 149 144 145
f 149 145 146
f 150 148 147
f 151 148 150
f 152 151 150
f 153 149 146
f 154 151 152
f 155 154 152
f 156 154 155
f 157 156 155
f 158 156 157
f 159 158 157
f 160 158 159
f 161 160 159
f 162 160 161
f 163 162 161
f 164 162 163
f 165 164 163
f 166 164 165
f 167 166 165
f 168 166 167
f 169 170 171
f 172 173 174
f 172 174 175
f 176 175 177
f 176 172 175
f 178 177 179
f 178 176 177
f 180 179 181
f 180 178 179
f 182 181 183
f 182 180 181
f 184 183 185
f 184 182 183
f 186 185 187
f 186 184 185
f 188 187 189
f 188 186 187
f 190 189 191
f 190 188 189
f 192 191 193
f 192 190 191
f 194 193 195
f 194 192 193
f 196 195 197
f 196 194 195
f 198 196 197
f 198 197 199
f 200 199 201
f 200 198 199
f 202 200 201
f 202 201 203
f 204 203 205
f 204 202 203
f 206 204 205
f 206 205 207
f 208 206 207
f 208 207 209
f 210 208 209
f 211 210 209
f 211 209 212
f 213 211 212
f 213 212 214
f 215 213 214
f 215 214 216
f 217 215 216
f 217 216 106
f 218 219 220
f 221 219 218
f 222 221 218
f 223 221 222
f 224 223 222
f 225 226 224
f 227 226 225
f 228 227 225
f 229 230 231
f 232 230 229
f 233 234 235
f 236 234 233
f 237 236 233
f 238 239 240
f 241 238 240
f 242 238 241
f 243 226 223
f 243 223 224
f 243 224 226
f 244 230 227
f 244 228 231
f 244 227 228
f 244 231 230
f 245 246 247
f 248 249 250
f 248 235 234
f 248 234 249
f 248 250 235
f 251 239 236
f 251 236 237
f 251 240 239
f 251 237 240
f 252 253 242
f 252 254 253
f 252 241 254
f 252 242 241
f 255 256 232
f 255 229 246
f 255 232 229
f 255 245 256
f 255 246 245
f 257 256 245
f 257 245 247
f 258 259 256
f 258 247 260
f 258 257 247
f 258 256 257
f 261 258 260
f 261 259 258
f 262 263 259
f 262 259 261
f 262 261 260
f 264 265 266
f 264 267 265
f 264 266 263
f 264 260 267
f 264 262 260
f 264 263 262
f 268 266 265
f 268 265 267
f 269 270 266
f 269 267 271
f 269 266 268
f 269 268 267
f 272 270 269
f 272 269 271
f 273 274 270
f 273 271 275
f 273 270 272
f 273 272 271
f 276 277 274
f 276 278 277
f 276 275 278
f 276 273 275
f 276 274 273
f 279 280 274
f 279 274 277
f 279 277 278
f 279 278 281
f 282 279 281
f 282 280 279
f 283 282 281
f 283 250 249
f 283 249 280
f 283 281 250
f 283 280 282
f 284 285 286
f 287 284 286
f 288 284 287
f 289 288 287
f 290 291 292
f 293 294 290
f 293 290 292
f 295 296 297
f 298 295 297
f 299 300 301
f 302 299 301
f 303 299 302
f 304 303 302
f 305 306 307
f 308 305 307
f 309 305 308
f 310 291 288
f 310 289 292
f 310 288 289
f 310 292 291
f 311 296 294
f 311 293 297
f 311 294 293
f 311 297 296
f 312 200 313
f 312 314 315
f 316 317 318
f 316 301 300
f 316 300 317
f 316 318 301
f 319 306 303
f 319 303 304
f 319 307 306
f 319 304 307
f 320 321 309
f 320 322 321
f 320 309 308
f 320 308 322
f 323 313 295
f 323 298 314
f 323 295 298
f 324 314 312
f 324 313 323
f 324 323 314
f 324 312 313
f 325 312 315
f 325 200 312
f 326 327 200
f 326 315 328
f 326 325 315
f 326 200 325
f 329 327 326
f 329 326 328
f 330 331 332
f 330 332 327
f 330 333 331
f 330 328 333
f 330 327 329
f 330 329 328
f 334 332 331
f 334 194 332
f 334 331 333
f 334 333 335
f 336 334 335
f 336 194 334
f 337 338 194
f 337 335 339
f 337 336 335
f 337 194 336
f 340 338 337
f 340 341 338
f 340 337 339
f 342 339 343
f 342 340 339
f 342 343 341
f 342 341 340
f 344 345 341
f 344 343 339
f 344 339 346
f 344 341 343
f 347 344 346
f 347 345 344
f 348 347 346
f 348 318 317
f 348 317 345
f 348 346 318
f 348 345 347
f 106 349 350
f 106 351 349
f 65 352 146

