# https://github.com/mikedh/trimesh
v -0.03616356 0.08457418 0.51607603
v -0.03672140 0.08453542 0.52245253
v -0.03671270 0.08503538 0.52245557
v -0.03615492 0.08507413 0.51608056
v -0.03449863 0.08511170 0.50989926
v -0.03450685 0.08461177 0.50989324
v -0.03179413 0.08514696 0.50409961
v -0.03180170 0.08464703 0.50409216
v -0.02813023 0.08467890 0.49884886
v -0.02812355 0.08517882 0.49885750
v -0.02360409 0.08470641 0.49432275
v -0.02359843 0.08520633 0.49433249
v -0.01835632 0.08522864 0.49066195
v -0.01836067 0.08472873 0.49065140
v -0.01255947 0.08474518 0.48794627
v -0.01255649 0.08524508 0.48795751
v -0.00637656 0.08475525 0.48628959
v -0.00637507 0.08525515 0.48630124
v -0.00000000 0.08475864 0.48573169
v -0.00000000 0.08525854 0.48574343
v 0.00637656 0.08475525 0.48628959
v 0.00637507 0.08525515 0.48630124
v 0.01255947 0.08474518 0.48794627
v 0.01255649 0.08524508 0.48795751
v 0.01836067 0.08472873 0.49065140
v 0.01835632 0.08522864 0.49066195
v 0.02360409 0.08470641 0.49432275
v 0.02359843 0.08520633 0.49433249
v 0.02813023 0.08467890 0.49884886
v 0.02812355 0.08517882 0.49885750
v 0.03180170 0.08464703 0.50409216
v 0.03179413 0.08514696 0.50409961
v 0.03450685 0.08461177 0.50989324
v 0.03449863 0.08511170 0.50989926
v 0.03616356 0.08457418 0.51607603
v 0.03615492 0.08507413 0.51608056
v 0.03672140 0.08453542 0.52245253
v 0.03671270 0.08503538 0.52245557
v 0.03616356 0.08449665 0.52882898
v 0.03615492 0.08499662 0.52883053
v 0.03450685 0.08445907 0.53501177
v 0.03449863 0.08495905 0.53501183
v 0.03179413 0.08492379 0.54081166
v 0.03180170 0.08442381 0.54081291
v 0.02812355 0.08489192 0.54605365
v 0.02813023 0.08439194 0.54605621
v 0.02360409 0.08436442 0.55058229
v 0.02359843 0.08486442 0.55057859
v 0.01835632 0.08484211 0.55424917
v 0.01836067 0.08434210 0.55425364
v 0.01255947 0.08432566 0.55695879
v 0.01255649 0.08482566 0.55695367
v 0.00637507 0.08481560 0.55860990
v 0.00637656 0.08431559 0.55861533
v -0.00000000 0.08481221 0.55916756
v -0.00000000 0.08431220 0.55917323
v -0.00637656 0.08431559 0.55861533
v -0.00637507 0.08481560 0.55860990
v -0.01255649 0.08482566 0.55695367
v -0.01255947 0.08432566 0.55695879
v -0.01836067 0.08434210 0.55425364
v -0.01835632 0.08484211 0.55424917
v -0.02360409 0.08436442 0.55058229
v -0.02359843 0.08486442 0.55057859
v -0.02813023 0.08439194 0.54605621
v -0.02812355 0.08489192 0.54605365
v -0.03180170 0.08442381 0.54081291
v -0.03179413 0.08492379 0.54081166
v -0.03450685 0.08445907 0.53501177
v -0.03449863 0.08495905 0.53501183
v -0.03616356 0.08449665 0.52882898
v -0.03615492 0.08499662 0.52883053
v -0.03540378 0.07857350 0.51617342
v -0.03589326 0.08503538 0.52245557
v -0.03595000 0.07853556 0.52241606
v -0.03534793 0.08507326 0.51622289
v -0.03378194 0.07861029 0.51012069
v -0.03372859 0.08511000 0.51017958
v -0.03113359 0.07864482 0.50444138
v -0.03108447 0.08514447 0.50450933
v -0.02753925 0.07867602 0.49930817
v -0.02749580 0.08517562 0.49938419
v -0.02310818 0.07870296 0.49487725
v -0.02307170 0.08520252 0.49496016
v -0.01797497 0.07872481 0.49128294
v -0.01794660 0.08522433 0.49137163
v -0.01229560 0.07874091 0.48863465
v -0.01227617 0.08524040 0.48872748
v -0.00624263 0.07875077 0.48701277
v -0.00623280 0.08525024 0.48710820
v -0.00000000 0.07875408 0.48646671
v -0.00000000 0.08525356 0.48656294
v 0.00624263 0.07875077 0.48701277
v 0.00623280 0.08525024 0.48710820
v 0.01229560 0.07874091 0.48863465
v 0.01227617 0.08524040 0.48872748
v 0.01797497 0.07872481 0.49128294
v 0.01794660 0.08522433 0.49137163
v 0.02310818 0.07870296 0.49487725
v 0.02307170 0.08520252 0.49496016
v 0.02749580 0.08517562 0.49938419
v 0.02753925 0.07867602 0.49930817
v 0.03108447 0.08514447 0.50450933
v 0.03113359 0.07864482 0.50444138
v 0.03378194 0.07861029 0.51012069
v 0.03372859 0.08511000 0.51017958
v 0.03534793 0.08507326 0.51622289
v 0.03540378 0.07857350 0.51617342
v 0.03594994 0.07853556 0.52241606
v 0.03589326 0.08503538 0.52245557
v 0.03540378 0.07849760 0.52865863
v 0.03534793 0.08499748 0.52868825
v 0.03378194 0.07846081 0.53471142
v 0.03372859 0.08496075 0.53473151
v 0.03108447 0.08492628 0.54040188
v 0.03113359 0.07842629 0.54039073
v 0.02753925 0.07839508 0.54552382
v 0.02749580 0.08489513 0.54552680
v 0.02310818 0.07836815 0.54995483
v 0.02307170 0.08486823 0.54995090
v 0.01797497 0.07834630 0.55354911
v 0.01794660 0.08484642 0.55353951
v 0.01227617 0.08483034 0.55618358
v 0.01229560 0.07833020 0.55619740
v 0.00624263 0.07832035 0.55781919
v 0.00623280 0.08482050 0.55780292
v -0.00000000 0.08481719 0.55834818
v -0.00000000 0.07831702 0.55836535
v -0.00624263 0.07832035 0.55781919
v -0.00623280 0.08482050 0.55780292
v -0.01229560 0.07833020 0.55619740
v -0.01227617 0.08483034 0.55618358
v -0.01794660 0.08484642 0.55353951
v -0.01797497 0.07834630 0.55354911
v -0.02310818 0.07836815 0.54995483
v -0.02307170 0.08486823 0.54995090
v -0.02753925 0.07839508 0.54552382
v -0.02749580 0.08489513 0.54552680
v -0.03113359 0.07842629 0.54039073
v -0.03108447 0.08492628 0.54040188
v -0.03378194 0.07846081 0.53471142
v -0.03372859 0.08496075 0.53473151
v -0.03540378 0.07849760 0.52865863
v -0.03534793 0.08499748 0.52868825
v -0.03595000 0.07853556 0.52241606
v -0.03589326 0.08503538 0.52245557
v 0.02310818 0.07870296 0.49487725
v 0.02506870 0.07871716 0.49254081
v 0.02987569 0.07868794 0.49734771
v 0.02753925 0.07867602 0.49930817
v 0.03113359 0.07864482 0.50444138
v 0.03377497 0.07865409 0.50291640
v 0.01797497 0.07872481 0.49128294
v 0.01333874 0.07875833 0.48576862
v 0.01949995 0.07874086 0.48864156
v 0.03378194 0.07861029 0.51012069
v 0.03664797 0.07861663 0.50907749
v 0.01229560 0.07874091 0.48863465
v 0.03540378 0.07857350 0.51617342
v 0.03840750 0.07857672 0.51564384
v 0.00624263 0.07875077 0.48701277
v 0.00677222 0.07876902 0.48400924
v -0.00000000 0.07877263 0.48341668
v 0.03594994 0.07853556 0.52241606
v 0.03899997 0.07853556 0.52241606
v -0.00000000 0.07875408 0.48646671
v 0.03840750 0.07849438 0.52918822
v 0.03540378 0.07849760 0.52865863
v -0.00624263 0.07875077 0.48701277
v -0.00677222 0.07876902 0.48400924
v 0.03664797 0.07845447 0.53575456
v 0.03378194 0.07846081 0.53471142
v -0.01229560 0.07874091 0.48863465
v -0.01333874 0.07875833 0.48576862
v 0.03113359 0.07842629 0.54039073
v 0.03377497 0.07841702 0.54191566
v -0.01797497 0.07872481 0.49128294
v -0.01949995 0.07874086 0.48864156
v 0.02753925 0.07839508 0.54552382
v 0.02987569 0.07838317 0.54748428
v -0.02310818 0.07870296 0.49487725
v -0.02506870 0.07871716 0.49254081
v -0.02753925 0.07867602 0.49930817
v 0.02506870 0.07835395 0.55229121
v 0.02310818 0.07836815 0.54995483
v -0.02987569 0.07868794 0.49734771
v 0.01797497 0.07834630 0.55354911
v 0.01949995 0.07833024 0.55619043
v -0.03377497 0.07865409 0.50291640
v -0.03113359 0.07864482 0.50444138
v 0.01229560 0.07833020 0.55619740
v -0.03378194 0.07861029 0.51012069
v 0.01333874 0.07831278 0.55906337
v -0.03664797 0.07861663 0.50907749
v 0.00677222 0.07830209 0.56082278
v 0.00624263 0.07832035 0.55781919
v -0.03840750 0.07857672 0.51564384
v -0.03540378 0.07857350 0.51617342
v -0.00000000 0.07829848 0.56141531
v -0.00000000 0.07831702 0.55836535
v -0.03899997 0.07853556 0.52241606
v -0.03595000 0.07853556 0.52241606
v -0.03540378 0.07849760 0.52865863
v -0.00677222 0.07830209 0.56082278
v -0.00624263 0.07832035 0.55781919
v -0.03840750 0.07849438 0.52918822
v -0.03378194 0.07846081 0.53471142
v -0.01333874 0.07831278 0.55906337
v -0.01229560 0.07833020 0.55619740
v -0.01797497 0.07834630 0.55354911
v -0.03664797 0.07845447 0.53575456
v -0.01949995 0.07833024 0.55619043
v -0.03377497 0.07841702 0.54191566
v -0.03113359 0.07842629 0.54039073
v -0.02506870 0.07835395 0.55229121
v -0.02310818 0.07836815 0.54995483
v -0.02987569 0.07838317 0.54748428
v -0.02753925 0.07839508 0.54552382
v -0.03840750 0.07857672 0.51564384
v -0.03899997 0.07853556 0.52241606
v -0.03899997 0.08003549 0.52242517
v -0.03840750 0.08007665 0.51565295
v -0.03664797 0.07861663 0.50907749
v -0.03664797 0.08011656 0.50908661
v -0.03377497 0.07865409 0.50291640
v -0.03377497 0.08015402 0.50292552
v -0.02987569 0.07868794 0.49734771
v -0.02987569 0.08018787 0.49735683
v -0.02506870 0.08021709 0.49254993
v -0.02506870 0.07871716 0.49254081
v -0.01949995 0.07874086 0.48864156
v -0.01949995 0.08024079 0.48865068
v -0.01333874 0.07875833 0.48576862
v -0.01333874 0.08025826 0.48577774
v -0.00677222 0.07876902 0.48400924
v -0.00677222 0.08026895 0.48401836
v -0.00000000 0.07877263 0.48341668
v -0.00000000 0.08027256 0.48342580
v 0.00677222 0.07876902 0.48400924
v 0.00677222 0.08026895 0.48401836
v 0.01333874 0.07875833 0.48576862
v 0.01333874 0.08025826 0.48577774
v 0.01949995 0.07874086 0.48864156
v 0.01949995 0.08024079 0.48865068
v 0.02506870 0.07871716 0.49254081
v 0.02506870 0.08021709 0.49254993
v 0.02987569 0.07868794 0.49734771
v 0.02987569 0.08018787 0.49735683
v 0.03377497 0.07865409 0.50291640
v 0.03377497 0.08015402 0.50292552
v 0.03664797 0.07861663 0.50907749
v 0.03664797 0.08011656 0.50908661
v 0.03840750 0.07857672 0.51564384
v 0.03840750 0.08007665 0.51565295
v 0.03899997 0.07853556 0.52241606
v 0.03899997 0.08003549 0.52242517
v 0.03840750 0.07849438 0.52918822
v 0.03840750 0.07999431 0.52919734
v 0.03664797 0.07845447 0.53575456
v 0.03664797 0.07995440 0.53576368
v 0.03377497 0.07841702 0.54191566
v 0.03377497 0.07991695 0.54192477
v 0.02987569 0.07838317 0.54748428
v 0.02987569 0.07988310 0.54749340
v 0.02506870 0.07835395 0.55229121
v 0.02506870 0.07985388 0.55230033
v 0.01949995 0.07833024 0.55619043
v 0.01949995 0.07983017 0.55619955
v 0.01333874 0.07831278 0.55906337
v 0.01333874 0.07981271 0.55907249
v 0.00677222 0.07830209 0.56082278
v 0.00677222 0.07980201 0.56083190
v -0.00000000 0.07829848 0.56141531
v -0.00000000 0.07979842 0.56142443
v -0.00677222 0.07830209 0.56082278
v -0.00677222 0.07980201 0.56083190
v -0.01333874 0.07831278 0.55906337
v -0.01333874 0.07981271 0.55907249
v -0.01949995 0.07833024 0.55619043
v -0.01949995 0.07983017 0.55619955
v -0.02506870 0.07835395 0.55229121
v -0.02506870 0.07985388 0.55230033
v -0.02987569 0.07838317 0.54748428
v -0.02987569 0.07988310 0.54749340
v -0.03377497 0.07841702 0.54191566
v -0.03377497 0.07991695 0.54192477
v -0.03664797 0.07845447 0.53575456
v -0.03664797 0.07995440 0.53576368
v -0.03840750 0.07849438 0.52918822
v -0.03840750 0.07999431 0.52919734
v -0.03899997 0.07853556 0.52241606
v -0.03899997 0.08003549 0.52242517
v 0.02753925 0.11792141 0.47415456
v 0.02987569 0.11596095 0.47414264
v 0.03377497 0.12152954 0.47417650
v 0.02310818 0.11349040 0.47412762
v 0.02506870 0.11115394 0.47411340
v 0.03113359 0.12305453 0.47418576
v 0.03377497 0.12152954 0.47417650
v 0.03664797 0.12769063 0.47421393
v 0.03113359 0.12305453 0.47418576
v 0.01797497 0.10989616 0.47410578
v 0.01949995 0.10725481 0.47408971
v 0.03378194 0.12873381 0.47422028
v 0.03664797 0.12769063 0.47421393
v 0.01229560 0.10724791 0.47408968
v 0.01333874 0.10438187 0.47407225
v 0.01229560 0.10724791 0.47408968
v 0.01949995 0.10725481 0.47408971
v 0.01797497 0.10989616 0.47410578
v 0.00677222 0.10262240 0.47406155
v 0.01333874 0.10438187 0.47407225
v 0.01229560 0.10724791 0.47408968
v 0.03540378 0.13478670 0.47425708
v 0.03840750 0.13425700 0.47425386
v 0.00624263 0.10562604 0.47407982
v 0.00677222 0.10262240 0.47406155
v 0.03899997 0.14102918 0.47429502
v 0.03594994 0.14102918 0.47429502
v -0.00000000 0.10507985 0.47407648
v -0.00000000 0.10202991 0.47405794
v 0.03540378 0.14727166 0.47433296
v 0.03840750 0.14780135 0.47433618
v -0.00624263 0.10562604 0.47407982
v -0.00677222 0.10262240 0.47406155
v 0.03664797 0.15436773 0.47437611
v 0.03540378 0.14727166 0.47433296
v 0.03840750 0.14780135 0.47433618
v 0.03378194 0.15332454 0.47436976
v 0.03664797 0.15436773 0.47437611
v -0.01229560 0.10724791 0.47408968
v -0.01333874 0.10438187 0.47407225
v -0.00677222 0.10262240 0.47406155
v -0.01229560 0.10724791 0.47408968
v 0.03113359 0.15900384 0.47440428
v 0.03377497 0.16052881 0.47441357
v 0.03113359 0.15900384 0.47440428
v -0.01797497 0.10989616 0.47410578
v -0.01949995 0.10725481 0.47408971
v -0.01333874 0.10438187 0.47407225
v -0.01797497 0.10989616 0.47410578
v -0.01333874 0.10438187 0.47407225
v -0.01229560 0.10724791 0.47408968
v -0.02506870 0.11115394 0.47411340
v -0.01949995 0.10725481 0.47408971
v 0.02753925 0.16413696 0.47443548
v 0.03377497 0.16052881 0.47441357
v 0.02987569 0.16609740 0.47444740
v -0.02310818 0.11349040 0.47412762
v -0.02506870 0.11115394 0.47411340
v 0.02506870 0.17090443 0.47447664
v 0.02310818 0.16856797 0.47446242
v -0.02987569 0.11596095 0.47414264
v -0.02753925 0.11792141 0.47415456
v 0.01797497 0.17216220 0.47448426
v -0.03113359 0.12305453 0.47418576
v 0.01949995 0.17480356 0.47450033
v 0.01797497 0.17216220 0.47448426
v 0.02506870 0.17090443 0.47447664
v -0.03377497 0.12152954 0.47417650
v -0.03378194 0.12873381 0.47422028
v 0.01333874 0.17767650 0.47451779
v 0.01229560 0.17481045 0.47450039
v 0.01333874 0.17767650 0.47451779
v 0.01797497 0.17216220 0.47448426
v 0.01949995 0.17480356 0.47450033
v -0.03664797 0.12769063 0.47421393
v -0.03540378 0.13478670 0.47425708
v 0.00677222 0.17943597 0.47452849
v 0.00624263 0.17643243 0.47451022
v 0.00677222 0.17943597 0.47452849
v 0.01229560 0.17481045 0.47450039
v -0.03840750 0.13425700 0.47425386
v -0.00000000 0.18002845 0.47453210
v -0.00000000 0.17697851 0.47451356
v -0.03899997 0.14102918 0.47429502
v -0.03595000 0.14102918 0.47429502
v -0.03840750 0.13425700 0.47425386
v -0.03540378 0.13478670 0.47425708
v -0.00677222 0.17943597 0.47452849
v -0.00624263 0.17643243 0.47451022
v -0.03840750 0.14780135 0.47433618
v -0.03540378 0.14727166 0.47433296
v -0.01333874 0.17767650 0.47451779
v -0.01229560 0.17481045 0.47450039
v -0.01797497 0.17216220 0.47448426
v -0.03664797 0.15436773 0.47437611
v -0.03378194 0.15332454 0.47436976
v -0.03664797 0.15436773 0.47437611
v -0.03840750 0.14780135 0.47433618
v -0.03540378 0.14727166 0.47433296
v -0.01949995 0.17480356 0.47450033
v -0.01797497 0.17216220 0.47448426
v -0.01333874 0.17767650 0.47451779
v -0.03377497 0.16052881 0.47441357
v -0.03113359 0.15900384 0.47440428
v -0.02506870 0.17090443 0.47447664
v -0.02310818 0.16856797 0.47446242
v -0.02506870 0.17090443 0.47447664
v -0.01797497 0.17216220 0.47448426
v -0.01949995 0.17480356 0.47450033
v -0.02987569 0.16609740 0.47444740
v -0.02753925 0.16413696 0.47443548
v -0.03840750 0.13425700 0.47425386
v -0.03899997 0.14102918 0.47429502
v -0.03899997 0.14103830 0.47279507
v -0.03840750 0.13426612 0.47275391
v -0.03664797 0.12769063 0.47421393
v -0.03664797 0.12769975 0.47271398
v -0.03377497 0.12152954 0.47417650
v -0.03377497 0.12153865 0.47267655
v -0.02987569 0.11596095 0.47414264
v -0.02987569 0.11597006 0.47264269
v -0.02506870 0.11115394 0.47411340
v -0.02506870 0.11116305 0.47261345
v -0.01949995 0.10726392 0.47258976
v -0.01949995 0.10725481 0.47408971
v -0.01333874 0.10438187 0.47407225
v -0.01333874 0.10439098 0.47257230
v -0.00677222 0.10262240 0.47406155
v -0.00677222 0.10263151 0.47256160
v -0.00000000 0.10202991 0.47405794
v -0.00000000 0.10203902 0.47255799
v 0.00677222 0.10262240 0.47406155
v 0.00677222 0.10263151 0.47256160
v 0.01333874 0.10438187 0.47407225
v 0.01333874 0.10439098 0.47257230
v 0.01949995 0.10726392 0.47258976
v 0.01949995 0.10725481 0.47408971
v 0.02506870 0.11115394 0.47411340
v 0.02506870 0.11116305 0.47261345
v 0.02987569 0.11596095 0.47414264
v 0.02987569 0.11597006 0.47264269
v 0.03377497 0.12152954 0.47417650
v 0.03377497 0.12153865 0.47267655
v 0.03664797 0.12769063 0.47421393
v 0.03664797 0.12769975 0.47271398
v 0.03840750 0.13425700 0.47425386
v 0.03840750 0.13426612 0.47275391
v 0.03899997 0.14102918 0.47429502
v 0.03899997 0.14103830 0.47279507
v 0.03840750 0.14780135 0.47433618
v 0.03840750 0.14781047 0.47283623
v 0.03664797 0.15436773 0.47437611
v 0.03664797 0.15437685 0.47287616
v 0.03377497 0.16052881 0.47441357
v 0.03377497 0.16053793 0.47291362
v 0.02987569 0.16609740 0.47444740
v 0.02987569 0.16610652 0.47294745
v 0.02506870 0.17090443 0.47447664
v 0.02506870 0.17091355 0.47297668
v 0.01949995 0.17480356 0.47450033
v 0.01949995 0.17481267 0.47300038
v 0.01333874 0.17767650 0.47451779
v 0.01333874 0.17768562 0.47301784
v 0.00677222 0.17943597 0.47452849
v 0.00677222 0.17944509 0.47302854
v -0.00000000 0.18002845 0.47453210
v -0.00000000 0.18003757 0.47303215
v -0.00677222 0.17943597 0.47452849
v -0.00677222 0.17944509 0.47302854
v -0.01333874 0.17767650 0.47451779
v -0.01333874 0.17768562 0.47301784
v -0.01949995 0.17480356 0.47450033
v -0.01949995 0.17481267 0.47300038
v -0.02506870 0.17090443 0.47447664
v -0.02506870 0.17091355 0.47297668
v -0.02987569 0.16609740 0.47444740
v -0.02987569 0.16610652 0.47294745
v -0.03377497 0.16052881 0.47441357
v -0.03377497 0.16053793 0.47291362
v -0.03664797 0.15436773 0.47437611
v -0.03664797 0.15437685 0.47287616
v -0.03840750 0.14780135 0.47433618
v -0.03840750 0.14781047 0.47283623
v -0.03899997 0.14103830 0.47279507
v -0.03899997 0.14102918 0.47429502
v -0.02365458 0.11284842 0.47262371
v -0.01949995 0.10726392 0.47258976
v -0.02506870 0.11116305 0.47261345
v -0.02819043 0.11738414 0.47265127
v -0.02987569 0.11597006 0.47264269
v -0.02819043 0.11738414 0.47265127
v -0.02365458 0.11284842 0.47262371
v -0.02506870 0.11116305 0.47261345
v -0.01839995 0.10916919 0.47260135
v -0.03186970 0.12263863 0.47268322
v -0.03377497 0.12153865 0.47267655
v -0.01258629 0.10645824 0.47258487
v -0.01333874 0.10439098 0.47257230
v -0.03458064 0.12845212 0.47271857
v -0.03664797 0.12769975 0.47271398
v -0.00677222 0.10263151 0.47256160
v -0.03840750 0.13426612 0.47275391
v -0.00639021 0.10479807 0.47257477
v -0.03624087 0.13464811 0.47275624
v -0.00000000 0.10423898 0.47257137
v -0.00639021 0.10479807 0.47257477
v -0.00000000 0.10423898 0.47257137
v -0.00000000 0.10203902 0.47255799
v -0.03679996 0.14103830 0.47279507
v -0.03899997 0.14103830 0.47279507
v -0.03840750 0.14781047 0.47283623
v 0.00639021 0.10479807 0.47257477
v 0.00677222 0.10263151 0.47256160
v -0.03624087 0.14742848 0.47283393
v 0.01258629 0.10645824 0.47258487
v 0.01333874 0.10439098 0.47257230
v 0.01258629 0.10645824 0.47258487
v 0.00677222 0.10263151 0.47256160
v 0.00639021 0.10479807 0.47257477
v -0.03458064 0.15362446 0.47287157
v -0.03664797 0.15437685 0.47287616
v 0.01949995 0.10726392 0.47258976
v -0.03377497 0.16053793 0.47291362
v 0.01839995 0.10916919 0.47260135
v -0.03186970 0.15943797 0.47290692
v 0.02365458 0.11284842 0.47262371
v 0.02506870 0.11116305 0.47261345
v -0.02819043 0.16469246 0.47293887
v -0.02987569 0.16610652 0.47294745
v -0.02819043 0.16469246 0.47293887
v -0.03186970 0.15943797 0.47290692
v -0.03377497 0.16053793 0.47291362
v 0.02987569 0.11597006 0.47264269
v 0.02819043 0.11738414 0.47265127
v -0.02506870 0.17091355 0.47297668
v -0.02819043 0.16469246 0.47293887
v -0.02987569 0.16610652 0.47294745
v -0.02506870 0.17091355 0.47297668
v -0.02365458 0.16922818 0.47296643
v -0.02819043 0.16469246 0.47293887
v 0.03377497 0.12153865 0.47267655
v 0.02819043 0.11738414 0.47265127
v 0.03186970 0.12263863 0.47268322
v 0.03377497 0.12153865 0.47267655
v -0.01949995 0.17481267 0.47300038
v -0.02365458 0.16922818 0.47296643
v -0.01839995 0.17290752 0.47298881
v 0.03458064 0.12845212 0.47271857
v 0.03186970 0.12263863 0.47268322
v 0.03664797 0.12769975 0.47271398
v -0.01333874 0.17768562 0.47301784
v -0.01258629 0.17561837 0.47300529
v 0.03624087 0.13464811 0.47275624
v 0.03840750 0.13426612 0.47275391
v -0.00677222 0.17944509 0.47302854
v -0.00639021 0.17727853 0.47301537
v -0.00000000 0.17783763 0.47301877
v -0.00639021 0.17727853 0.47301537
v -0.00677222 0.17944509 0.47302854
v 0.03899997 0.14103830 0.47279507
v 0.03679996 0.14103830 0.47279507
v 0.03899997 0.14103830 0.47279507
v 0.03840750 0.13426612 0.47275391
v 0.03624087 0.13464811 0.47275624
v -0.00000000 0.18003757 0.47303215
v -0.00000000 0.17783763 0.47301877
v 0.03840750 0.14781047 0.47283623
v 0.03624087 0.14742848 0.47283393
v 0.03840750 0.14781047 0.47283623
v 0.03899997 0.14103830 0.47279507
v 0.03679996 0.14103830 0.47279507
v 0.00677222 0.17944509 0.47302854
v 0.00639021 0.17727853 0.47301537
v 0.03458064 0.15362446 0.47287157
v 0.03664797 0.15437685 0.47287616
v 0.01333874 0.17768562 0.47301784
v 0.01258629 0.17561837 0.47300529
v 0.00639021 0.17727853 0.47301537
v 0.01333874 0.17768562 0.47301784
v 0.00639021 0.17727853 0.47301537
v 0.00677222 0.17944509 0.47302854
v 0.03377497 0.16053793 0.47291362
v 0.03186970 0.15943797 0.47290692
v 0.03377497 0.16053793 0.47291362
v 0.03186970 0.15943797 0.47290692
v 0.02819043 0.16469246 0.47293887
v 0.01949995 0.17481267 0.47300038
v 0.01258629 0.17561837 0.47300529
v 0.01333874 0.17768562 0.47301784
v 0.02365458 0.16922818 0.47296643
v 0.01839995 0.17290752 0.47298881
v 0.02987569 0.16610652 0.47294745
v 0.02819043 0.16469246 0.47293887
v 0.02506870 0.17091355 0.47297668
v -0.03613775 0.13470289 0.46675643
v -0.03679996 0.14103830 0.47279507
v -0.03669524 0.14107478 0.46679518
v -0.03624087 0.13464811 0.47275624
v -0.03458064 0.12845212 0.47271857
v -0.03448224 0.12852451 0.46671888
v -0.03186970 0.12263863 0.47268322
v -0.03177899 0.12272751 0.46668366
v -0.02819043 0.11738414 0.47265127
v -0.02811020 0.11748791 0.46665180
v -0.02365458 0.11284842 0.47262371
v -0.02358722 0.11296510 0.46662432
v -0.01839995 0.10916919 0.47260135
v -0.01834762 0.10929637 0.46660200
v -0.01258629 0.10645824 0.47258487
v -0.01255047 0.10659321 0.46658558
v -0.00639021 0.10479807 0.47257477
v -0.00637203 0.10493765 0.46657550
v -0.00000000 0.10423898 0.47257137
v -0.00000000 0.10438026 0.46657211
v 0.00639021 0.10479807 0.47257477
v 0.00637203 0.10493765 0.46657550
v 0.01258629 0.10645824 0.47258487
v 0.01255047 0.10659321 0.46658558
v 0.01839995 0.10916919 0.47260135
v 0.01834762 0.10929637 0.46660200
v 0.02358722 0.11296510 0.46662432
v 0.02365458 0.11284842 0.47262371
v 0.02819043 0.11738414 0.47265127
v 0.02811020 0.11748791 0.46665180
v 0.03177899 0.12272751 0.46668366
v 0.03186970 0.12263863 0.47268322
v 0.03448224 0.12852451 0.46671888
v 0.03458064 0.12845212 0.47271857
v 0.03624087 0.13464811 0.47275624
v 0.03613775 0.13470289 0.46675643
v 0.03669524 0.14107478 0.46679518
v 0.03679996 0.14103830 0.47279507
v 0.03624087 0.14742848 0.47283393
v 0.03613775 0.14744677 0.46683392
v 0.03458064 0.15362446 0.47287157
v 0.03448224 0.15362504 0.46687147
v 0.03186970 0.15943797 0.47290692
v 0.03177899 0.15942204 0.46690670
v 0.02819043 0.16469246 0.47293887
v 0.02811020 0.16466163 0.46693856
v 0.02365458 0.16922818 0.47296643
v 0.02358722 0.16918446 0.46696606
v 0.01839995 0.17290752 0.47298881
v 0.01834762 0.17285329 0.46698835
v 0.01255047 0.17555644 0.46700478
v 0.01258629 0.17561837 0.47300529
v 0.00639021 0.17727853 0.47301537
v 0.00637203 0.17721191 0.46701485
v -0.00000000 0.17783763 0.47301877
v -0.00000000 0.17776939 0.46701825
v -0.00639021 0.17727853 0.47301537
v -0.00637203 0.17721191 0.46701485
v -0.01255047 0.17555644 0.46700478
v -0.01258629 0.17561837 0.47300529
v -0.01839995 0.17290752 0.47298881
v -0.01834762 0.17285329 0.46698835
v -0.02365458 0.16922818 0.47296643
v -0.02358722 0.16918446 0.46696606
v -0.02819043 0.16469246 0.47293887
v -0.02811020 0.16466163 0.46693856
v -0.03186970 0.15943797 0.47290692
v -0.03177899 0.15942204 0.46690670
v -0.03448224 0.15362504 0.46687147
v -0.03458064 0.15362446 0.47287157
v -0.03613775 0.14744677 0.46683392
v -0.03624087 0.14742848 0.47283393
v -0.03679996 0.14103830 0.47279507
v -0.03669524 0.14107478 0.46679518
v -0.02748912 0.11800900 0.46665496
v -0.02358722 0.11296510 0.46662432
v -0.02811020 0.11748791 0.46665180
v -0.02748912 0.11800900 0.46665496
v -0.02306610 0.11358618 0.46662807
v -0.02358722 0.11296510 0.46662432
v -0.01794224 0.10999845 0.46660626
v -0.01834762 0.10929637 0.46660200
v -0.01794224 0.10999845 0.46660626
v -0.03107690 0.12313291 0.46668610
v -0.03177899 0.12272751 0.46668366
v -0.01227319 0.10735500 0.46659020
v -0.01255047 0.10659321 0.46658558
v -0.03372043 0.12880181 0.46672058
v -0.03448224 0.12852451 0.46671888
v -0.03372043 0.12880181 0.46672058
v -0.03107690 0.12313291 0.46668610
v -0.03177899 0.12272751 0.46668366
v -0.00623125 0.10573603 0.46658036
v -0.00637203 0.10493765 0.46657550
v -0.00623125 0.10573603 0.46658036
v -0.01255047 0.10659321 0.46658558
v -0.01227319 0.10735500 0.46659020
v -0.03533935 0.13484359 0.46675730
v -0.03613775 0.13470289 0.46675643
v -0.03533935 0.13484359 0.46675730
v -0.03448224 0.12852451 0.46671888
v -0.00000000 0.10519084 0.46657705
v -0.00000000 0.10438026 0.46657211
v -0.00000000 0.10519084 0.46657705
v -0.00637203 0.10493765 0.46657550
v -0.03588449 0.14107478 0.46679518
v -0.03669524 0.14107478 0.46679518
v 0.00637203 0.10493765 0.46657550
v -0.03613775 0.14744677 0.46683392
v 0.00623125 0.10573603 0.46658036
v -0.03533935 0.14730597 0.46683306
v 0.01227319 0.10735500 0.46659020
v 0.01255047 0.10659321 0.46658558
v -0.03372043 0.15334785 0.46686977
v -0.03613775 0.14744677 0.46683392
v -0.03372043 0.15334785 0.46686977
v -0.03448224 0.15362504 0.46687147
v -0.03177899 0.15942204 0.46690670
v 0.01794224 0.10999845 0.46660626
v 0.01834762 0.10929637 0.46660200
v 0.01794224 0.10999845 0.46660626
v 0.01255047 0.10659321 0.46658558
v 0.01227319 0.10735500 0.46659020
v -0.03107690 0.15901674 0.46690425
v 0.02358722 0.11296510 0.46662432
v 0.02306610 0.11358618 0.46662807
v -0.02748912 0.16414055 0.46693540
v -0.03107690 0.15901674 0.46690425
v -0.03177899 0.15942204 0.46690670
v -0.02748912 0.16414055 0.46693540
v -0.03177899 0.15942204 0.46690670
v -0.02811020 0.16466163 0.46693856
v 0.02748912 0.11800900 0.46665496
v 0.02358722 0.11296510 0.46662432
v 0.02306610 0.11358618 0.46662807
v 0.02811020 0.11748791 0.46665180
v 0.02748912 0.11800900 0.46665496
v -0.02358722 0.16918446 0.46696606
v -0.02748912 0.16414055 0.46693540
v -0.02811020 0.16466163 0.46693856
v -0.02306610 0.16856346 0.46696228
v 0.03107690 0.12313291 0.46668610
v -0.01794224 0.17215110 0.46698409
v -0.02306610 0.16856346 0.46696228
v -0.02358722 0.16918446 0.46696606
v 0.03177899 0.12272751 0.46668366
v -0.01834762 0.17285329 0.46698835
v -0.01794224 0.17215110 0.46698409
v 0.03372043 0.12880181 0.46672058
v 0.03177899 0.12272751 0.46668366
v 0.03107690 0.12313291 0.46668610
v 0.03448224 0.12852451 0.46671888
v 0.03372043 0.12880181 0.46672058
v -0.01255047 0.17555644 0.46700478
v -0.01227319 0.17479455 0.46700016
v -0.00623125 0.17641352 0.46700999
v -0.01227319 0.17479455 0.46700016
v 0.03613775 0.13470289 0.46675643
v 0.03533935 0.13484359 0.46675730
v -0.00637203 0.17721191 0.46701485
v -0.00623125 0.17641352 0.46700999
v 0.03669524 0.14107478 0.46679518
v 0.03588449 0.14107478 0.46679518
v -0.00000000 0.17776939 0.46701825
v -0.00637203 0.17721191 0.46701485
v -0.00000000 0.17776939 0.46701825
v -0.00000000 0.17695871 0.46701330
v 0.03613775 0.14744677 0.46683392
v 0.03533935 0.14730597 0.46683306
v 0.00637203 0.17721191 0.46701485
v 0.00623125 0.17641352 0.46700999
v 0.01227319 0.17479455 0.46700016
v 0.03448224 0.15362504 0.46687147
v 0.03372043 0.15334785 0.46686977
v 0.01255047 0.17555644 0.46700478
v 0.01794224 0.17215110 0.46698409
v 0.01255047 0.17555644 0.46700478
v 0.03177899 0.15942204 0.46690670
v 0.03107690 0.15901674 0.46690425
v 0.01834762 0.17285329 0.46698835
v 0.01794224 0.17215110 0.46698409
v 0.02811020 0.16466163 0.46693856
v 0.03177899 0.15942204 0.46690670
v 0.03107690 0.15901674 0.46690425
v 0.02811020 0.16466163 0.46693856
v 0.02748912 0.16414055 0.46693540
v 0.02811020 0.16466163 0.46693856
v 0.02748912 0.16414055 0.46693540
v 0.02306610 0.16856346 0.46696228
v 0.02358722 0.16918446 0.46696606
v 0.02306610 0.16856346 0.46696228
v -0.03540378 0.13478670 0.47425708
v -0.03588449 0.14107478 0.46679518
v -0.03595000 0.14102918 0.47429502
v -0.03533935 0.13484359 0.46675730
v -0.03378194 0.12873381 0.47422028
v -0.03372043 0.12880181 0.46672058
v -0.03113359 0.12305453 0.47418576
v -0.03107690 0.12313291 0.46668610
v -0.02753925 0.11792141 0.47415456
v -0.02748912 0.11800900 0.46665496
v -0.02310818 0.11349040 0.47412762
v -0.02306610 0.11358618 0.46662807
v -0.01794224 0.10999845 0.46660626
v -0.01797497 0.10989616 0.47410578
v -0.01229560 0.10724791 0.47408968
v -0.01227319 0.10735500 0.46659020
v -0.00624263 0.10562604 0.47407982
v -0.00623125 0.10573603 0.46658036
v -0.00000000 0.10507985 0.47407648
v -0.00000000 0.10519084 0.46657705
v 0.00624263 0.10562604 0.47407982
v 0.00623125 0.10573603 0.46658036
v 0.01229560 0.10724791 0.47408968
v 0.01227319 0.10735500 0.46659020
v 0.01794224 0.10999845 0.46660626
v 0.01797497 0.10989616 0.47410578
v 0.02310818 0.11349040 0.47412762
v 0.02306610 0.11358618 0.46662807
v 0.02748912 0.11800900 0.46665496
v 0.02753925 0.11792141 0.47415456
v 0.03107690 0.12313291 0.46668610
v 0.03113359 0.12305453 0.47418576
v 0.03378194 0.12873381 0.47422028
v 0.03372043 0.12880181 0.46672058
v 0.03533935 0.13484359 0.46675730
v 0.03540378 0.13478670 0.47425708
v 0.03594994 0.14102918 0.47429502
v 0.03588449 0.14107478 0.46679518
v 0.03533935 0.14730597 0.46683306
v 0.03540378 0.14727166 0.47433296
v 0.03372043 0.15334785 0.46686977
v 0.03378194 0.15332454 0.47436976
v 0.03107690 0.15901674 0.46690425
v 0.03113359 0.15900384 0.47440428
v 0.02753925 0.16413696 0.47443548
v 0.02748912 0.16414055 0.46693540
v 0.02306610 0.16856346 0.46696228
v 0.02310818 0.16856797 0.47446242
v 0.01797497 0.17216220 0.47448426
v 0.01794224 0.17215110 0.46698409
v 0.01229560 0.17481045 0.47450039
v 0.01227319 0.17479455 0.46700016
v 0.00624263 0.17643243 0.47451022
v 0.00623125 0.17641352 0.46700999
v -0.00000000 0.17697851 0.47451356
v -0.00000000 0.17695871 0.46701330
v -0.00623125 0.17641352 0.46700999
v -0.00624263 0.17643243 0.47451022
v -0.01227319 0.17479455 0.46700016
v -0.01229560 0.17481045 0.47450039
v -0.01794224 0.17215110 0.46698409
v -0.01797497 0.17216220 0.47448426
v -0.02310818 0.16856797 0.47446242
v -0.02306610 0.16856346 0.46696228
v -0.02748912 0.16414055 0.46693540
v -0.02753925 0.16413696 0.47443548
v -0.03113359 0.15900384 0.47440428
v -0.03107690 0.15901674 0.46690425
v -0.03372043 0.15334785 0.46686977
v -0.03378194 0.15332454 0.47436976
v -0.03540378 0.14727166 0.47433296
v -0.03533935 0.14730597 0.46683306
v -0.03595000 0.14102918 0.47429502
v -0.03588449 0.14107478 0.46679518
f 1 2 3
f 1 3 4
f 5 1 4
f 6 1 5
f 7 6 5
f 8 6 7
f 9 7 10
f 9 8 7
f 11 10 12
f 11 9 10
f 13 11 12
f 14 11 13
f 15 14 13
f 15 13 16
f 17 15 16
f 17 16 18
f 19 17 18
f 19 18 20
f 21 19 20
f 21 20 22
f 23 21 22
f 23 22 24
f 25 23 24
f 25 24 26
f 27 25 26
f 27 26 28
f 29 27 28
f 29 28 30
f 31 29 30
f 31 30 32
f 33 31 32
f 33 32 34
f 35 33 34
f 35 34 36
f 37 35 36
f 37 36 38
f 39 37 38
f 39 38 40
f 41 40 42
f 41 39 40
f 43 41 42
f 44 41 43
f 45 44 43
f 46 44 45
f 47 45 48
f 47 46 45
f 49 47 48
f 50 47 49
f 51 49 52
f 51 50 49
f 53 51 52
f 54 51 53
f 55 54 53
f 56 54 55
f 57 55 58
f 57 56 55
f 59 57 58
f 60 57 59
f 61 59 62
f 61 60 59
f 63 62 64
f 63 61 62
f 65 63 64
f 65 64 66
f 67 65 66
f 67 66 68
f 69 67 68
f 69 68 70
f 71 69 70
f 71 70 72
f 2 71 72
f 2 72 3
f 73 74 75
f 73 76 74
f 77 78 76
f 77 76 73
f 79 80 78
f 79 78 77
f 81 82 80
f 81 80 79
f 83 84 82
f 83 82 81
f 85 84 83
f 85 86 84
f 87 86 85
f 87 88 86
f 89 88 87
f 89 90 88
f 91 90 89
f 91 92 90
f 93 92 91
f 93 94 92
f 95 94 93
f 95 96 94
f 97 96 95
f 97 98 96
f 99 98 97
f 99 100 98
f 99 101 100
f 102 101 99
f 102 103 101
f 104 103 102
f 105 103 104
f 105 106 103
f 105 107 106
f 108 107 105
f 109 107 108
f 109 110 107
f 111 110 109
f 111 112 110
f 113 114 112
f 113 112 111
f 113 115 114
f 116 115 113
f 117 118 115
f 117 115 116
f 119 120 118
f 119 118 117
f 121 122 120
f 121 123 122
f 121 120 119
f 124 123 121
f 125 126 123
f 125 127 126
f 125 123 124
f 128 127 125
f 129 130 127
f 129 127 128
f 131 132 130
f 131 133 132
f 131 130 129
f 134 133 131
f 135 133 134
f 135 136 133
f 137 136 135
f 137 138 136
f 139 138 137
f 139 140 138
f 141 140 139
f 141 142 140
f 143 142 141
f 143 144 142
f 145 144 143
f 145 146 144
f 147 148 149
f 147 149 150
f 151 149 152
f 151 150 149
f 153 154 155
f 153 155 148
f 153 148 147
f 156 152 157
f 156 151 152
f 158 154 153
f 159 157 160
f 159 156 157
f 161 162 154
f 161 154 158
f 163 162 161
f 164 159 160
f 164 160 165
f 166 163 161
f 167 164 165
f 168 164 167
f 169 163 166
f 169 170 163
f 171 168 167
f 172 168 171
f 173 174 170
f 173 170 169
f 175 172 171
f 175 171 176
f 177 178 174
f 177 174 173
f 179 176 180
f 179 175 176
f 181 182 178
f 181 178 177
f 183 182 181
f 184 179 180
f 184 185 179
f 186 182 183
f 187 185 184
f 188 187 184
f 189 183 190
f 189 186 183
f 191 187 188
f 192 189 190
f 193 191 188
f 194 189 192
f 195 196 191
f 195 191 193
f 197 192 198
f 197 194 192
f 199 200 196
f 199 196 195
f 201 198 202
f 201 197 198
f 203 201 202
f 204 205 200
f 204 200 199
f 206 201 203
f 207 206 203
f 208 209 205
f 208 210 209
f 208 205 204
f 211 206 207
f 212 210 208
f 213 211 207
f 213 207 214
f 215 210 212
f 215 216 210
f 217 213 214
f 217 216 215
f 217 218 216
f 217 214 218
f 219 220 221
f 219 221 222
f 223 222 224
f 223 219 222
f 225 224 226
f 225 223 224
f 227 226 228
f 227 228 229
f 227 225 226
f 230 227 229
f 231 230 229
f 231 229 232
f 233 231 232
f 233 232 234
f 235 233 234
f 235 234 236
f 237 235 236
f 237 236 238
f 239 237 238
f 239 238 240
f 241 239 240
f 241 240 242
f 243 241 242
f 243 242 244
f 245 243 244
f 245 244 246
f 247 245 246
f 247 246 248
f 249 247 248
f 249 248 250
f 251 249 250
f 251 250 252
f 253 251 252
f 253 252 254
f 255 253 254
f 255 254 256
f 257 255 256
f 257 256 258
f 259 257 258
f 259 258 260
f 261 260 262
f 261 259 260
f 263 262 264
f 263 261 262
f 265 264 266
f 265 263 264
f 267 266 268
f 267 265 266
f 269 268 270
f 269 267 268
f 271 270 272
f 271 269 270
f 273 272 274
f 273 271 272
f 275 274 276
f 275 273 274
f 277 276 278
f 277 275 276
f 279 278 280
f 279 277 278
f 281 279 280
f 281 280 282
f 283 281 282
f 283 282 284
f 285 283 284
f 285 284 286
f 287 285 286
f 287 286 288
f 289 287 288
f 289 288 290
f 291 289 290
f 291 290 292
f 293 294 295
f 296 297 294
f 296 294 293
f 298 299 300
f 301 293 295
f 302 303 297
f 302 297 296
f 304 301 305
f 306 307 303
f 308 309 310
f 311 312 313
f 314 305 315
f 314 304 305
f 316 317 306
f 318 314 315
f 319 314 318
f 320 317 316
f 320 321 317
f 322 319 318
f 322 318 323
f 324 321 320
f 324 325 321
f 326 327 328
f 329 322 330
f 331 332 333
f 334 325 324
f 335 326 336
f 337 329 330
f 338 339 340
f 341 342 343
f 344 345 341
f 346 347 348
f 346 337 347
f 349 350 338
f 351 346 348
f 351 352 346
f 353 350 349
f 353 349 354
f 355 352 351
f 356 353 354
f 357 358 359
f 360 353 356
f 361 360 356
f 362 363 355
f 364 365 366
f 367 360 361
f 368 367 361
f 369 370 363
f 371 372 364
f 373 367 368
f 374 375 370
f 374 370 369
f 376 368 377
f 376 378 379
f 380 375 374
f 380 381 375
f 382 377 383
f 382 376 377
f 384 385 381
f 384 386 385
f 384 381 380
f 387 383 388
f 389 390 391
f 392 393 394
f 395 388 396
f 395 387 388
f 397 398 386
f 399 400 401
f 402 395 396
f 402 398 397
f 402 403 398
f 402 396 403
f 404 405 406
f 404 406 407
f 408 407 409
f 408 404 407
f 410 409 411
f 410 408 409
f 412 411 413
f 412 410 411
f 414 413 415
f 414 415 416
f 414 412 413
f 417 414 416
f 418 417 416
f 418 416 419
f 420 418 419
f 420 419 421
f 422 420 421
f 422 421 423
f 424 422 423
f 424 423 425
f 426 424 425
f 426 425 427
f 426 427 428
f 429 426 428
f 430 429 428
f 430 428 431
f 432 430 431
f 432 431 433
f 434 432 433
f 434 433 435
f 436 434 435
f 436 435 437
f 438 436 437
f 438 437 439
f 440 438 439
f 440 439 441
f 442 441 443
f 442 440 441
f 444 443 445
f 444 442 443
f 446 445 447
f 446 444 445
f 448 447 449
f 448 446 447
f 450 449 451
f 450 448 449
f 452 451 453
f 452 450 451
f 454 453 455
f 454 452 453
f 456 455 457
f 456 454 455
f 458 457 459
f 458 456 457
f 460 459 461
f 460 458 459
f 462 461 463
f 462 460 461
f 464 463 465
f 464 462 463
f 466 464 465
f 466 465 467
f 468 466 467
f 468 467 469
f 470 468 469
f 470 469 471
f 472 470 471
f 472 471 473
f 474 472 473
f 474 473 475
f 474 475 476
f 477 474 476
f 478 479 480
f 481 480 482
f 483 484 485
f 486 479 478
f 487 482 488
f 487 481 482
f 489 490 479
f 489 479 486
f 491 488 492
f 491 487 488
f 493 490 489
f 494 491 492
f 495 493 489
f 496 491 494
f 497 493 498
f 499 500 493
f 501 494 502
f 501 496 494
f 503 501 502
f 504 500 499
f 504 505 500
f 506 501 503
f 507 508 505
f 509 510 511
f 512 506 503
f 512 503 513
f 514 508 509
f 515 512 513
f 516 514 507
f 517 512 515
f 518 519 514
f 518 514 516
f 520 515 521
f 522 523 524
f 525 519 518
f 525 518 526
f 527 528 529
f 530 531 532
f 533 534 535
f 536 525 526
f 537 538 527
f 537 539 538
f 540 536 541
f 542 536 540
f 543 539 537
f 543 544 539
f 545 542 540
f 546 542 545
f 547 548 544
f 547 544 543
f 549 550 551
f 552 545 553
f 554 555 556
f 557 558 547
f 559 553 560
f 561 562 563
f 564 565 558
f 564 558 557
f 566 559 560
f 567 559 566
f 568 569 570
f 571 572 573
f 574 567 566
f 574 566 575
f 576 577 578
f 579 580 581
f 579 582 583
f 579 583 580
f 584 574 585
f 586 582 579
f 586 585 582
f 586 584 585
f 587 588 589
f 590 588 587
f 591 587 592
f 591 590 587
f 593 592 594
f 593 591 592
f 595 594 596
f 595 593 594
f 597 596 598
f 597 595 596
f 599 598 600
f 599 597 598
f 601 599 600
f 601 600 602
f 603 601 602
f 603 602 604
f 605 603 604
f 605 604 606
f 607 605 606
f 607 606 608
f 609 607 608
f 609 608 610
f 611 609 610
f 611 610 612
f 613 611 612
f 614 611 613
f 615 614 613
f 615 613 616
f 617 615 616
f 618 615 617
f 619 618 617
f 620 618 619
f 621 620 619
f 621 619 622
f 623 621 622
f 624 621 623
f 625 624 623
f 625 623 626
f 627 625 626
f 627 626 628
f 629 628 630
f 629 627 628
f 631 630 632
f 631 629 630
f 633 632 634
f 633 631 632
f 635 634 636
f 635 633 634
f 637 635 636
f 638 635 637
f 639 637 640
f 639 638 637
f 641 640 642
f 641 639 640
f 643 642 644
f 643 641 642
f 645 643 644
f 646 643 645
f 647 645 648
f 647 646 645
f 649 648 650
f 649 647 648
f 651 649 650
f 651 650 652
f 653 651 652
f 653 652 654
f 655 653 654
f 656 653 655
f 657 656 655
f 658 656 657
f 659 658 657
f 659 657 660
f 661 662 663
f 664 665 666
f 667 668 662
f 669 666 665
f 670 663 671
f 670 661 663
f 672 673 668
f 672 668 667
f 674 671 675
f 676 677 678
f 679 680 673
f 681 682 683
f 684 675 685
f 686 676 687
f 688 689 680
f 690 691 681
f 692 685 693
f 692 684 685
f 694 689 688
f 695 692 693
f 696 694 688
f 697 692 695
f 698 699 694
f 698 694 696
f 700 697 701
f 702 695 703
f 704 702 703
f 705 706 699
f 707 708 709
f 710 702 704
f 711 706 707
f 712 711 705
f 713 714 715
f 716 717 718
f 719 720 721
f 722 711 723
f 724 725 726
f 724 727 725
f 728 722 723
f 729 730 731
f 732 722 728
f 733 734 724
f 735 736 737
f 738 732 739
f 740 734 733
f 740 741 734
f 742 743 740
f 744 739 745
f 744 738 739
f 746 747 740
f 748 745 749
f 748 744 745
f 750 742 751
f 752 753 747
f 754 749 755
f 754 748 749
f 756 757 753
f 756 753 752
f 758 757 756
f 759 755 760
f 759 754 755
f 761 758 756
f 762 758 763
f 764 759 760
f 764 760 765
f 766 767 761
f 768 769 770
f 771 765 772
f 773 774 775
f 776 767 766
f 776 771 777
f 776 777 767
f 778 779 780
f 778 781 779
f 782 783 781
f 782 781 778
f 784 785 783
f 784 783 782
f 786 787 785
f 786 785 784
f 788 789 787
f 788 790 789
f 788 787 786
f 791 790 788
f 792 790 791
f 792 793 790
f 794 793 792
f 794 795 793
f 796 795 794
f 796 797 795
f 798 797 796
f 798 799 797
f 800 799 798
f 800 801 799
f 800 802 801
f 803 802 800
f 804 802 803
f 804 805 802
f 804 806 805
f 807 806 804
f 807 808 806
f 809 808 807
f 810 808 809
f 810 811 808
f 810 812 811
f 813 812 810
f 814 812 813
f 814 815 812
f 814 816 815
f 817 816 814
f 817 818 816
f 819 818 817
f 819 820 818
f 821 820 819
f 822 823 820
f 822 824 823
f 822 820 821
f 825 824 822
f 826 827 824
f 826 824 825
f 828 829 827
f 828 827 826
f 830 831 829
f 830 829 828
f 832 833 831
f 832 834 833
f 832 831 830
f 835 836 834
f 835 834 832
f 837 838 836
f 837 836 835
f 839 838 837
f 840 838 839
f 840 841 838
f 840 842 841
f 843 842 840
f 844 842 843
f 844 845 842
f 844 846 845
f 847 846 844
f 848 846 847
f 848 849 846
f 850 849 848
f 850 851 849

