# https://github.com/mikedh/trimesh
v 0.03589963 0.18628119 0.06836259
v 0.03792446 0.18869425 0.06837726
v 0.04519659 0.18142219 0.06833305
v 0.04278355 0.17939742 0.06832074
v 0.04836750 0.17142287 0.06827227
v 0.05109548 0.17299783 0.06828184
v 0.02792495 0.19186498 0.06839653
v 0.02949994 0.19459292 0.06841312
v 0.05248183 0.16259992 0.06821863
v 0.05544185 0.16367722 0.06822518
v 0.01910179 0.19597919 0.06842154
v 0.02017915 0.19893925 0.06843954
v 0.05810362 0.15374349 0.06816480
v 0.05500149 0.15319650 0.06816147
v 0.00969821 0.19849886 0.06843686
v 0.01024520 0.20160101 0.06845572
v 0.05899995 0.14349838 0.06810252
v 0.05584996 0.14349838 0.06810252
v -0.00000000 0.19934735 0.06844202
v -0.00000000 0.20249727 0.06846116
v 0.05500149 0.13380027 0.06804357
v 0.05810362 0.13325326 0.06804024
v -0.00969821 0.19849886 0.06843686
v -0.01024520 0.20160101 0.06845572
v 0.05544185 0.12331954 0.06797986
v 0.05248183 0.12439692 0.06798641
v -0.01910179 0.19597919 0.06842154
v -0.02017915 0.19893925 0.06843954
v 0.05109548 0.11399891 0.06792320
v 0.04836750 0.11557388 0.06793277
v -0.02792495 0.19186498 0.06839653
v -0.02949994 0.19459292 0.06841312
v 0.04278355 0.10759933 0.06788430
v 0.04519659 0.10557457 0.06787199
v -0.03589963 0.18628119 0.06836259
v -0.03792446 0.18869425 0.06837726
v 0.03792446 0.09830260 0.06782778
v 0.03589963 0.10071556 0.06784245
v -0.04519659 0.18142219 0.06833305
v -0.04278355 0.17939742 0.06832074
v 0.02792495 0.09513175 0.06780851
v 0.02949994 0.09240381 0.06779192
v -0.05109548 0.17299783 0.06828184
v -0.04836750 0.17142287 0.06827227
v 0.01910179 0.09101750 0.06778350
v -0.05248183 0.16259992 0.06821863
v 0.02017915 0.08805753 0.06776550
v -0.05544185 0.16367722 0.06822518
v 0.01024520 0.08539581 0.06774932
v 0.00969821 0.08849788 0.06776818
v -0.05810362 0.15374349 0.06816480
v -0.05500149 0.15319650 0.06816147
v -0.05584996 0.14349838 0.06810252
v -0.00000000 0.08449949 0.06774388
v -0.00000000 0.08764943 0.06776302
v -0.05899995 0.14349838 0.06810252
v -0.05500149 0.13380027 0.06804357
v -0.01024520 0.08539581 0.06774932
v -0.00969821 0.08849788 0.06776818
v -0.05810362 0.13325326 0.06804024
v -0.02017915 0.08805753 0.06776550
v -0.01910179 0.09101750 0.06778350
v -0.05544185 0.12331954 0.06797986
v -0.05248183 0.12439692 0.06798641
v -0.02949994 0.09240381 0.06779192
v -0.02792495 0.09513175 0.06780851
v -0.05109548 0.11399891 0.06792320
v -0.04836750 0.11557388 0.06793277
v -0.03792446 0.09830260 0.06782778
v -0.03589963 0.10071556 0.06784245
v -0.04519659 0.10557457 0.06787199
v -0.04278355 0.10759933 0.06788430
v -0.05810362 0.15374349 0.06816480
v -0.05899995 0.14349838 0.06810252
v -0.05899995 0.14348926 0.06960244
v -0.05810362 0.15373437 0.06966472
v -0.05544185 0.16367722 0.06822518
v -0.05544185 0.16366810 0.06972510
v -0.05109548 0.17299783 0.06828184
v -0.05109548 0.17298871 0.06978177
v -0.04519659 0.18142219 0.06833305
v -0.04519659 0.18141307 0.06983297
v -0.03792446 0.18869425 0.06837726
v -0.03792446 0.18868513 0.06987718
v -0.02949994 0.19458380 0.06991304
v -0.02949994 0.19459292 0.06841312
v -0.02017915 0.19893925 0.06843954
v -0.02017915 0.19893013 0.06993946
v -0.01024520 0.20160101 0.06845572
v -0.01024520 0.20159189 0.06995564
v -0.00000000 0.20249727 0.06846116
v -0.00000000 0.20248815 0.06996109
v 0.01024520 0.20160101 0.06845572
v 0.01024520 0.20159189 0.06995564
v 0.02017915 0.19893925 0.06843954
v 0.02017915 0.19893013 0.06993946
v 0.02949994 0.19458380 0.06991304
v 0.02949994 0.19459292 0.06841312
v 0.03792446 0.18869425 0.06837726
v 0.03792446 0.18868513 0.06987718
v 0.04519659 0.18142219 0.06833305
v 0.04519659 0.18141307 0.06983297
v 0.05109548 0.17299783 0.06828184
v 0.05109548 0.17298871 0.06978177
v 0.05544185 0.16367722 0.06822518
v 0.05544185 0.16366810 0.06972510
v 0.05810362 0.15374349 0.06816480
v 0.05810362 0.15373437 0.06966472
v 0.05899995 0.14349838 0.06810252
v 0.05899995 0.14348926 0.06960244
v 0.05810362 0.13325326 0.06804024
v 0.05810362 0.13324414 0.06954017
v 0.05544185 0.12331954 0.06797986
v 0.05544185 0.12331043 0.06947978
v 0.05109548 0.11399891 0.06792320
v 0.05109548 0.11398980 0.06942312
v 0.04519659 0.10557457 0.06787199
v 0.04519659 0.10556546 0.06937191
v 0.03792446 0.09830260 0.06782778
v 0.03792446 0.09829348 0.06932770
v 0.02949994 0.09240381 0.06779192
v 0.02949994 0.09239470 0.06929184
v 0.02017915 0.08805753 0.06776550
v 0.02017915 0.08804841 0.06926543
v 0.01024520 0.08539581 0.06774932
v 0.01024520 0.08538670 0.06924924
v -0.00000000 0.08449949 0.06774388
v -0.00000000 0.08449037 0.06924380
v -0.01024520 0.08539581 0.06774932
v -0.01024520 0.08538670 0.06924924
v -0.02017915 0.08805753 0.06776550
v -0.02017915 0.08804841 0.06926543
v -0.02949994 0.09240381 0.06779192
v -0.02949994 0.09239470 0.06929184
v -0.03792446 0.09830260 0.06782778
v -0.03792446 0.09829348 0.06932770
v -0.04519659 0.10557457 0.06787199
v -0.04519659 0.10556546 0.06937191
v -0.05109548 0.11399891 0.06792320
v -0.05109548 0.11398980 0.06942312
v -0.05544185 0.12331954 0.06797986
v -0.05544185 0.12331043 0.06947978
v -0.05810362 0.13325326 0.06804024
v -0.05810362 0.13324414 0.06954017
v -0.05899995 0.14348926 0.06960244
v -0.05899995 0.14349838 0.06810252
v -0.03651028 0.18699975 0.06986693
v -0.02949994 0.19458380 0.06991304
v -0.03792446 0.18868513 0.06987718
v -0.04351127 0.17999898 0.06982438
v -0.04519659 0.18141307 0.06983297
v -0.02840000 0.19267856 0.06990146
v -0.04919022 0.17188872 0.06977507
v -0.05109548 0.17298871 0.06978177
v -0.02017915 0.19893013 0.06993946
v -0.01942670 0.19686277 0.06992689
v -0.05337452 0.16291569 0.06972053
v -0.05544185 0.16366810 0.06972510
v -0.05810362 0.15373437 0.06966472
v -0.00986320 0.19942532 0.06994247
v -0.01024520 0.20159189 0.06995564
v -0.05593705 0.15335228 0.06966240
v -0.00000000 0.20028821 0.06994771
v -0.00000000 0.20248815 0.06996109
v -0.05679994 0.14348926 0.06960244
v -0.05899995 0.14348926 0.06960244
v 0.00986320 0.19942532 0.06994247
v 0.01024520 0.20159189 0.06995564
v -0.05593705 0.13362624 0.06954248
v -0.05810362 0.13324414 0.06954017
v -0.05544185 0.12331043 0.06947978
v 0.01942670 0.19686277 0.06992689
v 0.02017915 0.19893013 0.06993946
v -0.05337452 0.12406281 0.06948435
v 0.02840000 0.19267856 0.06990146
v 0.02949994 0.19458380 0.06991304
v -0.04919022 0.11508978 0.06942981
v -0.05109548 0.11398980 0.06942312
v 0.03792446 0.18868513 0.06987718
v 0.03651028 0.18699975 0.06986693
v -0.04351127 0.10697963 0.06938051
v -0.04519659 0.10556546 0.06937191
v 0.04351127 0.17999898 0.06982438
v -0.03651028 0.09997876 0.06933795
v 0.04519659 0.18141307 0.06983297
v -0.03792446 0.09829348 0.06932770
v 0.04919022 0.17188872 0.06977507
v -0.02840000 0.09429993 0.06930342
v 0.05109548 0.17298871 0.06978177
v -0.02949994 0.09239470 0.06929184
v 0.05337452 0.16291569 0.06972053
v -0.01942670 0.09011570 0.06927799
v 0.05544185 0.16366810 0.06972510
v -0.02017915 0.08804841 0.06926543
v 0.05593705 0.15335228 0.06966240
v 0.05810362 0.15373437 0.06966472
v -0.01024520 0.08538670 0.06924924
v -0.00986320 0.08755323 0.06926242
v -0.01942670 0.09011570 0.06927799
v 0.05899995 0.14348926 0.06960244
v 0.05679994 0.14348926 0.06960244
v -0.00000000 0.08449037 0.06924380
v -0.00000000 0.08669028 0.06925717
v 0.05593705 0.13362624 0.06954248
v 0.00986320 0.08755323 0.06926242
v 0.05810362 0.13324414 0.06954017
v 0.01024520 0.08538670 0.06924924
v 0.05544185 0.12331043 0.06947978
v 0.05337452 0.12406281 0.06948435
v 0.02017915 0.08804841 0.06926543
v 0.01942670 0.09011570 0.06927799
v 0.04919022 0.11508978 0.06942981
v 0.05109548 0.11398980 0.06942312
v 0.02949994 0.09239470 0.06929184
v 0.02840000 0.09429993 0.06930342
v 0.04519659 0.10556546 0.06937191
v 0.04351127 0.10697963 0.06938051
v 0.03792446 0.09829348 0.06932770
v 0.03651028 0.09997876 0.06933795
v -0.05593705 0.15335228 0.06966240
v -0.05679994 0.14348926 0.06960244
v -0.05668652 0.14344974 0.07610232
v -0.05582529 0.15329306 0.07616216
v -0.05337452 0.16291569 0.06972053
v -0.05326789 0.16283739 0.07622018
v -0.04919022 0.17188872 0.06977507
v -0.04909193 0.17179251 0.07627461
v -0.04351127 0.17999898 0.06982438
v -0.04342436 0.17988646 0.07632381
v -0.03651028 0.18699975 0.06986693
v -0.03643739 0.18687335 0.07636628
v -0.02834326 0.19254084 0.07640073
v -0.02840000 0.19267856 0.06990146
v -0.01942670 0.19686277 0.06992689
v -0.01938790 0.19671674 0.07642613
v -0.00986320 0.19942532 0.06994247
v -0.00984347 0.19927411 0.07644167
v -0.00000000 0.20013519 0.07644691
v -0.00000000 0.20028821 0.06994771
v 0.00986320 0.19942532 0.06994247
v 0.00984347 0.19927411 0.07644167
v 0.01942670 0.19686277 0.06992689
v 0.01938790 0.19671674 0.07642613
v 0.02834326 0.19254084 0.07640073
v 0.02840000 0.19267856 0.06990146
v 0.03651028 0.18699975 0.06986693
v 0.03643739 0.18687335 0.07636628
v 0.04351127 0.17999898 0.06982438
v 0.04342436 0.17988646 0.07632381
v 0.04919022 0.17188872 0.06977507
v 0.04909193 0.17179251 0.07627461
v 0.05337452 0.16291569 0.06972053
v 0.05326789 0.16283739 0.07622018
v 0.05593705 0.15335228 0.06966240
v 0.05582529 0.15329306 0.07616216
v 0.05668652 0.14344974 0.07610232
v 0.05679994 0.14348926 0.06960244
v 0.05593705 0.13362624 0.06954248
v 0.05582529 0.13360642 0.07604248
v 0.05337452 0.12406281 0.06948435
v 0.05326789 0.12406211 0.07598446
v 0.04919022 0.11508978 0.06942981
v 0.04909193 0.11510697 0.07593003
v 0.04351127 0.10697963 0.06938051
v 0.04342436 0.10701302 0.07588083
v 0.03643739 0.10002615 0.07583836
v 0.03651028 0.09997876 0.06933795
v 0.02834326 0.09435865 0.07580390
v 0.02840000 0.09429993 0.06930342
v 0.01942670 0.09011570 0.06927799
v 0.01938790 0.09018282 0.07577851
v 0.00986320 0.08755323 0.06926242
v 0.00984347 0.08762542 0.07576297
v -0.00000000 0.08676427 0.07575773
v -0.00000000 0.08669028 0.06925717
v -0.00986320 0.08755323 0.06926242
v -0.00984347 0.08762542 0.07576297
v -0.01938790 0.09018282 0.07577851
v -0.01942670 0.09011570 0.06927799
v -0.02840000 0.09429993 0.06930342
v -0.02834326 0.09435865 0.07580390
v -0.03651028 0.09997876 0.06933795
v -0.03643739 0.10002615 0.07583836
v -0.04342436 0.10701302 0.07588083
v -0.04351127 0.10697963 0.06938051
v -0.04919022 0.11508978 0.06942981
v -0.04909193 0.11510697 0.07593003
v -0.05337452 0.12406281 0.06948435
v -0.05326789 0.12406211 0.07598446
v -0.05593705 0.13362624 0.06954248
v -0.05582529 0.13360642 0.07604248
v -0.05668652 0.14344974 0.07610232
v -0.05679994 0.14348926 0.06960244
v -0.04273009 0.17930387 0.07632028
v -0.03643739 0.18687335 0.07636628
v -0.04342436 0.17988646 0.07632381
v -0.04273009 0.17930387 0.07632028
v -0.03585481 0.18617906 0.07636207
v -0.03643739 0.18687335 0.07636628
v -0.02789008 0.19175595 0.07639597
v -0.02834326 0.19254084 0.07640073
v -0.03643739 0.18687335 0.07636628
v -0.02789008 0.19175595 0.07639597
v -0.04830706 0.17133932 0.07627185
v -0.04342436 0.17988646 0.07632381
v -0.04909193 0.17179251 0.07627461
v -0.01907789 0.19586498 0.07642095
v -0.01938790 0.19671674 0.07642613
v -0.05241620 0.16252738 0.07621829
v -0.05326789 0.16283739 0.07622018
v -0.00984347 0.19927411 0.07644167
v -0.00968611 0.19838151 0.07643624
v -0.01907789 0.19586498 0.07642095
v -0.05493271 0.15313567 0.07616120
v -0.05582529 0.15329306 0.07616216
v -0.00000000 0.19922890 0.07644139
v -0.00000000 0.20013519 0.07644691
v -0.05578017 0.14344974 0.07610232
v -0.05668652 0.14344974 0.07610232
v 0.00984347 0.19927411 0.07644167
v 0.00968611 0.19838151 0.07643624
v -0.05493271 0.13376382 0.07604344
v -0.05582529 0.13360642 0.07604248
v -0.05326789 0.12406211 0.07598446
v 0.01907789 0.19586498 0.07642095
v 0.01938790 0.19671674 0.07642613
v -0.05241620 0.12437209 0.07598635
v 0.02834326 0.19254084 0.07640073
v 0.01907789 0.19586498 0.07642095
v -0.04909193 0.11510697 0.07593003
v 0.02789008 0.19175595 0.07639597
v -0.04830706 0.11556016 0.07593279
v 0.03585481 0.18617906 0.07636207
v 0.03643739 0.18687335 0.07636628
v 0.02834326 0.19254084 0.07640073
v -0.04273009 0.10759561 0.07588436
v -0.04273009 0.10759561 0.07588436
v -0.04342436 0.10701302 0.07588083
v 0.04273009 0.17930387 0.07632028
v -0.03585481 0.10072044 0.07584257
v -0.04342436 0.10701302 0.07588083
v 0.04342436 0.17988646 0.07632381
v -0.03643739 0.10002615 0.07583836
v 0.04909193 0.17179251 0.07627461
v 0.04830706 0.17133932 0.07627185
v -0.02834326 0.09435865 0.07580390
v -0.02789008 0.09514357 0.07580867
v -0.01907789 0.09103449 0.07578369
v 0.05326789 0.16283739 0.07622018
v 0.05241620 0.16252738 0.07621829
v -0.01938790 0.09018282 0.07577851
v -0.02834326 0.09435865 0.07580390
v -0.00968611 0.08851803 0.07576840
v -0.01907789 0.09103449 0.07578369
v -0.01938790 0.09018282 0.07577851
v 0.05582529 0.15329306 0.07616216
v 0.05493271 0.15313567 0.07616120
v -0.00984347 0.08762542 0.07576297
v -0.00968611 0.08851803 0.07576840
v 0.05668652 0.14344974 0.07610232
v 0.05578017 0.14344974 0.07610232
v -0.00000000 0.08676427 0.07575773
v -0.00000000 0.08767059 0.07576325
v 0.05582529 0.13360642 0.07604248
v 0.05493271 0.13376382 0.07604344
v 0.00984347 0.08762542 0.07576297
v 0.00968611 0.08851803 0.07576840
v 0.01907789 0.09103449 0.07578369
v 0.05326789 0.12406211 0.07598446
v 0.05241620 0.12437209 0.07598635
v 0.01938790 0.09018282 0.07577851
v 0.04830706 0.11556016 0.07593279
v 0.04909193 0.11510697 0.07593003
v 0.02834326 0.09435865 0.07580390
v 0.01907789 0.09103449 0.07578369
v 0.02789008 0.09514357 0.07580867
v 0.04273009 0.10759561 0.07588436
v 0.04342436 0.10701302 0.07588083
v 0.04273009 0.10759561 0.07588436
v 0.03585481 0.10072044 0.07584257
v 0.04342436 0.10701302 0.07588083
v 0.03643739 0.10002615 0.07583836
v 0.02834326 0.09435865 0.07580390
v 0.03643739 0.10002615 0.07583836
v 0.04342436 0.10701302 0.07588083
v 0.03585481 0.10072044 0.07584257
v 0.03585481 0.10072044 0.07584257
v -0.05493271 0.15313567 0.07616120
v -0.05578017 0.14344974 0.07610232
v -0.05584996 0.14349838 0.06810252
v -0.05500149 0.15319650 0.06816147
v -0.05248183 0.16259992 0.06821863
v -0.05241620 0.16252738 0.07621829
v -0.04830706 0.17133932 0.07627185
v -0.04836750 0.17142287 0.06827227
v -0.04273009 0.17930387 0.07632028
v -0.04278355 0.17939742 0.06832074
v -0.03589963 0.18628119 0.06836259
v -0.03585481 0.18617906 0.07636207
v -0.02792495 0.19186498 0.06839653
v -0.02789008 0.19175595 0.07639597
v -0.01910179 0.19597919 0.06842154
v -0.01907789 0.19586498 0.07642095
v -0.00969821 0.19849886 0.06843686
v -0.00968611 0.19838151 0.07643624
v -0.00000000 0.19934735 0.06844202
v -0.00000000 0.19922890 0.07644139
v 0.00969821 0.19849886 0.06843686
v 0.00968611 0.19838151 0.07643624
v 0.01910179 0.19597919 0.06842154
v 0.01907789 0.19586498 0.07642095
v 0.02792495 0.19186498 0.06839653
v 0.02789008 0.19175595 0.07639597
v 0.03589963 0.18628119 0.06836259
v 0.03585481 0.18617906 0.07636207
v 0.04278355 0.17939742 0.06832074
v 0.04273009 0.17930387 0.07632028
v 0.04836750 0.17142287 0.06827227
v 0.04830706 0.17133932 0.07627185
v 0.05241620 0.16252738 0.07621829
v 0.05248183 0.16259992 0.06821863
v 0.05500149 0.15319650 0.06816147
v 0.05493271 0.15313567 0.07616120
v 0.05584996 0.14349838 0.06810252
v 0.05578017 0.14344974 0.07610232
v 0.05500149 0.13380027 0.06804357
v 0.05493271 0.13376382 0.07604344
v 0.05248183 0.12439692 0.06798641
v 0.05241620 0.12437209 0.07598635
v 0.04836750 0.11557388 0.06793277
v 0.04830706 0.11556016 0.07593279
v 0.04278355 0.10759933 0.06788430
v 0.04273009 0.10759561 0.07588436
v 0.03589963 0.10071556 0.06784245
v 0.03585481 0.10072044 0.07584257
v 0.02792495 0.09513175 0.06780851
v 0.02789008 0.09514357 0.07580867
v 0.01910179 0.09101750 0.06778350
v 0.01907789 0.09103449 0.07578369
v 0.00968611 0.08851803 0.07576840
v 0.00969821 0.08849788 0.06776818
v -0.00000000 0.08764943 0.06776302
v -0.00000000 0.08767059 0.07576325
v -0.00969821 0.08849788 0.06776818
v -0.00968611 0.08851803 0.07576840
v -0.01910179 0.09101750 0.06778350
v -0.01907789 0.09103449 0.07578369
v -0.02789008 0.09514357 0.07580867
v -0.02792495 0.09513175 0.06780851
v -0.03589963 0.10071556 0.06784245
v -0.03585481 0.10072044 0.07584257
v -0.04278355 0.10759933 0.06788430
v -0.04273009 0.10759561 0.07588436
v -0.04836750 0.11557388 0.06793277
v -0.04830706 0.11556016 0.07593279
v -0.05241620 0.12437209 0.07598635
v -0.05248183 0.12439692 0.06798641
v -0.05493271 0.13376382 0.07604344
v -0.05500149 0.13380027 0.06804357
v -0.05584996 0.14349838 0.06810252
v -0.05578017 0.14344974 0.07610232
f 1 2 3
f 1 3 4
f 5 3 6
f 5 4 3
f 7 8 2
f 7 2 1
f 9 6 10
f 9 5 6
f 11 12 8
f 11 8 7
f 13 9 10
f 14 9 13
f 15 16 12
f 15 12 11
f 17 14 13
f 18 14 17
f 19 16 15
f 19 20 16
f 21 17 22
f 21 18 17
f 23 20 19
f 23 24 20
f 25 21 22
f 26 21 25
f 27 24 23
f 27 28 24
f 29 26 25
f 30 26 29
f 31 32 28
f 31 28 27
f 33 30 29
f 33 29 34
f 35 36 32
f 35 32 31
f 37 33 34
f 37 38 33
f 39 35 40
f 39 36 35
f 41 38 37
f 42 41 37
f 43 40 44
f 43 39 40
f 45 41 42
f 46 43 44
f 47 45 42
f 48 43 46
f 49 50 45
f 49 45 47
f 51 46 52
f 51 48 46
f 53 51 52
f 54 55 50
f 54 50 49
f 56 51 53
f 57 56 53
f 58 59 55
f 58 55 54
f 60 56 57
f 61 62 59
f 61 59 58
f 63 57 64
f 63 60 57
f 65 66 62
f 65 62 61
f 67 63 64
f 67 64 68
f 69 66 65
f 69 70 66
f 71 67 68
f 71 70 69
f 71 72 70
f 71 68 72
f 73 74 75
f 73 75 76
f 77 76 78
f 77 73 76
f 79 78 80
f 79 77 78
f 81 80 82
f 81 79 80
f 83 82 84
f 83 84 85
f 83 81 82
f 86 83 85
f 87 86 85
f 87 85 88
f 89 87 88
f 89 88 90
f 91 89 90
f 91 90 92
f 93 91 92
f 93 92 94
f 95 93 94
f 95 94 96
f 95 96 97
f 98 95 97
f 99 98 97
f 99 97 100
f 101 99 100
f 101 100 102
f 103 101 102
f 103 102 104
f 105 103 104
f 105 104 106
f 107 105 106
f 107 106 108
f 109 107 108
f 109 108 110
f 111 110 112
f 111 109 110
f 113 112 114
f 113 111 112
f 115 114 116
f 115 113 114
f 117 116 118
f 117 115 116
f 119 118 120
f 119 117 118
f 121 120 122
f 121 119 120
f 123 122 124
f 123 121 122
f 125 124 126
f 125 123 124
f 127 126 128
f 127 125 126
f 129 128 130
f 129 127 128
f 131 130 132
f 131 129 130
f 133 132 134
f 133 131 132
f 135 133 134
f 135 134 136
f 137 135 136
f 137 136 138
f 139 137 138
f 139 138 140
f 141 139 140
f 141 140 142
f 143 141 142
f 143 142 144
f 143 144 145
f 146 143 145
f 147 148 149
f 150 149 151
f 150 147 149
f 152 148 147
f 153 151 154
f 153 150 151
f 155 148 152
f 156 155 152
f 157 154 158
f 157 153 154
f 159 157 158
f 160 161 155
f 160 155 156
f 162 157 159
f 163 164 161
f 163 161 160
f 165 159 166
f 165 162 159
f 167 168 164
f 167 164 163
f 169 166 170
f 169 165 166
f 171 169 170
f 172 173 168
f 172 168 167
f 174 169 171
f 175 176 173
f 175 173 172
f 177 174 171
f 177 171 178
f 179 176 175
f 180 179 175
f 181 177 178
f 181 178 182
f 183 179 180
f 184 181 182
f 185 179 183
f 186 184 182
f 187 185 183
f 188 184 186
f 189 185 187
f 190 188 186
f 191 189 187
f 192 188 190
f 193 189 191
f 194 192 190
f 195 193 191
f 196 193 195
f 197 198 199
f 197 199 194
f 200 195 201
f 200 196 195
f 202 203 198
f 202 198 197
f 204 200 201
f 205 203 202
f 206 200 204
f 207 205 202
f 208 204 209
f 208 206 204
f 210 211 205
f 210 205 207
f 212 208 209
f 213 208 212
f 214 211 210
f 214 215 211
f 216 213 212
f 216 212 217
f 218 215 214
f 218 216 217
f 218 217 219
f 218 219 215
f 220 221 222
f 220 222 223
f 224 223 225
f 224 220 223
f 226 225 227
f 226 224 225
f 228 227 229
f 228 226 227
f 230 229 231
f 230 228 229
f 232 230 231
f 233 230 232
f 234 233 232
f 234 232 235
f 236 234 235
f 236 235 237
f 238 236 237
f 239 236 238
f 240 239 238
f 240 238 241
f 242 240 241
f 242 241 243
f 244 242 243
f 245 242 244
f 246 245 244
f 246 244 247
f 248 246 247
f 248 247 249
f 250 248 249
f 250 249 251
f 252 250 251
f 252 251 253
f 254 252 253
f 254 253 255
f 256 254 255
f 257 254 256
f 258 257 256
f 258 256 259
f 260 258 259
f 260 259 261
f 262 261 263
f 262 260 261
f 264 263 265
f 264 262 263
f 266 264 265
f 267 264 266
f 268 267 266
f 269 267 268
f 270 268 271
f 270 269 268
f 272 271 273
f 272 270 271
f 274 272 273
f 275 272 274
f 276 274 277
f 276 275 274
f 278 276 277
f 279 276 278
f 280 278 281
f 280 279 278
f 282 281 283
f 282 280 281
f 284 282 283
f 285 282 284
f 286 285 284
f 286 284 287
f 288 286 287
f 288 287 289
f 290 288 289
f 290 289 291
f 292 290 291
f 293 290 292
f 294 295 296
f 297 298 299
f 300 301 302
f 303 299 298
f 304 305 306
f 304 297 305
f 307 308 301
f 307 301 300
f 309 306 310
f 309 304 306
f 311 308 307
f 312 311 313
f 314 310 315
f 314 309 310
f 316 317 311
f 316 311 312
f 318 315 319
f 318 314 315
f 320 317 316
f 321 320 316
f 322 319 323
f 322 318 319
f 324 322 323
f 325 320 321
f 325 326 320
f 327 322 324
f 328 326 329
f 330 327 324
f 331 328 329
f 332 327 330
f 333 334 328
f 333 335 331
f 336 332 330
f 337 330 338
f 339 334 333
f 340 336 341
f 342 334 339
f 343 340 341
f 344 339 345
f 344 342 339
f 346 340 343
f 346 347 340
f 348 347 346
f 349 345 350
f 349 344 345
f 351 348 352
f 353 354 355
f 356 350 357
f 356 349 350
f 358 359 351
f 360 356 357
f 360 357 361
f 362 363 353
f 362 359 358
f 364 361 365
f 364 360 361
f 366 367 363
f 366 363 362
f 368 367 366
f 369 365 370
f 369 364 365
f 371 368 366
f 372 369 370
f 373 369 372
f 374 375 371
f 374 376 375
f 377 373 372
f 378 379 380
f 381 373 377
f 382 376 383
f 384 385 386
f 382 387 376
f 388 389 390
f 391 388 390
f 392 393 388
f 392 388 391
f 394 393 392
f 395 394 392
f 396 394 395
f 397 396 395
f 398 399 396
f 398 396 397
f 400 401 399
f 400 399 398
f 402 401 400
f 402 403 401
f 404 403 402
f 404 405 403
f 406 405 404
f 406 407 405
f 408 407 406
f 408 409 407
f 410 409 408
f 410 411 409
f 412 411 410
f 412 413 411
f 414 413 412
f 414 415 413
f 416 415 414
f 416 417 415
f 418 417 416
f 418 419 417
f 420 419 418
f 421 420 418
f 422 420 421
f 422 423 420
f 424 423 422
f 424 425 423
f 426 425 424
f 426 427 425
f 428 427 426
f 428 429 427
f 430 431 429
f 430 429 428
f 432 433 431
f 432 431 430
f 434 435 433
f 434 433 432
f 436 437 435
f 436 435 434
f 438 439 437
f 438 437 436
f 440 439 438
f 441 440 438
f 442 443 440
f 442 440 441
f 444 445 443
f 444 443 442
f 446 447 445
f 446 445 444
f 448 447 446
f 449 448 446
f 450 448 449
f 450 451 448
f 452 451 450
f 452 453 451
f 454 453 452
f 454 455 453
f 456 455 454
f 457 456 454
f 458 456 457
f 459 458 457
f 460 458 459
f 460 461 458

