# https://github.com/mikedh/trimesh
v -0.02780741 -0.06917711 0.13338284
v -0.02506870 -0.06921688 0.13992533
v -0.02987569 -0.06918766 0.13511842
v -0.02333319 -0.06920431 0.13785708
v -0.03143668 -0.06914560 0.12819985
v -0.03377497 -0.06915381 0.12954982
v -0.01814997 -0.06922637 0.14148630
v -0.01949995 -0.06924058 0.14382455
v -0.03411084 -0.06911074 0.12246525
v -0.03664797 -0.06911636 0.12338863
v -0.01241528 -0.06924263 0.14416036
v -0.01333874 -0.06925805 0.14669751
v -0.00677222 -0.06926875 0.14845687
v -0.03574848 -0.06907360 0.11635346
v -0.03840750 -0.06907644 0.11682225
v -0.00630337 -0.06925258 0.14579803
v -0.03630000 -0.06903528 0.11005008
v -0.03899997 -0.06903528 0.11005008
v 0.00000000 -0.06925593 0.14634942
v 0.00000000 -0.06927235 0.14904946
v -0.03840750 -0.06899410 0.10327800
v 0.00677222 -0.06926875 0.14845687
v -0.03574848 -0.06899696 0.10374680
v 0.00630337 -0.06925258 0.14579803
v -0.03664797 -0.06895419 0.09671161
v -0.03411084 -0.06895980 0.09763505
v 0.01241528 -0.06924263 0.14416036
v 0.01333874 -0.06925805 0.14669751
v -0.03377497 -0.06891674 0.09055050
v -0.03143668 -0.06892494 0.09190047
v 0.01814997 -0.06922637 0.14148630
v 0.01949995 -0.06924058 0.14382455
v -0.02987569 -0.06888289 0.08498187
v -0.02780741 -0.06889344 0.08671740
v 0.02333319 -0.06920431 0.13785708
v 0.02506870 -0.06921688 0.13992533
v -0.02333319 -0.06886624 0.08224326
v -0.02506870 -0.06885367 0.08017496
v 0.02987569 -0.06918766 0.13511842
v 0.02780741 -0.06917711 0.13338284
v -0.01814997 -0.06884418 0.07861401
v 0.03143668 -0.06914560 0.12819985
v -0.01949995 -0.06882996 0.07627576
v 0.03377497 -0.06915381 0.12954982
v -0.01333874 -0.06881250 0.07340281
v -0.01241528 -0.06882792 0.07593995
v 0.03664797 -0.06911636 0.12338863
v 0.03411084 -0.06911074 0.12246525
v -0.00630337 -0.06881797 0.07430229
v -0.00677222 -0.06880181 0.07164337
v 0.03840750 -0.06907644 0.11682225
v 0.03574848 -0.06907360 0.11635346
v 0.00000000 -0.06881461 0.07375083
v 0.03630000 -0.06903528 0.11005008
v 0.00000000 -0.06879820 0.07105085
v 0.03899997 -0.06903528 0.11005008
v 0.00677222 -0.06880181 0.07164337
v 0.00630337 -0.06881797 0.07430229
v 0.03840750 -0.06899410 0.10327800
v 0.03574848 -0.06899696 0.10374680
v 0.01241528 -0.06882792 0.07593995
v 0.01333874 -0.06881250 0.07340281
v 0.01814997 -0.06884418 0.07861401
v 0.03664797 -0.06895419 0.09671161
v 0.03411084 -0.06895980 0.09763505
v 0.01949995 -0.06882996 0.07627576
v 0.02333319 -0.06886624 0.08224326
v 0.03377497 -0.06891674 0.09055050
v 0.03143668 -0.06892494 0.09190047
v 0.02506870 -0.06885367 0.08017496
v 0.02987569 -0.06888289 0.08498187
v 0.02780741 -0.06889344 0.08671740
v -0.02780741 -0.06467723 0.13341020
v -0.02987569 -0.06468778 0.13514578
v -0.02506870 -0.06471700 0.13995269
v -0.02333319 -0.06470443 0.13788444
v -0.03143668 -0.06464572 0.12822720
v -0.03377497 -0.06465393 0.12957717
v -0.01814997 -0.06472649 0.14151366
v -0.01949995 -0.06474070 0.14385191
v -0.03411084 -0.06461086 0.12249260
v -0.03664797 -0.06461648 0.12341599
v -0.01241528 -0.06474274 0.14418772
v -0.01333874 -0.06475817 0.14672486
v -0.00677222 -0.06476887 0.14848423
v -0.03574848 -0.06457371 0.11638082
v -0.03840750 -0.06457656 0.11684961
v -0.00630337 -0.06475270 0.14582539
v -0.03630000 -0.06453539 0.11007744
v -0.03899997 -0.06453539 0.11007744
v 0.00000000 -0.06475605 0.14637677
v 0.00000000 -0.06477246 0.14907682
v -0.03840750 -0.06449422 0.10330536
v 0.00677222 -0.06476887 0.14848423
v -0.03574848 -0.06449708 0.10377416
v 0.00630337 -0.06475270 0.14582539
v -0.03664797 -0.06445431 0.09673896
v -0.03411084 -0.06445992 0.09766241
v 0.01241528 -0.06474274 0.14418772
v 0.01333874 -0.06475817 0.14672486
v -0.03377497 -0.06441686 0.09057786
v -0.03143668 -0.06442506 0.09192783
v 0.01814997 -0.06472649 0.14151366
v 0.01949995 -0.06474070 0.14385191
v -0.02987569 -0.06438301 0.08500923
v -0.02780741 -0.06439356 0.08674476
v 0.02333319 -0.06470443 0.13788444
v 0.02506870 -0.06471700 0.13995269
v -0.02333319 -0.06436636 0.08227062
v -0.02506870 -0.06435379 0.08020232
v 0.02987569 -0.06468778 0.13514578
v 0.02780741 -0.06467723 0.13341020
v -0.01814997 -0.06434429 0.07864137
v 0.03143668 -0.06464572 0.12822720
v -0.01949995 -0.06433008 0.07630312
v 0.03377497 -0.06465393 0.12957717
v -0.01333874 -0.06431261 0.07343017
v -0.01241528 -0.06432804 0.07596731
v 0.03664797 -0.06461648 0.12341599
v 0.03411084 -0.06461086 0.12249260
v -0.00630337 -0.06431808 0.07432965
v -0.00677222 -0.06430192 0.07167073
v 0.03840750 -0.06457656 0.11684961
v 0.03574848 -0.06457371 0.11638082
v 0.00000000 -0.06431473 0.07377819
v 0.03630000 -0.06453539 0.11007744
v 0.00000000 -0.06429832 0.07107821
v 0.03899997 -0.06453539 0.11007744
v 0.00677222 -0.06430192 0.07167073
v 0.00630337 -0.06431808 0.07432965
v 0.03840750 -0.06449422 0.10330536
v 0.03574848 -0.06449708 0.10377416
v 0.01241528 -0.06432804 0.07596731
v 0.01333874 -0.06431261 0.07343017
v 0.01814997 -0.06434429 0.07864137
v 0.03664797 -0.06445431 0.09673896
v 0.03411084 -0.06445992 0.09766241
v 0.01949995 -0.06433008 0.07630312
v 0.02333319 -0.06436636 0.08227062
v 0.03377497 -0.06441686 0.09057786
v 0.03143668 -0.06442506 0.09192783
v 0.02506870 -0.06435379 0.08020232
v 0.02987569 -0.06438301 0.08500923
v 0.02780741 -0.06439356 0.08674476
v 0.00000000 -0.06429832 0.07107821
v 0.00000000 -0.06879820 0.07105085
v -0.00677222 -0.06880181 0.07164337
v -0.00677222 -0.06430192 0.07167073
v -0.01333874 -0.06431261 0.07343017
v -0.01333874 -0.06881250 0.07340281
v -0.01949995 -0.06433008 0.07630312
v -0.01949995 -0.06882996 0.07627576
v -0.02506870 -0.06885367 0.08017496
v -0.02506870 -0.06435379 0.08020232
v -0.02987569 -0.06438301 0.08500923
v -0.02987569 -0.06888289 0.08498187
v -0.03377497 -0.06441686 0.09057786
v -0.03377497 -0.06891674 0.09055050
v -0.03664797 -0.06445431 0.09673896
v -0.03664797 -0.06895419 0.09671161
v -0.03840750 -0.06449422 0.10330536
v -0.03840750 -0.06899410 0.10327800
v -0.03899997 -0.06453539 0.11007744
v -0.03899997 -0.06903528 0.11005008
v -0.03840750 -0.06457656 0.11684961
v -0.03840750 -0.06907644 0.11682225
v -0.03664797 -0.06461648 0.12341599
v -0.03664797 -0.06911636 0.12338863
v -0.03377497 -0.06465393 0.12957717
v -0.03377497 -0.06915381 0.12954982
v -0.02987569 -0.06918766 0.13511842
v -0.02987569 -0.06468778 0.13514578
v -0.02506870 -0.06471700 0.13995269
v -0.02506870 -0.06921688 0.13992533
v -0.01949995 -0.06924058 0.14382455
v -0.01949995 -0.06474070 0.14385191
v -0.01333874 -0.06925805 0.14669751
v -0.01333874 -0.06475817 0.14672486
v -0.00677222 -0.06476887 0.14848423
v -0.00677222 -0.06926875 0.14845687
v 0.00000000 -0.06477246 0.14907682
v 0.00000000 -0.06927235 0.14904946
v 0.00677222 -0.06476887 0.14848423
v 0.00677222 -0.06926875 0.14845687
v 0.01333874 -0.06925805 0.14669751
v 0.01333874 -0.06475817 0.14672486
v 0.01949995 -0.06474070 0.14385191
v 0.01949995 -0.06924058 0.14382455
v 0.02506870 -0.06921688 0.13992533
v 0.02506870 -0.06471700 0.13995269
v 0.02987569 -0.06918766 0.13511842
v 0.02987569 -0.06468778 0.13514578
v 0.03377497 -0.06465393 0.12957717
v 0.03377497 -0.06915381 0.12954982
v 0.03664797 -0.06911636 0.12338863
v 0.03664797 -0.06461648 0.12341599
v 0.03840750 -0.06907644 0.11682225
v 0.03840750 -0.06457656 0.11684961
v 0.03899997 -0.06903528 0.11005008
v 0.03899997 -0.06453539 0.11007744
v 0.03840750 -0.06899410 0.10327800
v 0.03840750 -0.06449422 0.10330536
v 0.03664797 -0.06445431 0.09673896
v 0.03664797 -0.06895419 0.09671161
v 0.03377497 -0.06891674 0.09055050
v 0.03377497 -0.06441686 0.09057786
v 0.02987569 -0.06888289 0.08498187
v 0.02987569 -0.06438301 0.08500923
v 0.02506870 -0.06435379 0.08020232
v 0.02506870 -0.06885367 0.08017496
v 0.01949995 -0.06882996 0.07627576
v 0.01949995 -0.06433008 0.07630312
v 0.01333874 -0.06431261 0.07343017
v 0.01333874 -0.06881250 0.07340281
v 0.00677222 -0.06880181 0.07164337
v 0.00677222 -0.06430192 0.07167073
v 0.00000000 -0.06429832 0.07107821
v 0.00000000 -0.06879820 0.07105085
v 0.00000000 -0.06431473 0.07377819
v -0.00630337 -0.06881797 0.07430229
v 0.00000000 -0.06881461 0.07375083
v -0.00630337 -0.06431808 0.07432965
v -0.01241528 -0.06432804 0.07596731
v -0.01241528 -0.06882792 0.07593995
v -0.01814997 -0.06434429 0.07864137
v -0.02333319 -0.06886624 0.08224326
v -0.01814997 -0.06884418 0.07861401
v -0.02333319 -0.06436636 0.08227062
v -0.02780741 -0.06439356 0.08674476
v -0.03143668 -0.06892494 0.09190047
v -0.02780741 -0.06889344 0.08671740
v -0.03143668 -0.06442506 0.09192783
v -0.03411084 -0.06895980 0.09763505
v -0.03411084 -0.06445992 0.09766241
v -0.03574848 -0.06449708 0.10377416
v -0.03574848 -0.06899696 0.10374680
v -0.03630000 -0.06453539 0.11007744
v -0.03574848 -0.06907360 0.11635346
v -0.03630000 -0.06903528 0.11005008
v -0.03574848 -0.06457371 0.11638082
v -0.03411084 -0.06461086 0.12249260
v -0.03411084 -0.06911074 0.12246525
v -0.03143668 -0.06464572 0.12822720
v -0.03143668 -0.06914560 0.12819985
v -0.02780741 -0.06467723 0.13341020
v -0.02780741 -0.06917711 0.13338284
v -0.02333319 -0.06470443 0.13788444
v -0.02333319 -0.06920431 0.13785708
v -0.01814997 -0.06472649 0.14151366
v -0.01814997 -0.06922637 0.14148630
v -0.01241528 -0.06474274 0.14418772
v -0.01241528 -0.06924263 0.14416036
v -0.00630337 -0.06475270 0.14582539
v -0.00630337 -0.06925258 0.14579803
v 0.00000000 -0.06475605 0.14637677
v 0.00630337 -0.06925258 0.14579803
v 0.00000000 -0.06925593 0.14634942
v 0.00630337 -0.06475270 0.14582539
v 0.01241528 -0.06474274 0.14418772
v 0.01241528 -0.06924263 0.14416036
v 0.01814997 -0.06472649 0.14151366
v 0.01814997 -0.06922637 0.14148630
v 0.02333319 -0.06470443 0.13788444
v 0.02333319 -0.06920431 0.13785708
v 0.02780741 -0.06467723 0.13341020
v 0.02780741 -0.06917711 0.13338284
v 0.03143668 -0.06464572 0.12822720
v 0.03143668 -0.06914560 0.12819985
v 0.03411084 -0.06461086 0.12249260
v 0.03411084 -0.06911074 0.12246525
v 0.03574848 -0.06457371 0.11638082
v 0.03574848 -0.06907360 0.11635346
v 0.03630000 -0.06453539 0.11007744
v 0.03630000 -0.06903528 0.11005008
v 0.03574848 -0.06449708 0.10377416
v 0.03574848 -0.06899696 0.10374680
v 0.03411084 -0.06445992 0.09766241
v 0.03411084 -0.06895980 0.09763505
v 0.03143668 -0.06442506 0.09192783
v 0.03143668 -0.06892494 0.09190047
v 0.02780741 -0.06439356 0.08674476
v 0.02780741 -0.06889344 0.08671740
v 0.02333319 -0.06436636 0.08227062
v 0.02333319 -0.06886624 0.08224326
v 0.01814997 -0.06434429 0.07864137
v 0.01814997 -0.06884418 0.07861401
v 0.01241528 -0.06432804 0.07596731
v 0.01241528 -0.06882792 0.07593995
v 0.00630337 -0.06431808 0.07432965
v 0.00630337 -0.06881797 0.07430229
v 0.00000000 -0.06431473 0.07377819
v 0.00000000 -0.06881461 0.07375083
f 1 2 3
f 4 2 1
f 5 3 6
f 5 1 3
f 7 8 2
f 7 2 4
f 9 6 10
f 9 5 6
f 11 12 8
f 11 8 7
f 13 12 11
f 14 10 15
f 14 9 10
f 16 13 11
f 17 15 18
f 17 14 15
f 19 13 16
f 19 20 13
f 21 17 18
f 22 20 19
f 23 17 21
f 24 22 19
f 25 23 21
f 26 23 25
f 27 22 24
f 27 28 22
f 29 26 25
f 30 26 29
f 31 32 28
f 31 28 27
f 33 30 29
f 34 30 33
f 35 32 31
f 35 36 32
f 37 34 33
f 38 37 33
f 39 36 35
f 39 35 40
f 41 37 38
f 42 39 40
f 43 41 38
f 44 39 42
f 45 41 43
f 45 46 41
f 47 42 48
f 47 44 42
f 49 46 45
f 50 49 45
f 51 48 52
f 51 47 48
f 53 49 50
f 54 51 52
f 55 53 50
f 56 51 54
f 57 58 53
f 57 53 55
f 59 54 60
f 59 56 54
f 61 58 57
f 62 63 61
f 62 61 57
f 64 60 65
f 64 59 60
f 66 63 62
f 66 67 63
f 68 64 65
f 68 65 69
f 70 67 66
f 71 68 69
f 71 67 70
f 71 72 67
f 71 69 72
f 73 74 75
f 76 73 75
f 77 78 74
f 77 74 73
f 79 75 80
f 79 76 75
f 81 82 78
f 81 78 77
f 83 80 84
f 83 79 80
f 85 83 84
f 86 87 82
f 86 82 81
f 88 83 85
f 89 90 87
f 89 87 86
f 91 88 85
f 91 85 92
f 93 90 89
f 94 91 92
f 95 93 89
f 96 91 94
f 97 93 95
f 98 97 95
f 99 96 94
f 99 94 100
f 101 97 98
f 102 101 98
f 103 100 104
f 103 99 100
f 105 101 102
f 106 105 102
f 107 103 104
f 107 104 108
f 109 105 106
f 110 105 109
f 111 107 108
f 111 112 107
f 113 110 109
f 114 112 111
f 115 110 113
f 116 114 111
f 117 115 113
f 117 113 118
f 119 120 114
f 119 114 116
f 121 117 118
f 122 117 121
f 123 124 120
f 123 120 119
f 125 122 121
f 126 124 123
f 127 122 125
f 128 126 123
f 129 125 130
f 129 127 125
f 131 132 126
f 131 126 128
f 133 129 130
f 134 133 135
f 134 129 133
f 136 137 132
f 136 132 131
f 138 134 135
f 138 135 139
f 140 137 136
f 140 141 137
f 142 138 139
f 143 141 140
f 143 142 139
f 143 139 144
f 143 144 141
f 145 146 147
f 148 145 147
f 149 147 150
f 149 148 147
f 151 152 153
f 151 150 152
f 151 149 150
f 154 151 153
f 155 154 153
f 155 153 156
f 157 155 156
f 157 156 158
f 159 157 158
f 159 158 160
f 161 159 160
f 161 160 162
f 163 161 162
f 163 162 164
f 165 163 164
f 165 164 166
f 167 165 166
f 167 166 168
f 169 167 168
f 169 170 171
f 169 168 170
f 172 169 171
f 173 172 171
f 173 174 175
f 173 171 174
f 176 173 175
f 176 175 177
f 178 176 177
f 179 178 177
f 179 177 180
f 181 179 180
f 181 180 182
f 183 184 185
f 183 182 184
f 183 181 182
f 186 183 185
f 187 188 189
f 187 185 188
f 187 186 185
f 190 189 191
f 190 187 189
f 192 190 191
f 193 194 195
f 193 191 194
f 193 192 191
f 196 195 197
f 196 193 195
f 198 197 199
f 198 196 197
f 200 199 201
f 200 198 199
f 202 200 201
f 203 204 205
f 203 201 204
f 203 202 201
f 206 205 207
f 206 203 205
f 208 206 207
f 209 210 211
f 209 207 210
f 209 208 207
f 212 209 211
f 213 212 211
f 213 214 215
f 213 211 214
f 216 213 215
f 217 216 215
f 217 215 218
f 219 220 221
f 222 220 219
f 223 224 220
f 223 220 222
f 225 226 227
f 225 227 224
f 225 224 223
f 228 226 225
f 229 226 228
f 229 230 231
f 229 231 226
f 232 233 230
f 232 230 229
f 234 233 232
f 235 233 234
f 235 236 233
f 237 236 235
f 237 238 239
f 237 239 236
f 240 238 237
f 241 238 240
f 241 242 238
f 243 242 241
f 243 244 242
f 245 244 243
f 245 246 244
f 247 246 245
f 247 248 246
f 249 248 247
f 249 250 248
f 251 250 249
f 251 252 250
f 253 252 251
f 253 254 252
f 255 254 253
f 255 256 257
f 255 257 254
f 258 256 255
f 259 260 256
f 259 256 258
f 261 262 260
f 261 260 259
f 263 264 262
f 263 262 261
f 265 266 264
f 265 264 263
f 267 268 266
f 267 266 265
f 269 270 268
f 269 268 267
f 271 272 270
f 271 270 269
f 273 274 272
f 273 272 271
f 275 276 274
f 275 274 273
f 277 278 276
f 277 276 275
f 279 280 278
f 279 278 277
f 281 282 280
f 281 280 279
f 283 282 281
f 283 284 282
f 285 284 283
f 285 286 284
f 287 286 285
f 287 288 286
f 289 288 287
f 289 290 288
f 291 290 289
f 291 292 290

