# https://github.com/mikedh/trimesh
v 0.02681154 0.08489861 0.54495275
v 0.02749580 0.08489513 0.54552680
v 0.02307170 0.08486823 0.54995090
v 0.02249753 0.08487239 0.54926670
v 0.02681154 0.08489861 0.54495275
v 0.02307170 0.08486823 0.54995090
v 0.01794660 0.08484642 0.55353951
v 0.03031086 0.08492900 0.53995526
v 0.03108447 0.08492628 0.54040188
v 0.02749580 0.08489513 0.54552680
v 0.03031086 0.08492900 0.53995526
v 0.01749998 0.08485112 0.55276591
v 0.02249753 0.08487239 0.54926670
v 0.01794660 0.08484642 0.55353951
v 0.01227617 0.08483034 0.55618358
v 0.01749998 0.08485112 0.55276591
v 0.03288918 0.08496261 0.53442603
v 0.03372859 0.08496075 0.53473151
v 0.03108447 0.08492628 0.54040188
v 0.03288918 0.08496261 0.53442603
v 0.01197069 0.08483545 0.55534416
v 0.00623280 0.08482050 0.55780292
v 0.03446823 0.08499843 0.52853310
v 0.03534793 0.08499748 0.52868825
v 0.03372859 0.08496075 0.53473151
v 0.03288918 0.08496261 0.53442603
v 0.00607765 0.08482585 0.55692327
v -0.00000000 0.08481719 0.55834818
v 0.03499996 0.08503538 0.52245557
v 0.03589326 0.08503538 0.52245557
v -0.00000000 0.08482262 0.55745488
v -0.00623280 0.08482050 0.55780292
v 0.03446823 0.08507232 0.51637799
v 0.03534793 0.08507326 0.51622289
v -0.00607765 0.08482585 0.55692327
v -0.01227617 0.08483034 0.55618358
v 0.03288918 0.08510814 0.51048511
v 0.03534793 0.08507326 0.51622289
v 0.03446823 0.08507232 0.51637799
v 0.03288918 0.08510814 0.51048511
v 0.03372859 0.08511000 0.51017958
v 0.03534793 0.08507326 0.51622289
v -0.01197069 0.08483545 0.55534416
v -0.01794660 0.08484642 0.55353951
v 0.03031086 0.08514175 0.50495589
v 0.03108447 0.08514447 0.50450933
v 0.03372859 0.08511000 0.51017958
v 0.03031086 0.08514175 0.50495589
v 0.03372859 0.08511000 0.51017958
v 0.03288918 0.08510814 0.51048511
v -0.01749998 0.08485112 0.55276591
v -0.02307170 0.08486823 0.54995090
v 0.02681154 0.08517213 0.49995837
v 0.02749580 0.08517562 0.49938419
v 0.03108447 0.08514447 0.50450933
v -0.02249753 0.08487239 0.54926670
v -0.01749998 0.08485112 0.55276591
v -0.02307170 0.08486823 0.54995090
v 0.02249753 0.08519836 0.49564445
v -0.02749580 0.08489513 0.54552680
v -0.02749580 0.08489513 0.54552680
v -0.02681154 0.08489861 0.54495275
v -0.02249753 0.08487239 0.54926670
v 0.02307170 0.08520252 0.49496016
v 0.01749998 0.08521963 0.49214512
v -0.03108447 0.08492628 0.54040188
v -0.03031086 0.08492900 0.53995526
v -0.02681154 0.08489861 0.54495275
v 0.01794660 0.08522433 0.49137163
v 0.01197069 0.08523530 0.48956686
v -0.03372859 0.08496075 0.53473151
v -0.03288924 0.08496261 0.53442603
v -0.03031086 0.08492900 0.53995526
v -0.03372859 0.08496075 0.53473151
v -0.03031086 0.08492900 0.53995526
v -0.03108447 0.08492628 0.54040188
v 0.01227617 0.08524040 0.48872748
v 0.01197069 0.08523530 0.48956686
v 0.00607765 0.08524489 0.48798791
v -0.03534793 0.08499748 0.52868825
v -0.03446823 0.08499843 0.52853310
v -0.03288924 0.08496261 0.53442603
v -0.03534793 0.08499748 0.52868825
v 0.00623280 0.08525024 0.48710820
v -0.00000000 0.08524813 0.48745611
v -0.03589326 0.08503538 0.52245557
v -0.03499996 0.08503538 0.52245557
v -0.03446823 0.08499843 0.52853310
v -0.03534793 0.08499748 0.52868825
v -0.00000000 0.08525356 0.48656294
v -0.00607765 0.08524489 0.48798791
v -0.03534793 0.08507326 0.51622289
v -0.03446823 0.08507232 0.51637799
v -0.00623280 0.08525024 0.48710820
v -0.01197069 0.08523530 0.48956686
v -0.03372859 0.08511000 0.51017958
v -0.03288924 0.08510814 0.51048511
v -0.01227617 0.08524040 0.48872748
v -0.01749998 0.08521963 0.49214512
v -0.03108447 0.08514447 0.50450933
v -0.03031086 0.08514175 0.50495589
v -0.03288924 0.08510814 0.51048511
v -0.03108447 0.08514447 0.50450933
v -0.03288924 0.08510814 0.51048511
v -0.03372859 0.08511000 0.51017958
v -0.01794660 0.08522433 0.49137163
v -0.02249753 0.08519836 0.49564445
v -0.02749580 0.08517562 0.49938419
v -0.02681154 0.08517213 0.49995837
v -0.03031086 0.08514175 0.50495589
v -0.02307170 0.08520252 0.49496016
v -0.01794660 0.08522433 0.49137163
v -0.02249753 0.08519836 0.49564445
v -0.02749580 0.08517562 0.49938419
v -0.02307170 0.08520252 0.49496016
v -0.02249753 0.08519836 0.49564445
v -0.02681154 0.08517213 0.49995837
v 0.00607765 0.07424514 0.48792103
v -0.00000000 0.07424837 0.48738924
v -0.00000000 0.08524813 0.48745611
v 0.00607765 0.08524489 0.48798791
v 0.01197069 0.07423554 0.48949999
v 0.01197069 0.08523530 0.48956686
v 0.01749998 0.07421987 0.49207824
v 0.01749998 0.08521963 0.49214512
v 0.02249753 0.07419860 0.49557757
v 0.02249753 0.08519836 0.49564445
v 0.02681154 0.07417237 0.49989149
v 0.02681154 0.08517213 0.49995837
v 0.03031086 0.07414199 0.50488901
v 0.03031086 0.08514175 0.50495589
v 0.03288918 0.07410838 0.51041824
v 0.03288918 0.08510814 0.51048511
v 0.03446823 0.07407255 0.51631111
v 0.03446823 0.08507232 0.51637799
v 0.03499996 0.07403561 0.52238870
v 0.03499996 0.08503538 0.52245557
v 0.03446823 0.07399867 0.52846622
v 0.03446823 0.08499843 0.52853310
v 0.03288918 0.07396284 0.53435916
v 0.03288918 0.08496261 0.53442603
v 0.03031086 0.07392924 0.53988838
v 0.03031086 0.08492900 0.53995526
v 0.02681154 0.07389885 0.54488587
v 0.02681154 0.08489861 0.54495275
v 0.02249753 0.07387263 0.54919982
v 0.02249753 0.08487239 0.54926670
v 0.01749998 0.07385136 0.55269903
v 0.01749998 0.08485112 0.55276591
v 0.01197069 0.07383569 0.55527729
v 0.01197069 0.08483545 0.55534416
v 0.00607765 0.07382609 0.55685639
v 0.00607765 0.08482585 0.55692327
v -0.00000000 0.07382286 0.55738801
v -0.00000000 0.08482262 0.55745488
v -0.00607765 0.07382609 0.55685639
v -0.00607765 0.08482585 0.55692327
v -0.01197069 0.07383569 0.55527729
v -0.01197069 0.08483545 0.55534416
v -0.01749998 0.07385136 0.55269903
v -0.01749998 0.08485112 0.55276591
v -0.02249753 0.07387263 0.54919982
v -0.02249753 0.08487239 0.54926670
v -0.02681154 0.07389885 0.54488587
v -0.02681154 0.08489861 0.54495275
v -0.03031086 0.07392924 0.53988838
v -0.03031086 0.08492900 0.53995526
v -0.03288924 0.07396284 0.53435916
v -0.03288924 0.08496261 0.53442603
v -0.03446823 0.07399867 0.52846622
v -0.03446823 0.08499843 0.52853310
v -0.03499996 0.07403561 0.52238870
v -0.03499996 0.08503538 0.52245557
v -0.03446823 0.07407255 0.51631111
v -0.03446823 0.08507232 0.51637799
v -0.03288924 0.07410838 0.51041824
v -0.03288924 0.08510814 0.51048511
v -0.03031086 0.07414199 0.50488901
v -0.03031086 0.08514175 0.50495589
v -0.02681154 0.07417237 0.49989149
v -0.02681154 0.08517213 0.49995837
v -0.02249753 0.07419860 0.49557757
v -0.02249753 0.08519836 0.49564445
v -0.01749998 0.07421987 0.49207824
v -0.01749998 0.08521963 0.49214512
v -0.01197069 0.07423554 0.48949999
v -0.01197069 0.08523530 0.48956686
v -0.00607765 0.08524489 0.48798791
v -0.00607765 0.07424514 0.48792103
v -0.00000000 0.07424837 0.48738924
v -0.00000000 0.08524813 0.48745611
v 0.01197069 0.07423554 0.48949999
v 0.01749998 0.07421987 0.49207824
v 0.02249753 0.07419860 0.49557757
v 0.02681154 0.07417237 0.49989149
v 0.03031086 0.07414199 0.50488901
v 0.03446823 0.07407255 0.51631111
v 0.03288918 0.07410838 0.51041824
v -0.01197069 0.07423554 0.48949999
v -0.00607765 0.07424514 0.48792103
v -0.00000000 0.07424837 0.48738924
v -0.01749998 0.07421987 0.49207824
v 0.03031086 0.07392924 0.53988838
v 0.03446823 0.07399867 0.52846622
v 0.03288918 0.07396284 0.53435916
v -0.02249753 0.07419860 0.49557757
v 0.00607765 0.07424514 0.48792103
v -0.03031086 0.07414199 0.50488901
v -0.02681154 0.07417237 0.49989149
v -0.03288924 0.07410838 0.51041824
v -0.00000000 0.07382286 0.55738801
v 0.02249753 0.07387263 0.54919982
v 0.01749998 0.07385136 0.55269903
v 0.01197069 0.07383569 0.55527729
v 0.00607765 0.07382609 0.55685639
v -0.03446823 0.07399867 0.52846622
v 0.03499996 0.07403561 0.52238870
v -0.03499996 0.07403561 0.52238870
v -0.03446823 0.07407255 0.51631111
v -0.00607765 0.07382609 0.55685639
v -0.01197069 0.07383569 0.55527729
v 0.02681154 0.07389885 0.54488587
v -0.03031086 0.07392924 0.53988838
v -0.03288924 0.07396284 0.53435916
v -0.02681154 0.07389885 0.54488587
v -0.02249753 0.07387263 0.54919982
v -0.01749998 0.07385136 0.55269903
v 0.01787495 0.11007847 0.47260687
v 0.02738606 0.11805902 0.47265539
v 0.02297961 0.11365271 0.47262859
v 0.03359401 0.12881133 0.47272074
v 0.03096038 0.12316364 0.47268641
v 0.02738606 0.11805902 0.47265539
v -0.00000000 0.10528896 0.47257775
v 0.01222717 0.10744492 0.47259086
v 0.00620788 0.10583205 0.47258106
v -0.00000000 0.10528896 0.47257775
v 0.01787495 0.11007847 0.47260687
v 0.01222717 0.10744492 0.47259086
v -0.00000000 0.10528896 0.47257775
v 0.02738606 0.11805902 0.47265539
v 0.01787495 0.11007847 0.47260687
v 0.03520685 0.14724609 0.47283280
v 0.03520685 0.13483050 0.47275734
v 0.03359401 0.12881133 0.47272074
v 0.03574997 0.14103830 0.47279507
v 0.02738606 0.11805902 0.47265539
v 0.03096038 0.15891296 0.47290373
v 0.03359401 0.15326527 0.47286940
v 0.03520685 0.14724609 0.47283280
v -0.01787495 0.11007847 0.47260687
v -0.00620788 0.10583205 0.47258106
v -0.01222717 0.10744492 0.47259086
v -0.01787495 0.11007847 0.47260687
v -0.00000000 0.10528896 0.47257775
v -0.00620788 0.10583205 0.47258106
v 0.03096038 0.15891296 0.47290373
v 0.02738606 0.16401757 0.47293475
v -0.02738606 0.11805902 0.47265539
v -0.01787495 0.11007847 0.47260687
v -0.02297961 0.11365271 0.47262859
v -0.03096038 0.12316364 0.47268641
v -0.01787495 0.11007847 0.47260687
v -0.02738606 0.11805902 0.47265539
v 0.01222717 0.17463169 0.47299927
v 0.02297961 0.16842391 0.47296154
v 0.01222717 0.17463169 0.47299927
v 0.01787495 0.17199813 0.47298327
v 0.02297961 0.16842391 0.47296154
v -0.03520685 0.13483050 0.47275734
v -0.03096038 0.12316364 0.47268641
v -0.03359401 0.12881133 0.47272074
v -0.00000000 0.17678763 0.47301239
v 0.00620788 0.17624456 0.47300908
v -0.00620788 0.17624456 0.47300908
v -0.00000000 0.17678763 0.47301239
v 0.01222717 0.17463169 0.47299927
v -0.03520685 0.14724609 0.47283280
v -0.03520685 0.13483050 0.47275734
v -0.03574997 0.14103830 0.47279507
v -0.01787495 0.17199813 0.47298327
v -0.01222717 0.17463169 0.47299927
v -0.00620788 0.17624456 0.47300908
v -0.02738606 0.16401757 0.47293475
v -0.02738606 0.16401757 0.47293475
v -0.02297961 0.16842391 0.47296154
v -0.01787495 0.17199813 0.47298327
v -0.02738606 0.16401757 0.47293475
v -0.03359401 0.15326527 0.47286940
v -0.03096038 0.15891296 0.47290373
v -0.03359401 0.15326527 0.47286940
v 0.02738606 0.16401757 0.47293475
v -0.03096038 0.12316364 0.47268641
v -0.00000000 0.17678763 0.47301239
v -0.00000000 0.17677851 0.47451234
v 0.00620788 0.17623544 0.47450903
v 0.00620788 0.17624456 0.47300908
v 0.01222717 0.17462257 0.47449923
v 0.01222717 0.17463169 0.47299927
v 0.01787495 0.17198901 0.47448322
v 0.01787495 0.17199813 0.47298327
v 0.02297961 0.16841479 0.47446150
v 0.02297961 0.16842391 0.47296154
v 0.02738606 0.16400845 0.47443470
v 0.02738606 0.16401757 0.47293475
v 0.03096038 0.15890384 0.47440368
v 0.03096038 0.15891296 0.47290373
v 0.03359401 0.15325615 0.47436935
v 0.03359401 0.15326527 0.47286940
v 0.03520685 0.14723697 0.47433275
v 0.03520685 0.14724609 0.47283280
v 0.03574997 0.14102918 0.47429502
v 0.03574997 0.14103830 0.47279507
v 0.03520685 0.13482139 0.47425729
v 0.03520685 0.13483050 0.47275734
v 0.03359401 0.12880221 0.47422069
v 0.03359401 0.12881133 0.47272074
v 0.03096038 0.12315453 0.47418636
v 0.03096038 0.12316364 0.47268641
v 0.02738606 0.11804991 0.47415534
v 0.02738606 0.11805902 0.47265539
v 0.02297961 0.11364359 0.47412854
v 0.02297961 0.11365271 0.47262859
v 0.01787495 0.11006936 0.47410682
v 0.01787495 0.11007847 0.47260687
v 0.01222717 0.10743581 0.47409081
v 0.01222717 0.10744492 0.47259086
v 0.00620788 0.10582294 0.47408101
v 0.00620788 0.10583205 0.47258106
v -0.00000000 0.10527985 0.47407770
v -0.00000000 0.10528896 0.47257775
v -0.00620788 0.10582294 0.47408101
v -0.00620788 0.10583205 0.47258106
v -0.01222717 0.10743581 0.47409081
v -0.01222717 0.10744492 0.47259086
v -0.01787495 0.11006936 0.47410682
v -0.01787495 0.11007847 0.47260687
v -0.02297961 0.11364359 0.47412854
v -0.02297961 0.11365271 0.47262859
v -0.02738606 0.11804991 0.47415534
v -0.02738606 0.11805902 0.47265539
v -0.03096038 0.12315453 0.47418636
v -0.03096038 0.12316364 0.47268641
v -0.03359401 0.12880221 0.47422069
v -0.03359401 0.12881133 0.47272074
v -0.03520685 0.13482139 0.47425729
v -0.03520685 0.13483050 0.47275734
v -0.03574997 0.14102918 0.47429502
v -0.03574997 0.14103830 0.47279507
v -0.03520685 0.14723697 0.47433275
v -0.03520685 0.14724609 0.47283280
v -0.03359401 0.15325615 0.47436935
v -0.03359401 0.15326527 0.47286940
v -0.03096038 0.15890384 0.47440368
v -0.03096038 0.15891296 0.47290373
v -0.02738606 0.16400845 0.47443470
v -0.02738606 0.16401757 0.47293475
v -0.02297961 0.16842391 0.47296154
v -0.02297961 0.16841479 0.47446150
v -0.01787495 0.17198901 0.47448322
v -0.01787495 0.17199813 0.47298327
v -0.01222717 0.17463169 0.47299927
v -0.01222717 0.17462257 0.47449923
v -0.00620788 0.17624456 0.47300908
v -0.00620788 0.17623544 0.47450903
v -0.00000000 0.17677851 0.47451234
v -0.00000000 0.17678763 0.47301239
v 0.02812355 0.08489192 0.54605365
v 0.03189778 0.08489408 0.54569811
v 0.02879172 0.08487131 0.54944378
v 0.02359843 0.08486442 0.55057859
v 0.02523750 0.08485099 0.55278718
v 0.02129405 0.08483347 0.55566943
v 0.03179413 0.08492379 0.54081166
v 0.03667038 0.08494653 0.53707170
v 0.03451800 0.08491899 0.54160070
v 0.01835632 0.08484211 0.55424917
v 0.01702654 0.08481905 0.55804247
v 0.03449863 0.08495905 0.53501183
v 0.01255649 0.08482566 0.55695367
v 0.01249378 0.08480792 0.55987310
v 0.03857040 0.08498417 0.53087944
v 0.03615492 0.08499662 0.52883053
v 0.00637507 0.08481560 0.55860990
v 0.00776631 0.08480027 0.56113112
v 0.00415230 0.08479691 0.56168401
v 0.03943151 0.08502322 0.52445555
v 0.00050000 0.08479770 0.56155485
v 0.00050000 0.08479559 0.56190014
v 0.03671270 0.08503538 0.52245557
v 0.03946673 0.08502880 0.52353597
v 0.03946679 0.08504753 0.52045560
v -0.00000000 0.08481221 0.55916756
v -0.00050000 0.08479770 0.56155485
v -0.00697750 0.08479936 0.56128120
v -0.00050000 0.08479559 0.56190014
v 0.03615492 0.08507413 0.51608056
v 0.03856891 0.08508769 0.51384962
v -0.00637507 0.08481560 0.55860990
v -0.01076507 0.08480468 0.56040615
v 0.03449863 0.08511170 0.50989926
v -0.01255649 0.08482566 0.55695367
v -0.01445496 0.08481225 0.55916089
v 0.03657335 0.08512636 0.50748855
v 0.03179413 0.08514696 0.50409961
v -0.01835632 0.08484211 0.55424917
v -0.01888042 0.08482480 0.55709606
v 0.03353679 0.08516243 0.50155354
v -0.02351272 0.08484276 0.55414057
v 0.02812355 0.08517882 0.49885750
v -0.02359843 0.08486442 0.55057859
v 0.02954572 0.08519490 0.49621326
v -0.02768719 0.08486445 0.55057353
v 0.02359843 0.08520633 0.49433249
v -0.02812355 0.08489192 0.54605365
v 0.02471369 0.08522282 0.49162003
v -0.03131788 0.08488938 0.54647231
v 0.01835632 0.08522864 0.49066195
v -0.03179413 0.08492379 0.54081166
v -0.03434187 0.08491709 0.54191417
v 0.01917833 0.08524541 0.48790440
v -0.03648793 0.08494379 0.53752053
v 0.01255649 0.08524508 0.48795751
v -0.03449863 0.08495905 0.53501183
v 0.01309704 0.08526202 0.48517227
v -0.03792715 0.08496877 0.53341299
v 0.00637507 0.08525515 0.48630124
v -0.03615492 0.08499662 0.52883053
v -0.03890389 0.08499451 0.52917755
v 0.00664306 0.08527217 0.48350120
v -0.03923863 0.08500880 0.52682656
v -0.00000000 0.08525854 0.48574343
v -0.03671270 0.08503538 0.52245557
v -0.03943151 0.08502322 0.52445555
v -0.03946673 0.08502880 0.52353597
v -0.00000000 0.08527559 0.48293880
v -0.03946679 0.08504753 0.52045560
v -0.03615492 0.08507413 0.51608056
v -0.00664306 0.08527217 0.48350120
v -0.00637507 0.08525515 0.48630124
v -0.03856891 0.08508769 0.51384962
v -0.03449863 0.08511170 0.50989926
v -0.01309704 0.08526202 0.48517227
v -0.01255649 0.08524508 0.48795751
v -0.03657335 0.08512636 0.50748855
v -0.03179413 0.08514696 0.50409961
v -0.01917833 0.08524541 0.48790440
v -0.01835632 0.08522864 0.49066195
v -0.03353679 0.08516243 0.50155354
v -0.02812355 0.08517882 0.49885750
v -0.02471369 0.08522282 0.49162003
v -0.02359843 0.08520633 0.49433249
v -0.02954572 0.08519490 0.49621326
v 0.03865349 0.14595300 0.51763862
v 0.03900301 0.14073436 0.52279419
v 0.03899997 0.14102918 0.47429502
v 0.03840750 0.14780135 0.47433618
v 0.03762012 0.15107898 0.51257449
v 0.03664797 0.15436773 0.47437611
v 0.03593605 0.15597871 0.50773412
v 0.03365266 0.16056421 0.50320405
v 0.03377497 0.16052881 0.47441357
v 0.03083932 0.16475235 0.49906632
v 0.02987569 0.16609740 0.47444740
v 0.02757656 0.16847919 0.49538460
v 0.02506870 0.17090443 0.47447664
v 0.02394956 0.17170100 0.49220160
v 0.02004176 0.17439342 0.48954183
v 0.01949995 0.17480356 0.47450033
v 0.01593011 0.17654829 0.48741299
v 0.01333874 0.17767650 0.47451779
v 0.01168102 0.17816946 0.48581132
v 0.00677222 0.17943597 0.47452849
v 0.00771952 0.17919444 0.48479885
v 0.00367314 0.17979626 0.48420417
v -0.00000000 0.18002845 0.47453210
v -0.00041361 0.17996851 0.48403403
v -0.00449580 0.17970915 0.48429024
v -0.00677222 0.17943597 0.47452849
v -0.00852859 0.17902109 0.48497006
v -0.01333874 0.17767650 0.47451779
v -0.01246756 0.17791182 0.48606592
v -0.01626938 0.17639357 0.48756576
v -0.01949995 0.17480356 0.47450033
v -0.01989227 0.17448306 0.48945317
v -0.02329629 0.17220142 0.49170735
v -0.02506870 0.17090443 0.47447664
v -0.02644407 0.16957359 0.49430344
v -0.02987569 0.16609740 0.47444740
v -0.02930098 0.16662845 0.49721298
v -0.03259295 0.16228145 0.50150758
v -0.03377497 0.16052881 0.47441357
v -0.03530073 0.15741374 0.50631636
v -0.03664797 0.15436773 0.47437611
v -0.03732299 0.15211622 0.51154983
v -0.03840750 0.14780135 0.47433618
v -0.03857845 0.14648752 0.51711065
v -0.03899997 0.14102918 0.47429502
v -0.03900319 0.14073436 0.52279419
v 0.03845661 0.09277439 0.51224071
v 0.03900557 0.14050789 0.47429186
v 0.03952533 0.09174680 0.52049631
v 0.03843724 0.13389240 0.47425163
v 0.00049765 0.10147817 0.47407731
v 0.00049471 0.10150252 0.47405475
v 0.00425172 0.10173262 0.47405615
v 0.00049941 0.10145383 0.47410005
v 0.00050000 0.10142950 0.47412270
v 0.03624325 0.09346940 0.50505269
v 0.03675788 0.12747322 0.47421262
v 0.03296917 0.09398492 0.49859172
v 0.03475618 0.12281772 0.47418430
v -0.00709623 0.10215221 0.47405869
v -0.00049471 0.10150252 0.47405475
v -0.00049765 0.10147817 0.47407731
v -0.00049941 0.10145383 0.47410005
v -0.00050000 0.10142950 0.47412270
v 0.02913987 0.09431524 0.49341834
v 0.03221875 0.11853530 0.47415829
v 0.02433395 0.09454975 0.48879546
v 0.02915650 0.11460898 0.47413442
v 0.02561253 0.11109894 0.47411308
v 0.00050000 0.09790952 0.47739968
v 0.01275569 0.10364848 0.47406778
v 0.01735299 0.10557934 0.47407952
v 0.00796181 0.10232280 0.47405973
v -0.00050000 0.09790952 0.47739968
v -0.01348751 0.10391027 0.47406939
v -0.01814043 0.10598224 0.47408196
v 0.01925784 0.09469034 0.48532915
v 0.02165913 0.10807580 0.47409472
v 0.01394844 0.09477405 0.48281643
v 0.00874174 0.09481894 0.48123467
v 0.00427407 0.09483806 0.48048344
v -0.00000000 0.09484358 0.48025072
v -0.00016667 0.09790953 0.47739688
v 0.00016667 0.09790953 0.47739688
v -0.00514787 0.09483449 0.48058975
v -0.01037013 0.09480792 0.48164424
v -0.01546031 0.09475505 0.48343164
v -0.02238792 0.10857479 0.47409773
v -0.02017349 0.09467036 0.48586866
v -0.02627313 0.11168763 0.47411665
v -0.02439242 0.09454768 0.48884267
v -0.02973657 0.11527726 0.47413847
v -0.02822822 0.09437107 0.49241206
v -0.03270840 0.11927079 0.47416276
v -0.03123658 0.09415749 0.49603245
v -0.03514885 0.12361071 0.47418913
v -0.03401672 0.09385398 0.50037444
v -0.03701955 0.12823541 0.47421727
v -0.03641247 0.09343153 0.50547880
v -0.03828257 0.13305113 0.47424653
v -0.03799206 0.09297072 0.51032126
v -0.03882312 0.13675886 0.47426906
v -0.03899466 0.09245688 0.51512170
v -0.03900557 0.14050789 0.47429186
v -0.03952533 0.09174680 0.52049631
v 0.03902554 0.13835271 0.52268249
v 0.03900557 0.14050789 0.47429186
v 0.03899997 0.14102918 0.47429502
v 0.03952533 0.09174680 0.52049631
v 0.03900301 0.14073436 0.52279419
v 0.03902554 0.13835271 0.52268249
v 0.03899997 0.14102918 0.47429502
v -0.03902554 0.13835281 0.52268249
v -0.03899997 0.14102918 0.47429502
v -0.03900557 0.14050789 0.47429186
v -0.03902554 0.13835281 0.52268249
v -0.03900319 0.14073436 0.52279419
v -0.03899997 0.14102918 0.47429502
v -0.03952533 0.09174680 0.52049631
v 0.03952533 0.09174680 0.52049631
v 0.03946673 0.08502880 0.52353597
v 0.03946679 0.08504753 0.52045560
v 0.03937226 0.09172314 0.52449626
v 0.03943151 0.08502322 0.52445555
v 0.03946673 0.08502880 0.52353597
v 0.03952533 0.09174680 0.52049631
v 0.03900647 0.14043655 0.52279544
v 0.03901427 0.13954328 0.52278692
v 0.03900748 0.14013883 0.52277845
v 0.03900974 0.14013869 0.52280265
v 0.03900337 0.14058548 0.52279091
v 0.03900384 0.14043662 0.52278322
v 0.03900617 0.14058545 0.52279699
v 0.03900778 0.14043652 0.52280140
v 0.03900170 0.14065999 0.52279156
v 0.03900194 0.14058550 0.52278793
v 0.03900462 0.14065997 0.52279460
v 0.03900611 0.14065996 0.52279621
v 0.03900688 0.14058544 0.52279848
v 0.03919959 0.11619182 0.52361518
v 0.03952533 0.09174680 0.52049631
v 0.03902554 0.13835271 0.52268249
v 0.03937226 0.09172314 0.52449626
v 0.03901320 0.13950628 0.52273816
v 0.03900086 0.14069708 0.52279264
v 0.03900092 0.14065999 0.52279091
v 0.03900045 0.14069708 0.52279240
v 0.03900301 0.14073436 0.52279419
v 0.03900235 0.14069708 0.52279341
v 0.03900301 0.14073436 0.52279419
v 0.03900533 0.14069717 0.52279490
v 0.03900605 0.14069717 0.52279532
v 0.03900647 0.14065996 0.52279651
v 0.03900623 0.14069717 0.52279544
v 0.03910547 0.12842599 0.52319807
v 0.03910511 0.12844454 0.52320522
v 0.03910475 0.12846309 0.52321243
v 0.03900706 0.14008313 0.52276474
v 0.03900682 0.14010173 0.52276528
v 0.03900659 0.14012031 0.52276570
v 0.03900444 0.14056687 0.52279282
v 0.03905636 0.13456151 0.52299863
v 0.03905612 0.13458008 0.52300191
v 0.03905588 0.13459867 0.52300525
v 0.03900355 0.14040875 0.52277911
v 0.03900331 0.14042734 0.52277988
v 0.03900343 0.14063208 0.52279270
v 0.03903144 0.13762936 0.52289748
v 0.03903126 0.13764797 0.52289891
v 0.03903108 0.13766655 0.52290022
v 0.03900188 0.14056221 0.52278620
v 0.03900164 0.14058091 0.52278703
v 0.03900080 0.14065760 0.52279061
v 0.03901886 0.13916321 0.52284658
v 0.03901875 0.13918181 0.52284700
v 0.03901857 0.13920040 0.52284718
v 0.03901314 0.13950519 0.52273643
v 0.03900039 0.14069599 0.52279234
v 0.03901255 0.13993019 0.52282095
v 0.03901243 0.13994889 0.52282083
v 0.03901231 0.13996740 0.52282077
v -0.03952533 0.09174680 0.52049631
v -0.03946679 0.08504753 0.52045560
v -0.03946673 0.08502880 0.52353597
v -0.03937226 0.09172314 0.52449626
v -0.03946673 0.08502880 0.52353597
v -0.03943151 0.08502322 0.52445555
v -0.03952533 0.09174680 0.52049631
v -0.03946673 0.08502880 0.52353597
v -0.03937226 0.09172314 0.52449626
v -0.03900647 0.14043655 0.52279544
v -0.03900748 0.14013883 0.52277845
v -0.03901427 0.13954328 0.52278692
v -0.03900980 0.14013879 0.52280271
v -0.03900337 0.14058548 0.52279091
v -0.03900384 0.14043662 0.52278322
v -0.03900617 0.14058545 0.52279699
v -0.03900784 0.14043652 0.52280152
v -0.03900170 0.14065999 0.52279156
v -0.03900194 0.14058550 0.52278793
v -0.03900462 0.14065997 0.52279460
v -0.03900611 0.14065996 0.52279621
v -0.03900688 0.14058544 0.52279848
v -0.03919953 0.11619182 0.52361566
v -0.03952533 0.09174680 0.52049631
v -0.03937226 0.09172314 0.52449626
v -0.03902554 0.13835281 0.52268249
v -0.03901320 0.13950638 0.52273816
v -0.03900086 0.14069708 0.52279264
v -0.03900098 0.14065999 0.52279091
v -0.03900319 0.14073436 0.52279419
v -0.03900045 0.14069708 0.52279240
v -0.03900235 0.14069708 0.52279341
v -0.03900319 0.14073436 0.52279419
v -0.03900533 0.14069717 0.52279490
v -0.03900605 0.14069717 0.52279532
v -0.03900647 0.14065996 0.52279651
v -0.03900623 0.14069717 0.52279544
v -0.03910547 0.12842588 0.52319849
v -0.03910511 0.12844454 0.52320564
v -0.03910475 0.12846309 0.52321285
v -0.03900706 0.14008313 0.52276474
v -0.03900682 0.14010173 0.52276528
v -0.03900659 0.14012031 0.52276570
v -0.03900444 0.14056687 0.52279282
v -0.03905636 0.13456149 0.52299893
v -0.03905612 0.13458008 0.52300221
v -0.03905588 0.13459867 0.52300543
v -0.03900355 0.14040875 0.52277911
v -0.03900331 0.14042734 0.52277988
v -0.03900343 0.14063208 0.52279270
v -0.03903144 0.13762936 0.52289766
v -0.03903126 0.13764797 0.52289897
v -0.03903108 0.13766655 0.52290028
v -0.03900188 0.14056221 0.52278620
v -0.03900164 0.14058091 0.52278703
v -0.03900080 0.14065760 0.52279061
v -0.03901886 0.13916321 0.52284664
v -0.03901875 0.13918181 0.52284700
v -0.03901857 0.13920040 0.52284741
v -0.03901314 0.13950519 0.52273643
v -0.03900039 0.14069599 0.52279234
v -0.03901255 0.13993019 0.52282107
v -0.03901243 0.13994889 0.52282095
v -0.03901231 0.13996740 0.52282077
v 0.03939896 0.09160868 0.51877105
v 0.03952533 0.09174680 0.52049631
v 0.03946679 0.08504753 0.52045560
v 0.03915196 0.09128613 0.51674557
v 0.03856891 0.08508769 0.51384962
v 0.03842419 0.09077399 0.51304954
v 0.03657335 0.08512636 0.50748855
v 0.03631204 0.09010050 0.50678599
v 0.03353679 0.08516243 0.50155354
v 0.03318560 0.08951198 0.50095707
v 0.02954572 0.08519490 0.49621326
v 0.02918237 0.08902891 0.49578375
v 0.02471369 0.08522282 0.49162003
v 0.02446651 0.08865491 0.49140662
v 0.01917833 0.08524541 0.48790440
v 0.01899671 0.08837534 0.48779240
v 0.01309704 0.08526202 0.48517227
v 0.01300263 0.08818999 0.48512995
v 0.00677067 0.08808960 0.48351532
v 0.00664306 0.08527217 0.48350120
v -0.00000000 0.08805624 0.48293149
v -0.00000000 0.08527559 0.48293880
v -0.00449943 0.08807149 0.48318821
v -0.00664306 0.08527217 0.48350120
v -0.00883680 0.08811729 0.48393127
v -0.01309704 0.08526202 0.48517227
v -0.01452010 0.08823240 0.48569322
v -0.01917833 0.08524541 0.48790440
v -0.01969641 0.08840806 0.48818451
v -0.02471369 0.08522282 0.49162003
v -0.02429515 0.08864500 0.49127224
v -0.02835893 0.08895148 0.49491096
v -0.02954572 0.08519490 0.49621326
v -0.03206861 0.08935559 0.49932721
v -0.03353679 0.08516243 0.50155354
v -0.03514540 0.08984680 0.50432765
v -0.03657335 0.08512636 0.50748855
v -0.03720211 0.09033716 0.50902528
v -0.03856891 0.08508769 0.51384962
v -0.03836387 0.09074739 0.51280814
v -0.03912794 0.09125760 0.51658535
v -0.03946679 0.08504753 0.52045560
v -0.03952533 0.09174680 0.52049631
v 0.03937226 0.09172314 0.52449626
v 0.03782635 0.13115184 0.53226095
v 0.03581303 0.12518099 0.53815967
v 0.03871250 0.13592257 0.52754784
v 0.03900301 0.14073436 0.52279419
v 0.03857040 0.08498417 0.53087944
v 0.03943151 0.08502322 0.52445555
v 0.03667038 0.08494653 0.53707170
v 0.03451800 0.08491899 0.54160070
v 0.03315746 0.12006234 0.54321635
v 0.03189778 0.08489408 0.54569811
v 0.02879172 0.08487131 0.54944378
v 0.03057837 0.11636668 0.54686737
v 0.02523750 0.08485099 0.55278718
v 0.02745187 0.11285080 0.55034089
v 0.02129405 0.08483347 0.55566943
v 0.02421927 0.10996773 0.55318904
v 0.02121663 0.10779867 0.55533183
v 0.01702654 0.08481905 0.55804247
v 0.01766365 0.10573825 0.55736732
v 0.01249378 0.08480792 0.55987310
v 0.00021265 0.08824860 0.56183469
v 0.01478141 0.10440976 0.55867976
v 0.01172566 0.10329674 0.55977941
v 0.00010586 0.08828478 0.56183457
v 0.00522125 0.10183293 0.56122559
v 0.00181806 0.10152206 0.56153274
v 0.00853318 0.10243114 0.56063461
v 0.00036435 0.08813850 0.56183589
v -0.00002941 0.08829521 0.56183439
v -0.00497228 0.10179983 0.56125820
v -0.00862366 0.10245176 0.56061423
v -0.00158894 0.10151180 0.56154287
v 0.00776631 0.08480027 0.56113112
v 0.00046484 0.08798023 0.56183791
v -0.00018771 0.08825951 0.56183469
v -0.01244753 0.10353377 0.55954522
v -0.01604557 0.10495755 0.55813873
v 0.00050000 0.08779603 0.56184107
v 0.00415230 0.08479691 0.56168401
v 0.00050000 0.08479559 0.56190014
v -0.00697750 0.08479936 0.56128120
v -0.00050000 0.08479559 0.56190014
v -0.00050000 0.08779603 0.56184107
v -0.00046984 0.08796711 0.56183809
v -0.01076507 0.08480468 0.56040615
v -0.00041779 0.08807072 0.56183666
v -0.00035013 0.08815305 0.56183565
v -0.01445496 0.08481225 0.55916089
v -0.01982223 0.10692973 0.55619031
v -0.01888042 0.08482480 0.55709606
v -0.02367568 0.10954177 0.55360985
v -0.02351272 0.08484276 0.55414057
v -0.02706485 0.11247081 0.55071610
v -0.02768719 0.08486445 0.55057353
v -0.03042584 0.11617412 0.54705763
v -0.03131788 0.08488938 0.54647231
v -0.03366923 0.12091639 0.54237264
v -0.03434187 0.08491709 0.54191417
v -0.03606963 0.12579267 0.53755534
v -0.03648793 0.08494379 0.53752053
v -0.03937226 0.09172314 0.52449626
v -0.03792715 0.08496877 0.53341299
v -0.03827816 0.13318117 0.53025609
v -0.03900319 0.14073436 0.52279419
v -0.03890389 0.08499451 0.52917755
v -0.03923863 0.08500880 0.52682656
v -0.03943151 0.08502322 0.52445555
v -0.03952533 0.09174680 0.52049631
v -0.03912794 0.09125760 0.51658535
v -0.03952533 0.09174680 0.52049631
v -0.03899466 0.09245688 0.51512170
v -0.03836387 0.09074739 0.51280814
v -0.03799206 0.09297072 0.51032126
v -0.03720211 0.09033716 0.50902528
v -0.03401672 0.09385398 0.50037444
v -0.03206861 0.08935559 0.49932721
v -0.03514540 0.08984680 0.50432765
v -0.03123658 0.09415749 0.49603245
v -0.02835893 0.08895148 0.49491096
v -0.01969641 0.08840806 0.48818451
v -0.02429515 0.08864500 0.49127224
v -0.02439242 0.09454768 0.48884267
v -0.02017349 0.09467036 0.48586866
v -0.00000000 0.08954441 0.48281616
v -0.00000000 0.08805624 0.48293149
v -0.00449943 0.08807149 0.48318821
v -0.00000000 0.09484358 0.48025072
v -0.00000000 0.09367821 0.48118344
v -0.00514787 0.09483449 0.48058975
v -0.03603047 0.09165595 0.50579935
v -0.03641247 0.09343153 0.50547880
v -0.02742731 0.09158228 0.49344280
v -0.02822822 0.09437107 0.49241206
v -0.01482194 0.09152690 0.48520005
v -0.01452010 0.08823240 0.48569322
v -0.01546031 0.09475505 0.48343164
v -0.01037013 0.09480792 0.48164424
v -0.00755507 0.09151299 0.48303691
v -0.00883680 0.08811729 0.48393127
v -0.00944275 0.09170850 0.48337913
v -0.00474191 0.09170388 0.48251846
v -0.00000000 0.09099880 0.48248059
v -0.00000000 0.09238707 0.48193231
v 0.00427407 0.09483806 0.48048344
v -0.00000000 0.09099880 0.48248059
v -0.00000000 0.09238707 0.48193231
v -0.00000000 0.09367821 0.48118344
v -0.00000000 0.09484358 0.48025072
v 0.02433395 0.09454975 0.48879546
v 0.02446651 0.08865491 0.49140662
v 0.01899671 0.08837534 0.48779240
v 0.01925784 0.09469034 0.48532915
v 0.03296917 0.09398492 0.49859172
v 0.03318560 0.08951198 0.50095707
v 0.02918237 0.08902891 0.49578375
v 0.02913987 0.09431524 0.49341834
v 0.03624325 0.09346940 0.50505269
v 0.03845661 0.09277439 0.51224071
v 0.03842419 0.09077399 0.51304954
v 0.03631204 0.09010050 0.50678599
v 0.01484197 0.09171337 0.48513499
v 0.01394844 0.09477405 0.48281643
v 0.01300263 0.08818999 0.48512995
v 0.02745491 0.09173815 0.49340504
v 0.03604286 0.09175104 0.50578570
v 0.03946739 0.09175203 0.51955634
v 0.03952533 0.09174680 0.52049631
v 0.03952533 0.09174680 0.52049631
v 0.03939896 0.09160868 0.51877105
v 0.00547749 0.09170450 0.48261446
v -0.00000000 0.08805624 0.48293149
v -0.00000000 0.08954441 0.48281616
v 0.00874174 0.09481894 0.48123467
v 0.00677067 0.08808960 0.48351532
v 0.00761580 0.09170570 0.48297450
v 0.01078712 0.09170846 0.48373678
v 0.01327103 0.09171118 0.48453414
v 0.02297961 0.16841479 0.47446150
v 0.01949995 0.17480356 0.47450033
v 0.02506870 0.17090443 0.47447664
v 0.02738606 0.16400845 0.47443470
v 0.02987569 0.16609740 0.47444740
v 0.02738606 0.16400845 0.47443470
v 0.02297961 0.16841479 0.47446150
v 0.02506870 0.17090443 0.47447664
v 0.03096038 0.15890384 0.47440368
v 0.03377497 0.16052881 0.47441357
v 0.01787495 0.17198901 0.47448322
v 0.01949995 0.17480356 0.47450033
v 0.02297961 0.16841479 0.47446150
v 0.01787495 0.17198901 0.47448322
v 0.01333874 0.17767650 0.47451779
v 0.01949995 0.17480356 0.47450033
v 0.03359401 0.15325615 0.47436935
v 0.03377497 0.16052881 0.47441357
v 0.03664797 0.15436773 0.47437611
v 0.03359401 0.15325615 0.47436935
v 0.01222717 0.17462257 0.47449923
v 0.01333874 0.17767650 0.47451779
v 0.01787495 0.17198901 0.47448322
v 0.00677222 0.17943597 0.47452849
v 0.01333874 0.17767650 0.47451779
v 0.01222717 0.17462257 0.47449923
v 0.03520685 0.14723697 0.47433275
v 0.03840750 0.14780135 0.47433618
v 0.03664797 0.15436773 0.47437611
v 0.00620788 0.17623544 0.47450903
v 0.00677222 0.17943597 0.47452849
v 0.01222717 0.17462257 0.47449923
v -0.00000000 0.18002845 0.47453210
v 0.00677222 0.17943597 0.47452849
v 0.00620788 0.17623544 0.47450903
v 0.03574997 0.14102918 0.47429502
v 0.03899997 0.14102918 0.47429502
v 0.03574997 0.14102918 0.47429502
v 0.03899997 0.14102918 0.47429502
v 0.03900557 0.14050789 0.47429186
v -0.00000000 0.17677851 0.47451234
v -0.00677222 0.17943597 0.47452849
v 0.03520685 0.13482139 0.47425729
v 0.03900557 0.14050789 0.47429186
v 0.03843724 0.13389240 0.47425163
v -0.00620788 0.17623544 0.47450903
v -0.01333874 0.17767650 0.47451779
v 0.03359401 0.12880221 0.47422069
v 0.03675788 0.12747322 0.47421262
v -0.01222717 0.17462257 0.47449923
v -0.01333874 0.17767650 0.47451779
v -0.00620788 0.17623544 0.47450903
v 0.03475618 0.12281772 0.47418430
v 0.03359401 0.12880221 0.47422069
v 0.03675788 0.12747322 0.47421262
v -0.01949995 0.17480356 0.47450033
v -0.01333874 0.17767650 0.47451779
v -0.01222717 0.17462257 0.47449923
v 0.03096038 0.12315453 0.47418636
v 0.03475618 0.12281772 0.47418430
v -0.01787495 0.17198901 0.47448322
v -0.01949995 0.17480356 0.47450033
v 0.03221875 0.11853530 0.47415829
v -0.02506870 0.17090443 0.47447664
v -0.01949995 0.17480356 0.47450033
v -0.01787495 0.17198901 0.47448322
v 0.02738606 0.11804991 0.47415534
v -0.02297961 0.16841479 0.47446150
v -0.02506870 0.17090443 0.47447664
v -0.01787495 0.17198901 0.47448322
v 0.02915650 0.11460898 0.47413442
v 0.02297961 0.11364359 0.47412854
v 0.02915650 0.11460898 0.47413442
v 0.02561253 0.11109894 0.47411308
v 0.02297961 0.11364359 0.47412854
v -0.02987569 0.16609740 0.47444740
v -0.02738606 0.16400845 0.47443470
v 0.02165913 0.10807580 0.47409472
v 0.01787495 0.11006936 0.47410682
v 0.02165913 0.10807580 0.47409472
v -0.03377497 0.16052881 0.47441357
v -0.02987569 0.16609740 0.47444740
v -0.02738606 0.16400845 0.47443470
v -0.03377497 0.16052881 0.47441357
v -0.02738606 0.16400845 0.47443470
v -0.03096038 0.15890384 0.47440368
v 0.01735299 0.10557934 0.47407952
v 0.01222717 0.10743581 0.47409081
v -0.03664797 0.15436773 0.47437611
v -0.03359401 0.15325615 0.47436935
v -0.03664797 0.15436773 0.47437611
v -0.03377497 0.16052881 0.47441357
v -0.03096038 0.15890384 0.47440368
v 0.01275569 0.10364848 0.47406778
v 0.00796181 0.10232280 0.47405973
v 0.00620788 0.10582294 0.47408101
v -0.03840750 0.14780135 0.47433618
v -0.03359401 0.15325615 0.47436935
v -0.03520685 0.14723697 0.47433275
v 0.00425172 0.10173262 0.47405615
v -0.00000000 0.10527985 0.47407770
v 0.00037732 0.10175801 0.47405630
v 0.00030856 0.10182331 0.47405669
v 0.00043249 0.10168082 0.47405583
v 0.00022869 0.10187451 0.47405702
v 0.00047210 0.10159462 0.47405532
v 0.00014059 0.10190971 0.47405723
v -0.03899997 0.14102918 0.47429502
v -0.03574997 0.14102918 0.47429502
v 0.00049471 0.10150252 0.47405475
v 0.00047210 0.10159462 0.47405532
v 0.00425172 0.10173262 0.47405615
v 0.00004743 0.10192761 0.47405732
v -0.00004743 0.10192761 0.47405732
v -0.00000000 0.10527985 0.47407770
v 0.00004743 0.10192761 0.47405732
v -0.00014059 0.10190971 0.47405723
v -0.00000000 0.10527985 0.47407770
v -0.00004743 0.10192761 0.47405732
v -0.00022869 0.10187451 0.47405702
v -0.00014059 0.10190971 0.47405723
v -0.00030856 0.10182331 0.47405669
v -0.03900557 0.14050789 0.47429186
v -0.00037732 0.10175801 0.47405630
v -0.00620788 0.10582294 0.47408101
v -0.00620788 0.10582294 0.47408101
v -0.00037732 0.10175801 0.47405630
v -0.00043249 0.10168082 0.47405583
v -0.03882312 0.13675886 0.47426906
v -0.03520685 0.13482139 0.47425729
v -0.03882312 0.13675886 0.47426906
v -0.03900557 0.14050789 0.47429186
v -0.03574997 0.14102918 0.47429502
v -0.00709623 0.10215221 0.47405869
v -0.00043249 0.10168082 0.47405583
v -0.00709623 0.10215221 0.47405869
v -0.00043249 0.10168082 0.47405583
v -0.00047210 0.10159462 0.47405532
v -0.00709623 0.10215221 0.47405869
v -0.00047210 0.10159462 0.47405532
v -0.00049471 0.10150252 0.47405475
v -0.00709623 0.10215221 0.47405869
v -0.01222717 0.10743581 0.47409081
v -0.00620788 0.10582294 0.47408101
v -0.03828257 0.13305113 0.47424653
v -0.03359401 0.12880221 0.47422069
v -0.03828257 0.13305113 0.47424653
v -0.03520685 0.13482139 0.47425729
v -0.03701955 0.12823541 0.47421727
v -0.03828257 0.13305113 0.47424653
v -0.03359401 0.12880221 0.47422069
v -0.01348751 0.10391027 0.47406939
v -0.01222717 0.10743581 0.47409081
v -0.03514885 0.12361071 0.47418913
v -0.03514885 0.12361071 0.47418913
v -0.03359401 0.12880221 0.47422069
v -0.03096038 0.12315453 0.47418636
v -0.01814043 0.10598224 0.47408196
v -0.01787495 0.11006936 0.47410682
v -0.03270840 0.11927079 0.47416276
v -0.03096038 0.12315453 0.47418636
v -0.02738606 0.11804991 0.47415534
v -0.02238792 0.10857479 0.47409773
v -0.02297961 0.11364359 0.47412854
v -0.02973657 0.11527726 0.47413847
v -0.02627313 0.11168763 0.47411665
v -0.00050000 0.08779603 0.56184107
v -0.00050000 0.08479559 0.56190014
v -0.00050000 0.08479770 0.56155485
v -0.00050000 0.08779766 0.56157309
v -0.00049039 0.08789524 0.56157368
v -0.00041574 0.08807547 0.56157476
v -0.00046194 0.08798900 0.56157422
v -0.00050000 0.08779766 0.56157309
v 0.00050000 0.08779766 0.56157309
v 0.00049039 0.08789524 0.56157368
v -0.00050000 0.08779766 0.56157309
v 0.00049039 0.08789524 0.56157368
v 0.00046194 0.08798900 0.56157422
v -0.00050000 0.08779766 0.56157309
v 0.00046194 0.08798900 0.56157422
v 0.00041574 0.08807547 0.56157476
v -0.00050000 0.08779766 0.56157309
v 0.00041574 0.08807547 0.56157476
v 0.00035355 0.08815123 0.56157523
v -0.00050000 0.08779766 0.56157309
v 0.00035355 0.08815123 0.56157523
v 0.00027778 0.08821341 0.56157559
v -0.00050000 0.08779766 0.56157309
v 0.00027778 0.08821341 0.56157559
v 0.00019134 0.08825959 0.56157589
v -0.00050000 0.08779766 0.56157309
v 0.00019134 0.08825959 0.56157589
v 0.00009755 0.08828802 0.56157607
v 0.00009755 0.08828802 0.56157607
v -0.00000000 0.08829769 0.56157613
v -0.00000000 0.08829769 0.56157613
v -0.00009755 0.08828802 0.56157607
v -0.00050000 0.08779766 0.56157309
v -0.00009755 0.08828802 0.56157607
v -0.00019134 0.08825959 0.56157589
v -0.00050000 0.08779766 0.56157309
v -0.00019134 0.08825959 0.56157589
v -0.00027778 0.08821341 0.56157559
v -0.00050000 0.08779766 0.56157309
v -0.00027778 0.08821341 0.56157559
v -0.00035355 0.08815123 0.56157523
v -0.00050000 0.08779766 0.56157309
v -0.00035355 0.08815123 0.56157523
v -0.00041574 0.08807547 0.56157476
v -0.00041574 0.08807547 0.56157476
v -0.00049039 0.08789524 0.56157368
v -0.00050000 0.08479770 0.56155485
v 0.00050000 0.08479770 0.56155485
v 0.00050000 0.08779766 0.56157309
v 0.00050000 0.08779603 0.56184107
v 0.00050000 0.08479770 0.56155485
v 0.00050000 0.08479559 0.56190014
v 0.00050000 0.08779766 0.56157309
v -0.00049039 0.08789524 0.56157368
v -0.00050000 0.08779603 0.56184107
v -0.00050000 0.08779766 0.56157309
v -0.00046984 0.08796711 0.56183809
v -0.00046194 0.08798900 0.56157422
v -0.00041779 0.08807072 0.56183666
v -0.00041574 0.08807547 0.56157476
v -0.00035355 0.08815123 0.56157523
v -0.00035013 0.08815305 0.56183565
v -0.00027778 0.08821341 0.56157559
v -0.00018771 0.08825951 0.56183469
v -0.00019134 0.08825959 0.56157589
v -0.00009755 0.08828802 0.56157607
v -0.00002941 0.08829521 0.56183439
v -0.00000000 0.08829769 0.56157613
v 0.00010586 0.08828478 0.56183457
v 0.00009755 0.08828802 0.56157607
v 0.00019134 0.08825959 0.56157589
v 0.00021265 0.08824860 0.56183469
v 0.00027778 0.08821341 0.56157559
v 0.00036435 0.08813850 0.56183589
v 0.00035355 0.08815123 0.56157523
v 0.00041574 0.08807547 0.56157476
v 0.00046484 0.08798023 0.56183791
v 0.00046194 0.08798900 0.56157422
v 0.00049039 0.08789524 0.56157368
v 0.00050000 0.08779603 0.56184107
v 0.00050000 0.08779766 0.56157309
v 0.00016667 0.09790953 0.47739688
v 0.00050000 0.09790871 0.47753298
v 0.00050000 0.09790952 0.47739968
v -0.00050000 0.09790871 0.47753298
v -0.00016667 0.09790953 0.47739688
v -0.00050000 0.09790952 0.47739968
v 0.00050000 0.09790871 0.47753298
v -0.00016667 0.09790953 0.47739688
v -0.00050000 0.09790871 0.47753298
v 0.00016667 0.09790953 0.47739688
v 0.00050000 0.09790952 0.47739968
v 0.00050000 0.10140864 0.47755426
v 0.00050000 0.10142950 0.47412270
v 0.00050000 0.09790871 0.47753298
v -0.00050000 0.10140864 0.47755426
v -0.00050000 0.09790871 0.47753298
v -0.00050000 0.09790952 0.47739968
v -0.00050000 0.10142950 0.47412270
v 0.00027778 0.10182433 0.47755679
v 0.00035355 0.10176223 0.47755641
v 0.00041574 0.10168644 0.47755596
v 0.00049039 0.10150624 0.47755486
v 0.00046194 0.10160004 0.47755542
v 0.00050000 0.10140864 0.47755426
v 0.00027778 0.10182433 0.47755679
v 0.00041574 0.10168644 0.47755596
v 0.00050000 0.10140864 0.47755426
v 0.00041574 0.10168644 0.47755596
v 0.00049039 0.10150624 0.47755486
v -0.00000000 0.10190863 0.47755730
v 0.00009755 0.10189903 0.47755724
v 0.00019134 0.10187053 0.47755706
v -0.00000000 0.10190863 0.47755730
v 0.00019134 0.10187053 0.47755706
v 0.00027778 0.10182433 0.47755679
v -0.00019134 0.10187053 0.47755706
v -0.00009755 0.10189903 0.47755724
v -0.00000000 0.10190863 0.47755730
v 0.00027778 0.10182433 0.47755679
v -0.00035355 0.10176223 0.47755641
v -0.00027778 0.10182433 0.47755679
v -0.00019134 0.10187053 0.47755706
v -0.00050000 0.10140864 0.47755426
v -0.00049039 0.10150624 0.47755486
v -0.00046194 0.10160004 0.47755542
v -0.00050000 0.10140864 0.47755426
v -0.00046194 0.10160004 0.47755542
v -0.00041574 0.10168644 0.47755596
v -0.00050000 0.10140864 0.47755426
v -0.00041574 0.10168644 0.47755596
v -0.00035355 0.10176223 0.47755641
v -0.00050000 0.10140864 0.47755426
v 0.00027778 0.10182433 0.47755679
v 0.00050000 0.10140864 0.47755426
v -0.00050000 0.10140864 0.47755426
v -0.00019134 0.10187053 0.47755706
v 0.00027778 0.10182433 0.47755679
v -0.00035355 0.10176223 0.47755641
v 0.00050000 0.09790871 0.47753298
v 0.00050000 0.10140864 0.47755426
v -0.00050000 0.09790871 0.47753298
v -0.00049941 0.10145383 0.47410005
v -0.00050000 0.10142950 0.47412270
v -0.00049765 0.10147817 0.47407731
v -0.00049039 0.10150624 0.47755486
v -0.00049471 0.10150252 0.47405475
v -0.00047210 0.10159462 0.47405532
v -0.00046194 0.10160004 0.47755542
v -0.00043249 0.10168082 0.47405583
v -0.00041574 0.10168644 0.47755596
v -0.00037732 0.10175801 0.47405630
v -0.00035355 0.10176223 0.47755641
v -0.00030856 0.10182331 0.47405669
v -0.00027778 0.10182433 0.47755679
v -0.00022869 0.10187451 0.47405702
v -0.00019134 0.10187053 0.47755706
v -0.00014059 0.10190971 0.47405723
v -0.00009755 0.10189903 0.47755724
v -0.00004743 0.10192761 0.47405732
v -0.00000000 0.10190863 0.47755730
v 0.00004743 0.10192761 0.47405732
v 0.00009755 0.10189903 0.47755724
v 0.00014059 0.10190971 0.47405723
v 0.00019134 0.10187053 0.47755706
v 0.00022869 0.10187451 0.47405702
v 0.00027778 0.10182433 0.47755679
v 0.00030856 0.10182331 0.47405669
v 0.00035355 0.10176223 0.47755641
v 0.00037732 0.10175801 0.47405630
v 0.00041574 0.10168644 0.47755596
v 0.00043249 0.10168082 0.47405583
v 0.00046194 0.10160004 0.47755542
v 0.00047210 0.10159462 0.47405532
v 0.00049039 0.10150624 0.47755486
v 0.00049471 0.10150252 0.47405475
v 0.00049765 0.10147817 0.47407731
v 0.00050000 0.10140864 0.47755426
v 0.00049941 0.10145383 0.47410005
v 0.00050000 0.10142950 0.47412270
f 1 2 3
f 4 5 6
f 7 4 6
f 8 9 10
f 11 2 1
f 12 13 14
f 15 16 7
f 17 18 19
f 20 9 8
f 21 16 15
f 22 21 15
f 23 24 25
f 23 25 26
f 27 21 22
f 28 27 22
f 29 24 23
f 29 30 24
f 31 27 28
f 32 31 28
f 33 34 30
f 33 30 29
f 35 31 32
f 36 35 32
f 37 38 39
f 40 41 42
f 43 35 36
f 44 43 36
f 45 46 47
f 48 49 50
f 51 43 44
f 52 51 44
f 53 54 55
f 53 55 48
f 56 57 58
f 59 54 53
f 60 56 52
f 61 62 63
f 64 54 59
f 65 64 59
f 66 67 68
f 66 68 61
f 69 64 65
f 70 69 65
f 71 72 73
f 74 75 76
f 77 69 78
f 79 77 78
f 80 81 82
f 83 72 71
f 84 77 79
f 85 84 79
f 86 87 88
f 86 88 89
f 90 84 85
f 91 90 85
f 92 87 86
f 92 93 87
f 94 90 91
f 95 94 91
f 96 97 93
f 96 93 92
f 98 94 95
f 99 98 95
f 100 101 102
f 103 104 105
f 106 98 99
f 107 106 99
f 108 101 100
f 108 109 110
f 111 112 113
f 111 109 114
f 115 116 117
f 118 119 120
f 118 120 121
f 122 121 123
f 122 118 121
f 124 123 125
f 124 122 123
f 126 125 127
f 126 124 125
f 128 127 129
f 128 126 127
f 130 128 129
f 130 129 131
f 132 130 131
f 132 131 133
f 134 132 133
f 134 133 135
f 136 134 135
f 136 135 137
f 138 136 137
f 138 137 139
f 140 138 139
f 140 139 141
f 142 140 141
f 142 141 143
f 144 142 143
f 144 143 145
f 146 144 145
f 146 145 147
f 148 146 147
f 148 147 149
f 150 148 149
f 150 149 151
f 152 150 151
f 152 151 153
f 154 152 153
f 154 153 155
f 156 155 157
f 156 154 155
f 158 157 159
f 158 156 157
f 160 159 161
f 160 158 159
f 162 161 163
f 162 160 161
f 164 163 165
f 164 162 163
f 166 165 167
f 166 164 165
f 168 167 169
f 168 166 167
f 170 169 171
f 170 168 169
f 172 171 173
f 172 170 171
f 174 173 175
f 174 172 173
f 176 175 177
f 176 174 175
f 178 177 179
f 178 176 177
f 180 179 181
f 180 178 179
f 182 180 181
f 182 181 183
f 184 182 183
f 184 183 185
f 186 184 185
f 186 187 188
f 186 185 187
f 189 186 188
f 190 189 188
f 190 188 191
f 192 193 194
f 192 194 195
f 192 195 196
f 197 196 198
f 199 200 201
f 202 199 201
f 203 204 205
f 206 201 207
f 206 202 201
f 208 209 206
f 210 207 192
f 210 192 196
f 210 206 207
f 210 208 206
f 211 212 213
f 211 213 214
f 211 214 215
f 216 197 217
f 216 218 219
f 216 219 210
f 216 196 197
f 216 210 196
f 220 212 211
f 221 222 212
f 221 212 220
f 223 217 204
f 223 224 216
f 223 204 203
f 223 216 217
f 225 223 203
f 226 225 203
f 226 203 222
f 226 221 227
f 226 222 221
f 228 229 230
f 231 232 233
f 234 235 236
f 237 238 239
f 240 241 242
f 243 244 245
f 243 246 244
f 243 245 247
f 248 249 250
f 251 252 253
f 254 255 256
f 251 247 240
f 251 243 247
f 251 257 243
f 258 248 251
f 259 260 261
f 262 263 264
f 265 266 258
f 267 268 269
f 270 271 272
f 273 274 267
f 275 276 277
f 278 279 280
f 281 282 283
f 281 283 265
f 284 281 265
f 285 286 287
f 288 289 290
f 284 278 291
f 284 258 251
f 284 265 292
f 284 293 279
f 284 251 293
f 284 279 278
f 294 295 296
f 297 296 298
f 297 294 296
f 299 298 300
f 299 297 298
f 301 300 302
f 301 299 300
f 303 302 304
f 303 301 302
f 305 304 306
f 305 303 304
f 307 305 306
f 307 306 308
f 309 307 308
f 309 308 310
f 311 309 310
f 311 310 312
f 313 311 312
f 313 312 314
f 315 313 314
f 315 314 316
f 317 315 316
f 317 316 318
f 319 317 318
f 319 318 320
f 321 319 320
f 321 320 322
f 323 321 322
f 323 322 324
f 325 323 324
f 325 324 326
f 327 325 326
f 327 326 328
f 329 327 328
f 329 328 330
f 331 329 330
f 331 330 332
f 333 332 334
f 333 331 332
f 335 334 336
f 335 333 334
f 337 336 338
f 337 335 336
f 339 338 340
f 339 337 338
f 341 340 342
f 341 339 340
f 343 342 344
f 343 341 342
f 345 344 346
f 345 343 344
f 347 346 348
f 347 345 346
f 349 348 350
f 349 347 348
f 351 350 352
f 351 349 350
f 353 352 354
f 353 351 352
f 355 354 356
f 355 353 354
f 357 355 356
f 358 356 359
f 358 359 360
f 358 357 356
f 361 358 360
f 362 360 363
f 362 361 360
f 364 362 363
f 364 363 365
f 364 365 366
f 367 364 366
f 368 369 370
f 371 370 372
f 371 372 373
f 371 368 370
f 374 369 368
f 374 375 376
f 374 376 369
f 377 371 373
f 377 373 378
f 379 375 374
f 380 377 378
f 380 378 381
f 382 375 379
f 383 382 379
f 384 381 385
f 384 385 386
f 384 380 381
f 387 382 383
f 388 386 389
f 390 391 387
f 390 392 391
f 390 387 383
f 393 388 394
f 393 384 386
f 393 386 388
f 395 394 396
f 397 392 390
f 397 398 392
f 399 393 394
f 399 394 395
f 400 399 395
f 401 398 397
f 402 400 403
f 402 399 400
f 404 398 401
f 405 404 401
f 406 403 407
f 406 402 403
f 408 404 405
f 409 406 407
f 410 408 405
f 411 406 409
f 412 408 410
f 413 411 409
f 414 412 410
f 415 411 413
f 416 412 414
f 417 415 413
f 418 416 414
f 419 415 417
f 420 419 417
f 421 416 418
f 422 419 420
f 423 421 418
f 424 419 422
f 425 421 423
f 426 424 422
f 427 425 423
f 428 424 426
f 429 428 426
f 430 425 427
f 431 428 429
f 432 430 427
f 433 428 431
f 434 433 431
f 435 433 434
f 436 430 432
f 437 433 435
f 438 433 437
f 439 436 432
f 439 432 440
f 441 438 437
f 441 442 438
f 443 439 440
f 443 440 444
f 445 442 441
f 445 446 442
f 447 443 444
f 447 444 448
f 449 446 445
f 449 450 446
f 451 447 448
f 451 448 452
f 453 450 449
f 453 451 452
f 453 452 450
f 454 455 456
f 454 456 457
f 458 457 459
f 458 454 457
f 460 458 459
f 461 459 462
f 461 460 459
f 463 462 464
f 463 461 462
f 465 464 466
f 465 463 464
f 467 465 466
f 468 466 469
f 468 467 466
f 470 469 471
f 470 468 469
f 472 470 471
f 473 472 471
f 474 472 473
f 475 474 473
f 476 475 473
f 477 475 476
f 478 476 479
f 478 477 476
f 480 478 479
f 481 480 479
f 482 480 481
f 483 482 481
f 483 481 484
f 485 483 484
f 486 485 484
f 486 484 487
f 488 486 487
f 488 487 489
f 490 488 489
f 491 490 489
f 491 489 492
f 493 491 492
f 493 492 494
f 495 493 494
f 495 494 496
f 497 495 496
f 497 496 498
f 499 497 498
f 500 501 502
f 500 503 501
f 504 505 506
f 507 504 506
f 508 507 506
f 509 510 503
f 509 503 500
f 511 512 510
f 511 510 509
f 513 514 515
f 513 515 516
f 513 516 517
f 518 519 512
f 518 512 511
f 520 521 519
f 520 522 521
f 520 519 518
f 523 524 525
f 523 526 524
f 523 506 526
f 523 508 506
f 527 513 517
f 527 528 513
f 527 529 528
f 530 531 522
f 530 522 520
f 532 531 530
f 532 525 531
f 532 523 525
f 533 523 532
f 534 523 533
f 535 523 534
f 535 527 536
f 535 536 537
f 535 537 523
f 538 527 535
f 539 527 538
f 540 541 529
f 540 529 527
f 540 527 539
f 542 543 541
f 542 541 540
f 544 545 543
f 544 543 542
f 546 547 545
f 546 545 544
f 548 549 547
f 548 547 546
f 550 551 549
f 550 549 548
f 552 553 551
f 552 551 550
f 554 555 553
f 554 553 552
f 556 557 555
f 556 555 554
f 558 557 556
f 559 560 561
f 559 562 560
f 563 564 565
f 566 567 568
f 569 570 571
f 572 566 568
f 573 574 575
f 576 577 578
f 579 576 578
f 580 581 582
f 580 583 581
f 584 582 585
f 586 583 580
f 586 587 583
f 588 585 589
f 588 584 585
f 590 586 580
f 591 587 586
f 591 592 587
f 593 594 595
f 593 596 594
f 597 582 581
f 597 581 595
f 598 589 599
f 598 588 589
f 598 600 601
f 598 599 600
f 602 601 603
f 602 598 601
f 602 584 588
f 602 588 598
f 604 586 590
f 604 591 586
f 604 602 603
f 604 590 602
f 605 592 591
f 605 604 603
f 605 591 604
f 605 606 592
f 607 605 603
f 607 606 605
f 608 593 595
f 609 593 608
f 610 596 593
f 610 593 609
f 611 582 597
f 611 585 582
f 612 585 611
f 613 585 612
f 614 582 584
f 614 580 582
f 614 590 580
f 615 608 595
f 615 609 608
f 615 610 609
f 616 610 615
f 616 615 595
f 617 596 610
f 617 616 595
f 617 610 616
f 618 585 613
f 618 589 585
f 619 589 618
f 619 618 613
f 620 614 584
f 620 584 602
f 620 602 590
f 620 590 614
f 621 617 595
f 622 617 621
f 622 621 595
f 623 596 617
f 623 617 622
f 623 622 595
f 624 589 619
f 624 599 589
f 625 624 619
f 625 599 624
f 626 599 625
f 626 600 599
f 627 595 581
f 627 623 595
f 628 623 627
f 628 627 581
f 629 596 623
f 629 623 628
f 630 595 601
f 630 619 613
f 630 597 595
f 630 625 619
f 630 626 625
f 630 611 597
f 630 612 611
f 630 613 612
f 631 630 601
f 631 600 626
f 631 601 600
f 631 626 630
f 632 581 583
f 632 629 628
f 632 628 581
f 633 629 632
f 633 632 583
f 634 603 596
f 634 583 587
f 634 633 583
f 634 587 592
f 634 596 629
f 634 629 633
f 634 592 606
f 634 606 607
f 634 607 603
f 635 636 637
f 638 639 640
f 641 642 643
f 644 645 646
f 644 646 647
f 648 649 645
f 650 644 647
f 650 647 651
f 652 653 649
f 652 649 648
f 654 644 650
f 655 650 651
f 655 651 656
f 657 658 659
f 657 660 658
f 661 646 645
f 661 660 646
f 662 663 653
f 662 653 652
f 662 664 665
f 662 665 663
f 666 667 664
f 666 652 648
f 666 664 662
f 666 662 652
f 668 654 650
f 668 666 654
f 668 667 666
f 668 650 655
f 669 667 668
f 669 655 656
f 669 668 655
f 669 656 670
f 671 667 669
f 671 669 670
f 672 660 657
f 673 672 657
f 674 657 659
f 674 673 657
f 675 661 645
f 675 645 649
f 676 675 649
f 677 676 649
f 678 648 645
f 678 645 644
f 678 644 654
f 679 660 672
f 679 672 673
f 679 673 674
f 680 679 674
f 680 660 679
f 681 680 674
f 681 674 659
f 681 660 680
f 682 677 649
f 682 649 653
f 683 682 653
f 683 677 682
f 684 648 678
f 684 666 648
f 684 654 666
f 684 678 654
f 685 660 681
f 686 660 685
f 686 685 681
f 687 686 681
f 687 660 686
f 687 681 659
f 688 683 653
f 688 653 663
f 689 683 688
f 689 688 663
f 690 689 663
f 690 663 665
f 691 646 660
f 691 660 687
f 692 646 691
f 692 691 687
f 693 687 659
f 693 692 687
f 694 664 660
f 694 677 683
f 694 660 661
f 694 683 689
f 694 689 690
f 694 661 675
f 694 675 676
f 694 676 677
f 695 664 694
f 695 690 665
f 695 694 690
f 695 665 664
f 696 692 693
f 696 647 646
f 696 646 692
f 697 647 696
f 697 696 693
f 698 659 667
f 698 651 647
f 698 647 697
f 698 656 651
f 698 693 659
f 698 697 693
f 698 670 656
f 698 671 670
f 698 667 671
f 699 700 701
f 702 701 703
f 702 699 701
f 704 702 703
f 705 704 703
f 706 704 705
f 707 706 705
f 708 706 707
f 709 708 707
f 710 708 709
f 711 710 709
f 712 710 711
f 713 712 711
f 714 712 713
f 715 714 713
f 716 714 715
f 717 715 718
f 717 716 715
f 719 718 720
f 719 717 718
f 721 720 722
f 721 719 720
f 723 721 722
f 724 723 722
f 725 723 724
f 726 725 724
f 727 725 726
f 728 727 726
f 729 727 728
f 730 728 731
f 730 729 728
f 732 731 733
f 732 730 731
f 734 733 735
f 734 732 733
f 736 735 737
f 736 734 735
f 738 736 737
f 739 737 740
f 739 738 737
f 741 739 740
f 742 743 744
f 742 745 743
f 742 746 745
f 747 748 742
f 749 742 744
f 749 747 742
f 750 749 744
f 750 744 751
f 752 750 751
f 753 751 754
f 753 752 751
f 755 753 754
f 755 754 756
f 757 755 756
f 757 758 759
f 757 756 758
f 760 757 759
f 760 759 761
f 762 760 761
f 763 764 765
f 763 761 764
f 763 762 761
f 766 763 765
f 766 767 768
f 766 769 767
f 766 765 769
f 770 762 763
f 771 766 768
f 771 772 773
f 771 774 772
f 771 768 774
f 775 762 770
f 776 775 770
f 777 771 773
f 777 778 779
f 777 773 778
f 780 775 776
f 781 775 780
f 782 781 780
f 783 784 785
f 783 785 786
f 787 786 788
f 787 788 789
f 787 783 786
f 790 787 789
f 790 789 777
f 790 779 791
f 790 777 779
f 792 791 793
f 792 790 791
f 794 793 795
f 794 792 793
f 796 795 797
f 796 794 795
f 798 797 799
f 798 796 797
f 800 799 801
f 800 798 799
f 802 800 801
f 803 804 802
f 803 805 806
f 803 801 805
f 803 802 801
f 807 804 803
f 808 807 803
f 809 808 803
f 810 811 812
f 813 814 811
f 813 811 810
f 815 816 814
f 815 814 813
f 817 818 819
f 820 821 818
f 820 818 817
f 822 823 824
f 825 822 824
f 826 827 828
f 829 830 831
f 832 819 816
f 832 833 817
f 832 815 833
f 832 816 815
f 832 817 819
f 834 823 821
f 834 835 824
f 834 820 835
f 834 821 820
f 834 824 823
f 836 837 822
f 836 838 839
f 836 825 838
f 836 822 825
f 840 828 841
f 840 839 831
f 842 841 837
f 842 839 840
f 842 840 841
f 842 836 839
f 842 837 836
f 843 844 826
f 843 845 844
f 843 830 845
f 843 840 831
f 843 828 840
f 843 826 828
f 843 831 830
f 846 847 848
f 846 848 849
f 846 849 850
f 851 852 853
f 851 853 854
f 855 856 857
f 855 857 858
f 859 856 855
f 860 861 862
f 702 861 860
f 863 864 854
f 863 853 865
f 863 854 853
f 866 851 858
f 866 857 852
f 866 852 851
f 866 858 857
f 867 859 860
f 867 862 856
f 867 856 859
f 867 860 862
f 868 860 869
f 868 869 870
f 868 871 702
f 868 870 871
f 868 702 860
f 872 873 874
f 872 874 847
f 872 846 875
f 872 876 873
f 872 847 846
f 877 872 875
f 877 876 872
f 878 875 864
f 878 865 876
f 878 876 877
f 878 877 875
f 879 864 863
f 879 878 864
f 879 865 878
f 879 863 865
f 880 881 882
f 883 882 884
f 885 886 887
f 888 884 889
f 888 883 884
f 890 891 892
f 893 894 895
f 896 897 898
f 899 888 889
f 900 901 902
f 903 904 905
f 906 898 907
f 906 899 908
f 909 910 911
f 912 913 914
f 915 907 916
f 915 906 907
f 917 918 919
f 920 912 914
f 921 912 920
f 922 923 924
f 922 915 923
f 925 921 920
f 926 921 925
f 927 922 924
f 927 924 928
f 929 930 931
f 932 933 934
f 935 936 937
f 938 927 939
f 940 941 929
f 942 938 939
f 943 944 945
f 946 938 942
f 947 948 949
f 950 946 942
f 951 952 953
f 954 946 950
f 955 948 947
f 955 947 956
f 957 951 953
f 958 954 959
f 960 961 962
f 963 964 965
f 966 958 959
f 967 958 966
f 968 965 969
f 970 971 972
f 973 967 966
f 974 975 967
f 974 967 973
f 976 977 978
f 976 970 977
f 979 975 974
f 980 975 979
f 981 980 979
f 982 980 981
f 983 981 979
f 984 980 982
f 985 983 979
f 986 980 984
f 987 976 978
f 987 978 988
f 989 990 991
f 992 980 986
f 993 994 995
f 996 997 998
f 999 980 1000
f 1001 980 999
f 1002 987 988
f 1003 980 1001
f 1004 980 1003
f 1005 1006 1007
f 1008 988 1009
f 1010 1011 1012
f 1013 1004 1014
f 1015 1016 1017
f 1018 1019 1020
f 1021 1022 1023
f 1024 1009 1025
f 1026 1010 1027
f 1028 1029 1030
f 1031 1032 1013
f 1033 1028 1030
f 1034 1035 1036
f 1037 1032 1031
f 1037 1038 1032
f 1039 1033 1040
f 1039 1040 1041
f 1042 1038 1037
f 1042 1043 1038
f 1044 1039 1041
f 1045 1041 1043
f 1045 1043 1042
f 1045 1044 1041
f 1046 1047 1048
f 1046 1048 1049
f 1050 1051 1052
f 1053 1054 1055
f 1056 1057 1058
f 1059 1060 1061
f 1062 1063 1064
f 1065 1066 1067
f 1068 1069 1070
f 1071 1072 1073
f 1065 1074 1075
f 1062 1076 1077
f 1078 1079 1080
f 1081 1082 1083
f 1084 1085 1086
f 1087 1088 1089
f 1059 1090 1091
f 1092 1093 1094
f 1092 1094 1078
f 1095 1096 1097
f 1098 1096 1095
f 1099 1100 1101
f 1099 1102 1100
f 1103 1104 1102
f 1103 1102 1099
f 1105 1104 1103
f 1106 1107 1104
f 1106 1104 1105
f 1108 1109 1107
f 1108 1107 1106
f 1110 1109 1108
f 1111 1112 1109
f 1111 1109 1110
f 1113 1114 1112
f 1113 1112 1111
f 1115 1114 1113
f 1116 1117 1114
f 1116 1114 1115
f 1118 1119 1117
f 1118 1117 1116
f 1120 1119 1118
f 1121 1122 1119
f 1121 1119 1120
f 1123 1122 1121
f 1124 1125 1122
f 1124 1122 1123
f 1126 1125 1124
f 1127 1128 1129
f 1130 1131 1132
f 1133 1134 1135
f 1133 1136 1134
f 1137 1138 1139
f 1137 1140 1138
f 1141 1142 1143
f 1144 1141 1143
f 1145 1146 1147
f 1148 1147 1149
f 1150 1151 1152
f 1153 1154 1155
f 1156 1157 1158
f 1159 1160 1161
f 1162 1163 1164
f 1162 1164 1165
f 1166 1167 1168
f 1169 1170 1171
f 1172 1173 1174
f 1175 1176 1177
f 1178 1179 1180
f 1181 1182 1183
f 1172 1184 1162
f 1185 1172 1186
f 1187 1172 1185
f 1188 1141 1189
f 1190 1191 1141
f 1190 1141 1188
f 1192 1191 1190
f 1193 1194 1191
f 1193 1191 1192
f 1195 1196 1194
f 1195 1194 1193
f 1197 1198 1196
f 1197 1196 1195
f 1199 1200 1198
f 1199 1198 1197
f 1201 1202 1200
f 1201 1200 1199
f 1203 1204 1202
f 1203 1202 1201
f 1205 1206 1204
f 1205 1204 1203
f 1207 1208 1206
f 1207 1206 1205
f 1209 1210 1208
f 1209 1208 1207
f 1211 1212 1210
f 1211 1210 1209
f 1213 1214 1212
f 1213 1212 1211
f 1215 1216 1214
f 1215 1214 1213
f 1217 1216 1215
f 1217 1218 1216
f 1219 1218 1217
f 1219 1220 1218
f 1221 1220 1219
f 1222 1220 1221
f 1222 1223 1220
f 1224 1223 1222
f 1225 1223 1224

