# https://github.com/mikedh/trimesh
v -0.04763138 -0.02801948 -0.08595133
v -0.03535330 -0.04265168 -0.08604028
v -0.04213243 -0.03587267 -0.08599907
v -0.01881110 -0.05220214 -0.08609834
v -0.02749997 -0.04815052 -0.08607370
v -0.05416440 -0.01007047 -0.08584222
v -0.05168306 -0.01933077 -0.08589851
v -0.05499994 -0.00051996 -0.08578417
v -0.00000000 -0.05551894 -0.08611850
v -0.00955063 -0.05468343 -0.08611342
v -0.01881110 -0.05220214 -0.08609834
v 0.01881110 -0.05220214 -0.08609834
v -0.05416440 0.00903043 -0.08572611
v -0.05168306 0.01829073 -0.08566982
v 0.00955063 -0.05468343 -0.08611342
v 0.02749997 -0.04815052 -0.08607370
v -0.04763138 0.02697944 -0.08561700
v -0.03535330 0.04161164 -0.08552805
v -0.04213243 0.03483263 -0.08556926
v 0.04213243 -0.03587267 -0.08599907
v 0.03535330 -0.04265168 -0.08604028
v -0.02749997 0.04711049 -0.08549462
v 0.05416440 -0.01007047 -0.08584222
v 0.05168306 -0.01933077 -0.08589851
v 0.04763138 -0.02801948 -0.08595133
v 0.00955063 0.05364338 -0.08545491
v -0.01881110 0.05116209 -0.08547000
v -0.00955063 0.05364338 -0.08545491
v -0.00000000 0.05447897 -0.08544984
v 0.05416440 0.00903043 -0.08572611
v 0.05499994 -0.00051996 -0.08578417
v 0.02749997 0.04711049 -0.08549462
v 0.01881110 0.05116209 -0.08547000
v 0.04213243 0.03483263 -0.08556926
v 0.03535330 0.04161164 -0.08552805
v 0.04763138 0.02697944 -0.08561700
v 0.05168306 0.01829073 -0.08566982
v -0.00955063 -0.05468343 -0.08611342
v -0.00000000 -0.05551894 -0.08611850
v -0.00000000 -0.05559797 -0.07311879
v -0.00955063 -0.05476246 -0.07311371
v -0.01881110 -0.05220214 -0.08609834
v -0.01881110 -0.05228116 -0.07309863
v -0.02749997 -0.04815052 -0.08607370
v -0.02749997 -0.04822955 -0.07307400
v -0.03535330 -0.04265168 -0.08604028
v -0.03535330 -0.04273070 -0.07304057
v -0.04213243 -0.03587267 -0.08599907
v -0.04213243 -0.03595169 -0.07299937
v -0.04763138 -0.02801948 -0.08595133
v -0.04763138 -0.02809851 -0.07295162
v -0.05168306 -0.01933077 -0.08589851
v -0.05168306 -0.01940980 -0.07289881
v -0.05416440 -0.01007047 -0.08584222
v -0.05416440 -0.01014950 -0.07284252
v -0.05499994 -0.00051996 -0.08578417
v -0.05499994 -0.00059898 -0.07278446
v -0.05416440 0.00903043 -0.08572611
v -0.05416440 0.00895141 -0.07272641
v -0.05168306 0.01829073 -0.08566982
v -0.05168306 0.01821171 -0.07267011
v -0.04763138 0.02697944 -0.08561700
v -0.04763138 0.02690042 -0.07261729
v -0.04213243 0.03483263 -0.08556926
v -0.04213243 0.03475361 -0.07256956
v -0.03535330 0.04161164 -0.08552805
v -0.03535330 0.04153261 -0.07252835
v -0.02749997 0.04711049 -0.08549462
v -0.02749997 0.04703146 -0.07249492
v -0.01881110 0.05116209 -0.08547000
v -0.01881110 0.05108307 -0.07247029
v -0.00955063 0.05364338 -0.08545491
v -0.00955063 0.05356436 -0.07245521
v -0.00000000 0.05447897 -0.08544984
v -0.00000000 0.05439994 -0.07245013
v 0.00955063 0.05364338 -0.08545491
v 0.00955063 0.05356436 -0.07245521
v 0.01881110 0.05116209 -0.08547000
v 0.01881110 0.05108307 -0.07247029
v 0.02749997 0.04711049 -0.08549462
v 0.02749997 0.04703146 -0.07249492
v 0.03535330 0.04161164 -0.08552805
v 0.03535330 0.04153261 -0.07252835
v 0.04213243 0.03483263 -0.08556926
v 0.04213243 0.03475361 -0.07256956
v 0.04763138 0.02697944 -0.08561700
v 0.04763138 0.02690042 -0.07261729
v 0.05168306 0.01829073 -0.08566982
v 0.05168306 0.01821171 -0.07267011
v 0.05416440 0.00895141 -0.07272641
v 0.05416440 0.00903043 -0.08572611
v 0.05499994 -0.00051996 -0.08578417
v 0.05499994 -0.00059898 -0.07278446
v 0.05416440 -0.01007047 -0.08584222
v 0.05416440 -0.01014950 -0.07284252
v 0.05168306 -0.01933077 -0.08589851
v 0.05168306 -0.01940980 -0.07289881
v 0.04763138 -0.02801948 -0.08595133
v 0.04763138 -0.02809851 -0.07295162
v 0.04213243 -0.03587267 -0.08599907
v 0.04213243 -0.03595169 -0.07299937
v 0.03535330 -0.04265168 -0.08604028
v 0.03535330 -0.04273070 -0.07304057
v 0.02749997 -0.04815052 -0.08607370
v 0.02749997 -0.04822955 -0.07307400
v 0.01881110 -0.05220214 -0.08609834
v 0.01881110 -0.05228116 -0.07309863
v 0.00955063 -0.05468343 -0.08611342
v 0.00955063 -0.05476246 -0.07311371
v -0.00000000 -0.05551894 -0.08611850
v -0.00000000 -0.05559797 -0.07311879
v 0.05826407 -0.00062814 0.00970620
v 0.05804991 0.00397900 0.00993048
v 0.05734854 -0.00042345 0.01427979
v 0.05826407 0.00824221 0.00094299
v 0.05734854 0.01281298 0.00120324
v 0.05804991 0.00841053 0.00555250
v 0.05877906 0.00263457 0.00413775
v 0.05881571 -0.00083542 0.00507470
v 0.05899995 -0.00104395 0.00041419
v 0.05899995 -0.00104395 0.00041419
v 0.05881571 0.00361364 0.00067942
v -0.05804991 0.00397900 0.00993048
v -0.05826407 -0.00062814 0.00970620
v -0.05734854 -0.00042345 0.01427979
v -0.05734854 0.01281298 0.00120324
v -0.05826407 0.00824221 0.00094299
v -0.05804991 0.00841053 0.00555250
v -0.05877906 0.00263457 0.00413775
v -0.05881571 0.00361364 0.00067942
v -0.05899995 -0.00104395 0.00041419
v -0.05899995 -0.00104395 0.00041419
v -0.05881571 -0.00083542 0.00507470
v -0.00000000 0.05822495 -0.04365989
v -0.00041686 0.05837848 -0.06915001
v -0.00046996 0.05837869 -0.06925521
v -0.00030736 0.05837841 -0.06903164
v -0.00016131 0.05837853 -0.06895265
v -0.00000000 0.05837854 -0.06892584
v -0.01068264 0.05742471 -0.07243174
v -0.00050000 0.05837949 -0.06942586
v -0.00050000 0.05839773 -0.07242583
v -0.00654352 0.05785880 -0.04329816
v -0.01300638 0.05676473 -0.04221731
v -0.02054417 0.05470756 -0.07244826
v -0.01930868 0.05495628 -0.04043071
v -0.02537280 0.05245576 -0.03796040
v -0.02978819 0.05032801 -0.07247488
v -0.03112381 0.04929406 -0.03483692
v -0.03813683 0.04441766 -0.07251081
v -0.03649085 0.04551021 -0.03109880
v -0.04140758 0.04115081 -0.02679202
v -0.04533910 0.03715419 -0.07255496
v -0.04581344 0.03626965 -0.02196990
v -0.05117863 0.02875594 -0.07260601
v -0.05080020 0.02905486 -0.01484230
v -0.05547976 0.01947531 -0.07266243
v -0.05467355 0.02117847 -0.00706108
v -0.05899995 -0.00065977 -0.06278459
v -0.05811327 0.00959125 -0.07272252
v -0.05899995 -0.00059898 -0.07278446
v -0.05734854 0.01281298 0.00120324
v -0.05826407 0.00824221 0.00094299
v -0.05811280 -0.01084873 -0.06350899
v -0.05811327 -0.01078933 -0.07284641
v -0.05881571 0.00361364 0.00067942
v -0.05899995 -0.00104395 0.00041419
v -0.05549067 -0.02069605 -0.06419834
v -0.05547976 -0.02067339 -0.07290649
v -0.05124104 -0.02989454 -0.06480490
v -0.05117863 -0.02995402 -0.07296290
v -0.05096399 -0.03037442 -0.06483542
v -0.05068248 -0.03085174 -0.06486568
v -0.05039650 -0.03132638 -0.06489563
v -0.04776400 -0.03528133 -0.06514080
v -0.04533910 -0.03835229 -0.07301395
v -0.04484069 -0.03898943 -0.06536272
v -0.03813683 -0.04561575 -0.07305811
v -0.03830140 -0.04552032 -0.06573490
v -0.03078836 -0.05097067 -0.06602702
v -0.02978819 -0.05152610 -0.07309404
v -0.02256059 -0.05515603 -0.06623980
v -0.02054417 -0.05590564 -0.07312066
v -0.01371604 -0.05802251 -0.06637996
v -0.01068264 -0.05862279 -0.07313718
v -0.00458473 -0.05946021 -0.06644860
v -0.00050000 -0.05959583 -0.07314309
v -0.00050000 -0.05961406 -0.07014313
v -0.00046990 -0.05961533 -0.06997224
v -0.00041783 -0.05961632 -0.06986848
v -0.00035036 -0.05961730 -0.06978641
v -0.00018800 -0.05961866 -0.06967983
v -0.00002953 -0.05961918 -0.06964401
v 0.00472778 -0.05944888 -0.06644806
v 0.00010559 -0.05961905 -0.06965444
v 0.00021239 -0.05961853 -0.06969050
v 0.00036410 -0.05961709 -0.06980047
v 0.00046469 -0.05961547 -0.06995859
v 0.00050000 -0.05961406 -0.07014313
v 0.00050000 -0.05959583 -0.07314309
v 0.01068264 -0.05862279 -0.07313718
v 0.01391333 -0.05797502 -0.06637770
v 0.02054417 -0.05590564 -0.07312066
v 0.02272117 -0.05508930 -0.06623648
v 0.02978819 -0.05152610 -0.07309404
v 0.03096097 -0.05086474 -0.06602149
v 0.03813683 -0.04561575 -0.07305811
v 0.03844636 -0.04539620 -0.06572819
v 0.04496514 -0.03884345 -0.06535403
v 0.04533910 -0.03835229 -0.07301395
v 0.05039638 -0.03132661 -0.06489563
v 0.05117863 -0.02995402 -0.07296290
v 0.05068230 -0.03085209 -0.06486569
v 0.05096375 -0.03037490 -0.06483548
v 0.05124068 -0.02989507 -0.06480496
v 0.05547976 -0.02067339 -0.07290649
v 0.05550348 -0.02066060 -0.06419593
v 0.05811327 -0.01078933 -0.07284641
v 0.05812752 -0.01076458 -0.06350442
v 0.05899995 -0.00059898 -0.07278446
v 0.05899995 -0.00065977 -0.06278459
v 0.05811327 0.00959125 -0.07272252
v 0.05881571 0.00361364 0.00067942
v 0.05899995 -0.00104395 0.00041419
v 0.05826407 0.00824221 0.00094299
v 0.05734854 0.01281298 0.00120324
v 0.05547976 0.01947531 -0.07266243
v 0.05288195 0.02518887 -0.01102302
v 0.05117863 0.02875594 -0.07260601
v 0.04662841 0.03523601 -0.02094876
v 0.04533910 0.03715419 -0.07255496
v 0.03940141 0.04304856 -0.02866689
v 0.03813683 0.04441766 -0.07251081
v 0.03180056 0.04886488 -0.03441293
v 0.02978819 0.05032801 -0.07247488
v 0.02424126 0.05298334 -0.03848162
v 0.02054417 0.05470756 -0.07244826
v 0.01699310 0.05570969 -0.04117502
v 0.01068264 0.05742471 -0.07243174
v 0.01021617 0.05732835 -0.04277411
v 0.00050000 0.05837949 -0.06942586
v 0.00050000 0.05839773 -0.07242583
v 0.00512749 0.05800039 -0.04343803
v 0.00047322 0.05837875 -0.06926457
v -0.00000000 0.05822495 -0.04365989
v 0.00017062 0.05837849 -0.06895588
v -0.00000000 0.05837854 -0.06892584
v 0.00027586 0.05837845 -0.06900899
v 0.00039424 0.05837840 -0.06911848
v -0.00582391 -0.06636248 -0.05869579
v -0.00000000 -0.06636941 -0.05898397
v -0.00000000 -0.06838408 -0.05899622
v -0.01021784 -0.06838951 -0.05810473
v -0.01158469 -0.06634111 -0.05783526
v -0.02012693 -0.06840560 -0.05545713
v -0.02131366 -0.06626859 -0.05499901
v -0.02942776 -0.06843188 -0.05113349
v -0.03039216 -0.06614804 -0.05055235
v -0.03783923 -0.06846756 -0.04526446
v -0.03859114 -0.06597399 -0.04460996
v -0.04510718 -0.06851155 -0.03802739
v -0.04564440 -0.06574075 -0.03736401
v -0.05101191 -0.06856253 -0.02964100
v -0.05135947 -0.06544460 -0.02901580
v -0.05537503 -0.06861895 -0.02035876
v -0.05556195 -0.06508700 -0.01982152
v -0.05806463 -0.06867912 -0.01046112
v -0.05813485 -0.06467957 -0.01003942
v -0.05899941 -0.06874121 -0.00024734
v -0.05899995 -0.06424283 0.00003002
v -0.05815124 -0.06880335 0.00997401
v -0.05881571 -0.00083542 0.00507470
v -0.05899995 -0.00104395 0.00041419
v -0.05826407 -0.00062814 0.00970620
v -0.05734854 -0.00042345 0.01427979
v -0.05554562 -0.06886365 0.01989406
v -0.05276679 -0.01303211 0.02673608
v -0.05126130 -0.06892030 0.02921296
v -0.04632586 -0.02323573 0.03681640
v -0.04542785 -0.06897157 0.03764907
v -0.03887724 -0.03112652 0.04461183
v -0.03822153 -0.06901594 0.04494746
v -0.03104817 -0.03695172 0.05036664
v -0.02986007 -0.06905206 0.05088755
v -0.02327233 -0.04102262 0.05438835
v -0.02059620 -0.06907881 0.05528987
v -0.01582968 -0.04365909 0.05699295
v -0.01070994 -0.06909542 0.05802132
v -0.00888538 -0.04515840 0.05847415
v -0.00050000 -0.06610139 0.05901765
v -0.00050000 -0.06910136 0.05899942
v -0.00181228 -0.04580737 0.05911527
v -0.00046990 -0.06593058 0.05901892
v -0.00041783 -0.06582681 0.05901997
v -0.00035036 -0.06574473 0.05902089
v -0.00018800 -0.06563812 0.05902231
v -0.00002953 -0.06560230 0.05902277
v 0.00010559 -0.06561273 0.05902265
v 0.00021239 -0.06564878 0.05902213
v 0.00036410 -0.06575874 0.05902075
v 0.01070994 -0.06909542 0.05802132
v 0.00050000 -0.06610139 0.05901765
v 0.00050000 -0.06910136 0.05899942
v 0.00528705 -0.04559658 0.05890704
v 0.00046469 -0.06591686 0.05901907
v 0.01230978 -0.04452907 0.05785242
v 0.02059620 -0.06907881 0.05528987
v 0.01915413 -0.04262030 0.05596672
v 0.02572095 -0.03989797 0.05327729
v 0.02986007 -0.06905206 0.05088755
v 0.03191494 -0.03640148 0.04982305
v 0.03822153 -0.06901594 0.04494746
v 0.03764653 -0.03218149 0.04565406
v 0.04283255 -0.02729926 0.04083082
v 0.04542785 -0.06897157 0.03764907
v 0.04739785 -0.02182545 0.03542316
v 0.05126130 -0.06892030 0.02921296
v 0.05127626 -0.01583936 0.02950941
v 0.05554562 -0.06886365 0.01989406
v 0.05485010 -0.00834579 0.02210639
v 0.05899995 -0.06424283 0.00003002
v 0.05815124 -0.06880335 0.00997401
v 0.05899941 -0.06874121 -0.00024734
v 0.05871462 -0.06449030 -0.00576721
v 0.05806463 -0.06867912 -0.01046112
v 0.05826407 -0.00062814 0.00970620
v 0.05785453 -0.06473850 -0.01154249
v 0.05881571 -0.00083542 0.00507470
v 0.05899995 -0.00104395 0.00041419
v 0.05537503 -0.06861895 -0.02035876
v 0.05502438 -0.06514521 -0.02126702
v 0.05101191 -0.06856253 -0.02964100
v 0.05058354 -0.06549366 -0.03034751
v 0.04510718 -0.06851155 -0.03802739
v 0.04465121 -0.06578036 -0.03854516
v 0.03783923 -0.06846756 -0.04526446
v 0.03741133 -0.06600407 -0.04560372
v 0.02942776 -0.06843188 -0.05113349
v 0.02906417 -0.06616973 -0.05132730
v 0.02012693 -0.06840560 -0.05545713
v 0.01986825 -0.06628248 -0.05553740
v 0.01021784 -0.06838951 -0.05810473
v 0.01008081 -0.06634811 -0.05811622
v -0.00000000 -0.06838408 -0.05899622
v -0.00000000 -0.06636941 -0.05898397
v 0.05823308 -0.01075831 -0.06223318
v 0.05899995 -0.06424283 0.00003002
v 0.05827486 -0.06373128 -0.00964156
v 0.05899995 -0.00065977 -0.06278459
v 0.05591017 -0.02066701 -0.06174819
v 0.05610251 -0.06327720 -0.01907570
v 0.05207473 -0.02998869 -0.06137761
v 0.05251461 -0.06290553 -0.02802146
v 0.05180966 -0.03050158 -0.06136010
v 0.05153965 -0.03101191 -0.06134300
v 0.05126488 -0.03151961 -0.06132624
v 0.04772585 -0.03720583 -0.06115910
v 0.04752689 -0.06262396 -0.03631854
v 0.04355531 -0.04247298 -0.06103560
v 0.04129791 -0.06242596 -0.04364764
v 0.03686738 -0.04888748 -0.06092504
v 0.03389388 -0.06229002 -0.04990125
v 0.02919214 -0.05419049 -0.06086382
v 0.02562403 -0.06220230 -0.05481080
v 0.02081775 -0.05817932 -0.06083293
v 0.01659131 -0.06214873 -0.05831673
v 0.01186335 -0.06079889 -0.06081922
v 0.00717115 -0.06212157 -0.06027520
v 0.00259811 -0.06195837 -0.06081441
v -0.00250965 -0.06211684 -0.06066165
v -0.00673491 -0.06162684 -0.06081543
v -0.01213657 -0.06213324 -0.05944460
v -0.01584130 -0.05982627 -0.06082428
v -0.02139759 -0.06217331 -0.05666644
v -0.02459096 -0.05658450 -0.06084368
v -0.03004354 -0.06224307 -0.05241746
v -0.03265213 -0.05202453 -0.06088570
v -0.03790807 -0.06235392 -0.04677395
v -0.03993809 -0.04619339 -0.06096719
v -0.04469931 -0.06252076 -0.03994843
v -0.04616701 -0.03932168 -0.06110543
v -0.05031478 -0.06276093 -0.03206101
v -0.05126500 -0.03151920 -0.06132641
v -0.05153983 -0.03101137 -0.06134317
v -0.05180984 -0.03050092 -0.06136033
v -0.05207502 -0.02998797 -0.06137789
v -0.05456179 -0.06308760 -0.02342631
v -0.05590987 -0.02066588 -0.06174806
v -0.05743569 -0.06351011 -0.01410868
v -0.05822324 -0.01080095 -0.06222818
v -0.05860990 -0.06386508 -0.00707432
v -0.05899995 -0.00065977 -0.06278459
v -0.05899995 -0.06424283 0.00003002
v 0.05871462 -0.06449030 -0.00576721
v 0.05899995 -0.06424283 0.00003002
v 0.05899995 -0.06424283 0.00003002
v 0.05827486 -0.06373128 -0.00964156
v 0.05785453 -0.06473850 -0.01154249
v 0.05610251 -0.06327720 -0.01907570
v 0.05502438 -0.06514521 -0.02126702
v 0.04752689 -0.06262396 -0.03631854
v 0.05251461 -0.06290553 -0.02802146
v 0.05058354 -0.06549366 -0.03034751
v 0.04465121 -0.06578036 -0.03854516
v 0.03389388 -0.06229002 -0.04990125
v 0.04129791 -0.06242596 -0.04364764
v 0.03741133 -0.06600407 -0.04560372
v 0.02906417 -0.06616973 -0.05132730
v -0.03859114 -0.06597399 -0.04460996
v -0.03790807 -0.06235392 -0.04677395
v -0.03039216 -0.06614804 -0.05055235
v -0.05031478 -0.06276093 -0.03206101
v -0.04469931 -0.06252076 -0.03994843
v -0.04564440 -0.06574075 -0.03736401
v -0.05135947 -0.06544460 -0.02901580
v -0.05456179 -0.06308760 -0.02342631
v -0.05743569 -0.06351011 -0.01410868
v -0.05556195 -0.06508700 -0.01982152
v -0.05813485 -0.06467957 -0.01003942
v -0.05860990 -0.06386508 -0.00707432
v -0.05899995 -0.06424283 0.00003002
v -0.05899995 -0.06424283 0.00003002
v 0.05456483 -0.06413954 -0.02265902
v 0.04187756 -0.06408725 -0.04191945
v 0.02271991 -0.06407277 -0.05486407
v 0.01659131 -0.06214873 -0.05831673
v 0.02562403 -0.06220230 -0.05481080
v 0.01986825 -0.06628248 -0.05553740
v -0.02276968 -0.06407277 -0.05484327
v -0.02131366 -0.06626859 -0.05499901
v -0.03004354 -0.06224307 -0.05241746
v -0.02139759 -0.06217331 -0.05666644
v -0.04190802 -0.06408733 -0.04188858
v -0.05458503 -0.06413972 -0.02260937
v 0.02721375 -0.06407443 -0.05275672
v 0.01813507 -0.06407174 -0.05656277
v 0.01322102 -0.06407122 -0.05792249
v 0.00717115 -0.06212157 -0.06027520
v 0.01008081 -0.06634811 -0.05811622
v 0.00858951 -0.06407091 -0.05879702
v 0.00353020 -0.06407064 -0.05932132
v -0.00250965 -0.06211684 -0.06066165
v -0.00000000 -0.06636941 -0.05898397
v -0.00000072 -0.06407036 -0.05942681
v -0.00123048 -0.06407074 -0.05941389
v -0.00416309 -0.06407078 -0.05927989
v -0.00582391 -0.06636248 -0.05869579
v -0.00888711 -0.06407094 -0.05875226
v -0.01158469 -0.06634111 -0.05783526
v -0.01213657 -0.06213324 -0.05944460
v -0.01177662 -0.06407116 -0.05823644
v -0.01639527 -0.06407177 -0.05709677
v -0.02121812 -0.06407261 -0.05546848
v -0.03004372 -0.06407555 -0.05117878
v -0.05822324 -0.01080095 -0.06222818
v -0.05899995 -0.00065977 -0.06278459
v -0.05899995 -0.00065977 -0.06278459
v -0.05811280 -0.01084873 -0.06350899
v -0.05590987 -0.02066588 -0.06174806
v -0.05549067 -0.02069605 -0.06419834
v -0.05180984 -0.03050092 -0.06136033
v -0.05124104 -0.02989454 -0.06480490
v -0.05096399 -0.03037442 -0.06483542
v -0.05207502 -0.02998797 -0.06137789
v -0.05153983 -0.03101137 -0.06134317
v -0.05068248 -0.03085174 -0.06486568
v -0.05126500 -0.03151920 -0.06132641
v -0.05039650 -0.03132638 -0.06489563
v -0.04776400 -0.03528133 -0.06514080
v -0.04616701 -0.03932168 -0.06110543
v -0.04484069 -0.03898943 -0.06536272
v 0.03844636 -0.04539620 -0.06572819
v 0.03686738 -0.04888748 -0.06092504
v 0.03096097 -0.05086474 -0.06602149
v 0.04772585 -0.03720583 -0.06115910
v 0.04355531 -0.04247298 -0.06103560
v 0.04496514 -0.03884345 -0.06535403
v 0.05039638 -0.03132661 -0.06489563
v 0.05126488 -0.03151961 -0.06132624
v 0.05068230 -0.03085209 -0.06486569
v 0.05153965 -0.03101191 -0.06134300
v 0.05096375 -0.03037490 -0.06483548
v 0.05180966 -0.03050158 -0.06136010
v 0.05124068 -0.02989507 -0.06480496
v 0.05207473 -0.02998869 -0.06137761
v 0.05812752 -0.01076458 -0.06350442
v 0.05591017 -0.02066701 -0.06174819
v 0.05550348 -0.02066060 -0.06419593
v 0.05823308 -0.01075831 -0.06223318
v 0.05899995 -0.00065977 -0.06278459
v 0.05899995 -0.00065977 -0.06278459
v -0.05456906 -0.02341508 -0.06297508
v -0.04190355 -0.04270775 -0.06317688
v -0.03830140 -0.04552032 -0.06573490
v -0.03993809 -0.04619339 -0.06096719
v 0.00002434 -0.06026619 -0.06339906
v -0.00458473 -0.05946021 -0.06644860
v 0.00472778 -0.05944888 -0.06644806
v 0.00259811 -0.06195837 -0.06081441
v -0.00673491 -0.06162684 -0.06081543
v 0.04195922 -0.04265119 -0.06317618
v 0.05460155 -0.02333485 -0.06297429
v -0.03531402 -0.04847514 -0.06324645
v -0.03078836 -0.05097067 -0.06602702
v -0.03265213 -0.05202453 -0.06088570
v -0.02756226 -0.05340528 -0.06330889
v -0.02256059 -0.05515603 -0.06623980
v -0.02459096 -0.05658450 -0.06084368
v -0.02336812 -0.05542248 -0.06333505
v -0.02274358 -0.05568879 -0.06333834
v -0.01912623 -0.05706705 -0.06335667
v -0.01371604 -0.05802251 -0.06637996
v -0.01584130 -0.05982627 -0.06082428
v -0.01463150 -0.05841564 -0.06337453
v -0.01020854 -0.05937332 -0.06338732
v -0.00559050 -0.06000049 -0.06339572
v 0.00364906 -0.06015331 -0.06339772
v 0.00817204 -0.05969600 -0.06339167
v 0.01391333 -0.05797502 -0.06637770
v 0.01186335 -0.06079889 -0.06081922
v 0.01279211 -0.05885765 -0.06338049
v 0.01719522 -0.05769507 -0.06336495
v 0.02272117 -0.05508930 -0.06623648
v 0.02081775 -0.05817932 -0.06083293
v 0.02160340 -0.05615313 -0.06334455
v 0.02282494 -0.05565463 -0.06333789
v 0.02574497 -0.05432910 -0.06332083
v 0.02919214 -0.05419049 -0.06086382
v 0.02985829 -0.05211867 -0.06329244
v -0.05899995 -0.06424283 0.00003002
v -0.05899995 -0.00104395 0.00041419
v 0.05899995 -0.00104395 0.00041419
f 1 2 3
f 4 5 2
f 6 1 7
f 8 1 6
f 9 10 11
f 9 2 1
f 9 11 2
f 12 8 13
f 12 13 14
f 12 15 9
f 12 1 8
f 12 9 1
f 16 14 17
f 16 12 14
f 18 17 19
f 20 21 16
f 20 16 17
f 20 17 18
f 22 20 18
f 23 24 25
f 26 22 27
f 26 27 28
f 26 28 29
f 30 31 23
f 30 25 20
f 30 20 22
f 30 23 25
f 32 26 33
f 34 26 32
f 34 32 35
f 34 36 37
f 34 37 30
f 34 30 22
f 34 22 26
f 38 39 40
f 38 40 41
f 42 41 43
f 42 38 41
f 44 43 45
f 44 42 43
f 46 45 47
f 46 44 45
f 48 47 49
f 48 46 47
f 50 48 49
f 50 49 51
f 52 50 51
f 52 51 53
f 54 52 53
f 54 53 55
f 56 54 55
f 56 55 57
f 58 56 57
f 58 57 59
f 60 58 59
f 60 59 61
f 62 60 61
f 62 61 63
f 64 62 63
f 64 63 65
f 66 64 65
f 66 65 67
f 68 66 67
f 68 67 69
f 70 68 69
f 70 69 71
f 72 70 71
f 72 71 73
f 74 72 73
f 74 73 75
f 76 75 77
f 76 74 75
f 78 77 79
f 78 76 77
f 80 79 81
f 80 78 79
f 82 81 83
f 82 80 81
f 84 83 85
f 84 82 83
f 86 85 87
f 86 84 85
f 88 89 90
f 88 87 89
f 88 86 87
f 91 88 90
f 92 90 93
f 92 91 90
f 94 93 95
f 94 92 93
f 96 95 97
f 96 94 95
f 98 97 99
f 98 96 97
f 100 99 101
f 100 98 99
f 102 100 101
f 102 101 103
f 104 102 103
f 104 103 105
f 106 104 105
f 106 105 107
f 108 106 107
f 108 107 109
f 110 108 109
f 110 109 111
f 112 113 114
f 115 116 117
f 118 119 120
f 118 112 119
f 118 120 121
f 118 121 122
f 118 122 115
f 118 117 113
f 118 113 112
f 118 115 117
f 123 124 125
f 126 127 128
f 129 123 128
f 129 127 130
f 129 130 131
f 129 131 132
f 129 132 133
f 129 133 124
f 129 124 123
f 129 128 127
f 134 135 136
f 134 137 135
f 134 138 137
f 134 139 138
f 140 141 142
f 143 134 136
f 143 141 140
f 143 136 141
f 144 143 140
f 144 140 145
f 146 144 145
f 147 146 145
f 147 145 148
f 149 147 148
f 149 148 150
f 151 149 150
f 152 151 150
f 152 150 153
f 154 152 153
f 154 153 155
f 156 154 155
f 156 155 157
f 158 156 157
f 159 160 161
f 162 158 157
f 162 157 160
f 163 160 159
f 163 162 160
f 164 161 165
f 164 159 161
f 166 163 159
f 167 166 159
f 168 165 169
f 168 164 165
f 170 169 171
f 170 168 169
f 172 170 171
f 173 172 171
f 174 173 171
f 175 174 171
f 176 175 171
f 177 175 176
f 178 177 176
f 179 177 178
f 180 179 178
f 180 178 181
f 182 180 181
f 183 182 181
f 184 182 183
f 185 184 183
f 186 184 185
f 187 186 185
f 188 186 187
f 189 186 188
f 190 186 189
f 191 186 190
f 192 186 191
f 193 186 192
f 194 186 193
f 194 193 195
f 194 195 196
f 194 196 197
f 194 197 198
f 194 198 199
f 194 199 200
f 201 194 200
f 202 194 201
f 203 202 201
f 204 202 203
f 205 204 203
f 206 204 205
f 207 206 205
f 208 206 207
f 209 207 210
f 209 208 207
f 211 210 212
f 211 209 210
f 213 211 212
f 214 213 212
f 215 214 212
f 216 215 212
f 217 215 216
f 218 217 216
f 219 217 218
f 220 219 218
f 221 219 220
f 222 221 220
f 223 224 221
f 225 223 221
f 225 221 222
f 226 225 222
f 226 222 227
f 228 226 227
f 228 227 229
f 230 228 229
f 230 229 231
f 232 230 231
f 232 231 233
f 234 232 233
f 234 233 235
f 236 234 235
f 236 235 237
f 238 236 237
f 238 237 239
f 240 238 239
f 241 239 242
f 243 241 244
f 243 240 239
f 243 239 241
f 245 246 247
f 245 248 246
f 245 249 248
f 245 244 249
f 245 243 244
f 250 251 252
f 253 250 252
f 254 250 253
f 255 254 253
f 256 254 255
f 257 256 255
f 258 256 257
f 259 258 257
f 260 258 259
f 261 260 259
f 262 260 261
f 263 262 261
f 264 262 263
f 265 264 263
f 266 264 265
f 267 266 265
f 268 266 267
f 269 268 267
f 270 268 269
f 271 270 269
f 272 273 270
f 272 270 271
f 274 272 271
f 275 274 271
f 275 271 276
f 277 276 278
f 277 275 276
f 279 278 280
f 279 277 278
f 281 280 282
f 281 279 280
f 283 282 284
f 283 281 282
f 285 284 286
f 285 283 284
f 287 286 288
f 287 285 286
f 289 287 288
f 290 288 291
f 290 289 288
f 292 290 293
f 292 293 294
f 292 294 295
f 292 295 296
f 292 296 297
f 292 297 298
f 292 298 299
f 292 299 300
f 292 289 290
f 301 302 303
f 304 302 301
f 304 300 305
f 304 305 302
f 304 292 300
f 306 304 301
f 307 306 301
f 308 306 307
f 309 308 307
f 309 307 310
f 311 309 310
f 311 310 312
f 313 311 312
f 314 313 312
f 314 312 315
f 316 314 315
f 316 315 317
f 318 316 317
f 318 317 319
f 320 318 319
f 321 322 323
f 114 320 319
f 114 319 322
f 324 321 323
f 325 324 323
f 326 114 322
f 327 324 325
f 328 322 321
f 328 326 322
f 329 328 321
f 330 327 325
f 331 327 330
f 332 331 330
f 333 331 332
f 334 333 332
f 335 333 334
f 336 335 334
f 337 335 336
f 338 337 336
f 339 337 338
f 340 339 338
f 341 339 340
f 342 341 340
f 343 341 342
f 344 343 342
f 345 343 344
f 346 347 348
f 346 349 347
f 350 348 351
f 350 346 348
f 352 351 353
f 352 350 351
f 354 352 353
f 355 354 353
f 356 355 353
f 357 353 358
f 357 356 353
f 359 358 360
f 359 357 358
f 361 360 362
f 361 359 360
f 363 362 364
f 363 361 362
f 365 364 366
f 365 363 364
f 367 366 368
f 367 365 366
f 369 367 368
f 370 369 368
f 371 370 372
f 371 369 370
f 373 372 374
f 373 371 372
f 375 373 374
f 375 374 376
f 377 376 378
f 377 375 376
f 379 377 378
f 379 378 380
f 381 380 382
f 381 379 380
f 383 381 382
f 384 383 382
f 385 384 382
f 386 382 387
f 386 385 382
f 388 387 389
f 388 386 387
f 390 388 389
f 390 389 391
f 392 390 391
f 392 391 393
f 394 395 396
f 397 395 394
f 398 397 394
f 399 397 398
f 400 399 398
f 401 402 403
f 404 401 403
f 405 406 407
f 408 405 407
f 409 410 411
f 412 413 414
f 415 412 414
f 416 412 415
f 417 416 418
f 419 417 418
f 420 417 419
f 421 420 419
f 422 420 421
f 423 402 399
f 423 400 403
f 423 399 400
f 423 403 402
f 424 406 401
f 424 404 407
f 424 401 404
f 424 407 406
f 425 426 427
f 425 408 428
f 429 430 411
f 429 431 432
f 433 410 409
f 433 409 414
f 433 414 413
f 433 413 410
f 434 415 418
f 434 416 415
f 434 418 416
f 435 427 405
f 435 425 427
f 435 408 425
f 435 405 408
f 436 425 428
f 436 426 425
f 437 438 426
f 437 428 439
f 437 426 436
f 437 436 428
f 440 437 439
f 440 438 437
f 441 442 438
f 441 440 439
f 441 439 443
f 441 438 440
f 441 444 442
f 441 443 444
f 445 442 444
f 445 444 443
f 446 442 445
f 446 443 447
f 446 445 443
f 448 447 449
f 448 450 442
f 448 442 446
f 448 446 447
f 451 450 448
f 451 448 449
f 452 449 430
f 452 432 450
f 452 450 451
f 452 451 449
f 453 432 452
f 453 430 429
f 453 429 432
f 453 452 430
f 454 411 410
f 454 410 431
f 454 429 411
f 454 431 429
f 455 456 457
f 455 457 458
f 459 458 460
f 459 455 458
f 461 462 463
f 461 464 462
f 465 463 466
f 465 461 463
f 467 466 468
f 467 465 466
f 469 467 468
f 470 469 471
f 470 467 469
f 472 473 474
f 475 476 477
f 478 475 477
f 479 478 480
f 479 475 478
f 481 480 482
f 481 479 480
f 483 482 484
f 483 481 482
f 485 483 484
f 486 487 488
f 489 487 486
f 490 489 486
f 491 489 490
f 492 464 459
f 492 460 462
f 492 459 460
f 492 462 464
f 493 471 494
f 493 495 470
f 493 470 471
f 493 494 495
f 496 497 498
f 496 499 500
f 501 472 477
f 501 473 472
f 501 477 476
f 501 476 473
f 502 484 488
f 502 487 485
f 502 485 484
f 502 488 487
f 503 494 504
f 503 505 495
f 503 495 494
f 503 504 505
f 506 504 507
f 506 508 505
f 506 505 504
f 509 506 507
f 509 508 506
f 509 510 508
f 509 507 510
f 511 507 512
f 511 513 508
f 511 508 510
f 511 510 507
f 514 511 512
f 514 513 511
f 515 512 497
f 515 514 512
f 515 513 514
f 515 500 513
f 516 500 515
f 516 497 496
f 516 496 500
f 516 515 497
f 517 499 496
f 517 496 498
f 518 498 519
f 518 520 499
f 518 517 498
f 518 499 517
f 521 518 519
f 521 520 518
f 522 520 521
f 522 519 523
f 522 524 520
f 522 521 519
f 525 524 522
f 525 522 523
f 525 523 526
f 525 526 524
f 527 526 523
f 527 524 526
f 527 523 474
f 527 528 524
f 529 528 527
f 529 527 474
f 529 474 473
f 529 473 528
f 530 531 159
f 321 221 532

