# https://github.com/mikedh/trimesh
v -0.00607765 -0.08430136 0.06662930
v 0.00000000 -0.08376963 0.06663253
v 0.00000000 -0.08370277 0.05563270
v -0.00607765 -0.08423450 0.05562947
v -0.01197069 -0.08588032 0.06661970
v -0.01197069 -0.08581346 0.05561987
v -0.01749998 -0.08845866 0.06660403
v -0.01749998 -0.08839180 0.05560420
v -0.02249753 -0.09195792 0.06658275
v -0.02249753 -0.09189106 0.05558293
v -0.02681154 -0.09627184 0.06655654
v -0.02681154 -0.09620497 0.05555670
v -0.03031086 -0.10126927 0.06652615
v -0.03031086 -0.10120241 0.05552632
v -0.03288924 -0.10679846 0.06649254
v -0.03288924 -0.10673160 0.05549271
v -0.03446823 -0.11269136 0.06645672
v -0.03446823 -0.11262450 0.05545689
v -0.03499996 -0.11876894 0.06641977
v -0.03499996 -0.11870208 0.05541994
v -0.03446823 -0.12484653 0.06638283
v -0.03446823 -0.12477966 0.05538300
v -0.03288924 -0.13073942 0.06634701
v -0.03288924 -0.13067256 0.05534718
v -0.03031086 -0.13626863 0.06631340
v -0.03031086 -0.13620177 0.05531356
v -0.02681154 -0.14126612 0.06628302
v -0.02681154 -0.14119926 0.05528319
v -0.02249753 -0.14558004 0.06625680
v -0.02249753 -0.14551318 0.05525696
v -0.01749998 -0.14907929 0.06623553
v -0.01749998 -0.14901243 0.05523569
v -0.01197069 -0.15165763 0.06621985
v -0.01197069 -0.15159076 0.05522002
v -0.00607765 -0.15323660 0.06621026
v -0.00607765 -0.15316974 0.05521042
v 0.00000000 -0.15376830 0.06620702
v 0.00000000 -0.15370144 0.05520719
v 0.00607765 -0.15323660 0.06621026
v 0.00607765 -0.15316974 0.05521042
v 0.01197069 -0.15165763 0.06621985
v 0.01197069 -0.15159076 0.05522002
v 0.01749998 -0.14907929 0.06623553
v 0.01749998 -0.14901243 0.05523569
v 0.02249753 -0.14558004 0.06625680
v 0.02249753 -0.14551318 0.05525696
v 0.02681154 -0.14126612 0.06628302
v 0.02681154 -0.14119926 0.05528319
v 0.03031086 -0.13626863 0.06631340
v 0.03031086 -0.13620177 0.05531356
v 0.03288924 -0.13073942 0.06634701
v 0.03288924 -0.13067256 0.05534718
v 0.03446823 -0.12484653 0.06638283
v 0.03446823 -0.12477966 0.05538300
v 0.03499996 -0.11876894 0.06641977
v 0.03499996 -0.11870208 0.05541994
v 0.03446823 -0.11269136 0.06645672
v 0.03446823 -0.11262450 0.05545689
v 0.03288924 -0.10679846 0.06649254
v 0.03288924 -0.10673160 0.05549271
v 0.03031086 -0.10126927 0.06652615
v 0.03031086 -0.10120241 0.05552632
v 0.02681154 -0.09627184 0.06655654
v 0.02681154 -0.09620497 0.05555670
v 0.02249753 -0.09195792 0.06658275
v 0.02249753 -0.09189106 0.05558293
v 0.01749998 -0.08845866 0.06660403
v 0.01749998 -0.08839180 0.05560420
v 0.01197069 -0.08588032 0.06661970
v 0.01197069 -0.08581346 0.05561987
v 0.00607765 -0.08430136 0.06662930
v 0.00607765 -0.08423450 0.05562947
v 0.00000000 -0.08376963 0.06663253
v 0.00000000 -0.08370277 0.05563270
v -0.03031086 -0.10126927 0.06652615
v -0.01749998 -0.08845866 0.06660403
v -0.02249753 -0.09195792 0.06658275
v -0.03031086 -0.10126927 0.06652615
v -0.02249753 -0.09195792 0.06658275
v -0.02681154 -0.09627184 0.06655654
v -0.01197069 -0.08588032 0.06661970
v -0.03446823 -0.11269136 0.06645672
v -0.03288924 -0.10679846 0.06649254
v -0.03499996 -0.11876894 0.06641977
v 0.01197069 -0.08588032 0.06661970
v 0.00000000 -0.08376963 0.06663253
v -0.00607765 -0.08430136 0.06662930
v 0.00607765 -0.08430136 0.06662930
v -0.03288924 -0.13073942 0.06634701
v -0.03446823 -0.12484653 0.06638283
v 0.01749998 -0.08845866 0.06660403
v 0.02249753 -0.09195792 0.06658275
v 0.02681154 -0.09627184 0.06655654
v -0.02249753 -0.14558004 0.06625680
v -0.03031086 -0.13626863 0.06631340
v -0.02249753 -0.14558004 0.06625680
v -0.03031086 -0.13626863 0.06631340
v -0.02681154 -0.14126612 0.06628302
v -0.01749998 -0.14907929 0.06623553
v 0.03288924 -0.10679846 0.06649254
v 0.03031086 -0.10126927 0.06652615
v -0.00607765 -0.15323660 0.06621026
v -0.01197069 -0.15165763 0.06621985
v 0.00000000 -0.15376830 0.06620702
v 0.00607765 -0.15323660 0.06621026
v 0.03288924 -0.13073942 0.06634701
v 0.03446823 -0.12484653 0.06638283
v 0.03499996 -0.11876894 0.06641977
v 0.03446823 -0.11269136 0.06645672
v 0.01749998 -0.14907929 0.06623553
v 0.01197069 -0.15165763 0.06621985
v 0.02249753 -0.14558004 0.06625680
v 0.01749998 -0.14907929 0.06623553
v 0.02249753 -0.14558004 0.06625680
v 0.02681154 -0.14126612 0.06628302
v 0.03031086 -0.13626863 0.06631340
v -0.00187111 -0.15757339 0.03845697
v 0.00501263 -0.15729280 0.03817978
v 0.00158489 -0.15758616 0.03846971
v -0.00532198 -0.15725113 0.03813867
v 0.00867778 -0.15663382 0.03752878
v 0.00501263 -0.15729280 0.03817978
v -0.00867599 -0.15663412 0.03752919
v -0.01190692 -0.15574305 0.03664881
v 0.01248598 -0.15555111 0.03645912
v -0.01499462 -0.15459947 0.03551908
v 0.01606780 -0.15413024 0.03505551
v -0.01790124 -0.15323706 0.03417311
v 0.01987868 -0.15213452 0.03308390
v -0.02147901 -0.15112644 0.03208807
v 0.02381414 -0.14944924 0.03043114
v -0.02444446 -0.14894934 0.02993719
v 0.02726370 -0.14643288 0.02745119
v -0.02769070 -0.14600691 0.02703034
v 0.03061103 -0.14268972 0.02375318
v -0.03081876 -0.14242242 0.02348919
v -0.03340440 -0.13862906 0.01974159
v 0.03378909 -0.13797432 0.01909486
v -0.03605955 -0.13332924 0.01450585
v 0.03607100 -0.13330168 0.01447861
v -0.03801566 -0.12715524 0.00840656
v 0.03827834 -0.12591538 0.00718157
v -0.03875952 -0.12277476 0.00407887
v 0.03900319 -0.11836348 -0.00027900
v -0.03900301 -0.11836348 -0.00027900
v 0.03856962 -0.11255098 -0.00602122
v -0.03827923 -0.11085527 -0.00769650
v 0.03728818 -0.10686674 -0.01163681
v -0.03614372 -0.10362441 -0.01483992
v 0.03510266 -0.10126640 -0.01716953
v -0.00354224 -0.07928933 -0.03888096
v 0.00044364 -0.07912970 -0.03903866
v 0.00442487 -0.07938054 -0.03879086
v -0.00792569 -0.07994595 -0.03823227
v 0.00835979 -0.08003920 -0.03814014
v 0.01220732 -0.08109879 -0.03709336
v -0.03267228 -0.09693842 -0.02144514
v 0.02877926 -0.09188378 -0.02643871
v 0.03209173 -0.09606802 -0.02230503
v -0.01267379 -0.08125675 -0.03693732
v 0.01592707 -0.08254825 -0.03566144
v -0.02799326 -0.09104432 -0.02726802
v 0.02594012 -0.08906472 -0.02922369
v -0.01770937 -0.08340564 -0.03481441
v 0.01948022 -0.08437239 -0.03385932
v -0.02289181 -0.08659743 -0.03166117
v 0.02282959 -0.08655216 -0.03170590
v -0.01787495 -0.06855262 0.03098477
v -0.02738606 -0.06850411 0.02300416
v -0.02297961 -0.06853089 0.02741053
v -0.03520685 -0.06840216 0.00623274
v -0.03096038 -0.06847308 0.01789959
v -0.02738606 -0.06850411 0.02300416
v -0.03359401 -0.06843875 0.01225191
v 0.00000000 -0.06858174 0.03577427
v -0.01222717 -0.06856863 0.03361830
v -0.00620788 -0.06857844 0.03523117
v -0.03520685 -0.06832669 -0.00618286
v -0.03574997 -0.06836442 0.00002495
v -0.03096038 -0.06825577 -0.01784971
v -0.03359401 -0.06829010 -0.01220203
v 0.01787495 -0.06855262 0.03098477
v 0.00620788 -0.06857844 0.03523117
v 0.01222717 -0.06856863 0.03361830
v -0.02297961 -0.06819795 -0.02736060
v -0.02738606 -0.06822474 -0.02295428
v 0.02738606 -0.06850411 0.02300416
v 0.02297961 -0.06853089 0.02741053
v -0.01222717 -0.06816021 -0.03356842
v -0.01787495 -0.06817622 -0.03093484
v 0.03520685 -0.06840216 0.00623274
v 0.03096038 -0.06847308 0.01789959
v 0.03359401 -0.06843875 0.01225191
v 0.02738606 -0.06850411 0.02300416
v 0.00000000 -0.06814711 -0.03572434
v -0.00620788 -0.06815041 -0.03518123
v 0.00620788 -0.06815041 -0.03518123
v 0.01787495 -0.06817622 -0.03093484
v 0.01222717 -0.06816021 -0.03356842
v 0.03096038 -0.06825577 -0.01784971
v 0.03520685 -0.06832669 -0.00618286
v 0.03359401 -0.06829010 -0.01220203
v 0.03574997 -0.06836442 0.00002495
v 0.02738606 -0.06822474 -0.02295428
v 0.02297961 -0.06819795 -0.02736060
v 0.00000000 -0.06814711 -0.03572434
v 0.00000000 -0.06964710 -0.03573346
v -0.00620788 -0.06965040 -0.03519035
v -0.00620788 -0.06815041 -0.03518123
v -0.01222717 -0.06966020 -0.03357754
v -0.01222717 -0.06816021 -0.03356842
v -0.01787495 -0.06967621 -0.03094396
v -0.01787495 -0.06817622 -0.03093484
v -0.02297961 -0.06969794 -0.02736971
v -0.02297961 -0.06819795 -0.02736060
v -0.02738606 -0.06972472 -0.02296339
v -0.02738606 -0.06822474 -0.02295428
v -0.03096038 -0.06975576 -0.01785883
v -0.03096038 -0.06825577 -0.01784971
v -0.03359401 -0.06979009 -0.01221115
v -0.03359401 -0.06829010 -0.01220203
v -0.03520685 -0.06982668 -0.00619198
v -0.03520685 -0.06832669 -0.00618286
v -0.03574997 -0.06986441 0.00001583
v -0.03574997 -0.06836442 0.00002495
v -0.03520685 -0.06990214 0.00622362
v -0.03520685 -0.06840216 0.00623274
v -0.03359401 -0.06993873 0.01224280
v -0.03359401 -0.06843875 0.01225191
v -0.03096038 -0.06997307 0.01789047
v -0.03096038 -0.06847308 0.01789959
v -0.02738606 -0.07000410 0.02299504
v -0.02738606 -0.06850411 0.02300416
v -0.02297961 -0.07003088 0.02740141
v -0.02297961 -0.06853089 0.02741053
v -0.01787495 -0.07005261 0.03097565
v -0.01787495 -0.06855262 0.03098477
v -0.01222717 -0.07006862 0.03360919
v -0.01222717 -0.06856863 0.03361830
v -0.00620788 -0.07007843 0.03522205
v -0.00620788 -0.06857844 0.03523117
v 0.00000000 -0.07008173 0.03576515
v 0.00000000 -0.06858174 0.03577427
v 0.00620788 -0.06857844 0.03523117
v 0.00620788 -0.07007843 0.03522205
v 0.01222717 -0.06856863 0.03361830
v 0.01222717 -0.07006862 0.03360919
v 0.01787495 -0.07005261 0.03097565
v 0.01787495 -0.06855262 0.03098477
v 0.02297961 -0.07003088 0.02740141
v 0.02297961 -0.06853089 0.02741053
v 0.02738606 -0.06850411 0.02300416
v 0.02738606 -0.07000410 0.02299504
v 0.03096038 -0.06847308 0.01789959
v 0.03096038 -0.06997307 0.01789047
v 0.03359401 -0.06993873 0.01224280
v 0.03359401 -0.06843875 0.01225191
v 0.03520685 -0.06990214 0.00622362
v 0.03520685 -0.06840216 0.00623274
v 0.03574997 -0.06986441 0.00001583
v 0.03574997 -0.06836442 0.00002495
v 0.03520685 -0.06832669 -0.00618286
v 0.03520685 -0.06982668 -0.00619198
v 0.03359401 -0.06829010 -0.01220203
v 0.03359401 -0.06979009 -0.01221115
v 0.03096038 -0.06975576 -0.01785883
v 0.03096038 -0.06825577 -0.01784971
v 0.02738606 -0.06972472 -0.02296339
v 0.02738606 -0.06822474 -0.02295428
v 0.02297961 -0.06819795 -0.02736060
v 0.02297961 -0.06969794 -0.02736971
v 0.01787495 -0.06817622 -0.03093484
v 0.01787495 -0.06967621 -0.03094396
v 0.01222717 -0.06816021 -0.03356842
v 0.01222717 -0.06966020 -0.03357754
v 0.00620788 -0.06815041 -0.03518123
v 0.00620788 -0.06965040 -0.03519035
v 0.00000000 -0.06814711 -0.03572434
v 0.00000000 -0.06964710 -0.03573346
v -0.02681154 -0.14119926 0.05528319
v -0.03189778 -0.14194465 0.05527866
v -0.02879172 -0.14569028 0.05525589
v -0.02249753 -0.14551318 0.05525696
v -0.02523750 -0.14903383 0.05523556
v -0.02129405 -0.15191597 0.05521804
v -0.03031086 -0.13620177 0.05531356
v -0.03667038 -0.13331820 0.05533110
v -0.03451800 -0.13784732 0.05530356
v -0.01749998 -0.14901243 0.05523569
v -0.01702654 -0.15428902 0.05520362
v -0.03288924 -0.13067256 0.05534718
v -0.03857040 -0.12712593 0.05536874
v -0.01197069 -0.15159076 0.05522002
v -0.01249378 -0.15611969 0.05519249
v -0.03446823 -0.12477966 0.05538300
v -0.03943151 -0.12070204 0.05540778
v -0.00607765 -0.15316974 0.05521042
v -0.00776631 -0.15737776 0.05518484
v -0.00415230 -0.15793057 0.05518148
v -0.00050000 -0.15780136 0.05518226
v -0.00050000 -0.15814665 0.05518017
v -0.03499996 -0.11870208 0.05541994
v -0.03946673 -0.11978246 0.05541338
v -0.03946679 -0.11670221 0.05543210
v 0.00000000 -0.15370144 0.05520719
v 0.00050000 -0.15780136 0.05518226
v 0.00697750 -0.15752776 0.05518393
v 0.00050000 -0.15814665 0.05518017
v -0.03446823 -0.11262450 0.05545689
v -0.03856891 -0.11009614 0.05547226
v 0.00607765 -0.15316974 0.05521042
v 0.01076501 -0.15665267 0.05518925
v -0.03288924 -0.10673160 0.05549271
v -0.03657335 -0.10373516 0.05551093
v 0.01197069 -0.15159076 0.05522002
v 0.01445496 -0.15540750 0.05519682
v -0.03031086 -0.10120241 0.05552632
v 0.01749998 -0.14901243 0.05523569
v 0.01888036 -0.15334263 0.05520937
v -0.03353679 -0.09780002 0.05554701
v 0.02351272 -0.15038709 0.05522734
v -0.02681154 -0.09620497 0.05555670
v 0.02249753 -0.14551318 0.05525696
v -0.02954572 -0.09245991 0.05557946
v 0.02768713 -0.14682016 0.05524902
v -0.02249753 -0.09189106 0.05558293
v 0.02681154 -0.14119926 0.05528319
v -0.02471369 -0.08786668 0.05560739
v 0.03131788 -0.14271882 0.05527395
v -0.01749998 -0.08839180 0.05560420
v 0.03031086 -0.13620177 0.05531356
v 0.03434187 -0.13816082 0.05530166
v -0.01917833 -0.08415106 0.05562998
v -0.01197069 -0.08581346 0.05561987
v 0.03648793 -0.13376701 0.05532837
v 0.03288924 -0.13067256 0.05534718
v -0.01309704 -0.08141883 0.05564658
v 0.03792715 -0.12965949 0.05535334
v -0.00607765 -0.08423450 0.05562947
v 0.03446823 -0.12477966 0.05538300
v 0.03890389 -0.12542406 0.05537908
v -0.00664306 -0.07974773 0.05565674
v 0.03923863 -0.12307310 0.05539337
v 0.00000000 -0.08370277 0.05563270
v 0.03499996 -0.11870208 0.05541994
v 0.03943151 -0.12070204 0.05540778
v 0.03946673 -0.11978246 0.05541338
v 0.00000000 -0.07918537 0.05566016
v 0.03946679 -0.11670211 0.05543210
v 0.03446823 -0.11262450 0.05545689
v 0.00664306 -0.07974773 0.05565674
v 0.00607765 -0.08423450 0.05562947
v 0.03856891 -0.11009614 0.05547226
v 0.03288924 -0.10673160 0.05549271
v 0.01309704 -0.08141883 0.05564658
v 0.01197069 -0.08581346 0.05561987
v 0.03657335 -0.10373516 0.05551093
v 0.03031086 -0.10120241 0.05552632
v 0.01917833 -0.08415106 0.05562998
v 0.01749998 -0.08839180 0.05560420
v 0.03353679 -0.09780002 0.05554701
v 0.02681154 -0.09620497 0.05555670
v 0.02471369 -0.08786668 0.05560739
v 0.02249753 -0.09189106 0.05558293
v 0.02954572 -0.09245991 0.05557946
v -0.03827923 -0.11085527 -0.00769650
v -0.03900301 -0.11836348 -0.00027900
v -0.03899997 -0.06986441 0.00001583
v -0.03840750 -0.06982324 -0.00675630
v -0.03614372 -0.10362441 -0.01483992
v -0.03664797 -0.06978333 -0.01332270
v -0.03377497 -0.06974588 -0.01948380
v -0.03267228 -0.09693842 -0.02144514
v -0.02987569 -0.06971202 -0.02505239
v -0.02799326 -0.09104432 -0.02726802
v -0.02506870 -0.06968281 -0.02985935
v -0.02289181 -0.08659743 -0.03166117
v -0.01949995 -0.06965910 -0.03375850
v -0.01770937 -0.08340564 -0.03481441
v -0.01333874 -0.06964163 -0.03663150
v -0.01267379 -0.08125675 -0.03693732
v -0.00792569 -0.07994595 -0.03823227
v -0.00677222 -0.06963094 -0.03839094
v -0.00354224 -0.07928933 -0.03888096
v 0.00000000 -0.06962734 -0.03898340
v 0.00044364 -0.07912970 -0.03903866
v 0.00442487 -0.07938054 -0.03879086
v 0.00677222 -0.06963094 -0.03839094
v 0.00835979 -0.08003920 -0.03814014
v 0.01333874 -0.06964163 -0.03663150
v 0.01220732 -0.08109879 -0.03709336
v 0.01592707 -0.08254825 -0.03566144
v 0.01949995 -0.06965910 -0.03375850
v 0.01948022 -0.08437239 -0.03385932
v 0.02282959 -0.08655216 -0.03170590
v 0.02506870 -0.06968281 -0.02985935
v 0.02594012 -0.08906472 -0.02922369
v 0.02987569 -0.06971202 -0.02505239
v 0.02877926 -0.09188378 -0.02643871
v 0.03209173 -0.09606802 -0.02230503
v 0.03377497 -0.06974588 -0.01948380
v 0.03510266 -0.10126640 -0.01716953
v 0.03664797 -0.06978333 -0.01332270
v 0.03728818 -0.10686674 -0.01163681
v 0.03840750 -0.06982324 -0.00675630
v 0.03856962 -0.11255098 -0.00602122
v 0.03899997 -0.06986441 0.00001583
v 0.03900319 -0.11836348 -0.00027900
v -0.03845661 -0.10839390 0.04780575
v -0.03900557 -0.06986758 0.00053710
v -0.03952533 -0.11666149 0.04873290
v -0.03843724 -0.06990779 0.00715260
v -0.00049765 -0.07012761 0.03956648
v -0.00049471 -0.07010469 0.03954253
v -0.00425172 -0.07010329 0.03931241
v -0.00049941 -0.07015057 0.03959053
v -0.00050000 -0.07017355 0.03961466
v -0.03624325 -0.10119798 0.04719818
v -0.03675794 -0.06994682 0.01357178
v -0.03296917 -0.09473122 0.04676118
v -0.03475618 -0.06997512 0.01822729
v 0.00709623 -0.07010074 0.03889280
v 0.00049471 -0.07010469 0.03954253
v 0.00049765 -0.07012761 0.03956648
v 0.00049941 -0.07015057 0.03959053
v 0.00050000 -0.07017361 0.03961466
v -0.02913987 -0.08955433 0.04649378
v -0.03221875 -0.07000115 0.02250975
v -0.02433395 -0.08492885 0.04631548
v -0.02915650 -0.07002501 0.02643602
v -0.02561253 -0.07004635 0.02994606
v -0.00050000 -0.07349305 0.04309452
v -0.01275563 -0.07009164 0.03739657
v -0.01735299 -0.07007991 0.03546565
v -0.00796181 -0.07009970 0.03872215
v 0.00050000 -0.07349305 0.04309452
v 0.01348751 -0.07009005 0.03713473
v 0.01814043 -0.07007746 0.03506273
v -0.01925784 -0.08146111 0.04621706
v -0.02165913 -0.07006473 0.03296922
v -0.01394844 -0.07894751 0.04616397
v -0.00874174 -0.07736535 0.04613824
v -0.00427407 -0.07661397 0.04612832
v 0.00000000 -0.07638124 0.04612562
v 0.00016667 -0.07349030 0.04309454
v -0.00016667 -0.07349030 0.04309454
v 0.00514787 -0.07672025 0.04613059
v 0.01037013 -0.07777501 0.04614427
v 0.01546031 -0.07956301 0.04617542
v 0.02238792 -0.07006170 0.03247015
v 0.02017349 -0.08200079 0.04623047
v 0.02627313 -0.07004277 0.02935742
v 0.02439242 -0.08497613 0.04631705
v 0.02973657 -0.07002095 0.02576774
v 0.02822822 -0.08854733 0.04645025
v 0.03270840 -0.06999668 0.02177424
v 0.03123658 -0.09217000 0.04661981
v 0.03514885 -0.06997029 0.01743432
v 0.03401672 -0.09651552 0.04687049
v 0.03701955 -0.06994218 0.01280957
v 0.03641247 -0.10162449 0.04723087
v 0.03828257 -0.06991291 0.00799390
v 0.03799206 -0.10647232 0.04763270
v 0.03882312 -0.06989037 0.00428615
v 0.03899466 -0.11127868 0.04808820
v 0.03900557 -0.06986758 0.00053710
v 0.03952533 -0.11666149 0.04873290
v -0.03902554 -0.11828078 0.00210380
v -0.03900557 -0.06986758 0.00053710
v -0.03899997 -0.06986441 0.00001583
v -0.03952533 -0.11666149 0.04873290
v -0.03900301 -0.11836348 -0.00027900
v -0.03902554 -0.11828078 0.00210380
v -0.03899997 -0.06986441 0.00001583
v 0.03902554 -0.11828078 0.00210380
v 0.03899997 -0.06986441 0.00001583
v 0.03900557 -0.06986758 0.00053710
v 0.03902554 -0.11828078 0.00210380
v 0.03900319 -0.11836348 -0.00027900
v 0.03899997 -0.06986441 0.00001583
v 0.03952533 -0.11666149 0.04873290
v -0.03952533 -0.11666149 0.04873290
v -0.03946673 -0.11978246 0.05541338
v -0.03946679 -0.11670221 0.05543210
v -0.03937226 -0.12066130 0.04870793
v -0.03943151 -0.12070204 0.05540778
v -0.03946673 -0.11978246 0.05541338
v -0.03952533 -0.11666149 0.04873290
v -0.03900647 -0.11836839 0.00001876
v -0.03901427 -0.11837073 0.00091209
v -0.03900748 -0.11835501 0.00031660
v -0.03900974 -0.11837930 0.00031645
v -0.03900337 -0.11836220 -0.00013008
v -0.03900384 -0.11835620 0.00001886
v -0.03900617 -0.11836819 -0.00013014
v -0.03900778 -0.11837450 0.00001871
v -0.03900170 -0.11836184 -0.00020452
v -0.03900194 -0.11835910 -0.00013005
v -0.03900462 -0.11836494 -0.00020456
v -0.03900611 -0.11836644 -0.00020458
v -0.03900688 -0.11836969 -0.00013016
v -0.03919959 -0.11948283 0.02425176
v -0.03952533 -0.11666149 0.04873290
v -0.03902554 -0.11828078 0.00210380
v -0.03937226 -0.12066130 0.04870793
v -0.03901320 -0.11832246 0.00094963
v -0.03900086 -0.11836241 -0.00024174
v -0.03900045 -0.11836222 -0.00024174
v -0.03900301 -0.11836348 -0.00027900
v -0.03900092 -0.11836114 -0.00020451
v -0.03900235 -0.11836322 -0.00024176
v -0.03900301 -0.11836348 -0.00027900
v -0.03900533 -0.11836471 -0.00024179
v -0.03900605 -0.11836512 -0.00024180
v -0.03900647 -0.11836684 -0.00020459
v -0.03900623 -0.11836521 -0.00024180
v -0.03910547 -0.11891698 0.01202363
v -0.03910511 -0.11892397 0.01200498
v -0.03910475 -0.11893096 0.01198629
v -0.03900706 -0.11834215 0.00037253
v -0.03900682 -0.11834234 0.00035393
v -0.03900659 -0.11834263 0.00033533
v -0.03900444 -0.11836421 -0.00011149
v -0.03905636 -0.11864311 0.00589085
v -0.03905612 -0.11864609 0.00587224
v -0.03905588 -0.11864918 0.00585362
v -0.03900355 -0.11835247 0.00004680
v -0.03900331 -0.11835296 0.00002819
v -0.03900343 -0.11836331 -0.00017662
v -0.03903144 -0.11850466 0.00282450
v -0.03903126 -0.11850575 0.00280590
v -0.03903108 -0.11850683 0.00278729
v -0.03900188 -0.11835764 -0.00010678
v -0.03900164 -0.11835822 -0.00012539
v -0.03900080 -0.11836085 -0.00020218
v -0.03901886 -0.11843503 0.00129133
v -0.03901875 -0.11843523 0.00127273
v -0.03901857 -0.11843532 0.00125413
v -0.03901314 -0.11832087 0.00095078
v -0.03900039 -0.11836223 -0.00024058
v -0.03901255 -0.11840017 0.00052477
v -0.03901243 -0.11839986 0.00050617
v -0.03901231 -0.11839945 0.00048752
v 0.03952533 -0.11666149 0.04873290
v 0.03946679 -0.11670211 0.05543210
v 0.03946673 -0.11978246 0.05541338
v 0.03937226 -0.12066130 0.04870793
v 0.03946673 -0.11978246 0.05541338
v 0.03943151 -0.12070204 0.05540778
v 0.03952533 -0.11666149 0.04873290
v 0.03900647 -0.11836839 0.00001876
v 0.03900748 -0.11835501 0.00031660
v 0.03901427 -0.11837073 0.00091209
v 0.03900974 -0.11837930 0.00031645
v 0.03900337 -0.11836220 -0.00013008
v 0.03900384 -0.11835620 0.00001886
v 0.03900617 -0.11836819 -0.00013014
v 0.03900784 -0.11837450 0.00001871
v 0.03900170 -0.11836184 -0.00020452
v 0.03900194 -0.11835910 -0.00013005
v 0.03900462 -0.11836494 -0.00020456
v 0.03900611 -0.11836644 -0.00020458
v 0.03900688 -0.11836969 -0.00013016
v 0.03919953 -0.11948343 0.02425176
v 0.03952533 -0.11666149 0.04873290
v 0.03937226 -0.12066130 0.04870793
v 0.03902554 -0.11828078 0.00210380
v 0.03901320 -0.11832246 0.00094963
v 0.03900086 -0.11836241 -0.00024174
v 0.03900092 -0.11836114 -0.00020451
v 0.03900319 -0.11836348 -0.00027900
v 0.03900045 -0.11836222 -0.00024173
v 0.03900235 -0.11836322 -0.00024175
v 0.03900319 -0.11836348 -0.00027900
v 0.03900533 -0.11836471 -0.00024179
v 0.03900605 -0.11836512 -0.00024180
v 0.03900647 -0.11836684 -0.00020458
v 0.03900623 -0.11836521 -0.00024180
v 0.03910547 -0.11891738 0.01202362
v 0.03910511 -0.11892437 0.01200498
v 0.03910475 -0.11893136 0.01198629
v 0.03900706 -0.11834215 0.00037253
v 0.03900682 -0.11834234 0.00035393
v 0.03900659 -0.11834263 0.00033533
v 0.03900444 -0.11836421 -0.00011149
v 0.03905636 -0.11864331 0.00589085
v 0.03905612 -0.11864638 0.00587223
v 0.03905588 -0.11864937 0.00585362
v 0.03900355 -0.11835247 0.00004680
v 0.03900331 -0.11835296 0.00002819
v 0.03900343 -0.11836331 -0.00017662
v 0.03903144 -0.11850476 0.00282450
v 0.03903126 -0.11850595 0.00280589
v 0.03903108 -0.11850693 0.00278729
v 0.03900188 -0.11835764 -0.00010677
v 0.03900164 -0.11835822 -0.00012539
v 0.03900080 -0.11836085 -0.00020218
v 0.03901886 -0.11843514 0.00129133
v 0.03901875 -0.11843523 0.00127273
v 0.03901857 -0.11843541 0.00125413
v 0.03901314 -0.11832087 0.00095078
v 0.03900039 -0.11836223 -0.00024057
v 0.03901255 -0.11840017 0.00052477
v 0.03901243 -0.11839986 0.00050617
v 0.03901231 -0.11839945 0.00048752
v -0.03939896 -0.11493792 0.04889198
v -0.03952533 -0.11666149 0.04873290
v -0.03946679 -0.11670221 0.05543210
v -0.03915196 -0.11291650 0.04923907
v -0.03856891 -0.11009614 0.05547226
v -0.03842425 -0.10922702 0.04979616
v -0.03657335 -0.10373516 0.05551093
v -0.03631204 -0.10297216 0.05054569
v -0.03353679 -0.09780002 0.05554701
v -0.03318560 -0.09715075 0.05120509
v -0.02954572 -0.09245991 0.05557946
v -0.02918237 -0.09198376 0.05175102
v -0.02471369 -0.08786668 0.05560739
v -0.02446651 -0.08761147 0.05217821
v -0.01917833 -0.08415106 0.05562998
v -0.01899671 -0.08400091 0.05250170
v -0.01309704 -0.08141883 0.05564658
v -0.01300263 -0.08134101 0.05271935
v -0.00677067 -0.07972767 0.05283936
v -0.00664306 -0.07974773 0.05565674
v 0.00000000 -0.07914421 0.05287980
v 0.00000000 -0.07918537 0.05566016
v 0.00449943 -0.07940081 0.05286143
v 0.00664306 -0.07974773 0.05565674
v 0.00883680 -0.08014329 0.05280668
v 0.01309704 -0.08141883 0.05564658
v 0.01452010 -0.08190364 0.05267014
v 0.01917833 -0.08415106 0.05562998
v 0.01969641 -0.08439265 0.05246422
v 0.02471369 -0.08786668 0.05560739
v 0.02429515 -0.08747718 0.05218975
v 0.02835893 -0.09111201 0.05183905
v 0.02954572 -0.09245991 0.05557946
v 0.03206861 -0.09552298 0.05138129
v 0.03353679 -0.09780002 0.05554701
v 0.03514540 -0.10051703 0.05082927
v 0.03657335 -0.10373516 0.05551093
v 0.03720211 -0.10520840 0.05028182
v 0.03856891 -0.11009614 0.05547226
v 0.03836387 -0.10898598 0.04982569
v 0.03912788 -0.11275668 0.04926960
v 0.03946679 -0.11670211 0.05543210
v 0.03952533 -0.11666149 0.04873290
v -0.03937226 -0.12066130 0.04870793
v -0.03801566 -0.12715524 0.00840656
v -0.03605955 -0.13332924 0.01450585
v -0.03875952 -0.12277476 0.00407887
v -0.03900301 -0.11836348 -0.00027900
v -0.03857040 -0.12712593 0.05536874
v -0.03943151 -0.12070204 0.05540778
v -0.03667038 -0.13331820 0.05533110
v -0.03451800 -0.13784732 0.05530356
v -0.03340440 -0.13862906 0.01974159
v -0.03189778 -0.14194465 0.05527866
v -0.03081876 -0.14242242 0.02348919
v -0.02879172 -0.14569028 0.05525589
v -0.02769070 -0.14600691 0.02703034
v -0.02523750 -0.14903383 0.05523556
v -0.02444446 -0.14894934 0.02993719
v -0.02129405 -0.15191597 0.05521804
v -0.02147901 -0.15112644 0.03208807
v -0.01702654 -0.15428902 0.05520362
v -0.01790124 -0.15323706 0.03417311
v -0.01249378 -0.15611969 0.05519249
v -0.00021265 -0.15803926 0.05172822
v -0.01499462 -0.15459947 0.03551908
v -0.01190692 -0.15574305 0.03664881
v -0.00010586 -0.15803865 0.05169210
v -0.00532198 -0.15725113 0.03813867
v -0.00187111 -0.15757339 0.03845697
v -0.00867599 -0.15663412 0.03752919
v -0.00036435 -0.15804172 0.05183835
v 0.00002941 -0.15803847 0.05168161
v 0.00501263 -0.15729280 0.03817978
v 0.00867778 -0.15663382 0.03752878
v 0.00158489 -0.15758616 0.03846971
v -0.00776631 -0.15737776 0.05518484
v -0.00046484 -0.15804569 0.05199652
v 0.00018771 -0.15803909 0.05171737
v 0.01248598 -0.15555111 0.03645912
v 0.01606780 -0.15413024 0.03505551
v -0.00050000 -0.15805110 0.05218073
v -0.00415230 -0.15793057 0.05518148
v -0.00050000 -0.15814665 0.05518017
v 0.00697750 -0.15752776 0.05518393
v 0.00050000 -0.15814665 0.05518017
v 0.00050000 -0.15805110 0.05218073
v 0.00046984 -0.15804607 0.05200969
v 0.01076501 -0.15665267 0.05518925
v 0.00041779 -0.15804334 0.05190606
v 0.00035013 -0.15804133 0.05182381
v 0.01445496 -0.15540750 0.05519682
v 0.01987868 -0.15213452 0.03308390
v 0.01888036 -0.15334263 0.05520937
v 0.02381414 -0.14944924 0.03043114
v 0.02351272 -0.15038709 0.05522734
v 0.02726370 -0.14643288 0.02745119
v 0.02768713 -0.14682016 0.05524902
v 0.03061103 -0.14268972 0.02375318
v 0.03131788 -0.14271882 0.05527395
v 0.03378909 -0.13797432 0.01909486
v 0.03434187 -0.13816082 0.05530166
v 0.03607100 -0.13330168 0.01447861
v 0.03648793 -0.13376701 0.05532837
v 0.03937226 -0.12066130 0.04870793
v 0.03792715 -0.12965949 0.05535334
v 0.03827834 -0.12591538 0.00718157
v 0.03900319 -0.11836348 -0.00027900
v 0.03890389 -0.12542406 0.05537908
v 0.03923863 -0.12307310 0.05539337
v 0.03943151 -0.12070204 0.05540778
v 0.03952533 -0.11666149 0.04873290
v 0.03912788 -0.11275668 0.04926960
v 0.03952533 -0.11666149 0.04873290
v 0.03899466 -0.11127868 0.04808820
v 0.03836387 -0.10898598 0.04982569
v 0.03799206 -0.10647232 0.04763270
v 0.03720211 -0.10520840 0.05028182
v 0.03401672 -0.09651552 0.04687049
v 0.03206861 -0.09552298 0.05138129
v 0.03514540 -0.10051703 0.05082927
v 0.03123658 -0.09217000 0.04661981
v 0.02835893 -0.09111201 0.05183905
v 0.01969641 -0.08439265 0.05246422
v 0.02429515 -0.08747718 0.05218975
v 0.02439242 -0.08497613 0.04631705
v 0.02017349 -0.08200079 0.04623047
v 0.00000000 -0.07901077 0.05139322
v 0.00000000 -0.07914421 0.05287980
v 0.00449943 -0.07940081 0.05286143
v 0.00000000 -0.07638124 0.04612562
v 0.00000000 -0.07732801 0.04727950
v 0.00514787 -0.07672025 0.04613059
v 0.03603047 -0.10196666 0.04900236
v 0.03641247 -0.10162449 0.04723087
v 0.02742731 -0.08961201 0.04922629
v 0.02822822 -0.08854733 0.04645025
v 0.01482194 -0.08137049 0.04938183
v 0.01452010 -0.08190364 0.05267014
v 0.01546031 -0.07956301 0.04617542
v 0.01037013 -0.07777501 0.04614427
v 0.00755507 -0.07920764 0.04942210
v 0.00883680 -0.08014329 0.05280668
v 0.00944275 -0.07954743 0.04922238
v 0.00474191 -0.07868700 0.04923745
v 0.00000000 -0.07865762 0.04994295
v 0.00000000 -0.07809244 0.04856151
v -0.00427407 -0.07661397 0.04612832
v 0.00000000 -0.07809244 0.04856151
v 0.00000000 -0.07732801 0.04727950
v -0.02433395 -0.08492885 0.04631548
v -0.02446651 -0.08761147 0.05217821
v -0.01899671 -0.08400091 0.05250170
v -0.01925784 -0.08146111 0.04621706
v -0.03296917 -0.09473122 0.04676118
v -0.03318560 -0.09715075 0.05120509
v -0.02918237 -0.09198376 0.05175102
v -0.02913987 -0.08955433 0.04649378
v -0.03624325 -0.10119798 0.04719818
v -0.03845661 -0.10839390 0.04780575
v -0.03842425 -0.10922702 0.04979616
v -0.03631204 -0.10297216 0.05054569
v -0.03915196 -0.11291650 0.04923907
v -0.01484197 -0.08130308 0.04919616
v -0.01394844 -0.07894751 0.04616397
v -0.01300263 -0.08134101 0.05271935
v -0.02745491 -0.08957238 0.04907091
v -0.03604286 -0.10195178 0.04890750
v -0.03946739 -0.11572151 0.04873909
v -0.03952533 -0.11666149 0.04873290
v -0.03952533 -0.11666149 0.04873290
v -0.03939896 -0.11493792 0.04889198
v -0.00547749 -0.07878289 0.04923574
v 0.00000000 -0.07914421 0.05287980
v -0.00874174 -0.07736535 0.04613824
v -0.00677067 -0.07972767 0.05283936
v -0.00761580 -0.07914288 0.04923009
v -0.01078712 -0.07990516 0.04921813
v -0.01327103 -0.08070237 0.04920571
v -0.02297961 -0.06969794 -0.02736971
v -0.01949995 -0.06965910 -0.03375850
v -0.02506870 -0.06968281 -0.02985935
v -0.02738606 -0.06972472 -0.02296339
v -0.02987569 -0.06971202 -0.02505239
v -0.03096038 -0.06975576 -0.01785883
v -0.03377497 -0.06974588 -0.01948380
v -0.01787495 -0.06967621 -0.03094396
v -0.01333874 -0.06964163 -0.03663150
v -0.03359401 -0.06979009 -0.01221115
v -0.03664797 -0.06978333 -0.01332270
v -0.01222717 -0.06966020 -0.03357754
v -0.00677222 -0.06963094 -0.03839094
v -0.03520685 -0.06982668 -0.00619198
v -0.03840750 -0.06982324 -0.00675630
v -0.00620788 -0.06965040 -0.03519035
v 0.00000000 -0.06962734 -0.03898340
v -0.03574997 -0.06986441 0.00001583
v -0.03899997 -0.06986441 0.00001583
v -0.03900557 -0.06986758 0.00053710
v 0.00000000 -0.06964710 -0.03573346
v 0.00677222 -0.06963094 -0.03839094
v -0.03520685 -0.06990214 0.00622362
v -0.03843724 -0.06990779 0.00715260
v 0.00620788 -0.06965040 -0.03519035
v 0.01333874 -0.06964163 -0.03663150
v -0.03359401 -0.06993873 0.01224280
v -0.03675794 -0.06994682 0.01357178
v 0.01222717 -0.06966020 -0.03357754
v -0.03475618 -0.06997512 0.01822729
v 0.01949995 -0.06965910 -0.03375850
v -0.03096038 -0.06997307 0.01789047
v 0.01787495 -0.06967621 -0.03094396
v -0.03221875 -0.07000115 0.02250975
v 0.02506870 -0.06968281 -0.02985935
v -0.02738606 -0.07000410 0.02299504
v 0.02297961 -0.06969794 -0.02736971
v -0.02915650 -0.07002501 0.02643602
v -0.02297961 -0.07003088 0.02740141
v -0.02561253 -0.07004635 0.02994606
v 0.02987569 -0.06971202 -0.02505239
v 0.02738606 -0.06972472 -0.02296339
v -0.02165913 -0.07006473 0.03296922
v -0.01787495 -0.07005261 0.03097565
v 0.03377497 -0.06974588 -0.01948380
v 0.03096038 -0.06975576 -0.01785883
v -0.01735299 -0.07007991 0.03546565
v -0.01222717 -0.07006862 0.03360919
v 0.03664797 -0.06978333 -0.01332270
v 0.03359401 -0.06979009 -0.01221115
v -0.01275563 -0.07009164 0.03739657
v -0.00796181 -0.07009970 0.03872215
v -0.00620788 -0.07007843 0.03522205
v 0.03840750 -0.06982324 -0.00675630
v 0.03520685 -0.06982668 -0.00619198
v -0.00425172 -0.07010329 0.03931241
v 0.00000000 -0.07008173 0.03576515
v -0.00037732 -0.07010313 0.03928701
v -0.00030856 -0.07010274 0.03922163
v -0.00043249 -0.07010360 0.03936420
v -0.00022869 -0.07010242 0.03917043
v -0.00047210 -0.07010413 0.03945039
v -0.00014059 -0.07010221 0.03913526
v 0.03899997 -0.06986441 0.00001583
v 0.03574997 -0.06986441 0.00001583
v -0.00049471 -0.07010469 0.03954253
v -0.00004743 -0.07010210 0.03911733
v 0.00000000 -0.07008173 0.03576515
v -0.00014059 -0.07010221 0.03913526
v 0.00004743 -0.07010210 0.03911733
v -0.00004743 -0.07010210 0.03911733
v 0.00014059 -0.07010221 0.03913526
v 0.00000000 -0.07008173 0.03576515
v 0.00004743 -0.07010210 0.03911733
v 0.00022869 -0.07010242 0.03917043
v 0.00014059 -0.07010221 0.03913526
v 0.00030856 -0.07010274 0.03922163
v 0.03900557 -0.06986758 0.00053710
v 0.00037732 -0.07010313 0.03928701
v 0.00620788 -0.07007843 0.03522205
v 0.00037732 -0.07010313 0.03928701
v 0.00043249 -0.07010360 0.03936420
v 0.00620788 -0.07007843 0.03522205
v 0.03882312 -0.06989037 0.00428615
v 0.03520685 -0.06990214 0.00622362
v 0.00709623 -0.07010074 0.03889280
v 0.00043249 -0.07010360 0.03936420
v 0.00047210 -0.07010413 0.03945039
v 0.00049471 -0.07010469 0.03954253
v 0.01222717 -0.07006862 0.03360919
v 0.03828257 -0.06991291 0.00799390
v 0.03359401 -0.06993873 0.01224280
v 0.03701955 -0.06994218 0.01280957
v 0.01348751 -0.07009005 0.03713473
v 0.03514885 -0.06997029 0.01743432
v 0.03096038 -0.06997307 0.01789047
v 0.01814043 -0.07007746 0.03506273
v 0.01787495 -0.07005261 0.03097565
v 0.03270840 -0.06999668 0.02177424
v 0.02738606 -0.07000410 0.02299504
v 0.02238792 -0.07006170 0.03247015
v 0.02297961 -0.07003088 0.02740141
v 0.02973657 -0.07002095 0.02576774
v 0.02627313 -0.07004277 0.02935742
v 0.00050000 -0.15805110 0.05218073
v 0.00050000 -0.15814665 0.05518017
v 0.00050000 -0.15780136 0.05518226
v 0.00050000 -0.15778312 0.05218236
v 0.00035355 -0.15778098 0.05182879
v -0.00009755 -0.15778014 0.05169194
v 0.00000000 -0.15778008 0.05168234
v 0.00035355 -0.15778098 0.05182879
v 0.00000000 -0.15778008 0.05168234
v 0.00009755 -0.15778014 0.05169194
v 0.00035355 -0.15778098 0.05182879
v 0.00009755 -0.15778014 0.05169194
v 0.00019134 -0.15778032 0.05172037
v 0.00035355 -0.15778098 0.05182879
v 0.00019134 -0.15778032 0.05172037
v 0.00027778 -0.15778059 0.05176662
v 0.00041574 -0.15778144 0.05190455
v -0.00035355 -0.15778098 0.05182879
v -0.00027778 -0.15778059 0.05176662
v -0.00019134 -0.15778032 0.05172037
v 0.00041574 -0.15778144 0.05190455
v -0.00019134 -0.15778032 0.05172037
v -0.00009755 -0.15778014 0.05169194
v -0.00009755 -0.15778014 0.05169194
v 0.00035355 -0.15778098 0.05182879
v 0.00046194 -0.15778196 0.05199097
v -0.00041574 -0.15778144 0.05190455
v 0.00049039 -0.15778252 0.05208478
v -0.00046194 -0.15778196 0.05199097
v -0.00041574 -0.15778144 0.05190455
v 0.00049039 -0.15778252 0.05208478
v -0.00041574 -0.15778144 0.05190455
v 0.00046194 -0.15778196 0.05199097
v 0.00050000 -0.15778312 0.05218236
v -0.00050000 -0.15778312 0.05218236
v -0.00049039 -0.15778252 0.05208478
v -0.00046194 -0.15778196 0.05199097
v 0.00049039 -0.15778252 0.05208478
v 0.00050000 -0.15780136 0.05518226
v -0.00050000 -0.15780136 0.05518226
v -0.00050000 -0.15805110 0.05218073
v -0.00050000 -0.15780136 0.05518226
v -0.00050000 -0.15814665 0.05518017
v -0.00050000 -0.15778312 0.05218236
v 0.00049039 -0.15778252 0.05208478
v 0.00050000 -0.15805110 0.05218073
v 0.00050000 -0.15778312 0.05218236
v 0.00046984 -0.15804607 0.05200969
v 0.00046194 -0.15778196 0.05199097
v 0.00041779 -0.15804334 0.05190606
v 0.00041574 -0.15778144 0.05190455
v 0.00035355 -0.15778098 0.05182879
v 0.00035013 -0.15804133 0.05182381
v 0.00027778 -0.15778059 0.05176662
v 0.00018771 -0.15803909 0.05171737
v 0.00019134 -0.15778032 0.05172037
v 0.00009755 -0.15778014 0.05169194
v 0.00002941 -0.15803847 0.05168161
v 0.00000000 -0.15778008 0.05168234
v -0.00010586 -0.15803865 0.05169210
v -0.00009755 -0.15778014 0.05169194
v -0.00019134 -0.15778032 0.05172037
v -0.00021265 -0.15803926 0.05172822
v -0.00027778 -0.15778059 0.05176662
v -0.00036435 -0.15804172 0.05183835
v -0.00035355 -0.15778098 0.05182879
v -0.00041574 -0.15778144 0.05190455
v -0.00046484 -0.15804569 0.05199652
v -0.00046194 -0.15778196 0.05199097
v -0.00049039 -0.15778252 0.05208478
v -0.00050000 -0.15805110 0.05218073
v -0.00050000 -0.15778312 0.05218236
v -0.00016667 -0.07349030 0.04309454
v -0.00050000 -0.07362632 0.04309371
v -0.00050000 -0.07349305 0.04309452
v 0.00050000 -0.07362632 0.04309371
v 0.00016667 -0.07349030 0.04309454
v 0.00050000 -0.07349305 0.04309452
v -0.00050000 -0.07362632 0.04309371
v 0.00016667 -0.07349030 0.04309454
v 0.00050000 -0.07362632 0.04309371
v -0.00050000 -0.07362632 0.04309371
v -0.00016667 -0.07349030 0.04309454
v 0.00016667 -0.07349030 0.04309454
v -0.00050000 -0.07349305 0.04309452
v -0.00050000 -0.07360504 0.03959380
v -0.00050000 -0.07017355 0.03961466
v -0.00050000 -0.07362632 0.04309371
v 0.00050000 -0.07360504 0.03959380
v 0.00050000 -0.07362632 0.04309371
v 0.00050000 -0.07349305 0.04309452
v 0.00050000 -0.07017361 0.03961466
v -0.00041574 -0.07360335 0.03931604
v -0.00027778 -0.07360251 0.03917807
v -0.00035355 -0.07360289 0.03924023
v 0.00000000 -0.07360200 0.03909378
v -0.00009755 -0.07360206 0.03910343
v -0.00019134 -0.07360223 0.03913186
v 0.00000000 -0.07360200 0.03909378
v -0.00019134 -0.07360223 0.03913186
v -0.00027778 -0.07360251 0.03917807
v 0.00019134 -0.07360223 0.03913186
v 0.00009755 -0.07360206 0.03910343
v -0.00027778 -0.07360251 0.03917807
v 0.00035355 -0.07360289 0.03924023
v 0.00027778 -0.07360251 0.03917807
v 0.00019134 -0.07360223 0.03913186
v 0.00035355 -0.07360289 0.03924023
v 0.00041574 -0.07360335 0.03931604
v 0.00035355 -0.07360289 0.03924023
v -0.00027778 -0.07360251 0.03917807
v 0.00050000 -0.07360504 0.03959380
v 0.00049039 -0.07360444 0.03949623
v 0.00046194 -0.07360388 0.03940247
v 0.00050000 -0.07360504 0.03959380
v 0.00046194 -0.07360388 0.03940247
v 0.00041574 -0.07360335 0.03931604
v 0.00050000 -0.07360504 0.03959380
v -0.00041574 -0.07360335 0.03931604
v -0.00046194 -0.07360388 0.03940247
v -0.00046194 -0.07360388 0.03940247
v -0.00049039 -0.07360444 0.03949623
v -0.00050000 -0.07360504 0.03959380
v 0.00050000 -0.07360504 0.03959380
v -0.00041574 -0.07360335 0.03931604
v 0.00041574 -0.07360335 0.03931604
v -0.00027778 -0.07360251 0.03917807
v 0.00050000 -0.07362632 0.04309371
v -0.00050000 -0.07362632 0.04309371
v 0.00049941 -0.07015057 0.03959053
v 0.00050000 -0.07360504 0.03959380
v 0.00049765 -0.07012761 0.03956648
v 0.00049039 -0.07360444 0.03949623
v 0.00049471 -0.07010469 0.03954253
v 0.00047210 -0.07010413 0.03945039
v 0.00046194 -0.07360388 0.03940247
v 0.00043249 -0.07010360 0.03936420
v 0.00041574 -0.07360335 0.03931604
v 0.00037732 -0.07010313 0.03928701
v 0.00035355 -0.07360289 0.03924023
v 0.00030856 -0.07010274 0.03922163
v 0.00027778 -0.07360251 0.03917807
v 0.00022869 -0.07010242 0.03917043
v 0.00019134 -0.07360223 0.03913186
v 0.00014059 -0.07010221 0.03913526
v 0.00009755 -0.07360206 0.03910343
v 0.00004743 -0.07010210 0.03911733
v 0.00000000 -0.07360200 0.03909378
v -0.00004743 -0.07010210 0.03911733
v -0.00009755 -0.07360206 0.03910343
v -0.00014059 -0.07010221 0.03913526
v -0.00019134 -0.07360223 0.03913186
v -0.00022869 -0.07010242 0.03917043
v -0.00027778 -0.07360251 0.03917807
v -0.00030856 -0.07010274 0.03922163
v -0.00035355 -0.07360289 0.03924023
v -0.00037732 -0.07010313 0.03928701
v -0.00041574 -0.07360335 0.03931604
v -0.00043249 -0.07010360 0.03936420
v -0.00046194 -0.07360388 0.03940247
v -0.00047210 -0.07010413 0.03945039
v -0.00049039 -0.07360444 0.03949623
v -0.00049471 -0.07010469 0.03954253
v -0.00049765 -0.07012761 0.03956648
v -0.00050000 -0.07360504 0.03959380
v -0.00049941 -0.07015057 0.03959053
f 1 2 3
f 1 3 4
f 5 4 6
f 5 1 4
f 7 6 8
f 7 5 6
f 9 8 10
f 9 7 8
f 11 10 12
f 11 9 10
f 13 11 12
f 13 12 14
f 15 13 14
f 15 14 16
f 17 15 16
f 17 16 18
f 19 17 18
f 19 18 20
f 21 19 20
f 21 20 22
f 23 21 22
f 23 22 24
f 25 23 24
f 25 24 26
f 27 25 26
f 27 26 28
f 29 27 28
f 29 28 30
f 31 29 30
f 31 30 32
f 33 31 32
f 33 32 34
f 35 33 34
f 35 34 36
f 37 35 36
f 37 36 38
f 39 38 40
f 39 37 38
f 41 40 42
f 41 39 40
f 43 42 44
f 43 41 42
f 45 44 46
f 45 43 44
f 47 46 48
f 47 45 46
f 49 48 50
f 49 47 48
f 51 50 52
f 51 49 50
f 53 52 54
f 53 51 52
f 55 54 56
f 55 53 54
f 57 56 58
f 57 55 56
f 59 58 60
f 59 57 58
f 61 60 62
f 61 59 60
f 63 62 64
f 63 61 62
f 65 63 64
f 65 64 66
f 67 65 66
f 67 66 68
f 69 67 68
f 69 68 70
f 71 69 70
f 71 70 72
f 73 71 72
f 73 72 74
f 75 76 77
f 78 79 80
f 81 76 78
f 82 78 83
f 84 78 82
f 85 86 87
f 85 88 86
f 89 84 90
f 89 81 78
f 89 78 84
f 91 87 81
f 91 85 87
f 92 91 81
f 93 92 81
f 94 89 95
f 96 97 98
f 99 89 94
f 100 101 93
f 102 99 103
f 104 99 102
f 105 89 99
f 105 99 104
f 106 107 108
f 106 108 109
f 106 109 100
f 110 105 111
f 112 105 113
f 114 115 116
f 114 116 106
f 114 81 89
f 114 100 93
f 114 93 81
f 114 89 105
f 114 106 100
f 117 118 119
f 120 121 122
f 120 122 117
f 123 121 120
f 124 125 121
f 124 121 123
f 126 127 125
f 126 125 124
f 128 129 127
f 128 127 126
f 130 131 129
f 130 129 128
f 132 133 131
f 132 131 130
f 134 135 133
f 134 133 132
f 136 135 134
f 137 135 136
f 137 138 135
f 139 138 137
f 139 140 138
f 141 140 139
f 141 142 140
f 143 142 141
f 143 144 142
f 145 146 144
f 145 144 143
f 147 146 145
f 147 148 146
f 149 150 148
f 149 148 147
f 151 152 153
f 154 153 155
f 154 155 156
f 154 151 153
f 157 150 149
f 157 158 159
f 157 159 150
f 160 156 161
f 160 154 156
f 162 163 158
f 162 158 157
f 164 161 165
f 164 160 161
f 166 165 167
f 166 167 163
f 166 164 165
f 166 163 162
f 168 169 170
f 171 172 173
f 171 174 172
f 175 176 177
f 175 168 176
f 178 179 171
f 178 171 173
f 180 181 178
f 180 173 168
f 180 178 173
f 182 183 184
f 182 175 183
f 185 186 180
f 185 180 168
f 187 182 188
f 189 190 185
f 191 192 193
f 191 194 192
f 191 182 194
f 195 196 189
f 195 189 185
f 197 168 175
f 197 175 182
f 197 185 168
f 197 195 185
f 198 199 197
f 200 201 202
f 200 203 201
f 204 198 197
f 204 205 198
f 204 203 200
f 204 191 203
f 204 182 191
f 204 197 182
f 206 207 208
f 209 208 210
f 209 206 208
f 211 210 212
f 211 209 210
f 213 212 214
f 213 211 212
f 215 214 216
f 215 213 214
f 217 216 218
f 217 215 216
f 219 217 218
f 219 218 220
f 221 219 220
f 221 220 222
f 223 221 222
f 223 222 224
f 225 223 224
f 225 224 226
f 227 225 226
f 227 226 228
f 229 227 228
f 229 228 230
f 231 229 230
f 231 230 232
f 233 231 232
f 233 232 234
f 235 233 234
f 235 234 236
f 237 235 236
f 237 236 238
f 239 237 238
f 239 238 240
f 241 239 240
f 241 240 242
f 243 241 242
f 244 242 245
f 244 243 242
f 246 245 247
f 246 244 245
f 246 247 248
f 249 248 250
f 249 246 248
f 251 249 250
f 252 250 253
f 252 251 250
f 254 253 255
f 254 255 256
f 254 252 253
f 257 256 258
f 257 254 256
f 259 258 260
f 259 257 258
f 261 259 260
f 262 260 263
f 262 261 260
f 264 263 265
f 264 265 266
f 264 262 263
f 267 266 268
f 267 264 266
f 269 267 268
f 270 268 271
f 270 269 268
f 272 270 271
f 272 271 273
f 274 272 273
f 274 273 275
f 276 274 275
f 276 275 277
f 278 276 277
f 278 277 279
f 280 281 282
f 283 282 284
f 283 284 285
f 283 280 282
f 286 287 288
f 286 288 281
f 286 281 280
f 289 283 285
f 289 285 290
f 291 292 287
f 291 287 286
f 293 289 290
f 293 290 294
f 295 296 292
f 295 292 291
f 297 293 294
f 297 294 298
f 297 298 299
f 300 299 301
f 302 303 296
f 302 296 295
f 302 304 303
f 305 300 306
f 305 297 299
f 305 299 300
f 307 306 308
f 309 304 302
f 309 310 304
f 311 305 306
f 311 306 307
f 312 311 307
f 313 314 310
f 313 310 309
f 315 312 316
f 315 311 312
f 317 314 313
f 318 316 319
f 318 315 316
f 320 314 317
f 321 318 319
f 322 320 317
f 323 318 321
f 324 320 322
f 325 323 321
f 326 324 322
f 327 323 325
f 328 324 326
f 329 327 325
f 330 328 326
f 331 327 329
f 332 331 329
f 333 328 330
f 334 333 330
f 335 336 331
f 335 331 332
f 337 333 334
f 338 336 335
f 339 337 334
f 340 336 338
f 341 340 338
f 342 337 339
f 343 340 341
f 344 342 339
f 345 340 343
f 346 345 343
f 347 345 346
f 348 342 344
f 349 345 347
f 349 350 345
f 351 348 344
f 351 344 352
f 353 350 349
f 353 354 350
f 355 351 352
f 355 352 356
f 357 354 353
f 357 358 354
f 359 355 356
f 359 356 360
f 361 358 357
f 361 362 358
f 363 359 360
f 363 360 364
f 365 364 362
f 365 362 361
f 365 363 364
f 366 367 368
f 366 368 369
f 370 369 371
f 370 371 372
f 370 366 369
f 373 372 374
f 373 370 372
f 375 374 376
f 375 373 374
f 377 376 378
f 377 375 376
f 379 377 378
f 380 379 378
f 381 379 380
f 382 380 383
f 382 381 380
f 384 382 383
f 385 384 383
f 386 384 385
f 387 385 388
f 387 386 385
f 389 387 388
f 390 389 388
f 391 389 390
f 392 391 390
f 393 392 390
f 394 392 393
f 395 394 393
f 395 393 396
f 397 395 396
f 398 397 396
f 399 397 398
f 400 399 398
f 400 398 401
f 402 400 401
f 402 401 403
f 404 402 403
f 404 403 405
f 406 404 405
f 406 405 407
f 408 406 407
f 409 410 411
f 409 412 410
f 413 414 415
f 416 413 415
f 417 416 415
f 418 419 412
f 418 412 409
f 420 421 419
f 420 419 418
f 422 423 424
f 422 424 425
f 422 425 426
f 427 428 421
f 427 421 420
f 429 430 428
f 429 431 430
f 429 428 427
f 432 433 434
f 432 435 433
f 432 415 435
f 432 417 415
f 436 422 426
f 436 437 422
f 436 438 437
f 439 440 431
f 439 431 429
f 441 440 439
f 441 434 440
f 441 432 434
f 442 432 441
f 443 432 442
f 444 432 443
f 444 436 445
f 444 445 446
f 444 446 432
f 447 436 444
f 448 436 447
f 449 450 438
f 449 438 436
f 449 436 448
f 451 452 450
f 451 450 449
f 453 454 452
f 453 452 451
f 455 456 454
f 455 454 453
f 457 458 456
f 457 456 455
f 459 460 458
f 459 458 457
f 461 462 460
f 461 460 459
f 463 464 462
f 463 462 461
f 465 466 464
f 465 464 463
f 467 466 465
f 468 469 470
f 468 471 469
f 472 473 474
f 475 476 477
f 478 479 480
f 481 475 477
f 482 483 484
f 485 486 487
f 488 485 487
f 489 490 491
f 489 492 490
f 493 491 494
f 495 492 489
f 495 496 492
f 497 494 498
f 497 493 494
f 499 495 489
f 500 496 495
f 500 501 496
f 502 503 504
f 502 505 503
f 506 491 490
f 506 490 504
f 507 508 509
f 507 498 510
f 507 497 498
f 507 510 508
f 511 509 512
f 511 497 507
f 511 493 497
f 511 507 509
f 513 495 499
f 513 500 495
f 513 511 512
f 513 499 511
f 514 513 512
f 514 501 500
f 514 500 513
f 514 515 501
f 516 514 512
f 516 515 514
f 517 502 504
f 518 502 517
f 519 505 502
f 519 502 518
f 520 491 506
f 520 494 491
f 521 494 520
f 522 494 521
f 523 491 493
f 523 489 491
f 523 499 489
f 524 517 504
f 524 518 517
f 524 519 518
f 525 519 524
f 525 524 504
f 526 525 504
f 526 505 519
f 526 519 525
f 527 494 522
f 527 498 494
f 528 498 527
f 528 527 522
f 529 523 493
f 529 511 499
f 529 493 511
f 529 499 523
f 530 526 504
f 531 530 504
f 531 526 530
f 532 526 531
f 532 531 504
f 532 505 526
f 533 498 528
f 533 510 498
f 534 533 528
f 534 510 533
f 535 510 534
f 535 508 510
f 536 504 490
f 536 532 504
f 537 536 490
f 537 532 536
f 538 532 537
f 538 505 532
f 539 504 509
f 539 534 528
f 539 528 522
f 539 506 504
f 539 535 534
f 539 520 506
f 539 521 520
f 539 522 521
f 540 508 535
f 540 509 508
f 540 535 539
f 540 539 509
f 541 490 492
f 541 538 537
f 541 537 490
f 542 541 492
f 542 538 541
f 543 512 505
f 543 492 496
f 543 496 501
f 543 505 538
f 543 538 542
f 543 542 492
f 543 501 515
f 543 515 516
f 543 516 512
f 544 545 546
f 547 548 549
f 550 548 547
f 551 552 553
f 551 553 554
f 555 556 552
f 557 551 554
f 557 554 558
f 559 560 556
f 559 556 555
f 561 551 557
f 562 557 558
f 562 558 563
f 564 565 566
f 564 567 565
f 568 553 552
f 568 567 553
f 569 570 560
f 569 560 559
f 569 571 572
f 569 572 570
f 573 574 571
f 573 559 555
f 573 571 569
f 573 569 559
f 575 574 573
f 575 561 557
f 575 557 562
f 575 573 561
f 576 574 575
f 576 562 563
f 576 575 562
f 576 563 577
f 578 574 576
f 578 576 577
f 579 567 564
f 580 579 564
f 581 564 566
f 581 580 564
f 582 568 552
f 582 552 556
f 583 582 556
f 584 583 556
f 585 552 551
f 585 555 552
f 585 551 561
f 586 567 579
f 586 579 580
f 586 580 581
f 587 586 581
f 587 567 586
f 588 587 581
f 588 581 566
f 588 567 587
f 589 556 560
f 589 584 556
f 590 584 589
f 590 589 560
f 591 573 555
f 591 561 573
f 591 555 585
f 591 585 561
f 592 567 588
f 593 567 592
f 593 592 588
f 594 593 588
f 594 567 593
f 594 588 566
f 595 590 560
f 595 560 570
f 596 590 595
f 596 595 570
f 597 596 570
f 597 570 572
f 598 553 567
f 598 567 594
f 599 553 598
f 599 598 594
f 600 594 566
f 600 599 594
f 601 571 567
f 601 590 596
f 601 567 568
f 601 596 597
f 601 568 582
f 601 583 584
f 601 582 583
f 601 584 590
f 602 571 601
f 602 601 597
f 602 597 572
f 602 572 571
f 603 599 600
f 603 554 553
f 603 553 599
f 604 554 603
f 604 603 600
f 605 566 574
f 605 558 554
f 605 554 604
f 605 563 558
f 605 600 566
f 605 604 600
f 605 577 563
f 605 578 577
f 605 574 578
f 606 607 608
f 609 608 610
f 609 606 608
f 611 609 610
f 612 611 610
f 613 611 612
f 614 613 612
f 615 613 614
f 616 615 614
f 617 615 616
f 618 617 616
f 619 617 618
f 620 619 618
f 621 619 620
f 622 621 620
f 623 621 622
f 624 622 625
f 624 623 622
f 626 625 627
f 626 624 625
f 628 627 629
f 628 626 627
f 630 628 629
f 631 630 629
f 632 630 631
f 633 632 631
f 634 632 633
f 635 634 633
f 636 634 635
f 637 635 638
f 637 636 635
f 639 638 640
f 639 637 638
f 641 640 642
f 641 639 640
f 643 642 644
f 643 641 642
f 645 643 644
f 646 644 647
f 646 645 644
f 648 646 647
f 649 650 651
f 649 652 650
f 649 653 652
f 654 655 649
f 656 649 651
f 656 654 649
f 657 656 651
f 657 651 658
f 659 657 658
f 659 658 660
f 661 659 660
f 661 660 662
f 663 661 662
f 663 662 664
f 665 663 664
f 665 664 666
f 667 665 666
f 667 666 668
f 669 667 668
f 670 671 672
f 670 668 671
f 670 669 668
f 673 670 672
f 673 674 675
f 673 676 674
f 673 672 676
f 677 669 670
f 678 673 675
f 678 679 680
f 678 681 679
f 678 675 681
f 682 669 677
f 683 682 677
f 684 678 680
f 684 685 686
f 684 680 685
f 687 682 683
f 688 682 687
f 689 688 687
f 690 691 692
f 690 692 693
f 694 693 695
f 694 695 696
f 694 690 693
f 697 696 684
f 697 686 698
f 697 684 686
f 697 694 696
f 699 698 700
f 699 697 698
f 701 700 702
f 701 699 700
f 703 702 704
f 703 701 702
f 705 703 704
f 705 704 706
f 707 706 708
f 707 705 706
f 709 707 708
f 710 711 709
f 710 712 713
f 710 708 712
f 710 709 708
f 714 711 710
f 715 714 710
f 716 715 710
f 717 718 719
f 720 721 718
f 720 718 717
f 722 723 721
f 722 721 720
f 724 725 726
f 727 728 725
f 727 725 724
f 729 730 731
f 732 729 731
f 733 734 735
f 736 737 738
f 739 726 723
f 739 740 724
f 739 722 740
f 739 723 722
f 739 724 726
f 741 730 728
f 741 742 731
f 741 727 742
f 741 728 727
f 741 731 730
f 743 744 729
f 743 745 746
f 743 732 745
f 743 729 732
f 747 735 748
f 747 746 738
f 749 748 744
f 749 746 747
f 749 747 748
f 749 743 746
f 749 744 743
f 750 751 733
f 750 752 751
f 750 737 752
f 750 747 738
f 750 735 747
f 750 733 735
f 750 738 737
f 753 751 754
f 753 754 755
f 753 755 444
f 756 757 758
f 756 758 759
f 760 761 762
f 760 762 763
f 764 761 760
f 765 766 767
f 768 766 765
f 769 770 759
f 769 758 771
f 769 759 758
f 772 756 763
f 772 762 757
f 772 757 756
f 772 763 762
f 773 764 765
f 773 767 761
f 773 761 764
f 773 765 767
f 774 765 775
f 774 775 776
f 774 777 768
f 774 776 777
f 774 768 765
f 778 779 733
f 778 733 751
f 778 753 780
f 778 781 779
f 778 751 753
f 782 778 780
f 782 781 778
f 783 780 770
f 783 771 781
f 783 781 782
f 783 782 780
f 784 770 769
f 784 783 770
f 784 771 783
f 784 769 771
f 785 786 787
f 788 787 789
f 788 785 787
f 790 789 791
f 790 788 789
f 792 786 785
f 792 793 786
f 794 791 795
f 794 790 791
f 796 793 792
f 797 793 796
f 798 795 799
f 798 794 795
f 800 797 796
f 801 797 800
f 802 799 803
f 802 798 799
f 802 803 804
f 805 801 800
f 806 801 805
f 807 804 808
f 807 802 804
f 809 806 805
f 810 806 809
f 811 808 812
f 811 807 808
f 813 810 809
f 814 811 812
f 815 810 813
f 816 811 814
f 817 815 813
f 818 816 814
f 819 815 817
f 820 816 818
f 821 819 817
f 822 820 818
f 823 822 824
f 823 820 822
f 825 819 821
f 825 821 826
f 827 823 824
f 828 823 827
f 829 825 826
f 829 826 830
f 831 828 827
f 832 828 831
f 833 830 834
f 833 829 830
f 835 832 831
f 836 837 832
f 836 832 835
f 838 834 839
f 838 833 834
f 840 837 836
f 841 837 840
f 842 841 840
f 843 841 842
f 844 842 840
f 845 841 843
f 846 844 840
f 847 841 845
f 848 838 839
f 848 839 849
f 850 846 840
f 851 852 853
f 854 841 855
f 856 857 858
f 859 841 860
f 861 841 859
f 862 848 849
f 863 841 861
f 864 865 866
f 867 841 863
f 868 862 849
f 868 849 869
f 870 867 871
f 870 871 872
f 870 872 873
f 870 874 867
f 875 868 869
f 875 869 876
f 877 875 876
f 878 874 870
f 879 877 876
f 879 876 880
f 881 874 878
f 881 882 874
f 883 879 880
f 883 880 884
f 885 882 881
f 885 886 882
f 887 883 884
f 888 884 886
f 888 886 885
f 888 887 884
f 889 890 891
f 889 891 892
f 893 894 895
f 896 897 898
f 899 900 901
f 902 903 904
f 905 906 907
f 905 907 908
f 909 910 911
f 905 912 913
f 914 915 906
f 914 906 905
f 916 917 918
f 919 920 921
f 922 923 924
f 922 924 925
f 922 925 926
f 927 928 923
f 927 923 922
f 929 930 931
f 932 930 929
f 933 934 935
f 933 936 934
f 937 938 936
f 937 936 933
f 939 938 937
f 940 941 938
f 940 938 939
f 942 943 941
f 942 941 940
f 944 943 942
f 945 946 943
f 945 943 944
f 947 948 946
f 947 946 945
f 949 948 947
f 950 951 948
f 950 948 949
f 952 953 951
f 952 951 950
f 954 953 952
f 955 956 953
f 955 953 954
f 957 956 955
f 958 959 956
f 958 956 957
f 960 959 958
f 961 962 963
f 964 965 966
f 967 968 969
f 970 971 972
f 973 974 975
f 973 976 974
f 977 978 979
f 980 977 979
f 981 982 983
f 984 985 986
f 987 988 989
f 990 991 984
f 990 984 992
f 993 994 995
f 996 990 992
f 997 998 999
f 1000 1001 1002
f 1003 1004 1005
f 1006 1007 1008
f 1000 1009 1010
f 1000 1010 1011
f 1012 999 1013
f 1006 1014 1015
f 1016 1011 1017
f 1016 1000 1011
f 1018 1019 980
f 1020 1021 1019
f 1020 1019 1018
f 1022 1021 1020
f 1023 1024 1021
f 1023 1021 1022
f 1025 1026 1024
f 1025 1024 1023
f 1027 1028 1026
f 1027 1026 1025
f 1029 1030 1028
f 1029 1028 1027
f 1031 1032 1030
f 1031 1030 1029
f 1033 1034 1032
f 1033 1032 1031
f 1035 1036 1034
f 1035 1034 1033
f 1037 1038 1036
f 1037 1036 1035
f 1039 1040 1038
f 1039 1038 1037
f 1041 1042 1040
f 1041 1040 1039
f 1043 1044 1042
f 1043 1042 1041
f 1045 1046 1044
f 1045 1044 1043
f 1047 1046 1045
f 1047 1048 1046
f 1049 1048 1047
f 1049 1050 1048
f 1051 1050 1049
f 1052 1050 1051
f 1052 1053 1050
f 1054 1053 1052
f 975 1053 1054

