# https://github.com/mikedh/trimesh
v -0.01515149 -0.07119989 0.07552174
v -0.03393577 -0.07119989 0.08867470
v -0.02847549 -0.07119989 0.08321437
v -0.02215000 -0.07119989 0.07878529
v -0.04162838 -0.07119989 0.10199872
v -0.03836492 -0.07119989 0.09500013
v -0.04362698 -0.07119989 0.10945751
v 0.00769261 -0.07119989 0.07352321
v -0.00769261 -0.07119989 0.07352321
v 0.00000000 -0.07119989 0.07285011
v -0.04162838 -0.07119989 0.13230161
v -0.04362698 -0.07119989 0.12484281
v -0.04430000 -0.07119989 0.11715011
v 0.02215000 -0.07119989 0.07878529
v 0.01515149 -0.07119989 0.07552174
v -0.03393577 -0.07119989 0.14562561
v -0.03836492 -0.07119989 0.13930021
v -0.02215000 -0.07119988 0.15551500
v -0.02847549 -0.07119988 0.15108591
v 0.04162838 -0.07119989 0.10199872
v 0.02847549 -0.07119989 0.08321437
v 0.03393577 -0.07119989 0.08867470
v 0.03836492 -0.07119989 0.09500013
v 0.04362698 -0.07119989 0.10945751
v 0.00000000 -0.07119988 0.16145021
v -0.00769261 -0.07119988 0.16077711
v -0.01515149 -0.07119988 0.15877861
v 0.04362698 -0.07119989 0.12484281
v 0.04430000 -0.07119989 0.11715011
v 0.02215000 -0.07119988 0.15551500
v 0.01515149 -0.07119988 0.15877861
v 0.00769261 -0.07119988 0.16077711
v 0.03393577 -0.07119989 0.14562561
v 0.04162838 -0.07119989 0.13230161
v 0.03836492 -0.07119989 0.13930021
v 0.02847549 -0.07119988 0.15108591
v 0.00816465 -0.07099990 0.07340553
v 0.00050000 -0.07099990 0.07265297
v 0.00050000 -0.06019989 0.07265297
v 0.00816465 -0.06019989 0.07340553
v 0.01558475 -0.07099990 0.07546841
v 0.01558475 -0.06019989 0.07546841
v 0.02253805 -0.07099990 0.07877980
v 0.02253805 -0.06019989 0.07877980
v 0.02881628 -0.07099990 0.08324037
v 0.02881628 -0.06019989 0.08324037
v 0.03423139 -0.07099990 0.08871669
v 0.03423139 -0.06019989 0.08871669
v 0.03862120 -0.07099990 0.09504469
v 0.03862120 -0.06019989 0.09504469
v 0.04185419 -0.07099990 0.10203471
v 0.04185419 -0.06019989 0.10203471
v 0.04383356 -0.07099990 0.10947751
v 0.04383356 -0.06019989 0.10947751
v 0.04450000 -0.07099990 0.11715011
v 0.04450000 -0.06019989 0.11715011
v 0.04383356 -0.07099990 0.12482281
v 0.04383356 -0.06019988 0.12482281
v 0.04185419 -0.07099990 0.13226560
v 0.04185419 -0.06019988 0.13226560
v 0.03862120 -0.07099990 0.13925561
v 0.03862120 -0.06019988 0.13925561
v 0.03423139 -0.07099990 0.14558361
v 0.03423139 -0.06019988 0.14558361
v 0.02881628 -0.07099989 0.15105991
v 0.02881628 -0.06019988 0.15105991
v 0.02253805 -0.07099989 0.15552050
v 0.02253805 -0.06019988 0.15552050
v 0.01558475 -0.07099989 0.15883189
v 0.01558475 -0.06019988 0.15883189
v 0.00816465 -0.07099989 0.16089481
v 0.00816465 -0.06019988 0.16089481
v 0.00050000 -0.07099989 0.16164730
v 0.00050000 -0.06019988 0.16164730
v -0.00050000 -0.07099989 0.16164730
v -0.00050000 -0.06019988 0.16164730
v -0.00816465 -0.06019988 0.16089481
v -0.00816465 -0.07099989 0.16089481
v -0.01558475 -0.06019988 0.15883189
v -0.01558475 -0.07099989 0.15883189
v -0.02253805 -0.06019988 0.15552050
v -0.02253805 -0.07099989 0.15552050
v -0.02881628 -0.06019988 0.15105991
v -0.02881628 -0.07099989 0.15105991
v -0.03423139 -0.06019988 0.14558361
v -0.03423139 -0.07099990 0.14558361
v -0.03862120 -0.06019988 0.13925561
v -0.03862120 -0.07099990 0.13925561
v -0.04185419 -0.06019988 0.13226560
v -0.04185419 -0.07099990 0.13226560
v -0.04383356 -0.06019988 0.12482281
v -0.04383356 -0.07099990 0.12482281
v -0.04450000 -0.06019989 0.11715011
v -0.04450000 -0.07099990 0.11715011
v -0.04383356 -0.07099990 0.10947751
v -0.04383356 -0.06019989 0.10947751
v -0.04185419 -0.06019989 0.10203471
v -0.04185419 -0.07099990 0.10203471
v -0.03862120 -0.06019989 0.09504469
v -0.03862120 -0.07099990 0.09504469
v -0.03423139 -0.06019989 0.08871669
v -0.03423139 -0.07099990 0.08871669
v -0.02881628 -0.06019989 0.08324037
v -0.02881628 -0.07099990 0.08324037
v -0.02253805 -0.07099990 0.07877980
v -0.02253805 -0.06019989 0.07877980
v -0.01558475 -0.06019989 0.07546841
v -0.01558475 -0.07099990 0.07546841
v -0.00816465 -0.07099990 0.07340553
v -0.00816465 -0.06019989 0.07340553
v -0.00050000 -0.07099990 0.07265297
v -0.00050000 -0.06019989 0.07265297
v 0.00050000 -0.06000271 0.07285011
v 0.00050000 -0.07099990 0.07265297
v 0.00050000 -0.07119706 0.07285011
v 0.00050000 -0.06019989 0.07265297
v -0.00050000 -0.07119706 0.07285011
v -0.00050000 -0.07099990 0.07265297
v -0.00050000 -0.06000271 0.07285011
v -0.00050000 -0.06019989 0.07265297
v 0.00050000 -0.06000271 0.07285011
v 0.00050000 -0.07119706 0.07285011
v 0.00033334 -0.07119863 0.07285011
v 0.00033334 -0.06000114 0.07285011
v 0.00016667 -0.06000020 0.07285011
v 0.00016667 -0.07119957 0.07285011
v 0.00000000 -0.05999989 0.07285011
v 0.00000000 -0.07119989 0.07285011
v -0.00016667 -0.07119957 0.07285011
v -0.00016667 -0.06000020 0.07285011
v -0.00033334 -0.07119863 0.07285011
v -0.00033334 -0.06000114 0.07285011
v -0.00050000 -0.07119706 0.07285011
v -0.00050000 -0.06000271 0.07285011
v 0.00050000 -0.06019988 0.16164730
v 0.00050000 -0.07119706 0.16145021
v 0.00050000 -0.07099989 0.16164730
v 0.00050000 -0.06000270 0.16145021
v 0.00033334 -0.07119863 0.16145021
v 0.00050000 -0.06000270 0.16145021
v 0.00033334 -0.06000113 0.16145021
v 0.00050000 -0.07119706 0.16145021
v 0.00016667 -0.07119956 0.16145021
v 0.00016667 -0.06000019 0.16145021
v 0.00000000 -0.07119988 0.16145021
v 0.00000000 -0.05999988 0.16145021
v -0.00016667 -0.07119956 0.16145021
v -0.00016667 -0.06000019 0.16145021
v -0.00033334 -0.06000113 0.16145021
v -0.00033334 -0.07119863 0.16145021
v -0.00050000 -0.06000270 0.16145021
v -0.00050000 -0.07119706 0.16145021
v -0.00050000 -0.07119706 0.16145021
v -0.00050000 -0.06000270 0.16145021
v -0.00050000 -0.06019988 0.16164730
v -0.00050000 -0.07099989 0.16164730
v 0.00769261 -0.07119988 0.16077711
v 0.00050000 -0.07099989 0.16164730
v 0.00050000 -0.07119706 0.16145021
v 0.00016667 -0.07119956 0.16145021
v 0.00000000 -0.07119988 0.16145021
v 0.00033334 -0.07119863 0.16145021
v 0.00816465 -0.07099989 0.16089481
v 0.01515149 -0.07119988 0.15877861
v 0.01558475 -0.07099989 0.15883189
v 0.02215000 -0.07119988 0.15551500
v 0.02253805 -0.07099989 0.15552050
v 0.02847549 -0.07119988 0.15108591
v 0.02881628 -0.07099989 0.15105991
v 0.03393577 -0.07119989 0.14562561
v 0.03423139 -0.07099990 0.14558361
v 0.03836492 -0.07119989 0.13930021
v 0.03862120 -0.07099990 0.13925561
v 0.04162838 -0.07119989 0.13230161
v 0.04185419 -0.07099990 0.13226560
v 0.04362698 -0.07119989 0.12484281
v 0.04383356 -0.07099990 0.12482281
v 0.04430000 -0.07119989 0.11715011
v 0.04450000 -0.07099990 0.11715011
v 0.04383356 -0.07099990 0.10947751
v 0.04362698 -0.07119989 0.10945751
v 0.04185419 -0.07099990 0.10203471
v 0.04162838 -0.07119989 0.10199872
v 0.03862120 -0.07099990 0.09504469
v 0.03836492 -0.07119989 0.09500013
v 0.03423139 -0.07099990 0.08871669
v 0.03393577 -0.07119989 0.08867470
v 0.02881628 -0.07099990 0.08324037
v 0.02847549 -0.07119989 0.08321437
v 0.02253805 -0.07099990 0.07877980
v 0.02215000 -0.07119989 0.07878529
v 0.01558475 -0.07099990 0.07546841
v 0.01515149 -0.07119989 0.07552174
v 0.00816465 -0.07099990 0.07340553
v 0.00769261 -0.07119989 0.07352321
v 0.00033334 -0.07119863 0.07285011
v 0.00050000 -0.07119706 0.07285011
v 0.00050000 -0.07099990 0.07265297
v 0.00016667 -0.07119957 0.07285011
v 0.00000000 -0.07119989 0.07285011
v -0.00769261 -0.07119989 0.07352321
v -0.00050000 -0.07099990 0.07265297
v -0.00050000 -0.07119706 0.07285011
v -0.00016667 -0.07119957 0.07285011
v 0.00000000 -0.07119989 0.07285011
v -0.00033334 -0.07119863 0.07285011
v -0.00816465 -0.07099990 0.07340553
v -0.01515149 -0.07119989 0.07552174
v -0.01558475 -0.07099990 0.07546841
v -0.02215000 -0.07119989 0.07878529
v -0.02253805 -0.07099990 0.07877980
v -0.02847549 -0.07119989 0.08321437
v -0.02881628 -0.07099990 0.08324037
v -0.03393577 -0.07119989 0.08867470
v -0.03423139 -0.07099990 0.08871669
v -0.03836492 -0.07119989 0.09500013
v -0.03862120 -0.07099990 0.09504469
v -0.04162838 -0.07119989 0.10199872
v -0.04185419 -0.07099990 0.10203471
v -0.04362698 -0.07119989 0.10945751
v -0.04383356 -0.07099990 0.10947751
v -0.04430000 -0.07119989 0.11715011
v -0.04450000 -0.07099990 0.11715011
v -0.04383356 -0.07099990 0.12482281
v -0.04362698 -0.07119989 0.12484281
v -0.04185419 -0.07099990 0.13226560
v -0.04162838 -0.07119989 0.13230161
v -0.03862120 -0.07099990 0.13925561
v -0.03836492 -0.07119989 0.13930021
v -0.03423139 -0.07099990 0.14558361
v -0.03393577 -0.07119989 0.14562561
v -0.02881628 -0.07099989 0.15105991
v -0.02847549 -0.07119988 0.15108591
v -0.02253805 -0.07099989 0.15552050
v -0.02215000 -0.07119988 0.15551500
v -0.01558475 -0.07099989 0.15883189
v -0.01515149 -0.07119988 0.15877861
v -0.00816465 -0.07099989 0.16089481
v -0.00769261 -0.07119988 0.16077711
v -0.00033334 -0.07119863 0.16145021
v -0.00050000 -0.07119706 0.16145021
v -0.00050000 -0.07099989 0.16164730
v -0.00016667 -0.07119956 0.16145021
v 0.00000000 -0.07119988 0.16145021
v 0.00769261 -0.05999989 0.07352321
v 0.00016667 -0.06000020 0.07285011
v 0.00000000 -0.05999989 0.07285011
v 0.00033334 -0.06000114 0.07285011
v 0.00050000 -0.06000271 0.07285011
v 0.00050000 -0.06019989 0.07265297
v 0.00816465 -0.06019989 0.07340553
v 0.01515149 -0.05999988 0.07552174
v 0.01558475 -0.06019989 0.07546841
v 0.02215000 -0.05999988 0.07878529
v 0.02253805 -0.06019989 0.07877980
v 0.02847549 -0.05999988 0.08321437
v 0.02881628 -0.06019989 0.08324037
v 0.03393577 -0.05999988 0.08867470
v 0.03423139 -0.06019989 0.08871669
v 0.03836492 -0.05999988 0.09500013
v 0.03862120 -0.06019989 0.09504469
v 0.04162838 -0.05999988 0.10199872
v 0.04185419 -0.06019989 0.10203471
v 0.04362698 -0.05999988 0.10945751
v 0.04383356 -0.06019989 0.10947751
v 0.04430000 -0.05999988 0.11715011
v 0.04450000 -0.06019989 0.11715011
v 0.04383356 -0.06019988 0.12482281
v 0.04362698 -0.05999988 0.12484281
v 0.04185419 -0.06019988 0.13226560
v 0.04162838 -0.05999988 0.13230161
v 0.03862120 -0.06019988 0.13925561
v 0.03836492 -0.05999988 0.13930021
v 0.03423139 -0.06019988 0.14558361
v 0.03393577 -0.05999988 0.14562561
v 0.02881628 -0.06019988 0.15105991
v 0.02847549 -0.05999988 0.15108591
v 0.02253805 -0.06019988 0.15552050
v 0.02215000 -0.05999988 0.15551500
v 0.01558475 -0.06019988 0.15883189
v 0.01515149 -0.05999988 0.15877861
v 0.00816465 -0.06019988 0.16089481
v 0.00769261 -0.05999988 0.16077711
v 0.00033334 -0.06000113 0.16145021
v 0.00050000 -0.06000270 0.16145021
v 0.00050000 -0.06019988 0.16164730
v 0.00016667 -0.06000019 0.16145021
v 0.00000000 -0.05999988 0.16145021
v -0.00769261 -0.05999988 0.16077711
v -0.00016667 -0.06000019 0.16145021
v 0.00000000 -0.05999988 0.16145021
v -0.00033334 -0.06000113 0.16145021
v -0.00050000 -0.06000270 0.16145021
v -0.00050000 -0.06019988 0.16164730
v -0.00816465 -0.06019988 0.16089481
v -0.01515149 -0.05999988 0.15877861
v -0.01558475 -0.06019988 0.15883189
v -0.02215000 -0.05999988 0.15551500
v -0.02253805 -0.06019988 0.15552050
v -0.02847549 -0.05999988 0.15108591
v -0.02881628 -0.06019988 0.15105991
v -0.03393577 -0.05999988 0.14562561
v -0.03423139 -0.06019988 0.14558361
v -0.03836492 -0.05999988 0.13930021
v -0.03862120 -0.06019988 0.13925561
v -0.04162838 -0.05999988 0.13230161
v -0.04185419 -0.06019988 0.13226560
v -0.04362698 -0.05999988 0.12484281
v -0.04383356 -0.06019988 0.12482281
v -0.04430000 -0.05999988 0.11715011
v -0.04450000 -0.06019989 0.11715011
v -0.04383356 -0.06019989 0.10947751
v -0.04362698 -0.05999988 0.10945751
v -0.04185419 -0.06019989 0.10203471
v -0.04162838 -0.05999988 0.10199872
v -0.03862120 -0.06019989 0.09504469
v -0.03836492 -0.05999988 0.09500013
v -0.03423139 -0.06019989 0.08871669
v -0.03393577 -0.05999988 0.08867470
v -0.02881628 -0.06019989 0.08324037
v -0.02847549 -0.05999988 0.08321437
v -0.02253805 -0.06019989 0.07877980
v -0.02215000 -0.05999988 0.07878529
v -0.01558475 -0.06019989 0.07546841
v -0.01515149 -0.05999988 0.07552174
v -0.00816465 -0.06019989 0.07340553
v -0.00769261 -0.05999989 0.07352321
v -0.00033334 -0.06000114 0.07285011
v -0.00050000 -0.06000271 0.07285011
v -0.00050000 -0.06019989 0.07265297
v -0.00016667 -0.06000020 0.07285011
v 0.00000000 -0.05999989 0.07285011
f 1 2 3
f 1 3 4
f 5 6 2
f 7 5 2
f 8 9 10
f 11 12 13
f 11 13 7
f 14 8 15
f 14 9 8
f 16 17 11
f 16 7 2
f 16 11 7
f 18 19 16
f 18 1 9
f 18 2 1
f 18 16 2
f 20 21 22
f 20 22 23
f 24 14 21
f 24 21 20
f 25 26 27
f 25 27 18
f 25 9 14
f 25 18 9
f 28 24 29
f 28 14 24
f 30 31 32
f 30 32 25
f 33 28 34
f 33 34 35
f 33 14 28
f 36 30 25
f 36 14 33
f 36 25 14
f 37 38 39
f 37 39 40
f 41 40 42
f 41 37 40
f 43 42 44
f 43 41 42
f 45 44 46
f 45 43 44
f 47 46 48
f 47 45 46
f 49 48 50
f 49 47 48
f 51 50 52
f 51 49 50
f 53 52 54
f 53 51 52
f 55 54 56
f 55 53 54
f 57 56 58
f 57 55 56
f 59 58 60
f 59 57 58
f 61 60 62
f 61 59 60
f 63 62 64
f 63 61 62
f 65 64 66
f 65 63 64
f 67 65 66
f 67 66 68
f 69 67 68
f 69 68 70
f 71 69 70
f 71 70 72
f 73 71 72
f 73 72 74
f 75 76 77
f 78 77 79
f 78 75 77
f 80 79 81
f 80 78 79
f 82 81 83
f 82 80 81
f 84 83 85
f 84 82 83
f 86 85 87
f 86 84 85
f 88 87 89
f 88 86 87
f 90 89 91
f 90 88 89
f 92 91 93
f 92 90 91
f 94 92 93
f 95 93 96
f 95 96 97
f 95 94 93
f 98 97 99
f 98 95 97
f 100 99 101
f 100 98 99
f 102 101 103
f 102 100 101
f 104 102 103
f 105 104 103
f 105 103 106
f 105 106 107
f 108 105 107
f 109 108 107
f 109 107 110
f 111 109 110
f 111 110 112
f 113 114 115
f 113 116 114
f 117 118 119
f 118 120 119
f 121 122 123
f 124 121 123
f 125 123 126
f 125 124 123
f 127 128 129
f 127 126 128
f 127 125 126
f 130 129 131
f 130 127 129
f 132 131 133
f 132 130 131
f 134 132 133
f 135 136 137
f 135 138 136
f 139 140 141
f 139 142 140
f 143 141 144
f 143 139 141
f 145 144 146
f 145 143 144
f 147 146 148
f 147 148 149
f 147 145 146
f 150 149 151
f 150 147 149
f 152 150 151
f 153 154 155
f 156 153 155
f 157 158 159
f 157 160 161
f 157 162 160
f 157 159 162
f 163 158 157
f 164 163 157
f 165 163 164
f 166 165 164
f 167 165 166
f 168 167 166
f 169 167 168
f 170 169 168
f 171 169 170
f 172 171 170
f 173 171 172
f 174 173 172
f 175 173 174
f 176 175 174
f 177 175 176
f 178 177 176
f 179 177 178
f 180 178 181
f 180 179 178
f 182 181 183
f 182 180 181
f 184 183 185
f 184 182 183
f 186 184 185
f 186 185 187
f 188 186 187
f 188 187 189
f 190 188 189
f 191 190 189
f 192 190 191
f 193 192 191
f 194 192 193
f 195 194 193
f 196 197 195
f 198 194 195
f 198 195 197
f 199 196 195
f 200 199 195
f 201 202 203
f 201 204 205
f 201 206 204
f 201 203 206
f 207 202 201
f 208 207 201
f 209 207 208
f 210 209 208
f 211 209 210
f 212 211 210
f 213 211 212
f 214 213 212
f 215 213 214
f 216 215 214
f 217 215 216
f 218 217 216
f 219 217 218
f 220 219 218
f 221 219 220
f 222 221 220
f 223 221 222
f 224 222 225
f 224 223 222
f 226 225 227
f 226 224 225
f 228 227 229
f 228 226 227
f 230 228 229
f 230 229 231
f 232 230 231
f 232 231 233
f 234 232 233
f 235 234 233
f 236 234 235
f 237 236 235
f 238 236 237
f 239 238 237
f 240 241 239
f 242 238 239
f 242 239 241
f 243 240 239
f 244 243 239
f 245 246 247
f 245 248 246
f 245 249 248
f 245 250 249
f 251 250 245
f 252 251 245
f 253 251 252
f 254 253 252
f 255 253 254
f 256 255 254
f 257 255 256
f 258 257 256
f 259 257 258
f 260 259 258
f 261 259 260
f 262 261 260
f 263 261 262
f 264 263 262
f 265 263 264
f 266 265 264
f 267 265 266
f 268 266 269
f 268 267 266
f 270 269 271
f 270 268 269
f 272 271 273
f 272 270 271
f 274 272 273
f 274 273 275
f 276 275 277
f 276 274 275
f 278 276 277
f 279 278 277
f 280 278 279
f 281 280 279
f 282 280 281
f 283 282 281
f 284 285 283
f 286 282 283
f 286 283 285
f 287 284 283
f 288 287 283
f 289 290 291
f 289 292 290
f 289 293 292
f 289 294 293
f 295 294 289
f 296 295 289
f 297 295 296
f 298 297 296
f 299 297 298
f 300 299 298
f 301 299 300
f 302 301 300
f 303 301 302
f 304 303 302
f 305 303 304
f 306 305 304
f 307 305 306
f 308 307 306
f 309 307 308
f 310 309 308
f 311 309 310
f 312 310 313
f 312 311 310
f 314 313 315
f 314 312 313
f 316 315 317
f 316 314 315
f 318 316 317
f 318 317 319
f 320 319 321
f 320 318 319
f 322 320 321
f 323 322 321
f 324 322 323
f 325 324 323
f 326 324 325
f 327 326 325
f 328 329 327
f 330 326 327
f 330 327 329
f 331 328 327
f 332 331 327

