# https://github.com/mikedh/trimesh
v 0.00049958 -0.16545039 0.07030019
v 0.00049955 -0.16584611 0.07030019
v 0.00432763 -0.16550231 0.07030019
v 0.00913567 -0.16437241 0.07030019
v 0.01249807 -0.16337912 0.07030019
v 0.04434246 -0.12079220 0.07030018
v 0.04215178 -0.13444459 0.07030018
v 0.04370195 -0.12820572 0.07030018
v 0.04418086 -0.12451319 0.07030018
v -0.00365260 -0.16560891 0.07030019
v -0.00050044 -0.16584611 0.07030019
v -0.00050041 -0.16545039 0.07030019
v -0.00731844 -0.16485700 0.07030019
v -0.01249807 -0.16337912 0.07030019
v -0.01495558 -0.16255100 0.07030019
v 0.01883484 -0.16092171 0.07030019
v -0.01787051 -0.16136670 0.07030019
v -0.02261459 -0.15889901 0.07030019
v 0.02357312 -0.15830871 0.07030019
v 0.03924873 -0.09660279 0.07030018
v 0.04373107 -0.11005169 0.07030018
v 0.04211440 -0.10338890 0.07030018
v -0.02642978 -0.15634081 0.07030019
v 0.02848693 -0.15470630 0.07030019
v -0.03004348 -0.15333100 0.07030019
v 0.03262666 -0.15073551 0.07030019
v -0.03331664 -0.14996602 0.07030019
v 0.03564182 -0.14707720 0.07030018
v 0.02768816 -0.08256632 0.07030018
v 0.03539366 -0.09050662 0.07030018
v 0.03169958 -0.08619936 0.07030018
v -0.03621868 -0.14627770 0.07030018
v 0.03802160 -0.14350639 0.07030018
v -0.03874361 -0.14225501 0.07030018
v 0.04004045 -0.13973540 0.07030018
v 0.02326386 -0.07944863 0.07030018
v -0.04112405 -0.13726461 0.07030018
v 0.01344884 -0.07493888 0.07030018
v 0.01849386 -0.07689136 0.07030018
v 0.00820960 -0.07361759 0.07030018
v -0.04434246 -0.12079220 0.07030018
v -0.04370873 -0.12816660 0.07030018
v -0.04265682 -0.13279080 0.07030018
v 0.04430611 -0.11716010 0.07030018
v -0.04430611 -0.11716010 0.07030018
v -0.04420032 -0.11425290 0.07030018
v -0.00638323 -0.07331223 0.07030018
v 0.00412399 -0.07304106 0.07030018
v 0.00000000 -0.07284049 0.07029518
v -0.04264822 -0.10514119 0.07030018
v -0.04377253 -0.11031500 0.07030018
v -0.04115882 -0.10075589 0.07030018
v -0.03904273 -0.09621436 0.07030018
v -0.02423415 -0.08006506 0.07030018
v -0.01263312 -0.07468817 0.07030018
v -0.01862775 -0.07695317 0.07030018
v -0.03642246 -0.09193195 0.07030018
v -0.02933510 -0.08395054 0.07030018
v -0.03333718 -0.08797196 0.07030018
v -0.00605578 -0.07305606 0.07010035
v -0.00050077 -0.07216644 0.05919996
v -0.00813154 -0.07290792 0.05919972
v -0.00054252 -0.07264086 0.07010035
v -0.01124622 -0.07408608 0.07010035
v -0.02634414 -0.08127393 0.07010035
v -0.02247199 -0.07818070 0.05919935
v -0.02877670 -0.08257305 0.05919874
v -0.02216615 -0.07855216 0.07010035
v -0.03584081 -0.09075865 0.07010048
v -0.03425430 -0.08799143 0.05919984
v -0.03872534 -0.09426358 0.05920033
v -0.03970292 -0.09703173 0.07010158
v -0.04394369 -0.12797311 0.07009999
v -0.04444897 -0.12367370 0.07010035
v -0.04448561 -0.12393700 0.05920020
v -0.04269886 -0.13140281 0.05919984
v -0.03631302 -0.14643401 0.07010255
v -0.03966059 -0.13846360 0.05919923
v -0.03545375 -0.14491671 0.05919825
v -0.03935216 -0.14150141 0.07009938
v -0.00050063 -0.16213590 0.05946767
v -0.00526601 -0.16184311 0.05920107
v -0.00049990 -0.16214201 0.05920008
v -0.00050045 -0.16211811 0.06139980
v -0.00838683 -0.16467111 0.07013198
v -0.00997136 -0.16104861 0.05920057
v -0.01252989 -0.16348360 0.07012197
v -0.00050046 -0.16233911 0.06373122
v -0.00050046 -0.16285691 0.06560757
v -0.00417900 -0.16559681 0.07014919
v -0.00050046 -0.16360581 0.06724197
v -0.00050045 -0.16459802 0.06874038
v -0.00050045 -0.16522051 0.06947707
v -0.00050045 -0.16590011 0.07016347
v -0.01732101 -0.07575991 0.06177003
v -0.01552754 -0.07492960 0.05919984
v -0.01739262 -0.07592462 0.06457509
v -0.01770651 -0.07631175 0.07010035
v -0.03189292 -0.08558786 0.06178944
v -0.03196815 -0.08583988 0.06459681
v -0.03099306 -0.08520101 0.07010035
v -0.04159021 -0.10031350 0.06180470
v -0.04206377 -0.10120200 0.05920057
v -0.04416738 -0.10861170 0.05920130
v -0.04160006 -0.10066999 0.06461378
v -0.04395979 -0.11016890 0.07010084
v -0.04234691 -0.10344270 0.07010182
v -0.04489321 -0.11769439 0.06178236
v -0.04497901 -0.11626899 0.05920008
v -0.04478480 -0.11818939 0.06458156
v -0.04454520 -0.12079260 0.07010011
v -0.04451657 -0.11715689 0.07010048
v -0.04155996 -0.13496041 0.06181813
v -0.04154792 -0.13554721 0.06462343
v -0.04210729 -0.13516521 0.07010061
v -0.03190349 -0.14954391 0.06191371
v -0.03021186 -0.15055342 0.05919801
v -0.03195303 -0.15018611 0.06474403
v -0.02409606 -0.15520161 0.05919813
v -0.02591150 -0.15690172 0.07010744
v -0.03169073 -0.15195172 0.07010451
v -0.01732740 -0.15920341 0.06209791
v -0.01728433 -0.15873301 0.05919862
v -0.01737031 -0.15988430 0.06500014
v -0.01960330 -0.16070062 0.07011221
v 0.00813228 -0.16142091 0.05919997
v 0.00049954 -0.16211811 0.06139980
v 0.00049936 -0.16213590 0.05946742
v 0.00050010 -0.16214211 0.05920008
v 0.00329695 -0.16571821 0.07015334
v 0.00049954 -0.16589980 0.07016384
v 0.00049954 -0.16477640 0.06896413
v 0.00049954 -0.16382672 0.06762197
v 0.00049954 -0.16307642 0.06616078
v 0.01737852 -0.16172831 0.07011611
v 0.01513747 -0.15955761 0.05919898
v 0.02036153 -0.15731941 0.05919813
v 0.01253039 -0.16348521 0.07012112
v 0.02243125 -0.15917031 0.07010964
v 0.03631520 -0.14643089 0.07010243
v 0.03194215 -0.15169431 0.07010439
v 0.03200975 -0.14883341 0.05919801
v 0.03631981 -0.14376982 0.05919813
v 0.03944068 -0.14133351 0.07009926
v 0.03964306 -0.13849351 0.05919813
v 0.04400907 -0.12757151 0.07009974
v 0.04367000 -0.12803091 0.05919972
v 0.04459829 -0.12311920 0.05920008
v 0.04432421 -0.11307140 0.07010048
v 0.04483285 -0.11346389 0.05919984
v 0.04361433 -0.10614099 0.05919996
v 0.04353985 -0.10790440 0.07010109
v 0.03814547 -0.09421688 0.07010096
v 0.03970886 -0.09601302 0.05919996
v 0.03710520 -0.09172054 0.05919996
v 0.03468311 -0.08925341 0.07010035
v 0.02405253 -0.07969921 0.07010035
v 0.02986948 -0.08414873 0.07010035
v 0.02716959 -0.08129834 0.05919996
v 0.02205794 -0.07794584 0.05919984
v 0.00768337 -0.07331080 0.07010035
v 0.01233398 -0.07389136 0.05919959
v 0.00800716 -0.07288706 0.05919984
v 0.00395601 -0.07234108 0.05919996
v 0.01447198 -0.07505800 0.07010035
v 0.00045748 -0.07263982 0.07010035
v 0.00049924 -0.07216644 0.05919996
v 0.00882465 -0.16160221 0.06218752
v 0.00049954 -0.16253841 0.06460415
v 0.00049954 -0.16222490 0.06300283
v 0.00883014 -0.16225791 0.06511904
v 0.00648139 -0.16514342 0.07014015
v 0.02511318 -0.15511671 0.06199244
v 0.02665044 -0.15345611 0.05919776
v 0.02516869 -0.15578631 0.06484853
v 0.02693390 -0.15614371 0.07010574
v 0.04155996 -0.13496041 0.06181813
v 0.04205974 -0.13319591 0.05919874
v 0.04154792 -0.13554721 0.06462343
v 0.04225717 -0.13472460 0.07010048
v 0.04489321 -0.11769439 0.06178236
v 0.04496870 -0.11854470 0.05920008
v 0.04478480 -0.11818939 0.06458156
v 0.04451658 -0.11715689 0.07010048
v 0.04454520 -0.12079260 0.07010011
v 0.04159021 -0.10031350 0.06180470
v 0.04165688 -0.10016739 0.05919996
v 0.04160006 -0.10066999 0.06461378
v 0.04067971 -0.09908654 0.07010194
v 0.04242646 -0.10369080 0.07010182
v 0.03189292 -0.08558786 0.06178944
v 0.03257791 -0.08612769 0.05919996
v 0.03196815 -0.08583988 0.06459681
v 0.01732101 -0.07575991 0.06177003
v 0.01705741 -0.07552449 0.05919935
v 0.01739262 -0.07592462 0.06457509
v 0.01922121 -0.07700283 0.07010035
v 0.00365696 -0.16179700 0.05900013
v 0.00050010 -0.16214211 0.05920008
v 0.00050091 -0.16194631 0.05900013
v 0.00813228 -0.16142091 0.05919997
v 0.00680746 -0.16143000 0.05900013
v 0.01234264 -0.16022182 0.05900013
v 0.01513747 -0.15955761 0.05919898
v 0.01768759 -0.15831861 0.05900013
v 0.02036153 -0.15731941 0.05919813
v 0.02274845 -0.15575200 0.05900013
v 0.02665044 -0.15345611 0.05919776
v 0.02745080 -0.15256351 0.05900013
v 0.03200975 -0.14883341 0.05919801
v 0.03171778 -0.14880170 0.05900013
v 0.03547390 -0.14452170 0.05900013
v 0.03631981 -0.14376982 0.05919813
v 0.03865925 -0.13979861 0.05900013
v 0.03964306 -0.13849351 0.05919813
v 0.04122194 -0.13470861 0.05900013
v 0.04205974 -0.13319591 0.05919874
v 0.04311340 -0.12933131 0.05900013
v 0.04367000 -0.12803091 0.05919972
v 0.04430737 -0.12375740 0.05900013
v 0.04459829 -0.12311920 0.05920008
v 0.04478676 -0.11807720 0.05900013
v 0.04496870 -0.11854470 0.05920008
v 0.04483285 -0.11346389 0.05919984
v 0.04453780 -0.11237960 0.05900013
v 0.04361433 -0.10614099 0.05919996
v 0.04356824 -0.10675380 0.05900013
v 0.04189450 -0.10129470 0.05900013
v 0.04165688 -0.10016739 0.05919996
v 0.03952123 -0.09606704 0.05900013
v 0.03970886 -0.09601302 0.05919996
v 0.03710520 -0.09172054 0.05919996
v 0.03648092 -0.09116042 0.05900013
v 0.03257791 -0.08612769 0.05919996
v 0.03283919 -0.08668488 0.05900013
v 0.02865192 -0.08271857 0.05900013
v 0.02716959 -0.08129834 0.05919996
v 0.02235915 -0.07833705 0.05900013
v 0.02205794 -0.07794584 0.05919984
v 0.01705741 -0.07552449 0.05919935
v 0.01542829 -0.07509664 0.05900013
v 0.01233398 -0.07389136 0.05919959
v 0.00807622 -0.07309291 0.05900012
v 0.00800716 -0.07288706 0.05919984
v 0.00395601 -0.07234108 0.05919996
v 0.00049995 -0.07235373 0.05900050
v 0.00049924 -0.07216644 0.05919996
v -0.00399914 -0.07253617 0.05900012
v -0.00050077 -0.07216644 0.05919996
v -0.00049996 -0.07235373 0.05900050
v -0.00813154 -0.07290792 0.05919972
v -0.00747385 -0.07298673 0.05900012
v -0.01244045 -0.07411972 0.05900013
v -0.01552754 -0.07492960 0.05919984
v -0.01725772 -0.07581320 0.05900013
v -0.02247199 -0.07818070 0.05919935
v -0.02186229 -0.07805483 0.05900013
v -0.02618739 -0.08081041 0.05900013
v -0.02877670 -0.08257305 0.05919874
v -0.03017593 -0.08404489 0.05900013
v -0.03425430 -0.08799143 0.05919984
v -0.03377094 -0.08772209 0.05900013
v -0.03692150 -0.09179044 0.05900013
v -0.03872534 -0.09426358 0.05920033
v -0.03958833 -0.09619319 0.05900013
v -0.04206377 -0.10120200 0.05920057
v -0.04173314 -0.10087439 0.05900013
v -0.04332302 -0.10577349 0.05900013
v -0.04416738 -0.10861170 0.05920130
v -0.04434239 -0.11082190 0.05900013
v -0.04497901 -0.11626899 0.05920008
v -0.04477920 -0.11595000 0.05900013
v -0.04462321 -0.12108990 0.05900013
v -0.04448561 -0.12393700 0.05920020
v -0.04387937 -0.12617810 0.05900013
v -0.04269886 -0.13140281 0.05919984
v -0.04256019 -0.13114811 0.05900013
v -0.04067856 -0.13593340 0.05900013
v -0.03966059 -0.13846360 0.05919923
v -0.03825879 -0.14046860 0.05900013
v -0.03545375 -0.14491671 0.05919825
v -0.03533819 -0.14469680 0.05900013
v -0.03151065 -0.14900792 0.05900013
v -0.03021186 -0.15055342 0.05919801
v -0.02659893 -0.15320721 0.05900013
v -0.02409606 -0.15520161 0.05919813
v -0.02114362 -0.15665442 0.05900013
v -0.01728433 -0.15873301 0.05919862
v -0.01525645 -0.15927941 0.05900013
v -0.00997136 -0.16104861 0.05920057
v -0.00835060 -0.16116731 0.05900013
v -0.00526601 -0.16184311 0.05920107
v -0.00049909 -0.16194631 0.05900013
v -0.00049990 -0.16214201 0.05920008
v 0.00913567 -0.16437241 0.07030019
v 0.01253039 -0.16348521 0.07012112
v 0.01249807 -0.16337912 0.07030019
v 0.00329695 -0.16571821 0.07015334
v 0.00648139 -0.16514342 0.07014015
v 0.00432763 -0.16550231 0.07030019
v 0.00049955 -0.16584611 0.07030019
v 0.00049954 -0.16589980 0.07016384
v -0.00365260 -0.16560891 0.07030019
v -0.00050045 -0.16590011 0.07016347
v -0.00050044 -0.16584611 0.07030019
v -0.00417900 -0.16559681 0.07014919
v -0.00731844 -0.16485700 0.07030019
v -0.01249807 -0.16337912 0.07030019
v -0.01252989 -0.16348360 0.07012197
v -0.00838683 -0.16467111 0.07013198
v 0.04418086 -0.12451319 0.07030018
v 0.04454520 -0.12079260 0.07010011
v 0.04434246 -0.12079220 0.07030018
v 0.04400907 -0.12757151 0.07009974
v 0.04370195 -0.12820572 0.07030018
v 0.04225717 -0.13472460 0.07010048
v 0.04215178 -0.13444459 0.07030018
v 0.04004045 -0.13973540 0.07030018
v 0.03944068 -0.14133351 0.07009926
v 0.03802160 -0.14350639 0.07030018
v 0.03631520 -0.14643089 0.07010243
v 0.03564182 -0.14707720 0.07030018
v 0.03262666 -0.15073551 0.07030019
v 0.03194215 -0.15169431 0.07010439
v 0.02848693 -0.15470630 0.07030019
v 0.02693390 -0.15614371 0.07010574
v 0.02357312 -0.15830871 0.07030019
v 0.02243125 -0.15917031 0.07010964
v 0.01883484 -0.16092171 0.07030019
v 0.01737852 -0.16172831 0.07011611
v 0.01249807 -0.16337912 0.07030019
v 0.01253039 -0.16348521 0.07012112
v 0.04454520 -0.12079260 0.07010011
v 0.04451658 -0.11715689 0.07010048
v 0.04430611 -0.11716010 0.07030018
v 0.04434246 -0.12079220 0.07030018
v 0.00412399 -0.07304106 0.07030018
v 0.00045748 -0.07263982 0.07010035
v 0.00045676 -0.07283524 0.07028761
v 0.00768337 -0.07331080 0.07010035
v 0.00820960 -0.07361759 0.07030018
v 0.01344884 -0.07493888 0.07030018
v 0.01447198 -0.07505800 0.07010035
v 0.01849386 -0.07689136 0.07030018
v 0.01922121 -0.07700283 0.07010035
v 0.02326386 -0.07944863 0.07030018
v 0.02405253 -0.07969921 0.07010035
v 0.02768816 -0.08256632 0.07030018
v 0.02986948 -0.08414873 0.07010035
v 0.03169958 -0.08619936 0.07030018
v 0.03468311 -0.08925341 0.07010035
v 0.03539366 -0.09050662 0.07030018
v 0.03814547 -0.09421688 0.07010096
v 0.03924873 -0.09660279 0.07030018
v 0.04067971 -0.09908654 0.07010194
v 0.04211440 -0.10338890 0.07030018
v 0.04242646 -0.10369080 0.07010182
v 0.04353985 -0.10790440 0.07010109
v 0.04373107 -0.11005169 0.07030018
v 0.04432421 -0.11307140 0.07010048
v 0.04430611 -0.11716010 0.07030018
v 0.04451658 -0.11715689 0.07010048
v 0.00000000 -0.07284049 0.07029518
v 0.00015225 -0.07283535 0.07028992
v 0.00030451 -0.07283529 0.07028908
v -0.04420032 -0.11425290 0.07030018
v -0.04451657 -0.11715689 0.07010048
v -0.04430611 -0.11716010 0.07030018
v -0.04395979 -0.11016890 0.07010084
v -0.04377253 -0.11031500 0.07030018
v -0.04264822 -0.10514119 0.07030018
v -0.04234691 -0.10344270 0.07010182
v -0.04115882 -0.10075589 0.07030018
v -0.03970292 -0.09703173 0.07010158
v -0.03904273 -0.09621436 0.07030018
v -0.03642246 -0.09193195 0.07030018
v -0.03584081 -0.09075865 0.07010048
v -0.03333718 -0.08797196 0.07030018
v -0.03099306 -0.08520101 0.07010035
v -0.02933510 -0.08395054 0.07030018
v -0.02634414 -0.08127393 0.07010035
v -0.02423415 -0.08006506 0.07030018
v -0.02216615 -0.07855216 0.07010035
v -0.01862775 -0.07695317 0.07030018
v -0.01770651 -0.07631175 0.07010035
v -0.01263312 -0.07468817 0.07030018
v -0.01124622 -0.07408608 0.07010035
v -0.00638323 -0.07331223 0.07030018
v -0.00605578 -0.07305606 0.07010035
v -0.00054324 -0.07283518 0.07028663
v -0.00054252 -0.07264086 0.07010035
v 0.00000000 -0.07284049 0.07029518
v -0.00018108 -0.07283533 0.07028981
v -0.00036216 -0.07283527 0.07028859
v -0.04430611 -0.11716010 0.07030018
v -0.04451657 -0.11715689 0.07010048
v -0.04454520 -0.12079260 0.07010011
v -0.04434246 -0.12079220 0.07030018
v -0.01495558 -0.16255100 0.07030019
v -0.01252989 -0.16348360 0.07012197
v -0.01249807 -0.16337912 0.07030019
v -0.01960330 -0.16070062 0.07011221
v -0.01787051 -0.16136670 0.07030019
v -0.02261459 -0.15889901 0.07030019
v -0.02591150 -0.15690172 0.07010744
v -0.02642978 -0.15634081 0.07030019
v -0.03004348 -0.15333100 0.07030019
v -0.03169073 -0.15195172 0.07010451
v -0.03331664 -0.14996602 0.07030019
v -0.03631302 -0.14643401 0.07010255
v -0.03621868 -0.14627770 0.07030018
v -0.03874361 -0.14225501 0.07030018
v -0.03935216 -0.14150141 0.07009938
v -0.04112405 -0.13726461 0.07030018
v -0.04210729 -0.13516521 0.07010061
v -0.04265682 -0.13279080 0.07030018
v -0.04394369 -0.12797311 0.07009999
v -0.04370873 -0.12816660 0.07030018
v -0.04444897 -0.12367370 0.07010035
v -0.04434246 -0.12079220 0.07030018
v -0.04454520 -0.12079260 0.07010011
v 0.00049940 -0.16173941 0.05945814
v -0.00049909 -0.16175051 0.05900013
v 0.00050091 -0.16175051 0.05900013
v -0.00050059 -0.16173941 0.05945838
v 0.00049940 -0.16173941 0.05945814
v 0.00050091 -0.16175051 0.05900013
v 0.00050091 -0.16194631 0.05900013
v 0.00050010 -0.16214211 0.05920008
v 0.00049936 -0.16213590 0.05946742
v -0.00050059 -0.16173941 0.05945838
v -0.00049990 -0.16214201 0.05920008
v -0.00049909 -0.16194631 0.05900013
v -0.00049909 -0.16175051 0.05900013
v -0.00050063 -0.16213590 0.05946767
v -0.00050041 -0.16186640 0.06355593
v -0.00050046 -0.16233911 0.06373122
v -0.00050045 -0.16211811 0.06139980
v -0.00050041 -0.16170642 0.06139980
v -0.00050041 -0.16233660 0.06545412
v -0.00050046 -0.16285691 0.06560757
v -0.00050041 -0.16303012 0.06707510
v -0.00050046 -0.16360581 0.06724197
v -0.00050041 -0.16395442 0.06857864
v -0.00050045 -0.16459802 0.06874038
v -0.00050041 -0.16466431 0.06947610
v -0.00050045 -0.16522051 0.06947707
v -0.00050041 -0.16545039 0.07030019
v -0.00050045 -0.16590011 0.07016347
v -0.00050044 -0.16584611 0.07030019
v 0.00049958 -0.16173340 0.06231643
v 0.00049958 -0.16170642 0.06139980
v 0.00049954 -0.16211811 0.06139980
v 0.00049954 -0.16222490 0.06300283
v 0.00049958 -0.16182031 0.06323635
v 0.00049954 -0.16253841 0.06460415
v 0.00049958 -0.16213071 0.06478432
v 0.00049954 -0.16307642 0.06616078
v 0.00049958 -0.16265211 0.06627578
v 0.00049958 -0.16338980 0.06771938
v 0.00049954 -0.16382672 0.06762197
v 0.00049958 -0.16433620 0.06908242
v 0.00049954 -0.16477640 0.06896413
v 0.00049958 -0.16545039 0.07030019
v 0.00049954 -0.16589980 0.07016384
v 0.00049955 -0.16584611 0.07030019
v 0.00049958 -0.16173340 0.06231643
v -0.00050041 -0.16170642 0.06139980
v 0.00049958 -0.16170642 0.06139980
v -0.00050041 -0.16186640 0.06355593
v 0.00049958 -0.16182031 0.06323635
v 0.00049958 -0.16213071 0.06478432
v -0.00050041 -0.16233660 0.06545412
v 0.00049958 -0.16265211 0.06627578
v -0.00050041 -0.16303012 0.06707510
v 0.00049958 -0.16338980 0.06771938
v -0.00050041 -0.16395442 0.06857864
v 0.00049958 -0.16433620 0.06908242
v -0.00050041 -0.16466431 0.06947610
v 0.00049958 -0.16545039 0.07030019
v -0.00050041 -0.16545039 0.07030019
v -0.00050041 -0.16170642 0.06139980
v -0.00050063 -0.16213590 0.05946767
v -0.00050059 -0.16173941 0.05945838
v -0.00050045 -0.16211811 0.06139980
v 0.00049958 -0.16170642 0.06139980
v 0.00049940 -0.16173941 0.05945814
v 0.00049936 -0.16213590 0.05946742
v 0.00049954 -0.16211811 0.06139980
v -0.00050059 -0.16173941 0.05945838
v 0.00049940 -0.16173941 0.05945814
v 0.00049958 -0.16170642 0.06139980
v 0.00030451 -0.07283529 0.07028908
v 0.00045676 -0.07283524 0.07028761
v 0.00049995 -0.07235373 0.05900050
v 0.00015225 -0.07283535 0.07028992
v 0.00000000 -0.07284049 0.07029518
v -0.00049996 -0.07235373 0.05900050
v -0.00018108 -0.07283533 0.07028981
v -0.00036216 -0.07283527 0.07028859
v -0.00054324 -0.07283518 0.07028663
v -0.00054252 -0.07264086 0.07010035
v -0.00054324 -0.07283518 0.07028663
v -0.00049996 -0.07235373 0.05900050
v -0.00050077 -0.07216644 0.05919996
v 0.00049995 -0.07235373 0.05900050
v 0.00045748 -0.07263982 0.07010035
v 0.00049924 -0.07216644 0.05919996
v 0.00045676 -0.07283524 0.07028761
f 1 2 3
f 1 3 4
f 1 4 5
f 6 7 8
f 6 8 9
f 10 11 12
f 13 10 12
f 14 13 12
f 14 12 1
f 14 1 5
f 15 14 5
f 15 5 16
f 17 15 16
f 18 17 16
f 18 16 19
f 20 21 22
f 23 19 24
f 23 18 19
f 25 24 26
f 25 23 24
f 27 26 28
f 27 25 26
f 29 30 31
f 32 28 33
f 32 27 28
f 34 33 35
f 34 32 33
f 36 30 29
f 37 35 7
f 37 34 35
f 38 36 39
f 40 30 36
f 40 36 38
f 41 42 43
f 41 43 37
f 41 37 7
f 41 6 44
f 41 7 6
f 45 41 44
f 46 21 20
f 46 30 40
f 46 44 21
f 46 20 30
f 46 45 44
f 47 46 40
f 47 40 48
f 47 48 49
f 50 51 46
f 52 50 46
f 53 52 46
f 54 47 55
f 54 55 56
f 54 46 47
f 57 46 54
f 57 53 46
f 58 59 57
f 58 57 54
f 60 61 62
f 60 63 61
f 64 60 62
f 65 66 67
f 65 68 66
f 69 70 71
f 72 69 71
f 73 74 75
f 73 75 76
f 77 78 79
f 77 80 78
f 81 82 83
f 84 82 81
f 85 86 82
f 85 87 86
f 88 82 84
f 89 85 82
f 89 82 88
f 90 85 89
f 91 90 89
f 92 90 91
f 93 90 92
f 94 90 93
f 95 96 66
f 97 62 96
f 97 68 98
f 97 98 64
f 97 96 95
f 97 95 66
f 97 64 62
f 97 66 68
f 99 67 70
f 100 67 99
f 100 99 70
f 100 69 101
f 100 101 65
f 100 65 67
f 100 70 69
f 102 71 103
f 102 103 104
f 105 102 104
f 105 106 107
f 105 107 72
f 105 71 102
f 105 72 71
f 105 104 106
f 108 104 109
f 108 109 75
f 110 108 75
f 110 75 74
f 110 74 111
f 110 111 112
f 110 112 106
f 110 106 104
f 110 104 108
f 113 76 78
f 114 73 76
f 114 78 80
f 114 80 115
f 114 115 73
f 114 76 113
f 114 113 78
f 116 79 117
f 118 117 119
f 118 77 79
f 118 119 120
f 118 120 121
f 118 121 77
f 118 116 117
f 118 79 116
f 122 119 123
f 122 123 86
f 124 120 119
f 124 119 122
f 124 87 125
f 124 125 120
f 124 86 87
f 124 122 86
f 126 127 128
f 126 128 129
f 130 131 132
f 130 132 133
f 130 133 134
f 135 136 137
f 135 138 136
f 139 135 137
f 140 141 142
f 140 142 143
f 144 140 143
f 144 143 145
f 146 147 148
f 149 150 151
f 152 149 151
f 153 154 155
f 156 153 155
f 157 158 159
f 157 159 160
f 161 162 163
f 161 163 164
f 161 165 162
f 166 161 164
f 166 164 167
f 168 169 170
f 168 170 127
f 168 126 136
f 168 127 126
f 171 138 172
f 171 172 130
f 171 134 169
f 171 168 136
f 171 169 168
f 171 130 134
f 171 136 138
f 173 137 174
f 175 142 141
f 175 141 176
f 175 176 139
f 175 174 142
f 175 139 137
f 175 173 174
f 175 137 173
f 177 145 178
f 177 178 147
f 179 144 145
f 179 146 180
f 179 180 144
f 179 147 146
f 179 177 147
f 179 145 177
f 181 148 182
f 181 182 150
f 183 149 184
f 183 184 185
f 183 185 146
f 183 146 148
f 183 148 181
f 183 150 149
f 183 181 150
f 186 151 187
f 186 187 154
f 188 153 189
f 188 189 190
f 188 190 152
f 188 151 186
f 188 152 151
f 188 154 153
f 188 186 154
f 191 155 192
f 191 192 159
f 193 158 156
f 193 159 158
f 193 156 155
f 193 191 159
f 193 155 191
f 194 160 195
f 194 195 162
f 196 165 197
f 196 160 194
f 196 197 157
f 196 194 162
f 196 157 160
f 196 162 165
f 198 199 200
f 201 198 202
f 201 199 198
f 203 201 202
f 204 201 203
f 205 204 203
f 206 204 205
f 207 206 205
f 208 206 207
f 209 208 207
f 210 208 209
f 211 210 209
f 212 210 211
f 213 210 212
f 214 213 212
f 215 213 214
f 216 215 214
f 217 215 216
f 218 217 216
f 219 217 218
f 220 219 218
f 221 219 220
f 222 221 220
f 222 223 221
f 224 223 222
f 225 224 222
f 226 224 225
f 226 225 227
f 228 226 227
f 229 226 228
f 230 229 228
f 230 231 229
f 232 231 230
f 233 232 230
f 234 232 233
f 234 233 235
f 236 234 235
f 237 234 236
f 238 237 236
f 239 237 238
f 240 239 238
f 241 240 238
f 242 240 241
f 243 244 242
f 243 242 241
f 245 244 243
f 246 247 245
f 246 245 243
f 248 249 250
f 251 248 252
f 251 249 248
f 253 251 252
f 254 251 253
f 255 254 253
f 256 255 257
f 256 254 255
f 258 256 257
f 259 256 258
f 260 259 258
f 261 260 262
f 261 259 260
f 263 261 262
f 264 261 263
f 265 264 263
f 266 265 267
f 266 264 265
f 268 266 267
f 269 266 268
f 270 269 268
f 271 270 272
f 271 269 270
f 273 271 272
f 274 271 273
f 275 274 273
f 276 274 275
f 277 276 275
f 278 276 277
f 279 276 278
f 280 279 278
f 281 279 280
f 282 281 280
f 283 281 282
f 284 281 283
f 285 284 283
f 286 284 285
f 287 286 285
f 288 286 287
f 289 288 287
f 290 288 289
f 291 290 289
f 292 290 291
f 293 292 291
f 293 294 292
f 295 296 297
f 298 299 300
f 301 302 298
f 301 298 300
f 295 300 299
f 299 296 295
f 303 304 305
f 306 304 303
f 307 306 303
f 308 309 310
f 310 306 307
f 307 308 310
f 311 312 313
f 314 312 311
f 315 314 311
f 316 314 315
f 317 316 315
f 318 316 317
f 319 316 318
f 320 319 318
f 321 319 320
f 322 321 320
f 323 321 322
f 324 321 323
f 325 324 323
f 326 324 325
f 327 326 325
f 328 326 327
f 329 328 327
f 330 328 329
f 331 332 330
f 331 330 329
f 333 334 335
f 336 333 335
f 337 338 339
f 340 338 337
f 341 340 337
f 342 340 341
f 343 340 342
f 344 343 342
f 345 343 344
f 346 345 344
f 347 345 346
f 348 347 346
f 349 347 348
f 350 349 348
f 351 349 350
f 352 351 350
f 353 351 352
f 354 353 352
f 355 353 354
f 356 355 354
f 357 355 356
f 358 357 356
f 359 358 356
f 360 358 359
f 361 362 360
f 361 360 359
f 363 337 364
f 364 337 365
f 365 337 339
f 366 367 368
f 369 367 366
f 370 369 366
f 371 369 370
f 372 369 371
f 373 372 371
f 374 372 373
f 375 374 373
f 376 374 375
f 377 374 376
f 378 377 376
f 379 377 378
f 380 379 378
f 381 379 380
f 382 381 380
f 383 381 382
f 384 383 382
f 385 383 384
f 386 385 384
f 387 385 386
f 388 387 386
f 389 387 388
f 390 391 389
f 390 389 388
f 388 392 393
f 388 393 394
f 388 394 390
f 395 396 397
f 395 397 398
f 399 400 401
f 402 399 403
f 402 400 399
f 404 402 403
f 405 402 404
f 406 405 404
f 407 405 406
f 408 405 407
f 409 408 407
f 410 408 409
f 411 410 409
f 412 410 411
f 413 410 412
f 414 413 412
f 415 413 414
f 416 415 414
f 417 415 416
f 418 417 416
f 419 417 418
f 420 421 419
f 420 419 418
f 422 423 424
f 422 425 423
f 426 427 428
f 429 426 428
f 430 426 429
f 431 432 433
f 431 433 434
f 431 435 432
f 436 437 438
f 436 438 439
f 440 441 437
f 440 437 436
f 442 443 441
f 442 441 440
f 444 443 442
f 445 443 444
f 446 447 445
f 446 445 444
f 448 449 447
f 448 447 446
f 450 449 448
f 451 452 453
f 454 455 451
f 454 451 453
f 456 457 455
f 456 455 454
f 458 459 457
f 458 457 456
f 460 459 458
f 461 460 458
f 462 460 461
f 463 462 461
f 464 462 463
f 465 466 464
f 465 464 463
f 467 468 469
f 470 468 467
f 471 470 467
f 472 473 470
f 472 470 471
f 474 475 473
f 474 473 472
f 476 475 474
f 477 475 476
f 478 479 477
f 478 477 476
f 480 481 479
f 480 479 478
f 482 483 484
f 482 485 483
f 486 487 488
f 489 486 488
f 468 490 491
f 492 468 491
f 493 494 495
f 496 493 495
f 497 495 498
f 497 496 495
f 499 497 498
f 500 499 498
f 501 500 498
f 502 503 504
f 502 504 505
f 506 507 508
f 506 509 507

