# https://github.com/mikedh/trimesh
v 0.03800000 0.06581793 0.09800000
v 0.04885186 0.05821937 0.09800000
v 0.05821938 0.04885185 0.09800000
v 0.06581794 0.03800000 0.09800000
v 0.07600001 -0.00000000 0.09800000
v 0.07141665 0.02599353 0.09800000
v 0.07484540 0.01319726 0.09800000
v 0.00000000 0.07600001 0.09800000
v 0.01319726 0.07484540 0.09800000
v 0.02599353 0.07141665 0.09800000
v 0.06581794 -0.03800001 0.09800000
v 0.07484540 -0.01319726 0.09800000
v 0.07141665 -0.02599353 0.09800000
v -0.03800000 0.06581793 0.09800000
v -0.02599353 0.07141665 0.09800000
v -0.01319726 0.07484540 0.09800000
v 0.04885186 -0.05821938 0.09800001
v 0.05821938 -0.04885187 0.09800000
v -0.05821938 0.04885185 0.09800000
v -0.04885186 0.05821937 0.09800000
v -0.07141665 0.02599353 0.09800000
v -0.06581794 0.03800000 0.09800000
v 0.01319726 -0.07484540 0.09800001
v 0.03800000 -0.06581794 0.09800001
v 0.02599353 -0.07141665 0.09800001
v -0.07600001 -0.00000001 0.09800000
v -0.07484540 0.01319726 0.09800000
v -0.07484540 -0.01319726 0.09800000
v -0.02599353 -0.07141665 0.09800001
v 0.00000000 -0.07600002 0.09800001
v -0.01319726 -0.07484540 0.09800001
v -0.06581794 -0.03800001 0.09800000
v -0.07141665 -0.02599353 0.09800000
v -0.04885186 -0.05821938 0.09800001
v -0.03800000 -0.06581794 0.09800001
v -0.05821938 -0.04885187 0.09800000
v -0.07600001 -0.00000001 0.09800000
v -0.07600001 -0.00000001 0.09900001
v -0.07484540 0.01319726 0.09900001
v -0.07484540 0.01319726 0.09800000
v -0.07141665 0.02599353 0.09800000
v -0.07141665 0.02599353 0.09900001
v -0.06581794 0.03800000 0.09800000
v -0.06581794 0.03800000 0.09900001
v -0.05821938 0.04885185 0.09800000
v -0.05821938 0.04885185 0.09900001
v -0.04885186 0.05821937 0.09800000
v -0.04885186 0.05821937 0.09900000
v -0.03800000 0.06581793 0.09800000
v -0.03800000 0.06581793 0.09900000
v -0.02599353 0.07141665 0.09900000
v -0.02599353 0.07141665 0.09800000
v -0.01319726 0.07484540 0.09800000
v -0.01319726 0.07484540 0.09900000
v 0.00000000 0.07600001 0.09800000
v 0.00000000 0.07600001 0.09900000
v 0.01319726 0.07484540 0.09800000
v 0.01319726 0.07484540 0.09900000
v 0.02599353 0.07141665 0.09800000
v 0.02599353 0.07141665 0.09900000
v 0.03800000 0.06581793 0.09900000
v 0.03800000 0.06581793 0.09800000
v 0.04885186 0.05821937 0.09800000
v 0.04885186 0.05821937 0.09900000
v 0.05821938 0.04885185 0.09800000
v 0.05821938 0.04885185 0.09900001
v 0.06581794 0.03800000 0.09800000
v 0.06581794 0.03800000 0.09900001
v 0.07141665 0.02599353 0.09800000
v 0.07141665 0.02599353 0.09900001
v 0.07484540 0.01319726 0.09800000
v 0.07484540 0.01319726 0.09900001
v 0.07600001 -0.00000000 0.09800000
v 0.07600001 -0.00000000 0.09900001
v 0.07484540 -0.01319726 0.09800000
v 0.07484540 -0.01319726 0.09900001
v 0.07141665 -0.02599353 0.09800000
v 0.07141665 -0.02599353 0.09900001
v 0.06581794 -0.03800001 0.09800000
v 0.06581794 -0.03800001 0.09900001
v 0.05821938 -0.04885187 0.09800000
v 0.05821938 -0.04885187 0.09900001
v 0.04885186 -0.05821938 0.09800001
v 0.04885186 -0.05821938 0.09900001
v 0.03800000 -0.06581794 0.09800001
v 0.03800000 -0.06581794 0.09900001
v 0.02599353 -0.07141665 0.09800001
v 0.02599353 -0.07141665 0.09900001
v 0.01319726 -0.07484540 0.09900001
v 0.01319726 -0.07484540 0.09800001
v 0.00000000 -0.07600002 0.09800001
v 0.00000000 -0.07600002 0.09900001
v -0.01319726 -0.07484540 0.09800001
v -0.01319726 -0.07484540 0.09900001
v -0.02599353 -0.07141665 0.09800001
v -0.02599353 -0.07141665 0.09900001
v -0.03800000 -0.06581794 0.09800001
v -0.03800000 -0.06581794 0.09900001
v -0.04885186 -0.05821938 0.09800001
v -0.04885186 -0.05821938 0.09900001
v -0.05821938 -0.04885187 0.09800000
v -0.05821938 -0.04885187 0.09900001
v -0.06581794 -0.03800001 0.09800000
v -0.06581794 -0.03800001 0.09900001
v -0.07141665 -0.02599353 0.09800000
v -0.07141665 -0.02599353 0.09900001
v -0.07484540 -0.01319726 0.09800000
v -0.07484540 -0.01319726 0.09900001
v -0.07600001 -0.00000001 0.09800000
v -0.07600001 -0.00000001 0.09900001
v -0.04691707 0.05591358 0.09900000
v -0.03800000 0.06581793 0.09900000
v -0.04885186 0.05821937 0.09900000
v -0.05591359 0.04691707 0.09900001
v -0.05821938 0.04885185 0.09900001
v -0.06581794 0.03800000 0.09900001
v -0.03649500 0.06321120 0.09900000
v -0.06321120 0.03649500 0.09900001
v -0.02496405 0.06858816 0.09900000
v -0.02599353 0.07141665 0.09900000
v -0.06858817 0.02496405 0.09900001
v -0.07141665 0.02599353 0.09900001
v -0.07484540 0.01319726 0.09900001
v -0.01267458 0.07188112 0.09900000
v -0.01319726 0.07484540 0.09900000
v -0.07188112 0.01267458 0.09900001
v 0.00000000 0.07299000 0.09900000
v 0.00000000 0.07600001 0.09900000
v -0.07299000 -0.00000001 0.09900001
v -0.07600001 -0.00000001 0.09900001
v -0.07484540 -0.01319726 0.09900001
v 0.01267458 0.07188112 0.09900000
v 0.01319726 0.07484540 0.09900000
v -0.07188112 -0.01267458 0.09900001
v 0.02496405 0.06858816 0.09900000
v 0.02599353 0.07141665 0.09900000
v -0.06858817 -0.02496405 0.09900001
v -0.07141665 -0.02599353 0.09900001
v 0.03649500 0.06321120 0.09900000
v 0.03800000 0.06581793 0.09900000
v -0.06321120 -0.03649500 0.09900001
v -0.06581794 -0.03800001 0.09900001
v 0.04885186 0.05821937 0.09900000
v -0.05821938 -0.04885187 0.09900001
v 0.04691707 0.05591358 0.09900000
v -0.05591359 -0.04691707 0.09900001
v 0.05821938 0.04885185 0.09900001
v 0.05591359 0.04691707 0.09900001
v -0.04885186 -0.05821938 0.09900001
v -0.04691707 -0.05591360 0.09900001
v -0.03649500 -0.06321120 0.09900001
v 0.06581794 0.03800000 0.09900001
v 0.06321120 0.03649500 0.09900001
v -0.03800000 -0.06581794 0.09900001
v 0.06858817 0.02496405 0.09900001
v 0.07141665 0.02599353 0.09900001
v -0.02599353 -0.07141665 0.09900001
v -0.02496405 -0.06858817 0.09900001
v 0.07188112 0.01267458 0.09900001
v 0.07484540 0.01319726 0.09900001
v -0.01319726 -0.07484540 0.09900001
v -0.01267458 -0.07188114 0.09900001
v 0.07600001 -0.00000000 0.09900001
v 0.07299000 -0.00000000 0.09900001
v 0.00000000 -0.07600002 0.09900001
v 0.00000000 -0.07299002 0.09900001
v 0.07484540 -0.01319726 0.09900001
v 0.07188112 -0.01267458 0.09900001
v 0.01319726 -0.07484540 0.09900001
v 0.01267458 -0.07188114 0.09900001
v 0.07141665 -0.02599353 0.09900001
v 0.06858817 -0.02496405 0.09900001
v 0.02599353 -0.07141665 0.09900001
v 0.02496405 -0.06858817 0.09900001
v 0.06581794 -0.03800001 0.09900001
v 0.06321120 -0.03649500 0.09900001
v 0.03800000 -0.06581794 0.09900001
v 0.03649500 -0.06321120 0.09900001
v 0.05821938 -0.04885187 0.09900001
v 0.05591359 -0.04691707 0.09900001
v 0.04885186 -0.05821938 0.09900001
v 0.04691707 -0.05591360 0.09900001
v -0.07174360 0.01265033 0.10700001
v -0.07299000 -0.00000001 0.09900001
v -0.07285036 -0.00000000 0.10700001
v -0.07188112 0.01267458 0.09900001
v -0.06858817 0.02496405 0.09900001
v -0.06845695 0.02491629 0.10700001
v -0.06309026 0.03642518 0.10700001
v -0.06321120 0.03649500 0.09900001
v -0.05591359 0.04691707 0.09900001
v -0.05580661 0.04682731 0.10700001
v -0.04682731 0.05580661 0.10700000
v -0.04691707 0.05591358 0.09900000
v -0.03642518 0.06309026 0.10700000
v -0.03649500 0.06321120 0.09900000
v -0.02496405 0.06858816 0.09900000
v -0.02491629 0.06845694 0.10700000
v -0.01267458 0.07188112 0.09900000
v -0.01265033 0.07174360 0.10700000
v 0.00000000 0.07299000 0.09900000
v 0.00000000 0.07285036 0.10700000
v 0.01267458 0.07188112 0.09900000
v 0.01265033 0.07174360 0.10700000
v 0.02496405 0.06858816 0.09900000
v 0.02491629 0.06845694 0.10700000
v 0.03649500 0.06321120 0.09900000
v 0.03642518 0.06309026 0.10700000
v 0.04691707 0.05591358 0.09900000
v 0.04682731 0.05580661 0.10700000
v 0.05591359 0.04691707 0.09900001
v 0.05580661 0.04682731 0.10700001
v 0.06321120 0.03649500 0.09900001
v 0.06309026 0.03642518 0.10700001
v 0.06858817 0.02496405 0.09900001
v 0.06845695 0.02491629 0.10700001
v 0.07188112 0.01267458 0.09900001
v 0.07174360 0.01265033 0.10700001
v 0.07299000 -0.00000000 0.09900001
v 0.07285036 -0.00000000 0.10700001
v 0.07188112 -0.01267458 0.09900001
v 0.07174360 -0.01265033 0.10700001
v 0.06858817 -0.02496405 0.09900001
v 0.06845695 -0.02491629 0.10700001
v 0.06309026 -0.03642518 0.10700001
v 0.06321120 -0.03649500 0.09900001
v 0.05591359 -0.04691707 0.09900001
v 0.05580661 -0.04682732 0.10700001
v 0.04691707 -0.05591360 0.09900001
v 0.04682731 -0.05580662 0.10700002
v 0.03649500 -0.06321120 0.09900001
v 0.03642518 -0.06309026 0.10700002
v 0.02496405 -0.06858817 0.09900001
v 0.02491629 -0.06845696 0.10700002
v 0.01267458 -0.07188114 0.09900001
v 0.01265033 -0.07174361 0.10700002
v 0.00000000 -0.07299002 0.09900001
v 0.00000000 -0.07285037 0.10700002
v -0.01267458 -0.07188114 0.09900001
v -0.01265033 -0.07174361 0.10700002
v -0.02496405 -0.06858817 0.09900001
v -0.02491629 -0.06845696 0.10700002
v -0.03649500 -0.06321120 0.09900001
v -0.03642518 -0.06309026 0.10700002
v -0.04682731 -0.05580662 0.10700002
v -0.04691707 -0.05591360 0.09900001
v -0.05591359 -0.04691707 0.09900001
v -0.05580661 -0.04682732 0.10700001
v -0.06321120 -0.03649500 0.09900001
v -0.06309026 -0.03642518 0.10700001
v -0.06858817 -0.02496405 0.09900001
v -0.06845695 -0.02491629 0.10700001
v -0.07188112 -0.01267458 0.09900001
v -0.07174360 -0.01265033 0.10700001
v -0.07299000 -0.00000001 0.09900001
v -0.07285036 -0.00000000 0.10700001
v -0.06309026 0.03642518 0.10700001
v -0.04682731 0.05580661 0.10700000
v -0.05580661 0.04682731 0.10700001
v -0.03642518 0.06309026 0.10700000
v -0.01265033 0.07174360 0.10700000
v -0.02491629 0.06845694 0.10700000
v -0.07285036 -0.00000000 0.10700001
v -0.06845695 0.02491629 0.10700001
v -0.07174360 0.01265033 0.10700001
v 0.01265033 0.07174360 0.10700000
v 0.00000000 0.07285036 0.10700000
v -0.07174360 -0.01265033 0.10700001
v -0.06309026 -0.03642518 0.10700001
v -0.06845695 -0.02491629 0.10700001
v 0.04682731 0.05580661 0.10700000
v 0.02491629 0.06845694 0.10700000
v 0.03642518 0.06309026 0.10700000
v -0.04682731 -0.05580662 0.10700002
v -0.05580661 -0.04682732 0.10700001
v 0.06309026 0.03642518 0.10700001
v 0.05580661 0.04682731 0.10700001
v -0.03642518 -0.06309026 0.10700002
v 0.06845695 0.02491629 0.10700001
v 0.07174360 0.01265033 0.10700001
v -0.01265033 -0.07174361 0.10700002
v -0.02491629 -0.06845696 0.10700002
v 0.07174360 -0.01265033 0.10700001
v 0.07285036 -0.00000000 0.10700001
v 0.02491629 -0.06845696 0.10700002
v 0.00000000 -0.07285037 0.10700002
v 0.01265033 -0.07174361 0.10700002
v 0.03642518 -0.06309026 0.10700002
v 0.05580661 -0.04682732 0.10700001
v 0.06845695 -0.02491629 0.10700001
v 0.06309026 -0.03642518 0.10700001
v 0.04682731 -0.05580662 0.10700002
f 1 2 3
f 1 3 4
f 5 6 7
f 8 9 10
f 8 10 1
f 11 5 12
f 11 12 13
f 14 15 16
f 17 11 18
f 19 20 14
f 21 22 19
f 21 16 8
f 21 4 6
f 21 1 4
f 21 6 5
f 21 8 1
f 21 5 11
f 21 14 16
f 21 19 14
f 23 17 24
f 23 24 25
f 26 27 21
f 28 21 11
f 28 11 17
f 28 17 23
f 28 26 21
f 29 23 30
f 29 30 31
f 32 33 28
f 32 28 23
f 34 29 35
f 34 23 29
f 36 32 23
f 36 23 34
f 37 38 39
f 40 37 39
f 41 39 42
f 41 40 39
f 43 42 44
f 43 41 42
f 45 44 46
f 45 43 44
f 47 46 48
f 47 45 46
f 49 47 48
f 49 48 50
f 49 50 51
f 52 49 51
f 53 52 51
f 53 51 54
f 55 53 54
f 55 54 56
f 57 55 56
f 57 56 58
f 59 57 58
f 59 58 60
f 59 60 61
f 62 59 61
f 63 62 61
f 63 61 64
f 65 63 64
f 65 64 66
f 67 65 66
f 67 66 68
f 69 67 68
f 69 68 70
f 71 69 70
f 71 70 72
f 73 71 72
f 73 72 74
f 75 73 74
f 75 74 76
f 77 75 76
f 77 76 78
f 79 78 80
f 79 77 78
f 81 80 82
f 81 79 80
f 83 82 84
f 83 81 82
f 85 84 86
f 85 83 84
f 87 86 88
f 87 88 89
f 87 85 86
f 90 87 89
f 91 89 92
f 91 90 89
f 93 92 94
f 93 91 92
f 95 94 96
f 95 93 94
f 97 96 98
f 97 95 96
f 99 97 98
f 99 98 100
f 101 99 100
f 101 100 102
f 103 101 102
f 103 102 104
f 105 103 104
f 105 104 106
f 107 105 106
f 107 106 108
f 109 107 108
f 109 108 110
f 111 112 113
f 114 115 116
f 114 113 115
f 114 111 113
f 117 112 111
f 118 114 116
f 119 120 112
f 119 112 117
f 121 116 122
f 121 118 116
f 123 121 122
f 124 125 120
f 124 120 119
f 126 121 123
f 127 128 125
f 127 125 124
f 129 123 130
f 129 126 123
f 131 129 130
f 132 128 127
f 132 133 128
f 134 129 131
f 135 136 133
f 135 133 132
f 137 134 131
f 137 131 138
f 139 140 136
f 139 136 135
f 141 137 138
f 141 138 142
f 143 140 139
f 144 141 142
f 145 143 139
f 146 141 144
f 147 143 145
f 147 145 148
f 149 146 144
f 149 150 146
f 151 150 149
f 152 148 153
f 152 147 148
f 154 151 149
f 155 152 153
f 156 152 155
f 157 151 154
f 157 158 151
f 159 156 155
f 160 156 159
f 161 162 158
f 161 158 157
f 163 159 164
f 163 160 159
f 165 166 162
f 165 162 161
f 167 164 168
f 167 163 164
f 169 170 166
f 169 166 165
f 171 167 168
f 171 168 172
f 173 174 170
f 173 170 169
f 175 172 176
f 175 171 172
f 177 174 173
f 177 178 174
f 179 175 176
f 179 176 180
f 181 178 177
f 181 179 180
f 181 180 182
f 181 182 178
f 183 184 185
f 186 184 183
f 187 183 188
f 187 186 183
f 189 187 188
f 190 187 189
f 191 189 192
f 191 190 189
f 193 191 192
f 194 191 193
f 195 194 193
f 196 194 195
f 197 196 195
f 197 195 198
f 199 197 198
f 199 198 200
f 201 199 200
f 201 200 202
f 203 201 202
f 203 202 204
f 205 203 204
f 205 204 206
f 207 205 206
f 207 206 208
f 209 207 208
f 209 208 210
f 211 209 210
f 211 210 212
f 213 211 212
f 213 212 214
f 215 213 214
f 215 214 216
f 217 215 216
f 217 216 218
f 219 217 218
f 219 218 220
f 221 219 220
f 221 220 222
f 223 221 222
f 223 222 224
f 225 223 224
f 226 223 225
f 227 225 228
f 227 226 225
f 229 228 230
f 229 227 228
f 231 230 232
f 231 229 230
f 233 232 234
f 233 231 232
f 235 234 236
f 235 233 234
f 237 236 238
f 237 235 236
f 239 238 240
f 239 237 238
f 241 240 242
f 241 239 240
f 243 242 244
f 243 241 242
f 245 243 244
f 246 243 245
f 247 246 245
f 247 245 248
f 249 247 248
f 249 248 250
f 251 249 250
f 251 250 252
f 253 251 252
f 253 252 254
f 255 253 254
f 255 254 256
f 257 258 259
f 257 260 258
f 261 262 260
f 263 264 265
f 263 257 264
f 266 267 261
f 266 261 260
f 268 260 257
f 268 257 263
f 269 268 270
f 271 272 266
f 271 273 272
f 271 266 260
f 274 269 275
f 276 277 271
f 278 269 274
f 279 276 271
f 280 279 271
f 281 278 282
f 281 260 268
f 281 268 269
f 281 269 278
f 283 284 280
f 283 271 260
f 283 280 271
f 285 286 287
f 288 286 285
f 289 290 283
f 289 291 290
f 292 286 288
f 292 289 283
f 292 281 286
f 292 260 281
f 292 283 260

