# https://github.com/mikedh/trimesh
v 0.05488783 0.07380005 0.79304767
v 0.05562737 0.07380005 0.79303807
v 0.05136798 0.07380005 0.78367716
v 0.05065512 0.07380005 0.78383923
v 0.04554781 0.07380005 0.77519816
v 0.05746187 0.07380005 0.80285001
v 0.05819654 0.07380005 0.80299634
v 0.04489165 0.07380005 0.77550286
v 0.03834369 0.07380005 0.76785856
v 0.05829946 0.07380005 0.81295013
v 0.05899744 0.07380005 0.81324941
v 0.03777159 0.07380005 0.76829076
v 0.02997452 0.07380005 0.76188153
v 0.05737528 0.07380005 0.82304251
v 0.05800573 0.07380005 0.82348591
v 0.02951010 0.07380005 0.76242048
v 0.02069458 0.07380005 0.75744849
v 0.05471727 0.07380005 0.83282244
v 0.05525155 0.07380005 0.83339453
v 0.02035684 0.07380005 0.75806963
v 0.01078586 0.07380005 0.75469428
v 0.05040574 0.07380006 0.84199435
v 0.05081858 0.07380006 0.84267467
v 0.01058841 0.07380005 0.75536966
v 0.04457099 0.07380006 0.85028088
v 0.04484151 0.07380006 0.85104376
v 0.00054940 0.07380005 0.75370264
v 0.00050000 0.07380005 0.75440228
v -0.00050000 0.07380005 0.75440228
v -0.00050000 0.07380005 0.75450003
v 0.00050000 0.07380005 0.75450003
v 0.03738933 0.07380006 0.85743189
v 0.03750196 0.07380006 0.85824782
v -0.00970374 0.07380005 0.75450361
v 0.02907780 0.07380006 0.86323106
v 0.02902293 0.07380006 0.86406803
v -0.01966204 0.07380005 0.75707263
v -0.01058841 0.07380005 0.75536966
v -0.02035684 0.07380005 0.75806963
v 0.01988756 0.07380006 0.86750317
v 0.01966204 0.07380006 0.86832744
v -0.02902293 0.07380005 0.76133204
v -0.02951010 0.07380005 0.76242048
v 0.01009633 0.07380006 0.87011921
v 0.00970374 0.07380006 0.87089652
v -0.03750196 0.07380005 0.76715225
v -0.03777159 0.07380005 0.76829076
v 0.00000000 0.07380006 0.87100005
v -0.00054940 0.07380006 0.87169743
v -0.04484151 0.07380005 0.77435637
v -0.04489165 0.07380005 0.77550286
v -0.01009633 0.07380006 0.87011921
v -0.01078586 0.07380006 0.87070572
v -0.05081858 0.07380005 0.78272557
v -0.05065512 0.07380005 0.78383923
v -0.01988756 0.07380006 0.86750317
v -0.02069458 0.07380006 0.86795151
v -0.05525155 0.07380005 0.79200554
v -0.05488783 0.07380005 0.79304767
v -0.02907780 0.07380006 0.86323106
v -0.05800573 0.07380005 0.80191422
v -0.05746187 0.07380005 0.80285001
v -0.02997452 0.07380006 0.86351866
v -0.03738933 0.07380006 0.85743189
v -0.05899744 0.07380005 0.81215060
v -0.05829946 0.07380005 0.81295013
v -0.03834369 0.07380006 0.85754156
v -0.04457099 0.07380006 0.85028088
v -0.04554781 0.07380006 0.85020196
v -0.05819654 0.07380005 0.82240385
v -0.05737528 0.07380005 0.82304251
v -0.05040574 0.07380006 0.84199435
v -0.05136798 0.07380006 0.84172297
v -0.05471727 0.07380005 0.83282244
v -0.05562737 0.07380005 0.83236217
v -0.02997452 0.07380006 0.86351866
v -0.02070377 0.07280006 0.86797613
v -0.02069458 0.07380006 0.86795151
v -0.02998782 0.07280006 0.86354113
v -0.03836071 0.07280006 0.85756147
v -0.03834369 0.07380006 0.85754156
v -0.04556803 0.07280006 0.85021865
v -0.04554781 0.07380006 0.85020196
v -0.05139078 0.07280006 0.84173596
v -0.05136798 0.07380006 0.84172297
v -0.05565206 0.07280005 0.83237076
v -0.05562737 0.07380005 0.83236217
v -0.05822237 0.07280005 0.82240814
v -0.05819654 0.07380005 0.82240385
v -0.05902363 0.07280005 0.81215042
v -0.05899744 0.07380005 0.81215060
v -0.05803148 0.07280005 0.80190945
v -0.05800573 0.07380005 0.80191422
v -0.05527608 0.07280005 0.79199624
v -0.05525155 0.07380005 0.79200554
v -0.05084114 0.07280005 0.78271228
v -0.05081858 0.07380005 0.78272557
v -0.04486141 0.07280005 0.77433944
v -0.04484151 0.07380005 0.77435637
v -0.03751860 0.07280005 0.76713204
v -0.03750196 0.07380005 0.76715225
v -0.02903581 0.07280005 0.76130927
v -0.02902293 0.07380005 0.76133204
v -0.01967077 0.07280005 0.75704801
v -0.01966204 0.07380005 0.75707263
v -0.00970805 0.07280005 0.75447774
v -0.00970374 0.07380005 0.75450361
v 0.00054965 0.07280005 0.75367641
v 0.00054940 0.07380005 0.75370264
v 0.01079064 0.07280005 0.75466859
v 0.01078586 0.07380005 0.75469428
v 0.02070377 0.07280005 0.75742406
v 0.02069458 0.07380005 0.75744849
v 0.02998782 0.07280005 0.76185894
v 0.02997452 0.07380005 0.76188153
v 0.03836071 0.07280005 0.76783866
v 0.03834369 0.07380005 0.76785856
v 0.04556803 0.07280005 0.77518141
v 0.04554781 0.07380005 0.77519816
v 0.05139078 0.07280005 0.78366423
v 0.05136798 0.07380005 0.78367716
v 0.05565206 0.07280005 0.79302931
v 0.05562737 0.07380005 0.79303807
v 0.05822237 0.07280005 0.80299205
v 0.05819654 0.07380005 0.80299634
v 0.05902363 0.07280005 0.81324959
v 0.05899744 0.07380005 0.81324941
v 0.05800573 0.07380005 0.82348591
v 0.05803148 0.07280005 0.82349074
v 0.05525155 0.07380005 0.83339453
v 0.05527608 0.07280005 0.83340383
v 0.05084114 0.07280006 0.84268796
v 0.05081858 0.07380006 0.84267467
v 0.04484151 0.07380006 0.85104376
v 0.04486141 0.07280006 0.85106075
v 0.03751860 0.07280006 0.85826814
v 0.03750196 0.07380006 0.85824782
v 0.02903581 0.07280006 0.86409086
v 0.02902293 0.07380006 0.86406803
v 0.01967077 0.07280006 0.86835217
v 0.01966204 0.07380006 0.86832744
v 0.00970805 0.07280006 0.87092245
v 0.00970374 0.07380006 0.87089652
v -0.00054965 0.07280006 0.87172359
v -0.00054940 0.07380006 0.87169743
v -0.01078586 0.07380006 0.87070572
v -0.01079064 0.07280006 0.87073153
v -0.02070377 0.07280006 0.86797613
v -0.02069458 0.07380006 0.86795151
f 1 2 3
f 4 1 3
f 5 4 3
f 6 7 2
f 6 2 1
f 8 4 5
f 9 8 5
f 10 11 7
f 10 7 6
f 12 8 9
f 13 12 9
f 14 15 11
f 14 11 10
f 16 12 13
f 17 16 13
f 18 19 15
f 18 15 14
f 20 16 17
f 21 20 17
f 22 19 18
f 22 23 19
f 24 20 21
f 25 23 22
f 26 23 25
f 27 24 21
f 28 24 27
f 29 28 27
f 30 31 28
f 30 28 29
f 32 26 25
f 33 26 32
f 34 29 27
f 35 33 32
f 36 33 35
f 37 38 34
f 39 38 37
f 40 36 35
f 41 36 40
f 42 39 37
f 43 39 42
f 44 41 40
f 45 41 44
f 46 43 42
f 47 43 46
f 48 45 44
f 49 45 48
f 50 47 46
f 51 47 50
f 52 49 48
f 53 49 52
f 54 51 50
f 55 51 54
f 56 53 52
f 57 53 56
f 58 55 54
f 59 55 58
f 60 57 56
f 61 62 59
f 61 59 58
f 63 57 60
f 64 63 60
f 65 62 61
f 65 66 62
f 67 63 64
f 68 67 64
f 69 67 68
f 70 66 65
f 70 71 66
f 72 69 68
f 73 69 72
f 73 72 74
f 75 71 70
f 75 73 74
f 75 74 71
f 29 34 38
f 76 77 78
f 79 77 76
f 80 76 81
f 80 79 76
f 82 81 83
f 82 80 81
f 84 83 85
f 84 82 83
f 86 85 87
f 86 84 85
f 88 87 89
f 88 86 87
f 90 88 89
f 90 89 91
f 92 90 91
f 92 91 93
f 94 92 93
f 94 93 95
f 96 94 95
f 96 95 97
f 98 96 97
f 98 97 99
f 100 98 99
f 100 99 101
f 102 100 101
f 102 101 103
f 104 102 103
f 104 103 105
f 106 104 105
f 106 105 107
f 108 106 107
f 108 107 109
f 110 108 109
f 110 109 111
f 112 110 111
f 112 111 113
f 114 112 113
f 114 113 115
f 116 114 115
f 116 115 117
f 118 117 119
f 118 116 117
f 120 119 121
f 120 118 119
f 122 121 123
f 122 120 121
f 124 123 125
f 124 122 123
f 126 125 127
f 126 124 125
f 128 126 127
f 129 126 128
f 130 129 128
f 131 129 130
f 132 130 133
f 132 131 130
f 134 132 133
f 135 132 134
f 136 134 137
f 136 135 134
f 138 137 139
f 138 136 137
f 140 138 139
f 140 139 141
f 142 140 141
f 142 141 143
f 144 142 143
f 144 143 145
f 146 144 145
f 147 144 146
f 148 147 146
f 148 146 149

