# https://github.com/mikedh/trimesh
v 0.04853046 0.05783636 0.08850003
v 0.04874901 0.05830552 0.08850003
v 0.05813305 0.04895455 0.08850004
v 0.05783636 0.04853047 0.08850004
v 0.06575075 0.03811613 0.08850004
v 0.03775000 0.06538492 0.08850003
v 0.03788375 0.06588491 0.08850003
v 0.06538492 0.03774999 0.08850004
v 0.07137065 0.02611956 0.08850004
v 0.02582252 0.07094679 0.08850003
v 0.02586742 0.07146242 0.08850003
v 0.07094681 0.02582252 0.08850004
v 0.07482199 0.01332936 0.08850004
v 0.01311044 0.07435299 0.08850003
v 0.01306512 0.07486857 0.08850003
v 0.07435299 0.01311044 0.08850004
v 0.07599988 0.00013416 0.08850004
v 0.00000000 0.07550000 0.08850003
v -0.00013416 0.07599988 0.08850003
v 0.07550000 -0.00000001 0.08850004
v 0.07486857 -0.01306511 0.08850004
v -0.01311044 0.07435299 0.08850003
v -0.01332936 0.07482197 0.08850003
v 0.07435299 -0.01311043 0.08850004
v 0.07146242 -0.02586742 0.08850004
v -0.02582252 0.07094679 0.08850003
v -0.02611956 0.07137064 0.08850003
v 0.07094681 -0.02582253 0.08850004
v 0.06588491 -0.03788377 0.08850004
v -0.03775000 0.06538492 0.08850003
v -0.03811613 0.06575075 0.08850003
v 0.06538492 -0.03775001 0.08850004
v -0.04853046 0.05783636 0.08850003
v 0.05830552 -0.04874901 0.08850004
v -0.04895455 0.05813305 0.08850003
v 0.05783636 -0.04853047 0.08850004
v -0.05783636 0.04853047 0.08850004
v 0.04895455 -0.05813305 0.08850005
v -0.05830552 0.04874900 0.08850004
v 0.04853046 -0.05783636 0.08850005
v -0.06538492 0.03774999 0.08850004
v 0.03811613 -0.06575076 0.08850005
v 0.03775000 -0.06538494 0.08850005
v -0.06588491 0.03788375 0.08850004
v -0.07094681 0.02582252 0.08850004
v 0.02611956 -0.07137066 0.08850005
v 0.02582252 -0.07094681 0.08850005
v -0.07146242 0.02586741 0.08850004
v -0.07435299 0.01311044 0.08850004
v 0.01332936 -0.07482199 0.08850005
v 0.01311044 -0.07435299 0.08850005
v -0.07486857 0.01306512 0.08850004
v -0.07550000 -0.00000001 0.08850004
v 0.00013416 -0.07599991 0.08850005
v 0.00000000 -0.07550000 0.08850005
v -0.07599988 -0.00013416 0.08850004
v -0.07435299 -0.01311043 0.08850004
v -0.01306512 -0.07486859 0.08850005
v -0.01311044 -0.07435299 0.08850005
v -0.07482199 -0.01332937 0.08850004
v -0.07094681 -0.02582253 0.08850004
v -0.02586742 -0.07146244 0.08850005
v -0.02582252 -0.07094681 0.08850005
v -0.07137065 -0.02611956 0.08850004
v -0.06538492 -0.03775001 0.08850004
v -0.03788375 -0.06588491 0.08850005
v -0.03775000 -0.06538494 0.08850005
v -0.06575075 -0.03811612 0.08850004
v -0.05783636 -0.04853047 0.08850004
v -0.04874901 -0.05830553 0.08850005
v -0.04853046 -0.05783636 0.08850005
v -0.05813305 -0.04895457 0.08850004
v -0.05060535 0.05602989 0.08950002
v -0.04895455 0.05813305 0.08950002
v -0.05830552 0.04874900 0.08950003
v -0.05956603 0.04639114 0.08950003
v -0.04010705 0.06396620 0.08950002
v -0.03811613 0.06575075 0.08950002
v -0.06588491 0.03788375 0.08950003
v -0.06671683 0.03534281 0.08950003
v -0.02839012 0.06995892 0.08950002
v -0.02611956 0.07137064 0.08950002
v -0.07146242 0.02586741 0.08950003
v -0.07184047 0.02322064 0.08950003
v -0.01581057 0.07382599 0.08950002
v -0.01332936 0.07482197 0.08950002
v -0.07486857 0.01306512 0.08950003
v -0.07478128 0.01039289 0.08950003
v -0.00275063 0.07544988 0.08950002
v -0.00013416 0.07599988 0.08950002
v -0.07599988 -0.00013416 0.08950003
v -0.07544988 -0.00275063 0.08950003
v 0.01039289 0.07478126 0.08950002
v 0.01306512 0.07486857 0.08950002
v -0.07482199 -0.01332937 0.08950003
v -0.07382599 -0.01581058 0.08950003
v 0.02322063 0.07184047 0.08950002
v 0.02586742 0.07146242 0.08950002
v -0.07137065 -0.02611956 0.08950003
v -0.06995893 -0.02839013 0.08950003
v 0.03534282 0.06671682 0.08950002
v 0.03788375 0.06588491 0.08950002
v -0.06575075 -0.03811612 0.08950003
v -0.06396619 -0.04010706 0.08950003
v 0.04639114 0.05956603 0.08950002
v 0.04874901 0.05830552 0.08950002
v -0.05813305 -0.04895457 0.08950003
v -0.05602989 -0.05060535 0.08950004
v 0.05602989 0.05060534 0.08950002
v 0.05813305 0.04895455 0.08950003
v -0.04874901 -0.05830553 0.08950004
v -0.04639114 -0.05956604 0.08950004
v 0.06396619 0.04010705 0.08950003
v 0.06575075 0.03811613 0.08950003
v -0.03788375 -0.06588491 0.08950004
v -0.03534282 -0.06671684 0.08950004
v 0.06995893 0.02839012 0.08950003
v 0.07137065 0.02611956 0.08950003
v -0.02586742 -0.07146244 0.08950004
v -0.02322063 -0.07184049 0.08950004
v 0.07382599 0.01581057 0.08950003
v 0.07482199 0.01332936 0.08950003
v -0.01306512 -0.07486859 0.08950004
v -0.01039289 -0.07478128 0.08950004
v 0.07544988 0.00275062 0.08950003
v 0.07599988 0.00013416 0.08950003
v 0.00013416 -0.07599991 0.08950004
v 0.00275063 -0.07544988 0.08950004
v 0.07478128 -0.01039289 0.08950003
v 0.07486857 -0.01306511 0.08950003
v 0.01332936 -0.07482199 0.08950004
v 0.01581057 -0.07382599 0.08950004
v 0.07184047 -0.02322063 0.08950003
v 0.07146242 -0.02586742 0.08950003
v 0.02611956 -0.07137066 0.08950004
v 0.02839012 -0.06995893 0.08950004
v 0.06671683 -0.03534282 0.08950003
v 0.06588491 -0.03788377 0.08950003
v 0.03811613 -0.06575076 0.08950004
v 0.04010705 -0.06396620 0.08950004
v 0.05956603 -0.04639116 0.08950003
v 0.05830552 -0.04874901 0.08950003
v 0.05060535 -0.05602990 0.08950004
v 0.04895455 -0.05813305 0.08950004
v -0.07180021 0.01252966 0.09550004
v -0.07288516 -0.00012867 0.09550004
v -0.07286770 -0.00012864 0.09650003
v -0.07178302 0.01252667 0.09650003
v -0.06853366 0.02480729 0.09550004
v -0.06851725 0.02480134 0.09650003
v -0.06318473 0.03633116 0.09550004
v -0.06316961 0.03632244 0.09650003
v -0.05591597 0.04675111 0.09550004
v -0.05590258 0.04673991 0.09650003
v -0.04694823 0.05575056 0.09550003
v -0.04693699 0.05573721 0.09650002
v -0.03655400 0.06305606 0.09550003
v -0.03654525 0.06304096 0.09650002
v -0.02504910 0.06844565 0.09550003
v -0.02504310 0.06842925 0.09650002
v -0.01278308 0.07175554 0.09550003
v -0.01278002 0.07173834 0.09650002
v -0.00012866 0.07288516 0.09550003
v -0.00012863 0.07286770 0.09650002
v 0.01252967 0.07180021 0.09550003
v 0.01252667 0.07178302 0.09650002
v 0.02480729 0.06853365 0.09550003
v 0.02480135 0.06851723 0.09650002
v 0.03633115 0.06318472 0.09550003
v 0.03632245 0.06316959 0.09650002
v 0.04675111 0.05591596 0.09550003
v 0.04673992 0.05590258 0.09650002
v 0.05575056 0.04694824 0.09550004
v 0.05573721 0.04693699 0.09650003
v 0.06305607 0.03655399 0.09550004
v 0.06304096 0.03654525 0.09650003
v 0.06844565 0.02504910 0.09550004
v 0.06842925 0.02504309 0.09650003
v 0.07175554 0.01278308 0.09550004
v 0.07173835 0.01278002 0.09650003
v 0.07288516 0.00012865 0.09550004
v 0.07286770 0.00012862 0.09650003
v 0.07180021 -0.01252967 0.09550004
v 0.07178302 -0.01252666 0.09650003
v 0.06853366 -0.02480729 0.09550004
v 0.06851725 -0.02480135 0.09650003
v 0.06318473 -0.03633115 0.09550004
v 0.06316961 -0.03632246 0.09650003
v 0.05591597 -0.04675112 0.09550004
v 0.05590258 -0.04673992 0.09650003
v 0.04694823 -0.05575057 0.09550004
v 0.04693699 -0.05573722 0.09650004
v 0.03655400 -0.06305607 0.09550004
v 0.03654525 -0.06304096 0.09650004
v 0.02504910 -0.06844565 0.09550004
v 0.02504310 -0.06842925 0.09650004
v 0.01278308 -0.07175553 0.09550004
v 0.01278002 -0.07173834 0.09650004
v 0.00012866 -0.07288516 0.09550004
v 0.00012863 -0.07286770 0.09650004
v -0.01252967 -0.07180022 0.09550004
v -0.01252667 -0.07178301 0.09650004
v -0.02480729 -0.06853366 0.09550004
v -0.02480135 -0.06851725 0.09650004
v -0.03633115 -0.06318473 0.09550004
v -0.03632245 -0.06316960 0.09650004
v -0.04675111 -0.05591598 0.09550004
v -0.04673992 -0.05590259 0.09650004
v -0.05575056 -0.04694823 0.09550004
v -0.05573721 -0.04693701 0.09650003
v -0.06305607 -0.03655400 0.09550004
v -0.06304096 -0.03654525 0.09650003
v -0.06842925 -0.02504310 0.09650003
v -0.06844565 -0.02504909 0.09550004
v -0.07175554 -0.01278309 0.09550004
v -0.07173835 -0.01278002 0.09650003
v -0.07286770 -0.00012864 0.09650003
v -0.07288516 -0.00012867 0.09550004
v -0.07486857 0.01306512 0.08850004
v -0.07599988 -0.00013416 0.08850004
v -0.07599988 -0.00013416 0.08950003
v -0.07486857 0.01306512 0.08950003
v -0.07146242 0.02586741 0.08850004
v -0.07146242 0.02586741 0.08950003
v -0.06588491 0.03788375 0.08850004
v -0.06588491 0.03788375 0.08950003
v -0.05830552 0.04874900 0.08850004
v -0.05830552 0.04874900 0.08950003
v -0.04895455 0.05813305 0.08850003
v -0.04895455 0.05813305 0.08950002
v -0.03811613 0.06575075 0.08850003
v -0.03811613 0.06575075 0.08950002
v -0.02611956 0.07137064 0.08950002
v -0.02611956 0.07137064 0.08850003
v -0.01332936 0.07482197 0.08850003
v -0.01332936 0.07482197 0.08950002
v -0.00013416 0.07599988 0.08850003
v -0.00013416 0.07599988 0.08950002
v 0.01306512 0.07486857 0.08950002
v 0.01306512 0.07486857 0.08850003
v 0.02586742 0.07146242 0.08850003
v 0.02586742 0.07146242 0.08950002
v 0.03788375 0.06588491 0.08850003
v 0.03788375 0.06588491 0.08950002
v 0.04874901 0.05830552 0.08850003
v 0.04874901 0.05830552 0.08950002
v 0.05813305 0.04895455 0.08850004
v 0.05813305 0.04895455 0.08950003
v 0.06575075 0.03811613 0.08850004
v 0.06575075 0.03811613 0.08950003
v 0.07137065 0.02611956 0.08850004
v 0.07137065 0.02611956 0.08950003
v 0.07482199 0.01332936 0.08850004
v 0.07482199 0.01332936 0.08950003
v 0.07599988 0.00013416 0.08850004
v 0.07599988 0.00013416 0.08950003
v 0.07486857 -0.01306511 0.08850004
v 0.07486857 -0.01306511 0.08950003
v 0.07146242 -0.02586742 0.08850004
v 0.07146242 -0.02586742 0.08950003
v 0.06588491 -0.03788377 0.08850004
v 0.06588491 -0.03788377 0.08950003
v 0.05830552 -0.04874901 0.08850004
v 0.05830552 -0.04874901 0.08950003
v 0.04895455 -0.05813305 0.08850005
v 0.04895455 -0.05813305 0.08950004
v 0.03811613 -0.06575076 0.08850005
v 0.03811613 -0.06575076 0.08950004
v 0.02611956 -0.07137066 0.08850005
v 0.02611956 -0.07137066 0.08950004
v 0.01332936 -0.07482199 0.08850005
v 0.01332936 -0.07482199 0.08950004
v 0.00013416 -0.07599991 0.08850005
v 0.00013416 -0.07599991 0.08950004
v -0.01306512 -0.07486859 0.08850005
v -0.01306512 -0.07486859 0.08950004
v -0.02586742 -0.07146244 0.08850005
v -0.02586742 -0.07146244 0.08950004
v -0.03788375 -0.06588491 0.08850005
v -0.03788375 -0.06588491 0.08950004
v -0.04874901 -0.05830553 0.08850005
v -0.04874901 -0.05830553 0.08950004
v -0.05813305 -0.04895457 0.08850004
v -0.05813305 -0.04895457 0.08950003
v -0.06575075 -0.03811612 0.08850004
v -0.06575075 -0.03811612 0.08950003
v -0.07137065 -0.02611956 0.08850004
v -0.07137065 -0.02611956 0.08950003
v -0.07482199 -0.01332937 0.08850004
v -0.07482199 -0.01332937 0.08950003
v -0.07599988 -0.00013416 0.08950003
v -0.07599988 -0.00013416 0.08850004
f 1 2 3
f 4 1 3
f 5 4 3
f 6 7 2
f 6 2 1
f 8 4 5
f 9 8 5
f 10 11 7
f 10 7 6
f 12 8 9
f 13 12 9
f 14 15 11
f 14 11 10
f 16 12 13
f 17 16 13
f 18 19 15
f 18 15 14
f 20 16 17
f 21 20 17
f 22 19 18
f 22 23 19
f 24 20 21
f 25 24 21
f 26 27 23
f 26 23 22
f 28 24 25
f 29 28 25
f 30 31 27
f 30 27 26
f 32 28 29
f 33 31 30
f 34 32 29
f 35 31 33
f 36 32 34
f 37 35 33
f 38 36 34
f 39 35 37
f 40 36 38
f 41 39 37
f 42 40 38
f 42 43 40
f 44 39 41
f 45 44 41
f 46 43 42
f 46 47 43
f 48 44 45
f 49 48 45
f 50 51 47
f 50 47 46
f 52 48 49
f 53 52 49
f 54 55 51
f 54 51 50
f 56 52 53
f 57 56 53
f 58 59 55
f 58 55 54
f 60 56 57
f 61 60 57
f 62 63 59
f 62 59 58
f 64 60 61
f 65 64 61
f 66 67 63
f 66 63 62
f 68 64 65
f 69 68 65
f 70 67 66
f 70 71 67
f 72 71 70
f 72 68 69
f 72 69 71
f 73 74 75
f 76 73 75
f 77 74 73
f 78 74 77
f 79 76 75
f 80 76 79
f 81 78 77
f 82 78 81
f 83 80 79
f 84 80 83
f 85 82 81
f 86 82 85
f 87 84 83
f 88 84 87
f 89 86 85
f 90 86 89
f 91 88 87
f 92 88 91
f 93 90 89
f 94 90 93
f 95 92 91
f 96 92 95
f 97 94 93
f 98 94 97
f 99 96 95
f 100 96 99
f 101 98 97
f 102 98 101
f 103 100 99
f 104 100 103
f 105 102 101
f 106 102 105
f 107 104 103
f 108 104 107
f 109 106 105
f 110 106 109
f 111 108 107
f 112 108 111
f 113 110 109
f 114 110 113
f 115 112 111
f 116 112 115
f 117 114 113
f 118 114 117
f 119 116 115
f 120 116 119
f 121 118 117
f 122 118 121
f 123 120 119
f 124 120 123
f 125 122 121
f 126 122 125
f 127 124 123
f 128 124 127
f 129 126 125
f 130 126 129
f 131 128 127
f 132 128 131
f 133 130 129
f 134 130 133
f 135 132 131
f 136 132 135
f 137 134 133
f 138 134 137
f 139 136 135
f 140 136 139
f 141 138 137
f 142 138 141
f 142 141 143
f 144 140 139
f 144 142 143
f 144 143 140
f 145 146 147
f 145 147 148
f 149 148 150
f 149 145 148
f 151 150 152
f 151 149 150
f 153 152 154
f 153 151 152
f 155 154 156
f 155 153 154
f 157 156 158
f 157 155 156
f 159 157 158
f 159 158 160
f 161 159 160
f 161 160 162
f 163 161 162
f 163 162 164
f 165 163 164
f 165 164 166
f 167 165 166
f 167 166 168
f 169 167 168
f 169 168 170
f 171 169 170
f 171 170 172
f 173 171 172
f 173 172 174
f 175 173 174
f 175 174 176
f 177 175 176
f 177 176 178
f 179 177 178
f 179 178 180
f 181 179 180
f 181 180 182
f 183 181 182
f 183 182 184
f 185 184 186
f 185 183 184
f 187 186 188
f 187 185 186
f 189 188 190
f 189 187 188
f 191 190 192
f 191 189 190
f 193 192 194
f 193 191 192
f 195 194 196
f 195 193 194
f 197 196 198
f 197 195 196
f 199 198 200
f 199 197 198
f 201 200 202
f 201 199 200
f 203 202 204
f 203 201 202
f 205 204 206
f 205 203 204
f 207 206 208
f 207 205 206
f 209 207 208
f 209 208 210
f 211 209 210
f 211 210 212
f 213 211 212
f 214 211 213
f 215 214 213
f 215 213 216
f 217 215 216
f 218 215 217
f 219 220 221
f 219 221 222
f 223 222 224
f 223 219 222
f 225 224 226
f 225 223 224
f 227 226 228
f 227 225 226
f 229 228 230
f 229 227 228
f 231 229 230
f 231 230 232
f 231 232 233
f 234 231 233
f 235 234 233
f 235 233 236
f 237 235 236
f 237 236 238
f 237 238 239
f 240 237 239
f 241 240 239
f 241 239 242
f 243 241 242
f 243 242 244
f 245 243 244
f 245 244 246
f 247 245 246
f 247 246 248
f 249 247 248
f 249 248 250
f 251 249 250
f 251 250 252
f 253 251 252
f 253 252 254
f 255 253 254
f 255 254 256
f 257 255 256
f 257 256 258
f 259 257 258
f 259 258 260
f 261 260 262
f 261 259 260
f 263 262 264
f 263 261 262
f 265 264 266
f 265 263 264
f 267 266 268
f 267 265 266
f 269 268 270
f 269 267 268
f 271 270 272
f 271 269 270
f 273 272 274
f 273 271 272
f 275 274 276
f 275 273 274
f 277 276 278
f 277 275 276
f 279 278 280
f 279 277 278
f 281 279 280
f 281 280 282
f 283 281 282
f 283 282 284
f 285 283 284
f 285 284 286
f 287 285 286
f 287 286 288
f 289 287 288
f 289 288 290
f 289 290 291
f 292 289 291

