# https://github.com/mikedh/trimesh
v -0.00024999 -0.06900006 0.93354988
v 0.00025001 -0.06600004 0.93354988
v -0.00024999 -0.06600004 0.93354988
v 0.00025001 -0.06900006 0.93354988
v 0.00025000 -0.05645060 0.93521672
v 0.00025000 -0.05200004 0.93654990
v 0.00025000 -0.05653524 0.93499112
v 0.00025000 -0.05200010 0.93674922
v 0.00025001 -0.06123518 0.93418491
v 0.00025001 -0.06122434 0.93398631
v 0.00025001 -0.06600004 0.93374920
v 0.00025001 -0.06600004 0.93354988
v 0.00025001 -0.06900006 0.93374920
v 0.00025001 -0.06900006 0.93354988
v 0.00025001 -0.06122434 0.93398631
v -0.00024999 -0.06600004 0.93354988
v 0.00025001 -0.06600004 0.93354988
v -0.00024999 -0.06122434 0.93398631
v 0.00025000 -0.05653524 0.93499112
v -0.00025000 -0.05653524 0.93499112
v 0.00025000 -0.05200004 0.93654990
v -0.00025000 -0.05200004 0.93654990
v -0.00025000 -0.05645060 0.93521672
v -0.00025000 -0.05200004 0.93654990
v -0.00025000 -0.05200010 0.93674922
v -0.00025000 -0.05653524 0.93499112
v -0.00024999 -0.06123518 0.93418491
v -0.00024999 -0.06122434 0.93398631
v -0.00024999 -0.06600004 0.93374920
v -0.00024999 -0.06600004 0.93354988
v -0.00024999 -0.06900006 0.93354988
v -0.00024999 -0.06900006 0.93374920
v 0.00025001 -0.06900006 0.83644992
v 0.00025001 -0.06900006 0.83625060
v 0.00868410 -0.06900006 0.83702958
v 0.01685601 -0.06900006 0.83925670
v 0.02451915 -0.06900006 0.84286469
v 0.03144217 -0.06900006 0.84774470
v 0.03741599 -0.06900006 0.85374922
v 0.04226035 -0.06900006 0.86069709
v 0.04582894 -0.06900005 0.86837858
v 0.04801417 -0.06900005 0.87656188
v 0.04874999 -0.06900005 0.88499987
v -0.00868409 -0.06900006 0.83702958
v -0.00024999 -0.06900006 0.83625060
v -0.00024999 -0.06900006 0.83644992
v -0.01685600 -0.06900006 0.83925670
v -0.02451913 -0.06900006 0.84286469
v -0.03144215 -0.06900006 0.84774470
v -0.03741597 -0.06900006 0.85374922
v -0.04226033 -0.06900006 0.86069709
v -0.04582892 -0.06900007 0.86837858
v -0.04801415 -0.06900007 0.87656188
v 0.00025001 -0.06900006 0.93354988
v 0.04801417 -0.06900005 0.89343792
v 0.04582894 -0.06900005 0.90162122
v 0.04226035 -0.06900006 0.90930271
v 0.03741599 -0.06900006 0.91625059
v 0.03144217 -0.06900006 0.92225510
v 0.02451915 -0.06900006 0.92713511
v 0.01685601 -0.06900006 0.93074298
v 0.00868410 -0.06900006 0.93297023
v 0.00025001 -0.06900006 0.93374920
v -0.04874997 -0.06900007 0.88499987
v -0.00024999 -0.06900006 0.93354988
v -0.04801415 -0.06900007 0.89343792
v -0.00868409 -0.06900006 0.93297023
v -0.00024999 -0.06900006 0.93374920
v -0.04582892 -0.06900007 0.90162122
v -0.01685600 -0.06900006 0.93074298
v -0.04226033 -0.06900006 0.90930271
v -0.02451913 -0.06900006 0.92713511
v -0.03741597 -0.06900006 0.91625059
v -0.03144215 -0.06900006 0.92225510
v -0.00799632 -0.05200004 0.83691013
v -0.00025000 -0.05200004 0.83625060
v -0.00024999 -0.06900006 0.83625060
v -0.00868409 -0.06900006 0.83702958
v -0.01553934 -0.05200004 0.83879280
v -0.01685600 -0.06900006 0.83925670
v -0.02268713 -0.05200004 0.84185058
v -0.02451913 -0.06900006 0.84286469
v -0.02925795 -0.05200004 0.84600592
v -0.03144215 -0.06900006 0.84774470
v -0.03508466 -0.05200004 0.85115272
v -0.03741597 -0.06900006 0.85374922
v -0.04001909 -0.05200004 0.85716051
v -0.04226033 -0.06900006 0.86069709
v -0.04393570 -0.05200004 0.86387622
v -0.04582892 -0.06900007 0.86837858
v -0.04673504 -0.05200004 0.87112910
v -0.04801415 -0.06900007 0.87656188
v -0.04872690 -0.06600004 0.88649988
v -0.04874997 -0.06900007 0.88499987
v -0.04801415 -0.06900007 0.89343792
v -0.04834574 -0.05200004 0.87873483
v -0.04776542 -0.06600004 0.89474797
v -0.04582892 -0.06900007 0.90162122
v -0.04872691 -0.05200004 0.88649988
v -0.04541801 -0.06600004 0.90271318
v -0.04226033 -0.06900006 0.90930271
v -0.04175286 -0.06600004 0.91016448
v -0.03741597 -0.06900006 0.91625059
v -0.03687625 -0.06600004 0.91688567
v -0.03144215 -0.06900006 0.92225510
v -0.03092968 -0.06600004 0.92268169
v -0.02451913 -0.06900006 0.92713511
v -0.02408564 -0.06600004 0.92738432
v -0.01685600 -0.06900006 0.93074298
v -0.01654284 -0.06600004 0.93085730
v -0.00868409 -0.06900006 0.93297023
v -0.00852000 -0.06600004 0.93299961
v -0.00024999 -0.06900006 0.93374920
v -0.00024999 -0.06600004 0.93374920
v -0.00025000 -0.05645060 0.93521672
v -0.00025000 -0.05200010 0.93674922
v -0.00797742 -0.05209243 0.93609267
v -0.04848514 -0.06530350 0.89033443
v -0.04872690 -0.06600004 0.88649988
v -0.04776542 -0.06600004 0.89474797
v -0.04869376 -0.06272603 0.89035732
v -0.04874955 -0.06410456 0.88819391
v -0.04874586 -0.06482184 0.88737983
v -0.04873870 -0.06530303 0.88695180
v -0.04873286 -0.06564093 0.88670802
v -0.04799741 -0.06272591 0.89479530
v -0.04788589 -0.05995696 0.89713770
v -0.04844737 -0.06130308 0.89342880
v -0.04779260 -0.06530350 0.89475352
v -0.04645019 -0.05995708 0.90181541
v -0.04672163 -0.05853855 0.90191370
v -0.04606139 -0.06272591 0.90167469
v -0.04541801 -0.06600004 0.90271318
v -0.04421591 -0.05995708 0.90703022
v -0.04476505 -0.05719435 0.90730381
v -0.04283553 -0.05719442 0.91081703
v -0.04270130 -0.05626946 0.91151923
v -0.04384582 -0.06272591 0.90684581
v -0.04175286 -0.06600004 0.91016448
v -0.04230982 -0.05995708 0.91050023
v -0.03972792 -0.05719442 0.91538250
v -0.04012477 -0.05543315 0.91568601
v -0.04195563 -0.06272590 0.91028672
v -0.04177664 -0.06530350 0.91017878
v -0.03924036 -0.05995708 0.91500962
v -0.03659552 -0.05719442 0.91909063
v -0.03713005 -0.05470824 0.91958851
v -0.03891187 -0.06272590 0.91475838
v -0.03687625 -0.06600004 0.91688567
v -0.03359866 -0.05470872 0.92303008
v -0.03373855 -0.05408340 0.92318851
v -0.03614639 -0.05995708 0.91867220
v -0.03311395 -0.05719442 0.92248148
v -0.03584384 -0.06272590 0.91839027
v -0.02973448 -0.05470872 0.92612201
v -0.02997075 -0.05354732 0.92644870
v -0.03270756 -0.05995708 0.92202151
v -0.02930550 -0.05719442 0.92552882
v -0.03243380 -0.06272590 0.92171162
v -0.02527259 -0.05470872 0.92900521
v -0.02556264 -0.05306482 0.92951018
v -0.02894585 -0.05995708 0.92503142
v -0.03229539 -0.06530350 0.92155498
v -0.03092968 -0.06600004 0.92268169
v -0.02490800 -0.05719442 0.92837042
v -0.02870362 -0.06272590 0.92469633
v -0.02460234 -0.05995708 0.92783809
v -0.02018129 -0.05470871 0.93156040
v -0.02047628 -0.05265152 0.93224102
v -0.01989011 -0.05719441 0.93088877
v -0.02439640 -0.06272590 0.92747951
v -0.02429228 -0.06530350 0.92729831
v -0.02408564 -0.06600004 0.92738432
v -0.01524096 -0.05470871 0.93340319
v -0.01549816 -0.05236113 0.93422067
v -0.01964603 -0.05995708 0.93032563
v -0.01502108 -0.05719441 0.93270499
v -0.01948158 -0.06272590 0.92994618
v -0.01654284 -0.06600004 0.93085730
v -0.01483671 -0.05995708 0.93211949
v -0.00886887 -0.05470871 0.93496501
v -0.01471256 -0.06272590 0.93172508
v -0.00852000 -0.06600004 0.93299961
v -0.00874090 -0.05719441 0.93424422
v -0.00863367 -0.05995708 0.93363988
v -0.00024999 -0.06123518 0.93418491
v -0.00856137 -0.06272590 0.93323272
v -0.00024999 -0.06600004 0.93374920
v -0.00852483 -0.06530350 0.93302691
v -0.00024999 -0.06900006 0.83625060
v -0.00025000 -0.05200004 0.83644992
v -0.00024999 -0.06900006 0.83644992
v -0.00025000 -0.05200004 0.83625060
v -0.00024999 -0.06900006 0.83644992
v 0.00025000 -0.05200004 0.83644992
v 0.00025001 -0.06900006 0.83644992
v -0.00025000 -0.05200004 0.83644992
v 0.00025001 -0.06900006 0.83644992
v 0.00025000 -0.05200004 0.83625060
v 0.00025001 -0.06900006 0.83625060
v 0.00025000 -0.05200004 0.83644992
v 0.00799632 -0.05200004 0.93608958
v 0.00322801 -0.05201488 0.93664283
v 0.00619245 -0.05205518 0.93635488
v 0.01133370 -0.05218875 0.93541402
v 0.01553934 -0.05200004 0.93420690
v 0.01636099 -0.05240440 0.93392241
v 0.02268713 -0.05200003 0.93114913
v 0.02121865 -0.05270385 0.93188977
v 0.02582395 -0.05308907 0.92934787
v 0.02925795 -0.05200003 0.92699391
v 0.03013170 -0.05356687 0.92632258
v 0.03508466 -0.05200003 0.92184699
v 0.03410094 -0.05414420 0.92283791
v 0.03766751 -0.05482393 0.91894609
v 0.04001909 -0.05200003 0.91583931
v 0.04078298 -0.05562072 0.91470653
v 0.04393571 -0.05200003 0.90912360
v 0.04342097 -0.05655670 0.91016209
v 0.04552811 -0.05763971 0.90542722
v 0.04673504 -0.05200003 0.90187061
v 0.04700613 -0.05881445 0.90091503
v 0.04834574 -0.05200003 0.89426488
v 0.04795002 -0.06007272 0.89678550
v 0.04847628 -0.06141430 0.89315689
v 0.04872691 -0.05200003 0.88649988
v 0.04873664 -0.06541985 0.88686222
v 0.04872692 -0.06600003 0.88649988
v 0.04874504 -0.06489937 0.88730443
v 0.04875005 -0.06426553 0.88799262
v 0.04874117 -0.06357263 0.88893461
v 0.04868888 -0.06268124 0.89044029
v 0.00025000 -0.05200010 0.93674922
v -0.04872691 -0.05200004 0.88649988
v -0.04869376 -0.06272603 0.89035732
v -0.04844737 -0.06130308 0.89342880
v -0.04874955 -0.06410456 0.88819391
v -0.04874586 -0.06482184 0.88737983
v -0.04873870 -0.06530303 0.88695180
v -0.04873286 -0.06564093 0.88670802
v -0.04872690 -0.06600004 0.88649988
v -0.04834574 -0.05200004 0.89426488
v -0.04788589 -0.05995696 0.89713770
v -0.04672163 -0.05853855 0.90191370
v -0.04673504 -0.05200004 0.90187061
v -0.04476505 -0.05719435 0.90730381
v -0.04393570 -0.05200004 0.90912360
v -0.04270130 -0.05626946 0.91151923
v -0.04001909 -0.05200004 0.91583931
v -0.04012477 -0.05543315 0.91568601
v -0.03713005 -0.05470824 0.91958851
v -0.03508466 -0.05200004 0.92184699
v -0.03373855 -0.05408340 0.92318851
v -0.02925795 -0.05200004 0.92699391
v -0.02997075 -0.05354732 0.92644870
v -0.02556264 -0.05306482 0.92951018
v -0.02268713 -0.05200004 0.93114913
v -0.02047628 -0.05265152 0.93224102
v -0.01553934 -0.05200004 0.93420690
v -0.01549816 -0.05236113 0.93422067
v -0.00799632 -0.05200004 0.93608958
v -0.00797742 -0.05209243 0.93609267
v -0.00025000 -0.05200010 0.93674922
v 0.00852001 -0.06600004 0.93299961
v 0.00025001 -0.06600004 0.93374920
v 0.00025001 -0.06900006 0.93374920
v 0.00868410 -0.06900006 0.93297023
v 0.01654286 -0.06600004 0.93085730
v 0.01685601 -0.06900006 0.93074298
v 0.02408565 -0.06600004 0.92738432
v 0.02451915 -0.06900006 0.92713511
v 0.03092969 -0.06600004 0.92268169
v 0.03144217 -0.06900006 0.92225510
v 0.03687627 -0.06600004 0.91688567
v 0.03741599 -0.06900006 0.91625059
v 0.04175288 -0.06600004 0.91016448
v 0.04226035 -0.06900006 0.90930271
v 0.04541803 -0.06600003 0.90271318
v 0.04582894 -0.06900005 0.90162122
v 0.04776544 -0.06600003 0.89474797
v 0.04801417 -0.06900005 0.89343792
v 0.04872692 -0.06600003 0.88649988
v 0.04874999 -0.06900005 0.88499987
v 0.04801417 -0.06900005 0.87656188
v 0.04834574 -0.05200003 0.87873483
v 0.04872691 -0.05200003 0.88649988
v 0.04673504 -0.05200003 0.87112910
v 0.04582894 -0.06900005 0.86837858
v 0.04393571 -0.05200003 0.86387622
v 0.04226035 -0.06900006 0.86069709
v 0.04001909 -0.05200003 0.85716051
v 0.03741599 -0.06900006 0.85374922
v 0.03508466 -0.05200003 0.85115272
v 0.03144217 -0.06900006 0.84774470
v 0.02925795 -0.05200003 0.84600592
v 0.02451915 -0.06900006 0.84286469
v 0.02268713 -0.05200003 0.84185058
v 0.01685601 -0.06900006 0.83925670
v 0.01553934 -0.05200004 0.83879280
v 0.00868410 -0.06900006 0.83702958
v 0.00799632 -0.05200004 0.83691013
v 0.00025001 -0.06900006 0.83625060
v 0.00025000 -0.05200004 0.83625060
v 0.00025000 -0.05645060 0.93521672
v 0.00322801 -0.05201488 0.93664283
v 0.00025000 -0.05200010 0.93674922
v 0.00607044 -0.05482435 0.93534338
v 0.01133370 -0.05218875 0.93541402
v 0.00619245 -0.05205518 0.93635488
v 0.00597382 -0.05763989 0.93454218
v 0.00025001 -0.06123518 0.93418491
v 0.01112222 -0.05482435 0.93447322
v 0.01636099 -0.05240440 0.93392241
v 0.00591135 -0.06007307 0.93402368
v 0.01094520 -0.05763989 0.93368590
v 0.00586498 -0.06268125 0.93363941
v 0.00025001 -0.06600004 0.93374920
v 0.00852001 -0.06600004 0.93299961
v 0.01608265 -0.05482435 0.93308997
v 0.02121865 -0.05270385 0.93188977
v 0.01083065 -0.06007307 0.93317640
v 0.01582671 -0.05763989 0.93232471
v 0.01074577 -0.06268125 0.93279880
v 0.02090568 -0.05482435 0.93119800
v 0.01566107 -0.06007307 0.93182951
v 0.02057297 -0.05763989 0.93046278
v 0.01553828 -0.06268125 0.93146241
v 0.02505315 -0.05482434 0.92908680
v 0.02582395 -0.05308907 0.92934787
v 0.02035766 -0.06007307 0.92998707
v 0.01546872 -0.06541764 0.93125421
v 0.01654286 -0.06600004 0.93085730
v 0.02465438 -0.05763989 0.92838520
v 0.02019810 -0.06268125 0.92963439
v 0.02408565 -0.06600004 0.92738432
v 0.02439642 -0.06007307 0.92793119
v 0.02987618 -0.05482434 0.92597222
v 0.03410094 -0.05414420 0.92283791
v 0.03013170 -0.05356687 0.92632258
v 0.02420521 -0.06268125 0.92759472
v 0.02940071 -0.05763989 0.92532021
v 0.02409673 -0.06541764 0.92740381
v 0.03394746 -0.05482434 0.92266798
v 0.03766751 -0.05482393 0.91894609
v 0.02909303 -0.06007307 0.92489821
v 0.02886498 -0.06268125 0.92458540
v 0.03092969 -0.06600004 0.92268169
v 0.03340722 -0.05763989 0.92206848
v 0.03305763 -0.06007307 0.92168063
v 0.03279847 -0.06268125 0.92139298
v 0.03706896 -0.05763989 0.91840672
v 0.04078298 -0.05562072 0.91470653
v 0.03668105 -0.06007307 0.91805708
v 0.03639352 -0.06268125 0.91779798
v 0.04033506 -0.05763989 0.91438031
v 0.03991299 -0.06007307 0.91407281
v 0.03623045 -0.06541764 0.91765112
v 0.03687627 -0.06600004 0.91688567
v 0.04273880 -0.05763989 0.91075867
v 0.04342097 -0.05655670 0.91016209
v 0.03960013 -0.06268125 0.91384488
v 0.04175288 -0.06600004 0.91016448
v 0.04229159 -0.06007307 0.91048920
v 0.04196006 -0.06268125 0.91028941
v 0.04177207 -0.06541764 0.91017598
v 0.04505217 -0.06007307 0.90521342
v 0.04700613 -0.05881445 0.90091503
v 0.04552811 -0.05763971 0.90542722
v 0.04469901 -0.06268124 0.90505493
v 0.04541803 -0.06600003 0.90271318
v 0.04677087 -0.06007307 0.90083539
v 0.04795002 -0.06007272 0.89678550
v 0.04640424 -0.06268124 0.90071118
v 0.04757584 -0.06268124 0.89669353
v 0.04847628 -0.06141430 0.89315689
v 0.04736269 -0.06541763 0.89664108
v 0.04776544 -0.06600003 0.89474797
v 0.04831266 -0.06268124 0.89312941
v 0.04868888 -0.06268124 0.89044029
v 0.04809624 -0.06541763 0.89309299
v 0.04861421 -0.06541763 0.88892430
v 0.04872692 -0.06600003 0.88649988
v 0.04873664 -0.06541985 0.88686222
v 0.04874504 -0.06489937 0.88730443
v 0.04875005 -0.06426553 0.88799262
v 0.04874117 -0.06357263 0.88893461
v 0.00025000 -0.05200004 0.83644992
v 0.04834574 -0.05200003 0.87873483
v 0.04673504 -0.05200003 0.87112910
v 0.04393571 -0.05200003 0.86387622
v 0.04001909 -0.05200003 0.85716051
v 0.03508466 -0.05200003 0.85115272
v 0.02925795 -0.05200003 0.84600592
v 0.02268713 -0.05200003 0.84185058
v 0.01553934 -0.05200004 0.83879280
v 0.00025000 -0.05200004 0.83644992
v 0.01553934 -0.05200004 0.83879280
v 0.00799632 -0.05200004 0.83691013
v 0.00799632 -0.05200004 0.83691013
v 0.00025000 -0.05200004 0.83625060
v 0.04872691 -0.05200003 0.88649988
v -0.00799632 -0.05200004 0.83691013
v -0.00025000 -0.05200004 0.83644992
v -0.00025000 -0.05200004 0.83625060
v -0.01553934 -0.05200004 0.83879280
v -0.00025000 -0.05200004 0.83644992
v -0.00799632 -0.05200004 0.83691013
v -0.02268713 -0.05200004 0.84185058
v -0.01553934 -0.05200004 0.83879280
v -0.02925795 -0.05200004 0.84600592
v -0.03508466 -0.05200004 0.85115272
v -0.04001909 -0.05200004 0.85716051
v -0.04393570 -0.05200004 0.86387622
v -0.04673504 -0.05200004 0.87112910
v -0.04834574 -0.05200004 0.87873483
v -0.04872691 -0.05200004 0.88649988
v 0.00025000 -0.05200004 0.93654990
v 0.00799632 -0.05200004 0.93608958
v 0.01553934 -0.05200004 0.93420690
v 0.00025000 -0.05200004 0.93654990
v 0.01553934 -0.05200004 0.93420690
v 0.02268713 -0.05200003 0.93114913
v 0.02925795 -0.05200003 0.92699391
v 0.03508466 -0.05200003 0.92184699
v 0.04001909 -0.05200003 0.91583931
v 0.04393571 -0.05200003 0.90912360
v 0.04673504 -0.05200003 0.90187061
v 0.04834574 -0.05200003 0.89426488
v 0.00025000 -0.05200010 0.93674922
v 0.00799632 -0.05200004 0.93608958
v 0.00025000 -0.05200004 0.93654990
v -0.00025000 -0.05200004 0.93654990
v -0.04834574 -0.05200004 0.89426488
v -0.00799632 -0.05200004 0.93608958
v -0.00025000 -0.05200010 0.93674922
v -0.00025000 -0.05200004 0.93654990
v -0.04673504 -0.05200004 0.90187061
v -0.01553934 -0.05200004 0.93420690
v -0.00799632 -0.05200004 0.93608958
v -0.00025000 -0.05200004 0.93654990
v -0.04393570 -0.05200004 0.90912360
v -0.02268713 -0.05200004 0.93114913
v -0.01553934 -0.05200004 0.93420690
v -0.04001909 -0.05200004 0.91583931
v -0.02925795 -0.05200004 0.92699391
v -0.03508466 -0.05200004 0.92184699
v 0.00025001 -0.08065003 0.81550002
v -0.00024999 -0.08065003 0.81850010
v 0.00025001 -0.08065003 0.81850010
v -0.00024999 -0.08065003 0.81550002
v -0.00024999 -0.07898318 0.82804948
v -0.00024999 -0.07765001 0.83250010
v -0.00024999 -0.07920879 0.82796490
v -0.00024999 -0.07745063 0.83249998
v -0.00024999 -0.08001500 0.82326490
v -0.00024999 -0.08021360 0.82327569
v -0.00024999 -0.08045065 0.81850010
v -0.00024999 -0.08065003 0.81850010
v -0.00024999 -0.08045065 0.81550002
v -0.00024999 -0.08065003 0.81550002
v -0.00024999 -0.08021360 0.82327569
v 0.00025001 -0.08065003 0.81850010
v -0.00024999 -0.08065003 0.81850010
v 0.00025001 -0.08021360 0.82327569
v -0.00024999 -0.07920879 0.82796490
v 0.00025001 -0.07920879 0.82796490
v -0.00024999 -0.07765001 0.83250010
v 0.00025001 -0.07765001 0.83250010
v 0.00025001 -0.07898318 0.82804948
v 0.00025001 -0.07765001 0.83250010
v 0.00025001 -0.07745063 0.83249998
v 0.00025001 -0.07920879 0.82796490
v 0.00025001 -0.08001500 0.82326490
v 0.00025001 -0.08021360 0.82327569
v 0.00025001 -0.08045065 0.81850010
v 0.00025001 -0.08065003 0.81850010
v 0.00025001 -0.08065003 0.81550002
v 0.00025001 -0.08045065 0.81550002
v -0.00024998 -0.17775001 0.81550002
v -0.00024998 -0.17794940 0.81550002
v -0.00868408 -0.17717031 0.81550002
v -0.01685599 -0.17494319 0.81550002
v -0.00024998 -0.17775001 0.81550002
v -0.01685599 -0.17494319 0.81550002
v -0.02451912 -0.17133521 0.81550002
v -0.00024998 -0.17775001 0.81550002
v -0.02451912 -0.17133521 0.81550002
v -0.03144215 -0.16645530 0.81550002
v -0.03144215 -0.16645530 0.81550002
v -0.03741597 -0.16045070 0.81550002
v -0.03741597 -0.16045070 0.81550002
v -0.04226033 -0.15350281 0.81550002
v -0.04226033 -0.15350281 0.81550002
v -0.04582892 -0.14582130 0.81550002
v -0.04582892 -0.14582130 0.81550002
v -0.04801415 -0.13763800 0.81550002
v -0.04874997 -0.12920000 0.81550002
v 0.00868411 -0.17717031 0.81550002
v 0.00025002 -0.17794940 0.81550002
v 0.00025002 -0.17775001 0.81550002
v 0.01685602 -0.17494319 0.81550002
v 0.02451915 -0.17133521 0.81550002
v 0.01685602 -0.17494319 0.81550002
v 0.00025002 -0.17775001 0.81550002
v 0.03144218 -0.16645530 0.81550002
v 0.02451915 -0.17133521 0.81550002
v 0.00025002 -0.17775001 0.81550002
v 0.03741600 -0.16045070 0.81550002
v 0.03144218 -0.16645530 0.81550002
v 0.04226036 -0.15350281 0.81550002
v 0.03741600 -0.16045070 0.81550002
v 0.04582894 -0.14582130 0.81550002
v 0.04226036 -0.15350281 0.81550002
v 0.04801417 -0.13763800 0.81550002
v 0.04582894 -0.14582130 0.81550002
v -0.00024999 -0.08065003 0.81550002
v -0.04801415 -0.12076201 0.81550002
v -0.00024999 -0.08065003 0.81550002
v -0.04801415 -0.12076201 0.81550002
v -0.04582892 -0.11257881 0.81550002
v -0.04582892 -0.11257881 0.81550002
v -0.04226033 -0.10489720 0.81550002
v -0.04226033 -0.10489720 0.81550002
v -0.03741597 -0.09794932 0.81550002
v -0.03741597 -0.09794932 0.81550002
v -0.03144215 -0.09194475 0.81550002
v -0.03144215 -0.09194475 0.81550002
v -0.02451913 -0.08706486 0.81550002
v -0.02451913 -0.08706486 0.81550002
v -0.01685600 -0.08345687 0.81550002
v -0.01685600 -0.08345687 0.81550002
v -0.00868409 -0.08122974 0.81550002
v -0.00024999 -0.08045065 0.81550002
v -0.00024999 -0.08065003 0.81550002
v -0.00868409 -0.08122974 0.81550002
v 0.04874999 -0.12920000 0.81550002
v 0.04801417 -0.13763800 0.81550002
v 0.00025001 -0.08065003 0.81550002
v 0.04801417 -0.12076199 0.81550002
v 0.00868411 -0.08122974 0.81550002
v 0.00025001 -0.08065003 0.81550002
v 0.00025001 -0.08045065 0.81550002
v 0.04582894 -0.11257879 0.81550002
v 0.01685602 -0.08345687 0.81550002
v 0.00868411 -0.08122974 0.81550002
v 0.04226035 -0.10489720 0.81550002
v 0.02451915 -0.08706486 0.81550002
v 0.01685602 -0.08345687 0.81550002
v 0.03741599 -0.09794932 0.81550002
v 0.04226035 -0.10489720 0.81550002
v 0.03144217 -0.09194475 0.81550002
v 0.00025001 -0.08065003 0.81550002
v 0.02451915 -0.08706486 0.81550002
v 0.03144217 -0.09194475 0.81550002
v 0.03741599 -0.09794932 0.81550002
v 0.00799634 -0.17728969 0.83250010
v 0.00025002 -0.17794940 0.83250010
v 0.00025002 -0.17794940 0.81550002
v 0.00868411 -0.17717031 0.81550002
v 0.01553935 -0.17540710 0.83250010
v 0.01685602 -0.17494319 0.81550002
v 0.02268714 -0.17234920 0.83250010
v 0.02451915 -0.17133521 0.81550002
v 0.02925796 -0.16819410 0.83250010
v 0.03144218 -0.16645530 0.81550002
v 0.03508468 -0.16304711 0.83250010
v 0.03741600 -0.16045070 0.81550002
v 0.04001911 -0.15703940 0.83250010
v 0.04226036 -0.15350281 0.81550002
v 0.04393572 -0.15032370 0.83250010
v 0.04582894 -0.14582130 0.81550002
v 0.04673505 -0.14307080 0.83250010
v 0.04801417 -0.13763800 0.81550002
v 0.04872692 -0.12770000 0.81850010
v 0.04874999 -0.12920000 0.81550002
v 0.04801417 -0.12076199 0.81550002
v 0.04834575 -0.13546500 0.83250010
v 0.04776544 -0.11945190 0.81850010
v 0.04582894 -0.11257879 0.81550002
v 0.04872692 -0.12770000 0.83250010
v 0.04541803 -0.11148670 0.81850010
v 0.04226035 -0.10489720 0.81550002
v 0.04175288 -0.10403540 0.81850010
v 0.03741599 -0.09794932 0.81550002
v 0.03687627 -0.09731423 0.81850010
v 0.03144217 -0.09194475 0.81550002
v 0.03092969 -0.09151822 0.81850010
v 0.02451915 -0.08706486 0.81550002
v 0.02408565 -0.08681553 0.81850010
v 0.01685602 -0.08345687 0.81550002
v 0.01654286 -0.08334267 0.81850010
v 0.00868411 -0.08122974 0.81550002
v 0.00852001 -0.08120030 0.81850010
v 0.00025001 -0.08045065 0.81550002
v 0.00025001 -0.08045065 0.81850010
v 0.00025001 -0.07898318 0.82804948
v 0.00025001 -0.07745063 0.83249998
v 0.00797743 -0.07810723 0.83240759
v 0.04848516 -0.12386540 0.81919658
v 0.04872692 -0.12770000 0.81850010
v 0.04776544 -0.11945190 0.81850010
v 0.04869378 -0.12384259 0.82177401
v 0.04874957 -0.12600601 0.82039553
v 0.04874588 -0.12682010 0.81967831
v 0.04873872 -0.12724809 0.81919700
v 0.04873288 -0.12749191 0.81885922
v 0.04799742 -0.11940459 0.82177418
v 0.04788590 -0.11706220 0.82454312
v 0.04844738 -0.12077110 0.82319701
v 0.04779262 -0.11944629 0.81919658
v 0.04645020 -0.11238439 0.82454300
v 0.04672164 -0.11228620 0.82596147
v 0.04606140 -0.11252519 0.82177418
v 0.04541803 -0.11148670 0.81850010
v 0.04421592 -0.10716959 0.82454300
v 0.04476506 -0.10689609 0.82730567
v 0.04283554 -0.10338280 0.82730567
v 0.04270131 -0.10268059 0.82823062
v 0.04384584 -0.10735409 0.82177418
v 0.04175288 -0.10403540 0.81850010
v 0.04230983 -0.10369970 0.82454300
v 0.03972793 -0.09881746 0.82730567
v 0.04012478 -0.09851390 0.82906687
v 0.04195565 -0.10391310 0.82177418
v 0.04177666 -0.10402100 0.81919658
v 0.03924037 -0.09919029 0.82454300
v 0.03659553 -0.09510934 0.82730567
v 0.03713006 -0.09461134 0.82979190
v 0.03891188 -0.09944152 0.82177418
v 0.03687627 -0.09731423 0.81850010
v 0.03359867 -0.09116977 0.82979143
v 0.03373856 -0.09101146 0.83041662
v 0.03614641 -0.09552770 0.82454300
v 0.03311396 -0.09171837 0.82730567
v 0.03584385 -0.09580951 0.82177418
v 0.02973450 -0.08807790 0.82979143
v 0.02997077 -0.08775115 0.83095270
v 0.03270758 -0.09217840 0.82454300
v 0.02930552 -0.08867108 0.82730567
v 0.03243381 -0.09248828 0.82177418
v 0.02527261 -0.08519470 0.82979143
v 0.02556265 -0.08468967 0.83143532
v 0.02894587 -0.08916848 0.82454300
v 0.03229541 -0.09264487 0.81919658
v 0.03092969 -0.09151822 0.81850010
v 0.02490801 -0.08582955 0.82730567
v 0.02870363 -0.08950358 0.82177418
v 0.02460236 -0.08636182 0.82454300
v 0.02018130 -0.08263945 0.82979143
v 0.02047629 -0.08195883 0.83184862
v 0.01989013 -0.08331114 0.82730567
v 0.02439642 -0.08672034 0.82177418
v 0.02429230 -0.08690160 0.81919658
v 0.02408565 -0.08681553 0.81850010
v 0.01524097 -0.08079665 0.82979143
v 0.01549817 -0.07997912 0.83213890
v 0.01964605 -0.08387428 0.82454300
v 0.01502109 -0.08149492 0.82730567
v 0.01948160 -0.08425366 0.82177418
v 0.01654286 -0.08334267 0.81850010
v 0.01483673 -0.08208036 0.82454300
v 0.00886888 -0.07923489 0.82979143
v 0.01471258 -0.08247476 0.82177418
v 0.00852001 -0.08120030 0.81850010
v 0.00874091 -0.07995569 0.82730567
v 0.00863368 -0.08056002 0.82454300
v 0.00025001 -0.08001500 0.82326490
v 0.00856138 -0.08096718 0.82177418
v 0.00025001 -0.08045065 0.81850010
v 0.00852484 -0.08117294 0.81919658
v 0.00025002 -0.17794940 0.81550002
v 0.00025002 -0.17775001 0.83250010
v 0.00025002 -0.17775001 0.81550002
v 0.00025002 -0.17794940 0.83250010
v 0.00025002 -0.17775001 0.81550002
v -0.00024998 -0.17775001 0.83250010
v -0.00024998 -0.17775001 0.81550002
v 0.00025002 -0.17775001 0.83250010
v -0.00024998 -0.17775001 0.81550002
v -0.00024998 -0.17794940 0.83250010
v -0.00024998 -0.17794940 0.81550002
v -0.00024998 -0.17775001 0.83250010
v -0.00799631 -0.07811027 0.83250010
v -0.00322800 -0.07755702 0.83248508
v -0.00619244 -0.07784497 0.83244491
v -0.01133369 -0.07878589 0.83231127
v -0.01553933 -0.07999294 0.83250010
v -0.01636098 -0.08027744 0.83209568
v -0.02268712 -0.08305078 0.83250010
v -0.02121864 -0.08231014 0.83179623
v -0.02582394 -0.08485192 0.83141100
v -0.02925794 -0.08720600 0.83250010
v -0.03013168 -0.08787727 0.83093321
v -0.03508465 -0.09235286 0.83250010
v -0.03410093 -0.09136199 0.83035588
v -0.03766750 -0.09525376 0.82967609
v -0.04001908 -0.09836059 0.83250010
v -0.04078297 -0.09949344 0.82887942
v -0.04393570 -0.10507631 0.83250010
v -0.04342096 -0.10403781 0.82794333
v -0.04552810 -0.10877261 0.82686031
v -0.04673503 -0.11232930 0.83250010
v -0.04700612 -0.11328491 0.82568562
v -0.04834573 -0.11993501 0.83250010
v -0.04795001 -0.11741441 0.82442731
v -0.04847626 -0.12104300 0.82308578
v -0.04872690 -0.12770000 0.83250010
v -0.04873662 -0.12733769 0.81908017
v -0.04872690 -0.12770000 0.81850010
v -0.04874502 -0.12689561 0.81960070
v -0.04875003 -0.12620720 0.82023448
v -0.04874115 -0.12526530 0.82092750
v -0.04868887 -0.12375960 0.82181883
v -0.00024999 -0.07745063 0.83249998
v 0.04872692 -0.12770000 0.83250010
v 0.04869378 -0.12384259 0.82177401
v 0.04844738 -0.12077110 0.82319701
v 0.04874957 -0.12600601 0.82039553
v 0.04874588 -0.12682010 0.81967831
v 0.04873872 -0.12724809 0.81919700
v 0.04873288 -0.12749191 0.81885922
v 0.04872692 -0.12770000 0.81850010
v 0.04834575 -0.11993499 0.83250010
v 0.04788590 -0.11706220 0.82454312
v 0.04672164 -0.11228620 0.82596147
v 0.04673505 -0.11232929 0.83250010
v 0.04476506 -0.10689609 0.82730567
v 0.04393572 -0.10507629 0.83250010
v 0.04270131 -0.10268059 0.82823062
v 0.04001910 -0.09836059 0.83250010
v 0.04012478 -0.09851390 0.82906687
v 0.03713006 -0.09461134 0.82979190
v 0.03508467 -0.09235286 0.83250010
v 0.03373856 -0.09101146 0.83041662
v 0.02925796 -0.08720600 0.83250010
v 0.02997077 -0.08775115 0.83095270
v 0.02556265 -0.08468967 0.83143532
v 0.02268714 -0.08305078 0.83250010
v 0.02047629 -0.08195883 0.83184862
v 0.01553935 -0.07999294 0.83250010
v 0.01549817 -0.07997912 0.83213890
v 0.00799633 -0.07811027 0.83250010
v 0.00797743 -0.07810723 0.83240759
v 0.00025001 -0.07745063 0.83249998
v -0.00852000 -0.08120030 0.81850010
v -0.00024999 -0.08045065 0.81850010
v -0.00024999 -0.08045065 0.81550002
v -0.00868409 -0.08122974 0.81550002
v -0.01654284 -0.08334267 0.81850010
v -0.01685600 -0.08345687 0.81550002
v -0.02408563 -0.08681553 0.81850010
v -0.02451913 -0.08706486 0.81550002
v -0.03092967 -0.09151822 0.81850010
v -0.03144215 -0.09194475 0.81550002
v -0.03687625 -0.09731423 0.81850010
v -0.03741597 -0.09794932 0.81550002
v -0.04175286 -0.10403540 0.81850010
v -0.04226033 -0.10489720 0.81550002
v -0.04541801 -0.11148671 0.81850010
v -0.04582892 -0.11257881 0.81550002
v -0.04776542 -0.11945191 0.81850010
v -0.04801415 -0.12076201 0.81550002
v -0.04872690 -0.12770000 0.81850010
v -0.04874997 -0.12920000 0.81550002
v -0.04801415 -0.13763800 0.81550002
v -0.04834573 -0.13546500 0.83250010
v -0.04872690 -0.12770000 0.83250010
v -0.04673503 -0.14307080 0.83250010
v -0.04582892 -0.14582130 0.81550002
v -0.04393569 -0.15032370 0.83250010
v -0.04226033 -0.15350281 0.81550002
v -0.04001908 -0.15703940 0.83250010
v -0.03741597 -0.16045070 0.81550002
v -0.03508465 -0.16304711 0.83250010
v -0.03144215 -0.16645530 0.81550002
v -0.02925793 -0.16819410 0.83250010
v -0.02451912 -0.17133521 0.81550002
v -0.02268711 -0.17234920 0.83250010
v -0.01685599 -0.17494319 0.81550002
v -0.01553932 -0.17540710 0.83250010
v -0.00868408 -0.17717031 0.81550002
v -0.00799630 -0.17728969 0.83250010
v -0.00024998 -0.17794940 0.81550002
v -0.00024998 -0.17794940 0.83250010
v -0.00024999 -0.07898318 0.82804948
v -0.00322800 -0.07755702 0.83248508
v -0.00024999 -0.07745063 0.83249998
v -0.00607043 -0.07885652 0.82967567
v -0.01133369 -0.07878589 0.83231127
v -0.00619244 -0.07784497 0.83244491
v -0.00597381 -0.07965773 0.82686019
v -0.00024999 -0.08001500 0.82326490
v -0.01112221 -0.07972663 0.82967567
v -0.01636098 -0.08027744 0.83209568
v -0.00591134 -0.08017617 0.82442701
v -0.01094519 -0.08051401 0.82686019
v -0.00586497 -0.08056044 0.82181883
v -0.00024999 -0.08045065 0.81850010
v -0.00852000 -0.08120030 0.81850010
v -0.01608263 -0.08110982 0.82967567
v -0.02121864 -0.08231014 0.83179623
v -0.01083063 -0.08102345 0.82442701
v -0.01582669 -0.08187514 0.82686019
v -0.01074575 -0.08140110 0.82181883
v -0.02090566 -0.08300185 0.82967567
v -0.01566105 -0.08237040 0.82442701
v -0.02057295 -0.08373707 0.82686019
v -0.01553826 -0.08273750 0.82181883
v -0.02505313 -0.08511310 0.82967567
v -0.02582394 -0.08485192 0.83141100
v -0.02035765 -0.08421283 0.82442701
v -0.01546870 -0.08294564 0.81908238
v -0.01654284 -0.08334267 0.81850010
v -0.02465437 -0.08581471 0.82686019
v -0.02019809 -0.08456546 0.82181883
v -0.02408563 -0.08681553 0.81850010
v -0.02439640 -0.08626872 0.82442701
v -0.02987616 -0.08822768 0.82967567
v -0.03410093 -0.09136199 0.83035588
v -0.03013168 -0.08787727 0.83093321
v -0.02420519 -0.08660525 0.82181883
v -0.02940069 -0.08887976 0.82686019
v -0.02409671 -0.08679610 0.81908238
v -0.03394745 -0.09153193 0.82967567
v -0.03766750 -0.09525376 0.82967609
v -0.02909301 -0.08930170 0.82442701
v -0.02886496 -0.08961445 0.82181883
v -0.03092967 -0.09151822 0.81850010
v -0.03340720 -0.09213137 0.82686019
v -0.03305762 -0.09251928 0.82442701
v -0.03279845 -0.09280681 0.82181883
v -0.03706895 -0.09579318 0.82686019
v -0.04078297 -0.09949344 0.82887942
v -0.03668104 -0.09614276 0.82442701
v -0.03639351 -0.09640192 0.82181883
v -0.04033504 -0.09981966 0.82686019
v -0.03991298 -0.10012710 0.82442701
v -0.03623043 -0.09654885 0.81908238
v -0.03687625 -0.09731423 0.81850010
v -0.04273878 -0.10344110 0.82686019
v -0.04342096 -0.10403781 0.82794333
v -0.03960012 -0.10035500 0.82181883
v -0.04175286 -0.10403540 0.81850010
v -0.04229157 -0.10371070 0.82442701
v -0.04196005 -0.10391050 0.82181883
v -0.04177205 -0.10402380 0.81908238
v -0.04505216 -0.10898661 0.82442701
v -0.04700612 -0.11328491 0.82568562
v -0.04552810 -0.10877261 0.82686031
v -0.04469900 -0.10914501 0.82181883
v -0.04541801 -0.11148671 0.81850010
v -0.04677086 -0.11336451 0.82442701
v -0.04795001 -0.11741441 0.82442731
v -0.04640423 -0.11348861 0.82181883
v -0.04757582 -0.11750641 0.82181883
v -0.04847626 -0.12104300 0.82308578
v -0.04736267 -0.11755881 0.81908238
v -0.04776542 -0.11945191 0.81850010
v -0.04831265 -0.12107050 0.82181883
v -0.04868887 -0.12375960 0.82181883
v -0.04809622 -0.12110691 0.81908238
v -0.04861419 -0.12527560 0.81908238
v -0.04872690 -0.12770000 0.81850010
v -0.04873662 -0.12733769 0.81908017
v -0.04874502 -0.12689561 0.81960070
v -0.04875003 -0.12620720 0.82023448
v -0.04874115 -0.12526530 0.82092750
v -0.00024998 -0.17775001 0.83250010
v -0.04834573 -0.13546500 0.83250010
v -0.04673503 -0.14307080 0.83250010
v -0.00024998 -0.17775001 0.83250010
v -0.04673503 -0.14307080 0.83250010
v -0.04393569 -0.15032370 0.83250010
v -0.04393569 -0.15032370 0.83250010
v -0.04001908 -0.15703940 0.83250010
v -0.04001908 -0.15703940 0.83250010
v -0.03508465 -0.16304711 0.83250010
v -0.02925793 -0.16819410 0.83250010
v -0.02925793 -0.16819410 0.83250010
v -0.02268711 -0.17234920 0.83250010
v -0.02268711 -0.17234920 0.83250010
v -0.01553932 -0.17540710 0.83250010
v -0.01553932 -0.17540710 0.83250010
v -0.00799630 -0.17728969 0.83250010
v -0.00024998 -0.17775001 0.83250010
v -0.00799630 -0.17728969 0.83250010
v -0.00024998 -0.17794940 0.83250010
v -0.04872690 -0.12770000 0.83250010
v -0.04834573 -0.13546500 0.83250010
v 0.00799634 -0.17728969 0.83250010
v 0.00025002 -0.17775001 0.83250010
v 0.00025002 -0.17794940 0.83250010
v 0.01553935 -0.17540710 0.83250010
v 0.00025002 -0.17775001 0.83250010
v 0.00799634 -0.17728969 0.83250010
v 0.02268714 -0.17234920 0.83250010
v 0.00025002 -0.17775001 0.83250010
v 0.01553935 -0.17540710 0.83250010
v 0.02925796 -0.16819410 0.83250010
v 0.02268714 -0.17234920 0.83250010
v 0.03508468 -0.16304711 0.83250010
v 0.02925796 -0.16819410 0.83250010
v 0.04001911 -0.15703940 0.83250010
v 0.03508468 -0.16304711 0.83250010
v 0.04393572 -0.15032370 0.83250010
v 0.00025002 -0.17775001 0.83250010
v 0.04001911 -0.15703940 0.83250010
v 0.04673505 -0.14307080 0.83250010
v 0.04393572 -0.15032370 0.83250010
v 0.04834575 -0.13546500 0.83250010
v 0.04673505 -0.14307080 0.83250010
v 0.04872692 -0.12770000 0.83250010
v 0.00025002 -0.17775001 0.83250010
v 0.04834575 -0.13546500 0.83250010
v 0.04872692 -0.12770000 0.83250010
v -0.04872690 -0.12770000 0.83250010
v -0.00024999 -0.07765001 0.83250010
v -0.00799631 -0.07811027 0.83250010
v -0.01553933 -0.07999294 0.83250010
v -0.00024999 -0.07765001 0.83250010
v -0.01553933 -0.07999294 0.83250010
v -0.02268712 -0.08305078 0.83250010
v -0.02925794 -0.08720600 0.83250010
v -0.00024999 -0.07765001 0.83250010
v -0.02925794 -0.08720600 0.83250010
v -0.03508465 -0.09235286 0.83250010
v -0.03508465 -0.09235286 0.83250010
v -0.04001908 -0.09836059 0.83250010
v -0.04001908 -0.09836059 0.83250010
v -0.04393570 -0.10507631 0.83250010
v -0.04673503 -0.11232930 0.83250010
v -0.04834573 -0.11993501 0.83250010
v -0.00024999 -0.07745063 0.83249998
v -0.00799631 -0.07811027 0.83250010
v -0.00024999 -0.07765001 0.83250010
v 0.00025001 -0.07765001 0.83250010
v 0.04834575 -0.11993499 0.83250010
v 0.00799633 -0.07811027 0.83250010
v 0.00025001 -0.07745063 0.83249998
v 0.00025001 -0.07765001 0.83250010
v 0.04673505 -0.11232929 0.83250010
v 0.01553935 -0.07999294 0.83250010
v 0.00799633 -0.07811027 0.83250010
v 0.04393572 -0.10507629 0.83250010
v 0.02268714 -0.08305078 0.83250010
v 0.01553935 -0.07999294 0.83250010
v 0.04001910 -0.09836059 0.83250010
v 0.02925796 -0.08720600 0.83250010
v 0.00025001 -0.07765001 0.83250010
v 0.03508467 -0.09235286 0.83250010
v 0.00025001 -0.07765001 0.83250010
v 0.04001910 -0.09836059 0.83250010
v 0.03508467 -0.09235286 0.83250010
v 0.02925796 -0.08720600 0.83250010
v 0.00025001 -0.07765001 0.83250010
f 1 2 3
f 4 2 1
f 5 6 7
f 5 8 6
f 9 7 10
f 9 5 7
f 11 10 12
f 11 9 10
f 13 12 14
f 13 11 12
f 15 16 17
f 15 18 16
f 19 20 18
f 19 18 15
f 21 22 20
f 21 20 19
f 23 24 25
f 26 24 23
f 27 26 23
f 28 26 27
f 29 28 27
f 30 28 29
f 31 29 32
f 31 30 29
f 33 34 35
f 33 35 36
f 33 36 37
f 33 37 38
f 33 38 39
f 33 39 40
f 33 40 41
f 33 41 42
f 43 33 42
f 44 45 46
f 47 44 46
f 48 47 46
f 49 48 46
f 50 49 46
f 51 50 46
f 52 51 46
f 53 52 46
f 54 43 55
f 54 55 56
f 54 56 57
f 54 57 58
f 54 58 59
f 54 59 60
f 54 60 61
f 54 61 62
f 54 33 43
f 63 54 62
f 64 53 46
f 65 64 46
f 65 46 33
f 65 33 54
f 66 64 65
f 67 65 68
f 69 66 65
f 70 65 67
f 71 69 65
f 72 65 70
f 73 71 65
f 74 65 72
f 74 73 65
f 75 76 77
f 75 77 78
f 79 78 80
f 79 75 78
f 81 80 82
f 81 79 80
f 83 82 84
f 83 81 82
f 85 84 86
f 85 83 84
f 87 86 88
f 87 85 86
f 89 88 90
f 89 87 88
f 91 90 92
f 91 89 90
f 93 92 94
f 95 93 94
f 96 92 93
f 96 91 92
f 97 93 95
f 98 97 95
f 99 96 93
f 100 97 98
f 101 100 98
f 102 100 101
f 103 102 101
f 104 102 103
f 105 104 103
f 106 104 105
f 107 106 105
f 108 106 107
f 109 108 107
f 110 108 109
f 111 110 109
f 112 110 111
f 113 112 111
f 114 112 113
f 115 116 117
f 118 119 120
f 118 121 122
f 118 122 123
f 118 123 124
f 118 124 125
f 118 125 119
f 126 127 128
f 126 128 121
f 129 126 121
f 129 118 120
f 129 121 118
f 130 131 127
f 132 120 133
f 132 130 127
f 132 126 129
f 132 129 120
f 132 127 126
f 134 135 131
f 134 131 130
f 136 137 135
f 136 135 134
f 138 133 139
f 138 132 133
f 138 130 132
f 138 134 130
f 140 136 134
f 141 142 137
f 141 137 136
f 143 134 138
f 143 140 134
f 144 143 138
f 144 138 139
f 145 141 136
f 145 136 140
f 146 147 142
f 146 142 141
f 148 139 149
f 148 144 139
f 148 143 144
f 148 140 143
f 148 145 140
f 150 151 147
f 152 146 141
f 152 141 145
f 153 150 147
f 153 147 146
f 154 145 148
f 154 148 149
f 154 152 145
f 155 156 151
f 155 151 150
f 157 153 146
f 157 152 154
f 157 146 152
f 158 155 150
f 158 150 153
f 159 157 154
f 160 156 155
f 160 161 156
f 160 155 158
f 162 153 157
f 162 157 159
f 162 158 153
f 163 149 164
f 163 154 149
f 163 164 159
f 163 159 154
f 165 158 162
f 165 160 158
f 166 159 164
f 166 162 159
f 167 165 162
f 167 162 166
f 168 169 161
f 168 161 160
f 170 160 165
f 170 168 160
f 171 167 166
f 172 164 173
f 172 166 164
f 172 171 166
f 174 175 169
f 174 169 168
f 174 168 170
f 176 165 167
f 176 170 165
f 177 174 170
f 178 173 179
f 178 172 173
f 178 167 171
f 178 176 167
f 178 171 172
f 180 170 176
f 180 177 170
f 181 117 175
f 181 175 174
f 181 174 177
f 181 115 117
f 182 179 183
f 182 178 179
f 182 180 176
f 182 176 178
f 184 177 180
f 184 115 181
f 184 181 177
f 185 186 115
f 185 115 184
f 185 184 180
f 187 188 186
f 187 186 185
f 187 180 182
f 187 185 180
f 189 183 188
f 189 182 183
f 189 188 187
f 189 187 182
f 190 191 192
f 190 193 191
f 194 195 196
f 194 197 195
f 198 199 200
f 198 201 199
f 202 203 204
f 205 202 204
f 206 202 205
f 207 206 205
f 208 207 209
f 208 206 207
f 210 208 209
f 211 210 212
f 211 208 210
f 213 212 214
f 213 211 212
f 215 213 214
f 216 215 217
f 216 213 215
f 218 219 220
f 218 217 219
f 218 216 217
f 221 220 222
f 221 218 220
f 223 224 225
f 223 222 224
f 223 221 222
f 226 227 228
f 226 229 227
f 226 230 229
f 226 231 230
f 226 232 231
f 226 225 232
f 226 223 225
f 202 233 203
f 234 235 236
f 234 237 235
f 234 238 237
f 234 239 238
f 234 240 239
f 234 241 240
f 242 243 244
f 242 236 243
f 242 234 236
f 245 244 246
f 245 242 244
f 247 246 248
f 247 245 246
f 249 248 250
f 249 247 248
f 251 249 250
f 252 251 253
f 252 249 251
f 254 253 255
f 254 252 253
f 256 254 255
f 257 254 256
f 258 257 256
f 259 258 260
f 259 257 258
f 261 260 262
f 261 259 260
f 263 261 262
f 264 265 266
f 264 266 267
f 268 267 269
f 268 264 267
f 270 269 271
f 270 268 269
f 272 271 273
f 272 270 271
f 274 273 275
f 274 272 273
f 276 275 277
f 276 274 275
f 278 277 279
f 278 276 277
f 280 279 281
f 280 278 279
f 282 281 283
f 282 280 281
f 284 282 283
f 285 286 282
f 285 282 284
f 287 284 288
f 287 285 284
f 289 288 290
f 289 287 288
f 291 290 292
f 291 289 290
f 293 291 292
f 293 292 294
f 295 293 294
f 295 294 296
f 297 296 298
f 297 295 296
f 299 298 300
f 299 297 298
f 301 300 302
f 301 299 300
f 303 301 302
f 304 305 306
f 307 308 309
f 307 309 305
f 307 305 304
f 310 304 311
f 310 307 304
f 312 313 308
f 312 308 307
f 314 310 311
f 315 312 307
f 315 307 310
f 316 317 318
f 316 311 317
f 316 314 311
f 319 320 313
f 319 313 312
f 321 315 310
f 321 310 314
f 322 312 315
f 322 319 312
f 323 314 316
f 323 316 318
f 323 321 314
f 324 319 322
f 324 320 319
f 325 322 315
f 325 315 321
f 326 324 322
f 327 325 321
f 327 321 323
f 328 329 320
f 328 320 324
f 330 322 325
f 330 326 322
f 330 325 327
f 331 327 323
f 331 332 327
f 331 318 332
f 331 323 318
f 333 328 324
f 333 324 326
f 334 327 332
f 334 332 335
f 334 330 327
f 336 326 330
f 336 333 326
f 337 338 339
f 337 339 329
f 337 329 328
f 337 328 333
f 340 336 330
f 340 330 334
f 341 337 333
f 342 334 335
f 342 340 334
f 343 338 337
f 343 344 338
f 345 333 336
f 345 336 340
f 345 341 333
f 346 342 335
f 346 335 347
f 346 345 340
f 346 340 342
f 348 337 341
f 348 343 337
f 349 348 341
f 349 341 345
f 350 346 347
f 350 345 346
f 350 349 345
f 351 352 344
f 351 348 349
f 351 343 348
f 351 344 343
f 353 349 350
f 353 351 349
f 354 353 350
f 355 352 351
f 355 351 353
f 356 355 353
f 357 347 358
f 357 358 354
f 357 350 347
f 357 354 350
f 359 360 352
f 359 352 355
f 361 358 362
f 361 354 358
f 361 353 354
f 361 356 353
f 363 355 356
f 363 360 359
f 363 359 355
f 363 356 361
f 364 363 361
f 365 361 362
f 365 364 361
f 366 367 368
f 366 368 360
f 366 360 363
f 369 362 370
f 369 363 364
f 369 365 362
f 369 364 365
f 369 366 363
f 371 372 367
f 371 367 366
f 371 366 369
f 373 369 370
f 373 371 369
f 374 375 372
f 374 372 371
f 374 371 373
f 376 370 377
f 376 373 370
f 376 377 374
f 376 374 373
f 378 379 375
f 378 375 374
f 378 374 377
f 380 379 378
f 380 378 377
f 381 382 383
f 381 383 384
f 381 384 385
f 381 385 386
f 381 386 379
f 381 380 377
f 381 377 382
f 381 379 380
f 387 388 389
f 387 389 390
f 387 390 391
f 387 391 392
f 387 392 393
f 387 393 394
f 387 394 395
f 396 397 398
f 387 399 400
f 401 388 387
f 402 403 404
f 405 406 407
f 408 403 409
f 410 403 408
f 411 403 410
f 412 403 411
f 413 403 412
f 414 406 413
f 415 403 414
f 416 403 415
f 416 387 403
f 416 401 387
f 417 418 419
f 420 421 422
f 420 422 423
f 420 423 424
f 420 424 425
f 420 425 426
f 420 426 427
f 420 427 428
f 420 428 401
f 429 430 431
f 432 401 416
f 432 420 401
f 433 432 416
f 434 435 436
f 437 432 433
f 438 439 440
f 441 440 437
f 442 443 432
f 444 432 441
f 445 442 432
f 446 432 444
f 446 445 432
f 447 448 449
f 450 448 447
f 451 452 453
f 451 454 452
f 455 453 456
f 455 451 453
f 457 456 458
f 457 455 456
f 459 458 460
f 459 457 458
f 461 462 463
f 461 464 462
f 465 466 464
f 465 464 461
f 467 468 466
f 467 466 465
f 469 470 471
f 472 470 469
f 473 472 469
f 474 472 473
f 475 474 473
f 476 474 475
f 477 475 478
f 477 476 475
f 479 480 481
f 479 481 482
f 483 484 485
f 486 487 488
f 479 489 490
f 483 491 492
f 486 493 494
f 483 495 496
f 497 479 496
f 498 499 500
f 501 498 500
f 502 503 504
f 505 506 507
f 508 509 500
f 510 511 504
f 512 513 507
f 514 515 504
f 516 497 517
f 518 519 520
f 516 521 522
f 518 523 524
f 518 525 526
f 516 527 528
f 518 529 530
f 518 531 532
f 518 479 497
f 533 534 535
f 536 537 500
f 538 536 500
f 538 500 479
f 538 479 518
f 539 536 538
f 540 541 542
f 543 539 538
f 544 538 545
f 546 543 538
f 547 541 548
f 549 550 541
f 551 552 553
f 554 555 538
f 556 557 558
f 556 558 559
f 560 559 561
f 560 556 559
f 562 561 563
f 562 560 561
f 564 563 565
f 564 562 563
f 566 565 567
f 566 564 565
f 568 567 569
f 568 566 567
f 570 569 571
f 570 568 569
f 572 571 573
f 572 570 571
f 574 573 575
f 576 574 575
f 577 573 574
f 577 572 573
f 578 574 576
f 579 578 576
f 580 577 574
f 581 578 579
f 582 581 579
f 583 581 582
f 584 583 582
f 585 583 584
f 586 585 584
f 587 585 586
f 588 587 586
f 589 587 588
f 590 589 588
f 591 589 590
f 592 591 590
f 593 591 592
f 594 593 592
f 595 593 594
f 596 597 598
f 599 600 601
f 599 602 603
f 599 603 604
f 599 604 605
f 599 605 606
f 599 606 600
f 607 608 609
f 607 609 602
f 610 607 602
f 610 599 601
f 610 602 599
f 611 612 608
f 613 601 614
f 613 611 608
f 613 607 610
f 613 610 601
f 613 608 607
f 615 616 612
f 615 612 611
f 617 618 616
f 617 616 615
f 619 614 620
f 619 613 614
f 619 611 613
f 619 615 611
f 621 617 615
f 622 623 618
f 622 618 617
f 624 615 619
f 624 621 615
f 625 624 619
f 625 619 620
f 626 622 617
f 626 617 621
f 627 628 623
f 627 623 622
f 629 620 630
f 629 625 620
f 629 624 625
f 629 621 624
f 629 626 621
f 631 632 628
f 633 627 622
f 633 622 626
f 634 631 628
f 634 628 627
f 635 626 629
f 635 629 630
f 635 633 626
f 636 637 632
f 636 632 631
f 638 634 627
f 638 633 635
f 638 627 633
f 639 636 631
f 639 631 634
f 640 638 635
f 641 637 636
f 641 642 637
f 641 636 639
f 643 634 638
f 643 638 640
f 643 639 634
f 644 630 645
f 644 635 630
f 644 645 640
f 644 640 635
f 646 639 643
f 646 641 639
f 647 640 645
f 647 643 640
f 648 646 643
f 648 643 647
f 649 650 642
f 649 642 641
f 651 641 646
f 651 649 641
f 652 648 647
f 653 645 654
f 653 647 645
f 653 652 647
f 655 656 650
f 655 650 649
f 655 649 651
f 657 646 648
f 657 651 646
f 658 655 651
f 659 654 660
f 659 653 654
f 659 648 652
f 659 657 648
f 659 652 653
f 661 651 657
f 661 658 651
f 662 598 656
f 662 656 655
f 662 655 658
f 662 596 598
f 663 660 664
f 663 659 660
f 663 661 657
f 663 657 659
f 665 658 661
f 665 596 662
f 665 662 658
f 666 667 596
f 666 596 665
f 666 665 661
f 668 669 667
f 668 667 666
f 668 661 663
f 668 666 661
f 670 664 669
f 670 663 664
f 670 669 668
f 670 668 663
f 671 672 673
f 671 674 672
f 675 676 677
f 675 678 676
f 679 680 681
f 679 682 680
f 683 684 685
f 686 683 685
f 687 683 686
f 688 687 686
f 689 688 690
f 689 687 688
f 691 689 690
f 692 691 693
f 692 689 691
f 694 693 695
f 694 692 693
f 696 694 695
f 697 696 698
f 697 694 696
f 699 700 701
f 699 698 700
f 699 697 698
f 702 701 703
f 702 699 701
f 704 705 706
f 704 703 705
f 704 702 703
f 707 708 709
f 707 710 708
f 707 711 710
f 707 712 711
f 707 713 712
f 707 706 713
f 707 704 706
f 683 714 684
f 715 716 717
f 715 718 716
f 715 719 718
f 715 720 719
f 715 721 720
f 715 722 721
f 723 724 725
f 723 717 724
f 723 715 717
f 726 725 727
f 726 723 725
f 728 727 729
f 728 726 727
f 730 729 731
f 730 728 729
f 732 730 731
f 733 732 734
f 733 730 732
f 735 734 736
f 735 733 734
f 737 735 736
f 738 735 737
f 739 738 737
f 740 739 741
f 740 738 739
f 742 741 743
f 742 740 741
f 744 742 743
f 745 746 747
f 745 747 748
f 749 748 750
f 749 745 748
f 751 750 752
f 751 749 750
f 753 752 754
f 753 751 752
f 755 754 756
f 755 753 754
f 757 756 758
f 757 755 756
f 759 758 760
f 759 757 758
f 761 760 762
f 761 759 760
f 763 762 764
f 763 761 762
f 765 763 764
f 766 767 763
f 766 763 765
f 768 765 769
f 768 766 765
f 770 769 771
f 770 768 769
f 772 771 773
f 772 770 771
f 774 772 773
f 774 773 775
f 776 774 775
f 776 775 777
f 778 777 779
f 778 776 777
f 780 779 781
f 780 778 779
f 782 781 783
f 782 780 781
f 784 782 783
f 785 786 787
f 788 789 790
f 788 790 786
f 788 786 785
f 791 785 792
f 791 788 785
f 793 794 789
f 793 789 788
f 795 791 792
f 796 793 788
f 796 788 791
f 797 798 799
f 797 792 798
f 797 795 792
f 800 801 794
f 800 794 793
f 802 796 791
f 802 791 795
f 803 793 796
f 803 800 793
f 804 795 797
f 804 797 799
f 804 802 795
f 805 800 803
f 805 801 800
f 806 803 796
f 806 796 802
f 807 805 803
f 808 806 802
f 808 802 804
f 809 810 801
f 809 801 805
f 811 803 806
f 811 807 803
f 811 806 808
f 812 808 804
f 812 813 808
f 812 799 813
f 812 804 799
f 814 809 805
f 814 805 807
f 815 808 813
f 815 813 816
f 815 811 808
f 817 807 811
f 817 814 807
f 818 819 820
f 818 820 810
f 818 810 809
f 818 809 814
f 821 817 811
f 821 811 815
f 822 818 814
f 823 815 816
f 823 821 815
f 824 819 818
f 824 825 819
f 826 814 817
f 826 817 821
f 826 822 814
f 827 823 816
f 827 816 828
f 827 826 821
f 827 821 823
f 829 818 822
f 829 824 818
f 830 829 822
f 830 822 826
f 831 827 828
f 831 826 827
f 831 830 826
f 832 833 825
f 832 829 830
f 832 824 829
f 832 825 824
f 834 830 831
f 834 832 830
f 835 834 831
f 836 833 832
f 836 832 834
f 837 836 834
f 838 828 839
f 838 839 835
f 838 831 828
f 838 835 831
f 840 841 833
f 840 833 836
f 842 839 843
f 842 835 839
f 842 834 835
f 842 837 834
f 844 836 837
f 844 841 840
f 844 840 836
f 844 837 842
f 845 844 842
f 846 842 843
f 846 845 842
f 847 848 849
f 847 849 841
f 847 841 844
f 850 843 851
f 850 844 845
f 850 846 843
f 850 845 846
f 850 847 844
f 852 853 848
f 852 848 847
f 852 847 850
f 854 850 851
f 854 852 850
f 855 856 853
f 855 853 852
f 855 852 854
f 857 851 858
f 857 854 851
f 857 858 855
f 857 855 854
f 859 860 856
f 859 856 855
f 859 855 858
f 861 860 859
f 861 859 858
f 862 863 864
f 862 864 865
f 862 865 866
f 862 866 867
f 862 867 860
f 862 861 858
f 862 858 863
f 862 860 861
f 868 869 870
f 871 872 873
f 868 874 875
f 871 876 877
f 868 877 878
f 871 879 880
f 868 881 882
f 871 883 884
f 885 886 887
f 888 889 871
f 890 891 892
f 893 894 895
f 896 897 898
f 899 894 900
f 901 897 902
f 903 894 904
f 905 906 907
f 908 894 909
f 910 906 911
f 912 913 914
f 915 868 897
f 915 916 868
f 917 918 919
f 920 921 922
f 920 922 923
f 924 925 926
f 920 927 928
f 917 929 930
f 917 930 931
f 917 931 932
f 917 932 916
f 933 934 935
f 936 916 915
f 936 917 916
f 937 936 915
f 938 939 940
f 941 936 937
f 942 943 936
f 944 936 941
f 945 946 936
f 947 936 944
f 948 945 949
f 950 951 952
f 953 954 955

