# https://github.com/mikedh/trimesh
v -0.01580196 0.12200000 0.08961796
v 0.00000000 0.12200000 0.09099996
v 0.00000000 0.13500001 0.09099996
v -0.01580196 0.13500001 0.08961796
v -0.03112399 0.12200000 0.08551198
v -0.03112399 0.13500001 0.08551198
v -0.04549998 0.12200000 0.07880800
v -0.04549998 0.13500001 0.07880800
v -0.05849397 0.13500001 0.06971001
v -0.05849397 0.12200000 0.06971001
v -0.06970995 0.12200000 0.05849397
v -0.06970995 0.13500001 0.05849397
v -0.07880800 0.12200000 0.04549998
v -0.07880800 0.13500001 0.04549998
v -0.08551198 0.12200000 0.03112399
v -0.08551198 0.13500001 0.03112399
v -0.08961796 0.12200000 0.01580196
v -0.08961796 0.13500001 0.01580196
v -0.09099996 0.12200000 -0.00000000
v -0.09099996 0.13500001 -0.00000000
v -0.08961796 0.12200000 -0.01580196
v -0.08961796 0.13500001 -0.01580196
v -0.08551198 0.12200000 -0.03112393
v -0.08551198 0.13500001 -0.03112393
v -0.07880800 0.12200000 -0.04549998
v -0.07880800 0.13500001 -0.04549998
v -0.06970995 0.12200000 -0.05849397
v -0.06970995 0.13500001 -0.05849397
v -0.05849397 0.12200000 -0.06970995
v -0.05849397 0.13500001 -0.06970995
v -0.04549998 0.12200000 -0.07880795
v -0.04549998 0.13500001 -0.07880795
v -0.03112399 0.12200000 -0.08551198
v -0.03112399 0.13500001 -0.08551198
v -0.01580196 0.12200000 -0.08961796
v -0.01580196 0.13500001 -0.08961796
v 0.00000000 0.12200000 -0.09099996
v 0.00000000 0.13500001 -0.09099996
v 0.01580196 0.12200000 -0.08961796
v 0.01580196 0.13500001 -0.08961796
v 0.03112399 0.12200000 -0.08551198
v 0.03112399 0.13500001 -0.08551198
v 0.04549998 0.12200000 -0.07880795
v 0.04549998 0.13500001 -0.07880795
v 0.05849397 0.12200000 -0.06970995
v 0.05849397 0.13500001 -0.06970995
v 0.06970995 0.12200000 -0.05849397
v 0.06970995 0.13500001 -0.05849397
v 0.07880800 0.12200000 -0.04549998
v 0.07880800 0.13500001 -0.04549998
v 0.08551198 0.12200000 -0.03112393
v 0.08551198 0.13500001 -0.03112393
v 0.08961796 0.12200000 -0.01580196
v 0.08961796 0.13500001 -0.01580196
v 0.09099996 0.12200000 -0.00000000
v 0.09099996 0.13500001 -0.00000000
v 0.08961796 0.12200000 0.01580196
v 0.08961796 0.13500001 0.01580196
v 0.08551198 0.12200000 0.03112399
v 0.08551198 0.13500001 0.03112399
v 0.07880800 0.12200000 0.04549998
v 0.07880800 0.13500001 0.04549998
v 0.06970995 0.12200000 0.05849397
v 0.06970995 0.13500001 0.05849397
v 0.05849397 0.12200000 0.06971001
v 0.05849397 0.13500001 0.06971001
v 0.04549998 0.12200000 0.07880800
v 0.04549998 0.13500001 0.07880800
v 0.03112399 0.12200000 0.08551198
v 0.03112399 0.13500001 0.08551198
v 0.01580196 0.12200000 0.08961796
v 0.01580196 0.13500001 0.08961796
v 0.00000000 0.12200000 0.09099996
v 0.00000000 0.13500001 0.09099996
v -0.07880800 0.12200000 -0.04549998
v -0.06970995 0.12200000 -0.05849397
v -0.05849397 0.12200000 -0.06970995
v -0.03112399 0.12200000 -0.08551198
v -0.04549998 0.12200000 -0.07880795
v -0.08961796 0.12200000 -0.01580196
v -0.08551198 0.12200000 -0.03112393
v 0.00000000 0.12200000 -0.09099996
v -0.01580196 0.12200000 -0.08961796
v -0.09099996 0.12200000 -0.00000000
v -0.08551198 0.12200000 0.03112399
v -0.08961796 0.12200000 0.01580196
v 0.04549998 0.12200000 -0.07880795
v 0.01580196 0.12200000 -0.08961796
v 0.03112399 0.12200000 -0.08551198
v -0.06970995 0.12200000 0.05849397
v -0.07880800 0.12200000 0.04549998
v 0.06970995 0.12200000 -0.05849397
v 0.05849397 0.12200000 -0.06970995
v -0.05849397 0.12200000 0.06971001
v 0.07880800 0.12200000 -0.04549998
v -0.03112399 0.12200000 0.08551198
v -0.04549998 0.12200000 0.07880800
v -0.01580196 0.12200000 0.08961796
v 0.09099996 0.12200000 -0.00000000
v 0.08551198 0.12200000 -0.03112393
v 0.08961796 0.12200000 -0.01580196
v 0.08961796 0.12200000 0.01580196
v 0.01580196 0.12200000 0.08961796
v 0.00000000 0.12200000 0.09099996
v 0.03112399 0.12200000 0.08551198
v 0.07880800 0.12200000 0.04549998
v 0.08551198 0.12200000 0.03112399
v 0.04549998 0.12200000 0.07880800
v 0.06970995 0.12200000 0.05849397
v 0.05849397 0.12200000 0.06971001
v -0.07880800 0.13500001 -0.04549998
v -0.05849397 0.13500001 -0.06970995
v -0.06970995 0.13500001 -0.05849397
v -0.03112399 0.13500001 -0.08551198
v -0.04549998 0.13500001 -0.07880795
v -0.08961796 0.13500001 -0.01580196
v -0.08551198 0.13500001 -0.03112393
v 0.00000000 0.13500001 -0.09099996
v -0.01580196 0.13500001 -0.08961796
v -0.09099996 0.13500001 -0.00000000
v -0.08551198 0.13500001 0.03112399
v -0.08961796 0.13500001 0.01580196
v 0.04549998 0.13500001 -0.07880795
v 0.03112399 0.13500001 -0.08551198
v 0.01580196 0.13500001 -0.08961796
v -0.06970995 0.13500001 0.05849397
v -0.07880800 0.13500001 0.04549998
v 0.06970995 0.13500001 -0.05849397
v 0.05849397 0.13500001 -0.06970995
v -0.05849397 0.13500001 0.06971001
v 0.07880800 0.13500001 -0.04549998
v -0.03112399 0.13500001 0.08551198
v -0.04549998 0.13500001 0.07880800
v -0.01580196 0.13500001 0.08961796
v 0.09099996 0.13500001 -0.00000000
v 0.08961796 0.13500001 -0.01580196
v 0.08551198 0.13500001 -0.03112393
v 0.08961796 0.13500001 0.01580196
v 0.01580196 0.13500001 0.08961796
v 0.00000000 0.13500001 0.09099996
v 0.03112399 0.13500001 0.08551198
v 0.07880800 0.13500001 0.04549998
v 0.08551198 0.13500001 0.03112399
v 0.04549998 0.13500001 0.07880800
v 0.06970995 0.13500001 0.05849397
v 0.05849397 0.13500001 0.06971001
v 0.02798098 0.08659100 0.13300000
v 0.04259300 0.08041703 0.13300000
v 0.04259300 0.08041703 0.12000000
v 0.02798098 0.08659100 0.12000000
v 0.01251995 0.09013503 0.13300000
v 0.01251995 0.09013503 0.12000000
v -0.00332194 0.09093898 0.13300000
v -0.00332194 0.09093898 0.12000000
v -0.01906299 0.08898103 0.12000000
v -0.01906299 0.08898103 0.13300000
v -0.03422498 0.08431899 0.13300000
v -0.03422498 0.08431899 0.12000000
v -0.04834699 0.07709503 0.13300000
v -0.04834699 0.07709503 0.12000000
v -0.06099998 0.06752800 0.12000000
v -0.06099998 0.06752800 0.13300000
v -0.07179898 0.05590999 0.12000000
v -0.07179898 0.05590999 0.13300000
v -0.08041697 0.04259300 0.13300000
v -0.08041697 0.04259300 0.12000000
v -0.08659100 0.02798098 0.13300000
v -0.08659100 0.02798098 0.12000000
v -0.09013497 0.01252001 0.13300000
v -0.09013497 0.01252001 0.12000000
v -0.09093898 -0.00332194 0.13300000
v -0.09093898 -0.00332194 0.12000000
v -0.08898097 -0.01906293 0.13300000
v -0.08898097 -0.01906293 0.12000000
v -0.08431899 -0.03422492 0.13300000
v -0.08431899 -0.03422492 0.12000000
v -0.07709497 -0.04834693 0.13300000
v -0.07709497 -0.04834693 0.12000000
v -0.06752800 -0.06099992 0.13300000
v -0.06752800 -0.06099992 0.12000000
v -0.05590999 -0.07179898 0.13300000
v -0.05590999 -0.07179898 0.12000000
v -0.04259300 -0.08041697 0.13300000
v -0.04259300 -0.08041697 0.12000000
v -0.02798098 -0.08659094 0.13300000
v -0.02798098 -0.08659094 0.12000000
v -0.01251995 -0.09013497 0.13300000
v -0.01251995 -0.09013497 0.12000000
v 0.00332194 -0.09093892 0.13300000
v 0.00332194 -0.09093892 0.12000000
v 0.01906299 -0.08898097 0.13300000
v 0.01906299 -0.08898097 0.12000000
v 0.03422498 -0.08431893 0.13300000
v 0.03422498 -0.08431893 0.12000000
v 0.04834699 -0.07709497 0.12000000
v 0.04834699 -0.07709497 0.13300000
v 0.06099998 -0.06752794 0.13300000
v 0.06099998 -0.06752794 0.12000000
v 0.07179898 -0.05590993 0.13300000
v 0.07179898 -0.05590993 0.12000000
v 0.08041697 -0.04259294 0.13300000
v 0.08041697 -0.04259294 0.12000000
v 0.08659100 -0.02798098 0.13300000
v 0.08659100 -0.02798098 0.12000000
v 0.09013497 -0.01251995 0.13300000
v 0.09013497 -0.01251995 0.12000000
v 0.09093898 0.00332201 0.13300000
v 0.09093898 0.00332201 0.12000000
v 0.08898097 0.01906299 0.13300000
v 0.08898097 0.01906299 0.12000000
v 0.08431899 0.03422498 0.13300000
v 0.08431899 0.03422498 0.12000000
v 0.07709497 0.04834699 0.13300000
v 0.07709497 0.04834699 0.12000000
v 0.06752800 0.06099998 0.13300000
v 0.06752800 0.06099998 0.12000000
v 0.05590999 0.07179898 0.13300000
v 0.05590999 0.07179898 0.12000000
v 0.04259300 0.08041703 0.13300000
v 0.04259300 0.08041703 0.12000000
v -0.09093898 -0.00332194 0.13300000
v -0.08898097 -0.01906293 0.13300000
v -0.08431899 -0.03422492 0.13300000
v -0.04259300 -0.08041697 0.13300000
v -0.06752800 -0.06099992 0.13300000
v -0.05590999 -0.07179898 0.13300000
v -0.08041697 0.04259300 0.13300000
v -0.08659100 0.02798098 0.13300000
v -0.09013497 0.01252001 0.13300000
v -0.07709497 -0.04834693 0.13300000
v -0.06099998 0.06752800 0.13300000
v -0.07179898 0.05590999 0.13300000
v -0.03422498 0.08431899 0.13300000
v -0.04834699 0.07709503 0.13300000
v 0.03422498 -0.08431893 0.13300000
v 0.00332194 -0.09093892 0.13300000
v 0.01906299 -0.08898097 0.13300000
v -0.01906299 0.08898103 0.13300000
v -0.00332194 0.09093898 0.13300000
v -0.02798098 -0.08659094 0.13300000
v 0.02798098 0.08659100 0.13300000
v 0.01251995 0.09013503 0.13300000
v -0.01251995 -0.09013497 0.13300000
v 0.08659100 -0.02798098 0.13300000
v 0.04834699 -0.07709497 0.13300000
v 0.06099998 -0.06752794 0.13300000
v 0.07179898 -0.05590993 0.13300000
v 0.08041697 -0.04259294 0.13300000
v 0.07709497 0.04834699 0.13300000
v 0.04259300 0.08041703 0.13300000
v 0.06752800 0.06099998 0.13300000
v 0.05590999 0.07179898 0.13300000
v 0.08898097 0.01906299 0.13300000
v 0.09013497 -0.01251995 0.13300000
v 0.09093898 0.00332201 0.13300000
v 0.08431899 0.03422498 0.13300000
v -0.09093898 -0.00332194 0.12000000
v -0.08431899 -0.03422492 0.12000000
v -0.08898097 -0.01906293 0.12000000
v -0.04259300 -0.08041697 0.12000000
v -0.05590999 -0.07179898 0.12000000
v -0.06752800 -0.06099992 0.12000000
v -0.08041697 0.04259300 0.12000000
v -0.09013497 0.01252001 0.12000000
v -0.08659100 0.02798098 0.12000000
v -0.07709497 -0.04834693 0.12000000
v -0.06099998 0.06752800 0.12000000
v -0.07179898 0.05590999 0.12000000
v -0.03422498 0.08431899 0.12000000
v -0.04834699 0.07709503 0.12000000
v 0.03422498 -0.08431893 0.12000000
v 0.01906299 -0.08898097 0.12000000
v 0.00332194 -0.09093892 0.12000000
v -0.01906299 0.08898103 0.12000000
v -0.00332194 0.09093898 0.12000000
v -0.02798098 -0.08659094 0.12000000
v 0.02798098 0.08659100 0.12000000
v 0.01251995 0.09013503 0.12000000
v -0.01251995 -0.09013497 0.12000000
v 0.08659100 -0.02798098 0.12000000
v 0.06099998 -0.06752794 0.12000000
v 0.04834699 -0.07709497 0.12000000
v 0.07179898 -0.05590993 0.12000000
v 0.08041697 -0.04259294 0.12000000
v 0.07709497 0.04834699 0.12000000
v 0.04259300 0.08041703 0.12000000
v 0.05590999 0.07179898 0.12000000
v 0.06752800 0.06099998 0.12000000
v 0.08898097 0.01906299 0.12000000
v 0.09093898 0.00332201 0.12000000
v 0.09013497 -0.01251995 0.12000000
v 0.08431899 0.03422498 0.12000000
f 1 2 3
f 1 3 4
f 5 4 6
f 5 1 4
f 7 6 8
f 7 8 9
f 7 5 6
f 10 7 9
f 11 9 12
f 11 10 9
f 13 11 12
f 13 12 14
f 15 13 14
f 15 14 16
f 17 15 16
f 17 16 18
f 19 17 18
f 19 18 20
f 21 19 20
f 21 20 22
f 23 21 22
f 23 22 24
f 25 23 24
f 25 24 26
f 27 25 26
f 27 26 28
f 29 27 28
f 29 28 30
f 31 29 30
f 31 30 32
f 33 31 32
f 33 32 34
f 35 33 34
f 35 34 36
f 37 35 36
f 37 36 38
f 39 37 38
f 39 38 40
f 41 39 40
f 41 40 42
f 43 42 44
f 43 41 42
f 45 44 46
f 45 43 44
f 47 46 48
f 47 45 46
f 49 48 50
f 49 47 48
f 51 50 52
f 51 49 50
f 53 52 54
f 53 51 52
f 55 54 56
f 55 53 54
f 57 56 58
f 57 55 56
f 59 58 60
f 59 57 58
f 61 60 62
f 61 59 60
f 63 61 62
f 63 62 64
f 65 63 64
f 65 64 66
f 67 65 66
f 67 66 68
f 69 67 68
f 69 68 70
f 71 69 70
f 71 70 72
f 73 71 72
f 73 72 74
f 75 76 77
f 78 77 79
f 80 81 75
f 82 78 83
f 84 75 77
f 84 77 78
f 84 80 75
f 84 78 82
f 85 86 84
f 87 88 89
f 90 91 85
f 92 87 93
f 94 90 85
f 94 85 84
f 95 82 88
f 95 88 87
f 95 87 92
f 96 97 94
f 98 96 94
f 99 100 101
f 102 100 99
f 103 104 98
f 105 103 98
f 106 95 100
f 106 102 107
f 106 100 102
f 108 105 98
f 109 108 98
f 109 84 82
f 109 82 95
f 109 94 84
f 109 98 94
f 109 95 106
f 110 108 109
f 111 112 113
f 114 115 112
f 116 111 117
f 118 119 114
f 120 112 111
f 120 114 112
f 120 111 116
f 120 118 114
f 121 120 122
f 123 124 125
f 126 121 127
f 128 129 123
f 130 121 126
f 130 120 121
f 131 125 118
f 131 123 125
f 131 128 123
f 132 130 133
f 134 130 132
f 135 136 137
f 138 135 137
f 139 134 140
f 141 134 139
f 142 137 131
f 142 143 138
f 142 138 137
f 144 134 141
f 145 134 144
f 145 118 120
f 145 131 118
f 145 120 130
f 145 130 134
f 145 142 131
f 146 145 144
f 147 148 149
f 147 149 150
f 151 150 152
f 151 147 150
f 153 152 154
f 153 154 155
f 153 151 152
f 156 153 155
f 157 155 158
f 157 156 155
f 159 158 160
f 159 160 161
f 159 157 158
f 162 159 161
f 162 161 163
f 164 162 163
f 165 164 163
f 165 163 166
f 167 165 166
f 167 166 168
f 169 167 168
f 169 168 170
f 171 169 170
f 171 170 172
f 173 171 172
f 173 172 174
f 175 173 174
f 175 174 176
f 177 175 176
f 177 176 178
f 179 177 178
f 179 178 180
f 181 179 180
f 181 180 182
f 183 181 182
f 183 182 184
f 185 183 184
f 185 184 186
f 187 186 188
f 187 185 186
f 189 187 188
f 189 188 190
f 191 190 192
f 191 189 190
f 193 192 194
f 193 194 195
f 193 191 192
f 196 193 195
f 197 195 198
f 197 196 195
f 199 198 200
f 199 197 198
f 201 200 202
f 201 199 200
f 203 202 204
f 203 201 202
f 205 204 206
f 205 203 204
f 207 206 208
f 207 205 206
f 209 207 208
f 209 208 210
f 211 209 210
f 211 210 212
f 213 211 212
f 213 212 214
f 215 213 214
f 215 214 216
f 217 215 216
f 217 216 218
f 219 217 218
f 219 218 220
f 221 222 223
f 224 225 226
f 227 228 229
f 227 229 221
f 227 223 230
f 227 221 223
f 231 232 227
f 231 230 225
f 231 227 230
f 233 234 231
f 235 236 237
f 238 231 225
f 238 233 231
f 239 224 240
f 239 225 224
f 239 238 225
f 241 242 239
f 241 240 243
f 241 243 236
f 241 239 240
f 244 245 246
f 244 246 247
f 244 247 248
f 249 250 241
f 249 235 245
f 249 251 252
f 249 252 250
f 249 236 235
f 249 241 236
f 253 254 255
f 256 244 254
f 256 245 244
f 256 249 245
f 256 254 253
f 257 258 259
f 260 261 262
f 263 264 265
f 263 257 264
f 263 266 258
f 263 258 257
f 267 263 268
f 267 262 266
f 267 266 263
f 269 267 270
f 271 272 273
f 274 262 267
f 274 267 269
f 275 276 260
f 275 260 262
f 275 262 274
f 277 275 278
f 277 279 276
f 277 273 279
f 277 276 275
f 280 281 282
f 280 283 281
f 280 284 283
f 285 277 286
f 285 282 271
f 285 287 288
f 285 286 287
f 285 271 273
f 285 273 277
f 289 290 291
f 292 291 280
f 292 280 282
f 292 282 285
f 292 289 291

