# https://github.com/mikedh/trimesh
v 0.00547695 0.24115700 -0.06566900
v 0.00000000 0.24055301 -0.06672400
v 0.00000000 0.24066000 -0.06663596
v 0.00000000 0.24075300 -0.06650900
v 0.00000000 0.24094000 -0.06609702
v 0.00000000 0.24100000 -0.06598097
v 0.00000000 0.24106100 -0.06589001
v -0.00000100 0.24120110 -0.06576400
v 0.01079398 0.24033201 -0.06638997
v 0.01021796 0.24105699 -0.06542700
v 0.01064294 0.24102999 -0.06540697
v 0.01098698 0.24097210 -0.06541198
v 0.01129198 0.24087900 -0.06543999
v 0.01156896 0.24074900 -0.06549197
v 0.01095098 0.24029399 -0.06639897
v 0.01181399 0.24058610 -0.06556600
v 0.01107394 0.24024400 -0.06641697
v 0.01197195 0.24044900 -0.06563198
v 0.01122397 0.24014699 -0.06646096
v 0.01211094 0.24029911 -0.06570798
v 0.01134699 0.24001500 -0.06652700
v 0.01139897 0.23993400 -0.06656998
v 0.01228696 0.24004810 -0.06583797
v 0.01148694 0.23973100 -0.06668001
v 0.01144295 0.23984900 -0.06661599
v 0.01151496 0.23960310 -0.06675201
v 0.01242095 0.23976600 -0.06599098
v 0.01154696 0.23922610 -0.06696701
v 0.01152396 0.23661000 -0.06844401
v 0.01153099 0.23289900 -0.07042402
v 0.01252996 0.22658800 -0.07286298
v 0.01153099 0.22627901 -0.07364398
v 0.01252597 0.22349811 -0.07425099
v 0.01153099 0.22262400 -0.07525897
v 0.01253098 0.22053900 -0.07550400
v 0.01151996 0.22074300 -0.07604700
v 0.01251196 0.22019701 -0.07564598
v 0.01243698 0.21987900 -0.07578200
v 0.01234096 0.21963701 -0.07588797
v 0.01150095 0.22049600 -0.07615000
v 0.01221400 0.21940909 -0.07599002
v 0.01146596 0.22033501 -0.07621800
v 0.01138895 0.22013099 -0.07630699
v 0.01205796 0.21919601 -0.07608896
v 0.01129299 0.21997911 -0.07637602
v 0.01067298 0.21953011 -0.07656401
v 0.01054894 0.21969000 -0.07654899
v 0.01076698 0.21969900 -0.07652896
v 0.01073396 0.21943000 -0.07654798
v 0.01095700 0.21974300 -0.07649701
v 0.01187294 0.21900509 -0.07617998
v 0.01120495 0.21988600 -0.07642096
v 0.01111996 0.21982209 -0.07645297
v 0.01079797 0.21930800 -0.07651698
v 0.01166498 0.21884400 -0.07626098
v 0.01101100 0.21888299 -0.07638698
v 0.01143795 0.21871699 -0.07633000
v 0.01110094 0.21874011 -0.07636898
v 0.01119399 0.21862601 -0.07638502
v 0.01095497 0.21858200 -0.07642096
v 0.01110094 0.21874011 -0.07636898
v 0.01119399 0.21862601 -0.07638502
v 0.01101100 0.21888299 -0.07638698
v 0.01063197 0.21856099 -0.07645297
v 0.01079797 0.21930800 -0.07651698
v 0.01073396 0.21943000 -0.07654798
v 0.00996900 0.21856511 -0.07649797
v 0.01067298 0.21953011 -0.07656401
v 0.01054894 0.21969000 -0.07654899
v 0.00000000 0.21984410 -0.07686996
v 0.00000000 0.21971101 -0.07690197
v 0.00000000 0.21955401 -0.07689696
v 0.00000000 0.21911711 -0.07678902
v 0.00000000 0.21900010 -0.07676601
v 0.00000000 0.21890099 -0.07675600
v 0.00000000 0.21879201 -0.07676202
v 0.00000000 0.21869510 -0.07678902
v 0.00576496 0.23063301 -0.07151597
v 0.00576496 0.22393900 -0.07504200
v 0.00572896 0.23109099 -0.07171100
v 0.00576496 0.22365400 -0.07475697
v 0.00574398 0.23076400 -0.07145202
v 0.00569195 0.23088901 -0.07139199
v 0.00561196 0.23100001 -0.07133996
v 0.00567698 0.23119611 -0.07166099
v 0.00561798 0.23127501 -0.07162398
v 0.00551200 0.23108810 -0.07129997
v 0.00553298 0.23135400 -0.07158797
v 0.00541997 0.23114100 -0.07127696
v 0.00543195 0.23141700 -0.07156097
v 0.00528198 0.23119099 -0.07125699
v 0.00531697 0.23146300 -0.07154297
v 0.00519496 0.23148900 -0.07153397
v 0.00513297 0.23121201 -0.07125198
v 0.00374097 0.23151200 -0.07157099
v 0.00323796 0.23123400 -0.07129800
v 0.00128096 0.23153000 -0.07160699
v 0.00128096 0.23124699 -0.07132399
v 0.00661999 0.22392499 -0.07501000
v 0.00576496 0.22393900 -0.07504200
v 0.00576496 0.22365400 -0.07475697
v 0.00661999 0.22364099 -0.07472598
v 0.00747395 0.22390801 -0.07497501
v 0.00747395 0.22362299 -0.07468998
v 0.00832796 0.22388799 -0.07493698
v 0.00832796 0.22360300 -0.07465201
v 0.00521499 0.23377500 -0.07036596
v 0.00128096 0.23352800 -0.07015800
v 0.00128096 0.23381200 -0.07044202
v 0.00558496 0.23345810 -0.07008701
v 0.00572300 0.23371799 -0.07037496
v 0.00604695 0.23336010 -0.07011801
v 0.00612098 0.23362011 -0.07040798
v 0.00646800 0.23321110 -0.07017600
v 0.00656295 0.23345000 -0.07047498
v 0.00681895 0.23303610 -0.07024997
v 0.00688696 0.23327699 -0.07054799
v 0.00722098 0.23304510 -0.07064998
v 0.00716597 0.23280799 -0.07035100
v 0.00755095 0.23274399 -0.07078701
v 0.00749499 0.23252100 -0.07047998
v 0.00775295 0.23250900 -0.07089596
v 0.00780797 0.23215500 -0.07064998
v 0.00794697 0.23222300 -0.07103002
v 0.00804800 0.23175800 -0.07083797
v 0.00812799 0.23186010 -0.07120299
v 0.00821298 0.23134200 -0.07103800
v 0.00822896 0.23156799 -0.07134401
v 0.00830400 0.23120400 -0.07152098
v 0.00829595 0.23097999 -0.07121402
v 0.00832796 0.22776709 -0.07318300
v 0.00832796 0.22721800 -0.07302600
v 0.00832796 0.22388799 -0.07493698
v 0.00832796 0.22360300 -0.07465201
v -0.00128096 0.23570000 -0.06944197
v -0.00128096 0.23663799 -0.06893301
v -0.00128096 0.23635200 -0.06864601
v -0.00128096 0.23541400 -0.06915599
v -0.00128096 0.23475800 -0.06994497
v -0.00128096 0.23447309 -0.06966000
v -0.00128096 0.23381200 -0.07044100
v -0.00128096 0.23352800 -0.07015699
v -0.00576496 0.22898901 -0.07231396
v -0.00576496 0.22686300 -0.07372796
v -0.00576496 0.22658101 -0.07344597
v -0.00576496 0.22990701 -0.07228797
v -0.00576496 0.23058300 -0.07153600
v -0.00576496 0.23090801 -0.07179701
v -0.00575399 0.23072800 -0.07146501
v -0.00573897 0.23106609 -0.07172000
v -0.00568896 0.23089600 -0.07138401
v -0.00569999 0.23115800 -0.07167601
v -0.00564694 0.23123901 -0.07163697
v -0.00557697 0.23103410 -0.07131999
v -0.00558394 0.23131000 -0.07160496
v -0.00549894 0.23137701 -0.07157498
v -0.00549400 0.23109800 -0.07129198
v -0.00540400 0.23142910 -0.07155197
v -0.00540096 0.23114900 -0.07126998
v -0.00529796 0.23146699 -0.07153797
v -0.00529695 0.23118600 -0.07125598
v -0.00518894 0.23120600 -0.07124900
v -0.00518596 0.23148900 -0.07153099
v -0.00388497 0.23122700 -0.07128298
v -0.00379896 0.23151010 -0.07156699
v -0.00128096 0.23124599 -0.07132297
v -0.00128096 0.23152900 -0.07160598
v -0.00128096 0.22829001 -0.07318001
v -0.00128096 0.23152900 -0.07160598
v -0.00128096 0.23124599 -0.07132297
v -0.00128096 0.22688100 -0.07342296
v -0.00127596 0.22719900 -0.07368898
v -0.00128698 0.22683699 -0.07385599
v -0.00128996 0.22654000 -0.07357996
v -0.00131297 0.22673410 -0.07390397
v -0.00131994 0.22643100 -0.07362902
v -0.00138795 0.22659110 -0.07396799
v -0.00139999 0.22629200 -0.07369196
v -0.00148100 0.22648899 -0.07401400
v -0.00151598 0.22617701 -0.07374298
v -0.00159699 0.22640800 -0.07404899
v -0.00160098 0.22612201 -0.07376700
v -0.00173700 0.22635099 -0.07407301
v -0.00175595 0.22606300 -0.07379198
v -0.00188196 0.22632501 -0.07408297
v -0.00192499 0.22604001 -0.07379996
v -0.00492400 0.22600600 -0.07374101
v -0.00518298 0.22629300 -0.07401198
v -0.00521499 0.22601300 -0.07372701
v -0.00535399 0.22632700 -0.07398998
v -0.00536299 0.22604810 -0.07370597
v -0.00548500 0.22638699 -0.07395696
v -0.00548994 0.22610800 -0.07367300
v -0.00557899 0.22645700 -0.07392197
v -0.00558299 0.22617809 -0.07363796
v -0.00567394 0.22656500 -0.07386797
v -0.00567496 0.22628500 -0.07358497
v -0.00573599 0.22669099 -0.07380801
v -0.00573695 0.22640900 -0.07352596
v -0.00576496 0.22686300 -0.07372796
v -0.00576496 0.22658101 -0.07344597
v -0.00159699 0.22640800 -0.07404899
v -0.00138795 0.22659110 -0.07396799
v -0.00148100 0.22648899 -0.07401400
v -0.00173700 0.22635099 -0.07407301
v -0.00131297 0.22673410 -0.07390397
v -0.00128698 0.22683699 -0.07385599
v -0.00188196 0.22632501 -0.07408297
v -0.00127596 0.22719900 -0.07368898
v -0.00128096 0.22829001 -0.07318001
v -0.00518298 0.22629300 -0.07401198
v -0.00576496 0.22686300 -0.07372796
v -0.00535399 0.22632700 -0.07398998
v -0.00548500 0.22638699 -0.07395696
v -0.00557899 0.22645700 -0.07392197
v -0.00567394 0.22656500 -0.07386797
v -0.00573599 0.22669099 -0.07380801
v -0.00379896 0.23151010 -0.07156699
v -0.00128096 0.23152900 -0.07160598
v -0.00576496 0.22990701 -0.07228797
v -0.00518596 0.23148900 -0.07153099
v -0.00576496 0.23090801 -0.07179701
v -0.00573897 0.23106609 -0.07172000
v -0.00529796 0.23146699 -0.07153797
v -0.00569999 0.23115800 -0.07167601
v -0.00564694 0.23123901 -0.07163697
v -0.00540400 0.23142910 -0.07155197
v -0.00558394 0.23131000 -0.07160496
v -0.00549894 0.23137701 -0.07157498
v -0.00542295 0.21866810 -0.07669496
v 0.00000000 0.21984410 -0.07686996
v 0.00000000 0.21971101 -0.07690197
v 0.00000000 0.21955401 -0.07689696
v 0.00000000 0.21911711 -0.07678902
v 0.00000000 0.21900010 -0.07676601
v 0.00000000 0.21890099 -0.07675600
v 0.00000000 0.21879201 -0.07676202
v 0.00000000 0.21869510 -0.07678902
v -0.01042699 0.21968600 -0.07655197
v -0.01089495 0.21857600 -0.07642000
v -0.01117998 0.21863800 -0.07637399
v -0.01068395 0.21969400 -0.07652997
v -0.01144999 0.21873499 -0.07631397
v -0.01087498 0.21972799 -0.07650196
v -0.01105296 0.21980099 -0.07645899
v -0.01175194 0.21890500 -0.07622200
v -0.01120495 0.21991000 -0.07640296
v -0.01198196 0.21908700 -0.07613098
v -0.01130998 0.22003600 -0.07634496
v -0.01217496 0.21929400 -0.07603096
v -0.01138496 0.22020499 -0.07627201
v -0.01144599 0.22043300 -0.07617497
v -0.01233094 0.21952900 -0.07592397
v -0.01244294 0.21977900 -0.07581299
v -0.01151996 0.22106200 -0.07590800
v -0.01250594 0.22004400 -0.07569998
v -0.01252895 0.22063410 -0.07545596
v -0.01152998 0.22397301 -0.07466799
v -0.01256197 0.22403599 -0.07400399
v -0.01153099 0.22780800 -0.07292801
v -0.01252800 0.23319100 -0.06960797
v -0.01152700 0.23908800 -0.06703996
v -0.01246994 0.23654100 -0.06781196
v -0.01244896 0.23941700 -0.06618201
v -0.01150000 0.23945400 -0.06683099
v -0.01239997 0.23968410 -0.06603097
v -0.01232296 0.23991700 -0.06590199
v -0.01143699 0.23974900 -0.06666499
v -0.01222699 0.24009900 -0.06580501
v -0.01139396 0.23987000 -0.06659901
v -0.01134300 0.23997299 -0.06654298
v -0.01211196 0.24026000 -0.06572097
v -0.01121199 0.24013200 -0.06646299
v -0.01197195 0.24041399 -0.06564396
v -0.01179295 0.24056099 -0.06557399
v -0.01104098 0.24021900 -0.06642699
v -0.01131397 0.24086399 -0.06543797
v -0.01153194 0.24071300 -0.06550800
v -0.01151698 0.24076299 -0.06547999
v -0.01054298 0.24102800 -0.06540900
v -0.01075398 0.24028900 -0.06640899
v -0.01081597 0.24100100 -0.06540101
v -0.00496894 0.24051510 -0.06664401
v 0.00000000 0.24066000 -0.06663596
v 0.00000000 0.24055301 -0.06672400
v 0.00000000 0.24075300 -0.06650900
v 0.00000000 0.24094000 -0.06609702
v 0.00000000 0.24100000 -0.06598097
v 0.00000000 0.24106100 -0.06589001
v -0.00000100 0.24120110 -0.06576400
v -0.01081395 0.24033099 -0.06638097
v -0.01106494 0.24094900 -0.06541001
v -0.01134300 0.23997299 -0.06654298
v -0.01121199 0.24013200 -0.06646299
v -0.01104098 0.24021900 -0.06642699
v -0.01139396 0.23987000 -0.06659901
v -0.01143699 0.23974900 -0.06666499
v -0.01075398 0.24028900 -0.06640899
v -0.01150000 0.23945400 -0.06683099
v -0.01152700 0.23908800 -0.06703996
v -0.00591797 0.23367409 -0.07038396
v -0.00621396 0.23358800 -0.07041501
v -0.00496894 0.24051510 -0.06664401
v -0.00561398 0.23373400 -0.07036697
v -0.00128096 0.23663799 -0.06893301
v 0.00000000 0.24055301 -0.06672400
v -0.00380796 0.23379301 -0.07040101
v -0.00128096 0.23570000 -0.06944197
v -0.01153099 0.22780800 -0.07292801
v -0.00829500 0.23126809 -0.07148396
v -0.00832796 0.23042300 -0.07190096
v -0.00822699 0.23157310 -0.07133501
v -0.00128096 0.23475800 -0.06994497
v -0.00128096 0.23381200 -0.07044100
v -0.00832695 0.22691999 -0.07357096
v -0.00829697 0.22644401 -0.07379198
v -0.01152998 0.22397301 -0.07466799
v -0.00823498 0.22612201 -0.07394200
v -0.00815499 0.22587100 -0.07406097
v -0.00804096 0.22561210 -0.07418400
v -0.00789899 0.22536300 -0.07430398
v -0.00773096 0.22512800 -0.07441902
v -0.00753796 0.22491001 -0.07452601
v -0.00731897 0.22470701 -0.07462799
v -0.00706697 0.22451600 -0.07472497
v -0.01151996 0.22106200 -0.07590800
v -0.00677895 0.22434209 -0.07481598
v -0.00645697 0.22419199 -0.07489699
v 0.00521499 0.23377500 -0.07036596
v 0.00128096 0.23570000 -0.06944298
v 0.00128096 0.23663899 -0.06893396
v 0.00128096 0.23475800 -0.06994599
v 0.00128096 0.23381200 -0.07044202
v 0.00572300 0.23371799 -0.07037496
v -0.01068395 0.21969400 -0.07652997
v -0.01087498 0.21972799 -0.07650196
v -0.01105296 0.21980099 -0.07645899
v -0.01120495 0.21991000 -0.07640296
v -0.01130998 0.22003600 -0.07634496
v -0.01138496 0.22020499 -0.07627201
v -0.01042699 0.21968600 -0.07655197
v -0.01144599 0.22043300 -0.07617497
v -0.00606996 0.22406410 -0.07497000
v -0.00557297 0.22397099 -0.07503199
v 0.01134699 0.24001500 -0.06652700
v 0.01107394 0.24024400 -0.06641697
v 0.01122397 0.24014699 -0.06646096
v 0.01139897 0.23993400 -0.06656998
v 0.01095098 0.24029399 -0.06639897
v 0.01144295 0.23984900 -0.06661599
v 0.01148694 0.23973100 -0.06668001
v 0.01079398 0.24033201 -0.06638997
v 0.01151496 0.23960310 -0.06675201
v 0.01154696 0.23922610 -0.06696701
v 0.00561798 0.23127501 -0.07162398
v 0.00543195 0.23141700 -0.07156097
v 0.00553298 0.23135400 -0.07158797
v 0.00531697 0.23146300 -0.07154297
v 0.00567698 0.23119611 -0.07166099
v 0.00519496 0.23148900 -0.07153397
v 0.00128198 0.22698610 -0.07378798
v 0.00128096 0.23153000 -0.07160699
v 0.00374097 0.23151200 -0.07157099
v 0.00572896 0.23109099 -0.07171100
v 0.01152396 0.23661000 -0.06844401
v 0.00688696 0.23327699 -0.07054799
v 0.00656295 0.23345000 -0.07047498
v 0.00722098 0.23304510 -0.07064998
v 0.01153099 0.23289900 -0.07042402
v 0.00755095 0.23274399 -0.07078701
v 0.00775295 0.23250900 -0.07089596
v 0.00794697 0.23222300 -0.07103002
v 0.00812799 0.23186010 -0.07120299
v 0.00822896 0.23156799 -0.07134401
v 0.00830400 0.23120400 -0.07152098
v 0.00000000 0.21984410 -0.07686996
v -0.00046500 0.22430700 -0.07499599
v -0.00011300 0.22449911 -0.07491296
v -0.00085300 0.22415310 -0.07506096
v -0.00122994 0.22405510 -0.07510101
v -0.00158697 0.22400300 -0.07511997
v 0.00576496 0.22393900 -0.07504200
v 0.00124598 0.22648500 -0.07401800
v 0.00116295 0.22612700 -0.07418102
v 0.00103199 0.22578099 -0.07433897
v 0.00078500 0.22535001 -0.07453399
v 0.00049800 0.22499800 -0.07469201
v 0.00019700 0.22472000 -0.07481497
v 0.01153099 0.22627901 -0.07364398
v 0.00832796 0.22776709 -0.07318300
v 0.00832796 0.22388799 -0.07493698
v 0.01153099 0.22262400 -0.07525897
v 0.01151996 0.22074300 -0.07604700
v 0.01054894 0.21969000 -0.07654899
v 0.00747395 0.22390801 -0.07497501
v 0.00661999 0.22392499 -0.07501000
v 0.01150095 0.22049600 -0.07615000
v 0.01146596 0.22033501 -0.07621800
v 0.01138895 0.22013099 -0.07630699
v 0.01129299 0.21997911 -0.07637602
v 0.01076698 0.21969900 -0.07652896
v 0.01111996 0.21982209 -0.07645297
v 0.01095700 0.21974300 -0.07649701
v 0.01120495 0.21988600 -0.07642096
v -0.01039898 0.23830301 -0.06758600
v -0.00812298 0.23187099 -0.07119196
v -0.00798297 0.23215801 -0.07105499
v -0.00777298 0.23247901 -0.07090401
v -0.00751996 0.23277400 -0.07076698
v -0.00727099 0.23300301 -0.07066398
v -0.00703198 0.23318200 -0.07058399
v -0.00677395 0.23334099 -0.07051599
v -0.00650096 0.23347700 -0.07045900
v 0.00004800 0.23778801 -0.06830501
v -0.00042700 0.23664200 -0.06893700
v 0.00042700 0.23664200 -0.06893700
v 0.01049596 0.23830301 -0.06758600
v 0.00612098 0.23362011 -0.07040798
v 0.00042700 0.23635501 -0.06865000
v 0.00128096 0.23663899 -0.06893396
v 0.00128096 0.23635200 -0.06864696
v 0.00042700 0.23664200 -0.06893700
v -0.00042700 0.23664200 -0.06893700
v -0.00042700 0.23635501 -0.06865000
v -0.00128096 0.23663799 -0.06893301
v -0.00128096 0.23635200 -0.06864601
v 0.00128096 0.22760201 -0.07308900
v 0.00128096 0.23124699 -0.07132399
v 0.00128096 0.23153000 -0.07160699
v 0.00128198 0.22698610 -0.07378798
v 0.00124794 0.22621299 -0.07372999
v 0.00124598 0.22648500 -0.07401800
v 0.00116295 0.22584200 -0.07389998
v 0.00116295 0.22612700 -0.07418102
v 0.00102496 0.22548300 -0.07406198
v 0.00103199 0.22578099 -0.07433897
v 0.00083600 0.22514300 -0.07421600
v 0.00078500 0.22535001 -0.07453399
v 0.00052200 0.22473900 -0.07439696
v 0.00049800 0.22499800 -0.07469201
v 0.00023400 0.22446699 -0.07451796
v 0.00019700 0.22472000 -0.07481497
v -0.00009000 0.22423010 -0.07462197
v -0.00011300 0.22449911 -0.07491296
v -0.00043900 0.22403499 -0.07470697
v -0.00046500 0.22430700 -0.07499599
v -0.00081300 0.22388200 -0.07477200
v -0.00085300 0.22415310 -0.07506096
v -0.00119197 0.22377700 -0.07481497
v -0.00122994 0.22405510 -0.07510101
v -0.00154894 0.22372210 -0.07483500
v -0.00158697 0.22400300 -0.07511997
v -0.00201297 0.22369599 -0.07484000
v -0.00557297 0.22397099 -0.07503199
v -0.00530898 0.22367001 -0.07476496
v -0.00587797 0.22373611 -0.07471299
v -0.00606996 0.22406410 -0.07497000
v -0.00635695 0.22386900 -0.07463401
v -0.00645697 0.22419199 -0.07489699
v -0.00674498 0.22404000 -0.07454097
v -0.00677895 0.22434209 -0.07481598
v -0.00706697 0.22451600 -0.07472497
v -0.00717598 0.22430900 -0.07440102
v -0.00731897 0.22470701 -0.07462799
v -0.00747597 0.22456500 -0.07427299
v -0.00753796 0.22491001 -0.07452601
v -0.00770897 0.22481699 -0.07414799
v -0.00773096 0.22512800 -0.07441902
v -0.00790697 0.22509199 -0.07401400
v -0.00789899 0.22536300 -0.07430398
v -0.00804096 0.22561210 -0.07418400
v -0.00806898 0.22538701 -0.07387298
v -0.00815499 0.22587100 -0.07406097
v -0.00819397 0.22569710 -0.07372599
v -0.00823498 0.22612201 -0.07394200
v -0.00827700 0.22601800 -0.07357501
v -0.00829697 0.22644401 -0.07379198
v -0.00832099 0.22634700 -0.07342296
v -0.00832695 0.22691999 -0.07357096
v -0.00832796 0.23031101 -0.07153797
v -0.00832796 0.23042300 -0.07190096
v -0.00829500 0.23126809 -0.07148396
v -0.00829399 0.23097900 -0.07120901
v -0.00822699 0.23157310 -0.07133501
v -0.00818199 0.23143700 -0.07098597
v -0.00812298 0.23187099 -0.07119196
v -0.00797695 0.23188899 -0.07076996
v -0.00798297 0.23215801 -0.07105499
v -0.00776500 0.23221099 -0.07061797
v -0.00777298 0.23247901 -0.07090401
v -0.00751996 0.23277400 -0.07076698
v -0.00750798 0.23250709 -0.07048201
v -0.00727099 0.23300301 -0.07066398
v -0.00720996 0.23277210 -0.07036197
v -0.00703198 0.23318200 -0.07058399
v -0.00687897 0.23300000 -0.07026100
v -0.00677395 0.23334099 -0.07051599
v -0.00651795 0.23318800 -0.07018101
v -0.00650096 0.23347700 -0.07045900
v -0.00621396 0.23358800 -0.07041501
v -0.00613195 0.23333310 -0.07012397
v -0.00591797 0.23367409 -0.07038396
v -0.00560695 0.23345409 -0.07008397
v -0.00561398 0.23373400 -0.07036697
v -0.00416398 0.23350599 -0.07010996
v -0.00380796 0.23379301 -0.07040101
v -0.00128096 0.23352800 -0.07015699
v -0.00128096 0.23381200 -0.07044100
v 0.00832796 0.22721800 -0.07302600
v 0.00832796 0.22360300 -0.07465201
v 0.00747395 0.22362299 -0.07468998
v 0.00661999 0.22364099 -0.07472598
v 0.00576496 0.22365400 -0.07475697
v 0.00576496 0.23063301 -0.07151597
v 0.00829595 0.23097999 -0.07121402
v 0.00574398 0.23076400 -0.07145202
v 0.00804800 0.23175800 -0.07083797
v 0.00821298 0.23134200 -0.07103800
v 0.00569195 0.23088901 -0.07139199
v 0.00780797 0.23215500 -0.07064998
v 0.00561196 0.23100001 -0.07133996
v 0.00749499 0.23252100 -0.07047998
v 0.00551200 0.23108810 -0.07129997
v 0.00716597 0.23280799 -0.07035100
v 0.00681895 0.23303610 -0.07024997
v 0.00541997 0.23114100 -0.07127696
v 0.00646800 0.23321110 -0.07017600
v 0.00528198 0.23119099 -0.07125699
v -0.00151598 0.22617701 -0.07374298
v 0.00052200 0.22473900 -0.07439696
v 0.00023400 0.22446699 -0.07451796
v -0.00009000 0.22423010 -0.07462197
v -0.00139999 0.22629200 -0.07369196
v 0.00083600 0.22514300 -0.07421600
v -0.00160098 0.22612201 -0.07376700
v -0.00043900 0.22403499 -0.07470697
v -0.00081300 0.22388200 -0.07477200
v -0.00131994 0.22643100 -0.07362902
v 0.00116295 0.22584200 -0.07389998
v 0.00102496 0.22548300 -0.07406198
v -0.00175595 0.22606300 -0.07379198
v -0.00119197 0.22377700 -0.07481497
v -0.00154894 0.22372210 -0.07483500
v -0.00128996 0.22654000 -0.07357996
v 0.00124794 0.22621299 -0.07372999
v -0.00192499 0.22604001 -0.07379996
v -0.00201297 0.22369599 -0.07484000
v -0.00128096 0.22688100 -0.07342296
v 0.00128096 0.22760201 -0.07308900
v 0.00604695 0.23336010 -0.07011801
v 0.00558496 0.23345810 -0.07008701
v 0.00513297 0.23121201 -0.07125198
v 0.00323796 0.23123400 -0.07129800
v -0.00492400 0.22600600 -0.07374101
v -0.00530898 0.22367001 -0.07476496
v -0.00521499 0.22601300 -0.07372701
v -0.00587797 0.22373611 -0.07471299
v -0.00536299 0.22604810 -0.07370597
v -0.00635695 0.22386900 -0.07463401
v -0.00674498 0.22404000 -0.07454097
v -0.00548994 0.22610800 -0.07367300
v -0.00717598 0.22430900 -0.07440102
v -0.00558299 0.22617809 -0.07363796
v -0.00747597 0.22456500 -0.07427299
v -0.00770897 0.22481699 -0.07414799
v -0.00567496 0.22628500 -0.07358497
v -0.00128096 0.23124599 -0.07132297
v 0.00128096 0.23124699 -0.07132399
v 0.00128096 0.23352800 -0.07015800
v -0.00790697 0.22509199 -0.07401400
v -0.00806898 0.22538701 -0.07387298
v -0.00573695 0.22640900 -0.07352596
v -0.00819397 0.22569710 -0.07372599
v -0.00827700 0.22601800 -0.07357501
v -0.00576496 0.22658101 -0.07344597
v -0.00832099 0.22634700 -0.07342296
v -0.00576496 0.22898901 -0.07231396
v -0.00128096 0.23352800 -0.07015699
v 0.00128096 0.23447309 -0.06966102
v -0.00388497 0.23122700 -0.07128298
v -0.00128096 0.23447309 -0.06966000
v 0.00128096 0.23541400 -0.06915700
v 0.00042700 0.23635501 -0.06865000
v 0.00128096 0.23635200 -0.06864696
v -0.00128096 0.23541400 -0.06915599
v -0.00042700 0.23635501 -0.06865000
v -0.00416398 0.23350599 -0.07010996
v -0.00518894 0.23120600 -0.07124900
v -0.00128096 0.23635200 -0.06864601
v -0.00832796 0.23031101 -0.07153797
v -0.00576496 0.23058300 -0.07153600
v -0.00829399 0.23097900 -0.07120901
v -0.00575399 0.23072800 -0.07146501
v -0.00560695 0.23345409 -0.07008397
v -0.00529695 0.23118600 -0.07125598
v -0.00818199 0.23143700 -0.07098597
v -0.00568896 0.23089600 -0.07138401
v -0.00613195 0.23333310 -0.07012397
v -0.00651795 0.23318800 -0.07018101
v -0.00540096 0.23114900 -0.07126998
v -0.00797695 0.23188899 -0.07076996
v -0.00687897 0.23300000 -0.07026100
v -0.00549400 0.23109800 -0.07129198
v -0.00776500 0.23221099 -0.07061797
v -0.00557697 0.23103410 -0.07131999
v -0.00720996 0.23277210 -0.07036197
v -0.00750798 0.23250709 -0.07048201
f 1 2 3
f 1 3 4
f 1 4 5
f 1 5 6
f 1 6 7
f 1 7 8
f 9 1 10
f 9 2 1
f 11 9 10
f 12 9 11
f 13 9 12
f 14 15 9
f 14 9 13
f 16 15 14
f 16 17 15
f 18 19 17
f 18 17 16
f 20 19 18
f 20 21 19
f 20 22 21
f 23 22 20
f 23 24 25
f 23 26 24
f 23 25 22
f 27 26 23
f 27 28 26
f 29 28 27
f 30 29 27
f 31 30 27
f 31 32 30
f 33 32 31
f 34 32 33
f 35 34 33
f 35 36 34
f 37 36 35
f 38 36 37
f 39 36 38
f 39 40 36
f 41 42 40
f 41 43 42
f 41 40 39
f 44 43 41
f 44 45 43
f 46 47 48
f 49 48 50
f 49 46 48
f 51 52 45
f 51 53 52
f 51 45 44
f 54 49 50
f 54 50 53
f 55 54 53
f 55 53 51
f 56 54 55
f 57 56 55
f 58 56 57
f 59 58 57
f 60 61 62
f 60 63 61
f 64 65 63
f 64 66 65
f 64 63 60
f 67 68 66
f 67 69 68
f 67 66 64
f 70 69 67
f 71 70 67
f 72 71 67
f 73 72 67
f 74 73 67
f 75 74 67
f 76 75 67
f 77 76 67
f 78 79 80
f 78 81 79
f 82 78 80
f 83 82 80
f 84 80 85
f 84 85 86
f 84 83 80
f 87 86 88
f 87 84 86
f 89 88 90
f 89 87 88
f 91 90 92
f 91 92 93
f 91 89 90
f 94 91 93
f 95 94 93
f 96 94 95
f 97 96 95
f 98 96 97
f 99 100 101
f 99 101 102
f 103 102 104
f 103 99 102
f 105 104 106
f 105 103 104
f 107 108 109
f 110 107 111
f 110 108 107
f 112 111 113
f 112 110 111
f 114 113 115
f 114 112 113
f 116 115 117
f 116 114 115
f 118 116 117
f 119 116 118
f 120 119 118
f 121 119 120
f 122 121 120
f 123 122 124
f 123 121 122
f 125 124 126
f 125 123 124
f 127 126 128
f 127 125 126
f 129 127 128
f 130 127 129
f 131 130 129
f 132 130 131
f 133 132 131
f 134 132 133
f 135 136 137
f 135 137 138
f 139 138 140
f 139 135 138
f 141 140 142
f 141 139 140
f 143 144 145
f 146 144 143
f 147 146 143
f 148 147 149
f 148 146 147
f 150 149 151
f 150 148 149
f 152 150 151
f 153 151 154
f 153 152 151
f 155 153 154
f 156 154 157
f 156 155 154
f 158 157 159
f 158 156 157
f 160 159 161
f 160 161 162
f 160 158 159
f 163 160 162
f 164 163 162
f 165 163 164
f 166 165 164
f 167 165 166
f 168 169 170
f 171 168 170
f 172 168 171
f 173 171 174
f 173 172 171
f 175 174 176
f 175 173 174
f 177 176 178
f 177 175 176
f 179 178 180
f 179 177 178
f 181 180 182
f 181 179 180
f 183 182 184
f 183 181 182
f 185 184 186
f 185 183 184
f 187 185 186
f 188 187 189
f 188 185 187
f 190 189 191
f 190 188 189
f 192 191 193
f 192 190 191
f 194 193 195
f 194 192 193
f 196 195 197
f 196 194 195
f 198 197 199
f 198 196 197
f 200 199 201
f 200 198 199
f 202 203 204
f 205 206 203
f 205 203 202
f 207 206 205
f 208 207 205
f 209 207 208
f 210 209 208
f 211 210 208
f 212 211 213
f 212 213 214
f 212 214 215
f 212 215 216
f 212 216 217
f 212 210 211
f 218 219 210
f 220 210 212
f 220 218 210
f 221 220 222
f 221 218 220
f 223 224 221
f 223 221 222
f 225 224 223
f 226 227 224
f 226 224 225
f 228 229 227
f 228 227 226
f 230 231 232
f 230 232 233
f 230 233 234
f 230 234 235
f 230 235 236
f 230 236 237
f 230 237 238
f 239 231 230
f 240 239 230
f 241 242 239
f 241 239 240
f 243 244 242
f 243 245 244
f 243 242 241
f 246 247 245
f 246 245 243
f 248 249 247
f 248 247 246
f 250 249 248
f 250 251 249
f 250 252 251
f 253 252 250
f 254 252 253
f 254 255 252
f 256 255 254
f 257 255 256
f 258 255 257
f 259 258 257
f 260 258 259
f 261 260 259
f 262 260 261
f 262 261 263
f 264 265 262
f 264 262 263
f 266 265 264
f 267 268 265
f 267 265 266
f 269 270 268
f 269 271 270
f 269 268 267
f 272 273 271
f 272 271 269
f 274 273 272
f 275 276 273
f 275 273 274
f 277 278 279
f 280 281 282
f 283 281 280
f 284 285 283
f 286 284 283
f 287 286 283
f 288 287 283
f 289 288 283
f 290 283 280
f 290 289 283
f 291 281 276
f 291 275 278
f 291 292 282
f 291 277 292
f 291 276 275
f 291 278 277
f 291 282 281
f 293 294 295
f 296 293 295
f 297 295 298
f 297 296 295
f 299 297 298
f 300 299 298
f 301 302 303
f 304 301 303
f 305 303 306
f 305 304 303
f 307 304 305
f 308 307 305
f 309 310 311
f 309 312 310
f 313 307 308
f 314 307 313
f 315 309 311
f 316 309 315
f 317 309 316
f 318 317 316
f 319 317 318
f 320 317 319
f 321 317 320
f 322 317 321
f 323 317 322
f 324 317 323
f 325 317 324
f 326 317 325
f 327 326 325
f 328 326 327
f 329 330 331
f 329 332 330
f 329 333 332
f 334 329 331
f 335 336 337
f 335 337 338
f 335 338 339
f 335 339 340
f 341 340 342
f 341 342 326
f 341 326 328
f 341 335 340
f 341 343 344
f 341 328 343
f 345 346 347
f 348 349 346
f 348 346 345
f 350 349 348
f 351 352 349
f 351 349 350
f 353 352 351
f 354 352 353
f 355 356 357
f 355 358 356
f 359 360 358
f 359 358 355
f 361 362 363
f 364 363 360
f 364 360 359
f 364 361 363
f 365 366 367
f 365 368 366
f 369 370 368
f 369 371 370
f 369 372 371
f 369 373 372
f 369 374 373
f 369 375 374
f 369 368 365
f 376 341 344
f 376 377 378
f 376 379 377
f 376 380 379
f 376 381 380
f 376 344 381
f 382 376 378
f 382 383 361
f 382 384 383
f 382 385 384
f 382 386 385
f 382 387 386
f 382 388 387
f 382 378 388
f 389 390 375
f 389 391 390
f 389 375 369
f 392 391 389
f 393 391 392
f 394 395 391
f 394 396 395
f 394 382 396
f 394 376 382
f 394 393 397
f 394 391 393
f 398 394 397
f 399 394 398
f 400 401 394
f 400 394 399
f 402 403 401
f 404 401 400
f 404 402 401
f 364 382 361
f 405 309 300
f 405 298 303
f 405 300 298
f 405 303 302
f 405 312 309
f 405 406 312
f 405 407 406
f 405 408 407
f 405 409 408
f 405 410 409
f 405 411 410
f 405 412 411
f 405 413 412
f 405 302 413
f 414 305 306
f 414 415 305
f 414 416 415
f 414 331 416
f 414 306 331
f 417 418 334
f 417 367 418
f 417 306 352
f 417 354 365
f 417 334 331
f 417 365 367
f 417 352 354
f 417 331 306
f 419 420 421
f 422 420 419
f 423 419 424
f 423 422 419
f 425 424 426
f 425 423 424
f 427 428 429
f 430 427 429
f 431 427 430
f 432 433 431
f 432 431 430
f 434 435 433
f 434 433 432
f 436 435 434
f 437 435 436
f 438 437 436
f 439 437 438
f 440 439 438
f 440 441 439
f 442 443 441
f 442 441 440
f 444 445 443
f 444 443 442
f 446 447 445
f 446 445 444
f 448 449 447
f 448 447 446
f 450 451 449
f 450 449 448
f 452 451 450
f 453 451 452
f 454 455 453
f 454 456 455
f 454 453 452
f 457 458 456
f 457 456 454
f 459 460 458
f 459 458 457
f 461 460 459
f 462 463 460
f 462 460 461
f 464 465 463
f 464 463 462
f 466 467 465
f 466 465 464
f 468 469 467
f 468 467 466
f 470 469 468
f 471 472 469
f 471 469 470
f 473 474 472
f 473 472 471
f 475 476 474
f 475 474 473
f 477 478 476
f 477 476 475
f 479 478 477
f 480 478 479
f 481 480 479
f 482 483 480
f 482 480 481
f 484 485 483
f 484 483 482
f 486 487 485
f 486 485 484
f 488 487 486
f 489 487 488
f 490 489 488
f 491 489 490
f 491 492 489
f 493 492 491
f 493 494 492
f 495 494 493
f 495 496 494
f 497 496 495
f 497 498 496
f 499 498 497
f 500 498 499
f 500 501 498
f 502 501 500
f 502 503 501
f 504 503 502
f 505 503 504
f 506 505 504
f 507 505 506
f 508 507 506
f 509 510 511
f 509 511 512
f 509 512 513
f 514 515 509
f 516 517 518
f 516 515 514
f 516 518 515
f 519 520 517
f 519 517 516
f 521 522 520
f 521 520 519
f 523 522 521
f 524 522 523
f 525 523 526
f 525 524 523
f 527 526 528
f 527 525 526
f 529 530 531
f 529 531 532
f 533 534 530
f 533 530 529
f 535 529 532
f 535 532 536
f 535 536 537
f 538 539 540
f 538 540 534
f 538 534 533
f 541 537 542
f 541 542 543
f 541 535 537
f 544 545 539
f 544 539 538
f 546 543 547
f 546 541 543
f 548 549 545
f 548 545 544
f 550 527 528
f 551 528 552
f 551 552 553
f 551 550 528
f 554 547 555
f 554 546 547
f 556 554 555
f 556 555 557
f 558 556 557
f 558 557 559
f 558 559 560
f 561 558 560
f 561 560 562
f 563 561 562
f 564 563 562
f 565 563 564
f 565 566 563
f 567 568 549
f 567 549 548
f 569 553 568
f 569 568 567
f 569 551 553
f 570 566 565
f 571 566 570
f 571 572 566
f 573 572 571
f 574 572 573
f 574 575 572
f 576 575 574
f 577 575 576
f 578 579 569
f 578 569 567
f 580 578 567
f 581 582 579
f 581 579 578
f 583 584 582
f 585 583 582
f 585 582 581
f 586 583 585
f 587 578 580
f 587 580 588
f 589 586 585
f 590 591 577
f 590 577 576
f 592 591 590
f 592 593 591
f 594 587 588
f 594 588 595
f 596 593 592
f 596 597 593
f 598 594 595
f 599 595 600
f 599 598 595
f 601 597 596
f 602 600 603
f 602 599 600
f 604 605 597
f 604 597 601
f 606 603 605
f 606 602 603
f 607 606 605
f 607 605 604
f 513 514 509

