# https://github.com/mikedh/trimesh
v 0.02452498 -0.04247885 0.06019997
v 0.03757399 -0.03152889 0.06019997
v 0.03152894 -0.03757387 0.06019997
v 0.04609197 -0.01677584 0.06019997
v 0.04247897 -0.02452486 0.06019997
v 0.04830497 -0.00851685 0.06019997
v 0.00851697 -0.04830485 0.06019997
v 0.01677596 -0.04609185 0.06019997
v 0.04830497 0.00851709 0.06019997
v 0.04904997 0.00000000 0.06019997
v -0.00851697 -0.04830485 0.06019997
v 0.00000000 -0.04904985 0.06019997
v -0.02452498 -0.04247885 0.06019997
v -0.01677596 -0.04609185 0.06019997
v 0.04609197 0.01677608 0.06019997
v -0.03757399 -0.03152889 0.06019997
v -0.03152894 -0.03757387 0.06019997
v 0.01677596 0.04609209 0.06019997
v 0.02452498 0.04247909 0.06019997
v 0.03152894 0.03757411 0.06019997
v -0.04609197 -0.01677584 0.06019997
v -0.04247897 -0.02452486 0.06019997
v 0.04247897 0.02452510 0.06019997
v 0.03757399 0.03152906 0.06019997
v -0.04904997 0.00000000 0.06019997
v -0.04830497 -0.00851685 0.06019997
v -0.01677596 0.04609209 0.06019997
v -0.00851697 0.04830509 0.06019997
v 0.00000000 0.04905009 0.06019997
v -0.02452498 0.04247909 0.06019997
v 0.00851697 0.04830509 0.06019997
v -0.03757399 0.03152906 0.06019997
v -0.03152894 0.03757411 0.06019997
v -0.04609197 0.01677608 0.06019997
v -0.04247897 0.02452510 0.06019997
v -0.04830497 0.00851709 0.06019997
v -0.00050000 0.04905009 0.07719695
v -0.00050000 0.04905009 0.06020295
v -0.00050000 0.04924708 0.06040000
v -0.00050000 0.04924708 0.07700002
v 0.00050000 0.04905009 0.07719695
v 0.00050000 0.04905009 0.06020295
v 0.00000000 0.04905009 0.06019997
v 0.00000000 0.04905009 0.07719993
v -0.00050000 0.04905009 0.06020295
v -0.00050000 0.04905009 0.07719695
v 0.00050000 0.04905009 0.07719695
v 0.00050000 0.04924708 0.06040000
v 0.00050000 0.04905009 0.06020295
v 0.00050000 0.04924708 0.07700002
v 0.00851697 -0.04830485 0.06019997
v 0.00050000 -0.04924684 0.06040000
v 0.00050000 -0.04904985 0.06020295
v 0.00000000 -0.04904985 0.06019997
v 0.00898999 -0.04842287 0.06040000
v 0.01677596 -0.04609185 0.06019997
v 0.01720899 -0.04614484 0.06040000
v 0.02452498 -0.04247885 0.06019997
v 0.02491295 -0.04248386 0.06040000
v 0.03152894 -0.03757387 0.06019997
v 0.03186994 -0.03754884 0.06040000
v 0.03757399 -0.03152889 0.06019997
v 0.03786998 -0.03148686 0.06040000
v 0.04247897 -0.02452486 0.06019997
v 0.04273498 -0.02448087 0.06040000
v 0.04609197 -0.01677584 0.06019997
v 0.04631799 -0.01673984 0.06040000
v 0.04830497 -0.00851685 0.06019997
v 0.04851096 -0.00849688 0.06040000
v 0.04904997 0.00000000 0.06019997
v 0.04924994 0.00000000 0.06040000
v 0.04851096 0.00849706 0.06040000
v 0.04830497 0.00851709 0.06019997
v 0.04631799 0.01674008 0.06040000
v 0.04609197 0.01677608 0.06019997
v 0.04273498 0.02448111 0.06040000
v 0.04247897 0.02452510 0.06019997
v 0.03786998 0.03148710 0.06040000
v 0.03757399 0.03152906 0.06019997
v 0.03186994 0.03754907 0.06040000
v 0.03152894 0.03757411 0.06019997
v 0.02491295 0.04248410 0.06040000
v 0.02452498 0.04247909 0.06019997
v 0.01720899 0.04614508 0.06040000
v 0.01677596 0.04609209 0.06019997
v 0.00898999 0.04842311 0.06040000
v 0.00851697 0.04830509 0.06019997
v 0.00050000 0.04924708 0.06040000
v 0.00050000 0.04905009 0.06020295
v 0.00000000 0.04905009 0.06019997
v 0.00898999 -0.04842287 0.07700002
v 0.00050000 -0.04924684 0.07700002
v 0.00050000 -0.04924684 0.06040000
v 0.00898999 -0.04842287 0.06040000
v 0.01720899 -0.04614484 0.06040000
v 0.01720899 -0.04614484 0.07700002
v 0.02491295 -0.04248386 0.06040000
v 0.02491295 -0.04248386 0.07700002
v 0.03186994 -0.03754884 0.06040000
v 0.03186994 -0.03754884 0.07700002
v 0.03786998 -0.03148686 0.06040000
v 0.03786998 -0.03148686 0.07700002
v 0.04273498 -0.02448087 0.07700002
v 0.04273498 -0.02448087 0.06040000
v 0.04631799 -0.01673984 0.06040000
v 0.04631799 -0.01673984 0.07700002
v 0.04851096 -0.00849688 0.07700002
v 0.04851096 -0.00849688 0.06040000
v 0.04924994 0.00000000 0.06040000
v 0.04924994 0.00000000 0.07700002
v 0.04851096 0.00849706 0.07700002
v 0.04851096 0.00849706 0.06040000
v 0.04631799 0.01674008 0.07700002
v 0.04631799 0.01674008 0.06040000
v 0.04273498 0.02448111 0.07700002
v 0.04273498 0.02448111 0.06040000
v 0.03786998 0.03148710 0.06040000
v 0.03786998 0.03148710 0.07700002
v 0.03186994 0.03754907 0.06040000
v 0.03186994 0.03754907 0.07700002
v 0.02491295 0.04248410 0.07700002
v 0.02491295 0.04248410 0.06040000
v 0.01720899 0.04614508 0.07700002
v 0.01720899 0.04614508 0.06040000
v 0.00898999 0.04842311 0.06040000
v 0.00898999 0.04842311 0.07700002
v 0.00050000 0.04924708 0.07700002
v 0.00050000 0.04924708 0.06040000
v 0.00851697 0.04830509 0.07719993
v 0.00050000 0.04924708 0.07700002
v 0.00050000 0.04905009 0.07719695
v 0.00000000 0.04905009 0.07719993
v 0.00898999 0.04842311 0.07700002
v 0.01677596 0.04609209 0.07719993
v 0.01720899 0.04614508 0.07700002
v 0.02452498 0.04247909 0.07719993
v 0.02491295 0.04248410 0.07700002
v 0.03152894 0.03757411 0.07719993
v 0.03186994 0.03754907 0.07700002
v 0.03757399 0.03152906 0.07719993
v 0.03786998 0.03148710 0.07700002
v 0.04247897 0.02452510 0.07719993
v 0.04273498 0.02448111 0.07700002
v 0.04609197 0.01677608 0.07719993
v 0.04631799 0.01674008 0.07700002
v 0.04830497 0.00851709 0.07719993
v 0.04851096 0.00849706 0.07700002
v 0.04904997 0.00000000 0.07719993
v 0.04924994 0.00000000 0.07700002
v 0.04851096 -0.00849688 0.07700002
v 0.04830497 -0.00851685 0.07719993
v 0.04631799 -0.01673984 0.07700002
v 0.04609197 -0.01677584 0.07719993
v 0.04273498 -0.02448087 0.07700002
v 0.04247897 -0.02452486 0.07719993
v 0.03786998 -0.03148686 0.07700002
v 0.03757399 -0.03152889 0.07719993
v 0.03186994 -0.03754884 0.07700002
v 0.03152894 -0.03757387 0.07719993
v 0.02491295 -0.04248386 0.07700002
v 0.02452498 -0.04247885 0.07719993
v 0.01720899 -0.04614484 0.07700002
v 0.01677596 -0.04609185 0.07719993
v 0.00898999 -0.04842287 0.07700002
v 0.00851697 -0.04830485 0.07719993
v 0.00050000 -0.04924684 0.07700002
v 0.00050000 -0.04904985 0.07719695
v 0.00000000 -0.04904985 0.07719993
v -0.00050000 -0.04924684 0.07700002
v -0.00050000 -0.04904985 0.06020295
v -0.00050000 -0.04904985 0.07719695
v -0.00050000 -0.04924684 0.06040000
v 0.00050000 -0.04904985 0.07719695
v 0.00000000 -0.04904985 0.06019997
v 0.00050000 -0.04904985 0.06020295
v 0.00000000 -0.04904985 0.07719993
v -0.00050000 -0.04904985 0.06020295
v -0.00050000 -0.04904985 0.07719695
v 0.00050000 -0.04904985 0.07719695
v 0.00050000 -0.04924684 0.06040000
v 0.00050000 -0.04924684 0.07700002
v 0.00050000 -0.04904985 0.06020295
v -0.00851697 0.04830509 0.06019997
v -0.00050000 0.04905009 0.06020295
v 0.00000000 0.04905009 0.06019997
v -0.00050000 0.04924708 0.06040000
v -0.00898999 0.04842311 0.06040000
v -0.01677596 0.04609209 0.06019997
v -0.01720899 0.04614508 0.06040000
v -0.02452498 0.04247909 0.06019997
v -0.02491295 0.04248410 0.06040000
v -0.03152894 0.03757411 0.06019997
v -0.03186994 0.03754907 0.06040000
v -0.03757399 0.03152906 0.06019997
v -0.03786998 0.03148710 0.06040000
v -0.04247897 0.02452510 0.06019997
v -0.04273498 0.02448111 0.06040000
v -0.04609197 0.01677608 0.06019997
v -0.04631799 0.01674008 0.06040000
v -0.04830497 0.00851709 0.06019997
v -0.04851096 0.00849706 0.06040000
v -0.04904997 0.00000000 0.06019997
v -0.04924994 0.00000000 0.06040000
v -0.04851096 -0.00849688 0.06040000
v -0.04830497 -0.00851685 0.06019997
v -0.04631799 -0.01673984 0.06040000
v -0.04609197 -0.01677584 0.06019997
v -0.04273498 -0.02448087 0.06040000
v -0.04247897 -0.02452486 0.06019997
v -0.03786998 -0.03148686 0.06040000
v -0.03757399 -0.03152889 0.06019997
v -0.03186994 -0.03754884 0.06040000
v -0.03152894 -0.03757387 0.06019997
v -0.02491295 -0.04248386 0.06040000
v -0.02452498 -0.04247885 0.06019997
v -0.01720899 -0.04614484 0.06040000
v -0.01677596 -0.04609185 0.06019997
v -0.00898999 -0.04842287 0.06040000
v -0.00851697 -0.04830485 0.06019997
v -0.00050000 -0.04924684 0.06040000
v -0.00050000 -0.04904985 0.06020295
v 0.00000000 -0.04904985 0.06019997
v -0.00898999 0.04842311 0.07700002
v -0.00050000 0.04924708 0.07700002
v -0.00050000 0.04924708 0.06040000
v -0.00898999 0.04842311 0.06040000
v -0.01720899 0.04614508 0.06040000
v -0.01720899 0.04614508 0.07700002
v -0.02491295 0.04248410 0.06040000
v -0.02491295 0.04248410 0.07700002
v -0.03186994 0.03754907 0.06040000
v -0.03186994 0.03754907 0.07700002
v -0.03786998 0.03148710 0.06040000
v -0.03786998 0.03148710 0.07700002
v -0.04273498 0.02448111 0.06040000
v -0.04273498 0.02448111 0.07700002
v -0.04631799 0.01674008 0.07700002
v -0.04631799 0.01674008 0.06040000
v -0.04851096 0.00849706 0.07700002
v -0.04851096 0.00849706 0.06040000
v -0.04924994 0.00000000 0.06040000
v -0.04924994 0.00000000 0.07700002
v -0.04851096 -0.00849688 0.07700002
v -0.04851096 -0.00849688 0.06040000
v -0.04631799 -0.01673984 0.07700002
v -0.04631799 -0.01673984 0.06040000
v -0.04273498 -0.02448087 0.07700002
v -0.04273498 -0.02448087 0.06040000
v -0.03786998 -0.03148686 0.07700002
v -0.03786998 -0.03148686 0.06040000
v -0.03186994 -0.03754884 0.06040000
v -0.03186994 -0.03754884 0.07700002
v -0.02491295 -0.04248386 0.07700002
v -0.02491295 -0.04248386 0.06040000
v -0.01720899 -0.04614484 0.06040000
v -0.01720899 -0.04614484 0.07700002
v -0.00898999 -0.04842287 0.07700002
v -0.00898999 -0.04842287 0.06040000
v -0.00050000 -0.04924684 0.06040000
v -0.00050000 -0.04924684 0.07700002
v -0.00851697 -0.04830485 0.07719993
v -0.00050000 -0.04924684 0.07700002
v -0.00050000 -0.04904985 0.07719695
v 0.00000000 -0.04904985 0.07719993
v -0.00898999 -0.04842287 0.07700002
v -0.01677596 -0.04609185 0.07719993
v -0.01720899 -0.04614484 0.07700002
v -0.02452498 -0.04247885 0.07719993
v -0.02491295 -0.04248386 0.07700002
v -0.03152894 -0.03757387 0.07719993
v -0.03186994 -0.03754884 0.07700002
v -0.03757399 -0.03152889 0.07719993
v -0.03786998 -0.03148686 0.07700002
v -0.04247897 -0.02452486 0.07719993
v -0.04273498 -0.02448087 0.07700002
v -0.04609197 -0.01677584 0.07719993
v -0.04631799 -0.01673984 0.07700002
v -0.04830497 -0.00851685 0.07719993
v -0.04851096 -0.00849688 0.07700002
v -0.04904997 0.00000000 0.07719993
v -0.04924994 0.00000000 0.07700002
v -0.04851096 0.00849706 0.07700002
v -0.04830497 0.00851709 0.07719993
v -0.04631799 0.01674008 0.07700002
v -0.04609197 0.01677608 0.07719993
v -0.04273498 0.02448111 0.07700002
v -0.04247897 0.02452510 0.07719993
v -0.03786998 0.03148710 0.07700002
v -0.03757399 0.03152906 0.07719993
v -0.03186994 0.03754907 0.07700002
v -0.03152894 0.03757411 0.07719993
v -0.02491295 0.04248410 0.07700002
v -0.02452498 0.04247909 0.07719993
v -0.01720899 0.04614508 0.07700002
v -0.01677596 0.04609209 0.07719993
v -0.00898999 0.04842311 0.07700002
v -0.00851697 0.04830509 0.07719993
v -0.00050000 0.04924708 0.07700002
v -0.00050000 0.04905009 0.07719695
v 0.00000000 0.04905009 0.07719993
v 0.00851697 -0.04830485 0.07719993
v 0.03152894 -0.03757387 0.07719993
v 0.03757399 -0.03152889 0.07719993
v 0.02452498 -0.04247885 0.07719993
v 0.01677596 -0.04609185 0.07719993
v 0.04904997 0.00000000 0.07719993
v 0.04609197 -0.01677584 0.07719993
v 0.04830497 -0.00851685 0.07719993
v 0.04830497 0.00851709 0.07719993
v -0.02452498 -0.04247885 0.07719993
v -0.00851697 -0.04830485 0.07719993
v 0.00000000 -0.04904985 0.07719993
v -0.01677596 -0.04609185 0.07719993
v -0.03757399 -0.03152889 0.07719993
v -0.03152894 -0.03757387 0.07719993
v 0.03152894 0.03757411 0.07719993
v 0.04247897 0.02452510 0.07719993
v 0.03757399 0.03152906 0.07719993
v 0.04609197 0.01677608 0.07719993
v 0.04247897 -0.02452486 0.07719993
v 0.02452498 0.04247909 0.07719993
v 0.00851697 0.04830509 0.07719993
v 0.01677596 0.04609209 0.07719993
v -0.04904997 0.00000000 0.07719993
v -0.04247897 -0.02452486 0.07719993
v -0.04609197 -0.01677584 0.07719993
v -0.04830497 -0.00851685 0.07719993
v -0.00851697 0.04830509 0.07719993
v 0.00000000 0.04905009 0.07719993
v -0.04609197 0.01677608 0.07719993
v -0.04830497 0.00851709 0.07719993
v -0.02452498 0.04247909 0.07719993
v -0.01677596 0.04609209 0.07719993
v -0.03152894 0.03757411 0.07719993
v -0.04247897 0.02452510 0.07719993
v -0.03757399 0.03152906 0.07719993
f 1 2 3
f 4 5 2
f 6 4 2
f 7 1 8
f 9 10 6
f 11 7 12
f 11 2 1
f 11 1 7
f 13 11 14
f 13 15 9
f 13 9 6
f 13 6 2
f 13 2 11
f 16 13 17
f 18 19 20
f 21 16 22
f 21 23 15
f 21 24 23
f 21 20 24
f 21 15 13
f 21 13 16
f 21 18 20
f 25 21 26
f 25 18 21
f 27 28 29
f 30 31 18
f 30 29 31
f 30 18 25
f 30 27 29
f 32 33 30
f 32 34 35
f 32 36 34
f 32 25 36
f 32 30 25
f 37 38 39
f 40 37 39
f 41 42 43
f 44 43 45
f 44 41 43
f 46 44 45
f 47 48 49
f 47 50 48
f 51 52 53
f 51 53 54
f 55 52 51
f 56 55 51
f 57 55 56
f 58 57 56
f 59 57 58
f 60 59 58
f 61 59 60
f 62 61 60
f 63 61 62
f 64 63 62
f 65 63 64
f 66 65 64
f 67 65 66
f 68 67 66
f 69 67 68
f 70 69 68
f 71 69 70
f 72 70 73
f 72 71 70
f 74 73 75
f 74 72 73
f 76 75 77
f 76 74 75
f 78 77 79
f 78 76 77
f 80 79 81
f 80 78 79
f 82 80 81
f 83 82 81
f 84 82 83
f 85 84 83
f 86 84 85
f 87 86 85
f 88 86 87
f 88 87 89
f 90 89 87
f 91 92 93
f 91 94 95
f 91 93 94
f 96 95 97
f 96 91 95
f 98 97 99
f 98 96 97
f 100 99 101
f 100 98 99
f 102 100 101
f 103 104 105
f 103 101 104
f 103 102 101
f 106 103 105
f 107 108 109
f 107 105 108
f 107 106 105
f 110 107 109
f 111 109 112
f 111 110 109
f 113 112 114
f 113 111 112
f 115 116 117
f 115 114 116
f 115 113 114
f 118 117 119
f 118 115 117
f 120 118 119
f 121 120 119
f 121 119 122
f 123 121 122
f 123 124 125
f 123 122 124
f 126 123 125
f 127 126 125
f 127 125 128
f 129 130 131
f 129 131 132
f 133 130 129
f 134 133 129
f 135 133 134
f 136 135 134
f 137 135 136
f 138 137 136
f 139 137 138
f 140 139 138
f 141 139 140
f 142 141 140
f 143 141 142
f 144 143 142
f 145 143 144
f 146 145 144
f 147 145 146
f 148 147 146
f 149 147 148
f 150 148 151
f 150 149 148
f 152 151 153
f 152 150 151
f 154 153 155
f 154 152 153
f 156 155 157
f 156 154 155
f 158 157 159
f 158 156 157
f 160 158 159
f 161 160 159
f 162 160 161
f 163 162 161
f 164 162 163
f 165 164 163
f 166 164 165
f 166 165 167
f 168 167 165
f 169 170 171
f 169 172 170
f 173 174 175
f 176 177 174
f 176 174 173
f 178 177 176
f 179 180 181
f 179 182 180
f 183 184 185
f 183 186 184
f 187 186 183
f 188 187 183
f 189 187 188
f 190 189 188
f 191 189 190
f 192 191 190
f 193 191 192
f 194 193 192
f 195 193 194
f 196 195 194
f 197 195 196
f 198 197 196
f 199 197 198
f 200 199 198
f 201 199 200
f 202 201 200
f 203 201 202
f 204 202 205
f 204 203 202
f 206 205 207
f 206 204 205
f 208 207 209
f 208 206 207
f 210 209 211
f 210 208 209
f 212 211 213
f 212 210 211
f 214 212 213
f 215 214 213
f 216 214 215
f 217 216 215
f 218 216 217
f 219 218 217
f 220 218 219
f 220 219 221
f 222 221 219
f 223 224 225
f 223 226 227
f 223 225 226
f 228 227 229
f 228 223 227
f 230 229 231
f 230 228 229
f 232 231 233
f 232 230 231
f 234 233 235
f 234 232 233
f 236 234 235
f 237 235 238
f 237 236 235
f 239 240 241
f 239 238 240
f 239 237 238
f 242 239 241
f 243 241 244
f 243 242 241
f 245 244 246
f 245 243 244
f 247 246 248
f 247 245 246
f 249 250 251
f 249 248 250
f 249 247 248
f 252 249 251
f 253 254 255
f 253 251 254
f 253 252 251
f 256 253 255
f 257 258 259
f 257 255 258
f 257 256 255
f 260 257 259
f 261 262 263
f 261 263 264
f 265 262 261
f 266 265 261
f 267 265 266
f 268 267 266
f 269 267 268
f 270 269 268
f 271 269 270
f 272 271 270
f 273 271 272
f 274 273 272
f 275 273 274
f 276 275 274
f 277 275 276
f 278 277 276
f 279 277 278
f 280 279 278
f 281 279 280
f 282 280 283
f 282 281 280
f 284 283 285
f 284 282 283
f 286 285 287
f 286 284 285
f 288 287 289
f 288 286 287
f 290 289 291
f 290 288 289
f 292 290 291
f 293 292 291
f 294 292 293
f 295 294 293
f 296 294 295
f 297 296 295
f 298 296 297
f 298 297 299
f 300 299 297
f 301 302 303
f 301 304 302
f 301 305 304
f 306 307 308
f 309 307 306
f 310 311 312
f 310 313 311
f 310 312 301
f 314 315 310
f 314 310 301
f 316 317 318
f 316 319 317
f 316 309 319
f 316 320 307
f 316 303 320
f 316 307 309
f 321 303 316
f 322 321 323
f 324 325 314
f 324 326 325
f 324 327 326
f 328 322 329
f 328 303 321
f 328 321 322
f 330 331 324
f 330 301 303
f 330 314 301
f 330 324 314
f 332 328 333
f 334 328 332
f 334 335 330
f 334 336 335
f 334 303 328
f 334 330 303

