# https://github.com/mikedh/trimesh
v -0.07525241 0.01063328 0.00888955
v -0.07599997 0.00000000 0.00000101
v -0.07536149 0.00983065 0.00983173
v -0.07510387 0.01163637 0.00788653
v -0.07599997 -0.00000000 -0.08169895
v -0.07485502 0.01314246 -0.09099894
v -0.07599997 -0.00000000 -0.09099894
v -0.07507842 0.01179951 0.00791007
v -0.07505255 0.01196265 0.00793356
v -0.07502639 0.01212573 0.00795698
v -0.07336771 0.01982873 0.00025403
v -0.07145458 0.02588897 -0.09099894
v -0.07092028 0.02731859 -0.00723576
v -0.06571304 0.03818106 -0.01809829
v -0.06590110 0.03785550 -0.09099894
v -0.06071537 0.04571253 -0.02562975
v -0.05836200 0.04868131 -0.09099894
v -0.05485898 0.05259740 -0.03251463
v -0.04906433 0.05804038 -0.09099894
v -0.04822659 0.05873829 -0.03865551
v -0.04091209 0.06404840 -0.04396557
v -0.03828835 0.06565058 -0.09099894
v -0.03301888 0.06845253 -0.04836970
v -0.02635866 0.07128268 -0.09099894
v -0.02465867 0.07188844 -0.05180561
v -0.01594960 0.07430750 -0.05422466
v -0.01363474 0.07476687 -0.09099894
v -0.00701499 0.07567554 -0.05559271
v -0.00050006 0.07599830 -0.08799916
v -0.00046476 0.07599854 -0.08781462
v -0.00036416 0.07599908 -0.08765649
v 0.00201881 0.07597315 -0.05589032
v -0.00021245 0.07599967 -0.08754652
v -0.00010565 0.07599991 -0.08751046
v 0.00002947 0.07599997 -0.08750003
v 0.00018794 0.07599973 -0.08753585
v 0.00035030 0.07599920 -0.08764249
v -0.00050006 0.07599830 -0.09099894
v 0.00041777 0.07599884 -0.08772456
v 0.00046984 0.07599854 -0.08782833
v 0.00049994 0.07599836 -0.08799916
v 0.01102411 0.07519620 -0.05511331
v 0.01363462 0.07476693 -0.09099894
v 0.00049994 0.07599836 -0.09099894
v 0.01987349 0.07335555 -0.05327272
v 0.02635854 0.07128268 -0.09099894
v 0.02937108 0.07009518 -0.05001229
v 0.03828823 0.06565064 -0.09099894
v 0.03931576 0.06504052 -0.04495763
v 0.04906427 0.05804044 -0.09099894
v 0.04936313 0.05778646 -0.03770357
v 0.05836188 0.04868143 -0.09099894
v 0.05897712 0.04793423 -0.02785134
v 0.06590104 0.03785562 -0.09099894
v 0.06737846 0.03515875 -0.01507586
v 0.07145452 0.02588909 -0.09099894
v 0.07350349 0.01931923 0.00076361
v 0.07485496 0.01314258 -0.09099894
v 0.07522648 0.01081520 0.00042792
v 0.07599997 -0.00000000 -0.08169895
v 0.07580637 0.00542140 0.00021501
v 0.07599997 0.00000000 0.00000101
v 0.07599997 -0.00000000 -0.09099894
v 0.07489550 -0.01291006 -0.08243989
v 0.07485502 -0.01314246 -0.09099894
v 0.07221782 -0.02367669 -0.08303916
v 0.07145458 -0.02588903 -0.09099894
v 0.06828474 -0.03336596 -0.08355528
v 0.06590110 -0.03785550 -0.09099894
v 0.06243437 -0.04333525 -0.08405387
v 0.05836200 -0.04868131 -0.09099894
v 0.05528634 -0.05214804 -0.08446562
v 0.04906433 -0.05804038 -0.09099894
v 0.04716813 -0.05959266 -0.08478939
v 0.03828835 -0.06565058 -0.09099894
v 0.03785485 -0.06590145 -0.08504664
v 0.02754002 -0.07083463 -0.08523696
v 0.02635866 -0.07128268 -0.09099894
v 0.01638817 -0.07421201 -0.08536249
v 0.01363474 -0.07476693 -0.09099894
v 0.00466162 -0.07585692 -0.08542186
v 0.00050006 -0.07599836 -0.08799916
v 0.00046476 -0.07599854 -0.08781462
v 0.00036416 -0.07599908 -0.08765649
v 0.00021245 -0.07599967 -0.08754652
v 0.00010565 -0.07599991 -0.08751046
v -0.00002947 -0.07599997 -0.08750003
v 0.00050006 -0.07599836 -0.09099894
v -0.00726962 -0.07565152 -0.08541458
v -0.00049994 -0.07599836 -0.09099894
v -0.00049994 -0.07599836 -0.08799916
v -0.00046984 -0.07599854 -0.08782833
v -0.00041777 -0.07599884 -0.08772456
v -0.00035030 -0.07599920 -0.08764249
v -0.00018794 -0.07599973 -0.08753585
v -0.01363462 -0.07476693 -0.09099894
v -0.01884096 -0.07362759 -0.08534103
v -0.02635854 -0.07128268 -0.09099894
v -0.02986580 -0.06988584 -0.08520102
v -0.03828823 -0.06565064 -0.09099894
v -0.03996127 -0.06464624 -0.08499664
v -0.04906427 -0.05804044 -0.09099894
v -0.04900246 -0.05809265 -0.08472561
v -0.05693680 -0.05034178 -0.08438366
v -0.05836188 -0.04868143 -0.09099894
v -0.06381195 -0.04127979 -0.08395379
v -0.06590104 -0.03785562 -0.09099894
v -0.06935226 -0.03108477 -0.08343648
v -0.07145452 -0.02588909 -0.09099894
v -0.07288348 -0.02154058 -0.08292180
v -0.07485496 -0.01314258 -0.09099894
v -0.07510745 -0.01161372 -0.08236676
v -0.07599997 -0.00000000 -0.09099894
v -0.07599997 -0.00000000 -0.08169895
v 0.00000000 -0.07099997 -0.10699900
v 0.00000000 -0.07099997 -0.09799897
v -0.01232892 -0.06992137 -0.09799897
v -0.01232892 -0.06992137 -0.10699900
v -0.02428334 -0.06671816 -0.10699900
v -0.02428334 -0.06671816 -0.09799897
v -0.03549993 -0.06148779 -0.10699900
v -0.03549993 -0.06148779 -0.09799897
v -0.04563784 -0.05438917 -0.10699900
v -0.04563784 -0.05438917 -0.09799897
v -0.05438911 -0.04563796 -0.10699900
v -0.05438911 -0.04563796 -0.09799897
v -0.06148773 -0.03550004 -0.10699900
v -0.06148773 -0.03550004 -0.09799897
v -0.06671816 -0.02428346 -0.10699900
v -0.06671816 -0.02428346 -0.09799897
v -0.06992131 -0.01232904 -0.09799897
v -0.06992131 -0.01232904 -0.10699900
v -0.07099997 -0.00000000 -0.10699900
v -0.07099997 -0.00000000 -0.09799897
v -0.06992131 0.01232892 -0.10699900
v -0.06992131 0.01232892 -0.09799897
v -0.06671816 0.02428334 -0.09799897
v -0.06671816 0.02428334 -0.10699900
v -0.06148779 0.03549993 -0.10699900
v -0.06148779 0.03549993 -0.09799897
v -0.05438917 0.04563784 -0.09799897
v -0.05438917 0.04563784 -0.10699900
v -0.04563796 0.05438911 -0.10699900
v -0.04563796 0.05438911 -0.09799897
v -0.03550004 0.06148773 -0.10699900
v -0.03550004 0.06148773 -0.09799897
v -0.02428346 0.06671816 -0.09799897
v -0.02428346 0.06671816 -0.10699900
v -0.01232904 0.06992131 -0.09799897
v -0.01232904 0.06992131 -0.10699900
v 0.00000000 0.07099997 -0.10699900
v 0.00000000 0.07099997 -0.09799897
v 0.01232892 0.06992131 -0.09799897
v 0.01232892 0.06992131 -0.10699900
v 0.02428334 0.06671816 -0.10699900
v 0.02428334 0.06671816 -0.09799897
v 0.03549993 0.06148779 -0.09799897
v 0.03549993 0.06148779 -0.10699900
v 0.04563784 0.05438917 -0.09799897
v 0.04563784 0.05438917 -0.10699900
v 0.05438911 0.04563796 -0.10699900
v 0.05438911 0.04563796 -0.09799897
v 0.06148773 0.03550004 -0.09799897
v 0.06148773 0.03550004 -0.10699900
v 0.06671816 0.02428346 -0.10699900
v 0.06671816 0.02428346 -0.09799897
v 0.06992131 0.01232904 -0.10699900
v 0.06992131 0.01232904 -0.09799897
v 0.07099997 -0.00000000 -0.10699900
v 0.07099997 -0.00000000 -0.09799897
v 0.06992131 -0.01232892 -0.09799897
v 0.06992131 -0.01232892 -0.10699900
v 0.06671816 -0.02428334 -0.09799897
v 0.06671816 -0.02428334 -0.10699900
v 0.06148779 -0.03549993 -0.10699900
v 0.06148779 -0.03549993 -0.09799897
v 0.05438917 -0.04563784 -0.09799897
v 0.05438917 -0.04563784 -0.10699900
v 0.04563796 -0.05438911 -0.09799897
v 0.04563796 -0.05438911 -0.10699900
v 0.03550004 -0.06148773 -0.10699900
v 0.03550004 -0.06148773 -0.09799897
v 0.02428346 -0.06671816 -0.09799897
v 0.02428346 -0.06671816 -0.10699900
v 0.01232904 -0.06992131 -0.10699900
v 0.01232904 -0.06992131 -0.09799897
v 0.00000000 -0.07099997 -0.10699900
v 0.00000000 -0.07099997 -0.09799897
v -0.06148773 -0.03550004 -0.10699900
v -0.04563784 -0.05438917 -0.10699900
v -0.05438911 -0.04563796 -0.10699900
v -0.02428334 -0.06671816 -0.10699900
v -0.03549993 -0.06148779 -0.10699900
v -0.07099997 -0.00000000 -0.10699900
v -0.06671816 -0.02428346 -0.10699900
v -0.06992131 -0.01232904 -0.10699900
v -0.06671816 0.02428334 -0.10699900
v -0.06992131 0.01232892 -0.10699900
v 0.02428346 -0.06671816 -0.10699900
v 0.00000000 -0.07099997 -0.10699900
v -0.01232892 -0.06992137 -0.10699900
v 0.01232904 -0.06992131 -0.10699900
v -0.04563796 0.05438911 -0.10699900
v -0.06148779 0.03549993 -0.10699900
v -0.05438917 0.04563784 -0.10699900
v 0.05438917 -0.04563784 -0.10699900
v 0.04563796 -0.05438911 -0.10699900
v 0.03550004 -0.06148773 -0.10699900
v -0.03550004 0.06148773 -0.10699900
v 0.06671816 -0.02428334 -0.10699900
v 0.06148779 -0.03549993 -0.10699900
v 0.01232892 0.06992131 -0.10699900
v -0.02428346 0.06671816 -0.10699900
v -0.01232904 0.06992131 -0.10699900
v 0.00000000 0.07099997 -0.10699900
v 0.06671816 0.02428346 -0.10699900
v 0.06992131 0.01232904 -0.10699900
v 0.07099997 -0.00000000 -0.10699900
v 0.06671816 0.02428346 -0.10699900
v 0.07099997 -0.00000000 -0.10699900
v 0.06992131 -0.01232892 -0.10699900
v 0.06992131 -0.01232892 -0.10699900
v 0.04563784 0.05438917 -0.10699900
v 0.02428334 0.06671816 -0.10699900
v 0.03549993 0.06148779 -0.10699900
v 0.05438911 0.04563796 -0.10699900
v 0.06148773 0.03550004 -0.10699900
v 0.00927216 -0.05535042 0.07543325
v -0.01780605 -0.05380278 0.07388561
v -0.00886339 -0.05539953 0.07548236
v 0.00020584 -0.05591785 0.07600069
v 0.01820605 -0.05370527 0.07378810
v -0.02649432 -0.05115050 0.07123333
v -0.07336771 0.01982873 0.00025403
v -0.07502639 0.00795591 0.01212680
v -0.07042860 -0.00848049 0.02856326
v -0.07336771 0.01982873 0.00025403
v -0.07502639 0.01212573 0.00795698
v -0.07508063 0.01073598 0.00934672
v -0.07508063 0.01073598 0.00934672
v -0.07508063 0.00934571 0.01073706
v -0.07336771 0.01982873 0.00025403
v -0.07508063 0.00934571 0.01073706
v -0.07502639 0.00795591 0.01212680
v 0.02687978 -0.05100595 0.07108879
v 0.03516954 -0.04729098 0.06737387
v -0.03569877 -0.04701209 0.06709486
v 0.04295682 -0.04261350 0.06269639
v -0.04518097 -0.04103016 0.06111294
v 0.05013036 -0.03704029 0.05712318
v -0.05455535 -0.03283047 0.05291324
v 0.05658775 -0.03065103 0.05073392
v -0.06324338 -0.02206403 0.04214680
v 0.06223660 -0.02353692 0.04361981
v 0.06699639 -0.01579964 0.03588253
v 0.07073634 -0.00770956 0.02779245
v 0.07350349 0.00076265 0.01932018
v 0.07457780 0.01314973 0.00693309
v 0.07350349 0.00076265 0.01932018
v 0.07457780 0.00693214 0.01315069
v 0.07350349 0.01931923 0.00076361
v -0.07092028 0.02731859 -0.00723576
v 0.07457780 0.01314973 0.00693309
v 0.06737846 0.03515875 -0.01507586
v -0.06571304 0.03818106 -0.01809829
v 0.01102411 0.07519620 -0.05511331
v 0.00201881 0.07597315 -0.05589032
v -0.00701499 0.07567554 -0.05559271
v 0.01102411 0.07519620 -0.05511331
v -0.00701499 0.07567554 -0.05559271
v -0.01594960 0.07430750 -0.05422466
v 0.01987349 0.07335555 -0.05327272
v -0.02465867 0.07188844 -0.05180561
v 0.05897712 0.04793423 -0.02785134
v -0.05485898 0.05259740 -0.03251463
v -0.06071537 0.04571253 -0.02562975
v 0.02937108 0.07009518 -0.05001229
v -0.03301888 0.06845253 -0.04836970
v 0.04936313 0.05778646 -0.03770357
v -0.04091209 0.06404840 -0.04396557
v -0.04822659 0.05873829 -0.03865551
v 0.03931576 0.06504052 -0.04495763
v 0.07600003 -0.08169990 0.00000100
v 0.07599997 0.00000000 0.00000101
v 0.07550466 0.00034200 0.00866371
v 0.07485508 -0.08849990 0.01314353
v 0.07600003 -0.08849990 0.00000100
v 0.07469439 0.00055374 0.01402771
v 0.07350349 0.00076265 0.01932018
v 0.07145464 -0.08849990 0.02589005
v 0.07073634 -0.00770956 0.02779245
v 0.06699639 -0.01579964 0.03588253
v 0.06590116 -0.08849996 0.03785657
v 0.06223660 -0.02353692 0.04361981
v 0.05836200 -0.08849996 0.04868239
v 0.05658775 -0.03065103 0.05073392
v 0.05013036 -0.03704029 0.05712318
v 0.04906439 -0.08849996 0.05804139
v 0.04295682 -0.04261350 0.06269639
v 0.03828835 -0.08849996 0.06565159
v 0.03516954 -0.04729098 0.06737387
v 0.02635866 -0.08849996 0.07128369
v 0.02687978 -0.05100595 0.07108879
v 0.01820605 -0.05370527 0.07378810
v 0.01363480 -0.08849996 0.07476788
v 0.00927216 -0.05535042 0.07543325
v 0.00046476 -0.08531546 0.07599955
v 0.00020584 -0.05591785 0.07600069
v 0.00050007 -0.08550000 0.07599931
v 0.00036417 -0.08515733 0.07600009
v 0.00021246 -0.08504736 0.07600069
v 0.00010566 -0.08501124 0.07600092
v -0.00002946 -0.08500087 0.07600098
v -0.00018793 -0.08503669 0.07600075
v -0.00035030 -0.08514326 0.07600015
v 0.00050007 -0.08849996 0.07599931
v -0.00041776 -0.08522534 0.07599985
v -0.00046983 -0.08532911 0.07599955
v -0.00886339 -0.05539953 0.07548236
v -0.00049993 -0.08550000 0.07599931
v -0.01367104 -0.08850002 0.07476127
v -0.00049993 -0.08849996 0.07599931
v -0.01780605 -0.05380278 0.07388561
v -0.02642798 -0.08850002 0.07125794
v -0.02649432 -0.05115050 0.07123333
v -0.03569877 -0.04701209 0.06709486
v -0.03838413 -0.08850002 0.06559556
v -0.04518097 -0.04103016 0.06111294
v -0.04917728 -0.08850002 0.05794566
v -0.05455535 -0.03283047 0.05291324
v -0.05848032 -0.08850002 0.04854005
v -0.06324338 -0.02206403 0.04214680
v -0.06601142 -0.08850002 0.03766369
v -0.07042860 -0.00848049 0.02856326
v -0.07154238 -0.08850002 0.02564615
v -0.07510387 0.00788546 0.01163744
v -0.07525241 0.00888842 0.01063448
v -0.07536149 0.00983065 0.00983173
v -0.07490557 -0.08850002 0.01285159
v -0.07502639 0.00795591 0.01212680
v -0.07505255 0.00793248 0.01196372
v -0.07507842 0.00790900 0.01180058
v -0.07599991 -0.08170002 0.00000100
v -0.07599920 -0.08850002 -0.00033234
v -0.07489538 -0.08244097 -0.01290911
v -0.07479000 -0.08850002 -0.01350617
v -0.07221770 -0.08304023 -0.02367573
v -0.07131469 -0.08850002 -0.02627074
v -0.06828463 -0.08355635 -0.03336501
v -0.06567853 -0.08850002 -0.03823930
v -0.06243425 -0.08405494 -0.04333430
v -0.05805230 -0.08850002 -0.04904913
v -0.05528622 -0.08446663 -0.05214709
v -0.04866707 -0.08850002 -0.05837279
v -0.04716801 -0.08479046 -0.05959171
v -0.03780728 -0.08850002 -0.06592774
v -0.03785473 -0.08504766 -0.06590050
v -0.02753990 -0.08523797 -0.07083368
v -0.02580189 -0.08850002 -0.07148504
v -0.01638805 -0.08536350 -0.07421100
v -0.01301473 -0.08850002 -0.07487630
v -0.00466150 -0.08542287 -0.07585591
v 0.00016674 -0.08849996 -0.07599878
v 0.00726980 -0.08541560 -0.07565051
v 0.01334315 -0.08849996 -0.07481849
v 0.01884108 -0.08534204 -0.07362657
v 0.02611535 -0.08849996 -0.07137119
v 0.02986592 -0.08520197 -0.06988483
v 0.03809624 -0.08849996 -0.06576126
v 0.03996139 -0.08499765 -0.06464523
v 0.04892277 -0.08849996 -0.05815881
v 0.04900258 -0.08472663 -0.05809158
v 0.05693686 -0.08438462 -0.05034077
v 0.05826699 -0.08849996 -0.04879409
v 0.06381207 -0.08395475 -0.04127877
v 0.06584572 -0.08849996 -0.03795087
v 0.06935238 -0.08343744 -0.03108376
v 0.07142937 -0.08849990 -0.02595770
v 0.07288354 -0.08292275 -0.02153950
v 0.07484865 -0.08849990 -0.01317799
v 0.07510751 -0.08236771 -0.01161265
v 0.07600003 -0.08849990 0.00000100
v 0.07600003 -0.08169990 0.00000100
v 0.07526791 -0.01112222 -0.08110147
v 0.07599997 -0.00000000 -0.08169895
v 0.07600003 -0.08169990 0.00000100
v 0.07493633 -0.08098393 -0.01338744
v 0.07300049 -0.02229785 -0.08054167
v 0.07168257 -0.08034670 -0.02660286
v 0.06928789 -0.03284049 -0.08008605
v 0.06825298 -0.07999926 -0.03512895
v 0.06474119 -0.04173779 -0.07976824
v 0.06412994 -0.07973706 -0.04274642
v 0.05886203 -0.05025327 -0.07952153
v 0.05641013 -0.07945078 -0.05317860
v 0.05169862 -0.05806159 -0.07934421
v 0.04703485 -0.07926988 -0.06212627
v 0.04362583 -0.06470453 -0.07922649
v 0.03650987 -0.07916259 -0.06919240
v 0.03451824 -0.07025933 -0.07914841
v 0.02518486 -0.07910376 -0.07430088
v 0.02481448 -0.07443219 -0.07910144
v 0.01381123 -0.07907503 -0.07735866
v 0.01302641 -0.07750165 -0.07907289
v 0.00702423 -0.07906681 -0.07830703
v 0.00000000 -0.07863605 -0.07906293
v 0.00000000 -0.07906395 -0.07863503
v -0.07552653 -0.08121764 -0.00895226
v -0.07599991 -0.08170002 0.00000100
v -0.07599991 -0.08170002 0.00000100
v -0.07489538 -0.08244097 -0.01290911
v -0.07406502 -0.08075058 -0.01798903
v -0.07221770 -0.08304023 -0.02367573
v -0.06828463 -0.08355635 -0.03336501
v -0.07012605 -0.08016759 -0.03082817
v -0.06412982 -0.07973718 -0.04274642
v -0.06243425 -0.08405494 -0.04333430
v -0.04716801 -0.08479046 -0.05959171
v -0.05528622 -0.08446663 -0.05214709
v -0.05638229 -0.07945013 -0.05321007
v -0.04705274 -0.07926988 -0.06211227
v 0.04900258 -0.08472663 -0.05809158
v 0.03996139 -0.08499765 -0.06464523
v 0.04703485 -0.07926988 -0.06212627
v 0.05641013 -0.07945078 -0.05317860
v 0.05693686 -0.08438462 -0.05034077
v 0.06412994 -0.07973706 -0.04274642
v 0.06381207 -0.08395475 -0.04127877
v 0.06935238 -0.08343744 -0.03108376
v 0.06825298 -0.07999926 -0.03512895
v 0.07168257 -0.08034670 -0.02660286
v 0.07288354 -0.08292275 -0.02153950
v 0.07600003 -0.08169990 0.00000100
v 0.07510751 -0.08236771 -0.01161265
v 0.07493633 -0.08098393 -0.01338744
v 0.07600003 -0.08169990 0.00000100
v -0.07224512 -0.08178871 -0.02387607
v -0.06127715 -0.08189594 -0.04543775
v -0.04252719 -0.08201110 -0.06357580
v -0.03677988 -0.07916510 -0.06904131
v -0.03785473 -0.08504766 -0.06590050
v -0.02051055 -0.08208429 -0.07380658
v -0.02525424 -0.07910406 -0.07427614
v -0.01261383 -0.07907325 -0.07757186
v -0.01638805 -0.08536350 -0.07421100
v 0.00377476 -0.08210468 -0.07654076
v 0.00000000 -0.07906395 -0.07863503
v 0.00702423 -0.07906681 -0.07830703
v 0.00726980 -0.08541560 -0.07565051
v -0.00466150 -0.08542287 -0.07585591
v 0.04843300 -0.08198082 -0.05913525
v 0.06434899 -0.08187037 -0.04088324
v 0.07374525 -0.08176779 -0.01859951
v -0.03706747 -0.08192282 -0.06699693
v -0.03193843 -0.08193862 -0.06962347
v -0.02621906 -0.08195352 -0.07200312
v -0.01441758 -0.08197504 -0.07529979
v -0.00851953 -0.08198094 -0.07620358
v -0.00235236 -0.08198356 -0.07664757
v 0.00709164 -0.08198177 -0.07635152
v 0.01041847 -0.08197933 -0.07596445
v 0.01381123 -0.07907503 -0.07735866
v 0.01884108 -0.08534204 -0.07362657
v 0.01624286 -0.08197247 -0.07492268
v 0.02181267 -0.08196294 -0.07347655
v 0.02518486 -0.07910376 -0.07430088
v 0.02986592 -0.08520197 -0.06988483
v 0.02753204 -0.08206677 -0.07145678
v 0.03295314 -0.08193564 -0.06914317
v 0.03650987 -0.07916259 -0.06919240
v 0.03800833 -0.08191955 -0.06646114
v -0.00862276 -0.07814103 -0.07906740
v 0.00000000 -0.07863605 -0.07906293
v 0.00000000 -0.07906395 -0.07863503
v -0.01261383 -0.07907325 -0.07757186
v -0.01750230 -0.07657510 -0.07908117
v -0.02525424 -0.07910406 -0.07427614
v -0.02779388 -0.07332116 -0.07911300
v -0.03677988 -0.07916510 -0.06904131
v -0.03711003 -0.06885671 -0.07916605
v -0.04597252 -0.06296336 -0.07925468
v -0.04705274 -0.07926988 -0.06211227
v -0.05499118 -0.05474400 -0.07941412
v -0.05638229 -0.07945013 -0.05321007
v -0.06310439 -0.04436683 -0.07968622
v -0.06412982 -0.07973718 -0.04274642
v -0.06928813 -0.03284001 -0.08008605
v -0.07012605 -0.08016759 -0.03082817
v -0.07300436 -0.02228391 -0.08054232
v -0.07406502 -0.08075058 -0.01798903
v -0.07526767 -0.01112443 -0.08110135
v -0.07552653 -0.08121764 -0.00895226
v -0.07599997 -0.00000000 -0.08169895
v -0.07599991 -0.08170002 0.00000100
v 0.07599997 -0.00000000 -0.08169895
v 0.07599997 0.00000000 0.00000101
v 0.07469439 0.00055374 0.01402771
v 0.07457780 0.00693214 0.01315069
v 0.07350349 0.00076265 0.01932018
v 0.07522648 0.01081520 0.00042792
v 0.07350349 0.01931923 0.00076361
v 0.07457780 0.01314973 0.00693309
v 0.07566928 0.00511217 0.00511312
v 0.07550466 0.00034200 0.00866371
v 0.07599997 0.00000000 0.00000101
v 0.07599997 0.00000000 0.00000101
v 0.07580637 0.00542140 0.00021501
v 0.07526791 -0.01112222 -0.08110147
v 0.07599997 -0.00000000 -0.08169895
v 0.07599997 -0.00000000 -0.08169895
v 0.07489550 -0.01291006 -0.08243989
v 0.07300049 -0.02229785 -0.08054167
v 0.07221782 -0.02367669 -0.08303916
v 0.06928789 -0.03284049 -0.08008605
v 0.06828474 -0.03336596 -0.08355528
v 0.06474119 -0.04173779 -0.07976824
v 0.06243437 -0.04333525 -0.08405387
v 0.05169862 -0.05806159 -0.07934421
v 0.05528634 -0.05214804 -0.08446562
v 0.04716813 -0.05959266 -0.08478939
v 0.04362583 -0.06470453 -0.07922649
v -0.04900246 -0.05809265 -0.08472561
v -0.03996127 -0.06464624 -0.08499664
v -0.04597252 -0.06296336 -0.07925468
v -0.05693680 -0.05034178 -0.08438366
v -0.05499118 -0.05474400 -0.07941412
v -0.06310439 -0.04436683 -0.07968622
v -0.06381195 -0.04127979 -0.08395379
v -0.07300436 -0.02228391 -0.08054232
v -0.06935226 -0.03108477 -0.08343648
v -0.06928813 -0.03284001 -0.08008605
v -0.07288348 -0.02154058 -0.08292180
v -0.07599997 -0.00000000 -0.08169895
v -0.07510745 -0.01161372 -0.08236676
v -0.07526767 -0.01112443 -0.08110135
v -0.07599997 -0.00000000 -0.08169895
v 0.07225108 -0.02388125 -0.08173984
v 0.06129342 -0.04545426 -0.08181041
v 0.04254668 -0.06360965 -0.08190160
v 0.03785485 -0.06590145 -0.08504664
v 0.02052229 -0.07385319 -0.08196395
v 0.02481448 -0.07443219 -0.07910144
v 0.01302641 -0.07750165 -0.07907289
v 0.01638817 -0.07421201 -0.08536249
v 0.02754002 -0.07083463 -0.08523696
v -0.00377691 -0.07659113 -0.08198171
v 0.00000000 -0.07863605 -0.07906293
v -0.00862276 -0.07814103 -0.07906740
v -0.00726962 -0.07565152 -0.08541458
v 0.00466162 -0.07585692 -0.08542186
v -0.04845261 -0.05916422 -0.08187669
v -0.06436300 -0.04089665 -0.08179199
v -0.07374888 -0.01860338 -0.08172917
v 0.03596282 -0.06760579 -0.08192533
v 0.03451824 -0.07025933 -0.07914841
v 0.03079652 -0.07014387 -0.08194077
v 0.02600538 -0.07208263 -0.08195298
v 0.01461827 -0.07526159 -0.08197379
v 0.00872207 -0.07618141 -0.08197975
v 0.00235254 -0.07664859 -0.08198255
v -0.00787252 -0.07627499 -0.08198040
v -0.01224046 -0.07568985 -0.08197665
v -0.01750230 -0.07657510 -0.07908117
v -0.01884096 -0.07362759 -0.08534103
v -0.01804012 -0.07450622 -0.08196890
v -0.02310997 -0.07307481 -0.08195936
v -0.02779388 -0.07332116 -0.07911300
v -0.02754682 -0.07150036 -0.08194881
v -0.02986580 -0.06988584 -0.08520102
v -0.02863597 -0.07106530 -0.08194655
v -0.03325688 -0.06899660 -0.08193373
v -0.03711003 -0.06885671 -0.07916605
v -0.03829944 -0.06629234 -0.08191758
f 1 2 3
f 4 2 1
f 5 2 4
f 6 5 4
f 6 7 5
f 6 4 8
f 6 8 9
f 6 9 10
f 6 10 11
f 12 6 11
f 12 13 14
f 12 11 13
f 15 12 14
f 15 14 16
f 17 15 16
f 17 16 18
f 19 17 18
f 19 20 21
f 19 18 20
f 22 19 21
f 22 21 23
f 24 22 23
f 24 23 25
f 26 24 25
f 27 24 26
f 27 26 28
f 29 27 28
f 29 28 30
f 31 28 32
f 31 30 28
f 33 31 32
f 34 33 32
f 35 34 32
f 36 35 32
f 37 36 32
f 38 27 29
f 39 37 32
f 40 39 32
f 41 40 32
f 42 41 32
f 43 44 41
f 43 41 42
f 43 42 45
f 46 43 45
f 46 45 47
f 48 46 47
f 48 47 49
f 50 48 49
f 50 49 51
f 52 50 51
f 52 51 53
f 54 52 53
f 54 53 55
f 56 54 55
f 56 55 57
f 58 56 57
f 58 57 59
f 60 58 59
f 60 59 61
f 60 61 62
f 63 58 60
f 64 63 60
f 65 63 64
f 66 65 64
f 67 65 66
f 68 67 66
f 69 67 68
f 70 69 68
f 71 69 70
f 72 71 70
f 73 71 72
f 74 73 72
f 75 73 74
f 75 74 76
f 77 75 76
f 78 75 77
f 79 78 77
f 80 78 79
f 81 80 79
f 82 81 83
f 84 83 81
f 85 84 81
f 86 85 81
f 87 86 81
f 88 80 81
f 88 81 82
f 89 90 91
f 89 91 92
f 89 92 93
f 89 93 94
f 89 94 95
f 89 95 87
f 89 87 81
f 96 90 89
f 97 96 89
f 98 96 97
f 99 98 97
f 100 98 99
f 101 100 99
f 102 101 103
f 102 100 101
f 104 102 103
f 105 102 104
f 106 105 104
f 107 105 106
f 108 107 106
f 109 107 108
f 110 109 108
f 111 110 112
f 111 109 110
f 113 112 114
f 113 111 112
f 115 116 117
f 118 115 117
f 119 117 120
f 119 118 117
f 121 120 122
f 121 119 120
f 123 122 124
f 123 121 122
f 125 124 126
f 125 123 124
f 127 125 126
f 127 126 128
f 129 127 128
f 129 128 130
f 129 130 131
f 132 129 131
f 133 132 131
f 133 131 134
f 135 133 134
f 135 134 136
f 135 136 137
f 138 135 137
f 139 138 137
f 139 137 140
f 139 140 141
f 142 139 141
f 143 142 141
f 143 141 144
f 145 143 144
f 145 144 146
f 145 146 147
f 148 145 147
f 148 147 149
f 150 148 149
f 151 150 149
f 151 149 152
f 151 152 153
f 154 151 153
f 155 154 153
f 155 153 156
f 155 156 157
f 158 157 159
f 158 155 157
f 160 158 159
f 161 159 162
f 161 162 163
f 161 160 159
f 164 161 163
f 165 163 166
f 165 164 163
f 167 166 168
f 167 165 166
f 169 168 170
f 169 170 171
f 169 167 168
f 172 171 173
f 172 169 171
f 174 172 173
f 175 173 176
f 175 176 177
f 175 174 173
f 178 177 179
f 178 175 177
f 180 178 179
f 181 180 179
f 181 179 182
f 181 182 183
f 184 181 183
f 185 184 183
f 185 183 186
f 187 185 186
f 187 186 188
f 189 190 191
f 192 193 190
f 194 189 195
f 194 195 196
f 197 194 198
f 199 200 201
f 199 201 192
f 199 202 200
f 199 192 190
f 203 197 204
f 203 204 205
f 203 194 197
f 206 207 208
f 206 208 199
f 206 190 189
f 206 199 190
f 209 189 194
f 209 194 203
f 210 211 206
f 212 209 213
f 212 213 214
f 212 214 215
f 216 217 218
f 219 220 221
f 216 222 210
f 219 206 189
f 219 189 209
f 219 210 206
f 219 209 212
f 223 212 224
f 223 224 225
f 226 219 212
f 226 212 223
f 226 227 219
f 228 229 230
f 228 230 231
f 232 233 229
f 232 229 228
f 234 235 236
f 237 238 239
f 234 240 241
f 242 243 244
f 245 233 232
f 246 247 233
f 246 233 245
f 248 249 247
f 248 247 246
f 250 251 249
f 250 249 248
f 252 253 251
f 252 251 250
f 254 253 252
f 255 236 253
f 255 253 254
f 256 236 255
f 257 236 256
f 257 234 236
f 258 259 260
f 261 234 259
f 261 262 234
f 261 257 263
f 264 262 261
f 264 265 262
f 266 267 268
f 269 270 271
f 272 269 271
f 272 271 273
f 274 265 264
f 274 275 276
f 274 276 265
f 277 272 273
f 277 273 278
f 279 275 274
f 279 280 281
f 279 281 275
f 282 277 278
f 282 280 279
f 282 278 280
f 283 284 285
f 286 283 285
f 286 287 283
f 286 285 288
f 286 288 289
f 290 286 289
f 290 291 292
f 290 289 291
f 293 290 292
f 293 292 294
f 295 293 294
f 295 296 297
f 295 294 296
f 298 295 297
f 298 297 299
f 300 298 299
f 300 299 301
f 302 300 301
f 302 303 304
f 302 301 303
f 305 302 304
f 305 304 306
f 307 306 308
f 309 305 306
f 309 306 307
f 310 307 308
f 311 310 308
f 312 311 308
f 313 312 308
f 314 313 308
f 315 314 308
f 316 305 309
f 317 315 308
f 318 317 308
f 319 320 318
f 319 318 308
f 321 320 319
f 321 322 320
f 321 319 323
f 324 325 326
f 324 323 325
f 324 321 323
f 327 326 328
f 327 324 326
f 329 328 330
f 329 327 328
f 331 330 332
f 331 329 330
f 333 331 332
f 333 332 334
f 335 333 334
f 2 336 337
f 2 337 338
f 339 335 334
f 339 334 340
f 339 340 341
f 339 341 342
f 339 342 336
f 343 339 336
f 343 336 2
f 344 339 343
f 345 344 343
f 346 344 345
f 347 346 345
f 348 346 347
f 349 348 347
f 350 348 349
f 351 350 349
f 352 350 351
f 353 352 351
f 354 352 353
f 355 354 353
f 356 354 355
f 356 355 357
f 358 356 357
f 359 356 358
f 360 359 358
f 361 359 360
f 362 361 360
f 363 361 362
f 364 363 362
f 365 363 364
f 366 365 364
f 367 365 366
f 368 367 366
f 369 367 368
f 370 369 368
f 371 369 370
f 371 370 372
f 373 371 372
f 374 371 373
f 375 374 373
f 376 374 375
f 377 376 375
f 378 376 377
f 379 378 377
f 380 379 381
f 380 378 379
f 382 381 383
f 382 380 381
f 384 385 386
f 384 386 387
f 388 387 389
f 388 384 387
f 390 389 391
f 390 388 389
f 392 391 393
f 392 390 391
f 394 393 395
f 394 392 393
f 396 395 397
f 396 394 395
f 398 397 399
f 398 396 397
f 400 399 401
f 400 398 399
f 402 401 403
f 402 400 401
f 404 403 405
f 404 402 403
f 406 405 407
f 406 404 405
f 408 409 410
f 411 409 408
f 412 411 408
f 413 411 412
f 414 413 415
f 416 417 414
f 416 414 415
f 418 419 420
f 421 418 420
f 422 423 424
f 425 426 422
f 427 426 425
f 427 428 426
f 429 428 430
f 431 429 430
f 432 429 431
f 433 434 435
f 433 436 434
f 437 412 415
f 437 413 412
f 437 415 413
f 438 416 420
f 438 419 417
f 438 417 416
f 438 420 419
f 439 421 440
f 439 441 418
f 439 418 421
f 442 443 444
f 442 445 358
f 446 447 448
f 446 449 450
f 451 424 425
f 451 422 424
f 451 425 422
f 452 428 427
f 452 430 428
f 452 427 430
f 453 432 431
f 453 435 434
f 453 434 432
f 453 431 435
f 454 439 440
f 454 441 439
f 455 440 443
f 455 358 441
f 455 441 454
f 455 454 440
f 456 358 455
f 456 442 358
f 456 455 443
f 456 443 442
f 457 445 442
f 457 442 444
f 458 444 447
f 458 457 444
f 458 450 445
f 458 445 457
f 459 447 446
f 459 446 450
f 459 458 447
f 459 450 458
f 460 446 448
f 460 449 446
f 461 448 462
f 461 463 449
f 461 460 448
f 461 449 460
f 464 463 461
f 464 461 462
f 465 462 466
f 465 467 463
f 465 466 468
f 465 464 462
f 465 468 467
f 465 463 464
f 469 466 470
f 469 423 467
f 469 468 466
f 469 467 468
f 471 470 424
f 471 469 470
f 471 424 423
f 471 423 469
f 472 473 474
f 472 474 475
f 476 475 477
f 476 472 475
f 478 477 479
f 478 476 477
f 480 478 479
f 481 479 482
f 481 480 479
f 483 482 484
f 483 481 482
f 485 484 486
f 485 483 484
f 487 486 488
f 487 485 486
f 489 488 490
f 489 487 488
f 491 490 492
f 491 489 490
f 493 492 494
f 493 491 492
f 114 494 2
f 495 496 383
f 497 498 499
f 500 501 502
f 503 504 505
f 503 497 504
f 503 505 506
f 503 507 500
f 503 506 507
f 503 502 498
f 503 498 497
f 503 500 502
f 508 509 510
f 508 511 509
f 512 513 511
f 512 511 508
f 514 515 513
f 516 515 514
f 517 515 516
f 518 519 394
f 520 519 518
f 521 520 518
f 522 523 524
f 525 522 526
f 527 525 526
f 528 525 527
f 529 530 531
f 529 532 530
f 533 534 535
f 536 533 535
f 537 512 514
f 537 513 512
f 537 514 513
f 538 516 394
f 538 519 517
f 538 517 516
f 538 394 519
f 539 540 520
f 539 520 521
f 539 521 540
f 541 542 543
f 541 544 545
f 546 547 548
f 546 549 550
f 551 524 526
f 551 522 524
f 551 526 522
f 552 527 531
f 552 528 527
f 552 531 530
f 552 530 528
f 553 529 535
f 553 532 529
f 553 535 534
f 553 534 532
f 554 521 555
f 554 540 521
f 556 555 542
f 556 545 540
f 556 540 554
f 556 554 555
f 557 556 542
f 557 542 541
f 557 541 545
f 557 545 556
f 558 541 543
f 558 544 541
f 559 543 547
f 559 550 544
f 559 558 543
f 559 544 558
f 560 550 559
f 560 547 546
f 560 546 550
f 560 559 547
f 561 549 546
f 561 546 548
f 562 548 563
f 562 564 549
f 562 549 561
f 562 561 548
f 565 564 562
f 565 562 563
f 566 563 567
f 566 568 569
f 566 567 568
f 566 569 564
f 566 565 563
f 566 564 565
f 570 569 568
f 570 568 567
f 571 569 570
f 571 567 572
f 571 523 569
f 571 570 567
f 573 572 524
f 573 524 523
f 573 523 571
f 573 571 572

