# https://github.com/mikedh/trimesh
v 0.00296903 0.20417090 0.06770092
v -0.00714189 0.20696610 0.06770092
v 0.00313646 0.20731650 0.06770092
v 0.01331955 0.20587669 0.06770092
v 0.01260840 0.20280799 0.06770092
v 0.02186477 0.19979200 0.06770092
v 0.02309799 0.20269060 0.06770092
v -0.00676060 0.20383920 0.06770092
v 0.03217452 0.19785491 0.06770092
v -0.01720327 0.20483610 0.06770092
v 0.03045672 0.19521450 0.06770092
v -0.01628482 0.20182291 0.06770092
v 0.03812330 0.18921450 0.06770092
v 0.04027348 0.19151650 0.06770092
v -0.02531421 0.19818351 0.06770092
v -0.02674198 0.20099130 0.06770092
v 0.04714876 0.18386810 0.06770092
v -0.03546810 0.19554870 0.06770092
v 0.04463154 0.18197440 0.06770092
v -0.03357452 0.19303140 0.06770092
v 0.04978358 0.17371410 0.06770092
v 0.05259144 0.17514190 0.06770092
v -0.04081457 0.18652320 0.06770092
v -0.04311656 0.18867341 0.06770092
v 0.05342304 0.16468470 0.06770092
v 0.05643618 0.16560321 0.06770092
v -0.04681456 0.17885660 0.06770092
v -0.04945498 0.18057440 0.06770092
v 0.05856609 0.15554181 0.06770092
v 0.05543929 0.15516050 0.06770092
v -0.05139213 0.17026471 0.06770092
v -0.05429071 0.17149790 0.06770092
v -0.05747681 0.16171950 0.06770092
v 0.05577099 0.14543089 0.06770092
v 0.05891656 0.14526340 0.06770092
v -0.05440813 0.16100840 0.06770092
v 0.05747681 0.13508029 0.06770092
v 0.05440813 0.13579141 0.06770092
v -0.05891656 0.15153641 0.06770092
v -0.05577099 0.15136890 0.06770092
v 0.05429071 0.12530190 0.06770092
v 0.05139213 0.12653510 0.06770092
v -0.05856609 0.14125800 0.06770092
v -0.05543929 0.14163920 0.06770092
v 0.04945498 0.11622530 0.06770092
v 0.04681456 0.11794310 0.06770092
v -0.05643618 0.13119660 0.06770092
v -0.05342304 0.13211501 0.06770092
v 0.04311656 0.10812640 0.06770092
v 0.04081457 0.11027650 0.06770092
v -0.05259144 0.12165790 0.06770092
v -0.04978358 0.12308560 0.06770092
v 0.03357452 0.10376840 0.06770092
v 0.03546810 0.10125110 0.06770092
v -0.04714876 0.11293170 0.06770092
v -0.04463154 0.11482540 0.06770092
v 0.02674198 0.09580838 0.06770092
v 0.02531421 0.09861624 0.06770092
v -0.04027348 0.10528330 0.06770092
v -0.03812330 0.10758530 0.06770092
v 0.01720327 0.09196370 0.06770092
v 0.01628482 0.09497678 0.06770092
v -0.03217452 0.09894490 0.06770092
v -0.03045672 0.10158530 0.06770092
v 0.00676060 0.09296059 0.06770092
v 0.00714189 0.08983373 0.06770092
v -0.02309799 0.09410917 0.06770092
v -0.02186477 0.09700775 0.06770092
v -0.01260840 0.09399169 0.06770092
v -0.00313646 0.08948332 0.06770092
v -0.00296903 0.09262883 0.06770092
v -0.01331955 0.09092301 0.06770092
v -0.04714876 0.11293170 0.06770092
v -0.04714876 0.11293170 0.06920093
v -0.05259144 0.12165790 0.06920093
v -0.05259144 0.12165790 0.06770092
v -0.05643618 0.13119660 0.06770092
v -0.05643618 0.13119660 0.06920093
v -0.05856609 0.14125800 0.06770092
v -0.05856609 0.14125800 0.06920093
v -0.05891656 0.15153641 0.06770092
v -0.05891656 0.15153641 0.06920093
v -0.05747681 0.16171950 0.06770092
v -0.05747681 0.16171950 0.06920093
v -0.05429071 0.17149790 0.06770092
v -0.05429071 0.17149790 0.06920093
v -0.04945498 0.18057440 0.06920093
v -0.04945498 0.18057440 0.06770092
v -0.04311656 0.18867341 0.06770092
v -0.04311656 0.18867341 0.06920093
v -0.03546810 0.19554870 0.06770092
v -0.03546810 0.19554870 0.06920093
v -0.02674198 0.20099130 0.06770092
v -0.02674198 0.20099130 0.06920093
v -0.01720327 0.20483610 0.06770092
v -0.01720327 0.20483610 0.06920093
v -0.00714189 0.20696610 0.06770092
v -0.00714189 0.20696610 0.06920093
v 0.00313646 0.20731650 0.06770092
v 0.00313646 0.20731650 0.06920093
v 0.01331955 0.20587669 0.06770092
v 0.01331955 0.20587669 0.06920093
v 0.02309799 0.20269060 0.06770092
v 0.02309799 0.20269060 0.06920093
v 0.03217452 0.19785491 0.06770092
v 0.03217452 0.19785491 0.06920093
v 0.04027348 0.19151650 0.06770092
v 0.04027348 0.19151650 0.06920093
v 0.04714876 0.18386810 0.06770092
v 0.04714876 0.18386810 0.06920093
v 0.05259144 0.17514190 0.06770092
v 0.05259144 0.17514190 0.06920093
v 0.05643618 0.16560321 0.06770092
v 0.05643618 0.16560321 0.06920093
v 0.05856609 0.15554181 0.06770092
v 0.05856609 0.15554181 0.06920093
v 0.05891656 0.14526340 0.06770092
v 0.05891656 0.14526340 0.06920093
v 0.05747681 0.13508029 0.06770092
v 0.05747681 0.13508029 0.06920093
v 0.05429071 0.12530190 0.06770092
v 0.05429071 0.12530190 0.06920093
v 0.04945498 0.11622530 0.06770092
v 0.04945498 0.11622530 0.06920093
v 0.04311656 0.10812640 0.06770092
v 0.04311656 0.10812640 0.06920093
v 0.03546810 0.10125110 0.06920093
v 0.03546810 0.10125110 0.06770092
v 0.02674198 0.09580838 0.06770092
v 0.02674198 0.09580838 0.06920093
v 0.01720327 0.09196370 0.06770092
v 0.01720327 0.09196370 0.06920093
v 0.00714189 0.08983373 0.06770092
v 0.00714189 0.08983373 0.06920093
v -0.00313646 0.08948332 0.06920093
v -0.00313646 0.08948332 0.06770092
v -0.01331955 0.09092301 0.06770092
v -0.01331955 0.09092301 0.06920093
v -0.02309799 0.09410917 0.06770092
v -0.02309799 0.09410917 0.06920093
v -0.03217452 0.09894490 0.06770092
v -0.03217452 0.09894490 0.06920093
v -0.04027348 0.10528330 0.06770092
v -0.04027348 0.10528330 0.06920093
v -0.04714876 0.11293170 0.06770092
v -0.04714876 0.11293170 0.06920093
v -0.05533361 0.16122280 0.06920093
v -0.05429071 0.17149790 0.06920093
v -0.05747681 0.16171950 0.06920093
v -0.05671966 0.15141940 0.06920093
v -0.05891656 0.15153641 0.06920093
v -0.05226629 0.17063659 0.06920093
v -0.05638229 0.14152430 0.06920093
v -0.05856609 0.14125800 0.06920093
v -0.05643618 0.13119660 0.06920093
v -0.04761087 0.17937469 0.06920093
v -0.04945498 0.18057440 0.06920093
v -0.05433177 0.13183799 0.06920093
v -0.04150885 0.18717170 0.06920093
v -0.04311656 0.18867341 0.06920093
v -0.05063045 0.12265500 0.06920093
v -0.05259144 0.12165790 0.06920093
v -0.03414559 0.19379060 0.06920093
v -0.03546810 0.19554870 0.06920093
v -0.04539066 0.11425420 0.06920093
v -0.04714876 0.11293170 0.06920093
v -0.04027348 0.10528330 0.06920093
v -0.02574485 0.19903030 0.06920093
v -0.02674198 0.20099130 0.06920093
v -0.03877180 0.10689100 0.06920093
v -0.01656180 0.20273170 0.06920093
v -0.01720327 0.20483610 0.06920093
v -0.03097480 0.10078900 0.06920093
v -0.03217452 0.09894490 0.06920093
v -0.00687557 0.20478220 0.06920093
v -0.00714189 0.20696610 0.06920093
v -0.02223670 0.09613358 0.06920093
v -0.03217452 0.09894490 0.06920093
v -0.02309799 0.09410917 0.06920093
v 0.00301951 0.20511959 0.06920093
v 0.00313646 0.20731650 0.06920093
v -0.01282292 0.09306621 0.06920093
v -0.01331955 0.09092301 0.06920093
v -0.00301951 0.09168022 0.06920093
v 0.01331955 0.20587669 0.06920093
v 0.01282292 0.20373350 0.06920093
v -0.00313646 0.08948332 0.06920093
v 0.02223670 0.20066620 0.06920093
v 0.02309799 0.20269060 0.06920093
v 0.00714189 0.08983373 0.06920093
v 0.00687557 0.09201759 0.06920093
v 0.03217452 0.19785491 0.06920093
v 0.03097480 0.19601080 0.06920093
v 0.01720327 0.09196370 0.06920093
v 0.01656180 0.09406810 0.06920093
v 0.03877180 0.18990880 0.06920093
v 0.02574485 0.09776943 0.06920093
v 0.04027348 0.19151650 0.06920093
v 0.02674198 0.09580838 0.06920093
v 0.04714876 0.18386810 0.06920093
v 0.04539066 0.18254550 0.06920093
v 0.03546810 0.10125110 0.06920093
v 0.03414559 0.10300920 0.06920093
v 0.05259144 0.17514190 0.06920093
v 0.05063045 0.17414480 0.06920093
v 0.04311656 0.10812640 0.06920093
v 0.04150885 0.10962810 0.06920093
v 0.05433177 0.16496170 0.06920093
v 0.04761087 0.11742500 0.06920093
v 0.05643618 0.16560321 0.06920093
v 0.04945498 0.11622530 0.06920093
v 0.05856609 0.15554181 0.06920093
v 0.05638229 0.15527549 0.06920093
v 0.05429071 0.12530190 0.06920093
v 0.05226629 0.12616320 0.06920093
v 0.05891656 0.14526340 0.06920093
v 0.05671966 0.14538030 0.06920093
v 0.05747681 0.13508029 0.06920093
v 0.05533361 0.13557699 0.06920093
v -0.05052930 0.12270650 0.07570093
v -0.04539066 0.11425420 0.06920093
v -0.04530000 0.11432250 0.07570093
v -0.05063045 0.12265500 0.06920093
v -0.05433177 0.13183799 0.06920093
v -0.05422323 0.13187110 0.07570093
v -0.05638229 0.14152430 0.06920093
v -0.05626964 0.14153799 0.07570093
v -0.05671966 0.15141940 0.06920093
v -0.05660635 0.15141340 0.07570093
v -0.05522310 0.16119720 0.07570093
v -0.05533361 0.16122280 0.06920093
v -0.05226629 0.17063659 0.06920093
v -0.05216187 0.17059210 0.07570093
v -0.04761087 0.17937469 0.06920093
v -0.04751580 0.17931280 0.07570093
v -0.04150885 0.18717170 0.06920093
v -0.04142594 0.18709420 0.07570093
v -0.03414559 0.19379060 0.06920093
v -0.03407740 0.19369990 0.07570093
v -0.02574485 0.19903030 0.06920093
v -0.02569341 0.19892921 0.07570093
v -0.01656180 0.20273170 0.06920093
v -0.01652872 0.20262310 0.07570093
v -0.00687557 0.20478220 0.06920093
v -0.00686187 0.20466959 0.07570093
v 0.00301951 0.20511959 0.06920093
v 0.00301349 0.20500630 0.07570093
v 0.01282292 0.20373350 0.06920093
v 0.01279729 0.20362300 0.07570093
v 0.02223670 0.20066620 0.06920093
v 0.02219223 0.20056181 0.07570093
v 0.03097480 0.19601080 0.06920093
v 0.03091293 0.19591570 0.07570093
v 0.03877180 0.18990880 0.06920093
v 0.03869432 0.18982580 0.07570093
v 0.04539066 0.18254550 0.06920093
v 0.04530000 0.18247730 0.07570093
v 0.05063045 0.17414480 0.06920093
v 0.05052930 0.17409331 0.07570093
v 0.05433177 0.16496170 0.06920093
v 0.05422323 0.16492860 0.07570093
v 0.05626964 0.15526180 0.07570093
v 0.05638229 0.15527549 0.06920093
v 0.05660635 0.14538640 0.07570093
v 0.05671966 0.14538030 0.06920093
v 0.05522310 0.13560250 0.07570093
v 0.05533361 0.13557699 0.06920093
v 0.05226629 0.12616320 0.06920093
v 0.05216187 0.12620761 0.07570093
v 0.04751580 0.11748690 0.07570093
v 0.04761087 0.11742500 0.06920093
v 0.04150885 0.10962810 0.06920093
v 0.04142594 0.10970550 0.07570093
v 0.03407740 0.10309980 0.07570093
v 0.03414559 0.10300920 0.06920093
v 0.02574485 0.09776943 0.06920093
v 0.02569341 0.09787058 0.07570093
v 0.01652872 0.09417659 0.07570093
v 0.01656180 0.09406810 0.06920093
v 0.00687557 0.09201759 0.06920093
v 0.00686187 0.09213018 0.07570093
v -0.00301951 0.09168022 0.06920093
v -0.00301349 0.09179347 0.07570093
v -0.01282292 0.09306621 0.06920093
v -0.01279729 0.09317678 0.07570093
v -0.02219223 0.09623795 0.07570093
v -0.02223670 0.09613358 0.06920093
v -0.03091293 0.10088410 0.07570093
v -0.03097480 0.10078900 0.06920093
v -0.03877180 0.10689100 0.06920093
v -0.03869432 0.10697390 0.07570093
v -0.04539066 0.11425420 0.06920093
v -0.04530000 0.11432250 0.07570093
v -0.05434012 0.16099259 0.07570093
v -0.05522310 0.16119720 0.07570093
v -0.05660635 0.15141340 0.07570093
v -0.05570131 0.15136521 0.07570093
v -0.05132788 0.17023730 0.07570093
v -0.05216187 0.17059210 0.07570093
v -0.05536997 0.14164770 0.07570093
v -0.05626964 0.14153799 0.07570093
v -0.04751580 0.17931280 0.07570093
v -0.04675608 0.17881860 0.07570093
v -0.05335628 0.13213541 0.07570093
v -0.05422323 0.13187110 0.07570093
v -0.04142594 0.18709420 0.07570093
v -0.04076355 0.18647560 0.07570093
v -0.04972136 0.12311730 0.07570093
v -0.05052930 0.12270650 0.07570093
v -0.03407740 0.19369990 0.07570093
v -0.04530000 0.11432250 0.07570093
v -0.03353250 0.19297560 0.07570093
v -0.03407740 0.19369990 0.07570093
v -0.04076355 0.18647560 0.07570093
v -0.04457575 0.11486730 0.07570093
v -0.02528262 0.19812129 0.07570093
v -0.02569341 0.19892921 0.07570093
v -0.03807562 0.10763630 0.07570093
v -0.03869432 0.10697390 0.07570093
v -0.03807562 0.10763630 0.07570093
v -0.04457575 0.11486730 0.07570093
v -0.01626443 0.20175619 0.07570093
v -0.01626443 0.20175619 0.07570093
v -0.01652872 0.20262310 0.07570093
v -0.02569341 0.19892921 0.07570093
v -0.03041869 0.10164380 0.07570093
v -0.03041869 0.10164380 0.07570093
v -0.03869432 0.10697390 0.07570093
v -0.03091293 0.10088410 0.07570093
v -0.02219223 0.09623795 0.07570093
v -0.03091293 0.10088410 0.07570093
v -0.00675213 0.20376991 0.07570093
v -0.00686187 0.20466959 0.07570093
v -0.01652872 0.20262310 0.07570093
v -0.00675213 0.20376991 0.07570093
v -0.01652872 0.20262310 0.07570093
v -0.02183741 0.09707200 0.07570093
v -0.02219223 0.09623795 0.07570093
v -0.01279729 0.09317678 0.07570093
v 0.00296527 0.20410120 0.07570093
v 0.00301349 0.20500630 0.07570093
v -0.00686187 0.20466959 0.07570093
v 0.00296527 0.20410120 0.07570093
v -0.01259267 0.09405970 0.07570093
v -0.02183741 0.09707200 0.07570093
v -0.00296527 0.09269857 0.07570093
v -0.01259267 0.09405970 0.07570093
v -0.01279729 0.09317678 0.07570093
v 0.01279729 0.20362300 0.07570093
v 0.00301349 0.20500630 0.07570093
v 0.00296527 0.20410120 0.07570093
v 0.01279729 0.20362300 0.07570093
v 0.01259267 0.20274000 0.07570093
v -0.00301349 0.09179347 0.07570093
v -0.00296527 0.09269857 0.07570093
v 0.02219223 0.20056181 0.07570093
v 0.01259267 0.20274000 0.07570093
v 0.02183741 0.19972780 0.07570093
v 0.00686187 0.09213018 0.07570093
v -0.00296527 0.09269857 0.07570093
v -0.00301349 0.09179347 0.07570093
v 0.00686187 0.09213018 0.07570093
v 0.00675213 0.09302991 0.07570093
v 0.03091293 0.19591570 0.07570093
v 0.03041869 0.19515599 0.07570093
v 0.01652872 0.09417659 0.07570093
v 0.01652872 0.09417659 0.07570093
v 0.01626443 0.09504359 0.07570093
v 0.00675213 0.09302991 0.07570093
v 0.03869432 0.18982580 0.07570093
v 0.03807562 0.18916351 0.07570093
v 0.03091293 0.19591570 0.07570093
v 0.02569341 0.09787058 0.07570093
v 0.02528262 0.09867846 0.07570093
v 0.02569341 0.09787058 0.07570093
v 0.01626443 0.09504359 0.07570093
v 0.01652872 0.09417659 0.07570093
v 0.04457575 0.18193240 0.07570093
v 0.03353250 0.10382410 0.07570093
v 0.04530000 0.18247730 0.07570093
v 0.03407740 0.10309980 0.07570093
v 0.05052930 0.17409331 0.07570093
v 0.04972136 0.17368250 0.07570093
v 0.04142594 0.10970550 0.07570093
v 0.04076355 0.11032420 0.07570093
v 0.05422323 0.16492860 0.07570093
v 0.05335628 0.16466430 0.07570093
v 0.04751580 0.11748690 0.07570093
v 0.04675608 0.11798120 0.07570093
v 0.04751580 0.11748690 0.07570093
v 0.05626964 0.15526180 0.07570093
v 0.05536997 0.15515199 0.07570093
v 0.05216187 0.12620761 0.07570093
v 0.05132788 0.12656240 0.07570093
v 0.05434012 0.13580720 0.07570093
v 0.05660635 0.14538640 0.07570093
v 0.05570131 0.14543460 0.07570093
v 0.05522310 0.13560250 0.07570093
v -0.04972136 0.12311730 0.07570093
v -0.04457575 0.11486730 0.07570093
v -0.04463154 0.11482540 0.06770092
v -0.04978358 0.12308560 0.06770092
v -0.05342304 0.13211501 0.06770092
v -0.05335628 0.13213541 0.07570093
v -0.05536997 0.14164770 0.07570093
v -0.05543929 0.14163920 0.06770092
v -0.05570131 0.15136521 0.07570093
v -0.05577099 0.15136890 0.06770092
v -0.05440813 0.16100840 0.06770092
v -0.05434012 0.16099259 0.07570093
v -0.05139213 0.17026471 0.06770092
v -0.05132788 0.17023730 0.07570093
v -0.04681456 0.17885660 0.06770092
v -0.04675608 0.17881860 0.07570093
v -0.04081457 0.18652320 0.06770092
v -0.04076355 0.18647560 0.07570093
v -0.03357452 0.19303140 0.06770092
v -0.03353250 0.19297560 0.07570093
v -0.02531421 0.19818351 0.06770092
v -0.02528262 0.19812129 0.07570093
v -0.01628482 0.20182291 0.06770092
v -0.01626443 0.20175619 0.07570093
v -0.00676060 0.20383920 0.06770092
v -0.00675213 0.20376991 0.07570093
v 0.00296903 0.20417090 0.06770092
v 0.00296527 0.20410120 0.07570093
v 0.01260840 0.20280799 0.06770092
v 0.01259267 0.20274000 0.07570093
v 0.02186477 0.19979200 0.06770092
v 0.02183741 0.19972780 0.07570093
v 0.03041869 0.19515599 0.07570093
v 0.03045672 0.19521450 0.06770092
v 0.03812330 0.18921450 0.06770092
v 0.03807562 0.18916351 0.07570093
v 0.04463154 0.18197440 0.06770092
v 0.04457575 0.18193240 0.07570093
v 0.04978358 0.17371410 0.06770092
v 0.04972136 0.17368250 0.07570093
v 0.05342304 0.16468470 0.06770092
v 0.05335628 0.16466430 0.07570093
v 0.05543929 0.15516050 0.06770092
v 0.05536997 0.15515199 0.07570093
v 0.05577099 0.14543089 0.06770092
v 0.05570131 0.14543460 0.07570093
v 0.05440813 0.13579141 0.06770092
v 0.05434012 0.13580720 0.07570093
v 0.05139213 0.12653510 0.06770092
v 0.05132788 0.12656240 0.07570093
v 0.04681456 0.11794310 0.06770092
v 0.04675608 0.11798120 0.07570093
v 0.04076355 0.11032420 0.07570093
v 0.04081457 0.11027650 0.06770092
v 0.03357452 0.10376840 0.06770092
v 0.03353250 0.10382410 0.07570093
v 0.02531421 0.09861624 0.06770092
v 0.02528262 0.09867846 0.07570093
v 0.01628482 0.09497678 0.06770092
v 0.01626443 0.09504359 0.07570093
v 0.00675213 0.09302991 0.07570093
v 0.00676060 0.09296059 0.06770092
v -0.00296903 0.09262883 0.06770092
v -0.00296527 0.09269857 0.07570093
v -0.01260840 0.09399169 0.06770092
v -0.01259267 0.09405970 0.07570093
v -0.02186477 0.09700775 0.06770092
v -0.02183741 0.09707200 0.07570093
v -0.03041869 0.10164380 0.07570093
v -0.03045672 0.10158530 0.06770092
v -0.03807562 0.10763630 0.07570093
v -0.03812330 0.10758530 0.06770092
v -0.04463154 0.11482540 0.06770092
v -0.04457575 0.11486730 0.07570093
v -0.04184442 0.08209991 0.36277270
v -0.04249000 0.08209991 0.37015101
v -0.04238522 0.08809989 0.37015101
v -0.04174131 0.08809989 0.36279079
v -0.03992754 0.08209991 0.35561851
v -0.03982907 0.08809989 0.35565439
v -0.03679740 0.08209991 0.34890601
v -0.03670668 0.08809989 0.34895831
v -0.03254920 0.08209991 0.34283891
v -0.03246897 0.08809989 0.34290621
v -0.02731204 0.08209991 0.33760169
v -0.02724468 0.08809989 0.33768201
v -0.02124500 0.08209991 0.33335349
v -0.02119261 0.08809989 0.33344421
v -0.01453238 0.08209991 0.33022350
v -0.01449656 0.08809989 0.33032191
v -0.00737828 0.08209991 0.32830650
v -0.00736010 0.08809989 0.32840961
v 0.00000000 0.08209991 0.32766101
v 0.00000000 0.08809989 0.32776570
v 0.00737828 0.08209991 0.32830650
v 0.00736010 0.08809989 0.32840961
v 0.01453238 0.08209991 0.33022350
v 0.01449656 0.08809989 0.33032191
v 0.02124500 0.08209991 0.33335349
v 0.02119261 0.08809989 0.33344421
v 0.02731204 0.08209991 0.33760169
v 0.02724468 0.08809989 0.33768201
v 0.03254920 0.08209991 0.34283891
v 0.03246897 0.08809989 0.34290621
v 0.03679740 0.08209991 0.34890601
v 0.03670668 0.08809989 0.34895831
v 0.03992754 0.08209991 0.35561851
v 0.03982907 0.08809989 0.35565439
v 0.04184442 0.08209991 0.36277270
v 0.04174131 0.08809989 0.36279079
v 0.04249000 0.08209991 0.37015101
v 0.04238522 0.08809989 0.37015101
v 0.04184442 0.08209991 0.37752929
v 0.04174131 0.08809989 0.37751111
v 0.03992754 0.08209991 0.38468340
v 0.03982907 0.08809989 0.38464761
v 0.03679740 0.08209991 0.39139599
v 0.03670668 0.08809989 0.39134359
v 0.03254920 0.08209991 0.39746299
v 0.03246897 0.08809989 0.39739570
v 0.02731204 0.08209991 0.40270019
v 0.02724468 0.08809989 0.40261999
v 0.02124500 0.08209991 0.40694839
v 0.02119261 0.08809989 0.40685770
v 0.01453238 0.08209991 0.41007850
v 0.01449656 0.08809989 0.40998009
v 0.00737828 0.08209991 0.41199541
v 0.00736010 0.08809989 0.41189229
v 0.00000000 0.08209991 0.41264090
v 0.00000000 0.08809989 0.41253620
v -0.00737828 0.08209991 0.41199541
v -0.00736010 0.08809989 0.41189229
v -0.01453238 0.08209991 0.41007850
v -0.01449656 0.08809989 0.40998009
v -0.02124500 0.08209991 0.40694839
v -0.02119261 0.08809989 0.40685770
v -0.02731204 0.08209991 0.40270019
v -0.02724468 0.08809989 0.40261999
v -0.03254920 0.08209991 0.39746299
v -0.03246897 0.08809989 0.39739570
v -0.03679740 0.08209991 0.39139599
v -0.03670668 0.08809989 0.39134359
v -0.03992754 0.08209991 0.38468340
v -0.03982907 0.08809989 0.38464761
v -0.04184442 0.08209991 0.37752929
v -0.04174131 0.08809989 0.37751111
v -0.04249000 0.08209991 0.37015101
v -0.04238522 0.08809989 0.37015101
v -0.04051387 0.08809989 0.36300731
v -0.04113888 0.08809989 0.37015101
v -0.04119998 0.08109986 0.37015101
v -0.04057407 0.08109986 0.36299661
v -0.03871530 0.08109986 0.35605970
v -0.03865790 0.08809989 0.35608059
v -0.03568023 0.08109986 0.34955099
v -0.03562730 0.08809989 0.34958151
v -0.03156101 0.08109986 0.34366810
v -0.03151422 0.08809989 0.34370741
v -0.02648282 0.08109986 0.33858991
v -0.02644354 0.08809989 0.33863670
v -0.02059996 0.08109986 0.33447069
v -0.02056944 0.08809989 0.33452359
v -0.01409119 0.08109986 0.33143559
v -0.01407033 0.08809989 0.33149299
v -0.00715428 0.08109986 0.32957691
v -0.00714368 0.08809989 0.32963711
v 0.00000000 0.08109986 0.32895100
v 0.00000000 0.08809989 0.32901201
v 0.00715428 0.08109986 0.32957691
v 0.00714368 0.08809989 0.32963711
v 0.01409119 0.08109986 0.33143559
v 0.01407033 0.08809989 0.33149299
v 0.02059996 0.08109986 0.33447069
v 0.02056944 0.08809989 0.33452359
v 0.02648282 0.08109986 0.33858991
v 0.02644354 0.08809989 0.33863670
v 0.03156101 0.08109986 0.34366810
v 0.03151422 0.08809989 0.34370741
v 0.03568023 0.08109986 0.34955099
v 0.03562730 0.08809989 0.34958151
v 0.03865790 0.08809989 0.35608059
v 0.03871530 0.08109986 0.35605970
v 0.04051387 0.08809989 0.36300731
v 0.04057407 0.08109986 0.36299661
v 0.04113888 0.08809989 0.37015101
v 0.04119998 0.08109986 0.37015101
v 0.04057407 0.08109986 0.37730530
v 0.04051387 0.08809989 0.37729469
v 0.03871530 0.08109986 0.38424221
v 0.03865790 0.08809989 0.38422129
v 0.03568023 0.08109986 0.39075100
v 0.03562730 0.08809989 0.39072040
v 0.03151422 0.08809989 0.39659449
v 0.03156101 0.08109986 0.39663380
v 0.02644354 0.08809989 0.40166521
v 0.02648282 0.08109986 0.40171200
v 0.02059996 0.08109986 0.40583119
v 0.02056944 0.08809989 0.40577829
v 0.01407033 0.08809989 0.40880889
v 0.01409119 0.08109986 0.40886629
v 0.00714368 0.08809989 0.41066489
v 0.00715428 0.08109986 0.41072509
v 0.00000000 0.08109986 0.41135100
v 0.00000000 0.08809989 0.41128990
v -0.00715428 0.08109986 0.41072509
v -0.00714368 0.08809989 0.41066489
v -0.01409119 0.08109986 0.40886629
v -0.01407033 0.08809989 0.40880889
v -0.02059996 0.08109986 0.40583119
v -0.02056944 0.08809989 0.40577829
v -0.02648282 0.08109986 0.40171200
v -0.02644354 0.08809989 0.40166521
v -0.03156101 0.08109986 0.39663380
v -0.03151422 0.08809989 0.39659449
v -0.03562730 0.08809989 0.39072040
v -0.03568023 0.08109986 0.39075100
v -0.03871530 0.08109986 0.38424221
v -0.03865790 0.08809989 0.38422129
v -0.04057407 0.08109986 0.37730530
v -0.04051387 0.08809989 0.37729469
v -0.04119998 0.08109986 0.37015101
v -0.04113888 0.08809989 0.37015101
v 0.03156101 0.08109986 0.34366810
v 0.02892541 0.08109986 0.33567891
v 0.03447198 0.08109986 0.34122550
v 0.02648282 0.08109986 0.33858991
v 0.03568023 0.08109986 0.34955099
v 0.03897112 0.08109986 0.34765100
v 0.04228615 0.08109986 0.35476011
v 0.02059996 0.08109986 0.33447069
v 0.01539087 0.08109986 0.32786480
v 0.02249997 0.08109986 0.33117980
v 0.03871530 0.08109986 0.35605970
v 0.01409119 0.08109986 0.33143559
v 0.04431635 0.08109986 0.36233681
v 0.04057407 0.08109986 0.36299661
v 0.00715428 0.08109986 0.32957691
v 0.00781417 0.08109986 0.32583460
v 0.04119998 0.08109986 0.37015101
v 0.04499995 0.08109986 0.37015101
v 0.00000000 0.08109986 0.32895100
v 0.00000000 0.08109986 0.32515100
v 0.04431635 0.08109986 0.37796521
v 0.04057407 0.08109986 0.37730530
v -0.00715428 0.08109986 0.32957691
v -0.00781417 0.08109986 0.32583460
v 0.03871530 0.08109986 0.38424221
v 0.04228615 0.08109986 0.38554189
v -0.01409119 0.08109986 0.33143559
v -0.01539087 0.08109986 0.32786480
v 0.03568023 0.08109986 0.39075100
v 0.03897112 0.08109986 0.39265099
v -0.02059996 0.08109986 0.33447069
v -0.02249997 0.08109986 0.33117980
v 0.03447198 0.08109986 0.39907640
v 0.03156101 0.08109986 0.39663380
v -0.02648282 0.08109986 0.33858991
v -0.02892541 0.08109986 0.33567891
v 0.02648282 0.08109986 0.40171200
v -0.03156101 0.08109986 0.34366810
v 0.02892541 0.08109986 0.40462300
v -0.03447198 0.08109986 0.34122550
v 0.02249997 0.08109986 0.40912211
v 0.02059996 0.08109986 0.40583119
v -0.03897112 0.08109986 0.34765100
v -0.03568023 0.08109986 0.34955099
v 0.01539087 0.08109986 0.41243720
v 0.01409119 0.08109986 0.40886629
v -0.04228615 0.08109986 0.35476011
v -0.03871530 0.08109986 0.35605970
v 0.00781417 0.08109986 0.41446730
v 0.00715428 0.08109986 0.41072509
v -0.04431635 0.08109986 0.36233681
v -0.04057407 0.08109986 0.36299661
v 0.00000000 0.08109986 0.41515100
v 0.00000000 0.08109986 0.41135100
v -0.04499995 0.08109986 0.37015101
v -0.04119998 0.08109986 0.37015101
v -0.00781417 0.08109986 0.41446730
v -0.00715428 0.08109986 0.41072509
v -0.04431635 0.08109986 0.37796521
v -0.04057407 0.08109986 0.37730530
v -0.03871530 0.08109986 0.38424221
v -0.01539087 0.08109986 0.41243720
v -0.01409119 0.08109986 0.40886629
v -0.04228615 0.08109986 0.38554189
v -0.03568023 0.08109986 0.39075100
v -0.02249997 0.08109986 0.40912211
v -0.02059996 0.08109986 0.40583119
v -0.03897112 0.08109986 0.39265099
v -0.02892541 0.08109986 0.40462300
v -0.02648282 0.08109986 0.40171200
v -0.03156101 0.08109986 0.39663380
v -0.03447198 0.08109986 0.39907640
v -0.04499995 0.08109986 0.37015101
v -0.04499995 0.08209991 0.37015101
v -0.04431635 0.08209991 0.36233681
v -0.04431635 0.08109986 0.36233681
v -0.04228615 0.08109986 0.35476011
v -0.04228615 0.08209991 0.35476011
v -0.03897112 0.08109986 0.34765100
v -0.03897112 0.08209991 0.34765100
v -0.03447198 0.08109986 0.34122550
v -0.03447198 0.08209991 0.34122550
v -0.02892541 0.08109986 0.33567891
v -0.02892541 0.08209991 0.33567891
v -0.02249997 0.08109986 0.33117980
v -0.02249997 0.08209991 0.33117980
v -0.01539087 0.08209991 0.32786480
v -0.01539087 0.08109986 0.32786480
v -0.00781417 0.08109986 0.32583460
v -0.00781417 0.08209991 0.32583460
v 0.00000000 0.08109986 0.32515100
v 0.00000000 0.08209991 0.32515100
v 0.00781417 0.08109986 0.32583460
v 0.00781417 0.08209991 0.32583460
v 0.01539087 0.08109986 0.32786480
v 0.01539087 0.08209991 0.32786480
v 0.02249997 0.08109986 0.33117980
v 0.02249997 0.08209991 0.33117980
v 0.02892541 0.08109986 0.33567891
v 0.02892541 0.08209991 0.33567891
v 0.03447198 0.08109986 0.34122550
v 0.03447198 0.08209991 0.34122550
v 0.03897112 0.08109986 0.34765100
v 0.03897112 0.08209991 0.34765100
v 0.04228615 0.08109986 0.35476011
v 0.04228615 0.08209991 0.35476011
v 0.04431635 0.08109986 0.36233681
v 0.04431635 0.08209991 0.36233681
v 0.04499995 0.08209991 0.37015101
v 0.04499995 0.08109986 0.37015101
v 0.04431635 0.08109986 0.37796521
v 0.04431635 0.08209991 0.37796521
v 0.04228615 0.08109986 0.38554189
v 0.04228615 0.08209991 0.38554189
v 0.03897112 0.08209991 0.39265099
v 0.03897112 0.08109986 0.39265099
v 0.03447198 0.08109986 0.39907640
v 0.03447198 0.08209991 0.39907640
v 0.02892541 0.08109986 0.40462300
v 0.02892541 0.08209991 0.40462300
v 0.02249997 0.08209991 0.40912211
v 0.02249997 0.08109986 0.40912211
v 0.01539087 0.08109986 0.41243720
v 0.01539087 0.08209991 0.41243720
v 0.00781417 0.08109986 0.41446730
v 0.00781417 0.08209991 0.41446730
v 0.00000000 0.08109986 0.41515100
v 0.00000000 0.08209991 0.41515100
v -0.00781417 0.08109986 0.41446730
v -0.00781417 0.08209991 0.41446730
v -0.01539087 0.08109986 0.41243720
v -0.01539087 0.08209991 0.41243720
v -0.02249997 0.08109986 0.40912211
v -0.02249997 0.08209991 0.40912211
v -0.02892541 0.08109986 0.40462300
v -0.02892541 0.08209991 0.40462300
v -0.03447198 0.08109986 0.39907640
v -0.03447198 0.08209991 0.39907640
v -0.03897112 0.08109986 0.39265099
v -0.03897112 0.08209991 0.39265099
v -0.04228615 0.08109986 0.38554189
v -0.04228615 0.08209991 0.38554189
v -0.04431635 0.08109986 0.37796521
v -0.04431635 0.08209991 0.37796521
v -0.04499995 0.08209991 0.37015101
v -0.04499995 0.08109986 0.37015101
v -0.02731204 0.08209991 0.33760169
v -0.02731847 0.08209991 0.33759409
v -0.03255689 0.08209991 0.34283251
v -0.03254920 0.08209991 0.34283891
v -0.03680604 0.08209991 0.34890100
v -0.03254920 0.08209991 0.34283891
v -0.03255689 0.08209991 0.34283251
v -0.02124500 0.08209991 0.33335349
v -0.02124994 0.08209991 0.33334491
v -0.03679740 0.08209991 0.34890601
v -0.03680604 0.08209991 0.34890100
v -0.03993690 0.08209991 0.35561511
v -0.03679740 0.08209991 0.34890601
v -0.03680604 0.08209991 0.34890100
v -0.01453238 0.08209991 0.33022350
v -0.01453584 0.08209991 0.33021399
v -0.02124994 0.08209991 0.33334491
v -0.01453238 0.08209991 0.33022350
v -0.02124994 0.08209991 0.33334491
v -0.02124500 0.08209991 0.33335349
v -0.03992754 0.08209991 0.35561851
v -0.03993690 0.08209991 0.35561511
v -0.04185432 0.08209991 0.36277089
v -0.03992754 0.08209991 0.35561851
v -0.03993690 0.08209991 0.35561511
v -0.00737828 0.08209991 0.32830650
v -0.00738001 0.08209991 0.32829660
v -0.01453584 0.08209991 0.33021399
v -0.00737828 0.08209991 0.32830650
v -0.01453584 0.08209991 0.33021399
v -0.01453238 0.08209991 0.33022350
v -0.04184442 0.08209991 0.36277270
v -0.04185432 0.08209991 0.36277089
v 0.00000000 0.08209991 0.32766101
v 0.00000000 0.08209991 0.32765099
v -0.00738001 0.08209991 0.32829660
v 0.00000000 0.08209991 0.32766101
v -0.00738001 0.08209991 0.32829660
v -0.00737828 0.08209991 0.32830650
v -0.04249000 0.08209991 0.37015101
v -0.04184442 0.08209991 0.36277270
v -0.04249000 0.08209991 0.37015101
v -0.04249995 0.08209991 0.37015101
v -0.04185432 0.08209991 0.37753099
v 0.00737828 0.08209991 0.32830650
v 0.00738001 0.08209991 0.32829660
v -0.04184442 0.08209991 0.37752929
v -0.03993690 0.08209991 0.38468680
v -0.04184442 0.08209991 0.37752929
v -0.04185432 0.08209991 0.37753099
v 0.01453238 0.08209991 0.33022350
v 0.00738001 0.08209991 0.32829660
v 0.00737828 0.08209991 0.32830650
v 0.01453238 0.08209991 0.33022350
v 0.01453584 0.08209991 0.33021399
v 0.00738001 0.08209991 0.32829660
v -0.03992754 0.08209991 0.38468340
v -0.03993690 0.08209991 0.38468680
v -0.03680604 0.08209991 0.39140090
v -0.03992754 0.08209991 0.38468340
v 0.02124500 0.08209991 0.33335349
v 0.01453584 0.08209991 0.33021399
v 0.01453238 0.08209991 0.33022350
v 0.02124500 0.08209991 0.33335349
v 0.02124994 0.08209991 0.33334491
v 0.01453584 0.08209991 0.33021399
v -0.03679740 0.08209991 0.39139599
v -0.03680604 0.08209991 0.39140090
v 0.02731204 0.08209991 0.33760169
v 0.02731847 0.08209991 0.33759409
v 0.02731204 0.08209991 0.33760169
v 0.02124994 0.08209991 0.33334491
v 0.02124500 0.08209991 0.33335349
v -0.03254920 0.08209991 0.39746299
v -0.03255689 0.08209991 0.39746940
v -0.03254920 0.08209991 0.39746299
v -0.03679740 0.08209991 0.39139599
v -0.03680604 0.08209991 0.39140090
v -0.02731847 0.08209991 0.40270790
v -0.03254920 0.08209991 0.39746299
v -0.03255689 0.08209991 0.39746940
v -0.02731847 0.08209991 0.40270790
v -0.02731204 0.08209991 0.40270019
v 0.03255689 0.08209991 0.34283251
v 0.03254920 0.08209991 0.34283891
v -0.02124994 0.08209991 0.40695700
v -0.02731204 0.08209991 0.40270019
v -0.02731847 0.08209991 0.40270790
v -0.02124994 0.08209991 0.40695700
v -0.02124500 0.08209991 0.40694839
v 0.03680604 0.08209991 0.34890100
v 0.03679740 0.08209991 0.34890601
v 0.03680604 0.08209991 0.34890100
v 0.03255689 0.08209991 0.34283251
v 0.03254920 0.08209991 0.34283891
v -0.01453584 0.08209991 0.41008791
v -0.02124500 0.08209991 0.40694839
v -0.02124994 0.08209991 0.40695700
v -0.01453584 0.08209991 0.41008791
v -0.01453238 0.08209991 0.41007850
v 0.03993690 0.08209991 0.35561511
v 0.03992754 0.08209991 0.35561851
v 0.03993690 0.08209991 0.35561511
v 0.03680604 0.08209991 0.34890100
v 0.03679740 0.08209991 0.34890601
v 0.04184442 0.08209991 0.36277270
v 0.03993690 0.08209991 0.35561511
v 0.03992754 0.08209991 0.35561851
v -0.00738001 0.08209991 0.41200531
v -0.00737828 0.08209991 0.41199541
v -0.00738001 0.08209991 0.41200531
v -0.01453238 0.08209991 0.41007850
v -0.01453584 0.08209991 0.41008791
v 0.04185432 0.08209991 0.36277089
v 0.04184442 0.08209991 0.36277270
v 0.00000000 0.08209991 0.41265100
v 0.00000000 0.08209991 0.41264090
v 0.00000000 0.08209991 0.41265100
v -0.00737828 0.08209991 0.41199541
v -0.00738001 0.08209991 0.41200531
v 0.04249995 0.08209991 0.37015101
v 0.04249000 0.08209991 0.37015101
v 0.04249995 0.08209991 0.37015101
v 0.04185432 0.08209991 0.36277089
v 0.04184442 0.08209991 0.37752929
v 0.00738001 0.08209991 0.41200531
v 0.00000000 0.08209991 0.41264090
v 0.00000000 0.08209991 0.41265100
v 0.00738001 0.08209991 0.41200531
v 0.00737828 0.08209991 0.41199541
v 0.04185432 0.08209991 0.37753099
v 0.01453584 0.08209991 0.41008791
v 0.01453238 0.08209991 0.41007850
v 0.01453584 0.08209991 0.41008791
v 0.00737828 0.08209991 0.41199541
v 0.00738001 0.08209991 0.41200531
v 0.03993690 0.08209991 0.38468680
v 0.03992754 0.08209991 0.38468340
v 0.03993690 0.08209991 0.38468680
v 0.04185432 0.08209991 0.37753099
v 0.04184442 0.08209991 0.37752929
v 0.03679740 0.08209991 0.39139599
v 0.03992754 0.08209991 0.38468340
v 0.02124994 0.08209991 0.40695700
v 0.02124500 0.08209991 0.40694839
v 0.02124994 0.08209991 0.40695700
v 0.01453238 0.08209991 0.41007850
v 0.01453584 0.08209991 0.41008791
v 0.03680604 0.08209991 0.39140090
v 0.03679740 0.08209991 0.39139599
v 0.02731847 0.08209991 0.40270790
v 0.02124500 0.08209991 0.40694839
v 0.02124994 0.08209991 0.40695700
v 0.02731847 0.08209991 0.40270790
v 0.02731204 0.08209991 0.40270019
v 0.03255689 0.08209991 0.39746940
v 0.02731204 0.08209991 0.40270019
v 0.02731847 0.08209991 0.40270790
v 0.03255689 0.08209991 0.39746940
v 0.03254920 0.08209991 0.39746299
v 0.03255689 0.08209991 0.39746940
v 0.03680604 0.08209991 0.39140090
v 0.03679740 0.08209991 0.39139599
v 0.02855944 0.11870480 0.31980100
v 0.03119355 0.11596600 0.31980100
v 0.03635174 0.12187540 0.31980100
v 0.02296906 0.11419670 0.31980100
v 0.02508759 0.11104200 0.31980100
v 0.03119355 0.11596600 0.31980100
v 0.02296906 0.11419670 0.31980100
v 0.03328204 0.12411520 0.31980100
v 0.02855944 0.11870480 0.31980100
v 0.03635174 0.12187540 0.31980100
v 0.01668077 0.11072770 0.31980100
v 0.01079744 0.10471450 0.31980100
v 0.01821935 0.10725310 0.31980100
v 0.03699338 0.13026360 0.31980100
v 0.04040545 0.12859081 0.31980100
v 0.03328204 0.12411520 0.31980100
v 0.00988567 0.10840350 0.31980100
v 0.03958076 0.13696299 0.31980100
v 0.04323136 0.13590810 0.31980100
v 0.00279021 0.10729440 0.31980100
v 0.00304752 0.10350320 0.31980100
v 0.01079744 0.10471450 0.31980100
v 0.00279021 0.10729440 0.31980100
v 0.04096543 0.14400980 0.31980100
v 0.04474377 0.14360490 0.31980100
v -0.00439000 0.10743450 0.31980100
v 0.00304752 0.10350320 0.31980100
v -0.00479495 0.10365610 0.31980100
v 0.04110538 0.15119010 0.31980100
v 0.04489666 0.15144740 0.31980100
v -0.01143687 0.10881910 0.31980100
v -0.01249176 0.10516850 0.31980100
v -0.01980906 0.10799440 0.31980100
v 0.03999638 0.15828560 0.31980100
v 0.04368537 0.15919740 0.31980100
v 0.03999638 0.15828560 0.31980100
v 0.04489666 0.15144740 0.31980100
v -0.01813626 0.11140650 0.31980100
v -0.01980906 0.10799440 0.31980100
v -0.01143687 0.10881910 0.31980100
v 0.03767210 0.16508070 0.31980100
v 0.04114675 0.16661930 0.31980100
v -0.02428460 0.11511780 0.31980100
v -0.02652442 0.11204810 0.31980100
v -0.01813626 0.11140650 0.31980100
v 0.03735786 0.17348750 0.31980100
v 0.04114675 0.16661930 0.31980100
v 0.03420317 0.17136900 0.31980100
v 0.03735786 0.17348750 0.31980100
v -0.02969503 0.11984040 0.31980100
v -0.03243386 0.11720630 0.31980100
v -0.02969503 0.11984040 0.31980100
v -0.03420317 0.12543079 0.31980100
v 0.03243386 0.17959350 0.31980100
v 0.02969503 0.17695931 0.31980100
v -0.03735786 0.12331220 0.31980100
v -0.03767210 0.13171910 0.31980100
v -0.03735786 0.12331220 0.31980100
v 0.02652442 0.18475170 0.31980100
v 0.02652442 0.18475170 0.31980100
v 0.02428460 0.18168190 0.31980100
v -0.04114675 0.13018049 0.31980100
v -0.03767210 0.13171910 0.31980100
v 0.01813626 0.18539330 0.31980100
v 0.02428460 0.18168190 0.31980100
v 0.01980906 0.18880540 0.31980100
v 0.01813626 0.18539330 0.31980100
v -0.04368537 0.13760240 0.31980100
v -0.03999638 0.13851421 0.31980100
v 0.01249176 0.19163130 0.31980100
v 0.01143687 0.18798070 0.31980100
v -0.04489666 0.14535230 0.31980100
v -0.04110538 0.14560971 0.31980100
v 0.00479495 0.19314370 0.31980100
v 0.00439000 0.18936530 0.31980100
v -0.04474377 0.15319490 0.31980100
v -0.04096543 0.15279000 0.31980100
v -0.04489666 0.14535230 0.31980100
v -0.04110538 0.14560971 0.31980100
v -0.03958076 0.15983680 0.31980100
v -0.00304752 0.19329660 0.31980100
v -0.00279021 0.18950529 0.31980100
v -0.04323136 0.16089170 0.31980100
v -0.01079744 0.19208530 0.31980100
v -0.00279021 0.18950529 0.31980100
v -0.00304752 0.19329660 0.31980100
v -0.01079744 0.19208530 0.31980100
v -0.00988567 0.18839630 0.31980100
v -0.04040545 0.16820900 0.31980100
v -0.03699338 0.16653620 0.31980100
v -0.01821935 0.18954670 0.31980100
v -0.01668077 0.18607201 0.31980100
v -0.03635174 0.17492430 0.31980100
v -0.03328204 0.17268451 0.31980100
v -0.02508759 0.18575780 0.31980100
v -0.02296906 0.18260311 0.31980100
v -0.02855944 0.17809489 0.31980100
v -0.03119355 0.18083380 0.31980100
v -0.04474377 0.15319490 0.31980100
v -0.04474377 0.15319490 0.31880099
v -0.04489666 0.14535230 0.31880099
v -0.04489666 0.14535230 0.31980100
v -0.04368537 0.13760240 0.31980100
v -0.04368537 0.13760240 0.31880099
v -0.04114675 0.13018049 0.31980100
v -0.04114675 0.13018049 0.31880099
v -0.03735786 0.12331220 0.31980100
v -0.03735786 0.12331220 0.31880099
v -0.03243386 0.11720630 0.31980100
v -0.03243386 0.11720630 0.31880099
v -0.02652442 0.11204810 0.31980100
v -0.02652442 0.11204810 0.31880099
v -0.01980906 0.10799440 0.31980100
v -0.01980906 0.10799440 0.31880099
v -0.01249176 0.10516850 0.31980100
v -0.01249176 0.10516850 0.31880099
v -0.00479495 0.10365610 0.31980100
v -0.00479495 0.10365610 0.31880099
v 0.00304752 0.10350320 0.31880099
v 0.00304752 0.10350320 0.31980100
v 0.01079744 0.10471450 0.31980100
v 0.01079744 0.10471450 0.31880099
v 0.01821935 0.10725310 0.31980100
v 0.01821935 0.10725310 0.31880099
v 0.02508759 0.11104200 0.31880099
v 0.02508759 0.11104200 0.31980100
v 0.03119355 0.11596600 0.31880099
v 0.03119355 0.11596600 0.31980100
v 0.03635174 0.12187540 0.31980100
v 0.03635174 0.12187540 0.31880099
v 0.04040545 0.12859081 0.31980100
v 0.04040545 0.12859081 0.31880099
v 0.04323136 0.13590810 0.31980100
v 0.04323136 0.13590810 0.31880099
v 0.04474377 0.14360490 0.31980100
v 0.04474377 0.14360490 0.31880099
v 0.04489666 0.15144740 0.31880099
v 0.04489666 0.15144740 0.31980100
v 0.04368537 0.15919740 0.31980100
v 0.04368537 0.15919740 0.31880099
v 0.04114675 0.16661930 0.31980100
v 0.04114675 0.16661930 0.31880099
v 0.03735786 0.17348750 0.31980100
v 0.03735786 0.17348750 0.31880099
v 0.03243386 0.17959350 0.31980100
v 0.03243386 0.17959350 0.31880099
v 0.02652442 0.18475170 0.31980100
v 0.02652442 0.18475170 0.31880099
v 0.01980906 0.18880540 0.31880099
v 0.01980906 0.18880540 0.31980100
v 0.01249176 0.19163130 0.31980100
v 0.01249176 0.19163130 0.31880099
v 0.00479495 0.19314370 0.31980100
v 0.00479495 0.19314370 0.31880099
v -0.00304752 0.19329660 0.31880099
v -0.00304752 0.19329660 0.31980100
v -0.01079744 0.19208530 0.31980100
v -0.01079744 0.19208530 0.31880099
v -0.01821935 0.18954670 0.31880099
v -0.01821935 0.18954670 0.31980100
v -0.02508759 0.18575780 0.31980100
v -0.02508759 0.18575780 0.31880099
v -0.03119355 0.18083380 0.31980100
v -0.03119355 0.18083380 0.31880099
v -0.03635174 0.17492430 0.31980100
v -0.03635174 0.17492430 0.31880099
v -0.04040545 0.16820900 0.31980100
v -0.04040545 0.16820900 0.31880099
v -0.04323136 0.16089170 0.31880099
v -0.04323136 0.16089170 0.31980100
v -0.04474377 0.15319490 0.31980100
v -0.04474377 0.15319490 0.31880099
v -0.03062480 0.11894620 0.31880099
v -0.02652442 0.11204810 0.31880099
v -0.03243386 0.11720630 0.31880099
v -0.03527414 0.12471160 0.31880099
v -0.03735786 0.12331220 0.31880099
v -0.04114675 0.13018049 0.31880099
v -0.03527414 0.12471160 0.31880099
v -0.03735786 0.12331220 0.31880099
v -0.02504497 0.11407570 0.31880099
v -0.03885167 0.13119669 0.31880099
v -0.04114675 0.13018049 0.31880099
v -0.04368537 0.13760240 0.31880099
v -0.01870411 0.11024820 0.31880099
v -0.01980906 0.10799440 0.31880099
v -0.04124867 0.13820460 0.31880099
v -0.01179498 0.10757980 0.31880099
v -0.01249176 0.10516850 0.31880099
v -0.01179498 0.10757980 0.31880099
v -0.01980906 0.10799440 0.31880099
v -0.01870411 0.11024820 0.31880099
v -0.04239243 0.14552230 0.31880099
v -0.04489666 0.14535230 0.31880099
v -0.00452745 0.10615180 0.31880099
v -0.00479495 0.10365610 0.31880099
v -0.04224807 0.15292740 0.31880099
v -0.04474377 0.15319490 0.31880099
v -0.04323136 0.16089170 0.31880099
v 0.00287753 0.10600750 0.31880099
v 0.00304752 0.10350320 0.31880099
v -0.04082006 0.16019490 0.31880099
v 0.01079744 0.10471450 0.31880099
v 0.00304752 0.10350320 0.31880099
v 0.00287753 0.10600750 0.31880099
v 0.01019519 0.10715120 0.31880099
v 0.01079744 0.10471450 0.31880099
v -0.03815168 0.16710410 0.31880099
v -0.04040545 0.16820900 0.31880099
v -0.03815168 0.16710410 0.31880099
v -0.03635174 0.17492430 0.31880099
v 0.01720309 0.10954820 0.31880099
v 0.01821935 0.10725310 0.31880099
v 0.01720309 0.10954820 0.31880099
v 0.01079744 0.10471450 0.31880099
v 0.01019519 0.10715120 0.31880099
v -0.03432416 0.17344490 0.31880099
v -0.03635174 0.17492430 0.31880099
v 0.02368825 0.11312580 0.31880099
v 0.02508759 0.11104200 0.31880099
v 0.01821935 0.10725310 0.31880099
v 0.02368825 0.11312580 0.31880099
v 0.01821935 0.10725310 0.31880099
v 0.01720309 0.10954820 0.31880099
v -0.02945369 0.17902470 0.31880099
v -0.03119355 0.18083380 0.31880099
v 0.03119355 0.11596600 0.31880099
v 0.02508759 0.11104200 0.31880099
v 0.02368825 0.11312580 0.31880099
v 0.02945369 0.11777500 0.31880099
v -0.02508759 0.18575780 0.31880099
v -0.02368825 0.18367399 0.31880099
v 0.03635174 0.12187540 0.31880099
v 0.03432416 0.12335490 0.31880099
v -0.01821935 0.18954670 0.31880099
v -0.02368825 0.18367399 0.31880099
v -0.01821935 0.18954670 0.31880099
v -0.01720309 0.18725160 0.31880099
v -0.02368825 0.18367399 0.31880099
v 0.04040545 0.12859081 0.31880099
v 0.03815168 0.12969570 0.31880099
v -0.01079744 0.19208530 0.31880099
v -0.01720309 0.18725160 0.31880099
v -0.01821935 0.18954670 0.31880099
v -0.01079744 0.19208530 0.31880099
v -0.01019519 0.18964860 0.31880099
v -0.01720309 0.18725160 0.31880099
v -0.00287753 0.19079231 0.31880099
v -0.01019519 0.18964860 0.31880099
v -0.01079744 0.19208530 0.31880099
v 0.04323136 0.13590810 0.31880099
v 0.04082006 0.13660491 0.31880099
v 0.04323136 0.13590810 0.31880099
v -0.00304752 0.19329660 0.31880099
v -0.00287753 0.19079231 0.31880099
v -0.01079744 0.19208530 0.31880099
v 0.04224807 0.14387240 0.31880099
v 0.00452745 0.19064800 0.31880099
v -0.00287753 0.19079231 0.31880099
v -0.00304752 0.19329660 0.31880099
v 0.04474377 0.14360490 0.31880099
v 0.00479495 0.19314370 0.31880099
v 0.00452745 0.19064800 0.31880099
v -0.00304752 0.19329660 0.31880099
v 0.04239243 0.15127739 0.31880099
v 0.04489666 0.15144740 0.31880099
v 0.01249176 0.19163130 0.31880099
v 0.01179498 0.18922000 0.31880099
v 0.04368537 0.15919740 0.31880099
v 0.04124867 0.15859510 0.31880099
v 0.01980906 0.18880540 0.31880099
v 0.01870411 0.18655160 0.31880099
v 0.01179498 0.18922000 0.31880099
v 0.01980906 0.18880540 0.31880099
v 0.04114675 0.16661930 0.31880099
v 0.03885167 0.16560300 0.31880099
v 0.02652442 0.18475170 0.31880099
v 0.01870411 0.18655160 0.31880099
v 0.01980906 0.18880540 0.31880099
v 0.02652442 0.18475170 0.31880099
v 0.02504497 0.18272410 0.31880099
v 0.01870411 0.18655160 0.31880099
v 0.03735786 0.17348750 0.31880099
v 0.03527414 0.17208821 0.31880099
v 0.03243386 0.17959350 0.31880099
v 0.03062480 0.17785360 0.31880099
v 0.03243386 0.17959350 0.31880099
v 0.03062480 0.17785360 0.31880099
v 0.02504497 0.18272410 0.31880099
v -0.04227054 0.14553060 0.31180099
v -0.04224807 0.15292740 0.31880099
v -0.04212659 0.15291440 0.31180099
v -0.04239243 0.14552230 0.31880099
v -0.04113006 0.13823400 0.31180099
v -0.04124867 0.13820460 0.31880099
v -0.03885167 0.13119669 0.31880099
v -0.03873991 0.13124619 0.31180099
v -0.03517270 0.12477970 0.31180099
v -0.03527414 0.12471160 0.31880099
v -0.03062480 0.11894620 0.31880099
v -0.03053671 0.11903090 0.31180099
v -0.02504497 0.11407570 0.31880099
v -0.02497291 0.11417440 0.31180099
v -0.01865035 0.11035790 0.31180099
v -0.01870411 0.11024820 0.31880099
v -0.01179498 0.10757980 0.31880099
v -0.01176106 0.10769720 0.31180099
v -0.00452745 0.10615180 0.31880099
v -0.00451445 0.10627330 0.31180099
v 0.00287753 0.10600750 0.31880099
v 0.00286925 0.10612940 0.31180099
v 0.01019519 0.10715120 0.31880099
v 0.01016587 0.10726980 0.31180099
v 0.01720309 0.10954820 0.31880099
v 0.01715362 0.10965990 0.31180099
v 0.02368825 0.11312580 0.31880099
v 0.02362012 0.11322720 0.31180099
v 0.02945369 0.11777500 0.31880099
v 0.02936899 0.11786310 0.31180099
v 0.03432416 0.12335490 0.31880099
v 0.03422546 0.12342690 0.31180099
v 0.03815168 0.12969570 0.31880099
v 0.03804200 0.12974951 0.31180099
v 0.04082006 0.13660491 0.31880099
v 0.04070264 0.13663881 0.31180099
v 0.04224807 0.14387240 0.31880099
v 0.04212659 0.14388540 0.31180099
v 0.04227054 0.15126920 0.31180099
v 0.04239243 0.15127739 0.31880099
v 0.04124867 0.15859510 0.31880099
v 0.04113006 0.15856580 0.31180099
v 0.03873991 0.16555350 0.31180099
v 0.03885167 0.16560300 0.31880099
v 0.03527414 0.17208821 0.31880099
v 0.03517270 0.17202000 0.31180099
v 0.03062480 0.17785360 0.31880099
v 0.03053671 0.17776890 0.31180099
v 0.02504497 0.18272410 0.31880099
v 0.02497291 0.18262540 0.31180099
v 0.01870411 0.18655160 0.31880099
v 0.01865035 0.18644190 0.31180099
v 0.01179498 0.18922000 0.31880099
v 0.01176106 0.18910250 0.31180099
v 0.00452745 0.19064800 0.31880099
v 0.00451445 0.19052650 0.31180099
v -0.00287753 0.19079231 0.31880099
v -0.00286925 0.19067040 0.31180099
v -0.01019519 0.18964860 0.31880099
v -0.01016587 0.18953000 0.31180099
v -0.01720309 0.18725160 0.31880099
v -0.01715362 0.18713979 0.31180099
v -0.02368825 0.18367399 0.31880099
v -0.02362012 0.18357261 0.31180099
v -0.02945369 0.17902470 0.31880099
v -0.02936899 0.17893670 0.31180099
v -0.03432416 0.17344490 0.31880099
v -0.03422546 0.17337289 0.31180099
v -0.03815168 0.16710410 0.31880099
v -0.03804200 0.16705030 0.31180099
v -0.04082006 0.16019490 0.31880099
v -0.04070264 0.16016100 0.31180099
v -0.04212659 0.15291440 0.31180099
v -0.04224807 0.15292740 0.31880099
v -0.03414523 0.12546970 0.31180099
v -0.03053671 0.11903090 0.31180099
v -0.03517270 0.12477970 0.31180099
v -0.03414523 0.12546970 0.31180099
v -0.02964472 0.11988880 0.31180099
v -0.03053671 0.11903090 0.31180099
v -0.02424341 0.11517420 0.31180099
v -0.02497291 0.11417440 0.31180099
v -0.02424341 0.11517420 0.31180099
v -0.03053671 0.11903090 0.31180099
v -0.02964472 0.11988880 0.31180099
v -0.03760826 0.13174731 0.31180099
v -0.03517270 0.12477970 0.31180099
v -0.03873991 0.13124619 0.31180099
v -0.03760826 0.13174731 0.31180099
v -0.03414523 0.12546970 0.31180099
v -0.03517270 0.12477970 0.31180099
v -0.04113006 0.13823400 0.31180099
v -0.03873991 0.13124619 0.31180099
v -0.01810556 0.11146920 0.31180099
v -0.01865035 0.11035790 0.31180099
v -0.02497291 0.11417440 0.31180099
v -0.01810556 0.11146920 0.31180099
v -0.02497291 0.11417440 0.31180099
v -0.02424341 0.11517420 0.31180099
v -0.03992861 0.13853090 0.31180099
v -0.04113006 0.13823400 0.31180099
v -0.01141750 0.10888620 0.31180099
v -0.01176106 0.10769720 0.31180099
v -0.04103571 0.14561440 0.31180099
v -0.04227054 0.14553060 0.31180099
v -0.00438261 0.10750380 0.31180099
v -0.01176106 0.10769720 0.31180099
v -0.01141750 0.10888620 0.31180099
v -0.00438261 0.10750380 0.31180099
v -0.00451445 0.10627330 0.31180099
v -0.04089599 0.15278250 0.31180099
v -0.04212659 0.15291440 0.31180099
v 0.00286925 0.10612940 0.31180099
v 0.00278544 0.10736410 0.31180099
v -0.03951364 0.15981740 0.31180099
v -0.04070264 0.16016100 0.31180099
v -0.03951364 0.15981740 0.31180099
v 0.00986892 0.10847120 0.31180099
v 0.01016587 0.10726980 0.31180099
v 0.00986892 0.10847120 0.31180099
v 0.00286925 0.10612940 0.31180099
v 0.00278544 0.10736410 0.31180099
v -0.03693073 0.16650550 0.31180099
v -0.03693073 0.16650550 0.31180099
v -0.04070264 0.16016100 0.31180099
v -0.03804200 0.16705030 0.31180099
v -0.03422546 0.17337289 0.31180099
v -0.03804200 0.16705030 0.31180099
v 0.01665252 0.11079160 0.31180099
v 0.01715362 0.10965990 0.31180099
v 0.01665252 0.11079160 0.31180099
v 0.01016587 0.10726980 0.31180099
v -0.03322565 0.17264339 0.31180099
v -0.03693073 0.16650550 0.31180099
v 0.02293014 0.11425460 0.31180099
v 0.02362012 0.11322720 0.31180099
v 0.01715362 0.10965990 0.31180099
v 0.02293014 0.11425460 0.31180099
v 0.01715362 0.10965990 0.31180099
v -0.02851104 0.17804460 0.31180099
v -0.02936899 0.17893670 0.31180099
v -0.02851104 0.17804460 0.31180099
v -0.03322565 0.17264339 0.31180099
v -0.02293014 0.18254510 0.31180099
v -0.02936899 0.17893670 0.31180099
v 0.02936899 0.11786310 0.31180099
v 0.02362012 0.11322720 0.31180099
v 0.02293014 0.11425460 0.31180099
v 0.02851104 0.11875520 0.31180099
v -0.02362012 0.18357261 0.31180099
v -0.02293014 0.18254510 0.31180099
v 0.03322565 0.12415640 0.31180099
v 0.02936899 0.11786310 0.31180099
v 0.02851104 0.11875520 0.31180099
v -0.01665252 0.18600820 0.31180099
v 0.03422546 0.12342690 0.31180099
v 0.03322565 0.12415640 0.31180099
v -0.01715362 0.18713979 0.31180099
v -0.00986892 0.18832850 0.31180099
v 0.03804200 0.12974951 0.31180099
v 0.03693073 0.13029429 0.31180099
v 0.03804200 0.12974951 0.31180099
v 0.03422546 0.12342690 0.31180099
v -0.01016587 0.18953000 0.31180099
v 0.03951364 0.13698231 0.31180099
v 0.04070264 0.13663881 0.31180099
v -0.00286925 0.19067040 0.31180099
v -0.00278544 0.18943560 0.31180099
v -0.00286925 0.19067040 0.31180099
v -0.00986892 0.18832850 0.31180099
v -0.01016587 0.18953000 0.31180099
v 0.04089599 0.14401729 0.31180099
v 0.04212659 0.14388540 0.31180099
v 0.00451445 0.19052650 0.31180099
v 0.00438261 0.18929590 0.31180099
v -0.00278544 0.18943560 0.31180099
v 0.00451445 0.19052650 0.31180099
v -0.00278544 0.18943560 0.31180099
v -0.00286925 0.19067040 0.31180099
v 0.04103571 0.15118530 0.31180099
v 0.01141750 0.18791351 0.31180099
v 0.00438261 0.18929590 0.31180099
v 0.00451445 0.19052650 0.31180099
v 0.04227054 0.15126920 0.31180099
v 0.01176106 0.18910250 0.31180099
v 0.04113006 0.15856580 0.31180099
v 0.03992861 0.15826879 0.31180099
v 0.01865035 0.18644190 0.31180099
v 0.01810556 0.18533060 0.31180099
v 0.01865035 0.18644190 0.31180099
v 0.01176106 0.18910250 0.31180099
v 0.03760826 0.16505240 0.31180099
v 0.04113006 0.15856580 0.31180099
v 0.03992861 0.15826879 0.31180099
v 0.03873991 0.16555350 0.31180099
v 0.04113006 0.15856580 0.31180099
v 0.03760826 0.16505240 0.31180099
v 0.02497291 0.18262540 0.31180099
v 0.02424341 0.18162560 0.31180099
v 0.03517270 0.17202000 0.31180099
v 0.03873991 0.16555350 0.31180099
v 0.03760826 0.16505240 0.31180099
v 0.03517270 0.17202000 0.31180099
v 0.03414523 0.17133000 0.31180099
v 0.03053671 0.17776890 0.31180099
v 0.02424341 0.18162560 0.31180099
v 0.03517270 0.17202000 0.31180099
v 0.03414523 0.17133000 0.31180099
v 0.03053671 0.17776890 0.31180099
v 0.03414523 0.17133000 0.31180099
v 0.02964472 0.17691091 0.31180099
v 0.03053671 0.17776890 0.31180099
v 0.02964472 0.17691091 0.31180099
v 0.02424341 0.18162560 0.31180099
v -0.04096543 0.15279000 0.31980100
v -0.04103571 0.14561440 0.31180099
v -0.04089599 0.15278250 0.31180099
v -0.04110538 0.14560971 0.31980100
v -0.03992861 0.13853090 0.31180099
v -0.03999638 0.13851421 0.31980100
v -0.03767210 0.13171910 0.31980100
v -0.03760826 0.13174731 0.31180099
v -0.03414523 0.12546970 0.31180099
v -0.03420317 0.12543079 0.31980100
v -0.02969503 0.11984040 0.31980100
v -0.02964472 0.11988880 0.31180099
v -0.02428460 0.11511780 0.31980100
v -0.02424341 0.11517420 0.31180099
v -0.01813626 0.11140650 0.31980100
v -0.01810556 0.11146920 0.31180099
v -0.01143687 0.10881910 0.31980100
v -0.01141750 0.10888620 0.31180099
v -0.00439000 0.10743450 0.31980100
v -0.00438261 0.10750380 0.31180099
v 0.00279021 0.10729440 0.31980100
v 0.00278544 0.10736410 0.31180099
v 0.00986892 0.10847120 0.31180099
v 0.00988567 0.10840350 0.31980100
v 0.01668077 0.11072770 0.31980100
v 0.01665252 0.11079160 0.31180099
v 0.02296906 0.11419670 0.31980100
v 0.02293014 0.11425460 0.31180099
v 0.02855944 0.11870480 0.31980100
v 0.02851104 0.11875520 0.31180099
v 0.03328204 0.12411520 0.31980100
v 0.03322565 0.12415640 0.31180099
v 0.03693073 0.13029429 0.31180099
v 0.03699338 0.13026360 0.31980100
v 0.03958076 0.13696299 0.31980100
v 0.03951364 0.13698231 0.31180099
v 0.04096543 0.14400980 0.31980100
v 0.04089599 0.14401729 0.31180099
v 0.04110538 0.15119010 0.31980100
v 0.04103571 0.15118530 0.31180099
v 0.03999638 0.15828560 0.31980100
v 0.03992861 0.15826879 0.31180099
v 0.03760826 0.16505240 0.31180099
v 0.03767210 0.16508070 0.31980100
v 0.03420317 0.17136900 0.31980100
v 0.03414523 0.17133000 0.31180099
v 0.02969503 0.17695931 0.31980100
v 0.02964472 0.17691091 0.31180099
v 0.02424341 0.18162560 0.31180099
v 0.02428460 0.18168190 0.31980100
v 0.01810556 0.18533060 0.31180099
v 0.01813626 0.18539330 0.31980100
v 0.01143687 0.18798070 0.31980100
v 0.01141750 0.18791351 0.31180099
v 0.00438261 0.18929590 0.31180099
v 0.00439000 0.18936530 0.31980100
v -0.00279021 0.18950529 0.31980100
v -0.00278544 0.18943560 0.31180099
v -0.00986892 0.18832850 0.31180099
v -0.00988567 0.18839630 0.31980100
v -0.01668077 0.18607201 0.31980100
v -0.01665252 0.18600820 0.31180099
v -0.02296906 0.18260311 0.31980100
v -0.02293014 0.18254510 0.31180099
v -0.02851104 0.17804460 0.31180099
v -0.02855944 0.17809489 0.31980100
v -0.03328204 0.17268451 0.31980100
v -0.03322565 0.17264339 0.31180099
v -0.03699338 0.16653620 0.31980100
v -0.03693073 0.16650550 0.31180099
v -0.03958076 0.15983680 0.31980100
v -0.03951364 0.15981740 0.31180099
v -0.04096543 0.15279000 0.31980100
v -0.04089599 0.15278250 0.31180099
f 1 2 3
f 1 3 4
f 1 4 5
f 6 4 7
f 6 5 4
f 8 2 1
f 9 6 7
f 10 2 8
f 11 6 9
f 12 10 8
f 13 9 14
f 13 11 9
f 15 10 12
f 15 16 10
f 17 13 14
f 18 16 15
f 19 13 17
f 20 18 15
f 21 19 17
f 21 17 22
f 23 18 20
f 23 24 18
f 25 22 26
f 25 21 22
f 27 28 24
f 27 24 23
f 29 25 26
f 30 25 29
f 31 32 28
f 31 28 27
f 33 32 31
f 34 29 35
f 34 30 29
f 36 33 31
f 37 34 35
f 37 38 34
f 39 36 40
f 39 33 36
f 41 38 37
f 41 42 38
f 43 40 44
f 43 39 40
f 45 46 42
f 45 42 41
f 47 44 48
f 47 43 44
f 49 50 46
f 49 46 45
f 51 48 52
f 51 47 48
f 53 50 49
f 54 53 49
f 55 52 56
f 55 51 52
f 57 58 53
f 57 53 54
f 59 56 60
f 59 55 56
f 61 62 58
f 61 58 57
f 63 60 64
f 63 59 60
f 65 62 61
f 66 65 61
f 67 63 64
f 67 68 69
f 67 64 68
f 70 71 65
f 70 65 66
f 72 67 69
f 72 71 70
f 72 69 71
f 73 74 75
f 76 73 75
f 77 75 78
f 77 76 75
f 79 78 80
f 79 77 78
f 81 80 82
f 81 79 80
f 83 82 84
f 83 81 82
f 85 83 84
f 85 84 86
f 85 86 87
f 88 85 87
f 89 88 87
f 89 87 90
f 91 89 90
f 91 90 92
f 93 91 92
f 93 92 94
f 95 93 94
f 95 94 96
f 97 95 96
f 97 96 98
f 99 97 98
f 99 98 100
f 101 99 100
f 101 100 102
f 103 101 102
f 103 102 104
f 105 103 104
f 105 104 106
f 107 105 106
f 107 106 108
f 109 107 108
f 109 108 110
f 111 109 110
f 111 110 112
f 113 111 112
f 113 112 114
f 115 114 116
f 115 113 114
f 117 116 118
f 117 115 116
f 119 118 120
f 119 117 118
f 121 120 122
f 121 119 120
f 123 122 124
f 123 121 122
f 125 124 126
f 125 126 127
f 125 123 124
f 128 125 127
f 129 127 130
f 129 128 127
f 131 130 132
f 131 129 130
f 133 132 134
f 133 134 135
f 133 131 132
f 136 133 135
f 137 136 135
f 137 135 138
f 139 137 138
f 139 138 140
f 141 139 140
f 141 140 142
f 143 141 142
f 143 142 144
f 145 143 144
f 145 144 146
f 147 148 149
f 150 149 151
f 150 147 149
f 152 148 147
f 153 151 154
f 153 150 151
f 155 153 154
f 156 157 148
f 156 148 152
f 158 153 155
f 159 160 157
f 159 157 156
f 161 158 155
f 161 155 162
f 163 160 159
f 163 164 160
f 165 162 166
f 165 161 162
f 167 165 166
f 168 169 164
f 168 164 163
f 170 165 167
f 171 169 168
f 171 172 169
f 173 167 174
f 173 170 167
f 175 176 172
f 175 172 171
f 177 173 174
f 177 178 179
f 180 181 176
f 180 176 175
f 182 177 179
f 182 179 183
f 184 182 183
f 185 181 180
f 185 180 186
f 187 184 183
f 188 185 186
f 189 185 188
f 190 184 187
f 190 191 184
f 192 188 193
f 192 189 188
f 194 191 190
f 194 195 191
f 196 192 193
f 197 195 194
f 198 192 196
f 199 197 194
f 200 196 201
f 200 198 196
f 202 203 197
f 202 197 199
f 204 201 205
f 204 200 201
f 206 207 203
f 206 203 202
f 208 204 205
f 209 207 206
f 210 204 208
f 211 209 206
f 212 210 208
f 212 208 213
f 214 209 211
f 214 215 209
f 216 213 217
f 216 212 213
f 218 215 214
f 218 216 217
f 218 217 219
f 218 219 215
f 220 221 222
f 223 221 220
f 224 220 225
f 224 223 220
f 226 225 227
f 226 224 225
f 228 227 229
f 228 226 227
f 230 228 229
f 231 228 230
f 232 231 230
f 232 230 233
f 234 232 233
f 234 233 235
f 236 234 235
f 236 235 237
f 238 236 237
f 238 237 239
f 240 238 239
f 240 239 241
f 242 240 241
f 242 241 243
f 244 242 243
f 244 243 245
f 246 244 245
f 246 245 247
f 248 246 247
f 248 247 249
f 250 248 249
f 250 249 251
f 252 250 251
f 252 251 253
f 254 252 253
f 254 253 255
f 256 254 255
f 256 255 257
f 258 256 257
f 258 257 259
f 260 258 259
f 260 259 261
f 262 260 261
f 263 260 262
f 264 263 262
f 265 263 264
f 266 265 264
f 267 265 266
f 268 266 269
f 268 267 266
f 270 268 269
f 271 268 270
f 272 270 273
f 272 271 270
f 274 272 273
f 275 272 274
f 276 274 277
f 276 275 274
f 278 276 277
f 279 276 278
f 280 278 281
f 280 279 278
f 282 281 283
f 282 280 281
f 284 282 283
f 284 283 285
f 286 284 285
f 287 284 286
f 288 287 286
f 289 287 288
f 290 289 288
f 290 288 291
f 292 290 291
f 292 291 293
f 294 295 296
f 297 294 296
f 298 299 295
f 298 295 294
f 300 296 301
f 300 297 296
f 302 299 298
f 303 302 298
f 304 301 305
f 304 300 301
f 306 302 303
f 307 306 303
f 308 305 309
f 308 304 305
f 310 306 307
f 311 308 309
f 312 313 314
f 315 308 311
f 316 313 312
f 316 317 310
f 318 311 319
f 320 321 311
f 322 317 316
f 323 324 325
f 326 320 319
f 327 328 329
f 330 326 331
f 332 333 334
f 335 336 322
f 337 327 338
f 339 337 338
f 340 341 342
f 343 333 332
f 344 345 339
f 346 347 348
f 349 350 351
f 352 343 353
f 354 355 339
f 356 357 358
f 356 349 357
f 359 360 361
f 362 363 346
f 364 356 358
f 364 358 365
f 366 363 362
f 367 368 369
f 370 365 371
f 370 372 365
f 373 374 368
f 375 376 377
f 378 370 371
f 379 374 373
f 380 370 378
f 381 379 373
f 382 378 383
f 382 380 378
f 384 385 379
f 384 379 381
f 386 383 387
f 386 382 383
f 388 389 385
f 390 385 384
f 391 387 392
f 391 386 387
f 393 389 390
f 393 394 389
f 395 394 393
f 396 391 392
f 396 392 397
f 396 397 395
f 398 396 395
f 398 395 393
f 399 400 401
f 402 399 401
f 403 404 399
f 403 399 402
f 405 404 403
f 406 405 403
f 407 405 406
f 408 407 406
f 409 410 407
f 409 407 408
f 411 412 410
f 411 410 409
f 413 412 411
f 413 414 412
f 415 414 413
f 415 416 414
f 417 416 415
f 417 418 416
f 419 418 417
f 419 420 418
f 421 420 419
f 421 422 420
f 423 422 421
f 423 424 422
f 425 424 423
f 425 426 424
f 427 426 425
f 427 428 426
f 429 428 427
f 429 430 428
f 431 430 429
f 432 431 429
f 433 431 432
f 433 434 431
f 435 434 433
f 435 436 434
f 437 436 435
f 437 438 436
f 439 438 437
f 439 440 438
f 441 442 440
f 441 440 439
f 443 444 442
f 443 442 441
f 445 446 444
f 445 444 443
f 447 448 446
f 447 446 445
f 449 450 448
f 449 448 447
f 451 450 449
f 452 451 449
f 453 454 451
f 453 451 452
f 455 456 454
f 455 454 453
f 457 458 456
f 457 456 455
f 459 458 457
f 460 459 457
f 461 459 460
f 461 462 459
f 463 462 461
f 463 464 462
f 465 464 463
f 465 466 464
f 467 466 465
f 468 467 465
f 469 467 468
f 470 469 468
f 471 469 470
f 471 472 469
f 473 474 475
f 473 475 476
f 477 476 478
f 477 473 476
f 479 478 480
f 479 477 478
f 481 480 482
f 481 479 480
f 483 482 484
f 483 481 482
f 485 484 486
f 485 483 484
f 487 485 486
f 487 486 488
f 489 487 488
f 489 488 490
f 491 489 490
f 491 490 492
f 493 491 492
f 493 492 494
f 495 493 494
f 495 494 496
f 497 495 496
f 497 496 498
f 499 497 498
f 499 498 500
f 501 499 500
f 501 500 502
f 503 501 502
f 503 502 504
f 505 503 504
f 505 504 506
f 507 505 506
f 507 506 508
f 509 507 508
f 509 508 510
f 511 509 510
f 511 510 512
f 513 512 514
f 513 511 512
f 515 514 516
f 515 513 514
f 517 516 518
f 517 515 516
f 519 518 520
f 519 517 518
f 521 520 522
f 521 519 520
f 523 522 524
f 523 521 522
f 525 524 526
f 525 523 524
f 527 526 528
f 527 525 526
f 529 528 530
f 529 527 528
f 531 530 532
f 531 529 530
f 533 532 534
f 533 531 532
f 535 534 536
f 535 533 534
f 537 535 536
f 537 536 538
f 539 537 538
f 539 538 540
f 541 539 540
f 541 540 542
f 543 541 542
f 543 542 544
f 545 543 544
f 545 544 546
f 547 548 549
f 550 547 549
f 551 552 547
f 551 547 550
f 553 554 552
f 553 552 551
f 555 556 554
f 555 554 553
f 557 558 556
f 557 556 555
f 559 560 558
f 559 558 557
f 561 560 559
f 561 562 560
f 563 562 561
f 563 564 562
f 565 564 563
f 565 566 564
f 567 566 565
f 567 568 566
f 569 568 567
f 569 570 568
f 571 570 569
f 571 572 570
f 573 572 571
f 573 574 572
f 575 574 573
f 575 576 574
f 577 576 575
f 577 578 576
f 579 578 577
f 580 579 577
f 581 579 580
f 582 581 580
f 583 581 582
f 584 583 582
f 585 583 584
f 585 586 583
f 587 586 585
f 587 588 586
f 589 590 588
f 589 588 587
f 591 590 589
f 592 591 589
f 593 591 592
f 594 593 592
f 595 596 593
f 595 593 594
f 597 596 595
f 598 597 595
f 599 597 598
f 600 599 598
f 601 602 599
f 601 599 600
f 603 604 602
f 603 602 601
f 605 606 604
f 605 604 603
f 607 608 606
f 607 606 605
f 609 610 608
f 609 608 607
f 611 610 609
f 611 612 610
f 613 612 611
f 614 613 611
f 615 613 614
f 615 616 613
f 617 616 615
f 617 618 616
f 619 618 617
f 619 620 618
f 621 622 623
f 624 622 621
f 625 623 626
f 625 626 627
f 625 621 623
f 628 629 630
f 628 630 622
f 628 622 624
f 631 625 627
f 632 629 628
f 633 631 627
f 634 631 633
f 635 629 632
f 635 636 629
f 637 633 638
f 637 634 633
f 639 640 636
f 639 636 635
f 641 637 638
f 642 637 641
f 643 640 639
f 643 644 640
f 645 642 641
f 645 641 646
f 647 648 644
f 647 644 643
f 649 645 646
f 649 646 650
f 651 652 648
f 651 648 647
f 653 649 650
f 654 649 653
f 655 656 652
f 655 652 651
f 657 654 653
f 658 656 655
f 659 657 653
f 660 656 658
f 661 657 659
f 661 662 657
f 663 658 664
f 663 660 658
f 665 666 662
f 665 662 661
f 667 664 668
f 667 663 664
f 669 670 666
f 669 666 665
f 671 668 672
f 671 667 668
f 673 674 670
f 673 670 669
f 675 672 676
f 675 671 672
f 677 678 674
f 677 674 673
f 679 676 680
f 679 675 676
f 681 679 680
f 682 683 678
f 682 678 677
f 684 681 685
f 684 679 681
f 686 683 682
f 686 687 683
f 688 684 685
f 689 690 687
f 689 691 690
f 689 687 686
f 692 688 685
f 692 691 689
f 692 685 691
f 693 694 695
f 696 693 695
f 697 695 698
f 697 696 695
f 699 698 700
f 699 697 698
f 701 700 702
f 701 699 700
f 703 702 704
f 703 701 702
f 705 703 704
f 705 704 706
f 705 706 707
f 708 705 707
f 709 708 707
f 709 707 710
f 711 709 710
f 711 710 712
f 713 711 712
f 713 712 714
f 715 713 714
f 715 714 716
f 717 715 716
f 717 716 718
f 719 717 718
f 719 718 720
f 721 719 720
f 721 720 722
f 723 721 722
f 723 722 724
f 725 723 724
f 725 724 726
f 727 725 726
f 727 726 728
f 727 728 729
f 730 727 729
f 731 730 729
f 731 729 732
f 733 731 732
f 733 732 734
f 733 734 735
f 736 733 735
f 737 735 738
f 737 736 735
f 739 738 740
f 739 740 741
f 739 737 738
f 742 739 741
f 743 741 744
f 743 742 741
f 745 744 746
f 745 743 744
f 747 746 748
f 747 745 746
f 749 748 750
f 749 747 748
f 751 750 752
f 751 749 750
f 753 752 754
f 753 751 752
f 755 753 754
f 755 754 756
f 757 755 756
f 757 756 758
f 759 757 758
f 759 758 760
f 761 759 760
f 761 760 762
f 763 761 762
f 763 762 764
f 763 764 765
f 766 763 765
f 767 768 769
f 770 767 769
f 771 772 773
f 774 775 768
f 774 768 767
f 776 770 777
f 778 779 780
f 781 782 783
f 784 785 786
f 787 776 788
f 789 790 791
f 792 793 794
f 795 796 797
f 798 787 799
f 800 801 802
f 803 804 805
f 806 807 789
f 808 799 809
f 810 808 809
f 811 801 800
f 811 812 801
f 813 808 810
f 814 815 816
f 817 818 819
f 820 821 822
f 823 813 824
f 825 826 814
f 827 828 829
f 830 831 832
f 833 823 834
f 835 836 831
f 837 838 839
f 840 834 841
f 842 843 844
f 845 846 847
f 848 849 840
f 850 836 835
f 850 835 851
f 852 853 854
f 855 856 849
f 857 851 858
f 859 860 861
f 862 863 864
f 865 866 856
f 867 858 868
f 869 870 871
f 872 873 874
f 875 876 866
f 877 878 879
f 880 867 881
f 882 883 876
f 884 885 886
f 887 881 888
f 889 890 872
f 891 887 888
f 892 893 894
f 895 896 883
f 897 887 891
f 898 899 896
f 900 901 902
f 903 891 904
f 905 906 907
f 908 905 909
f 910 911 899
f 912 913 914
f 915 903 916
f 917 918 919
f 920 921 911
f 922 923 924
f 925 916 926
f 925 926 921
f 927 928 929
f 930 931 932
f 933 934 935
f 936 931 930
f 937 938 939
f 940 941 942
f 940 942 934
f 940 934 936
f 943 932 944
f 943 945 932
f 946 941 940
f 947 944 948
f 947 943 944
f 949 950 951
f 952 941 946
f 953 947 948
f 953 948 954
f 955 956 952
f 955 957 956
f 958 953 954
f 958 954 959
f 960 957 955
f 960 961 957
f 962 961 960
f 963 959 964
f 965 958 966
f 967 968 969
f 970 965 964
f 970 964 971
f 972 973 962
f 972 962 974
f 975 970 976
f 977 970 978
f 979 980 973
f 981 973 972
f 982 980 981
f 983 977 978
f 983 984 977
f 985 980 982
f 986 987 982
f 988 984 983
f 989 990 984
f 991 985 992
f 993 994 988
f 995 996 989
f 997 992 998
f 997 991 992
f 999 996 995
f 999 1000 996
f 1001 998 1002
f 1001 997 998
f 1003 1004 1000
f 1003 1000 999
f 1005 1002 1006
f 1005 1007 1008
f 1009 1005 1006
f 1010 1011 1004
f 1010 1004 1003
f 1012 1005 1009
f 1013 1014 1015
f 1016 1017 1011
f 1018 1009 1019
f 1018 1012 1009
f 1020 1017 1016
f 1020 1021 1017
f 1022 1018 1019
f 1022 1019 1023
f 1024 1021 1020
f 1024 1025 1021
f 1024 1026 1025
f 1027 1022 1023
f 1027 1026 1024
f 1027 1023 1026
f 1028 1029 1030
f 1031 1028 1030
f 1032 1030 1033
f 1032 1031 1030
f 1034 1033 1035
f 1034 1032 1033
f 1036 1035 1037
f 1036 1034 1035
f 1038 1037 1039
f 1038 1036 1037
f 1040 1038 1039
f 1040 1039 1041
f 1042 1040 1041
f 1042 1041 1043
f 1044 1042 1043
f 1044 1043 1045
f 1046 1044 1045
f 1046 1045 1047
f 1046 1047 1048
f 1049 1046 1048
f 1050 1049 1048
f 1050 1048 1051
f 1052 1050 1051
f 1052 1051 1053
f 1052 1053 1054
f 1055 1052 1054
f 1055 1054 1056
f 1057 1055 1056
f 1058 1057 1056
f 1058 1056 1059
f 1060 1058 1059
f 1060 1059 1061
f 1062 1060 1061
f 1062 1061 1063
f 1064 1062 1063
f 1064 1063 1065
f 1064 1065 1066
f 1067 1064 1066
f 1068 1067 1066
f 1068 1066 1069
f 1070 1069 1071
f 1070 1068 1069
f 1072 1071 1073
f 1072 1070 1071
f 1074 1073 1075
f 1074 1072 1073
f 1076 1075 1077
f 1076 1077 1078
f 1076 1074 1075
f 1079 1076 1078
f 1080 1078 1081
f 1080 1079 1078
f 1082 1081 1083
f 1082 1083 1084
f 1082 1080 1081
f 1085 1082 1084
f 1086 1084 1087
f 1086 1087 1088
f 1086 1085 1084
f 1089 1086 1088
f 1090 1089 1088
f 1090 1088 1091
f 1092 1090 1091
f 1092 1091 1093
f 1094 1092 1093
f 1094 1093 1095
f 1096 1094 1095
f 1096 1095 1097
f 1096 1097 1098
f 1099 1096 1098
f 1100 1099 1098
f 1100 1098 1101
f 1102 1103 1104
f 1105 1106 1107
f 1108 1104 1109
f 1108 1102 1104
f 1110 1103 1102
f 1111 1108 1112
f 1113 1111 1112
f 1114 1115 1103
f 1114 1103 1110
f 1116 1111 1113
f 1117 1118 1115
f 1119 1120 1121
f 1122 1113 1123
f 1122 1116 1113
f 1124 1125 1118
f 1124 1118 1119
f 1126 1123 1127
f 1126 1122 1123
f 1128 1126 1127
f 1129 1125 1124
f 1129 1130 1125
f 1131 1126 1128
f 1132 1133 1134
f 1135 1136 1129
f 1137 1128 1138
f 1139 1131 1128
f 1140 1137 1138
f 1141 1142 1136
f 1143 1144 1145
f 1146 1139 1147
f 1148 1149 1150
f 1151 1152 1153
f 1154 1146 1147
f 1154 1147 1155
f 1156 1157 1158
f 1156 1158 1159
f 1160 1154 1155
f 1160 1161 1154
f 1162 1156 1159
f 1162 1159 1163
f 1164 1165 1160
f 1166 1167 1168
f 1169 1162 1163
f 1169 1163 1170
f 1171 1172 1173
f 1174 1175 1176
f 1177 1178 1179
f 1180 1170 1181
f 1182 1169 1170
f 1183 1184 1185
f 1186 1182 1181
f 1187 1188 1189
f 1190 1182 1186
f 1191 1192 1193
f 1194 1190 1186
f 1195 1190 1194
f 1196 1197 1192
f 1196 1192 1191
f 1198 1194 1199
f 1198 1195 1194
f 1200 1201 1202
f 1203 1197 1196
f 1204 1199 1205
f 1204 1198 1199
f 1206 1207 1208
f 1209 1210 1211
f 1212 1204 1205
f 1212 1205 1213
f 1214 1210 1209
f 1214 1212 1213
f 1214 1213 1215
f 1216 1217 1218
f 1219 1220 1221
f 1222 1220 1219
f 1223 1222 1219
f 1224 1222 1223
f 1225 1223 1226
f 1225 1224 1223
f 1227 1225 1226
f 1228 1225 1227
f 1229 1227 1230
f 1229 1228 1227
f 1231 1230 1232
f 1231 1229 1230
f 1233 1231 1232
f 1234 1231 1233
f 1235 1234 1233
f 1235 1233 1236
f 1237 1235 1236
f 1237 1236 1238
f 1239 1237 1238
f 1239 1238 1240
f 1241 1239 1240
f 1241 1240 1242
f 1243 1241 1242
f 1243 1242 1244
f 1245 1243 1244
f 1245 1244 1246
f 1247 1245 1246
f 1247 1246 1248
f 1249 1247 1248
f 1249 1248 1250
f 1251 1249 1250
f 1251 1250 1252
f 1253 1251 1252
f 1253 1252 1254
f 1255 1253 1254
f 1255 1254 1256
f 1257 1255 1256
f 1258 1255 1257
f 1259 1258 1257
f 1259 1257 1260
f 1261 1259 1260
f 1262 1259 1261
f 1263 1261 1264
f 1263 1262 1261
f 1265 1264 1266
f 1265 1263 1264
f 1267 1266 1268
f 1267 1265 1266
f 1269 1268 1270
f 1269 1267 1268
f 1271 1270 1272
f 1271 1269 1270
f 1273 1272 1274
f 1273 1271 1272
f 1275 1274 1276
f 1275 1273 1274
f 1277 1276 1278
f 1277 1275 1276
f 1279 1278 1280
f 1279 1277 1278
f 1281 1280 1282
f 1281 1279 1280
f 1283 1281 1282
f 1283 1282 1284
f 1285 1283 1284
f 1285 1284 1286
f 1287 1285 1286
f 1287 1286 1288
f 1289 1287 1288
f 1289 1288 1290
f 1291 1289 1290
f 1292 1289 1291
f 1293 1294 1295
f 1296 1297 1298
f 1299 1300 1294
f 1301 1302 1303
f 1304 1305 1306
f 1307 1308 1309
f 1310 1307 1311
f 1312 1313 1314
f 1315 1316 1317
f 1318 1304 1319
f 1320 1321 1313
f 1320 1313 1312
f 1322 1318 1319
f 1322 1319 1323
f 1324 1325 1326
f 1327 1328 1321
f 1329 1323 1330
f 1329 1322 1323
f 1331 1328 1327
f 1332 1331 1327
f 1333 1330 1334
f 1335 1329 1330
f 1336 1337 1331
f 1338 1339 1340
f 1341 1333 1334
f 1342 1343 1344
f 1345 1341 1346
f 1347 1348 1337
f 1349 1350 1338
f 1351 1352 1345
f 1353 1354 1355
f 1356 1357 1349
f 1358 1345 1359
f 1360 1361 1345
f 1362 1360 1363
f 1364 1365 1366
f 1364 1366 1367
f 1368 1369 1359
f 1370 1371 1372
f 1373 1369 1368
f 1374 1364 1375
f 1376 1373 1368
f 1377 1373 1376
f 1378 1375 1379
f 1380 1381 1370
f 1382 1377 1376
f 1383 1380 1379
f 1384 1378 1383
f 1385 1386 1377
f 1387 1388 1389
f 1390 1384 1383
f 1391 1384 1390
f 1392 1393 1394
f 1395 1396 1397
f 1398 1391 1390
f 1399 1400 1401
f 1402 1391 1398
f 1403 1399 1401
f 1404 1398 1405
f 1404 1402 1398
f 1406 1407 1399
f 1408 1399 1409
f 1410 1411 1412
f 1413 1414 1415
f 1416 1407 1406
f 1416 1417 1407
f 1418 1419 1420
f 1421 1415 1422
f 1423 1424 1416
f 1423 1425 1426
f 1427 1428 1429
f 1430 1431 1432
f 1433 1434 1435
f 1436 1437 1434
f 1436 1434 1433
f 1438 1437 1436
f 1439 1440 1437
f 1439 1441 1440
f 1439 1437 1438
f 1442 1441 1439
f 1443 1444 1441
f 1443 1441 1442
f 1445 1444 1443
f 1445 1446 1444
f 1447 1446 1445
f 1447 1448 1446
f 1449 1448 1447
f 1449 1450 1448
f 1451 1450 1449
f 1451 1452 1450
f 1453 1452 1451
f 1453 1454 1452
f 1453 1455 1454
f 1456 1455 1453
f 1457 1455 1456
f 1457 1458 1455
f 1459 1458 1457
f 1459 1460 1458
f 1461 1460 1459
f 1461 1462 1460
f 1463 1462 1461
f 1463 1464 1462
f 1463 1465 1464
f 1466 1465 1463
f 1467 1465 1466
f 1467 1468 1465
f 1469 1468 1467
f 1469 1470 1468
f 1471 1470 1469
f 1471 1472 1470
f 1473 1474 1472
f 1473 1472 1471
f 1473 1475 1474
f 1476 1475 1473
f 1477 1478 1475
f 1477 1475 1476
f 1479 1480 1478
f 1479 1481 1480
f 1479 1478 1477
f 1482 1483 1481
f 1482 1481 1479
f 1484 1483 1482
f 1485 1486 1483
f 1485 1487 1486
f 1485 1483 1484
f 1488 1487 1485
f 1489 1490 1487
f 1489 1491 1490
f 1489 1487 1488
f 1492 1491 1489
f 1493 1494 1491
f 1493 1491 1492
f 1495 1496 1494
f 1495 1497 1496
f 1495 1494 1493
f 1498 1497 1495
f 1499 1497 1498
f 1499 1500 1497
f 1501 1500 1499
f 1501 1502 1500
f 1503 1502 1501
f 1503 1504 1502
f 1505 1504 1503
f 1505 1506 1504

