# https://github.com/mikedh/trimesh
v -0.07525200 0.01063299 0.20589940
v -0.07599998 0.00000000 0.19701029
v -0.07536197 0.00983095 0.20684139
v -0.07510401 0.01163595 0.20489641
v -0.07599998 0.00000000 0.11531039
v -0.07485497 0.01314300 0.10601039
v -0.07599998 0.00000000 0.10601039
v -0.07507797 0.01179999 0.20491929
v -0.07505298 0.01196295 0.20494340
v -0.07502598 0.01212596 0.20496640
v -0.07347800 0.01941597 0.19767641
v -0.07145501 0.02588897 0.10601039
v -0.07122298 0.02651900 0.19057330
v -0.06628800 0.03717398 0.17991839
v -0.06590099 0.03785598 0.10601039
v -0.05977096 0.04694098 0.17015140
v -0.05836195 0.04868096 0.10601039
v -0.05277396 0.05468899 0.16240241
v -0.04906399 0.05803996 0.10601039
v -0.04686499 0.05983096 0.15726140
v -0.04045798 0.06433600 0.15275639
v -0.03828800 0.06565099 0.10601040
v -0.03362096 0.06815898 0.14893340
v -0.02635897 0.07128298 0.10601040
v -0.02642799 0.07125699 0.14583530
v -0.01895398 0.07359898 0.14349340
v -0.01363498 0.07476699 0.10601040
v -0.01127798 0.07515895 0.14193340
v -0.00348200 0.07591998 0.14117239
v -0.00050000 0.07599800 0.10901040
v -0.00046500 0.07599896 0.10919440
v -0.00036400 0.07599896 0.10935240
v -0.00021200 0.07599997 0.10946240
v -0.00010600 0.07599997 0.10949940
v 0.00003000 0.07599997 0.10950940
v 0.00018800 0.07599997 0.10947340
v 0.00434999 0.07587498 0.14121629
v 0.00035000 0.07599896 0.10936740
v -0.00050000 0.07599800 0.10601040
v 0.00041800 0.07599896 0.10928440
v 0.00047000 0.07599896 0.10918140
v 0.00050000 0.07599800 0.10901040
v 0.01363496 0.07476699 0.10601040
v 0.00050000 0.07599800 0.10601040
v 0.01299499 0.07488095 0.14221141
v 0.02239595 0.07262498 0.14446640
v 0.02635895 0.07128298 0.10601040
v 0.03143398 0.06919497 0.14789741
v 0.03828798 0.06565099 0.10601040
v 0.04087399 0.06407296 0.15301940
v 0.04906397 0.05803996 0.10601041
v 0.05039797 0.05688595 0.16020539
v 0.05836199 0.04868096 0.10601041
v 0.05928199 0.04755598 0.16953529
v 0.06590097 0.03785598 0.10601041
v 0.06787697 0.03418594 0.18290640
v 0.07145499 0.02588897 0.10601041
v 0.07350396 0.01931899 0.19777329
v 0.07485496 0.01314300 0.10601041
v 0.07522695 0.01081496 0.19743741
v 0.07599996 0.00000000 0.11531041
v 0.07580595 0.00542098 0.19722439
v 0.07599995 0.00000000 0.19701029
v 0.07599996 0.00000000 0.10601041
v 0.07502399 -0.01214295 0.11461241
v 0.07485496 -0.01314300 0.10601041
v 0.07261895 -0.02241694 0.11403941
v 0.07145499 -0.02588897 0.10601041
v 0.06924497 -0.03132295 0.11356041
v 0.06590097 -0.03785598 0.10601041
v 0.06406997 -0.04087895 0.11307541
v 0.05836199 -0.04868096 0.10601041
v 0.05771498 -0.04944700 0.11266641
v 0.05042998 -0.05685895 0.11233640
v 0.04906397 -0.05803996 0.10601041
v 0.04219697 -0.06320899 0.11207040
v 0.03828798 -0.06565099 0.10601040
v 0.03295498 -0.06848400 0.11186240
v 0.02635895 -0.07128298 0.10601040
v 0.02293698 -0.07245600 0.11171140
v 0.01363496 -0.07476699 0.10601040
v 0.01223598 -0.07500898 0.11161740
v 0.00050000 -0.07599800 0.10901040
v 0.00115996 -0.07599097 0.11158240
v 0.00046500 -0.07599896 0.10919440
v 0.00036400 -0.07599896 0.10935240
v 0.00021200 -0.07599997 0.10946240
v 0.00010600 -0.07599997 0.10949940
v -0.00003000 -0.07599997 0.10950940
v -0.00018800 -0.07599997 0.10947340
v -0.00035000 -0.07599896 0.10936740
v 0.00050000 -0.07599800 0.10601040
v -0.00995696 -0.07534497 0.11160540
v -0.00050000 -0.07599800 0.10601040
v -0.00050000 -0.07599800 0.10901040
v -0.00047000 -0.07599896 0.10918140
v -0.00041800 -0.07599896 0.10928440
v -0.01363498 -0.07476699 0.10601040
v -0.02069998 -0.07312697 0.11168640
v -0.02635897 -0.07128298 0.10601040
v -0.03092099 -0.06942600 0.11182640
v -0.03828800 -0.06565099 0.10601040
v -0.04030598 -0.06443196 0.11202140
v -0.04906399 -0.05803996 0.10601039
v -0.04876400 -0.05829298 0.11227539
v -0.05624199 -0.05111700 0.11259039
v -0.05836195 -0.04868096 0.10601039
v -0.06281596 -0.04277998 0.11298239
v -0.06590099 -0.03785598 0.10601039
v -0.06825399 -0.03342700 0.11345139
v -0.07145501 -0.02588897 0.10601039
v -0.07199300 -0.02435100 0.11393339
v -0.07485497 -0.01314300 0.10601039
v -0.07461298 -0.01445299 0.11448240
v -0.07562298 -0.00755596 0.11487339
v -0.07599998 0.00000000 0.10601039
v -0.07599998 0.00000000 0.11531039
v -0.01232899 -0.06992095 0.09001040
v -0.00000001 -0.07099997 0.09001040
v -0.00000001 -0.07099997 0.09901040
v -0.01232899 -0.06992095 0.09901040
v -0.02428300 -0.06671798 0.09001040
v -0.02428300 -0.06671798 0.09901040
v -0.03549999 -0.06148797 0.09001040
v -0.03549999 -0.06148797 0.09901040
v -0.04563797 -0.05438899 0.09001039
v -0.04563797 -0.05438899 0.09901039
v -0.05438895 -0.04563796 0.09001039
v -0.05438895 -0.04563796 0.09901039
v -0.06148798 -0.03549998 0.09001039
v -0.06148798 -0.03549998 0.09901039
v -0.06671799 -0.02428299 0.09001039
v -0.06671799 -0.02428299 0.09901039
v -0.06992096 -0.01232898 0.09001039
v -0.06992096 -0.01232898 0.09901039
v -0.07099998 0.00000000 0.09001039
v -0.07099998 0.00000000 0.09901039
v -0.06992096 0.01232898 0.09001039
v -0.06992096 0.01232898 0.09901039
v -0.06671799 0.02428299 0.09001039
v -0.06671799 0.02428299 0.09901039
v -0.06148798 0.03549998 0.09001039
v -0.06148798 0.03549998 0.09901039
v -0.05438895 0.04563796 0.09001039
v -0.05438895 0.04563796 0.09901039
v -0.04563797 0.05438899 0.09001039
v -0.04563797 0.05438899 0.09901039
v -0.03549999 0.06148797 0.09001040
v -0.03549999 0.06148797 0.09901040
v -0.02428300 0.06671798 0.09001040
v -0.02428300 0.06671798 0.09901040
v -0.01232899 0.06992095 0.09001040
v -0.01232899 0.06992095 0.09901040
v -0.00000001 0.07099997 0.09001040
v -0.00000001 0.07099997 0.09901040
v 0.01232897 0.06992095 0.09001040
v 0.01232897 0.06992095 0.09901040
v 0.02428298 0.06671798 0.09001040
v 0.02428298 0.06671798 0.09901040
v 0.03549997 0.06148797 0.09001040
v 0.03549997 0.06148797 0.09901040
v 0.04563795 0.05438899 0.09001040
v 0.04563795 0.05438899 0.09901041
v 0.05438898 0.04563796 0.09001040
v 0.05438898 0.04563796 0.09901041
v 0.06148796 0.03549998 0.09001040
v 0.06148796 0.03549998 0.09901041
v 0.06671797 0.02428299 0.09001040
v 0.06671797 0.02428299 0.09901041
v 0.06992100 0.01232898 0.09001040
v 0.06992100 0.01232898 0.09901041
v 0.07099997 0.00000000 0.09001040
v 0.07099997 0.00000000 0.09901041
v 0.06992100 -0.01232898 0.09001040
v 0.06992100 -0.01232898 0.09901041
v 0.06671797 -0.02428299 0.09001040
v 0.06671797 -0.02428299 0.09901041
v 0.06148796 -0.03549998 0.09001040
v 0.06148796 -0.03549998 0.09901041
v 0.05438898 -0.04563796 0.09001040
v 0.05438898 -0.04563796 0.09901041
v 0.04563795 -0.05438899 0.09001040
v 0.04563795 -0.05438899 0.09901041
v 0.03549997 -0.06148797 0.09001040
v 0.03549997 -0.06148797 0.09901040
v 0.02428298 -0.06671798 0.09001040
v 0.02428298 -0.06671798 0.09901040
v 0.01232897 -0.06992095 0.09001040
v 0.01232897 -0.06992095 0.09901040
v -0.00000001 -0.07099997 0.09001040
v -0.00000001 -0.07099997 0.09901040
v 0.05438898 0.04563796 0.09001040
v -0.00000001 -0.07099997 0.09001040
v -0.01232899 -0.06992095 0.09001040
v -0.02428300 -0.06671798 0.09001040
v -0.03549999 -0.06148797 0.09001040
v -0.04563797 -0.05438899 0.09001039
v -0.05438895 -0.04563796 0.09001039
v -0.06148798 -0.03549998 0.09001039
v -0.06671799 -0.02428299 0.09001039
v -0.06992096 -0.01232898 0.09001039
v -0.07099998 0.00000000 0.09001039
v -0.06992096 0.01232898 0.09001039
v -0.06671799 0.02428299 0.09001039
v -0.06148798 0.03549998 0.09001039
v -0.05438895 0.04563796 0.09001039
v -0.04563797 0.05438899 0.09001039
v -0.03549999 0.06148797 0.09001040
v -0.02428300 0.06671798 0.09001040
v -0.01232899 0.06992095 0.09001040
v -0.00000001 0.07099997 0.09001040
v 0.01232897 0.06992095 0.09001040
v 0.02428298 0.06671798 0.09001040
v 0.03549997 0.06148797 0.09001040
v 0.04563795 0.05438899 0.09001040
v 0.06148796 0.03549998 0.09001040
v 0.06671797 0.02428299 0.09001040
v 0.06992100 0.01232898 0.09001040
v 0.07099997 0.00000000 0.09001040
v 0.06992100 -0.01232898 0.09001040
v 0.06671797 -0.02428299 0.09001040
v 0.06148796 -0.03549998 0.09001040
v 0.05438898 -0.04563796 0.09001040
v 0.04563795 -0.05438899 0.09001040
v 0.03549997 -0.06148797 0.09001040
v 0.02428298 -0.06671798 0.09001040
v 0.01232897 -0.06992095 0.09001040
v 0.01113996 -0.05509698 0.27218941
v -0.01434399 -0.05455195 0.27164441
v -0.00497600 -0.05575495 0.27284741
v 0.00352398 -0.05583596 0.27292839
v 0.01864294 -0.05359596 0.27068841
v -0.02348997 -0.05219697 0.26928940
v 0.02595696 -0.05134797 0.26844040
v -0.03322001 -0.04827296 0.26536539
v -0.07347800 0.01941597 0.19767641
v -0.07502598 0.00795597 0.20913640
v -0.07017101 -0.00910896 0.22620040
v -0.07502598 0.01212596 0.20496640
v -0.07508101 0.01073598 0.20635641
v -0.07508101 0.00934595 0.20774640
v 0.03300795 -0.04837596 0.26546839
v 0.03972397 -0.04470998 0.26180241
v -0.04328199 -0.04238897 0.25948140
v 0.04603795 -0.04038798 0.25747940
v -0.05325796 -0.03413599 0.25122839
v 0.05188498 -0.03545194 0.25254440
v 0.05885295 -0.02800500 0.24509729
v -0.06251897 -0.02313196 0.24022339
v 0.06541995 -0.01859897 0.23569140
v 0.07013295 -0.00919896 0.22629140
v 0.07350395 0.00076300 0.21632940
v 0.07350396 0.01931899 0.19777329
v -0.07122298 0.02651900 0.19057330
v 0.07457796 0.00693196 0.21016040
v 0.07457796 0.01314997 0.20394240
v 0.00434999 0.07587498 0.14121629
v -0.00348200 0.07591998 0.14117239
v -0.01127798 0.07515895 0.14193340
v 0.06787697 0.03418594 0.18290640
v -0.06628800 0.03717398 0.17991839
v 0.01299499 0.07488095 0.14221141
v -0.01895398 0.07359898 0.14349340
v 0.02239595 0.07262498 0.14446640
v -0.02642799 0.07125699 0.14583530
v 0.05928199 0.04755598 0.16953529
v -0.05277396 0.05468899 0.16240241
v -0.05977096 0.04694098 0.17015140
v 0.03143398 0.06919497 0.14789741
v -0.03362096 0.06815898 0.14893340
v 0.05039797 0.05688595 0.16020539
v -0.04686499 0.05983096 0.15726140
v 0.04087399 0.06407296 0.15301940
v -0.04045798 0.06433600 0.15275639
v 0.07599995 -0.08169996 0.19701029
v 0.07599995 0.00000000 0.19701029
v 0.07550500 0.00034200 0.20567331
v 0.07485495 -0.08849996 0.21015340
v 0.07599995 -0.08849996 0.19701029
v 0.07469396 0.00055400 0.21103729
v 0.07350395 0.00076300 0.21632940
v 0.07145498 -0.08849996 0.22289941
v 0.07013295 -0.00919896 0.22629140
v 0.06541995 -0.01859897 0.23569140
v 0.06590096 -0.08849996 0.23486640
v 0.05885295 -0.02800500 0.24509729
v 0.05836198 -0.08849996 0.24569140
v 0.05188498 -0.03545194 0.25254440
v 0.04906396 -0.08849996 0.25505039
v 0.04603795 -0.04038798 0.25747940
v 0.03972397 -0.04470998 0.26180241
v 0.03828797 -0.08849996 0.26266140
v 0.03300795 -0.04837596 0.26546839
v 0.02635894 -0.08849996 0.26829341
v 0.02595696 -0.05134797 0.26844040
v 0.01864294 -0.05359596 0.27068841
v 0.01363495 -0.08849996 0.27177739
v 0.01113996 -0.05509698 0.27218941
v 0.00352398 -0.05583596 0.27292839
v 0.00049998 -0.08550000 0.27300841
v 0.00046498 -0.08531498 0.27300939
v 0.00036398 -0.08515697 0.27300939
v 0.00021198 -0.08504700 0.27301040
v 0.00010598 -0.08501100 0.27301040
v -0.00003002 -0.08500099 0.27301040
v -0.00018802 -0.08503699 0.27301040
v -0.00497600 -0.05575495 0.27284741
v -0.00035002 -0.08514297 0.27300939
v 0.00049998 -0.08849996 0.27300841
v -0.00041802 -0.08522498 0.27300939
v -0.00047002 -0.08532899 0.27300939
v -0.00050002 -0.08550000 0.27300841
v -0.01367100 -0.08849996 0.27177039
v -0.01434399 -0.05455195 0.27164441
v -0.00050002 -0.08849996 0.27300841
v -0.02348997 -0.05219697 0.26928940
v -0.02642800 -0.08849996 0.26826739
v -0.03322001 -0.04827296 0.26536539
v -0.03838398 -0.08849996 0.26260540
v -0.04328199 -0.04238897 0.25948140
v -0.04917701 -0.08849996 0.25495541
v -0.05325796 -0.03413599 0.25122839
v -0.05847998 -0.08849996 0.24554940
v -0.06251897 -0.02313196 0.24022339
v -0.06601198 -0.08849996 0.23467340
v -0.07017101 -0.00910896 0.22620040
v -0.07154198 -0.08849996 0.22265540
v -0.07599998 0.00000000 0.19701029
v -0.07510401 0.00788599 0.20864640
v -0.07525200 0.00888896 0.20764340
v -0.07536197 0.00983095 0.20684139
v -0.07490601 -0.08849996 0.20986129
v -0.07502598 0.00795597 0.20913640
v -0.07505298 0.00793296 0.20897339
v -0.07507797 0.00790900 0.20881040
v -0.07599998 -0.08169996 0.19701029
v -0.07599898 -0.08849996 0.19667740
v -0.07502396 -0.08239799 0.18486740
v -0.07479002 -0.08849996 0.18350340
v -0.07261898 -0.08297097 0.17459340
v -0.07131501 -0.08849996 0.17073829
v -0.06924500 -0.08344995 0.16568740
v -0.06567896 -0.08849996 0.15877040
v -0.06406999 -0.08393496 0.15613140
v -0.05805195 -0.08849996 0.14796039
v -0.05771494 -0.08434396 0.14756329
v -0.05042995 -0.08467400 0.14015140
v -0.04866696 -0.08849996 0.13863640
v -0.04219699 -0.08493995 0.13380140
v -0.03780699 -0.08849996 0.13108140
v -0.03295500 -0.08514797 0.12852640
v -0.02580196 -0.08849996 0.12552440
v -0.02293695 -0.08529895 0.12455440
v -0.01301498 -0.08849996 0.12213340
v -0.01223594 -0.08539295 0.12200140
v -0.00115998 -0.08542799 0.12101940
v 0.00016700 -0.08849996 0.12101040
v 0.00995694 -0.08540499 0.12166540
v 0.01334296 -0.08849996 0.12219040
v 0.02069996 -0.08532398 0.12388340
v 0.02611499 -0.08849996 0.12563840
v 0.03092097 -0.08518397 0.12758429
v 0.03809600 -0.08849996 0.13124840
v 0.04030596 -0.08498895 0.13257840
v 0.04892294 -0.08849996 0.13885041
v 0.04876398 -0.08473497 0.13871740
v 0.05624197 -0.08441996 0.14589339
v 0.05826698 -0.08849996 0.14821540
v 0.06281594 -0.08402800 0.15423040
v 0.06584594 -0.08849996 0.15905841
v 0.06825397 -0.08355897 0.16358329
v 0.07142899 -0.08849996 0.17105140
v 0.07199298 -0.08307695 0.17265929
v 0.07484899 -0.08849996 0.18383130
v 0.07461295 -0.08252799 0.18255740
v 0.07562295 -0.08213698 0.18945441
v 0.07599995 -0.08849996 0.19701029
v 0.07599995 -0.08169996 0.19701029
v 0.07526796 -0.01112198 0.11590741
v 0.07599996 0.00000000 0.11531041
v 0.07599995 -0.08169996 0.19701029
v 0.07493596 -0.08098399 0.18362240
v 0.07300095 -0.02229797 0.11646741
v 0.07168297 -0.08034700 0.17040640
v 0.06928800 -0.03284096 0.11692341
v 0.06825297 -0.07999897 0.16188040
v 0.06474100 -0.04173797 0.11724140
v 0.06412999 -0.07973700 0.15426341
v 0.05886196 -0.05025297 0.11748741
v 0.05640994 -0.07945096 0.14383040
v 0.05169897 -0.05806195 0.11766541
v 0.04703496 -0.07927000 0.13488340
v 0.04362600 -0.06470495 0.11778241
v 0.03650998 -0.07916295 0.12781741
v 0.03451799 -0.07025897 0.11786140
v 0.02518497 -0.07910400 0.12270840
v 0.02481399 -0.07443195 0.11790840
v 0.01381098 -0.07907497 0.11965040
v 0.01302598 -0.07750195 0.11793640
v 0.00702398 -0.07906699 0.11870240
v -0.00000001 -0.07863599 0.11794640
v -0.00000001 -0.07906395 0.11837440
v -0.07590999 -0.08171498 0.19325539
v -0.07599998 -0.08169996 0.19701029
v -0.07552697 -0.08121800 0.18805739
v -0.07590999 -0.08171498 0.19325539
v -0.07599998 -0.08169996 0.19701029
v -0.07599998 -0.08169996 0.19701029
v -0.07563998 -0.08172798 0.18953040
v -0.07502396 -0.08239799 0.18486740
v -0.07599998 -0.08169996 0.19701029
v -0.07519402 -0.08174097 0.18583541
v -0.07457300 -0.08175396 0.18217041
v -0.07406498 -0.08075100 0.17902040
v -0.07377595 -0.08176696 0.17853440
v -0.07261898 -0.08297097 0.17459340
v -0.07224502 -0.08178895 0.17313340
v -0.07012600 -0.08016800 0.16618140
v -0.07031699 -0.08181196 0.16783540
v -0.06924500 -0.08344995 0.16568740
v -0.06718101 -0.08184397 0.16107041
v -0.06412996 -0.07973700 0.15426341
v -0.06406999 -0.08393496 0.15613140
v -0.06340601 -0.08187896 0.15465140
v -0.06015100 -0.08190500 0.15006541
v -0.05638195 -0.07944995 0.14379939
v -0.05771494 -0.08434396 0.14756329
v -0.05655295 -0.08192998 0.14571540
v -0.05399496 -0.08194696 0.14298740
v -0.05042995 -0.08467400 0.14015140
v -0.04850996 -0.08197999 0.13793640
v -0.04705298 -0.07927000 0.13489740
v -0.04219699 -0.08493995 0.13380140
v -0.04252697 -0.08201098 0.13343340
v -0.03677995 -0.07916498 0.12796840
v -0.03772694 -0.08203196 0.13043340
v -0.03295500 -0.08514797 0.12852640
v -0.02934200 -0.08206099 0.12628540
v -0.02525396 -0.07910400 0.12273340
v -0.03274996 -0.08204996 0.12781639
v -0.02586300 -0.08207100 0.12492440
v -0.02051098 -0.08208400 0.12320240
v -0.01261396 -0.07907295 0.11943740
v -0.01500196 -0.08209395 0.12187440
v -0.01223594 -0.08539295 0.12200140
v -0.00754298 -0.08210295 0.12075140
v -0.00000001 -0.07906395 0.11837440
v -0.00115998 -0.08542799 0.12101940
v -0.01128299 -0.08209896 0.12121940
v -0.00378300 -0.08210498 0.12046940
v 0.00377499 -0.08210498 0.12046840
v 0.00702398 -0.07906699 0.11870240
v 0.00995694 -0.08540499 0.12166540
v -0.00000100 -0.08210498 0.12037440
v 0.00751900 -0.08210295 0.12074840
v 0.01123194 -0.08209896 0.12121140
v 0.01381098 -0.07907497 0.11965040
v 0.01491295 -0.08209395 0.12185640
v 0.02069996 -0.08532398 0.12388340
v 0.01856296 -0.08208799 0.12268240
v 0.02518497 -0.07910400 0.12270840
v 0.02397697 -0.08207595 0.12426730
v 0.03092097 -0.08518397 0.12758429
v 0.02927695 -0.08206200 0.12625840
v 0.03650998 -0.07916295 0.12781741
v 0.03602897 -0.08203899 0.12948640
v 0.04030596 -0.08498895 0.13257840
v 0.04241495 -0.08201199 0.13335741
v 0.04703496 -0.07927000 0.13488340
v 0.04696499 -0.08198899 0.13668440
v 0.04876398 -0.08473497 0.13871740
v 0.05126499 -0.08196395 0.14034940
v 0.05640994 -0.07945096 0.14383040
v 0.05395596 -0.08194798 0.14294741
v 0.05624197 -0.08441996 0.14589339
v 0.05892198 -0.08191400 0.14850339
v 0.06412999 -0.07973700 0.15426341
v 0.06281594 -0.08402800 0.15423040
v 0.06333295 -0.08187896 0.15454040
v 0.06625997 -0.08185297 0.15936740
v 0.06825297 -0.07999897 0.16188040
v 0.06825397 -0.08355897 0.16358329
v 0.06880496 -0.08182799 0.16435941
v 0.07029097 -0.08181196 0.16777129
v 0.07199298 -0.08307695 0.17265929
v 0.07168297 -0.08034700 0.17040640
v 0.07160995 -0.08179700 0.17124940
v 0.07327496 -0.08177500 0.17659441
v 0.07461295 -0.08252799 0.18255740
v 0.07493596 -0.08098399 0.18362240
v 0.07455698 -0.08175396 0.18208639
v 0.07518797 -0.08174097 0.18578839
v 0.07562295 -0.08213698 0.18945441
v 0.07563797 -0.08172798 0.18950941
v 0.07599995 -0.08169996 0.19701029
v 0.07563797 -0.08172798 0.18950941
v 0.07599995 -0.08169996 0.19701029
v 0.07599995 -0.08169996 0.19701029
v 0.07599995 -0.08169996 0.19701029
v -0.03461195 -0.08193099 0.12869340
v -0.02389998 -0.08195900 0.12419340
v -0.01232398 -0.08197796 0.12133440
v -0.00058500 -0.08198398 0.12032740
v 0.02274297 -0.08196097 0.12381940
v 0.03347199 -0.08193397 0.12811939
v 0.03818499 -0.08191895 0.13065140
v -0.00862295 -0.07814097 0.11794240
v -0.00000001 -0.07863599 0.11794640
v -0.00000001 -0.07906395 0.11837440
v -0.01261396 -0.07907295 0.11943740
v -0.01750196 -0.07657498 0.11792840
v -0.02525396 -0.07910400 0.12273340
v -0.02779395 -0.07332098 0.11789640
v -0.03677995 -0.07916498 0.12796840
v -0.03710998 -0.06885695 0.11784340
v -0.04597295 -0.06296300 0.11775439
v -0.04705298 -0.07927000 0.13489740
v -0.05499095 -0.05474400 0.11759539
v -0.05638195 -0.07944995 0.14379939
v -0.06310397 -0.04436695 0.11732339
v -0.06412996 -0.07973700 0.15426341
v -0.06928796 -0.03283995 0.11692339
v -0.07012600 -0.08016800 0.16618140
v -0.07300395 -0.02228397 0.11646739
v -0.07406498 -0.08075100 0.17902040
v -0.07526798 -0.01112395 0.11590839
v -0.07552697 -0.08121800 0.18805739
v -0.07599998 0.00000000 0.11531039
v -0.07599998 -0.08169996 0.19701029
v -0.07599998 -0.08169996 0.19701029
v -0.07599998 0.00000000 0.19701029
v 0.07599995 0.00000000 0.19701029
v 0.07469396 0.00055400 0.21103729
v 0.07457796 0.00693196 0.21016040
v 0.07350395 0.00076300 0.21632940
v 0.07522695 0.01081496 0.19743741
v 0.07350396 0.01931899 0.19777329
v 0.07457796 0.01314997 0.20394240
v 0.07566898 0.00511199 0.20212241
v 0.07550500 0.00034200 0.20567331
v 0.07599995 0.00000000 0.19701029
v 0.07566898 0.00511199 0.20212241
v 0.07599995 0.00000000 0.19701029
v 0.07599995 0.00000000 0.19701029
v 0.07580595 0.00542098 0.19722439
v 0.07599995 0.00000000 0.19701029
v 0.07590996 -0.00375497 0.11530340
v 0.07599996 0.00000000 0.11531041
v 0.07526796 -0.01112198 0.11590741
v 0.07590996 -0.00375497 0.11530340
v 0.07599996 0.00000000 0.11531041
v 0.07599996 0.00000000 0.11531041
v 0.07564096 -0.00748098 0.11529741
v 0.07599996 0.00000000 0.11531041
v 0.07502399 -0.01214295 0.11461241
v 0.07519595 -0.01117599 0.11529241
v 0.07457499 -0.01484197 0.11528641
v 0.07300095 -0.02229797 0.11646741
v 0.07377897 -0.01847898 0.11528040
v 0.07261895 -0.02241694 0.11403941
v 0.07225095 -0.02388095 0.11526941
v 0.07032596 -0.02918100 0.11525641
v 0.06928800 -0.03284096 0.11692341
v 0.06924497 -0.03132295 0.11356041
v 0.06719296 -0.03595000 0.11523541
v 0.06474100 -0.04173797 0.11724140
v 0.06406997 -0.04087895 0.11307541
v 0.06342100 -0.04237300 0.11521140
v 0.06016795 -0.04696196 0.11519241
v 0.05886196 -0.05025297 0.11748741
v 0.05771498 -0.04944700 0.11266641
v 0.05657099 -0.05131494 0.11517241
v 0.05401395 -0.05404597 0.11515941
v 0.05169897 -0.05806195 0.11766541
v 0.05042998 -0.05685895 0.11233640
v 0.04852895 -0.05910098 0.11513340
v 0.04362600 -0.06470495 0.11778241
v 0.04219697 -0.06320899 0.11207040
v 0.04254697 -0.06360995 0.11510740
v 0.03774600 -0.06661295 0.11509040
v 0.03451799 -0.07025897 0.11786140
v 0.03295498 -0.06848400 0.11186240
v 0.02935694 -0.07076698 0.11506540
v 0.03276698 -0.06923395 0.11507440
v 0.02481399 -0.07443195 0.11790840
v 0.02293698 -0.07245600 0.11171140
v 0.02587698 -0.07212996 0.11505640
v 0.02052198 -0.07385295 0.11504540
v 0.01302598 -0.07750195 0.11793640
v 0.01500998 -0.07518398 0.11503640
v 0.01223598 -0.07500898 0.11161740
v 0.00754796 -0.07630795 0.11502940
v -0.00000001 -0.07863599 0.11794640
v 0.00115996 -0.07599097 0.11158240
v 0.01128994 -0.07583999 0.11503240
v 0.00378494 -0.07659095 0.11502740
v -0.00377698 -0.07659095 0.11502740
v 0.00000100 -0.07668495 0.11502740
v -0.00862295 -0.07814097 0.11794240
v -0.00995696 -0.07534497 0.11160540
v -0.00752295 -0.07631099 0.11502940
v -0.01123798 -0.07584697 0.11503240
v -0.01750196 -0.07657498 0.11792840
v -0.01492197 -0.07520198 0.11503640
v -0.02069998 -0.07312697 0.11168640
v -0.01857299 -0.07437396 0.11504240
v -0.02398998 -0.07278698 0.11505240
v -0.02779395 -0.07332098 0.11789640
v -0.03092099 -0.06942600 0.11182640
v -0.02929295 -0.07079398 0.11506540
v -0.03604699 -0.06756198 0.11508440
v -0.04030598 -0.06443196 0.11202140
v -0.04243500 -0.06368499 0.11510740
v -0.03710998 -0.06885695 0.11784340
v -0.04597295 -0.06296300 0.11775439
v -0.04698498 -0.06035494 0.11512639
v -0.04876400 -0.05829298 0.11227539
v -0.05128396 -0.05668699 0.11514639
v -0.05499095 -0.05474400 0.11759539
v -0.05397499 -0.05408596 0.11515939
v -0.05624199 -0.05111700 0.11259039
v -0.05894000 -0.04852497 0.11518539
v -0.06310397 -0.04436695 0.11732339
v -0.06281596 -0.04277998 0.11298239
v -0.06334800 -0.04248398 0.11521139
v -0.06627297 -0.03765296 0.11522939
v -0.06928796 -0.03283995 0.11692339
v -0.06825399 -0.03342700 0.11345139
v -0.06881500 -0.03265899 0.11524639
v -0.07029897 -0.02924597 0.11525639
v -0.07199300 -0.02435100 0.11393339
v -0.07161695 -0.02576500 0.11526539
v -0.07300395 -0.02228397 0.11646739
v -0.07327897 -0.02041900 0.11527640
v -0.07461298 -0.01445299 0.11448240
v -0.07455898 -0.01492595 0.11528639
v -0.07526798 -0.01112395 0.11590839
v -0.07518899 -0.01122295 0.11529239
v -0.07562298 -0.00755596 0.11487339
v -0.07563895 -0.00750196 0.11529739
v -0.07599998 0.00000000 0.11531039
v -0.07599998 0.00000000 0.11531039
v -0.07563895 -0.00750196 0.11529739
v -0.07599998 0.00000000 0.11531039
v 0.03348897 -0.06888198 0.11507640
v 0.02368300 -0.07288897 0.11505140
v 0.01252495 -0.07564300 0.11503340
v 0.00058500 -0.07668298 0.11502640
v -0.00922597 -0.07612097 0.11503040
v -0.03377498 -0.06874096 0.11507740
v -0.03847600 -0.06618899 0.11509240
f 1 2 3
f 4 2 1
f 5 2 4
f 6 7 5
f 6 4 8
f 6 8 9
f 6 9 10
f 6 5 4
f 6 10 11
f 12 13 14
f 12 11 13
f 12 6 11
f 15 14 16
f 15 12 14
f 17 16 18
f 17 15 16
f 19 20 21
f 19 18 20
f 19 17 18
f 22 21 23
f 22 19 21
f 24 25 26
f 24 23 25
f 24 22 23
f 27 26 28
f 27 24 26
f 29 27 28
f 30 27 29
f 30 29 31
f 32 31 29
f 33 32 29
f 34 33 29
f 35 34 29
f 36 29 37
f 36 35 29
f 38 36 37
f 39 27 30
f 40 38 37
f 41 40 37
f 42 41 37
f 43 44 42
f 43 45 46
f 43 37 45
f 43 42 37
f 47 43 46
f 47 46 48
f 49 47 48
f 49 48 50
f 51 49 50
f 51 50 52
f 53 52 54
f 53 51 52
f 55 54 56
f 55 53 54
f 57 56 58
f 57 55 56
f 59 57 58
f 59 58 60
f 61 60 62
f 61 62 63
f 61 59 60
f 64 59 61
f 65 64 61
f 66 64 65
f 67 66 65
f 68 66 67
f 69 68 67
f 70 68 69
f 71 70 69
f 72 71 73
f 72 70 71
f 74 72 73
f 75 72 74
f 76 75 74
f 77 75 76
f 78 77 76
f 79 77 78
f 80 79 78
f 81 80 82
f 81 79 80
f 83 84 85
f 86 85 84
f 87 86 84
f 88 87 84
f 89 88 84
f 90 89 84
f 91 90 84
f 92 82 84
f 92 81 82
f 92 84 83
f 93 91 84
f 93 94 95
f 93 95 96
f 93 96 97
f 93 97 91
f 98 94 93
f 99 98 93
f 100 98 99
f 101 100 99
f 102 100 101
f 103 102 101
f 104 102 103
f 104 103 105
f 106 104 105
f 107 104 106
f 108 107 106
f 109 107 108
f 110 109 108
f 111 109 110
f 111 110 112
f 113 111 112
f 113 112 114
f 115 113 114
f 116 113 115
f 116 115 117
f 118 119 120
f 118 120 121
f 122 121 123
f 122 118 121
f 124 123 125
f 124 122 123
f 126 125 127
f 126 124 125
f 128 127 129
f 128 126 127
f 130 128 129
f 130 129 131
f 132 130 131
f 132 131 133
f 134 132 133
f 134 133 135
f 136 134 135
f 136 135 137
f 138 136 137
f 138 137 139
f 140 138 139
f 140 139 141
f 142 140 141
f 142 141 143
f 144 142 143
f 144 143 145
f 146 144 145
f 146 145 147
f 148 146 147
f 148 147 149
f 150 148 149
f 150 149 151
f 152 150 151
f 152 151 153
f 154 152 153
f 154 153 155
f 156 154 155
f 156 155 157
f 158 156 157
f 158 157 159
f 160 159 161
f 160 158 159
f 162 161 163
f 162 160 161
f 164 163 165
f 164 162 163
f 166 165 167
f 166 164 165
f 168 167 169
f 168 166 167
f 170 169 171
f 170 168 169
f 172 171 173
f 172 170 171
f 174 173 175
f 174 172 173
f 176 175 177
f 176 174 175
f 178 177 179
f 178 176 177
f 180 178 179
f 180 179 181
f 182 180 181
f 182 181 183
f 184 182 183
f 184 183 185
f 186 184 185
f 186 185 187
f 188 186 187
f 188 187 189
f 190 188 189
f 190 189 191
f 192 193 194
f 192 194 195
f 192 195 196
f 192 196 197
f 192 197 198
f 192 198 199
f 192 199 200
f 192 200 201
f 192 201 202
f 192 202 203
f 192 203 204
f 192 204 205
f 192 205 206
f 192 206 207
f 192 207 208
f 192 208 209
f 192 209 210
f 192 210 211
f 192 211 212
f 192 212 213
f 192 213 214
f 192 214 215
f 192 216 217
f 192 217 218
f 192 218 219
f 192 219 220
f 192 220 221
f 192 221 222
f 192 222 223
f 192 223 224
f 192 224 225
f 192 225 226
f 192 226 227
f 192 227 193
f 228 229 230
f 228 230 231
f 232 233 229
f 232 229 228
f 234 235 233
f 234 233 232
f 236 237 238
f 236 239 240
f 236 240 241
f 236 241 237
f 242 235 234
f 243 244 235
f 243 235 242
f 245 246 244
f 245 244 243
f 247 246 245
f 248 249 246
f 248 246 247
f 250 238 249
f 250 249 248
f 251 238 250
f 252 236 238
f 252 238 251
f 253 236 252
f 253 254 236
f 253 252 255
f 253 255 256
f 257 258 259
f 260 261 254
f 260 254 253
f 262 259 263
f 262 257 259
f 264 263 265
f 264 262 263
f 266 267 268
f 266 268 261
f 266 261 260
f 269 265 270
f 269 264 265
f 271 272 267
f 271 267 266
f 273 272 271
f 273 270 274
f 273 274 272
f 273 269 270
f 275 276 277
f 278 279 275
f 278 277 280
f 278 275 277
f 278 280 281
f 282 278 281
f 282 283 284
f 282 281 283
f 285 282 284
f 285 284 286
f 287 285 286
f 287 286 288
f 289 287 288
f 289 290 291
f 289 288 290
f 292 291 293
f 292 289 291
f 294 295 296
f 294 293 295
f 294 292 293
f 297 296 298
f 297 294 296
f 299 297 298
f 300 297 299
f 300 299 301
f 302 301 299
f 303 302 299
f 304 303 299
f 305 304 299
f 306 299 307
f 306 305 299
f 308 306 307
f 309 297 300
f 310 308 307
f 311 310 307
f 312 311 307
f 313 307 314
f 313 312 307
f 313 315 312
f 316 313 314
f 317 316 318
f 317 313 316
f 319 318 320
f 319 317 318
f 321 320 322
f 321 319 320
f 323 321 322
f 323 322 324
f 325 324 326
f 325 323 324
f 327 325 326
f 328 329 330
f 328 330 331
f 332 327 326
f 332 326 333
f 332 333 334
f 332 334 335
f 332 335 329
f 336 332 329
f 336 329 328
f 337 332 336
f 338 337 336
f 339 337 338
f 340 339 338
f 341 339 340
f 342 341 340
f 343 341 342
f 344 343 342
f 345 344 346
f 345 343 344
f 347 345 346
f 348 345 347
f 349 348 347
f 350 348 349
f 351 350 349
f 352 350 351
f 353 352 351
f 354 353 355
f 354 352 353
f 356 354 355
f 357 354 356
f 358 357 356
f 359 357 358
f 360 359 358
f 361 359 360
f 362 361 360
f 363 361 362
f 364 363 362
f 365 364 366
f 365 363 364
f 367 365 366
f 368 365 367
f 369 368 367
f 370 368 369
f 371 370 369
f 372 370 371
f 373 372 371
f 374 373 375
f 374 372 373
f 376 374 375
f 377 374 376
f 377 376 378
f 379 380 381
f 379 381 382
f 383 382 384
f 383 379 382
f 385 384 386
f 385 383 384
f 387 386 388
f 387 385 386
f 389 388 390
f 389 387 388
f 391 390 392
f 391 389 390
f 393 392 394
f 393 391 392
f 395 394 396
f 395 393 394
f 397 396 398
f 397 395 396
f 399 398 400
f 399 397 398
f 401 400 402
f 401 399 400
f 403 404 405
f 406 407 408
f 409 403 405
f 409 410 411
f 409 411 403
f 412 410 409
f 412 409 405
f 413 405 414
f 413 412 405
f 413 410 412
f 415 413 414
f 415 410 413
f 415 416 410
f 417 414 418
f 417 416 415
f 417 415 414
f 419 420 416
f 419 417 418
f 419 416 417
f 419 418 420
f 421 418 422
f 421 423 420
f 421 420 418
f 421 422 423
f 424 423 422
f 425 422 426
f 425 427 423
f 425 424 422
f 425 423 424
f 428 427 425
f 428 425 426
f 429 427 428
f 429 430 427
f 429 428 426
f 431 429 426
f 431 426 432
f 431 433 430
f 431 430 429
f 431 432 433
f 434 432 435
f 434 433 432
f 436 437 433
f 436 433 434
f 436 434 435
f 438 435 439
f 438 353 437
f 438 440 435
f 438 437 440
f 441 353 438
f 441 438 439
f 442 439 443
f 444 445 353
f 444 442 443
f 444 353 442
f 446 443 447
f 446 448 445
f 446 449 443
f 446 445 449
f 450 448 446
f 450 446 447
f 451 447 452
f 451 453 448
f 451 454 447
f 451 448 454
f 455 453 451
f 455 451 452
f 456 452 457
f 456 453 455
f 456 455 452
f 458 459 453
f 458 456 457
f 458 453 456
f 460 457 461
f 460 458 457
f 460 459 458
f 462 463 459
f 464 461 465
f 464 463 462
f 464 462 461
f 466 467 463
f 468 465 469
f 470 467 468
f 470 471 467
f 470 468 469
f 472 469 473
f 472 471 470
f 472 470 469
f 474 471 472
f 474 473 475
f 474 475 471
f 474 472 473
f 476 473 477
f 476 475 473
f 476 478 475
f 479 478 476
f 479 476 477
f 480 479 477
f 480 481 482
f 480 482 478
f 480 477 481
f 480 478 479
f 483 482 481
f 484 482 483
f 484 483 481
f 484 485 482
f 484 481 486
f 487 485 484
f 487 484 486
f 488 485 487
f 488 487 486
f 488 489 485
f 488 486 490
f 491 489 488
f 491 488 490
f 491 490 489
f 492 489 490
f 492 493 489
f 494 492 490
f 494 493 492
f 494 495 493
f 496 497 498
f 494 490 499
f 500 437 436
f 500 435 440
f 500 440 437
f 500 436 435
f 501 441 439
f 501 439 442
f 501 353 441
f 501 442 353
f 502 444 443
f 502 445 444
f 502 443 449
f 502 449 445
f 503 448 450
f 503 450 447
f 503 447 454
f 503 454 448
f 504 460 461
f 504 459 460
f 504 462 459
f 504 461 462
f 505 463 464
f 505 464 465
f 505 466 463
f 505 465 466
f 506 468 467
f 506 467 466
f 506 466 465
f 506 465 468
f 507 508 509
f 507 509 510
f 511 510 512
f 511 507 510
f 513 512 514
f 513 511 512
f 515 513 514
f 516 514 517
f 516 515 514
f 518 517 519
f 518 516 517
f 520 519 521
f 520 518 519
f 522 521 523
f 522 520 521
f 524 523 525
f 524 522 523
f 526 525 527
f 526 524 525
f 528 527 529
f 528 526 527
f 530 531 117
f 380 532 378
f 533 534 535
f 536 537 538
f 539 540 541
f 539 533 540
f 542 543 544
f 539 545 536
f 539 546 545
f 539 538 534
f 539 534 533
f 539 536 538
f 547 548 549
f 550 551 552
f 553 554 547
f 553 547 549
f 553 555 554
f 556 555 553
f 556 553 549
f 557 549 558
f 557 556 549
f 557 555 556
f 559 560 555
f 559 558 560
f 559 557 558
f 559 555 557
f 561 560 558
f 562 558 563
f 562 564 560
f 562 561 558
f 562 560 561
f 562 563 564
f 565 563 566
f 565 567 564
f 565 564 563
f 565 566 567
f 568 567 566
f 569 566 570
f 569 571 567
f 569 568 566
f 569 567 568
f 569 570 571
f 572 571 570
f 573 570 574
f 573 575 571
f 573 572 570
f 573 571 572
f 573 574 575
f 576 574 577
f 576 578 575
f 576 575 574
f 579 576 577
f 579 578 576
f 580 577 581
f 580 582 578
f 580 579 577
f 580 578 579
f 583 582 584
f 583 581 585
f 583 586 582
f 583 584 581
f 587 586 583
f 587 583 585
f 588 585 589
f 590 591 586
f 590 588 589
f 590 586 588
f 592 589 593
f 592 594 591
f 592 595 589
f 592 591 595
f 596 594 592
f 596 592 593
f 597 594 598
f 597 593 599
f 597 600 594
f 597 598 593
f 601 600 597
f 601 597 599
f 602 599 603
f 604 605 600
f 604 602 603
f 604 600 602
f 606 604 603
f 606 605 604
f 607 606 603
f 607 603 608
f 607 609 605
f 607 605 606
f 610 607 608
f 610 609 607
f 611 612 609
f 613 614 615
f 616 612 613
f 616 617 612
f 616 613 615
f 618 615 619
f 618 617 616
f 618 616 615
f 620 619 621
f 620 621 617
f 620 617 618
f 620 618 619
f 622 619 623
f 622 621 619
f 622 623 624
f 622 624 621
f 625 624 623
f 626 625 623
f 626 623 627
f 626 624 625
f 626 627 628
f 626 628 624
f 629 628 627
f 630 628 629
f 630 629 627
f 630 631 628
f 632 627 633
f 632 630 627
f 632 631 630
f 632 633 631
f 634 631 633
f 634 635 631
f 636 633 637
f 636 635 634
f 636 634 633
f 638 635 636
f 638 636 637
f 638 639 635
f 640 641 642
f 643 637 644
f 643 639 638
f 643 638 637
f 643 117 639
f 645 582 580
f 645 584 582
f 645 581 584
f 645 580 581
f 646 587 585
f 646 585 588
f 646 586 587
f 646 588 586
f 647 590 589
f 647 591 590
f 647 589 595
f 647 595 591
f 648 598 594
f 648 594 596
f 648 596 593
f 648 593 598
f 649 600 601
f 649 601 599
f 649 599 602
f 649 602 600
f 650 608 614
f 650 609 610
f 650 610 608
f 650 611 609
f 650 614 611
f 651 613 612
f 651 612 611
f 651 611 614
f 651 614 613

