# https://github.com/mikedh/trimesh
v 0.00296890 0.20417100 0.06770998
v 0.00313591 0.20731691 0.06770998
v 0.01331989 0.20587701 0.06770998
v 0.01260792 0.20280799 0.06770998
v 0.02186488 0.19979200 0.06770998
v 0.02309792 0.20269100 0.06770998
v -0.00676102 0.20383900 0.06770998
v -0.00714201 0.20696600 0.06770998
v 0.03045690 0.19521500 0.06770998
v 0.03217487 0.19785491 0.06770998
v -0.01628507 0.20182291 0.06770998
v -0.01720303 0.20483600 0.06770998
v 0.03812288 0.18921500 0.06770998
v 0.04027389 0.19151691 0.06770998
v -0.02531403 0.19818400 0.06770998
v -0.02674204 0.20099100 0.06770998
v 0.04463188 0.18197501 0.06770999
v 0.04714887 0.18386801 0.06770999
v -0.03357506 0.19303200 0.06770998
v -0.03546805 0.19554900 0.06770998
v 0.04978387 0.17371400 0.06770999
v 0.05259089 0.17514201 0.06770999
v -0.04081506 0.18652301 0.06770998
v -0.04311705 0.18867400 0.06770997
v 0.05342291 0.16468500 0.06770999
v 0.05643587 0.16560300 0.06770999
v -0.04681504 0.17885700 0.06770997
v -0.04945505 0.18057500 0.06770997
v 0.05543892 0.15516099 0.06770999
v 0.05856590 0.15554200 0.06770999
v -0.05139202 0.17026500 0.06770997
v -0.05429101 0.17149800 0.06770997
v 0.05577092 0.14543100 0.06770999
v 0.05891691 0.14526400 0.06770999
v -0.05440802 0.16100800 0.06770997
v -0.05747706 0.16171999 0.06770997
v 0.05747692 0.13507999 0.06770999
v 0.05440788 0.13579200 0.06770999
v -0.05891705 0.15153600 0.06770997
v -0.05577106 0.15136901 0.06770997
v 0.05429088 0.12530200 0.06770999
v 0.05139188 0.12653489 0.06770999
v -0.05856604 0.14125800 0.06770997
v -0.05543906 0.14163890 0.06770997
v 0.04945491 0.11622500 0.06770999
v 0.04681490 0.11794300 0.06770999
v -0.05643607 0.13119701 0.06770997
v -0.05342305 0.13211501 0.06770997
v 0.04311691 0.10812600 0.06770999
v 0.04081492 0.11027690 0.06770998
v -0.05259103 0.12165800 0.06770997
v -0.04978407 0.12308600 0.06770997
v 0.03546791 0.10125100 0.06770998
v 0.03357492 0.10376800 0.06770998
v -0.04714907 0.11293200 0.06770997
v -0.04463202 0.11482500 0.06770997
v 0.02674191 0.09580898 0.06770998
v 0.02531390 0.09861600 0.06770998
v -0.04027403 0.10528300 0.06770998
v -0.03812302 0.10758500 0.06770998
v 0.01720290 0.09196400 0.06770998
v 0.01628494 0.09497696 0.06770998
v -0.03217507 0.09894496 0.06770998
v -0.03045702 0.10158500 0.06770998
v 0.00714188 0.08983397 0.06770998
v 0.00676089 0.09296095 0.06770998
v -0.02309806 0.09410899 0.06770998
v -0.02186502 0.09700798 0.06770998
v -0.00313604 0.08948296 0.06770998
v -0.00296903 0.09262895 0.06770998
v -0.01332003 0.09092295 0.06770998
v -0.01260806 0.09399199 0.06770998
v -0.05259103 0.12165800 0.06770997
v -0.04714907 0.11293200 0.06770997
v -0.04714907 0.11293200 0.06920999
v -0.05259103 0.12165800 0.06920999
v -0.05643607 0.13119701 0.06770997
v -0.05643607 0.13119701 0.06920999
v -0.05856604 0.14125800 0.06770997
v -0.05856604 0.14125800 0.06920999
v -0.05891705 0.15153600 0.06770997
v -0.05891705 0.15153600 0.06920999
v -0.05747706 0.16171999 0.06770997
v -0.05747706 0.16171999 0.06920999
v -0.05429101 0.17149800 0.06770997
v -0.05429101 0.17149800 0.06920999
v -0.04945505 0.18057500 0.06770997
v -0.04945505 0.18057500 0.06920999
v -0.04311705 0.18867400 0.06770997
v -0.04311705 0.18867400 0.06920999
v -0.03546805 0.19554900 0.06770998
v -0.03546805 0.19554900 0.06920999
v -0.02674204 0.20099100 0.06770998
v -0.02674204 0.20099100 0.06920999
v -0.01720303 0.20483600 0.06770998
v -0.01720303 0.20483600 0.06920999
v -0.00714201 0.20696600 0.06770998
v -0.00714201 0.20696600 0.06920999
v 0.00313591 0.20731691 0.06770998
v 0.00313591 0.20731691 0.06920999
v 0.01331989 0.20587701 0.06770998
v 0.01331989 0.20587701 0.06920999
v 0.02309792 0.20269100 0.06770998
v 0.02309792 0.20269100 0.06920999
v 0.03217487 0.19785491 0.06770998
v 0.03217487 0.19785491 0.06920999
v 0.04027389 0.19151691 0.06770998
v 0.04027389 0.19151691 0.06920999
v 0.04714887 0.18386801 0.06770999
v 0.04714887 0.18386801 0.06921000
v 0.05259089 0.17514201 0.06770999
v 0.05259089 0.17514201 0.06921000
v 0.05643587 0.16560300 0.06770999
v 0.05643587 0.16560300 0.06921000
v 0.05856590 0.15554200 0.06770999
v 0.05856590 0.15554200 0.06921000
v 0.05891691 0.14526400 0.06770999
v 0.05891691 0.14526400 0.06921000
v 0.05747692 0.13507999 0.06770999
v 0.05747692 0.13507999 0.06921000
v 0.05429088 0.12530200 0.06770999
v 0.05429088 0.12530200 0.06921000
v 0.04945491 0.11622500 0.06770999
v 0.04945491 0.11622500 0.06921000
v 0.04311691 0.10812600 0.06770999
v 0.04311691 0.10812600 0.06921000
v 0.03546791 0.10125100 0.06770998
v 0.03546791 0.10125100 0.06920999
v 0.02674191 0.09580898 0.06770998
v 0.02674191 0.09580898 0.06920999
v 0.01720290 0.09196400 0.06770998
v 0.01720290 0.09196400 0.06920999
v 0.00714188 0.08983397 0.06770998
v 0.00714188 0.08983397 0.06920999
v -0.00313604 0.08948296 0.06770998
v -0.00313604 0.08948296 0.06920999
v -0.01332003 0.09092295 0.06770998
v -0.01332003 0.09092295 0.06920999
v -0.02309806 0.09410899 0.06770998
v -0.02309806 0.09410899 0.06920999
v -0.03217507 0.09894496 0.06770998
v -0.03217507 0.09894496 0.06920999
v -0.04027403 0.10528300 0.06770998
v -0.04027403 0.10528300 0.06920999
v -0.04714907 0.11293200 0.06770997
v -0.04714907 0.11293200 0.06920999
v -0.05672002 0.15141989 0.06920999
v -0.05747706 0.16171999 0.06920999
v -0.05891705 0.15153600 0.06920999
v -0.05533404 0.16122290 0.06920999
v -0.05226607 0.17063700 0.06920999
v -0.05429101 0.17149800 0.06920999
v -0.05638207 0.14152400 0.06920999
v -0.05856604 0.14125800 0.06920999
v -0.04761106 0.17937490 0.06920999
v -0.04945505 0.18057500 0.06920999
v -0.05433202 0.13183799 0.06920999
v -0.05643607 0.13119701 0.06920999
v -0.04150904 0.18717191 0.06920999
v -0.04311705 0.18867400 0.06920999
v -0.05063004 0.12265500 0.06920999
v -0.05259103 0.12165800 0.06920999
v -0.03414602 0.19379100 0.06920999
v -0.03546805 0.19554900 0.06920999
v -0.04539103 0.11425390 0.06920999
v -0.04714907 0.11293200 0.06920999
v -0.02574504 0.19903000 0.06920999
v -0.02674204 0.20099100 0.06920999
v -0.03877205 0.10689100 0.06920999
v -0.04027403 0.10528300 0.06920999
v -0.01656205 0.20273200 0.06920999
v -0.01720303 0.20483600 0.06920999
v -0.03097505 0.10078900 0.06920999
v -0.03217507 0.09894496 0.06920999
v -0.00687606 0.20478199 0.06920999
v -0.00714201 0.20696600 0.06920999
v -0.02223707 0.09613400 0.06920999
v -0.02309806 0.09410899 0.06920999
v 0.00301992 0.20512000 0.06920999
v 0.00313591 0.20731691 0.06920999
v -0.01282305 0.09306597 0.06920999
v -0.01332003 0.09092295 0.06920999
v 0.01331989 0.20587701 0.06920999
v 0.01282291 0.20373400 0.06920999
v -0.00313604 0.08948296 0.06920999
v -0.00302005 0.09167999 0.06920999
v 0.02309792 0.20269100 0.06920999
v 0.02223687 0.20066600 0.06920999
v 0.00714188 0.08983397 0.06920999
v 0.00687593 0.09201800 0.06920999
v 0.03217487 0.19785491 0.06920999
v 0.03097492 0.19601101 0.06920999
v 0.01720290 0.09196400 0.06920999
v 0.01656191 0.09406799 0.06920999
v 0.04027389 0.19151691 0.06920999
v 0.03877191 0.18990900 0.06920999
v 0.02674191 0.09580898 0.06920999
v 0.02574490 0.09776997 0.06920999
v 0.04714887 0.18386801 0.06921000
v 0.04539089 0.18254600 0.06921000
v 0.03546791 0.10125100 0.06920999
v 0.03414588 0.10300900 0.06920999
v 0.05259089 0.17514201 0.06921000
v 0.05062990 0.17414500 0.06921000
v 0.04311691 0.10812600 0.06921000
v 0.04150890 0.10962800 0.06920999
v 0.05643587 0.16560300 0.06921000
v 0.05433188 0.16496190 0.06921000
v 0.04945491 0.11622500 0.06921000
v 0.04761092 0.11742500 0.06921000
v 0.05856590 0.15554200 0.06921000
v 0.05638193 0.15527600 0.06921000
v 0.05429088 0.12530200 0.06921000
v 0.05226593 0.12616301 0.06921000
v 0.05891691 0.14526400 0.06921000
v 0.05671988 0.14538001 0.06921000
v 0.05747692 0.13507999 0.06921000
v 0.05533390 0.13557699 0.06921000
v -0.05063004 0.12265500 0.06920999
v -0.04539103 0.11425390 0.06920999
v -0.04530007 0.11432300 0.07570998
v -0.05052907 0.12270700 0.07570998
v -0.05433202 0.13183799 0.06920999
v -0.05422307 0.13187100 0.07570998
v -0.05638207 0.14152400 0.06920999
v -0.05627007 0.14153799 0.07570998
v -0.05672002 0.15141989 0.06920999
v -0.05660606 0.15141401 0.07570998
v -0.05533404 0.16122290 0.06920999
v -0.05522305 0.16119701 0.07570998
v -0.05226607 0.17063700 0.06920999
v -0.05216206 0.17059200 0.07570998
v -0.04761106 0.17937490 0.06920999
v -0.04751605 0.17931300 0.07570998
v -0.04150904 0.18717191 0.06920999
v -0.04142607 0.18709400 0.07570999
v -0.03414602 0.19379100 0.06920999
v -0.03407705 0.19370000 0.07570999
v -0.02574504 0.19903000 0.06920999
v -0.02569306 0.19892900 0.07570999
v -0.01656205 0.20273200 0.06920999
v -0.01652903 0.20262299 0.07570999
v -0.00687606 0.20478199 0.06920999
v -0.00686205 0.20467000 0.07570999
v 0.00301992 0.20512000 0.06920999
v 0.00301390 0.20500600 0.07570999
v 0.01282291 0.20373400 0.06920999
v 0.01279692 0.20362291 0.07570999
v 0.02223687 0.20066600 0.06920999
v 0.02219193 0.20056200 0.07570999
v 0.03097492 0.19601101 0.06920999
v 0.03091292 0.19591589 0.07570999
v 0.03877191 0.18990900 0.06920999
v 0.03869389 0.18982600 0.07570999
v 0.04539089 0.18254600 0.06921000
v 0.04529987 0.18247689 0.07571000
v 0.05062990 0.17414500 0.06921000
v 0.05052887 0.17409299 0.07571000
v 0.05433188 0.16496190 0.06921000
v 0.05422293 0.16492900 0.07571000
v 0.05638193 0.15527600 0.06921000
v 0.05626987 0.15526190 0.07571000
v 0.05671988 0.14538001 0.06921000
v 0.05660592 0.14538600 0.07571000
v 0.05533390 0.13557699 0.06921000
v 0.05522291 0.13560300 0.07571000
v 0.05226593 0.12616301 0.06921000
v 0.05216192 0.12620801 0.07571000
v 0.04761092 0.11742500 0.06921000
v 0.04751591 0.11748700 0.07571000
v 0.04150890 0.10962800 0.06920999
v 0.04142587 0.10970600 0.07570999
v 0.03414588 0.10300900 0.06920999
v 0.03407691 0.10310000 0.07570999
v 0.02574490 0.09776997 0.06920999
v 0.02569292 0.09787100 0.07570999
v 0.01656191 0.09406799 0.06920999
v 0.01652889 0.09417700 0.07570999
v 0.00687593 0.09201800 0.06920999
v 0.00686192 0.09213000 0.07570999
v -0.00302005 0.09167999 0.06920999
v -0.00301403 0.09179395 0.07570999
v -0.01282305 0.09306597 0.06920999
v -0.01279706 0.09317696 0.07570999
v -0.02223707 0.09613400 0.06920999
v -0.02219207 0.09623795 0.07570999
v -0.03097505 0.10078900 0.06920999
v -0.03091306 0.10088400 0.07570999
v -0.03877205 0.10689100 0.06920999
v -0.03869403 0.10697400 0.07570999
v -0.04539103 0.11425390 0.06920999
v -0.04530007 0.11432300 0.07570998
v -0.05570102 0.15136500 0.07570998
v -0.05522305 0.16119701 0.07570998
v -0.05660606 0.15141401 0.07570998
v -0.05434007 0.16099299 0.07570998
v -0.05132807 0.17023700 0.07570998
v -0.05216206 0.17059200 0.07570998
v -0.05537004 0.14164791 0.07570998
v -0.05627007 0.14153799 0.07570998
v -0.04675603 0.17881900 0.07570998
v -0.04751605 0.17931300 0.07570998
v -0.05335606 0.13213600 0.07570998
v -0.05422307 0.13187100 0.07570998
v -0.04076404 0.18647601 0.07570999
v -0.04142607 0.18709400 0.07570999
v -0.04972107 0.12311700 0.07570998
v -0.05052907 0.12270700 0.07570998
v -0.03353304 0.19297589 0.07570999
v -0.03407705 0.19370000 0.07570999
v -0.04457605 0.11486700 0.07570998
v -0.04530007 0.11432300 0.07570998
v -0.02528304 0.19812100 0.07570999
v -0.02569306 0.19892900 0.07570999
v -0.03807605 0.10763600 0.07570999
v -0.03869403 0.10697400 0.07570999
v -0.01626403 0.20175600 0.07570999
v -0.01652903 0.20262299 0.07570999
v -0.03041906 0.10164400 0.07570999
v -0.03091306 0.10088400 0.07570999
v -0.00675202 0.20377000 0.07570999
v -0.00686205 0.20467000 0.07570999
v -0.02183706 0.09707200 0.07570999
v -0.02219207 0.09623795 0.07570999
v 0.00296491 0.20410100 0.07570999
v 0.00301390 0.20500600 0.07570999
v -0.01259304 0.09406000 0.07570999
v -0.01279706 0.09317696 0.07570999
v 0.01279692 0.20362291 0.07570999
v 0.01259290 0.20274000 0.07570999
v -0.00301403 0.09179395 0.07570999
v -0.00296504 0.09269899 0.07570999
v 0.02219193 0.20056200 0.07570999
v 0.02183692 0.19972800 0.07570999
v 0.00686192 0.09213000 0.07570999
v 0.00675189 0.09302997 0.07570999
v 0.03091292 0.19591589 0.07570999
v 0.03041892 0.19515599 0.07570999
v 0.01652889 0.09417700 0.07570999
v 0.01626389 0.09504395 0.07570999
v 0.03869389 0.18982600 0.07570999
v 0.03807591 0.18916400 0.07570999
v 0.02569292 0.09787100 0.07570999
v 0.02528290 0.09867900 0.07570999
v 0.04529987 0.18247689 0.07571000
v 0.04457591 0.18193300 0.07571000
v 0.03407691 0.10310000 0.07570999
v 0.03353290 0.10382400 0.07570999
v 0.05052887 0.17409299 0.07571000
v 0.04972087 0.17368300 0.07571000
v 0.04142587 0.10970600 0.07570999
v 0.04076390 0.11032400 0.07570999
v 0.05422293 0.16492900 0.07571000
v 0.05335592 0.16466400 0.07571000
v 0.04751591 0.11748700 0.07571000
v 0.04675589 0.11798100 0.07571000
v 0.05626987 0.15526190 0.07571000
v 0.05536990 0.15515199 0.07571000
v 0.05216192 0.12620801 0.07571000
v 0.05132787 0.12656300 0.07571000
v 0.05660592 0.14538600 0.07571000
v 0.05570088 0.14543501 0.07571000
v 0.05522291 0.13560300 0.07571000
v 0.05433987 0.13580699 0.07571000
v -0.04978407 0.12308600 0.06770997
v -0.04457605 0.11486700 0.07570998
v -0.04463202 0.11482500 0.06770997
v -0.04972107 0.12311700 0.07570998
v -0.05342305 0.13211501 0.06770997
v -0.05335606 0.13213600 0.07570998
v -0.05543906 0.14163890 0.06770997
v -0.05537004 0.14164791 0.07570998
v -0.05577106 0.15136901 0.06770997
v -0.05570102 0.15136500 0.07570998
v -0.05440802 0.16100800 0.06770997
v -0.05434007 0.16099299 0.07570998
v -0.05139202 0.17026500 0.06770997
v -0.05132807 0.17023700 0.07570998
v -0.04681504 0.17885700 0.06770997
v -0.04675603 0.17881900 0.07570998
v -0.04081506 0.18652301 0.06770998
v -0.04076404 0.18647601 0.07570999
v -0.03357506 0.19303200 0.06770998
v -0.03353304 0.19297589 0.07570999
v -0.02531403 0.19818400 0.06770998
v -0.02528304 0.19812100 0.07570999
v -0.01628507 0.20182291 0.06770998
v -0.01626403 0.20175600 0.07570999
v -0.00676102 0.20383900 0.06770998
v -0.00675202 0.20377000 0.07570999
v 0.00296890 0.20417100 0.06770998
v 0.00296491 0.20410100 0.07570999
v 0.01260792 0.20280799 0.06770998
v 0.01259290 0.20274000 0.07570999
v 0.02186488 0.19979200 0.06770998
v 0.02183692 0.19972800 0.07570999
v 0.03045690 0.19521500 0.06770998
v 0.03041892 0.19515599 0.07570999
v 0.03812288 0.18921500 0.06770998
v 0.03807591 0.18916400 0.07570999
v 0.04463188 0.18197501 0.06770999
v 0.04457591 0.18193300 0.07571000
v 0.04978387 0.17371400 0.06770999
v 0.04972087 0.17368300 0.07571000
v 0.05342291 0.16468500 0.06770999
v 0.05335592 0.16466400 0.07571000
v 0.05543892 0.15516099 0.06770999
v 0.05536990 0.15515199 0.07571000
v 0.05577092 0.14543100 0.06770999
v 0.05570088 0.14543501 0.07571000
v 0.05440788 0.13579200 0.06770999
v 0.05433987 0.13580699 0.07571000
v 0.05139188 0.12653489 0.06770999
v 0.05132787 0.12656300 0.07571000
v 0.04681490 0.11794300 0.06770999
v 0.04675589 0.11798100 0.07571000
v 0.04081492 0.11027690 0.06770998
v 0.04076390 0.11032400 0.07570999
v 0.03357492 0.10376800 0.06770998
v 0.03353290 0.10382400 0.07570999
v 0.02531390 0.09861600 0.06770998
v 0.02528290 0.09867900 0.07570999
v 0.01628494 0.09497696 0.06770998
v 0.01626389 0.09504395 0.07570999
v 0.00676089 0.09296095 0.06770998
v 0.00675189 0.09302997 0.07570999
v -0.00296903 0.09262895 0.06770998
v -0.00296504 0.09269899 0.07570999
v -0.01260806 0.09399199 0.06770998
v -0.01259304 0.09406000 0.07570999
v -0.02183706 0.09707200 0.07570999
v -0.02186502 0.09700798 0.06770998
v -0.03045702 0.10158500 0.06770998
v -0.03041906 0.10164400 0.07570999
v -0.03812302 0.10758500 0.06770998
v -0.03807605 0.10763600 0.07570999
v -0.04463202 0.11482500 0.06770997
v -0.04457605 0.11486700 0.07570998
v -0.04184406 0.08209997 0.56278199
v -0.04249011 0.08209997 0.57015997
v -0.04238509 0.08809995 0.57015997
v -0.04174106 0.08809995 0.56279999
v -0.03992806 0.08209997 0.55562800
v -0.03982906 0.08809995 0.55566287
v -0.03679709 0.08209997 0.54891503
v -0.03670709 0.08809995 0.54896700
v -0.03254907 0.08209997 0.54284787
v -0.03246908 0.08809995 0.54291493
v -0.02731209 0.08209997 0.53761101
v -0.02724509 0.08809995 0.53769088
v -0.02124511 0.08209997 0.53336293
v -0.02119307 0.08809995 0.53345293
v -0.01453207 0.08209997 0.53023303
v -0.01449709 0.08809995 0.53033102
v -0.00737809 0.08209997 0.52831602
v -0.00736009 0.08809995 0.52841902
v -0.00000005 0.08209997 0.52767003
v -0.00000005 0.08809995 0.52777499
v 0.00737788 0.08209997 0.52831602
v 0.00735987 0.08809995 0.52841902
v 0.01453186 0.08209997 0.53023303
v 0.01449687 0.08809995 0.53033102
v 0.02124489 0.08209997 0.53336293
v 0.02119285 0.08809995 0.53345293
v 0.02731187 0.08209997 0.53761101
v 0.02724487 0.08809995 0.53769088
v 0.03254885 0.08209997 0.54284787
v 0.03246886 0.08809995 0.54291493
v 0.03679687 0.08209997 0.54891503
v 0.03670687 0.08809995 0.54896700
v 0.03992784 0.08209997 0.55562800
v 0.03982884 0.08809995 0.55566287
v 0.04184384 0.08209997 0.56278199
v 0.04174084 0.08809995 0.56279999
v 0.04248983 0.08209997 0.57015997
v 0.04238487 0.08809995 0.57015997
v 0.04184384 0.08209997 0.57753801
v 0.04174084 0.08809995 0.57752001
v 0.03992784 0.08209997 0.58469200
v 0.03982884 0.08809995 0.58465701
v 0.03679687 0.08209997 0.59140497
v 0.03670687 0.08809995 0.59135300
v 0.03254885 0.08209997 0.59747201
v 0.03246886 0.08809995 0.59740502
v 0.02731187 0.08209997 0.60270900
v 0.02724487 0.08809995 0.60262901
v 0.02124489 0.08209997 0.60695702
v 0.02119285 0.08809995 0.60686702
v 0.01453186 0.08209997 0.61008787
v 0.01449687 0.08809995 0.60998899
v 0.00737787 0.08209997 0.61200398
v 0.00735987 0.08809995 0.61190099
v -0.00000005 0.08209997 0.61264998
v -0.00000005 0.08809995 0.61254501
v -0.00737809 0.08209997 0.61200398
v -0.00736009 0.08809995 0.61190099
v -0.01453207 0.08209997 0.61008787
v -0.01449709 0.08809995 0.60998899
v -0.02124511 0.08209997 0.60695702
v -0.02119307 0.08809995 0.60686702
v -0.02731209 0.08209997 0.60270900
v -0.02724509 0.08809995 0.60262901
v -0.03254907 0.08209997 0.59747201
v -0.03246908 0.08809995 0.59740502
v -0.03679709 0.08209997 0.59140497
v -0.03670709 0.08809995 0.59135300
v -0.03992806 0.08209997 0.58469200
v -0.03982906 0.08809995 0.58465701
v -0.04184406 0.08209997 0.57753801
v -0.04174106 0.08809995 0.57752001
v -0.04249011 0.08209997 0.57015997
v -0.04238509 0.08809995 0.57015997
v -0.04057406 0.08109998 0.56300598
v -0.04113911 0.08809995 0.57015997
v -0.04120009 0.08109998 0.57015997
v -0.04051410 0.08809995 0.56301600
v -0.03871511 0.08109998 0.55606902
v -0.03865807 0.08809995 0.55608988
v -0.03568010 0.08109998 0.54956001
v -0.03562711 0.08809995 0.54959100
v -0.03156106 0.08109998 0.54367697
v -0.03151409 0.08809995 0.54371601
v -0.02648310 0.08109998 0.53859901
v -0.02644406 0.08809995 0.53864592
v -0.02060007 0.08109998 0.53447992
v -0.02056907 0.08809995 0.53453302
v -0.01409106 0.08109998 0.53144503
v -0.01407008 0.08809995 0.53150201
v -0.00715409 0.08109998 0.52958602
v -0.00714408 0.08809995 0.52964598
v -0.00000005 0.08109998 0.52895987
v -0.00000005 0.08809995 0.52902102
v 0.00715388 0.08109998 0.52958602
v 0.00714387 0.08809995 0.52964598
v 0.01409084 0.08109998 0.53144503
v 0.01406986 0.08809995 0.53150201
v 0.02059985 0.08109998 0.53447992
v 0.02056885 0.08809995 0.53453302
v 0.02648288 0.08109998 0.53859901
v 0.02644384 0.08809995 0.53864592
v 0.03156084 0.08109998 0.54367697
v 0.03151387 0.08809995 0.54371601
v 0.03567988 0.08109998 0.54956001
v 0.03562683 0.08809995 0.54959100
v 0.03871483 0.08109998 0.55606902
v 0.03865785 0.08809995 0.55608988
v 0.04057384 0.08109998 0.56300598
v 0.04051388 0.08809995 0.56301600
v 0.04119987 0.08109998 0.57015997
v 0.04113883 0.08809995 0.57015997
v 0.04057384 0.08109998 0.57731402
v 0.04051388 0.08809995 0.57730401
v 0.03871483 0.08109998 0.58425099
v 0.03865785 0.08809995 0.58423001
v 0.03567988 0.08109998 0.59075987
v 0.03562683 0.08809995 0.59072888
v 0.03156084 0.08109998 0.59664297
v 0.03151387 0.08809995 0.59660387
v 0.02648288 0.08109998 0.60172099
v 0.02644384 0.08809995 0.60167402
v 0.02059985 0.08109998 0.60584003
v 0.02056885 0.08809995 0.60578698
v 0.01409084 0.08109998 0.60887498
v 0.01406986 0.08809995 0.60881799
v 0.00715387 0.08109998 0.61073393
v 0.00714386 0.08809995 0.61067402
v -0.00000005 0.08109998 0.61136001
v -0.00000005 0.08809995 0.61129898
v -0.00715410 0.08109998 0.61073393
v -0.00714409 0.08809995 0.61067402
v -0.01409106 0.08109998 0.60887498
v -0.01407008 0.08809995 0.60881799
v -0.02060007 0.08109998 0.60584003
v -0.02056907 0.08809995 0.60578698
v -0.02648310 0.08109998 0.60172099
v -0.02644406 0.08809995 0.60167402
v -0.03156106 0.08109998 0.59664297
v -0.03151409 0.08809995 0.59660387
v -0.03568010 0.08109998 0.59075987
v -0.03562711 0.08809995 0.59072888
v -0.03871511 0.08109998 0.58425099
v -0.03865807 0.08809995 0.58423001
v -0.04057406 0.08109998 0.57731402
v -0.04051410 0.08809995 0.57730401
v -0.04120009 0.08109998 0.57015997
v -0.04113911 0.08809995 0.57015997
v 0.02648288 0.08109998 0.53859901
v 0.02892489 0.08109998 0.53568798
v 0.03447187 0.08109998 0.54123503
v 0.03156084 0.08109998 0.54367697
v 0.03567988 0.08109998 0.54956001
v 0.03897083 0.08109998 0.54765987
v 0.02059985 0.08109998 0.53447992
v 0.02249986 0.08109998 0.53118902
v 0.03871483 0.08109998 0.55606902
v 0.04228586 0.08109998 0.55476898
v 0.01409084 0.08109998 0.53144503
v 0.01539088 0.08109998 0.52787387
v 0.04057384 0.08109998 0.56300598
v 0.04431588 0.08109998 0.56234592
v 0.00715388 0.08109998 0.52958602
v 0.00781388 0.08109998 0.52584392
v 0.04119987 0.08109998 0.57015997
v 0.04499984 0.08109998 0.57015997
v -0.00000005 0.08109998 0.52895987
v -0.00000005 0.08109998 0.52516001
v 0.04057384 0.08109998 0.57731402
v 0.04431588 0.08109998 0.57797402
v -0.00715409 0.08109998 0.52958602
v -0.00781409 0.08109998 0.52584392
v 0.03871483 0.08109998 0.58425099
v 0.04228586 0.08109998 0.58555102
v -0.01409106 0.08109998 0.53144503
v -0.01539110 0.08109998 0.52787387
v 0.03567988 0.08109998 0.59075987
v 0.03897083 0.08109998 0.59266001
v -0.02060007 0.08109998 0.53447992
v -0.02250008 0.08109998 0.53118902
v 0.03156084 0.08109998 0.59664297
v 0.03447187 0.08109998 0.59908497
v -0.02648310 0.08109998 0.53859901
v -0.02892511 0.08109998 0.53568798
v 0.02892489 0.08109998 0.60463202
v 0.02648288 0.08109998 0.60172099
v -0.03447209 0.08109998 0.54123503
v -0.03156106 0.08109998 0.54367697
v 0.02249986 0.08109998 0.60913092
v 0.02059985 0.08109998 0.60584003
v -0.03897111 0.08109998 0.54765987
v -0.03568010 0.08109998 0.54956001
v 0.01539088 0.08109998 0.61244601
v 0.01409084 0.08109998 0.60887498
v -0.04228608 0.08109998 0.55476898
v -0.03871511 0.08109998 0.55606902
v 0.00781388 0.08109998 0.61447603
v 0.00715387 0.08109998 0.61073393
v -0.04431610 0.08109998 0.56234592
v -0.04057406 0.08109998 0.56300598
v -0.00000005 0.08109998 0.61515993
v -0.00000005 0.08109998 0.61136001
v -0.04500006 0.08109998 0.57015997
v -0.04120009 0.08109998 0.57015997
v -0.00781410 0.08109998 0.61447603
v -0.00715410 0.08109998 0.61073393
v -0.04431610 0.08109998 0.57797402
v -0.04057406 0.08109998 0.57731402
v -0.01539110 0.08109998 0.61244601
v -0.01409106 0.08109998 0.60887498
v -0.04228608 0.08109998 0.58555102
v -0.03871511 0.08109998 0.58425099
v -0.02250008 0.08109998 0.60913092
v -0.02060007 0.08109998 0.60584003
v -0.03897111 0.08109998 0.59266001
v -0.03568010 0.08109998 0.59075987
v -0.02892511 0.08109998 0.60463202
v -0.02648310 0.08109998 0.60172099
v -0.03447209 0.08109998 0.59908497
v -0.03156106 0.08109998 0.59664297
v -0.04431610 0.08109998 0.56234592
v -0.04500006 0.08109998 0.57015997
v -0.04500006 0.08209997 0.57015997
v -0.04431610 0.08209997 0.56234592
v -0.04228608 0.08109998 0.55476898
v -0.04228608 0.08209997 0.55476898
v -0.03897111 0.08109998 0.54765987
v -0.03897111 0.08209997 0.54765987
v -0.03447209 0.08109998 0.54123503
v -0.03447209 0.08209997 0.54123503
v -0.02892511 0.08109998 0.53568798
v -0.02892511 0.08209997 0.53568798
v -0.02250008 0.08109998 0.53118902
v -0.02250008 0.08209997 0.53118902
v -0.01539110 0.08109998 0.52787387
v -0.01539110 0.08209997 0.52787387
v -0.00781409 0.08109998 0.52584392
v -0.00781409 0.08209997 0.52584392
v -0.00000005 0.08109998 0.52516001
v -0.00000005 0.08209997 0.52516001
v 0.00781388 0.08109998 0.52584392
v 0.00781388 0.08209997 0.52584392
v 0.01539088 0.08109998 0.52787387
v 0.01539088 0.08209997 0.52787387
v 0.02249986 0.08109998 0.53118902
v 0.02249986 0.08209997 0.53118902
v 0.02892489 0.08109998 0.53568798
v 0.02892489 0.08209997 0.53568798
v 0.03447187 0.08109998 0.54123503
v 0.03447187 0.08209997 0.54123503
v 0.03897083 0.08109998 0.54765987
v 0.03897083 0.08209997 0.54765987
v 0.04228586 0.08109998 0.55476898
v 0.04228586 0.08209997 0.55476898
v 0.04431588 0.08109998 0.56234592
v 0.04431588 0.08209997 0.56234592
v 0.04499984 0.08109998 0.57015997
v 0.04499984 0.08209997 0.57015997
v 0.04431588 0.08109998 0.57797402
v 0.04431588 0.08209997 0.57797402
v 0.04228586 0.08109998 0.58555102
v 0.04228586 0.08209997 0.58555102
v 0.03897083 0.08109998 0.59266001
v 0.03897083 0.08209997 0.59266001
v 0.03447187 0.08109998 0.59908497
v 0.03447187 0.08209997 0.59908497
v 0.02892489 0.08109998 0.60463202
v 0.02892489 0.08209997 0.60463202
v 0.02249986 0.08109998 0.60913092
v 0.02249986 0.08209997 0.60913092
v 0.01539088 0.08109998 0.61244601
v 0.01539088 0.08209997 0.61244601
v 0.00781388 0.08109998 0.61447603
v 0.00781388 0.08209997 0.61447603
v -0.00000005 0.08109998 0.61515993
v -0.00000005 0.08209997 0.61515993
v -0.00781410 0.08109998 0.61447603
v -0.00781410 0.08209997 0.61447603
v -0.01539110 0.08109998 0.61244601
v -0.01539110 0.08209997 0.61244601
v -0.02250008 0.08109998 0.60913092
v -0.02250008 0.08209997 0.60913092
v -0.02892511 0.08109998 0.60463202
v -0.02892511 0.08209997 0.60463202
v -0.03447209 0.08109998 0.59908497
v -0.03447209 0.08209997 0.59908497
v -0.03897111 0.08109998 0.59266001
v -0.03897111 0.08209997 0.59266001
v -0.04228608 0.08109998 0.58555102
v -0.04228608 0.08209997 0.58555102
v -0.04431610 0.08109998 0.57797402
v -0.04431610 0.08209997 0.57797402
v -0.04500006 0.08109998 0.57015997
v -0.04500006 0.08209997 0.57015997
v -0.03254907 0.08209997 0.54284787
v -0.02731811 0.08209997 0.53760302
v -0.03255706 0.08209997 0.54284197
v -0.02731209 0.08209997 0.53761101
v -0.02124511 0.08209997 0.53336293
v -0.02125011 0.08209997 0.53335398
v -0.03679709 0.08209997 0.54891503
v -0.03680609 0.08209997 0.54891002
v -0.01453207 0.08209997 0.53023303
v -0.01453607 0.08209997 0.53022301
v -0.03992806 0.08209997 0.55562800
v -0.03993706 0.08209997 0.55562401
v -0.00737809 0.08209997 0.52831602
v -0.00738005 0.08209997 0.52830601
v -0.04184406 0.08209997 0.56278199
v -0.04185407 0.08209997 0.56278002
v -0.00000005 0.08209997 0.52767003
v -0.00000005 0.08209997 0.52766001
v -0.04249011 0.08209997 0.57015997
v -0.04250006 0.08209997 0.57015997
v 0.00737788 0.08209997 0.52831602
v 0.00737984 0.08209997 0.52830601
v -0.04184406 0.08209997 0.57753801
v -0.04185407 0.08209997 0.57753998
v -0.03993706 0.08209997 0.58469599
v 0.01453186 0.08209997 0.53023303
v 0.01453585 0.08209997 0.53022301
v -0.03992806 0.08209997 0.58469200
v -0.03680609 0.08209997 0.59140998
v 0.02124489 0.08209997 0.53336293
v 0.02124984 0.08209997 0.53335398
v -0.03679709 0.08209997 0.59140497
v 0.02731187 0.08209997 0.53761101
v 0.02731789 0.08209997 0.53760302
v -0.03254907 0.08209997 0.59747201
v -0.03255706 0.08209997 0.59747797
v -0.02731811 0.08209997 0.60271698
v -0.02731209 0.08209997 0.60270900
v 0.03255684 0.08209997 0.54284197
v 0.03254885 0.08209997 0.54284787
v 0.03679687 0.08209997 0.54891503
v -0.02125011 0.08209997 0.60696602
v -0.02124511 0.08209997 0.60695702
v 0.03680587 0.08209997 0.54891002
v -0.01453607 0.08209997 0.61009699
v -0.01453207 0.08209997 0.61008787
v 0.03993685 0.08209997 0.55562401
v 0.03992784 0.08209997 0.55562800
v -0.00738006 0.08209997 0.61201400
v -0.00737809 0.08209997 0.61200398
v 0.04185385 0.08209997 0.56278002
v 0.04184384 0.08209997 0.56278199
v 0.04248983 0.08209997 0.57015997
v -0.00000005 0.08209997 0.61265999
v -0.00000005 0.08209997 0.61264998
v 0.04249984 0.08209997 0.57015997
v 0.00737984 0.08209997 0.61201400
v 0.00737787 0.08209997 0.61200398
v 0.04185385 0.08209997 0.57753998
v 0.04184384 0.08209997 0.57753801
v 0.01453585 0.08209997 0.61009699
v 0.01453186 0.08209997 0.61008787
v 0.03993685 0.08209997 0.58469599
v 0.03992784 0.08209997 0.58469200
v 0.03679687 0.08209997 0.59140497
v 0.02124984 0.08209997 0.60696602
v 0.02124489 0.08209997 0.60695702
v 0.03680587 0.08209997 0.59140998
v 0.02731789 0.08209997 0.60271698
v 0.02731187 0.08209997 0.60270900
v 0.03255684 0.08209997 0.59747797
v 0.03254885 0.08209997 0.59747201
v 0.02296884 0.11419700 0.51981002
v 0.02508784 0.11104200 0.51981002
v 0.03119387 0.11596600 0.51981002
v 0.02855886 0.11870500 0.51981002
v 0.03328187 0.12411500 0.51981002
v 0.03635187 0.12187600 0.51981002
v 0.01668085 0.11072800 0.51981002
v 0.01821889 0.10725300 0.51981002
v 0.03699286 0.13026400 0.51981002
v 0.04040486 0.12859100 0.51981002
v 0.00988586 0.10840400 0.51981002
v 0.01079685 0.10471500 0.51981002
v 0.03958090 0.13696299 0.51981002
v 0.04323085 0.13590799 0.51981002
v 0.00278987 0.10729500 0.51981002
v 0.00304784 0.10350300 0.51981002
v 0.04096486 0.14401001 0.51981002
v 0.04474385 0.14360490 0.51981002
v -0.00439011 0.10743500 0.51981002
v -0.00479506 0.10365600 0.51981002
v 0.04110486 0.15119000 0.51981002
v 0.04489686 0.15144800 0.51981002
v -0.01143710 0.10881900 0.51981002
v -0.01249211 0.10516890 0.51981002
v 0.03999586 0.15828601 0.51981002
v 0.04368484 0.15919700 0.51981002
v -0.01813607 0.11140700 0.51981002
v -0.01980910 0.10799500 0.51981002
v 0.03767188 0.16508099 0.51981002
v 0.04114689 0.16661900 0.51981002
v -0.02428505 0.11511800 0.51981002
v -0.02652410 0.11204800 0.51981002
v 0.03420288 0.17136900 0.51981002
v 0.03735787 0.17348801 0.51981002
v -0.02969508 0.11984100 0.51981002
v -0.03243408 0.11720600 0.51981002
v 0.03243387 0.17959400 0.51981002
v 0.02969486 0.17695899 0.51981002
v -0.03735809 0.12331190 0.51981002
v -0.03420309 0.12543100 0.51981002
v 0.02652384 0.18475200 0.51981002
v 0.02428485 0.18168201 0.51981002
v -0.04114709 0.13018100 0.51981002
v -0.03767208 0.13171890 0.51981002
v 0.01980883 0.18880500 0.51981002
v 0.01813585 0.18539301 0.51981002
v -0.04368506 0.13760300 0.51981002
v -0.03999607 0.13851400 0.51981002
v 0.01249189 0.19163100 0.51981002
v 0.01143688 0.18798099 0.51981002
v -0.04489705 0.14535201 0.51981002
v -0.04110507 0.14561000 0.51981002
v 0.00479485 0.19314399 0.51981002
v 0.00438984 0.18936500 0.51981002
v -0.04474406 0.15319499 0.51981002
v -0.04096507 0.15279000 0.51981002
v -0.00304811 0.19329700 0.51981002
v -0.00279008 0.18950500 0.51981002
v -0.04323106 0.16089199 0.51981002
v -0.03958111 0.15983699 0.51981002
v -0.01079707 0.19208500 0.51981002
v -0.00988607 0.18839601 0.51981002
v -0.04040508 0.16820900 0.51981002
v -0.03699306 0.16653600 0.51981002
v -0.01821909 0.18954700 0.51981002
v -0.01668105 0.18607201 0.51981002
v -0.03635208 0.17492400 0.51981002
v -0.03328209 0.17268500 0.51981002
v -0.02508806 0.18575791 0.51981002
v -0.02296910 0.18260300 0.51981002
v -0.03119407 0.18083391 0.51981002
v -0.02855906 0.17809500 0.51981002
v -0.04489705 0.14535201 0.51981002
v -0.04474406 0.15319499 0.51981002
v -0.04474406 0.15319499 0.51880997
v -0.04489705 0.14535201 0.51880997
v -0.04368506 0.13760300 0.51981002
v -0.04368506 0.13760300 0.51880997
v -0.04114709 0.13018100 0.51981002
v -0.04114709 0.13018100 0.51880997
v -0.03735809 0.12331190 0.51981002
v -0.03735809 0.12331190 0.51880997
v -0.03243408 0.11720600 0.51981002
v -0.03243408 0.11720600 0.51880997
v -0.02652410 0.11204800 0.51981002
v -0.02652410 0.11204800 0.51880997
v -0.01980910 0.10799500 0.51981002
v -0.01980910 0.10799500 0.51880997
v -0.01249211 0.10516890 0.51981002
v -0.01249211 0.10516890 0.51880997
v -0.00479506 0.10365600 0.51981002
v -0.00479506 0.10365600 0.51880997
v 0.00304784 0.10350300 0.51981002
v 0.00304784 0.10350300 0.51880997
v 0.01079685 0.10471500 0.51981002
v 0.01079685 0.10471500 0.51880997
v 0.01821889 0.10725300 0.51981002
v 0.01821889 0.10725300 0.51880997
v 0.02508784 0.11104200 0.51981002
v 0.02508784 0.11104200 0.51880997
v 0.03119387 0.11596600 0.51981002
v 0.03119387 0.11596600 0.51880997
v 0.03635187 0.12187600 0.51981002
v 0.03635187 0.12187600 0.51880997
v 0.04040486 0.12859100 0.51981002
v 0.04040486 0.12859100 0.51880997
v 0.04323085 0.13590799 0.51981002
v 0.04323085 0.13590799 0.51880997
v 0.04474385 0.14360490 0.51981002
v 0.04474385 0.14360490 0.51880997
v 0.04489686 0.15144800 0.51981002
v 0.04489686 0.15144800 0.51880997
v 0.04368484 0.15919700 0.51981002
v 0.04368484 0.15919700 0.51880997
v 0.04114689 0.16661900 0.51981002
v 0.04114689 0.16661900 0.51880997
v 0.03735787 0.17348801 0.51981002
v 0.03735787 0.17348801 0.51880997
v 0.03243387 0.17959400 0.51981002
v 0.03243387 0.17959400 0.51880997
v 0.02652384 0.18475200 0.51981002
v 0.02652384 0.18475200 0.51880997
v 0.01980883 0.18880500 0.51981002
v 0.01980883 0.18880500 0.51880997
v 0.01249189 0.19163100 0.51981002
v 0.01249189 0.19163100 0.51880997
v 0.00479485 0.19314399 0.51981002
v 0.00479485 0.19314399 0.51880997
v -0.00304811 0.19329700 0.51981002
v -0.00304811 0.19329700 0.51880997
v -0.01079707 0.19208500 0.51981002
v -0.01079707 0.19208500 0.51880997
v -0.01821909 0.18954700 0.51981002
v -0.01821909 0.18954700 0.51880997
v -0.02508806 0.18575791 0.51981002
v -0.02508806 0.18575791 0.51880997
v -0.03119407 0.18083391 0.51981002
v -0.03119407 0.18083391 0.51880997
v -0.03635208 0.17492400 0.51981002
v -0.03635208 0.17492400 0.51880997
v -0.04040508 0.16820900 0.51981002
v -0.04040508 0.16820900 0.51880997
v -0.04323106 0.16089199 0.51981002
v -0.04323106 0.16089199 0.51880997
v -0.04474406 0.15319499 0.51981002
v -0.04474406 0.15319499 0.51880997
v -0.03527407 0.12471200 0.51880997
v -0.03243408 0.11720600 0.51880997
v -0.03735809 0.12331190 0.51880997
v -0.03062508 0.11894600 0.51880997
v -0.02504507 0.11407600 0.51880997
v -0.02652410 0.11204800 0.51880997
v -0.03885207 0.13119701 0.51880997
v -0.04114709 0.13018100 0.51880997
v -0.01870409 0.11024800 0.51880997
v -0.01980910 0.10799500 0.51880997
v -0.04124907 0.13820490 0.51880997
v -0.04368506 0.13760300 0.51880997
v -0.01179509 0.10758000 0.51880997
v -0.01249211 0.10516890 0.51880997
v -0.04239206 0.14552189 0.51880997
v -0.04489705 0.14535201 0.51880997
v -0.00452809 0.10615190 0.51880997
v -0.00479506 0.10365600 0.51880997
v -0.04224806 0.15292791 0.51880997
v -0.04474406 0.15319499 0.51880997
v 0.00287785 0.10600800 0.51880997
v 0.00304784 0.10350300 0.51880997
v -0.04082010 0.16019490 0.51880997
v -0.04323106 0.16089199 0.51880997
v 0.01019484 0.10715100 0.51880997
v 0.01079685 0.10471500 0.51880997
v -0.03815208 0.16710401 0.51880997
v -0.04040508 0.16820900 0.51880997
v 0.01720287 0.10954800 0.51880997
v 0.01821889 0.10725300 0.51880997
v -0.03432408 0.17344500 0.51880997
v -0.03635208 0.17492400 0.51880997
v 0.02368785 0.11312600 0.51880997
v 0.02508784 0.11104200 0.51880997
v -0.02945410 0.17902490 0.51880997
v -0.03119407 0.18083391 0.51880997
v 0.03119387 0.11596600 0.51880997
v 0.02945388 0.11777500 0.51880997
v -0.02508806 0.18575791 0.51880997
v -0.02368806 0.18367399 0.51880997
v 0.03635187 0.12187600 0.51880997
v 0.03432389 0.12335500 0.51880997
v -0.01821909 0.18954700 0.51880997
v -0.01720307 0.18725200 0.51880997
v 0.04040486 0.12859100 0.51880997
v 0.03815186 0.12969600 0.51880997
v -0.01079707 0.19208500 0.51880997
v -0.01019506 0.18964900 0.51880997
v 0.04323085 0.13590799 0.51880997
v 0.04081983 0.13660499 0.51880997
v -0.00304811 0.19329700 0.51880997
v -0.00287806 0.19079199 0.51880997
v 0.04474385 0.14360490 0.51880997
v 0.04224785 0.14387199 0.51880997
v 0.00479485 0.19314399 0.51880997
v 0.00452788 0.19064800 0.51880997
v 0.04489686 0.15144800 0.51880997
v 0.04239184 0.15127800 0.51880997
v 0.01249189 0.19163100 0.51880997
v 0.01179487 0.18922000 0.51880997
v 0.04368484 0.15919700 0.51880997
v 0.04124887 0.15859500 0.51880997
v 0.01980883 0.18880500 0.51880997
v 0.01870389 0.18655200 0.51880997
v 0.04114689 0.16661900 0.51880997
v 0.03885186 0.16560300 0.51880997
v 0.02652384 0.18475200 0.51880997
v 0.02504487 0.18272389 0.51880997
v 0.03735787 0.17348801 0.51880997
v 0.03527385 0.17208800 0.51880997
v 0.03243387 0.17959400 0.51880997
v 0.03062488 0.17785400 0.51880997
v -0.04239206 0.14552189 0.51880997
v -0.04224806 0.15292791 0.51880997
v -0.04212705 0.15291400 0.51181000
v -0.04227106 0.14553089 0.51181000
v -0.04124907 0.13820490 0.51880997
v -0.04113010 0.13823400 0.51181000
v -0.03885207 0.13119701 0.51880997
v -0.03874008 0.13124600 0.51181000
v -0.03527407 0.12471200 0.51880997
v -0.03517310 0.12477990 0.51181000
v -0.03062508 0.11894600 0.51880997
v -0.03053710 0.11903100 0.51181000
v -0.02504507 0.11407600 0.51880997
v -0.02497307 0.11417500 0.51181000
v -0.01870409 0.11024800 0.51880997
v -0.01865009 0.11035790 0.51181000
v -0.01179509 0.10758000 0.51880997
v -0.01176105 0.10769700 0.51181000
v -0.00452809 0.10615190 0.51880997
v -0.00451408 0.10627300 0.51181000
v 0.00287785 0.10600800 0.51880997
v 0.00286885 0.10612900 0.51181000
v 0.01019484 0.10715100 0.51880997
v 0.01016587 0.10727000 0.51181000
v 0.01720287 0.10954800 0.51880997
v 0.01715386 0.10966000 0.51181000
v 0.02368785 0.11312600 0.51880997
v 0.02361985 0.11322700 0.51181000
v 0.02945388 0.11777500 0.51880997
v 0.02936888 0.11786290 0.51181000
v 0.03432389 0.12335500 0.51880997
v 0.03422488 0.12342700 0.51181000
v 0.03815186 0.12969600 0.51880997
v 0.03804183 0.12975000 0.51181000
v 0.04081983 0.13660499 0.51880997
v 0.04070289 0.13663889 0.51181000
v 0.04224785 0.14387199 0.51880997
v 0.04212685 0.14388600 0.51181000
v 0.04239184 0.15127800 0.51880997
v 0.04227085 0.15126900 0.51181000
v 0.04124887 0.15859500 0.51880997
v 0.04112983 0.15856589 0.51181000
v 0.03885186 0.16560300 0.51880997
v 0.03873986 0.16555400 0.51181000
v 0.03527385 0.17208800 0.51880997
v 0.03517289 0.17202000 0.51181000
v 0.03062488 0.17785400 0.51880997
v 0.03053685 0.17776901 0.51181000
v 0.02504487 0.18272389 0.51880997
v 0.02497287 0.18262491 0.51181000
v 0.01870389 0.18655200 0.51880997
v 0.01864989 0.18644200 0.51181000
v 0.01179487 0.18922000 0.51880997
v 0.01176084 0.18910301 0.51181000
v 0.00452788 0.19064800 0.51880997
v 0.00451387 0.19052701 0.51181000
v -0.00287806 0.19079199 0.51880997
v -0.00286905 0.19067100 0.51181000
v -0.01019506 0.18964900 0.51880997
v -0.01016608 0.18953000 0.51181000
v -0.01720307 0.18725200 0.51880997
v -0.01715408 0.18714000 0.51181000
v -0.02368806 0.18367399 0.51880997
v -0.02362010 0.18357299 0.51181000
v -0.02945410 0.17902490 0.51880997
v -0.02936910 0.17893700 0.51181000
v -0.03432408 0.17344500 0.51880997
v -0.03422508 0.17337300 0.51181000
v -0.03815208 0.16710401 0.51880997
v -0.03804211 0.16705000 0.51181000
v -0.04082010 0.16019490 0.51880997
v -0.04070310 0.16016100 0.51181000
v -0.04224806 0.15292791 0.51880997
v -0.04212705 0.15291400 0.51181000
v -0.03414509 0.12547000 0.51181000
v -0.03053710 0.11903100 0.51181000
v -0.03517310 0.12477990 0.51181000
v -0.02964506 0.11988900 0.51181000
v -0.02424309 0.11517400 0.51181000
v -0.02497307 0.11417500 0.51181000
v -0.03760806 0.13174701 0.51181000
v -0.03874008 0.13124600 0.51181000
v -0.01810608 0.11146900 0.51181000
v -0.01865009 0.11035790 0.51181000
v -0.03992907 0.13853100 0.51181000
v -0.04113010 0.13823400 0.51181000
v -0.01141808 0.10888600 0.51181000
v -0.01176105 0.10769700 0.51181000
v -0.04103604 0.14561500 0.51181000
v -0.04227106 0.14553089 0.51181000
v -0.00438307 0.10750400 0.51181000
v -0.00451408 0.10627300 0.51181000
v -0.04089610 0.15278301 0.51181000
v -0.04212705 0.15291400 0.51181000
v 0.00278486 0.10736390 0.51181000
v 0.00286885 0.10612900 0.51181000
v -0.03951411 0.15981790 0.51181000
v -0.04070310 0.16016100 0.51181000
v 0.00986887 0.10847100 0.51181000
v 0.01016587 0.10727000 0.51181000
v -0.03693108 0.16650590 0.51181000
v -0.03804211 0.16705000 0.51181000
v 0.01665290 0.11079200 0.51181000
v 0.01715386 0.10966000 0.51181000
v -0.03322605 0.17264301 0.51181000
v -0.03422508 0.17337300 0.51181000
v 0.02292985 0.11425500 0.51181000
v 0.02361985 0.11322700 0.51181000
v -0.02851108 0.17804500 0.51181000
v -0.02936910 0.17893700 0.51181000
v 0.02936888 0.11786290 0.51181000
v 0.02851088 0.11875500 0.51181000
v -0.02362010 0.18357299 0.51181000
v -0.02293007 0.18254501 0.51181000
v 0.03422488 0.12342700 0.51181000
v 0.03322585 0.12415700 0.51181000
v -0.01715408 0.18714000 0.51181000
v -0.01665311 0.18600801 0.51181000
v 0.03804183 0.12975000 0.51181000
v 0.03693087 0.13029400 0.51181000
v -0.01016608 0.18953000 0.51181000
v -0.00986908 0.18832900 0.51181000
v 0.04070289 0.13663889 0.51181000
v 0.03951383 0.13698199 0.51181000
v -0.00286905 0.19067100 0.51181000
v -0.00278507 0.18943600 0.51181000
v 0.04212685 0.14388600 0.51181000
v 0.04089589 0.14401700 0.51181000
v 0.00451387 0.19052701 0.51181000
v 0.00438286 0.18929601 0.51181000
v 0.04227085 0.15126900 0.51181000
v 0.04103585 0.15118501 0.51181000
v 0.01176084 0.18910301 0.51181000
v 0.01141788 0.18791400 0.51181000
v 0.04112983 0.15856589 0.51181000
v 0.03992886 0.15826900 0.51181000
v 0.01864989 0.18644200 0.51181000
v 0.01810588 0.18533100 0.51181000
v 0.03873986 0.16555400 0.51181000
v 0.03760786 0.16505300 0.51181000
v 0.02497287 0.18262491 0.51181000
v 0.02424289 0.18162601 0.51181000
v 0.03517289 0.17202000 0.51181000
v 0.03414489 0.17133000 0.51181000
v 0.03053685 0.17776901 0.51181000
v 0.02964485 0.17691091 0.51181000
v -0.04110507 0.14561000 0.51981002
v -0.04089610 0.15278301 0.51181000
v -0.04096507 0.15279000 0.51981002
v -0.04103604 0.14561500 0.51181000
v -0.03999607 0.13851400 0.51981002
v -0.03992907 0.13853100 0.51181000
v -0.03767208 0.13171890 0.51981002
v -0.03760806 0.13174701 0.51181000
v -0.03420309 0.12543100 0.51981002
v -0.03414509 0.12547000 0.51181000
v -0.02969508 0.11984100 0.51981002
v -0.02964506 0.11988900 0.51181000
v -0.02428505 0.11511800 0.51981002
v -0.02424309 0.11517400 0.51181000
v -0.01813607 0.11140700 0.51981002
v -0.01810608 0.11146900 0.51181000
v -0.01143710 0.10881900 0.51981002
v -0.01141808 0.10888600 0.51181000
v -0.00439011 0.10743500 0.51981002
v -0.00438307 0.10750400 0.51181000
v 0.00278987 0.10729500 0.51981002
v 0.00278486 0.10736390 0.51181000
v 0.00988586 0.10840400 0.51981002
v 0.00986887 0.10847100 0.51181000
v 0.01668085 0.11072800 0.51981002
v 0.01665290 0.11079200 0.51181000
v 0.02296884 0.11419700 0.51981002
v 0.02292985 0.11425500 0.51181000
v 0.02855886 0.11870500 0.51981002
v 0.02851088 0.11875500 0.51181000
v 0.03328187 0.12411500 0.51981002
v 0.03322585 0.12415700 0.51181000
v 0.03699286 0.13026400 0.51981002
v 0.03693087 0.13029400 0.51181000
v 0.03958090 0.13696299 0.51981002
v 0.03951383 0.13698199 0.51181000
v 0.04096486 0.14401001 0.51981002
v 0.04089589 0.14401700 0.51181000
v 0.04110486 0.15119000 0.51981002
v 0.04103585 0.15118501 0.51181000
v 0.03999586 0.15828601 0.51981002
v 0.03992886 0.15826900 0.51181000
v 0.03767188 0.16508099 0.51981002
v 0.03760786 0.16505300 0.51181000
v 0.03420288 0.17136900 0.51981002
v 0.03414489 0.17133000 0.51181000
v 0.02969486 0.17695899 0.51981002
v 0.02964485 0.17691091 0.51181000
v 0.02428485 0.18168201 0.51981002
v 0.02424289 0.18162601 0.51181000
v 0.01813585 0.18539301 0.51981002
v 0.01810588 0.18533100 0.51181000
v 0.01143688 0.18798099 0.51981002
v 0.01141788 0.18791400 0.51181000
v 0.00438984 0.18936500 0.51981002
v 0.00438286 0.18929601 0.51181000
v -0.00279008 0.18950500 0.51981002
v -0.00278507 0.18943600 0.51181000
v -0.00988607 0.18839601 0.51981002
v -0.00986908 0.18832900 0.51181000
v -0.01668105 0.18607201 0.51981002
v -0.01665311 0.18600801 0.51181000
v -0.02296910 0.18260300 0.51981002
v -0.02293007 0.18254501 0.51181000
v -0.02855906 0.17809500 0.51981002
v -0.02851108 0.17804500 0.51181000
v -0.03328209 0.17268500 0.51981002
v -0.03322605 0.17264301 0.51181000
v -0.03699306 0.16653600 0.51981002
v -0.03693108 0.16650590 0.51181000
v -0.03958111 0.15983699 0.51981002
v -0.03951411 0.15981790 0.51181000
v -0.04096507 0.15279000 0.51981002
v -0.04089610 0.15278301 0.51181000
f 1 2 3
f 1 3 4
f 5 3 6
f 5 4 3
f 7 8 2
f 7 2 1
f 9 6 10
f 9 5 6
f 11 12 8
f 11 8 7
f 13 10 14
f 13 9 10
f 15 16 12
f 15 12 11
f 17 14 18
f 17 13 14
f 19 20 16
f 19 16 15
f 21 17 18
f 21 18 22
f 23 20 19
f 23 24 20
f 25 21 22
f 25 22 26
f 27 28 24
f 27 24 23
f 29 25 26
f 29 26 30
f 31 32 28
f 31 28 27
f 33 30 34
f 33 29 30
f 35 36 32
f 35 32 31
f 37 33 34
f 37 38 33
f 39 36 35
f 39 35 40
f 41 38 37
f 41 42 38
f 43 40 44
f 43 39 40
f 45 42 41
f 45 46 42
f 47 44 48
f 47 43 44
f 49 46 45
f 49 50 46
f 51 48 52
f 51 47 48
f 53 54 50
f 53 50 49
f 55 52 56
f 55 51 52
f 57 54 53
f 57 58 54
f 59 56 60
f 59 55 56
f 61 58 57
f 61 62 58
f 63 60 64
f 63 59 60
f 65 66 62
f 65 62 61
f 67 63 64
f 67 64 68
f 69 66 65
f 69 70 66
f 71 67 68
f 71 70 69
f 71 72 70
f 71 68 72
f 73 74 75
f 73 75 76
f 77 76 78
f 77 73 76
f 79 78 80
f 79 77 78
f 81 80 82
f 81 79 80
f 83 82 84
f 83 81 82
f 85 83 84
f 85 84 86
f 87 85 86
f 87 86 88
f 89 87 88
f 89 88 90
f 91 89 90
f 91 90 92
f 93 91 92
f 93 92 94
f 95 93 94
f 95 94 96
f 97 95 96
f 97 96 98
f 99 97 98
f 99 98 100
f 101 99 100
f 101 100 102
f 103 101 102
f 103 102 104
f 105 103 104
f 105 104 106
f 107 105 106
f 107 106 108
f 109 107 108
f 109 108 110
f 111 109 110
f 111 110 112
f 113 111 112
f 113 112 114
f 115 114 116
f 115 113 114
f 117 116 118
f 117 115 116
f 119 118 120
f 119 117 118
f 121 120 122
f 121 119 120
f 123 122 124
f 123 121 122
f 125 124 126
f 125 123 124
f 127 126 128
f 127 125 126
f 129 128 130
f 129 127 128
f 131 130 132
f 131 129 130
f 133 132 134
f 133 131 132
f 135 133 134
f 135 134 136
f 137 135 136
f 137 136 138
f 139 137 138
f 139 138 140
f 141 139 140
f 141 140 142
f 143 141 142
f 143 142 144
f 145 143 144
f 145 144 146
f 147 148 149
f 147 150 148
f 151 152 148
f 151 148 150
f 153 149 154
f 153 147 149
f 155 156 152
f 155 152 151
f 157 154 158
f 157 153 154
f 159 160 156
f 159 156 155
f 161 158 162
f 161 157 158
f 163 164 160
f 163 160 159
f 165 162 166
f 165 161 162
f 167 164 163
f 167 168 164
f 169 165 166
f 169 166 170
f 171 172 168
f 171 168 167
f 173 169 170
f 173 170 174
f 175 176 172
f 175 172 171
f 177 173 174
f 177 174 178
f 179 180 176
f 179 176 175
f 181 177 178
f 181 178 182
f 183 180 179
f 183 179 184
f 185 181 182
f 185 186 181
f 187 184 188
f 187 183 184
f 189 190 186
f 189 186 185
f 191 187 188
f 191 188 192
f 193 190 189
f 193 194 190
f 195 192 196
f 195 191 192
f 197 194 193
f 197 198 194
f 199 196 200
f 199 195 196
f 201 202 198
f 201 198 197
f 203 199 200
f 203 200 204
f 205 206 202
f 205 202 201
f 207 203 204
f 207 204 208
f 209 210 206
f 209 206 205
f 211 208 212
f 211 207 208
f 213 210 209
f 213 214 210
f 215 211 212
f 215 212 216
f 217 214 213
f 217 215 216
f 217 216 218
f 217 218 214
f 219 220 221
f 219 221 222
f 223 222 224
f 223 219 222
f 225 224 226
f 225 223 224
f 227 226 228
f 227 225 226
f 229 228 230
f 229 227 228
f 231 230 232
f 231 229 230
f 233 231 232
f 233 232 234
f 235 233 234
f 235 234 236
f 237 235 236
f 237 236 238
f 239 237 238
f 239 238 240
f 241 239 240
f 241 240 242
f 243 241 242
f 243 242 244
f 245 243 244
f 245 244 246
f 247 245 246
f 247 246 248
f 249 247 248
f 249 248 250
f 251 249 250
f 251 250 252
f 253 251 252
f 253 252 254
f 255 253 254
f 255 254 256
f 257 255 256
f 257 256 258
f 259 257 258
f 259 258 260
f 261 260 262
f 261 259 260
f 263 262 264
f 263 261 262
f 265 264 266
f 265 263 264
f 267 266 268
f 267 265 266
f 269 268 270
f 269 267 268
f 271 270 272
f 271 269 270
f 273 272 274
f 273 271 272
f 275 274 276
f 275 273 274
f 277 276 278
f 277 275 276
f 279 278 280
f 279 277 278
f 281 280 282
f 281 279 280
f 283 281 282
f 283 282 284
f 285 283 284
f 285 284 286
f 287 285 286
f 287 286 288
f 289 287 288
f 289 288 290
f 291 289 290
f 291 290 292
f 293 294 295
f 293 296 294
f 297 298 294
f 297 294 296
f 299 295 300
f 299 293 295
f 301 302 298
f 301 298 297
f 303 300 304
f 303 299 300
f 305 306 302
f 305 302 301
f 307 304 308
f 307 303 304
f 309 310 306
f 309 306 305
f 311 308 312
f 311 307 308
f 313 314 310
f 313 310 309
f 315 311 312
f 315 312 316
f 317 314 313
f 317 318 314
f 319 315 316
f 319 316 320
f 321 322 318
f 321 318 317
f 323 320 324
f 323 319 320
f 325 326 322
f 325 322 321
f 327 324 328
f 327 323 324
f 329 326 325
f 329 325 330
f 331 327 328
f 331 332 327
f 333 329 330
f 333 330 334
f 335 332 331
f 335 336 332
f 337 334 338
f 337 333 334
f 339 336 335
f 339 340 336
f 341 338 342
f 341 337 338
f 343 340 339
f 343 344 340
f 345 342 346
f 345 341 342
f 347 348 344
f 347 344 343
f 349 346 350
f 349 345 346
f 351 352 348
f 351 348 347
f 353 349 350
f 353 350 354
f 355 356 352
f 355 352 351
f 357 354 358
f 357 353 354
f 359 356 355
f 359 360 356
f 361 357 358
f 361 358 362
f 363 360 359
f 363 361 362
f 363 362 364
f 363 364 360
f 365 366 367
f 365 368 366
f 369 370 368
f 369 368 365
f 371 372 370
f 371 370 369
f 373 374 372
f 373 372 371
f 375 376 374
f 375 374 373
f 377 378 376
f 377 376 375
f 379 378 377
f 379 380 378
f 381 380 379
f 381 382 380
f 383 382 381
f 383 384 382
f 385 384 383
f 385 386 384
f 387 386 385
f 387 388 386
f 389 388 387
f 389 390 388
f 391 390 389
f 391 392 390
f 393 392 391
f 393 394 392
f 395 394 393
f 395 396 394
f 397 396 395
f 397 398 396
f 399 398 397
f 399 400 398
f 401 400 399
f 401 402 400
f 403 402 401
f 403 404 402
f 405 404 403
f 405 406 404
f 407 408 406
f 407 406 405
f 409 410 408
f 409 408 407
f 411 412 410
f 411 410 409
f 413 414 412
f 413 412 411
f 415 416 414
f 415 414 413
f 417 418 416
f 417 416 415
f 419 420 418
f 419 418 417
f 421 422 420
f 421 420 419
f 423 424 422
f 423 422 421
f 425 426 424
f 425 424 423
f 427 428 426
f 427 426 425
f 429 428 427
f 429 430 428
f 431 430 429
f 432 431 429
f 433 431 432
f 433 434 431
f 435 434 433
f 435 436 434
f 437 436 435
f 437 438 436
f 439 440 441
f 439 441 442
f 443 442 444
f 443 439 442
f 445 444 446
f 445 443 444
f 447 446 448
f 447 445 446
f 449 448 450
f 449 447 448
f 451 450 452
f 451 449 450
f 453 451 452
f 453 452 454
f 455 453 454
f 455 454 456
f 457 455 456
f 457 456 458
f 459 457 458
f 459 458 460
f 461 459 460
f 461 460 462
f 463 461 462
f 463 462 464
f 465 463 464
f 465 464 466
f 467 465 466
f 467 466 468
f 469 467 468
f 469 468 470
f 471 469 470
f 471 470 472
f 473 471 472
f 473 472 474
f 475 473 474
f 475 474 476
f 477 475 476
f 477 476 478
f 479 478 480
f 479 477 478
f 481 480 482
f 481 479 480
f 483 482 484
f 483 481 482
f 485 484 486
f 485 483 484
f 487 486 488
f 487 485 486
f 489 488 490
f 489 487 488
f 491 490 492
f 491 489 490
f 493 492 494
f 493 491 492
f 495 494 496
f 495 493 494
f 497 496 498
f 497 495 496
f 499 498 500
f 499 497 498
f 501 500 502
f 501 499 500
f 503 501 502
f 503 502 504
f 505 503 504
f 505 504 506
f 507 505 506
f 507 506 508
f 509 507 508
f 509 508 510
f 511 509 510
f 511 510 512
f 513 514 515
f 513 516 514
f 517 518 516
f 517 516 513
f 519 520 518
f 519 518 517
f 521 522 520
f 521 520 519
f 523 524 522
f 523 522 521
f 525 526 524
f 525 524 523
f 527 526 525
f 527 528 526
f 529 528 527
f 529 530 528
f 531 530 529
f 531 532 530
f 533 532 531
f 533 534 532
f 535 534 533
f 535 536 534
f 537 536 535
f 537 538 536
f 539 538 537
f 539 540 538
f 541 540 539
f 541 542 540
f 543 542 541
f 543 544 542
f 545 544 543
f 545 546 544
f 547 546 545
f 547 548 546
f 549 548 547
f 549 550 548
f 551 550 549
f 551 552 550
f 553 552 551
f 553 554 552
f 555 556 554
f 555 554 553
f 557 558 556
f 557 556 555
f 559 560 558
f 559 558 557
f 561 562 560
f 561 560 559
f 563 564 562
f 563 562 561
f 565 566 564
f 565 564 563
f 567 568 566
f 567 566 565
f 569 570 568
f 569 568 567
f 571 572 570
f 571 570 569
f 573 574 572
f 573 572 571
f 575 576 574
f 575 574 573
f 577 576 575
f 577 578 576
f 579 578 577
f 579 580 578
f 581 580 579
f 581 582 580
f 583 582 581
f 583 584 582
f 585 584 583
f 585 586 584
f 587 588 589
f 587 589 590
f 591 589 592
f 591 590 589
f 593 594 588
f 593 588 587
f 595 592 596
f 595 591 592
f 597 598 594
f 597 594 593
f 599 596 600
f 599 595 596
f 601 602 598
f 601 598 597
f 603 600 604
f 603 599 600
f 605 606 602
f 605 602 601
f 607 603 604
f 607 604 608
f 609 606 605
f 609 610 606
f 611 607 608
f 611 608 612
f 613 610 609
f 613 614 610
f 615 611 612
f 615 612 616
f 617 618 614
f 617 614 613
f 619 616 620
f 619 615 616
f 621 622 618
f 621 618 617
f 623 619 620
f 623 624 619
f 625 622 621
f 625 621 626
f 627 624 623
f 627 628 624
f 629 626 630
f 629 625 626
f 631 628 627
f 631 632 628
f 633 630 634
f 633 629 630
f 635 632 631
f 635 636 632
f 637 634 638
f 637 633 634
f 639 636 635
f 639 640 636
f 641 638 642
f 641 637 638
f 643 644 640
f 643 640 639
f 645 642 646
f 645 641 642
f 647 644 643
f 647 648 644
f 649 646 650
f 649 645 646
f 651 648 647
f 651 652 648
f 653 650 654
f 653 649 650
f 655 652 651
f 655 656 652
f 657 653 654
f 657 656 655
f 657 658 656
f 657 654 658
f 659 660 661
f 659 661 662
f 663 662 664
f 663 659 662
f 665 664 666
f 665 663 664
f 667 666 668
f 667 665 666
f 669 668 670
f 669 667 668
f 671 669 670
f 671 670 672
f 673 671 672
f 673 672 674
f 675 673 674
f 675 674 676
f 677 675 676
f 677 676 678
f 679 677 678
f 679 678 680
f 681 679 680
f 681 680 682
f 683 681 682
f 683 682 684
f 685 683 684
f 685 684 686
f 687 685 686
f 687 686 688
f 689 687 688
f 689 688 690
f 691 689 690
f 691 690 692
f 693 691 692
f 693 692 694
f 695 693 694
f 695 694 696
f 697 695 696
f 697 696 698
f 699 697 698
f 699 698 700
f 701 700 702
f 701 699 700
f 703 702 704
f 703 701 702
f 705 704 706
f 705 703 704
f 707 706 708
f 707 705 706
f 709 708 710
f 709 707 708
f 711 710 712
f 711 709 710
f 713 712 714
f 713 711 712
f 715 714 716
f 715 713 714
f 717 716 718
f 717 715 716
f 719 718 720
f 719 717 718
f 721 719 720
f 721 720 722
f 723 721 722
f 723 722 724
f 725 723 724
f 725 724 726
f 727 725 726
f 727 726 728
f 729 727 728
f 729 728 730
f 731 729 730
f 731 730 732
f 733 734 735
f 733 736 734
f 737 738 734
f 737 734 736
f 739 735 740
f 739 733 735
f 741 742 738
f 741 738 737
f 743 740 744
f 743 739 740
f 745 746 742
f 745 742 741
f 747 744 748
f 747 743 744
f 749 750 746
f 749 746 745
f 751 748 752
f 751 747 748
f 753 750 749
f 753 754 750
f 755 751 752
f 755 752 756
f 757 755 756
f 758 754 753
f 758 759 754
f 760 755 757
f 761 760 757
f 762 759 758
f 762 763 759
f 764 760 761
f 765 763 762
f 765 766 763
f 767 764 761
f 767 761 768
f 769 767 768
f 769 770 767
f 771 766 765
f 771 765 772
f 773 771 772
f 774 775 770
f 774 770 769
f 776 771 773
f 777 775 774
f 777 778 775
f 779 773 780
f 779 776 773
f 781 782 778
f 781 778 777
f 783 779 780
f 783 780 784
f 785 783 784
f 786 787 782
f 786 782 781
f 788 783 785
f 789 787 786
f 789 790 787
f 791 785 792
f 791 788 785
f 793 794 790
f 793 790 789
f 795 792 796
f 795 791 792
f 797 795 796
f 798 794 793
f 798 799 794
f 800 795 797
f 801 799 798
f 801 802 799
f 803 800 797
f 803 802 801
f 803 797 804
f 803 804 802
f 805 806 807
f 805 807 808
f 809 807 810
f 809 808 807
f 811 812 806
f 811 806 805
f 813 810 814
f 813 809 810
f 815 816 812
f 815 812 811
f 817 814 818
f 817 813 814
f 819 820 816
f 819 816 815
f 821 818 822
f 821 817 818
f 823 824 820
f 823 820 819
f 825 821 822
f 825 822 826
f 827 824 823
f 827 828 824
f 829 825 826
f 829 826 830
f 831 828 827
f 831 832 828
f 833 829 830
f 833 830 834
f 835 836 832
f 835 832 831
f 837 834 838
f 837 833 834
f 839 840 836
f 839 836 835
f 841 837 838
f 841 842 837
f 843 840 839
f 843 839 844
f 845 842 841
f 845 846 842
f 847 844 848
f 847 843 844
f 849 850 846
f 849 846 845
f 851 848 852
f 851 847 848
f 853 850 849
f 853 854 850
f 855 852 856
f 855 851 852
f 857 858 854
f 857 854 853
f 859 856 860
f 859 855 856
f 861 862 858
f 861 858 857
f 863 860 864
f 863 859 860
f 865 866 862
f 865 862 861
f 867 863 864
f 867 864 868
f 869 870 866
f 869 866 865
f 871 867 868
f 871 868 872
f 873 870 869
f 873 874 870
f 875 871 872
f 875 874 873
f 875 876 874
f 875 872 876
f 877 878 879
f 877 879 880
f 881 880 882
f 881 877 880
f 883 882 884
f 883 881 882
f 885 884 886
f 885 883 884
f 887 886 888
f 887 885 886
f 889 887 888
f 889 888 890
f 891 889 890
f 891 890 892
f 893 891 892
f 893 892 894
f 895 893 894
f 895 894 896
f 897 895 896
f 897 896 898
f 899 897 898
f 899 898 900
f 901 899 900
f 901 900 902
f 903 901 902
f 903 902 904
f 905 903 904
f 905 904 906
f 907 905 906
f 907 906 908
f 909 907 908
f 909 908 910
f 911 909 910
f 911 910 912
f 913 911 912
f 913 912 914
f 915 913 914
f 915 914 916
f 917 915 916
f 917 916 918
f 919 918 920
f 919 917 918
f 921 920 922
f 921 919 920
f 923 922 924
f 923 921 922
f 925 924 926
f 925 923 924
f 927 926 928
f 927 925 926
f 929 928 930
f 929 927 928
f 931 930 932
f 931 929 930
f 933 932 934
f 933 931 932
f 935 934 936
f 935 933 934
f 937 936 938
f 937 935 936
f 939 937 938
f 939 938 940
f 941 939 940
f 941 940 942
f 943 941 942
f 943 942 944
f 945 943 944
f 945 944 946
f 947 945 946
f 947 946 948
f 949 947 948
f 949 948 950
f 951 952 953
f 951 954 952
f 955 956 952
f 955 952 954
f 957 953 958
f 957 951 953
f 959 960 956
f 959 956 955
f 961 958 962
f 961 957 958
f 963 964 960
f 963 960 959
f 965 962 966
f 965 961 962
f 967 964 963
f 967 968 964
f 969 966 970
f 969 965 966
f 971 968 967
f 971 972 968
f 973 969 970
f 973 970 974
f 975 972 971
f 975 976 972
f 977 973 974
f 977 974 978
f 979 980 976
f 979 976 975
f 981 978 982
f 981 977 978
f 983 984 980
f 983 980 979
f 985 982 986
f 985 981 982
f 987 984 983
f 987 983 988
f 989 985 986
f 989 990 985
f 991 987 988
f 991 988 992
f 993 990 989
f 993 994 990
f 995 991 992
f 995 992 996
f 997 994 993
f 997 998 994
f 999 996 1000
f 999 995 996
f 1001 998 997
f 1001 1002 998
f 1003 999 1000
f 1003 1000 1004
f 1005 1006 1002
f 1005 1002 1001
f 1007 1004 1008
f 1007 1003 1004
f 1009 1010 1006
f 1009 1006 1005
f 1011 1008 1012
f 1011 1007 1008
f 1013 1014 1010
f 1013 1010 1009
f 1015 1012 1016
f 1015 1011 1012
f 1017 1014 1013
f 1017 1018 1014
f 1019 1015 1016
f 1019 1016 1020
f 1021 1018 1017
f 1021 1019 1020
f 1021 1020 1022
f 1021 1022 1018
f 1023 1024 1025
f 1023 1025 1026
f 1027 1026 1028
f 1027 1023 1026
f 1029 1028 1030
f 1029 1027 1028
f 1031 1030 1032
f 1031 1029 1030
f 1033 1032 1034
f 1033 1031 1032
f 1035 1034 1036
f 1035 1033 1034
f 1037 1035 1036
f 1037 1036 1038
f 1039 1037 1038
f 1039 1038 1040
f 1041 1039 1040
f 1041 1040 1042
f 1043 1041 1042
f 1043 1042 1044
f 1045 1043 1044
f 1045 1044 1046
f 1047 1045 1046
f 1047 1046 1048
f 1049 1047 1048
f 1049 1048 1050
f 1051 1049 1050
f 1051 1050 1052
f 1053 1051 1052
f 1053 1052 1054
f 1055 1053 1054
f 1055 1054 1056
f 1057 1055 1056
f 1057 1056 1058
f 1059 1057 1058
f 1059 1058 1060
f 1061 1059 1060
f 1061 1060 1062
f 1063 1061 1062
f 1063 1062 1064
f 1065 1064 1066
f 1065 1063 1064
f 1067 1066 1068
f 1067 1065 1066
f 1069 1068 1070
f 1069 1067 1068
f 1071 1070 1072
f 1071 1069 1070
f 1073 1072 1074
f 1073 1071 1072
f 1075 1074 1076
f 1075 1073 1074
f 1077 1076 1078
f 1077 1075 1076
f 1079 1078 1080
f 1079 1077 1078
f 1081 1080 1082
f 1081 1079 1080
f 1083 1082 1084
f 1083 1081 1082
f 1085 1084 1086
f 1085 1083 1084
f 1087 1085 1086
f 1087 1086 1088
f 1089 1087 1088
f 1089 1088 1090
f 1091 1089 1090
f 1091 1090 1092
f 1093 1091 1092
f 1093 1092 1094
f 1095 1093 1094
f 1095 1094 1096
f 1097 1098 1099
f 1097 1100 1098
f 1101 1102 1098
f 1101 1098 1100
f 1103 1099 1104
f 1103 1097 1099
f 1105 1106 1102
f 1105 1102 1101
f 1107 1104 1108
f 1107 1103 1104
f 1109 1110 1106
f 1109 1106 1105
f 1111 1108 1112
f 1111 1107 1108
f 1113 1114 1110
f 1113 1110 1109
f 1115 1112 1116
f 1115 1111 1112
f 1117 1118 1114
f 1117 1114 1113
f 1119 1115 1116
f 1119 1116 1120
f 1121 1118 1117
f 1121 1122 1118
f 1123 1119 1120
f 1123 1120 1124
f 1125 1126 1122
f 1125 1122 1121
f 1127 1124 1128
f 1127 1123 1124
f 1129 1130 1126
f 1129 1126 1125
f 1131 1128 1132
f 1131 1127 1128
f 1133 1130 1129
f 1133 1129 1134
f 1135 1131 1132
f 1135 1136 1131
f 1137 1133 1134
f 1137 1134 1138
f 1139 1136 1135
f 1139 1140 1136
f 1141 1138 1142
f 1141 1137 1138
f 1143 1140 1139
f 1143 1144 1140
f 1145 1142 1146
f 1145 1141 1142
f 1147 1144 1143
f 1147 1148 1144
f 1149 1146 1150
f 1149 1145 1146
f 1151 1148 1147
f 1151 1152 1148
f 1153 1150 1154
f 1153 1149 1150
f 1155 1156 1152
f 1155 1152 1151
f 1157 1153 1154
f 1157 1154 1158
f 1159 1160 1156
f 1159 1156 1155
f 1161 1157 1158
f 1161 1158 1162
f 1163 1160 1159
f 1163 1164 1160
f 1165 1161 1162
f 1165 1162 1166
f 1167 1164 1163
f 1167 1165 1166
f 1167 1166 1168
f 1167 1168 1164
f 1169 1170 1171
f 1169 1172 1170
f 1173 1174 1172
f 1173 1172 1169
f 1175 1176 1174
f 1175 1174 1173
f 1177 1178 1176
f 1177 1176 1175
f 1179 1180 1178
f 1179 1178 1177
f 1181 1180 1179
f 1181 1182 1180
f 1183 1182 1181
f 1183 1184 1182
f 1185 1184 1183
f 1185 1186 1184
f 1187 1186 1185
f 1187 1188 1186
f 1189 1188 1187
f 1189 1190 1188
f 1191 1190 1189
f 1191 1192 1190
f 1193 1192 1191
f 1193 1194 1192
f 1195 1194 1193
f 1195 1196 1194
f 1197 1196 1195
f 1197 1198 1196
f 1199 1198 1197
f 1199 1200 1198
f 1201 1200 1199
f 1201 1202 1200
f 1203 1202 1201
f 1203 1204 1202
f 1205 1204 1203
f 1205 1206 1204
f 1207 1206 1205
f 1207 1208 1206
f 1209 1210 1208
f 1209 1208 1207
f 1211 1212 1210
f 1211 1210 1209
f 1213 1214 1212
f 1213 1212 1211
f 1215 1216 1214
f 1215 1214 1213
f 1217 1218 1216
f 1217 1216 1215
f 1219 1220 1218
f 1219 1218 1217
f 1221 1222 1220
f 1221 1220 1219
f 1223 1224 1222
f 1223 1222 1221
f 1225 1226 1224
f 1225 1224 1223
f 1227 1228 1226
f 1227 1226 1225
f 1229 1230 1228
f 1229 1228 1227
f 1231 1232 1230
f 1231 1230 1229
f 1233 1232 1231
f 1233 1234 1232
f 1235 1234 1233
f 1235 1236 1234
f 1237 1236 1235
f 1237 1238 1236
f 1239 1238 1237
f 1239 1240 1238
f 1241 1240 1239
f 1241 1242 1240

