# https://github.com/mikedh/trimesh
v -0.00774306 0.08990997 -0.05848002
v 0.01111394 0.09045600 -0.05793404
v 0.00440991 0.08956497 -0.05882501
v -0.00167500 0.08942395 -0.05896604
v -0.01372802 0.09101897 -0.05737102
v 0.01838691 0.09233796 -0.05605202
v -0.01956604 0.09273898 -0.05565100
v 0.02536189 0.09512895 -0.05326104
v -0.02519701 0.09505099 -0.05333900
v -0.03056001 0.09793096 -0.05045902
v 0.03262490 0.09924095 -0.04914903
v -0.03559702 0.10134800 -0.04704201
v 0.03992390 0.10496000 -0.04343003
v -0.04025501 0.10526600 -0.04312402
v -0.04448503 0.10964300 -0.03874701
v 0.04686993 0.11256400 -0.03582602
v -0.04938101 0.11611200 -0.03227801
v 0.05290490 0.12228400 -0.02610599
v -0.05376904 0.12411300 -0.02427704
v 0.05726993 0.13421801 -0.01417201
v -0.05687105 0.13269500 -0.01569504
v -0.05846506 0.14047600 -0.00791401
v 0.05899989 0.14822391 -0.00016599
v -0.05900001 0.14839999 0.00000995
v 0.05899989 0.14839999 0.00000996
v 0.05808091 0.15877190 0.01038199
v -0.05737006 0.16217300 0.01378297
v 0.05535292 0.16882101 0.02043099
v -0.00585801 0.20710801 0.05871796
v -0.00000001 0.20739999 0.05900996
v 0.00693488 0.20699100 0.05860096
v -0.05318606 0.17393900 0.02554899
v 0.05147688 0.17722900 0.02883899
v -0.01165902 0.20623700 0.05784696
v 0.01377290 0.20577000 0.05737996
v -0.04737502 0.18356501 0.03517495
v 0.04332488 0.18844900 0.04005897
v 0.04773192 0.18307900 0.03468894
v -0.01827103 0.20450000 0.05610996
v 0.02042089 0.20375291 0.05536299
v -0.02532702 0.20168699 0.05329698
v 0.02678489 0.20096900 0.05257898
v -0.03984504 0.19191299 0.04352295
v 0.03831690 0.19326399 0.04487395
v -0.03267002 0.19752900 0.04913896
v 0.03277891 0.19745700 0.04906696
v -0.04270703 0.18423501 0.06920999
v -0.00000001 0.09264999 0.06920999
v 0.00968092 0.09349697 0.06920999
v 0.01906793 0.09601199 0.06920999
v 0.02787487 0.10011900 0.06920999
v 0.03583489 0.10569300 0.06920999
v 0.04270689 0.11256500 0.06921000
v 0.04828088 0.12052500 0.06921000
v 0.05238788 0.12933201 0.06921000
v 0.05490290 0.13871901 0.06921000
v 0.05574988 0.14839999 0.06921000
v 0.05490290 0.15808091 0.06921000
v 0.05238788 0.16746800 0.06921000
v 0.04828088 0.17627500 0.06921000
v 0.04270689 0.18423501 0.06921000
v 0.03583489 0.19110700 0.06920999
v 0.02787487 0.19668099 0.06920999
v 0.01906793 0.20078801 0.06920999
v 0.00968092 0.20330299 0.06920999
v -0.00000001 0.20415001 0.06920999
v -0.00968105 0.20330299 0.06920999
v -0.01906807 0.20078801 0.06920999
v -0.02787507 0.19668099 0.06920999
v -0.03583503 0.19110700 0.06920999
v -0.04828102 0.17627500 0.06920999
v -0.05238802 0.16746800 0.06920999
v -0.05490304 0.15808091 0.06920999
v -0.05575002 0.14839999 0.06920999
v -0.05490304 0.13871901 0.06920999
v -0.05238802 0.12933201 0.06920999
v -0.04828102 0.12052500 0.06920999
v -0.04270703 0.11256500 0.06920999
v -0.03583503 0.10569300 0.06920999
v -0.02787507 0.10011900 0.06920999
v -0.01906807 0.09601199 0.06920999
v -0.00968105 0.09349697 0.06920999
v 0.03583490 0.08069998 -0.04269700
v 0.03792393 0.08069998 -0.04518699
v 0.04519689 0.08069998 -0.03791403
v 0.04270690 0.08069998 -0.03582501
v 0.04828089 0.08069998 -0.02786505
v 0.05109590 0.08069998 -0.02949005
v 0.02787488 0.08069998 -0.04827100
v 0.02949988 0.08069998 -0.05108600
v 0.05238789 0.08069998 -0.01905804
v 0.05544191 0.08069998 -0.02016900
v 0.01906794 0.08069998 -0.05237799
v 0.02017892 0.08069998 -0.05543202
v 0.05490291 0.08069998 -0.00967103
v 0.05810391 0.08069998 -0.01023501
v 0.00968093 0.08069998 -0.05489301
v 0.01024491 0.08069998 -0.05809402
v 0.05574989 0.08069998 0.00000996
v 0.05899989 0.08069998 0.00000996
v 0.00000000 0.08069998 -0.05573999
v 0.00000001 0.08069998 -0.05899000
v 0.05490291 0.08069998 0.00969100
v 0.05810391 0.08069998 0.01025497
v -0.00968104 0.08069998 -0.05489301
v -0.01024501 0.08069998 -0.05809402
v -0.02017902 0.08069998 -0.05543202
v 0.05238789 0.08069998 0.01907795
v 0.05544191 0.08069998 0.02018899
v -0.01906806 0.08069998 -0.05237799
v -0.02950006 0.08069998 -0.05108600
v 0.04828089 0.08069998 0.02788496
v 0.05109590 0.08069998 0.02950996
v -0.02787506 0.08069998 -0.04827100
v 0.04270690 0.08069998 0.03584499
v 0.04519689 0.08069998 0.03793394
v -0.03583502 0.08069998 -0.04269701
v -0.03792405 0.08069998 -0.04518699
v 0.03792392 0.08069998 0.04520696
v 0.03583490 0.08069998 0.04271697
v -0.04519701 0.08069998 -0.03791403
v -0.04270701 0.08069998 -0.03582501
v 0.02949988 0.08069998 0.05110597
v 0.02787488 0.08069998 0.04829096
v -0.05109601 0.08069998 -0.02949005
v -0.04828101 0.08069998 -0.02786505
v 0.02017890 0.08069998 0.05545198
v 0.01906794 0.08069998 0.05239796
v -0.05544203 0.08069998 -0.02016902
v -0.05238801 0.08069998 -0.01905804
v 0.01024490 0.08069998 0.05811399
v 0.00968092 0.08069998 0.05491298
v -0.05810403 0.08069998 -0.01023501
v -0.05490303 0.08069998 -0.00967104
v -0.05900001 0.08069998 0.00000995
v -0.05575001 0.08069998 0.00000995
v -0.00000001 0.08069998 0.05900996
v -0.00000000 0.08069998 0.05575996
v -0.00968105 0.08069998 0.05491298
v -0.05810403 0.08069998 0.01025497
v -0.05490303 0.08069998 0.00969099
v -0.01024502 0.08069998 0.05811399
v -0.01906806 0.08069998 0.05239796
v -0.05544203 0.08069998 0.02018897
v -0.05238801 0.08069998 0.01907795
v -0.02017904 0.08069998 0.05545198
v -0.02950006 0.08069998 0.05110596
v -0.02787506 0.08069998 0.04829096
v -0.05109602 0.08069998 0.02950996
v -0.04828101 0.08069998 0.02788496
v -0.03792406 0.08069998 0.04520696
v -0.03583502 0.08069998 0.04271697
v -0.04270702 0.08069998 0.03584498
v -0.04519701 0.08069998 0.03793393
v 0.00968093 0.07919996 -0.05489301
v 0.00000000 0.07919996 -0.05573999
v 0.00000000 0.08069998 -0.05573999
v 0.00968093 0.08069998 -0.05489301
v 0.01906794 0.07919996 -0.05237799
v 0.01906794 0.08069998 -0.05237799
v 0.02787488 0.07919996 -0.04827100
v 0.02787488 0.08069998 -0.04827100
v 0.03583490 0.07919996 -0.04269700
v 0.03583490 0.08069998 -0.04269700
v 0.04270690 0.07919996 -0.03582501
v 0.04270690 0.08069998 -0.03582501
v 0.04828089 0.07919996 -0.02786505
v 0.04828089 0.08069998 -0.02786505
v 0.05238789 0.07919996 -0.01905804
v 0.05238789 0.08069998 -0.01905804
v 0.05490291 0.07919996 -0.00967103
v 0.05490291 0.08069998 -0.00967103
v 0.05574989 0.07919996 0.00000996
v 0.05574989 0.08069998 0.00000996
v 0.05490291 0.07919996 0.00969100
v 0.05490291 0.08069998 0.00969100
v 0.05238789 0.07919996 0.01907795
v 0.05238789 0.08069998 0.01907795
v 0.04828089 0.07919996 0.02788496
v 0.04828089 0.08069998 0.02788496
v 0.04270690 0.07919996 0.03584499
v 0.04270690 0.08069998 0.03584499
v 0.03583490 0.07919996 0.04271697
v 0.03583490 0.08069998 0.04271697
v 0.02787488 0.07919996 0.04829096
v 0.02787488 0.08069998 0.04829096
v 0.01906794 0.07919996 0.05239796
v 0.01906794 0.08069998 0.05239796
v 0.00968092 0.07919996 0.05491298
v 0.00968092 0.08069998 0.05491298
v -0.00000000 0.07919996 0.05575996
v -0.00000000 0.08069998 0.05575996
v -0.00968105 0.07919996 0.05491298
v -0.00968105 0.08069998 0.05491298
v -0.01906806 0.07919996 0.05239796
v -0.01906806 0.08069998 0.05239796
v -0.02787506 0.07919996 0.04829096
v -0.02787506 0.08069998 0.04829096
v -0.03583502 0.07919996 0.04271697
v -0.03583502 0.08069998 0.04271697
v -0.04270702 0.07919996 0.03584498
v -0.04270702 0.08069998 0.03584498
v -0.04828101 0.07919996 0.02788496
v -0.04828101 0.08069998 0.02788496
v -0.05238801 0.07919996 0.01907795
v -0.05238801 0.08069998 0.01907795
v -0.05490303 0.07919996 0.00969099
v -0.05490303 0.08069998 0.00969099
v -0.05575001 0.07919996 0.00000995
v -0.05575001 0.08069998 0.00000995
v -0.05490303 0.07919996 -0.00967104
v -0.05490303 0.08069998 -0.00967104
v -0.05238801 0.07919996 -0.01905804
v -0.05238801 0.08069998 -0.01905804
v -0.04828101 0.07919996 -0.02786505
v -0.04828101 0.08069998 -0.02786505
v -0.04270701 0.07919996 -0.03582501
v -0.04270701 0.08069998 -0.03582501
v -0.03583502 0.07919996 -0.04269701
v -0.03583502 0.08069998 -0.04269701
v -0.02787506 0.07919996 -0.04827100
v -0.02787506 0.08069998 -0.04827100
v -0.01906806 0.07919996 -0.05237799
v -0.01906806 0.08069998 -0.05237799
v -0.00968104 0.07919996 -0.05489301
v -0.00968104 0.08069998 -0.05489301
v 0.00000000 0.07919996 -0.05573999
v 0.00000000 0.08069998 -0.05573999
v -0.04270702 0.07919996 0.03584498
v 0.00000000 0.07919996 -0.05573999
v 0.00968093 0.07919996 -0.05489301
v 0.01906794 0.07919996 -0.05237799
v 0.02787488 0.07919996 -0.04827100
v 0.03583490 0.07919996 -0.04269700
v 0.04270690 0.07919996 -0.03582501
v 0.04828089 0.07919996 -0.02786505
v 0.05238789 0.07919996 -0.01905804
v 0.05490291 0.07919996 -0.00967103
v 0.05574989 0.07919996 0.00000996
v 0.05490291 0.07919996 0.00969100
v 0.05238789 0.07919996 0.01907795
v 0.04828089 0.07919996 0.02788496
v 0.04270690 0.07919996 0.03584499
v 0.03583490 0.07919996 0.04271697
v 0.02787488 0.07919996 0.04829096
v 0.01906794 0.07919996 0.05239796
v 0.00968092 0.07919996 0.05491298
v -0.00000000 0.07919996 0.05575996
v -0.00968105 0.07919996 0.05491298
v -0.01906806 0.07919996 0.05239796
v -0.02787506 0.07919996 0.04829096
v -0.03583502 0.07919996 0.04271697
v -0.04828101 0.07919996 0.02788496
v -0.05238801 0.07919996 0.01907795
v -0.05490303 0.07919996 0.00969099
v -0.05575001 0.07919996 0.00000995
v -0.05490303 0.07919996 -0.00967104
v -0.05238801 0.07919996 -0.01905804
v -0.04828101 0.07919996 -0.02786505
v -0.04270701 0.07919996 -0.03582501
v -0.03583502 0.07919996 -0.04269701
v -0.02787506 0.07919996 -0.04827100
v -0.01906806 0.07919996 -0.05237799
v -0.00968104 0.07919996 -0.05489301
v 0.03583489 0.10569300 0.06770998
v 0.03792392 0.10320290 0.06770998
v 0.04519688 0.11047600 0.06770999
v 0.04270689 0.11256500 0.06770999
v 0.04828088 0.12052500 0.06770999
v 0.05109589 0.11890000 0.06770999
v 0.02787487 0.10011900 0.06770998
v 0.02949987 0.09730499 0.06770998
v 0.05238788 0.12933201 0.06770999
v 0.05544190 0.12822101 0.06770999
v 0.01906793 0.09601199 0.06770998
v 0.02017890 0.09295797 0.06770998
v 0.05490290 0.13871901 0.06770999
v 0.05810390 0.13815500 0.06770999
v 0.00968092 0.09349697 0.06770998
v 0.01024489 0.09029597 0.06770998
v 0.05574988 0.14839999 0.06770999
v 0.05899988 0.14839999 0.06770999
v -0.00000001 0.09264999 0.06770998
v -0.00000001 0.08939999 0.06770998
v 0.05490290 0.15808091 0.06770999
v 0.05810390 0.15864500 0.06770999
v -0.00968105 0.09349697 0.06770998
v -0.01024503 0.09029597 0.06770998
v 0.05238788 0.16746800 0.06770999
v 0.05544190 0.16857900 0.06770999
v -0.01906807 0.09601199 0.06770998
v -0.02017904 0.09295797 0.06770998
v -0.02950007 0.09730499 0.06770998
v 0.04828088 0.17627500 0.06770999
v 0.05109589 0.17790000 0.06770999
v -0.02787507 0.10011900 0.06770998
v 0.04270689 0.18423501 0.06770999
v 0.04519688 0.18632400 0.06770999
v -0.03583503 0.10569300 0.06770998
v -0.03792406 0.10320290 0.06770998
v 0.03792392 0.19359700 0.06770998
v 0.03583489 0.19110700 0.06770998
v -0.04519702 0.11047600 0.06770997
v -0.04270703 0.11256500 0.06770997
v 0.02949987 0.19949500 0.06770998
v 0.02787487 0.19668099 0.06770998
v -0.05109603 0.11890000 0.06770997
v -0.04828102 0.12052500 0.06770997
v 0.02017890 0.20384200 0.06770998
v 0.01906793 0.20078801 0.06770998
v -0.05544204 0.12822101 0.06770997
v -0.05238802 0.12933201 0.06770997
v 0.01024489 0.20650400 0.06770998
v 0.00968092 0.20330299 0.06770998
v -0.05810404 0.13815500 0.06770997
v -0.05490304 0.13871901 0.06770997
v -0.00000001 0.20739999 0.06770998
v -0.00000001 0.20415001 0.06770998
v -0.05900002 0.14839999 0.06770997
v -0.05575002 0.14839999 0.06770997
v -0.05810404 0.15864500 0.06770997
v -0.05490304 0.15808091 0.06770997
v -0.01024503 0.20650400 0.06770998
v -0.00968105 0.20330299 0.06770998
v -0.05544204 0.16857900 0.06770997
v -0.05238802 0.16746800 0.06770997
v -0.02017904 0.20384200 0.06770998
v -0.01906807 0.20078801 0.06770998
v -0.02950007 0.19949500 0.06770998
v -0.02787507 0.19668099 0.06770998
v -0.05109603 0.17790000 0.06770997
v -0.04828102 0.17627500 0.06770997
v -0.03792406 0.19359700 0.06770998
v -0.03583503 0.19110700 0.06770998
v -0.04519702 0.18632400 0.06770997
v -0.04270703 0.18423501 0.06770997
v 0.00968092 0.09349697 0.06920999
v -0.00000001 0.09264999 0.06920999
v -0.00000001 0.09264999 0.06770998
v 0.00968092 0.09349697 0.06770998
v 0.01906793 0.09601199 0.06920999
v 0.01906793 0.09601199 0.06770998
v 0.02787487 0.10011900 0.06920999
v 0.02787487 0.10011900 0.06770998
v 0.03583489 0.10569300 0.06920999
v 0.03583489 0.10569300 0.06770998
v 0.04270689 0.11256500 0.06921000
v 0.04270689 0.11256500 0.06770999
v 0.04828088 0.12052500 0.06921000
v 0.04828088 0.12052500 0.06770999
v 0.05238788 0.12933201 0.06921000
v 0.05238788 0.12933201 0.06770999
v 0.05490290 0.13871901 0.06921000
v 0.05490290 0.13871901 0.06770999
v 0.05574988 0.14839999 0.06921000
v 0.05574988 0.14839999 0.06770999
v 0.05490290 0.15808091 0.06921000
v 0.05490290 0.15808091 0.06770999
v 0.05238788 0.16746800 0.06921000
v 0.05238788 0.16746800 0.06770999
v 0.04828088 0.17627500 0.06921000
v 0.04828088 0.17627500 0.06770999
v 0.04270689 0.18423501 0.06921000
v 0.04270689 0.18423501 0.06770999
v 0.03583489 0.19110700 0.06920999
v 0.03583489 0.19110700 0.06770998
v 0.02787487 0.19668099 0.06920999
v 0.02787487 0.19668099 0.06770998
v 0.01906793 0.20078801 0.06920999
v 0.01906793 0.20078801 0.06770998
v 0.00968092 0.20330299 0.06920999
v 0.00968092 0.20330299 0.06770998
v -0.00000001 0.20415001 0.06920999
v -0.00000001 0.20415001 0.06770998
v -0.00968105 0.20330299 0.06920999
v -0.00968105 0.20330299 0.06770998
v -0.01906807 0.20078801 0.06920999
v -0.01906807 0.20078801 0.06770998
v -0.02787507 0.19668099 0.06920999
v -0.02787507 0.19668099 0.06770998
v -0.03583503 0.19110700 0.06920999
v -0.03583503 0.19110700 0.06770998
v -0.04270703 0.18423501 0.06920999
v -0.04270703 0.18423501 0.06770997
v -0.04828102 0.17627500 0.06920999
v -0.04828102 0.17627500 0.06770997
v -0.05238802 0.16746800 0.06920999
v -0.05238802 0.16746800 0.06770997
v -0.05490304 0.15808091 0.06920999
v -0.05490304 0.15808091 0.06770997
v -0.05575002 0.14839999 0.06920999
v -0.05575002 0.14839999 0.06770997
v -0.05490304 0.13871901 0.06920999
v -0.05490304 0.13871901 0.06770997
v -0.05238802 0.12933201 0.06920999
v -0.05238802 0.12933201 0.06770997
v -0.04828102 0.12052500 0.06920999
v -0.04828102 0.12052500 0.06770997
v -0.04270703 0.11256500 0.06920999
v -0.04270703 0.11256500 0.06770997
v -0.03583503 0.10569300 0.06920999
v -0.03583503 0.10569300 0.06770998
v -0.02787507 0.10011900 0.06920999
v -0.02787507 0.10011900 0.06770998
v -0.01906807 0.09601199 0.06920999
v -0.01906807 0.09601199 0.06770998
v -0.00968105 0.09349697 0.06920999
v -0.00968105 0.09349697 0.06770998
v -0.00000001 0.09264999 0.06920999
v -0.00000001 0.09264999 0.06770998
f 1 2 3
f 1 3 4
f 5 6 2
f 5 2 1
f 7 8 6
f 7 6 5
f 9 8 7
f 10 11 8
f 10 8 9
f 12 13 11
f 12 11 10
f 14 13 12
f 15 16 13
f 15 13 14
f 17 18 16
f 17 16 15
f 19 20 18
f 19 18 17
f 21 20 19
f 22 23 20
f 22 20 21
f 24 25 23
f 24 23 22
f 24 26 25
f 27 28 26
f 27 26 24
f 29 30 31
f 32 33 28
f 32 28 27
f 34 31 35
f 34 29 31
f 36 33 32
f 36 37 38
f 36 38 33
f 39 35 40
f 39 34 35
f 41 40 42
f 41 39 40
f 43 37 36
f 43 44 37
f 45 42 46
f 45 46 44
f 45 44 43
f 45 41 42
f 47 48 49
f 47 49 50
f 47 50 51
f 47 51 52
f 47 52 53
f 47 53 54
f 47 54 55
f 47 55 56
f 47 56 57
f 47 57 58
f 47 58 59
f 47 59 60
f 47 60 61
f 47 61 62
f 47 62 63
f 47 63 64
f 47 64 65
f 47 65 66
f 47 66 67
f 47 67 68
f 47 68 69
f 47 69 70
f 47 71 72
f 47 72 73
f 47 73 74
f 47 74 75
f 47 75 76
f 47 76 77
f 47 77 78
f 47 78 79
f 47 79 80
f 47 80 81
f 47 81 82
f 47 82 48
f 83 84 85
f 83 85 86
f 87 85 88
f 87 86 85
f 89 90 84
f 89 84 83
f 91 88 92
f 91 87 88
f 93 94 90
f 93 90 89
f 95 92 96
f 95 91 92
f 97 98 94
f 97 94 93
f 99 95 96
f 99 96 100
f 101 102 98
f 101 98 97
f 103 99 100
f 103 100 104
f 105 102 101
f 105 106 102
f 107 106 105
f 108 103 104
f 108 104 109
f 110 107 105
f 111 107 110
f 112 108 109
f 112 109 113
f 114 111 110
f 115 113 116
f 115 112 113
f 117 118 111
f 117 111 114
f 119 115 116
f 119 120 115
f 121 118 117
f 121 117 122
f 123 124 120
f 123 120 119
f 125 121 122
f 125 122 126
f 127 124 123
f 127 128 124
f 129 125 126
f 129 126 130
f 131 132 128
f 131 128 127
f 133 129 130
f 133 130 134
f 135 134 136
f 135 133 134
f 137 138 132
f 137 132 131
f 139 138 137
f 140 136 141
f 140 135 136
f 142 139 137
f 143 139 142
f 144 141 145
f 144 140 141
f 146 143 142
f 147 143 146
f 147 148 143
f 149 145 150
f 149 144 145
f 151 148 147
f 151 152 148
f 151 153 152
f 154 149 150
f 154 150 153
f 154 153 151
f 155 156 157
f 155 157 158
f 159 158 160
f 159 155 158
f 161 160 162
f 161 159 160
f 163 162 164
f 163 161 162
f 165 164 166
f 165 163 164
f 167 165 166
f 167 166 168
f 169 167 168
f 169 168 170
f 171 169 170
f 171 170 172
f 173 171 172
f 173 172 174
f 175 173 174
f 175 174 176
f 177 175 176
f 177 176 178
f 179 177 178
f 179 178 180
f 181 179 180
f 181 180 182
f 183 181 182
f 183 182 184
f 185 183 184
f 185 184 186
f 187 185 186
f 187 186 188
f 189 187 188
f 189 188 190
f 191 189 190
f 191 190 192
f 193 191 192
f 193 192 194
f 195 193 194
f 195 194 196
f 197 196 198
f 197 195 196
f 199 198 200
f 199 197 198
f 201 200 202
f 201 199 200
f 203 202 204
f 203 201 202
f 205 204 206
f 205 203 204
f 207 206 208
f 207 205 206
f 209 208 210
f 209 207 208
f 211 210 212
f 211 209 210
f 213 212 214
f 213 211 212
f 215 214 216
f 215 213 214
f 217 215 216
f 217 216 218
f 219 217 218
f 219 218 220
f 221 219 220
f 221 220 222
f 223 221 222
f 223 222 224
f 225 223 224
f 225 224 226
f 227 225 226
f 227 226 228
f 229 230 231
f 229 231 232
f 229 232 233
f 229 233 234
f 229 234 235
f 229 235 236
f 229 236 237
f 229 237 238
f 229 238 239
f 229 239 240
f 229 240 241
f 229 241 242
f 229 242 243
f 229 243 244
f 229 244 245
f 229 245 246
f 229 246 247
f 229 247 248
f 229 248 249
f 229 249 250
f 229 250 251
f 229 251 252
f 229 253 254
f 229 254 255
f 229 255 256
f 229 256 257
f 229 257 258
f 229 258 259
f 229 259 260
f 229 260 261
f 229 261 262
f 229 262 263
f 229 263 264
f 229 264 230
f 265 266 267
f 265 267 268
f 269 267 270
f 269 268 267
f 271 272 266
f 271 266 265
f 273 270 274
f 273 269 270
f 275 276 272
f 275 272 271
f 277 274 278
f 277 273 274
f 279 280 276
f 279 276 275
f 281 277 278
f 281 278 282
f 283 284 280
f 283 280 279
f 285 281 282
f 285 282 286
f 287 284 283
f 287 288 284
f 289 285 286
f 289 286 290
f 291 288 287
f 291 292 288
f 293 292 291
f 294 289 290
f 294 290 295
f 296 293 291
f 297 295 298
f 297 294 295
f 299 300 293
f 299 293 296
f 301 297 298
f 301 302 297
f 303 300 299
f 303 299 304
f 305 306 302
f 305 302 301
f 307 303 304
f 307 304 308
f 309 306 305
f 309 310 306
f 311 307 308
f 311 308 312
f 313 314 310
f 313 310 309
f 315 312 316
f 315 311 312
f 317 318 314
f 317 314 313
f 319 315 316
f 319 316 320
f 321 320 322
f 321 319 320
f 323 324 318
f 323 318 317
f 325 322 326
f 325 321 322
f 327 328 324
f 327 324 323
f 329 328 327
f 329 330 328
f 331 326 332
f 331 325 326
f 333 334 330
f 333 330 329
f 335 331 332
f 335 334 333
f 335 336 334
f 335 332 336
f 337 338 339
f 337 339 340
f 341 340 342
f 341 337 340
f 343 342 344
f 343 341 342
f 345 344 346
f 345 343 344
f 347 346 348
f 347 345 346
f 349 347 348
f 349 348 350
f 351 349 350
f 351 350 352
f 353 351 352
f 353 352 354
f 355 353 354
f 355 354 356
f 357 355 356
f 357 356 358
f 359 357 358
f 359 358 360
f 361 359 360
f 361 360 362
f 363 361 362
f 363 362 364
f 365 363 364
f 365 364 366
f 367 365 366
f 367 366 368
f 369 367 368
f 369 368 370
f 371 369 370
f 371 370 372
f 373 371 372
f 373 372 374
f 375 373 374
f 375 374 376
f 377 375 376
f 377 376 378
f 379 378 380
f 379 377 378
f 381 380 382
f 381 379 380
f 383 382 384
f 383 381 382
f 385 384 386
f 385 383 384
f 387 386 388
f 387 385 386
f 389 388 390
f 389 387 388
f 391 390 392
f 391 389 390
f 393 392 394
f 393 391 392
f 395 394 396
f 395 393 394
f 397 396 398
f 397 395 396
f 399 397 398
f 399 398 400
f 401 399 400
f 401 400 402
f 403 401 402
f 403 402 404
f 405 403 404
f 405 404 406
f 407 405 406
f 407 406 408
f 409 407 408
f 409 408 410

