# https://github.com/mikedh/trimesh
v 0.03114753 0.03150105 0.07409995
v 0.03132480 0.03132480 0.07409995
v 0.02773970 0.03453975 0.07409995
v 0.02773970 0.03453975 0.07409995
v 0.03132480 0.03132480 0.07409995
v 0.03167634 0.03096926 0.07409995
v 0.02773970 0.03453975 0.07409995
v 0.03167634 0.03096926 0.07409995
v 0.03453975 0.02773970 0.07409995
v 0.03453975 0.02773970 0.07409995
v 0.02424681 0.03707534 0.07409995
v 0.03707534 0.02424681 0.07409995
v 0.02052372 0.03925895 0.07409995
v 0.03925895 0.02052372 0.07409995
v 0.01660579 0.04106986 0.07409995
v 0.04106986 0.01660579 0.07409995
v 0.01253026 0.04249095 0.07409995
v 0.04249095 0.01253026 0.07409995
v 0.00833577 0.04350864 0.07409995
v 0.04350864 0.00833577 0.07409995
v 0.00406217 0.04411333 0.07409995
v 0.04411333 0.00406217 0.07409995
v -0.00024999 0.04429924 0.07409995
v 0.04429924 -0.00024998 0.07409995
v -0.00455975 0.04406470 0.07409995
v 0.04406470 -0.00455975 0.07409995
v -0.00882631 0.04341179 0.07409995
v 0.04341179 -0.00882625 0.07409995
v -0.01300901 0.04234683 0.07409995
v 0.04234683 -0.01300901 0.07409995
v -0.01706826 0.04087983 0.07409995
v 0.04087983 -0.01706826 0.07409995
v -0.02096545 0.03902481 0.07409995
v 0.03902481 -0.02096545 0.07409995
v -0.02466368 0.03679931 0.07409995
v 0.03679931 -0.02466368 0.07409995
v -0.02812772 0.03422451 0.07409995
v 0.03422451 -0.02812772 0.07409995
v -0.03132480 0.03132480 0.07409995
v 0.03132480 -0.03132480 0.07409995
v -0.03422451 0.02812772 0.07409995
v 0.02812772 -0.03422451 0.07409995
v -0.03679931 0.02466368 0.07409995
v 0.02466368 -0.03679931 0.07409995
v -0.03902481 0.02096545 0.07409995
v 0.02096545 -0.03902481 0.07409995
v -0.04087983 0.01706826 0.07409995
v 0.01706826 -0.04087983 0.07409995
v -0.04234683 0.01300901 0.07409995
v 0.01300901 -0.04234683 0.07409995
v -0.04341179 0.00882625 0.07409995
v 0.00882625 -0.04341179 0.07409995
v -0.04406470 0.00455975 0.07409995
v 0.00455975 -0.04406470 0.07409995
v -0.04429924 0.00024999 0.07409995
v 0.00024999 -0.04429924 0.07409995
v -0.04411333 -0.00406217 0.07409995
v -0.00406217 -0.04411333 0.07409995
v -0.04350864 -0.00833577 0.07409995
v -0.00833577 -0.04350864 0.07409995
v -0.04249095 -0.01253026 0.07409995
v -0.01253026 -0.04249095 0.07409995
v -0.04106986 -0.01660579 0.07409995
v -0.01660579 -0.04106986 0.07409995
v -0.03925895 -0.02052372 0.07409995
v -0.02052372 -0.03925895 0.07409995
v -0.03707534 -0.02424681 0.07409995
v -0.02424681 -0.03707534 0.07409995
v -0.03453975 -0.02773970 0.07409995
v -0.02773970 -0.03453975 0.07409995
v -0.03453975 -0.02773970 0.07409995
v -0.02773970 -0.03453975 0.07409995
v -0.03167634 -0.03096926 0.07409995
v -0.03167634 -0.03096926 0.07409995
v -0.03132480 -0.03132480 0.07409995
v -0.03114753 -0.03150105 0.07409995
v -0.03114753 -0.03150105 0.07409995
v -0.02773970 -0.03453975 0.07409995
v -0.03096926 -0.03167634 0.07409995
v 0.02773970 0.03453975 0.07409995
v 0.03096926 0.03167634 0.07409995
v 0.03114753 0.03150105 0.07409995
v 0.03111070 0.03181779 0.08509999
v 0.03111070 0.03181779 0.07429999
v 0.02764052 0.03487473 0.08509999
v 0.02764052 0.03487473 0.07429999
v 0.02387183 0.03755503 0.08509999
v 0.02387183 0.03755503 0.07429999
v 0.01984530 0.03982979 0.08509999
v 0.01984530 0.03982979 0.07429999
v 0.01560449 0.04167430 0.08509999
v 0.01560449 0.04167430 0.07429999
v 0.01119512 0.04306876 0.08509999
v 0.01119512 0.04306876 0.07429999
v 0.00666481 0.04399806 0.08509999
v 0.00666481 0.04399806 0.07429999
v 0.00206256 0.04445213 0.08509999
v 0.00206256 0.04445213 0.07429999
v -0.00256193 0.04442614 0.08509999
v -0.00256193 0.04442614 0.07429999
v -0.00715875 0.04392039 0.08509999
v -0.00715875 0.04392039 0.07429999
v -0.01167833 0.04294025 0.08509999
v -0.01167833 0.04294025 0.07429999
v -0.01607173 0.04149633 0.08509999
v -0.01607173 0.04149633 0.07429999
v -0.02029162 0.03960424 0.08509999
v -0.02029162 0.03960424 0.07429999
v -0.02429229 0.03728443 0.08509999
v -0.02429229 0.03728443 0.07429999
v -0.02803063 0.03456199 0.08509999
v -0.02803063 0.03456199 0.07429999
v -0.03146623 0.03146623 0.08509999
v -0.03146623 0.03146623 0.07429999
v -0.03456199 0.02803063 0.08509999
v -0.03456199 0.02803063 0.07429999
v -0.03728449 0.02429229 0.08509999
v -0.03728449 0.02429229 0.07429999
v -0.03960424 0.02029162 0.08509999
v -0.03960424 0.02029162 0.07429999
v -0.04149633 0.01607173 0.08509999
v -0.04149633 0.01607173 0.07429999
v -0.04294025 0.01167833 0.08509999
v -0.04294025 0.01167833 0.07429999
v -0.04392039 0.00715875 0.08509999
v -0.04392039 0.00715875 0.07429999
v -0.04442614 0.00256193 0.08509999
v -0.04442614 0.00256193 0.07429999
v -0.04445213 -0.00206256 0.08509999
v -0.04445213 -0.00206256 0.07429999
v -0.04399806 -0.00666481 0.08509999
v -0.04399806 -0.00666481 0.07429999
v -0.04306876 -0.01119512 0.08509999
v -0.04306876 -0.01119512 0.07429999
v -0.04167430 -0.01560449 0.08509999
v -0.04167430 -0.01560449 0.07429999
v -0.03982979 -0.01984530 0.08509999
v -0.03982979 -0.01984530 0.07429999
v -0.03755503 -0.02387183 0.08509999
v -0.03755503 -0.02387183 0.07429999
v -0.03487473 -0.02764052 0.08509999
v -0.03487473 -0.02764052 0.07429999
v -0.03181779 -0.03111070 0.08509999
v -0.03181779 -0.03111070 0.07429999
v -0.03150105 -0.03114753 0.08529996
v -0.03132480 -0.03132480 0.08529996
v -0.03453975 -0.02773970 0.08529996
v -0.03453975 -0.02773970 0.08529996
v -0.03132480 -0.03132480 0.08529996
v -0.03096926 -0.03167634 0.08529996
v -0.03453975 -0.02773970 0.08529996
v -0.03096926 -0.03167634 0.08529996
v -0.02773970 -0.03453975 0.08529996
v -0.03707534 -0.02424681 0.08529996
v -0.02424681 -0.03707534 0.08529996
v -0.03925895 -0.02052372 0.08529996
v -0.02052372 -0.03925895 0.08529996
v -0.04106986 -0.01660579 0.08529996
v -0.01660579 -0.04106986 0.08529996
v -0.04249095 -0.01253026 0.08529996
v -0.04249095 -0.01253026 0.08529996
v -0.01253026 -0.04249088 0.08529996
v -0.04350864 -0.00833577 0.08529996
v -0.00833577 -0.04350864 0.08529996
v -0.04411333 -0.00406217 0.08529996
v -0.00406217 -0.04411333 0.08529996
v -0.04429924 0.00024999 0.08529996
v 0.00024999 -0.04429924 0.08529996
v -0.04406470 0.00455975 0.08529996
v 0.00455975 -0.04406470 0.08529996
v -0.04341179 0.00882625 0.08529996
v 0.00882625 -0.04341179 0.08529996
v -0.04234683 0.01300901 0.08529996
v 0.01300901 -0.04234683 0.08529996
v -0.04087983 0.01706826 0.08529996
v 0.01706826 -0.04087983 0.08529996
v -0.03902481 0.02096545 0.08529996
v 0.02096545 -0.03902481 0.08529996
v -0.03679931 0.02466368 0.08529996
v 0.02466368 -0.03679931 0.08529996
v -0.03422451 0.02812772 0.08529996
v 0.02812772 -0.03422451 0.08529996
v -0.03132480 0.03132480 0.08529996
v 0.03132480 -0.03132480 0.08529996
v -0.02812772 0.03422451 0.08529996
v 0.03422451 -0.02812772 0.08529996
v -0.02466368 0.03679931 0.08529996
v 0.03679931 -0.02466368 0.08529996
v -0.02096545 0.03902481 0.08529996
v 0.03902481 -0.02096545 0.08529996
v -0.01706826 0.04087983 0.08529996
v 0.04087983 -0.01706826 0.08529996
v -0.01300901 0.04234683 0.08529996
v 0.04234683 -0.01300901 0.08529996
v -0.00882631 0.04341179 0.08529996
v 0.04341179 -0.00882625 0.08529996
v -0.00455975 0.04406470 0.08529996
v 0.04406470 -0.00455975 0.08529996
v -0.00025000 0.04429924 0.08529996
v 0.04429924 -0.00024998 0.08529996
v 0.00406217 0.04411333 0.08529996
v 0.04411333 0.00406217 0.08529996
v 0.00833577 0.04350864 0.08529996
v 0.04350864 0.00833577 0.08529996
v 0.01253026 0.04249095 0.08529996
v 0.04249095 0.01253026 0.08529996
v 0.01660579 0.04106986 0.08529996
v 0.04106986 0.01660579 0.08529996
v 0.02052372 0.03925895 0.08529996
v 0.03925895 0.02052372 0.08529996
v 0.02424681 0.03707534 0.08529996
v 0.03707534 0.02424681 0.08529996
v 0.02773970 0.03453975 0.08529996
v 0.02773970 0.03453975 0.08529996
v 0.03707534 0.02424681 0.08529996
v 0.03453975 0.02773970 0.08529996
v 0.02773970 0.03453975 0.08529996
v 0.03453975 0.02773970 0.08529996
v 0.03096926 0.03167634 0.08529996
v 0.03096926 0.03167634 0.08529996
v 0.03453975 0.02773970 0.08529996
v 0.03132480 0.03132480 0.08529996
v 0.03150105 0.03114753 0.08529996
v 0.03167634 0.03096926 0.08529996
v -0.03453975 -0.02773970 0.08529996
v -0.03167634 -0.03096926 0.08529996
v -0.03150105 -0.03114753 0.08529996
v -0.03111070 -0.03181779 0.08509999
v -0.03111070 -0.03181779 0.07429999
v -0.02764052 -0.03487473 0.08509999
v -0.02764052 -0.03487473 0.07429999
v -0.02387183 -0.03755503 0.08509999
v -0.02387183 -0.03755503 0.07429999
v -0.01984530 -0.03982973 0.08509999
v -0.01984530 -0.03982973 0.07429999
v -0.01560449 -0.04167430 0.08509999
v -0.01560449 -0.04167430 0.07429999
v -0.01119512 -0.04306870 0.08509999
v -0.01119512 -0.04306876 0.07429999
v -0.00666481 -0.04399800 0.08509999
v -0.00666481 -0.04399806 0.07429999
v -0.00206256 -0.04445213 0.08509999
v -0.00206256 -0.04445213 0.07429999
v 0.00256193 -0.04442614 0.08509999
v 0.00256193 -0.04442614 0.07429999
v 0.00715875 -0.04392039 0.08509999
v 0.00715875 -0.04392039 0.07429999
v 0.01167833 -0.04294018 0.08509999
v 0.01167833 -0.04294025 0.07429999
v 0.01607173 -0.04149633 0.08509999
v 0.01607173 -0.04149633 0.07429999
v 0.02029162 -0.03960424 0.08509999
v 0.02029162 -0.03960424 0.07429999
v 0.02429229 -0.03728443 0.08509999
v 0.02429229 -0.03728443 0.07429999
v 0.02803063 -0.03456199 0.08509999
v 0.02803063 -0.03456199 0.07429999
v 0.03146623 -0.03146623 0.08509999
v 0.03146623 -0.03146623 0.07429999
v 0.03456199 -0.02803063 0.08509999
v 0.03456199 -0.02803063 0.07429999
v 0.03728443 -0.02429229 0.08509999
v 0.03728443 -0.02429229 0.07429999
v 0.03960424 -0.02029156 0.08509999
v 0.03960424 -0.02029156 0.07429999
v 0.04149633 -0.01607173 0.08509999
v 0.04149633 -0.01607173 0.07429999
v 0.04294018 -0.01167833 0.08509999
v 0.04294025 -0.01167833 0.07429999
v 0.04392033 -0.00715875 0.08509999
v 0.04392033 -0.00715875 0.07429999
v 0.04442614 -0.00256187 0.08509999
v 0.04442614 -0.00256193 0.07429999
v 0.04445213 0.00206256 0.08509999
v 0.04445213 0.00206256 0.07429999
v 0.04399806 0.00666487 0.08509999
v 0.04399806 0.00666487 0.07429999
v 0.04306870 0.01119512 0.08509999
v 0.04306870 0.01119512 0.07429999
v 0.04167425 0.01560449 0.08509999
v 0.04167425 0.01560449 0.07429999
v 0.03982973 0.01984536 0.08509999
v 0.03982973 0.01984536 0.07429999
v 0.03755503 0.02387183 0.08509999
v 0.03755503 0.02387183 0.07429999
v 0.03487473 0.02764052 0.08509999
v 0.03487473 0.02764052 0.07429999
v 0.03181779 0.03111070 0.08509999
v 0.03181779 0.03111070 0.07429999
v -0.03181779 -0.03111070 0.08509999
v -0.03181779 -0.03111070 0.07429999
v -0.03167837 -0.03097122 0.08529716
v -0.03167837 -0.03097122 0.07410281
v -0.03097122 -0.03167837 0.08529716
v -0.03097122 -0.03167837 0.07410281
v -0.03111070 -0.03181779 0.08509999
v -0.03111070 -0.03181779 0.08509999
v -0.03097122 -0.03167837 0.07410281
v -0.03111070 -0.03181779 0.07429999
v -0.03167837 -0.03097122 0.08529716
v -0.03167837 -0.03097122 0.07410281
v -0.03156048 -0.03108906 0.08529871
v -0.03156048 -0.03108906 0.08529871
v -0.03167837 -0.03097122 0.07410281
v -0.03156048 -0.03108906 0.07410120
v -0.03156048 -0.03108906 0.07410120
v -0.03144263 -0.03120696 0.08529967
v -0.03144263 -0.03120696 0.07410031
v -0.03132480 -0.03132480 0.08529996
v -0.03132480 -0.03132480 0.08529996
v -0.03132480 -0.03132480 0.07409995
v -0.03120696 -0.03144263 0.08529967
v -0.03120696 -0.03144263 0.08529967
v -0.03132480 -0.03132480 0.07409995
v -0.03120696 -0.03144263 0.07410031
v -0.03120696 -0.03144263 0.08529967
v -0.03120696 -0.03144263 0.07410031
v -0.03108912 -0.03156048 0.08529871
v -0.03108912 -0.03156048 0.08529871
v -0.03120696 -0.03144263 0.07410031
v -0.03108912 -0.03156048 0.07410120
v -0.03097122 -0.03167837 0.08529716
v -0.03097122 -0.03167837 0.07410281
v 0.03097122 0.03167837 0.08529716
v 0.03097122 0.03167837 0.07410281
v 0.03111070 0.03181779 0.08509999
v 0.03111070 0.03181779 0.08509999
v 0.03097122 0.03167837 0.07410281
v 0.03111070 0.03181779 0.07429999
v 0.03167831 0.03097122 0.08529716
v 0.03167837 0.03097122 0.07410281
v 0.03156048 0.03108912 0.08529871
v 0.03156048 0.03108912 0.08529871
v 0.03167837 0.03097122 0.07410281
v 0.03156048 0.03108912 0.07410120
v 0.03156048 0.03108912 0.08529871
v 0.03156048 0.03108912 0.07410120
v 0.03144263 0.03120696 0.08529967
v 0.03144263 0.03120696 0.07410031
v 0.03144263 0.03120696 0.07410031
v 0.03132480 0.03132480 0.08529996
v 0.03132480 0.03132480 0.08529996
v 0.03132480 0.03132480 0.07409995
v 0.03132480 0.03132480 0.07409995
v 0.03120696 0.03144263 0.08529967
v 0.03120696 0.03144263 0.08529967
v 0.03120696 0.03144263 0.07410031
v 0.03120696 0.03144263 0.07410031
v 0.03108906 0.03156054 0.08529871
v 0.03108906 0.03156054 0.08529871
v 0.03120696 0.03144263 0.07410031
v 0.03108906 0.03156054 0.07410120
v 0.03108906 0.03156054 0.08529871
v 0.03108906 0.03156054 0.07410120
v 0.03097122 0.03167837 0.08529716
v 0.03097122 0.03167837 0.08529716
v 0.03108906 0.03156054 0.07410120
v 0.03097122 0.03167837 0.07410281
v 0.03181779 0.03111070 0.08509999
v 0.03181779 0.03111070 0.07429999
v 0.03167831 0.03097122 0.08529716
v 0.03167831 0.03097122 0.08529716
v 0.03181779 0.03111070 0.07429999
v 0.03167837 0.03097122 0.07410281
v -0.03181779 -0.03111070 0.07429999
v -0.03453975 -0.02773970 0.07409995
v -0.03167837 -0.03097122 0.07410281
v -0.03167634 -0.03096926 0.07409995
v -0.03156048 -0.03108906 0.07410120
v -0.03144263 -0.03120696 0.07410031
v -0.03132480 -0.03132480 0.07409995
v -0.03487473 -0.02764052 0.07429999
v -0.03707534 -0.02424681 0.07409995
v -0.03755503 -0.02387183 0.07429999
v -0.03925895 -0.02052372 0.07409995
v -0.03982979 -0.01984530 0.07429999
v -0.04106986 -0.01660579 0.07409995
v -0.04167430 -0.01560449 0.07429999
v -0.04249095 -0.01253026 0.07409995
v -0.04306876 -0.01119512 0.07429999
v -0.04350864 -0.00833577 0.07409995
v -0.04399806 -0.00666481 0.07429999
v -0.04411333 -0.00406217 0.07409995
v -0.04445213 -0.00206256 0.07429999
v -0.04429924 0.00024999 0.07409995
v -0.04442614 0.00256193 0.07429999
v -0.04406470 0.00455975 0.07409995
v -0.04392039 0.00715875 0.07429999
v -0.04341179 0.00882625 0.07409995
v -0.04294025 0.01167833 0.07429999
v -0.04234683 0.01300901 0.07409995
v -0.04149633 0.01607173 0.07429999
v -0.04087983 0.01706826 0.07409995
v -0.03960424 0.02029162 0.07429999
v -0.03902481 0.02096545 0.07409995
v -0.03728449 0.02429229 0.07429999
v -0.03679931 0.02466368 0.07409995
v -0.03456199 0.02803063 0.07429999
v -0.03422451 0.02812772 0.07409995
v -0.03146623 0.03146623 0.07429999
v -0.03132480 0.03132480 0.07409995
v -0.02812772 0.03422451 0.07409995
v -0.02803063 0.03456199 0.07429999
v -0.02466368 0.03679931 0.07409995
v -0.02429229 0.03728443 0.07429999
v -0.02096545 0.03902481 0.07409995
v -0.02029162 0.03960424 0.07429999
v -0.01706826 0.04087983 0.07409995
v -0.01607173 0.04149633 0.07429999
v -0.01300901 0.04234683 0.07409995
v -0.01167833 0.04294025 0.07429999
v -0.00882631 0.04341179 0.07409995
v -0.00715875 0.04392039 0.07429999
v -0.00455975 0.04406470 0.07409995
v -0.00256193 0.04442614 0.07429999
v -0.00024999 0.04429924 0.07409995
v 0.00206256 0.04445213 0.07429999
v 0.00406217 0.04411333 0.07409995
v 0.00666481 0.04399806 0.07429999
v 0.00833577 0.04350864 0.07409995
v 0.01119512 0.04306876 0.07429999
v 0.01253026 0.04249095 0.07409995
v 0.01560449 0.04167430 0.07429999
v 0.01660579 0.04106986 0.07409995
v 0.01984530 0.03982979 0.07429999
v 0.02052372 0.03925895 0.07409995
v 0.02387183 0.03755503 0.07429999
v 0.02424681 0.03707534 0.07409995
v 0.02764052 0.03487473 0.07429999
v 0.02773970 0.03453975 0.07409995
v 0.03111070 0.03181779 0.07429999
v 0.03097122 0.03167837 0.07410281
v 0.03096926 0.03167634 0.07409995
v 0.03108906 0.03156054 0.07410120
v 0.03114753 0.03150105 0.07409995
v 0.03120696 0.03144263 0.07410031
v 0.03132480 0.03132480 0.07409995
v 0.03181779 0.03111070 0.07429999
v 0.03453975 0.02773970 0.07409995
v 0.03167837 0.03097122 0.07410281
v 0.03167634 0.03096926 0.07409995
v 0.03156048 0.03108912 0.07410120
v 0.03144263 0.03120696 0.07410031
v 0.03132480 0.03132480 0.07409995
v 0.03487473 0.02764052 0.07429999
v 0.03707534 0.02424681 0.07409995
v 0.03755503 0.02387183 0.07429999
v 0.03925895 0.02052372 0.07409995
v 0.03982973 0.01984536 0.07429999
v 0.04106986 0.01660579 0.07409995
v 0.04167425 0.01560449 0.07429999
v 0.04249095 0.01253026 0.07409995
v 0.04306870 0.01119512 0.07429999
v 0.04350864 0.00833577 0.07409995
v 0.04399806 0.00666487 0.07429999
v 0.04411333 0.00406217 0.07409995
v 0.04445213 0.00206256 0.07429999
v 0.04429924 -0.00024998 0.07409995
v 0.04442614 -0.00256193 0.07429999
v 0.04406470 -0.00455975 0.07409995
v 0.04392033 -0.00715875 0.07429999
v 0.04341179 -0.00882625 0.07409995
v 0.04294025 -0.01167833 0.07429999
v 0.04234683 -0.01300901 0.07409995
v 0.04149633 -0.01607173 0.07429999
v 0.04087983 -0.01706826 0.07409995
v 0.03960424 -0.02029156 0.07429999
v 0.03902481 -0.02096545 0.07409995
v 0.03728443 -0.02429229 0.07429999
v 0.03679931 -0.02466368 0.07409995
v 0.03456199 -0.02803063 0.07429999
v 0.03422451 -0.02812772 0.07409995
v 0.03146623 -0.03146623 0.07429999
v 0.03132480 -0.03132480 0.07409995
v 0.02812772 -0.03422451 0.07409995
v 0.02803063 -0.03456199 0.07429999
v 0.02466368 -0.03679931 0.07409995
v 0.02429229 -0.03728443 0.07429999
v 0.02096545 -0.03902481 0.07409995
v 0.02029162 -0.03960424 0.07429999
v 0.01706826 -0.04087983 0.07409995
v 0.01607173 -0.04149633 0.07429999
v 0.01300901 -0.04234683 0.07409995
v 0.01167833 -0.04294025 0.07429999
v 0.00882625 -0.04341179 0.07409995
v 0.00715875 -0.04392039 0.07429999
v 0.00455975 -0.04406470 0.07409995
v 0.00256193 -0.04442614 0.07429999
v 0.00024999 -0.04429924 0.07409995
v -0.00206256 -0.04445213 0.07429999
v -0.00406217 -0.04411333 0.07409995
v -0.00666481 -0.04399806 0.07429999
v -0.00833577 -0.04350864 0.07409995
v -0.01119512 -0.04306876 0.07429999
v -0.01253026 -0.04249095 0.07409995
v -0.01560449 -0.04167430 0.07429999
v -0.01660579 -0.04106986 0.07409995
v -0.01984530 -0.03982973 0.07429999
v -0.02052372 -0.03925895 0.07409995
v -0.02387183 -0.03755503 0.07429999
v -0.02424681 -0.03707534 0.07409995
v -0.02764052 -0.03487473 0.07429999
v -0.02773970 -0.03453975 0.07409995
v -0.03111070 -0.03181779 0.07429999
v -0.03097122 -0.03167837 0.07410281
v -0.03096926 -0.03167634 0.07409995
v -0.03108912 -0.03156048 0.07410120
v -0.03114753 -0.03150105 0.07409995
v -0.03120696 -0.03144263 0.07410031
v -0.03132480 -0.03132480 0.07409995
v -0.03156048 -0.03108906 0.08529871
v -0.03167634 -0.03096926 0.08529996
v -0.03167837 -0.03097122 0.08529716
v -0.03453975 -0.02773970 0.08529996
v -0.03181779 -0.03111070 0.08509999
v -0.03487473 -0.02764052 0.08509999
v -0.03707534 -0.02424681 0.08529996
v -0.03755503 -0.02387183 0.08509999
v -0.03925895 -0.02052372 0.08529996
v -0.03982979 -0.01984530 0.08509999
v -0.04106986 -0.01660579 0.08529996
v -0.04167430 -0.01560449 0.08509999
v -0.04249095 -0.01253026 0.08529996
v -0.04306876 -0.01119512 0.08509999
v -0.04350864 -0.00833577 0.08529996
v -0.04399806 -0.00666481 0.08509999
v -0.04411333 -0.00406217 0.08529996
v -0.04445213 -0.00206256 0.08509999
v -0.04429924 0.00024999 0.08529996
v -0.04442614 0.00256193 0.08509999
v -0.04406470 0.00455975 0.08529996
v -0.04392039 0.00715875 0.08509999
v -0.04341179 0.00882625 0.08529996
v -0.04294025 0.01167833 0.08509999
v -0.04234683 0.01300901 0.08529996
v -0.04149633 0.01607173 0.08509999
v -0.04087983 0.01706826 0.08529996
v -0.03960424 0.02029162 0.08509999
v -0.03902481 0.02096545 0.08529996
v -0.03728449 0.02429229 0.08509999
v -0.03679931 0.02466368 0.08529996
v -0.03456199 0.02803063 0.08509999
v -0.03422451 0.02812772 0.08529996
v -0.03146623 0.03146623 0.08509999
v -0.03132480 0.03132480 0.08529996
v -0.02812772 0.03422451 0.08529996
v -0.03150105 -0.03114753 0.08529996
v -0.03144263 -0.03120696 0.08529967
v -0.03132480 -0.03132480 0.08529996
v -0.02803063 0.03456199 0.08509999
v -0.02466368 0.03679931 0.08529996
v -0.02429229 0.03728443 0.08509999
v -0.02096545 0.03902481 0.08529996
v -0.02029162 0.03960424 0.08509999
v -0.01706826 0.04087983 0.08529996
v -0.01607173 0.04149633 0.08509999
v -0.01300901 0.04234683 0.08529996
v -0.01167833 0.04294025 0.08509999
v -0.00882631 0.04341179 0.08529996
v -0.00715875 0.04392039 0.08509999
v -0.00455975 0.04406470 0.08529996
v -0.00256193 0.04442614 0.08509999
v -0.00025000 0.04429924 0.08529996
v 0.00206256 0.04445213 0.08509999
v 0.00406217 0.04411333 0.08529996
v 0.00666481 0.04399806 0.08509999
v 0.00833577 0.04350864 0.08529996
v 0.01119512 0.04306876 0.08509999
v 0.01253026 0.04249095 0.08529996
v 0.01560449 0.04167430 0.08509999
v 0.01660579 0.04106986 0.08529996
v 0.01984530 0.03982979 0.08509999
v 0.02052372 0.03925895 0.08529996
v 0.02387183 0.03755503 0.08509999
v 0.02424681 0.03707534 0.08529996
v 0.02764052 0.03487473 0.08509999
v 0.02773970 0.03453975 0.08529996
v 0.03111070 0.03181779 0.08509999
v 0.03097122 0.03167837 0.08529716
v 0.03096926 0.03167634 0.08529996
v 0.03108906 0.03156054 0.08529871
v 0.03120696 0.03144263 0.08529967
v 0.03132480 0.03132480 0.08529996
v 0.03156048 0.03108912 0.08529871
v 0.03167634 0.03096926 0.08529996
v 0.03167831 0.03097122 0.08529716
v 0.03453975 0.02773970 0.08529996
v 0.03181779 0.03111070 0.08509999
v 0.03487473 0.02764052 0.08509999
v 0.03707534 0.02424681 0.08529996
v 0.03755503 0.02387183 0.08509999
v 0.03925895 0.02052372 0.08529996
v 0.03982973 0.01984536 0.08509999
v 0.04106986 0.01660579 0.08529996
v 0.04167425 0.01560449 0.08509999
v 0.04249095 0.01253026 0.08529996
v 0.04306870 0.01119512 0.08509999
v 0.04350864 0.00833577 0.08529996
v 0.04399806 0.00666487 0.08509999
v 0.04411333 0.00406217 0.08529996
v 0.04445213 0.00206256 0.08509999
v 0.04429924 -0.00024998 0.08529996
v 0.04442614 -0.00256187 0.08509999
v 0.04406470 -0.00455975 0.08529996
v 0.04392033 -0.00715875 0.08509999
v 0.04341179 -0.00882625 0.08529996
v 0.04294018 -0.01167833 0.08509999
v 0.04234683 -0.01300901 0.08529996
v 0.04149633 -0.01607173 0.08509999
v 0.04087983 -0.01706826 0.08529996
v 0.03960424 -0.02029156 0.08509999
v 0.03902481 -0.02096545 0.08529996
v 0.03728443 -0.02429229 0.08509999
v 0.03679931 -0.02466368 0.08529996
v 0.03456199 -0.02803063 0.08509999
v 0.03422451 -0.02812772 0.08529996
v 0.03146623 -0.03146623 0.08509999
v 0.03132480 -0.03132480 0.08529996
v 0.02812772 -0.03422451 0.08529996
v 0.03150105 0.03114753 0.08529996
v 0.03144263 0.03120696 0.08529967
v 0.03132480 0.03132480 0.08529996
v 0.02803063 -0.03456199 0.08509999
v 0.02466368 -0.03679931 0.08529996
v 0.02429229 -0.03728443 0.08509999
v 0.02096545 -0.03902481 0.08529996
v 0.02029162 -0.03960424 0.08509999
v 0.01706826 -0.04087983 0.08529996
v 0.01607173 -0.04149633 0.08509999
v 0.01300901 -0.04234683 0.08529996
v 0.01167833 -0.04294018 0.08509999
v 0.00882625 -0.04341179 0.08529996
v 0.00715875 -0.04392039 0.08509999
v 0.00455975 -0.04406470 0.08529996
v 0.00256193 -0.04442614 0.08509999
v 0.00024999 -0.04429924 0.08529996
v -0.00206256 -0.04445213 0.08509999
v -0.00406217 -0.04411333 0.08529996
v -0.00666481 -0.04399800 0.08509999
v -0.00833577 -0.04350864 0.08529996
v -0.01119512 -0.04306870 0.08509999
v -0.01253026 -0.04249088 0.08529996
v -0.01560449 -0.04167430 0.08509999
v -0.01660579 -0.04106986 0.08529996
v -0.01984530 -0.03982973 0.08509999
v -0.02052372 -0.03925895 0.08529996
v -0.02387183 -0.03755503 0.08509999
v -0.02424681 -0.03707534 0.08529996
v -0.02764052 -0.03487473 0.08509999
v -0.02773970 -0.03453975 0.08529996
v -0.03111070 -0.03181779 0.08509999
v -0.03097122 -0.03167837 0.08529716
v -0.03096926 -0.03167634 0.08529996
v -0.03108912 -0.03156048 0.08529871
v -0.03120696 -0.03144263 0.08529967
v -0.03132480 -0.03132480 0.08529996
f 1 2 3
f 4 5 6
f 7 8 9
f 3 10 11
f 11 10 12
f 11 12 13
f 13 12 14
f 13 14 15
f 15 14 16
f 15 16 17
f 17 16 18
f 17 18 19
f 19 18 20
f 19 20 21
f 21 20 22
f 21 22 23
f 23 22 24
f 23 24 25
f 25 24 26
f 25 26 27
f 27 26 28
f 27 28 29
f 29 28 30
f 29 30 31
f 31 30 32
f 31 32 33
f 33 32 34
f 33 34 35
f 35 34 36
f 35 36 37
f 37 36 38
f 37 38 39
f 39 38 40
f 39 40 41
f 41 40 42
f 41 42 43
f 43 42 44
f 43 44 45
f 45 44 46
f 45 46 47
f 47 46 48
f 47 48 49
f 49 48 50
f 49 50 51
f 51 50 52
f 51 52 53
f 53 52 54
f 53 54 55
f 55 54 56
f 55 56 57
f 57 56 58
f 57 58 59
f 59 58 60
f 59 60 61
f 61 60 62
f 61 62 63
f 63 62 64
f 63 64 65
f 65 64 66
f 65 66 67
f 67 66 68
f 67 68 69
f 69 68 70
f 71 72 73
f 74 70 75
f 75 70 76
f 77 78 79
f 80 81 82
f 83 84 85
f 85 84 86
f 85 86 87
f 87 86 88
f 87 88 89
f 89 88 90
f 89 90 91
f 91 90 92
f 91 92 93
f 93 92 94
f 93 94 95
f 95 94 96
f 95 96 97
f 97 96 98
f 97 98 99
f 99 98 100
f 99 100 101
f 101 100 102
f 101 102 103
f 103 102 104
f 103 104 105
f 105 104 106
f 105 106 107
f 107 106 108
f 107 108 109
f 109 108 110
f 109 110 111
f 111 110 112
f 111 112 113
f 113 112 114
f 113 114 115
f 115 114 116
f 115 116 117
f 117 116 118
f 117 118 119
f 119 118 120
f 119 120 121
f 121 120 122
f 121 122 123
f 123 122 124
f 123 124 125
f 125 124 126
f 125 126 127
f 127 126 128
f 127 128 129
f 129 128 130
f 129 130 131
f 131 130 132
f 131 132 133
f 133 132 134
f 133 134 135
f 135 134 136
f 135 136 137
f 137 136 138
f 137 138 139
f 139 138 140
f 139 140 141
f 141 140 142
f 141 142 143
f 143 142 144
f 145 146 147
f 148 149 150
f 151 152 153
f 151 153 154
f 154 153 155
f 154 155 156
f 156 155 157
f 156 157 158
f 158 157 159
f 158 159 160
f 161 159 162
f 161 162 163
f 163 162 164
f 163 164 165
f 165 164 166
f 165 166 167
f 167 166 168
f 167 168 169
f 169 168 170
f 169 170 171
f 171 170 172
f 171 172 173
f 173 172 174
f 173 174 175
f 175 174 176
f 175 176 177
f 177 176 178
f 177 178 179
f 179 178 180
f 179 180 181
f 181 180 182
f 181 182 183
f 183 182 184
f 183 184 185
f 185 184 186
f 185 186 187
f 187 186 188
f 187 188 189
f 189 188 190
f 189 190 191
f 191 190 192
f 191 192 193
f 193 192 194
f 193 194 195
f 195 194 196
f 195 196 197
f 197 196 198
f 197 198 199
f 199 198 200
f 199 200 201
f 201 200 202
f 201 202 203
f 203 202 204
f 203 204 205
f 205 204 206
f 205 206 207
f 207 206 208
f 207 208 209
f 209 208 210
f 209 210 211
f 211 210 212
f 211 212 213
f 214 215 216
f 217 218 219
f 220 221 222
f 222 221 223
f 223 221 224
f 225 226 227
f 228 229 230
f 230 229 231
f 230 231 232
f 232 231 233
f 232 233 234
f 234 233 235
f 234 235 236
f 236 235 237
f 236 237 238
f 238 237 239
f 238 239 240
f 240 239 241
f 240 241 242
f 242 241 243
f 242 243 244
f 244 243 245
f 244 245 246
f 246 245 247
f 246 247 248
f 248 247 249
f 248 249 250
f 250 249 251
f 250 251 252
f 252 251 253
f 252 253 254
f 254 253 255
f 254 255 256
f 256 255 257
f 256 257 258
f 258 257 259
f 258 259 260
f 260 259 261
f 260 261 262
f 262 261 263
f 262 263 264
f 264 263 265
f 264 265 266
f 266 265 267
f 266 267 268
f 268 267 269
f 268 269 270
f 270 269 271
f 270 271 272
f 272 271 273
f 272 273 274
f 274 273 275
f 274 275 276
f 276 275 277
f 276 277 278
f 278 277 279
f 278 279 280
f 280 279 281
f 280 281 282
f 282 281 283
f 282 283 284
f 284 283 285
f 284 285 286
f 286 285 287
f 286 287 288
f 288 287 289
f 290 291 292
f 292 291 293
f 294 295 296
f 297 298 299
f 300 301 302
f 303 304 305
f 302 306 307
f 307 306 308
f 307 308 309
f 310 308 311
f 310 311 312
f 313 314 315
f 316 317 318
f 319 320 321
f 319 321 322
f 322 321 323
f 324 325 326
f 327 328 329
f 330 331 332
f 333 334 335
f 336 337 338
f 338 337 339
f 338 340 341
f 342 339 343
f 341 344 345
f 346 343 347
f 345 348 349
f 350 351 352
f 353 354 355
f 356 357 358
f 359 360 361
f 362 363 364
f 365 366 367
f 367 366 368
f 367 368 369
f 369 368 370
f 370 368 371
f 365 372 366
f 366 372 373
f 373 372 374
f 373 374 375
f 375 374 376
f 375 376 377
f 377 376 378
f 377 378 379
f 379 378 380
f 379 380 381
f 381 380 382
f 381 382 383
f 383 382 384
f 383 384 385
f 385 384 386
f 385 386 387
f 387 386 388
f 387 388 389
f 389 388 390
f 389 390 391
f 391 390 392
f 391 392 393
f 393 392 394
f 393 394 395
f 395 394 396
f 395 396 397
f 397 396 398
f 397 398 399
f 399 398 400
f 399 400 401
f 401 400 402
f 402 400 403
f 402 403 404
f 404 403 405
f 404 405 406
f 406 405 407
f 406 407 408
f 408 407 409
f 408 409 410
f 410 409 411
f 410 411 412
f 412 411 413
f 412 413 414
f 414 413 415
f 414 415 416
f 416 415 417
f 416 417 418
f 418 417 419
f 418 419 420
f 420 419 421
f 420 421 422
f 422 421 423
f 422 423 424
f 424 423 425
f 424 425 426
f 426 425 427
f 426 427 428
f 428 427 429
f 428 429 430
f 430 429 431
f 430 431 432
f 430 432 433
f 433 432 434
f 433 434 435
f 435 434 436
f 435 436 437
f 438 439 440
f 440 439 441
f 440 441 442
f 442 441 443
f 443 441 444
f 438 445 439
f 439 445 446
f 446 445 447
f 446 447 448
f 448 447 449
f 448 449 450
f 450 449 451
f 450 451 452
f 452 451 453
f 452 453 454
f 454 453 455
f 454 455 456
f 456 455 457
f 456 457 458
f 458 457 459
f 458 459 460
f 460 459 461
f 460 461 462
f 462 461 463
f 462 463 464
f 464 463 465
f 464 465 466
f 466 465 467
f 466 467 468
f 468 467 469
f 468 469 470
f 470 469 471
f 470 471 472
f 472 471 473
f 472 473 474
f 474 473 475
f 475 473 476
f 475 476 477
f 477 476 478
f 477 478 479
f 479 478 480
f 479 480 481
f 481 480 482
f 481 482 483
f 483 482 484
f 483 484 485
f 485 484 486
f 485 486 487
f 487 486 488
f 487 488 489
f 489 488 490
f 489 490 491
f 491 490 492
f 491 492 493
f 493 492 494
f 493 494 495
f 495 494 496
f 495 496 497
f 497 496 498
f 497 498 499
f 499 498 500
f 499 500 501
f 501 500 502
f 501 502 503
f 503 502 504
f 503 504 505
f 503 505 506
f 506 505 507
f 506 507 508
f 508 507 509
f 508 509 510
f 511 512 513
f 513 512 514
f 513 514 515
f 515 514 516
f 516 514 517
f 516 517 518
f 518 517 519
f 518 519 520
f 520 519 521
f 520 521 522
f 522 521 523
f 522 523 524
f 524 523 525
f 524 525 526
f 526 525 527
f 526 527 528
f 528 527 529
f 528 529 530
f 530 529 531
f 530 531 532
f 532 531 533
f 532 533 534
f 534 533 535
f 534 535 536
f 536 535 537
f 536 537 538
f 538 537 539
f 538 539 540
f 540 539 541
f 540 541 542
f 542 541 543
f 542 543 544
f 544 543 545
f 544 545 546
f 512 511 547
f 547 511 548
f 547 548 549
f 544 546 550
f 550 546 551
f 550 551 552
f 552 551 553
f 552 553 554
f 554 553 555
f 554 555 556
f 556 555 557
f 556 557 558
f 558 557 559
f 558 559 560
f 560 559 561
f 560 561 562
f 562 561 563
f 562 563 564
f 564 563 565
f 564 565 566
f 566 565 567
f 566 567 568
f 568 567 569
f 568 569 570
f 570 569 571
f 570 571 572
f 572 571 573
f 572 573 574
f 574 573 575
f 574 575 576
f 576 575 577
f 576 577 578
f 578 577 579
f 579 577 580
f 579 580 581
f 581 580 582
f 582 580 583
f 584 585 586
f 586 585 587
f 586 587 588
f 588 587 589
f 589 587 590
f 589 590 591
f 591 590 592
f 591 592 593
f 593 592 594
f 593 594 595
f 595 594 596
f 595 596 597
f 597 596 598
f 597 598 599
f 599 598 600
f 599 600 601
f 601 600 602
f 601 602 603
f 603 602 604
f 603 604 605
f 605 604 606
f 605 606 607
f 607 606 608
f 607 608 609
f 609 608 610
f 609 610 611
f 611 610 612
f 611 612 613
f 613 612 614
f 613 614 615
f 615 614 616
f 615 616 617
f 617 616 618
f 617 618 619
f 585 584 620
f 620 584 621
f 620 621 622
f 617 619 623
f 623 619 624
f 623 624 625
f 625 624 626
f 625 626 627
f 627 626 628
f 627 628 629
f 629 628 630
f 629 630 631
f 631 630 632
f 631 632 633
f 633 632 634
f 633 634 635
f 635 634 636
f 635 636 637
f 637 636 638
f 637 638 639
f 639 638 640
f 639 640 641
f 641 640 642
f 641 642 643
f 643 642 644
f 643 644 645
f 645 644 646
f 645 646 647
f 647 646 648
f 647 648 649
f 649 648 650
f 649 650 651
f 651 650 652
f 652 650 653
f 652 653 654
f 654 653 655
f 655 653 656

