# https://github.com/mikedh/trimesh
v -0.00474554 -0.05834995 0.04515123
v -0.00474554 -0.05914997 0.04515123
v 0.00000000 -0.05834995 0.04539996
v 0.00000000 -0.05914997 0.04539996
v 0.00000000 -0.05834995 0.04539996
v 0.00000000 -0.05914997 0.04539996
v 0.00474554 -0.05834995 0.04515123
v 0.00474554 -0.05914997 0.04515123
v 0.00943917 -0.05914997 0.04440784
v -0.00943917 -0.05834995 0.04440784
v -0.00943917 -0.05914997 0.04440784
v -0.01402932 -0.05834995 0.04317790
v -0.01402932 -0.05914997 0.04317790
v -0.01846581 -0.05834995 0.04147493
v -0.01846581 -0.05914997 0.04147493
v -0.02269995 -0.05834995 0.03931748
v -0.02269995 -0.05914997 0.03931748
v -0.02668541 -0.05834995 0.03672933
v -0.02668541 -0.05914997 0.03672933
v -0.03037852 -0.05834995 0.03373873
v -0.03037852 -0.05914997 0.03373873
v -0.03373872 -0.05834995 0.03037852
v -0.03373872 -0.05914997 0.03037852
v -0.03672932 -0.05834995 0.02668541
v -0.03672932 -0.05914997 0.02668541
v -0.03931754 -0.05834995 0.02269995
v -0.03931754 -0.05914997 0.02269995
v -0.04147493 -0.05834995 0.01846581
v -0.04147493 -0.05914997 0.01846581
v -0.04317795 -0.05834995 0.01402932
v -0.04317795 -0.05914997 0.01402932
v -0.04440784 -0.05834995 0.00943917
v -0.04440784 -0.05914997 0.00943917
v -0.04515123 -0.05834995 0.00474554
v -0.04515123 -0.05914997 0.00474554
v -0.04539996 -0.05834995 0.00000000
v -0.04539996 -0.05914997 0.00000000
v -0.04515123 -0.05834995 -0.00474560
v -0.04515123 -0.05914997 -0.00474560
v -0.04440784 -0.05834995 -0.00943917
v -0.04440784 -0.05914997 -0.00943917
v -0.04317795 -0.05834995 -0.01402938
v -0.04317795 -0.05914997 -0.01402938
v -0.04147493 -0.05834995 -0.01846581
v -0.04147493 -0.05914997 -0.01846581
v -0.03931754 -0.05834995 -0.02270001
v -0.03931754 -0.05914997 -0.02270001
v -0.03672932 -0.05834995 -0.02668541
v -0.03672932 -0.05914997 -0.02668541
v -0.03373872 -0.05834995 -0.03037852
v -0.03373872 -0.05914997 -0.03037852
v -0.03037852 -0.05834995 -0.03373873
v -0.03037852 -0.05914997 -0.03373873
v -0.02668541 -0.05834995 -0.03672933
v -0.02668541 -0.05914997 -0.03672933
v -0.02269995 -0.05834995 -0.03931754
v -0.02269995 -0.05914997 -0.03931754
v -0.01846581 -0.05834995 -0.04147493
v -0.01846581 -0.05914997 -0.04147493
v -0.01402932 -0.05834995 -0.04317796
v -0.01402932 -0.05914997 -0.04317796
v -0.00943917 -0.05834995 -0.04440790
v -0.00943917 -0.05914997 -0.04440790
v -0.00474554 -0.05834995 -0.04515129
v -0.00474554 -0.05914997 -0.04515129
v 0.00000000 -0.05834995 -0.04539996
v 0.00000000 -0.05914997 -0.04539996
v 0.00474554 -0.05834995 -0.04515129
v 0.00474554 -0.05914997 -0.04515129
v 0.00943917 -0.05834995 -0.04440790
v 0.00943917 -0.05914997 -0.04440790
v 0.01402938 -0.05834995 -0.04317796
v 0.01402938 -0.05914997 -0.04317796
v 0.01846581 -0.05834995 -0.04147493
v 0.01846581 -0.05914997 -0.04147493
v 0.02269995 -0.05834995 -0.03931754
v 0.02269995 -0.05914997 -0.03931754
v 0.02668541 -0.05834995 -0.03672933
v 0.02668541 -0.05914997 -0.03672933
v 0.03037852 -0.05834995 -0.03373873
v 0.03037852 -0.05914997 -0.03373873
v 0.03373872 -0.05834995 -0.03037852
v 0.03373872 -0.05914997 -0.03037852
v 0.03672932 -0.05834995 -0.02668541
v 0.03672932 -0.05914997 -0.02668541
v 0.03931754 -0.05834995 -0.02270001
v 0.03931754 -0.05914997 -0.02270001
v 0.04147493 -0.05834995 -0.01846581
v 0.04147493 -0.05914997 -0.01846581
v 0.04317795 -0.05834995 -0.01402938
v 0.04317795 -0.05914997 -0.01402938
v 0.04440790 -0.05834995 -0.00943917
v 0.04440790 -0.05914997 -0.00943917
v 0.04515129 -0.05834995 -0.00474560
v 0.04515129 -0.05914997 -0.00474560
v 0.04539996 -0.05834995 0.00000000
v 0.04539996 -0.05914997 0.00000000
v 0.04515129 -0.05834995 0.00474554
v 0.04515129 -0.05914997 0.00474554
v 0.04440790 -0.05834995 0.00943917
v 0.04440790 -0.05914997 0.00943917
v 0.04317795 -0.05834995 0.01402932
v 0.04317795 -0.05914997 0.01402932
v 0.04147493 -0.05834995 0.01846581
v 0.04147493 -0.05914997 0.01846581
v 0.03931754 -0.05834995 0.02269995
v 0.03931754 -0.05914997 0.02269995
v 0.03672932 -0.05834995 0.02668541
v 0.03672932 -0.05914997 0.02668541
v 0.03373872 -0.05834995 0.03037852
v 0.03373872 -0.05914997 0.03037852
v 0.03037852 -0.05834995 0.03373873
v 0.03037852 -0.05914997 0.03373873
v 0.02668541 -0.05834995 0.03672933
v 0.02668541 -0.05914997 0.03672933
v 0.02269995 -0.05834995 0.03931748
v 0.02269995 -0.05914997 0.03931748
v 0.01846581 -0.05834995 0.04147493
v 0.01846581 -0.05914997 0.04147493
v 0.01402932 -0.05834995 0.04317790
v 0.01402932 -0.05914997 0.04317790
v 0.00943917 -0.05834995 0.04440784
v 0.00000000 -0.05814998 0.04519999
v 0.00480443 -0.05814998 0.04494386
v -0.00480443 -0.05814998 0.04494386
v 0.00955444 -0.05814998 0.04417860
v 0.01419621 -0.05814998 0.04291272
v 0.01867717 -0.05814998 0.04116064
v 0.02294647 -0.05814998 0.03894221
v 0.02695578 -0.05814998 0.03628253
v 0.03065967 -0.05814998 0.03321176
v 0.03401618 -0.05814998 0.02976465
v 0.03698724 -0.05814998 0.02598035
v 0.03953927 -0.05814998 0.02190166
v 0.04164325 -0.05814998 0.01757478
v 0.04327540 -0.05814998 0.01304882
v 0.04441732 -0.05814998 0.00837499
v 0.04505586 -0.05814998 0.00360632
v 0.04518395 -0.05814998 -0.00120324
v 0.04480010 -0.05814998 -0.00599921
v 0.04390858 -0.05814998 -0.01072716
v 0.04251962 -0.05814998 -0.01533359
v 0.04064887 -0.05814998 -0.01976627
v 0.03831756 -0.05814998 -0.02397501
v 0.03555208 -0.05814998 -0.02791208
v 0.03238378 -0.05814998 -0.03153294
v 0.02884858 -0.05814998 -0.03479647
v 0.02498656 -0.05814998 -0.03766578
v 0.02084136 -0.05814998 -0.04010832
v 0.01646006 -0.05814998 -0.04209637
v 0.01189219 -0.05814998 -0.04360747
v 0.00718963 -0.05814998 -0.04462450
v 0.00240564 -0.05814998 -0.04513591
v -0.00240558 -0.05814998 -0.04513591
v -0.00718963 -0.05814998 -0.04462450
v -0.00955444 -0.05814998 0.04417860
v -0.01189219 -0.05814998 -0.04360747
v -0.01419621 -0.05814998 0.04291272
v -0.01646000 -0.05814998 -0.04209637
v -0.01867717 -0.05814998 0.04116064
v -0.02084136 -0.05814998 -0.04010832
v -0.02294647 -0.05814998 0.03894221
v -0.02498650 -0.05814998 -0.03766578
v -0.02695578 -0.05814998 0.03628253
v -0.02884858 -0.05814998 -0.03479647
v -0.03065967 -0.05814998 0.03321176
v -0.03238378 -0.05814998 -0.03153294
v -0.03401618 -0.05814998 0.02976465
v -0.03555208 -0.05814998 -0.02791208
v -0.03698724 -0.05814998 0.02598035
v -0.03831756 -0.05814998 -0.02397501
v -0.03953927 -0.05814998 0.02190166
v -0.04064887 -0.05814998 -0.01976627
v -0.04164325 -0.05814998 0.01757478
v -0.04251962 -0.05814998 -0.01533359
v -0.04327547 -0.05814998 0.01304882
v -0.04390858 -0.05814998 -0.01072716
v -0.04441725 -0.05814998 0.00837499
v -0.04480010 -0.05814998 -0.00599921
v -0.04505586 -0.05814998 0.00360632
v -0.04518395 -0.05814998 -0.00120324
v 0.00474554 -0.05914997 0.04515123
v 0.00000000 -0.05914997 0.04539996
v 0.00000000 -0.05914997 0.04275000
v -0.00474554 -0.05914997 0.04515123
v -0.00462204 -0.05914997 0.04249936
v -0.00943917 -0.05914997 0.04440784
v -0.00918996 -0.05914997 0.04175049
v -0.01402932 -0.05914997 0.04317790
v -0.01365011 -0.05914997 0.04051214
v -0.01846581 -0.05914997 0.04147493
v -0.01795023 -0.05914997 0.03879880
v -0.02269995 -0.05914997 0.03931748
v -0.02203989 -0.05914997 0.03663063
v -0.02668541 -0.05914997 0.03672933
v -0.02587115 -0.05914997 0.03403294
v -0.03037852 -0.05914997 0.03373873
v -0.02939915 -0.05914997 0.03103625
v -0.03373872 -0.05914997 0.03037852
v -0.03258239 -0.05914997 0.02767574
v -0.03672932 -0.05914997 0.02668541
v -0.03538370 -0.05914997 0.02399069
v -0.03931754 -0.05914997 0.02269995
v -0.03777009 -0.05914997 0.02002441
v -0.04147493 -0.05914997 0.01846581
v -0.03971374 -0.05914997 0.01582336
v -0.04317795 -0.05914997 0.01402932
v -0.04119175 -0.05914997 0.01143682
v -0.04440784 -0.05914997 0.00943917
v -0.04218679 -0.05914997 0.00691616
v -0.04515123 -0.05914997 0.00474554
v -0.04268729 -0.05914997 0.00231439
v -0.04539996 -0.05914997 0.00000000
v -0.04268729 -0.05914997 -0.00231445
v -0.04515123 -0.05914997 -0.00474560
v -0.04218679 -0.05914997 -0.00691616
v -0.04440784 -0.05914997 -0.00943917
v -0.04119175 -0.05914997 -0.01143682
v -0.04317795 -0.05914997 -0.01402938
v -0.03971374 -0.05914997 -0.01582342
v -0.04147493 -0.05914997 -0.01846581
v -0.03777009 -0.05914997 -0.02002441
v -0.03931754 -0.05914997 -0.02270001
v -0.03538364 -0.05914997 -0.02399075
v -0.03672932 -0.05914997 -0.02668541
v -0.03258239 -0.05914997 -0.02767574
v -0.03373872 -0.05914997 -0.03037852
v -0.02939909 -0.05914997 -0.03103631
v -0.03037852 -0.05914997 -0.03373873
v -0.02587115 -0.05914997 -0.03403294
v -0.02668541 -0.05914997 -0.03672933
v -0.02203989 -0.05914997 -0.03663063
v -0.02269995 -0.05914997 -0.03931754
v -0.01795023 -0.05914997 -0.03879880
v -0.01846581 -0.05914997 -0.04147493
v -0.01365011 -0.05914997 -0.04051214
v -0.01402932 -0.05914997 -0.04317796
v -0.00918996 -0.05914997 -0.04175049
v -0.00943917 -0.05914997 -0.04440790
v -0.00462204 -0.05914997 -0.04249936
v -0.00474554 -0.05914997 -0.04515129
v 0.00000000 -0.05914997 -0.04275000
v 0.00000000 -0.05914997 -0.04539996
v 0.00474554 -0.05914997 -0.04515129
v 0.00462204 -0.05914997 -0.04249936
v 0.00943917 -0.05914997 -0.04440790
v 0.00918996 -0.05914997 -0.04175049
v 0.01402938 -0.05914997 -0.04317796
v 0.01365011 -0.05914997 -0.04051214
v 0.01846581 -0.05914997 -0.04147493
v 0.01795023 -0.05914997 -0.03879880
v 0.02269995 -0.05914997 -0.03931754
v 0.02203989 -0.05914997 -0.03663063
v 0.02668541 -0.05914997 -0.03672933
v 0.02587115 -0.05914997 -0.03403294
v 0.03037852 -0.05914997 -0.03373873
v 0.02939915 -0.05914997 -0.03103631
v 0.03373872 -0.05914997 -0.03037852
v 0.03258239 -0.05914997 -0.02767574
v 0.03672932 -0.05914997 -0.02668541
v 0.03538370 -0.05914997 -0.02399075
v 0.03931754 -0.05914997 -0.02270001
v 0.03777009 -0.05914997 -0.02002441
v 0.04147493 -0.05914997 -0.01846581
v 0.03971374 -0.05914997 -0.01582342
v 0.04317795 -0.05914997 -0.01402938
v 0.04119175 -0.05914997 -0.01143682
v 0.04440790 -0.05914997 -0.00943917
v 0.04218679 -0.05914997 -0.00691616
v 0.04515129 -0.05914997 -0.00474560
v 0.04268729 -0.05914997 -0.00231445
v 0.04539996 -0.05914997 0.00000000
v 0.04268729 -0.05914997 0.00231439
v 0.04515129 -0.05914997 0.00474554
v 0.04218679 -0.05914997 0.00691616
v 0.04440790 -0.05914997 0.00943917
v 0.04119175 -0.05914997 0.01143682
v 0.04317795 -0.05914997 0.01402932
v 0.03971374 -0.05914997 0.01582336
v 0.04147493 -0.05914997 0.01846581
v 0.03777009 -0.05914997 0.02002441
v 0.03931754 -0.05914997 0.02269995
v 0.03538370 -0.05914997 0.02399069
v 0.03672932 -0.05914997 0.02668541
v 0.03258239 -0.05914997 0.02767574
v 0.03373872 -0.05914997 0.03037852
v 0.02939909 -0.05914997 0.03103625
v 0.03037852 -0.05914997 0.03373873
v 0.02587115 -0.05914997 0.03403294
v 0.02668541 -0.05914997 0.03672933
v 0.02203989 -0.05914997 0.03663063
v 0.02269995 -0.05914997 0.03931748
v 0.01795023 -0.05914997 0.03879880
v 0.01846581 -0.05914997 0.04147493
v 0.01365011 -0.05914997 0.04051214
v 0.01402932 -0.05914997 0.04317790
v 0.00918996 -0.05914997 0.04175049
v 0.00943917 -0.05914997 0.04440784
v 0.00462204 -0.05914997 0.04249936
v -0.00462204 -0.06214999 -0.04249936
v -0.00462204 -0.05914997 -0.04249936
v 0.00000000 -0.06214999 -0.04275000
v 0.00000000 -0.05914997 -0.04275000
v 0.00462204 -0.06214999 -0.04249936
v 0.00462204 -0.05914997 -0.04249936
v 0.00918996 -0.06214999 -0.04175049
v 0.00918996 -0.05914997 -0.04175049
v 0.01365011 -0.06214999 -0.04051214
v 0.01365011 -0.05914997 -0.04051214
v 0.01795023 -0.06214999 -0.03879880
v 0.01795023 -0.05914997 -0.03879880
v 0.02203989 -0.06214999 -0.03663063
v 0.02203989 -0.05914997 -0.03663063
v 0.02587115 -0.06214993 -0.03403294
v 0.02587115 -0.05914997 -0.03403294
v 0.02939915 -0.06214993 -0.03103631
v 0.02939915 -0.05914997 -0.03103631
v 0.03258239 -0.06214993 -0.02767574
v 0.03258239 -0.05914997 -0.02767574
v 0.03538370 -0.06214993 -0.02399075
v 0.03538370 -0.05914997 -0.02399075
v 0.03777009 -0.06214993 -0.02002441
v 0.03777009 -0.05914997 -0.02002441
v 0.03971374 -0.06214993 -0.01582342
v 0.03971374 -0.05914997 -0.01582342
v 0.04119175 -0.06214993 -0.01143682
v 0.04119175 -0.05914997 -0.01143682
v 0.04218679 -0.06214993 -0.00691616
v 0.04218679 -0.05914997 -0.00691616
v 0.04268729 -0.06214993 -0.00231445
v 0.04268729 -0.05914997 -0.00231445
v 0.04268729 -0.06214993 0.00231439
v 0.04268729 -0.05914997 0.00231439
v 0.04218679 -0.06214993 0.00691616
v 0.04218679 -0.05914997 0.00691616
v 0.04119175 -0.06214993 0.01143682
v 0.04119175 -0.05914997 0.01143682
v 0.03971374 -0.06214993 0.01582336
v 0.03971374 -0.05914997 0.01582336
v 0.03777009 -0.06214993 0.02002441
v 0.03777009 -0.05914997 0.02002441
v 0.03538370 -0.06214993 0.02399069
v 0.03538370 -0.05914997 0.02399069
v 0.03258239 -0.06214993 0.02767574
v 0.03258239 -0.05914997 0.02767574
v 0.02939909 -0.06214993 0.03103625
v 0.02939909 -0.05914997 0.03103625
v 0.02587115 -0.06214993 0.03403294
v 0.02587115 -0.05914997 0.03403294
v 0.02203989 -0.06214999 0.03663063
v 0.02203989 -0.05914997 0.03663063
v 0.01795023 -0.06214999 0.03879880
v 0.01795023 -0.05914997 0.03879880
v 0.01365011 -0.06214999 0.04051214
v 0.01365011 -0.05914997 0.04051214
v 0.00918996 -0.06214999 0.04175049
v 0.00918996 -0.05914997 0.04175049
v 0.00462204 -0.06214999 0.04249936
v 0.00462204 -0.05914997 0.04249936
v 0.00000000 -0.06214999 0.04275000
v 0.00000000 -0.05914997 0.04275000
v -0.00462204 -0.06214999 0.04249936
v -0.00462204 -0.05914997 0.04249936
v -0.00918996 -0.06214999 0.04175049
v -0.00918996 -0.05914997 0.04175049
v -0.01365011 -0.06214999 0.04051214
v -0.01365011 -0.05914997 0.04051214
v -0.01795023 -0.06214999 0.03879880
v -0.01795023 -0.05914997 0.03879880
v -0.02203989 -0.06214999 0.03663063
v -0.02203989 -0.05914997 0.03663063
v -0.02587115 -0.06214999 0.03403294
v -0.02587115 -0.05914997 0.03403294
v -0.02939915 -0.06214999 0.03103625
v -0.02939915 -0.05914997 0.03103625
v -0.03258239 -0.06214999 0.02767574
v -0.03258239 -0.05914997 0.02767574
v -0.03538370 -0.06214999 0.02399069
v -0.03538370 -0.05914997 0.02399069
v -0.03777009 -0.06214999 0.02002441
v -0.03777009 -0.05914997 0.02002441
v -0.03971374 -0.06214999 0.01582336
v -0.03971374 -0.05914997 0.01582336
v -0.04119175 -0.06214999 0.01143682
v -0.04119175 -0.05914997 0.01143682
v -0.04218679 -0.06214999 0.00691616
v -0.04218679 -0.05914997 0.00691616
v -0.04268729 -0.06214999 0.00231439
v -0.04268729 -0.05914997 0.00231439
v -0.04268729 -0.06214999 -0.00231445
v -0.04268729 -0.05914997 -0.00231445
v -0.04218679 -0.06214999 -0.00691616
v -0.04218679 -0.05914997 -0.00691616
v -0.04119175 -0.06214999 -0.01143682
v -0.04119175 -0.05914997 -0.01143682
v -0.03971374 -0.06214999 -0.01582342
v -0.03971374 -0.05914997 -0.01582342
v -0.03777009 -0.06214999 -0.02002441
v -0.03777009 -0.05914997 -0.02002441
v -0.03538364 -0.06214999 -0.02399075
v -0.03538364 -0.05914997 -0.02399075
v -0.03258239 -0.06214999 -0.02767574
v -0.03258239 -0.05914997 -0.02767574
v -0.02939909 -0.06214999 -0.03103631
v -0.02939909 -0.05914997 -0.03103631
v -0.02587115 -0.06214999 -0.03403294
v -0.02587115 -0.05914997 -0.03403294
v -0.02203989 -0.06214999 -0.03663063
v -0.02203989 -0.05914997 -0.03663063
v -0.01795023 -0.06214999 -0.03879880
v -0.01795023 -0.05914997 -0.03879880
v -0.01365011 -0.06214999 -0.04051214
v -0.01365011 -0.05914997 -0.04051214
v -0.00918996 -0.06214999 -0.04175049
v -0.00918996 -0.05914997 -0.04175049
v 0.00462204 -0.06214999 -0.04249936
v 0.00462204 -0.06214999 0.04249936
v 0.00000000 -0.06214999 -0.04275000
v 0.00000000 -0.06214999 0.04275000
v -0.00462204 -0.06214999 -0.04249936
v -0.00462204 -0.06214999 0.04249936
v -0.00918996 -0.06214999 -0.04175049
v -0.00918996 -0.06214999 0.04175049
v -0.01365011 -0.06214999 -0.04051214
v -0.01365011 -0.06214999 0.04051214
v -0.01795023 -0.06214999 -0.03879880
v -0.01795023 -0.06214999 0.03879880
v -0.02203989 -0.06214999 -0.03663063
v -0.02203989 -0.06214999 0.03663063
v -0.02587115 -0.06214999 -0.03403294
v -0.02587115 -0.06214999 0.03403294
v -0.02939909 -0.06214999 -0.03103631
v -0.02939915 -0.06214999 0.03103625
v -0.03258239 -0.06214999 -0.02767574
v -0.03258239 -0.06214999 0.02767574
v -0.03538364 -0.06214999 -0.02399075
v -0.03538370 -0.06214999 0.02399069
v -0.03777009 -0.06214999 -0.02002441
v -0.03777009 -0.06214999 0.02002441
v -0.03971374 -0.06214999 -0.01582342
v -0.03971374 -0.06214999 0.01582336
v -0.04119175 -0.06214999 -0.01143682
v -0.04119175 -0.06214999 0.01143682
v -0.04218679 -0.06214999 -0.00691616
v -0.04218679 -0.06214999 0.00691616
v -0.04268729 -0.06214999 -0.00231445
v -0.04268729 -0.06214999 0.00231439
v 0.00918996 -0.06214999 0.04175049
v 0.00918996 -0.06214999 -0.04175049
v 0.01365011 -0.06214999 0.04051214
v 0.01365011 -0.06214999 -0.04051214
v 0.01795023 -0.06214999 0.03879880
v 0.01795023 -0.06214999 -0.03879880
v 0.02203989 -0.06214999 0.03663063
v 0.02203989 -0.06214999 -0.03663063
v 0.02587115 -0.06214993 0.03403294
v 0.02587115 -0.06214993 -0.03403294
v 0.02939909 -0.06214993 0.03103625
v 0.02939915 -0.06214993 -0.03103631
v 0.03258239 -0.06214993 0.02767574
v 0.03258239 -0.06214993 -0.02767574
v 0.03538370 -0.06214993 0.02399069
v 0.03538370 -0.06214993 -0.02399075
v 0.03777009 -0.06214993 0.02002441
v 0.03777009 -0.06214993 -0.02002441
v 0.03971374 -0.06214993 0.01582336
v 0.03971374 -0.06214993 -0.01582342
v 0.04119175 -0.06214993 0.01143682
v 0.04119175 -0.06214993 -0.01143682
v 0.04218679 -0.06214993 0.00691616
v 0.04218679 -0.06214993 -0.00691616
v 0.04268729 -0.06214993 0.00231439
v 0.04268729 -0.06214993 -0.00231445
v -0.00480443 -0.05814998 0.04494386
v -0.00474554 -0.05834995 0.04515123
v 0.00000000 -0.05814998 0.04519999
v 0.00000000 -0.05834995 0.04539996
v 0.00000000 -0.05814998 0.04519999
v 0.00000000 -0.05834995 0.04539996
v 0.00474554 -0.05834995 0.04515123
v -0.00943917 -0.05834995 0.04440784
v -0.00955444 -0.05814998 0.04417860
v -0.01402932 -0.05834995 0.04317790
v -0.01419621 -0.05814998 0.04291272
v -0.01846581 -0.05834995 0.04147493
v -0.01867717 -0.05814998 0.04116064
v -0.02269995 -0.05834995 0.03931748
v -0.02294647 -0.05814998 0.03894221
v -0.02668541 -0.05834995 0.03672933
v -0.02695578 -0.05814998 0.03628253
v -0.03037852 -0.05834995 0.03373873
v -0.03065967 -0.05814998 0.03321176
v -0.03373872 -0.05834995 0.03037852
v -0.03401618 -0.05814998 0.02976465
v -0.03672932 -0.05834995 0.02668541
v -0.03698724 -0.05814998 0.02598035
v -0.03931754 -0.05834995 0.02269995
v -0.03953927 -0.05814998 0.02190166
v -0.04147493 -0.05834995 0.01846581
v -0.04164325 -0.05814998 0.01757478
v -0.04317795 -0.05834995 0.01402932
v -0.04327547 -0.05814998 0.01304882
v -0.04440784 -0.05834995 0.00943917
v -0.04441725 -0.05814998 0.00837499
v -0.04515123 -0.05834995 0.00474554
v -0.04505586 -0.05814998 0.00360632
v -0.04539996 -0.05834995 0.00000000
v -0.04518395 -0.05814998 -0.00120324
v -0.04515123 -0.05834995 -0.00474560
v -0.04480010 -0.05814998 -0.00599921
v -0.04440784 -0.05834995 -0.00943917
v -0.04390858 -0.05814998 -0.01072716
v -0.04317795 -0.05834995 -0.01402938
v -0.04251962 -0.05814998 -0.01533359
v -0.04147493 -0.05834995 -0.01846581
v -0.04064887 -0.05814998 -0.01976627
v -0.03931754 -0.05834995 -0.02270001
v -0.03831756 -0.05814998 -0.02397501
v -0.03672932 -0.05834995 -0.02668541
v -0.03555208 -0.05814998 -0.02791208
v -0.03373872 -0.05834995 -0.03037852
v -0.03238378 -0.05814998 -0.03153294
v -0.03037852 -0.05834995 -0.03373873
v -0.02884858 -0.05814998 -0.03479647
v -0.02668541 -0.05834995 -0.03672933
v -0.02498650 -0.05814998 -0.03766578
v -0.02269995 -0.05834995 -0.03931754
v -0.02084136 -0.05814998 -0.04010832
v -0.01846581 -0.05834995 -0.04147493
v -0.01646000 -0.05814998 -0.04209637
v -0.01402932 -0.05834995 -0.04317796
v -0.01189219 -0.05814998 -0.04360747
v -0.00943917 -0.05834995 -0.04440790
v -0.00718963 -0.05814998 -0.04462450
v -0.00474554 -0.05834995 -0.04515129
v -0.00240558 -0.05814998 -0.04513591
v 0.00000000 -0.05834995 -0.04539996
v 0.00240564 -0.05814998 -0.04513591
v 0.00474554 -0.05834995 -0.04515129
v 0.00718963 -0.05814998 -0.04462450
v 0.00943917 -0.05834995 -0.04440790
v 0.01189219 -0.05814998 -0.04360747
v 0.01402938 -0.05834995 -0.04317796
v 0.01646006 -0.05814998 -0.04209637
v 0.01846581 -0.05834995 -0.04147493
v 0.02084136 -0.05814998 -0.04010832
v 0.02269995 -0.05834995 -0.03931754
v 0.02498656 -0.05814998 -0.03766578
v 0.02668541 -0.05834995 -0.03672933
v 0.02884858 -0.05814998 -0.03479647
v 0.03037852 -0.05834995 -0.03373873
v 0.03238378 -0.05814998 -0.03153294
v 0.03373872 -0.05834995 -0.03037852
v 0.03555208 -0.05814998 -0.02791208
v 0.03672932 -0.05834995 -0.02668541
v 0.03831756 -0.05814998 -0.02397501
v 0.03931754 -0.05834995 -0.02270001
v 0.04064887 -0.05814998 -0.01976627
v 0.04147493 -0.05834995 -0.01846581
v 0.04251962 -0.05814998 -0.01533359
v 0.04317795 -0.05834995 -0.01402938
v 0.04390858 -0.05814998 -0.01072716
v 0.04440790 -0.05834995 -0.00943917
v 0.04480010 -0.05814998 -0.00599921
v 0.04515129 -0.05834995 -0.00474560
v 0.04518395 -0.05814998 -0.00120324
v 0.04539996 -0.05834995 0.00000000
v 0.04505586 -0.05814998 0.00360632
v 0.04515129 -0.05834995 0.00474554
v 0.04441732 -0.05814998 0.00837499
v 0.04440790 -0.05834995 0.00943917
v 0.04327540 -0.05814998 0.01304882
v 0.04317795 -0.05834995 0.01402932
v 0.04164325 -0.05814998 0.01757478
v 0.04147493 -0.05834995 0.01846581
v 0.03953927 -0.05814998 0.02190166
v 0.03931754 -0.05834995 0.02269995
v 0.03698724 -0.05814998 0.02598035
v 0.03672932 -0.05834995 0.02668541
v 0.03401618 -0.05814998 0.02976465
v 0.03373872 -0.05834995 0.03037852
v 0.03065967 -0.05814998 0.03321176
v 0.03037852 -0.05834995 0.03373873
v 0.02695578 -0.05814998 0.03628253
v 0.02668541 -0.05834995 0.03672933
v 0.02294647 -0.05814998 0.03894221
v 0.02269995 -0.05834995 0.03931748
v 0.01867717 -0.05814998 0.04116064
v 0.01846581 -0.05834995 0.04147493
v 0.01419621 -0.05814998 0.04291272
v 0.01402932 -0.05834995 0.04317790
v 0.00955444 -0.05814998 0.04417860
v 0.00943917 -0.05834995 0.04440784
v 0.00480443 -0.05814998 0.04494386
v 0.03923398 -0.06334995 0.28187630
v 0.03947627 -0.06234996 0.28600001
v 0.03945010 -0.06334995 0.28600001
v 0.03945010 -0.06334995 0.28600001
v 0.03947627 -0.06234996 0.28600001
v 0.03926001 -0.06234996 0.29012641
v 0.03923398 -0.06334995 0.29012370
v 0.03861361 -0.06234996 0.29420760
v 0.03858798 -0.06334995 0.29420209
v 0.03754419 -0.06234996 0.29819879
v 0.03751926 -0.06334995 0.29819071
v 0.03606337 -0.06234996 0.30205640
v 0.03603947 -0.06334995 0.30204579
v 0.03418742 -0.06234996 0.30573821
v 0.03416478 -0.06334995 0.30572501
v 0.03193694 -0.06234996 0.30920359
v 0.03191578 -0.06334995 0.30918819
v 0.02933657 -0.06234996 0.31241480
v 0.02931714 -0.06334995 0.31239730
v 0.02641475 -0.06234996 0.31533661
v 0.02639722 -0.06334995 0.31531709
v 0.02320355 -0.06234996 0.31793699
v 0.02318817 -0.06334995 0.31791580
v 0.01973813 -0.06234996 0.32018751
v 0.01972502 -0.06334995 0.32016480
v 0.01605641 -0.06234996 0.32206339
v 0.01604574 -0.06334995 0.32203940
v 0.01219880 -0.06234996 0.32354420
v 0.01219069 -0.06334995 0.32351929
v 0.00820750 -0.06234996 0.32461360
v 0.00820207 -0.06334995 0.32458809
v 0.00412631 -0.06234996 0.32526010
v 0.00412357 -0.06334995 0.32523409
v 0.00000000 -0.06234996 0.32547629
v 0.00000000 -0.06334995 0.32545009
v -0.00412643 -0.06234996 0.32526010
v -0.00412369 -0.06334995 0.32523409
v -0.00820762 -0.06234996 0.32461360
v -0.00820213 -0.06334995 0.32458809
v -0.01219886 -0.06234996 0.32354420
v -0.01219075 -0.06334995 0.32351929
v -0.01605647 -0.06234996 0.32206339
v -0.01604580 -0.06334995 0.32203940
v -0.01973819 -0.06234996 0.32018751
v -0.01972508 -0.06334995 0.32016480
v -0.02320361 -0.06234996 0.31793699
v -0.02318823 -0.06334995 0.31791580
v -0.02641481 -0.06234996 0.31533661
v -0.02639728 -0.06334995 0.31531709
v -0.02933663 -0.06234996 0.31241480
v -0.02931720 -0.06334995 0.31239730
v -0.03193706 -0.06234996 0.30920359
v -0.03191584 -0.06334995 0.30918819
v -0.03418748 -0.06234996 0.30573821
v -0.03416483 -0.06334995 0.30572501
v -0.03606343 -0.06234996 0.30205640
v -0.03603953 -0.06334995 0.30204579
v -0.03754425 -0.06234996 0.29819879
v -0.03751932 -0.06334995 0.29819071
v -0.03861367 -0.06234996 0.29420760
v -0.03858810 -0.06334995 0.29420209
v -0.03926007 -0.06234996 0.29012641
v -0.03923403 -0.06334995 0.29012370
v -0.03947633 -0.06234996 0.28600001
v -0.03945016 -0.06334995 0.28600001
v -0.03926007 -0.06234996 0.28187349
v -0.03923403 -0.06334995 0.28187630
v -0.03861367 -0.06234996 0.27779230
v -0.03858804 -0.06334995 0.27779779
v -0.03754425 -0.06234996 0.27380109
v -0.03751932 -0.06334995 0.27380919
v -0.03606343 -0.06234996 0.26994351
v -0.03603953 -0.06334995 0.26995420
v -0.03418748 -0.06234996 0.26626179
v -0.03416483 -0.06334995 0.26627490
v -0.03193700 -0.06234996 0.26279640
v -0.03191584 -0.06334995 0.26281169
v -0.02933663 -0.06234996 0.25958520
v -0.02931720 -0.06334995 0.25960270
v -0.02641481 -0.06234996 0.25666329
v -0.02639728 -0.06334995 0.25668281
v -0.02320361 -0.06234996 0.25406301
v -0.02318823 -0.06334995 0.25408411
v -0.01973819 -0.06234996 0.25181249
v -0.01972508 -0.06334995 0.25183520
v -0.01605647 -0.06234996 0.24993651
v -0.01604580 -0.06334995 0.24996039
v -0.01219886 -0.06234996 0.24845570
v -0.01219075 -0.06334995 0.24848060
v -0.00820762 -0.06234996 0.24738631
v -0.00820213 -0.06334995 0.24741191
v -0.00412637 -0.06234996 0.24673989
v -0.00412369 -0.06334995 0.24676590
v 0.00000000 -0.06234996 0.24652360
v 0.00000000 -0.06334995 0.24654980
v 0.00412637 -0.06234996 0.24673989
v 0.00412363 -0.06334995 0.24676590
v 0.00820756 -0.06234996 0.24738631
v 0.00820207 -0.06334995 0.24741191
v 0.01219880 -0.06234996 0.24845570
v 0.01219069 -0.06334995 0.24848060
v 0.01605641 -0.06234996 0.24993651
v 0.01604574 -0.06334995 0.24996039
v 0.01973813 -0.06234996 0.25181249
v 0.01972502 -0.06334995 0.25183520
v 0.02320355 -0.06234996 0.25406301
v 0.02318817 -0.06334995 0.25408411
v 0.02641475 -0.06234996 0.25666329
v 0.02639722 -0.06334995 0.25668281
v 0.02933657 -0.06234996 0.25958520
v 0.02931714 -0.06334995 0.25960270
v 0.03193694 -0.06234996 0.26279640
v 0.03191578 -0.06334995 0.26281169
v 0.03418742 -0.06234996 0.26626179
v 0.03416478 -0.06334995 0.26627490
v 0.03606337 -0.06234996 0.26994351
v 0.03603947 -0.06334995 0.26995420
v 0.03754419 -0.06234996 0.27380109
v 0.03751926 -0.06334995 0.27380919
v 0.03861361 -0.06234996 0.27779230
v 0.03858798 -0.06334995 0.27779779
v 0.03926001 -0.06234996 0.28187349
v 0.03926001 -0.06234996 0.28187349
v -0.03926007 -0.06234996 0.28187349
v 0.03947627 -0.06234996 0.28600001
v -0.03947633 -0.06234996 0.28600001
v 0.03926001 -0.06234996 0.29012641
v -0.03926007 -0.06234996 0.29012641
v 0.03861361 -0.06234996 0.29420760
v -0.03861367 -0.06234996 0.29420760
v 0.03754419 -0.06234996 0.29819879
v -0.03754425 -0.06234996 0.29819879
v 0.03606337 -0.06234996 0.30205640
v -0.03606343 -0.06234996 0.30205640
v 0.03418742 -0.06234996 0.30573821
v -0.03418748 -0.06234996 0.30573821
v 0.03193694 -0.06234996 0.30920359
v -0.03193706 -0.06234996 0.30920359
v 0.02933657 -0.06234996 0.31241480
v -0.02933663 -0.06234996 0.31241480
v 0.02641475 -0.06234996 0.31533661
v -0.02641481 -0.06234996 0.31533661
v 0.02320355 -0.06234996 0.31793699
v -0.02320361 -0.06234996 0.31793699
v 0.01973813 -0.06234996 0.32018751
v 0.01973813 -0.06234996 0.32018751
v -0.01973819 -0.06234996 0.32018751
v 0.01605641 -0.06234996 0.32206339
v -0.01605647 -0.06234996 0.32206339
v 0.01219880 -0.06234996 0.32354420
v -0.01219886 -0.06234996 0.32354420
v -0.01219886 -0.06234996 0.32354420
v 0.00820750 -0.06234996 0.32461360
v -0.00820762 -0.06234996 0.32461360
v 0.00412631 -0.06234996 0.32526010
v 0.00412631 -0.06234996 0.32526010
v -0.00820762 -0.06234996 0.32461360
v -0.00412643 -0.06234996 0.32526010
v -0.00412643 -0.06234996 0.32526010
v 0.00000000 -0.06234996 0.32547629
v -0.03861367 -0.06234996 0.27779230
v 0.03861361 -0.06234996 0.27779230
v -0.03754425 -0.06234996 0.27380109
v 0.03754419 -0.06234996 0.27380109
v -0.03606343 -0.06234996 0.26994351
v 0.03606337 -0.06234996 0.26994351
v -0.03418748 -0.06234996 0.26626179
v 0.03418742 -0.06234996 0.26626179
v -0.03193700 -0.06234996 0.26279640
v 0.03193694 -0.06234996 0.26279640
v -0.02933663 -0.06234996 0.25958520
v 0.02933657 -0.06234996 0.25958520
v -0.02641481 -0.06234996 0.25666329
v 0.02641475 -0.06234996 0.25666329
v -0.02320361 -0.06234996 0.25406301
v 0.02320355 -0.06234996 0.25406301
v -0.01973819 -0.06234996 0.25181249
v 0.01973813 -0.06234996 0.25181249
v -0.01605647 -0.06234996 0.24993651
v 0.01605641 -0.06234996 0.24993651
v -0.01219886 -0.06234996 0.24845570
v -0.01219886 -0.06234996 0.24845570
v 0.01605641 -0.06234996 0.24993651
v 0.01219880 -0.06234996 0.24845570
v 0.01219880 -0.06234996 0.24845570
v -0.00820762 -0.06234996 0.24738631
v 0.00820756 -0.06234996 0.24738631
v -0.00820762 -0.06234996 0.24738631
v 0.00820756 -0.06234996 0.24738631
v -0.00412637 -0.06234996 0.24673989
v 0.00412637 -0.06234996 0.24673989
v -0.00412637 -0.06234996 0.24673989
v 0.00412637 -0.06234996 0.24673989
v 0.00000000 -0.06234996 0.24652360
v 0.03923398 -0.06334995 0.29012370
v -0.03923403 -0.06334995 0.29012370
v 0.03945010 -0.06334995 0.28600001
v -0.03945016 -0.06334995 0.28600001
v 0.03923398 -0.06334995 0.28187630
v -0.03923403 -0.06334995 0.28187630
v 0.03858798 -0.06334995 0.27779779
v -0.03858804 -0.06334995 0.27779779
v 0.03751926 -0.06334995 0.27380919
v -0.03751932 -0.06334995 0.27380919
v 0.03603947 -0.06334995 0.26995420
v -0.03603953 -0.06334995 0.26995420
v 0.03416478 -0.06334995 0.26627490
v -0.03416483 -0.06334995 0.26627490
v 0.03191578 -0.06334995 0.26281169
v -0.03191584 -0.06334995 0.26281169
v 0.02931714 -0.06334995 0.25960270
v -0.02931720 -0.06334995 0.25960270
v 0.02639722 -0.06334995 0.25668281
v -0.02639728 -0.06334995 0.25668281
v 0.02318817 -0.06334995 0.25408411
v -0.02318823 -0.06334995 0.25408411
v 0.01972502 -0.06334995 0.25183520
v -0.01972508 -0.06334995 0.25183520
v 0.01604574 -0.06334995 0.24996039
v -0.01604580 -0.06334995 0.24996039
v 0.01219069 -0.06334995 0.24848060
v -0.01219075 -0.06334995 0.24848060
v 0.00820207 -0.06334995 0.24741191
v -0.00820213 -0.06334995 0.24741191
v 0.00820207 -0.06334995 0.24741191
v -0.00820213 -0.06334995 0.24741191
v 0.00412363 -0.06334995 0.24676590
v -0.00412369 -0.06334995 0.24676590
v 0.00412363 -0.06334995 0.24676590
v -0.00412369 -0.06334995 0.24676590
v 0.00000000 -0.06334995 0.24654980
v -0.03858810 -0.06334995 0.29420209
v 0.03858798 -0.06334995 0.29420209
v -0.03751932 -0.06334995 0.29819071
v 0.03751926 -0.06334995 0.29819071
v -0.03603953 -0.06334995 0.30204579
v 0.03603947 -0.06334995 0.30204579
v -0.03416483 -0.06334995 0.30572501
v 0.03416478 -0.06334995 0.30572501
v -0.03191584 -0.06334995 0.30918819
v 0.03191578 -0.06334995 0.30918819
v -0.02931720 -0.06334995 0.31239730
v 0.02931714 -0.06334995 0.31239730
v -0.02639728 -0.06334995 0.31531709
v 0.02639722 -0.06334995 0.31531709
v -0.02318823 -0.06334995 0.31791580
v 0.02318817 -0.06334995 0.31791580
v -0.01972508 -0.06334995 0.32016480
v 0.01972502 -0.06334995 0.32016480
v -0.01604580 -0.06334995 0.32203940
v 0.01604574 -0.06334995 0.32203940
v -0.01219075 -0.06334995 0.32351929
v 0.01219069 -0.06334995 0.32351929
v 0.01219069 -0.06334995 0.32351929
v -0.00820213 -0.06334995 0.32458809
v -0.00820213 -0.06334995 0.32458809
v 0.00820207 -0.06334995 0.32458809
v -0.00412369 -0.06334995 0.32523409
v -0.00412369 -0.06334995 0.32523409
v 0.00412357 -0.06334995 0.32523409
v -0.00412369 -0.06334995 0.32523409
v 0.00412357 -0.06334995 0.32523409
v 0.00000000 -0.06334995 0.32545009
f 1 2 3
f 3 2 4
f 5 6 7
f 7 6 8
f 7 8 9
f 1 10 2
f 2 10 11
f 11 10 12
f 11 12 13
f 13 12 14
f 13 14 15
f 15 14 16
f 15 16 17
f 17 16 18
f 17 18 19
f 19 18 20
f 19 20 21
f 21 20 22
f 21 22 23
f 23 22 24
f 23 24 25
f 25 24 26
f 25 26 27
f 27 26 28
f 27 28 29
f 29 28 30
f 29 30 31
f 31 30 32
f 31 32 33
f 33 32 34
f 33 34 35
f 35 34 36
f 35 36 37
f 37 36 38
f 37 38 39
f 39 38 40
f 39 40 41
f 41 40 42
f 41 42 43
f 43 42 44
f 43 44 45
f 45 44 46
f 45 46 47
f 47 46 48
f 47 48 49
f 49 48 50
f 49 50 51
f 51 50 52
f 51 52 53
f 53 52 54
f 53 54 55
f 55 54 56
f 55 56 57
f 57 56 58
f 57 58 59
f 59 58 60
f 59 60 61
f 61 60 62
f 61 62 63
f 63 62 64
f 63 64 65
f 65 64 66
f 65 66 67
f 67 66 68
f 67 68 69
f 69 68 70
f 69 70 71
f 71 70 72
f 71 72 73
f 73 72 74
f 73 74 75
f 75 74 76
f 75 76 77
f 77 76 78
f 77 78 79
f 79 78 80
f 79 80 81
f 81 80 82
f 81 82 83
f 83 82 84
f 83 84 85
f 85 84 86
f 85 86 87
f 87 86 88
f 87 88 89
f 89 88 90
f 89 90 91
f 91 90 92
f 91 92 93
f 93 92 94
f 93 94 95
f 95 94 96
f 95 96 97
f 97 96 98
f 97 98 99
f 99 98 100
f 99 100 101
f 101 100 102
f 101 102 103
f 103 102 104
f 103 104 105
f 105 104 106
f 105 106 107
f 107 106 108
f 107 108 109
f 109 108 110
f 109 110 111
f 111 110 112
f 111 112 113
f 113 112 114
f 113 114 115
f 115 114 116
f 115 116 117
f 117 116 118
f 117 118 119
f 119 118 120
f 119 120 121
f 121 120 122
f 121 122 9
f 9 122 7
f 123 124 125
f 125 124 126
f 125 126 127
f 127 128 125
f 125 128 129
f 125 129 130
f 130 131 125
f 125 131 132
f 125 132 133
f 133 134 125
f 125 134 135
f 125 135 136
f 136 137 125
f 125 137 138
f 125 138 139
f 139 140 125
f 125 140 141
f 125 141 142
f 142 143 125
f 125 143 144
f 125 144 145
f 145 146 125
f 125 146 147
f 125 147 148
f 148 149 125
f 125 149 150
f 125 150 151
f 151 152 125
f 125 152 153
f 125 153 154
f 154 155 125
f 125 155 156
f 156 155 157
f 156 157 158
f 158 157 159
f 158 159 160
f 160 159 161
f 160 161 162
f 162 161 163
f 162 163 164
f 164 163 165
f 164 165 166
f 166 165 167
f 166 167 168
f 168 167 169
f 168 169 170
f 170 169 171
f 170 171 172
f 172 171 173
f 172 173 174
f 174 173 175
f 174 175 176
f 176 175 177
f 176 177 178
f 178 177 179
f 178 179 180
f 180 179 181
f 182 183 184
f 184 183 185
f 184 185 186
f 186 185 187
f 186 187 188
f 188 187 189
f 188 189 190
f 190 189 191
f 190 191 192
f 192 191 193
f 192 193 194
f 194 193 195
f 194 195 196
f 196 195 197
f 196 197 198
f 198 197 199
f 198 199 200
f 200 199 201
f 200 201 202
f 202 201 203
f 202 203 204
f 204 203 205
f 204 205 206
f 206 205 207
f 206 207 208
f 208 207 209
f 208 209 210
f 210 209 211
f 210 211 212
f 212 211 213
f 212 213 214
f 214 213 215
f 214 215 216
f 216 215 217
f 216 217 218
f 218 217 219
f 218 219 220
f 220 219 221
f 220 221 222
f 222 221 223
f 222 223 224
f 224 223 225
f 224 225 226
f 226 225 227
f 226 227 228
f 228 227 229
f 228 229 230
f 230 229 231
f 230 231 232
f 232 231 233
f 232 233 234
f 234 233 235
f 234 235 236
f 236 235 237
f 236 237 238
f 238 237 239
f 238 239 240
f 240 239 241
f 240 241 242
f 242 241 243
f 242 243 244
f 242 244 245
f 245 244 246
f 245 246 247
f 247 246 248
f 247 248 249
f 249 248 250
f 249 250 251
f 251 250 252
f 251 252 253
f 253 252 254
f 253 254 255
f 255 254 256
f 255 256 257
f 257 256 258
f 257 258 259
f 259 258 260
f 259 260 261
f 261 260 262
f 261 262 263
f 263 262 264
f 263 264 265
f 265 264 266
f 265 266 267
f 267 266 268
f 267 268 269
f 269 268 270
f 269 270 271
f 271 270 272
f 271 272 273
f 273 272 274
f 273 274 275
f 275 274 276
f 275 276 277
f 277 276 278
f 277 278 279
f 279 278 280
f 279 280 281
f 281 280 282
f 281 282 283
f 283 282 284
f 283 284 285
f 285 284 286
f 285 286 287
f 287 286 288
f 287 288 289
f 289 288 290
f 289 290 291
f 291 290 292
f 291 292 293
f 293 292 294
f 293 294 295
f 295 294 296
f 295 296 297
f 297 296 298
f 297 298 299
f 299 298 182
f 299 182 184
f 300 301 302
f 302 301 303
f 302 303 304
f 304 303 305
f 304 305 306
f 306 305 307
f 306 307 308
f 308 307 309
f 308 309 310
f 310 309 311
f 310 311 312
f 312 311 313
f 312 313 314
f 314 313 315
f 314 315 316
f 316 315 317
f 316 317 318
f 318 317 319
f 318 319 320
f 320 319 321
f 320 321 322
f 322 321 323
f 322 323 324
f 324 323 325
f 324 325 326
f 326 325 327
f 326 327 328
f 328 327 329
f 328 329 330
f 330 329 331
f 330 331 332
f 332 331 333
f 332 333 334
f 334 333 335
f 334 335 336
f 336 335 337
f 336 337 338
f 338 337 339
f 338 339 340
f 340 339 341
f 340 341 342
f 342 341 343
f 342 343 344
f 344 343 345
f 344 345 346
f 346 345 347
f 346 347 348
f 348 347 349
f 348 349 350
f 350 349 351
f 350 351 352
f 352 351 353
f 352 353 354
f 354 353 355
f 354 355 356
f 356 355 357
f 356 357 358
f 358 357 359
f 358 359 360
f 360 359 361
f 360 361 362
f 362 361 363
f 362 363 364
f 364 363 365
f 364 365 366
f 366 365 367
f 366 367 368
f 368 367 369
f 368 369 370
f 370 369 371
f 370 371 372
f 372 371 373
f 372 373 374
f 374 373 375
f 374 375 376
f 376 375 377
f 376 377 378
f 378 377 379
f 378 379 380
f 380 379 381
f 380 381 382
f 382 381 383
f 382 383 384
f 384 383 385
f 384 385 386
f 386 385 387
f 386 387 388
f 388 387 389
f 388 389 390
f 390 389 391
f 390 391 392
f 392 391 393
f 392 393 394
f 394 393 395
f 394 395 396
f 396 395 397
f 396 397 398
f 398 397 399
f 398 399 400
f 400 399 401
f 400 401 402
f 402 401 403
f 402 403 404
f 404 403 405
f 404 405 406
f 406 405 407
f 406 407 408
f 408 407 409
f 408 409 410
f 410 409 411
f 410 411 412
f 412 411 413
f 412 413 414
f 414 413 415
f 414 415 300
f 300 415 301
f 416 417 418
f 418 417 419
f 418 419 420
f 420 419 421
f 420 421 422
f 422 421 423
f 422 423 424
f 424 423 425
f 424 425 426
f 426 425 427
f 426 427 428
f 428 427 429
f 428 429 430
f 430 429 431
f 430 431 432
f 432 431 433
f 432 433 434
f 434 433 435
f 434 435 436
f 436 435 437
f 436 437 438
f 438 437 439
f 438 439 440
f 440 439 441
f 440 441 442
f 442 441 443
f 442 443 444
f 444 443 445
f 444 445 446
f 446 445 447
f 417 416 448
f 448 416 449
f 448 449 450
f 450 449 451
f 450 451 452
f 452 451 453
f 452 453 454
f 454 453 455
f 454 455 456
f 456 455 457
f 456 457 458
f 458 457 459
f 458 459 460
f 460 459 461
f 460 461 462
f 462 461 463
f 462 463 464
f 464 463 465
f 464 465 466
f 466 465 467
f 466 467 468
f 468 467 469
f 468 469 470
f 470 469 471
f 470 471 472
f 472 471 473
f 474 475 476
f 476 475 477
f 478 479 480
f 475 474 481
f 481 474 482
f 481 482 483
f 483 482 484
f 483 484 485
f 485 484 486
f 485 486 487
f 487 486 488
f 487 488 489
f 489 488 490
f 489 490 491
f 491 490 492
f 491 492 493
f 493 492 494
f 493 494 495
f 495 494 496
f 495 496 497
f 497 496 498
f 497 498 499
f 499 498 500
f 499 500 501
f 501 500 502
f 501 502 503
f 503 502 504
f 503 504 505
f 505 504 506
f 505 506 507
f 507 506 508
f 507 508 509
f 509 508 510
f 509 510 511
f 511 510 512
f 511 512 513
f 513 512 514
f 513 514 515
f 515 514 516
f 515 516 517
f 517 516 518
f 517 518 519
f 519 518 520
f 519 520 521
f 521 520 522
f 521 522 523
f 523 522 524
f 523 524 525
f 525 524 526
f 525 526 527
f 527 526 528
f 527 528 529
f 529 528 530
f 529 530 531
f 531 530 532
f 531 532 533
f 533 532 534
f 533 534 535
f 535 534 536
f 535 536 537
f 537 536 538
f 537 538 539
f 539 538 540
f 539 540 541
f 541 540 542
f 541 542 543
f 543 542 544
f 543 544 545
f 545 544 546
f 545 546 547
f 547 546 548
f 547 548 549
f 549 548 550
f 549 550 551
f 551 550 552
f 551 552 553
f 553 552 554
f 553 554 555
f 555 554 556
f 555 556 557
f 557 556 558
f 557 558 559
f 559 558 560
f 559 560 561
f 561 560 562
f 561 562 563
f 563 562 564
f 563 564 565
f 565 564 566
f 565 566 567
f 567 566 568
f 567 568 569
f 569 568 570
f 569 570 571
f 571 570 572
f 571 572 573
f 573 572 574
f 573 574 575
f 575 574 576
f 575 576 577
f 577 576 578
f 577 578 579
f 579 578 580
f 579 580 581
f 581 580 582
f 581 582 583
f 583 582 584
f 583 584 585
f 585 584 586
f 585 586 587
f 587 586 588
f 587 588 589
f 589 588 590
f 589 590 591
f 591 590 592
f 591 592 593
f 593 592 594
f 593 594 480
f 480 594 478
f 595 596 597
f 598 599 600
f 598 600 601
f 601 600 602
f 601 602 603
f 603 602 604
f 603 604 605
f 605 604 606
f 605 606 607
f 607 606 608
f 607 608 609
f 609 608 610
f 609 610 611
f 611 610 612
f 611 612 613
f 613 612 614
f 613 614 615
f 615 614 616
f 615 616 617
f 617 616 618
f 617 618 619
f 619 618 620
f 619 620 621
f 621 620 622
f 621 622 623
f 623 622 624
f 623 624 625
f 625 624 626
f 625 626 627
f 627 626 628
f 627 628 629
f 629 628 630
f 629 630 631
f 631 630 632
f 631 632 633
f 633 632 634
f 633 634 635
f 635 634 636
f 635 636 637
f 637 636 638
f 637 638 639
f 639 638 640
f 639 640 641
f 641 640 642
f 641 642 643
f 643 642 644
f 643 644 645
f 645 644 646
f 645 646 647
f 647 646 648
f 647 648 649
f 649 648 650
f 649 650 651
f 651 650 652
f 651 652 653
f 653 652 654
f 653 654 655
f 655 654 656
f 655 656 657
f 657 656 658
f 657 658 659
f 659 658 660
f 659 660 661
f 661 660 662
f 661 662 663
f 663 662 664
f 663 664 665
f 665 664 666
f 665 666 667
f 667 666 668
f 667 668 669
f 669 668 670
f 669 670 671
f 671 670 672
f 671 672 673
f 673 672 674
f 673 674 675
f 675 674 676
f 675 676 677
f 677 676 678
f 677 678 679
f 679 678 680
f 679 680 681
f 681 680 682
f 681 682 683
f 683 682 684
f 683 684 685
f 685 684 686
f 685 686 687
f 687 686 688
f 687 688 689
f 689 688 690
f 689 690 691
f 691 690 692
f 691 692 693
f 693 692 694
f 693 694 695
f 695 694 696
f 695 696 697
f 697 696 698
f 697 698 699
f 699 698 700
f 699 700 701
f 701 700 702
f 701 702 703
f 703 702 704
f 703 704 705
f 705 704 706
f 705 706 707
f 707 706 708
f 707 708 709
f 709 708 710
f 709 710 711
f 711 710 712
f 711 712 713
f 713 712 714
f 713 714 715
f 715 714 716
f 715 716 595
f 595 716 596
f 717 718 719
f 719 718 720
f 719 720 721
f 721 720 722
f 721 722 723
f 723 722 724
f 723 724 725
f 725 724 726
f 725 726 727
f 727 726 728
f 727 728 729
f 729 728 730
f 729 730 731
f 731 730 732
f 731 732 733
f 733 732 734
f 733 734 735
f 735 734 736
f 735 736 737
f 737 736 738
f 737 738 739
f 740 738 741
f 740 741 742
f 742 741 743
f 742 743 744
f 744 743 745
f 744 746 747
f 747 746 748
f 747 748 749
f 750 751 752
f 749 753 754
f 718 717 755
f 755 717 756
f 755 756 757
f 757 756 758
f 757 758 759
f 759 758 760
f 759 760 761
f 761 760 762
f 761 762 763
f 763 762 764
f 763 764 765
f 765 764 766
f 765 766 767
f 767 766 768
f 767 768 769
f 769 768 770
f 769 770 771
f 771 770 772
f 771 772 773
f 773 772 774
f 773 774 775
f 776 777 778
f 775 779 780
f 780 779 781
f 782 783 784
f 784 783 785
f 786 787 788
f 789 790 791
f 791 790 792
f 791 792 793
f 793 792 794
f 793 794 795
f 795 794 796
f 795 796 797
f 797 796 798
f 797 798 799
f 799 798 800
f 799 800 801
f 801 800 802
f 801 802 803
f 803 802 804
f 803 804 805
f 805 804 806
f 805 806 807
f 807 806 808
f 807 808 809
f 809 808 810
f 809 810 811
f 811 810 812
f 811 812 813
f 813 812 814
f 813 814 815
f 815 814 816
f 815 816 817
f 817 816 818
f 819 820 821
f 821 820 822
f 823 824 825
f 790 789 826
f 826 789 827
f 826 827 828
f 828 827 829
f 828 829 830
f 830 829 831
f 830 831 832
f 832 831 833
f 832 833 834
f 834 833 835
f 834 835 836
f 836 835 837
f 836 837 838
f 838 837 839
f 838 839 840
f 840 839 841
f 840 841 842
f 842 841 843
f 842 843 844
f 844 843 845
f 844 845 846
f 846 845 847
f 846 848 849
f 850 847 851
f 850 851 852
f 853 851 854
f 855 856 857

