# https://github.com/mikedh/trimesh
v -0.00049876 -0.03904676 0.06519997
v 0.00049869 -0.03904676 0.06519997
v -0.00454450 -0.03878462 0.06519997
v 0.00454444 -0.03878462 0.06519997
v -0.00854123 -0.03810441 0.06519997
v 0.00854116 -0.03810441 0.06519997
v -0.01244592 -0.03701347 0.06519997
v 0.01244586 -0.03701347 0.06519997
v -0.01621651 -0.03552359 0.06519997
v 0.01621645 -0.03552359 0.06519997
v -0.01981222 -0.03365081 0.06519997
v 0.01981216 -0.03365081 0.06519997
v -0.02319443 -0.03141528 0.06519997
v 0.02319437 -0.03141528 0.06519997
v -0.02632659 -0.02884113 0.06519997
v 0.02632653 -0.02884113 0.06519997
v -0.02917504 -0.02595609 0.06519997
v 0.02917498 -0.02595609 0.06519997
v -0.03170894 -0.02279132 0.06519997
v 0.03170888 -0.02279126 0.06519997
v -0.03390109 -0.01938080 0.06519997
v 0.03390102 -0.01938080 0.06519997
v -0.03572785 -0.01576143 0.06519997
v 0.03572779 -0.01576143 0.06519997
v -0.03716945 -0.01197218 0.06519997
v 0.03716939 -0.01197218 0.06519997
v -0.03821045 -0.00805390 0.06519997
v 0.03821038 -0.00805384 0.06519997
v -0.03883957 -0.00404876 0.06519997
v 0.03883944 -0.00404870 0.06519997
v -0.03904998 0.00000000 0.06519997
v 0.03904992 0.00000000 0.06519997
v -0.03883957 0.00404870 0.06519997
v 0.03883944 0.00404876 0.06519997
v -0.03821045 0.00805384 0.06519997
v 0.03821038 0.00805390 0.06519997
v -0.03716945 0.01197218 0.06519997
v 0.03716939 0.01197218 0.06519997
v -0.03572785 0.01576143 0.06519997
v 0.03572779 0.01576143 0.06519997
v -0.03390109 0.01938080 0.06519997
v 0.03390102 0.01938080 0.06519997
v -0.03170894 0.02279126 0.06519997
v 0.03170888 0.02279132 0.06519997
v -0.02917504 0.02595609 0.06519997
v 0.02917498 0.02595609 0.06519997
v -0.02632665 0.02884113 0.06519997
v 0.02632653 0.02884113 0.06519997
v -0.02319443 0.03141528 0.06519997
v 0.02319437 0.03141528 0.06519997
v -0.01981222 0.03365081 0.06519997
v 0.01981216 0.03365081 0.06519997
v -0.01621651 0.03552359 0.06519997
v 0.01621639 0.03552359 0.06519997
v -0.01244592 0.03701347 0.06519997
v 0.01244586 0.03701353 0.06519997
v -0.00854123 0.03810441 0.06519997
v 0.00854116 0.03810441 0.06519997
v -0.00454450 0.03878462 0.06519997
v 0.00454438 0.03878462 0.06519997
v -0.00049877 0.03904676 0.06519997
v 0.00049868 0.03904676 0.06519997
v 0.00049996 0.03924679 0.06499999
v 0.00049996 0.03924679 0.05499994
v 0.00049996 0.03921997 0.06509995
v 0.00049996 0.03921997 0.05489993
v 0.00049996 0.03914678 0.05482673
v 0.00049996 0.03914678 0.06517314
v 0.00049996 0.03904676 0.05479997
v 0.00049996 0.03904676 0.06519997
v 0.00049997 -0.03924679 0.06499999
v 0.00049997 -0.03924679 0.05499994
v 0.00456649 -0.03898340 0.06499999
v 0.00456649 -0.03898340 0.05499994
v 0.00858384 -0.03829985 0.06499999
v 0.00858384 -0.03829985 0.05499994
v 0.01250863 -0.03720337 0.06499999
v 0.01250863 -0.03720337 0.05499994
v 0.01629865 -0.03570592 0.06499999
v 0.01629865 -0.03570592 0.05499994
v 0.01991289 -0.03382353 0.06499999
v 0.01991289 -0.03382353 0.05499994
v 0.02331256 -0.03157663 0.06499999
v 0.02331256 -0.03157663 0.05499994
v 0.02646088 -0.02898931 0.06499999
v 0.02646088 -0.02898931 0.05499994
v 0.02932399 -0.02608948 0.06499999
v 0.02932399 -0.02608948 0.05499994
v 0.03187102 -0.02290844 0.06499999
v 0.03187102 -0.02290844 0.05499994
v 0.03407448 -0.01948046 0.06499999
v 0.03407448 -0.01948046 0.05499994
v 0.03591060 -0.01584249 0.06499999
v 0.03591060 -0.01584249 0.05499994
v 0.03735965 -0.01203376 0.06499999
v 0.03735971 -0.01203376 0.05499994
v 0.03840601 -0.00809526 0.06499999
v 0.03840601 -0.00809526 0.05499994
v 0.03903836 -0.00406957 0.06499999
v 0.03903840 -0.00406957 0.05499994
v 0.03924995 0.00000000 0.06499999
v 0.03924995 0.00000000 0.05499994
v 0.03903836 0.00406957 0.06499999
v 0.03903840 0.00406957 0.05499994
v 0.03840601 0.00809526 0.06499999
v 0.03840601 0.00809526 0.05499994
v 0.03735965 0.01203376 0.06499999
v 0.03735971 0.01203376 0.05499994
v 0.03591060 0.01584249 0.06499999
v 0.03591060 0.01584249 0.05499994
v 0.03407448 0.01948046 0.06499999
v 0.03407448 0.01948046 0.05499994
v 0.03187102 0.02290844 0.06499999
v 0.03187102 0.02290844 0.05499994
v 0.02932399 0.02608948 0.06499999
v 0.02932399 0.02608948 0.05499994
v 0.02646088 0.02898931 0.06499999
v 0.02646088 0.02898931 0.05499994
v 0.02331256 0.03157663 0.06499999
v 0.02331256 0.03157663 0.05499994
v 0.01991289 0.03382353 0.06499999
v 0.01991289 0.03382353 0.05499994
v 0.01629865 0.03570592 0.06499999
v 0.01629865 0.03570592 0.05499994
v 0.01250863 0.03720337 0.06499999
v 0.01250863 0.03720337 0.05499994
v 0.00858384 0.03829985 0.06499999
v 0.00858384 0.03829985 0.05499994
v 0.00456649 0.03898340 0.06499999
v 0.00456649 0.03898340 0.05499994
v 0.00049996 0.03924679 0.06499999
v 0.00049996 0.03924679 0.05499994
v 0.00049997 -0.03904676 0.05479997
v 0.00049997 -0.03914678 0.05482673
v 0.00049997 -0.03904676 0.06519997
v 0.00049997 -0.03914678 0.06517314
v 0.00049997 -0.03921997 0.05489993
v 0.00049997 -0.03921997 0.06509995
v 0.00049997 -0.03924679 0.06499999
v 0.00049997 -0.03924679 0.05499994
v 0.00049997 -0.03904676 0.05479997
v 0.00049997 -0.03904676 0.06519997
v 0.00049869 -0.03904676 0.05479997
v 0.00049869 -0.03904676 0.06519997
v -0.00049876 -0.03904676 0.05479997
v -0.00049876 -0.03904676 0.06519997
v -0.00050003 -0.03904676 0.05479997
v -0.00050003 -0.03904676 0.06519997
v -0.00050003 -0.03924679 0.06499999
v -0.00050003 -0.03924679 0.05499994
v -0.00050003 -0.03921997 0.06509995
v -0.00050003 -0.03921997 0.05489993
v -0.00050003 -0.03914678 0.05482673
v -0.00050003 -0.03914678 0.06517314
v -0.00050003 -0.03904676 0.05479997
v -0.00050003 -0.03904676 0.06519997
v -0.00050004 0.03924679 0.06499999
v -0.00050004 0.03924679 0.05499994
v -0.00456655 0.03898340 0.06499999
v -0.00456655 0.03898340 0.05499994
v -0.00858390 0.03829985 0.06499999
v -0.00858390 0.03829985 0.05499994
v -0.01250874 0.03720337 0.06499999
v -0.01250874 0.03720337 0.05499994
v -0.01629871 0.03570592 0.06499999
v -0.01629871 0.03570592 0.05499994
v -0.01991295 0.03382353 0.06499999
v -0.01991295 0.03382353 0.05499994
v -0.02331262 0.03157663 0.06499999
v -0.02331262 0.03157663 0.05499994
v -0.02646094 0.02898931 0.06499999
v -0.02646094 0.02898931 0.05499994
v -0.02932405 0.02608948 0.06499999
v -0.02932405 0.02608948 0.05499994
v -0.03187108 0.02290844 0.06499999
v -0.03187108 0.02290844 0.05499994
v -0.03407454 0.01948046 0.06499999
v -0.03407454 0.01948046 0.05499994
v -0.03591065 0.01584249 0.06499999
v -0.03591065 0.01584249 0.05499994
v -0.03735977 0.01203376 0.06499999
v -0.03735977 0.01203376 0.05499994
v -0.03840613 0.00809526 0.06499999
v -0.03840613 0.00809526 0.05499994
v -0.03903846 0.00406957 0.06499999
v -0.03903846 0.00406957 0.05499994
v -0.03925001 0.00000000 0.06499999
v -0.03925001 0.00000000 0.05499994
v -0.03903846 -0.00406957 0.06499999
v -0.03903846 -0.00406957 0.05499994
v -0.03840613 -0.00809526 0.06499999
v -0.03840613 -0.00809526 0.05499994
v -0.03735977 -0.01203376 0.06499999
v -0.03735977 -0.01203376 0.05499994
v -0.03591065 -0.01584249 0.06499999
v -0.03591065 -0.01584249 0.05499994
v -0.03407454 -0.01948046 0.06499999
v -0.03407454 -0.01948046 0.05499994
v -0.03187108 -0.02290844 0.06499999
v -0.03187108 -0.02290844 0.05499994
v -0.02932405 -0.02608948 0.06499999
v -0.02932405 -0.02608948 0.05499994
v -0.02646094 -0.02898931 0.06499999
v -0.02646094 -0.02898931 0.05499994
v -0.02331262 -0.03157663 0.06499999
v -0.02331262 -0.03157663 0.05499994
v -0.01991295 -0.03382353 0.06499999
v -0.01991295 -0.03382353 0.05499994
v -0.01629871 -0.03570592 0.06499999
v -0.01629871 -0.03570592 0.05499994
v -0.01250869 -0.03720337 0.06499999
v -0.01250869 -0.03720337 0.05499994
v -0.00858390 -0.03829985 0.06499999
v -0.00858390 -0.03829985 0.05499994
v -0.00456655 -0.03898340 0.06499999
v -0.00456655 -0.03898340 0.05499994
v -0.00050003 -0.03924679 0.06499999
v -0.00050003 -0.03924679 0.05499994
v -0.00050004 0.03904676 0.05479997
v -0.00050004 0.03914678 0.05482673
v -0.00050004 0.03904676 0.06519997
v -0.00050004 0.03914678 0.06517314
v -0.00050004 0.03921997 0.05489993
v -0.00050004 0.03921997 0.06509995
v -0.00050004 0.03924679 0.06499999
v -0.00050004 0.03924679 0.05499994
v -0.00050004 0.03904676 0.05479997
v -0.00049877 0.03904676 0.06519997
v -0.00049876 0.03904676 0.05479997
v 0.00049868 0.03904676 0.06519997
v 0.00049868 0.03904676 0.05479997
v 0.00049996 0.03904676 0.06519997
v 0.00049996 0.03904676 0.05479997
v -0.00050004 0.03904676 0.06519997
v 0.00049869 -0.03904676 0.05479997
v -0.00049876 -0.03904676 0.05479997
v 0.00454444 -0.03878462 0.05479997
v -0.00454450 -0.03878462 0.05479997
v 0.00854116 -0.03810441 0.05479997
v -0.00854123 -0.03810441 0.05479997
v 0.01244586 -0.03701347 0.05479997
v -0.01244592 -0.03701347 0.05479997
v 0.01621645 -0.03552359 0.05479997
v -0.01621651 -0.03552359 0.05479997
v 0.01981216 -0.03365081 0.05479997
v -0.01981222 -0.03365081 0.05479997
v 0.02319437 -0.03141528 0.05479997
v -0.02319443 -0.03141528 0.05479997
v 0.02632653 -0.02884113 0.05479997
v -0.02632659 -0.02884113 0.05479997
v 0.02917498 -0.02595609 0.05479997
v -0.02917504 -0.02595609 0.05479997
v 0.03170888 -0.02279126 0.05479997
v -0.03170894 -0.02279132 0.05479997
v 0.03390102 -0.01938080 0.05479997
v -0.03390109 -0.01938080 0.05479997
v 0.03572779 -0.01576143 0.05479997
v -0.03572785 -0.01576143 0.05479997
v 0.03716939 -0.01197218 0.05479997
v -0.03716945 -0.01197218 0.05479997
v 0.03821038 -0.00805384 0.05479997
v -0.03821045 -0.00805390 0.05479997
v 0.03883944 -0.00404870 0.05479997
v -0.03883951 -0.00404876 0.05479997
v 0.03904992 0.00000000 0.05479997
v -0.03904998 0.00000000 0.05479997
v 0.03883944 0.00404876 0.05479997
v -0.03883951 0.00404870 0.05479997
v 0.03821038 0.00805390 0.05479997
v -0.03821045 0.00805384 0.05479997
v 0.03716939 0.01197218 0.05479997
v -0.03716945 0.01197218 0.05479997
v 0.03572779 0.01576143 0.05479997
v -0.03572785 0.01576143 0.05479997
v 0.03390102 0.01938080 0.05479997
v -0.03390109 0.01938080 0.05479997
v 0.03170888 0.02279132 0.05479997
v -0.03170894 0.02279126 0.05479997
v 0.02917498 0.02595609 0.05479997
v -0.02917504 0.02595609 0.05479997
v 0.02632653 0.02884113 0.05479997
v -0.02632659 0.02884113 0.05479997
v 0.02319437 0.03141528 0.05479997
v -0.02319443 0.03141528 0.05479997
v 0.01981216 0.03365081 0.05479997
v -0.01981222 0.03365081 0.05479997
v 0.01621639 0.03552359 0.05479997
v -0.01621651 0.03552359 0.05479997
v 0.01244586 0.03701353 0.05479997
v -0.01244592 0.03701347 0.05479997
v 0.00854116 0.03810441 0.05479997
v -0.00854123 0.03810441 0.05479997
v 0.00454438 0.03878462 0.05479997
v -0.00454450 0.03878462 0.05479997
v 0.00049868 0.03904676 0.05479997
v -0.00049876 0.03904676 0.05479997
v 0.00049996 0.03904676 0.06519997
v 0.00049996 0.03904676 0.06519997
v 0.00454438 0.03878462 0.06519997
v 0.00455564 0.03888398 0.06517314
v 0.00049996 0.03914678 0.06517314
v 0.00456375 0.03895676 0.06509995
v 0.00049996 0.03921997 0.06509995
v 0.00456649 0.03898340 0.06499999
v 0.00049996 0.03924679 0.06499999
v 0.00856268 0.03820210 0.06517314
v 0.00854116 0.03810441 0.06519997
v 0.01247739 0.03710842 0.06517314
v 0.01244586 0.03701353 0.06519997
v 0.01625764 0.03561472 0.06517314
v 0.01621639 0.03552359 0.06519997
v 0.01986265 0.03373712 0.06517314
v 0.01981216 0.03365081 0.06519997
v 0.02325356 0.03149586 0.06517314
v 0.02319437 0.03141528 0.06519997
v 0.02639377 0.02891510 0.06517314
v 0.02632653 0.02884113 0.06519997
v 0.02924954 0.02602273 0.06517314
v 0.02917498 0.02595609 0.06519997
v 0.03179001 0.02284979 0.06517314
v 0.03170888 0.02279132 0.06519997
v 0.03398776 0.01943057 0.06517314
v 0.03390102 0.01938080 0.06519997
v 0.03581923 0.01580190 0.06517314
v 0.03572779 0.01576143 0.06519997
v 0.03726451 0.01200294 0.06517314
v 0.03716939 0.01197218 0.06519997
v 0.03830820 0.00807452 0.06517314
v 0.03821038 0.00805390 0.06519997
v 0.03893892 0.00405913 0.06517314
v 0.03883944 0.00404876 0.06519997
v 0.03914994 0.00000000 0.06517314
v 0.03904992 0.00000000 0.06519997
v 0.03883944 -0.00404870 0.06519997
v 0.03893892 -0.00405913 0.06517314
v 0.03821038 -0.00805384 0.06519997
v 0.03830820 -0.00807452 0.06517314
v 0.03716939 -0.01197218 0.06519997
v 0.03726451 -0.01200294 0.06517314
v 0.03572779 -0.01576143 0.06519997
v 0.03581923 -0.01580190 0.06517314
v 0.03390102 -0.01938080 0.06519997
v 0.03398782 -0.01943057 0.06517314
v 0.03170888 -0.02279126 0.06519997
v 0.03179001 -0.02284979 0.06517314
v 0.02917498 -0.02595609 0.06519997
v 0.02924954 -0.02602273 0.06517314
v 0.02632653 -0.02884113 0.06519997
v 0.02639383 -0.02891510 0.06517314
v 0.02319437 -0.03141528 0.06519997
v 0.02325356 -0.03149586 0.06517314
v 0.01981216 -0.03365081 0.06519997
v 0.01986265 -0.03373712 0.06517314
v 0.01621645 -0.03552359 0.06519997
v 0.01625764 -0.03561465 0.06517314
v 0.01244586 -0.03701347 0.06519997
v 0.01247745 -0.03710836 0.06517314
v 0.00854116 -0.03810441 0.06519997
v 0.00856268 -0.03820210 0.06517314
v 0.00454444 -0.03878462 0.06519997
v 0.00455564 -0.03888398 0.06517314
v 0.00049997 -0.03904676 0.06519997
v 0.00049997 -0.03914678 0.06517314
v 0.00049997 -0.03904676 0.06519997
v 0.00456381 -0.03895676 0.06509995
v 0.00049997 -0.03921997 0.06509995
v 0.00456649 -0.03898340 0.06499999
v 0.00049997 -0.03924679 0.06499999
v 0.00858384 -0.03829985 0.06499999
v 0.00857836 -0.03827357 0.06509995
v 0.01250863 -0.03720337 0.06499999
v 0.01250046 -0.03717786 0.06509995
v 0.01629865 -0.03570592 0.06499999
v 0.01628780 -0.03568142 0.06509995
v 0.01991289 -0.03382353 0.06499999
v 0.01989954 -0.03380036 0.06509995
v 0.02331256 -0.03157663 0.06499999
v 0.02329683 -0.03155493 0.06509995
v 0.02646088 -0.02898931 0.06499999
v 0.02644300 -0.02896934 0.06509995
v 0.02932399 -0.02608948 0.06499999
v 0.02930408 -0.02607148 0.06509995
v 0.03187102 -0.02290844 0.06499999
v 0.03184932 -0.02289265 0.06509995
v 0.03407448 -0.01948046 0.06499999
v 0.03405129 -0.01946705 0.06509995
v 0.03591060 -0.01584249 0.06499999
v 0.03588616 -0.01583158 0.06509995
v 0.03735965 -0.01203376 0.06499999
v 0.03733420 -0.01202541 0.06509995
v 0.03840601 -0.00809526 0.06499999
v 0.03837984 -0.00808972 0.06509995
v 0.03903836 -0.00406957 0.06499999
v 0.03901171 -0.00406676 0.06509995
v 0.03924995 0.00000000 0.06499999
v 0.03922313 0.00000000 0.06509995
v 0.03901171 0.00406676 0.06509995
v 0.03903836 0.00406957 0.06499999
v 0.03837984 0.00808972 0.06509995
v 0.03840601 0.00809526 0.06499999
v 0.03733420 0.01202547 0.06509995
v 0.03735965 0.01203376 0.06499999
v 0.03588616 0.01583158 0.06509995
v 0.03591060 0.01584249 0.06499999
v 0.03405122 0.01946705 0.06509995
v 0.03407448 0.01948046 0.06499999
v 0.03184932 0.02289265 0.06509995
v 0.03187102 0.02290844 0.06499999
v 0.02930408 0.02607154 0.06509995
v 0.02932399 0.02608948 0.06499999
v 0.02644300 0.02896934 0.06509995
v 0.02646088 0.02898931 0.06499999
v 0.02329683 0.03155493 0.06509995
v 0.02331256 0.03157663 0.06499999
v 0.01989954 0.03380036 0.06509995
v 0.01991289 0.03382353 0.06499999
v 0.01628780 0.03568142 0.06509995
v 0.01629865 0.03570592 0.06499999
v 0.01250040 0.03717792 0.06509995
v 0.01250863 0.03720337 0.06499999
v 0.00857836 0.03827363 0.06509995
v 0.00858384 0.03829985 0.06499999
v -0.00050003 -0.03904676 0.06519997
v -0.00050003 -0.03904676 0.06519997
v -0.00454450 -0.03878462 0.06519997
v -0.00455570 -0.03888398 0.06517314
v -0.00050003 -0.03914678 0.06517314
v -0.00456387 -0.03895676 0.06509995
v -0.00050003 -0.03921997 0.06509995
v -0.00456655 -0.03898340 0.06499999
v -0.00050003 -0.03924679 0.06499999
v -0.00856274 -0.03820210 0.06517314
v -0.00854123 -0.03810441 0.06519997
v -0.01247751 -0.03710836 0.06517314
v -0.01244592 -0.03701347 0.06519997
v -0.01625776 -0.03561465 0.06517314
v -0.01621651 -0.03552359 0.06519997
v -0.01986271 -0.03373712 0.06517314
v -0.01981222 -0.03365081 0.06519997
v -0.02325361 -0.03149586 0.06517314
v -0.02319443 -0.03141528 0.06519997
v -0.02639389 -0.02891510 0.06517314
v -0.02632659 -0.02884113 0.06519997
v -0.02924960 -0.02602273 0.06517314
v -0.02917504 -0.02595609 0.06519997
v -0.03179007 -0.02284979 0.06517314
v -0.03170894 -0.02279132 0.06519997
v -0.03398786 -0.01943057 0.06517314
v -0.03390109 -0.01938080 0.06519997
v -0.03581928 -0.01580190 0.06517314
v -0.03572785 -0.01576143 0.06519997
v -0.03726464 -0.01200294 0.06517314
v -0.03716945 -0.01197218 0.06519997
v -0.03830826 -0.00807452 0.06517314
v -0.03821045 -0.00805390 0.06519997
v -0.03893899 -0.00405913 0.06517314
v -0.03883957 -0.00404876 0.06519997
v -0.03914998 0.00000000 0.06517314
v -0.03904998 0.00000000 0.06519997
v -0.03883957 0.00404870 0.06519997
v -0.03893899 0.00405913 0.06517314
v -0.03821045 0.00805384 0.06519997
v -0.03830826 0.00807452 0.06517314
v -0.03716945 0.01197218 0.06519997
v -0.03726464 0.01200294 0.06517314
v -0.03572785 0.01576143 0.06519997
v -0.03581928 0.01580190 0.06517314
v -0.03390109 0.01938080 0.06519997
v -0.03398786 0.01943057 0.06517314
v -0.03170894 0.02279126 0.06519997
v -0.03179007 0.02284979 0.06517314
v -0.02917504 0.02595609 0.06519997
v -0.02924960 0.02602273 0.06517314
v -0.02632665 0.02884113 0.06519997
v -0.02639389 0.02891510 0.06517314
v -0.02319443 0.03141528 0.06519997
v -0.02325361 0.03149586 0.06517314
v -0.01981222 0.03365081 0.06519997
v -0.01986277 0.03373712 0.06517314
v -0.01621651 0.03552359 0.06519997
v -0.01625776 0.03561465 0.06517314
v -0.01244592 0.03701347 0.06519997
v -0.01247751 0.03710836 0.06517314
v -0.00854123 0.03810441 0.06519997
v -0.00856274 0.03820210 0.06517314
v -0.00454450 0.03878462 0.06519997
v -0.00455570 0.03888398 0.06517314
v -0.00050004 0.03904676 0.06519997
v -0.00050004 0.03914678 0.06517314
v -0.00050004 0.03904676 0.06519997
v -0.00456387 0.03895676 0.06509995
v -0.00050004 0.03921997 0.06509995
v -0.00456655 0.03898340 0.06499999
v -0.00050004 0.03924679 0.06499999
v -0.00858390 0.03829985 0.06499999
v -0.00857842 0.03827363 0.06509995
v -0.01250874 0.03720337 0.06499999
v -0.01250052 0.03717786 0.06509995
v -0.01628786 0.03568142 0.06509995
v -0.01991295 0.03382353 0.06499999
v -0.01989966 0.03380036 0.06509995
v -0.02331262 0.03157663 0.06499999
v -0.02329689 0.03155493 0.06509995
v -0.02646094 0.02898931 0.06499999
v -0.02644306 0.02896934 0.06509995
v -0.02932405 0.02608948 0.06499999
v -0.02930420 0.02607154 0.06509995
v -0.03187108 0.02290844 0.06499999
v -0.03184944 0.02289265 0.06509995
v -0.03407454 0.01948046 0.06499999
v -0.03405135 0.01946705 0.06509995
v -0.03591065 0.01584249 0.06499999
v -0.03588622 0.01583158 0.06509995
v -0.03735977 0.01203376 0.06499999
v -0.03733426 0.01202541 0.06509995
v -0.03840613 0.00809526 0.06499999
v -0.03837990 0.00808972 0.06509995
v -0.03903846 0.00406957 0.06499999
v -0.03901182 0.00406676 0.06509995
v -0.03925001 0.00000000 0.06499999
v -0.03922319 0.00000000 0.06509995
v -0.03901182 -0.00406676 0.06509995
v -0.03903846 -0.00406957 0.06499999
v -0.03837990 -0.00808972 0.06509995
v -0.03840613 -0.00809526 0.06499999
v -0.03733426 -0.01202547 0.06509995
v -0.03735977 -0.01203376 0.06499999
v -0.03588622 -0.01583158 0.06509995
v -0.03591065 -0.01584249 0.06499999
v -0.03405135 -0.01946705 0.06509995
v -0.03407454 -0.01948046 0.06499999
v -0.03184938 -0.02289265 0.06509995
v -0.03187108 -0.02290844 0.06499999
v -0.02930414 -0.02607154 0.06509995
v -0.02932405 -0.02608948 0.06499999
v -0.02644306 -0.02896934 0.06509995
v -0.02646094 -0.02898931 0.06499999
v -0.02329689 -0.03155493 0.06509995
v -0.02331262 -0.03157663 0.06499999
v -0.01989960 -0.03380036 0.06509995
v -0.01991295 -0.03382353 0.06499999
v -0.01628786 -0.03568142 0.06509995
v -0.01629871 -0.03570592 0.06499999
v -0.01250052 -0.03717786 0.06509995
v -0.01250869 -0.03720337 0.06499999
v -0.00857842 -0.03827357 0.06509995
v -0.00858390 -0.03829985 0.06499999
v -0.00050003 -0.03914678 0.05482673
v -0.00455570 -0.03888398 0.05482673
v -0.00050003 -0.03904676 0.05479997
v -0.00454450 -0.03878462 0.05479997
v -0.00050003 -0.03904676 0.05479997
v -0.00456387 -0.03895676 0.05489993
v -0.00050003 -0.03921997 0.05489993
v -0.00456655 -0.03898340 0.05499994
v -0.00050003 -0.03924679 0.05499994
v -0.00858390 -0.03829985 0.05499994
v -0.00857842 -0.03827357 0.05489993
v -0.00856274 -0.03820210 0.05482673
v -0.00854123 -0.03810441 0.05479997
v -0.01247751 -0.03710836 0.05482673
v -0.01244592 -0.03701347 0.05479997
v -0.01625776 -0.03561465 0.05482673
v -0.01621651 -0.03552359 0.05479997
v -0.01986271 -0.03373712 0.05482673
v -0.01981222 -0.03365081 0.05479997
v -0.02325361 -0.03149586 0.05482673
v -0.02319443 -0.03141528 0.05479997
v -0.02639389 -0.02891510 0.05482673
v -0.02632659 -0.02884113 0.05479997
v -0.02924960 -0.02602273 0.05482673
v -0.02917504 -0.02595609 0.05479997
v -0.03179007 -0.02284979 0.05482673
v -0.03170894 -0.02279132 0.05479997
v -0.03398786 -0.01943057 0.05482673
v -0.03390109 -0.01938080 0.05479997
v -0.03581928 -0.01580190 0.05482673
v -0.03726464 -0.01200294 0.05482673
v -0.03716945 -0.01197218 0.05479997
v -0.03830826 -0.00807452 0.05482673
v -0.03893899 -0.00405913 0.05482673
v -0.03883951 -0.00404876 0.05479997
v -0.03914998 0.00000000 0.05482673
v -0.03904998 0.00000000 0.05479997
v -0.03893899 0.00405913 0.05482673
v -0.03830826 0.00807452 0.05482673
v -0.03716945 0.01197218 0.05479997
v -0.03726464 0.01200294 0.05482673
v -0.03572785 0.01576143 0.05479997
v -0.03581928 0.01580190 0.05482673
v -0.03390109 0.01938080 0.05479997
v -0.03398786 0.01943057 0.05482673
v -0.03170894 0.02279126 0.05479997
v -0.03179007 0.02284979 0.05482673
v -0.02917504 0.02595609 0.05479997
v -0.02924960 0.02602273 0.05482673
v -0.02632659 0.02884113 0.05479997
v -0.02639389 0.02891510 0.05482673
v -0.02319443 0.03141528 0.05479997
v -0.02325361 0.03149586 0.05482673
v -0.01981222 0.03365081 0.05479997
v -0.01986277 0.03373712 0.05482673
v -0.01621651 0.03552359 0.05479997
v -0.01625776 0.03561465 0.05482673
v -0.01244592 0.03701347 0.05479997
v -0.01247751 0.03710836 0.05482673
v -0.00854123 0.03810441 0.05479997
v -0.00856274 0.03820210 0.05482673
v -0.00455570 0.03888398 0.05482673
v -0.00050004 0.03904676 0.05479997
v -0.00050004 0.03914678 0.05482673
v -0.00456387 0.03895676 0.05489993
v -0.00050004 0.03921997 0.05489993
v -0.00456655 0.03898340 0.05499994
v -0.00050004 0.03924679 0.05499994
v -0.01250869 -0.03720337 0.05499994
v -0.01250052 -0.03717786 0.05489993
v -0.01629871 -0.03570592 0.05499994
v -0.01628786 -0.03568142 0.05489993
v -0.01991295 -0.03382353 0.05499994
v -0.01989960 -0.03380036 0.05489993
v -0.02331262 -0.03157663 0.05499994
v -0.02329689 -0.03155493 0.05489993
v -0.02646094 -0.02898931 0.05499994
v -0.02644306 -0.02896934 0.05489993
v -0.02932405 -0.02608948 0.05499994
v -0.02930414 -0.02607154 0.05489993
v -0.03187108 -0.02290844 0.05499994
v -0.03184938 -0.02289265 0.05489993
v -0.03407454 -0.01948046 0.05499994
v -0.03405135 -0.01946705 0.05489993
v -0.03591065 -0.01584249 0.05499994
v -0.03588622 -0.01583158 0.05489993
v -0.03735977 -0.01203376 0.05499994
v -0.03733426 -0.01202547 0.05489993
v -0.03840613 -0.00809526 0.05499994
v -0.03837990 -0.00808972 0.05489993
v -0.03903846 -0.00406957 0.05499994
v -0.03901182 -0.00406676 0.05489993
v -0.03925001 0.00000000 0.05499994
v -0.03922319 0.00000000 0.05489993
v -0.03901182 0.00406676 0.05489993
v -0.03903846 0.00406957 0.05499994
v -0.03837990 0.00808972 0.05489993
v -0.03840613 0.00809526 0.05499994
v -0.03733426 0.01202541 0.05489993
v -0.03735977 0.01203376 0.05499994
v -0.03588622 0.01583158 0.05489993
v -0.03405135 0.01946705 0.05489993
v -0.03407454 0.01948046 0.05499994
v -0.03184938 0.02289265 0.05489993
v -0.02930420 0.02607154 0.05489993
v -0.02932405 0.02608948 0.05499994
v -0.02644306 0.02896934 0.05489993
v -0.02646094 0.02898931 0.05499994
v -0.02329689 0.03155493 0.05489993
v -0.02331262 0.03157663 0.05499994
v -0.01989966 0.03380036 0.05489993
v -0.01991295 0.03382353 0.05499994
v -0.01628786 0.03568142 0.05489993
v -0.01629871 0.03570592 0.05499994
v -0.01250052 0.03717786 0.05489993
v -0.01250874 0.03720337 0.05499994
v -0.00857842 0.03827363 0.05489993
v -0.00858390 0.03829985 0.05499994
v -0.00050004 0.03904676 0.05479997
v 0.00049996 0.03914678 0.05482673
v 0.00455564 0.03888398 0.05482673
v 0.00049996 0.03904676 0.05479997
v 0.00049996 0.03904676 0.05479997
v 0.00456375 0.03895676 0.05489993
v 0.00049996 0.03921997 0.05489993
v 0.00456649 0.03898340 0.05499994
v 0.00049996 0.03924679 0.05499994
v 0.00858384 0.03829985 0.05499994
v 0.00857836 0.03827363 0.05489993
v 0.00856268 0.03820210 0.05482673
v 0.00854116 0.03810441 0.05479997
v 0.01247739 0.03710842 0.05482673
v 0.01244586 0.03701353 0.05479997
v 0.01625764 0.03561472 0.05482673
v 0.01621639 0.03552359 0.05479997
v 0.01986265 0.03373712 0.05482673
v 0.01981216 0.03365081 0.05479997
v 0.02325356 0.03149586 0.05482673
v 0.02319437 0.03141528 0.05479997
v 0.02639377 0.02891510 0.05482673
v 0.02632653 0.02884113 0.05479997
v 0.02924954 0.02602273 0.05482673
v 0.02917498 0.02595609 0.05479997
v 0.03179001 0.02284979 0.05482673
v 0.03170888 0.02279132 0.05479997
v 0.03398776 0.01943057 0.05482673
v 0.03390102 0.01938080 0.05479997
v 0.03581923 0.01580190 0.05482673
v 0.03572779 0.01576143 0.05479997
v 0.03726451 0.01200294 0.05482673
v 0.03716939 0.01197218 0.05479997
v 0.03830820 0.00807452 0.05482673
v 0.03821038 0.00805390 0.05479997
v 0.03893892 0.00405913 0.05482673
v 0.03883944 0.00404876 0.05479997
v 0.03914994 0.00000000 0.05482673
v 0.03904992 0.00000000 0.05479997
v 0.03893892 -0.00405913 0.05482673
v 0.03821038 -0.00805384 0.05479997
v 0.03830820 -0.00807452 0.05482673
v 0.03716939 -0.01197218 0.05479997
v 0.03726451 -0.01200294 0.05482673
v 0.03572779 -0.01576143 0.05479997
v 0.03581923 -0.01580190 0.05482673
v 0.03390102 -0.01938080 0.05479997
v 0.03398782 -0.01943057 0.05482673
v 0.03170888 -0.02279126 0.05479997
v 0.03179001 -0.02284979 0.05482673
v 0.02924954 -0.02602273 0.05482673
v 0.02632653 -0.02884113 0.05479997
v 0.02639383 -0.02891510 0.05482673
v 0.02319437 -0.03141528 0.05479997
v 0.02325356 -0.03149586 0.05482673
v 0.01981216 -0.03365081 0.05479997
v 0.01986265 -0.03373712 0.05482673
v 0.01621645 -0.03552359 0.05479997
v 0.01625764 -0.03561465 0.05482673
v 0.01244586 -0.03701347 0.05479997
v 0.01247745 -0.03710836 0.05482673
v 0.00854116 -0.03810441 0.05479997
v 0.00856268 -0.03820210 0.05482673
v 0.00455564 -0.03888398 0.05482673
v 0.00049997 -0.03904676 0.05479997
v 0.00049997 -0.03914678 0.05482673
v 0.00456381 -0.03895676 0.05489993
v 0.00049997 -0.03921997 0.05489993
v 0.00456649 -0.03898340 0.05499994
v 0.00049997 -0.03924679 0.05499994
v 0.01250863 0.03720337 0.05499994
v 0.01250040 0.03717792 0.05489993
v 0.01629865 0.03570592 0.05499994
v 0.01628780 0.03568142 0.05489993
v 0.01991289 0.03382353 0.05499994
v 0.01989954 0.03380036 0.05489993
v 0.02331256 0.03157663 0.05499994
v 0.02329683 0.03155493 0.05489993
v 0.02644300 0.02896934 0.05489993
v 0.02932399 0.02608948 0.05499994
v 0.02930408 0.02607154 0.05489993
v 0.03187102 0.02290844 0.05499994
v 0.03184932 0.02289265 0.05489993
v 0.03407448 0.01948046 0.05499994
v 0.03405129 0.01946705 0.05489993
v 0.03591060 0.01584249 0.05499994
v 0.03588616 0.01583158 0.05489993
v 0.03735971 0.01203376 0.05499994
v 0.03733420 0.01202547 0.05489993
v 0.03840601 0.00809526 0.05499994
v 0.03837984 0.00808972 0.05489993
v 0.03903840 0.00406957 0.05499994
v 0.03901171 0.00406676 0.05489993
v 0.03924995 0.00000000 0.05499994
v 0.03922313 0.00000000 0.05489993
v 0.03901171 -0.00406676 0.05489993
v 0.03903840 -0.00406957 0.05499994
v 0.03837984 -0.00808972 0.05489993
v 0.03840601 -0.00809526 0.05499994
v 0.03733420 -0.01202541 0.05489993
v 0.03735971 -0.01203376 0.05499994
v 0.03588616 -0.01583158 0.05489993
v 0.03591060 -0.01584249 0.05499994
v 0.03405129 -0.01946705 0.05489993
v 0.03407448 -0.01948046 0.05499994
v 0.03184932 -0.02289265 0.05489993
v 0.03187102 -0.02290844 0.05499994
v 0.02930408 -0.02607148 0.05489993
v 0.02932399 -0.02608948 0.05499994
v 0.02644300 -0.02896934 0.05489993
v 0.02646088 -0.02898931 0.05499994
v 0.02329683 -0.03155493 0.05489993
v 0.02331256 -0.03157663 0.05499994
v 0.01989954 -0.03380036 0.05489993
v 0.01991289 -0.03382353 0.05499994
v 0.01628780 -0.03568142 0.05489993
v 0.01629865 -0.03570592 0.05499994
v 0.01250046 -0.03717786 0.05489993
v 0.01250863 -0.03720337 0.05499994
v 0.00857836 -0.03827357 0.05489993
v 0.00858384 -0.03829985 0.05499994
v 0.00049997 -0.03904676 0.05479997
f 1 2 3
f 3 2 4
f 3 4 5
f 5 4 6
f 5 6 7
f 7 6 8
f 7 8 9
f 9 8 10
f 9 10 11
f 11 10 12
f 11 12 13
f 13 12 14
f 13 14 15
f 15 14 16
f 15 16 17
f 17 16 18
f 17 18 19
f 19 18 20
f 19 20 21
f 21 20 22
f 21 22 23
f 23 22 24
f 23 24 25
f 25 24 26
f 25 26 27
f 27 26 28
f 27 28 29
f 29 28 30
f 29 30 31
f 31 30 32
f 31 32 33
f 33 32 34
f 33 34 35
f 35 34 36
f 35 36 37
f 37 36 38
f 37 38 39
f 39 38 40
f 39 40 41
f 41 40 42
f 41 42 43
f 43 42 44
f 43 44 45
f 45 44 46
f 45 46 47
f 47 46 48
f 47 48 49
f 49 48 50
f 49 50 51
f 51 50 52
f 51 52 53
f 53 52 54
f 53 54 55
f 55 54 56
f 55 56 57
f 57 56 58
f 57 58 59
f 59 58 60
f 59 60 61
f 61 60 62
f 63 64 65
f 65 64 66
f 65 66 67
f 65 67 68
f 68 67 69
f 68 69 70
f 71 72 73
f 73 72 74
f 73 74 75
f 75 74 76
f 75 76 77
f 77 76 78
f 77 78 79
f 79 78 80
f 79 80 81
f 81 80 82
f 81 82 83
f 83 82 84
f 83 84 85
f 85 84 86
f 85 86 87
f 87 86 88
f 87 88 89
f 89 88 90
f 89 90 91
f 91 90 92
f 91 92 93
f 93 92 94
f 93 94 95
f 95 94 96
f 95 96 97
f 97 96 98
f 97 98 99
f 99 98 100
f 99 100 101
f 101 100 102
f 101 102 103
f 103 102 104
f 103 104 105
f 105 104 106
f 105 106 107
f 107 106 108
f 107 108 109
f 109 108 110
f 109 110 111
f 111 110 112
f 111 112 113
f 113 112 114
f 113 114 115
f 115 114 116
f 115 116 117
f 117 116 118
f 117 118 119
f 119 118 120
f 119 120 121
f 121 120 122
f 121 122 123
f 123 122 124
f 123 124 125
f 125 124 126
f 125 126 127
f 127 126 128
f 127 128 129
f 129 128 130
f 129 130 131
f 131 130 132
f 133 134 135
f 135 134 136
f 136 134 137
f 136 137 138
f 138 137 139
f 139 137 140
f 141 142 143
f 143 142 144
f 143 144 145
f 145 144 146
f 145 146 147
f 147 146 148
f 149 150 151
f 151 150 152
f 151 152 153
f 151 153 154
f 154 153 155
f 154 155 156
f 157 158 159
f 159 158 160
f 159 160 161
f 161 160 162
f 161 162 163
f 163 162 164
f 163 164 165
f 165 164 166
f 165 166 167
f 167 166 168
f 167 168 169
f 169 168 170
f 169 170 171
f 171 170 172
f 171 172 173
f 173 172 174
f 173 174 175
f 175 174 176
f 175 176 177
f 177 176 178
f 177 178 179
f 179 178 180
f 179 180 181
f 181 180 182
f 181 182 183
f 183 182 184
f 183 184 185
f 185 184 186
f 185 186 187
f 187 186 188
f 187 188 189
f 189 188 190
f 189 190 191
f 191 190 192
f 191 192 193
f 193 192 194
f 193 194 195
f 195 194 196
f 195 196 197
f 197 196 198
f 197 198 199
f 199 198 200
f 199 200 201
f 201 200 202
f 201 202 203
f 203 202 204
f 203 204 205
f 205 204 206
f 205 206 207
f 207 206 208
f 207 208 209
f 209 208 210
f 209 210 211
f 211 210 212
f 211 212 213
f 213 212 214
f 213 214 215
f 215 214 216
f 215 216 217
f 217 216 218
f 219 220 221
f 221 220 222
f 222 220 223
f 222 223 224
f 224 223 225
f 225 223 226
f 227 228 229
f 229 228 230
f 229 230 231
f 231 230 232
f 231 232 233
f 227 234 228
f 235 236 237
f 237 236 238
f 237 238 239
f 239 238 240
f 239 240 241
f 241 240 242
f 241 242 243
f 243 242 244
f 243 244 245
f 245 244 246
f 245 246 247
f 247 246 248
f 247 248 249
f 249 248 250
f 249 250 251
f 251 250 252
f 251 252 253
f 253 252 254
f 253 254 255
f 255 254 256
f 255 256 257
f 257 256 258
f 257 258 259
f 259 258 260
f 259 260 261
f 261 260 262
f 261 262 263
f 263 262 264
f 263 264 265
f 265 264 266
f 265 266 267
f 267 266 268
f 267 268 269
f 269 268 270
f 269 270 271
f 271 270 272
f 271 272 273
f 273 272 274
f 273 274 275
f 275 274 276
f 275 276 277
f 277 276 278
f 277 278 279
f 279 278 280
f 279 280 281
f 281 280 282
f 281 282 283
f 283 282 284
f 283 284 285
f 285 284 286
f 285 286 287
f 287 286 288
f 287 288 289
f 289 288 290
f 289 290 291
f 291 290 292
f 291 292 293
f 293 292 294
f 293 294 295
f 295 294 296
f 62 60 297
f 298 299 300
f 298 300 301
f 301 300 302
f 301 302 303
f 303 302 304
f 303 304 305
f 300 299 306
f 306 299 307
f 306 307 308
f 308 307 309
f 308 309 310
f 310 309 311
f 310 311 312
f 312 311 313
f 312 313 314
f 314 313 315
f 314 315 316
f 316 315 317
f 316 317 318
f 318 317 319
f 318 319 320
f 320 319 321
f 320 321 322
f 322 321 323
f 322 323 324
f 324 323 325
f 324 325 326
f 326 325 327
f 326 327 328
f 328 327 329
f 328 329 330
f 330 329 331
f 330 331 332
f 332 331 333
f 332 333 334
f 332 334 335
f 335 334 336
f 335 336 337
f 337 336 338
f 337 338 339
f 339 338 340
f 339 340 341
f 341 340 342
f 341 342 343
f 343 342 344
f 343 344 345
f 345 344 346
f 345 346 347
f 347 346 348
f 347 348 349
f 349 348 350
f 349 350 351
f 351 350 352
f 351 352 353
f 353 352 354
f 353 354 355
f 355 354 356
f 355 356 357
f 357 356 358
f 357 358 359
f 359 358 360
f 359 360 361
f 361 360 362
f 361 362 363
f 4 2 364
f 361 363 365
f 365 363 366
f 365 366 367
f 367 366 368
f 367 369 365
f 365 369 370
f 365 370 361
f 361 370 359
f 369 371 370
f 370 371 372
f 370 372 359
f 359 372 357
f 371 373 372
f 372 373 374
f 372 374 357
f 357 374 355
f 373 375 374
f 374 375 376
f 374 376 355
f 355 376 353
f 375 377 376
f 376 377 378
f 376 378 353
f 353 378 351
f 377 379 378
f 378 379 380
f 378 380 351
f 351 380 349
f 379 381 380
f 380 381 382
f 380 382 349
f 349 382 347
f 381 383 382
f 382 383 384
f 382 384 347
f 347 384 345
f 383 385 384
f 384 385 386
f 384 386 345
f 345 386 343
f 385 387 386
f 386 387 388
f 386 388 343
f 343 388 341
f 387 389 388
f 388 389 390
f 388 390 341
f 341 390 339
f 389 391 390
f 390 391 392
f 390 392 339
f 339 392 337
f 391 393 392
f 392 393 394
f 392 394 337
f 337 394 335
f 393 395 394
f 394 395 396
f 394 396 335
f 335 396 332
f 396 395 397
f 397 395 398
f 397 398 399
f 399 398 400
f 399 400 401
f 401 400 402
f 401 402 403
f 403 402 404
f 403 404 405
f 405 404 406
f 405 406 407
f 407 406 408
f 407 408 409
f 409 408 410
f 409 410 411
f 411 410 412
f 411 412 413
f 413 412 414
f 413 414 415
f 415 414 416
f 415 416 417
f 417 416 418
f 417 418 419
f 419 418 420
f 419 420 421
f 421 420 422
f 421 422 302
f 302 422 304
f 421 302 300
f 421 300 306
f 419 421 306
f 419 306 308
f 417 419 308
f 417 308 310
f 415 417 310
f 415 310 312
f 413 415 312
f 413 312 314
f 411 413 314
f 411 314 316
f 409 411 316
f 409 316 318
f 407 409 318
f 407 318 320
f 405 407 320
f 405 320 322
f 403 405 322
f 403 322 324
f 401 403 324
f 401 324 326
f 399 401 326
f 399 326 328
f 397 399 328
f 397 328 330
f 396 397 330
f 396 330 332
f 1 3 423
f 424 425 426
f 424 426 427
f 427 426 428
f 427 428 429
f 429 428 430
f 429 430 431
f 426 425 432
f 432 425 433
f 432 433 434
f 434 433 435
f 434 435 436
f 436 435 437
f 436 437 438
f 438 437 439
f 438 439 440
f 440 439 441
f 440 441 442
f 442 441 443
f 442 443 444
f 444 443 445
f 444 445 446
f 446 445 447
f 446 447 448
f 448 447 449
f 448 449 450
f 450 449 451
f 450 451 452
f 452 451 453
f 452 453 454
f 454 453 455
f 454 455 456
f 456 455 457
f 456 457 458
f 458 457 459
f 458 459 460
f 458 460 461
f 461 460 462
f 461 462 463
f 463 462 464
f 463 464 465
f 465 464 466
f 465 466 467
f 467 466 468
f 467 468 469
f 469 468 470
f 469 470 471
f 471 470 472
f 471 472 473
f 473 472 474
f 473 474 475
f 475 474 476
f 475 476 477
f 477 476 478
f 477 478 479
f 479 478 480
f 479 480 481
f 481 480 482
f 481 482 483
f 483 482 484
f 483 484 485
f 485 484 486
f 485 486 487
f 487 486 488
f 487 488 489
f 59 61 490
f 487 489 491
f 491 489 492
f 491 492 493
f 493 492 494
f 493 495 491
f 491 495 496
f 491 496 487
f 487 496 485
f 495 497 496
f 496 497 498
f 496 498 485
f 485 498 483
f 497 165 498
f 498 165 499
f 498 499 483
f 483 499 481
f 165 500 499
f 499 500 501
f 499 501 481
f 481 501 479
f 500 502 501
f 501 502 503
f 501 503 479
f 479 503 477
f 502 504 503
f 503 504 505
f 503 505 477
f 477 505 475
f 504 506 505
f 505 506 507
f 505 507 475
f 475 507 473
f 506 508 507
f 507 508 509
f 507 509 473
f 473 509 471
f 508 510 509
f 509 510 511
f 509 511 471
f 471 511 469
f 510 512 511
f 511 512 513
f 511 513 469
f 469 513 467
f 512 514 513
f 513 514 515
f 513 515 467
f 467 515 465
f 514 516 515
f 515 516 517
f 515 517 465
f 465 517 463
f 516 518 517
f 517 518 519
f 517 519 463
f 463 519 461
f 518 520 519
f 519 520 521
f 519 521 461
f 461 521 458
f 521 520 522
f 522 520 523
f 522 523 524
f 524 523 525
f 524 525 526
f 526 525 527
f 526 527 528
f 528 527 529
f 528 529 530
f 530 529 531
f 530 531 532
f 532 531 533
f 532 533 534
f 534 533 535
f 534 535 536
f 536 535 537
f 536 537 538
f 538 537 539
f 538 539 540
f 540 539 541
f 540 541 542
f 542 541 543
f 542 543 544
f 544 543 545
f 544 545 546
f 546 545 547
f 546 547 428
f 428 547 430
f 546 428 426
f 546 426 432
f 544 546 432
f 544 432 434
f 542 544 434
f 542 434 436
f 540 542 436
f 540 436 438
f 538 540 438
f 538 438 440
f 536 538 440
f 536 440 442
f 534 536 442
f 534 442 444
f 532 534 444
f 532 444 446
f 530 532 446
f 530 446 448
f 528 530 448
f 528 448 450
f 526 528 450
f 526 450 452
f 524 526 452
f 524 452 454
f 522 524 454
f 522 454 456
f 521 522 456
f 521 456 458
f 548 549 550
f 550 549 551
f 552 238 236
f 549 548 553
f 553 548 554
f 553 554 555
f 555 554 556
f 555 557 553
f 553 557 558
f 553 558 549
f 549 558 559
f 549 559 551
f 551 559 560
f 560 559 561
f 560 561 562
f 562 561 563
f 562 563 564
f 564 563 565
f 564 565 566
f 566 565 567
f 566 567 568
f 568 567 569
f 568 569 570
f 570 569 571
f 570 571 572
f 572 571 573
f 572 573 574
f 574 573 575
f 574 575 576
f 576 575 577
f 576 577 258
f 258 577 578
f 258 578 579
f 579 578 580
f 579 580 262
f 262 580 581
f 262 581 582
f 582 581 583
f 582 583 584
f 584 583 268
f 268 583 585
f 268 585 270
f 270 585 586
f 270 586 587
f 587 586 588
f 587 588 589
f 589 588 590
f 589 590 591
f 591 590 592
f 591 592 593
f 593 592 594
f 593 594 595
f 595 594 596
f 595 596 597
f 597 596 598
f 597 598 599
f 599 598 600
f 599 600 601
f 601 600 602
f 601 602 603
f 603 602 604
f 603 604 605
f 605 604 606
f 605 606 607
f 607 606 608
f 607 608 294
f 294 608 609
f 294 609 610
f 610 609 611
f 611 609 612
f 611 612 613
f 613 612 614
f 613 614 615
f 557 616 558
f 558 616 617
f 558 617 559
f 559 617 561
f 616 618 617
f 617 618 619
f 617 619 561
f 561 619 563
f 618 620 619
f 619 620 621
f 619 621 563
f 563 621 565
f 620 622 621
f 621 622 623
f 621 623 565
f 565 623 567
f 622 624 623
f 623 624 625
f 623 625 567
f 567 625 569
f 624 626 625
f 625 626 627
f 625 627 569
f 569 627 571
f 626 628 627
f 627 628 629
f 627 629 571
f 571 629 573
f 628 630 629
f 629 630 631
f 629 631 573
f 573 631 575
f 630 632 631
f 631 632 633
f 631 633 575
f 575 633 577
f 632 634 633
f 633 634 635
f 633 635 577
f 577 635 578
f 634 636 635
f 635 636 637
f 635 637 578
f 578 637 580
f 636 638 637
f 637 638 639
f 637 639 580
f 580 639 581
f 638 640 639
f 639 640 641
f 639 641 581
f 581 641 583
f 641 640 642
f 642 640 643
f 642 643 644
f 644 643 645
f 644 645 646
f 646 645 647
f 646 647 648
f 648 647 180
f 648 180 649
f 649 180 650
f 649 650 651
f 651 650 176
f 651 176 652
f 652 176 653
f 652 653 654
f 654 653 655
f 654 655 656
f 656 655 657
f 656 657 658
f 658 657 659
f 658 659 660
f 660 659 661
f 660 661 662
f 662 661 663
f 662 663 664
f 664 663 665
f 664 665 612
f 612 665 614
f 666 296 294
f 585 583 641
f 585 641 642
f 586 585 642
f 586 642 644
f 588 586 644
f 588 644 646
f 590 588 646
f 590 646 648
f 592 590 648
f 592 648 649
f 594 592 649
f 594 649 651
f 596 594 651
f 596 651 652
f 598 596 652
f 598 652 654
f 600 598 654
f 600 654 656
f 602 600 656
f 602 656 658
f 604 602 658
f 604 658 660
f 606 604 660
f 606 660 662
f 608 606 662
f 608 662 664
f 609 608 664
f 609 664 612
f 667 668 669
f 669 668 293
f 670 293 295
f 668 667 671
f 671 667 672
f 671 672 673
f 673 672 674
f 673 675 671
f 671 675 676
f 671 676 668
f 668 676 677
f 668 677 293
f 293 677 678
f 678 677 679
f 678 679 680
f 680 679 681
f 680 681 682
f 682 681 683
f 682 683 684
f 684 683 685
f 684 685 686
f 686 685 687
f 686 687 688
f 688 687 689
f 688 689 690
f 690 689 691
f 690 691 692
f 692 691 693
f 692 693 694
f 694 693 695
f 694 695 696
f 696 695 697
f 696 697 698
f 698 697 699
f 698 699 700
f 700 699 701
f 700 701 702
f 702 701 703
f 702 703 704
f 704 703 263
f 263 703 705
f 263 705 706
f 706 705 707
f 706 707 708
f 708 707 709
f 708 709 710
f 710 709 711
f 710 711 712
f 712 711 713
f 712 713 714
f 714 713 715
f 714 715 251
f 251 715 716
f 251 716 717
f 717 716 718
f 717 718 719
f 719 718 720
f 719 720 721
f 721 720 722
f 721 722 723
f 723 722 724
f 723 724 725
f 725 724 726
f 725 726 727
f 727 726 728
f 727 728 237
f 237 728 729
f 237 729 730
f 730 729 731
f 731 729 732
f 731 732 733
f 733 732 734
f 733 734 735
f 675 736 676
f 676 736 737
f 676 737 677
f 677 737 679
f 736 738 737
f 737 738 739
f 737 739 679
f 679 739 681
f 738 740 739
f 739 740 741
f 739 741 681
f 681 741 683
f 740 742 741
f 741 742 743
f 741 743 683
f 683 743 685
f 742 118 743
f 743 118 744
f 743 744 685
f 685 744 687
f 118 745 744
f 744 745 746
f 744 746 687
f 687 746 689
f 745 747 746
f 746 747 748
f 746 748 689
f 689 748 691
f 747 749 748
f 748 749 750
f 748 750 691
f 691 750 693
f 749 751 750
f 750 751 752
f 750 752 693
f 693 752 695
f 751 753 752
f 752 753 754
f 752 754 695
f 695 754 697
f 753 755 754
f 754 755 756
f 754 756 697
f 697 756 699
f 755 757 756
f 756 757 758
f 756 758 699
f 699 758 701
f 757 759 758
f 758 759 760
f 758 760 701
f 701 760 703
f 760 759 761
f 761 759 762
f 761 762 763
f 763 762 764
f 763 764 765
f 765 764 766
f 765 766 767
f 767 766 768
f 767 768 769
f 769 768 770
f 769 770 771
f 771 770 772
f 771 772 773
f 773 772 774
f 773 774 775
f 775 774 776
f 775 776 777
f 777 776 778
f 777 778 779
f 779 778 780
f 779 780 781
f 781 780 782
f 781 782 783
f 783 782 784
f 783 784 785
f 785 784 786
f 785 786 732
f 732 786 734
f 787 235 237
f 705 703 760
f 705 760 761
f 707 705 761
f 707 761 763
f 709 707 763
f 709 763 765
f 711 709 765
f 711 765 767
f 713 711 767
f 713 767 769
f 715 713 769
f 715 769 771
f 716 715 771
f 716 771 773
f 718 716 773
f 718 773 775
f 720 718 775
f 720 775 777
f 722 720 777
f 722 777 779
f 724 722 779
f 724 779 781
f 726 724 781
f 726 781 783
f 728 726 783
f 728 783 785
f 729 728 785
f 729 785 732

