# https://github.com/mikedh/trimesh
v 0.00329995 -0.15014999 0.20919991
v 0.00329995 -0.15014999 0.16360000
v 0.00329995 -0.14814998 0.20919991
v 0.00329995 -0.14814998 0.16360000
v -0.00330001 -0.14814998 0.20919991
v -0.00330001 -0.15014999 0.20919991
v -0.00320411 -0.14814998 0.20998970
v -0.00320411 -0.15014999 0.20998970
v -0.00292200 -0.14814998 0.21073350
v -0.00292200 -0.15014999 0.21073350
v -0.00247008 -0.14814998 0.21138820
v -0.00247008 -0.15014999 0.21138820
v -0.00187462 -0.14814998 0.21191581
v -0.00187462 -0.15014999 0.21191581
v -0.00117016 -0.14814998 0.21228550
v -0.00117016 -0.15014999 0.21228550
v -0.00039779 -0.14814998 0.21247581
v -0.00039779 -0.15014999 0.21247581
v 0.00039775 -0.14814998 0.21247581
v 0.00039775 -0.15014999 0.21247581
v 0.00117016 -0.14814998 0.21228550
v 0.00117016 -0.15014999 0.21228550
v 0.00187457 -0.14814998 0.21191581
v 0.00187457 -0.15014999 0.21191581
v 0.00247002 -0.14814998 0.21138820
v 0.00247002 -0.15014999 0.21138820
v 0.00292194 -0.14814998 0.21073350
v 0.00292194 -0.15014999 0.21073350
v 0.00320405 -0.14814998 0.20998970
v 0.00320405 -0.15014999 0.20998970
v 0.00329995 -0.14814998 0.20919991
v 0.00329995 -0.15014999 0.20919991
v -0.00330001 -0.15014999 0.16360000
v -0.00330001 -0.15014999 0.20919991
v -0.00330001 -0.14814998 0.16360000
v -0.00330001 -0.14814998 0.20919991
v 0.00329995 -0.14814998 0.16360000
v 0.00329995 -0.15014999 0.16360000
v 0.00320405 -0.14814998 0.16281021
v 0.00320405 -0.15014999 0.16281021
v 0.00292194 -0.14814998 0.16206640
v 0.00292194 -0.15014999 0.16206640
v 0.00247002 -0.14814998 0.16141170
v 0.00247002 -0.15014999 0.16141170
v 0.00187457 -0.14814998 0.16088410
v 0.00187457 -0.15014999 0.16088410
v 0.00117016 -0.14814998 0.16051440
v 0.00117016 -0.15014999 0.16051440
v 0.00039776 -0.14814998 0.16032401
v 0.00039776 -0.15014999 0.16032401
v -0.00039778 -0.14814998 0.16032401
v -0.00039778 -0.15014999 0.16032401
v -0.00117016 -0.14814998 0.16051440
v -0.00117016 -0.15014999 0.16051440
v -0.00187462 -0.14814998 0.16088410
v -0.00187462 -0.15014999 0.16088410
v -0.00247008 -0.14814998 0.16141170
v -0.00247008 -0.15014999 0.16141170
v -0.00292200 -0.14814998 0.16206640
v -0.00292200 -0.15014999 0.16206640
v -0.00320411 -0.14814998 0.16281021
v -0.00320411 -0.15014999 0.16281021
v -0.00330001 -0.14814998 0.16360000
v -0.00330001 -0.15014999 0.16360000
v 0.00320405 -0.14814998 0.16281021
v 0.00292194 -0.14814998 0.16206640
v 0.00329995 -0.14814998 0.16360000
v 0.00329995 -0.14814998 0.16360000
v 0.00292194 -0.14814998 0.16206640
v 0.00247002 -0.14814998 0.16141170
v 0.00247002 -0.14814998 0.16141170
v 0.00247002 -0.14814998 0.21138820
v 0.00187457 -0.14814998 0.21191581
v 0.00187457 -0.14814998 0.16088410
v 0.00117016 -0.14814998 0.21228550
v 0.00117016 -0.14814998 0.16051440
v 0.00039775 -0.14814998 0.21247581
v 0.00039776 -0.14814998 0.16032401
v -0.00039779 -0.14814998 0.21247581
v -0.00039778 -0.14814998 0.16032401
v -0.00117016 -0.14814998 0.21228550
v -0.00117016 -0.14814998 0.16051440
v -0.00187462 -0.14814998 0.21191581
v -0.00187462 -0.14814998 0.16088410
v -0.00247008 -0.14814998 0.21138820
v -0.00247008 -0.14814998 0.16141170
v -0.00330001 -0.14814998 0.20919991
v -0.00330001 -0.14814998 0.16360000
v -0.00292200 -0.14814998 0.16206640
v -0.00330001 -0.14814998 0.16360000
v -0.00292200 -0.14814998 0.16206640
v -0.00320411 -0.14814998 0.16281021
v -0.00320411 -0.14814998 0.20998970
v -0.00292200 -0.14814998 0.21073350
v 0.00329995 -0.14814998 0.20919991
v 0.00292194 -0.14814998 0.21073350
v 0.00329995 -0.14814998 0.20919991
v 0.00292194 -0.14814998 0.21073350
v 0.00320405 -0.14814998 0.20998970
v -0.00320411 -0.15014999 0.16281021
v -0.00292200 -0.15014999 0.16206640
v -0.00330001 -0.15014999 0.16360000
v -0.00247008 -0.15014999 0.16141170
v -0.00247008 -0.15014999 0.21138820
v -0.00187462 -0.15014999 0.21191581
v -0.00187462 -0.15014999 0.16088410
v -0.00117016 -0.15014999 0.21228550
v -0.00117016 -0.15014999 0.16051440
v -0.00039779 -0.15014999 0.21247581
v -0.00039778 -0.15014999 0.16032401
v 0.00039775 -0.15014999 0.21247581
v 0.00039776 -0.15014999 0.16032401
v 0.00117016 -0.15014999 0.21228550
v 0.00117016 -0.15014999 0.16051440
v 0.00187457 -0.15014999 0.21191581
v 0.00187457 -0.15014999 0.16088410
v 0.00247002 -0.15014999 0.21138820
v 0.00247002 -0.15014999 0.16141170
v 0.00329995 -0.15014999 0.20919991
v 0.00329995 -0.15014999 0.16360000
v 0.00329995 -0.15014999 0.16360000
v 0.00247002 -0.15014999 0.16141170
v 0.00292194 -0.15014999 0.16206640
v 0.00329995 -0.15014999 0.16360000
v 0.00292194 -0.15014999 0.16206640
v 0.00320405 -0.15014999 0.16281021
v 0.00320405 -0.15014999 0.20998970
v 0.00292194 -0.15014999 0.21073350
v -0.00330001 -0.15014999 0.20919991
v -0.00330001 -0.15014999 0.20919991
v -0.00247008 -0.15014999 0.21138820
v -0.00292200 -0.15014999 0.21073350
v -0.00292200 -0.15014999 0.21073350
v -0.00320411 -0.15014999 0.20998970
v 0.00329995 -0.08614998 0.20919991
v 0.00329995 -0.08614998 0.16360000
v 0.00329995 -0.08414994 0.20919991
v 0.00329995 -0.08414994 0.16360000
v -0.00330001 -0.08414994 0.20919991
v -0.00330001 -0.08614998 0.20919991
v -0.00320411 -0.08414994 0.20998970
v -0.00320411 -0.08614998 0.20998970
v -0.00292200 -0.08414994 0.21073350
v -0.00292200 -0.08614998 0.21073350
v -0.00247008 -0.08414994 0.21138820
v -0.00247008 -0.08614998 0.21138820
v -0.00187462 -0.08414994 0.21191581
v -0.00187462 -0.08614998 0.21191581
v -0.00117022 -0.08414994 0.21228550
v -0.00117022 -0.08614998 0.21228550
v -0.00039779 -0.08414994 0.21247581
v -0.00039779 -0.08614998 0.21247581
v 0.00039775 -0.08414994 0.21247581
v 0.00039775 -0.08614998 0.21247581
v 0.00117016 -0.08414994 0.21228550
v 0.00117016 -0.08614998 0.21228550
v 0.00187457 -0.08414994 0.21191581
v 0.00187457 -0.08614998 0.21191581
v 0.00247002 -0.08414994 0.21138820
v 0.00247002 -0.08614998 0.21138820
v 0.00292194 -0.08414994 0.21073350
v 0.00292194 -0.08614998 0.21073350
v 0.00320405 -0.08414994 0.20998970
v 0.00320405 -0.08614998 0.20998970
v 0.00329995 -0.08414994 0.20919991
v 0.00329995 -0.08614998 0.20919991
v -0.00330001 -0.08614998 0.16360000
v -0.00330001 -0.08614998 0.20919991
v -0.00330001 -0.08414994 0.16360000
v -0.00330001 -0.08414994 0.20919991
v 0.00329995 -0.08414994 0.16360000
v 0.00329995 -0.08614998 0.16360000
v 0.00320405 -0.08414994 0.16281021
v 0.00320405 -0.08614998 0.16281021
v 0.00292194 -0.08414994 0.16206640
v 0.00292194 -0.08614998 0.16206640
v 0.00247002 -0.08414994 0.16141170
v 0.00247002 -0.08614998 0.16141170
v 0.00187457 -0.08414994 0.16088410
v 0.00187457 -0.08614998 0.16088410
v 0.00117016 -0.08414994 0.16051440
v 0.00117016 -0.08614998 0.16051440
v 0.00039775 -0.08414994 0.16032401
v 0.00039775 -0.08614998 0.16032401
v -0.00039779 -0.08414994 0.16032401
v -0.00039779 -0.08614998 0.16032401
v -0.00117016 -0.08414994 0.16051440
v -0.00117016 -0.08614998 0.16051440
v -0.00187462 -0.08414994 0.16088410
v -0.00187462 -0.08614998 0.16088410
v -0.00247008 -0.08414994 0.16141170
v -0.00247008 -0.08614998 0.16141170
v -0.00292200 -0.08414994 0.16206640
v -0.00292200 -0.08614998 0.16206640
v -0.00320411 -0.08414994 0.16281021
v -0.00320411 -0.08614998 0.16281021
v -0.00330001 -0.08414994 0.16360000
v -0.00330001 -0.08614998 0.16360000
v 0.00320405 -0.08414994 0.16281021
v 0.00292194 -0.08414994 0.16206640
v 0.00329995 -0.08414994 0.16360000
v 0.00247002 -0.08414994 0.16141170
v 0.00247002 -0.08414994 0.21138820
v 0.00187457 -0.08414994 0.21191581
v 0.00187457 -0.08414994 0.16088410
v 0.00117016 -0.08414994 0.21228550
v 0.00117016 -0.08414994 0.16051440
v 0.00039775 -0.08414994 0.21247581
v 0.00039775 -0.08414994 0.16032401
v -0.00039779 -0.08414994 0.21247581
v -0.00039779 -0.08414994 0.16032401
v -0.00117022 -0.08414994 0.21228550
v -0.00117016 -0.08414994 0.16051440
v -0.00187462 -0.08414994 0.21191581
v -0.00187462 -0.08414994 0.16088410
v -0.00247008 -0.08414994 0.21138820
v -0.00247008 -0.08414994 0.16141170
v -0.00330001 -0.08414994 0.20919991
v -0.00330001 -0.08414994 0.16360000
v -0.00330001 -0.08414994 0.16360000
v -0.00247008 -0.08414994 0.16141170
v -0.00292200 -0.08414994 0.16206640
v -0.00330001 -0.08414994 0.16360000
v -0.00292200 -0.08414994 0.16206640
v -0.00320411 -0.08414994 0.16281021
v -0.00320411 -0.08414994 0.20998970
v -0.00292200 -0.08414994 0.21073350
v 0.00329995 -0.08414994 0.20919991
v 0.00329995 -0.08414994 0.20919991
v 0.00247002 -0.08414994 0.21138820
v 0.00292194 -0.08414994 0.21073350
v 0.00329995 -0.08414994 0.20919991
v 0.00292194 -0.08414994 0.21073350
v 0.00320405 -0.08414994 0.20998970
v -0.00320411 -0.08614998 0.16281021
v -0.00292200 -0.08614998 0.16206640
v -0.00330001 -0.08614998 0.16360000
v -0.00330001 -0.08614998 0.16360000
v -0.00292200 -0.08614998 0.16206640
v -0.00247008 -0.08614998 0.16141170
v -0.00247008 -0.08614998 0.21138820
v -0.00187462 -0.08614998 0.21191581
v -0.00187462 -0.08614998 0.16088410
v -0.00117022 -0.08614998 0.21228550
v -0.00117016 -0.08614998 0.16051440
v -0.00039779 -0.08614998 0.21247581
v -0.00039779 -0.08614998 0.16032401
v 0.00039775 -0.08614998 0.21247581
v 0.00039775 -0.08614998 0.16032401
v 0.00117016 -0.08614998 0.21228550
v 0.00117016 -0.08614998 0.16051440
v 0.00187457 -0.08614998 0.21191581
v 0.00187457 -0.08614998 0.16088410
v 0.00247002 -0.08614998 0.21138820
v 0.00247002 -0.08614998 0.16141170
v 0.00329995 -0.08614998 0.20919991
v 0.00329995 -0.08614998 0.16360000
v 0.00292194 -0.08614998 0.16206640
v 0.00329995 -0.08614998 0.16360000
v 0.00292194 -0.08614998 0.16206640
v 0.00320405 -0.08614998 0.16281021
v 0.00320405 -0.08614998 0.20998970
v 0.00292194 -0.08614998 0.21073350
v 0.00329995 -0.08614998 0.20919991
v 0.00329995 -0.08614998 0.20919991
v 0.00292194 -0.08614998 0.21073350
v 0.00247002 -0.08614998 0.21138820
v -0.00330001 -0.08614998 0.20919991
v -0.00330001 -0.08614998 0.20919991
v -0.00247008 -0.08614998 0.21138820
v -0.00292200 -0.08614998 0.21073350
v -0.00320411 -0.08614998 0.20998970
f 1 2 3
f 3 2 4
f 5 6 7
f 7 6 8
f 7 8 9
f 9 8 10
f 9 10 11
f 11 10 12
f 11 12 13
f 13 12 14
f 13 14 15
f 15 14 16
f 15 16 17
f 17 16 18
f 17 18 19
f 19 18 20
f 19 20 21
f 21 20 22
f 21 22 23
f 23 22 24
f 23 24 25
f 25 24 26
f 25 26 27
f 27 26 28
f 27 28 29
f 29 28 30
f 29 30 31
f 31 30 32
f 33 34 35
f 35 34 36
f 37 38 39
f 39 38 40
f 39 40 41
f 41 40 42
f 41 42 43
f 43 42 44
f 43 44 45
f 45 44 46
f 45 46 47
f 47 46 48
f 47 48 49
f 49 48 50
f 49 50 51
f 51 50 52
f 51 52 53
f 53 52 54
f 53 54 55
f 55 54 56
f 55 56 57
f 57 56 58
f 57 58 59
f 59 58 60
f 59 60 61
f 61 60 62
f 61 62 63
f 63 62 64
f 65 66 67
f 68 69 70
f 67 71 72
f 72 71 73
f 73 71 74
f 73 74 75
f 75 74 76
f 75 76 77
f 77 76 78
f 77 78 79
f 79 78 80
f 79 80 81
f 81 80 82
f 81 82 83
f 83 82 84
f 83 84 85
f 85 84 86
f 85 86 87
f 87 86 88
f 88 86 89
f 90 91 92
f 93 94 87
f 87 94 85
f 67 72 95
f 95 72 96
f 97 98 99
f 100 101 102
f 102 101 103
f 102 103 104
f 104 103 105
f 105 103 106
f 105 106 107
f 107 106 108
f 107 108 109
f 109 108 110
f 109 110 111
f 111 110 112
f 111 112 113
f 113 112 114
f 113 114 115
f 115 114 116
f 115 116 117
f 117 116 118
f 117 118 119
f 119 118 120
f 121 122 123
f 124 125 126
f 127 128 119
f 119 128 117
f 102 104 129
f 130 131 132
f 129 133 134
f 135 136 137
f 137 136 138
f 139 140 141
f 141 140 142
f 141 142 143
f 143 142 144
f 143 144 145
f 145 144 146
f 145 146 147
f 147 146 148
f 147 148 149
f 149 148 150
f 149 150 151
f 151 150 152
f 151 152 153
f 153 152 154
f 153 154 155
f 155 154 156
f 155 156 157
f 157 156 158
f 157 158 159
f 159 158 160
f 159 160 161
f 161 160 162
f 161 162 163
f 163 162 164
f 163 164 165
f 165 164 166
f 167 168 169
f 169 168 170
f 171 172 173
f 173 172 174
f 173 174 175
f 175 174 176
f 175 176 177
f 177 176 178
f 177 178 179
f 179 178 180
f 179 180 181
f 181 180 182
f 181 182 183
f 183 182 184
f 183 184 185
f 185 184 186
f 185 186 187
f 187 186 188
f 187 188 189
f 189 188 190
f 189 190 191
f 191 190 192
f 191 192 193
f 193 192 194
f 193 194 195
f 195 194 196
f 195 196 197
f 197 196 198
f 199 200 201
f 201 200 202
f 201 202 203
f 203 202 204
f 204 202 205
f 204 205 206
f 206 205 207
f 206 207 208
f 208 207 209
f 208 209 210
f 210 209 211
f 210 211 212
f 212 211 213
f 212 213 214
f 214 213 215
f 214 215 216
f 216 215 217
f 216 217 218
f 218 217 219
f 220 221 222
f 223 224 225
f 226 227 218
f 218 227 216
f 201 203 228
f 229 230 231
f 232 233 234
f 235 236 237
f 238 239 240
f 238 240 241
f 241 240 242
f 242 240 243
f 242 243 244
f 244 243 245
f 244 245 246
f 246 245 247
f 246 247 248
f 248 247 249
f 248 249 250
f 250 249 251
f 250 251 252
f 252 251 253
f 252 253 254
f 254 253 255
f 254 255 256
f 256 255 257
f 257 255 258
f 259 260 261
f 262 263 264
f 265 266 267
f 238 241 268
f 269 270 271
f 269 271 272

