# https://github.com/mikedh/trimesh
v -0.01594823 0.02399808 0.07170432
v -0.01345008 0.02399808 0.07364130
v -0.01643007 0.02399808 0.07189792
v -0.01345008 0.02399808 0.08235859
v -0.01643007 0.02399808 0.08410197
v -0.01594823 0.02399808 0.08429551
v -0.01543277 0.02399808 0.08435845
v -0.01491856 0.02399808 0.08428668
v -0.01444011 0.02399808 0.08408480
v -0.01402974 0.02399808 0.08376663
v -0.01371514 0.02399808 0.08335357
v -0.01351743 0.02399808 0.08287340
v -0.01543277 0.02399808 0.07164138
v -0.01491856 0.02399808 0.07171326
v -0.01444011 0.02399808 0.07191509
v -0.01402974 0.02399808 0.07223320
v -0.01371514 0.02399808 0.07264637
v -0.01351743 0.02399808 0.07312649
v -0.01731026 0.02399808 0.07248431
v -0.01731026 0.02399808 0.08351558
v -0.01809209 0.02399808 0.07319670
v -0.01809209 0.02399808 0.08280318
v -0.01875770 0.02399808 0.07401871
v -0.01875770 0.02399808 0.08198112
v -0.01929175 0.02399808 0.07493168
v -0.01929175 0.02399808 0.08106821
v -0.01968222 0.02399808 0.07591468
v -0.01968222 0.02399808 0.08008521
v -0.01968222 0.02399808 0.07591468
v -0.01968222 0.02399808 0.08008521
v -0.01992017 0.02399808 0.07694530
v -0.01992017 0.02399808 0.07905459
v -0.01992017 0.02399808 0.07694530
v -0.01992017 0.02399808 0.07905459
v -0.02000004 0.02399808 0.07799994
v 0.01351732 0.02399808 0.07312649
v 0.01371496 0.02399808 0.07264637
v 0.01344990 0.02399808 0.07364130
v 0.01344990 0.02399808 0.07364130
v 0.01371496 0.02399808 0.07264637
v 0.01402956 0.02399808 0.07223320
v 0.01443994 0.02399808 0.07191509
v 0.01443994 0.02399808 0.07191509
v 0.01491838 0.02399808 0.07171326
v 0.01491838 0.02399808 0.07171326
v 0.01543265 0.02399808 0.07164138
v 0.01594805 0.02399808 0.07170432
v 0.01594805 0.02399808 0.07170432
v 0.01642990 0.02399808 0.07189792
v 0.01344990 0.02399808 0.07364130
v 0.01642990 0.02399808 0.07189792
v 0.01642990 0.02399808 0.08410197
v 0.01344990 0.02399808 0.08235859
v 0.01594805 0.02399808 0.08429551
v 0.01543265 0.02399808 0.08435845
v 0.01731014 0.02399808 0.08351558
v 0.01731014 0.02399808 0.07248431
v 0.01809191 0.02399808 0.08280318
v 0.01809191 0.02399808 0.07319670
v 0.01875752 0.02399808 0.08198112
v 0.01875752 0.02399808 0.07401871
v 0.01929163 0.02399808 0.08106821
v 0.01929163 0.02399808 0.07493168
v 0.01968204 0.02399808 0.08008521
v 0.01968204 0.02399808 0.07591468
v 0.01991999 0.02399808 0.07905459
v 0.01991999 0.02399808 0.07694530
v 0.01999986 0.02399808 0.07799994
v 0.01491838 0.02399808 0.08428668
v 0.01443994 0.02399808 0.08408480
v 0.01443994 0.02399808 0.08408480
v 0.01402956 0.02399808 0.08376663
v 0.01371496 0.02399808 0.08335357
v 0.01344990 0.02399808 0.08235859
v 0.01371496 0.02399808 0.08335357
v 0.01351732 0.02399808 0.08287340
v 0.01092797 0.03060573 0.08499991
v -0.01092815 0.03060573 0.08499991
v 0.01299989 0.02978485 0.08499991
v -0.01300007 0.02978485 0.08499991
v 0.01299989 0.02749812 0.08499991
v -0.01300007 0.02749812 0.08499991
v -0.00880486 0.03128272 0.08499991
v 0.00880468 0.03128272 0.08499991
v -0.00664013 0.03181254 0.08499991
v 0.00663996 0.03181254 0.08499991
v -0.00444418 0.03219282 0.08499991
v 0.00444400 0.03219282 0.08499991
v -0.00222736 0.03242170 0.08499991
v 0.00222719 0.03242170 0.08499991
v 0.00000000 0.03249812 0.08499991
v 0.01932442 0.02549809 0.08099991
v 0.01969695 0.02549809 0.08003693
v 0.01699990 0.02549809 0.08099991
v 0.01992374 0.02549809 0.07902961
v 0.01999986 0.02549809 0.07799994
v 0.01992374 0.02549809 0.07697021
v 0.01699990 0.02549809 0.07499992
v 0.01633232 0.02549809 0.07507514
v 0.01569825 0.02549809 0.07529705
v 0.01969695 0.02549809 0.07596290
v 0.01932442 0.02549809 0.07499992
v 0.01512944 0.02549809 0.07565444
v 0.01465439 0.02549809 0.07612949
v 0.01429700 0.02549809 0.07669830
v 0.01407510 0.02549809 0.07733237
v 0.01399987 0.02549809 0.07799994
v 0.01407510 0.02549809 0.07866746
v 0.01429700 0.02549809 0.07930159
v 0.01465439 0.02549809 0.07987040
v 0.01512944 0.02549809 0.08034539
v 0.01569825 0.02549809 0.08070284
v 0.01633232 0.02549809 0.08092468
v -0.01932460 0.02612876 0.08099991
v -0.01856493 0.02667385 0.08099991
v -0.01932460 0.02549809 0.08099991
v -0.01700007 0.02549809 0.08099991
v -0.01778984 0.02719688 0.08099991
v -0.01700007 0.02549809 0.08099991
v -0.01778984 0.02719688 0.08099991
v -0.01700007 0.02769738 0.08099991
v -0.01700007 0.02769738 0.08099991
v -0.01646745 0.02801710 0.08095157
v -0.01700007 0.02549809 0.08099991
v -0.01633250 0.02549809 0.08092468
v -0.01592630 0.02832835 0.08080118
v -0.01569843 0.02549809 0.08070284
v -0.01541101 0.02861183 0.08054363
v -0.01512956 0.02549809 0.08034539
v -0.01495194 0.02885442 0.08019173
v -0.01465457 0.02549809 0.07987040
v -0.01456665 0.02905082 0.07975327
v -0.01429712 0.02549809 0.07930159
v -0.01425820 0.02920347 0.07921725
v -0.01407527 0.02549809 0.07866746
v -0.01406496 0.02929711 0.07861644
v -0.01400005 0.02549809 0.07799994
v -0.01400005 0.02932810 0.07799994
v -0.01406496 0.02929711 0.07738345
v -0.01407527 0.02549809 0.07733237
v -0.01425820 0.02920347 0.07678264
v -0.01429712 0.02549809 0.07669830
v -0.01456665 0.02905082 0.07624655
v -0.01465457 0.02549809 0.07612949
v -0.01495194 0.02885442 0.07580810
v -0.01512956 0.02549809 0.07565444
v -0.01541101 0.02861183 0.07545626
v -0.01569843 0.02549809 0.07529705
v -0.01592630 0.02832835 0.07519876
v -0.01633250 0.02549809 0.07507514
v -0.01646745 0.02801710 0.07504832
v -0.01700007 0.02549809 0.07499992
v -0.01700007 0.02769738 0.07499992
v -0.01700007 0.02769738 0.07499992
v -0.01778984 0.02719688 0.07499992
v -0.01700007 0.02549809 0.07499992
v -0.01856493 0.02667385 0.07499992
v -0.01932460 0.02549809 0.07499992
v -0.01932460 0.02549809 0.07499992
v -0.01856493 0.02667385 0.07499992
v -0.01932460 0.02612876 0.07499992
v -0.01932460 0.02549809 0.07499992
v -0.01969712 0.02549809 0.07596290
v -0.01700007 0.02549809 0.07499992
v -0.01992392 0.02549809 0.07697021
v -0.02000004 0.02549809 0.07799994
v -0.01992392 0.02549809 0.07902961
v -0.01700007 0.02549809 0.08099991
v -0.01633250 0.02549809 0.08092468
v -0.01569843 0.02549809 0.08070284
v -0.01969712 0.02549809 0.08003693
v -0.01932460 0.02549809 0.08099991
v -0.01512956 0.02549809 0.08034539
v -0.01465457 0.02549809 0.07987040
v -0.01429712 0.02549809 0.07930159
v -0.01407527 0.02549809 0.07866746
v -0.01407527 0.02549809 0.07866746
v -0.01400005 0.02549809 0.07799994
v -0.01407527 0.02549809 0.07733237
v -0.01407527 0.02549809 0.07733237
v -0.01429712 0.02549809 0.07669830
v -0.02000004 0.02549809 0.07799994
v -0.01465457 0.02549809 0.07612949
v -0.01512956 0.02549809 0.07565444
v -0.01569843 0.02549809 0.07529705
v -0.01633250 0.02549809 0.07507514
v 0.01642990 0.02749812 0.08410197
v 0.01562273 0.02749812 0.08449000
v 0.01594805 0.02749812 0.08429551
v 0.01594805 0.02749812 0.08429551
v 0.01562273 0.02749812 0.08449000
v 0.01543259 0.02749812 0.08435845
v 0.01477265 0.02749812 0.08477175
v 0.01491838 0.02749812 0.08428668
v 0.01491838 0.02749812 0.08428668
v 0.01389360 0.02749812 0.08494263
v 0.01389360 0.02749812 0.08494263
v 0.01443994 0.02749812 0.08408480
v 0.01299989 0.02749812 0.08499991
v 0.01402956 0.02749812 0.08376663
v 0.01371496 0.02749812 0.08335357
v 0.01351732 0.02749812 0.08287340
v -0.01300007 0.02749812 0.08499991
v -0.01351743 0.02749812 0.08287340
v -0.01371514 0.02749812 0.08335357
v -0.01402974 0.02749812 0.08376663
v -0.01444011 0.02749812 0.08408480
v -0.01389378 0.02749812 0.08494263
v -0.01491856 0.02749812 0.08428668
v -0.01477283 0.02749812 0.08477175
v -0.01543277 0.02749812 0.08435845
v -0.01543277 0.02749812 0.08435845
v -0.01477283 0.02749812 0.08477175
v -0.01562291 0.02749812 0.08449000
v -0.01543277 0.02749812 0.08435845
v -0.01562291 0.02749812 0.08449000
v -0.01594823 0.02749812 0.08429551
v -0.01594823 0.02749812 0.08429551
v -0.01562291 0.02749812 0.08449000
v -0.01643007 0.02749812 0.08410197
v 0.01344990 0.02749812 0.08235859
v -0.01345008 0.02749812 0.08235859
v 0.01344990 0.02749812 0.07364130
v -0.01345008 0.02749812 0.07364130
v 0.01351732 0.02749812 0.07312649
v -0.01351743 0.02749812 0.07312649
v 0.01299989 0.02749812 0.07099992
v -0.01300007 0.02749812 0.07099992
v -0.01371514 0.02749812 0.07264637
v -0.01402974 0.02749812 0.07223320
v -0.01444011 0.02749812 0.07191509
v -0.01389378 0.02749812 0.07105720
v -0.01491856 0.02749812 0.07171326
v -0.01477283 0.02749812 0.07122814
v -0.01543277 0.02749812 0.07164138
v -0.01477283 0.02749812 0.07122814
v -0.01543277 0.02749812 0.07164138
v -0.01562291 0.02749812 0.07150989
v -0.01562291 0.02749812 0.07150989
v -0.01594823 0.02749812 0.07170432
v -0.01643007 0.02749812 0.07189792
v 0.01389360 0.02749812 0.07105720
v 0.01443994 0.02749812 0.07191509
v 0.01402956 0.02749812 0.07223320
v 0.01371496 0.02749812 0.07264637
v 0.01491838 0.02749812 0.07171326
v 0.01491838 0.02749812 0.07171326
v 0.01477265 0.02749812 0.07122814
v 0.01543259 0.02749812 0.07164138
v 0.01562273 0.02749812 0.07150989
v 0.01594805 0.02749812 0.07170432
v 0.01642990 0.02749812 0.07189792
v 0.01344990 0.02749812 0.08235859
v 0.01344990 0.02399808 0.08235859
v 0.01351732 0.02749812 0.08287340
v 0.01351732 0.02399808 0.08287340
v 0.01371496 0.02399808 0.08335357
v 0.01371496 0.02749812 0.08335357
v 0.01402956 0.02399808 0.08376663
v 0.01402956 0.02749812 0.08376663
v 0.01443994 0.02399808 0.08408480
v 0.01443994 0.02749812 0.08408480
v 0.01491838 0.02399808 0.08428668
v 0.01491838 0.02749812 0.08428668
v 0.01543265 0.02399808 0.08435845
v 0.01543259 0.02749812 0.08435845
v 0.01594805 0.02399808 0.08429551
v 0.01594805 0.02749812 0.08429551
v 0.01642990 0.02749812 0.08410197
v 0.01642990 0.02399808 0.08410197
v -0.01643007 0.02749812 0.08410197
v -0.01643007 0.02399808 0.08410197
v -0.01594823 0.02749812 0.08429551
v -0.01594823 0.02399808 0.08429551
v -0.01543277 0.02399808 0.08435845
v -0.01543277 0.02749812 0.08435845
v -0.01491856 0.02399808 0.08428668
v -0.01491856 0.02749812 0.08428668
v -0.01444011 0.02399808 0.08408480
v -0.01444011 0.02749812 0.08408480
v -0.01402974 0.02399808 0.08376663
v -0.01402974 0.02749812 0.08376663
v -0.01371514 0.02399808 0.08335357
v -0.01371514 0.02749812 0.08335357
v -0.01351743 0.02399808 0.08287340
v -0.01351743 0.02749812 0.08287340
v -0.01345008 0.02749812 0.08235859
v -0.01345008 0.02399808 0.08235859
v 0.01344990 0.02399808 0.07364130
v 0.01344990 0.02749812 0.07364130
v 0.01642990 0.02749812 0.07189792
v 0.01642990 0.02399808 0.07189792
v 0.01594805 0.02749812 0.07170432
v 0.01594805 0.02399808 0.07170432
v 0.01543265 0.02399808 0.07164138
v 0.01543259 0.02749812 0.07164138
v 0.01491838 0.02399808 0.07171326
v 0.01491838 0.02749812 0.07171326
v 0.01443994 0.02399808 0.07191509
v 0.01443994 0.02749812 0.07191509
v 0.01402956 0.02399808 0.07223320
v 0.01402956 0.02749812 0.07223320
v 0.01371496 0.02399808 0.07264637
v 0.01371496 0.02749812 0.07264637
v 0.01351732 0.02399808 0.07312649
v 0.01351732 0.02749812 0.07312649
v -0.01345008 0.02749812 0.07364130
v -0.01345008 0.02399808 0.07364130
v -0.01351743 0.02749812 0.07312649
v -0.01351743 0.02399808 0.07312649
v -0.01371514 0.02399808 0.07264637
v -0.01371514 0.02749812 0.07264637
v -0.01402974 0.02399808 0.07223320
v -0.01402974 0.02749812 0.07223320
v -0.01444011 0.02399808 0.07191509
v -0.01444011 0.02749812 0.07191509
v -0.01491856 0.02399808 0.07171326
v -0.01491856 0.02749812 0.07171326
v -0.01543277 0.02399808 0.07164138
v -0.01543277 0.02749812 0.07164138
v -0.01594823 0.02399808 0.07170432
v -0.01594823 0.02749812 0.07170432
v -0.01643007 0.02749812 0.07189792
v -0.01643007 0.02399808 0.07189792
v 0.01299989 0.02749812 0.07099992
v 0.01299989 0.02978485 0.07099992
v 0.01389360 0.02749812 0.07105720
v 0.01396554 0.02934378 0.07106828
v 0.01477265 0.02749812 0.07122814
v 0.01492929 0.02886545 0.07127237
v 0.01562273 0.02749812 0.07150989
v 0.01586008 0.02836543 0.07161098
v 0.01642990 0.02749812 0.07189792
v 0.01672977 0.02786093 0.07207787
v 0.01642990 0.02399808 0.07189792
v 0.01731014 0.02399808 0.07248431
v 0.01751756 0.02737259 0.07265418
v 0.01809191 0.02399808 0.07319670
v 0.01820516 0.02692049 0.07331979
v 0.01875752 0.02399808 0.07401871
v 0.01881206 0.02649962 0.07410174
v 0.01929163 0.02399808 0.07493168
v 0.01932442 0.02612876 0.07499992
v 0.01932442 0.02549809 0.07499992
v 0.01968204 0.02399808 0.07591468
v 0.01969695 0.02549809 0.07596290
v 0.01991999 0.02399808 0.07694530
v 0.01992374 0.02549809 0.07697021
v 0.01999986 0.02399808 0.07799994
v 0.01999986 0.02549809 0.07799994
v 0.01992374 0.02549809 0.07902961
v 0.01991999 0.02399808 0.07905459
v 0.01969695 0.02549809 0.08003693
v 0.01968204 0.02399808 0.08008521
v 0.01932442 0.02549809 0.08099991
v 0.01929163 0.02399808 0.08106821
v 0.01932442 0.02612876 0.08099991
v 0.01881206 0.02649962 0.08189815
v 0.01875752 0.02399808 0.08198112
v 0.01820516 0.02692049 0.08268004
v 0.01809191 0.02399808 0.08280318
v 0.01751756 0.02737259 0.08334565
v 0.01731014 0.02399808 0.08351558
v 0.01672977 0.02786093 0.08392196
v 0.01642990 0.02399808 0.08410197
v 0.01642990 0.02749812 0.08410197
v 0.01586008 0.02836543 0.08438891
v 0.01562273 0.02749812 0.08449000
v 0.01492929 0.02886545 0.08472752
v 0.01477265 0.02749812 0.08477175
v 0.01396554 0.02934378 0.08493161
v 0.01389360 0.02749812 0.08494263
v 0.01299989 0.02978485 0.08499991
v -0.01932460 0.02549809 0.07499992
v -0.01932460 0.02612876 0.07499992
v -0.01929175 0.02399808 0.07493168
v -0.01881223 0.02649956 0.07410174
v -0.01875770 0.02399808 0.07401871
v -0.01820534 0.02692049 0.07331979
v -0.01809209 0.02399808 0.07319670
v -0.01751774 0.02737259 0.07265418
v -0.01731026 0.02399808 0.07248431
v -0.01672989 0.02786087 0.07207787
v -0.01643007 0.02399808 0.07189792
v -0.01643007 0.02749812 0.07189792
v -0.01586025 0.02836537 0.07161098
v -0.01562291 0.02749812 0.07150989
v -0.01492947 0.02886545 0.07127237
v -0.01477283 0.02749812 0.07122814
v -0.01396566 0.02934372 0.07106828
v -0.01389378 0.02749812 0.07105720
v -0.01300007 0.02978485 0.07099992
v -0.01300007 0.02749812 0.07099992
v -0.01968222 0.02399808 0.07591468
v -0.01969712 0.02549809 0.07596290
v -0.01992017 0.02399808 0.07694530
v -0.01992392 0.02549809 0.07697021
v -0.02000004 0.02399808 0.07799994
v -0.02000004 0.02549809 0.07799994
v -0.01992392 0.02549809 0.07902961
v -0.01992017 0.02399808 0.07905459
v -0.01969712 0.02549809 0.08003693
v -0.01968222 0.02399808 0.08008521
v -0.01932460 0.02549809 0.08099991
v -0.01929175 0.02399808 0.08106821
v -0.01932460 0.02612876 0.08099991
v -0.01881223 0.02649956 0.08189815
v -0.01875770 0.02399808 0.08198112
v -0.01820534 0.02692049 0.08268004
v -0.01809209 0.02399808 0.08280318
v -0.01751774 0.02737259 0.08334565
v -0.01731026 0.02399808 0.08351558
v -0.01672989 0.02786087 0.08392196
v -0.01643007 0.02399808 0.08410197
v -0.01643007 0.02749812 0.08410197
v -0.01586025 0.02836537 0.08438891
v -0.01562291 0.02749812 0.08449000
v -0.01492947 0.02886545 0.08472752
v -0.01477283 0.02749812 0.08477175
v -0.01396566 0.02934372 0.08493161
v -0.01389378 0.02749812 0.08494263
v -0.01300007 0.02978485 0.08499991
v 0.01699990 0.02769738 0.08099991
v 0.01778966 0.02719688 0.08099991
v 0.01699990 0.02549809 0.08099991
v 0.01699990 0.02549809 0.08099991
v 0.01778966 0.02719688 0.08099991
v 0.01856476 0.02667385 0.08099991
v 0.01932442 0.02549809 0.08099991
v 0.01932442 0.02612876 0.08099991
v 0.01699990 0.02769738 0.07499992
v 0.01646727 0.02801710 0.07504832
v 0.01699990 0.02549809 0.07499992
v 0.01633232 0.02549809 0.07507514
v 0.01592612 0.02832835 0.07519876
v 0.01569825 0.02549809 0.07529705
v 0.01541084 0.02861189 0.07545626
v 0.01512944 0.02549809 0.07565444
v 0.01495182 0.02885448 0.07580810
v 0.01465439 0.02549809 0.07612949
v 0.01456648 0.02905088 0.07624655
v 0.01429700 0.02549809 0.07669830
v 0.01425802 0.02920347 0.07678264
v 0.01407510 0.02549809 0.07733237
v 0.01406478 0.02929711 0.07738345
v 0.01399987 0.02549809 0.07799994
v 0.01399987 0.02932810 0.07799994
v 0.01406478 0.02929711 0.07861644
v 0.01407510 0.02549809 0.07866746
v 0.01425802 0.02920347 0.07921725
v 0.01429700 0.02549809 0.07930159
v 0.01456648 0.02905088 0.07975327
v 0.01465439 0.02549809 0.07987040
v 0.01495182 0.02885448 0.08019173
v 0.01512944 0.02549809 0.08034539
v 0.01541084 0.02861189 0.08054363
v 0.01569825 0.02549809 0.08070284
v 0.01592612 0.02832835 0.08080118
v 0.01633232 0.02549809 0.08092468
v 0.01646727 0.02801710 0.08095157
v 0.01699990 0.02549809 0.08099991
v 0.01699990 0.02769738 0.08099991
v 0.01932442 0.02612876 0.07499992
v 0.01856476 0.02667385 0.07499992
v 0.01932442 0.02549809 0.07499992
v 0.01699990 0.02549809 0.07499992
v 0.01778966 0.02719688 0.07499992
v 0.01699990 0.02769738 0.07499992
v -0.01092815 0.03060573 0.07099992
v 0.01092797 0.03060573 0.07099992
v -0.01300007 0.02978485 0.07099992
v 0.01299989 0.02978485 0.07099992
v 0.00880468 0.03128272 0.07099992
v -0.00880480 0.03128272 0.07099992
v 0.00663996 0.03181254 0.07099992
v -0.00664013 0.03181254 0.07099992
v 0.00444400 0.03219282 0.07099992
v -0.00444418 0.03219282 0.07099992
v 0.00222719 0.03242170 0.07099992
v -0.00222736 0.03242170 0.07099992
v 0.00000000 0.03249812 0.07099992
v 0.01092797 0.03060573 0.07099992
v 0.01299989 0.02978485 0.08499991
v 0.01299989 0.02978485 0.07099992
v 0.01396554 0.02934378 0.08493161
v 0.01396554 0.02934378 0.07106828
v 0.01399987 0.02932810 0.07799994
v 0.01406478 0.02929711 0.07738345
v 0.01092797 0.03060573 0.08499991
v 0.00880468 0.03128272 0.07099992
v 0.00880468 0.03128272 0.08499991
v 0.00663996 0.03181254 0.07099992
v 0.00663996 0.03181254 0.08499991
v 0.00444400 0.03219282 0.07099992
v 0.00444400 0.03219282 0.08499991
v 0.00222719 0.03242170 0.07099992
v 0.00222719 0.03242170 0.08499991
v 0.00000000 0.03249812 0.08499991
v 0.00000000 0.03249812 0.07099992
v -0.00222736 0.03242170 0.08499991
v -0.00222736 0.03242170 0.07099992
v -0.00444418 0.03219282 0.07099992
v -0.00444418 0.03219282 0.08499991
v -0.00664013 0.03181254 0.07099992
v -0.00664013 0.03181254 0.08499991
v -0.00880480 0.03128272 0.07099992
v -0.00880486 0.03128272 0.08499991
v -0.01092815 0.03060573 0.07099992
v -0.01092815 0.03060573 0.08499991
v -0.01300007 0.02978485 0.07099992
v -0.01300007 0.02978485 0.08499991
v -0.01396566 0.02934372 0.07106828
v -0.01396566 0.02934372 0.08493161
v -0.01400005 0.02932810 0.07799994
v -0.01406496 0.02929711 0.07861644
v -0.01492947 0.02886545 0.07127237
v -0.01456665 0.02905082 0.07624655
v -0.01425820 0.02920347 0.07678264
v -0.01406496 0.02929711 0.07738345
v -0.01586025 0.02836537 0.07161098
v -0.01541101 0.02861183 0.07545626
v -0.01495194 0.02885442 0.07580810
v -0.01672989 0.02786087 0.07207787
v -0.01646745 0.02801710 0.07504832
v -0.01592630 0.02832835 0.07519876
v -0.01700007 0.02769738 0.07499992
v -0.01751774 0.02737259 0.07265418
v -0.01778984 0.02719688 0.07499992
v -0.01820534 0.02692049 0.07331979
v -0.01856493 0.02667385 0.07499992
v -0.01881223 0.02649956 0.07410174
v -0.01932460 0.02612876 0.07499992
v -0.01425820 0.02920347 0.07921725
v -0.01456665 0.02905082 0.07975327
v -0.01492947 0.02886545 0.08472752
v -0.01495194 0.02885442 0.08019173
v -0.01541101 0.02861183 0.08054363
v -0.01586025 0.02836537 0.08438891
v -0.01592630 0.02832835 0.08080118
v -0.01646745 0.02801710 0.08095157
v -0.01672989 0.02786087 0.08392196
v -0.01700007 0.02769738 0.08099991
v -0.01751774 0.02737259 0.08334565
v -0.01778984 0.02719688 0.08099991
v -0.01820534 0.02692049 0.08268004
v -0.01856493 0.02667385 0.08099991
v -0.01881223 0.02649956 0.08189815
v -0.01932460 0.02612876 0.08099991
v 0.01492929 0.02886545 0.08472752
v 0.01456648 0.02905088 0.07975327
v 0.01425802 0.02920347 0.07921725
v 0.01406478 0.02929711 0.07861644
v 0.01586008 0.02836543 0.08438891
v 0.01541084 0.02861189 0.08054363
v 0.01495182 0.02885448 0.08019173
v 0.01672977 0.02786093 0.08392196
v 0.01646727 0.02801710 0.08095157
v 0.01592612 0.02832835 0.08080118
v 0.01699990 0.02769738 0.08099991
v 0.01751756 0.02737259 0.08334565
v 0.01778966 0.02719688 0.08099991
v 0.01820516 0.02692049 0.08268004
v 0.01856476 0.02667385 0.08099991
v 0.01881206 0.02649962 0.08189815
v 0.01932442 0.02612876 0.08099991
v 0.01425802 0.02920347 0.07678264
v 0.01456648 0.02905088 0.07624655
v 0.01492929 0.02886545 0.07127237
v 0.01495182 0.02885448 0.07580810
v 0.01541084 0.02861189 0.07545626
v 0.01586008 0.02836543 0.07161098
v 0.01592612 0.02832835 0.07519876
v 0.01646727 0.02801710 0.07504832
v 0.01672977 0.02786093 0.07207787
v 0.01699990 0.02769738 0.07499992
v 0.01751756 0.02737259 0.07265418
v 0.01778966 0.02719688 0.07499992
v 0.01820516 0.02692049 0.07331979
v 0.01856476 0.02667385 0.07499992
v 0.01881206 0.02649962 0.07410174
v 0.01932442 0.02612876 0.07499992
f 1 2 3
f 3 2 4
f 3 4 5
f 5 4 6
f 6 4 7
f 7 4 8
f 8 4 9
f 9 4 10
f 10 4 11
f 11 4 12
f 1 13 2
f 2 13 14
f 2 14 15
f 15 16 2
f 2 16 17
f 2 17 18
f 3 5 19
f 19 5 20
f 19 20 21
f 21 20 22
f 21 22 23
f 23 22 24
f 23 24 25
f 25 24 26
f 25 26 27
f 27 26 28
f 29 30 31
f 31 30 32
f 33 34 35
f 36 37 38
f 39 40 41
f 39 41 42
f 43 44 38
f 39 45 46
f 39 46 47
f 48 49 50
f 39 51 52
f 39 52 53
f 53 52 54
f 53 54 55
f 52 51 56
f 56 51 57
f 56 57 58
f 58 57 59
f 58 59 60
f 60 59 61
f 60 61 62
f 62 61 63
f 62 63 64
f 64 63 65
f 64 65 66
f 66 65 67
f 66 67 68
f 55 69 53
f 53 69 70
f 53 71 72
f 72 73 53
f 74 75 76
f 77 78 79
f 79 78 80
f 79 80 81
f 81 80 82
f 78 77 83
f 83 77 84
f 83 84 85
f 85 84 86
f 85 86 87
f 87 86 88
f 87 88 89
f 89 88 90
f 89 90 91
f 92 93 94
f 94 93 95
f 94 95 96
f 97 98 96
f 96 98 99
f 96 99 100
f 97 101 98
f 98 101 102
f 100 103 96
f 96 103 104
f 96 104 105
f 105 106 96
f 96 106 107
f 96 107 108
f 108 109 96
f 96 109 110
f 96 110 111
f 111 112 96
f 96 112 113
f 96 113 94
f 114 115 116
f 116 115 117
f 117 115 118
f 119 120 121
f 122 123 124
f 124 123 125
f 125 123 126
f 125 126 127
f 127 126 128
f 127 128 129
f 129 128 130
f 129 130 131
f 131 130 132
f 131 132 133
f 133 132 134
f 133 134 135
f 135 134 136
f 135 136 137
f 137 136 138
f 137 138 139
f 137 139 140
f 140 139 141
f 140 141 142
f 142 141 143
f 142 143 144
f 144 143 145
f 144 145 146
f 146 145 147
f 146 147 148
f 148 147 149
f 148 149 150
f 150 149 151
f 150 151 152
f 152 151 153
f 154 155 156
f 156 155 157
f 156 157 158
f 159 160 161
f 162 163 164
f 164 163 165
f 164 165 166
f 167 168 166
f 166 168 169
f 166 169 170
f 167 171 168
f 168 171 172
f 170 173 166
f 166 173 174
f 166 174 175
f 175 176 166
f 166 177 178
f 166 178 179
f 180 181 182
f 182 181 183
f 182 183 184
f 184 185 166
f 182 185 186
f 182 186 164
f 187 188 189
f 190 191 192
f 192 191 193
f 192 193 194
f 195 193 196
f 194 197 198
f 198 197 199
f 198 199 200
f 200 199 201
f 201 199 202
f 202 199 203
f 202 203 204
f 204 203 205
f 205 203 206
f 206 203 207
f 207 203 208
f 207 208 209
f 209 208 210
f 209 210 211
f 212 213 214
f 215 216 217
f 218 219 220
f 202 204 221
f 221 204 222
f 221 222 223
f 223 222 224
f 223 224 225
f 225 224 226
f 225 226 227
f 227 226 228
f 228 226 229
f 228 229 230
f 230 231 228
f 228 231 232
f 232 231 233
f 232 233 234
f 234 233 235
f 236 237 238
f 239 235 240
f 239 240 241
f 242 243 227
f 227 243 244
f 227 244 245
f 243 242 246
f 247 242 248
f 247 248 249
f 249 248 250
f 249 250 251
f 251 250 252
f 245 225 227
f 253 254 255
f 255 254 256
f 255 256 257
f 255 257 258
f 258 257 259
f 258 259 260
f 260 259 261
f 260 261 262
f 262 261 263
f 262 263 264
f 264 263 265
f 264 265 266
f 266 265 267
f 266 267 268
f 268 267 269
f 269 267 270
f 271 272 273
f 273 272 274
f 273 274 275
f 273 275 276
f 276 275 277
f 276 277 278
f 278 277 279
f 278 279 280
f 280 279 281
f 280 281 282
f 282 281 283
f 282 283 284
f 284 283 285
f 284 285 286
f 286 285 287
f 287 285 288
f 289 254 290
f 290 254 253
f 291 292 293
f 293 292 294
f 293 294 295
f 293 295 296
f 296 295 297
f 296 297 298
f 298 297 299
f 298 299 300
f 300 299 301
f 300 301 302
f 302 301 303
f 302 303 304
f 304 303 305
f 304 305 306
f 306 305 290
f 290 305 289
f 307 287 308
f 308 287 288
f 307 308 309
f 309 308 310
f 309 310 311
f 309 311 312
f 312 311 313
f 312 313 314
f 314 313 315
f 314 315 316
f 316 315 317
f 316 317 318
f 318 317 319
f 318 319 320
f 320 319 321
f 320 321 322
f 322 321 323
f 323 321 324
f 325 326 327
f 327 326 328
f 327 328 329
f 329 328 330
f 329 330 331
f 331 330 332
f 331 332 333
f 333 332 334
f 333 334 335
f 335 334 336
f 336 334 337
f 336 337 338
f 338 337 339
f 338 339 340
f 340 339 341
f 340 341 342
f 342 341 343
f 342 343 344
f 342 344 345
f 345 344 346
f 345 346 347
f 347 346 348
f 347 348 349
f 349 348 350
f 349 350 351
f 349 351 352
f 352 351 353
f 352 353 354
f 354 353 355
f 354 355 356
f 356 355 357
f 356 357 358
f 356 358 359
f 359 358 360
f 359 360 361
f 361 360 362
f 361 362 363
f 363 362 364
f 363 364 365
f 365 364 366
f 366 364 367
f 366 367 368
f 368 367 369
f 368 369 370
f 370 369 371
f 370 371 372
f 372 371 373
f 372 373 81
f 374 375 376
f 376 375 377
f 376 377 378
f 378 377 379
f 378 379 380
f 380 379 381
f 380 381 382
f 382 381 383
f 382 383 384
f 384 383 385
f 385 383 386
f 385 386 387
f 387 386 388
f 387 388 389
f 389 388 390
f 389 390 391
f 391 390 392
f 391 392 393
f 376 394 374
f 374 394 395
f 395 394 396
f 395 396 397
f 397 396 398
f 397 398 399
f 399 398 400
f 400 398 401
f 400 401 402
f 402 401 403
f 402 403 404
f 404 403 405
f 404 405 406
f 406 405 407
f 407 405 408
f 407 408 409
f 409 408 410
f 409 410 411
f 411 410 412
f 411 412 413
f 413 412 414
f 413 414 415
f 413 415 416
f 416 415 417
f 416 417 418
f 418 417 419
f 418 419 420
f 420 419 421
f 420 421 422
f 422 421 82
f 423 424 425
f 426 427 428
f 426 428 429
f 429 428 430
f 431 432 433
f 433 432 434
f 434 432 435
f 434 435 436
f 436 435 437
f 436 437 438
f 438 437 439
f 438 439 440
f 440 439 441
f 440 441 442
f 442 441 443
f 442 443 444
f 444 443 445
f 444 445 446
f 446 445 447
f 446 447 448
f 446 448 449
f 449 448 450
f 449 450 451
f 451 450 452
f 451 452 453
f 453 452 454
f 453 454 455
f 455 454 456
f 455 456 457
f 457 456 458
f 457 458 459
f 459 458 460
f 459 460 461
f 461 460 462
f 463 464 465
f 465 464 466
f 466 464 467
f 466 467 468
f 469 470 471
f 471 470 472
f 471 472 393
f 393 472 325
f 470 469 473
f 473 469 474
f 473 474 475
f 475 474 476
f 475 476 477
f 477 476 478
f 477 478 479
f 479 478 480
f 479 480 481
f 482 483 484
f 484 483 485
f 484 485 486
f 486 485 487
f 486 487 488
f 483 482 489
f 489 482 490
f 489 490 491
f 491 490 492
f 491 492 493
f 493 492 494
f 493 494 495
f 495 494 496
f 495 496 497
f 497 496 498
f 498 496 499
f 498 499 500
f 500 499 501
f 500 501 502
f 500 502 503
f 503 502 504
f 503 504 505
f 505 504 506
f 505 506 507
f 507 506 508
f 507 508 509
f 509 508 510
f 509 510 511
f 511 510 512
f 511 512 513
f 513 512 514
f 513 514 515
f 516 517 512
f 512 517 518
f 512 518 519
f 520 521 516
f 516 521 522
f 516 522 517
f 523 524 520
f 520 524 525
f 520 525 521
f 524 523 526
f 526 523 527
f 526 527 528
f 528 527 529
f 528 529 530
f 530 529 531
f 530 531 532
f 519 514 512
f 515 533 513
f 513 533 534
f 513 534 535
f 535 534 536
f 535 536 537
f 535 537 538
f 538 537 539
f 538 539 540
f 538 540 541
f 541 540 542
f 541 542 543
f 543 542 544
f 543 544 545
f 545 544 546
f 545 546 547
f 547 546 548
f 549 550 485
f 485 550 551
f 485 551 552
f 553 554 549
f 549 554 555
f 549 555 550
f 556 557 553
f 553 557 558
f 553 558 554
f 557 556 559
f 559 556 560
f 559 560 561
f 561 560 562
f 561 562 563
f 563 562 564
f 563 564 565
f 552 487 485
f 488 566 486
f 486 566 567
f 486 567 568
f 568 567 569
f 568 569 570
f 568 570 571
f 571 570 572
f 571 572 573
f 571 573 574
f 574 573 575
f 574 575 576
f 576 575 577
f 576 577 578
f 578 577 579
f 578 579 580
f 580 579 581

