# https://github.com/mikedh/trimesh
v 0.00368655 -0.16923518 -0.02528405
v 0.00321078 -0.16924879 -0.02529770
v 0.00463772 -0.16824059 -0.02726209
v 0.00321072 -0.16735208 -0.02914822
v 0.00463772 -0.16774118 -0.02825856
v 0.00459200 -0.16712159 -0.02945917
v 0.00314987 -0.16726059 -0.02932757
v 0.00382149 -0.16663359 -0.03044629
v 0.00436234 -0.16687268 -0.02995145
v 0.00304556 -0.16721539 -0.02942126
v 0.00284594 -0.16719338 -0.02947688
v 0.00283271 -0.16652198 -0.03072667
v 0.00071369 -0.16722448 -0.02950763
v 0.00071369 -0.16655369 -0.03075504
v -0.00071324 -0.16722459 -0.02950763
v -0.00071324 -0.16655369 -0.03075504
v -0.00142681 -0.16654749 -0.03074884
v -0.00248700 -0.16720128 -0.02948445
v -0.00214028 -0.16653718 -0.03073847
v -0.00285363 -0.16652268 -0.03072398
v -0.00293535 -0.16719648 -0.02946490
v -0.00348234 -0.16656078 -0.03060853
v -0.00312978 -0.16724789 -0.02935332
v -0.00409835 -0.16672769 -0.03024715
v -0.00321036 -0.16734959 -0.02915316
v -0.00463611 -0.16730809 -0.02909946
v -0.00463724 -0.16792388 -0.02789765
v -0.00321036 -0.16847569 -0.02692341
v -0.00464272 -0.16842869 -0.02687853
v -0.00411641 -0.16899708 -0.02575033
v -0.00450230 -0.16873318 -0.02626365
v -0.00071304 -0.16851328 -0.02696967
v 0.00071578 -0.16851468 -0.02696686
v 0.00050974 -0.16887988 -0.02621304
v -0.00001139 -0.16914299 -0.02565956
v -0.00074084 -0.16857459 -0.02684348
v -0.00050206 -0.16925128 -0.02542418
v -0.00081658 -0.16862549 -0.02673709
v -0.00093099 -0.16865878 -0.02666574
v -0.00107688 -0.16867068 -0.02663767
v -0.00107098 -0.16928919 -0.02533388
v -0.00131166 -0.16866848 -0.02663511
v -0.00175977 -0.16928118 -0.02532494
v -0.00181067 -0.16866179 -0.02662891
v -0.00285119 -0.16925769 -0.02530783
v -0.00285286 -0.16864169 -0.02660882
v -0.00297516 -0.16862918 -0.02662569
v -0.00354069 -0.16918108 -0.02541446
v -0.00310618 -0.16858949 -0.02669751
v -0.00318289 -0.16853659 -0.02680045
v -0.00450605 -0.16699828 -0.02970129
v 0.00071369 -0.16626999 -0.03126907
v -0.00071324 -0.16626999 -0.03126907
v 0.00023805 -0.16569419 -0.03229331
v -0.00023760 -0.16569419 -0.03229331
v -0.00071324 -0.16598289 -0.03178119
v -0.00071324 -0.16569248 -0.03229147
v 0.00071369 -0.16569248 -0.03229147
v 0.00071369 -0.16598289 -0.03178119
v 0.00463772 -0.16920218 -0.02525109
v 0.00416219 -0.16921958 -0.02526849
f 1 2 3
f 3 2 4
f 3 4 5
f 5 4 6
f 7 8 4
f 4 8 9
f 4 9 6
f 7 10 8
f 8 10 11
f 8 11 12
f 12 11 13
f 12 13 14
f 14 13 15
f 14 15 16
f 16 15 17
f 17 15 18
f 17 18 19
f 19 18 20
f 20 18 21
f 20 21 22
f 22 21 23
f 22 23 24
f 24 23 25
f 24 25 26
f 26 25 27
f 27 25 28
f 27 28 29
f 29 28 30
f 29 30 31
f 15 13 32
f 32 13 33
f 32 33 34
f 34 35 32
f 32 35 36
f 36 35 37
f 36 37 38
f 38 37 39
f 39 37 40
f 40 37 41
f 40 41 42
f 42 41 43
f 42 43 44
f 44 43 45
f 44 45 46
f 46 45 47
f 47 45 48
f 47 48 49
f 49 48 50
f 50 48 30
f 50 30 28
f 26 51 24
f 14 16 52
f 52 16 53
f 52 53 54
f 54 53 55
f 55 53 56
f 55 56 57
f 58 59 54
f 54 59 52
f 60 61 3
f 3 61 1

